<?xml version="1.0" encoding="us-ascii" standalone="no"?><svg xmlns="http://www.w3.org/2000/svg" xmlns:xlink="http://www.w3.org/1999/xlink" contentStyleType="text/css" height="1427px" preserveAspectRatio="none" style="width:798px;height:1427px;background:#FFFFFF;" version="1.1" viewBox="0 0 798 1427" width="798px" zoomAndPan="magnify"><defs/><g><text fill="#000000" font-family="sans-serif" font-size="14" font-weight="bold" lengthAdjust="spacing" textLength="147" x="318.5" y="25.1074">US07 - Class Diagram</text><!--class Repositories--><g id="elem_Repositories"><rect codeLine="55" fill="#F1F1F1" height="122.4844" id="Repositories" rx="2.5" ry="2.5" style="stroke:#181818;stroke-width:0.5;" width="220" x="271" y="729.6211"/><ellipse cx="337.25" cy="745.6211" fill="#ADD1B2" rx="11" ry="11" style="stroke:#181818;stroke-width:1.0;"/><path d="M340.0156,741.4961 Q340.1719,741.2773 340.3594,741.168 Q340.5469,741.0586 340.7656,741.0586 Q341.1406,741.0586 341.375,741.3242 Q341.6094,741.5742 341.6094,742.1836 L341.6094,743.6367 Q341.6094,744.2461 341.375,744.5117 Q341.1406,744.7773 340.7656,744.7773 Q340.4219,744.7773 340.2188,744.5742 Q340.0156,744.3867 339.9063,743.8711 Q339.8594,743.5117 339.6719,743.3242 Q339.3438,742.9492 338.7344,742.7305 Q338.125,742.5117 337.5,742.5117 Q336.7344,742.5117 336.0938,742.8398 Q335.4688,743.168 334.9688,743.918 Q334.4844,744.668 334.4844,745.6992 L334.4844,746.793 Q334.4844,748.0273 335.375,748.8555 Q336.2656,749.668 337.8594,749.668 Q338.7969,749.668 339.4531,749.418 Q339.8438,749.2617 340.2656,748.8242 Q340.5313,748.5586 340.6719,748.4805 Q340.8281,748.4023 341.0313,748.4023 Q341.3594,748.4023 341.6094,748.668 Q341.875,748.918 341.875,749.2617 Q341.875,749.6055 341.5313,750.0117 Q341.0313,750.5898 340.2344,750.918 Q339.1563,751.3711 337.8594,751.3711 Q336.3438,751.3711 335.1406,750.7461 Q334.1563,750.2461 333.4688,749.1836 Q332.7813,748.1055 332.7813,746.8242 L332.7813,745.668 Q332.7813,744.3398 333.3906,743.1992 Q334.0156,742.043 335.1094,741.4336 Q336.2031,740.8086 337.4375,740.8086 Q338.1719,740.8086 338.8125,740.9805 Q339.4688,741.1367 340.0156,741.4961 Z " fill="#000000"/><text fill="#000000" font-family="sans-serif" font-size="14" lengthAdjust="spacing" textLength="79" x="357.75" y="751.418">Repositories</text><line style="stroke:#181818;stroke-width:0.5;" x1="272" x2="490" y1="761.6211" y2="761.6211"/><line style="stroke:#181818;stroke-width:0.5;" x1="272" x2="490" y1="769.6211" y2="769.6211"/><text fill="#000000" font-family="sans-serif" font-size="14" lengthAdjust="spacing" textLength="94" x="277" y="788.7285">-Repositories()</text><text fill="#000000" font-family="sans-serif" font-size="14" lengthAdjust="spacing" textLength="91" x="277" y="807.3496">+getInstance()</text><text fill="#000000" font-family="sans-serif" font-size="14" lengthAdjust="spacing" textLength="152" x="277" y="825.9707">+getVehicleRepository()</text><text fill="#000000" font-family="sans-serif" font-size="14" lengthAdjust="spacing" textLength="208" x="277" y="844.5918">+getVehicleCheckupRepository()</text></g><!--class VehicleRepository--><g id="elem_VehicleRepository"><rect codeLine="62" fill="#F1F1F1" height="103.8633" id="VehicleRepository" rx="2.5" ry="2.5" style="stroke:#181818;stroke-width:0.5;" width="168" x="97" y="912.6211"/><ellipse cx="121.9" cy="928.6211" fill="#ADD1B2" rx="11" ry="11" style="stroke:#181818;stroke-width:1.0;"/><path d="M124.6656,924.4961 Q124.8219,924.2773 125.0094,924.168 Q125.1969,924.0586 125.4156,924.0586 Q125.7906,924.0586 126.025,924.3242 Q126.2594,924.5742 126.2594,925.1836 L126.2594,926.6367 Q126.2594,927.2461 126.025,927.5117 Q125.7906,927.7773 125.4156,927.7773 Q125.0719,927.7773 124.8688,927.5742 Q124.6656,927.3867 124.5563,926.8711 Q124.5094,926.5117 124.3219,926.3242 Q123.9938,925.9492 123.3844,925.7305 Q122.775,925.5117 122.15,925.5117 Q121.3844,925.5117 120.7438,925.8398 Q120.1188,926.168 119.6188,926.918 Q119.1344,927.668 119.1344,928.6992 L119.1344,929.793 Q119.1344,931.0273 120.025,931.8555 Q120.9156,932.668 122.5094,932.668 Q123.4469,932.668 124.1031,932.418 Q124.4938,932.2617 124.9156,931.8242 Q125.1813,931.5586 125.3219,931.4805 Q125.4781,931.4023 125.6813,931.4023 Q126.0094,931.4023 126.2594,931.668 Q126.525,931.918 126.525,932.2617 Q126.525,932.6055 126.1813,933.0117 Q125.6813,933.5898 124.8844,933.918 Q123.8063,934.3711 122.5094,934.3711 Q120.9938,934.3711 119.7906,933.7461 Q118.8063,933.2461 118.1188,932.1836 Q117.4313,931.1055 117.4313,929.8242 L117.4313,928.668 Q117.4313,927.3398 118.0406,926.1992 Q118.6656,925.043 119.7594,924.4336 Q120.8531,923.8086 122.0875,923.8086 Q122.8219,923.8086 123.4625,923.9805 Q124.1188,924.1367 124.6656,924.4961 Z " fill="#000000"/><text fill="#000000" font-family="sans-serif" font-size="14" lengthAdjust="spacing" textLength="114" x="138.1" y="934.418">VehicleRepository</text><line style="stroke:#181818;stroke-width:0.5;" x1="98" x2="264" y1="944.6211" y2="944.6211"/><text fill="#000000" font-family="sans-serif" font-size="14" lengthAdjust="spacing" textLength="144" x="103" y="963.7285">-List&lt;Vehicle&gt; vehicles</text><line style="stroke:#181818;stroke-width:0.5;" x1="98" x2="264" y1="971.2422" y2="971.2422"/><text fill="#000000" font-family="sans-serif" font-size="14" lengthAdjust="spacing" textLength="156" x="103" y="990.3496">+registerVehicle(vehicle)</text><text fill="#000000" font-family="sans-serif" font-size="14" lengthAdjust="spacing" textLength="91" x="103" y="1008.9707">+getVehicles()</text></g><!--class VehicleCheckupRepository--><g id="elem_VehicleCheckupRepository"><rect codeLine="68" fill="#F1F1F1" height="103.8633" id="VehicleCheckupRepository" rx="2.5" ry="2.5" style="stroke:#181818;stroke-width:0.5;" width="396" x="395" y="912.6211"/><ellipse cx="503.75" cy="928.6211" fill="#ADD1B2" rx="11" ry="11" style="stroke:#181818;stroke-width:1.0;"/><path d="M506.5156,924.4961 Q506.6719,924.2773 506.8594,924.168 Q507.0469,924.0586 507.2656,924.0586 Q507.6406,924.0586 507.875,924.3242 Q508.1094,924.5742 508.1094,925.1836 L508.1094,926.6367 Q508.1094,927.2461 507.875,927.5117 Q507.6406,927.7773 507.2656,927.7773 Q506.9219,927.7773 506.7188,927.5742 Q506.5156,927.3867 506.4063,926.8711 Q506.3594,926.5117 506.1719,926.3242 Q505.8438,925.9492 505.2344,925.7305 Q504.625,925.5117 504,925.5117 Q503.2344,925.5117 502.5938,925.8398 Q501.9688,926.168 501.4688,926.918 Q500.9844,927.668 500.9844,928.6992 L500.9844,929.793 Q500.9844,931.0273 501.875,931.8555 Q502.7656,932.668 504.3594,932.668 Q505.2969,932.668 505.9531,932.418 Q506.3438,932.2617 506.7656,931.8242 Q507.0313,931.5586 507.1719,931.4805 Q507.3281,931.4023 507.5313,931.4023 Q507.8594,931.4023 508.1094,931.668 Q508.375,931.918 508.375,932.2617 Q508.375,932.6055 508.0313,933.0117 Q507.5313,933.5898 506.7344,933.918 Q505.6563,934.3711 504.3594,934.3711 Q502.8438,934.3711 501.6406,933.7461 Q500.6563,933.2461 499.9688,932.1836 Q499.2813,931.1055 499.2813,929.8242 L499.2813,928.668 Q499.2813,927.3398 499.8906,926.1992 Q500.5156,925.043 501.6094,924.4336 Q502.7031,923.8086 503.9375,923.8086 Q504.6719,923.8086 505.3125,923.9805 Q505.9688,924.1367 506.5156,924.4961 Z " fill="#000000"/><text fill="#000000" font-family="sans-serif" font-size="14" lengthAdjust="spacing" textLength="170" x="524.25" y="934.418">VehicleCheckupRepository</text><line style="stroke:#181818;stroke-width:0.5;" x1="396" x2="790" y1="944.6211" y2="944.6211"/><line style="stroke:#181818;stroke-width:0.5;" x1="396" x2="790" y1="952.6211" y2="952.6211"/><text fill="#000000" font-family="sans-serif" font-size="14" lengthAdjust="spacing" textLength="384" x="401" y="971.7285">+registerVehicleCheckup(vehicle, checkupDate, checkupKm)</text><text fill="#000000" font-family="sans-serif" font-size="14" lengthAdjust="spacing" textLength="198" x="401" y="990.3496">+addCheckup(vehicleCheckup)</text><text fill="#000000" font-family="sans-serif" font-size="14" lengthAdjust="spacing" textLength="223" x="401" y="1008.9707">+validateCheckup(vehicleCheckup)</text></g><!--class VehicleCheckup--><g id="elem_VehicleCheckup"><rect codeLine="74" fill="#F1F1F1" height="141.1055" id="VehicleCheckup" rx="2.5" ry="2.5" style="stroke:#181818;stroke-width:0.5;" width="348" x="7" y="1077.6211"/><ellipse cx="125.75" cy="1093.6211" fill="#ADD1B2" rx="11" ry="11" style="stroke:#181818;stroke-width:1.0;"/><path d="M128.5156,1089.4961 Q128.6719,1089.2773 128.8594,1089.168 Q129.0469,1089.0586 129.2656,1089.0586 Q129.6406,1089.0586 129.875,1089.3242 Q130.1094,1089.5742 130.1094,1090.1836 L130.1094,1091.6367 Q130.1094,1092.2461 129.875,1092.5117 Q129.6406,1092.7773 129.2656,1092.7773 Q128.9219,1092.7773 128.7188,1092.5742 Q128.5156,1092.3867 128.4063,1091.8711 Q128.3594,1091.5117 128.1719,1091.3242 Q127.8438,1090.9492 127.2344,1090.7305 Q126.625,1090.5117 126,1090.5117 Q125.2344,1090.5117 124.5938,1090.8398 Q123.9688,1091.168 123.4688,1091.918 Q122.9844,1092.668 122.9844,1093.6992 L122.9844,1094.793 Q122.9844,1096.0273 123.875,1096.8555 Q124.7656,1097.668 126.3594,1097.668 Q127.2969,1097.668 127.9531,1097.418 Q128.3438,1097.2617 128.7656,1096.8242 Q129.0313,1096.5586 129.1719,1096.4805 Q129.3281,1096.4023 129.5313,1096.4023 Q129.8594,1096.4023 130.1094,1096.668 Q130.375,1096.918 130.375,1097.2617 Q130.375,1097.6055 130.0313,1098.0117 Q129.5313,1098.5898 128.7344,1098.918 Q127.6563,1099.3711 126.3594,1099.3711 Q124.8438,1099.3711 123.6406,1098.7461 Q122.6563,1098.2461 121.9688,1097.1836 Q121.2813,1096.1055 121.2813,1094.8242 L121.2813,1093.668 Q121.2813,1092.3398 121.8906,1091.1992 Q122.5156,1090.043 123.6094,1089.4336 Q124.7031,1088.8086 125.9375,1088.8086 Q126.6719,1088.8086 127.3125,1088.9805 Q127.9688,1089.1367 128.5156,1089.4961 Z " fill="#000000"/><text fill="#000000" font-family="sans-serif" font-size="14" lengthAdjust="spacing" textLength="102" x="146.25" y="1099.418">VehicleCheckup</text><line style="stroke:#181818;stroke-width:0.5;" x1="8" x2="354" y1="1109.6211" y2="1109.6211"/><text fill="#000000" font-family="sans-serif" font-size="14" lengthAdjust="spacing" textLength="99" x="13" y="1128.7285">-Vehicle vehicle</text><text fill="#000000" font-family="sans-serif" font-size="14" lengthAdjust="spacing" textLength="122" x="13" y="1147.3496">-Date checkupDate</text><text fill="#000000" font-family="sans-serif" font-size="14" lengthAdjust="spacing" textLength="97" x="13" y="1165.9707">-int checkupKm</text><line style="stroke:#181818;stroke-width:0.5;" x1="8" x2="354" y1="1173.4844" y2="1173.4844"/><text fill="#000000" font-family="sans-serif" font-size="14" lengthAdjust="spacing" textLength="336" x="13" y="1192.5918">+VehicleCheckup(vehicle, checkupDate, checkupKm)</text><text fill="#000000" font-family="sans-serif" font-size="14" lengthAdjust="spacing" textLength="143" x="13" y="1211.2129">+validateCheckupKm()</text></g><!--class Date--><g id="elem_Date"><rect codeLine="82" fill="#F1F1F1" height="122.4844" id="Date" rx="2.5" ry="2.5" style="stroke:#181818;stroke-width:0.5;" width="192" x="85" y="1297.6211"/><ellipse cx="161.75" cy="1313.6211" fill="#ADD1B2" rx="11" ry="11" style="stroke:#181818;stroke-width:1.0;"/><path d="M164.5156,1309.4961 Q164.6719,1309.2773 164.8594,1309.168 Q165.0469,1309.0586 165.2656,1309.0586 Q165.6406,1309.0586 165.875,1309.3242 Q166.1094,1309.5742 166.1094,1310.1836 L166.1094,1311.6367 Q166.1094,1312.2461 165.875,1312.5117 Q165.6406,1312.7773 165.2656,1312.7773 Q164.9219,1312.7773 164.7188,1312.5742 Q164.5156,1312.3867 164.4063,1311.8711 Q164.3594,1311.5117 164.1719,1311.3242 Q163.8438,1310.9492 163.2344,1310.7305 Q162.625,1310.5117 162,1310.5117 Q161.2344,1310.5117 160.5938,1310.8398 Q159.9688,1311.168 159.4688,1311.918 Q158.9844,1312.668 158.9844,1313.6992 L158.9844,1314.793 Q158.9844,1316.0273 159.875,1316.8555 Q160.7656,1317.668 162.3594,1317.668 Q163.2969,1317.668 163.9531,1317.418 Q164.3438,1317.2617 164.7656,1316.8242 Q165.0313,1316.5586 165.1719,1316.4805 Q165.3281,1316.4023 165.5313,1316.4023 Q165.8594,1316.4023 166.1094,1316.668 Q166.375,1316.918 166.375,1317.2617 Q166.375,1317.6055 166.0313,1318.0117 Q165.5313,1318.5898 164.7344,1318.918 Q163.6563,1319.3711 162.3594,1319.3711 Q160.8438,1319.3711 159.6406,1318.7461 Q158.6563,1318.2461 157.9688,1317.1836 Q157.2813,1316.1055 157.2813,1314.8242 L157.2813,1313.668 Q157.2813,1312.3398 157.8906,1311.1992 Q158.5156,1310.043 159.6094,1309.4336 Q160.7031,1308.8086 161.9375,1308.8086 Q162.6719,1308.8086 163.3125,1308.9805 Q163.9688,1309.1367 164.5156,1309.4961 Z " fill="#000000"/><text fill="#000000" font-family="sans-serif" font-size="14" lengthAdjust="spacing" textLength="30" x="182.25" y="1319.418">Date</text><line style="stroke:#181818;stroke-width:0.5;" x1="86" x2="276" y1="1329.6211" y2="1329.6211"/><text fill="#000000" font-family="sans-serif" font-size="14" lengthAdjust="spacing" textLength="47" x="91" y="1348.7285">-int day</text><text fill="#000000" font-family="sans-serif" font-size="14" lengthAdjust="spacing" textLength="63" x="91" y="1367.3496">-int month</text><text fill="#000000" font-family="sans-serif" font-size="14" lengthAdjust="spacing" textLength="52" x="91" y="1385.9707">-int year</text><line style="stroke:#181818;stroke-width:0.5;" x1="86" x2="276" y1="1393.4844" y2="1393.4844"/><text fill="#000000" font-family="sans-serif" font-size="14" lengthAdjust="spacing" textLength="180" x="91" y="1412.5918">+validateDate(checkupDate)</text></g><!--class RegisterCheckupController--><g id="elem_RegisterCheckupController"><rect codeLine="44" fill="#F1F1F1" height="196.9688" id="RegisterCheckupController" rx="2.5" ry="2.5" style="stroke:#181818;stroke-width:0.5;" width="688" x="37" y="453.6211"/><ellipse cx="291.25" cy="469.6211" fill="#ADD1B2" rx="11" ry="11" style="stroke:#181818;stroke-width:1.0;"/><path d="M294.0156,465.4961 Q294.1719,465.2773 294.3594,465.168 Q294.5469,465.0586 294.7656,465.0586 Q295.1406,465.0586 295.375,465.3242 Q295.6094,465.5742 295.6094,466.1836 L295.6094,467.6367 Q295.6094,468.2461 295.375,468.5117 Q295.1406,468.7773 294.7656,468.7773 Q294.4219,468.7773 294.2188,468.5742 Q294.0156,468.3867 293.9063,467.8711 Q293.8594,467.5117 293.6719,467.3242 Q293.3438,466.9492 292.7344,466.7305 Q292.125,466.5117 291.5,466.5117 Q290.7344,466.5117 290.0938,466.8398 Q289.4688,467.168 288.9688,467.918 Q288.4844,468.668 288.4844,469.6992 L288.4844,470.793 Q288.4844,472.0273 289.375,472.8555 Q290.2656,473.668 291.8594,473.668 Q292.7969,473.668 293.4531,473.418 Q293.8438,473.2617 294.2656,472.8242 Q294.5313,472.5586 294.6719,472.4805 Q294.8281,472.4023 295.0313,472.4023 Q295.3594,472.4023 295.6094,472.668 Q295.875,472.918 295.875,473.2617 Q295.875,473.6055 295.5313,474.0117 Q295.0313,474.5898 294.2344,474.918 Q293.1563,475.3711 291.8594,475.3711 Q290.3438,475.3711 289.1406,474.7461 Q288.1563,474.2461 287.4688,473.1836 Q286.7813,472.1055 286.7813,470.8242 L286.7813,469.668 Q286.7813,468.3398 287.3906,467.1992 Q288.0156,466.043 289.1094,465.4336 Q290.2031,464.8086 291.4375,464.8086 Q292.1719,464.8086 292.8125,464.9805 Q293.4688,465.1367 294.0156,465.4961 Z " fill="#000000"/><text fill="#000000" font-family="sans-serif" font-size="14" lengthAdjust="spacing" textLength="171" x="311.75" y="475.418">RegisterCheckupController</text><line style="stroke:#181818;stroke-width:0.5;" x1="38" x2="724" y1="485.6211" y2="485.6211"/><text fill="#000000" font-family="sans-serif" font-size="14" lengthAdjust="spacing" textLength="254" x="43" y="504.7285">-CheckupRepository checkupRepository</text><text fill="#000000" font-family="sans-serif" font-size="14" lengthAdjust="spacing" textLength="235" x="43" y="523.3496">-VehicleRepository vehicleRepository</text><line style="stroke:#181818;stroke-width:0.5;" x1="38" x2="724" y1="530.8633" y2="530.8633"/><text fill="#000000" font-family="sans-serif" font-size="14" lengthAdjust="spacing" textLength="189" x="43" y="549.9707">+RegisterCheckupController()</text><text fill="#000000" font-family="sans-serif" font-size="14" lengthAdjust="spacing" textLength="676" x="43" y="568.5918">+RegisterCheckupController(CheckupRepository checkupRepository, VehicleRepository vehicleRepository)</text><text fill="#000000" font-family="sans-serif" font-size="14" lengthAdjust="spacing" textLength="294" x="43" y="587.2129">+getCheckupRepository(): CheckupRepository</text><text fill="#000000" font-family="sans-serif" font-size="14" lengthAdjust="spacing" textLength="274" x="43" y="605.834">+getVehicleRepository(): VehicleRepository</text><text fill="#000000" font-family="sans-serif" font-size="14" lengthAdjust="spacing" textLength="673" x="43" y="624.4551">+registerVehicleCheckup(Vehicle vehicle, String checkupDate, int checkupKm): Optional&lt;VehicleCheckup&gt;</text><text fill="#000000" font-family="sans-serif" font-size="14" lengthAdjust="spacing" textLength="183" x="43" y="643.0762">+getVehicles(): List&lt;Vehicle&gt;</text></g><!--class RegisterCheckupUI--><g id="elem_RegisterCheckupUI"><rect codeLine="25" fill="#F1F1F1" height="345.9375" id="RegisterCheckupUI" rx="2.5" ry="2.5" style="stroke:#181818;stroke-width:0.5;" width="535" x="113.5" y="46.6211"/><ellipse cx="316.25" cy="62.6211" fill="#ADD1B2" rx="11" ry="11" style="stroke:#181818;stroke-width:1.0;"/><path d="M319.0156,58.4961 Q319.1719,58.2773 319.3594,58.168 Q319.5469,58.0586 319.7656,58.0586 Q320.1406,58.0586 320.375,58.3242 Q320.6094,58.5742 320.6094,59.1836 L320.6094,60.6367 Q320.6094,61.2461 320.375,61.5117 Q320.1406,61.7773 319.7656,61.7773 Q319.4219,61.7773 319.2188,61.5742 Q319.0156,61.3867 318.9063,60.8711 Q318.8594,60.5117 318.6719,60.3242 Q318.3438,59.9492 317.7344,59.7305 Q317.125,59.5117 316.5,59.5117 Q315.7344,59.5117 315.0938,59.8398 Q314.4688,60.168 313.9688,60.918 Q313.4844,61.668 313.4844,62.6992 L313.4844,63.793 Q313.4844,65.0273 314.375,65.8555 Q315.2656,66.668 316.8594,66.668 Q317.7969,66.668 318.4531,66.418 Q318.8438,66.2617 319.2656,65.8242 Q319.5313,65.5586 319.6719,65.4805 Q319.8281,65.4023 320.0313,65.4023 Q320.3594,65.4023 320.6094,65.668 Q320.875,65.918 320.875,66.2617 Q320.875,66.6055 320.5313,67.0117 Q320.0313,67.5898 319.2344,67.918 Q318.1563,68.3711 316.8594,68.3711 Q315.3438,68.3711 314.1406,67.7461 Q313.1563,67.2461 312.4688,66.1836 Q311.7813,65.1055 311.7813,63.8242 L311.7813,62.668 Q311.7813,61.3398 312.3906,60.1992 Q313.0156,59.043 314.1094,58.4336 Q315.2031,57.8086 316.4375,57.8086 Q317.1719,57.8086 317.8125,57.9805 Q318.4688,58.1367 319.0156,58.4961 Z " fill="#000000"/><text fill="#000000" font-family="sans-serif" font-size="14" lengthAdjust="spacing" textLength="121" x="336.75" y="68.418">RegisterCheckupUI</text><line style="stroke:#181818;stroke-width:0.5;" x1="114.5" x2="647.5" y1="78.6211" y2="78.6211"/><text fill="#000000" font-family="sans-serif" font-size="14" lengthAdjust="spacing" textLength="239" x="119.5" y="97.7285">-RegisterCheckupController controller</text><text fill="#000000" font-family="sans-serif" font-size="14" lengthAdjust="spacing" textLength="99" x="119.5" y="116.3496">-Vehicle vehicle</text><text fill="#000000" font-family="sans-serif" font-size="14" lengthAdjust="spacing" textLength="129" x="119.5" y="134.9707">-String checkupDate</text><text fill="#000000" font-family="sans-serif" font-size="14" lengthAdjust="spacing" textLength="97" x="119.5" y="153.5918">-int checkupKm</text><line style="stroke:#181818;stroke-width:0.5;" x1="114.5" x2="647.5" y1="161.1055" y2="161.1055"/><text fill="#000000" font-family="sans-serif" font-size="14" lengthAdjust="spacing" textLength="139" x="119.5" y="180.2129">+RegisterCheckupUI()</text><text fill="#000000" font-family="sans-serif" font-size="14" lengthAdjust="spacing" textLength="279" x="119.5" y="198.834">+getController(): RegisterCheckupController</text><text fill="#000000" font-family="sans-serif" font-size="14" lengthAdjust="spacing" textLength="89" x="119.5" y="217.4551">+submitData()</text><text fill="#000000" font-family="sans-serif" font-size="14" lengthAdjust="spacing" textLength="523" x="119.5" y="236.0762">+showAllDataForConfirmation(Vehicle vehicle, String checkupDate, int checkupKm)</text><text fill="#000000" font-family="sans-serif" font-size="14" lengthAdjust="spacing" textLength="96" x="119.5" y="254.6973">+requestData()</text><text fill="#000000" font-family="sans-serif" font-size="14" lengthAdjust="spacing" textLength="197" x="119.5" y="273.3184">+requestCheckupDate(): String</text><text fill="#000000" font-family="sans-serif" font-size="14" lengthAdjust="spacing" textLength="218" x="119.5" y="291.9395">+validateDate(Date date): boolean</text><text fill="#000000" font-family="sans-serif" font-size="14" lengthAdjust="spacing" textLength="165" x="119.5" y="310.5605">+requestCheckupKm(): int</text><text fill="#000000" font-family="sans-serif" font-size="14" lengthAdjust="spacing" textLength="301" x="119.5" y="329.1816">+validateCheckupKms(int checkupKm): boolean</text><text fill="#000000" font-family="sans-serif" font-size="14" lengthAdjust="spacing" textLength="226" x="119.5" y="347.8027">+displayAndSelectVehicle(): Vehicle</text><text fill="#000000" font-family="sans-serif" font-size="14" lengthAdjust="spacing" textLength="366" x="119.5" y="366.4238">+validateIndex(int answer, int numberOfVehicles): boolean</text><text fill="#000000" font-family="sans-serif" font-size="14" lengthAdjust="spacing" textLength="311" x="119.5" y="385.0449">+displayVehicleOptions(List&lt;Vehicle&gt; vehicleList)</text></g><!--link Repositories to Repositories--><g id="link_Repositories_Repositories"><path codeLine="11" d="M491.02,774.6111 C511.54,776.5811 526,781.9211 526,790.6211 C526,799.3211 517.5125,804.0877 496.9925,806.0577 " fill="none" id="Repositories-to-Repositories" style="stroke:#181818;stroke-width:1.0;"/><polygon fill="#181818" points="491.02,806.6311,500.3611,809.7527,495.9971,806.1533,499.5966,801.7893,491.02,806.6311" style="stroke:#181818;stroke-width:1.0;"/><text fill="#000000" font-family="sans-serif" font-size="13" lengthAdjust="spacing" textLength="49" x="532" y="796.1494">instance</text></g><!--link Repositories to VehicleRepository--><g id="link_Repositories_VehicleRepository"><path codeLine="14" d="M311.05,851.7811 C288.07,871.5411 267.3092,889.3989 245.1692,908.4389 " fill="none" id="Repositories-to-VehicleRepository" style="stroke:#181818;stroke-width:1.0;"/><polygon fill="#181818" points="240.62,912.3511,250.0519,909.5156,244.411,909.0909,244.8356,903.45,240.62,912.3511" style="stroke:#181818;stroke-width:1.0;"/><text fill="#000000" font-family="sans-serif" font-size="13" lengthAdjust="spacing" textLength="7" x="241.1611" y="901.2422">1</text></g><!--link Repositories to VehicleCheckupRepository--><g id="link_Repositories_VehicleCheckupRepository"><path codeLine="15" d="M455.15,851.7811 C479.51,871.5411 501.6805,889.5311 525.1505,908.5711 " fill="none" id="Repositories-to-VehicleCheckupRepository" style="stroke:#181818;stroke-width:1.0;"/><polygon fill="#181818" points="529.81,912.3511,525.3407,903.5747,525.9271,909.2011,520.3007,909.7874,529.81,912.3511" style="stroke:#181818;stroke-width:1.0;"/><text fill="#000000" font-family="sans-serif" font-size="13" lengthAdjust="spacing" textLength="7" x="513.8485" y="901.2422">1</text></g><!--link VehicleRepository to VehicleCheckup--><g id="link_VehicleRepository_VehicleCheckup"><path codeLine="17" d="M181,1016.6611 C181,1035.5311 181,1051.2611 181,1071.5011 " fill="none" id="VehicleRepository-to-VehicleCheckup" style="stroke:#181818;stroke-width:1.0;"/><polygon fill="#181818" points="181,1077.5011,185,1068.5011,181,1072.5011,177,1068.5011,181,1077.5011" style="stroke:#181818;stroke-width:1.0;"/><text fill="#000000" font-family="sans-serif" font-size="13" lengthAdjust="spacing" textLength="5" x="175.7422" y="1066.3797">*</text></g><!--link VehicleCheckup to Date--><g id="link_VehicleCheckup_Date"><path codeLine="19" d="M181,1218.8411 C181,1244.2911 181,1266.8411 181,1291.3911 " fill="none" id="VehicleCheckup-to-Date" style="stroke:#181818;stroke-width:1.0;stroke-dasharray:7.0,7.0;"/><polygon fill="#181818" points="181,1297.3911,185,1288.3911,181,1292.3911,177,1288.3911,181,1297.3911" style="stroke:#181818;stroke-width:1.0;"/><text fill="#000000" font-family="sans-serif" font-size="13" lengthAdjust="spacing" textLength="76" x="182" y="1263.6494">checkupDate</text></g><!--link RegisterCheckupController to Repositories--><g id="link_RegisterCheckupController_Repositories"><path codeLine="20" d="M381,650.6811 C381,677.4011 381,699.5711 381,723.5211 " fill="none" id="RegisterCheckupController-to-Repositories" style="stroke:#181818;stroke-width:1.0;stroke-dasharray:7.0,7.0;"/><polygon fill="#181818" points="381,729.5211,385,720.5211,381,724.5211,377,720.5211,381,729.5211" style="stroke:#181818;stroke-width:1.0;"/><text fill="#000000" font-family="sans-serif" font-size="13" lengthAdjust="spacing" textLength="67" x="382" y="695.6494">repositories</text></g><!--link RegisterCheckupUI to RegisterCheckupController--><g id="link_RegisterCheckupUI_RegisterCheckupController"><path codeLine="21" d="M381,392.6511 C381,413.5111 381,428.2211 381,447.4611 " fill="none" id="RegisterCheckupUI-to-RegisterCheckupController" style="stroke:#181818;stroke-width:1.0;stroke-dasharray:7.0,7.0;"/><polygon fill="#181818" points="381,453.4611,385,444.4611,381,448.4611,377,444.4611,381,453.4611" style="stroke:#181818;stroke-width:1.0;"/></g><!--link RegisterCheckupController to VehicleRepository--><g id="link_RegisterCheckupController_VehicleRepository"><path codeLine="22" d="M253.34,650.6611 C199.91,691.4811 150,729.6211 150,729.6211 C150,729.6211 150,851.6211 150,851.6211 C150,851.6211 157.0788,877.2187 165.2588,906.7587 " fill="none" id="RegisterCheckupController-to-VehicleRepository" style="stroke:#181818;stroke-width:1.0;stroke-dasharray:7.0,7.0;"/><polygon fill="#181818" points="166.86,912.5411,168.3131,902.8,165.5257,907.7224,160.6032,904.935,166.86,912.5411" style="stroke:#181818;stroke-width:1.0;"/><text fill="#000000" font-family="sans-serif" font-size="13" lengthAdjust="spacing" textLength="101" x="151" y="796.1494">vehicleRepository</text></g><!--link RegisterCheckupController to VehicleCheckupRepository--><g id="link_RegisterCheckupController_VehicleCheckupRepository"><path codeLine="23" d="M495.4,650.6611 C543.27,691.4811 588,729.6211 588,729.6211 C588,729.6211 590.3119,837.7025 591.7819,906.5625 " fill="none" id="RegisterCheckupController-to-VehicleCheckupRepository" style="stroke:#181818;stroke-width:1.0;stroke-dasharray:7.0,7.0;"/><polygon fill="#181818" points="591.91,912.5611,595.717,903.4778,591.8033,907.5622,587.7188,903.6485,591.91,912.5611" style="stroke:#181818;stroke-width:1.0;"/><text fill="#000000" font-family="sans-serif" font-size="13" lengthAdjust="spacing" textLength="152" x="591" y="796.1494">vehicleCheckupRepository</text></g><!--SRC=[dLRVJzim47xFNt7YXR81Oa-JAbG95Ksgc8IqZhsxoJMnSEpCTc4Psly-Et4IntO1qJVVVVVTTpzwxQbwfBmXajHG2oxoIeeQGSi3PfEd8VaZAN6hMuOWCTU4bym7g8eKufdo4lQ4AT_3A4VTDWYDOArzPAS9fv1QU44v8qhTQ2tfxg1namk-fNyHhh9JXdiDMe2aPQMXe5OC5JpBVb9jj3rihxx21QnjFDnIKXgsBFk1ZL1K2qbHmSKAPkybKAvCGJbc8T90JxwSm2-iQCvmzBMlmjOLve-7naDd4K4VyocC6P7k3PUNAxWb6et8l3VPbqbVKgLHEjXQS2q5OoYxWA0wwJt3o8UDYpZ2zqQckAubF2MQzGwEg6iJLQAXtNv0NCnB1kPpSJnZFfNM8Lts8LLlt9gzCvliTxopKwu7urtTcJv74XPdlQD4FQLTd2rVwN67LuTTJRN9HGO6LOdd6yQiwPkG1h-diYPssHU1wdE85P_3JAtZbFZxW6gMnfdMKwXLsnFsY2V2Q67idQ_RHlioe9qG30bFyTpLbiL8c5ECNhMOoml82geQHjeRNcoHcM-uAzXo_l8cDV9kU85_Eah2rJFAldf-g7Sex_SkH1t9ujptZUsjMdmtOxfsjjNGOciyo_uTsJnlmTm6nkkSHrliBw07ZBz0gKtpb-ijm3l4dCCxX7Yh7SRRoQoJ5LfunEqDCeHBLyRyBdnavPVGZvImwpdPAXIch9xPtFrHUzTql2-JRMW_6BgD-o7nROdQ8sUYdPE0U31E1IGtLJdse8yBvuwJgqIoU6DUqhJ3UCQnpEOHdXyWHH54kES020v5X3eYT6n9yfxtFw7HEOV4FOUFrHNTDx-dNVONBsT1Mkzb_dNfodktI6H0srrUJu4b_my0]--></g></svg>