<?xml version="1.0" encoding="us-ascii" standalone="no"?><svg xmlns="http://www.w3.org/2000/svg" xmlns:xlink="http://www.w3.org/1999/xlink" contentStyleType="text/css" height="847px" preserveAspectRatio="none" style="width:792px;height:847px;background:#FFFFFF;" version="1.1" viewBox="0 0 792 847" width="792px" zoomAndPan="magnify"><defs/><g><!--class Repositories--><g id="elem_Repositories"><rect codeLine="32" fill="#F1F1F1" height="103.8633" id="Repositories" rx="2.5" ry="2.5" style="stroke:#181818;stroke-width:0.5;" width="220" x="268" y="280"/><ellipse cx="334.25" cy="296" fill="#ADD1B2" rx="11" ry="11" style="stroke:#181818;stroke-width:1.0;"/><path d="M337.0156,291.875 Q337.1719,291.6563 337.3594,291.5469 Q337.5469,291.4375 337.7656,291.4375 Q338.1406,291.4375 338.375,291.7031 Q338.6094,291.9531 338.6094,292.5625 L338.6094,294.0156 Q338.6094,294.625 338.375,294.8906 Q338.1406,295.1563 337.7656,295.1563 Q337.4219,295.1563 337.2188,294.9531 Q337.0156,294.7656 336.9063,294.25 Q336.8594,293.8906 336.6719,293.7031 Q336.3438,293.3281 335.7344,293.1094 Q335.125,292.8906 334.5,292.8906 Q333.7344,292.8906 333.0938,293.2188 Q332.4688,293.5469 331.9688,294.2969 Q331.4844,295.0469 331.4844,296.0781 L331.4844,297.1719 Q331.4844,298.4063 332.375,299.2344 Q333.2656,300.0469 334.8594,300.0469 Q335.7969,300.0469 336.4531,299.7969 Q336.8438,299.6406 337.2656,299.2031 Q337.5313,298.9375 337.6719,298.8594 Q337.8281,298.7813 338.0313,298.7813 Q338.3594,298.7813 338.6094,299.0469 Q338.875,299.2969 338.875,299.6406 Q338.875,299.9844 338.5313,300.3906 Q338.0313,300.9688 337.2344,301.2969 Q336.1563,301.75 334.8594,301.75 Q333.3438,301.75 332.1406,301.125 Q331.1563,300.625 330.4688,299.5625 Q329.7813,298.4844 329.7813,297.2031 L329.7813,296.0469 Q329.7813,294.7188 330.3906,293.5781 Q331.0156,292.4219 332.1094,291.8125 Q333.2031,291.1875 334.4375,291.1875 Q335.1719,291.1875 335.8125,291.3594 Q336.4688,291.5156 337.0156,291.875 Z " fill="#000000"/><text fill="#000000" font-family="sans-serif" font-size="14" lengthAdjust="spacing" textLength="79" x="354.75" y="301.7969">Repositories</text><line style="stroke:#181818;stroke-width:0.5;" x1="269" x2="487" y1="312" y2="312"/><line style="stroke:#181818;stroke-width:0.5;" x1="269" x2="487" y1="320" y2="320"/><text fill="#000000" font-family="sans-serif" font-size="14" lengthAdjust="spacing" textLength="91" x="274" y="339.1074">+getInstance()</text><text fill="#000000" font-family="sans-serif" font-size="14" lengthAdjust="spacing" textLength="152" x="274" y="357.7285">+getVehicleRepository()</text><text fill="#000000" font-family="sans-serif" font-size="14" lengthAdjust="spacing" textLength="208" x="274" y="376.3496">+getVehicleCheckupRepository()</text></g><!--class VehicleRepository--><g id="elem_VehicleRepository"><rect codeLine="38" fill="#F1F1F1" height="66.6211" id="VehicleRepository" rx="2.5" ry="2.5" style="stroke:#181818;stroke-width:0.5;" width="146" x="108" y="463.5"/><ellipse cx="123" cy="479.5" fill="#ADD1B2" rx="11" ry="11" style="stroke:#181818;stroke-width:1.0;"/><path d="M125.7656,475.375 Q125.9219,475.1563 126.1094,475.0469 Q126.2969,474.9375 126.5156,474.9375 Q126.8906,474.9375 127.125,475.2031 Q127.3594,475.4531 127.3594,476.0625 L127.3594,477.5156 Q127.3594,478.125 127.125,478.3906 Q126.8906,478.6563 126.5156,478.6563 Q126.1719,478.6563 125.9688,478.4531 Q125.7656,478.2656 125.6563,477.75 Q125.6094,477.3906 125.4219,477.2031 Q125.0938,476.8281 124.4844,476.6094 Q123.875,476.3906 123.25,476.3906 Q122.4844,476.3906 121.8438,476.7188 Q121.2188,477.0469 120.7188,477.7969 Q120.2344,478.5469 120.2344,479.5781 L120.2344,480.6719 Q120.2344,481.9063 121.125,482.7344 Q122.0156,483.5469 123.6094,483.5469 Q124.5469,483.5469 125.2031,483.2969 Q125.5938,483.1406 126.0156,482.7031 Q126.2813,482.4375 126.4219,482.3594 Q126.5781,482.2813 126.7813,482.2813 Q127.1094,482.2813 127.3594,482.5469 Q127.625,482.7969 127.625,483.1406 Q127.625,483.4844 127.2813,483.8906 Q126.7813,484.4688 125.9844,484.7969 Q124.9063,485.25 123.6094,485.25 Q122.0938,485.25 120.8906,484.625 Q119.9063,484.125 119.2188,483.0625 Q118.5313,481.9844 118.5313,480.7031 L118.5313,479.5469 Q118.5313,478.2188 119.1406,477.0781 Q119.7656,475.9219 120.8594,475.3125 Q121.9531,474.6875 123.1875,474.6875 Q123.9219,474.6875 124.5625,474.8594 Q125.2188,475.0156 125.7656,475.375 Z " fill="#000000"/><text fill="#000000" font-family="sans-serif" font-size="14" lengthAdjust="spacing" textLength="114" x="137" y="485.2969">VehicleRepository</text><line style="stroke:#181818;stroke-width:0.5;" x1="109" x2="253" y1="495.5" y2="495.5"/><line style="stroke:#181818;stroke-width:0.5;" x1="109" x2="253" y1="503.5" y2="503.5"/><text fill="#000000" font-family="sans-serif" font-size="14" lengthAdjust="spacing" textLength="91" x="114" y="522.6074">+getVehicles()</text></g><!--class VehicleCheckupRepository--><g id="elem_VehicleCheckupRepository"><rect codeLine="42" fill="#F1F1F1" height="103.8633" id="VehicleCheckupRepository" rx="2.5" ry="2.5" style="stroke:#181818;stroke-width:0.5;" width="396" x="389" y="445"/><ellipse cx="497.75" cy="461" fill="#ADD1B2" rx="11" ry="11" style="stroke:#181818;stroke-width:1.0;"/><path d="M500.5156,456.875 Q500.6719,456.6563 500.8594,456.5469 Q501.0469,456.4375 501.2656,456.4375 Q501.6406,456.4375 501.875,456.7031 Q502.1094,456.9531 502.1094,457.5625 L502.1094,459.0156 Q502.1094,459.625 501.875,459.8906 Q501.6406,460.1563 501.2656,460.1563 Q500.9219,460.1563 500.7188,459.9531 Q500.5156,459.7656 500.4063,459.25 Q500.3594,458.8906 500.1719,458.7031 Q499.8438,458.3281 499.2344,458.1094 Q498.625,457.8906 498,457.8906 Q497.2344,457.8906 496.5938,458.2188 Q495.9688,458.5469 495.4688,459.2969 Q494.9844,460.0469 494.9844,461.0781 L494.9844,462.1719 Q494.9844,463.4063 495.875,464.2344 Q496.7656,465.0469 498.3594,465.0469 Q499.2969,465.0469 499.9531,464.7969 Q500.3438,464.6406 500.7656,464.2031 Q501.0313,463.9375 501.1719,463.8594 Q501.3281,463.7813 501.5313,463.7813 Q501.8594,463.7813 502.1094,464.0469 Q502.375,464.2969 502.375,464.6406 Q502.375,464.9844 502.0313,465.3906 Q501.5313,465.9688 500.7344,466.2969 Q499.6563,466.75 498.3594,466.75 Q496.8438,466.75 495.6406,466.125 Q494.6563,465.625 493.9688,464.5625 Q493.2813,463.4844 493.2813,462.2031 L493.2813,461.0469 Q493.2813,459.7188 493.8906,458.5781 Q494.5156,457.4219 495.6094,456.8125 Q496.7031,456.1875 497.9375,456.1875 Q498.6719,456.1875 499.3125,456.3594 Q499.9688,456.5156 500.5156,456.875 Z " fill="#000000"/><text fill="#000000" font-family="sans-serif" font-size="14" lengthAdjust="spacing" textLength="170" x="518.25" y="466.7969">VehicleCheckupRepository</text><line style="stroke:#181818;stroke-width:0.5;" x1="390" x2="784" y1="477" y2="477"/><line style="stroke:#181818;stroke-width:0.5;" x1="390" x2="784" y1="485" y2="485"/><text fill="#000000" font-family="sans-serif" font-size="14" lengthAdjust="spacing" textLength="384" x="395" y="504.1074">+registerVehicleCheckup(vehicle, checkupDate, checkupKm)</text><text fill="#000000" font-family="sans-serif" font-size="14" lengthAdjust="spacing" textLength="198" x="395" y="522.7285">+addCheckup(vehicleCheckup)</text><text fill="#000000" font-family="sans-serif" font-size="14" lengthAdjust="spacing" textLength="223" x="395" y="541.3496">+validateCheckup(vehicleCheckup)</text></g><!--class VehicleCheckup--><g id="elem_VehicleCheckup"><rect codeLine="48" fill="#F1F1F1" height="85.2422" id="VehicleCheckup" rx="2.5" ry="2.5" style="stroke:#181818;stroke-width:0.5;" width="348" x="7" y="610"/><ellipse cx="125.75" cy="626" fill="#ADD1B2" rx="11" ry="11" style="stroke:#181818;stroke-width:1.0;"/><path d="M128.5156,621.875 Q128.6719,621.6563 128.8594,621.5469 Q129.0469,621.4375 129.2656,621.4375 Q129.6406,621.4375 129.875,621.7031 Q130.1094,621.9531 130.1094,622.5625 L130.1094,624.0156 Q130.1094,624.625 129.875,624.8906 Q129.6406,625.1563 129.2656,625.1563 Q128.9219,625.1563 128.7188,624.9531 Q128.5156,624.7656 128.4063,624.25 Q128.3594,623.8906 128.1719,623.7031 Q127.8438,623.3281 127.2344,623.1094 Q126.625,622.8906 126,622.8906 Q125.2344,622.8906 124.5938,623.2188 Q123.9688,623.5469 123.4688,624.2969 Q122.9844,625.0469 122.9844,626.0781 L122.9844,627.1719 Q122.9844,628.4063 123.875,629.2344 Q124.7656,630.0469 126.3594,630.0469 Q127.2969,630.0469 127.9531,629.7969 Q128.3438,629.6406 128.7656,629.2031 Q129.0313,628.9375 129.1719,628.8594 Q129.3281,628.7813 129.5313,628.7813 Q129.8594,628.7813 130.1094,629.0469 Q130.375,629.2969 130.375,629.6406 Q130.375,629.9844 130.0313,630.3906 Q129.5313,630.9688 128.7344,631.2969 Q127.6563,631.75 126.3594,631.75 Q124.8438,631.75 123.6406,631.125 Q122.6563,630.625 121.9688,629.5625 Q121.2813,628.4844 121.2813,627.2031 L121.2813,626.0469 Q121.2813,624.7188 121.8906,623.5781 Q122.5156,622.4219 123.6094,621.8125 Q124.7031,621.1875 125.9375,621.1875 Q126.6719,621.1875 127.3125,621.3594 Q127.9688,621.5156 128.5156,621.875 Z " fill="#000000"/><text fill="#000000" font-family="sans-serif" font-size="14" lengthAdjust="spacing" textLength="102" x="146.25" y="631.7969">VehicleCheckup</text><line style="stroke:#181818;stroke-width:0.5;" x1="8" x2="354" y1="642" y2="642"/><line style="stroke:#181818;stroke-width:0.5;" x1="8" x2="354" y1="650" y2="650"/><text fill="#000000" font-family="sans-serif" font-size="14" lengthAdjust="spacing" textLength="336" x="13" y="669.1074">+VehicleCheckup(vehicle, checkupDate, checkupKm)</text><text fill="#000000" font-family="sans-serif" font-size="14" lengthAdjust="spacing" textLength="143" x="13" y="687.7285">+validateCheckupKm()</text></g><!--class Date--><g id="elem_Date"><rect codeLine="53" fill="#F1F1F1" height="66.6211" id="Date" rx="2.5" ry="2.5" style="stroke:#181818;stroke-width:0.5;" width="192" x="85" y="774"/><ellipse cx="161.75" cy="790" fill="#ADD1B2" rx="11" ry="11" style="stroke:#181818;stroke-width:1.0;"/><path d="M164.5156,785.875 Q164.6719,785.6563 164.8594,785.5469 Q165.0469,785.4375 165.2656,785.4375 Q165.6406,785.4375 165.875,785.7031 Q166.1094,785.9531 166.1094,786.5625 L166.1094,788.0156 Q166.1094,788.625 165.875,788.8906 Q165.6406,789.1563 165.2656,789.1563 Q164.9219,789.1563 164.7188,788.9531 Q164.5156,788.7656 164.4063,788.25 Q164.3594,787.8906 164.1719,787.7031 Q163.8438,787.3281 163.2344,787.1094 Q162.625,786.8906 162,786.8906 Q161.2344,786.8906 160.5938,787.2188 Q159.9688,787.5469 159.4688,788.2969 Q158.9844,789.0469 158.9844,790.0781 L158.9844,791.1719 Q158.9844,792.4063 159.875,793.2344 Q160.7656,794.0469 162.3594,794.0469 Q163.2969,794.0469 163.9531,793.7969 Q164.3438,793.6406 164.7656,793.2031 Q165.0313,792.9375 165.1719,792.8594 Q165.3281,792.7813 165.5313,792.7813 Q165.8594,792.7813 166.1094,793.0469 Q166.375,793.2969 166.375,793.6406 Q166.375,793.9844 166.0313,794.3906 Q165.5313,794.9688 164.7344,795.2969 Q163.6563,795.75 162.3594,795.75 Q160.8438,795.75 159.6406,795.125 Q158.6563,794.625 157.9688,793.5625 Q157.2813,792.4844 157.2813,791.2031 L157.2813,790.0469 Q157.2813,788.7188 157.8906,787.5781 Q158.5156,786.4219 159.6094,785.8125 Q160.7031,785.1875 161.9375,785.1875 Q162.6719,785.1875 163.3125,785.3594 Q163.9688,785.5156 164.5156,785.875 Z " fill="#000000"/><text fill="#000000" font-family="sans-serif" font-size="14" lengthAdjust="spacing" textLength="30" x="182.25" y="795.7969">Date</text><line style="stroke:#181818;stroke-width:0.5;" x1="86" x2="276" y1="806" y2="806"/><line style="stroke:#181818;stroke-width:0.5;" x1="86" x2="276" y1="814" y2="814"/><text fill="#000000" font-family="sans-serif" font-size="14" lengthAdjust="spacing" textLength="180" x="91" y="833.1074">+validateDate(checkupDate)</text></g><!--class RegisterCheckupController--><g id="elem_RegisterCheckupController"><rect codeLine="27" fill="#F1F1F1" height="85.2422" id="RegisterCheckupController" rx="2.5" ry="2.5" style="stroke:#181818;stroke-width:0.5;" width="396" x="180" y="116"/><ellipse cx="288.25" cy="132" fill="#ADD1B2" rx="11" ry="11" style="stroke:#181818;stroke-width:1.0;"/><path d="M291.0156,127.875 Q291.1719,127.6563 291.3594,127.5469 Q291.5469,127.4375 291.7656,127.4375 Q292.1406,127.4375 292.375,127.7031 Q292.6094,127.9531 292.6094,128.5625 L292.6094,130.0156 Q292.6094,130.625 292.375,130.8906 Q292.1406,131.1563 291.7656,131.1563 Q291.4219,131.1563 291.2188,130.9531 Q291.0156,130.7656 290.9063,130.25 Q290.8594,129.8906 290.6719,129.7031 Q290.3438,129.3281 289.7344,129.1094 Q289.125,128.8906 288.5,128.8906 Q287.7344,128.8906 287.0938,129.2188 Q286.4688,129.5469 285.9688,130.2969 Q285.4844,131.0469 285.4844,132.0781 L285.4844,133.1719 Q285.4844,134.4063 286.375,135.2344 Q287.2656,136.0469 288.8594,136.0469 Q289.7969,136.0469 290.4531,135.7969 Q290.8438,135.6406 291.2656,135.2031 Q291.5313,134.9375 291.6719,134.8594 Q291.8281,134.7813 292.0313,134.7813 Q292.3594,134.7813 292.6094,135.0469 Q292.875,135.2969 292.875,135.6406 Q292.875,135.9844 292.5313,136.3906 Q292.0313,136.9688 291.2344,137.2969 Q290.1563,137.75 288.8594,137.75 Q287.3438,137.75 286.1406,137.125 Q285.1563,136.625 284.4688,135.5625 Q283.7813,134.4844 283.7813,133.2031 L283.7813,132.0469 Q283.7813,130.7188 284.3906,129.5781 Q285.0156,128.4219 286.1094,127.8125 Q287.2031,127.1875 288.4375,127.1875 Q289.1719,127.1875 289.8125,127.3594 Q290.4688,127.5156 291.0156,127.875 Z " fill="#000000"/><text fill="#000000" font-family="sans-serif" font-size="14" lengthAdjust="spacing" textLength="171" x="308.75" y="137.7969">RegisterCheckupController</text><line style="stroke:#181818;stroke-width:0.5;" x1="181" x2="575" y1="148" y2="148"/><line style="stroke:#181818;stroke-width:0.5;" x1="181" x2="575" y1="156" y2="156"/><text fill="#000000" font-family="sans-serif" font-size="14" lengthAdjust="spacing" textLength="106" x="186" y="175.1074">+getVehicleList()</text><text fill="#000000" font-family="sans-serif" font-size="14" lengthAdjust="spacing" textLength="384" x="186" y="193.7285">+registerVehicleCheckup(vehicle, checkupDate, checkupKm)</text></g><!--class RegisterCheckupUI--><g id="elem_RegisterCheckupUI"><rect codeLine="23" fill="#F1F1F1" height="48" id="RegisterCheckupUI" rx="2.5" ry="2.5" style="stroke:#181818;stroke-width:0.5;" width="153" x="301.5" y="7"/><ellipse cx="316.5" cy="23" fill="#ADD1B2" rx="11" ry="11" style="stroke:#181818;stroke-width:1.0;"/><path d="M319.2656,18.875 Q319.4219,18.6563 319.6094,18.5469 Q319.7969,18.4375 320.0156,18.4375 Q320.3906,18.4375 320.625,18.7031 Q320.8594,18.9531 320.8594,19.5625 L320.8594,21.0156 Q320.8594,21.625 320.625,21.8906 Q320.3906,22.1563 320.0156,22.1563 Q319.6719,22.1563 319.4688,21.9531 Q319.2656,21.7656 319.1563,21.25 Q319.1094,20.8906 318.9219,20.7031 Q318.5938,20.3281 317.9844,20.1094 Q317.375,19.8906 316.75,19.8906 Q315.9844,19.8906 315.3438,20.2188 Q314.7188,20.5469 314.2188,21.2969 Q313.7344,22.0469 313.7344,23.0781 L313.7344,24.1719 Q313.7344,25.4063 314.625,26.2344 Q315.5156,27.0469 317.1094,27.0469 Q318.0469,27.0469 318.7031,26.7969 Q319.0938,26.6406 319.5156,26.2031 Q319.7813,25.9375 319.9219,25.8594 Q320.0781,25.7813 320.2813,25.7813 Q320.6094,25.7813 320.8594,26.0469 Q321.125,26.2969 321.125,26.6406 Q321.125,26.9844 320.7813,27.3906 Q320.2813,27.9688 319.4844,28.2969 Q318.4063,28.75 317.1094,28.75 Q315.5938,28.75 314.3906,28.125 Q313.4063,27.625 312.7188,26.5625 Q312.0313,25.4844 312.0313,24.2031 L312.0313,23.0469 Q312.0313,21.7188 312.6406,20.5781 Q313.2656,19.4219 314.3594,18.8125 Q315.4531,18.1875 316.6875,18.1875 Q317.4219,18.1875 318.0625,18.3594 Q318.7188,18.5156 319.2656,18.875 Z " fill="#000000"/><text fill="#000000" font-family="sans-serif" font-size="14" lengthAdjust="spacing" textLength="121" x="330.5" y="28.7969">RegisterCheckupUI</text><line style="stroke:#181818;stroke-width:0.5;" x1="302.5" x2="453.5" y1="39" y2="39"/><line style="stroke:#181818;stroke-width:0.5;" x1="302.5" x2="453.5" y1="47" y2="47"/></g><!--link Repositories to Repositories--><g id="link_Repositories_Repositories"><path codeLine="9" d="M488.02,317.41 C508.54,319.21 523,324.07 523,332 C523,339.93 514.517,344.2657 493.997,346.0657 " fill="none" id="Repositories-to-Repositories" style="stroke:#181818;stroke-width:1.0;"/><polygon fill="#181818" points="488.02,346.59,497.3351,349.7882,493.0009,346.1531,496.636,341.8188,488.02,346.59" style="stroke:#181818;stroke-width:1.0;"/><text fill="#000000" font-family="sans-serif" font-size="13" lengthAdjust="spacing" textLength="49" x="529" y="337.5283">instance</text></g><!--link Repositories to VehicleRepository--><g id="link_Repositories_VehicleRepository"><path codeLine="12" d="M316.21,384.13 C284.95,409.99 252.5622,436.7844 225.1722,459.4544 " fill="none" id="Repositories-to-VehicleRepository" style="stroke:#181818;stroke-width:1.0;"/><polygon fill="#181818" points="220.55,463.28,230.0337,460.623,224.4018,460.092,224.9328,454.4601,220.55,463.28" style="stroke:#181818;stroke-width:1.0;"/><text fill="#000000" font-family="sans-serif" font-size="13" lengthAdjust="spacing" textLength="7" x="220.422" y="452.324">1</text></g><!--link Repositories to VehicleCheckupRepository--><g id="link_Repositories_VehicleCheckupRepository"><path codeLine="13" d="M443.56,384.13 C468.34,403.45 491.7984,421.7505 516.5884,441.0805 " fill="none" id="Repositories-to-VehicleCheckupRepository" style="stroke:#181818;stroke-width:1.0;"/><polygon fill="#181818" points="521.32,444.77,516.6823,436.0814,517.377,441.6955,511.763,442.3902,521.32,444.77" style="stroke:#181818;stroke-width:1.0;"/><text fill="#000000" font-family="sans-serif" font-size="13" lengthAdjust="spacing" textLength="7" x="505.0239" y="433.6665">1</text></g><!--link VehicleRepository to VehicleCheckup--><g id="link_VehicleRepository_VehicleCheckup"><path codeLine="15" d="M181,530.55 C181,553.7 181,578.98 181,603.93 " fill="none" id="VehicleRepository-to-VehicleCheckup" style="stroke:#181818;stroke-width:1.0;"/><polygon fill="#181818" points="181,609.93,185,600.93,181,604.93,177,600.93,181,609.93" style="stroke:#181818;stroke-width:1.0;"/><text fill="#000000" font-family="sans-serif" font-size="13" lengthAdjust="spacing" textLength="5" x="175.6016" y="598.8229">*</text></g><!--link VehicleCheckup to Date--><g id="link_VehicleCheckup_Date"><path codeLine="17" d="M181,695.31 C181,720.08 181,745.01 181,767.96 " fill="none" id="VehicleCheckup-to-Date" style="stroke:#181818;stroke-width:1.0;stroke-dasharray:7.0,7.0;"/><polygon fill="#181818" points="181,773.96,185,764.96,181,768.96,177,764.96,181,773.96" style="stroke:#181818;stroke-width:1.0;"/><text fill="#000000" font-family="sans-serif" font-size="13" lengthAdjust="spacing" textLength="76" x="182" y="740.0283">checkupDate</text></g><!--link RegisterCheckupController to Repositories--><g id="link_RegisterCheckupController_Repositories"><path codeLine="18" d="M378,201.02 C378,224.71 378,248.6 378,273.75 " fill="none" id="RegisterCheckupController-to-Repositories" style="stroke:#181818;stroke-width:1.0;stroke-dasharray:7.0,7.0;"/><polygon fill="#181818" points="378,279.75,382,270.75,378,274.75,374,270.75,378,279.75" style="stroke:#181818;stroke-width:1.0;"/><text fill="#000000" font-family="sans-serif" font-size="13" lengthAdjust="spacing" textLength="67" x="379" y="246.0283">repositories</text></g><!--link RegisterCheckupUI to RegisterCheckupController--><g id="link_RegisterCheckupUI_RegisterCheckupController"><path codeLine="19" d="M378,55.02 C378,72 378,89.58 378,109.84 " fill="none" id="RegisterCheckupUI-to-RegisterCheckupController" style="stroke:#181818;stroke-width:1.0;stroke-dasharray:7.0,7.0;"/><polygon fill="#181818" points="378,115.84,382,106.84,378,110.84,374,106.84,378,115.84" style="stroke:#181818;stroke-width:1.0;"/></g><!--link RegisterCheckupController to VehicleRepository--><g id="link_RegisterCheckupController_VehicleRepository"><path codeLine="20" d="M298.18,201.14 C231.41,235.97 147,280 147,280 C147,280 147,384 147,384 C147,384 159.2976,424.5086 169.3276,457.5586 " fill="none" id="RegisterCheckupController-to-VehicleRepository" style="stroke:#181818;stroke-width:1.0;stroke-dasharray:7.0,7.0;"/><polygon fill="#181818" points="171.07,463.3,172.284,453.5263,169.618,458.5155,164.6288,455.8495,171.07,463.3" style="stroke:#181818;stroke-width:1.0;"/><text fill="#000000" font-family="sans-serif" font-size="13" lengthAdjust="spacing" textLength="101" x="148" y="337.5283">vehicleRepository</text></g><!--link RegisterCheckupController to VehicleCheckupRepository--><g id="link_RegisterCheckupController_VehicleCheckupRepository"><path codeLine="21" d="M449.53,201.14 C509.36,235.97 585,280 585,280 C585,280 585.8736,374.9403 586.4736,438.8103 " fill="none" id="RegisterCheckupController-to-VehicleCheckupRepository" style="stroke:#181818;stroke-width:1.0;stroke-dasharray:7.0,7.0;"/><polygon fill="#181818" points="586.53,444.81,590.4453,435.7728,586.483,439.8102,582.4456,435.848,586.53,444.81" style="stroke:#181818;stroke-width:1.0;"/><text fill="#000000" font-family="sans-serif" font-size="13" lengthAdjust="spacing" textLength="152" x="586" y="337.5283">vehicleCheckupRepository</text></g><!--SRC=[fLFBJiCm4BpxArQzDELHmRK795GkLJbHmTqusyIgOqVsjYX4_3j9Qn8t3q2GstXdTcRNpjJjfCwvvHbaHXkHMfCXaDqZQoiv5pkUu8OAXM1H4DU92WakvR5vapg1BLSkh2YfaOeS8JUgg06R3XID9HE8XEBEtHDP-RedN0cZD_8TuOPD5Mu9o82LIKeGopgCD9gn9yoDasIiH0VNTt265o2rgq8BP5rcHPtSJk05KoaKDhNYMzeoHR7Rvm6RzHgSD1TTJSFq6ERpEtZWX5L8SJggKMMVI4TeFMrfD5cZ5DgZe3ET3M1N-RpoYf5-FpZrvrh0OM1Pl-ZHsrhRQc2XnpS0_M5AnZv6ge5joQ3wBY51ykwF5JEQ-MFhXUV98f_cAho91gopMUWSN41WjlBlh75g0xJ33HHx2uW2i_uTzCTp0uB-mij_pdzIypZkA3py8Xouad6b7MED16tY_IrMntMTXIiv_c9bXraVHa7Jcly9]--></g></svg>