<?xml version="1.0" encoding="UTF-8" standalone="no"?>
<!DOCTYPE svg PUBLIC "-//W3C//DTD SVG 1.1//EN"
 "http://www.w3.org/Graphics/SVG/1.1/DTD/svg11.dtd">
<!-- Generated by graphviz version 10.0.1 (20240210.2158)
 -->
<!-- Pages: 1 -->
<svg width="784pt" height="651pt"
 viewBox="0.00 0.00 783.56 651.38" xmlns="http://www.w3.org/2000/svg" xmlns:xlink="http://www.w3.org/1999/xlink">
<g id="graph0" class="graph" transform="scale(1 1) rotate(0) translate(4 647.38)">
<polygon fill="white" stroke="none" points="-4,4 -4,-647.38 779.56,-647.38 779.56,4 -4,4"/>
<text text-anchor="middle" x="387.78" y="-615.63" font-family="Times New Roman,serif" font-size="25.00">us17_output</text>
<!-- Biblioteca -->
<g id="node1" class="node">
<title>Biblioteca</title>
<ellipse fill="none" stroke="black" cx="129.82" cy="-545.36" rx="47.57" ry="18"/>
<text text-anchor="middle" x="129.82" y="-539.94" font-family="Times New Roman,serif" font-size="14.00">Biblioteca</text>
</g>
<!-- Teatro -->
<g id="node2" class="node">
<title>Teatro</title>
<ellipse fill="none" stroke="black" cx="123.61" cy="-403.87" rx="35.1" ry="18"/>
<text text-anchor="middle" x="123.61" y="-398.45" font-family="Times New Roman,serif" font-size="14.00">Teatro</text>
</g>
<!-- Biblioteca&#45;&#45;Teatro -->
<g id="edge1" class="edge">
<title>Biblioteca&#45;&#45;Teatro</title>
<path fill="none" stroke="black" d="M129.01,-526.87C127.81,-499.6 125.59,-448.94 124.41,-421.93"/>
<text text-anchor="middle" x="123.33" y="-476.85" font-family="Times New Roman,serif" font-size="14.00">8</text>
</g>
<!-- AP -->
<g id="node3" class="node">
<title>AP</title>
<ellipse fill="none" stroke="black" cx="256.74" cy="-446.67" rx="27" ry="18"/>
<text text-anchor="middle" x="256.74" y="-441.24" font-family="Times New Roman,serif" font-size="14.00">AP</text>
</g>
<!-- Biblioteca&#45;&#45;AP -->
<g id="edge2" class="edge">
<title>Biblioteca&#45;&#45;AP</title>
<path fill="none" stroke="red" stroke-width="4" d="M151.07,-528.85C175.77,-509.64 216.08,-478.29 239.12,-460.37"/>
<text text-anchor="middle" x="188.34" y="-497.06" font-family="Times New Roman,serif" font-size="14.00">10</text>
</g>
<!-- Teatro&#45;&#45;AP -->
<g id="edge3" class="edge">
<title>Teatro&#45;&#45;AP</title>
<path fill="none" stroke="red" stroke-width="4" d="M153.82,-413.59C177.45,-421.18 209.9,-431.61 232,-438.71"/>
<text text-anchor="middle" x="189.54" y="-428.6" font-family="Times New Roman,serif" font-size="14.00">7</text>
</g>
<!-- Topo -->
<g id="node4" class="node">
<title>Topo</title>
<ellipse fill="none" stroke="black" cx="219.37" cy="-288.13" rx="31.6" ry="18"/>
<text text-anchor="middle" x="219.37" y="-282.71" font-family="Times New Roman,serif" font-size="14.00">Topo</text>
</g>
<!-- Teatro&#45;&#45;Topo -->
<g id="edge4" class="edge">
<title>Teatro&#45;&#45;Topo</title>
<path fill="none" stroke="black" d="M137.33,-387.29C155.54,-365.29 187.49,-326.67 205.68,-304.69"/>
<text text-anchor="middle" x="168.13" y="-348.44" font-family="Times New Roman,serif" font-size="14.00">6</text>
</g>
<!-- AP&#45;&#45;Topo -->
<g id="edge6" class="edge">
<title>AP&#45;&#45;Topo</title>
<path fill="none" stroke="red" stroke-width="4" d="M252.46,-428.48C245.25,-397.9 230.78,-336.55 223.61,-306.11"/>
<text text-anchor="middle" x="234.66" y="-369.74" font-family="Times New Roman,serif" font-size="14.00">9</text>
</g>
<!-- Pavilhao -->
<g id="node5" class="node">
<title>Pavilhao</title>
<ellipse fill="none" stroke="black" cx="296.18" cy="-589.63" rx="42.08" ry="18"/>
<text text-anchor="middle" x="296.18" y="-584.2" font-family="Times New Roman,serif" font-size="14.00">Pavilhao</text>
</g>
<!-- AP&#45;&#45;Pavilhao -->
<g id="edge5" class="edge">
<title>AP&#45;&#45;Pavilhao</title>
<path fill="none" stroke="red" stroke-width="4" d="M261.74,-464.77C269.32,-492.27 283.66,-544.26 291.22,-571.67"/>
<text text-anchor="middle" x="273.1" y="-520.67" font-family="Times New Roman,serif" font-size="14.00">5</text>
</g>
<!-- Lago -->
<g id="node6" class="node">
<title>Lago</title>
<ellipse fill="none" stroke="black" cx="332.3" cy="-418.84" rx="29.61" ry="18"/>
<text text-anchor="middle" x="332.3" y="-413.42" font-family="Times New Roman,serif" font-size="14.00">Lago</text>
</g>
<!-- AP&#45;&#45;Lago -->
<g id="edge7" class="edge">
<title>AP&#45;&#45;Lago</title>
<path fill="none" stroke="red" stroke-width="4" d="M280.65,-437.86C288.95,-434.81 298.29,-431.37 306.72,-428.26"/>
<text text-anchor="middle" x="290.31" y="-435.51" font-family="Times New Roman,serif" font-size="14.00">9</text>
</g>
<!-- Escadas1 -->
<g id="node7" class="node">
<title>Escadas1</title>
<ellipse fill="none" stroke="black" cx="452.11" cy="-435.25" rx="46.07" ry="18"/>
<text text-anchor="middle" x="452.11" y="-429.82" font-family="Times New Roman,serif" font-size="14.00">Escadas1</text>
</g>
<!-- AP&#45;&#45;Escadas1 -->
<g id="edge8" class="edge">
<title>AP&#45;&#45;Escadas1</title>
<path fill="none" stroke="red" stroke-width="4" d="M283.91,-445.08C315.47,-443.23 368.05,-440.16 406.03,-437.94"/>
<text text-anchor="middle" x="338.22" y="-443.96" font-family="Times New Roman,serif" font-size="14.00">10</text>
</g>
<!-- Topo&#45;&#45;Lago -->
<g id="edge13" class="edge">
<title>Topo&#45;&#45;Lago</title>
<path fill="none" stroke="black" d="M233.68,-304.69C255.51,-329.97 296.91,-377.88 318.46,-402.83"/>
<text text-anchor="middle" x="272.69" y="-356.21" font-family="Times New Roman,serif" font-size="14.00">5</text>
</g>
<!-- ParqueInfantil -->
<g id="node8" class="node">
<title>ParqueInfantil</title>
<ellipse fill="none" stroke="black" cx="96.55" cy="-163.33" rx="62.04" ry="18"/>
<text text-anchor="middle" x="96.55" y="-157.91" font-family="Times New Roman,serif" font-size="14.00">ParqueInfantil</text>
</g>
<!-- Topo&#45;&#45;ParqueInfantil -->
<g id="edge10" class="edge">
<title>Topo&#45;&#45;ParqueInfantil</title>
<path fill="none" stroke="red" stroke-width="4" d="M203.57,-272.07C180.5,-248.64 137.77,-205.22 113.88,-180.94"/>
<text text-anchor="middle" x="155.35" y="-228.96" font-family="Times New Roman,serif" font-size="14.00">7</text>
</g>
<!-- Miradouro -->
<g id="node9" class="node">
<title>Miradouro</title>
<ellipse fill="none" stroke="black" cx="243.51" cy="-140.37" rx="50.07" ry="18"/>
<text text-anchor="middle" x="243.51" y="-134.95" font-family="Times New Roman,serif" font-size="14.00">Miradouro</text>
</g>
<!-- Topo&#45;&#45;Miradouro -->
<g id="edge11" class="edge">
<title>Topo&#45;&#45;Miradouro</title>
<path fill="none" stroke="red" stroke-width="4" d="M222.38,-269.72C227.03,-241.25 235.91,-186.88 240.54,-158.56"/>
<text text-anchor="middle" x="228.09" y="-216.59" font-family="Times New Roman,serif" font-size="14.00">3</text>
</g>
<!-- Capela -->
<g id="node10" class="node">
<title>Capela</title>
<ellipse fill="none" stroke="black" cx="353.69" cy="-187.53" rx="36.09" ry="18"/>
<text text-anchor="middle" x="353.69" y="-182.11" font-family="Times New Roman,serif" font-size="14.00">Capela</text>
</g>
<!-- Topo&#45;&#45;Capela -->
<g id="edge12" class="edge">
<title>Topo&#45;&#45;Capela</title>
<path fill="none" stroke="red" stroke-width="4" d="M238.9,-273.51C264.08,-254.65 307.65,-222.02 333.25,-202.84"/>
<text text-anchor="middle" x="282.7" y="-240.62" font-family="Times New Roman,serif" font-size="14.00">4</text>
</g>
<!-- Pavilhao&#45;&#45;Lago -->
<g id="edge9" class="edge">
<title>Pavilhao&#45;&#45;Lago</title>
<path fill="none" stroke="black" d="M300.04,-571.35C306.99,-538.48 321.53,-469.76 328.46,-436.99"/>
<text text-anchor="middle" x="310.88" y="-506.62" font-family="Times New Roman,serif" font-size="14.00">6</text>
</g>
<!-- Lago&#45;&#45;Escadas1 -->
<g id="edge24" class="edge">
<title>Lago&#45;&#45;Escadas1</title>
<path fill="none" stroke="black" d="M361.61,-422.86C375.6,-424.77 392.64,-427.1 408.14,-429.23"/>
<text text-anchor="middle" x="381.5" y="-428.49" font-family="Times New Roman,serif" font-size="14.00">7</text>
</g>
<!-- Macieirinha -->
<g id="node11" class="node">
<title>Macieirinha</title>
<ellipse fill="none" stroke="black" cx="53.06" cy="-21.9" rx="53.06" ry="18"/>
<text text-anchor="middle" x="53.06" y="-16.48" font-family="Times New Roman,serif" font-size="14.00">Macieirinha</text>
</g>
<!-- ParqueInfantil&#45;&#45;Macieirinha -->
<g id="edge14" class="edge">
<title>ParqueInfantil&#45;&#45;Macieirinha</title>
<path fill="none" stroke="red" stroke-width="4" d="M90.95,-145.13C82.6,-117.98 66.97,-67.15 58.63,-40.03"/>
<text text-anchor="middle" x="68.04" y="-95.03" font-family="Times New Roman,serif" font-size="14.00">10</text>
</g>
<!-- Fontaine -->
<g id="node12" class="node">
<title>Fontaine</title>
<ellipse fill="none" stroke="black" cx="198.9" cy="-18" rx="42.58" ry="18"/>
<text text-anchor="middle" x="198.9" y="-12.57" font-family="Times New Roman,serif" font-size="14.00">Fontaine</text>
</g>
<!-- ParqueInfantil&#45;&#45;Fontaine -->
<g id="edge15" class="edge">
<title>ParqueInfantil&#45;&#45;Fontaine</title>
<path fill="none" stroke="black" d="M109.1,-145.51C128.85,-117.47 166.95,-63.37 186.56,-35.51"/>
<text text-anchor="middle" x="144.46" y="-92.96" font-family="Times New Roman,serif" font-size="14.00">8</text>
</g>
<!-- Miradouro&#45;&#45;Capela -->
<g id="edge19" class="edge">
<title>Miradouro&#45;&#45;Capela</title>
<path fill="none" stroke="black" d="M276.27,-154.39C292.13,-161.18 310.96,-169.24 326.07,-175.71"/>
<text text-anchor="middle" x="297.8" y="-167.5" font-family="Times New Roman,serif" font-size="14.00">4</text>
</g>
<!-- Torreao -->
<g id="node13" class="node">
<title>Torreao</title>
<ellipse fill="none" stroke="black" cx="361.88" cy="-49.47" rx="40.58" ry="18"/>
<text text-anchor="middle" x="361.88" y="-44.04" font-family="Times New Roman,serif" font-size="14.00">Torreao</text>
</g>
<!-- Miradouro&#45;&#45;Torreao -->
<g id="edge20" class="edge">
<title>Miradouro&#45;&#45;Torreao</title>
<path fill="none" stroke="red" stroke-width="4" d="M265.22,-123.7C286.84,-107.09 319.81,-81.78 341.1,-65.43"/>
<text text-anchor="middle" x="299.78" y="-97.01" font-family="Times New Roman,serif" font-size="14.00">9</text>
</g>
<!-- Capela&#45;&#45;Torreao -->
<g id="edge21" class="edge">
<title>Capela&#45;&#45;Torreao</title>
<path fill="none" stroke="black" d="M354.77,-169.2C356.34,-142.79 359.22,-94.33 360.79,-67.88"/>
<text text-anchor="middle" x="351.03" y="-120.99" font-family="Times New Roman,serif" font-size="14.00">11</text>
</g>
<!-- Escadas3 -->
<g id="node14" class="node">
<title>Escadas3</title>
<ellipse fill="none" stroke="black" cx="494.19" cy="-147.89" rx="46.07" ry="18"/>
<text text-anchor="middle" x="494.19" y="-142.47" font-family="Times New Roman,serif" font-size="14.00">Escadas3</text>
</g>
<!-- Capela&#45;&#45;Escadas3 -->
<g id="edge22" class="edge">
<title>Capela&#45;&#45;Escadas3</title>
<path fill="none" stroke="black" d="M385.57,-178.54C406.62,-172.6 434.3,-164.79 456.45,-158.54"/>
<text text-anchor="middle" x="417.63" y="-170.99" font-family="Times New Roman,serif" font-size="14.00">9</text>
</g>
<!-- Macieirinha&#45;&#45;Fontaine -->
<g id="edge16" class="edge">
<title>Macieirinha&#45;&#45;Fontaine</title>
<path fill="none" stroke="black" d="M106.12,-20.48C122.57,-20.04 140.49,-19.56 156.14,-19.14"/>
<text text-anchor="middle" x="124.38" y="-22.26" font-family="Times New Roman,serif" font-size="14.00">11</text>
</g>
<!-- Fontaine&#45;&#45;Miradouro -->
<g id="edge17" class="edge">
<title>Fontaine&#45;&#45;Miradouro</title>
<path fill="none" stroke="red" stroke-width="4" d="M205.48,-36.06C213.91,-59.19 228.45,-99.07 236.9,-122.24"/>
<text text-anchor="middle" x="217.81" y="-81.6" font-family="Times New Roman,serif" font-size="14.00">8</text>
</g>
<!-- Fontaine&#45;&#45;Torreao -->
<g id="edge18" class="edge">
<title>Fontaine&#45;&#45;Torreao</title>
<path fill="none" stroke="black" d="M237.93,-25.54C264.11,-30.59 298.41,-37.21 324.28,-42.21"/>
<text text-anchor="middle" x="274.36" y="-36.32" font-family="Times New Roman,serif" font-size="14.00">11</text>
</g>
<!-- Torreao&#45;&#45;Escadas3 -->
<g id="edge23" class="edge">
<title>Torreao&#45;&#45;Escadas3</title>
<path fill="none" stroke="black" d="M383.14,-65.28C407.68,-83.54 447.84,-113.41 472.54,-131.79"/>
<text text-anchor="middle" x="421.09" y="-100.99" font-family="Times New Roman,serif" font-size="14.00">12</text>
</g>
<!-- Sentimentos -->
<g id="node15" class="node">
<title>Sentimentos</title>
<ellipse fill="none" stroke="black" cx="628.64" cy="-162.17" rx="56.05" ry="18"/>
<text text-anchor="middle" x="628.64" y="-156.74" font-family="Times New Roman,serif" font-size="14.00">Sentimentos</text>
</g>
<!-- Escadas3&#45;&#45;Sentimentos -->
<g id="edge25" class="edge">
<title>Escadas3&#45;&#45;Sentimentos</title>
<path fill="none" stroke="black" d="M538.96,-152.64C550.57,-153.88 563.19,-155.22 575.2,-156.49"/>
<text text-anchor="middle" x="553.7" y="-157.02" font-family="Times New Roman,serif" font-size="14.00">5</text>
</g>
<!-- Escadas2 -->
<g id="node16" class="node">
<title>Escadas2</title>
<ellipse fill="none" stroke="black" cx="566.17" cy="-303.64" rx="46.07" ry="18"/>
<text text-anchor="middle" x="566.17" y="-298.21" font-family="Times New Roman,serif" font-size="14.00">Escadas2</text>
</g>
<!-- Escadas3&#45;&#45;Escadas2 -->
<g id="edge26" class="edge">
<title>Escadas3&#45;&#45;Escadas2</title>
<path fill="none" stroke="red" stroke-width="4" d="M502.59,-166.06C516.46,-196.07 543.99,-255.65 557.83,-285.58"/>
<text text-anchor="middle" x="526.83" y="-228.27" font-family="Times New Roman,serif" font-size="14.00">5</text>
</g>
<!-- Sentimentos&#45;&#45;Escadas2 -->
<g id="edge27" class="edge">
<title>Sentimentos&#45;&#45;Escadas2</title>
<path fill="none" stroke="red" stroke-width="4" d="M620.6,-180.37C608.61,-207.54 586.16,-258.38 574.18,-285.5"/>
<text text-anchor="middle" x="594.01" y="-235.39" font-family="Times New Roman,serif" font-size="14.00">7</text>
</g>
<!-- Escadas2&#45;&#45;Escadas1 -->
<g id="edge32" class="edge">
<title>Escadas2&#45;&#45;Escadas1</title>
<path fill="none" stroke="red" stroke-width="4" d="M551.02,-321.11C529.09,-346.42 488.72,-393 466.95,-418.11"/>
<text text-anchor="middle" x="505.61" y="-372.06" font-family="Times New Roman,serif" font-size="14.00">3</text>
</g>
<!-- CasaRoseiral -->
<g id="node17" class="node">
<title>CasaRoseiral</title>
<ellipse fill="none" stroke="black" cx="716.01" cy="-364.65" rx="59.55" ry="18"/>
<text text-anchor="middle" x="716.01" y="-359.22" font-family="Times New Roman,serif" font-size="14.00">CasaRoseiral</text>
</g>
<!-- CasaRoseiral&#45;&#45;Escadas2 -->
<g id="edge29" class="edge">
<title>CasaRoseiral&#45;&#45;Escadas2</title>
<path fill="none" stroke="red" stroke-width="4" d="M680.12,-350.04C655.27,-339.92 622.48,-326.56 598.45,-316.78"/>
<text text-anchor="middle" x="635.91" y="-335.86" font-family="Times New Roman,serif" font-size="14.00">4</text>
</g>
<!-- JardimRoseiral -->
<g id="node18" class="node">
<title>JardimRoseiral</title>
<ellipse fill="none" stroke="black" cx="597.46" cy="-444.95" rx="65.53" ry="18"/>
<text text-anchor="middle" x="597.46" y="-439.53" font-family="Times New Roman,serif" font-size="14.00">JardimRoseiral</text>
</g>
<!-- CasaRoseiral&#45;&#45;JardimRoseiral -->
<g id="edge28" class="edge">
<title>CasaRoseiral&#45;&#45;JardimRoseiral</title>
<path fill="none" stroke="black" d="M691.16,-381.48C671.06,-395.1 642.89,-414.18 622.69,-427.86"/>
<text text-anchor="middle" x="653.55" y="-407.12" font-family="Times New Roman,serif" font-size="14.00">3</text>
</g>
<!-- JardimRoseiral&#45;&#45;Escadas1 -->
<g id="edge31" class="edge">
<title>JardimRoseiral&#45;&#45;Escadas1</title>
<path fill="none" stroke="black" d="M533.28,-440.67C521.27,-439.86 508.94,-439.04 497.63,-438.29"/>
<text text-anchor="middle" x="512.08" y="-441.93" font-family="Times New Roman,serif" font-size="14.00">8</text>
</g>
<!-- JardimRoseiral&#45;&#45;Escadas2 -->
<g id="edge30" class="edge">
<title>JardimRoseiral&#45;&#45;Escadas2</title>
<path fill="none" stroke="red" stroke-width="4" d="M593.44,-426.77C587.43,-399.63 576.18,-348.85 570.18,-321.75"/>
<text text-anchor="middle" x="578.43" y="-376.71" font-family="Times New Roman,serif" font-size="14.00">3</text>
</g>
</g>
</svg>
