<?xml version="1.0" encoding="UTF-8" standalone="no"?>
<!DOCTYPE svg PUBLIC "-//W3C//DTD SVG 1.1//EN"
 "http://www.w3.org/Graphics/SVG/1.1/DTD/svg11.dtd">
<!-- Generated by graphviz version 10.0.1 (20240210.2158)
 -->
<!-- Pages: 1 -->
<svg width="1328pt" height="1236pt"
 viewBox="0.00 0.00 1327.64 1235.85" xmlns="http://www.w3.org/2000/svg" xmlns:xlink="http://www.w3.org/1999/xlink">
<g id="graph0" class="graph" transform="scale(1 1) rotate(0) translate(4 1231.85)">
<polygon fill="white" stroke="none" points="-4,4 -4,-1231.85 1323.64,-1231.85 1323.64,4 -4,4"/>
<text text-anchor="middle" x="659.82" y="-1200.1" font-family="Times New Roman,serif" font-size="25.00">us18_output</text>
<!-- 0 -->
<g id="node1" class="node">
<title>0</title>
<ellipse fill="none" stroke="black" cx="520.1" cy="-1050.88" rx="27" ry="18"/>
<text text-anchor="middle" x="520.1" y="-1045.45" font-family="Times New Roman,serif" font-size="14.00">0</text>
</g>
<!-- 1 -->
<g id="node2" class="node">
<title>1</title>
<ellipse fill="none" stroke="black" cx="372.19" cy="-1098.64" rx="27" ry="18"/>
<text text-anchor="middle" x="372.19" y="-1093.22" font-family="Times New Roman,serif" font-size="14.00">1</text>
</g>
<!-- 0&#45;&#45;1 -->
<g id="edge1" class="edge">
<title>0&#45;&#45;1</title>
<path fill="none" stroke="black" d="M495.35,-1058.87C467.88,-1067.74 423.84,-1081.96 396.53,-1090.78"/>
<text text-anchor="middle" x="442.57" y="-1077.28" font-family="Times New Roman,serif" font-size="14.00">2</text>
</g>
<!-- 2 -->
<g id="node3" class="node">
<title>2</title>
<ellipse fill="none" stroke="black" cx="414.69" cy="-1174.1" rx="27" ry="18"/>
<text text-anchor="middle" x="414.69" y="-1168.68" font-family="Times New Roman,serif" font-size="14.00">2</text>
</g>
<!-- 0&#45;&#45;2 -->
<g id="edge2" class="edge">
<title>0&#45;&#45;2</title>
<path fill="none" stroke="black" d="M506.54,-1066.74C486.3,-1090.4 448.42,-1134.68 428.21,-1158.3"/>
<text text-anchor="middle" x="464" y="-1114.97" font-family="Times New Roman,serif" font-size="14.00">3</text>
</g>
<!-- 7 -->
<g id="node4" class="node">
<title>7</title>
<ellipse fill="none" stroke="black" cx="590.92" cy="-898.87" rx="27" ry="18"/>
<text text-anchor="middle" x="590.92" y="-893.44" font-family="Times New Roman,serif" font-size="14.00">7</text>
</g>
<!-- 0&#45;&#45;7 -->
<g id="edge3" class="edge">
<title>0&#45;&#45;7</title>
<path fill="none" stroke="red" stroke-width="4" d="M528.23,-1033.44C541.89,-1004.12 569.3,-945.29 582.89,-916.1"/>
<text text-anchor="middle" x="552.18" y="-977.22" font-family="Times New Roman,serif" font-size="14.00">3</text>
</g>
<!-- 1&#45;&#45;2 -->
<g id="edge4" class="edge">
<title>1&#45;&#45;2</title>
<path fill="none" stroke="black" d="M381.83,-1115.76C388.79,-1128.11 398.14,-1144.71 405.09,-1157.05"/>
<text text-anchor="middle" x="390.08" y="-1138.85" font-family="Times New Roman,serif" font-size="14.00">2</text>
</g>
<!-- 3 -->
<g id="node5" class="node">
<title>3</title>
<ellipse fill="none" stroke="black" cx="240.7" cy="-1099.81" rx="27" ry="18"/>
<text text-anchor="middle" x="240.7" y="-1094.38" font-family="Times New Roman,serif" font-size="14.00">3</text>
</g>
<!-- 1&#45;&#45;3 -->
<g id="edge5" class="edge">
<title>1&#45;&#45;3</title>
<path fill="none" stroke="red" stroke-width="4" d="M344.94,-1098.88C322.38,-1099.08 290.47,-1099.36 267.91,-1099.56"/>
<text text-anchor="middle" x="303.05" y="-1101.67" font-family="Times New Roman,serif" font-size="14.00">3</text>
</g>
<!-- 2&#45;&#45;3 -->
<g id="edge6" class="edge">
<title>2&#45;&#45;3</title>
<path fill="none" stroke="red" stroke-width="4" d="M391.59,-1164.23C358.31,-1150.03 297.24,-1123.94 263.9,-1109.71"/>
<text text-anchor="middle" x="324.37" y="-1139.42" font-family="Times New Roman,serif" font-size="14.00">5</text>
</g>
<!-- 8 -->
<g id="node9" class="node">
<title>8</title>
<ellipse fill="none" stroke="black" cx="446.07" cy="-754.55" rx="27" ry="18"/>
<text text-anchor="middle" x="446.07" y="-749.12" font-family="Times New Roman,serif" font-size="14.00">8</text>
</g>
<!-- 7&#45;&#45;8 -->
<g id="edge11" class="edge">
<title>7&#45;&#45;8</title>
<path fill="none" stroke="black" d="M575.69,-883.69C547.8,-855.9 488.83,-797.15 461.09,-769.52"/>
<text text-anchor="middle" x="515.02" y="-829.05" font-family="Times New Roman,serif" font-size="14.00">6</text>
</g>
<!-- 14 -->
<g id="node10" class="node">
<title>14</title>
<ellipse fill="none" stroke="black" cx="684.64" cy="-825.99" rx="27" ry="18"/>
<text text-anchor="middle" x="684.64" y="-820.56" font-family="Times New Roman,serif" font-size="14.00">14</text>
</g>
<!-- 7&#45;&#45;14 -->
<g id="edge12" class="edge">
<title>7&#45;&#45;14</title>
<path fill="none" stroke="black" d="M608.55,-885.16C625.2,-872.21 650.04,-852.89 666.77,-839.88"/>
<text text-anchor="middle" x="634.28" y="-864.97" font-family="Times New Roman,serif" font-size="14.00">5</text>
</g>
<!-- AP1 -->
<g id="node11" class="node">
<title>AP1</title>
<ellipse fill="none" stroke="black" cx="789.44" cy="-899.88" rx="27.11" ry="18"/>
<text text-anchor="middle" x="789.44" y="-894.46" font-family="Times New Roman,serif" font-size="14.00">AP1</text>
</g>
<!-- 7&#45;&#45;AP1 -->
<g id="edge13" class="edge">
<title>7&#45;&#45;AP1</title>
<path fill="none" stroke="red" stroke-width="4" d="M618.11,-899.01C655.91,-899.2 723.97,-899.55 761.94,-899.74"/>
<text text-anchor="middle" x="686.65" y="-901.82" font-family="Times New Roman,serif" font-size="14.00">6</text>
</g>
<!-- 5 -->
<g id="node6" class="node">
<title>5</title>
<ellipse fill="none" stroke="black" cx="186.39" cy="-930.53" rx="27" ry="18"/>
<text text-anchor="middle" x="186.39" y="-925.1" font-family="Times New Roman,serif" font-size="14.00">5</text>
</g>
<!-- 3&#45;&#45;5 -->
<g id="edge7" class="edge">
<title>3&#45;&#45;5</title>
<path fill="none" stroke="red" stroke-width="4" d="M234.99,-1082.01C224.59,-1049.58 202.65,-981.22 192.18,-948.59"/>
<text text-anchor="middle" x="210.21" y="-1017.75" font-family="Times New Roman,serif" font-size="14.00">2</text>
</g>
<!-- 6 -->
<g id="node8" class="node">
<title>6</title>
<ellipse fill="none" stroke="black" cx="287.11" cy="-795.87" rx="27" ry="18"/>
<text text-anchor="middle" x="287.11" y="-790.45" font-family="Times New Roman,serif" font-size="14.00">6</text>
</g>
<!-- 5&#45;&#45;6 -->
<g id="edge9" class="edge">
<title>5&#45;&#45;6</title>
<path fill="none" stroke="red" stroke-width="4" d="M198.74,-914.02C218.17,-888.03 255.67,-837.91 274.97,-812.1"/>
<text text-anchor="middle" x="233.48" y="-865.51" font-family="Times New Roman,serif" font-size="14.00">2</text>
</g>
<!-- AP5 -->
<g id="node7" class="node">
<title>AP5</title>
<ellipse fill="none" stroke="black" cx="27.11" cy="-926.73" rx="27.11" ry="18"/>
<text text-anchor="middle" x="27.11" y="-921.31" font-family="Times New Roman,serif" font-size="14.00">AP5</text>
</g>
<!-- AP5&#45;&#45;5 -->
<g id="edge8" class="edge">
<title>AP5&#45;&#45;5</title>
<path fill="none" stroke="red" stroke-width="4" d="M54.49,-927.39C83.75,-928.08 129.87,-929.18 159.1,-929.88"/>
<text text-anchor="middle" x="103.42" y="-931.08" font-family="Times New Roman,serif" font-size="14.00">3</text>
</g>
<!-- 6&#45;&#45;8 -->
<g id="edge10" class="edge">
<title>6&#45;&#45;8</title>
<path fill="none" stroke="black" d="M312.64,-789.23C342.31,-781.52 390.95,-768.88 420.59,-761.17"/>
<text text-anchor="middle" x="363.24" y="-777.65" font-family="Times New Roman,serif" font-size="14.00">5</text>
</g>
<!-- 9 -->
<g id="node12" class="node">
<title>9</title>
<ellipse fill="none" stroke="black" cx="545.93" cy="-715.39" rx="27" ry="18"/>
<text text-anchor="middle" x="545.93" y="-709.97" font-family="Times New Roman,serif" font-size="14.00">9</text>
</g>
<!-- 8&#45;&#45;9 -->
<g id="edge14" class="edge">
<title>8&#45;&#45;9</title>
<path fill="none" stroke="red" stroke-width="4" d="M469.73,-745.27C485.65,-739.03 506.55,-730.83 522.43,-724.6"/>
<text text-anchor="middle" x="492.71" y="-737.39" font-family="Times New Roman,serif" font-size="14.00">2</text>
</g>
<!-- AP4 -->
<g id="node13" class="node">
<title>AP4</title>
<ellipse fill="none" stroke="black" cx="465.62" cy="-577.16" rx="27.11" ry="18"/>
<text text-anchor="middle" x="465.62" y="-571.74" font-family="Times New Roman,serif" font-size="14.00">AP4</text>
</g>
<!-- 8&#45;&#45;AP4 -->
<g id="edge15" class="edge">
<title>8&#45;&#45;AP4</title>
<path fill="none" stroke="black" d="M448.08,-736.23C451.84,-702.15 459.86,-629.38 463.61,-595.38"/>
<text text-anchor="middle" x="452.47" y="-668.26" font-family="Times New Roman,serif" font-size="14.00">5</text>
</g>
<!-- 14&#45;&#45;AP1 -->
<g id="edge27" class="edge">
<title>14&#45;&#45;AP1</title>
<path fill="none" stroke="black" d="M703.37,-839.2C722.33,-852.57 751.48,-873.12 770.51,-886.54"/>
<text text-anchor="middle" x="733.57" y="-865.32" font-family="Times New Roman,serif" font-size="14.00">7</text>
</g>
<!-- 15 -->
<g id="node20" class="node">
<title>15</title>
<ellipse fill="none" stroke="black" cx="754.31" cy="-1003.04" rx="27" ry="18"/>
<text text-anchor="middle" x="754.31" y="-997.62" font-family="Times New Roman,serif" font-size="14.00">15</text>
</g>
<!-- 14&#45;&#45;15 -->
<g id="edge26" class="edge">
<title>14&#45;&#45;15</title>
<path fill="none" stroke="black" d="M691.57,-843.61C704.89,-877.46 733.92,-951.23 747.3,-985.23"/>
<text text-anchor="middle" x="716.06" y="-916.87" font-family="Times New Roman,serif" font-size="14.00">3</text>
</g>
<!-- 17 -->
<g id="node21" class="node">
<title>17</title>
<ellipse fill="none" stroke="black" cx="869.97" cy="-776.64" rx="27" ry="18"/>
<text text-anchor="middle" x="869.97" y="-771.21" font-family="Times New Roman,serif" font-size="14.00">17</text>
</g>
<!-- AP1&#45;&#45;17 -->
<g id="edge29" class="edge">
<title>AP1&#45;&#45;17</title>
<path fill="none" stroke="red" stroke-width="4" d="M800.46,-883C815.89,-859.4 843.73,-816.8 859.08,-793.31"/>
<text text-anchor="middle" x="826.4" y="-840.61" font-family="Times New Roman,serif" font-size="14.00">8</text>
</g>
<!-- 18 -->
<g id="node22" class="node">
<title>18</title>
<ellipse fill="none" stroke="black" cx="942.91" cy="-812.77" rx="27" ry="18"/>
<text text-anchor="middle" x="942.91" y="-807.34" font-family="Times New Roman,serif" font-size="14.00">18</text>
</g>
<!-- AP1&#45;&#45;18 -->
<g id="edge30" class="edge">
<title>AP1&#45;&#45;18</title>
<path fill="none" stroke="red" stroke-width="4" d="M810.45,-887.95C839.84,-871.27 892.89,-841.16 922.14,-824.55"/>
<text text-anchor="middle" x="862.92" y="-858.7" font-family="Times New Roman,serif" font-size="14.00">7</text>
</g>
<!-- 19 -->
<g id="node23" class="node">
<title>19</title>
<ellipse fill="none" stroke="black" cx="963.07" cy="-926.16" rx="27" ry="18"/>
<text text-anchor="middle" x="963.07" y="-920.73" font-family="Times New Roman,serif" font-size="14.00">19</text>
</g>
<!-- AP1&#45;&#45;19 -->
<g id="edge31" class="edge">
<title>AP1&#45;&#45;19</title>
<path fill="none" stroke="red" stroke-width="4" d="M816.19,-903.93C848.82,-908.87 903.65,-917.16 936.29,-922.1"/>
<text text-anchor="middle" x="872.86" y="-915.47" font-family="Times New Roman,serif" font-size="14.00">8</text>
</g>
<!-- 9&#45;&#45;14 -->
<g id="edge17" class="edge">
<title>9&#45;&#45;14</title>
<path fill="none" stroke="red" stroke-width="4" d="M563.5,-729.4C590.18,-750.67 640.62,-790.89 667.21,-812.09"/>
<text text-anchor="middle" x="611.98" y="-773.2" font-family="Times New Roman,serif" font-size="14.00">3</text>
</g>
<!-- 9&#45;&#45;AP4 -->
<g id="edge16" class="edge">
<title>9&#45;&#45;AP4</title>
<path fill="none" stroke="red" stroke-width="4" d="M535.92,-698.16C520.45,-671.53 490.9,-620.68 475.5,-594.17"/>
<text text-anchor="middle" x="502.34" y="-648.62" font-family="Times New Roman,serif" font-size="14.00">2</text>
</g>
<!-- 11 -->
<g id="node14" class="node">
<title>11</title>
<ellipse fill="none" stroke="black" cx="489.15" cy="-474.6" rx="27" ry="18"/>
<text text-anchor="middle" x="489.15" y="-469.17" font-family="Times New Roman,serif" font-size="14.00">11</text>
</g>
<!-- AP4&#45;&#45;11 -->
<g id="edge18" class="edge">
<title>AP4&#45;&#45;11</title>
<path fill="none" stroke="red" stroke-width="4" d="M469.72,-559.3C474.01,-540.59 480.71,-511.37 485.02,-492.6"/>
<text text-anchor="middle" x="473.99" y="-528.4" font-family="Times New Roman,serif" font-size="14.00">2</text>
</g>
<!-- 36 -->
<g id="node15" class="node">
<title>36</title>
<ellipse fill="none" stroke="black" cx="541.31" cy="-383.96" rx="27" ry="18"/>
<text text-anchor="middle" x="541.31" y="-378.53" font-family="Times New Roman,serif" font-size="14.00">36</text>
</g>
<!-- AP4&#45;&#45;36 -->
<g id="edge19" class="edge">
<title>AP4&#45;&#45;36</title>
<path fill="none" stroke="red" stroke-width="4" d="M472.6,-559.33C487.02,-522.53 519.94,-438.51 534.34,-401.74"/>
<text text-anchor="middle" x="500.1" y="-482.99" font-family="Times New Roman,serif" font-size="14.00">3</text>
</g>
<!-- 11&#45;&#45;36 -->
<g id="edge21" class="edge">
<title>11&#45;&#45;36</title>
<path fill="none" stroke="black" d="M498.96,-457.55C508.29,-441.34 522.23,-417.11 531.54,-400.93"/>
<text text-anchor="middle" x="511.88" y="-431.69" font-family="Times New Roman,serif" font-size="14.00">2</text>
</g>
<!-- 12 -->
<g id="node16" class="node">
<title>12</title>
<ellipse fill="none" stroke="black" cx="640.04" cy="-564.99" rx="27" ry="18"/>
<text text-anchor="middle" x="640.04" y="-559.56" font-family="Times New Roman,serif" font-size="14.00">12</text>
</g>
<!-- 11&#45;&#45;12 -->
<g id="edge20" class="edge">
<title>11&#45;&#45;12</title>
<path fill="none" stroke="red" stroke-width="4" d="M509.5,-486.79C538.3,-504.04 590.65,-535.4 619.53,-552.7"/>
<text text-anchor="middle" x="561.14" y="-522.19" font-family="Times New Roman,serif" font-size="14.00">1</text>
</g>
<!-- 13 -->
<g id="node17" class="node">
<title>13</title>
<ellipse fill="none" stroke="black" cx="765.76" cy="-682.53" rx="27" ry="18"/>
<text text-anchor="middle" x="765.76" y="-677.1" font-family="Times New Roman,serif" font-size="14.00">13</text>
</g>
<!-- 12&#45;&#45;13 -->
<g id="edge22" class="edge">
<title>12&#45;&#45;13</title>
<path fill="none" stroke="red" stroke-width="4" d="M655.97,-579.87C680.15,-602.48 725.86,-645.22 749.97,-667.76"/>
<text text-anchor="middle" x="699.59" y="-626.27" font-family="Times New Roman,serif" font-size="14.00">1</text>
</g>
<!-- 37 -->
<g id="node18" class="node">
<title>37</title>
<ellipse fill="none" stroke="black" cx="711.02" cy="-445.61" rx="27" ry="18"/>
<text text-anchor="middle" x="711.02" y="-440.18" font-family="Times New Roman,serif" font-size="14.00">37</text>
</g>
<!-- 12&#45;&#45;37 -->
<g id="edge23" class="edge">
<title>12&#45;&#45;37</title>
<path fill="none" stroke="red" stroke-width="4" d="M650.21,-547.88C663.7,-525.19 687.38,-485.36 700.87,-462.68"/>
<text text-anchor="middle" x="672.16" y="-507.73" font-family="Times New Roman,serif" font-size="14.00">2</text>
</g>
<!-- 13&#45;&#45;14 -->
<g id="edge24" class="edge">
<title>13&#45;&#45;14</title>
<path fill="none" stroke="black" d="M756.14,-699.55C740.52,-727.16 709.86,-781.39 694.25,-808.99"/>
<text text-anchor="middle" x="721.82" y="-756.72" font-family="Times New Roman,serif" font-size="14.00">4</text>
</g>
<!-- 40 -->
<g id="node19" class="node">
<title>40</title>
<ellipse fill="none" stroke="black" cx="940.57" cy="-641.94" rx="27" ry="18"/>
<text text-anchor="middle" x="940.57" y="-636.51" font-family="Times New Roman,serif" font-size="14.00">40</text>
</g>
<!-- 13&#45;&#45;40 -->
<g id="edge25" class="edge">
<title>13&#45;&#45;40</title>
<path fill="none" stroke="black" d="M791.56,-676.54C824.61,-668.86 881.57,-655.64 914.67,-647.95"/>
<text text-anchor="middle" x="849.74" y="-664.69" font-family="Times New Roman,serif" font-size="14.00">5</text>
</g>
<!-- 38 -->
<g id="node41" class="node">
<title>38</title>
<ellipse fill="none" stroke="black" cx="857.49" cy="-529.82" rx="27" ry="18"/>
<text text-anchor="middle" x="857.49" y="-524.39" font-family="Times New Roman,serif" font-size="14.00">38</text>
</g>
<!-- 37&#45;&#45;38 -->
<g id="edge69" class="edge">
<title>37&#45;&#45;38</title>
<path fill="none" stroke="black" d="M731.69,-457.49C759.61,-473.54 809.06,-501.97 836.92,-517.99"/>
<text text-anchor="middle" x="780.93" y="-490.19" font-family="Times New Roman,serif" font-size="14.00">3</text>
</g>
<!-- 15&#45;&#45;AP1 -->
<g id="edge28" class="edge">
<title>15&#45;&#45;AP1</title>
<path fill="none" stroke="red" stroke-width="4" d="M760.43,-985.07C766.87,-966.14 776.97,-936.5 783.39,-917.65"/>
<text text-anchor="middle" x="768.53" y="-953.81" font-family="Times New Roman,serif" font-size="14.00">5</text>
</g>
<!-- 17&#45;&#45;40 -->
<g id="edge33" class="edge">
<title>17&#45;&#45;40</title>
<path fill="none" stroke="black" d="M879.06,-759.3C892.61,-733.44 917.98,-685.03 931.52,-659.2"/>
<text text-anchor="middle" x="901.91" y="-711.7" font-family="Times New Roman,serif" font-size="14.00">6</text>
</g>
<!-- 17&#45;&#45;18 -->
<g id="edge32" class="edge">
<title>17&#45;&#45;18</title>
<path fill="none" stroke="black" d="M891.86,-787.48C901,-792.01 911.62,-797.27 920.79,-801.81"/>
<text text-anchor="middle" x="902.95" y="-797.09" font-family="Times New Roman,serif" font-size="14.00">3</text>
</g>
<!-- 18&#45;&#45;40 -->
<g id="edge36" class="edge">
<title>18&#45;&#45;40</title>
<path fill="none" stroke="black" d="M942.66,-794.48C942.21,-761.69 941.27,-693.23 940.82,-660.34"/>
<text text-anchor="middle" x="938.36" y="-729.86" font-family="Times New Roman,serif" font-size="14.00">9</text>
</g>
<!-- 18&#45;&#45;19 -->
<g id="edge34" class="edge">
<title>18&#45;&#45;19</title>
<path fill="none" stroke="black" d="M946.15,-830.98C949.91,-852.14 956.08,-886.84 959.84,-907.98"/>
<text text-anchor="middle" x="949.62" y="-871.93" font-family="Times New Roman,serif" font-size="14.00">3</text>
</g>
<!-- 20 -->
<g id="node24" class="node">
<title>20</title>
<ellipse fill="none" stroke="black" cx="1093.76" cy="-811.8" rx="27" ry="18"/>
<text text-anchor="middle" x="1093.76" y="-806.38" font-family="Times New Roman,serif" font-size="14.00">20</text>
</g>
<!-- 18&#45;&#45;20 -->
<g id="edge35" class="edge">
<title>18&#45;&#45;20</title>
<path fill="none" stroke="black" d="M970.23,-812.59C997.48,-812.42 1039.12,-812.15 1066.39,-811.98"/>
<text text-anchor="middle" x="1014.93" y="-814.73" font-family="Times New Roman,serif" font-size="14.00">5</text>
</g>
<!-- 19&#45;&#45;20 -->
<g id="edge37" class="edge">
<title>19&#45;&#45;20</title>
<path fill="none" stroke="black" d="M979.62,-911.67C1004.76,-889.68 1052.28,-848.09 1077.34,-826.17"/>
<text text-anchor="middle" x="1025.11" y="-871.37" font-family="Times New Roman,serif" font-size="14.00">1</text>
</g>
<!-- 21 -->
<g id="node25" class="node">
<title>21</title>
<ellipse fill="none" stroke="black" cx="1213.63" cy="-765.23" rx="27" ry="18"/>
<text text-anchor="middle" x="1213.63" y="-759.8" font-family="Times New Roman,serif" font-size="14.00">21</text>
</g>
<!-- 20&#45;&#45;21 -->
<g id="edge38" class="edge">
<title>20&#45;&#45;21</title>
<path fill="none" stroke="black" d="M1117.44,-802.6C1138.46,-794.44 1169,-782.57 1190,-774.41"/>
<text text-anchor="middle" x="1150.35" y="-790.96" font-family="Times New Roman,serif" font-size="14.00">4</text>
</g>
<!-- 22 -->
<g id="node26" class="node">
<title>22</title>
<ellipse fill="none" stroke="black" cx="1119.12" cy="-636.35" rx="27" ry="18"/>
<text text-anchor="middle" x="1119.12" y="-630.93" font-family="Times New Roman,serif" font-size="14.00">22</text>
</g>
<!-- 20&#45;&#45;22 -->
<g id="edge39" class="edge">
<title>20&#45;&#45;22</title>
<path fill="none" stroke="red" stroke-width="4" d="M1096.38,-793.69C1101.24,-760.07 1111.6,-688.38 1116.48,-654.63"/>
<text text-anchor="middle" x="1103.05" y="-726.61" font-family="Times New Roman,serif" font-size="14.00">4</text>
</g>
<!-- 21&#45;&#45;22 -->
<g id="edge40" class="edge">
<title>21&#45;&#45;22</title>
<path fill="none" stroke="red" stroke-width="4" d="M1201.47,-748.64C1183.32,-723.9 1149.36,-677.58 1131.24,-652.87"/>
<text text-anchor="middle" x="1162.98" y="-703.21" font-family="Times New Roman,serif" font-size="14.00">4</text>
</g>
<!-- 22&#45;&#45;40 -->
<g id="edge43" class="edge">
<title>22&#45;&#45;40</title>
<path fill="none" stroke="red" stroke-width="4" d="M1092,-637.2C1058.44,-638.25 1001.62,-640.03 967.94,-641.08"/>
<text text-anchor="middle" x="1026.6" y="-641.59" font-family="Times New Roman,serif" font-size="14.00">3</text>
</g>
<!-- 23 -->
<g id="node27" class="node">
<title>23</title>
<ellipse fill="none" stroke="black" cx="1267.68" cy="-562.84" rx="27" ry="18"/>
<text text-anchor="middle" x="1267.68" y="-557.42" font-family="Times New Roman,serif" font-size="14.00">23</text>
</g>
<!-- 22&#45;&#45;23 -->
<g id="edge41" class="edge">
<title>22&#45;&#45;23</title>
<path fill="none" stroke="red" stroke-width="4" d="M1141.04,-625.5C1169.13,-611.61 1217.54,-587.65 1245.67,-573.74"/>
<text text-anchor="middle" x="1189.98" y="-602.07" font-family="Times New Roman,serif" font-size="14.00">2</text>
</g>
<!-- 25 -->
<g id="node28" class="node">
<title>25</title>
<ellipse fill="none" stroke="black" cx="1190.34" cy="-471.94" rx="27" ry="18"/>
<text text-anchor="middle" x="1190.34" y="-466.51" font-family="Times New Roman,serif" font-size="14.00">25</text>
</g>
<!-- 22&#45;&#45;25 -->
<g id="edge42" class="edge">
<title>22&#45;&#45;25</title>
<path fill="none" stroke="black" d="M1126.74,-618.76C1140.45,-587.11 1169.1,-520.96 1182.77,-489.41"/>
<text text-anchor="middle" x="1151.38" y="-556.53" font-family="Times New Roman,serif" font-size="14.00">3</text>
</g>
<!-- 23&#45;&#45;25 -->
<g id="edge45" class="edge">
<title>23&#45;&#45;25</title>
<path fill="none" stroke="red" stroke-width="4" d="M1254.21,-547.01C1240.1,-530.43 1218.06,-504.53 1203.91,-487.9"/>
<text text-anchor="middle" x="1225.68" y="-519.9" font-family="Times New Roman,serif" font-size="14.00">3</text>
</g>
<!-- AP2 -->
<g id="node29" class="node">
<title>AP2</title>
<ellipse fill="none" stroke="black" cx="1292.52" cy="-385.26" rx="27.11" ry="18"/>
<text text-anchor="middle" x="1292.52" y="-379.84" font-family="Times New Roman,serif" font-size="14.00">AP2</text>
</g>
<!-- 23&#45;&#45;AP2 -->
<g id="edge44" class="edge">
<title>23&#45;&#45;AP2</title>
<path fill="none" stroke="red" stroke-width="4" d="M1270.24,-544.51C1275.02,-510.39 1285.21,-437.54 1289.97,-403.5"/>
<text text-anchor="middle" x="1276.73" y="-476.45" font-family="Times New Roman,serif" font-size="14.00">1</text>
</g>
<!-- 26 -->
<g id="node30" class="node">
<title>26</title>
<ellipse fill="none" stroke="black" cx="1168.1" cy="-291.5" rx="27" ry="18"/>
<text text-anchor="middle" x="1168.1" y="-286.07" font-family="Times New Roman,serif" font-size="14.00">26</text>
</g>
<!-- 25&#45;&#45;26 -->
<g id="edge48" class="edge">
<title>25&#45;&#45;26</title>
<path fill="none" stroke="black" d="M1188.08,-453.64C1183.82,-419.06 1174.63,-344.46 1170.36,-309.84"/>
<text text-anchor="middle" x="1175.85" y="-384.19" font-family="Times New Roman,serif" font-size="14.00">2</text>
</g>
<!-- AP2&#45;&#45;25 -->
<g id="edge46" class="edge">
<title>AP2&#45;&#45;25</title>
<path fill="none" stroke="black" d="M1275.65,-399.57C1256.72,-415.63 1226.18,-441.54 1207.23,-457.61"/>
<text text-anchor="middle" x="1238.07" y="-431.04" font-family="Times New Roman,serif" font-size="14.00">6</text>
</g>
<!-- AP2&#45;&#45;26 -->
<g id="edge47" class="edge">
<title>AP2&#45;&#45;26</title>
<path fill="none" stroke="black" d="M1274.43,-371.63C1250.84,-353.85 1209.82,-322.93 1186.22,-305.15"/>
<text text-anchor="middle" x="1226.95" y="-340.84" font-family="Times New Roman,serif" font-size="14.00">8</text>
</g>
<!-- 27 -->
<g id="node31" class="node">
<title>27</title>
<ellipse fill="none" stroke="black" cx="1034.76" cy="-268.25" rx="27" ry="18"/>
<text text-anchor="middle" x="1034.76" y="-262.83" font-family="Times New Roman,serif" font-size="14.00">27</text>
</g>
<!-- 26&#45;&#45;27 -->
<g id="edge49" class="edge">
<title>26&#45;&#45;27</title>
<path fill="none" stroke="black" d="M1141.76,-286.9C1118.38,-282.83 1084.41,-276.91 1061.05,-272.84"/>
<text text-anchor="middle" x="1098.03" y="-282.32" font-family="Times New Roman,serif" font-size="14.00">4</text>
</g>
<!-- 28 -->
<g id="node32" class="node">
<title>28</title>
<ellipse fill="none" stroke="black" cx="1041.41" cy="-145.69" rx="27" ry="18"/>
<text text-anchor="middle" x="1041.41" y="-140.26" font-family="Times New Roman,serif" font-size="14.00">28</text>
</g>
<!-- 26&#45;&#45;28 -->
<g id="edge50" class="edge">
<title>26&#45;&#45;28</title>
<path fill="none" stroke="red" stroke-width="4" d="M1154.3,-275.61C1129.93,-247.57 1079.55,-189.58 1055.19,-161.55"/>
<text text-anchor="middle" x="1101.37" y="-221.03" font-family="Times New Roman,serif" font-size="14.00">1</text>
</g>
<!-- 31 -->
<g id="node33" class="node">
<title>31</title>
<ellipse fill="none" stroke="black" cx="931.78" cy="-182.63" rx="27" ry="18"/>
<text text-anchor="middle" x="931.78" y="-177.2" font-family="Times New Roman,serif" font-size="14.00">31</text>
</g>
<!-- 27&#45;&#45;31 -->
<g id="edge51" class="edge">
<title>27&#45;&#45;31</title>
<path fill="none" stroke="red" stroke-width="4" d="M1017.75,-254.11C998.67,-238.25 967.9,-212.66 948.81,-196.79"/>
<text text-anchor="middle" x="979.91" y="-227.9" font-family="Times New Roman,serif" font-size="14.00">1</text>
</g>
<!-- 33 -->
<g id="node34" class="node">
<title>33</title>
<ellipse fill="none" stroke="black" cx="873.86" cy="-316.68" rx="27" ry="18"/>
<text text-anchor="middle" x="873.86" y="-311.26" font-family="Times New Roman,serif" font-size="14.00">33</text>
</g>
<!-- 27&#45;&#45;33 -->
<g id="edge52" class="edge">
<title>27&#45;&#45;33</title>
<path fill="none" stroke="black" d="M1009.97,-275.71C979.82,-284.79 929.22,-300.02 898.94,-309.13"/>
<text text-anchor="middle" x="951.08" y="-294.87" font-family="Times New Roman,serif" font-size="14.00">3</text>
</g>
<!-- 28&#45;&#45;31 -->
<g id="edge55" class="edge">
<title>28&#45;&#45;31</title>
<path fill="none" stroke="black" d="M1017.08,-153.88C998.91,-160.01 974.2,-168.33 956.05,-174.45"/>
<text text-anchor="middle" x="983.19" y="-166.62" font-family="Times New Roman,serif" font-size="14.00">1</text>
</g>
<!-- AP3 -->
<g id="node35" class="node">
<title>AP3</title>
<ellipse fill="none" stroke="black" cx="950.96" cy="-18" rx="27.11" ry="18"/>
<text text-anchor="middle" x="950.96" y="-12.57" font-family="Times New Roman,serif" font-size="14.00">AP3</text>
</g>
<!-- 28&#45;&#45;AP3 -->
<g id="edge53" class="edge">
<title>28&#45;&#45;AP3</title>
<path fill="none" stroke="red" stroke-width="4" d="M1029.59,-128.99C1012.25,-104.52 980.13,-59.17 962.79,-34.7"/>
<text text-anchor="middle" x="992.81" y="-84.3" font-family="Times New Roman,serif" font-size="14.00">2</text>
</g>
<!-- 30 -->
<g id="node36" class="node">
<title>30</title>
<ellipse fill="none" stroke="black" cx="840.03" cy="-125.21" rx="27" ry="18"/>
<text text-anchor="middle" x="840.03" y="-119.78" font-family="Times New Roman,serif" font-size="14.00">30</text>
</g>
<!-- 28&#45;&#45;30 -->
<g id="edge54" class="edge">
<title>28&#45;&#45;30</title>
<path fill="none" stroke="black" d="M1014.25,-142.92C975.71,-139.01 905.56,-131.87 867.08,-127.96"/>
<text text-anchor="middle" x="937.29" y="-137.89" font-family="Times New Roman,serif" font-size="14.00">2</text>
</g>
<!-- 31&#45;&#45;33 -->
<g id="edge60" class="edge">
<title>31&#45;&#45;33</title>
<path fill="none" stroke="black" d="M924.21,-200.15C913.11,-225.84 892.54,-273.46 881.43,-299.15"/>
<text text-anchor="middle" x="899.45" y="-252.1" font-family="Times New Roman,serif" font-size="14.00">4</text>
</g>
<!-- 32 -->
<g id="node38" class="node">
<title>32</title>
<ellipse fill="none" stroke="black" cx="774.71" cy="-189.91" rx="27" ry="18"/>
<text text-anchor="middle" x="774.71" y="-184.49" font-family="Times New Roman,serif" font-size="14.00">32</text>
</g>
<!-- 31&#45;&#45;32 -->
<g id="edge59" class="edge">
<title>31&#45;&#45;32</title>
<path fill="none" stroke="black" d="M904.42,-183.89C875.68,-185.23 830.74,-187.31 802.02,-188.64"/>
<text text-anchor="middle" x="849.85" y="-188.72" font-family="Times New Roman,serif" font-size="14.00">4</text>
</g>
<!-- 35 -->
<g id="node37" class="node">
<title>35</title>
<ellipse fill="none" stroke="black" cx="708.29" cy="-269.39" rx="27" ry="18"/>
<text text-anchor="middle" x="708.29" y="-263.96" font-family="Times New Roman,serif" font-size="14.00">35</text>
</g>
<!-- 33&#45;&#45;35 -->
<g id="edge63" class="edge">
<title>33&#45;&#45;35</title>
<path fill="none" stroke="red" stroke-width="4" d="M848.71,-309.5C817.5,-300.59 764.6,-285.47 733.4,-276.56"/>
<text text-anchor="middle" x="787.68" y="-295.48" font-family="Times New Roman,serif" font-size="14.00">3</text>
</g>
<!-- 39 -->
<g id="node39" class="node">
<title>39</title>
<ellipse fill="none" stroke="black" cx="944.14" cy="-474.24" rx="27" ry="18"/>
<text text-anchor="middle" x="944.14" y="-468.81" font-family="Times New Roman,serif" font-size="14.00">39</text>
</g>
<!-- 33&#45;&#45;39 -->
<g id="edge64" class="edge">
<title>33&#45;&#45;39</title>
<path fill="none" stroke="black" d="M881.65,-334.15C895.16,-364.43 922.78,-426.36 936.32,-456.7"/>
<text text-anchor="middle" x="905.61" y="-397.87" font-family="Times New Roman,serif" font-size="14.00">3</text>
</g>
<!-- AP3&#45;&#45;30 -->
<g id="edge56" class="edge">
<title>AP3&#45;&#45;30</title>
<path fill="none" stroke="red" stroke-width="4" d="M935.54,-32.91C914.46,-53.27 876.87,-89.6 855.68,-110.08"/>
<text text-anchor="middle" x="892.23" y="-73.95" font-family="Times New Roman,serif" font-size="14.00">1</text>
</g>
<!-- 30&#45;&#45;31 -->
<g id="edge57" class="edge">
<title>30&#45;&#45;31</title>
<path fill="none" stroke="red" stroke-width="4" d="M859.94,-137.67C875.33,-147.3 896.53,-160.57 911.91,-170.19"/>
<text text-anchor="middle" x="882.55" y="-156.38" font-family="Times New Roman,serif" font-size="14.00">2</text>
</g>
<!-- 30&#45;&#45;35 -->
<g id="edge58" class="edge">
<title>30&#45;&#45;35</title>
<path fill="none" stroke="black" d="M825.68,-140.91C800.34,-168.65 747.95,-225.98 722.63,-253.7"/>
<text text-anchor="middle" x="777.53" y="-199.76" font-family="Times New Roman,serif" font-size="14.00">4</text>
</g>
<!-- 35&#45;&#45;36 -->
<g id="edge68" class="edge">
<title>35&#45;&#45;36</title>
<path fill="none" stroke="red" stroke-width="4" d="M689.14,-282.53C657.01,-304.57 592.64,-348.73 560.5,-370.79"/>
<text text-anchor="middle" x="621.44" y="-329.11" font-family="Times New Roman,serif" font-size="14.00">1</text>
</g>
<!-- 32&#45;&#45;33 -->
<g id="edge61" class="edge">
<title>32&#45;&#45;33</title>
<path fill="none" stroke="black" d="M787.47,-206.22C806.5,-230.57 842.14,-276.13 861.15,-300.43"/>
<text text-anchor="middle" x="820.93" y="-255.78" font-family="Times New Roman,serif" font-size="14.00">1</text>
</g>
<!-- 32&#45;&#45;35 -->
<g id="edge62" class="edge">
<title>32&#45;&#45;35</title>
<path fill="none" stroke="red" stroke-width="4" d="M761.27,-205.99C749.75,-219.78 733.23,-239.55 721.71,-253.33"/>
<text text-anchor="middle" x="738.12" y="-232.11" font-family="Times New Roman,serif" font-size="14.00">3</text>
</g>
<!-- 39&#45;&#45;40 -->
<g id="edge72" class="edge">
<title>39&#45;&#45;40</title>
<path fill="none" stroke="black" d="M943.75,-492.5C943.07,-524.76 941.64,-591.45 940.96,-623.69"/>
<text text-anchor="middle" x="938.98" y="-560.55" font-family="Times New Roman,serif" font-size="14.00">4</text>
</g>
<!-- 34 -->
<g id="node40" class="node">
<title>34</title>
<ellipse fill="none" stroke="black" cx="603.97" cy="-305.03" rx="27" ry="18"/>
<text text-anchor="middle" x="603.97" y="-299.6" font-family="Times New Roman,serif" font-size="14.00">34</text>
</g>
<!-- 34&#45;&#45;36 -->
<g id="edge66" class="edge">
<title>34&#45;&#45;36</title>
<path fill="none" stroke="red" stroke-width="4" d="M591.29,-321C580.49,-334.6 565.04,-354.06 554.19,-367.74"/>
<text text-anchor="middle" x="569.36" y="-346.82" font-family="Times New Roman,serif" font-size="14.00">2</text>
</g>
<!-- 34&#45;&#45;37 -->
<g id="edge67" class="edge">
<title>34&#45;&#45;37</title>
<path fill="none" stroke="black" d="M616.46,-321.43C637.09,-348.52 678.03,-402.29 698.61,-429.31"/>
<text text-anchor="middle" x="654.16" y="-377.82" font-family="Times New Roman,serif" font-size="14.00">2</text>
</g>
<!-- 34&#45;&#45;35 -->
<g id="edge65" class="edge">
<title>34&#45;&#45;35</title>
<path fill="none" stroke="black" d="M628.43,-296.67C645.17,-290.95 667.28,-283.4 683.99,-277.69"/>
<text text-anchor="middle" x="652.83" y="-289.63" font-family="Times New Roman,serif" font-size="14.00">1</text>
</g>
<!-- 38&#45;&#45;40 -->
<g id="edge71" class="edge">
<title>38&#45;&#45;40</title>
<path fill="none" stroke="red" stroke-width="4" d="M869.75,-546.36C885.55,-567.68 912.84,-604.51 928.53,-625.69"/>
<text text-anchor="middle" x="895.76" y="-588.47" font-family="Times New Roman,serif" font-size="14.00">1</text>
</g>
<!-- 38&#45;&#45;39 -->
<g id="edge70" class="edge">
<title>38&#45;&#45;39</title>
<path fill="none" stroke="red" stroke-width="4" d="M877.15,-517.2C891.23,-508.17 910.13,-496.06 924.26,-486.99"/>
<text text-anchor="middle" x="897.33" y="-504.55" font-family="Times New Roman,serif" font-size="14.00">1</text>
</g>
</g>
</svg>
