<?xml version="1.0" encoding="us-ascii" standalone="no"?><svg xmlns="http://www.w3.org/2000/svg" xmlns:xlink="http://www.w3.org/1999/xlink" contentStyleType="text/css" height="363px" preserveAspectRatio="none" style="width:658px;height:363px;background:#FFFFFF;" version="1.1" viewBox="0 0 658 363" width="658px" zoomAndPan="magnify"><defs/><g><text fill="#000000" font-family="sans-serif" font-size="14" font-weight="bold" lengthAdjust="spacing" textLength="182" x="239.75" y="30.1074">SD_toGreenSpaceDTOList</text><rect fill="#FFFFFF" height="228.7461" style="stroke:#181818;stroke-width:1.0;" width="10" x="94.5" y="88.2422"/><rect fill="#FFFFFF" height="196.4551" style="stroke:#181818;stroke-width:1.0;" width="10" x="350.5" y="111.5332"/><rect fill="#FFFFFF" height="31.291" style="stroke:#181818;stroke-width:1.0;" width="10" x="509.5" y="169.1152"/><rect fill="none" height="151.1641" style="stroke:#000000;stroke-width:1.5;" width="380" x="272.5" y="126.5332"/><line style="stroke:#181818;stroke-width:0.5;stroke-dasharray:5.0,5.0;" x1="99" x2="99" y1="78.2422" y2="325.9883"/><line style="stroke:#181818;stroke-width:0.5;stroke-dasharray:5.0,5.0;" x1="355.5" x2="355.5" y1="78.2422" y2="325.9883"/><line style="stroke:#181818;stroke-width:0.5;stroke-dasharray:5.0,5.0;" x1="514.5" x2="514.5" y1="78.2422" y2="325.9883"/><rect fill="#E3E3E3" height="32.6211" rx="2.5" ry="2.5" style="stroke:#181818;stroke-width:0.5;" width="189" x="5" y="44.6211"/><text fill="#000000" font-family="sans-serif" font-size="14" lengthAdjust="spacing" textLength="175" x="12" y="66.7285">:ListGreenSpacesController</text><rect fill="#E3E3E3" height="32.6211" rx="2.5" ry="2.5" style="stroke:#181818;stroke-width:0.5;" width="189" x="5" y="324.9883"/><text fill="#000000" font-family="sans-serif" font-size="14" lengthAdjust="spacing" textLength="175" x="12" y="347.0957">:ListGreenSpacesController</text><rect fill="#E3E3E3" height="32.6211" rx="2.5" ry="2.5" style="stroke:#181818;stroke-width:0.5;" width="146" x="282.5" y="44.6211"/><text fill="#000000" font-family="sans-serif" font-size="14" lengthAdjust="spacing" textLength="132" x="289.5" y="66.7285">:GreenSpaceMapper</text><rect fill="#E3E3E3" height="32.6211" rx="2.5" ry="2.5" style="stroke:#181818;stroke-width:0.5;" width="146" x="282.5" y="324.9883"/><text fill="#000000" font-family="sans-serif" font-size="14" lengthAdjust="spacing" textLength="132" x="289.5" y="347.0957">:GreenSpaceMapper</text><rect fill="#E3E3E3" height="32.6211" rx="2.5" ry="2.5" style="stroke:#181818;stroke-width:0.5;" width="128" x="450.5" y="44.6211"/><text fill="#000000" font-family="sans-serif" font-size="14" lengthAdjust="spacing" textLength="114" x="457.5" y="66.7285">:GreenSpaceDTO</text><rect fill="#E3E3E3" height="32.6211" rx="2.5" ry="2.5" style="stroke:#181818;stroke-width:0.5;" width="128" x="450.5" y="324.9883"/><text fill="#000000" font-family="sans-serif" font-size="14" lengthAdjust="spacing" textLength="114" x="457.5" y="347.0957">:GreenSpaceDTO</text><rect fill="#FFFFFF" height="228.7461" style="stroke:#181818;stroke-width:1.0;" width="10" x="94.5" y="88.2422"/><rect fill="#FFFFFF" height="196.4551" style="stroke:#181818;stroke-width:1.0;" width="10" x="350.5" y="111.5332"/><rect fill="#FFFFFF" height="31.291" style="stroke:#181818;stroke-width:1.0;" width="10" x="509.5" y="169.1152"/><polygon fill="#181818" points="338.5,107.5332,348.5,111.5332,338.5,115.5332,342.5,111.5332" style="stroke:#181818;stroke-width:1.0;"/><line style="stroke:#181818;stroke-width:1.0;" x1="104.5" x2="344.5" y1="111.5332" y2="111.5332"/><text fill="#000000" font-family="sans-serif" font-size="13" font-weight="bold" lengthAdjust="spacing" textLength="7" x="111.5" y="106.2705">1</text><text fill="#000000" font-family="sans-serif" font-size="13" lengthAdjust="spacing" textLength="216" x="122.5" y="106.2705">toDTOList(managerGreenSpacesList)</text><path d="M272.5,126.5332 L345.5,126.5332 L345.5,135.8242 L335.5,145.8242 L272.5,145.8242 L272.5,126.5332 " fill="#EEEEEE" style="stroke:#000000;stroke-width:1.5;"/><rect fill="none" height="151.1641" style="stroke:#000000;stroke-width:1.5;" width="380" x="272.5" y="126.5332"/><text fill="#000000" font-family="sans-serif" font-size="13" font-weight="bold" lengthAdjust="spacing" textLength="28" x="287.5" y="141.5615">loop</text><text fill="#000000" font-family="sans-serif" font-size="11" font-weight="bold" lengthAdjust="spacing" textLength="287" x="360.5" y="140.4033">[for every greenSpace in managerGreenSpacesList]</text><polygon fill="#181818" points="497.5,165.1152,507.5,169.1152,497.5,173.1152,501.5,169.1152" style="stroke:#181818;stroke-width:1.0;"/><line style="stroke:#181818;stroke-width:1.0;" x1="360.5" x2="503.5" y1="169.1152" y2="169.1152"/><text fill="#000000" font-family="sans-serif" font-size="13" font-weight="bold" lengthAdjust="spacing" textLength="7" x="367.5" y="163.8525">2</text><text fill="#000000" font-family="sans-serif" font-size="13" lengthAdjust="spacing" textLength="114" x="378.5" y="163.8525">toDTO(greenSpace)</text><polygon fill="#181818" points="371.5,196.4063,361.5,200.4063,371.5,204.4063,367.5,200.4063" style="stroke:#181818;stroke-width:1.0;"/><line style="stroke:#181818;stroke-width:1.0;stroke-dasharray:2.0,2.0;" x1="365.5" x2="513.5" y1="200.4063" y2="200.4063"/><text fill="#000000" font-family="sans-serif" font-size="13" font-weight="bold" lengthAdjust="spacing" textLength="7" x="377.5" y="195.1436">3</text><text fill="#000000" font-family="sans-serif" font-size="13" lengthAdjust="spacing" textLength="95" x="388.5" y="195.1436">greenSpaceDTO</text><line style="stroke:#181818;stroke-width:1.0;stroke-dasharray:2.0,2.0;" x1="360.5" x2="402.5" y1="256.6973" y2="256.6973"/><line style="stroke:#181818;stroke-width:1.0;stroke-dasharray:2.0,2.0;" x1="402.5" x2="402.5" y1="256.6973" y2="269.6973"/><line style="stroke:#181818;stroke-width:1.0;stroke-dasharray:2.0,2.0;" x1="361.5" x2="402.5" y1="269.6973" y2="269.6973"/><polygon fill="#181818" points="371.5,265.6973,361.5,269.6973,371.5,273.6973,367.5,269.6973" style="stroke:#181818;stroke-width:1.0;"/><text fill="#000000" font-family="sans-serif" font-size="13" font-weight="bold" lengthAdjust="spacing" textLength="7" x="367.5" y="251.4346">4</text><text fill="#000000" font-family="sans-serif" font-size="13" lengthAdjust="spacing" textLength="124" x="378.5" y="251.4346">add(greenSpaceDTO)</text><polygon fill="#181818" points="115.5,303.9883,105.5,307.9883,115.5,311.9883,111.5,307.9883" style="stroke:#181818;stroke-width:1.0;"/><line style="stroke:#181818;stroke-width:1.0;stroke-dasharray:2.0,2.0;" x1="109.5" x2="354.5" y1="307.9883" y2="307.9883"/><text fill="#000000" font-family="sans-serif" font-size="13" font-weight="bold" lengthAdjust="spacing" textLength="7" x="121.5" y="302.7256">5</text><text fill="#000000" font-family="sans-serif" font-size="13" lengthAdjust="spacing" textLength="116" x="132.5" y="302.7256">greenSpaceDTOList</text><!--SRC=[XL71Ri8m3BtdAonESE07EEm24XUcIIltoMjDYMZZA76PaFZujQMqISaqIpd4Vdv-p_ONRImwhA5cm_dPSKqWhY7bnuh5_88bPNAh21pbWgQiGe0_Oy4_sfHmmigJKgAbXMQxB-6z8p9PIq6xuyT1Ur4A6s7JrD_ab6e9HEVQeX5ORBhwrE2tRCHnLP5R07hO7ZyFiuO9_8xM3hXzzlZyYMsL3C2Ti580qBq-C1TzHQ77C0YYIy3wRMI73GWFdfOrcdP3Bj3UfLSHmKWzwWkhqUSP5RE54pkWAxaRb2CzQ0FfcKcUKNEllpNz5B-SA5V9pa3qSrUGdj2nhkFzbE76awq5pGQaGFVx_HzNyLWiYcKq-jKQcQ9VxgkXYBI_-Sp7ov8Z3yDbLUgoOLRz0W00]--></g></svg>