<?xml version="1.0" encoding="us-ascii" standalone="no"?><svg xmlns="http://www.w3.org/2000/svg" xmlns:xlink="http://www.w3.org/1999/xlink" contentStyleType="text/css" height="1037px" preserveAspectRatio="none" style="width:1680px;height:1037px;background:#FFFFFF;" version="1.1" viewBox="0 0 1680 1037" width="1680px" zoomAndPan="magnify"><defs/><g><text fill="#000000" font-family="sans-serif" font-size="14" font-weight="bold" lengthAdjust="spacing" textLength="221" x="731" y="30.1074">US027 - Sequence Diagram (SD)</text><rect fill="#FFFFFF" height="774.6055" style="stroke:#181818;stroke-width:1.0;" width="10" x="45" y="151.8633"/><rect fill="#FFFFFF" height="742.3145" style="stroke:#181818;stroke-width:1.0;" width="10" x="367" y="175.1543"/><rect fill="#FFFFFF" height="618.8203" style="stroke:#181818;stroke-width:1.0;" width="10" x="574" y="250.0664"/><rect fill="#FFFFFF" height="31.291" style="stroke:#181818;stroke-width:1.0;" width="10" x="727" y="281.3574"/><rect fill="#FFFFFF" height="31.291" style="stroke:#181818;stroke-width:1.0;" width="10" x="834" y="343.9395"/><rect fill="#FFFFFF" height="31.291" style="stroke:#181818;stroke-width:1.0;" width="10" x="975.5" y="406.5215"/><rect fill="#FFFFFF" height="243.3281" style="stroke:#181818;stroke-width:1.0;" width="10" x="1141.5" y="469.1035"/><rect fill="#FFFFFF" height="103.1641" style="stroke:#181818;stroke-width:1.0;" width="10" x="1307.5" y="526.6855"/><rect fill="#FFFFFF" height="31.291" style="stroke:#181818;stroke-width:1.0;" width="10" x="1524" y="806.3047"/><rect fill="#FFFFFF" height="31.291" style="stroke:#181818;stroke-width:1.0;" width="10" x="1612.5" y="743.7227"/><rect fill="none" height="198.0371" style="stroke:#000000;stroke-width:1.5;" width="610.5" x="1063.5" y="484.1035"/><line style="stroke:#181818;stroke-width:0.5;stroke-dasharray:5.0,5.0;" x1="50" x2="50" y1="141.8633" y2="935.4688"/><line style="stroke:#181818;stroke-width:0.5;stroke-dasharray:5.0,5.0;" x1="371.5" x2="371.5" y1="141.8633" y2="935.4688"/><line style="stroke:#181818;stroke-width:0.5;stroke-dasharray:5.0,5.0;" x1="578.5" x2="578.5" y1="214.9648" y2="935.4688"/><line style="stroke:#181818;stroke-width:0.5;stroke-dasharray:5.0,5.0;" x1="731.5" x2="731.5" y1="141.8633" y2="935.4688"/><line style="stroke:#181818;stroke-width:0.5;stroke-dasharray:5.0,5.0;" x1="838.5" x2="838.5" y1="141.8633" y2="935.4688"/><line style="stroke:#181818;stroke-width:0.5;stroke-dasharray:5.0,5.0;" x1="980.5" x2="980.5" y1="141.8633" y2="935.4688"/><line style="stroke:#181818;stroke-width:0.5;stroke-dasharray:5.0,5.0;" x1="1146.5" x2="1146.5" y1="141.8633" y2="935.4688"/><line style="stroke:#181818;stroke-width:0.5;stroke-dasharray:5.0,5.0;" x1="1312.5" x2="1312.5" y1="141.8633" y2="935.4688"/><line style="stroke:#181818;stroke-width:0.5;stroke-dasharray:5.0,5.0;" x1="1438.5" x2="1438.5" y1="141.8633" y2="935.4688"/><line style="stroke:#181818;stroke-width:0.5;stroke-dasharray:5.0,5.0;" x1="1528.5" x2="1528.5" y1="141.8633" y2="935.4688"/><line style="stroke:#181818;stroke-width:0.5;stroke-dasharray:5.0,5.0;" x1="1617.5" x2="1617.5" y1="141.8633" y2="935.4688"/><text fill="#000000" font-family="sans-serif" font-size="14" lengthAdjust="spacing" textLength="84" x="5" y="119.7285">Green Space</text><text fill="#000000" font-family="sans-serif" font-size="14" lengthAdjust="spacing" textLength="56" x="19" y="138.3496">Manager</text><ellipse cx="50" cy="53.1211" fill="#E3E3E3" rx="8" ry="8" style="stroke:#181818;stroke-width:0.5;"/><path d="M50,61.1211 L50,88.1211 M37,69.1211 L63,69.1211 M50,88.1211 L37,103.1211 M50,88.1211 L63,103.1211 " fill="none" style="stroke:#181818;stroke-width:0.5;"/><text fill="#000000" font-family="sans-serif" font-size="14" lengthAdjust="spacing" textLength="84" x="5" y="949.5762">Green Space</text><text fill="#000000" font-family="sans-serif" font-size="14" lengthAdjust="spacing" textLength="56" x="19" y="968.1973">Manager</text><ellipse cx="50" cy="980.2109" fill="#E3E3E3" rx="8" ry="8" style="stroke:#181818;stroke-width:0.5;"/><path d="M50,988.2109 L50,1015.2109 M37,996.2109 L63,996.2109 M50,1015.2109 L37,1030.2109 M50,1015.2109 L63,1030.2109 " fill="none" style="stroke:#181818;stroke-width:0.5;"/><rect fill="#E3E3E3" height="32.6211" rx="2.5" ry="2.5" style="stroke:#181818;stroke-width:0.5;" width="139" x="302.5" y="108.2422"/><text fill="#000000" font-family="sans-serif" font-size="14" lengthAdjust="spacing" textLength="125" x="309.5" y="130.3496">:ListGreenSpacesUI</text><rect fill="#E3E3E3" height="32.6211" rx="2.5" ry="2.5" style="stroke:#181818;stroke-width:0.5;" width="139" x="302.5" y="934.4688"/><text fill="#000000" font-family="sans-serif" font-size="14" lengthAdjust="spacing" textLength="125" x="309.5" y="956.5762">:ListGreenSpacesUI</text><rect fill="#E3E3E3" height="32.6211" rx="2.5" ry="2.5" style="stroke:#181818;stroke-width:0.5;" width="189" x="484.5" y="934.4688"/><text fill="#000000" font-family="sans-serif" font-size="14" lengthAdjust="spacing" textLength="175" x="491.5" y="956.5762">:ListGreenSpacesController</text><rect fill="#E3E3E3" height="32.6211" rx="2.5" ry="2.5" style="stroke:#181818;stroke-width:0.5;" width="97" x="683.5" y="108.2422"/><text fill="#000000" font-family="sans-serif" font-size="14" lengthAdjust="spacing" textLength="83" x="690.5" y="130.3496">:Repositories</text><rect fill="#E3E3E3" height="32.6211" rx="2.5" ry="2.5" style="stroke:#181818;stroke-width:0.5;" width="97" x="683.5" y="934.4688"/><text fill="#000000" font-family="sans-serif" font-size="14" lengthAdjust="spacing" textLength="83" x="690.5" y="956.5762">:Repositories</text><rect fill="#E3E3E3" height="51.2422" rx="2.5" ry="2.5" style="stroke:#181818;stroke-width:0.5;" width="97" x="790.5" y="89.6211"/><text fill="#000000" font-family="sans-serif" font-size="14" lengthAdjust="spacing" textLength="74" x="802" y="111.7285">repositories</text><text fill="#000000" font-family="sans-serif" font-size="14" lengthAdjust="spacing" textLength="83" x="797.5" y="130.3496">:Repositories</text><rect fill="#E3E3E3" height="51.2422" rx="2.5" ry="2.5" style="stroke:#181818;stroke-width:0.5;" width="97" x="790.5" y="934.4688"/><text fill="#000000" font-family="sans-serif" font-size="14" lengthAdjust="spacing" textLength="74" x="802" y="956.5762">repositories</text><text fill="#000000" font-family="sans-serif" font-size="14" lengthAdjust="spacing" textLength="83" x="797.5" y="975.1973">:Repositories</text><rect fill="#E3E3E3" height="51.2422" rx="2.5" ry="2.5" style="stroke:#181818;stroke-width:0.5;" width="166" x="897.5" y="89.6211"/><text fill="#000000" font-family="sans-serif" font-size="14" lengthAdjust="spacing" textLength="145" x="908" y="111.7285">greenSpaceRepository</text><text fill="#000000" font-family="sans-serif" font-size="14" lengthAdjust="spacing" textLength="152" x="904.5" y="130.3496">:GreenSpaceRepository</text><rect fill="#E3E3E3" height="51.2422" rx="2.5" ry="2.5" style="stroke:#181818;stroke-width:0.5;" width="166" x="897.5" y="934.4688"/><text fill="#000000" font-family="sans-serif" font-size="14" lengthAdjust="spacing" textLength="145" x="908" y="956.5762">greenSpaceRepository</text><text fill="#000000" font-family="sans-serif" font-size="14" lengthAdjust="spacing" textLength="152" x="904.5" y="975.1973">:GreenSpaceRepository</text><rect fill="#E3E3E3" height="32.6211" rx="2.5" ry="2.5" style="stroke:#181818;stroke-width:0.5;" width="146" x="1073.5" y="108.2422"/><text fill="#000000" font-family="sans-serif" font-size="14" lengthAdjust="spacing" textLength="132" x="1080.5" y="130.3496">:GreenSpaceMapper</text><rect fill="#E3E3E3" height="32.6211" rx="2.5" ry="2.5" style="stroke:#181818;stroke-width:0.5;" width="146" x="1073.5" y="934.4688"/><text fill="#000000" font-family="sans-serif" font-size="14" lengthAdjust="spacing" textLength="132" x="1080.5" y="956.5762">:GreenSpaceMapper</text><rect fill="#E3E3E3" height="32.6211" rx="2.5" ry="2.5" style="stroke:#181818;stroke-width:0.5;" width="128" x="1248.5" y="108.2422"/><text fill="#000000" font-family="sans-serif" font-size="14" lengthAdjust="spacing" textLength="114" x="1255.5" y="130.3496">:GreenSpaceDTO</text><rect fill="#E3E3E3" height="32.6211" rx="2.5" ry="2.5" style="stroke:#181818;stroke-width:0.5;" width="128" x="1248.5" y="934.4688"/><text fill="#000000" font-family="sans-serif" font-size="14" lengthAdjust="spacing" textLength="114" x="1255.5" y="956.5762">:GreenSpaceDTO</text><rect fill="#E3E3E3" height="32.6211" rx="2.5" ry="2.5" style="stroke:#181818;stroke-width:0.5;" width="104" x="1386.5" y="108.2422"/><text fill="#000000" font-family="sans-serif" font-size="14" lengthAdjust="spacing" textLength="90" x="1393.5" y="130.3496">:ConfigLoader</text><rect fill="#E3E3E3" height="32.6211" rx="2.5" ry="2.5" style="stroke:#181818;stroke-width:0.5;" width="104" x="1386.5" y="934.4688"/><text fill="#000000" font-family="sans-serif" font-size="14" lengthAdjust="spacing" textLength="90" x="1393.5" y="956.5762">:ConfigLoader</text><rect fill="#E3E3E3" height="32.6211" rx="2.5" ry="2.5" style="stroke:#181818;stroke-width:0.5;" width="57" x="1500.5" y="108.2422"/><text fill="#000000" font-family="sans-serif" font-size="14" lengthAdjust="spacing" textLength="43" x="1507.5" y="130.3496">:Sorter</text><rect fill="#E3E3E3" height="32.6211" rx="2.5" ry="2.5" style="stroke:#181818;stroke-width:0.5;" width="57" x="1500.5" y="934.4688"/><text fill="#000000" font-family="sans-serif" font-size="14" lengthAdjust="spacing" textLength="43" x="1507.5" y="956.5762">:Sorter</text><rect fill="#E3E3E3" height="32.6211" rx="2.5" ry="2.5" style="stroke:#181818;stroke-width:0.5;" width="100" x="1567.5" y="108.2422"/><text fill="#000000" font-family="sans-serif" font-size="14" lengthAdjust="spacing" textLength="86" x="1574.5" y="130.3496">ConfigLoader</text><rect fill="#E3E3E3" height="32.6211" rx="2.5" ry="2.5" style="stroke:#181818;stroke-width:0.5;" width="100" x="1567.5" y="934.4688"/><text fill="#000000" font-family="sans-serif" font-size="14" lengthAdjust="spacing" textLength="86" x="1574.5" y="956.5762">ConfigLoader</text><rect fill="#FFFFFF" height="774.6055" style="stroke:#181818;stroke-width:1.0;" width="10" x="45" y="151.8633"/><rect fill="#FFFFFF" height="742.3145" style="stroke:#181818;stroke-width:1.0;" width="10" x="367" y="175.1543"/><rect fill="#FFFFFF" height="618.8203" style="stroke:#181818;stroke-width:1.0;" width="10" x="574" y="250.0664"/><rect fill="#FFFFFF" height="31.291" style="stroke:#181818;stroke-width:1.0;" width="10" x="727" y="281.3574"/><rect fill="#FFFFFF" height="31.291" style="stroke:#181818;stroke-width:1.0;" width="10" x="834" y="343.9395"/><rect fill="#FFFFFF" height="31.291" style="stroke:#181818;stroke-width:1.0;" width="10" x="975.5" y="406.5215"/><rect fill="#FFFFFF" height="243.3281" style="stroke:#181818;stroke-width:1.0;" width="10" x="1141.5" y="469.1035"/><rect fill="#FFFFFF" height="103.1641" style="stroke:#181818;stroke-width:1.0;" width="10" x="1307.5" y="526.6855"/><rect fill="#FFFFFF" height="31.291" style="stroke:#181818;stroke-width:1.0;" width="10" x="1524" y="806.3047"/><rect fill="#FFFFFF" height="31.291" style="stroke:#181818;stroke-width:1.0;" width="10" x="1612.5" y="743.7227"/><polygon fill="#181818" points="355,171.1543,365,175.1543,355,179.1543,359,175.1543" style="stroke:#181818;stroke-width:1.0;"/><line style="stroke:#181818;stroke-width:1.0;" x1="55" x2="361" y1="175.1543" y2="175.1543"/><text fill="#000000" font-family="sans-serif" font-size="13" font-weight="bold" lengthAdjust="spacing" textLength="7" x="62" y="169.8916">1</text><text fill="#000000" font-family="sans-serif" font-size="13" lengthAdjust="spacing" textLength="282" x="73" y="169.8916">asks to list all the green spaces managed by me</text><polygon fill="#181818" points="472.5,202.4453,482.5,206.4453,472.5,210.4453,476.5,206.4453" style="stroke:#181818;stroke-width:1.0;"/><line style="stroke:#181818;stroke-width:1.0;" x1="377" x2="478.5" y1="206.4453" y2="206.4453"/><text fill="#000000" font-family="sans-serif" font-size="13" font-weight="bold" lengthAdjust="spacing" textLength="7" x="384" y="201.1826">2</text><text fill="#000000" font-family="sans-serif" font-size="13" lengthAdjust="spacing" textLength="36" x="395" y="201.1826">create</text><rect fill="#E3E3E3" height="32.6211" rx="2.5" ry="2.5" style="stroke:#181818;stroke-width:0.5;" width="189" x="484.5" y="183.1543"/><text fill="#000000" font-family="sans-serif" font-size="14" lengthAdjust="spacing" textLength="175" x="491.5" y="205.2617">:ListGreenSpacesController</text><polygon fill="#181818" points="562,246.0664,572,250.0664,562,254.0664,566,250.0664" style="stroke:#181818;stroke-width:1.0;"/><line style="stroke:#181818;stroke-width:1.0;" x1="377" x2="568" y1="250.0664" y2="250.0664"/><text fill="#000000" font-family="sans-serif" font-size="13" font-weight="bold" lengthAdjust="spacing" textLength="7" x="384" y="244.8037">3</text><text fill="#000000" font-family="sans-serif" font-size="13" lengthAdjust="spacing" textLength="105" x="395" y="244.8037">getGreenSpaces()</text><polygon fill="#181818" points="715,277.3574,725,281.3574,715,285.3574,719,281.3574" style="stroke:#181818;stroke-width:1.0;"/><line style="stroke:#181818;stroke-width:1.0;" x1="584" x2="721" y1="281.3574" y2="281.3574"/><text fill="#000000" font-family="sans-serif" font-size="13" font-weight="bold" lengthAdjust="spacing" textLength="7" x="591" y="276.0947">4</text><text fill="#000000" font-family="sans-serif" font-size="13" lengthAdjust="spacing" textLength="75" x="602" y="276.0947">getInstance()</text><polygon fill="#181818" points="595,308.6484,585,312.6484,595,316.6484,591,312.6484" style="stroke:#181818;stroke-width:1.0;"/><line style="stroke:#181818;stroke-width:1.0;stroke-dasharray:2.0,2.0;" x1="589" x2="731" y1="312.6484" y2="312.6484"/><text fill="#000000" font-family="sans-serif" font-size="13" font-weight="bold" lengthAdjust="spacing" textLength="7" x="601" y="307.3857">5</text><text fill="#000000" font-family="sans-serif" font-size="13" lengthAdjust="spacing" textLength="67" x="612" y="307.3857">repositories</text><polygon fill="#181818" points="822,339.9395,832,343.9395,822,347.9395,826,343.9395" style="stroke:#181818;stroke-width:1.0;"/><line style="stroke:#181818;stroke-width:1.0;" x1="584" x2="828" y1="343.9395" y2="343.9395"/><text fill="#000000" font-family="sans-serif" font-size="13" font-weight="bold" lengthAdjust="spacing" textLength="7" x="591" y="338.6768">6</text><text fill="#000000" font-family="sans-serif" font-size="13" lengthAdjust="spacing" textLength="160" x="602" y="338.6768">getGreenSpaceRepository()</text><polygon fill="#181818" points="595,371.2305,585,375.2305,595,379.2305,591,375.2305" style="stroke:#181818;stroke-width:1.0;"/><line style="stroke:#181818;stroke-width:1.0;stroke-dasharray:2.0,2.0;" x1="589" x2="838" y1="375.2305" y2="375.2305"/><text fill="#000000" font-family="sans-serif" font-size="13" font-weight="bold" lengthAdjust="spacing" textLength="7" x="601" y="369.9678">7</text><text fill="#000000" font-family="sans-serif" font-size="13" lengthAdjust="spacing" textLength="131" x="612" y="369.9678">greenSpaceRepository</text><polygon fill="#181818" points="963.5,402.5215,973.5,406.5215,963.5,410.5215,967.5,406.5215" style="stroke:#181818;stroke-width:1.0;"/><line style="stroke:#181818;stroke-width:1.0;" x1="584" x2="969.5" y1="406.5215" y2="406.5215"/><text fill="#000000" font-family="sans-serif" font-size="13" font-weight="bold" lengthAdjust="spacing" textLength="7" x="591" y="401.2588">8</text><text fill="#000000" font-family="sans-serif" font-size="13" lengthAdjust="spacing" textLength="119" x="602" y="401.2588">getGreenSpaceList()</text><polygon fill="#181818" points="595,433.8125,585,437.8125,595,441.8125,591,437.8125" style="stroke:#181818;stroke-width:1.0;"/><line style="stroke:#181818;stroke-width:1.0;stroke-dasharray:2.0,2.0;" x1="589" x2="979.5" y1="437.8125" y2="437.8125"/><text fill="#000000" font-family="sans-serif" font-size="13" font-weight="bold" lengthAdjust="spacing" textLength="7" x="601" y="432.5498">9</text><text fill="#000000" font-family="sans-serif" font-size="13" lengthAdjust="spacing" textLength="90" x="612" y="432.5498">greenSpaceList</text><polygon fill="#181818" points="1129.5,465.1035,1139.5,469.1035,1129.5,473.1035,1133.5,469.1035" style="stroke:#181818;stroke-width:1.0;"/><line style="stroke:#181818;stroke-width:1.0;" x1="584" x2="1135.5" y1="469.1035" y2="469.1035"/><text fill="#000000" font-family="sans-serif" font-size="13" font-weight="bold" lengthAdjust="spacing" textLength="14" x="591" y="463.8408">10</text><text fill="#000000" font-family="sans-serif" font-size="13" lengthAdjust="spacing" textLength="163" x="609" y="463.8408">getDTOList(greenSpaceList)</text><path d="M1063.5,484.1035 L1136.5,484.1035 L1136.5,493.3945 L1126.5,503.3945 L1063.5,503.3945 L1063.5,484.1035 " fill="#EEEEEE" style="stroke:#000000;stroke-width:1.5;"/><rect fill="none" height="198.0371" style="stroke:#000000;stroke-width:1.5;" width="610.5" x="1063.5" y="484.1035"/><text fill="#000000" font-family="sans-serif" font-size="13" font-weight="bold" lengthAdjust="spacing" textLength="28" x="1078.5" y="499.1318">loop</text><text fill="#000000" font-family="sans-serif" font-size="11" font-weight="bold" lengthAdjust="spacing" textLength="230" x="1151.5" y="497.9736">[for every greenSpace in greenSpaceList]</text><polygon fill="#181818" points="1295.5,522.6855,1305.5,526.6855,1295.5,530.6855,1299.5,526.6855" style="stroke:#181818;stroke-width:1.0;"/><line style="stroke:#181818;stroke-width:1.0;" x1="1151.5" x2="1301.5" y1="526.6855" y2="526.6855"/><text fill="#000000" font-family="sans-serif" font-size="13" font-weight="bold" lengthAdjust="spacing" textLength="14" x="1158.5" y="521.4229">11</text><text fill="#000000" font-family="sans-serif" font-size="13" lengthAdjust="spacing" textLength="114" x="1176.5" y="521.4229">toDTO(greenSpace)</text><path d="M1322,539.6855 L1322,600.6855 L1664,600.6855 L1664,549.6855 L1654,539.6855 L1322,539.6855 " fill="#FAFAFA" style="stroke:#181818;stroke-width:0.5;"/><path d="M1654,539.6855 L1654,549.6855 L1664,549.6855 L1654,539.6855 " fill="#FAFAFA" style="stroke:#181818;stroke-width:0.5;"/><text fill="#000000" font-family="sans-serif" font-size="13" lengthAdjust="spacing" textLength="321" x="1328" y="558.7139">greenSpaceDTO contains the name of the green space,</text><text fill="#000000" font-family="sans-serif" font-size="13" lengthAdjust="spacing" textLength="251" x="1328" y="576.0049">it's size, the city where it is located and the</text><text fill="#000000" font-family="sans-serif" font-size="13" lengthAdjust="spacing" textLength="143" x="1328" y="593.2959">type of green space it is.</text><polygon fill="#181818" points="1162.5,625.8496,1152.5,629.8496,1162.5,633.8496,1158.5,629.8496" style="stroke:#181818;stroke-width:1.0;"/><line style="stroke:#181818;stroke-width:1.0;stroke-dasharray:2.0,2.0;" x1="1156.5" x2="1311.5" y1="629.8496" y2="629.8496"/><text fill="#000000" font-family="sans-serif" font-size="13" font-weight="bold" lengthAdjust="spacing" textLength="14" x="1168.5" y="624.5869">12</text><text fill="#000000" font-family="sans-serif" font-size="13" lengthAdjust="spacing" textLength="95" x="1186.5" y="624.5869">greenSpaceDTO</text><line style="stroke:#181818;stroke-width:1.0;stroke-dasharray:2.0,2.0;" x1="1151.5" x2="1193.5" y1="661.1406" y2="661.1406"/><line style="stroke:#181818;stroke-width:1.0;stroke-dasharray:2.0,2.0;" x1="1193.5" x2="1193.5" y1="661.1406" y2="674.1406"/><line style="stroke:#181818;stroke-width:1.0;stroke-dasharray:2.0,2.0;" x1="1152.5" x2="1193.5" y1="674.1406" y2="674.1406"/><polygon fill="#181818" points="1162.5,670.1406,1152.5,674.1406,1162.5,678.1406,1158.5,674.1406" style="stroke:#181818;stroke-width:1.0;"/><text fill="#000000" font-family="sans-serif" font-size="13" font-weight="bold" lengthAdjust="spacing" textLength="14" x="1158.5" y="655.8779">13</text><text fill="#000000" font-family="sans-serif" font-size="13" lengthAdjust="spacing" textLength="124" x="1176.5" y="655.8779">add(greenSpaceDTO)</text><polygon fill="#181818" points="595,708.4316,585,712.4316,595,716.4316,591,712.4316" style="stroke:#181818;stroke-width:1.0;"/><line style="stroke:#181818;stroke-width:1.0;stroke-dasharray:2.0,2.0;" x1="589" x2="1145.5" y1="712.4316" y2="712.4316"/><text fill="#000000" font-family="sans-serif" font-size="13" font-weight="bold" lengthAdjust="spacing" textLength="14" x="601" y="707.1689">14</text><text fill="#000000" font-family="sans-serif" font-size="13" lengthAdjust="spacing" textLength="116" x="619" y="707.1689">greenSpaceDTOList</text><polygon fill="#181818" points="1600.5,739.7227,1610.5,743.7227,1600.5,747.7227,1604.5,743.7227" style="stroke:#181818;stroke-width:1.0;"/><line style="stroke:#181818;stroke-width:1.0;" x1="584" x2="1606.5" y1="743.7227" y2="743.7227"/><text fill="#000000" font-family="sans-serif" font-size="13" font-weight="bold" lengthAdjust="spacing" textLength="14" x="591" y="738.46">15</text><text fill="#000000" font-family="sans-serif" font-size="13" lengthAdjust="spacing" textLength="122" x="609" y="738.46">getSortingAlgorithm()</text><polygon fill="#181818" points="595,771.0137,585,775.0137,595,779.0137,591,775.0137" style="stroke:#181818;stroke-width:1.0;"/><line style="stroke:#181818;stroke-width:1.0;stroke-dasharray:2.0,2.0;" x1="589" x2="1616.5" y1="775.0137" y2="775.0137"/><text fill="#000000" font-family="sans-serif" font-size="13" font-weight="bold" lengthAdjust="spacing" textLength="14" x="601" y="769.751">16</text><text fill="#000000" font-family="sans-serif" font-size="13" lengthAdjust="spacing" textLength="94" x="619" y="769.751">sortingAlgorithm</text><polygon fill="#181818" points="1512,802.3047,1522,806.3047,1512,810.3047,1516,806.3047" style="stroke:#181818;stroke-width:1.0;"/><line style="stroke:#181818;stroke-width:1.0;" x1="584" x2="1518" y1="806.3047" y2="806.3047"/><text fill="#000000" font-family="sans-serif" font-size="13" font-weight="bold" lengthAdjust="spacing" textLength="14" x="591" y="801.042">17</text><text fill="#000000" font-family="sans-serif" font-size="13" lengthAdjust="spacing" textLength="336" x="609" y="801.042">sort(greenSpaceDTOList, sortingAlgorithm, columnToSort)</text><polygon fill="#181818" points="595,833.5957,585,837.5957,595,841.5957,591,837.5957" style="stroke:#181818;stroke-width:1.0;"/><line style="stroke:#181818;stroke-width:1.0;stroke-dasharray:2.0,2.0;" x1="589" x2="1528" y1="837.5957" y2="837.5957"/><text fill="#000000" font-family="sans-serif" font-size="13" font-weight="bold" lengthAdjust="spacing" textLength="14" x="601" y="832.333">18</text><text fill="#000000" font-family="sans-serif" font-size="13" lengthAdjust="spacing" textLength="155" x="619" y="832.333">sortedGreenSpaceDTOList</text><polygon fill="#181818" points="388,864.8867,378,868.8867,388,872.8867,384,868.8867" style="stroke:#181818;stroke-width:1.0;"/><line style="stroke:#181818;stroke-width:1.0;stroke-dasharray:2.0,2.0;" x1="382" x2="578" y1="868.8867" y2="868.8867"/><text fill="#000000" font-family="sans-serif" font-size="13" font-weight="bold" lengthAdjust="spacing" textLength="14" x="394" y="863.624">19</text><text fill="#000000" font-family="sans-serif" font-size="13" lengthAdjust="spacing" textLength="155" x="412" y="863.624">sortedGreenSpaceDTOList</text><polygon fill="#181818" points="66,913.4688,56,917.4688,66,921.4688,62,917.4688" style="stroke:#181818;stroke-width:1.0;"/><line style="stroke:#181818;stroke-width:1.0;stroke-dasharray:2.0,2.0;" x1="60" x2="371" y1="917.4688" y2="917.4688"/><text fill="#000000" font-family="sans-serif" font-size="13" font-weight="bold" lengthAdjust="spacing" textLength="14" x="72" y="903.5605">20</text><text fill="#000000" font-family="sans-serif" font-size="13" lengthAdjust="spacing" textLength="169" x="90" y="894.915">displays all the green spaces</text><text fill="#000000" font-family="sans-serif" font-size="13" lengthAdjust="spacing" textLength="127" x="90" y="912.2061">managed by the GSM</text><!--SRC=[ZLLDRzmW4BtxLunowQRQhQfUAkLGgSfMgqY9KiN9BHTYptfHR721JUJ- -Wxu2zlWb9CDRnvllXZzoaND5AkWaa9c9oKh1AFEcEZXf6RPAoimDKs9e30pJ1Ib3z0dbijtBWeuib9ZaXXk2FgKVlts7NQGufypYWnXprbXyPjqVvaax6oaE5SlgEWxCrB1nK4X2aZfGdmMTqpGhUe2c8P3UfVGNOPdl6R2mCNLBTV6mHrQFzqutDFDEknQ2gDaMNQqruyFjpE31wobvgI6etQOXr-_xwSOvK6UHTZYHcWAKuPJos9GCXWrn708R7TksusPmX5zn-fw393xYMBtZ_STS6_cZ1IL8ozk9SlxkBYD6IgLodJdxMVYyiRVc46Ne0HeqGViVb0Yu8gGhngCX9AI0AmimPmGN0n0ktH0vNASmqi35JhxWP5IwJRi8ZRYjDdw_9buCuM429pIMO5-lZUN0seWTaaVjkrofaHX4zTIzEdpx2SShYWcHtOv-zsenI-K2JZ75IPVJQzZxjXO9siAXo8CAXsuFSMX0brJ7hwXzw0jtxbssv8nrLt1B_HsJ46bbY-cCSGtgcjRfjL7_U64JNcZChjkMmWjfQpXI6yPlg5gF9N0nPhcqT5Eb1D8hKhgZ2Hndh3BeAKdpdOuH9QG156yE1cGnm-mTXN-2m8PlP-C2-qwMJ2Q5KGow-hjAXytdpHe_XUtpYxZfe7t4oeAa06kAO0PEP434xa5h7APfdO2lCjRbYzHCoHQ6u8ee0twRbOVVX22ffEQYyLqJEwKdkNvPdB5CiDMjwsjK6juf8lcwCewtX-XGkuxn9yBRPVOXv_c_C-oe4VDdAfO7_kMIyaJNa-sdh77LCVPU-NjWEeeDujmR1TNRQcqotCb7gKrZNZLZxsvFzrjCqymF_nl6aB4hIlzAFs8q8_EPBxPuTXM6x7aNDSbQtHm63yBRnhRGplJPzmqbFy1]--></g></svg>