<?xml version="1.0" encoding="us-ascii" standalone="no"?><svg xmlns="http://www.w3.org/2000/svg" xmlns:xlink="http://www.w3.org/1999/xlink" contentStyleType="text/css" height="1282.4px" preserveAspectRatio="none" style="width:2050px;height:1282px;background:#FFFFFF;" version="1.1" viewBox="0 0 2050 1282" width="2050.4px" zoomAndPan="magnify"><defs/><g><text fill="#000000" font-family="sans-serif" font-size="11.2" font-weight="bold" lengthAdjust="spacing" textLength="150.4" x="949.4" y="24.0859">US027 - Sequence Diagram</text><rect fill="#FFFFFF" height="1072.925" style="stroke:#181818;stroke-width:0.8000000000000002;" width="8" x="36" y="121.4906"/><rect fill="#FFFFFF" height="1047.0922" style="stroke:#181818;stroke-width:0.8000000000000002;" width="8" x="317.6" y="140.1234"/><rect fill="#FFFFFF" height="997.0266" style="stroke:#181818;stroke-width:0.8000000000000002;" width="8" x="456.8" y="165.1563"/><rect fill="#FFFFFF" height="96.4031" style="stroke:#181818;stroke-width:0.8000000000000002;" width="8" x="667.2" y="1040.7469"/><rect fill="#FFFFFF" height="25.0328" style="stroke:#181818;stroke-width:0.8000000000000002;" width="8" x="788.4" y="190.1891"/><rect fill="#FFFFFF" height="25.0328" style="stroke:#181818;stroke-width:0.8000000000000002;" width="8" x="906" y="240.2547"/><rect fill="#FFFFFF" height="25.0328" style="stroke:#181818;stroke-width:0.8000000000000002;" width="8" x="1007.6" y="290.3203"/><rect fill="#FFFFFF" height="25.0328" style="stroke:#181818;stroke-width:0.8000000000000002;" width="8" x="1076.4" y="340.3859"/><rect fill="#FFFFFF" height="25.0328" style="stroke:#181818;stroke-width:0.8000000000000002;" width="8" x="1145.2" y="445.8844"/><rect fill="#FFFFFF" height="25.0328" style="stroke:#181818;stroke-width:0.8000000000000002;" width="8" x="1230.8" y="495.95"/><rect fill="#FFFFFF" height="25.0328" style="stroke:#181818;stroke-width:0.8000000000000002;" width="8" x="1344" y="546.0156"/><rect fill="#FFFFFF" height="315.9672" style="stroke:#181818;stroke-width:0.8000000000000002;" width="8" x="1475.6" y="616.0813"/><rect fill="#FFFFFF" height="95.0984" style="stroke:#181818;stroke-width:0.8000000000000002;" width="8" x="1699.6" y="641.1141"/><rect fill="#FFFFFF" height="45.0328" style="stroke:#181818;stroke-width:0.8000000000000002;" width="8" x="2000.4" y="666.1469"/><rect fill="none" height="139.6031" style="stroke:#000000;stroke-width:1.2000000000000002;" width="297.6" x="1414.4" y="768.2125"/><line style="stroke:#181818;stroke-width:0.4000000000000001;stroke-dasharray:5.0,5.0;" x1="40" x2="40" y1="113.4906" y2="1201.6156"/><line style="stroke:#181818;stroke-width:0.4000000000000001;stroke-dasharray:5.0,5.0;" x1="321.2" x2="321.2" y1="113.4906" y2="1201.6156"/><line style="stroke:#181818;stroke-width:0.4000000000000001;stroke-dasharray:5.0,5.0;" x1="460.4" x2="460.4" y1="113.4906" y2="1201.6156"/><line style="stroke:#181818;stroke-width:0.4000000000000001;stroke-dasharray:5.0,5.0;" x1="671.2" x2="671.2" y1="113.4906" y2="1201.6156"/><line style="stroke:#181818;stroke-width:0.4000000000000001;stroke-dasharray:5.0,5.0;" x1="792" x2="792" y1="113.4906" y2="1201.6156"/><line style="stroke:#181818;stroke-width:0.4000000000000001;stroke-dasharray:5.0,5.0;" x1="909.6" x2="909.6" y1="113.4906" y2="1201.6156"/><line style="stroke:#181818;stroke-width:0.4000000000000001;stroke-dasharray:5.0,5.0;" x1="1011.2" x2="1011.2" y1="113.4906" y2="1201.6156"/><line style="stroke:#181818;stroke-width:0.4000000000000001;stroke-dasharray:5.0,5.0;" x1="1080" x2="1080" y1="113.4906" y2="1201.6156"/><line style="stroke:#181818;stroke-width:0.4000000000000001;stroke-dasharray:5.0,5.0;" x1="1148.8" x2="1148.8" y1="113.4906" y2="1201.6156"/><line style="stroke:#181818;stroke-width:0.4000000000000001;stroke-dasharray:5.0,5.0;" x1="1234.4" x2="1234.4" y1="113.4906" y2="1201.6156"/><line style="stroke:#181818;stroke-width:0.4000000000000001;stroke-dasharray:5.0,5.0;" x1="1348" x2="1348" y1="113.4906" y2="1201.6156"/><line style="stroke:#181818;stroke-width:0.4000000000000001;stroke-dasharray:5.0,5.0;" x1="1479.2" x2="1479.2" y1="113.4906" y2="1201.6156"/><line style="stroke:#181818;stroke-width:0.4000000000000001;stroke-dasharray:5.0,5.0;" x1="1703.2" x2="1703.2" y1="113.4906" y2="1201.6156"/><line style="stroke:#181818;stroke-width:0.4000000000000001;stroke-dasharray:5.0,5.0;" x1="2004.4" x2="2004.4" y1="113.4906" y2="1201.6156"/><text fill="#000000" font-family="sans-serif" font-size="11.2" lengthAdjust="spacing" textLength="67.2" x="4" y="95.7828">Green Space</text><text fill="#000000" font-family="sans-serif" font-size="11.2" lengthAdjust="spacing" textLength="44.8" x="15.2" y="110.6797">Manager</text><ellipse cx="40" cy="42.4969" fill="#E3E3E3" rx="6.4" ry="6.4" style="stroke:#181818;stroke-width:0.4000000000000001;"/><path d="M40,48.8969 L40,70.4969 M29.6,55.2969 L50.4,55.2969 M40,70.4969 L29.6,82.4969 M40,70.4969 L50.4,82.4969 " fill="none" style="stroke:#181818;stroke-width:0.4000000000000001;"/><text fill="#000000" font-family="sans-serif" font-size="11.2" lengthAdjust="spacing" textLength="67.2" x="4" y="1212.9016">Green Space</text><text fill="#000000" font-family="sans-serif" font-size="11.2" lengthAdjust="spacing" textLength="44.8" x="15.2" y="1227.7984">Manager</text><ellipse cx="40" cy="1237.4094" fill="#E3E3E3" rx="6.4" ry="6.4" style="stroke:#181818;stroke-width:0.4000000000000001;"/><path d="M40,1243.8094 L40,1265.4094 M29.6,1250.2094 L50.4,1250.2094 M40,1265.4094 L29.6,1277.4094 M40,1265.4094 L50.4,1277.4094 " fill="none" style="stroke:#181818;stroke-width:0.4000000000000001;"/><rect fill="#E3E3E3" height="26.0969" rx="2" ry="2" style="stroke:#181818;stroke-width:0.4000000000000001;" width="111.2" x="266" y="86.5938"/><text fill="#000000" font-family="sans-serif" font-size="11.2" lengthAdjust="spacing" textLength="100" x="271.6" y="104.2797">:ListGreenSpacesUI</text><rect fill="#E3E3E3" height="26.0969" rx="2" ry="2" style="stroke:#181818;stroke-width:0.4000000000000001;" width="111.2" x="266" y="1200.8156"/><text fill="#000000" font-family="sans-serif" font-size="11.2" lengthAdjust="spacing" textLength="100" x="271.6" y="1218.5016">:ListGreenSpacesUI</text><rect fill="#E3E3E3" height="26.0969" rx="2" ry="2" style="stroke:#181818;stroke-width:0.4000000000000001;" width="151.2" x="385.2" y="86.5938"/><text fill="#000000" font-family="sans-serif" font-size="11.2" lengthAdjust="spacing" textLength="140" x="390.8" y="104.2797">:ListGreenSpacesController</text><rect fill="#E3E3E3" height="26.0969" rx="2" ry="2" style="stroke:#181818;stroke-width:0.4000000000000001;" width="151.2" x="385.2" y="1200.8156"/><text fill="#000000" font-family="sans-serif" font-size="11.2" lengthAdjust="spacing" textLength="140" x="390.8" y="1218.5016">:ListGreenSpacesController</text><rect fill="#E3E3E3" height="26.0969" rx="2" ry="2" style="stroke:#181818;stroke-width:0.4000000000000001;" width="116.8" x="612.8" y="86.5938"/><text fill="#000000" font-family="sans-serif" font-size="11.2" lengthAdjust="spacing" textLength="105.6" x="618.4" y="104.2797">:GreenSpaceMapper</text><rect fill="#E3E3E3" height="26.0969" rx="2" ry="2" style="stroke:#181818;stroke-width:0.4000000000000001;" width="116.8" x="612.8" y="1200.8156"/><text fill="#000000" font-family="sans-serif" font-size="11.2" lengthAdjust="spacing" textLength="105.6" x="618.4" y="1218.5016">:GreenSpaceMapper</text><rect fill="#E3E3E3" height="26.0969" rx="2" ry="2" style="stroke:#181818;stroke-width:0.4000000000000001;" width="109.6" x="737.6" y="86.5938"/><text fill="#000000" font-family="sans-serif" font-size="11.2" lengthAdjust="spacing" textLength="98.4" x="743.2" y="104.2797">:ApplicationSession</text><rect fill="#E3E3E3" height="26.0969" rx="2" ry="2" style="stroke:#181818;stroke-width:0.4000000000000001;" width="109.6" x="737.6" y="1200.8156"/><text fill="#000000" font-family="sans-serif" font-size="11.2" lengthAdjust="spacing" textLength="98.4" x="743.2" y="1218.5016">:ApplicationSession</text><rect fill="#E3E3E3" height="40.9938" rx="2" ry="2" style="stroke:#181818;stroke-width:0.4000000000000001;" width="109.6" x="855.2" y="71.6969"/><text fill="#000000" font-family="sans-serif" font-size="11.2" lengthAdjust="spacing" textLength="45.6" x="887.2" y="89.3828">singleton</text><text fill="#000000" font-family="sans-serif" font-size="11.2" lengthAdjust="spacing" textLength="98.4" x="860.8" y="104.2797">:ApplicationSession</text><rect fill="#E3E3E3" height="40.9938" rx="2" ry="2" style="stroke:#181818;stroke-width:0.4000000000000001;" width="109.6" x="855.2" y="1200.8156"/><text fill="#000000" font-family="sans-serif" font-size="11.2" lengthAdjust="spacing" textLength="45.6" x="887.2" y="1218.5016">singleton</text><text fill="#000000" font-family="sans-serif" font-size="11.2" lengthAdjust="spacing" textLength="98.4" x="860.8" y="1233.3984">:ApplicationSession</text><rect fill="#E3E3E3" height="40.9938" rx="2" ry="2" style="stroke:#181818;stroke-width:0.4000000000000001;" width="77.6" x="972.8" y="71.6969"/><text fill="#000000" font-family="sans-serif" font-size="11.2" lengthAdjust="spacing" textLength="62.4" x="980.4" y="89.3828">userSession</text><text fill="#000000" font-family="sans-serif" font-size="11.2" lengthAdjust="spacing" textLength="66.4" x="978.4" y="104.2797">:UserSession</text><rect fill="#E3E3E3" height="40.9938" rx="2" ry="2" style="stroke:#181818;stroke-width:0.4000000000000001;" width="77.6" x="972.8" y="1200.8156"/><text fill="#000000" font-family="sans-serif" font-size="11.2" lengthAdjust="spacing" textLength="62.4" x="980.4" y="1218.5016">userSession</text><text fill="#000000" font-family="sans-serif" font-size="11.2" lengthAdjust="spacing" textLength="66.4" x="978.4" y="1233.3984">:UserSession</text><rect fill="#E3E3E3" height="40.9938" rx="2" ry="2" style="stroke:#181818;stroke-width:0.4000000000000001;" width="44" x="1058.4" y="71.6969"/><text fill="#000000" font-family="sans-serif" font-size="11.2" lengthAdjust="spacing" textLength="32.8" x="1064" y="89.3828">userID</text><text fill="#000000" font-family="sans-serif" font-size="11.2" lengthAdjust="spacing" textLength="30.4" x="1065.2" y="104.2797">:Email</text><rect fill="#E3E3E3" height="40.9938" rx="2" ry="2" style="stroke:#181818;stroke-width:0.4000000000000001;" width="44" x="1058.4" y="1200.8156"/><text fill="#000000" font-family="sans-serif" font-size="11.2" lengthAdjust="spacing" textLength="32.8" x="1064" y="1218.5016">userID</text><text fill="#000000" font-family="sans-serif" font-size="11.2" lengthAdjust="spacing" textLength="30.4" x="1065.2" y="1233.3984">:Email</text><rect fill="#E3E3E3" height="26.0969" rx="2" ry="2" style="stroke:#181818;stroke-width:0.4000000000000001;" width="77.6" x="1110.4" y="86.5938"/><text fill="#000000" font-family="sans-serif" font-size="11.2" lengthAdjust="spacing" textLength="66.4" x="1116" y="104.2797">:Repositories</text><rect fill="#E3E3E3" height="26.0969" rx="2" ry="2" style="stroke:#181818;stroke-width:0.4000000000000001;" width="77.6" x="1110.4" y="1200.8156"/><text fill="#000000" font-family="sans-serif" font-size="11.2" lengthAdjust="spacing" textLength="66.4" x="1116" y="1218.5016">:Repositories</text><rect fill="#E3E3E3" height="40.9938" rx="2" ry="2" style="stroke:#181818;stroke-width:0.4000000000000001;" width="77.6" x="1196" y="71.6969"/><text fill="#000000" font-family="sans-serif" font-size="11.2" lengthAdjust="spacing" textLength="59.2" x="1205.2" y="89.3828">repositories</text><text fill="#000000" font-family="sans-serif" font-size="11.2" lengthAdjust="spacing" textLength="66.4" x="1201.6" y="104.2797">:Repositories</text><rect fill="#E3E3E3" height="40.9938" rx="2" ry="2" style="stroke:#181818;stroke-width:0.4000000000000001;" width="77.6" x="1196" y="1200.8156"/><text fill="#000000" font-family="sans-serif" font-size="11.2" lengthAdjust="spacing" textLength="59.2" x="1205.2" y="1218.5016">repositories</text><text fill="#000000" font-family="sans-serif" font-size="11.2" lengthAdjust="spacing" textLength="66.4" x="1201.6" y="1233.3984">:Repositories</text><rect fill="#E3E3E3" height="40.9938" rx="2" ry="2" style="stroke:#181818;stroke-width:0.4000000000000001;" width="132.8" x="1281.6" y="71.6969"/><text fill="#000000" font-family="sans-serif" font-size="11.2" lengthAdjust="spacing" textLength="116" x="1290" y="89.3828">greenSpaceRepository</text><text fill="#000000" font-family="sans-serif" font-size="11.2" lengthAdjust="spacing" textLength="121.6" x="1287.2" y="104.2797">:GreenSpaceRepository</text><rect fill="#E3E3E3" height="40.9938" rx="2" ry="2" style="stroke:#181818;stroke-width:0.4000000000000001;" width="132.8" x="1281.6" y="1200.8156"/><text fill="#000000" font-family="sans-serif" font-size="11.2" lengthAdjust="spacing" textLength="116" x="1290" y="1218.5016">greenSpaceRepository</text><text fill="#000000" font-family="sans-serif" font-size="11.2" lengthAdjust="spacing" textLength="121.6" x="1287.2" y="1233.3984">:GreenSpaceRepository</text><rect fill="#E3E3E3" height="26.0969" rx="2" ry="2" style="stroke:#181818;stroke-width:0.4000000000000001;" width="114.4" x="1422.4" y="86.5938"/><text fill="#000000" font-family="sans-serif" font-size="11.2" lengthAdjust="spacing" textLength="103.2" x="1428" y="104.2797">:GreenSpaceSorting</text><rect fill="#E3E3E3" height="26.0969" rx="2" ry="2" style="stroke:#181818;stroke-width:0.4000000000000001;" width="114.4" x="1422.4" y="1200.8156"/><text fill="#000000" font-family="sans-serif" font-size="11.2" lengthAdjust="spacing" textLength="103.2" x="1428" y="1218.5016">:GreenSpaceSorting</text><rect fill="#E3E3E3" height="26.0969" rx="2" ry="2" style="stroke:#181818;stroke-width:0.4000000000000001;" width="109.6" x="1648.8" y="86.5938"/><text fill="#000000" font-family="sans-serif" font-size="11.2" lengthAdjust="spacing" textLength="98.4" x="1654.4" y="104.2797">:ApplicationSession</text><rect fill="#E3E3E3" height="26.0969" rx="2" ry="2" style="stroke:#181818;stroke-width:0.4000000000000001;" width="109.6" x="1648.8" y="1200.8156"/><text fill="#000000" font-family="sans-serif" font-size="11.2" lengthAdjust="spacing" textLength="98.4" x="1654.4" y="1218.5016">:ApplicationSession</text><rect fill="#E3E3E3" height="26.0969" rx="2" ry="2" style="stroke:#181818;stroke-width:0.4000000000000001;" width="83.2" x="1962.8" y="86.5938"/><text fill="#000000" font-family="sans-serif" font-size="11.2" lengthAdjust="spacing" textLength="72" x="1968.4" y="104.2797">:ConfigLoader</text><rect fill="#E3E3E3" height="26.0969" rx="2" ry="2" style="stroke:#181818;stroke-width:0.4000000000000001;" width="83.2" x="1962.8" y="1200.8156"/><text fill="#000000" font-family="sans-serif" font-size="11.2" lengthAdjust="spacing" textLength="72" x="1968.4" y="1218.5016">:ConfigLoader</text><rect fill="#FFFFFF" height="1072.925" style="stroke:#181818;stroke-width:0.8000000000000002;" width="8" x="36" y="121.4906"/><rect fill="#FFFFFF" height="1047.0922" style="stroke:#181818;stroke-width:0.8000000000000002;" width="8" x="317.6" y="140.1234"/><rect fill="#FFFFFF" height="997.0266" style="stroke:#181818;stroke-width:0.8000000000000002;" width="8" x="456.8" y="165.1563"/><rect fill="#FFFFFF" height="96.4031" style="stroke:#181818;stroke-width:0.8000000000000002;" width="8" x="667.2" y="1040.7469"/><rect fill="#FFFFFF" height="25.0328" style="stroke:#181818;stroke-width:0.8000000000000002;" width="8" x="788.4" y="190.1891"/><rect fill="#FFFFFF" height="25.0328" style="stroke:#181818;stroke-width:0.8000000000000002;" width="8" x="906" y="240.2547"/><rect fill="#FFFFFF" height="25.0328" style="stroke:#181818;stroke-width:0.8000000000000002;" width="8" x="1007.6" y="290.3203"/><rect fill="#FFFFFF" height="25.0328" style="stroke:#181818;stroke-width:0.8000000000000002;" width="8" x="1076.4" y="340.3859"/><rect fill="#FFFFFF" height="25.0328" style="stroke:#181818;stroke-width:0.8000000000000002;" width="8" x="1145.2" y="445.8844"/><rect fill="#FFFFFF" height="25.0328" style="stroke:#181818;stroke-width:0.8000000000000002;" width="8" x="1230.8" y="495.95"/><rect fill="#FFFFFF" height="25.0328" style="stroke:#181818;stroke-width:0.8000000000000002;" width="8" x="1344" y="546.0156"/><rect fill="#FFFFFF" height="315.9672" style="stroke:#181818;stroke-width:0.8000000000000002;" width="8" x="1475.6" y="616.0813"/><rect fill="#FFFFFF" height="95.0984" style="stroke:#181818;stroke-width:0.8000000000000002;" width="8" x="1699.6" y="641.1141"/><rect fill="#FFFFFF" height="45.0328" style="stroke:#181818;stroke-width:0.8000000000000002;" width="8" x="2000.4" y="666.1469"/><polygon fill="#181818" points="308,136.9234,316,140.1234,308,143.3234,311.2,140.1234" style="stroke:#181818;stroke-width:0.8000000000000002;"/><line style="stroke:#181818;stroke-width:0.8000000000000002;" x1="44" x2="312.8" y1="140.1234" y2="140.1234"/><text fill="#000000" font-family="sans-serif" font-size="10.4" font-weight="bold" lengthAdjust="spacing" textLength="5.6" x="49.6" y="135.9133">1</text><text fill="#000000" font-family="sans-serif" font-size="10.4" lengthAdjust="spacing" textLength="225.6" x="58.4" y="135.9133">asks to list all the green spaces managed by me</text><polygon fill="#181818" points="447.2,161.9563,455.2,165.1563,447.2,168.3563,450.4,165.1563" style="stroke:#181818;stroke-width:0.8000000000000002;"/><line style="stroke:#181818;stroke-width:0.8000000000000002;" x1="325.6" x2="452" y1="165.1563" y2="165.1563"/><text fill="#000000" font-family="sans-serif" font-size="10.4" font-weight="bold" lengthAdjust="spacing" textLength="5.6" x="331.2" y="160.9461">2</text><text fill="#000000" font-family="sans-serif" font-size="10.4" lengthAdjust="spacing" textLength="84" x="340" y="160.9461">getGreenSpaces()</text><polygon fill="#181818" points="778.8,186.9891,786.8,190.1891,778.8,193.3891,782,190.1891" style="stroke:#181818;stroke-width:0.8000000000000002;"/><line style="stroke:#181818;stroke-width:0.8000000000000002;" x1="464.8" x2="783.6" y1="190.1891" y2="190.1891"/><text fill="#000000" font-family="sans-serif" font-size="10.4" font-weight="bold" lengthAdjust="spacing" textLength="5.6" x="470.4" y="185.9789">3</text><text fill="#000000" font-family="sans-serif" font-size="10.4" lengthAdjust="spacing" textLength="60" x="479.2" y="185.9789">getInstance()</text><polygon fill="#181818" points="473.6,212.0219,465.6,215.2219,473.6,218.4219,470.4,215.2219" style="stroke:#181818;stroke-width:0.8000000000000002;"/><line style="stroke:#181818;stroke-width:0.8000000000000002;stroke-dasharray:2.0,2.0;" x1="468.8" x2="791.6" y1="215.2219" y2="215.2219"/><text fill="#000000" font-family="sans-serif" font-size="10.4" font-weight="bold" lengthAdjust="spacing" textLength="5.6" x="478.4" y="211.0117">4</text><text fill="#000000" font-family="sans-serif" font-size="10.4" lengthAdjust="spacing" textLength="41.6" x="487.2" y="211.0117">singleton</text><polygon fill="#181818" points="896.4,237.0547,904.4,240.2547,896.4,243.4547,899.6,240.2547" style="stroke:#181818;stroke-width:0.8000000000000002;"/><line style="stroke:#181818;stroke-width:0.8000000000000002;" x1="464.8" x2="901.2" y1="240.2547" y2="240.2547"/><text fill="#000000" font-family="sans-serif" font-size="10.4" font-weight="bold" lengthAdjust="spacing" textLength="5.6" x="470.4" y="236.0445">5</text><text fill="#000000" font-family="sans-serif" font-size="10.4" lengthAdjust="spacing" textLength="80" x="479.2" y="236.0445">getUserSession()</text><polygon fill="#181818" points="473.6,262.0875,465.6,265.2875,473.6,268.4875,470.4,265.2875" style="stroke:#181818;stroke-width:0.8000000000000002;"/><line style="stroke:#181818;stroke-width:0.8000000000000002;stroke-dasharray:2.0,2.0;" x1="468.8" x2="909.2" y1="265.2875" y2="265.2875"/><text fill="#000000" font-family="sans-serif" font-size="10.4" font-weight="bold" lengthAdjust="spacing" textLength="5.6" x="478.4" y="261.0773">6</text><text fill="#000000" font-family="sans-serif" font-size="10.4" lengthAdjust="spacing" textLength="57.6" x="487.2" y="261.0773">userSession</text><polygon fill="#181818" points="998,287.1203,1006,290.3203,998,293.5203,1001.2,290.3203" style="stroke:#181818;stroke-width:0.8000000000000002;"/><line style="stroke:#181818;stroke-width:0.8000000000000002;" x1="464.8" x2="1002.8" y1="290.3203" y2="290.3203"/><text fill="#000000" font-family="sans-serif" font-size="10.4" font-weight="bold" lengthAdjust="spacing" textLength="5.6" x="470.4" y="286.1102">7</text><text fill="#000000" font-family="sans-serif" font-size="10.4" lengthAdjust="spacing" textLength="50.4" x="479.2" y="286.1102">getUserId()</text><polygon fill="#181818" points="473.6,312.1531,465.6,315.3531,473.6,318.5531,470.4,315.3531" style="stroke:#181818;stroke-width:0.8000000000000002;"/><line style="stroke:#181818;stroke-width:0.8000000000000002;stroke-dasharray:2.0,2.0;" x1="468.8" x2="1010.8" y1="315.3531" y2="315.3531"/><text fill="#000000" font-family="sans-serif" font-size="10.4" font-weight="bold" lengthAdjust="spacing" textLength="5.6" x="478.4" y="311.143">8</text><text fill="#000000" font-family="sans-serif" font-size="10.4" lengthAdjust="spacing" textLength="28" x="487.2" y="311.143">userId</text><polygon fill="#181818" points="1066.8,337.1859,1074.8,340.3859,1066.8,343.5859,1070,340.3859" style="stroke:#181818;stroke-width:0.8000000000000002;"/><line style="stroke:#181818;stroke-width:0.8000000000000002;" x1="464.8" x2="1071.6" y1="340.3859" y2="340.3859"/><text fill="#000000" font-family="sans-serif" font-size="10.4" font-weight="bold" lengthAdjust="spacing" textLength="5.6" x="470.4" y="336.1758">9</text><text fill="#000000" font-family="sans-serif" font-size="10.4" lengthAdjust="spacing" textLength="47.2" x="479.2" y="336.1758">getEmail()</text><polygon fill="#181818" points="473.6,362.2188,465.6,365.4188,473.6,368.6188,470.4,365.4188" style="stroke:#181818;stroke-width:0.8000000000000002;"/><line style="stroke:#181818;stroke-width:0.8000000000000002;stroke-dasharray:2.0,2.0;" x1="468.8" x2="1079.6" y1="365.4188" y2="365.4188"/><text fill="#000000" font-family="sans-serif" font-size="10.4" font-weight="bold" lengthAdjust="spacing" textLength="11.2" x="478.4" y="361.2086">10</text><text fill="#000000" font-family="sans-serif" font-size="10.4" lengthAdjust="spacing" textLength="24.8" x="492.8" y="361.2086">email</text><line style="stroke:#181818;stroke-width:0.8000000000000002;" x1="464.8" x2="498.4" y1="390.4516" y2="390.4516"/><line style="stroke:#181818;stroke-width:0.8000000000000002;" x1="498.4" x2="498.4" y1="390.4516" y2="400.8516"/><line style="stroke:#181818;stroke-width:0.8000000000000002;" x1="465.6" x2="498.4" y1="400.8516" y2="400.8516"/><polygon fill="#181818" points="473.6,397.6516,465.6,400.8516,473.6,404.0516,470.4,400.8516" style="stroke:#181818;stroke-width:0.8000000000000002;"/><text fill="#000000" font-family="sans-serif" font-size="10.4" font-weight="bold" lengthAdjust="spacing" textLength="11.2" x="470.4" y="386.2414">11</text><text fill="#000000" font-family="sans-serif" font-size="10.4" lengthAdjust="spacing" textLength="66.4" x="484.8" y="386.2414">managerEmail</text><polygon fill="#181818" points="1135.6,442.6844,1143.6,445.8844,1135.6,449.0844,1138.8,445.8844" style="stroke:#181818;stroke-width:0.8000000000000002;"/><line style="stroke:#181818;stroke-width:0.8000000000000002;" x1="464.8" x2="1140.4" y1="445.8844" y2="445.8844"/><text fill="#000000" font-family="sans-serif" font-size="10.4" font-weight="bold" lengthAdjust="spacing" textLength="11.2" x="470.4" y="441.6742">12</text><text fill="#000000" font-family="sans-serif" font-size="10.4" lengthAdjust="spacing" textLength="60" x="484.8" y="441.6742">getInstance()</text><polygon fill="#181818" points="473.6,467.7172,465.6,470.9172,473.6,474.1172,470.4,470.9172" style="stroke:#181818;stroke-width:0.8000000000000002;"/><line style="stroke:#181818;stroke-width:0.8000000000000002;stroke-dasharray:2.0,2.0;" x1="468.8" x2="1148.4" y1="470.9172" y2="470.9172"/><text fill="#000000" font-family="sans-serif" font-size="10.4" font-weight="bold" lengthAdjust="spacing" textLength="11.2" x="478.4" y="466.707">13</text><text fill="#000000" font-family="sans-serif" font-size="10.4" lengthAdjust="spacing" textLength="53.6" x="492.8" y="466.707">repositories</text><polygon fill="#181818" points="1221.2,492.75,1229.2,495.95,1221.2,499.15,1224.4,495.95" style="stroke:#181818;stroke-width:0.8000000000000002;"/><line style="stroke:#181818;stroke-width:0.8000000000000002;" x1="464.8" x2="1226" y1="495.95" y2="495.95"/><text fill="#000000" font-family="sans-serif" font-size="10.4" font-weight="bold" lengthAdjust="spacing" textLength="11.2" x="470.4" y="491.7398">14</text><text fill="#000000" font-family="sans-serif" font-size="10.4" lengthAdjust="spacing" textLength="128" x="484.8" y="491.7398">getGreenSpaceRepository()</text><polygon fill="#181818" points="473.6,517.7828,465.6,520.9828,473.6,524.1828,470.4,520.9828" style="stroke:#181818;stroke-width:0.8000000000000002;"/><line style="stroke:#181818;stroke-width:0.8000000000000002;stroke-dasharray:2.0,2.0;" x1="468.8" x2="1234" y1="520.9828" y2="520.9828"/><text fill="#000000" font-family="sans-serif" font-size="10.4" font-weight="bold" lengthAdjust="spacing" textLength="11.2" x="478.4" y="516.7727">15</text><text fill="#000000" font-family="sans-serif" font-size="10.4" lengthAdjust="spacing" textLength="104.8" x="492.8" y="516.7727">greenSpaceRepository</text><polygon fill="#181818" points="1334.4,542.8156,1342.4,546.0156,1334.4,549.2156,1337.6,546.0156" style="stroke:#181818;stroke-width:0.8000000000000002;"/><line style="stroke:#181818;stroke-width:0.8000000000000002;" x1="464.8" x2="1339.2" y1="546.0156" y2="546.0156"/><text fill="#000000" font-family="sans-serif" font-size="10.4" font-weight="bold" lengthAdjust="spacing" textLength="11.2" x="470.4" y="541.8055">16</text><text fill="#000000" font-family="sans-serif" font-size="10.4" lengthAdjust="spacing" textLength="214.4" x="484.8" y="541.8055">getGreenSpaceListByManager(managerEmail)</text><polygon fill="#181818" points="473.6,567.8484,465.6,571.0484,473.6,574.2484,470.4,571.0484" style="stroke:#181818;stroke-width:0.8000000000000002;"/><line style="stroke:#181818;stroke-width:0.8000000000000002;stroke-dasharray:2.0,2.0;" x1="468.8" x2="1347.2" y1="571.0484" y2="571.0484"/><text fill="#000000" font-family="sans-serif" font-size="10.4" font-weight="bold" lengthAdjust="spacing" textLength="11.2" x="478.4" y="566.8383">17</text><text fill="#000000" font-family="sans-serif" font-size="10.4" lengthAdjust="spacing" textLength="120" x="492.8" y="566.8383">managerGreenSpacesList</text><polygon fill="#181818" points="1466,612.8813,1474,616.0813,1466,619.2813,1469.2,616.0813" style="stroke:#181818;stroke-width:0.8000000000000002;"/><line style="stroke:#181818;stroke-width:0.8000000000000002;" x1="464.8" x2="1470.8" y1="616.0813" y2="616.0813"/><text fill="#000000" font-family="sans-serif" font-size="10.4" font-weight="bold" lengthAdjust="spacing" textLength="11.2" x="470.4" y="611.8711">18</text><text fill="#000000" font-family="sans-serif" font-size="10.4" lengthAdjust="spacing" textLength="144" x="484.8" y="611.8711">sort(managerGreenSpacesList)</text><polygon fill="#181818" points="1690,637.9141,1698,641.1141,1690,644.3141,1693.2,641.1141" style="stroke:#181818;stroke-width:0.8000000000000002;"/><line style="stroke:#181818;stroke-width:0.8000000000000002;" x1="1483.6" x2="1694.8" y1="641.1141" y2="641.1141"/><text fill="#000000" font-family="sans-serif" font-size="10.4" font-weight="bold" lengthAdjust="spacing" textLength="11.2" x="1489.2" y="636.9039">19</text><text fill="#000000" font-family="sans-serif" font-size="10.4" lengthAdjust="spacing" textLength="131.2" x="1503.6" y="636.9039">getInstance().getProperties()</text><polygon fill="#181818" points="1990.8,662.9469,1998.8,666.1469,1990.8,669.3469,1994,666.1469" style="stroke:#181818;stroke-width:0.8000000000000002;"/><line style="stroke:#181818;stroke-width:0.8000000000000002;" x1="1707.6" x2="1995.6" y1="666.1469" y2="666.1469"/><text fill="#000000" font-family="sans-serif" font-size="10.4" font-weight="bold" lengthAdjust="spacing" textLength="11.2" x="1713.2" y="661.9367">20</text><text fill="#000000" font-family="sans-serif" font-size="10.4" lengthAdjust="spacing" textLength="263.2" x="1727.6" y="661.9367">getProperty(ApplicationSession.SORTING_ALGORITHM)</text><polygon fill="#181818" points="1716.4,707.9797,1708.4,711.1797,1716.4,714.3797,1713.2,711.1797" style="stroke:#181818;stroke-width:0.8000000000000002;"/><line style="stroke:#181818;stroke-width:0.8000000000000002;stroke-dasharray:2.0,2.0;" x1="1711.6" x2="2003.6" y1="711.1797" y2="711.1797"/><text fill="#000000" font-family="sans-serif" font-size="10.4" font-weight="bold" lengthAdjust="spacing" textLength="11.2" x="1721.2" y="706.9695">21</text><text fill="#000000" font-family="sans-serif" font-size="10.4" lengthAdjust="spacing" textLength="80" x="1735.6" y="706.9695">Sorting.Algorithm</text><polygon fill="#181818" points="1492.4,733.0125,1484.4,736.2125,1492.4,739.4125,1489.2,736.2125" style="stroke:#181818;stroke-width:0.8000000000000002;"/><line style="stroke:#181818;stroke-width:0.8000000000000002;stroke-dasharray:2.0,2.0;" x1="1487.6" x2="1702.8" y1="736.2125" y2="736.2125"/><text fill="#000000" font-family="sans-serif" font-size="10.4" font-weight="bold" lengthAdjust="spacing" textLength="11.2" x="1497.2" y="732.0023">22</text><text fill="#000000" font-family="sans-serif" font-size="10.4" lengthAdjust="spacing" textLength="80" x="1511.6" y="732.0023">Sorting.Algorithm</text><path d="M1414.4,768.2125 L1463.2,768.2125 L1463.2,775.6453 L1455.2,783.6453 L1414.4,783.6453 L1414.4,768.2125 " fill="#EEEEEE" style="stroke:#000000;stroke-width:1.2000000000000002;"/><rect fill="none" height="139.6031" style="stroke:#000000;stroke-width:1.2000000000000002;" width="297.6" x="1414.4" y="768.2125"/><text fill="#000000" font-family="sans-serif" font-size="10.4" font-weight="bold" lengthAdjust="spacing" textLength="12.8" x="1426.4" y="780.2352">alt</text><text fill="#000000" font-family="sans-serif" font-size="8.8" font-weight="bold" lengthAdjust="spacing" textLength="232.8" x="1475.2" y="779.3086">[Sorting.Algorithm on ":ConfigLoader" is bubbleSort]</text><line style="stroke:#181818;stroke-width:0.8000000000000002;" x1="1483.6" x2="1517.2" y1="802.2781" y2="802.2781"/><line style="stroke:#181818;stroke-width:0.8000000000000002;" x1="1517.2" x2="1517.2" y1="802.2781" y2="812.6781"/><line style="stroke:#181818;stroke-width:0.8000000000000002;" x1="1484.4" x2="1517.2" y1="812.6781" y2="812.6781"/><polygon fill="#181818" points="1492.4,809.4781,1484.4,812.6781,1492.4,815.8781,1489.2,812.6781" style="stroke:#181818;stroke-width:0.8000000000000002;"/><text fill="#000000" font-family="sans-serif" font-size="10.4" font-weight="bold" lengthAdjust="spacing" textLength="11.2" x="1489.2" y="798.068">23</text><text fill="#000000" font-family="sans-serif" font-size="10.4" lengthAdjust="spacing" textLength="179.2" x="1503.6" y="798.068">bubbleSort(managerGreenSpacesList))</text><line style="stroke:#000000;stroke-width:0.8000000000000002;stroke-dasharray:2.0,2.0;" x1="1414.4" x2="1712" y1="839.8781" y2="839.8781"/><text fill="#000000" font-family="sans-serif" font-size="8.8" font-weight="bold" lengthAdjust="spacing" textLength="243.2" x="1418.4" y="849.3742">[Sorting.Algorithm on ":ConfigLoader" is selectionSort]</text><line style="stroke:#181818;stroke-width:0.8000000000000002;" x1="1483.6" x2="1517.2" y1="871.0156" y2="871.0156"/><line style="stroke:#181818;stroke-width:0.8000000000000002;" x1="1517.2" x2="1517.2" y1="871.0156" y2="881.4156"/><line style="stroke:#181818;stroke-width:0.8000000000000002;" x1="1484.4" x2="1517.2" y1="881.4156" y2="881.4156"/><polygon fill="#181818" points="1492.4,878.2156,1484.4,881.4156,1492.4,884.6156,1489.2,881.4156" style="stroke:#181818;stroke-width:0.8000000000000002;"/><text fill="#000000" font-family="sans-serif" font-size="10.4" font-weight="bold" lengthAdjust="spacing" textLength="11.2" x="1489.2" y="866.8055">24</text><text fill="#000000" font-family="sans-serif" font-size="10.4" lengthAdjust="spacing" textLength="190.4" x="1503.6" y="866.8055">selectionSort(managerGreenSpacesList))</text><polygon fill="#181818" points="473.6,928.8484,465.6,932.0484,473.6,935.2484,470.4,932.0484" style="stroke:#181818;stroke-width:0.8000000000000002;"/><line style="stroke:#181818;stroke-width:0.8000000000000002;stroke-dasharray:2.0,2.0;" x1="468.8" x2="1478.8" y1="932.0484" y2="932.0484"/><text fill="#000000" font-family="sans-serif" font-size="10.4" font-weight="bold" lengthAdjust="spacing" textLength="11.2" x="478.4" y="927.8383">25</text><text fill="#000000" font-family="sans-serif" font-size="10.4" lengthAdjust="spacing" textLength="152" x="492.8" y="927.8383">sorted managerGreenSpacesList</text><path d="M354.4,962.4484 L354.4,997.6484 L566.4,997.6484 L566.4,970.4484 L558.4,962.4484 L354.4,962.4484 " fill="#FAFAFA" style="stroke:#181818;stroke-width:0.4000000000000001;"/><path d="M558.4,962.4484 L558.4,970.4484 L566.4,970.4484 L558.4,962.4484 " fill="#FAFAFA" style="stroke:#181818;stroke-width:0.4000000000000001;"/><text fill="#000000" font-family="sans-serif" font-size="10.4" lengthAdjust="spacing" textLength="195.2" x="359.2" y="977.6711">at this point the managerGreenSpacesList</text><text fill="#000000" font-family="sans-serif" font-size="10.4" lengthAdjust="spacing" textLength="61.6" x="429.6" y="991.5039">is now sorted</text><polygon fill="#181818" points="657.6,1037.5469,665.6,1040.7469,657.6,1043.9469,660.8,1040.7469" style="stroke:#181818;stroke-width:0.8000000000000002;"/><line style="stroke:#181818;stroke-width:0.8000000000000002;" x1="464.8" x2="662.4" y1="1040.7469" y2="1040.7469"/><text fill="#000000" font-family="sans-serif" font-size="10.4" font-weight="bold" lengthAdjust="spacing" textLength="11.2" x="470.4" y="1036.5367">26</text><text fill="#000000" font-family="sans-serif" font-size="10.4" lengthAdjust="spacing" textLength="172.8" x="484.8" y="1036.5367">toDTOList(managerGreenSpacesList)</text><rect fill="none" height="47.3703" style="stroke:#000000;stroke-width:1.2000000000000002;" width="124.8" x="610.4" y="1067.1469"/><path d="M610.4,1067.1469 L660,1067.1469 L660,1074.3469 L652,1082.3469 L610.4,1082.3469 L610.4,1067.1469 " fill="#EEEEEE" style="stroke:#000000;stroke-width:1.6000000000000003;"/><text fill="#000000" font-family="sans-serif" font-size="10.4" font-weight="bold" lengthAdjust="spacing" textLength="13.6" x="620.8" y="1079.9695">ref</text><text fill="#000000" font-family="sans-serif" font-size="9.6" lengthAdjust="spacing" textLength="118.4" x="613.6" y="1095.9063">SD_toGreenSpaceDTOList</text><text fill="#000000" font-family="sans-serif" font-size="9.6" lengthAdjust="spacing" textLength="2.4" x="671.6" y="1108.675">&#160;</text><polygon fill="#181818" points="473.6,1133.95,465.6,1137.15,473.6,1140.35,470.4,1137.15" style="stroke:#181818;stroke-width:0.8000000000000002;"/><line style="stroke:#181818;stroke-width:0.8000000000000002;stroke-dasharray:2.0,2.0;" x1="468.8" x2="670.4" y1="1137.15" y2="1137.15"/><text fill="#000000" font-family="sans-serif" font-size="10.4" font-weight="bold" lengthAdjust="spacing" textLength="11.2" x="478.4" y="1132.9398">27</text><text fill="#000000" font-family="sans-serif" font-size="10.4" lengthAdjust="spacing" textLength="92.8" x="492.8" y="1132.9398">greenSpaceDTOList</text><polygon fill="#181818" points="334.4,1158.9828,326.4,1162.1828,334.4,1165.3828,331.2,1162.1828" style="stroke:#181818;stroke-width:0.8000000000000002;"/><line style="stroke:#181818;stroke-width:0.8000000000000002;stroke-dasharray:2.0,2.0;" x1="329.6" x2="460" y1="1162.1828" y2="1162.1828"/><text fill="#000000" font-family="sans-serif" font-size="10.4" font-weight="bold" lengthAdjust="spacing" textLength="11.2" x="339.2" y="1157.9727">28</text><text fill="#000000" font-family="sans-serif" font-size="10.4" lengthAdjust="spacing" textLength="92.8" x="353.6" y="1157.9727">greenSpaceDTOList</text><polygon fill="#181818" points="52.8,1184.0156,44.8,1187.2156,52.8,1190.4156,49.6,1187.2156" style="stroke:#181818;stroke-width:0.8000000000000002;"/><line style="stroke:#181818;stroke-width:0.8000000000000002;stroke-dasharray:2.0,2.0;" x1="48" x2="320.8" y1="1187.2156" y2="1187.2156"/><text fill="#000000" font-family="sans-serif" font-size="10.4" font-weight="bold" lengthAdjust="spacing" textLength="11.2" x="57.6" y="1183.0055">29</text><text fill="#000000" font-family="sans-serif" font-size="10.4" lengthAdjust="spacing" textLength="240" x="72" y="1183.0055">displays all the green spaces managed by the GSM</text><!--SRC=[dLTDRzim3BtxLmWzfOSKmou3UXYGDKLc85c2EBaLA1HRTOGwacSfBGBqnu-I_27BafjLbzZo8_b8KIGZNYahSOLFwCGPJuyLFn4agpE9HFkbnEahpaaYBmL15KabPdbX0yGHP_oTiXozu4AGA99K0dIVVFl-0qrHGlwU2Ki9cbES0pwAy5boTZuTI0NFgUGLkbbKX32KW2ton5QOWS7g1c615iag0ZEIfhJ4JAAR-oKLKiCrMknZZTl7ux07pcJ5Yw9M-x3RBYD7eaElS5bszlMB2vwLPK5JB2bd2H42VZHyjjdqWOAgQ86_Jsn49cbGVU6p85MD1F5zzsPSxjw7Ol4S91vFc1OQgvyYruajARcWS02K20tRFcxMVKnbGK2ZLo9c0f8Y9Nt9l0rdAtG13GlFTXrfjH4-b8J3FiiDrjszydG6suuSPCaBpPSSPqsUw8r8vobzmvBeX8mGB7X0qv-GUEWUaAy2IOuAI3g4YmB98q4w04Zez4CddTCPEbpGYMZvLYEahj6e5gW3fIezGMrEx1IUtBQeLjRaSREjnK0SCif8DoTZYVR4LRhslgYbfASTYJQ3Uy2CX9LODDh4Ddoib1sXrDq67xTEfKNIkYaZD0EA6xuMkuvkd8MOslTlGDJMvV2Cin35eCQ6eRx6Xfj-356hhxjBoeXRT8Z61TXub3GyQd6JrDNZGCl7nqTabazQrOphybFNeu4RMjxomgvH8MU6ccms3G_tpdKbQenXM_-yJ5lT5cDVRHnZxhVGU60gfyjTDS1VbxgNJkoZ2hZI563NYLhzT73kLcrIna8E-FJg1F7wubPsLO7WQUAt6N9bq1zwkA4HLQq6pS7DqJjusrGSfW59U-MuNy26JQO7zDXHaTMDnbYiRLmcG-XTijxkuZ-BvzboiTx6kz-h08kwSRanxuNSc9o6VAzZSpShShXQydWA7N3J93_pCd2yLzlnH7RCFrp8eMu4HDm-JmKwd0-7GdEw8bDyJdGAGfbwEqgMmEHyDLj12fZ3LHY-JhYduukSMHPzQjqQ960B9g10yGXMZy5L7gF4E8ZmDrAPoQYN3XAcCWXUoIcJUa2xeepv5sXX_Brso0s9vX15tdxehzxc7mP4IFBvRgquN5Nj1lbkZQZcFulzjI8l9Z3Uh_PAvi-ITvPhIb4Ghtm6xQv_zOniVFFslaPpi6yqVxs6OTE3zt_ewi_9pQ1jeW-SCYhA0b_4fxEx-jR-0_2ES77q3m00]--></g></svg>