<?xml version="1.0" encoding="us-ascii" standalone="no"?><svg xmlns="http://www.w3.org/2000/svg" xmlns:xlink="http://www.w3.org/1999/xlink" contentStyleType="text/css" height="1017px" preserveAspectRatio="none" style="width:392px;height:1017px;background:#FFFFFF;" version="1.1" viewBox="0 0 392 1017" width="392px" zoomAndPan="magnify"><defs/><g><!--class RegisterSkillUI--><g id="elem_RegisterSkillUI"><rect codeLine="11" fill="#F1F1F1" height="196.9688" id="RegisterSkillUI" rx="2.5" ry="2.5" style="stroke:#181818;stroke-width:0.5;" width="160" x="147" y="7"/><ellipse cx="179.1" cy="23" fill="#ADD1B2" rx="11" ry="11" style="stroke:#181818;stroke-width:1.0;"/><path d="M181.8656,18.875 Q182.0219,18.6563 182.2094,18.5469 Q182.3969,18.4375 182.6156,18.4375 Q182.9906,18.4375 183.225,18.7031 Q183.4594,18.9531 183.4594,19.5625 L183.4594,21.0156 Q183.4594,21.625 183.225,21.8906 Q182.9906,22.1563 182.6156,22.1563 Q182.2719,22.1563 182.0688,21.9531 Q181.8656,21.7656 181.7563,21.25 Q181.7094,20.8906 181.5219,20.7031 Q181.1938,20.3281 180.5844,20.1094 Q179.975,19.8906 179.35,19.8906 Q178.5844,19.8906 177.9438,20.2188 Q177.3188,20.5469 176.8188,21.2969 Q176.3344,22.0469 176.3344,23.0781 L176.3344,24.1719 Q176.3344,25.4063 177.225,26.2344 Q178.1156,27.0469 179.7094,27.0469 Q180.6469,27.0469 181.3031,26.7969 Q181.6938,26.6406 182.1156,26.2031 Q182.3813,25.9375 182.5219,25.8594 Q182.6781,25.7813 182.8813,25.7813 Q183.2094,25.7813 183.4594,26.0469 Q183.725,26.2969 183.725,26.6406 Q183.725,26.9844 183.3813,27.3906 Q182.8813,27.9688 182.0844,28.2969 Q181.0063,28.75 179.7094,28.75 Q178.1938,28.75 176.9906,28.125 Q176.0063,27.625 175.3188,26.5625 Q174.6313,25.4844 174.6313,24.2031 L174.6313,23.0469 Q174.6313,21.7188 175.2406,20.5781 Q175.8656,19.4219 176.9594,18.8125 Q178.0531,18.1875 179.2875,18.1875 Q180.0219,18.1875 180.6625,18.3594 Q181.3188,18.5156 181.8656,18.875 Z " fill="#000000"/><text fill="#000000" font-family="sans-serif" font-size="14" lengthAdjust="spacing" textLength="90" x="196.9" y="28.7969">RegisterSkillUI</text><line style="stroke:#181818;stroke-width:0.5;" x1="148" x2="306" y1="39" y2="39"/><text fill="#000000" font-family="sans-serif" font-size="14" lengthAdjust="spacing" textLength="105" x="153" y="58.1074">-String skillName</text><line style="stroke:#181818;stroke-width:0.5;" x1="148" x2="306" y1="65.6211" y2="65.6211"/><text fill="#000000" font-family="sans-serif" font-size="14" lengthAdjust="spacing" textLength="108" x="153" y="84.7285">+RegisterSkillUI()</text><text fill="#000000" font-family="sans-serif" font-size="14" lengthAdjust="spacing" textLength="97" x="153" y="103.3496">-getController()</text><text fill="#000000" font-family="sans-serif" font-size="14" lengthAdjust="spacing" textLength="39" x="153" y="121.9707">+run()</text><text fill="#000000" font-family="sans-serif" font-size="14" lengthAdjust="spacing" textLength="86" x="153" y="140.5918">-submitData()</text><text fill="#000000" font-family="sans-serif" font-size="14" lengthAdjust="spacing" textLength="93" x="153" y="159.2129">-requestData()</text><text fill="#000000" font-family="sans-serif" font-size="14" lengthAdjust="spacing" textLength="124" x="153" y="177.834">-requestSkillName()</text><text fill="#000000" font-family="sans-serif" font-size="14" lengthAdjust="spacing" textLength="148" x="153" y="196.4551">-validateSkill(skillName)</text></g><!--class RegisterSkillController--><g id="elem_RegisterSkillController"><rect codeLine="23" fill="#F1F1F1" height="122.4844" id="RegisterSkillController" rx="2.5" ry="2.5" style="stroke:#181818;stroke-width:0.5;" width="261" x="96.5" y="265"/><ellipse cx="152.75" cy="281" fill="#ADD1B2" rx="11" ry="11" style="stroke:#181818;stroke-width:1.0;"/><path d="M155.5156,276.875 Q155.6719,276.6563 155.8594,276.5469 Q156.0469,276.4375 156.2656,276.4375 Q156.6406,276.4375 156.875,276.7031 Q157.1094,276.9531 157.1094,277.5625 L157.1094,279.0156 Q157.1094,279.625 156.875,279.8906 Q156.6406,280.1563 156.2656,280.1563 Q155.9219,280.1563 155.7188,279.9531 Q155.5156,279.7656 155.4063,279.25 Q155.3594,278.8906 155.1719,278.7031 Q154.8438,278.3281 154.2344,278.1094 Q153.625,277.8906 153,277.8906 Q152.2344,277.8906 151.5938,278.2188 Q150.9688,278.5469 150.4688,279.2969 Q149.9844,280.0469 149.9844,281.0781 L149.9844,282.1719 Q149.9844,283.4063 150.875,284.2344 Q151.7656,285.0469 153.3594,285.0469 Q154.2969,285.0469 154.9531,284.7969 Q155.3438,284.6406 155.7656,284.2031 Q156.0313,283.9375 156.1719,283.8594 Q156.3281,283.7813 156.5313,283.7813 Q156.8594,283.7813 157.1094,284.0469 Q157.375,284.2969 157.375,284.6406 Q157.375,284.9844 157.0313,285.3906 Q156.5313,285.9688 155.7344,286.2969 Q154.6563,286.75 153.3594,286.75 Q151.8438,286.75 150.6406,286.125 Q149.6563,285.625 148.9688,284.5625 Q148.2813,283.4844 148.2813,282.2031 L148.2813,281.0469 Q148.2813,279.7188 148.8906,278.5781 Q149.5156,277.4219 150.6094,276.8125 Q151.7031,276.1875 152.9375,276.1875 Q153.6719,276.1875 154.3125,276.3594 Q154.9688,276.5156 155.5156,276.875 Z " fill="#000000"/><text fill="#000000" font-family="sans-serif" font-size="14" lengthAdjust="spacing" textLength="140" x="173.25" y="286.7969">RegisterSkillController</text><line style="stroke:#181818;stroke-width:0.5;" x1="97.5" x2="356.5" y1="297" y2="297"/><line style="stroke:#181818;stroke-width:0.5;" x1="97.5" x2="356.5" y1="305" y2="305"/><text fill="#000000" font-family="sans-serif" font-size="14" lengthAdjust="spacing" textLength="158" x="102.5" y="324.1074">+RegisterSkillController()</text><text fill="#000000" font-family="sans-serif" font-size="14" lengthAdjust="spacing" textLength="249" x="102.5" y="342.7285">+RegisterSkillController(skillRepository)</text><text fill="#000000" font-family="sans-serif" font-size="14" lengthAdjust="spacing" textLength="128" x="102.5" y="361.3496">-getSkillRepository()</text><text fill="#000000" font-family="sans-serif" font-size="14" lengthAdjust="spacing" textLength="150" x="102.5" y="379.9707">+registerSkill(skillName)</text></g><!--class Repositories--><g id="elem_Repositories"><rect codeLine="30" fill="#F1F1F1" height="103.8633" id="Repositories" rx="2.5" ry="2.5" style="stroke:#181818;stroke-width:0.5;" width="194" x="7" y="466"/><ellipse cx="60.25" cy="482" fill="#ADD1B2" rx="11" ry="11" style="stroke:#181818;stroke-width:1.0;"/><path d="M63.0156,477.875 Q63.1719,477.6563 63.3594,477.5469 Q63.5469,477.4375 63.7656,477.4375 Q64.1406,477.4375 64.375,477.7031 Q64.6094,477.9531 64.6094,478.5625 L64.6094,480.0156 Q64.6094,480.625 64.375,480.8906 Q64.1406,481.1563 63.7656,481.1563 Q63.4219,481.1563 63.2188,480.9531 Q63.0156,480.7656 62.9063,480.25 Q62.8594,479.8906 62.6719,479.7031 Q62.3438,479.3281 61.7344,479.1094 Q61.125,478.8906 60.5,478.8906 Q59.7344,478.8906 59.0938,479.2188 Q58.4688,479.5469 57.9688,480.2969 Q57.4844,481.0469 57.4844,482.0781 L57.4844,483.1719 Q57.4844,484.4063 58.375,485.2344 Q59.2656,486.0469 60.8594,486.0469 Q61.7969,486.0469 62.4531,485.7969 Q62.8438,485.6406 63.2656,485.2031 Q63.5313,484.9375 63.6719,484.8594 Q63.8281,484.7813 64.0313,484.7813 Q64.3594,484.7813 64.6094,485.0469 Q64.875,485.2969 64.875,485.6406 Q64.875,485.9844 64.5313,486.3906 Q64.0313,486.9688 63.2344,487.2969 Q62.1563,487.75 60.8594,487.75 Q59.3438,487.75 58.1406,487.125 Q57.1563,486.625 56.4688,485.5625 Q55.7813,484.4844 55.7813,483.2031 L55.7813,482.0469 Q55.7813,480.7188 56.3906,479.5781 Q57.0156,478.4219 58.1094,477.8125 Q59.2031,477.1875 60.4375,477.1875 Q61.1719,477.1875 61.8125,477.3594 Q62.4688,477.5156 63.0156,477.875 Z " fill="#000000"/><text fill="#000000" font-family="sans-serif" font-size="14" lengthAdjust="spacing" textLength="79" x="80.75" y="487.7969">Repositories</text><line style="stroke:#181818;stroke-width:0.5;" x1="8" x2="200" y1="498" y2="498"/><line style="stroke:#181818;stroke-width:0.5;" x1="8" x2="200" y1="506" y2="506"/><text fill="#000000" font-family="sans-serif" font-size="14" lengthAdjust="spacing" textLength="94" x="13" y="525.1074">-Repositories()</text><text fill="#000000" font-family="sans-serif" font-size="14" lengthAdjust="spacing" textLength="182" x="13" y="543.7285">+getInstance() : Repositories</text><text fill="#000000" font-family="sans-serif" font-size="14" lengthAdjust="spacing" textLength="131" x="13" y="562.3496">+getSkillRepository()</text></g><!--class SkillRepository--><g id="elem_SkillRepository"><rect codeLine="36" fill="#F1F1F1" height="141.1055" id="SkillRepository" rx="2.5" ry="2.5" style="stroke:#181818;stroke-width:0.5;" width="162" x="146" y="631"/><ellipse cx="177.65" cy="647" fill="#ADD1B2" rx="11" ry="11" style="stroke:#181818;stroke-width:1.0;"/><path d="M180.4156,642.875 Q180.5719,642.6563 180.7594,642.5469 Q180.9469,642.4375 181.1656,642.4375 Q181.5406,642.4375 181.775,642.7031 Q182.0094,642.9531 182.0094,643.5625 L182.0094,645.0156 Q182.0094,645.625 181.775,645.8906 Q181.5406,646.1563 181.1656,646.1563 Q180.8219,646.1563 180.6188,645.9531 Q180.4156,645.7656 180.3063,645.25 Q180.2594,644.8906 180.0719,644.7031 Q179.7438,644.3281 179.1344,644.1094 Q178.525,643.8906 177.9,643.8906 Q177.1344,643.8906 176.4938,644.2188 Q175.8688,644.5469 175.3688,645.2969 Q174.8844,646.0469 174.8844,647.0781 L174.8844,648.1719 Q174.8844,649.4063 175.775,650.2344 Q176.6656,651.0469 178.2594,651.0469 Q179.1969,651.0469 179.8531,650.7969 Q180.2438,650.6406 180.6656,650.2031 Q180.9313,649.9375 181.0719,649.8594 Q181.2281,649.7813 181.4313,649.7813 Q181.7594,649.7813 182.0094,650.0469 Q182.275,650.2969 182.275,650.6406 Q182.275,650.9844 181.9313,651.3906 Q181.4313,651.9688 180.6344,652.2969 Q179.5563,652.75 178.2594,652.75 Q176.7438,652.75 175.5406,652.125 Q174.5563,651.625 173.8688,650.5625 Q173.1813,649.4844 173.1813,648.2031 L173.1813,647.0469 Q173.1813,645.7188 173.7906,644.5781 Q174.4156,643.4219 175.5094,642.8125 Q176.6031,642.1875 177.8375,642.1875 Q178.5719,642.1875 179.2125,642.3594 Q179.8688,642.5156 180.4156,642.875 Z " fill="#000000"/><text fill="#000000" font-family="sans-serif" font-size="14" lengthAdjust="spacing" textLength="93" x="195.35" y="652.7969">SkillRepository</text><line style="stroke:#181818;stroke-width:0.5;" x1="147" x2="307" y1="663" y2="663"/><text fill="#000000" font-family="sans-serif" font-size="14" lengthAdjust="spacing" textLength="117" x="152" y="682.1074">-List&lt;Skill&gt; skillList</text><line style="stroke:#181818;stroke-width:0.5;" x1="147" x2="307" y1="689.6211" y2="689.6211"/><text fill="#000000" font-family="sans-serif" font-size="14" lengthAdjust="spacing" textLength="111" x="152" y="708.7285">+SkillRepository()</text><text fill="#000000" font-family="sans-serif" font-size="14" lengthAdjust="spacing" textLength="62" x="152" y="727.3496">-add(skill)</text><text fill="#000000" font-family="sans-serif" font-size="14" lengthAdjust="spacing" textLength="112" x="152" y="745.9707">-validateSkill(skill)</text><text fill="#000000" font-family="sans-serif" font-size="14" lengthAdjust="spacing" textLength="150" x="152" y="764.5918">+registerSkill(skillName)</text></g><!--class Skill--><g id="elem_Skill"><rect codeLine="45" fill="#F1F1F1" height="159.7266" id="Skill" rx="2.5" ry="2.5" style="stroke:#181818;stroke-width:0.5;" width="169" x="142.5" y="851"/><ellipse cx="210.25" cy="867" fill="#ADD1B2" rx="11" ry="11" style="stroke:#181818;stroke-width:1.0;"/><path d="M213.0156,862.875 Q213.1719,862.6563 213.3594,862.5469 Q213.5469,862.4375 213.7656,862.4375 Q214.1406,862.4375 214.375,862.7031 Q214.6094,862.9531 214.6094,863.5625 L214.6094,865.0156 Q214.6094,865.625 214.375,865.8906 Q214.1406,866.1563 213.7656,866.1563 Q213.4219,866.1563 213.2188,865.9531 Q213.0156,865.7656 212.9063,865.25 Q212.8594,864.8906 212.6719,864.7031 Q212.3438,864.3281 211.7344,864.1094 Q211.125,863.8906 210.5,863.8906 Q209.7344,863.8906 209.0938,864.2188 Q208.4688,864.5469 207.9688,865.2969 Q207.4844,866.0469 207.4844,867.0781 L207.4844,868.1719 Q207.4844,869.4063 208.375,870.2344 Q209.2656,871.0469 210.8594,871.0469 Q211.7969,871.0469 212.4531,870.7969 Q212.8438,870.6406 213.2656,870.2031 Q213.5313,869.9375 213.6719,869.8594 Q213.8281,869.7813 214.0313,869.7813 Q214.3594,869.7813 214.6094,870.0469 Q214.875,870.2969 214.875,870.6406 Q214.875,870.9844 214.5313,871.3906 Q214.0313,871.9688 213.2344,872.2969 Q212.1563,872.75 210.8594,872.75 Q209.3438,872.75 208.1406,872.125 Q207.1563,871.625 206.4688,870.5625 Q205.7813,869.4844 205.7813,868.2031 L205.7813,867.0469 Q205.7813,865.7188 206.3906,864.5781 Q207.0156,863.4219 208.1094,862.8125 Q209.2031,862.1875 210.4375,862.1875 Q211.1719,862.1875 211.8125,862.3594 Q212.4688,862.5156 213.0156,862.875 Z " fill="#000000"/><text fill="#000000" font-family="sans-serif" font-size="14" lengthAdjust="spacing" textLength="25" x="230.75" y="872.7969">Skill</text><line style="stroke:#181818;stroke-width:0.5;" x1="143.5" x2="310.5" y1="883" y2="883"/><text fill="#000000" font-family="sans-serif" font-size="14" lengthAdjust="spacing" textLength="105" x="148.5" y="902.1074">-String skillName</text><line style="stroke:#181818;stroke-width:0.5;" x1="143.5" x2="310.5" y1="909.6211" y2="909.6211"/><text fill="#000000" font-family="sans-serif" font-size="14" lengthAdjust="spacing" textLength="102" x="148.5" y="928.7285">+Skill(skillName)</text><text fill="#000000" font-family="sans-serif" font-size="14" lengthAdjust="spacing" textLength="99" x="148.5" y="947.3496">+getSkillName()</text><text fill="#000000" font-family="sans-serif" font-size="14" lengthAdjust="spacing" textLength="157" x="148.5" y="965.9707">+setSkillName(skillName)</text><text fill="#000000" font-family="sans-serif" font-size="14" lengthAdjust="spacing" textLength="148" x="148.5" y="984.5918">-validateSkill(skillName)</text><text fill="#000000" font-family="sans-serif" font-size="14" lengthAdjust="spacing" textLength="52" x="148.5" y="1003.2129">+clone()</text></g><!--link Repositories to Repositories--><g id="link_Repositories_Repositories"><path codeLine="55" d="M201.28,503.17 C221.48,504.73 236,509.67 236,518 C236,526.33 227.4622,530.808 207.2622,532.368 " fill="none" id="Repositories-to-Repositories" style="stroke:#181818;stroke-width:1.0;"/><polygon fill="#181818" points="201.28,532.83,210.5613,536.1251,206.2652,532.445,209.9453,528.1489,201.28,532.83" style="stroke:#181818;stroke-width:1.0;"/><text fill="#000000" font-family="sans-serif" font-size="13" lengthAdjust="spacing" textLength="49" x="242" y="523.5283">instance</text></g><!--link Repositories to SkillRepository--><g id="link_Repositories_SkillRepository"><path codeLine="56" d="M138.59,570.04 C151.38,588.91 162.7334,605.6735 176.4534,625.9135 " fill="none" id="Repositories-to-SkillRepository" style="stroke:#181818;stroke-width:1.0;"/><polygon fill="#181818" points="179.82,630.88,178.0811,621.1859,177.0145,626.7413,171.4591,625.6747,179.82,630.88" style="stroke:#181818;stroke-width:1.0;"/><text fill="#000000" font-family="sans-serif" font-size="13" lengthAdjust="spacing" textLength="7" x="167.5936" y="619.7586">1</text></g><!--link RegisterSkillController to SkillRepository--><g id="link_RegisterSkillController_SkillRepository"><path codeLine="57" d="M257.73,387.16 C276.92,424.73 298,466 298,466 C298,466 298,570 298,570 C298,570 284.7485,594.3701 267.8585,625.4001 " fill="none" id="RegisterSkillController-to-SkillRepository" style="stroke:#181818;stroke-width:1.0;stroke-dasharray:7.0,7.0;"/><polygon fill="#181818" points="264.99,630.67,272.806,624.6775,267.3804,626.2784,265.7794,620.8528,264.99,630.67" style="stroke:#181818;stroke-width:1.0;"/><text fill="#000000" font-family="sans-serif" font-size="13" lengthAdjust="spacing" textLength="85" x="299" y="523.5283">skillRepository</text></g><!--link SkillRepository to Skill--><g id="link_SkillRepository_Skill"><path codeLine="58" d="M227,772.3 C227,797.12 227,819.23 227,844.78 " fill="none" id="SkillRepository-to-Skill" style="stroke:#181818;stroke-width:1.0;"/><polygon fill="#181818" points="227,850.78,231,841.78,227,845.78,223,841.78,227,850.78" style="stroke:#181818;stroke-width:1.0;"/><text fill="#000000" font-family="sans-serif" font-size="13" lengthAdjust="spacing" textLength="23" x="228" y="817.0283">skill</text><text fill="#000000" font-family="sans-serif" font-size="13" lengthAdjust="spacing" textLength="7" x="219.6555" y="794.1435">1</text><text fill="#000000" font-family="sans-serif" font-size="13" lengthAdjust="spacing" textLength="5" x="221.7695" y="839.6555">*</text></g><!--link RegisterSkillController to Repositories--><g id="link_RegisterSkillController_Repositories"><path codeLine="59" d="M188.08,387.12 C171.68,412.45 156.0609,436.5835 140.3409,460.8635 " fill="none" id="RegisterSkillController-to-Repositories" style="stroke:#181818;stroke-width:1.0;stroke-dasharray:7.0,7.0;"/><polygon fill="#181818" points="137.08,465.9,145.329,460.5191,139.7974,461.7029,138.6136,456.1713,137.08,465.9" style="stroke:#181818;stroke-width:1.0;"/><text fill="#000000" font-family="sans-serif" font-size="13" lengthAdjust="spacing" textLength="67" x="167" y="432.0283">repositories</text></g><!--link RegisterSkillUI to RegisterSkillController--><g id="link_RegisterSkillUI_RegisterSkillController"><path codeLine="60" d="M227,204.25 C227,224.93 227,240.16 227,258.95 " fill="none" id="RegisterSkillUI-to-RegisterSkillController" style="stroke:#181818;stroke-width:1.0;stroke-dasharray:7.0,7.0;"/><polygon fill="#181818" points="227,264.95,231,255.95,227,259.95,223,255.95,227,264.95" style="stroke:#181818;stroke-width:1.0;"/></g><!--SRC=[ZLJBJiCm4BpxArQzjALg1TSALK9mgOGuDE83t6H9hJfsi3UWWlXtd4TTnqqBlcLdTcVseOpjNgYI6rv0ePLETqON26GgP2UavEcUvvZGGI8OJ8chN8O4k-EP_XGgXpSkROX8eP0E9KAfvQ7-OEC1K1lIGL8gkRKFH4PiAy9rgbKYlX1ksLZY6m5fC2BV4MIYDYEqOkurIR31N5X2a-o5bAzh-6RWtXmILypPitNuXHV8clWiva-c7Jz7UjIAZ9OIJHUTWQcKPzXgMmXwuiHzoE1xXNOmbXo5FV31fSWuOODClB4f-ndivUIcwsbs2VTkB-6DrWPBRGLfSmXQJlh8gU-mqWMlNP90wuSU1dqj9xDMrfrGwcO1onxfH3btugKYoAizEult3RXgzrm7ZdiUxcmEFClQVgwivVzJQ90_R-uilzzrS2Kpi64mIhboGsroAhN2TdIz_SnN_NqjGNGRYNYEEBeRnSDZbmvpiLYTRMS9qRcnc54hD4etdT8nvwfEr809hoZ-2RJymLhi5m00]--></g></svg>