<?xml version="1.0" encoding="us-ascii" standalone="no"?><svg xmlns="http://www.w3.org/2000/svg" xmlns:xlink="http://www.w3.org/1999/xlink" contentStyleType="text/css" height="627px" preserveAspectRatio="none" style="width:268px;height:627px;background:#FFFFFF;" version="1.1" viewBox="0 0 268 627" width="268px" zoomAndPan="magnify"><defs/><g><!--class Repositories--><g id="elem_Repositories"><rect codeLine="26" fill="#F1F1F1" height="85.2422" id="Repositories" rx="2.5" ry="2.5" style="stroke:#181818;stroke-width:0.5;" width="143" x="22.5" y="262"/><ellipse cx="51.9" cy="278" fill="#ADD1B2" rx="11" ry="11" style="stroke:#181818;stroke-width:1.0;"/><path d="M54.6656,273.875 Q54.8219,273.6563 55.0094,273.5469 Q55.1969,273.4375 55.4156,273.4375 Q55.7906,273.4375 56.025,273.7031 Q56.2594,273.9531 56.2594,274.5625 L56.2594,276.0156 Q56.2594,276.625 56.025,276.8906 Q55.7906,277.1563 55.4156,277.1563 Q55.0719,277.1563 54.8688,276.9531 Q54.6656,276.7656 54.5563,276.25 Q54.5094,275.8906 54.3219,275.7031 Q53.9938,275.3281 53.3844,275.1094 Q52.775,274.8906 52.15,274.8906 Q51.3844,274.8906 50.7438,275.2188 Q50.1188,275.5469 49.6188,276.2969 Q49.1344,277.0469 49.1344,278.0781 L49.1344,279.1719 Q49.1344,280.4063 50.025,281.2344 Q50.9156,282.0469 52.5094,282.0469 Q53.4469,282.0469 54.1031,281.7969 Q54.4938,281.6406 54.9156,281.2031 Q55.1813,280.9375 55.3219,280.8594 Q55.4781,280.7813 55.6813,280.7813 Q56.0094,280.7813 56.2594,281.0469 Q56.525,281.2969 56.525,281.6406 Q56.525,281.9844 56.1813,282.3906 Q55.6813,282.9688 54.8844,283.2969 Q53.8063,283.75 52.5094,283.75 Q50.9938,283.75 49.7906,283.125 Q48.8063,282.625 48.1188,281.5625 Q47.4313,280.4844 47.4313,279.2031 L47.4313,278.0469 Q47.4313,276.7188 48.0406,275.5781 Q48.6656,274.4219 49.7594,273.8125 Q50.8531,273.1875 52.0875,273.1875 Q52.8219,273.1875 53.4625,273.3594 Q54.1188,273.5156 54.6656,273.875 Z " fill="#000000"/><text fill="#000000" font-family="sans-serif" font-size="14" lengthAdjust="spacing" textLength="79" x="69.1" y="283.7969">Repositories</text><line style="stroke:#181818;stroke-width:0.5;" x1="23.5" x2="164.5" y1="294" y2="294"/><line style="stroke:#181818;stroke-width:0.5;" x1="23.5" x2="164.5" y1="302" y2="302"/><text fill="#000000" font-family="sans-serif" font-size="14" lengthAdjust="spacing" textLength="91" x="28.5" y="321.1074">+getInstance()</text><text fill="#000000" font-family="sans-serif" font-size="14" lengthAdjust="spacing" textLength="131" x="28.5" y="339.7285">+getSkillRepository()</text></g><!--class SkillRepository--><g id="elem_SkillRepository"><rect codeLine="31" fill="#F1F1F1" height="66.6211" id="SkillRepository" rx="2.5" ry="2.5" style="stroke:#181818;stroke-width:0.5;" width="125" x="31.5" y="408"/><ellipse cx="46.5" cy="424" fill="#ADD1B2" rx="11" ry="11" style="stroke:#181818;stroke-width:1.0;"/><path d="M49.2656,419.875 Q49.4219,419.6563 49.6094,419.5469 Q49.7969,419.4375 50.0156,419.4375 Q50.3906,419.4375 50.625,419.7031 Q50.8594,419.9531 50.8594,420.5625 L50.8594,422.0156 Q50.8594,422.625 50.625,422.8906 Q50.3906,423.1563 50.0156,423.1563 Q49.6719,423.1563 49.4688,422.9531 Q49.2656,422.7656 49.1563,422.25 Q49.1094,421.8906 48.9219,421.7031 Q48.5938,421.3281 47.9844,421.1094 Q47.375,420.8906 46.75,420.8906 Q45.9844,420.8906 45.3438,421.2188 Q44.7188,421.5469 44.2188,422.2969 Q43.7344,423.0469 43.7344,424.0781 L43.7344,425.1719 Q43.7344,426.4063 44.625,427.2344 Q45.5156,428.0469 47.1094,428.0469 Q48.0469,428.0469 48.7031,427.7969 Q49.0938,427.6406 49.5156,427.2031 Q49.7813,426.9375 49.9219,426.8594 Q50.0781,426.7813 50.2813,426.7813 Q50.6094,426.7813 50.8594,427.0469 Q51.125,427.2969 51.125,427.6406 Q51.125,427.9844 50.7813,428.3906 Q50.2813,428.9688 49.4844,429.2969 Q48.4063,429.75 47.1094,429.75 Q45.5938,429.75 44.3906,429.125 Q43.4063,428.625 42.7188,427.5625 Q42.0313,426.4844 42.0313,425.2031 L42.0313,424.0469 Q42.0313,422.7188 42.6406,421.5781 Q43.2656,420.4219 44.3594,419.8125 Q45.4531,419.1875 46.6875,419.1875 Q47.4219,419.1875 48.0625,419.3594 Q48.7188,419.5156 49.2656,419.875 Z " fill="#000000"/><text fill="#000000" font-family="sans-serif" font-size="14" lengthAdjust="spacing" textLength="93" x="60.5" y="429.7969">SkillRepository</text><line style="stroke:#181818;stroke-width:0.5;" x1="32.5" x2="155.5" y1="440" y2="440"/><line style="stroke:#181818;stroke-width:0.5;" x1="32.5" x2="155.5" y1="448" y2="448"/><text fill="#000000" font-family="sans-serif" font-size="14" lengthAdjust="spacing" textLength="85" x="37.5" y="467.1074">+getSkillList()</text></g><!--class Skill--><g id="elem_Skill"><rect codeLine="35" fill="#F1F1F1" height="66.6211" id="Skill" rx="2.5" ry="2.5" style="stroke:#181818;stroke-width:0.5;" width="174" x="7" y="554"/><ellipse cx="77.25" cy="570" fill="#ADD1B2" rx="11" ry="11" style="stroke:#181818;stroke-width:1.0;"/><path d="M80.0156,565.875 Q80.1719,565.6563 80.3594,565.5469 Q80.5469,565.4375 80.7656,565.4375 Q81.1406,565.4375 81.375,565.7031 Q81.6094,565.9531 81.6094,566.5625 L81.6094,568.0156 Q81.6094,568.625 81.375,568.8906 Q81.1406,569.1563 80.7656,569.1563 Q80.4219,569.1563 80.2188,568.9531 Q80.0156,568.7656 79.9063,568.25 Q79.8594,567.8906 79.6719,567.7031 Q79.3438,567.3281 78.7344,567.1094 Q78.125,566.8906 77.5,566.8906 Q76.7344,566.8906 76.0938,567.2188 Q75.4688,567.5469 74.9688,568.2969 Q74.4844,569.0469 74.4844,570.0781 L74.4844,571.1719 Q74.4844,572.4063 75.375,573.2344 Q76.2656,574.0469 77.8594,574.0469 Q78.7969,574.0469 79.4531,573.7969 Q79.8438,573.6406 80.2656,573.2031 Q80.5313,572.9375 80.6719,572.8594 Q80.8281,572.7813 81.0313,572.7813 Q81.3594,572.7813 81.6094,573.0469 Q81.875,573.2969 81.875,573.6406 Q81.875,573.9844 81.5313,574.3906 Q81.0313,574.9688 80.2344,575.2969 Q79.1563,575.75 77.8594,575.75 Q76.3438,575.75 75.1406,575.125 Q74.1563,574.625 73.4688,573.5625 Q72.7813,572.4844 72.7813,571.2031 L72.7813,570.0469 Q72.7813,568.7188 73.3906,567.5781 Q74.0156,566.4219 75.1094,565.8125 Q76.2031,565.1875 77.4375,565.1875 Q78.1719,565.1875 78.8125,565.3594 Q79.4688,565.5156 80.0156,565.875 Z " fill="#000000"/><text fill="#000000" font-family="sans-serif" font-size="14" lengthAdjust="spacing" textLength="25" x="97.75" y="575.7969">Skill</text><line style="stroke:#181818;stroke-width:0.5;" x1="8" x2="180" y1="586" y2="586"/><line style="stroke:#181818;stroke-width:0.5;" x1="8" x2="180" y1="594" y2="594"/><text fill="#000000" font-family="sans-serif" font-size="14" lengthAdjust="spacing" textLength="162" x="13" y="613.1074">+validateName(skillName)</text></g><!--class RegisterSkillController--><g id="elem_RegisterSkillController"><rect codeLine="22" fill="#F1F1F1" height="66.6211" id="RegisterSkillController" rx="2.5" ry="2.5" style="stroke:#181818;stroke-width:0.5;" width="172" x="8" y="116"/><ellipse cx="23" cy="132" fill="#ADD1B2" rx="11" ry="11" style="stroke:#181818;stroke-width:1.0;"/><path d="M25.7656,127.875 Q25.9219,127.6563 26.1094,127.5469 Q26.2969,127.4375 26.5156,127.4375 Q26.8906,127.4375 27.125,127.7031 Q27.3594,127.9531 27.3594,128.5625 L27.3594,130.0156 Q27.3594,130.625 27.125,130.8906 Q26.8906,131.1563 26.5156,131.1563 Q26.1719,131.1563 25.9688,130.9531 Q25.7656,130.7656 25.6563,130.25 Q25.6094,129.8906 25.4219,129.7031 Q25.0938,129.3281 24.4844,129.1094 Q23.875,128.8906 23.25,128.8906 Q22.4844,128.8906 21.8438,129.2188 Q21.2188,129.5469 20.7188,130.2969 Q20.2344,131.0469 20.2344,132.0781 L20.2344,133.1719 Q20.2344,134.4063 21.125,135.2344 Q22.0156,136.0469 23.6094,136.0469 Q24.5469,136.0469 25.2031,135.7969 Q25.5938,135.6406 26.0156,135.2031 Q26.2813,134.9375 26.4219,134.8594 Q26.5781,134.7813 26.7813,134.7813 Q27.1094,134.7813 27.3594,135.0469 Q27.625,135.2969 27.625,135.6406 Q27.625,135.9844 27.2813,136.3906 Q26.7813,136.9688 25.9844,137.2969 Q24.9063,137.75 23.6094,137.75 Q22.0938,137.75 20.8906,137.125 Q19.9063,136.625 19.2188,135.5625 Q18.5313,134.4844 18.5313,133.2031 L18.5313,132.0469 Q18.5313,130.7188 19.1406,129.5781 Q19.7656,128.4219 20.8594,127.8125 Q21.9531,127.1875 23.1875,127.1875 Q23.9219,127.1875 24.5625,127.3594 Q25.2188,127.5156 25.7656,127.875 Z " fill="#000000"/><text fill="#000000" font-family="sans-serif" font-size="14" lengthAdjust="spacing" textLength="140" x="37" y="137.7969">RegisterSkillController</text><line style="stroke:#181818;stroke-width:0.5;" x1="9" x2="179" y1="148" y2="148"/><line style="stroke:#181818;stroke-width:0.5;" x1="9" x2="179" y1="156" y2="156"/><text fill="#000000" font-family="sans-serif" font-size="14" lengthAdjust="spacing" textLength="131" x="14" y="175.1074">+getSkillRepository()</text></g><!--class RegisterSkillUI--><g id="elem_RegisterSkillUI"><rect codeLine="18" fill="#F1F1F1" height="48" id="RegisterSkillUI" rx="2.5" ry="2.5" style="stroke:#181818;stroke-width:0.5;" width="122" x="33" y="7"/><ellipse cx="48" cy="23" fill="#ADD1B2" rx="11" ry="11" style="stroke:#181818;stroke-width:1.0;"/><path d="M50.7656,18.875 Q50.9219,18.6563 51.1094,18.5469 Q51.2969,18.4375 51.5156,18.4375 Q51.8906,18.4375 52.125,18.7031 Q52.3594,18.9531 52.3594,19.5625 L52.3594,21.0156 Q52.3594,21.625 52.125,21.8906 Q51.8906,22.1563 51.5156,22.1563 Q51.1719,22.1563 50.9688,21.9531 Q50.7656,21.7656 50.6563,21.25 Q50.6094,20.8906 50.4219,20.7031 Q50.0938,20.3281 49.4844,20.1094 Q48.875,19.8906 48.25,19.8906 Q47.4844,19.8906 46.8438,20.2188 Q46.2188,20.5469 45.7188,21.2969 Q45.2344,22.0469 45.2344,23.0781 L45.2344,24.1719 Q45.2344,25.4063 46.125,26.2344 Q47.0156,27.0469 48.6094,27.0469 Q49.5469,27.0469 50.2031,26.7969 Q50.5938,26.6406 51.0156,26.2031 Q51.2813,25.9375 51.4219,25.8594 Q51.5781,25.7813 51.7813,25.7813 Q52.1094,25.7813 52.3594,26.0469 Q52.625,26.2969 52.625,26.6406 Q52.625,26.9844 52.2813,27.3906 Q51.7813,27.9688 50.9844,28.2969 Q49.9063,28.75 48.6094,28.75 Q47.0938,28.75 45.8906,28.125 Q44.9063,27.625 44.2188,26.5625 Q43.5313,25.4844 43.5313,24.2031 L43.5313,23.0469 Q43.5313,21.7188 44.1406,20.5781 Q44.7656,19.4219 45.8594,18.8125 Q46.9531,18.1875 48.1875,18.1875 Q48.9219,18.1875 49.5625,18.3594 Q50.2188,18.5156 50.7656,18.875 Z " fill="#000000"/><text fill="#000000" font-family="sans-serif" font-size="14" lengthAdjust="spacing" textLength="90" x="62" y="28.7969">RegisterSkillUI</text><line style="stroke:#181818;stroke-width:0.5;" x1="34" x2="154" y1="39" y2="39"/><line style="stroke:#181818;stroke-width:0.5;" x1="34" x2="154" y1="47" y2="47"/></g><!--link Repositories to Repositories--><g id="link_Repositories_Repositories"><path codeLine="9" d="M165.68,291.08 C185.42,291.73 200.5,296.2 200.5,304.5 C200.5,312.8 191.4167,317.0725 171.6767,317.7225 " fill="none" id="Repositories-to-Repositories" style="stroke:#181818;stroke-width:1.0;"/><polygon fill="#181818" points="165.68,317.92,174.8068,321.6216,170.6773,317.7554,174.5435,313.626,165.68,317.92" style="stroke:#181818;stroke-width:1.0;"/><text fill="#000000" font-family="sans-serif" font-size="13" lengthAdjust="spacing" textLength="49" x="206.5" y="310.0283">instance</text></g><!--link Repositories to SkillRepository--><g id="link_Repositories_SkillRepository"><path codeLine="12" d="M94,347.11 C94,366.63 94,383.56 94,401.81 " fill="none" id="Repositories-to-SkillRepository" style="stroke:#181818;stroke-width:1.0;"/><polygon fill="#181818" points="94,407.81,98,398.81,94,402.81,90,398.81,94,407.81" style="stroke:#181818;stroke-width:1.0;"/><text fill="#000000" font-family="sans-serif" font-size="13" lengthAdjust="spacing" textLength="7" x="86.3328" y="396.8597">1</text></g><!--link SkillRepository to Skill--><g id="link_SkillRepository_Skill"><path codeLine="14" d="M94,475.18 C94,498.74 94,524.42 94,547.95 " fill="none" id="SkillRepository-to-Skill" style="stroke:#181818;stroke-width:1.0;stroke-dasharray:7.0,7.0;"/><polygon fill="#181818" points="94,553.95,98,544.95,94,548.95,90,544.95,94,553.95" style="stroke:#181818;stroke-width:1.0;"/><text fill="#000000" font-family="sans-serif" font-size="13" lengthAdjust="spacing" textLength="126" x="95" y="520.0283">createSkill(skillName)</text></g><!--link RegisterSkillController to Repositories--><g id="link_RegisterSkillController_Repositories"><path codeLine="15" d="M94,183.32 C94,206.33 94,231.26 94,255.98 " fill="none" id="RegisterSkillController-to-Repositories" style="stroke:#181818;stroke-width:1.0;stroke-dasharray:7.0,7.0;"/><polygon fill="#181818" points="94,261.98,98,252.98,94,256.98,90,252.98,94,261.98" style="stroke:#181818;stroke-width:1.0;"/><text fill="#000000" font-family="sans-serif" font-size="13" lengthAdjust="spacing" textLength="67" x="95" y="228.0283">repositories</text></g><!--link RegisterSkillUI to RegisterSkillController--><g id="link_RegisterSkillUI_RegisterSkillController"><path codeLine="16" d="M94,55.02 C94,72.39 94,90.46 94,109.83 " fill="none" id="RegisterSkillUI-to-RegisterSkillController" style="stroke:#181818;stroke-width:1.0;stroke-dasharray:7.0,7.0;"/><polygon fill="#181818" points="94,115.83,98,106.83,94,110.83,90,106.83,94,115.83" style="stroke:#181818;stroke-width:1.0;"/></g><!--SRC=[ZL3BJiCm4BplLwnwQIj41LSEbH2dI8W35HzWd6sogkEDx2qeLFrtd50Lr_I03vOcy_1avd77lZV1TDY95zi6wGWrx0b-cTxOdMbeeuCZ36JL-CRbWjYQMZxPDxWrBkQCOqywz8Izk644CBz2Ib39JDQP61zL0x_lbIehViDVX7SmTxHLLC70JQjOyrY6nGEyKY-HLG9JnDirNk07P1zJQKjGAfDqTZ_3pOwTEpC3GF41LwlrZoY5sK16QKABEDulfgDb2cuuAeM9U1AlGPoZC5cBEY63bxwtwgI_cWKmJOEbvG1mlCfbDGw0wTnWGrhyt6APkxEYcQKw3PYq_uafvoiVVquL_-ZFgW_Zk4uJZxlc2n_X6m00]--></g></svg>