<?xml version="1.0" encoding="us-ascii" standalone="no"?><svg xmlns="http://www.w3.org/2000/svg" xmlns:xlink="http://www.w3.org/1999/xlink" contentStyleType="text/css" height="667.8px" preserveAspectRatio="none" style="width:826px;height:667px;background:#FFFFFF;" version="1.1" viewBox="0 0 826 667" width="826.2px" zoomAndPan="magnify"><defs/><g><text fill="#000000" font-family="sans-serif" font-size="12.6" font-weight="bold" lengthAdjust="spacing" textLength="169.2" x="327.6" y="27.0967">US001 - Sequence Diagram</text><rect fill="#FFFFFF" height="464.9906" style="stroke:#181818;stroke-width:0.9;" width="9" x="29.7" y="119.918"/><rect fill="#FFFFFF" height="28.1619" style="stroke:#181818;stroke-width:0.9;" width="9" x="301.5" y="140.8799"/><rect fill="#FFFFFF" height="68.0238" style="stroke:#181818;stroke-width:0.9;" width="9" x="301.5" y="220.8656"/><rect fill="#FFFFFF" height="261.5572" style="stroke:#181818;stroke-width:0.9;" width="9" x="301.5" y="323.3514"/><rect fill="#FFFFFF" height="197.1334" style="stroke:#181818;stroke-width:0.9;" width="9" x="452.7" y="351.5133"/><rect fill="#FFFFFF" height="28.1619" style="stroke:#181818;stroke-width:0.9;" width="9" x="571.5" y="379.6752"/><rect fill="#FFFFFF" height="28.1619" style="stroke:#181818;stroke-width:0.9;" width="9" x="662.4" y="435.999"/><rect fill="#FFFFFF" height="28.1619" style="stroke:#181818;stroke-width:0.9;" width="9" x="765.45" y="492.3229"/><rect fill="none" height="113.5477" style="stroke:#000000;stroke-width:1.35;" width="436.5" x="9" y="182.5418"/><line style="stroke:#181818;stroke-width:0.45;stroke-dasharray:5.0,5.0;" x1="34.2" x2="34.2" y1="110.918" y2="593.0086"/><line style="stroke:#181818;stroke-width:0.45;stroke-dasharray:5.0,5.0;" x1="306" x2="306" y1="110.918" y2="593.0086"/><line style="stroke:#181818;stroke-width:0.45;stroke-dasharray:5.0,5.0;" x1="457.2" x2="457.2" y1="110.918" y2="593.0086"/><line style="stroke:#181818;stroke-width:0.45;stroke-dasharray:5.0,5.0;" x1="576" x2="576" y1="110.918" y2="593.0086"/><line style="stroke:#181818;stroke-width:0.45;stroke-dasharray:5.0,5.0;" x1="666.9" x2="666.9" y1="110.918" y2="593.0086"/><line style="stroke:#181818;stroke-width:0.45;stroke-dasharray:5.0,5.0;" x1="769.5" x2="769.5" y1="110.918" y2="593.0086"/><text fill="#000000" font-family="sans-serif" font-size="12.6" lengthAdjust="spacing" textLength="27" x="18" y="107.7557">HRM</text><ellipse cx="34.2" cy="47.809" fill="#E3E3E3" rx="7.2" ry="7.2" style="stroke:#181818;stroke-width:0.45;"/><path d="M34.2,55.009 L34.2,79.309 M22.5,62.209 L45.9,62.209 M34.2,79.309 L22.5,92.809 M34.2,79.309 L45.9,92.809 " fill="none" style="stroke:#181818;stroke-width:0.45;"/><text fill="#000000" font-family="sans-serif" font-size="12.6" lengthAdjust="spacing" textLength="27" x="18" y="605.7053">HRM</text><ellipse cx="34.2" cy="616.5176" fill="#E3E3E3" rx="7.2" ry="7.2" style="stroke:#181818;stroke-width:0.45;"/><path d="M34.2,623.7176 L34.2,648.0176 M22.5,630.9176 L45.9,630.9176 M34.2,648.0176 L22.5,661.5176 M34.2,648.0176 L45.9,661.5176 " fill="none" style="stroke:#181818;stroke-width:0.45;"/><rect fill="#E3E3E3" height="29.359" rx="2.25" ry="2.25" style="stroke:#181818;stroke-width:0.45;" width="97.2" x="257.4" y="80.659"/><text fill="#000000" font-family="sans-serif" font-size="12.6" lengthAdjust="spacing" textLength="84.6" x="263.7" y="100.5557">:RegisterSkillUI</text><rect fill="#E3E3E3" height="29.359" rx="2.25" ry="2.25" style="stroke:#181818;stroke-width:0.45;" width="97.2" x="257.4" y="592.1086"/><text fill="#000000" font-family="sans-serif" font-size="12.6" lengthAdjust="spacing" textLength="84.6" x="263.7" y="612.0053">:RegisterSkillUI</text><rect fill="#E3E3E3" height="29.359" rx="2.25" ry="2.25" style="stroke:#181818;stroke-width:0.45;" width="142.2" x="386.1" y="80.659"/><text fill="#000000" font-family="sans-serif" font-size="12.6" lengthAdjust="spacing" textLength="129.6" x="392.4" y="100.5557">:RegisterSkillController</text><rect fill="#E3E3E3" height="29.359" rx="2.25" ry="2.25" style="stroke:#181818;stroke-width:0.45;" width="142.2" x="386.1" y="592.1086"/><text fill="#000000" font-family="sans-serif" font-size="12.6" lengthAdjust="spacing" textLength="129.6" x="392.4" y="612.0053">:RegisterSkillController</text><rect fill="#E3E3E3" height="29.359" rx="2.25" ry="2.25" style="stroke:#181818;stroke-width:0.45;" width="77.4" x="537.3" y="80.659"/><text fill="#000000" font-family="sans-serif" font-size="12.6" lengthAdjust="spacing" textLength="64.8" x="543.6" y="100.5557">:Repository</text><rect fill="#E3E3E3" height="29.359" rx="2.25" ry="2.25" style="stroke:#181818;stroke-width:0.45;" width="77.4" x="537.3" y="592.1086"/><text fill="#000000" font-family="sans-serif" font-size="12.6" lengthAdjust="spacing" textLength="64.8" x="543.6" y="612.0053">:Repository</text><rect fill="#E3E3E3" height="46.118" rx="2.25" ry="2.25" style="stroke:#181818;stroke-width:0.45;" width="86.4" x="623.7" y="63.9"/><text fill="#000000" font-family="sans-serif" font-size="12.6" lengthAdjust="spacing" textLength="70.2" x="630" y="83.7967">:repositories</text><text fill="#000000" font-family="sans-serif" font-size="12.6" lengthAdjust="spacing" textLength="71.1" x="631.35" y="100.5557">Repositories</text><rect fill="#E3E3E3" height="46.118" rx="2.25" ry="2.25" style="stroke:#181818;stroke-width:0.45;" width="86.4" x="623.7" y="592.1086"/><text fill="#000000" font-family="sans-serif" font-size="12.6" lengthAdjust="spacing" textLength="70.2" x="630" y="612.0053">:repositories</text><text fill="#000000" font-family="sans-serif" font-size="12.6" lengthAdjust="spacing" textLength="71.1" x="631.35" y="628.7643">Repositories</text><rect fill="#E3E3E3" height="46.118" rx="2.25" ry="2.25" style="stroke:#181818;stroke-width:0.45;" width="101.7" x="719.1" y="63.9"/><text fill="#000000" font-family="sans-serif" font-size="12.6" lengthAdjust="spacing" textLength="85.5" x="725.4" y="83.7967">:skillRepository</text><text fill="#000000" font-family="sans-serif" font-size="12.6" lengthAdjust="spacing" textLength="83.7" x="728.1" y="100.5557">SkillRepository</text><rect fill="#E3E3E3" height="46.118" rx="2.25" ry="2.25" style="stroke:#181818;stroke-width:0.45;" width="101.7" x="719.1" y="592.1086"/><text fill="#000000" font-family="sans-serif" font-size="12.6" lengthAdjust="spacing" textLength="85.5" x="725.4" y="612.0053">:skillRepository</text><text fill="#000000" font-family="sans-serif" font-size="12.6" lengthAdjust="spacing" textLength="83.7" x="728.1" y="628.7643">SkillRepository</text><rect fill="#FFFFFF" height="464.9906" style="stroke:#181818;stroke-width:0.9;" width="9" x="29.7" y="119.918"/><rect fill="#FFFFFF" height="28.1619" style="stroke:#181818;stroke-width:0.9;" width="9" x="301.5" y="140.8799"/><rect fill="#FFFFFF" height="68.0238" style="stroke:#181818;stroke-width:0.9;" width="9" x="301.5" y="220.8656"/><rect fill="#FFFFFF" height="261.5572" style="stroke:#181818;stroke-width:0.9;" width="9" x="301.5" y="323.3514"/><rect fill="#FFFFFF" height="197.1334" style="stroke:#181818;stroke-width:0.9;" width="9" x="452.7" y="351.5133"/><rect fill="#FFFFFF" height="28.1619" style="stroke:#181818;stroke-width:0.9;" width="9" x="571.5" y="379.6752"/><rect fill="#FFFFFF" height="28.1619" style="stroke:#181818;stroke-width:0.9;" width="9" x="662.4" y="435.999"/><rect fill="#FFFFFF" height="28.1619" style="stroke:#181818;stroke-width:0.9;" width="9" x="765.45" y="492.3229"/><polygon fill="#181818" points="290.7,137.2799,299.7,140.8799,290.7,144.4799,294.3,140.8799" style="stroke:#181818;stroke-width:0.9;"/><line style="stroke:#181818;stroke-width:0.9;" x1="38.7" x2="296.1" y1="140.8799" y2="140.8799"/><text fill="#000000" font-family="sans-serif" font-size="11.7" font-weight="bold" lengthAdjust="spacing" textLength="6.3" x="45" y="136.1435">1</text><text fill="#000000" font-family="sans-serif" font-size="11.7" lengthAdjust="spacing" textLength="141.3" x="54.9" y="136.1435">Asks to register a new skill</text><polygon fill="#181818" points="48.6,165.4418,39.6,169.0418,48.6,172.6418,45,169.0418" style="stroke:#181818;stroke-width:0.9;"/><line style="stroke:#181818;stroke-width:0.9;stroke-dasharray:2.0,2.0;" x1="43.2" x2="305.1" y1="169.0418" y2="169.0418"/><text fill="#000000" font-family="sans-serif" font-size="11.7" font-weight="bold" lengthAdjust="spacing" textLength="6.3" x="54" y="164.3054">2</text><text fill="#000000" font-family="sans-serif" font-size="11.7" lengthAdjust="spacing" textLength="139.5" x="63.9" y="164.3054">Requests data (skill name)</text><path d="M9,182.5418 L74.7,182.5418 L74.7,190.9037 L65.7,199.9037 L9,199.9037 L9,182.5418 " fill="#EEEEEE" style="stroke:#000000;stroke-width:1.35;"/><rect fill="none" height="113.5477" style="stroke:#000000;stroke-width:1.35;" width="436.5" x="9" y="182.5418"/><text fill="#000000" font-family="sans-serif" font-size="11.7" font-weight="bold" lengthAdjust="spacing" textLength="25.2" x="22.5" y="196.0673">loop</text><text fill="#000000" font-family="sans-serif" font-size="9.9" font-weight="bold" lengthAdjust="spacing" textLength="141.3" x="88.2" y="195.0249">[until typed data is validated]</text><polygon fill="#181818" points="290.7,217.2656,299.7,220.8656,290.7,224.4656,294.3,220.8656" style="stroke:#181818;stroke-width:0.9;"/><line style="stroke:#181818;stroke-width:0.9;" x1="38.7" x2="296.1" y1="220.8656" y2="220.8656"/><text fill="#000000" font-family="sans-serif" font-size="11.7" font-weight="bold" lengthAdjust="spacing" textLength="6.3" x="45" y="216.1292">3</text><text fill="#000000" font-family="sans-serif" font-size="11.7" lengthAdjust="spacing" textLength="112.5" x="54.9" y="216.1292">Types requested data</text><line style="stroke:#181818;stroke-width:0.9;stroke-dasharray:2.0,2.0;" x1="310.5" x2="348.3" y1="249.0275" y2="249.0275"/><line style="stroke:#181818;stroke-width:0.9;stroke-dasharray:2.0,2.0;" x1="348.3" x2="348.3" y1="249.0275" y2="260.7275"/><line style="stroke:#181818;stroke-width:0.9;stroke-dasharray:2.0,2.0;" x1="311.4" x2="348.3" y1="260.7275" y2="260.7275"/><polygon fill="#181818" points="320.4,257.1275,311.4,260.7275,320.4,264.3275,316.8,260.7275" style="stroke:#181818;stroke-width:0.9;"/><text fill="#000000" font-family="sans-serif" font-size="11.7" font-weight="bold" lengthAdjust="spacing" textLength="6.3" x="316.8" y="244.2911">4</text><text fill="#000000" font-family="sans-serif" font-size="11.7" lengthAdjust="spacing" textLength="108" x="326.7" y="244.2911">keepData(skillName)</text><polygon fill="#181818" points="48.6,285.2895,39.6,288.8895,48.6,292.4895,45,288.8895" style="stroke:#181818;stroke-width:0.9;"/><line style="stroke:#181818;stroke-width:0.9;stroke-dasharray:2.0,2.0;" x1="43.2" x2="305.1" y1="288.8895" y2="288.8895"/><text fill="#000000" font-family="sans-serif" font-size="11.7" font-weight="bold" lengthAdjust="spacing" textLength="6.3" x="54" y="284.153">5</text><text fill="#000000" font-family="sans-serif" font-size="11.7" lengthAdjust="spacing" textLength="231.3" x="63.9" y="284.153">Shows typed data and requests confirmation</text><polygon fill="#181818" points="290.7,319.7514,299.7,323.3514,290.7,326.9514,294.3,323.3514" style="stroke:#181818;stroke-width:0.9;"/><line style="stroke:#181818;stroke-width:0.9;" x1="38.7" x2="296.1" y1="323.3514" y2="323.3514"/><text fill="#000000" font-family="sans-serif" font-size="11.7" font-weight="bold" lengthAdjust="spacing" textLength="6.3" x="45" y="318.6149">6</text><text fill="#000000" font-family="sans-serif" font-size="11.7" lengthAdjust="spacing" textLength="139.5" x="54.9" y="318.6149">Confirms data and submits</text><polygon fill="#181818" points="441.9,347.9133,450.9,351.5133,441.9,355.1133,445.5,351.5133" style="stroke:#181818;stroke-width:0.9;"/><line style="stroke:#181818;stroke-width:0.9;" x1="310.5" x2="447.3" y1="351.5133" y2="351.5133"/><text fill="#000000" font-family="sans-serif" font-size="11.7" font-weight="bold" lengthAdjust="spacing" textLength="6.3" x="316.8" y="346.7769">7</text><text fill="#000000" font-family="sans-serif" font-size="11.7" lengthAdjust="spacing" textLength="115.2" x="326.7" y="346.7769">createSkill(skill name)</text><polygon fill="#181818" points="560.7,376.0752,569.7,379.6752,560.7,383.2752,564.3,379.6752" style="stroke:#181818;stroke-width:0.9;"/><line style="stroke:#181818;stroke-width:0.9;" x1="461.7" x2="566.1" y1="379.6752" y2="379.6752"/><text fill="#000000" font-family="sans-serif" font-size="11.7" font-weight="bold" lengthAdjust="spacing" textLength="6.3" x="468" y="374.9388">8</text><text fill="#000000" font-family="sans-serif" font-size="11.7" lengthAdjust="spacing" textLength="67.5" x="477.9" y="374.9388">getInstance()</text><polygon fill="#181818" points="471.6,404.2371,462.6,407.8371,471.6,411.4371,468,407.8371" style="stroke:#181818;stroke-width:0.9;"/><line style="stroke:#181818;stroke-width:0.9;stroke-dasharray:2.0,2.0;" x1="466.2" x2="575.1" y1="407.8371" y2="407.8371"/><text fill="#000000" font-family="sans-serif" font-size="11.7" font-weight="bold" lengthAdjust="spacing" textLength="6.3" x="477" y="403.1007">9</text><text fill="#000000" font-family="sans-serif" font-size="11.7" lengthAdjust="spacing" textLength="60.3" x="486.9" y="403.1007">repositories</text><polygon fill="#181818" points="651.6,432.399,660.6,435.999,651.6,439.599,655.2,435.999" style="stroke:#181818;stroke-width:0.9;"/><line style="stroke:#181818;stroke-width:0.9;" x1="461.7" x2="657" y1="435.999" y2="435.999"/><text fill="#000000" font-family="sans-serif" font-size="11.7" font-weight="bold" lengthAdjust="spacing" textLength="12.6" x="468" y="431.2626">10</text><text fill="#000000" font-family="sans-serif" font-size="11.7" lengthAdjust="spacing" textLength="101.7" x="484.2" y="431.2626">getSkillRepository()</text><polygon fill="#181818" points="471.6,460.5609,462.6,464.1609,471.6,467.7609,468,464.1609" style="stroke:#181818;stroke-width:0.9;"/><line style="stroke:#181818;stroke-width:0.9;stroke-dasharray:2.0,2.0;" x1="466.2" x2="666" y1="464.1609" y2="464.1609"/><text fill="#000000" font-family="sans-serif" font-size="11.7" font-weight="bold" lengthAdjust="spacing" textLength="12.6" x="477" y="459.4245">11</text><text fill="#000000" font-family="sans-serif" font-size="11.7" lengthAdjust="spacing" textLength="76.5" x="493.2" y="459.4245">skillRepository</text><polygon fill="#181818" points="754.65,488.7229,763.65,492.3229,754.65,495.9229,758.25,492.3229" style="stroke:#181818;stroke-width:0.9;"/><line style="stroke:#181818;stroke-width:0.9;" x1="461.7" x2="760.05" y1="492.3229" y2="492.3229"/><text fill="#000000" font-family="sans-serif" font-size="11.7" font-weight="bold" lengthAdjust="spacing" textLength="12.6" x="468" y="487.5864">12</text><text fill="#000000" font-family="sans-serif" font-size="11.7" lengthAdjust="spacing" textLength="133.2" x="484.2" y="487.5864">addToSkillList(skill name)</text><polygon fill="#181818" points="471.6,516.8848,462.6,520.4848,471.6,524.0848,468,520.4848" style="stroke:#181818;stroke-width:0.9;"/><line style="stroke:#181818;stroke-width:0.9;stroke-dasharray:2.0,2.0;" x1="466.2" x2="769.05" y1="520.4848" y2="520.4848"/><text fill="#000000" font-family="sans-serif" font-size="11.7" font-weight="bold" lengthAdjust="spacing" textLength="12.6" x="477" y="515.7483">13</text><text fill="#000000" font-family="sans-serif" font-size="11.7" lengthAdjust="spacing" textLength="53.1" x="493.2" y="515.7483">skill name</text><polygon fill="#181818" points="320.4,545.0467,311.4,548.6467,320.4,552.2467,316.8,548.6467" style="stroke:#181818;stroke-width:0.9;"/><line style="stroke:#181818;stroke-width:0.9;stroke-dasharray:2.0,2.0;" x1="315" x2="456.3" y1="548.6467" y2="548.6467"/><text fill="#000000" font-family="sans-serif" font-size="11.7" font-weight="bold" lengthAdjust="spacing" textLength="12.6" x="325.8" y="543.9103">14</text><text fill="#000000" font-family="sans-serif" font-size="11.7" lengthAdjust="spacing" textLength="53.1" x="342" y="543.9103">skill name</text><polygon fill="#181818" points="48.6,573.2086,39.6,576.8086,48.6,580.4086,45,576.8086" style="stroke:#181818;stroke-width:0.9;"/><line style="stroke:#181818;stroke-width:0.9;stroke-dasharray:2.0,2.0;" x1="43.2" x2="300.6" y1="576.8086" y2="576.8086"/><text fill="#000000" font-family="sans-serif" font-size="11.7" font-weight="bold" lengthAdjust="spacing" textLength="12.6" x="54" y="572.0722">15</text><text fill="#000000" font-family="sans-serif" font-size="11.7" lengthAdjust="spacing" textLength="144" x="70.2" y="572.0722">Displays operation success</text><!--SRC=[ZPJ1RgCm48RlVefHJkqXKlUQGwLL4cahxLOLRczxSSsKM34szPX6lFqE9Y4KIB8-mV3Fvt_i6MXlNAM2Ag7qpkjTy2L233KAwhzKIkzLWJ8s5Y6WZieLTYYWdShzmRW2FfGb52AQoD8t-V3m0vOWyRD6fn4sHXMi5qBLqRkwVCV0pphw08jVsPy5A89jMLdV80f6HwDDfLo4nIh3mb348FV6shUd99KDHyfhmhLtCNXhCQI4JAudwigJOGDD9zY-Z0JX9318yDTbWzTJXXobKBlp6SnPydkaCv-bqisNYdWkMW2lqnii7uyrmWf-qfuWUZx_hZvGuF00QREKrSEEnvA2xJeYbaphoIl8sakXI92hgE0kSS2f4kzJOevZNXkrtbTGksWinAR2l4is15_A6dx6_781hvn0R3zjUqoTDJxZkuVi4QiD9tP-dvFT6uNAdJ_GqAvo-Sa6WVRkmuHIHUETk50vkYjbhJi0dTbKlvScqd_LzjZs95DqG5QbFfbSnJTEsy9zzBHQHelQlZ2gmFZaY6TKuztzL7icSQzFG4nOzgQ6lJ-H3evfbjHRafsdqGpSiYRdlCc1kT6KtV0dBnwQp1YcylpL9uU_URXcRs1YaWTu_8rP8uC9SirR-niG4rl31Xjmn5nnRKFS686DeSggXi1N65AhSvDgZKJY7m00]--></g></svg>