<?xml version="1.0" encoding="us-ascii" standalone="no"?><svg xmlns="http://www.w3.org/2000/svg" xmlns:xlink="http://www.w3.org/1999/xlink" contentStyleType="text/css" height="1045px" preserveAspectRatio="none" style="width:978px;height:1045px;background:#FFFFFF;" version="1.1" viewBox="0 0 978 1045" width="978px" zoomAndPan="magnify"><defs/><g><text fill="#000000" font-family="sans-serif" font-size="14" font-weight="bold" lengthAdjust="spacing" textLength="188" x="393.5" y="30.1074">US001 - Sequence Diagram</text><rect fill="#FFFFFF" height="820.4023" style="stroke:#181818;stroke-width:1.0;" width="10" x="18" y="133.2422"/><rect fill="#FFFFFF" height="31.291" style="stroke:#181818;stroke-width:1.0;" width="10" x="308" y="156.5332"/><rect fill="#FFFFFF" height="250.7461" style="stroke:#181818;stroke-width:1.0;" width="10" x="308" y="219.1152"/><rect fill="#FFFFFF" height="75.582" style="stroke:#181818;stroke-width:1.0;" width="10" x="308" y="501.1523"/><rect fill="#FFFFFF" height="336.6191" style="stroke:#181818;stroke-width:1.0;" width="10" x="308" y="608.0254"/><rect fill="#FFFFFF" height="118.873" style="stroke:#181818;stroke-width:1.0;" width="10" x="472" y="319.6973"/><rect fill="#FFFFFF" height="274.0371" style="stroke:#181818;stroke-width:1.0;" width="10" x="472" y="639.3164"/><rect fill="#FFFFFF" height="56.291" style="stroke:#181818;stroke-width:1.0;" width="10" x="610.5" y="350.9883"/><rect fill="#FFFFFF" height="211.4551" style="stroke:#181818;stroke-width:1.0;" width="10" x="610.5" y="670.6074"/><line style="stroke:#181818;stroke-width:0.5;stroke-dasharray:5.0,5.0;" x1="23" x2="23" y1="123.2422" y2="962.6445"/><line style="stroke:#181818;stroke-width:0.5;stroke-dasharray:5.0,5.0;" x1="313" x2="313" y1="123.2422" y2="962.6445"/><line style="stroke:#181818;stroke-width:0.5;stroke-dasharray:5.0,5.0;" x1="477" x2="477" y1="123.2422" y2="962.6445"/><line style="stroke:#181818;stroke-width:0.5;stroke-dasharray:5.0,5.0;" x1="615" x2="615" y1="123.2422" y2="962.6445"/><line style="stroke:#181818;stroke-width:0.5;stroke-dasharray:5.0,5.0;" x1="769" x2="769" y1="123.2422" y2="962.6445"/><text fill="#000000" font-family="sans-serif" font-size="14" lengthAdjust="spacing" textLength="30" x="5" y="119.7285">HRM</text><ellipse cx="23" cy="53.1211" fill="#E3E3E3" rx="8" ry="8" style="stroke:#181818;stroke-width:0.5;"/><path d="M23,61.1211 L23,88.1211 M10,69.1211 L36,69.1211 M23,88.1211 L10,103.1211 M23,88.1211 L36,103.1211 " fill="none" style="stroke:#181818;stroke-width:0.5;"/><text fill="#000000" font-family="sans-serif" font-size="14" lengthAdjust="spacing" textLength="30" x="5" y="976.752">HRM</text><ellipse cx="23" cy="988.7656" fill="#E3E3E3" rx="8" ry="8" style="stroke:#181818;stroke-width:0.5;"/><path d="M23,996.7656 L23,1023.7656 M10,1004.7656 L36,1004.7656 M23,1023.7656 L10,1038.7656 M23,1023.7656 L36,1038.7656 " fill="none" style="stroke:#181818;stroke-width:0.5;"/><rect fill="#E3E3E3" height="32.6211" rx="2.5" ry="2.5" style="stroke:#181818;stroke-width:0.5;" width="108" x="259" y="89.6211"/><text fill="#000000" font-family="sans-serif" font-size="14" lengthAdjust="spacing" textLength="94" x="266" y="111.7285">:RegisterSkillUI</text><rect fill="#E3E3E3" height="32.6211" rx="2.5" ry="2.5" style="stroke:#181818;stroke-width:0.5;" width="108" x="259" y="961.6445"/><text fill="#000000" font-family="sans-serif" font-size="14" lengthAdjust="spacing" textLength="94" x="266" y="983.752">:RegisterSkillUI</text><rect fill="#E3E3E3" height="32.6211" rx="2.5" ry="2.5" style="stroke:#181818;stroke-width:0.5;" width="158" x="398" y="89.6211"/><text fill="#000000" font-family="sans-serif" font-size="14" lengthAdjust="spacing" textLength="144" x="405" y="111.7285">:RegisterSkillController</text><rect fill="#E3E3E3" height="32.6211" rx="2.5" ry="2.5" style="stroke:#181818;stroke-width:0.5;" width="158" x="398" y="961.6445"/><text fill="#000000" font-family="sans-serif" font-size="14" lengthAdjust="spacing" textLength="144" x="405" y="983.752">:RegisterSkillController</text><rect fill="#E3E3E3" height="51.2422" rx="2.5" ry="2.5" style="stroke:#181818;stroke-width:0.5;" width="99" x="566" y="71"/><text fill="#000000" font-family="sans-serif" font-size="14" lengthAdjust="spacing" textLength="81" x="573" y="93.1074">:organization</text><text fill="#000000" font-family="sans-serif" font-size="14" lengthAdjust="spacing" textLength="80" x="575.5" y="111.7285">Organization</text><rect fill="#E3E3E3" height="51.2422" rx="2.5" ry="2.5" style="stroke:#181818;stroke-width:0.5;" width="99" x="566" y="961.6445"/><text fill="#000000" font-family="sans-serif" font-size="14" lengthAdjust="spacing" textLength="81" x="573" y="983.752">:organization</text><text fill="#000000" font-family="sans-serif" font-size="14" lengthAdjust="spacing" textLength="80" x="575.5" y="1002.373">Organization</text><rect fill="#E3E3E3" height="51.2422" rx="2.5" ry="2.5" style="stroke:#181818;stroke-width:0.5;" width="47" x="746" y="71"/><text fill="#000000" font-family="sans-serif" font-size="14" lengthAdjust="spacing" textLength="29" x="753" y="93.1074">:Skill</text><text fill="#000000" font-family="sans-serif" font-size="14" lengthAdjust="spacing" textLength="25" x="757" y="111.7285">Skill</text><rect fill="#E3E3E3" height="51.2422" rx="2.5" ry="2.5" style="stroke:#181818;stroke-width:0.5;" width="47" x="746" y="961.6445"/><text fill="#000000" font-family="sans-serif" font-size="14" lengthAdjust="spacing" textLength="29" x="753" y="983.752">:Skill</text><text fill="#000000" font-family="sans-serif" font-size="14" lengthAdjust="spacing" textLength="25" x="757" y="1002.373">Skill</text><rect fill="#FFFFFF" height="820.4023" style="stroke:#181818;stroke-width:1.0;" width="10" x="18" y="133.2422"/><rect fill="#FFFFFF" height="31.291" style="stroke:#181818;stroke-width:1.0;" width="10" x="308" y="156.5332"/><rect fill="#FFFFFF" height="250.7461" style="stroke:#181818;stroke-width:1.0;" width="10" x="308" y="219.1152"/><rect fill="#FFFFFF" height="75.582" style="stroke:#181818;stroke-width:1.0;" width="10" x="308" y="501.1523"/><rect fill="#FFFFFF" height="336.6191" style="stroke:#181818;stroke-width:1.0;" width="10" x="308" y="608.0254"/><rect fill="#FFFFFF" height="118.873" style="stroke:#181818;stroke-width:1.0;" width="10" x="472" y="319.6973"/><rect fill="#FFFFFF" height="274.0371" style="stroke:#181818;stroke-width:1.0;" width="10" x="472" y="639.3164"/><rect fill="#FFFFFF" height="56.291" style="stroke:#181818;stroke-width:1.0;" width="10" x="610.5" y="350.9883"/><rect fill="#FFFFFF" height="211.4551" style="stroke:#181818;stroke-width:1.0;" width="10" x="610.5" y="670.6074"/><polygon fill="#181818" points="296,152.5332,306,156.5332,296,160.5332,300,156.5332" style="stroke:#181818;stroke-width:1.0;"/><line style="stroke:#181818;stroke-width:1.0;" x1="28" x2="302" y1="156.5332" y2="156.5332"/><text fill="#000000" font-family="sans-serif" font-size="13" font-weight="bold" lengthAdjust="spacing" textLength="7" x="35" y="151.2705">1</text><text fill="#000000" font-family="sans-serif" font-size="13" lengthAdjust="spacing" textLength="130" x="46" y="151.2705">Asks to register a skill</text><polygon fill="#181818" points="39,183.8242,29,187.8242,39,191.8242,35,187.8242" style="stroke:#181818;stroke-width:1.0;"/><line style="stroke:#181818;stroke-width:1.0;stroke-dasharray:2.0,2.0;" x1="33" x2="312" y1="187.8242" y2="187.8242"/><text fill="#000000" font-family="sans-serif" font-size="13" font-weight="bold" lengthAdjust="spacing" textLength="7" x="45" y="182.5615">2</text><text fill="#000000" font-family="sans-serif" font-size="13" lengthAdjust="spacing" textLength="144" x="56" y="182.5615">Request data(skill name)</text><polygon fill="#181818" points="296,215.1152,306,219.1152,296,223.1152,300,219.1152" style="stroke:#181818;stroke-width:1.0;"/><line style="stroke:#181818;stroke-width:1.0;" x1="28" x2="302" y1="219.1152" y2="219.1152"/><text fill="#000000" font-family="sans-serif" font-size="13" font-weight="bold" lengthAdjust="spacing" textLength="7" x="35" y="213.8525">3</text><text fill="#000000" font-family="sans-serif" font-size="13" lengthAdjust="spacing" textLength="125" x="46" y="213.8525">Types requested data</text><line style="stroke:#181818;stroke-width:1.0;stroke-dasharray:2.0,2.0;" x1="318" x2="360" y1="250.4063" y2="250.4063"/><line style="stroke:#181818;stroke-width:1.0;stroke-dasharray:2.0,2.0;" x1="360" x2="360" y1="250.4063" y2="263.4063"/><line style="stroke:#181818;stroke-width:1.0;stroke-dasharray:2.0,2.0;" x1="319" x2="360" y1="263.4063" y2="263.4063"/><polygon fill="#181818" points="329,259.4063,319,263.4063,329,267.4063,325,263.4063" style="stroke:#181818;stroke-width:1.0;"/><text fill="#000000" font-family="sans-serif" font-size="13" font-weight="bold" lengthAdjust="spacing" textLength="7" x="325" y="245.1436">4</text><text fill="#000000" font-family="sans-serif" font-size="13" lengthAdjust="spacing" textLength="122" x="336" y="245.1436">keepData(skill name)</text><polygon fill="#181818" points="460,315.6973,470,319.6973,460,323.6973,464,319.6973" style="stroke:#181818;stroke-width:1.0;"/><line style="stroke:#181818;stroke-width:1.0;" x1="318" x2="466" y1="319.6973" y2="319.6973"/><text fill="#000000" font-family="sans-serif" font-size="13" font-weight="bold" lengthAdjust="spacing" textLength="7" x="325" y="314.4346">5</text><text fill="#000000" font-family="sans-serif" font-size="13" lengthAdjust="spacing" textLength="72" x="336" y="314.4346">getSkillList()</text><polygon fill="#181818" points="598.5,346.9883,608.5,350.9883,598.5,354.9883,602.5,350.9883" style="stroke:#181818;stroke-width:1.0;"/><line style="stroke:#181818;stroke-width:1.0;" x1="482" x2="604.5" y1="350.9883" y2="350.9883"/><text fill="#000000" font-family="sans-serif" font-size="13" font-weight="bold" lengthAdjust="spacing" textLength="7" x="489" y="345.7256">6</text><text fill="#000000" font-family="sans-serif" font-size="13" lengthAdjust="spacing" textLength="72" x="500" y="345.7256">getSkillList()</text><polygon fill="#181818" points="493,403.2793,483,407.2793,493,411.2793,489,407.2793" style="stroke:#181818;stroke-width:1.0;"/><line style="stroke:#181818;stroke-width:1.0;stroke-dasharray:2.0,2.0;" x1="487" x2="614.5" y1="407.2793" y2="407.2793"/><text fill="#000000" font-family="sans-serif" font-size="13" font-weight="bold" lengthAdjust="spacing" textLength="7" x="499" y="402.0166">7</text><text fill="#000000" font-family="sans-serif" font-size="13" lengthAdjust="spacing" textLength="46" x="510" y="402.0166">SkillList</text><polygon fill="#181818" points="329,434.5703,319,438.5703,329,442.5703,325,438.5703" style="stroke:#181818;stroke-width:1.0;"/><line style="stroke:#181818;stroke-width:1.0;stroke-dasharray:2.0,2.0;" x1="323" x2="476" y1="438.5703" y2="438.5703"/><text fill="#000000" font-family="sans-serif" font-size="13" font-weight="bold" lengthAdjust="spacing" textLength="7" x="335" y="433.3076">8</text><text fill="#000000" font-family="sans-serif" font-size="13" lengthAdjust="spacing" textLength="46" x="346" y="433.3076">SkillList</text><polygon fill="#181818" points="39,465.8613,29,469.8613,39,473.8613,35,469.8613" style="stroke:#181818;stroke-width:1.0;"/><line style="stroke:#181818;stroke-width:1.0;stroke-dasharray:2.0,2.0;" x1="33" x2="312" y1="469.8613" y2="469.8613"/><text fill="#000000" font-family="sans-serif" font-size="13" font-weight="bold" lengthAdjust="spacing" textLength="7" x="45" y="464.5986">9</text><text fill="#000000" font-family="sans-serif" font-size="13" lengthAdjust="spacing" textLength="225" x="56" y="464.5986">Shows Skill list and asks to select one</text><polygon fill="#181818" points="296,497.1523,306,501.1523,296,505.1523,300,501.1523" style="stroke:#181818;stroke-width:1.0;"/><line style="stroke:#181818;stroke-width:1.0;" x1="28" x2="302" y1="501.1523" y2="501.1523"/><text fill="#000000" font-family="sans-serif" font-size="13" font-weight="bold" lengthAdjust="spacing" textLength="14" x="35" y="495.8896">10</text><text fill="#000000" font-family="sans-serif" font-size="13" lengthAdjust="spacing" textLength="82" x="53" y="495.8896">Selects a skill</text><line style="stroke:#181818;stroke-width:1.0;stroke-dasharray:2.0,2.0;" x1="318" x2="360" y1="532.4434" y2="532.4434"/><line style="stroke:#181818;stroke-width:1.0;stroke-dasharray:2.0,2.0;" x1="360" x2="360" y1="532.4434" y2="545.4434"/><line style="stroke:#181818;stroke-width:1.0;stroke-dasharray:2.0,2.0;" x1="319" x2="360" y1="545.4434" y2="545.4434"/><polygon fill="#181818" points="329,541.4434,319,545.4434,329,549.4434,325,545.4434" style="stroke:#181818;stroke-width:1.0;"/><text fill="#000000" font-family="sans-serif" font-size="13" font-weight="bold" lengthAdjust="spacing" textLength="14" x="325" y="527.1807">11</text><text fill="#000000" font-family="sans-serif" font-size="13" lengthAdjust="spacing" textLength="122" x="343" y="527.1807">keepData(skill name)</text><polygon fill="#181818" points="39,572.7344,29,576.7344,39,580.7344,35,576.7344" style="stroke:#181818;stroke-width:1.0;"/><line style="stroke:#181818;stroke-width:1.0;stroke-dasharray:2.0,2.0;" x1="33" x2="312" y1="576.7344" y2="576.7344"/><text fill="#000000" font-family="sans-serif" font-size="13" font-weight="bold" lengthAdjust="spacing" textLength="14" x="45" y="571.4717">12</text><text fill="#000000" font-family="sans-serif" font-size="13" lengthAdjust="spacing" textLength="238" x="63" y="571.4717">Shows all data and requests confirmation</text><polygon fill="#181818" points="296,604.0254,306,608.0254,296,612.0254,300,608.0254" style="stroke:#181818;stroke-width:1.0;"/><line style="stroke:#181818;stroke-width:1.0;" x1="28" x2="302" y1="608.0254" y2="608.0254"/><text fill="#000000" font-family="sans-serif" font-size="13" font-weight="bold" lengthAdjust="spacing" textLength="14" x="35" y="602.7627">13</text><text fill="#000000" font-family="sans-serif" font-size="13" lengthAdjust="spacing" textLength="80" x="53" y="602.7627">Confirms data</text><polygon fill="#181818" points="460,635.3164,470,639.3164,460,643.3164,464,639.3164" style="stroke:#181818;stroke-width:1.0;"/><line style="stroke:#181818;stroke-width:1.0;" x1="318" x2="466" y1="639.3164" y2="639.3164"/><text fill="#000000" font-family="sans-serif" font-size="13" font-weight="bold" lengthAdjust="spacing" textLength="14" x="325" y="634.0537">14</text><text fill="#000000" font-family="sans-serif" font-size="13" lengthAdjust="spacing" textLength="101" x="343" y="634.0537">createSkill(name)</text><polygon fill="#181818" points="598.5,666.6074,608.5,670.6074,598.5,674.6074,602.5,670.6074" style="stroke:#181818;stroke-width:1.0;"/><line style="stroke:#181818;stroke-width:1.0;" x1="318" x2="604.5" y1="670.6074" y2="670.6074"/><text fill="#000000" font-family="sans-serif" font-size="13" font-weight="bold" lengthAdjust="spacing" textLength="14" x="325" y="665.3447">15</text><text fill="#000000" font-family="sans-serif" font-size="13" lengthAdjust="spacing" textLength="101" x="343" y="665.3447">createSkill(name)</text><polygon fill="#181818" points="757.5,697.8984,767.5,701.8984,757.5,705.8984,761.5,701.8984" style="stroke:#181818;stroke-width:1.0;"/><line style="stroke:#181818;stroke-width:1.0;" x1="620.5" x2="763.5" y1="701.8984" y2="701.8984"/><text fill="#000000" font-family="sans-serif" font-size="13" font-weight="bold" lengthAdjust="spacing" textLength="14" x="627.5" y="696.6357">16</text><text fill="#000000" font-family="sans-serif" font-size="13" lengthAdjust="spacing" textLength="101" x="645.5" y="696.6357">createSkill(name)</text><path d="M774,714.8984 L774,758.8984 L971,758.8984 L971,724.8984 L961,714.8984 L774,714.8984 " fill="#FAFAFA" style="stroke:#181818;stroke-width:0.5;"/><path d="M961,714.8984 L961,724.8984 L971,724.8984 L961,714.8984 " fill="#FAFAFA" style="stroke:#181818;stroke-width:0.5;"/><text fill="#000000" font-family="sans-serif" font-size="13" lengthAdjust="spacing" textLength="94" x="780" y="733.9268">Skill constructor</text><text fill="#000000" font-family="sans-serif" font-size="13" lengthAdjust="spacing" textLength="172" x="784" y="751.2178">normally validates arguments.</text><line style="stroke:#181818;stroke-width:1.0;" x1="620.5" x2="662.5" y1="837.7715" y2="837.7715"/><line style="stroke:#181818;stroke-width:1.0;" x1="662.5" x2="662.5" y1="837.7715" y2="850.7715"/><line style="stroke:#181818;stroke-width:1.0;" x1="621.5" x2="662.5" y1="850.7715" y2="850.7715"/><polygon fill="#181818" points="631.5,846.7715,621.5,850.7715,631.5,854.7715,627.5,850.7715" style="stroke:#181818;stroke-width:1.0;"/><text fill="#000000" font-family="sans-serif" font-size="13" font-weight="bold" lengthAdjust="spacing" textLength="14" x="627.5" y="832.5088">17</text><text fill="#000000" font-family="sans-serif" font-size="13" lengthAdjust="spacing" textLength="112" x="645.5" y="832.5088">addToSkillList(skill)</text><polygon fill="#181818" points="493,878.0625,483,882.0625,493,886.0625,489,882.0625" style="stroke:#181818;stroke-width:1.0;"/><line style="stroke:#181818;stroke-width:1.0;stroke-dasharray:2.0,2.0;" x1="487" x2="614.5" y1="882.0625" y2="882.0625"/><text fill="#000000" font-family="sans-serif" font-size="13" font-weight="bold" lengthAdjust="spacing" textLength="14" x="499" y="876.7998">18</text><text fill="#000000" font-family="sans-serif" font-size="13" lengthAdjust="spacing" textLength="23" x="517" y="876.7998">skill</text><polygon fill="#181818" points="329,909.3535,319,913.3535,329,917.3535,325,913.3535" style="stroke:#181818;stroke-width:1.0;"/><line style="stroke:#181818;stroke-width:1.0;stroke-dasharray:2.0,2.0;" x1="323" x2="476" y1="913.3535" y2="913.3535"/><text fill="#000000" font-family="sans-serif" font-size="13" font-weight="bold" lengthAdjust="spacing" textLength="14" x="335" y="908.0908">19</text><text fill="#000000" font-family="sans-serif" font-size="13" lengthAdjust="spacing" textLength="23" x="353" y="908.0908">skill</text><polygon fill="#181818" points="39,940.6445,29,944.6445,39,948.6445,35,944.6445" style="stroke:#181818;stroke-width:1.0;"/><line style="stroke:#181818;stroke-width:1.0;stroke-dasharray:2.0,2.0;" x1="33" x2="312" y1="944.6445" y2="944.6445"/><text fill="#000000" font-family="sans-serif" font-size="13" font-weight="bold" lengthAdjust="spacing" textLength="14" x="45" y="939.3818">20</text><text fill="#000000" font-family="sans-serif" font-size="13" lengthAdjust="spacing" textLength="153" x="63" y="939.3818">Displays operation sucess</text><!--SRC=[fLLDRzim3BthLn2vB3bawAuv51WSe1kmeK3St7fXRSOH8akU9BVBa1y_IdQT3piVtNHHB3- -F9AFijj8NQ754agZJRQsfYJmjYRXkZSLPXiiAFLRHM0fywWBTGXmQypDczG5h50v4i9Bpz1bUdVt1QQGqg-QT4OmbrWmNWYilT5r-K9MY4zhcHEiZF4lvhV0p1iBes-BdoD01xmB_WylCrcXzZ2QBQYGpfDDDrAfvVU8MgJBIwZ4Q6-DKcHRT7A2DhP0BV-WbqR3ituyU8mHZuk7auZ8oz2uHqpy9O9- -OgUed81xU87cDu7dJ23hsxZm1kkPACH45mJ_0xlI49YtMbOWM7AJ85m1ejGMESXHu_Zo04QIvfq8JaDK-trpE1fMv5ZCP6AyaXsHigGaYQd3L4rFwSYhDrkrmyFqGb75-HZ-NvmFSOJSPpoWOBa-4t3amGUxb2VvnGRDFGEE_hGvDxRm3ljT7RaFTn1eGTveiptYW_J7FKgkTJsT6tUMiE1OXf0dRC56rSvKZoXO3I93zWWiCP0zozklD43GraW8uFZOWwj2HraHg-aBUC4VYoBf8bqbsnyteYP9GR5oexx-gyvSRbtucMYwxxhl7VVzlaMoh2qOKehYpLRODN5DZjNrV7L7cxOPyr8Bh1IMtX59RbQV0cWBUgIj7UV1xbFP_ZQUPj0Kn7CyoUpdyxeaSdviAubZHd_Ozu6EMuVjhbqbSAj0rEHRRuGhix8kVFZ9Vu2]--></g></svg>