<?xml version="1.0" encoding="us-ascii" standalone="no"?><svg xmlns="http://www.w3.org/2000/svg" xmlns:xlink="http://www.w3.org/1999/xlink" contentStyleType="text/css" height="801px" preserveAspectRatio="none" style="width:683px;height:801px;background:#FFFFFF;" version="1.1" viewBox="0 0 683 801" width="683px" zoomAndPan="magnify"><defs/><g><text fill="#000000" font-family="sans-serif" font-size="14" font-weight="bold" lengthAdjust="spacing" textLength="284" x="201.5" y="30.1074">US003 - System Sequence Diagram (SSD)</text><rect fill="#FFFFFF" height="575.6563" style="stroke:#181818;stroke-width:1.0;" width="10" x="33" y="133.2422"/><rect fill="#FFFFFF" height="92.1641" style="stroke:#181818;stroke-width:1.0;" width="10" x="363" y="156.5332"/><rect fill="#FFFFFF" height="218.4551" style="stroke:#181818;stroke-width:1.0;" width="10" x="363" y="279.9883"/><rect fill="#FFFFFF" height="107.582" style="stroke:#181818;stroke-width:1.0;" width="10" x="363" y="529.7344"/><rect fill="#FFFFFF" height="31.291" style="stroke:#181818;stroke-width:1.0;" width="10" x="363" y="668.6074"/><rect fill="none" height="141.4551" style="stroke:#000000;stroke-width:1.5;" width="448.5" x="10" y="171.5332"/><rect fill="none" height="106.873" style="stroke:#000000;stroke-width:1.5;" width="448.5" x="10" y="455.8613"/><line style="stroke:#181818;stroke-width:0.5;stroke-dasharray:5.0,5.0;" x1="38" x2="38" y1="123.2422" y2="717.8984"/><line style="stroke:#181818;stroke-width:0.5;stroke-dasharray:5.0,5.0;" x1="367.5" x2="367.5" y1="123.2422" y2="717.8984"/><text fill="#000000" font-family="sans-serif" font-size="14" lengthAdjust="spacing" textLength="30" x="20" y="119.7285">HRM</text><ellipse cx="38" cy="53.1211" fill="#E3E3E3" rx="8" ry="8" style="stroke:#181818;stroke-width:0.5;"/><path d="M38,61.1211 L38,88.1211 M25,69.1211 L51,69.1211 M38,88.1211 L25,103.1211 M38,88.1211 L51,103.1211 " fill="none" style="stroke:#181818;stroke-width:0.5;"/><text fill="#000000" font-family="sans-serif" font-size="14" lengthAdjust="spacing" textLength="30" x="20" y="732.0059">HRM</text><ellipse cx="38" cy="744.0195" fill="#E3E3E3" rx="8" ry="8" style="stroke:#181818;stroke-width:0.5;"/><path d="M38,752.0195 L38,779.0195 M25,760.0195 L51,760.0195 M38,779.0195 L25,794.0195 M38,779.0195 L51,794.0195 " fill="none" style="stroke:#181818;stroke-width:0.5;"/><rect fill="#E3E3E3" height="32.6211" rx="2.5" ry="2.5" style="stroke:#181818;stroke-width:0.5;" width="161" x="287.5" y="89.6211"/><text fill="#000000" font-family="sans-serif" font-size="14" lengthAdjust="spacing" textLength="147" x="294.5" y="111.7285">:RegisterCollaboratorUI</text><rect fill="#E3E3E3" height="32.6211" rx="2.5" ry="2.5" style="stroke:#181818;stroke-width:0.5;" width="161" x="287.5" y="716.8984"/><text fill="#000000" font-family="sans-serif" font-size="14" lengthAdjust="spacing" textLength="147" x="294.5" y="739.0059">:RegisterCollaboratorUI</text><rect fill="#FFFFFF" height="575.6563" style="stroke:#181818;stroke-width:1.0;" width="10" x="33" y="133.2422"/><rect fill="#FFFFFF" height="92.1641" style="stroke:#181818;stroke-width:1.0;" width="10" x="363" y="156.5332"/><rect fill="#FFFFFF" height="218.4551" style="stroke:#181818;stroke-width:1.0;" width="10" x="363" y="279.9883"/><rect fill="#FFFFFF" height="107.582" style="stroke:#181818;stroke-width:1.0;" width="10" x="363" y="529.7344"/><rect fill="#FFFFFF" height="31.291" style="stroke:#181818;stroke-width:1.0;" width="10" x="363" y="668.6074"/><polygon fill="#181818" points="351,152.5332,361,156.5332,351,160.5332,355,156.5332" style="stroke:#181818;stroke-width:1.0;"/><line style="stroke:#181818;stroke-width:1.0;" x1="43" x2="357" y1="156.5332" y2="156.5332"/><text fill="#000000" font-family="sans-serif" font-size="13" font-weight="bold" lengthAdjust="spacing" textLength="7" x="50" y="151.2705">1</text><text fill="#000000" font-family="sans-serif" font-size="13" lengthAdjust="spacing" textLength="174" x="61" y="151.2705">Asks to register a collaborator</text><path d="M10,171.5332 L83,171.5332 L83,180.8242 L73,190.8242 L10,190.8242 L10,171.5332 " fill="#EEEEEE" style="stroke:#000000;stroke-width:1.5;"/><rect fill="none" height="141.4551" style="stroke:#000000;stroke-width:1.5;" width="448.5" x="10" y="171.5332"/><text fill="#000000" font-family="sans-serif" font-size="13" font-weight="bold" lengthAdjust="spacing" textLength="28" x="25" y="186.5615">loop</text><text fill="#000000" font-family="sans-serif" font-size="11" font-weight="bold" lengthAdjust="spacing" textLength="157" x="98" y="185.4033">[until typed data is validated]</text><polygon fill="#181818" points="54,244.6973,44,248.6973,54,252.6973,50,248.6973" style="stroke:#181818;stroke-width:1.0;"/><line style="stroke:#181818;stroke-width:1.0;stroke-dasharray:2.0,2.0;" x1="48" x2="367" y1="248.6973" y2="248.6973"/><text fill="#000000" font-family="sans-serif" font-size="13" font-weight="bold" lengthAdjust="spacing" textLength="7" x="60" y="226.1436">2</text><text fill="#000000" font-family="sans-serif" font-size="13" lengthAdjust="spacing" textLength="280" x="71" y="208.8525">Requests data (name, birthdate, admissionDate,</text><text fill="#000000" font-family="sans-serif" font-size="13" lengthAdjust="spacing" textLength="272" x="75" y="226.1436">street, streetNumber, postalCode, city, district,</text><text fill="#000000" font-family="sans-serif" font-size="13" lengthAdjust="spacing" textLength="281" x="75" y="243.4346">email, mobileNumber, idDocType, idDocNumber)</text><polygon fill="#181818" points="351,275.9883,361,279.9883,351,283.9883,355,279.9883" style="stroke:#181818;stroke-width:1.0;"/><line style="stroke:#181818;stroke-width:1.0;" x1="43" x2="357" y1="279.9883" y2="279.9883"/><text fill="#000000" font-family="sans-serif" font-size="13" font-weight="bold" lengthAdjust="spacing" textLength="7" x="50" y="274.7256">3</text><text fill="#000000" font-family="sans-serif" font-size="13" lengthAdjust="spacing" textLength="125" x="61" y="274.7256">Types requested data</text><line style="stroke:#181818;stroke-width:1.0;stroke-dasharray:2.0,2.0;" x1="373" x2="415" y1="402.8613" y2="402.8613"/><line style="stroke:#181818;stroke-width:1.0;stroke-dasharray:2.0,2.0;" x1="415" x2="415" y1="402.8613" y2="415.8613"/><line style="stroke:#181818;stroke-width:1.0;stroke-dasharray:2.0,2.0;" x1="374" x2="415" y1="415.8613" y2="415.8613"/><polygon fill="#181818" points="384,411.8613,374,415.8613,384,419.8613,380,415.8613" style="stroke:#181818;stroke-width:1.0;"/><text fill="#000000" font-family="sans-serif" font-size="13" font-weight="bold" lengthAdjust="spacing" textLength="7" x="380" y="380.3076">4</text><text fill="#000000" font-family="sans-serif" font-size="13" lengthAdjust="spacing" textLength="247" x="391" y="363.0166">keepData(name, birthdate, admissionDate,</text><text fill="#000000" font-family="sans-serif" font-size="13" lengthAdjust="spacing" textLength="272" x="395" y="380.3076">street, streetNumber, postalCode, city, district,</text><text fill="#000000" font-family="sans-serif" font-size="13" lengthAdjust="spacing" textLength="281" x="395" y="397.5986">email, mobileNumber, idDocType, idDocNumber)</text><path d="M10,455.8613 L83,455.8613 L83,465.1523 L73,475.1523 L10,475.1523 L10,455.8613 " fill="#EEEEEE" style="stroke:#000000;stroke-width:1.5;"/><rect fill="none" height="106.873" style="stroke:#000000;stroke-width:1.5;" width="448.5" x="10" y="455.8613"/><text fill="#000000" font-family="sans-serif" font-size="13" font-weight="bold" lengthAdjust="spacing" textLength="28" x="25" y="470.8896">loop</text><text fill="#000000" font-family="sans-serif" font-size="11" font-weight="bold" lengthAdjust="spacing" textLength="189" x="98" y="469.7314">[until doesn't select a valid option]</text><polygon fill="#181818" points="54,494.4434,44,498.4434,54,502.4434,50,498.4434" style="stroke:#181818;stroke-width:1.0;"/><line style="stroke:#181818;stroke-width:1.0;stroke-dasharray:2.0,2.0;" x1="48" x2="367" y1="498.4434" y2="498.4434"/><text fill="#000000" font-family="sans-serif" font-size="13" font-weight="bold" lengthAdjust="spacing" textLength="7" x="60" y="493.1807">5</text><text fill="#000000" font-family="sans-serif" font-size="13" lengthAdjust="spacing" textLength="217" x="71" y="493.1807">Shows job list and asks to select one</text><polygon fill="#181818" points="351,525.7344,361,529.7344,351,533.7344,355,529.7344" style="stroke:#181818;stroke-width:1.0;"/><line style="stroke:#181818;stroke-width:1.0;" x1="43" x2="357" y1="529.7344" y2="529.7344"/><text fill="#000000" font-family="sans-serif" font-size="13" font-weight="bold" lengthAdjust="spacing" textLength="7" x="50" y="524.4717">6</text><text fill="#000000" font-family="sans-serif" font-size="13" lengthAdjust="spacing" textLength="76" x="61" y="524.4717">Selects a job</text><line style="stroke:#181818;stroke-width:1.0;stroke-dasharray:2.0,2.0;" x1="373" x2="415" y1="593.0254" y2="593.0254"/><line style="stroke:#181818;stroke-width:1.0;stroke-dasharray:2.0,2.0;" x1="415" x2="415" y1="593.0254" y2="606.0254"/><line style="stroke:#181818;stroke-width:1.0;stroke-dasharray:2.0,2.0;" x1="374" x2="415" y1="606.0254" y2="606.0254"/><polygon fill="#181818" points="384,602.0254,374,606.0254,384,610.0254,380,606.0254" style="stroke:#181818;stroke-width:1.0;"/><text fill="#000000" font-family="sans-serif" font-size="13" font-weight="bold" lengthAdjust="spacing" textLength="7" x="380" y="587.7627">7</text><text fill="#000000" font-family="sans-serif" font-size="13" lengthAdjust="spacing" textLength="104" x="391" y="587.7627">keepData(Job job)</text><polygon fill="#181818" points="54,633.3164,44,637.3164,54,641.3164,50,637.3164" style="stroke:#181818;stroke-width:1.0;"/><line style="stroke:#181818;stroke-width:1.0;stroke-dasharray:2.0,2.0;" x1="48" x2="367" y1="637.3164" y2="637.3164"/><text fill="#000000" font-family="sans-serif" font-size="13" font-weight="bold" lengthAdjust="spacing" textLength="7" x="60" y="632.0537">8</text><text fill="#000000" font-family="sans-serif" font-size="13" lengthAdjust="spacing" textLength="238" x="71" y="632.0537">Shows all data and requests confirmation</text><polygon fill="#181818" points="351,664.6074,361,668.6074,351,672.6074,355,668.6074" style="stroke:#181818;stroke-width:1.0;"/><line style="stroke:#181818;stroke-width:1.0;" x1="43" x2="357" y1="668.6074" y2="668.6074"/><text fill="#000000" font-family="sans-serif" font-size="13" font-weight="bold" lengthAdjust="spacing" textLength="7" x="50" y="663.3447">9</text><text fill="#000000" font-family="sans-serif" font-size="13" lengthAdjust="spacing" textLength="80" x="61" y="663.3447">Confirms data</text><polygon fill="#181818" points="54,695.8984,44,699.8984,54,703.8984,50,699.8984" style="stroke:#181818;stroke-width:1.0;"/><line style="stroke:#181818;stroke-width:1.0;stroke-dasharray:2.0,2.0;" x1="48" x2="367" y1="699.8984" y2="699.8984"/><text fill="#000000" font-family="sans-serif" font-size="13" font-weight="bold" lengthAdjust="spacing" textLength="14" x="60" y="694.6357">10</text><text fill="#000000" font-family="sans-serif" font-size="13" lengthAdjust="spacing" textLength="160" x="78" y="694.6357">Displays operation success</text><!--SRC=[pL8zZzim3DtzAuWilG0ES42t30MAPEWLQ8UusRhG4YzH8qkkID_1G7vyAJjnVTVqkbQBllWU7_d89nTQJDX04qCqnnGR0aaT5Jpzj6XEUA1AUa-Go0Y6Wvy7y15jV7RX08_ecOf2d6Zelhg_Vmyhg7eMQg2Ydnq5Gx1rUCYmkwhQBei2EucXQsfAUZOI4om-xRui01bqBpI5EEDQ30ABzOuEJjdI9dgFTKoeyVk78NZ_CE3T4meDo09qwG5M7_GJrl2HJmmIjOQH113CZ6S4J1JAb-y-nXQw8Cw3z2rPi2W8Zk49lTCpsH6NbsPPQRASSmsxN2yBZu2xW0sLKBianumg0MtZc5qCstpz7e0b4KbvsRyEBIcXZIpeDz4gn3ZfIx0gFZaZ6KCDEb-gURNpT8Kukutccugz7CVtvI3Jqhp0FrgKKQmD6gHVYhtTb_FvF7vGiDF3gqOCb2UYLal4_wK3a_ZfDlVOHkBmJe39wwJhX0msGsn5TVv6t3AyEiPdXX-n1g_w08FLiHmdxi8M0xsWk676TSrDgGOqgnWbVndssfLvWVDxDkbjTpwhRgLV5c_KXjwFqvnhIzVvDZ4ykjJWrA5_pDXcZEU_3DTj0Ll7hSUUrGbAGohWpXXYlf7o5m00]--></g></svg>