<?xml version="1.0" encoding="us-ascii" standalone="no"?><svg xmlns="http://www.w3.org/2000/svg" xmlns:xlink="http://www.w3.org/1999/xlink" contentStyleType="text/css" height="448px" preserveAspectRatio="none" style="width:466px;height:448px;background:#FFFFFF;" version="1.1" viewBox="0 0 466 448" width="466px" zoomAndPan="magnify"><defs/><g><text fill="#000000" font-family="sans-serif" font-size="14" font-weight="bold" lengthAdjust="spacing" textLength="284" x="90.25" y="30.1074">US006 - System Sequence Diagram (SSD)</text><rect fill="#FFFFFF" height="223.3281" style="stroke:#181818;stroke-width:1.0;" width="10" x="49" y="133.2422"/><rect fill="#FFFFFF" height="65.873" style="stroke:#181818;stroke-width:1.0;" width="10" x="391" y="156.5332"/><rect fill="#FFFFFF" height="31.291" style="stroke:#181818;stroke-width:1.0;" width="10" x="391" y="253.6973"/><rect fill="#FFFFFF" height="31.291" style="stroke:#181818;stroke-width:1.0;" width="10" x="391" y="316.2793"/><line style="stroke:#181818;stroke-width:0.5;stroke-dasharray:5.0,5.0;" x1="54" x2="54" y1="123.2422" y2="365.5703"/><line style="stroke:#181818;stroke-width:0.5;stroke-dasharray:5.0,5.0;" x1="395.5" x2="395.5" y1="123.2422" y2="365.5703"/><text fill="#000000" font-family="sans-serif" font-size="14" lengthAdjust="spacing" textLength="92" x="5" y="119.7285">Fleet Manager</text><ellipse cx="54" cy="53.1211" fill="#E3E3E3" rx="8" ry="8" style="stroke:#181818;stroke-width:0.5;"/><path d="M54,61.1211 L54,88.1211 M41,69.1211 L67,69.1211 M54,88.1211 L41,103.1211 M54,88.1211 L67,103.1211 " fill="none" style="stroke:#181818;stroke-width:0.5;"/><text fill="#000000" font-family="sans-serif" font-size="14" lengthAdjust="spacing" textLength="92" x="5" y="379.6777">Fleet Manager</text><ellipse cx="54" cy="391.6914" fill="#E3E3E3" rx="8" ry="8" style="stroke:#181818;stroke-width:0.5;"/><path d="M54,399.6914 L54,426.6914 M41,407.6914 L67,407.6914 M54,426.6914 L41,441.6914 M54,426.6914 L67,441.6914 " fill="none" style="stroke:#181818;stroke-width:0.5;"/><rect fill="#E3E3E3" height="32.6211" rx="2.5" ry="2.5" style="stroke:#181818;stroke-width:0.5;" width="129" x="331.5" y="89.6211"/><text fill="#000000" font-family="sans-serif" font-size="14" lengthAdjust="spacing" textLength="115" x="338.5" y="111.7285">:RegisterVehicleUI</text><rect fill="#E3E3E3" height="32.6211" rx="2.5" ry="2.5" style="stroke:#181818;stroke-width:0.5;" width="129" x="331.5" y="364.5703"/><text fill="#000000" font-family="sans-serif" font-size="14" lengthAdjust="spacing" textLength="115" x="338.5" y="386.6777">:RegisterVehicleUI</text><rect fill="#FFFFFF" height="223.3281" style="stroke:#181818;stroke-width:1.0;" width="10" x="49" y="133.2422"/><rect fill="#FFFFFF" height="65.873" style="stroke:#181818;stroke-width:1.0;" width="10" x="391" y="156.5332"/><rect fill="#FFFFFF" height="31.291" style="stroke:#181818;stroke-width:1.0;" width="10" x="391" y="253.6973"/><rect fill="#FFFFFF" height="31.291" style="stroke:#181818;stroke-width:1.0;" width="10" x="391" y="316.2793"/><polygon fill="#181818" points="379,152.5332,389,156.5332,379,160.5332,383,156.5332" style="stroke:#181818;stroke-width:1.0;"/><line style="stroke:#181818;stroke-width:1.0;" x1="59" x2="385" y1="156.5332" y2="156.5332"/><text fill="#000000" font-family="sans-serif" font-size="13" font-weight="bold" lengthAdjust="spacing" textLength="7" x="66" y="151.2705">1</text><text fill="#000000" font-family="sans-serif" font-size="13" lengthAdjust="spacing" textLength="166" x="77" y="151.2705">Asks to create a new vehicle</text><polygon fill="#181818" points="70,218.4063,60,222.4063,70,226.4063,66,222.4063" style="stroke:#181818;stroke-width:1.0;"/><line style="stroke:#181818;stroke-width:1.0;stroke-dasharray:2.0,2.0;" x1="64" x2="395" y1="222.4063" y2="222.4063"/><text fill="#000000" font-family="sans-serif" font-size="13" font-weight="bold" lengthAdjust="spacing" textLength="7" x="76" y="199.8525">2</text><text fill="#000000" font-family="sans-serif" font-size="13" lengthAdjust="spacing" textLength="297" x="87" y="182.5615">Requests vehicle data (plate id, brand, model, type,</text><text fill="#000000" font-family="sans-serif" font-size="13" lengthAdjust="spacing" textLength="257" x="87" y="199.8525">tare, gross weight, current km, register date,</text><text fill="#000000" font-family="sans-serif" font-size="13" lengthAdjust="spacing" textLength="241" x="87" y="217.1436">acquisition date, checkup frequency kms)</text><polygon fill="#181818" points="379,249.6973,389,253.6973,379,257.6973,383,253.6973" style="stroke:#181818;stroke-width:1.0;"/><line style="stroke:#181818;stroke-width:1.0;" x1="59" x2="385" y1="253.6973" y2="253.6973"/><text fill="#000000" font-family="sans-serif" font-size="13" font-weight="bold" lengthAdjust="spacing" textLength="7" x="66" y="248.4346">3</text><text fill="#000000" font-family="sans-serif" font-size="13" lengthAdjust="spacing" textLength="125" x="77" y="248.4346">Types requested data</text><polygon fill="#181818" points="70,280.9883,60,284.9883,70,288.9883,66,284.9883" style="stroke:#181818;stroke-width:1.0;"/><line style="stroke:#181818;stroke-width:1.0;stroke-dasharray:2.0,2.0;" x1="64" x2="395" y1="284.9883" y2="284.9883"/><text fill="#000000" font-family="sans-serif" font-size="13" font-weight="bold" lengthAdjust="spacing" textLength="7" x="76" y="279.7256">4</text><text fill="#000000" font-family="sans-serif" font-size="13" lengthAdjust="spacing" textLength="238" x="87" y="279.7256">Shows all data and requests confirmation</text><polygon fill="#181818" points="379,312.2793,389,316.2793,379,320.2793,383,316.2793" style="stroke:#181818;stroke-width:1.0;"/><line style="stroke:#181818;stroke-width:1.0;" x1="59" x2="385" y1="316.2793" y2="316.2793"/><text fill="#000000" font-family="sans-serif" font-size="13" font-weight="bold" lengthAdjust="spacing" textLength="7" x="66" y="311.0166">5</text><text fill="#000000" font-family="sans-serif" font-size="13" lengthAdjust="spacing" textLength="155" x="77" y="311.0166">Confirms data and submits</text><polygon fill="#181818" points="70,343.5703,60,347.5703,70,351.5703,66,347.5703" style="stroke:#181818;stroke-width:1.0;"/><line style="stroke:#181818;stroke-width:1.0;stroke-dasharray:2.0,2.0;" x1="64" x2="395" y1="347.5703" y2="347.5703"/><text fill="#000000" font-family="sans-serif" font-size="13" font-weight="bold" lengthAdjust="spacing" textLength="7" x="76" y="342.3076">6</text><text fill="#000000" font-family="sans-serif" font-size="13" lengthAdjust="spacing" textLength="160" x="87" y="342.3076">Displays operation success</text><!--SRC=[dP4xR-D038Hx_Gh2LGB8GAehN1mGd2z0YckYE5KQUaLBXFQXa9GD_VjRIP5pmC5Djj6Byt5cf1t77WK3X1IJQoK50fE12hr-wT5rs51beoSGSeQnyVyEQ8jrkd1iu8HUgIYCBOyUgeU77x25QbIZ01Lz31GTmPwncMHtLRM_BmeSBCKX74dolRCai7doH0P_CEQriW5K-1rwdqQY8cyqTjnZDDZiNgZX39StQjbvEZpFmyl2cSPdDFfI5v3F-WJRdwkt7Jngfs09dD2aG8XqWVE2dLLNs4g7p_E9s6RQbRo3bocjcguCgD4Gxde_8RWkuIWOyoMacdm9DlPKlaT3eH8QIQfm8MvQAy4D8fJJTg7CxIzv9zeqZ-vZO6NZ59TNu5fotT33IPQwnwpJ-zbiJVzbkDt7QpQa84iAgcVxt-cXQjD50RrV2iYPLwY2I_744d2oVylXJOE_5h5-SNKu1ZRzZiizQ_upeqBgIMO_cUOSgTxmzHS0]--></g></svg>