<?xml version="1.0" encoding="us-ascii" standalone="no"?><svg xmlns="http://www.w3.org/2000/svg" xmlns:xlink="http://www.w3.org/1999/xlink" contentStyleType="text/css" height="1867px" preserveAspectRatio="none" style="width:1896px;height:1867px;background:#FFFFFF;" version="1.1" viewBox="0 0 1896 1867" width="1896px" zoomAndPan="magnify"><defs/><g><text fill="#000000" font-family="sans-serif" font-size="14" font-weight="bold" lengthAdjust="spacing" textLength="284" x="805.75" y="30.1074">US006 - System Sequence Diagram (SSD)</text><rect fill="#FFFFFF" height="1595.668" style="stroke:#181818;stroke-width:1.0;" width="10" x="59" y="151.8633"/><rect fill="#FFFFFF" height="135.7852" style="stroke:#181818;stroke-width:1.0;" width="10" x="397" y="175.1543"/><rect fill="#FFFFFF" height="161.4551" style="stroke:#181818;stroke-width:1.0;" width="10" x="397" y="342.2305"/><rect fill="#FFFFFF" height="1212.5547" style="stroke:#181818;stroke-width:1.0;" width="10" x="397" y="534.9766"/><rect fill="#FFFFFF" height="1115.3906" style="stroke:#181818;stroke-width:1.0;" width="10" x="690" y="600.8496"/><rect fill="#FFFFFF" height="167.4551" style="stroke:#181818;stroke-width:1.0;" width="10" x="695" y="640.1406"/><rect fill="#FFFFFF" height="31.291" style="stroke:#181818;stroke-width:1.0;" width="10" x="863" y="676.4316"/><rect fill="#FFFFFF" height="31.291" style="stroke:#181818;stroke-width:1.0;" width="10" x="968" y="739.0137"/><rect fill="#FFFFFF" height="804.4805" style="stroke:#181818;stroke-width:1.0;" width="10" x="1090.5" y="880.4688"/><rect fill="none" height="160.7461" style="stroke:#000000;stroke-width:1.5;" width="542" x="10" y="233.7754"/><line style="stroke:#181818;stroke-width:0.5;stroke-dasharray:5.0,5.0;" x1="64" x2="64" y1="141.8633" y2="1765.5313"/><line style="stroke:#181818;stroke-width:0.5;stroke-dasharray:5.0,5.0;" x1="401.5" x2="401.5" y1="141.8633" y2="1765.5313"/><line style="stroke:#181818;stroke-width:0.5;stroke-dasharray:5.0,5.0;" x1="694.5" x2="694.5" y1="214.9648" y2="1765.5313"/><line style="stroke:#181818;stroke-width:0.5;stroke-dasharray:5.0,5.0;" x1="867.5" x2="867.5" y1="141.8633" y2="1765.5313"/><line style="stroke:#181818;stroke-width:0.5;stroke-dasharray:5.0,5.0;" x1="972.5" x2="972.5" y1="141.8633" y2="1765.5313"/><line style="stroke:#181818;stroke-width:0.5;stroke-dasharray:5.0,5.0;" x1="1095.5" x2="1095.5" y1="141.8633" y2="1765.5313"/><line style="stroke:#181818;stroke-width:0.5;stroke-dasharray:5.0,5.0;" x1="1427.5" x2="1427.5" y1="931.4053" y2="1765.5313"/><line style="stroke:#181818;stroke-width:0.5;stroke-dasharray:5.0,5.0;" x1="1786.5" x2="1786.5" y1="1472.6836" y2="1765.5313"/><text fill="#000000" font-family="sans-serif" font-size="14" lengthAdjust="spacing" textLength="82" x="20" y="119.7285">Vehicle Fleet</text><text fill="#000000" font-family="sans-serif" font-size="14" lengthAdjust="spacing" textLength="56" x="35" y="138.3496">Manager</text><ellipse cx="64" cy="53.1211" fill="#E3E3E3" rx="8" ry="8" style="stroke:#181818;stroke-width:0.5;"/><path d="M64,61.1211 L64,88.1211 M51,69.1211 L77,69.1211 M64,88.1211 L51,103.1211 M64,88.1211 L77,103.1211 " fill="none" style="stroke:#181818;stroke-width:0.5;"/><text fill="#000000" font-family="sans-serif" font-size="14" lengthAdjust="spacing" textLength="82" x="20" y="1779.6387">Vehicle Fleet</text><text fill="#000000" font-family="sans-serif" font-size="14" lengthAdjust="spacing" textLength="56" x="35" y="1798.2598">Manager</text><ellipse cx="64" cy="1810.2734" fill="#E3E3E3" rx="8" ry="8" style="stroke:#181818;stroke-width:0.5;"/><path d="M64,1818.2734 L64,1845.2734 M51,1826.2734 L77,1826.2734 M64,1845.2734 L51,1860.2734 M64,1845.2734 L77,1860.2734 " fill="none" style="stroke:#181818;stroke-width:0.5;"/><rect fill="#E3E3E3" height="32.6211" rx="2.5" ry="2.5" style="stroke:#181818;stroke-width:0.5;" width="129" x="337.5" y="108.2422"/><text fill="#000000" font-family="sans-serif" font-size="14" lengthAdjust="spacing" textLength="115" x="344.5" y="130.3496">:RegisterVehicleUI</text><rect fill="#E3E3E3" height="32.6211" rx="2.5" ry="2.5" style="stroke:#181818;stroke-width:0.5;" width="129" x="337.5" y="1764.5313"/><text fill="#000000" font-family="sans-serif" font-size="14" lengthAdjust="spacing" textLength="115" x="344.5" y="1786.6387">:RegisterVehicleUI</text><rect fill="#E3E3E3" height="32.6211" rx="2.5" ry="2.5" style="stroke:#181818;stroke-width:0.5;" width="179" x="605.5" y="1764.5313"/><text fill="#000000" font-family="sans-serif" font-size="14" lengthAdjust="spacing" textLength="165" x="612.5" y="1786.6387">:RegisterVehicleController</text><rect fill="#E3E3E3" height="32.6211" rx="2.5" ry="2.5" style="stroke:#181818;stroke-width:0.5;" width="97" x="819.5" y="108.2422"/><text fill="#000000" font-family="sans-serif" font-size="14" lengthAdjust="spacing" textLength="83" x="826.5" y="130.3496">:Repositories</text><rect fill="#E3E3E3" height="32.6211" rx="2.5" ry="2.5" style="stroke:#181818;stroke-width:0.5;" width="97" x="819.5" y="1764.5313"/><text fill="#000000" font-family="sans-serif" font-size="14" lengthAdjust="spacing" textLength="83" x="826.5" y="1786.6387">:Repositories</text><rect fill="#E3E3E3" height="51.2422" rx="2.5" ry="2.5" style="stroke:#181818;stroke-width:0.5;" width="93" x="926.5" y="89.6211"/><text fill="#000000" font-family="sans-serif" font-size="14" lengthAdjust="spacing" textLength="78" x="934" y="111.7285">repositories:</text><text fill="#000000" font-family="sans-serif" font-size="14" lengthAdjust="spacing" textLength="79" x="933.5" y="130.3496">Repositories</text><rect fill="#E3E3E3" height="51.2422" rx="2.5" ry="2.5" style="stroke:#181818;stroke-width:0.5;" width="93" x="926.5" y="1764.5313"/><text fill="#000000" font-family="sans-serif" font-size="14" lengthAdjust="spacing" textLength="78" x="934" y="1786.6387">repositories:</text><text fill="#000000" font-family="sans-serif" font-size="14" lengthAdjust="spacing" textLength="79" x="933.5" y="1805.2598">Repositories</text><rect fill="#E3E3E3" height="51.2422" rx="2.5" ry="2.5" style="stroke:#181818;stroke-width:0.5;" width="132" x="1029.5" y="89.6211"/><text fill="#000000" font-family="sans-serif" font-size="14" lengthAdjust="spacing" textLength="112" x="1039.5" y="111.7285">vehicleRepository</text><text fill="#000000" font-family="sans-serif" font-size="14" lengthAdjust="spacing" textLength="118" x="1036.5" y="130.3496">:VehicleRepository</text><rect fill="#E3E3E3" height="51.2422" rx="2.5" ry="2.5" style="stroke:#181818;stroke-width:0.5;" width="132" x="1029.5" y="1764.5313"/><text fill="#000000" font-family="sans-serif" font-size="14" lengthAdjust="spacing" textLength="112" x="1039.5" y="1786.6387">vehicleRepository</text><text fill="#000000" font-family="sans-serif" font-size="14" lengthAdjust="spacing" textLength="118" x="1036.5" y="1805.2598">:VehicleRepository</text><rect fill="#E3E3E3" height="32.6211" rx="2.5" ry="2.5" style="stroke:#181818;stroke-width:0.5;" width="64" x="1395.5" y="1764.5313"/><text fill="#000000" font-family="sans-serif" font-size="14" lengthAdjust="spacing" textLength="50" x="1402.5" y="1786.6387">:Vehicle</text><rect fill="#E3E3E3" height="32.6211" rx="2.5" ry="2.5" style="stroke:#181818;stroke-width:0.5;" width="48" x="1762.5" y="1764.5313"/><text fill="#000000" font-family="sans-serif" font-size="14" lengthAdjust="spacing" textLength="34" x="1769.5" y="1786.6387">:Date</text><rect fill="#FFFFFF" height="1595.668" style="stroke:#181818;stroke-width:1.0;" width="10" x="59" y="151.8633"/><rect fill="#FFFFFF" height="135.7852" style="stroke:#181818;stroke-width:1.0;" width="10" x="397" y="175.1543"/><rect fill="#FFFFFF" height="161.4551" style="stroke:#181818;stroke-width:1.0;" width="10" x="397" y="342.2305"/><rect fill="#FFFFFF" height="1212.5547" style="stroke:#181818;stroke-width:1.0;" width="10" x="397" y="534.9766"/><rect fill="#FFFFFF" height="1115.3906" style="stroke:#181818;stroke-width:1.0;" width="10" x="690" y="600.8496"/><rect fill="#FFFFFF" height="167.4551" style="stroke:#181818;stroke-width:1.0;" width="10" x="695" y="640.1406"/><rect fill="#FFFFFF" height="31.291" style="stroke:#181818;stroke-width:1.0;" width="10" x="863" y="676.4316"/><rect fill="#FFFFFF" height="31.291" style="stroke:#181818;stroke-width:1.0;" width="10" x="968" y="739.0137"/><rect fill="#FFFFFF" height="804.4805" style="stroke:#181818;stroke-width:1.0;" width="10" x="1090.5" y="880.4688"/><polygon fill="#181818" points="385,171.1543,395,175.1543,385,179.1543,389,175.1543" style="stroke:#181818;stroke-width:1.0;"/><line style="stroke:#181818;stroke-width:1.0;" x1="69" x2="391" y1="175.1543" y2="175.1543"/><text fill="#000000" font-family="sans-serif" font-size="13" font-weight="bold" lengthAdjust="spacing" textLength="7" x="76" y="169.8916">1</text><text fill="#000000" font-family="sans-serif" font-size="13" lengthAdjust="spacing" textLength="171" x="87" y="169.8916">asks to register a new vehicle</text><polygon fill="#181818" points="593.5,202.4453,603.5,206.4453,593.5,210.4453,597.5,206.4453" style="stroke:#181818;stroke-width:1.0;"/><line style="stroke:#181818;stroke-width:1.0;" x1="407" x2="599.5" y1="206.4453" y2="206.4453"/><text fill="#000000" font-family="sans-serif" font-size="13" font-weight="bold" lengthAdjust="spacing" textLength="7" x="414" y="201.1826">2</text><text fill="#000000" font-family="sans-serif" font-size="13" lengthAdjust="spacing" textLength="43" x="425" y="201.1826">creates</text><rect fill="#E3E3E3" height="32.6211" rx="2.5" ry="2.5" style="stroke:#181818;stroke-width:0.5;" width="179" x="605.5" y="183.1543"/><text fill="#000000" font-family="sans-serif" font-size="14" lengthAdjust="spacing" textLength="165" x="612.5" y="205.2617">:RegisterVehicleController</text><path d="M10,233.7754 L83,233.7754 L83,243.0664 L73,253.0664 L10,253.0664 L10,233.7754 " fill="#EEEEEE" style="stroke:#000000;stroke-width:1.5;"/><rect fill="none" height="160.7461" style="stroke:#000000;stroke-width:1.5;" width="542" x="10" y="233.7754"/><text fill="#000000" font-family="sans-serif" font-size="13" font-weight="bold" lengthAdjust="spacing" textLength="28" x="25" y="248.8037">loop</text><text fill="#000000" font-family="sans-serif" font-size="11" font-weight="bold" lengthAdjust="spacing" textLength="133" x="98" y="247.6455">[until typed data is valid]</text><polygon fill="#181818" points="80,306.9395,70,310.9395,80,314.9395,76,310.9395" style="stroke:#181818;stroke-width:1.0;"/><line style="stroke:#181818;stroke-width:1.0;stroke-dasharray:2.0,2.0;" x1="74" x2="401" y1="310.9395" y2="310.9395"/><text fill="#000000" font-family="sans-serif" font-size="13" font-weight="bold" lengthAdjust="spacing" textLength="7" x="86" y="288.3857">3</text><text fill="#000000" font-family="sans-serif" font-size="13" lengthAdjust="spacing" textLength="293" x="97" y="271.0947">Requests vehicle data (plateId, brand, model, type,</text><text fill="#000000" font-family="sans-serif" font-size="13" lengthAdjust="spacing" textLength="253" x="97" y="288.3857">tare, grossWeight, currentKm, registerDate,</text><text fill="#000000" font-family="sans-serif" font-size="13" lengthAdjust="spacing" textLength="238" x="97" y="305.6768">acquisitionDate, checkupFrequencyKms)</text><polygon fill="#181818" points="385,338.2305,395,342.2305,385,346.2305,389,342.2305" style="stroke:#181818;stroke-width:1.0;"/><line style="stroke:#181818;stroke-width:1.0;" x1="69" x2="391" y1="342.2305" y2="342.2305"/><text fill="#000000" font-family="sans-serif" font-size="13" font-weight="bold" lengthAdjust="spacing" textLength="7" x="76" y="336.9678">4</text><text fill="#000000" font-family="sans-serif" font-size="13" lengthAdjust="spacing" textLength="122" x="87" y="336.9678">types requested data</text><line style="stroke:#181818;stroke-width:1.0;stroke-dasharray:2.0,2.0;" x1="407" x2="449" y1="373.5215" y2="373.5215"/><line style="stroke:#181818;stroke-width:1.0;stroke-dasharray:2.0,2.0;" x1="449" x2="449" y1="373.5215" y2="386.5215"/><line style="stroke:#181818;stroke-width:1.0;stroke-dasharray:2.0,2.0;" x1="408" x2="449" y1="386.5215" y2="386.5215"/><polygon fill="#181818" points="418,382.5215,408,386.5215,418,390.5215,414,386.5215" style="stroke:#181818;stroke-width:1.0;"/><text fill="#000000" font-family="sans-serif" font-size="13" font-weight="bold" lengthAdjust="spacing" textLength="7" x="414" y="368.2588">5</text><text fill="#000000" font-family="sans-serif" font-size="13" lengthAdjust="spacing" textLength="115" x="425" y="368.2588">validates typed data</text><line style="stroke:#181818;stroke-width:1.0;stroke-dasharray:2.0,2.0;" x1="407" x2="449" y1="459.3945" y2="459.3945"/><line style="stroke:#181818;stroke-width:1.0;stroke-dasharray:2.0,2.0;" x1="449" x2="449" y1="459.3945" y2="472.3945"/><line style="stroke:#181818;stroke-width:1.0;stroke-dasharray:2.0,2.0;" x1="408" x2="449" y1="472.3945" y2="472.3945"/><polygon fill="#181818" points="418,468.3945,408,472.3945,418,476.3945,414,472.3945" style="stroke:#181818;stroke-width:1.0;"/><text fill="#000000" font-family="sans-serif" font-size="13" font-weight="bold" lengthAdjust="spacing" textLength="7" x="414" y="436.8408">6</text><text fill="#000000" font-family="sans-serif" font-size="13" lengthAdjust="spacing" textLength="217" x="425" y="419.5498">keepData(plateId, brand, model, type,</text><text fill="#000000" font-family="sans-serif" font-size="13" lengthAdjust="spacing" textLength="253" x="425" y="436.8408">tare, grossWeight, currentKm, registerDate,</text><text fill="#000000" font-family="sans-serif" font-size="13" lengthAdjust="spacing" textLength="238" x="425" y="454.1318">acquisitionDate, checkupFrequencyKms)</text><polygon fill="#181818" points="80,499.6855,70,503.6855,80,507.6855,76,503.6855" style="stroke:#181818;stroke-width:1.0;"/><line style="stroke:#181818;stroke-width:1.0;stroke-dasharray:2.0,2.0;" x1="74" x2="401" y1="503.6855" y2="503.6855"/><text fill="#000000" font-family="sans-serif" font-size="13" font-weight="bold" lengthAdjust="spacing" textLength="7" x="86" y="498.4229">7</text><text fill="#000000" font-family="sans-serif" font-size="13" lengthAdjust="spacing" textLength="229" x="97" y="498.4229">show all data and requests confirmation</text><polygon fill="#181818" points="385,530.9766,395,534.9766,385,538.9766,389,534.9766" style="stroke:#181818;stroke-width:1.0;"/><line style="stroke:#181818;stroke-width:1.0;" x1="69" x2="391" y1="534.9766" y2="534.9766"/><text fill="#000000" font-family="sans-serif" font-size="13" font-weight="bold" lengthAdjust="spacing" textLength="7" x="76" y="529.7139">8</text><text fill="#000000" font-family="sans-serif" font-size="13" lengthAdjust="spacing" textLength="78" x="87" y="529.7139">confirms data</text><polygon fill="#181818" points="678,596.8496,688,600.8496,678,604.8496,682,600.8496" style="stroke:#181818;stroke-width:1.0;"/><line style="stroke:#181818;stroke-width:1.0;" x1="407" x2="684" y1="600.8496" y2="600.8496"/><text fill="#000000" font-family="sans-serif" font-size="13" font-weight="bold" lengthAdjust="spacing" textLength="7" x="414" y="578.2959">9</text><text fill="#000000" font-family="sans-serif" font-size="13" lengthAdjust="spacing" textLength="241" x="425" y="561.0049">createVehicle(plateId, brand, model, type,</text><text fill="#000000" font-family="sans-serif" font-size="13" lengthAdjust="spacing" textLength="253" x="425" y="578.2959">tare, grossWeight, currentKm, registerDate,</text><text fill="#000000" font-family="sans-serif" font-size="13" lengthAdjust="spacing" textLength="238" x="425" y="595.5869">acquisitionDate, checkupFrequencyKms)</text><line style="stroke:#181818;stroke-width:1.0;stroke-dasharray:2.0,2.0;" x1="700" x2="747" y1="627.1406" y2="627.1406"/><line style="stroke:#181818;stroke-width:1.0;stroke-dasharray:2.0,2.0;" x1="747" x2="747" y1="627.1406" y2="640.1406"/><line style="stroke:#181818;stroke-width:1.0;stroke-dasharray:2.0,2.0;" x1="706" x2="747" y1="640.1406" y2="640.1406"/><polygon fill="#181818" points="716,636.1406,706,640.1406,716,644.1406,712,640.1406" style="stroke:#181818;stroke-width:1.0;"/><text fill="#000000" font-family="sans-serif" font-size="13" font-weight="bold" lengthAdjust="spacing" textLength="14" x="712" y="621.8779">10</text><text fill="#000000" font-family="sans-serif" font-size="13" lengthAdjust="spacing" textLength="131" x="730" y="621.8779">getVehicleRepository()</text><polygon fill="#181818" points="851,672.4316,861,676.4316,851,680.4316,855,676.4316" style="stroke:#181818;stroke-width:1.0;"/><line style="stroke:#181818;stroke-width:1.0;" x1="705" x2="857" y1="676.4316" y2="676.4316"/><text fill="#000000" font-family="sans-serif" font-size="13" font-weight="bold" lengthAdjust="spacing" textLength="14" x="712" y="671.1689">11</text><text fill="#000000" font-family="sans-serif" font-size="13" lengthAdjust="spacing" textLength="75" x="730" y="671.1689">getInstance()</text><polygon fill="#181818" points="716,703.7227,706,707.7227,716,711.7227,712,707.7227" style="stroke:#181818;stroke-width:1.0;"/><line style="stroke:#181818;stroke-width:1.0;stroke-dasharray:2.0,2.0;" x1="710" x2="867" y1="707.7227" y2="707.7227"/><text fill="#000000" font-family="sans-serif" font-size="13" font-weight="bold" lengthAdjust="spacing" textLength="14" x="722" y="702.46">12</text><text fill="#000000" font-family="sans-serif" font-size="13" lengthAdjust="spacing" textLength="67" x="740" y="702.46">repositories</text><polygon fill="#181818" points="956,735.0137,966,739.0137,956,743.0137,960,739.0137" style="stroke:#181818;stroke-width:1.0;"/><line style="stroke:#181818;stroke-width:1.0;" x1="705" x2="962" y1="739.0137" y2="739.0137"/><text fill="#000000" font-family="sans-serif" font-size="13" font-weight="bold" lengthAdjust="spacing" textLength="14" x="712" y="733.751">13</text><text fill="#000000" font-family="sans-serif" font-size="13" lengthAdjust="spacing" textLength="131" x="730" y="733.751">getVehicleRepository()</text><polygon fill="#181818" points="716,766.3047,706,770.3047,716,774.3047,712,770.3047" style="stroke:#181818;stroke-width:1.0;"/><line style="stroke:#181818;stroke-width:1.0;stroke-dasharray:2.0,2.0;" x1="710" x2="972" y1="770.3047" y2="770.3047"/><text fill="#000000" font-family="sans-serif" font-size="13" font-weight="bold" lengthAdjust="spacing" textLength="14" x="722" y="765.042">14</text><text fill="#000000" font-family="sans-serif" font-size="13" lengthAdjust="spacing" textLength="101" x="740" y="765.042">vehicleRepository</text><line style="stroke:#181818;stroke-width:1.0;stroke-dasharray:2.0,2.0;" x1="705" x2="747" y1="806.5957" y2="806.5957"/><line style="stroke:#181818;stroke-width:1.0;stroke-dasharray:2.0,2.0;" x1="747" x2="747" y1="806.5957" y2="819.5957"/><line style="stroke:#181818;stroke-width:1.0;stroke-dasharray:2.0,2.0;" x1="700" x2="747" y1="819.5957" y2="819.5957"/><polygon fill="#181818" points="710,815.5957,700,819.5957,710,823.5957,706,819.5957" style="stroke:#181818;stroke-width:1.0;"/><text fill="#000000" font-family="sans-serif" font-size="13" font-weight="bold" lengthAdjust="spacing" textLength="14" x="712" y="801.333">15</text><text fill="#000000" font-family="sans-serif" font-size="13" lengthAdjust="spacing" textLength="101" x="730" y="801.333">vehicleRepository</text><polygon fill="#181818" points="1078.5,876.4688,1088.5,880.4688,1078.5,884.4688,1082.5,880.4688" style="stroke:#181818;stroke-width:1.0;"/><line style="stroke:#181818;stroke-width:1.0;" x1="700" x2="1084.5" y1="880.4688" y2="880.4688"/><text fill="#000000" font-family="sans-serif" font-size="13" font-weight="bold" lengthAdjust="spacing" textLength="14" x="707" y="857.915">16</text><text fill="#000000" font-family="sans-serif" font-size="13" lengthAdjust="spacing" textLength="241" x="725" y="840.624">createVehicle(plateId, brand, model, type,</text><text fill="#000000" font-family="sans-serif" font-size="13" lengthAdjust="spacing" textLength="253" x="725" y="857.915">tare, grossWeight, currentKm, registerDate,</text><text fill="#000000" font-family="sans-serif" font-size="13" lengthAdjust="spacing" textLength="238" x="725" y="875.2061">acquisitionDate, checkupFrequencyKms)</text><polygon fill="#181818" points="1383.5,942.3418,1393.5,946.3418,1383.5,950.3418,1387.5,946.3418" style="stroke:#181818;stroke-width:1.0;"/><line style="stroke:#181818;stroke-width:1.0;" x1="1100.5" x2="1389.5" y1="946.3418" y2="946.3418"/><text fill="#000000" font-family="sans-serif" font-size="13" font-weight="bold" lengthAdjust="spacing" textLength="14" x="1107.5" y="923.7881">17</text><text fill="#000000" font-family="sans-serif" font-size="13" lengthAdjust="spacing" textLength="232" x="1125.5" y="906.4971">new Vehicle(plateId, brand, model, type,</text><text fill="#000000" font-family="sans-serif" font-size="13" lengthAdjust="spacing" textLength="253" x="1125.5" y="923.7881">tare, grossWeight, currentKm, registerDate,</text><text fill="#000000" font-family="sans-serif" font-size="13" lengthAdjust="spacing" textLength="238" x="1125.5" y="941.0791">acquisitionDate, checkupFrequencyKms)</text><rect fill="#E3E3E3" height="32.6211" rx="2.5" ry="2.5" style="stroke:#181818;stroke-width:0.5;" width="64" x="1395.5" y="910.7207"/><text fill="#000000" font-family="sans-serif" font-size="14" lengthAdjust="spacing" textLength="50" x="1402.5" y="932.8281">:Vehicle</text><line style="stroke:#181818;stroke-width:1.0;stroke-dasharray:2.0,2.0;" x1="1427.5" x2="1469.5" y1="977.6328" y2="977.6328"/><line style="stroke:#181818;stroke-width:1.0;stroke-dasharray:2.0,2.0;" x1="1469.5" x2="1469.5" y1="977.6328" y2="990.6328"/><line style="stroke:#181818;stroke-width:1.0;stroke-dasharray:2.0,2.0;" x1="1428.5" x2="1469.5" y1="990.6328" y2="990.6328"/><polygon fill="#181818" points="1438.5,986.6328,1428.5,990.6328,1438.5,994.6328,1434.5,990.6328" style="stroke:#181818;stroke-width:1.0;"/><text fill="#000000" font-family="sans-serif" font-size="13" font-weight="bold" lengthAdjust="spacing" textLength="14" x="1434.5" y="972.3701">18</text><text fill="#000000" font-family="sans-serif" font-size="13" lengthAdjust="spacing" textLength="131" x="1452.5" y="972.3701">validatePlateId(plateID)</text><line style="stroke:#181818;stroke-width:1.0;stroke-dasharray:2.0,2.0;" x1="1427.5" x2="1469.5" y1="1021.9238" y2="1021.9238"/><line style="stroke:#181818;stroke-width:1.0;stroke-dasharray:2.0,2.0;" x1="1469.5" x2="1469.5" y1="1021.9238" y2="1034.9238"/><line style="stroke:#181818;stroke-width:1.0;stroke-dasharray:2.0,2.0;" x1="1428.5" x2="1469.5" y1="1034.9238" y2="1034.9238"/><polygon fill="#181818" points="1438.5,1030.9238,1428.5,1034.9238,1438.5,1038.9238,1434.5,1034.9238" style="stroke:#181818;stroke-width:1.0;"/><text fill="#000000" font-family="sans-serif" font-size="13" font-weight="bold" lengthAdjust="spacing" textLength="14" x="1434.5" y="1016.6611">19</text><text fill="#000000" font-family="sans-serif" font-size="13" lengthAdjust="spacing" textLength="117" x="1452.5" y="1016.6611">validateBrand(brand)</text><line style="stroke:#181818;stroke-width:1.0;stroke-dasharray:2.0,2.0;" x1="1427.5" x2="1469.5" y1="1066.2148" y2="1066.2148"/><line style="stroke:#181818;stroke-width:1.0;stroke-dasharray:2.0,2.0;" x1="1469.5" x2="1469.5" y1="1066.2148" y2="1079.2148"/><line style="stroke:#181818;stroke-width:1.0;stroke-dasharray:2.0,2.0;" x1="1428.5" x2="1469.5" y1="1079.2148" y2="1079.2148"/><polygon fill="#181818" points="1438.5,1075.2148,1428.5,1079.2148,1438.5,1083.2148,1434.5,1079.2148" style="stroke:#181818;stroke-width:1.0;"/><text fill="#000000" font-family="sans-serif" font-size="13" font-weight="bold" lengthAdjust="spacing" textLength="14" x="1434.5" y="1060.9521">20</text><text fill="#000000" font-family="sans-serif" font-size="13" lengthAdjust="spacing" textLength="121" x="1452.5" y="1060.9521">validateModel(model)</text><line style="stroke:#181818;stroke-width:1.0;stroke-dasharray:2.0,2.0;" x1="1427.5" x2="1469.5" y1="1110.5059" y2="1110.5059"/><line style="stroke:#181818;stroke-width:1.0;stroke-dasharray:2.0,2.0;" x1="1469.5" x2="1469.5" y1="1110.5059" y2="1123.5059"/><line style="stroke:#181818;stroke-width:1.0;stroke-dasharray:2.0,2.0;" x1="1428.5" x2="1469.5" y1="1123.5059" y2="1123.5059"/><polygon fill="#181818" points="1438.5,1119.5059,1428.5,1123.5059,1438.5,1127.5059,1434.5,1123.5059" style="stroke:#181818;stroke-width:1.0;"/><text fill="#000000" font-family="sans-serif" font-size="13" font-weight="bold" lengthAdjust="spacing" textLength="14" x="1434.5" y="1105.2432">21</text><text fill="#000000" font-family="sans-serif" font-size="13" lengthAdjust="spacing" textLength="104" x="1452.5" y="1105.2432">validateType(type)</text><line style="stroke:#181818;stroke-width:1.0;stroke-dasharray:2.0,2.0;" x1="1427.5" x2="1469.5" y1="1154.7969" y2="1154.7969"/><line style="stroke:#181818;stroke-width:1.0;stroke-dasharray:2.0,2.0;" x1="1469.5" x2="1469.5" y1="1154.7969" y2="1167.7969"/><line style="stroke:#181818;stroke-width:1.0;stroke-dasharray:2.0,2.0;" x1="1428.5" x2="1469.5" y1="1167.7969" y2="1167.7969"/><polygon fill="#181818" points="1438.5,1163.7969,1428.5,1167.7969,1438.5,1171.7969,1434.5,1167.7969" style="stroke:#181818;stroke-width:1.0;"/><text fill="#000000" font-family="sans-serif" font-size="13" font-weight="bold" lengthAdjust="spacing" textLength="14" x="1434.5" y="1149.5342">22</text><text fill="#000000" font-family="sans-serif" font-size="13" lengthAdjust="spacing" textLength="98" x="1452.5" y="1149.5342">validateTare(tare)</text><line style="stroke:#181818;stroke-width:1.0;stroke-dasharray:2.0,2.0;" x1="1427.5" x2="1469.5" y1="1199.0879" y2="1199.0879"/><line style="stroke:#181818;stroke-width:1.0;stroke-dasharray:2.0,2.0;" x1="1469.5" x2="1469.5" y1="1199.0879" y2="1212.0879"/><line style="stroke:#181818;stroke-width:1.0;stroke-dasharray:2.0,2.0;" x1="1428.5" x2="1469.5" y1="1212.0879" y2="1212.0879"/><polygon fill="#181818" points="1438.5,1208.0879,1428.5,1212.0879,1438.5,1216.0879,1434.5,1212.0879" style="stroke:#181818;stroke-width:1.0;"/><text fill="#000000" font-family="sans-serif" font-size="13" font-weight="bold" lengthAdjust="spacing" textLength="14" x="1434.5" y="1193.8252">23</text><text fill="#000000" font-family="sans-serif" font-size="13" lengthAdjust="spacing" textLength="200" x="1452.5" y="1193.8252">validateGrossWeight(grossWeight)</text><line style="stroke:#181818;stroke-width:1.0;stroke-dasharray:2.0,2.0;" x1="1427.5" x2="1469.5" y1="1243.3789" y2="1243.3789"/><line style="stroke:#181818;stroke-width:1.0;stroke-dasharray:2.0,2.0;" x1="1469.5" x2="1469.5" y1="1243.3789" y2="1256.3789"/><line style="stroke:#181818;stroke-width:1.0;stroke-dasharray:2.0,2.0;" x1="1428.5" x2="1469.5" y1="1256.3789" y2="1256.3789"/><polygon fill="#181818" points="1438.5,1252.3789,1428.5,1256.3789,1438.5,1260.3789,1434.5,1256.3789" style="stroke:#181818;stroke-width:1.0;"/><text fill="#000000" font-family="sans-serif" font-size="13" font-weight="bold" lengthAdjust="spacing" textLength="14" x="1434.5" y="1238.1162">24</text><text fill="#000000" font-family="sans-serif" font-size="13" lengthAdjust="spacing" textLength="173" x="1452.5" y="1238.1162">validateCurrentKm(currentKm)</text><line style="stroke:#181818;stroke-width:1.0;stroke-dasharray:2.0,2.0;" x1="1427.5" x2="1469.5" y1="1287.6699" y2="1287.6699"/><line style="stroke:#181818;stroke-width:1.0;stroke-dasharray:2.0,2.0;" x1="1469.5" x2="1469.5" y1="1287.6699" y2="1300.6699"/><line style="stroke:#181818;stroke-width:1.0;stroke-dasharray:2.0,2.0;" x1="1428.5" x2="1469.5" y1="1300.6699" y2="1300.6699"/><polygon fill="#181818" points="1438.5,1296.6699,1428.5,1300.6699,1438.5,1304.6699,1434.5,1300.6699" style="stroke:#181818;stroke-width:1.0;"/><text fill="#000000" font-family="sans-serif" font-size="13" font-weight="bold" lengthAdjust="spacing" textLength="14" x="1434.5" y="1282.4072">25</text><text fill="#000000" font-family="sans-serif" font-size="13" lengthAdjust="spacing" textLength="196" x="1452.5" y="1282.4072">validateRegisterDate(registerDate)</text><polygon fill="#181818" points="1750.5,1327.9609,1760.5,1331.9609,1750.5,1335.9609,1754.5,1331.9609" style="stroke:#181818;stroke-width:1.0;"/><line style="stroke:#181818;stroke-width:1.0;" x1="1427.5" x2="1756.5" y1="1331.9609" y2="1331.9609"/><text fill="#000000" font-family="sans-serif" font-size="13" font-weight="bold" lengthAdjust="spacing" textLength="14" x="1434.5" y="1326.6982">26</text><text fill="#000000" font-family="sans-serif" font-size="13" lengthAdjust="spacing" textLength="132" x="1452.5" y="1326.6982">new Date(registerDate)</text><rect fill="#E3E3E3" height="32.6211" rx="2.5" ry="2.5" style="stroke:#181818;stroke-width:0.5;" width="48" x="1762.5" y="1308.6699"/><text fill="#000000" font-family="sans-serif" font-size="14" lengthAdjust="spacing" textLength="34" x="1769.5" y="1330.7773">:Date</text><line style="stroke:#181818;stroke-width:1.0;stroke-dasharray:2.0,2.0;" x1="1786.5" x2="1828.5" y1="1375.582" y2="1375.582"/><line style="stroke:#181818;stroke-width:1.0;stroke-dasharray:2.0,2.0;" x1="1828.5" x2="1828.5" y1="1375.582" y2="1388.582"/><line style="stroke:#181818;stroke-width:1.0;stroke-dasharray:2.0,2.0;" x1="1787.5" x2="1828.5" y1="1388.582" y2="1388.582"/><polygon fill="#181818" points="1797.5,1384.582,1787.5,1388.582,1797.5,1392.582,1793.5,1388.582" style="stroke:#181818;stroke-width:1.0;"/><text fill="#000000" font-family="sans-serif" font-size="13" font-weight="bold" lengthAdjust="spacing" textLength="14" x="1793.5" y="1370.3193">27</text><text fill="#000000" font-family="sans-serif" font-size="13" lengthAdjust="spacing" textLength="78" x="1811.5" y="1370.3193">validateDate()</text><line style="stroke:#181818;stroke-width:1.0;stroke-dasharray:2.0,2.0;" x1="1427.5" x2="1469.5" y1="1419.873" y2="1419.873"/><line style="stroke:#181818;stroke-width:1.0;stroke-dasharray:2.0,2.0;" x1="1469.5" x2="1469.5" y1="1419.873" y2="1432.873"/><line style="stroke:#181818;stroke-width:1.0;stroke-dasharray:2.0,2.0;" x1="1428.5" x2="1469.5" y1="1432.873" y2="1432.873"/><polygon fill="#181818" points="1438.5,1428.873,1428.5,1432.873,1438.5,1436.873,1434.5,1432.873" style="stroke:#181818;stroke-width:1.0;"/><text fill="#000000" font-family="sans-serif" font-size="13" font-weight="bold" lengthAdjust="spacing" textLength="14" x="1434.5" y="1414.6104">28</text><text fill="#000000" font-family="sans-serif" font-size="13" lengthAdjust="spacing" textLength="231" x="1452.5" y="1414.6104">validateAcquisitionDate(acquisitionDate)</text><polygon fill="#181818" points="1750.5,1460.1641,1760.5,1464.1641,1750.5,1468.1641,1754.5,1464.1641" style="stroke:#181818;stroke-width:1.0;"/><line style="stroke:#181818;stroke-width:1.0;" x1="1427.5" x2="1756.5" y1="1464.1641" y2="1464.1641"/><text fill="#000000" font-family="sans-serif" font-size="13" font-weight="bold" lengthAdjust="spacing" textLength="14" x="1434.5" y="1458.9014">29</text><text fill="#000000" font-family="sans-serif" font-size="13" lengthAdjust="spacing" textLength="151" x="1452.5" y="1458.9014">new Date(acquisitionDate)</text><rect fill="#E3E3E3" height="32.6211" rx="2.5" ry="2.5" style="stroke:#181818;stroke-width:0.5;" width="48" x="1762.5" y="1440.873"/><text fill="#000000" font-family="sans-serif" font-size="14" lengthAdjust="spacing" textLength="34" x="1769.5" y="1462.9805">:Date</text><line style="stroke:#181818;stroke-width:1.0;stroke-dasharray:2.0,2.0;" x1="1786.5" x2="1828.5" y1="1507.7852" y2="1507.7852"/><line style="stroke:#181818;stroke-width:1.0;stroke-dasharray:2.0,2.0;" x1="1828.5" x2="1828.5" y1="1507.7852" y2="1520.7852"/><line style="stroke:#181818;stroke-width:1.0;stroke-dasharray:2.0,2.0;" x1="1787.5" x2="1828.5" y1="1520.7852" y2="1520.7852"/><polygon fill="#181818" points="1797.5,1516.7852,1787.5,1520.7852,1797.5,1524.7852,1793.5,1520.7852" style="stroke:#181818;stroke-width:1.0;"/><text fill="#000000" font-family="sans-serif" font-size="13" font-weight="bold" lengthAdjust="spacing" textLength="14" x="1793.5" y="1502.5225">30</text><text fill="#000000" font-family="sans-serif" font-size="13" lengthAdjust="spacing" textLength="78" x="1811.5" y="1502.5225">validateDate()</text><line style="stroke:#181818;stroke-width:1.0;stroke-dasharray:2.0,2.0;" x1="1427.5" x2="1469.5" y1="1552.0762" y2="1552.0762"/><line style="stroke:#181818;stroke-width:1.0;stroke-dasharray:2.0,2.0;" x1="1469.5" x2="1469.5" y1="1552.0762" y2="1565.0762"/><line style="stroke:#181818;stroke-width:1.0;stroke-dasharray:2.0,2.0;" x1="1428.5" x2="1469.5" y1="1565.0762" y2="1565.0762"/><polygon fill="#181818" points="1438.5,1561.0762,1428.5,1565.0762,1438.5,1569.0762,1434.5,1565.0762" style="stroke:#181818;stroke-width:1.0;"/><text fill="#000000" font-family="sans-serif" font-size="13" font-weight="bold" lengthAdjust="spacing" textLength="14" x="1434.5" y="1546.8135">31</text><text fill="#000000" font-family="sans-serif" font-size="13" lengthAdjust="spacing" textLength="327" x="1452.5" y="1546.8135">validateCheckupFrequencyKms(checkupFrequencyKms)</text><line style="stroke:#181818;stroke-width:1.0;stroke-dasharray:2.0,2.0;" x1="1100.5" x2="1142.5" y1="1596.3672" y2="1596.3672"/><line style="stroke:#181818;stroke-width:1.0;stroke-dasharray:2.0,2.0;" x1="1142.5" x2="1142.5" y1="1596.3672" y2="1609.3672"/><line style="stroke:#181818;stroke-width:1.0;stroke-dasharray:2.0,2.0;" x1="1101.5" x2="1142.5" y1="1609.3672" y2="1609.3672"/><polygon fill="#181818" points="1111.5,1605.3672,1101.5,1609.3672,1111.5,1613.3672,1107.5,1609.3672" style="stroke:#181818;stroke-width:1.0;"/><text fill="#000000" font-family="sans-serif" font-size="13" font-weight="bold" lengthAdjust="spacing" textLength="14" x="1107.5" y="1591.1045">32</text><text fill="#000000" font-family="sans-serif" font-size="13" lengthAdjust="spacing" textLength="68" x="1125.5" y="1591.1045">add(vehicle)</text><line style="stroke:#181818;stroke-width:1.0;stroke-dasharray:2.0,2.0;" x1="1100.5" x2="1142.5" y1="1640.6582" y2="1640.6582"/><line style="stroke:#181818;stroke-width:1.0;stroke-dasharray:2.0,2.0;" x1="1142.5" x2="1142.5" y1="1640.6582" y2="1653.6582"/><line style="stroke:#181818;stroke-width:1.0;stroke-dasharray:2.0,2.0;" x1="1101.5" x2="1142.5" y1="1653.6582" y2="1653.6582"/><polygon fill="#181818" points="1111.5,1649.6582,1101.5,1653.6582,1111.5,1657.6582,1107.5,1653.6582" style="stroke:#181818;stroke-width:1.0;"/><text fill="#000000" font-family="sans-serif" font-size="13" font-weight="bold" lengthAdjust="spacing" textLength="14" x="1107.5" y="1635.3955">33</text><text fill="#000000" font-family="sans-serif" font-size="13" lengthAdjust="spacing" textLength="94" x="1125.5" y="1635.3955">validateVehicle()</text><polygon fill="#181818" points="711,1680.9492,701,1684.9492,711,1688.9492,707,1684.9492" style="stroke:#181818;stroke-width:1.0;"/><line style="stroke:#181818;stroke-width:1.0;stroke-dasharray:2.0,2.0;" x1="705" x2="1094.5" y1="1684.9492" y2="1684.9492"/><text fill="#000000" font-family="sans-serif" font-size="13" font-weight="bold" lengthAdjust="spacing" textLength="14" x="717" y="1679.6865">34</text><text fill="#000000" font-family="sans-serif" font-size="13" lengthAdjust="spacing" textLength="39" x="735" y="1679.6865">vehicle</text><polygon fill="#181818" points="418,1712.2402,408,1716.2402,418,1720.2402,414,1716.2402" style="stroke:#181818;stroke-width:1.0;"/><line style="stroke:#181818;stroke-width:1.0;stroke-dasharray:2.0,2.0;" x1="412" x2="694" y1="1716.2402" y2="1716.2402"/><text fill="#000000" font-family="sans-serif" font-size="13" font-weight="bold" lengthAdjust="spacing" textLength="14" x="424" y="1710.9775">35</text><text fill="#000000" font-family="sans-serif" font-size="13" lengthAdjust="spacing" textLength="39" x="442" y="1710.9775">vehicle</text><polygon fill="#181818" points="75,1743.5313,65,1747.5313,75,1751.5313,71,1747.5313" style="stroke:#181818;stroke-width:1.0;"/><line style="stroke:#181818;stroke-width:1.0;stroke-dasharray:2.0,2.0;" x1="69" x2="401" y1="1747.5313" y2="1747.5313"/><text fill="#000000" font-family="sans-serif" font-size="13" font-weight="bold" lengthAdjust="spacing" textLength="14" x="81" y="1742.2686">36</text><text fill="#000000" font-family="sans-serif" font-size="13" lengthAdjust="spacing" textLength="153" x="99" y="1742.2686">Display operation success</text><!--SRC=[pLOzRzim4DtrAmwPvC01CdNmOA2ray98WmPsaYvU6EeY4vP8XQGI-D-N7v9CINRY2cXJBYR8Uu_l7iydgYtZ1P4aXrnmGJTIv0XQbXYfPgSWT4jINEbTXY2HQiBJB0nG6vA8DyPJU2QPmYZIJ9lGXzNbvHUuWDLEQSnXXIybSeemPoIri7Yrce-YY9HQy39_GcdcL0i9Pu-uOTGmN6U8UitXbd0ZG9u1KV1uVHkPOpMZh21SmzbaYIap9yWAzR1mSG-BzyDcWcifigoYdTqlV_G0XL3C26AeNCpowkxdgXqaWvZ9cX-6BBWodb5iGr-zZWQoM_F9OtVDfroj6gwEn6edZEf4p8dsstRY36QlPkPiZC0CCu6BgR4B9YPigq0BSydUAY30yGqgfIwy8J3-kWKx3DXGM0lFpmqDbMWYL9G9KK39DSj0xmfC826Q05FmIZAMjD06ReLCO6chH6bL7-enSP4PnaKoXYT9kFd9HOBPsD6ErrmJYMD8fL3g5x9qeyT0IocHwvjyt6HZ7J31XBwKpBZB17ShG3T8jsLnBNs1xcvoDVAv9TXBDxJBdgv0UiLLUk-RL2ET0TQZm9W8UGBMiWx20RQ8XL5B_hqH1sz9RSGRa2ppjsE4r2uee88_CvaJItkIYnL0dM2Vhx6wmAg2_pnB6fskUJJBTjWLvvURJ215tVjlnwCMv1ssFUFKTnJFMFUL3b6BpFUithuTdYaG6JQp7YAunIESBOMrjjDoxqjkUkPnwSqHGGgzflfX7ir1XzCvbJgWFLODqx2HmtzJnItlmqzDpv5G_ZuRr_BjP-BJCZbO8lKRucAlD6YyTrvZfNK-6a3npMONkno7m6-jAx7pPWZythWPMqi7WSqTnFOYXe2_xwyk3gvn2DMillYuAO4XDCkWQEAmWZuWcxf7KLE_9yBjiBjEZ9libJYA8IbyRHTwt2dy0OcSnF1NSfdr_wFnQV_RLeFfzKkI977LX4T_2AsbrItgOtoxwHzhzKVRPVFnyC-z3ilHZqNhaJLdohId7OW2fNjEWIefHQKEFgj2LVPj7_q6]--></g></svg>