<?xml version="1.0" encoding="us-ascii" standalone="no"?><svg xmlns="http://www.w3.org/2000/svg" xmlns:xlink="http://www.w3.org/1999/xlink" contentStyleType="text/css" height="1274px" preserveAspectRatio="none" style="width:1708px;height:1274px;background:#FFFFFF;" version="1.1" viewBox="0 0 1708 1274" width="1708px" zoomAndPan="magnify"><defs/><g><text fill="#000000" font-family="sans-serif" font-size="14" font-weight="bold" lengthAdjust="spacing" textLength="284" x="711.75" y="30.1074">US006 - System Sequence Diagram (SSD)</text><rect fill="#FFFFFF" height="1049.4766" style="stroke:#181818;stroke-width:1.0;" width="10" x="49" y="133.2422"/><rect fill="#FFFFFF" height="144.7461" style="stroke:#181818;stroke-width:1.0;" width="10" x="391" y="156.5332"/><rect fill="#FFFFFF" height="31.291" style="stroke:#181818;stroke-width:1.0;" width="10" x="391" y="332.5703"/><rect fill="#FFFFFF" height="778.5664" style="stroke:#181818;stroke-width:1.0;" width="10" x="391" y="395.1523"/><rect fill="#FFFFFF" height="704.4023" style="stroke:#181818;stroke-width:1.0;" width="10" x="683" y="478.3164"/><rect fill="#FFFFFF" height="31.291" style="stroke:#181818;stroke-width:1.0;" width="10" x="831" y="509.6074"/><rect fill="#FFFFFF" height="31.291" style="stroke:#181818;stroke-width:1.0;" width="10" x="937.5" y="572.1895"/><rect fill="#FFFFFF" height="424.4922" style="stroke:#181818;stroke-width:1.0;" width="10" x="1063.5" y="686.6445"/><line style="stroke:#181818;stroke-width:0.5;stroke-dasharray:5.0,5.0;" x1="54" x2="54" y1="123.2422" y2="1191.7188"/><line style="stroke:#181818;stroke-width:0.5;stroke-dasharray:5.0,5.0;" x1="395.5" x2="395.5" y1="123.2422" y2="1191.7188"/><line style="stroke:#181818;stroke-width:0.5;stroke-dasharray:5.0,5.0;" x1="687.5" x2="687.5" y1="123.2422" y2="1191.7188"/><line style="stroke:#181818;stroke-width:0.5;stroke-dasharray:5.0,5.0;" x1="835.5" x2="835.5" y1="123.2422" y2="1191.7188"/><line style="stroke:#181818;stroke-width:0.5;stroke-dasharray:5.0,5.0;" x1="942.5" x2="942.5" y1="123.2422" y2="1191.7188"/><line style="stroke:#181818;stroke-width:0.5;stroke-dasharray:5.0,5.0;" x1="1068.5" x2="1068.5" y1="123.2422" y2="1191.7188"/><line style="stroke:#181818;stroke-width:0.5;stroke-dasharray:5.0,5.0;" x1="1349.5" x2="1349.5" y1="746.2266" y2="1191.7188"/><text fill="#000000" font-family="sans-serif" font-size="14" lengthAdjust="spacing" textLength="92" x="5" y="119.7285">Fleet Manager</text><ellipse cx="54" cy="53.1211" fill="#E3E3E3" rx="8" ry="8" style="stroke:#181818;stroke-width:0.5;"/><path d="M54,61.1211 L54,88.1211 M41,69.1211 L67,69.1211 M54,88.1211 L41,103.1211 M54,88.1211 L67,103.1211 " fill="none" style="stroke:#181818;stroke-width:0.5;"/><text fill="#000000" font-family="sans-serif" font-size="14" lengthAdjust="spacing" textLength="92" x="5" y="1205.8262">Fleet Manager</text><ellipse cx="54" cy="1217.8398" fill="#E3E3E3" rx="8" ry="8" style="stroke:#181818;stroke-width:0.5;"/><path d="M54,1225.8398 L54,1252.8398 M41,1233.8398 L67,1233.8398 M54,1252.8398 L41,1267.8398 M54,1252.8398 L67,1267.8398 " fill="none" style="stroke:#181818;stroke-width:0.5;"/><rect fill="#E3E3E3" height="32.6211" rx="2.5" ry="2.5" style="stroke:#181818;stroke-width:0.5;" width="129" x="331.5" y="89.6211"/><text fill="#000000" font-family="sans-serif" font-size="14" lengthAdjust="spacing" textLength="115" x="338.5" y="111.7285">:RegisterVehicleUI</text><rect fill="#E3E3E3" height="32.6211" rx="2.5" ry="2.5" style="stroke:#181818;stroke-width:0.5;" width="129" x="331.5" y="1190.7188"/><text fill="#000000" font-family="sans-serif" font-size="14" lengthAdjust="spacing" textLength="115" x="338.5" y="1212.8262">:RegisterVehicleUI</text><rect fill="#E3E3E3" height="32.6211" rx="2.5" ry="2.5" style="stroke:#181818;stroke-width:0.5;" width="179" x="598.5" y="89.6211"/><text fill="#000000" font-family="sans-serif" font-size="14" lengthAdjust="spacing" textLength="165" x="605.5" y="111.7285">:RegisterVehicleController</text><rect fill="#E3E3E3" height="32.6211" rx="2.5" ry="2.5" style="stroke:#181818;stroke-width:0.5;" width="179" x="598.5" y="1190.7188"/><text fill="#000000" font-family="sans-serif" font-size="14" lengthAdjust="spacing" textLength="165" x="605.5" y="1212.8262">:RegisterVehicleController</text><rect fill="#E3E3E3" height="32.6211" rx="2.5" ry="2.5" style="stroke:#181818;stroke-width:0.5;" width="97" x="787.5" y="89.6211"/><text fill="#000000" font-family="sans-serif" font-size="14" lengthAdjust="spacing" textLength="83" x="794.5" y="111.7285">:Repositories</text><rect fill="#E3E3E3" height="32.6211" rx="2.5" ry="2.5" style="stroke:#181818;stroke-width:0.5;" width="97" x="787.5" y="1190.7188"/><text fill="#000000" font-family="sans-serif" font-size="14" lengthAdjust="spacing" textLength="83" x="794.5" y="1212.8262">:Repositories</text><rect fill="#E3E3E3" height="51.2422" rx="2.5" ry="2.5" style="stroke:#181818;stroke-width:0.5;" width="96" x="894.5" y="71"/><text fill="#000000" font-family="sans-serif" font-size="14" lengthAdjust="spacing" textLength="78" x="901.5" y="93.1074">:repositories</text><text fill="#000000" font-family="sans-serif" font-size="14" lengthAdjust="spacing" textLength="79" x="903" y="111.7285">Repositories</text><rect fill="#E3E3E3" height="51.2422" rx="2.5" ry="2.5" style="stroke:#181818;stroke-width:0.5;" width="96" x="894.5" y="1190.7188"/><text fill="#000000" font-family="sans-serif" font-size="14" lengthAdjust="spacing" textLength="78" x="901.5" y="1212.8262">:repositories</text><text fill="#000000" font-family="sans-serif" font-size="14" lengthAdjust="spacing" textLength="79" x="903" y="1231.4473">Repositories</text><rect fill="#E3E3E3" height="51.2422" rx="2.5" ry="2.5" style="stroke:#181818;stroke-width:0.5;" width="136" x="1000.5" y="71"/><text fill="#000000" font-family="sans-serif" font-size="14" lengthAdjust="spacing" textLength="118" x="1007.5" y="93.1074">:VehicleRepository</text><text fill="#000000" font-family="sans-serif" font-size="14" lengthAdjust="spacing" textLength="114" x="1011.5" y="111.7285">VehicleRepository</text><rect fill="#E3E3E3" height="51.2422" rx="2.5" ry="2.5" style="stroke:#181818;stroke-width:0.5;" width="136" x="1000.5" y="1190.7188"/><text fill="#000000" font-family="sans-serif" font-size="14" lengthAdjust="spacing" textLength="118" x="1007.5" y="1212.8262">:VehicleRepository</text><text fill="#000000" font-family="sans-serif" font-size="14" lengthAdjust="spacing" textLength="114" x="1011.5" y="1231.4473">VehicleRepository</text><rect fill="#E3E3E3" height="32.6211" rx="2.5" ry="2.5" style="stroke:#181818;stroke-width:0.5;" width="60" x="1319.5" y="1190.7188"/><text fill="#000000" font-family="sans-serif" font-size="14" lengthAdjust="spacing" textLength="46" x="1326.5" y="1212.8262">Vehicle</text><rect fill="#FFFFFF" height="1049.4766" style="stroke:#181818;stroke-width:1.0;" width="10" x="49" y="133.2422"/><rect fill="#FFFFFF" height="144.7461" style="stroke:#181818;stroke-width:1.0;" width="10" x="391" y="156.5332"/><rect fill="#FFFFFF" height="31.291" style="stroke:#181818;stroke-width:1.0;" width="10" x="391" y="332.5703"/><rect fill="#FFFFFF" height="778.5664" style="stroke:#181818;stroke-width:1.0;" width="10" x="391" y="395.1523"/><rect fill="#FFFFFF" height="704.4023" style="stroke:#181818;stroke-width:1.0;" width="10" x="683" y="478.3164"/><rect fill="#FFFFFF" height="31.291" style="stroke:#181818;stroke-width:1.0;" width="10" x="831" y="509.6074"/><rect fill="#FFFFFF" height="31.291" style="stroke:#181818;stroke-width:1.0;" width="10" x="937.5" y="572.1895"/><rect fill="#FFFFFF" height="424.4922" style="stroke:#181818;stroke-width:1.0;" width="10" x="1063.5" y="686.6445"/><polygon fill="#181818" points="379,152.5332,389,156.5332,379,160.5332,383,156.5332" style="stroke:#181818;stroke-width:1.0;"/><line style="stroke:#181818;stroke-width:1.0;" x1="59" x2="385" y1="156.5332" y2="156.5332"/><text fill="#000000" font-family="sans-serif" font-size="13" font-weight="bold" lengthAdjust="spacing" textLength="7" x="66" y="151.2705">1</text><text fill="#000000" font-family="sans-serif" font-size="13" lengthAdjust="spacing" textLength="166" x="77" y="151.2705">Asks to create a new vehicle</text><line style="stroke:#181818;stroke-width:1.0;" x1="401" x2="443" y1="222.4063" y2="222.4063"/><line style="stroke:#181818;stroke-width:1.0;" x1="443" x2="443" y1="222.4063" y2="235.4063"/><line style="stroke:#181818;stroke-width:1.0;" x1="402" x2="443" y1="235.4063" y2="235.4063"/><polygon fill="#181818" points="412,231.4063,402,235.4063,412,239.4063,408,235.4063" style="stroke:#181818;stroke-width:1.0;"/><text fill="#000000" font-family="sans-serif" font-size="13" font-weight="bold" lengthAdjust="spacing" textLength="7" x="408" y="199.8525">2</text><text fill="#000000" font-family="sans-serif" font-size="13" lengthAdjust="spacing" textLength="221" x="419" y="182.5615">keepData(plate id, brand, model, type,</text><text fill="#000000" font-family="sans-serif" font-size="13" lengthAdjust="spacing" textLength="257" x="419" y="199.8525">tare, gross weight, current km, register date,</text><text fill="#000000" font-family="sans-serif" font-size="13" lengthAdjust="spacing" textLength="241" x="419" y="217.1436">acquisition date, checkup frequency kms)</text><polygon fill="#181818" points="70,297.2793,60,301.2793,70,305.2793,66,301.2793" style="stroke:#181818;stroke-width:1.0;"/><line style="stroke:#181818;stroke-width:1.0;stroke-dasharray:2.0,2.0;" x1="64" x2="395" y1="301.2793" y2="301.2793"/><text fill="#000000" font-family="sans-serif" font-size="13" font-weight="bold" lengthAdjust="spacing" textLength="7" x="76" y="278.7256">3</text><text fill="#000000" font-family="sans-serif" font-size="13" lengthAdjust="spacing" textLength="297" x="87" y="261.4346">Requests vehicle data (plate id, brand, model, type,</text><text fill="#000000" font-family="sans-serif" font-size="13" lengthAdjust="spacing" textLength="257" x="87" y="278.7256">tare, gross weight, current km, register date,</text><text fill="#000000" font-family="sans-serif" font-size="13" lengthAdjust="spacing" textLength="241" x="87" y="296.0166">acquisition date, checkup frequency kms)</text><polygon fill="#181818" points="379,328.5703,389,332.5703,379,336.5703,383,332.5703" style="stroke:#181818;stroke-width:1.0;"/><line style="stroke:#181818;stroke-width:1.0;" x1="59" x2="385" y1="332.5703" y2="332.5703"/><text fill="#000000" font-family="sans-serif" font-size="13" font-weight="bold" lengthAdjust="spacing" textLength="7" x="66" y="327.3076">4</text><text fill="#000000" font-family="sans-serif" font-size="13" lengthAdjust="spacing" textLength="125" x="77" y="327.3076">Types requested data</text><polygon fill="#181818" points="70,359.8613,60,363.8613,70,367.8613,66,363.8613" style="stroke:#181818;stroke-width:1.0;"/><line style="stroke:#181818;stroke-width:1.0;stroke-dasharray:2.0,2.0;" x1="64" x2="395" y1="363.8613" y2="363.8613"/><text fill="#000000" font-family="sans-serif" font-size="13" font-weight="bold" lengthAdjust="spacing" textLength="7" x="76" y="358.5986">5</text><text fill="#000000" font-family="sans-serif" font-size="13" lengthAdjust="spacing" textLength="238" x="87" y="358.5986">Shows all data and requests confirmation</text><polygon fill="#181818" points="379,391.1523,389,395.1523,379,399.1523,383,395.1523" style="stroke:#181818;stroke-width:1.0;"/><line style="stroke:#181818;stroke-width:1.0;" x1="59" x2="385" y1="395.1523" y2="395.1523"/><text fill="#000000" font-family="sans-serif" font-size="13" font-weight="bold" lengthAdjust="spacing" textLength="7" x="66" y="389.8896">6</text><text fill="#000000" font-family="sans-serif" font-size="13" lengthAdjust="spacing" textLength="155" x="77" y="389.8896">Confirms data and submits</text><polygon fill="#181818" points="671,474.3164,681,478.3164,671,482.3164,675,478.3164" style="stroke:#181818;stroke-width:1.0;"/><line style="stroke:#181818;stroke-width:1.0;" x1="401" x2="677" y1="478.3164" y2="478.3164"/><text fill="#000000" font-family="sans-serif" font-size="13" font-weight="bold" lengthAdjust="spacing" textLength="7" x="408" y="447.1172">7</text><text fill="#000000" font-family="sans-serif" font-size="13" lengthAdjust="spacing" textLength="212" x="419" y="421.1807">RegisterVehicle(plateId,brand,model,</text><text fill="#000000" font-family="sans-serif" font-size="13" lengthAdjust="spacing" textLength="196" x="419" y="438.4717">type,tare,grossWeight,currentKm,</text><text fill="#000000" font-family="sans-serif" font-size="13" lengthAdjust="spacing" textLength="167" x="419" y="455.7627">registerDate,acquisitionDate,</text><text fill="#000000" font-family="sans-serif" font-size="13" lengthAdjust="spacing" textLength="141" x="419" y="473.0537">checkupFrequencyKms)</text><polygon fill="#181818" points="819,505.6074,829,509.6074,819,513.6074,823,509.6074" style="stroke:#181818;stroke-width:1.0;"/><line style="stroke:#181818;stroke-width:1.0;" x1="693" x2="825" y1="509.6074" y2="509.6074"/><text fill="#000000" font-family="sans-serif" font-size="13" font-weight="bold" lengthAdjust="spacing" textLength="7" x="700" y="504.3447">8</text><text fill="#000000" font-family="sans-serif" font-size="13" lengthAdjust="spacing" textLength="75" x="711" y="504.3447">getInstance()</text><polygon fill="#181818" points="704,536.8984,694,540.8984,704,544.8984,700,540.8984" style="stroke:#181818;stroke-width:1.0;"/><line style="stroke:#181818;stroke-width:1.0;stroke-dasharray:2.0,2.0;" x1="698" x2="835" y1="540.8984" y2="540.8984"/><text fill="#000000" font-family="sans-serif" font-size="13" font-weight="bold" lengthAdjust="spacing" textLength="7" x="710" y="535.6357">9</text><text fill="#000000" font-family="sans-serif" font-size="13" lengthAdjust="spacing" textLength="67" x="721" y="535.6357">repositories</text><polygon fill="#181818" points="925.5,568.1895,935.5,572.1895,925.5,576.1895,929.5,572.1895" style="stroke:#181818;stroke-width:1.0;"/><line style="stroke:#181818;stroke-width:1.0;" x1="693" x2="931.5" y1="572.1895" y2="572.1895"/><text fill="#000000" font-family="sans-serif" font-size="13" font-weight="bold" lengthAdjust="spacing" textLength="14" x="700" y="566.9268">10</text><text fill="#000000" font-family="sans-serif" font-size="13" lengthAdjust="spacing" textLength="131" x="718" y="566.9268">getVehicleRepository()</text><polygon fill="#181818" points="704,599.4805,694,603.4805,704,607.4805,700,603.4805" style="stroke:#181818;stroke-width:1.0;"/><line style="stroke:#181818;stroke-width:1.0;stroke-dasharray:2.0,2.0;" x1="698" x2="941.5" y1="603.4805" y2="603.4805"/><text fill="#000000" font-family="sans-serif" font-size="13" font-weight="bold" lengthAdjust="spacing" textLength="14" x="710" y="598.2178">11</text><text fill="#000000" font-family="sans-serif" font-size="13" lengthAdjust="spacing" textLength="105" x="728" y="598.2178">VehicleRepository</text><polygon fill="#181818" points="1051.5,682.6445,1061.5,686.6445,1051.5,690.6445,1055.5,686.6445" style="stroke:#181818;stroke-width:1.0;"/><line style="stroke:#181818;stroke-width:1.0;" x1="693" x2="1057.5" y1="686.6445" y2="686.6445"/><text fill="#000000" font-family="sans-serif" font-size="13" font-weight="bold" lengthAdjust="spacing" textLength="14" x="700" y="655.4453">12</text><text fill="#000000" font-family="sans-serif" font-size="13" lengthAdjust="spacing" textLength="204" x="718" y="629.5088">createVehicle (plateId,brand,model,</text><text fill="#000000" font-family="sans-serif" font-size="13" lengthAdjust="spacing" textLength="196" x="718" y="646.7998">type,tare,grossWeight,currentKm,</text><text fill="#000000" font-family="sans-serif" font-size="13" lengthAdjust="spacing" textLength="167" x="718" y="664.0908">registerDate,acquisitionDate,</text><text fill="#000000" font-family="sans-serif" font-size="13" lengthAdjust="spacing" textLength="141" x="718" y="681.3818">checkupFrequencyKms)</text><polygon fill="#181818" points="1307.5,765.8086,1317.5,769.8086,1307.5,773.8086,1311.5,769.8086" style="stroke:#181818;stroke-width:1.0;"/><line style="stroke:#181818;stroke-width:1.0;" x1="1073.5" x2="1313.5" y1="769.8086" y2="769.8086"/><text fill="#000000" font-family="sans-serif" font-size="13" font-weight="bold" lengthAdjust="spacing" textLength="14" x="1080.5" y="738.6094">13</text><text fill="#000000" font-family="sans-serif" font-size="13" lengthAdjust="spacing" textLength="204" x="1098.5" y="712.6729">createVehicle (plateId,brand,model,</text><text fill="#000000" font-family="sans-serif" font-size="13" lengthAdjust="spacing" textLength="196" x="1098.5" y="729.9639">type,tare,grossWeight,currentKm,</text><text fill="#000000" font-family="sans-serif" font-size="13" lengthAdjust="spacing" textLength="167" x="1098.5" y="747.2549">registerDate,acquisitionDate,</text><text fill="#000000" font-family="sans-serif" font-size="13" lengthAdjust="spacing" textLength="141" x="1098.5" y="764.5459">checkupFrequencyKms)</text><rect fill="#E3E3E3" height="32.6211" rx="2.5" ry="2.5" style="stroke:#181818;stroke-width:0.5;" width="60" x="1319.5" y="734.1875"/><text fill="#000000" font-family="sans-serif" font-size="14" lengthAdjust="spacing" textLength="46" x="1326.5" y="756.2949">Vehicle</text><line style="stroke:#181818;stroke-width:1.0;" x1="1349.5" x2="1391.5" y1="801.0996" y2="801.0996"/><line style="stroke:#181818;stroke-width:1.0;" x1="1391.5" x2="1391.5" y1="801.0996" y2="814.0996"/><line style="stroke:#181818;stroke-width:1.0;" x1="1350.5" x2="1391.5" y1="814.0996" y2="814.0996"/><polygon fill="#181818" points="1360.5,810.0996,1350.5,814.0996,1360.5,818.0996,1356.5,814.0996" style="stroke:#181818;stroke-width:1.0;"/><text fill="#000000" font-family="sans-serif" font-size="13" font-weight="bold" lengthAdjust="spacing" textLength="14" x="1356.5" y="795.8369">14</text><text fill="#000000" font-family="sans-serif" font-size="13" lengthAdjust="spacing" textLength="129" x="1374.5" y="795.8369">validatePlateId(plateId)</text><line style="stroke:#181818;stroke-width:1.0;" x1="1349.5" x2="1391.5" y1="845.3906" y2="845.3906"/><line style="stroke:#181818;stroke-width:1.0;" x1="1391.5" x2="1391.5" y1="845.3906" y2="858.3906"/><line style="stroke:#181818;stroke-width:1.0;" x1="1350.5" x2="1391.5" y1="858.3906" y2="858.3906"/><polygon fill="#181818" points="1360.5,854.3906,1350.5,858.3906,1360.5,862.3906,1356.5,858.3906" style="stroke:#181818;stroke-width:1.0;"/><text fill="#000000" font-family="sans-serif" font-size="13" font-weight="bold" lengthAdjust="spacing" textLength="14" x="1356.5" y="840.1279">15</text><text fill="#000000" font-family="sans-serif" font-size="13" lengthAdjust="spacing" textLength="98" x="1374.5" y="840.1279">validateTare(tare)</text><line style="stroke:#181818;stroke-width:1.0;" x1="1349.5" x2="1391.5" y1="889.6816" y2="889.6816"/><line style="stroke:#181818;stroke-width:1.0;" x1="1391.5" x2="1391.5" y1="889.6816" y2="902.6816"/><line style="stroke:#181818;stroke-width:1.0;" x1="1350.5" x2="1391.5" y1="902.6816" y2="902.6816"/><polygon fill="#181818" points="1360.5,898.6816,1350.5,902.6816,1360.5,906.6816,1356.5,902.6816" style="stroke:#181818;stroke-width:1.0;"/><text fill="#000000" font-family="sans-serif" font-size="13" font-weight="bold" lengthAdjust="spacing" textLength="14" x="1356.5" y="884.4189">16</text><text fill="#000000" font-family="sans-serif" font-size="13" lengthAdjust="spacing" textLength="173" x="1374.5" y="884.4189">validateCurrentKm(currentKm)</text><line style="stroke:#181818;stroke-width:1.0;" x1="1349.5" x2="1391.5" y1="933.9727" y2="933.9727"/><line style="stroke:#181818;stroke-width:1.0;" x1="1391.5" x2="1391.5" y1="933.9727" y2="946.9727"/><line style="stroke:#181818;stroke-width:1.0;" x1="1350.5" x2="1391.5" y1="946.9727" y2="946.9727"/><polygon fill="#181818" points="1360.5,942.9727,1350.5,946.9727,1360.5,950.9727,1356.5,946.9727" style="stroke:#181818;stroke-width:1.0;"/><text fill="#000000" font-family="sans-serif" font-size="13" font-weight="bold" lengthAdjust="spacing" textLength="14" x="1356.5" y="928.71">17</text><text fill="#000000" font-family="sans-serif" font-size="13" lengthAdjust="spacing" textLength="196" x="1374.5" y="928.71">validateRegisterDate(registerDate)</text><line style="stroke:#181818;stroke-width:1.0;" x1="1349.5" x2="1391.5" y1="978.2637" y2="978.2637"/><line style="stroke:#181818;stroke-width:1.0;" x1="1391.5" x2="1391.5" y1="978.2637" y2="991.2637"/><line style="stroke:#181818;stroke-width:1.0;" x1="1350.5" x2="1391.5" y1="991.2637" y2="991.2637"/><polygon fill="#181818" points="1360.5,987.2637,1350.5,991.2637,1360.5,995.2637,1356.5,991.2637" style="stroke:#181818;stroke-width:1.0;"/><text fill="#000000" font-family="sans-serif" font-size="13" font-weight="bold" lengthAdjust="spacing" textLength="14" x="1356.5" y="973.001">18</text><text fill="#000000" font-family="sans-serif" font-size="13" lengthAdjust="spacing" textLength="327" x="1374.5" y="973.001">validateCheckupFrequencyKms(checkupFrequencyKms)</text><line style="stroke:#181818;stroke-width:1.0;" x1="1073.5" x2="1115.5" y1="1022.5547" y2="1022.5547"/><line style="stroke:#181818;stroke-width:1.0;" x1="1115.5" x2="1115.5" y1="1022.5547" y2="1035.5547"/><line style="stroke:#181818;stroke-width:1.0;" x1="1074.5" x2="1115.5" y1="1035.5547" y2="1035.5547"/><polygon fill="#181818" points="1084.5,1031.5547,1074.5,1035.5547,1084.5,1039.5547,1080.5,1035.5547" style="stroke:#181818;stroke-width:1.0;"/><text fill="#000000" font-family="sans-serif" font-size="13" font-weight="bold" lengthAdjust="spacing" textLength="14" x="1080.5" y="1017.292">19</text><text fill="#000000" font-family="sans-serif" font-size="13" lengthAdjust="spacing" textLength="150" x="1098.5" y="1017.292">addToVehicleList(Vehicle)</text><line style="stroke:#181818;stroke-width:1.0;" x1="1073.5" x2="1115.5" y1="1066.8457" y2="1066.8457"/><line style="stroke:#181818;stroke-width:1.0;" x1="1115.5" x2="1115.5" y1="1066.8457" y2="1079.8457"/><line style="stroke:#181818;stroke-width:1.0;" x1="1074.5" x2="1115.5" y1="1079.8457" y2="1079.8457"/><polygon fill="#181818" points="1084.5,1075.8457,1074.5,1079.8457,1084.5,1083.8457,1080.5,1079.8457" style="stroke:#181818;stroke-width:1.0;"/><text fill="#000000" font-family="sans-serif" font-size="13" font-weight="bold" lengthAdjust="spacing" textLength="14" x="1080.5" y="1061.583">20</text><text fill="#000000" font-family="sans-serif" font-size="13" lengthAdjust="spacing" textLength="133" x="1098.5" y="1061.583">validateVehicle(vehicle)</text><polygon fill="#181818" points="704,1107.1367,694,1111.1367,704,1115.1367,700,1111.1367" style="stroke:#181818;stroke-width:1.0;"/><line style="stroke:#181818;stroke-width:1.0;stroke-dasharray:2.0,2.0;" x1="698" x2="1067.5" y1="1111.1367" y2="1111.1367"/><text fill="#000000" font-family="sans-serif" font-size="13" font-weight="bold" lengthAdjust="spacing" textLength="14" x="710" y="1105.874">21</text><text fill="#000000" font-family="sans-serif" font-size="13" lengthAdjust="spacing" textLength="111" x="728" y="1105.874">Operation Success</text><polygon fill="#181818" points="412,1138.4277,402,1142.4277,412,1146.4277,408,1142.4277" style="stroke:#181818;stroke-width:1.0;"/><line style="stroke:#181818;stroke-width:1.0;stroke-dasharray:2.0,2.0;" x1="406" x2="682" y1="1142.4277" y2="1142.4277"/><text fill="#000000" font-family="sans-serif" font-size="13" font-weight="bold" lengthAdjust="spacing" textLength="14" x="418" y="1137.165">22</text><text fill="#000000" font-family="sans-serif" font-size="13" lengthAdjust="spacing" textLength="109" x="436" y="1137.165">Operation success</text><polygon fill="#181818" points="70,1169.7188,60,1173.7188,70,1177.7188,66,1173.7188" style="stroke:#181818;stroke-width:1.0;"/><line style="stroke:#181818;stroke-width:1.0;stroke-dasharray:2.0,2.0;" x1="64" x2="395" y1="1173.7188" y2="1173.7188"/><text fill="#000000" font-family="sans-serif" font-size="13" font-weight="bold" lengthAdjust="spacing" textLength="14" x="76" y="1168.4561">23</text><text fill="#000000" font-family="sans-serif" font-size="13" lengthAdjust="spacing" textLength="160" x="94" y="1168.4561">Displays operation success</text><!--SRC=[pLN1RgCm4Btp5QEUI9L8FUs1GwLLqafLkzeAqkob5zTCYHMmgMqIyVSxna18IDhiPNUvGEmtps_cUIPc8sJ9D2kWK5BnjLO5WjKL1gRVAHdVi0mJM-S86hbbCik70BDcgTe9cS4xomq6WHMMe2_9pSqtc45I6ui59FXHeUG82y4o5nOcoM8I1AooIbR56shwvbPfkBhF4ItyO9AErLV03DmLPQvgn81Ej8ABaaaBLr6CcI1olSAru3c-F3HWV-3dqBcILgiyR_ddo_Xf550g8qYFGDDWuhld8uWUGE1Ldef8ZaBQutjeJN6ZjIPu5JVr45jcSPz_0FHqls1ssrKtWkzcOy0gu1fT10E9EzXwwYQg9slhuzRyv-pMloFO89OBPbbOvWufqYcyQIRfLQWKyodOkiJfgxHCunGohOo17OfiRQV0AwsHajmKKxecljgG4WtX6V-e12KdbFHBmDV8DrK9xzhVYvhYp6GW2c16wVMfHX0xeB6cIyeHCVYdIbCyBkfvVvQanu3sIM3Qg3_fIxCugCDH6PArsXbWUUxpfvGxKWDSoNUX2-RK_x70kGysUrvJlHN2chEtPtY3N0V1SPTvSnxIgRV6EqEUE6iQOnfVVdbRMbSU2q9qhYoS0mDB5jwarfBxpf77pf03fKrJzylkSIkpMshB23Aq3zBGBECOJWvHFO7h-8CTMfZvL2CODlyXQb3q4KEl86aaZ5h_Cot9I4pIgnaHVIOfEQLf5KVjx6YvuA-wTpfhDmI76wkOX7fvrzV_ZzvMGQyjWYtBXHiVprvI9sroOTYIv8PEywK1yowTi4_iqj1ua7quBCN5Pu_h4vwksTXBkdGiJPUg9NsYmyFsUt8QtftQZPXjZpw6TxtniqJTZ4H8AixHd6_Nu-lMTCR-tt5FP3gYhwRrGXYolZQWHh5dvdCG_0O0]--></g></svg>