<?xml version="1.0" encoding="us-ascii" standalone="no"?><svg xmlns="http://www.w3.org/2000/svg" xmlns:xlink="http://www.w3.org/1999/xlink" contentStyleType="text/css" height="850px" preserveAspectRatio="none" style="width:1114px;height:850px;background:#FFFFFF;" version="1.1" viewBox="0 0 1114 850" width="1114px" zoomAndPan="magnify"><defs/><g><text fill="#000000" font-family="sans-serif" font-size="14" font-weight="bold" lengthAdjust="spacing" textLength="284" x="414" y="30.1074">US006 - System Sequence Diagram (SSD)</text><rect fill="#FFFFFF" height="624.7324" style="stroke:#181818;stroke-width:1.0;" width="10" x="49" y="133.2422"/><rect fill="#FFFFFF" height="65.873" style="stroke:#181818;stroke-width:1.0;" width="10" x="391" y="156.5332"/><rect fill="#FFFFFF" height="31.291" style="stroke:#181818;stroke-width:1.0;" width="10" x="391" y="253.6973"/><rect fill="#FFFFFF" height="432.6953" style="stroke:#181818;stroke-width:1.0;" width="10" x="391" y="316.2793"/><rect fill="#FFFFFF" height="358.5313" style="stroke:#181818;stroke-width:1.0;" width="10" x="690" y="399.4434"/><rect fill="#FFFFFF" height="275.3672" style="stroke:#181818;stroke-width:1.0;" width="10" x="942" y="482.6074"/><line style="stroke:#181818;stroke-width:0.5;stroke-dasharray:5.0,5.0;" x1="54" x2="54" y1="123.2422" y2="766.9746"/><line style="stroke:#181818;stroke-width:0.5;stroke-dasharray:5.0,5.0;" x1="395.5" x2="395.5" y1="123.2422" y2="766.9746"/><line style="stroke:#181818;stroke-width:0.5;stroke-dasharray:5.0,5.0;" x1="694.5" x2="694.5" y1="123.2422" y2="766.9746"/><line style="stroke:#181818;stroke-width:0.5;stroke-dasharray:5.0,5.0;" x1="946.5" x2="946.5" y1="123.2422" y2="766.9746"/><line style="stroke:#181818;stroke-width:0.5;stroke-dasharray:5.0,5.0;" x1="1078" x2="1078" y1="572.418" y2="766.9746"/><text fill="#000000" font-family="sans-serif" font-size="14" lengthAdjust="spacing" textLength="92" x="5" y="119.7285">Fleet Manager</text><ellipse cx="54" cy="53.1211" fill="#E3E3E3" rx="8" ry="8" style="stroke:#181818;stroke-width:0.5;"/><path d="M54,61.1211 L54,88.1211 M41,69.1211 L67,69.1211 M54,88.1211 L41,103.1211 M54,88.1211 L67,103.1211 " fill="none" style="stroke:#181818;stroke-width:0.5;"/><text fill="#000000" font-family="sans-serif" font-size="14" lengthAdjust="spacing" textLength="92" x="5" y="781.082">Fleet Manager</text><ellipse cx="54" cy="793.0957" fill="#E3E3E3" rx="8" ry="8" style="stroke:#181818;stroke-width:0.5;"/><path d="M54,801.0957 L54,828.0957 M41,809.0957 L67,809.0957 M54,828.0957 L41,843.0957 M54,828.0957 L67,843.0957 " fill="none" style="stroke:#181818;stroke-width:0.5;"/><rect fill="#E3E3E3" height="32.6211" rx="2.5" ry="2.5" style="stroke:#181818;stroke-width:0.5;" width="129" x="331.5" y="89.6211"/><text fill="#000000" font-family="sans-serif" font-size="14" lengthAdjust="spacing" textLength="115" x="338.5" y="111.7285">:RegisterVehicleUI</text><rect fill="#E3E3E3" height="32.6211" rx="2.5" ry="2.5" style="stroke:#181818;stroke-width:0.5;" width="129" x="331.5" y="765.9746"/><text fill="#000000" font-family="sans-serif" font-size="14" lengthAdjust="spacing" textLength="115" x="338.5" y="788.082">:RegisterVehicleUI</text><rect fill="#E3E3E3" height="32.6211" rx="2.5" ry="2.5" style="stroke:#181818;stroke-width:0.5;" width="179" x="605.5" y="89.6211"/><text fill="#000000" font-family="sans-serif" font-size="14" lengthAdjust="spacing" textLength="165" x="612.5" y="111.7285">:RegisterVehicleController</text><rect fill="#E3E3E3" height="32.6211" rx="2.5" ry="2.5" style="stroke:#181818;stroke-width:0.5;" width="179" x="605.5" y="765.9746"/><text fill="#000000" font-family="sans-serif" font-size="14" lengthAdjust="spacing" textLength="165" x="612.5" y="788.082">:RegisterVehicleController</text><rect fill="#E3E3E3" height="51.2422" rx="2.5" ry="2.5" style="stroke:#181818;stroke-width:0.5;" width="99" x="897.5" y="71"/><text fill="#000000" font-family="sans-serif" font-size="14" lengthAdjust="spacing" textLength="81" x="904.5" y="93.1074">:organization</text><text fill="#000000" font-family="sans-serif" font-size="14" lengthAdjust="spacing" textLength="80" x="907" y="111.7285">Organization</text><rect fill="#E3E3E3" height="51.2422" rx="2.5" ry="2.5" style="stroke:#181818;stroke-width:0.5;" width="99" x="897.5" y="765.9746"/><text fill="#000000" font-family="sans-serif" font-size="14" lengthAdjust="spacing" textLength="81" x="904.5" y="788.082">:organization</text><text fill="#000000" font-family="sans-serif" font-size="14" lengthAdjust="spacing" textLength="80" x="907" y="806.7031">Organization</text><rect fill="#E3E3E3" height="32.6211" rx="2.5" ry="2.5" style="stroke:#181818;stroke-width:0.5;" width="60" x="1048" y="765.9746"/><text fill="#000000" font-family="sans-serif" font-size="14" lengthAdjust="spacing" textLength="46" x="1055" y="788.082">Vehicle</text><rect fill="#FFFFFF" height="624.7324" style="stroke:#181818;stroke-width:1.0;" width="10" x="49" y="133.2422"/><rect fill="#FFFFFF" height="65.873" style="stroke:#181818;stroke-width:1.0;" width="10" x="391" y="156.5332"/><rect fill="#FFFFFF" height="31.291" style="stroke:#181818;stroke-width:1.0;" width="10" x="391" y="253.6973"/><rect fill="#FFFFFF" height="432.6953" style="stroke:#181818;stroke-width:1.0;" width="10" x="391" y="316.2793"/><rect fill="#FFFFFF" height="358.5313" style="stroke:#181818;stroke-width:1.0;" width="10" x="690" y="399.4434"/><rect fill="#FFFFFF" height="275.3672" style="stroke:#181818;stroke-width:1.0;" width="10" x="942" y="482.6074"/><polygon fill="#181818" points="379,152.5332,389,156.5332,379,160.5332,383,156.5332" style="stroke:#181818;stroke-width:1.0;"/><line style="stroke:#181818;stroke-width:1.0;" x1="59" x2="385" y1="156.5332" y2="156.5332"/><text fill="#000000" font-family="sans-serif" font-size="13" font-weight="bold" lengthAdjust="spacing" textLength="7" x="66" y="151.2705">1</text><text fill="#000000" font-family="sans-serif" font-size="13" lengthAdjust="spacing" textLength="166" x="77" y="151.2705">Asks to create a new vehicle</text><polygon fill="#181818" points="70,218.4063,60,222.4063,70,226.4063,66,222.4063" style="stroke:#181818;stroke-width:1.0;"/><line style="stroke:#181818;stroke-width:1.0;stroke-dasharray:2.0,2.0;" x1="64" x2="395" y1="222.4063" y2="222.4063"/><text fill="#000000" font-family="sans-serif" font-size="13" font-weight="bold" lengthAdjust="spacing" textLength="7" x="76" y="199.8525">2</text><text fill="#000000" font-family="sans-serif" font-size="13" lengthAdjust="spacing" textLength="297" x="87" y="182.5615">Requests vehicle data (plate id, brand, model, type,</text><text fill="#000000" font-family="sans-serif" font-size="13" lengthAdjust="spacing" textLength="257" x="87" y="199.8525">tare, gross weight, current km, register date,</text><text fill="#000000" font-family="sans-serif" font-size="13" lengthAdjust="spacing" textLength="241" x="87" y="217.1436">acquisition date, checkup frequency kms)</text><polygon fill="#181818" points="379,249.6973,389,253.6973,379,257.6973,383,253.6973" style="stroke:#181818;stroke-width:1.0;"/><line style="stroke:#181818;stroke-width:1.0;" x1="59" x2="385" y1="253.6973" y2="253.6973"/><text fill="#000000" font-family="sans-serif" font-size="13" font-weight="bold" lengthAdjust="spacing" textLength="7" x="66" y="248.4346">3</text><text fill="#000000" font-family="sans-serif" font-size="13" lengthAdjust="spacing" textLength="125" x="77" y="248.4346">Types requested data</text><polygon fill="#181818" points="70,280.9883,60,284.9883,70,288.9883,66,284.9883" style="stroke:#181818;stroke-width:1.0;"/><line style="stroke:#181818;stroke-width:1.0;stroke-dasharray:2.0,2.0;" x1="64" x2="395" y1="284.9883" y2="284.9883"/><text fill="#000000" font-family="sans-serif" font-size="13" font-weight="bold" lengthAdjust="spacing" textLength="7" x="76" y="279.7256">4</text><text fill="#000000" font-family="sans-serif" font-size="13" lengthAdjust="spacing" textLength="238" x="87" y="279.7256">Shows all data and requests confirmation</text><polygon fill="#181818" points="379,312.2793,389,316.2793,379,320.2793,383,316.2793" style="stroke:#181818;stroke-width:1.0;"/><line style="stroke:#181818;stroke-width:1.0;" x1="59" x2="385" y1="316.2793" y2="316.2793"/><text fill="#000000" font-family="sans-serif" font-size="13" font-weight="bold" lengthAdjust="spacing" textLength="7" x="66" y="311.0166">5</text><text fill="#000000" font-family="sans-serif" font-size="13" lengthAdjust="spacing" textLength="155" x="77" y="311.0166">Confirms data and submits</text><polygon fill="#181818" points="678,395.4434,688,399.4434,678,403.4434,682,399.4434" style="stroke:#181818;stroke-width:1.0;"/><line style="stroke:#181818;stroke-width:1.0;" x1="401" x2="684" y1="399.4434" y2="399.4434"/><text fill="#000000" font-family="sans-serif" font-size="13" font-weight="bold" lengthAdjust="spacing" textLength="7" x="408" y="368.2441">6</text><text fill="#000000" font-family="sans-serif" font-size="13" lengthAdjust="spacing" textLength="212" x="419" y="342.3076">RegisterVehicle(plateId,brand,model,</text><text fill="#000000" font-family="sans-serif" font-size="13" lengthAdjust="spacing" textLength="196" x="419" y="359.5986">type,tare,grossWeight,currentKm,</text><text fill="#000000" font-family="sans-serif" font-size="13" lengthAdjust="spacing" textLength="167" x="419" y="376.8896">registerDate,acquisitionDate,</text><text fill="#000000" font-family="sans-serif" font-size="13" lengthAdjust="spacing" textLength="141" x="419" y="394.1807">checkupFrequencyKms)</text><polygon fill="#181818" points="930,478.6074,940,482.6074,930,486.6074,934,482.6074" style="stroke:#181818;stroke-width:1.0;"/><line style="stroke:#181818;stroke-width:1.0;" x1="700" x2="936" y1="482.6074" y2="482.6074"/><text fill="#000000" font-family="sans-serif" font-size="13" font-weight="bold" lengthAdjust="spacing" textLength="7" x="707" y="451.4082">7</text><text fill="#000000" font-family="sans-serif" font-size="13" lengthAdjust="spacing" textLength="212" x="718" y="425.4717">RegisterVehicle(plateId,brand,model,</text><text fill="#000000" font-family="sans-serif" font-size="13" lengthAdjust="spacing" textLength="196" x="718" y="442.7627">type,tare,grossWeight,currentKm,</text><text fill="#000000" font-family="sans-serif" font-size="13" lengthAdjust="spacing" textLength="167" x="718" y="460.0537">registerDate,acquisitionDate,</text><text fill="#000000" font-family="sans-serif" font-size="13" lengthAdjust="spacing" textLength="141" x="718" y="477.3447">checkupFrequencyKms)</text><polygon fill="#181818" points="1036,559.8984,1046,563.8984,1036,567.8984,1040,563.8984" style="stroke:#181818;stroke-width:1.0;"/><line style="stroke:#181818;stroke-width:1.0;" x1="952" x2="1042" y1="563.8984" y2="563.8984"/><text fill="#000000" font-family="sans-serif" font-size="13" font-weight="bold" lengthAdjust="spacing" textLength="7" x="959" y="558.6357">8</text><text fill="#000000" font-family="sans-serif" font-size="13" lengthAdjust="spacing" textLength="61" x="970" y="558.6357">getVehicle</text><rect fill="#E3E3E3" height="32.6211" rx="2.5" ry="2.5" style="stroke:#181818;stroke-width:0.5;" width="60" x="1048" y="540.6074"/><text fill="#000000" font-family="sans-serif" font-size="14" lengthAdjust="spacing" textLength="46" x="1055" y="562.7148">Vehicle</text><polygon fill="#181818" points="711,603.5195,701,607.5195,711,611.5195,707,607.5195" style="stroke:#181818;stroke-width:1.0;"/><line style="stroke:#181818;stroke-width:1.0;" x1="705" x2="941" y1="607.5195" y2="607.5195"/><text fill="#000000" font-family="sans-serif" font-size="13" font-weight="bold" lengthAdjust="spacing" textLength="7" x="717" y="602.2568">9</text><text fill="#000000" font-family="sans-serif" font-size="13" lengthAdjust="spacing" textLength="43" x="728" y="602.2568">Vehicle</text><polygon fill="#181818" points="412,634.8105,402,638.8105,412,642.8105,408,638.8105" style="stroke:#181818;stroke-width:1.0;"/><line style="stroke:#181818;stroke-width:1.0;" x1="406" x2="689" y1="638.8105" y2="638.8105"/><text fill="#000000" font-family="sans-serif" font-size="13" font-weight="bold" lengthAdjust="spacing" textLength="14" x="418" y="633.5479">10</text><text fill="#000000" font-family="sans-serif" font-size="13" lengthAdjust="spacing" textLength="43" x="436" y="633.5479">Vehicle</text><line style="stroke:#181818;stroke-width:1.0;" x1="401" x2="443" y1="704.6836" y2="704.6836"/><line style="stroke:#181818;stroke-width:1.0;" x1="443" x2="443" y1="704.6836" y2="717.6836"/><line style="stroke:#181818;stroke-width:1.0;" x1="402" x2="443" y1="717.6836" y2="717.6836"/><polygon fill="#181818" points="412,713.6836,402,717.6836,412,721.6836,408,717.6836" style="stroke:#181818;stroke-width:1.0;"/><text fill="#000000" font-family="sans-serif" font-size="13" font-weight="bold" lengthAdjust="spacing" textLength="14" x="408" y="682.1299">11</text><text fill="#000000" font-family="sans-serif" font-size="13" lengthAdjust="spacing" textLength="221" x="426" y="664.8389">keepData(plate id, brand, model, type,</text><text fill="#000000" font-family="sans-serif" font-size="13" lengthAdjust="spacing" textLength="257" x="426" y="682.1299">tare, gross weight, current km, register date,</text><text fill="#000000" font-family="sans-serif" font-size="13" lengthAdjust="spacing" textLength="241" x="426" y="699.4209">acquisition date, checkup frequency kms)</text><polygon fill="#181818" points="70,744.9746,60,748.9746,70,752.9746,66,748.9746" style="stroke:#181818;stroke-width:1.0;"/><line style="stroke:#181818;stroke-width:1.0;stroke-dasharray:2.0,2.0;" x1="64" x2="395" y1="748.9746" y2="748.9746"/><text fill="#000000" font-family="sans-serif" font-size="13" font-weight="bold" lengthAdjust="spacing" textLength="14" x="76" y="743.7119">12</text><text fill="#000000" font-family="sans-serif" font-size="13" lengthAdjust="spacing" textLength="160" x="94" y="743.7119">Displays operation success</text><!--SRC=[pPGzRzim48Pt_Og3foIGW4mTF1WeugO8qYA0bQHB5fewIuJueV2e62hyuyiFoR5JEslBHI9rTtpVUqXHAtJ7B5EWZ3QyiKOXEDjZHlil7UCjgx5qWqImo1tJjJmCe8PLPYjq3Hic2RFC2UT3dyhhwozGG3cGGmKbllQeES9Ii3gaNPJbyZBBME-CxjKQhN_dpbYOtKf41p-PzjlQ6J22RwgJPa3C_8vESD4nxM0sNs4jV77xZ8tW4f_kOd3QyFFG6wETDLAEzMyULpy-91XRCor-CoUCXXVzS32DAG-hxr6mU6CEtmLcuCSqWs8nsP_3Lse9d05kCMGmqBY5joGdPksBZGQoCRNmLVOLvx0AZIH7KovKp36uw6H85LKEQykqVoXJeSp13HtcBzenYpdKrX315aNTk1nuRorwiwtAFTZKdr0jn3F-sWiIqNrS0juWR_iEDZQH77mUNKRb5Vwb_NmV7hqW0fjSO1Nbd_OFupZTXx8nMm8cPMg0zpmL9U16RuHLaTOvXMS5tgHaUgzB_Le9HoTL7eii5k4emSVZbkZSLNbYaz1uA85D91F1_4fSHYptoaTCM9O1mG6JPQ8qChcTaDnFH8wKnjCD1oCi50j_WlyFeM7iThjFvtipuTx1yV1BnM8qS7KrXnhTyy6zEWeBrkTmwdDgIi9uEc92FCMqY9ttn_xftJj_GPQ2lB21m7Heqt-CUiwHwEobpVu0]--></g></svg>