<?xml version="1.0" encoding="us-ascii" standalone="no"?><svg xmlns="http://www.w3.org/2000/svg" xmlns:xlink="http://www.w3.org/1999/xlink" contentStyleType="text/css" height="925px" preserveAspectRatio="none" style="width:360px;height:925px;background:#FFFFFF;" version="1.1" viewBox="0 0 360 925" width="360px" zoomAndPan="magnify"><defs/><g><!--class RegisterVehicleUI--><g id="elem_RegisterVehicleUI"><rect codeLine="11" fill="#F1F1F1" height="48" id="RegisterVehicleUI" rx="2.5" ry="2.5" style="stroke:#181818;stroke-width:0.5;" width="143" x="85.5" y="7"/><ellipse cx="100.5" cy="23" fill="#ADD1B2" rx="11" ry="11" style="stroke:#181818;stroke-width:1.0;"/><path d="M103.2656,18.875 Q103.4219,18.6563 103.6094,18.5469 Q103.7969,18.4375 104.0156,18.4375 Q104.3906,18.4375 104.625,18.7031 Q104.8594,18.9531 104.8594,19.5625 L104.8594,21.0156 Q104.8594,21.625 104.625,21.8906 Q104.3906,22.1563 104.0156,22.1563 Q103.6719,22.1563 103.4688,21.9531 Q103.2656,21.7656 103.1563,21.25 Q103.1094,20.8906 102.9219,20.7031 Q102.5938,20.3281 101.9844,20.1094 Q101.375,19.8906 100.75,19.8906 Q99.9844,19.8906 99.3438,20.2188 Q98.7188,20.5469 98.2188,21.2969 Q97.7344,22.0469 97.7344,23.0781 L97.7344,24.1719 Q97.7344,25.4063 98.625,26.2344 Q99.5156,27.0469 101.1094,27.0469 Q102.0469,27.0469 102.7031,26.7969 Q103.0938,26.6406 103.5156,26.2031 Q103.7813,25.9375 103.9219,25.8594 Q104.0781,25.7813 104.2813,25.7813 Q104.6094,25.7813 104.8594,26.0469 Q105.125,26.2969 105.125,26.6406 Q105.125,26.9844 104.7813,27.3906 Q104.2813,27.9688 103.4844,28.2969 Q102.4063,28.75 101.1094,28.75 Q99.5938,28.75 98.3906,28.125 Q97.4063,27.625 96.7188,26.5625 Q96.0313,25.4844 96.0313,24.2031 L96.0313,23.0469 Q96.0313,21.7188 96.6406,20.5781 Q97.2656,19.4219 98.3594,18.8125 Q99.4531,18.1875 100.6875,18.1875 Q101.4219,18.1875 102.0625,18.3594 Q102.7188,18.5156 103.2656,18.875 Z " fill="#000000"/><text fill="#000000" font-family="sans-serif" font-size="14" lengthAdjust="spacing" textLength="111" x="114.5" y="28.7969">RegisterVehicleUI</text><line style="stroke:#181818;stroke-width:0.5;" x1="86.5" x2="227.5" y1="39" y2="39"/><line style="stroke:#181818;stroke-width:0.5;" x1="86.5" x2="227.5" y1="47" y2="47"/></g><!--class RegisterVehicleUIController--><g id="elem_RegisterVehicleUIController"><rect codeLine="15" fill="#F1F1F1" height="103.8633" id="RegisterVehicleUIController" rx="2.5" ry="2.5" style="stroke:#181818;stroke-width:0.5;" width="300" x="7" y="116"/><ellipse cx="66.25" cy="132" fill="#ADD1B2" rx="11" ry="11" style="stroke:#181818;stroke-width:1.0;"/><path d="M69.0156,127.875 Q69.1719,127.6563 69.3594,127.5469 Q69.5469,127.4375 69.7656,127.4375 Q70.1406,127.4375 70.375,127.7031 Q70.6094,127.9531 70.6094,128.5625 L70.6094,130.0156 Q70.6094,130.625 70.375,130.8906 Q70.1406,131.1563 69.7656,131.1563 Q69.4219,131.1563 69.2188,130.9531 Q69.0156,130.7656 68.9063,130.25 Q68.8594,129.8906 68.6719,129.7031 Q68.3438,129.3281 67.7344,129.1094 Q67.125,128.8906 66.5,128.8906 Q65.7344,128.8906 65.0938,129.2188 Q64.4688,129.5469 63.9688,130.2969 Q63.4844,131.0469 63.4844,132.0781 L63.4844,133.1719 Q63.4844,134.4063 64.375,135.2344 Q65.2656,136.0469 66.8594,136.0469 Q67.7969,136.0469 68.4531,135.7969 Q68.8438,135.6406 69.2656,135.2031 Q69.5313,134.9375 69.6719,134.8594 Q69.8281,134.7813 70.0313,134.7813 Q70.3594,134.7813 70.6094,135.0469 Q70.875,135.2969 70.875,135.6406 Q70.875,135.9844 70.5313,136.3906 Q70.0313,136.9688 69.2344,137.2969 Q68.1563,137.75 66.8594,137.75 Q65.3438,137.75 64.1406,137.125 Q63.1563,136.625 62.4688,135.5625 Q61.7813,134.4844 61.7813,133.2031 L61.7813,132.0469 Q61.7813,130.7188 62.3906,129.5781 Q63.0156,128.4219 64.1094,127.8125 Q65.2031,127.1875 66.4375,127.1875 Q67.1719,127.1875 67.8125,127.3594 Q68.4688,127.5156 69.0156,127.875 Z " fill="#000000"/><text fill="#000000" font-family="sans-serif" font-size="14" lengthAdjust="spacing" textLength="173" x="86.75" y="137.7969">RegisterVehicleUIController</text><line style="stroke:#181818;stroke-width:0.5;" x1="8" x2="306" y1="148" y2="148"/><line style="stroke:#181818;stroke-width:0.5;" x1="8" x2="306" y1="156" y2="156"/><text fill="#000000" font-family="sans-serif" font-size="14" lengthAdjust="spacing" textLength="288" x="13" y="175.1074">+RegisterVehicle(plate id, brand, model, type,</text><text fill="#000000" font-family="sans-serif" font-size="14" lengthAdjust="spacing" textLength="279" x="13" y="193.7285">tare, gross weight, current km, register date,</text><text fill="#000000" font-family="sans-serif" font-size="14" lengthAdjust="spacing" textLength="261" x="13" y="212.3496">acquisition date, checkup frequency kms)</text></g><!--class Repositories--><g id="elem_Repositories"><rect codeLine="19" fill="#F1F1F1" height="85.2422" id="Repositories" rx="2.5" ry="2.5" style="stroke:#181818;stroke-width:0.5;" width="164" x="75" y="299"/><ellipse cx="113.85" cy="315" fill="#ADD1B2" rx="11" ry="11" style="stroke:#181818;stroke-width:1.0;"/><path d="M116.6156,310.875 Q116.7719,310.6563 116.9594,310.5469 Q117.1469,310.4375 117.3656,310.4375 Q117.7406,310.4375 117.975,310.7031 Q118.2094,310.9531 118.2094,311.5625 L118.2094,313.0156 Q118.2094,313.625 117.975,313.8906 Q117.7406,314.1563 117.3656,314.1563 Q117.0219,314.1563 116.8188,313.9531 Q116.6156,313.7656 116.5063,313.25 Q116.4594,312.8906 116.2719,312.7031 Q115.9438,312.3281 115.3344,312.1094 Q114.725,311.8906 114.1,311.8906 Q113.3344,311.8906 112.6938,312.2188 Q112.0688,312.5469 111.5688,313.2969 Q111.0844,314.0469 111.0844,315.0781 L111.0844,316.1719 Q111.0844,317.4063 111.975,318.2344 Q112.8656,319.0469 114.4594,319.0469 Q115.3969,319.0469 116.0531,318.7969 Q116.4438,318.6406 116.8656,318.2031 Q117.1313,317.9375 117.2719,317.8594 Q117.4281,317.7813 117.6313,317.7813 Q117.9594,317.7813 118.2094,318.0469 Q118.475,318.2969 118.475,318.6406 Q118.475,318.9844 118.1313,319.3906 Q117.6313,319.9688 116.8344,320.2969 Q115.7563,320.75 114.4594,320.75 Q112.9438,320.75 111.7406,320.125 Q110.7563,319.625 110.0688,318.5625 Q109.3813,317.4844 109.3813,316.2031 L109.3813,315.0469 Q109.3813,313.7188 109.9906,312.5781 Q110.6156,311.4219 111.7094,310.8125 Q112.8031,310.1875 114.0375,310.1875 Q114.7719,310.1875 115.4125,310.3594 Q116.0688,310.5156 116.6156,310.875 Z " fill="#000000"/><text fill="#000000" font-family="sans-serif" font-size="14" lengthAdjust="spacing" textLength="79" x="133.15" y="320.7969">Repositories</text><line style="stroke:#181818;stroke-width:0.5;" x1="76" x2="238" y1="331" y2="331"/><line style="stroke:#181818;stroke-width:0.5;" x1="76" x2="238" y1="339" y2="339"/><text fill="#000000" font-family="sans-serif" font-size="14" lengthAdjust="spacing" textLength="91" x="81" y="358.1074">+getInstance()</text><text fill="#000000" font-family="sans-serif" font-size="14" lengthAdjust="spacing" textLength="152" x="81" y="376.7285">+getVehicleRepository()</text></g><!--class VehicleRepository--><g id="elem_VehicleRepository"><rect codeLine="24" fill="#F1F1F1" height="103.8633" id="VehicleRepository" rx="2.5" ry="2.5" style="stroke:#181818;stroke-width:0.5;" width="291" x="11.5" y="445"/><ellipse cx="95.75" cy="461" fill="#ADD1B2" rx="11" ry="11" style="stroke:#181818;stroke-width:1.0;"/><path d="M98.5156,456.875 Q98.6719,456.6563 98.8594,456.5469 Q99.0469,456.4375 99.2656,456.4375 Q99.6406,456.4375 99.875,456.7031 Q100.1094,456.9531 100.1094,457.5625 L100.1094,459.0156 Q100.1094,459.625 99.875,459.8906 Q99.6406,460.1563 99.2656,460.1563 Q98.9219,460.1563 98.7188,459.9531 Q98.5156,459.7656 98.4063,459.25 Q98.3594,458.8906 98.1719,458.7031 Q97.8438,458.3281 97.2344,458.1094 Q96.625,457.8906 96,457.8906 Q95.2344,457.8906 94.5938,458.2188 Q93.9688,458.5469 93.4688,459.2969 Q92.9844,460.0469 92.9844,461.0781 L92.9844,462.1719 Q92.9844,463.4063 93.875,464.2344 Q94.7656,465.0469 96.3594,465.0469 Q97.2969,465.0469 97.9531,464.7969 Q98.3438,464.6406 98.7656,464.2031 Q99.0313,463.9375 99.1719,463.8594 Q99.3281,463.7813 99.5313,463.7813 Q99.8594,463.7813 100.1094,464.0469 Q100.375,464.2969 100.375,464.6406 Q100.375,464.9844 100.0313,465.3906 Q99.5313,465.9688 98.7344,466.2969 Q97.6563,466.75 96.3594,466.75 Q94.8438,466.75 93.6406,466.125 Q92.6563,465.625 91.9688,464.5625 Q91.2813,463.4844 91.2813,462.2031 L91.2813,461.0469 Q91.2813,459.7188 91.8906,458.5781 Q92.5156,457.4219 93.6094,456.8125 Q94.7031,456.1875 95.9375,456.1875 Q96.6719,456.1875 97.3125,456.3594 Q97.9688,456.5156 98.5156,456.875 Z " fill="#000000"/><text fill="#000000" font-family="sans-serif" font-size="14" lengthAdjust="spacing" textLength="114" x="116.25" y="466.7969">VehicleRepository</text><line style="stroke:#181818;stroke-width:0.5;" x1="12.5" x2="301.5" y1="477" y2="477"/><line style="stroke:#181818;stroke-width:0.5;" x1="12.5" x2="301.5" y1="485" y2="485"/><text fill="#000000" font-family="sans-serif" font-size="14" lengthAdjust="spacing" textLength="275" x="17.5" y="504.1074">+createVehicle(plate id, brand, model, type,</text><text fill="#000000" font-family="sans-serif" font-size="14" lengthAdjust="spacing" textLength="279" x="17.5" y="522.7285">tare, gross weight, current km, register date,</text><text fill="#000000" font-family="sans-serif" font-size="14" lengthAdjust="spacing" textLength="261" x="17.5" y="541.3496">acquisition date, checkup frequency kms)</text></g><!--class Vehicle--><g id="elem_Vehicle"><rect codeLine="28" fill="#F1F1F1" height="290.0742" id="Vehicle" rx="2.5" ry="2.5" style="stroke:#181818;stroke-width:0.5;" width="291" x="11.5" y="628"/><ellipse cx="129.75" cy="644" fill="#ADD1B2" rx="11" ry="11" style="stroke:#181818;stroke-width:1.0;"/><path d="M132.5156,639.875 Q132.6719,639.6563 132.8594,639.5469 Q133.0469,639.4375 133.2656,639.4375 Q133.6406,639.4375 133.875,639.7031 Q134.1094,639.9531 134.1094,640.5625 L134.1094,642.0156 Q134.1094,642.625 133.875,642.8906 Q133.6406,643.1563 133.2656,643.1563 Q132.9219,643.1563 132.7188,642.9531 Q132.5156,642.7656 132.4063,642.25 Q132.3594,641.8906 132.1719,641.7031 Q131.8438,641.3281 131.2344,641.1094 Q130.625,640.8906 130,640.8906 Q129.2344,640.8906 128.5938,641.2188 Q127.9688,641.5469 127.4688,642.2969 Q126.9844,643.0469 126.9844,644.0781 L126.9844,645.1719 Q126.9844,646.4063 127.875,647.2344 Q128.7656,648.0469 130.3594,648.0469 Q131.2969,648.0469 131.9531,647.7969 Q132.3438,647.6406 132.7656,647.2031 Q133.0313,646.9375 133.1719,646.8594 Q133.3281,646.7813 133.5313,646.7813 Q133.8594,646.7813 134.1094,647.0469 Q134.375,647.2969 134.375,647.6406 Q134.375,647.9844 134.0313,648.3906 Q133.5313,648.9688 132.7344,649.2969 Q131.6563,649.75 130.3594,649.75 Q128.8438,649.75 127.6406,649.125 Q126.6563,648.625 125.9688,647.5625 Q125.2813,646.4844 125.2813,645.2031 L125.2813,644.0469 Q125.2813,642.7188 125.8906,641.5781 Q126.5156,640.4219 127.6094,639.8125 Q128.7031,639.1875 129.9375,639.1875 Q130.6719,639.1875 131.3125,639.3594 Q131.9688,639.5156 132.5156,639.875 Z " fill="#000000"/><text fill="#000000" font-family="sans-serif" font-size="14" lengthAdjust="spacing" textLength="46" x="150.25" y="649.7969">Vehicle</text><line style="stroke:#181818;stroke-width:0.5;" x1="12.5" x2="301.5" y1="660" y2="660"/><text fill="#000000" font-family="sans-serif" font-size="14" lengthAdjust="spacing" textLength="51" x="17.5" y="679.1074">-plate id</text><text fill="#000000" font-family="sans-serif" font-size="14" lengthAdjust="spacing" textLength="42" x="17.5" y="697.7285">-brand</text><text fill="#000000" font-family="sans-serif" font-size="14" lengthAdjust="spacing" textLength="43" x="17.5" y="716.3496">-model</text><text fill="#000000" font-family="sans-serif" font-size="14" lengthAdjust="spacing" textLength="32" x="17.5" y="734.9707">-type</text><text fill="#000000" font-family="sans-serif" font-size="14" lengthAdjust="spacing" textLength="30" x="17.5" y="753.5918">-tare</text><text fill="#000000" font-family="sans-serif" font-size="14" lengthAdjust="spacing" textLength="84" x="17.5" y="772.2129">-gross weight</text><text fill="#000000" font-family="sans-serif" font-size="14" lengthAdjust="spacing" textLength="72" x="17.5" y="790.834">-current km</text><text fill="#000000" font-family="sans-serif" font-size="14" lengthAdjust="spacing" textLength="85" x="17.5" y="809.4551">-register date</text><text fill="#000000" font-family="sans-serif" font-size="14" lengthAdjust="spacing" textLength="104" x="17.5" y="828.0762">-acquisition date</text><text fill="#000000" font-family="sans-serif" font-size="14" lengthAdjust="spacing" textLength="154" x="17.5" y="846.6973">-checkup frequency kms</text><line style="stroke:#181818;stroke-width:0.5;" x1="12.5" x2="301.5" y1="854.2109" y2="854.2109"/><text fill="#000000" font-family="sans-serif" font-size="14" lengthAdjust="spacing" textLength="235" x="17.5" y="873.3184">+Vehicle(plate id, brand, model, type,</text><text fill="#000000" font-family="sans-serif" font-size="14" lengthAdjust="spacing" textLength="279" x="17.5" y="891.9395">tare, gross weight, current km, register date,</text><text fill="#000000" font-family="sans-serif" font-size="14" lengthAdjust="spacing" textLength="261" x="17.5" y="910.5605">acquisition date, checkup frequency kms)</text></g><!--link RegisterVehicleUI to RegisterVehicleUIController--><g id="link_RegisterVehicleUI_RegisterVehicleUIController"><path codeLine="42" d="M157,55.21 C157,71.87 157,88.97 157,109.86 " fill="none" id="RegisterVehicleUI-to-RegisterVehicleUIController" style="stroke:#181818;stroke-width:1.0;stroke-dasharray:7.0,7.0;"/><polygon fill="#181818" points="157,115.86,161,106.86,157,110.86,153,106.86,157,115.86" style="stroke:#181818;stroke-width:1.0;"/></g><!--link RegisterVehicleUIController to Repositories--><g id="link_RegisterVehicleUIController_Repositories"><path codeLine="43" d="M157,220.46 C157,245.52 157,269.26 157,292.86 " fill="none" id="RegisterVehicleUIController-to-Repositories" style="stroke:#181818;stroke-width:1.0;stroke-dasharray:7.0,7.0;"/><polygon fill="#181818" points="157,298.86,161,289.86,157,293.86,153,289.86,157,298.86" style="stroke:#181818;stroke-width:1.0;"/><text fill="#000000" font-family="sans-serif" font-size="13" lengthAdjust="spacing" textLength="67" x="158" y="265.0283">repositories</text></g><!--link Repositories to Repositories--><g id="link_Repositories_Repositories"><path codeLine="44" d="M239.01,328.21 C259.07,329.2 274,333.62 274,341.5 C274,349.38 265.0627,353.5042 245.0027,354.4942 " fill="none" id="Repositories-to-Repositories" style="stroke:#181818;stroke-width:1.0;"/><polygon fill="#181818" points="239.01,354.79,248.1962,358.3415,244.0039,354.5435,247.8019,350.3512,239.01,354.79" style="stroke:#181818;stroke-width:1.0;"/><text fill="#000000" font-family="sans-serif" font-size="13" lengthAdjust="spacing" textLength="67" x="280" y="347.0283">repositories</text></g><!--link Repositories to VehicleRepository--><g id="link_Repositories_VehicleRepository"><path codeLine="45" d="M157,384.04 C157,402.77 157,419.08 157,438.84 " fill="none" id="Repositories-to-VehicleRepository" style="stroke:#181818;stroke-width:1.0;"/><polygon fill="#181818" points="157,444.84,161,435.84,157,439.84,153,435.84,157,444.84" style="stroke:#181818;stroke-width:1.0;"/><text fill="#000000" font-family="sans-serif" font-size="13" lengthAdjust="spacing" textLength="7" x="149.5297" y="433.7459">1</text></g><!--link VehicleRepository to Vehicle--><g id="link_VehicleRepository_Vehicle"><path codeLine="46" d="M157,549.22 C157,571.83 157,593.66 157,621.9 " fill="none" id="VehicleRepository-to-Vehicle" style="stroke:#181818;stroke-width:1.0;stroke-dasharray:7.0,7.0;"/><polygon fill="#181818" points="157,627.9,161,618.9,157,622.9,153,618.9,157,627.9" style="stroke:#181818;stroke-width:1.0;"/><text fill="#000000" font-family="sans-serif" font-size="13" lengthAdjust="spacing" textLength="43" x="158" y="594.0283">Vehicle</text></g><!--SRC=[pP9DRy8m38Rl-HNMBe1Mq7RTOTAq4zUXxRHBI4qRaIR5SOKwjF- -jCcWV0nfDtgfxTUlzTJroA-rhIN92YfddIh9LGXC3Og3KakrbWKkk3K8X8gbBSommPSoTrjj2rX9uuUAqHQvhH5gPzek4QCBeYDsOk1IHdh_manwsJ3EbRCB_ONm8CJ8u8g17P0kIePSTpZQMI5w3xnXeJqZVM2fbS7t-Kw8xp_5LsUPd358Em7XkJ_f6DT6CeBECrYIjE5LkHnD1XrrzcbP4cPGa0l3jzWHPQ0Q8hGCwoeBkuhZ80zZGhzKcqPxtG774gWIrRgfOKMuQT2gDlZyP8XSks1mfD4dnW9vRdtu1mh7atqf4U_xs_5WofcOHYd2G74p7vj08jpq5oTcFL8CUwmOTcWf2dGn6XB6oe4ovaUaiNGAcuoNWEFgRc1fP-SCizdpjICNLxJaFLmRF0MuGogEjEdqdyrtZtVdLoZEAZr5geQPAH8_]--></g></svg>