<?xml version="1.0" encoding="us-ascii" standalone="no"?><svg xmlns="http://www.w3.org/2000/svg" xmlns:xlink="http://www.w3.org/1999/xlink" contentStyleType="text/css" height="712px" preserveAspectRatio="none" style="width:499px;height:712px;background:#FFFFFF;" version="1.1" viewBox="0 0 499 712" width="499px" zoomAndPan="magnify"><defs/><g><text fill="#000000" font-family="sans-serif" font-size="14" font-weight="bold" lengthAdjust="spacing" textLength="284" x="109" y="30.1074">US009 - System Sequence Diagram (SSD)</text><rect fill="#FFFFFF" height="486.6563" style="stroke:#181818;stroke-width:1.0;" width="10" x="64" y="133.2422"/><rect fill="#FFFFFF" height="127.4551" style="stroke:#181818;stroke-width:1.0;" width="10" x="313" y="156.5332"/><rect fill="#FFFFFF" height="31.291" style="stroke:#181818;stroke-width:1.0;" width="10" x="313" y="315.2793"/><rect fill="#FFFFFF" height="57.582" style="stroke:#181818;stroke-width:1.0;" width="10" x="313" y="377.8613"/><rect fill="#FFFFFF" height="144.1641" style="stroke:#181818;stroke-width:1.0;" width="10" x="313" y="466.7344"/><rect fill="none" height="170.4551" style="stroke:#000000;stroke-width:1.5;" width="483" x="10" y="392.8613"/><line style="stroke:#181818;stroke-width:0.5;stroke-dasharray:5.0,5.0;" x1="69" x2="69" y1="123.2422" y2="628.8984"/><line style="stroke:#181818;stroke-width:0.5;stroke-dasharray:5.0,5.0;" x1="317.5" x2="317.5" y1="123.2422" y2="628.8984"/><text fill="#000000" font-family="sans-serif" font-size="14" lengthAdjust="spacing" textLength="92" x="20" y="119.7285">Fleet Manager</text><ellipse cx="69" cy="53.1211" fill="#E3E3E3" rx="8" ry="8" style="stroke:#181818;stroke-width:0.5;"/><path d="M69,61.1211 L69,88.1211 M56,69.1211 L82,69.1211 M69,88.1211 L56,103.1211 M69,88.1211 L82,103.1211 " fill="none" style="stroke:#181818;stroke-width:0.5;"/><text fill="#000000" font-family="sans-serif" font-size="14" lengthAdjust="spacing" textLength="92" x="20" y="643.0059">Fleet Manager</text><ellipse cx="69" cy="655.0195" fill="#E3E3E3" rx="8" ry="8" style="stroke:#181818;stroke-width:0.5;"/><path d="M69,663.0195 L69,690.0195 M56,671.0195 L82,671.0195 M69,690.0195 L56,705.0195 M69,690.0195 L82,705.0195 " fill="none" style="stroke:#181818;stroke-width:0.5;"/><rect fill="#E3E3E3" height="32.6211" rx="2.5" ry="2.5" style="stroke:#181818;stroke-width:0.5;" width="119" x="258.5" y="89.6211"/><text fill="#000000" font-family="sans-serif" font-size="14" lengthAdjust="spacing" textLength="105" x="265.5" y="111.7285">:NeedCheckupUI</text><rect fill="#E3E3E3" height="32.6211" rx="2.5" ry="2.5" style="stroke:#181818;stroke-width:0.5;" width="119" x="258.5" y="627.8984"/><text fill="#000000" font-family="sans-serif" font-size="14" lengthAdjust="spacing" textLength="105" x="265.5" y="650.0059">:NeedCheckupUI</text><rect fill="#FFFFFF" height="486.6563" style="stroke:#181818;stroke-width:1.0;" width="10" x="64" y="133.2422"/><rect fill="#FFFFFF" height="127.4551" style="stroke:#181818;stroke-width:1.0;" width="10" x="313" y="156.5332"/><rect fill="#FFFFFF" height="31.291" style="stroke:#181818;stroke-width:1.0;" width="10" x="313" y="315.2793"/><rect fill="#FFFFFF" height="57.582" style="stroke:#181818;stroke-width:1.0;" width="10" x="313" y="377.8613"/><rect fill="#FFFFFF" height="144.1641" style="stroke:#181818;stroke-width:1.0;" width="10" x="313" y="466.7344"/><polygon fill="#181818" points="301,152.5332,311,156.5332,301,160.5332,305,156.5332" style="stroke:#181818;stroke-width:1.0;"/><line style="stroke:#181818;stroke-width:1.0;" x1="74" x2="307" y1="156.5332" y2="156.5332"/><text fill="#000000" font-family="sans-serif" font-size="13" font-weight="bold" lengthAdjust="spacing" textLength="7" x="81" y="151.2705">1</text><text fill="#000000" font-family="sans-serif" font-size="13" lengthAdjust="spacing" textLength="201" x="92" y="151.2705">provides waterConsumption.csv file</text><line style="stroke:#181818;stroke-width:1.0;" x1="323" x2="365" y1="205.1152" y2="205.1152"/><line style="stroke:#181818;stroke-width:1.0;" x1="365" x2="365" y1="205.1152" y2="218.1152"/><line style="stroke:#181818;stroke-width:1.0;" x1="324" x2="365" y1="218.1152" y2="218.1152"/><polygon fill="#181818" points="334,214.1152,324,218.1152,334,222.1152,330,218.1152" style="stroke:#181818;stroke-width:1.0;"/><text fill="#000000" font-family="sans-serif" font-size="13" font-weight="bold" lengthAdjust="spacing" textLength="7" x="330" y="191.207">2</text><text fill="#000000" font-family="sans-serif" font-size="13" lengthAdjust="spacing" textLength="97" x="341" y="182.5615">reads and stores</text><text fill="#000000" font-family="sans-serif" font-size="13" lengthAdjust="spacing" textLength="150" x="341" y="199.8525">waterConsumption.csv file</text><polygon fill="#181818" points="85,279.9883,75,283.9883,85,287.9883,81,283.9883" style="stroke:#181818;stroke-width:1.0;"/><line style="stroke:#181818;stroke-width:1.0;" x1="79" x2="317" y1="283.9883" y2="283.9883"/><text fill="#000000" font-family="sans-serif" font-size="13" font-weight="bold" lengthAdjust="spacing" textLength="7" x="91" y="261.4346">3</text><text fill="#000000" font-family="sans-serif" font-size="13" lengthAdjust="spacing" textLength="180" x="102" y="244.1436">asks to select desired analysis</text><text fill="#000000" font-family="sans-serif" font-size="13" lengthAdjust="spacing" textLength="189" x="106" y="261.4346">(Barplot, Average Monthly costs,</text><text fill="#000000" font-family="sans-serif" font-size="13" lengthAdjust="spacing" textLength="122" x="106" y="278.7256">Statistical Indicators)</text><polygon fill="#181818" points="301,311.2793,311,315.2793,301,319.2793,305,315.2793" style="stroke:#181818;stroke-width:1.0;"/><line style="stroke:#181818;stroke-width:1.0;" x1="74" x2="307" y1="315.2793" y2="315.2793"/><text fill="#000000" font-family="sans-serif" font-size="13" font-weight="bold" lengthAdjust="spacing" textLength="7" x="81" y="310.0166">4</text><text fill="#000000" font-family="sans-serif" font-size="13" lengthAdjust="spacing" textLength="176" x="92" y="310.0166">selects average monthly costs</text><polygon fill="#181818" points="85,342.5703,75,346.5703,85,350.5703,81,346.5703" style="stroke:#181818;stroke-width:1.0;"/><line style="stroke:#181818;stroke-width:1.0;" x1="79" x2="317" y1="346.5703" y2="346.5703"/><text fill="#000000" font-family="sans-serif" font-size="13" font-weight="bold" lengthAdjust="spacing" textLength="7" x="91" y="341.3076">5</text><text fill="#000000" font-family="sans-serif" font-size="13" lengthAdjust="spacing" textLength="204" x="102" y="341.3076">asks number of parks to be studied</text><polygon fill="#181818" points="301,373.8613,311,377.8613,301,381.8613,305,377.8613" style="stroke:#181818;stroke-width:1.0;"/><line style="stroke:#181818;stroke-width:1.0;" x1="74" x2="307" y1="377.8613" y2="377.8613"/><text fill="#000000" font-family="sans-serif" font-size="13" font-weight="bold" lengthAdjust="spacing" textLength="7" x="81" y="372.5986">6</text><text fill="#000000" font-family="sans-serif" font-size="13" lengthAdjust="spacing" textLength="144" x="92" y="372.5986">provides number of parks</text><path d="M10,392.8613 L83,392.8613 L83,402.1523 L73,412.1523 L10,412.1523 L10,392.8613 " fill="#EEEEEE" style="stroke:#000000;stroke-width:1.5;"/><rect fill="none" height="170.4551" style="stroke:#000000;stroke-width:1.5;" width="483" x="10" y="392.8613"/><text fill="#000000" font-family="sans-serif" font-size="13" font-weight="bold" lengthAdjust="spacing" textLength="28" x="25" y="407.8896">loop</text><text fill="#000000" font-family="sans-serif" font-size="11" font-weight="bold" lengthAdjust="spacing" textLength="202" x="98" y="406.7314">[until user provides IDs for all parks]</text><polygon fill="#181818" points="85,431.4434,75,435.4434,85,439.4434,81,435.4434" style="stroke:#181818;stroke-width:1.0;"/><line style="stroke:#181818;stroke-width:1.0;" x1="79" x2="317" y1="435.4434" y2="435.4434"/><text fill="#000000" font-family="sans-serif" font-size="13" font-weight="bold" lengthAdjust="spacing" textLength="7" x="91" y="430.1807">7</text><text fill="#000000" font-family="sans-serif" font-size="13" lengthAdjust="spacing" textLength="84" x="102" y="430.1807">aks for park ID</text><polygon fill="#181818" points="301,462.7344,311,466.7344,301,470.7344,305,466.7344" style="stroke:#181818;stroke-width:1.0;"/><line style="stroke:#181818;stroke-width:1.0;" x1="74" x2="307" y1="466.7344" y2="466.7344"/><text fill="#000000" font-family="sans-serif" font-size="13" font-weight="bold" lengthAdjust="spacing" textLength="7" x="81" y="461.4717">8</text><text fill="#000000" font-family="sans-serif" font-size="13" lengthAdjust="spacing" textLength="77" x="92" y="461.4717">types park ID</text><line style="stroke:#181818;stroke-width:1.0;" x1="323" x2="365" y1="498.0254" y2="498.0254"/><line style="stroke:#181818;stroke-width:1.0;" x1="365" x2="365" y1="498.0254" y2="511.0254"/><line style="stroke:#181818;stroke-width:1.0;" x1="324" x2="365" y1="511.0254" y2="511.0254"/><polygon fill="#181818" points="334,507.0254,324,511.0254,334,515.0254,330,511.0254" style="stroke:#181818;stroke-width:1.0;"/><text fill="#000000" font-family="sans-serif" font-size="13" font-weight="bold" lengthAdjust="spacing" textLength="7" x="330" y="492.7627">9</text><text fill="#000000" font-family="sans-serif" font-size="13" lengthAdjust="spacing" textLength="140" x="341" y="492.7627">checks if park ID is valid</text><line style="stroke:#181818;stroke-width:1.0;" x1="323" x2="365" y1="542.3164" y2="542.3164"/><line style="stroke:#181818;stroke-width:1.0;" x1="365" x2="365" y1="542.3164" y2="555.3164"/><line style="stroke:#181818;stroke-width:1.0;" x1="324" x2="365" y1="555.3164" y2="555.3164"/><polygon fill="#181818" points="334,551.3164,324,555.3164,334,559.3164,330,555.3164" style="stroke:#181818;stroke-width:1.0;"/><text fill="#000000" font-family="sans-serif" font-size="13" font-weight="bold" lengthAdjust="spacing" textLength="14" x="330" y="537.0537">10</text><text fill="#000000" font-family="sans-serif" font-size="13" lengthAdjust="spacing" textLength="78" x="348" y="537.0537">saves park ID</text><polygon fill="#181818" points="85,606.8984,75,610.8984,85,614.8984,81,610.8984" style="stroke:#181818;stroke-width:1.0;"/><line style="stroke:#181818;stroke-width:1.0;" x1="79" x2="317" y1="610.8984" y2="610.8984"/><text fill="#000000" font-family="sans-serif" font-size="13" font-weight="bold" lengthAdjust="spacing" textLength="14" x="91" y="596.9902">11</text><text fill="#000000" font-family="sans-serif" font-size="13" lengthAdjust="spacing" textLength="171" x="109" y="588.3447">shows average monthly costs</text><text fill="#000000" font-family="sans-serif" font-size="13" lengthAdjust="spacing" textLength="113" x="113" y="605.6357">for all chosen parks</text><!--SRC=[bLF1Rjim3BtxAuYSMg0TUbqE0xPc0tBeBaPllR0I7GkM9K-a7FZlHyUnbsPBrkfY6tfyVE-HviQ53XEsqCOGJPrYIo0fKy7BJOUcmHsLCdY2H4OmxFmfW6kqSU_23YhqJ4KXJXJwN3uyV8PxA0SMQg6aNvc28TWut8rbDsMvkIqAp193RbyfwRkHc63rmnC9F67Gjca5oF2zxNmSY0hjACwu3eF0QlsJo3xMP9hSFMyFmAdPWSdrAFIdiW0zynVSVpb2rz2bs3jB37l5fySOEBUTk1W-6UwXSkfrB5qOvnPmF4T_9uo9q39WiC3gHvbVmdNkjpIpoBKQQXWa0fFNt455kaHMcT4FxFWbmCqtJ8gME_ZQKzAyu2a6gVq09hBmdK9AGN6igQ67RR3wL55yUsXiwTpMfPGc2UhgsAOzRNCzeAlkfj53h7JFqkJsbJItR1tP3sfS9db6UYZmCNQGWpWFcVLo0Myt39Mk7Nf_0l-leukkcebkf5BkfURVDYvPaQ5JQUSS7n0q4vdnzs1mrKm6Zg57x-mxYbcd_LO5wLAFIRuh2gxZ_iB6w5xEcPiwCeMpwFzAwpS0]--></g></svg>