<?xml version="1.0" encoding="us-ascii" standalone="no"?><svg xmlns="http://www.w3.org/2000/svg" xmlns:xlink="http://www.w3.org/1999/xlink" contentStyleType="text/css" height="1562px" preserveAspectRatio="none" style="width:1039px;height:1562px;background:#FFFFFF;" version="1.1" viewBox="0 0 1039 1562" width="1039px" zoomAndPan="magnify"><defs/><g><text fill="#000000" font-family="sans-serif" font-size="14" font-weight="bold" lengthAdjust="spacing" textLength="155" x="435.25" y="25.1074">US005 - Class Diagram</text><!--class TeamProposalUI--><g id="elem_TeamProposalUI"><rect codeLine="11" fill="#F1F1F1" height="383.1797" id="TeamProposalUI" rx="2.5" ry="2.5" style="stroke:#181818;stroke-width:0.5;" width="357" x="7" y="46.6211"/><ellipse cx="129.25" cy="62.6211" fill="#ADD1B2" rx="11" ry="11" style="stroke:#181818;stroke-width:1.0;"/><path d="M132.0156,58.4961 Q132.1719,58.2773 132.3594,58.168 Q132.5469,58.0586 132.7656,58.0586 Q133.1406,58.0586 133.375,58.3242 Q133.6094,58.5742 133.6094,59.1836 L133.6094,60.6367 Q133.6094,61.2461 133.375,61.5117 Q133.1406,61.7773 132.7656,61.7773 Q132.4219,61.7773 132.2188,61.5742 Q132.0156,61.3867 131.9063,60.8711 Q131.8594,60.5117 131.6719,60.3242 Q131.3438,59.9492 130.7344,59.7305 Q130.125,59.5117 129.5,59.5117 Q128.7344,59.5117 128.0938,59.8398 Q127.4688,60.168 126.9688,60.918 Q126.4844,61.668 126.4844,62.6992 L126.4844,63.793 Q126.4844,65.0273 127.375,65.8555 Q128.2656,66.668 129.8594,66.668 Q130.7969,66.668 131.4531,66.418 Q131.8438,66.2617 132.2656,65.8242 Q132.5313,65.5586 132.6719,65.4805 Q132.8281,65.4023 133.0313,65.4023 Q133.3594,65.4023 133.6094,65.668 Q133.875,65.918 133.875,66.2617 Q133.875,66.6055 133.5313,67.0117 Q133.0313,67.5898 132.2344,67.918 Q131.1563,68.3711 129.8594,68.3711 Q128.3438,68.3711 127.1406,67.7461 Q126.1563,67.2461 125.4688,66.1836 Q124.7813,65.1055 124.7813,63.8242 L124.7813,62.668 Q124.7813,61.3398 125.3906,60.1992 Q126.0156,59.043 127.1094,58.4336 Q128.2031,57.8086 129.4375,57.8086 Q130.1719,57.8086 130.8125,57.9805 Q131.4688,58.1367 132.0156,58.4961 Z " fill="#000000"/><text fill="#000000" font-family="sans-serif" font-size="14" lengthAdjust="spacing" textLength="104" x="149.75" y="68.418">TeamProposalUI</text><line style="stroke:#181818;stroke-width:0.5;" x1="8" x2="363" y1="78.6211" y2="78.6211"/><text fill="#000000" font-family="sans-serif" font-size="14" lengthAdjust="spacing" textLength="108" x="13" y="97.7285">-int minTeamSize</text><text fill="#000000" font-family="sans-serif" font-size="14" lengthAdjust="spacing" textLength="111" x="13" y="116.3496">-int maxTeamSize</text><text fill="#000000" font-family="sans-serif" font-size="14" lengthAdjust="spacing" textLength="151" x="13" y="134.9707">-List&lt;Skill&gt; skillsNeeded</text><text fill="#000000" font-family="sans-serif" font-size="14" lengthAdjust="spacing" textLength="190" x="13" y="153.5918">-List&lt;Integer&gt; quantityNeeded</text><text fill="#000000" font-family="sans-serif" font-size="14" lengthAdjust="spacing" textLength="135" x="13" y="172.2129">-Team teamAccepted</text><line style="stroke:#181818;stroke-width:0.5;" x1="8" x2="363" y1="179.7266" y2="179.7266"/><text fill="#000000" font-family="sans-serif" font-size="14" lengthAdjust="spacing" textLength="172" x="13" y="198.834">+TeamProposalUI_testing()</text><text fill="#000000" font-family="sans-serif" font-size="14" lengthAdjust="spacing" textLength="192" x="13" y="217.4551">+getTeamProposalController()</text><text fill="#000000" font-family="sans-serif" font-size="14" lengthAdjust="spacing" textLength="39" x="13" y="236.0762">+run()</text><text fill="#000000" font-family="sans-serif" font-size="14" lengthAdjust="spacing" textLength="186" x="13" y="254.6973">-generateAllTeamProposals()</text><text fill="#000000" font-family="sans-serif" font-size="14" lengthAdjust="spacing" textLength="157" x="13" y="273.3184">-askManagerResponse()</text><text fill="#000000" font-family="sans-serif" font-size="14" lengthAdjust="spacing" textLength="244" x="13" y="291.9395">-requestQuantityNeeded(skillsNeeded)</text><text fill="#000000" font-family="sans-serif" font-size="14" lengthAdjust="spacing" textLength="204" x="13" y="310.5605">-displayAndSelectSkillsNeeded()</text><text fill="#000000" font-family="sans-serif" font-size="14" lengthAdjust="spacing" textLength="227" x="13" y="329.1816">-saveTeamProposal(teamAccepted)</text><text fill="#000000" font-family="sans-serif" font-size="14" lengthAdjust="spacing" textLength="178" x="13" y="347.8027">-displaySkillOptions(skillList)</text><text fill="#000000" font-family="sans-serif" font-size="14" lengthAdjust="spacing" textLength="345" x="13" y="366.4238">-displayAndSelectTeamForApproval(generatedTeams)</text><text fill="#000000" font-family="sans-serif" font-size="14" lengthAdjust="spacing" textLength="93" x="13" y="385.0449">-requestData()</text><text fill="#000000" font-family="sans-serif" font-size="14" lengthAdjust="spacing" textLength="150" x="13" y="403.666">-requestMaxTeamSize()</text><text fill="#000000" font-family="sans-serif" font-size="14" lengthAdjust="spacing" textLength="147" x="13" y="422.2871">-requestMinTeamSize()</text></g><!--class TeamProposalController--><g id="elem_TeamProposalController"><rect codeLine="34" fill="#F1F1F1" height="215.5898" id="TeamProposalController" rx="2.5" ry="2.5" style="stroke:#181818;stroke-width:0.5;" width="298" x="399.5" y="130.1211"/><ellipse cx="467.25" cy="146.1211" fill="#ADD1B2" rx="11" ry="11" style="stroke:#181818;stroke-width:1.0;"/><path d="M470.0156,141.9961 Q470.1719,141.7773 470.3594,141.668 Q470.5469,141.5586 470.7656,141.5586 Q471.1406,141.5586 471.375,141.8242 Q471.6094,142.0742 471.6094,142.6836 L471.6094,144.1367 Q471.6094,144.7461 471.375,145.0117 Q471.1406,145.2773 470.7656,145.2773 Q470.4219,145.2773 470.2188,145.0742 Q470.0156,144.8867 469.9063,144.3711 Q469.8594,144.0117 469.6719,143.8242 Q469.3438,143.4492 468.7344,143.2305 Q468.125,143.0117 467.5,143.0117 Q466.7344,143.0117 466.0938,143.3398 Q465.4688,143.668 464.9688,144.418 Q464.4844,145.168 464.4844,146.1992 L464.4844,147.293 Q464.4844,148.5273 465.375,149.3555 Q466.2656,150.168 467.8594,150.168 Q468.7969,150.168 469.4531,149.918 Q469.8438,149.7617 470.2656,149.3242 Q470.5313,149.0586 470.6719,148.9805 Q470.8281,148.9023 471.0313,148.9023 Q471.3594,148.9023 471.6094,149.168 Q471.875,149.418 471.875,149.7617 Q471.875,150.1055 471.5313,150.5117 Q471.0313,151.0898 470.2344,151.418 Q469.1563,151.8711 467.8594,151.8711 Q466.3438,151.8711 465.1406,151.2461 Q464.1563,150.7461 463.4688,149.6836 Q462.7813,148.6055 462.7813,147.3242 L462.7813,146.168 Q462.7813,144.8398 463.3906,143.6992 Q464.0156,142.543 465.1094,141.9336 Q466.2031,141.3086 467.4375,141.3086 Q468.1719,141.3086 468.8125,141.4805 Q469.4688,141.6367 470.0156,141.9961 Z " fill="#000000"/><text fill="#000000" font-family="sans-serif" font-size="14" lengthAdjust="spacing" textLength="154" x="487.75" y="151.918">TeamProposalController</text><line style="stroke:#181818;stroke-width:0.5;" x1="400.5" x2="696.5" y1="162.1211" y2="162.1211"/><line style="stroke:#181818;stroke-width:0.5;" x1="400.5" x2="696.5" y1="170.1211" y2="170.1211"/><text fill="#000000" font-family="sans-serif" font-size="14" lengthAdjust="spacing" textLength="172" x="405.5" y="189.2285">+TeamProposalController()</text><text fill="#000000" font-family="sans-serif" font-size="14" lengthAdjust="spacing" textLength="128" x="405.5" y="207.8496">-getSkillRepository()</text><text fill="#000000" font-family="sans-serif" font-size="14" lengthAdjust="spacing" textLength="181" x="405.5" y="226.4707">-getCollaboratorRepository()</text><text fill="#000000" font-family="sans-serif" font-size="14" lengthAdjust="spacing" textLength="139" x="405.5" y="245.0918">-getTeamRepository()</text><text fill="#000000" font-family="sans-serif" font-size="14" lengthAdjust="spacing" textLength="85" x="405.5" y="263.7129">+getSkillList()</text><text fill="#000000" font-family="sans-serif" font-size="14" lengthAdjust="spacing" textLength="138" x="405.5" y="282.334">+getCollaboratorList()</text><text fill="#000000" font-family="sans-serif" font-size="14" lengthAdjust="spacing" textLength="265" x="405.5" y="300.9551">+generateAllTeamProposal(minTeamSize,</text><text fill="#000000" font-family="sans-serif" font-size="14" lengthAdjust="spacing" textLength="286" x="405.5" y="319.5762">maxTeamSize, skillsNeeded, quantityNeeded)</text><text fill="#000000" font-family="sans-serif" font-size="14" lengthAdjust="spacing" textLength="230" x="405.5" y="338.1973">+saveTeamProposal(teamAccepted)</text></g><!--class Repositories--><g id="elem_Repositories"><rect codeLine="45" fill="#F1F1F1" height="141.1055" id="Repositories" rx="2.5" ry="2.5" style="stroke:#181818;stroke-width:0.5;" width="196" x="278.5" y="490.6211"/><ellipse cx="332.75" cy="506.6211" fill="#ADD1B2" rx="11" ry="11" style="stroke:#181818;stroke-width:1.0;"/><path d="M335.5156,502.4961 Q335.6719,502.2773 335.8594,502.168 Q336.0469,502.0586 336.2656,502.0586 Q336.6406,502.0586 336.875,502.3242 Q337.1094,502.5742 337.1094,503.1836 L337.1094,504.6367 Q337.1094,505.2461 336.875,505.5117 Q336.6406,505.7773 336.2656,505.7773 Q335.9219,505.7773 335.7188,505.5742 Q335.5156,505.3867 335.4063,504.8711 Q335.3594,504.5117 335.1719,504.3242 Q334.8438,503.9492 334.2344,503.7305 Q333.625,503.5117 333,503.5117 Q332.2344,503.5117 331.5938,503.8398 Q330.9688,504.168 330.4688,504.918 Q329.9844,505.668 329.9844,506.6992 L329.9844,507.793 Q329.9844,509.0273 330.875,509.8555 Q331.7656,510.668 333.3594,510.668 Q334.2969,510.668 334.9531,510.418 Q335.3438,510.2617 335.7656,509.8242 Q336.0313,509.5586 336.1719,509.4805 Q336.3281,509.4023 336.5313,509.4023 Q336.8594,509.4023 337.1094,509.668 Q337.375,509.918 337.375,510.2617 Q337.375,510.6055 337.0313,511.0117 Q336.5313,511.5898 335.7344,511.918 Q334.6563,512.3711 333.3594,512.3711 Q331.8438,512.3711 330.6406,511.7461 Q329.6563,511.2461 328.9688,510.1836 Q328.2813,509.1055 328.2813,507.8242 L328.2813,506.668 Q328.2813,505.3398 328.8906,504.1992 Q329.5156,503.043 330.6094,502.4336 Q331.7031,501.8086 332.9375,501.8086 Q333.6719,501.8086 334.3125,501.9805 Q334.9688,502.1367 335.5156,502.4961 Z " fill="#000000"/><text fill="#000000" font-family="sans-serif" font-size="14" lengthAdjust="spacing" textLength="79" x="353.25" y="512.418">Repositories</text><line style="stroke:#181818;stroke-width:0.5;" x1="279.5" x2="473.5" y1="522.6211" y2="522.6211"/><line style="stroke:#181818;stroke-width:0.5;" x1="279.5" x2="473.5" y1="530.6211" y2="530.6211"/><text fill="#000000" font-family="sans-serif" font-size="14" lengthAdjust="spacing" textLength="94" x="284.5" y="549.7285">-Repositories()</text><text fill="#000000" font-family="sans-serif" font-size="14" lengthAdjust="spacing" textLength="182" x="284.5" y="568.3496">+getInstance() : Repositories</text><text fill="#000000" font-family="sans-serif" font-size="14" lengthAdjust="spacing" textLength="131" x="284.5" y="586.9707">+getSkillRepository()</text><text fill="#000000" font-family="sans-serif" font-size="14" lengthAdjust="spacing" textLength="184" x="284.5" y="605.5918">+getCollaboratorRepository()</text><text fill="#000000" font-family="sans-serif" font-size="14" lengthAdjust="spacing" textLength="142" x="284.5" y="624.2129">+getTeamRepository()</text></g><!--class SkillRepository--><g id="elem_SkillRepository"><rect codeLine="53" fill="#F1F1F1" height="85.2422" id="SkillRepository" rx="2.5" ry="2.5" style="stroke:#181818;stroke-width:0.5;" width="129" x="161" y="1038.6211"/><ellipse cx="177.8" cy="1054.6211" fill="#ADD1B2" rx="11" ry="11" style="stroke:#181818;stroke-width:1.0;"/><path d="M180.5656,1050.4961 Q180.7219,1050.2773 180.9094,1050.168 Q181.0969,1050.0586 181.3156,1050.0586 Q181.6906,1050.0586 181.925,1050.3242 Q182.1594,1050.5742 182.1594,1051.1836 L182.1594,1052.6367 Q182.1594,1053.2461 181.925,1053.5117 Q181.6906,1053.7773 181.3156,1053.7773 Q180.9719,1053.7773 180.7688,1053.5742 Q180.5656,1053.3867 180.4563,1052.8711 Q180.4094,1052.5117 180.2219,1052.3242 Q179.8938,1051.9492 179.2844,1051.7305 Q178.675,1051.5117 178.05,1051.5117 Q177.2844,1051.5117 176.6438,1051.8398 Q176.0188,1052.168 175.5188,1052.918 Q175.0344,1053.668 175.0344,1054.6992 L175.0344,1055.793 Q175.0344,1057.0273 175.925,1057.8555 Q176.8156,1058.668 178.4094,1058.668 Q179.3469,1058.668 180.0031,1058.418 Q180.3938,1058.2617 180.8156,1057.8242 Q181.0813,1057.5586 181.2219,1057.4805 Q181.3781,1057.4023 181.5813,1057.4023 Q181.9094,1057.4023 182.1594,1057.668 Q182.425,1057.918 182.425,1058.2617 Q182.425,1058.6055 182.0813,1059.0117 Q181.5813,1059.5898 180.7844,1059.918 Q179.7063,1060.3711 178.4094,1060.3711 Q176.8938,1060.3711 175.6906,1059.7461 Q174.7063,1059.2461 174.0188,1058.1836 Q173.3313,1057.1055 173.3313,1055.8242 L173.3313,1054.668 Q173.3313,1053.3398 173.9406,1052.1992 Q174.5656,1051.043 175.6594,1050.4336 Q176.7531,1049.8086 177.9875,1049.8086 Q178.7219,1049.8086 179.3625,1049.9805 Q180.0188,1050.1367 180.5656,1050.4961 Z " fill="#000000"/><text fill="#000000" font-family="sans-serif" font-size="14" lengthAdjust="spacing" textLength="93" x="192.2" y="1060.418">SkillRepository</text><line style="stroke:#181818;stroke-width:0.5;" x1="162" x2="289" y1="1070.6211" y2="1070.6211"/><text fill="#000000" font-family="sans-serif" font-size="14" lengthAdjust="spacing" textLength="117" x="167" y="1089.7285">-List&lt;Skill&gt; skillList</text><line style="stroke:#181818;stroke-width:0.5;" x1="162" x2="289" y1="1097.2422" y2="1097.2422"/><text fill="#000000" font-family="sans-serif" font-size="14" lengthAdjust="spacing" textLength="85" x="167" y="1116.3496">+getSkillList()</text></g><!--class CollaboratorRepository--><g id="elem_CollaboratorRepository"><rect codeLine="59" fill="#F1F1F1" height="85.2422" id="CollaboratorRepository" rx="2.5" ry="2.5" style="stroke:#181818;stroke-width:0.5;" width="234" x="659.5" y="790.6211"/><ellipse cx="699.7" cy="806.6211" fill="#ADD1B2" rx="11" ry="11" style="stroke:#181818;stroke-width:1.0;"/><path d="M702.4656,802.4961 Q702.6219,802.2773 702.8094,802.168 Q702.9969,802.0586 703.2156,802.0586 Q703.5906,802.0586 703.825,802.3242 Q704.0594,802.5742 704.0594,803.1836 L704.0594,804.6367 Q704.0594,805.2461 703.825,805.5117 Q703.5906,805.7773 703.2156,805.7773 Q702.8719,805.7773 702.6688,805.5742 Q702.4656,805.3867 702.3563,804.8711 Q702.3094,804.5117 702.1219,804.3242 Q701.7938,803.9492 701.1844,803.7305 Q700.575,803.5117 699.95,803.5117 Q699.1844,803.5117 698.5438,803.8398 Q697.9188,804.168 697.4188,804.918 Q696.9344,805.668 696.9344,806.6992 L696.9344,807.793 Q696.9344,809.0273 697.825,809.8555 Q698.7156,810.668 700.3094,810.668 Q701.2469,810.668 701.9031,810.418 Q702.2938,810.2617 702.7156,809.8242 Q702.9813,809.5586 703.1219,809.4805 Q703.2781,809.4023 703.4813,809.4023 Q703.8094,809.4023 704.0594,809.668 Q704.325,809.918 704.325,810.2617 Q704.325,810.6055 703.9813,811.0117 Q703.4813,811.5898 702.6844,811.918 Q701.6063,812.3711 700.3094,812.3711 Q698.7938,812.3711 697.5906,811.7461 Q696.6063,811.2461 695.9188,810.1836 Q695.2313,809.1055 695.2313,807.8242 L695.2313,806.668 Q695.2313,805.3398 695.8406,804.1992 Q696.4656,803.043 697.5594,802.4336 Q698.6531,801.8086 699.8875,801.8086 Q700.6219,801.8086 701.2625,801.9805 Q701.9188,802.1367 702.4656,802.4961 Z " fill="#000000"/><text fill="#000000" font-family="sans-serif" font-size="14" lengthAdjust="spacing" textLength="146" x="719.3" y="812.418">CollaboratorRepository</text><line style="stroke:#181818;stroke-width:0.5;" x1="660.5" x2="892.5" y1="822.6211" y2="822.6211"/><text fill="#000000" font-family="sans-serif" font-size="14" lengthAdjust="spacing" textLength="222" x="665.5" y="841.7285">-List&lt;Collaborator&gt; collaboratorList</text><line style="stroke:#181818;stroke-width:0.5;" x1="660.5" x2="892.5" y1="849.2422" y2="849.2422"/><text fill="#000000" font-family="sans-serif" font-size="14" lengthAdjust="spacing" textLength="138" x="665.5" y="868.3496">+getCollaboratorList()</text></g><!--class TeamRepository--><g id="elem_TeamRepository"><rect codeLine="66" fill="#F1F1F1" height="252.832" id="TeamRepository" rx="2.5" ry="2.5" style="stroke:#181818;stroke-width:0.5;" width="434" x="325.5" y="954.6211"/><ellipse cx="486.25" cy="970.6211" fill="#ADD1B2" rx="11" ry="11" style="stroke:#181818;stroke-width:1.0;"/><path d="M489.0156,966.4961 Q489.1719,966.2773 489.3594,966.168 Q489.5469,966.0586 489.7656,966.0586 Q490.1406,966.0586 490.375,966.3242 Q490.6094,966.5742 490.6094,967.1836 L490.6094,968.6367 Q490.6094,969.2461 490.375,969.5117 Q490.1406,969.7773 489.7656,969.7773 Q489.4219,969.7773 489.2188,969.5742 Q489.0156,969.3867 488.9063,968.8711 Q488.8594,968.5117 488.6719,968.3242 Q488.3438,967.9492 487.7344,967.7305 Q487.125,967.5117 486.5,967.5117 Q485.7344,967.5117 485.0938,967.8398 Q484.4688,968.168 483.9688,968.918 Q483.4844,969.668 483.4844,970.6992 L483.4844,971.793 Q483.4844,973.0273 484.375,973.8555 Q485.2656,974.668 486.8594,974.668 Q487.7969,974.668 488.4531,974.418 Q488.8438,974.2617 489.2656,973.8242 Q489.5313,973.5586 489.6719,973.4805 Q489.8281,973.4023 490.0313,973.4023 Q490.3594,973.4023 490.6094,973.668 Q490.875,973.918 490.875,974.2617 Q490.875,974.6055 490.5313,975.0117 Q490.0313,975.5898 489.2344,975.918 Q488.1563,976.3711 486.8594,976.3711 Q485.3438,976.3711 484.1406,975.7461 Q483.1563,975.2461 482.4688,974.1836 Q481.7813,973.1055 481.7813,971.8242 L481.7813,970.668 Q481.7813,969.3398 482.3906,968.1992 Q483.0156,967.043 484.1094,966.4336 Q485.2031,965.8086 486.4375,965.8086 Q487.1719,965.8086 487.8125,965.9805 Q488.4688,966.1367 489.0156,966.4961 Z " fill="#000000"/><text fill="#000000" font-family="sans-serif" font-size="14" lengthAdjust="spacing" textLength="104" x="506.75" y="976.418">TeamRepository</text><line style="stroke:#181818;stroke-width:0.5;" x1="326.5" x2="758.5" y1="986.6211" y2="986.6211"/><text fill="#000000" font-family="sans-serif" font-size="14" lengthAdjust="spacing" textLength="136" x="331.5" y="1005.7285">-List&lt;Team&gt; teamList</text><line style="stroke:#181818;stroke-width:0.5;" x1="326.5" x2="758.5" y1="1013.2422" y2="1013.2422"/><text fill="#000000" font-family="sans-serif" font-size="14" lengthAdjust="spacing" textLength="122" x="331.5" y="1032.3496">+TeamRepository()</text><text fill="#000000" font-family="sans-serif" font-size="14" lengthAdjust="spacing" textLength="367" x="331.5" y="1050.9707">+generateAllTeamProposals(minTeamSize, maxTeamSize,</text><text fill="#000000" font-family="sans-serif" font-size="14" lengthAdjust="spacing" textLength="296" x="331.5" y="1069.5918">skillsNeeded, quantityNeeded, collaboratorList)</text><text fill="#000000" font-family="sans-serif" font-size="14" lengthAdjust="spacing" textLength="260" x="331.5" y="1088.2129">-verifyIfSkillSetIsFulfilled(skillSetListCopy)</text><text fill="#000000" font-family="sans-serif" font-size="14" lengthAdjust="spacing" textLength="422" x="331.5" y="1106.834">-createTeams(possibleCollaborators, minTeamSize, maxTeamSize)</text><text fill="#000000" font-family="sans-serif" font-size="14" lengthAdjust="spacing" textLength="342" x="331.5" y="1125.4551">-createTeamsBySize(possibleCollaborators, teamSize)</text><text fill="#000000" font-family="sans-serif" font-size="14" lengthAdjust="spacing" textLength="365" x="331.5" y="1144.0762">-gatherPossibleCollaborators(collaboratorList, skillSetList)</text><text fill="#000000" font-family="sans-serif" font-size="14" lengthAdjust="spacing" textLength="222" x="331.5" y="1162.6973">-isAlreadyInOneTeam(collaborator)</text><text fill="#000000" font-family="sans-serif" font-size="14" lengthAdjust="spacing" textLength="345" x="331.5" y="1181.3184">-verifyQuantityNeeded(quantityNeeded, maxTeamSize)</text><text fill="#000000" font-family="sans-serif" font-size="14" lengthAdjust="spacing" textLength="227" x="331.5" y="1199.9395">-saveTeamProposal(teamAccepted)</text></g><!--class Team--><g id="elem_Team"><rect codeLine="80" fill="#F1F1F1" height="122.4844" id="Team" rx="2.5" ry="2.5" style="stroke:#181818;stroke-width:0.5;" width="195" x="445" y="1432.6211"/><ellipse cx="520.25" cy="1448.6211" fill="#ADD1B2" rx="11" ry="11" style="stroke:#181818;stroke-width:1.0;"/><path d="M523.0156,1444.4961 Q523.1719,1444.2773 523.3594,1444.168 Q523.5469,1444.0586 523.7656,1444.0586 Q524.1406,1444.0586 524.375,1444.3242 Q524.6094,1444.5742 524.6094,1445.1836 L524.6094,1446.6367 Q524.6094,1447.2461 524.375,1447.5117 Q524.1406,1447.7773 523.7656,1447.7773 Q523.4219,1447.7773 523.2188,1447.5742 Q523.0156,1447.3867 522.9063,1446.8711 Q522.8594,1446.5117 522.6719,1446.3242 Q522.3438,1445.9492 521.7344,1445.7305 Q521.125,1445.5117 520.5,1445.5117 Q519.7344,1445.5117 519.0938,1445.8398 Q518.4688,1446.168 517.9688,1446.918 Q517.4844,1447.668 517.4844,1448.6992 L517.4844,1449.793 Q517.4844,1451.0273 518.375,1451.8555 Q519.2656,1452.668 520.8594,1452.668 Q521.7969,1452.668 522.4531,1452.418 Q522.8438,1452.2617 523.2656,1451.8242 Q523.5313,1451.5586 523.6719,1451.4805 Q523.8281,1451.4023 524.0313,1451.4023 Q524.3594,1451.4023 524.6094,1451.668 Q524.875,1451.918 524.875,1452.2617 Q524.875,1452.6055 524.5313,1453.0117 Q524.0313,1453.5898 523.2344,1453.918 Q522.1563,1454.3711 520.8594,1454.3711 Q519.3438,1454.3711 518.1406,1453.7461 Q517.1563,1453.2461 516.4688,1452.1836 Q515.7813,1451.1055 515.7813,1449.8242 L515.7813,1448.668 Q515.7813,1447.3398 516.3906,1446.1992 Q517.0156,1445.043 518.1094,1444.4336 Q519.2031,1443.8086 520.4375,1443.8086 Q521.1719,1443.8086 521.8125,1443.9805 Q522.4688,1444.1367 523.0156,1444.4961 Z " fill="#000000"/><text fill="#000000" font-family="sans-serif" font-size="14" lengthAdjust="spacing" textLength="36" x="540.75" y="1454.418">Team</text><line style="stroke:#181818;stroke-width:0.5;" x1="446" x2="639" y1="1464.6211" y2="1464.6211"/><text fill="#000000" font-family="sans-serif" font-size="14" lengthAdjust="spacing" textLength="183" x="451" y="1483.7285">-List&lt;Collaborator&gt; members</text><line style="stroke:#181818;stroke-width:0.5;" x1="446" x2="639" y1="1491.2422" y2="1491.2422"/><text fill="#000000" font-family="sans-serif" font-size="14" lengthAdjust="spacing" textLength="112" x="451" y="1510.3496">+Team(members)</text><text fill="#000000" font-family="sans-serif" font-size="14" lengthAdjust="spacing" textLength="96" x="451" y="1528.9707">+getMembers()</text><text fill="#000000" font-family="sans-serif" font-size="14" lengthAdjust="spacing" textLength="67" x="451" y="1547.5918">+toString()</text></g><!--class Skill--><g id="elem_Skill"><rect codeLine="88" fill="#F1F1F1" height="85.2422" id="Skill" rx="2.5" ry="2.5" style="stroke:#181818;stroke-width:0.5;" width="117" x="167" y="1286.6211"/><ellipse cx="209" cy="1302.6211" fill="#ADD1B2" rx="11" ry="11" style="stroke:#181818;stroke-width:1.0;"/><path d="M211.7656,1298.4961 Q211.9219,1298.2773 212.1094,1298.168 Q212.2969,1298.0586 212.5156,1298.0586 Q212.8906,1298.0586 213.125,1298.3242 Q213.3594,1298.5742 213.3594,1299.1836 L213.3594,1300.6367 Q213.3594,1301.2461 213.125,1301.5117 Q212.8906,1301.7773 212.5156,1301.7773 Q212.1719,1301.7773 211.9688,1301.5742 Q211.7656,1301.3867 211.6563,1300.8711 Q211.6094,1300.5117 211.4219,1300.3242 Q211.0938,1299.9492 210.4844,1299.7305 Q209.875,1299.5117 209.25,1299.5117 Q208.4844,1299.5117 207.8438,1299.8398 Q207.2188,1300.168 206.7188,1300.918 Q206.2344,1301.668 206.2344,1302.6992 L206.2344,1303.793 Q206.2344,1305.0273 207.125,1305.8555 Q208.0156,1306.668 209.6094,1306.668 Q210.5469,1306.668 211.2031,1306.418 Q211.5938,1306.2617 212.0156,1305.8242 Q212.2813,1305.5586 212.4219,1305.4805 Q212.5781,1305.4023 212.7813,1305.4023 Q213.1094,1305.4023 213.3594,1305.668 Q213.625,1305.918 213.625,1306.2617 Q213.625,1306.6055 213.2813,1307.0117 Q212.7813,1307.5898 211.9844,1307.918 Q210.9063,1308.3711 209.6094,1308.3711 Q208.0938,1308.3711 206.8906,1307.7461 Q205.9063,1307.2461 205.2188,1306.1836 Q204.5313,1305.1055 204.5313,1303.8242 L204.5313,1302.668 Q204.5313,1301.3398 205.1406,1300.1992 Q205.7656,1299.043 206.8594,1298.4336 Q207.9531,1297.8086 209.1875,1297.8086 Q209.9219,1297.8086 210.5625,1297.9805 Q211.2188,1298.1367 211.7656,1298.4961 Z " fill="#000000"/><text fill="#000000" font-family="sans-serif" font-size="14" lengthAdjust="spacing" textLength="25" x="229" y="1308.418">Skill</text><line style="stroke:#181818;stroke-width:0.5;" x1="168" x2="283" y1="1318.6211" y2="1318.6211"/><text fill="#000000" font-family="sans-serif" font-size="14" lengthAdjust="spacing" textLength="105" x="173" y="1337.7285">-String skillName</text><line style="stroke:#181818;stroke-width:0.5;" x1="168" x2="283" y1="1345.2422" y2="1345.2422"/><text fill="#000000" font-family="sans-serif" font-size="14" lengthAdjust="spacing" textLength="102" x="173" y="1364.3496">+Skill(skillName)</text></g><!--class Collaborator--><g id="elem_Collaborator"><rect codeLine="94" fill="#F1F1F1" height="122.4844" id="Collaborator" rx="2.5" ry="2.5" style="stroke:#181818;stroke-width:0.5;" width="238" x="794.5" y="1020.1211"/><ellipse cx="870.25" cy="1036.1211" fill="#ADD1B2" rx="11" ry="11" style="stroke:#181818;stroke-width:1.0;"/><path d="M873.0156,1031.9961 Q873.1719,1031.7773 873.3594,1031.668 Q873.5469,1031.5586 873.7656,1031.5586 Q874.1406,1031.5586 874.375,1031.8242 Q874.6094,1032.0742 874.6094,1032.6836 L874.6094,1034.1367 Q874.6094,1034.7461 874.375,1035.0117 Q874.1406,1035.2773 873.7656,1035.2773 Q873.4219,1035.2773 873.2188,1035.0742 Q873.0156,1034.8867 872.9063,1034.3711 Q872.8594,1034.0117 872.6719,1033.8242 Q872.3438,1033.4492 871.7344,1033.2305 Q871.125,1033.0117 870.5,1033.0117 Q869.7344,1033.0117 869.0938,1033.3398 Q868.4688,1033.668 867.9688,1034.418 Q867.4844,1035.168 867.4844,1036.1992 L867.4844,1037.293 Q867.4844,1038.5273 868.375,1039.3555 Q869.2656,1040.168 870.8594,1040.168 Q871.7969,1040.168 872.4531,1039.918 Q872.8438,1039.7617 873.2656,1039.3242 Q873.5313,1039.0586 873.6719,1038.9805 Q873.8281,1038.9023 874.0313,1038.9023 Q874.3594,1038.9023 874.6094,1039.168 Q874.875,1039.418 874.875,1039.7617 Q874.875,1040.1055 874.5313,1040.5117 Q874.0313,1041.0898 873.2344,1041.418 Q872.1563,1041.8711 870.8594,1041.8711 Q869.3438,1041.8711 868.1406,1041.2461 Q867.1563,1040.7461 866.4688,1039.6836 Q865.7813,1038.6055 865.7813,1037.3242 L865.7813,1036.168 Q865.7813,1034.8398 866.3906,1033.6992 Q867.0156,1032.543 868.1094,1031.9336 Q869.2031,1031.3086 870.4375,1031.3086 Q871.1719,1031.3086 871.8125,1031.4805 Q872.4688,1031.6367 873.0156,1031.9961 Z " fill="#000000"/><text fill="#000000" font-family="sans-serif" font-size="14" lengthAdjust="spacing" textLength="78" x="890.75" y="1041.918">Collaborator</text><line style="stroke:#181818;stroke-width:0.5;" x1="795.5" x2="1031.5" y1="1052.1211" y2="1052.1211"/><text fill="#000000" font-family="sans-serif" font-size="14" lengthAdjust="spacing" textLength="117" x="800.5" y="1071.2285">-List&lt;Skill&gt; skillList</text><line style="stroke:#181818;stroke-width:0.5;" x1="795.5" x2="1031.5" y1="1078.7422" y2="1078.7422"/><text fill="#000000" font-family="sans-serif" font-size="14" lengthAdjust="spacing" textLength="85" x="800.5" y="1097.8496">+getSkillList()</text><text fill="#000000" font-family="sans-serif" font-size="14" lengthAdjust="spacing" textLength="99" x="800.5" y="1116.4707">+getSkillName()</text><text fill="#000000" font-family="sans-serif" font-size="14" lengthAdjust="spacing" textLength="226" x="800.5" y="1135.0918">+hasAtLeastOneSkill(requiredSkills)</text></g><!--link TeamProposalUI to TeamProposalController--><g id="link_TeamProposalUI_TeamProposalController"><path codeLine="103" d="M364.16,238.1211 C376.46,238.1211 382.91,238.1211 393.48,238.1211 " fill="none" id="TeamProposalUI-to-TeamProposalController" style="stroke:#181818;stroke-width:1.0;stroke-dasharray:7.0,7.0;"/><polygon fill="#181818" points="399.48,238.1211,390.48,234.1211,394.48,238.1211,390.48,242.1211,399.48,238.1211" style="stroke:#181818;stroke-width:1.0;"/></g><!--link TeamProposalController to Repositories--><g id="link_TeamProposalController_Repositories"><path codeLine="105" d="M490.99,346.4511 C465.6,393.8411 439.3037,442.9124 416.7837,484.9424 " fill="none" id="TeamProposalController-to-Repositories" style="stroke:#181818;stroke-width:1.0;stroke-dasharray:7.0,7.0;"/><polygon fill="#181818" points="413.95,490.2311,421.7264,484.1872,416.3114,485.8239,414.6748,480.4089,413.95,490.2311" style="stroke:#181818;stroke-width:1.0;"/></g><!--link Repositories to SkillRepository--><g id="link_Repositories_SkillRepository"><path codeLine="107" d="M356.21,631.7111 C324.36,740.9811 265.2696,943.701 239.3596,1032.561 " fill="none" id="Repositories-to-SkillRepository" style="stroke:#181818;stroke-width:1.0;"/><polygon fill="#181818" points="237.68,1038.3211,244.0394,1030.8006,239.0796,1033.521,236.3592,1028.5612,237.68,1038.3211" style="stroke:#181818;stroke-width:1.0;"/><text fill="#000000" font-family="sans-serif" font-size="13" lengthAdjust="spacing" textLength="7" x="232.0091" y="1027.4978">1</text></g><!--link Repositories to CollaboratorRepository--><g id="link_Repositories_CollaboratorRepository"><path codeLine="108" d="M454.18,631.7011 C505.56,677.7211 563.5,729.6211 563.5,729.6211 C563.5,729.6211 625.7238,759.5587 684.7638,787.9787 " fill="none" id="Repositories-to-CollaboratorRepository" style="stroke:#181818;stroke-width:1.0;"/><polygon fill="#181818" points="690.17,790.5811,683.7956,783.0733,685.6648,788.4124,680.3257,790.2817,690.17,790.5811" style="stroke:#181818;stroke-width:1.0;"/><text fill="#000000" font-family="sans-serif" font-size="13" lengthAdjust="spacing" textLength="7" x="668.8533" y="779.4788">1</text></g><!--link Repositories to TeamRepository--><g id="link_Repositories_TeamRepository"><path codeLine="109" d="M398.8,631.7111 C425.22,714.1411 467.8987,847.3374 500.3987,948.7374 " fill="none" id="Repositories-to-TeamRepository" style="stroke:#181818;stroke-width:1.0;"/><polygon fill="#181818" points="502.23,954.4511,503.2922,944.6597,500.7039,949.6897,495.6739,947.1014,502.23,954.4511" style="stroke:#181818;stroke-width:1.0;"/><text fill="#000000" font-family="sans-serif" font-size="13" lengthAdjust="spacing" textLength="7" x="492.5628" y="943.2565">1</text></g><!--link TeamProposalController to SkillRepository--><g id="link_TeamProposalController_SkillRepository"><path codeLine="110" d="M454.51,346.3411 C416.53,389.6611 381.5,429.6211 381.5,429.6211 C381.5,429.6211 260.5,490.6211 260.5,490.6211 C260.5,490.6211 225.5,560.1211 225.5,560.1211 C225.5,560.1211 225.5,560.1211 225.5,834.1211 C225.5,834.1211 225.5,962.2011 225.5,1032.3911 " fill="none" id="TeamProposalController-to-SkillRepository" style="stroke:#181818;stroke-width:1.0;stroke-dasharray:7.0,7.0;"/><polygon fill="#181818" points="225.5,1038.3911,229.5,1029.3911,225.5,1033.3911,221.5,1029.3911,225.5,1038.3911" style="stroke:#181818;stroke-width:1.0;"/><text fill="#000000" font-family="sans-serif" font-size="13" lengthAdjust="spacing" textLength="85" x="226.5" y="725.6494">skillRepository</text></g><!--link TeamProposalController to CollaboratorRepository--><g id="link_TeamProposalController_CollaboratorRepository"><path codeLine="111" d="M589.66,346.1611 C640.71,478.9411 723.1365,693.3409 758.2765,784.7209 " fill="none" id="TeamProposalController-to-CollaboratorRepository" style="stroke:#181818;stroke-width:1.0;stroke-dasharray:7.0,7.0;"/><polygon fill="#181818" points="760.43,790.3211,760.9331,780.4851,758.6354,785.6543,753.4662,783.3565,760.43,790.3211" style="stroke:#181818;stroke-width:1.0;"/><text fill="#000000" font-family="sans-serif" font-size="13" lengthAdjust="spacing" textLength="129" x="718.5" y="676.6494">collaboratorRepository</text></g><!--link TeamProposalController to TeamRepository--><g id="link_TeamProposalController_TeamRepository"><path codeLine="112" d="M567.89,346.4511 C584.75,439.7711 606.5,560.1211 606.5,560.1211 C606.5,560.1211 606.5,560.1211 606.5,834.1211 C606.5,834.1211 592.4399,888.1442 576.6699,948.7942 " fill="none" id="TeamProposalController-to-TeamRepository" style="stroke:#181818;stroke-width:1.0;stroke-dasharray:7.0,7.0;"/><polygon fill="#181818" points="575.16,954.6011,581.2961,946.8973,576.4182,949.762,573.5536,944.8841,575.16,954.6011" style="stroke:#181818;stroke-width:1.0;"/><text fill="#000000" font-family="sans-serif" font-size="13" lengthAdjust="spacing" textLength="91" x="607.5" y="725.6494">teamRepository</text></g><!--link Repositories to Repositories--><g id="link_Repositories_Repositories"><path codeLine="113" d="M474.52,543.0311 C494.87,544.9311 509.5,550.9611 509.5,561.1211 C509.5,571.2811 500.844,576.7533 480.494,578.6533 " fill="none" id="Repositories-to-Repositories" style="stroke:#181818;stroke-width:1.0;"/><polygon fill="#181818" points="474.52,579.2111,483.8529,582.3571,479.4983,578.7463,483.1092,574.3918,474.52,579.2111" style="stroke:#181818;stroke-width:1.0;"/><text fill="#000000" font-family="sans-serif" font-size="13" lengthAdjust="spacing" textLength="49" x="515.5" y="566.6494">instance</text></g><!--link TeamRepository to Team--><g id="link_TeamRepository_Team"><path codeLine="114" d="M542.5,1207.7911 C542.5,1282.4011 542.5,1367.6111 542.5,1426.3911 " fill="none" id="TeamRepository-to-Team" style="stroke:#181818;stroke-width:1.0;"/><polygon fill="#181818" points="542.5,1432.3911,546.5,1423.3911,542.5,1427.3911,538.5,1423.3911,542.5,1432.3911" style="stroke:#181818;stroke-width:1.0;"/><text fill="#000000" font-family="sans-serif" font-size="13" lengthAdjust="spacing" textLength="29" x="543.5" y="1334.6494">team</text><text fill="#000000" font-family="sans-serif" font-size="13" lengthAdjust="spacing" textLength="7" x="535.2977" y="1229.6472">1</text><text fill="#000000" font-family="sans-serif" font-size="13" lengthAdjust="spacing" textLength="5" x="537.2109" y="1421.3457">*</text></g><!--link SkillRepository to Skill--><g id="link_SkillRepository_Skill"><path codeLine="115" d="M225.5,1123.8511 C225.5,1169.2211 225.5,1235.3011 225.5,1280.6011 " fill="none" id="SkillRepository-to-Skill" style="stroke:#181818;stroke-width:1.0;"/><polygon fill="#181818" points="225.5,1286.6011,229.5,1277.6011,225.5,1281.6011,221.5,1277.6011,225.5,1286.6011" style="stroke:#181818;stroke-width:1.0;"/><text fill="#000000" font-family="sans-serif" font-size="13" lengthAdjust="spacing" textLength="23" x="226.5" y="1252.6494">skill</text><text fill="#000000" font-family="sans-serif" font-size="13" lengthAdjust="spacing" textLength="7" x="217.9422" y="1146.0481">1</text><text fill="#000000" font-family="sans-serif" font-size="13" lengthAdjust="spacing" textLength="5" x="220.1016" y="1275.502">*</text></g><!--link CollaboratorRepository to Collaborator--><g id="link_CollaboratorRepository_Collaborator"><path codeLine="116" d="M799.74,875.8511 C821.73,915.3311 852.051,969.789 876.931,1014.469 " fill="none" id="CollaboratorRepository-to-Collaborator" style="stroke:#181818;stroke-width:1.0;"/><polygon fill="#181818" points="879.85,1019.7111,878.9662,1009.902,877.4175,1015.3427,871.9767,1013.794,879.85,1019.7111" style="stroke:#181818;stroke-width:1.0;"/><text fill="#000000" font-family="sans-serif" font-size="13" lengthAdjust="spacing" textLength="67" x="825.5" y="920.6494">collaborator</text><text fill="#000000" font-family="sans-serif" font-size="13" lengthAdjust="spacing" textLength="7" x="795.8861" y="898.0481">1</text><text fill="#000000" font-family="sans-serif" font-size="13" lengthAdjust="spacing" textLength="5" x="870.6702" y="1008.6449">*</text></g><!--SRC=[dLPRRzem57xthx3wqcn0rJti1Kr8h5KbfDxMh6-J9fCSmCAnKzjqowRzznqd9DWcOTLuW73ETpwVktDkjboMJBE25aggRADL0TJg7P23fcJPbgqXjPK0gY6pJAw53p0RbgiVNAxfYWdZQmINOAiIQAb4vVwGynwbqbPvHfbWniojrNovix38b4pvBw2Nv5p0obAhgERhZQKvTyvm9Odb5brxJYylFz89lNBsz9gpDR8HGce- -XLOyQXLgGmJpmlwcr3yJ2YNbXPSEgqxnPUodv7qbXlxATro8MRKk1zp3v13xgiNqi8Qz8o-x9X4lwe0uWYfnQzvba5fKLuhHf5ttoqOY_bCtktLQx0-uaf9gvKGe3k4tidzymJH4ZIpC1V2jp8TW9dj7PDOK_q4fbJIGAVIyBB3mxy4tYT-j2qovwOKh9hBF0M1XKWzJ4Tds2luFYH-y15JJV1GkegQvaINqQ7Z7EkDqlEorEeLYTkWSwSmKJZNpB8unBj3VOzKXuP05VdJrqE76knxQKHFbiYLfSdH4o22MwKhNtM5OBPK68BI_GX7VwGPTRGkMRxG9unqlUsHU6Cm_YQzzXy7tJwEMhkb_KUfkoHs8N0mtHZwGZ-8XJIuRZ8i0vq6e2Zu_hoSpEceDwVePhC_8jhEqwCbu0IalnOTMRyZ8QUFcT4igXuvMTYmHOTESBfPlNvyni6s6bWYVfluIn9xvbIRZ8z2Qblx5JHVLOjLdRaKQsvkTcA5p-tYGPd3NwcoQcqo3UXRFUe9-cNuKe2V5pEcGtxsK7okwb4V8BAHuPhP3UZ7Fd0InxWVdNq4BGCtSu6dvzL2FiZQXS0mJ4oqYkEizaJsraciRwCJFLX0iGHj_4P9zZ9lXEuQITSuLgLuTTUNLtTINThkg4RVPEQU5T0UKAEIJkpP-txzroI6GiVU2JSCNpPkWHcBjMXSSDS0lbpapPLM-q6YzuUB-XtaOZQmz4EyTrTSe4cmnqYm3oVucT6p3sVn_Zc2DQZ-nJB46Oxwi8leOxp-fasAtsWziE-cmGvu8rUqqQRrF0x66cONqNn_Wv28n-MZISpx9Z5qweX977Y3Qs1D6-zJGGQ2z0s2lWsZ9ty1]--></g></svg>