<?xml version="1.0" encoding="us-ascii" standalone="no"?><svg xmlns="http://www.w3.org/2000/svg" xmlns:xlink="http://www.w3.org/1999/xlink" contentStyleType="text/css" height="1661px" preserveAspectRatio="none" style="width:1942px;height:1661px;background:#FFFFFF;" version="1.1" viewBox="0 0 1942 1661" width="1942px" zoomAndPan="magnify"><defs/><g><text fill="#000000" font-family="sans-serif" font-size="14" font-weight="bold" lengthAdjust="spacing" textLength="188" x="878.25" y="30.1074">US004 - Sequence Diagram</text><rect fill="#FFFFFF" height="1436.5137" style="stroke:#181818;stroke-width:1.0;" width="10" x="33" y="133.2422"/><rect fill="#FFFFFF" height="281.6191" style="stroke:#181818;stroke-width:1.0;" width="10" x="386" y="156.5332"/><rect fill="#FFFFFF" height="394.4922" style="stroke:#181818;stroke-width:1.0;" width="10" x="386" y="469.4434"/><rect fill="#FFFFFF" height="132.582" style="stroke:#181818;stroke-width:1.0;" width="10" x="386" y="895.2266"/><rect fill="#FFFFFF" height="501.6563" style="stroke:#181818;stroke-width:1.0;" width="10" x="386" y="1059.0996"/><rect fill="#FFFFFF" height="219.0371" style="stroke:#181818;stroke-width:1.0;" width="10" x="750" y="187.8242"/><rect fill="#FFFFFF" height="219.0371" style="stroke:#181818;stroke-width:1.0;" width="10" x="750" y="570.0254"/><rect fill="#FFFFFF" height="439.0742" style="stroke:#181818;stroke-width:1.0;" width="10" x="750" y="1090.3906"/><rect fill="#FFFFFF" height="31.291" style="stroke:#181818;stroke-width:1.0;" width="10" x="882" y="219.1152"/><rect fill="#FFFFFF" height="31.291" style="stroke:#181818;stroke-width:1.0;" width="10" x="882" y="601.3164"/><rect fill="#FFFFFF" height="31.291" style="stroke:#181818;stroke-width:1.0;" width="10" x="882" y="1121.6816"/><rect fill="#FFFFFF" height="31.291" style="stroke:#181818;stroke-width:1.0;" width="10" x="989" y="281.6973"/><rect fill="#FFFFFF" height="31.291" style="stroke:#181818;stroke-width:1.0;" width="10" x="989" y="663.8984"/><rect fill="#FFFFFF" height="31.291" style="stroke:#181818;stroke-width:1.0;" width="10" x="989" y="1184.2637"/><rect fill="#FFFFFF" height="31.291" style="stroke:#181818;stroke-width:1.0;" width="10" x="1102" y="726.4805"/><rect fill="#FFFFFF" height="31.291" style="stroke:#181818;stroke-width:1.0;" width="10" x="1249" y="344.2793"/><rect fill="#FFFFFF" height="251.3281" style="stroke:#181818;stroke-width:1.0;" width="10" x="1249" y="1246.8457"/><rect fill="none" height="124.1641" style="stroke:#000000;stroke-width:1.5;" width="439.5" x="10" y="804.0625"/><line style="stroke:#181818;stroke-width:0.5;stroke-dasharray:5.0,5.0;" x1="38" x2="38" y1="123.2422" y2="1578.7559"/><line style="stroke:#181818;stroke-width:0.5;stroke-dasharray:5.0,5.0;" x1="390.5" x2="390.5" y1="123.2422" y2="1578.7559"/><line style="stroke:#181818;stroke-width:0.5;stroke-dasharray:5.0,5.0;" x1="754.5" x2="754.5" y1="123.2422" y2="1578.7559"/><line style="stroke:#181818;stroke-width:0.5;stroke-dasharray:5.0,5.0;" x1="886.5" x2="886.5" y1="123.2422" y2="1578.7559"/><line style="stroke:#181818;stroke-width:0.5;stroke-dasharray:5.0,5.0;" x1="993.5" x2="993.5" y1="123.2422" y2="1578.7559"/><line style="stroke:#181818;stroke-width:0.5;stroke-dasharray:5.0,5.0;" x1="1106.5" x2="1106.5" y1="123.2422" y2="1578.7559"/><line style="stroke:#181818;stroke-width:0.5;stroke-dasharray:5.0,5.0;" x1="1253.5" x2="1253.5" y1="123.2422" y2="1578.7559"/><line style="stroke:#181818;stroke-width:0.5;stroke-dasharray:5.0,5.0;" x1="1612.5" x2="1612.5" y1="1387.3643" y2="1578.7559"/><text fill="#000000" font-family="sans-serif" font-size="14" lengthAdjust="spacing" textLength="30" x="20" y="119.7285">HRM</text><ellipse cx="38" cy="53.1211" fill="#E3E3E3" rx="8" ry="8" style="stroke:#181818;stroke-width:0.5;"/><path d="M38,61.1211 L38,88.1211 M25,69.1211 L51,69.1211 M38,88.1211 L25,103.1211 M38,88.1211 L51,103.1211 " fill="none" style="stroke:#181818;stroke-width:0.5;"/><text fill="#000000" font-family="sans-serif" font-size="14" lengthAdjust="spacing" textLength="30" x="20" y="1592.8633">HRM</text><ellipse cx="38" cy="1604.877" fill="#E3E3E3" rx="8" ry="8" style="stroke:#181818;stroke-width:0.5;"/><path d="M38,1612.877 L38,1639.877 M25,1620.877 L51,1620.877 M38,1639.877 L25,1654.877 M38,1639.877 L51,1654.877 " fill="none" style="stroke:#181818;stroke-width:0.5;"/><rect fill="#E3E3E3" height="32.6211" rx="2.5" ry="2.5" style="stroke:#181818;stroke-width:0.5;" width="97" x="342.5" y="89.6211"/><text fill="#000000" font-family="sans-serif" font-size="14" lengthAdjust="spacing" textLength="83" x="349.5" y="111.7285">:AssignSkillUI</text><rect fill="#E3E3E3" height="32.6211" rx="2.5" ry="2.5" style="stroke:#181818;stroke-width:0.5;" width="97" x="342.5" y="1577.7559"/><text fill="#000000" font-family="sans-serif" font-size="14" lengthAdjust="spacing" textLength="83" x="349.5" y="1599.8633">:AssignSkillUI</text><rect fill="#E3E3E3" height="32.6211" rx="2.5" ry="2.5" style="stroke:#181818;stroke-width:0.5;" width="147" x="681.5" y="89.6211"/><text fill="#000000" font-family="sans-serif" font-size="14" lengthAdjust="spacing" textLength="133" x="688.5" y="111.7285">:AssignSkillController</text><rect fill="#E3E3E3" height="32.6211" rx="2.5" ry="2.5" style="stroke:#181818;stroke-width:0.5;" width="147" x="681.5" y="1577.7559"/><text fill="#000000" font-family="sans-serif" font-size="14" lengthAdjust="spacing" textLength="133" x="688.5" y="1599.8633">:AssignSkillController</text><rect fill="#E3E3E3" height="32.6211" rx="2.5" ry="2.5" style="stroke:#181818;stroke-width:0.5;" width="97" x="838.5" y="89.6211"/><text fill="#000000" font-family="sans-serif" font-size="14" lengthAdjust="spacing" textLength="83" x="845.5" y="111.7285">:Repositories</text><rect fill="#E3E3E3" height="32.6211" rx="2.5" ry="2.5" style="stroke:#181818;stroke-width:0.5;" width="97" x="838.5" y="1577.7559"/><text fill="#000000" font-family="sans-serif" font-size="14" lengthAdjust="spacing" textLength="83" x="845.5" y="1599.8633">:Repositories</text><rect fill="#E3E3E3" height="51.2422" rx="2.5" ry="2.5" style="stroke:#181818;stroke-width:0.5;" width="97" x="945.5" y="71"/><text fill="#000000" font-family="sans-serif" font-size="14" lengthAdjust="spacing" textLength="74" x="957" y="93.1074">repositories</text><text fill="#000000" font-family="sans-serif" font-size="14" lengthAdjust="spacing" textLength="83" x="952.5" y="111.7285">:Repositories</text><rect fill="#E3E3E3" height="51.2422" rx="2.5" ry="2.5" style="stroke:#181818;stroke-width:0.5;" width="97" x="945.5" y="1577.7559"/><text fill="#000000" font-family="sans-serif" font-size="14" lengthAdjust="spacing" textLength="74" x="957" y="1599.8633">repositories</text><text fill="#000000" font-family="sans-serif" font-size="14" lengthAdjust="spacing" textLength="83" x="952.5" y="1618.4844">:Repositories</text><rect fill="#E3E3E3" height="51.2422" rx="2.5" ry="2.5" style="stroke:#181818;stroke-width:0.5;" width="109" x="1052.5" y="71"/><text fill="#000000" font-family="sans-serif" font-size="14" lengthAdjust="spacing" textLength="95" x="1059.5" y="93.1074">skillRepository:</text><text fill="#000000" font-family="sans-serif" font-size="14" lengthAdjust="spacing" textLength="93" x="1060.5" y="111.7285">SkillRepository</text><rect fill="#E3E3E3" height="51.2422" rx="2.5" ry="2.5" style="stroke:#181818;stroke-width:0.5;" width="109" x="1052.5" y="1577.7559"/><text fill="#000000" font-family="sans-serif" font-size="14" lengthAdjust="spacing" textLength="95" x="1059.5" y="1599.8633">skillRepository:</text><text fill="#000000" font-family="sans-serif" font-size="14" lengthAdjust="spacing" textLength="93" x="1060.5" y="1618.4844">SkillRepository</text><rect fill="#E3E3E3" height="51.2422" rx="2.5" ry="2.5" style="stroke:#181818;stroke-width:0.5;" width="165" x="1171.5" y="71"/><text fill="#000000" font-family="sans-serif" font-size="14" lengthAdjust="spacing" textLength="147" x="1178.5" y="93.1074">:collaboratorRepository</text><text fill="#000000" font-family="sans-serif" font-size="14" lengthAdjust="spacing" textLength="146" x="1181" y="111.7285">CollaboratorRepository</text><rect fill="#E3E3E3" height="51.2422" rx="2.5" ry="2.5" style="stroke:#181818;stroke-width:0.5;" width="165" x="1171.5" y="1577.7559"/><text fill="#000000" font-family="sans-serif" font-size="14" lengthAdjust="spacing" textLength="147" x="1178.5" y="1599.8633">:collaboratorRepository</text><text fill="#000000" font-family="sans-serif" font-size="14" lengthAdjust="spacing" textLength="146" x="1181" y="1618.4844">CollaboratorRepository</text><rect fill="#E3E3E3" height="51.2422" rx="2.5" ry="2.5" style="stroke:#181818;stroke-width:0.5;" width="97" x="1564.5" y="1577.7559"/><text fill="#000000" font-family="sans-serif" font-size="14" lengthAdjust="spacing" textLength="79" x="1571.5" y="1599.8633">:collaborator</text><text fill="#000000" font-family="sans-serif" font-size="14" lengthAdjust="spacing" textLength="78" x="1574" y="1618.4844">Collaborator</text><rect fill="#FFFFFF" height="1436.5137" style="stroke:#181818;stroke-width:1.0;" width="10" x="33" y="133.2422"/><rect fill="#FFFFFF" height="281.6191" style="stroke:#181818;stroke-width:1.0;" width="10" x="386" y="156.5332"/><rect fill="#FFFFFF" height="394.4922" style="stroke:#181818;stroke-width:1.0;" width="10" x="386" y="469.4434"/><rect fill="#FFFFFF" height="132.582" style="stroke:#181818;stroke-width:1.0;" width="10" x="386" y="895.2266"/><rect fill="#FFFFFF" height="501.6563" style="stroke:#181818;stroke-width:1.0;" width="10" x="386" y="1059.0996"/><rect fill="#FFFFFF" height="219.0371" style="stroke:#181818;stroke-width:1.0;" width="10" x="750" y="187.8242"/><rect fill="#FFFFFF" height="219.0371" style="stroke:#181818;stroke-width:1.0;" width="10" x="750" y="570.0254"/><rect fill="#FFFFFF" height="439.0742" style="stroke:#181818;stroke-width:1.0;" width="10" x="750" y="1090.3906"/><rect fill="#FFFFFF" height="31.291" style="stroke:#181818;stroke-width:1.0;" width="10" x="882" y="219.1152"/><rect fill="#FFFFFF" height="31.291" style="stroke:#181818;stroke-width:1.0;" width="10" x="882" y="601.3164"/><rect fill="#FFFFFF" height="31.291" style="stroke:#181818;stroke-width:1.0;" width="10" x="882" y="1121.6816"/><rect fill="#FFFFFF" height="31.291" style="stroke:#181818;stroke-width:1.0;" width="10" x="989" y="281.6973"/><rect fill="#FFFFFF" height="31.291" style="stroke:#181818;stroke-width:1.0;" width="10" x="989" y="663.8984"/><rect fill="#FFFFFF" height="31.291" style="stroke:#181818;stroke-width:1.0;" width="10" x="989" y="1184.2637"/><rect fill="#FFFFFF" height="31.291" style="stroke:#181818;stroke-width:1.0;" width="10" x="1102" y="726.4805"/><rect fill="#FFFFFF" height="31.291" style="stroke:#181818;stroke-width:1.0;" width="10" x="1249" y="344.2793"/><rect fill="#FFFFFF" height="251.3281" style="stroke:#181818;stroke-width:1.0;" width="10" x="1249" y="1246.8457"/><polygon fill="#181818" points="374,152.5332,384,156.5332,374,160.5332,378,156.5332" style="stroke:#181818;stroke-width:1.0;"/><line style="stroke:#181818;stroke-width:1.0;" x1="43" x2="380" y1="156.5332" y2="156.5332"/><text fill="#000000" font-family="sans-serif" font-size="13" font-weight="bold" lengthAdjust="spacing" textLength="7" x="50" y="151.2705">1</text><text fill="#000000" font-family="sans-serif" font-size="13" lengthAdjust="spacing" textLength="291" x="61" y="151.2705">Asks to assign one or more skills to a collaborator</text><polygon fill="#181818" points="738,183.8242,748,187.8242,738,191.8242,742,187.8242" style="stroke:#181818;stroke-width:1.0;"/><line style="stroke:#181818;stroke-width:1.0;" x1="396" x2="744" y1="187.8242" y2="187.8242"/><text fill="#000000" font-family="sans-serif" font-size="13" font-weight="bold" lengthAdjust="spacing" textLength="7" x="403" y="182.5615">2</text><text fill="#000000" font-family="sans-serif" font-size="13" lengthAdjust="spacing" textLength="116" x="414" y="182.5615">getCollaboratorList()</text><polygon fill="#181818" points="870,215.1152,880,219.1152,870,223.1152,874,219.1152" style="stroke:#181818;stroke-width:1.0;"/><line style="stroke:#181818;stroke-width:1.0;" x1="760" x2="876" y1="219.1152" y2="219.1152"/><text fill="#000000" font-family="sans-serif" font-size="13" font-weight="bold" lengthAdjust="spacing" textLength="7" x="767" y="213.8525">3</text><text fill="#000000" font-family="sans-serif" font-size="13" lengthAdjust="spacing" textLength="75" x="778" y="213.8525">getInstance()</text><polygon fill="#181818" points="771,246.4063,761,250.4063,771,254.4063,767,250.4063" style="stroke:#181818;stroke-width:1.0;"/><line style="stroke:#181818;stroke-width:1.0;" x1="765" x2="886" y1="250.4063" y2="250.4063"/><text fill="#000000" font-family="sans-serif" font-size="13" font-weight="bold" lengthAdjust="spacing" textLength="7" x="777" y="245.1436">4</text><text fill="#000000" font-family="sans-serif" font-size="13" lengthAdjust="spacing" textLength="67" x="788" y="245.1436">repositories</text><polygon fill="#181818" points="977,277.6973,987,281.6973,977,285.6973,981,281.6973" style="stroke:#181818;stroke-width:1.0;"/><line style="stroke:#181818;stroke-width:1.0;" x1="760" x2="983" y1="281.6973" y2="281.6973"/><text fill="#000000" font-family="sans-serif" font-size="13" font-weight="bold" lengthAdjust="spacing" textLength="7" x="767" y="276.4346">5</text><text fill="#000000" font-family="sans-serif" font-size="13" lengthAdjust="spacing" textLength="157" x="778" y="276.4346">getCollaboratorRepository()</text><polygon fill="#181818" points="771,308.9883,761,312.9883,771,316.9883,767,312.9883" style="stroke:#181818;stroke-width:1.0;"/><line style="stroke:#181818;stroke-width:1.0;stroke-dasharray:2.0,2.0;" x1="765" x2="993" y1="312.9883" y2="312.9883"/><text fill="#000000" font-family="sans-serif" font-size="13" font-weight="bold" lengthAdjust="spacing" textLength="7" x="777" y="307.7256">6</text><text fill="#000000" font-family="sans-serif" font-size="13" lengthAdjust="spacing" textLength="129" x="788" y="307.7256">collaboratorRepository</text><polygon fill="#181818" points="1237,340.2793,1247,344.2793,1237,348.2793,1241,344.2793" style="stroke:#181818;stroke-width:1.0;"/><line style="stroke:#181818;stroke-width:1.0;" x1="760" x2="1243" y1="344.2793" y2="344.2793"/><text fill="#000000" font-family="sans-serif" font-size="13" font-weight="bold" lengthAdjust="spacing" textLength="7" x="767" y="339.0166">7</text><text fill="#000000" font-family="sans-serif" font-size="13" lengthAdjust="spacing" textLength="116" x="778" y="339.0166">getCollaboratorList()</text><polygon fill="#181818" points="771,371.5703,761,375.5703,771,379.5703,767,375.5703" style="stroke:#181818;stroke-width:1.0;"/><line style="stroke:#181818;stroke-width:1.0;stroke-dasharray:2.0,2.0;" x1="765" x2="1253" y1="375.5703" y2="375.5703"/><text fill="#000000" font-family="sans-serif" font-size="13" font-weight="bold" lengthAdjust="spacing" textLength="7" x="777" y="370.3076">8</text><text fill="#000000" font-family="sans-serif" font-size="13" lengthAdjust="spacing" textLength="88" x="788" y="370.3076">collaboratorList</text><polygon fill="#181818" points="407,402.8613,397,406.8613,407,410.8613,403,406.8613" style="stroke:#181818;stroke-width:1.0;"/><line style="stroke:#181818;stroke-width:1.0;" x1="401" x2="754" y1="406.8613" y2="406.8613"/><text fill="#000000" font-family="sans-serif" font-size="13" font-weight="bold" lengthAdjust="spacing" textLength="7" x="413" y="401.5986">9</text><text fill="#000000" font-family="sans-serif" font-size="13" lengthAdjust="spacing" textLength="88" x="424" y="401.5986">collaboratorList</text><polygon fill="#181818" points="54,434.1523,44,438.1523,54,442.1523,50,438.1523" style="stroke:#181818;stroke-width:1.0;"/><line style="stroke:#181818;stroke-width:1.0;stroke-dasharray:2.0,2.0;" x1="48" x2="390" y1="438.1523" y2="438.1523"/><text fill="#000000" font-family="sans-serif" font-size="13" font-weight="bold" lengthAdjust="spacing" textLength="14" x="60" y="432.8896">10</text><text fill="#000000" font-family="sans-serif" font-size="13" lengthAdjust="spacing" textLength="301" x="78" y="432.8896">Shows a list of Collaborators and asks to select one</text><polygon fill="#181818" points="374,465.4434,384,469.4434,374,473.4434,378,469.4434" style="stroke:#181818;stroke-width:1.0;"/><line style="stroke:#181818;stroke-width:1.0;" x1="43" x2="380" y1="469.4434" y2="469.4434"/><text fill="#000000" font-family="sans-serif" font-size="13" font-weight="bold" lengthAdjust="spacing" textLength="14" x="50" y="464.1807">11</text><text fill="#000000" font-family="sans-serif" font-size="13" lengthAdjust="spacing" textLength="126" x="68" y="464.1807">Selects a collaborator</text><line style="stroke:#181818;stroke-width:1.0;stroke-dasharray:2.0,2.0;" x1="396" x2="438" y1="500.7344" y2="500.7344"/><line style="stroke:#181818;stroke-width:1.0;stroke-dasharray:2.0,2.0;" x1="438" x2="438" y1="500.7344" y2="513.7344"/><line style="stroke:#181818;stroke-width:1.0;stroke-dasharray:2.0,2.0;" x1="397" x2="438" y1="513.7344" y2="513.7344"/><polygon fill="#181818" points="407,509.7344,397,513.7344,407,517.7344,403,513.7344" style="stroke:#181818;stroke-width:1.0;"/><text fill="#000000" font-family="sans-serif" font-size="13" font-weight="bold" lengthAdjust="spacing" textLength="14" x="403" y="495.4717">12</text><text fill="#000000" font-family="sans-serif" font-size="13" lengthAdjust="spacing" textLength="137" x="421" y="495.4717">keepsData(collaborator)</text><polygon fill="#181818" points="738,566.0254,748,570.0254,738,574.0254,742,570.0254" style="stroke:#181818;stroke-width:1.0;"/><line style="stroke:#181818;stroke-width:1.0;" x1="396" x2="744" y1="570.0254" y2="570.0254"/><text fill="#000000" font-family="sans-serif" font-size="13" font-weight="bold" lengthAdjust="spacing" textLength="14" x="403" y="564.7627">13</text><text fill="#000000" font-family="sans-serif" font-size="13" lengthAdjust="spacing" textLength="72" x="421" y="564.7627">getSkillList()</text><polygon fill="#181818" points="870,597.3164,880,601.3164,870,605.3164,874,601.3164" style="stroke:#181818;stroke-width:1.0;"/><line style="stroke:#181818;stroke-width:1.0;" x1="760" x2="876" y1="601.3164" y2="601.3164"/><text fill="#000000" font-family="sans-serif" font-size="13" font-weight="bold" lengthAdjust="spacing" textLength="14" x="767" y="596.0537">14</text><text fill="#000000" font-family="sans-serif" font-size="13" lengthAdjust="spacing" textLength="75" x="785" y="596.0537">getInstance()</text><polygon fill="#181818" points="771,628.6074,761,632.6074,771,636.6074,767,632.6074" style="stroke:#181818;stroke-width:1.0;"/><line style="stroke:#181818;stroke-width:1.0;" x1="765" x2="886" y1="632.6074" y2="632.6074"/><text fill="#000000" font-family="sans-serif" font-size="13" font-weight="bold" lengthAdjust="spacing" textLength="14" x="777" y="627.3447">15</text><text fill="#000000" font-family="sans-serif" font-size="13" lengthAdjust="spacing" textLength="67" x="795" y="627.3447">repositories</text><polygon fill="#181818" points="977,659.8984,987,663.8984,977,667.8984,981,663.8984" style="stroke:#181818;stroke-width:1.0;"/><line style="stroke:#181818;stroke-width:1.0;" x1="760" x2="983" y1="663.8984" y2="663.8984"/><text fill="#000000" font-family="sans-serif" font-size="13" font-weight="bold" lengthAdjust="spacing" textLength="14" x="767" y="658.6357">16</text><text fill="#000000" font-family="sans-serif" font-size="13" lengthAdjust="spacing" textLength="113" x="785" y="658.6357">getSkillRepository()</text><polygon fill="#181818" points="771,691.1895,761,695.1895,771,699.1895,767,695.1895" style="stroke:#181818;stroke-width:1.0;"/><line style="stroke:#181818;stroke-width:1.0;stroke-dasharray:2.0,2.0;" x1="765" x2="993" y1="695.1895" y2="695.1895"/><text fill="#000000" font-family="sans-serif" font-size="13" font-weight="bold" lengthAdjust="spacing" textLength="14" x="777" y="689.9268">17</text><text fill="#000000" font-family="sans-serif" font-size="13" lengthAdjust="spacing" textLength="85" x="795" y="689.9268">skillRepository</text><polygon fill="#181818" points="1090,722.4805,1100,726.4805,1090,730.4805,1094,726.4805" style="stroke:#181818;stroke-width:1.0;"/><line style="stroke:#181818;stroke-width:1.0;" x1="760" x2="1096" y1="726.4805" y2="726.4805"/><text fill="#000000" font-family="sans-serif" font-size="13" font-weight="bold" lengthAdjust="spacing" textLength="14" x="767" y="721.2178">18</text><text fill="#000000" font-family="sans-serif" font-size="13" lengthAdjust="spacing" textLength="72" x="785" y="721.2178">getSkillList()</text><polygon fill="#181818" points="771,753.7715,761,757.7715,771,761.7715,767,757.7715" style="stroke:#181818;stroke-width:1.0;"/><line style="stroke:#181818;stroke-width:1.0;stroke-dasharray:2.0,2.0;" x1="765" x2="1106" y1="757.7715" y2="757.7715"/><text fill="#000000" font-family="sans-serif" font-size="13" font-weight="bold" lengthAdjust="spacing" textLength="14" x="777" y="752.5088">19</text><text fill="#000000" font-family="sans-serif" font-size="13" lengthAdjust="spacing" textLength="44" x="795" y="752.5088">skillList</text><polygon fill="#181818" points="407,785.0625,397,789.0625,407,793.0625,403,789.0625" style="stroke:#181818;stroke-width:1.0;"/><line style="stroke:#181818;stroke-width:1.0;" x1="401" x2="754" y1="789.0625" y2="789.0625"/><text fill="#000000" font-family="sans-serif" font-size="13" font-weight="bold" lengthAdjust="spacing" textLength="14" x="413" y="783.7998">20</text><text fill="#000000" font-family="sans-serif" font-size="13" lengthAdjust="spacing" textLength="44" x="431" y="783.7998">skillList</text><path d="M10,804.0625 L83,804.0625 L83,813.3535 L73,823.3535 L10,823.3535 L10,804.0625 " fill="#EEEEEE" style="stroke:#000000;stroke-width:1.5;"/><rect fill="none" height="124.1641" style="stroke:#000000;stroke-width:1.5;" width="439.5" x="10" y="804.0625"/><text fill="#000000" font-family="sans-serif" font-size="13" font-weight="bold" lengthAdjust="spacing" textLength="28" x="25" y="819.0908">loop</text><text fill="#000000" font-family="sans-serif" font-size="11" font-weight="bold" lengthAdjust="spacing" textLength="189" x="98" y="817.9326">[while doesn't choose to advance]</text><polygon fill="#181818" points="54,859.9355,44,863.9355,54,867.9355,50,863.9355" style="stroke:#181818;stroke-width:1.0;"/><line style="stroke:#181818;stroke-width:1.0;stroke-dasharray:2.0,2.0;" x1="48" x2="390" y1="863.9355" y2="863.9355"/><text fill="#000000" font-family="sans-serif" font-size="13" font-weight="bold" lengthAdjust="spacing" textLength="14" x="60" y="850.0273">21</text><text fill="#000000" font-family="sans-serif" font-size="13" lengthAdjust="spacing" textLength="255" x="78" y="841.3818">Displays a list of available skills and asks to</text><text fill="#000000" font-family="sans-serif" font-size="13" lengthAdjust="spacing" textLength="64" x="78" y="858.6729">select one.</text><polygon fill="#181818" points="374,891.2266,384,895.2266,374,899.2266,378,895.2266" style="stroke:#181818;stroke-width:1.0;"/><line style="stroke:#181818;stroke-width:1.0;" x1="43" x2="380" y1="895.2266" y2="895.2266"/><text fill="#000000" font-family="sans-serif" font-size="13" font-weight="bold" lengthAdjust="spacing" textLength="14" x="50" y="889.9639">22</text><text fill="#000000" font-family="sans-serif" font-size="13" lengthAdjust="spacing" textLength="82" x="68" y="889.9639">Selects a skill</text><line style="stroke:#181818;stroke-width:1.0;stroke-dasharray:2.0,2.0;" x1="396" x2="438" y1="983.5176" y2="983.5176"/><line style="stroke:#181818;stroke-width:1.0;stroke-dasharray:2.0,2.0;" x1="438" x2="438" y1="983.5176" y2="996.5176"/><line style="stroke:#181818;stroke-width:1.0;stroke-dasharray:2.0,2.0;" x1="397" x2="438" y1="996.5176" y2="996.5176"/><polygon fill="#181818" points="407,992.5176,397,996.5176,407,1000.5176,403,996.5176" style="stroke:#181818;stroke-width:1.0;"/><text fill="#000000" font-family="sans-serif" font-size="13" font-weight="bold" lengthAdjust="spacing" textLength="14" x="403" y="978.2549">23</text><text fill="#000000" font-family="sans-serif" font-size="13" lengthAdjust="spacing" textLength="210" x="421" y="978.2549">keepData(List&lt;Skill&gt; selectedSkills)</text><polygon fill="#181818" points="54,1023.8086,44,1027.8086,54,1031.8086,50,1027.8086" style="stroke:#181818;stroke-width:1.0;"/><line style="stroke:#181818;stroke-width:1.0;stroke-dasharray:2.0,2.0;" x1="48" x2="390" y1="1027.8086" y2="1027.8086"/><text fill="#000000" font-family="sans-serif" font-size="13" font-weight="bold" lengthAdjust="spacing" textLength="14" x="60" y="1022.5459">24</text><text fill="#000000" font-family="sans-serif" font-size="13" lengthAdjust="spacing" textLength="238" x="78" y="1022.5459">Shows all data and requests confirmation</text><polygon fill="#181818" points="374,1055.0996,384,1059.0996,374,1063.0996,378,1059.0996" style="stroke:#181818;stroke-width:1.0;"/><line style="stroke:#181818;stroke-width:1.0;" x1="43" x2="380" y1="1059.0996" y2="1059.0996"/><text fill="#000000" font-family="sans-serif" font-size="13" font-weight="bold" lengthAdjust="spacing" textLength="14" x="50" y="1053.8369">25</text><text fill="#000000" font-family="sans-serif" font-size="13" lengthAdjust="spacing" textLength="130" x="68" y="1053.8369">Confirms the operation</text><polygon fill="#181818" points="738,1086.3906,748,1090.3906,738,1094.3906,742,1090.3906" style="stroke:#181818;stroke-width:1.0;"/><line style="stroke:#181818;stroke-width:1.0;" x1="396" x2="744" y1="1090.3906" y2="1090.3906"/><text fill="#000000" font-family="sans-serif" font-size="13" font-weight="bold" lengthAdjust="spacing" textLength="14" x="403" y="1085.1279">26</text><text fill="#000000" font-family="sans-serif" font-size="13" lengthAdjust="spacing" textLength="317" x="421" y="1085.1279">assignSkillsToCollaborator(collaborator, selectedSkills)</text><polygon fill="#181818" points="870,1117.6816,880,1121.6816,870,1125.6816,874,1121.6816" style="stroke:#181818;stroke-width:1.0;"/><line style="stroke:#181818;stroke-width:1.0;" x1="760" x2="876" y1="1121.6816" y2="1121.6816"/><text fill="#000000" font-family="sans-serif" font-size="13" font-weight="bold" lengthAdjust="spacing" textLength="14" x="767" y="1116.4189">27</text><text fill="#000000" font-family="sans-serif" font-size="13" lengthAdjust="spacing" textLength="75" x="785" y="1116.4189">getInstance()</text><polygon fill="#181818" points="771,1148.9727,761,1152.9727,771,1156.9727,767,1152.9727" style="stroke:#181818;stroke-width:1.0;"/><line style="stroke:#181818;stroke-width:1.0;" x1="765" x2="886" y1="1152.9727" y2="1152.9727"/><text fill="#000000" font-family="sans-serif" font-size="13" font-weight="bold" lengthAdjust="spacing" textLength="14" x="777" y="1147.71">28</text><text fill="#000000" font-family="sans-serif" font-size="13" lengthAdjust="spacing" textLength="67" x="795" y="1147.71">repositories</text><polygon fill="#181818" points="977,1180.2637,987,1184.2637,977,1188.2637,981,1184.2637" style="stroke:#181818;stroke-width:1.0;"/><line style="stroke:#181818;stroke-width:1.0;" x1="760" x2="983" y1="1184.2637" y2="1184.2637"/><text fill="#000000" font-family="sans-serif" font-size="13" font-weight="bold" lengthAdjust="spacing" textLength="14" x="767" y="1179.001">29</text><text fill="#000000" font-family="sans-serif" font-size="13" lengthAdjust="spacing" textLength="157" x="785" y="1179.001">getCollaboratorRepository()</text><polygon fill="#181818" points="771,1211.5547,761,1215.5547,771,1219.5547,767,1215.5547" style="stroke:#181818;stroke-width:1.0;"/><line style="stroke:#181818;stroke-width:1.0;stroke-dasharray:2.0,2.0;" x1="765" x2="993" y1="1215.5547" y2="1215.5547"/><text fill="#000000" font-family="sans-serif" font-size="13" font-weight="bold" lengthAdjust="spacing" textLength="14" x="777" y="1210.292">30</text><text fill="#000000" font-family="sans-serif" font-size="13" lengthAdjust="spacing" textLength="129" x="795" y="1210.292">collaboratorRepository</text><polygon fill="#181818" points="1237,1242.8457,1247,1246.8457,1237,1250.8457,1241,1246.8457" style="stroke:#181818;stroke-width:1.0;"/><line style="stroke:#181818;stroke-width:1.0;" x1="760" x2="1243" y1="1246.8457" y2="1246.8457"/><text fill="#000000" font-family="sans-serif" font-size="13" font-weight="bold" lengthAdjust="spacing" textLength="14" x="767" y="1241.583">31</text><text fill="#000000" font-family="sans-serif" font-size="13" lengthAdjust="spacing" textLength="317" x="785" y="1241.583">assignSkillsToCollaborator(collaborator, selectedSkills)</text><line style="stroke:#181818;stroke-width:1.0;" x1="1259" x2="1301" y1="1278.1367" y2="1278.1367"/><line style="stroke:#181818;stroke-width:1.0;" x1="1301" x2="1301" y1="1278.1367" y2="1291.1367"/><line style="stroke:#181818;stroke-width:1.0;" x1="1260" x2="1301" y1="1291.1367" y2="1291.1367"/><polygon fill="#181818" points="1270,1287.1367,1260,1291.1367,1270,1295.1367,1266,1291.1367" style="stroke:#181818;stroke-width:1.0;"/><text fill="#000000" font-family="sans-serif" font-size="13" font-weight="bold" lengthAdjust="spacing" textLength="14" x="1266" y="1272.874">32</text><text fill="#000000" font-family="sans-serif" font-size="13" lengthAdjust="spacing" textLength="313" x="1284" y="1272.874">getCollaboratorByCollaboratorEmail(collaboratorEmail)</text><polygon fill="#181818" points="1552.5,1343.4277,1562.5,1347.4277,1552.5,1351.4277,1556.5,1347.4277" style="stroke:#181818;stroke-width:1.0;"/><line style="stroke:#181818;stroke-width:1.0;" x1="1259" x2="1558.5" y1="1347.4277" y2="1347.4277"/><text fill="#000000" font-family="sans-serif" font-size="13" font-weight="bold" lengthAdjust="spacing" textLength="14" x="1266" y="1342.165">33</text><text fill="#000000" font-family="sans-serif" font-size="13" lengthAdjust="spacing" textLength="159" x="1284" y="1342.165">assignSkills(selectedSkills)</text><rect fill="#E3E3E3" height="51.2422" rx="2.5" ry="2.5" style="stroke:#181818;stroke-width:0.5;" width="97" x="1564.5" y="1346.2432"/><text fill="#000000" font-family="sans-serif" font-size="14" lengthAdjust="spacing" textLength="79" x="1571.5" y="1368.3506">:collaborator</text><text fill="#000000" font-family="sans-serif" font-size="14" lengthAdjust="spacing" textLength="78" x="1574" y="1386.9717">Collaborator</text><path d="M1666.5,1329.1367 L1666.5,1425.1367 L1935.5,1425.1367 L1935.5,1339.1367 L1925.5,1329.1367 L1666.5,1329.1367 " fill="#FAFAFA" style="stroke:#181818;stroke-width:0.5;"/><path d="M1925.5,1329.1367 L1925.5,1339.1367 L1935.5,1339.1367 L1925.5,1329.1367 " fill="#FAFAFA" style="stroke:#181818;stroke-width:0.5;"/><text fill="#000000" font-family="sans-serif" font-size="13" font-weight="bold" lengthAdjust="spacing" textLength="248" x="1672.5" y="1348.165">Adding skills to the object collaborator:</text><text fill="#000000" font-family="sans-serif" font-size="13" lengthAdjust="spacing" textLength="4" x="1672.5" y="1365.4561">&#160;</text><text fill="#000000" font-family="sans-serif" font-size="13" lengthAdjust="spacing" textLength="237" x="1672.5" y="1382.7471">assignSkills(List&lt;Skill&gt; selectedSkills)) {</text><text fill="#000000" font-family="sans-serif" font-size="13" lengthAdjust="spacing" textLength="173" x="1688.5" y="1400.0381">skillList.addAll(selectedSkills)</text><text fill="#000000" font-family="sans-serif" font-size="13" lengthAdjust="spacing" textLength="4" x="1672.5" y="1417.3291">}</text><line style="stroke:#181818;stroke-width:1.0;" x1="1259" x2="1301" y1="1453.8828" y2="1453.8828"/><line style="stroke:#181818;stroke-width:1.0;" x1="1301" x2="1301" y1="1453.8828" y2="1466.8828"/><line style="stroke:#181818;stroke-width:1.0;" x1="1260" x2="1301" y1="1466.8828" y2="1466.8828"/><polygon fill="#181818" points="1270,1462.8828,1260,1466.8828,1270,1470.8828,1266,1466.8828" style="stroke:#181818;stroke-width:1.0;"/><text fill="#000000" font-family="sans-serif" font-size="13" font-weight="bold" lengthAdjust="spacing" textLength="14" x="1266" y="1448.6201">34</text><text fill="#000000" font-family="sans-serif" font-size="13" lengthAdjust="spacing" textLength="317" x="1284" y="1448.6201">assignSkillsToCollaborator(collaborator, selectedSkills)</text><polygon fill="#181818" points="771,1494.1738,761,1498.1738,771,1502.1738,767,1498.1738" style="stroke:#181818;stroke-width:1.0;"/><line style="stroke:#181818;stroke-width:1.0;stroke-dasharray:2.0,2.0;" x1="765" x2="1253" y1="1498.1738" y2="1498.1738"/><text fill="#000000" font-family="sans-serif" font-size="13" font-weight="bold" lengthAdjust="spacing" textLength="14" x="777" y="1492.9111">35</text><text fill="#000000" font-family="sans-serif" font-size="13" lengthAdjust="spacing" textLength="106" x="795" y="1492.9111">operation success</text><polygon fill="#181818" points="407,1525.4648,397,1529.4648,407,1533.4648,403,1529.4648" style="stroke:#181818;stroke-width:1.0;"/><line style="stroke:#181818;stroke-width:1.0;stroke-dasharray:2.0,2.0;" x1="401" x2="754" y1="1529.4648" y2="1529.4648"/><text fill="#000000" font-family="sans-serif" font-size="13" font-weight="bold" lengthAdjust="spacing" textLength="14" x="413" y="1524.2021">36</text><text fill="#000000" font-family="sans-serif" font-size="13" lengthAdjust="spacing" textLength="53" x="431" y="1524.2021">operation</text><polygon fill="#181818" points="54,1556.7559,44,1560.7559,54,1564.7559,50,1560.7559" style="stroke:#181818;stroke-width:1.0;"/><line style="stroke:#181818;stroke-width:1.0;stroke-dasharray:2.0,2.0;" x1="48" x2="390" y1="1560.7559" y2="1560.7559"/><text fill="#000000" font-family="sans-serif" font-size="13" font-weight="bold" lengthAdjust="spacing" textLength="14" x="60" y="1555.4932">37</text><text fill="#000000" font-family="sans-serif" font-size="13" lengthAdjust="spacing" textLength="153" x="78" y="1555.4932">Display operation success</text><!--SRC=[xLTDRnen4BtlhnZbqX0rKGuzeHI9aaYDb7u8cXiNi-k0Yx6tjac4clxtZhrXr_PwjvIej-u5i6VUlh7dFHkzPg8aYcnW8uNCLqfkA1YrfPckPqgIhycIpioEKr0qDqGikH-WLwIGJqmiuO5mJRFCC8EXzxFBotTm3ZFwOqj5Jk6QaIN6PndP6YcscmLL-3qtKi79n-cd4o0Qy3D3LCDoLX9Xu6GurfejnMpDEB-_TJ7tjzqX4ocCafnJvK8dtwPtKV2Kbb8pV2cZsiNK0xiPivKXjp15UHbpqGR0-J11MoODx71USMj6N5eq5j7CiGYoa8hWN1C4Sp59JbJLVhcRtdpj0OhIzqbk5zWZCTIjVmRuu1Su7-5Qmn36Ugt1I8oswmnIK42iZLGKNAdL9FXlga1gMDmoDs0VX4HWkpC8lQJ6PtJ7j3aTDB4rWDl8UjW-3W214jjNuTuAZQsQKnylm4njV11fdnHyGzzlZI2re8U_Pby9WhLNfCd6Ef9bsFPhqRPOvmtFT3TrCRQ8AO9LV_rvryATgveo1Ao0EWXQk2vgUxGaFzUidKW-YkqclnynsJRy46Oh-QInbpbcWdm0lqmS5mMAe1A3fXozq8gX8kF1xxlTrz3CXUjO9YsLP1ubbxYcjDJNn91JF_5bjP-Vdxk5vGpclwBgfGYaTBoM8dVl4r6ILCIbPwy2Ql5nqQ8PuyQK-sJL2nx8gmqLwwgUu5AMyBHYU1Se9DNYZO5y9QMcxhWe7cqhXMyAf7ZDTCd9pbSZUIGC9S3hSySNv5mqahpeacItB1rY7LCBAub0HH54HlnhtJhPsiMwSWiyUZ4DMhYVUf3rcX3dK220ArBPIvH6ehaK3qnjY67Oz0VupgIAnnLQuQbTKjLajdsdvIAakLdfRz8tmy2DtdONzY_yvZZVUQN_7ED3hplX3tEduq_y0qx-pXl0wnlZuCj2V6deleTysFc_RZPe5W4RDpB8ql31KThvthEpgFZJkC04mcTfbvOjLoOrU_M0_rdiVadrVi7npzReQZ4Q5uNzGzLShvry5z-jl_ab3PES0u8z_ZE0drtzLFly1IcACUU7rFahDOXU2G8NuE1DFRgr-l0ROTGU27gRvrItLTw-RgRbiBVOq5MxaFmhPzzvztS4hNN_1W00]--></g></svg>