<?xml version="1.0" encoding="us-ascii" standalone="no"?><svg xmlns="http://www.w3.org/2000/svg" xmlns:xlink="http://www.w3.org/1999/xlink" contentStyleType="text/css" height="1745px" preserveAspectRatio="none" style="width:1942px;height:1745px;background:#FFFFFF;" version="1.1" viewBox="0 0 1942 1745" width="1942px" zoomAndPan="magnify"><defs/><g><text fill="#000000" font-family="sans-serif" font-size="14" font-weight="bold" lengthAdjust="spacing" textLength="188" x="878.25" y="30.1074">US004 - Sequence Diagram</text><rect fill="#FFFFFF" height="1519.8047" style="stroke:#181818;stroke-width:1.0;" width="10" x="33" y="133.2422"/><rect fill="#FFFFFF" height="307.9102" style="stroke:#181818;stroke-width:1.0;" width="10" x="386" y="156.5332"/><rect fill="#FFFFFF" height="451.4922" style="stroke:#181818;stroke-width:1.0;" width="10" x="386" y="495.7344"/><rect fill="#FFFFFF" height="132.582" style="stroke:#181818;stroke-width:1.0;" width="10" x="386" y="978.5176"/><rect fill="#FFFFFF" height="501.6563" style="stroke:#181818;stroke-width:1.0;" width="10" x="386" y="1142.3906"/><rect fill="#FFFFFF" height="219.0371" style="stroke:#181818;stroke-width:1.0;" width="10" x="750" y="187.8242"/><rect fill="#FFFFFF" height="219.0371" style="stroke:#181818;stroke-width:1.0;" width="10" x="750" y="653.3164"/><rect fill="#FFFFFF" height="439.0742" style="stroke:#181818;stroke-width:1.0;" width="10" x="750" y="1173.6816"/><rect fill="#FFFFFF" height="31.291" style="stroke:#181818;stroke-width:1.0;" width="10" x="882" y="219.1152"/><rect fill="#FFFFFF" height="31.291" style="stroke:#181818;stroke-width:1.0;" width="10" x="882" y="684.6074"/><rect fill="#FFFFFF" height="31.291" style="stroke:#181818;stroke-width:1.0;" width="10" x="882" y="1204.9727"/><rect fill="#FFFFFF" height="31.291" style="stroke:#181818;stroke-width:1.0;" width="10" x="989" y="281.6973"/><rect fill="#FFFFFF" height="31.291" style="stroke:#181818;stroke-width:1.0;" width="10" x="989" y="747.1895"/><rect fill="#FFFFFF" height="31.291" style="stroke:#181818;stroke-width:1.0;" width="10" x="989" y="1267.5547"/><rect fill="#FFFFFF" height="31.291" style="stroke:#181818;stroke-width:1.0;" width="10" x="1102" y="809.7715"/><rect fill="#FFFFFF" height="31.291" style="stroke:#181818;stroke-width:1.0;" width="10" x="1249" y="344.2793"/><rect fill="#FFFFFF" height="251.3281" style="stroke:#181818;stroke-width:1.0;" width="10" x="1249" y="1330.1367"/><rect fill="none" height="106.873" style="stroke:#000000;stroke-width:1.5;" width="439.5" x="10" y="421.8613"/><rect fill="none" height="124.1641" style="stroke:#000000;stroke-width:1.5;" width="439.5" x="10" y="887.3535"/><line style="stroke:#181818;stroke-width:0.5;stroke-dasharray:5.0,5.0;" x1="38" x2="38" y1="123.2422" y2="1662.0469"/><line style="stroke:#181818;stroke-width:0.5;stroke-dasharray:5.0,5.0;" x1="390.5" x2="390.5" y1="123.2422" y2="1662.0469"/><line style="stroke:#181818;stroke-width:0.5;stroke-dasharray:5.0,5.0;" x1="754.5" x2="754.5" y1="123.2422" y2="1662.0469"/><line style="stroke:#181818;stroke-width:0.5;stroke-dasharray:5.0,5.0;" x1="886.5" x2="886.5" y1="123.2422" y2="1662.0469"/><line style="stroke:#181818;stroke-width:0.5;stroke-dasharray:5.0,5.0;" x1="993.5" x2="993.5" y1="123.2422" y2="1662.0469"/><line style="stroke:#181818;stroke-width:0.5;stroke-dasharray:5.0,5.0;" x1="1106.5" x2="1106.5" y1="123.2422" y2="1662.0469"/><line style="stroke:#181818;stroke-width:0.5;stroke-dasharray:5.0,5.0;" x1="1253.5" x2="1253.5" y1="123.2422" y2="1662.0469"/><line style="stroke:#181818;stroke-width:0.5;stroke-dasharray:5.0,5.0;" x1="1612.5" x2="1612.5" y1="1470.6553" y2="1662.0469"/><text fill="#000000" font-family="sans-serif" font-size="14" lengthAdjust="spacing" textLength="30" x="20" y="119.7285">HRM</text><ellipse cx="38" cy="53.1211" fill="#E3E3E3" rx="8" ry="8" style="stroke:#181818;stroke-width:0.5;"/><path d="M38,61.1211 L38,88.1211 M25,69.1211 L51,69.1211 M38,88.1211 L25,103.1211 M38,88.1211 L51,103.1211 " fill="none" style="stroke:#181818;stroke-width:0.5;"/><text fill="#000000" font-family="sans-serif" font-size="14" lengthAdjust="spacing" textLength="30" x="20" y="1676.1543">HRM</text><ellipse cx="38" cy="1688.168" fill="#E3E3E3" rx="8" ry="8" style="stroke:#181818;stroke-width:0.5;"/><path d="M38,1696.168 L38,1723.168 M25,1704.168 L51,1704.168 M38,1723.168 L25,1738.168 M38,1723.168 L51,1738.168 " fill="none" style="stroke:#181818;stroke-width:0.5;"/><rect fill="#E3E3E3" height="32.6211" rx="2.5" ry="2.5" style="stroke:#181818;stroke-width:0.5;" width="97" x="342.5" y="89.6211"/><text fill="#000000" font-family="sans-serif" font-size="14" lengthAdjust="spacing" textLength="83" x="349.5" y="111.7285">:AssignSkillUI</text><rect fill="#E3E3E3" height="32.6211" rx="2.5" ry="2.5" style="stroke:#181818;stroke-width:0.5;" width="97" x="342.5" y="1661.0469"/><text fill="#000000" font-family="sans-serif" font-size="14" lengthAdjust="spacing" textLength="83" x="349.5" y="1683.1543">:AssignSkillUI</text><rect fill="#E3E3E3" height="32.6211" rx="2.5" ry="2.5" style="stroke:#181818;stroke-width:0.5;" width="147" x="681.5" y="89.6211"/><text fill="#000000" font-family="sans-serif" font-size="14" lengthAdjust="spacing" textLength="133" x="688.5" y="111.7285">:AssignSkillController</text><rect fill="#E3E3E3" height="32.6211" rx="2.5" ry="2.5" style="stroke:#181818;stroke-width:0.5;" width="147" x="681.5" y="1661.0469"/><text fill="#000000" font-family="sans-serif" font-size="14" lengthAdjust="spacing" textLength="133" x="688.5" y="1683.1543">:AssignSkillController</text><rect fill="#E3E3E3" height="32.6211" rx="2.5" ry="2.5" style="stroke:#181818;stroke-width:0.5;" width="97" x="838.5" y="89.6211"/><text fill="#000000" font-family="sans-serif" font-size="14" lengthAdjust="spacing" textLength="83" x="845.5" y="111.7285">:Repositories</text><rect fill="#E3E3E3" height="32.6211" rx="2.5" ry="2.5" style="stroke:#181818;stroke-width:0.5;" width="97" x="838.5" y="1661.0469"/><text fill="#000000" font-family="sans-serif" font-size="14" lengthAdjust="spacing" textLength="83" x="845.5" y="1683.1543">:Repositories</text><rect fill="#E3E3E3" height="51.2422" rx="2.5" ry="2.5" style="stroke:#181818;stroke-width:0.5;" width="97" x="945.5" y="71"/><text fill="#000000" font-family="sans-serif" font-size="14" lengthAdjust="spacing" textLength="74" x="957" y="93.1074">repositories</text><text fill="#000000" font-family="sans-serif" font-size="14" lengthAdjust="spacing" textLength="83" x="952.5" y="111.7285">:Repositories</text><rect fill="#E3E3E3" height="51.2422" rx="2.5" ry="2.5" style="stroke:#181818;stroke-width:0.5;" width="97" x="945.5" y="1661.0469"/><text fill="#000000" font-family="sans-serif" font-size="14" lengthAdjust="spacing" textLength="74" x="957" y="1683.1543">repositories</text><text fill="#000000" font-family="sans-serif" font-size="14" lengthAdjust="spacing" textLength="83" x="952.5" y="1701.7754">:Repositories</text><rect fill="#E3E3E3" height="51.2422" rx="2.5" ry="2.5" style="stroke:#181818;stroke-width:0.5;" width="109" x="1052.5" y="71"/><text fill="#000000" font-family="sans-serif" font-size="14" lengthAdjust="spacing" textLength="95" x="1059.5" y="93.1074">skillRepository:</text><text fill="#000000" font-family="sans-serif" font-size="14" lengthAdjust="spacing" textLength="93" x="1060.5" y="111.7285">SkillRepository</text><rect fill="#E3E3E3" height="51.2422" rx="2.5" ry="2.5" style="stroke:#181818;stroke-width:0.5;" width="109" x="1052.5" y="1661.0469"/><text fill="#000000" font-family="sans-serif" font-size="14" lengthAdjust="spacing" textLength="95" x="1059.5" y="1683.1543">skillRepository:</text><text fill="#000000" font-family="sans-serif" font-size="14" lengthAdjust="spacing" textLength="93" x="1060.5" y="1701.7754">SkillRepository</text><rect fill="#E3E3E3" height="51.2422" rx="2.5" ry="2.5" style="stroke:#181818;stroke-width:0.5;" width="165" x="1171.5" y="71"/><text fill="#000000" font-family="sans-serif" font-size="14" lengthAdjust="spacing" textLength="147" x="1178.5" y="93.1074">:collaboratorRepository</text><text fill="#000000" font-family="sans-serif" font-size="14" lengthAdjust="spacing" textLength="146" x="1181" y="111.7285">CollaboratorRepository</text><rect fill="#E3E3E3" height="51.2422" rx="2.5" ry="2.5" style="stroke:#181818;stroke-width:0.5;" width="165" x="1171.5" y="1661.0469"/><text fill="#000000" font-family="sans-serif" font-size="14" lengthAdjust="spacing" textLength="147" x="1178.5" y="1683.1543">:collaboratorRepository</text><text fill="#000000" font-family="sans-serif" font-size="14" lengthAdjust="spacing" textLength="146" x="1181" y="1701.7754">CollaboratorRepository</text><rect fill="#E3E3E3" height="51.2422" rx="2.5" ry="2.5" style="stroke:#181818;stroke-width:0.5;" width="97" x="1564.5" y="1661.0469"/><text fill="#000000" font-family="sans-serif" font-size="14" lengthAdjust="spacing" textLength="79" x="1571.5" y="1683.1543">:collaborator</text><text fill="#000000" font-family="sans-serif" font-size="14" lengthAdjust="spacing" textLength="78" x="1574" y="1701.7754">Collaborator</text><rect fill="#FFFFFF" height="1519.8047" style="stroke:#181818;stroke-width:1.0;" width="10" x="33" y="133.2422"/><rect fill="#FFFFFF" height="307.9102" style="stroke:#181818;stroke-width:1.0;" width="10" x="386" y="156.5332"/><rect fill="#FFFFFF" height="451.4922" style="stroke:#181818;stroke-width:1.0;" width="10" x="386" y="495.7344"/><rect fill="#FFFFFF" height="132.582" style="stroke:#181818;stroke-width:1.0;" width="10" x="386" y="978.5176"/><rect fill="#FFFFFF" height="501.6563" style="stroke:#181818;stroke-width:1.0;" width="10" x="386" y="1142.3906"/><rect fill="#FFFFFF" height="219.0371" style="stroke:#181818;stroke-width:1.0;" width="10" x="750" y="187.8242"/><rect fill="#FFFFFF" height="219.0371" style="stroke:#181818;stroke-width:1.0;" width="10" x="750" y="653.3164"/><rect fill="#FFFFFF" height="439.0742" style="stroke:#181818;stroke-width:1.0;" width="10" x="750" y="1173.6816"/><rect fill="#FFFFFF" height="31.291" style="stroke:#181818;stroke-width:1.0;" width="10" x="882" y="219.1152"/><rect fill="#FFFFFF" height="31.291" style="stroke:#181818;stroke-width:1.0;" width="10" x="882" y="684.6074"/><rect fill="#FFFFFF" height="31.291" style="stroke:#181818;stroke-width:1.0;" width="10" x="882" y="1204.9727"/><rect fill="#FFFFFF" height="31.291" style="stroke:#181818;stroke-width:1.0;" width="10" x="989" y="281.6973"/><rect fill="#FFFFFF" height="31.291" style="stroke:#181818;stroke-width:1.0;" width="10" x="989" y="747.1895"/><rect fill="#FFFFFF" height="31.291" style="stroke:#181818;stroke-width:1.0;" width="10" x="989" y="1267.5547"/><rect fill="#FFFFFF" height="31.291" style="stroke:#181818;stroke-width:1.0;" width="10" x="1102" y="809.7715"/><rect fill="#FFFFFF" height="31.291" style="stroke:#181818;stroke-width:1.0;" width="10" x="1249" y="344.2793"/><rect fill="#FFFFFF" height="251.3281" style="stroke:#181818;stroke-width:1.0;" width="10" x="1249" y="1330.1367"/><polygon fill="#181818" points="374,152.5332,384,156.5332,374,160.5332,378,156.5332" style="stroke:#181818;stroke-width:1.0;"/><line style="stroke:#181818;stroke-width:1.0;" x1="43" x2="380" y1="156.5332" y2="156.5332"/><text fill="#000000" font-family="sans-serif" font-size="13" font-weight="bold" lengthAdjust="spacing" textLength="7" x="50" y="151.2705">1</text><text fill="#000000" font-family="sans-serif" font-size="13" lengthAdjust="spacing" textLength="291" x="61" y="151.2705">Asks to assign one or more skills to a collaborator</text><polygon fill="#181818" points="738,183.8242,748,187.8242,738,191.8242,742,187.8242" style="stroke:#181818;stroke-width:1.0;"/><line style="stroke:#181818;stroke-width:1.0;" x1="396" x2="744" y1="187.8242" y2="187.8242"/><text fill="#000000" font-family="sans-serif" font-size="13" font-weight="bold" lengthAdjust="spacing" textLength="7" x="403" y="182.5615">2</text><text fill="#000000" font-family="sans-serif" font-size="13" lengthAdjust="spacing" textLength="116" x="414" y="182.5615">getCollaboratorList()</text><polygon fill="#181818" points="870,215.1152,880,219.1152,870,223.1152,874,219.1152" style="stroke:#181818;stroke-width:1.0;"/><line style="stroke:#181818;stroke-width:1.0;" x1="760" x2="876" y1="219.1152" y2="219.1152"/><text fill="#000000" font-family="sans-serif" font-size="13" font-weight="bold" lengthAdjust="spacing" textLength="7" x="767" y="213.8525">3</text><text fill="#000000" font-family="sans-serif" font-size="13" lengthAdjust="spacing" textLength="75" x="778" y="213.8525">getInstance()</text><polygon fill="#181818" points="771,246.4063,761,250.4063,771,254.4063,767,250.4063" style="stroke:#181818;stroke-width:1.0;"/><line style="stroke:#181818;stroke-width:1.0;" x1="765" x2="886" y1="250.4063" y2="250.4063"/><text fill="#000000" font-family="sans-serif" font-size="13" font-weight="bold" lengthAdjust="spacing" textLength="7" x="777" y="245.1436">4</text><text fill="#000000" font-family="sans-serif" font-size="13" lengthAdjust="spacing" textLength="67" x="788" y="245.1436">repositories</text><polygon fill="#181818" points="977,277.6973,987,281.6973,977,285.6973,981,281.6973" style="stroke:#181818;stroke-width:1.0;"/><line style="stroke:#181818;stroke-width:1.0;" x1="760" x2="983" y1="281.6973" y2="281.6973"/><text fill="#000000" font-family="sans-serif" font-size="13" font-weight="bold" lengthAdjust="spacing" textLength="7" x="767" y="276.4346">5</text><text fill="#000000" font-family="sans-serif" font-size="13" lengthAdjust="spacing" textLength="157" x="778" y="276.4346">getCollaboratorRepository()</text><polygon fill="#181818" points="771,308.9883,761,312.9883,771,316.9883,767,312.9883" style="stroke:#181818;stroke-width:1.0;"/><line style="stroke:#181818;stroke-width:1.0;stroke-dasharray:2.0,2.0;" x1="765" x2="993" y1="312.9883" y2="312.9883"/><text fill="#000000" font-family="sans-serif" font-size="13" font-weight="bold" lengthAdjust="spacing" textLength="7" x="777" y="307.7256">6</text><text fill="#000000" font-family="sans-serif" font-size="13" lengthAdjust="spacing" textLength="129" x="788" y="307.7256">collaboratorRepository</text><polygon fill="#181818" points="1237,340.2793,1247,344.2793,1237,348.2793,1241,344.2793" style="stroke:#181818;stroke-width:1.0;"/><line style="stroke:#181818;stroke-width:1.0;" x1="760" x2="1243" y1="344.2793" y2="344.2793"/><text fill="#000000" font-family="sans-serif" font-size="13" font-weight="bold" lengthAdjust="spacing" textLength="7" x="767" y="339.0166">7</text><text fill="#000000" font-family="sans-serif" font-size="13" lengthAdjust="spacing" textLength="116" x="778" y="339.0166">getCollaboratorList()</text><polygon fill="#181818" points="771,371.5703,761,375.5703,771,379.5703,767,375.5703" style="stroke:#181818;stroke-width:1.0;"/><line style="stroke:#181818;stroke-width:1.0;stroke-dasharray:2.0,2.0;" x1="765" x2="1253" y1="375.5703" y2="375.5703"/><text fill="#000000" font-family="sans-serif" font-size="13" font-weight="bold" lengthAdjust="spacing" textLength="7" x="777" y="370.3076">8</text><text fill="#000000" font-family="sans-serif" font-size="13" lengthAdjust="spacing" textLength="88" x="788" y="370.3076">collaboratorList</text><polygon fill="#181818" points="407,402.8613,397,406.8613,407,410.8613,403,406.8613" style="stroke:#181818;stroke-width:1.0;"/><line style="stroke:#181818;stroke-width:1.0;" x1="401" x2="754" y1="406.8613" y2="406.8613"/><text fill="#000000" font-family="sans-serif" font-size="13" font-weight="bold" lengthAdjust="spacing" textLength="7" x="413" y="401.5986">9</text><text fill="#000000" font-family="sans-serif" font-size="13" lengthAdjust="spacing" textLength="88" x="424" y="401.5986">collaboratorList</text><path d="M10,421.8613 L83,421.8613 L83,431.1523 L73,441.1523 L10,441.1523 L10,421.8613 " fill="#EEEEEE" style="stroke:#000000;stroke-width:1.5;"/><rect fill="none" height="106.873" style="stroke:#000000;stroke-width:1.5;" width="439.5" x="10" y="421.8613"/><text fill="#000000" font-family="sans-serif" font-size="13" font-weight="bold" lengthAdjust="spacing" textLength="28" x="25" y="436.8896">loop</text><text fill="#000000" font-family="sans-serif" font-size="11" font-weight="bold" lengthAdjust="spacing" textLength="196" x="98" y="435.7314">[until doesn't choose a valid option]</text><polygon fill="#181818" points="54,460.4434,44,464.4434,54,468.4434,50,464.4434" style="stroke:#181818;stroke-width:1.0;"/><line style="stroke:#181818;stroke-width:1.0;stroke-dasharray:2.0,2.0;" x1="48" x2="390" y1="464.4434" y2="464.4434"/><text fill="#000000" font-family="sans-serif" font-size="13" font-weight="bold" lengthAdjust="spacing" textLength="14" x="60" y="459.1807">10</text><text fill="#000000" font-family="sans-serif" font-size="13" lengthAdjust="spacing" textLength="301" x="78" y="459.1807">Shows a list of Collaborators and asks to select one</text><polygon fill="#181818" points="374,491.7344,384,495.7344,374,499.7344,378,495.7344" style="stroke:#181818;stroke-width:1.0;"/><line style="stroke:#181818;stroke-width:1.0;" x1="43" x2="380" y1="495.7344" y2="495.7344"/><text fill="#000000" font-family="sans-serif" font-size="13" font-weight="bold" lengthAdjust="spacing" textLength="14" x="50" y="490.4717">11</text><text fill="#000000" font-family="sans-serif" font-size="13" lengthAdjust="spacing" textLength="126" x="68" y="490.4717">Selects a collaborator</text><line style="stroke:#181818;stroke-width:1.0;stroke-dasharray:2.0,2.0;" x1="396" x2="438" y1="584.0254" y2="584.0254"/><line style="stroke:#181818;stroke-width:1.0;stroke-dasharray:2.0,2.0;" x1="438" x2="438" y1="584.0254" y2="597.0254"/><line style="stroke:#181818;stroke-width:1.0;stroke-dasharray:2.0,2.0;" x1="397" x2="438" y1="597.0254" y2="597.0254"/><polygon fill="#181818" points="407,593.0254,397,597.0254,407,601.0254,403,597.0254" style="stroke:#181818;stroke-width:1.0;"/><text fill="#000000" font-family="sans-serif" font-size="13" font-weight="bold" lengthAdjust="spacing" textLength="14" x="403" y="578.7627">12</text><text fill="#000000" font-family="sans-serif" font-size="13" lengthAdjust="spacing" textLength="137" x="421" y="578.7627">keepsData(collaborator)</text><polygon fill="#181818" points="738,649.3164,748,653.3164,738,657.3164,742,653.3164" style="stroke:#181818;stroke-width:1.0;"/><line style="stroke:#181818;stroke-width:1.0;" x1="396" x2="744" y1="653.3164" y2="653.3164"/><text fill="#000000" font-family="sans-serif" font-size="13" font-weight="bold" lengthAdjust="spacing" textLength="14" x="403" y="648.0537">13</text><text fill="#000000" font-family="sans-serif" font-size="13" lengthAdjust="spacing" textLength="72" x="421" y="648.0537">getSkillList()</text><polygon fill="#181818" points="870,680.6074,880,684.6074,870,688.6074,874,684.6074" style="stroke:#181818;stroke-width:1.0;"/><line style="stroke:#181818;stroke-width:1.0;" x1="760" x2="876" y1="684.6074" y2="684.6074"/><text fill="#000000" font-family="sans-serif" font-size="13" font-weight="bold" lengthAdjust="spacing" textLength="14" x="767" y="679.3447">14</text><text fill="#000000" font-family="sans-serif" font-size="13" lengthAdjust="spacing" textLength="75" x="785" y="679.3447">getInstance()</text><polygon fill="#181818" points="771,711.8984,761,715.8984,771,719.8984,767,715.8984" style="stroke:#181818;stroke-width:1.0;"/><line style="stroke:#181818;stroke-width:1.0;" x1="765" x2="886" y1="715.8984" y2="715.8984"/><text fill="#000000" font-family="sans-serif" font-size="13" font-weight="bold" lengthAdjust="spacing" textLength="14" x="777" y="710.6357">15</text><text fill="#000000" font-family="sans-serif" font-size="13" lengthAdjust="spacing" textLength="67" x="795" y="710.6357">repositories</text><polygon fill="#181818" points="977,743.1895,987,747.1895,977,751.1895,981,747.1895" style="stroke:#181818;stroke-width:1.0;"/><line style="stroke:#181818;stroke-width:1.0;" x1="760" x2="983" y1="747.1895" y2="747.1895"/><text fill="#000000" font-family="sans-serif" font-size="13" font-weight="bold" lengthAdjust="spacing" textLength="14" x="767" y="741.9268">16</text><text fill="#000000" font-family="sans-serif" font-size="13" lengthAdjust="spacing" textLength="113" x="785" y="741.9268">getSkillRepository()</text><polygon fill="#181818" points="771,774.4805,761,778.4805,771,782.4805,767,778.4805" style="stroke:#181818;stroke-width:1.0;"/><line style="stroke:#181818;stroke-width:1.0;stroke-dasharray:2.0,2.0;" x1="765" x2="993" y1="778.4805" y2="778.4805"/><text fill="#000000" font-family="sans-serif" font-size="13" font-weight="bold" lengthAdjust="spacing" textLength="14" x="777" y="773.2178">17</text><text fill="#000000" font-family="sans-serif" font-size="13" lengthAdjust="spacing" textLength="85" x="795" y="773.2178">skillRepository</text><polygon fill="#181818" points="1090,805.7715,1100,809.7715,1090,813.7715,1094,809.7715" style="stroke:#181818;stroke-width:1.0;"/><line style="stroke:#181818;stroke-width:1.0;" x1="760" x2="1096" y1="809.7715" y2="809.7715"/><text fill="#000000" font-family="sans-serif" font-size="13" font-weight="bold" lengthAdjust="spacing" textLength="14" x="767" y="804.5088">18</text><text fill="#000000" font-family="sans-serif" font-size="13" lengthAdjust="spacing" textLength="72" x="785" y="804.5088">getSkillList()</text><polygon fill="#181818" points="771,837.0625,761,841.0625,771,845.0625,767,841.0625" style="stroke:#181818;stroke-width:1.0;"/><line style="stroke:#181818;stroke-width:1.0;stroke-dasharray:2.0,2.0;" x1="765" x2="1106" y1="841.0625" y2="841.0625"/><text fill="#000000" font-family="sans-serif" font-size="13" font-weight="bold" lengthAdjust="spacing" textLength="14" x="777" y="835.7998">19</text><text fill="#000000" font-family="sans-serif" font-size="13" lengthAdjust="spacing" textLength="44" x="795" y="835.7998">skillList</text><polygon fill="#181818" points="407,868.3535,397,872.3535,407,876.3535,403,872.3535" style="stroke:#181818;stroke-width:1.0;"/><line style="stroke:#181818;stroke-width:1.0;" x1="401" x2="754" y1="872.3535" y2="872.3535"/><text fill="#000000" font-family="sans-serif" font-size="13" font-weight="bold" lengthAdjust="spacing" textLength="14" x="413" y="867.0908">20</text><text fill="#000000" font-family="sans-serif" font-size="13" lengthAdjust="spacing" textLength="44" x="431" y="867.0908">skillList</text><path d="M10,887.3535 L83,887.3535 L83,896.6445 L73,906.6445 L10,906.6445 L10,887.3535 " fill="#EEEEEE" style="stroke:#000000;stroke-width:1.5;"/><rect fill="none" height="124.1641" style="stroke:#000000;stroke-width:1.5;" width="439.5" x="10" y="887.3535"/><text fill="#000000" font-family="sans-serif" font-size="13" font-weight="bold" lengthAdjust="spacing" textLength="28" x="25" y="902.3818">loop</text><text fill="#000000" font-family="sans-serif" font-size="11" font-weight="bold" lengthAdjust="spacing" textLength="189" x="98" y="901.2236">[while doesn't choose to advance]</text><polygon fill="#181818" points="54,943.2266,44,947.2266,54,951.2266,50,947.2266" style="stroke:#181818;stroke-width:1.0;"/><line style="stroke:#181818;stroke-width:1.0;stroke-dasharray:2.0,2.0;" x1="48" x2="390" y1="947.2266" y2="947.2266"/><text fill="#000000" font-family="sans-serif" font-size="13" font-weight="bold" lengthAdjust="spacing" textLength="14" x="60" y="933.3184">21</text><text fill="#000000" font-family="sans-serif" font-size="13" lengthAdjust="spacing" textLength="255" x="78" y="924.6729">Displays a list of available skills and asks to</text><text fill="#000000" font-family="sans-serif" font-size="13" lengthAdjust="spacing" textLength="64" x="78" y="941.9639">select one.</text><polygon fill="#181818" points="374,974.5176,384,978.5176,374,982.5176,378,978.5176" style="stroke:#181818;stroke-width:1.0;"/><line style="stroke:#181818;stroke-width:1.0;" x1="43" x2="380" y1="978.5176" y2="978.5176"/><text fill="#000000" font-family="sans-serif" font-size="13" font-weight="bold" lengthAdjust="spacing" textLength="14" x="50" y="973.2549">22</text><text fill="#000000" font-family="sans-serif" font-size="13" lengthAdjust="spacing" textLength="82" x="68" y="973.2549">Selects a skill</text><line style="stroke:#181818;stroke-width:1.0;stroke-dasharray:2.0,2.0;" x1="396" x2="438" y1="1066.8086" y2="1066.8086"/><line style="stroke:#181818;stroke-width:1.0;stroke-dasharray:2.0,2.0;" x1="438" x2="438" y1="1066.8086" y2="1079.8086"/><line style="stroke:#181818;stroke-width:1.0;stroke-dasharray:2.0,2.0;" x1="397" x2="438" y1="1079.8086" y2="1079.8086"/><polygon fill="#181818" points="407,1075.8086,397,1079.8086,407,1083.8086,403,1079.8086" style="stroke:#181818;stroke-width:1.0;"/><text fill="#000000" font-family="sans-serif" font-size="13" font-weight="bold" lengthAdjust="spacing" textLength="14" x="403" y="1061.5459">23</text><text fill="#000000" font-family="sans-serif" font-size="13" lengthAdjust="spacing" textLength="210" x="421" y="1061.5459">keepData(List&lt;Skill&gt; selectedSkills)</text><polygon fill="#181818" points="54,1107.0996,44,1111.0996,54,1115.0996,50,1111.0996" style="stroke:#181818;stroke-width:1.0;"/><line style="stroke:#181818;stroke-width:1.0;stroke-dasharray:2.0,2.0;" x1="48" x2="390" y1="1111.0996" y2="1111.0996"/><text fill="#000000" font-family="sans-serif" font-size="13" font-weight="bold" lengthAdjust="spacing" textLength="14" x="60" y="1105.8369">24</text><text fill="#000000" font-family="sans-serif" font-size="13" lengthAdjust="spacing" textLength="238" x="78" y="1105.8369">Shows all data and requests confirmation</text><polygon fill="#181818" points="374,1138.3906,384,1142.3906,374,1146.3906,378,1142.3906" style="stroke:#181818;stroke-width:1.0;"/><line style="stroke:#181818;stroke-width:1.0;" x1="43" x2="380" y1="1142.3906" y2="1142.3906"/><text fill="#000000" font-family="sans-serif" font-size="13" font-weight="bold" lengthAdjust="spacing" textLength="14" x="50" y="1137.1279">25</text><text fill="#000000" font-family="sans-serif" font-size="13" lengthAdjust="spacing" textLength="130" x="68" y="1137.1279">Confirms the operation</text><polygon fill="#181818" points="738,1169.6816,748,1173.6816,738,1177.6816,742,1173.6816" style="stroke:#181818;stroke-width:1.0;"/><line style="stroke:#181818;stroke-width:1.0;" x1="396" x2="744" y1="1173.6816" y2="1173.6816"/><text fill="#000000" font-family="sans-serif" font-size="13" font-weight="bold" lengthAdjust="spacing" textLength="14" x="403" y="1168.4189">26</text><text fill="#000000" font-family="sans-serif" font-size="13" lengthAdjust="spacing" textLength="317" x="421" y="1168.4189">assignSkillsToCollaborator(collaborator, selectedSkills)</text><polygon fill="#181818" points="870,1200.9727,880,1204.9727,870,1208.9727,874,1204.9727" style="stroke:#181818;stroke-width:1.0;"/><line style="stroke:#181818;stroke-width:1.0;" x1="760" x2="876" y1="1204.9727" y2="1204.9727"/><text fill="#000000" font-family="sans-serif" font-size="13" font-weight="bold" lengthAdjust="spacing" textLength="14" x="767" y="1199.71">27</text><text fill="#000000" font-family="sans-serif" font-size="13" lengthAdjust="spacing" textLength="75" x="785" y="1199.71">getInstance()</text><polygon fill="#181818" points="771,1232.2637,761,1236.2637,771,1240.2637,767,1236.2637" style="stroke:#181818;stroke-width:1.0;"/><line style="stroke:#181818;stroke-width:1.0;" x1="765" x2="886" y1="1236.2637" y2="1236.2637"/><text fill="#000000" font-family="sans-serif" font-size="13" font-weight="bold" lengthAdjust="spacing" textLength="14" x="777" y="1231.001">28</text><text fill="#000000" font-family="sans-serif" font-size="13" lengthAdjust="spacing" textLength="67" x="795" y="1231.001">repositories</text><polygon fill="#181818" points="977,1263.5547,987,1267.5547,977,1271.5547,981,1267.5547" style="stroke:#181818;stroke-width:1.0;"/><line style="stroke:#181818;stroke-width:1.0;" x1="760" x2="983" y1="1267.5547" y2="1267.5547"/><text fill="#000000" font-family="sans-serif" font-size="13" font-weight="bold" lengthAdjust="spacing" textLength="14" x="767" y="1262.292">29</text><text fill="#000000" font-family="sans-serif" font-size="13" lengthAdjust="spacing" textLength="157" x="785" y="1262.292">getCollaboratorRepository()</text><polygon fill="#181818" points="771,1294.8457,761,1298.8457,771,1302.8457,767,1298.8457" style="stroke:#181818;stroke-width:1.0;"/><line style="stroke:#181818;stroke-width:1.0;stroke-dasharray:2.0,2.0;" x1="765" x2="993" y1="1298.8457" y2="1298.8457"/><text fill="#000000" font-family="sans-serif" font-size="13" font-weight="bold" lengthAdjust="spacing" textLength="14" x="777" y="1293.583">30</text><text fill="#000000" font-family="sans-serif" font-size="13" lengthAdjust="spacing" textLength="129" x="795" y="1293.583">collaboratorRepository</text><polygon fill="#181818" points="1237,1326.1367,1247,1330.1367,1237,1334.1367,1241,1330.1367" style="stroke:#181818;stroke-width:1.0;"/><line style="stroke:#181818;stroke-width:1.0;" x1="760" x2="1243" y1="1330.1367" y2="1330.1367"/><text fill="#000000" font-family="sans-serif" font-size="13" font-weight="bold" lengthAdjust="spacing" textLength="14" x="767" y="1324.874">31</text><text fill="#000000" font-family="sans-serif" font-size="13" lengthAdjust="spacing" textLength="317" x="785" y="1324.874">assignSkillsToCollaborator(collaborator, selectedSkills)</text><line style="stroke:#181818;stroke-width:1.0;" x1="1259" x2="1301" y1="1361.4277" y2="1361.4277"/><line style="stroke:#181818;stroke-width:1.0;" x1="1301" x2="1301" y1="1361.4277" y2="1374.4277"/><line style="stroke:#181818;stroke-width:1.0;" x1="1260" x2="1301" y1="1374.4277" y2="1374.4277"/><polygon fill="#181818" points="1270,1370.4277,1260,1374.4277,1270,1378.4277,1266,1374.4277" style="stroke:#181818;stroke-width:1.0;"/><text fill="#000000" font-family="sans-serif" font-size="13" font-weight="bold" lengthAdjust="spacing" textLength="14" x="1266" y="1356.165">32</text><text fill="#000000" font-family="sans-serif" font-size="13" lengthAdjust="spacing" textLength="313" x="1284" y="1356.165">getCollaboratorByCollaboratorEmail(collaboratorEmail)</text><polygon fill="#181818" points="1552.5,1426.7188,1562.5,1430.7188,1552.5,1434.7188,1556.5,1430.7188" style="stroke:#181818;stroke-width:1.0;"/><line style="stroke:#181818;stroke-width:1.0;" x1="1259" x2="1558.5" y1="1430.7188" y2="1430.7188"/><text fill="#000000" font-family="sans-serif" font-size="13" font-weight="bold" lengthAdjust="spacing" textLength="14" x="1266" y="1425.4561">33</text><text fill="#000000" font-family="sans-serif" font-size="13" lengthAdjust="spacing" textLength="159" x="1284" y="1425.4561">assignSkills(selectedSkills)</text><rect fill="#E3E3E3" height="51.2422" rx="2.5" ry="2.5" style="stroke:#181818;stroke-width:0.5;" width="97" x="1564.5" y="1429.5342"/><text fill="#000000" font-family="sans-serif" font-size="14" lengthAdjust="spacing" textLength="79" x="1571.5" y="1451.6416">:collaborator</text><text fill="#000000" font-family="sans-serif" font-size="14" lengthAdjust="spacing" textLength="78" x="1574" y="1470.2627">Collaborator</text><path d="M1666.5,1412.4277 L1666.5,1508.4277 L1935.5,1508.4277 L1935.5,1422.4277 L1925.5,1412.4277 L1666.5,1412.4277 " fill="#FAFAFA" style="stroke:#181818;stroke-width:0.5;"/><path d="M1925.5,1412.4277 L1925.5,1422.4277 L1935.5,1422.4277 L1925.5,1412.4277 " fill="#FAFAFA" style="stroke:#181818;stroke-width:0.5;"/><text fill="#000000" font-family="sans-serif" font-size="13" font-weight="bold" lengthAdjust="spacing" textLength="248" x="1672.5" y="1431.4561">Adding skills to the object collaborator:</text><text fill="#000000" font-family="sans-serif" font-size="13" lengthAdjust="spacing" textLength="4" x="1672.5" y="1448.7471">&#160;</text><text fill="#000000" font-family="sans-serif" font-size="13" lengthAdjust="spacing" textLength="237" x="1672.5" y="1466.0381">assignSkills(List&lt;Skill&gt; selectedSkills)) {</text><text fill="#000000" font-family="sans-serif" font-size="13" lengthAdjust="spacing" textLength="173" x="1688.5" y="1483.3291">skillList.addAll(selectedSkills)</text><text fill="#000000" font-family="sans-serif" font-size="13" lengthAdjust="spacing" textLength="4" x="1672.5" y="1500.6201">}</text><line style="stroke:#181818;stroke-width:1.0;" x1="1259" x2="1301" y1="1537.1738" y2="1537.1738"/><line style="stroke:#181818;stroke-width:1.0;" x1="1301" x2="1301" y1="1537.1738" y2="1550.1738"/><line style="stroke:#181818;stroke-width:1.0;" x1="1260" x2="1301" y1="1550.1738" y2="1550.1738"/><polygon fill="#181818" points="1270,1546.1738,1260,1550.1738,1270,1554.1738,1266,1550.1738" style="stroke:#181818;stroke-width:1.0;"/><text fill="#000000" font-family="sans-serif" font-size="13" font-weight="bold" lengthAdjust="spacing" textLength="14" x="1266" y="1531.9111">34</text><text fill="#000000" font-family="sans-serif" font-size="13" lengthAdjust="spacing" textLength="317" x="1284" y="1531.9111">assignSkillsToCollaborator(collaborator, selectedSkills)</text><polygon fill="#181818" points="771,1577.4648,761,1581.4648,771,1585.4648,767,1581.4648" style="stroke:#181818;stroke-width:1.0;"/><line style="stroke:#181818;stroke-width:1.0;stroke-dasharray:2.0,2.0;" x1="765" x2="1253" y1="1581.4648" y2="1581.4648"/><text fill="#000000" font-family="sans-serif" font-size="13" font-weight="bold" lengthAdjust="spacing" textLength="14" x="777" y="1576.2021">35</text><text fill="#000000" font-family="sans-serif" font-size="13" lengthAdjust="spacing" textLength="106" x="795" y="1576.2021">operation success</text><polygon fill="#181818" points="407,1608.7559,397,1612.7559,407,1616.7559,403,1612.7559" style="stroke:#181818;stroke-width:1.0;"/><line style="stroke:#181818;stroke-width:1.0;stroke-dasharray:2.0,2.0;" x1="401" x2="754" y1="1612.7559" y2="1612.7559"/><text fill="#000000" font-family="sans-serif" font-size="13" font-weight="bold" lengthAdjust="spacing" textLength="14" x="413" y="1607.4932">36</text><text fill="#000000" font-family="sans-serif" font-size="13" lengthAdjust="spacing" textLength="53" x="431" y="1607.4932">operation</text><polygon fill="#181818" points="54,1640.0469,44,1644.0469,54,1648.0469,50,1644.0469" style="stroke:#181818;stroke-width:1.0;"/><line style="stroke:#181818;stroke-width:1.0;stroke-dasharray:2.0,2.0;" x1="48" x2="390" y1="1644.0469" y2="1644.0469"/><text fill="#000000" font-family="sans-serif" font-size="13" font-weight="bold" lengthAdjust="spacing" textLength="14" x="60" y="1638.7842">37</text><text fill="#000000" font-family="sans-serif" font-size="13" lengthAdjust="spacing" textLength="153" x="78" y="1638.7842">Display operation success</text><!--SRC=[xLSzRzim4DtrAmvP6WTDaA6JaHfmdG0Da7x0RZOlj4JRh2bI5Ma7HjF_tYCLIoH5gQw3RjLYYpm-lkFTEvxKXec2b2I7N0gPhakPKz3bbYQgdYb8kY4hEjDxJg6agIPYnLq3jIQPV69Y1Kl25KqIpJIQFiwkhz_19SpeZoqLAOLRHbPedoHagwNOvWjQulzKonBEFau_dG5HWBy9ecgMie883MV3iL9i9MORnldZlRLvlEyscKYXIyavBQtfvDlq8J2Uqa8gXfioggnDFR2VCUCPSlENbCwAkMW3uBo_G1ac3UnmNd5hHkooO2oWcQ8JP25BWdED4Sp593fHUVlbONhtjGSeM7vOPAF0TaHJU_u9u8D_u7A4Pmr36AkD0YtHsfmpI441iN9PKh2kLfFWxbI1rB0OCZjW7eH4O1CPX5vHxJ9wO4gV3nhR6i06iXusZmL0e4ZuAjnxeJ1LK-hYUPYnm7kMved1D_JTrF2MPlJuRGwU85ZxH9hLw4VK3PD-BTe6wxBX6S-cBiO6CKQmogy_HysFN9MKFc05r47Gm7LHEw15-TbaxKNYKXQm5Pfno2HLues6T2sbefY-Ey9P1hBG30CKszgae9l4kADHoH1cQ_ca487ZTY2Nu9uDZeiCbLCfI56E1TGegFB0WJSIQIblPkrLAAvGM-Rz-VdP_bAH9UP_uj2qM1jA2tLBD3btiLx2Lg-8ATHMgl_Ih8_2q-JfeWokYJurHaa5N7fYvL4BxvqMpH0tfDodprvmJwTjg51hYQVQfpN3fY9GhRbtifr99NydJvwtJ1MSx5s5aXrXA05UNs2kIEUYaUbLJAQ7NU9AjOYrJIsiA88HgsiPyAzrQsLh3kl67l3efP3GpBwgGT9Rc3XMEmImJfQc6rD8D9LYoSgSrEKkugJhuAIonnDQu_LVqB9PsQvXhIf2cXPDVPDkWVIgqTjkn_v5lJcjxhoo_fnIXrxNAXnNdKvl7Ove8JfRYTSdnj5THzXzT3Sq7_RksrsEnS9ZOqS6IHpUkqexzxsu29m_3nsC87oMvcZPQgrZipTB_FWnyPBb-mN7hxRHpM8qpZBpPTRqwLQ-Y- -clhak3QESFO8zzMS0FxlogQxpLoJBnfmVu-Uls23MIX1u04S7zUJKwiDlX57NG53RDAMghV9stngNmw74-bMr2ybjG_lkkxyZQ4htRm00]--></g></svg>