<?xml version="1.0" encoding="us-ascii" standalone="no"?><svg xmlns="http://www.w3.org/2000/svg" xmlns:xlink="http://www.w3.org/1999/xlink" contentStyleType="text/css" height="683px" preserveAspectRatio="none" style="width:980px;height:683px;background:#FFFFFF;" version="1.1" viewBox="0 0 980 683" width="980px" zoomAndPan="magnify"><defs/><g><text fill="#000000" font-family="sans-serif" font-size="14" font-weight="bold" lengthAdjust="spacing" textLength="156" x="413.75" y="30.1074">SD_getVehicleListDTO</text><rect fill="#FFFFFF" height="511.1133" style="stroke:#181818;stroke-width:1.0;" width="10" x="152" y="106.8633"/><rect fill="#FFFFFF" height="31.291" style="stroke:#181818;stroke-width:1.0;" width="10" x="378" y="130.1543"/><rect fill="#FFFFFF" height="31.291" style="stroke:#181818;stroke-width:1.0;" width="10" x="485" y="192.7363"/><rect fill="#FFFFFF" height="31.291" style="stroke:#181818;stroke-width:1.0;" width="10" x="609.5" y="255.3184"/><rect fill="#FFFFFF" height="74.9121" style="stroke:#181818;stroke-width:1.0;" width="10" x="741.5" y="413.4824"/><rect fill="none" height="194.7852" style="stroke:#000000;stroke-width:1.5;" width="964.5" x="10" y="370.9004"/><line style="stroke:#181818;stroke-width:0.5;stroke-dasharray:5.0,5.0;" x1="157" x2="157" y1="96.8633" y2="626.9766"/><line style="stroke:#181818;stroke-width:0.5;stroke-dasharray:5.0,5.0;" x1="382.5" x2="382.5" y1="96.8633" y2="626.9766"/><line style="stroke:#181818;stroke-width:0.5;stroke-dasharray:5.0,5.0;" x1="489.5" x2="489.5" y1="96.8633" y2="626.9766"/><line style="stroke:#181818;stroke-width:0.5;stroke-dasharray:5.0,5.0;" x1="614.5" x2="614.5" y1="96.8633" y2="626.9766"/><line style="stroke:#181818;stroke-width:0.5;stroke-dasharray:5.0,5.0;" x1="746.5" x2="746.5" y1="96.8633" y2="626.9766"/><line style="stroke:#181818;stroke-width:0.5;stroke-dasharray:5.0,5.0;" x1="917.5" x2="917.5" y1="453.293" y2="626.9766"/><rect fill="#E3E3E3" height="32.6211" rx="2.5" ry="2.5" style="stroke:#181818;stroke-width:0.5;" width="274" x="20" y="63.2422"/><text fill="#000000" font-family="sans-serif" font-size="14" lengthAdjust="spacing" textLength="260" x="27" y="85.3496">:AssignVehiclesToEntryAgendaController</text><rect fill="#E3E3E3" height="32.6211" rx="2.5" ry="2.5" style="stroke:#181818;stroke-width:0.5;" width="274" x="20" y="625.9766"/><text fill="#000000" font-family="sans-serif" font-size="14" lengthAdjust="spacing" textLength="260" x="27" y="648.084">:AssignVehiclesToEntryAgendaController</text><rect fill="#E3E3E3" height="32.6211" rx="2.5" ry="2.5" style="stroke:#181818;stroke-width:0.5;" width="97" x="334.5" y="63.2422"/><text fill="#000000" font-family="sans-serif" font-size="14" lengthAdjust="spacing" textLength="83" x="341.5" y="85.3496">:Repositories</text><rect fill="#E3E3E3" height="32.6211" rx="2.5" ry="2.5" style="stroke:#181818;stroke-width:0.5;" width="97" x="334.5" y="625.9766"/><text fill="#000000" font-family="sans-serif" font-size="14" lengthAdjust="spacing" textLength="83" x="341.5" y="648.084">:Repositories</text><rect fill="#E3E3E3" height="51.2422" rx="2.5" ry="2.5" style="stroke:#181818;stroke-width:0.5;" width="97" x="441.5" y="44.6211"/><text fill="#000000" font-family="sans-serif" font-size="14" lengthAdjust="spacing" textLength="74" x="453" y="66.7285">repositories</text><text fill="#000000" font-family="sans-serif" font-size="14" lengthAdjust="spacing" textLength="83" x="448.5" y="85.3496">:Repositories</text><rect fill="#E3E3E3" height="51.2422" rx="2.5" ry="2.5" style="stroke:#181818;stroke-width:0.5;" width="97" x="441.5" y="625.9766"/><text fill="#000000" font-family="sans-serif" font-size="14" lengthAdjust="spacing" textLength="74" x="453" y="648.084">repositories</text><text fill="#000000" font-family="sans-serif" font-size="14" lengthAdjust="spacing" textLength="83" x="448.5" y="666.7051">:Repositories</text><rect fill="#E3E3E3" height="51.2422" rx="2.5" ry="2.5" style="stroke:#181818;stroke-width:0.5;" width="132" x="548.5" y="44.6211"/><text fill="#000000" font-family="sans-serif" font-size="14" lengthAdjust="spacing" textLength="112" x="558.5" y="66.7285">vehicleRepository</text><text fill="#000000" font-family="sans-serif" font-size="14" lengthAdjust="spacing" textLength="118" x="555.5" y="85.3496">:VehicleRepository</text><rect fill="#E3E3E3" height="51.2422" rx="2.5" ry="2.5" style="stroke:#181818;stroke-width:0.5;" width="132" x="548.5" y="625.9766"/><text fill="#000000" font-family="sans-serif" font-size="14" lengthAdjust="spacing" textLength="112" x="558.5" y="648.084">vehicleRepository</text><text fill="#000000" font-family="sans-serif" font-size="14" lengthAdjust="spacing" textLength="118" x="555.5" y="666.7051">:VehicleRepository</text><rect fill="#E3E3E3" height="32.6211" rx="2.5" ry="2.5" style="stroke:#181818;stroke-width:0.5;" width="112" x="690.5" y="63.2422"/><text fill="#000000" font-family="sans-serif" font-size="14" lengthAdjust="spacing" textLength="98" x="697.5" y="85.3496">:VehicleMapper</text><rect fill="#E3E3E3" height="32.6211" rx="2.5" ry="2.5" style="stroke:#181818;stroke-width:0.5;" width="112" x="690.5" y="625.9766"/><text fill="#000000" font-family="sans-serif" font-size="14" lengthAdjust="spacing" textLength="98" x="697.5" y="648.084">:VehicleMapper</text><rect fill="#E3E3E3" height="32.6211" rx="2.5" ry="2.5" style="stroke:#181818;stroke-width:0.5;" width="94" x="870.5" y="625.9766"/><text fill="#000000" font-family="sans-serif" font-size="14" lengthAdjust="spacing" textLength="80" x="877.5" y="648.084">:VehicleDTO</text><rect fill="#FFFFFF" height="511.1133" style="stroke:#181818;stroke-width:1.0;" width="10" x="152" y="106.8633"/><rect fill="#FFFFFF" height="31.291" style="stroke:#181818;stroke-width:1.0;" width="10" x="378" y="130.1543"/><rect fill="#FFFFFF" height="31.291" style="stroke:#181818;stroke-width:1.0;" width="10" x="485" y="192.7363"/><rect fill="#FFFFFF" height="31.291" style="stroke:#181818;stroke-width:1.0;" width="10" x="609.5" y="255.3184"/><rect fill="#FFFFFF" height="74.9121" style="stroke:#181818;stroke-width:1.0;" width="10" x="741.5" y="413.4824"/><polygon fill="#181818" points="366,126.1543,376,130.1543,366,134.1543,370,130.1543" style="stroke:#181818;stroke-width:1.0;"/><line style="stroke:#181818;stroke-width:1.0;" x1="162" x2="372" y1="130.1543" y2="130.1543"/><text fill="#000000" font-family="sans-serif" font-size="13" font-weight="bold" lengthAdjust="spacing" textLength="7" x="169" y="124.8916">1</text><text fill="#000000" font-family="sans-serif" font-size="13" lengthAdjust="spacing" textLength="75" x="180" y="124.8916">getInstance()</text><polygon fill="#181818" points="173,157.4453,163,161.4453,173,165.4453,169,161.4453" style="stroke:#181818;stroke-width:1.0;"/><line style="stroke:#181818;stroke-width:1.0;stroke-dasharray:2.0,2.0;" x1="167" x2="382" y1="161.4453" y2="161.4453"/><text fill="#000000" font-family="sans-serif" font-size="13" font-weight="bold" lengthAdjust="spacing" textLength="7" x="179" y="156.1826">2</text><text fill="#000000" font-family="sans-serif" font-size="13" lengthAdjust="spacing" textLength="67" x="190" y="156.1826">repositories</text><polygon fill="#181818" points="473,188.7363,483,192.7363,473,196.7363,477,192.7363" style="stroke:#181818;stroke-width:1.0;"/><line style="stroke:#181818;stroke-width:1.0;" x1="162" x2="479" y1="192.7363" y2="192.7363"/><text fill="#000000" font-family="sans-serif" font-size="13" font-weight="bold" lengthAdjust="spacing" textLength="7" x="169" y="187.4736">3</text><text fill="#000000" font-family="sans-serif" font-size="13" lengthAdjust="spacing" textLength="131" x="180" y="187.4736">getVehicleRepository()</text><polygon fill="#181818" points="173,220.0273,163,224.0273,173,228.0273,169,224.0273" style="stroke:#181818;stroke-width:1.0;"/><line style="stroke:#181818;stroke-width:1.0;stroke-dasharray:2.0,2.0;" x1="167" x2="489" y1="224.0273" y2="224.0273"/><text fill="#000000" font-family="sans-serif" font-size="13" font-weight="bold" lengthAdjust="spacing" textLength="7" x="179" y="218.7646">4</text><text fill="#000000" font-family="sans-serif" font-size="13" lengthAdjust="spacing" textLength="101" x="190" y="218.7646">vehicleRepository</text><polygon fill="#181818" points="597.5,251.3184,607.5,255.3184,597.5,259.3184,601.5,255.3184" style="stroke:#181818;stroke-width:1.0;"/><line style="stroke:#181818;stroke-width:1.0;" x1="162" x2="603.5" y1="255.3184" y2="255.3184"/><text fill="#000000" font-family="sans-serif" font-size="13" font-weight="bold" lengthAdjust="spacing" textLength="7" x="169" y="250.0557">5</text><text fill="#000000" font-family="sans-serif" font-size="13" lengthAdjust="spacing" textLength="90" x="180" y="250.0557">getVehicleList()</text><polygon fill="#181818" points="173,282.6094,163,286.6094,173,290.6094,169,286.6094" style="stroke:#181818;stroke-width:1.0;"/><line style="stroke:#181818;stroke-width:1.0;stroke-dasharray:2.0,2.0;" x1="167" x2="613.5" y1="286.6094" y2="286.6094"/><text fill="#000000" font-family="sans-serif" font-size="13" font-weight="bold" lengthAdjust="spacing" textLength="7" x="179" y="281.3467">6</text><text fill="#000000" font-family="sans-serif" font-size="13" lengthAdjust="spacing" textLength="60" x="190" y="281.3467">vehicleList</text><line style="stroke:#181818;stroke-width:1.0;" x1="162" x2="204" y1="317.9004" y2="317.9004"/><line style="stroke:#181818;stroke-width:1.0;" x1="204" x2="204" y1="317.9004" y2="330.9004"/><line style="stroke:#181818;stroke-width:1.0;" x1="163" x2="204" y1="330.9004" y2="330.9004"/><polygon fill="#181818" points="173,326.9004,163,330.9004,173,334.9004,169,330.9004" style="stroke:#181818;stroke-width:1.0;"/><text fill="#000000" font-family="sans-serif" font-size="13" font-weight="bold" lengthAdjust="spacing" textLength="7" x="169" y="312.6377">7</text><text fill="#000000" font-family="sans-serif" font-size="13" lengthAdjust="spacing" textLength="60" x="180" y="312.6377">vehicleList</text><path d="M10,370.9004 L83,370.9004 L83,380.1914 L73,390.1914 L10,390.1914 L10,370.9004 " fill="#EEEEEE" style="stroke:#000000;stroke-width:1.5;"/><rect fill="none" height="194.7852" style="stroke:#000000;stroke-width:1.5;" width="964.5" x="10" y="370.9004"/><text fill="#000000" font-family="sans-serif" font-size="13" font-weight="bold" lengthAdjust="spacing" textLength="28" x="25" y="385.9287">loop</text><text fill="#000000" font-family="sans-serif" font-size="11" font-weight="bold" lengthAdjust="spacing" textLength="171" x="98" y="384.7705">[for each vehicle in vehicleList]</text><polygon fill="#181818" points="729.5,409.4824,739.5,413.4824,729.5,417.4824,733.5,413.4824" style="stroke:#181818;stroke-width:1.0;"/><line style="stroke:#181818;stroke-width:1.0;" x1="162" x2="735.5" y1="413.4824" y2="413.4824"/><text fill="#000000" font-family="sans-serif" font-size="13" font-weight="bold" lengthAdjust="spacing" textLength="7" x="169" y="408.2197">8</text><text fill="#000000" font-family="sans-serif" font-size="13" lengthAdjust="spacing" textLength="84" x="180" y="408.2197">toDTO(vehicle)</text><polygon fill="#181818" points="858.5,440.7734,868.5,444.7734,858.5,448.7734,862.5,444.7734" style="stroke:#181818;stroke-width:1.0;"/><line style="stroke:#181818;stroke-width:1.0;" x1="751.5" x2="864.5" y1="444.7734" y2="444.7734"/><text fill="#000000" font-family="sans-serif" font-size="13" font-weight="bold" lengthAdjust="spacing" textLength="7" x="758.5" y="439.5107">9</text><text fill="#000000" font-family="sans-serif" font-size="13" lengthAdjust="spacing" textLength="84" x="769.5" y="439.5107">toDTO(vehicle)</text><rect fill="#E3E3E3" height="32.6211" rx="2.5" ry="2.5" style="stroke:#181818;stroke-width:0.5;" width="94" x="870.5" y="421.4824"/><text fill="#000000" font-family="sans-serif" font-size="14" lengthAdjust="spacing" textLength="80" x="877.5" y="443.5898">:VehicleDTO</text><polygon fill="#181818" points="173,484.3945,163,488.3945,173,492.3945,169,488.3945" style="stroke:#181818;stroke-width:1.0;"/><line style="stroke:#181818;stroke-width:1.0;stroke-dasharray:2.0,2.0;" x1="167" x2="745.5" y1="488.3945" y2="488.3945"/><text fill="#000000" font-family="sans-serif" font-size="13" font-weight="bold" lengthAdjust="spacing" textLength="14" x="179" y="483.1318">10</text><text fill="#000000" font-family="sans-serif" font-size="13" lengthAdjust="spacing" textLength="65" x="197" y="483.1318">vehicleDTO</text><line style="stroke:#181818;stroke-width:1.0;stroke-dasharray:2.0,2.0;" x1="162" x2="204" y1="544.6855" y2="544.6855"/><line style="stroke:#181818;stroke-width:1.0;stroke-dasharray:2.0,2.0;" x1="204" x2="204" y1="544.6855" y2="557.6855"/><line style="stroke:#181818;stroke-width:1.0;stroke-dasharray:2.0,2.0;" x1="163" x2="204" y1="557.6855" y2="557.6855"/><polygon fill="#181818" points="173,553.6855,163,557.6855,173,561.6855,169,557.6855" style="stroke:#181818;stroke-width:1.0;"/><text fill="#000000" font-family="sans-serif" font-size="13" font-weight="bold" lengthAdjust="spacing" textLength="14" x="169" y="539.4229">11</text><text fill="#000000" font-family="sans-serif" font-size="13" lengthAdjust="spacing" textLength="184" x="187" y="539.4229">vehicleListDTO.add(vehicleDTO)</text><line style="stroke:#181818;stroke-width:1.0;" x1="162" x2="204" y1="595.9766" y2="595.9766"/><line style="stroke:#181818;stroke-width:1.0;" x1="204" x2="204" y1="595.9766" y2="608.9766"/><line style="stroke:#181818;stroke-width:1.0;" x1="163" x2="204" y1="608.9766" y2="608.9766"/><polygon fill="#181818" points="173,604.9766,163,608.9766,173,612.9766,169,608.9766" style="stroke:#181818;stroke-width:1.0;"/><text fill="#000000" font-family="sans-serif" font-size="13" font-weight="bold" lengthAdjust="spacing" textLength="14" x="169" y="590.7139">12</text><text fill="#000000" font-family="sans-serif" font-size="13" lengthAdjust="spacing" textLength="86" x="187" y="590.7139">vehicleListDTO</text><!--SRC=[TLJ1Yi8m5BpdAuAdAhWVu651rCE2YukAfuKbspxRO9kK9Be8Vlo-fabjczX3ASdCP6RwMdtXecQALRIIGgQ5aXLGewv0TBTJi_J2SZYOUmbKGMgOoCi-G1SiatzSvFJCIWs466uGUbZ_v61EKF2qX2tNPdtS4SAkHefhzGkA4AGRdlAQ2KCdYwNMF1SEhuzo8uowBtCG6Lj9V9Pb2Mf2cQQhutuxPk-XbfeRgJXe2zflldP3ZEf1laMSyI4qvajXoBorfZh67UcdyPhL25R7FXtWazMrIpDOYQEnkJxK5ebLfeRVc07NHtEdytSRWoueTk_395D2yUhmjXgxr5mMFqUY5LZGVaqMb464sJ_DdzEU6bGGExxhUM2Z4-hP2RgFUHhAUM-1au71PYJ7rYAlp_iBnKAJZUJOtWj9xp4YOFSVZqVxK4fPqxDK52KBZwDSX9HHx7QWKDj879Z4mUE1tV2Dmpg9foOApMQXv2jUaCzEhWU79JaRJNOFQaD5YqAnDvPboLDxIl1lOHjxVWvH7duz_m00]--></g></svg>