<?xml version="1.0" encoding="us-ascii" standalone="no"?><svg xmlns="http://www.w3.org/2000/svg" xmlns:xlink="http://www.w3.org/1999/xlink" contentStyleType="text/css" height="501px" preserveAspectRatio="none" style="width:863px;height:501px;background:#FFFFFF;" version="1.1" viewBox="0 0 863 501" width="863px" zoomAndPan="magnify"><defs/><g><text fill="#000000" font-family="sans-serif" font-size="14" font-weight="bold" lengthAdjust="spacing" textLength="225" x="320.5" y="30.1074">SD_getVehicleListDomainObject</text><rect fill="#FFFFFF" height="328.9102" style="stroke:#181818;stroke-width:1.0;" width="10" x="128.5" y="106.8633"/><rect fill="#FFFFFF" height="296.6191" style="stroke:#181818;stroke-width:1.0;" width="10" x="377.5" y="130.1543"/><rect fill="#FFFFFF" height="31.291" style="stroke:#181818;stroke-width:1.0;" width="10" x="544.5" y="161.4453"/><rect fill="#FFFFFF" height="31.291" style="stroke:#181818;stroke-width:1.0;" width="10" x="651.5" y="224.0273"/><rect fill="#FFFFFF" height="31.291" style="stroke:#181818;stroke-width:1.0;" width="10" x="776" y="312.9004"/><rect fill="none" height="126.1641" style="stroke:#000000;stroke-width:1.5;" width="540.5" x="316.5" y="270.3184"/><line style="stroke:#181818;stroke-width:0.5;stroke-dasharray:5.0,5.0;" x1="133" x2="133" y1="96.8633" y2="444.7734"/><line style="stroke:#181818;stroke-width:0.5;stroke-dasharray:5.0,5.0;" x1="382.5" x2="382.5" y1="96.8633" y2="444.7734"/><line style="stroke:#181818;stroke-width:0.5;stroke-dasharray:5.0,5.0;" x1="549" x2="549" y1="96.8633" y2="444.7734"/><line style="stroke:#181818;stroke-width:0.5;stroke-dasharray:5.0,5.0;" x1="656" x2="656" y1="96.8633" y2="444.7734"/><line style="stroke:#181818;stroke-width:0.5;stroke-dasharray:5.0,5.0;" x1="781" x2="781" y1="96.8633" y2="444.7734"/><rect fill="#E3E3E3" height="32.6211" rx="2.5" ry="2.5" style="stroke:#181818;stroke-width:0.5;" width="257" x="5" y="63.2422"/><text fill="#000000" font-family="sans-serif" font-size="14" lengthAdjust="spacing" textLength="243" x="12" y="85.3496">:AssignTeamToEntryAgendaController</text><rect fill="#E3E3E3" height="32.6211" rx="2.5" ry="2.5" style="stroke:#181818;stroke-width:0.5;" width="257" x="5" y="443.7734"/><text fill="#000000" font-family="sans-serif" font-size="14" lengthAdjust="spacing" textLength="243" x="12" y="465.8809">:AssignTeamToEntryAgendaController</text><rect fill="#E3E3E3" height="32.6211" rx="2.5" ry="2.5" style="stroke:#181818;stroke-width:0.5;" width="112" x="326.5" y="63.2422"/><text fill="#000000" font-family="sans-serif" font-size="14" lengthAdjust="spacing" textLength="98" x="333.5" y="85.3496">:VehicleMapper</text><rect fill="#E3E3E3" height="32.6211" rx="2.5" ry="2.5" style="stroke:#181818;stroke-width:0.5;" width="112" x="326.5" y="443.7734"/><text fill="#000000" font-family="sans-serif" font-size="14" lengthAdjust="spacing" textLength="98" x="333.5" y="465.8809">:VehicleMapper</text><rect fill="#E3E3E3" height="32.6211" rx="2.5" ry="2.5" style="stroke:#181818;stroke-width:0.5;" width="97" x="501" y="63.2422"/><text fill="#000000" font-family="sans-serif" font-size="14" lengthAdjust="spacing" textLength="83" x="508" y="85.3496">:Repositories</text><rect fill="#E3E3E3" height="32.6211" rx="2.5" ry="2.5" style="stroke:#181818;stroke-width:0.5;" width="97" x="501" y="443.7734"/><text fill="#000000" font-family="sans-serif" font-size="14" lengthAdjust="spacing" textLength="83" x="508" y="465.8809">:Repositories</text><rect fill="#E3E3E3" height="51.2422" rx="2.5" ry="2.5" style="stroke:#181818;stroke-width:0.5;" width="97" x="608" y="44.6211"/><text fill="#000000" font-family="sans-serif" font-size="14" lengthAdjust="spacing" textLength="74" x="619.5" y="66.7285">repositories</text><text fill="#000000" font-family="sans-serif" font-size="14" lengthAdjust="spacing" textLength="83" x="615" y="85.3496">:Repositories</text><rect fill="#E3E3E3" height="51.2422" rx="2.5" ry="2.5" style="stroke:#181818;stroke-width:0.5;" width="97" x="608" y="443.7734"/><text fill="#000000" font-family="sans-serif" font-size="14" lengthAdjust="spacing" textLength="74" x="619.5" y="465.8809">repositories</text><text fill="#000000" font-family="sans-serif" font-size="14" lengthAdjust="spacing" textLength="83" x="615" y="484.502">:Repositories</text><rect fill="#E3E3E3" height="51.2422" rx="2.5" ry="2.5" style="stroke:#181818;stroke-width:0.5;" width="132" x="715" y="44.6211"/><text fill="#000000" font-family="sans-serif" font-size="14" lengthAdjust="spacing" textLength="112" x="725" y="66.7285">vehicleRepository</text><text fill="#000000" font-family="sans-serif" font-size="14" lengthAdjust="spacing" textLength="118" x="722" y="85.3496">:VehicleRepository</text><rect fill="#E3E3E3" height="51.2422" rx="2.5" ry="2.5" style="stroke:#181818;stroke-width:0.5;" width="132" x="715" y="443.7734"/><text fill="#000000" font-family="sans-serif" font-size="14" lengthAdjust="spacing" textLength="112" x="725" y="465.8809">vehicleRepository</text><text fill="#000000" font-family="sans-serif" font-size="14" lengthAdjust="spacing" textLength="118" x="722" y="484.502">:VehicleRepository</text><rect fill="#FFFFFF" height="328.9102" style="stroke:#181818;stroke-width:1.0;" width="10" x="128.5" y="106.8633"/><rect fill="#FFFFFF" height="296.6191" style="stroke:#181818;stroke-width:1.0;" width="10" x="377.5" y="130.1543"/><rect fill="#FFFFFF" height="31.291" style="stroke:#181818;stroke-width:1.0;" width="10" x="544.5" y="161.4453"/><rect fill="#FFFFFF" height="31.291" style="stroke:#181818;stroke-width:1.0;" width="10" x="651.5" y="224.0273"/><rect fill="#FFFFFF" height="31.291" style="stroke:#181818;stroke-width:1.0;" width="10" x="776" y="312.9004"/><polygon fill="#181818" points="365.5,126.1543,375.5,130.1543,365.5,134.1543,369.5,130.1543" style="stroke:#181818;stroke-width:1.0;"/><line style="stroke:#181818;stroke-width:1.0;" x1="138.5" x2="371.5" y1="130.1543" y2="130.1543"/><text fill="#000000" font-family="sans-serif" font-size="13" font-weight="bold" lengthAdjust="spacing" textLength="7" x="145.5" y="124.8916">1</text><text fill="#000000" font-family="sans-serif" font-size="13" lengthAdjust="spacing" textLength="209" x="156.5" y="124.8916">toDomainList(selectedVehiclesDTO)</text><polygon fill="#181818" points="532.5,157.4453,542.5,161.4453,532.5,165.4453,536.5,161.4453" style="stroke:#181818;stroke-width:1.0;"/><line style="stroke:#181818;stroke-width:1.0;" x1="387.5" x2="538.5" y1="161.4453" y2="161.4453"/><text fill="#000000" font-family="sans-serif" font-size="13" font-weight="bold" lengthAdjust="spacing" textLength="7" x="394.5" y="156.1826">2</text><text fill="#000000" font-family="sans-serif" font-size="13" lengthAdjust="spacing" textLength="75" x="405.5" y="156.1826">getInstance()</text><polygon fill="#181818" points="398.5,188.7363,388.5,192.7363,398.5,196.7363,394.5,192.7363" style="stroke:#181818;stroke-width:1.0;"/><line style="stroke:#181818;stroke-width:1.0;stroke-dasharray:2.0,2.0;" x1="392.5" x2="548.5" y1="192.7363" y2="192.7363"/><text fill="#000000" font-family="sans-serif" font-size="13" font-weight="bold" lengthAdjust="spacing" textLength="7" x="404.5" y="187.4736">3</text><text fill="#000000" font-family="sans-serif" font-size="13" lengthAdjust="spacing" textLength="67" x="415.5" y="187.4736">repositories</text><polygon fill="#181818" points="639.5,220.0273,649.5,224.0273,639.5,228.0273,643.5,224.0273" style="stroke:#181818;stroke-width:1.0;"/><line style="stroke:#181818;stroke-width:1.0;" x1="387.5" x2="645.5" y1="224.0273" y2="224.0273"/><text fill="#000000" font-family="sans-serif" font-size="13" font-weight="bold" lengthAdjust="spacing" textLength="7" x="394.5" y="218.7646">4</text><text fill="#000000" font-family="sans-serif" font-size="13" lengthAdjust="spacing" textLength="131" x="405.5" y="218.7646">getVehicleRepository()</text><polygon fill="#181818" points="398.5,251.3184,388.5,255.3184,398.5,259.3184,394.5,255.3184" style="stroke:#181818;stroke-width:1.0;"/><line style="stroke:#181818;stroke-width:1.0;stroke-dasharray:2.0,2.0;" x1="392.5" x2="655.5" y1="255.3184" y2="255.3184"/><text fill="#000000" font-family="sans-serif" font-size="13" font-weight="bold" lengthAdjust="spacing" textLength="7" x="404.5" y="250.0557">5</text><text fill="#000000" font-family="sans-serif" font-size="13" lengthAdjust="spacing" textLength="101" x="415.5" y="250.0557">vehicleRepository</text><path d="M316.5,270.3184 L389.5,270.3184 L389.5,279.6094 L379.5,289.6094 L316.5,289.6094 L316.5,270.3184 " fill="#EEEEEE" style="stroke:#000000;stroke-width:1.5;"/><rect fill="none" height="126.1641" style="stroke:#000000;stroke-width:1.5;" width="540.5" x="316.5" y="270.3184"/><text fill="#000000" font-family="sans-serif" font-size="13" font-weight="bold" lengthAdjust="spacing" textLength="28" x="331.5" y="285.3467">loop</text><text fill="#000000" font-family="sans-serif" font-size="11" font-weight="bold" lengthAdjust="spacing" textLength="259" x="404.5" y="284.1885">[for each vehicleDTO in (selectedVehiclesDTO)]</text><polygon fill="#181818" points="764,308.9004,774,312.9004,764,316.9004,768,312.9004" style="stroke:#181818;stroke-width:1.0;"/><line style="stroke:#181818;stroke-width:1.0;" x1="387.5" x2="770" y1="312.9004" y2="312.9004"/><text fill="#000000" font-family="sans-serif" font-size="13" font-weight="bold" lengthAdjust="spacing" textLength="7" x="394.5" y="307.6377">6</text><text fill="#000000" font-family="sans-serif" font-size="13" lengthAdjust="spacing" textLength="234" x="405.5" y="307.6377">getVehicleByPlateId(vehicleDTO.plateID)</text><polygon fill="#181818" points="398.5,340.1914,388.5,344.1914,398.5,348.1914,394.5,344.1914" style="stroke:#181818;stroke-width:1.0;"/><line style="stroke:#181818;stroke-width:1.0;stroke-dasharray:2.0,2.0;" x1="392.5" x2="780" y1="344.1914" y2="344.1914"/><text fill="#000000" font-family="sans-serif" font-size="13" font-weight="bold" lengthAdjust="spacing" textLength="7" x="404.5" y="338.9287">7</text><text fill="#000000" font-family="sans-serif" font-size="13" lengthAdjust="spacing" textLength="39" x="415.5" y="338.9287">vehicle</text><line style="stroke:#181818;stroke-width:1.0;stroke-dasharray:2.0,2.0;" x1="387.5" x2="429.5" y1="375.4824" y2="375.4824"/><line style="stroke:#181818;stroke-width:1.0;stroke-dasharray:2.0,2.0;" x1="429.5" x2="429.5" y1="375.4824" y2="388.4824"/><line style="stroke:#181818;stroke-width:1.0;stroke-dasharray:2.0,2.0;" x1="388.5" x2="429.5" y1="388.4824" y2="388.4824"/><polygon fill="#181818" points="398.5,384.4824,388.5,388.4824,398.5,392.4824,394.5,388.4824" style="stroke:#181818;stroke-width:1.0;"/><text fill="#000000" font-family="sans-serif" font-size="13" font-weight="bold" lengthAdjust="spacing" textLength="7" x="394.5" y="370.2197">8</text><text fill="#000000" font-family="sans-serif" font-size="13" lengthAdjust="spacing" textLength="132" x="405.5" y="370.2197">vehicleList.add(vehicle)</text><polygon fill="#181818" points="149.5,422.7734,139.5,426.7734,149.5,430.7734,145.5,426.7734" style="stroke:#181818;stroke-width:1.0;"/><line style="stroke:#181818;stroke-width:1.0;stroke-dasharray:2.0,2.0;" x1="143.5" x2="381.5" y1="426.7734" y2="426.7734"/><text fill="#000000" font-family="sans-serif" font-size="13" font-weight="bold" lengthAdjust="spacing" textLength="7" x="155.5" y="421.5107">9</text><text fill="#000000" font-family="sans-serif" font-size="13" lengthAdjust="spacing" textLength="60" x="166.5" y="421.5107">vehicleList</text><!--SRC=[VLJ1Ri8m3BttAo9ExC0-WCCa1XoGc41GSPeqcTQq6MbI9O6fVxyqRKD3KtoAdEVdv-Uqwafv2H8AKWWkaboA0ecMDuoKkoaXkKA6Hrqn918J3JnZVO3A8HL_b6Va0anX56cg3VIu-ibGdp2d2SCjLNeb2g1yT_ur7544DotuhJYZZ4mO9aqJMWBNP39VA4Kp7YCKiLXpBQj5XZo5fJ1dmHZA2G55bl5X-rpPjlk2icnHNkO9VS1IAAg5fAWi-B3UxtoCx46-URXYmvKn9K6_yjuqTXMLAJyzv_eI7zd81J41YQPtqDWER7FraSm-_Ed8d6ZHk5pxFLN8ZDMOjY2rYdTlFgDlZhtp6KsBUaB3R7RPpJbjM3mcwvnBrs7hPW6DVKjTHOeZL44zdP96ry2_CO5kKGEXZZ0aUB39CTMElxjt1oP4IIv24bEGTuHc7uHoChudZs9Wn61iputFQi-ChaqwVNHxBsrg5R0dy0Rx7WrxlJ0gP4_eZOzCDavSl-ftIDr80PVCVyAQ_OhTVZmUQIjcgBVxCfhu1m00]--></g></svg>