<?xml version="1.0" encoding="us-ascii" standalone="no"?><svg xmlns="http://www.w3.org/2000/svg" xmlns:xlink="http://www.w3.org/1999/xlink" contentStyleType="text/css" height="1787px" preserveAspectRatio="none" style="width:2157px;height:1787px;background:#FFFFFF;" version="1.1" viewBox="0 0 2157 1787" width="2157px" zoomAndPan="magnify"><defs/><g><text fill="#000000" font-family="sans-serif" font-size="14" font-weight="bold" lengthAdjust="spacing" textLength="188" x="986.25" y="30.1074">US026 - Sequence Diagram</text><rect fill="#FFFFFF" height="1524.8242" style="stroke:#181818;stroke-width:1.0;" width="10" x="60" y="151.8633"/><rect fill="#FFFFFF" height="234.377" style="stroke:#181818;stroke-width:1.0;" width="10" x="460" y="175.1543"/><rect fill="#FFFFFF" height="151.873" style="stroke:#181818;stroke-width:1.0;" width="10" x="460" y="440.8223"/><rect fill="#FFFFFF" height="726.7422" style="stroke:#181818;stroke-width:1.0;" width="10" x="460" y="940.9453"/><rect fill="#FFFFFF" height="209.377" style="stroke:#181818;stroke-width:1.0;" width="10" x="767" y="592.6953"/><rect fill="#FFFFFF" height="107.582" style="stroke:#181818;stroke-width:1.0;" width="10" x="767" y="833.3633"/><rect fill="#FFFFFF" height="120.5039" style="stroke:#181818;stroke-width:1.0;" width="10" x="951" y="206.4453"/><rect fill="#FFFFFF" height="95.5039" style="stroke:#181818;stroke-width:1.0;" width="10" x="1162.5" y="623.9863"/><rect fill="#FFFFFF" height="569.8691" style="stroke:#181818;stroke-width:1.0;" width="10" x="1162.5" y="1066.5273"/><rect fill="#FFFFFF" height="31.291" style="stroke:#181818;stroke-width:1.0;" width="10" x="1358" y="1206.3223"/><rect fill="#FFFFFF" height="31.291" style="stroke:#181818;stroke-width:1.0;" width="10" x="1465" y="1268.9043"/><rect fill="#FFFFFF" height="256.3281" style="stroke:#181818;stroke-width:1.0;" width="10" x="1591" y="1348.7773"/><rect fill="#FFFFFF" height="86.2031" style="stroke:#181818;stroke-width:1.0;" width="10" x="1802.5" y="1390.0684"/><rect fill="none" height="151.1641" style="stroke:#000000;stroke-width:1.5;" width="632" x="10" y="366.9492"/><rect fill="none" height="126.1641" style="stroke:#000000;stroke-width:1.5;" width="946" x="10" y="759.4902"/><rect fill="none" height="167.416" style="stroke:#000000;stroke-width:1.5;" width="386.5" x="1765" y="1407.3984"/><rect fill="none" height="134.125" style="stroke:#000000;stroke-width:1.5;" width="366.5" x="1775" y="1433.6895"/><line style="stroke:#181818;stroke-width:0.5;stroke-dasharray:5.0,5.0;" x1="65" x2="65" y1="141.8633" y2="1685.6875"/><line style="stroke:#181818;stroke-width:0.5;stroke-dasharray:5.0,5.0;" x1="464.5" x2="464.5" y1="141.8633" y2="1685.6875"/><line style="stroke:#181818;stroke-width:0.5;stroke-dasharray:5.0,5.0;" x1="771.5" x2="771.5" y1="141.8633" y2="1685.6875"/><line style="stroke:#181818;stroke-width:0.5;stroke-dasharray:5.0,5.0;" x1="955.5" x2="955.5" y1="141.8633" y2="1685.6875"/><line style="stroke:#181818;stroke-width:0.5;stroke-dasharray:5.0,5.0;" x1="1167.5" x2="1167.5" y1="141.8633" y2="1685.6875"/><line style="stroke:#181818;stroke-width:0.5;stroke-dasharray:5.0,5.0;" x1="1362.5" x2="1362.5" y1="141.8633" y2="1685.6875"/><line style="stroke:#181818;stroke-width:0.5;stroke-dasharray:5.0,5.0;" x1="1469.5" x2="1469.5" y1="141.8633" y2="1685.6875"/><line style="stroke:#181818;stroke-width:0.5;stroke-dasharray:5.0,5.0;" x1="1595.5" x2="1595.5" y1="141.8633" y2="1685.6875"/><line style="stroke:#181818;stroke-width:0.5;stroke-dasharray:5.0,5.0;" x1="1807" x2="1807" y1="1388.5879" y2="1685.6875"/><line style="stroke:#181818;stroke-width:0.5;stroke-dasharray:5.0,5.0;" x1="2045.5" x2="2045.5" y1="1484.791" y2="1685.6875"/><line style="stroke:#181818;stroke-width:0.5;stroke-dasharray:5.0,5.0;" x1="2110.5" x2="2110.5" y1="141.8633" y2="1685.6875"/><text fill="#000000" font-family="sans-serif" font-size="14" lengthAdjust="spacing" textLength="84" x="20" y="119.7285">Green Space</text><text fill="#000000" font-family="sans-serif" font-size="14" lengthAdjust="spacing" textLength="56" x="34" y="138.3496">Manager</text><ellipse cx="65" cy="53.1211" fill="#E3E3E3" rx="8" ry="8" style="stroke:#181818;stroke-width:0.5;"/><path d="M65,61.1211 L65,88.1211 M52,69.1211 L78,69.1211 M65,88.1211 L52,103.1211 M65,88.1211 L78,103.1211 " fill="none" style="stroke:#181818;stroke-width:0.5;"/><text fill="#000000" font-family="sans-serif" font-size="14" lengthAdjust="spacing" textLength="84" x="20" y="1699.7949">Green Space</text><text fill="#000000" font-family="sans-serif" font-size="14" lengthAdjust="spacing" textLength="56" x="34" y="1718.416">Manager</text><ellipse cx="65" cy="1730.4297" fill="#E3E3E3" rx="8" ry="8" style="stroke:#181818;stroke-width:0.5;"/><path d="M65,1738.4297 L65,1765.4297 M52,1746.4297 L78,1746.4297 M65,1765.4297 L52,1780.4297 M65,1765.4297 L78,1780.4297 " fill="none" style="stroke:#181818;stroke-width:0.5;"/><rect fill="#E3E3E3" height="32.6211" rx="2.5" ry="2.5" style="stroke:#181818;stroke-width:0.5;" width="79" x="425.5" y="108.2422"/><text fill="#000000" font-family="sans-serif" font-size="14" lengthAdjust="spacing" textLength="65" x="432.5" y="130.3496">:AgendaUI</text><rect fill="#E3E3E3" height="32.6211" rx="2.5" ry="2.5" style="stroke:#181818;stroke-width:0.5;" width="79" x="425.5" y="1684.6875"/><text fill="#000000" font-family="sans-serif" font-size="14" lengthAdjust="spacing" textLength="65" x="432.5" y="1706.7949">:AgendaUI</text><rect fill="#E3E3E3" height="32.6211" rx="2.5" ry="2.5" style="stroke:#181818;stroke-width:0.5;" width="163" x="690.5" y="108.2422"/><text fill="#000000" font-family="sans-serif" font-size="14" lengthAdjust="spacing" textLength="149" x="697.5" y="130.3496">:SelectVehiclesPopupUI</text><rect fill="#E3E3E3" height="32.6211" rx="2.5" ry="2.5" style="stroke:#181818;stroke-width:0.5;" width="163" x="690.5" y="1684.6875"/><text fill="#000000" font-family="sans-serif" font-size="14" lengthAdjust="spacing" textLength="149" x="697.5" y="1706.7949">:SelectVehiclesPopupUI</text><rect fill="#E3E3E3" height="32.6211" rx="2.5" ry="2.5" style="stroke:#181818;stroke-width:0.5;" width="129" x="891.5" y="108.2422"/><text fill="#000000" font-family="sans-serif" font-size="14" lengthAdjust="spacing" textLength="115" x="898.5" y="130.3496">:AgendaController</text><rect fill="#E3E3E3" height="32.6211" rx="2.5" ry="2.5" style="stroke:#181818;stroke-width:0.5;" width="129" x="891.5" y="1684.6875"/><text fill="#000000" font-family="sans-serif" font-size="14" lengthAdjust="spacing" textLength="115" x="898.5" y="1706.7949">:AgendaController</text><rect fill="#E3E3E3" height="32.6211" rx="2.5" ry="2.5" style="stroke:#181818;stroke-width:0.5;" width="274" x="1030.5" y="108.2422"/><text fill="#000000" font-family="sans-serif" font-size="14" lengthAdjust="spacing" textLength="260" x="1037.5" y="130.3496">:AssignVehiclesToEntryAgendaController</text><rect fill="#E3E3E3" height="32.6211" rx="2.5" ry="2.5" style="stroke:#181818;stroke-width:0.5;" width="274" x="1030.5" y="1684.6875"/><text fill="#000000" font-family="sans-serif" font-size="14" lengthAdjust="spacing" textLength="260" x="1037.5" y="1706.7949">:AssignVehiclesToEntryAgendaController</text><rect fill="#E3E3E3" height="32.6211" rx="2.5" ry="2.5" style="stroke:#181818;stroke-width:0.5;" width="97" x="1314.5" y="108.2422"/><text fill="#000000" font-family="sans-serif" font-size="14" lengthAdjust="spacing" textLength="83" x="1321.5" y="130.3496">:Repositories</text><rect fill="#E3E3E3" height="32.6211" rx="2.5" ry="2.5" style="stroke:#181818;stroke-width:0.5;" width="97" x="1314.5" y="1684.6875"/><text fill="#000000" font-family="sans-serif" font-size="14" lengthAdjust="spacing" textLength="83" x="1321.5" y="1706.7949">:Repositories</text><rect fill="#E3E3E3" height="51.2422" rx="2.5" ry="2.5" style="stroke:#181818;stroke-width:0.5;" width="97" x="1421.5" y="89.6211"/><text fill="#000000" font-family="sans-serif" font-size="14" lengthAdjust="spacing" textLength="74" x="1433" y="111.7285">repositories</text><text fill="#000000" font-family="sans-serif" font-size="14" lengthAdjust="spacing" textLength="83" x="1428.5" y="130.3496">:Repositories</text><rect fill="#E3E3E3" height="51.2422" rx="2.5" ry="2.5" style="stroke:#181818;stroke-width:0.5;" width="97" x="1421.5" y="1684.6875"/><text fill="#000000" font-family="sans-serif" font-size="14" lengthAdjust="spacing" textLength="74" x="1433" y="1706.7949">repositories</text><text fill="#000000" font-family="sans-serif" font-size="14" lengthAdjust="spacing" textLength="83" x="1428.5" y="1725.416">:Repositories</text><rect fill="#E3E3E3" height="51.2422" rx="2.5" ry="2.5" style="stroke:#181818;stroke-width:0.5;" width="135" x="1528.5" y="89.6211"/><text fill="#000000" font-family="sans-serif" font-size="14" lengthAdjust="spacing" textLength="116" x="1538" y="111.7285">agendaRepository</text><text fill="#000000" font-family="sans-serif" font-size="14" lengthAdjust="spacing" textLength="121" x="1535.5" y="130.3496">:AgendaRepository</text><rect fill="#E3E3E3" height="51.2422" rx="2.5" ry="2.5" style="stroke:#181818;stroke-width:0.5;" width="135" x="1528.5" y="1684.6875"/><text fill="#000000" font-family="sans-serif" font-size="14" lengthAdjust="spacing" textLength="116" x="1538" y="1706.7949">agendaRepository</text><text fill="#000000" font-family="sans-serif" font-size="14" lengthAdjust="spacing" textLength="121" x="1535.5" y="1725.416">:AgendaRepository</text><rect fill="#E3E3E3" height="32.6211" rx="2.5" ry="2.5" style="stroke:#181818;stroke-width:0.5;" width="45" x="1785" y="1684.6875"/><text fill="#000000" font-family="sans-serif" font-size="14" lengthAdjust="spacing" textLength="31" x="1792" y="1706.7949">Task</text><rect fill="#E3E3E3" height="32.6211" rx="2.5" ry="2.5" style="stroke:#181818;stroke-width:0.5;" width="60" x="2015.5" y="1684.6875"/><text fill="#000000" font-family="sans-serif" font-size="14" lengthAdjust="spacing" textLength="46" x="2022.5" y="1706.7949">Vehicle</text><rect fill="#E3E3E3" height="32.6211" rx="2.5" ry="2.5" style="stroke:#181818;stroke-width:0.5;" width="50" x="2085.5" y="108.2422"/><text fill="#000000" font-family="sans-serif" font-size="14" lengthAdjust="spacing" textLength="36" x="2092.5" y="130.3496">Team</text><rect fill="#E3E3E3" height="32.6211" rx="2.5" ry="2.5" style="stroke:#181818;stroke-width:0.5;" width="50" x="2085.5" y="1684.6875"/><text fill="#000000" font-family="sans-serif" font-size="14" lengthAdjust="spacing" textLength="36" x="2092.5" y="1706.7949">Team</text><rect fill="#FFFFFF" height="1524.8242" style="stroke:#181818;stroke-width:1.0;" width="10" x="60" y="151.8633"/><rect fill="#FFFFFF" height="234.377" style="stroke:#181818;stroke-width:1.0;" width="10" x="460" y="175.1543"/><rect fill="#FFFFFF" height="151.873" style="stroke:#181818;stroke-width:1.0;" width="10" x="460" y="440.8223"/><rect fill="#FFFFFF" height="726.7422" style="stroke:#181818;stroke-width:1.0;" width="10" x="460" y="940.9453"/><rect fill="#FFFFFF" height="209.377" style="stroke:#181818;stroke-width:1.0;" width="10" x="767" y="592.6953"/><rect fill="#FFFFFF" height="107.582" style="stroke:#181818;stroke-width:1.0;" width="10" x="767" y="833.3633"/><rect fill="#FFFFFF" height="120.5039" style="stroke:#181818;stroke-width:1.0;" width="10" x="951" y="206.4453"/><rect fill="#FFFFFF" height="95.5039" style="stroke:#181818;stroke-width:1.0;" width="10" x="1162.5" y="623.9863"/><rect fill="#FFFFFF" height="569.8691" style="stroke:#181818;stroke-width:1.0;" width="10" x="1162.5" y="1066.5273"/><rect fill="#FFFFFF" height="31.291" style="stroke:#181818;stroke-width:1.0;" width="10" x="1358" y="1206.3223"/><rect fill="#FFFFFF" height="31.291" style="stroke:#181818;stroke-width:1.0;" width="10" x="1465" y="1268.9043"/><rect fill="#FFFFFF" height="256.3281" style="stroke:#181818;stroke-width:1.0;" width="10" x="1591" y="1348.7773"/><rect fill="#FFFFFF" height="86.2031" style="stroke:#181818;stroke-width:1.0;" width="10" x="1802.5" y="1390.0684"/><polygon fill="#181818" points="448,171.1543,458,175.1543,448,179.1543,452,175.1543" style="stroke:#181818;stroke-width:1.0;"/><line style="stroke:#181818;stroke-width:1.0;" x1="70" x2="454" y1="175.1543" y2="175.1543"/><text fill="#000000" font-family="sans-serif" font-size="13" font-weight="bold" lengthAdjust="spacing" textLength="7" x="77" y="169.8916">1</text><text fill="#000000" font-family="sans-serif" font-size="13" lengthAdjust="spacing" textLength="360" x="88" y="169.8916">Asks to assign one or more vehicles to an entry in the Agenda</text><polygon fill="#181818" points="939,202.4453,949,206.4453,939,210.4453,943,206.4453" style="stroke:#181818;stroke-width:1.0;"/><line style="stroke:#181818;stroke-width:1.0;" x1="470" x2="945" y1="206.4453" y2="206.4453"/><text fill="#000000" font-family="sans-serif" font-size="13" font-weight="bold" lengthAdjust="spacing" textLength="7" x="477" y="201.1826">2</text><text fill="#000000" font-family="sans-serif" font-size="13" lengthAdjust="spacing" textLength="195" x="488" y="201.1826">getAgendaTaskDTOManagerList()</text><rect fill="none" height="59.2129" style="stroke:#000000;stroke-width:1.5;" width="192" x="888.5" y="239.4453"/><path d="M888.5,239.4453 L950.5,239.4453 L950.5,248.4453 L940.5,258.4453 L888.5,258.4453 L888.5,239.4453 " fill="#EEEEEE" style="stroke:#000000;stroke-width:2.0;"/><text fill="#000000" font-family="sans-serif" font-size="13" font-weight="bold" lengthAdjust="spacing" textLength="17" x="901.5" y="255.4736">ref</text><text fill="#000000" font-family="sans-serif" font-size="12" lengthAdjust="spacing" textLength="184" x="892.5" y="275.3945">SD_managerSpecificAgendaDTO</text><text fill="#000000" font-family="sans-serif" font-size="12" lengthAdjust="spacing" textLength="3" x="983" y="291.3555">&#160;</text><polygon fill="#181818" points="481,322.9492,471,326.9492,481,330.9492,477,326.9492" style="stroke:#181818;stroke-width:1.0;"/><line style="stroke:#181818;stroke-width:1.0;stroke-dasharray:2.0,2.0;" x1="475" x2="955" y1="326.9492" y2="326.9492"/><text fill="#000000" font-family="sans-serif" font-size="13" font-weight="bold" lengthAdjust="spacing" textLength="7" x="487" y="321.6865">3</text><text fill="#000000" font-family="sans-serif" font-size="13" lengthAdjust="spacing" textLength="166" x="498" y="321.6865">managerSpecificAgendaDTO</text><path d="M10,366.9492 L83,366.9492 L83,376.2402 L73,386.2402 L10,386.2402 L10,366.9492 " fill="#EEEEEE" style="stroke:#000000;stroke-width:1.5;"/><rect fill="none" height="151.1641" style="stroke:#000000;stroke-width:1.5;" width="632" x="10" y="366.9492"/><text fill="#000000" font-family="sans-serif" font-size="13" font-weight="bold" lengthAdjust="spacing" textLength="28" x="25" y="381.9775">loop</text><text fill="#000000" font-family="sans-serif" font-size="11" font-weight="bold" lengthAdjust="spacing" textLength="189" x="98" y="380.8193">[until doesn't select a valid option]</text><polygon fill="#181818" points="81,405.5313,71,409.5313,81,413.5313,77,409.5313" style="stroke:#181818;stroke-width:1.0;"/><line style="stroke:#181818;stroke-width:1.0;stroke-dasharray:2.0,2.0;" x1="75" x2="464" y1="409.5313" y2="409.5313"/><text fill="#000000" font-family="sans-serif" font-size="13" font-weight="bold" lengthAdjust="spacing" textLength="7" x="87" y="404.2686">4</text><text fill="#000000" font-family="sans-serif" font-size="13" lengthAdjust="spacing" textLength="350" x="98" y="404.2686">Shows the list of tasks in the agenda and asks to select one</text><polygon fill="#181818" points="448,436.8223,458,440.8223,448,444.8223,452,440.8223" style="stroke:#181818;stroke-width:1.0;"/><line style="stroke:#181818;stroke-width:1.0;" x1="70" x2="454" y1="440.8223" y2="440.8223"/><text fill="#000000" font-family="sans-serif" font-size="13" font-weight="bold" lengthAdjust="spacing" textLength="7" x="77" y="435.5596">5</text><text fill="#000000" font-family="sans-serif" font-size="13" lengthAdjust="spacing" textLength="84" x="88" y="435.5596">Selects a task</text><line style="stroke:#181818;stroke-width:1.0;stroke-dasharray:2.0,2.0;" x1="470" x2="512" y1="472.1133" y2="472.1133"/><line style="stroke:#181818;stroke-width:1.0;stroke-dasharray:2.0,2.0;" x1="512" x2="512" y1="472.1133" y2="485.1133"/><line style="stroke:#181818;stroke-width:1.0;stroke-dasharray:2.0,2.0;" x1="471" x2="512" y1="485.1133" y2="485.1133"/><polygon fill="#181818" points="481,481.1133,471,485.1133,481,489.1133,477,485.1133" style="stroke:#181818;stroke-width:1.0;"/><text fill="#000000" font-family="sans-serif" font-size="13" font-weight="bold" lengthAdjust="spacing" textLength="7" x="477" y="466.8506">6</text><text fill="#000000" font-family="sans-serif" font-size="13" lengthAdjust="spacing" textLength="142" x="488" y="466.8506">validates selected option</text><line style="stroke:#181818;stroke-width:1.0;stroke-dasharray:2.0,2.0;" x1="470" x2="512" y1="548.4043" y2="548.4043"/><line style="stroke:#181818;stroke-width:1.0;stroke-dasharray:2.0,2.0;" x1="512" x2="512" y1="548.4043" y2="561.4043"/><line style="stroke:#181818;stroke-width:1.0;stroke-dasharray:2.0,2.0;" x1="471" x2="512" y1="561.4043" y2="561.4043"/><polygon fill="#181818" points="481,557.4043,471,561.4043,481,565.4043,477,561.4043" style="stroke:#181818;stroke-width:1.0;"/><text fill="#000000" font-family="sans-serif" font-size="13" font-weight="bold" lengthAdjust="spacing" textLength="7" x="477" y="543.1416">7</text><text fill="#000000" font-family="sans-serif" font-size="13" lengthAdjust="spacing" textLength="88" x="488" y="543.1416">keepData(task)</text><polygon fill="#181818" points="755,588.6953,765,592.6953,755,596.6953,759,592.6953" style="stroke:#181818;stroke-width:1.0;"/><line style="stroke:#181818;stroke-width:1.0;" x1="465" x2="761" y1="592.6953" y2="592.6953"/><text fill="#000000" font-family="sans-serif" font-size="13" font-weight="bold" lengthAdjust="spacing" textLength="7" x="472" y="587.4326">8</text><text fill="#000000" font-family="sans-serif" font-size="13" lengthAdjust="spacing" textLength="234" x="483" y="587.4326">Shows the popup with the list of vehicles</text><polygon fill="#181818" points="1150.5,619.9863,1160.5,623.9863,1150.5,627.9863,1154.5,623.9863" style="stroke:#181818;stroke-width:1.0;"/><line style="stroke:#181818;stroke-width:1.0;" x1="777" x2="1156.5" y1="623.9863" y2="623.9863"/><text fill="#000000" font-family="sans-serif" font-size="13" font-weight="bold" lengthAdjust="spacing" textLength="7" x="784" y="618.7236">9</text><text fill="#000000" font-family="sans-serif" font-size="13" lengthAdjust="spacing" textLength="76" x="795" y="618.7236">getVehicles()</text><rect fill="none" height="59.2129" style="stroke:#000000;stroke-width:1.5;" width="280" x="1027.5" y="631.9863"/><path d="M1027.5,631.9863 L1089.5,631.9863 L1089.5,640.9863 L1079.5,650.9863 L1027.5,650.9863 L1027.5,631.9863 " fill="#EEEEEE" style="stroke:#000000;stroke-width:2.0;"/><text fill="#000000" font-family="sans-serif" font-size="13" font-weight="bold" lengthAdjust="spacing" textLength="17" x="1040.5" y="648.0146">ref</text><text fill="#000000" font-family="sans-serif" font-size="12" lengthAdjust="spacing" textLength="126" x="1104.5" y="667.9355">SD_getVehicleListDTO</text><text fill="#000000" font-family="sans-serif" font-size="12" lengthAdjust="spacing" textLength="3" x="1166" y="683.8965">&#160;</text><polygon fill="#181818" points="788,715.4902,778,719.4902,788,723.4902,784,719.4902" style="stroke:#181818;stroke-width:1.0;"/><line style="stroke:#181818;stroke-width:1.0;stroke-dasharray:2.0,2.0;" x1="782" x2="1166.5" y1="719.4902" y2="719.4902"/><text fill="#000000" font-family="sans-serif" font-size="13" font-weight="bold" lengthAdjust="spacing" textLength="14" x="794" y="714.2275">10</text><text fill="#000000" font-family="sans-serif" font-size="13" lengthAdjust="spacing" textLength="86" x="812" y="714.2275">vehicleListDTO</text><path d="M10,759.4902 L83,759.4902 L83,768.7813 L73,778.7813 L10,778.7813 L10,759.4902 " fill="#EEEEEE" style="stroke:#000000;stroke-width:1.5;"/><rect fill="none" height="126.1641" style="stroke:#000000;stroke-width:1.5;" width="946" x="10" y="759.4902"/><text fill="#000000" font-family="sans-serif" font-size="13" font-weight="bold" lengthAdjust="spacing" textLength="28" x="25" y="774.5186">loop</text><text fill="#000000" font-family="sans-serif" font-size="11" font-weight="bold" lengthAdjust="spacing" textLength="183" x="98" y="773.3604">[until doesn't choose to advance]</text><polygon fill="#181818" points="81,798.0723,71,802.0723,81,806.0723,77,802.0723" style="stroke:#181818;stroke-width:1.0;"/><line style="stroke:#181818;stroke-width:1.0;stroke-dasharray:2.0,2.0;" x1="75" x2="771" y1="802.0723" y2="802.0723"/><text fill="#000000" font-family="sans-serif" font-size="13" font-weight="bold" lengthAdjust="spacing" textLength="14" x="87" y="796.8096">11</text><text fill="#000000" font-family="sans-serif" font-size="13" lengthAdjust="spacing" textLength="375" x="105" y="796.8096">Shows the list of vehicles and asks to select the vehicles needed</text><polygon fill="#181818" points="755,829.3633,765,833.3633,755,837.3633,759,833.3633" style="stroke:#181818;stroke-width:1.0;"/><line style="stroke:#181818;stroke-width:1.0;" x1="70" x2="761" y1="833.3633" y2="833.3633"/><text fill="#000000" font-family="sans-serif" font-size="13" font-weight="bold" lengthAdjust="spacing" textLength="14" x="77" y="828.1006">12</text><text fill="#000000" font-family="sans-serif" font-size="13" lengthAdjust="spacing" textLength="96" x="95" y="828.1006">selects a vehicle</text><line style="stroke:#181818;stroke-width:1.0;stroke-dasharray:2.0,2.0;" x1="777" x2="819" y1="864.6543" y2="864.6543"/><line style="stroke:#181818;stroke-width:1.0;stroke-dasharray:2.0,2.0;" x1="819" x2="819" y1="864.6543" y2="877.6543"/><line style="stroke:#181818;stroke-width:1.0;stroke-dasharray:2.0,2.0;" x1="778" x2="819" y1="877.6543" y2="877.6543"/><polygon fill="#181818" points="788,873.6543,778,877.6543,788,881.6543,784,877.6543" style="stroke:#181818;stroke-width:1.0;"/><text fill="#000000" font-family="sans-serif" font-size="13" font-weight="bold" lengthAdjust="spacing" textLength="14" x="784" y="859.3916">13</text><text fill="#000000" font-family="sans-serif" font-size="13" lengthAdjust="spacing" textLength="142" x="802" y="859.3916">validates selected option</text><polygon fill="#181818" points="481,936.9453,471,940.9453,481,944.9453,477,940.9453" style="stroke:#181818;stroke-width:1.0;"/><line style="stroke:#181818;stroke-width:1.0;stroke-dasharray:2.0,2.0;" x1="475" x2="771" y1="940.9453" y2="940.9453"/><text fill="#000000" font-family="sans-serif" font-size="13" font-weight="bold" lengthAdjust="spacing" textLength="14" x="487" y="935.6826">14</text><text fill="#000000" font-family="sans-serif" font-size="13" lengthAdjust="spacing" textLength="260" x="505" y="935.6826">Sends the list of selected vehicles to main UI</text><line style="stroke:#181818;stroke-width:1.0;stroke-dasharray:2.0,2.0;" x1="470" x2="512" y1="997.2363" y2="997.2363"/><line style="stroke:#181818;stroke-width:1.0;stroke-dasharray:2.0,2.0;" x1="512" x2="512" y1="997.2363" y2="1010.2363"/><line style="stroke:#181818;stroke-width:1.0;stroke-dasharray:2.0,2.0;" x1="471" x2="512" y1="1010.2363" y2="1010.2363"/><polygon fill="#181818" points="481,1006.2363,471,1010.2363,481,1014.2363,477,1010.2363" style="stroke:#181818;stroke-width:1.0;"/><text fill="#000000" font-family="sans-serif" font-size="13" font-weight="bold" lengthAdjust="spacing" textLength="14" x="477" y="991.9736">15</text><text fill="#000000" font-family="sans-serif" font-size="13" lengthAdjust="spacing" textLength="246" x="495" y="991.9736">keepData(List&lt;Vehicle&gt; selectedVehicles)</text><polygon fill="#181818" points="1150.5,1062.5273,1160.5,1066.5273,1150.5,1070.5273,1154.5,1066.5273" style="stroke:#181818;stroke-width:1.0;"/><line style="stroke:#181818;stroke-width:1.0;" x1="470" x2="1156.5" y1="1066.5273" y2="1066.5273"/><text fill="#000000" font-family="sans-serif" font-size="13" font-weight="bold" lengthAdjust="spacing" textLength="14" x="477" y="1061.2646">16</text><text fill="#000000" font-family="sans-serif" font-size="13" lengthAdjust="spacing" textLength="411" x="495" y="1061.2646">assignVehiclesToTaskAgenda(agendaTaskDTO, selectedVehiclesDTO)</text><rect fill="none" height="59.2129" style="stroke:#000000;stroke-width:1.5;" width="280" x="1027.5" y="1074.5273"/><path d="M1027.5,1074.5273 L1089.5,1074.5273 L1089.5,1083.5273 L1079.5,1093.5273 L1027.5,1093.5273 L1027.5,1074.5273 " fill="#EEEEEE" style="stroke:#000000;stroke-width:2.0;"/><text fill="#000000" font-family="sans-serif" font-size="13" font-weight="bold" lengthAdjust="spacing" textLength="17" x="1040.5" y="1090.5557">ref</text><text fill="#000000" font-family="sans-serif" font-size="12" lengthAdjust="spacing" textLength="180" x="1077.5" y="1110.4766">SD_getVehicleListDomainObject</text><text fill="#000000" font-family="sans-serif" font-size="12" lengthAdjust="spacing" textLength="3" x="1166" y="1126.4375">&#160;</text><line style="stroke:#181818;stroke-width:1.0;" x1="1172.5" x2="1214.5" y1="1162.0313" y2="1162.0313"/><line style="stroke:#181818;stroke-width:1.0;" x1="1214.5" x2="1214.5" y1="1162.0313" y2="1175.0313"/><line style="stroke:#181818;stroke-width:1.0;" x1="1173.5" x2="1214.5" y1="1175.0313" y2="1175.0313"/><polygon fill="#181818" points="1183.5,1171.0313,1173.5,1175.0313,1183.5,1179.0313,1179.5,1175.0313" style="stroke:#181818;stroke-width:1.0;"/><text fill="#000000" font-family="sans-serif" font-size="13" font-weight="bold" lengthAdjust="spacing" textLength="14" x="1179.5" y="1156.7686">17</text><text fill="#000000" font-family="sans-serif" font-size="13" lengthAdjust="spacing" textLength="60" x="1197.5" y="1156.7686">vehicleList</text><polygon fill="#181818" points="1346,1202.3223,1356,1206.3223,1346,1210.3223,1350,1206.3223" style="stroke:#181818;stroke-width:1.0;"/><line style="stroke:#181818;stroke-width:1.0;" x1="1172.5" x2="1352" y1="1206.3223" y2="1206.3223"/><text fill="#000000" font-family="sans-serif" font-size="13" font-weight="bold" lengthAdjust="spacing" textLength="14" x="1179.5" y="1201.0596">18</text><text fill="#000000" font-family="sans-serif" font-size="13" lengthAdjust="spacing" textLength="75" x="1197.5" y="1201.0596">getInstance()</text><polygon fill="#181818" points="1183.5,1233.6133,1173.5,1237.6133,1183.5,1241.6133,1179.5,1237.6133" style="stroke:#181818;stroke-width:1.0;"/><line style="stroke:#181818;stroke-width:1.0;stroke-dasharray:2.0,2.0;" x1="1177.5" x2="1362" y1="1237.6133" y2="1237.6133"/><text fill="#000000" font-family="sans-serif" font-size="13" font-weight="bold" lengthAdjust="spacing" textLength="14" x="1189.5" y="1232.3506">19</text><text fill="#000000" font-family="sans-serif" font-size="13" lengthAdjust="spacing" textLength="67" x="1207.5" y="1232.3506">repositories</text><polygon fill="#181818" points="1453,1264.9043,1463,1268.9043,1453,1272.9043,1457,1268.9043" style="stroke:#181818;stroke-width:1.0;"/><line style="stroke:#181818;stroke-width:1.0;" x1="1172.5" x2="1459" y1="1268.9043" y2="1268.9043"/><text fill="#000000" font-family="sans-serif" font-size="13" font-weight="bold" lengthAdjust="spacing" textLength="14" x="1179.5" y="1263.6416">20</text><text fill="#000000" font-family="sans-serif" font-size="13" lengthAdjust="spacing" textLength="132" x="1197.5" y="1263.6416">getAgendaRepository()</text><polygon fill="#181818" points="1183.5,1296.1953,1173.5,1300.1953,1183.5,1304.1953,1179.5,1300.1953" style="stroke:#181818;stroke-width:1.0;"/><line style="stroke:#181818;stroke-width:1.0;stroke-dasharray:2.0,2.0;" x1="1177.5" x2="1469" y1="1300.1953" y2="1300.1953"/><text fill="#000000" font-family="sans-serif" font-size="13" font-weight="bold" lengthAdjust="spacing" textLength="14" x="1189.5" y="1294.9326">21</text><text fill="#000000" font-family="sans-serif" font-size="13" lengthAdjust="spacing" textLength="104" x="1207.5" y="1294.9326">agendaRepository</text><polygon fill="#181818" points="1579,1344.7773,1589,1348.7773,1579,1352.7773,1583,1348.7773" style="stroke:#181818;stroke-width:1.0;"/><line style="stroke:#181818;stroke-width:1.0;" x1="1172.5" x2="1585" y1="1348.7773" y2="1348.7773"/><text fill="#000000" font-family="sans-serif" font-size="13" font-weight="bold" lengthAdjust="spacing" textLength="14" x="1179.5" y="1334.8691">22</text><text fill="#000000" font-family="sans-serif" font-size="13" lengthAdjust="spacing" textLength="314" x="1197.5" y="1326.2236">assignVehiclesToTaskAgenda(title, greenSpaceName,</text><text fill="#000000" font-family="sans-serif" font-size="13" lengthAdjust="spacing" textLength="198" x="1197.5" y="1343.5146">workStartDate, status, vehicleList)</text><polygon fill="#181818" points="1773,1376.0684,1783,1380.0684,1773,1384.0684,1777,1380.0684" style="stroke:#181818;stroke-width:1.0;"/><line style="stroke:#181818;stroke-width:1.0;" x1="1601" x2="1779" y1="1380.0684" y2="1380.0684"/><text fill="#000000" font-family="sans-serif" font-size="13" font-weight="bold" lengthAdjust="spacing" textLength="14" x="1608" y="1374.8057">23</text><text fill="#000000" font-family="sans-serif" font-size="13" lengthAdjust="spacing" textLength="142" x="1626" y="1374.8057">assignVehicles(vehicles)</text><rect fill="#E3E3E3" height="32.6211" rx="2.5" ry="2.5" style="stroke:#181818;stroke-width:0.5;" width="45" x="1785" y="1356.7773"/><text fill="#000000" font-family="sans-serif" font-size="14" lengthAdjust="spacing" textLength="31" x="1792" y="1378.8848">Task</text><path d="M1765,1407.3984 L1838,1407.3984 L1838,1416.6895 L1828,1426.6895 L1765,1426.6895 L1765,1407.3984 " fill="#EEEEEE" style="stroke:#000000;stroke-width:1.5;"/><rect fill="none" height="167.416" style="stroke:#000000;stroke-width:1.5;" width="386.5" x="1765" y="1407.3984"/><text fill="#000000" font-family="sans-serif" font-size="13" font-weight="bold" lengthAdjust="spacing" textLength="28" x="1780" y="1422.4268">loop</text><text fill="#000000" font-family="sans-serif" font-size="11" font-weight="bold" lengthAdjust="spacing" textLength="149" x="1853" y="1421.2686">[for each vehicle in the list]</text><path d="M1775,1433.6895 L1836,1433.6895 L1836,1442.9805 L1826,1452.9805 L1775,1452.9805 L1775,1433.6895 " fill="#EEEEEE" style="stroke:#000000;stroke-width:1.5;"/><rect fill="none" height="134.125" style="stroke:#000000;stroke-width:1.5;" width="366.5" x="1775" y="1433.6895"/><text fill="#000000" font-family="sans-serif" font-size="13" font-weight="bold" lengthAdjust="spacing" textLength="16" x="1790" y="1448.7178">alt</text><text fill="#000000" font-family="sans-serif" font-size="11" font-weight="bold" lengthAdjust="spacing" textLength="133" x="1851" y="1447.5596">[all vehicle are available]</text><polygon fill="#181818" points="2003.5,1472.2715,2013.5,1476.2715,2003.5,1480.2715,2007.5,1476.2715" style="stroke:#181818;stroke-width:1.0;"/><line style="stroke:#181818;stroke-width:1.0;" x1="1807.5" x2="2009.5" y1="1476.2715" y2="1476.2715"/><text fill="#000000" font-family="sans-serif" font-size="13" font-weight="bold" lengthAdjust="spacing" textLength="14" x="1814.5" y="1471.0088">24</text><text fill="#000000" font-family="sans-serif" font-size="13" lengthAdjust="spacing" textLength="161" x="1832.5" y="1471.0088">addWorkPeriod(workPeriod)</text><rect fill="#E3E3E3" height="32.6211" rx="2.5" ry="2.5" style="stroke:#181818;stroke-width:0.5;" width="60" x="2015.5" y="1452.9805"/><text fill="#000000" font-family="sans-serif" font-size="14" lengthAdjust="spacing" textLength="46" x="2022.5" y="1475.0879">Vehicle</text><line style="stroke:#000000;stroke-width:1.0;stroke-dasharray:2.0,2.0;" x1="1775" x2="2141.5" y1="1497.6016" y2="1497.6016"/><text fill="#000000" font-family="sans-serif" font-size="11" font-weight="bold" lengthAdjust="spacing" textLength="146" x="1780" y="1509.4717">[vehicles are not available]</text><path d="M1786,1518.2324 L1786,1562.2324 L2131,1562.2324 L2131,1528.2324 L2121,1518.2324 L1786,1518.2324 " fill="#FAFAFA" style="stroke:#181818;stroke-width:0.5;"/><path d="M2121,1518.2324 L2121,1528.2324 L2131,1528.2324 L2121,1518.2324 " fill="#FAFAFA" style="stroke:#181818;stroke-width:0.5;"/><text fill="#000000" font-family="sans-serif" font-size="13" lengthAdjust="spacing" textLength="243" x="1832.75" y="1537.2607">An error message will be shown indicating</text><text fill="#000000" font-family="sans-serif" font-size="13" lengthAdjust="spacing" textLength="218" x="1844.75" y="1554.5518">the selected vehicles are not available</text><polygon fill="#181818" points="1183.5,1601.1055,1173.5,1605.1055,1183.5,1609.1055,1179.5,1605.1055" style="stroke:#181818;stroke-width:1.0;"/><line style="stroke:#181818;stroke-width:1.0;stroke-dasharray:2.0,2.0;" x1="1177.5" x2="1595" y1="1605.1055" y2="1605.1055"/><text fill="#000000" font-family="sans-serif" font-size="13" font-weight="bold" lengthAdjust="spacing" textLength="14" x="1189.5" y="1599.8428">25</text><text fill="#000000" font-family="sans-serif" font-size="13" lengthAdjust="spacing" textLength="77" x="1207.5" y="1599.8428">task Optional</text><polygon fill="#181818" points="481,1632.3965,471,1636.3965,481,1640.3965,477,1636.3965" style="stroke:#181818;stroke-width:1.0;"/><line style="stroke:#181818;stroke-width:1.0;" x1="475" x2="1166.5" y1="1636.3965" y2="1636.3965"/><text fill="#000000" font-family="sans-serif" font-size="13" font-weight="bold" lengthAdjust="spacing" textLength="14" x="487" y="1631.1338">26</text><text fill="#000000" font-family="sans-serif" font-size="13" lengthAdjust="spacing" textLength="106" x="505" y="1631.1338">operation success</text><polygon fill="#181818" points="81,1663.6875,71,1667.6875,81,1671.6875,77,1667.6875" style="stroke:#181818;stroke-width:1.0;"/><line style="stroke:#181818;stroke-width:1.0;stroke-dasharray:2.0,2.0;" x1="75" x2="464" y1="1667.6875" y2="1667.6875"/><text fill="#000000" font-family="sans-serif" font-size="13" font-weight="bold" lengthAdjust="spacing" textLength="14" x="87" y="1662.4248">27</text><text fill="#000000" font-family="sans-serif" font-size="13" lengthAdjust="spacing" textLength="160" x="105" y="1662.4248">Displays operation success</text><!--SRC=[fLTBR-Cs4BxhLmnogRrmWAA77e8YWB4EWW2xQoEosqk01IDDRDOqgOgqZG3vyHrI54Kzyj16XyGMv_7Dp3V3iTvpMR2I7U2WfCfsfJeWcFA8YGud1SlsR8kfUHO89MQ6oQs81VIEvUhCvHQUcD2O98OR4jsal__n9rn2YlyTKMO82yws99yax6YKF1uUiKpeIsPK2HUt9QA4b9pXW_pE97aiBu1fk4s_9-J7y8mNJ1guk9flKUPiS-UEDtUTqnG5OVmRTpmJg5UgE1PUTBLSRLQ3jhugQKebX7SvlxtviPZ__Bg-_zOLrvflPMryhMv8xtdGne3oFHPASugMetOozpUhPLkcZ4GUvB36dTHKWWpRcio120hFf3tllAfYwxnq1U0dPj1bEg4_S7bDQRs2kTvhC8gqRD2W909Lwg1AX9FFW3kMW3ODm2MO7NeFZLcgqEREsepI2bUmHLD9hfdUBzPBN_DlN9l9D05wWeMu7lRWvUN5_I_n2TG9ovv0klXvgCob1MRyYMULAtAJE07wOhNTvnZMfGkTqBsgRZLoV1EQ-o2KAk0e3HUGAzJoDmFQCHCOd9ZWEQZ2S2KhQPiWSat9lu9qfyxQPL9GBa0zWM6s4ZwzLQ4fwpamNo1lc0gKHD0exqqrAQIgCJJvj_PwzQd573XwhxrP34XjR3PnDhGMRAUtHomMpB29jJvjpg-hleCuiC9s9PovsRNYh5dLJJ8XRF6XQcJthh9DJXfMrTtPPP6hKPitCM4QJKl17bFSby2HEgHJMwE3k_BOekm0BRATKXfT9-KdrzXHOA-J8hJW01EiN3YNY3dcCJDy_ZmvwbXqu8TNJJeA3QGG_gjS2JonWJUAdeWoRySIjEEvSc34U2fz3tYN5tLk1zbeI_ENB-nrS5HpPDep49Z4EgFUZgbg34nOFBTcFQFqqlE_pOHXwWtJJzdebu__ak4aYCLJgw5ZG1oHCUd9s9kZwe_w_l3zyTOJyBkRwbrn-pW_bmse-4Pxrq1KQkVnFVauk3giw6PfRhd9D1aNRBXaFnnqhH47txsKnoRWOoZgB7I3Vfl4RacRmTRkNMxj-i4EE7kGPrNkKqEh1RKFdHC0SzIpc5nlywQv6iS4tyDEyLYmNxxqefYSMiqxvWdOhEdHscvsFz4AH4NQrGcfhsNHwheF0nAq3mWHZ37QhTY9SS4U1OutPyEocVEfgfANv_zGILTOSfLFpk7ZTBnvfEq-kdS8grJcCtX97QjnQ97FO8tqys2iaJdjdsLfDrFKcZgEzWhAw2FIxn9rbbIVd6VCqC-JqPRfiQNjtqxzq4UdaaQvZNwqOZGX78b_nVCleMsslb75wVLrCntjeWXBjoymaIIVISLyxA1zROQwvK4LM38B2_GnouXLdu7cby3-dh_WkX3iMG-uQ- - -_mC0]--></g></svg>