<?xml version="1.0" encoding="us-ascii" standalone="no"?><svg xmlns="http://www.w3.org/2000/svg" xmlns:xlink="http://www.w3.org/1999/xlink" contentStyleType="text/css" height="1250.9px" preserveAspectRatio="none" style="width:1496px;height:1250px;background:#FFFFFF;" version="1.1" viewBox="0 0 1496 1250" width="1496.6px" zoomAndPan="magnify"><defs/><g><text fill="#000000" font-family="sans-serif" font-size="9.8" font-weight="bold" lengthAdjust="spacing" textLength="131.6" x="683.725" y="21.0752">US026 - Sequence Diagram</text><rect fill="#FFFFFF" height="1067.377" style="stroke:#181818;stroke-width:0.6999999999999998;" width="7" x="42" y="106.3043"/><rect fill="#FFFFFF" height="164.0639" style="stroke:#181818;stroke-width:0.6999999999999998;" width="7" x="322" y="122.608"/><rect fill="#FFFFFF" height="106.3111" style="stroke:#181818;stroke-width:0.6999999999999998;" width="7" x="322" y="308.5756"/><rect fill="#FFFFFF" height="508.7195" style="stroke:#181818;stroke-width:0.6999999999999998;" width="7" x="322" y="658.6617"/><rect fill="#FFFFFF" height="146.5639" style="stroke:#181818;stroke-width:0.6999999999999998;" width="7" x="523.6" y="414.8867"/><rect fill="#FFFFFF" height="75.3074" style="stroke:#181818;stroke-width:0.6999999999999998;" width="7" x="523.6" y="583.3543"/><rect fill="#FFFFFF" height="84.3527" style="stroke:#181818;stroke-width:0.6999999999999998;" width="7" x="652.4" y="144.5117"/><rect fill="#FFFFFF" height="66.8527" style="stroke:#181818;stroke-width:0.6999999999999998;" width="7" x="800.45" y="436.7904"/><rect fill="#FFFFFF" height="398.9084" style="stroke:#181818;stroke-width:0.6999999999999998;" width="7" x="800.45" y="746.5691"/><rect fill="#FFFFFF" height="21.9037" style="stroke:#181818;stroke-width:0.6999999999999998;" width="7" x="937.3" y="844.4256"/><rect fill="#FFFFFF" height="21.9037" style="stroke:#181818;stroke-width:0.6999999999999998;" width="7" x="1012.2" y="888.233"/><rect fill="#FFFFFF" height="179.4297" style="stroke:#181818;stroke-width:0.6999999999999998;" width="7" x="1100.4" y="944.1441"/><rect fill="#FFFFFF" height="60.3422" style="stroke:#181818;stroke-width:0.6999999999999998;" width="7" x="1248.45" y="973.0479"/><rect fill="none" height="105.8148" style="stroke:#000000;stroke-width:1.0499999999999998;" width="442.4" x="7" y="256.8645"/><rect fill="none" height="88.3148" style="stroke:#000000;stroke-width:1.0499999999999998;" width="648.9" x="7" y="531.6432"/><rect fill="none" height="117.1912" style="stroke:#000000;stroke-width:1.0499999999999998;" width="270.55" x="1222.2" y="985.1789"/><rect fill="none" height="93.8875" style="stroke:#000000;stroke-width:1.0499999999999998;" width="256.55" x="1229.2" y="1003.5826"/><line style="stroke:#181818;stroke-width:0.3499999999999999;stroke-dasharray:5.0,5.0;" x1="45.5" x2="45.5" y1="99.3043" y2="1179.9812"/><line style="stroke:#181818;stroke-width:0.3499999999999999;stroke-dasharray:5.0,5.0;" x1="325.15" x2="325.15" y1="99.3043" y2="1179.9812"/><line style="stroke:#181818;stroke-width:0.3499999999999999;stroke-dasharray:5.0,5.0;" x1="526.75" x2="526.75" y1="99.3043" y2="1179.9812"/><line style="stroke:#181818;stroke-width:0.3499999999999999;stroke-dasharray:5.0,5.0;" x1="655.55" x2="655.55" y1="99.3043" y2="1179.9812"/><line style="stroke:#181818;stroke-width:0.3499999999999999;stroke-dasharray:5.0,5.0;" x1="803.95" x2="803.95" y1="99.3043" y2="1179.9812"/><line style="stroke:#181818;stroke-width:0.3499999999999999;stroke-dasharray:5.0,5.0;" x1="940.45" x2="940.45" y1="99.3043" y2="1179.9812"/><line style="stroke:#181818;stroke-width:0.3499999999999999;stroke-dasharray:5.0,5.0;" x1="1015.35" x2="1015.35" y1="99.3043" y2="1179.9812"/><line style="stroke:#181818;stroke-width:0.3499999999999999;stroke-dasharray:5.0,5.0;" x1="1103.55" x2="1103.55" y1="99.3043" y2="1179.9812"/><line style="stroke:#181818;stroke-width:0.3499999999999999;stroke-dasharray:5.0,5.0;" x1="1251.6" x2="1251.6" y1="972.0115" y2="1179.9812"/><line style="stroke:#181818;stroke-width:0.3499999999999999;stroke-dasharray:5.0,5.0;" x1="1418.55" x2="1418.55" y1="1039.3537" y2="1179.9812"/><line style="stroke:#181818;stroke-width:0.3499999999999999;stroke-dasharray:5.0,5.0;" x1="1464.05" x2="1464.05" y1="99.3043" y2="1179.9812"/><text fill="#000000" font-family="sans-serif" font-size="9.8" lengthAdjust="spacing" textLength="58.8" x="14" y="83.81">Green Space</text><text fill="#000000" font-family="sans-serif" font-size="9.8" lengthAdjust="spacing" textLength="39.2" x="23.8" y="96.8447">Manager</text><ellipse cx="45.5" cy="37.1848" fill="#E3E3E3" rx="5.6" ry="5.6" style="stroke:#181818;stroke-width:0.3499999999999999;"/><path d="M45.5,42.7848 L45.5,61.6848 M36.4,48.3848 L54.6,48.3848 M45.5,61.6848 L36.4,72.1848 M45.5,61.6848 L54.6,72.1848 " fill="none" style="stroke:#181818;stroke-width:0.3499999999999999;"/><text fill="#000000" font-family="sans-serif" font-size="9.8" lengthAdjust="spacing" textLength="58.8" x="14" y="1189.8564">Green Space</text><text fill="#000000" font-family="sans-serif" font-size="9.8" lengthAdjust="spacing" textLength="39.2" x="23.8" y="1202.8912">Manager</text><ellipse cx="45.5" cy="1211.3008" fill="#E3E3E3" rx="5.6" ry="5.6" style="stroke:#181818;stroke-width:0.3499999999999999;"/><path d="M45.5,1216.9008 L45.5,1235.8008 M36.4,1222.5008 L54.6,1222.5008 M45.5,1235.8008 L36.4,1246.3008 M45.5,1235.8008 L54.6,1246.3008 " fill="none" style="stroke:#181818;stroke-width:0.3499999999999999;"/><rect fill="#E3E3E3" height="22.8348" rx="1.75" ry="1.75" style="stroke:#181818;stroke-width:0.3499999999999999;" width="55.3" x="297.85" y="75.7695"/><text fill="#000000" font-family="sans-serif" font-size="9.8" lengthAdjust="spacing" textLength="45.5" x="302.75" y="91.2447">:AgendaUI</text><rect fill="#E3E3E3" height="22.8348" rx="1.75" ry="1.75" style="stroke:#181818;stroke-width:0.3499999999999999;" width="55.3" x="297.85" y="1179.2812"/><text fill="#000000" font-family="sans-serif" font-size="9.8" lengthAdjust="spacing" textLength="45.5" x="302.75" y="1194.7564">:AgendaUI</text><rect fill="#E3E3E3" height="22.8348" rx="1.75" ry="1.75" style="stroke:#181818;stroke-width:0.3499999999999999;" width="114.1" x="470.05" y="75.7695"/><text fill="#000000" font-family="sans-serif" font-size="9.8" lengthAdjust="spacing" textLength="104.3" x="474.95" y="91.2447">:SelectVehiclesPopupUI</text><rect fill="#E3E3E3" height="22.8348" rx="1.75" ry="1.75" style="stroke:#181818;stroke-width:0.3499999999999999;" width="114.1" x="470.05" y="1179.2812"/><text fill="#000000" font-family="sans-serif" font-size="9.8" lengthAdjust="spacing" textLength="104.3" x="474.95" y="1194.7564">:SelectVehiclesPopupUI</text><rect fill="#E3E3E3" height="22.8348" rx="1.75" ry="1.75" style="stroke:#181818;stroke-width:0.3499999999999999;" width="90.3" x="610.75" y="75.7695"/><text fill="#000000" font-family="sans-serif" font-size="9.8" lengthAdjust="spacing" textLength="80.5" x="615.65" y="91.2447">:AgendaController</text><rect fill="#E3E3E3" height="22.8348" rx="1.75" ry="1.75" style="stroke:#181818;stroke-width:0.3499999999999999;" width="90.3" x="610.75" y="1179.2812"/><text fill="#000000" font-family="sans-serif" font-size="9.8" lengthAdjust="spacing" textLength="80.5" x="615.65" y="1194.7564">:AgendaController</text><rect fill="#E3E3E3" height="22.8348" rx="1.75" ry="1.75" style="stroke:#181818;stroke-width:0.3499999999999999;" width="191.8" x="708.05" y="75.7695"/><text fill="#000000" font-family="sans-serif" font-size="9.8" lengthAdjust="spacing" textLength="182" x="712.95" y="91.2447">:AssignVehiclesToEntryAgendaController</text><rect fill="#E3E3E3" height="22.8348" rx="1.75" ry="1.75" style="stroke:#181818;stroke-width:0.3499999999999999;" width="191.8" x="708.05" y="1179.2812"/><text fill="#000000" font-family="sans-serif" font-size="9.8" lengthAdjust="spacing" textLength="182" x="712.95" y="1194.7564">:AssignVehiclesToEntryAgendaController</text><rect fill="#E3E3E3" height="22.8348" rx="1.75" ry="1.75" style="stroke:#181818;stroke-width:0.3499999999999999;" width="67.9" x="906.85" y="75.7695"/><text fill="#000000" font-family="sans-serif" font-size="9.8" lengthAdjust="spacing" textLength="58.1" x="911.75" y="91.2447">:Repositories</text><rect fill="#E3E3E3" height="22.8348" rx="1.75" ry="1.75" style="stroke:#181818;stroke-width:0.3499999999999999;" width="67.9" x="906.85" y="1179.2812"/><text fill="#000000" font-family="sans-serif" font-size="9.8" lengthAdjust="spacing" textLength="58.1" x="911.75" y="1194.7564">:Repositories</text><rect fill="#E3E3E3" height="35.8695" rx="1.75" ry="1.75" style="stroke:#181818;stroke-width:0.3499999999999999;" width="67.9" x="981.75" y="62.7348"/><text fill="#000000" font-family="sans-serif" font-size="9.8" lengthAdjust="spacing" textLength="51.8" x="989.8" y="78.21">repositories</text><text fill="#000000" font-family="sans-serif" font-size="9.8" lengthAdjust="spacing" textLength="58.1" x="986.65" y="91.2447">:Repositories</text><rect fill="#E3E3E3" height="35.8695" rx="1.75" ry="1.75" style="stroke:#181818;stroke-width:0.3499999999999999;" width="67.9" x="981.75" y="1179.2812"/><text fill="#000000" font-family="sans-serif" font-size="9.8" lengthAdjust="spacing" textLength="51.8" x="989.8" y="1194.7564">repositories</text><text fill="#000000" font-family="sans-serif" font-size="9.8" lengthAdjust="spacing" textLength="58.1" x="986.65" y="1207.7912">:Repositories</text><rect fill="#E3E3E3" height="35.8695" rx="1.75" ry="1.75" style="stroke:#181818;stroke-width:0.3499999999999999;" width="94.5" x="1056.65" y="62.7348"/><text fill="#000000" font-family="sans-serif" font-size="9.8" lengthAdjust="spacing" textLength="81.2" x="1063.3" y="78.21">agendaRepository</text><text fill="#000000" font-family="sans-serif" font-size="9.8" lengthAdjust="spacing" textLength="84.7" x="1061.55" y="91.2447">:AgendaRepository</text><rect fill="#E3E3E3" height="35.8695" rx="1.75" ry="1.75" style="stroke:#181818;stroke-width:0.3499999999999999;" width="94.5" x="1056.65" y="1179.2812"/><text fill="#000000" font-family="sans-serif" font-size="9.8" lengthAdjust="spacing" textLength="81.2" x="1063.3" y="1194.7564">agendaRepository</text><text fill="#000000" font-family="sans-serif" font-size="9.8" lengthAdjust="spacing" textLength="84.7" x="1061.55" y="1207.7912">:AgendaRepository</text><rect fill="#E3E3E3" height="22.8348" rx="1.75" ry="1.75" style="stroke:#181818;stroke-width:0.3499999999999999;" width="31.5" x="1236.2" y="1179.2812"/><text fill="#000000" font-family="sans-serif" font-size="9.8" lengthAdjust="spacing" textLength="21.7" x="1241.1" y="1194.7564">Task</text><rect fill="#E3E3E3" height="22.8348" rx="1.75" ry="1.75" style="stroke:#181818;stroke-width:0.3499999999999999;" width="42" x="1397.55" y="1179.2812"/><text fill="#000000" font-family="sans-serif" font-size="9.8" lengthAdjust="spacing" textLength="32.2" x="1402.45" y="1194.7564">Vehicle</text><rect fill="#E3E3E3" height="22.8348" rx="1.75" ry="1.75" style="stroke:#181818;stroke-width:0.3499999999999999;" width="35" x="1446.55" y="75.7695"/><text fill="#000000" font-family="sans-serif" font-size="9.8" lengthAdjust="spacing" textLength="25.2" x="1451.45" y="91.2447">Team</text><rect fill="#E3E3E3" height="22.8348" rx="1.75" ry="1.75" style="stroke:#181818;stroke-width:0.3499999999999999;" width="35" x="1446.55" y="1179.2812"/><text fill="#000000" font-family="sans-serif" font-size="9.8" lengthAdjust="spacing" textLength="25.2" x="1451.45" y="1194.7564">Team</text><rect fill="#FFFFFF" height="1067.377" style="stroke:#181818;stroke-width:0.6999999999999998;" width="7" x="42" y="106.3043"/><rect fill="#FFFFFF" height="164.0639" style="stroke:#181818;stroke-width:0.6999999999999998;" width="7" x="322" y="122.608"/><rect fill="#FFFFFF" height="106.3111" style="stroke:#181818;stroke-width:0.6999999999999998;" width="7" x="322" y="308.5756"/><rect fill="#FFFFFF" height="508.7195" style="stroke:#181818;stroke-width:0.6999999999999998;" width="7" x="322" y="658.6617"/><rect fill="#FFFFFF" height="146.5639" style="stroke:#181818;stroke-width:0.6999999999999998;" width="7" x="523.6" y="414.8867"/><rect fill="#FFFFFF" height="75.3074" style="stroke:#181818;stroke-width:0.6999999999999998;" width="7" x="523.6" y="583.3543"/><rect fill="#FFFFFF" height="84.3527" style="stroke:#181818;stroke-width:0.6999999999999998;" width="7" x="652.4" y="144.5117"/><rect fill="#FFFFFF" height="66.8527" style="stroke:#181818;stroke-width:0.6999999999999998;" width="7" x="800.45" y="436.7904"/><rect fill="#FFFFFF" height="398.9084" style="stroke:#181818;stroke-width:0.6999999999999998;" width="7" x="800.45" y="746.5691"/><rect fill="#FFFFFF" height="21.9037" style="stroke:#181818;stroke-width:0.6999999999999998;" width="7" x="937.3" y="844.4256"/><rect fill="#FFFFFF" height="21.9037" style="stroke:#181818;stroke-width:0.6999999999999998;" width="7" x="1012.2" y="888.233"/><rect fill="#FFFFFF" height="179.4297" style="stroke:#181818;stroke-width:0.6999999999999998;" width="7" x="1100.4" y="944.1441"/><rect fill="#FFFFFF" height="60.3422" style="stroke:#181818;stroke-width:0.6999999999999998;" width="7" x="1248.45" y="973.0479"/><polygon fill="#181818" points="313.6,119.808,320.6,122.608,313.6,125.408,316.4,122.608" style="stroke:#181818;stroke-width:0.6999999999999998;"/><line style="stroke:#181818;stroke-width:0.6999999999999998;" x1="49" x2="317.8" y1="122.608" y2="122.608"/><text fill="#000000" font-family="sans-serif" font-size="9.1" font-weight="bold" lengthAdjust="spacing" textLength="4.9" x="53.9" y="118.9241">1</text><text fill="#000000" font-family="sans-serif" font-size="9.1" lengthAdjust="spacing" textLength="252" x="61.6" y="118.9241">Asks to assign one or more vehicles to an entry in the Agenda</text><polygon fill="#181818" points="644,141.7117,651,144.5117,644,147.3117,646.8,144.5117" style="stroke:#181818;stroke-width:0.6999999999999998;"/><line style="stroke:#181818;stroke-width:0.6999999999999998;" x1="329" x2="648.2" y1="144.5117" y2="144.5117"/><text fill="#000000" font-family="sans-serif" font-size="9.1" font-weight="bold" lengthAdjust="spacing" textLength="4.9" x="333.9" y="140.8278">2</text><text fill="#000000" font-family="sans-serif" font-size="9.1" lengthAdjust="spacing" textLength="136.5" x="341.6" y="140.8278">getAgendaTaskDTOManagerList()</text><rect fill="none" height="41.449" style="stroke:#000000;stroke-width:1.0499999999999998;" width="134.4" x="608.65" y="167.6117"/><path d="M608.65,167.6117 L652.05,167.6117 L652.05,173.9117 L645.05,180.9117 L608.65,180.9117 L608.65,167.6117 " fill="#EEEEEE" style="stroke:#000000;stroke-width:1.3999999999999997;"/><text fill="#000000" font-family="sans-serif" font-size="9.1" font-weight="bold" lengthAdjust="spacing" textLength="11.9" x="617.75" y="178.8315">ref</text><text fill="#000000" font-family="sans-serif" font-size="8.4" lengthAdjust="spacing" textLength="128.8" x="611.45" y="192.7762">SD_managerSpecificAgendaDTO</text><text fill="#000000" font-family="sans-serif" font-size="8.4" lengthAdjust="spacing" textLength="2.1" x="674.8" y="203.9488">&#160;</text><polygon fill="#181818" points="336.7,226.0645,329.7,228.8645,336.7,231.6645,333.9,228.8645" style="stroke:#181818;stroke-width:0.6999999999999998;"/><line style="stroke:#181818;stroke-width:0.6999999999999998;stroke-dasharray:2.0,2.0;" x1="332.5" x2="655.2" y1="228.8645" y2="228.8645"/><text fill="#000000" font-family="sans-serif" font-size="9.1" font-weight="bold" lengthAdjust="spacing" textLength="4.9" x="340.9" y="225.1806">3</text><text fill="#000000" font-family="sans-serif" font-size="9.1" lengthAdjust="spacing" textLength="116.2" x="348.6" y="225.1806">managerSpecificAgendaDTO</text><path d="M7,256.8645 L58.1,256.8645 L58.1,263.3682 L51.1,270.3682 L7,270.3682 L7,256.8645 " fill="#EEEEEE" style="stroke:#000000;stroke-width:1.0499999999999998;"/><rect fill="none" height="105.8148" style="stroke:#000000;stroke-width:1.0499999999999998;" width="442.4" x="7" y="256.8645"/><text fill="#000000" font-family="sans-serif" font-size="9.1" font-weight="bold" lengthAdjust="spacing" textLength="19.6" x="17.5" y="267.3843">loop</text><text fill="#000000" font-family="sans-serif" font-size="7.7" font-weight="bold" lengthAdjust="spacing" textLength="132.3" x="68.6" y="266.5735">[until doesn't select a valid option]</text><polygon fill="#181818" points="56.7,283.8719,49.7,286.6719,56.7,289.4719,53.9,286.6719" style="stroke:#181818;stroke-width:0.6999999999999998;"/><line style="stroke:#181818;stroke-width:0.6999999999999998;stroke-dasharray:2.0,2.0;" x1="52.5" x2="324.8" y1="286.6719" y2="286.6719"/><text fill="#000000" font-family="sans-serif" font-size="9.1" font-weight="bold" lengthAdjust="spacing" textLength="4.9" x="60.9" y="282.988">4</text><text fill="#000000" font-family="sans-serif" font-size="9.1" lengthAdjust="spacing" textLength="245" x="68.6" y="282.988">Shows the list of tasks in the agenda and asks to select one</text><polygon fill="#181818" points="313.6,305.7756,320.6,308.5756,313.6,311.3756,316.4,308.5756" style="stroke:#181818;stroke-width:0.6999999999999998;"/><line style="stroke:#181818;stroke-width:0.6999999999999998;" x1="49" x2="317.8" y1="308.5756" y2="308.5756"/><text fill="#000000" font-family="sans-serif" font-size="9.1" font-weight="bold" lengthAdjust="spacing" textLength="4.9" x="53.9" y="304.8917">5</text><text fill="#000000" font-family="sans-serif" font-size="9.1" lengthAdjust="spacing" textLength="58.8" x="61.6" y="304.8917">Selects a task</text><line style="stroke:#181818;stroke-width:0.6999999999999998;stroke-dasharray:2.0,2.0;" x1="329" x2="358.4" y1="330.4793" y2="330.4793"/><line style="stroke:#181818;stroke-width:0.6999999999999998;stroke-dasharray:2.0,2.0;" x1="358.4" x2="358.4" y1="330.4793" y2="339.5793"/><line style="stroke:#181818;stroke-width:0.6999999999999998;stroke-dasharray:2.0,2.0;" x1="329.7" x2="358.4" y1="339.5793" y2="339.5793"/><polygon fill="#181818" points="336.7,336.7793,329.7,339.5793,336.7,342.3793,333.9,339.5793" style="stroke:#181818;stroke-width:0.6999999999999998;"/><text fill="#000000" font-family="sans-serif" font-size="9.1" font-weight="bold" lengthAdjust="spacing" textLength="4.9" x="333.9" y="326.7954">6</text><text fill="#000000" font-family="sans-serif" font-size="9.1" lengthAdjust="spacing" textLength="99.4" x="341.6" y="326.7954">validates selected option</text><line style="stroke:#181818;stroke-width:0.6999999999999998;stroke-dasharray:2.0,2.0;" x1="329" x2="358.4" y1="383.883" y2="383.883"/><line style="stroke:#181818;stroke-width:0.6999999999999998;stroke-dasharray:2.0,2.0;" x1="358.4" x2="358.4" y1="383.883" y2="392.983"/><line style="stroke:#181818;stroke-width:0.6999999999999998;stroke-dasharray:2.0,2.0;" x1="329.7" x2="358.4" y1="392.983" y2="392.983"/><polygon fill="#181818" points="336.7,390.183,329.7,392.983,336.7,395.783,333.9,392.983" style="stroke:#181818;stroke-width:0.6999999999999998;"/><text fill="#000000" font-family="sans-serif" font-size="9.1" font-weight="bold" lengthAdjust="spacing" textLength="4.9" x="333.9" y="380.1991">7</text><text fill="#000000" font-family="sans-serif" font-size="9.1" lengthAdjust="spacing" textLength="61.6" x="341.6" y="380.1991">keepData(task)</text><polygon fill="#181818" points="515.2,412.0867,522.2,414.8867,515.2,417.6867,518,414.8867" style="stroke:#181818;stroke-width:0.6999999999999998;"/><line style="stroke:#181818;stroke-width:0.6999999999999998;" x1="325.5" x2="519.4" y1="414.8867" y2="414.8867"/><text fill="#000000" font-family="sans-serif" font-size="9.1" font-weight="bold" lengthAdjust="spacing" textLength="4.9" x="330.4" y="411.2028">8</text><text fill="#000000" font-family="sans-serif" font-size="9.1" lengthAdjust="spacing" textLength="163.8" x="338.1" y="411.2028">Shows the popup with the list of vehicles</text><polygon fill="#181818" points="792.05,433.9904,799.05,436.7904,792.05,439.5904,794.85,436.7904" style="stroke:#181818;stroke-width:0.6999999999999998;"/><line style="stroke:#181818;stroke-width:0.6999999999999998;" x1="530.6" x2="796.25" y1="436.7904" y2="436.7904"/><text fill="#000000" font-family="sans-serif" font-size="9.1" font-weight="bold" lengthAdjust="spacing" textLength="4.9" x="535.5" y="433.1065">9</text><text fill="#000000" font-family="sans-serif" font-size="9.1" lengthAdjust="spacing" textLength="53.2" x="543.2" y="433.1065">getVehicles()</text><rect fill="none" height="41.449" style="stroke:#000000;stroke-width:1.0499999999999998;" width="196" x="705.95" y="442.3904"/><path d="M705.95,442.3904 L749.35,442.3904 L749.35,448.6904 L742.35,455.6904 L705.95,455.6904 L705.95,442.3904 " fill="#EEEEEE" style="stroke:#000000;stroke-width:1.3999999999999997;"/><text fill="#000000" font-family="sans-serif" font-size="9.1" font-weight="bold" lengthAdjust="spacing" textLength="11.9" x="715.05" y="453.6103">ref</text><text fill="#000000" font-family="sans-serif" font-size="8.4" lengthAdjust="spacing" textLength="88.2" x="759.85" y="467.5549">SD_getVehicleListDTO</text><text fill="#000000" font-family="sans-serif" font-size="8.4" lengthAdjust="spacing" textLength="2.1" x="802.9" y="478.7275">&#160;</text><polygon fill="#181818" points="538.3,500.8432,531.3,503.6432,538.3,506.4432,535.5,503.6432" style="stroke:#181818;stroke-width:0.6999999999999998;"/><line style="stroke:#181818;stroke-width:0.6999999999999998;stroke-dasharray:2.0,2.0;" x1="534.1" x2="803.25" y1="503.6432" y2="503.6432"/><text fill="#000000" font-family="sans-serif" font-size="9.1" font-weight="bold" lengthAdjust="spacing" textLength="9.8" x="542.5" y="499.9593">10</text><text fill="#000000" font-family="sans-serif" font-size="9.1" lengthAdjust="spacing" textLength="60.2" x="555.1" y="499.9593">vehicleListDTO</text><path d="M7,531.6432 L58.1,531.6432 L58.1,538.1469 L51.1,545.1469 L7,545.1469 L7,531.6432 " fill="#EEEEEE" style="stroke:#000000;stroke-width:1.0499999999999998;"/><rect fill="none" height="88.3148" style="stroke:#000000;stroke-width:1.0499999999999998;" width="648.9" x="7" y="531.6432"/><text fill="#000000" font-family="sans-serif" font-size="9.1" font-weight="bold" lengthAdjust="spacing" textLength="19.6" x="17.5" y="542.163">loop</text><text fill="#000000" font-family="sans-serif" font-size="7.7" font-weight="bold" lengthAdjust="spacing" textLength="128.1" x="68.6" y="541.3522">[until doesn't choose to advance]</text><polygon fill="#181818" points="56.7,558.6506,49.7,561.4506,56.7,564.2506,53.9,561.4506" style="stroke:#181818;stroke-width:0.6999999999999998;"/><line style="stroke:#181818;stroke-width:0.6999999999999998;stroke-dasharray:2.0,2.0;" x1="52.5" x2="526.4" y1="561.4506" y2="561.4506"/><text fill="#000000" font-family="sans-serif" font-size="9.1" font-weight="bold" lengthAdjust="spacing" textLength="9.8" x="60.9" y="557.7667">11</text><text fill="#000000" font-family="sans-serif" font-size="9.1" lengthAdjust="spacing" textLength="262.5" x="73.5" y="557.7667">Shows the list of vehicles and asks to select the vehicles needed</text><polygon fill="#181818" points="515.2,580.5543,522.2,583.3543,515.2,586.1543,518,583.3543" style="stroke:#181818;stroke-width:0.6999999999999998;"/><line style="stroke:#181818;stroke-width:0.6999999999999998;" x1="49" x2="519.4" y1="583.3543" y2="583.3543"/><text fill="#000000" font-family="sans-serif" font-size="9.1" font-weight="bold" lengthAdjust="spacing" textLength="9.8" x="53.9" y="579.6704">12</text><text fill="#000000" font-family="sans-serif" font-size="9.1" lengthAdjust="spacing" textLength="67.2" x="66.5" y="579.6704">selects a vehicle</text><line style="stroke:#181818;stroke-width:0.6999999999999998;stroke-dasharray:2.0,2.0;" x1="530.6" x2="560" y1="605.258" y2="605.258"/><line style="stroke:#181818;stroke-width:0.6999999999999998;stroke-dasharray:2.0,2.0;" x1="560" x2="560" y1="605.258" y2="614.358"/><line style="stroke:#181818;stroke-width:0.6999999999999998;stroke-dasharray:2.0,2.0;" x1="531.3" x2="560" y1="614.358" y2="614.358"/><polygon fill="#181818" points="538.3,611.558,531.3,614.358,538.3,617.158,535.5,614.358" style="stroke:#181818;stroke-width:0.6999999999999998;"/><text fill="#000000" font-family="sans-serif" font-size="9.1" font-weight="bold" lengthAdjust="spacing" textLength="9.8" x="535.5" y="601.5741">13</text><text fill="#000000" font-family="sans-serif" font-size="9.1" lengthAdjust="spacing" textLength="99.4" x="548.1" y="601.5741">validates selected option</text><polygon fill="#181818" points="336.7,655.8617,329.7,658.6617,336.7,661.4617,333.9,658.6617" style="stroke:#181818;stroke-width:0.6999999999999998;"/><line style="stroke:#181818;stroke-width:0.6999999999999998;stroke-dasharray:2.0,2.0;" x1="332.5" x2="526.4" y1="658.6617" y2="658.6617"/><text fill="#000000" font-family="sans-serif" font-size="9.1" font-weight="bold" lengthAdjust="spacing" textLength="9.8" x="340.9" y="654.9778">14</text><text fill="#000000" font-family="sans-serif" font-size="9.1" lengthAdjust="spacing" textLength="153.3" x="353.5" y="654.9778">the list of selected vehicles to main UI</text><line style="stroke:#181818;stroke-width:0.6999999999999998;stroke-dasharray:2.0,2.0;" x1="329" x2="358.4" y1="698.0654" y2="698.0654"/><line style="stroke:#181818;stroke-width:0.6999999999999998;stroke-dasharray:2.0,2.0;" x1="358.4" x2="358.4" y1="698.0654" y2="707.1654"/><line style="stroke:#181818;stroke-width:0.6999999999999998;stroke-dasharray:2.0,2.0;" x1="329.7" x2="358.4" y1="707.1654" y2="707.1654"/><polygon fill="#181818" points="336.7,704.3654,329.7,707.1654,336.7,709.9654,333.9,707.1654" style="stroke:#181818;stroke-width:0.6999999999999998;"/><text fill="#000000" font-family="sans-serif" font-size="9.1" font-weight="bold" lengthAdjust="spacing" textLength="9.8" x="333.9" y="694.3815">15</text><text fill="#000000" font-family="sans-serif" font-size="9.1" lengthAdjust="spacing" textLength="172.2" x="346.5" y="694.3815">keepData(List&lt;Vehicle&gt; selectedVehicles)</text><polygon fill="#181818" points="792.05,743.7691,799.05,746.5691,792.05,749.3691,794.85,746.5691" style="stroke:#181818;stroke-width:0.6999999999999998;"/><line style="stroke:#181818;stroke-width:0.6999999999999998;" x1="329" x2="796.25" y1="746.5691" y2="746.5691"/><text fill="#000000" font-family="sans-serif" font-size="9.1" font-weight="bold" lengthAdjust="spacing" textLength="9.8" x="333.9" y="742.8853">16</text><text fill="#000000" font-family="sans-serif" font-size="9.1" lengthAdjust="spacing" textLength="287.7" x="346.5" y="742.8853">assignVehiclesToTaskAgenda(agendaTaskDTO, selectedVehiclesDTO)</text><rect fill="none" height="41.449" style="stroke:#000000;stroke-width:1.0499999999999998;" width="196" x="705.95" y="752.1691"/><path d="M705.95,752.1691 L749.35,752.1691 L749.35,758.4691 L742.35,765.4691 L705.95,765.4691 L705.95,752.1691 " fill="#EEEEEE" style="stroke:#000000;stroke-width:1.3999999999999997;"/><text fill="#000000" font-family="sans-serif" font-size="9.1" font-weight="bold" lengthAdjust="spacing" textLength="11.9" x="715.05" y="763.389">ref</text><text fill="#000000" font-family="sans-serif" font-size="8.4" lengthAdjust="spacing" textLength="126" x="740.95" y="777.3336">SD_getVehicleListDomainObject</text><text fill="#000000" font-family="sans-serif" font-size="8.4" lengthAdjust="spacing" textLength="2.1" x="802.9" y="788.5062">&#160;</text><line style="stroke:#181818;stroke-width:0.6999999999999998;" x1="807.45" x2="836.85" y1="813.4219" y2="813.4219"/><line style="stroke:#181818;stroke-width:0.6999999999999998;" x1="836.85" x2="836.85" y1="813.4219" y2="822.5219"/><line style="stroke:#181818;stroke-width:0.6999999999999998;" x1="808.15" x2="836.85" y1="822.5219" y2="822.5219"/><polygon fill="#181818" points="815.15,819.7219,808.15,822.5219,815.15,825.3219,812.35,822.5219" style="stroke:#181818;stroke-width:0.6999999999999998;"/><text fill="#000000" font-family="sans-serif" font-size="9.1" font-weight="bold" lengthAdjust="spacing" textLength="9.8" x="812.35" y="809.738">17</text><text fill="#000000" font-family="sans-serif" font-size="9.1" lengthAdjust="spacing" textLength="42" x="824.95" y="809.738">vehicleList</text><polygon fill="#181818" points="928.9,841.6256,935.9,844.4256,928.9,847.2256,931.7,844.4256" style="stroke:#181818;stroke-width:0.6999999999999998;"/><line style="stroke:#181818;stroke-width:0.6999999999999998;" x1="807.45" x2="933.1" y1="844.4256" y2="844.4256"/><text fill="#000000" font-family="sans-serif" font-size="9.1" font-weight="bold" lengthAdjust="spacing" textLength="9.8" x="812.35" y="840.7417">18</text><text fill="#000000" font-family="sans-serif" font-size="9.1" lengthAdjust="spacing" textLength="52.5" x="824.95" y="840.7417">getInstance()</text><polygon fill="#181818" points="815.15,863.5293,808.15,866.3293,815.15,869.1293,812.35,866.3293" style="stroke:#181818;stroke-width:0.6999999999999998;"/><line style="stroke:#181818;stroke-width:0.6999999999999998;stroke-dasharray:2.0,2.0;" x1="810.95" x2="940.1" y1="866.3293" y2="866.3293"/><text fill="#000000" font-family="sans-serif" font-size="9.1" font-weight="bold" lengthAdjust="spacing" textLength="9.8" x="819.35" y="862.6454">19</text><text fill="#000000" font-family="sans-serif" font-size="9.1" lengthAdjust="spacing" textLength="46.9" x="831.95" y="862.6454">repositories</text><polygon fill="#181818" points="1003.8,885.433,1010.8,888.233,1003.8,891.033,1006.6,888.233" style="stroke:#181818;stroke-width:0.6999999999999998;"/><line style="stroke:#181818;stroke-width:0.6999999999999998;" x1="807.45" x2="1008" y1="888.233" y2="888.233"/><text fill="#000000" font-family="sans-serif" font-size="9.1" font-weight="bold" lengthAdjust="spacing" textLength="9.8" x="812.35" y="884.5491">20</text><text fill="#000000" font-family="sans-serif" font-size="9.1" lengthAdjust="spacing" textLength="92.4" x="824.95" y="884.5491">getAgendaRepository()</text><polygon fill="#181818" points="815.15,907.3367,808.15,910.1367,815.15,912.9367,812.35,910.1367" style="stroke:#181818;stroke-width:0.6999999999999998;"/><line style="stroke:#181818;stroke-width:0.6999999999999998;stroke-dasharray:2.0,2.0;" x1="810.95" x2="1015" y1="910.1367" y2="910.1367"/><text fill="#000000" font-family="sans-serif" font-size="9.1" font-weight="bold" lengthAdjust="spacing" textLength="9.8" x="819.35" y="906.4528">21</text><text fill="#000000" font-family="sans-serif" font-size="9.1" lengthAdjust="spacing" textLength="72.8" x="831.95" y="906.4528">agendaRepository</text><polygon fill="#181818" points="1092,941.3441,1099,944.1441,1092,946.9441,1094.8,944.1441" style="stroke:#181818;stroke-width:0.6999999999999998;"/><line style="stroke:#181818;stroke-width:0.6999999999999998;" x1="807.45" x2="1096.2" y1="944.1441" y2="944.1441"/><text fill="#000000" font-family="sans-serif" font-size="9.1" font-weight="bold" lengthAdjust="spacing" textLength="9.8" x="812.35" y="934.4084">22</text><text fill="#000000" font-family="sans-serif" font-size="9.1" lengthAdjust="spacing" textLength="219.8" x="824.95" y="928.3565">assignVehiclesToTaskAgenda(title, greenSpaceName,</text><text fill="#000000" font-family="sans-serif" font-size="9.1" lengthAdjust="spacing" textLength="138.6" x="824.95" y="940.4603">workStartDate, status, vehicleList)</text><polygon fill="#181818" points="1227.8,963.2479,1234.8,966.0479,1227.8,968.8479,1230.6,966.0479" style="stroke:#181818;stroke-width:0.6999999999999998;"/><line style="stroke:#181818;stroke-width:0.6999999999999998;" x1="1107.4" x2="1232" y1="966.0479" y2="966.0479"/><text fill="#000000" font-family="sans-serif" font-size="9.1" font-weight="bold" lengthAdjust="spacing" textLength="9.8" x="1112.3" y="962.364">23</text><text fill="#000000" font-family="sans-serif" font-size="9.1" lengthAdjust="spacing" textLength="99.4" x="1124.9" y="962.364">assignVehicles(vehicles)</text><rect fill="#E3E3E3" height="22.8348" rx="1.75" ry="1.75" style="stroke:#181818;stroke-width:0.3499999999999999;" width="31.5" x="1236.2" y="949.7441"/><text fill="#000000" font-family="sans-serif" font-size="9.8" lengthAdjust="spacing" textLength="21.7" x="1241.1" y="965.2193">Task</text><path d="M1222.2,985.1789 L1273.3,985.1789 L1273.3,991.6826 L1266.3,998.6826 L1222.2,998.6826 L1222.2,985.1789 " fill="#EEEEEE" style="stroke:#000000;stroke-width:1.0499999999999998;"/><rect fill="none" height="117.1912" style="stroke:#000000;stroke-width:1.0499999999999998;" width="270.55" x="1222.2" y="985.1789"/><text fill="#000000" font-family="sans-serif" font-size="9.1" font-weight="bold" lengthAdjust="spacing" textLength="19.6" x="1232.7" y="995.6987">loop</text><text fill="#000000" font-family="sans-serif" font-size="7.7" font-weight="bold" lengthAdjust="spacing" textLength="104.3" x="1283.8" y="994.888">[for each vehicle in the list]</text><path d="M1229.2,1003.5826 L1271.9,1003.5826 L1271.9,1010.0863 L1264.9,1017.0863 L1229.2,1017.0863 L1229.2,1003.5826 " fill="#EEEEEE" style="stroke:#000000;stroke-width:1.0499999999999998;"/><rect fill="none" height="93.8875" style="stroke:#000000;stroke-width:1.0499999999999998;" width="256.55" x="1229.2" y="1003.5826"/><text fill="#000000" font-family="sans-serif" font-size="9.1" font-weight="bold" lengthAdjust="spacing" textLength="11.2" x="1239.7" y="1014.1024">alt</text><text fill="#000000" font-family="sans-serif" font-size="7.7" font-weight="bold" lengthAdjust="spacing" textLength="93.1" x="1282.4" y="1013.2917">[all vehicle are available]</text><polygon fill="#181818" points="1389.15,1030.59,1396.15,1033.39,1389.15,1036.19,1391.95,1033.39" style="stroke:#181818;stroke-width:0.6999999999999998;"/><line style="stroke:#181818;stroke-width:0.6999999999999998;" x1="1251.95" x2="1393.35" y1="1033.39" y2="1033.39"/><text fill="#000000" font-family="sans-serif" font-size="9.1" font-weight="bold" lengthAdjust="spacing" textLength="9.8" x="1256.85" y="1029.7062">24</text><text fill="#000000" font-family="sans-serif" font-size="9.1" lengthAdjust="spacing" textLength="112.7" x="1269.45" y="1029.7062">addWorkPeriod(workPeriod)</text><rect fill="#E3E3E3" height="22.8348" rx="1.75" ry="1.75" style="stroke:#181818;stroke-width:0.3499999999999999;" width="42" x="1397.55" y="1017.0863"/><text fill="#000000" font-family="sans-serif" font-size="9.8" lengthAdjust="spacing" textLength="32.2" x="1402.45" y="1032.5615">Vehicle</text><line style="stroke:#000000;stroke-width:0.6999999999999998;stroke-dasharray:2.0,2.0;" x1="1229.2" x2="1485.75" y1="1048.3211" y2="1048.3211"/><text fill="#000000" font-family="sans-serif" font-size="7.7" font-weight="bold" lengthAdjust="spacing" textLength="102.2" x="1232.7" y="1056.6302">[vehicles are not available]</text><path d="M1236.9,1062.7627 L1236.9,1093.5627 L1478.4,1093.5627 L1478.4,1069.7627 L1471.4,1062.7627 L1236.9,1062.7627 " fill="#FAFAFA" style="stroke:#181818;stroke-width:0.3499999999999999;"/><path d="M1471.4,1062.7627 L1471.4,1069.7627 L1478.4,1069.7627 L1471.4,1062.7627 " fill="#FAFAFA" style="stroke:#181818;stroke-width:0.3499999999999999;"/><text fill="#000000" font-family="sans-serif" font-size="9.1" lengthAdjust="spacing" textLength="170.1" x="1269.625" y="1076.0825">An error message will be shown indicating</text><text fill="#000000" font-family="sans-serif" font-size="9.1" lengthAdjust="spacing" textLength="152.6" x="1278.025" y="1088.1862">the selected vehicles are not available</text><polygon fill="#181818" points="815.15,1120.7738,808.15,1123.5738,815.15,1126.3738,812.35,1123.5738" style="stroke:#181818;stroke-width:0.6999999999999998;"/><line style="stroke:#181818;stroke-width:0.6999999999999998;stroke-dasharray:2.0,2.0;" x1="810.95" x2="1103.2" y1="1123.5738" y2="1123.5738"/><text fill="#000000" font-family="sans-serif" font-size="9.1" font-weight="bold" lengthAdjust="spacing" textLength="9.8" x="819.35" y="1119.8899">25</text><text fill="#000000" font-family="sans-serif" font-size="9.1" lengthAdjust="spacing" textLength="53.9" x="831.95" y="1119.8899">task Optional</text><polygon fill="#181818" points="336.7,1142.6775,329.7,1145.4775,336.7,1148.2775,333.9,1145.4775" style="stroke:#181818;stroke-width:0.6999999999999998;"/><line style="stroke:#181818;stroke-width:0.6999999999999998;" x1="332.5" x2="803.25" y1="1145.4775" y2="1145.4775"/><text fill="#000000" font-family="sans-serif" font-size="9.1" font-weight="bold" lengthAdjust="spacing" textLength="9.8" x="340.9" y="1141.7937">26</text><text fill="#000000" font-family="sans-serif" font-size="9.1" lengthAdjust="spacing" textLength="74.2" x="353.5" y="1141.7937">operation success</text><polygon fill="#181818" points="56.7,1164.5812,49.7,1167.3812,56.7,1170.1812,53.9,1167.3812" style="stroke:#181818;stroke-width:0.6999999999999998;"/><line style="stroke:#181818;stroke-width:0.6999999999999998;stroke-dasharray:2.0,2.0;" x1="52.5" x2="324.8" y1="1167.3812" y2="1167.3812"/><text fill="#000000" font-family="sans-serif" font-size="9.1" font-weight="bold" lengthAdjust="spacing" textLength="9.8" x="60.9" y="1163.6974">27</text><text fill="#000000" font-family="sans-serif" font-size="9.1" lengthAdjust="spacing" textLength="102.9" x="73.5" y="1163.6974">shows operation success</text><!--SRC=[fLTBRziu4BxhLmnogLqum68FUmWM0Omw20AqjH7PxIL0mKXZcskQr9AqZG3vyHrI4aL9paED3eajpkERcM-6OxFZic2QxM6lfCgsMkqHh3vWOi99mR8Tss1gdmI2nimokH6nWDcoN9sutC2Q2OD9OhabqLNwrz__m2Ma-Fy1POOmusn3yad23bR9m_uHTK9VCgiqNDngH0afESC7-Or9ygWlW1cuJRybvCVoZ1TCMhYuccvGvcnrvuzNTvtJ50LX_85RdWaq2rKSYafqCL-i5cTjVL7IQYL4vN9wU_DzDltrPNd_jIjk3D_8slXItP3UqraRPvJliL26KxGSZPUvlrdCsp8w4dcGvpNkfA4IPDZMP1v4K7WYxMddLHbRvwKl03yoYpxJ2Vs1osjAwnLCpSw0LQJbWWOb4QXIUwKHZbK6_B44T6a0Bi5kiVBGcAKAhUwSpIYjS0KRjANaafdTR3clQlwL6piQ9q1Fi13NmnqyFp_x_nhNe8weUmBfxDU-D9SMcF4rpqfNv2Rn0lJ5QVlFCQnB7pgXUr7TQUJuAZJ_GIXLm45QBY1NQEGd2yOp4nWScU0vgC9o9Kjfbo1oJSc_WdIhJiPdKb0kGAt1CbU9AhrbeIdhER2gG9LXAb0IGQEyDzMaaCh6CEJVsUlLfnRpuEYzgSnYGEfYSubpeRLWUxqTOZ5ZbesSzN5pVbts7SI15QuhuSJjjXLdpQfkaWbXYmzb8_jtfMroqh2gxiukYtoDsho92TDeEWhscEA_18xK8HtR6XtSfSSMPS_G8jigPT1tKdxqZHq5zZ8fGWkUOOAJ2-SICSSyPaQLlueSTImcyADIJJeA3QGG_ejS2JnnWJUAdYbn544ldYXxHbodelSWTnbHP_Ki3rrH_grAUXqSrUmOzmm43h7Ea7S3gXm08nPFh4dFABsicD_cm7dIdIUUSj7F7_yZmqaGY-TLGyI0EA9XqfDnTqRP6VNDKNN6Qq_0x- -eDyNTu_rSDg3Yk-nD0r6flSUtvEFWwh2YEwMvtqRZP5YmuNfzTz2rHXnyzpeUce3teQYpq0twTHBxzMm26xTn-ONhEzlZv46UbDwbbfOAQXyw9m3sO2OnkLxdJNCf3Wc-XvtYSM0_V-v5CJgscdV84x0vquEr_THUq_93HThM2QalPD7gkdS34hG9216CCTggs95nmHu53ZVdmdAPgr9L9Y_FVr995wYvoaUdy74yt3pINX_TE8HLAliHlAIEvJXqo2UmHFfXCDJ8b3PFhTrEYiPGnz56GHbzHFf5eawIwfFpZ5dwOJBOCZskjFtRgH_wu5JIA7VH3rQC9eGdyPzu_YEqpRutg3YzlcwceriHOUut1IQIv2Efc0uTj2_DKByyg08rSx307BACMFKHQDNwrz_mZL_c-hxQA-zl]--></g></svg>