<?xml version="1.0" encoding="us-ascii" standalone="no"?><svg xmlns="http://www.w3.org/2000/svg" xmlns:xlink="http://www.w3.org/1999/xlink" contentStyleType="text/css" height="1430.4px" preserveAspectRatio="none" style="width:1111px;height:1430px;background:#FFFFFF;" version="1.1" viewBox="0 0 1111 1430" width="1111.8px" zoomAndPan="magnify"><defs/><g><text fill="#000000" font-family="sans-serif" font-size="8.4" font-weight="bold" lengthAdjust="spacing" textLength="93" x="505.2" y="15.0645">US026 - Class Diagram</text><!--cluster GUI--><g id="cluster_GUI"><path d="M173.7,27.3809 L189.3,27.3809 A2.25,2.25 0 0 1 190.8,28.8809 L195,42.1535 L503.7,42.1535 A1.5,1.5 0 0 1 505.2,43.6535 L505.2,164.4809 A1.5,1.5 0 0 1 503.7,165.9809 L173.7,165.9809 A1.5,1.5 0 0 1 172.2,164.4809 L172.2,28.8809 A1.5,1.5 0 0 1 173.7,27.3809 " fill="#DDDDDD" style="stroke:#000000;stroke-width:0.8999999999999999;"/><line style="stroke:#000000;stroke-width:0.8999999999999999;" x1="172.2" x2="195" y1="42.1535" y2="42.1535"/><text fill="#000000" font-family="sans-serif" font-size="8.4" font-weight="bold" lengthAdjust="spacing" textLength="15" x="174.6" y="37.6453">GUI</text></g><!--cluster Controller--><g id="cluster_Controller"><path d="M62.1,222.9809 L105.3,222.9809 A2.25,2.25 0 0 1 106.8,224.4809 L111,237.7535 L526.5,237.7535 A1.5,1.5 0 0 1 528,239.2535 L528,337.8809 A1.5,1.5 0 0 1 526.5,339.3809 L62.1,339.3809 A1.5,1.5 0 0 1 60.6,337.8809 L60.6,224.4809 A1.5,1.5 0 0 1 62.1,222.9809 " fill="#DDDDDD" style="stroke:#000000;stroke-width:0.8999999999999999;"/><line style="stroke:#000000;stroke-width:0.8999999999999999;" x1="60.6" x2="111" y1="237.7535" y2="237.7535"/><text fill="#000000" font-family="sans-serif" font-size="8.4" font-weight="bold" lengthAdjust="spacing" textLength="42.6" x="63" y="233.2453">Controller</text></g><!--cluster Repository--><g id="cluster_Repository"><path d="M90.3,605.7809 L136.5,605.7809 A2.25,2.25 0 0 1 138,607.2809 L142.2,620.5535 L572.7,620.5535 A1.5,1.5 0 0 1 574.2,622.0535 L574.2,946.5809 A1.5,1.5 0 0 1 572.7,948.0809 L90.3,948.0809 A1.5,1.5 0 0 1 88.8,946.5809 L88.8,607.2809 A1.5,1.5 0 0 1 90.3,605.7809 " fill="#DDDDDD" style="stroke:#000000;stroke-width:0.8999999999999999;"/><line style="stroke:#000000;stroke-width:0.8999999999999999;" x1="88.8" x2="142.2" y1="620.5535" y2="620.5535"/><text fill="#000000" font-family="sans-serif" font-size="8.4" font-weight="bold" lengthAdjust="spacing" textLength="45.6" x="91.2" y="616.0453">Repository</text></g><!--cluster Domain--><g id="cluster_Domain"><path d="M274.5,978.6809 L306.3,978.6809 A2.25,2.25 0 0 1 307.8,980.1809 L312,993.4535 L741.3,993.4535 A1.5,1.5 0 0 1 742.8,994.9535 L742.8,1424.7809 A1.5,1.5 0 0 1 741.3,1426.2809 L274.5,1426.2809 A1.5,1.5 0 0 1 273,1424.7809 L273,980.1809 A1.5,1.5 0 0 1 274.5,978.6809 " fill="#DDDDDD" style="stroke:#000000;stroke-width:0.8999999999999999;"/><line style="stroke:#000000;stroke-width:0.8999999999999999;" x1="273" x2="312" y1="993.4535" y2="993.4535"/><text fill="#000000" font-family="sans-serif" font-size="8.4" font-weight="bold" lengthAdjust="spacing" textLength="31.2" x="275.4" y="988.9453">Domain</text></g><!--cluster Mapper--><g id="cluster_Mapper"><path d="M678.9,239.7809 L711.9,239.7809 A2.25,2.25 0 0 1 713.4,241.2809 L717.6,254.5535 L1106.1,254.5535 A1.5,1.5 0 0 1 1107.6,256.0535 L1107.6,321.0809 A1.5,1.5 0 0 1 1106.1,322.5809 L678.9,322.5809 A1.5,1.5 0 0 1 677.4,321.0809 L677.4,241.2809 A1.5,1.5 0 0 1 678.9,239.7809 " fill="#DDDDDD" style="stroke:#000000;stroke-width:0.8999999999999999;"/><line style="stroke:#000000;stroke-width:0.8999999999999999;" x1="677.4" x2="717.6" y1="254.5535" y2="254.5535"/><text fill="#000000" font-family="sans-serif" font-size="8.4" font-weight="bold" lengthAdjust="spacing" textLength="32.4" x="679.8" y="250.0453">Mapper</text></g><!--cluster DTO--><g id="cluster_DTO"><path d="M683.1,359.1809 L701.1,359.1809 A2.25,2.25 0 0 1 702.6,360.6809 L706.8,373.9535 L1011.9,373.9535 A1.5,1.5 0 0 1 1013.4,375.4535 L1013.4,835.5809 A1.5,1.5 0 0 1 1011.9,837.0809 L683.1,837.0809 A1.5,1.5 0 0 1 681.6,835.5809 L681.6,360.6809 A1.5,1.5 0 0 1 683.1,359.1809 " fill="#DDDDDD" style="stroke:#000000;stroke-width:0.8999999999999999;"/><line style="stroke:#000000;stroke-width:0.8999999999999999;" x1="681.6" x2="706.8" y1="373.9535" y2="373.9535"/><text fill="#000000" font-family="sans-serif" font-size="8.4" font-weight="bold" lengthAdjust="spacing" textLength="17.4" x="684" y="369.4453">DTO</text></g><!--class AgendaUI--><g id="elem_AgendaUI"><rect codeLine="12" fill="#F1F1F1" height="107.0086" id="AgendaUI" rx="1.5" ry="1.5" style="stroke:#181818;stroke-width:0.3;" width="147.6" x="348" y="49.5809"/><ellipse cx="400.95" cy="59.1809" fill="#ADD1B2" rx="6.6" ry="6.6" style="stroke:#181818;stroke-width:0.6;"/><path d="M402.6094,56.7059 Q402.7031,56.5746 402.8156,56.509 Q402.9281,56.4434 403.0594,56.4434 Q403.2844,56.4434 403.425,56.6027 Q403.5656,56.7527 403.5656,57.1184 L403.5656,57.9902 Q403.5656,58.3559 403.425,58.5152 Q403.2844,58.6746 403.0594,58.6746 Q402.8531,58.6746 402.7313,58.5527 Q402.6094,58.4402 402.5438,58.1309 Q402.5156,57.9152 402.4031,57.8027 Q402.2063,57.5777 401.8406,57.4465 Q401.475,57.3152 401.1,57.3152 Q400.6406,57.3152 400.2562,57.5121 Q399.8812,57.709 399.5813,58.159 Q399.2906,58.609 399.2906,59.2277 L399.2906,59.884 Q399.2906,60.6246 399.825,61.1215 Q400.3594,61.609 401.3156,61.609 Q401.8781,61.609 402.2719,61.459 Q402.5062,61.3652 402.7594,61.1027 Q402.9188,60.9434 403.0031,60.8965 Q403.0969,60.8496 403.2188,60.8496 Q403.4156,60.8496 403.5656,61.009 Q403.725,61.159 403.725,61.3652 Q403.725,61.5715 403.5188,61.8152 Q403.2188,62.1621 402.7406,62.359 Q402.0938,62.6309 401.3156,62.6309 Q400.4063,62.6309 399.6844,62.2559 Q399.0938,61.9559 398.6813,61.3184 Q398.2688,60.6715 398.2688,59.9027 L398.2688,59.209 Q398.2688,58.4121 398.6344,57.7277 Q399.0094,57.034 399.6656,56.6684 Q400.3219,56.2934 401.0625,56.2934 Q401.5031,56.2934 401.8875,56.3965 Q402.2813,56.4902 402.6094,56.7059 Z " fill="#000000"/><text fill="#000000" font-family="sans-serif" font-size="8.4" lengthAdjust="spacing" textLength="36.6" x="413.25" y="62.659">AgendaUI</text><line style="stroke:#181818;stroke-width:0.3;" x1="348.6" x2="495" y1="68.7809" y2="68.7809"/><text fill="#000000" font-family="sans-serif" font-size="8.4" lengthAdjust="spacing" textLength="121.8" x="351.6" y="80.2453">-AgendaTaskDTO selectedTask</text><text fill="#000000" font-family="sans-serif" font-size="8.4" lengthAdjust="spacing" textLength="137.4" x="351.6" y="91.418">-List&lt;VehicleDTO&gt; selectedVehicles</text><line style="stroke:#181818;stroke-width:0.3;" x1="348.6" x2="495" y1="95.9262" y2="95.9262"/><text fill="#000000" font-family="sans-serif" font-size="8.4" lengthAdjust="spacing" textLength="112.2" x="351.6" y="107.3906">+initialize(location, resources)</text><text fill="#000000" font-family="sans-serif" font-size="8.4" lengthAdjust="spacing" textLength="57" x="351.6" y="118.5633">-fillTaskTable()</text><text fill="#000000" font-family="sans-serif" font-size="8.4" lengthAdjust="spacing" textLength="79.8" x="351.6" y="129.7359">+btnAssignVehicles()</text><text fill="#000000" font-family="sans-serif" font-size="8.4" lengthAdjust="spacing" textLength="74.4" x="351.6" y="140.9086">-updateTableView()</text><text fill="#000000" font-family="sans-serif" font-size="8.4" lengthAdjust="spacing" textLength="140.4" x="351.6" y="152.0812">-validateSelectedTask(selectedTask)</text></g><!--class SelectVehiclesPopupUI--><g id="elem_SelectVehiclesPopupUI"><rect codeLine="22" fill="#F1F1F1" height="95.8359" id="SelectVehiclesPopupUI" rx="1.5" ry="1.5" style="stroke:#181818;stroke-width:0.3;" width="144.6" x="182.1" y="54.9809"/><ellipse cx="208.38" cy="64.5809" fill="#ADD1B2" rx="6.6" ry="6.6" style="stroke:#181818;stroke-width:0.6;"/><path d="M210.0394,62.1059 Q210.1331,61.9746 210.2456,61.909 Q210.3581,61.8434 210.4894,61.8434 Q210.7144,61.8434 210.855,62.0027 Q210.9956,62.1527 210.9956,62.5184 L210.9956,63.3902 Q210.9956,63.7559 210.855,63.9152 Q210.7144,64.0746 210.4894,64.0746 Q210.2831,64.0746 210.1613,63.9527 Q210.0394,63.8402 209.9738,63.5309 Q209.9456,63.3152 209.8331,63.2027 Q209.6363,62.9777 209.2706,62.8465 Q208.905,62.7152 208.53,62.7152 Q208.0706,62.7152 207.6863,62.9121 Q207.3113,63.109 207.0113,63.559 Q206.7206,64.009 206.7206,64.6277 L206.7206,65.284 Q206.7206,66.0246 207.255,66.5215 Q207.7894,67.009 208.7456,67.009 Q209.3081,67.009 209.7019,66.859 Q209.9363,66.7652 210.1894,66.5027 Q210.3488,66.3434 210.4331,66.2965 Q210.5269,66.2496 210.6488,66.2496 Q210.8456,66.2496 210.9956,66.409 Q211.155,66.559 211.155,66.7652 Q211.155,66.9715 210.9488,67.2152 Q210.6488,67.5621 210.1706,67.759 Q209.5238,68.0309 208.7456,68.0309 Q207.8363,68.0309 207.1144,67.6559 Q206.5238,67.3559 206.1113,66.7184 Q205.6988,66.0715 205.6988,65.3027 L205.6988,64.609 Q205.6988,63.8121 206.0644,63.1277 Q206.4394,62.434 207.0956,62.0684 Q207.7519,61.6934 208.4925,61.6934 Q208.9331,61.6934 209.3175,61.7965 Q209.7113,61.8902 210.0394,62.1059 Z " fill="#000000"/><text fill="#000000" font-family="sans-serif" font-size="8.4" lengthAdjust="spacing" textLength="87" x="220.62" y="68.059">SelectVehiclesPopupUI</text><line style="stroke:#181818;stroke-width:0.3;" x1="182.7" x2="326.1" y1="74.1809" y2="74.1809"/><text fill="#000000" font-family="sans-serif" font-size="8.4" lengthAdjust="spacing" textLength="137.4" x="185.7" y="85.6453">-List&lt;VehicleDTO&gt; vehiclesSelected</text><line style="stroke:#181818;stroke-width:0.3;" x1="182.7" x2="326.1" y1="90.1535" y2="90.1535"/><text fill="#000000" font-family="sans-serif" font-size="8.4" lengthAdjust="spacing" textLength="73.8" x="185.7" y="101.618">+btnSelectVehicle()</text><text fill="#000000" font-family="sans-serif" font-size="8.4" lengthAdjust="spacing" textLength="70.8" x="185.7" y="112.7906">-btnCancelAction()</text><text fill="#000000" font-family="sans-serif" font-size="8.4" lengthAdjust="spacing" textLength="36" x="185.7" y="123.9633">-closeUI()</text><text fill="#000000" font-family="sans-serif" font-size="8.4" lengthAdjust="spacing" textLength="87.6" x="185.7" y="135.1359">+getVehiclesSelected()</text><text fill="#000000" font-family="sans-serif" font-size="8.4" lengthAdjust="spacing" textLength="67.8" x="185.7" y="146.3086">+fillVehicleTable()</text></g><!--class AssignVehiclesToEntryAgendaController--><g id="elem_AssignVehiclesToEntryAgendaController"><rect codeLine="35" fill="#F1F1F1" height="84.6633" id="AssignVehiclesToEntryAgendaController" rx="1.5" ry="1.5" style="stroke:#181818;stroke-width:0.3;" width="284.4" x="70.2" y="245.1809"/><ellipse cx="133.05" cy="254.7809" fill="#ADD1B2" rx="6.6" ry="6.6" style="stroke:#181818;stroke-width:0.6;"/><path d="M134.7094,252.3059 Q134.8031,252.1746 134.9156,252.109 Q135.0281,252.0434 135.1594,252.0434 Q135.3844,252.0434 135.525,252.2027 Q135.6656,252.3527 135.6656,252.7184 L135.6656,253.5902 Q135.6656,253.9559 135.525,254.1152 Q135.3844,254.2746 135.1594,254.2746 Q134.9531,254.2746 134.8312,254.1527 Q134.7094,254.0402 134.6437,253.7309 Q134.6156,253.5152 134.5031,253.4027 Q134.3063,253.1777 133.9406,253.0465 Q133.575,252.9152 133.2,252.9152 Q132.7406,252.9152 132.3563,253.1121 Q131.9813,253.309 131.6813,253.759 Q131.3906,254.209 131.3906,254.8277 L131.3906,255.484 Q131.3906,256.2246 131.925,256.7215 Q132.4594,257.209 133.4156,257.209 Q133.9781,257.209 134.3719,257.059 Q134.6063,256.9652 134.8594,256.7027 Q135.0187,256.5434 135.1031,256.4965 Q135.1969,256.4496 135.3188,256.4496 Q135.5156,256.4496 135.6656,256.609 Q135.825,256.759 135.825,256.9652 Q135.825,257.1715 135.6188,257.4152 Q135.3188,257.7621 134.8406,257.959 Q134.1938,258.2309 133.4156,258.2309 Q132.5063,258.2309 131.7844,257.8559 Q131.1938,257.5559 130.7813,256.9184 Q130.3688,256.2715 130.3688,255.5027 L130.3688,254.809 Q130.3688,254.0121 130.7344,253.3277 Q131.1094,252.634 131.7656,252.2684 Q132.4219,251.8934 133.1625,251.8934 Q133.6031,251.8934 133.9875,251.9965 Q134.3813,252.0902 134.7094,252.3059 Z " fill="#000000"/><text fill="#000000" font-family="sans-serif" font-size="8.4" lengthAdjust="spacing" textLength="153.6" x="145.35" y="258.259">AssignVehiclesToEntryAgendaController</text><line style="stroke:#181818;stroke-width:0.3;" x1="70.8" x2="354" y1="264.3809" y2="264.3809"/><line style="stroke:#181818;stroke-width:0.3;" x1="70.8" x2="354" y1="269.1809" y2="269.1809"/><text fill="#000000" font-family="sans-serif" font-size="8.4" lengthAdjust="spacing" textLength="164.4" x="73.8" y="280.6453">+AssignVehiclesToEntryAgendaController()</text><text fill="#000000" font-family="sans-serif" font-size="8.4" lengthAdjust="spacing" textLength="93" x="73.8" y="291.818">+getAgendaRepository()</text><text fill="#000000" font-family="sans-serif" font-size="8.4" lengthAdjust="spacing" textLength="91.2" x="73.8" y="302.9906">+getVehicleRepository()</text><text fill="#000000" font-family="sans-serif" font-size="8.4" lengthAdjust="spacing" textLength="54.6" x="73.8" y="314.1633">+getVehicles()</text><text fill="#000000" font-family="sans-serif" font-size="8.4" lengthAdjust="spacing" textLength="277.2" x="73.8" y="325.3359">+assignVehiclesToTaskAgenda(agendaTaskDTO, selectedVehiclesDTO)</text></g><!--class AgendaController--><g id="elem_AgendaController"><rect codeLine="43" fill="#F1F1F1" height="39.9727" id="AgendaController" rx="1.5" ry="1.5" style="stroke:#181818;stroke-width:0.3;" width="142.8" x="375.6" y="267.3809"/><ellipse cx="411.15" cy="276.9809" fill="#ADD1B2" rx="6.6" ry="6.6" style="stroke:#181818;stroke-width:0.6;"/><path d="M412.8094,274.5059 Q412.9031,274.3746 413.0156,274.309 Q413.1281,274.2434 413.2594,274.2434 Q413.4844,274.2434 413.625,274.4027 Q413.7656,274.5527 413.7656,274.9184 L413.7656,275.7902 Q413.7656,276.1559 413.625,276.3152 Q413.4844,276.4746 413.2594,276.4746 Q413.0531,276.4746 412.9313,276.3527 Q412.8094,276.2402 412.7438,275.9309 Q412.7156,275.7152 412.6031,275.6027 Q412.4063,275.3777 412.0406,275.2465 Q411.675,275.1152 411.3,275.1152 Q410.8406,275.1152 410.4563,275.3121 Q410.0813,275.509 409.7813,275.959 Q409.4906,276.409 409.4906,277.0277 L409.4906,277.684 Q409.4906,278.4246 410.025,278.9215 Q410.5594,279.409 411.5156,279.409 Q412.0781,279.409 412.4719,279.259 Q412.7063,279.1652 412.9594,278.9027 Q413.1188,278.7434 413.2031,278.6965 Q413.2969,278.6496 413.4188,278.6496 Q413.6156,278.6496 413.7656,278.809 Q413.925,278.959 413.925,279.1652 Q413.925,279.3715 413.7188,279.6152 Q413.4188,279.9621 412.9406,280.159 Q412.2938,280.4309 411.5156,280.4309 Q410.6063,280.4309 409.8844,280.0559 Q409.2938,279.7559 408.8812,279.1184 Q408.4688,278.4715 408.4688,277.7027 L408.4688,277.009 Q408.4688,276.2121 408.8344,275.5277 Q409.2094,274.834 409.8656,274.4684 Q410.5219,274.0934 411.2625,274.0934 Q411.7031,274.0934 412.0875,274.1965 Q412.4813,274.2902 412.8094,274.5059 Z " fill="#000000"/><text fill="#000000" font-family="sans-serif" font-size="8.4" lengthAdjust="spacing" textLength="66.6" x="423.45" y="280.459">AgendaController</text><line style="stroke:#181818;stroke-width:0.3;" x1="376.2" x2="517.8" y1="286.5809" y2="286.5809"/><line style="stroke:#181818;stroke-width:0.3;" x1="376.2" x2="517.8" y1="291.3809" y2="291.3809"/><text fill="#000000" font-family="sans-serif" font-size="8.4" lengthAdjust="spacing" textLength="135.6" x="379.2" y="302.8453">+getAgendaTaskDTOManagerList()</text></g><!--class VehicleRepository--><g id="elem_VehicleRepository"><rect codeLine="52" fill="#F1F1F1" height="62.318" id="VehicleRepository" rx="1.5" ry="1.5" style="stroke:#181818;stroke-width:0.3;" width="166.2" x="98.7" y="870.6809"/><ellipse cx="145.05" cy="880.2809" fill="#ADD1B2" rx="6.6" ry="6.6" style="stroke:#181818;stroke-width:0.6;"/><path d="M146.7094,877.8059 Q146.8031,877.6746 146.9156,877.609 Q147.0281,877.5434 147.1594,877.5434 Q147.3844,877.5434 147.525,877.7027 Q147.6656,877.8527 147.6656,878.2184 L147.6656,879.0902 Q147.6656,879.4559 147.525,879.6152 Q147.3844,879.7746 147.1594,879.7746 Q146.9531,879.7746 146.8312,879.6527 Q146.7094,879.5402 146.6437,879.2309 Q146.6156,879.0152 146.5031,878.9027 Q146.3063,878.6777 145.9406,878.5465 Q145.575,878.4152 145.2,878.4152 Q144.7406,878.4152 144.3563,878.6121 Q143.9813,878.809 143.6813,879.259 Q143.3906,879.709 143.3906,880.3277 L143.3906,880.984 Q143.3906,881.7246 143.925,882.2215 Q144.4594,882.709 145.4156,882.709 Q145.9781,882.709 146.3719,882.559 Q146.6063,882.4652 146.8594,882.2027 Q147.0187,882.0434 147.1031,881.9965 Q147.1969,881.9496 147.3188,881.9496 Q147.5156,881.9496 147.6656,882.109 Q147.825,882.259 147.825,882.4652 Q147.825,882.6715 147.6188,882.9152 Q147.3188,883.2621 146.8406,883.459 Q146.1938,883.7309 145.4156,883.7309 Q144.5063,883.7309 143.7844,883.3559 Q143.1938,883.0559 142.7813,882.4184 Q142.3688,881.7715 142.3688,881.0027 L142.3688,880.309 Q142.3688,879.5121 142.7344,878.8277 Q143.1094,878.134 143.7656,877.7684 Q144.4219,877.3934 145.1625,877.3934 Q145.6031,877.3934 145.9875,877.4965 Q146.3813,877.5902 146.7094,877.8059 Z " fill="#000000"/><text fill="#000000" font-family="sans-serif" font-size="8.4" lengthAdjust="spacing" textLength="68.4" x="157.35" y="883.759">VehicleRepository</text><line style="stroke:#181818;stroke-width:0.3;" x1="99.3" x2="264.3" y1="889.8809" y2="889.8809"/><text fill="#000000" font-family="sans-serif" font-size="8.4" lengthAdjust="spacing" textLength="89.4" x="102.3" y="901.3453">-List&lt;Team&gt; vehicleList</text><line style="stroke:#181818;stroke-width:0.3;" x1="99.3" x2="264.3" y1="905.8535" y2="905.8535"/><text fill="#000000" font-family="sans-serif" font-size="8.4" lengthAdjust="spacing" textLength="63.6" x="102.3" y="917.318">+getVehicleList()</text><text fill="#000000" font-family="sans-serif" font-size="8.4" lengthAdjust="spacing" textLength="159" x="102.3" y="928.4906">+getVehicleByPlateId(vehicleDTO.plateID)</text></g><!--class AgendaRepository--><g id="elem_AgendaRepository"><rect codeLine="59" fill="#F1F1F1" height="73.4906" id="AgendaRepository" rx="1.5" ry="1.5" style="stroke:#181818;stroke-width:0.3;" width="217.8" x="285.9" y="865.2809"/><ellipse cx="357.15" cy="874.8809" fill="#ADD1B2" rx="6.6" ry="6.6" style="stroke:#181818;stroke-width:0.6;"/><path d="M358.8094,872.4059 Q358.9031,872.2746 359.0156,872.209 Q359.1281,872.1434 359.2594,872.1434 Q359.4844,872.1434 359.625,872.3027 Q359.7656,872.4527 359.7656,872.8184 L359.7656,873.6902 Q359.7656,874.0559 359.625,874.2152 Q359.4844,874.3746 359.2594,874.3746 Q359.0531,874.3746 358.9313,874.2527 Q358.8094,874.1402 358.7438,873.8309 Q358.7156,873.6152 358.6031,873.5027 Q358.4063,873.2777 358.0406,873.1465 Q357.675,873.0152 357.3,873.0152 Q356.8406,873.0152 356.4563,873.2121 Q356.0813,873.409 355.7813,873.859 Q355.4906,874.309 355.4906,874.9277 L355.4906,875.584 Q355.4906,876.3246 356.025,876.8215 Q356.5594,877.309 357.5156,877.309 Q358.0781,877.309 358.4719,877.159 Q358.7063,877.0652 358.9594,876.8027 Q359.1188,876.6434 359.2031,876.5965 Q359.2969,876.5496 359.4188,876.5496 Q359.6156,876.5496 359.7656,876.709 Q359.925,876.859 359.925,877.0652 Q359.925,877.2715 359.7188,877.5152 Q359.4188,877.8621 358.9406,878.059 Q358.2938,878.3309 357.5156,878.3309 Q356.6063,878.3309 355.8844,877.9559 Q355.2938,877.6559 354.8812,877.0184 Q354.4688,876.3715 354.4688,875.6027 L354.4688,874.909 Q354.4688,874.1121 354.8344,873.4277 Q355.2094,872.734 355.8656,872.3684 Q356.5219,871.9934 357.2625,871.9934 Q357.7031,871.9934 358.0875,872.0965 Q358.4813,872.1902 358.8094,872.4059 Z " fill="#000000"/><text fill="#000000" font-family="sans-serif" font-size="8.4" lengthAdjust="spacing" textLength="70.2" x="369.45" y="878.359">AgendaRepository</text><line style="stroke:#181818;stroke-width:0.3;" x1="286.5" x2="503.1" y1="884.4809" y2="884.4809"/><text fill="#000000" font-family="sans-serif" font-size="8.4" lengthAdjust="spacing" textLength="75.6" x="289.5" y="895.9453">-List&lt;Task&gt; agenda</text><line style="stroke:#181818;stroke-width:0.3;" x1="286.5" x2="503.1" y1="900.4535" y2="900.4535"/><text fill="#000000" font-family="sans-serif" font-size="8.4" lengthAdjust="spacing" textLength="169.2" x="289.5" y="911.918">+getManagerSpecificAgenda(managerEmail)</text><text fill="#000000" font-family="sans-serif" font-size="8.4" lengthAdjust="spacing" textLength="210.6" x="289.5" y="923.0906">+assignVehiclesToTaskAgenda(title, greenSpaceName,</text><text fill="#000000" font-family="sans-serif" font-size="8.4" lengthAdjust="spacing" textLength="120" x="289.5" y="934.2633">executionDate, status, vehicles)</text></g><!--class Repositories--><g id="elem_Repositories"><rect codeLine="66" fill="#F1F1F1" height="73.4906" id="Repositories" rx="1.5" ry="1.5" style="stroke:#181818;stroke-width:0.3;" width="116.4" x="192" y="627.9809"/><ellipse cx="223.95" cy="637.5809" fill="#ADD1B2" rx="6.6" ry="6.6" style="stroke:#181818;stroke-width:0.6;"/><path d="M225.6094,635.1059 Q225.7031,634.9746 225.8156,634.909 Q225.9281,634.8434 226.0594,634.8434 Q226.2844,634.8434 226.425,635.0027 Q226.5656,635.1527 226.5656,635.5184 L226.5656,636.3902 Q226.5656,636.7559 226.425,636.9152 Q226.2844,637.0746 226.0594,637.0746 Q225.8531,637.0746 225.7313,636.9527 Q225.6094,636.8402 225.5438,636.5309 Q225.5156,636.3152 225.4031,636.2027 Q225.2062,635.9777 224.8406,635.8465 Q224.475,635.7152 224.1,635.7152 Q223.6406,635.7152 223.2563,635.9121 Q222.8813,636.109 222.5812,636.559 Q222.2906,637.009 222.2906,637.6277 L222.2906,638.284 Q222.2906,639.0246 222.825,639.5215 Q223.3594,640.009 224.3156,640.009 Q224.8781,640.009 225.2719,639.859 Q225.5063,639.7652 225.7594,639.5027 Q225.9188,639.3434 226.0031,639.2965 Q226.0969,639.2496 226.2188,639.2496 Q226.4156,639.2496 226.5656,639.409 Q226.725,639.559 226.725,639.7652 Q226.725,639.9715 226.5187,640.2152 Q226.2188,640.5621 225.7406,640.759 Q225.0938,641.0309 224.3156,641.0309 Q223.4063,641.0309 222.6844,640.6559 Q222.0938,640.3559 221.6813,639.7184 Q221.2687,639.0715 221.2687,638.3027 L221.2687,637.609 Q221.2687,636.8121 221.6344,636.1277 Q222.0094,635.434 222.6656,635.0684 Q223.3219,634.6934 224.0625,634.6934 Q224.5031,634.6934 224.8875,634.7965 Q225.2813,634.8902 225.6094,635.1059 Z " fill="#000000"/><text fill="#000000" font-family="sans-serif" font-size="8.4" lengthAdjust="spacing" textLength="47.4" x="236.25" y="641.059">Repositories</text><line style="stroke:#181818;stroke-width:0.3;" x1="192.6" x2="307.8" y1="647.1809" y2="647.1809"/><line style="stroke:#181818;stroke-width:0.3;" x1="192.6" x2="307.8" y1="651.9809" y2="651.9809"/><text fill="#000000" font-family="sans-serif" font-size="8.4" lengthAdjust="spacing" textLength="56.4" x="195.6" y="663.4453">-Repositories()</text><text fill="#000000" font-family="sans-serif" font-size="8.4" lengthAdjust="spacing" textLength="109.2" x="195.6" y="674.618">+getInstance() : Repositories</text><text fill="#000000" font-family="sans-serif" font-size="8.4" lengthAdjust="spacing" textLength="91.2" x="195.6" y="685.7906">+getVehicleRepository()</text><text fill="#000000" font-family="sans-serif" font-size="8.4" lengthAdjust="spacing" textLength="93" x="195.6" y="696.9633">+getAgendaRepository()</text></g><!--class ApplicationSession--><g id="elem_ApplicationSession"><rect codeLine="73" fill="#F1F1F1" height="73.4906" id="ApplicationSession" rx="1.5" ry="1.5" style="stroke:#181818;stroke-width:0.3;" width="140.4" x="376.8" y="627.9809"/><ellipse cx="408.75" cy="637.5809" fill="#ADD1B2" rx="6.6" ry="6.6" style="stroke:#181818;stroke-width:0.6;"/><path d="M410.4094,635.1059 Q410.5031,634.9746 410.6156,634.909 Q410.7281,634.8434 410.8594,634.8434 Q411.0844,634.8434 411.225,635.0027 Q411.3656,635.1527 411.3656,635.5184 L411.3656,636.3902 Q411.3656,636.7559 411.225,636.9152 Q411.0844,637.0746 410.8594,637.0746 Q410.6531,637.0746 410.5313,636.9527 Q410.4094,636.8402 410.3438,636.5309 Q410.3156,636.3152 410.2031,636.2027 Q410.0062,635.9777 409.6406,635.8465 Q409.275,635.7152 408.9,635.7152 Q408.4406,635.7152 408.0563,635.9121 Q407.6813,636.109 407.3812,636.559 Q407.0906,637.009 407.0906,637.6277 L407.0906,638.284 Q407.0906,639.0246 407.625,639.5215 Q408.1594,640.009 409.1156,640.009 Q409.6781,640.009 410.0719,639.859 Q410.3063,639.7652 410.5594,639.5027 Q410.7188,639.3434 410.8031,639.2965 Q410.8969,639.2496 411.0188,639.2496 Q411.2156,639.2496 411.3656,639.409 Q411.525,639.559 411.525,639.7652 Q411.525,639.9715 411.3187,640.2152 Q411.0188,640.5621 410.5406,640.759 Q409.8938,641.0309 409.1156,641.0309 Q408.2063,641.0309 407.4844,640.6559 Q406.8938,640.3559 406.4813,639.7184 Q406.0687,639.0715 406.0687,638.3027 L406.0687,637.609 Q406.0687,636.8121 406.4344,636.1277 Q406.8094,635.434 407.4656,635.0684 Q408.1219,634.6934 408.8625,634.6934 Q409.3031,634.6934 409.6875,634.7965 Q410.0813,634.8902 410.4094,635.1059 Z " fill="#000000"/><text fill="#000000" font-family="sans-serif" font-size="8.4" lengthAdjust="spacing" textLength="71.4" x="421.05" y="641.059">ApplicationSession</text><line style="stroke:#181818;stroke-width:0.3;" x1="377.4" x2="516.6" y1="647.1809" y2="647.1809"/><line style="stroke:#181818;stroke-width:0.3;" x1="377.4" x2="516.6" y1="651.9809" y2="651.9809"/><text fill="#000000" font-family="sans-serif" font-size="8.4" lengthAdjust="spacing" textLength="80.4" x="380.4" y="663.4453">-ApplicationSession()</text><text fill="#000000" font-family="sans-serif" font-size="8.4" lengthAdjust="spacing" textLength="133.2" x="380.4" y="674.618">+getInstance() : ApplicationSession</text><text fill="#000000" font-family="sans-serif" font-size="8.4" lengthAdjust="spacing" textLength="117.6" x="380.4" y="685.7906">+getAuthenticationRepository()</text><text fill="#000000" font-family="sans-serif" font-size="8.4" lengthAdjust="spacing" textLength="81.6" x="380.4" y="696.9633">+getCurrentSession()</text></g><!--class UserSession--><g id="elem_UserSession"><rect codeLine="81" fill="#F1F1F1" height="39.9727" id="UserSession" rx="1.5" ry="1.5" style="stroke:#181818;stroke-width:0.3;" width="67.8" x="459.9" y="770.7809"/><ellipse cx="469.44" cy="780.3809" fill="#ADD1B2" rx="6.6" ry="6.6" style="stroke:#181818;stroke-width:0.6;"/><path d="M471.0994,777.9059 Q471.1931,777.7746 471.3056,777.709 Q471.4181,777.6434 471.5494,777.6434 Q471.7744,777.6434 471.915,777.8027 Q472.0556,777.9527 472.0556,778.3184 L472.0556,779.1902 Q472.0556,779.5559 471.915,779.7152 Q471.7744,779.8746 471.5494,779.8746 Q471.3431,779.8746 471.2212,779.7527 Q471.0994,779.6402 471.0337,779.3309 Q471.0056,779.1152 470.8931,779.0027 Q470.6962,778.7777 470.3306,778.6465 Q469.965,778.5152 469.59,778.5152 Q469.1306,778.5152 468.7463,778.7121 Q468.3713,778.909 468.0712,779.359 Q467.7806,779.809 467.7806,780.4277 L467.7806,781.084 Q467.7806,781.8246 468.315,782.3215 Q468.8494,782.809 469.8056,782.809 Q470.3681,782.809 470.7619,782.659 Q470.9963,782.5652 471.2494,782.3027 Q471.4087,782.1434 471.4931,782.0965 Q471.5869,782.0496 471.7087,782.0496 Q471.9056,782.0496 472.0556,782.209 Q472.215,782.359 472.215,782.5652 Q472.215,782.7715 472.0087,783.0152 Q471.7087,783.3621 471.2306,783.559 Q470.5837,783.8309 469.8056,783.8309 Q468.8962,783.8309 468.1744,783.4559 Q467.5837,783.1559 467.1713,782.5184 Q466.7587,781.8715 466.7587,781.1027 L466.7587,780.409 Q466.7587,779.6121 467.1244,778.9277 Q467.4994,778.234 468.1556,777.8684 Q468.8119,777.4934 469.5525,777.4934 Q469.9931,777.4934 470.3775,777.5965 Q470.7712,777.6902 471.0994,777.9059 Z " fill="#000000"/><text fill="#000000" font-family="sans-serif" font-size="8.4" lengthAdjust="spacing" textLength="47.4" x="477.96" y="783.859">UserSession</text><line style="stroke:#181818;stroke-width:0.3;" x1="460.5" x2="527.1" y1="789.9809" y2="789.9809"/><line style="stroke:#181818;stroke-width:0.3;" x1="460.5" x2="527.1" y1="794.7809" y2="794.7809"/><text fill="#000000" font-family="sans-serif" font-size="8.4" lengthAdjust="spacing" textLength="60.6" x="463.5" y="806.2453">+getUserEmail()</text></g><!--class Email--><g id="elem_Email"><rect codeLine="86" fill="#F1F1F1" height="28.8" id="Email" rx="1.5" ry="1.5" style="stroke:#181818;stroke-width:0.3;" width="39.6" x="525" y="887.4809"/><ellipse cx="534" cy="897.0809" fill="#ADD1B2" rx="6.6" ry="6.6" style="stroke:#181818;stroke-width:0.6;"/><path d="M535.6594,894.6059 Q535.7531,894.4746 535.8656,894.409 Q535.9781,894.3434 536.1094,894.3434 Q536.3344,894.3434 536.475,894.5027 Q536.6156,894.6527 536.6156,895.0184 L536.6156,895.8902 Q536.6156,896.2559 536.475,896.4152 Q536.3344,896.5746 536.1094,896.5746 Q535.9031,896.5746 535.7813,896.4527 Q535.6594,896.3402 535.5938,896.0309 Q535.5656,895.8152 535.4531,895.7027 Q535.2563,895.4777 534.8906,895.3465 Q534.525,895.2152 534.15,895.2152 Q533.6906,895.2152 533.3063,895.4121 Q532.9313,895.609 532.6313,896.059 Q532.3406,896.509 532.3406,897.1277 L532.3406,897.784 Q532.3406,898.5246 532.875,899.0215 Q533.4094,899.509 534.3656,899.509 Q534.9281,899.509 535.3219,899.359 Q535.5563,899.2652 535.8094,899.0027 Q535.9688,898.8434 536.0531,898.7965 Q536.1469,898.7496 536.2688,898.7496 Q536.4656,898.7496 536.6156,898.909 Q536.775,899.059 536.775,899.2652 Q536.775,899.4715 536.5688,899.7152 Q536.2688,900.0621 535.7906,900.259 Q535.1438,900.5309 534.3656,900.5309 Q533.4563,900.5309 532.7344,900.1559 Q532.1438,899.8559 531.7312,899.2184 Q531.3188,898.5715 531.3188,897.8027 L531.3188,897.109 Q531.3188,896.3121 531.6844,895.6277 Q532.0594,894.934 532.7156,894.5684 Q533.3719,894.1934 534.1125,894.1934 Q534.5531,894.1934 534.9375,894.2965 Q535.3313,894.3902 535.6594,894.6059 Z " fill="#000000"/><text fill="#000000" font-family="sans-serif" font-size="8.4" lengthAdjust="spacing" textLength="20.4" x="542.4" y="900.559">Email</text><line style="stroke:#181818;stroke-width:0.3;" x1="525.6" x2="564" y1="906.6809" y2="906.6809"/><line style="stroke:#181818;stroke-width:0.3;" x1="525.6" x2="564" y1="911.4809" y2="911.4809"/></g><!--class WorkPeriod--><g id="elem_WorkPeriod"><rect codeLine="95" fill="#F1F1F1" height="95.8359" id="WorkPeriod" rx="1.5" ry="1.5" style="stroke:#181818;stroke-width:0.3;" width="85.8" x="363.9" y="1320.6809"/><ellipse cx="382.89" cy="1330.2809" fill="#ADD1B2" rx="6.6" ry="6.6" style="stroke:#181818;stroke-width:0.6;"/><path d="M384.5494,1327.8059 Q384.6431,1327.6746 384.7556,1327.609 Q384.8681,1327.5434 384.9994,1327.5434 Q385.2244,1327.5434 385.365,1327.7027 Q385.5056,1327.8527 385.5056,1328.2184 L385.5056,1329.0902 Q385.5056,1329.4559 385.365,1329.6152 Q385.2244,1329.7746 384.9994,1329.7746 Q384.7931,1329.7746 384.6713,1329.6527 Q384.5494,1329.5402 384.4838,1329.2309 Q384.4556,1329.0152 384.3431,1328.9027 Q384.1462,1328.6777 383.7806,1328.5465 Q383.415,1328.4152 383.04,1328.4152 Q382.5806,1328.4152 382.1962,1328.6121 Q381.8212,1328.809 381.5212,1329.259 Q381.2306,1329.709 381.2306,1330.3277 L381.2306,1330.984 Q381.2306,1331.7246 381.765,1332.2215 Q382.2994,1332.709 383.2556,1332.709 Q383.8181,1332.709 384.2119,1332.559 Q384.4462,1332.4652 384.6994,1332.2027 Q384.8588,1332.0434 384.9431,1331.9965 Q385.0369,1331.9496 385.1588,1331.9496 Q385.3556,1331.9496 385.5056,1332.109 Q385.665,1332.259 385.665,1332.4652 Q385.665,1332.6715 385.4587,1332.9152 Q385.1588,1333.2621 384.6806,1333.459 Q384.0338,1333.7309 383.2556,1333.7309 Q382.3463,1333.7309 381.6244,1333.3559 Q381.0338,1333.0559 380.6213,1332.4184 Q380.2087,1331.7715 380.2087,1331.0027 L380.2087,1330.309 Q380.2087,1329.5121 380.5744,1328.8277 Q380.9494,1328.134 381.6056,1327.7684 Q382.2619,1327.3934 383.0025,1327.3934 Q383.4431,1327.3934 383.8275,1327.4965 Q384.2213,1327.5902 384.5494,1327.8059 Z " fill="#000000"/><text fill="#000000" font-family="sans-serif" font-size="8.4" lengthAdjust="spacing" textLength="44.4" x="393.51" y="1333.759">WorkPeriod</text><line style="stroke:#181818;stroke-width:0.3;" x1="364.5" x2="449.1" y1="1339.8809" y2="1339.8809"/><text fill="#000000" font-family="sans-serif" font-size="8.4" lengthAdjust="spacing" textLength="78.6" x="367.5" y="1351.3453">+Date workStartDate</text><text fill="#000000" font-family="sans-serif" font-size="8.4" lengthAdjust="spacing" textLength="69.6" x="367.5" y="1362.518">+int workStartHour</text><text fill="#000000" font-family="sans-serif" font-size="8.4" lengthAdjust="spacing" textLength="64.8" x="367.5" y="1373.6906">+int workStartMin</text><text fill="#000000" font-family="sans-serif" font-size="8.4" lengthAdjust="spacing" textLength="75.6" x="367.5" y="1384.8633">+Date workEndDate</text><text fill="#000000" font-family="sans-serif" font-size="8.4" lengthAdjust="spacing" textLength="66.6" x="367.5" y="1396.0359">+int workEndHour</text><text fill="#000000" font-family="sans-serif" font-size="8.4" lengthAdjust="spacing" textLength="61.8" x="367.5" y="1407.2086">+int workEndMin</text><line style="stroke:#181818;stroke-width:0.3;" x1="364.5" x2="449.1" y1="1411.7168" y2="1411.7168"/></g><!--class Vehicle--><g id="elem_Vehicle"><rect codeLine="105" fill="#F1F1F1" height="107.0086" id="Vehicle" rx="1.5" ry="1.5" style="stroke:#181818;stroke-width:0.3;" width="172.2" x="560.7" y="1166.4809"/><ellipse cx="630.45" cy="1176.0809" fill="#ADD1B2" rx="6.6" ry="6.6" style="stroke:#181818;stroke-width:0.6;"/><path d="M632.1094,1173.6059 Q632.2031,1173.4746 632.3156,1173.409 Q632.4281,1173.3434 632.5594,1173.3434 Q632.7844,1173.3434 632.925,1173.5027 Q633.0656,1173.6527 633.0656,1174.0184 L633.0656,1174.8902 Q633.0656,1175.2559 632.925,1175.4152 Q632.7844,1175.5746 632.5594,1175.5746 Q632.3531,1175.5746 632.2312,1175.4527 Q632.1094,1175.3402 632.0437,1175.0309 Q632.0156,1174.8152 631.9031,1174.7027 Q631.7063,1174.4777 631.3406,1174.3465 Q630.975,1174.2152 630.6,1174.2152 Q630.1406,1174.2152 629.7563,1174.4121 Q629.3813,1174.609 629.0813,1175.059 Q628.7906,1175.509 628.7906,1176.1277 L628.7906,1176.784 Q628.7906,1177.5246 629.325,1178.0215 Q629.8594,1178.509 630.8156,1178.509 Q631.3781,1178.509 631.7719,1178.359 Q632.0063,1178.2652 632.2594,1178.0027 Q632.4187,1177.8434 632.5031,1177.7965 Q632.5969,1177.7496 632.7188,1177.7496 Q632.9156,1177.7496 633.0656,1177.909 Q633.225,1178.059 633.225,1178.2652 Q633.225,1178.4715 633.0188,1178.7152 Q632.7188,1179.0621 632.2406,1179.259 Q631.5938,1179.5309 630.8156,1179.5309 Q629.9063,1179.5309 629.1844,1179.1559 Q628.5938,1178.8559 628.1813,1178.2184 Q627.7688,1177.5715 627.7688,1176.8027 L627.7688,1176.109 Q627.7688,1175.3121 628.1344,1174.6277 Q628.5094,1173.934 629.1656,1173.5684 Q629.8219,1173.1934 630.5625,1173.1934 Q631.0031,1173.1934 631.3875,1173.2965 Q631.7813,1173.3902 632.1094,1173.6059 Z " fill="#000000"/><text fill="#000000" font-family="sans-serif" font-size="8.4" lengthAdjust="spacing" textLength="27.6" x="642.75" y="1179.559">Vehicle</text><line style="stroke:#181818;stroke-width:0.3;" x1="561.3" x2="732.3" y1="1185.6809" y2="1185.6809"/><text fill="#000000" font-family="sans-serif" font-size="8.4" lengthAdjust="spacing" textLength="54.6" x="564.3" y="1197.1453">+String plateId</text><text fill="#000000" font-family="sans-serif" font-size="8.4" lengthAdjust="spacing" textLength="51.6" x="564.3" y="1208.318">+String brand</text><text fill="#000000" font-family="sans-serif" font-size="8.4" lengthAdjust="spacing" textLength="52.2" x="564.3" y="1219.4906">+String model</text><text fill="#000000" font-family="sans-serif" font-size="8.4" lengthAdjust="spacing" textLength="70.2" x="564.3" y="1230.6633">+VehicleType type</text><text fill="#000000" font-family="sans-serif" font-size="8.4" lengthAdjust="spacing" textLength="48" x="564.3" y="1241.8359">+double tare</text><text fill="#000000" font-family="sans-serif" font-size="8.4" lengthAdjust="spacing" textLength="7.2" x="564.3" y="1253.0086">...</text><line style="stroke:#181818;stroke-width:0.3;" x1="561.3" x2="732.3" y1="1257.5168" y2="1257.5168"/><text fill="#000000" font-family="sans-serif" font-size="8.4" lengthAdjust="spacing" textLength="165" x="564.3" y="1268.9813">+removeWorkPeriodIfExists(oldWorkPeriod)</text></g><!--class Task--><g id="elem_Task"><rect codeLine="115" fill="#F1F1F1" height="118.1812" id="Task" rx="1.5" ry="1.5" style="stroke:#181818;stroke-width:0.3;" width="186" x="301.8" y="1000.8809"/><ellipse cx="382.95" cy="1010.4809" fill="#ADD1B2" rx="6.6" ry="6.6" style="stroke:#181818;stroke-width:0.6;"/><path d="M384.6094,1008.0059 Q384.7031,1007.8746 384.8156,1007.809 Q384.9281,1007.7434 385.0594,1007.7434 Q385.2844,1007.7434 385.425,1007.9027 Q385.5656,1008.0527 385.5656,1008.4184 L385.5656,1009.2902 Q385.5656,1009.6559 385.425,1009.8152 Q385.2844,1009.9746 385.0594,1009.9746 Q384.8531,1009.9746 384.7313,1009.8527 Q384.6094,1009.7402 384.5438,1009.4309 Q384.5156,1009.2152 384.4031,1009.1027 Q384.2063,1008.8777 383.8406,1008.7465 Q383.475,1008.6152 383.1,1008.6152 Q382.6406,1008.6152 382.2562,1008.8121 Q381.8812,1009.009 381.5813,1009.459 Q381.2906,1009.909 381.2906,1010.5277 L381.2906,1011.184 Q381.2906,1011.9246 381.825,1012.4215 Q382.3594,1012.909 383.3156,1012.909 Q383.8781,1012.909 384.2719,1012.759 Q384.5062,1012.6652 384.7594,1012.4027 Q384.9188,1012.2434 385.0031,1012.1965 Q385.0969,1012.1496 385.2188,1012.1496 Q385.4156,1012.1496 385.5656,1012.309 Q385.725,1012.459 385.725,1012.6652 Q385.725,1012.8715 385.5188,1013.1152 Q385.2188,1013.4621 384.7406,1013.659 Q384.0938,1013.9309 383.3156,1013.9309 Q382.4063,1013.9309 381.6844,1013.5559 Q381.0938,1013.2559 380.6813,1012.6184 Q380.2688,1011.9715 380.2688,1011.2027 L380.2688,1010.509 Q380.2688,1009.7121 380.6344,1009.0277 Q381.0094,1008.334 381.6656,1007.9684 Q382.3219,1007.5934 383.0625,1007.5934 Q383.5031,1007.5934 383.8875,1007.6965 Q384.2813,1007.7902 384.6094,1008.0059 Z " fill="#000000"/><text fill="#000000" font-family="sans-serif" font-size="8.4" lengthAdjust="spacing" textLength="18.6" x="395.25" y="1013.959">Task</text><line style="stroke:#181818;stroke-width:0.3;" x1="302.4" x2="487.2" y1="1020.0809" y2="1020.0809"/><text fill="#000000" font-family="sans-serif" font-size="8.4" lengthAdjust="spacing" textLength="43.2" x="305.4" y="1031.5453">-String title;</text><text fill="#000000" font-family="sans-serif" font-size="8.4" lengthAdjust="spacing" textLength="71.4" x="305.4" y="1042.718">-String description;</text><text fill="#000000" font-family="sans-serif" font-size="8.4" lengthAdjust="spacing" textLength="80.4" x="305.4" y="1053.8906">-TaskType taskType;</text><text fill="#000000" font-family="sans-serif" font-size="8.4" lengthAdjust="spacing" textLength="54.6" x="305.4" y="1065.0633">-Status status;</text><text fill="#000000" font-family="sans-serif" font-size="8.4" lengthAdjust="spacing" textLength="7.2" x="305.4" y="1076.2359">...</text><line style="stroke:#181818;stroke-width:0.3;" x1="302.4" x2="487.2" y1="1080.7441" y2="1080.7441"/><text fill="#000000" font-family="sans-serif" font-size="8.4" lengthAdjust="spacing" textLength="178.8" x="305.4" y="1092.2086">+Task(title, description, taskType, greenSpace,</text><text fill="#000000" font-family="sans-serif" font-size="8.4" lengthAdjust="spacing" textLength="117" x="305.4" y="1103.3813">urgency, days, hours, minutes)</text><text fill="#000000" font-family="sans-serif" font-size="8.4" lengthAdjust="spacing" textLength="13.2" x="305.4" y="1114.5539">(...)</text></g><!--class TaskDuration--><g id="elem_TaskDuration"><rect codeLine="126" fill="#F1F1F1" height="107.0086" id="TaskDuration" rx="1.5" ry="1.5" style="stroke:#181818;stroke-width:0.3;" width="175.2" x="364.2" y="1166.4809"/><ellipse cx="423.75" cy="1176.0809" fill="#ADD1B2" rx="6.6" ry="6.6" style="stroke:#181818;stroke-width:0.6;"/><path d="M425.4094,1173.6059 Q425.5031,1173.4746 425.6156,1173.409 Q425.7281,1173.3434 425.8594,1173.3434 Q426.0844,1173.3434 426.225,1173.5027 Q426.3656,1173.6527 426.3656,1174.0184 L426.3656,1174.8902 Q426.3656,1175.2559 426.225,1175.4152 Q426.0844,1175.5746 425.8594,1175.5746 Q425.6531,1175.5746 425.5313,1175.4527 Q425.4094,1175.3402 425.3438,1175.0309 Q425.3156,1174.8152 425.2031,1174.7027 Q425.0062,1174.4777 424.6406,1174.3465 Q424.275,1174.2152 423.9,1174.2152 Q423.4406,1174.2152 423.0563,1174.4121 Q422.6813,1174.609 422.3812,1175.059 Q422.0906,1175.509 422.0906,1176.1277 L422.0906,1176.784 Q422.0906,1177.5246 422.625,1178.0215 Q423.1594,1178.509 424.1156,1178.509 Q424.6781,1178.509 425.0719,1178.359 Q425.3063,1178.2652 425.5594,1178.0027 Q425.7188,1177.8434 425.8031,1177.7965 Q425.8969,1177.7496 426.0188,1177.7496 Q426.2156,1177.7496 426.3656,1177.909 Q426.525,1178.059 426.525,1178.2652 Q426.525,1178.4715 426.3187,1178.7152 Q426.0188,1179.0621 425.5406,1179.259 Q424.8938,1179.5309 424.1156,1179.5309 Q423.2063,1179.5309 422.4844,1179.1559 Q421.8938,1178.8559 421.4813,1178.2184 Q421.0687,1177.5715 421.0687,1176.8027 L421.0687,1176.109 Q421.0687,1175.3121 421.4344,1174.6277 Q421.8094,1173.934 422.4656,1173.5684 Q423.1219,1173.1934 423.8625,1173.1934 Q424.3031,1173.1934 424.6875,1173.2965 Q425.0813,1173.3902 425.4094,1173.6059 Z " fill="#000000"/><text fill="#000000" font-family="sans-serif" font-size="8.4" lengthAdjust="spacing" textLength="51" x="436.05" y="1179.559">TaskDuration</text><line style="stroke:#181818;stroke-width:0.3;" x1="364.8" x2="538.8" y1="1185.6809" y2="1185.6809"/><text fill="#000000" font-family="sans-serif" font-size="8.4" lengthAdjust="spacing" textLength="34.8" x="367.8" y="1197.1453">-int days;</text><text fill="#000000" font-family="sans-serif" font-size="8.4" lengthAdjust="spacing" textLength="38.4" x="367.8" y="1208.318">-int hours;</text><text fill="#000000" font-family="sans-serif" font-size="8.4" lengthAdjust="spacing" textLength="46.2" x="367.8" y="1219.4906">-int minutes;</text><text fill="#000000" font-family="sans-serif" font-size="8.4" lengthAdjust="spacing" textLength="94.8" x="367.8" y="1230.6633">-int totalDurationMinutes;</text><line style="stroke:#181818;stroke-width:0.3;" x1="364.8" x2="538.8" y1="1235.1715" y2="1235.1715"/><text fill="#000000" font-family="sans-serif" font-size="8.4" lengthAdjust="spacing" textLength="140.4" x="367.8" y="1246.6359">+TaskDuration(days, hours, minutes)</text><text fill="#000000" font-family="sans-serif" font-size="8.4" lengthAdjust="spacing" textLength="151.8" x="367.8" y="1257.8086">+setTaskDuration(days, hours, minutes)</text><text fill="#000000" font-family="sans-serif" font-size="8.4" lengthAdjust="spacing" textLength="168" x="367.8" y="1268.9813">-validateTaskDuration(days, hours, minutes)</text></g><!--class AgendaMapper--><g id="elem_AgendaMapper"><rect codeLine="143" fill="#F1F1F1" height="51.1453" id="AgendaMapper" rx="1.5" ry="1.5" style="stroke:#181818;stroke-width:0.3;" width="265.2" x="687" y="261.9809"/><ellipse cx="787.95" cy="271.5809" fill="#ADD1B2" rx="6.6" ry="6.6" style="stroke:#181818;stroke-width:0.6;"/><path d="M789.6094,269.1059 Q789.7031,268.9746 789.8156,268.909 Q789.9281,268.8434 790.0594,268.8434 Q790.2844,268.8434 790.425,269.0027 Q790.5656,269.1527 790.5656,269.5184 L790.5656,270.3902 Q790.5656,270.7559 790.425,270.9152 Q790.2844,271.0746 790.0594,271.0746 Q789.8531,271.0746 789.7312,270.9527 Q789.6094,270.8402 789.5437,270.5309 Q789.5156,270.3152 789.4031,270.2027 Q789.2063,269.9777 788.8406,269.8465 Q788.475,269.7152 788.1,269.7152 Q787.6406,269.7152 787.2563,269.9121 Q786.8813,270.109 786.5813,270.559 Q786.2906,271.009 786.2906,271.6277 L786.2906,272.284 Q786.2906,273.0246 786.825,273.5215 Q787.3594,274.009 788.3156,274.009 Q788.8781,274.009 789.2719,273.859 Q789.5063,273.7652 789.7594,273.5027 Q789.9187,273.3434 790.0031,273.2965 Q790.0969,273.2496 790.2188,273.2496 Q790.4156,273.2496 790.5656,273.409 Q790.725,273.559 790.725,273.7652 Q790.725,273.9715 790.5188,274.2152 Q790.2188,274.5621 789.7406,274.759 Q789.0938,275.0309 788.3156,275.0309 Q787.4063,275.0309 786.6844,274.6559 Q786.0938,274.3559 785.6813,273.7184 Q785.2688,273.0715 785.2688,272.3027 L785.2688,271.609 Q785.2688,270.8121 785.6344,270.1277 Q786.0094,269.434 786.6656,269.0684 Q787.3219,268.6934 788.0625,268.6934 Q788.5031,268.6934 788.8875,268.7965 Q789.2813,268.8902 789.6094,269.1059 Z " fill="#000000"/><text fill="#000000" font-family="sans-serif" font-size="8.4" lengthAdjust="spacing" textLength="58.2" x="800.25" y="275.059">AgendaMapper</text><line style="stroke:#181818;stroke-width:0.3;" x1="687.6" x2="951.6" y1="281.1809" y2="281.1809"/><line style="stroke:#181818;stroke-width:0.3;" x1="687.6" x2="951.6" y1="285.9809" y2="285.9809"/><text fill="#000000" font-family="sans-serif" font-size="8.4" lengthAdjust="spacing" textLength="69" x="690.6" y="297.4453">+AgendaMapper()</text><text fill="#000000" font-family="sans-serif" font-size="8.4" lengthAdjust="spacing" textLength="258" x="690.6" y="308.618">+toDTO(agendaTask, teamDTO, List&lt;VehicleDTO&gt; vehicleDTOList)</text></g><!--class VehicleMapper--><g id="elem_VehicleMapper"><rect codeLine="149" fill="#F1F1F1" height="51.1453" id="VehicleMapper" rx="1.5" ry="1.5" style="stroke:#181818;stroke-width:0.3;" width="124.8" x="973.2" y="261.9809"/><ellipse cx="1004.85" cy="271.5809" fill="#ADD1B2" rx="6.6" ry="6.6" style="stroke:#181818;stroke-width:0.6;"/><path d="M1006.5094,269.1059 Q1006.6031,268.9746 1006.7156,268.909 Q1006.8281,268.8434 1006.9594,268.8434 Q1007.1844,268.8434 1007.325,269.0027 Q1007.4656,269.1527 1007.4656,269.5184 L1007.4656,270.3902 Q1007.4656,270.7559 1007.325,270.9152 Q1007.1844,271.0746 1006.9594,271.0746 Q1006.7531,271.0746 1006.6312,270.9527 Q1006.5094,270.8402 1006.4437,270.5309 Q1006.4156,270.3152 1006.3031,270.2027 Q1006.1062,269.9777 1005.7406,269.8465 Q1005.375,269.7152 1005,269.7152 Q1004.5406,269.7152 1004.1563,269.9121 Q1003.7813,270.109 1003.4812,270.559 Q1003.1906,271.009 1003.1906,271.6277 L1003.1906,272.284 Q1003.1906,273.0246 1003.725,273.5215 Q1004.2594,274.009 1005.2156,274.009 Q1005.7781,274.009 1006.1719,273.859 Q1006.4063,273.7652 1006.6594,273.5027 Q1006.8187,273.3434 1006.9031,273.2965 Q1006.9969,273.2496 1007.1188,273.2496 Q1007.3156,273.2496 1007.4656,273.409 Q1007.625,273.559 1007.625,273.7652 Q1007.625,273.9715 1007.4187,274.2152 Q1007.1188,274.5621 1006.6406,274.759 Q1005.9938,275.0309 1005.2156,275.0309 Q1004.3063,275.0309 1003.5844,274.6559 Q1002.9938,274.3559 1002.5813,273.7184 Q1002.1687,273.0715 1002.1687,272.3027 L1002.1687,271.609 Q1002.1687,270.8121 1002.5344,270.1277 Q1002.9094,269.434 1003.5656,269.0684 Q1004.2219,268.6934 1004.9625,268.6934 Q1005.4031,268.6934 1005.7875,268.7965 Q1006.1813,268.8902 1006.5094,269.1059 Z " fill="#000000"/><text fill="#000000" font-family="sans-serif" font-size="8.4" lengthAdjust="spacing" textLength="56.4" x="1017.15" y="275.059">VehicleMapper</text><line style="stroke:#181818;stroke-width:0.3;" x1="973.8" x2="1097.4" y1="281.1809" y2="281.1809"/><line style="stroke:#181818;stroke-width:0.3;" x1="973.8" x2="1097.4" y1="285.9809" y2="285.9809"/><text fill="#000000" font-family="sans-serif" font-size="8.4" lengthAdjust="spacing" textLength="91.2" x="976.8" y="297.4453">+toDomain(vehicleDTO)</text><text fill="#000000" font-family="sans-serif" font-size="8.4" lengthAdjust="spacing" textLength="117.6" x="976.8" y="308.618">+toDomainList(vehicleDTOList)</text></g><!--class AgendaTaskDTO--><g id="elem_AgendaTaskDTO"><rect codeLine="158" fill="#F1F1F1" height="196.3898" id="AgendaTaskDTO" rx="1.5" ry="1.5" style="stroke:#181818;stroke-width:0.3;" width="239.4" x="699.9" y="381.3809"/><ellipse cx="784.05" cy="390.9809" fill="#ADD1B2" rx="6.6" ry="6.6" style="stroke:#181818;stroke-width:0.6;"/><path d="M785.7094,388.5059 Q785.8031,388.3746 785.9156,388.309 Q786.0281,388.2434 786.1594,388.2434 Q786.3844,388.2434 786.525,388.4027 Q786.6656,388.5527 786.6656,388.9184 L786.6656,389.7902 Q786.6656,390.1559 786.525,390.3152 Q786.3844,390.4746 786.1594,390.4746 Q785.9531,390.4746 785.8313,390.3527 Q785.7094,390.2402 785.6438,389.9309 Q785.6156,389.7152 785.5031,389.6027 Q785.3063,389.3777 784.9406,389.2465 Q784.575,389.1152 784.2,389.1152 Q783.7406,389.1152 783.3562,389.3121 Q782.9812,389.509 782.6813,389.959 Q782.3906,390.409 782.3906,391.0277 L782.3906,391.684 Q782.3906,392.4246 782.925,392.9215 Q783.4594,393.409 784.4156,393.409 Q784.9781,393.409 785.3719,393.259 Q785.6062,393.1652 785.8594,392.9027 Q786.0188,392.7434 786.1031,392.6965 Q786.1969,392.6496 786.3188,392.6496 Q786.5156,392.6496 786.6656,392.809 Q786.825,392.959 786.825,393.1652 Q786.825,393.3715 786.6188,393.6152 Q786.3188,393.9621 785.8406,394.159 Q785.1938,394.4309 784.4156,394.4309 Q783.5063,394.4309 782.7844,394.0559 Q782.1938,393.7559 781.7813,393.1184 Q781.3688,392.4715 781.3688,391.7027 L781.3688,391.009 Q781.3688,390.2121 781.7344,389.5277 Q782.1094,388.834 782.7656,388.4684 Q783.4219,388.0934 784.1625,388.0934 Q784.6031,388.0934 784.9875,388.1965 Q785.3813,388.2902 785.7094,388.5059 Z " fill="#000000"/><text fill="#000000" font-family="sans-serif" font-size="8.4" lengthAdjust="spacing" textLength="66" x="796.35" y="394.459">AgendaTaskDTO</text><line style="stroke:#181818;stroke-width:0.3;" x1="700.5" x2="938.7" y1="400.5809" y2="400.5809"/><text fill="#000000" font-family="sans-serif" font-size="8.4" lengthAdjust="spacing" textLength="45" x="703.5" y="412.0453">+String title;</text><text fill="#000000" font-family="sans-serif" font-size="8.4" lengthAdjust="spacing" textLength="73.2" x="703.5" y="423.218">+String description;</text><text fill="#000000" font-family="sans-serif" font-size="8.4" lengthAdjust="spacing" textLength="82.2" x="703.5" y="434.3906">+TaskType taskType;</text><text fill="#000000" font-family="sans-serif" font-size="8.4" lengthAdjust="spacing" textLength="99.6" x="703.5" y="445.5633">+String greenSpaceName;</text><text fill="#000000" font-family="sans-serif" font-size="8.4" lengthAdjust="spacing" textLength="90.6" x="703.5" y="456.7359">+UrgencyType urgency;</text><text fill="#000000" font-family="sans-serif" font-size="8.4" lengthAdjust="spacing" textLength="85.2" x="703.5" y="467.9086">+int expectedDuration;</text><text fill="#000000" font-family="sans-serif" font-size="8.4" lengthAdjust="spacing" textLength="85.2" x="703.5" y="479.0812">+String workStartDate;</text><text fill="#000000" font-family="sans-serif" font-size="8.4" lengthAdjust="spacing" textLength="72" x="703.5" y="490.2539">+int workStartHour;</text><text fill="#000000" font-family="sans-serif" font-size="8.4" lengthAdjust="spacing" textLength="83.4" x="703.5" y="501.4266">+int workStartMinutes;</text><text fill="#000000" font-family="sans-serif" font-size="8.4" lengthAdjust="spacing" textLength="56.4" x="703.5" y="512.5992">+Status status;</text><text fill="#000000" font-family="sans-serif" font-size="8.4" lengthAdjust="spacing" textLength="94.2" x="703.5" y="523.7719">+String isTeamAssigned;</text><line style="stroke:#181818;stroke-width:0.3;" x1="700.5" x2="938.7" y1="528.2801" y2="528.2801"/><text fill="#000000" font-family="sans-serif" font-size="8.4" lengthAdjust="spacing" textLength="226.2" x="703.5" y="539.7445">+AgendaTaskDTO(title, description, taskType, greenSpace,</text><text fill="#000000" font-family="sans-serif" font-size="8.4" lengthAdjust="spacing" textLength="221.4" x="703.5" y="550.9172">urgency, expectedDuration, executionDate, workStartHour,</text><text fill="#000000" font-family="sans-serif" font-size="8.4" lengthAdjust="spacing" textLength="232.2" x="703.5" y="562.0898">workStartMinutes, status, isTeamAssigned, vehiclesAssigned,</text><text fill="#000000" font-family="sans-serif" font-size="8.4" lengthAdjust="spacing" textLength="102" x="703.5" y="573.2625">teamDTO, vehicleDTOList)</text></g><!--class CollaboratorDTO--><g id="elem_CollaboratorDTO"><rect codeLine="175" fill="#F1F1F1" height="73.4906" id="CollaboratorDTO" rx="1.5" ry="1.5" style="stroke:#181818;stroke-width:0.3;" width="127.8" x="839.1" y="754.2809"/><ellipse cx="868.05" cy="763.8809" fill="#ADD1B2" rx="6.6" ry="6.6" style="stroke:#181818;stroke-width:0.6;"/><path d="M869.7094,761.4059 Q869.8031,761.2746 869.9156,761.209 Q870.0281,761.1434 870.1594,761.1434 Q870.3844,761.1434 870.525,761.3027 Q870.6656,761.4527 870.6656,761.8184 L870.6656,762.6902 Q870.6656,763.0559 870.525,763.2152 Q870.3844,763.3746 870.1594,763.3746 Q869.9531,763.3746 869.8313,763.2527 Q869.7094,763.1402 869.6438,762.8309 Q869.6156,762.6152 869.5031,762.5027 Q869.3063,762.2777 868.9406,762.1465 Q868.575,762.0152 868.2,762.0152 Q867.7406,762.0152 867.3562,762.2121 Q866.9812,762.409 866.6813,762.859 Q866.3906,763.309 866.3906,763.9277 L866.3906,764.584 Q866.3906,765.3246 866.925,765.8215 Q867.4594,766.309 868.4156,766.309 Q868.9781,766.309 869.3719,766.159 Q869.6062,766.0652 869.8594,765.8027 Q870.0188,765.6434 870.1031,765.5965 Q870.1969,765.5496 870.3188,765.5496 Q870.5156,765.5496 870.6656,765.709 Q870.825,765.859 870.825,766.0652 Q870.825,766.2715 870.6188,766.5152 Q870.3188,766.8621 869.8406,767.059 Q869.1938,767.3309 868.4156,767.3309 Q867.5063,767.3309 866.7844,766.9559 Q866.1938,766.6559 865.7813,766.0184 Q865.3688,765.3715 865.3688,764.6027 L865.3688,763.909 Q865.3688,763.1121 865.7344,762.4277 Q866.1094,761.734 866.7656,761.3684 Q867.4219,760.9934 868.1625,760.9934 Q868.6031,760.9934 868.9875,761.0965 Q869.3813,761.1902 869.7094,761.4059 Z " fill="#000000"/><text fill="#000000" font-family="sans-serif" font-size="8.4" lengthAdjust="spacing" textLength="64.8" x="880.35" y="767.359">CollaboratorDTO</text><line style="stroke:#181818;stroke-width:0.3;" x1="839.7" x2="966.3" y1="773.4809" y2="773.4809"/><text fill="#000000" font-family="sans-serif" font-size="8.4" lengthAdjust="spacing" textLength="98.4" x="842.7" y="784.9453">+String collaboratorName;</text><text fill="#000000" font-family="sans-serif" font-size="8.4" lengthAdjust="spacing" textLength="51.6" x="842.7" y="796.118">+String email;</text><text fill="#000000" font-family="sans-serif" font-size="8.4" lengthAdjust="spacing" textLength="94.2" x="842.7" y="807.2906">+List&lt;String&gt; skillNames;</text><line style="stroke:#181818;stroke-width:0.3;" x1="839.7" x2="966.3" y1="811.7988" y2="811.7988"/><text fill="#000000" font-family="sans-serif" font-size="8.4" lengthAdjust="spacing" textLength="120.6" x="842.7" y="823.2633">+CollaboratorDTO(collaborator)</text></g><!--class TeamDTO--><g id="elem_TeamDTO"><rect codeLine="184" fill="#F1F1F1" height="51.1453" id="TeamDTO" rx="1.5" ry="1.5" style="stroke:#181818;stroke-width:0.3;" width="201" x="802.5" y="639.0809"/><ellipse cx="880.65" cy="648.6809" fill="#ADD1B2" rx="6.6" ry="6.6" style="stroke:#181818;stroke-width:0.6;"/><path d="M882.3094,646.2059 Q882.4031,646.0746 882.5156,646.009 Q882.6281,645.9434 882.7594,645.9434 Q882.9844,645.9434 883.125,646.1027 Q883.2656,646.2527 883.2656,646.6184 L883.2656,647.4902 Q883.2656,647.8559 883.125,648.0152 Q882.9844,648.1746 882.7594,648.1746 Q882.5531,648.1746 882.4313,648.0527 Q882.3094,647.9402 882.2438,647.6309 Q882.2156,647.4152 882.1031,647.3027 Q881.9063,647.0777 881.5406,646.9465 Q881.175,646.8152 880.8,646.8152 Q880.3406,646.8152 879.9563,647.0121 Q879.5813,647.209 879.2813,647.659 Q878.9906,648.109 878.9906,648.7277 L878.9906,649.384 Q878.9906,650.1246 879.525,650.6215 Q880.0594,651.109 881.0156,651.109 Q881.5781,651.109 881.9719,650.959 Q882.2063,650.8652 882.4594,650.6027 Q882.6188,650.4434 882.7031,650.3965 Q882.7969,650.3496 882.9187,650.3496 Q883.1156,650.3496 883.2656,650.509 Q883.425,650.659 883.425,650.8652 Q883.425,651.0715 883.2188,651.3152 Q882.9187,651.6621 882.4406,651.859 Q881.7937,652.1309 881.0156,652.1309 Q880.1062,652.1309 879.3844,651.7559 Q878.7937,651.4559 878.3813,650.8184 Q877.9688,650.1715 877.9688,649.4027 L877.9688,648.709 Q877.9688,647.9121 878.3344,647.2277 Q878.7094,646.534 879.3656,646.1684 Q880.0219,645.7934 880.7625,645.7934 Q881.2031,645.7934 881.5875,645.8965 Q881.9812,645.9902 882.3094,646.2059 Z " fill="#000000"/><text fill="#000000" font-family="sans-serif" font-size="8.4" lengthAdjust="spacing" textLength="39.6" x="892.95" y="652.159">TeamDTO</text><line style="stroke:#181818;stroke-width:0.3;" x1="803.1" x2="1002.9" y1="658.2809" y2="658.2809"/><text fill="#000000" font-family="sans-serif" font-size="8.4" lengthAdjust="spacing" textLength="144" x="806.1" y="669.7453">+List&lt;CollaboratorDTO&gt; collaborators</text><line style="stroke:#181818;stroke-width:0.3;" x1="803.1" x2="1002.9" y1="674.2535" y2="674.2535"/><text fill="#000000" font-family="sans-serif" font-size="8.4" lengthAdjust="spacing" textLength="193.8" x="806.1" y="685.718">+TeamDTO(List&lt;CollaboratorDTO&gt; teamMembers)</text></g><!--class VehicleDTO--><g id="elem_VehicleDTO"><rect codeLine="189" fill="#F1F1F1" height="84.6633" id="VehicleDTO" rx="1.5" ry="1.5" style="stroke:#181818;stroke-width:0.3;" width="90" x="691.2" y="622.2809"/><ellipse cx="711.54" cy="631.8809" fill="#ADD1B2" rx="6.6" ry="6.6" style="stroke:#181818;stroke-width:0.6;"/><path d="M713.1994,629.4059 Q713.2931,629.2746 713.4056,629.209 Q713.5181,629.1434 713.6494,629.1434 Q713.8744,629.1434 714.015,629.3027 Q714.1556,629.4527 714.1556,629.8184 L714.1556,630.6902 Q714.1556,631.0559 714.015,631.2152 Q713.8744,631.3746 713.6494,631.3746 Q713.4431,631.3746 713.3213,631.2527 Q713.1994,631.1402 713.1338,630.8309 Q713.1056,630.6152 712.9931,630.5027 Q712.7963,630.2777 712.4306,630.1465 Q712.065,630.0152 711.69,630.0152 Q711.2306,630.0152 710.8463,630.2121 Q710.4713,630.409 710.1713,630.859 Q709.8806,631.309 709.8806,631.9277 L709.8806,632.584 Q709.8806,633.3246 710.415,633.8215 Q710.9494,634.309 711.9056,634.309 Q712.4681,634.309 712.8619,634.159 Q713.0963,634.0652 713.3494,633.8027 Q713.5088,633.6434 713.5931,633.5965 Q713.6869,633.5496 713.8088,633.5496 Q714.0056,633.5496 714.1556,633.709 Q714.315,633.859 714.315,634.0652 Q714.315,634.2715 714.1088,634.5152 Q713.8088,634.8621 713.3306,635.059 Q712.6838,635.3309 711.9056,635.3309 Q710.9963,635.3309 710.2744,634.9559 Q709.6838,634.6559 709.2713,634.0184 Q708.8588,633.3715 708.8588,632.6027 L708.8588,631.909 Q708.8588,631.1121 709.2244,630.4277 Q709.5994,629.734 710.2556,629.3684 Q710.9119,628.9934 711.6525,628.9934 Q712.0931,628.9934 712.4775,629.0965 Q712.8713,629.1902 713.1994,629.4059 Z " fill="#000000"/><text fill="#000000" font-family="sans-serif" font-size="8.4" lengthAdjust="spacing" textLength="45.6" x="722.46" y="635.359">VehicleDTO</text><line style="stroke:#181818;stroke-width:0.3;" x1="691.8" x2="780.6" y1="641.4809" y2="641.4809"/><text fill="#000000" font-family="sans-serif" font-size="8.4" lengthAdjust="spacing" textLength="58.2" x="694.8" y="652.9453">+String plateID;</text><text fill="#000000" font-family="sans-serif" font-size="8.4" lengthAdjust="spacing" textLength="54" x="694.8" y="664.118">+String brand;</text><text fill="#000000" font-family="sans-serif" font-size="8.4" lengthAdjust="spacing" textLength="54.6" x="694.8" y="675.2906">+String model;</text><text fill="#000000" font-family="sans-serif" font-size="8.4" lengthAdjust="spacing" textLength="48" x="694.8" y="686.4633">+String type;</text><line style="stroke:#181818;stroke-width:0.3;" x1="691.8" x2="780.6" y1="690.9715" y2="690.9715"/><text fill="#000000" font-family="sans-serif" font-size="8.4" lengthAdjust="spacing" textLength="82.8" x="694.8" y="702.4359">+VehicleDTO(vehicle)</text></g><!--link AgendaUI to AgendaController--><g id="link_AgendaUI_AgendaController"><path codeLine="201" d="M429.09,156.5969 C434.19,193.7129 440.2283,237.6003 443.8223,263.7783 " fill="none" id="AgendaUI-to-AgendaController" style="stroke:#181818;stroke-width:0.6;stroke-dasharray:7.0,7.0;"/><polygon fill="#181818" points="444.312,267.3449,445.9552,261.6686,443.904,264.3727,441.1998,262.3215,444.312,267.3449" style="stroke:#181818;stroke-width:0.6;"/></g><!--reverse link SelectVehiclesPopupUI to AgendaUI--><g id="link_SelectVehiclesPopupUI_AgendaUI"><path codeLine="202" d="M330.39,102.9809 C337.008,102.9809 341.046,102.9809 347.814,102.9809 " fill="none" id="SelectVehiclesPopupUI-backto-AgendaUI" style="stroke:#181818;stroke-width:0.6;stroke-dasharray:7.0,7.0;"/><polygon fill="#181818" points="326.79,102.9809,332.19,105.3809,329.79,102.9809,332.19,100.5809,326.79,102.9809" style="stroke:#181818;stroke-width:0.6;"/></g><!--link SelectVehiclesPopupUI to AssignVehiclesToEntryAgendaController--><g id="link_SelectVehiclesPopupUI_AssignVehiclesToEntryAgendaController"><path codeLine="203" d="M243.528,151.0229 C236.856,180.1409 229.1936,213.5797 222.7796,241.5877 " fill="none" id="SelectVehiclesPopupUI-to-AssignVehiclesToEntryAgendaController" style="stroke:#181818;stroke-width:0.6;stroke-dasharray:7.0,7.0;"/><polygon fill="#181818" points="221.976,245.0969,225.5209,240.3689,222.6457,242.1726,220.842,239.2974,221.976,245.0969" style="stroke:#181818;stroke-width:0.6;"/></g><!--link AgendaController to Repositories--><g id="link_AgendaController_Repositories"><path codeLine="204" d="M436.698,307.7609 C405.222,367.8869 311.6537,546.5935 270.8057,624.6175 " fill="none" id="AgendaController-to-Repositories" style="stroke:#181818;stroke-width:0.6;stroke-dasharray:7.0,7.0;"/><polygon fill="#181818" points="269.136,627.8069,273.7668,624.136,270.5274,625.1491,269.5144,621.9097,269.136,627.8069" style="stroke:#181818;stroke-width:0.6;"/></g><!--link AssignVehiclesToEntryAgendaController to Repositories--><g id="link_AssignVehiclesToEntryAgendaController_Repositories"><path codeLine="205" d="M216.606,329.9249 C224.076,404.1749 239.1537,554.1509 246.1977,624.1709 " fill="none" id="AssignVehiclesToEntryAgendaController-to-Repositories" style="stroke:#181818;stroke-width:0.6;stroke-dasharray:7.0,7.0;"/><polygon fill="#181818" points="246.558,627.7529,248.4054,622.1398,246.2577,624.7679,243.6295,622.6202,246.558,627.7529" style="stroke:#181818;stroke-width:0.6;"/></g><!--link AgendaController to ApplicationSession--><g id="link_AgendaController_ApplicationSession"><path codeLine="206" d="M447,307.7609 C447,367.8869 447,546.1829 447,624.2069 " fill="none" id="AgendaController-to-ApplicationSession" style="stroke:#181818;stroke-width:0.6;stroke-dasharray:7.0,7.0;"/><polygon fill="#181818" points="447,627.8069,449.4,622.4069,447,624.8069,444.6,622.4069,447,627.8069" style="stroke:#181818;stroke-width:0.6;"/></g><!--link ApplicationSession to ApplicationSession--><g id="link_ApplicationSession_ApplicationSession"><path codeLine="207" d="M517.362,652.9769 C529.65,654.5249 538.2,658.3949 538.2,664.5809 C538.2,670.7669 533.2218,674.1869 520.9338,675.7349 " fill="none" id="ApplicationSession-to-ApplicationSession" style="stroke:#181818;stroke-width:0.6;"/><polygon fill="#181818" points="517.362,676.1849,523.0196,677.8911,520.3385,675.8099,522.4197,673.1287,517.362,676.1849" style="stroke:#181818;stroke-width:0.6;"/><text fill="#000000" font-family="sans-serif" font-size="7.8" lengthAdjust="spacing" textLength="29.4" x="541.8" y="667.8979">instance</text></g><!--link ApplicationSession to UserSession--><g id="link_ApplicationSession_UserSession"><path codeLine="208" d="M460.476,701.1989 C468.924,723.7889 478.2343,748.6832 485.1763,767.2352 " fill="none" id="ApplicationSession-to-UserSession" style="stroke:#181818;stroke-width:0.6;"/><polygon fill="#181818" points="486.438,770.6069,486.7933,764.7082,485.3866,767.7971,482.2977,766.3904,486.438,770.6069" style="stroke:#181818;stroke-width:0.6;"/><text fill="#000000" font-family="sans-serif" font-size="7.8" lengthAdjust="spacing" textLength="43.2" x="473.4" y="733.8979">userSession</text><text fill="#000000" font-family="sans-serif" font-size="7.8" lengthAdjust="spacing" textLength="4.2" x="480.4343" y="764.0252">1</text></g><!--link UserSession to Email--><g id="link_UserSession_Email"><path codeLine="209" d="M502.92,811.1129 C513.12,833.0729 527.8633,864.824 536.8273,884.12 " fill="none" id="UserSession-to-Email" style="stroke:#181818;stroke-width:0.6;stroke-dasharray:7.0,7.0;"/><polygon fill="#181818" points="538.344,887.3849,538.2455,881.4764,537.0801,884.6641,533.8923,883.4987,538.344,887.3849" style="stroke:#181818;stroke-width:0.6;"/></g><!--link Repositories to AgendaRepository--><g id="link_Repositories_AgendaRepository"><path codeLine="210" d="M272.322,701.2949 C299.532,745.7309 343.5875,817.667 370.8035,862.097 " fill="none" id="Repositories-to-AgendaRepository" style="stroke:#181818;stroke-width:0.6;"/><polygon fill="#181818" points="372.684,865.1669,371.9099,859.3085,371.117,862.6087,367.8168,861.8157,372.684,865.1669" style="stroke:#181818;stroke-width:0.6;"/><text fill="#000000" font-family="sans-serif" font-size="7.8" lengthAdjust="spacing" textLength="4.2" x="365.684" y="858.5424">1</text></g><!--link Repositories to VehicleRepository--><g id="link_Repositories_VehicleRepository"><path codeLine="211" d="M239.736,701.2949 C226.32,747.6089 204.2878,823.651 191.6818,867.163 " fill="none" id="Repositories-to-VehicleRepository" style="stroke:#181818;stroke-width:0.6;"/><polygon fill="#181818" points="190.68,870.6209,194.4879,866.102,191.5148,867.7394,189.8775,864.7663,190.68,870.6209" style="stroke:#181818;stroke-width:0.6;"/><text fill="#000000" font-family="sans-serif" font-size="7.8" lengthAdjust="spacing" textLength="4.2" x="187.3911" y="863.9692">1</text></g><!--link AgendaRepository to Task--><g id="link_AgendaRepository_Task"><path codeLine="212" d="M394.8,938.6729 C394.8,957.0929 394.8,976.3349 394.8,997.1789 " fill="none" id="AgendaRepository-to-Task" style="stroke:#181818;stroke-width:0.6;"/><polygon fill="#181818" points="394.8,1000.7789,397.2,995.3789,394.8,997.7789,392.4,995.3789,394.8,1000.7789" style="stroke:#181818;stroke-width:0.6;"/><text fill="#000000" font-family="sans-serif" font-size="7.8" lengthAdjust="spacing" textLength="15" x="395.4" y="966.6979">task</text><text fill="#000000" font-family="sans-serif" font-size="7.8" lengthAdjust="spacing" textLength="4.2" x="390.3572" y="951.9269">1</text></g><!--reverse link Task to TaskDuration--><g id="link_Task_TaskDuration"><path codeLine="213" d="M418.2941,1126.0009 C423.8441,1141.4509 427.368,1151.2529 432.798,1166.3849 " fill="none" id="Task-backto-TaskDuration" style="stroke:#181818;stroke-width:0.6;"/><polygon fill="#181818" points="415.86,1119.2249,414.8184,1123.4243,418.2941,1126.0009,419.3357,1121.8015,415.86,1119.2249" style="stroke:#181818;stroke-width:0.6;"/><text fill="#000000" font-family="sans-serif" font-size="7.8" lengthAdjust="spacing" textLength="43.8" x="425.4" y="1146.0979">taskDuration</text><text fill="#000000" font-family="sans-serif" font-size="7.8" lengthAdjust="spacing" textLength="4.2" x="426.8505" y="1159.748">1</text></g><!--reverse link Task to WorkPeriod--><g id="link_Task_WorkPeriod"><path codeLine="214" d="M346.0155,1124.8388 C327.4155,1149.3308 314.4,1166.4809 314.4,1166.4809 C314.4,1166.4809 314.4,1273.2809 314.4,1273.2809 C314.4,1273.2809 339.714,1299.2549 363.846,1324.0109 " fill="none" id="Task-backto-WorkPeriod" style="stroke:#181818;stroke-width:0.6;"/><polygon fill="#181818" points="350.37,1119.1049,346.2814,1120.5203,346.0155,1124.8388,350.104,1123.4233,350.37,1119.1049" style="stroke:#181818;stroke-width:0.6;"/><text fill="#000000" font-family="sans-serif" font-size="7.8" lengthAdjust="spacing" textLength="38.4" x="315" y="1223.1979">workPeriod</text><text fill="#000000" font-family="sans-serif" font-size="7.8" lengthAdjust="spacing" textLength="4.2" x="354.9998" y="1317.1128">1</text></g><!--link VehicleRepository to Vehicle--><g id="link_VehicleRepository_Vehicle"><path codeLine="215" d="M193.914,933.2849 C217.44,993.0809 267,1119.0809 267,1119.0809 C267,1119.0809 418.2,1148.4809 418.2,1148.4809 C418.2,1148.4809 550.2,1166.4809 550.2,1166.4809 C550.2,1166.4809 551.0253,1166.9319 557.3793,1170.4059 " fill="none" id="VehicleRepository-to-Vehicle" style="stroke:#181818;stroke-width:0.6;"/><polygon fill="#181818" points="560.538,1172.1329,556.9513,1167.4365,557.9057,1170.6937,554.6486,1171.6482,560.538,1172.1329" style="stroke:#181818;stroke-width:0.6;"/><text fill="#000000" font-family="sans-serif" font-size="7.8" lengthAdjust="spacing" textLength="23.4" x="267.6" y="1063.2979">vehicle</text><text fill="#000000" font-family="sans-serif" font-size="7.8" lengthAdjust="spacing" textLength="4.2" x="190.9345" y="946.1664">1</text></g><!--link Vehicle to WorkPeriod--><g id="link_Vehicle_WorkPeriod"><path codeLine="216" d="M560.832,1273.3529 C523.17,1296.5129 483.7027,1320.7872 452.8867,1339.7352 " fill="none" id="Vehicle-to-WorkPeriod" style="stroke:#181818;stroke-width:0.6;"/><polygon fill="#181818" points="449.82,1341.6209,455.6771,1340.8369,452.3756,1340.0495,453.1629,1336.748,449.82,1341.6209" style="stroke:#181818;stroke-width:0.6;"/><text fill="#000000" font-family="sans-serif" font-size="7.8" lengthAdjust="spacing" textLength="37.2" x="527.4" y="1300.2979">workperiod</text><text fill="#000000" font-family="sans-serif" font-size="7.8" lengthAdjust="spacing" textLength="4.2" x="551.8158" y="1274.2143">1</text></g><!--link AgendaController to AgendaRepository--><g id="link_AgendaController_AgendaRepository"><path codeLine="217" d="M463.332,307.6049 C504.006,356.2289 606.6,478.8809 606.6,478.8809 C606.6,478.8809 606.6,478.8809 606.6,791.4809 C606.6,791.4809 538.2,841.8809 538.2,841.8809 C538.2,841.8809 515.168,851.4232 485.054,863.8972 " fill="none" id="AgendaController-to-AgendaRepository" style="stroke:#181818;stroke-width:0.6;stroke-dasharray:7.0,7.0;"/><polygon fill="#181818" points="481.728,865.2749,487.6354,865.4256,484.4996,864.1268,485.7985,860.991,481.728,865.2749" style="stroke:#181818;stroke-width:0.6;"/><text fill="#000000" font-family="sans-serif" font-size="7.8" lengthAdjust="spacing" textLength="62.4" x="607.2" y="667.8979">agendaRepository</text></g><!--link AssignVehiclesToEntryAgendaController to AgendaRepository--><g id="link_AssignVehiclesToEntryAgendaController_AgendaRepository"><path codeLine="218" d="M189.36,329.9549 C158.448,386.1149 107.4,478.8809 107.4,478.8809 C107.4,478.8809 107.4,478.8809 107.4,791.4809 C107.4,791.4809 213.339,831.9562 297.135,863.9662 " fill="none" id="AssignVehiclesToEntryAgendaController-to-AgendaRepository" style="stroke:#181818;stroke-width:0.6;stroke-dasharray:7.0,7.0;"/><polygon fill="#181818" points="300.498,865.2509,296.31,861.0819,297.6955,864.1803,294.5971,865.5659,300.498,865.2509" style="stroke:#181818;stroke-width:0.6;"/><text fill="#000000" font-family="sans-serif" font-size="7.8" lengthAdjust="spacing" textLength="62.4" x="108" y="667.8979">agendaRepository</text></g><!--link AssignVehiclesToEntryAgendaController to VehicleRepository--><g id="link_AssignVehiclesToEntryAgendaController_VehicleRepository"><path codeLine="219" d="M129.792,329.7929 C108.672,340.4609 91.8,348.9809 91.8,348.9809 C91.8,348.9809 3.6,478.8809 3.6,478.8809 C3.6,478.8809 3.6,478.8809 3.6,791.4809 C3.6,791.4809 91.8,847.2809 91.8,847.2809 C91.8,847.2809 107.3488,856.6131 127.6648,868.7991 " fill="none" id="AssignVehiclesToEntryAgendaController-to-VehicleRepository" style="stroke:#181818;stroke-width:0.6;stroke-dasharray:7.0,7.0;"/><polygon fill="#181818" points="130.752,870.6509,127.3557,865.815,128.1793,869.1077,124.8867,869.9313,130.752,870.6509" style="stroke:#181818;stroke-width:0.6;"/><text fill="#000000" font-family="sans-serif" font-size="7.8" lengthAdjust="spacing" textLength="60.6" x="4.2" y="667.8979">vehicleRepository</text></g><!--link Repositories to Repositories--><g id="link_Repositories_Repositories"><path codeLine="220" d="M308.568,652.6409 C320.688,653.8949 329.4,657.8789 329.4,664.5809 C329.4,671.2829 324.2689,674.8964 312.1489,676.1504 " fill="none" id="Repositories-to-Repositories" style="stroke:#181818;stroke-width:0.6;"/><polygon fill="#181818" points="308.568,676.5209,314.1863,678.3524,311.5521,676.2121,313.6923,673.5779,308.568,676.5209" style="stroke:#181818;stroke-width:0.6;"/><text fill="#000000" font-family="sans-serif" font-size="7.8" lengthAdjust="spacing" textLength="29.4" x="333" y="667.8979">instance</text></g><!--reverse link AgendaMapper to AgendaController--><g id="link_AgendaMapper_AgendaController"><path codeLine="221" d="M683.262,287.4809 C655.2,287.4809 571.2,287.4809 571.2,287.4809 C571.2,287.4809 546.138,287.4809 518.526,287.4809 " fill="none" id="AgendaMapper-backto-AgendaController" style="stroke:#181818;stroke-width:0.6;stroke-dasharray:7.0,7.0;"/><polygon fill="#181818" points="686.862,287.4809,681.462,285.0809,683.862,287.4809,681.462,289.8809,686.862,287.4809" style="stroke:#181818;stroke-width:0.6;"/></g><!--link AgendaMapper to AgendaTaskDTO--><g id="link_AgendaMapper_AgendaTaskDTO"><path codeLine="222" d="M819.6,313.0229 C819.6,330.8009 819.6,352.3589 819.6,377.7149 " fill="none" id="AgendaMapper-to-AgendaTaskDTO" style="stroke:#181818;stroke-width:0.6;stroke-dasharray:7.0,7.0;"/><polygon fill="#181818" points="819.6,381.3149,822,375.9149,819.6,378.3149,817.2,375.9149,819.6,381.3149" style="stroke:#181818;stroke-width:0.6;"/></g><!--link AgendaTaskDTO to TeamDTO--><g id="link_AgendaTaskDTO_TeamDTO"><path codeLine="223" d="M863.862,577.6829 C874.194,600.4649 882.8289,619.5064 890.1909,635.7364 " fill="none" id="AgendaTaskDTO-to-TeamDTO" style="stroke:#181818;stroke-width:0.6;stroke-dasharray:7.0,7.0;"/><polygon fill="#181818" points="891.678,639.0149,891.633,633.1057,890.4387,636.2828,887.2616,635.0886,891.678,639.0149" style="stroke:#181818;stroke-width:0.6;"/><text fill="#000000" font-family="sans-serif" font-size="7.8" lengthAdjust="spacing" textLength="4.2" x="885.3389" y="632.3468">1</text></g><!--link TeamDTO to CollaboratorDTO--><g id="link_TeamDTO_CollaboratorDTO"><path codeLine="224" d="M903,690.1949 C903,708.5189 903,730.0649 903,750.5669 " fill="none" id="TeamDTO-to-CollaboratorDTO" style="stroke:#181818;stroke-width:0.6;stroke-dasharray:7.0,7.0;"/><polygon fill="#181818" points="903,754.1669,905.4,748.7669,903,751.1669,900.6,748.7669,903,754.1669" style="stroke:#181818;stroke-width:0.6;"/><text fill="#000000" font-family="sans-serif" font-size="7.8" lengthAdjust="spacing" textLength="4.2" x="898.4653" y="703.5092">1</text></g><!--link AgendaTaskDTO to VehicleDTO--><g id="link_AgendaTaskDTO_VehicleDTO"><path codeLine="225" d="M775.338,577.6829 C768.24,593.3309 762.7311,605.4784 756.6591,618.8644 " fill="none" id="AgendaTaskDTO-to-VehicleDTO" style="stroke:#181818;stroke-width:0.6;stroke-dasharray:7.0,7.0;"/><polygon fill="#181818" points="755.172,622.1429,759.5884,618.2166,756.4113,619.4108,755.2171,616.2337,755.172,622.1429" style="stroke:#181818;stroke-width:0.6;"/><text fill="#000000" font-family="sans-serif" font-size="7.8" lengthAdjust="spacing" textLength="4.2" x="768.8923" y="591.1032">1</text></g><!--link VehicleMapper to Vehicle--><g id="link_VehicleMapper_Vehicle"><path codeLine="226" d="M1036.698,313.0229 C1038.978,364.7429 1044,478.8809 1044,478.8809 C1044,478.8809 1044,478.8809 1044,1060.5809 C1044,1060.5809 853.147,1136.8372 736.327,1183.5112 " fill="none" id="VehicleMapper-to-Vehicle" style="stroke:#181818;stroke-width:0.6;"/><polygon fill="#181818" points="732.984,1184.8469,738.889,1185.072,735.7699,1183.7338,737.1081,1180.6146,732.984,1184.8469" style="stroke:#181818;stroke-width:0.6;"/><text fill="#000000" font-family="sans-serif" font-size="7.8" lengthAdjust="spacing" textLength="23.4" x="1044.6" y="794.1979">vehicle</text></g><!--SRC=[hLVBRkCs5DtpAuJf8d9Z6zCkkeW30scSjWQQDgZjwMOsjCGuH2XIeAWa7YF_takAf4WzKgEeDudkYuVtpOlgcV8IIrmaXU0YUvAY88cIDK4jfyJPCpwGZJeoaaYIASmFB1Iedd0kNYa_98-OLI67KKxKiIH9ATXHVw2B0QQGIg10AsEugcwKadHVAxBE1D_GRoJvZ1HL066t-VpZJyaikTLYoOhY0oWXP64cl-xMoVNrBuBbH2wNoNShyqjE21cxoSs1y1o3q0aby9jPmXPNpwljdqb565oHvFhR2lnEAtNzXJpHZ14GMNePIwkCt6L2ELKKCy2QCf5XHGMVWiCgKSkCL1DhxP4oferlyPwHT69rzuhVL1KzS6SpTV9rcMD5ZFGNIbuz_GLEqfnD03WDqK_Gkxjp8-DCFuYoBdVhqzZrNgoSizn2ZEnu9C2unJmZx2RJT_RqZ8cAxDR-ZWVY8JZJdgUzOfdECHh-UnlNMy6L58mHEHnU6zt8YLjn1qh79iA1WPCzzIpf47_3-ukKeg9AoEF0tJvaLfw6EqVhY3NMKnmcvBINRK0CGjj5U-g2jNRkCGUxKWTR-nOCW8aBvzoLA33baMDlpE_a_T_UwoF_zvmGPTcMuCBdbwQWdeSim2xvv-C3WsHVv-cBpzHvQKYhdZV6JWTFB9F6ky71rZERacJqaMOs24L3lGE_i3DYPbhJD3b8GlW6N4R-m0MPVkNaZMIrheeLG8LOAgpgQkfBhB7iuNlWb5I-FuN4q3Dh3jQWxD99SXK9dPcI0xdS-h4i6MrQs8R0hGNttRB76SNK5mqEhzKJuSgoXm7UrbA2J7jCYszNGS12O4P1Kqt08bb3ERbsWZv8-Uwe-5l8vmSYgSZT8JgAoIkGDmfBfRzyxrSj_JVe-4FqUygxTkvuFc05g0CsWAejj3UpuNNWDZ0nOGWtLP77nBt4l4CgH4wO9RdMgyUndicMd8iQUd42s1lAV3wt74aAyK9Q1wqVxzwWngeKdDbIWupIjU9JsY8mHRE8QJcfCabBdHMEOwQbGMR_QLLqDTcYMdY45g8PYBOk0wjJRoOiLoZLMa91P4SGnaSeqIS80FmfA8Sbn1Pg2kOxTrhLqgImlvkEbhQm2BwDhP1WhOOa9HHcpjgzumTtSRnq7Dyb30jrfcoxGPoXe6V5UrG-zxWinqPnr8mRGJzn0vglTIMWcmTZ3q84Wy8Clx7b1FxNh4c_6kBpmBIfys1iJ3eiCt6wPkFTGo-6_tvJjq9swZ78yilHBBySotAl4eyMnzmrIMiKRG8lWhP1tagpExZmTcn6dMmnrieM8xsipU3BeLBqfz1Ap_rcroAvp-d8QV-fKBktqvHet4RN0Cqk-dOWnnZR0UqfNxdFoV4Kl8KL3Ey5e14Is9r4o09k64FB9dfEEPh9-uO1xurds8wrHjiGEYUbeUq9YhUARGFy59hkw2yZS6w3i8hfi8RsnpqfzaHsrvYsNWT7qsenC9iM0yEfGrEcA1fQUuGhNVzWy0-y-NpPMuy3BYEF2YG6tqPeaAgdo_AyHmFglJcCRhIcdVTMwQlr99P3grQVbCo6165HetPh6zI1fpq7nKy_V0gtBj2gsoyKSZHWitEXQ9sTpQoLxjuv8jRRNL5NqOWvV6Q_k38j0vd_lv_DD3-QqGtVVNev8zXkBI3swZzG3qTpxD8116cRWKwq4G29dicoCJaOuzxjhknJ9VJ0sHdp_rhh-y1VUZIESTP6MTO_GjVYCbeEKFWHNCdE2nIFNCq7hzk6XUnV4mZDwlIkZhAJQdiAYdQ9uM3_0m00]--></g></svg>