<?xml version="1.0" encoding="us-ascii" standalone="no"?><svg xmlns="http://www.w3.org/2000/svg" xmlns:xlink="http://www.w3.org/1999/xlink" contentStyleType="text/css" height="621.2px" preserveAspectRatio="none" style="width:763px;height:621px;background:#FFFFFF;" version="1.1" viewBox="0 0 763 621" width="763.2px" zoomAndPan="magnify"><defs/><g><text fill="#000000" font-family="sans-serif" font-size="5.6" font-weight="bold" lengthAdjust="spacing" textLength="113.6" x="324.4" y="12.043">US026 - System Sequence Diagram (SSD)</text><rect fill="#FFFFFF" height="527.5734" style="stroke:#181818;stroke-width:0.4000000000000001;" width="4" x="13.4" y="53.2969"/><rect fill="#FFFFFF" height="83.0984" style="stroke:#181818;stroke-width:0.4000000000000001;" width="4" x="173.4" y="62.6133"/><rect fill="#FFFFFF" height="183.6805" style="stroke:#181818;stroke-width:0.4000000000000001;" width="4" x="173.4" y="158.2281"/><rect fill="#FFFFFF" height="53.0328" style="stroke:#181818;stroke-width:0.4000000000000001;" width="4" x="173.4" y="354.425"/><rect fill="#FFFFFF" height="160.8961" style="stroke:#181818;stroke-width:0.4000000000000001;" width="4" x="173.4" y="419.9742"/><rect fill="#FFFFFF" height="37.5492" style="stroke:#181818;stroke-width:0.4000000000000001;" width="4" x="301.4" y="75.1297"/><rect fill="#FFFFFF" height="87.6148" style="stroke:#181818;stroke-width:0.4000000000000001;" width="4" x="301.4" y="221.2609"/><rect fill="#FFFFFF" height="125.8633" style="stroke:#181818;stroke-width:0.4000000000000001;" width="4" x="301.4" y="442.4906"/><rect fill="#FFFFFF" height="12.5164" style="stroke:#181818;stroke-width:0.4000000000000001;" width="4" x="429.4" y="87.6461"/><rect fill="#FFFFFF" height="89.2559" style="stroke:#181818;stroke-width:0.4000000000000001;" width="4" x="429.4" y="466.5816"/><rect fill="#FFFFFF" height="12.5164" style="stroke:#181818;stroke-width:0.4000000000000001;" width="4" x="586.4" y="233.7773"/><rect fill="#FFFFFF" height="12.5164" style="stroke:#181818;stroke-width:0.4000000000000001;" width="4" x="626.8" y="258.8102"/><rect fill="#FFFFFF" height="12.5164" style="stroke:#181818;stroke-width:0.4000000000000001;" width="4" x="733.2" y="283.843"/><rect fill="none" height="42.7492" style="stroke:#000000;stroke-width:0.6000000000000001;" width="208.8" x="4" y="128.6789"/><rect fill="none" height="42.7492" style="stroke:#000000;stroke-width:0.6000000000000001;" width="208.8" x="4" y="324.8758"/><line style="stroke:#181818;stroke-width:0.20000000000000004;stroke-dasharray:5.0,5.0;" x1="15.2" x2="15.2" y1="49.2969" y2="588.0703"/><line style="stroke:#181818;stroke-width:0.20000000000000004;stroke-dasharray:5.0,5.0;" x1="175.2" x2="175.2" y1="49.2969" y2="588.0703"/><line style="stroke:#181818;stroke-width:0.20000000000000004;stroke-dasharray:5.0,5.0;" x1="303.2" x2="303.2" y1="49.2969" y2="588.0703"/><line style="stroke:#181818;stroke-width:0.20000000000000004;stroke-dasharray:5.0,5.0;" x1="431.2" x2="431.2" y1="49.2969" y2="588.0703"/><line style="stroke:#181818;stroke-width:0.20000000000000004;stroke-dasharray:5.0,5.0;" x1="557.2" x2="557.2" y1="504.0805" y2="588.0703"/><line style="stroke:#181818;stroke-width:0.20000000000000004;stroke-dasharray:5.0,5.0;" x1="588.4" x2="588.4" y1="49.2969" y2="588.0703"/><line style="stroke:#181818;stroke-width:0.20000000000000004;stroke-dasharray:5.0,5.0;" x1="628.8" x2="628.8" y1="49.2969" y2="588.0703"/><line style="stroke:#181818;stroke-width:0.20000000000000004;stroke-dasharray:5.0,5.0;" x1="678.8" x2="678.8" y1="49.2969" y2="588.0703"/><line style="stroke:#181818;stroke-width:0.20000000000000004;stroke-dasharray:5.0,5.0;" x1="735.2" x2="735.2" y1="49.2969" y2="588.0703"/><text fill="#000000" font-family="sans-serif" font-size="5.6" lengthAdjust="spacing" textLength="12.4" x="8" y="47.8914">GSM</text><ellipse cx="15.4" cy="21.2484" fill="#E3E3E3" rx="3.2" ry="3.2" style="stroke:#181818;stroke-width:0.20000000000000004;"/><path d="M15.4,24.4484 L15.4,35.2484 M10.2,27.6484 L20.6,27.6484 M15.4,35.2484 L10.2,41.2484 M15.4,35.2484 L20.6,41.2484 " fill="none" style="stroke:#181818;stroke-width:0.20000000000000004;"/><text fill="#000000" font-family="sans-serif" font-size="5.6" lengthAdjust="spacing" textLength="12.4" x="8" y="593.7133">GSM</text><ellipse cx="15.4" cy="598.5188" fill="#E3E3E3" rx="3.2" ry="3.2" style="stroke:#181818;stroke-width:0.20000000000000004;"/><path d="M15.4,601.7188 L15.4,612.5188 M10.2,604.9188 L20.6,604.9188 M15.4,612.5188 L10.2,618.5188 M15.4,612.5188 L20.6,618.5188 " fill="none" style="stroke:#181818;stroke-width:0.20000000000000004;"/><rect fill="#E3E3E3" height="13.0484" rx="1" ry="1" style="stroke:#181818;stroke-width:0.20000000000000004;" width="66.8" x="142" y="35.8484"/><text fill="#000000" font-family="sans-serif" font-size="5.6" lengthAdjust="spacing" textLength="61.2" x="144.8" y="44.6914">:AssignVehicleAgendaUI</text><rect fill="#E3E3E3" height="13.0484" rx="1" ry="1" style="stroke:#181818;stroke-width:0.20000000000000004;" width="66.8" x="142" y="587.6703"/><text fill="#000000" font-family="sans-serif" font-size="5.6" lengthAdjust="spacing" textLength="61.2" x="144.8" y="596.5133">:AssignVehicleAgendaUI</text><rect fill="#E3E3E3" height="13.0484" rx="1" ry="1" style="stroke:#181818;stroke-width:0.20000000000000004;" width="86.8" x="260" y="35.8484"/><text fill="#000000" font-family="sans-serif" font-size="5.6" lengthAdjust="spacing" textLength="81.2" x="262.8" y="44.6914">:AssignVehicleAgendaController</text><rect fill="#E3E3E3" height="13.0484" rx="1" ry="1" style="stroke:#181818;stroke-width:0.20000000000000004;" width="86.8" x="260" y="587.6703"/><text fill="#000000" font-family="sans-serif" font-size="5.6" lengthAdjust="spacing" textLength="81.2" x="262.8" y="596.5133">:AssignVehicleAgendaController</text><rect fill="#E3E3E3" height="13.0484" rx="1" ry="1" style="stroke:#181818;stroke-width:0.20000000000000004;" width="26.8" x="418" y="35.8484"/><text fill="#000000" font-family="sans-serif" font-size="5.6" lengthAdjust="spacing" textLength="21.2" x="420.8" y="44.6914">:Agenda</text><rect fill="#E3E3E3" height="13.0484" rx="1" ry="1" style="stroke:#181818;stroke-width:0.20000000000000004;" width="26.8" x="418" y="587.6703"/><text fill="#000000" font-family="sans-serif" font-size="5.6" lengthAdjust="spacing" textLength="21.2" x="420.8" y="596.5133">:Agenda</text><rect fill="#E3E3E3" height="13.0484" rx="1" ry="1" style="stroke:#181818;stroke-width:0.20000000000000004;" width="19.6" x="547.6" y="587.6703"/><text fill="#000000" font-family="sans-serif" font-size="5.6" lengthAdjust="spacing" textLength="14" x="550.4" y="596.5133">:Task</text><rect fill="#E3E3E3" height="13.0484" rx="1" ry="1" style="stroke:#181818;stroke-width:0.20000000000000004;" width="34.4" x="571.2" y="35.8484"/><text fill="#000000" font-family="sans-serif" font-size="5.6" lengthAdjust="spacing" textLength="28.8" x="574" y="44.6914">:Repository</text><rect fill="#E3E3E3" height="13.0484" rx="1" ry="1" style="stroke:#181818;stroke-width:0.20000000000000004;" width="34.4" x="571.2" y="587.6703"/><text fill="#000000" font-family="sans-serif" font-size="5.6" lengthAdjust="spacing" textLength="28.8" x="574" y="596.5133">:Repository</text><rect fill="#E3E3E3" height="20.4969" rx="1" ry="1" style="stroke:#181818;stroke-width:0.20000000000000004;" width="38.4" x="609.6" y="28.4"/><text fill="#000000" font-family="sans-serif" font-size="5.6" lengthAdjust="spacing" textLength="31.2" x="612.4" y="37.243">:repositories</text><text fill="#000000" font-family="sans-serif" font-size="5.6" lengthAdjust="spacing" textLength="31.6" x="613" y="44.6914">Repositories</text><rect fill="#E3E3E3" height="20.4969" rx="1" ry="1" style="stroke:#181818;stroke-width:0.20000000000000004;" width="38.4" x="609.6" y="587.6703"/><text fill="#000000" font-family="sans-serif" font-size="5.6" lengthAdjust="spacing" textLength="31.2" x="612.4" y="596.5133">:repositories</text><text fill="#000000" font-family="sans-serif" font-size="5.6" lengthAdjust="spacing" textLength="31.6" x="613" y="603.9617">Repositories</text><rect fill="#E3E3E3" height="20.4969" rx="1" ry="1" style="stroke:#181818;stroke-width:0.20000000000000004;" width="53.6" x="652" y="28.4"/><text fill="#000000" font-family="sans-serif" font-size="5.6" lengthAdjust="spacing" textLength="46.4" x="654.8" y="37.243">:vehicleRepository</text><text fill="#000000" font-family="sans-serif" font-size="5.6" lengthAdjust="spacing" textLength="45.6" x="656" y="44.6914">VehicleRepository</text><rect fill="#E3E3E3" height="20.4969" rx="1" ry="1" style="stroke:#181818;stroke-width:0.20000000000000004;" width="53.6" x="652" y="587.6703"/><text fill="#000000" font-family="sans-serif" font-size="5.6" lengthAdjust="spacing" textLength="46.4" x="654.8" y="596.5133">:vehicleRepository</text><text fill="#000000" font-family="sans-serif" font-size="5.6" lengthAdjust="spacing" textLength="45.6" x="656" y="603.9617">VehicleRepository</text><rect fill="#E3E3E3" height="13.0484" rx="1" ry="1" style="stroke:#181818;stroke-width:0.20000000000000004;" width="51.2" x="709.6" y="35.8484"/><text fill="#000000" font-family="sans-serif" font-size="5.6" lengthAdjust="spacing" textLength="45.6" x="712.4" y="44.6914">VehicleRepository</text><rect fill="#E3E3E3" height="13.0484" rx="1" ry="1" style="stroke:#181818;stroke-width:0.20000000000000004;" width="51.2" x="709.6" y="587.6703"/><text fill="#000000" font-family="sans-serif" font-size="5.6" lengthAdjust="spacing" textLength="45.6" x="712.4" y="596.5133">VehicleRepository</text><rect fill="#FFFFFF" height="527.5734" style="stroke:#181818;stroke-width:0.4000000000000001;" width="4" x="13.4" y="53.2969"/><rect fill="#FFFFFF" height="83.0984" style="stroke:#181818;stroke-width:0.4000000000000001;" width="4" x="173.4" y="62.6133"/><rect fill="#FFFFFF" height="183.6805" style="stroke:#181818;stroke-width:0.4000000000000001;" width="4" x="173.4" y="158.2281"/><rect fill="#FFFFFF" height="53.0328" style="stroke:#181818;stroke-width:0.4000000000000001;" width="4" x="173.4" y="354.425"/><rect fill="#FFFFFF" height="160.8961" style="stroke:#181818;stroke-width:0.4000000000000001;" width="4" x="173.4" y="419.9742"/><rect fill="#FFFFFF" height="37.5492" style="stroke:#181818;stroke-width:0.4000000000000001;" width="4" x="301.4" y="75.1297"/><rect fill="#FFFFFF" height="87.6148" style="stroke:#181818;stroke-width:0.4000000000000001;" width="4" x="301.4" y="221.2609"/><rect fill="#FFFFFF" height="125.8633" style="stroke:#181818;stroke-width:0.4000000000000001;" width="4" x="301.4" y="442.4906"/><rect fill="#FFFFFF" height="12.5164" style="stroke:#181818;stroke-width:0.4000000000000001;" width="4" x="429.4" y="87.6461"/><rect fill="#FFFFFF" height="89.2559" style="stroke:#181818;stroke-width:0.4000000000000001;" width="4" x="429.4" y="466.5816"/><rect fill="#FFFFFF" height="12.5164" style="stroke:#181818;stroke-width:0.4000000000000001;" width="4" x="586.4" y="233.7773"/><rect fill="#FFFFFF" height="12.5164" style="stroke:#181818;stroke-width:0.4000000000000001;" width="4" x="626.8" y="258.8102"/><rect fill="#FFFFFF" height="12.5164" style="stroke:#181818;stroke-width:0.4000000000000001;" width="4" x="733.2" y="283.843"/><polygon fill="#181818" points="168.6,61.0133,172.6,62.6133,168.6,64.2133,170.2,62.6133" style="stroke:#181818;stroke-width:0.4000000000000001;"/><line style="stroke:#181818;stroke-width:0.4000000000000001;" x1="17.4" x2="171" y1="62.6133" y2="62.6133"/><text fill="#000000" font-family="sans-serif" font-size="5.2" font-weight="bold" lengthAdjust="spacing" textLength="2.8" x="20.2" y="60.5082">1</text><text fill="#000000" font-family="sans-serif" font-size="5.2" lengthAdjust="spacing" textLength="144" x="24.6" y="60.5082">Asks to assign one or more vehicles to an entry in the Agenda</text><polygon fill="#181818" points="296.6,73.5297,300.6,75.1297,296.6,76.7297,298.2,75.1297" style="stroke:#181818;stroke-width:0.4000000000000001;"/><line style="stroke:#181818;stroke-width:0.4000000000000001;" x1="177.4" x2="299" y1="75.1297" y2="75.1297"/><text fill="#000000" font-family="sans-serif" font-size="5.2" font-weight="bold" lengthAdjust="spacing" textLength="2.8" x="180.2" y="73.0246">2</text><text fill="#000000" font-family="sans-serif" font-size="5.2" lengthAdjust="spacing" textLength="28" x="184.6" y="73.0246">getAgenda()</text><polygon fill="#181818" points="424.6,86.0461,428.6,87.6461,424.6,89.2461,426.2,87.6461" style="stroke:#181818;stroke-width:0.4000000000000001;"/><line style="stroke:#181818;stroke-width:0.4000000000000001;" x1="305.4" x2="427" y1="87.6461" y2="87.6461"/><text fill="#000000" font-family="sans-serif" font-size="5.2" font-weight="bold" lengthAdjust="spacing" textLength="2.8" x="308.2" y="85.541">3</text><text fill="#000000" font-family="sans-serif" font-size="5.2" lengthAdjust="spacing" textLength="28" x="312.6" y="85.541">getAgenda()</text><polygon fill="#181818" points="309.8,98.5625,305.8,100.1625,309.8,101.7625,308.2,100.1625" style="stroke:#181818;stroke-width:0.4000000000000001;"/><line style="stroke:#181818;stroke-width:0.4000000000000001;stroke-dasharray:2.0,2.0;" x1="307.4" x2="431" y1="100.1625" y2="100.1625"/><text fill="#000000" font-family="sans-serif" font-size="5.2" font-weight="bold" lengthAdjust="spacing" textLength="2.8" x="312.2" y="98.0574">4</text><text fill="#000000" font-family="sans-serif" font-size="5.2" lengthAdjust="spacing" textLength="16.8" x="316.6" y="98.0574">agenda</text><polygon fill="#181818" points="181.8,111.0789,177.8,112.6789,181.8,114.2789,180.2,112.6789" style="stroke:#181818;stroke-width:0.4000000000000001;"/><line style="stroke:#181818;stroke-width:0.4000000000000001;stroke-dasharray:2.0,2.0;" x1="179.4" x2="303" y1="112.6789" y2="112.6789"/><text fill="#000000" font-family="sans-serif" font-size="5.2" font-weight="bold" lengthAdjust="spacing" textLength="2.8" x="184.2" y="110.5738">5</text><text fill="#000000" font-family="sans-serif" font-size="5.2" lengthAdjust="spacing" textLength="16.8" x="188.6" y="110.5738">agenda</text><path d="M4,128.6789 L33.2,128.6789 L33.2,132.3953 L29.2,136.3953 L4,136.3953 L4,128.6789 " fill="#EEEEEE" style="stroke:#000000;stroke-width:0.6000000000000001;"/><rect fill="none" height="42.7492" style="stroke:#000000;stroke-width:0.6000000000000001;" width="208.8" x="4" y="128.6789"/><text fill="#000000" font-family="sans-serif" font-size="5.2" font-weight="bold" lengthAdjust="spacing" textLength="11.2" x="10" y="134.6902">loop</text><text fill="#000000" font-family="sans-serif" font-size="4.4" font-weight="bold" lengthAdjust="spacing" textLength="75.6" x="39.2" y="134.227">[until doesn't select a valid option]</text><polygon fill="#181818" points="21.8,144.1117,17.8,145.7117,21.8,147.3117,20.2,145.7117" style="stroke:#181818;stroke-width:0.4000000000000001;"/><line style="stroke:#181818;stroke-width:0.4000000000000001;stroke-dasharray:2.0,2.0;" x1="19.4" x2="175" y1="145.7117" y2="145.7117"/><text fill="#000000" font-family="sans-serif" font-size="5.2" font-weight="bold" lengthAdjust="spacing" textLength="2.8" x="24.2" y="143.6066">6</text><text fill="#000000" font-family="sans-serif" font-size="5.2" lengthAdjust="spacing" textLength="112.8" x="28.6" y="143.6066">Shows agenda and asks the entry to be modified</text><polygon fill="#181818" points="168.6,156.6281,172.6,158.2281,168.6,159.8281,170.2,158.2281" style="stroke:#181818;stroke-width:0.4000000000000001;"/><line style="stroke:#181818;stroke-width:0.4000000000000001;" x1="17.4" x2="171" y1="158.2281" y2="158.2281"/><text fill="#000000" font-family="sans-serif" font-size="5.2" font-weight="bold" lengthAdjust="spacing" textLength="2.8" x="20.2" y="156.123">7</text><text fill="#000000" font-family="sans-serif" font-size="5.2" lengthAdjust="spacing" textLength="68.8" x="24.6" y="156.123">Selects an entry from Agenda</text><line style="stroke:#181818;stroke-width:0.4000000000000001;stroke-dasharray:2.0,2.0;" x1="177.4" x2="194.2" y1="193.5445" y2="193.5445"/><line style="stroke:#181818;stroke-width:0.4000000000000001;stroke-dasharray:2.0,2.0;" x1="194.2" x2="194.2" y1="193.5445" y2="198.7445"/><line style="stroke:#181818;stroke-width:0.4000000000000001;stroke-dasharray:2.0,2.0;" x1="177.8" x2="194.2" y1="198.7445" y2="198.7445"/><polygon fill="#181818" points="181.8,197.1445,177.8,198.7445,181.8,200.3445,180.2,198.7445" style="stroke:#181818;stroke-width:0.4000000000000001;"/><text fill="#000000" font-family="sans-serif" font-size="5.2" font-weight="bold" lengthAdjust="spacing" textLength="2.8" x="180.2" y="191.4395">8</text><text fill="#000000" font-family="sans-serif" font-size="5.2" lengthAdjust="spacing" textLength="35.2" x="184.6" y="191.4395">keepData(task)</text><polygon fill="#181818" points="296.6,219.6609,300.6,221.2609,296.6,222.8609,298.2,221.2609" style="stroke:#181818;stroke-width:0.4000000000000001;"/><line style="stroke:#181818;stroke-width:0.4000000000000001;" x1="177.4" x2="299" y1="221.2609" y2="221.2609"/><text fill="#000000" font-family="sans-serif" font-size="5.2" font-weight="bold" lengthAdjust="spacing" textLength="2.8" x="180.2" y="219.1559">9</text><text fill="#000000" font-family="sans-serif" font-size="5.2" lengthAdjust="spacing" textLength="36" x="184.6" y="219.1559">getVehicleList()</text><polygon fill="#181818" points="581.6,232.1773,585.6,233.7773,581.6,235.3773,583.2,233.7773" style="stroke:#181818;stroke-width:0.4000000000000001;"/><line style="stroke:#181818;stroke-width:0.4000000000000001;" x1="305.4" x2="584" y1="233.7773" y2="233.7773"/><text fill="#000000" font-family="sans-serif" font-size="5.2" font-weight="bold" lengthAdjust="spacing" textLength="5.6" x="308.2" y="231.6723">10</text><text fill="#000000" font-family="sans-serif" font-size="5.2" lengthAdjust="spacing" textLength="30" x="315.4" y="231.6723">getInstance()</text><polygon fill="#181818" points="309.8,244.6938,305.8,246.2938,309.8,247.8938,308.2,246.2938" style="stroke:#181818;stroke-width:0.4000000000000001;"/><line style="stroke:#181818;stroke-width:0.4000000000000001;stroke-dasharray:2.0,2.0;" x1="307.4" x2="588" y1="246.2938" y2="246.2938"/><text fill="#000000" font-family="sans-serif" font-size="5.2" font-weight="bold" lengthAdjust="spacing" textLength="5.6" x="312.2" y="244.1887">11</text><text fill="#000000" font-family="sans-serif" font-size="5.2" lengthAdjust="spacing" textLength="26.8" x="319.4" y="244.1887">repositories</text><polygon fill="#181818" points="622,257.2102,626,258.8102,622,260.4102,623.6,258.8102" style="stroke:#181818;stroke-width:0.4000000000000001;"/><line style="stroke:#181818;stroke-width:0.4000000000000001;" x1="305.4" x2="624.4" y1="258.8102" y2="258.8102"/><text fill="#000000" font-family="sans-serif" font-size="5.2" font-weight="bold" lengthAdjust="spacing" textLength="5.6" x="308.2" y="256.7051">12</text><text fill="#000000" font-family="sans-serif" font-size="5.2" lengthAdjust="spacing" textLength="52.4" x="315.4" y="256.7051">getVehicleRepository()</text><polygon fill="#181818" points="309.8,269.7266,305.8,271.3266,309.8,272.9266,308.2,271.3266" style="stroke:#181818;stroke-width:0.4000000000000001;"/><line style="stroke:#181818;stroke-width:0.4000000000000001;stroke-dasharray:2.0,2.0;" x1="307.4" x2="628.4" y1="271.3266" y2="271.3266"/><text fill="#000000" font-family="sans-serif" font-size="5.2" font-weight="bold" lengthAdjust="spacing" textLength="5.6" x="312.2" y="269.2215">13</text><text fill="#000000" font-family="sans-serif" font-size="5.2" lengthAdjust="spacing" textLength="40.4" x="319.4" y="269.2215">vehicleRepository</text><polygon fill="#181818" points="728.4,282.243,732.4,283.843,728.4,285.443,730,283.843" style="stroke:#181818;stroke-width:0.4000000000000001;"/><line style="stroke:#181818;stroke-width:0.4000000000000001;" x1="305.4" x2="730.8" y1="283.843" y2="283.843"/><text fill="#000000" font-family="sans-serif" font-size="5.2" font-weight="bold" lengthAdjust="spacing" textLength="5.6" x="308.2" y="281.7379">14</text><text fill="#000000" font-family="sans-serif" font-size="5.2" lengthAdjust="spacing" textLength="36" x="315.4" y="281.7379">getVehicleList()</text><polygon fill="#181818" points="309.8,294.7594,305.8,296.3594,309.8,297.9594,308.2,296.3594" style="stroke:#181818;stroke-width:0.4000000000000001;"/><line style="stroke:#181818;stroke-width:0.4000000000000001;stroke-dasharray:2.0,2.0;" x1="307.4" x2="734.8" y1="296.3594" y2="296.3594"/><text fill="#000000" font-family="sans-serif" font-size="5.2" font-weight="bold" lengthAdjust="spacing" textLength="5.6" x="312.2" y="294.2543">15</text><text fill="#000000" font-family="sans-serif" font-size="5.2" lengthAdjust="spacing" textLength="24" x="319.4" y="294.2543">vehicleList</text><polygon fill="#181818" points="181.8,307.2758,177.8,308.8758,181.8,310.4758,180.2,308.8758" style="stroke:#181818;stroke-width:0.4000000000000001;"/><line style="stroke:#181818;stroke-width:0.4000000000000001;stroke-dasharray:2.0,2.0;" x1="179.4" x2="303" y1="308.8758" y2="308.8758"/><text fill="#000000" font-family="sans-serif" font-size="5.2" font-weight="bold" lengthAdjust="spacing" textLength="5.6" x="184.2" y="306.7707">16</text><text fill="#000000" font-family="sans-serif" font-size="5.2" lengthAdjust="spacing" textLength="24" x="191.4" y="306.7707">vehicleList</text><path d="M4,324.8758 L33.2,324.8758 L33.2,328.5922 L29.2,332.5922 L4,332.5922 L4,324.8758 " fill="#EEEEEE" style="stroke:#000000;stroke-width:0.6000000000000001;"/><rect fill="none" height="42.7492" style="stroke:#000000;stroke-width:0.6000000000000001;" width="208.8" x="4" y="324.8758"/><text fill="#000000" font-family="sans-serif" font-size="5.2" font-weight="bold" lengthAdjust="spacing" textLength="11.2" x="10" y="330.8871">loop</text><text fill="#000000" font-family="sans-serif" font-size="4.4" font-weight="bold" lengthAdjust="spacing" textLength="73.2" x="39.2" y="330.4238">[until doesn't choose to advance]</text><polygon fill="#181818" points="21.8,340.3086,17.8,341.9086,21.8,343.5086,20.2,341.9086" style="stroke:#181818;stroke-width:0.4000000000000001;"/><line style="stroke:#181818;stroke-width:0.4000000000000001;stroke-dasharray:2.0,2.0;" x1="19.4" x2="175" y1="341.9086" y2="341.9086"/><text fill="#000000" font-family="sans-serif" font-size="5.2" font-weight="bold" lengthAdjust="spacing" textLength="5.6" x="24.2" y="339.8035">17</text><text fill="#000000" font-family="sans-serif" font-size="5.2" lengthAdjust="spacing" textLength="112.8" x="31.4" y="339.8035">Shows the list of vehicles and asks to select one</text><polygon fill="#181818" points="168.6,352.825,172.6,354.425,168.6,356.025,170.2,354.425" style="stroke:#181818;stroke-width:0.4000000000000001;"/><line style="stroke:#181818;stroke-width:0.4000000000000001;" x1="17.4" x2="171" y1="354.425" y2="354.425"/><text fill="#000000" font-family="sans-serif" font-size="5.2" font-weight="bold" lengthAdjust="spacing" textLength="5.6" x="20.2" y="352.3199">18</text><text fill="#000000" font-family="sans-serif" font-size="5.2" lengthAdjust="spacing" textLength="39.2" x="27.4" y="352.3199">Selects a vehicle</text><line style="stroke:#181818;stroke-width:0.4000000000000001;stroke-dasharray:2.0,2.0;" x1="177.4" x2="194.2" y1="379.7414" y2="379.7414"/><line style="stroke:#181818;stroke-width:0.4000000000000001;stroke-dasharray:2.0,2.0;" x1="194.2" x2="194.2" y1="379.7414" y2="384.9414"/><line style="stroke:#181818;stroke-width:0.4000000000000001;stroke-dasharray:2.0,2.0;" x1="177.8" x2="194.2" y1="384.9414" y2="384.9414"/><polygon fill="#181818" points="181.8,383.3414,177.8,384.9414,181.8,386.5414,180.2,384.9414" style="stroke:#181818;stroke-width:0.4000000000000001;"/><text fill="#000000" font-family="sans-serif" font-size="5.2" font-weight="bold" lengthAdjust="spacing" textLength="5.6" x="180.2" y="377.6363">19</text><text fill="#000000" font-family="sans-serif" font-size="5.2" lengthAdjust="spacing" textLength="98.4" x="187.4" y="377.6363">keepData(List&lt;Vehicle&gt; selectedVehicles)</text><polygon fill="#181818" points="21.8,405.8578,17.8,407.4578,21.8,409.0578,20.2,407.4578" style="stroke:#181818;stroke-width:0.4000000000000001;"/><line style="stroke:#181818;stroke-width:0.4000000000000001;stroke-dasharray:2.0,2.0;" x1="19.4" x2="175" y1="407.4578" y2="407.4578"/><text fill="#000000" font-family="sans-serif" font-size="5.2" font-weight="bold" lengthAdjust="spacing" textLength="5.6" x="24.2" y="405.3527">20</text><text fill="#000000" font-family="sans-serif" font-size="5.2" lengthAdjust="spacing" textLength="95.2" x="31.4" y="405.3527">Shows all data and requests confirmation</text><polygon fill="#181818" points="168.6,418.3742,172.6,419.9742,168.6,421.5742,170.2,419.9742" style="stroke:#181818;stroke-width:0.4000000000000001;"/><line style="stroke:#181818;stroke-width:0.4000000000000001;" x1="17.4" x2="171" y1="419.9742" y2="419.9742"/><text fill="#000000" font-family="sans-serif" font-size="5.2" font-weight="bold" lengthAdjust="spacing" textLength="5.6" x="20.2" y="417.8691">21</text><text fill="#000000" font-family="sans-serif" font-size="5.2" lengthAdjust="spacing" textLength="32" x="27.4" y="417.8691">Confirms data</text><polygon fill="#181818" points="296.6,440.8906,300.6,442.4906,296.6,444.0906,298.2,442.4906" style="stroke:#181818;stroke-width:0.4000000000000001;"/><line style="stroke:#181818;stroke-width:0.4000000000000001;" x1="177.4" x2="299" y1="442.4906" y2="442.4906"/><text fill="#000000" font-family="sans-serif" font-size="5.2" font-weight="bold" lengthAdjust="spacing" textLength="5.6" x="180.2" y="440.3855">22</text><text fill="#000000" font-family="sans-serif" font-size="5.2" lengthAdjust="spacing" textLength="109.2" x="187.4" y="440.3855">assignVehiclesToEntry(task, selectedVehicles)</text><polygon fill="#181818" points="424.6,464.9816,428.6,466.5816,424.6,468.1816,426.2,466.5816" style="stroke:#181818;stroke-width:0.4000000000000001;"/><line style="stroke:#181818;stroke-width:0.4000000000000001;" x1="305.4" x2="427" y1="466.5816" y2="466.5816"/><text fill="#000000" font-family="sans-serif" font-size="5.2" font-weight="bold" lengthAdjust="spacing" textLength="5.6" x="308.2" y="464.4766">23</text><text fill="#000000" font-family="sans-serif" font-size="5.2" lengthAdjust="spacing" textLength="109.2" x="315.4" y="464.4766">assignVehiclesToEntry(task, selectedVehicles)</text><path d="M435.2,447.6906 L435.2,479.2906 L482.4,479.2906 L482.4,451.6906 L478.4,447.6906 L435.2,447.6906 " fill="#FAFAFA" style="stroke:#181818;stroke-width:0.20000000000000004;"/><path d="M478.4,447.6906 L478.4,451.6906 L482.4,451.6906 L478.4,447.6906 " fill="#FAFAFA" style="stroke:#181818;stroke-width:0.20000000000000004;"/><text fill="#000000" font-family="sans-serif" font-size="5.2" lengthAdjust="spacing" textLength="32" x="437.6" y="455.302">arranjarForma</text><text fill="#000000" font-family="sans-serif" font-size="5.2" lengthAdjust="spacing" textLength="36.8" x="437.6" y="462.2184">DeObterTaskBy</text><text fill="#000000" font-family="sans-serif" font-size="5.2" lengthAdjust="spacing" textLength="11.2" x="437.6" y="469.1348">Task</text><text fill="#000000" font-family="sans-serif" font-size="5.2" lengthAdjust="spacing" textLength="34" x="442.4" y="476.0512">QualquerCoisa</text><polygon fill="#181818" points="542.8,499.0727,546.8,500.6727,542.8,502.2727,544.4,500.6727" style="stroke:#181818;stroke-width:0.4000000000000001;"/><line style="stroke:#181818;stroke-width:0.4000000000000001;" x1="433.4" x2="545.2" y1="500.6727" y2="500.6727"/><text fill="#000000" font-family="sans-serif" font-size="5.2" font-weight="bold" lengthAdjust="spacing" textLength="5.6" x="436.2" y="498.5676">24</text><text fill="#000000" font-family="sans-serif" font-size="5.2" lengthAdjust="spacing" textLength="78" x="443.4" y="498.5676">assignVehicles(selectedVehicles)</text><rect fill="#E3E3E3" height="13.0484" rx="1" ry="1" style="stroke:#181818;stroke-width:0.20000000000000004;" width="19.6" x="547.6" y="491.3563"/><text fill="#000000" font-family="sans-serif" font-size="5.6" lengthAdjust="spacing" textLength="14" x="550.4" y="500.1992">:Task</text><line style="stroke:#181818;stroke-width:0.4000000000000001;stroke-dasharray:2.0,2.0;" x1="433.4" x2="450.2" y1="538.1211" y2="538.1211"/><line style="stroke:#181818;stroke-width:0.4000000000000001;stroke-dasharray:2.0,2.0;" x1="450.2" x2="450.2" y1="538.1211" y2="543.3211"/><line style="stroke:#181818;stroke-width:0.4000000000000001;stroke-dasharray:2.0,2.0;" x1="433.8" x2="450.2" y1="543.3211" y2="543.3211"/><polygon fill="#181818" points="437.8,541.7211,433.8,543.3211,437.8,544.9211,436.2,543.3211" style="stroke:#181818;stroke-width:0.4000000000000001;"/><text fill="#000000" font-family="sans-serif" font-size="5.2" font-weight="bold" lengthAdjust="spacing" textLength="5.6" x="436.2" y="536.016">25</text><text fill="#000000" font-family="sans-serif" font-size="5.2" lengthAdjust="spacing" textLength="109.2" x="443.4" y="536.016">assignVehiclesToEntry(task, selectedVehicles)</text><polygon fill="#181818" points="309.8,554.2375,305.8,555.8375,309.8,557.4375,308.2,555.8375" style="stroke:#181818;stroke-width:0.4000000000000001;"/><line style="stroke:#181818;stroke-width:0.4000000000000001;stroke-dasharray:2.0,2.0;" x1="307.4" x2="431" y1="555.8375" y2="555.8375"/><text fill="#000000" font-family="sans-serif" font-size="5.2" font-weight="bold" lengthAdjust="spacing" textLength="5.6" x="312.2" y="553.7324">26</text><text fill="#000000" font-family="sans-serif" font-size="5.2" lengthAdjust="spacing" textLength="42.4" x="319.4" y="553.7324">operation success</text><polygon fill="#181818" points="181.8,566.7539,177.8,568.3539,181.8,569.9539,180.2,568.3539" style="stroke:#181818;stroke-width:0.4000000000000001;"/><line style="stroke:#181818;stroke-width:0.4000000000000001;stroke-dasharray:2.0,2.0;" x1="179.4" x2="303" y1="568.3539" y2="568.3539"/><text fill="#000000" font-family="sans-serif" font-size="5.2" font-weight="bold" lengthAdjust="spacing" textLength="5.6" x="184.2" y="566.2488">27</text><text fill="#000000" font-family="sans-serif" font-size="5.2" lengthAdjust="spacing" textLength="42.4" x="191.4" y="566.2488">operation success</text><polygon fill="#181818" points="19.8,579.2703,15.8,580.8703,19.8,582.4703,18.2,580.8703" style="stroke:#181818;stroke-width:0.4000000000000001;"/><line style="stroke:#181818;stroke-width:0.4000000000000001;stroke-dasharray:2.0,2.0;" x1="17.4" x2="175" y1="580.8703" y2="580.8703"/><text fill="#000000" font-family="sans-serif" font-size="5.2" font-weight="bold" lengthAdjust="spacing" textLength="5.6" x="22.2" y="578.7652">28</text><text fill="#000000" font-family="sans-serif" font-size="5.2" lengthAdjust="spacing" textLength="61.2" x="29.4" y="578.7652">Display operation success</text><!--SRC=[dLOzRzim4DtvAmvPQXSDK7JeO1G1KZij0gHeQoMPkZ3IMMOjaof9Ep2G7zyZ9SMKHCb6k9Wcx_FTtHFDHiYIQxw5hP8gNMkrHR1wXyoytfGytV0S4tie43Icbiky20NCccVgMSWSLhmmo9WLbaGVae-VFiCb90TZSGi9_jkXJ14MWkTERP8aYobZV6ULt6sVKDC-jKh3nVVanmLm0_JBo8KLgIYvj70nkpP6vF8Hro8jy3f7cV67Mo_xS7jQTAwarQeeK7kL-VtohglavVnjjUtSttEpyRTkqxbROgcCe0GENc9vywiZe1i1WGR-o6Nmjz58EYhxAloZQT9xx9vvvSSbOnv0iUSMFNGCQD46Bgy87fZ1jTaOi8h47JIW90B1lLKQeNPKNKj00ke0Ge9TOuC4gmo-kY34_G6P9WSEJ7AHewt49zEEk4VR7xdbnKcj4eufjfIR421OjUhbqJclf1g130VrA_SDBe5UeEC3TcSlBo-LPg5K2JjfHG6PGYFVMJ1Oq4G0XpqlH0Qgj4B9en-73NbnHPX1ibRFfdP686TK1rSFGhY2cw1_GYf79bO2CnRBey6yMzd4Xs6EfLlH9FUo3iqqPowvPa_IFiVePPsATxT1B1VSyecb5AOjyPPys1Prszu9OyCI3pL8k9fceG6fRDrAGooKOijGi5vjkY6CIZXJGUU4encL3semQ3C8CsdbV1pLoVHalCbWm4aOSOyPpWWx6O-x5ssiSAFXzop47VOTzHDpxawbTAQxzh2Vi1yZWEvgzNc45DArKWOzbMPxrwTZVE3clw1WGAsEB7na1zLG3B4r6mYqOOKe8pH6sPaCmCOdtk7sfGR-geuDi_h0Z711bmOBmeiC-bIrUniOYZPLSYNqbdiMFPNb3EQLkF6Ms6Y6SLxYuIF1tAiRHvwUrJv4ScDdS5Rlm_P65oS_VrBHXHRvkjF6N6ik_tBzJH6ExQi5_doogDtRvMk7B_nxfjldltUyeCBekHAcRSfzALm0h3iMiG_qbRV-_dqFZCbm-yJijShOUG6y4UxGsed7XIfH-xu4iqjJD6RadT4psQQWOLDiY8RYexGGfYpuOSmWYusHNy6PVot-1m00]--></g></svg>