<?xml version="1.0" encoding="us-ascii" standalone="no"?><svg xmlns="http://www.w3.org/2000/svg" xmlns:xlink="http://www.w3.org/1999/xlink" contentStyleType="text/css" height="2384px" preserveAspectRatio="none" style="width:1853px;height:2384px;background:#FFFFFF;" version="1.1" viewBox="0 0 1853 2384" width="1853px" zoomAndPan="magnify"><defs/><g><text fill="#000000" font-family="sans-serif" font-size="14" font-weight="bold" lengthAdjust="spacing" textLength="155" x="842" y="25.1074">US026 - Class Diagram</text><!--cluster GUI--><g id="cluster_GUI"><path d="M289.5,45.6348 L315.5,45.6348 A3.75,3.75 0 0 1 318,48.1348 L325,70.2559 L839.5,70.2559 A2.5,2.5 0 0 1 842,72.7559 L842,274.1348 A2.5,2.5 0 0 1 839.5,276.6348 L289.5,276.6348 A2.5,2.5 0 0 1 287,274.1348 L287,48.1348 A2.5,2.5 0 0 1 289.5,45.6348 " fill="#DDDDDD" style="stroke:#000000;stroke-width:1.5;"/><line style="stroke:#000000;stroke-width:1.5;" x1="287" x2="325" y1="70.2559" y2="70.2559"/><text fill="#000000" font-family="sans-serif" font-size="14" font-weight="bold" lengthAdjust="spacing" textLength="25" x="291" y="62.7422">GUI</text></g><!--cluster Controller--><g id="cluster_Controller"><path d="M103.5,371.6348 L175.5,371.6348 A3.75,3.75 0 0 1 178,374.1348 L185,396.2559 L877.5,396.2559 A2.5,2.5 0 0 1 880,398.7559 L880,563.1348 A2.5,2.5 0 0 1 877.5,565.6348 L103.5,565.6348 A2.5,2.5 0 0 1 101,563.1348 L101,374.1348 A2.5,2.5 0 0 1 103.5,371.6348 " fill="#DDDDDD" style="stroke:#000000;stroke-width:1.5;"/><line style="stroke:#000000;stroke-width:1.5;" x1="101" x2="185" y1="396.2559" y2="396.2559"/><text fill="#000000" font-family="sans-serif" font-size="14" font-weight="bold" lengthAdjust="spacing" textLength="71" x="105" y="388.7422">Controller</text></g><!--cluster Repository--><g id="cluster_Repository"><path d="M150.5,1009.6348 L227.5,1009.6348 A3.75,3.75 0 0 1 230,1012.1348 L237,1034.2559 L954.5,1034.2559 A2.5,2.5 0 0 1 957,1036.7559 L957,1577.6348 A2.5,2.5 0 0 1 954.5,1580.1348 L150.5,1580.1348 A2.5,2.5 0 0 1 148,1577.6348 L148,1012.1348 A2.5,2.5 0 0 1 150.5,1009.6348 " fill="#DDDDDD" style="stroke:#000000;stroke-width:1.5;"/><line style="stroke:#000000;stroke-width:1.5;" x1="148" x2="237" y1="1034.2559" y2="1034.2559"/><text fill="#000000" font-family="sans-serif" font-size="14" font-weight="bold" lengthAdjust="spacing" textLength="76" x="152" y="1026.7422">Repository</text></g><!--cluster Domain--><g id="cluster_Domain"><path d="M457.5,1631.1348 L510.5,1631.1348 A3.75,3.75 0 0 1 513,1633.6348 L520,1655.7559 L1235.5,1655.7559 A2.5,2.5 0 0 1 1238,1658.2559 L1238,2374.6348 A2.5,2.5 0 0 1 1235.5,2377.1348 L457.5,2377.1348 A2.5,2.5 0 0 1 455,2374.6348 L455,1633.6348 A2.5,2.5 0 0 1 457.5,1631.1348 " fill="#DDDDDD" style="stroke:#000000;stroke-width:1.5;"/><line style="stroke:#000000;stroke-width:1.5;" x1="455" x2="520" y1="1655.7559" y2="1655.7559"/><text fill="#000000" font-family="sans-serif" font-size="14" font-weight="bold" lengthAdjust="spacing" textLength="52" x="459" y="1648.2422">Domain</text></g><!--cluster Mapper--><g id="cluster_Mapper"><path d="M1131.5,399.6348 L1186.5,399.6348 A3.75,3.75 0 0 1 1189,402.1348 L1196,424.2559 L1843.5,424.2559 A2.5,2.5 0 0 1 1846,426.7559 L1846,535.1348 A2.5,2.5 0 0 1 1843.5,537.6348 L1131.5,537.6348 A2.5,2.5 0 0 1 1129,535.1348 L1129,402.1348 A2.5,2.5 0 0 1 1131.5,399.6348 " fill="#DDDDDD" style="stroke:#000000;stroke-width:1.5;"/><line style="stroke:#000000;stroke-width:1.5;" x1="1129" x2="1196" y1="424.2559" y2="424.2559"/><text fill="#000000" font-family="sans-serif" font-size="14" font-weight="bold" lengthAdjust="spacing" textLength="54" x="1133" y="416.7422">Mapper</text></g><!--cluster DTO--><g id="cluster_DTO"><path d="M1138.5,598.6348 L1168.5,598.6348 A3.75,3.75 0 0 1 1171,601.1348 L1178,623.2559 L1686.5,623.2559 A2.5,2.5 0 0 1 1689,625.7559 L1689,1392.6348 A2.5,2.5 0 0 1 1686.5,1395.1348 L1138.5,1395.1348 A2.5,2.5 0 0 1 1136,1392.6348 L1136,601.1348 A2.5,2.5 0 0 1 1138.5,598.6348 " fill="#DDDDDD" style="stroke:#000000;stroke-width:1.5;"/><line style="stroke:#000000;stroke-width:1.5;" x1="1136" x2="1178" y1="623.2559" y2="623.2559"/><text fill="#000000" font-family="sans-serif" font-size="14" font-weight="bold" lengthAdjust="spacing" textLength="29" x="1140" y="615.7422">DTO</text></g><!--class AgendaUI--><g id="elem_AgendaUI"><rect codeLine="12" fill="#F1F1F1" height="178.3477" id="AgendaUI" rx="2.5" ry="2.5" style="stroke:#181818;stroke-width:0.5;" width="246" x="580" y="82.6348"/><ellipse cx="668.25" cy="98.6348" fill="#ADD1B2" rx="11" ry="11" style="stroke:#181818;stroke-width:1.0;"/><path d="M671.0156,94.5098 Q671.1719,94.291 671.3594,94.1816 Q671.5469,94.0723 671.7656,94.0723 Q672.1406,94.0723 672.375,94.3379 Q672.6094,94.5879 672.6094,95.1973 L672.6094,96.6504 Q672.6094,97.2598 672.375,97.5254 Q672.1406,97.791 671.7656,97.791 Q671.4219,97.791 671.2188,97.5879 Q671.0156,97.4004 670.9063,96.8848 Q670.8594,96.5254 670.6719,96.3379 Q670.3438,95.9629 669.7344,95.7441 Q669.125,95.5254 668.5,95.5254 Q667.7344,95.5254 667.0938,95.8535 Q666.4688,96.1816 665.9688,96.9316 Q665.4844,97.6816 665.4844,98.7129 L665.4844,99.8066 Q665.4844,101.041 666.375,101.8691 Q667.2656,102.6816 668.8594,102.6816 Q669.7969,102.6816 670.4531,102.4316 Q670.8438,102.2754 671.2656,101.8379 Q671.5313,101.5723 671.6719,101.4941 Q671.8281,101.416 672.0313,101.416 Q672.3594,101.416 672.6094,101.6816 Q672.875,101.9316 672.875,102.2754 Q672.875,102.6191 672.5313,103.0254 Q672.0313,103.6035 671.2344,103.9316 Q670.1563,104.3848 668.8594,104.3848 Q667.3438,104.3848 666.1406,103.7598 Q665.1563,103.2598 664.4688,102.1973 Q663.7813,101.1191 663.7813,99.8379 L663.7813,98.6816 Q663.7813,97.3535 664.3906,96.2129 Q665.0156,95.0566 666.1094,94.4473 Q667.2031,93.8223 668.4375,93.8223 Q669.1719,93.8223 669.8125,93.9941 Q670.4688,94.1504 671.0156,94.5098 Z " fill="#000000"/><text fill="#000000" font-family="sans-serif" font-size="14" lengthAdjust="spacing" textLength="61" x="688.75" y="104.4316">AgendaUI</text><line style="stroke:#181818;stroke-width:0.5;" x1="581" x2="825" y1="114.6348" y2="114.6348"/><text fill="#000000" font-family="sans-serif" font-size="14" lengthAdjust="spacing" textLength="203" x="586" y="133.7422">-AgendaTaskDTO selectedTask</text><text fill="#000000" font-family="sans-serif" font-size="14" lengthAdjust="spacing" textLength="229" x="586" y="152.3633">-List&lt;VehicleDTO&gt; selectedVehicles</text><line style="stroke:#181818;stroke-width:0.5;" x1="581" x2="825" y1="159.877" y2="159.877"/><text fill="#000000" font-family="sans-serif" font-size="14" lengthAdjust="spacing" textLength="187" x="586" y="178.9844">+initialize(location, resources)</text><text fill="#000000" font-family="sans-serif" font-size="14" lengthAdjust="spacing" textLength="95" x="586" y="197.6055">-fillTaskTable()</text><text fill="#000000" font-family="sans-serif" font-size="14" lengthAdjust="spacing" textLength="133" x="586" y="216.2266">+btnAssignVehicles()</text><text fill="#000000" font-family="sans-serif" font-size="14" lengthAdjust="spacing" textLength="124" x="586" y="234.8477">-updateTableView()</text><text fill="#000000" font-family="sans-serif" font-size="14" lengthAdjust="spacing" textLength="234" x="586" y="253.4688">-validateSelectedTask(selectedTask)</text></g><!--class SelectVehiclesPopupUI--><g id="elem_SelectVehiclesPopupUI"><rect codeLine="22" fill="#F1F1F1" height="159.7266" id="SelectVehiclesPopupUI" rx="2.5" ry="2.5" style="stroke:#181818;stroke-width:0.5;" width="241" x="303.5" y="91.6348"/><ellipse cx="347.3" cy="107.6348" fill="#ADD1B2" rx="11" ry="11" style="stroke:#181818;stroke-width:1.0;"/><path d="M350.0656,103.5098 Q350.2219,103.291 350.4094,103.1816 Q350.5969,103.0723 350.8156,103.0723 Q351.1906,103.0723 351.425,103.3379 Q351.6594,103.5879 351.6594,104.1973 L351.6594,105.6504 Q351.6594,106.2598 351.425,106.5254 Q351.1906,106.791 350.8156,106.791 Q350.4719,106.791 350.2688,106.5879 Q350.0656,106.4004 349.9563,105.8848 Q349.9094,105.5254 349.7219,105.3379 Q349.3938,104.9629 348.7844,104.7441 Q348.175,104.5254 347.55,104.5254 Q346.7844,104.5254 346.1438,104.8535 Q345.5188,105.1816 345.0188,105.9316 Q344.5344,106.6816 344.5344,107.7129 L344.5344,108.8066 Q344.5344,110.041 345.425,110.8691 Q346.3156,111.6816 347.9094,111.6816 Q348.8469,111.6816 349.5031,111.4316 Q349.8938,111.2754 350.3156,110.8379 Q350.5813,110.5723 350.7219,110.4941 Q350.8781,110.416 351.0813,110.416 Q351.4094,110.416 351.6594,110.6816 Q351.925,110.9316 351.925,111.2754 Q351.925,111.6191 351.5813,112.0254 Q351.0813,112.6035 350.2844,112.9316 Q349.2063,113.3848 347.9094,113.3848 Q346.3938,113.3848 345.1906,112.7598 Q344.2063,112.2598 343.5188,111.1973 Q342.8313,110.1191 342.8313,108.8379 L342.8313,107.6816 Q342.8313,106.3535 343.4406,105.2129 Q344.0656,104.0566 345.1594,103.4473 Q346.2531,102.8223 347.4875,102.8223 Q348.2219,102.8223 348.8625,102.9941 Q349.5188,103.1504 350.0656,103.5098 Z " fill="#000000"/><text fill="#000000" font-family="sans-serif" font-size="14" lengthAdjust="spacing" textLength="145" x="367.7" y="113.4316">SelectVehiclesPopupUI</text><line style="stroke:#181818;stroke-width:0.5;" x1="304.5" x2="543.5" y1="123.6348" y2="123.6348"/><text fill="#000000" font-family="sans-serif" font-size="14" lengthAdjust="spacing" textLength="229" x="309.5" y="142.7422">-List&lt;VehicleDTO&gt; vehiclesSelected</text><line style="stroke:#181818;stroke-width:0.5;" x1="304.5" x2="543.5" y1="150.2559" y2="150.2559"/><text fill="#000000" font-family="sans-serif" font-size="14" lengthAdjust="spacing" textLength="123" x="309.5" y="169.3633">+btnSelectVehicle()</text><text fill="#000000" font-family="sans-serif" font-size="14" lengthAdjust="spacing" textLength="118" x="309.5" y="187.9844">-btnCancelAction()</text><text fill="#000000" font-family="sans-serif" font-size="14" lengthAdjust="spacing" textLength="60" x="309.5" y="206.6055">-closeUI()</text><text fill="#000000" font-family="sans-serif" font-size="14" lengthAdjust="spacing" textLength="146" x="309.5" y="225.2266">+getVehiclesSelected()</text><text fill="#000000" font-family="sans-serif" font-size="14" lengthAdjust="spacing" textLength="113" x="309.5" y="243.8477">+fillVehicleTable()</text></g><!--class AssignVehiclesToEntryAgendaController--><g id="elem_AssignVehiclesToEntryAgendaController"><rect codeLine="35" fill="#F1F1F1" height="141.1055" id="AssignVehiclesToEntryAgendaController" rx="2.5" ry="2.5" style="stroke:#181818;stroke-width:0.5;" width="474" x="117" y="408.6348"/><ellipse cx="221.75" cy="424.6348" fill="#ADD1B2" rx="11" ry="11" style="stroke:#181818;stroke-width:1.0;"/><path d="M224.5156,420.5098 Q224.6719,420.291 224.8594,420.1816 Q225.0469,420.0723 225.2656,420.0723 Q225.6406,420.0723 225.875,420.3379 Q226.1094,420.5879 226.1094,421.1973 L226.1094,422.6504 Q226.1094,423.2598 225.875,423.5254 Q225.6406,423.791 225.2656,423.791 Q224.9219,423.791 224.7188,423.5879 Q224.5156,423.4004 224.4063,422.8848 Q224.3594,422.5254 224.1719,422.3379 Q223.8438,421.9629 223.2344,421.7441 Q222.625,421.5254 222,421.5254 Q221.2344,421.5254 220.5938,421.8535 Q219.9688,422.1816 219.4688,422.9316 Q218.9844,423.6816 218.9844,424.7129 L218.9844,425.8066 Q218.9844,427.041 219.875,427.8691 Q220.7656,428.6816 222.3594,428.6816 Q223.2969,428.6816 223.9531,428.4316 Q224.3438,428.2754 224.7656,427.8379 Q225.0313,427.5723 225.1719,427.4941 Q225.3281,427.416 225.5313,427.416 Q225.8594,427.416 226.1094,427.6816 Q226.375,427.9316 226.375,428.2754 Q226.375,428.6191 226.0313,429.0254 Q225.5313,429.6035 224.7344,429.9316 Q223.6563,430.3848 222.3594,430.3848 Q220.8438,430.3848 219.6406,429.7598 Q218.6563,429.2598 217.9688,428.1973 Q217.2813,427.1191 217.2813,425.8379 L217.2813,424.6816 Q217.2813,423.3535 217.8906,422.2129 Q218.5156,421.0566 219.6094,420.4473 Q220.7031,419.8223 221.9375,419.8223 Q222.6719,419.8223 223.3125,419.9941 Q223.9688,420.1504 224.5156,420.5098 Z " fill="#000000"/><text fill="#000000" font-family="sans-serif" font-size="14" lengthAdjust="spacing" textLength="256" x="242.25" y="430.4316">AssignVehiclesToEntryAgendaController</text><line style="stroke:#181818;stroke-width:0.5;" x1="118" x2="590" y1="440.6348" y2="440.6348"/><line style="stroke:#181818;stroke-width:0.5;" x1="118" x2="590" y1="448.6348" y2="448.6348"/><text fill="#000000" font-family="sans-serif" font-size="14" lengthAdjust="spacing" textLength="274" x="123" y="467.7422">+AssignVehiclesToEntryAgendaController()</text><text fill="#000000" font-family="sans-serif" font-size="14" lengthAdjust="spacing" textLength="155" x="123" y="486.3633">+getAgendaRepository()</text><text fill="#000000" font-family="sans-serif" font-size="14" lengthAdjust="spacing" textLength="152" x="123" y="504.9844">+getVehicleRepository()</text><text fill="#000000" font-family="sans-serif" font-size="14" lengthAdjust="spacing" textLength="91" x="123" y="523.6055">+getVehicles()</text><text fill="#000000" font-family="sans-serif" font-size="14" lengthAdjust="spacing" textLength="462" x="123" y="542.2266">+assignVehiclesToTaskAgenda(agendaTaskDTO, selectedVehiclesDTO)</text></g><!--class AgendaController--><g id="elem_AgendaController"><rect codeLine="43" fill="#F1F1F1" height="66.6211" id="AgendaController" rx="2.5" ry="2.5" style="stroke:#181818;stroke-width:0.5;" width="238" x="626" y="445.6348"/><ellipse cx="685.25" cy="461.6348" fill="#ADD1B2" rx="11" ry="11" style="stroke:#181818;stroke-width:1.0;"/><path d="M688.0156,457.5098 Q688.1719,457.291 688.3594,457.1816 Q688.5469,457.0723 688.7656,457.0723 Q689.1406,457.0723 689.375,457.3379 Q689.6094,457.5879 689.6094,458.1973 L689.6094,459.6504 Q689.6094,460.2598 689.375,460.5254 Q689.1406,460.791 688.7656,460.791 Q688.4219,460.791 688.2188,460.5879 Q688.0156,460.4004 687.9063,459.8848 Q687.8594,459.5254 687.6719,459.3379 Q687.3438,458.9629 686.7344,458.7441 Q686.125,458.5254 685.5,458.5254 Q684.7344,458.5254 684.0938,458.8535 Q683.4688,459.1816 682.9688,459.9316 Q682.4844,460.6816 682.4844,461.7129 L682.4844,462.8066 Q682.4844,464.041 683.375,464.8691 Q684.2656,465.6816 685.8594,465.6816 Q686.7969,465.6816 687.4531,465.4316 Q687.8438,465.2754 688.2656,464.8379 Q688.5313,464.5723 688.6719,464.4941 Q688.8281,464.416 689.0313,464.416 Q689.3594,464.416 689.6094,464.6816 Q689.875,464.9316 689.875,465.2754 Q689.875,465.6191 689.5313,466.0254 Q689.0313,466.6035 688.2344,466.9316 Q687.1563,467.3848 685.8594,467.3848 Q684.3438,467.3848 683.1406,466.7598 Q682.1563,466.2598 681.4688,465.1973 Q680.7813,464.1191 680.7813,462.8379 L680.7813,461.6816 Q680.7813,460.3535 681.3906,459.2129 Q682.0156,458.0566 683.1094,457.4473 Q684.2031,456.8223 685.4375,456.8223 Q686.1719,456.8223 686.8125,456.9941 Q687.4688,457.1504 688.0156,457.5098 Z " fill="#000000"/><text fill="#000000" font-family="sans-serif" font-size="14" lengthAdjust="spacing" textLength="111" x="705.75" y="467.4316">AgendaController</text><line style="stroke:#181818;stroke-width:0.5;" x1="627" x2="863" y1="477.6348" y2="477.6348"/><line style="stroke:#181818;stroke-width:0.5;" x1="627" x2="863" y1="485.6348" y2="485.6348"/><text fill="#000000" font-family="sans-serif" font-size="14" lengthAdjust="spacing" textLength="226" x="632" y="504.7422">+getAgendaTaskDTOManagerList()</text></g><!--class VehicleRepository--><g id="elem_VehicleRepository"><rect codeLine="52" fill="#F1F1F1" height="103.8633" id="VehicleRepository" rx="2.5" ry="2.5" style="stroke:#181818;stroke-width:0.5;" width="277" x="164.5" y="1451.1348"/><ellipse cx="241.75" cy="1467.1348" fill="#ADD1B2" rx="11" ry="11" style="stroke:#181818;stroke-width:1.0;"/><path d="M244.5156,1463.0098 Q244.6719,1462.791 244.8594,1462.6816 Q245.0469,1462.5723 245.2656,1462.5723 Q245.6406,1462.5723 245.875,1462.8379 Q246.1094,1463.0879 246.1094,1463.6973 L246.1094,1465.1504 Q246.1094,1465.7598 245.875,1466.0254 Q245.6406,1466.291 245.2656,1466.291 Q244.9219,1466.291 244.7188,1466.0879 Q244.5156,1465.9004 244.4063,1465.3848 Q244.3594,1465.0254 244.1719,1464.8379 Q243.8438,1464.4629 243.2344,1464.2441 Q242.625,1464.0254 242,1464.0254 Q241.2344,1464.0254 240.5938,1464.3535 Q239.9688,1464.6816 239.4688,1465.4316 Q238.9844,1466.1816 238.9844,1467.2129 L238.9844,1468.3066 Q238.9844,1469.541 239.875,1470.3691 Q240.7656,1471.1816 242.3594,1471.1816 Q243.2969,1471.1816 243.9531,1470.9316 Q244.3438,1470.7754 244.7656,1470.3379 Q245.0313,1470.0723 245.1719,1469.9941 Q245.3281,1469.916 245.5313,1469.916 Q245.8594,1469.916 246.1094,1470.1816 Q246.375,1470.4316 246.375,1470.7754 Q246.375,1471.1191 246.0313,1471.5254 Q245.5313,1472.1035 244.7344,1472.4316 Q243.6563,1472.8848 242.3594,1472.8848 Q240.8438,1472.8848 239.6406,1472.2598 Q238.6563,1471.7598 237.9688,1470.6973 Q237.2813,1469.6191 237.2813,1468.3379 L237.2813,1467.1816 Q237.2813,1465.8535 237.8906,1464.7129 Q238.5156,1463.5566 239.6094,1462.9473 Q240.7031,1462.3223 241.9375,1462.3223 Q242.6719,1462.3223 243.3125,1462.4941 Q243.9688,1462.6504 244.5156,1463.0098 Z " fill="#000000"/><text fill="#000000" font-family="sans-serif" font-size="14" lengthAdjust="spacing" textLength="114" x="262.25" y="1472.9316">VehicleRepository</text><line style="stroke:#181818;stroke-width:0.5;" x1="165.5" x2="440.5" y1="1483.1348" y2="1483.1348"/><text fill="#000000" font-family="sans-serif" font-size="14" lengthAdjust="spacing" textLength="159" x="170.5" y="1502.2422">-List&lt;Vehicle&gt; vehicleList</text><line style="stroke:#181818;stroke-width:0.5;" x1="165.5" x2="440.5" y1="1509.7559" y2="1509.7559"/><text fill="#000000" font-family="sans-serif" font-size="14" lengthAdjust="spacing" textLength="106" x="170.5" y="1528.8633">+getVehicleList()</text><text fill="#000000" font-family="sans-serif" font-size="14" lengthAdjust="spacing" textLength="265" x="170.5" y="1547.4844">+getVehicleByPlateId(vehicleDTO.plateID)</text></g><!--class AgendaRepository--><g id="elem_AgendaRepository"><rect codeLine="59" fill="#F1F1F1" height="122.4844" id="AgendaRepository" rx="2.5" ry="2.5" style="stroke:#181818;stroke-width:0.5;" width="363" x="476.5" y="1442.1348"/><ellipse cx="595.25" cy="1458.1348" fill="#ADD1B2" rx="11" ry="11" style="stroke:#181818;stroke-width:1.0;"/><path d="M598.0156,1454.0098 Q598.1719,1453.791 598.3594,1453.6816 Q598.5469,1453.5723 598.7656,1453.5723 Q599.1406,1453.5723 599.375,1453.8379 Q599.6094,1454.0879 599.6094,1454.6973 L599.6094,1456.1504 Q599.6094,1456.7598 599.375,1457.0254 Q599.1406,1457.291 598.7656,1457.291 Q598.4219,1457.291 598.2188,1457.0879 Q598.0156,1456.9004 597.9063,1456.3848 Q597.8594,1456.0254 597.6719,1455.8379 Q597.3438,1455.4629 596.7344,1455.2441 Q596.125,1455.0254 595.5,1455.0254 Q594.7344,1455.0254 594.0938,1455.3535 Q593.4688,1455.6816 592.9688,1456.4316 Q592.4844,1457.1816 592.4844,1458.2129 L592.4844,1459.3066 Q592.4844,1460.541 593.375,1461.3691 Q594.2656,1462.1816 595.8594,1462.1816 Q596.7969,1462.1816 597.4531,1461.9316 Q597.8438,1461.7754 598.2656,1461.3379 Q598.5313,1461.0723 598.6719,1460.9941 Q598.8281,1460.916 599.0313,1460.916 Q599.3594,1460.916 599.6094,1461.1816 Q599.875,1461.4316 599.875,1461.7754 Q599.875,1462.1191 599.5313,1462.5254 Q599.0313,1463.1035 598.2344,1463.4316 Q597.1563,1463.8848 595.8594,1463.8848 Q594.3438,1463.8848 593.1406,1463.2598 Q592.1563,1462.7598 591.4688,1461.6973 Q590.7813,1460.6191 590.7813,1459.3379 L590.7813,1458.1816 Q590.7813,1456.8535 591.3906,1455.7129 Q592.0156,1454.5566 593.1094,1453.9473 Q594.2031,1453.3223 595.4375,1453.3223 Q596.1719,1453.3223 596.8125,1453.4941 Q597.4688,1453.6504 598.0156,1454.0098 Z " fill="#000000"/><text fill="#000000" font-family="sans-serif" font-size="14" lengthAdjust="spacing" textLength="117" x="615.75" y="1463.9316">AgendaRepository</text><line style="stroke:#181818;stroke-width:0.5;" x1="477.5" x2="838.5" y1="1474.1348" y2="1474.1348"/><text fill="#000000" font-family="sans-serif" font-size="14" lengthAdjust="spacing" textLength="126" x="482.5" y="1493.2422">-List&lt;Task&gt; agenda</text><line style="stroke:#181818;stroke-width:0.5;" x1="477.5" x2="838.5" y1="1500.7559" y2="1500.7559"/><text fill="#000000" font-family="sans-serif" font-size="14" lengthAdjust="spacing" textLength="282" x="482.5" y="1519.8633">+getManagerSpecificAgenda(managerEmail)</text><text fill="#000000" font-family="sans-serif" font-size="14" lengthAdjust="spacing" textLength="351" x="482.5" y="1538.4844">+assignVehiclesToTaskAgenda(title, greenSpaceName,</text><text fill="#000000" font-family="sans-serif" font-size="14" lengthAdjust="spacing" textLength="200" x="482.5" y="1557.1055">executionDate, status, vehicles)</text></g><!--class Repositories--><g id="elem_Repositories"><rect codeLine="66" fill="#F1F1F1" height="122.4844" id="Repositories" rx="2.5" ry="2.5" style="stroke:#181818;stroke-width:0.5;" width="194" x="320" y="1046.6348"/><ellipse cx="373.25" cy="1062.6348" fill="#ADD1B2" rx="11" ry="11" style="stroke:#181818;stroke-width:1.0;"/><path d="M376.0156,1058.5098 Q376.1719,1058.291 376.3594,1058.1816 Q376.5469,1058.0723 376.7656,1058.0723 Q377.1406,1058.0723 377.375,1058.3379 Q377.6094,1058.5879 377.6094,1059.1973 L377.6094,1060.6504 Q377.6094,1061.2598 377.375,1061.5254 Q377.1406,1061.791 376.7656,1061.791 Q376.4219,1061.791 376.2188,1061.5879 Q376.0156,1061.4004 375.9063,1060.8848 Q375.8594,1060.5254 375.6719,1060.3379 Q375.3438,1059.9629 374.7344,1059.7441 Q374.125,1059.5254 373.5,1059.5254 Q372.7344,1059.5254 372.0938,1059.8535 Q371.4688,1060.1816 370.9688,1060.9316 Q370.4844,1061.6816 370.4844,1062.7129 L370.4844,1063.8066 Q370.4844,1065.041 371.375,1065.8691 Q372.2656,1066.6816 373.8594,1066.6816 Q374.7969,1066.6816 375.4531,1066.4316 Q375.8438,1066.2754 376.2656,1065.8379 Q376.5313,1065.5723 376.6719,1065.4941 Q376.8281,1065.416 377.0313,1065.416 Q377.3594,1065.416 377.6094,1065.6816 Q377.875,1065.9316 377.875,1066.2754 Q377.875,1066.6191 377.5313,1067.0254 Q377.0313,1067.6035 376.2344,1067.9316 Q375.1563,1068.3848 373.8594,1068.3848 Q372.3438,1068.3848 371.1406,1067.7598 Q370.1563,1067.2598 369.4688,1066.1973 Q368.7813,1065.1191 368.7813,1063.8379 L368.7813,1062.6816 Q368.7813,1061.3535 369.3906,1060.2129 Q370.0156,1059.0566 371.1094,1058.4473 Q372.2031,1057.8223 373.4375,1057.8223 Q374.1719,1057.8223 374.8125,1057.9941 Q375.4688,1058.1504 376.0156,1058.5098 Z " fill="#000000"/><text fill="#000000" font-family="sans-serif" font-size="14" lengthAdjust="spacing" textLength="79" x="393.75" y="1068.4316">Repositories</text><line style="stroke:#181818;stroke-width:0.5;" x1="321" x2="513" y1="1078.6348" y2="1078.6348"/><line style="stroke:#181818;stroke-width:0.5;" x1="321" x2="513" y1="1086.6348" y2="1086.6348"/><text fill="#000000" font-family="sans-serif" font-size="14" lengthAdjust="spacing" textLength="94" x="326" y="1105.7422">-Repositories()</text><text fill="#000000" font-family="sans-serif" font-size="14" lengthAdjust="spacing" textLength="182" x="326" y="1124.3633">+getInstance() : Repositories</text><text fill="#000000" font-family="sans-serif" font-size="14" lengthAdjust="spacing" textLength="152" x="326" y="1142.9844">+getVehicleRepository()</text><text fill="#000000" font-family="sans-serif" font-size="14" lengthAdjust="spacing" textLength="155" x="326" y="1161.6055">+getAgendaRepository()</text></g><!--class ApplicationSession--><g id="elem_ApplicationSession"><rect codeLine="73" fill="#F1F1F1" height="122.4844" id="ApplicationSession" rx="2.5" ry="2.5" style="stroke:#181818;stroke-width:0.5;" width="234" x="628" y="1046.6348"/><ellipse cx="681.25" cy="1062.6348" fill="#ADD1B2" rx="11" ry="11" style="stroke:#181818;stroke-width:1.0;"/><path d="M684.0156,1058.5098 Q684.1719,1058.291 684.3594,1058.1816 Q684.5469,1058.0723 684.7656,1058.0723 Q685.1406,1058.0723 685.375,1058.3379 Q685.6094,1058.5879 685.6094,1059.1973 L685.6094,1060.6504 Q685.6094,1061.2598 685.375,1061.5254 Q685.1406,1061.791 684.7656,1061.791 Q684.4219,1061.791 684.2188,1061.5879 Q684.0156,1061.4004 683.9063,1060.8848 Q683.8594,1060.5254 683.6719,1060.3379 Q683.3438,1059.9629 682.7344,1059.7441 Q682.125,1059.5254 681.5,1059.5254 Q680.7344,1059.5254 680.0938,1059.8535 Q679.4688,1060.1816 678.9688,1060.9316 Q678.4844,1061.6816 678.4844,1062.7129 L678.4844,1063.8066 Q678.4844,1065.041 679.375,1065.8691 Q680.2656,1066.6816 681.8594,1066.6816 Q682.7969,1066.6816 683.4531,1066.4316 Q683.8438,1066.2754 684.2656,1065.8379 Q684.5313,1065.5723 684.6719,1065.4941 Q684.8281,1065.416 685.0313,1065.416 Q685.3594,1065.416 685.6094,1065.6816 Q685.875,1065.9316 685.875,1066.2754 Q685.875,1066.6191 685.5313,1067.0254 Q685.0313,1067.6035 684.2344,1067.9316 Q683.1563,1068.3848 681.8594,1068.3848 Q680.3438,1068.3848 679.1406,1067.7598 Q678.1563,1067.2598 677.4688,1066.1973 Q676.7813,1065.1191 676.7813,1063.8379 L676.7813,1062.6816 Q676.7813,1061.3535 677.3906,1060.2129 Q678.0156,1059.0566 679.1094,1058.4473 Q680.2031,1057.8223 681.4375,1057.8223 Q682.1719,1057.8223 682.8125,1057.9941 Q683.4688,1058.1504 684.0156,1058.5098 Z " fill="#000000"/><text fill="#000000" font-family="sans-serif" font-size="14" lengthAdjust="spacing" textLength="119" x="701.75" y="1068.4316">ApplicationSession</text><line style="stroke:#181818;stroke-width:0.5;" x1="629" x2="861" y1="1078.6348" y2="1078.6348"/><line style="stroke:#181818;stroke-width:0.5;" x1="629" x2="861" y1="1086.6348" y2="1086.6348"/><text fill="#000000" font-family="sans-serif" font-size="14" lengthAdjust="spacing" textLength="134" x="634" y="1105.7422">-ApplicationSession()</text><text fill="#000000" font-family="sans-serif" font-size="14" lengthAdjust="spacing" textLength="222" x="634" y="1124.3633">+getInstance() : ApplicationSession</text><text fill="#000000" font-family="sans-serif" font-size="14" lengthAdjust="spacing" textLength="196" x="634" y="1142.9844">+getAuthenticationRepository()</text><text fill="#000000" font-family="sans-serif" font-size="14" lengthAdjust="spacing" textLength="136" x="634" y="1161.6055">+getCurrentSession()</text></g><!--class UserSession--><g id="elem_UserSession"><rect codeLine="81" fill="#F1F1F1" height="66.6211" id="UserSession" rx="2.5" ry="2.5" style="stroke:#181818;stroke-width:0.5;" width="113" x="766.5" y="1284.6348"/><ellipse cx="782.4" cy="1300.6348" fill="#ADD1B2" rx="11" ry="11" style="stroke:#181818;stroke-width:1.0;"/><path d="M785.1656,1296.5098 Q785.3219,1296.291 785.5094,1296.1816 Q785.6969,1296.0723 785.9156,1296.0723 Q786.2906,1296.0723 786.525,1296.3379 Q786.7594,1296.5879 786.7594,1297.1973 L786.7594,1298.6504 Q786.7594,1299.2598 786.525,1299.5254 Q786.2906,1299.791 785.9156,1299.791 Q785.5719,1299.791 785.3688,1299.5879 Q785.1656,1299.4004 785.0563,1298.8848 Q785.0094,1298.5254 784.8219,1298.3379 Q784.4938,1297.9629 783.8844,1297.7441 Q783.275,1297.5254 782.65,1297.5254 Q781.8844,1297.5254 781.2438,1297.8535 Q780.6188,1298.1816 780.1188,1298.9316 Q779.6344,1299.6816 779.6344,1300.7129 L779.6344,1301.8066 Q779.6344,1303.041 780.525,1303.8691 Q781.4156,1304.6816 783.0094,1304.6816 Q783.9469,1304.6816 784.6031,1304.4316 Q784.9938,1304.2754 785.4156,1303.8379 Q785.6813,1303.5723 785.8219,1303.4941 Q785.9781,1303.416 786.1813,1303.416 Q786.5094,1303.416 786.7594,1303.6816 Q787.025,1303.9316 787.025,1304.2754 Q787.025,1304.6191 786.6813,1305.0254 Q786.1813,1305.6035 785.3844,1305.9316 Q784.3063,1306.3848 783.0094,1306.3848 Q781.4938,1306.3848 780.2906,1305.7598 Q779.3063,1305.2598 778.6188,1304.1973 Q777.9313,1303.1191 777.9313,1301.8379 L777.9313,1300.6816 Q777.9313,1299.3535 778.5406,1298.2129 Q779.1656,1297.0566 780.2594,1296.4473 Q781.3531,1295.8223 782.5875,1295.8223 Q783.3219,1295.8223 783.9625,1295.9941 Q784.6188,1296.1504 785.1656,1296.5098 Z " fill="#000000"/><text fill="#000000" font-family="sans-serif" font-size="14" lengthAdjust="spacing" textLength="79" x="796.6" y="1306.4316">UserSession</text><line style="stroke:#181818;stroke-width:0.5;" x1="767.5" x2="878.5" y1="1316.6348" y2="1316.6348"/><line style="stroke:#181818;stroke-width:0.5;" x1="767.5" x2="878.5" y1="1324.6348" y2="1324.6348"/><text fill="#000000" font-family="sans-serif" font-size="14" lengthAdjust="spacing" textLength="101" x="772.5" y="1343.7422">+getUserEmail()</text></g><!--class Email--><g id="elem_Email"><rect codeLine="86" fill="#F1F1F1" height="48" id="Email" rx="2.5" ry="2.5" style="stroke:#181818;stroke-width:0.5;" width="66" x="875" y="1479.1348"/><ellipse cx="890" cy="1495.1348" fill="#ADD1B2" rx="11" ry="11" style="stroke:#181818;stroke-width:1.0;"/><path d="M892.7656,1491.0098 Q892.9219,1490.791 893.1094,1490.6816 Q893.2969,1490.5723 893.5156,1490.5723 Q893.8906,1490.5723 894.125,1490.8379 Q894.3594,1491.0879 894.3594,1491.6973 L894.3594,1493.1504 Q894.3594,1493.7598 894.125,1494.0254 Q893.8906,1494.291 893.5156,1494.291 Q893.1719,1494.291 892.9688,1494.0879 Q892.7656,1493.9004 892.6563,1493.3848 Q892.6094,1493.0254 892.4219,1492.8379 Q892.0938,1492.4629 891.4844,1492.2441 Q890.875,1492.0254 890.25,1492.0254 Q889.4844,1492.0254 888.8438,1492.3535 Q888.2188,1492.6816 887.7188,1493.4316 Q887.2344,1494.1816 887.2344,1495.2129 L887.2344,1496.3066 Q887.2344,1497.541 888.125,1498.3691 Q889.0156,1499.1816 890.6094,1499.1816 Q891.5469,1499.1816 892.2031,1498.9316 Q892.5938,1498.7754 893.0156,1498.3379 Q893.2813,1498.0723 893.4219,1497.9941 Q893.5781,1497.916 893.7813,1497.916 Q894.1094,1497.916 894.3594,1498.1816 Q894.625,1498.4316 894.625,1498.7754 Q894.625,1499.1191 894.2813,1499.5254 Q893.7813,1500.1035 892.9844,1500.4316 Q891.9063,1500.8848 890.6094,1500.8848 Q889.0938,1500.8848 887.8906,1500.2598 Q886.9063,1499.7598 886.2188,1498.6973 Q885.5313,1497.6191 885.5313,1496.3379 L885.5313,1495.1816 Q885.5313,1493.8535 886.1406,1492.7129 Q886.7656,1491.5566 887.8594,1490.9473 Q888.9531,1490.3223 890.1875,1490.3223 Q890.9219,1490.3223 891.5625,1490.4941 Q892.2188,1490.6504 892.7656,1491.0098 Z " fill="#000000"/><text fill="#000000" font-family="sans-serif" font-size="14" lengthAdjust="spacing" textLength="34" x="904" y="1500.9316">Email</text><line style="stroke:#181818;stroke-width:0.5;" x1="876" x2="940" y1="1511.1348" y2="1511.1348"/><line style="stroke:#181818;stroke-width:0.5;" x1="876" x2="940" y1="1519.1348" y2="1519.1348"/></g><!--class WorkPeriod--><g id="elem_WorkPeriod"><rect codeLine="95" fill="#F1F1F1" height="159.7266" id="WorkPeriod" rx="2.5" ry="2.5" style="stroke:#181818;stroke-width:0.5;" width="143" x="606.5" y="2201.1348"/><ellipse cx="638.15" cy="2217.1348" fill="#ADD1B2" rx="11" ry="11" style="stroke:#181818;stroke-width:1.0;"/><path d="M640.9156,2213.0098 Q641.0719,2212.791 641.2594,2212.6816 Q641.4469,2212.5723 641.6656,2212.5723 Q642.0406,2212.5723 642.275,2212.8379 Q642.5094,2213.0879 642.5094,2213.6973 L642.5094,2215.1504 Q642.5094,2215.7598 642.275,2216.0254 Q642.0406,2216.291 641.6656,2216.291 Q641.3219,2216.291 641.1188,2216.0879 Q640.9156,2215.9004 640.8063,2215.3848 Q640.7594,2215.0254 640.5719,2214.8379 Q640.2438,2214.4629 639.6344,2214.2441 Q639.025,2214.0254 638.4,2214.0254 Q637.6344,2214.0254 636.9938,2214.3535 Q636.3688,2214.6816 635.8688,2215.4316 Q635.3844,2216.1816 635.3844,2217.2129 L635.3844,2218.3066 Q635.3844,2219.541 636.275,2220.3691 Q637.1656,2221.1816 638.7594,2221.1816 Q639.6969,2221.1816 640.3531,2220.9316 Q640.7438,2220.7754 641.1656,2220.3379 Q641.4313,2220.0723 641.5719,2219.9941 Q641.7281,2219.916 641.9313,2219.916 Q642.2594,2219.916 642.5094,2220.1816 Q642.775,2220.4316 642.775,2220.7754 Q642.775,2221.1191 642.4313,2221.5254 Q641.9313,2222.1035 641.1344,2222.4316 Q640.0563,2222.8848 638.7594,2222.8848 Q637.2438,2222.8848 636.0406,2222.2598 Q635.0563,2221.7598 634.3688,2220.6973 Q633.6813,2219.6191 633.6813,2218.3379 L633.6813,2217.1816 Q633.6813,2215.8535 634.2906,2214.7129 Q634.9156,2213.5566 636.0094,2212.9473 Q637.1031,2212.3223 638.3375,2212.3223 Q639.0719,2212.3223 639.7125,2212.4941 Q640.3688,2212.6504 640.9156,2213.0098 Z " fill="#000000"/><text fill="#000000" font-family="sans-serif" font-size="14" lengthAdjust="spacing" textLength="74" x="655.85" y="2222.9316">WorkPeriod</text><line style="stroke:#181818;stroke-width:0.5;" x1="607.5" x2="748.5" y1="2233.1348" y2="2233.1348"/><text fill="#000000" font-family="sans-serif" font-size="14" lengthAdjust="spacing" textLength="131" x="612.5" y="2252.2422">+Date workStartDate</text><text fill="#000000" font-family="sans-serif" font-size="14" lengthAdjust="spacing" textLength="116" x="612.5" y="2270.8633">+int workStartHour</text><text fill="#000000" font-family="sans-serif" font-size="14" lengthAdjust="spacing" textLength="108" x="612.5" y="2289.4844">+int workStartMin</text><text fill="#000000" font-family="sans-serif" font-size="14" lengthAdjust="spacing" textLength="126" x="612.5" y="2308.1055">+Date workEndDate</text><text fill="#000000" font-family="sans-serif" font-size="14" lengthAdjust="spacing" textLength="111" x="612.5" y="2326.7266">+int workEndHour</text><text fill="#000000" font-family="sans-serif" font-size="14" lengthAdjust="spacing" textLength="103" x="612.5" y="2345.3477">+int workEndMin</text><line style="stroke:#181818;stroke-width:0.5;" x1="607.5" x2="748.5" y1="2352.8613" y2="2352.8613"/></g><!--class Vehicle--><g id="elem_Vehicle"><rect codeLine="105" fill="#F1F1F1" height="178.3477" id="Vehicle" rx="2.5" ry="2.5" style="stroke:#181818;stroke-width:0.5;" width="287" x="934.5" y="1944.1348"/><ellipse cx="1050.75" cy="1960.1348" fill="#ADD1B2" rx="11" ry="11" style="stroke:#181818;stroke-width:1.0;"/><path d="M1053.5156,1956.0098 Q1053.6719,1955.791 1053.8594,1955.6816 Q1054.0469,1955.5723 1054.2656,1955.5723 Q1054.6406,1955.5723 1054.875,1955.8379 Q1055.1094,1956.0879 1055.1094,1956.6973 L1055.1094,1958.1504 Q1055.1094,1958.7598 1054.875,1959.0254 Q1054.6406,1959.291 1054.2656,1959.291 Q1053.9219,1959.291 1053.7188,1959.0879 Q1053.5156,1958.9004 1053.4063,1958.3848 Q1053.3594,1958.0254 1053.1719,1957.8379 Q1052.8438,1957.4629 1052.2344,1957.2441 Q1051.625,1957.0254 1051,1957.0254 Q1050.2344,1957.0254 1049.5938,1957.3535 Q1048.9688,1957.6816 1048.4688,1958.4316 Q1047.9844,1959.1816 1047.9844,1960.2129 L1047.9844,1961.3066 Q1047.9844,1962.541 1048.875,1963.3691 Q1049.7656,1964.1816 1051.3594,1964.1816 Q1052.2969,1964.1816 1052.9531,1963.9316 Q1053.3438,1963.7754 1053.7656,1963.3379 Q1054.0313,1963.0723 1054.1719,1962.9941 Q1054.3281,1962.916 1054.5313,1962.916 Q1054.8594,1962.916 1055.1094,1963.1816 Q1055.375,1963.4316 1055.375,1963.7754 Q1055.375,1964.1191 1055.0313,1964.5254 Q1054.5313,1965.1035 1053.7344,1965.4316 Q1052.6563,1965.8848 1051.3594,1965.8848 Q1049.8438,1965.8848 1048.6406,1965.2598 Q1047.6563,1964.7598 1046.9688,1963.6973 Q1046.2813,1962.6191 1046.2813,1961.3379 L1046.2813,1960.1816 Q1046.2813,1958.8535 1046.8906,1957.7129 Q1047.5156,1956.5566 1048.6094,1955.9473 Q1049.7031,1955.3223 1050.9375,1955.3223 Q1051.6719,1955.3223 1052.3125,1955.4941 Q1052.9688,1955.6504 1053.5156,1956.0098 Z " fill="#000000"/><text fill="#000000" font-family="sans-serif" font-size="14" lengthAdjust="spacing" textLength="46" x="1071.25" y="1965.9316">Vehicle</text><line style="stroke:#181818;stroke-width:0.5;" x1="935.5" x2="1220.5" y1="1976.1348" y2="1976.1348"/><text fill="#000000" font-family="sans-serif" font-size="14" lengthAdjust="spacing" textLength="91" x="940.5" y="1995.2422">+String plateId</text><text fill="#000000" font-family="sans-serif" font-size="14" lengthAdjust="spacing" textLength="86" x="940.5" y="2013.8633">+String brand</text><text fill="#000000" font-family="sans-serif" font-size="14" lengthAdjust="spacing" textLength="87" x="940.5" y="2032.4844">+String model</text><text fill="#000000" font-family="sans-serif" font-size="14" lengthAdjust="spacing" textLength="117" x="940.5" y="2051.1055">+VehicleType type</text><text fill="#000000" font-family="sans-serif" font-size="14" lengthAdjust="spacing" textLength="80" x="940.5" y="2069.7266">+double tare</text><text fill="#000000" font-family="sans-serif" font-size="14" lengthAdjust="spacing" textLength="12" x="940.5" y="2088.3477">...</text><line style="stroke:#181818;stroke-width:0.5;" x1="935.5" x2="1220.5" y1="2095.8613" y2="2095.8613"/><text fill="#000000" font-family="sans-serif" font-size="14" lengthAdjust="spacing" textLength="275" x="940.5" y="2114.9688">+removeWorkPeriodIfExists(oldWorkPeriod)</text></g><!--class Task--><g id="elem_Task"><rect codeLine="115" fill="#F1F1F1" height="196.9688" id="Task" rx="2.5" ry="2.5" style="stroke:#181818;stroke-width:0.5;" width="310" x="503" y="1668.1348"/><ellipse cx="638.25" cy="1684.1348" fill="#ADD1B2" rx="11" ry="11" style="stroke:#181818;stroke-width:1.0;"/><path d="M641.0156,1680.0098 Q641.1719,1679.791 641.3594,1679.6816 Q641.5469,1679.5723 641.7656,1679.5723 Q642.1406,1679.5723 642.375,1679.8379 Q642.6094,1680.0879 642.6094,1680.6973 L642.6094,1682.1504 Q642.6094,1682.7598 642.375,1683.0254 Q642.1406,1683.291 641.7656,1683.291 Q641.4219,1683.291 641.2188,1683.0879 Q641.0156,1682.9004 640.9063,1682.3848 Q640.8594,1682.0254 640.6719,1681.8379 Q640.3438,1681.4629 639.7344,1681.2441 Q639.125,1681.0254 638.5,1681.0254 Q637.7344,1681.0254 637.0938,1681.3535 Q636.4688,1681.6816 635.9688,1682.4316 Q635.4844,1683.1816 635.4844,1684.2129 L635.4844,1685.3066 Q635.4844,1686.541 636.375,1687.3691 Q637.2656,1688.1816 638.8594,1688.1816 Q639.7969,1688.1816 640.4531,1687.9316 Q640.8438,1687.7754 641.2656,1687.3379 Q641.5313,1687.0723 641.6719,1686.9941 Q641.8281,1686.916 642.0313,1686.916 Q642.3594,1686.916 642.6094,1687.1816 Q642.875,1687.4316 642.875,1687.7754 Q642.875,1688.1191 642.5313,1688.5254 Q642.0313,1689.1035 641.2344,1689.4316 Q640.1563,1689.8848 638.8594,1689.8848 Q637.3438,1689.8848 636.1406,1689.2598 Q635.1563,1688.7598 634.4688,1687.6973 Q633.7813,1686.6191 633.7813,1685.3379 L633.7813,1684.1816 Q633.7813,1682.8535 634.3906,1681.7129 Q635.0156,1680.5566 636.1094,1679.9473 Q637.2031,1679.3223 638.4375,1679.3223 Q639.1719,1679.3223 639.8125,1679.4941 Q640.4688,1679.6504 641.0156,1680.0098 Z " fill="#000000"/><text fill="#000000" font-family="sans-serif" font-size="14" lengthAdjust="spacing" textLength="31" x="658.75" y="1689.9316">Task</text><line style="stroke:#181818;stroke-width:0.5;" x1="504" x2="812" y1="1700.1348" y2="1700.1348"/><text fill="#000000" font-family="sans-serif" font-size="14" lengthAdjust="spacing" textLength="72" x="509" y="1719.2422">-String title;</text><text fill="#000000" font-family="sans-serif" font-size="14" lengthAdjust="spacing" textLength="119" x="509" y="1737.8633">-String description;</text><text fill="#000000" font-family="sans-serif" font-size="14" lengthAdjust="spacing" textLength="134" x="509" y="1756.4844">-TaskType taskType;</text><text fill="#000000" font-family="sans-serif" font-size="14" lengthAdjust="spacing" textLength="91" x="509" y="1775.1055">-Status status;</text><text fill="#000000" font-family="sans-serif" font-size="14" lengthAdjust="spacing" textLength="12" x="509" y="1793.7266">...</text><line style="stroke:#181818;stroke-width:0.5;" x1="504" x2="812" y1="1801.2402" y2="1801.2402"/><text fill="#000000" font-family="sans-serif" font-size="14" lengthAdjust="spacing" textLength="298" x="509" y="1820.3477">+Task(title, description, taskType, greenSpace,</text><text fill="#000000" font-family="sans-serif" font-size="14" lengthAdjust="spacing" textLength="195" x="509" y="1838.9688">urgency, days, hours, minutes)</text><text fill="#000000" font-family="sans-serif" font-size="14" lengthAdjust="spacing" textLength="22" x="509" y="1857.5898">(...)</text></g><!--class TaskDuration--><g id="elem_TaskDuration"><rect codeLine="126" fill="#F1F1F1" height="178.3477" id="TaskDuration" rx="2.5" ry="2.5" style="stroke:#181818;stroke-width:0.5;" width="292" x="607" y="1944.1348"/><ellipse cx="706.25" cy="1960.1348" fill="#ADD1B2" rx="11" ry="11" style="stroke:#181818;stroke-width:1.0;"/><path d="M709.0156,1956.0098 Q709.1719,1955.791 709.3594,1955.6816 Q709.5469,1955.5723 709.7656,1955.5723 Q710.1406,1955.5723 710.375,1955.8379 Q710.6094,1956.0879 710.6094,1956.6973 L710.6094,1958.1504 Q710.6094,1958.7598 710.375,1959.0254 Q710.1406,1959.291 709.7656,1959.291 Q709.4219,1959.291 709.2188,1959.0879 Q709.0156,1958.9004 708.9063,1958.3848 Q708.8594,1958.0254 708.6719,1957.8379 Q708.3438,1957.4629 707.7344,1957.2441 Q707.125,1957.0254 706.5,1957.0254 Q705.7344,1957.0254 705.0938,1957.3535 Q704.4688,1957.6816 703.9688,1958.4316 Q703.4844,1959.1816 703.4844,1960.2129 L703.4844,1961.3066 Q703.4844,1962.541 704.375,1963.3691 Q705.2656,1964.1816 706.8594,1964.1816 Q707.7969,1964.1816 708.4531,1963.9316 Q708.8438,1963.7754 709.2656,1963.3379 Q709.5313,1963.0723 709.6719,1962.9941 Q709.8281,1962.916 710.0313,1962.916 Q710.3594,1962.916 710.6094,1963.1816 Q710.875,1963.4316 710.875,1963.7754 Q710.875,1964.1191 710.5313,1964.5254 Q710.0313,1965.1035 709.2344,1965.4316 Q708.1563,1965.8848 706.8594,1965.8848 Q705.3438,1965.8848 704.1406,1965.2598 Q703.1563,1964.7598 702.4688,1963.6973 Q701.7813,1962.6191 701.7813,1961.3379 L701.7813,1960.1816 Q701.7813,1958.8535 702.3906,1957.7129 Q703.0156,1956.5566 704.1094,1955.9473 Q705.2031,1955.3223 706.4375,1955.3223 Q707.1719,1955.3223 707.8125,1955.4941 Q708.4688,1955.6504 709.0156,1956.0098 Z " fill="#000000"/><text fill="#000000" font-family="sans-serif" font-size="14" lengthAdjust="spacing" textLength="85" x="726.75" y="1965.9316">TaskDuration</text><line style="stroke:#181818;stroke-width:0.5;" x1="608" x2="898" y1="1976.1348" y2="1976.1348"/><text fill="#000000" font-family="sans-serif" font-size="14" lengthAdjust="spacing" textLength="58" x="613" y="1995.2422">-int days;</text><text fill="#000000" font-family="sans-serif" font-size="14" lengthAdjust="spacing" textLength="64" x="613" y="2013.8633">-int hours;</text><text fill="#000000" font-family="sans-serif" font-size="14" lengthAdjust="spacing" textLength="77" x="613" y="2032.4844">-int minutes;</text><text fill="#000000" font-family="sans-serif" font-size="14" lengthAdjust="spacing" textLength="158" x="613" y="2051.1055">-int totalDurationMinutes;</text><line style="stroke:#181818;stroke-width:0.5;" x1="608" x2="898" y1="2058.6191" y2="2058.6191"/><text fill="#000000" font-family="sans-serif" font-size="14" lengthAdjust="spacing" textLength="234" x="613" y="2077.7266">+TaskDuration(days, hours, minutes)</text><text fill="#000000" font-family="sans-serif" font-size="14" lengthAdjust="spacing" textLength="253" x="613" y="2096.3477">+setTaskDuration(days, hours, minutes)</text><text fill="#000000" font-family="sans-serif" font-size="14" lengthAdjust="spacing" textLength="280" x="613" y="2114.9688">-validateTaskDuration(days, hours, minutes)</text></g><!--class AgendaMapper--><g id="elem_AgendaMapper"><rect codeLine="143" fill="#F1F1F1" height="85.2422" id="AgendaMapper" rx="2.5" ry="2.5" style="stroke:#181818;stroke-width:0.5;" width="442" x="1145" y="436.6348"/><ellipse cx="1313.25" cy="452.6348" fill="#ADD1B2" rx="11" ry="11" style="stroke:#181818;stroke-width:1.0;"/><path d="M1316.0156,448.5098 Q1316.1719,448.291 1316.3594,448.1816 Q1316.5469,448.0723 1316.7656,448.0723 Q1317.1406,448.0723 1317.375,448.3379 Q1317.6094,448.5879 1317.6094,449.1973 L1317.6094,450.6504 Q1317.6094,451.2598 1317.375,451.5254 Q1317.1406,451.791 1316.7656,451.791 Q1316.4219,451.791 1316.2188,451.5879 Q1316.0156,451.4004 1315.9063,450.8848 Q1315.8594,450.5254 1315.6719,450.3379 Q1315.3438,449.9629 1314.7344,449.7441 Q1314.125,449.5254 1313.5,449.5254 Q1312.7344,449.5254 1312.0938,449.8535 Q1311.4688,450.1816 1310.9688,450.9316 Q1310.4844,451.6816 1310.4844,452.7129 L1310.4844,453.8066 Q1310.4844,455.041 1311.375,455.8691 Q1312.2656,456.6816 1313.8594,456.6816 Q1314.7969,456.6816 1315.4531,456.4316 Q1315.8438,456.2754 1316.2656,455.8379 Q1316.5313,455.5723 1316.6719,455.4941 Q1316.8281,455.416 1317.0313,455.416 Q1317.3594,455.416 1317.6094,455.6816 Q1317.875,455.9316 1317.875,456.2754 Q1317.875,456.6191 1317.5313,457.0254 Q1317.0313,457.6035 1316.2344,457.9316 Q1315.1563,458.3848 1313.8594,458.3848 Q1312.3438,458.3848 1311.1406,457.7598 Q1310.1563,457.2598 1309.4688,456.1973 Q1308.7813,455.1191 1308.7813,453.8379 L1308.7813,452.6816 Q1308.7813,451.3535 1309.3906,450.2129 Q1310.0156,449.0566 1311.1094,448.4473 Q1312.2031,447.8223 1313.4375,447.8223 Q1314.1719,447.8223 1314.8125,447.9941 Q1315.4688,448.1504 1316.0156,448.5098 Z " fill="#000000"/><text fill="#000000" font-family="sans-serif" font-size="14" lengthAdjust="spacing" textLength="97" x="1333.75" y="458.4316">AgendaMapper</text><line style="stroke:#181818;stroke-width:0.5;" x1="1146" x2="1586" y1="468.6348" y2="468.6348"/><line style="stroke:#181818;stroke-width:0.5;" x1="1146" x2="1586" y1="476.6348" y2="476.6348"/><text fill="#000000" font-family="sans-serif" font-size="14" lengthAdjust="spacing" textLength="115" x="1151" y="495.7422">+AgendaMapper()</text><text fill="#000000" font-family="sans-serif" font-size="14" lengthAdjust="spacing" textLength="430" x="1151" y="514.3633">+toDTO(agendaTask, teamDTO, List&lt;VehicleDTO&gt; vehicleDTOList)</text></g><!--class VehicleMapper--><g id="elem_VehicleMapper"><rect codeLine="149" fill="#F1F1F1" height="85.2422" id="VehicleMapper" rx="2.5" ry="2.5" style="stroke:#181818;stroke-width:0.5;" width="208" x="1622" y="436.6348"/><ellipse cx="1674.75" cy="452.6348" fill="#ADD1B2" rx="11" ry="11" style="stroke:#181818;stroke-width:1.0;"/><path d="M1677.5156,448.5098 Q1677.6719,448.291 1677.8594,448.1816 Q1678.0469,448.0723 1678.2656,448.0723 Q1678.6406,448.0723 1678.875,448.3379 Q1679.1094,448.5879 1679.1094,449.1973 L1679.1094,450.6504 Q1679.1094,451.2598 1678.875,451.5254 Q1678.6406,451.791 1678.2656,451.791 Q1677.9219,451.791 1677.7188,451.5879 Q1677.5156,451.4004 1677.4063,450.8848 Q1677.3594,450.5254 1677.1719,450.3379 Q1676.8438,449.9629 1676.2344,449.7441 Q1675.625,449.5254 1675,449.5254 Q1674.2344,449.5254 1673.5938,449.8535 Q1672.9688,450.1816 1672.4688,450.9316 Q1671.9844,451.6816 1671.9844,452.7129 L1671.9844,453.8066 Q1671.9844,455.041 1672.875,455.8691 Q1673.7656,456.6816 1675.3594,456.6816 Q1676.2969,456.6816 1676.9531,456.4316 Q1677.3438,456.2754 1677.7656,455.8379 Q1678.0313,455.5723 1678.1719,455.4941 Q1678.3281,455.416 1678.5313,455.416 Q1678.8594,455.416 1679.1094,455.6816 Q1679.375,455.9316 1679.375,456.2754 Q1679.375,456.6191 1679.0313,457.0254 Q1678.5313,457.6035 1677.7344,457.9316 Q1676.6563,458.3848 1675.3594,458.3848 Q1673.8438,458.3848 1672.6406,457.7598 Q1671.6563,457.2598 1670.9688,456.1973 Q1670.2813,455.1191 1670.2813,453.8379 L1670.2813,452.6816 Q1670.2813,451.3535 1670.8906,450.2129 Q1671.5156,449.0566 1672.6094,448.4473 Q1673.7031,447.8223 1674.9375,447.8223 Q1675.6719,447.8223 1676.3125,447.9941 Q1676.9688,448.1504 1677.5156,448.5098 Z " fill="#000000"/><text fill="#000000" font-family="sans-serif" font-size="14" lengthAdjust="spacing" textLength="94" x="1695.25" y="458.4316">VehicleMapper</text><line style="stroke:#181818;stroke-width:0.5;" x1="1623" x2="1829" y1="468.6348" y2="468.6348"/><line style="stroke:#181818;stroke-width:0.5;" x1="1623" x2="1829" y1="476.6348" y2="476.6348"/><text fill="#000000" font-family="sans-serif" font-size="14" lengthAdjust="spacing" textLength="152" x="1628" y="495.7422">+toDomain(vehicleDTO)</text><text fill="#000000" font-family="sans-serif" font-size="14" lengthAdjust="spacing" textLength="196" x="1628" y="514.3633">+toDomainList(vehicleDTOList)</text></g><!--class AgendaTaskDTO--><g id="elem_AgendaTaskDTO"><rect codeLine="158" fill="#F1F1F1" height="327.3164" id="AgendaTaskDTO" rx="2.5" ry="2.5" style="stroke:#181818;stroke-width:0.5;" width="399" x="1166.5" y="635.6348"/><ellipse cx="1306.75" cy="651.6348" fill="#ADD1B2" rx="11" ry="11" style="stroke:#181818;stroke-width:1.0;"/><path d="M1309.5156,647.5098 Q1309.6719,647.291 1309.8594,647.1816 Q1310.0469,647.0723 1310.2656,647.0723 Q1310.6406,647.0723 1310.875,647.3379 Q1311.1094,647.5879 1311.1094,648.1973 L1311.1094,649.6504 Q1311.1094,650.2598 1310.875,650.5254 Q1310.6406,650.791 1310.2656,650.791 Q1309.9219,650.791 1309.7188,650.5879 Q1309.5156,650.4004 1309.4063,649.8848 Q1309.3594,649.5254 1309.1719,649.3379 Q1308.8438,648.9629 1308.2344,648.7441 Q1307.625,648.5254 1307,648.5254 Q1306.2344,648.5254 1305.5938,648.8535 Q1304.9688,649.1816 1304.4688,649.9316 Q1303.9844,650.6816 1303.9844,651.7129 L1303.9844,652.8066 Q1303.9844,654.041 1304.875,654.8691 Q1305.7656,655.6816 1307.3594,655.6816 Q1308.2969,655.6816 1308.9531,655.4316 Q1309.3438,655.2754 1309.7656,654.8379 Q1310.0313,654.5723 1310.1719,654.4941 Q1310.3281,654.416 1310.5313,654.416 Q1310.8594,654.416 1311.1094,654.6816 Q1311.375,654.9316 1311.375,655.2754 Q1311.375,655.6191 1311.0313,656.0254 Q1310.5313,656.6035 1309.7344,656.9316 Q1308.6563,657.3848 1307.3594,657.3848 Q1305.8438,657.3848 1304.6406,656.7598 Q1303.6563,656.2598 1302.9688,655.1973 Q1302.2813,654.1191 1302.2813,652.8379 L1302.2813,651.6816 Q1302.2813,650.3535 1302.8906,649.2129 Q1303.5156,648.0566 1304.6094,647.4473 Q1305.7031,646.8223 1306.9375,646.8223 Q1307.6719,646.8223 1308.3125,646.9941 Q1308.9688,647.1504 1309.5156,647.5098 Z " fill="#000000"/><text fill="#000000" font-family="sans-serif" font-size="14" lengthAdjust="spacing" textLength="110" x="1327.25" y="657.4316">AgendaTaskDTO</text><line style="stroke:#181818;stroke-width:0.5;" x1="1167.5" x2="1564.5" y1="667.6348" y2="667.6348"/><text fill="#000000" font-family="sans-serif" font-size="14" lengthAdjust="spacing" textLength="75" x="1172.5" y="686.7422">+String title;</text><text fill="#000000" font-family="sans-serif" font-size="14" lengthAdjust="spacing" textLength="122" x="1172.5" y="705.3633">+String description;</text><text fill="#000000" font-family="sans-serif" font-size="14" lengthAdjust="spacing" textLength="137" x="1172.5" y="723.9844">+TaskType taskType;</text><text fill="#000000" font-family="sans-serif" font-size="14" lengthAdjust="spacing" textLength="166" x="1172.5" y="742.6055">+String greenSpaceName;</text><text fill="#000000" font-family="sans-serif" font-size="14" lengthAdjust="spacing" textLength="151" x="1172.5" y="761.2266">+UrgencyType urgency;</text><text fill="#000000" font-family="sans-serif" font-size="14" lengthAdjust="spacing" textLength="142" x="1172.5" y="779.8477">+int expectedDuration;</text><text fill="#000000" font-family="sans-serif" font-size="14" lengthAdjust="spacing" textLength="142" x="1172.5" y="798.4688">+String workStartDate;</text><text fill="#000000" font-family="sans-serif" font-size="14" lengthAdjust="spacing" textLength="120" x="1172.5" y="817.0898">+int workStartHour;</text><text fill="#000000" font-family="sans-serif" font-size="14" lengthAdjust="spacing" textLength="139" x="1172.5" y="835.7109">+int workStartMinutes;</text><text fill="#000000" font-family="sans-serif" font-size="14" lengthAdjust="spacing" textLength="94" x="1172.5" y="854.332">+Status status;</text><text fill="#000000" font-family="sans-serif" font-size="14" lengthAdjust="spacing" textLength="157" x="1172.5" y="872.9531">+String isTeamAssigned;</text><line style="stroke:#181818;stroke-width:0.5;" x1="1167.5" x2="1564.5" y1="880.4668" y2="880.4668"/><text fill="#000000" font-family="sans-serif" font-size="14" lengthAdjust="spacing" textLength="377" x="1172.5" y="899.5742">+AgendaTaskDTO(title, description, taskType, greenSpace,</text><text fill="#000000" font-family="sans-serif" font-size="14" lengthAdjust="spacing" textLength="369" x="1172.5" y="918.1953">urgency, expectedDuration, executionDate, workStartHour,</text><text fill="#000000" font-family="sans-serif" font-size="14" lengthAdjust="spacing" textLength="387" x="1172.5" y="936.8164">workStartMinutes, status, isTeamAssigned, vehiclesAssigned,</text><text fill="#000000" font-family="sans-serif" font-size="14" lengthAdjust="spacing" textLength="170" x="1172.5" y="955.4375">teamDTO, vehicleDTOList)</text></g><!--class CollaboratorDTO--><g id="elem_CollaboratorDTO"><rect codeLine="175" fill="#F1F1F1" height="122.4844" id="CollaboratorDTO" rx="2.5" ry="2.5" style="stroke:#181818;stroke-width:0.5;" width="213" x="1398.5" y="1257.1348"/><ellipse cx="1446.75" cy="1273.1348" fill="#ADD1B2" rx="11" ry="11" style="stroke:#181818;stroke-width:1.0;"/><path d="M1449.5156,1269.0098 Q1449.6719,1268.791 1449.8594,1268.6816 Q1450.0469,1268.5723 1450.2656,1268.5723 Q1450.6406,1268.5723 1450.875,1268.8379 Q1451.1094,1269.0879 1451.1094,1269.6973 L1451.1094,1271.1504 Q1451.1094,1271.7598 1450.875,1272.0254 Q1450.6406,1272.291 1450.2656,1272.291 Q1449.9219,1272.291 1449.7188,1272.0879 Q1449.5156,1271.9004 1449.4063,1271.3848 Q1449.3594,1271.0254 1449.1719,1270.8379 Q1448.8438,1270.4629 1448.2344,1270.2441 Q1447.625,1270.0254 1447,1270.0254 Q1446.2344,1270.0254 1445.5938,1270.3535 Q1444.9688,1270.6816 1444.4688,1271.4316 Q1443.9844,1272.1816 1443.9844,1273.2129 L1443.9844,1274.3066 Q1443.9844,1275.541 1444.875,1276.3691 Q1445.7656,1277.1816 1447.3594,1277.1816 Q1448.2969,1277.1816 1448.9531,1276.9316 Q1449.3438,1276.7754 1449.7656,1276.3379 Q1450.0313,1276.0723 1450.1719,1275.9941 Q1450.3281,1275.916 1450.5313,1275.916 Q1450.8594,1275.916 1451.1094,1276.1816 Q1451.375,1276.4316 1451.375,1276.7754 Q1451.375,1277.1191 1451.0313,1277.5254 Q1450.5313,1278.1035 1449.7344,1278.4316 Q1448.6563,1278.8848 1447.3594,1278.8848 Q1445.8438,1278.8848 1444.6406,1278.2598 Q1443.6563,1277.7598 1442.9688,1276.6973 Q1442.2813,1275.6191 1442.2813,1274.3379 L1442.2813,1273.1816 Q1442.2813,1271.8535 1442.8906,1270.7129 Q1443.5156,1269.5566 1444.6094,1268.9473 Q1445.7031,1268.3223 1446.9375,1268.3223 Q1447.6719,1268.3223 1448.3125,1268.4941 Q1448.9688,1268.6504 1449.5156,1269.0098 Z " fill="#000000"/><text fill="#000000" font-family="sans-serif" font-size="14" lengthAdjust="spacing" textLength="108" x="1467.25" y="1278.9316">CollaboratorDTO</text><line style="stroke:#181818;stroke-width:0.5;" x1="1399.5" x2="1610.5" y1="1289.1348" y2="1289.1348"/><text fill="#000000" font-family="sans-serif" font-size="14" lengthAdjust="spacing" textLength="164" x="1404.5" y="1308.2422">+String collaboratorName;</text><text fill="#000000" font-family="sans-serif" font-size="14" lengthAdjust="spacing" textLength="86" x="1404.5" y="1326.8633">+String email;</text><text fill="#000000" font-family="sans-serif" font-size="14" lengthAdjust="spacing" textLength="157" x="1404.5" y="1345.4844">+List&lt;String&gt; skillNames;</text><line style="stroke:#181818;stroke-width:0.5;" x1="1399.5" x2="1610.5" y1="1352.998" y2="1352.998"/><text fill="#000000" font-family="sans-serif" font-size="14" lengthAdjust="spacing" textLength="201" x="1404.5" y="1372.1055">+CollaboratorDTO(collaborator)</text></g><!--class TeamDTO--><g id="elem_TeamDTO"><rect codeLine="184" fill="#F1F1F1" height="85.2422" id="TeamDTO" rx="2.5" ry="2.5" style="stroke:#181818;stroke-width:0.5;" width="335" x="1337.5" y="1065.1348"/><ellipse cx="1467.75" cy="1081.1348" fill="#ADD1B2" rx="11" ry="11" style="stroke:#181818;stroke-width:1.0;"/><path d="M1470.5156,1077.0098 Q1470.6719,1076.791 1470.8594,1076.6816 Q1471.0469,1076.5723 1471.2656,1076.5723 Q1471.6406,1076.5723 1471.875,1076.8379 Q1472.1094,1077.0879 1472.1094,1077.6973 L1472.1094,1079.1504 Q1472.1094,1079.7598 1471.875,1080.0254 Q1471.6406,1080.291 1471.2656,1080.291 Q1470.9219,1080.291 1470.7188,1080.0879 Q1470.5156,1079.9004 1470.4063,1079.3848 Q1470.3594,1079.0254 1470.1719,1078.8379 Q1469.8438,1078.4629 1469.2344,1078.2441 Q1468.625,1078.0254 1468,1078.0254 Q1467.2344,1078.0254 1466.5938,1078.3535 Q1465.9688,1078.6816 1465.4688,1079.4316 Q1464.9844,1080.1816 1464.9844,1081.2129 L1464.9844,1082.3066 Q1464.9844,1083.541 1465.875,1084.3691 Q1466.7656,1085.1816 1468.3594,1085.1816 Q1469.2969,1085.1816 1469.9531,1084.9316 Q1470.3438,1084.7754 1470.7656,1084.3379 Q1471.0313,1084.0723 1471.1719,1083.9941 Q1471.3281,1083.916 1471.5313,1083.916 Q1471.8594,1083.916 1472.1094,1084.1816 Q1472.375,1084.4316 1472.375,1084.7754 Q1472.375,1085.1191 1472.0313,1085.5254 Q1471.5313,1086.1035 1470.7344,1086.4316 Q1469.6563,1086.8848 1468.3594,1086.8848 Q1466.8438,1086.8848 1465.6406,1086.2598 Q1464.6563,1085.7598 1463.9688,1084.6973 Q1463.2813,1083.6191 1463.2813,1082.3379 L1463.2813,1081.1816 Q1463.2813,1079.8535 1463.8906,1078.7129 Q1464.5156,1077.5566 1465.6094,1076.9473 Q1466.7031,1076.3223 1467.9375,1076.3223 Q1468.6719,1076.3223 1469.3125,1076.4941 Q1469.9688,1076.6504 1470.5156,1077.0098 Z " fill="#000000"/><text fill="#000000" font-family="sans-serif" font-size="14" lengthAdjust="spacing" textLength="66" x="1488.25" y="1086.9316">TeamDTO</text><line style="stroke:#181818;stroke-width:0.5;" x1="1338.5" x2="1671.5" y1="1097.1348" y2="1097.1348"/><text fill="#000000" font-family="sans-serif" font-size="14" lengthAdjust="spacing" textLength="240" x="1343.5" y="1116.2422">+List&lt;CollaboratorDTO&gt; collaborators</text><line style="stroke:#181818;stroke-width:0.5;" x1="1338.5" x2="1671.5" y1="1123.7559" y2="1123.7559"/><text fill="#000000" font-family="sans-serif" font-size="14" lengthAdjust="spacing" textLength="323" x="1343.5" y="1142.8633">+TeamDTO(List&lt;CollaboratorDTO&gt; teamMembers)</text></g><!--class VehicleDTO--><g id="elem_VehicleDTO"><rect codeLine="189" fill="#F1F1F1" height="141.1055" id="VehicleDTO" rx="2.5" ry="2.5" style="stroke:#181818;stroke-width:0.5;" width="150" x="1152" y="1037.1348"/><ellipse cx="1185.9" cy="1053.1348" fill="#ADD1B2" rx="11" ry="11" style="stroke:#181818;stroke-width:1.0;"/><path d="M1188.6656,1049.0098 Q1188.8219,1048.791 1189.0094,1048.6816 Q1189.1969,1048.5723 1189.4156,1048.5723 Q1189.7906,1048.5723 1190.025,1048.8379 Q1190.2594,1049.0879 1190.2594,1049.6973 L1190.2594,1051.1504 Q1190.2594,1051.7598 1190.025,1052.0254 Q1189.7906,1052.291 1189.4156,1052.291 Q1189.0719,1052.291 1188.8688,1052.0879 Q1188.6656,1051.9004 1188.5563,1051.3848 Q1188.5094,1051.0254 1188.3219,1050.8379 Q1187.9938,1050.4629 1187.3844,1050.2441 Q1186.775,1050.0254 1186.15,1050.0254 Q1185.3844,1050.0254 1184.7438,1050.3535 Q1184.1188,1050.6816 1183.6188,1051.4316 Q1183.1344,1052.1816 1183.1344,1053.2129 L1183.1344,1054.3066 Q1183.1344,1055.541 1184.025,1056.3691 Q1184.9156,1057.1816 1186.5094,1057.1816 Q1187.4469,1057.1816 1188.1031,1056.9316 Q1188.4938,1056.7754 1188.9156,1056.3379 Q1189.1813,1056.0723 1189.3219,1055.9941 Q1189.4781,1055.916 1189.6813,1055.916 Q1190.0094,1055.916 1190.2594,1056.1816 Q1190.525,1056.4316 1190.525,1056.7754 Q1190.525,1057.1191 1190.1813,1057.5254 Q1189.6813,1058.1035 1188.8844,1058.4316 Q1187.8063,1058.8848 1186.5094,1058.8848 Q1184.9938,1058.8848 1183.7906,1058.2598 Q1182.8063,1057.7598 1182.1188,1056.6973 Q1181.4313,1055.6191 1181.4313,1054.3379 L1181.4313,1053.1816 Q1181.4313,1051.8535 1182.0406,1050.7129 Q1182.6656,1049.5566 1183.7594,1048.9473 Q1184.8531,1048.3223 1186.0875,1048.3223 Q1186.8219,1048.3223 1187.4625,1048.4941 Q1188.1188,1048.6504 1188.6656,1049.0098 Z " fill="#000000"/><text fill="#000000" font-family="sans-serif" font-size="14" lengthAdjust="spacing" textLength="76" x="1204.1" y="1058.9316">VehicleDTO</text><line style="stroke:#181818;stroke-width:0.5;" x1="1153" x2="1301" y1="1069.1348" y2="1069.1348"/><text fill="#000000" font-family="sans-serif" font-size="14" lengthAdjust="spacing" textLength="97" x="1158" y="1088.2422">+String plateID;</text><text fill="#000000" font-family="sans-serif" font-size="14" lengthAdjust="spacing" textLength="90" x="1158" y="1106.8633">+String brand;</text><text fill="#000000" font-family="sans-serif" font-size="14" lengthAdjust="spacing" textLength="91" x="1158" y="1125.4844">+String model;</text><text fill="#000000" font-family="sans-serif" font-size="14" lengthAdjust="spacing" textLength="80" x="1158" y="1144.1055">+String type;</text><line style="stroke:#181818;stroke-width:0.5;" x1="1153" x2="1301" y1="1151.6191" y2="1151.6191"/><text fill="#000000" font-family="sans-serif" font-size="14" lengthAdjust="spacing" textLength="138" x="1158" y="1170.7266">+VehicleDTO(vehicle)</text></g><!--link AgendaUI to AgendaController--><g id="link_AgendaUI_AgendaController"><path codeLine="201" d="M715.15,260.9948 C723.65,322.8548 733.7139,396.0005 739.7039,439.6305 " fill="none" id="AgendaUI-to-AgendaController" style="stroke:#181818;stroke-width:1.0;stroke-dasharray:7.0,7.0;"/><polygon fill="#181818" points="740.52,445.5748,743.2587,436.1143,739.8399,440.6212,735.333,437.2025,740.52,445.5748" style="stroke:#181818;stroke-width:1.0;"/></g><!--reverse link SelectVehiclesPopupUI to AgendaUI--><g id="link_SelectVehiclesPopupUI_AgendaUI"><path codeLine="202" d="M550.65,171.6348 C561.68,171.6348 568.41,171.6348 579.69,171.6348 " fill="none" id="SelectVehiclesPopupUI-backto-AgendaUI" style="stroke:#181818;stroke-width:1.0;stroke-dasharray:7.0,7.0;"/><polygon fill="#181818" points="544.65,171.6348,553.65,175.6348,549.65,171.6348,553.65,167.6348,544.65,171.6348" style="stroke:#181818;stroke-width:1.0;"/></g><!--link SelectVehiclesPopupUI to AssignVehiclesToEntryAgendaController--><g id="link_SelectVehiclesPopupUI_AssignVehiclesToEntryAgendaController"><path codeLine="203" d="M405.88,251.7048 C394.76,300.2348 381.9894,355.9662 371.2994,402.6462 " fill="none" id="SelectVehiclesPopupUI-to-AssignVehiclesToEntryAgendaController" style="stroke:#181818;stroke-width:1.0;stroke-dasharray:7.0,7.0;"/><polygon fill="#181818" points="369.96,408.4948,375.8681,400.6148,371.0761,403.6209,368.07,398.829,369.96,408.4948" style="stroke:#181818;stroke-width:1.0;"/></g><!--link AgendaController to Repositories--><g id="link_AgendaController_Repositories"><path codeLine="204" d="M727.83,512.9348 C675.37,613.1448 519.4229,910.9892 451.3429,1041.0292 " fill="none" id="AgendaController-to-Repositories" style="stroke:#181818;stroke-width:1.0;stroke-dasharray:7.0,7.0;"/><polygon fill="#181818" points="448.56,1046.3448,456.2781,1040.2266,450.8791,1041.9151,449.1906,1036.5161,448.56,1046.3448" style="stroke:#181818;stroke-width:1.0;"/></g><!--link AssignVehiclesToEntryAgendaController to Repositories--><g id="link_AssignVehiclesToEntryAgendaController_Repositories"><path codeLine="205" d="M361.01,549.8748 C373.46,673.6248 398.5894,923.5849 410.3294,1040.2849 " fill="none" id="AssignVehiclesToEntryAgendaController-to-Repositories" style="stroke:#181818;stroke-width:1.0;stroke-dasharray:7.0,7.0;"/><polygon fill="#181818" points="410.93,1046.2548,414.0091,1036.8996,410.4295,1041.2799,406.0492,1037.7003,410.93,1046.2548" style="stroke:#181818;stroke-width:1.0;"/></g><!--link AgendaController to ApplicationSession--><g id="link_AgendaController_ApplicationSession"><path codeLine="206" d="M745,512.9348 C745,613.1448 745,910.3048 745,1040.3448 " fill="none" id="AgendaController-to-ApplicationSession" style="stroke:#181818;stroke-width:1.0;stroke-dasharray:7.0,7.0;"/><polygon fill="#181818" points="745,1046.3448,749,1037.3448,745,1041.3448,741,1037.3448,745,1046.3448" style="stroke:#181818;stroke-width:1.0;"/></g><!--link ApplicationSession to ApplicationSession--><g id="link_ApplicationSession_ApplicationSession"><path codeLine="207" d="M862.27,1088.2948 C882.75,1090.8748 897,1097.3248 897,1107.6348 C897,1117.9448 888.7029,1123.6448 868.2229,1126.2248 " fill="none" id="ApplicationSession-to-ApplicationSession" style="stroke:#181818;stroke-width:1.0;"/><polygon fill="#181818" points="862.27,1126.9748,871.6994,1129.8185,867.2308,1126.3498,870.6995,1121.8812,862.27,1126.9748" style="stroke:#181818;stroke-width:1.0;"/><text fill="#000000" font-family="sans-serif" font-size="13" lengthAdjust="spacing" textLength="49" x="903" y="1113.1631">instance</text></g><!--link ApplicationSession to UserSession--><g id="link_ApplicationSession_UserSession"><path codeLine="208" d="M767.46,1168.6648 C781.54,1206.3148 797.0572,1247.8053 808.6272,1278.7253 " fill="none" id="ApplicationSession-to-UserSession" style="stroke:#181818;stroke-width:1.0;"/><polygon fill="#181818" points="810.73,1284.3448,811.3222,1274.5137,808.9777,1279.6619,803.8296,1277.3174,810.73,1284.3448" style="stroke:#181818;stroke-width:1.0;"/><text fill="#000000" font-family="sans-serif" font-size="13" lengthAdjust="spacing" textLength="72" x="789" y="1223.1631">userSession</text><text fill="#000000" font-family="sans-serif" font-size="13" lengthAdjust="spacing" textLength="7" x="800.7238" y="1273.3754">1</text></g><!--link UserSession to Email--><g id="link_UserSession_Email"><path codeLine="209" d="M838.2,1351.8548 C855.2,1388.4548 879.7721,1441.3733 894.7121,1473.5333 " fill="none" id="UserSession-to-Email" style="stroke:#181818;stroke-width:1.0;stroke-dasharray:7.0,7.0;"/><polygon fill="#181818" points="897.24,1478.9748,897.0759,1469.1273,895.1334,1474.4402,889.8205,1472.4978,897.24,1478.9748" style="stroke:#181818;stroke-width:1.0;"/></g><!--link Repositories to AgendaRepository--><g id="link_Repositories_AgendaRepository"><path codeLine="210" d="M453.87,1168.8248 C499.22,1242.8848 572.6459,1362.7784 618.0059,1436.8284 " fill="none" id="Repositories-to-AgendaRepository" style="stroke:#181818;stroke-width:1.0;"/><polygon fill="#181818" points="621.14,1441.9448,619.8498,1432.1808,618.5283,1437.6811,613.0279,1436.3596,621.14,1441.9448" style="stroke:#181818;stroke-width:1.0;"/><text fill="#000000" font-family="sans-serif" font-size="13" lengthAdjust="spacing" textLength="7" x="609.4734" y="1430.904">1</text></g><!--link Repositories to VehicleRepository--><g id="link_Repositories_VehicleRepository"><path codeLine="211" d="M399.56,1168.8248 C377.2,1246.0148 340.4796,1372.7517 319.4696,1445.2717 " fill="none" id="Repositories-to-VehicleRepository" style="stroke:#181818;stroke-width:1.0;"/><polygon fill="#181818" points="317.8,1451.0348,324.1464,1443.5033,319.1914,1446.2323,316.4624,1441.2772,317.8,1451.0348" style="stroke:#181818;stroke-width:1.0;"/><text fill="#000000" font-family="sans-serif" font-size="13" lengthAdjust="spacing" textLength="7" x="312.3184" y="1439.9487">1</text></g><!--link AgendaRepository to Task--><g id="link_AgendaRepository_Task"><path codeLine="212" d="M658,1564.4548 C658,1595.1548 658,1627.2248 658,1661.9648 " fill="none" id="AgendaRepository-to-Task" style="stroke:#181818;stroke-width:1.0;"/><polygon fill="#181818" points="658,1667.9648,662,1658.9648,658,1662.9648,654,1658.9648,658,1667.9648" style="stroke:#181818;stroke-width:1.0;"/><text fill="#000000" font-family="sans-serif" font-size="13" lengthAdjust="spacing" textLength="25" x="659" y="1611.1631">task</text><text fill="#000000" font-family="sans-serif" font-size="13" lengthAdjust="spacing" textLength="7" x="650.5953" y="1586.5448">1</text></g><!--reverse link Task to TaskDuration--><g id="link_Task_TaskDuration"><path codeLine="213" d="M697.1569,1876.6682 C706.4069,1902.4182 712.28,1918.7548 721.33,1943.9748 " fill="none" id="Task-backto-TaskDuration" style="stroke:#181818;stroke-width:1.0;"/><polygon fill="#181818" points="693.1,1865.3748,691.364,1872.3738,697.1569,1876.6682,698.8929,1869.6692,693.1,1865.3748" style="stroke:#181818;stroke-width:1.0;"/><text fill="#000000" font-family="sans-serif" font-size="13" lengthAdjust="spacing" textLength="73" x="709" y="1910.1631">taskDuration</text><text fill="#000000" font-family="sans-serif" font-size="13" lengthAdjust="spacing" textLength="7" x="711.4175" y="1932.9133">1</text></g><!--reverse link Task to WorkPeriod--><g id="link_Task_WorkPeriod"><path codeLine="214" d="M576.6924,1874.7313 C545.6924,1915.5513 524,1944.1348 524,1944.1348 C524,1944.1348 524,2122.1348 524,2122.1348 C524,2122.1348 566.19,2165.4248 606.41,2206.6848 " fill="none" id="Task-backto-WorkPeriod" style="stroke:#181818;stroke-width:1.0;"/><polygon fill="#181818" points="583.95,1865.1748,577.1357,1867.5339,576.6924,1874.7313,583.5067,1872.3722,583.95,1865.1748" style="stroke:#181818;stroke-width:1.0;"/><text fill="#000000" font-family="sans-serif" font-size="13" lengthAdjust="spacing" textLength="64" x="525" y="2038.6631">workPeriod</text><text fill="#000000" font-family="sans-serif" font-size="13" lengthAdjust="spacing" textLength="7" x="591.6663" y="2195.188">1</text></g><!--link VehicleRepository to Vehicle--><g id="link_VehicleRepository_Vehicle"><path codeLine="215" d="M323.19,1555.4748 C362.4,1655.1348 445,1865.1348 445,1865.1348 C445,1865.1348 697,1914.1348 697,1914.1348 C697,1914.1348 917,1944.1348 917,1944.1348 C917,1944.1348 918.3755,1944.8864 928.9655,1950.6764 " fill="none" id="VehicleRepository-to-Vehicle" style="stroke:#181818;stroke-width:1.0;"/><polygon fill="#181818" points="934.23,1953.5548,928.2521,1945.7276,929.8429,1951.1562,924.4143,1952.7469,934.23,1953.5548" style="stroke:#181818;stroke-width:1.0;"/><text fill="#000000" font-family="sans-serif" font-size="13" lengthAdjust="spacing" textLength="39" x="446" y="1772.1631">vehicle</text><text fill="#000000" font-family="sans-serif" font-size="13" lengthAdjust="spacing" textLength="7" x="318.2241" y="1576.944">1</text></g><!--link Vehicle to WorkPeriod--><g id="link_Vehicle_WorkPeriod"><path codeLine="216" d="M934.72,2122.2548 C871.95,2160.8548 806.1711,2201.3121 754.8111,2232.8921 " fill="none" id="Vehicle-to-WorkPeriod" style="stroke:#181818;stroke-width:1.0;"/><polygon fill="#181818" points="749.7,2236.0348,759.4618,2234.7281,753.9593,2233.4159,755.2715,2227.9133,749.7,2236.0348" style="stroke:#181818;stroke-width:1.0;"/><text fill="#000000" font-family="sans-serif" font-size="13" lengthAdjust="spacing" textLength="62" x="879" y="2167.1631">workperiod</text><text fill="#000000" font-family="sans-serif" font-size="13" lengthAdjust="spacing" textLength="7" x="919.693" y="2123.6904">1</text></g><!--link AgendaController to AgendaRepository--><g id="link_AgendaController_AgendaRepository"><path codeLine="217" d="M772.22,512.6748 C840.01,593.7148 1011,798.1348 1011,798.1348 C1011,798.1348 1011,798.1348 1011,1319.1348 C1011,1319.1348 897,1403.1348 897,1403.1348 C897,1403.1348 858.6133,1419.0386 808.4233,1439.8286 " fill="none" id="AgendaController-to-AgendaRepository" style="stroke:#181818;stroke-width:1.0;stroke-dasharray:7.0,7.0;"/><polygon fill="#181818" points="802.88,1442.1248,812.7257,1442.376,807.4994,1440.2113,809.6641,1434.985,802.88,1442.1248" style="stroke:#181818;stroke-width:1.0;"/><text fill="#000000" font-family="sans-serif" font-size="13" lengthAdjust="spacing" textLength="104" x="1012" y="1113.1631">agendaRepository</text></g><!--link AssignVehiclesToEntryAgendaController to AgendaRepository--><g id="link_AssignVehiclesToEntryAgendaController_AgendaRepository"><path codeLine="218" d="M315.6,549.9248 C264.08,643.5248 179,798.1348 179,798.1348 C179,798.1348 179,798.1348 179,1319.1348 C179,1319.1348 355.565,1386.5937 495.225,1439.9437 " fill="none" id="AssignVehiclesToEntryAgendaController-to-AgendaRepository" style="stroke:#181818;stroke-width:1.0;stroke-dasharray:7.0,7.0;"/><polygon fill="#181818" points="500.83,1442.0848,493.8499,1435.1365,496.1592,1440.3005,490.9951,1442.6098,500.83,1442.0848" style="stroke:#181818;stroke-width:1.0;"/><text fill="#000000" font-family="sans-serif" font-size="13" lengthAdjust="spacing" textLength="104" x="180" y="1113.1631">agendaRepository</text></g><!--link AssignVehiclesToEntryAgendaController to VehicleRepository--><g id="link_AssignVehiclesToEntryAgendaController_VehicleRepository"><path codeLine="219" d="M216.32,549.6548 C181.12,567.4348 153,581.6348 153,581.6348 C153,581.6348 6,798.1348 6,798.1348 C6,798.1348 6,798.1348 6,1319.1348 C6,1319.1348 153,1412.1348 153,1412.1348 C153,1412.1348 178.9146,1427.6885 212.7746,1447.9985 " fill="none" id="AssignVehiclesToEntryAgendaController-to-VehicleRepository" style="stroke:#181818;stroke-width:1.0;stroke-dasharray:7.0,7.0;"/><polygon fill="#181818" points="217.92,1451.0848,212.2595,1443.0251,213.6322,1448.5128,208.1444,1449.8855,217.92,1451.0848" style="stroke:#181818;stroke-width:1.0;"/><text fill="#000000" font-family="sans-serif" font-size="13" lengthAdjust="spacing" textLength="101" x="7" y="1113.1631">vehicleRepository</text></g><!--link Repositories to Repositories--><g id="link_Repositories_Repositories"><path codeLine="220" d="M514.28,1087.7348 C534.48,1089.8248 549,1096.4648 549,1107.6348 C549,1118.8048 540.4481,1124.8273 520.2481,1126.9173 " fill="none" id="Repositories-to-Repositories" style="stroke:#181818;stroke-width:1.0;"/><polygon fill="#181818" points="514.28,1127.5348,523.6439,1130.5873,519.2535,1127.0202,522.8205,1122.6298,514.28,1127.5348" style="stroke:#181818;stroke-width:1.0;"/><text fill="#000000" font-family="sans-serif" font-size="13" lengthAdjust="spacing" textLength="49" x="555" y="1113.1631">instance</text></g><!--reverse link AgendaMapper to AgendaController--><g id="link_AgendaMapper_AgendaController"><path codeLine="221" d="M1138.77,479.1348 C1092,479.1348 952,479.1348 952,479.1348 C952,479.1348 910.23,479.1348 864.21,479.1348 " fill="none" id="AgendaMapper-backto-AgendaController" style="stroke:#181818;stroke-width:1.0;stroke-dasharray:7.0,7.0;"/><polygon fill="#181818" points="1144.77,479.1348,1135.77,475.1348,1139.77,479.1348,1135.77,483.1348,1144.77,479.1348" style="stroke:#181818;stroke-width:1.0;"/></g><!--link AgendaMapper to AgendaTaskDTO--><g id="link_AgendaMapper_AgendaTaskDTO"><path codeLine="222" d="M1366,521.7048 C1366,551.3348 1366,587.2648 1366,629.5248 " fill="none" id="AgendaMapper-to-AgendaTaskDTO" style="stroke:#181818;stroke-width:1.0;stroke-dasharray:7.0,7.0;"/><polygon fill="#181818" points="1366,635.5248,1370,626.5248,1366,630.5248,1362,626.5248,1366,635.5248" style="stroke:#181818;stroke-width:1.0;"/></g><!--link AgendaTaskDTO to TeamDTO--><g id="link_AgendaTaskDTO_TeamDTO"><path codeLine="223" d="M1439.77,962.8048 C1456.99,1000.7748 1471.3814,1032.5106 1483.6514,1059.5606 " fill="none" id="AgendaTaskDTO-to-TeamDTO" style="stroke:#181818;stroke-width:1.0;stroke-dasharray:7.0,7.0;"/><polygon fill="#181818" points="1486.13,1065.0248,1486.0549,1055.1762,1484.0645,1060.4713,1478.7694,1058.4809,1486.13,1065.0248" style="stroke:#181818;stroke-width:1.0;"/><text fill="#000000" font-family="sans-serif" font-size="13" lengthAdjust="spacing" textLength="7" x="1475.5648" y="1053.9113">1</text></g><!--link TeamDTO to CollaboratorDTO--><g id="link_TeamDTO_CollaboratorDTO"><path codeLine="224" d="M1505,1150.3248 C1505,1180.8648 1505,1216.7748 1505,1250.9448 " fill="none" id="TeamDTO-to-CollaboratorDTO" style="stroke:#181818;stroke-width:1.0;stroke-dasharray:7.0,7.0;"/><polygon fill="#181818" points="1505,1256.9448,1509,1247.9448,1505,1251.9448,1501,1247.9448,1505,1256.9448" style="stroke:#181818;stroke-width:1.0;"/><text fill="#000000" font-family="sans-serif" font-size="13" lengthAdjust="spacing" textLength="7" x="1497.4422" y="1172.5154">1</text></g><!--link AgendaTaskDTO to VehicleDTO--><g id="link_AgendaTaskDTO_VehicleDTO"><path codeLine="225" d="M1292.23,962.8048 C1280.4,988.8848 1271.2186,1009.1306 1261.0986,1031.4406 " fill="none" id="AgendaTaskDTO-to-VehicleDTO" style="stroke:#181818;stroke-width:1.0;stroke-dasharray:7.0,7.0;"/><polygon fill="#181818" points="1258.62,1036.9048,1265.9806,1030.361,1260.6855,1032.3513,1258.6951,1027.0562,1258.62,1036.9048" style="stroke:#181818;stroke-width:1.0;"/><text fill="#000000" font-family="sans-serif" font-size="13" lengthAdjust="spacing" textLength="7" x="1281.4872" y="985.172">1</text></g><!--link VehicleMapper to Vehicle--><g id="link_VehicleMapper_Vehicle"><path codeLine="226" d="M1727.83,521.7048 C1731.63,607.9048 1740,798.1348 1740,798.1348 C1740,798.1348 1740,798.1348 1740,1767.6348 C1740,1767.6348 1421.9117,1894.7286 1227.2117,1972.5186 " fill="none" id="VehicleMapper-to-Vehicle" style="stroke:#181818;stroke-width:1.0;"/><polygon fill="#181818" points="1221.64,1974.7448,1231.4817,1975.1201,1226.2831,1972.8897,1228.5135,1967.6911,1221.64,1974.7448" style="stroke:#181818;stroke-width:1.0;"/><text fill="#000000" font-family="sans-serif" font-size="13" lengthAdjust="spacing" textLength="39" x="1741" y="1323.6631">vehicle</text></g><!--SRC=[hLVBRkCs5DtpAuJf8d9Z6zCkkeW30scSjWQQDgZjwMOsjCGuH2XIeAWa7YF_takAf4WzKgEeDudkYuVtpOlgcV8IIrmaXU0YUvAY88cIDK4jfyJPCpwGZJeoaaYIASmFB1Iedd0kNYa_98-OLI67KKxKiIH9ATXHVw2B0QQGIg10AsEugcwKadHVAxBE1D_GRoJvZ1HL066t-VpZJyaikTLYoOhY0oWXP64cl-xMoVNrBuBbH2wNoNShyqjE21cxoSs1y1o3q0aby9jPmXPNpwljdqb565oHvFhR2lnEAtNzXJpHZ14GMNePIwkCt6L2ELKKCy2QCf5XHGMVWiCgKSkCL1DhxP4oferlyPwHT69rzuhVL1KzS6SpTV9rcMD5ZFGNIbuz_GLEqfnD03WDqK_Gkxjp8-DCFuYoBdVhqzZrNgoSizn2ZEnu9C2unJmZx2RJT_RqZ8cAxDR-ZWVY8JZJdgUzOfdECHh-UnlNMy6L58mHEHnU6zt8YLjn1qh79iA1WPCzzIpf47_3-ukKeg9AoEF0tJvaLfw6EqVhY3NMKnmcvBINRK0CGjj5U-g2jNRkCGUxKWTR-nOCW8aBvzoLA33baMDlpE_a_T_UwoF_zvmmb6K-nJGHzPnaCNR9FnyV6EJxEazVVBBEIqDQzHmo0a0xOvaq3WuEjixPb2IZZpIpSIWQwXsuXfqHDjETfib14i8tu3No1ox8z2idRoIhTM6i02g4Ks5LLrDVPOrb3zy3fwJoBIeaXfvPSx06bPTEagj8wCoi74ZdrezboMZJnJO4RYsuRvWzpYYclcXmUAsU25UMFGpmjfOIPDfZMdox2W8M0ZCAcce25iaQoibr5FH1rdUdnTz2FZyGIKNk3j5HJ5w1l55OAltbsxzgwRz1qn-YtrFUjNF7ym4hG1sm0LHjeRsP3Qy3ju6X2NEugOey9kubvXrI8NB2BCbrNpsHzLYsv5pKq8uJmDvGvlEvvKXIY1VIEcZzUFS6DLQbuCoM6cIKhXMVqXQ1APf5JCj9bKbQwgnm73Cm3JBxJwkYgyaMrS8Zj13DJBHr6LYTUZDXkKAfrX8A8Zk2C3v2YJv10E1FGJdi8RPGKp3VkTEgbYQ5_TrqjBI5HV1jR8K4QpKaAQ4mSzRk7J-uY-Ebu_WkOLweCsNR9U8C1JqktgFokSTbEJQDesRS2FgX6z1yhIi1tJoOV10YWWip_yRs4_XVioRzQeZF0zEcpeEnCUcmpCJfcetN3xqR_ljDtHRPgSSWooz7i_noBCkzIZnQ77FN9ArHj0cy2De6UIlD-k32sx4PTRB5M2jRZFIoDeClXqhHdqAhBOIpMRT8xdCwSjf_AjJkxJGb6hVHDK2pYxuTo376Ta1xobVkSt8y1MzX2yDx0MY417Od4RA06yRGiecUKuvcyhvXm9FZ6HPahT4sXCv9QMXxWkAjOji0FuMcE_hB29pR8AnYEgoX_N5FYZsHtJMchTV1qRHQ3CocnS1mwj2KAOg6rXxXIjU_6VmRRpvVzZRaWCl8emA9mUSH6gJgwR8yxzs0UiyEenkjQUSzL_fgFOdbqAhL9oMp8K5OrAZTsWPru7NFGV7J3v_2hGkqwlOBXHmDsEnSA5fdPpDhfRjtZeZrTbVKLJHY3f_PBwvCoq3c_-zdCysFPdJ3TvzUpWYsMmk8lVeFrCFH7Bjq047QPg0JRGH0ecUoR4mEnhXtkolxL0azS7R6_B_M-ZxmbnwDOvorKPRrZz2rk8oM0nH-15UoymB58rVpmUksOI7xrmH2ipgzgwFifDgUWg9TOZZO_m00]--></g></svg>