<?xml version="1.0" encoding="us-ascii" standalone="no"?><svg xmlns="http://www.w3.org/2000/svg" xmlns:xlink="http://www.w3.org/1999/xlink" contentStyleType="text/css" height="1057px" preserveAspectRatio="none" style="width:386px;height:1057px;background:#FFFFFF;" version="1.1" viewBox="0 0 386 1057" width="386px" zoomAndPan="magnify"><defs/><g><text fill="#000000" font-family="sans-serif" font-size="14" font-weight="bold" lengthAdjust="spacing" textLength="155" x="108.5" y="25.1074">US002 - Class Diagram</text><!--class RegisterJobController--><g id="elem_RegisterJobController"><rect codeLine="12" fill="#F1F1F1" height="122.4844" id="RegisterJobController" rx="2.5" ry="2.5" style="stroke:#181818;stroke-width:0.5;" width="254" x="100" y="304.6211"/><ellipse cx="154.25" cy="320.6211" fill="#ADD1B2" rx="11" ry="11" style="stroke:#181818;stroke-width:1.0;"/><path d="M157.0156,316.4961 Q157.1719,316.2773 157.3594,316.168 Q157.5469,316.0586 157.7656,316.0586 Q158.1406,316.0586 158.375,316.3242 Q158.6094,316.5742 158.6094,317.1836 L158.6094,318.6367 Q158.6094,319.2461 158.375,319.5117 Q158.1406,319.7773 157.7656,319.7773 Q157.4219,319.7773 157.2188,319.5742 Q157.0156,319.3867 156.9063,318.8711 Q156.8594,318.5117 156.6719,318.3242 Q156.3438,317.9492 155.7344,317.7305 Q155.125,317.5117 154.5,317.5117 Q153.7344,317.5117 153.0938,317.8398 Q152.4688,318.168 151.9688,318.918 Q151.4844,319.668 151.4844,320.6992 L151.4844,321.793 Q151.4844,323.0273 152.375,323.8555 Q153.2656,324.668 154.8594,324.668 Q155.7969,324.668 156.4531,324.418 Q156.8438,324.2617 157.2656,323.8242 Q157.5313,323.5586 157.6719,323.4805 Q157.8281,323.4023 158.0313,323.4023 Q158.3594,323.4023 158.6094,323.668 Q158.875,323.918 158.875,324.2617 Q158.875,324.6055 158.5313,325.0117 Q158.0313,325.5898 157.2344,325.918 Q156.1563,326.3711 154.8594,326.3711 Q153.3438,326.3711 152.1406,325.7461 Q151.1563,325.2461 150.4688,324.1836 Q149.7813,323.1055 149.7813,321.8242 L149.7813,320.668 Q149.7813,319.3398 150.3906,318.1992 Q151.0156,317.043 152.1094,316.4336 Q153.2031,315.8086 154.4375,315.8086 Q155.1719,315.8086 155.8125,315.9805 Q156.4688,316.1367 157.0156,316.4961 Z " fill="#000000"/><text fill="#000000" font-family="sans-serif" font-size="14" lengthAdjust="spacing" textLength="137" x="174.75" y="326.418">RegisterJobController</text><line style="stroke:#181818;stroke-width:0.5;" x1="101" x2="353" y1="336.6211" y2="336.6211"/><line style="stroke:#181818;stroke-width:0.5;" x1="101" x2="353" y1="344.6211" y2="344.6211"/><text fill="#000000" font-family="sans-serif" font-size="14" lengthAdjust="spacing" textLength="155" x="106" y="363.7285">+RegisterJobController()</text><text fill="#000000" font-family="sans-serif" font-size="14" lengthAdjust="spacing" textLength="242" x="106" y="382.3496">+RegisterJobController(jobRepository)</text><text fill="#000000" font-family="sans-serif" font-size="14" lengthAdjust="spacing" textLength="125" x="106" y="400.9707">-getJobRepository()</text><text fill="#000000" font-family="sans-serif" font-size="14" lengthAdjust="spacing" textLength="143" x="106" y="419.5918">+registerJob(jobName)</text></g><!--class RegisterJobUI--><g id="elem_RegisterJobUI"><rect codeLine="21" fill="#F1F1F1" height="196.9688" id="RegisterJobUI" rx="2.5" ry="2.5" style="stroke:#181818;stroke-width:0.5;" width="153" x="150.5" y="46.6211"/><ellipse cx="180.8" cy="62.6211" fill="#ADD1B2" rx="11" ry="11" style="stroke:#181818;stroke-width:1.0;"/><path d="M183.5656,58.4961 Q183.7219,58.2773 183.9094,58.168 Q184.0969,58.0586 184.3156,58.0586 Q184.6906,58.0586 184.925,58.3242 Q185.1594,58.5742 185.1594,59.1836 L185.1594,60.6367 Q185.1594,61.2461 184.925,61.5117 Q184.6906,61.7773 184.3156,61.7773 Q183.9719,61.7773 183.7688,61.5742 Q183.5656,61.3867 183.4563,60.8711 Q183.4094,60.5117 183.2219,60.3242 Q182.8938,59.9492 182.2844,59.7305 Q181.675,59.5117 181.05,59.5117 Q180.2844,59.5117 179.6438,59.8398 Q179.0188,60.168 178.5188,60.918 Q178.0344,61.668 178.0344,62.6992 L178.0344,63.793 Q178.0344,65.0273 178.925,65.8555 Q179.8156,66.668 181.4094,66.668 Q182.3469,66.668 183.0031,66.418 Q183.3938,66.2617 183.8156,65.8242 Q184.0813,65.5586 184.2219,65.4805 Q184.3781,65.4023 184.5813,65.4023 Q184.9094,65.4023 185.1594,65.668 Q185.425,65.918 185.425,66.2617 Q185.425,66.6055 185.0813,67.0117 Q184.5813,67.5898 183.7844,67.918 Q182.7063,68.3711 181.4094,68.3711 Q179.8938,68.3711 178.6906,67.7461 Q177.7063,67.2461 177.0188,66.1836 Q176.3313,65.1055 176.3313,63.8242 L176.3313,62.668 Q176.3313,61.3398 176.9406,60.1992 Q177.5656,59.043 178.6594,58.4336 Q179.7531,57.8086 180.9875,57.8086 Q181.7219,57.8086 182.3625,57.9805 Q183.0188,58.1367 183.5656,58.4961 Z " fill="#000000"/><text fill="#000000" font-family="sans-serif" font-size="14" lengthAdjust="spacing" textLength="87" x="198.2" y="68.418">RegisterJobUI</text><line style="stroke:#181818;stroke-width:0.5;" x1="151.5" x2="302.5" y1="78.6211" y2="78.6211"/><text fill="#000000" font-family="sans-serif" font-size="14" lengthAdjust="spacing" textLength="105" x="156.5" y="97.7285">-String jobName;</text><line style="stroke:#181818;stroke-width:0.5;" x1="151.5" x2="302.5" y1="105.2422" y2="105.2422"/><text fill="#000000" font-family="sans-serif" font-size="14" lengthAdjust="spacing" textLength="105" x="156.5" y="124.3496">+RegisterJobUI()</text><text fill="#000000" font-family="sans-serif" font-size="14" lengthAdjust="spacing" textLength="100" x="156.5" y="142.9707">+getController()</text><text fill="#000000" font-family="sans-serif" font-size="14" lengthAdjust="spacing" textLength="39" x="156.5" y="161.5918">+run()</text><text fill="#000000" font-family="sans-serif" font-size="14" lengthAdjust="spacing" textLength="86" x="156.5" y="180.2129">-submitData()</text><text fill="#000000" font-family="sans-serif" font-size="14" lengthAdjust="spacing" textLength="93" x="156.5" y="198.834">-requestData()</text><text fill="#000000" font-family="sans-serif" font-size="14" lengthAdjust="spacing" textLength="121" x="156.5" y="217.4551">-requestJobName()</text><text fill="#000000" font-family="sans-serif" font-size="14" lengthAdjust="spacing" textLength="141" x="156.5" y="236.0762">-validateJob(jobName)</text></g><!--class Repositories--><g id="elem_Repositories"><rect codeLine="34" fill="#F1F1F1" height="103.8633" id="Repositories" rx="2.5" ry="2.5" style="stroke:#181818;stroke-width:0.5;" width="194" x="7" y="505.6211"/><ellipse cx="60.25" cy="521.6211" fill="#ADD1B2" rx="11" ry="11" style="stroke:#181818;stroke-width:1.0;"/><path d="M63.0156,517.4961 Q63.1719,517.2773 63.3594,517.168 Q63.5469,517.0586 63.7656,517.0586 Q64.1406,517.0586 64.375,517.3242 Q64.6094,517.5742 64.6094,518.1836 L64.6094,519.6367 Q64.6094,520.2461 64.375,520.5117 Q64.1406,520.7773 63.7656,520.7773 Q63.4219,520.7773 63.2188,520.5742 Q63.0156,520.3867 62.9063,519.8711 Q62.8594,519.5117 62.6719,519.3242 Q62.3438,518.9492 61.7344,518.7305 Q61.125,518.5117 60.5,518.5117 Q59.7344,518.5117 59.0938,518.8398 Q58.4688,519.168 57.9688,519.918 Q57.4844,520.668 57.4844,521.6992 L57.4844,522.793 Q57.4844,524.0273 58.375,524.8555 Q59.2656,525.668 60.8594,525.668 Q61.7969,525.668 62.4531,525.418 Q62.8438,525.2617 63.2656,524.8242 Q63.5313,524.5586 63.6719,524.4805 Q63.8281,524.4023 64.0313,524.4023 Q64.3594,524.4023 64.6094,524.668 Q64.875,524.918 64.875,525.2617 Q64.875,525.6055 64.5313,526.0117 Q64.0313,526.5898 63.2344,526.918 Q62.1563,527.3711 60.8594,527.3711 Q59.3438,527.3711 58.1406,526.7461 Q57.1563,526.2461 56.4688,525.1836 Q55.7813,524.1055 55.7813,522.8242 L55.7813,521.668 Q55.7813,520.3398 56.3906,519.1992 Q57.0156,518.043 58.1094,517.4336 Q59.2031,516.8086 60.4375,516.8086 Q61.1719,516.8086 61.8125,516.9805 Q62.4688,517.1367 63.0156,517.4961 Z " fill="#000000"/><text fill="#000000" font-family="sans-serif" font-size="14" lengthAdjust="spacing" textLength="79" x="80.75" y="527.418">Repositories</text><line style="stroke:#181818;stroke-width:0.5;" x1="8" x2="200" y1="537.6211" y2="537.6211"/><line style="stroke:#181818;stroke-width:0.5;" x1="8" x2="200" y1="545.6211" y2="545.6211"/><text fill="#000000" font-family="sans-serif" font-size="14" lengthAdjust="spacing" textLength="94" x="13" y="564.7285">-Repositories()</text><text fill="#000000" font-family="sans-serif" font-size="14" lengthAdjust="spacing" textLength="182" x="13" y="583.3496">+getInstance() : Repositories</text><text fill="#000000" font-family="sans-serif" font-size="14" lengthAdjust="spacing" textLength="128" x="13" y="601.9707">+getJobRepository()</text></g><!--class jobRepository--><g id="elem_jobRepository"><rect codeLine="40" fill="#F1F1F1" height="141.1055" id="jobRepository" rx="2.5" ry="2.5" style="stroke:#181818;stroke-width:0.5;" width="155" x="149.5" y="670.6211"/><ellipse cx="180.7" cy="686.6211" fill="#ADD1B2" rx="11" ry="11" style="stroke:#181818;stroke-width:1.0;"/><path d="M183.4656,682.4961 Q183.6219,682.2773 183.8094,682.168 Q183.9969,682.0586 184.2156,682.0586 Q184.5906,682.0586 184.825,682.3242 Q185.0594,682.5742 185.0594,683.1836 L185.0594,684.6367 Q185.0594,685.2461 184.825,685.5117 Q184.5906,685.7773 184.2156,685.7773 Q183.8719,685.7773 183.6688,685.5742 Q183.4656,685.3867 183.3563,684.8711 Q183.3094,684.5117 183.1219,684.3242 Q182.7938,683.9492 182.1844,683.7305 Q181.575,683.5117 180.95,683.5117 Q180.1844,683.5117 179.5438,683.8398 Q178.9188,684.168 178.4188,684.918 Q177.9344,685.668 177.9344,686.6992 L177.9344,687.793 Q177.9344,689.0273 178.825,689.8555 Q179.7156,690.668 181.3094,690.668 Q182.2469,690.668 182.9031,690.418 Q183.2938,690.2617 183.7156,689.8242 Q183.9813,689.5586 184.1219,689.4805 Q184.2781,689.4023 184.4813,689.4023 Q184.8094,689.4023 185.0594,689.668 Q185.325,689.918 185.325,690.2617 Q185.325,690.6055 184.9813,691.0117 Q184.4813,691.5898 183.6844,691.918 Q182.6063,692.3711 181.3094,692.3711 Q179.7938,692.3711 178.5906,691.7461 Q177.6063,691.2461 176.9188,690.1836 Q176.2313,689.1055 176.2313,687.8242 L176.2313,686.668 Q176.2313,685.3398 176.8406,684.1992 Q177.4656,683.043 178.5594,682.4336 Q179.6531,681.8086 180.8875,681.8086 Q181.6219,681.8086 182.2625,681.9805 Q182.9188,682.1367 183.4656,682.4961 Z " fill="#000000"/><text fill="#000000" font-family="sans-serif" font-size="14" lengthAdjust="spacing" textLength="87" x="198.3" y="692.418">jobRepository</text><line style="stroke:#181818;stroke-width:0.5;" x1="150.5" x2="303.5" y1="702.6211" y2="702.6211"/><text fill="#000000" font-family="sans-serif" font-size="14" lengthAdjust="spacing" textLength="110" x="155.5" y="721.7285">-List&lt;Job&gt; jobList</text><line style="stroke:#181818;stroke-width:0.5;" x1="150.5" x2="303.5" y1="729.2422" y2="729.2422"/><text fill="#000000" font-family="sans-serif" font-size="14" lengthAdjust="spacing" textLength="108" x="155.5" y="748.3496">+JobRepository()</text><text fill="#000000" font-family="sans-serif" font-size="14" lengthAdjust="spacing" textLength="61" x="155.5" y="766.9707">+add(job)</text><text fill="#000000" font-family="sans-serif" font-size="14" lengthAdjust="spacing" textLength="105" x="155.5" y="785.5918">-validateJob(job)</text><text fill="#000000" font-family="sans-serif" font-size="14" lengthAdjust="spacing" textLength="143" x="155.5" y="804.2129">+registerJob(jobName)</text></g><!--class Job--><g id="elem_Job"><rect codeLine="49" fill="#F1F1F1" height="159.7266" id="Job" rx="2.5" ry="2.5" style="stroke:#181818;stroke-width:0.5;" width="162" x="146" y="890.6211"/><ellipse cx="211.75" cy="906.6211" fill="#ADD1B2" rx="11" ry="11" style="stroke:#181818;stroke-width:1.0;"/><path d="M214.5156,902.4961 Q214.6719,902.2773 214.8594,902.168 Q215.0469,902.0586 215.2656,902.0586 Q215.6406,902.0586 215.875,902.3242 Q216.1094,902.5742 216.1094,903.1836 L216.1094,904.6367 Q216.1094,905.2461 215.875,905.5117 Q215.6406,905.7773 215.2656,905.7773 Q214.9219,905.7773 214.7188,905.5742 Q214.5156,905.3867 214.4063,904.8711 Q214.3594,904.5117 214.1719,904.3242 Q213.8438,903.9492 213.2344,903.7305 Q212.625,903.5117 212,903.5117 Q211.2344,903.5117 210.5938,903.8398 Q209.9688,904.168 209.4688,904.918 Q208.9844,905.668 208.9844,906.6992 L208.9844,907.793 Q208.9844,909.0273 209.875,909.8555 Q210.7656,910.668 212.3594,910.668 Q213.2969,910.668 213.9531,910.418 Q214.3438,910.2617 214.7656,909.8242 Q215.0313,909.5586 215.1719,909.4805 Q215.3281,909.4023 215.5313,909.4023 Q215.8594,909.4023 216.1094,909.668 Q216.375,909.918 216.375,910.2617 Q216.375,910.6055 216.0313,911.0117 Q215.5313,911.5898 214.7344,911.918 Q213.6563,912.3711 212.3594,912.3711 Q210.8438,912.3711 209.6406,911.7461 Q208.6563,911.2461 207.9688,910.1836 Q207.2813,909.1055 207.2813,907.8242 L207.2813,906.668 Q207.2813,905.3398 207.8906,904.1992 Q208.5156,903.043 209.6094,902.4336 Q210.7031,901.8086 211.9375,901.8086 Q212.6719,901.8086 213.3125,901.9805 Q213.9688,902.1367 214.5156,902.4961 Z " fill="#000000"/><text fill="#000000" font-family="sans-serif" font-size="14" lengthAdjust="spacing" textLength="22" x="232.25" y="912.418">Job</text><line style="stroke:#181818;stroke-width:0.5;" x1="147" x2="307" y1="922.6211" y2="922.6211"/><text fill="#000000" font-family="sans-serif" font-size="14" lengthAdjust="spacing" textLength="101" x="152" y="941.7285">-String jobName</text><line style="stroke:#181818;stroke-width:0.5;" x1="147" x2="307" y1="949.2422" y2="949.2422"/><text fill="#000000" font-family="sans-serif" font-size="14" lengthAdjust="spacing" textLength="95" x="152" y="968.3496">+Job(jobName)</text><text fill="#000000" font-family="sans-serif" font-size="14" lengthAdjust="spacing" textLength="96" x="152" y="986.9707">+getJobName()</text><text fill="#000000" font-family="sans-serif" font-size="14" lengthAdjust="spacing" textLength="150" x="152" y="1005.5918">+setJobName(jobName)</text><text fill="#000000" font-family="sans-serif" font-size="14" lengthAdjust="spacing" textLength="52" x="152" y="1024.2129">+clone()</text><text fill="#000000" font-family="sans-serif" font-size="14" lengthAdjust="spacing" textLength="141" x="152" y="1042.834">-validateJob(jobName)</text></g><!--link Repositories to Repositories--><g id="link_Repositories_Repositories"><path codeLine="60" d="M201.28,542.7911 C221.48,544.3511 236,549.2911 236,557.6211 C236,565.9511 227.4622,570.4291 207.2622,571.9891 " fill="none" id="Repositories-to-Repositories" style="stroke:#181818;stroke-width:1.0;"/><polygon fill="#181818" points="201.28,572.4511,210.5613,575.7462,206.2652,572.0661,209.9453,567.77,201.28,572.4511" style="stroke:#181818;stroke-width:1.0;"/><text fill="#000000" font-family="sans-serif" font-size="13" lengthAdjust="spacing" textLength="49" x="242" y="563.1494">instance</text></g><!--link Repositories to jobRepository--><g id="link_Repositories_jobRepository"><path codeLine="61" d="M138.59,609.6611 C151.38,628.5311 162.7334,645.2946 176.4534,665.5346 " fill="none" id="Repositories-to-jobRepository" style="stroke:#181818;stroke-width:1.0;"/><polygon fill="#181818" points="179.82,670.5011,178.0811,660.807,177.0145,666.3624,171.4591,665.2958,179.82,670.5011" style="stroke:#181818;stroke-width:1.0;"/><text fill="#000000" font-family="sans-serif" font-size="13" lengthAdjust="spacing" textLength="7" x="167.5936" y="659.3797">1</text></g><!--link RegisterJobUI to RegisterJobController--><g id="link_RegisterJobUI_RegisterJobController"><path codeLine="62" d="M227,243.8711 C227,264.5511 227,279.7811 227,298.5711 " fill="none" id="RegisterJobUI-to-RegisterJobController" style="stroke:#181818;stroke-width:1.0;stroke-dasharray:7.0,7.0;"/><polygon fill="#181818" points="227,304.5711,231,295.5711,227,299.5711,223,295.5711,227,304.5711" style="stroke:#181818;stroke-width:1.0;"/></g><!--link RegisterJobController to Repositories--><g id="link_RegisterJobController_Repositories"><path codeLine="63" d="M188.08,426.7411 C171.68,452.0711 156.0609,476.2046 140.3409,500.4846 " fill="none" id="RegisterJobController-to-Repositories" style="stroke:#181818;stroke-width:1.0;stroke-dasharray:7.0,7.0;"/><polygon fill="#181818" points="137.08,505.5211,145.329,500.1402,139.7974,501.324,138.6136,495.7924,137.08,505.5211" style="stroke:#181818;stroke-width:1.0;"/><text fill="#000000" font-family="sans-serif" font-size="13" lengthAdjust="spacing" textLength="67" x="167" y="471.6494">repositories</text></g><!--link jobRepository to Job--><g id="link_jobRepository_Job"><path codeLine="64" d="M227,811.9211 C227,836.7411 227,858.8511 227,884.4011 " fill="none" id="jobRepository-to-Job" style="stroke:#181818;stroke-width:1.0;"/><polygon fill="#181818" points="227,890.4011,231,881.4011,227,885.4011,223,881.4011,227,890.4011" style="stroke:#181818;stroke-width:1.0;"/><text fill="#000000" font-family="sans-serif" font-size="13" lengthAdjust="spacing" textLength="17" x="228" y="856.6494">job</text><text fill="#000000" font-family="sans-serif" font-size="13" lengthAdjust="spacing" textLength="7" x="219.6555" y="833.7646">1</text><text fill="#000000" font-family="sans-serif" font-size="13" lengthAdjust="spacing" textLength="5" x="221.7695" y="879.2766">*</text></g><!--link RegisterJobController to jobRepository--><g id="link_RegisterJobController_jobRepository"><path codeLine="65" d="M257.73,426.7811 C276.92,464.3511 298,505.6211 298,505.6211 C298,505.6211 298,609.6211 298,609.6211 C298,609.6211 284.7485,633.9912 267.8585,665.0212 " fill="none" id="RegisterJobController-to-jobRepository" style="stroke:#181818;stroke-width:1.0;stroke-dasharray:7.0,7.0;"/><polygon fill="#181818" points="264.99,670.2911,272.806,664.2986,267.3804,665.8995,265.7794,660.4739,264.99,670.2911" style="stroke:#181818;stroke-width:1.0;"/><text fill="#000000" font-family="sans-serif" font-size="13" lengthAdjust="spacing" textLength="79" x="299" y="563.1494">jobRepository</text></g><!--SRC=[ZLB1Rjim3BthAmXVqZP8aVQO3W66zf9WsA51Fa2nMKUhB7eIlI8hzk-L6iUMKgsRRtvyv7jyrCGzAzDAAnjeo52vjzGWiErGZ9LMbi-onWqVD8B5agMfTKnmUrdHYp8rF4djuefM1ldG8hIa3-57J395iao25VlnsyryVWipkDVIENXGilRCQ60PyA_CLkqwnbL9PgD-8yo541EDJmnCO5MzPwXKiAh8274SzeYrSensJRjxCcn9QxIllX7yDysNBou_hVwWtIEsv1IJFHofCwYHrp4-pB3ZZD3vNJPuAVvax6rNyDeFs_XDVQuz_IvZThiQ1BnonhhjpCN9c-jsZU87oNA0BFxiq6MnzL5rW7z9hIh9c2mGDYZx3VgL5RfXWHYCZQwCy- -ezCDXaP16odcAWr0I-qdecm_aYszPXdBuEMMLFuQigh33NrRxrycEFZoQlrCaFRR5UqMnJi6Dq1cvr6J-8_ua-DbicLvY0ONgmou-KekR8irJf0_n-dgPV_mYY_RyHDx6rqsqtjNVNLmL8QpWrHEAJsQd_Oipxsy0]--></g></svg>