<?xml version="1.0" encoding="us-ascii" standalone="no"?><svg xmlns="http://www.w3.org/2000/svg" xmlns:xlink="http://www.w3.org/1999/xlink" contentStyleType="text/css" height="685px" preserveAspectRatio="none" style="width:274px;height:685px;background:#FFFFFF;" version="1.1" viewBox="0 0 274 685" width="274px" zoomAndPan="magnify"><defs/><g><text fill="#000000" font-family="sans-serif" font-size="14" font-weight="bold" lengthAdjust="spacing" textLength="155" x="52.5" y="25.1074">US002 - Class Diagram</text><!--class RegisterJobController--><g id="elem_RegisterJobController"><rect codeLine="12" fill="#F1F1F1" height="66.6211" id="RegisterJobController" rx="2.5" ry="2.5" style="stroke:#181818;stroke-width:0.5;" width="169" x="16.5" y="155.6211"/><ellipse cx="31.5" cy="171.6211" fill="#ADD1B2" rx="11" ry="11" style="stroke:#181818;stroke-width:1.0;"/><path d="M34.2656,167.4961 Q34.4219,167.2773 34.6094,167.168 Q34.7969,167.0586 35.0156,167.0586 Q35.3906,167.0586 35.625,167.3242 Q35.8594,167.5742 35.8594,168.1836 L35.8594,169.6367 Q35.8594,170.2461 35.625,170.5117 Q35.3906,170.7773 35.0156,170.7773 Q34.6719,170.7773 34.4688,170.5742 Q34.2656,170.3867 34.1563,169.8711 Q34.1094,169.5117 33.9219,169.3242 Q33.5938,168.9492 32.9844,168.7305 Q32.375,168.5117 31.75,168.5117 Q30.9844,168.5117 30.3438,168.8398 Q29.7188,169.168 29.2188,169.918 Q28.7344,170.668 28.7344,171.6992 L28.7344,172.793 Q28.7344,174.0273 29.625,174.8555 Q30.5156,175.668 32.1094,175.668 Q33.0469,175.668 33.7031,175.418 Q34.0938,175.2617 34.5156,174.8242 Q34.7813,174.5586 34.9219,174.4805 Q35.0781,174.4023 35.2813,174.4023 Q35.6094,174.4023 35.8594,174.668 Q36.125,174.918 36.125,175.2617 Q36.125,175.6055 35.7813,176.0117 Q35.2813,176.5898 34.4844,176.918 Q33.4063,177.3711 32.1094,177.3711 Q30.5938,177.3711 29.3906,176.7461 Q28.4063,176.2461 27.7188,175.1836 Q27.0313,174.1055 27.0313,172.8242 L27.0313,171.668 Q27.0313,170.3398 27.6406,169.1992 Q28.2656,168.043 29.3594,167.4336 Q30.4531,166.8086 31.6875,166.8086 Q32.4219,166.8086 33.0625,166.9805 Q33.7188,167.1367 34.2656,167.4961 Z " fill="#000000"/><text fill="#000000" font-family="sans-serif" font-size="14" lengthAdjust="spacing" textLength="137" x="45.5" y="177.418">RegisterJobController</text><line style="stroke:#181818;stroke-width:0.5;" x1="17.5" x2="184.5" y1="187.6211" y2="187.6211"/><line style="stroke:#181818;stroke-width:0.5;" x1="17.5" x2="184.5" y1="195.6211" y2="195.6211"/><text fill="#000000" font-family="sans-serif" font-size="14" lengthAdjust="spacing" textLength="80" x="22.5" y="214.7285">+createJob()</text></g><!--class RegisterJobUI--><g id="elem_RegisterJobUI"><rect codeLine="16" fill="#F1F1F1" height="48" id="RegisterJobUI" rx="2.5" ry="2.5" style="stroke:#181818;stroke-width:0.5;" width="119" x="41.5" y="46.6211"/><ellipse cx="56.5" cy="62.6211" fill="#ADD1B2" rx="11" ry="11" style="stroke:#181818;stroke-width:1.0;"/><path d="M59.2656,58.4961 Q59.4219,58.2773 59.6094,58.168 Q59.7969,58.0586 60.0156,58.0586 Q60.3906,58.0586 60.625,58.3242 Q60.8594,58.5742 60.8594,59.1836 L60.8594,60.6367 Q60.8594,61.2461 60.625,61.5117 Q60.3906,61.7773 60.0156,61.7773 Q59.6719,61.7773 59.4688,61.5742 Q59.2656,61.3867 59.1563,60.8711 Q59.1094,60.5117 58.9219,60.3242 Q58.5938,59.9492 57.9844,59.7305 Q57.375,59.5117 56.75,59.5117 Q55.9844,59.5117 55.3438,59.8398 Q54.7188,60.168 54.2188,60.918 Q53.7344,61.668 53.7344,62.6992 L53.7344,63.793 Q53.7344,65.0273 54.625,65.8555 Q55.5156,66.668 57.1094,66.668 Q58.0469,66.668 58.7031,66.418 Q59.0938,66.2617 59.5156,65.8242 Q59.7813,65.5586 59.9219,65.4805 Q60.0781,65.4023 60.2813,65.4023 Q60.6094,65.4023 60.8594,65.668 Q61.125,65.918 61.125,66.2617 Q61.125,66.6055 60.7813,67.0117 Q60.2813,67.5898 59.4844,67.918 Q58.4063,68.3711 57.1094,68.3711 Q55.5938,68.3711 54.3906,67.7461 Q53.4063,67.2461 52.7188,66.1836 Q52.0313,65.1055 52.0313,63.8242 L52.0313,62.668 Q52.0313,61.3398 52.6406,60.1992 Q53.2656,59.043 54.3594,58.4336 Q55.4531,57.8086 56.6875,57.8086 Q57.4219,57.8086 58.0625,57.9805 Q58.7188,58.1367 59.2656,58.4961 Z " fill="#000000"/><text fill="#000000" font-family="sans-serif" font-size="14" lengthAdjust="spacing" textLength="87" x="70.5" y="68.418">RegisterJobUI</text><line style="stroke:#181818;stroke-width:0.5;" x1="42.5" x2="159.5" y1="78.6211" y2="78.6211"/><line style="stroke:#181818;stroke-width:0.5;" x1="42.5" x2="159.5" y1="86.6211" y2="86.6211"/></g><!--class Repositories--><g id="elem_Repositories"><rect codeLine="20" fill="#F1F1F1" height="85.2422" id="Repositories" rx="2.5" ry="2.5" style="stroke:#181818;stroke-width:0.5;" width="140" x="31" y="301.6211"/><ellipse cx="59.05" cy="317.6211" fill="#ADD1B2" rx="11" ry="11" style="stroke:#181818;stroke-width:1.0;"/><path d="M61.8156,313.4961 Q61.9719,313.2773 62.1594,313.168 Q62.3469,313.0586 62.5656,313.0586 Q62.9406,313.0586 63.175,313.3242 Q63.4094,313.5742 63.4094,314.1836 L63.4094,315.6367 Q63.4094,316.2461 63.175,316.5117 Q62.9406,316.7773 62.5656,316.7773 Q62.2219,316.7773 62.0188,316.5742 Q61.8156,316.3867 61.7063,315.8711 Q61.6594,315.5117 61.4719,315.3242 Q61.1438,314.9492 60.5344,314.7305 Q59.925,314.5117 59.3,314.5117 Q58.5344,314.5117 57.8938,314.8398 Q57.2688,315.168 56.7688,315.918 Q56.2844,316.668 56.2844,317.6992 L56.2844,318.793 Q56.2844,320.0273 57.175,320.8555 Q58.0656,321.668 59.6594,321.668 Q60.5969,321.668 61.2531,321.418 Q61.6438,321.2617 62.0656,320.8242 Q62.3313,320.5586 62.4719,320.4805 Q62.6281,320.4023 62.8313,320.4023 Q63.1594,320.4023 63.4094,320.668 Q63.675,320.918 63.675,321.2617 Q63.675,321.6055 63.3313,322.0117 Q62.8313,322.5898 62.0344,322.918 Q60.9563,323.3711 59.6594,323.3711 Q58.1438,323.3711 56.9406,322.7461 Q55.9563,322.2461 55.2688,321.1836 Q54.5813,320.1055 54.5813,318.8242 L54.5813,317.668 Q54.5813,316.3398 55.1906,315.1992 Q55.8156,314.043 56.9094,313.4336 Q58.0031,312.8086 59.2375,312.8086 Q59.9719,312.8086 60.6125,312.9805 Q61.2688,313.1367 61.8156,313.4961 Z " fill="#000000"/><text fill="#000000" font-family="sans-serif" font-size="14" lengthAdjust="spacing" textLength="79" x="75.95" y="323.418">Repositories</text><line style="stroke:#181818;stroke-width:0.5;" x1="32" x2="170" y1="333.6211" y2="333.6211"/><line style="stroke:#181818;stroke-width:0.5;" x1="32" x2="170" y1="341.6211" y2="341.6211"/><text fill="#000000" font-family="sans-serif" font-size="14" lengthAdjust="spacing" textLength="91" x="37" y="360.7285">+getInstance()</text><text fill="#000000" font-family="sans-serif" font-size="14" lengthAdjust="spacing" textLength="128" x="37" y="379.3496">+getJobRepository()</text></g><!--class jobRepository--><g id="elem_jobRepository"><rect codeLine="25" fill="#F1F1F1" height="66.6211" id="jobRepository" rx="2.5" ry="2.5" style="stroke:#181818;stroke-width:0.5;" width="188" x="7" y="447.6211"/><ellipse cx="53.25" cy="463.6211" fill="#ADD1B2" rx="11" ry="11" style="stroke:#181818;stroke-width:1.0;"/><path d="M56.0156,459.4961 Q56.1719,459.2773 56.3594,459.168 Q56.5469,459.0586 56.7656,459.0586 Q57.1406,459.0586 57.375,459.3242 Q57.6094,459.5742 57.6094,460.1836 L57.6094,461.6367 Q57.6094,462.2461 57.375,462.5117 Q57.1406,462.7773 56.7656,462.7773 Q56.4219,462.7773 56.2188,462.5742 Q56.0156,462.3867 55.9063,461.8711 Q55.8594,461.5117 55.6719,461.3242 Q55.3438,460.9492 54.7344,460.7305 Q54.125,460.5117 53.5,460.5117 Q52.7344,460.5117 52.0938,460.8398 Q51.4688,461.168 50.9688,461.918 Q50.4844,462.668 50.4844,463.6992 L50.4844,464.793 Q50.4844,466.0273 51.375,466.8555 Q52.2656,467.668 53.8594,467.668 Q54.7969,467.668 55.4531,467.418 Q55.8438,467.2617 56.2656,466.8242 Q56.5313,466.5586 56.6719,466.4805 Q56.8281,466.4023 57.0313,466.4023 Q57.3594,466.4023 57.6094,466.668 Q57.875,466.918 57.875,467.2617 Q57.875,467.6055 57.5313,468.0117 Q57.0313,468.5898 56.2344,468.918 Q55.1563,469.3711 53.8594,469.3711 Q52.3438,469.3711 51.1406,468.7461 Q50.1563,468.2461 49.4688,467.1836 Q48.7813,466.1055 48.7813,464.8242 L48.7813,463.668 Q48.7813,462.3398 49.3906,461.1992 Q50.0156,460.043 51.1094,459.4336 Q52.2031,458.8086 53.4375,458.8086 Q54.1719,458.8086 54.8125,458.9805 Q55.4688,459.1367 56.0156,459.4961 Z " fill="#000000"/><text fill="#000000" font-family="sans-serif" font-size="14" lengthAdjust="spacing" textLength="87" x="73.75" y="469.418">jobRepository</text><line style="stroke:#181818;stroke-width:0.5;" x1="8" x2="194" y1="479.6211" y2="479.6211"/><line style="stroke:#181818;stroke-width:0.5;" x1="8" x2="194" y1="487.6211" y2="487.6211"/><text fill="#000000" font-family="sans-serif" font-size="14" lengthAdjust="spacing" textLength="176" x="13" y="506.7285">+createJob(String jobName)</text></g><!--class Job--><g id="elem_Job"><rect codeLine="29" fill="#F1F1F1" height="85.2422" id="Job" rx="2.5" ry="2.5" style="stroke:#181818;stroke-width:0.5;" width="107" x="47.5" y="593.6211"/><ellipse cx="86.35" cy="609.6211" fill="#ADD1B2" rx="11" ry="11" style="stroke:#181818;stroke-width:1.0;"/><path d="M89.1156,605.4961 Q89.2719,605.2773 89.4594,605.168 Q89.6469,605.0586 89.8656,605.0586 Q90.2406,605.0586 90.475,605.3242 Q90.7094,605.5742 90.7094,606.1836 L90.7094,607.6367 Q90.7094,608.2461 90.475,608.5117 Q90.2406,608.7773 89.8656,608.7773 Q89.5219,608.7773 89.3188,608.5742 Q89.1156,608.3867 89.0063,607.8711 Q88.9594,607.5117 88.7719,607.3242 Q88.4438,606.9492 87.8344,606.7305 Q87.225,606.5117 86.6,606.5117 Q85.8344,606.5117 85.1938,606.8398 Q84.5688,607.168 84.0688,607.918 Q83.5844,608.668 83.5844,609.6992 L83.5844,610.793 Q83.5844,612.0273 84.475,612.8555 Q85.3656,613.668 86.9594,613.668 Q87.8969,613.668 88.5531,613.418 Q88.9438,613.2617 89.3656,612.8242 Q89.6313,612.5586 89.7719,612.4805 Q89.9281,612.4023 90.1313,612.4023 Q90.4594,612.4023 90.7094,612.668 Q90.975,612.918 90.975,613.2617 Q90.975,613.6055 90.6313,614.0117 Q90.1313,614.5898 89.3344,614.918 Q88.2563,615.3711 86.9594,615.3711 Q85.4438,615.3711 84.2406,614.7461 Q83.2563,614.2461 82.5688,613.1836 Q81.8813,612.1055 81.8813,610.8242 L81.8813,609.668 Q81.8813,608.3398 82.4906,607.1992 Q83.1156,606.043 84.2094,605.4336 Q85.3031,604.8086 86.5375,604.8086 Q87.2719,604.8086 87.9125,604.9805 Q88.5688,605.1367 89.1156,605.4961 Z " fill="#000000"/><text fill="#000000" font-family="sans-serif" font-size="14" lengthAdjust="spacing" textLength="22" x="105.65" y="615.418">Job</text><line style="stroke:#181818;stroke-width:0.5;" x1="48.5" x2="153.5" y1="625.6211" y2="625.6211"/><text fill="#000000" font-family="sans-serif" font-size="14" lengthAdjust="spacing" textLength="60" x="53.5" y="644.7285">-jobName</text><line style="stroke:#181818;stroke-width:0.5;" x1="48.5" x2="153.5" y1="652.2422" y2="652.2422"/><text fill="#000000" font-family="sans-serif" font-size="14" lengthAdjust="spacing" textLength="95" x="53.5" y="671.3496">+Job(jobName)</text></g><!--link Repositories to Repositories--><g id="link_Repositories_Repositories"><path codeLine="34" d="M171.17,330.6911 C190.87,331.2811 206,335.7511 206,344.1211 C206,352.4911 196.8673,356.7815 177.1673,357.3715 " fill="none" id="Repositories-to-Repositories" style="stroke:#181818;stroke-width:1.0;"/><polygon fill="#181818" points="171.17,357.5511,180.2857,361.2799,176.1678,357.4014,180.0462,353.2835,171.17,357.5511" style="stroke:#181818;stroke-width:1.0;"/><text fill="#000000" font-family="sans-serif" font-size="13" lengthAdjust="spacing" textLength="49" x="212" y="349.6494">instance</text></g><!--link Repositories to jobRepository--><g id="link_Repositories_jobRepository"><path codeLine="35" d="M101,386.7311 C101,406.2511 101,423.1811 101,441.4311 " fill="none" id="Repositories-to-jobRepository" style="stroke:#181818;stroke-width:1.0;"/><polygon fill="#181818" points="101,447.4311,105,438.4311,101,442.4311,97,438.4311,101,447.4311" style="stroke:#181818;stroke-width:1.0;"/><text fill="#000000" font-family="sans-serif" font-size="13" lengthAdjust="spacing" textLength="7" x="93.3328" y="436.4808">1</text></g><!--link RegisterJobUI to RegisterJobController--><g id="link_RegisterJobUI_RegisterJobController"><path codeLine="36" d="M101,94.6411 C101,112.0111 101,130.0811 101,149.4511 " fill="none" id="RegisterJobUI-to-RegisterJobController" style="stroke:#181818;stroke-width:1.0;stroke-dasharray:7.0,7.0;"/><polygon fill="#181818" points="101,155.4511,105,146.4511,101,150.4511,97,146.4511,101,155.4511" style="stroke:#181818;stroke-width:1.0;"/></g><!--link RegisterJobController to Repositories--><g id="link_RegisterJobController_Repositories"><path codeLine="37" d="M101,222.9411 C101,245.9511 101,270.8811 101,295.6011 " fill="none" id="RegisterJobController-to-Repositories" style="stroke:#181818;stroke-width:1.0;stroke-dasharray:7.0,7.0;"/><polygon fill="#181818" points="101,301.6011,105,292.6011,101,296.6011,97,292.6011,101,301.6011" style="stroke:#181818;stroke-width:1.0;"/><text fill="#000000" font-family="sans-serif" font-size="13" lengthAdjust="spacing" textLength="67" x="102" y="267.6494">repositories</text></g><!--link jobRepository to Job--><g id="link_jobRepository_Job"><path codeLine="38" d="M101,514.9411 C101,537.9511 101,562.8811 101,587.6011 " fill="none" id="jobRepository-to-Job" style="stroke:#181818;stroke-width:1.0;stroke-dasharray:7.0,7.0;"/><polygon fill="#181818" points="101,593.6011,105,584.6011,101,588.6011,97,584.6011,101,593.6011" style="stroke:#181818;stroke-width:1.0;"/><text fill="#000000" font-family="sans-serif" font-size="13" lengthAdjust="spacing" textLength="20" x="102" y="559.6494">Job</text></g><!--SRC=[RP31JiCm44Jl-nMhN0f2gGf73fLGkOG31w9-WEjkNLF76zbReL3nxpWaWACcbyZxPiRZNSIJzQqAgi66FUjZu8PGmfdWdxHAdvIXMZf764YByiRbWdXKU_wmtk11kPWJPpr9rnAsxBh-08iPo44On4gAtzQhrGEMk74gHdosoYHb5gZx-PD8iBkpKANPr_QJS0K02qS7GM4CrXm5zxQlQja3365lP6mK2Y-ysx2NmCvHk02cxqu7KaA9tDp2runXM-45Ug97qdAqmi5In372a5G-fjreIY6_e-Jz4tT3-13ndeEh5dLwO5fd4hsgXZ9RWeEu7DdWx3svU5AmBDVJnezOsB5gSIqjxejfEvWkOhbSp-yIPgUZVd9zo8umkUj7dVnzn_Ghu1i0]--></g></svg>