<?xml version="1.0" encoding="UTF-8" standalone="no"?>
<svg xmlns="http://www.w3.org/2000/svg" contentStyleType="text/css" height="466px" preserveAspectRatio="none"
     style="width:668px;height:466px;background:#FFFFFF;" version="1.1" viewBox="0 0 668 466" width="668px"
     zoomAndPan="magnify"><defs/><g><text fill="#000000" font-family="sans-serif" font-size="14" font-weight="bold" lengthAdjust="spacing" textLength="351" x="157.5" y="29.5332">System Sequence Diagram (SSD) - Alternative One</text><rect fill="#FFFFFF" height="243.8125" style="stroke:#181818;stroke-width:1.0;" width="10" x="91" y="131.2188"/><rect fill="#FFFFFF" height="30.3516" style="stroke:#181818;stroke-width:1.0;" width="10" x="625" y="153.5703"/><rect fill="#FFFFFF" height="30.3516" style="stroke:#181818;stroke-width:1.0;" width="10" x="625" y="214.2734"/><rect fill="#FFFFFF" height="30.3516" style="stroke:#181818;stroke-width:1.0;" width="10" x="625" y="274.9766"/><rect fill="#FFFFFF" height="30.3516" style="stroke:#181818;stroke-width:1.0;" width="10" x="625" y="335.6797"/><line style="stroke:#181818;stroke-width:0.5;stroke-dasharray:5.0,5.0;" x1="96" x2="96" y1="121.2188" y2="384.0313"/><line style="stroke:#181818;stroke-width:0.5;stroke-dasharray:5.0,5.0;" x1="630" x2="630" y1="121.2188" y2="384.0313"/><text fill="#000000" font-family="sans-serif" font-size="14" lengthAdjust="spacing" textLength="176" x="5" y="118.1426">Human Resources Manager</text><ellipse cx="96" cy="52.1094" fill="#E3E3E3" rx="8" ry="8" style="stroke:#181818;stroke-width:0.5;"/><path d="M96,60.1094 L96,87.1094 M83,68.1094 L109,68.1094 M96,87.1094 L83,102.1094 M96,87.1094 L109,102.1094 " fill="none" style="stroke:#181818;stroke-width:0.5;"/><text fill="#000000" font-family="sans-serif" font-size="14" lengthAdjust="spacing" textLength="176" x="5" y="397.5645">Human Resources Manager</text><ellipse cx="96" cy="409.1406" fill="#E3E3E3" rx="8" ry="8" style="stroke:#181818;stroke-width:0.5;"/><path d="M96,417.1406 L96,444.1406 M83,425.1406 L109,425.1406 M96,444.1406 L83,459.1406 M96,444.1406 L109,459.1406 " fill="none" style="stroke:#181818;stroke-width:0.5;"/><rect fill="#E3E3E3" height="31.6094" rx="2.5" ry="2.5" style="stroke:#181818;stroke-width:0.5;" width="64" x="598" y="88.6094"/><text fill="#000000" font-family="sans-serif" font-size="14" lengthAdjust="spacing" textLength="50" x="605" y="110.1426">:System</text><rect fill="#E3E3E3" height="31.6094" rx="2.5" ry="2.5" style="stroke:#181818;stroke-width:0.5;" width="64" x="598" y="383.0313"/><text fill="#000000" font-family="sans-serif" font-size="14" lengthAdjust="spacing" textLength="50" x="605" y="404.5645">:System</text><rect fill="#FFFFFF" height="243.8125" style="stroke:#181818;stroke-width:1.0;" width="10" x="91" y="131.2188"/><rect fill="#FFFFFF" height="30.3516" style="stroke:#181818;stroke-width:1.0;" width="10" x="625" y="153.5703"/><rect fill="#FFFFFF" height="30.3516" style="stroke:#181818;stroke-width:1.0;" width="10" x="625" y="214.2734"/><rect fill="#FFFFFF" height="30.3516" style="stroke:#181818;stroke-width:1.0;" width="10" x="625" y="274.9766"/><rect fill="#FFFFFF" height="30.3516" style="stroke:#181818;stroke-width:1.0;" width="10" x="625" y="335.6797"/><polygon fill="#181818" points="613,149.5703,623,153.5703,613,157.5703,617,153.5703" style="stroke:#181818;stroke-width:1.0;"/><line style="stroke:#181818;stroke-width:1.0;" x1="101" x2="619" y1="153.5703" y2="153.5703"/><text fill="#000000" font-family="sans-serif" font-size="13" font-weight="bold" lengthAdjust="spacing" textLength="7" x="108" y="148.7139">1</text><text fill="#000000" font-family="sans-serif" font-size="13" lengthAdjust="spacing" textLength="220" x="119" y="148.7139">asks to assign a skill to a collaborator</text><polygon fill="#181818" points="112,179.9219,102,183.9219,112,187.9219,108,183.9219" style="stroke:#181818;stroke-width:1.0;"/><line style="stroke:#181818;stroke-width:1.0;stroke-dasharray:2.0,2.0;" x1="106" x2="629" y1="183.9219" y2="183.9219"/><text fill="#000000" font-family="sans-serif" font-size="13" font-weight="bold" lengthAdjust="spacing" textLength="7" x="118" y="179.0654">2</text><text fill="#000000" font-family="sans-serif" font-size="13" lengthAdjust="spacing" textLength="489" x="129" y="179.0654">requests data (employee ID, name, skill to be assigned, date of birth, email, contact)</text><polygon fill="#181818" points="613,210.2734,623,214.2734,613,218.2734,617,214.2734" style="stroke:#181818;stroke-width:1.0;"/><line style="stroke:#181818;stroke-width:1.0;" x1="101" x2="619" y1="214.2734" y2="214.2734"/><text fill="#000000" font-family="sans-serif" font-size="13" font-weight="bold" lengthAdjust="spacing" textLength="7" x="108" y="209.417">3</text><text fill="#000000" font-family="sans-serif" font-size="13" lengthAdjust="spacing" textLength="122" x="119" y="209.417">types requested data</text><polygon fill="#181818" points="112,240.625,102,244.625,112,248.625,108,244.625" style="stroke:#181818;stroke-width:1.0;"/><line style="stroke:#181818;stroke-width:1.0;stroke-dasharray:2.0,2.0;" x1="106" x2="629" y1="244.625" y2="244.625"/><text fill="#000000" font-family="sans-serif" font-size="13" font-weight="bold" lengthAdjust="spacing" textLength="7" x="118" y="239.7686">4</text><text fill="#000000" font-family="sans-serif" font-size="13" lengthAdjust="spacing" textLength="275" x="129" y="239.7686">shows skill category list and asks to select one</text><polygon fill="#181818" points="613,270.9766,623,274.9766,613,278.9766,617,274.9766" style="stroke:#181818;stroke-width:1.0;"/><line style="stroke:#181818;stroke-width:1.0;" x1="101" x2="619" y1="274.9766" y2="274.9766"/><text fill="#000000" font-family="sans-serif" font-size="13" font-weight="bold" lengthAdjust="spacing" textLength="7" x="108" y="270.1201">5</text><text fill="#000000" font-family="sans-serif" font-size="13" lengthAdjust="spacing" textLength="134" x="119" y="270.1201">selects a skill category</text><polygon fill="#181818" points="112,301.3281,102,305.3281,112,309.3281,108,305.3281" style="stroke:#181818;stroke-width:1.0;"/><line style="stroke:#181818;stroke-width:1.0;stroke-dasharray:2.0,2.0;" x1="106" x2="629" y1="305.3281" y2="305.3281"/><text fill="#000000" font-family="sans-serif" font-size="13" font-weight="bold" lengthAdjust="spacing" textLength="7" x="118" y="300.4717">6</text><text fill="#000000" font-family="sans-serif" font-size="13" lengthAdjust="spacing" textLength="236" x="129" y="300.4717">shows all data and requests confirmation</text><polygon fill="#181818" points="613,331.6797,623,335.6797,613,339.6797,617,335.6797" style="stroke:#181818;stroke-width:1.0;"/><line style="stroke:#181818;stroke-width:1.0;" x1="101" x2="619" y1="335.6797" y2="335.6797"/><text fill="#000000" font-family="sans-serif" font-size="13" font-weight="bold" lengthAdjust="spacing" textLength="7" x="108" y="330.8232">7</text><text fill="#000000" font-family="sans-serif" font-size="13" lengthAdjust="spacing" textLength="78" x="119" y="330.8232">confirms data</text><polygon fill="#181818" points="112,362.0313,102,366.0313,112,370.0313,108,366.0313" style="stroke:#181818;stroke-width:1.0;"/><line style="stroke:#181818;stroke-width:1.0;stroke-dasharray:2.0,2.0;" x1="106" x2="629" y1="366.0313" y2="366.0313"/><text fill="#000000" font-family="sans-serif" font-size="13" font-weight="bold" lengthAdjust="spacing" textLength="7" x="118" y="361.1748">8</text><text fill="#000000" font-family="sans-serif" font-size="13" lengthAdjust="spacing" textLength="158" x="129" y="361.1748">displays operation success</text><!--SRC=[dPB1Ri8m38RlVGgB4qZb1JXCciIaxJ1DMf_0fAP4974Nkw2-_Knfomxi0BaqQVpRNtvRZZwrc352vCJka3aIQEweaFccHNV4XYhj0q4cfvYQy3T03bZpsQS6zXY4YaAzMcZLYrA4YduwIevWwx6vX2-hQhk2DRm6fPnG_OdWAvaCE-NKnHrbsplb38ltBcA2RnBkiYE1Jqo6aXU00c-n3TmJ5KQXtlaMay9YSoqxH5otGp9_GgMRf01RqmdMBnFincH70MNxYcyI8DWxGnZ-WECGSCSPZMt8C2UUAi6undHhopnNsPXvPeMeG8sAiAJfvcDRGi98vQtOZaO2gijBE07lOUUp7agWY3wKHfFK05P3qPhkijnzelQjMJd2K3tGFFCSEV1PHcHdiePp3y6B0gPwDb8esCm0MuSV1RrAPMx2LEHvMBGiW_aNmhaTvkJUvsYZoEbXo54iJzjOUsa3zWBSKXuOG3fdqox_iFm2]--></g></svg>