<?xml version="1.0" encoding="us-ascii" standalone="no"?><svg xmlns="http://www.w3.org/2000/svg" xmlns:xlink="http://www.w3.org/1999/xlink" contentStyleType="text/css" height="527px" preserveAspectRatio="none" style="width:448px;height:527px;background:#FFFFFF;" version="1.1" viewBox="0 0 448 527" width="448px" zoomAndPan="magnify"><defs/><g><text fill="#000000" font-family="sans-serif" font-size="14" font-weight="bold" lengthAdjust="spacing" textLength="284" x="83.75" y="30.1074">US004 - System Sequence Diagram (SSD)</text><rect fill="#FFFFFF" height="301.9102" style="stroke:#181818;stroke-width:1.0;" width="10" x="33" y="133.2422"/><rect fill="#FFFFFF" height="31.291" style="stroke:#181818;stroke-width:1.0;" width="10" x="379" y="156.5332"/><rect fill="#FFFFFF" height="74.873" style="stroke:#181818;stroke-width:1.0;" width="10" x="379" y="219.1152"/><rect fill="#FFFFFF" height="38.291" style="stroke:#181818;stroke-width:1.0;" width="10" x="379" y="325.2793"/><rect fill="#FFFFFF" height="31.291" style="stroke:#181818;stroke-width:1.0;" width="10" x="379" y="394.8613"/><rect fill="none" height="99.1641" style="stroke:#000000;stroke-width:1.5;" width="432.5" x="10" y="234.1152"/><line style="stroke:#181818;stroke-width:0.5;stroke-dasharray:5.0,5.0;" x1="38" x2="38" y1="123.2422" y2="444.1523"/><line style="stroke:#181818;stroke-width:0.5;stroke-dasharray:5.0,5.0;" x1="383.5" x2="383.5" y1="123.2422" y2="444.1523"/><text fill="#000000" font-family="sans-serif" font-size="14" lengthAdjust="spacing" textLength="30" x="20" y="119.7285">HRM</text><ellipse cx="38" cy="53.1211" fill="#E3E3E3" rx="8" ry="8" style="stroke:#181818;stroke-width:0.5;"/><path d="M38,61.1211 L38,88.1211 M25,69.1211 L51,69.1211 M38,88.1211 L25,103.1211 M38,88.1211 L51,103.1211 " fill="none" style="stroke:#181818;stroke-width:0.5;"/><text fill="#000000" font-family="sans-serif" font-size="14" lengthAdjust="spacing" textLength="30" x="20" y="458.2598">HRM</text><ellipse cx="38" cy="470.2734" fill="#E3E3E3" rx="8" ry="8" style="stroke:#181818;stroke-width:0.5;"/><path d="M38,478.2734 L38,505.2734 M25,486.2734 L51,486.2734 M38,505.2734 L25,520.2734 M38,505.2734 L51,520.2734 " fill="none" style="stroke:#181818;stroke-width:0.5;"/><rect fill="#E3E3E3" height="32.6211" rx="2.5" ry="2.5" style="stroke:#181818;stroke-width:0.5;" width="97" x="335.5" y="89.6211"/><text fill="#000000" font-family="sans-serif" font-size="14" lengthAdjust="spacing" textLength="83" x="342.5" y="111.7285">:AssignSkillUI</text><rect fill="#E3E3E3" height="32.6211" rx="2.5" ry="2.5" style="stroke:#181818;stroke-width:0.5;" width="97" x="335.5" y="443.1523"/><text fill="#000000" font-family="sans-serif" font-size="14" lengthAdjust="spacing" textLength="83" x="342.5" y="465.2598">:AssignSkillUI</text><rect fill="#FFFFFF" height="301.9102" style="stroke:#181818;stroke-width:1.0;" width="10" x="33" y="133.2422"/><rect fill="#FFFFFF" height="31.291" style="stroke:#181818;stroke-width:1.0;" width="10" x="379" y="156.5332"/><rect fill="#FFFFFF" height="74.873" style="stroke:#181818;stroke-width:1.0;" width="10" x="379" y="219.1152"/><rect fill="#FFFFFF" height="38.291" style="stroke:#181818;stroke-width:1.0;" width="10" x="379" y="325.2793"/><rect fill="#FFFFFF" height="31.291" style="stroke:#181818;stroke-width:1.0;" width="10" x="379" y="394.8613"/><polygon fill="#181818" points="367,152.5332,377,156.5332,367,160.5332,371,156.5332" style="stroke:#181818;stroke-width:1.0;"/><line style="stroke:#181818;stroke-width:1.0;" x1="43" x2="373" y1="156.5332" y2="156.5332"/><text fill="#000000" font-family="sans-serif" font-size="13" font-weight="bold" lengthAdjust="spacing" textLength="7" x="50" y="151.2705">1</text><text fill="#000000" font-family="sans-serif" font-size="13" lengthAdjust="spacing" textLength="291" x="61" y="151.2705">Asks to assign one or more skills to a collaborator</text><polygon fill="#181818" points="54,183.8242,44,187.8242,54,191.8242,50,187.8242" style="stroke:#181818;stroke-width:1.0;"/><line style="stroke:#181818;stroke-width:1.0;stroke-dasharray:2.0,2.0;" x1="48" x2="383" y1="187.8242" y2="187.8242"/><text fill="#000000" font-family="sans-serif" font-size="13" font-weight="bold" lengthAdjust="spacing" textLength="7" x="60" y="182.5615">2</text><text fill="#000000" font-family="sans-serif" font-size="13" lengthAdjust="spacing" textLength="301" x="71" y="182.5615">Shows a list of Collaborators and asks to select one</text><polygon fill="#181818" points="367,215.1152,377,219.1152,367,223.1152,371,219.1152" style="stroke:#181818;stroke-width:1.0;"/><line style="stroke:#181818;stroke-width:1.0;" x1="43" x2="373" y1="219.1152" y2="219.1152"/><text fill="#000000" font-family="sans-serif" font-size="13" font-weight="bold" lengthAdjust="spacing" textLength="7" x="50" y="213.8525">3</text><text fill="#000000" font-family="sans-serif" font-size="13" lengthAdjust="spacing" textLength="126" x="61" y="213.8525">Selects a collaborator</text><path d="M10,234.1152 L83,234.1152 L83,243.4063 L73,253.4063 L10,253.4063 L10,234.1152 " fill="#EEEEEE" style="stroke:#000000;stroke-width:1.5;"/><rect fill="none" height="99.1641" style="stroke:#000000;stroke-width:1.5;" width="432.5" x="10" y="234.1152"/><text fill="#000000" font-family="sans-serif" font-size="13" font-weight="bold" lengthAdjust="spacing" textLength="28" x="25" y="249.1436">loop</text><polygon fill="#181818" points="54,289.9883,44,293.9883,54,297.9883,50,293.9883" style="stroke:#181818;stroke-width:1.0;"/><line style="stroke:#181818;stroke-width:1.0;stroke-dasharray:2.0,2.0;" x1="48" x2="383" y1="293.9883" y2="293.9883"/><text fill="#000000" font-family="sans-serif" font-size="13" font-weight="bold" lengthAdjust="spacing" textLength="7" x="60" y="280.0801">4</text><text fill="#000000" font-family="sans-serif" font-size="13" lengthAdjust="spacing" textLength="255" x="71" y="271.4346">Displays a list of available skills and asks to</text><text fill="#000000" font-family="sans-serif" font-size="13" lengthAdjust="spacing" textLength="139" x="71" y="288.7256">select the desired ones.</text><polygon fill="#181818" points="367,321.2793,377,325.2793,367,329.2793,371,325.2793" style="stroke:#181818;stroke-width:1.0;"/><line style="stroke:#181818;stroke-width:1.0;" x1="43" x2="373" y1="325.2793" y2="325.2793"/><text fill="#000000" font-family="sans-serif" font-size="13" font-weight="bold" lengthAdjust="spacing" textLength="7" x="50" y="320.0166">5</text><text fill="#000000" font-family="sans-serif" font-size="13" lengthAdjust="spacing" textLength="146" x="61" y="320.0166">Selects the desired skills</text><polygon fill="#181818" points="54,359.5703,44,363.5703,54,367.5703,50,363.5703" style="stroke:#181818;stroke-width:1.0;"/><line style="stroke:#181818;stroke-width:1.0;stroke-dasharray:2.0,2.0;" x1="48" x2="383" y1="363.5703" y2="363.5703"/><text fill="#000000" font-family="sans-serif" font-size="13" font-weight="bold" lengthAdjust="spacing" textLength="7" x="60" y="358.3076">6</text><text fill="#000000" font-family="sans-serif" font-size="13" lengthAdjust="spacing" textLength="238" x="71" y="358.3076">Shows all data and requests confirmation</text><polygon fill="#181818" points="367,390.8613,377,394.8613,367,398.8613,371,394.8613" style="stroke:#181818;stroke-width:1.0;"/><line style="stroke:#181818;stroke-width:1.0;" x1="43" x2="373" y1="394.8613" y2="394.8613"/><text fill="#000000" font-family="sans-serif" font-size="13" font-weight="bold" lengthAdjust="spacing" textLength="7" x="50" y="389.5986">7</text><text fill="#000000" font-family="sans-serif" font-size="13" lengthAdjust="spacing" textLength="130" x="61" y="389.5986">Confirms the operation</text><polygon fill="#181818" points="54,422.1523,44,426.1523,54,430.1523,50,426.1523" style="stroke:#181818;stroke-width:1.0;"/><line style="stroke:#181818;stroke-width:1.0;stroke-dasharray:2.0,2.0;" x1="48" x2="383" y1="426.1523" y2="426.1523"/><text fill="#000000" font-family="sans-serif" font-size="13" font-weight="bold" lengthAdjust="spacing" textLength="7" x="60" y="420.8896">8</text><text fill="#000000" font-family="sans-serif" font-size="13" lengthAdjust="spacing" textLength="160" x="71" y="420.8896">Displays operation success</text><!--SRC=[dP8nJyCm48Lt_ufJ9nYAEZ1rGAee4WmiMDrOhiuriMBxWizfrN-FaxHfX8e4zHJRzzxxxcAfRMWmeWVFWKqLsHEas9AIyQP1KsD9EXqTGIIJC9HkMY0L5domeOGTEY6baasvTACNYqUOWpvA8W-QlbeAXc1jiUnaTrglxvN2Dd5e_PPY_ZQ98ynUFzvdW08lld5y958v9rbZ6mm9PikLY2s3hgrpcxU-S8ZezNQFYIvA1NcTTp1_EjCiOIMrGE8ixzo00q7EzXm9fBCUBi6mSxZbY9ciDnippg5mMYVdUGuP0vUWApv8zd5M4l0EdYT- -JmK6M004N9vk1r8RrdGrQIhlUXUAZznUu5ZRjGjv6ihZSFZ51xtQBEz6qSqvVyCfmvIHPbURAIYwqOURkvdwZGagkkjT6SKYZ_-3EUWm8GzVUoUfUGims5deyTaEVmR-7aG3yJSKBpOt3hrqGMaDOP4Ve7w1W00]--></g></svg>