<?xml version="1.0" encoding="us-ascii" standalone="no"?><svg xmlns="http://www.w3.org/2000/svg" xmlns:xlink="http://www.w3.org/1999/xlink" contentStyleType="text/css" height="1216px" preserveAspectRatio="none" style="width:1048px;height:1216px;background:#FFFFFF;" version="1.1" viewBox="0 0 1048 1216" width="1048px" zoomAndPan="magnify"><defs/><g><text fill="#000000" font-family="sans-serif" font-size="14" font-weight="bold" lengthAdjust="spacing" textLength="155" x="439.75" y="25.1074">US004 - Class Diagram</text><!--class AssignSkillUI--><g id="elem_AssignSkillUI"><rect codeLine="11" fill="#F1F1F1" height="215.5898" id="AssignSkillUI" rx="2.5" ry="2.5" style="stroke:#181818;stroke-width:0.5;" width="344" x="7" y="46.6211"/><ellipse cx="135.25" cy="62.6211" fill="#ADD1B2" rx="11" ry="11" style="stroke:#181818;stroke-width:1.0;"/><path d="M138.0156,58.4961 Q138.1719,58.2773 138.3594,58.168 Q138.5469,58.0586 138.7656,58.0586 Q139.1406,58.0586 139.375,58.3242 Q139.6094,58.5742 139.6094,59.1836 L139.6094,60.6367 Q139.6094,61.2461 139.375,61.5117 Q139.1406,61.7773 138.7656,61.7773 Q138.4219,61.7773 138.2188,61.5742 Q138.0156,61.3867 137.9063,60.8711 Q137.8594,60.5117 137.6719,60.3242 Q137.3438,59.9492 136.7344,59.7305 Q136.125,59.5117 135.5,59.5117 Q134.7344,59.5117 134.0938,59.8398 Q133.4688,60.168 132.9688,60.918 Q132.4844,61.668 132.4844,62.6992 L132.4844,63.793 Q132.4844,65.0273 133.375,65.8555 Q134.2656,66.668 135.8594,66.668 Q136.7969,66.668 137.4531,66.418 Q137.8438,66.2617 138.2656,65.8242 Q138.5313,65.5586 138.6719,65.4805 Q138.8281,65.4023 139.0313,65.4023 Q139.3594,65.4023 139.6094,65.668 Q139.875,65.918 139.875,66.2617 Q139.875,66.6055 139.5313,67.0117 Q139.0313,67.5898 138.2344,67.918 Q137.1563,68.3711 135.8594,68.3711 Q134.3438,68.3711 133.1406,67.7461 Q132.1563,67.2461 131.4688,66.1836 Q130.7813,65.1055 130.7813,63.8242 L130.7813,62.668 Q130.7813,61.3398 131.3906,60.1992 Q132.0156,59.043 133.1094,58.4336 Q134.2031,57.8086 135.4375,57.8086 Q136.1719,57.8086 136.8125,57.9805 Q137.4688,58.1367 138.0156,58.4961 Z " fill="#000000"/><text fill="#000000" font-family="sans-serif" font-size="14" lengthAdjust="spacing" textLength="79" x="155.75" y="68.418">AssignSkillUI</text><line style="stroke:#181818;stroke-width:0.5;" x1="8" x2="350" y1="78.6211" y2="78.6211"/><text fill="#000000" font-family="sans-serif" font-size="14" lengthAdjust="spacing" textLength="157" x="13" y="97.7285">-List&lt;Skill&gt; selectedSkills</text><text fill="#000000" font-family="sans-serif" font-size="14" lengthAdjust="spacing" textLength="218" x="13" y="116.3496">-Collaborator selectedCollaborator</text><line style="stroke:#181818;stroke-width:0.5;" x1="8" x2="350" y1="123.8633" y2="123.8633"/><text fill="#000000" font-family="sans-serif" font-size="14" lengthAdjust="spacing" textLength="97" x="13" y="142.9707">+AssignSkillUI()</text><text fill="#000000" font-family="sans-serif" font-size="14" lengthAdjust="spacing" textLength="100" x="13" y="161.5918">+getController()</text><text fill="#000000" font-family="sans-serif" font-size="14" lengthAdjust="spacing" textLength="39" x="13" y="180.2129">+run()</text><text fill="#000000" font-family="sans-serif" font-size="14" lengthAdjust="spacing" textLength="86" x="13" y="198.834">-submitData()</text><text fill="#000000" font-family="sans-serif" font-size="14" lengthAdjust="spacing" textLength="201" x="13" y="217.4551">-displayAndSelectCollaborator()</text><text fill="#000000" font-family="sans-serif" font-size="14" lengthAdjust="spacing" textLength="155" x="13" y="236.0762">-displayAndSelectSkills()</text><text fill="#000000" font-family="sans-serif" font-size="14" lengthAdjust="spacing" textLength="332" x="13" y="254.6973">-showAllDataForConfirmation(selectedSkills, header)</text></g><!--class AssignSkillController--><g id="elem_AssignSkillController"><rect codeLine="24" fill="#F1F1F1" height="159.7266" id="AssignSkillController" rx="2.5" ry="2.5" style="stroke:#181818;stroke-width:0.5;" width="366" x="386" y="74.6211"/><ellipse cx="500.25" cy="90.6211" fill="#ADD1B2" rx="11" ry="11" style="stroke:#181818;stroke-width:1.0;"/><path d="M503.0156,86.4961 Q503.1719,86.2773 503.3594,86.168 Q503.5469,86.0586 503.7656,86.0586 Q504.1406,86.0586 504.375,86.3242 Q504.6094,86.5742 504.6094,87.1836 L504.6094,88.6367 Q504.6094,89.2461 504.375,89.5117 Q504.1406,89.7773 503.7656,89.7773 Q503.4219,89.7773 503.2188,89.5742 Q503.0156,89.3867 502.9063,88.8711 Q502.8594,88.5117 502.6719,88.3242 Q502.3438,87.9492 501.7344,87.7305 Q501.125,87.5117 500.5,87.5117 Q499.7344,87.5117 499.0938,87.8398 Q498.4688,88.168 497.9688,88.918 Q497.4844,89.668 497.4844,90.6992 L497.4844,91.793 Q497.4844,93.0273 498.375,93.8555 Q499.2656,94.668 500.8594,94.668 Q501.7969,94.668 502.4531,94.418 Q502.8438,94.2617 503.2656,93.8242 Q503.5313,93.5586 503.6719,93.4805 Q503.8281,93.4023 504.0313,93.4023 Q504.3594,93.4023 504.6094,93.668 Q504.875,93.918 504.875,94.2617 Q504.875,94.6055 504.5313,95.0117 Q504.0313,95.5898 503.2344,95.918 Q502.1563,96.3711 500.8594,96.3711 Q499.3438,96.3711 498.1406,95.7461 Q497.1563,95.2461 496.4688,94.1836 Q495.7813,93.1055 495.7813,91.8242 L495.7813,90.668 Q495.7813,89.3398 496.3906,88.1992 Q497.0156,87.043 498.1094,86.4336 Q499.2031,85.8086 500.4375,85.8086 Q501.1719,85.8086 501.8125,85.9805 Q502.4688,86.1367 503.0156,86.4961 Z " fill="#000000"/><text fill="#000000" font-family="sans-serif" font-size="14" lengthAdjust="spacing" textLength="129" x="520.75" y="96.418">AssignSkillController</text><line style="stroke:#181818;stroke-width:0.5;" x1="387" x2="751" y1="106.6211" y2="106.6211"/><line style="stroke:#181818;stroke-width:0.5;" x1="387" x2="751" y1="114.6211" y2="114.6211"/><text fill="#000000" font-family="sans-serif" font-size="14" lengthAdjust="spacing" textLength="147" x="392" y="133.7285">+AssignSkillController()</text><text fill="#000000" font-family="sans-serif" font-size="14" lengthAdjust="spacing" textLength="181" x="392" y="152.3496">-getCollaboratorRepository()</text><text fill="#000000" font-family="sans-serif" font-size="14" lengthAdjust="spacing" textLength="128" x="392" y="170.9707">-getSkillRepository()</text><text fill="#000000" font-family="sans-serif" font-size="14" lengthAdjust="spacing" textLength="138" x="392" y="189.5918">+getCollaboratorList()</text><text fill="#000000" font-family="sans-serif" font-size="14" lengthAdjust="spacing" textLength="85" x="392" y="208.2129">+getSkillList()</text><text fill="#000000" font-family="sans-serif" font-size="14" lengthAdjust="spacing" textLength="354" x="392" y="226.834">+assignSkillsToCollaborator(collaborator, selectedSkills)</text></g><!--class CollaboratorRepository--><g id="elem_CollaboratorRepository"><rect codeLine="33" fill="#F1F1F1" height="122.4844" id="CollaboratorRepository" rx="2.5" ry="2.5" style="stroke:#181818;stroke-width:0.5;" width="366" x="528" y="604.6211"/><ellipse cx="633.75" cy="620.6211" fill="#ADD1B2" rx="11" ry="11" style="stroke:#181818;stroke-width:1.0;"/><path d="M636.5156,616.4961 Q636.6719,616.2773 636.8594,616.168 Q637.0469,616.0586 637.2656,616.0586 Q637.6406,616.0586 637.875,616.3242 Q638.1094,616.5742 638.1094,617.1836 L638.1094,618.6367 Q638.1094,619.2461 637.875,619.5117 Q637.6406,619.7773 637.2656,619.7773 Q636.9219,619.7773 636.7188,619.5742 Q636.5156,619.3867 636.4063,618.8711 Q636.3594,618.5117 636.1719,618.3242 Q635.8438,617.9492 635.2344,617.7305 Q634.625,617.5117 634,617.5117 Q633.2344,617.5117 632.5938,617.8398 Q631.9688,618.168 631.4688,618.918 Q630.9844,619.668 630.9844,620.6992 L630.9844,621.793 Q630.9844,623.0273 631.875,623.8555 Q632.7656,624.668 634.3594,624.668 Q635.2969,624.668 635.9531,624.418 Q636.3438,624.2617 636.7656,623.8242 Q637.0313,623.5586 637.1719,623.4805 Q637.3281,623.4023 637.5313,623.4023 Q637.8594,623.4023 638.1094,623.668 Q638.375,623.918 638.375,624.2617 Q638.375,624.6055 638.0313,625.0117 Q637.5313,625.5898 636.7344,625.918 Q635.6563,626.3711 634.3594,626.3711 Q632.8438,626.3711 631.6406,625.7461 Q630.6563,625.2461 629.9688,624.1836 Q629.2813,623.1055 629.2813,621.8242 L629.2813,620.668 Q629.2813,619.3398 629.8906,618.1992 Q630.5156,617.043 631.6094,616.4336 Q632.7031,615.8086 633.9375,615.8086 Q634.6719,615.8086 635.3125,615.9805 Q635.9688,616.1367 636.5156,616.4961 Z " fill="#000000"/><text fill="#000000" font-family="sans-serif" font-size="14" lengthAdjust="spacing" textLength="146" x="654.25" y="626.418">CollaboratorRepository</text><line style="stroke:#181818;stroke-width:0.5;" x1="529" x2="893" y1="636.6211" y2="636.6211"/><text fill="#000000" font-family="sans-serif" font-size="14" lengthAdjust="spacing" textLength="222" x="534" y="655.7285">-List&lt;Collaborator&gt; collaboratorList</text><line style="stroke:#181818;stroke-width:0.5;" x1="529" x2="893" y1="663.2422" y2="663.2422"/><text fill="#000000" font-family="sans-serif" font-size="14" lengthAdjust="spacing" textLength="138" x="534" y="682.3496">+getCollaboratorList()</text><text fill="#000000" font-family="sans-serif" font-size="14" lengthAdjust="spacing" textLength="277" x="534" y="700.9707">+getCollaboratorByCollaboratorEmail(email)</text><text fill="#000000" font-family="sans-serif" font-size="14" lengthAdjust="spacing" textLength="354" x="534" y="719.5918">+assignSkillsToCollaborator(collaborator, selectedSkills)</text></g><!--class SkillRepository--><g id="elem_SkillRepository"><rect codeLine="41" fill="#F1F1F1" height="85.2422" id="SkillRepository" rx="2.5" ry="2.5" style="stroke:#181818;stroke-width:0.5;" width="129" x="363.5" y="623.1211"/><ellipse cx="380.3" cy="639.1211" fill="#ADD1B2" rx="11" ry="11" style="stroke:#181818;stroke-width:1.0;"/><path d="M383.0656,634.9961 Q383.2219,634.7773 383.4094,634.668 Q383.5969,634.5586 383.8156,634.5586 Q384.1906,634.5586 384.425,634.8242 Q384.6594,635.0742 384.6594,635.6836 L384.6594,637.1367 Q384.6594,637.7461 384.425,638.0117 Q384.1906,638.2773 383.8156,638.2773 Q383.4719,638.2773 383.2688,638.0742 Q383.0656,637.8867 382.9563,637.3711 Q382.9094,637.0117 382.7219,636.8242 Q382.3938,636.4492 381.7844,636.2305 Q381.175,636.0117 380.55,636.0117 Q379.7844,636.0117 379.1438,636.3398 Q378.5188,636.668 378.0188,637.418 Q377.5344,638.168 377.5344,639.1992 L377.5344,640.293 Q377.5344,641.5273 378.425,642.3555 Q379.3156,643.168 380.9094,643.168 Q381.8469,643.168 382.5031,642.918 Q382.8938,642.7617 383.3156,642.3242 Q383.5813,642.0586 383.7219,641.9805 Q383.8781,641.9023 384.0813,641.9023 Q384.4094,641.9023 384.6594,642.168 Q384.925,642.418 384.925,642.7617 Q384.925,643.1055 384.5813,643.5117 Q384.0813,644.0898 383.2844,644.418 Q382.2063,644.8711 380.9094,644.8711 Q379.3938,644.8711 378.1906,644.2461 Q377.2063,643.7461 376.5188,642.6836 Q375.8313,641.6055 375.8313,640.3242 L375.8313,639.168 Q375.8313,637.8398 376.4406,636.6992 Q377.0656,635.543 378.1594,634.9336 Q379.2531,634.3086 380.4875,634.3086 Q381.2219,634.3086 381.8625,634.4805 Q382.5188,634.6367 383.0656,634.9961 Z " fill="#000000"/><text fill="#000000" font-family="sans-serif" font-size="14" lengthAdjust="spacing" textLength="93" x="394.7" y="644.918">SkillRepository</text><line style="stroke:#181818;stroke-width:0.5;" x1="364.5" x2="491.5" y1="655.1211" y2="655.1211"/><text fill="#000000" font-family="sans-serif" font-size="14" lengthAdjust="spacing" textLength="117" x="369.5" y="674.2285">-List&lt;Skill&gt; skillList</text><line style="stroke:#181818;stroke-width:0.5;" x1="364.5" x2="491.5" y1="681.7422" y2="681.7422"/><text fill="#000000" font-family="sans-serif" font-size="14" lengthAdjust="spacing" textLength="85" x="369.5" y="700.8496">+getSkillList()</text></g><!--class Collaborator--><g id="elem_Collaborator"><rect codeLine="47" fill="#F1F1F1" height="85.2422" id="Collaborator" rx="2.5" ry="2.5" style="stroke:#181818;stroke-width:0.5;" width="188" x="583" y="885.6211"/><ellipse cx="633.75" cy="901.6211" fill="#ADD1B2" rx="11" ry="11" style="stroke:#181818;stroke-width:1.0;"/><path d="M636.5156,897.4961 Q636.6719,897.2773 636.8594,897.168 Q637.0469,897.0586 637.2656,897.0586 Q637.6406,897.0586 637.875,897.3242 Q638.1094,897.5742 638.1094,898.1836 L638.1094,899.6367 Q638.1094,900.2461 637.875,900.5117 Q637.6406,900.7773 637.2656,900.7773 Q636.9219,900.7773 636.7188,900.5742 Q636.5156,900.3867 636.4063,899.8711 Q636.3594,899.5117 636.1719,899.3242 Q635.8438,898.9492 635.2344,898.7305 Q634.625,898.5117 634,898.5117 Q633.2344,898.5117 632.5938,898.8398 Q631.9688,899.168 631.4688,899.918 Q630.9844,900.668 630.9844,901.6992 L630.9844,902.793 Q630.9844,904.0273 631.875,904.8555 Q632.7656,905.668 634.3594,905.668 Q635.2969,905.668 635.9531,905.418 Q636.3438,905.2617 636.7656,904.8242 Q637.0313,904.5586 637.1719,904.4805 Q637.3281,904.4023 637.5313,904.4023 Q637.8594,904.4023 638.1094,904.668 Q638.375,904.918 638.375,905.2617 Q638.375,905.6055 638.0313,906.0117 Q637.5313,906.5898 636.7344,906.918 Q635.6563,907.3711 634.3594,907.3711 Q632.8438,907.3711 631.6406,906.7461 Q630.6563,906.2461 629.9688,905.1836 Q629.2813,904.1055 629.2813,902.8242 L629.2813,901.668 Q629.2813,900.3398 629.8906,899.1992 Q630.5156,898.043 631.6094,897.4336 Q632.7031,896.8086 633.9375,896.8086 Q634.6719,896.8086 635.3125,896.9805 Q635.9688,897.1367 636.5156,897.4961 Z " fill="#000000"/><text fill="#000000" font-family="sans-serif" font-size="14" lengthAdjust="spacing" textLength="78" x="654.25" y="907.418">Collaborator</text><line style="stroke:#181818;stroke-width:0.5;" x1="584" x2="770" y1="917.6211" y2="917.6211"/><text fill="#000000" font-family="sans-serif" font-size="14" lengthAdjust="spacing" textLength="121" x="589" y="936.7285">-List&lt;Skill&gt; skillList;</text><line style="stroke:#181818;stroke-width:0.5;" x1="584" x2="770" y1="944.2422" y2="944.2422"/><text fill="#000000" font-family="sans-serif" font-size="14" lengthAdjust="spacing" textLength="176" x="589" y="963.3496">+assignSkills(selectedSkills)</text></g><!--class Repositories--><g id="elem_Repositories"><rect codeLine="53" fill="#F1F1F1" height="122.4844" id="Repositories" rx="2.5" ry="2.5" style="stroke:#181818;stroke-width:0.5;" width="196" x="471" y="341.6211"/><ellipse cx="525.25" cy="357.6211" fill="#ADD1B2" rx="11" ry="11" style="stroke:#181818;stroke-width:1.0;"/><path d="M528.0156,353.4961 Q528.1719,353.2773 528.3594,353.168 Q528.5469,353.0586 528.7656,353.0586 Q529.1406,353.0586 529.375,353.3242 Q529.6094,353.5742 529.6094,354.1836 L529.6094,355.6367 Q529.6094,356.2461 529.375,356.5117 Q529.1406,356.7773 528.7656,356.7773 Q528.4219,356.7773 528.2188,356.5742 Q528.0156,356.3867 527.9063,355.8711 Q527.8594,355.5117 527.6719,355.3242 Q527.3438,354.9492 526.7344,354.7305 Q526.125,354.5117 525.5,354.5117 Q524.7344,354.5117 524.0938,354.8398 Q523.4688,355.168 522.9688,355.918 Q522.4844,356.668 522.4844,357.6992 L522.4844,358.793 Q522.4844,360.0273 523.375,360.8555 Q524.2656,361.668 525.8594,361.668 Q526.7969,361.668 527.4531,361.418 Q527.8438,361.2617 528.2656,360.8242 Q528.5313,360.5586 528.6719,360.4805 Q528.8281,360.4023 529.0313,360.4023 Q529.3594,360.4023 529.6094,360.668 Q529.875,360.918 529.875,361.2617 Q529.875,361.6055 529.5313,362.0117 Q529.0313,362.5898 528.2344,362.918 Q527.1563,363.3711 525.8594,363.3711 Q524.3438,363.3711 523.1406,362.7461 Q522.1563,362.2461 521.4688,361.1836 Q520.7813,360.1055 520.7813,358.8242 L520.7813,357.668 Q520.7813,356.3398 521.3906,355.1992 Q522.0156,354.043 523.1094,353.4336 Q524.2031,352.8086 525.4375,352.8086 Q526.1719,352.8086 526.8125,352.9805 Q527.4688,353.1367 528.0156,353.4961 Z " fill="#000000"/><text fill="#000000" font-family="sans-serif" font-size="14" lengthAdjust="spacing" textLength="79" x="545.75" y="363.418">Repositories</text><line style="stroke:#181818;stroke-width:0.5;" x1="472" x2="666" y1="373.6211" y2="373.6211"/><line style="stroke:#181818;stroke-width:0.5;" x1="472" x2="666" y1="381.6211" y2="381.6211"/><text fill="#000000" font-family="sans-serif" font-size="14" lengthAdjust="spacing" textLength="94" x="477" y="400.7285">-Repositories()</text><text fill="#000000" font-family="sans-serif" font-size="14" lengthAdjust="spacing" textLength="182" x="477" y="419.3496">+getInstance() : Repositories</text><text fill="#000000" font-family="sans-serif" font-size="14" lengthAdjust="spacing" textLength="128" x="477" y="437.9707">+getJobRepository()</text><text fill="#000000" font-family="sans-serif" font-size="14" lengthAdjust="spacing" textLength="184" x="477" y="456.5918">+getCollaboratorRepository()</text></g><!--class Skill--><g id="elem_Skill"><rect codeLine="60" fill="#F1F1F1" height="159.7266" id="Skill" rx="2.5" ry="2.5" style="stroke:#181818;stroke-width:0.5;" width="169" x="440.5" y="1049.6211"/><ellipse cx="508.25" cy="1065.6211" fill="#ADD1B2" rx="11" ry="11" style="stroke:#181818;stroke-width:1.0;"/><path d="M511.0156,1061.4961 Q511.1719,1061.2773 511.3594,1061.168 Q511.5469,1061.0586 511.7656,1061.0586 Q512.1406,1061.0586 512.375,1061.3242 Q512.6094,1061.5742 512.6094,1062.1836 L512.6094,1063.6367 Q512.6094,1064.2461 512.375,1064.5117 Q512.1406,1064.7773 511.7656,1064.7773 Q511.4219,1064.7773 511.2188,1064.5742 Q511.0156,1064.3867 510.9063,1063.8711 Q510.8594,1063.5117 510.6719,1063.3242 Q510.3438,1062.9492 509.7344,1062.7305 Q509.125,1062.5117 508.5,1062.5117 Q507.7344,1062.5117 507.0938,1062.8398 Q506.4688,1063.168 505.9688,1063.918 Q505.4844,1064.668 505.4844,1065.6992 L505.4844,1066.793 Q505.4844,1068.0273 506.375,1068.8555 Q507.2656,1069.668 508.8594,1069.668 Q509.7969,1069.668 510.4531,1069.418 Q510.8438,1069.2617 511.2656,1068.8242 Q511.5313,1068.5586 511.6719,1068.4805 Q511.8281,1068.4023 512.0313,1068.4023 Q512.3594,1068.4023 512.6094,1068.668 Q512.875,1068.918 512.875,1069.2617 Q512.875,1069.6055 512.5313,1070.0117 Q512.0313,1070.5898 511.2344,1070.918 Q510.1563,1071.3711 508.8594,1071.3711 Q507.3438,1071.3711 506.1406,1070.7461 Q505.1563,1070.2461 504.4688,1069.1836 Q503.7813,1068.1055 503.7813,1066.8242 L503.7813,1065.668 Q503.7813,1064.3398 504.3906,1063.1992 Q505.0156,1062.043 506.1094,1061.4336 Q507.2031,1060.8086 508.4375,1060.8086 Q509.1719,1060.8086 509.8125,1060.9805 Q510.4688,1061.1367 511.0156,1061.4961 Z " fill="#000000"/><text fill="#000000" font-family="sans-serif" font-size="14" lengthAdjust="spacing" textLength="25" x="528.75" y="1071.418">Skill</text><line style="stroke:#181818;stroke-width:0.5;" x1="441.5" x2="608.5" y1="1081.6211" y2="1081.6211"/><text fill="#000000" font-family="sans-serif" font-size="14" lengthAdjust="spacing" textLength="105" x="446.5" y="1100.7285">-String skillName</text><line style="stroke:#181818;stroke-width:0.5;" x1="441.5" x2="608.5" y1="1108.2422" y2="1108.2422"/><text fill="#000000" font-family="sans-serif" font-size="14" lengthAdjust="spacing" textLength="102" x="446.5" y="1127.3496">+Skill(skillName)</text><text fill="#000000" font-family="sans-serif" font-size="14" lengthAdjust="spacing" textLength="99" x="446.5" y="1145.9707">+getSkillName()</text><text fill="#000000" font-family="sans-serif" font-size="14" lengthAdjust="spacing" textLength="157" x="446.5" y="1164.5918">+setSkillName(skillName)</text><text fill="#000000" font-family="sans-serif" font-size="14" lengthAdjust="spacing" textLength="148" x="446.5" y="1183.2129">-validateSkill(skillName)</text><text fill="#000000" font-family="sans-serif" font-size="14" lengthAdjust="spacing" textLength="52" x="446.5" y="1201.834">+clone()</text></g><g id="elem_GMN9"><path d="M191.5,643.1211 L191.5,687.7031 A0,0 0 0 0 191.5,687.7031 L328.5,687.7031 A0,0 0 0 0 328.5,687.7031 L328.5,669.6211 L363.35,665.6211 L328.5,661.6211 L328.5,653.1211 L318.5,643.1211 L191.5,643.1211 A0,0 0 0 0 191.5,643.1211 " fill="#FEFFDD" style="stroke:#181818;stroke-width:0.5;"/><path d="M318.5,643.1211 L318.5,653.1211 L328.5,653.1211 L318.5,643.1211 " fill="#FEFFDD" style="stroke:#181818;stroke-width:0.5;"/><text fill="#000000" font-family="sans-serif" font-size="13" lengthAdjust="spacing" textLength="116" x="197.5" y="662.1494">- used for displaying</text><text fill="#000000" font-family="sans-serif" font-size="13" lengthAdjust="spacing" textLength="66" x="197.5" y="679.4404">the skill list</text></g><g id="elem_GMN12"><path d="M806.5,905.6211 L806.5,924.1211 L771.13,928.1211 L806.5,932.1211 L806.5,950.2031 A0,0 0 0 0 806.5,950.2031 L1041.5,950.2031 A0,0 0 0 0 1041.5,950.2031 L1041.5,915.6211 L1031.5,905.6211 L806.5,905.6211 A0,0 0 0 0 806.5,905.6211 " fill="#FEFFDD" style="stroke:#181818;stroke-width:0.5;"/><path d="M1031.5,905.6211 L1031.5,915.6211 L1041.5,915.6211 L1031.5,905.6211 " fill="#FEFFDD" style="stroke:#181818;stroke-width:0.5;"/><text fill="#000000" font-family="sans-serif" font-size="13" lengthAdjust="spacing" textLength="214" x="812.5" y="924.6494">- has the responsability to implement</text><text fill="#000000" font-family="sans-serif" font-size="13" lengthAdjust="spacing" textLength="154" x="812.5" y="941.9404">the method to assignSkills</text></g><!--link AssignSkillUI to AssignSkillController--><g id="link_AssignSkillUI_AssignSkillController"><path codeLine="80" d="M351.21,154.6211 C362.18,154.6211 368.14,154.6211 379.61,154.6211 " fill="none" id="AssignSkillUI-to-AssignSkillController" style="stroke:#181818;stroke-width:1.0;stroke-dasharray:7.0,7.0;"/><polygon fill="#181818" points="385.61,154.6211,376.61,150.6211,380.61,154.6211,376.61,158.6211,385.61,154.6211" style="stroke:#181818;stroke-width:1.0;"/></g><!--link AssignSkillController to Repositories--><g id="link_AssignSkillController_Repositories"><path codeLine="82" d="M569,234.8111 C569,269.3611 569,303.2211 569,335.3111 " fill="none" id="AssignSkillController-to-Repositories" style="stroke:#181818;stroke-width:1.0;stroke-dasharray:7.0,7.0;"/><polygon fill="#181818" points="569,341.3111,573,332.3111,569,336.3111,565,332.3111,569,341.3111" style="stroke:#181818;stroke-width:1.0;"/><text fill="#000000" font-family="sans-serif" font-size="13" lengthAdjust="spacing" textLength="67" x="570" y="307.6494">repositories</text></g><!--link Repositories to CollaboratorRepository--><g id="link_Repositories_CollaboratorRepository"><path codeLine="84" d="M601.76,463.8311 C624.69,505.9811 652.3424,556.8107 675.2924,598.9907 " fill="none" id="Repositories-to-CollaboratorRepository" style="stroke:#181818;stroke-width:1.0;"/><polygon fill="#181818" points="678.16,604.2611,677.3722,594.4438,675.7703,599.8691,670.345,598.2673,678.16,604.2611" style="stroke:#181818;stroke-width:1.0;"/><text fill="#000000" font-family="sans-serif" font-size="13" lengthAdjust="spacing" textLength="7" x="666.9582" y="593.2007">1</text></g><!--link Repositories to SkillRepository--><g id="link_Repositories_SkillRepository"><path codeLine="85" d="M538.05,463.8611 C525.1,489.0711 513,512.6211 513,512.6211 C513,512.6211 479.3176,572.8438 454.1576,617.8538 " fill="none" id="Repositories-to-SkillRepository" style="stroke:#181818;stroke-width:1.0;"/><polygon fill="#181818" points="451.23,623.0911,459.1129,617.1869,453.6697,618.7267,452.1298,613.2834,451.23,623.0911" style="stroke:#181818;stroke-width:1.0;"/><text fill="#000000" font-family="sans-serif" font-size="13" lengthAdjust="spacing" textLength="7" x="447.3745" y="611.9904">1</text></g><!--link AssignSkillController to CollaboratorRepository--><g id="link_AssignSkillController_CollaboratorRepository"><path codeLine="86" d="M618.36,234.7711 C649.93,285.3911 685,341.6211 685,341.6211 C685,341.6211 698.1283,504.7805 705.6583,598.2705 " fill="none" id="AssignSkillController-to-CollaboratorRepository" style="stroke:#181818;stroke-width:1.0;stroke-dasharray:7.0,7.0;"/><polygon fill="#181818" points="706.14,604.2511,709.4045,594.959,705.7386,599.2672,701.4304,595.6013,706.14,604.2511" style="stroke:#181818;stroke-width:1.0;"/><text fill="#000000" font-family="sans-serif" font-size="13" lengthAdjust="spacing" textLength="131" x="699" y="508.6494">CollaboratorRepository</text></g><!--link AssignSkillController to SkillRepository--><g id="link_AssignSkillController_SkillRepository"><path codeLine="88" d="M519.64,234.7711 C488.07,285.3911 453,341.6211 453,341.6211 C453,341.6211 418,493.6211 418,493.6211 C418,493.6211 418,512.6211 418,512.6211 C418,512.6211 421.9163,572.094 424.8763,617.104 " fill="none" id="AssignSkillController-to-SkillRepository" style="stroke:#181818;stroke-width:1.0;stroke-dasharray:7.0,7.0;"/><polygon fill="#181818" points="425.27,623.0911,428.6708,613.848,424.9419,618.1019,420.688,614.373,425.27,623.0911" style="stroke:#181818;stroke-width:1.0;"/><text fill="#000000" font-family="sans-serif" font-size="13" lengthAdjust="spacing" textLength="85" x="419" y="508.6494">skillRepository</text></g><!--link SkillRepository to Skill--><g id="link_SkillRepository_Skill"><path codeLine="90" d="M436.78,708.4311 C452.94,785.4011 486.3971,944.7691 507.1371,1043.5491 " fill="none" id="SkillRepository-to-Skill" style="stroke:#181818;stroke-width:1.0;"/><polygon fill="#181818" points="508.37,1049.4211,510.4353,1039.7912,507.3426,1044.5278,502.606,1041.4351,508.37,1049.4211" style="stroke:#181818;stroke-width:1.0;"/><text fill="#000000" font-family="sans-serif" font-size="13" lengthAdjust="spacing" textLength="23" x="469" y="851.6494">skill</text><text fill="#000000" font-family="sans-serif" font-size="13" lengthAdjust="spacing" textLength="7" x="430.5885" y="730.32">1</text><text fill="#000000" font-family="sans-serif" font-size="13" lengthAdjust="spacing" textLength="5" x="501.6065" y="1038.2984">*</text></g><!--link CollaboratorRepository to Collaborator--><g id="link_CollaboratorRepository_Collaborator"><path codeLine="91" d="M703.16,726.7111 C696.8,775.3911 688.7972,836.7716 683.1972,879.6416 " fill="none" id="CollaboratorRepository-to-Collaborator" style="stroke:#181818;stroke-width:1.0;"/><polygon fill="#181818" points="682.42,885.5911,687.552,877.185,683.0676,880.6332,679.6194,876.1488,682.42,885.5911" style="stroke:#181818;stroke-width:1.0;"/><text fill="#000000" font-family="sans-serif" font-size="13" lengthAdjust="spacing" textLength="67" x="696" y="802.6494">collaborator</text><text fill="#000000" font-family="sans-serif" font-size="13" lengthAdjust="spacing" textLength="7" x="694.7779" y="749.2089">1</text><text fill="#000000" font-family="sans-serif" font-size="13" lengthAdjust="spacing" textLength="5" x="677.8854" y="874.4904">*</text></g><!--link Collaborator to Skill--><g id="link_Collaborator_Skill"><path codeLine="92" d="M645.14,970.9411 C627.81,993.6811 609.4458,1017.7881 589.0158,1044.6081 " fill="none" id="Collaborator-to-Skill" style="stroke:#181818;stroke-width:1.0;"/><polygon fill="#181818" points="585.38,1049.3811,594.0156,1044.6455,588.4098,1045.4036,587.6517,1039.7978,585.38,1049.3811" style="stroke:#181818;stroke-width:1.0;"/><text fill="#000000" font-family="sans-serif" font-size="13" lengthAdjust="spacing" textLength="23" x="621" y="1015.6494">skill</text><text fill="#000000" font-family="sans-serif" font-size="13" lengthAdjust="spacing" textLength="7" x="632.7255" y="992.8315">1</text><text fill="#000000" font-family="sans-serif" font-size="13" lengthAdjust="spacing" textLength="5" x="585.7158" y="1038.2547">*</text></g><!--SRC=[hLN1Rjim3BthAuXUcgnraG4xPKE0hDs03CCEo_e1YitOGcN9a9WLNh5_domxjkJOtGxB8OZ9znuVAPcvjaz2LTpm4agjT5eONIAGEI4RCXLFdtYEUwebWi6KkCfb2B05p_IpK3aSkRHXHWg5L5S8bPPryy2k9vBQa6O1AvNSsYsH4OSJuIxLQYz-8QmO2N8M7lUhrJj8uBw1mOFWkIEnQub70j9WH5uGPA9nAhHYhCLjhHMvsZy9AHztBmpS9u6lmj877zk0HUaOcFb7sm7kjPJye0qdRNf466GUU1FBBvPTD4UwrugC8w3fe-Qakjy9sDEX5FJ0YVUXJDXAydghihql69QR1RMk1zb2Fs-bR7G_Q-Cy78KfUJEFHTpdBHJ8CpHBzdjYKeFvbyi-BpfBsdu7jz-nqbQu7tM8yEIBrCsOt9nDcFEqACW7B_Q7ZiQK1W-tewCDMfqs6zsE4BA1T6IG_PltCFUn3fy-bLp81JRV_w-jqOGdR_jvccnwmfCZUbNeFPlmlvZmw5zlwEq9j70M3eFX_7RAkgsJuc89wmWqGBxemz_lL8I8ntMsi7ThnsqotzOtNkAvAmzQzE7nnMnYVLKR1aUK17voAJ9EEAEOIgsmjQSq8VYzfe_ZG-t4JXOpEBhbr2q4vzrdgC2s1xTctI6Zog1HwpJR7Ub4erNMAXRSUhP1Msbb-K58GNMpMKLPIInHKL-XH2fqrkJ2Gm-gHMiHxdpTkytq5edGGnZk726wBMldBRW2B4ecIRA1gxTNC-_s37Wyt7adqxBEqqozLwH6HPs67TbWOuZpchIctrpvt9d4Pdor18-F_ilMqIgBs7uW7GVY8epz0G00]--></g></svg>