<?xml version="1.0" encoding="us-ascii" standalone="no"?><svg xmlns="http://www.w3.org/2000/svg" xmlns:xlink="http://www.w3.org/1999/xlink" contentStyleType="text/css" height="704.8px" preserveAspectRatio="none" style="width:1272px;height:704px;background:#FFFFFF;" version="1.1" viewBox="0 0 1272 704" width="1272px" zoomAndPan="magnify"><defs/><g><text fill="#000000" font-family="sans-serif" font-size="11.2" font-weight="bold" lengthAdjust="spacing" textLength="140" x="565.8" y="24.0859">SD_toToDoDomainObject</text><rect fill="#FFFFFF" height="567.4219" style="stroke:#181818;stroke-width:0.8000000000000002;" width="8" x="79.6" y="85.4906"/><rect fill="#FFFFFF" height="25.0328" style="stroke:#181818;stroke-width:0.8000000000000002;" width="8" x="206" y="124.1234"/><rect fill="#FFFFFF" height="25.0328" style="stroke:#181818;stroke-width:0.8000000000000002;" width="8" x="291.6" y="174.1891"/><rect fill="#FFFFFF" height="25.0328" style="stroke:#181818;stroke-width:0.8000000000000002;" width="8" x="404.8" y="224.2547"/><rect fill="#FFFFFF" height="351.3922" style="stroke:#181818;stroke-width:0.8000000000000002;" width="8" x="528.4" y="294.3203"/><line style="stroke:#181818;stroke-width:0.4000000000000001;stroke-dasharray:5.0,5.0;" x1="83.2" x2="83.2" y1="77.4906" y2="660.1125"/><line style="stroke:#181818;stroke-width:0.4000000000000001;stroke-dasharray:5.0,5.0;" x1="209.6" x2="209.6" y1="77.4906" y2="660.1125"/><line style="stroke:#181818;stroke-width:0.4000000000000001;stroke-dasharray:5.0,5.0;" x1="295.2" x2="295.2" y1="77.4906" y2="660.1125"/><line style="stroke:#181818;stroke-width:0.4000000000000001;stroke-dasharray:5.0,5.0;" x1="408.8" x2="408.8" y1="77.4906" y2="660.1125"/><line style="stroke:#181818;stroke-width:0.4000000000000001;stroke-dasharray:5.0,5.0;" x1="532" x2="532" y1="77.4906" y2="660.1125"/><line style="stroke:#181818;stroke-width:0.4000000000000001;stroke-dasharray:5.0,5.0;" x1="787.6" x2="787.6" y1="328.1531" y2="660.1125"/><line style="stroke:#181818;stroke-width:0.4000000000000001;stroke-dasharray:5.0,5.0;" x1="1047.2" x2="1047.2" y1="526.7656" y2="660.1125"/><rect fill="#E3E3E3" height="40.9938" rx="2" ry="2" style="stroke:#181818;stroke-width:0.4000000000000001;" width="159.2" x="4" y="35.6969"/><text fill="#000000" font-family="sans-serif" font-size="11.2" lengthAdjust="spacing" textLength="47.2" x="60" y="53.3828">controller</text><text fill="#000000" font-family="sans-serif" font-size="11.2" lengthAdjust="spacing" textLength="148" x="9.6" y="68.2797">:AddNewEntryToDoController</text><rect fill="#E3E3E3" height="40.9938" rx="2" ry="2" style="stroke:#181818;stroke-width:0.4000000000000001;" width="159.2" x="4" y="659.3125"/><text fill="#000000" font-family="sans-serif" font-size="11.2" lengthAdjust="spacing" textLength="47.2" x="60" y="676.9984">controller</text><text fill="#000000" font-family="sans-serif" font-size="11.2" lengthAdjust="spacing" textLength="148" x="9.6" y="691.8953">:AddNewEntryToDoController</text><rect fill="#E3E3E3" height="26.0969" rx="2" ry="2" style="stroke:#181818;stroke-width:0.4000000000000001;" width="77.6" x="171.2" y="50.5938"/><text fill="#000000" font-family="sans-serif" font-size="11.2" lengthAdjust="spacing" textLength="66.4" x="176.8" y="68.2797">:Repositories</text><rect fill="#E3E3E3" height="26.0969" rx="2" ry="2" style="stroke:#181818;stroke-width:0.4000000000000001;" width="77.6" x="171.2" y="659.3125"/><text fill="#000000" font-family="sans-serif" font-size="11.2" lengthAdjust="spacing" textLength="66.4" x="176.8" y="676.9984">:Repositories</text><rect fill="#E3E3E3" height="40.9938" rx="2" ry="2" style="stroke:#181818;stroke-width:0.4000000000000001;" width="77.6" x="256.8" y="35.6969"/><text fill="#000000" font-family="sans-serif" font-size="11.2" lengthAdjust="spacing" textLength="59.2" x="266" y="53.3828">repositories</text><text fill="#000000" font-family="sans-serif" font-size="11.2" lengthAdjust="spacing" textLength="66.4" x="262.4" y="68.2797">:Repositories</text><rect fill="#E3E3E3" height="40.9938" rx="2" ry="2" style="stroke:#181818;stroke-width:0.4000000000000001;" width="77.6" x="256.8" y="659.3125"/><text fill="#000000" font-family="sans-serif" font-size="11.2" lengthAdjust="spacing" textLength="59.2" x="266" y="676.9984">repositories</text><text fill="#000000" font-family="sans-serif" font-size="11.2" lengthAdjust="spacing" textLength="66.4" x="262.4" y="691.8953">:Repositories</text><rect fill="#E3E3E3" height="40.9938" rx="2" ry="2" style="stroke:#181818;stroke-width:0.4000000000000001;" width="132.8" x="342.4" y="35.6969"/><text fill="#000000" font-family="sans-serif" font-size="11.2" lengthAdjust="spacing" textLength="116" x="350.8" y="53.3828">greenSpaceRepository</text><text fill="#000000" font-family="sans-serif" font-size="11.2" lengthAdjust="spacing" textLength="121.6" x="348" y="68.2797">:GreenSpaceRepository</text><rect fill="#E3E3E3" height="40.9938" rx="2" ry="2" style="stroke:#181818;stroke-width:0.4000000000000001;" width="132.8" x="342.4" y="659.3125"/><text fill="#000000" font-family="sans-serif" font-size="11.2" lengthAdjust="spacing" textLength="116" x="350.8" y="676.9984">greenSpaceRepository</text><text fill="#000000" font-family="sans-serif" font-size="11.2" lengthAdjust="spacing" textLength="121.6" x="348" y="691.8953">:GreenSpaceRepository</text><rect fill="#E3E3E3" height="26.0969" rx="2" ry="2" style="stroke:#181818;stroke-width:0.4000000000000001;" width="98.4" x="483.2" y="50.5938"/><text fill="#000000" font-family="sans-serif" font-size="11.2" lengthAdjust="spacing" textLength="87.2" x="488.8" y="68.2797">:ToDoListMapper</text><rect fill="#E3E3E3" height="26.0969" rx="2" ry="2" style="stroke:#181818;stroke-width:0.4000000000000001;" width="98.4" x="483.2" y="659.3125"/><text fill="#000000" font-family="sans-serif" font-size="11.2" lengthAdjust="spacing" textLength="87.2" x="488.8" y="676.9984">:ToDoListMapper</text><rect fill="#E3E3E3" height="26.0969" rx="2" ry="2" style="stroke:#181818;stroke-width:0.4000000000000001;" width="36" x="770" y="659.3125"/><text fill="#000000" font-family="sans-serif" font-size="11.2" lengthAdjust="spacing" textLength="24.8" x="775.6" y="676.9984">Task</text><rect fill="#E3E3E3" height="26.0969" rx="2" ry="2" style="stroke:#181818;stroke-width:0.4000000000000001;" width="79.2" x="1008" y="659.3125"/><text fill="#000000" font-family="sans-serif" font-size="11.2" lengthAdjust="spacing" textLength="68" x="1013.6" y="676.9984">TaskDuration</text><rect fill="#FFFFFF" height="567.4219" style="stroke:#181818;stroke-width:0.8000000000000002;" width="8" x="79.6" y="85.4906"/><rect fill="#FFFFFF" height="25.0328" style="stroke:#181818;stroke-width:0.8000000000000002;" width="8" x="206" y="124.1234"/><rect fill="#FFFFFF" height="25.0328" style="stroke:#181818;stroke-width:0.8000000000000002;" width="8" x="291.6" y="174.1891"/><rect fill="#FFFFFF" height="25.0328" style="stroke:#181818;stroke-width:0.8000000000000002;" width="8" x="404.8" y="224.2547"/><rect fill="#FFFFFF" height="351.3922" style="stroke:#181818;stroke-width:0.8000000000000002;" width="8" x="528.4" y="294.3203"/><polygon fill="#181818" points="196.4,120.9234,204.4,124.1234,196.4,127.3234,199.6,124.1234" style="stroke:#181818;stroke-width:0.8000000000000002;"/><line style="stroke:#181818;stroke-width:0.8000000000000002;" x1="87.6" x2="201.2" y1="124.1234" y2="124.1234"/><text fill="#000000" font-family="sans-serif" font-size="10.4" font-weight="bold" lengthAdjust="spacing" textLength="5.6" x="93.2" y="119.9133">1</text><text fill="#000000" font-family="sans-serif" font-size="10.4" lengthAdjust="spacing" textLength="60" x="102" y="119.9133">getInstance()</text><polygon fill="#181818" points="96.4,145.9563,88.4,149.1563,96.4,152.3563,93.2,149.1563" style="stroke:#181818;stroke-width:0.8000000000000002;"/><line style="stroke:#181818;stroke-width:0.8000000000000002;stroke-dasharray:2.0,2.0;" x1="91.6" x2="209.2" y1="149.1563" y2="149.1563"/><text fill="#000000" font-family="sans-serif" font-size="10.4" font-weight="bold" lengthAdjust="spacing" textLength="5.6" x="101.2" y="144.9461">2</text><text fill="#000000" font-family="sans-serif" font-size="10.4" lengthAdjust="spacing" textLength="53.6" x="110" y="144.9461">repositories</text><polygon fill="#181818" points="282,170.9891,290,174.1891,282,177.3891,285.2,174.1891" style="stroke:#181818;stroke-width:0.8000000000000002;"/><line style="stroke:#181818;stroke-width:0.8000000000000002;" x1="87.6" x2="286.8" y1="174.1891" y2="174.1891"/><text fill="#000000" font-family="sans-serif" font-size="10.4" font-weight="bold" lengthAdjust="spacing" textLength="5.6" x="93.2" y="169.9789">3</text><text fill="#000000" font-family="sans-serif" font-size="10.4" lengthAdjust="spacing" textLength="128" x="102" y="169.9789">getGreenSpaceRepository()</text><polygon fill="#181818" points="96.4,196.0219,88.4,199.2219,96.4,202.4219,93.2,199.2219" style="stroke:#181818;stroke-width:0.8000000000000002;"/><line style="stroke:#181818;stroke-width:0.8000000000000002;stroke-dasharray:2.0,2.0;" x1="91.6" x2="294.8" y1="199.2219" y2="199.2219"/><text fill="#000000" font-family="sans-serif" font-size="10.4" font-weight="bold" lengthAdjust="spacing" textLength="5.6" x="101.2" y="195.0117">4</text><text fill="#000000" font-family="sans-serif" font-size="10.4" lengthAdjust="spacing" textLength="104.8" x="110" y="195.0117">greenSpaceRepository</text><polygon fill="#181818" points="395.2,221.0547,403.2,224.2547,395.2,227.4547,398.4,224.2547" style="stroke:#181818;stroke-width:0.8000000000000002;"/><line style="stroke:#181818;stroke-width:0.8000000000000002;" x1="87.6" x2="400" y1="224.2547" y2="224.2547"/><text fill="#000000" font-family="sans-serif" font-size="10.4" font-weight="bold" lengthAdjust="spacing" textLength="5.6" x="93.2" y="220.0445">5</text><text fill="#000000" font-family="sans-serif" font-size="10.4" lengthAdjust="spacing" textLength="212" x="102" y="220.0445">getGreenSpaceByName(toDoTaskDTO.name)</text><polygon fill="#181818" points="96.4,246.0875,88.4,249.2875,96.4,252.4875,93.2,249.2875" style="stroke:#181818;stroke-width:0.8000000000000002;"/><line style="stroke:#181818;stroke-width:0.8000000000000002;stroke-dasharray:2.0,2.0;" x1="91.6" x2="408" y1="249.2875" y2="249.2875"/><text fill="#000000" font-family="sans-serif" font-size="10.4" font-weight="bold" lengthAdjust="spacing" textLength="5.6" x="101.2" y="245.0773">6</text><text fill="#000000" font-family="sans-serif" font-size="10.4" lengthAdjust="spacing" textLength="55.2" x="110" y="245.0773">greenSpace</text><polygon fill="#181818" points="518.8,291.1203,526.8,294.3203,518.8,297.5203,522,294.3203" style="stroke:#181818;stroke-width:0.8000000000000002;"/><line style="stroke:#181818;stroke-width:0.8000000000000002;" x1="87.6" x2="523.6" y1="294.3203" y2="294.3203"/><text fill="#000000" font-family="sans-serif" font-size="10.4" font-weight="bold" lengthAdjust="spacing" textLength="5.6" x="93.2" y="290.1102">7</text><text fill="#000000" font-family="sans-serif" font-size="10.4" lengthAdjust="spacing" textLength="160.8" x="102" y="290.1102">toTask(toDoTaskDTO,greenSpace)</text><polygon fill="#181818" points="760.4,329.9859,768.4,333.1859,760.4,336.3859,763.6,333.1859" style="stroke:#181818;stroke-width:0.8000000000000002;"/><line style="stroke:#181818;stroke-width:0.8000000000000002;" x1="536.4" x2="765.2" y1="333.1859" y2="333.1859"/><text fill="#000000" font-family="sans-serif" font-size="10.4" font-weight="bold" lengthAdjust="spacing" textLength="5.6" x="542" y="322.0594">8</text><text fill="#000000" font-family="sans-serif" font-size="10.4" lengthAdjust="spacing" textLength="172.8" x="550.8" y="315.143">new Task(title, description, taskType,</text><text fill="#000000" font-family="sans-serif" font-size="10.4" lengthAdjust="spacing" textLength="205.6" x="550.8" y="328.9758">greenSpace, urgency, days, hours, minutes)</text><rect fill="#E3E3E3" height="26.0969" rx="2" ry="2" style="stroke:#181818;stroke-width:0.4000000000000001;" width="36" x="770" y="304.6891"/><text fill="#000000" font-family="sans-serif" font-size="11.2" lengthAdjust="spacing" textLength="24.8" x="775.6" y="322.375">Task</text><line style="stroke:#181818;stroke-width:0.8000000000000002;stroke-dasharray:2.0,2.0;" x1="788" x2="821.6" y1="358.2188" y2="358.2188"/><line style="stroke:#181818;stroke-width:0.8000000000000002;stroke-dasharray:2.0,2.0;" x1="821.6" x2="821.6" y1="358.2188" y2="368.6188"/><line style="stroke:#181818;stroke-width:0.8000000000000002;stroke-dasharray:2.0,2.0;" x1="788.8" x2="821.6" y1="368.6188" y2="368.6188"/><polygon fill="#181818" points="796.8,365.4188,788.8,368.6188,796.8,371.8188,793.6,368.6188" style="stroke:#181818;stroke-width:0.8000000000000002;"/><text fill="#000000" font-family="sans-serif" font-size="10.4" font-weight="bold" lengthAdjust="spacing" textLength="5.6" x="793.6" y="354.0086">9</text><text fill="#000000" font-family="sans-serif" font-size="10.4" lengthAdjust="spacing" textLength="76.8" x="802.4" y="354.0086">validateTitle(title)</text><line style="stroke:#181818;stroke-width:0.8000000000000002;stroke-dasharray:2.0,2.0;" x1="788" x2="821.6" y1="393.6516" y2="393.6516"/><line style="stroke:#181818;stroke-width:0.8000000000000002;stroke-dasharray:2.0,2.0;" x1="821.6" x2="821.6" y1="393.6516" y2="404.0516"/><line style="stroke:#181818;stroke-width:0.8000000000000002;stroke-dasharray:2.0,2.0;" x1="788.8" x2="821.6" y1="404.0516" y2="404.0516"/><polygon fill="#181818" points="796.8,400.8516,788.8,404.0516,796.8,407.2516,793.6,404.0516" style="stroke:#181818;stroke-width:0.8000000000000002;"/><text fill="#000000" font-family="sans-serif" font-size="10.4" font-weight="bold" lengthAdjust="spacing" textLength="11.2" x="793.6" y="389.4414">10</text><text fill="#000000" font-family="sans-serif" font-size="10.4" lengthAdjust="spacing" textLength="143.2" x="808" y="389.4414">validateDescription(description)</text><line style="stroke:#181818;stroke-width:0.8000000000000002;stroke-dasharray:2.0,2.0;" x1="788" x2="821.6" y1="429.0844" y2="429.0844"/><line style="stroke:#181818;stroke-width:0.8000000000000002;stroke-dasharray:2.0,2.0;" x1="821.6" x2="821.6" y1="429.0844" y2="439.4844"/><line style="stroke:#181818;stroke-width:0.8000000000000002;stroke-dasharray:2.0,2.0;" x1="788.8" x2="821.6" y1="439.4844" y2="439.4844"/><polygon fill="#181818" points="796.8,436.2844,788.8,439.4844,796.8,442.6844,793.6,439.4844" style="stroke:#181818;stroke-width:0.8000000000000002;"/><text fill="#000000" font-family="sans-serif" font-size="10.4" font-weight="bold" lengthAdjust="spacing" textLength="11.2" x="793.6" y="424.8742">11</text><text fill="#000000" font-family="sans-serif" font-size="10.4" lengthAdjust="spacing" textLength="128" x="808" y="424.8742">validateTaskType(taskType)</text><line style="stroke:#181818;stroke-width:0.8000000000000002;stroke-dasharray:2.0,2.0;" x1="788" x2="821.6" y1="464.5172" y2="464.5172"/><line style="stroke:#181818;stroke-width:0.8000000000000002;stroke-dasharray:2.0,2.0;" x1="821.6" x2="821.6" y1="464.5172" y2="474.9172"/><line style="stroke:#181818;stroke-width:0.8000000000000002;stroke-dasharray:2.0,2.0;" x1="788.8" x2="821.6" y1="474.9172" y2="474.9172"/><polygon fill="#181818" points="796.8,471.7172,788.8,474.9172,796.8,478.1172,793.6,474.9172" style="stroke:#181818;stroke-width:0.8000000000000002;"/><text fill="#000000" font-family="sans-serif" font-size="10.4" font-weight="bold" lengthAdjust="spacing" textLength="11.2" x="793.6" y="460.307">12</text><text fill="#000000" font-family="sans-serif" font-size="10.4" lengthAdjust="spacing" textLength="116" x="808" y="460.307">validateUrgency(urgency)</text><polygon fill="#181818" points="998.4,516.75,1006.4,519.95,998.4,523.15,1001.6,519.95" style="stroke:#181818;stroke-width:0.8000000000000002;"/><line style="stroke:#181818;stroke-width:0.8000000000000002;stroke-dasharray:2.0,2.0;" x1="788" x2="1003.2" y1="519.95" y2="519.95"/><text fill="#000000" font-family="sans-serif" font-size="10.4" font-weight="bold" lengthAdjust="spacing" textLength="11.2" x="793.6" y="515.7398">13</text><text fill="#000000" font-family="sans-serif" font-size="10.4" lengthAdjust="spacing" textLength="186.4" x="808" y="515.7398">new TaskDuration(days, hours, minutes)</text><rect fill="#E3E3E3" height="26.0969" rx="2" ry="2" style="stroke:#181818;stroke-width:0.4000000000000001;" width="79.2" x="1008" y="501.3172"/><text fill="#000000" font-family="sans-serif" font-size="11.2" lengthAdjust="spacing" textLength="68" x="1013.6" y="519.0031">TaskDuration</text><line style="stroke:#181818;stroke-width:0.8000000000000002;stroke-dasharray:2.0,2.0;" x1="1047.6" x2="1081.2" y1="558.8469" y2="558.8469"/><line style="stroke:#181818;stroke-width:0.8000000000000002;stroke-dasharray:2.0,2.0;" x1="1081.2" x2="1081.2" y1="558.8469" y2="569.2469"/><line style="stroke:#181818;stroke-width:0.8000000000000002;stroke-dasharray:2.0,2.0;" x1="1043.6" x2="1081.2" y1="569.2469" y2="569.2469"/><polygon fill="#181818" points="1051.6,566.0469,1043.6,569.2469,1051.6,572.4469,1048.4,569.2469" style="stroke:#181818;stroke-width:0.8000000000000002;"/><text fill="#000000" font-family="sans-serif" font-size="10.4" font-weight="bold" lengthAdjust="spacing" textLength="11.2" x="1053.2" y="554.6367">14</text><text fill="#000000" font-family="sans-serif" font-size="10.4" lengthAdjust="spacing" textLength="199.2" x="1067.6" y="554.6367">validateTaskDuration(days, hours, minutes)</text><line style="stroke:#181818;stroke-width:0.8000000000000002;stroke-dasharray:2.0,2.0;" x1="536.4" x2="570" y1="610.2797" y2="610.2797"/><line style="stroke:#181818;stroke-width:0.8000000000000002;stroke-dasharray:2.0,2.0;" x1="570" x2="570" y1="610.2797" y2="620.6797"/><line style="stroke:#181818;stroke-width:0.8000000000000002;stroke-dasharray:2.0,2.0;" x1="537.2" x2="570" y1="620.6797" y2="620.6797"/><polygon fill="#181818" points="545.2,617.4797,537.2,620.6797,545.2,623.8797,542,620.6797" style="stroke:#181818;stroke-width:0.8000000000000002;"/><text fill="#000000" font-family="sans-serif" font-size="10.4" font-weight="bold" lengthAdjust="spacing" textLength="11.2" x="542" y="606.0695">15</text><text fill="#000000" font-family="sans-serif" font-size="10.4" lengthAdjust="spacing" textLength="20" x="556.4" y="606.0695">task</text><polygon fill="#181818" points="96.4,642.5125,88.4,645.7125,96.4,648.9125,93.2,645.7125" style="stroke:#181818;stroke-width:0.8000000000000002;"/><line style="stroke:#181818;stroke-width:0.8000000000000002;stroke-dasharray:2.0,2.0;" x1="91.6" x2="531.6" y1="645.7125" y2="645.7125"/><text fill="#000000" font-family="sans-serif" font-size="10.4" font-weight="bold" lengthAdjust="spacing" textLength="11.2" x="101.2" y="641.5023">16</text><text fill="#000000" font-family="sans-serif" font-size="10.4" lengthAdjust="spacing" textLength="20" x="115.6" y="641.5023">task</text><!--SRC=[ZLJBRjim4BppAuYSb43E1-XGe8s3ea0Q5xPw2r0mqbPcB942ISKGu8_lYh8UfAb2yi4sTtPsPdSfVUAYPefLj992PaSbAw16DK3q6AbPTc8574nR0bMG6IQASWxGHvRBCnS5_SjA3OGORX1wsFunCfLR_5ICYztx1-OImXeZHLEzWoA4887X6Q-PCFGkay8eMPQWtaJoDSzVuVoC9st7yJJ6xYZJz2dTltZPoHvggRcHYeEseFtphvsBKJC8rWXc_10Q7MRWPXOAG1om5J0cjSZmFN1icMQ16nL9P-Y5Q_EJrVNLa7laubEcJpq8Vn12yM6PuP_CGDy8EdikbulplmFGpHThZIQq03COZEuTu4Xf1JkXxh7v6oIoX0cTjz81v-0oBOaPP5XDeJwYlcM1uvI2GeVeN71eWlyJVbjXKE_Ebde6lhMlh8B8u42xUMtJtQF0WwdPOnLlHnmnNesW3n9Gxd66jcAmuQuSCXihUAuydeej3SDRt9jnU5MwkiXD7nwme80pxKjsBumOVUXCyTfmAM9gC92sDSHlOb8HqqOL8B8MmQpLCJtAHk5NnKLZG7iYRQNDK3AXdwpaEOfEkt9zqVjL2Tj9M3GJkIuvlHg91aVhqdxtHgEhOS-QVyqTbcsZMAVFQV9m68KRvvCDy1jIpzbwMa_oR6cdzzhIrWJNTKtMzT9OxC9bzpVu7m00]--></g></svg>