<?xml version="1.0" encoding="us-ascii" standalone="no"?><svg xmlns="http://www.w3.org/2000/svg" xmlns:xlink="http://www.w3.org/1999/xlink" contentStyleType="text/css" height="881px" preserveAspectRatio="none" style="width:1590px;height:881px;background:#FFFFFF;" version="1.1" viewBox="0 0 1590 881" width="1590px" zoomAndPan="magnify"><defs/><g><text fill="#000000" font-family="sans-serif" font-size="14" font-weight="bold" lengthAdjust="spacing" textLength="175" x="707.25" y="30.1074">SD_toToDoDomainObject</text><rect fill="#FFFFFF" height="709.2773" style="stroke:#181818;stroke-width:1.0;" width="10" x="99.5" y="106.8633"/><rect fill="#FFFFFF" height="31.291" style="stroke:#181818;stroke-width:1.0;" width="10" x="257.5" y="155.1543"/><rect fill="#FFFFFF" height="31.291" style="stroke:#181818;stroke-width:1.0;" width="10" x="364.5" y="217.7363"/><rect fill="#FFFFFF" height="31.291" style="stroke:#181818;stroke-width:1.0;" width="10" x="506" y="280.3184"/><rect fill="#FFFFFF" height="439.2402" style="stroke:#181818;stroke-width:1.0;" width="10" x="660.5" y="367.9004"/><line style="stroke:#181818;stroke-width:0.5;stroke-dasharray:5.0,5.0;" x1="104" x2="104" y1="96.8633" y2="825.1406"/><line style="stroke:#181818;stroke-width:0.5;stroke-dasharray:5.0,5.0;" x1="262" x2="262" y1="96.8633" y2="825.1406"/><line style="stroke:#181818;stroke-width:0.5;stroke-dasharray:5.0,5.0;" x1="369" x2="369" y1="96.8633" y2="825.1406"/><line style="stroke:#181818;stroke-width:0.5;stroke-dasharray:5.0,5.0;" x1="511" x2="511" y1="96.8633" y2="825.1406"/><line style="stroke:#181818;stroke-width:0.5;stroke-dasharray:5.0,5.0;" x1="665" x2="665" y1="96.8633" y2="825.1406"/><line style="stroke:#181818;stroke-width:0.5;stroke-dasharray:5.0,5.0;" x1="984.5" x2="984.5" y1="410.1914" y2="825.1406"/><line style="stroke:#181818;stroke-width:0.5;stroke-dasharray:5.0,5.0;" x1="1309" x2="1309" y1="658.457" y2="825.1406"/><rect fill="#E3E3E3" height="51.2422" rx="2.5" ry="2.5" style="stroke:#181818;stroke-width:0.5;" width="199" x="5" y="44.6211"/><text fill="#000000" font-family="sans-serif" font-size="14" lengthAdjust="spacing" textLength="59" x="75" y="66.7285">controller</text><text fill="#000000" font-family="sans-serif" font-size="14" lengthAdjust="spacing" textLength="185" x="12" y="85.3496">:AddNewEntryToDoController</text><rect fill="#E3E3E3" height="51.2422" rx="2.5" ry="2.5" style="stroke:#181818;stroke-width:0.5;" width="199" x="5" y="824.1406"/><text fill="#000000" font-family="sans-serif" font-size="14" lengthAdjust="spacing" textLength="59" x="75" y="846.248">controller</text><text fill="#000000" font-family="sans-serif" font-size="14" lengthAdjust="spacing" textLength="185" x="12" y="864.8691">:AddNewEntryToDoController</text><rect fill="#E3E3E3" height="32.6211" rx="2.5" ry="2.5" style="stroke:#181818;stroke-width:0.5;" width="97" x="214" y="63.2422"/><text fill="#000000" font-family="sans-serif" font-size="14" lengthAdjust="spacing" textLength="83" x="221" y="85.3496">:Repositories</text><rect fill="#E3E3E3" height="32.6211" rx="2.5" ry="2.5" style="stroke:#181818;stroke-width:0.5;" width="97" x="214" y="824.1406"/><text fill="#000000" font-family="sans-serif" font-size="14" lengthAdjust="spacing" textLength="83" x="221" y="846.248">:Repositories</text><rect fill="#E3E3E3" height="51.2422" rx="2.5" ry="2.5" style="stroke:#181818;stroke-width:0.5;" width="97" x="321" y="44.6211"/><text fill="#000000" font-family="sans-serif" font-size="14" lengthAdjust="spacing" textLength="74" x="332.5" y="66.7285">repositories</text><text fill="#000000" font-family="sans-serif" font-size="14" lengthAdjust="spacing" textLength="83" x="328" y="85.3496">:Repositories</text><rect fill="#E3E3E3" height="51.2422" rx="2.5" ry="2.5" style="stroke:#181818;stroke-width:0.5;" width="97" x="321" y="824.1406"/><text fill="#000000" font-family="sans-serif" font-size="14" lengthAdjust="spacing" textLength="74" x="332.5" y="846.248">repositories</text><text fill="#000000" font-family="sans-serif" font-size="14" lengthAdjust="spacing" textLength="83" x="328" y="864.8691">:Repositories</text><rect fill="#E3E3E3" height="51.2422" rx="2.5" ry="2.5" style="stroke:#181818;stroke-width:0.5;" width="166" x="428" y="44.6211"/><text fill="#000000" font-family="sans-serif" font-size="14" lengthAdjust="spacing" textLength="145" x="438.5" y="66.7285">greenSpaceRepository</text><text fill="#000000" font-family="sans-serif" font-size="14" lengthAdjust="spacing" textLength="152" x="435" y="85.3496">:GreenSpaceRepository</text><rect fill="#E3E3E3" height="51.2422" rx="2.5" ry="2.5" style="stroke:#181818;stroke-width:0.5;" width="166" x="428" y="824.1406"/><text fill="#000000" font-family="sans-serif" font-size="14" lengthAdjust="spacing" textLength="145" x="438.5" y="846.248">greenSpaceRepository</text><text fill="#000000" font-family="sans-serif" font-size="14" lengthAdjust="spacing" textLength="152" x="435" y="864.8691">:GreenSpaceRepository</text><rect fill="#E3E3E3" height="32.6211" rx="2.5" ry="2.5" style="stroke:#181818;stroke-width:0.5;" width="123" x="604" y="63.2422"/><text fill="#000000" font-family="sans-serif" font-size="14" lengthAdjust="spacing" textLength="109" x="611" y="85.3496">:ToDoListMapper</text><rect fill="#E3E3E3" height="32.6211" rx="2.5" ry="2.5" style="stroke:#181818;stroke-width:0.5;" width="123" x="604" y="824.1406"/><text fill="#000000" font-family="sans-serif" font-size="14" lengthAdjust="spacing" textLength="109" x="611" y="846.248">:ToDoListMapper</text><rect fill="#E3E3E3" height="32.6211" rx="2.5" ry="2.5" style="stroke:#181818;stroke-width:0.5;" width="45" x="962.5" y="824.1406"/><text fill="#000000" font-family="sans-serif" font-size="14" lengthAdjust="spacing" textLength="31" x="969.5" y="846.248">Task</text><rect fill="#E3E3E3" height="32.6211" rx="2.5" ry="2.5" style="stroke:#181818;stroke-width:0.5;" width="99" x="1260" y="824.1406"/><text fill="#000000" font-family="sans-serif" font-size="14" lengthAdjust="spacing" textLength="85" x="1267" y="846.248">TaskDuration</text><rect fill="#FFFFFF" height="709.2773" style="stroke:#181818;stroke-width:1.0;" width="10" x="99.5" y="106.8633"/><rect fill="#FFFFFF" height="31.291" style="stroke:#181818;stroke-width:1.0;" width="10" x="257.5" y="155.1543"/><rect fill="#FFFFFF" height="31.291" style="stroke:#181818;stroke-width:1.0;" width="10" x="364.5" y="217.7363"/><rect fill="#FFFFFF" height="31.291" style="stroke:#181818;stroke-width:1.0;" width="10" x="506" y="280.3184"/><rect fill="#FFFFFF" height="439.2402" style="stroke:#181818;stroke-width:1.0;" width="10" x="660.5" y="367.9004"/><polygon fill="#181818" points="245.5,151.1543,255.5,155.1543,245.5,159.1543,249.5,155.1543" style="stroke:#181818;stroke-width:1.0;"/><line style="stroke:#181818;stroke-width:1.0;" x1="109.5" x2="251.5" y1="155.1543" y2="155.1543"/><text fill="#000000" font-family="sans-serif" font-size="13" font-weight="bold" lengthAdjust="spacing" textLength="7" x="116.5" y="149.8916">1</text><text fill="#000000" font-family="sans-serif" font-size="13" lengthAdjust="spacing" textLength="75" x="127.5" y="149.8916">getInstance()</text><polygon fill="#181818" points="120.5,182.4453,110.5,186.4453,120.5,190.4453,116.5,186.4453" style="stroke:#181818;stroke-width:1.0;"/><line style="stroke:#181818;stroke-width:1.0;stroke-dasharray:2.0,2.0;" x1="114.5" x2="261.5" y1="186.4453" y2="186.4453"/><text fill="#000000" font-family="sans-serif" font-size="13" font-weight="bold" lengthAdjust="spacing" textLength="7" x="126.5" y="181.1826">2</text><text fill="#000000" font-family="sans-serif" font-size="13" lengthAdjust="spacing" textLength="67" x="137.5" y="181.1826">repositories</text><polygon fill="#181818" points="352.5,213.7363,362.5,217.7363,352.5,221.7363,356.5,217.7363" style="stroke:#181818;stroke-width:1.0;"/><line style="stroke:#181818;stroke-width:1.0;" x1="109.5" x2="358.5" y1="217.7363" y2="217.7363"/><text fill="#000000" font-family="sans-serif" font-size="13" font-weight="bold" lengthAdjust="spacing" textLength="7" x="116.5" y="212.4736">3</text><text fill="#000000" font-family="sans-serif" font-size="13" lengthAdjust="spacing" textLength="160" x="127.5" y="212.4736">getGreenSpaceRepository()</text><polygon fill="#181818" points="120.5,245.0273,110.5,249.0273,120.5,253.0273,116.5,249.0273" style="stroke:#181818;stroke-width:1.0;"/><line style="stroke:#181818;stroke-width:1.0;stroke-dasharray:2.0,2.0;" x1="114.5" x2="368.5" y1="249.0273" y2="249.0273"/><text fill="#000000" font-family="sans-serif" font-size="13" font-weight="bold" lengthAdjust="spacing" textLength="7" x="126.5" y="243.7646">4</text><text fill="#000000" font-family="sans-serif" font-size="13" lengthAdjust="spacing" textLength="131" x="137.5" y="243.7646">greenSpaceRepository</text><polygon fill="#181818" points="494,276.3184,504,280.3184,494,284.3184,498,280.3184" style="stroke:#181818;stroke-width:1.0;"/><line style="stroke:#181818;stroke-width:1.0;" x1="109.5" x2="500" y1="280.3184" y2="280.3184"/><text fill="#000000" font-family="sans-serif" font-size="13" font-weight="bold" lengthAdjust="spacing" textLength="7" x="116.5" y="275.0557">5</text><text fill="#000000" font-family="sans-serif" font-size="13" lengthAdjust="spacing" textLength="336" x="127.5" y="275.0557">getGreenSpaceByName(toDoTaskDTO.greenSpaceName)</text><polygon fill="#181818" points="120.5,307.6094,110.5,311.6094,120.5,315.6094,116.5,311.6094" style="stroke:#181818;stroke-width:1.0;"/><line style="stroke:#181818;stroke-width:1.0;stroke-dasharray:2.0,2.0;" x1="114.5" x2="510" y1="311.6094" y2="311.6094"/><text fill="#000000" font-family="sans-serif" font-size="13" font-weight="bold" lengthAdjust="spacing" textLength="7" x="126.5" y="306.3467">6</text><text fill="#000000" font-family="sans-serif" font-size="13" lengthAdjust="spacing" textLength="69" x="137.5" y="306.3467">greenSpace</text><polygon fill="#181818" points="648.5,363.9004,658.5,367.9004,648.5,371.9004,652.5,367.9004" style="stroke:#181818;stroke-width:1.0;"/><line style="stroke:#181818;stroke-width:1.0;" x1="109.5" x2="654.5" y1="367.9004" y2="367.9004"/><text fill="#000000" font-family="sans-serif" font-size="13" font-weight="bold" lengthAdjust="spacing" textLength="7" x="116.5" y="362.6377">7</text><text fill="#000000" font-family="sans-serif" font-size="13" lengthAdjust="spacing" textLength="201" x="127.5" y="362.6377">toTask(toDoTaskDTO,greenSpace)</text><polygon fill="#181818" points="950.5,412.4824,960.5,416.4824,950.5,420.4824,954.5,416.4824" style="stroke:#181818;stroke-width:1.0;"/><line style="stroke:#181818;stroke-width:1.0;" x1="670.5" x2="956.5" y1="416.4824" y2="416.4824"/><text fill="#000000" font-family="sans-serif" font-size="13" font-weight="bold" lengthAdjust="spacing" textLength="7" x="677.5" y="402.5742">8</text><text fill="#000000" font-family="sans-serif" font-size="13" lengthAdjust="spacing" textLength="216" x="688.5" y="393.9287">new Task(title, description, taskType,</text><text fill="#000000" font-family="sans-serif" font-size="13" lengthAdjust="spacing" textLength="257" x="688.5" y="411.2197">greenSpace, urgency, days, hours, minutes)</text><rect fill="#E3E3E3" height="32.6211" rx="2.5" ry="2.5" style="stroke:#181818;stroke-width:0.5;" width="45" x="962.5" y="380.8613"/><text fill="#000000" font-family="sans-serif" font-size="14" lengthAdjust="spacing" textLength="31" x="969.5" y="402.9688">Task</text><line style="stroke:#181818;stroke-width:1.0;stroke-dasharray:2.0,2.0;" x1="985" x2="1027" y1="447.7734" y2="447.7734"/><line style="stroke:#181818;stroke-width:1.0;stroke-dasharray:2.0,2.0;" x1="1027" x2="1027" y1="447.7734" y2="460.7734"/><line style="stroke:#181818;stroke-width:1.0;stroke-dasharray:2.0,2.0;" x1="986" x2="1027" y1="460.7734" y2="460.7734"/><polygon fill="#181818" points="996,456.7734,986,460.7734,996,464.7734,992,460.7734" style="stroke:#181818;stroke-width:1.0;"/><text fill="#000000" font-family="sans-serif" font-size="13" font-weight="bold" lengthAdjust="spacing" textLength="7" x="992" y="442.5107">9</text><text fill="#000000" font-family="sans-serif" font-size="13" lengthAdjust="spacing" textLength="96" x="1003" y="442.5107">validateTitle(title)</text><line style="stroke:#181818;stroke-width:1.0;stroke-dasharray:2.0,2.0;" x1="985" x2="1027" y1="492.0645" y2="492.0645"/><line style="stroke:#181818;stroke-width:1.0;stroke-dasharray:2.0,2.0;" x1="1027" x2="1027" y1="492.0645" y2="505.0645"/><line style="stroke:#181818;stroke-width:1.0;stroke-dasharray:2.0,2.0;" x1="986" x2="1027" y1="505.0645" y2="505.0645"/><polygon fill="#181818" points="996,501.0645,986,505.0645,996,509.0645,992,505.0645" style="stroke:#181818;stroke-width:1.0;"/><text fill="#000000" font-family="sans-serif" font-size="13" font-weight="bold" lengthAdjust="spacing" textLength="14" x="992" y="486.8018">10</text><text fill="#000000" font-family="sans-serif" font-size="13" lengthAdjust="spacing" textLength="179" x="1010" y="486.8018">validateDescription(description)</text><line style="stroke:#181818;stroke-width:1.0;stroke-dasharray:2.0,2.0;" x1="985" x2="1027" y1="536.3555" y2="536.3555"/><line style="stroke:#181818;stroke-width:1.0;stroke-dasharray:2.0,2.0;" x1="1027" x2="1027" y1="536.3555" y2="549.3555"/><line style="stroke:#181818;stroke-width:1.0;stroke-dasharray:2.0,2.0;" x1="986" x2="1027" y1="549.3555" y2="549.3555"/><polygon fill="#181818" points="996,545.3555,986,549.3555,996,553.3555,992,549.3555" style="stroke:#181818;stroke-width:1.0;"/><text fill="#000000" font-family="sans-serif" font-size="13" font-weight="bold" lengthAdjust="spacing" textLength="14" x="992" y="531.0928">11</text><text fill="#000000" font-family="sans-serif" font-size="13" lengthAdjust="spacing" textLength="160" x="1010" y="531.0928">validateTaskType(taskType)</text><line style="stroke:#181818;stroke-width:1.0;stroke-dasharray:2.0,2.0;" x1="985" x2="1027" y1="580.6465" y2="580.6465"/><line style="stroke:#181818;stroke-width:1.0;stroke-dasharray:2.0,2.0;" x1="1027" x2="1027" y1="580.6465" y2="593.6465"/><line style="stroke:#181818;stroke-width:1.0;stroke-dasharray:2.0,2.0;" x1="986" x2="1027" y1="593.6465" y2="593.6465"/><polygon fill="#181818" points="996,589.6465,986,593.6465,996,597.6465,992,593.6465" style="stroke:#181818;stroke-width:1.0;"/><text fill="#000000" font-family="sans-serif" font-size="13" font-weight="bold" lengthAdjust="spacing" textLength="14" x="992" y="575.3838">12</text><text fill="#000000" font-family="sans-serif" font-size="13" lengthAdjust="spacing" textLength="145" x="1010" y="575.3838">validateUrgency(urgency)</text><polygon fill="#181818" points="1248,645.9375,1258,649.9375,1248,653.9375,1252,649.9375" style="stroke:#181818;stroke-width:1.0;"/><line style="stroke:#181818;stroke-width:1.0;stroke-dasharray:2.0,2.0;" x1="985" x2="1254" y1="649.9375" y2="649.9375"/><text fill="#000000" font-family="sans-serif" font-size="13" font-weight="bold" lengthAdjust="spacing" textLength="14" x="992" y="644.6748">13</text><text fill="#000000" font-family="sans-serif" font-size="13" lengthAdjust="spacing" textLength="233" x="1010" y="644.6748">new TaskDuration(days, hours, minutes)</text><rect fill="#E3E3E3" height="32.6211" rx="2.5" ry="2.5" style="stroke:#181818;stroke-width:0.5;" width="99" x="1260" y="626.6465"/><text fill="#000000" font-family="sans-serif" font-size="14" lengthAdjust="spacing" textLength="85" x="1267" y="648.7539">TaskDuration</text><line style="stroke:#181818;stroke-width:1.0;stroke-dasharray:2.0,2.0;" x1="1309.5" x2="1351.5" y1="698.5586" y2="698.5586"/><line style="stroke:#181818;stroke-width:1.0;stroke-dasharray:2.0,2.0;" x1="1351.5" x2="1351.5" y1="698.5586" y2="711.5586"/><line style="stroke:#181818;stroke-width:1.0;stroke-dasharray:2.0,2.0;" x1="1304.5" x2="1351.5" y1="711.5586" y2="711.5586"/><polygon fill="#181818" points="1314.5,707.5586,1304.5,711.5586,1314.5,715.5586,1310.5,711.5586" style="stroke:#181818;stroke-width:1.0;"/><text fill="#000000" font-family="sans-serif" font-size="13" font-weight="bold" lengthAdjust="spacing" textLength="14" x="1316.5" y="693.2959">14</text><text fill="#000000" font-family="sans-serif" font-size="13" lengthAdjust="spacing" textLength="249" x="1334.5" y="693.2959">validateTaskDuration(days, hours, minutes)</text><line style="stroke:#181818;stroke-width:1.0;stroke-dasharray:2.0,2.0;" x1="670.5" x2="712.5" y1="762.8496" y2="762.8496"/><line style="stroke:#181818;stroke-width:1.0;stroke-dasharray:2.0,2.0;" x1="712.5" x2="712.5" y1="762.8496" y2="775.8496"/><line style="stroke:#181818;stroke-width:1.0;stroke-dasharray:2.0,2.0;" x1="671.5" x2="712.5" y1="775.8496" y2="775.8496"/><polygon fill="#181818" points="681.5,771.8496,671.5,775.8496,681.5,779.8496,677.5,775.8496" style="stroke:#181818;stroke-width:1.0;"/><text fill="#000000" font-family="sans-serif" font-size="13" font-weight="bold" lengthAdjust="spacing" textLength="14" x="677.5" y="757.5869">15</text><text fill="#000000" font-family="sans-serif" font-size="13" lengthAdjust="spacing" textLength="25" x="695.5" y="757.5869">task</text><polygon fill="#181818" points="120.5,803.1406,110.5,807.1406,120.5,811.1406,116.5,807.1406" style="stroke:#181818;stroke-width:1.0;"/><line style="stroke:#181818;stroke-width:1.0;stroke-dasharray:2.0,2.0;" x1="114.5" x2="664.5" y1="807.1406" y2="807.1406"/><text fill="#000000" font-family="sans-serif" font-size="13" font-weight="bold" lengthAdjust="spacing" textLength="14" x="126.5" y="801.8779">16</text><text fill="#000000" font-family="sans-serif" font-size="13" lengthAdjust="spacing" textLength="25" x="144.5" y="801.8779">task</text><!--SRC=[ZLJDRjim3BxhAOIUtCBf0_WmO6kAOK3N38btAp2eDkUeiIL3aXiOoCEFikCVAV9Wvv149ByVah8-SL4pnIfQII6pev8LKACQ87gCr2mxiG8EfYs1AiWC4qKvJz17biip5mNzoqeDX1XkCFMm_MDaAhVugHWNk_SFh2M4DKQAfde7HGX10CCpNZDXw5qcXL6oB46zYUHhdh_2-HbFMelnDCRkADFqATs_UDN97cgfkP6AW-wIzi-_TcwEcgKWHx3YXz3eC0Etib00ue2jWB6eHOJlWUCEQHQuKP5OGozScv-ihg-6t2CtFsNwr2VX3q8eFYmp_9CPw1j1Py_bSd7-smIw-T9Pemajm0m6etidSOJi13iX-tJr6mJg01CwRwMJd8EBj2HcaD5f2lKHzIqB7ASK53f4vu934_oVy5k6GRqxM-eP-DQ-iWeYWmEryzgckyU9seQcjezythOuiZose2CIyE1XXlPZCEGk7oARJlhSGpoHBOt5M-6RmNWibXUnwSC34WeuqvxIlZfYzA4pnMl3fOYfmK3QrX2_YKb5J1jLWCXQJ6QjZkbHDWg_AYuQ0zeJsJ5j1ig4VhAIvoWwjNGzwVsgWkqaB9g9N5USNer4WwDrPRzxez7Li6VDl_0EohPHpEfpcZmSHk76-M13-Wsevsmzh2TvjhJJ6svfQuBhkgRgUccwt8Lhxs_mFm00]--></g></svg>