<?xml version="1.0" encoding="us-ascii" standalone="no"?><svg xmlns="http://www.w3.org/2000/svg" xmlns:xlink="http://www.w3.org/1999/xlink" contentStyleType="text/css" height="1066px" preserveAspectRatio="none" style="width:1851px;height:1066px;background:#FFFFFF;" version="1.1" viewBox="0 0 1851 1066" width="1851px" zoomAndPan="magnify"><defs/><g><text fill="#000000" font-family="sans-serif" font-size="14" font-weight="bold" lengthAdjust="spacing" textLength="178" x="838" y="30.1074">SD_toGreenSpaceDTOlist</text><rect fill="#FFFFFF" height="893.8965" style="stroke:#181818;stroke-width:1.0;" width="10" x="74.5" y="106.8633"/><rect fill="#FFFFFF" height="861.6055" style="stroke:#181818;stroke-width:1.0;" width="10" x="309.5" y="130.1543"/><rect fill="#FFFFFF" height="31.291" style="stroke:#181818;stroke-width:1.0;" width="10" x="487.5" y="161.4453"/><rect fill="#FFFFFF" height="31.291" style="stroke:#181818;stroke-width:1.0;" width="10" x="634.5" y="224.0273"/><rect fill="#FFFFFF" height="31.291" style="stroke:#181818;stroke-width:1.0;" width="10" x="761.5" y="286.6094"/><rect fill="#FFFFFF" height="31.291" style="stroke:#181818;stroke-width:1.0;" width="10" x="847.5" y="349.1914"/><rect fill="#FFFFFF" height="31.291" style="stroke:#181818;stroke-width:1.0;" width="10" x="933.5" y="481.0645"/><rect fill="#FFFFFF" height="31.291" style="stroke:#181818;stroke-width:1.0;" width="10" x="1040.5" y="543.6465"/><rect fill="#FFFFFF" height="31.291" style="stroke:#181818;stroke-width:1.0;" width="10" x="1182" y="606.2285"/><rect fill="#FFFFFF" height="291.6582" style="stroke:#181818;stroke-width:1.0;" width="10" x="1348" y="668.8105"/><rect fill="none" height="246.3672" style="stroke:#000000;stroke-width:1.5;" width="575" x="1270" y="683.8105"/><line style="stroke:#181818;stroke-width:0.5;stroke-dasharray:5.0,5.0;" x1="79" x2="79" y1="96.8633" y2="1009.7598"/><line style="stroke:#181818;stroke-width:0.5;stroke-dasharray:5.0,5.0;" x1="314" x2="314" y1="96.8633" y2="1009.7598"/><line style="stroke:#181818;stroke-width:0.5;stroke-dasharray:5.0,5.0;" x1="492" x2="492" y1="96.8633" y2="1009.7598"/><line style="stroke:#181818;stroke-width:0.5;stroke-dasharray:5.0,5.0;" x1="639" x2="639" y1="96.8633" y2="1009.7598"/><line style="stroke:#181818;stroke-width:0.5;stroke-dasharray:5.0,5.0;" x1="766" x2="766" y1="96.8633" y2="1009.7598"/><line style="stroke:#181818;stroke-width:0.5;stroke-dasharray:5.0,5.0;" x1="852" x2="852" y1="96.8633" y2="1009.7598"/><line style="stroke:#181818;stroke-width:0.5;stroke-dasharray:5.0,5.0;" x1="938" x2="938" y1="96.8633" y2="1009.7598"/><line style="stroke:#181818;stroke-width:0.5;stroke-dasharray:5.0,5.0;" x1="1045" x2="1045" y1="96.8633" y2="1009.7598"/><line style="stroke:#181818;stroke-width:0.5;stroke-dasharray:5.0,5.0;" x1="1187" x2="1187" y1="96.8633" y2="1009.7598"/><line style="stroke:#181818;stroke-width:0.5;stroke-dasharray:5.0,5.0;" x1="1353" x2="1353" y1="96.8633" y2="1009.7598"/><line style="stroke:#181818;stroke-width:0.5;stroke-dasharray:5.0,5.0;" x1="1578" x2="1578" y1="759.9121" y2="1009.7598"/><rect fill="#E3E3E3" height="32.6211" rx="2.5" ry="2.5" style="stroke:#181818;stroke-width:0.5;" width="149" x="5" y="63.2422"/><text fill="#000000" font-family="sans-serif" font-size="14" lengthAdjust="spacing" textLength="135" x="12" y="85.3496">:AddNewEntryToDoUI</text><rect fill="#E3E3E3" height="32.6211" rx="2.5" ry="2.5" style="stroke:#181818;stroke-width:0.5;" width="149" x="5" y="1008.7598"/><text fill="#000000" font-family="sans-serif" font-size="14" lengthAdjust="spacing" textLength="135" x="12" y="1030.8672">:AddNewEntryToDoUI</text><rect fill="#E3E3E3" height="51.2422" rx="2.5" ry="2.5" style="stroke:#181818;stroke-width:0.5;" width="199" x="215" y="44.6211"/><text fill="#000000" font-family="sans-serif" font-size="14" lengthAdjust="spacing" textLength="59" x="285" y="66.7285">controller</text><text fill="#000000" font-family="sans-serif" font-size="14" lengthAdjust="spacing" textLength="185" x="222" y="85.3496">:AddNewEntryToDoController</text><rect fill="#E3E3E3" height="51.2422" rx="2.5" ry="2.5" style="stroke:#181818;stroke-width:0.5;" width="199" x="215" y="1008.7598"/><text fill="#000000" font-family="sans-serif" font-size="14" lengthAdjust="spacing" textLength="59" x="285" y="1030.8672">controller</text><text fill="#000000" font-family="sans-serif" font-size="14" lengthAdjust="spacing" textLength="185" x="222" y="1049.4883">:AddNewEntryToDoController</text><rect fill="#E3E3E3" height="32.6211" rx="2.5" ry="2.5" style="stroke:#181818;stroke-width:0.5;" width="137" x="424" y="63.2422"/><text fill="#000000" font-family="sans-serif" font-size="14" lengthAdjust="spacing" textLength="123" x="431" y="85.3496">:ApplicationSession</text><rect fill="#E3E3E3" height="32.6211" rx="2.5" ry="2.5" style="stroke:#181818;stroke-width:0.5;" width="137" x="424" y="1008.7598"/><text fill="#000000" font-family="sans-serif" font-size="14" lengthAdjust="spacing" textLength="123" x="431" y="1030.8672">:ApplicationSession</text><rect fill="#E3E3E3" height="51.2422" rx="2.5" ry="2.5" style="stroke:#181818;stroke-width:0.5;" width="137" x="571" y="44.6211"/><text fill="#000000" font-family="sans-serif" font-size="14" lengthAdjust="spacing" textLength="57" x="611" y="66.7285">singleton</text><text fill="#000000" font-family="sans-serif" font-size="14" lengthAdjust="spacing" textLength="123" x="578" y="85.3496">:ApplicationSession</text><rect fill="#E3E3E3" height="51.2422" rx="2.5" ry="2.5" style="stroke:#181818;stroke-width:0.5;" width="137" x="571" y="1008.7598"/><text fill="#000000" font-family="sans-serif" font-size="14" lengthAdjust="spacing" textLength="57" x="611" y="1030.8672">singleton</text><text fill="#000000" font-family="sans-serif" font-size="14" lengthAdjust="spacing" textLength="123" x="578" y="1049.4883">:ApplicationSession</text><rect fill="#E3E3E3" height="51.2422" rx="2.5" ry="2.5" style="stroke:#181818;stroke-width:0.5;" width="97" x="718" y="44.6211"/><text fill="#000000" font-family="sans-serif" font-size="14" lengthAdjust="spacing" textLength="78" x="727.5" y="66.7285">userSession</text><text fill="#000000" font-family="sans-serif" font-size="14" lengthAdjust="spacing" textLength="83" x="725" y="85.3496">:UserSession</text><rect fill="#E3E3E3" height="51.2422" rx="2.5" ry="2.5" style="stroke:#181818;stroke-width:0.5;" width="97" x="718" y="1008.7598"/><text fill="#000000" font-family="sans-serif" font-size="14" lengthAdjust="spacing" textLength="78" x="727.5" y="1030.8672">userSession</text><text fill="#000000" font-family="sans-serif" font-size="14" lengthAdjust="spacing" textLength="83" x="725" y="1049.4883">:UserSession</text><rect fill="#E3E3E3" height="51.2422" rx="2.5" ry="2.5" style="stroke:#181818;stroke-width:0.5;" width="55" x="825" y="44.6211"/><text fill="#000000" font-family="sans-serif" font-size="14" lengthAdjust="spacing" textLength="41" x="832" y="66.7285">userID</text><text fill="#000000" font-family="sans-serif" font-size="14" lengthAdjust="spacing" textLength="38" x="833.5" y="85.3496">:Email</text><rect fill="#E3E3E3" height="51.2422" rx="2.5" ry="2.5" style="stroke:#181818;stroke-width:0.5;" width="55" x="825" y="1008.7598"/><text fill="#000000" font-family="sans-serif" font-size="14" lengthAdjust="spacing" textLength="41" x="832" y="1030.8672">userID</text><text fill="#000000" font-family="sans-serif" font-size="14" lengthAdjust="spacing" textLength="38" x="833.5" y="1049.4883">:Email</text><rect fill="#E3E3E3" height="32.6211" rx="2.5" ry="2.5" style="stroke:#181818;stroke-width:0.5;" width="97" x="890" y="63.2422"/><text fill="#000000" font-family="sans-serif" font-size="14" lengthAdjust="spacing" textLength="83" x="897" y="85.3496">:Repositories</text><rect fill="#E3E3E3" height="32.6211" rx="2.5" ry="2.5" style="stroke:#181818;stroke-width:0.5;" width="97" x="890" y="1008.7598"/><text fill="#000000" font-family="sans-serif" font-size="14" lengthAdjust="spacing" textLength="83" x="897" y="1030.8672">:Repositories</text><rect fill="#E3E3E3" height="51.2422" rx="2.5" ry="2.5" style="stroke:#181818;stroke-width:0.5;" width="97" x="997" y="44.6211"/><text fill="#000000" font-family="sans-serif" font-size="14" lengthAdjust="spacing" textLength="74" x="1008.5" y="66.7285">repositories</text><text fill="#000000" font-family="sans-serif" font-size="14" lengthAdjust="spacing" textLength="83" x="1004" y="85.3496">:Repositories</text><rect fill="#E3E3E3" height="51.2422" rx="2.5" ry="2.5" style="stroke:#181818;stroke-width:0.5;" width="97" x="997" y="1008.7598"/><text fill="#000000" font-family="sans-serif" font-size="14" lengthAdjust="spacing" textLength="74" x="1008.5" y="1030.8672">repositories</text><text fill="#000000" font-family="sans-serif" font-size="14" lengthAdjust="spacing" textLength="83" x="1004" y="1049.4883">:Repositories</text><rect fill="#E3E3E3" height="51.2422" rx="2.5" ry="2.5" style="stroke:#181818;stroke-width:0.5;" width="166" x="1104" y="44.6211"/><text fill="#000000" font-family="sans-serif" font-size="14" lengthAdjust="spacing" textLength="145" x="1114.5" y="66.7285">greenSpaceRepository</text><text fill="#000000" font-family="sans-serif" font-size="14" lengthAdjust="spacing" textLength="152" x="1111" y="85.3496">:GreenSpaceRepository</text><rect fill="#E3E3E3" height="51.2422" rx="2.5" ry="2.5" style="stroke:#181818;stroke-width:0.5;" width="166" x="1104" y="1008.7598"/><text fill="#000000" font-family="sans-serif" font-size="14" lengthAdjust="spacing" textLength="145" x="1114.5" y="1030.8672">greenSpaceRepository</text><text fill="#000000" font-family="sans-serif" font-size="14" lengthAdjust="spacing" textLength="152" x="1111" y="1049.4883">:GreenSpaceRepository</text><rect fill="#E3E3E3" height="32.6211" rx="2.5" ry="2.5" style="stroke:#181818;stroke-width:0.5;" width="146" x="1280" y="63.2422"/><text fill="#000000" font-family="sans-serif" font-size="14" lengthAdjust="spacing" textLength="132" x="1287" y="85.3496">:GreenSpaceMapper</text><rect fill="#E3E3E3" height="32.6211" rx="2.5" ry="2.5" style="stroke:#181818;stroke-width:0.5;" width="146" x="1280" y="1008.7598"/><text fill="#000000" font-family="sans-serif" font-size="14" lengthAdjust="spacing" textLength="132" x="1287" y="1030.8672">:GreenSpaceMapper</text><rect fill="#E3E3E3" height="32.6211" rx="2.5" ry="2.5" style="stroke:#181818;stroke-width:0.5;" width="128" x="1514" y="1008.7598"/><text fill="#000000" font-family="sans-serif" font-size="14" lengthAdjust="spacing" textLength="114" x="1521" y="1030.8672">:GreenSpaceDTO</text><rect fill="#FFFFFF" height="893.8965" style="stroke:#181818;stroke-width:1.0;" width="10" x="74.5" y="106.8633"/><rect fill="#FFFFFF" height="861.6055" style="stroke:#181818;stroke-width:1.0;" width="10" x="309.5" y="130.1543"/><rect fill="#FFFFFF" height="31.291" style="stroke:#181818;stroke-width:1.0;" width="10" x="487.5" y="161.4453"/><rect fill="#FFFFFF" height="31.291" style="stroke:#181818;stroke-width:1.0;" width="10" x="634.5" y="224.0273"/><rect fill="#FFFFFF" height="31.291" style="stroke:#181818;stroke-width:1.0;" width="10" x="761.5" y="286.6094"/><rect fill="#FFFFFF" height="31.291" style="stroke:#181818;stroke-width:1.0;" width="10" x="847.5" y="349.1914"/><rect fill="#FFFFFF" height="31.291" style="stroke:#181818;stroke-width:1.0;" width="10" x="933.5" y="481.0645"/><rect fill="#FFFFFF" height="31.291" style="stroke:#181818;stroke-width:1.0;" width="10" x="1040.5" y="543.6465"/><rect fill="#FFFFFF" height="31.291" style="stroke:#181818;stroke-width:1.0;" width="10" x="1182" y="606.2285"/><rect fill="#FFFFFF" height="291.6582" style="stroke:#181818;stroke-width:1.0;" width="10" x="1348" y="668.8105"/><polygon fill="#181818" points="297.5,126.1543,307.5,130.1543,297.5,134.1543,301.5,130.1543" style="stroke:#181818;stroke-width:1.0;"/><line style="stroke:#181818;stroke-width:1.0;" x1="84.5" x2="303.5" y1="130.1543" y2="130.1543"/><text fill="#000000" font-family="sans-serif" font-size="13" font-weight="bold" lengthAdjust="spacing" textLength="7" x="91.5" y="124.8916">1</text><text fill="#000000" font-family="sans-serif" font-size="13" lengthAdjust="spacing" textLength="195" x="102.5" y="124.8916">getManagerGreenSpaceDTOList()</text><polygon fill="#181818" points="475.5,157.4453,485.5,161.4453,475.5,165.4453,479.5,161.4453" style="stroke:#181818;stroke-width:1.0;"/><line style="stroke:#181818;stroke-width:1.0;stroke-dasharray:2.0,2.0;" x1="319.5" x2="481.5" y1="161.4453" y2="161.4453"/><text fill="#000000" font-family="sans-serif" font-size="13" font-weight="bold" lengthAdjust="spacing" textLength="7" x="326.5" y="156.1826">2</text><text fill="#000000" font-family="sans-serif" font-size="13" lengthAdjust="spacing" textLength="75" x="337.5" y="156.1826">getInstance()</text><polygon fill="#181818" points="330.5,188.7363,320.5,192.7363,330.5,196.7363,326.5,192.7363" style="stroke:#181818;stroke-width:1.0;"/><line style="stroke:#181818;stroke-width:1.0;stroke-dasharray:2.0,2.0;" x1="324.5" x2="491.5" y1="192.7363" y2="192.7363"/><text fill="#000000" font-family="sans-serif" font-size="13" font-weight="bold" lengthAdjust="spacing" textLength="7" x="336.5" y="187.4736">3</text><text fill="#000000" font-family="sans-serif" font-size="13" lengthAdjust="spacing" textLength="52" x="347.5" y="187.4736">singleton</text><polygon fill="#181818" points="622.5,220.0273,632.5,224.0273,622.5,228.0273,626.5,224.0273" style="stroke:#181818;stroke-width:1.0;"/><line style="stroke:#181818;stroke-width:1.0;stroke-dasharray:2.0,2.0;" x1="319.5" x2="628.5" y1="224.0273" y2="224.0273"/><text fill="#000000" font-family="sans-serif" font-size="13" font-weight="bold" lengthAdjust="spacing" textLength="7" x="326.5" y="218.7646">4</text><text fill="#000000" font-family="sans-serif" font-size="13" lengthAdjust="spacing" textLength="100" x="337.5" y="218.7646">getUserSession()</text><polygon fill="#181818" points="330.5,251.3184,320.5,255.3184,330.5,259.3184,326.5,255.3184" style="stroke:#181818;stroke-width:1.0;"/><line style="stroke:#181818;stroke-width:1.0;stroke-dasharray:2.0,2.0;" x1="324.5" x2="638.5" y1="255.3184" y2="255.3184"/><text fill="#000000" font-family="sans-serif" font-size="13" font-weight="bold" lengthAdjust="spacing" textLength="7" x="336.5" y="250.0557">5</text><text fill="#000000" font-family="sans-serif" font-size="13" lengthAdjust="spacing" textLength="72" x="347.5" y="250.0557">userSession</text><polygon fill="#181818" points="749.5,282.6094,759.5,286.6094,749.5,290.6094,753.5,286.6094" style="stroke:#181818;stroke-width:1.0;"/><line style="stroke:#181818;stroke-width:1.0;stroke-dasharray:2.0,2.0;" x1="319.5" x2="755.5" y1="286.6094" y2="286.6094"/><text fill="#000000" font-family="sans-serif" font-size="13" font-weight="bold" lengthAdjust="spacing" textLength="7" x="326.5" y="281.3467">6</text><text fill="#000000" font-family="sans-serif" font-size="13" lengthAdjust="spacing" textLength="63" x="337.5" y="281.3467">getUserId()</text><polygon fill="#181818" points="330.5,313.9004,320.5,317.9004,330.5,321.9004,326.5,317.9004" style="stroke:#181818;stroke-width:1.0;"/><line style="stroke:#181818;stroke-width:1.0;stroke-dasharray:2.0,2.0;" x1="324.5" x2="765.5" y1="317.9004" y2="317.9004"/><text fill="#000000" font-family="sans-serif" font-size="13" font-weight="bold" lengthAdjust="spacing" textLength="7" x="336.5" y="312.6377">7</text><text fill="#000000" font-family="sans-serif" font-size="13" lengthAdjust="spacing" textLength="35" x="347.5" y="312.6377">userId</text><polygon fill="#181818" points="835.5,345.1914,845.5,349.1914,835.5,353.1914,839.5,349.1914" style="stroke:#181818;stroke-width:1.0;"/><line style="stroke:#181818;stroke-width:1.0;stroke-dasharray:2.0,2.0;" x1="319.5" x2="841.5" y1="349.1914" y2="349.1914"/><text fill="#000000" font-family="sans-serif" font-size="13" font-weight="bold" lengthAdjust="spacing" textLength="7" x="326.5" y="343.9287">8</text><text fill="#000000" font-family="sans-serif" font-size="13" lengthAdjust="spacing" textLength="59" x="337.5" y="343.9287">getEmail()</text><polygon fill="#181818" points="330.5,376.4824,320.5,380.4824,330.5,384.4824,326.5,380.4824" style="stroke:#181818;stroke-width:1.0;"/><line style="stroke:#181818;stroke-width:1.0;stroke-dasharray:2.0,2.0;" x1="324.5" x2="851.5" y1="380.4824" y2="380.4824"/><text fill="#000000" font-family="sans-serif" font-size="13" font-weight="bold" lengthAdjust="spacing" textLength="7" x="336.5" y="375.2197">9</text><text fill="#000000" font-family="sans-serif" font-size="13" lengthAdjust="spacing" textLength="31" x="347.5" y="375.2197">email</text><line style="stroke:#181818;stroke-width:1.0;" x1="319.5" x2="361.5" y1="411.7734" y2="411.7734"/><line style="stroke:#181818;stroke-width:1.0;" x1="361.5" x2="361.5" y1="411.7734" y2="424.7734"/><line style="stroke:#181818;stroke-width:1.0;" x1="320.5" x2="361.5" y1="424.7734" y2="424.7734"/><polygon fill="#181818" points="330.5,420.7734,320.5,424.7734,330.5,428.7734,326.5,424.7734" style="stroke:#181818;stroke-width:1.0;"/><text fill="#000000" font-family="sans-serif" font-size="13" font-weight="bold" lengthAdjust="spacing" textLength="14" x="326.5" y="406.5107">10</text><text fill="#000000" font-family="sans-serif" font-size="13" lengthAdjust="spacing" textLength="83" x="344.5" y="406.5107">managerEmail</text><polygon fill="#181818" points="921.5,477.0645,931.5,481.0645,921.5,485.0645,925.5,481.0645" style="stroke:#181818;stroke-width:1.0;"/><line style="stroke:#181818;stroke-width:1.0;" x1="319.5" x2="927.5" y1="481.0645" y2="481.0645"/><text fill="#000000" font-family="sans-serif" font-size="13" font-weight="bold" lengthAdjust="spacing" textLength="14" x="326.5" y="475.8018">11</text><text fill="#000000" font-family="sans-serif" font-size="13" lengthAdjust="spacing" textLength="75" x="344.5" y="475.8018">getInstance()</text><polygon fill="#181818" points="330.5,508.3555,320.5,512.3555,330.5,516.3555,326.5,512.3555" style="stroke:#181818;stroke-width:1.0;"/><line style="stroke:#181818;stroke-width:1.0;stroke-dasharray:2.0,2.0;" x1="324.5" x2="937.5" y1="512.3555" y2="512.3555"/><text fill="#000000" font-family="sans-serif" font-size="13" font-weight="bold" lengthAdjust="spacing" textLength="14" x="336.5" y="507.0928">12</text><text fill="#000000" font-family="sans-serif" font-size="13" lengthAdjust="spacing" textLength="67" x="354.5" y="507.0928">repositories</text><polygon fill="#181818" points="1028.5,539.6465,1038.5,543.6465,1028.5,547.6465,1032.5,543.6465" style="stroke:#181818;stroke-width:1.0;"/><line style="stroke:#181818;stroke-width:1.0;" x1="319.5" x2="1034.5" y1="543.6465" y2="543.6465"/><text fill="#000000" font-family="sans-serif" font-size="13" font-weight="bold" lengthAdjust="spacing" textLength="14" x="326.5" y="538.3838">13</text><text fill="#000000" font-family="sans-serif" font-size="13" lengthAdjust="spacing" textLength="160" x="344.5" y="538.3838">getGreenSpaceRepository()</text><polygon fill="#181818" points="330.5,570.9375,320.5,574.9375,330.5,578.9375,326.5,574.9375" style="stroke:#181818;stroke-width:1.0;"/><line style="stroke:#181818;stroke-width:1.0;stroke-dasharray:2.0,2.0;" x1="324.5" x2="1044.5" y1="574.9375" y2="574.9375"/><text fill="#000000" font-family="sans-serif" font-size="13" font-weight="bold" lengthAdjust="spacing" textLength="14" x="336.5" y="569.6748">14</text><text fill="#000000" font-family="sans-serif" font-size="13" lengthAdjust="spacing" textLength="131" x="354.5" y="569.6748">greenSpaceRepository</text><polygon fill="#181818" points="1170,602.2285,1180,606.2285,1170,610.2285,1174,606.2285" style="stroke:#181818;stroke-width:1.0;"/><line style="stroke:#181818;stroke-width:1.0;" x1="319.5" x2="1176" y1="606.2285" y2="606.2285"/><text fill="#000000" font-family="sans-serif" font-size="13" font-weight="bold" lengthAdjust="spacing" textLength="14" x="326.5" y="600.9658">15</text><text fill="#000000" font-family="sans-serif" font-size="13" lengthAdjust="spacing" textLength="268" x="344.5" y="600.9658">getGreenSpaceListByManager(managerEmail)</text><polygon fill="#181818" points="330.5,633.5195,320.5,637.5195,330.5,641.5195,326.5,637.5195" style="stroke:#181818;stroke-width:1.0;"/><line style="stroke:#181818;stroke-width:1.0;stroke-dasharray:2.0,2.0;" x1="324.5" x2="1186" y1="637.5195" y2="637.5195"/><text fill="#000000" font-family="sans-serif" font-size="13" font-weight="bold" lengthAdjust="spacing" textLength="14" x="336.5" y="632.2568">16</text><text fill="#000000" font-family="sans-serif" font-size="13" lengthAdjust="spacing" textLength="150" x="354.5" y="632.2568">managerGreenSpacesList</text><polygon fill="#181818" points="1336,664.8105,1346,668.8105,1336,672.8105,1340,668.8105" style="stroke:#181818;stroke-width:1.0;"/><line style="stroke:#181818;stroke-width:1.0;" x1="319.5" x2="1342" y1="668.8105" y2="668.8105"/><text fill="#000000" font-family="sans-serif" font-size="13" font-weight="bold" lengthAdjust="spacing" textLength="14" x="326.5" y="663.5479">17</text><text fill="#000000" font-family="sans-serif" font-size="13" lengthAdjust="spacing" textLength="212" x="344.5" y="663.5479">toDTOlist(managerGreenSpacesList)</text><path d="M1270,683.8105 L1343,683.8105 L1343,693.1016 L1333,703.1016 L1270,703.1016 L1270,683.8105 " fill="#EEEEEE" style="stroke:#000000;stroke-width:1.5;"/><rect fill="none" height="246.3672" style="stroke:#000000;stroke-width:1.5;" width="575" x="1270" y="683.8105"/><text fill="#000000" font-family="sans-serif" font-size="13" font-weight="bold" lengthAdjust="spacing" textLength="28" x="1285" y="698.8389">loop</text><text fill="#000000" font-family="sans-serif" font-size="11" font-weight="bold" lengthAdjust="spacing" textLength="282" x="1358" y="697.6807">[for each greenSpace in managerGreenSpacesList]</text><polygon fill="#181818" points="1502,747.3926,1512,751.3926,1502,755.3926,1506,751.3926" style="stroke:#181818;stroke-width:1.0;"/><line style="stroke:#181818;stroke-width:1.0;" x1="1358" x2="1508" y1="751.3926" y2="751.3926"/><text fill="#000000" font-family="sans-serif" font-size="13" font-weight="bold" lengthAdjust="spacing" textLength="14" x="1365" y="746.1299">18</text><text fill="#000000" font-family="sans-serif" font-size="13" lengthAdjust="spacing" textLength="114" x="1383" y="746.1299">toDTO(greenSpace)</text><rect fill="#E3E3E3" height="32.6211" rx="2.5" ry="2.5" style="stroke:#181818;stroke-width:0.5;" width="128" x="1514" y="728.1016"/><text fill="#000000" font-family="sans-serif" font-size="14" lengthAdjust="spacing" textLength="114" x="1521" y="750.209">:GreenSpaceDTO</text><path d="M1583,776.7227 L1583,855.7227 L1835,855.7227 L1835,786.7227 L1825,776.7227 L1583,776.7227 " fill="#FAFAFA" style="stroke:#181818;stroke-width:0.5;"/><path d="M1825,776.7227 L1825,786.7227 L1835,786.7227 L1825,776.7227 " fill="#FAFAFA" style="stroke:#181818;stroke-width:0.5;"/><text fill="#000000" font-family="sans-serif" font-size="13" lengthAdjust="spacing" textLength="231" x="1589" y="795.751">GreenSpaceDTO contains the atributes:</text><text fill="#000000" font-family="sans-serif" font-size="13" lengthAdjust="spacing" textLength="178" x="1589" y="813.042">- name, type, totalArea, street,</text><text fill="#000000" font-family="sans-serif" font-size="13" lengthAdjust="spacing" textLength="180" x="1589" y="830.333">streetNumber, postalCode, city</text><text fill="#000000" font-family="sans-serif" font-size="13" lengthAdjust="spacing" textLength="64" x="1589" y="847.624">and district</text><line style="stroke:#181818;stroke-width:1.0;stroke-dasharray:2.0,2.0;" x1="1358" x2="1400" y1="909.1777" y2="909.1777"/><line style="stroke:#181818;stroke-width:1.0;stroke-dasharray:2.0,2.0;" x1="1400" x2="1400" y1="909.1777" y2="922.1777"/><line style="stroke:#181818;stroke-width:1.0;stroke-dasharray:2.0,2.0;" x1="1359" x2="1400" y1="922.1777" y2="922.1777"/><polygon fill="#181818" points="1369,918.1777,1359,922.1777,1369,926.1777,1365,922.1777" style="stroke:#181818;stroke-width:1.0;"/><text fill="#000000" font-family="sans-serif" font-size="13" font-weight="bold" lengthAdjust="spacing" textLength="14" x="1365" y="903.915">19</text><text fill="#000000" font-family="sans-serif" font-size="13" lengthAdjust="spacing" textLength="124" x="1383" y="903.915">add(greenSpaceDTO)</text><polygon fill="#181818" points="330.5,956.4688,320.5,960.4688,330.5,964.4688,326.5,960.4688" style="stroke:#181818;stroke-width:1.0;"/><line style="stroke:#181818;stroke-width:1.0;stroke-dasharray:2.0,2.0;" x1="324.5" x2="1352" y1="960.4688" y2="960.4688"/><text fill="#000000" font-family="sans-serif" font-size="13" font-weight="bold" lengthAdjust="spacing" textLength="14" x="336.5" y="955.2061">20</text><text fill="#000000" font-family="sans-serif" font-size="13" lengthAdjust="spacing" textLength="112" x="354.5" y="955.2061">greenSpaceDTOlist</text><polygon fill="#181818" points="95.5,987.7598,85.5,991.7598,95.5,995.7598,91.5,991.7598" style="stroke:#181818;stroke-width:1.0;"/><line style="stroke:#181818;stroke-width:1.0;stroke-dasharray:2.0,2.0;" x1="89.5" x2="313.5" y1="991.7598" y2="991.7598"/><text fill="#000000" font-family="sans-serif" font-size="13" font-weight="bold" lengthAdjust="spacing" textLength="14" x="101.5" y="986.4971">21</text><text fill="#000000" font-family="sans-serif" font-size="13" lengthAdjust="spacing" textLength="116" x="119.5" y="986.4971">greenSpaceDTOList</text><!--SRC=[XLRRRkCW47ttLw0-fLNo0trOATj4bQNUb3HlAwseFKrGRR1WibMaVlmEECROnZOFkS2SCmVcCBRv4hBYcfUiL59b9wrAOAZFa1Y_Kl7iYnzXZvS2c8OCkJmMOO0vyLnz2tbadxmma2Gea4Btcx-e7ZM0t1C5RDvV2s4mIVWPbJoN7w2J924659cek4HsSx_EynVutahKbtUrKOVqXd733catB5CKe8e2z1_PXppuDGTzUDyzzNDKLI4oZaB9FHX3Novo_VRM3JJ2RfEasYIZc7qJrGMV3UXh9C4FxRzwG-t_8IpT469RSb6uMFUhjuKTLCe8L5g0SK6xxTjhDqO78SGNHQJIK2qpw2AFlc8UT266nyYqOmeM1Ye2r3ElgcjH-fEZ6B9C3q0pP1f6WsSe_d44wmutSKZPwfShEBjdHy1dBicrkeDz8WCkRhjuPn4tvR0h8g6wrXpD2LqnuV1uQvp1gXsMPTLAyduQ1ESmJHRgydwh1GPEcj7O6dLCR4iTg0wCFADx8e7VG22trP_cKzB3kn9L7dBsXAVvbEP9PY_PtRzQhFivfRM-gr6LDKsW3rpiXBmHibgOfobhbs-ZR3y_For10xItTDJTFhkxonr2Xmis47QO9ABVCSIIDscTXbXR8JrnGRvX3OGrAw70M2CR4pfaRXHtsnlhYRODvVVbsceMOJ4YPzhhb3wWbs8rg6uRO9xS8pIoYp7ouJxgfaligAxFv4KyJwmCWzvTA5MnJwKPIJa5Pyw479DlRHaMS22j8vSqtjqrQXTjWjkk2wGYTLeSJyZKP- -9mMP69vhPrmikf65u0iPHYuypWhcVPLanoKjOChnKzbCXBzOQ-98P97vSpXBKSI_krMZ9oBB4yA1o8ii4NcRXNEOif_FL8iFPuF41H6CFSv9YleHno_4y3qf8fqrLj0cjY-O91nVRlrFEN8chL_re7qXfdyyvj4TKlo8a_m40]--></g></svg>