<?xml version="1.0" encoding="us-ascii" standalone="no"?><svg xmlns="http://www.w3.org/2000/svg" xmlns:xlink="http://www.w3.org/1999/xlink" contentStyleType="text/css" height="1405.6px" preserveAspectRatio="none" style="width:1325px;height:1405px;background:#FFFFFF;" version="1.1" viewBox="0 0 1325 1405" width="1325.1px" zoomAndPan="magnify"><defs/><g><text fill="#000000" font-family="sans-serif" font-size="9.8" font-weight="bold" lengthAdjust="spacing" textLength="108.5" x="603.4" y="17.5752">US021 - Class Diagram</text><!--cluster GUI--><g id="cluster_GUI"><path d="M491.75,31.9443 L509.95,31.9443 A2.625,2.625 0 0 1 511.7,33.6943 L516.6,49.1791 L653.45,49.1791 A1.75,1.75 0 0 1 655.2,50.9291 L655.2,256.9943 A1.75,1.75 0 0 1 653.45,258.7443 L491.75,258.7443 A1.75,1.75 0 0 1 490,256.9943 L490,33.6943 A1.75,1.75 0 0 1 491.75,31.9443 " fill="#DDDDDD" style="stroke:#000000;stroke-width:1.0499999999999998;"/><line style="stroke:#000000;stroke-width:1.0499999999999998;" x1="490" x2="516.6" y1="49.1791" y2="49.1791"/><text fill="#000000" font-family="sans-serif" font-size="9.8" font-weight="bold" lengthAdjust="spacing" textLength="17.5" x="492.8" y="43.9195">GUI</text></g><!--cluster Controller--><g id="cluster_Controller"><path d="M479.85,281.8443 L530.25,281.8443 A2.625,2.625 0 0 1 532,283.5943 L536.9,299.0791 L665.35,299.0791 A1.75,1.75 0 0 1 667.1,300.8291 L667.1,415.8943 A1.75,1.75 0 0 1 665.35,417.6443 L479.85,417.6443 A1.75,1.75 0 0 1 478.1,415.8943 L478.1,283.5943 A1.75,1.75 0 0 1 479.85,281.8443 " fill="#DDDDDD" style="stroke:#000000;stroke-width:1.0499999999999998;"/><line style="stroke:#000000;stroke-width:1.0499999999999998;" x1="478.1" x2="536.9" y1="299.0791" y2="299.0791"/><text fill="#000000" font-family="sans-serif" font-size="9.8" font-weight="bold" lengthAdjust="spacing" textLength="49.7" x="480.9" y="293.8195">Controller</text></g><!--cluster Repository--><g id="cluster_Repository"><path d="M5.95,496.7443 L59.85,496.7443 A2.625,2.625 0 0 1 61.6,498.4943 L66.5,513.9791 L462.35,513.9791 A1.75,1.75 0 0 1 464.1,515.7291 L464.1,995.4943 A1.75,1.75 0 0 1 462.35,997.2443 L5.95,997.2443 A1.75,1.75 0 0 1 4.2,995.4943 L4.2,498.4943 A1.75,1.75 0 0 1 5.95,496.7443 " fill="#DDDDDD" style="stroke:#000000;stroke-width:1.0499999999999998;"/><line style="stroke:#000000;stroke-width:1.0499999999999998;" x1="4.2" x2="66.5" y1="513.9791" y2="513.9791"/><text fill="#000000" font-family="sans-serif" font-size="9.8" font-weight="bold" lengthAdjust="spacing" textLength="53.2" x="7" y="508.7195">Repository</text></g><!--cluster Domain--><g id="cluster_Domain"><path d="M47.25,1032.9443 L84.35,1032.9443 A2.625,2.625 0 0 1 86.1,1034.6943 L91,1050.1791 L523.25,1050.1791 A1.75,1.75 0 0 1 525,1051.9291 L525,1399.3943 A1.75,1.75 0 0 1 523.25,1401.1443 L47.25,1401.1443 A1.75,1.75 0 0 1 45.5,1399.3943 L45.5,1034.6943 A1.75,1.75 0 0 1 47.25,1032.9443 " fill="#DDDDDD" style="stroke:#000000;stroke-width:1.0499999999999998;"/><line style="stroke:#000000;stroke-width:1.0499999999999998;" x1="45.5" x2="91" y1="1050.1791" y2="1050.1791"/><text fill="#000000" font-family="sans-serif" font-size="9.8" font-weight="bold" lengthAdjust="spacing" textLength="36.4" x="48.3" y="1044.9195">Domain</text></g><!--cluster Mapper--><g id="cluster_Mapper"><path d="M742.35,503.0443 L780.85,503.0443 A2.625,2.625 0 0 1 782.6,504.7943 L787.5,520.2791 L1177.75,520.2791 A1.75,1.75 0 0 1 1179.5,522.0291 L1179.5,611.1943 A1.75,1.75 0 0 1 1177.75,612.9443 L742.35,612.9443 A1.75,1.75 0 0 1 740.6,611.1943 L740.6,504.7943 A1.75,1.75 0 0 1 742.35,503.0443 " fill="#DDDDDD" style="stroke:#000000;stroke-width:1.0499999999999998;"/><line style="stroke:#000000;stroke-width:1.0499999999999998;" x1="740.6" x2="787.5" y1="520.2791" y2="520.2791"/><text fill="#000000" font-family="sans-serif" font-size="9.8" font-weight="bold" lengthAdjust="spacing" textLength="37.8" x="743.4" y="515.0195">Mapper</text></g><!--cluster DTO--><g id="cluster_DTO"><path d="M671.65,653.5443 L692.65,653.5443 A2.625,2.625 0 0 1 694.4,655.2943 L699.3,670.7791 L1318.45,670.7791 A1.75,1.75 0 0 1 1320.2,672.5291 L1320.2,865.9943 A1.75,1.75 0 0 1 1318.45,867.7443 L671.65,867.7443 A1.75,1.75 0 0 1 669.9,865.9943 L669.9,655.2943 A1.75,1.75 0 0 1 671.65,653.5443 " fill="#DDDDDD" style="stroke:#000000;stroke-width:1.0499999999999998;"/><line style="stroke:#000000;stroke-width:1.0499999999999998;" x1="669.9" x2="699.3" y1="670.7791" y2="670.7791"/><text fill="#000000" font-family="sans-serif" font-size="9.8" font-weight="bold" lengthAdjust="spacing" textLength="20.3" x="672.7" y="665.5195">DTO</text></g><!--class AddNewEntryToDoUI--><g id="elem_AddNewEntryToDoUI"><rect codeLine="12" fill="#F1F1F1" height="190.0172" id="AddNewEntryToDoUI" rx="1.75" ry="1.75" style="stroke:#181818;stroke-width:0.3499999999999999;" width="142.1" x="501.55" y="57.8443"/><ellipse cx="524.65" cy="69.0443" fill="#ADD1B2" rx="7.7" ry="7.7" style="stroke:#181818;stroke-width:0.6999999999999998;"/><path d="M526.5859,66.1568 Q526.6953,66.0037 526.8266,65.9271 Q526.9578,65.8506 527.1109,65.8506 Q527.3734,65.8506 527.5375,66.0365 Q527.7016,66.2115 527.7016,66.6381 L527.7016,67.6553 Q527.7016,68.0818 527.5375,68.2678 Q527.3734,68.4537 527.1109,68.4537 Q526.8703,68.4537 526.7281,68.3115 Q526.5859,68.1803 526.5094,67.8193 Q526.4766,67.5678 526.3453,67.4365 Q526.1156,67.174 525.6891,67.0209 Q525.2625,66.8678 524.825,66.8678 Q524.2891,66.8678 523.8406,67.0975 Q523.4031,67.3271 523.0531,67.8521 Q522.7141,68.3771 522.7141,69.099 L522.7141,69.8646 Q522.7141,70.7287 523.3375,71.3084 Q523.9609,71.8771 525.0766,71.8771 Q525.7328,71.8771 526.1922,71.7021 Q526.4656,71.5928 526.7609,71.2865 Q526.9469,71.1006 527.0453,71.0459 Q527.1547,70.9912 527.2969,70.9912 Q527.5266,70.9912 527.7016,71.1771 Q527.8875,71.3521 527.8875,71.5928 Q527.8875,71.8334 527.6469,72.1178 Q527.2969,72.5225 526.7391,72.7521 Q525.9844,73.0693 525.0766,73.0693 Q524.0156,73.0693 523.1734,72.6318 Q522.4844,72.2818 522.0031,71.5381 Q521.5219,70.7834 521.5219,69.8865 L521.5219,69.0771 Q521.5219,68.1475 521.9484,67.349 Q522.3859,66.5396 523.1516,66.1131 Q523.9172,65.6756 524.7812,65.6756 Q525.2953,65.6756 525.7437,65.7959 Q526.2031,65.9053 526.5859,66.1568 Z " fill="#000000"/><text fill="#000000" font-family="sans-serif" font-size="9.8" lengthAdjust="spacing" textLength="91.7" x="537.25" y="73.1021">AddNewEntryToDoUI</text><line style="stroke:#181818;stroke-width:0.3499999999999999;" x1="502.25" x2="642.95" y1="80.2443" y2="80.2443"/><text fill="#000000" font-family="sans-serif" font-size="9.8" lengthAdjust="spacing" textLength="47.6" x="505.75" y="93.6195">-String title</text><text fill="#000000" font-family="sans-serif" font-size="9.8" lengthAdjust="spacing" textLength="80.5" x="505.75" y="106.6543">-String description</text><text fill="#000000" font-family="sans-serif" font-size="9.8" lengthAdjust="spacing" textLength="91" x="505.75" y="119.6891">-TaskType taskType</text><text fill="#000000" font-family="sans-serif" font-size="9.8" lengthAdjust="spacing" textLength="111.3" x="505.75" y="132.7238">-String greenSpaceName</text><text fill="#000000" font-family="sans-serif" font-size="9.8" lengthAdjust="spacing" textLength="100.8" x="505.75" y="145.7586">-UrgencyType urgency</text><text fill="#000000" font-family="sans-serif" font-size="9.8" lengthAdjust="spacing" textLength="37.8" x="505.75" y="158.7934">-int days</text><text fill="#000000" font-family="sans-serif" font-size="9.8" lengthAdjust="spacing" textLength="42" x="505.75" y="171.8281">-int hours</text><text fill="#000000" font-family="sans-serif" font-size="9.8" lengthAdjust="spacing" textLength="51.1" x="505.75" y="184.8629">-int minutes</text><line style="stroke:#181818;stroke-width:0.3499999999999999;" x1="502.25" x2="642.95" y1="190.1225" y2="190.1225"/><text fill="#000000" font-family="sans-serif" font-size="9.8" lengthAdjust="spacing" textLength="104.3" x="505.75" y="203.4977">+AddNewEntryToDoUI()</text><text fill="#000000" font-family="sans-serif" font-size="9.8" lengthAdjust="spacing" textLength="133.7" x="505.75" y="216.5324">+initialize(url, resourceBundle)</text><text fill="#000000" font-family="sans-serif" font-size="9.8" lengthAdjust="spacing" textLength="123.2" x="505.75" y="229.5672">-fillGreenSpaceComboBox()</text><text fill="#000000" font-family="sans-serif" font-size="9.8" lengthAdjust="spacing" textLength="15.4" x="505.75" y="242.602">(...)</text></g><!--class AddNewEntryToDoController--><g id="elem_AddNewEntryToDoController"><rect codeLine="30" fill="#F1F1F1" height="98.7738" id="AddNewEntryToDoController" rx="1.75" ry="1.75" style="stroke:#181818;stroke-width:0.3499999999999999;" width="166.6" x="489.3" y="307.7443"/><ellipse cx="507.675" cy="318.9443" fill="#ADD1B2" rx="7.7" ry="7.7" style="stroke:#181818;stroke-width:0.6999999999999998;"/><path d="M509.6109,316.0568 Q509.7203,315.9037 509.8516,315.8271 Q509.9828,315.7506 510.1359,315.7506 Q510.3984,315.7506 510.5625,315.9365 Q510.7266,316.1115 510.7266,316.5381 L510.7266,317.5553 Q510.7266,317.9818 510.5625,318.1678 Q510.3984,318.3537 510.1359,318.3537 Q509.8953,318.3537 509.7531,318.2115 Q509.6109,318.0803 509.5344,317.7193 Q509.5016,317.4678 509.3703,317.3365 Q509.1406,317.074 508.7141,316.9209 Q508.2875,316.7678 507.85,316.7678 Q507.3141,316.7678 506.8656,316.9975 Q506.4281,317.2271 506.0781,317.7521 Q505.7391,318.2771 505.7391,318.999 L505.7391,319.7646 Q505.7391,320.6287 506.3625,321.2084 Q506.9859,321.7771 508.1016,321.7771 Q508.7578,321.7771 509.2172,321.6021 Q509.4906,321.4928 509.7859,321.1865 Q509.9719,321.0006 510.0703,320.9459 Q510.1797,320.8912 510.3219,320.8912 Q510.5516,320.8912 510.7266,321.0771 Q510.9125,321.2521 510.9125,321.4928 Q510.9125,321.7334 510.6719,322.0178 Q510.3219,322.4225 509.7641,322.6521 Q509.0094,322.9693 508.1016,322.9693 Q507.0406,322.9693 506.1984,322.5318 Q505.5094,322.1818 505.0281,321.4381 Q504.5469,320.6834 504.5469,319.7865 L504.5469,318.9771 Q504.5469,318.0475 504.9734,317.249 Q505.4109,316.4396 506.1766,316.0131 Q506.9422,315.5756 507.8062,315.5756 Q508.3203,315.5756 508.7687,315.6959 Q509.2281,315.8053 509.6109,316.0568 Z " fill="#000000"/><text fill="#000000" font-family="sans-serif" font-size="9.8" lengthAdjust="spacing" textLength="126.7" x="519.225" y="323.0021">AddNewEntryToDoController</text><line style="stroke:#181818;stroke-width:0.3499999999999999;" x1="490" x2="655.2" y1="330.1443" y2="330.1443"/><line style="stroke:#181818;stroke-width:0.3499999999999999;" x1="490" x2="655.2" y1="335.7443" y2="335.7443"/><text fill="#000000" font-family="sans-serif" font-size="9.8" lengthAdjust="spacing" textLength="139.3" x="493.5" y="349.1195">+AddNewEntryToDoController()</text><text fill="#000000" font-family="sans-serif" font-size="9.8" lengthAdjust="spacing" textLength="96.6" x="493.5" y="362.1543">-getToDoRepository()</text><text fill="#000000" font-family="sans-serif" font-size="9.8" lengthAdjust="spacing" textLength="128.1" x="493.5" y="375.1891">-getGreenSpaceRepository()</text><text fill="#000000" font-family="sans-serif" font-size="9.8" lengthAdjust="spacing" textLength="158.2" x="493.5" y="388.2238">+getManagerGreenSpaceDTOList()</text><text fill="#000000" font-family="sans-serif" font-size="9.8" lengthAdjust="spacing" textLength="131.6" x="493.5" y="401.2586">+registerTask(toDoTaskDTO)</text></g><!--class GreenSpaceRepository--><g id="elem_GreenSpaceRepository"><rect codeLine="42" fill="#F1F1F1" height="59.6695" id="GreenSpaceRepository" rx="1.75" ry="1.75" style="stroke:#181818;stroke-width:0.3499999999999999;" width="219.8" x="89.6" y="913.5943"/><ellipse cx="144.725" cy="924.7943" fill="#ADD1B2" rx="7.7" ry="7.7" style="stroke:#181818;stroke-width:0.6999999999999998;"/><path d="M146.6609,921.9068 Q146.7703,921.7537 146.9016,921.6771 Q147.0328,921.6006 147.1859,921.6006 Q147.4484,921.6006 147.6125,921.7865 Q147.7766,921.9615 147.7766,922.3881 L147.7766,923.4053 Q147.7766,923.8318 147.6125,924.0178 Q147.4484,924.2037 147.1859,924.2037 Q146.9453,924.2037 146.8031,924.0615 Q146.6609,923.9303 146.5844,923.5693 Q146.5516,923.3178 146.4203,923.1865 Q146.1906,922.924 145.7641,922.7709 Q145.3375,922.6178 144.9,922.6178 Q144.3641,922.6178 143.9156,922.8475 Q143.4781,923.0771 143.1281,923.6021 Q142.7891,924.1271 142.7891,924.849 L142.7891,925.6146 Q142.7891,926.4787 143.4125,927.0584 Q144.0359,927.6271 145.1516,927.6271 Q145.8078,927.6271 146.2672,927.4521 Q146.5406,927.3428 146.8359,927.0365 Q147.0219,926.8506 147.1203,926.7959 Q147.2297,926.7412 147.3719,926.7412 Q147.6016,926.7412 147.7766,926.9271 Q147.9625,927.1021 147.9625,927.3428 Q147.9625,927.5834 147.7219,927.8678 Q147.3719,928.2725 146.8141,928.5021 Q146.0594,928.8193 145.1516,928.8193 Q144.0906,928.8193 143.2484,928.3818 Q142.5594,928.0318 142.0781,927.2881 Q141.5969,926.5334 141.5969,925.6365 L141.5969,924.8271 Q141.5969,923.8975 142.0234,923.099 Q142.4609,922.2896 143.2266,921.8631 Q143.9922,921.4256 144.8562,921.4256 Q145.3703,921.4256 145.8187,921.5459 Q146.2781,921.6553 146.6609,921.9068 Z " fill="#000000"/><text fill="#000000" font-family="sans-serif" font-size="9.8" lengthAdjust="spacing" textLength="103.6" x="159.075" y="928.8521">GreenSpaceRepository</text><line style="stroke:#181818;stroke-width:0.3499999999999999;" x1="90.3" x2="308.7" y1="935.9943" y2="935.9943"/><text fill="#000000" font-family="sans-serif" font-size="9.8" lengthAdjust="spacing" textLength="158.2" x="93.8" y="949.3695">-List&lt;GreenSpace&gt; greenSpaceList</text><line style="stroke:#181818;stroke-width:0.3499999999999999;" x1="90.3" x2="308.7" y1="954.6291" y2="954.6291"/><text fill="#000000" font-family="sans-serif" font-size="9.8" lengthAdjust="spacing" textLength="211.4" x="93.8" y="968.0043">+getGreenSpaceListByManager(managerEmail)</text></g><!--class ToDoRepository--><g id="elem_ToDoRepository"><rect codeLine="48" fill="#F1F1F1" height="85.7391" id="ToDoRepository" rx="1.75" ry="1.75" style="stroke:#181818;stroke-width:0.3499999999999999;" width="119" x="333.9" y="900.6443"/><ellipse cx="355.425" cy="911.8443" fill="#ADD1B2" rx="7.7" ry="7.7" style="stroke:#181818;stroke-width:0.6999999999999998;"/><path d="M357.3609,908.9568 Q357.4703,908.8037 357.6016,908.7271 Q357.7328,908.6506 357.8859,908.6506 Q358.1484,908.6506 358.3125,908.8365 Q358.4766,909.0115 358.4766,909.4381 L358.4766,910.4553 Q358.4766,910.8818 358.3125,911.0678 Q358.1484,911.2537 357.8859,911.2537 Q357.6453,911.2537 357.5031,911.1115 Q357.3609,910.9803 357.2844,910.6193 Q357.2516,910.3678 357.1203,910.2365 Q356.8906,909.974 356.4641,909.8209 Q356.0375,909.6678 355.6,909.6678 Q355.0641,909.6678 354.6156,909.8975 Q354.1781,910.1271 353.8281,910.6521 Q353.4891,911.1771 353.4891,911.899 L353.4891,912.6646 Q353.4891,913.5287 354.1125,914.1084 Q354.7359,914.6771 355.8516,914.6771 Q356.5078,914.6771 356.9672,914.5021 Q357.2406,914.3928 357.5359,914.0865 Q357.7219,913.9006 357.8203,913.8459 Q357.9297,913.7912 358.0719,913.7912 Q358.3016,913.7912 358.4766,913.9771 Q358.6625,914.1521 358.6625,914.3928 Q358.6625,914.6334 358.4219,914.9178 Q358.0719,915.3225 357.5141,915.5521 Q356.7594,915.8693 355.8516,915.8693 Q354.7906,915.8693 353.9484,915.4318 Q353.2594,915.0818 352.7781,914.3381 Q352.2969,913.5834 352.2969,912.6865 L352.2969,911.8771 Q352.2969,910.9475 352.7234,910.149 Q353.1609,909.3396 353.9266,908.9131 Q354.6922,908.4756 355.5562,908.4756 Q356.0703,908.4756 356.5187,908.5959 Q356.9781,908.7053 357.3609,908.9568 Z " fill="#000000"/><text fill="#000000" font-family="sans-serif" font-size="9.8" lengthAdjust="spacing" textLength="72.1" x="367.675" y="915.9021">ToDoRepository</text><line style="stroke:#181818;stroke-width:0.3499999999999999;" x1="334.6" x2="452.2" y1="923.0443" y2="923.0443"/><text fill="#000000" font-family="sans-serif" font-size="9.8" lengthAdjust="spacing" textLength="91" x="338.1" y="936.4195">-List&lt;Task&gt; toDoList</text><line style="stroke:#181818;stroke-width:0.3499999999999999;" x1="334.6" x2="452.2" y1="941.6791" y2="941.6791"/><text fill="#000000" font-family="sans-serif" font-size="9.8" lengthAdjust="spacing" textLength="110.6" x="338.1" y="955.0543">+registerTaskToDo(task)</text><text fill="#000000" font-family="sans-serif" font-size="9.8" lengthAdjust="spacing" textLength="45.5" x="338.1" y="968.0891">-add(task)</text><text fill="#000000" font-family="sans-serif" font-size="9.8" lengthAdjust="spacing" textLength="109.2" x="338.1" y="981.1238">-validateTaskToDo(task)</text></g><!--class Repositories--><g id="elem_Repositories"><rect codeLine="56" fill="#F1F1F1" height="85.7391" id="Repositories" rx="1.75" ry="1.75" style="stroke:#181818;stroke-width:0.3499999999999999;" width="138.6" x="259" y="522.6443"/><ellipse cx="297.675" cy="533.8443" fill="#ADD1B2" rx="7.7" ry="7.7" style="stroke:#181818;stroke-width:0.6999999999999998;"/><path d="M299.6109,530.9568 Q299.7203,530.8037 299.8516,530.7271 Q299.9828,530.6506 300.1359,530.6506 Q300.3984,530.6506 300.5625,530.8365 Q300.7266,531.0115 300.7266,531.4381 L300.7266,532.4553 Q300.7266,532.8818 300.5625,533.0678 Q300.3984,533.2537 300.1359,533.2537 Q299.8953,533.2537 299.7531,533.1115 Q299.6109,532.9803 299.5344,532.6193 Q299.5016,532.3678 299.3703,532.2365 Q299.1406,531.974 298.7141,531.8209 Q298.2875,531.6678 297.85,531.6678 Q297.3141,531.6678 296.8656,531.8975 Q296.4281,532.1271 296.0781,532.6521 Q295.7391,533.1771 295.7391,533.899 L295.7391,534.6646 Q295.7391,535.5287 296.3625,536.1084 Q296.9859,536.6771 298.1016,536.6771 Q298.7578,536.6771 299.2172,536.5021 Q299.4906,536.3928 299.7859,536.0865 Q299.9719,535.9006 300.0703,535.8459 Q300.1797,535.7912 300.3219,535.7912 Q300.5516,535.7912 300.7266,535.9771 Q300.9125,536.1521 300.9125,536.3928 Q300.9125,536.6334 300.6719,536.9178 Q300.3219,537.3225 299.7641,537.5521 Q299.0094,537.8693 298.1016,537.8693 Q297.0406,537.8693 296.1984,537.4318 Q295.5094,537.0818 295.0281,536.3381 Q294.5469,535.5834 294.5469,534.6865 L294.5469,533.8771 Q294.5469,532.9475 294.9734,532.149 Q295.4109,531.3396 296.1766,530.9131 Q296.9422,530.4756 297.8062,530.4756 Q298.3203,530.4756 298.7687,530.5959 Q299.2281,530.7053 299.6109,530.9568 Z " fill="#000000"/><text fill="#000000" font-family="sans-serif" font-size="9.8" lengthAdjust="spacing" textLength="55.3" x="312.025" y="537.9021">Repositories</text><line style="stroke:#181818;stroke-width:0.3499999999999999;" x1="259.7" x2="396.9" y1="545.0443" y2="545.0443"/><line style="stroke:#181818;stroke-width:0.3499999999999999;" x1="259.7" x2="396.9" y1="550.6443" y2="550.6443"/><text fill="#000000" font-family="sans-serif" font-size="9.8" lengthAdjust="spacing" textLength="65.8" x="263.2" y="564.0195">-Repositories()</text><text fill="#000000" font-family="sans-serif" font-size="9.8" lengthAdjust="spacing" textLength="127.4" x="263.2" y="577.0543">+getInstance() : Repositories</text><text fill="#000000" font-family="sans-serif" font-size="9.8" lengthAdjust="spacing" textLength="130.2" x="263.2" y="590.0891">+getGreenSpaceRepository()</text><text fill="#000000" font-family="sans-serif" font-size="9.8" lengthAdjust="spacing" textLength="98.7" x="263.2" y="603.1238">+getToDoRepository()</text></g><!--class ApplicationSession--><g id="elem_ApplicationSession"><rect codeLine="63" fill="#F1F1F1" height="85.7391" id="ApplicationSession" rx="1.75" ry="1.75" style="stroke:#181818;stroke-width:0.3499999999999999;" width="163.8" x="15.4" y="522.6443"/><ellipse cx="52.675" cy="533.8443" fill="#ADD1B2" rx="7.7" ry="7.7" style="stroke:#181818;stroke-width:0.6999999999999998;"/><path d="M54.6109,530.9568 Q54.7203,530.8037 54.8516,530.7271 Q54.9828,530.6506 55.1359,530.6506 Q55.3984,530.6506 55.5625,530.8365 Q55.7266,531.0115 55.7266,531.4381 L55.7266,532.4553 Q55.7266,532.8818 55.5625,533.0678 Q55.3984,533.2537 55.1359,533.2537 Q54.8953,533.2537 54.7531,533.1115 Q54.6109,532.9803 54.5344,532.6193 Q54.5016,532.3678 54.3703,532.2365 Q54.1406,531.974 53.7141,531.8209 Q53.2875,531.6678 52.85,531.6678 Q52.3141,531.6678 51.8656,531.8975 Q51.4281,532.1271 51.0781,532.6521 Q50.7391,533.1771 50.7391,533.899 L50.7391,534.6646 Q50.7391,535.5287 51.3625,536.1084 Q51.9859,536.6771 53.1016,536.6771 Q53.7578,536.6771 54.2172,536.5021 Q54.4906,536.3928 54.7859,536.0865 Q54.9719,535.9006 55.0703,535.8459 Q55.1797,535.7912 55.3219,535.7912 Q55.5516,535.7912 55.7266,535.9771 Q55.9125,536.1521 55.9125,536.3928 Q55.9125,536.6334 55.6719,536.9178 Q55.3219,537.3225 54.7641,537.5521 Q54.0094,537.8693 53.1016,537.8693 Q52.0406,537.8693 51.1984,537.4318 Q50.5094,537.0818 50.0281,536.3381 Q49.5469,535.5834 49.5469,534.6865 L49.5469,533.8771 Q49.5469,532.9475 49.9734,532.149 Q50.4109,531.3396 51.1766,530.9131 Q51.9422,530.4756 52.8062,530.4756 Q53.3203,530.4756 53.7687,530.5959 Q54.2281,530.7053 54.6109,530.9568 Z " fill="#000000"/><text fill="#000000" font-family="sans-serif" font-size="9.8" lengthAdjust="spacing" textLength="83.3" x="67.025" y="537.9021">ApplicationSession</text><line style="stroke:#181818;stroke-width:0.3499999999999999;" x1="16.1" x2="178.5" y1="545.0443" y2="545.0443"/><line style="stroke:#181818;stroke-width:0.3499999999999999;" x1="16.1" x2="178.5" y1="550.6443" y2="550.6443"/><text fill="#000000" font-family="sans-serif" font-size="9.8" lengthAdjust="spacing" textLength="93.8" x="19.6" y="564.0195">-ApplicationSession()</text><text fill="#000000" font-family="sans-serif" font-size="9.8" lengthAdjust="spacing" textLength="155.4" x="19.6" y="577.0543">+getInstance() : ApplicationSession</text><text fill="#000000" font-family="sans-serif" font-size="9.8" lengthAdjust="spacing" textLength="137.2" x="19.6" y="590.0891">+getAuthenticationRepository()</text><text fill="#000000" font-family="sans-serif" font-size="9.8" lengthAdjust="spacing" textLength="95.2" x="19.6" y="603.1238">+getCurrentSession()</text></g><!--class UserSession--><g id="elem_UserSession"><rect codeLine="71" fill="#F1F1F1" height="46.6348" id="UserSession" rx="1.75" ry="1.75" style="stroke:#181818;stroke-width:0.3499999999999999;" width="79.1" x="36.75" y="744.5443"/><ellipse cx="47.88" cy="755.7443" fill="#ADD1B2" rx="7.7" ry="7.7" style="stroke:#181818;stroke-width:0.6999999999999998;"/><path d="M49.8159,752.8568 Q49.9253,752.7037 50.0566,752.6271 Q50.1878,752.5506 50.3409,752.5506 Q50.6034,752.5506 50.7675,752.7365 Q50.9316,752.9115 50.9316,753.3381 L50.9316,754.3553 Q50.9316,754.7818 50.7675,754.9678 Q50.6034,755.1537 50.3409,755.1537 Q50.1003,755.1537 49.9581,755.0115 Q49.8159,754.8803 49.7394,754.5193 Q49.7066,754.2678 49.5753,754.1365 Q49.3456,753.874 48.9191,753.7209 Q48.4925,753.5678 48.055,753.5678 Q47.5191,753.5678 47.0706,753.7975 Q46.6331,754.0271 46.2831,754.5521 Q45.9441,755.0771 45.9441,755.799 L45.9441,756.5646 Q45.9441,757.4287 46.5675,758.0084 Q47.1909,758.5771 48.3066,758.5771 Q48.9628,758.5771 49.4222,758.4021 Q49.6956,758.2928 49.9909,757.9865 Q50.1769,757.8006 50.2753,757.7459 Q50.3847,757.6912 50.5269,757.6912 Q50.7566,757.6912 50.9316,757.8771 Q51.1175,758.0521 51.1175,758.2928 Q51.1175,758.5334 50.8769,758.8178 Q50.5269,759.2225 49.9691,759.4521 Q49.2144,759.7693 48.3066,759.7693 Q47.2456,759.7693 46.4034,759.3318 Q45.7144,758.9818 45.2331,758.2381 Q44.7519,757.4834 44.7519,756.5865 L44.7519,755.7771 Q44.7519,754.8475 45.1784,754.049 Q45.6159,753.2396 46.3816,752.8131 Q47.1472,752.3756 48.0112,752.3756 Q48.5253,752.3756 48.9737,752.4959 Q49.4331,752.6053 49.8159,752.8568 Z " fill="#000000"/><text fill="#000000" font-family="sans-serif" font-size="9.8" lengthAdjust="spacing" textLength="55.3" x="57.82" y="759.8021">UserSession</text><line style="stroke:#181818;stroke-width:0.3499999999999999;" x1="37.45" x2="115.15" y1="766.9443" y2="766.9443"/><line style="stroke:#181818;stroke-width:0.3499999999999999;" x1="37.45" x2="115.15" y1="772.5443" y2="772.5443"/><text fill="#000000" font-family="sans-serif" font-size="9.8" lengthAdjust="spacing" textLength="70.7" x="40.95" y="785.9195">+getUserEmail()</text></g><!--class Email--><g id="elem_Email"><rect codeLine="76" fill="#F1F1F1" height="33.6" id="Email" rx="1.75" ry="1.75" style="stroke:#181818;stroke-width:0.3499999999999999;" width="46.2" x="18.9" y="926.5443"/><ellipse cx="29.4" cy="937.7443" fill="#ADD1B2" rx="7.7" ry="7.7" style="stroke:#181818;stroke-width:0.6999999999999998;"/><path d="M31.3359,934.8568 Q31.4453,934.7037 31.5766,934.6271 Q31.7078,934.5506 31.8609,934.5506 Q32.1234,934.5506 32.2875,934.7365 Q32.4516,934.9115 32.4516,935.3381 L32.4516,936.3553 Q32.4516,936.7818 32.2875,936.9678 Q32.1234,937.1537 31.8609,937.1537 Q31.6203,937.1537 31.4781,937.0115 Q31.3359,936.8803 31.2594,936.5193 Q31.2266,936.2678 31.0953,936.1365 Q30.8656,935.874 30.4391,935.7209 Q30.0125,935.5678 29.575,935.5678 Q29.0391,935.5678 28.5906,935.7975 Q28.1531,936.0271 27.8031,936.5521 Q27.4641,937.0771 27.4641,937.799 L27.4641,938.5646 Q27.4641,939.4287 28.0875,940.0084 Q28.7109,940.5771 29.8266,940.5771 Q30.4828,940.5771 30.9422,940.4021 Q31.2156,940.2928 31.5109,939.9865 Q31.6969,939.8006 31.7953,939.7459 Q31.9047,939.6912 32.0469,939.6912 Q32.2766,939.6912 32.4516,939.8771 Q32.6375,940.0521 32.6375,940.2928 Q32.6375,940.5334 32.3969,940.8178 Q32.0469,941.2225 31.4891,941.4521 Q30.7344,941.7693 29.8266,941.7693 Q28.7656,941.7693 27.9234,941.3318 Q27.2344,940.9818 26.7531,940.2381 Q26.2719,939.4834 26.2719,938.5865 L26.2719,937.7771 Q26.2719,936.8475 26.6984,936.049 Q27.1359,935.2396 27.9016,934.8131 Q28.6672,934.3756 29.5312,934.3756 Q30.0453,934.3756 30.4937,934.4959 Q30.9531,934.6053 31.3359,934.8568 Z " fill="#000000"/><text fill="#000000" font-family="sans-serif" font-size="9.8" lengthAdjust="spacing" textLength="23.8" x="39.2" y="941.8021">Email</text><line style="stroke:#181818;stroke-width:0.3499999999999999;" x1="19.6" x2="64.4" y1="948.9443" y2="948.9443"/><line style="stroke:#181818;stroke-width:0.3499999999999999;" x1="19.6" x2="64.4" y1="954.5443" y2="954.5443"/></g><!--class GreenSpace--><g id="elem_GreenSpace"><rect codeLine="84" fill="#F1F1F1" height="150.9129" id="GreenSpace" rx="1.75" ry="1.75" style="stroke:#181818;stroke-width:0.3499999999999999;" width="215.6" x="56.7" y="1058.8443"/><ellipse cx="133.525" cy="1070.0443" fill="#ADD1B2" rx="7.7" ry="7.7" style="stroke:#181818;stroke-width:0.6999999999999998;"/><path d="M135.4609,1067.1568 Q135.5703,1067.0037 135.7016,1066.9271 Q135.8328,1066.8506 135.9859,1066.8506 Q136.2484,1066.8506 136.4125,1067.0365 Q136.5766,1067.2115 136.5766,1067.6381 L136.5766,1068.6553 Q136.5766,1069.0818 136.4125,1069.2678 Q136.2484,1069.4537 135.9859,1069.4537 Q135.7453,1069.4537 135.6031,1069.3115 Q135.4609,1069.1803 135.3844,1068.8193 Q135.3516,1068.5678 135.2203,1068.4365 Q134.9906,1068.174 134.5641,1068.0209 Q134.1375,1067.8678 133.7,1067.8678 Q133.1641,1067.8678 132.7156,1068.0975 Q132.2781,1068.3271 131.9281,1068.8521 Q131.5891,1069.3771 131.5891,1070.099 L131.5891,1070.8646 Q131.5891,1071.7287 132.2125,1072.3084 Q132.8359,1072.8771 133.9516,1072.8771 Q134.6078,1072.8771 135.0672,1072.7021 Q135.3406,1072.5928 135.6359,1072.2865 Q135.8219,1072.1006 135.9203,1072.0459 Q136.0297,1071.9912 136.1719,1071.9912 Q136.4016,1071.9912 136.5766,1072.1771 Q136.7625,1072.3521 136.7625,1072.5928 Q136.7625,1072.8334 136.5219,1073.1178 Q136.1719,1073.5225 135.6141,1073.7521 Q134.8594,1074.0693 133.9516,1074.0693 Q132.8906,1074.0693 132.0484,1073.6318 Q131.3594,1073.2818 130.8781,1072.5381 Q130.3969,1071.7834 130.3969,1070.8865 L130.3969,1070.0771 Q130.3969,1069.1475 130.8234,1068.349 Q131.2609,1067.5396 132.0266,1067.1131 Q132.7922,1066.6756 133.6562,1066.6756 Q134.1703,1066.6756 134.6187,1066.7959 Q135.0781,1066.9053 135.4609,1067.1568 Z " fill="#000000"/><text fill="#000000" font-family="sans-serif" font-size="9.8" lengthAdjust="spacing" textLength="56" x="147.875" y="1074.1021">GreenSpace</text><line style="stroke:#181818;stroke-width:0.3499999999999999;" x1="57.4" x2="271.6" y1="1081.2443" y2="1081.2443"/><text fill="#000000" font-family="sans-serif" font-size="9.8" lengthAdjust="spacing" textLength="103.6" x="60.9" y="1094.6195">-GreenSpaceType type</text><text fill="#000000" font-family="sans-serif" font-size="9.8" lengthAdjust="spacing" textLength="56.7" x="60.9" y="1107.6543">-String name</text><text fill="#000000" font-family="sans-serif" font-size="9.8" lengthAdjust="spacing" textLength="76.3" x="60.9" y="1120.6891">-double totalArea</text><text fill="#000000" font-family="sans-serif" font-size="9.8" lengthAdjust="spacing" textLength="71.4" x="60.9" y="1133.7238">-String manager</text><line style="stroke:#181818;stroke-width:0.3499999999999999;" x1="57.4" x2="271.6" y1="1138.9834" y2="1138.9834"/><text fill="#000000" font-family="sans-serif" font-size="9.8" lengthAdjust="spacing" textLength="207.2" x="60.9" y="1152.3586">+GreenSpace(type,name,street, streetNumber,</text><text fill="#000000" font-family="sans-serif" font-size="9.8" lengthAdjust="spacing" textLength="190.4" x="60.9" y="1165.3934">postalCode,city,district,totalArea, manager)</text><text fill="#000000" font-family="sans-serif" font-size="9.8" lengthAdjust="spacing" textLength="86.1" x="60.9" y="1178.4281">-validateType(type)</text><text fill="#000000" font-family="sans-serif" font-size="9.8" lengthAdjust="spacing" textLength="94.5" x="60.9" y="1191.4629">-validateName(name)</text><text fill="#000000" font-family="sans-serif" font-size="9.8" lengthAdjust="spacing" textLength="128.1" x="60.9" y="1204.4977">-validateTotalArea(totalArea)</text></g><!--class Task--><g id="elem_Task"><rect codeLine="95" fill="#F1F1F1" height="137.8781" id="Task" rx="1.75" ry="1.75" style="stroke:#181818;stroke-width:0.3499999999999999;" width="217" x="296.8" y="1065.4943"/><ellipse cx="391.475" cy="1076.6943" fill="#ADD1B2" rx="7.7" ry="7.7" style="stroke:#181818;stroke-width:0.6999999999999998;"/><path d="M393.4109,1073.8068 Q393.5203,1073.6537 393.6516,1073.5771 Q393.7828,1073.5006 393.9359,1073.5006 Q394.1984,1073.5006 394.3625,1073.6865 Q394.5266,1073.8615 394.5266,1074.2881 L394.5266,1075.3053 Q394.5266,1075.7318 394.3625,1075.9178 Q394.1984,1076.1037 393.9359,1076.1037 Q393.6953,1076.1037 393.5531,1075.9615 Q393.4109,1075.8303 393.3344,1075.4693 Q393.3016,1075.2178 393.1703,1075.0865 Q392.9406,1074.824 392.5141,1074.6709 Q392.0875,1074.5178 391.65,1074.5178 Q391.1141,1074.5178 390.6656,1074.7475 Q390.2281,1074.9771 389.8781,1075.5021 Q389.5391,1076.0271 389.5391,1076.749 L389.5391,1077.5146 Q389.5391,1078.3787 390.1625,1078.9584 Q390.7859,1079.5271 391.9016,1079.5271 Q392.5578,1079.5271 393.0172,1079.3521 Q393.2906,1079.2428 393.5859,1078.9365 Q393.7719,1078.7506 393.8703,1078.6959 Q393.9797,1078.6412 394.1219,1078.6412 Q394.3516,1078.6412 394.5266,1078.8271 Q394.7125,1079.0021 394.7125,1079.2428 Q394.7125,1079.4834 394.4719,1079.7678 Q394.1219,1080.1725 393.5641,1080.4021 Q392.8094,1080.7193 391.9016,1080.7193 Q390.8406,1080.7193 389.9984,1080.2818 Q389.3094,1079.9318 388.8281,1079.1881 Q388.3469,1078.4334 388.3469,1077.5365 L388.3469,1076.7271 Q388.3469,1075.7975 388.7734,1074.999 Q389.2109,1074.1896 389.9766,1073.7631 Q390.7422,1073.3256 391.6062,1073.3256 Q392.1203,1073.3256 392.5687,1073.4459 Q393.0281,1073.5553 393.4109,1073.8068 Z " fill="#000000"/><text fill="#000000" font-family="sans-serif" font-size="9.8" lengthAdjust="spacing" textLength="21.7" x="405.825" y="1080.7521">Task</text><line style="stroke:#181818;stroke-width:0.3499999999999999;" x1="297.5" x2="513.1" y1="1087.8943" y2="1087.8943"/><text fill="#000000" font-family="sans-serif" font-size="9.8" lengthAdjust="spacing" textLength="50.4" x="301" y="1101.2695">-String title;</text><text fill="#000000" font-family="sans-serif" font-size="9.8" lengthAdjust="spacing" textLength="83.3" x="301" y="1114.3043">-String description;</text><text fill="#000000" font-family="sans-serif" font-size="9.8" lengthAdjust="spacing" textLength="93.8" x="301" y="1127.3391">-TaskType taskType;</text><text fill="#000000" font-family="sans-serif" font-size="9.8" lengthAdjust="spacing" textLength="63.7" x="301" y="1140.3738">-Status status;</text><text fill="#000000" font-family="sans-serif" font-size="9.8" lengthAdjust="spacing" textLength="8.4" x="301" y="1153.4086">...</text><line style="stroke:#181818;stroke-width:0.3499999999999999;" x1="297.5" x2="513.1" y1="1158.6682" y2="1158.6682"/><text fill="#000000" font-family="sans-serif" font-size="9.8" lengthAdjust="spacing" textLength="208.6" x="301" y="1172.0434">+Task(title, description, taskType, greenSpace,</text><text fill="#000000" font-family="sans-serif" font-size="9.8" lengthAdjust="spacing" textLength="136.5" x="301" y="1185.0781">urgency, days, hours, minutes)</text><text fill="#000000" font-family="sans-serif" font-size="9.8" lengthAdjust="spacing" textLength="15.4" x="301" y="1198.1129">(...)</text></g><!--class TaskDuration--><g id="elem_TaskDuration"><rect codeLine="106" fill="#F1F1F1" height="124.8434" id="TaskDuration" rx="1.75" ry="1.75" style="stroke:#181818;stroke-width:0.3499999999999999;" width="204.4" x="303.1" y="1265.3443"/><ellipse cx="372.575" cy="1276.5443" fill="#ADD1B2" rx="7.7" ry="7.7" style="stroke:#181818;stroke-width:0.6999999999999998;"/><path d="M374.5109,1273.6568 Q374.6203,1273.5037 374.7516,1273.4271 Q374.8828,1273.3506 375.0359,1273.3506 Q375.2984,1273.3506 375.4625,1273.5365 Q375.6266,1273.7115 375.6266,1274.1381 L375.6266,1275.1553 Q375.6266,1275.5818 375.4625,1275.7678 Q375.2984,1275.9537 375.0359,1275.9537 Q374.7953,1275.9537 374.6531,1275.8115 Q374.5109,1275.6803 374.4344,1275.3193 Q374.4016,1275.0678 374.2703,1274.9365 Q374.0406,1274.674 373.6141,1274.5209 Q373.1875,1274.3678 372.75,1274.3678 Q372.2141,1274.3678 371.7656,1274.5975 Q371.3281,1274.8271 370.9781,1275.3521 Q370.6391,1275.8771 370.6391,1276.599 L370.6391,1277.3646 Q370.6391,1278.2287 371.2625,1278.8084 Q371.8859,1279.3771 373.0016,1279.3771 Q373.6578,1279.3771 374.1172,1279.2021 Q374.3906,1279.0928 374.6859,1278.7865 Q374.8719,1278.6006 374.9703,1278.5459 Q375.0797,1278.4912 375.2219,1278.4912 Q375.4516,1278.4912 375.6266,1278.6771 Q375.8125,1278.8521 375.8125,1279.0928 Q375.8125,1279.3334 375.5719,1279.6178 Q375.2219,1280.0225 374.6641,1280.2521 Q373.9094,1280.5693 373.0016,1280.5693 Q371.9406,1280.5693 371.0984,1280.1318 Q370.4094,1279.7818 369.9281,1279.0381 Q369.4469,1278.2834 369.4469,1277.3865 L369.4469,1276.5771 Q369.4469,1275.6475 369.8734,1274.849 Q370.3109,1274.0396 371.0766,1273.6131 Q371.8422,1273.1756 372.7062,1273.1756 Q373.2203,1273.1756 373.6687,1273.2959 Q374.1281,1273.4053 374.5109,1273.6568 Z " fill="#000000"/><text fill="#000000" font-family="sans-serif" font-size="9.8" lengthAdjust="spacing" textLength="59.5" x="386.925" y="1280.6021">TaskDuration</text><line style="stroke:#181818;stroke-width:0.3499999999999999;" x1="303.8" x2="506.8" y1="1287.7443" y2="1287.7443"/><text fill="#000000" font-family="sans-serif" font-size="9.8" lengthAdjust="spacing" textLength="40.6" x="307.3" y="1301.1195">-int days;</text><text fill="#000000" font-family="sans-serif" font-size="9.8" lengthAdjust="spacing" textLength="44.8" x="307.3" y="1314.1543">-int hours;</text><text fill="#000000" font-family="sans-serif" font-size="9.8" lengthAdjust="spacing" textLength="53.9" x="307.3" y="1327.1891">-int minutes;</text><text fill="#000000" font-family="sans-serif" font-size="9.8" lengthAdjust="spacing" textLength="110.6" x="307.3" y="1340.2238">-int totalDurationMinutes;</text><line style="stroke:#181818;stroke-width:0.3499999999999999;" x1="303.8" x2="506.8" y1="1345.4834" y2="1345.4834"/><text fill="#000000" font-family="sans-serif" font-size="9.8" lengthAdjust="spacing" textLength="163.8" x="307.3" y="1358.8586">+TaskDuration(days, hours, minutes)</text><text fill="#000000" font-family="sans-serif" font-size="9.8" lengthAdjust="spacing" textLength="177.1" x="307.3" y="1371.8934">+setTaskDuration(days, hours, minutes)</text><text fill="#000000" font-family="sans-serif" font-size="9.8" lengthAdjust="spacing" textLength="196" x="307.3" y="1384.9281">-validateTaskDuration(days, hours, minutes)</text></g><!--class GreenSpaceMapper--><g id="elem_GreenSpaceMapper"><rect codeLine="122" fill="#F1F1F1" height="72.7043" id="GreenSpaceMapper" rx="1.75" ry="1.75" style="stroke:#181818;stroke-width:0.3499999999999999;" width="217" x="751.8" y="528.9443"/><ellipse cx="812.525" cy="540.1443" fill="#ADD1B2" rx="7.7" ry="7.7" style="stroke:#181818;stroke-width:0.6999999999999998;"/><path d="M814.4609,537.2568 Q814.5703,537.1037 814.7016,537.0271 Q814.8328,536.9506 814.9859,536.9506 Q815.2484,536.9506 815.4125,537.1365 Q815.5766,537.3115 815.5766,537.7381 L815.5766,538.7553 Q815.5766,539.1818 815.4125,539.3678 Q815.2484,539.5537 814.9859,539.5537 Q814.7453,539.5537 814.6031,539.4115 Q814.4609,539.2803 814.3844,538.9193 Q814.3516,538.6678 814.2203,538.5365 Q813.9906,538.274 813.5641,538.1209 Q813.1375,537.9678 812.7,537.9678 Q812.1641,537.9678 811.7156,538.1975 Q811.2781,538.4271 810.9281,538.9521 Q810.5891,539.4771 810.5891,540.199 L810.5891,540.9646 Q810.5891,541.8287 811.2125,542.4084 Q811.8359,542.9771 812.9516,542.9771 Q813.6078,542.9771 814.0672,542.8021 Q814.3406,542.6928 814.6359,542.3865 Q814.8219,542.2006 814.9203,542.1459 Q815.0297,542.0912 815.1719,542.0912 Q815.4016,542.0912 815.5766,542.2771 Q815.7625,542.4521 815.7625,542.6928 Q815.7625,542.9334 815.5219,543.2178 Q815.1719,543.6225 814.6141,543.8521 Q813.8594,544.1693 812.9516,544.1693 Q811.8906,544.1693 811.0484,543.7318 Q810.3594,543.3818 809.8781,542.6381 Q809.3969,541.8834 809.3969,540.9865 L809.3969,540.1771 Q809.3969,539.2475 809.8234,538.449 Q810.2609,537.6396 811.0266,537.2131 Q811.7922,536.7756 812.6562,536.7756 Q813.1703,536.7756 813.6187,536.8959 Q814.0781,537.0053 814.4609,537.2568 Z " fill="#000000"/><text fill="#000000" font-family="sans-serif" font-size="9.8" lengthAdjust="spacing" textLength="89.6" x="826.875" y="544.2021">GreenSpaceMapper</text><line style="stroke:#181818;stroke-width:0.3499999999999999;" x1="752.5" x2="968.1" y1="551.3443" y2="551.3443"/><line style="stroke:#181818;stroke-width:0.3499999999999999;" x1="752.5" x2="968.1" y1="556.9443" y2="556.9443"/><text fill="#000000" font-family="sans-serif" font-size="9.8" lengthAdjust="spacing" textLength="102.2" x="756" y="570.3195">+GreenSpaceMapper()</text><text fill="#000000" font-family="sans-serif" font-size="9.8" lengthAdjust="spacing" textLength="208.6" x="756" y="583.3543">+toDTOlist(List&lt;GreenSpace&gt; greenSpaceList)</text><text fill="#000000" font-family="sans-serif" font-size="9.8" lengthAdjust="spacing" textLength="95.9" x="756" y="596.3891">+toDTO(greenSpace)</text></g><!--class ToDoListMapper--><g id="elem_ToDoListMapper"><rect codeLine="128" fill="#F1F1F1" height="59.6695" id="ToDoListMapper" rx="1.75" ry="1.75" style="stroke:#181818;stroke-width:0.3499999999999999;" width="174.3" x="993.65" y="535.5943"/><ellipse cx="1041.075" cy="546.7943" fill="#ADD1B2" rx="7.7" ry="7.7" style="stroke:#181818;stroke-width:0.6999999999999998;"/><path d="M1043.0109,543.9068 Q1043.1203,543.7537 1043.2516,543.6771 Q1043.3828,543.6006 1043.5359,543.6006 Q1043.7984,543.6006 1043.9625,543.7865 Q1044.1266,543.9615 1044.1266,544.3881 L1044.1266,545.4053 Q1044.1266,545.8318 1043.9625,546.0178 Q1043.7984,546.2037 1043.5359,546.2037 Q1043.2953,546.2037 1043.1531,546.0615 Q1043.0109,545.9303 1042.9344,545.5693 Q1042.9016,545.3178 1042.7703,545.1865 Q1042.5406,544.924 1042.1141,544.7709 Q1041.6875,544.6178 1041.25,544.6178 Q1040.7141,544.6178 1040.2656,544.8475 Q1039.8281,545.0771 1039.4781,545.6021 Q1039.1391,546.1271 1039.1391,546.849 L1039.1391,547.6146 Q1039.1391,548.4787 1039.7625,549.0584 Q1040.3859,549.6271 1041.5016,549.6271 Q1042.1578,549.6271 1042.6172,549.4521 Q1042.8906,549.3428 1043.1859,549.0365 Q1043.3719,548.8506 1043.4703,548.7959 Q1043.5797,548.7412 1043.7219,548.7412 Q1043.9516,548.7412 1044.1266,548.9271 Q1044.3125,549.1021 1044.3125,549.3428 Q1044.3125,549.5834 1044.0719,549.8678 Q1043.7219,550.2725 1043.1641,550.5021 Q1042.4094,550.8193 1041.5016,550.8193 Q1040.4406,550.8193 1039.5984,550.3818 Q1038.9094,550.0318 1038.4281,549.2881 Q1037.9469,548.5334 1037.9469,547.6365 L1037.9469,546.8271 Q1037.9469,545.8975 1038.3734,545.099 Q1038.8109,544.2896 1039.5766,543.8631 Q1040.3422,543.4256 1041.2062,543.4256 Q1041.7203,543.4256 1042.1687,543.5459 Q1042.6281,543.6553 1043.0109,543.9068 Z " fill="#000000"/><text fill="#000000" font-family="sans-serif" font-size="9.8" lengthAdjust="spacing" textLength="73.5" x="1055.425" y="550.8521">ToDoListMapper</text><line style="stroke:#181818;stroke-width:0.3499999999999999;" x1="994.35" x2="1167.25" y1="557.9943" y2="557.9943"/><line style="stroke:#181818;stroke-width:0.3499999999999999;" x1="994.35" x2="1167.25" y1="563.5943" y2="563.5943"/><text fill="#000000" font-family="sans-serif" font-size="9.8" lengthAdjust="spacing" textLength="86.1" x="997.85" y="576.9695">+ToDoListMapper()</text><text fill="#000000" font-family="sans-serif" font-size="9.8" lengthAdjust="spacing" textLength="165.9" x="997.85" y="590.0043">+toTask(toDoTaskDTO, greenSpace)</text></g><!--class GreenSpaceDTO--><g id="elem_GreenSpaceDTO"><rect codeLine="135" fill="#F1F1F1" height="163.9477" id="GreenSpaceDTO" rx="1.75" ry="1.75" style="stroke:#181818;stroke-width:0.3499999999999999;" width="399" x="681.1" y="686.0943"/><ellipse cx="839.125" cy="697.2943" fill="#ADD1B2" rx="7.7" ry="7.7" style="stroke:#181818;stroke-width:0.6999999999999998;"/><path d="M841.0609,694.4068 Q841.1703,694.2537 841.3016,694.1771 Q841.4328,694.1006 841.5859,694.1006 Q841.8484,694.1006 842.0125,694.2865 Q842.1766,694.4615 842.1766,694.8881 L842.1766,695.9053 Q842.1766,696.3318 842.0125,696.5178 Q841.8484,696.7037 841.5859,696.7037 Q841.3453,696.7037 841.2031,696.5615 Q841.0609,696.4303 840.9844,696.0693 Q840.9516,695.8178 840.8203,695.6865 Q840.5906,695.424 840.1641,695.2709 Q839.7375,695.1178 839.3,695.1178 Q838.7641,695.1178 838.3156,695.3475 Q837.8781,695.5771 837.5281,696.1021 Q837.1891,696.6271 837.1891,697.349 L837.1891,698.1146 Q837.1891,698.9787 837.8125,699.5584 Q838.4359,700.1271 839.5516,700.1271 Q840.2078,700.1271 840.6672,699.9521 Q840.9406,699.8428 841.2359,699.5365 Q841.4219,699.3506 841.5203,699.2959 Q841.6297,699.2412 841.7719,699.2412 Q842.0016,699.2412 842.1766,699.4271 Q842.3625,699.6021 842.3625,699.8428 Q842.3625,700.0834 842.1219,700.3678 Q841.7719,700.7725 841.2141,701.0021 Q840.4594,701.3193 839.5516,701.3193 Q838.4906,701.3193 837.6484,700.8818 Q836.9594,700.5318 836.4781,699.7881 Q835.9969,699.0334 835.9969,698.1365 L835.9969,697.3271 Q835.9969,696.3975 836.4234,695.599 Q836.8609,694.7896 837.6266,694.3631 Q838.3922,693.9256 839.2562,693.9256 Q839.7703,693.9256 840.2187,694.0459 Q840.6781,694.1553 841.0609,694.4068 Z " fill="#000000"/><text fill="#000000" font-family="sans-serif" font-size="9.8" lengthAdjust="spacing" textLength="77" x="853.475" y="701.3521">GreenSpaceDTO</text><line style="stroke:#181818;stroke-width:0.3499999999999999;" x1="681.8" x2="1079.4" y1="708.4943" y2="708.4943"/><text fill="#000000" font-family="sans-serif" font-size="9.8" lengthAdjust="spacing" textLength="58.8" x="685.3" y="721.8695">+String name</text><text fill="#000000" font-family="sans-serif" font-size="9.8" lengthAdjust="spacing" textLength="105.7" x="685.3" y="734.9043">+GreenSpaceType type</text><text fill="#000000" font-family="sans-serif" font-size="9.8" lengthAdjust="spacing" textLength="79.8" x="685.3" y="747.9391">+Double totalArea</text><text fill="#000000" font-family="sans-serif" font-size="9.8" lengthAdjust="spacing" textLength="59.5" x="685.3" y="760.9738">+String street</text><text fill="#000000" font-family="sans-serif" font-size="9.8" lengthAdjust="spacing" textLength="78.4" x="685.3" y="774.0086">+int streetNumber</text><text fill="#000000" font-family="sans-serif" font-size="9.8" lengthAdjust="spacing" textLength="84.7" x="685.3" y="787.0434">+String postalCode</text><text fill="#000000" font-family="sans-serif" font-size="9.8" lengthAdjust="spacing" textLength="49" x="685.3" y="800.0781">+String city</text><text fill="#000000" font-family="sans-serif" font-size="9.8" lengthAdjust="spacing" textLength="63" x="685.3" y="813.1129">+String district</text><line style="stroke:#181818;stroke-width:0.3499999999999999;" x1="681.8" x2="1079.4" y1="818.3725" y2="818.3725"/><text fill="#000000" font-family="sans-serif" font-size="9.8" lengthAdjust="spacing" textLength="390.6" x="685.3" y="831.7477">+GreenSpaceDTO(name, type, totalArea, street, streetNumber, postalCode, city, district)</text><text fill="#000000" font-family="sans-serif" font-size="9.8" lengthAdjust="spacing" textLength="86.1" x="685.3" y="844.7824">+addressToString()</text></g><!--class ToDoTaskDTO--><g id="elem_ToDoTaskDTO"><rect codeLine="149" fill="#F1F1F1" height="176.9824" id="ToDoTaskDTO" rx="1.75" ry="1.75" style="stroke:#181818;stroke-width:0.3499999999999999;" width="204.4" x="1104.6" y="679.4443"/><ellipse cx="1170.225" cy="690.6443" fill="#ADD1B2" rx="7.7" ry="7.7" style="stroke:#181818;stroke-width:0.6999999999999998;"/><path d="M1172.1609,687.7568 Q1172.2703,687.6037 1172.4016,687.5271 Q1172.5328,687.4506 1172.6859,687.4506 Q1172.9484,687.4506 1173.1125,687.6365 Q1173.2766,687.8115 1173.2766,688.2381 L1173.2766,689.2553 Q1173.2766,689.6818 1173.1125,689.8678 Q1172.9484,690.0537 1172.6859,690.0537 Q1172.4453,690.0537 1172.3031,689.9115 Q1172.1609,689.7803 1172.0844,689.4193 Q1172.0516,689.1678 1171.9203,689.0365 Q1171.6906,688.774 1171.2641,688.6209 Q1170.8375,688.4678 1170.4,688.4678 Q1169.8641,688.4678 1169.4156,688.6975 Q1168.9781,688.9271 1168.6281,689.4521 Q1168.2891,689.9771 1168.2891,690.699 L1168.2891,691.4646 Q1168.2891,692.3287 1168.9125,692.9084 Q1169.5359,693.4771 1170.6516,693.4771 Q1171.3078,693.4771 1171.7672,693.3021 Q1172.0406,693.1928 1172.3359,692.8865 Q1172.5219,692.7006 1172.6203,692.6459 Q1172.7297,692.5912 1172.8719,692.5912 Q1173.1016,692.5912 1173.2766,692.7771 Q1173.4625,692.9521 1173.4625,693.1928 Q1173.4625,693.4334 1173.2219,693.7178 Q1172.8719,694.1225 1172.3141,694.3521 Q1171.5594,694.6693 1170.6516,694.6693 Q1169.5906,694.6693 1168.7484,694.2318 Q1168.0594,693.8818 1167.5781,693.1381 Q1167.0969,692.3834 1167.0969,691.4865 L1167.0969,690.6771 Q1167.0969,689.7475 1167.5234,688.949 Q1167.9609,688.1396 1168.7266,687.7131 Q1169.4922,687.2756 1170.3562,687.2756 Q1170.8703,687.2756 1171.3187,687.3959 Q1171.7781,687.5053 1172.1609,687.7568 Z " fill="#000000"/><text fill="#000000" font-family="sans-serif" font-size="9.8" lengthAdjust="spacing" textLength="67.2" x="1184.575" y="694.7021">ToDoTaskDTO</text><line style="stroke:#181818;stroke-width:0.3499999999999999;" x1="1105.3" x2="1308.3" y1="701.8443" y2="701.8443"/><text fill="#000000" font-family="sans-serif" font-size="9.8" lengthAdjust="spacing" textLength="52.5" x="1108.8" y="715.2195">+String title;</text><text fill="#000000" font-family="sans-serif" font-size="9.8" lengthAdjust="spacing" textLength="85.4" x="1108.8" y="728.2543">+String description;</text><text fill="#000000" font-family="sans-serif" font-size="9.8" lengthAdjust="spacing" textLength="95.9" x="1108.8" y="741.2891">+TaskType taskType;</text><text fill="#000000" font-family="sans-serif" font-size="9.8" lengthAdjust="spacing" textLength="116.2" x="1108.8" y="754.3238">+String greenSpaceName;</text><text fill="#000000" font-family="sans-serif" font-size="9.8" lengthAdjust="spacing" textLength="105.7" x="1108.8" y="767.3586">+UrgencyType urgency;</text><text fill="#000000" font-family="sans-serif" font-size="9.8" lengthAdjust="spacing" textLength="42.7" x="1108.8" y="780.3934">+int days;</text><text fill="#000000" font-family="sans-serif" font-size="9.8" lengthAdjust="spacing" textLength="46.9" x="1108.8" y="793.4281">+int hours;</text><text fill="#000000" font-family="sans-serif" font-size="9.8" lengthAdjust="spacing" textLength="56" x="1108.8" y="806.4629">+int minutes;</text><line style="stroke:#181818;stroke-width:0.3499999999999999;" x1="1105.3" x2="1308.3" y1="811.7225" y2="811.7225"/><text fill="#000000" font-family="sans-serif" font-size="9.8" lengthAdjust="spacing" textLength="194.6" x="1108.8" y="825.0977">+ToDoTaskDTO(title, description, taskType,</text><text fill="#000000" font-family="sans-serif" font-size="9.8" lengthAdjust="spacing" textLength="196" x="1108.8" y="838.1324">greenSpace, urgency, days, hours, minutes)</text><text fill="#000000" font-family="sans-serif" font-size="9.8" lengthAdjust="spacing" textLength="128.1" x="1108.8" y="851.1672">+expectedDurationToString()</text></g><!--link AddNewEntryToDoUI to AddNewEntryToDoController--><g id="link_AddNewEntryToDoUI_AddNewEntryToDoController"><path codeLine="164" d="M572.6,247.7613 C572.6,268.4673 572.6,285.3793 572.6,303.4113 " fill="none" id="AddNewEntryToDoUI-to-AddNewEntryToDoController" style="stroke:#181818;stroke-width:0.6999999999999998;stroke-dasharray:7.0,7.0;"/><polygon fill="#181818" points="572.6,307.6113,575.4,301.3113,572.6,304.1113,569.8,301.3113,572.6,307.6113" style="stroke:#181818;stroke-width:0.6999999999999998;"/></g><!--link AddNewEntryToDoController to Repositories--><g id="link_AddNewEntryToDoController_Repositories"><path codeLine="165" d="M500.584,406.4793 C467.46,428.8723 435.4,450.5443 435.4,450.5443 C435.4,450.5443 401.2584,486.92 370.7524,519.421 " fill="none" id="AddNewEntryToDoController-to-Repositories" style="stroke:#181818;stroke-width:0.6999999999999998;stroke-dasharray:7.0,7.0;"/><polygon fill="#181818" points="367.878,522.4833,374.2311,519.8061,370.2733,519.9314,370.148,515.9736,367.878,522.4833" style="stroke:#181818;stroke-width:0.6999999999999998;"/><text fill="#000000" font-family="sans-serif" font-size="9.1" lengthAdjust="spacing" textLength="46.9" x="436.1" y="461.0642">repositories</text></g><!--link AddNewEntryToDoController to GreenSpaceRepository--><g id="link_AddNewEntryToDoController_GreenSpaceRepository"><path codeLine="166" d="M537.663,406.5633 C519.855,431.4343 501.9,456.4943 501.9,456.4943 C501.9,456.4943 501.9,456.4943 501.9,768.6943 C501.9,768.6943 339.8435,861.9119 253.7575,911.4369 " fill="none" id="AddNewEntryToDoController-to-GreenSpaceRepository" style="stroke:#181818;stroke-width:0.6999999999999998;stroke-dasharray:7.0,7.0;"/><polygon fill="#181818" points="250.117,913.5313,256.9741,912.8168,253.1508,911.786,254.1815,907.9627,250.117,913.5313" style="stroke:#181818;stroke-width:0.6999999999999998;"/><text fill="#000000" font-family="sans-serif" font-size="9.1" lengthAdjust="spacing" textLength="91.7" x="502.6" y="569.2142">greenSpaceRepository</text></g><!--link AddNewEntryToDoController to ToDoRepository--><g id="link_AddNewEntryToDoController_ToDoRepository"><path codeLine="167" d="M607.88,406.5633 C625.87,431.4343 644,456.4943 644,456.4943 C644,456.4943 644,456.4943 644,768.6943 C644,768.6943 520.1,879.6443 520.1,879.6443 C520.1,879.6443 489.6656,894.7771 456.8006,911.1221 " fill="none" id="AddNewEntryToDoController-to-ToDoRepository" style="stroke:#181818;stroke-width:0.6999999999999998;stroke-dasharray:7.0,7.0;"/><polygon fill="#181818" points="453.04,912.9923,459.9277,912.694,456.1738,911.4338,457.434,907.6799,453.04,912.9923" style="stroke:#181818;stroke-width:0.6999999999999998;"/><text fill="#000000" font-family="sans-serif" font-size="9.1" lengthAdjust="spacing" textLength="62.3" x="644.7" y="569.2142">toDoRepository</text></g><!--link AddNewEntryToDoController to ApplicationSession--><g id="link_AddNewEntryToDoController_ApplicationSession"><path codeLine="168" d="M489.195,391.9613 C392.756,431.4693 247.1,491.1443 247.1,491.1443 C247.1,491.1443 217.9567,505.4435 182.9847,522.6005 " fill="none" id="AddNewEntryToDoController-to-ApplicationSession" style="stroke:#181818;stroke-width:0.6999999999999998;stroke-dasharray:7.0,7.0;"/><polygon fill="#181818" points="179.214,524.4503,186.1033,524.1893,182.3562,522.9088,183.6368,519.1618,179.214,524.4503" style="stroke:#181818;stroke-width:0.6999999999999998;"/></g><!--link Repositories to Repositories--><g id="link_Repositories_Repositories"><path codeLine="169" d="M397.635,552.7023 C411.88,554.0533 422.1,558.2673 422.1,565.3443 C422.1,572.4213 416.0612,576.2388 401.8162,577.5898 " fill="none" id="Repositories-to-Repositories" style="stroke:#181818;stroke-width:0.6999999999999998;"/><polygon fill="#181818" points="397.635,577.9863,404.1712,580.179,401.1194,577.6559,403.6425,574.604,397.635,577.9863" style="stroke:#181818;stroke-width:0.6999999999999998;"/><text fill="#000000" font-family="sans-serif" font-size="9.1" lengthAdjust="spacing" textLength="34.3" x="426.3" y="569.2142">instance</text></g><!--link Repositories to GreenSpaceRepository--><g id="link_Repositories_GreenSpaceRepository"><path codeLine="170" d="M313.901,608.1493 C287.546,685.2123 233.5352,843.1344 210.8622,909.4244 " fill="none" id="Repositories-to-GreenSpaceRepository" style="stroke:#181818;stroke-width:0.6999999999999998;"/><polygon fill="#181818" points="209.503,913.3983,214.1911,908.3435,210.6357,910.0867,208.8925,906.5312,209.503,913.3983" style="stroke:#181818;stroke-width:0.6999999999999998;"/><text fill="#000000" font-family="sans-serif" font-size="9.1" lengthAdjust="spacing" textLength="4.9" x="205.8068" y="905.6">1</text></g><!--link Repositories to ToDoRepository--><g id="link_Repositories_ToDoRepository"><path codeLine="171" d="M335.58,608.1493 C348.103,680.6063 372.8744,823.9157 385.4044,896.3867 " fill="none" id="Repositories-to-ToDoRepository" style="stroke:#181818;stroke-width:0.6999999999999998;"/><polygon fill="#181818" points="386.12,900.5253,387.8057,893.8404,385.5237,897.0765,382.2876,894.7945,386.12,900.5253" style="stroke:#181818;stroke-width:0.6999999999999998;"/><text fill="#000000" font-family="sans-serif" font-size="9.1" lengthAdjust="spacing" textLength="4.9" x="380.095" y="892.7984">1</text></g><!--link ApplicationSession to ApplicationSession--><g id="link_ApplicationSession_ApplicationSession"><path codeLine="172" d="M179.389,553.0383 C193.725,554.6833 203.7,558.7783 203.7,565.3443 C203.7,571.9103 197.8976,575.5265 183.5616,577.1715 " fill="none" id="ApplicationSession-to-ApplicationSession" style="stroke:#181818;stroke-width:0.6999999999999998;"/><polygon fill="#181818" points="179.389,577.6503,185.9671,579.7139,182.8662,577.2513,185.3287,574.1504,179.389,577.6503" style="stroke:#181818;stroke-width:0.6999999999999998;"/><text fill="#000000" font-family="sans-serif" font-size="9.1" lengthAdjust="spacing" textLength="34.3" x="207.9" y="569.2142">instance</text></g><!--link ApplicationSession to UserSession--><g id="link_ApplicationSession_UserSession"><path codeLine="173" d="M92.897,608.2333 C88.571,649.7293 82.5605,707.3271 79.1095,740.3531 " fill="none" id="ApplicationSession-to-UserSession" style="stroke:#181818;stroke-width:0.6999999999999998;"/><polygon fill="#181818" points="78.673,744.5303,82.1126,738.5554,79.0367,741.0493,76.5429,737.9735,78.673,744.5303" style="stroke:#181818;stroke-width:0.6999999999999998;"/><text fill="#000000" font-family="sans-serif" font-size="9.1" lengthAdjust="spacing" textLength="50.4" x="91.7" y="639.5642">userSession</text><text fill="#000000" font-family="sans-serif" font-size="9.1" lengthAdjust="spacing" textLength="4.9" x="73.7578" y="736.7054">1</text></g><!--link UserSession to Email--><g id="link_UserSession_Email"><path codeLine="174" d="M71.778,791.6123 C64.743,827.3193 52.1438,891.2107 46.0118,922.2977 " fill="none" id="UserSession-to-Email" style="stroke:#181818;stroke-width:0.6999999999999998;stroke-dasharray:7.0,7.0;"/><polygon fill="#181818" points="45.199,926.4183,49.1653,920.7793,45.8763,922.9845,43.6711,919.6956,45.199,926.4183" style="stroke:#181818;stroke-width:0.6999999999999998;"/></g><!--link GreenSpaceRepository to GreenSpace--><g id="link_GreenSpaceRepository_GreenSpace"><path codeLine="175" d="M194.11,973.2693 C189.896,996.0823 184.617,1024.698 179.087,1054.672 " fill="none" id="GreenSpaceRepository-to-GreenSpace" style="stroke:#181818;stroke-width:0.6999999999999998;"/><polygon fill="#181818" points="178.325,1058.8023,182.2215,1053.1149,178.96,1055.3604,176.7145,1052.0989,178.325,1058.8023" style="stroke:#181818;stroke-width:0.6999999999999998;"/><text fill="#000000" font-family="sans-serif" font-size="9.1" lengthAdjust="spacing" textLength="4.9" x="188.0095" y="988.5851">1</text></g><!--link ToDoRepository to Task--><g id="link_ToDoRepository_Task"><path codeLine="176" d="M396.039,986.1423 C397.502,1009.3963 399.0873,1034.6536 400.7463,1061.1206 " fill="none" id="ToDoRepository-to-Task" style="stroke:#181818;stroke-width:0.6999999999999998;"/><polygon fill="#181818" points="401.009,1065.3123,403.4094,1058.8495,400.79,1061.8192,397.8204,1059.1998,401.009,1065.3123" style="stroke:#181818;stroke-width:0.6999999999999998;"/><text fill="#000000" font-family="sans-serif" font-size="9.1" lengthAdjust="spacing" textLength="17.5" x="398.3" y="1018.9642">task</text><text fill="#000000" font-family="sans-serif" font-size="9.1" lengthAdjust="spacing" textLength="4.9" x="391.162" y="1001.8951">1</text></g><!--reverse link Task to TaskDuration--><g id="link_Task_TaskDuration"><path codeLine="177" d="M405.3,1211.9763 C405.3,1232.0943 405.3,1245.5763 405.3,1265.2463 " fill="none" id="Task-backto-TaskDuration" style="stroke:#181818;stroke-width:0.6999999999999998;"/><polygon fill="#181818" points="405.3,1203.5763,402.5,1207.7763,405.3,1211.9763,408.1,1207.7763,405.3,1203.5763" style="stroke:#181818;stroke-width:0.6999999999999998;"/><text fill="#000000" font-family="sans-serif" font-size="9.1" lengthAdjust="spacing" textLength="51.1" x="406" y="1241.5642">taskDuration</text><text fill="#000000" font-family="sans-serif" font-size="9.1" lengthAdjust="spacing" textLength="4.9" x="400.1971" y="1257.5044">1</text></g><!--link AddNewEntryToDoController to GreenSpaceMapper--><g id="link_AddNewEntryToDoController_GreenSpaceMapper"><path codeLine="178" d="M640.416,406.5563 C692.58,444.0553 760.0516,492.5709 807.0776,526.3739 " fill="none" id="AddNewEntryToDoController-to-GreenSpaceMapper" style="stroke:#181818;stroke-width:0.6999999999999998;stroke-dasharray:7.0,7.0;"/><polygon fill="#181818" points="810.488,528.8253,807.0067,522.8746,807.646,526.7825,803.7382,527.4218,810.488,528.8253" style="stroke:#181818;stroke-width:0.6999999999999998;"/></g><!--link AddNewEntryToDoController to ToDoListMapper--><g id="link_AddNewEntryToDoController_ToDoListMapper"><path codeLine="179" d="M656.068,385.0243 C775.628,424.0213 981.4,491.1443 981.4,491.1443 C981.4,491.1443 1010.1319,512.3913 1037.8519,532.8873 " fill="none" id="AddNewEntryToDoController-to-ToDoListMapper" style="stroke:#181818;stroke-width:0.6999999999999998;stroke-dasharray:7.0,7.0;"/><polygon fill="#181818" points="1041.229,535.3843,1037.828,529.3874,1038.4147,533.3035,1034.4986,533.8902,1041.229,535.3843" style="stroke:#181818;stroke-width:0.6999999999999998;"/></g><!--link GreenSpaceMapper to GreenSpaceDTO--><g id="link_GreenSpaceMapper_GreenSpaceDTO"><path codeLine="180" d="M863.905,601.7933 C866.264,625.1733 869.0202,652.5226 871.9742,681.7896 " fill="none" id="GreenSpaceMapper-to-GreenSpaceDTO" style="stroke:#181818;stroke-width:0.6999999999999998;stroke-dasharray:7.0,7.0;"/><polygon fill="#181818" points="872.396,685.9683,874.5492,679.419,872.0445,682.486,868.9775,679.9814,872.396,685.9683" style="stroke:#181818;stroke-width:0.6999999999999998;"/></g><!--link ToDoListMapper to ToDoTaskDTO--><g id="link_ToDoListMapper_ToDoTaskDTO"><path codeLine="181" d="M1099.119,595.3043 C1113.014,617.4943 1130.6445,645.6513 1149.5305,675.8213 " fill="none" id="ToDoListMapper-to-ToDoTaskDTO" style="stroke:#181818;stroke-width:0.6999999999999998;stroke-dasharray:7.0,7.0;"/><polygon fill="#181818" points="1151.759,679.3813,1150.7896,672.5556,1149.9019,676.4147,1146.0429,675.527,1151.759,679.3813" style="stroke:#181818;stroke-width:0.6999999999999998;"/></g><!--SRC=[ZLTBRziu4BxpLn3TGvILRBHxZ0C3Zjq60JOfK3ktNXY9TOZ8f41IRRr6__iEAL8YzR3Z190rCvmNPxuPNwatnYiYoG4V11VvgnG7YhMiAUeu5SdVo9vkzR6aMD9S4xulGm7rIWhnY_4z_a5A5N9Anga-LXHNeZoQ5tGrmXHI2nISoakYr4fhoLvgJHzomRViFue_8iqqkF2y_VZF9pp3QoE6DupiuH12pary__o0Rs-_YBAWShd4Vsti1vyGidhngYYUwA_FNClZJcm4I9yGXiyCRy4Y166jnAI2gbooIZF17MD7rDlEEA_Tb_Z0NbBAj-0IVI87ptkMUyhpeprMDzyTXt6D2t9KmUkhg6NuVc0Sag6G9QM389BhXW6oJ3DIGiAIMfOPN9W2JJczgtbHqckdyGSho_lMnxKul8WxyTifIURp-JNw0tzjKjS2J8cof78yjwEf3GwTdD_J8ebtRK-ruNoZbL1C2taCEPtF0tvg-8-4Wxko4zlillxBb6vb9Dt3AvNc_X8DTimN46huDkOh7_H670ZZKS0h-pcrUUcyE9UNCQzzqHdlRZk1PL0wXeMwsEuZnjtHnPeSckTdSBOqr-QCnacCp9cObzX47ve8KsCE9wQqVUv9KKJlFw742g9fJxYrtbfcLBKD5XB3MtlW2a0bfyarlec4ne8Vl_X1oRIUhAggP3anlRkbIi73kpFaJ3er5Eq4LxL-fLmxzhXxwrfAaEdCTFuzAoeZn-m1GxKt6ibQoiaIu1-TATJ92cmleoCrE3R0CDuXLo7g5q1UBJGfLvAIMD0Le7E-qviOdPbHaoaDL9tXvlbK7rwepBvpI1LeN8k2PZdJnwo00fGirrbhAVFQ1uK7kgs1FiC0RcAC3avudKchFMmNgD_HIR2O70MBgLdG7I6wLX2qUJH4W5RVRmq46HDPg3LhrMG15a2otCZ8xAJ8cW6H-RaG8tSGqwQMjYxRsFoiMVI7pM8uRKAIJPhNzkZvGIoUbqpxbs85hVe-sHXZBXmmiFqdweb7KbNdfrLNg8tiQL303RtjOm3CtTVIJ9CBe1qTI3fU3vsDQ6mwfWQ6- -CgB8tUg0Rk-w86GM-tt_7f93ga03OZMD2gQ1gytKLqrF6nQDVyCTqWGKpni806pfdyMe2n7cOum8rHo0cCPjPGrYhtoOP91pkJsed6UDAxD7S1lSm5I95E8aKwXHJf-DhecIDxuoB8SDVCQR-PqxYPWofpOPp7d-yy023y3ln9CVrTmIy4MlX-3TBOBbZ33NmEln_uV3cz7QBfrH8WRncl6pUmoWGxnBcZoz7T33JiHyWNDCKh2EZG4U5I22ChHXJLR10bSnjAJsu6aXy-VHYDR49qr_Dqu8gnFa8DV1WxOsxLMGYs73XLTsyev9Wys1q7ZLwBKJGBhmprScu5d5Kxq6ziCIFx_U_PpCOQ3iM6xr_VNIeDFb-wqHZDKVzuJoTq8ufFj5NbcXMX_m40]--></g></svg>