<?xml version="1.0" encoding="us-ascii" standalone="no"?><svg xmlns="http://www.w3.org/2000/svg" xmlns:xlink="http://www.w3.org/1999/xlink" contentStyleType="text/css" height="1461px" preserveAspectRatio="none" style="width:2059px;height:1461px;background:#FFFFFF;" version="1.1" viewBox="0 0 2059 1461" width="2059px" zoomAndPan="magnify"><defs/><g><text fill="#000000" font-family="sans-serif" font-size="14" font-weight="bold" lengthAdjust="spacing" textLength="188" x="935" y="30.1074">US021 - Sequence Diagram</text><rect fill="#FFFFFF" height="1235.6426" style="stroke:#181818;stroke-width:1.0;" width="10" x="33.5" y="133.2422"/><rect fill="#FFFFFF" height="307.9102" style="stroke:#181818;stroke-width:1.0;" width="10" x="414.5" y="156.5332"/><rect fill="#FFFFFF" height="133.873" style="stroke:#181818;stroke-width:1.0;" width="10" x="414.5" y="495.7344"/><rect fill="#FFFFFF" height="132.582" style="stroke:#181818;stroke-width:1.0;" width="10" x="414.5" y="660.8984"/><rect fill="#FFFFFF" height="535.1133" style="stroke:#181818;stroke-width:1.0;" width="10" x="414.5" y="824.7715"/><rect fill="#FFFFFF" height="219.0371" style="stroke:#181818;stroke-width:1.0;" width="10" x="868.5" y="187.8242"/><rect fill="#FFFFFF" height="472.5313" style="stroke:#181818;stroke-width:1.0;" width="10" x="868.5" y="856.0625"/><rect fill="#FFFFFF" height="31.291" style="stroke:#181818;stroke-width:1.0;" width="10" x="1026.5" y="219.1152"/><rect fill="#FFFFFF" height="31.291" style="stroke:#181818;stroke-width:1.0;" width="10" x="1133.5" y="281.6973"/><rect fill="#FFFFFF" height="31.291" style="stroke:#181818;stroke-width:1.0;" width="10" x="1275" y="344.2793"/><rect fill="#FFFFFF" height="409.9492" style="stroke:#181818;stroke-width:1.0;" width="10" x="1394.5" y="887.3535"/><rect fill="none" height="106.873" style="stroke:#000000;stroke-width:1.5;" width="494" x="10" y="421.8613"/><rect fill="none" height="106.873" style="stroke:#000000;stroke-width:1.5;" width="494" x="10" y="587.0254"/><line style="stroke:#181818;stroke-width:0.5;stroke-dasharray:5.0,5.0;" x1="38" x2="38" y1="123.2422" y2="1377.8848"/><line style="stroke:#181818;stroke-width:0.5;stroke-dasharray:5.0,5.0;" x1="419" x2="419" y1="123.2422" y2="1377.8848"/><line style="stroke:#181818;stroke-width:0.5;stroke-dasharray:5.0,5.0;" x1="873" x2="873" y1="123.2422" y2="1377.8848"/><line style="stroke:#181818;stroke-width:0.5;stroke-dasharray:5.0,5.0;" x1="1031" x2="1031" y1="123.2422" y2="1377.8848"/><line style="stroke:#181818;stroke-width:0.5;stroke-dasharray:5.0,5.0;" x1="1138" x2="1138" y1="123.2422" y2="1377.8848"/><line style="stroke:#181818;stroke-width:0.5;stroke-dasharray:5.0,5.0;" x1="1280" x2="1280" y1="123.2422" y2="1377.8848"/><line style="stroke:#181818;stroke-width:0.5;stroke-dasharray:5.0,5.0;" x1="1399" x2="1399" y1="123.2422" y2="1377.8848"/><line style="stroke:#181818;stroke-width:0.5;stroke-dasharray:5.0,5.0;" x1="1847.5" x2="1847.5" y1="927.1641" y2="1377.8848"/><text fill="#000000" font-family="sans-serif" font-size="14" lengthAdjust="spacing" textLength="31" x="20" y="119.7285">GSM</text><ellipse cx="38.5" cy="53.1211" fill="#E3E3E3" rx="8" ry="8" style="stroke:#181818;stroke-width:0.5;"/><path d="M38.5,61.1211 L38.5,88.1211 M25.5,69.1211 L51.5,69.1211 M38.5,88.1211 L25.5,103.1211 M38.5,88.1211 L51.5,103.1211 " fill="none" style="stroke:#181818;stroke-width:0.5;"/><text fill="#000000" font-family="sans-serif" font-size="14" lengthAdjust="spacing" textLength="31" x="20" y="1391.9922">GSM</text><ellipse cx="38.5" cy="1404.0059" fill="#E3E3E3" rx="8" ry="8" style="stroke:#181818;stroke-width:0.5;"/><path d="M38.5,1412.0059 L38.5,1439.0059 M25.5,1420.0059 L51.5,1420.0059 M38.5,1439.0059 L25.5,1454.0059 M38.5,1439.0059 L51.5,1454.0059 " fill="none" style="stroke:#181818;stroke-width:0.5;"/><rect fill="#E3E3E3" height="32.6211" rx="2.5" ry="2.5" style="stroke:#181818;stroke-width:0.5;" width="149" x="345" y="89.6211"/><text fill="#000000" font-family="sans-serif" font-size="14" lengthAdjust="spacing" textLength="135" x="352" y="111.7285">:AddNewEntryToDoUI</text><rect fill="#E3E3E3" height="32.6211" rx="2.5" ry="2.5" style="stroke:#181818;stroke-width:0.5;" width="149" x="345" y="1376.8848"/><text fill="#000000" font-family="sans-serif" font-size="14" lengthAdjust="spacing" textLength="135" x="352" y="1398.9922">:AddNewEntryToDoUI</text><rect fill="#E3E3E3" height="32.6211" rx="2.5" ry="2.5" style="stroke:#181818;stroke-width:0.5;" width="199" x="774" y="89.6211"/><text fill="#000000" font-family="sans-serif" font-size="14" lengthAdjust="spacing" textLength="185" x="781" y="111.7285">:AddNewEntryToDoController</text><rect fill="#E3E3E3" height="32.6211" rx="2.5" ry="2.5" style="stroke:#181818;stroke-width:0.5;" width="199" x="774" y="1376.8848"/><text fill="#000000" font-family="sans-serif" font-size="14" lengthAdjust="spacing" textLength="185" x="781" y="1398.9922">:AddNewEntryToDoController</text><rect fill="#E3E3E3" height="32.6211" rx="2.5" ry="2.5" style="stroke:#181818;stroke-width:0.5;" width="97" x="983" y="89.6211"/><text fill="#000000" font-family="sans-serif" font-size="14" lengthAdjust="spacing" textLength="83" x="990" y="111.7285">:Repositories</text><rect fill="#E3E3E3" height="32.6211" rx="2.5" ry="2.5" style="stroke:#181818;stroke-width:0.5;" width="97" x="983" y="1376.8848"/><text fill="#000000" font-family="sans-serif" font-size="14" lengthAdjust="spacing" textLength="83" x="990" y="1398.9922">:Repositories</text><rect fill="#E3E3E3" height="51.2422" rx="2.5" ry="2.5" style="stroke:#181818;stroke-width:0.5;" width="97" x="1090" y="71"/><text fill="#000000" font-family="sans-serif" font-size="14" lengthAdjust="spacing" textLength="74" x="1101.5" y="93.1074">repositories</text><text fill="#000000" font-family="sans-serif" font-size="14" lengthAdjust="spacing" textLength="83" x="1097" y="111.7285">:Repositories</text><rect fill="#E3E3E3" height="51.2422" rx="2.5" ry="2.5" style="stroke:#181818;stroke-width:0.5;" width="97" x="1090" y="1376.8848"/><text fill="#000000" font-family="sans-serif" font-size="14" lengthAdjust="spacing" textLength="74" x="1101.5" y="1398.9922">repositories</text><text fill="#000000" font-family="sans-serif" font-size="14" lengthAdjust="spacing" textLength="83" x="1097" y="1417.6133">:Repositories</text><rect fill="#E3E3E3" height="51.2422" rx="2.5" ry="2.5" style="stroke:#181818;stroke-width:0.5;" width="166" x="1197" y="71"/><text fill="#000000" font-family="sans-serif" font-size="14" lengthAdjust="spacing" textLength="145" x="1207.5" y="93.1074">greenSpaceRepository</text><text fill="#000000" font-family="sans-serif" font-size="14" lengthAdjust="spacing" textLength="152" x="1204" y="111.7285">:GreenSpaceRepository</text><rect fill="#E3E3E3" height="51.2422" rx="2.5" ry="2.5" style="stroke:#181818;stroke-width:0.5;" width="166" x="1197" y="1376.8848"/><text fill="#000000" font-family="sans-serif" font-size="14" lengthAdjust="spacing" textLength="145" x="1207.5" y="1398.9922">greenSpaceRepository</text><text fill="#000000" font-family="sans-serif" font-size="14" lengthAdjust="spacing" textLength="152" x="1204" y="1417.6133">:GreenSpaceRepository</text><rect fill="#E3E3E3" height="32.6211" rx="2.5" ry="2.5" style="stroke:#181818;stroke-width:0.5;" width="53" x="1373" y="89.6211"/><text fill="#000000" font-family="sans-serif" font-size="14" lengthAdjust="spacing" textLength="39" x="1380" y="111.7285">:ToDo</text><rect fill="#E3E3E3" height="32.6211" rx="2.5" ry="2.5" style="stroke:#181818;stroke-width:0.5;" width="53" x="1373" y="1376.8848"/><text fill="#000000" font-family="sans-serif" font-size="14" lengthAdjust="spacing" textLength="39" x="1380" y="1398.9922">:ToDo</text><rect fill="#E3E3E3" height="32.6211" rx="2.5" ry="2.5" style="stroke:#181818;stroke-width:0.5;" width="49" x="1823.5" y="1376.8848"/><text fill="#000000" font-family="sans-serif" font-size="14" lengthAdjust="spacing" textLength="35" x="1830.5" y="1398.9922">:Task</text><rect fill="#FFFFFF" height="1235.6426" style="stroke:#181818;stroke-width:1.0;" width="10" x="33.5" y="133.2422"/><rect fill="#FFFFFF" height="307.9102" style="stroke:#181818;stroke-width:1.0;" width="10" x="414.5" y="156.5332"/><rect fill="#FFFFFF" height="133.873" style="stroke:#181818;stroke-width:1.0;" width="10" x="414.5" y="495.7344"/><rect fill="#FFFFFF" height="132.582" style="stroke:#181818;stroke-width:1.0;" width="10" x="414.5" y="660.8984"/><rect fill="#FFFFFF" height="535.1133" style="stroke:#181818;stroke-width:1.0;" width="10" x="414.5" y="824.7715"/><rect fill="#FFFFFF" height="219.0371" style="stroke:#181818;stroke-width:1.0;" width="10" x="868.5" y="187.8242"/><rect fill="#FFFFFF" height="472.5313" style="stroke:#181818;stroke-width:1.0;" width="10" x="868.5" y="856.0625"/><rect fill="#FFFFFF" height="31.291" style="stroke:#181818;stroke-width:1.0;" width="10" x="1026.5" y="219.1152"/><rect fill="#FFFFFF" height="31.291" style="stroke:#181818;stroke-width:1.0;" width="10" x="1133.5" y="281.6973"/><rect fill="#FFFFFF" height="31.291" style="stroke:#181818;stroke-width:1.0;" width="10" x="1275" y="344.2793"/><rect fill="#FFFFFF" height="409.9492" style="stroke:#181818;stroke-width:1.0;" width="10" x="1394.5" y="887.3535"/><polygon fill="#181818" points="402.5,152.5332,412.5,156.5332,402.5,160.5332,406.5,156.5332" style="stroke:#181818;stroke-width:1.0;"/><line style="stroke:#181818;stroke-width:1.0;" x1="43.5" x2="408.5" y1="156.5332" y2="156.5332"/><text fill="#000000" font-family="sans-serif" font-size="13" font-weight="bold" lengthAdjust="spacing" textLength="7" x="50.5" y="151.2705">1</text><text fill="#000000" font-family="sans-serif" font-size="13" lengthAdjust="spacing" textLength="222" x="61.5" y="151.2705">Asks to add a new entry on To-Do List</text><polygon fill="#181818" points="856.5,183.8242,866.5,187.8242,856.5,191.8242,860.5,187.8242" style="stroke:#181818;stroke-width:1.0;"/><line style="stroke:#181818;stroke-width:1.0;" x1="424.5" x2="862.5" y1="187.8242" y2="187.8242"/><text fill="#000000" font-family="sans-serif" font-size="13" font-weight="bold" lengthAdjust="spacing" textLength="7" x="431.5" y="182.5615">2</text><text fill="#000000" font-family="sans-serif" font-size="13" lengthAdjust="spacing" textLength="119" x="442.5" y="182.5615">getGreenSpaceList()</text><polygon fill="#181818" points="1014.5,215.1152,1024.5,219.1152,1014.5,223.1152,1018.5,219.1152" style="stroke:#181818;stroke-width:1.0;"/><line style="stroke:#181818;stroke-width:1.0;" x1="878.5" x2="1020.5" y1="219.1152" y2="219.1152"/><text fill="#000000" font-family="sans-serif" font-size="13" font-weight="bold" lengthAdjust="spacing" textLength="7" x="885.5" y="213.8525">3</text><text fill="#000000" font-family="sans-serif" font-size="13" lengthAdjust="spacing" textLength="75" x="896.5" y="213.8525">getInstance()</text><polygon fill="#181818" points="889.5,246.4063,879.5,250.4063,889.5,254.4063,885.5,250.4063" style="stroke:#181818;stroke-width:1.0;"/><line style="stroke:#181818;stroke-width:1.0;stroke-dasharray:2.0,2.0;" x1="883.5" x2="1030.5" y1="250.4063" y2="250.4063"/><text fill="#000000" font-family="sans-serif" font-size="13" font-weight="bold" lengthAdjust="spacing" textLength="7" x="895.5" y="245.1436">4</text><text fill="#000000" font-family="sans-serif" font-size="13" lengthAdjust="spacing" textLength="67" x="906.5" y="245.1436">repositories</text><polygon fill="#181818" points="1121.5,277.6973,1131.5,281.6973,1121.5,285.6973,1125.5,281.6973" style="stroke:#181818;stroke-width:1.0;"/><line style="stroke:#181818;stroke-width:1.0;" x1="878.5" x2="1127.5" y1="281.6973" y2="281.6973"/><text fill="#000000" font-family="sans-serif" font-size="13" font-weight="bold" lengthAdjust="spacing" textLength="7" x="885.5" y="276.4346">5</text><text fill="#000000" font-family="sans-serif" font-size="13" lengthAdjust="spacing" textLength="160" x="896.5" y="276.4346">getGreenSpaceRepository()</text><polygon fill="#181818" points="889.5,308.9883,879.5,312.9883,889.5,316.9883,885.5,312.9883" style="stroke:#181818;stroke-width:1.0;"/><line style="stroke:#181818;stroke-width:1.0;stroke-dasharray:2.0,2.0;" x1="883.5" x2="1137.5" y1="312.9883" y2="312.9883"/><text fill="#000000" font-family="sans-serif" font-size="13" font-weight="bold" lengthAdjust="spacing" textLength="7" x="895.5" y="307.7256">6</text><text fill="#000000" font-family="sans-serif" font-size="13" lengthAdjust="spacing" textLength="131" x="906.5" y="307.7256">greenSpaceRepository</text><polygon fill="#181818" points="1263,340.2793,1273,344.2793,1263,348.2793,1267,344.2793" style="stroke:#181818;stroke-width:1.0;"/><line style="stroke:#181818;stroke-width:1.0;" x1="878.5" x2="1269" y1="344.2793" y2="344.2793"/><text fill="#000000" font-family="sans-serif" font-size="13" font-weight="bold" lengthAdjust="spacing" textLength="7" x="885.5" y="339.0166">7</text><text fill="#000000" font-family="sans-serif" font-size="13" lengthAdjust="spacing" textLength="119" x="896.5" y="339.0166">getGreenSpaceList()</text><polygon fill="#181818" points="889.5,371.5703,879.5,375.5703,889.5,379.5703,885.5,375.5703" style="stroke:#181818;stroke-width:1.0;"/><line style="stroke:#181818;stroke-width:1.0;stroke-dasharray:2.0,2.0;" x1="883.5" x2="1279" y1="375.5703" y2="375.5703"/><text fill="#000000" font-family="sans-serif" font-size="13" font-weight="bold" lengthAdjust="spacing" textLength="7" x="895.5" y="370.3076">8</text><text fill="#000000" font-family="sans-serif" font-size="13" lengthAdjust="spacing" textLength="90" x="906.5" y="370.3076">greenSpaceList</text><polygon fill="#181818" points="435.5,402.8613,425.5,406.8613,435.5,410.8613,431.5,406.8613" style="stroke:#181818;stroke-width:1.0;"/><line style="stroke:#181818;stroke-width:1.0;stroke-dasharray:2.0,2.0;" x1="429.5" x2="872.5" y1="406.8613" y2="406.8613"/><text fill="#000000" font-family="sans-serif" font-size="13" font-weight="bold" lengthAdjust="spacing" textLength="7" x="441.5" y="401.5986">9</text><text fill="#000000" font-family="sans-serif" font-size="13" lengthAdjust="spacing" textLength="90" x="452.5" y="401.5986">greenSpaceList</text><path d="M10,421.8613 L83,421.8613 L83,431.1523 L73,441.1523 L10,441.1523 L10,421.8613 " fill="#EEEEEE" style="stroke:#000000;stroke-width:1.5;"/><rect fill="none" height="106.873" style="stroke:#000000;stroke-width:1.5;" width="494" x="10" y="421.8613"/><text fill="#000000" font-family="sans-serif" font-size="13" font-weight="bold" lengthAdjust="spacing" textLength="28" x="25" y="436.8896">loop</text><text fill="#000000" font-family="sans-serif" font-size="11" font-weight="bold" lengthAdjust="spacing" textLength="189" x="98" y="435.7314">[until doesn't select a valid option]</text><polygon fill="#181818" points="54.5,460.4434,44.5,464.4434,54.5,468.4434,50.5,464.4434" style="stroke:#181818;stroke-width:1.0;"/><line style="stroke:#181818;stroke-width:1.0;stroke-dasharray:2.0,2.0;" x1="48.5" x2="418.5" y1="464.4434" y2="464.4434"/><text fill="#000000" font-family="sans-serif" font-size="13" font-weight="bold" lengthAdjust="spacing" textLength="14" x="60.5" y="459.1807">10</text><text fill="#000000" font-family="sans-serif" font-size="13" lengthAdjust="spacing" textLength="292" x="78.5" y="459.1807">Shows list of green spaces and asks to select one</text><polygon fill="#181818" points="402.5,491.7344,412.5,495.7344,402.5,499.7344,406.5,495.7344" style="stroke:#181818;stroke-width:1.0;"/><line style="stroke:#181818;stroke-width:1.0;" x1="43.5" x2="408.5" y1="495.7344" y2="495.7344"/><text fill="#000000" font-family="sans-serif" font-size="13" font-weight="bold" lengthAdjust="spacing" textLength="14" x="50.5" y="490.4717">11</text><text fill="#000000" font-family="sans-serif" font-size="13" lengthAdjust="spacing" textLength="130" x="68.5" y="490.4717">Selects a green space</text><line style="stroke:#181818;stroke-width:1.0;stroke-dasharray:2.0,2.0;" x1="424.5" x2="466.5" y1="559.0254" y2="559.0254"/><line style="stroke:#181818;stroke-width:1.0;stroke-dasharray:2.0,2.0;" x1="466.5" x2="466.5" y1="559.0254" y2="572.0254"/><line style="stroke:#181818;stroke-width:1.0;stroke-dasharray:2.0,2.0;" x1="425.5" x2="466.5" y1="572.0254" y2="572.0254"/><polygon fill="#181818" points="435.5,568.0254,425.5,572.0254,435.5,576.0254,431.5,572.0254" style="stroke:#181818;stroke-width:1.0;"/><text fill="#000000" font-family="sans-serif" font-size="13" font-weight="bold" lengthAdjust="spacing" textLength="14" x="431.5" y="553.7627">12</text><text fill="#000000" font-family="sans-serif" font-size="13" lengthAdjust="spacing" textLength="130" x="449.5" y="553.7627">keepData(greenspace)</text><path d="M10,587.0254 L83,587.0254 L83,596.3164 L73,606.3164 L10,606.3164 L10,587.0254 " fill="#EEEEEE" style="stroke:#000000;stroke-width:1.5;"/><rect fill="none" height="106.873" style="stroke:#000000;stroke-width:1.5;" width="494" x="10" y="587.0254"/><text fill="#000000" font-family="sans-serif" font-size="13" font-weight="bold" lengthAdjust="spacing" textLength="28" x="25" y="602.0537">loop</text><text fill="#000000" font-family="sans-serif" font-size="11" font-weight="bold" lengthAdjust="spacing" textLength="157" x="98" y="600.8955">[until typed data is validated]</text><polygon fill="#181818" points="54.5,625.6074,44.5,629.6074,54.5,633.6074,50.5,629.6074" style="stroke:#181818;stroke-width:1.0;"/><line style="stroke:#181818;stroke-width:1.0;stroke-dasharray:2.0,2.0;" x1="48.5" x2="418.5" y1="629.6074" y2="629.6074"/><text fill="#000000" font-family="sans-serif" font-size="13" font-weight="bold" lengthAdjust="spacing" textLength="14" x="60.5" y="624.3447">13</text><text fill="#000000" font-family="sans-serif" font-size="13" lengthAdjust="spacing" textLength="329" x="78.5" y="624.3447">Requests data (title, description, type, duration, urgency)</text><polygon fill="#181818" points="402.5,656.8984,412.5,660.8984,402.5,664.8984,406.5,660.8984" style="stroke:#181818;stroke-width:1.0;"/><line style="stroke:#181818;stroke-width:1.0;" x1="43.5" x2="408.5" y1="660.8984" y2="660.8984"/><text fill="#000000" font-family="sans-serif" font-size="13" font-weight="bold" lengthAdjust="spacing" textLength="14" x="50.5" y="655.6357">14</text><text fill="#000000" font-family="sans-serif" font-size="13" lengthAdjust="spacing" textLength="125" x="68.5" y="655.6357">Types requested data</text><line style="stroke:#181818;stroke-width:1.0;stroke-dasharray:2.0,2.0;" x1="424.5" x2="466.5" y1="724.1895" y2="724.1895"/><line style="stroke:#181818;stroke-width:1.0;stroke-dasharray:2.0,2.0;" x1="466.5" x2="466.5" y1="724.1895" y2="737.1895"/><line style="stroke:#181818;stroke-width:1.0;stroke-dasharray:2.0,2.0;" x1="425.5" x2="466.5" y1="737.1895" y2="737.1895"/><polygon fill="#181818" points="435.5,733.1895,425.5,737.1895,435.5,741.1895,431.5,737.1895" style="stroke:#181818;stroke-width:1.0;"/><text fill="#000000" font-family="sans-serif" font-size="13" font-weight="bold" lengthAdjust="spacing" textLength="14" x="431.5" y="718.9268">15</text><text fill="#000000" font-family="sans-serif" font-size="13" lengthAdjust="spacing" textLength="296" x="449.5" y="718.9268">keepData(title, description, type, duration, urgency)</text><polygon fill="#181818" points="54.5,789.4805,44.5,793.4805,54.5,797.4805,50.5,793.4805" style="stroke:#181818;stroke-width:1.0;"/><line style="stroke:#181818;stroke-width:1.0;stroke-dasharray:2.0,2.0;" x1="48.5" x2="418.5" y1="793.4805" y2="793.4805"/><text fill="#000000" font-family="sans-serif" font-size="13" font-weight="bold" lengthAdjust="spacing" textLength="14" x="60.5" y="788.2178">16</text><text fill="#000000" font-family="sans-serif" font-size="13" lengthAdjust="spacing" textLength="238" x="78.5" y="788.2178">Shows all data and requests confirmation</text><polygon fill="#181818" points="402.5,820.7715,412.5,824.7715,402.5,828.7715,406.5,824.7715" style="stroke:#181818;stroke-width:1.0;"/><line style="stroke:#181818;stroke-width:1.0;" x1="43.5" x2="408.5" y1="824.7715" y2="824.7715"/><text fill="#000000" font-family="sans-serif" font-size="13" font-weight="bold" lengthAdjust="spacing" textLength="14" x="50.5" y="819.5088">17</text><text fill="#000000" font-family="sans-serif" font-size="13" lengthAdjust="spacing" textLength="80" x="68.5" y="819.5088">Confirms data</text><polygon fill="#181818" points="856.5,852.0625,866.5,856.0625,856.5,860.0625,860.5,856.0625" style="stroke:#181818;stroke-width:1.0;"/><line style="stroke:#181818;stroke-width:1.0;" x1="424.5" x2="862.5" y1="856.0625" y2="856.0625"/><text fill="#000000" font-family="sans-serif" font-size="13" font-weight="bold" lengthAdjust="spacing" textLength="14" x="431.5" y="850.7998">18</text><text fill="#000000" font-family="sans-serif" font-size="13" lengthAdjust="spacing" textLength="407" x="449.5" y="850.7998">createNewTask(title, description, type, duration, urgency, greenSpace)</text><polygon fill="#181818" points="1382.5,883.3535,1392.5,887.3535,1382.5,891.3535,1386.5,887.3535" style="stroke:#181818;stroke-width:1.0;"/><line style="stroke:#181818;stroke-width:1.0;" x1="878.5" x2="1388.5" y1="887.3535" y2="887.3535"/><text fill="#000000" font-family="sans-serif" font-size="13" font-weight="bold" lengthAdjust="spacing" textLength="14" x="885.5" y="882.0908">19</text><text fill="#000000" font-family="sans-serif" font-size="13" lengthAdjust="spacing" textLength="407" x="903.5" y="882.0908">createNewTask(title, description, type, duration, urgency, greenSpace)</text><polygon fill="#181818" points="1811.5,914.6445,1821.5,918.6445,1811.5,922.6445,1815.5,918.6445" style="stroke:#181818;stroke-width:1.0;"/><line style="stroke:#181818;stroke-width:1.0;" x1="1404.5" x2="1817.5" y1="918.6445" y2="918.6445"/><text fill="#000000" font-family="sans-serif" font-size="13" font-weight="bold" lengthAdjust="spacing" textLength="14" x="1411.5" y="913.3818">20</text><text fill="#000000" font-family="sans-serif" font-size="13" lengthAdjust="spacing" textLength="377" x="1429.5" y="913.3818">new Task (title, description, type, duration, urgency, greenSpace)</text><rect fill="#E3E3E3" height="32.6211" rx="2.5" ry="2.5" style="stroke:#181818;stroke-width:0.5;" width="49" x="1823.5" y="895.3535"/><text fill="#000000" font-family="sans-serif" font-size="14" lengthAdjust="spacing" textLength="35" x="1830.5" y="917.4609">:Task</text><line style="stroke:#181818;stroke-width:1.0;stroke-dasharray:2.0,2.0;" x1="1848" x2="1890" y1="962.2656" y2="962.2656"/><line style="stroke:#181818;stroke-width:1.0;stroke-dasharray:2.0,2.0;" x1="1890" x2="1890" y1="962.2656" y2="975.2656"/><line style="stroke:#181818;stroke-width:1.0;stroke-dasharray:2.0,2.0;" x1="1849" x2="1890" y1="975.2656" y2="975.2656"/><polygon fill="#181818" points="1859,971.2656,1849,975.2656,1859,979.2656,1855,975.2656" style="stroke:#181818;stroke-width:1.0;"/><text fill="#000000" font-family="sans-serif" font-size="13" font-weight="bold" lengthAdjust="spacing" textLength="14" x="1855" y="957.0029">21</text><text fill="#000000" font-family="sans-serif" font-size="13" lengthAdjust="spacing" textLength="96" x="1873" y="957.0029">validateTitle(title)</text><line style="stroke:#181818;stroke-width:1.0;stroke-dasharray:2.0,2.0;" x1="1848" x2="1890" y1="1006.5566" y2="1006.5566"/><line style="stroke:#181818;stroke-width:1.0;stroke-dasharray:2.0,2.0;" x1="1890" x2="1890" y1="1006.5566" y2="1019.5566"/><line style="stroke:#181818;stroke-width:1.0;stroke-dasharray:2.0,2.0;" x1="1849" x2="1890" y1="1019.5566" y2="1019.5566"/><polygon fill="#181818" points="1859,1015.5566,1849,1019.5566,1859,1023.5566,1855,1019.5566" style="stroke:#181818;stroke-width:1.0;"/><text fill="#000000" font-family="sans-serif" font-size="13" font-weight="bold" lengthAdjust="spacing" textLength="14" x="1855" y="1001.2939">22</text><text fill="#000000" font-family="sans-serif" font-size="13" lengthAdjust="spacing" textLength="179" x="1873" y="1001.2939">validateDescription(description)</text><line style="stroke:#181818;stroke-width:1.0;stroke-dasharray:2.0,2.0;" x1="1848" x2="1890" y1="1050.8477" y2="1050.8477"/><line style="stroke:#181818;stroke-width:1.0;stroke-dasharray:2.0,2.0;" x1="1890" x2="1890" y1="1050.8477" y2="1063.8477"/><line style="stroke:#181818;stroke-width:1.0;stroke-dasharray:2.0,2.0;" x1="1849" x2="1890" y1="1063.8477" y2="1063.8477"/><polygon fill="#181818" points="1859,1059.8477,1849,1063.8477,1859,1067.8477,1855,1063.8477" style="stroke:#181818;stroke-width:1.0;"/><text fill="#000000" font-family="sans-serif" font-size="13" font-weight="bold" lengthAdjust="spacing" textLength="14" x="1855" y="1045.585">23</text><text fill="#000000" font-family="sans-serif" font-size="13" lengthAdjust="spacing" textLength="104" x="1873" y="1045.585">validateType(type)</text><line style="stroke:#181818;stroke-width:1.0;stroke-dasharray:2.0,2.0;" x1="1848" x2="1890" y1="1095.1387" y2="1095.1387"/><line style="stroke:#181818;stroke-width:1.0;stroke-dasharray:2.0,2.0;" x1="1890" x2="1890" y1="1095.1387" y2="1108.1387"/><line style="stroke:#181818;stroke-width:1.0;stroke-dasharray:2.0,2.0;" x1="1849" x2="1890" y1="1108.1387" y2="1108.1387"/><polygon fill="#181818" points="1859,1104.1387,1849,1108.1387,1859,1112.1387,1855,1108.1387" style="stroke:#181818;stroke-width:1.0;"/><text fill="#000000" font-family="sans-serif" font-size="13" font-weight="bold" lengthAdjust="spacing" textLength="14" x="1855" y="1089.876">24</text><text fill="#000000" font-family="sans-serif" font-size="13" lengthAdjust="spacing" textLength="145" x="1873" y="1089.876">validateDuration(duration)</text><line style="stroke:#181818;stroke-width:1.0;stroke-dasharray:2.0,2.0;" x1="1848" x2="1890" y1="1139.4297" y2="1139.4297"/><line style="stroke:#181818;stroke-width:1.0;stroke-dasharray:2.0,2.0;" x1="1890" x2="1890" y1="1139.4297" y2="1152.4297"/><line style="stroke:#181818;stroke-width:1.0;stroke-dasharray:2.0,2.0;" x1="1849" x2="1890" y1="1152.4297" y2="1152.4297"/><polygon fill="#181818" points="1859,1148.4297,1849,1152.4297,1859,1156.4297,1855,1152.4297" style="stroke:#181818;stroke-width:1.0;"/><text fill="#000000" font-family="sans-serif" font-size="13" font-weight="bold" lengthAdjust="spacing" textLength="14" x="1855" y="1134.167">25</text><text fill="#000000" font-family="sans-serif" font-size="13" lengthAdjust="spacing" textLength="145" x="1873" y="1134.167">validateUrgency(urgency)</text><line style="stroke:#181818;stroke-width:1.0;stroke-dasharray:2.0,2.0;" x1="1404.5" x2="1446.5" y1="1208.7207" y2="1208.7207"/><line style="stroke:#181818;stroke-width:1.0;stroke-dasharray:2.0,2.0;" x1="1446.5" x2="1446.5" y1="1208.7207" y2="1221.7207"/><line style="stroke:#181818;stroke-width:1.0;stroke-dasharray:2.0,2.0;" x1="1405.5" x2="1446.5" y1="1221.7207" y2="1221.7207"/><polygon fill="#181818" points="1415.5,1217.7207,1405.5,1221.7207,1415.5,1225.7207,1411.5,1221.7207" style="stroke:#181818;stroke-width:1.0;"/><text fill="#000000" font-family="sans-serif" font-size="13" font-weight="bold" lengthAdjust="spacing" textLength="14" x="1411.5" y="1203.458">26</text><text fill="#000000" font-family="sans-serif" font-size="13" lengthAdjust="spacing" textLength="104" x="1429.5" y="1203.458">validateTask(task)</text><line style="stroke:#181818;stroke-width:1.0;stroke-dasharray:2.0,2.0;" x1="1404.5" x2="1446.5" y1="1253.0117" y2="1253.0117"/><line style="stroke:#181818;stroke-width:1.0;stroke-dasharray:2.0,2.0;" x1="1446.5" x2="1446.5" y1="1253.0117" y2="1266.0117"/><line style="stroke:#181818;stroke-width:1.0;stroke-dasharray:2.0,2.0;" x1="1405.5" x2="1446.5" y1="1266.0117" y2="1266.0117"/><polygon fill="#181818" points="1415.5,1262.0117,1405.5,1266.0117,1415.5,1270.0117,1411.5,1266.0117" style="stroke:#181818;stroke-width:1.0;"/><text fill="#000000" font-family="sans-serif" font-size="13" font-weight="bold" lengthAdjust="spacing" textLength="14" x="1411.5" y="1247.749">27</text><text fill="#000000" font-family="sans-serif" font-size="13" lengthAdjust="spacing" textLength="82" x="1429.5" y="1247.749">addTask(task)</text><polygon fill="#181818" points="889.5,1293.3027,879.5,1297.3027,889.5,1301.3027,885.5,1297.3027" style="stroke:#181818;stroke-width:1.0;"/><line style="stroke:#181818;stroke-width:1.0;stroke-dasharray:2.0,2.0;" x1="883.5" x2="1398.5" y1="1297.3027" y2="1297.3027"/><text fill="#000000" font-family="sans-serif" font-size="13" font-weight="bold" lengthAdjust="spacing" textLength="14" x="895.5" y="1292.04">28</text><text fill="#000000" font-family="sans-serif" font-size="13" lengthAdjust="spacing" textLength="106" x="913.5" y="1292.04">operation success</text><polygon fill="#181818" points="435.5,1324.5938,425.5,1328.5938,435.5,1332.5938,431.5,1328.5938" style="stroke:#181818;stroke-width:1.0;"/><line style="stroke:#181818;stroke-width:1.0;stroke-dasharray:2.0,2.0;" x1="429.5" x2="872.5" y1="1328.5938" y2="1328.5938"/><text fill="#000000" font-family="sans-serif" font-size="13" font-weight="bold" lengthAdjust="spacing" textLength="14" x="441.5" y="1323.3311">29</text><text fill="#000000" font-family="sans-serif" font-size="13" lengthAdjust="spacing" textLength="106" x="459.5" y="1323.3311">operation success</text><polygon fill="#181818" points="54.5,1355.8848,44.5,1359.8848,54.5,1363.8848,50.5,1359.8848" style="stroke:#181818;stroke-width:1.0;"/><line style="stroke:#181818;stroke-width:1.0;stroke-dasharray:2.0,2.0;" x1="48.5" x2="418.5" y1="1359.8848" y2="1359.8848"/><text fill="#000000" font-family="sans-serif" font-size="13" font-weight="bold" lengthAdjust="spacing" textLength="14" x="60.5" y="1354.6221">30</text><text fill="#000000" font-family="sans-serif" font-size="13" lengthAdjust="spacing" textLength="160" x="78.5" y="1354.6221">Displays operation success</text><!--SRC=[hLR9Rjim4BtpAmQvL0vYeEtHXmA17GG1qWLURhsmqiGXB9CgISKma8_lSBIOMfmwG7X857BclJUFer7SJkb2Mhc7lT4cVRPcZ-1jYSAr9uLCTtABAt_C4IocNkfj7WUuPvcPWz9RU9AvGo6yyXIwMNt- -WMciCA_9UeKOQ7abkA5aAKtkjp_GKlFgJSMhkvNtwz0Eg3VWb2zIbKXjOUhsMsM_S33dVRsk3OBitdWkCt3ss5pGqycpz5o-7ozVEmbBB4mJX6vGiSnoxjVFxinDWhvhSSp7hGZGrBiPcujebwHSzWc7GdXVcIxAljqC50n2_LmrDfafdyctQuwemTsKxr8Z-oZ05hq0DDlv1VCuDRj77W3Cij0WiO3OF0BZ2RewSB0etAUireSyfatA9zGWes4iqL_4XnoaaatY-tchR0uYx93QLLsOrgTrybb0zhji3XlUgAFhwKDpB2BC4RUqFOgEDq5wHaNrDxoG5Xp4WiSk_rpGeV8ZU9kJxnXUqTjhvEQynxOgDZszdioUv3DgdGslJK24q5K3S6xkJ45bDgh73A3Jd_ou32diK8j-I9pbO4fl3AwutIpGXi6QwYfPx1wDWS7ET61UQe4W0iA74XD7LvtUurkD0uW8uLDeyShVdTMZ4B8CT4m9SRhdxs-lWxsK6TTaBf2vjmX5WlfPSAKp3WPkkYF1MQGKHmeLrb80YBOZcdBC8qT5S892O_g6pB2fLQnxpSCI5kbbTNVfTtI_3vEn1dBOflMbEle3MMIMfOGOyu4DyJ0Wj7otosonHSND93CyygCq3IsiISr-adPFQEBRj7zckTLg3jJx71-fXRfZ3vNOMY_fxgRw3MxQEI6ByR74Gwd3N-HEYOpOs0cfkjhuWwVcV07V00l4mIiQSr0-4t3hmDwnN5Xnk8a98b4NSf7ofCW_rAskiQaAVR2l4tbID8skEYDb17xJpVVgkMBfn-Jj-FfNuF_XjPTR0gi2W5NfZHqdJWpMhb9uhFkb-DY76xnqHTveLoHowCxWzLzVVy1]--></g></svg>