<?xml version="1.0" encoding="us-ascii" standalone="no"?><svg xmlns="http://www.w3.org/2000/svg" xmlns:xlink="http://www.w3.org/1999/xlink" contentStyleType="text/css" height="1963px" preserveAspectRatio="none" style="width:1816px;height:1963px;background:#FFFFFF;" version="1.1" viewBox="0 0 1816 1963" width="1816px" zoomAndPan="magnify"><defs/><g><text fill="#000000" font-family="sans-serif" font-size="14" font-weight="bold" lengthAdjust="spacing" textLength="188" x="812.5" y="30.1074">US021 - Sequence Diagram</text><rect fill="#FFFFFF" height="1737.6387" style="stroke:#181818;stroke-width:1.0;" width="10" x="33.5" y="133.2422"/><rect fill="#FFFFFF" height="193.416" style="stroke:#181818;stroke-width:1.0;" width="10" x="456.5" y="156.5332"/><rect fill="#FFFFFF" height="178.1641" style="stroke:#181818;stroke-width:1.0;" width="10" x="456.5" y="381.2402"/><rect fill="#FFFFFF" height="257.7461" style="stroke:#181818;stroke-width:1.0;" width="10" x="456.5" y="590.6953"/><rect fill="#FFFFFF" height="188.5186" style="stroke:#181818;stroke-width:1.0;" width="10" x="456.5" y="891.3779"/><rect fill="#FFFFFF" height="750.6934" style="stroke:#181818;stroke-width:1.0;" width="10" x="456.5" y="1111.1875"/><rect fill="#FFFFFF" height="104.543" style="stroke:#181818;stroke-width:1.0;" width="10" x="762.5" y="187.8242"/><rect fill="#FFFFFF" height="614.5293" style="stroke:#181818;stroke-width:1.0;" width="10" x="762.5" y="1216.0605"/><rect fill="#FFFFFF" height="31.291" style="stroke:#181818;stroke-width:1.0;" width="10" x="1044.5" y="1395.1465"/><rect fill="#FFFFFF" height="31.291" style="stroke:#181818;stroke-width:1.0;" width="10" x="1151.5" y="1457.7285"/><rect fill="#FFFFFF" height="278.9883" style="stroke:#181818;stroke-width:1.0;" width="10" x="1270.5" y="1520.3105"/><rect fill="none" height="151.1641" style="stroke:#000000;stroke-width:1.5;" width="594.5" x="10" y="307.3672"/><rect fill="none" height="151.1641" style="stroke:#000000;stroke-width:1.5;" width="608.5" x="10" y="516.8223"/><rect fill="none" height="174.4551" style="stroke:#000000;stroke-width:1.5;" width="641.5" x="10" y="805.8594"/><line style="stroke:#181818;stroke-width:0.5;stroke-dasharray:5.0,5.0;" x1="38" x2="38" y1="123.2422" y2="1879.8809"/><line style="stroke:#181818;stroke-width:0.5;stroke-dasharray:5.0,5.0;" x1="461" x2="461" y1="123.2422" y2="1879.8809"/><line style="stroke:#181818;stroke-width:0.5;stroke-dasharray:5.0,5.0;" x1="767" x2="767" y1="123.2422" y2="1879.8809"/><line style="stroke:#181818;stroke-width:0.5;stroke-dasharray:5.0,5.0;" x1="934" x2="934" y1="1153.4785" y2="1879.8809"/><line style="stroke:#181818;stroke-width:0.5;stroke-dasharray:5.0,5.0;" x1="1049" x2="1049" y1="123.2422" y2="1879.8809"/><line style="stroke:#181818;stroke-width:0.5;stroke-dasharray:5.0,5.0;" x1="1156" x2="1156" y1="123.2422" y2="1879.8809"/><line style="stroke:#181818;stroke-width:0.5;stroke-dasharray:5.0,5.0;" x1="1275" x2="1275" y1="123.2422" y2="1879.8809"/><line style="stroke:#181818;stroke-width:0.5;stroke-dasharray:5.0,5.0;" x1="1568.5" x2="1568.5" y1="1638.7227" y2="1879.8809"/><text fill="#000000" font-family="sans-serif" font-size="14" lengthAdjust="spacing" textLength="31" x="20" y="119.7285">GSM</text><ellipse cx="38.5" cy="53.1211" fill="#E3E3E3" rx="8" ry="8" style="stroke:#181818;stroke-width:0.5;"/><path d="M38.5,61.1211 L38.5,88.1211 M25.5,69.1211 L51.5,69.1211 M38.5,88.1211 L25.5,103.1211 M38.5,88.1211 L51.5,103.1211 " fill="none" style="stroke:#181818;stroke-width:0.5;"/><text fill="#000000" font-family="sans-serif" font-size="14" lengthAdjust="spacing" textLength="31" x="20" y="1893.9883">GSM</text><ellipse cx="38.5" cy="1906.002" fill="#E3E3E3" rx="8" ry="8" style="stroke:#181818;stroke-width:0.5;"/><path d="M38.5,1914.002 L38.5,1941.002 M25.5,1922.002 L51.5,1922.002 M38.5,1941.002 L25.5,1956.002 M38.5,1941.002 L51.5,1956.002 " fill="none" style="stroke:#181818;stroke-width:0.5;"/><rect fill="#E3E3E3" height="32.6211" rx="2.5" ry="2.5" style="stroke:#181818;stroke-width:0.5;" width="149" x="387" y="89.6211"/><text fill="#000000" font-family="sans-serif" font-size="14" lengthAdjust="spacing" textLength="135" x="394" y="111.7285">:AddNewEntryToDoUI</text><rect fill="#E3E3E3" height="32.6211" rx="2.5" ry="2.5" style="stroke:#181818;stroke-width:0.5;" width="149" x="387" y="1878.8809"/><text fill="#000000" font-family="sans-serif" font-size="14" lengthAdjust="spacing" textLength="135" x="394" y="1900.9883">:AddNewEntryToDoUI</text><rect fill="#E3E3E3" height="51.2422" rx="2.5" ry="2.5" style="stroke:#181818;stroke-width:0.5;" width="199" x="668" y="71"/><text fill="#000000" font-family="sans-serif" font-size="14" lengthAdjust="spacing" textLength="59" x="738" y="93.1074">controller</text><text fill="#000000" font-family="sans-serif" font-size="14" lengthAdjust="spacing" textLength="185" x="675" y="111.7285">:AddNewEntryToDoController</text><rect fill="#E3E3E3" height="51.2422" rx="2.5" ry="2.5" style="stroke:#181818;stroke-width:0.5;" width="199" x="668" y="1878.8809"/><text fill="#000000" font-family="sans-serif" font-size="14" lengthAdjust="spacing" textLength="59" x="738" y="1900.9883">controller</text><text fill="#000000" font-family="sans-serif" font-size="14" lengthAdjust="spacing" textLength="185" x="675" y="1919.6094">:AddNewEntryToDoController</text><rect fill="#E3E3E3" height="32.6211" rx="2.5" ry="2.5" style="stroke:#181818;stroke-width:0.5;" width="114" x="877" y="1878.8809"/><text fill="#000000" font-family="sans-serif" font-size="14" lengthAdjust="spacing" textLength="100" x="884" y="1900.9883">:ToDoTaskDTO</text><rect fill="#E3E3E3" height="32.6211" rx="2.5" ry="2.5" style="stroke:#181818;stroke-width:0.5;" width="97" x="1001" y="89.6211"/><text fill="#000000" font-family="sans-serif" font-size="14" lengthAdjust="spacing" textLength="83" x="1008" y="111.7285">:Repositories</text><rect fill="#E3E3E3" height="32.6211" rx="2.5" ry="2.5" style="stroke:#181818;stroke-width:0.5;" width="97" x="1001" y="1878.8809"/><text fill="#000000" font-family="sans-serif" font-size="14" lengthAdjust="spacing" textLength="83" x="1008" y="1900.9883">:Repositories</text><rect fill="#E3E3E3" height="51.2422" rx="2.5" ry="2.5" style="stroke:#181818;stroke-width:0.5;" width="97" x="1108" y="71"/><text fill="#000000" font-family="sans-serif" font-size="14" lengthAdjust="spacing" textLength="74" x="1119.5" y="93.1074">repositories</text><text fill="#000000" font-family="sans-serif" font-size="14" lengthAdjust="spacing" textLength="83" x="1115" y="111.7285">:Repositories</text><rect fill="#E3E3E3" height="51.2422" rx="2.5" ry="2.5" style="stroke:#181818;stroke-width:0.5;" width="97" x="1108" y="1878.8809"/><text fill="#000000" font-family="sans-serif" font-size="14" lengthAdjust="spacing" textLength="74" x="1119.5" y="1900.9883">repositories</text><text fill="#000000" font-family="sans-serif" font-size="14" lengthAdjust="spacing" textLength="83" x="1115" y="1919.6094">:Repositories</text><rect fill="#E3E3E3" height="51.2422" rx="2.5" ry="2.5" style="stroke:#181818;stroke-width:0.5;" width="121" x="1215" y="71"/><text fill="#000000" font-family="sans-serif" font-size="14" lengthAdjust="spacing" textLength="98" x="1226.5" y="93.1074">toDoRepository</text><text fill="#000000" font-family="sans-serif" font-size="14" lengthAdjust="spacing" textLength="107" x="1222" y="111.7285">:ToDoRepository</text><rect fill="#E3E3E3" height="51.2422" rx="2.5" ry="2.5" style="stroke:#181818;stroke-width:0.5;" width="121" x="1215" y="1878.8809"/><text fill="#000000" font-family="sans-serif" font-size="14" lengthAdjust="spacing" textLength="98" x="1226.5" y="1900.9883">toDoRepository</text><text fill="#000000" font-family="sans-serif" font-size="14" lengthAdjust="spacing" textLength="107" x="1222" y="1919.6094">:ToDoRepository</text><rect fill="#E3E3E3" height="51.2422" rx="2.5" ry="2.5" style="stroke:#181818;stroke-width:0.5;" width="49" x="1544.5" y="1878.8809"/><text fill="#000000" font-family="sans-serif" font-size="14" lengthAdjust="spacing" textLength="26" x="1556" y="1900.9883">task</text><text fill="#000000" font-family="sans-serif" font-size="14" lengthAdjust="spacing" textLength="35" x="1551.5" y="1919.6094">:Task</text><rect fill="#FFFFFF" height="1737.6387" style="stroke:#181818;stroke-width:1.0;" width="10" x="33.5" y="133.2422"/><rect fill="#FFFFFF" height="193.416" style="stroke:#181818;stroke-width:1.0;" width="10" x="456.5" y="156.5332"/><rect fill="#FFFFFF" height="178.1641" style="stroke:#181818;stroke-width:1.0;" width="10" x="456.5" y="381.2402"/><rect fill="#FFFFFF" height="257.7461" style="stroke:#181818;stroke-width:1.0;" width="10" x="456.5" y="590.6953"/><rect fill="#FFFFFF" height="188.5186" style="stroke:#181818;stroke-width:1.0;" width="10" x="456.5" y="891.3779"/><rect fill="#FFFFFF" height="750.6934" style="stroke:#181818;stroke-width:1.0;" width="10" x="456.5" y="1111.1875"/><rect fill="#FFFFFF" height="104.543" style="stroke:#181818;stroke-width:1.0;" width="10" x="762.5" y="187.8242"/><rect fill="#FFFFFF" height="614.5293" style="stroke:#181818;stroke-width:1.0;" width="10" x="762.5" y="1216.0605"/><rect fill="#FFFFFF" height="31.291" style="stroke:#181818;stroke-width:1.0;" width="10" x="1044.5" y="1395.1465"/><rect fill="#FFFFFF" height="31.291" style="stroke:#181818;stroke-width:1.0;" width="10" x="1151.5" y="1457.7285"/><rect fill="#FFFFFF" height="278.9883" style="stroke:#181818;stroke-width:1.0;" width="10" x="1270.5" y="1520.3105"/><polygon fill="#181818" points="444.5,152.5332,454.5,156.5332,444.5,160.5332,448.5,156.5332" style="stroke:#181818;stroke-width:1.0;"/><line style="stroke:#181818;stroke-width:1.0;" x1="43.5" x2="450.5" y1="156.5332" y2="156.5332"/><text fill="#000000" font-family="sans-serif" font-size="13" font-weight="bold" lengthAdjust="spacing" textLength="7" x="50.5" y="151.2705">1</text><text fill="#000000" font-family="sans-serif" font-size="13" lengthAdjust="spacing" textLength="222" x="61.5" y="151.2705">Asks to add a new entry on To-Do List</text><polygon fill="#181818" points="750.5,183.8242,760.5,187.8242,750.5,191.8242,754.5,187.8242" style="stroke:#181818;stroke-width:1.0;"/><line style="stroke:#181818;stroke-width:1.0;" x1="466.5" x2="756.5" y1="187.8242" y2="187.8242"/><text fill="#000000" font-family="sans-serif" font-size="13" font-weight="bold" lengthAdjust="spacing" textLength="7" x="473.5" y="182.5615">2</text><text fill="#000000" font-family="sans-serif" font-size="13" lengthAdjust="spacing" textLength="141" x="484.5" y="182.5615">getGreenSpaceDTOlist()</text><rect fill="none" height="43.252" style="stroke:#000000;stroke-width:1.5;" width="205" x="665" y="220.8242"/><path d="M665,220.8242 L727,220.8242 L727,229.8242 L717,239.8242 L665,239.8242 L665,220.8242 " fill="#EEEEEE" style="stroke:#000000;stroke-width:2.0;"/><text fill="#000000" font-family="sans-serif" font-size="13" font-weight="bold" lengthAdjust="spacing" textLength="17" x="678" y="236.8525">ref</text><text fill="#000000" font-family="sans-serif" font-size="12" lengthAdjust="spacing" textLength="144" x="695.5" y="256.7734">SD_toGreenSpaceDTOlist</text><polygon fill="#181818" points="477.5,288.3672,467.5,292.3672,477.5,296.3672,473.5,292.3672" style="stroke:#181818;stroke-width:1.0;"/><line style="stroke:#181818;stroke-width:1.0;stroke-dasharray:2.0,2.0;" x1="471.5" x2="766.5" y1="292.3672" y2="292.3672"/><text fill="#000000" font-family="sans-serif" font-size="13" font-weight="bold" lengthAdjust="spacing" textLength="7" x="483.5" y="287.1045">3</text><text fill="#000000" font-family="sans-serif" font-size="13" lengthAdjust="spacing" textLength="116" x="494.5" y="287.1045">greenSpaceDTOList</text><path d="M10,307.3672 L83,307.3672 L83,316.6582 L73,326.6582 L10,326.6582 L10,307.3672 " fill="#EEEEEE" style="stroke:#000000;stroke-width:1.5;"/><rect fill="none" height="151.1641" style="stroke:#000000;stroke-width:1.5;" width="594.5" x="10" y="307.3672"/><text fill="#000000" font-family="sans-serif" font-size="13" font-weight="bold" lengthAdjust="spacing" textLength="28" x="25" y="322.3955">loop</text><text fill="#000000" font-family="sans-serif" font-size="11" font-weight="bold" lengthAdjust="spacing" textLength="189" x="98" y="321.2373">[until doesn't select a valid option]</text><polygon fill="#181818" points="54.5,345.9492,44.5,349.9492,54.5,353.9492,50.5,349.9492" style="stroke:#181818;stroke-width:1.0;"/><line style="stroke:#181818;stroke-width:1.0;stroke-dasharray:2.0,2.0;" x1="48.5" x2="460.5" y1="349.9492" y2="349.9492"/><text fill="#000000" font-family="sans-serif" font-size="13" font-weight="bold" lengthAdjust="spacing" textLength="7" x="60.5" y="344.6865">4</text><text fill="#000000" font-family="sans-serif" font-size="13" lengthAdjust="spacing" textLength="292" x="71.5" y="344.6865">Shows list of green spaces and asks to select one</text><polygon fill="#181818" points="444.5,377.2402,454.5,381.2402,444.5,385.2402,448.5,381.2402" style="stroke:#181818;stroke-width:1.0;"/><line style="stroke:#181818;stroke-width:1.0;" x1="43.5" x2="450.5" y1="381.2402" y2="381.2402"/><text fill="#000000" font-family="sans-serif" font-size="13" font-weight="bold" lengthAdjust="spacing" textLength="7" x="50.5" y="375.9775">5</text><text fill="#000000" font-family="sans-serif" font-size="13" lengthAdjust="spacing" textLength="130" x="61.5" y="375.9775">Selects a green space</text><line style="stroke:#181818;stroke-width:1.0;stroke-dasharray:2.0,2.0;" x1="466.5" x2="508.5" y1="412.5313" y2="412.5313"/><line style="stroke:#181818;stroke-width:1.0;stroke-dasharray:2.0,2.0;" x1="508.5" x2="508.5" y1="412.5313" y2="425.5313"/><line style="stroke:#181818;stroke-width:1.0;stroke-dasharray:2.0,2.0;" x1="467.5" x2="508.5" y1="425.5313" y2="425.5313"/><polygon fill="#181818" points="477.5,421.5313,467.5,425.5313,477.5,429.5313,473.5,425.5313" style="stroke:#181818;stroke-width:1.0;"/><text fill="#000000" font-family="sans-serif" font-size="13" font-weight="bold" lengthAdjust="spacing" textLength="7" x="473.5" y="407.2686">6</text><text fill="#000000" font-family="sans-serif" font-size="13" lengthAdjust="spacing" textLength="108" x="484.5" y="407.2686">validates Selection</text><line style="stroke:#181818;stroke-width:1.0;stroke-dasharray:2.0,2.0;" x1="466.5" x2="508.5" y1="488.8223" y2="488.8223"/><line style="stroke:#181818;stroke-width:1.0;stroke-dasharray:2.0,2.0;" x1="508.5" x2="508.5" y1="488.8223" y2="501.8223"/><line style="stroke:#181818;stroke-width:1.0;stroke-dasharray:2.0,2.0;" x1="467.5" x2="508.5" y1="501.8223" y2="501.8223"/><polygon fill="#181818" points="477.5,497.8223,467.5,501.8223,477.5,505.8223,473.5,501.8223" style="stroke:#181818;stroke-width:1.0;"/><text fill="#000000" font-family="sans-serif" font-size="13" font-weight="bold" lengthAdjust="spacing" textLength="7" x="473.5" y="483.5596">7</text><text fill="#000000" font-family="sans-serif" font-size="13" lengthAdjust="spacing" textLength="130" x="484.5" y="483.5596">keepData(greenspace)</text><path d="M10,516.8223 L83,516.8223 L83,526.1133 L73,536.1133 L10,536.1133 L10,516.8223 " fill="#EEEEEE" style="stroke:#000000;stroke-width:1.5;"/><rect fill="none" height="151.1641" style="stroke:#000000;stroke-width:1.5;" width="608.5" x="10" y="516.8223"/><text fill="#000000" font-family="sans-serif" font-size="13" font-weight="bold" lengthAdjust="spacing" textLength="28" x="25" y="531.8506">loop</text><text fill="#000000" font-family="sans-serif" font-size="11" font-weight="bold" lengthAdjust="spacing" textLength="157" x="98" y="530.6924">[until typed data is validated]</text><polygon fill="#181818" points="54.5,555.4043,44.5,559.4043,54.5,563.4043,50.5,559.4043" style="stroke:#181818;stroke-width:1.0;"/><line style="stroke:#181818;stroke-width:1.0;stroke-dasharray:2.0,2.0;" x1="48.5" x2="460.5" y1="559.4043" y2="559.4043"/><text fill="#000000" font-family="sans-serif" font-size="13" font-weight="bold" lengthAdjust="spacing" textLength="7" x="60.5" y="554.1416">8</text><text fill="#000000" font-family="sans-serif" font-size="13" lengthAdjust="spacing" textLength="299" x="71.5" y="554.1416">Requests data (title, description, expected duration)</text><polygon fill="#181818" points="444.5,586.6953,454.5,590.6953,444.5,594.6953,448.5,590.6953" style="stroke:#181818;stroke-width:1.0;"/><line style="stroke:#181818;stroke-width:1.0;" x1="43.5" x2="450.5" y1="590.6953" y2="590.6953"/><text fill="#000000" font-family="sans-serif" font-size="13" font-weight="bold" lengthAdjust="spacing" textLength="7" x="50.5" y="585.4326">9</text><text fill="#000000" font-family="sans-serif" font-size="13" lengthAdjust="spacing" textLength="125" x="61.5" y="585.4326">Types requested data</text><line style="stroke:#181818;stroke-width:1.0;stroke-dasharray:2.0,2.0;" x1="466.5" x2="508.5" y1="621.9863" y2="621.9863"/><line style="stroke:#181818;stroke-width:1.0;stroke-dasharray:2.0,2.0;" x1="508.5" x2="508.5" y1="621.9863" y2="634.9863"/><line style="stroke:#181818;stroke-width:1.0;stroke-dasharray:2.0,2.0;" x1="467.5" x2="508.5" y1="634.9863" y2="634.9863"/><polygon fill="#181818" points="477.5,630.9863,467.5,634.9863,477.5,638.9863,473.5,634.9863" style="stroke:#181818;stroke-width:1.0;"/><text fill="#000000" font-family="sans-serif" font-size="13" font-weight="bold" lengthAdjust="spacing" textLength="14" x="473.5" y="616.7236">10</text><text fill="#000000" font-family="sans-serif" font-size="13" lengthAdjust="spacing" textLength="115" x="491.5" y="616.7236">validates typed data</text><line style="stroke:#181818;stroke-width:1.0;stroke-dasharray:2.0,2.0;" x1="466.5" x2="508.5" y1="698.2773" y2="698.2773"/><line style="stroke:#181818;stroke-width:1.0;stroke-dasharray:2.0,2.0;" x1="508.5" x2="508.5" y1="698.2773" y2="711.2773"/><line style="stroke:#181818;stroke-width:1.0;stroke-dasharray:2.0,2.0;" x1="467.5" x2="508.5" y1="711.2773" y2="711.2773"/><polygon fill="#181818" points="477.5,707.2773,467.5,711.2773,477.5,715.2773,473.5,711.2773" style="stroke:#181818;stroke-width:1.0;"/><text fill="#000000" font-family="sans-serif" font-size="13" font-weight="bold" lengthAdjust="spacing" textLength="14" x="473.5" y="693.0146">11</text><text fill="#000000" font-family="sans-serif" font-size="13" lengthAdjust="spacing" textLength="264" x="491.5" y="693.0146">keepData(title, description, expectedDuration)</text><path d="M471,724.2773 L471,768.2773 L671,768.2773 L671,734.2773 L661,724.2773 L471,724.2773 " fill="#FAFAFA" style="stroke:#181818;stroke-width:0.5;"/><path d="M661,724.2773 L661,734.2773 L671,734.2773 L661,724.2773 " fill="#FAFAFA" style="stroke:#181818;stroke-width:0.5;"/><text fill="#000000" font-family="sans-serif" font-size="13" lengthAdjust="spacing" textLength="179" x="477" y="743.3057">expectedDuration is composed</text><text fill="#000000" font-family="sans-serif" font-size="13" lengthAdjust="spacing" textLength="161" x="477" y="760.5967">by days, hours and minutes</text><path d="M10,805.8594 L83,805.8594 L83,815.1504 L73,825.1504 L10,825.1504 L10,805.8594 " fill="#EEEEEE" style="stroke:#000000;stroke-width:1.5;"/><rect fill="none" height="174.4551" style="stroke:#000000;stroke-width:1.5;" width="641.5" x="10" y="805.8594"/><text fill="#000000" font-family="sans-serif" font-size="13" font-weight="bold" lengthAdjust="spacing" textLength="28" x="25" y="820.8877">loop</text><text fill="#000000" font-family="sans-serif" font-size="11" font-weight="bold" lengthAdjust="spacing" textLength="189" x="98" y="819.7295">[until doesn't select a valid option]</text><polygon fill="#181818" points="54.5,844.4414,44.5,848.4414,54.5,852.4414,50.5,848.4414" style="stroke:#181818;stroke-width:1.0;"/><line style="stroke:#181818;stroke-width:1.0;stroke-dasharray:2.0,2.0;" x1="48.5" x2="460.5" y1="848.4414" y2="848.4414"/><text fill="#000000" font-family="sans-serif" font-size="13" font-weight="bold" lengthAdjust="spacing" textLength="14" x="60.5" y="843.1787">12</text><text fill="#000000" font-family="sans-serif" font-size="13" lengthAdjust="spacing" textLength="371" x="78.5" y="843.1787">Shows list of task taskType and urgency and asks to select one</text><polygon fill="#181818" points="444.5,887.3779,454.5,891.3779,444.5,895.3779,448.5,891.3779" style="stroke:#181818;stroke-width:1.0;"/><line style="stroke:#181818;stroke-width:1.0;" x1="43.5" x2="450.5" y1="891.3779" y2="891.3779"/><text fill="#000000" font-family="sans-serif" font-size="13" font-weight="bold" lengthAdjust="spacing" textLength="14" x="50.5" y="886.1152">13</text><text fill="#000000" font-family="sans-serif" font-size="13" lengthAdjust="spacing" textLength="191" x="68.5" y="886.1152">Selects type of task and urgency</text><path d="M471,861.4414 L471,905.4414 L646,905.4414 L646,871.4414 L636,861.4414 L471,861.4414 " fill="#FAFAFA" style="stroke:#181818;stroke-width:0.5;"/><path d="M636,861.4414 L636,871.4414 L646,871.4414 L636,861.4414 " fill="#FAFAFA" style="stroke:#181818;stroke-width:0.5;"/><text fill="#000000" font-family="sans-serif" font-size="13" lengthAdjust="spacing" textLength="154" x="477" y="880.4697">Task type and urgency are</text><text fill="#000000" font-family="sans-serif" font-size="13" lengthAdjust="spacing" textLength="126" x="477" y="897.7607">both enumerate types</text><line style="stroke:#181818;stroke-width:1.0;stroke-dasharray:2.0,2.0;" x1="466.5" x2="508.5" y1="934.3145" y2="934.3145"/><line style="stroke:#181818;stroke-width:1.0;stroke-dasharray:2.0,2.0;" x1="508.5" x2="508.5" y1="934.3145" y2="947.3145"/><line style="stroke:#181818;stroke-width:1.0;stroke-dasharray:2.0,2.0;" x1="467.5" x2="508.5" y1="947.3145" y2="947.3145"/><polygon fill="#181818" points="477.5,943.3145,467.5,947.3145,477.5,951.3145,473.5,947.3145" style="stroke:#181818;stroke-width:1.0;"/><text fill="#000000" font-family="sans-serif" font-size="13" font-weight="bold" lengthAdjust="spacing" textLength="14" x="473.5" y="929.0518">14</text><text fill="#000000" font-family="sans-serif" font-size="13" lengthAdjust="spacing" textLength="108" x="491.5" y="929.0518">validates Selection</text><line style="stroke:#181818;stroke-width:1.0;stroke-dasharray:2.0,2.0;" x1="466.5" x2="508.5" y1="1010.6055" y2="1010.6055"/><line style="stroke:#181818;stroke-width:1.0;stroke-dasharray:2.0,2.0;" x1="508.5" x2="508.5" y1="1010.6055" y2="1023.6055"/><line style="stroke:#181818;stroke-width:1.0;stroke-dasharray:2.0,2.0;" x1="467.5" x2="508.5" y1="1023.6055" y2="1023.6055"/><polygon fill="#181818" points="477.5,1019.6055,467.5,1023.6055,477.5,1027.6055,473.5,1023.6055" style="stroke:#181818;stroke-width:1.0;"/><text fill="#000000" font-family="sans-serif" font-size="13" font-weight="bold" lengthAdjust="spacing" textLength="14" x="473.5" y="1005.3428">15</text><text fill="#000000" font-family="sans-serif" font-size="13" lengthAdjust="spacing" textLength="142" x="491.5" y="1005.3428">keepData(type, urgency)</text><polygon fill="#181818" points="54.5,1075.8965,44.5,1079.8965,54.5,1083.8965,50.5,1079.8965" style="stroke:#181818;stroke-width:1.0;"/><line style="stroke:#181818;stroke-width:1.0;stroke-dasharray:2.0,2.0;" x1="48.5" x2="460.5" y1="1079.8965" y2="1079.8965"/><text fill="#000000" font-family="sans-serif" font-size="13" font-weight="bold" lengthAdjust="spacing" textLength="14" x="60.5" y="1074.6338">16</text><text fill="#000000" font-family="sans-serif" font-size="13" lengthAdjust="spacing" textLength="238" x="78.5" y="1074.6338">Shows all data and requests confirmation</text><polygon fill="#181818" points="444.5,1107.1875,454.5,1111.1875,444.5,1115.1875,448.5,1111.1875" style="stroke:#181818;stroke-width:1.0;"/><line style="stroke:#181818;stroke-width:1.0;" x1="43.5" x2="450.5" y1="1111.1875" y2="1111.1875"/><text fill="#000000" font-family="sans-serif" font-size="13" font-weight="bold" lengthAdjust="spacing" textLength="14" x="50.5" y="1105.9248">17</text><text fill="#000000" font-family="sans-serif" font-size="13" lengthAdjust="spacing" textLength="80" x="68.5" y="1105.9248">Confirms data</text><polygon fill="#181818" points="865,1155.7695,875,1159.7695,865,1163.7695,869,1159.7695" style="stroke:#181818;stroke-width:1.0;"/><line style="stroke:#181818;stroke-width:1.0;" x1="466.5" x2="871" y1="1159.7695" y2="1159.7695"/><text fill="#000000" font-family="sans-serif" font-size="13" font-weight="bold" lengthAdjust="spacing" textLength="14" x="473.5" y="1145.8613">18</text><text fill="#000000" font-family="sans-serif" font-size="13" lengthAdjust="spacing" textLength="346" x="491.5" y="1137.2158">new toDoTaskDTO(title, description, taskType, greenSpace,</text><text fill="#000000" font-family="sans-serif" font-size="13" lengthAdjust="spacing" textLength="180" x="491.5" y="1154.5068">urgency, days, hours, minutes)</text><rect fill="#E3E3E3" height="32.6211" rx="2.5" ry="2.5" style="stroke:#181818;stroke-width:0.5;" width="114" x="877" y="1124.1484"/><text fill="#000000" font-family="sans-serif" font-size="14" lengthAdjust="spacing" textLength="100" x="884" y="1146.2559">:ToDoTaskDTO</text><polygon fill="#181818" points="750.5,1212.0605,760.5,1216.0605,750.5,1220.0605,754.5,1216.0605" style="stroke:#181818;stroke-width:1.0;"/><line style="stroke:#181818;stroke-width:1.0;" x1="466.5" x2="756.5" y1="1216.0605" y2="1216.0605"/><text fill="#000000" font-family="sans-serif" font-size="13" font-weight="bold" lengthAdjust="spacing" textLength="14" x="473.5" y="1210.7979">19</text><text fill="#000000" font-family="sans-serif" font-size="13" lengthAdjust="spacing" textLength="160" x="491.5" y="1210.7979">registerTask(toDoTaskDTO)</text><rect fill="none" height="63.2129" style="stroke:#000000;stroke-width:1.5;" width="205" x="665" y="1224.0605"/><path d="M665,1224.0605 L727,1224.0605 L727,1233.0605 L717,1243.0605 L665,1243.0605 L665,1224.0605 " fill="#EEEEEE" style="stroke:#000000;stroke-width:2.0;"/><text fill="#000000" font-family="sans-serif" font-size="13" font-weight="bold" lengthAdjust="spacing" textLength="17" x="678" y="1240.0889">ref</text><line style="stroke:#000000;stroke-width:1.0;" x1="767.5" x2="767.5" y1="1249.0605" y2="1249.0605"/><line style="stroke:#000000;stroke-width:1.0;" x1="767.5" x2="767.5" y1="1249.0605" y2="1249.0605"/><line style="stroke:#000000;stroke-width:1.0;" x1="767.5" x2="767.5" y1="1249.0605" y2="1249.0605"/><text fill="#000000" font-family="sans-serif" font-size="12" lengthAdjust="spacing" textLength="143" x="696" y="1264.0098">SD_toToDoDomainObject</text><text fill="#000000" font-family="sans-serif" font-size="12" lengthAdjust="spacing" textLength="3" x="766" y="1279.9707">&#160;</text><line style="stroke:#181818;stroke-width:1.0;" x1="772.5" x2="814.5" y1="1320.71" y2="1320.71"/><line style="stroke:#181818;stroke-width:1.0;" x1="814.5" x2="814.5" y1="1320.71" y2="1333.71"/><line style="stroke:#181818;stroke-width:1.0;" x1="773.5" x2="814.5" y1="1333.71" y2="1333.71"/><polygon fill="#181818" points="783.5,1329.71,773.5,1333.71,783.5,1337.71,779.5,1333.71" style="stroke:#181818;stroke-width:1.0;"/><text fill="#000000" font-family="sans-serif" font-size="13" font-weight="bold" lengthAdjust="spacing" textLength="14" x="779.5" y="1315.4473">20</text><text fill="#000000" font-family="sans-serif" font-size="13" lengthAdjust="spacing" textLength="25" x="797.5" y="1315.4473">task</text><path d="M834,1297.2734 L834,1341.2734 L983,1341.2734 L983,1307.2734 L973,1297.2734 L834,1297.2734 " fill="#FAFAFA" style="stroke:#181818;stroke-width:0.5;"/><path d="M973,1297.2734 L973,1307.2734 L983,1307.2734 L973,1297.2734 " fill="#FAFAFA" style="stroke:#181818;stroke-width:0.5;"/><text fill="#000000" font-family="sans-serif" font-size="13" lengthAdjust="spacing" textLength="124" x="840" y="1316.3018">The DTO is converted</text><text fill="#000000" font-family="sans-serif" font-size="13" lengthAdjust="spacing" textLength="128" x="840" y="1333.5928">to domain object Task</text><polygon fill="#181818" points="1032.5,1391.1465,1042.5,1395.1465,1032.5,1399.1465,1036.5,1395.1465" style="stroke:#181818;stroke-width:1.0;"/><line style="stroke:#181818;stroke-width:1.0;" x1="772.5" x2="1038.5" y1="1395.1465" y2="1395.1465"/><text fill="#000000" font-family="sans-serif" font-size="13" font-weight="bold" lengthAdjust="spacing" textLength="14" x="779.5" y="1389.8838">21</text><text fill="#000000" font-family="sans-serif" font-size="13" lengthAdjust="spacing" textLength="75" x="797.5" y="1389.8838">getInstance()</text><polygon fill="#181818" points="783.5,1422.4375,773.5,1426.4375,783.5,1430.4375,779.5,1426.4375" style="stroke:#181818;stroke-width:1.0;"/><line style="stroke:#181818;stroke-width:1.0;stroke-dasharray:2.0,2.0;" x1="777.5" x2="1048.5" y1="1426.4375" y2="1426.4375"/><text fill="#000000" font-family="sans-serif" font-size="13" font-weight="bold" lengthAdjust="spacing" textLength="14" x="789.5" y="1421.1748">22</text><text fill="#000000" font-family="sans-serif" font-size="13" lengthAdjust="spacing" textLength="67" x="807.5" y="1421.1748">repositories</text><polygon fill="#181818" points="1139.5,1453.7285,1149.5,1457.7285,1139.5,1461.7285,1143.5,1457.7285" style="stroke:#181818;stroke-width:1.0;"/><line style="stroke:#181818;stroke-width:1.0;" x1="772.5" x2="1145.5" y1="1457.7285" y2="1457.7285"/><text fill="#000000" font-family="sans-serif" font-size="13" font-weight="bold" lengthAdjust="spacing" textLength="14" x="779.5" y="1452.4658">23</text><text fill="#000000" font-family="sans-serif" font-size="13" lengthAdjust="spacing" textLength="118" x="797.5" y="1452.4658">getToDoRepository()</text><polygon fill="#181818" points="783.5,1485.0195,773.5,1489.0195,783.5,1493.0195,779.5,1489.0195" style="stroke:#181818;stroke-width:1.0;"/><line style="stroke:#181818;stroke-width:1.0;stroke-dasharray:2.0,2.0;" x1="777.5" x2="1155.5" y1="1489.0195" y2="1489.0195"/><text fill="#000000" font-family="sans-serif" font-size="13" font-weight="bold" lengthAdjust="spacing" textLength="14" x="789.5" y="1483.7568">24</text><text fill="#000000" font-family="sans-serif" font-size="13" lengthAdjust="spacing" textLength="89" x="807.5" y="1483.7568">toDoRepository</text><polygon fill="#181818" points="1258.5,1516.3105,1268.5,1520.3105,1258.5,1524.3105,1262.5,1520.3105" style="stroke:#181818;stroke-width:1.0;"/><line style="stroke:#181818;stroke-width:1.0;" x1="772.5" x2="1264.5" y1="1520.3105" y2="1520.3105"/><text fill="#000000" font-family="sans-serif" font-size="13" font-weight="bold" lengthAdjust="spacing" textLength="14" x="779.5" y="1515.0479">25</text><text fill="#000000" font-family="sans-serif" font-size="13" lengthAdjust="spacing" textLength="132" x="797.5" y="1515.0479">registerTaskTodo(task)</text><line style="stroke:#181818;stroke-width:1.0;stroke-dasharray:2.0,2.0;" x1="1280.5" x2="1322.5" y1="1551.6016" y2="1551.6016"/><line style="stroke:#181818;stroke-width:1.0;stroke-dasharray:2.0,2.0;" x1="1322.5" x2="1322.5" y1="1551.6016" y2="1564.6016"/><line style="stroke:#181818;stroke-width:1.0;stroke-dasharray:2.0,2.0;" x1="1281.5" x2="1322.5" y1="1564.6016" y2="1564.6016"/><polygon fill="#181818" points="1291.5,1560.6016,1281.5,1564.6016,1291.5,1568.6016,1287.5,1564.6016" style="stroke:#181818;stroke-width:1.0;"/><text fill="#000000" font-family="sans-serif" font-size="13" font-weight="bold" lengthAdjust="spacing" textLength="14" x="1287.5" y="1546.3389">26</text><text fill="#000000" font-family="sans-serif" font-size="13" lengthAdjust="spacing" textLength="134" x="1305.5" y="1546.3389">validateTaskToDo(task)</text><polygon fill="#181818" points="1532.5,1616.8926,1542.5,1620.8926,1532.5,1624.8926,1536.5,1620.8926" style="stroke:#181818;stroke-width:1.0;"/><line style="stroke:#181818;stroke-width:1.0;" x1="1280.5" x2="1538.5" y1="1620.8926" y2="1620.8926"/><text fill="#000000" font-family="sans-serif" font-size="13" font-weight="bold" lengthAdjust="spacing" textLength="14" x="1287.5" y="1615.6299">27</text><text fill="#000000" font-family="sans-serif" font-size="13" lengthAdjust="spacing" textLength="222" x="1305.5" y="1615.6299">setStatus(TODO_DEFAULT_STATUS)</text><rect fill="#E3E3E3" height="51.2422" rx="2.5" ry="2.5" style="stroke:#181818;stroke-width:0.5;" width="49" x="1544.5" y="1597.6016"/><text fill="#000000" font-family="sans-serif" font-size="14" lengthAdjust="spacing" textLength="26" x="1556" y="1619.709">task</text><text fill="#000000" font-family="sans-serif" font-size="14" lengthAdjust="spacing" textLength="35" x="1551.5" y="1638.3301">:Task</text><path d="M1574,1664.8438 L1574,1725.8438 L1809,1725.8438 L1809,1674.8438 L1799,1664.8438 L1574,1664.8438 " fill="#FAFAFA" style="stroke:#181818;stroke-width:0.5;"/><path d="M1799,1664.8438 L1799,1674.8438 L1809,1674.8438 L1799,1664.8438 " fill="#FAFAFA" style="stroke:#181818;stroke-width:0.5;"/><text fill="#000000" font-family="sans-serif" font-size="13" lengthAdjust="spacing" textLength="188" x="1580" y="1683.8721">When a new task is created, the</text><text fill="#000000" font-family="sans-serif" font-size="13" lengthAdjust="spacing" textLength="214" x="1580" y="1701.1631">status is "PENDING" by default, until</text><text fill="#000000" font-family="sans-serif" font-size="13" lengthAdjust="spacing" textLength="199" x="1580" y="1718.4541">the task doesn't go to the Agenda.</text><line style="stroke:#181818;stroke-width:1.0;stroke-dasharray:2.0,2.0;" x1="1280.5" x2="1322.5" y1="1755.0078" y2="1755.0078"/><line style="stroke:#181818;stroke-width:1.0;stroke-dasharray:2.0,2.0;" x1="1322.5" x2="1322.5" y1="1755.0078" y2="1768.0078"/><line style="stroke:#181818;stroke-width:1.0;stroke-dasharray:2.0,2.0;" x1="1281.5" x2="1322.5" y1="1768.0078" y2="1768.0078"/><polygon fill="#181818" points="1291.5,1764.0078,1281.5,1768.0078,1291.5,1772.0078,1287.5,1768.0078" style="stroke:#181818;stroke-width:1.0;"/><text fill="#000000" font-family="sans-serif" font-size="13" font-weight="bold" lengthAdjust="spacing" textLength="14" x="1287.5" y="1749.7451">28</text><text fill="#000000" font-family="sans-serif" font-size="13" lengthAdjust="spacing" textLength="54" x="1305.5" y="1749.7451">add(task)</text><polygon fill="#181818" points="783.5,1795.2988,773.5,1799.2988,783.5,1803.2988,779.5,1799.2988" style="stroke:#181818;stroke-width:1.0;"/><line style="stroke:#181818;stroke-width:1.0;stroke-dasharray:2.0,2.0;" x1="777.5" x2="1274.5" y1="1799.2988" y2="1799.2988"/><text fill="#000000" font-family="sans-serif" font-size="13" font-weight="bold" lengthAdjust="spacing" textLength="14" x="789.5" y="1794.0361">29</text><text fill="#000000" font-family="sans-serif" font-size="13" lengthAdjust="spacing" textLength="106" x="807.5" y="1794.0361">operation success</text><polygon fill="#181818" points="477.5,1826.5898,467.5,1830.5898,477.5,1834.5898,473.5,1830.5898" style="stroke:#181818;stroke-width:1.0;"/><line style="stroke:#181818;stroke-width:1.0;stroke-dasharray:2.0,2.0;" x1="471.5" x2="766.5" y1="1830.5898" y2="1830.5898"/><text fill="#000000" font-family="sans-serif" font-size="13" font-weight="bold" lengthAdjust="spacing" textLength="14" x="483.5" y="1825.3271">30</text><text fill="#000000" font-family="sans-serif" font-size="13" lengthAdjust="spacing" textLength="106" x="501.5" y="1825.3271">operation success</text><polygon fill="#181818" points="54.5,1857.8809,44.5,1861.8809,54.5,1865.8809,50.5,1861.8809" style="stroke:#181818;stroke-width:1.0;"/><line style="stroke:#181818;stroke-width:1.0;stroke-dasharray:2.0,2.0;" x1="48.5" x2="460.5" y1="1861.8809" y2="1861.8809"/><text fill="#000000" font-family="sans-serif" font-size="13" font-weight="bold" lengthAdjust="spacing" textLength="14" x="60.5" y="1856.6182">31</text><text fill="#000000" font-family="sans-serif" font-size="13" lengthAdjust="spacing" textLength="160" x="78.5" y="1856.6182">Displays operation success</text><!--SRC=[fLTBR-Cs4BxpLn2vr5xOHTjZ3W6CA1iOIED59AEN1G966ikiPL8bgQG6ykCxf4oPakd7TdM87Mhccs-6yxBUS54pnRPqAuNCrqfkWHhL0D7Tcvhb6rP2QdOLK0MvOQAiGW6zPeNyuAAaArPf8CHmWwBBzBS_VgTJci8_3OWSQC9PYVA4iCP8qMpVGE7tt4X5RnxJFsyeqnG_2Q8QdlEQ2KDlRcT5yGmV3yAeNIOJkPmxkUMyBvPB591L1Ugx6AhST- -SwdtsyZImOQKofZT9jd0YmVy3oHUefUP8cODseYyFtmOoAX11Cb6DkT0OnXpwcWRDTk8xrCrw1tjgXHne8L4hYn-j17v9mH3YWilVcG4NLaBnmIzqUeVXexTqfZUQ6abPKL161NnGi26ZKg2LQIBf4zV6QNKu67PtWFg8OYE9E2MOHmKWKimKm91Lg3OQznLTq3y_FzsfVHIig7m7rRxnfsdoQkGHMFSQH64L2N6MfzwHCbJeI1VGjzuohwIiQICChsWXGOjV3DLGOLPZ2DvPnGigQyEbw6o6ZtKRZTeWtj9qBJyqjVoeNBKSgBOaD6N8a-sZkqUN0euW0uO-iE4JtbNgK10vD7Ii4kATOh-StxQUefpU0ySS3cyhk82-qGuJEMu0weGPDd8K7SFnSTJDheQ2ed56kUw81B2z8B_Ovg7HSQSmSfrbWe7JkUBkdYOK_gtH0ulPA6QFnkH4SCE0PaX3Op8v-3qXSZhPlTeXS0S_Y8yMEGfHD3pdd4XwFjX7IAIYUBbsQHQxLsjqe6v3cyijTWwCR4pXROVKTtf2rx9HRS9kkMZGiJW-lhT4I9WSFrzF5shATZRtnrwMuzYe4aV9xje2kwB8JXMQlTwEGs0w2d2ue-ZhpFbnv8EA4twJPeq1RxQWB6chT-MbNDq9_aStEDKHebtXTEgZCnCV0TySkdmYv2HCc1wigjfsmDmus3S8t01MN6rT-fF-fG_l-BuLrPUA_YvS1BvyGKqx9CtXB5hAFc4dmLoQV1TxfoTXtKryqOr96D_UT5LGOZc0iYP7WUtOWEr5BpvXO_VefgvrDP5RniNYxMzCWZwOdxpXMJk4EwBMRt95LMHhN0MpHTkY118qWnw5DLqu8bGw9gv-oCNC7thbwTbzgzrI_DOr6fyl6RVJdMnO3cyQNj1XmRlKWHnoJ2OawsawplqL49bVfjujbsTTy5AXA_q5z1fdpjloNjcbTP3AzcXaK-QIHsxXZRTLYpezmFisri8d7lv7EbaBUUTtQ5Vp6angc6dqA5iaYzVauUji-PIzfjaiMwRZ2_F0ZX2_aCSa_rhZCjSktsxIsA9GO1SYR2JhU6lNZeqLlVdsy9pCdnzlt3o75MigCscdSLGJ4LipVbINqbQRFPvXTohOhpy-Q8QtWBycpjrh9xvFELd3VcNHJOwxyyKIEiw7_e-1yu337mNHCPDmNLVOfKzWzOVBVm00]--></g></svg>