<?xml version="1.0" encoding="us-ascii" standalone="no"?><svg xmlns="http://www.w3.org/2000/svg" xmlns:xlink="http://www.w3.org/1999/xlink" contentStyleType="text/css" height="1320px" preserveAspectRatio="none" style="width:1716px;height:1320px;background:#FFFFFF;" version="1.1" viewBox="0 0 1716 1320" width="1716px" zoomAndPan="magnify"><defs/><g><text fill="#000000" font-family="sans-serif" font-size="14" font-weight="bold" lengthAdjust="spacing" textLength="188" x="763.75" y="30.1074">US021 - Sequence Diagram</text><rect fill="#FFFFFF" height="1095.0605" style="stroke:#181818;stroke-width:1.0;" width="10" x="33.5" y="133.2422"/><rect fill="#FFFFFF" height="307.9102" style="stroke:#181818;stroke-width:1.0;" width="10" x="377.5" y="156.5332"/><rect fill="#FFFFFF" height="133.873" style="stroke:#181818;stroke-width:1.0;" width="10" x="377.5" y="495.7344"/><rect fill="#FFFFFF" height="149.873" style="stroke:#181818;stroke-width:1.0;" width="10" x="377.5" y="660.8984"/><rect fill="#FFFFFF" height="377.2402" style="stroke:#181818;stroke-width:1.0;" width="10" x="377.5" y="842.0625"/><rect fill="#FFFFFF" height="219.0371" style="stroke:#181818;stroke-width:1.0;" width="10" x="723.5" y="187.8242"/><rect fill="#FFFFFF" height="314.6582" style="stroke:#181818;stroke-width:1.0;" width="10" x="723.5" y="873.3535"/><rect fill="#FFFFFF" height="31.291" style="stroke:#181818;stroke-width:1.0;" width="10" x="881.5" y="219.1152"/><rect fill="#FFFFFF" height="31.291" style="stroke:#181818;stroke-width:1.0;" width="10" x="988.5" y="281.6973"/><rect fill="#FFFFFF" height="31.291" style="stroke:#181818;stroke-width:1.0;" width="10" x="1130" y="344.2793"/><rect fill="#FFFFFF" height="252.0762" style="stroke:#181818;stroke-width:1.0;" width="10" x="1130" y="904.6445"/><rect fill="none" height="106.873" style="stroke:#000000;stroke-width:1.5;" width="457" x="10" y="421.8613"/><rect fill="none" height="106.873" style="stroke:#000000;stroke-width:1.5;" width="457" x="10" y="587.0254"/><line style="stroke:#181818;stroke-width:0.5;stroke-dasharray:5.0,5.0;" x1="38" x2="38" y1="123.2422" y2="1237.3027"/><line style="stroke:#181818;stroke-width:0.5;stroke-dasharray:5.0,5.0;" x1="382" x2="382" y1="123.2422" y2="1237.3027"/><line style="stroke:#181818;stroke-width:0.5;stroke-dasharray:5.0,5.0;" x1="728" x2="728" y1="123.2422" y2="1237.3027"/><line style="stroke:#181818;stroke-width:0.5;stroke-dasharray:5.0,5.0;" x1="886" x2="886" y1="123.2422" y2="1237.3027"/><line style="stroke:#181818;stroke-width:0.5;stroke-dasharray:5.0,5.0;" x1="993" x2="993" y1="123.2422" y2="1237.3027"/><line style="stroke:#181818;stroke-width:0.5;stroke-dasharray:5.0,5.0;" x1="1135" x2="1135" y1="123.2422" y2="1237.3027"/><line style="stroke:#181818;stroke-width:0.5;stroke-dasharray:5.0,5.0;" x1="1484" x2="1484" y1="944.4551" y2="1237.3027"/><text fill="#000000" font-family="sans-serif" font-size="14" lengthAdjust="spacing" textLength="31" x="20" y="119.7285">GSM</text><ellipse cx="38.5" cy="53.1211" fill="#E3E3E3" rx="8" ry="8" style="stroke:#181818;stroke-width:0.5;"/><path d="M38.5,61.1211 L38.5,88.1211 M25.5,69.1211 L51.5,69.1211 M38.5,88.1211 L25.5,103.1211 M38.5,88.1211 L51.5,103.1211 " fill="none" style="stroke:#181818;stroke-width:0.5;"/><text fill="#000000" font-family="sans-serif" font-size="14" lengthAdjust="spacing" textLength="31" x="20" y="1251.4102">GSM</text><ellipse cx="38.5" cy="1263.4238" fill="#E3E3E3" rx="8" ry="8" style="stroke:#181818;stroke-width:0.5;"/><path d="M38.5,1271.4238 L38.5,1298.4238 M25.5,1279.4238 L51.5,1279.4238 M38.5,1298.4238 L25.5,1313.4238 M38.5,1298.4238 L51.5,1313.4238 " fill="none" style="stroke:#181818;stroke-width:0.5;"/><rect fill="#E3E3E3" height="32.6211" rx="2.5" ry="2.5" style="stroke:#181818;stroke-width:0.5;" width="149" x="308" y="89.6211"/><text fill="#000000" font-family="sans-serif" font-size="14" lengthAdjust="spacing" textLength="135" x="315" y="111.7285">:AddNewEntryToDoUI</text><rect fill="#E3E3E3" height="32.6211" rx="2.5" ry="2.5" style="stroke:#181818;stroke-width:0.5;" width="149" x="308" y="1236.3027"/><text fill="#000000" font-family="sans-serif" font-size="14" lengthAdjust="spacing" textLength="135" x="315" y="1258.4102">:AddNewEntryToDoUI</text><rect fill="#E3E3E3" height="32.6211" rx="2.5" ry="2.5" style="stroke:#181818;stroke-width:0.5;" width="199" x="629" y="89.6211"/><text fill="#000000" font-family="sans-serif" font-size="14" lengthAdjust="spacing" textLength="185" x="636" y="111.7285">:AddNewEntryToDoController</text><rect fill="#E3E3E3" height="32.6211" rx="2.5" ry="2.5" style="stroke:#181818;stroke-width:0.5;" width="199" x="629" y="1236.3027"/><text fill="#000000" font-family="sans-serif" font-size="14" lengthAdjust="spacing" textLength="185" x="636" y="1258.4102">:AddNewEntryToDoController</text><rect fill="#E3E3E3" height="32.6211" rx="2.5" ry="2.5" style="stroke:#181818;stroke-width:0.5;" width="97" x="838" y="89.6211"/><text fill="#000000" font-family="sans-serif" font-size="14" lengthAdjust="spacing" textLength="83" x="845" y="111.7285">:Repositories</text><rect fill="#E3E3E3" height="32.6211" rx="2.5" ry="2.5" style="stroke:#181818;stroke-width:0.5;" width="97" x="838" y="1236.3027"/><text fill="#000000" font-family="sans-serif" font-size="14" lengthAdjust="spacing" textLength="83" x="845" y="1258.4102">:Repositories</text><rect fill="#E3E3E3" height="51.2422" rx="2.5" ry="2.5" style="stroke:#181818;stroke-width:0.5;" width="97" x="945" y="71"/><text fill="#000000" font-family="sans-serif" font-size="14" lengthAdjust="spacing" textLength="74" x="956.5" y="93.1074">repositories</text><text fill="#000000" font-family="sans-serif" font-size="14" lengthAdjust="spacing" textLength="83" x="952" y="111.7285">:Repositories</text><rect fill="#E3E3E3" height="51.2422" rx="2.5" ry="2.5" style="stroke:#181818;stroke-width:0.5;" width="97" x="945" y="1236.3027"/><text fill="#000000" font-family="sans-serif" font-size="14" lengthAdjust="spacing" textLength="74" x="956.5" y="1258.4102">repositories</text><text fill="#000000" font-family="sans-serif" font-size="14" lengthAdjust="spacing" textLength="83" x="952" y="1277.0313">:Repositories</text><rect fill="#E3E3E3" height="51.2422" rx="2.5" ry="2.5" style="stroke:#181818;stroke-width:0.5;" width="166" x="1052" y="71"/><text fill="#000000" font-family="sans-serif" font-size="14" lengthAdjust="spacing" textLength="145" x="1062.5" y="93.1074">greenSpaceRepository</text><text fill="#000000" font-family="sans-serif" font-size="14" lengthAdjust="spacing" textLength="152" x="1059" y="111.7285">:GreenSpaceRepository</text><rect fill="#E3E3E3" height="51.2422" rx="2.5" ry="2.5" style="stroke:#181818;stroke-width:0.5;" width="166" x="1052" y="1236.3027"/><text fill="#000000" font-family="sans-serif" font-size="14" lengthAdjust="spacing" textLength="145" x="1062.5" y="1258.4102">greenSpaceRepository</text><text fill="#000000" font-family="sans-serif" font-size="14" lengthAdjust="spacing" textLength="152" x="1059" y="1277.0313">:GreenSpaceRepository</text><rect fill="#E3E3E3" height="32.6211" rx="2.5" ry="2.5" style="stroke:#181818;stroke-width:0.5;" width="49" x="1460" y="1236.3027"/><text fill="#000000" font-family="sans-serif" font-size="14" lengthAdjust="spacing" textLength="35" x="1467" y="1258.4102">:Task</text><rect fill="#FFFFFF" height="1095.0605" style="stroke:#181818;stroke-width:1.0;" width="10" x="33.5" y="133.2422"/><rect fill="#FFFFFF" height="307.9102" style="stroke:#181818;stroke-width:1.0;" width="10" x="377.5" y="156.5332"/><rect fill="#FFFFFF" height="133.873" style="stroke:#181818;stroke-width:1.0;" width="10" x="377.5" y="495.7344"/><rect fill="#FFFFFF" height="149.873" style="stroke:#181818;stroke-width:1.0;" width="10" x="377.5" y="660.8984"/><rect fill="#FFFFFF" height="377.2402" style="stroke:#181818;stroke-width:1.0;" width="10" x="377.5" y="842.0625"/><rect fill="#FFFFFF" height="219.0371" style="stroke:#181818;stroke-width:1.0;" width="10" x="723.5" y="187.8242"/><rect fill="#FFFFFF" height="314.6582" style="stroke:#181818;stroke-width:1.0;" width="10" x="723.5" y="873.3535"/><rect fill="#FFFFFF" height="31.291" style="stroke:#181818;stroke-width:1.0;" width="10" x="881.5" y="219.1152"/><rect fill="#FFFFFF" height="31.291" style="stroke:#181818;stroke-width:1.0;" width="10" x="988.5" y="281.6973"/><rect fill="#FFFFFF" height="31.291" style="stroke:#181818;stroke-width:1.0;" width="10" x="1130" y="344.2793"/><rect fill="#FFFFFF" height="252.0762" style="stroke:#181818;stroke-width:1.0;" width="10" x="1130" y="904.6445"/><polygon fill="#181818" points="365.5,152.5332,375.5,156.5332,365.5,160.5332,369.5,156.5332" style="stroke:#181818;stroke-width:1.0;"/><line style="stroke:#181818;stroke-width:1.0;" x1="43.5" x2="371.5" y1="156.5332" y2="156.5332"/><text fill="#000000" font-family="sans-serif" font-size="13" font-weight="bold" lengthAdjust="spacing" textLength="7" x="50.5" y="151.2705">1</text><text fill="#000000" font-family="sans-serif" font-size="13" lengthAdjust="spacing" textLength="222" x="61.5" y="151.2705">Asks to add a new entry on To-Do List</text><polygon fill="#181818" points="711.5,183.8242,721.5,187.8242,711.5,191.8242,715.5,187.8242" style="stroke:#181818;stroke-width:1.0;"/><line style="stroke:#181818;stroke-width:1.0;" x1="387.5" x2="717.5" y1="187.8242" y2="187.8242"/><text fill="#000000" font-family="sans-serif" font-size="13" font-weight="bold" lengthAdjust="spacing" textLength="7" x="394.5" y="182.5615">2</text><text fill="#000000" font-family="sans-serif" font-size="13" lengthAdjust="spacing" textLength="119" x="405.5" y="182.5615">getGreenSpaceList()</text><polygon fill="#181818" points="869.5,215.1152,879.5,219.1152,869.5,223.1152,873.5,219.1152" style="stroke:#181818;stroke-width:1.0;"/><line style="stroke:#181818;stroke-width:1.0;" x1="733.5" x2="875.5" y1="219.1152" y2="219.1152"/><text fill="#000000" font-family="sans-serif" font-size="13" font-weight="bold" lengthAdjust="spacing" textLength="7" x="740.5" y="213.8525">3</text><text fill="#000000" font-family="sans-serif" font-size="13" lengthAdjust="spacing" textLength="75" x="751.5" y="213.8525">getInstance()</text><polygon fill="#181818" points="744.5,246.4063,734.5,250.4063,744.5,254.4063,740.5,250.4063" style="stroke:#181818;stroke-width:1.0;"/><line style="stroke:#181818;stroke-width:1.0;stroke-dasharray:2.0,2.0;" x1="738.5" x2="885.5" y1="250.4063" y2="250.4063"/><text fill="#000000" font-family="sans-serif" font-size="13" font-weight="bold" lengthAdjust="spacing" textLength="7" x="750.5" y="245.1436">4</text><text fill="#000000" font-family="sans-serif" font-size="13" lengthAdjust="spacing" textLength="67" x="761.5" y="245.1436">repositories</text><polygon fill="#181818" points="976.5,277.6973,986.5,281.6973,976.5,285.6973,980.5,281.6973" style="stroke:#181818;stroke-width:1.0;"/><line style="stroke:#181818;stroke-width:1.0;" x1="733.5" x2="982.5" y1="281.6973" y2="281.6973"/><text fill="#000000" font-family="sans-serif" font-size="13" font-weight="bold" lengthAdjust="spacing" textLength="7" x="740.5" y="276.4346">5</text><text fill="#000000" font-family="sans-serif" font-size="13" lengthAdjust="spacing" textLength="160" x="751.5" y="276.4346">getGreenSpaceRepository()</text><polygon fill="#181818" points="744.5,308.9883,734.5,312.9883,744.5,316.9883,740.5,312.9883" style="stroke:#181818;stroke-width:1.0;"/><line style="stroke:#181818;stroke-width:1.0;stroke-dasharray:2.0,2.0;" x1="738.5" x2="992.5" y1="312.9883" y2="312.9883"/><text fill="#000000" font-family="sans-serif" font-size="13" font-weight="bold" lengthAdjust="spacing" textLength="7" x="750.5" y="307.7256">6</text><text fill="#000000" font-family="sans-serif" font-size="13" lengthAdjust="spacing" textLength="131" x="761.5" y="307.7256">greenSpaceRepository</text><polygon fill="#181818" points="1118,340.2793,1128,344.2793,1118,348.2793,1122,344.2793" style="stroke:#181818;stroke-width:1.0;"/><line style="stroke:#181818;stroke-width:1.0;" x1="733.5" x2="1124" y1="344.2793" y2="344.2793"/><text fill="#000000" font-family="sans-serif" font-size="13" font-weight="bold" lengthAdjust="spacing" textLength="7" x="740.5" y="339.0166">7</text><text fill="#000000" font-family="sans-serif" font-size="13" lengthAdjust="spacing" textLength="119" x="751.5" y="339.0166">getGreenSpaceList()</text><polygon fill="#181818" points="744.5,371.5703,734.5,375.5703,744.5,379.5703,740.5,375.5703" style="stroke:#181818;stroke-width:1.0;"/><line style="stroke:#181818;stroke-width:1.0;stroke-dasharray:2.0,2.0;" x1="738.5" x2="1134" y1="375.5703" y2="375.5703"/><text fill="#000000" font-family="sans-serif" font-size="13" font-weight="bold" lengthAdjust="spacing" textLength="7" x="750.5" y="370.3076">8</text><text fill="#000000" font-family="sans-serif" font-size="13" lengthAdjust="spacing" textLength="90" x="761.5" y="370.3076">greenSpaceList</text><polygon fill="#181818" points="398.5,402.8613,388.5,406.8613,398.5,410.8613,394.5,406.8613" style="stroke:#181818;stroke-width:1.0;"/><line style="stroke:#181818;stroke-width:1.0;stroke-dasharray:2.0,2.0;" x1="392.5" x2="727.5" y1="406.8613" y2="406.8613"/><text fill="#000000" font-family="sans-serif" font-size="13" font-weight="bold" lengthAdjust="spacing" textLength="7" x="404.5" y="401.5986">9</text><text fill="#000000" font-family="sans-serif" font-size="13" lengthAdjust="spacing" textLength="90" x="415.5" y="401.5986">greenSpaceList</text><path d="M10,421.8613 L83,421.8613 L83,431.1523 L73,441.1523 L10,441.1523 L10,421.8613 " fill="#EEEEEE" style="stroke:#000000;stroke-width:1.5;"/><rect fill="none" height="106.873" style="stroke:#000000;stroke-width:1.5;" width="457" x="10" y="421.8613"/><text fill="#000000" font-family="sans-serif" font-size="13" font-weight="bold" lengthAdjust="spacing" textLength="28" x="25" y="436.8896">loop</text><text fill="#000000" font-family="sans-serif" font-size="11" font-weight="bold" lengthAdjust="spacing" textLength="189" x="98" y="435.7314">[until doesn't select a valid option]</text><polygon fill="#181818" points="54.5,460.4434,44.5,464.4434,54.5,468.4434,50.5,464.4434" style="stroke:#181818;stroke-width:1.0;"/><line style="stroke:#181818;stroke-width:1.0;stroke-dasharray:2.0,2.0;" x1="48.5" x2="381.5" y1="464.4434" y2="464.4434"/><text fill="#000000" font-family="sans-serif" font-size="13" font-weight="bold" lengthAdjust="spacing" textLength="14" x="60.5" y="459.1807">10</text><text fill="#000000" font-family="sans-serif" font-size="13" lengthAdjust="spacing" textLength="292" x="78.5" y="459.1807">Shows list of green spaces and asks to select one</text><polygon fill="#181818" points="365.5,491.7344,375.5,495.7344,365.5,499.7344,369.5,495.7344" style="stroke:#181818;stroke-width:1.0;"/><line style="stroke:#181818;stroke-width:1.0;" x1="43.5" x2="371.5" y1="495.7344" y2="495.7344"/><text fill="#000000" font-family="sans-serif" font-size="13" font-weight="bold" lengthAdjust="spacing" textLength="14" x="50.5" y="490.4717">11</text><text fill="#000000" font-family="sans-serif" font-size="13" lengthAdjust="spacing" textLength="130" x="68.5" y="490.4717">Selects a green space</text><line style="stroke:#181818;stroke-width:1.0;stroke-dasharray:2.0,2.0;" x1="387.5" x2="429.5" y1="559.0254" y2="559.0254"/><line style="stroke:#181818;stroke-width:1.0;stroke-dasharray:2.0,2.0;" x1="429.5" x2="429.5" y1="559.0254" y2="572.0254"/><line style="stroke:#181818;stroke-width:1.0;stroke-dasharray:2.0,2.0;" x1="388.5" x2="429.5" y1="572.0254" y2="572.0254"/><polygon fill="#181818" points="398.5,568.0254,388.5,572.0254,398.5,576.0254,394.5,572.0254" style="stroke:#181818;stroke-width:1.0;"/><text fill="#000000" font-family="sans-serif" font-size="13" font-weight="bold" lengthAdjust="spacing" textLength="14" x="394.5" y="553.7627">12</text><text fill="#000000" font-family="sans-serif" font-size="13" lengthAdjust="spacing" textLength="130" x="412.5" y="553.7627">keepData(greenspace)</text><path d="M10,587.0254 L83,587.0254 L83,596.3164 L73,606.3164 L10,606.3164 L10,587.0254 " fill="#EEEEEE" style="stroke:#000000;stroke-width:1.5;"/><rect fill="none" height="106.873" style="stroke:#000000;stroke-width:1.5;" width="457" x="10" y="587.0254"/><text fill="#000000" font-family="sans-serif" font-size="13" font-weight="bold" lengthAdjust="spacing" textLength="28" x="25" y="602.0537">loop</text><text fill="#000000" font-family="sans-serif" font-size="11" font-weight="bold" lengthAdjust="spacing" textLength="157" x="98" y="600.8955">[until typed data is validated]</text><polygon fill="#181818" points="54.5,625.6074,44.5,629.6074,54.5,633.6074,50.5,629.6074" style="stroke:#181818;stroke-width:1.0;"/><line style="stroke:#181818;stroke-width:1.0;stroke-dasharray:2.0,2.0;" x1="48.5" x2="381.5" y1="629.6074" y2="629.6074"/><text fill="#000000" font-family="sans-serif" font-size="13" font-weight="bold" lengthAdjust="spacing" textLength="14" x="60.5" y="624.3447">13</text><text fill="#000000" font-family="sans-serif" font-size="13" lengthAdjust="spacing" textLength="230" x="78.5" y="624.3447">Requests data (taskType, taskDuration)</text><polygon fill="#181818" points="365.5,656.8984,375.5,660.8984,365.5,664.8984,369.5,660.8984" style="stroke:#181818;stroke-width:1.0;"/><line style="stroke:#181818;stroke-width:1.0;" x1="43.5" x2="371.5" y1="660.8984" y2="660.8984"/><text fill="#000000" font-family="sans-serif" font-size="13" font-weight="bold" lengthAdjust="spacing" textLength="14" x="50.5" y="655.6357">14</text><text fill="#000000" font-family="sans-serif" font-size="13" lengthAdjust="spacing" textLength="125" x="68.5" y="655.6357">Types requested data</text><line style="stroke:#181818;stroke-width:1.0;stroke-dasharray:2.0,2.0;" x1="387.5" x2="429.5" y1="741.4805" y2="741.4805"/><line style="stroke:#181818;stroke-width:1.0;stroke-dasharray:2.0,2.0;" x1="429.5" x2="429.5" y1="741.4805" y2="754.4805"/><line style="stroke:#181818;stroke-width:1.0;stroke-dasharray:2.0,2.0;" x1="388.5" x2="429.5" y1="754.4805" y2="754.4805"/><polygon fill="#181818" points="398.5,750.4805,388.5,754.4805,398.5,758.4805,394.5,754.4805" style="stroke:#181818;stroke-width:1.0;"/><text fill="#000000" font-family="sans-serif" font-size="13" font-weight="bold" lengthAdjust="spacing" textLength="14" x="394.5" y="727.5723">15</text><text fill="#000000" font-family="sans-serif" font-size="13" lengthAdjust="spacing" textLength="116" x="412.5" y="718.9268">keepData(taskType,</text><text fill="#000000" font-family="sans-serif" font-size="13" lengthAdjust="spacing" textLength="77" x="412.5" y="736.2178">taskDuration)</text><polygon fill="#181818" points="54.5,806.7715,44.5,810.7715,54.5,814.7715,50.5,810.7715" style="stroke:#181818;stroke-width:1.0;"/><line style="stroke:#181818;stroke-width:1.0;stroke-dasharray:2.0,2.0;" x1="48.5" x2="381.5" y1="810.7715" y2="810.7715"/><text fill="#000000" font-family="sans-serif" font-size="13" font-weight="bold" lengthAdjust="spacing" textLength="14" x="60.5" y="805.5088">16</text><text fill="#000000" font-family="sans-serif" font-size="13" lengthAdjust="spacing" textLength="238" x="78.5" y="805.5088">Shows all data and requests confirmation</text><polygon fill="#181818" points="365.5,838.0625,375.5,842.0625,365.5,846.0625,369.5,842.0625" style="stroke:#181818;stroke-width:1.0;"/><line style="stroke:#181818;stroke-width:1.0;" x1="43.5" x2="371.5" y1="842.0625" y2="842.0625"/><text fill="#000000" font-family="sans-serif" font-size="13" font-weight="bold" lengthAdjust="spacing" textLength="14" x="50.5" y="836.7998">17</text><text fill="#000000" font-family="sans-serif" font-size="13" lengthAdjust="spacing" textLength="80" x="68.5" y="836.7998">Confirms data</text><polygon fill="#181818" points="711.5,869.3535,721.5,873.3535,711.5,877.3535,715.5,873.3535" style="stroke:#181818;stroke-width:1.0;"/><line style="stroke:#181818;stroke-width:1.0;" x1="387.5" x2="717.5" y1="873.3535" y2="873.3535"/><text fill="#000000" font-family="sans-serif" font-size="13" font-weight="bold" lengthAdjust="spacing" textLength="14" x="394.5" y="868.0908">18</text><text fill="#000000" font-family="sans-serif" font-size="13" lengthAdjust="spacing" textLength="299" x="412.5" y="868.0908">createNewTask(taskType, taskDuration, greespace)</text><polygon fill="#181818" points="1118,900.6445,1128,904.6445,1118,908.6445,1122,904.6445" style="stroke:#181818;stroke-width:1.0;"/><line style="stroke:#181818;stroke-width:1.0;" x1="733.5" x2="1124" y1="904.6445" y2="904.6445"/><text fill="#000000" font-family="sans-serif" font-size="13" font-weight="bold" lengthAdjust="spacing" textLength="14" x="740.5" y="899.3818">19</text><text fill="#000000" font-family="sans-serif" font-size="13" lengthAdjust="spacing" textLength="299" x="758.5" y="899.3818">createNewTask(taskType, taskDuration, greespace)</text><polygon fill="#181818" points="1448,931.9355,1458,935.9355,1448,939.9355,1452,935.9355" style="stroke:#181818;stroke-width:1.0;"/><line style="stroke:#181818;stroke-width:1.0;" x1="1140" x2="1454" y1="935.9355" y2="935.9355"/><text fill="#000000" font-family="sans-serif" font-size="13" font-weight="bold" lengthAdjust="spacing" textLength="14" x="1147" y="930.6729">20</text><text fill="#000000" font-family="sans-serif" font-size="13" lengthAdjust="spacing" textLength="278" x="1165" y="930.6729">new Task (taskType, taskDuration, greenSpace)</text><rect fill="#E3E3E3" height="32.6211" rx="2.5" ry="2.5" style="stroke:#181818;stroke-width:0.5;" width="49" x="1460" y="912.6445"/><text fill="#000000" font-family="sans-serif" font-size="14" lengthAdjust="spacing" textLength="35" x="1467" y="934.752">:Task</text><line style="stroke:#181818;stroke-width:1.0;stroke-dasharray:2.0,2.0;" x1="1484.5" x2="1526.5" y1="979.5566" y2="979.5566"/><line style="stroke:#181818;stroke-width:1.0;stroke-dasharray:2.0,2.0;" x1="1526.5" x2="1526.5" y1="979.5566" y2="992.5566"/><line style="stroke:#181818;stroke-width:1.0;stroke-dasharray:2.0,2.0;" x1="1485.5" x2="1526.5" y1="992.5566" y2="992.5566"/><polygon fill="#181818" points="1495.5,988.5566,1485.5,992.5566,1495.5,996.5566,1491.5,992.5566" style="stroke:#181818;stroke-width:1.0;"/><text fill="#000000" font-family="sans-serif" font-size="13" font-weight="bold" lengthAdjust="spacing" textLength="14" x="1491.5" y="974.2939">21</text><text fill="#000000" font-family="sans-serif" font-size="13" lengthAdjust="spacing" textLength="160" x="1509.5" y="974.2939">validateTaskType(taskType)</text><line style="stroke:#181818;stroke-width:1.0;stroke-dasharray:2.0,2.0;" x1="1484.5" x2="1526.5" y1="1023.8477" y2="1023.8477"/><line style="stroke:#181818;stroke-width:1.0;stroke-dasharray:2.0,2.0;" x1="1526.5" x2="1526.5" y1="1023.8477" y2="1036.8477"/><line style="stroke:#181818;stroke-width:1.0;stroke-dasharray:2.0,2.0;" x1="1485.5" x2="1526.5" y1="1036.8477" y2="1036.8477"/><polygon fill="#181818" points="1495.5,1032.8477,1485.5,1036.8477,1495.5,1040.8477,1491.5,1036.8477" style="stroke:#181818;stroke-width:1.0;"/><text fill="#000000" font-family="sans-serif" font-size="13" font-weight="bold" lengthAdjust="spacing" textLength="14" x="1491.5" y="1018.585">22</text><text fill="#000000" font-family="sans-serif" font-size="13" lengthAdjust="spacing" textLength="200" x="1509.5" y="1018.585">validateTaskDuration(taskDuration)</text><line style="stroke:#181818;stroke-width:1.0;stroke-dasharray:2.0,2.0;" x1="1140" x2="1182" y1="1068.1387" y2="1068.1387"/><line style="stroke:#181818;stroke-width:1.0;stroke-dasharray:2.0,2.0;" x1="1182" x2="1182" y1="1068.1387" y2="1081.1387"/><line style="stroke:#181818;stroke-width:1.0;stroke-dasharray:2.0,2.0;" x1="1141" x2="1182" y1="1081.1387" y2="1081.1387"/><polygon fill="#181818" points="1151,1077.1387,1141,1081.1387,1151,1085.1387,1147,1081.1387" style="stroke:#181818;stroke-width:1.0;"/><text fill="#000000" font-family="sans-serif" font-size="13" font-weight="bold" lengthAdjust="spacing" textLength="14" x="1147" y="1062.876">23</text><text fill="#000000" font-family="sans-serif" font-size="13" lengthAdjust="spacing" textLength="104" x="1165" y="1062.876">validateTask(task)</text><line style="stroke:#181818;stroke-width:1.0;stroke-dasharray:2.0,2.0;" x1="1140" x2="1182" y1="1112.4297" y2="1112.4297"/><line style="stroke:#181818;stroke-width:1.0;stroke-dasharray:2.0,2.0;" x1="1182" x2="1182" y1="1112.4297" y2="1125.4297"/><line style="stroke:#181818;stroke-width:1.0;stroke-dasharray:2.0,2.0;" x1="1141" x2="1182" y1="1125.4297" y2="1125.4297"/><polygon fill="#181818" points="1151,1121.4297,1141,1125.4297,1151,1129.4297,1147,1125.4297" style="stroke:#181818;stroke-width:1.0;"/><text fill="#000000" font-family="sans-serif" font-size="13" font-weight="bold" lengthAdjust="spacing" textLength="14" x="1147" y="1107.167">24</text><text fill="#000000" font-family="sans-serif" font-size="13" lengthAdjust="spacing" textLength="82" x="1165" y="1107.167">addTask(task)</text><polygon fill="#181818" points="744.5,1152.7207,734.5,1156.7207,744.5,1160.7207,740.5,1156.7207" style="stroke:#181818;stroke-width:1.0;"/><line style="stroke:#181818;stroke-width:1.0;stroke-dasharray:2.0,2.0;" x1="738.5" x2="1134" y1="1156.7207" y2="1156.7207"/><text fill="#000000" font-family="sans-serif" font-size="13" font-weight="bold" lengthAdjust="spacing" textLength="14" x="750.5" y="1151.458">25</text><text fill="#000000" font-family="sans-serif" font-size="13" lengthAdjust="spacing" textLength="106" x="768.5" y="1151.458">operation success</text><polygon fill="#181818" points="398.5,1184.0117,388.5,1188.0117,398.5,1192.0117,394.5,1188.0117" style="stroke:#181818;stroke-width:1.0;"/><line style="stroke:#181818;stroke-width:1.0;stroke-dasharray:2.0,2.0;" x1="392.5" x2="727.5" y1="1188.0117" y2="1188.0117"/><text fill="#000000" font-family="sans-serif" font-size="13" font-weight="bold" lengthAdjust="spacing" textLength="14" x="404.5" y="1182.749">26</text><text fill="#000000" font-family="sans-serif" font-size="13" lengthAdjust="spacing" textLength="106" x="422.5" y="1182.749">operation success</text><polygon fill="#181818" points="54.5,1215.3027,44.5,1219.3027,54.5,1223.3027,50.5,1219.3027" style="stroke:#181818;stroke-width:1.0;"/><line style="stroke:#181818;stroke-width:1.0;stroke-dasharray:2.0,2.0;" x1="48.5" x2="381.5" y1="1219.3027" y2="1219.3027"/><text fill="#000000" font-family="sans-serif" font-size="13" font-weight="bold" lengthAdjust="spacing" textLength="14" x="60.5" y="1214.04">27</text><text fill="#000000" font-family="sans-serif" font-size="13" lengthAdjust="spacing" textLength="160" x="78.5" y="1214.04">Displays operation success</text><!--SRC=[dLNBRjim4BppAnQvr2vYeEtHXm1170G1qWSivvOBAsqSmZAfabGC0_duBYbH9lLma_9YcToPdHskLcOdPCKrtyDUIPM_QBL7iBf6PhgJYkSxliNC7ai4ZRdbSbl60UQ55-eWv1QUUMcGCIiiXJvcNxvzXGLa-AT6cIEi1DzIF6EyjahM-z-ewJctIiF5NVRz0hW1-cN4QaKkAYujN2olY-877cwbrSUDMgd7Un_tU7y-x4RHaofBr3xyPhD-w07MM2aZABb0usFMjxz-fZ4w2dcIuuXxQSYG75FaLYFAZ9p33dGaXhkHxQRiqy50nNB3pSv7kGVlc7Zb5hrN36ZH0ooko1DOmhNP6R0AU5401ua7GES9A0aRjLWfU136UbJ7Grxw3S8JYxEAUBPeJw8SPZPFKTvIl-MMHn7QoM_GmPWMbs1zaTssMnwtEAMFhUy22qmPnfA7jBqAJdwJdd51tKqEX8MJME3O3Ky97J87nUczdx4zKTlhbd3U8niLszr-JsQFCgn6P-Yj4Pg8eca8lrigLK4jhIYXK6Za9mi6IneTr9All1G5gCeA9HEdmt9jwAoXfbv2zg8E1afA1-gv4G36AJ309NLus-qjkv8ue8mKXaQFL_pkP9w5cED4GqZCrpzxUtiRxA4iKfAsGfzpXrYjkEKpdz9dd0zTjCSA2oWe3eHfB2G14MrYsjfDN4E5UC3CaaiR8hW4zxIgDNVUpzc4Ex4Z3cRePVHyhGB6nanmXRD1jQELTdgUv51GnyNUqHUyB9iQNI_eK7MkvBFGUq_AqWBxzTqqeMQYiE5Op3NI6Nrft2oUSFRIjqzxbU-OcOCXyE4a_nmHYPdzEN7bFooVFrDczxrmV-1irWOyJrazRD6I4LLeqarBr35-01VIpj8-ELlDcA4nf-Vw3mxwe7u0thQBgh0H3QREQMWPDZ6Q9aRwgKr2nxwRqVVQwBkp4gOg-T5CSALlp5y0]--></g></svg>