<?xml version="1.0" encoding="us-ascii" standalone="no"?><svg xmlns="http://www.w3.org/2000/svg" xmlns:xlink="http://www.w3.org/1999/xlink" contentStyleType="text/css" height="695px" preserveAspectRatio="none" style="width:468px;height:695px;background:#FFFFFF;" version="1.1" viewBox="0 0 468 695" width="468px" zoomAndPan="magnify"><defs/><g><!--class AddNewEntryToDoUI--><g id="elem_AddNewEntryToDoUI"><rect codeLine="9" fill="#F1F1F1" height="674.4961" id="AddNewEntryToDoUI" rx="2.5" ry="2.5" style="stroke:#181818;stroke-width:0.5;" width="447" x="7" y="7"/><ellipse cx="160.75" cy="23" fill="#ADD1B2" rx="11" ry="11" style="stroke:#181818;stroke-width:1.0;"/><path d="M163.5156,18.875 Q163.6719,18.6563 163.8594,18.5469 Q164.0469,18.4375 164.2656,18.4375 Q164.6406,18.4375 164.875,18.7031 Q165.1094,18.9531 165.1094,19.5625 L165.1094,21.0156 Q165.1094,21.625 164.875,21.8906 Q164.6406,22.1563 164.2656,22.1563 Q163.9219,22.1563 163.7188,21.9531 Q163.5156,21.7656 163.4063,21.25 Q163.3594,20.8906 163.1719,20.7031 Q162.8438,20.3281 162.2344,20.1094 Q161.625,19.8906 161,19.8906 Q160.2344,19.8906 159.5938,20.2188 Q158.9688,20.5469 158.4688,21.2969 Q157.9844,22.0469 157.9844,23.0781 L157.9844,24.1719 Q157.9844,25.4063 158.875,26.2344 Q159.7656,27.0469 161.3594,27.0469 Q162.2969,27.0469 162.9531,26.7969 Q163.3438,26.6406 163.7656,26.2031 Q164.0313,25.9375 164.1719,25.8594 Q164.3281,25.7813 164.5313,25.7813 Q164.8594,25.7813 165.1094,26.0469 Q165.375,26.2969 165.375,26.6406 Q165.375,26.9844 165.0313,27.3906 Q164.5313,27.9688 163.7344,28.2969 Q162.6563,28.75 161.3594,28.75 Q159.8438,28.75 158.6406,28.125 Q157.6563,27.625 156.9688,26.5625 Q156.2813,25.4844 156.2813,24.2031 L156.2813,23.0469 Q156.2813,21.7188 156.8906,20.5781 Q157.5156,19.4219 158.6094,18.8125 Q159.7031,18.1875 160.9375,18.1875 Q161.6719,18.1875 162.3125,18.3594 Q162.9688,18.5156 163.5156,18.875 Z " fill="#000000"/><text fill="#000000" font-family="sans-serif" font-size="14" lengthAdjust="spacing" textLength="131" x="181.25" y="28.7969">AddNewEntryToDoUI</text><line style="stroke:#181818;stroke-width:0.5;" x1="8" x2="453" y1="39" y2="39"/><text fill="#000000" font-family="sans-serif" font-size="14" lengthAdjust="spacing" textLength="68" x="13" y="58.1074">-String title</text><text fill="#000000" font-family="sans-serif" font-size="14" lengthAdjust="spacing" textLength="115" x="13" y="76.7285">-String description</text><text fill="#000000" font-family="sans-serif" font-size="14" lengthAdjust="spacing" textLength="130" x="13" y="95.3496">-TaskType taskType</text><text fill="#000000" font-family="sans-serif" font-size="14" lengthAdjust="spacing" textLength="159" x="13" y="113.9707">-String greenSpaceName</text><text fill="#000000" font-family="sans-serif" font-size="14" lengthAdjust="spacing" textLength="144" x="13" y="132.5918">-UrgencyType urgency</text><text fill="#000000" font-family="sans-serif" font-size="14" lengthAdjust="spacing" textLength="54" x="13" y="151.2129">-int days</text><text fill="#000000" font-family="sans-serif" font-size="14" lengthAdjust="spacing" textLength="60" x="13" y="169.834">-int hours</text><text fill="#000000" font-family="sans-serif" font-size="14" lengthAdjust="spacing" textLength="73" x="13" y="188.4551">-int minutes</text><text fill="#000000" font-family="sans-serif" font-size="14" lengthAdjust="spacing" textLength="4" x="13" y="207.0762">&#160;</text><text fill="#000000" font-family="sans-serif" font-size="14" lengthAdjust="spacing" textLength="149" x="13" y="248.3184">+AddNewEntryToDoUI()</text><text fill="#000000" font-family="sans-serif" font-size="14" lengthAdjust="spacing" textLength="191" x="13" y="266.9395">+initialize(url, resourceBundle)</text><line style="stroke:#181818;stroke-width:1.0;" x1="8" x2="203.5" y1="223.9004" y2="223.9004"/><text fill="#000000" font-family="sans-serif" font-size="14" lengthAdjust="spacing" textLength="54" x="203.5" y="229.1973">Methods</text><line style="stroke:#181818;stroke-width:1.0;" x1="257.5" x2="453" y1="223.9004" y2="223.9004"/><text fill="#000000" font-family="sans-serif" font-size="14" lengthAdjust="spacing" textLength="159" x="13" y="308.1816">-fillTaskTypeComboBox()</text><text fill="#000000" font-family="sans-serif" font-size="14" lengthAdjust="spacing" textLength="148" x="13" y="326.8027">-fillUrgencyComboBox()</text><text fill="#000000" font-family="sans-serif" font-size="14" lengthAdjust="spacing" textLength="176" x="13" y="345.4238">-fillGreenSpaceComboBox()</text><line style="stroke:#181818;stroke-width:1.0;stroke-dasharray:1.0,2.0;" x1="8" x2="192.5" y1="283.7637" y2="283.7637"/><text fill="#000000" font-family="sans-serif" font-size="14" lengthAdjust="spacing" textLength="76" x="192.5" y="289.0605">Fill methods</text><line style="stroke:#181818;stroke-width:1.0;stroke-dasharray:1.0,2.0;" x1="268.5" x2="453" y1="283.7637" y2="283.7637"/><text fill="#000000" font-family="sans-serif" font-size="14" lengthAdjust="spacing" textLength="81" x="13" y="386.666">+btnSubmit()</text><text fill="#000000" font-family="sans-serif" font-size="14" lengthAdjust="spacing" textLength="72" x="13" y="405.2871">+btnClear()</text><line style="stroke:#181818;stroke-width:1.0;stroke-dasharray:1.0,2.0;" x1="8" x2="181" y1="362.248" y2="362.248"/><text fill="#000000" font-family="sans-serif" font-size="14" lengthAdjust="spacing" textLength="99" x="181" y="367.5449">Button methods</text><line style="stroke:#181818;stroke-width:1.0;stroke-dasharray:1.0,2.0;" x1="280" x2="453" y1="362.248" y2="362.248"/><text fill="#000000" font-family="sans-serif" font-size="14" lengthAdjust="spacing" textLength="117" x="13" y="446.5293">-validateAllInputs()</text><text fill="#000000" font-family="sans-serif" font-size="14" lengthAdjust="spacing" textLength="91" x="13" y="465.1504">-validateTitle()</text><text fill="#000000" font-family="sans-serif" font-size="14" lengthAdjust="spacing" textLength="202" x="13" y="483.7715">-validateGreenSpaceSelection()</text><text fill="#000000" font-family="sans-serif" font-size="14" lengthAdjust="spacing" textLength="154" x="13" y="502.3926">-validateTypeSelection()</text><text fill="#000000" font-family="sans-serif" font-size="14" lengthAdjust="spacing" textLength="174" x="13" y="521.0137">-validateUrgencySelection()</text><text fill="#000000" font-family="sans-serif" font-size="14" lengthAdjust="spacing" textLength="135" x="13" y="539.6348">-validateDescription()</text><text fill="#000000" font-family="sans-serif" font-size="14" lengthAdjust="spacing" textLength="176" x="13" y="558.2559">-validateExpectedDuration()</text><line style="stroke:#181818;stroke-width:1.0;stroke-dasharray:1.0,2.0;" x1="8" x2="170.5" y1="422.1113" y2="422.1113"/><text fill="#000000" font-family="sans-serif" font-size="14" lengthAdjust="spacing" textLength="120" x="170.5" y="427.4082">Validation methods</text><line style="stroke:#181818;stroke-width:1.0;stroke-dasharray:1.0,2.0;" x1="290.5" x2="453" y1="422.1113" y2="422.1113"/><text fill="#000000" font-family="sans-serif" font-size="14" lengthAdjust="spacing" textLength="233" x="13" y="599.498">-getConfirmationText(toDoTaskDTO)</text><text fill="#000000" font-family="sans-serif" font-size="14" lengthAdjust="spacing" textLength="435" x="13" y="618.1191">-displayErrorLayout(controlObject, labelToShowError, errorMessage)</text><text fill="#000000" font-family="sans-serif" font-size="14" lengthAdjust="spacing" textLength="310" x="13" y="636.7402">-clearLayoutErrors(controlObject, labelWithError)</text><text fill="#000000" font-family="sans-serif" font-size="14" lengthAdjust="spacing" textLength="84" x="13" y="655.3613">-clearFields()</text><text fill="#000000" font-family="sans-serif" font-size="14" lengthAdjust="spacing" textLength="4" x="13" y="673.9824">&#160;</text><line style="stroke:#181818;stroke-width:1.0;stroke-dasharray:1.0,2.0;" x1="8" x2="178.5" y1="575.0801" y2="575.0801"/><text fill="#000000" font-family="sans-serif" font-size="14" lengthAdjust="spacing" textLength="104" x="178.5" y="580.377">UI tools methods</text><line style="stroke:#181818;stroke-width:1.0;stroke-dasharray:1.0,2.0;" x1="282.5" x2="453" y1="575.0801" y2="575.0801"/></g><!--SRC=[TPF9Sjim38RlUWhUuaviJLx1MpgUoNAGqfuf4PPOGuI616khdRvxgSMs73cwYCI77mj1FhY3DhMqiX8L6SfBInK8jXwYAwbbVf059DmW20ivIrFWsC6LKj5HcqBi9RenGMs0cnf4JTYqc-ZX3YJB58rKEKhdbinMPvvXbvD9z1yGJr7K4R5KwWsEMyEsIMb37plnDnBXMuWaQ48Ph3aKU6DIu7AhQzPa1f1ATqZRz3miRWM51J19w1tUP7Lc7xO0apUTpFVhWMZ3Gid6ZRObUJlULzg4TbpKcnQlm2KfjrXq-yTfLxDl0z56ivOOpc3cBSx335m8dSFA6uNGUyNniqOKLHyqZeUy-s0yDxgcAgCLdOQuFHmwkik-NuxW4uxZbMScyodTeyZO93whD5zg3vOrWhGNvO_GY9Bj72R5_kuHB15tflRiBjMSITeETcAzrfa0XliPOa-LuG2-fiCfVEsmkLwV2TkUwg02jV5MZXpYE5nC9a8tQRG0NfFPQrjrWXHEFECmytPIc_Jzd41fLwDijjQIVP4DUPw5jy2My3tx5LBE1SeCCAMaf6FdDHVG_bx1kV1Ypt7oTW1zWCxBtGtpKtFPuHlPimPKxI2YVz5_]--></g></svg>