<?xml version="1.0" encoding="us-ascii" standalone="no"?><svg xmlns="http://www.w3.org/2000/svg" xmlns:xlink="http://www.w3.org/1999/xlink" contentStyleType="text/css" height="477px" preserveAspectRatio="none" style="width:688px;height:477px;background:#FFFFFF;" version="1.1" viewBox="0 0 688 477" width="688px" zoomAndPan="magnify"><defs/><g><text fill="#000000" font-family="sans-serif" font-size="14" font-weight="bold" lengthAdjust="spacing" textLength="284" x="204" y="30.1074">US008 - System Sequence Diagram (SSD)</text><rect fill="#FFFFFF" height="252.2012" style="stroke:#181818;stroke-width:1.0;" width="10" x="49" y="133.2422"/><rect fill="#FFFFFF" height="173.6826" style="stroke:#181818;stroke-width:1.0;" width="10" x="412" y="156.5332"/><line style="stroke:#181818;stroke-width:0.5;stroke-dasharray:5.0,5.0;" x1="54" x2="54" y1="123.2422" y2="394.4434"/><line style="stroke:#181818;stroke-width:0.5;stroke-dasharray:5.0,5.0;" x1="416.5" x2="416.5" y1="123.2422" y2="394.4434"/><text fill="#000000" font-family="sans-serif" font-size="14" lengthAdjust="spacing" textLength="92" x="5" y="119.7285">Fleet Manager</text><ellipse cx="54" cy="53.1211" fill="#E3E3E3" rx="8" ry="8" style="stroke:#181818;stroke-width:0.5;"/><path d="M54,61.1211 L54,88.1211 M41,69.1211 L67,69.1211 M54,88.1211 L41,103.1211 M54,88.1211 L67,103.1211 " fill="none" style="stroke:#181818;stroke-width:0.5;"/><text fill="#000000" font-family="sans-serif" font-size="14" lengthAdjust="spacing" textLength="92" x="5" y="408.5508">Fleet Manager</text><ellipse cx="54" cy="420.5645" fill="#E3E3E3" rx="8" ry="8" style="stroke:#181818;stroke-width:0.5;"/><path d="M54,428.5645 L54,455.5645 M41,436.5645 L67,436.5645 M54,455.5645 L41,470.5645 M54,455.5645 L67,470.5645 " fill="none" style="stroke:#181818;stroke-width:0.5;"/><rect fill="#E3E3E3" height="32.6211" rx="2.5" ry="2.5" style="stroke:#181818;stroke-width:0.5;" width="119" x="357.5" y="89.6211"/><text fill="#000000" font-family="sans-serif" font-size="14" lengthAdjust="spacing" textLength="105" x="364.5" y="111.7285">:NeedCheckupUI</text><rect fill="#E3E3E3" height="32.6211" rx="2.5" ry="2.5" style="stroke:#181818;stroke-width:0.5;" width="119" x="357.5" y="393.4434"/><text fill="#000000" font-family="sans-serif" font-size="14" lengthAdjust="spacing" textLength="105" x="364.5" y="415.5508">:NeedCheckupUI</text><rect fill="#FFFFFF" height="252.2012" style="stroke:#181818;stroke-width:1.0;" width="10" x="49" y="133.2422"/><rect fill="#FFFFFF" height="173.6826" style="stroke:#181818;stroke-width:1.0;" width="10" x="412" y="156.5332"/><polygon fill="#181818" points="400,152.5332,410,156.5332,400,160.5332,404,156.5332" style="stroke:#181818;stroke-width:1.0;"/><line style="stroke:#181818;stroke-width:1.0;" x1="59" x2="406" y1="156.5332" y2="156.5332"/><text fill="#000000" font-family="sans-serif" font-size="13" font-weight="bold" lengthAdjust="spacing" textLength="7" x="66" y="151.2705">1</text><text fill="#000000" font-family="sans-serif" font-size="13" lengthAdjust="spacing" textLength="323" x="77" y="151.2705">Requests to show the list of vehicles needing inspection</text><line style="stroke:#181818;stroke-width:1.0;" x1="422" x2="464" y1="222.4063" y2="222.4063"/><line style="stroke:#181818;stroke-width:1.0;" x1="464" x2="464" y1="222.4063" y2="235.4063"/><line style="stroke:#181818;stroke-width:1.0;" x1="423" x2="464" y1="235.4063" y2="235.4063"/><polygon fill="#181818" points="433,231.4063,423,235.4063,433,239.4063,429,235.4063" style="stroke:#181818;stroke-width:1.0;"/><text fill="#000000" font-family="sans-serif" font-size="13" font-weight="bold" lengthAdjust="spacing" textLength="7" x="429" y="199.8525">2</text><text fill="#000000" font-family="sans-serif" font-size="13" lengthAdjust="spacing" textLength="237" x="440" y="182.5615">Determine vehicles that needs inspection</text><text fill="#000000" font-family="sans-serif" font-size="13" lengthAdjust="spacing" textLength="236" x="440" y="199.8525">based on the formulas/criteria and gather</text><text fill="#000000" font-family="sans-serif" font-size="13" lengthAdjust="spacing" textLength="142" x="440" y="217.1436">details of those vehicles.</text><polygon fill="#181818" points="70,326.2158,60,330.2158,70,334.2158,66,330.2158" style="stroke:#181818;stroke-width:1.0;"/><line style="stroke:#181818;stroke-width:1.0;" x1="64" x2="416" y1="330.2158" y2="330.2158"/><text fill="#000000" font-family="sans-serif" font-size="13" font-weight="bold" lengthAdjust="spacing" textLength="7" x="76" y="316.3076">3</text><text fill="#000000" font-family="sans-serif" font-size="13" lengthAdjust="spacing" textLength="279" x="87" y="307.6621">Shows the list of vehicles needing check-up with</text><text fill="#000000" font-family="sans-serif" font-size="13" lengthAdjust="spacing" textLength="193" x="87" y="324.9531">vehicle details and the data used.</text><path d="M427,248.4063 L427,379.4063 L675,379.4063 L675,258.4063 L665,248.4063 L427,248.4063 " fill="#FAFAFA" style="stroke:#181818;stroke-width:0.5;"/><path d="M665,248.4063 L665,258.4063 L675,258.4063 L665,248.4063 " fill="#FAFAFA" style="stroke:#181818;stroke-width:0.5;"/><text fill="#000000" font-family="sans-serif" font-size="13" font-weight="bold" lengthAdjust="spacing" textLength="58" x="433" y="267.4346">(3) NOTE:</text><ellipse cx="438.5" cy="280.4883" fill="#000000" rx="2.5" ry="2.5" style="stroke:#000000;stroke-width:0.0;"/><text fill="#000000" font-family="sans-serif" font-size="13" font-weight="bold" lengthAdjust="spacing" textLength="98" x="445" y="284.7256">Vehicle details:</text><text fill="#000000" font-family="sans-serif" font-size="13" lengthAdjust="spacing" textLength="199" x="433" y="302.0166">Plate, brand, model, last check-up</text><text fill="#000000" font-family="sans-serif" font-size="13" lengthAdjust="spacing" textLength="4" x="433" y="319.3076">&#160;</text><ellipse cx="438.5" cy="332.3613" fill="#000000" rx="2.5" ry="2.5" style="stroke:#000000;stroke-width:0.0;"/><text fill="#000000" font-family="sans-serif" font-size="13" font-weight="bold" lengthAdjust="spacing" textLength="190" x="445" y="336.5986">Data used to generate the list:</text><text fill="#000000" font-family="sans-serif" font-size="13" lengthAdjust="spacing" textLength="227" x="433" y="353.8896">Current kilometers, check-up frequency</text><text fill="#000000" font-family="sans-serif" font-size="13" lengthAdjust="spacing" textLength="110" x="433" y="371.1807">last check-up done</text><!--SRC=[VP9FRzim3CNl-XH4JgsHR0Ls6NBOfUc07TODyxhJBepCM4HaoPEe1ldsezmuIR4_EaaMzNxlqSnx3YCc76288LgNua0WgP39vviHxHvxQkNe2H9PmT3xwuBii8i73Ztiq6SoHbYqzAczktiFAsYFMMY0bduL2fPWmzZNPpTjkxar1el4K8Oj9TrRYGaM7psHm6SCYaqBm0mFm-ZZaSWeKTZoY45WiNuawkuTsNqPdpvDXI-mIOcVKUZoqe2k-GIh3xElDNohph9aaAXPuW744NZE0d47p-JOUieGb5KpSiYZDe5Zc1JFe9aCftMIlmPjI2WD7EYYAWvbaivNml0pR35J1xgjNdOn3SLZVciJgm8ZOEYWHxrBMjkH8FjStOgB-QB-vczkpYrOGwjXy__JsjhTLHdXmEAKTIg0cLcDL84E1Q6evnEpepyQ4w8U4lTEJDFSlBk5no_V7zPDOnfecX-lTUldhrvVBs6RbB7K-Up8Bq6x86TJPdgwcT7r__KKA5NgdAegtPUKI0TcprxdMpkObvTWk_Goc4VpIXkw6CYGngk-_nNgDm00]--></g></svg>