<?xml version="1.0" encoding="us-ascii" standalone="no"?><svg xmlns="http://www.w3.org/2000/svg" xmlns:xlink="http://www.w3.org/1999/xlink" contentStyleType="text/css" height="442px" preserveAspectRatio="none" style="width:706px;height:442px;background:#FFFFFF;" version="1.1" viewBox="0 0 706 442" width="706px" zoomAndPan="magnify"><defs/><g><text fill="#000000" font-family="sans-serif" font-size="14" font-weight="bold" lengthAdjust="spacing" textLength="284" x="212" y="30.1074">US008 - System Sequence Diagram (SSD)</text><rect fill="#FFFFFF" height="217.6191" style="stroke:#181818;stroke-width:1.0;" width="10" x="49" y="133.2422"/><rect fill="#FFFFFF" height="147.7461" style="stroke:#181818;stroke-width:1.0;" width="10" x="413" y="156.5332"/><line style="stroke:#181818;stroke-width:0.5;stroke-dasharray:5.0,5.0;" x1="54" x2="54" y1="123.2422" y2="359.8613"/><line style="stroke:#181818;stroke-width:0.5;stroke-dasharray:5.0,5.0;" x1="418" x2="418" y1="123.2422" y2="359.8613"/><text fill="#000000" font-family="sans-serif" font-size="14" lengthAdjust="spacing" textLength="92" x="5" y="119.7285">Fleet Manager</text><ellipse cx="54" cy="53.1211" fill="#E3E3E3" rx="8" ry="8" style="stroke:#181818;stroke-width:0.5;"/><path d="M54,61.1211 L54,88.1211 M41,69.1211 L67,69.1211 M54,88.1211 L41,103.1211 M54,88.1211 L67,103.1211 " fill="none" style="stroke:#181818;stroke-width:0.5;"/><text fill="#000000" font-family="sans-serif" font-size="14" lengthAdjust="spacing" textLength="92" x="5" y="373.9688">Fleet Manager</text><ellipse cx="54" cy="385.9824" fill="#E3E3E3" rx="8" ry="8" style="stroke:#181818;stroke-width:0.5;"/><path d="M54,393.9824 L54,420.9824 M41,401.9824 L67,401.9824 M54,420.9824 L41,435.9824 M54,420.9824 L67,435.9824 " fill="none" style="stroke:#181818;stroke-width:0.5;"/><rect fill="#E3E3E3" height="32.6211" rx="2.5" ry="2.5" style="stroke:#181818;stroke-width:0.5;" width="64" x="386" y="89.6211"/><text fill="#000000" font-family="sans-serif" font-size="14" lengthAdjust="spacing" textLength="50" x="393" y="111.7285">:System</text><rect fill="#E3E3E3" height="32.6211" rx="2.5" ry="2.5" style="stroke:#181818;stroke-width:0.5;" width="64" x="386" y="358.8613"/><text fill="#000000" font-family="sans-serif" font-size="14" lengthAdjust="spacing" textLength="50" x="393" y="380.9688">:System</text><rect fill="#FFFFFF" height="217.6191" style="stroke:#181818;stroke-width:1.0;" width="10" x="49" y="133.2422"/><rect fill="#FFFFFF" height="147.7461" style="stroke:#181818;stroke-width:1.0;" width="10" x="413" y="156.5332"/><polygon fill="#181818" points="401,152.5332,411,156.5332,401,160.5332,405,156.5332" style="stroke:#181818;stroke-width:1.0;"/><line style="stroke:#181818;stroke-width:1.0;" x1="59" x2="407" y1="156.5332" y2="156.5332"/><text fill="#000000" font-family="sans-serif" font-size="13" font-weight="bold" lengthAdjust="spacing" textLength="7" x="66" y="151.2705">1</text><text fill="#000000" font-family="sans-serif" font-size="13" lengthAdjust="spacing" textLength="323" x="77" y="151.2705">Requests to show the list of vehicles needing inspection</text><line style="stroke:#181818;stroke-width:1.0;" x1="423" x2="465" y1="205.1152" y2="205.1152"/><line style="stroke:#181818;stroke-width:1.0;" x1="465" x2="465" y1="205.1152" y2="218.1152"/><line style="stroke:#181818;stroke-width:1.0;" x1="424" x2="465" y1="218.1152" y2="218.1152"/><polygon fill="#181818" points="434,214.1152,424,218.1152,434,222.1152,430,218.1152" style="stroke:#181818;stroke-width:1.0;"/><text fill="#000000" font-family="sans-serif" font-size="13" font-weight="bold" lengthAdjust="spacing" textLength="7" x="430" y="191.207">2</text><text fill="#000000" font-family="sans-serif" font-size="13" lengthAdjust="spacing" textLength="221" x="441" y="182.5615">Determine vehicles needing inspection</text><text fill="#000000" font-family="sans-serif" font-size="13" lengthAdjust="spacing" textLength="196" x="441" y="199.8525">and gather details of each vehicle.</text><polygon fill="#181818" points="70,300.2793,60,304.2793,70,308.2793,66,304.2793" style="stroke:#181818;stroke-width:1.0;"/><line style="stroke:#181818;stroke-width:1.0;" x1="64" x2="417" y1="304.2793" y2="304.2793"/><text fill="#000000" font-family="sans-serif" font-size="13" font-weight="bold" lengthAdjust="spacing" textLength="7" x="76" y="290.3711">3</text><text fill="#000000" font-family="sans-serif" font-size="13" lengthAdjust="spacing" textLength="315" x="87" y="281.7256">Show the list of vehicles needing check-up with vehicle</text><text fill="#000000" font-family="sans-serif" font-size="13" lengthAdjust="spacing" textLength="271" x="87" y="299.0166">details and the data/inputs used on the formula</text><path d="M428,231.1152 L428,344.1152 L699,344.1152 L699,241.1152 L689,231.1152 L428,231.1152 " fill="#FAFAFA" style="stroke:#181818;stroke-width:0.5;"/><path d="M689,231.1152 L689,241.1152 L699,241.1152 L689,231.1152 " fill="#FAFAFA" style="stroke:#181818;stroke-width:0.5;"/><text fill="#000000" font-family="sans-serif" font-size="13" font-weight="bold" lengthAdjust="spacing" textLength="98" x="434" y="250.1436">Vehicle details:</text><ellipse cx="439.5" cy="263.1973" fill="#000000" rx="2.5" ry="2.5" style="stroke:#000000;stroke-width:0.0;"/><text fill="#000000" font-family="sans-serif" font-size="13" lengthAdjust="spacing" textLength="199" x="446" y="267.4346">Plate, brand, model, last check-up</text><text fill="#000000" font-family="sans-serif" font-size="13" lengthAdjust="spacing" textLength="4" x="434" y="284.7256">&#160;</text><text fill="#000000" font-family="sans-serif" font-size="13" font-weight="bold" lengthAdjust="spacing" textLength="250" x="434" y="302.0166">Data/Inputs used to determine vehicles:</text><ellipse cx="439.5" cy="315.0703" fill="#000000" rx="2.5" ry="2.5" style="stroke:#000000;stroke-width:0.0;"/><text fill="#000000" font-family="sans-serif" font-size="13" lengthAdjust="spacing" textLength="225" x="446" y="319.3076">current kilometers, check-up frequency</text><text fill="#000000" font-family="sans-serif" font-size="13" lengthAdjust="spacing" textLength="110" x="434" y="336.5986">last check-up done</text><!--SRC=[XP9FZzCm4CNl_XIZdY1gOO-e1qu5YGCI8e8JbrdxDR7gsC4URzLlpxXjkaNB7v_iPERzthEd77oSEVD4Kuh9ZZbD8CaLfjp-p6mFFA2NKm1bME4uXFk2Ch9BHny7sdCeC4QyQEct_k7X7MseFnN1H3r-LaGBsdaUMjkhlj-zDeQhf5YdHsJTMqcPLXy38FIPesBpYhZGXsaEwGGO9OgtVkOejDfUfCyLb-rPmZ-nuBd5aAxbH9ltYw4jVMsMYXIIf27IaMG41L-4qfwUC7eRK2W2heNpiSoQtgTuLho15Z9TrrN-7hI384y-ub-gz2DoT3ImkiZa8En3QKx0TbmQt_o9SmktfVw_CUm8UzZKcOvURhBANe3DGnDmBFnMdxZg_TG2H-gmVT-dFDN05nyEBwuX9ZraFunYkkxxLVuglkqwqtq9MhwcnwoajSwTGrXJOBMxM3FQkMluJtTuVIFtuXhFWhRc39s7WmywlbfIriyfz_aoToVp6u9SYZ3GhCtltyBy0W00]--></g></svg>