<?xml version="1.0" encoding="UTF-8" standalone="no"?>
<!DOCTYPE svg PUBLIC "-//W3C//DTD SVG 1.1//EN"
 "http://www.w3.org/Graphics/SVG/1.1/DTD/svg11.dtd">
<!-- Generated by graphviz version 10.0.1 (20240210.2158)
 -->
<!-- Pages: 1 -->
<svg width="359pt" height="273pt"
 viewBox="0.00 0.00 359.25 272.75" xmlns="http://www.w3.org/2000/svg" xmlns:xlink="http://www.w3.org/1999/xlink">
<g id="graph0" class="graph" transform="scale(1 1) rotate(0) translate(4 268.75)">
<polygon fill="white" stroke="none" points="-4,4 -4,-268.75 355.25,-268.75 355.25,4 -4,4"/>
<text text-anchor="middle" x="175.62" y="-237" font-family="Times New Roman,serif" font-size="25.00">segunda_feira.csv (total cost:23.0)</text>
<!-- 2 -->
<g id="node1" class="node">
<title>2</title>
<ellipse fill="none" stroke="black" cx="95.96" cy="-25.79" rx="27" ry="18"/>
<text text-anchor="middle" x="95.96" y="-20.37" font-family="Times New Roman,serif" font-size="14.00">2</text>
</g>
<!-- 3 -->
<g id="node2" class="node">
<title>3</title>
<ellipse fill="none" stroke="black" cx="133.02" cy="-117.8" rx="27" ry="18"/>
<text text-anchor="middle" x="133.02" y="-112.37" font-family="Times New Roman,serif" font-size="14.00">3</text>
</g>
<!-- 2&#45;&#45;3 -->
<g id="edge1" class="edge">
<title>2&#45;&#45;3</title>
<path fill="none" stroke="red" stroke-width="4" d="M103.11,-43.53C109.67,-59.83 119.34,-83.84 125.9,-100.11"/>
<text text-anchor="middle" x="105.88" y="-74.27" font-family="Times New Roman,serif" font-size="14.00">1.0</text>
</g>
<!-- 5 -->
<g id="node5" class="node">
<title>5</title>
<ellipse fill="none" stroke="black" cx="229.77" cy="-113.11" rx="27" ry="18"/>
<text text-anchor="middle" x="229.77" y="-107.68" font-family="Times New Roman,serif" font-size="14.00">5</text>
</g>
<!-- 2&#45;&#45;5 -->
<g id="edge7" class="edge">
<title>2&#45;&#45;5</title>
<path fill="none" stroke="black" d="M115.42,-38.49C140.79,-55.04 184.91,-83.84 210.29,-100.4"/>
<text text-anchor="middle" x="154.23" y="-71.89" font-family="Times New Roman,serif" font-size="14.00">8.0</text>
</g>
<!-- 6 -->
<g id="node6" class="node">
<title>6</title>
<ellipse fill="none" stroke="black" cx="101.76" cy="-211" rx="27" ry="18"/>
<text text-anchor="middle" x="101.76" y="-205.57" font-family="Times New Roman,serif" font-size="14.00">6</text>
</g>
<!-- 2&#45;&#45;6 -->
<g id="edge9" class="edge">
<title>2&#45;&#45;6</title>
<path fill="none" stroke="black" d="M96.54,-44.23C97.65,-79.73 100.08,-157.2 101.19,-192.64"/>
<text text-anchor="middle" x="86.86" y="-120.88" font-family="Times New Roman,serif" font-size="14.00">10.0</text>
</g>
<!-- 4 -->
<g id="node4" class="node">
<title>4</title>
<ellipse fill="none" stroke="black" cx="255.29" cy="-210.46" rx="27" ry="18"/>
<text text-anchor="middle" x="255.29" y="-205.03" font-family="Times New Roman,serif" font-size="14.00">4</text>
</g>
<!-- 3&#45;&#45;4 -->
<g id="edge11" class="edge">
<title>3&#45;&#45;4</title>
<path fill="none" stroke="black" d="M151.06,-131.47C174.18,-148.99 214.02,-179.18 237.17,-196.73"/>
<text text-anchor="middle" x="182.12" y="-166.55" font-family="Times New Roman,serif" font-size="14.00">13.0</text>
</g>
<!-- 3&#45;&#45;5 -->
<g id="edge5" class="edge">
<title>3&#45;&#45;5</title>
<path fill="none" stroke="red" stroke-width="4" d="M160.23,-116.48C173.42,-115.84 189.22,-115.07 202.43,-114.43"/>
<text text-anchor="middle" x="172.7" y="-117.91" font-family="Times New Roman,serif" font-size="14.00">6.0</text>
</g>
<!-- 3&#45;&#45;6 -->
<g id="edge10" class="edge">
<title>3&#45;&#45;6</title>
<path fill="none" stroke="black" d="M126.99,-135.77C121.46,-152.27 113.3,-176.6 107.77,-193.08"/>
<text text-anchor="middle" x="105.38" y="-166.88" font-family="Times New Roman,serif" font-size="14.00">10.0</text>
</g>
<!-- 1 -->
<g id="node3" class="node">
<title>1</title>
<ellipse fill="none" stroke="black" cx="249.68" cy="-18" rx="27" ry="18"/>
<text text-anchor="middle" x="249.68" y="-12.57" font-family="Times New Roman,serif" font-size="14.00">1</text>
</g>
<!-- 1&#45;&#45;2 -->
<g id="edge2" class="edge">
<title>1&#45;&#45;2</title>
<path fill="none" stroke="red" stroke-width="4" d="M222.55,-19.38C194.63,-20.79 151.35,-22.99 123.34,-24.41"/>
<text text-anchor="middle" x="164.32" y="-24.34" font-family="Times New Roman,serif" font-size="14.00">3.0</text>
</g>
<!-- 1&#45;&#45;3 -->
<g id="edge3" class="edge">
<title>1&#45;&#45;3</title>
<path fill="none" stroke="black" d="M232.96,-32.3C210.79,-51.27 171.87,-84.57 149.7,-103.53"/>
<text text-anchor="middle" x="182.71" y="-70.36" font-family="Times New Roman,serif" font-size="14.00">4.0</text>
</g>
<!-- 1&#45;&#45;4 -->
<g id="edge4" class="edge">
<title>1&#45;&#45;4</title>
<path fill="none" stroke="red" stroke-width="4" d="M250.22,-36.45C251.29,-73.24 253.68,-155.32 254.75,-192.06"/>
<text text-anchor="middle" x="261.11" y="-116.71" font-family="Times New Roman,serif" font-size="14.00">4.0</text>
</g>
<!-- 1&#45;&#45;5 -->
<g id="edge6" class="edge">
<title>1&#45;&#45;5</title>
<path fill="none" stroke="black" d="M245.93,-35.89C242.4,-52.79 237.12,-78 233.56,-94.98"/>
<text text-anchor="middle" x="231.12" y="-67.88" font-family="Times New Roman,serif" font-size="14.00">7.0</text>
</g>
<!-- 4&#45;&#45;6 -->
<g id="edge12" class="edge">
<title>4&#45;&#45;6</title>
<path fill="none" stroke="black" d="M227.84,-210.55C199.98,-210.65 157.09,-210.8 129.23,-210.9"/>
<text text-anchor="middle" x="166.53" y="-213.18" font-family="Times New Roman,serif" font-size="14.00">15.0</text>
</g>
<!-- 5&#45;&#45;6 -->
<g id="edge8" class="edge">
<title>5&#45;&#45;6</title>
<path fill="none" stroke="red" stroke-width="4" d="M211.7,-126.93C187.3,-145.58 144.09,-178.63 119.74,-197.25"/>
<text text-anchor="middle" x="157.09" y="-164.54" font-family="Times New Roman,serif" font-size="14.00">9.0</text>
</g>
</g>
</svg>
