<?xml version="1.0" encoding="UTF-8" standalone="no"?>
<!DOCTYPE svg PUBLIC "-//W3C//DTD SVG 1.1//EN"
 "http://www.w3.org/Graphics/SVG/1.1/DTD/svg11.dtd">
<!-- Generated by graphviz version 10.0.1 (20240210.2158)
 -->
<!-- Pages: 1 -->
<svg width="790pt" height="866pt"
 viewBox="0.00 0.00 789.94 866.48" xmlns="http://www.w3.org/2000/svg" xmlns:xlink="http://www.w3.org/1999/xlink">
<g id="graph0" class="graph" transform="scale(1 1) rotate(0) translate(4 862.48)">
<polygon fill="white" stroke="none" points="-4,4 -4,-862.48 785.94,-862.48 785.94,4 -4,4"/>
<text text-anchor="middle" x="390.97" y="-830.73" font-family="Times New Roman,serif" font-size="25.00">US13_JardimDosSentimentos.csv (total cost:116.0)</text>
<!-- 22 -->
<g id="node1" class="node">
<title>22</title>
<ellipse fill="none" stroke="black" cx="27" cy="-320.7" rx="27" ry="18"/>
<text text-anchor="middle" x="27" y="-315.27" font-family="Times New Roman,serif" font-size="14.00">22</text>
</g>
<!-- 23 -->
<g id="node2" class="node">
<title>23</title>
<ellipse fill="none" stroke="black" cx="144.4" cy="-261.05" rx="27" ry="18"/>
<text text-anchor="middle" x="144.4" y="-255.62" font-family="Times New Roman,serif" font-size="14.00">23</text>
</g>
<!-- 22&#45;&#45;23 -->
<g id="edge1" class="edge">
<title>22&#45;&#45;23</title>
<path fill="none" stroke="red" stroke-width="4" d="M48.81,-309.62C69.89,-298.9 101.66,-282.76 122.71,-272.07"/>
<text text-anchor="middle" x="77.13" y="-293.29" font-family="Times New Roman,serif" font-size="14.00">1.0</text>
</g>
<!-- 3 -->
<g id="node7" class="node">
<title>3</title>
<ellipse fill="none" stroke="black" cx="105.12" cy="-157.42" rx="27" ry="18"/>
<text text-anchor="middle" x="105.12" y="-152" font-family="Times New Roman,serif" font-size="14.00">3</text>
</g>
<!-- 22&#45;&#45;3 -->
<g id="edge11" class="edge">
<title>22&#45;&#45;3</title>
<path fill="none" stroke="black" d="M35.36,-303.22C50.4,-271.8 81.83,-206.1 96.82,-174.77"/>
<text text-anchor="middle" x="57.47" y="-241.45" font-family="Times New Roman,serif" font-size="14.00">5.0</text>
</g>
<!-- 23&#45;&#45;3 -->
<g id="edge4" class="edge">
<title>23&#45;&#45;3</title>
<path fill="none" stroke="red" stroke-width="4" d="M137.74,-243.47C130.51,-224.41 119.05,-194.17 111.82,-175.09"/>
<text text-anchor="middle" x="116.15" y="-211.73" font-family="Times New Roman,serif" font-size="14.00">2.0</text>
</g>
<!-- 4 -->
<g id="node12" class="node">
<title>4</title>
<ellipse fill="none" stroke="black" cx="277.18" cy="-174.11" rx="27" ry="18"/>
<text text-anchor="middle" x="277.18" y="-168.68" font-family="Times New Roman,serif" font-size="14.00">4</text>
</g>
<!-- 23&#45;&#45;4 -->
<g id="edge12" class="edge">
<title>23&#45;&#45;4</title>
<path fill="none" stroke="red" stroke-width="4" d="M163.99,-248.22C189.1,-231.78 232.37,-203.45 257.51,-186.99"/>
<text text-anchor="middle" x="202.13" y="-220.05" font-family="Times New Roman,serif" font-size="14.00">5.0</text>
</g>
<!-- 10 -->
<g id="node3" class="node">
<title>10</title>
<ellipse fill="none" stroke="black" cx="712.44" cy="-349.05" rx="27" ry="18"/>
<text text-anchor="middle" x="712.44" y="-343.63" font-family="Times New Roman,serif" font-size="14.00">10</text>
</g>
<!-- 11 -->
<g id="node4" class="node">
<title>11</title>
<ellipse fill="none" stroke="black" cx="672.78" cy="-423.9" rx="27" ry="18"/>
<text text-anchor="middle" x="672.78" y="-418.48" font-family="Times New Roman,serif" font-size="14.00">11</text>
</g>
<!-- 10&#45;&#45;11 -->
<g id="edge2" class="edge">
<title>10&#45;&#45;11</title>
<path fill="none" stroke="red" stroke-width="4" d="M703.24,-366.41C696.83,-378.51 688.33,-394.57 681.93,-406.64"/>
<text text-anchor="middle" x="683.96" y="-388.98" font-family="Times New Roman,serif" font-size="14.00">1.0</text>
</g>
<!-- 18 -->
<g id="node5" class="node">
<title>18</title>
<ellipse fill="none" stroke="black" cx="273.48" cy="-463.59" rx="27" ry="18"/>
<text text-anchor="middle" x="273.48" y="-458.16" font-family="Times New Roman,serif" font-size="14.00">18</text>
</g>
<!-- 19 -->
<g id="node6" class="node">
<title>19</title>
<ellipse fill="none" stroke="black" cx="204.97" cy="-566.68" rx="27" ry="18"/>
<text text-anchor="middle" x="204.97" y="-561.26" font-family="Times New Roman,serif" font-size="14.00">19</text>
</g>
<!-- 18&#45;&#45;19 -->
<g id="edge3" class="edge">
<title>18&#45;&#45;19</title>
<path fill="none" stroke="red" stroke-width="4" d="M262.47,-480.15C249.76,-499.28 228.97,-530.57 216.18,-549.82"/>
<text text-anchor="middle" x="230.7" y="-517.43" font-family="Times New Roman,serif" font-size="14.00">2.0</text>
</g>
<!-- 21 -->
<g id="node10" class="node">
<title>21</title>
<ellipse fill="none" stroke="black" cx="91.68" cy="-488.04" rx="27" ry="18"/>
<text text-anchor="middle" x="91.68" y="-482.62" font-family="Times New Roman,serif" font-size="14.00">21</text>
</g>
<!-- 18&#45;&#45;21 -->
<g id="edge23" class="edge">
<title>18&#45;&#45;21</title>
<path fill="none" stroke="black" d="M246.65,-467.2C212.28,-471.82 153.04,-479.79 118.62,-484.42"/>
<text text-anchor="middle" x="174.01" y="-462.51" font-family="Times New Roman,serif" font-size="14.00">8.0</text>
</g>
<!-- 20 -->
<g id="node11" class="node">
<title>20</title>
<ellipse fill="none" stroke="black" cx="144.23" cy="-408.37" rx="27" ry="18"/>
<text text-anchor="middle" x="144.23" y="-402.94" font-family="Times New Roman,serif" font-size="14.00">20</text>
</g>
<!-- 18&#45;&#45;20 -->
<g id="edge16" class="edge">
<title>18&#45;&#45;20</title>
<path fill="none" stroke="red" stroke-width="4" d="M250.37,-453.71C226.84,-443.66 190.59,-428.18 167.14,-418.16"/>
<text text-anchor="middle" x="200.13" y="-438.39" font-family="Times New Roman,serif" font-size="14.00">6.0</text>
</g>
<!-- 19&#45;&#45;21 -->
<g id="edge21" class="edge">
<title>19&#45;&#45;21</title>
<path fill="none" stroke="black" d="M186.01,-553.52C165.09,-539 131.64,-515.78 110.71,-501.25"/>
<text text-anchor="middle" x="139.73" y="-529.84" font-family="Times New Roman,serif" font-size="14.00">7.0</text>
</g>
<!-- 19&#45;&#45;20 -->
<g id="edge20" class="edge">
<title>19&#45;&#45;20</title>
<path fill="none" stroke="black" d="M198.12,-548.83C186.39,-518.26 162.61,-456.27 150.96,-425.92"/>
<text text-anchor="middle" x="165.91" y="-489.82" font-family="Times New Roman,serif" font-size="14.00">7.0</text>
</g>
<!-- 5 -->
<g id="node8" class="node">
<title>5</title>
<ellipse fill="none" stroke="black" cx="197.92" cy="-47.4" rx="27" ry="18"/>
<text text-anchor="middle" x="197.92" y="-41.98" font-family="Times New Roman,serif" font-size="14.00">5</text>
</g>
<!-- 3&#45;&#45;5 -->
<g id="edge28" class="edge">
<title>3&#45;&#45;5</title>
<path fill="none" stroke="black" d="M118.42,-141.66C136.06,-120.74 167.02,-84.04 184.65,-63.14"/>
<text text-anchor="middle" x="142.91" y="-104.85" font-family="Times New Roman,serif" font-size="14.00">9.0</text>
</g>
<!-- 3&#45;&#45;4 -->
<g id="edge17" class="edge">
<title>3&#45;&#45;4</title>
<path fill="none" stroke="black" d="M132.01,-160.03C164.24,-163.15 217.93,-168.36 250.2,-171.49"/>
<text text-anchor="middle" x="182.48" y="-168.21" font-family="Times New Roman,serif" font-size="14.00">6.0</text>
</g>
<!-- 6 -->
<g id="node9" class="node">
<title>6</title>
<ellipse fill="none" stroke="black" cx="326.02" cy="-18" rx="27" ry="18"/>
<text text-anchor="middle" x="326.02" y="-12.57" font-family="Times New Roman,serif" font-size="14.00">6</text>
</g>
<!-- 5&#45;&#45;6 -->
<g id="edge5" class="edge">
<title>5&#45;&#45;6</title>
<path fill="none" stroke="red" stroke-width="4" d="M223.84,-41.45C246.07,-36.35 277.92,-29.04 300.13,-23.94"/>
<text text-anchor="middle" x="253.36" y="-35.15" font-family="Times New Roman,serif" font-size="14.00">2.0</text>
</g>
<!-- 6&#45;&#45;4 -->
<g id="edge18" class="edge">
<title>6&#45;&#45;4</title>
<path fill="none" stroke="black" d="M320.42,-35.91C311,-66.02 292.09,-126.44 282.72,-156.41"/>
<text text-anchor="middle" x="292.94" y="-98.61" font-family="Times New Roman,serif" font-size="14.00">6.0</text>
</g>
<!-- 21&#45;&#45;22 -->
<g id="edge32" class="edge">
<title>21&#45;&#45;22</title>
<path fill="none" stroke="black" d="M84.88,-470.45C72.49,-438.39 46.37,-370.81 33.9,-338.56"/>
<text text-anchor="middle" x="47.39" y="-406.95" font-family="Times New Roman,serif" font-size="14.00">12.0</text>
</g>
<!-- 21&#45;&#45;20 -->
<g id="edge6" class="edge">
<title>21&#45;&#45;20</title>
<path fill="none" stroke="red" stroke-width="4" d="M102.83,-471.15C111.74,-457.63 124.19,-438.76 133.1,-425.24"/>
<text text-anchor="middle" x="109.34" y="-450.64" font-family="Times New Roman,serif" font-size="14.00">4.0</text>
</g>
<!-- 20&#45;&#45;22 -->
<g id="edge26" class="edge">
<title>20&#45;&#45;22</title>
<path fill="none" stroke="red" stroke-width="4" d="M125.91,-394.67C103.89,-378.2 67.15,-350.73 45.19,-334.3"/>
<text text-anchor="middle" x="76.93" y="-366.93" font-family="Times New Roman,serif" font-size="14.00">9.0</text>
</g>
<!-- 20&#45;&#45;23 -->
<g id="edge27" class="edge">
<title>20&#45;&#45;23</title>
<path fill="none" stroke="black" d="M144.25,-390.01C144.28,-361.62 144.35,-307.42 144.38,-279.18"/>
<text text-anchor="middle" x="135.69" y="-337.04" font-family="Times New Roman,serif" font-size="14.00">9.0</text>
</g>
<!-- 4&#45;&#45;5 -->
<g id="edge7" class="edge">
<title>4&#45;&#45;5</title>
<path fill="none" stroke="red" stroke-width="4" d="M266.66,-157.28C251.5,-133.05 223.67,-88.57 208.49,-64.3"/>
<text text-anchor="middle" x="228.95" y="-113.24" font-family="Times New Roman,serif" font-size="14.00">4.0</text>
</g>
<!-- 7 -->
<g id="node19" class="node">
<title>7</title>
<ellipse fill="none" stroke="black" cx="379.33" cy="-312.56" rx="27" ry="18"/>
<text text-anchor="middle" x="379.33" y="-307.13" font-family="Times New Roman,serif" font-size="14.00">7</text>
</g>
<!-- 4&#45;&#45;7 -->
<g id="edge39" class="edge">
<title>4&#45;&#45;7</title>
<path fill="none" stroke="black" d="M289.3,-190.53C308.96,-217.18 347.57,-269.52 367.22,-296.15"/>
<text text-anchor="middle" x="316.26" y="-245.79" font-family="Times New Roman,serif" font-size="14.00">22.0</text>
</g>
<!-- 8 -->
<g id="node13" class="node">
<title>8</title>
<ellipse fill="none" stroke="black" cx="451.69" cy="-437.87" rx="27" ry="18"/>
<text text-anchor="middle" x="451.69" y="-432.44" font-family="Times New Roman,serif" font-size="14.00">8</text>
</g>
<!-- 9 -->
<g id="node14" class="node">
<title>9</title>
<ellipse fill="none" stroke="black" cx="546.3" cy="-328.74" rx="27" ry="18"/>
<text text-anchor="middle" x="546.3" y="-323.32" font-family="Times New Roman,serif" font-size="14.00">9</text>
</g>
<!-- 8&#45;&#45;9 -->
<g id="edge8" class="edge">
<title>8&#45;&#45;9</title>
<path fill="none" stroke="red" stroke-width="4" d="M465.25,-422.23C483.13,-401.6 514.44,-365.49 532.46,-344.7"/>
<text text-anchor="middle" x="490.23" y="-385.92" font-family="Times New Roman,serif" font-size="14.00">4.0</text>
</g>
<!-- 17 -->
<g id="node18" class="node">
<title>17</title>
<ellipse fill="none" stroke="black" cx="368.32" cy="-590.94" rx="27" ry="18"/>
<text text-anchor="middle" x="368.32" y="-585.52" font-family="Times New Roman,serif" font-size="14.00">17</text>
</g>
<!-- 8&#45;&#45;17 -->
<g id="edge33" class="edge">
<title>8&#45;&#45;17</title>
<path fill="none" stroke="black" d="M442.29,-455.13C426.19,-484.68 393.54,-544.63 377.56,-573.98"/>
<text text-anchor="middle" x="397.92" y="-517" font-family="Times New Roman,serif" font-size="14.00">13.0</text>
</g>
<!-- 9&#45;&#45;10 -->
<g id="edge34" class="edge">
<title>9&#45;&#45;10</title>
<path fill="none" stroke="red" stroke-width="4" d="M572.99,-332.01C603.91,-335.78 654.54,-341.97 685.54,-345.76"/>
<text text-anchor="middle" x="617.27" y="-341.33" font-family="Times New Roman,serif" font-size="14.00">15.0</text>
</g>
<!-- 9&#45;&#45;11 -->
<g id="edge36" class="edge">
<title>9&#45;&#45;11</title>
<path fill="none" stroke="black" d="M564.42,-342.38C588.47,-360.47 630.67,-392.22 654.69,-410.3"/>
<text text-anchor="middle" x="597.56" y="-378.79" font-family="Times New Roman,serif" font-size="14.00">16.0</text>
</g>
<!-- 14 -->
<g id="node15" class="node">
<title>14</title>
<ellipse fill="none" stroke="black" cx="560.22" cy="-804.73" rx="27" ry="18"/>
<text text-anchor="middle" x="560.22" y="-799.3" font-family="Times New Roman,serif" font-size="14.00">14</text>
</g>
<!-- 16 -->
<g id="node16" class="node">
<title>16</title>
<ellipse fill="none" stroke="black" cx="396.63" cy="-753.77" rx="27" ry="18"/>
<text text-anchor="middle" x="396.63" y="-748.34" font-family="Times New Roman,serif" font-size="14.00">16</text>
</g>
<!-- 14&#45;&#45;16 -->
<g id="edge9" class="edge">
<title>14&#45;&#45;16</title>
<path fill="none" stroke="red" stroke-width="4" d="M535.38,-796.99C504.54,-787.38 452.26,-771.1 421.44,-761.5"/>
<text text-anchor="middle" x="469.78" y="-781.69" font-family="Times New Roman,serif" font-size="14.00">5.0</text>
</g>
<!-- 15 -->
<g id="node17" class="node">
<title>15</title>
<ellipse fill="none" stroke="black" cx="499.34" cy="-684.89" rx="27" ry="18"/>
<text text-anchor="middle" x="499.34" y="-679.46" font-family="Times New Roman,serif" font-size="14.00">15</text>
</g>
<!-- 14&#45;&#45;15 -->
<g id="edge13" class="edge">
<title>14&#45;&#45;15</title>
<path fill="none" stroke="black" d="M551.37,-787.3C539.83,-764.58 519.75,-725.07 508.2,-702.34"/>
<text text-anchor="middle" x="521.16" y="-747.27" font-family="Times New Roman,serif" font-size="14.00">6.0</text>
</g>
<!-- 16&#45;&#45;17 -->
<g id="edge22" class="edge">
<title>16&#45;&#45;17</title>
<path fill="none" stroke="red" stroke-width="4" d="M393.44,-735.41C387.97,-703.97 376.88,-640.21 371.46,-608.99"/>
<text text-anchor="middle" x="373.82" y="-674.65" font-family="Times New Roman,serif" font-size="14.00">8.0</text>
</g>
<!-- 15&#45;&#45;16 -->
<g id="edge10" class="edge">
<title>15&#45;&#45;16</title>
<path fill="none" stroke="red" stroke-width="4" d="M480.02,-697.84C461.66,-710.16 434.2,-728.58 415.86,-740.87"/>
<text text-anchor="middle" x="439.32" y="-721.81" font-family="Times New Roman,serif" font-size="14.00">5.0</text>
</g>
<!-- 15&#45;&#45;17 -->
<g id="edge25" class="edge">
<title>15&#45;&#45;17</title>
<path fill="none" stroke="black" d="M480.57,-671.43C455.66,-653.57 411.94,-622.22 387.06,-604.38"/>
<text text-anchor="middle" x="425.19" y="-640.35" font-family="Times New Roman,serif" font-size="14.00">9.0</text>
</g>
<!-- 17&#45;&#45;18 -->
<g id="edge14" class="edge">
<title>17&#45;&#45;18</title>
<path fill="none" stroke="red" stroke-width="4" d="M356.11,-574.55C337.9,-550.1 303.82,-504.33 285.63,-479.91"/>
<text text-anchor="middle" x="312.25" y="-529.68" font-family="Times New Roman,serif" font-size="14.00">6.0</text>
</g>
<!-- 17&#45;&#45;19 -->
<g id="edge15" class="edge">
<title>17&#45;&#45;19</title>
<path fill="none" stroke="black" d="M341.71,-586.99C311.33,-582.48 261.94,-575.14 231.56,-570.63"/>
<text text-anchor="middle" x="278.01" y="-581.26" font-family="Times New Roman,serif" font-size="14.00">6.0</text>
</g>
<!-- 7&#45;&#45;18 -->
<g id="edge31" class="edge">
<title>7&#45;&#45;18</title>
<path fill="none" stroke="red" stroke-width="4" d="M367.8,-329.01C347.44,-358.06 305.34,-418.12 284.99,-447.16"/>
<text text-anchor="middle" x="314.39" y="-390.53" font-family="Times New Roman,serif" font-size="14.00">11.0</text>
</g>
<!-- 7&#45;&#45;8 -->
<g id="edge19" class="edge">
<title>7&#45;&#45;8</title>
<path fill="none" stroke="red" stroke-width="4" d="M389.24,-329.72C403.09,-353.72 428.11,-397.03 441.9,-420.91"/>
<text text-anchor="middle" x="406.94" y="-377.77" font-family="Times New Roman,serif" font-size="14.00">6.0</text>
</g>
<!-- 7&#45;&#45;9 -->
<g id="edge29" class="edge">
<title>7&#45;&#45;9</title>
<path fill="none" stroke="black" d="M406.52,-315.19C437.58,-318.2 488.07,-323.1 519.11,-326.11"/>
<text text-anchor="middle" x="454.19" y="-323.1" font-family="Times New Roman,serif" font-size="14.00">9.0</text>
</g>
<!-- 13 -->
<g id="node20" class="node">
<title>13</title>
<ellipse fill="none" stroke="black" cx="663.42" cy="-686.19" rx="27" ry="18"/>
<text text-anchor="middle" x="663.42" y="-680.77" font-family="Times New Roman,serif" font-size="14.00">13</text>
</g>
<!-- 13&#45;&#45;14 -->
<g id="edge24" class="edge">
<title>13&#45;&#45;14</title>
<path fill="none" stroke="red" stroke-width="4" d="M649.93,-701.69C630.26,-724.28 593.9,-766.04 574.05,-788.85"/>
<text text-anchor="middle" x="603.36" y="-747.72" font-family="Times New Roman,serif" font-size="14.00">9.0</text>
</g>
<!-- 13&#45;&#45;15 -->
<g id="edge38" class="edge">
<title>13&#45;&#45;15</title>
<path fill="none" stroke="black" d="M635.96,-685.97C605.58,-685.73 556.92,-685.35 526.62,-685.11"/>
<text text-anchor="middle" x="569.29" y="-687.99" font-family="Times New Roman,serif" font-size="14.00">18.0</text>
</g>
<!-- 12 -->
<g id="node21" class="node">
<title>12</title>
<ellipse fill="none" stroke="black" cx="754.94" cy="-535.51" rx="27" ry="18"/>
<text text-anchor="middle" x="754.94" y="-530.09" font-family="Times New Roman,serif" font-size="14.00">12</text>
</g>
<!-- 12&#45;&#45;10 -->
<g id="edge37" class="edge">
<title>12&#45;&#45;10</title>
<path fill="none" stroke="black" d="M750.79,-517.3C742.64,-481.56 724.66,-402.65 716.55,-367.07"/>
<text text-anchor="middle" x="721.67" y="-444.63" font-family="Times New Roman,serif" font-size="14.00">18.0</text>
</g>
<!-- 12&#45;&#45;11 -->
<g id="edge35" class="edge">
<title>12&#45;&#45;11</title>
<path fill="none" stroke="black" d="M742.82,-519.04C727.29,-497.94 700.51,-461.57 684.96,-440.44"/>
<text text-anchor="middle" x="701.89" y="-482.19" font-family="Times New Roman,serif" font-size="14.00">16.0</text>
</g>
<!-- 12&#45;&#45;13 -->
<g id="edge30" class="edge">
<title>12&#45;&#45;13</title>
<path fill="none" stroke="red" stroke-width="4" d="M744.62,-552.51C726.95,-581.6 691.11,-640.6 673.56,-669.49"/>
<text text-anchor="middle" x="697.09" y="-613.45" font-family="Times New Roman,serif" font-size="14.00">11.0</text>
</g>
</g>
</svg>
