<?xml version="1.0" encoding="UTF-8" standalone="no"?>
<!DOCTYPE svg PUBLIC "-//W3C//DTD SVG 1.1//EN"
 "http://www.w3.org/Graphics/SVG/1.1/DTD/svg11.dtd">
<!-- Generated by graphviz version 10.0.1 (20240210.2158)
 -->
<!-- Pages: 1 -->
<svg width="1062pt" height="845pt"
 viewBox="0.00 0.00 1062.38 845.07" xmlns="http://www.w3.org/2000/svg" xmlns:xlink="http://www.w3.org/1999/xlink">
<g id="graph0" class="graph" transform="scale(1 1) rotate(0) translate(4 841.07)">
<polygon fill="white" stroke="none" points="-4,4 -4,-841.07 1058.38,-841.07 1058.38,4 -4,4"/>
<text text-anchor="middle" x="527.19" y="-809.32" font-family="Times New Roman,serif" font-size="25.00">US13_JardimEspeciesNucleoRural.csv (total cost:141.0)</text>
<!-- Tilia -->
<g id="node1" class="node">
<title>Tilia</title>
<ellipse fill="none" stroke="black" cx="287.12" cy="-460.24" rx="27" ry="18"/>
<text text-anchor="middle" x="287.12" y="-454.82" font-family="Times New Roman,serif" font-size="14.00">Tilia</text>
</g>
<!-- Camelia_e3 -->
<g id="node2" class="node">
<title>Camelia_e3</title>
<ellipse fill="none" stroke="black" cx="322.05" cy="-311.99" rx="53.56" ry="18"/>
<text text-anchor="middle" x="322.05" y="-306.57" font-family="Times New Roman,serif" font-size="14.00">Camelia_e3</text>
</g>
<!-- Tilia&#45;&#45;Camelia_e3 -->
<g id="edge1" class="edge">
<title>Tilia&#45;&#45;Camelia_e3</title>
<path fill="none" stroke="red" stroke-width="4" d="M291.41,-442.06C298.11,-413.61 311.01,-358.86 317.74,-330.32"/>
<text text-anchor="middle" x="295.95" y="-388.64" font-family="Times New Roman,serif" font-size="14.00">3.0</text>
</g>
<!-- Camelia_e2 -->
<g id="node7" class="node">
<title>Camelia_e2</title>
<ellipse fill="none" stroke="black" cx="194.35" cy="-321.6" rx="53.56" ry="18"/>
<text text-anchor="middle" x="194.35" y="-316.18" font-family="Times New Roman,serif" font-size="14.00">Camelia_e2</text>
</g>
<!-- Tilia&#45;&#45;Camelia_e2 -->
<g id="edge21" class="edge">
<title>Tilia&#45;&#45;Camelia_e2</title>
<path fill="none" stroke="black" d="M275.93,-443.52C258.29,-417.16 224.18,-366.19 206.16,-339.26"/>
<text text-anchor="middle" x="232.42" y="-393.84" font-family="Times New Roman,serif" font-size="14.00">7.0</text>
</g>
<!-- Camelia_e4 -->
<g id="node17" class="node">
<title>Camelia_e4</title>
<ellipse fill="none" stroke="black" cx="421.59" cy="-378.25" rx="53.56" ry="18"/>
<text text-anchor="middle" x="421.59" y="-372.83" font-family="Times New Roman,serif" font-size="14.00">Camelia_e4</text>
</g>
<!-- Tilia&#45;&#45;Camelia_e4 -->
<g id="edge22" class="edge">
<title>Tilia&#45;&#45;Camelia_e4</title>
<path fill="none" stroke="black" d="M307.25,-447.97C330.7,-433.67 369.5,-410.01 395.3,-394.28"/>
<text text-anchor="middle" x="342.65" y="-423.57" font-family="Times New Roman,serif" font-size="14.00">7.0</text>
</g>
<!-- Castanheiro_India -->
<g id="node22" class="node">
<title>Castanheiro_India</title>
<ellipse fill="none" stroke="black" cx="398.64" cy="-597.54" rx="78.01" ry="18"/>
<text text-anchor="middle" x="398.64" y="-592.11" font-family="Times New Roman,serif" font-size="14.00">Castanheiro_India</text>
</g>
<!-- Tilia&#45;&#45;Castanheiro_India -->
<g id="edge33" class="edge">
<title>Tilia&#45;&#45;Castanheiro_India</title>
<path fill="none" stroke="black" d="M300.13,-476.26C321.05,-502.01 362.01,-552.44 383.95,-579.45"/>
<text text-anchor="middle" x="333.42" y="-530.3" font-family="Times New Roman,serif" font-size="14.00">9.0</text>
</g>
<!-- Camelia_d3 -->
<g id="node8" class="node">
<title>Camelia_d3</title>
<ellipse fill="none" stroke="black" cx="442.49" cy="-199.17" rx="54.56" ry="18"/>
<text text-anchor="middle" x="442.49" y="-193.75" font-family="Times New Roman,serif" font-size="14.00">Camelia_d3</text>
</g>
<!-- Camelia_e3&#45;&#45;Camelia_d3 -->
<g id="edge38" class="edge">
<title>Camelia_e3&#45;&#45;Camelia_d3</title>
<path fill="none" stroke="black" d="M340.35,-294.86C362.98,-273.65 401.31,-237.75 424.03,-216.47"/>
<text text-anchor="middle" x="370.19" y="-258.11" font-family="Times New Roman,serif" font-size="14.00">10.0</text>
</g>
<!-- Camelia_e3&#45;&#45;Camelia_e4 -->
<g id="edge15" class="edge">
<title>Camelia_e3&#45;&#45;Camelia_e4</title>
<path fill="none" stroke="red" stroke-width="4" d="M346.66,-328.37C361.97,-338.56 381.6,-351.63 396.92,-361.83"/>
<text text-anchor="middle" x="363.17" y="-347.55" font-family="Times New Roman,serif" font-size="14.00">6.0</text>
</g>
<!-- Carvalho -->
<g id="node3" class="node">
<title>Carvalho</title>
<ellipse fill="none" stroke="black" cx="127.98" cy="-433.78" rx="44.08" ry="18"/>
<text text-anchor="middle" x="127.98" y="-428.35" font-family="Times New Roman,serif" font-size="14.00">Carvalho</text>
</g>
<!-- Carvalho&#45;&#45;Tilia -->
<g id="edge32" class="edge">
<title>Carvalho&#45;&#45;Tilia</title>
<path fill="none" stroke="black" d="M168.96,-440.59C197.88,-445.4 235.77,-451.7 260.75,-455.86"/>
<text text-anchor="middle" x="206.23" y="-450.67" font-family="Times New Roman,serif" font-size="14.00">9.0</text>
</g>
<!-- Camelia_e1 -->
<g id="node4" class="node">
<title>Camelia_e1</title>
<ellipse fill="none" stroke="black" cx="53.56" cy="-280.37" rx="53.56" ry="18"/>
<text text-anchor="middle" x="53.56" y="-274.95" font-family="Times New Roman,serif" font-size="14.00">Camelia_e1</text>
</g>
<!-- Carvalho&#45;&#45;Camelia_e1 -->
<g id="edge2" class="edge">
<title>Carvalho&#45;&#45;Camelia_e1</title>
<path fill="none" stroke="red" stroke-width="4" d="M119.3,-415.88C104.96,-386.32 76.49,-327.64 62.19,-298.16"/>
<text text-anchor="middle" x="82.12" y="-359.47" font-family="Times New Roman,serif" font-size="14.00">4.0</text>
</g>
<!-- Carvalho&#45;&#45;Camelia_e2 -->
<g id="edge11" class="edge">
<title>Carvalho&#45;&#45;Camelia_e2</title>
<path fill="none" stroke="black" d="M138.5,-416C150.85,-395.12 171.23,-360.67 183.66,-339.67"/>
<text text-anchor="middle" x="152.45" y="-380.28" font-family="Times New Roman,serif" font-size="14.00">6.0</text>
</g>
<!-- Camelia_e1&#45;&#45;Camelia_e2 -->
<g id="edge4" class="edge">
<title>Camelia_e1&#45;&#45;Camelia_e2</title>
<path fill="none" stroke="red" stroke-width="4" d="M94.28,-292.3C112.96,-297.77 135.05,-304.24 153.72,-309.7"/>
<text text-anchor="middle" x="115.37" y="-303.45" font-family="Times New Roman,serif" font-size="14.00">4.0</text>
</g>
<!-- Camelia_d1 -->
<g id="node12" class="node">
<title>Camelia_d1</title>
<ellipse fill="none" stroke="black" cx="119.19" cy="-120.5" rx="54.56" ry="18"/>
<text text-anchor="middle" x="119.19" y="-115.08" font-family="Times New Roman,serif" font-size="14.00">Camelia_d1</text>
</g>
<!-- Camelia_e1&#45;&#45;Camelia_d1 -->
<g id="edge36" class="edge">
<title>Camelia_e1&#45;&#45;Camelia_d1</title>
<path fill="none" stroke="red" stroke-width="4" d="M60.96,-262.34C73.57,-231.64 99.06,-169.54 111.72,-138.71"/>
<text text-anchor="middle" x="74.34" y="-202.98" font-family="Times New Roman,serif" font-size="14.00">10.0</text>
</g>
<!-- Abrunheiro -->
<g id="node5" class="node">
<title>Abrunheiro</title>
<ellipse fill="none" stroke="black" cx="876.74" cy="-758.65" rx="52.56" ry="18"/>
<text text-anchor="middle" x="876.74" y="-753.23" font-family="Times New Roman,serif" font-size="14.00">Abrunheiro</text>
</g>
<!-- Ginkgo -->
<g id="node6" class="node">
<title>Ginkgo</title>
<ellipse fill="none" stroke="black" cx="1016.29" cy="-699" rx="38.09" ry="18"/>
<text text-anchor="middle" x="1016.29" y="-693.58" font-family="Times New Roman,serif" font-size="14.00">Ginkgo</text>
</g>
<!-- Abrunheiro&#45;&#45;Ginkgo -->
<g id="edge3" class="edge">
<title>Abrunheiro&#45;&#45;Ginkgo</title>
<path fill="none" stroke="red" stroke-width="4" d="M910.17,-744.36C933.88,-734.23 965.35,-720.78 987.85,-711.16"/>
<text text-anchor="middle" x="940.39" y="-730.21" font-family="Times New Roman,serif" font-size="14.00">4.0</text>
</g>
<!-- Camelia_e9 -->
<g id="node14" class="node">
<title>Camelia_e9</title>
<ellipse fill="none" stroke="black" cx="801.16" cy="-668.47" rx="53.56" ry="18"/>
<text text-anchor="middle" x="801.16" y="-663.05" font-family="Times New Roman,serif" font-size="14.00">Camelia_e9</text>
</g>
<!-- Abrunheiro&#45;&#45;Camelia_e9 -->
<g id="edge13" class="edge">
<title>Abrunheiro&#45;&#45;Camelia_e9</title>
<path fill="none" stroke="black" d="M862.17,-741.27C848.87,-725.4 829.31,-702.06 815.95,-686.12"/>
<text text-anchor="middle" x="830.44" y="-716.14" font-family="Times New Roman,serif" font-size="14.00">6.0</text>
</g>
<!-- Camelia_d7 -->
<g id="node20" class="node">
<title>Camelia_d7</title>
<ellipse fill="none" stroke="black" cx="922" cy="-588.28" rx="54.56" ry="18"/>
<text text-anchor="middle" x="922" y="-582.85" font-family="Times New Roman,serif" font-size="14.00">Camelia_d7</text>
</g>
<!-- Abrunheiro&#45;&#45;Camelia_d7 -->
<g id="edge48" class="edge">
<title>Abrunheiro&#45;&#45;Camelia_d7</title>
<path fill="none" stroke="black" d="M881.59,-740.42C890.27,-707.71 908.41,-639.43 917.12,-606.64"/>
<text text-anchor="middle" x="887.35" y="-675.98" font-family="Times New Roman,serif" font-size="14.00">13.0</text>
</g>
<!-- Ginkgo&#45;&#45;Camelia_d7 -->
<g id="edge46" class="edge">
<title>Ginkgo&#45;&#45;Camelia_d7</title>
<path fill="none" stroke="black" d="M1001.97,-682.19C984.45,-661.62 954.93,-626.95 937.08,-605.99"/>
<text text-anchor="middle" x="957.53" y="-646.54" font-family="Times New Roman,serif" font-size="14.00">12.0</text>
</g>
<!-- Camelia_e2&#45;&#45;Camelia_e3 -->
<g id="edge8" class="edge">
<title>Camelia_e2&#45;&#45;Camelia_e3</title>
<path fill="none" stroke="red" stroke-width="4" d="M247.03,-317.64C254.45,-317.08 262.08,-316.5 269.49,-315.95"/>
<text text-anchor="middle" x="258.26" y="-303.49" font-family="Times New Roman,serif" font-size="14.00">5.0</text>
</g>
<!-- Camelia_d2 -->
<g id="node9" class="node">
<title>Camelia_d2</title>
<ellipse fill="none" stroke="black" cx="275.81" cy="-158.46" rx="54.56" ry="18"/>
<text text-anchor="middle" x="275.81" y="-153.03" font-family="Times New Roman,serif" font-size="14.00">Camelia_d2</text>
</g>
<!-- Camelia_e2&#45;&#45;Camelia_d2 -->
<g id="edge37" class="edge">
<title>Camelia_e2&#45;&#45;Camelia_d2</title>
<path fill="none" stroke="black" d="M203.38,-303.52C219.04,-272.16 251.06,-208.04 266.74,-176.62"/>
<text text-anchor="middle" x="223.06" y="-242.52" font-family="Times New Roman,serif" font-size="14.00">10.0</text>
</g>
<!-- Camelia_d3&#45;&#45;Camelia_d2 -->
<g id="edge5" class="edge">
<title>Camelia_d3&#45;&#45;Camelia_d2</title>
<path fill="none" stroke="red" stroke-width="4" d="M398.26,-188.37C374.15,-182.48 344.39,-175.21 320.25,-169.31"/>
<text text-anchor="middle" x="350.63" y="-181.29" font-family="Times New Roman,serif" font-size="14.00">4.0</text>
</g>
<!-- Camelia_d2&#45;&#45;Camelia_d1 -->
<g id="edge10" class="edge">
<title>Camelia_d2&#45;&#45;Camelia_d1</title>
<path fill="none" stroke="red" stroke-width="4" d="M231.35,-147.68C210.19,-142.55 184.94,-136.43 163.76,-131.3"/>
<text text-anchor="middle" x="188.93" y="-141.94" font-family="Times New Roman,serif" font-size="14.00">5.0</text>
</g>
<!-- Liquidanbar -->
<g id="node10" class="node">
<title>Liquidanbar</title>
<ellipse fill="none" stroke="black" cx="699.58" cy="-783.32" rx="55.06" ry="18"/>
<text text-anchor="middle" x="699.58" y="-777.9" font-family="Times New Roman,serif" font-size="14.00">Liquidanbar</text>
</g>
<!-- Liquidanbar&#45;&#45;Abrunheiro -->
<g id="edge6" class="edge">
<title>Liquidanbar&#45;&#45;Abrunheiro</title>
<path fill="none" stroke="red" stroke-width="4" d="M750.82,-776.19C775.04,-772.81 803.82,-768.81 827.75,-765.47"/>
<text text-anchor="middle" x="780.66" y="-773.28" font-family="Times New Roman,serif" font-size="14.00">5.0</text>
</g>
<!-- Liquidanbar&#45;&#45;Camelia_e9 -->
<g id="edge12" class="edge">
<title>Liquidanbar&#45;&#45;Camelia_e9</title>
<path fill="none" stroke="red" stroke-width="4" d="M715,-765.88C734.1,-744.29 766.43,-707.74 785.59,-686.08"/>
<text text-anchor="middle" x="741.67" y="-728.43" font-family="Times New Roman,serif" font-size="14.00">6.0</text>
</g>
<!-- Camelia_e8 -->
<g id="node19" class="node">
<title>Camelia_e8</title>
<ellipse fill="none" stroke="black" cx="670.93" cy="-657.08" rx="53.56" ry="18"/>
<text text-anchor="middle" x="670.93" y="-651.66" font-family="Times New Roman,serif" font-size="14.00">Camelia_e8</text>
</g>
<!-- Liquidanbar&#45;&#45;Camelia_e8 -->
<g id="edge30" class="edge">
<title>Liquidanbar&#45;&#45;Camelia_e8</title>
<path fill="none" stroke="black" d="M695.41,-764.96C689.98,-741.03 680.53,-699.4 675.1,-675.46"/>
<text text-anchor="middle" x="676.63" y="-722.66" font-family="Times New Roman,serif" font-size="14.00">8.0</text>
</g>
<!-- Sobreiro -->
<g id="node11" class="node">
<title>Sobreiro</title>
<ellipse fill="none" stroke="black" cx="219.11" cy="-18" rx="43.08" ry="18"/>
<text text-anchor="middle" x="219.11" y="-12.57" font-family="Times New Roman,serif" font-size="14.00">Sobreiro</text>
</g>
<!-- Sobreiro&#45;&#45;Camelia_d2 -->
<g id="edge26" class="edge">
<title>Sobreiro&#45;&#45;Camelia_d2</title>
<path fill="none" stroke="black" d="M226.4,-36.07C237.29,-63.04 257.67,-113.52 268.55,-140.45"/>
<text text-anchor="middle" x="238.85" y="-90.71" font-family="Times New Roman,serif" font-size="14.00">7.0</text>
</g>
<!-- Sobreiro&#45;&#45;Camelia_d1 -->
<g id="edge7" class="edge">
<title>Sobreiro&#45;&#45;Camelia_d1</title>
<path fill="none" stroke="red" stroke-width="4" d="M202.61,-34.93C184.21,-53.8 154.59,-84.18 136.05,-103.21"/>
<text text-anchor="middle" x="160.7" y="-71.52" font-family="Times New Roman,serif" font-size="14.00">5.0</text>
</g>
<!-- Camelia_d4 -->
<g id="node13" class="node">
<title>Camelia_d4</title>
<ellipse fill="none" stroke="black" cx="561.24" cy="-323.49" rx="54.56" ry="18"/>
<text text-anchor="middle" x="561.24" y="-318.06" font-family="Times New Roman,serif" font-size="14.00">Camelia_d4</text>
</g>
<!-- Camelia_d4&#45;&#45;Camelia_d3 -->
<g id="edge9" class="edge">
<title>Camelia_d4&#45;&#45;Camelia_d3</title>
<path fill="none" stroke="red" stroke-width="4" d="M544.48,-305.94C521.85,-282.25 481.76,-240.28 459.17,-216.63"/>
<text text-anchor="middle" x="493.2" y="-263.74" font-family="Times New Roman,serif" font-size="14.00">5.0</text>
</g>
<!-- Camelia_e9&#45;&#45;Camelia_d7 -->
<g id="edge43" class="edge">
<title>Camelia_e9&#45;&#45;Camelia_d7</title>
<path fill="none" stroke="black" d="M825.91,-652.05C846.76,-638.21 876.44,-618.51 897.29,-604.68"/>
<text text-anchor="middle" x="849.6" y="-630.81" font-family="Times New Roman,serif" font-size="14.00">10.0</text>
</g>
<!-- Camelia_d6 -->
<g id="node21" class="node">
<title>Camelia_d6</title>
<ellipse fill="none" stroke="black" cx="783.02" cy="-522.63" rx="54.56" ry="18"/>
<text text-anchor="middle" x="783.02" y="-517.2" font-family="Times New Roman,serif" font-size="14.00">Camelia_d6</text>
</g>
<!-- Camelia_e9&#45;&#45;Camelia_d6 -->
<g id="edge45" class="edge">
<title>Camelia_e9&#45;&#45;Camelia_d6</title>
<path fill="none" stroke="black" d="M798.87,-650C795.38,-621.95 788.78,-568.92 785.3,-540.95"/>
<text text-anchor="middle" x="780.08" y="-597.93" font-family="Times New Roman,serif" font-size="14.00">11.0</text>
</g>
<!-- Folhado -->
<g id="node15" class="node">
<title>Folhado</title>
<ellipse fill="none" stroke="black" cx="728.74" cy="-361.98" rx="41.58" ry="18"/>
<text text-anchor="middle" x="728.74" y="-356.55" font-family="Times New Roman,serif" font-size="14.00">Folhado</text>
</g>
<!-- Folhado&#45;&#45;Camelia_d4 -->
<g id="edge44" class="edge">
<title>Folhado&#45;&#45;Camelia_d4</title>
<path fill="none" stroke="black" d="M691.57,-353.44C666.51,-347.68 633.3,-340.04 606.67,-333.93"/>
<text text-anchor="middle" x="637.12" y="-346.13" font-family="Times New Roman,serif" font-size="14.00">11.0</text>
</g>
<!-- Camelia_d5 -->
<g id="node16" class="node">
<title>Camelia_d5</title>
<ellipse fill="none" stroke="black" cx="650.07" cy="-448.56" rx="54.56" ry="18"/>
<text text-anchor="middle" x="650.07" y="-443.13" font-family="Times New Roman,serif" font-size="14.00">Camelia_d5</text>
</g>
<!-- Folhado&#45;&#45;Camelia_d5 -->
<g id="edge14" class="edge">
<title>Folhado&#45;&#45;Camelia_d5</title>
<path fill="none" stroke="red" stroke-width="4" d="M713.2,-379.08C699.59,-394.06 679.88,-415.75 666.12,-430.89"/>
<text text-anchor="middle" x="681.04" y="-407.44" font-family="Times New Roman,serif" font-size="14.00">6.0</text>
</g>
<!-- Folhado&#45;&#45;Camelia_d6 -->
<g id="edge25" class="edge">
<title>Folhado&#45;&#45;Camelia_d6</title>
<path fill="none" stroke="black" d="M734.86,-380.09C745.29,-410.95 766.37,-473.36 776.84,-504.33"/>
<text text-anchor="middle" x="747.23" y="-444.66" font-family="Times New Roman,serif" font-size="14.00">7.0</text>
</g>
<!-- Camelia_d5&#45;&#45;Camelia_d4 -->
<g id="edge20" class="edge">
<title>Camelia_d5&#45;&#45;Camelia_d4</title>
<path fill="none" stroke="red" stroke-width="4" d="M637.34,-430.64C620.46,-406.86 590.82,-365.13 573.95,-341.37"/>
<text text-anchor="middle" x="597.02" y="-388.45" font-family="Times New Roman,serif" font-size="14.00">6.0</text>
</g>
<!-- Camelia_e4&#45;&#45;Camelia_d4 -->
<g id="edge39" class="edge">
<title>Camelia_e4&#45;&#45;Camelia_d4</title>
<path fill="none" stroke="black" d="M456.83,-364.43C477.84,-356.2 504.44,-345.77 525.53,-337.49"/>
<text text-anchor="middle" x="479.18" y="-337.66" font-family="Times New Roman,serif" font-size="14.00">10.0</text>
</g>
<!-- Camelia_e6 -->
<g id="node18" class="node">
<title>Camelia_e6</title>
<ellipse fill="none" stroke="black" cx="482.16" cy="-475.1" rx="53.56" ry="18"/>
<text text-anchor="middle" x="482.16" y="-469.68" font-family="Times New Roman,serif" font-size="14.00">Camelia_e6</text>
</g>
<!-- Camelia_e4&#45;&#45;Camelia_e6 -->
<g id="edge16" class="edge">
<title>Camelia_e4&#45;&#45;Camelia_e6</title>
<path fill="none" stroke="red" stroke-width="4" d="M432.7,-396.02C443.56,-413.38 460.01,-439.69 470.91,-457.12"/>
<text text-anchor="middle" x="443.18" y="-429.02" font-family="Times New Roman,serif" font-size="14.00">6.0</text>
</g>
<!-- Camelia_e6&#45;&#45;Camelia_d4 -->
<g id="edge40" class="edge">
<title>Camelia_e6&#45;&#45;Camelia_d4</title>
<path fill="none" stroke="black" d="M491.54,-457.12C506.76,-427.94 536.66,-370.62 551.87,-341.45"/>
<text text-anchor="middle" x="509.71" y="-401.73" font-family="Times New Roman,serif" font-size="14.00">10.0</text>
</g>
<!-- Camelia_e7 -->
<g id="node24" class="node">
<title>Camelia_e7</title>
<ellipse fill="none" stroke="black" cx="543.83" cy="-587.31" rx="53.56" ry="18"/>
<text text-anchor="middle" x="543.83" y="-581.88" font-family="Times New Roman,serif" font-size="14.00">Camelia_e7</text>
</g>
<!-- Camelia_e6&#45;&#45;Camelia_e7 -->
<g id="edge50" class="edge">
<title>Camelia_e6&#45;&#45;Camelia_e7</title>
<path fill="none" stroke="black" d="M492.06,-493.13C503.57,-514.07 522.45,-548.41 533.95,-569.32"/>
<text text-anchor="middle" x="501.01" y="-533.68" font-family="Times New Roman,serif" font-size="14.00">20.0</text>
</g>
<!-- Camelia_e8&#45;&#45;Camelia_e9 -->
<g id="edge17" class="edge">
<title>Camelia_e8&#45;&#45;Camelia_e9</title>
<path fill="none" stroke="red" stroke-width="4" d="M723.15,-661.65C731.64,-662.39 740.44,-663.16 748.93,-663.9"/>
<text text-anchor="middle" x="736.04" y="-649.48" font-family="Times New Roman,serif" font-size="14.00">6.0</text>
</g>
<!-- Camelia_e8&#45;&#45;Camelia_d6 -->
<g id="edge42" class="edge">
<title>Camelia_e8&#45;&#45;Camelia_d6</title>
<path fill="none" stroke="black" d="M685.58,-639.5C707.07,-613.74 746.88,-565.98 768.36,-540.21"/>
<text text-anchor="middle" x="714.97" y="-592.31" font-family="Times New Roman,serif" font-size="14.00">10.0</text>
</g>
<!-- Camelia_d7&#45;&#45;Camelia_d6 -->
<g id="edge18" class="edge">
<title>Camelia_d7&#45;&#45;Camelia_d6</title>
<path fill="none" stroke="red" stroke-width="4" d="M890.11,-573.22C867.51,-562.54 837.32,-548.28 814.76,-537.62"/>
<text text-anchor="middle" x="843.81" y="-557.87" font-family="Times New Roman,serif" font-size="14.00">6.0</text>
</g>
<!-- Camelia_d6&#45;&#45;Camelia_d5 -->
<g id="edge19" class="edge">
<title>Camelia_d6&#45;&#45;Camelia_d5</title>
<path fill="none" stroke="red" stroke-width="4" d="M754.83,-506.92C732.26,-494.35 700.78,-476.81 678.22,-464.24"/>
<text text-anchor="middle" x="707.9" y="-488.03" font-family="Times New Roman,serif" font-size="14.00">6.0</text>
</g>
<!-- Castanheiro_India&#45;&#45;Camelia_e6 -->
<g id="edge23" class="edge">
<title>Castanheiro_India&#45;&#45;Camelia_e6</title>
<path fill="none" stroke="red" stroke-width="4" d="M410.96,-579.47C426.84,-556.19 454.28,-515.97 470.05,-492.84"/>
<text text-anchor="middle" x="431.88" y="-538.61" font-family="Times New Roman,serif" font-size="14.00">7.0</text>
</g>
<!-- Olaia -->
<g id="node23" class="node">
<title>Olaia</title>
<ellipse fill="none" stroke="black" cx="534.88" cy="-714.51" rx="29.61" ry="18"/>
<text text-anchor="middle" x="534.88" y="-709.09" font-family="Times New Roman,serif" font-size="14.00">Olaia</text>
</g>
<!-- Castanheiro_India&#45;&#45;Olaia -->
<g id="edge35" class="edge">
<title>Castanheiro_India&#45;&#45;Olaia</title>
<path fill="none" stroke="red" stroke-width="4" d="M419.33,-615.3C446.13,-638.31 492.37,-678.01 517.46,-699.56"/>
<text text-anchor="middle" x="456.4" y="-659.88" font-family="Times New Roman,serif" font-size="14.00">10.0</text>
</g>
<!-- Castanheiro_India&#45;&#45;Camelia_e7 -->
<g id="edge49" class="edge">
<title>Castanheiro_India&#45;&#45;Camelia_e7</title>
<path fill="none" stroke="black" d="M473.79,-592.24C479.6,-591.83 485.39,-591.42 491.01,-591.03"/>
<text text-anchor="middle" x="482.4" y="-578.34" font-family="Times New Roman,serif" font-size="14.00">16.0</text>
</g>
<!-- Olaia&#45;&#45;Liquidanbar -->
<g id="edge24" class="edge">
<title>Olaia&#45;&#45;Liquidanbar</title>
<path fill="none" stroke="red" stroke-width="4" d="M559.54,-724.81C587.53,-736.51 633.41,-755.68 664.98,-768.87"/>
<text text-anchor="middle" x="603.63" y="-749.29" font-family="Times New Roman,serif" font-size="14.00">7.0</text>
</g>
<!-- Olaia&#45;&#45;Camelia_e8 -->
<g id="edge29" class="edge">
<title>Olaia&#45;&#45;Camelia_e8</title>
<path fill="none" stroke="black" d="M559.52,-704.11C581.19,-694.96 612.94,-681.56 637.01,-671.4"/>
<text text-anchor="middle" x="589.64" y="-690.21" font-family="Times New Roman,serif" font-size="14.00">8.0</text>
</g>
<!-- Olaia&#45;&#45;Camelia_e7 -->
<g id="edge28" class="edge">
<title>Olaia&#45;&#45;Camelia_e7</title>
<path fill="none" stroke="black" d="M536.16,-696.29C537.86,-672.1 540.85,-629.66 542.55,-605.5"/>
<text text-anchor="middle" x="530.73" y="-653.34" font-family="Times New Roman,serif" font-size="14.00">8.0</text>
</g>
<!-- Camelia_e7&#45;&#45;Camelia_d5 -->
<g id="edge41" class="edge">
<title>Camelia_e7&#45;&#45;Camelia_d5</title>
<path fill="none" stroke="black" d="M557.5,-569.45C577.9,-542.81 616.08,-492.94 636.45,-466.34"/>
<text text-anchor="middle" x="584.98" y="-520.35" font-family="Times New Roman,serif" font-size="14.00">10.0</text>
</g>
<!-- Camelia_e7&#45;&#45;Camelia_e8 -->
<g id="edge27" class="edge">
<title>Camelia_e7&#45;&#45;Camelia_e8</title>
<path fill="none" stroke="red" stroke-width="4" d="M572.36,-602.97C593.29,-614.46 621.59,-630 642.5,-641.47"/>
<text text-anchor="middle" x="598.8" y="-624.67" font-family="Times New Roman,serif" font-size="14.00">7.0</text>
</g>
<!-- Magnolia -->
<g id="node25" class="node">
<title>Magnolia</title>
<ellipse fill="none" stroke="black" cx="876.35" cy="-426.45" rx="44.58" ry="18"/>
<text text-anchor="middle" x="876.35" y="-421.02" font-family="Times New Roman,serif" font-size="14.00">Magnolia</text>
</g>
<!-- Magnolia&#45;&#45;Folhado -->
<g id="edge34" class="edge">
<title>Magnolia&#45;&#45;Folhado</title>
<path fill="none" stroke="black" d="M845.76,-413.09C820.18,-401.91 783.89,-386.07 758.53,-374.99"/>
<text text-anchor="middle" x="793.52" y="-396.49" font-family="Times New Roman,serif" font-size="14.00">9.0</text>
</g>
<!-- Magnolia&#45;&#45;Camelia_d7 -->
<g id="edge47" class="edge">
<title>Magnolia&#45;&#45;Camelia_d7</title>
<path fill="none" stroke="black" d="M881.5,-444.7C890.31,-475.94 908.18,-539.31 916.94,-570.34"/>
<text text-anchor="middle" x="887.22" y="-509.97" font-family="Times New Roman,serif" font-size="14.00">12.0</text>
</g>
<!-- Magnolia&#45;&#45;Camelia_d6 -->
<g id="edge31" class="edge">
<title>Magnolia&#45;&#45;Camelia_d6</title>
<path fill="none" stroke="red" stroke-width="4" d="M860.09,-443.2C843.28,-460.53 817.13,-487.48 800.04,-505.09"/>
<text text-anchor="middle" x="821.44" y="-476.6" font-family="Times New Roman,serif" font-size="14.00">8.0</text>
</g>
</g>
</svg>
