<?xml version="1.0" encoding="UTF-8" standalone="no"?>
<!DOCTYPE svg PUBLIC "-//W3C//DTD SVG 1.1//EN"
 "http://www.w3.org/Graphics/SVG/1.1/DTD/svg11.dtd">
<!-- Generated by graphviz version 10.0.1 (20240210.2158)
 -->
<!-- Pages: 1 -->
<svg width="374pt" height="468pt"
 viewBox="0.00 0.00 374.33 468.31" xmlns="http://www.w3.org/2000/svg" xmlns:xlink="http://www.w3.org/1999/xlink">
<g id="graph0" class="graph" transform="scale(1 1) rotate(0) translate(4 464.31)">
<polygon fill="white" stroke="none" points="-4,4 -4,-464.31 370.33,-464.31 370.33,4 -4,4"/>
<text text-anchor="middle" x="183.16" y="-432.56" font-family="Times New Roman,serif" font-size="25.00">Us17.csv (total cost:10.0)</text>
<!-- AP2 -->
<g id="node1" class="node">
<title>AP2</title>
<ellipse fill="none" stroke="black" cx="277.04" cy="-151.5" rx="27.11" ry="18"/>
<text text-anchor="middle" x="277.04" y="-146.08" font-family="Times New Roman,serif" font-size="14.00">AP2</text>
</g>
<!-- AP4 -->
<g id="node2" class="node">
<title>AP4</title>
<ellipse fill="none" stroke="black" cx="135.51" cy="-178.34" rx="27.11" ry="18"/>
<text text-anchor="middle" x="135.51" y="-172.91" font-family="Times New Roman,serif" font-size="14.00">AP4</text>
</g>
<!-- AP2&#45;&#45;AP4 -->
<g id="edge1" class="edge">
<title>AP2&#45;&#45;AP4</title>
<path fill="none" stroke="red" stroke-width="4" d="M250.75,-156.48C225.33,-161.3 187.03,-168.57 161.66,-173.38"/>
<text text-anchor="middle" x="197.58" y="-167.38" font-family="Times New Roman,serif" font-size="14.00">1.0</text>
</g>
<!-- AP5 -->
<g id="node3" class="node">
<title>AP5</title>
<ellipse fill="none" stroke="black" cx="244.29" cy="-294.74" rx="27.11" ry="18"/>
<text text-anchor="middle" x="244.29" y="-289.32" font-family="Times New Roman,serif" font-size="14.00">AP5</text>
</g>
<!-- AP2&#45;&#45;AP5 -->
<g id="edge8" class="edge">
<title>AP2&#45;&#45;AP5</title>
<path fill="none" stroke="black" d="M272.89,-169.64C266.59,-197.2 254.68,-249.28 248.4,-276.75"/>
<text text-anchor="middle" x="252.02" y="-225.65" font-family="Times New Roman,serif" font-size="14.00">4.0</text>
</g>
<!-- AP3 -->
<g id="node7" class="node">
<title>AP3</title>
<ellipse fill="none" stroke="black" cx="190.98" cy="-35.2" rx="27.11" ry="18"/>
<text text-anchor="middle" x="190.98" y="-29.77" font-family="Times New Roman,serif" font-size="14.00">AP3</text>
</g>
<!-- AP2&#45;&#45;AP3 -->
<g id="edge10" class="edge">
<title>AP2&#45;&#45;AP3</title>
<path fill="none" stroke="black" d="M265.08,-135.33C248.73,-113.23 219.57,-73.82 203.13,-51.61"/>
<text text-anchor="middle" x="225.48" y="-95.92" font-family="Times New Roman,serif" font-size="14.00">5.0</text>
</g>
<!-- AP4&#45;&#45;AP5 -->
<g id="edge2" class="edge">
<title>AP4&#45;&#45;AP5</title>
<path fill="none" stroke="red" stroke-width="4" d="M149.73,-193.55C170.46,-215.74 208.79,-256.75 229.71,-279.15"/>
<text text-anchor="middle" x="181.1" y="-238.8" font-family="Times New Roman,serif" font-size="14.00">1.0</text>
</g>
<!-- AP7 -->
<g id="node6" class="node">
<title>AP7</title>
<ellipse fill="none" stroke="black" cx="27.11" cy="-290.27" rx="27.11" ry="18"/>
<text text-anchor="middle" x="27.11" y="-284.85" font-family="Times New Roman,serif" font-size="14.00">AP7</text>
</g>
<!-- AP4&#45;&#45;AP7 -->
<g id="edge5" class="edge">
<title>AP4&#45;&#45;AP7</title>
<path fill="none" stroke="red" stroke-width="4" d="M120.89,-193.43C100.2,-214.8 62.6,-253.63 41.85,-275.06"/>
<text text-anchor="middle" x="72.74" y="-236.69" font-family="Times New Roman,serif" font-size="14.00">2.0</text>
</g>
<!-- AP6 -->
<g id="node4" class="node">
<title>AP6</title>
<ellipse fill="none" stroke="black" cx="133.79" cy="-406.56" rx="27.11" ry="18"/>
<text text-anchor="middle" x="133.79" y="-401.14" font-family="Times New Roman,serif" font-size="14.00">AP6</text>
</g>
<!-- AP5&#45;&#45;AP6 -->
<g id="edge3" class="edge">
<title>AP5&#45;&#45;AP6</title>
<path fill="none" stroke="red" stroke-width="4" d="M229.38,-309.82C208.3,-331.17 169.96,-369.96 148.81,-391.37"/>
<text text-anchor="middle" x="180.47" y="-353.04" font-family="Times New Roman,serif" font-size="14.00">1.0</text>
</g>
<!-- AP6&#45;&#45;AP7 -->
<g id="edge7" class="edge">
<title>AP6&#45;&#45;AP7</title>
<path fill="none" stroke="black" d="M119.41,-390.88C98.93,-368.56 61.62,-327.89 41.27,-305.71"/>
<text text-anchor="middle" x="71.71" y="-350.74" font-family="Times New Roman,serif" font-size="14.00">3.0</text>
</g>
<!-- AP1 -->
<g id="node5" class="node">
<title>AP1</title>
<ellipse fill="none" stroke="black" cx="339.22" cy="-18" rx="27.11" ry="18"/>
<text text-anchor="middle" x="339.22" y="-12.57" font-family="Times New Roman,serif" font-size="14.00">AP1</text>
</g>
<!-- AP1&#45;&#45;AP2 -->
<g id="edge4" class="edge">
<title>AP1&#45;&#45;AP2</title>
<path fill="none" stroke="red" stroke-width="4" d="M331.09,-35.45C319.17,-61.04 297.09,-108.46 285.17,-134.04"/>
<text text-anchor="middle" x="299.5" y="-87.2" font-family="Times New Roman,serif" font-size="14.00">2.0</text>
</g>
<!-- AP1&#45;&#45;AP3 -->
<g id="edge6" class="edge">
<title>AP1&#45;&#45;AP3</title>
<path fill="none" stroke="red" stroke-width="4" d="M312.03,-21.15C285.28,-24.26 244.69,-28.97 218,-32.06"/>
<text text-anchor="middle" x="256.39" y="-29.06" font-family="Times New Roman,serif" font-size="14.00">3.0</text>
</g>
<!-- AP3&#45;&#45;AP4 -->
<g id="edge9" class="edge">
<title>AP3&#45;&#45;AP4</title>
<path fill="none" stroke="black" d="M184.07,-53.04C173.38,-80.62 152.97,-133.28 142.34,-160.72"/>
<text text-anchor="middle" x="154.58" y="-109.33" font-family="Times New Roman,serif" font-size="14.00">4.0</text>
</g>
</g>
</svg>
