<?xml version="1.0" encoding="us-ascii" standalone="no"?><svg xmlns="http://www.w3.org/2000/svg" xmlns:xlink="http://www.w3.org/1999/xlink" contentStyleType="text/css" height="1057px" preserveAspectRatio="none" style="width:392px;height:1057px;background:#FFFFFF;" version="1.1" viewBox="0 0 392 1057" width="392px" zoomAndPan="magnify"><defs/><g><text fill="#000000" font-family="sans-serif" font-size="14" font-weight="bold" lengthAdjust="spacing" textLength="155" x="111.5" y="25.1074">US001 - Class Diagram</text><!--class RegisterSkillUI--><g id="elem_RegisterSkillUI"><rect codeLine="11" fill="#F1F1F1" height="196.9688" id="RegisterSkillUI" rx="2.5" ry="2.5" style="stroke:#181818;stroke-width:0.5;" width="160" x="147" y="46.6211"/><ellipse cx="179.1" cy="62.6211" fill="#ADD1B2" rx="11" ry="11" style="stroke:#181818;stroke-width:1.0;"/><path d="M181.8656,58.4961 Q182.0219,58.2773 182.2094,58.168 Q182.3969,58.0586 182.6156,58.0586 Q182.9906,58.0586 183.225,58.3242 Q183.4594,58.5742 183.4594,59.1836 L183.4594,60.6367 Q183.4594,61.2461 183.225,61.5117 Q182.9906,61.7773 182.6156,61.7773 Q182.2719,61.7773 182.0688,61.5742 Q181.8656,61.3867 181.7563,60.8711 Q181.7094,60.5117 181.5219,60.3242 Q181.1938,59.9492 180.5844,59.7305 Q179.975,59.5117 179.35,59.5117 Q178.5844,59.5117 177.9438,59.8398 Q177.3188,60.168 176.8188,60.918 Q176.3344,61.668 176.3344,62.6992 L176.3344,63.793 Q176.3344,65.0273 177.225,65.8555 Q178.1156,66.668 179.7094,66.668 Q180.6469,66.668 181.3031,66.418 Q181.6938,66.2617 182.1156,65.8242 Q182.3813,65.5586 182.5219,65.4805 Q182.6781,65.4023 182.8813,65.4023 Q183.2094,65.4023 183.4594,65.668 Q183.725,65.918 183.725,66.2617 Q183.725,66.6055 183.3813,67.0117 Q182.8813,67.5898 182.0844,67.918 Q181.0063,68.3711 179.7094,68.3711 Q178.1938,68.3711 176.9906,67.7461 Q176.0063,67.2461 175.3188,66.1836 Q174.6313,65.1055 174.6313,63.8242 L174.6313,62.668 Q174.6313,61.3398 175.2406,60.1992 Q175.8656,59.043 176.9594,58.4336 Q178.0531,57.8086 179.2875,57.8086 Q180.0219,57.8086 180.6625,57.9805 Q181.3188,58.1367 181.8656,58.4961 Z " fill="#000000"/><text fill="#000000" font-family="sans-serif" font-size="14" lengthAdjust="spacing" textLength="90" x="196.9" y="68.418">RegisterSkillUI</text><line style="stroke:#181818;stroke-width:0.5;" x1="148" x2="306" y1="78.6211" y2="78.6211"/><text fill="#000000" font-family="sans-serif" font-size="14" lengthAdjust="spacing" textLength="105" x="153" y="97.7285">-String skillName</text><line style="stroke:#181818;stroke-width:0.5;" x1="148" x2="306" y1="105.2422" y2="105.2422"/><text fill="#000000" font-family="sans-serif" font-size="14" lengthAdjust="spacing" textLength="108" x="153" y="124.3496">+RegisterSkillUI()</text><text fill="#000000" font-family="sans-serif" font-size="14" lengthAdjust="spacing" textLength="97" x="153" y="142.9707">-getController()</text><text fill="#000000" font-family="sans-serif" font-size="14" lengthAdjust="spacing" textLength="39" x="153" y="161.5918">+run()</text><text fill="#000000" font-family="sans-serif" font-size="14" lengthAdjust="spacing" textLength="86" x="153" y="180.2129">-submitData()</text><text fill="#000000" font-family="sans-serif" font-size="14" lengthAdjust="spacing" textLength="93" x="153" y="198.834">-requestData()</text><text fill="#000000" font-family="sans-serif" font-size="14" lengthAdjust="spacing" textLength="124" x="153" y="217.4551">-requestSkillName()</text><text fill="#000000" font-family="sans-serif" font-size="14" lengthAdjust="spacing" textLength="148" x="153" y="236.0762">-validateSkill(skillName)</text></g><!--class RegisterSkillController--><g id="elem_RegisterSkillController"><rect codeLine="23" fill="#F1F1F1" height="122.4844" id="RegisterSkillController" rx="2.5" ry="2.5" style="stroke:#181818;stroke-width:0.5;" width="261" x="96.5" y="304.6211"/><ellipse cx="152.75" cy="320.6211" fill="#ADD1B2" rx="11" ry="11" style="stroke:#181818;stroke-width:1.0;"/><path d="M155.5156,316.4961 Q155.6719,316.2773 155.8594,316.168 Q156.0469,316.0586 156.2656,316.0586 Q156.6406,316.0586 156.875,316.3242 Q157.1094,316.5742 157.1094,317.1836 L157.1094,318.6367 Q157.1094,319.2461 156.875,319.5117 Q156.6406,319.7773 156.2656,319.7773 Q155.9219,319.7773 155.7188,319.5742 Q155.5156,319.3867 155.4063,318.8711 Q155.3594,318.5117 155.1719,318.3242 Q154.8438,317.9492 154.2344,317.7305 Q153.625,317.5117 153,317.5117 Q152.2344,317.5117 151.5938,317.8398 Q150.9688,318.168 150.4688,318.918 Q149.9844,319.668 149.9844,320.6992 L149.9844,321.793 Q149.9844,323.0273 150.875,323.8555 Q151.7656,324.668 153.3594,324.668 Q154.2969,324.668 154.9531,324.418 Q155.3438,324.2617 155.7656,323.8242 Q156.0313,323.5586 156.1719,323.4805 Q156.3281,323.4023 156.5313,323.4023 Q156.8594,323.4023 157.1094,323.668 Q157.375,323.918 157.375,324.2617 Q157.375,324.6055 157.0313,325.0117 Q156.5313,325.5898 155.7344,325.918 Q154.6563,326.3711 153.3594,326.3711 Q151.8438,326.3711 150.6406,325.7461 Q149.6563,325.2461 148.9688,324.1836 Q148.2813,323.1055 148.2813,321.8242 L148.2813,320.668 Q148.2813,319.3398 148.8906,318.1992 Q149.5156,317.043 150.6094,316.4336 Q151.7031,315.8086 152.9375,315.8086 Q153.6719,315.8086 154.3125,315.9805 Q154.9688,316.1367 155.5156,316.4961 Z " fill="#000000"/><text fill="#000000" font-family="sans-serif" font-size="14" lengthAdjust="spacing" textLength="140" x="173.25" y="326.418">RegisterSkillController</text><line style="stroke:#181818;stroke-width:0.5;" x1="97.5" x2="356.5" y1="336.6211" y2="336.6211"/><line style="stroke:#181818;stroke-width:0.5;" x1="97.5" x2="356.5" y1="344.6211" y2="344.6211"/><text fill="#000000" font-family="sans-serif" font-size="14" lengthAdjust="spacing" textLength="158" x="102.5" y="363.7285">+RegisterSkillController()</text><text fill="#000000" font-family="sans-serif" font-size="14" lengthAdjust="spacing" textLength="249" x="102.5" y="382.3496">+RegisterSkillController(skillRepository)</text><text fill="#000000" font-family="sans-serif" font-size="14" lengthAdjust="spacing" textLength="128" x="102.5" y="400.9707">-getSkillRepository()</text><text fill="#000000" font-family="sans-serif" font-size="14" lengthAdjust="spacing" textLength="150" x="102.5" y="419.5918">+registerSkill(skillName)</text></g><!--class Repositories--><g id="elem_Repositories"><rect codeLine="30" fill="#F1F1F1" height="103.8633" id="Repositories" rx="2.5" ry="2.5" style="stroke:#181818;stroke-width:0.5;" width="194" x="7" y="505.6211"/><ellipse cx="60.25" cy="521.6211" fill="#ADD1B2" rx="11" ry="11" style="stroke:#181818;stroke-width:1.0;"/><path d="M63.0156,517.4961 Q63.1719,517.2773 63.3594,517.168 Q63.5469,517.0586 63.7656,517.0586 Q64.1406,517.0586 64.375,517.3242 Q64.6094,517.5742 64.6094,518.1836 L64.6094,519.6367 Q64.6094,520.2461 64.375,520.5117 Q64.1406,520.7773 63.7656,520.7773 Q63.4219,520.7773 63.2188,520.5742 Q63.0156,520.3867 62.9063,519.8711 Q62.8594,519.5117 62.6719,519.3242 Q62.3438,518.9492 61.7344,518.7305 Q61.125,518.5117 60.5,518.5117 Q59.7344,518.5117 59.0938,518.8398 Q58.4688,519.168 57.9688,519.918 Q57.4844,520.668 57.4844,521.6992 L57.4844,522.793 Q57.4844,524.0273 58.375,524.8555 Q59.2656,525.668 60.8594,525.668 Q61.7969,525.668 62.4531,525.418 Q62.8438,525.2617 63.2656,524.8242 Q63.5313,524.5586 63.6719,524.4805 Q63.8281,524.4023 64.0313,524.4023 Q64.3594,524.4023 64.6094,524.668 Q64.875,524.918 64.875,525.2617 Q64.875,525.6055 64.5313,526.0117 Q64.0313,526.5898 63.2344,526.918 Q62.1563,527.3711 60.8594,527.3711 Q59.3438,527.3711 58.1406,526.7461 Q57.1563,526.2461 56.4688,525.1836 Q55.7813,524.1055 55.7813,522.8242 L55.7813,521.668 Q55.7813,520.3398 56.3906,519.1992 Q57.0156,518.043 58.1094,517.4336 Q59.2031,516.8086 60.4375,516.8086 Q61.1719,516.8086 61.8125,516.9805 Q62.4688,517.1367 63.0156,517.4961 Z " fill="#000000"/><text fill="#000000" font-family="sans-serif" font-size="14" lengthAdjust="spacing" textLength="79" x="80.75" y="527.418">Repositories</text><line style="stroke:#181818;stroke-width:0.5;" x1="8" x2="200" y1="537.6211" y2="537.6211"/><line style="stroke:#181818;stroke-width:0.5;" x1="8" x2="200" y1="545.6211" y2="545.6211"/><text fill="#000000" font-family="sans-serif" font-size="14" lengthAdjust="spacing" textLength="94" x="13" y="564.7285">-Repositories()</text><text fill="#000000" font-family="sans-serif" font-size="14" lengthAdjust="spacing" textLength="182" x="13" y="583.3496">+getInstance() : Repositories</text><text fill="#000000" font-family="sans-serif" font-size="14" lengthAdjust="spacing" textLength="131" x="13" y="601.9707">+getSkillRepository()</text></g><!--class SkillRepository--><g id="elem_SkillRepository"><rect codeLine="36" fill="#F1F1F1" height="141.1055" id="SkillRepository" rx="2.5" ry="2.5" style="stroke:#181818;stroke-width:0.5;" width="162" x="146" y="670.6211"/><ellipse cx="177.65" cy="686.6211" fill="#ADD1B2" rx="11" ry="11" style="stroke:#181818;stroke-width:1.0;"/><path d="M180.4156,682.4961 Q180.5719,682.2773 180.7594,682.168 Q180.9469,682.0586 181.1656,682.0586 Q181.5406,682.0586 181.775,682.3242 Q182.0094,682.5742 182.0094,683.1836 L182.0094,684.6367 Q182.0094,685.2461 181.775,685.5117 Q181.5406,685.7773 181.1656,685.7773 Q180.8219,685.7773 180.6188,685.5742 Q180.4156,685.3867 180.3063,684.8711 Q180.2594,684.5117 180.0719,684.3242 Q179.7438,683.9492 179.1344,683.7305 Q178.525,683.5117 177.9,683.5117 Q177.1344,683.5117 176.4938,683.8398 Q175.8688,684.168 175.3688,684.918 Q174.8844,685.668 174.8844,686.6992 L174.8844,687.793 Q174.8844,689.0273 175.775,689.8555 Q176.6656,690.668 178.2594,690.668 Q179.1969,690.668 179.8531,690.418 Q180.2438,690.2617 180.6656,689.8242 Q180.9313,689.5586 181.0719,689.4805 Q181.2281,689.4023 181.4313,689.4023 Q181.7594,689.4023 182.0094,689.668 Q182.275,689.918 182.275,690.2617 Q182.275,690.6055 181.9313,691.0117 Q181.4313,691.5898 180.6344,691.918 Q179.5563,692.3711 178.2594,692.3711 Q176.7438,692.3711 175.5406,691.7461 Q174.5563,691.2461 173.8688,690.1836 Q173.1813,689.1055 173.1813,687.8242 L173.1813,686.668 Q173.1813,685.3398 173.7906,684.1992 Q174.4156,683.043 175.5094,682.4336 Q176.6031,681.8086 177.8375,681.8086 Q178.5719,681.8086 179.2125,681.9805 Q179.8688,682.1367 180.4156,682.4961 Z " fill="#000000"/><text fill="#000000" font-family="sans-serif" font-size="14" lengthAdjust="spacing" textLength="93" x="195.35" y="692.418">SkillRepository</text><line style="stroke:#181818;stroke-width:0.5;" x1="147" x2="307" y1="702.6211" y2="702.6211"/><text fill="#000000" font-family="sans-serif" font-size="14" lengthAdjust="spacing" textLength="117" x="152" y="721.7285">-List&lt;Skill&gt; skillList</text><line style="stroke:#181818;stroke-width:0.5;" x1="147" x2="307" y1="729.2422" y2="729.2422"/><text fill="#000000" font-family="sans-serif" font-size="14" lengthAdjust="spacing" textLength="111" x="152" y="748.3496">+SkillRepository()</text><text fill="#000000" font-family="sans-serif" font-size="14" lengthAdjust="spacing" textLength="65" x="152" y="766.9707">+add(skill)</text><text fill="#000000" font-family="sans-serif" font-size="14" lengthAdjust="spacing" textLength="112" x="152" y="785.5918">-validateSkill(skill)</text><text fill="#000000" font-family="sans-serif" font-size="14" lengthAdjust="spacing" textLength="150" x="152" y="804.2129">+registerSkill(skillName)</text></g><!--class Skill--><g id="elem_Skill"><rect codeLine="45" fill="#F1F1F1" height="159.7266" id="Skill" rx="2.5" ry="2.5" style="stroke:#181818;stroke-width:0.5;" width="169" x="142.5" y="890.6211"/><ellipse cx="210.25" cy="906.6211" fill="#ADD1B2" rx="11" ry="11" style="stroke:#181818;stroke-width:1.0;"/><path d="M213.0156,902.4961 Q213.1719,902.2773 213.3594,902.168 Q213.5469,902.0586 213.7656,902.0586 Q214.1406,902.0586 214.375,902.3242 Q214.6094,902.5742 214.6094,903.1836 L214.6094,904.6367 Q214.6094,905.2461 214.375,905.5117 Q214.1406,905.7773 213.7656,905.7773 Q213.4219,905.7773 213.2188,905.5742 Q213.0156,905.3867 212.9063,904.8711 Q212.8594,904.5117 212.6719,904.3242 Q212.3438,903.9492 211.7344,903.7305 Q211.125,903.5117 210.5,903.5117 Q209.7344,903.5117 209.0938,903.8398 Q208.4688,904.168 207.9688,904.918 Q207.4844,905.668 207.4844,906.6992 L207.4844,907.793 Q207.4844,909.0273 208.375,909.8555 Q209.2656,910.668 210.8594,910.668 Q211.7969,910.668 212.4531,910.418 Q212.8438,910.2617 213.2656,909.8242 Q213.5313,909.5586 213.6719,909.4805 Q213.8281,909.4023 214.0313,909.4023 Q214.3594,909.4023 214.6094,909.668 Q214.875,909.918 214.875,910.2617 Q214.875,910.6055 214.5313,911.0117 Q214.0313,911.5898 213.2344,911.918 Q212.1563,912.3711 210.8594,912.3711 Q209.3438,912.3711 208.1406,911.7461 Q207.1563,911.2461 206.4688,910.1836 Q205.7813,909.1055 205.7813,907.8242 L205.7813,906.668 Q205.7813,905.3398 206.3906,904.1992 Q207.0156,903.043 208.1094,902.4336 Q209.2031,901.8086 210.4375,901.8086 Q211.1719,901.8086 211.8125,901.9805 Q212.4688,902.1367 213.0156,902.4961 Z " fill="#000000"/><text fill="#000000" font-family="sans-serif" font-size="14" lengthAdjust="spacing" textLength="25" x="230.75" y="912.418">Skill</text><line style="stroke:#181818;stroke-width:0.5;" x1="143.5" x2="310.5" y1="922.6211" y2="922.6211"/><text fill="#000000" font-family="sans-serif" font-size="14" lengthAdjust="spacing" textLength="105" x="148.5" y="941.7285">-String skillName</text><line style="stroke:#181818;stroke-width:0.5;" x1="143.5" x2="310.5" y1="949.2422" y2="949.2422"/><text fill="#000000" font-family="sans-serif" font-size="14" lengthAdjust="spacing" textLength="102" x="148.5" y="968.3496">+Skill(skillName)</text><text fill="#000000" font-family="sans-serif" font-size="14" lengthAdjust="spacing" textLength="99" x="148.5" y="986.9707">+getSkillName()</text><text fill="#000000" font-family="sans-serif" font-size="14" lengthAdjust="spacing" textLength="157" x="148.5" y="1005.5918">+setSkillName(skillName)</text><text fill="#000000" font-family="sans-serif" font-size="14" lengthAdjust="spacing" textLength="148" x="148.5" y="1024.2129">-validateSkill(skillName)</text><text fill="#000000" font-family="sans-serif" font-size="14" lengthAdjust="spacing" textLength="52" x="148.5" y="1042.834">+clone()</text></g><!--link Repositories to Repositories--><g id="link_Repositories_Repositories"><path codeLine="55" d="M201.28,542.7911 C221.48,544.3511 236,549.2911 236,557.6211 C236,565.9511 227.4622,570.4291 207.2622,571.9891 " fill="none" id="Repositories-to-Repositories" style="stroke:#181818;stroke-width:1.0;"/><polygon fill="#181818" points="201.28,572.4511,210.5613,575.7462,206.2652,572.0661,209.9453,567.77,201.28,572.4511" style="stroke:#181818;stroke-width:1.0;"/><text fill="#000000" font-family="sans-serif" font-size="13" lengthAdjust="spacing" textLength="49" x="242" y="563.1494">instance</text></g><!--link Repositories to SkillRepository--><g id="link_Repositories_SkillRepository"><path codeLine="56" d="M138.59,609.6611 C151.38,628.5311 162.7334,645.2946 176.4534,665.5346 " fill="none" id="Repositories-to-SkillRepository" style="stroke:#181818;stroke-width:1.0;"/><polygon fill="#181818" points="179.82,670.5011,178.0811,660.807,177.0145,666.3624,171.4591,665.2958,179.82,670.5011" style="stroke:#181818;stroke-width:1.0;"/><text fill="#000000" font-family="sans-serif" font-size="13" lengthAdjust="spacing" textLength="7" x="167.5936" y="659.3797">1</text></g><!--link RegisterSkillController to SkillRepository--><g id="link_RegisterSkillController_SkillRepository"><path codeLine="57" d="M257.73,426.7811 C276.92,464.3511 298,505.6211 298,505.6211 C298,505.6211 298,609.6211 298,609.6211 C298,609.6211 284.7485,633.9912 267.8585,665.0212 " fill="none" id="RegisterSkillController-to-SkillRepository" style="stroke:#181818;stroke-width:1.0;stroke-dasharray:7.0,7.0;"/><polygon fill="#181818" points="264.99,670.2911,272.806,664.2986,267.3804,665.8995,265.7794,660.4739,264.99,670.2911" style="stroke:#181818;stroke-width:1.0;"/><text fill="#000000" font-family="sans-serif" font-size="13" lengthAdjust="spacing" textLength="85" x="299" y="563.1494">skillRepository</text></g><!--link SkillRepository to Skill--><g id="link_SkillRepository_Skill"><path codeLine="58" d="M227,811.9211 C227,836.7411 227,858.8511 227,884.4011 " fill="none" id="SkillRepository-to-Skill" style="stroke:#181818;stroke-width:1.0;"/><polygon fill="#181818" points="227,890.4011,231,881.4011,227,885.4011,223,881.4011,227,890.4011" style="stroke:#181818;stroke-width:1.0;"/><text fill="#000000" font-family="sans-serif" font-size="13" lengthAdjust="spacing" textLength="23" x="228" y="856.6494">skill</text><text fill="#000000" font-family="sans-serif" font-size="13" lengthAdjust="spacing" textLength="7" x="219.6555" y="833.7646">1</text><text fill="#000000" font-family="sans-serif" font-size="13" lengthAdjust="spacing" textLength="5" x="221.7695" y="879.2766">*</text></g><!--link RegisterSkillController to Repositories--><g id="link_RegisterSkillController_Repositories"><path codeLine="59" d="M188.08,426.7411 C171.68,452.0711 156.0609,476.2046 140.3409,500.4846 " fill="none" id="RegisterSkillController-to-Repositories" style="stroke:#181818;stroke-width:1.0;stroke-dasharray:7.0,7.0;"/><polygon fill="#181818" points="137.08,505.5211,145.329,500.1402,139.7974,501.324,138.6136,495.7924,137.08,505.5211" style="stroke:#181818;stroke-width:1.0;"/><text fill="#000000" font-family="sans-serif" font-size="13" lengthAdjust="spacing" textLength="67" x="167" y="471.6494">repositories</text></g><!--link RegisterSkillUI to RegisterSkillController--><g id="link_RegisterSkillUI_RegisterSkillController"><path codeLine="60" d="M227,243.8711 C227,264.5511 227,279.7811 227,298.5711 " fill="none" id="RegisterSkillUI-to-RegisterSkillController" style="stroke:#181818;stroke-width:1.0;stroke-dasharray:7.0,7.0;"/><polygon fill="#181818" points="227,304.5711,231,295.5711,227,299.5711,223,295.5711,227,304.5711" style="stroke:#181818;stroke-width:1.0;"/></g><!--SRC=[ZLJBRjim4BppAnQvEAdXmBaQXO70kHW8SeYG3s2aZRmmHIhageLRzDzBFKnJjEL4D-xCxim-e9dRawwbbHLKHfjyPqs5mBP1SK9gcUzbYHaV58B5dAKkLKnmErcOtwHB-93AnOWYZNoe4MgZ3kr3p2w0nhA9ad8bdNjajlJUC6vpepFwWx0KCuKV36p0KhbZAAWrGqOBmSJUsrksN3x00ZPj0NWYMVfoGdJru1LBSemssvDIRrluAy1_2yYyZdVksl2Bh51qyNdAlxqR-2NoncYsHYcqGtGEjj61uPhtYlX9iWmXYvyDkeknx2WSW5zIKI4PE-Gs6BiJ_oxsSd8pz3IVmeFRARpJUiNQE69Z3r7BsHWvzHrNcl0w916wCFGu66fvcQrs_hfoFmjOZKWdohcJ89L0GUtPM_pPWUj-pstWkEUfpcHHzFrSMSltfz0XNzxSMVwuw-XAvk3YO99ovORwv5mPZVteHljPhCVxMW4D6qbuddZpS9CEJqmTvltz-cmxAqZEJQICLg5J-Z4e7NEkwYGDsFYAqfz0pxzOI_m7]--></g></svg>