<?xml version="1.0" encoding="us-ascii" standalone="no"?><svg xmlns="http://www.w3.org/2000/svg" xmlns:xlink="http://www.w3.org/1999/xlink" contentStyleType="text/css" height="1088px" preserveAspectRatio="none" style="width:1211px;height:1088px;background:#FFFFFF;" version="1.1" viewBox="0 0 1211 1088" width="1211px" zoomAndPan="magnify"><defs/><g><text fill="#000000" font-family="sans-serif" font-size="14" font-weight="bold" lengthAdjust="spacing" textLength="188" x="511" y="30.1074">US001 - Sequence Diagram</text><rect fill="#FFFFFF" height="863.0234" style="stroke:#181818;stroke-width:1.0;" width="10" x="33" y="133.2422"/><rect fill="#FFFFFF" height="57.582" style="stroke:#181818;stroke-width:1.0;" width="10" x="335" y="156.5332"/><rect fill="#FFFFFF" height="132.582" style="stroke:#181818;stroke-width:1.0;" width="10" x="335" y="245.4063"/><rect fill="#FFFFFF" height="577.9863" style="stroke:#181818;stroke-width:1.0;" width="10" x="335" y="409.2793"/><rect fill="#FFFFFF" height="515.4043" style="stroke:#181818;stroke-width:1.0;" width="10" x="508" y="440.5703"/><rect fill="#FFFFFF" height="31.291" style="stroke:#181818;stroke-width:1.0;" width="10" x="640" y="471.8613"/><rect fill="#FFFFFF" height="31.291" style="stroke:#181818;stroke-width:1.0;" width="10" x="741" y="534.4434"/><rect fill="#FFFFFF" height="327.6582" style="stroke:#181818;stroke-width:1.0;" width="10" x="855.5" y="597.0254"/><rect fill="none" height="106.873" style="stroke:#000000;stroke-width:1.5;" width="394" x="10" y="171.5332"/><line style="stroke:#181818;stroke-width:0.5;stroke-dasharray:5.0,5.0;" x1="38" x2="38" y1="123.2422" y2="1005.2656"/><line style="stroke:#181818;stroke-width:0.5;stroke-dasharray:5.0,5.0;" x1="340" x2="340" y1="123.2422" y2="1005.2656"/><line style="stroke:#181818;stroke-width:0.5;stroke-dasharray:5.0,5.0;" x1="513" x2="513" y1="123.2422" y2="1005.2656"/><line style="stroke:#181818;stroke-width:0.5;stroke-dasharray:5.0,5.0;" x1="645" x2="645" y1="123.2422" y2="1005.2656"/><line style="stroke:#181818;stroke-width:0.5;stroke-dasharray:5.0,5.0;" x1="746" x2="746" y1="123.2422" y2="1005.2656"/><line style="stroke:#181818;stroke-width:0.5;stroke-dasharray:5.0,5.0;" x1="860" x2="860" y1="123.2422" y2="1005.2656"/><line style="stroke:#181818;stroke-width:0.5;stroke-dasharray:5.0,5.0;" x1="1045.5" x2="1045.5" y1="636.8359" y2="1005.2656"/><text fill="#000000" font-family="sans-serif" font-size="14" lengthAdjust="spacing" textLength="30" x="20" y="119.7285">HRM</text><ellipse cx="38" cy="53.1211" fill="#E3E3E3" rx="8" ry="8" style="stroke:#181818;stroke-width:0.5;"/><path d="M38,61.1211 L38,88.1211 M25,69.1211 L51,69.1211 M38,88.1211 L25,103.1211 M38,88.1211 L51,103.1211 " fill="none" style="stroke:#181818;stroke-width:0.5;"/><text fill="#000000" font-family="sans-serif" font-size="14" lengthAdjust="spacing" textLength="30" x="20" y="1019.373">HRM</text><ellipse cx="38" cy="1031.3867" fill="#E3E3E3" rx="8" ry="8" style="stroke:#181818;stroke-width:0.5;"/><path d="M38,1039.3867 L38,1066.3867 M25,1047.3867 L51,1047.3867 M38,1066.3867 L25,1081.3867 M38,1066.3867 L51,1081.3867 " fill="none" style="stroke:#181818;stroke-width:0.5;"/><rect fill="#E3E3E3" height="32.6211" rx="2.5" ry="2.5" style="stroke:#181818;stroke-width:0.5;" width="108" x="286" y="89.6211"/><text fill="#000000" font-family="sans-serif" font-size="14" lengthAdjust="spacing" textLength="94" x="293" y="111.7285">:RegisterSkillUI</text><rect fill="#E3E3E3" height="32.6211" rx="2.5" ry="2.5" style="stroke:#181818;stroke-width:0.5;" width="108" x="286" y="1004.2656"/><text fill="#000000" font-family="sans-serif" font-size="14" lengthAdjust="spacing" textLength="94" x="293" y="1026.373">:RegisterSkillUI</text><rect fill="#E3E3E3" height="32.6211" rx="2.5" ry="2.5" style="stroke:#181818;stroke-width:0.5;" width="158" x="434" y="89.6211"/><text fill="#000000" font-family="sans-serif" font-size="14" lengthAdjust="spacing" textLength="144" x="441" y="111.7285">:RegisterSkillController</text><rect fill="#E3E3E3" height="32.6211" rx="2.5" ry="2.5" style="stroke:#181818;stroke-width:0.5;" width="158" x="434" y="1004.2656"/><text fill="#000000" font-family="sans-serif" font-size="14" lengthAdjust="spacing" textLength="144" x="441" y="1026.373">:RegisterSkillController</text><rect fill="#E3E3E3" height="32.6211" rx="2.5" ry="2.5" style="stroke:#181818;stroke-width:0.5;" width="86" x="602" y="89.6211"/><text fill="#000000" font-family="sans-serif" font-size="14" lengthAdjust="spacing" textLength="72" x="609" y="111.7285">:Repository</text><rect fill="#E3E3E3" height="32.6211" rx="2.5" ry="2.5" style="stroke:#181818;stroke-width:0.5;" width="86" x="602" y="1004.2656"/><text fill="#000000" font-family="sans-serif" font-size="14" lengthAdjust="spacing" textLength="72" x="609" y="1026.373">:Repository</text><rect fill="#E3E3E3" height="51.2422" rx="2.5" ry="2.5" style="stroke:#181818;stroke-width:0.5;" width="96" x="698" y="71"/><text fill="#000000" font-family="sans-serif" font-size="14" lengthAdjust="spacing" textLength="78" x="705" y="93.1074">:repositories</text><text fill="#000000" font-family="sans-serif" font-size="14" lengthAdjust="spacing" textLength="79" x="706.5" y="111.7285">Repositories</text><rect fill="#E3E3E3" height="51.2422" rx="2.5" ry="2.5" style="stroke:#181818;stroke-width:0.5;" width="96" x="698" y="1004.2656"/><text fill="#000000" font-family="sans-serif" font-size="14" lengthAdjust="spacing" textLength="78" x="705" y="1026.373">:repositories</text><text fill="#000000" font-family="sans-serif" font-size="14" lengthAdjust="spacing" textLength="79" x="706.5" y="1044.9941">Repositories</text><rect fill="#E3E3E3" height="51.2422" rx="2.5" ry="2.5" style="stroke:#181818;stroke-width:0.5;" width="113" x="804" y="71"/><text fill="#000000" font-family="sans-serif" font-size="14" lengthAdjust="spacing" textLength="95" x="811" y="93.1074">:skillRepository</text><text fill="#000000" font-family="sans-serif" font-size="14" lengthAdjust="spacing" textLength="93" x="814" y="111.7285">SkillRepository</text><rect fill="#E3E3E3" height="51.2422" rx="2.5" ry="2.5" style="stroke:#181818;stroke-width:0.5;" width="113" x="804" y="1004.2656"/><text fill="#000000" font-family="sans-serif" font-size="14" lengthAdjust="spacing" textLength="95" x="811" y="1026.373">:skillRepository</text><text fill="#000000" font-family="sans-serif" font-size="14" lengthAdjust="spacing" textLength="93" x="814" y="1044.9941">SkillRepository</text><rect fill="#E3E3E3" height="32.6211" rx="2.5" ry="2.5" style="stroke:#181818;stroke-width:0.5;" width="43" x="1024.5" y="1004.2656"/><text fill="#000000" font-family="sans-serif" font-size="14" lengthAdjust="spacing" textLength="29" x="1031.5" y="1026.373">:Skill</text><rect fill="#FFFFFF" height="863.0234" style="stroke:#181818;stroke-width:1.0;" width="10" x="33" y="133.2422"/><rect fill="#FFFFFF" height="57.582" style="stroke:#181818;stroke-width:1.0;" width="10" x="335" y="156.5332"/><rect fill="#FFFFFF" height="132.582" style="stroke:#181818;stroke-width:1.0;" width="10" x="335" y="245.4063"/><rect fill="#FFFFFF" height="577.9863" style="stroke:#181818;stroke-width:1.0;" width="10" x="335" y="409.2793"/><rect fill="#FFFFFF" height="515.4043" style="stroke:#181818;stroke-width:1.0;" width="10" x="508" y="440.5703"/><rect fill="#FFFFFF" height="31.291" style="stroke:#181818;stroke-width:1.0;" width="10" x="640" y="471.8613"/><rect fill="#FFFFFF" height="31.291" style="stroke:#181818;stroke-width:1.0;" width="10" x="741" y="534.4434"/><rect fill="#FFFFFF" height="327.6582" style="stroke:#181818;stroke-width:1.0;" width="10" x="855.5" y="597.0254"/><polygon fill="#181818" points="323,152.5332,333,156.5332,323,160.5332,327,156.5332" style="stroke:#181818;stroke-width:1.0;"/><line style="stroke:#181818;stroke-width:1.0;" x1="43" x2="329" y1="156.5332" y2="156.5332"/><text fill="#000000" font-family="sans-serif" font-size="13" font-weight="bold" lengthAdjust="spacing" textLength="7" x="50" y="151.2705">1</text><text fill="#000000" font-family="sans-serif" font-size="13" lengthAdjust="spacing" textLength="157" x="61" y="151.2705">Asks to register a new skill</text><path d="M10,171.5332 L83,171.5332 L83,180.8242 L73,190.8242 L10,190.8242 L10,171.5332 " fill="#EEEEEE" style="stroke:#000000;stroke-width:1.5;"/><rect fill="none" height="106.873" style="stroke:#000000;stroke-width:1.5;" width="394" x="10" y="171.5332"/><text fill="#000000" font-family="sans-serif" font-size="13" font-weight="bold" lengthAdjust="spacing" textLength="28" x="25" y="186.5615">loop</text><text fill="#000000" font-family="sans-serif" font-size="11" font-weight="bold" lengthAdjust="spacing" textLength="157" x="98" y="185.4033">[until typed data is validated]</text><polygon fill="#181818" points="54,210.1152,44,214.1152,54,218.1152,50,214.1152" style="stroke:#181818;stroke-width:1.0;"/><line style="stroke:#181818;stroke-width:1.0;stroke-dasharray:2.0,2.0;" x1="48" x2="339" y1="214.1152" y2="214.1152"/><text fill="#000000" font-family="sans-serif" font-size="13" font-weight="bold" lengthAdjust="spacing" textLength="7" x="60" y="208.8525">2</text><text fill="#000000" font-family="sans-serif" font-size="13" lengthAdjust="spacing" textLength="155" x="71" y="208.8525">Requests data (skill name)</text><polygon fill="#181818" points="323,241.4063,333,245.4063,323,249.4063,327,245.4063" style="stroke:#181818;stroke-width:1.0;"/><line style="stroke:#181818;stroke-width:1.0;" x1="43" x2="329" y1="245.4063" y2="245.4063"/><text fill="#000000" font-family="sans-serif" font-size="13" font-weight="bold" lengthAdjust="spacing" textLength="7" x="50" y="240.1436">3</text><text fill="#000000" font-family="sans-serif" font-size="13" lengthAdjust="spacing" textLength="125" x="61" y="240.1436">Types requested data</text><line style="stroke:#181818;stroke-width:1.0;stroke-dasharray:2.0,2.0;" x1="345" x2="387" y1="308.6973" y2="308.6973"/><line style="stroke:#181818;stroke-width:1.0;stroke-dasharray:2.0,2.0;" x1="387" x2="387" y1="308.6973" y2="321.6973"/><line style="stroke:#181818;stroke-width:1.0;stroke-dasharray:2.0,2.0;" x1="346" x2="387" y1="321.6973" y2="321.6973"/><polygon fill="#181818" points="356,317.6973,346,321.6973,356,325.6973,352,321.6973" style="stroke:#181818;stroke-width:1.0;"/><text fill="#000000" font-family="sans-serif" font-size="13" font-weight="bold" lengthAdjust="spacing" textLength="7" x="352" y="303.4346">4</text><text fill="#000000" font-family="sans-serif" font-size="13" lengthAdjust="spacing" textLength="120" x="363" y="303.4346">keepData(skillName)</text><polygon fill="#181818" points="54,373.9883,44,377.9883,54,381.9883,50,377.9883" style="stroke:#181818;stroke-width:1.0;"/><line style="stroke:#181818;stroke-width:1.0;stroke-dasharray:2.0,2.0;" x1="48" x2="339" y1="377.9883" y2="377.9883"/><text fill="#000000" font-family="sans-serif" font-size="13" font-weight="bold" lengthAdjust="spacing" textLength="7" x="60" y="372.7256">5</text><text fill="#000000" font-family="sans-serif" font-size="13" lengthAdjust="spacing" textLength="257" x="71" y="372.7256">Shows typed data and requests confirmation</text><polygon fill="#181818" points="323,405.2793,333,409.2793,323,413.2793,327,409.2793" style="stroke:#181818;stroke-width:1.0;"/><line style="stroke:#181818;stroke-width:1.0;" x1="43" x2="329" y1="409.2793" y2="409.2793"/><text fill="#000000" font-family="sans-serif" font-size="13" font-weight="bold" lengthAdjust="spacing" textLength="7" x="50" y="404.0166">6</text><text fill="#000000" font-family="sans-serif" font-size="13" lengthAdjust="spacing" textLength="155" x="61" y="404.0166">Confirms data and submits</text><polygon fill="#181818" points="496,436.5703,506,440.5703,496,444.5703,500,440.5703" style="stroke:#181818;stroke-width:1.0;"/><line style="stroke:#181818;stroke-width:1.0;" x1="345" x2="502" y1="440.5703" y2="440.5703"/><text fill="#000000" font-family="sans-serif" font-size="13" font-weight="bold" lengthAdjust="spacing" textLength="7" x="352" y="435.3076">7</text><text fill="#000000" font-family="sans-serif" font-size="13" lengthAdjust="spacing" textLength="133" x="363" y="435.3076">registerSkill(skillName)</text><polygon fill="#181818" points="628,467.8613,638,471.8613,628,475.8613,632,471.8613" style="stroke:#181818;stroke-width:1.0;"/><line style="stroke:#181818;stroke-width:1.0;" x1="518" x2="634" y1="471.8613" y2="471.8613"/><text fill="#000000" font-family="sans-serif" font-size="13" font-weight="bold" lengthAdjust="spacing" textLength="7" x="525" y="466.5986">8</text><text fill="#000000" font-family="sans-serif" font-size="13" lengthAdjust="spacing" textLength="75" x="536" y="466.5986">getInstance()</text><polygon fill="#181818" points="529,499.1523,519,503.1523,529,507.1523,525,503.1523" style="stroke:#181818;stroke-width:1.0;"/><line style="stroke:#181818;stroke-width:1.0;stroke-dasharray:2.0,2.0;" x1="523" x2="644" y1="503.1523" y2="503.1523"/><text fill="#000000" font-family="sans-serif" font-size="13" font-weight="bold" lengthAdjust="spacing" textLength="7" x="535" y="497.8896">9</text><text fill="#000000" font-family="sans-serif" font-size="13" lengthAdjust="spacing" textLength="67" x="546" y="497.8896">repositories</text><polygon fill="#181818" points="729,530.4434,739,534.4434,729,538.4434,733,534.4434" style="stroke:#181818;stroke-width:1.0;"/><line style="stroke:#181818;stroke-width:1.0;" x1="518" x2="735" y1="534.4434" y2="534.4434"/><text fill="#000000" font-family="sans-serif" font-size="13" font-weight="bold" lengthAdjust="spacing" textLength="14" x="525" y="529.1807">10</text><text fill="#000000" font-family="sans-serif" font-size="13" lengthAdjust="spacing" textLength="113" x="543" y="529.1807">getSkillRepository()</text><polygon fill="#181818" points="529,561.7344,519,565.7344,529,569.7344,525,565.7344" style="stroke:#181818;stroke-width:1.0;"/><line style="stroke:#181818;stroke-width:1.0;stroke-dasharray:2.0,2.0;" x1="523" x2="745" y1="565.7344" y2="565.7344"/><text fill="#000000" font-family="sans-serif" font-size="13" font-weight="bold" lengthAdjust="spacing" textLength="14" x="535" y="560.4717">11</text><text fill="#000000" font-family="sans-serif" font-size="13" lengthAdjust="spacing" textLength="85" x="553" y="560.4717">skillRepository</text><polygon fill="#181818" points="843.5,593.0254,853.5,597.0254,843.5,601.0254,847.5,597.0254" style="stroke:#181818;stroke-width:1.0;"/><line style="stroke:#181818;stroke-width:1.0;" x1="518" x2="849.5" y1="597.0254" y2="597.0254"/><text fill="#000000" font-family="sans-serif" font-size="13" font-weight="bold" lengthAdjust="spacing" textLength="14" x="525" y="591.7627">12</text><text fill="#000000" font-family="sans-serif" font-size="13" lengthAdjust="spacing" textLength="133" x="543" y="591.7627">registerSkill(skillName)</text><polygon fill="#181818" points="1012.5,624.3164,1022.5,628.3164,1012.5,632.3164,1016.5,628.3164" style="stroke:#181818;stroke-width:1.0;"/><line style="stroke:#181818;stroke-width:1.0;" x1="865.5" x2="1018.5" y1="628.3164" y2="628.3164"/><text fill="#000000" font-family="sans-serif" font-size="13" font-weight="bold" lengthAdjust="spacing" textLength="14" x="872.5" y="623.0537">13</text><text fill="#000000" font-family="sans-serif" font-size="13" lengthAdjust="spacing" textLength="117" x="890.5" y="623.0537">new Skill(skillName)</text><rect fill="#E3E3E3" height="32.6211" rx="2.5" ry="2.5" style="stroke:#181818;stroke-width:0.5;" width="43" x="1024.5" y="605.0254"/><text fill="#000000" font-family="sans-serif" font-size="14" lengthAdjust="spacing" textLength="29" x="1031.5" y="627.1328">:Skill</text><line style="stroke:#181818;stroke-width:1.0;stroke-dasharray:2.0,2.0;" x1="1046" x2="1088" y1="671.9375" y2="671.9375"/><line style="stroke:#181818;stroke-width:1.0;stroke-dasharray:2.0,2.0;" x1="1088" x2="1088" y1="671.9375" y2="684.9375"/><line style="stroke:#181818;stroke-width:1.0;stroke-dasharray:2.0,2.0;" x1="1047" x2="1088" y1="684.9375" y2="684.9375"/><polygon fill="#181818" points="1057,680.9375,1047,684.9375,1057,688.9375,1053,684.9375" style="stroke:#181818;stroke-width:1.0;"/><text fill="#000000" font-family="sans-serif" font-size="13" font-weight="bold" lengthAdjust="spacing" textLength="14" x="1053" y="666.6748">14</text><text fill="#000000" font-family="sans-serif" font-size="13" lengthAdjust="spacing" textLength="133" x="1071" y="666.6748">validateSkill(skillName)</text><line style="stroke:#181818;stroke-width:1.0;stroke-dasharray:2.0,2.0;" x1="865.5" x2="907.5" y1="788.665" y2="788.665"/><line style="stroke:#181818;stroke-width:1.0;stroke-dasharray:2.0,2.0;" x1="907.5" x2="907.5" y1="788.665" y2="801.665"/><line style="stroke:#181818;stroke-width:1.0;stroke-dasharray:2.0,2.0;" x1="866.5" x2="907.5" y1="801.665" y2="801.665"/><polygon fill="#181818" points="876.5,797.665,866.5,801.665,876.5,805.665,872.5,801.665" style="stroke:#181818;stroke-width:1.0;"/><text fill="#000000" font-family="sans-serif" font-size="13" font-weight="bold" lengthAdjust="spacing" textLength="14" x="872.5" y="783.4023">15</text><text fill="#000000" font-family="sans-serif" font-size="13" lengthAdjust="spacing" textLength="99" x="890.5" y="783.4023">validateSkill(skill)</text><path d="M1001,747.9375 L1001,826.9375 L1152,826.9375 L1152,757.9375 L1142,747.9375 L1001,747.9375 " fill="#FAFAFA" style="stroke:#181818;stroke-width:0.5;"/><path d="M1142,747.9375 L1142,757.9375 L1152,757.9375 L1142,747.9375 " fill="#FAFAFA" style="stroke:#181818;stroke-width:0.5;"/><text fill="#000000" font-family="sans-serif" font-size="13" lengthAdjust="spacing" textLength="123" x="1007" y="766.9658">Validate if this skill is</text><text fill="#000000" font-family="sans-serif" font-size="13" lengthAdjust="spacing" textLength="130" x="1007" y="784.2568">already in the skillList.</text><text fill="#000000" font-family="sans-serif" font-size="13" lengthAdjust="spacing" textLength="4" x="1007" y="801.5479">&#160;</text><text fill="#000000" font-family="sans-serif" font-size="13" lengthAdjust="spacing" textLength="113" x="1007" y="818.8389">adds the skill if not.</text><line style="stroke:#181818;stroke-width:1.0;stroke-dasharray:2.0,2.0;" x1="865.5" x2="907.5" y1="855.3926" y2="855.3926"/><line style="stroke:#181818;stroke-width:1.0;stroke-dasharray:2.0,2.0;" x1="907.5" x2="907.5" y1="855.3926" y2="868.3926"/><line style="stroke:#181818;stroke-width:1.0;stroke-dasharray:2.0,2.0;" x1="866.5" x2="907.5" y1="868.3926" y2="868.3926"/><polygon fill="#181818" points="876.5,864.3926,866.5,868.3926,876.5,872.3926,872.5,868.3926" style="stroke:#181818;stroke-width:1.0;"/><text fill="#000000" font-family="sans-serif" font-size="13" font-weight="bold" lengthAdjust="spacing" textLength="14" x="872.5" y="850.1299">16</text><text fill="#000000" font-family="sans-serif" font-size="13" lengthAdjust="spacing" textLength="52" x="890.5" y="850.1299">add(skill)</text><polygon fill="#181818" points="529,920.6836,519,924.6836,529,928.6836,525,924.6836" style="stroke:#181818;stroke-width:1.0;"/><line style="stroke:#181818;stroke-width:1.0;stroke-dasharray:2.0,2.0;" x1="523" x2="859.5" y1="924.6836" y2="924.6836"/><text fill="#000000" font-family="sans-serif" font-size="13" font-weight="bold" lengthAdjust="spacing" textLength="14" x="535" y="919.4209">17</text><text fill="#000000" font-family="sans-serif" font-size="13" lengthAdjust="spacing" textLength="106" x="553" y="919.4209">operation success</text><polygon fill="#181818" points="356,951.9746,346,955.9746,356,959.9746,352,955.9746" style="stroke:#181818;stroke-width:1.0;"/><line style="stroke:#181818;stroke-width:1.0;stroke-dasharray:2.0,2.0;" x1="350" x2="512" y1="955.9746" y2="955.9746"/><text fill="#000000" font-family="sans-serif" font-size="13" font-weight="bold" lengthAdjust="spacing" textLength="14" x="362" y="950.7119">18</text><text fill="#000000" font-family="sans-serif" font-size="13" lengthAdjust="spacing" textLength="106" x="380" y="950.7119">operation success</text><polygon fill="#181818" points="54,983.2656,44,987.2656,54,991.2656,50,987.2656" style="stroke:#181818;stroke-width:1.0;"/><line style="stroke:#181818;stroke-width:1.0;stroke-dasharray:2.0,2.0;" x1="48" x2="339" y1="987.2656" y2="987.2656"/><text fill="#000000" font-family="sans-serif" font-size="13" font-weight="bold" lengthAdjust="spacing" textLength="14" x="60" y="982.0029">19</text><text fill="#000000" font-family="sans-serif" font-size="13" lengthAdjust="spacing" textLength="160" x="78" y="982.0029">Displays operation success</text><!--SRC=[bLHDRzim3BthLn0zjGLITDSS2WnjW1NOXi9QTzf5jLb7Y2nvejB2G7_yA3d-cEqaco-MARwdHvfFjDEsLbvLK3dhygrt5KBmUnJKxzGgtwaIPMWCWiSyA5kQSG9jLU7UjItXLHb28O8EdFeiRsy_mGea_jwZpH4Uj2evNmYr3yxkgnVqlCw3yt3n9Vjs0OfWKzN6DOY2gOFETQriW8jrXgMcW5xkj37FZobLDXofJYNUEnkyCmPz0cJoVfPTEz8ie6aJDa-J1DybQ2JuPRFHPuUG4mZ5amTYHic_8wtuR09BIUrMNAN6w3SLS6Y907wwBrZT7Je0Q_XCEuBW-E-qrOC2Y- -Gf2HKJtPecd6kXhqDsa1eQYoWK4619dXJHlCQYmIBp-6G5P_Ndxs6BFvK2jG2BzD9O5M5LmbOuFJ4u-9_i01YwOdm86LHT8nzV7oaDzf2B4diMNU8zGCpjTA-zyewaZFroQrxft5lb2qwZGIviw_QLofePyL_5tpVecaWflrBfGCThNgiyoxECRFuyQGlLTaJnRdlezqJIIBNvecvIWoFbjZOELvUpNC79ZR8Z8WPLYDLWqDcgQCcBJBracIhQMASSzBaaZOv4ZUnvXbzycZJPFOl_Pz9PC_FDfag4aRqzJMpHjkUPKm9xRYdrRgtxGmwmtO6ciQMfNN5Bl0pjn3MSLrUbziWVXvIGBz2sF9Lqju9ceGo7bNHWBQyWMtyA_VkXY-veg0X6A7CU2FOtN61fqKnk9EoMD4HR3iBhaQV_ClcotEaazCw_NDf3iQMdhCDWF5KZPsuVF4yQAgDQkY4mFbTymS0]--></g></svg>