<?xml version="1.0" encoding="us-ascii" standalone="no"?><svg xmlns="http://www.w3.org/2000/svg" xmlns:xlink="http://www.w3.org/1999/xlink" contentStyleType="text/css" height="940.8px" preserveAspectRatio="none" style="width:963px;height:940px;background:#FFFFFF;" version="1.1" viewBox="0 0 963 940" width="963.2px" zoomAndPan="magnify"><defs/><g><text fill="#000000" font-family="sans-serif" font-size="9.8" font-weight="bold" lengthAdjust="spacing" textLength="198.8" x="384.65" y="21.0752">US005 - System Sequence Diagram (SSD)</text><rect fill="#FFFFFF" height="783.5187" style="stroke:#181818;stroke-width:0.6999999999999998;" width="7" x="30.1" y="93.2695"/><rect fill="#FFFFFF" height="21.9037" style="stroke:#181818;stroke-width:0.6999999999999998;" width="7" x="263.9" y="109.5732"/><rect fill="#FFFFFF" height="264.0408" style="stroke:#181818;stroke-width:0.6999999999999998;" width="7" x="263.9" y="171.7844"/><rect fill="#FFFFFF" height="159.2186" style="stroke:#181818;stroke-width:0.6999999999999998;" width="7" x="263.9" y="469.8326"/><rect fill="#FFFFFF" height="219.5334" style="stroke:#181818;stroke-width:0.6999999999999998;" width="7" x="263.9" y="650.9549"/><rect fill="#FFFFFF" height="153.326" style="stroke:#181818;stroke-width:0.6999999999999998;" width="7" x="427.7" y="260.5955"/><rect fill="#FFFFFF" height="175.726" style="stroke:#181818;stroke-width:0.6999999999999998;" width="7" x="427.7" y="672.8586"/><rect fill="#FFFFFF" height="21.9037" style="stroke:#181818;stroke-width:0.6999999999999998;" width="7" x="525" y="282.4992"/><rect fill="#FFFFFF" height="21.9037" style="stroke:#181818;stroke-width:0.6999999999999998;" width="7" x="525" y="694.7623"/><rect fill="#FFFFFF" height="21.9037" style="stroke:#181818;stroke-width:0.6999999999999998;" width="7" x="595.7" y="326.3066"/><rect fill="#FFFFFF" height="21.9037" style="stroke:#181818;stroke-width:0.6999999999999998;" width="7" x="595.7" y="738.5697"/><rect fill="#FFFFFF" height="21.9037" style="stroke:#181818;stroke-width:0.6999999999999998;" width="7" x="675.85" y="370.1141"/><rect fill="#FFFFFF" height="21.9037" style="stroke:#181818;stroke-width:0.6999999999999998;" width="7" x="760.2" y="782.3771"/><rect fill="none" height="404.3594" style="stroke:#000000;stroke-width:1.0499999999999998;" width="725.9" x="7" y="141.977"/><rect fill="none" height="293.1482" style="stroke:#000000;stroke-width:1.0499999999999998;" width="711.9" x="14" y="199.7844"/><rect fill="none" height="253.7445" style="stroke:#000000;stroke-width:1.0499999999999998;" width="794.5" x="14" y="556.1363"/><line style="stroke:#181818;stroke-width:0.3499999999999999;stroke-dasharray:5.0,5.0;" x1="33.6" x2="33.6" y1="86.2695" y2="883.0883"/><line style="stroke:#181818;stroke-width:0.3499999999999999;stroke-dasharray:5.0,5.0;" x1="267.4" x2="267.4" y1="86.2695" y2="883.0883"/><line style="stroke:#181818;stroke-width:0.3499999999999999;stroke-dasharray:5.0,5.0;" x1="431.2" x2="431.2" y1="86.2695" y2="883.0883"/><line style="stroke:#181818;stroke-width:0.3499999999999999;stroke-dasharray:5.0,5.0;" x1="528.5" x2="528.5" y1="86.2695" y2="883.0883"/><line style="stroke:#181818;stroke-width:0.3499999999999999;stroke-dasharray:5.0,5.0;" x1="599.2" x2="599.2" y1="86.2695" y2="883.0883"/><line style="stroke:#181818;stroke-width:0.3499999999999999;stroke-dasharray:5.0,5.0;" x1="679" x2="679" y1="86.2695" y2="883.0883"/><line style="stroke:#181818;stroke-width:0.3499999999999999;stroke-dasharray:5.0,5.0;" x1="763.7" x2="763.7" y1="86.2695" y2="883.0883"/><text fill="#000000" font-family="sans-serif" font-size="9.8" lengthAdjust="spacing" textLength="21" x="21" y="83.81">HRM</text><ellipse cx="33.6" cy="37.1848" fill="#E3E3E3" rx="5.6" ry="5.6" style="stroke:#181818;stroke-width:0.3499999999999999;"/><path d="M33.6,42.7848 L33.6,61.6848 M24.5,48.3848 L42.7,48.3848 M33.6,61.6848 L24.5,72.1848 M33.6,61.6848 L42.7,72.1848 " fill="none" style="stroke:#181818;stroke-width:0.3499999999999999;"/><text fill="#000000" font-family="sans-serif" font-size="9.8" lengthAdjust="spacing" textLength="21" x="21" y="892.9635">HRM</text><ellipse cx="33.6" cy="901.373" fill="#E3E3E3" rx="5.6" ry="5.6" style="stroke:#181818;stroke-width:0.3499999999999999;"/><path d="M33.6,906.973 L33.6,925.873 M24.5,912.573 L42.7,912.573 M33.6,925.873 L24.5,936.373 M33.6,925.873 L42.7,936.373 " fill="none" style="stroke:#181818;stroke-width:0.3499999999999999;"/><rect fill="#E3E3E3" height="22.8348" rx="1.75" ry="1.75" style="stroke:#181818;stroke-width:0.3499999999999999;" width="85.4" x="224.7" y="62.7348"/><text fill="#000000" font-family="sans-serif" font-size="9.8" lengthAdjust="spacing" textLength="75.6" x="229.6" y="78.21">:TeamProposalUI</text><rect fill="#E3E3E3" height="22.8348" rx="1.75" ry="1.75" style="stroke:#181818;stroke-width:0.3499999999999999;" width="85.4" x="224.7" y="882.3883"/><text fill="#000000" font-family="sans-serif" font-size="9.8" lengthAdjust="spacing" textLength="75.6" x="229.6" y="897.8635">:TeamProposalUI</text><rect fill="#E3E3E3" height="22.8348" rx="1.75" ry="1.75" style="stroke:#181818;stroke-width:0.3499999999999999;" width="120.4" x="371" y="62.7348"/><text fill="#000000" font-family="sans-serif" font-size="9.8" lengthAdjust="spacing" textLength="110.6" x="375.9" y="78.21">:TeamProposalController</text><rect fill="#E3E3E3" height="22.8348" rx="1.75" ry="1.75" style="stroke:#181818;stroke-width:0.3499999999999999;" width="120.4" x="371" y="882.3883"/><text fill="#000000" font-family="sans-serif" font-size="9.8" lengthAdjust="spacing" textLength="110.6" x="375.9" y="897.8635">:TeamProposalController</text><rect fill="#E3E3E3" height="22.8348" rx="1.75" ry="1.75" style="stroke:#181818;stroke-width:0.3499999999999999;" width="60.2" x="498.4" y="62.7348"/><text fill="#000000" font-family="sans-serif" font-size="9.8" lengthAdjust="spacing" textLength="50.4" x="503.3" y="78.21">:Repository</text><rect fill="#E3E3E3" height="22.8348" rx="1.75" ry="1.75" style="stroke:#181818;stroke-width:0.3499999999999999;" width="60.2" x="498.4" y="882.3883"/><text fill="#000000" font-family="sans-serif" font-size="9.8" lengthAdjust="spacing" textLength="50.4" x="503.3" y="897.8635">:Repository</text><rect fill="#E3E3E3" height="35.8695" rx="1.75" ry="1.75" style="stroke:#181818;stroke-width:0.3499999999999999;" width="67.2" x="565.6" y="49.7"/><text fill="#000000" font-family="sans-serif" font-size="9.8" lengthAdjust="spacing" textLength="54.6" x="570.5" y="65.1752">:repositories</text><text fill="#000000" font-family="sans-serif" font-size="9.8" lengthAdjust="spacing" textLength="55.3" x="571.55" y="78.21">Repositories</text><rect fill="#E3E3E3" height="35.8695" rx="1.75" ry="1.75" style="stroke:#181818;stroke-width:0.3499999999999999;" width="67.2" x="565.6" y="882.3883"/><text fill="#000000" font-family="sans-serif" font-size="9.8" lengthAdjust="spacing" textLength="54.6" x="570.5" y="897.8635">:repositories</text><text fill="#000000" font-family="sans-serif" font-size="9.8" lengthAdjust="spacing" textLength="55.3" x="571.55" y="910.8982">Repositories</text><rect fill="#E3E3E3" height="35.8695" rx="1.75" ry="1.75" style="stroke:#181818;stroke-width:0.3499999999999999;" width="79.1" x="639.8" y="49.7"/><text fill="#000000" font-family="sans-serif" font-size="9.8" lengthAdjust="spacing" textLength="66.5" x="644.7" y="65.1752">:skillRepository</text><text fill="#000000" font-family="sans-serif" font-size="9.8" lengthAdjust="spacing" textLength="65.1" x="646.8" y="78.21">SkillRepository</text><rect fill="#E3E3E3" height="35.8695" rx="1.75" ry="1.75" style="stroke:#181818;stroke-width:0.3499999999999999;" width="79.1" x="639.8" y="882.3883"/><text fill="#000000" font-family="sans-serif" font-size="9.8" lengthAdjust="spacing" textLength="66.5" x="644.7" y="897.8635">:skillRepository</text><text fill="#000000" font-family="sans-serif" font-size="9.8" lengthAdjust="spacing" textLength="65.1" x="646.8" y="910.8982">SkillRepository</text><rect fill="#E3E3E3" height="35.8695" rx="1.75" ry="1.75" style="stroke:#181818;stroke-width:0.3499999999999999;" width="75.6" x="725.9" y="49.7"/><text fill="#000000" font-family="sans-serif" font-size="9.8" lengthAdjust="spacing" textLength="63" x="730.8" y="65.1752">:teamproposal</text><text fill="#000000" font-family="sans-serif" font-size="9.8" lengthAdjust="spacing" textLength="64.4" x="731.5" y="78.21">TeamProposal</text><rect fill="#E3E3E3" height="35.8695" rx="1.75" ry="1.75" style="stroke:#181818;stroke-width:0.3499999999999999;" width="75.6" x="725.9" y="882.3883"/><text fill="#000000" font-family="sans-serif" font-size="9.8" lengthAdjust="spacing" textLength="63" x="730.8" y="897.8635">:teamproposal</text><text fill="#000000" font-family="sans-serif" font-size="9.8" lengthAdjust="spacing" textLength="64.4" x="731.5" y="910.8982">TeamProposal</text><rect fill="#FFFFFF" height="783.5187" style="stroke:#181818;stroke-width:0.6999999999999998;" width="7" x="30.1" y="93.2695"/><rect fill="#FFFFFF" height="21.9037" style="stroke:#181818;stroke-width:0.6999999999999998;" width="7" x="263.9" y="109.5732"/><rect fill="#FFFFFF" height="264.0408" style="stroke:#181818;stroke-width:0.6999999999999998;" width="7" x="263.9" y="171.7844"/><rect fill="#FFFFFF" height="159.2186" style="stroke:#181818;stroke-width:0.6999999999999998;" width="7" x="263.9" y="469.8326"/><rect fill="#FFFFFF" height="219.5334" style="stroke:#181818;stroke-width:0.6999999999999998;" width="7" x="263.9" y="650.9549"/><rect fill="#FFFFFF" height="153.326" style="stroke:#181818;stroke-width:0.6999999999999998;" width="7" x="427.7" y="260.5955"/><rect fill="#FFFFFF" height="175.726" style="stroke:#181818;stroke-width:0.6999999999999998;" width="7" x="427.7" y="672.8586"/><rect fill="#FFFFFF" height="21.9037" style="stroke:#181818;stroke-width:0.6999999999999998;" width="7" x="525" y="282.4992"/><rect fill="#FFFFFF" height="21.9037" style="stroke:#181818;stroke-width:0.6999999999999998;" width="7" x="525" y="694.7623"/><rect fill="#FFFFFF" height="21.9037" style="stroke:#181818;stroke-width:0.6999999999999998;" width="7" x="595.7" y="326.3066"/><rect fill="#FFFFFF" height="21.9037" style="stroke:#181818;stroke-width:0.6999999999999998;" width="7" x="595.7" y="738.5697"/><rect fill="#FFFFFF" height="21.9037" style="stroke:#181818;stroke-width:0.6999999999999998;" width="7" x="675.85" y="370.1141"/><rect fill="#FFFFFF" height="21.9037" style="stroke:#181818;stroke-width:0.6999999999999998;" width="7" x="760.2" y="782.3771"/><polygon fill="#181818" points="255.5,106.7732,262.5,109.5732,255.5,112.3732,258.3,109.5732" style="stroke:#181818;stroke-width:0.6999999999999998;"/><line style="stroke:#181818;stroke-width:0.6999999999999998;" x1="37.1" x2="259.7" y1="109.5732" y2="109.5732"/><text fill="#000000" font-family="sans-serif" font-size="9.1" font-weight="bold" lengthAdjust="spacing" textLength="4.9" x="42" y="105.8894">1</text><text fill="#000000" font-family="sans-serif" font-size="9.1" lengthAdjust="spacing" textLength="156.1" x="49.7" y="105.8894">Asks to generate a new team proposal</text><polygon fill="#181818" points="44.8,128.677,37.8,131.477,44.8,134.277,42,131.477" style="stroke:#181818;stroke-width:0.6999999999999998;"/><line style="stroke:#181818;stroke-width:0.6999999999999998;stroke-dasharray:2.0,2.0;" x1="40.6" x2="266.7" y1="131.477" y2="131.477"/><text fill="#000000" font-family="sans-serif" font-size="9.1" font-weight="bold" lengthAdjust="spacing" textLength="4.9" x="49" y="127.7931">2</text><text fill="#000000" font-family="sans-serif" font-size="9.1" lengthAdjust="spacing" textLength="162.4" x="56.7" y="127.7931">Requests data (max and min team size)</text><path d="M7,141.977 L58.1,141.977 L58.1,148.4807 L51.1,155.4807 L7,155.4807 L7,141.977 " fill="#EEEEEE" style="stroke:#000000;stroke-width:1.0499999999999998;"/><rect fill="none" height="404.3594" style="stroke:#000000;stroke-width:1.0499999999999998;" width="725.9" x="7" y="141.977"/><text fill="#000000" font-family="sans-serif" font-size="9.1" font-weight="bold" lengthAdjust="spacing" textLength="19.6" x="17.5" y="152.4968">loop</text><text fill="#000000" font-family="sans-serif" font-size="7.7" font-weight="bold" lengthAdjust="spacing" textLength="107.8" x="68.6" y="151.686">[until input data is validated]</text><path d="M736.4,145.477 L736.4,200.777 L958.3,200.777 L958.3,152.477 L951.3,145.477 L736.4,145.477 " fill="#FAFAFA" style="stroke:#181818;stroke-width:0.3499999999999999;"/><path d="M951.3,145.477 L951.3,152.477 L958.3,152.477 L951.3,145.477 " fill="#FAFAFA" style="stroke:#181818;stroke-width:0.3499999999999999;"/><text fill="#000000" font-family="sans-serif" font-size="9.1" font-weight="bold" lengthAdjust="spacing" textLength="40.6" x="740.6" y="158.7968">(5) NOTE:</text><text fill="#000000" font-family="sans-serif" font-size="9.1" font-weight="bold" lengthAdjust="spacing" textLength="53.2" x="740.6" y="170.9005">Set of skills:</text><ellipse cx="744.45" cy="180.0381" fill="#000000" rx="1.75" ry="1.75" style="stroke:#000000;stroke-width:0.0;"/><text fill="#000000" font-family="sans-serif" font-size="9.1" lengthAdjust="spacing" textLength="173.6" x="749" y="183.0042">Set of skills required for the team proposal;</text><ellipse cx="744.45" cy="192.1418" fill="#000000" rx="1.75" ry="1.75" style="stroke:#000000;stroke-width:0.0;"/><text fill="#000000" font-family="sans-serif" font-size="9.1" lengthAdjust="spacing" textLength="198.8" x="749" y="195.1079">Includes the skill name and the required quantity.</text><polygon fill="#181818" points="255.5,168.9844,262.5,171.7844,255.5,174.5844,258.3,171.7844" style="stroke:#181818;stroke-width:0.6999999999999998;"/><line style="stroke:#181818;stroke-width:0.6999999999999998;" x1="37.1" x2="259.7" y1="171.7844" y2="171.7844"/><text fill="#000000" font-family="sans-serif" font-size="9.1" font-weight="bold" lengthAdjust="spacing" textLength="4.9" x="42" y="168.1005">3</text><text fill="#000000" font-family="sans-serif" font-size="9.1" lengthAdjust="spacing" textLength="87.5" x="49.7" y="168.1005">Types requested data</text><path d="M14,199.7844 L65.1,199.7844 L65.1,206.2881 L58.1,213.2881 L14,213.2881 L14,199.7844 " fill="#EEEEEE" style="stroke:#000000;stroke-width:1.0499999999999998;"/><rect fill="none" height="293.1482" style="stroke:#000000;stroke-width:1.0499999999999998;" width="711.9" x="14" y="199.7844"/><text fill="#000000" font-family="sans-serif" font-size="9.1" font-weight="bold" lengthAdjust="spacing" textLength="19.6" x="24.5" y="210.3042">loop</text><text fill="#000000" font-family="sans-serif" font-size="7.7" font-weight="bold" lengthAdjust="spacing" textLength="141.4" x="75.6" y="209.4935">[until no longer want to select skills]</text><line style="stroke:#181818;stroke-width:0.6999999999999998;stroke-dasharray:2.0,2.0;" x1="270.9" x2="300.3" y1="229.5918" y2="229.5918"/><line style="stroke:#181818;stroke-width:0.6999999999999998;stroke-dasharray:2.0,2.0;" x1="300.3" x2="300.3" y1="229.5918" y2="238.6918"/><line style="stroke:#181818;stroke-width:0.6999999999999998;stroke-dasharray:2.0,2.0;" x1="271.6" x2="300.3" y1="238.6918" y2="238.6918"/><polygon fill="#181818" points="278.6,235.8918,271.6,238.6918,278.6,241.4918,275.8,238.6918" style="stroke:#181818;stroke-width:0.6999999999999998;"/><text fill="#000000" font-family="sans-serif" font-size="9.1" font-weight="bold" lengthAdjust="spacing" textLength="4.9" x="275.8" y="225.9079">4</text><text fill="#000000" font-family="sans-serif" font-size="9.1" lengthAdjust="spacing" textLength="139.3" x="283.5" y="225.9079">keepData(max and min team size)</text><polygon fill="#181818" points="419.3,257.7955,426.3,260.5955,419.3,263.3955,422.1,260.5955" style="stroke:#181818;stroke-width:0.6999999999999998;"/><line style="stroke:#181818;stroke-width:0.6999999999999998;" x1="270.9" x2="423.5" y1="260.5955" y2="260.5955"/><text fill="#000000" font-family="sans-serif" font-size="9.1" font-weight="bold" lengthAdjust="spacing" textLength="4.9" x="275.8" y="256.9116">5</text><text fill="#000000" font-family="sans-serif" font-size="9.1" lengthAdjust="spacing" textLength="50.4" x="283.5" y="256.9116">getSkillList()</text><polygon fill="#181818" points="516.6,279.6992,523.6,282.4992,516.6,285.2992,519.4,282.4992" style="stroke:#181818;stroke-width:0.6999999999999998;"/><line style="stroke:#181818;stroke-width:0.6999999999999998;" x1="434.7" x2="520.8" y1="282.4992" y2="282.4992"/><text fill="#000000" font-family="sans-serif" font-size="9.1" font-weight="bold" lengthAdjust="spacing" textLength="4.9" x="439.6" y="278.8153">6</text><text fill="#000000" font-family="sans-serif" font-size="9.1" lengthAdjust="spacing" textLength="52.5" x="447.3" y="278.8153">getInstance()</text><polygon fill="#181818" points="442.4,301.6029,435.4,304.4029,442.4,307.2029,439.6,304.4029" style="stroke:#181818;stroke-width:0.6999999999999998;"/><line style="stroke:#181818;stroke-width:0.6999999999999998;stroke-dasharray:2.0,2.0;" x1="438.2" x2="527.8" y1="304.4029" y2="304.4029"/><text fill="#000000" font-family="sans-serif" font-size="9.1" font-weight="bold" lengthAdjust="spacing" textLength="4.9" x="446.6" y="300.719">7</text><text fill="#000000" font-family="sans-serif" font-size="9.1" lengthAdjust="spacing" textLength="46.9" x="454.3" y="300.719">repositories</text><polygon fill="#181818" points="587.3,323.5066,594.3,326.3066,587.3,329.1066,590.1,326.3066" style="stroke:#181818;stroke-width:0.6999999999999998;"/><line style="stroke:#181818;stroke-width:0.6999999999999998;" x1="434.7" x2="591.5" y1="326.3066" y2="326.3066"/><text fill="#000000" font-family="sans-serif" font-size="9.1" font-weight="bold" lengthAdjust="spacing" textLength="4.9" x="439.6" y="322.6228">8</text><text fill="#000000" font-family="sans-serif" font-size="9.1" lengthAdjust="spacing" textLength="79.1" x="447.3" y="322.6228">getSkillRepository()</text><polygon fill="#181818" points="442.4,345.4104,435.4,348.2104,442.4,351.0104,439.6,348.2104" style="stroke:#181818;stroke-width:0.6999999999999998;"/><line style="stroke:#181818;stroke-width:0.6999999999999998;stroke-dasharray:2.0,2.0;" x1="438.2" x2="598.5" y1="348.2104" y2="348.2104"/><text fill="#000000" font-family="sans-serif" font-size="9.1" font-weight="bold" lengthAdjust="spacing" textLength="4.9" x="446.6" y="344.5265">9</text><text fill="#000000" font-family="sans-serif" font-size="9.1" lengthAdjust="spacing" textLength="59.5" x="454.3" y="344.5265">skillRepository</text><polygon fill="#181818" points="667.45,367.3141,674.45,370.1141,667.45,372.9141,670.25,370.1141" style="stroke:#181818;stroke-width:0.6999999999999998;"/><line style="stroke:#181818;stroke-width:0.6999999999999998;" x1="434.7" x2="671.65" y1="370.1141" y2="370.1141"/><text fill="#000000" font-family="sans-serif" font-size="9.1" font-weight="bold" lengthAdjust="spacing" textLength="9.8" x="439.6" y="366.4302">10</text><text fill="#000000" font-family="sans-serif" font-size="9.1" lengthAdjust="spacing" textLength="50.4" x="452.2" y="366.4302">getSkillList()</text><polygon fill="#181818" points="442.4,389.2178,435.4,392.0178,442.4,394.8178,439.6,392.0178" style="stroke:#181818;stroke-width:0.6999999999999998;"/><line style="stroke:#181818;stroke-width:0.6999999999999998;stroke-dasharray:2.0,2.0;" x1="438.2" x2="678.65" y1="392.0178" y2="392.0178"/><text fill="#000000" font-family="sans-serif" font-size="9.1" font-weight="bold" lengthAdjust="spacing" textLength="9.8" x="446.6" y="388.3339">11</text><text fill="#000000" font-family="sans-serif" font-size="9.1" lengthAdjust="spacing" textLength="30.8" x="459.2" y="388.3339">skillList</text><polygon fill="#181818" points="278.6,411.1215,271.6,413.9215,278.6,416.7215,275.8,413.9215" style="stroke:#181818;stroke-width:0.6999999999999998;"/><line style="stroke:#181818;stroke-width:0.6999999999999998;stroke-dasharray:2.0,2.0;" x1="274.4" x2="430.5" y1="413.9215" y2="413.9215"/><text fill="#000000" font-family="sans-serif" font-size="9.1" font-weight="bold" lengthAdjust="spacing" textLength="9.8" x="282.8" y="410.2376">12</text><text fill="#000000" font-family="sans-serif" font-size="9.1" lengthAdjust="spacing" textLength="30.8" x="295.4" y="410.2376">skillList</text><polygon fill="#181818" points="44.8,433.0252,37.8,435.8252,44.8,438.6252,42,435.8252" style="stroke:#181818;stroke-width:0.6999999999999998;"/><line style="stroke:#181818;stroke-width:0.6999999999999998;stroke-dasharray:2.0,2.0;" x1="40.6" x2="266.7" y1="435.8252" y2="435.8252"/><text fill="#000000" font-family="sans-serif" font-size="9.1" font-weight="bold" lengthAdjust="spacing" textLength="9.8" x="49" y="432.1413">13</text><text fill="#000000" font-family="sans-serif" font-size="9.1" lengthAdjust="spacing" textLength="170.8" x="61.6" y="432.1413">Shows list of skills and asks to select one</text><polygon fill="#181818" points="255.5,467.0326,262.5,469.8326,255.5,472.6326,258.3,469.8326" style="stroke:#181818;stroke-width:0.6999999999999998;"/><line style="stroke:#181818;stroke-width:0.6999999999999998;" x1="37.1" x2="259.7" y1="469.8326" y2="469.8326"/><text fill="#000000" font-family="sans-serif" font-size="9.1" font-weight="bold" lengthAdjust="spacing" textLength="9.8" x="42" y="460.0969">14</text><text fill="#000000" font-family="sans-serif" font-size="9.1" lengthAdjust="spacing" textLength="179.2" x="54.6" y="454.045">Selects a skill from the list and specifies the</text><text fill="#000000" font-family="sans-serif" font-size="9.1" lengthAdjust="spacing" textLength="81.9" x="54.6" y="466.1487">quantity of that skill.</text><line style="stroke:#181818;stroke-width:0.6999999999999998;stroke-dasharray:2.0,2.0;" x1="270.9" x2="300.3" y1="514.1363" y2="514.1363"/><line style="stroke:#181818;stroke-width:0.6999999999999998;stroke-dasharray:2.0,2.0;" x1="300.3" x2="300.3" y1="514.1363" y2="523.2363"/><line style="stroke:#181818;stroke-width:0.6999999999999998;stroke-dasharray:2.0,2.0;" x1="271.6" x2="300.3" y1="523.2363" y2="523.2363"/><polygon fill="#181818" points="278.6,520.4363,271.6,523.2363,278.6,526.0363,275.8,523.2363" style="stroke:#181818;stroke-width:0.6999999999999998;"/><text fill="#000000" font-family="sans-serif" font-size="9.1" font-weight="bold" lengthAdjust="spacing" textLength="9.8" x="275.8" y="510.4524">15</text><text fill="#000000" font-family="sans-serif" font-size="9.1" lengthAdjust="spacing" textLength="84" x="288.4" y="510.4524">keepData(skillName)</text><path d="M14,556.1363 L65.1,556.1363 L65.1,562.64 L58.1,569.64 L14,569.64 L14,556.1363 " fill="#EEEEEE" style="stroke:#000000;stroke-width:1.0499999999999998;"/><rect fill="none" height="253.7445" style="stroke:#000000;stroke-width:1.0499999999999998;" width="794.5" x="14" y="556.1363"/><text fill="#000000" font-family="sans-serif" font-size="9.1" font-weight="bold" lengthAdjust="spacing" textLength="19.6" x="24.5" y="566.6562">loop</text><text fill="#000000" font-family="sans-serif" font-size="7.7" font-weight="bold" lengthAdjust="spacing" textLength="147" x="75.6" y="565.8454">[until the team generated is accepted]</text><line style="stroke:#181818;stroke-width:0.6999999999999998;stroke-dasharray:2.0,2.0;" x1="270.9" x2="300.3" y1="598.0475" y2="598.0475"/><line style="stroke:#181818;stroke-width:0.6999999999999998;stroke-dasharray:2.0,2.0;" x1="300.3" x2="300.3" y1="598.0475" y2="607.1475"/><line style="stroke:#181818;stroke-width:0.6999999999999998;stroke-dasharray:2.0,2.0;" x1="271.6" x2="300.3" y1="607.1475" y2="607.1475"/><polygon fill="#181818" points="278.6,604.3475,271.6,607.1475,278.6,609.9475,275.8,607.1475" style="stroke:#181818;stroke-width:0.6999999999999998;"/><text fill="#000000" font-family="sans-serif" font-size="9.1" font-weight="bold" lengthAdjust="spacing" textLength="9.8" x="275.8" y="588.3117">16</text><text fill="#000000" font-family="sans-serif" font-size="9.1" lengthAdjust="spacing" textLength="112.7" x="288.4" y="582.2599">Generate the team proposal</text><text fill="#000000" font-family="sans-serif" font-size="9.1" lengthAdjust="spacing" textLength="86.1" x="288.4" y="594.3636">with given information</text><polygon fill="#181818" points="44.8,626.2512,37.8,629.0512,44.8,631.8512,42,629.0512" style="stroke:#181818;stroke-width:0.6999999999999998;"/><line style="stroke:#181818;stroke-width:0.6999999999999998;stroke-dasharray:2.0,2.0;" x1="40.6" x2="266.7" y1="629.0512" y2="629.0512"/><text fill="#000000" font-family="sans-serif" font-size="9.1" font-weight="bold" lengthAdjust="spacing" textLength="9.8" x="49" y="625.3673">17</text><text fill="#000000" font-family="sans-serif" font-size="9.1" lengthAdjust="spacing" textLength="197.4" x="61.6" y="625.3673">Shows team generated and asks for confirmation</text><polygon fill="#181818" points="255.5,648.1549,262.5,650.9549,255.5,653.7549,258.3,650.9549" style="stroke:#181818;stroke-width:0.6999999999999998;"/><line style="stroke:#181818;stroke-width:0.6999999999999998;" x1="37.1" x2="259.7" y1="650.9549" y2="650.9549"/><text fill="#000000" font-family="sans-serif" font-size="9.1" font-weight="bold" lengthAdjust="spacing" textLength="9.8" x="42" y="647.271">18</text><text fill="#000000" font-family="sans-serif" font-size="9.1" lengthAdjust="spacing" textLength="129.5" x="54.6" y="647.271">Accepts or rejects the proposal.</text><polygon fill="#181818" points="419.3,670.0586,426.3,672.8586,419.3,675.6586,422.1,672.8586" style="stroke:#181818;stroke-width:0.6999999999999998;"/><line style="stroke:#181818;stroke-width:0.6999999999999998;" x1="270.9" x2="423.5" y1="672.8586" y2="672.8586"/><text fill="#000000" font-family="sans-serif" font-size="9.1" font-weight="bold" lengthAdjust="spacing" textLength="9.8" x="275.8" y="669.1747">19</text><text fill="#000000" font-family="sans-serif" font-size="9.1" lengthAdjust="spacing" textLength="73.5" x="288.4" y="669.1747">createTeam(team)</text><polygon fill="#181818" points="516.6,691.9623,523.6,694.7623,516.6,697.5623,519.4,694.7623" style="stroke:#181818;stroke-width:0.6999999999999998;"/><line style="stroke:#181818;stroke-width:0.6999999999999998;" x1="434.7" x2="520.8" y1="694.7623" y2="694.7623"/><text fill="#000000" font-family="sans-serif" font-size="9.1" font-weight="bold" lengthAdjust="spacing" textLength="9.8" x="439.6" y="691.0784">20</text><text fill="#000000" font-family="sans-serif" font-size="9.1" lengthAdjust="spacing" textLength="52.5" x="452.2" y="691.0784">getInstance()</text><polygon fill="#181818" points="442.4,713.866,435.4,716.666,442.4,719.466,439.6,716.666" style="stroke:#181818;stroke-width:0.6999999999999998;"/><line style="stroke:#181818;stroke-width:0.6999999999999998;stroke-dasharray:2.0,2.0;" x1="438.2" x2="527.8" y1="716.666" y2="716.666"/><text fill="#000000" font-family="sans-serif" font-size="9.1" font-weight="bold" lengthAdjust="spacing" textLength="9.8" x="446.6" y="712.9821">21</text><text fill="#000000" font-family="sans-serif" font-size="9.1" lengthAdjust="spacing" textLength="46.9" x="459.2" y="712.9821">repositories</text><polygon fill="#181818" points="587.3,735.7697,594.3,738.5697,587.3,741.3697,590.1,738.5697" style="stroke:#181818;stroke-width:0.6999999999999998;"/><line style="stroke:#181818;stroke-width:0.6999999999999998;" x1="434.7" x2="591.5" y1="738.5697" y2="738.5697"/><text fill="#000000" font-family="sans-serif" font-size="9.1" font-weight="bold" lengthAdjust="spacing" textLength="9.8" x="439.6" y="734.8858">22</text><text fill="#000000" font-family="sans-serif" font-size="9.1" lengthAdjust="spacing" textLength="84" x="452.2" y="734.8858">getTeamRepository()</text><polygon fill="#181818" points="442.4,757.6734,435.4,760.4734,442.4,763.2734,439.6,760.4734" style="stroke:#181818;stroke-width:0.6999999999999998;"/><line style="stroke:#181818;stroke-width:0.6999999999999998;stroke-dasharray:2.0,2.0;" x1="438.2" x2="598.5" y1="760.4734" y2="760.4734"/><text fill="#000000" font-family="sans-serif" font-size="9.1" font-weight="bold" lengthAdjust="spacing" textLength="9.8" x="446.6" y="756.7896">23</text><text fill="#000000" font-family="sans-serif" font-size="9.1" lengthAdjust="spacing" textLength="63.7" x="459.2" y="756.7896">teamRepository</text><polygon fill="#181818" points="751.8,779.5771,758.8,782.3771,751.8,785.1771,754.6,782.3771" style="stroke:#181818;stroke-width:0.6999999999999998;"/><line style="stroke:#181818;stroke-width:0.6999999999999998;" x1="434.7" x2="756" y1="782.3771" y2="782.3771"/><text fill="#000000" font-family="sans-serif" font-size="9.1" font-weight="bold" lengthAdjust="spacing" textLength="9.8" x="439.6" y="778.6933">24</text><text fill="#000000" font-family="sans-serif" font-size="9.1" lengthAdjust="spacing" textLength="116.2" x="452.2" y="778.6933">addToTeamRepository(team)</text><polygon fill="#181818" points="442.4,801.4809,435.4,804.2809,442.4,807.0809,439.6,804.2809" style="stroke:#181818;stroke-width:0.6999999999999998;"/><line style="stroke:#181818;stroke-width:0.6999999999999998;stroke-dasharray:2.0,2.0;" x1="438.2" x2="763" y1="804.2809" y2="804.2809"/><text fill="#000000" font-family="sans-serif" font-size="9.1" font-weight="bold" lengthAdjust="spacing" textLength="9.8" x="446.6" y="800.597">25</text><text fill="#000000" font-family="sans-serif" font-size="9.1" lengthAdjust="spacing" textLength="25.9" x="459.2" y="800.597">(team)</text><polygon fill="#181818" points="278.6,845.7846,271.6,848.5846,278.6,851.3846,275.8,848.5846" style="stroke:#181818;stroke-width:0.6999999999999998;"/><line style="stroke:#181818;stroke-width:0.6999999999999998;stroke-dasharray:2.0,2.0;" x1="274.4" x2="430.5" y1="848.5846" y2="848.5846"/><text fill="#000000" font-family="sans-serif" font-size="9.1" font-weight="bold" lengthAdjust="spacing" textLength="9.8" x="282.8" y="844.9007">26</text><text fill="#000000" font-family="sans-serif" font-size="9.1" lengthAdjust="spacing" textLength="25.9" x="295.4" y="844.9007">(team)</text><polygon fill="#181818" points="44.8,867.6883,37.8,870.4883,44.8,873.2883,42,870.4883" style="stroke:#181818;stroke-width:0.6999999999999998;"/><line style="stroke:#181818;stroke-width:0.6999999999999998;stroke-dasharray:2.0,2.0;" x1="40.6" x2="266.7" y1="870.4883" y2="870.4883"/><text fill="#000000" font-family="sans-serif" font-size="9.1" font-weight="bold" lengthAdjust="spacing" textLength="9.8" x="49" y="866.8044">27</text><text fill="#000000" font-family="sans-serif" font-size="9.1" lengthAdjust="spacing" textLength="112" x="61.6" y="866.8044">Displays operation success</text><!--SRC=[bLLDRzim3BtxLn0z9G5QzD9B1XGOcc8hi7L5dDvwqMp6qI9BhYGtoz0VFqh-YAFOJgkJFyZ7HufyD5ik2wPP3hcIAjbebIDONM9asZy5IxOimzZk1OB6n3APYQw1sR1KxRZCOCs4mIYot9BfStnzVGEN4E-DnHnYV2rH9WWBpZBdDedZnJIAM6cLBFFVgEaviKh3nVVbpmjW1kxpGgWzOaHnB4zumQI5Y_aAMVwaLQ4C4yyFthAACM9tfwJLIWZKtdxrT1SOBv7iE8NVUuFb_LDWe1i3ZWPUvBBpsdZ4WGkLI8W3C7d5nrygxil0pHBlekPDFjqqQlAHBnL_OnOFHOg0JlC6bxTDuUVmrMmDM0KPIjJEXu747RWuq0JotYreNK__qPqQwf9GsmXpMBehDTP0oYo3ISx-0fCfv5nMs8R_mwd7IB4NMYXLG2aj5q3DLDeAY1juOuBJCwOZMQts1Ts4hZXWwdsZolxz_RsbteaX5Rt933NiNAMf8WO5DJJuYpAjIryf83YTYhICjeZ5WbYCLQ8FuzRr8_bdQ7s3_E36JgRHYNtBoRKlz1m7GsZKYXNQWpGqhGdsWHq1kdQ7WUFGBbkEtJ7eTUbSzH3gWMRSoVem5X-X6u_nZJk4Wo7y0ESu6cCTBpzmKySTjEpzJq01IuTsZX-13RFhDkCmOWUjhv7wPptUg9q1GNYWrlN0-1vdjRZKewGaHaFK0r4PdEpOGn5y5GVMj9R0Rh0AxuAQ0XE-TahiFh_8rv86cjkzusOth9xegxCJtHKA95md5XN1qVdsw8yihsVQeGp0k2CL1TKysvnUnMmskPd2uw_L_Nmsw_aROwVSlIP75buDkIOnNDCUTQKvqlWlf-uFCX5bMjUnghQal7oHtQSMiAdmrL6YBhKJAM_ZDlicTPBEaWGBf-YzrPt3jsOvdT1-aJjkDv3nDvIq9oYrd5ckP7HkFrKz6r1fUzQLA55opLkuWNuTMQm-9mE4fF6Fxrd7lY5-5Orjab3z4uravRRzn54-h8l1QVsCt8-AyYSa_eoydqYxosTSsSTLFL1pUmGNdHFo0NehLp2MfYiLqAiAFxPuUo0xz8ARwrNSkg5QdGXrw4J90z10liyDmOARGh0zDMdX9e0Q7Kn9VMlCGB__1m00]--></g></svg>