<?xml version="1.0" encoding="us-ascii" standalone="no"?><svg xmlns="http://www.w3.org/2000/svg" xmlns:xlink="http://www.w3.org/1999/xlink" contentStyleType="text/css" height="560.8px" preserveAspectRatio="none" style="width:312px;height:560px;background:#FFFFFF;" version="1.1" viewBox="0 0 312 560" width="312.8px" zoomAndPan="magnify"><defs/><g><!--class Repositories--><g id="elem_Repositories"><rect codeLine="28" fill="#F1F1F1" height="83.0906" id="Repositories" rx="2" ry="2" style="stroke:#181818;stroke-width:0.4000000000000001;" width="123.2" x="18.4" y="224"/><ellipse cx="45.88" cy="236.8" fill="#ADD1B2" rx="8.8" ry="8.8" style="stroke:#181818;stroke-width:0.8000000000000002;"/><path d="M48.0925,233.5 Q48.2175,233.325 48.3675,233.2375 Q48.5175,233.15 48.6925,233.15 Q48.9925,233.15 49.18,233.3625 Q49.3675,233.5625 49.3675,234.05 L49.3675,235.2125 Q49.3675,235.7 49.18,235.9125 Q48.9925,236.125 48.6925,236.125 Q48.4175,236.125 48.255,235.9625 Q48.0925,235.8125 48.005,235.4 Q47.9675,235.1125 47.8175,234.9625 Q47.555,234.6625 47.0675,234.4875 Q46.58,234.3125 46.08,234.3125 Q45.4675,234.3125 44.955,234.575 Q44.455,234.8375 44.055,235.4375 Q43.6675,236.0375 43.6675,236.8625 L43.6675,237.7375 Q43.6675,238.725 44.38,239.3875 Q45.0925,240.0375 46.3675,240.0375 Q47.1175,240.0375 47.6425,239.8375 Q47.955,239.7125 48.2925,239.3625 Q48.505,239.15 48.6175,239.0875 Q48.7425,239.025 48.905,239.025 Q49.1675,239.025 49.3675,239.2375 Q49.58,239.4375 49.58,239.7125 Q49.58,239.9875 49.305,240.3125 Q48.905,240.775 48.2675,241.0375 Q47.405,241.4 46.3675,241.4 Q45.155,241.4 44.1925,240.9 Q43.405,240.5 42.855,239.65 Q42.305,238.7875 42.305,237.7625 L42.305,236.8375 Q42.305,235.775 42.7925,234.8625 Q43.2925,233.9375 44.1675,233.45 Q45.0425,232.95 46.03,232.95 Q46.6175,232.95 47.13,233.0875 Q47.655,233.2125 48.0925,233.5 Z " fill="#000000"/><text fill="#000000" font-family="sans-serif" font-size="11.2" lengthAdjust="spacing" textLength="63.2" x="60.52" y="241.4375">Repositories</text><line style="stroke:#181818;stroke-width:0.4000000000000001;" x1="19.2" x2="140.8" y1="249.6" y2="249.6"/><line style="stroke:#181818;stroke-width:0.4000000000000001;" x1="19.2" x2="140.8" y1="256" y2="256"/><text fill="#000000" font-family="sans-serif" font-size="11.2" lengthAdjust="spacing" textLength="72.8" x="23.2" y="271.2859">+getInstance()</text><text fill="#000000" font-family="sans-serif" font-size="11.2" lengthAdjust="spacing" textLength="104.8" x="23.2" y="286.1828">+getSkillRepository()</text><text fill="#000000" font-family="sans-serif" font-size="11.2" lengthAdjust="spacing" textLength="113.6" x="23.2" y="301.0797">+getTeamRepository()</text></g><!--class SkillRepository--><g id="elem_SkillRepository"><rect codeLine="34" fill="#F1F1F1" height="53.2969" id="SkillRepository" rx="2" ry="2" style="stroke:#181818;stroke-width:0.4000000000000001;" width="100" x="14" y="370.8"/><ellipse cx="26" cy="383.6" fill="#ADD1B2" rx="8.8" ry="8.8" style="stroke:#181818;stroke-width:0.8000000000000002;"/><path d="M28.2125,380.3 Q28.3375,380.125 28.4875,380.0375 Q28.6375,379.95 28.8125,379.95 Q29.1125,379.95 29.3,380.1625 Q29.4875,380.3625 29.4875,380.85 L29.4875,382.0125 Q29.4875,382.5 29.3,382.7125 Q29.1125,382.925 28.8125,382.925 Q28.5375,382.925 28.375,382.7625 Q28.2125,382.6125 28.125,382.2 Q28.0875,381.9125 27.9375,381.7625 Q27.675,381.4625 27.1875,381.2875 Q26.7,381.1125 26.2,381.1125 Q25.5875,381.1125 25.075,381.375 Q24.575,381.6375 24.175,382.2375 Q23.7875,382.8375 23.7875,383.6625 L23.7875,384.5375 Q23.7875,385.525 24.5,386.1875 Q25.2125,386.8375 26.4875,386.8375 Q27.2375,386.8375 27.7625,386.6375 Q28.075,386.5125 28.4125,386.1625 Q28.625,385.95 28.7375,385.8875 Q28.8625,385.825 29.025,385.825 Q29.2875,385.825 29.4875,386.0375 Q29.7,386.2375 29.7,386.5125 Q29.7,386.7875 29.425,387.1125 Q29.025,387.575 28.3875,387.8375 Q27.525,388.2 26.4875,388.2 Q25.275,388.2 24.3125,387.7 Q23.525,387.3 22.975,386.45 Q22.425,385.5875 22.425,384.5625 L22.425,383.6375 Q22.425,382.575 22.9125,381.6625 Q23.4125,380.7375 24.2875,380.25 Q25.1625,379.75 26.15,379.75 Q26.7375,379.75 27.25,379.8875 Q27.775,380.0125 28.2125,380.3 Z " fill="#000000"/><text fill="#000000" font-family="sans-serif" font-size="11.2" lengthAdjust="spacing" textLength="74.4" x="37.2" y="388.2375">SkillRepository</text><line style="stroke:#181818;stroke-width:0.4000000000000001;" x1="14.8" x2="113.2" y1="396.4" y2="396.4"/><line style="stroke:#181818;stroke-width:0.4000000000000001;" x1="14.8" x2="113.2" y1="402.8" y2="402.8"/><text fill="#000000" font-family="sans-serif" font-size="11.2" lengthAdjust="spacing" textLength="68" x="18.8" y="418.0859">+getSkillList()</text></g><!--class TeamRepository--><g id="elem_TeamRepository"><rect codeLine="38" fill="#F1F1F1" height="83.0906" id="TeamRepository" rx="2" ry="2" style="stroke:#181818;stroke-width:0.4000000000000001;" width="164.8" x="142.4" y="356"/><ellipse cx="179.8" cy="368.8" fill="#ADD1B2" rx="8.8" ry="8.8" style="stroke:#181818;stroke-width:0.8000000000000002;"/><path d="M182.0125,365.5 Q182.1375,365.325 182.2875,365.2375 Q182.4375,365.15 182.6125,365.15 Q182.9125,365.15 183.1,365.3625 Q183.2875,365.5625 183.2875,366.05 L183.2875,367.2125 Q183.2875,367.7 183.1,367.9125 Q182.9125,368.125 182.6125,368.125 Q182.3375,368.125 182.175,367.9625 Q182.0125,367.8125 181.925,367.4 Q181.8875,367.1125 181.7375,366.9625 Q181.475,366.6625 180.9875,366.4875 Q180.5,366.3125 180,366.3125 Q179.3875,366.3125 178.875,366.575 Q178.375,366.8375 177.975,367.4375 Q177.5875,368.0375 177.5875,368.8625 L177.5875,369.7375 Q177.5875,370.725 178.3,371.3875 Q179.0125,372.0375 180.2875,372.0375 Q181.0375,372.0375 181.5625,371.8375 Q181.875,371.7125 182.2125,371.3625 Q182.425,371.15 182.5375,371.0875 Q182.6625,371.025 182.825,371.025 Q183.0875,371.025 183.2875,371.2375 Q183.5,371.4375 183.5,371.7125 Q183.5,371.9875 183.225,372.3125 Q182.825,372.775 182.1875,373.0375 Q181.325,373.4 180.2875,373.4 Q179.075,373.4 178.1125,372.9 Q177.325,372.5 176.775,371.65 Q176.225,370.7875 176.225,369.7625 L176.225,368.8375 Q176.225,367.775 176.7125,366.8625 Q177.2125,365.9375 178.0875,365.45 Q178.9625,364.95 179.95,364.95 Q180.5375,364.95 181.05,365.0875 Q181.575,365.2125 182.0125,365.5 Z " fill="#000000"/><text fill="#000000" font-family="sans-serif" font-size="11.2" lengthAdjust="spacing" textLength="83.2" x="196.2" y="373.4375">TeamRepository</text><line style="stroke:#181818;stroke-width:0.4000000000000001;" x1="143.2" x2="306.4" y1="381.6" y2="381.6"/><line style="stroke:#181818;stroke-width:0.4000000000000001;" x1="143.2" x2="306.4" y1="388" y2="388"/><text fill="#000000" font-family="sans-serif" font-size="11.2" lengthAdjust="spacing" textLength="100" x="147.2" y="403.2859">+createTeam(team)</text><text fill="#000000" font-family="sans-serif" font-size="11.2" lengthAdjust="spacing" textLength="155.2" x="147.2" y="418.1828">+addToTeamRepository(team)</text><text fill="#000000" font-family="sans-serif" font-size="11.2" lengthAdjust="spacing" textLength="107.2" x="147.2" y="433.0797">+validateTeam(team)</text></g><!--class Skill--><g id="elem_Skill"><rect codeLine="44" fill="#F1F1F1" height="53.2969" id="Skill" rx="2" ry="2" style="stroke:#181818;stroke-width:0.4000000000000001;" width="116.8" x="166.4" y="502.4"/><ellipse cx="211.4" cy="515.2" fill="#ADD1B2" rx="8.8" ry="8.8" style="stroke:#181818;stroke-width:0.8000000000000002;"/><path d="M213.6125,511.9 Q213.7375,511.725 213.8875,511.6375 Q214.0375,511.55 214.2125,511.55 Q214.5125,511.55 214.7,511.7625 Q214.8875,511.9625 214.8875,512.45 L214.8875,513.6125 Q214.8875,514.1 214.7,514.3125 Q214.5125,514.525 214.2125,514.525 Q213.9375,514.525 213.775,514.3625 Q213.6125,514.2125 213.525,513.8 Q213.4875,513.5125 213.3375,513.3625 Q213.075,513.0625 212.5875,512.8875 Q212.1,512.7125 211.6,512.7125 Q210.9875,512.7125 210.475,512.975 Q209.975,513.2375 209.575,513.8375 Q209.1875,514.4375 209.1875,515.2625 L209.1875,516.1375 Q209.1875,517.125 209.9,517.7875 Q210.6125,518.4375 211.8875,518.4375 Q212.6375,518.4375 213.1625,518.2375 Q213.475,518.1125 213.8125,517.7625 Q214.025,517.55 214.1375,517.4875 Q214.2625,517.425 214.425,517.425 Q214.6875,517.425 214.8875,517.6375 Q215.1,517.8375 215.1,518.1125 Q215.1,518.3875 214.825,518.7125 Q214.425,519.175 213.7875,519.4375 Q212.925,519.8 211.8875,519.8 Q210.675,519.8 209.7125,519.3 Q208.925,518.9 208.375,518.05 Q207.825,517.1875 207.825,516.1625 L207.825,515.2375 Q207.825,514.175 208.3125,513.2625 Q208.8125,512.3375 209.6875,511.85 Q210.5625,511.35 211.55,511.35 Q212.1375,511.35 212.65,511.4875 Q213.175,511.6125 213.6125,511.9 Z " fill="#000000"/><text fill="#000000" font-family="sans-serif" font-size="11.2" lengthAdjust="spacing" textLength="20" x="227.8" y="519.8375">Skill</text><line style="stroke:#181818;stroke-width:0.4000000000000001;" x1="167.2" x2="282.4" y1="528" y2="528"/><line style="stroke:#181818;stroke-width:0.4000000000000001;" x1="167.2" x2="282.4" y1="534.4" y2="534.4"/><text fill="#000000" font-family="sans-serif" font-size="11.2" lengthAdjust="spacing" textLength="107.2" x="171.2" y="549.6859">+validateTeam(team)</text></g><!--class TeamProposalController--><g id="elem_TeamProposalController"><rect codeLine="23" fill="#F1F1F1" height="68.1938" id="TeamProposalController" rx="2" ry="2" style="stroke:#181818;stroke-width:0.4000000000000001;" width="148.8" x="5.6" y="92.8"/><ellipse cx="17.6" cy="105.6" fill="#ADD1B2" rx="8.8" ry="8.8" style="stroke:#181818;stroke-width:0.8000000000000002;"/><path d="M19.8125,102.3 Q19.9375,102.125 20.0875,102.0375 Q20.2375,101.95 20.4125,101.95 Q20.7125,101.95 20.9,102.1625 Q21.0875,102.3625 21.0875,102.85 L21.0875,104.0125 Q21.0875,104.5 20.9,104.7125 Q20.7125,104.925 20.4125,104.925 Q20.1375,104.925 19.975,104.7625 Q19.8125,104.6125 19.725,104.2 Q19.6875,103.9125 19.5375,103.7625 Q19.275,103.4625 18.7875,103.2875 Q18.3,103.1125 17.8,103.1125 Q17.1875,103.1125 16.675,103.375 Q16.175,103.6375 15.775,104.2375 Q15.3875,104.8375 15.3875,105.6625 L15.3875,106.5375 Q15.3875,107.525 16.1,108.1875 Q16.8125,108.8375 18.0875,108.8375 Q18.8375,108.8375 19.3625,108.6375 Q19.675,108.5125 20.0125,108.1625 Q20.225,107.95 20.3375,107.8875 Q20.4625,107.825 20.625,107.825 Q20.8875,107.825 21.0875,108.0375 Q21.3,108.2375 21.3,108.5125 Q21.3,108.7875 21.025,109.1125 Q20.625,109.575 19.9875,109.8375 Q19.125,110.2 18.0875,110.2 Q16.875,110.2 15.9125,109.7 Q15.125,109.3 14.575,108.45 Q14.025,107.5875 14.025,106.5625 L14.025,105.6375 Q14.025,104.575 14.5125,103.6625 Q15.0125,102.7375 15.8875,102.25 Q16.7625,101.75 17.75,101.75 Q18.3375,101.75 18.85,101.8875 Q19.375,102.0125 19.8125,102.3 Z " fill="#000000"/><text fill="#000000" font-family="sans-serif" font-size="11.2" lengthAdjust="spacing" textLength="123.2" x="28.8" y="110.2375">TeamProposalController</text><line style="stroke:#181818;stroke-width:0.4000000000000001;" x1="6.4" x2="153.6" y1="118.4" y2="118.4"/><line style="stroke:#181818;stroke-width:0.4000000000000001;" x1="6.4" x2="153.6" y1="124.8" y2="124.8"/><text fill="#000000" font-family="sans-serif" font-size="11.2" lengthAdjust="spacing" textLength="68" x="10.4" y="140.0859">+getSkillList()</text><text fill="#000000" font-family="sans-serif" font-size="11.2" lengthAdjust="spacing" textLength="113.6" x="10.4" y="154.9828">+getTeamRepository()</text></g><!--class TeamProposalUI--><g id="elem_TeamProposalUI"><rect codeLine="19" fill="#F1F1F1" height="38.4" id="TeamProposalUI" rx="2" ry="2" style="stroke:#181818;stroke-width:0.4000000000000001;" width="108.8" x="25.6" y="5.6"/><ellipse cx="37.6" cy="18.4" fill="#ADD1B2" rx="8.8" ry="8.8" style="stroke:#181818;stroke-width:0.8000000000000002;"/><path d="M39.8125,15.1 Q39.9375,14.925 40.0875,14.8375 Q40.2375,14.75 40.4125,14.75 Q40.7125,14.75 40.9,14.9625 Q41.0875,15.1625 41.0875,15.65 L41.0875,16.8125 Q41.0875,17.3 40.9,17.5125 Q40.7125,17.725 40.4125,17.725 Q40.1375,17.725 39.975,17.5625 Q39.8125,17.4125 39.725,17 Q39.6875,16.7125 39.5375,16.5625 Q39.275,16.2625 38.7875,16.0875 Q38.3,15.9125 37.8,15.9125 Q37.1875,15.9125 36.675,16.175 Q36.175,16.4375 35.775,17.0375 Q35.3875,17.6375 35.3875,18.4625 L35.3875,19.3375 Q35.3875,20.325 36.1,20.9875 Q36.8125,21.6375 38.0875,21.6375 Q38.8375,21.6375 39.3625,21.4375 Q39.675,21.3125 40.0125,20.9625 Q40.225,20.75 40.3375,20.6875 Q40.4625,20.625 40.625,20.625 Q40.8875,20.625 41.0875,20.8375 Q41.3,21.0375 41.3,21.3125 Q41.3,21.5875 41.025,21.9125 Q40.625,22.375 39.9875,22.6375 Q39.125,23 38.0875,23 Q36.875,23 35.9125,22.5 Q35.125,22.1 34.575,21.25 Q34.025,20.3875 34.025,19.3625 L34.025,18.4375 Q34.025,17.375 34.5125,16.4625 Q35.0125,15.5375 35.8875,15.05 Q36.7625,14.55 37.75,14.55 Q38.3375,14.55 38.85,14.6875 Q39.375,14.8125 39.8125,15.1 Z " fill="#000000"/><text fill="#000000" font-family="sans-serif" font-size="11.2" lengthAdjust="spacing" textLength="83.2" x="48.8" y="23.0375">TeamProposalUI</text><line style="stroke:#181818;stroke-width:0.4000000000000001;" x1="26.4" x2="133.6" y1="31.2" y2="31.2"/><line style="stroke:#181818;stroke-width:0.4000000000000001;" x1="26.4" x2="133.6" y1="37.6" y2="37.6"/></g><!--link Repositories to Repositories--><g id="link_Repositories_Repositories"><path codeLine="9" d="M141.768,253.44 C157.648,254.208 169.6,258.264 169.6,265.6 C169.6,272.936 162.4424,276.7601 146.5624,277.5281 " fill="none" id="Repositories-to-Repositories" style="stroke:#181818;stroke-width:0.8000000000000002;"/><polygon fill="#181818" points="141.768,277.76,149.1142,280.6085,145.7633,277.5668,148.805,274.2159,141.768,277.76" style="stroke:#181818;stroke-width:0.8000000000000002;"/><text fill="#000000" font-family="sans-serif" font-size="10.4" lengthAdjust="spacing" textLength="39.2" x="174.4" y="270.0227">instance</text></g><!--link Repositories to SkillRepository--><g id="link_Repositories_SkillRepository"><path codeLine="12" d="M74.984,307.304 C72.448,327.92 70.0389,347.5475 67.8229,365.6595 " fill="none" id="Repositories-to-SkillRepository" style="stroke:#181818;stroke-width:0.8000000000000002;"/><polygon fill="#181818" points="67.24,370.424,71.2907,363.6659,67.7258,366.4536,64.9381,362.8887,67.24,370.424" style="stroke:#181818;stroke-width:0.8000000000000002;"/><text fill="#000000" font-family="sans-serif" font-size="10.4" lengthAdjust="spacing" textLength="5.6" x="61.7211" y="361.8317">1</text></g><!--link Repositories to TeamRepository--><g id="link_Repositories_TeamRepository"><path codeLine="13" d="M125.416,307.304 C142.584,322.76 158.5528,337.1403 175.7288,352.6043 " fill="none" id="Repositories-to-TeamRepository" style="stroke:#181818;stroke-width:0.8000000000000002;"/><polygon fill="#181818" points="179.296,355.816,176.0863,348.6203,176.3233,353.1396,171.804,353.3766,179.296,355.816" style="stroke:#181818;stroke-width:0.8000000000000002;"/><text fill="#000000" font-family="sans-serif" font-size="10.4" lengthAdjust="spacing" textLength="5.6" x="167.2052" y="346.9332">1</text></g><!--link TeamRepository to Skill--><g id="link_TeamRepository_Skill"><path codeLine="15" d="M224.8,439.536 C224.8,460.064 224.8,479.48 224.8,497.448 " fill="none" id="TeamRepository-to-Skill" style="stroke:#181818;stroke-width:0.8000000000000002;stroke-dasharray:7.0,7.0;"/><polygon fill="#181818" points="224.8,502.248,228,495.048,224.8,498.248,221.6,495.048,224.8,502.248" style="stroke:#181818;stroke-width:0.8000000000000002;"/><text fill="#000000" font-family="sans-serif" font-size="10.4" lengthAdjust="spacing" textLength="60.8" x="225.6" y="475.2227">createTeam()</text></g><!--link TeamProposalController to Repositories--><g id="link_TeamProposalController_Repositories"><path codeLine="16" d="M80,160.816 C80,179.768 80,198.88 80,219 " fill="none" id="TeamProposalController-to-Repositories" style="stroke:#181818;stroke-width:0.8000000000000002;stroke-dasharray:7.0,7.0;"/><polygon fill="#181818" points="80,223.8,83.2,216.6,80,219.8,76.8,216.6,80,223.8" style="stroke:#181818;stroke-width:0.8000000000000002;"/><text fill="#000000" font-family="sans-serif" font-size="10.4" lengthAdjust="spacing" textLength="53.6" x="80.8" y="196.8227">repositories</text></g><!--link TeamProposalUI to TeamProposalController--><g id="link_TeamProposalUI_TeamProposalController"><path codeLine="17" d="M80,44.016 C80,57.6 80,71.664 80,87.872 " fill="none" id="TeamProposalUI-to-TeamProposalController" style="stroke:#181818;stroke-width:0.8000000000000002;stroke-dasharray:7.0,7.0;"/><polygon fill="#181818" points="80,92.672,83.2,85.472,80,88.672,76.8,85.472,80,92.672" style="stroke:#181818;stroke-width:0.8000000000000002;"/></g><!--SRC=[ZP71JiCm38RlUGfhbu4G4rmvJ4AS9ks0s7W0atgTjJIk4WzK9jwTh419gYAHGoNt__pxZpEF1_Oj1coW4Izs7wGXq70aywkqQ0zOqqOxHn38AlhQvK3SOoLlx6lOeOkvujYJTYr1Awux5sO-8KfGoPgimnZlLGE_79LMLlo6tmbkpDpHJa450jTxXOhFOLYyCK_KIcILm1JXUWb5VGViOmfjoOp9XCvkPx0vi7E3qar3My8cOqnPmsAn_F99ysmWL3e35vSzznWaWUWUn6iGvoZq_2XcoCgYxNdLuzDEnlGBWr73oPYFAIcBS3AGpXNKf7toDKTDWOUVvGsJCXWMmJERrVUYSvVHSlytODJqLzJYXXDuzX2QFZ-ZiQgsCXgUww_ek2eRosJ3W4do4m00]--></g></svg>