<?xml version="1.0" encoding="us-ascii" standalone="no"?><svg xmlns="http://www.w3.org/2000/svg" xmlns:xlink="http://www.w3.org/1999/xlink" contentStyleType="text/css" height="1415px" preserveAspectRatio="none" style="width:1387px;height:1415px;background:#FFFFFF;" version="1.1" viewBox="0 0 1387 1415" width="1387px" zoomAndPan="magnify"><defs/><g><text fill="#000000" font-family="sans-serif" font-size="14" font-weight="bold" lengthAdjust="spacing" textLength="284" x="555" y="30.1074">US005 - System Sequence Diagram (SSD)</text><rect fill="#FFFFFF" height="1189.9336" style="stroke:#181818;stroke-width:1.0;" width="10" x="43" y="133.2422"/><rect fill="#FFFFFF" height="31.291" style="stroke:#181818;stroke-width:1.0;" width="10" x="377" y="156.5332"/><rect fill="#FFFFFF" height="377.2012" style="stroke:#181818;stroke-width:1.0;" width="10" x="377" y="245.4063"/><rect fill="#FFFFFF" height="210.1641" style="stroke:#181818;stroke-width:1.0;" width="10" x="377" y="671.1895"/><rect fill="#FFFFFF" height="401.5313" style="stroke:#181818;stroke-width:1.0;" width="10" x="377" y="912.6445"/><rect fill="#FFFFFF" height="219.0371" style="stroke:#181818;stroke-width:1.0;" width="10" x="611" y="372.2793"/><rect fill="#FFFFFF" height="338.9492" style="stroke:#181818;stroke-width:1.0;" width="10" x="611" y="943.9355"/><rect fill="#FFFFFF" height="31.291" style="stroke:#181818;stroke-width:1.0;" width="10" x="755.5" y="403.5703"/><rect fill="#FFFFFF" height="31.291" style="stroke:#181818;stroke-width:1.0;" width="10" x="755.5" y="1063.1387"/><rect fill="#FFFFFF" height="31.291" style="stroke:#181818;stroke-width:1.0;" width="10" x="862" y="466.1523"/><rect fill="#FFFFFF" height="31.291" style="stroke:#181818;stroke-width:1.0;" width="10" x="862" y="1125.7207"/><rect fill="#FFFFFF" height="31.291" style="stroke:#181818;stroke-width:1.0;" width="10" x="976.5" y="528.7344"/><rect fill="#FFFFFF" height="31.291" style="stroke:#181818;stroke-width:1.0;" width="10" x="1103.5" y="1188.3027"/><rect fill="none" height="577.6563" style="stroke:#000000;stroke-width:1.5;" width="1048" x="10" y="202.8242"/><rect fill="none" height="463.0742" style="stroke:#000000;stroke-width:1.5;" width="1028" x="20" y="285.4063"/><rect fill="none" height="433.1133" style="stroke:#000000;stroke-width:1.5;" width="1333" x="20" y="794.4805"/><line style="stroke:#181818;stroke-width:0.5;stroke-dasharray:5.0,5.0;" x1="48" x2="48" y1="123.2422" y2="1332.1758"/><line style="stroke:#181818;stroke-width:0.5;stroke-dasharray:5.0,5.0;" x1="382" x2="382" y1="123.2422" y2="1332.1758"/><line style="stroke:#181818;stroke-width:0.5;stroke-dasharray:5.0,5.0;" x1="616" x2="616" y1="123.2422" y2="1332.1758"/><line style="stroke:#181818;stroke-width:0.5;stroke-dasharray:5.0,5.0;" x1="760" x2="760" y1="123.2422" y2="1332.1758"/><line style="stroke:#181818;stroke-width:0.5;stroke-dasharray:5.0,5.0;" x1="867" x2="867" y1="123.2422" y2="1332.1758"/><line style="stroke:#181818;stroke-width:0.5;stroke-dasharray:5.0,5.0;" x1="981" x2="981" y1="123.2422" y2="1332.1758"/><line style="stroke:#181818;stroke-width:0.5;stroke-dasharray:5.0,5.0;" x1="1108" x2="1108" y1="123.2422" y2="1332.1758"/><line style="stroke:#181818;stroke-width:0.5;stroke-dasharray:5.0,5.0;" x1="1204" x2="1204" y1="983.7461" y2="1332.1758"/><text fill="#000000" font-family="sans-serif" font-size="14" lengthAdjust="spacing" textLength="30" x="30" y="119.7285">HRM</text><ellipse cx="48" cy="53.1211" fill="#E3E3E3" rx="8" ry="8" style="stroke:#181818;stroke-width:0.5;"/><path d="M48,61.1211 L48,88.1211 M35,69.1211 L61,69.1211 M48,88.1211 L35,103.1211 M48,88.1211 L61,103.1211 " fill="none" style="stroke:#181818;stroke-width:0.5;"/><text fill="#000000" font-family="sans-serif" font-size="14" lengthAdjust="spacing" textLength="30" x="30" y="1346.2832">HRM</text><ellipse cx="48" cy="1358.2969" fill="#E3E3E3" rx="8" ry="8" style="stroke:#181818;stroke-width:0.5;"/><path d="M48,1366.2969 L48,1393.2969 M35,1374.2969 L61,1374.2969 M48,1393.2969 L35,1408.2969 M48,1393.2969 L61,1408.2969 " fill="none" style="stroke:#181818;stroke-width:0.5;"/><rect fill="#E3E3E3" height="32.6211" rx="2.5" ry="2.5" style="stroke:#181818;stroke-width:0.5;" width="122" x="321" y="89.6211"/><text fill="#000000" font-family="sans-serif" font-size="14" lengthAdjust="spacing" textLength="108" x="328" y="111.7285">:TeamProposalUI</text><rect fill="#E3E3E3" height="32.6211" rx="2.5" ry="2.5" style="stroke:#181818;stroke-width:0.5;" width="122" x="321" y="1331.1758"/><text fill="#000000" font-family="sans-serif" font-size="14" lengthAdjust="spacing" textLength="108" x="328" y="1353.2832">:TeamProposalUI</text><rect fill="#E3E3E3" height="32.6211" rx="2.5" ry="2.5" style="stroke:#181818;stroke-width:0.5;" width="172" x="530" y="89.6211"/><text fill="#000000" font-family="sans-serif" font-size="14" lengthAdjust="spacing" textLength="158" x="537" y="111.7285">:TeamProposalController</text><rect fill="#E3E3E3" height="32.6211" rx="2.5" ry="2.5" style="stroke:#181818;stroke-width:0.5;" width="172" x="530" y="1331.1758"/><text fill="#000000" font-family="sans-serif" font-size="14" lengthAdjust="spacing" textLength="158" x="537" y="1353.2832">:TeamProposalController</text><rect fill="#E3E3E3" height="32.6211" rx="2.5" ry="2.5" style="stroke:#181818;stroke-width:0.5;" width="97" x="712" y="89.6211"/><text fill="#000000" font-family="sans-serif" font-size="14" lengthAdjust="spacing" textLength="83" x="719" y="111.7285">:Repositories</text><rect fill="#E3E3E3" height="32.6211" rx="2.5" ry="2.5" style="stroke:#181818;stroke-width:0.5;" width="97" x="712" y="1331.1758"/><text fill="#000000" font-family="sans-serif" font-size="14" lengthAdjust="spacing" textLength="83" x="719" y="1353.2832">:Repositories</text><rect fill="#E3E3E3" height="51.2422" rx="2.5" ry="2.5" style="stroke:#181818;stroke-width:0.5;" width="96" x="819" y="71"/><text fill="#000000" font-family="sans-serif" font-size="14" lengthAdjust="spacing" textLength="78" x="826" y="93.1074">:repositories</text><text fill="#000000" font-family="sans-serif" font-size="14" lengthAdjust="spacing" textLength="79" x="827.5" y="111.7285">Repositories</text><rect fill="#E3E3E3" height="51.2422" rx="2.5" ry="2.5" style="stroke:#181818;stroke-width:0.5;" width="96" x="819" y="1331.1758"/><text fill="#000000" font-family="sans-serif" font-size="14" lengthAdjust="spacing" textLength="78" x="826" y="1353.2832">:repositories</text><text fill="#000000" font-family="sans-serif" font-size="14" lengthAdjust="spacing" textLength="79" x="827.5" y="1371.9043">Repositories</text><rect fill="#E3E3E3" height="51.2422" rx="2.5" ry="2.5" style="stroke:#181818;stroke-width:0.5;" width="113" x="925" y="71"/><text fill="#000000" font-family="sans-serif" font-size="14" lengthAdjust="spacing" textLength="95" x="932" y="93.1074">:skillRepository</text><text fill="#000000" font-family="sans-serif" font-size="14" lengthAdjust="spacing" textLength="93" x="935" y="111.7285">SkillRepository</text><rect fill="#E3E3E3" height="51.2422" rx="2.5" ry="2.5" style="stroke:#181818;stroke-width:0.5;" width="113" x="925" y="1331.1758"/><text fill="#000000" font-family="sans-serif" font-size="14" lengthAdjust="spacing" textLength="95" x="932" y="1353.2832">:skillRepository</text><text fill="#000000" font-family="sans-serif" font-size="14" lengthAdjust="spacing" textLength="93" x="935" y="1371.9043">SkillRepository</text><rect fill="#E3E3E3" height="51.2422" rx="2.5" ry="2.5" style="stroke:#181818;stroke-width:0.5;" width="121" x="1048" y="71"/><text fill="#000000" font-family="sans-serif" font-size="14" lengthAdjust="spacing" textLength="103" x="1055" y="93.1074">:teamRepository</text><text fill="#000000" font-family="sans-serif" font-size="14" lengthAdjust="spacing" textLength="104" x="1056.5" y="111.7285">TeamRepository</text><rect fill="#E3E3E3" height="51.2422" rx="2.5" ry="2.5" style="stroke:#181818;stroke-width:0.5;" width="121" x="1048" y="1331.1758"/><text fill="#000000" font-family="sans-serif" font-size="14" lengthAdjust="spacing" textLength="103" x="1055" y="1353.2832">:teamRepository</text><text fill="#000000" font-family="sans-serif" font-size="14" lengthAdjust="spacing" textLength="104" x="1056.5" y="1371.9043">TeamRepository</text><rect fill="#E3E3E3" height="32.6211" rx="2.5" ry="2.5" style="stroke:#181818;stroke-width:0.5;" width="50" x="1179" y="1331.1758"/><text fill="#000000" font-family="sans-serif" font-size="14" lengthAdjust="spacing" textLength="36" x="1186" y="1353.2832">Team</text><rect fill="#FFFFFF" height="1189.9336" style="stroke:#181818;stroke-width:1.0;" width="10" x="43" y="133.2422"/><rect fill="#FFFFFF" height="31.291" style="stroke:#181818;stroke-width:1.0;" width="10" x="377" y="156.5332"/><rect fill="#FFFFFF" height="377.2012" style="stroke:#181818;stroke-width:1.0;" width="10" x="377" y="245.4063"/><rect fill="#FFFFFF" height="210.1641" style="stroke:#181818;stroke-width:1.0;" width="10" x="377" y="671.1895"/><rect fill="#FFFFFF" height="401.5313" style="stroke:#181818;stroke-width:1.0;" width="10" x="377" y="912.6445"/><rect fill="#FFFFFF" height="219.0371" style="stroke:#181818;stroke-width:1.0;" width="10" x="611" y="372.2793"/><rect fill="#FFFFFF" height="338.9492" style="stroke:#181818;stroke-width:1.0;" width="10" x="611" y="943.9355"/><rect fill="#FFFFFF" height="31.291" style="stroke:#181818;stroke-width:1.0;" width="10" x="755.5" y="403.5703"/><rect fill="#FFFFFF" height="31.291" style="stroke:#181818;stroke-width:1.0;" width="10" x="755.5" y="1063.1387"/><rect fill="#FFFFFF" height="31.291" style="stroke:#181818;stroke-width:1.0;" width="10" x="862" y="466.1523"/><rect fill="#FFFFFF" height="31.291" style="stroke:#181818;stroke-width:1.0;" width="10" x="862" y="1125.7207"/><rect fill="#FFFFFF" height="31.291" style="stroke:#181818;stroke-width:1.0;" width="10" x="976.5" y="528.7344"/><rect fill="#FFFFFF" height="31.291" style="stroke:#181818;stroke-width:1.0;" width="10" x="1103.5" y="1188.3027"/><polygon fill="#181818" points="365,152.5332,375,156.5332,365,160.5332,369,156.5332" style="stroke:#181818;stroke-width:1.0;"/><line style="stroke:#181818;stroke-width:1.0;" x1="53" x2="371" y1="156.5332" y2="156.5332"/><text fill="#000000" font-family="sans-serif" font-size="13" font-weight="bold" lengthAdjust="spacing" textLength="7" x="60" y="151.2705">1</text><text fill="#000000" font-family="sans-serif" font-size="13" lengthAdjust="spacing" textLength="223" x="71" y="151.2705">Asks to generate a new team proposal</text><polygon fill="#181818" points="64,183.8242,54,187.8242,64,191.8242,60,187.8242" style="stroke:#181818;stroke-width:1.0;"/><line style="stroke:#181818;stroke-width:1.0;stroke-dasharray:2.0,2.0;" x1="58" x2="381" y1="187.8242" y2="187.8242"/><text fill="#000000" font-family="sans-serif" font-size="13" font-weight="bold" lengthAdjust="spacing" textLength="7" x="70" y="182.5615">2</text><text fill="#000000" font-family="sans-serif" font-size="13" lengthAdjust="spacing" textLength="256" x="81" y="182.5615">Requests data (maxteamsize, minteamsize)</text><path d="M10,202.8242 L83,202.8242 L83,212.1152 L73,222.1152 L10,222.1152 L10,202.8242 " fill="#EEEEEE" style="stroke:#000000;stroke-width:1.5;"/><rect fill="none" height="577.6563" style="stroke:#000000;stroke-width:1.5;" width="1048" x="10" y="202.8242"/><text fill="#000000" font-family="sans-serif" font-size="13" font-weight="bold" lengthAdjust="spacing" textLength="28" x="25" y="217.8525">loop</text><text fill="#000000" font-family="sans-serif" font-size="11" font-weight="bold" lengthAdjust="spacing" textLength="154" x="98" y="216.6943">[until input data is validated]</text><path d="M1063,207.8242 L1063,286.8242 L1380,286.8242 L1380,217.8242 L1370,207.8242 L1063,207.8242 " fill="#FAFAFA" style="stroke:#181818;stroke-width:0.5;"/><path d="M1370,207.8242 L1370,217.8242 L1380,217.8242 L1370,207.8242 " fill="#FAFAFA" style="stroke:#181818;stroke-width:0.5;"/><text fill="#000000" font-family="sans-serif" font-size="13" font-weight="bold" lengthAdjust="spacing" textLength="58" x="1069" y="226.8525">(5) NOTE:</text><text fill="#000000" font-family="sans-serif" font-size="13" font-weight="bold" lengthAdjust="spacing" textLength="76" x="1069" y="244.1436">Set of skills:</text><ellipse cx="1074.5" cy="257.1973" fill="#000000" rx="2.5" ry="2.5" style="stroke:#000000;stroke-width:0.0;"/><text fill="#000000" font-family="sans-serif" font-size="13" lengthAdjust="spacing" textLength="248" x="1081" y="261.4346">Set of skills required for the team proposal;</text><ellipse cx="1074.5" cy="274.4883" fill="#000000" rx="2.5" ry="2.5" style="stroke:#000000;stroke-width:0.0;"/><text fill="#000000" font-family="sans-serif" font-size="13" lengthAdjust="spacing" textLength="284" x="1081" y="278.7256">Includes the skill name and the required quantity.</text><polygon fill="#181818" points="365,241.4063,375,245.4063,365,249.4063,369,245.4063" style="stroke:#181818;stroke-width:1.0;"/><line style="stroke:#181818;stroke-width:1.0;" x1="53" x2="371" y1="245.4063" y2="245.4063"/><text fill="#000000" font-family="sans-serif" font-size="13" font-weight="bold" lengthAdjust="spacing" textLength="7" x="60" y="240.1436">3</text><text fill="#000000" font-family="sans-serif" font-size="13" lengthAdjust="spacing" textLength="125" x="71" y="240.1436">Types requested data</text><path d="M20,285.4063 L93,285.4063 L93,294.6973 L83,304.6973 L20,304.6973 L20,285.4063 " fill="#EEEEEE" style="stroke:#000000;stroke-width:1.5;"/><rect fill="none" height="463.0742" style="stroke:#000000;stroke-width:1.5;" width="1028" x="20" y="285.4063"/><text fill="#000000" font-family="sans-serif" font-size="13" font-weight="bold" lengthAdjust="spacing" textLength="28" x="35" y="300.4346">loop</text><text fill="#000000" font-family="sans-serif" font-size="11" font-weight="bold" lengthAdjust="spacing" textLength="202" x="108" y="299.2764">[until no longer want to select skills]</text><line style="stroke:#181818;stroke-width:1.0;stroke-dasharray:2.0,2.0;" x1="387" x2="429" y1="327.9883" y2="327.9883"/><line style="stroke:#181818;stroke-width:1.0;stroke-dasharray:2.0,2.0;" x1="429" x2="429" y1="327.9883" y2="340.9883"/><line style="stroke:#181818;stroke-width:1.0;stroke-dasharray:2.0,2.0;" x1="388" x2="429" y1="340.9883" y2="340.9883"/><polygon fill="#181818" points="398,336.9883,388,340.9883,398,344.9883,394,340.9883" style="stroke:#181818;stroke-width:1.0;"/><text fill="#000000" font-family="sans-serif" font-size="13" font-weight="bold" lengthAdjust="spacing" textLength="7" x="394" y="322.7256">4</text><text fill="#000000" font-family="sans-serif" font-size="13" lengthAdjust="spacing" textLength="199" x="405" y="322.7256">keepData(max and min team size)</text><polygon fill="#181818" points="599,368.2793,609,372.2793,599,376.2793,603,372.2793" style="stroke:#181818;stroke-width:1.0;"/><line style="stroke:#181818;stroke-width:1.0;" x1="387" x2="605" y1="372.2793" y2="372.2793"/><text fill="#000000" font-family="sans-serif" font-size="13" font-weight="bold" lengthAdjust="spacing" textLength="7" x="394" y="367.0166">5</text><text fill="#000000" font-family="sans-serif" font-size="13" lengthAdjust="spacing" textLength="72" x="405" y="367.0166">getSkillList()</text><polygon fill="#181818" points="743.5,399.5703,753.5,403.5703,743.5,407.5703,747.5,403.5703" style="stroke:#181818;stroke-width:1.0;"/><line style="stroke:#181818;stroke-width:1.0;" x1="621" x2="749.5" y1="403.5703" y2="403.5703"/><text fill="#000000" font-family="sans-serif" font-size="13" font-weight="bold" lengthAdjust="spacing" textLength="7" x="628" y="398.3076">6</text><text fill="#000000" font-family="sans-serif" font-size="13" lengthAdjust="spacing" textLength="75" x="639" y="398.3076">getInstance()</text><polygon fill="#181818" points="632,430.8613,622,434.8613,632,438.8613,628,434.8613" style="stroke:#181818;stroke-width:1.0;"/><line style="stroke:#181818;stroke-width:1.0;stroke-dasharray:2.0,2.0;" x1="626" x2="759.5" y1="434.8613" y2="434.8613"/><text fill="#000000" font-family="sans-serif" font-size="13" font-weight="bold" lengthAdjust="spacing" textLength="7" x="638" y="429.5986">7</text><text fill="#000000" font-family="sans-serif" font-size="13" lengthAdjust="spacing" textLength="67" x="649" y="429.5986">repositories</text><polygon fill="#181818" points="850,462.1523,860,466.1523,850,470.1523,854,466.1523" style="stroke:#181818;stroke-width:1.0;"/><line style="stroke:#181818;stroke-width:1.0;" x1="621" x2="856" y1="466.1523" y2="466.1523"/><text fill="#000000" font-family="sans-serif" font-size="13" font-weight="bold" lengthAdjust="spacing" textLength="7" x="628" y="460.8896">8</text><text fill="#000000" font-family="sans-serif" font-size="13" lengthAdjust="spacing" textLength="113" x="639" y="460.8896">getSkillRepository()</text><polygon fill="#181818" points="632,493.4434,622,497.4434,632,501.4434,628,497.4434" style="stroke:#181818;stroke-width:1.0;"/><line style="stroke:#181818;stroke-width:1.0;stroke-dasharray:2.0,2.0;" x1="626" x2="866" y1="497.4434" y2="497.4434"/><text fill="#000000" font-family="sans-serif" font-size="13" font-weight="bold" lengthAdjust="spacing" textLength="7" x="638" y="492.1807">9</text><text fill="#000000" font-family="sans-serif" font-size="13" lengthAdjust="spacing" textLength="85" x="649" y="492.1807">skillRepository</text><polygon fill="#181818" points="964.5,524.7344,974.5,528.7344,964.5,532.7344,968.5,528.7344" style="stroke:#181818;stroke-width:1.0;"/><line style="stroke:#181818;stroke-width:1.0;" x1="621" x2="970.5" y1="528.7344" y2="528.7344"/><text fill="#000000" font-family="sans-serif" font-size="13" font-weight="bold" lengthAdjust="spacing" textLength="14" x="628" y="523.4717">10</text><text fill="#000000" font-family="sans-serif" font-size="13" lengthAdjust="spacing" textLength="72" x="646" y="523.4717">getSkillList()</text><polygon fill="#181818" points="632,556.0254,622,560.0254,632,564.0254,628,560.0254" style="stroke:#181818;stroke-width:1.0;"/><line style="stroke:#181818;stroke-width:1.0;stroke-dasharray:2.0,2.0;" x1="626" x2="980.5" y1="560.0254" y2="560.0254"/><text fill="#000000" font-family="sans-serif" font-size="13" font-weight="bold" lengthAdjust="spacing" textLength="14" x="638" y="554.7627">11</text><text fill="#000000" font-family="sans-serif" font-size="13" lengthAdjust="spacing" textLength="44" x="656" y="554.7627">skillList</text><polygon fill="#181818" points="398,587.3164,388,591.3164,398,595.3164,394,591.3164" style="stroke:#181818;stroke-width:1.0;"/><line style="stroke:#181818;stroke-width:1.0;stroke-dasharray:2.0,2.0;" x1="392" x2="615" y1="591.3164" y2="591.3164"/><text fill="#000000" font-family="sans-serif" font-size="13" font-weight="bold" lengthAdjust="spacing" textLength="14" x="404" y="586.0537">12</text><text fill="#000000" font-family="sans-serif" font-size="13" lengthAdjust="spacing" textLength="44" x="422" y="586.0537">skillList</text><polygon fill="#181818" points="64,618.6074,54,622.6074,64,626.6074,60,622.6074" style="stroke:#181818;stroke-width:1.0;"/><line style="stroke:#181818;stroke-width:1.0;stroke-dasharray:2.0,2.0;" x1="58" x2="381" y1="622.6074" y2="622.6074"/><text fill="#000000" font-family="sans-serif" font-size="13" font-weight="bold" lengthAdjust="spacing" textLength="14" x="70" y="617.3447">13</text><text fill="#000000" font-family="sans-serif" font-size="13" lengthAdjust="spacing" textLength="228" x="88" y="617.3447">Shows list of skills and asks how many</text><polygon fill="#181818" points="365,667.1895,375,671.1895,365,675.1895,369,671.1895" style="stroke:#181818;stroke-width:1.0;"/><line style="stroke:#181818;stroke-width:1.0;" x1="53" x2="371" y1="671.1895" y2="671.1895"/><text fill="#000000" font-family="sans-serif" font-size="13" font-weight="bold" lengthAdjust="spacing" textLength="14" x="60" y="657.2813">14</text><text fill="#000000" font-family="sans-serif" font-size="13" lengthAdjust="spacing" textLength="256" x="78" y="648.6357">Selects a skill from the list and specifies the</text><text fill="#000000" font-family="sans-serif" font-size="13" lengthAdjust="spacing" textLength="117" x="78" y="665.9268">quantity of that skill.</text><line style="stroke:#181818;stroke-width:1.0;stroke-dasharray:2.0,2.0;" x1="387" x2="429" y1="702.4805" y2="702.4805"/><line style="stroke:#181818;stroke-width:1.0;stroke-dasharray:2.0,2.0;" x1="429" x2="429" y1="702.4805" y2="715.4805"/><line style="stroke:#181818;stroke-width:1.0;stroke-dasharray:2.0,2.0;" x1="388" x2="429" y1="715.4805" y2="715.4805"/><polygon fill="#181818" points="398,711.4805,388,715.4805,398,719.4805,394,715.4805" style="stroke:#181818;stroke-width:1.0;"/><text fill="#000000" font-family="sans-serif" font-size="13" font-weight="bold" lengthAdjust="spacing" textLength="14" x="394" y="697.2178">15</text><text fill="#000000" font-family="sans-serif" font-size="13" lengthAdjust="spacing" textLength="171" x="412" y="697.2178">keepData(amount, skillName)</text><path d="M20,794.4805 L93,794.4805 L93,803.7715 L83,813.7715 L20,813.7715 L20,794.4805 " fill="#EEEEEE" style="stroke:#000000;stroke-width:1.5;"/><rect fill="none" height="433.1133" style="stroke:#000000;stroke-width:1.5;" width="1333" x="20" y="794.4805"/><text fill="#000000" font-family="sans-serif" font-size="13" font-weight="bold" lengthAdjust="spacing" textLength="28" x="35" y="809.5088">loop</text><text fill="#000000" font-family="sans-serif" font-size="11" font-weight="bold" lengthAdjust="spacing" textLength="210" x="108" y="808.3506">[until the team generated is accepted]</text><line style="stroke:#181818;stroke-width:1.0;stroke-dasharray:2.0,2.0;" x1="387" x2="429" y1="837.0625" y2="837.0625"/><line style="stroke:#181818;stroke-width:1.0;stroke-dasharray:2.0,2.0;" x1="429" x2="429" y1="837.0625" y2="850.0625"/><line style="stroke:#181818;stroke-width:1.0;stroke-dasharray:2.0,2.0;" x1="388" x2="429" y1="850.0625" y2="850.0625"/><polygon fill="#181818" points="398,846.0625,388,850.0625,398,854.0625,394,850.0625" style="stroke:#181818;stroke-width:1.0;"/><text fill="#000000" font-family="sans-serif" font-size="13" font-weight="bold" lengthAdjust="spacing" textLength="14" x="394" y="831.7998">16</text><text fill="#000000" font-family="sans-serif" font-size="13" lengthAdjust="spacing" textLength="109" x="412" y="831.7998">generateProposal()</text><polygon fill="#181818" points="64,877.3535,54,881.3535,64,885.3535,60,881.3535" style="stroke:#181818;stroke-width:1.0;"/><line style="stroke:#181818;stroke-width:1.0;stroke-dasharray:2.0,2.0;" x1="58" x2="381" y1="881.3535" y2="881.3535"/><text fill="#000000" font-family="sans-serif" font-size="13" font-weight="bold" lengthAdjust="spacing" textLength="14" x="70" y="876.0908">17</text><text fill="#000000" font-family="sans-serif" font-size="13" lengthAdjust="spacing" textLength="282" x="88" y="876.0908">Shows team generated and asks for confirmation</text><polygon fill="#181818" points="365,908.6445,375,912.6445,365,916.6445,369,912.6445" style="stroke:#181818;stroke-width:1.0;"/><line style="stroke:#181818;stroke-width:1.0;" x1="53" x2="371" y1="912.6445" y2="912.6445"/><text fill="#000000" font-family="sans-serif" font-size="13" font-weight="bold" lengthAdjust="spacing" textLength="14" x="60" y="907.3818">18</text><text fill="#000000" font-family="sans-serif" font-size="13" lengthAdjust="spacing" textLength="185" x="78" y="907.3818">Accepts or rejects the proposal.</text><polygon fill="#181818" points="599,939.9355,609,943.9355,599,947.9355,603,943.9355" style="stroke:#181818;stroke-width:1.0;"/><line style="stroke:#181818;stroke-width:1.0;" x1="387" x2="605" y1="943.9355" y2="943.9355"/><text fill="#000000" font-family="sans-serif" font-size="13" font-weight="bold" lengthAdjust="spacing" textLength="14" x="394" y="938.6729">19</text><text fill="#000000" font-family="sans-serif" font-size="13" lengthAdjust="spacing" textLength="105" x="412" y="938.6729">createTeam(team)</text><polygon fill="#181818" points="1167,971.2266,1177,975.2266,1167,979.2266,1171,975.2266" style="stroke:#181818;stroke-width:1.0;"/><line style="stroke:#181818;stroke-width:1.0;" x1="621" x2="1173" y1="975.2266" y2="975.2266"/><text fill="#000000" font-family="sans-serif" font-size="13" font-weight="bold" lengthAdjust="spacing" textLength="14" x="628" y="969.9639">20</text><text fill="#000000" font-family="sans-serif" font-size="13" lengthAdjust="spacing" textLength="105" x="646" y="969.9639">createTeam(team)</text><rect fill="#E3E3E3" height="32.6211" rx="2.5" ry="2.5" style="stroke:#181818;stroke-width:0.5;" width="50" x="1179" y="951.9355"/><text fill="#000000" font-family="sans-serif" font-size="14" lengthAdjust="spacing" textLength="36" x="1186" y="974.043">Team</text><line style="stroke:#181818;stroke-width:1.0;stroke-dasharray:2.0,2.0;" x1="1204" x2="1246" y1="1018.8477" y2="1018.8477"/><line style="stroke:#181818;stroke-width:1.0;stroke-dasharray:2.0,2.0;" x1="1246" x2="1246" y1="1018.8477" y2="1031.8477"/><line style="stroke:#181818;stroke-width:1.0;stroke-dasharray:2.0,2.0;" x1="1205" x2="1246" y1="1031.8477" y2="1031.8477"/><polygon fill="#181818" points="1215,1027.8477,1205,1031.8477,1215,1035.8477,1211,1031.8477" style="stroke:#181818;stroke-width:1.0;"/><text fill="#000000" font-family="sans-serif" font-size="13" font-weight="bold" lengthAdjust="spacing" textLength="14" x="1211" y="1013.585">21</text><text fill="#000000" font-family="sans-serif" font-size="13" lengthAdjust="spacing" textLength="112" x="1229" y="1013.585">validateTeam(team)</text><polygon fill="#181818" points="743.5,1059.1387,753.5,1063.1387,743.5,1067.1387,747.5,1063.1387" style="stroke:#181818;stroke-width:1.0;"/><line style="stroke:#181818;stroke-width:1.0;" x1="621" x2="749.5" y1="1063.1387" y2="1063.1387"/><text fill="#000000" font-family="sans-serif" font-size="13" font-weight="bold" lengthAdjust="spacing" textLength="14" x="628" y="1057.876">22</text><text fill="#000000" font-family="sans-serif" font-size="13" lengthAdjust="spacing" textLength="75" x="646" y="1057.876">getInstance()</text><polygon fill="#181818" points="632,1090.4297,622,1094.4297,632,1098.4297,628,1094.4297" style="stroke:#181818;stroke-width:1.0;"/><line style="stroke:#181818;stroke-width:1.0;stroke-dasharray:2.0,2.0;" x1="626" x2="759.5" y1="1094.4297" y2="1094.4297"/><text fill="#000000" font-family="sans-serif" font-size="13" font-weight="bold" lengthAdjust="spacing" textLength="14" x="638" y="1089.167">23</text><text fill="#000000" font-family="sans-serif" font-size="13" lengthAdjust="spacing" textLength="67" x="656" y="1089.167">repositories</text><polygon fill="#181818" points="850,1121.7207,860,1125.7207,850,1129.7207,854,1125.7207" style="stroke:#181818;stroke-width:1.0;"/><line style="stroke:#181818;stroke-width:1.0;" x1="621" x2="856" y1="1125.7207" y2="1125.7207"/><text fill="#000000" font-family="sans-serif" font-size="13" font-weight="bold" lengthAdjust="spacing" textLength="14" x="628" y="1120.458">24</text><text fill="#000000" font-family="sans-serif" font-size="13" lengthAdjust="spacing" textLength="120" x="646" y="1120.458">getTeamRepository()</text><polygon fill="#181818" points="632,1153.0117,622,1157.0117,632,1161.0117,628,1157.0117" style="stroke:#181818;stroke-width:1.0;"/><line style="stroke:#181818;stroke-width:1.0;stroke-dasharray:2.0,2.0;" x1="626" x2="866" y1="1157.0117" y2="1157.0117"/><text fill="#000000" font-family="sans-serif" font-size="13" font-weight="bold" lengthAdjust="spacing" textLength="14" x="638" y="1151.749">25</text><text fill="#000000" font-family="sans-serif" font-size="13" lengthAdjust="spacing" textLength="91" x="656" y="1151.749">teamRepository</text><polygon fill="#181818" points="1091.5,1184.3027,1101.5,1188.3027,1091.5,1192.3027,1095.5,1188.3027" style="stroke:#181818;stroke-width:1.0;"/><line style="stroke:#181818;stroke-width:1.0;" x1="621" x2="1097.5" y1="1188.3027" y2="1188.3027"/><text fill="#000000" font-family="sans-serif" font-size="13" font-weight="bold" lengthAdjust="spacing" textLength="14" x="628" y="1183.04">26</text><text fill="#000000" font-family="sans-serif" font-size="13" lengthAdjust="spacing" textLength="166" x="646" y="1183.04">addToTeamRepository(team)</text><polygon fill="#181818" points="632,1215.5938,622,1219.5938,632,1223.5938,628,1219.5938" style="stroke:#181818;stroke-width:1.0;"/><line style="stroke:#181818;stroke-width:1.0;stroke-dasharray:2.0,2.0;" x1="626" x2="1107.5" y1="1219.5938" y2="1219.5938"/><text fill="#000000" font-family="sans-serif" font-size="13" font-weight="bold" lengthAdjust="spacing" textLength="14" x="638" y="1214.3311">27</text><text fill="#000000" font-family="sans-serif" font-size="13" lengthAdjust="spacing" textLength="106" x="656" y="1214.3311">operation success</text><polygon fill="#181818" points="398,1278.8848,388,1282.8848,398,1286.8848,394,1282.8848" style="stroke:#181818;stroke-width:1.0;"/><line style="stroke:#181818;stroke-width:1.0;stroke-dasharray:2.0,2.0;" x1="392" x2="615" y1="1282.8848" y2="1282.8848"/><text fill="#000000" font-family="sans-serif" font-size="13" font-weight="bold" lengthAdjust="spacing" textLength="14" x="404" y="1277.6221">28</text><text fill="#000000" font-family="sans-serif" font-size="13" lengthAdjust="spacing" textLength="106" x="422" y="1277.6221">operation success</text><polygon fill="#181818" points="64,1310.1758,54,1314.1758,64,1318.1758,60,1314.1758" style="stroke:#181818;stroke-width:1.0;"/><line style="stroke:#181818;stroke-width:1.0;stroke-dasharray:2.0,2.0;" x1="58" x2="381" y1="1314.1758" y2="1314.1758"/><text fill="#000000" font-family="sans-serif" font-size="13" font-weight="bold" lengthAdjust="spacing" textLength="14" x="70" y="1308.9131">29</text><text fill="#000000" font-family="sans-serif" font-size="13" lengthAdjust="spacing" textLength="160" x="88" y="1308.9131">Displays operation success</text><!--SRC=[bLRBRjiw4DtpAmPPEKOTTDED2nGecW0tGDiRcEwk6rOQsxoHI9MackiY7zyPwc59bcINAukSENDuE0_xPsqAvLGEkJKsEJYR8mHNel3jIQ6IPxL76OuPWiCaABFFkWR-e5BxeiqUTYhpA4JGWKo_oRTlty4AvD47p47Ypn9DWd2lrPxT5bBUtmgXoc1DcVz0Hx-JO1tS_BFvSWFAmqDUPFQ8A2XEq8akb0bmizwYof-SBQnNsRV7Q5d5cB7xP4rmDilGHVljqwU1yGR9JbDuZJwQR1wU1YQkOmBVpPY77BYGI5dM6Xx9I_PtAlQRWLiWvZslRM-ZleA8WkbVAk19AW6qcYzOVMZaNyD7_-mXMDYZGSS-2Wo-0CU2efOfUhUWjQfnarSDjIBKDi8QDlomFdX8LL2moDN_3EdrRtm3kJRDnss4IN4KFREsWD84dG5bLHagBEtXbyeq_SPqvcBROq4FuYeQc4PVKTc_lhwsx3inZAKliqS7BomuYU8neyo6-5w-THbJ0mQh8qhBw1cnk2SMB0Oeax8EbT0d9SOmFd1YalyUGyoJpzg7nQquisyvSHx3o68OGgEChD0UZQUoJN0Ch0V8MGyJYz5MBSTkDOowT9vw2lL4KtPkVKhqQ-ZAERwoGtXGYrTmbcAEjTnSyLBz3DgCdXFGW2MZNU97ODFikiauZTX16qkayNAN1_lY8ICyiBkwO6AEA-ulT0YvCdrr9ug-MQD5BMD14d8L0dOqcY0Si8hCyNo1YTvnB-Rjx-PdIRMimv5fXOEgY_dkwcAUBMILMseTRohChoglYxZRNv0uSOyvTPw98rx64WcdzuVpLrak5-zkuUk_suVrSZboAh6Z_AX9po8sHkseB-vejh9KlOx__jpzqIHPcTQwLkeRkd4KdRTQm4Rnkzv5-MfdNRsDsqoVbBkxIX8ikBcFwhzkZPifpXKchadFGQWsFLc2n9gTThaAsXenDPHcncZax86G7FuNSvGlr-Xv9-RoRDZe4uTanTDzmPHFaw5Nc6Aa-x3FSZa74OrPXrLjJiRDE9qo_uknCTlS_s9KN1WJPoEY_rVe4ZCfBao5_byjSMaWJD3Ric0gJRTsGA_IU6w0Zq1swDc2KvWo5Nn9YUVzV1El4xVjDyCUTJOSfl47m-5ItTrhNsJgw2SGpqli3m00]--></g></svg>