<?xml version="1.0" encoding="us-ascii" standalone="no"?><svg xmlns="http://www.w3.org/2000/svg" xmlns:xlink="http://www.w3.org/1999/xlink" contentStyleType="text/css" height="806.4px" preserveAspectRatio="none" style="width:825px;height:806px;background:#FFFFFF;" version="1.1" viewBox="0 0 825 806" width="825.6px" zoomAndPan="magnify"><defs/><g><text fill="#000000" font-family="sans-serif" font-size="8.4" font-weight="bold" lengthAdjust="spacing" textLength="170.4" x="329.7" y="18.0645">US005 - System Sequence Diagram (SSD)</text><rect fill="#FFFFFF" height="671.5875" style="stroke:#181818;stroke-width:0.6;" width="6" x="25.8" y="79.9453"/><rect fill="#FFFFFF" height="18.7746" style="stroke:#181818;stroke-width:0.6;" width="6" x="226.2" y="93.9199"/><rect fill="#FFFFFF" height="226.3207" style="stroke:#181818;stroke-width:0.6;" width="6" x="226.2" y="147.2438"/><rect fill="#FFFFFF" height="136.473" style="stroke:#181818;stroke-width:0.6;" width="6" x="226.2" y="402.7137"/><rect fill="#FFFFFF" height="188.1715" style="stroke:#181818;stroke-width:0.6;" width="6" x="226.2" y="557.9613"/><rect fill="#FFFFFF" height="131.4223" style="stroke:#181818;stroke-width:0.6;" width="6" x="366.6" y="223.3676"/><rect fill="#FFFFFF" height="150.6223" style="stroke:#181818;stroke-width:0.6;" width="6" x="366.6" y="576.7359"/><rect fill="#FFFFFF" height="18.7746" style="stroke:#181818;stroke-width:0.6;" width="6" x="450" y="242.1422"/><rect fill="#FFFFFF" height="18.7746" style="stroke:#181818;stroke-width:0.6;" width="6" x="450" y="595.5105"/><rect fill="#FFFFFF" height="18.7746" style="stroke:#181818;stroke-width:0.6;" width="6" x="510.6" y="279.6914"/><rect fill="#FFFFFF" height="18.7746" style="stroke:#181818;stroke-width:0.6;" width="6" x="510.6" y="633.0598"/><rect fill="#FFFFFF" height="18.7746" style="stroke:#181818;stroke-width:0.6;" width="6" x="579.3" y="317.2406"/><rect fill="#FFFFFF" height="18.7746" style="stroke:#181818;stroke-width:0.6;" width="6" x="651.6" y="670.609"/><rect fill="none" height="346.5938" style="stroke:#000000;stroke-width:0.8999999999999999;" width="622.2" x="6" y="121.6945"/><rect fill="none" height="251.2699" style="stroke:#000000;stroke-width:0.8999999999999999;" width="610.2" x="12" y="171.2438"/><rect fill="none" height="217.4953" style="stroke:#000000;stroke-width:0.8999999999999999;" width="681" x="12" y="476.6883"/><line style="stroke:#181818;stroke-width:0.3;stroke-dasharray:5.0,5.0;" x1="28.8" x2="28.8" y1="73.9453" y2="756.9328"/><line style="stroke:#181818;stroke-width:0.3;stroke-dasharray:5.0,5.0;" x1="229.2" x2="229.2" y1="73.9453" y2="756.9328"/><line style="stroke:#181818;stroke-width:0.3;stroke-dasharray:5.0,5.0;" x1="369.6" x2="369.6" y1="73.9453" y2="756.9328"/><line style="stroke:#181818;stroke-width:0.3;stroke-dasharray:5.0,5.0;" x1="453" x2="453" y1="73.9453" y2="756.9328"/><line style="stroke:#181818;stroke-width:0.3;stroke-dasharray:5.0,5.0;" x1="513.6" x2="513.6" y1="73.9453" y2="756.9328"/><line style="stroke:#181818;stroke-width:0.3;stroke-dasharray:5.0,5.0;" x1="582" x2="582" y1="73.9453" y2="756.9328"/><line style="stroke:#181818;stroke-width:0.3;stroke-dasharray:5.0,5.0;" x1="654.6" x2="654.6" y1="73.9453" y2="756.9328"/><text fill="#000000" font-family="sans-serif" font-size="8.4" lengthAdjust="spacing" textLength="18" x="18" y="71.8371">HRM</text><ellipse cx="28.8" cy="31.8727" fill="#E3E3E3" rx="4.8" ry="4.8" style="stroke:#181818;stroke-width:0.3;"/><path d="M28.8,36.6727 L28.8,52.8727 M21,41.4727 L36.6,41.4727 M28.8,52.8727 L21,61.8727 M28.8,52.8727 L36.6,61.8727 " fill="none" style="stroke:#181818;stroke-width:0.3;"/><text fill="#000000" font-family="sans-serif" font-size="8.4" lengthAdjust="spacing" textLength="18" x="18" y="765.3973">HRM</text><ellipse cx="28.8" cy="772.6055" fill="#E3E3E3" rx="4.8" ry="4.8" style="stroke:#181818;stroke-width:0.3;"/><path d="M28.8,777.4055 L28.8,793.6055 M21,782.2055 L36.6,782.2055 M28.8,793.6055 L21,802.6055 M28.8,793.6055 L36.6,802.6055 " fill="none" style="stroke:#181818;stroke-width:0.3;"/><rect fill="#E3E3E3" height="19.5727" rx="1.5" ry="1.5" style="stroke:#181818;stroke-width:0.3;" width="73.2" x="192.6" y="53.7727"/><text fill="#000000" font-family="sans-serif" font-size="8.4" lengthAdjust="spacing" textLength="64.8" x="196.8" y="67.0371">:TeamProposalUI</text><rect fill="#E3E3E3" height="19.5727" rx="1.5" ry="1.5" style="stroke:#181818;stroke-width:0.3;" width="73.2" x="192.6" y="756.3328"/><text fill="#000000" font-family="sans-serif" font-size="8.4" lengthAdjust="spacing" textLength="64.8" x="196.8" y="769.5973">:TeamProposalUI</text><rect fill="#E3E3E3" height="19.5727" rx="1.5" ry="1.5" style="stroke:#181818;stroke-width:0.3;" width="103.2" x="318" y="53.7727"/><text fill="#000000" font-family="sans-serif" font-size="8.4" lengthAdjust="spacing" textLength="94.8" x="322.2" y="67.0371">:TeamProposalController</text><rect fill="#E3E3E3" height="19.5727" rx="1.5" ry="1.5" style="stroke:#181818;stroke-width:0.3;" width="103.2" x="318" y="756.3328"/><text fill="#000000" font-family="sans-serif" font-size="8.4" lengthAdjust="spacing" textLength="94.8" x="322.2" y="769.5973">:TeamProposalController</text><rect fill="#E3E3E3" height="19.5727" rx="1.5" ry="1.5" style="stroke:#181818;stroke-width:0.3;" width="51.6" x="427.2" y="53.7727"/><text fill="#000000" font-family="sans-serif" font-size="8.4" lengthAdjust="spacing" textLength="43.2" x="431.4" y="67.0371">:Repository</text><rect fill="#E3E3E3" height="19.5727" rx="1.5" ry="1.5" style="stroke:#181818;stroke-width:0.3;" width="51.6" x="427.2" y="756.3328"/><text fill="#000000" font-family="sans-serif" font-size="8.4" lengthAdjust="spacing" textLength="43.2" x="431.4" y="769.5973">:Repository</text><rect fill="#E3E3E3" height="30.7453" rx="1.5" ry="1.5" style="stroke:#181818;stroke-width:0.3;" width="57.6" x="484.8" y="42.6"/><text fill="#000000" font-family="sans-serif" font-size="8.4" lengthAdjust="spacing" textLength="46.8" x="489" y="55.8645">:repositories</text><text fill="#000000" font-family="sans-serif" font-size="8.4" lengthAdjust="spacing" textLength="47.4" x="489.9" y="67.0371">Repositories</text><rect fill="#E3E3E3" height="30.7453" rx="1.5" ry="1.5" style="stroke:#181818;stroke-width:0.3;" width="57.6" x="484.8" y="756.3328"/><text fill="#000000" font-family="sans-serif" font-size="8.4" lengthAdjust="spacing" textLength="46.8" x="489" y="769.5973">:repositories</text><text fill="#000000" font-family="sans-serif" font-size="8.4" lengthAdjust="spacing" textLength="47.4" x="489.9" y="780.7699">Repositories</text><rect fill="#E3E3E3" height="30.7453" rx="1.5" ry="1.5" style="stroke:#181818;stroke-width:0.3;" width="67.8" x="548.4" y="42.6"/><text fill="#000000" font-family="sans-serif" font-size="8.4" lengthAdjust="spacing" textLength="57" x="552.6" y="55.8645">:skillRepository</text><text fill="#000000" font-family="sans-serif" font-size="8.4" lengthAdjust="spacing" textLength="55.8" x="554.4" y="67.0371">SkillRepository</text><rect fill="#E3E3E3" height="30.7453" rx="1.5" ry="1.5" style="stroke:#181818;stroke-width:0.3;" width="67.8" x="548.4" y="756.3328"/><text fill="#000000" font-family="sans-serif" font-size="8.4" lengthAdjust="spacing" textLength="57" x="552.6" y="769.5973">:skillRepository</text><text fill="#000000" font-family="sans-serif" font-size="8.4" lengthAdjust="spacing" textLength="55.8" x="554.4" y="780.7699">SkillRepository</text><rect fill="#E3E3E3" height="30.7453" rx="1.5" ry="1.5" style="stroke:#181818;stroke-width:0.3;" width="64.8" x="622.2" y="42.6"/><text fill="#000000" font-family="sans-serif" font-size="8.4" lengthAdjust="spacing" textLength="54" x="626.4" y="55.8645">:teamproposal</text><text fill="#000000" font-family="sans-serif" font-size="8.4" lengthAdjust="spacing" textLength="55.2" x="627" y="67.0371">TeamProposal</text><rect fill="#E3E3E3" height="30.7453" rx="1.5" ry="1.5" style="stroke:#181818;stroke-width:0.3;" width="64.8" x="622.2" y="756.3328"/><text fill="#000000" font-family="sans-serif" font-size="8.4" lengthAdjust="spacing" textLength="54" x="626.4" y="769.5973">:teamproposal</text><text fill="#000000" font-family="sans-serif" font-size="8.4" lengthAdjust="spacing" textLength="55.2" x="627" y="780.7699">TeamProposal</text><rect fill="#FFFFFF" height="671.5875" style="stroke:#181818;stroke-width:0.6;" width="6" x="25.8" y="79.9453"/><rect fill="#FFFFFF" height="18.7746" style="stroke:#181818;stroke-width:0.6;" width="6" x="226.2" y="93.9199"/><rect fill="#FFFFFF" height="226.3207" style="stroke:#181818;stroke-width:0.6;" width="6" x="226.2" y="147.2438"/><rect fill="#FFFFFF" height="136.473" style="stroke:#181818;stroke-width:0.6;" width="6" x="226.2" y="402.7137"/><rect fill="#FFFFFF" height="188.1715" style="stroke:#181818;stroke-width:0.6;" width="6" x="226.2" y="557.9613"/><rect fill="#FFFFFF" height="131.4223" style="stroke:#181818;stroke-width:0.6;" width="6" x="366.6" y="223.3676"/><rect fill="#FFFFFF" height="150.6223" style="stroke:#181818;stroke-width:0.6;" width="6" x="366.6" y="576.7359"/><rect fill="#FFFFFF" height="18.7746" style="stroke:#181818;stroke-width:0.6;" width="6" x="450" y="242.1422"/><rect fill="#FFFFFF" height="18.7746" style="stroke:#181818;stroke-width:0.6;" width="6" x="450" y="595.5105"/><rect fill="#FFFFFF" height="18.7746" style="stroke:#181818;stroke-width:0.6;" width="6" x="510.6" y="279.6914"/><rect fill="#FFFFFF" height="18.7746" style="stroke:#181818;stroke-width:0.6;" width="6" x="510.6" y="633.0598"/><rect fill="#FFFFFF" height="18.7746" style="stroke:#181818;stroke-width:0.6;" width="6" x="579.3" y="317.2406"/><rect fill="#FFFFFF" height="18.7746" style="stroke:#181818;stroke-width:0.6;" width="6" x="651.6" y="670.609"/><polygon fill="#181818" points="219,91.5199,225,93.9199,219,96.3199,221.4,93.9199" style="stroke:#181818;stroke-width:0.6;"/><line style="stroke:#181818;stroke-width:0.6;" x1="31.8" x2="222.6" y1="93.9199" y2="93.9199"/><text fill="#000000" font-family="sans-serif" font-size="7.8" font-weight="bold" lengthAdjust="spacing" textLength="4.2" x="36" y="90.7623">1</text><text fill="#000000" font-family="sans-serif" font-size="7.8" lengthAdjust="spacing" textLength="133.8" x="42.6" y="90.7623">Asks to generate a new team proposal</text><polygon fill="#181818" points="38.4,110.2945,32.4,112.6945,38.4,115.0945,36,112.6945" style="stroke:#181818;stroke-width:0.6;"/><line style="stroke:#181818;stroke-width:0.6;stroke-dasharray:2.0,2.0;" x1="34.8" x2="228.6" y1="112.6945" y2="112.6945"/><text fill="#000000" font-family="sans-serif" font-size="7.8" font-weight="bold" lengthAdjust="spacing" textLength="4.2" x="42" y="109.5369">2</text><text fill="#000000" font-family="sans-serif" font-size="7.8" lengthAdjust="spacing" textLength="139.2" x="48.6" y="109.5369">Requests data (max and min team size)</text><path d="M6,121.6945 L49.8,121.6945 L49.8,127.2691 L43.8,133.2691 L6,133.2691 L6,121.6945 " fill="#EEEEEE" style="stroke:#000000;stroke-width:0.8999999999999999;"/><rect fill="none" height="346.5938" style="stroke:#000000;stroke-width:0.8999999999999999;" width="622.2" x="6" y="121.6945"/><text fill="#000000" font-family="sans-serif" font-size="7.8" font-weight="bold" lengthAdjust="spacing" textLength="16.8" x="15" y="130.7115">loop</text><text fill="#000000" font-family="sans-serif" font-size="6.6" font-weight="bold" lengthAdjust="spacing" textLength="92.4" x="58.8" y="130.0166">[until input data is validated]</text><path d="M631.2,124.6945 L631.2,172.0945 L821.4,172.0945 L821.4,130.6945 L815.4,124.6945 L631.2,124.6945 " fill="#FAFAFA" style="stroke:#181818;stroke-width:0.3;"/><path d="M815.4,124.6945 L815.4,130.6945 L821.4,130.6945 L815.4,124.6945 " fill="#FAFAFA" style="stroke:#181818;stroke-width:0.3;"/><text fill="#000000" font-family="sans-serif" font-size="7.8" font-weight="bold" lengthAdjust="spacing" textLength="34.8" x="634.8" y="136.1115">(5) NOTE:</text><text fill="#000000" font-family="sans-serif" font-size="7.8" font-weight="bold" lengthAdjust="spacing" textLength="45.6" x="634.8" y="146.4861">Set of skills:</text><ellipse cx="638.1" cy="154.3184" fill="#000000" rx="1.5" ry="1.5" style="stroke:#000000;stroke-width:0.0;"/><text fill="#000000" font-family="sans-serif" font-size="7.8" lengthAdjust="spacing" textLength="148.8" x="642" y="156.8607">Set of skills required for the team proposal;</text><ellipse cx="638.1" cy="164.693" fill="#000000" rx="1.5" ry="1.5" style="stroke:#000000;stroke-width:0.0;"/><text fill="#000000" font-family="sans-serif" font-size="7.8" lengthAdjust="spacing" textLength="170.4" x="642" y="167.2354">Includes the skill name and the required quantity.</text><polygon fill="#181818" points="219,144.8438,225,147.2438,219,149.6437,221.4,147.2438" style="stroke:#181818;stroke-width:0.6;"/><line style="stroke:#181818;stroke-width:0.6;" x1="31.8" x2="222.6" y1="147.2438" y2="147.2438"/><text fill="#000000" font-family="sans-serif" font-size="7.8" font-weight="bold" lengthAdjust="spacing" textLength="4.2" x="36" y="144.0861">3</text><text fill="#000000" font-family="sans-serif" font-size="7.8" lengthAdjust="spacing" textLength="75" x="42.6" y="144.0861">Types requested data</text><path d="M12,171.2438 L55.8,171.2438 L55.8,176.8184 L49.8,182.8184 L12,182.8184 L12,171.2438 " fill="#EEEEEE" style="stroke:#000000;stroke-width:0.8999999999999999;"/><rect fill="none" height="251.2699" style="stroke:#000000;stroke-width:0.8999999999999999;" width="610.2" x="12" y="171.2438"/><text fill="#000000" font-family="sans-serif" font-size="7.8" font-weight="bold" lengthAdjust="spacing" textLength="16.8" x="21" y="180.2607">loop</text><text fill="#000000" font-family="sans-serif" font-size="6.6" font-weight="bold" lengthAdjust="spacing" textLength="121.2" x="64.8" y="179.5658">[until no longer want to select skills]</text><line style="stroke:#181818;stroke-width:0.6;stroke-dasharray:2.0,2.0;" x1="232.2" x2="257.4" y1="196.793" y2="196.793"/><line style="stroke:#181818;stroke-width:0.6;stroke-dasharray:2.0,2.0;" x1="257.4" x2="257.4" y1="196.793" y2="204.593"/><line style="stroke:#181818;stroke-width:0.6;stroke-dasharray:2.0,2.0;" x1="232.8" x2="257.4" y1="204.593" y2="204.593"/><polygon fill="#181818" points="238.8,202.193,232.8,204.593,238.8,206.993,236.4,204.593" style="stroke:#181818;stroke-width:0.6;"/><text fill="#000000" font-family="sans-serif" font-size="7.8" font-weight="bold" lengthAdjust="spacing" textLength="4.2" x="236.4" y="193.6354">4</text><text fill="#000000" font-family="sans-serif" font-size="7.8" lengthAdjust="spacing" textLength="119.4" x="243" y="193.6354">keepData(max and min team size)</text><polygon fill="#181818" points="359.4,220.9676,365.4,223.3676,359.4,225.7676,361.8,223.3676" style="stroke:#181818;stroke-width:0.6;"/><line style="stroke:#181818;stroke-width:0.6;" x1="232.2" x2="363" y1="223.3676" y2="223.3676"/><text fill="#000000" font-family="sans-serif" font-size="7.8" font-weight="bold" lengthAdjust="spacing" textLength="4.2" x="236.4" y="220.21">5</text><text fill="#000000" font-family="sans-serif" font-size="7.8" lengthAdjust="spacing" textLength="43.2" x="243" y="220.21">getSkillList()</text><polygon fill="#181818" points="442.8,239.7422,448.8,242.1422,442.8,244.5422,445.2,242.1422" style="stroke:#181818;stroke-width:0.6;"/><line style="stroke:#181818;stroke-width:0.6;" x1="372.6" x2="446.4" y1="242.1422" y2="242.1422"/><text fill="#000000" font-family="sans-serif" font-size="7.8" font-weight="bold" lengthAdjust="spacing" textLength="4.2" x="376.8" y="238.9846">6</text><text fill="#000000" font-family="sans-serif" font-size="7.8" lengthAdjust="spacing" textLength="45" x="383.4" y="238.9846">getInstance()</text><polygon fill="#181818" points="379.2,258.5168,373.2,260.9168,379.2,263.3168,376.8,260.9168" style="stroke:#181818;stroke-width:0.6;"/><line style="stroke:#181818;stroke-width:0.6;stroke-dasharray:2.0,2.0;" x1="375.6" x2="452.4" y1="260.9168" y2="260.9168"/><text fill="#000000" font-family="sans-serif" font-size="7.8" font-weight="bold" lengthAdjust="spacing" textLength="4.2" x="382.8" y="257.7592">7</text><text fill="#000000" font-family="sans-serif" font-size="7.8" lengthAdjust="spacing" textLength="40.2" x="389.4" y="257.7592">repositories</text><polygon fill="#181818" points="503.4,277.2914,509.4,279.6914,503.4,282.0914,505.8,279.6914" style="stroke:#181818;stroke-width:0.6;"/><line style="stroke:#181818;stroke-width:0.6;" x1="372.6" x2="507" y1="279.6914" y2="279.6914"/><text fill="#000000" font-family="sans-serif" font-size="7.8" font-weight="bold" lengthAdjust="spacing" textLength="4.2" x="376.8" y="276.5338">8</text><text fill="#000000" font-family="sans-serif" font-size="7.8" lengthAdjust="spacing" textLength="67.8" x="383.4" y="276.5338">getSkillRepository()</text><polygon fill="#181818" points="379.2,296.066,373.2,298.466,379.2,300.866,376.8,298.466" style="stroke:#181818;stroke-width:0.6;"/><line style="stroke:#181818;stroke-width:0.6;stroke-dasharray:2.0,2.0;" x1="375.6" x2="513" y1="298.466" y2="298.466"/><text fill="#000000" font-family="sans-serif" font-size="7.8" font-weight="bold" lengthAdjust="spacing" textLength="4.2" x="382.8" y="295.3084">9</text><text fill="#000000" font-family="sans-serif" font-size="7.8" lengthAdjust="spacing" textLength="51" x="389.4" y="295.3084">skillRepository</text><polygon fill="#181818" points="572.1,314.8406,578.1,317.2406,572.1,319.6406,574.5,317.2406" style="stroke:#181818;stroke-width:0.6;"/><line style="stroke:#181818;stroke-width:0.6;" x1="372.6" x2="575.7" y1="317.2406" y2="317.2406"/><text fill="#000000" font-family="sans-serif" font-size="7.8" font-weight="bold" lengthAdjust="spacing" textLength="8.4" x="376.8" y="314.083">10</text><text fill="#000000" font-family="sans-serif" font-size="7.8" lengthAdjust="spacing" textLength="43.2" x="387.6" y="314.083">getSkillList()</text><polygon fill="#181818" points="379.2,333.6152,373.2,336.0152,379.2,338.4152,376.8,336.0152" style="stroke:#181818;stroke-width:0.6;"/><line style="stroke:#181818;stroke-width:0.6;stroke-dasharray:2.0,2.0;" x1="375.6" x2="581.7" y1="336.0152" y2="336.0152"/><text fill="#000000" font-family="sans-serif" font-size="7.8" font-weight="bold" lengthAdjust="spacing" textLength="8.4" x="382.8" y="332.8576">11</text><text fill="#000000" font-family="sans-serif" font-size="7.8" lengthAdjust="spacing" textLength="26.4" x="393.6" y="332.8576">skillList</text><polygon fill="#181818" points="238.8,352.3898,232.8,354.7898,238.8,357.1898,236.4,354.7898" style="stroke:#181818;stroke-width:0.6;"/><line style="stroke:#181818;stroke-width:0.6;stroke-dasharray:2.0,2.0;" x1="235.2" x2="369" y1="354.7898" y2="354.7898"/><text fill="#000000" font-family="sans-serif" font-size="7.8" font-weight="bold" lengthAdjust="spacing" textLength="8.4" x="242.4" y="351.6322">12</text><text fill="#000000" font-family="sans-serif" font-size="7.8" lengthAdjust="spacing" textLength="26.4" x="253.2" y="351.6322">skillList</text><polygon fill="#181818" points="38.4,371.1645,32.4,373.5645,38.4,375.9645,36,373.5645" style="stroke:#181818;stroke-width:0.6;"/><line style="stroke:#181818;stroke-width:0.6;stroke-dasharray:2.0,2.0;" x1="34.8" x2="228.6" y1="373.5645" y2="373.5645"/><text fill="#000000" font-family="sans-serif" font-size="7.8" font-weight="bold" lengthAdjust="spacing" textLength="8.4" x="42" y="370.4068">13</text><text fill="#000000" font-family="sans-serif" font-size="7.8" lengthAdjust="spacing" textLength="146.4" x="52.8" y="370.4068">Shows list of skills and asks to select one</text><polygon fill="#181818" points="219,400.3137,225,402.7137,219,405.1137,221.4,402.7137" style="stroke:#181818;stroke-width:0.6;"/><line style="stroke:#181818;stroke-width:0.6;" x1="31.8" x2="222.6" y1="402.7137" y2="402.7137"/><text fill="#000000" font-family="sans-serif" font-size="7.8" font-weight="bold" lengthAdjust="spacing" textLength="8.4" x="36" y="394.3688">14</text><text fill="#000000" font-family="sans-serif" font-size="7.8" lengthAdjust="spacing" textLength="153.6" x="46.8" y="389.1814">Selects a skill from the list and specifies the</text><text fill="#000000" font-family="sans-serif" font-size="7.8" lengthAdjust="spacing" textLength="70.2" x="46.8" y="399.5561">quantity of that skill.</text><line style="stroke:#181818;stroke-width:0.6;stroke-dasharray:2.0,2.0;" x1="232.2" x2="257.4" y1="440.6883" y2="440.6883"/><line style="stroke:#181818;stroke-width:0.6;stroke-dasharray:2.0,2.0;" x1="257.4" x2="257.4" y1="440.6883" y2="448.4883"/><line style="stroke:#181818;stroke-width:0.6;stroke-dasharray:2.0,2.0;" x1="232.8" x2="257.4" y1="448.4883" y2="448.4883"/><polygon fill="#181818" points="238.8,446.0883,232.8,448.4883,238.8,450.8883,236.4,448.4883" style="stroke:#181818;stroke-width:0.6;"/><text fill="#000000" font-family="sans-serif" font-size="7.8" font-weight="bold" lengthAdjust="spacing" textLength="8.4" x="236.4" y="437.5307">15</text><text fill="#000000" font-family="sans-serif" font-size="7.8" lengthAdjust="spacing" textLength="72" x="247.2" y="437.5307">keepData(skillName)</text><path d="M12,476.6883 L55.8,476.6883 L55.8,482.2629 L49.8,488.2629 L12,488.2629 L12,476.6883 " fill="#EEEEEE" style="stroke:#000000;stroke-width:0.8999999999999999;"/><rect fill="none" height="217.4953" style="stroke:#000000;stroke-width:0.8999999999999999;" width="681" x="12" y="476.6883"/><text fill="#000000" font-family="sans-serif" font-size="7.8" font-weight="bold" lengthAdjust="spacing" textLength="16.8" x="21" y="485.7053">loop</text><text fill="#000000" font-family="sans-serif" font-size="6.6" font-weight="bold" lengthAdjust="spacing" textLength="126" x="64.8" y="485.0104">[until the team generated is accepted]</text><line style="stroke:#181818;stroke-width:0.6;stroke-dasharray:2.0,2.0;" x1="232.2" x2="257.4" y1="512.6121" y2="512.6121"/><line style="stroke:#181818;stroke-width:0.6;stroke-dasharray:2.0,2.0;" x1="257.4" x2="257.4" y1="512.6121" y2="520.4121"/><line style="stroke:#181818;stroke-width:0.6;stroke-dasharray:2.0,2.0;" x1="232.8" x2="257.4" y1="520.4121" y2="520.4121"/><polygon fill="#181818" points="238.8,518.0121,232.8,520.4121,238.8,522.8121,236.4,520.4121" style="stroke:#181818;stroke-width:0.6;"/><text fill="#000000" font-family="sans-serif" font-size="7.8" font-weight="bold" lengthAdjust="spacing" textLength="8.4" x="236.4" y="504.2672">16</text><text fill="#000000" font-family="sans-serif" font-size="7.8" lengthAdjust="spacing" textLength="96.6" x="247.2" y="499.0799">Generate the team proposal</text><text fill="#000000" font-family="sans-serif" font-size="7.8" lengthAdjust="spacing" textLength="73.8" x="247.2" y="509.4545">with given information</text><polygon fill="#181818" points="38.4,536.7867,32.4,539.1867,38.4,541.5867,36,539.1867" style="stroke:#181818;stroke-width:0.6;"/><line style="stroke:#181818;stroke-width:0.6;stroke-dasharray:2.0,2.0;" x1="34.8" x2="228.6" y1="539.1867" y2="539.1867"/><text fill="#000000" font-family="sans-serif" font-size="7.8" font-weight="bold" lengthAdjust="spacing" textLength="8.4" x="42" y="536.0291">17</text><text fill="#000000" font-family="sans-serif" font-size="7.8" lengthAdjust="spacing" textLength="169.2" x="52.8" y="536.0291">Shows team generated and asks for confirmation</text><polygon fill="#181818" points="219,555.5613,225,557.9613,219,560.3613,221.4,557.9613" style="stroke:#181818;stroke-width:0.6;"/><line style="stroke:#181818;stroke-width:0.6;" x1="31.8" x2="222.6" y1="557.9613" y2="557.9613"/><text fill="#000000" font-family="sans-serif" font-size="7.8" font-weight="bold" lengthAdjust="spacing" textLength="8.4" x="36" y="554.8037">18</text><text fill="#000000" font-family="sans-serif" font-size="7.8" lengthAdjust="spacing" textLength="111" x="46.8" y="554.8037">Accepts or rejects the proposal.</text><polygon fill="#181818" points="359.4,574.3359,365.4,576.7359,359.4,579.1359,361.8,576.7359" style="stroke:#181818;stroke-width:0.6;"/><line style="stroke:#181818;stroke-width:0.6;" x1="232.2" x2="363" y1="576.7359" y2="576.7359"/><text fill="#000000" font-family="sans-serif" font-size="7.8" font-weight="bold" lengthAdjust="spacing" textLength="8.4" x="236.4" y="573.5783">19</text><text fill="#000000" font-family="sans-serif" font-size="7.8" lengthAdjust="spacing" textLength="63" x="247.2" y="573.5783">createTeam(team)</text><polygon fill="#181818" points="442.8,593.1105,448.8,595.5105,442.8,597.9105,445.2,595.5105" style="stroke:#181818;stroke-width:0.6;"/><line style="stroke:#181818;stroke-width:0.6;" x1="372.6" x2="446.4" y1="595.5105" y2="595.5105"/><text fill="#000000" font-family="sans-serif" font-size="7.8" font-weight="bold" lengthAdjust="spacing" textLength="8.4" x="376.8" y="592.3529">20</text><text fill="#000000" font-family="sans-serif" font-size="7.8" lengthAdjust="spacing" textLength="45" x="387.6" y="592.3529">getInstance()</text><polygon fill="#181818" points="379.2,611.8852,373.2,614.2852,379.2,616.6852,376.8,614.2852" style="stroke:#181818;stroke-width:0.6;"/><line style="stroke:#181818;stroke-width:0.6;stroke-dasharray:2.0,2.0;" x1="375.6" x2="452.4" y1="614.2852" y2="614.2852"/><text fill="#000000" font-family="sans-serif" font-size="7.8" font-weight="bold" lengthAdjust="spacing" textLength="8.4" x="382.8" y="611.1275">21</text><text fill="#000000" font-family="sans-serif" font-size="7.8" lengthAdjust="spacing" textLength="40.2" x="393.6" y="611.1275">repositories</text><polygon fill="#181818" points="503.4,630.6598,509.4,633.0598,503.4,635.4598,505.8,633.0598" style="stroke:#181818;stroke-width:0.6;"/><line style="stroke:#181818;stroke-width:0.6;" x1="372.6" x2="507" y1="633.0598" y2="633.0598"/><text fill="#000000" font-family="sans-serif" font-size="7.8" font-weight="bold" lengthAdjust="spacing" textLength="8.4" x="376.8" y="629.9021">22</text><text fill="#000000" font-family="sans-serif" font-size="7.8" lengthAdjust="spacing" textLength="72" x="387.6" y="629.9021">getTeamRepository()</text><polygon fill="#181818" points="379.2,649.4344,373.2,651.8344,379.2,654.2344,376.8,651.8344" style="stroke:#181818;stroke-width:0.6;"/><line style="stroke:#181818;stroke-width:0.6;stroke-dasharray:2.0,2.0;" x1="375.6" x2="513" y1="651.8344" y2="651.8344"/><text fill="#000000" font-family="sans-serif" font-size="7.8" font-weight="bold" lengthAdjust="spacing" textLength="8.4" x="382.8" y="648.6768">23</text><text fill="#000000" font-family="sans-serif" font-size="7.8" lengthAdjust="spacing" textLength="54.6" x="393.6" y="648.6768">teamRepository</text><polygon fill="#181818" points="644.4,668.209,650.4,670.609,644.4,673.009,646.8,670.609" style="stroke:#181818;stroke-width:0.6;"/><line style="stroke:#181818;stroke-width:0.6;" x1="372.6" x2="648" y1="670.609" y2="670.609"/><text fill="#000000" font-family="sans-serif" font-size="7.8" font-weight="bold" lengthAdjust="spacing" textLength="8.4" x="376.8" y="667.4514">24</text><text fill="#000000" font-family="sans-serif" font-size="7.8" lengthAdjust="spacing" textLength="99.6" x="387.6" y="667.4514">addToTeamRepository(team)</text><polygon fill="#181818" points="379.2,686.9836,373.2,689.3836,379.2,691.7836,376.8,689.3836" style="stroke:#181818;stroke-width:0.6;"/><line style="stroke:#181818;stroke-width:0.6;stroke-dasharray:2.0,2.0;" x1="375.6" x2="654" y1="689.3836" y2="689.3836"/><text fill="#000000" font-family="sans-serif" font-size="7.8" font-weight="bold" lengthAdjust="spacing" textLength="8.4" x="382.8" y="686.226">25</text><text fill="#000000" font-family="sans-serif" font-size="7.8" lengthAdjust="spacing" textLength="17.4" x="393.6" y="686.226">team</text><polygon fill="#181818" points="238.8,724.9582,232.8,727.3582,238.8,729.7582,236.4,727.3582" style="stroke:#181818;stroke-width:0.6;"/><line style="stroke:#181818;stroke-width:0.6;stroke-dasharray:2.0,2.0;" x1="235.2" x2="369" y1="727.3582" y2="727.3582"/><text fill="#000000" font-family="sans-serif" font-size="7.8" font-weight="bold" lengthAdjust="spacing" textLength="8.4" x="242.4" y="724.2006">26</text><text fill="#000000" font-family="sans-serif" font-size="7.8" lengthAdjust="spacing" textLength="17.4" x="253.2" y="724.2006">team</text><polygon fill="#181818" points="38.4,743.7328,32.4,746.1328,38.4,748.5328,36,746.1328" style="stroke:#181818;stroke-width:0.6;"/><line style="stroke:#181818;stroke-width:0.6;stroke-dasharray:2.0,2.0;" x1="34.8" x2="228.6" y1="746.1328" y2="746.1328"/><text fill="#000000" font-family="sans-serif" font-size="7.8" font-weight="bold" lengthAdjust="spacing" textLength="8.4" x="42" y="742.9752">27</text><text fill="#000000" font-family="sans-serif" font-size="7.8" lengthAdjust="spacing" textLength="96" x="52.8" y="742.9752">Displays operation success</text><!--SRC=[bLNBRjim4BphAnOvsGOIv9AB2mGeug0DqAQ1wDnoOQMrp5eY5PAAwo8VtoNri2HBSiAJ7hkpm-NiqEo4pBdc6MHAgcYhLOPWTO61QVxaFDhn19azf0WQ8yjbahO3p9R7QYza0XkU6Wm2Aoo5FhFhwnku17Om5ZDW-5gWZ11MWYSkRSROQXu4lB1A5jblrFGSMQNXudluymAuWViiJzK1CQ0wLaGYvzB2nNADF7lIAbU6fyyFFhAiCH5tfwJLAarH-_ZrqrqlE4IA4rJ-u0F2-wTUWAu311fuaM7hjSvWlHHgKPeUWIcBTR-KtCDUcYNUUSMRSjhRgCW7lbNYZLiyDYa0MlKRNDxMZL_2LxCpO1KaA56x70uIz-3gG5t8PpUWLJ_zHxSgg4j2RIei8NH7Qgo1c5iEiup_1IvZo8GiiOtuXtEF4UCWTAfK3eMq8WKIKs5B867WZQU2dZ6UsDNwaDD9w983nZutAEFVtzyRwgqQKj6RJ533tdMQEc8m9K63FoZJf0or0dghrP66qGunNn6BgKuCOTmwFL9-WjOBv8SmTZOFJk8RJaw-CB0S3A6H54kq1sbeMYCS0ki0Ehd3o79ebmt7zXWCfhIEUWprI9ErTdqSYu_GPLDyMOjmRmW_m9a5KwnP-86JwYee7FnFG3sM3kqSFm8RPzSMupXY2sr8ICEpphPgRo0bF52RQc2yndbbBjKeAOd16FMUgOnEDlDG15_MWGrTIs2tM9PtHKsEaTWu9tQVN-HhGGCjxC5nirjUJVJLsObk6mKIhZEBak3aV7lqHvvLC-rGHc3SaegAQf5iJuzYiPZTpE7nr_f-kLWC_6NOQlTWI2V2kw7GP8ORkaTTQpeU_-Kq_K56QH5NVIoxBMbVlidkKmDOT_Ygir6tjHChR-hMzqtiB9r74UREqGUxkuHlzULqGlj5xeNTGYBUKD8zGLlBk1LA1kVkfrApFIgDPbsB8YKtee4RqUl4nUhtP82GDFxncdNiQ-9NmTHDqdV_I2D5kTj-vYWVhulHQVsCtK-QyYSi_eozdrYxsy-qiq-xUi_DRGSkE6Va8_JMhc4yZjUgHwzi_DJ5Em3PepVjjvMS6fVekz29ZtSWUzPzRW1MmkGfFv10SwT-4ZcOWZHhp8ZM_mC0]--></g></svg>