<?xml version="1.0" encoding="us-ascii" standalone="no"?><svg xmlns="http://www.w3.org/2000/svg" xmlns:xlink="http://www.w3.org/1999/xlink" contentStyleType="text/css" height="849px" preserveAspectRatio="none" style="width:832px;height:849px;background:#FFFFFF;" version="1.1" viewBox="0 0 832 849" width="832.2px" zoomAndPan="magnify"><defs/><g><text fill="#000000" font-family="sans-serif" font-size="8.4" font-weight="bold" lengthAdjust="spacing" textLength="170.4" x="333" y="18.0645">US005 - System Sequence Diagram (SSD)</text><rect fill="#FFFFFF" height="713.9602" style="stroke:#181818;stroke-width:0.6;" width="6" x="25.8" y="79.9453"/><rect fill="#FFFFFF" height="18.7746" style="stroke:#181818;stroke-width:0.6;" width="6" x="226.2" y="93.9199"/><rect fill="#FFFFFF" height="226.3207" style="stroke:#181818;stroke-width:0.6;" width="6" x="226.2" y="147.2438"/><rect fill="#FFFFFF" height="126.0984" style="stroke:#181818;stroke-width:0.6;" width="6" x="226.2" y="402.7137"/><rect fill="#FFFFFF" height="240.9188" style="stroke:#181818;stroke-width:0.6;" width="6" x="226.2" y="547.5867"/><rect fill="#FFFFFF" height="131.4223" style="stroke:#181818;stroke-width:0.6;" width="6" x="366.6" y="223.3676"/><rect fill="#FFFFFF" height="203.3695" style="stroke:#181818;stroke-width:0.6;" width="6" x="366.6" y="566.3613"/><rect fill="#FFFFFF" height="18.7746" style="stroke:#181818;stroke-width:0.6;" width="6" x="453.3" y="242.1422"/><rect fill="#FFFFFF" height="18.7746" style="stroke:#181818;stroke-width:0.6;" width="6" x="453.3" y="637.8832"/><rect fill="#FFFFFF" height="18.7746" style="stroke:#181818;stroke-width:0.6;" width="6" x="517.2" y="279.6914"/><rect fill="#FFFFFF" height="18.7746" style="stroke:#181818;stroke-width:0.6;" width="6" x="517.2" y="675.4324"/><rect fill="#FFFFFF" height="18.7746" style="stroke:#181818;stroke-width:0.6;" width="6" x="585.9" y="317.2406"/><rect fill="#FFFFFF" height="18.7746" style="stroke:#181818;stroke-width:0.6;" width="6" x="658.2" y="712.9816"/><rect fill="none" height="346.5938" style="stroke:#000000;stroke-width:0.8999999999999999;" width="628.8" x="6" y="121.6945"/><rect fill="none" height="277.8445" style="stroke:#000000;stroke-width:0.8999999999999999;" width="616.8" x="12" y="171.2438"/><rect fill="none" height="259.868" style="stroke:#000000;stroke-width:0.8999999999999999;" width="792" x="12" y="476.6883"/><line style="stroke:#181818;stroke-width:0.3;stroke-dasharray:5.0,5.0;" x1="28.8" x2="28.8" y1="73.9453" y2="799.3055"/><line style="stroke:#181818;stroke-width:0.3;stroke-dasharray:5.0,5.0;" x1="229.2" x2="229.2" y1="73.9453" y2="799.3055"/><line style="stroke:#181818;stroke-width:0.3;stroke-dasharray:5.0,5.0;" x1="369.6" x2="369.6" y1="73.9453" y2="799.3055"/><line style="stroke:#181818;stroke-width:0.3;stroke-dasharray:5.0,5.0;" x1="456" x2="456" y1="73.9453" y2="799.3055"/><line style="stroke:#181818;stroke-width:0.3;stroke-dasharray:5.0,5.0;" x1="520.2" x2="520.2" y1="73.9453" y2="799.3055"/><line style="stroke:#181818;stroke-width:0.3;stroke-dasharray:5.0,5.0;" x1="588.6" x2="588.6" y1="73.9453" y2="799.3055"/><line style="stroke:#181818;stroke-width:0.3;stroke-dasharray:5.0,5.0;" x1="661.2" x2="661.2" y1="73.9453" y2="799.3055"/><line style="stroke:#181818;stroke-width:0.3;stroke-dasharray:5.0,5.0;" x1="714.6" x2="714.6" y1="590.2477" y2="799.3055"/><text fill="#000000" font-family="sans-serif" font-size="8.4" lengthAdjust="spacing" textLength="18" x="18" y="71.8371">HRM</text><ellipse cx="28.8" cy="31.8727" fill="#E3E3E3" rx="4.8" ry="4.8" style="stroke:#181818;stroke-width:0.3;"/><path d="M28.8,36.6727 L28.8,52.8727 M21,41.4727 L36.6,41.4727 M28.8,52.8727 L21,61.8727 M28.8,52.8727 L36.6,61.8727 " fill="none" style="stroke:#181818;stroke-width:0.3;"/><text fill="#000000" font-family="sans-serif" font-size="8.4" lengthAdjust="spacing" textLength="18" x="18" y="807.7699">HRM</text><ellipse cx="28.8" cy="814.9781" fill="#E3E3E3" rx="4.8" ry="4.8" style="stroke:#181818;stroke-width:0.3;"/><path d="M28.8,819.7781 L28.8,835.9781 M21,824.5781 L36.6,824.5781 M28.8,835.9781 L21,844.9781 M28.8,835.9781 L36.6,844.9781 " fill="none" style="stroke:#181818;stroke-width:0.3;"/><rect fill="#E3E3E3" height="19.5727" rx="1.5" ry="1.5" style="stroke:#181818;stroke-width:0.3;" width="73.2" x="192.6" y="53.7727"/><text fill="#000000" font-family="sans-serif" font-size="8.4" lengthAdjust="spacing" textLength="64.8" x="196.8" y="67.0371">:TeamProposalUI</text><rect fill="#E3E3E3" height="19.5727" rx="1.5" ry="1.5" style="stroke:#181818;stroke-width:0.3;" width="73.2" x="192.6" y="798.7055"/><text fill="#000000" font-family="sans-serif" font-size="8.4" lengthAdjust="spacing" textLength="64.8" x="196.8" y="811.9699">:TeamProposalUI</text><rect fill="#E3E3E3" height="19.5727" rx="1.5" ry="1.5" style="stroke:#181818;stroke-width:0.3;" width="103.2" x="318" y="53.7727"/><text fill="#000000" font-family="sans-serif" font-size="8.4" lengthAdjust="spacing" textLength="94.8" x="322.2" y="67.0371">:TeamProposalController</text><rect fill="#E3E3E3" height="19.5727" rx="1.5" ry="1.5" style="stroke:#181818;stroke-width:0.3;" width="103.2" x="318" y="798.7055"/><text fill="#000000" font-family="sans-serif" font-size="8.4" lengthAdjust="spacing" textLength="94.8" x="322.2" y="811.9699">:TeamProposalController</text><rect fill="#E3E3E3" height="19.5727" rx="1.5" ry="1.5" style="stroke:#181818;stroke-width:0.3;" width="58.2" x="427.2" y="53.7727"/><text fill="#000000" font-family="sans-serif" font-size="8.4" lengthAdjust="spacing" textLength="49.8" x="431.4" y="67.0371">:Repositories</text><rect fill="#E3E3E3" height="19.5727" rx="1.5" ry="1.5" style="stroke:#181818;stroke-width:0.3;" width="58.2" x="427.2" y="798.7055"/><text fill="#000000" font-family="sans-serif" font-size="8.4" lengthAdjust="spacing" textLength="49.8" x="431.4" y="811.9699">:Repositories</text><rect fill="#E3E3E3" height="30.7453" rx="1.5" ry="1.5" style="stroke:#181818;stroke-width:0.3;" width="57.6" x="491.4" y="42.6"/><text fill="#000000" font-family="sans-serif" font-size="8.4" lengthAdjust="spacing" textLength="46.8" x="495.6" y="55.8645">:repositories</text><text fill="#000000" font-family="sans-serif" font-size="8.4" lengthAdjust="spacing" textLength="47.4" x="496.5" y="67.0371">Repositories</text><rect fill="#E3E3E3" height="30.7453" rx="1.5" ry="1.5" style="stroke:#181818;stroke-width:0.3;" width="57.6" x="491.4" y="798.7055"/><text fill="#000000" font-family="sans-serif" font-size="8.4" lengthAdjust="spacing" textLength="46.8" x="495.6" y="811.9699">:repositories</text><text fill="#000000" font-family="sans-serif" font-size="8.4" lengthAdjust="spacing" textLength="47.4" x="496.5" y="823.1426">Repositories</text><rect fill="#E3E3E3" height="30.7453" rx="1.5" ry="1.5" style="stroke:#181818;stroke-width:0.3;" width="67.8" x="555" y="42.6"/><text fill="#000000" font-family="sans-serif" font-size="8.4" lengthAdjust="spacing" textLength="57" x="559.2" y="55.8645">:skillRepository</text><text fill="#000000" font-family="sans-serif" font-size="8.4" lengthAdjust="spacing" textLength="55.8" x="561" y="67.0371">SkillRepository</text><rect fill="#E3E3E3" height="30.7453" rx="1.5" ry="1.5" style="stroke:#181818;stroke-width:0.3;" width="67.8" x="555" y="798.7055"/><text fill="#000000" font-family="sans-serif" font-size="8.4" lengthAdjust="spacing" textLength="57" x="559.2" y="811.9699">:skillRepository</text><text fill="#000000" font-family="sans-serif" font-size="8.4" lengthAdjust="spacing" textLength="55.8" x="561" y="823.1426">SkillRepository</text><rect fill="#E3E3E3" height="30.7453" rx="1.5" ry="1.5" style="stroke:#181818;stroke-width:0.3;" width="64.8" x="628.8" y="42.6"/><text fill="#000000" font-family="sans-serif" font-size="8.4" lengthAdjust="spacing" textLength="54" x="633" y="55.8645">:teamproposal</text><text fill="#000000" font-family="sans-serif" font-size="8.4" lengthAdjust="spacing" textLength="55.2" x="633.6" y="67.0371">TeamProposal</text><rect fill="#E3E3E3" height="30.7453" rx="1.5" ry="1.5" style="stroke:#181818;stroke-width:0.3;" width="64.8" x="628.8" y="798.7055"/><text fill="#000000" font-family="sans-serif" font-size="8.4" lengthAdjust="spacing" textLength="54" x="633" y="811.9699">:teamproposal</text><text fill="#000000" font-family="sans-serif" font-size="8.4" lengthAdjust="spacing" textLength="55.2" x="633.6" y="823.1426">TeamProposal</text><rect fill="#E3E3E3" height="19.5727" rx="1.5" ry="1.5" style="stroke:#181818;stroke-width:0.3;" width="30" x="699.6" y="798.7055"/><text fill="#000000" font-family="sans-serif" font-size="8.4" lengthAdjust="spacing" textLength="21.6" x="703.8" y="811.9699">Team</text><rect fill="#FFFFFF" height="713.9602" style="stroke:#181818;stroke-width:0.6;" width="6" x="25.8" y="79.9453"/><rect fill="#FFFFFF" height="18.7746" style="stroke:#181818;stroke-width:0.6;" width="6" x="226.2" y="93.9199"/><rect fill="#FFFFFF" height="226.3207" style="stroke:#181818;stroke-width:0.6;" width="6" x="226.2" y="147.2438"/><rect fill="#FFFFFF" height="126.0984" style="stroke:#181818;stroke-width:0.6;" width="6" x="226.2" y="402.7137"/><rect fill="#FFFFFF" height="240.9188" style="stroke:#181818;stroke-width:0.6;" width="6" x="226.2" y="547.5867"/><rect fill="#FFFFFF" height="131.4223" style="stroke:#181818;stroke-width:0.6;" width="6" x="366.6" y="223.3676"/><rect fill="#FFFFFF" height="203.3695" style="stroke:#181818;stroke-width:0.6;" width="6" x="366.6" y="566.3613"/><rect fill="#FFFFFF" height="18.7746" style="stroke:#181818;stroke-width:0.6;" width="6" x="453.3" y="242.1422"/><rect fill="#FFFFFF" height="18.7746" style="stroke:#181818;stroke-width:0.6;" width="6" x="453.3" y="637.8832"/><rect fill="#FFFFFF" height="18.7746" style="stroke:#181818;stroke-width:0.6;" width="6" x="517.2" y="279.6914"/><rect fill="#FFFFFF" height="18.7746" style="stroke:#181818;stroke-width:0.6;" width="6" x="517.2" y="675.4324"/><rect fill="#FFFFFF" height="18.7746" style="stroke:#181818;stroke-width:0.6;" width="6" x="585.9" y="317.2406"/><rect fill="#FFFFFF" height="18.7746" style="stroke:#181818;stroke-width:0.6;" width="6" x="658.2" y="712.9816"/><polygon fill="#181818" points="219,91.5199,225,93.9199,219,96.3199,221.4,93.9199" style="stroke:#181818;stroke-width:0.6;"/><line style="stroke:#181818;stroke-width:0.6;" x1="31.8" x2="222.6" y1="93.9199" y2="93.9199"/><text fill="#000000" font-family="sans-serif" font-size="7.8" font-weight="bold" lengthAdjust="spacing" textLength="4.2" x="36" y="90.7623">1</text><text fill="#000000" font-family="sans-serif" font-size="7.8" lengthAdjust="spacing" textLength="133.8" x="42.6" y="90.7623">Asks to generate a new team proposal</text><polygon fill="#181818" points="38.4,110.2945,32.4,112.6945,38.4,115.0945,36,112.6945" style="stroke:#181818;stroke-width:0.6;"/><line style="stroke:#181818;stroke-width:0.6;stroke-dasharray:2.0,2.0;" x1="34.8" x2="228.6" y1="112.6945" y2="112.6945"/><text fill="#000000" font-family="sans-serif" font-size="7.8" font-weight="bold" lengthAdjust="spacing" textLength="4.2" x="42" y="109.5369">2</text><text fill="#000000" font-family="sans-serif" font-size="7.8" lengthAdjust="spacing" textLength="153.6" x="48.6" y="109.5369">Requests data (maxteamsize, minteamsize)</text><path d="M6,121.6945 L49.8,121.6945 L49.8,127.2691 L43.8,133.2691 L6,133.2691 L6,121.6945 " fill="#EEEEEE" style="stroke:#000000;stroke-width:0.8999999999999999;"/><rect fill="none" height="346.5938" style="stroke:#000000;stroke-width:0.8999999999999999;" width="628.8" x="6" y="121.6945"/><text fill="#000000" font-family="sans-serif" font-size="7.8" font-weight="bold" lengthAdjust="spacing" textLength="16.8" x="15" y="130.7115">loop</text><text fill="#000000" font-family="sans-serif" font-size="6.6" font-weight="bold" lengthAdjust="spacing" textLength="92.4" x="58.8" y="130.0166">[until input data is validated]</text><path d="M637.8,124.6945 L637.8,172.0945 L828,172.0945 L828,130.6945 L822,124.6945 L637.8,124.6945 " fill="#FAFAFA" style="stroke:#181818;stroke-width:0.3;"/><path d="M822,124.6945 L822,130.6945 L828,130.6945 L822,124.6945 " fill="#FAFAFA" style="stroke:#181818;stroke-width:0.3;"/><text fill="#000000" font-family="sans-serif" font-size="7.8" font-weight="bold" lengthAdjust="spacing" textLength="34.8" x="641.4" y="136.1115">(5) NOTE:</text><text fill="#000000" font-family="sans-serif" font-size="7.8" font-weight="bold" lengthAdjust="spacing" textLength="45.6" x="641.4" y="146.4861">Set of skills:</text><ellipse cx="644.7" cy="154.3184" fill="#000000" rx="1.5" ry="1.5" style="stroke:#000000;stroke-width:0.0;"/><text fill="#000000" font-family="sans-serif" font-size="7.8" lengthAdjust="spacing" textLength="148.8" x="648.6" y="156.8607">Set of skills required for the team proposal;</text><ellipse cx="644.7" cy="164.693" fill="#000000" rx="1.5" ry="1.5" style="stroke:#000000;stroke-width:0.0;"/><text fill="#000000" font-family="sans-serif" font-size="7.8" lengthAdjust="spacing" textLength="170.4" x="648.6" y="167.2354">Includes the skill name and the required quantity.</text><polygon fill="#181818" points="219,144.8438,225,147.2438,219,149.6437,221.4,147.2438" style="stroke:#181818;stroke-width:0.6;"/><line style="stroke:#181818;stroke-width:0.6;" x1="31.8" x2="222.6" y1="147.2438" y2="147.2438"/><text fill="#000000" font-family="sans-serif" font-size="7.8" font-weight="bold" lengthAdjust="spacing" textLength="4.2" x="36" y="144.0861">3</text><text fill="#000000" font-family="sans-serif" font-size="7.8" lengthAdjust="spacing" textLength="75" x="42.6" y="144.0861">Types requested data</text><path d="M12,171.2438 L55.8,171.2438 L55.8,176.8184 L49.8,182.8184 L12,182.8184 L12,171.2438 " fill="#EEEEEE" style="stroke:#000000;stroke-width:0.8999999999999999;"/><rect fill="none" height="277.8445" style="stroke:#000000;stroke-width:0.8999999999999999;" width="616.8" x="12" y="171.2438"/><text fill="#000000" font-family="sans-serif" font-size="7.8" font-weight="bold" lengthAdjust="spacing" textLength="16.8" x="21" y="180.2607">loop</text><text fill="#000000" font-family="sans-serif" font-size="6.6" font-weight="bold" lengthAdjust="spacing" textLength="121.2" x="64.8" y="179.5658">[until no longer want to select skills]</text><line style="stroke:#181818;stroke-width:0.6;stroke-dasharray:2.0,2.0;" x1="232.2" x2="257.4" y1="196.793" y2="196.793"/><line style="stroke:#181818;stroke-width:0.6;stroke-dasharray:2.0,2.0;" x1="257.4" x2="257.4" y1="196.793" y2="204.593"/><line style="stroke:#181818;stroke-width:0.6;stroke-dasharray:2.0,2.0;" x1="232.8" x2="257.4" y1="204.593" y2="204.593"/><polygon fill="#181818" points="238.8,202.193,232.8,204.593,238.8,206.993,236.4,204.593" style="stroke:#181818;stroke-width:0.6;"/><text fill="#000000" font-family="sans-serif" font-size="7.8" font-weight="bold" lengthAdjust="spacing" textLength="4.2" x="236.4" y="193.6354">4</text><text fill="#000000" font-family="sans-serif" font-size="7.8" lengthAdjust="spacing" textLength="119.4" x="243" y="193.6354">keepData(max and min team size)</text><polygon fill="#181818" points="359.4,220.9676,365.4,223.3676,359.4,225.7676,361.8,223.3676" style="stroke:#181818;stroke-width:0.6;"/><line style="stroke:#181818;stroke-width:0.6;" x1="232.2" x2="363" y1="223.3676" y2="223.3676"/><text fill="#000000" font-family="sans-serif" font-size="7.8" font-weight="bold" lengthAdjust="spacing" textLength="4.2" x="236.4" y="220.21">5</text><text fill="#000000" font-family="sans-serif" font-size="7.8" lengthAdjust="spacing" textLength="43.2" x="243" y="220.21">getSkillList()</text><polygon fill="#181818" points="446.1,239.7422,452.1,242.1422,446.1,244.5422,448.5,242.1422" style="stroke:#181818;stroke-width:0.6;"/><line style="stroke:#181818;stroke-width:0.6;" x1="372.6" x2="449.7" y1="242.1422" y2="242.1422"/><text fill="#000000" font-family="sans-serif" font-size="7.8" font-weight="bold" lengthAdjust="spacing" textLength="4.2" x="376.8" y="238.9846">6</text><text fill="#000000" font-family="sans-serif" font-size="7.8" lengthAdjust="spacing" textLength="45" x="383.4" y="238.9846">getInstance()</text><polygon fill="#181818" points="379.2,258.5168,373.2,260.9168,379.2,263.3168,376.8,260.9168" style="stroke:#181818;stroke-width:0.6;"/><line style="stroke:#181818;stroke-width:0.6;stroke-dasharray:2.0,2.0;" x1="375.6" x2="455.7" y1="260.9168" y2="260.9168"/><text fill="#000000" font-family="sans-serif" font-size="7.8" font-weight="bold" lengthAdjust="spacing" textLength="4.2" x="382.8" y="257.7592">7</text><text fill="#000000" font-family="sans-serif" font-size="7.8" lengthAdjust="spacing" textLength="40.2" x="389.4" y="257.7592">repositories</text><polygon fill="#181818" points="510,277.2914,516,279.6914,510,282.0914,512.4,279.6914" style="stroke:#181818;stroke-width:0.6;"/><line style="stroke:#181818;stroke-width:0.6;" x1="372.6" x2="513.6" y1="279.6914" y2="279.6914"/><text fill="#000000" font-family="sans-serif" font-size="7.8" font-weight="bold" lengthAdjust="spacing" textLength="4.2" x="376.8" y="276.5338">8</text><text fill="#000000" font-family="sans-serif" font-size="7.8" lengthAdjust="spacing" textLength="67.8" x="383.4" y="276.5338">getSkillRepository()</text><polygon fill="#181818" points="379.2,296.066,373.2,298.466,379.2,300.866,376.8,298.466" style="stroke:#181818;stroke-width:0.6;"/><line style="stroke:#181818;stroke-width:0.6;stroke-dasharray:2.0,2.0;" x1="375.6" x2="519.6" y1="298.466" y2="298.466"/><text fill="#000000" font-family="sans-serif" font-size="7.8" font-weight="bold" lengthAdjust="spacing" textLength="4.2" x="382.8" y="295.3084">9</text><text fill="#000000" font-family="sans-serif" font-size="7.8" lengthAdjust="spacing" textLength="51" x="389.4" y="295.3084">skillRepository</text><polygon fill="#181818" points="578.7,314.8406,584.7,317.2406,578.7,319.6406,581.1,317.2406" style="stroke:#181818;stroke-width:0.6;"/><line style="stroke:#181818;stroke-width:0.6;" x1="372.6" x2="582.3" y1="317.2406" y2="317.2406"/><text fill="#000000" font-family="sans-serif" font-size="7.8" font-weight="bold" lengthAdjust="spacing" textLength="8.4" x="376.8" y="314.083">10</text><text fill="#000000" font-family="sans-serif" font-size="7.8" lengthAdjust="spacing" textLength="43.2" x="387.6" y="314.083">getSkillList()</text><polygon fill="#181818" points="379.2,333.6152,373.2,336.0152,379.2,338.4152,376.8,336.0152" style="stroke:#181818;stroke-width:0.6;"/><line style="stroke:#181818;stroke-width:0.6;stroke-dasharray:2.0,2.0;" x1="375.6" x2="588.3" y1="336.0152" y2="336.0152"/><text fill="#000000" font-family="sans-serif" font-size="7.8" font-weight="bold" lengthAdjust="spacing" textLength="8.4" x="382.8" y="332.8576">11</text><text fill="#000000" font-family="sans-serif" font-size="7.8" lengthAdjust="spacing" textLength="26.4" x="393.6" y="332.8576">skillList</text><polygon fill="#181818" points="238.8,352.3898,232.8,354.7898,238.8,357.1898,236.4,354.7898" style="stroke:#181818;stroke-width:0.6;"/><line style="stroke:#181818;stroke-width:0.6;stroke-dasharray:2.0,2.0;" x1="235.2" x2="369" y1="354.7898" y2="354.7898"/><text fill="#000000" font-family="sans-serif" font-size="7.8" font-weight="bold" lengthAdjust="spacing" textLength="8.4" x="242.4" y="351.6322">12</text><text fill="#000000" font-family="sans-serif" font-size="7.8" lengthAdjust="spacing" textLength="26.4" x="253.2" y="351.6322">skillList</text><polygon fill="#181818" points="38.4,371.1645,32.4,373.5645,38.4,375.9645,36,373.5645" style="stroke:#181818;stroke-width:0.6;"/><line style="stroke:#181818;stroke-width:0.6;stroke-dasharray:2.0,2.0;" x1="34.8" x2="228.6" y1="373.5645" y2="373.5645"/><text fill="#000000" font-family="sans-serif" font-size="7.8" font-weight="bold" lengthAdjust="spacing" textLength="8.4" x="42" y="370.4068">13</text><text fill="#000000" font-family="sans-serif" font-size="7.8" lengthAdjust="spacing" textLength="136.8" x="52.8" y="370.4068">Shows list of skills and asks how many</text><polygon fill="#181818" points="219,400.3137,225,402.7137,219,405.1137,221.4,402.7137" style="stroke:#181818;stroke-width:0.6;"/><line style="stroke:#181818;stroke-width:0.6;" x1="31.8" x2="222.6" y1="402.7137" y2="402.7137"/><text fill="#000000" font-family="sans-serif" font-size="7.8" font-weight="bold" lengthAdjust="spacing" textLength="8.4" x="36" y="394.3688">14</text><text fill="#000000" font-family="sans-serif" font-size="7.8" lengthAdjust="spacing" textLength="153.6" x="46.8" y="389.1814">Selects a skill from the list and specifies the</text><text fill="#000000" font-family="sans-serif" font-size="7.8" lengthAdjust="spacing" textLength="70.2" x="46.8" y="399.5561">quantity of that skill.</text><line style="stroke:#181818;stroke-width:0.6;stroke-dasharray:2.0,2.0;" x1="232.2" x2="257.4" y1="421.4883" y2="421.4883"/><line style="stroke:#181818;stroke-width:0.6;stroke-dasharray:2.0,2.0;" x1="257.4" x2="257.4" y1="421.4883" y2="429.2883"/><line style="stroke:#181818;stroke-width:0.6;stroke-dasharray:2.0,2.0;" x1="232.8" x2="257.4" y1="429.2883" y2="429.2883"/><polygon fill="#181818" points="238.8,426.8883,232.8,429.2883,238.8,431.6883,236.4,429.2883" style="stroke:#181818;stroke-width:0.6;"/><text fill="#000000" font-family="sans-serif" font-size="7.8" font-weight="bold" lengthAdjust="spacing" textLength="8.4" x="236.4" y="418.3307">15</text><text fill="#000000" font-family="sans-serif" font-size="7.8" lengthAdjust="spacing" textLength="102.6" x="247.2" y="418.3307">keepData(amount, skillName)</text><path d="M12,476.6883 L55.8,476.6883 L55.8,482.2629 L49.8,488.2629 L12,488.2629 L12,476.6883 " fill="#EEEEEE" style="stroke:#000000;stroke-width:0.8999999999999999;"/><rect fill="none" height="259.868" style="stroke:#000000;stroke-width:0.8999999999999999;" width="792" x="12" y="476.6883"/><text fill="#000000" font-family="sans-serif" font-size="7.8" font-weight="bold" lengthAdjust="spacing" textLength="16.8" x="21" y="485.7053">loop</text><text fill="#000000" font-family="sans-serif" font-size="6.6" font-weight="bold" lengthAdjust="spacing" textLength="126" x="64.8" y="485.0104">[until the team generated is accepted]</text><line style="stroke:#181818;stroke-width:0.6;stroke-dasharray:2.0,2.0;" x1="232.2" x2="257.4" y1="502.2375" y2="502.2375"/><line style="stroke:#181818;stroke-width:0.6;stroke-dasharray:2.0,2.0;" x1="257.4" x2="257.4" y1="502.2375" y2="510.0375"/><line style="stroke:#181818;stroke-width:0.6;stroke-dasharray:2.0,2.0;" x1="232.8" x2="257.4" y1="510.0375" y2="510.0375"/><polygon fill="#181818" points="238.8,507.6375,232.8,510.0375,238.8,512.4375,236.4,510.0375" style="stroke:#181818;stroke-width:0.6;"/><text fill="#000000" font-family="sans-serif" font-size="7.8" font-weight="bold" lengthAdjust="spacing" textLength="8.4" x="236.4" y="499.0799">16</text><text fill="#000000" font-family="sans-serif" font-size="7.8" lengthAdjust="spacing" textLength="65.4" x="247.2" y="499.0799">generateProposal()</text><polygon fill="#181818" points="38.4,526.4121,32.4,528.8121,38.4,531.2121,36,528.8121" style="stroke:#181818;stroke-width:0.6;"/><line style="stroke:#181818;stroke-width:0.6;stroke-dasharray:2.0,2.0;" x1="34.8" x2="228.6" y1="528.8121" y2="528.8121"/><text fill="#000000" font-family="sans-serif" font-size="7.8" font-weight="bold" lengthAdjust="spacing" textLength="8.4" x="42" y="525.6545">17</text><text fill="#000000" font-family="sans-serif" font-size="7.8" lengthAdjust="spacing" textLength="169.2" x="52.8" y="525.6545">Shows team generated and asks for confirmation</text><polygon fill="#181818" points="219,545.1867,225,547.5867,219,549.9867,221.4,547.5867" style="stroke:#181818;stroke-width:0.6;"/><line style="stroke:#181818;stroke-width:0.6;" x1="31.8" x2="222.6" y1="547.5867" y2="547.5867"/><text fill="#000000" font-family="sans-serif" font-size="7.8" font-weight="bold" lengthAdjust="spacing" textLength="8.4" x="36" y="544.4291">18</text><text fill="#000000" font-family="sans-serif" font-size="7.8" lengthAdjust="spacing" textLength="111" x="46.8" y="544.4291">Accepts or rejects the proposal.</text><polygon fill="#181818" points="359.4,563.9613,365.4,566.3613,359.4,568.7613,361.8,566.3613" style="stroke:#181818;stroke-width:0.6;"/><line style="stroke:#181818;stroke-width:0.6;" x1="232.2" x2="363" y1="566.3613" y2="566.3613"/><text fill="#000000" font-family="sans-serif" font-size="7.8" font-weight="bold" lengthAdjust="spacing" textLength="8.4" x="236.4" y="563.2037">19</text><text fill="#000000" font-family="sans-serif" font-size="7.8" lengthAdjust="spacing" textLength="63" x="247.2" y="563.2037">createTeam(team)</text><polygon fill="#181818" points="692.4,582.7359,698.4,585.1359,692.4,587.5359,694.8,585.1359" style="stroke:#181818;stroke-width:0.6;"/><line style="stroke:#181818;stroke-width:0.6;" x1="372.6" x2="696" y1="585.1359" y2="585.1359"/><text fill="#000000" font-family="sans-serif" font-size="7.8" font-weight="bold" lengthAdjust="spacing" textLength="8.4" x="376.8" y="581.9783">20</text><text fill="#000000" font-family="sans-serif" font-size="7.8" lengthAdjust="spacing" textLength="63" x="387.6" y="581.9783">createTeam(team)</text><rect fill="#E3E3E3" height="19.5727" rx="1.5" ry="1.5" style="stroke:#181818;stroke-width:0.3;" width="30" x="699.6" y="571.1613"/><text fill="#000000" font-family="sans-serif" font-size="8.4" lengthAdjust="spacing" textLength="21.6" x="703.8" y="584.4258">Team</text><line style="stroke:#181818;stroke-width:0.6;stroke-dasharray:2.0,2.0;" x1="714.6" x2="739.8" y1="611.3086" y2="611.3086"/><line style="stroke:#181818;stroke-width:0.6;stroke-dasharray:2.0,2.0;" x1="739.8" x2="739.8" y1="611.3086" y2="619.1086"/><line style="stroke:#181818;stroke-width:0.6;stroke-dasharray:2.0,2.0;" x1="715.2" x2="739.8" y1="619.1086" y2="619.1086"/><polygon fill="#181818" points="721.2,616.7086,715.2,619.1086,721.2,621.5086,718.8,619.1086" style="stroke:#181818;stroke-width:0.6;"/><text fill="#000000" font-family="sans-serif" font-size="7.8" font-weight="bold" lengthAdjust="spacing" textLength="8.4" x="718.8" y="608.151">21</text><text fill="#000000" font-family="sans-serif" font-size="7.8" lengthAdjust="spacing" textLength="67.2" x="729.6" y="608.151">validateTeam(team)</text><polygon fill="#181818" points="446.1,635.4832,452.1,637.8832,446.1,640.2832,448.5,637.8832" style="stroke:#181818;stroke-width:0.6;"/><line style="stroke:#181818;stroke-width:0.6;" x1="372.6" x2="449.7" y1="637.8832" y2="637.8832"/><text fill="#000000" font-family="sans-serif" font-size="7.8" font-weight="bold" lengthAdjust="spacing" textLength="8.4" x="376.8" y="634.7256">22</text><text fill="#000000" font-family="sans-serif" font-size="7.8" lengthAdjust="spacing" textLength="45" x="387.6" y="634.7256">getInstance()</text><polygon fill="#181818" points="379.2,654.2578,373.2,656.6578,379.2,659.0578,376.8,656.6578" style="stroke:#181818;stroke-width:0.6;"/><line style="stroke:#181818;stroke-width:0.6;stroke-dasharray:2.0,2.0;" x1="375.6" x2="455.7" y1="656.6578" y2="656.6578"/><text fill="#000000" font-family="sans-serif" font-size="7.8" font-weight="bold" lengthAdjust="spacing" textLength="8.4" x="382.8" y="653.5002">23</text><text fill="#000000" font-family="sans-serif" font-size="7.8" lengthAdjust="spacing" textLength="40.2" x="393.6" y="653.5002">repositories</text><polygon fill="#181818" points="510,673.0324,516,675.4324,510,677.8324,512.4,675.4324" style="stroke:#181818;stroke-width:0.6;"/><line style="stroke:#181818;stroke-width:0.6;" x1="372.6" x2="513.6" y1="675.4324" y2="675.4324"/><text fill="#000000" font-family="sans-serif" font-size="7.8" font-weight="bold" lengthAdjust="spacing" textLength="8.4" x="376.8" y="672.2748">24</text><text fill="#000000" font-family="sans-serif" font-size="7.8" lengthAdjust="spacing" textLength="72" x="387.6" y="672.2748">getTeamRepository()</text><polygon fill="#181818" points="379.2,691.807,373.2,694.207,379.2,696.607,376.8,694.207" style="stroke:#181818;stroke-width:0.6;"/><line style="stroke:#181818;stroke-width:0.6;stroke-dasharray:2.0,2.0;" x1="375.6" x2="519.6" y1="694.207" y2="694.207"/><text fill="#000000" font-family="sans-serif" font-size="7.8" font-weight="bold" lengthAdjust="spacing" textLength="8.4" x="382.8" y="691.0494">25</text><text fill="#000000" font-family="sans-serif" font-size="7.8" lengthAdjust="spacing" textLength="54.6" x="393.6" y="691.0494">teamRepository</text><polygon fill="#181818" points="651,710.5816,657,712.9816,651,715.3816,653.4,712.9816" style="stroke:#181818;stroke-width:0.6;"/><line style="stroke:#181818;stroke-width:0.6;" x1="372.6" x2="654.6" y1="712.9816" y2="712.9816"/><text fill="#000000" font-family="sans-serif" font-size="7.8" font-weight="bold" lengthAdjust="spacing" textLength="8.4" x="376.8" y="709.824">26</text><text fill="#000000" font-family="sans-serif" font-size="7.8" lengthAdjust="spacing" textLength="99.6" x="387.6" y="709.824">addToTeamRepository(team)</text><polygon fill="#181818" points="379.2,729.3562,373.2,731.7563,379.2,734.1563,376.8,731.7563" style="stroke:#181818;stroke-width:0.6;"/><line style="stroke:#181818;stroke-width:0.6;stroke-dasharray:2.0,2.0;" x1="375.6" x2="660.6" y1="731.7563" y2="731.7563"/><text fill="#000000" font-family="sans-serif" font-size="7.8" font-weight="bold" lengthAdjust="spacing" textLength="8.4" x="382.8" y="728.5986">27</text><text fill="#000000" font-family="sans-serif" font-size="7.8" lengthAdjust="spacing" textLength="63.6" x="393.6" y="728.5986">operation success</text><polygon fill="#181818" points="238.8,767.3309,232.8,769.7309,238.8,772.1309,236.4,769.7309" style="stroke:#181818;stroke-width:0.6;"/><line style="stroke:#181818;stroke-width:0.6;stroke-dasharray:2.0,2.0;" x1="235.2" x2="369" y1="769.7309" y2="769.7309"/><text fill="#000000" font-family="sans-serif" font-size="7.8" font-weight="bold" lengthAdjust="spacing" textLength="8.4" x="242.4" y="766.5732">28</text><text fill="#000000" font-family="sans-serif" font-size="7.8" lengthAdjust="spacing" textLength="63.6" x="253.2" y="766.5732">operation success</text><polygon fill="#181818" points="38.4,786.1055,32.4,788.5055,38.4,790.9055,36,788.5055" style="stroke:#181818;stroke-width:0.6;"/><line style="stroke:#181818;stroke-width:0.6;stroke-dasharray:2.0,2.0;" x1="34.8" x2="228.6" y1="788.5055" y2="788.5055"/><text fill="#000000" font-family="sans-serif" font-size="7.8" font-weight="bold" lengthAdjust="spacing" textLength="8.4" x="42" y="785.3479">29</text><text fill="#000000" font-family="sans-serif" font-size="7.8" lengthAdjust="spacing" textLength="96" x="52.8" y="785.3479">Displays operation success</text><!--SRC=[bLNBRjim4BphAnOvsKOTv9AB2mGeuW0DqAQ1vTnoOQMrpKOY5PAAwo8VtrtgOKcM58SdMvgT7OxsOL-aoeGHAQHQwMXdT8hWJ8w1hTza8deHMmpT8K4m63cXjaaJO7SYrdkfjh0HYSKWSD8Hz2cykhg6EOG7wp2545zpL172KeejXqt2S3aD0f4xhVBqDnhw7JbjuEBxwkS520jtQPRe0s90UPoCP2QKWul56aNwQ7IchKYUxZsoo362kzNA6PqaQ3n-_NZR0Q-GS9BIIxGUihfxx41C0mBFgYyYx8IGIKbI0myK5RQV5EfNdJ17ohDIESKqBrBA3xnPyaquFDeK09tg7ynlAkiNyCs-M70QjgZGS8m0XNlWF50byj4rQUceVyYdf9eJQvrX0Il-gDPPY8KJC4d5NwQqyXz-WLIgwi_KqyJOovvedK6kd4o0AYft1PUqy2OIIRyn7hdO-f3Hnp2538nzR53Wtz_VQ_MD74hJFxL50tiscqonc51LW_zMjWxfSmCwfs5AhUW5CLkI2ZO3X8hPXyBeenDz73TSb1I_HUThv8UqRZ8DJl2r9gvXw3bCGsnKZGNRlRBKiX7saRK8kU9Xu33RlDROx8JUaCQd7c8zoWmRjpvsnZbomp6zOKDmfm_Fq1m6Owh3rHbVgbr1gzxtHDHHoMmVwIEoONNDOXncRB3r5L9_kuSxlRUG41_eJTamliO5pnTw2QbGRNS7chuwlKqT-eOavY85R6WjWTjXaPdpsGmZkU4vp8-VrMjElIpTWMMvdIYR-VBiPXvjP95g6XrV2iu7aPPDt9mlI9funXmdpy0hFagJ22EtkzElCfjDhgVmy6jzjvZDUjw6s72-5z92-C4e3St53UrLjgeryR-UXj-hACdZqjV2VKKtzgRpevgmSlooTL6-sibKh_DMsoVcwIwY23CUxht-BsfmjVYumu9pohEJgYvFjY3IQYDDAfpKAXXQIYDhr6ksG4m6__WQvSjLVbu6OtNM7VIHGKBnRf-mvEDcQ3Lcq3DzE6Os6wFmOFPXNi89NAtJ8VWdriReSF_4glXWJPoi29O-lY76jqDdAxWMNV3HGXYGjsR3H1olTKTUuV7O0k-XRCZJ6PSmLIhOd0hFsl4XNXPkFM-wC-faEGppTvR3Htstb3PBnC4EC9wss7y0]--></g></svg>