<?xml version="1.0" encoding="us-ascii" standalone="no"?><svg xmlns="http://www.w3.org/2000/svg" xmlns:xlink="http://www.w3.org/1999/xlink" contentStyleType="text/css" height="622px" preserveAspectRatio="none" style="width:765px;height:622px;background:#FFFFFF;" version="1.1" viewBox="0 0 765 622" width="765px" zoomAndPan="magnify"><defs/><g><text fill="#000000" font-family="sans-serif" font-size="14" font-weight="bold" lengthAdjust="spacing" textLength="284" x="244" y="30.1074">US005 - System Sequence Diagram (SSD)</text><rect fill="#FFFFFF" height="396.7832" style="stroke:#181818;stroke-width:1.0;" width="10" x="33" y="133.2422"/><rect fill="#FFFFFF" height="31.291" style="stroke:#181818;stroke-width:1.0;" width="10" x="360" y="156.5332"/><rect fill="#FFFFFF" height="57.582" style="stroke:#181818;stroke-width:1.0;" width="10" x="360" y="219.1152"/><rect fill="#FFFFFF" height="126.1641" style="stroke:#181818;stroke-width:1.0;" width="10" x="360" y="325.2793"/><rect fill="#FFFFFF" height="38.291" style="stroke:#181818;stroke-width:1.0;" width="10" x="360" y="482.7344"/><rect fill="none" height="99.1641" style="stroke:#000000;stroke-width:1.5;" width="426" x="10" y="234.1152"/><rect fill="none" height="143.4551" style="stroke:#000000;stroke-width:1.5;" width="551" x="10" y="347.2793"/><line style="stroke:#181818;stroke-width:0.5;stroke-dasharray:5.0,5.0;" x1="38" x2="38" y1="123.2422" y2="539.0254"/><line style="stroke:#181818;stroke-width:0.5;stroke-dasharray:5.0,5.0;" x1="365" x2="365" y1="123.2422" y2="539.0254"/><text fill="#000000" font-family="sans-serif" font-size="14" lengthAdjust="spacing" textLength="30" x="20" y="119.7285">HRM</text><ellipse cx="38" cy="53.1211" fill="#E3E3E3" rx="8" ry="8" style="stroke:#181818;stroke-width:0.5;"/><path d="M38,61.1211 L38,88.1211 M25,69.1211 L51,69.1211 M38,88.1211 L25,103.1211 M38,88.1211 L51,103.1211 " fill="none" style="stroke:#181818;stroke-width:0.5;"/><text fill="#000000" font-family="sans-serif" font-size="14" lengthAdjust="spacing" textLength="30" x="20" y="553.1328">HRM</text><ellipse cx="38" cy="565.1465" fill="#E3E3E3" rx="8" ry="8" style="stroke:#181818;stroke-width:0.5;"/><path d="M38,573.1465 L38,600.1465 M25,581.1465 L51,581.1465 M38,600.1465 L25,615.1465 M38,600.1465 L51,615.1465 " fill="none" style="stroke:#181818;stroke-width:0.5;"/><rect fill="#E3E3E3" height="32.6211" rx="2.5" ry="2.5" style="stroke:#181818;stroke-width:0.5;" width="122" x="304" y="89.6211"/><text fill="#000000" font-family="sans-serif" font-size="14" lengthAdjust="spacing" textLength="108" x="311" y="111.7285">:TeamProposalUI</text><rect fill="#E3E3E3" height="32.6211" rx="2.5" ry="2.5" style="stroke:#181818;stroke-width:0.5;" width="122" x="304" y="538.0254"/><text fill="#000000" font-family="sans-serif" font-size="14" lengthAdjust="spacing" textLength="108" x="311" y="560.1328">:TeamProposalUI</text><rect fill="#FFFFFF" height="396.7832" style="stroke:#181818;stroke-width:1.0;" width="10" x="33" y="133.2422"/><rect fill="#FFFFFF" height="31.291" style="stroke:#181818;stroke-width:1.0;" width="10" x="360" y="156.5332"/><rect fill="#FFFFFF" height="57.582" style="stroke:#181818;stroke-width:1.0;" width="10" x="360" y="219.1152"/><rect fill="#FFFFFF" height="126.1641" style="stroke:#181818;stroke-width:1.0;" width="10" x="360" y="325.2793"/><rect fill="#FFFFFF" height="38.291" style="stroke:#181818;stroke-width:1.0;" width="10" x="360" y="482.7344"/><polygon fill="#181818" points="348,152.5332,358,156.5332,348,160.5332,352,156.5332" style="stroke:#181818;stroke-width:1.0;"/><line style="stroke:#181818;stroke-width:1.0;" x1="43" x2="354" y1="156.5332" y2="156.5332"/><text fill="#000000" font-family="sans-serif" font-size="13" font-weight="bold" lengthAdjust="spacing" textLength="7" x="50" y="151.2705">1</text><text fill="#000000" font-family="sans-serif" font-size="13" lengthAdjust="spacing" textLength="223" x="61" y="151.2705">Asks to generate a new team proposal</text><polygon fill="#181818" points="54,183.8242,44,187.8242,54,191.8242,50,187.8242" style="stroke:#181818;stroke-width:1.0;"/><line style="stroke:#181818;stroke-width:1.0;stroke-dasharray:2.0,2.0;" x1="48" x2="364" y1="187.8242" y2="187.8242"/><text fill="#000000" font-family="sans-serif" font-size="13" font-weight="bold" lengthAdjust="spacing" textLength="7" x="60" y="182.5615">2</text><text fill="#000000" font-family="sans-serif" font-size="13" lengthAdjust="spacing" textLength="232" x="71" y="182.5615">Requests data (max and min team size)</text><polygon fill="#181818" points="348,215.1152,358,219.1152,348,223.1152,352,219.1152" style="stroke:#181818;stroke-width:1.0;"/><line style="stroke:#181818;stroke-width:1.0;" x1="43" x2="354" y1="219.1152" y2="219.1152"/><text fill="#000000" font-family="sans-serif" font-size="13" font-weight="bold" lengthAdjust="spacing" textLength="7" x="50" y="213.8525">3</text><text fill="#000000" font-family="sans-serif" font-size="13" lengthAdjust="spacing" textLength="125" x="61" y="213.8525">Types requested data</text><path d="M10,234.1152 L83,234.1152 L83,243.4063 L73,253.4063 L10,253.4063 L10,234.1152 " fill="#EEEEEE" style="stroke:#000000;stroke-width:1.5;"/><rect fill="none" height="99.1641" style="stroke:#000000;stroke-width:1.5;" width="426" x="10" y="234.1152"/><text fill="#000000" font-family="sans-serif" font-size="13" font-weight="bold" lengthAdjust="spacing" textLength="28" x="25" y="249.1436">loop</text><path d="M441,239.1152 L441,318.1152 L758,318.1152 L758,249.1152 L748,239.1152 L441,239.1152 " fill="#FAFAFA" style="stroke:#181818;stroke-width:0.5;"/><path d="M748,239.1152 L748,249.1152 L758,249.1152 L748,239.1152 " fill="#FAFAFA" style="stroke:#181818;stroke-width:0.5;"/><text fill="#000000" font-family="sans-serif" font-size="13" font-weight="bold" lengthAdjust="spacing" textLength="58" x="447" y="258.1436">(5) NOTE:</text><text fill="#000000" font-family="sans-serif" font-size="13" font-weight="bold" lengthAdjust="spacing" textLength="76" x="447" y="275.4346">Set of skills:</text><ellipse cx="452.5" cy="288.4883" fill="#000000" rx="2.5" ry="2.5" style="stroke:#000000;stroke-width:0.0;"/><text fill="#000000" font-family="sans-serif" font-size="13" lengthAdjust="spacing" textLength="248" x="459" y="292.7256">Set of skills required for the team proposal;</text><ellipse cx="452.5" cy="305.7793" fill="#000000" rx="2.5" ry="2.5" style="stroke:#000000;stroke-width:0.0;"/><text fill="#000000" font-family="sans-serif" font-size="13" lengthAdjust="spacing" textLength="284" x="459" y="310.0166">Includes the skill name and the required quantity.</text><polygon fill="#181818" points="54,272.6973,44,276.6973,54,280.6973,50,276.6973" style="stroke:#181818;stroke-width:1.0;"/><line style="stroke:#181818;stroke-width:1.0;stroke-dasharray:2.0,2.0;" x1="48" x2="364" y1="276.6973" y2="276.6973"/><text fill="#000000" font-family="sans-serif" font-size="13" font-weight="bold" lengthAdjust="spacing" textLength="7" x="60" y="271.4346">4</text><text fill="#000000" font-family="sans-serif" font-size="13" lengthAdjust="spacing" textLength="244" x="71" y="271.4346">Shows list of skills and asks to select one</text><polygon fill="#181818" points="348,321.2793,358,325.2793,348,329.2793,352,325.2793" style="stroke:#181818;stroke-width:1.0;"/><line style="stroke:#181818;stroke-width:1.0;" x1="43" x2="354" y1="325.2793" y2="325.2793"/><text fill="#000000" font-family="sans-serif" font-size="13" font-weight="bold" lengthAdjust="spacing" textLength="7" x="50" y="311.3711">5</text><text fill="#000000" font-family="sans-serif" font-size="13" lengthAdjust="spacing" textLength="256" x="61" y="302.7256">Selects a skill from the list and specifies the</text><text fill="#000000" font-family="sans-serif" font-size="13" lengthAdjust="spacing" textLength="117" x="61" y="320.0166">quantity of that skill.</text><path d="M10,347.2793 L83,347.2793 L83,356.5703 L73,366.5703 L10,366.5703 L10,347.2793 " fill="#EEEEEE" style="stroke:#000000;stroke-width:1.5;"/><rect fill="none" height="143.4551" style="stroke:#000000;stroke-width:1.5;" width="551" x="10" y="347.2793"/><text fill="#000000" font-family="sans-serif" font-size="13" font-weight="bold" lengthAdjust="spacing" textLength="28" x="25" y="362.3076">loop</text><text fill="#000000" font-family="sans-serif" font-size="11" font-weight="bold" lengthAdjust="spacing" textLength="210" x="98" y="361.1494">[until the team generated is accepted]</text><line style="stroke:#181818;stroke-width:1.0;" x1="370" x2="412" y1="407.1523" y2="407.1523"/><line style="stroke:#181818;stroke-width:1.0;" x1="412" x2="412" y1="407.1523" y2="420.1523"/><line style="stroke:#181818;stroke-width:1.0;" x1="371" x2="412" y1="420.1523" y2="420.1523"/><polygon fill="#181818" points="381,416.1523,371,420.1523,381,424.1523,377,420.1523" style="stroke:#181818;stroke-width:1.0;"/><text fill="#000000" font-family="sans-serif" font-size="13" font-weight="bold" lengthAdjust="spacing" textLength="7" x="377" y="393.2441">6</text><text fill="#000000" font-family="sans-serif" font-size="13" lengthAdjust="spacing" textLength="161" x="388" y="384.5986">Generate the team proposal</text><text fill="#000000" font-family="sans-serif" font-size="13" lengthAdjust="spacing" textLength="123" x="388" y="401.8896">with given information</text><polygon fill="#181818" points="54,447.4434,44,451.4434,54,455.4434,50,451.4434" style="stroke:#181818;stroke-width:1.0;"/><line style="stroke:#181818;stroke-width:1.0;stroke-dasharray:2.0,2.0;" x1="48" x2="364" y1="451.4434" y2="451.4434"/><text fill="#000000" font-family="sans-serif" font-size="13" font-weight="bold" lengthAdjust="spacing" textLength="7" x="60" y="446.1807">7</text><text fill="#000000" font-family="sans-serif" font-size="13" lengthAdjust="spacing" textLength="282" x="71" y="446.1807">Shows team generated and asks for confirmation</text><polygon fill="#181818" points="348,478.7344,358,482.7344,348,486.7344,352,482.7344" style="stroke:#181818;stroke-width:1.0;"/><line style="stroke:#181818;stroke-width:1.0;" x1="43" x2="354" y1="482.7344" y2="482.7344"/><text fill="#000000" font-family="sans-serif" font-size="13" font-weight="bold" lengthAdjust="spacing" textLength="7" x="50" y="477.4717">8</text><text fill="#000000" font-family="sans-serif" font-size="13" lengthAdjust="spacing" textLength="185" x="61" y="477.4717">Accepts or rejects the proposal.</text><polygon fill="#181818" points="54,517.0254,44,521.0254,54,525.0254,50,521.0254" style="stroke:#181818;stroke-width:1.0;"/><line style="stroke:#181818;stroke-width:1.0;stroke-dasharray:2.0,2.0;" x1="48" x2="364" y1="521.0254" y2="521.0254"/><text fill="#000000" font-family="sans-serif" font-size="13" font-weight="bold" lengthAdjust="spacing" textLength="7" x="60" y="515.7627">9</text><text fill="#000000" font-family="sans-serif" font-size="13" lengthAdjust="spacing" textLength="160" x="71" y="515.7627">Displays operation success</text><!--SRC=[dLDDZzem4BtxLumu0H9eBtkXKgLAhDezz4CRzhQNQJ99N1mxct6Mqb_ViKC2B85AzIcnPzwyz_pCMsrhRB22obcNbesh27pJakBXfCPqYmKbVcy86aezsiAS5d29cTjfMq2EXaafhxsKFYTtT_UmW6JFdYf8wBKbcnAiDHQXRPeawvbIs7fds-edDVATUjV0vClJrmaWmqDL6xSdKZB7wrJNQ3rCLXl2waVZQiTedXzZPJT3HGJzXfwElGfazN-m-DZpMS4dtZ9u1mLPQa8FWgKTU0gY3_YnUm3jny1X7Q0MWZfCMC5JKCgU8KEFCAtmDw3DeDAsmsRzXsOH8wDHw56sctrDBFv7RCeYk3fICSxLmyzDqhV99wNRCHZD7bmESid6SAIF1xUOZ6G0dAKpn2jI-ZKgAObG0j_DWLpY1xwaRdmOoZMbEjSYF6o_sDTM8g3zFd3p9VgkSNbJUBzFWXTT6dQiawf65wM_C6S-dzxFuDltpSDgFXyvJUZ4dz6IiufuRxgHQyibu47BMSe-NBO_sjIqsK5uPuz5UPp1bR0r0FQMBC-41ccTq20PMYannxbzuZFGudwQKYtVwZGK_Isju7F_EYvOlzYTzYKK-eqiQ2lAAlJQMVMl1z9bx1sJ8MF1eTJPN0zmu_cw_gwZ80R1QUXNJ5ZWtjDUgcifEIRaVvxzMdDjS2zpwo19c0EtGeNvYe2_]--></g></svg>