<?xml version="1.0" encoding="us-ascii" standalone="no"?><svg xmlns="http://www.w3.org/2000/svg" xmlns:xlink="http://www.w3.org/1999/xlink" contentStyleType="text/css" height="547px" preserveAspectRatio="none" style="width:400px;height:547px;background:#FFFFFF;" version="1.1" viewBox="0 0 400 547" width="400px" zoomAndPan="magnify"><defs/><g><text fill="#000000" font-family="sans-serif" font-size="14" font-weight="bold" lengthAdjust="spacing" textLength="351" x="26" y="30.1074">System Sequence Diagram (SSD) - Alternative One</text><rect fill="#FFFFFF" height="284.6191" style="stroke:#181818;stroke-width:1.0;" width="10" x="58" y="151.8633"/><rect fill="#FFFFFF" height="31.291" style="stroke:#181818;stroke-width:1.0;" width="10" x="347" y="175.1543"/><rect fill="#FFFFFF" height="57.582" style="stroke:#181818;stroke-width:1.0;" width="10" x="347" y="237.7363"/><rect fill="#FFFFFF" height="38.291" style="stroke:#181818;stroke-width:1.0;" width="10" x="347" y="326.6094"/><rect fill="#FFFFFF" height="31.291" style="stroke:#181818;stroke-width:1.0;" width="10" x="347" y="396.1914"/><rect fill="none" height="81.873" style="stroke:#000000;stroke-width:1.5;" width="384" x="10" y="252.7363"/><line style="stroke:#181818;stroke-width:0.5;stroke-dasharray:5.0,5.0;" x1="63" x2="63" y1="141.8633" y2="445.4824"/><line style="stroke:#181818;stroke-width:0.5;stroke-dasharray:5.0,5.0;" x1="352" x2="352" y1="141.8633" y2="445.4824"/><text fill="#000000" font-family="sans-serif" font-size="14" lengthAdjust="spacing" textLength="80" x="20" y="119.7285">Organization</text><text fill="#000000" font-family="sans-serif" font-size="14" lengthAdjust="spacing" textLength="62" x="29" y="138.3496">Employee</text><ellipse cx="63" cy="53.1211" fill="#E3E3E3" rx="8" ry="8" style="stroke:#181818;stroke-width:0.5;"/><path d="M63,61.1211 L63,88.1211 M50,69.1211 L76,69.1211 M63,88.1211 L50,103.1211 M63,88.1211 L76,103.1211 " fill="none" style="stroke:#181818;stroke-width:0.5;"/><text fill="#000000" font-family="sans-serif" font-size="14" lengthAdjust="spacing" textLength="80" x="20" y="459.5898">Organization</text><text fill="#000000" font-family="sans-serif" font-size="14" lengthAdjust="spacing" textLength="62" x="29" y="478.2109">Employee</text><ellipse cx="63" cy="490.2246" fill="#E3E3E3" rx="8" ry="8" style="stroke:#181818;stroke-width:0.5;"/><path d="M63,498.2246 L63,525.2246 M50,506.2246 L76,506.2246 M63,525.2246 L50,540.2246 M63,525.2246 L76,540.2246 " fill="none" style="stroke:#181818;stroke-width:0.5;"/><rect fill="#E3E3E3" height="32.6211" rx="2.5" ry="2.5" style="stroke:#181818;stroke-width:0.5;" width="64" x="320" y="108.2422"/><text fill="#000000" font-family="sans-serif" font-size="14" lengthAdjust="spacing" textLength="50" x="327" y="130.3496">:System</text><rect fill="#E3E3E3" height="32.6211" rx="2.5" ry="2.5" style="stroke:#181818;stroke-width:0.5;" width="64" x="320" y="444.4824"/><text fill="#000000" font-family="sans-serif" font-size="14" lengthAdjust="spacing" textLength="50" x="327" y="466.5898">:System</text><rect fill="#FFFFFF" height="284.6191" style="stroke:#181818;stroke-width:1.0;" width="10" x="58" y="151.8633"/><rect fill="#FFFFFF" height="31.291" style="stroke:#181818;stroke-width:1.0;" width="10" x="347" y="175.1543"/><rect fill="#FFFFFF" height="57.582" style="stroke:#181818;stroke-width:1.0;" width="10" x="347" y="237.7363"/><rect fill="#FFFFFF" height="38.291" style="stroke:#181818;stroke-width:1.0;" width="10" x="347" y="326.6094"/><rect fill="#FFFFFF" height="31.291" style="stroke:#181818;stroke-width:1.0;" width="10" x="347" y="396.1914"/><polygon fill="#181818" points="335,171.1543,345,175.1543,335,179.1543,339,175.1543" style="stroke:#181818;stroke-width:1.0;"/><line style="stroke:#181818;stroke-width:1.0;" x1="68" x2="341" y1="175.1543" y2="175.1543"/><text fill="#000000" font-family="sans-serif" font-size="13" font-weight="bold" lengthAdjust="spacing" textLength="7" x="75" y="169.8916">1</text><text fill="#000000" font-family="sans-serif" font-size="13" lengthAdjust="spacing" textLength="207" x="86" y="169.8916">asks to create a new team proposal</text><polygon fill="#181818" points="79,202.4453,69,206.4453,79,210.4453,75,206.4453" style="stroke:#181818;stroke-width:1.0;"/><line style="stroke:#181818;stroke-width:1.0;stroke-dasharray:2.0,2.0;" x1="73" x2="351" y1="206.4453" y2="206.4453"/><text fill="#000000" font-family="sans-serif" font-size="13" font-weight="bold" lengthAdjust="spacing" textLength="7" x="85" y="201.1826">2</text><text fill="#000000" font-family="sans-serif" font-size="13" lengthAdjust="spacing" textLength="185" x="96" y="201.1826">requests data ( max team size )</text><polygon fill="#181818" points="335,233.7363,345,237.7363,335,241.7363,339,237.7363" style="stroke:#181818;stroke-width:1.0;"/><line style="stroke:#181818;stroke-width:1.0;" x1="68" x2="341" y1="237.7363" y2="237.7363"/><text fill="#000000" font-family="sans-serif" font-size="13" font-weight="bold" lengthAdjust="spacing" textLength="7" x="75" y="232.4736">3</text><text fill="#000000" font-family="sans-serif" font-size="13" lengthAdjust="spacing" textLength="122" x="86" y="232.4736">types requested data</text><path d="M10,252.7363 L83,252.7363 L83,262.0273 L73,272.0273 L10,272.0273 L10,252.7363 " fill="#EEEEEE" style="stroke:#000000;stroke-width:1.5;"/><rect fill="none" height="81.873" style="stroke:#000000;stroke-width:1.5;" width="384" x="10" y="252.7363"/><text fill="#000000" font-family="sans-serif" font-size="13" font-weight="bold" lengthAdjust="spacing" textLength="28" x="25" y="267.7646">loop</text><polygon fill="#181818" points="79,291.3184,69,295.3184,79,299.3184,75,295.3184" style="stroke:#181818;stroke-width:1.0;"/><line style="stroke:#181818;stroke-width:1.0;stroke-dasharray:2.0,2.0;" x1="73" x2="351" y1="295.3184" y2="295.3184"/><text fill="#000000" font-family="sans-serif" font-size="13" font-weight="bold" lengthAdjust="spacing" textLength="7" x="85" y="290.0557">4</text><text fill="#000000" font-family="sans-serif" font-size="13" lengthAdjust="spacing" textLength="244" x="96" y="290.0557">Shows list of skills and asks to select one</text><polygon fill="#181818" points="335,322.6094,345,326.6094,335,330.6094,339,326.6094" style="stroke:#181818;stroke-width:1.0;"/><line style="stroke:#181818;stroke-width:1.0;" x1="68" x2="341" y1="326.6094" y2="326.6094"/><text fill="#000000" font-family="sans-serif" font-size="13" font-weight="bold" lengthAdjust="spacing" textLength="7" x="75" y="321.3467">5</text><text fill="#000000" font-family="sans-serif" font-size="13" lengthAdjust="spacing" textLength="82" x="86" y="321.3467">Selects a skill</text><polygon fill="#181818" points="79,360.9004,69,364.9004,79,368.9004,75,364.9004" style="stroke:#181818;stroke-width:1.0;"/><line style="stroke:#181818;stroke-width:1.0;stroke-dasharray:2.0,2.0;" x1="73" x2="351" y1="364.9004" y2="364.9004"/><text fill="#000000" font-family="sans-serif" font-size="13" font-weight="bold" lengthAdjust="spacing" textLength="7" x="85" y="359.6377">6</text><text fill="#000000" font-family="sans-serif" font-size="13" lengthAdjust="spacing" textLength="236" x="96" y="359.6377">shows all data and requests confirmation</text><polygon fill="#181818" points="335,392.1914,345,396.1914,335,400.1914,339,396.1914" style="stroke:#181818;stroke-width:1.0;"/><line style="stroke:#181818;stroke-width:1.0;" x1="68" x2="341" y1="396.1914" y2="396.1914"/><text fill="#000000" font-family="sans-serif" font-size="13" font-weight="bold" lengthAdjust="spacing" textLength="7" x="75" y="390.9287">7</text><text fill="#000000" font-family="sans-serif" font-size="13" lengthAdjust="spacing" textLength="78" x="86" y="390.9287">confirms data</text><polygon fill="#181818" points="79,423.4824,69,427.4824,79,431.4824,75,427.4824" style="stroke:#181818;stroke-width:1.0;"/><line style="stroke:#181818;stroke-width:1.0;stroke-dasharray:2.0,2.0;" x1="73" x2="351" y1="427.4824" y2="427.4824"/><text fill="#000000" font-family="sans-serif" font-size="13" font-weight="bold" lengthAdjust="spacing" textLength="7" x="85" y="422.2197">8</text><text fill="#000000" font-family="sans-serif" font-size="13" lengthAdjust="spacing" textLength="158" x="96" y="422.2197">displays operation success</text><!--SRC=[dLAnSi8m3Dtp5Jec6FW1XjxrZiuTidPH7H5ys9PhAT3mzNKS4XY0Ngl9IlIUdfua1niY9lJWER3P9_O4cZggPFuJqHomfLfxHv38A8RMtHR87Xi-sT323frGLQdLN5htekIXfg-EWY7OMco7ycLTRrUmXbUdb0AgFHAyXmp3JZbq_fDIVXlb18ltr6Amvrp4uIEy-UYu9re02an9bKMeDJPYK5XingwbOdmMBdj4fIkaWXnJ1kkNIUicmmu2oc0I3GY4G2TG6cn875dG5UnCEVM0Iro8rfbpvjzarx87eW8DAi8IF7wFf6BF1Ak2RkWkwLsLsaUIYPMQGdlLu9ZZd3nL-rnrlUUJWBEYm3l8-tPE04CpcoJayZa0v-NTiZsOP8gx4zM5AjEFVPxAdxvJbb9c_SLzANEWSwFzmmJpGWo7dKs-7DYVrt01ZslzprqqLgB3Ne0ZfQ81f3E6H1ve-G40]--></g></svg>