<?xml version="1.0" encoding="us-ascii" standalone="no"?><svg xmlns="http://www.w3.org/2000/svg" xmlns:xlink="http://www.w3.org/1999/xlink" contentStyleType="text/css" height="482px" preserveAspectRatio="none" style="width:316px;height:482px;background:#FFFFFF;" version="1.1" viewBox="0 0 316 482" width="316px" zoomAndPan="magnify"><defs/><g><text fill="#000000" font-family="sans-serif" font-size="14" font-weight="bold" lengthAdjust="spacing" textLength="284" x="14.5" y="30.1074">US011 - System Sequence Diagram (SSD)</text><rect fill="#FFFFFF" height="257.377" style="stroke:#181818;stroke-width:1.0;" width="10" x="33.5" y="133.2422"/><rect fill="#FFFFFF" height="31.291" style="stroke:#181818;stroke-width:1.0;" width="10" x="242.5" y="156.5332"/><rect fill="#FFFFFF" height="171.5039" style="stroke:#181818;stroke-width:1.0;" width="10" x="242.5" y="219.1152"/><rect fill="none" height="148.5039" style="stroke:#000000;stroke-width:1.5;" width="294" x="10" y="234.1152"/><line style="stroke:#181818;stroke-width:0.5;stroke-dasharray:5.0,5.0;" x1="38" x2="38" y1="123.2422" y2="399.6191"/><line style="stroke:#181818;stroke-width:0.5;stroke-dasharray:5.0,5.0;" x1="247" x2="247" y1="123.2422" y2="399.6191"/><text fill="#000000" font-family="sans-serif" font-size="14" lengthAdjust="spacing" textLength="31" x="20" y="119.7285">GSM</text><ellipse cx="38.5" cy="53.1211" fill="#E3E3E3" rx="8" ry="8" style="stroke:#181818;stroke-width:0.5;"/><path d="M38.5,61.1211 L38.5,88.1211 M25.5,69.1211 L51.5,69.1211 M38.5,88.1211 L25.5,103.1211 M38.5,88.1211 L51.5,103.1211 " fill="none" style="stroke:#181818;stroke-width:0.5;"/><text fill="#000000" font-family="sans-serif" font-size="14" lengthAdjust="spacing" textLength="31" x="20" y="413.7266">GSM</text><ellipse cx="38.5" cy="425.7402" fill="#E3E3E3" rx="8" ry="8" style="stroke:#181818;stroke-width:0.5;"/><path d="M38.5,433.7402 L38.5,460.7402 M25.5,441.7402 L51.5,441.7402 M38.5,460.7402 L25.5,475.7402 M38.5,460.7402 L51.5,475.7402 " fill="none" style="stroke:#181818;stroke-width:0.5;"/><rect fill="#E3E3E3" height="32.6211" rx="2.5" ry="2.5" style="stroke:#181818;stroke-width:0.5;" width="93" x="201" y="89.6211"/><text fill="#000000" font-family="sans-serif" font-size="14" lengthAdjust="spacing" textLength="79" x="208" y="111.7285">:ImportCsvUI</text><rect fill="#E3E3E3" height="32.6211" rx="2.5" ry="2.5" style="stroke:#181818;stroke-width:0.5;" width="93" x="201" y="398.6191"/><text fill="#000000" font-family="sans-serif" font-size="14" lengthAdjust="spacing" textLength="79" x="208" y="420.7266">:ImportCsvUI</text><rect fill="#FFFFFF" height="257.377" style="stroke:#181818;stroke-width:1.0;" width="10" x="33.5" y="133.2422"/><rect fill="#FFFFFF" height="31.291" style="stroke:#181818;stroke-width:1.0;" width="10" x="242.5" y="156.5332"/><rect fill="#FFFFFF" height="171.5039" style="stroke:#181818;stroke-width:1.0;" width="10" x="242.5" y="219.1152"/><polygon fill="#181818" points="230.5,152.5332,240.5,156.5332,230.5,160.5332,234.5,156.5332" style="stroke:#181818;stroke-width:1.0;"/><line style="stroke:#181818;stroke-width:1.0;" x1="43.5" x2="236.5" y1="156.5332" y2="156.5332"/><text fill="#000000" font-family="sans-serif" font-size="13" font-weight="bold" lengthAdjust="spacing" textLength="7" x="50.5" y="151.2705">1</text><text fill="#000000" font-family="sans-serif" font-size="13" lengthAdjust="spacing" textLength="168" x="61.5" y="151.2705">Requests to import a .csv file</text><polygon fill="#181818" points="54.5,183.8242,44.5,187.8242,54.5,191.8242,50.5,187.8242" style="stroke:#181818;stroke-width:1.0;"/><line style="stroke:#181818;stroke-width:1.0;stroke-dasharray:2.0,2.0;" x1="48.5" x2="246.5" y1="187.8242" y2="187.8242"/><text fill="#000000" font-family="sans-serif" font-size="13" font-weight="bold" lengthAdjust="spacing" textLength="7" x="60.5" y="182.5615">2</text><text fill="#000000" font-family="sans-serif" font-size="13" lengthAdjust="spacing" textLength="112" x="71.5" y="182.5615">Displays list of files</text><polygon fill="#181818" points="230.5,215.1152,240.5,219.1152,230.5,223.1152,234.5,219.1152" style="stroke:#181818;stroke-width:1.0;"/><line style="stroke:#181818;stroke-width:1.0;" x1="43.5" x2="236.5" y1="219.1152" y2="219.1152"/><text fill="#000000" font-family="sans-serif" font-size="13" font-weight="bold" lengthAdjust="spacing" textLength="7" x="50.5" y="213.8525">3</text><text fill="#000000" font-family="sans-serif" font-size="13" lengthAdjust="spacing" textLength="169" x="61.5" y="213.8525">Selects the indended .csv file</text><path d="M10,234.1152 L71,234.1152 L71,243.4063 L61,253.4063 L10,253.4063 L10,234.1152 " fill="#EEEEEE" style="stroke:#000000;stroke-width:1.5;"/><rect fill="none" height="148.5039" style="stroke:#000000;stroke-width:1.5;" width="294" x="10" y="234.1152"/><text fill="#000000" font-family="sans-serif" font-size="13" font-weight="bold" lengthAdjust="spacing" textLength="16" x="25" y="249.1436">alt</text><text fill="#000000" font-family="sans-serif" font-size="11" font-weight="bold" lengthAdjust="spacing" textLength="87" x="86" y="247.9854">[the file is valid]</text><polygon fill="#181818" points="54.5,272.6973,44.5,276.6973,54.5,280.6973,50.5,276.6973" style="stroke:#181818;stroke-width:1.0;"/><line style="stroke:#181818;stroke-width:1.0;stroke-dasharray:2.0,2.0;" x1="48.5" x2="241.5" y1="276.6973" y2="276.6973"/><text fill="#000000" font-family="sans-serif" font-size="13" font-weight="bold" lengthAdjust="spacing" textLength="7" x="60.5" y="271.4346">4</text><text fill="#000000" font-family="sans-serif" font-size="13" lengthAdjust="spacing" textLength="160" x="71.5" y="271.4346">Displays operation success</text><line style="stroke:#000000;stroke-width:1.0;stroke-dasharray:2.0,2.0;" x1="10" x2="304" y1="310.6973" y2="310.6973"/><text fill="#000000" font-family="sans-serif" font-size="11" font-weight="bold" lengthAdjust="spacing" textLength="108" x="15" y="322.5674">[the file is not valid]</text><polygon fill="#181818" points="54.5,370.6191,44.5,374.6191,54.5,378.6191,50.5,374.6191" style="stroke:#181818;stroke-width:1.0;"/><line style="stroke:#181818;stroke-width:1.0;stroke-dasharray:2.0,2.0;" x1="48.5" x2="241.5" y1="374.6191" y2="374.6191"/><text fill="#000000" font-family="sans-serif" font-size="13" font-weight="bold" lengthAdjust="spacing" textLength="7" x="60.5" y="369.3564">5</text><text fill="#000000" font-family="sans-serif" font-size="13" lengthAdjust="spacing" textLength="163" x="71.5" y="369.3564">Displays operation insucess</text><!--SRC=[XP71IWCn48RlUOgX9prKxBK7BnQa1o-6Fi2OdMu7iycQcQqK-l1EKYahYeP0XkJ_lt-Io1kd4GiECEIKmw7aWK3BH4wk9oE6D-p9woaI50gAgOzpWHomon-SUjXZ579EMKswy_Uh5Ip1dqHf04_l4wL0i67ig-t6-ysjSpXfJjFmIiNgeBd0uia_Bm05R7KMeHnunAImM6-7CHTzbEDksnIxRJFn4PMQt84DAs3vO8UmXfSQAogW6RYv0U4ko17sRBUeyYkWqkg66PVchvYrjIjZn9D0P578- -QJfkleXtKUxIdQQrdoWO1JHpQxMVJlsHYr6Qe4ME28aRk_sieZ5LJE2MGAWUJIslbyRYlPXtpZfQnVpBdiFpGdWrVs1PgwsgVx1000]--></g></svg>