<?xml version="1.0" encoding="us-ascii" standalone="no"?><svg xmlns="http://www.w3.org/2000/svg" xmlns:xlink="http://www.w3.org/1999/xlink" contentStyleType="text/css" height="749px" preserveAspectRatio="none" style="width:667px;height:749px;background:#FFFFFF;" version="1.1" viewBox="0 0 667 749" width="667px" zoomAndPan="magnify"><defs/><g><text fill="#000000" font-family="sans-serif" font-size="14" font-weight="bold" lengthAdjust="spacing" textLength="284" x="193.75" y="30.1074">US025 - System Sequence Diagram (SSD)</text><rect fill="#FFFFFF" height="515.0742" style="stroke:#181818;stroke-width:1.0;" width="10" x="33.5" y="133.2422"/><rect fill="#FFFFFF" height="74.873" style="stroke:#181818;stroke-width:1.0;" width="10" x="394.5" y="156.5332"/><rect fill="#FFFFFF" height="176.873" style="stroke:#181818;stroke-width:1.0;" width="10" x="394.5" y="262.6973"/><rect fill="#FFFFFF" height="177.4551" style="stroke:#181818;stroke-width:1.0;" width="10" x="394.5" y="470.8613"/><rect fill="none" height="168.4551" style="stroke:#000000;stroke-width:1.5;" width="566.5" x="10" y="171.5332"/><line style="stroke:#181818;stroke-width:0.5;stroke-dasharray:5.0,5.0;" x1="38" x2="38" y1="123.2422" y2="666.3164"/><line style="stroke:#181818;stroke-width:0.5;stroke-dasharray:5.0,5.0;" x1="399" x2="399" y1="123.2422" y2="666.3164"/><text fill="#000000" font-family="sans-serif" font-size="14" lengthAdjust="spacing" textLength="31" x="20" y="119.7285">GSM</text><ellipse cx="38.5" cy="53.1211" fill="#E3E3E3" rx="8" ry="8" style="stroke:#181818;stroke-width:0.5;"/><path d="M38.5,61.1211 L38.5,88.1211 M25.5,69.1211 L51.5,69.1211 M38.5,88.1211 L25.5,103.1211 M38.5,88.1211 L51.5,103.1211 " fill="none" style="stroke:#181818;stroke-width:0.5;"/><text fill="#000000" font-family="sans-serif" font-size="14" lengthAdjust="spacing" textLength="31" x="20" y="680.4238">GSM</text><ellipse cx="38.5" cy="692.4375" fill="#E3E3E3" rx="8" ry="8" style="stroke:#181818;stroke-width:0.5;"/><path d="M38.5,700.4375 L38.5,727.4375 M25.5,708.4375 L51.5,708.4375 M38.5,727.4375 L25.5,742.4375 M38.5,727.4375 L51.5,742.4375 " fill="none" style="stroke:#181818;stroke-width:0.5;"/><rect fill="#E3E3E3" height="32.6211" rx="2.5" ry="2.5" style="stroke:#181818;stroke-width:0.5;" width="79" x="360" y="89.6211"/><text fill="#000000" font-family="sans-serif" font-size="14" lengthAdjust="spacing" textLength="65" x="367" y="111.7285">:AgendaUI</text><rect fill="#E3E3E3" height="32.6211" rx="2.5" ry="2.5" style="stroke:#181818;stroke-width:0.5;" width="79" x="360" y="665.3164"/><text fill="#000000" font-family="sans-serif" font-size="14" lengthAdjust="spacing" textLength="65" x="367" y="687.4238">:AgendaUI</text><rect fill="#FFFFFF" height="515.0742" style="stroke:#181818;stroke-width:1.0;" width="10" x="33.5" y="133.2422"/><rect fill="#FFFFFF" height="74.873" style="stroke:#181818;stroke-width:1.0;" width="10" x="394.5" y="156.5332"/><rect fill="#FFFFFF" height="176.873" style="stroke:#181818;stroke-width:1.0;" width="10" x="394.5" y="262.6973"/><rect fill="#FFFFFF" height="177.4551" style="stroke:#181818;stroke-width:1.0;" width="10" x="394.5" y="470.8613"/><polygon fill="#181818" points="382.5,152.5332,392.5,156.5332,382.5,160.5332,386.5,156.5332" style="stroke:#181818;stroke-width:1.0;"/><line style="stroke:#181818;stroke-width:1.0;" x1="43.5" x2="388.5" y1="156.5332" y2="156.5332"/><text fill="#000000" font-family="sans-serif" font-size="13" font-weight="bold" lengthAdjust="spacing" textLength="7" x="50.5" y="151.2705">1</text><text fill="#000000" font-family="sans-serif" font-size="13" lengthAdjust="spacing" textLength="204" x="61.5" y="151.2705">Asks to cancel an entry on Agenda</text><path d="M10,171.5332 L83,171.5332 L83,180.8242 L73,190.8242 L10,190.8242 L10,171.5332 " fill="#EEEEEE" style="stroke:#000000;stroke-width:1.5;"/><rect fill="none" height="168.4551" style="stroke:#000000;stroke-width:1.5;" width="566.5" x="10" y="171.5332"/><text fill="#000000" font-family="sans-serif" font-size="13" font-weight="bold" lengthAdjust="spacing" textLength="28" x="25" y="186.5615">loop</text><text fill="#000000" font-family="sans-serif" font-size="11" font-weight="bold" lengthAdjust="spacing" textLength="189" x="98" y="185.4033">[until doesn't select a valid option]</text><polygon fill="#181818" points="54.5,227.4063,44.5,231.4063,54.5,235.4063,50.5,231.4063" style="stroke:#181818;stroke-width:1.0;"/><line style="stroke:#181818;stroke-width:1.0;stroke-dasharray:2.0,2.0;" x1="48.5" x2="398.5" y1="231.4063" y2="231.4063"/><text fill="#000000" font-family="sans-serif" font-size="13" font-weight="bold" lengthAdjust="spacing" textLength="7" x="60.5" y="217.498">2</text><text fill="#000000" font-family="sans-serif" font-size="13" lengthAdjust="spacing" textLength="253" x="71.5" y="208.8525">Shows the tasks of the Agenda and asks to</text><text fill="#000000" font-family="sans-serif" font-size="13" lengthAdjust="spacing" textLength="175" x="71.5" y="226.1436">select the task to be canceled</text><polygon fill="#181818" points="382.5,258.6973,392.5,262.6973,382.5,266.6973,386.5,262.6973" style="stroke:#181818;stroke-width:1.0;"/><line style="stroke:#181818;stroke-width:1.0;" x1="43.5" x2="388.5" y1="262.6973" y2="262.6973"/><text fill="#000000" font-family="sans-serif" font-size="13" font-weight="bold" lengthAdjust="spacing" textLength="7" x="50.5" y="257.4346">3</text><text fill="#000000" font-family="sans-serif" font-size="13" lengthAdjust="spacing" textLength="84" x="61.5" y="257.4346">Selects a task</text><line style="stroke:#181818;stroke-width:1.0;stroke-dasharray:2.0,2.0;" x1="404.5" x2="446.5" y1="293.9883" y2="293.9883"/><line style="stroke:#181818;stroke-width:1.0;stroke-dasharray:2.0,2.0;" x1="446.5" x2="446.5" y1="293.9883" y2="306.9883"/><line style="stroke:#181818;stroke-width:1.0;stroke-dasharray:2.0,2.0;" x1="405.5" x2="446.5" y1="306.9883" y2="306.9883"/><polygon fill="#181818" points="415.5,302.9883,405.5,306.9883,415.5,310.9883,411.5,306.9883" style="stroke:#181818;stroke-width:1.0;"/><text fill="#000000" font-family="sans-serif" font-size="13" font-weight="bold" lengthAdjust="spacing" textLength="7" x="411.5" y="288.7256">4</text><text fill="#000000" font-family="sans-serif" font-size="13" lengthAdjust="spacing" textLength="142" x="422.5" y="288.7256">validates selected option</text><line style="stroke:#181818;stroke-width:1.0;stroke-dasharray:2.0,2.0;" x1="404.5" x2="446.5" y1="370.2793" y2="370.2793"/><line style="stroke:#181818;stroke-width:1.0;stroke-dasharray:2.0,2.0;" x1="446.5" x2="446.5" y1="370.2793" y2="383.2793"/><line style="stroke:#181818;stroke-width:1.0;stroke-dasharray:2.0,2.0;" x1="405.5" x2="446.5" y1="383.2793" y2="383.2793"/><polygon fill="#181818" points="415.5,379.2793,405.5,383.2793,415.5,387.2793,411.5,383.2793" style="stroke:#181818;stroke-width:1.0;"/><text fill="#000000" font-family="sans-serif" font-size="13" font-weight="bold" lengthAdjust="spacing" textLength="7" x="411.5" y="365.0166">5</text><text fill="#000000" font-family="sans-serif" font-size="13" lengthAdjust="spacing" textLength="88" x="422.5" y="365.0166">keepData(task)</text><polygon fill="#181818" points="54.5,435.5703,44.5,439.5703,54.5,443.5703,50.5,439.5703" style="stroke:#181818;stroke-width:1.0;"/><line style="stroke:#181818;stroke-width:1.0;stroke-dasharray:2.0,2.0;" x1="48.5" x2="398.5" y1="439.5703" y2="439.5703"/><text fill="#000000" font-family="sans-serif" font-size="13" font-weight="bold" lengthAdjust="spacing" textLength="7" x="60.5" y="434.3076">6</text><text fill="#000000" font-family="sans-serif" font-size="13" lengthAdjust="spacing" textLength="316" x="71.5" y="434.3076">Shows cancel task message and asks for confirmation</text><polygon fill="#181818" points="382.5,466.8613,392.5,470.8613,382.5,474.8613,386.5,470.8613" style="stroke:#181818;stroke-width:1.0;"/><line style="stroke:#181818;stroke-width:1.0;" x1="43.5" x2="388.5" y1="470.8613" y2="470.8613"/><text fill="#000000" font-family="sans-serif" font-size="13" font-weight="bold" lengthAdjust="spacing" textLength="7" x="50.5" y="465.5986">7</text><text fill="#000000" font-family="sans-serif" font-size="13" lengthAdjust="spacing" textLength="130" x="61.5" y="465.5986">Confirms the operation</text><line style="stroke:#181818;stroke-width:1.0;stroke-dasharray:2.0,2.0;" x1="404.5" x2="446.5" y1="579.0254" y2="579.0254"/><line style="stroke:#181818;stroke-width:1.0;stroke-dasharray:2.0,2.0;" x1="446.5" x2="446.5" y1="579.0254" y2="592.0254"/><line style="stroke:#181818;stroke-width:1.0;stroke-dasharray:2.0,2.0;" x1="405.5" x2="446.5" y1="592.0254" y2="592.0254"/><polygon fill="#181818" points="415.5,588.0254,405.5,592.0254,415.5,596.0254,411.5,592.0254" style="stroke:#181818;stroke-width:1.0;"/><text fill="#000000" font-family="sans-serif" font-size="13" font-weight="bold" lengthAdjust="spacing" textLength="7" x="411.5" y="547.8262">8</text><text fill="#000000" font-family="sans-serif" font-size="13" lengthAdjust="spacing" textLength="228" x="422.5" y="521.8896">Cancel task by setting the status of the</text><text fill="#000000" font-family="sans-serif" font-size="13" lengthAdjust="spacing" textLength="238" x="422.5" y="539.1807">selected task to "Canceled" and removes</text><text fill="#000000" font-family="sans-serif" font-size="13" lengthAdjust="spacing" textLength="234" x="426.5" y="556.4717">frees the Team and vehicle from the task</text><text fill="#000000" font-family="sans-serif" font-size="13" lengthAdjust="spacing" textLength="83" x="422.5" y="573.7627">working period</text><polygon fill="#181818" points="49.5,644.3164,39.5,648.3164,49.5,652.3164,45.5,648.3164" style="stroke:#181818;stroke-width:1.0;"/><line style="stroke:#181818;stroke-width:1.0;stroke-dasharray:2.0,2.0;" x1="43.5" x2="398.5" y1="648.3164" y2="648.3164"/><text fill="#000000" font-family="sans-serif" font-size="13" font-weight="bold" lengthAdjust="spacing" textLength="7" x="55.5" y="643.0537">9</text><text fill="#000000" font-family="sans-serif" font-size="13" lengthAdjust="spacing" textLength="153" x="66.5" y="643.0537">Display operation success</text><!--SRC=[VLEzZjim3Dxr58INtWq1YW9TCXGu9C3XXavkjYoCJ3k2RT6Lw0G6yl2bPSVdzgxH4ZaYlpzAiNQ-mu0jjEpPdWEt119wCd4vwT3MM54kGqCGo0hwgbaNn3CMV7M-WXARICQ84oqzv5-_VOSDv4CKQY6dtprvIx1tM8rjJtc-VpO6Us7VjoSAkhV20RBN_6S6645_ZLA8iwv3Bv1jNoho1HxUql7XpQGMTq6XL6n0bsvWyqDFOGiliOuW31QLkG7qG5x20EnXWffQ5X25X7arp1tqNbm31LFqNmGYDMeV42xOk0Au4yT-QL32ZVAEz5l8ptnLvhEcYQC6BjF7HAew2i19sj7FgFVQKUw9PiLK9FY2rWe_kCmJGbHX8y2dZcPngJofrxCu6w8FLcwtsx9NmUPVZmcc9khsAFWqaZx_rVieataKoMfBCUhLUi-ZrF5RzgKBBIwA7hdVmcugdyBcZiBK-D-vhhsjxUnMkaw3HYCoNkaHDGfAVv_XVM2QsdrSsMuULfQS16hvGl7eeGn4ax1Vf3T-FBpGsLbz7QK-jMNcHt_bK8zqgjznyKZibENUnQx1uTqmnDvQZTEOpp9BQ_LVUYn_0000]--></g></svg>