<?xml version="1.0" encoding="us-ascii" standalone="no"?><svg xmlns="http://www.w3.org/2000/svg" xmlns:xlink="http://www.w3.org/1999/xlink" contentStyleType="text/css" height="670px" preserveAspectRatio="none" style="width:527px;height:670px;background:#FFFFFF;" version="1.1" viewBox="0 0 527 670" width="527px" zoomAndPan="magnify"><defs/><g><text fill="#000000" font-family="sans-serif" font-size="14" font-weight="bold" lengthAdjust="spacing" textLength="284" x="123.75" y="30.1074">US025 - System Sequence Diagram (SSD)</text><rect fill="#FFFFFF" height="436.2012" style="stroke:#181818;stroke-width:1.0;" width="10" x="33.5" y="133.2422"/><rect fill="#FFFFFF" height="74.873" style="stroke:#181818;stroke-width:1.0;" width="10" x="331.5" y="156.5332"/><rect fill="#FFFFFF" height="132.582" style="stroke:#181818;stroke-width:1.0;" width="10" x="331.5" y="262.6973"/><rect fill="#FFFFFF" height="142.873" style="stroke:#181818;stroke-width:1.0;" width="10" x="331.5" y="426.5703"/><rect fill="none" height="124.1641" style="stroke:#000000;stroke-width:1.5;" width="414.5" x="10" y="171.5332"/><line style="stroke:#181818;stroke-width:0.5;stroke-dasharray:5.0,5.0;" x1="38" x2="38" y1="123.2422" y2="587.4434"/><line style="stroke:#181818;stroke-width:0.5;stroke-dasharray:5.0,5.0;" x1="336.5" x2="336.5" y1="123.2422" y2="587.4434"/><text fill="#000000" font-family="sans-serif" font-size="14" lengthAdjust="spacing" textLength="31" x="20" y="119.7285">GSM</text><ellipse cx="38.5" cy="53.1211" fill="#E3E3E3" rx="8" ry="8" style="stroke:#181818;stroke-width:0.5;"/><path d="M38.5,61.1211 L38.5,88.1211 M25.5,69.1211 L51.5,69.1211 M38.5,88.1211 L25.5,103.1211 M38.5,88.1211 L51.5,103.1211 " fill="none" style="stroke:#181818;stroke-width:0.5;"/><text fill="#000000" font-family="sans-serif" font-size="14" lengthAdjust="spacing" textLength="31" x="20" y="601.5508">GSM</text><ellipse cx="38.5" cy="613.5645" fill="#E3E3E3" rx="8" ry="8" style="stroke:#181818;stroke-width:0.5;"/><path d="M38.5,621.5645 L38.5,648.5645 M25.5,629.5645 L51.5,629.5645 M38.5,648.5645 L25.5,663.5645 M38.5,648.5645 L51.5,663.5645 " fill="none" style="stroke:#181818;stroke-width:0.5;"/><rect fill="#E3E3E3" height="32.6211" rx="2.5" ry="2.5" style="stroke:#181818;stroke-width:0.5;" width="156" x="258.5" y="89.6211"/><text fill="#000000" font-family="sans-serif" font-size="14" lengthAdjust="spacing" textLength="142" x="265.5" y="111.7285">:CancelEntryAgendaUI</text><rect fill="#E3E3E3" height="32.6211" rx="2.5" ry="2.5" style="stroke:#181818;stroke-width:0.5;" width="156" x="258.5" y="586.4434"/><text fill="#000000" font-family="sans-serif" font-size="14" lengthAdjust="spacing" textLength="142" x="265.5" y="608.5508">:CancelEntryAgendaUI</text><rect fill="#FFFFFF" height="436.2012" style="stroke:#181818;stroke-width:1.0;" width="10" x="33.5" y="133.2422"/><rect fill="#FFFFFF" height="74.873" style="stroke:#181818;stroke-width:1.0;" width="10" x="331.5" y="156.5332"/><rect fill="#FFFFFF" height="132.582" style="stroke:#181818;stroke-width:1.0;" width="10" x="331.5" y="262.6973"/><rect fill="#FFFFFF" height="142.873" style="stroke:#181818;stroke-width:1.0;" width="10" x="331.5" y="426.5703"/><polygon fill="#181818" points="319.5,152.5332,329.5,156.5332,319.5,160.5332,323.5,156.5332" style="stroke:#181818;stroke-width:1.0;"/><line style="stroke:#181818;stroke-width:1.0;" x1="43.5" x2="325.5" y1="156.5332" y2="156.5332"/><text fill="#000000" font-family="sans-serif" font-size="13" font-weight="bold" lengthAdjust="spacing" textLength="7" x="50.5" y="151.2705">1</text><text fill="#000000" font-family="sans-serif" font-size="13" lengthAdjust="spacing" textLength="204" x="61.5" y="151.2705">Asks to cancel an entry on Agenda</text><path d="M10,171.5332 L83,171.5332 L83,180.8242 L73,190.8242 L10,190.8242 L10,171.5332 " fill="#EEEEEE" style="stroke:#000000;stroke-width:1.5;"/><rect fill="none" height="124.1641" style="stroke:#000000;stroke-width:1.5;" width="414.5" x="10" y="171.5332"/><text fill="#000000" font-family="sans-serif" font-size="13" font-weight="bold" lengthAdjust="spacing" textLength="28" x="25" y="186.5615">loop</text><text fill="#000000" font-family="sans-serif" font-size="11" font-weight="bold" lengthAdjust="spacing" textLength="189" x="98" y="185.4033">[until doesn't select a valid option]</text><polygon fill="#181818" points="54.5,227.4063,44.5,231.4063,54.5,235.4063,50.5,231.4063" style="stroke:#181818;stroke-width:1.0;"/><line style="stroke:#181818;stroke-width:1.0;stroke-dasharray:2.0,2.0;" x1="48.5" x2="335.5" y1="231.4063" y2="231.4063"/><text fill="#000000" font-family="sans-serif" font-size="13" font-weight="bold" lengthAdjust="spacing" textLength="7" x="60.5" y="217.498">2</text><text fill="#000000" font-family="sans-serif" font-size="13" lengthAdjust="spacing" textLength="253" x="71.5" y="208.8525">Shows the tasks of the Agenda and asks to</text><text fill="#000000" font-family="sans-serif" font-size="13" lengthAdjust="spacing" textLength="175" x="71.5" y="226.1436">select the task to be canceled</text><polygon fill="#181818" points="319.5,258.6973,329.5,262.6973,319.5,266.6973,323.5,262.6973" style="stroke:#181818;stroke-width:1.0;"/><line style="stroke:#181818;stroke-width:1.0;" x1="43.5" x2="325.5" y1="262.6973" y2="262.6973"/><text fill="#000000" font-family="sans-serif" font-size="13" font-weight="bold" lengthAdjust="spacing" textLength="7" x="50.5" y="257.4346">3</text><text fill="#000000" font-family="sans-serif" font-size="13" lengthAdjust="spacing" textLength="84" x="61.5" y="257.4346">Selects a task</text><line style="stroke:#181818;stroke-width:1.0;stroke-dasharray:2.0,2.0;" x1="341.5" x2="383.5" y1="325.9883" y2="325.9883"/><line style="stroke:#181818;stroke-width:1.0;stroke-dasharray:2.0,2.0;" x1="383.5" x2="383.5" y1="325.9883" y2="338.9883"/><line style="stroke:#181818;stroke-width:1.0;stroke-dasharray:2.0,2.0;" x1="342.5" x2="383.5" y1="338.9883" y2="338.9883"/><polygon fill="#181818" points="352.5,334.9883,342.5,338.9883,352.5,342.9883,348.5,338.9883" style="stroke:#181818;stroke-width:1.0;"/><text fill="#000000" font-family="sans-serif" font-size="13" font-weight="bold" lengthAdjust="spacing" textLength="7" x="348.5" y="320.7256">4</text><text fill="#000000" font-family="sans-serif" font-size="13" lengthAdjust="spacing" textLength="88" x="359.5" y="320.7256">keepData(task)</text><polygon fill="#181818" points="54.5,391.2793,44.5,395.2793,54.5,399.2793,50.5,395.2793" style="stroke:#181818;stroke-width:1.0;"/><line style="stroke:#181818;stroke-width:1.0;stroke-dasharray:2.0,2.0;" x1="48.5" x2="335.5" y1="395.2793" y2="395.2793"/><text fill="#000000" font-family="sans-serif" font-size="13" font-weight="bold" lengthAdjust="spacing" textLength="7" x="60.5" y="390.0166">5</text><text fill="#000000" font-family="sans-serif" font-size="13" lengthAdjust="spacing" textLength="238" x="71.5" y="390.0166">Shows all data and requests confirmation</text><polygon fill="#181818" points="319.5,422.5703,329.5,426.5703,319.5,430.5703,323.5,426.5703" style="stroke:#181818;stroke-width:1.0;"/><line style="stroke:#181818;stroke-width:1.0;" x1="43.5" x2="325.5" y1="426.5703" y2="426.5703"/><text fill="#000000" font-family="sans-serif" font-size="13" font-weight="bold" lengthAdjust="spacing" textLength="7" x="50.5" y="421.3076">6</text><text fill="#000000" font-family="sans-serif" font-size="13" lengthAdjust="spacing" textLength="80" x="61.5" y="421.3076">Confirms data</text><line style="stroke:#181818;stroke-width:1.0;stroke-dasharray:2.0,2.0;" x1="341.5" x2="383.5" y1="500.1523" y2="500.1523"/><line style="stroke:#181818;stroke-width:1.0;stroke-dasharray:2.0,2.0;" x1="383.5" x2="383.5" y1="500.1523" y2="513.1523"/><line style="stroke:#181818;stroke-width:1.0;stroke-dasharray:2.0,2.0;" x1="342.5" x2="383.5" y1="513.1523" y2="513.1523"/><polygon fill="#181818" points="352.5,509.1523,342.5,513.1523,352.5,517.1523,348.5,513.1523" style="stroke:#181818;stroke-width:1.0;"/><text fill="#000000" font-family="sans-serif" font-size="13" font-weight="bold" lengthAdjust="spacing" textLength="7" x="348.5" y="486.2441">7</text><text fill="#000000" font-family="sans-serif" font-size="13" lengthAdjust="spacing" textLength="116" x="359.5" y="477.5986">set the status of the</text><text fill="#000000" font-family="sans-serif" font-size="13" lengthAdjust="spacing" textLength="161" x="359.5" y="494.8896">selected task to "Canceled"</text><polygon fill="#181818" points="49.5,565.4434,39.5,569.4434,49.5,573.4434,45.5,569.4434" style="stroke:#181818;stroke-width:1.0;"/><line style="stroke:#181818;stroke-width:1.0;stroke-dasharray:2.0,2.0;" x1="43.5" x2="335.5" y1="569.4434" y2="569.4434"/><text fill="#000000" font-family="sans-serif" font-size="13" font-weight="bold" lengthAdjust="spacing" textLength="7" x="55.5" y="564.1807">8</text><text fill="#000000" font-family="sans-serif" font-size="13" lengthAdjust="spacing" textLength="153" x="66.5" y="564.1807">Display operation success</text><!--SRC=[ZP8_JyCm4CLtVufJ5c2eX91OEY2X5Y469giRo-5SKwkE7NmNKAL-U2vE6vL_5LxYn7U_U-_5lFMnmumjj2acjycf9P3Sa-7ff4EtnOQix0919YSOct1Qm1kiquUF3QmnC1aZNhHqPQzlRc46TiT2BLXwwoawWgN7PcYxj7PvPGpsacBVlbBMlPEKeNgqpnKWWpwDZX3lV8THe9elK0dX8KhUtJSKQrmzbShLaodT_Xs5Ify1NRg1sPsUmXpkUSiW2Ln104QW0GCfmeWQMoQ88k6mGaeTz55yW3eHnmi1fg190C8x1bz3wiIdE3Nem9dE7SRFmMxIXqxUQB0uQ4ZhyZ8ELHqru2Zj9Hwenzf1xYiT55DTy3MTAlpXqXO2gx01yAUZ_Nu_xLM6-QwyiBP4tH85BmVKrPVUSqunQ4pQLgpbuQ-p2d8fhdrkSShfd94vBCPoBYJpBn-dqfd655bG-cFantofdjAj5eTigtF8qTtISnTGBqn7kTW0xfqZPcD-CrJMoRToAJy1]--></g></svg>