<?xml version="1.0" encoding="us-ascii" standalone="no"?><svg xmlns="http://www.w3.org/2000/svg" xmlns:xlink="http://www.w3.org/1999/xlink" contentStyleType="text/css" height="775.2px" preserveAspectRatio="none" style="width:654px;height:775px;background:#FFFFFF;" version="1.1" viewBox="0 0 654 775" width="654.4px" zoomAndPan="magnify"><defs/><g><text fill="#000000" font-family="sans-serif" font-size="11.2" font-weight="bold" lengthAdjust="spacing" textLength="227.2" x="214.8" y="24.0859">US023 - System Sequence Diagram (SSD)</text><rect fill="#FFFFFF" height="565.325" style="stroke:#181818;stroke-width:0.8000000000000002;" width="8" x="48" y="121.4906"/><rect fill="#FFFFFF" height="59.8984" style="stroke:#181818;stroke-width:0.8000000000000002;" width="8" x="292.8" y="140.1234"/><rect fill="#FFFFFF" height="121.4984" style="stroke:#181818;stroke-width:0.8000000000000002;" width="8" x="292.8" y="225.0547"/><rect fill="#FFFFFF" height="155.8984" style="stroke:#181818;stroke-width:0.8000000000000002;" width="8" x="292.8" y="523.7172"/><rect fill="#FFFFFF" height="66.0656" style="stroke:#181818;stroke-width:0.8000000000000002;" width="8" x="504" y="346.5531"/><rect fill="#FFFFFF" height="86.0656" style="stroke:#181818;stroke-width:0.8000000000000002;" width="8" x="504" y="437.6516"/><rect fill="none" height="134.7641" style="stroke:#000000;stroke-width:1.2000000000000002;" width="430.4" x="8" y="152.1234"/><rect fill="none" height="100.9313" style="stroke:#000000;stroke-width:1.2000000000000002;" width="641.6" x="8" y="378.5531"/><line style="stroke:#181818;stroke-width:0.4000000000000001;stroke-dasharray:5.0,5.0;" x1="52" x2="52" y1="113.4906" y2="694.0156"/><line style="stroke:#181818;stroke-width:0.4000000000000001;stroke-dasharray:5.0,5.0;" x1="296.4" x2="296.4" y1="113.4906" y2="694.0156"/><line style="stroke:#181818;stroke-width:0.4000000000000001;stroke-dasharray:5.0,5.0;" x1="508" x2="508" y1="113.4906" y2="694.0156"/><text fill="#000000" font-family="sans-serif" font-size="11.2" lengthAdjust="spacing" textLength="67.2" x="16" y="95.7828">Green Space</text><text fill="#000000" font-family="sans-serif" font-size="11.2" lengthAdjust="spacing" textLength="44.8" x="27.2" y="110.6797">Manager</text><ellipse cx="52" cy="42.4969" fill="#E3E3E3" rx="6.4" ry="6.4" style="stroke:#181818;stroke-width:0.4000000000000001;"/><path d="M52,48.8969 L52,70.4969 M41.6,55.2969 L62.4,55.2969 M52,70.4969 L41.6,82.4969 M52,70.4969 L62.4,82.4969 " fill="none" style="stroke:#181818;stroke-width:0.4000000000000001;"/><text fill="#000000" font-family="sans-serif" font-size="11.2" lengthAdjust="spacing" textLength="67.2" x="16" y="705.3016">Green Space</text><text fill="#000000" font-family="sans-serif" font-size="11.2" lengthAdjust="spacing" textLength="44.8" x="27.2" y="720.1984">Manager</text><ellipse cx="52" cy="729.8094" fill="#E3E3E3" rx="6.4" ry="6.4" style="stroke:#181818;stroke-width:0.4000000000000001;"/><path d="M52,736.2094 L52,757.8094 M41.6,742.6094 L62.4,742.6094 M52,757.8094 L41.6,769.8094 M52,757.8094 L62.4,769.8094 " fill="none" style="stroke:#181818;stroke-width:0.4000000000000001;"/><rect fill="#E3E3E3" height="26.0969" rx="2" ry="2" style="stroke:#181818;stroke-width:0.4000000000000001;" width="63.2" x="265.2" y="86.5938"/><text fill="#000000" font-family="sans-serif" font-size="11.2" lengthAdjust="spacing" textLength="52" x="270.8" y="104.2797">:AgendaUI</text><rect fill="#E3E3E3" height="26.0969" rx="2" ry="2" style="stroke:#181818;stroke-width:0.4000000000000001;" width="63.2" x="265.2" y="693.2156"/><text fill="#000000" font-family="sans-serif" font-size="11.2" lengthAdjust="spacing" textLength="52" x="270.8" y="710.9016">:AgendaUI</text><rect fill="#E3E3E3" height="26.0969" rx="2" ry="2" style="stroke:#181818;stroke-width:0.4000000000000001;" width="116.8" x="449.6" y="86.5938"/><text fill="#000000" font-family="sans-serif" font-size="11.2" lengthAdjust="spacing" textLength="105.6" x="455.2" y="104.2797">:SelectTeamPopupUI</text><rect fill="#E3E3E3" height="26.0969" rx="2" ry="2" style="stroke:#181818;stroke-width:0.4000000000000001;" width="116.8" x="449.6" y="693.2156"/><text fill="#000000" font-family="sans-serif" font-size="11.2" lengthAdjust="spacing" textLength="105.6" x="455.2" y="710.9016">:SelectTeamPopupUI</text><rect fill="#FFFFFF" height="565.325" style="stroke:#181818;stroke-width:0.8000000000000002;" width="8" x="48" y="121.4906"/><rect fill="#FFFFFF" height="59.8984" style="stroke:#181818;stroke-width:0.8000000000000002;" width="8" x="292.8" y="140.1234"/><rect fill="#FFFFFF" height="121.4984" style="stroke:#181818;stroke-width:0.8000000000000002;" width="8" x="292.8" y="225.0547"/><rect fill="#FFFFFF" height="155.8984" style="stroke:#181818;stroke-width:0.8000000000000002;" width="8" x="292.8" y="523.7172"/><rect fill="#FFFFFF" height="66.0656" style="stroke:#181818;stroke-width:0.8000000000000002;" width="8" x="504" y="346.5531"/><rect fill="#FFFFFF" height="86.0656" style="stroke:#181818;stroke-width:0.8000000000000002;" width="8" x="504" y="437.6516"/><polygon fill="#181818" points="283.2,136.9234,291.2,140.1234,283.2,143.3234,286.4,140.1234" style="stroke:#181818;stroke-width:0.8000000000000002;"/><line style="stroke:#181818;stroke-width:0.8000000000000002;" x1="56" x2="288" y1="140.1234" y2="140.1234"/><text fill="#000000" font-family="sans-serif" font-size="10.4" font-weight="bold" lengthAdjust="spacing" textLength="5.6" x="61.6" y="135.9133">1</text><text fill="#000000" font-family="sans-serif" font-size="10.4" lengthAdjust="spacing" textLength="212.8" x="70.4" y="135.9133">asks to assign team to an entry in the agenda</text><path d="M8,152.1234 L66.4,152.1234 L66.4,159.5563 L58.4,167.5563 L8,167.5563 L8,152.1234 " fill="#EEEEEE" style="stroke:#000000;stroke-width:1.2000000000000002;"/><rect fill="none" height="134.7641" style="stroke:#000000;stroke-width:1.2000000000000002;" width="430.4" x="8" y="152.1234"/><text fill="#000000" font-family="sans-serif" font-size="10.4" font-weight="bold" lengthAdjust="spacing" textLength="22.4" x="20" y="164.1461">loop</text><text fill="#000000" font-family="sans-serif" font-size="8.8" font-weight="bold" lengthAdjust="spacing" textLength="151.2" x="78.4" y="163.2195">[until doesn't select a valid option]</text><polygon fill="#181818" points="64.8,196.8219,56.8,200.0219,64.8,203.2219,61.6,200.0219" style="stroke:#181818;stroke-width:0.8000000000000002;"/><line style="stroke:#181818;stroke-width:0.8000000000000002;stroke-dasharray:2.0,2.0;" x1="60" x2="296" y1="200.0219" y2="200.0219"/><text fill="#000000" font-family="sans-serif" font-size="10.4" font-weight="bold" lengthAdjust="spacing" textLength="5.6" x="69.6" y="188.8953">2</text><text fill="#000000" font-family="sans-serif" font-size="10.4" lengthAdjust="spacing" textLength="189.6" x="78.4" y="181.9789">shows the list of tasks in the agenda and</text><text fill="#000000" font-family="sans-serif" font-size="10.4" lengthAdjust="spacing" textLength="85.6" x="78.4" y="195.8117">asks to select one</text><polygon fill="#181818" points="283.2,221.8547,291.2,225.0547,283.2,228.2547,286.4,225.0547" style="stroke:#181818;stroke-width:0.8000000000000002;"/><line style="stroke:#181818;stroke-width:0.8000000000000002;" x1="56" x2="288" y1="225.0547" y2="225.0547"/><text fill="#000000" font-family="sans-serif" font-size="10.4" font-weight="bold" lengthAdjust="spacing" textLength="5.6" x="61.6" y="220.8445">3</text><text fill="#000000" font-family="sans-serif" font-size="10.4" lengthAdjust="spacing" textLength="65.6" x="70.4" y="220.8445">selects a task</text><line style="stroke:#181818;stroke-width:0.8000000000000002;stroke-dasharray:2.0,2.0;" x1="300.8" x2="334.4" y1="250.0875" y2="250.0875"/><line style="stroke:#181818;stroke-width:0.8000000000000002;stroke-dasharray:2.0,2.0;" x1="334.4" x2="334.4" y1="250.0875" y2="260.4875"/><line style="stroke:#181818;stroke-width:0.8000000000000002;stroke-dasharray:2.0,2.0;" x1="301.6" x2="334.4" y1="260.4875" y2="260.4875"/><polygon fill="#181818" points="309.6,257.2875,301.6,260.4875,309.6,263.6875,306.4,260.4875" style="stroke:#181818;stroke-width:0.8000000000000002;"/><text fill="#000000" font-family="sans-serif" font-size="10.4" font-weight="bold" lengthAdjust="spacing" textLength="5.6" x="306.4" y="245.8773">4</text><text fill="#000000" font-family="sans-serif" font-size="10.4" lengthAdjust="spacing" textLength="113.6" x="315.2" y="245.8773">validates selected option</text><line style="stroke:#181818;stroke-width:0.8000000000000002;stroke-dasharray:2.0,2.0;" x1="300.8" x2="334.4" y1="311.1203" y2="311.1203"/><line style="stroke:#181818;stroke-width:0.8000000000000002;stroke-dasharray:2.0,2.0;" x1="334.4" x2="334.4" y1="311.1203" y2="321.5203"/><line style="stroke:#181818;stroke-width:0.8000000000000002;stroke-dasharray:2.0,2.0;" x1="301.6" x2="334.4" y1="321.5203" y2="321.5203"/><polygon fill="#181818" points="309.6,318.3203,301.6,321.5203,309.6,324.7203,306.4,321.5203" style="stroke:#181818;stroke-width:0.8000000000000002;"/><text fill="#000000" font-family="sans-serif" font-size="10.4" font-weight="bold" lengthAdjust="spacing" textLength="5.6" x="306.4" y="306.9102">5</text><text fill="#000000" font-family="sans-serif" font-size="10.4" lengthAdjust="spacing" textLength="70.4" x="315.2" y="306.9102">keepData(task)</text><polygon fill="#181818" points="494.4,343.3531,502.4,346.5531,494.4,349.7531,497.6,346.5531" style="stroke:#181818;stroke-width:0.8000000000000002;"/><line style="stroke:#181818;stroke-width:0.8000000000000002;" x1="296.8" x2="499.2" y1="346.5531" y2="346.5531"/><text fill="#000000" font-family="sans-serif" font-size="10.4" font-weight="bold" lengthAdjust="spacing" textLength="5.6" x="302.4" y="342.343">6</text><text fill="#000000" font-family="sans-serif" font-size="10.4" lengthAdjust="spacing" textLength="179.2" x="311.2" y="342.343">Shows the popup with the list of teams</text><path d="M8,378.5531 L66.4,378.5531 L66.4,385.9859 L58.4,393.9859 L8,393.9859 L8,378.5531 " fill="#EEEEEE" style="stroke:#000000;stroke-width:1.2000000000000002;"/><rect fill="none" height="100.9313" style="stroke:#000000;stroke-width:1.2000000000000002;" width="641.6" x="8" y="378.5531"/><text fill="#000000" font-family="sans-serif" font-size="10.4" font-weight="bold" lengthAdjust="spacing" textLength="22.4" x="20" y="390.5758">loop</text><text fill="#000000" font-family="sans-serif" font-size="8.8" font-weight="bold" lengthAdjust="spacing" textLength="151.2" x="78.4" y="389.6492">[until doesn't select a valid option]</text><polygon fill="#181818" points="64.8,409.4188,56.8,412.6188,64.8,415.8188,61.6,412.6188" style="stroke:#181818;stroke-width:0.8000000000000002;"/><line style="stroke:#181818;stroke-width:0.8000000000000002;stroke-dasharray:2.0,2.0;" x1="60" x2="507.2" y1="412.6188" y2="412.6188"/><text fill="#000000" font-family="sans-serif" font-size="10.4" font-weight="bold" lengthAdjust="spacing" textLength="5.6" x="69.6" y="408.4086">7</text><text fill="#000000" font-family="sans-serif" font-size="10.4" lengthAdjust="spacing" textLength="217.6" x="78.4" y="408.4086">Shows the list of teams and asks to select one</text><polygon fill="#181818" points="494.4,434.4516,502.4,437.6516,494.4,440.8516,497.6,437.6516" style="stroke:#181818;stroke-width:0.8000000000000002;"/><line style="stroke:#181818;stroke-width:0.8000000000000002;" x1="56" x2="499.2" y1="437.6516" y2="437.6516"/><text fill="#000000" font-family="sans-serif" font-size="10.4" font-weight="bold" lengthAdjust="spacing" textLength="5.6" x="61.6" y="433.4414">8</text><text fill="#000000" font-family="sans-serif" font-size="10.4" lengthAdjust="spacing" textLength="68.8" x="70.4" y="433.4414">selects a team</text><line style="stroke:#181818;stroke-width:0.8000000000000002;stroke-dasharray:2.0,2.0;" x1="512" x2="545.6" y1="462.6844" y2="462.6844"/><line style="stroke:#181818;stroke-width:0.8000000000000002;stroke-dasharray:2.0,2.0;" x1="545.6" x2="545.6" y1="462.6844" y2="473.0844"/><line style="stroke:#181818;stroke-width:0.8000000000000002;stroke-dasharray:2.0,2.0;" x1="512.8" x2="545.6" y1="473.0844" y2="473.0844"/><polygon fill="#181818" points="520.8,469.8844,512.8,473.0844,520.8,476.2844,517.6,473.0844" style="stroke:#181818;stroke-width:0.8000000000000002;"/><text fill="#000000" font-family="sans-serif" font-size="10.4" font-weight="bold" lengthAdjust="spacing" textLength="5.6" x="517.6" y="458.4742">9</text><text fill="#000000" font-family="sans-serif" font-size="10.4" lengthAdjust="spacing" textLength="113.6" x="526.4" y="458.4742">validates selected option</text><polygon fill="#181818" points="309.6,520.5172,301.6,523.7172,309.6,526.9172,306.4,523.7172" style="stroke:#181818;stroke-width:0.8000000000000002;"/><line style="stroke:#181818;stroke-width:0.8000000000000002;stroke-dasharray:2.0,2.0;" x1="304.8" x2="507.2" y1="523.7172" y2="523.7172"/><text fill="#000000" font-family="sans-serif" font-size="10.4" font-weight="bold" lengthAdjust="spacing" textLength="11.2" x="314.4" y="519.507">10</text><text fill="#000000" font-family="sans-serif" font-size="10.4" lengthAdjust="spacing" textLength="148.8" x="328.8" y="519.507">Sends selected team to Main UI</text><line style="stroke:#181818;stroke-width:0.8000000000000002;stroke-dasharray:2.0,2.0;" x1="300.8" x2="334.4" y1="568.75" y2="568.75"/><line style="stroke:#181818;stroke-width:0.8000000000000002;stroke-dasharray:2.0,2.0;" x1="334.4" x2="334.4" y1="568.75" y2="579.15"/><line style="stroke:#181818;stroke-width:0.8000000000000002;stroke-dasharray:2.0,2.0;" x1="301.6" x2="334.4" y1="579.15" y2="579.15"/><polygon fill="#181818" points="309.6,575.95,301.6,579.15,309.6,582.35,306.4,579.15" style="stroke:#181818;stroke-width:0.8000000000000002;"/><text fill="#000000" font-family="sans-serif" font-size="10.4" font-weight="bold" lengthAdjust="spacing" textLength="11.2" x="306.4" y="564.5398">11</text><text fill="#000000" font-family="sans-serif" font-size="10.4" lengthAdjust="spacing" textLength="115.2" x="320.8" y="564.5398">keepData(selectedTeam)</text><line style="stroke:#181818;stroke-width:0.8000000000000002;" x1="300.8" x2="334.4" y1="624.1828" y2="624.1828"/><line style="stroke:#181818;stroke-width:0.8000000000000002;" x1="334.4" x2="334.4" y1="624.1828" y2="634.5828"/><line style="stroke:#181818;stroke-width:0.8000000000000002;" x1="301.6" x2="334.4" y1="634.5828" y2="634.5828"/><polygon fill="#181818" points="309.6,631.3828,301.6,634.5828,309.6,637.7828,306.4,634.5828" style="stroke:#181818;stroke-width:0.8000000000000002;"/><text fill="#000000" font-family="sans-serif" font-size="10.4" font-weight="bold" lengthAdjust="spacing" textLength="11.2" x="306.4" y="619.9727">12</text><text fill="#000000" font-family="sans-serif" font-size="10.4" lengthAdjust="spacing" textLength="175.2" x="320.8" y="619.9727">assigns the team to the selected task</text><polygon fill="#181818" points="64.8,676.4156,56.8,679.6156,64.8,682.8156,61.6,679.6156" style="stroke:#181818;stroke-width:0.8000000000000002;"/><line style="stroke:#181818;stroke-width:0.8000000000000002;stroke-dasharray:2.0,2.0;" x1="60" x2="296" y1="679.6156" y2="679.6156"/><text fill="#000000" font-family="sans-serif" font-size="10.4" font-weight="bold" lengthAdjust="spacing" textLength="11.2" x="69.6" y="675.4055">13</text><text fill="#000000" font-family="sans-serif" font-size="10.4" lengthAdjust="spacing" textLength="117.6" x="84" y="675.4055">shows operation success</text><!--SRC=[bLDDYzim4BthLmovT7C8bFQMmq8XiEGG6b1psylKddL4R4cLnXi2-V4ToLznqYsi3xQbUJFlpTCedepr6B21nbbN78Dh23YqfE8OyLYSi2BDbveWKC5eg_eM48zOkhEn5RnX7KafDYpGW_xwxJkiG5yYKmEQ_hHa2uADmIgbFMczMIg5BJlRDhyfA5aKx08iNWAH1ItCz6ftQ8K-B00ZlEYT4b8sXV5e6HRh7nNP4W_R73vixwAQQX7yYx3PEz_w7hR_kJ_iCvbvHwPSLSaBLizIOYsGKmHsyescii2IdfSMo7AuW96z8m5cwgcCi2kGftREGslPr50wYlOBGymw0E4TQrE2ysoSxT27BQo4L-ZNugGxnroxDf71lG5dBJD2qL6-sa5ZNzbPKYNDf8mDmRf7HH6G2iuaz_mPbjN9VkmJQ9HwlLwLaEVUPhfpted8Rv3nALLVJl7dpcf1wB4pdmu2peQFyqR5v9WJvssadN7T7LpQIde-vNK2Ts96j_MZsqb4yXV-Rsy_GBt3Guyt9aiTTOUUo0VynswFJgSsfyJijPRWJSOmd3kK8H6_7bJUcpauzy_p6ygc6xDyWFVexbfqpWtqwN_Ib6PiIFveofsdWAbRY6rHK8nty_iN]--></g></svg>