<?xml version="1.0" encoding="us-ascii" standalone="no"?><svg xmlns="http://www.w3.org/2000/svg" xmlns:xlink="http://www.w3.org/1999/xlink" contentStyleType="text/css" height="681px" preserveAspectRatio="none" style="width:601px;height:681px;background:#FFFFFF;" version="1.1" viewBox="0 0 601 681" width="601px" zoomAndPan="magnify"><defs/><g><text fill="#000000" font-family="sans-serif" font-size="14" font-weight="bold" lengthAdjust="spacing" textLength="351" x="127" y="30.1074">System Sequence Diagram (SSD) - Alternative One</text><rect fill="#FFFFFF" height="48.582" style="stroke:#181818;stroke-width:1.0;" width="10" x="393" y="175.1543"/><rect fill="#FFFFFF" height="75.582" style="stroke:#181818;stroke-width:1.0;" width="10" x="393" y="255.0273"/><rect fill="#FFFFFF" height="92.873" style="stroke:#181818;stroke-width:1.0;" width="10" x="393" y="361.9004"/><rect fill="#FFFFFF" height="75.582" style="stroke:#181818;stroke-width:1.0;" width="10" x="393" y="486.0645"/><line style="stroke:#181818;stroke-width:0.5;stroke-dasharray:5.0,5.0;" x1="50" x2="50" y1="141.8633" y2="579.6465"/><line style="stroke:#181818;stroke-width:0.5;stroke-dasharray:5.0,5.0;" x1="398" x2="398" y1="141.8633" y2="579.6465"/><text fill="#000000" font-family="sans-serif" font-size="14" lengthAdjust="spacing" textLength="84" x="5" y="119.7285">Green Space</text><text fill="#000000" font-family="sans-serif" font-size="14" lengthAdjust="spacing" textLength="56" x="19" y="138.3496">Manager</text><ellipse cx="50" cy="53.1211" fill="#E3E3E3" rx="8" ry="8" style="stroke:#181818;stroke-width:0.5;"/><path d="M50,61.1211 L50,88.1211 M37,69.1211 L63,69.1211 M50,88.1211 L37,103.1211 M50,88.1211 L63,103.1211 " fill="none" style="stroke:#181818;stroke-width:0.5;"/><text fill="#000000" font-family="sans-serif" font-size="14" lengthAdjust="spacing" textLength="84" x="5" y="593.7539">Green Space</text><text fill="#000000" font-family="sans-serif" font-size="14" lengthAdjust="spacing" textLength="56" x="19" y="612.375">Manager</text><ellipse cx="50" cy="624.3887" fill="#E3E3E3" rx="8" ry="8" style="stroke:#181818;stroke-width:0.5;"/><path d="M50,632.3887 L50,659.3887 M37,640.3887 L63,640.3887 M50,659.3887 L37,674.3887 M50,659.3887 L63,674.3887 " fill="none" style="stroke:#181818;stroke-width:0.5;"/><rect fill="#E3E3E3" height="32.6211" rx="2.5" ry="2.5" style="stroke:#181818;stroke-width:0.5;" width="156" x="320" y="108.2422"/><text fill="#000000" font-family="sans-serif" font-size="14" lengthAdjust="spacing" textLength="142" x="327" y="130.3496">:AssignTeamToTaskUI</text><rect fill="#E3E3E3" height="32.6211" rx="2.5" ry="2.5" style="stroke:#181818;stroke-width:0.5;" width="156" x="320" y="578.6465"/><text fill="#000000" font-family="sans-serif" font-size="14" lengthAdjust="spacing" textLength="142" x="327" y="600.7539">:AssignTeamToTaskUI</text><rect fill="#FFFFFF" height="48.582" style="stroke:#181818;stroke-width:1.0;" width="10" x="393" y="175.1543"/><rect fill="#FFFFFF" height="75.582" style="stroke:#181818;stroke-width:1.0;" width="10" x="393" y="255.0273"/><rect fill="#FFFFFF" height="92.873" style="stroke:#181818;stroke-width:1.0;" width="10" x="393" y="361.9004"/><rect fill="#FFFFFF" height="75.582" style="stroke:#181818;stroke-width:1.0;" width="10" x="393" y="486.0645"/><polygon fill="#181818" points="381,171.1543,391,175.1543,381,179.1543,385,175.1543" style="stroke:#181818;stroke-width:1.0;"/><line style="stroke:#181818;stroke-width:1.0;" x1="50" x2="387" y1="175.1543" y2="175.1543"/><text fill="#000000" font-family="sans-serif" font-size="13" font-weight="bold" lengthAdjust="spacing" textLength="7" x="57" y="169.8916">1</text><text fill="#000000" font-family="sans-serif" font-size="13" lengthAdjust="spacing" textLength="266" x="68" y="169.8916">asks to assign team to an entry in the agenda</text><polygon fill="#181818" points="61,219.7363,51,223.7363,61,227.7363,57,223.7363" style="stroke:#181818;stroke-width:1.0;"/><line style="stroke:#181818;stroke-width:1.0;stroke-dasharray:2.0,2.0;" x1="55" x2="397" y1="223.7363" y2="223.7363"/><text fill="#000000" font-family="sans-serif" font-size="13" font-weight="bold" lengthAdjust="spacing" textLength="7" x="67" y="209.8281">2</text><text fill="#000000" font-family="sans-serif" font-size="13" lengthAdjust="spacing" textLength="230" x="78" y="201.1826">shows the list of taks in the agenda and</text><text fill="#000000" font-family="sans-serif" font-size="13" lengthAdjust="spacing" textLength="107" x="78" y="218.4736">asks to select one</text><polygon fill="#181818" points="381,251.0273,391,255.0273,381,259.0273,385,255.0273" style="stroke:#181818;stroke-width:1.0;"/><line style="stroke:#181818;stroke-width:1.0;" x1="50" x2="387" y1="255.0273" y2="255.0273"/><text fill="#000000" font-family="sans-serif" font-size="13" font-weight="bold" lengthAdjust="spacing" textLength="7" x="57" y="249.7646">3</text><text fill="#000000" font-family="sans-serif" font-size="13" lengthAdjust="spacing" textLength="82" x="68" y="249.7646">selects a task</text><line style="stroke:#181818;stroke-width:1.0;stroke-dasharray:2.0,2.0;" x1="403" x2="445" y1="286.3184" y2="286.3184"/><line style="stroke:#181818;stroke-width:1.0;stroke-dasharray:2.0,2.0;" x1="445" x2="445" y1="286.3184" y2="299.3184"/><line style="stroke:#181818;stroke-width:1.0;stroke-dasharray:2.0,2.0;" x1="404" x2="445" y1="299.3184" y2="299.3184"/><polygon fill="#181818" points="414,295.3184,404,299.3184,414,303.3184,410,299.3184" style="stroke:#181818;stroke-width:1.0;"/><text fill="#000000" font-family="sans-serif" font-size="13" font-weight="bold" lengthAdjust="spacing" textLength="7" x="410" y="281.0557">4</text><text fill="#000000" font-family="sans-serif" font-size="13" lengthAdjust="spacing" textLength="88" x="421" y="281.0557">keepData(task)</text><polygon fill="#181818" points="61,326.6094,51,330.6094,61,334.6094,57,330.6094" style="stroke:#181818;stroke-width:1.0;"/><line style="stroke:#181818;stroke-width:1.0;stroke-dasharray:2.0,2.0;" x1="55" x2="397" y1="330.6094" y2="330.6094"/><text fill="#000000" font-family="sans-serif" font-size="13" font-weight="bold" lengthAdjust="spacing" textLength="7" x="67" y="325.3467">5</text><text fill="#000000" font-family="sans-serif" font-size="13" lengthAdjust="spacing" textLength="270" x="78" y="325.3467">shows the list of teams and asks to select one</text><polygon fill="#181818" points="381,357.9004,391,361.9004,381,365.9004,385,361.9004" style="stroke:#181818;stroke-width:1.0;"/><line style="stroke:#181818;stroke-width:1.0;" x1="50" x2="387" y1="361.9004" y2="361.9004"/><text fill="#000000" font-family="sans-serif" font-size="13" font-weight="bold" lengthAdjust="spacing" textLength="7" x="57" y="356.6377">6</text><text fill="#000000" font-family="sans-serif" font-size="13" lengthAdjust="spacing" textLength="86" x="68" y="356.6377">selects a team</text><line style="stroke:#181818;stroke-width:1.0;stroke-dasharray:2.0,2.0;" x1="403" x2="445" y1="393.1914" y2="393.1914"/><line style="stroke:#181818;stroke-width:1.0;stroke-dasharray:2.0,2.0;" x1="445" x2="445" y1="393.1914" y2="406.1914"/><line style="stroke:#181818;stroke-width:1.0;stroke-dasharray:2.0,2.0;" x1="404" x2="445" y1="406.1914" y2="406.1914"/><polygon fill="#181818" points="414,402.1914,404,406.1914,414,410.1914,410,406.1914" style="stroke:#181818;stroke-width:1.0;"/><text fill="#000000" font-family="sans-serif" font-size="13" font-weight="bold" lengthAdjust="spacing" textLength="7" x="410" y="387.9287">7</text><text fill="#000000" font-family="sans-serif" font-size="13" lengthAdjust="spacing" textLength="92" x="421" y="387.9287">keepData(team)</text><polygon fill="#181818" points="61,450.7734,51,454.7734,61,458.7734,57,454.7734" style="stroke:#181818;stroke-width:1.0;"/><line style="stroke:#181818;stroke-width:1.0;stroke-dasharray:2.0,2.0;" x1="55" x2="397" y1="454.7734" y2="454.7734"/><text fill="#000000" font-family="sans-serif" font-size="13" font-weight="bold" lengthAdjust="spacing" textLength="7" x="67" y="440.8652">8</text><text fill="#000000" font-family="sans-serif" font-size="13" lengthAdjust="spacing" textLength="308" x="78" y="432.2197">shows the task and the team about to be assigned to</text><text fill="#000000" font-family="sans-serif" font-size="13" lengthAdjust="spacing" textLength="196" x="78" y="449.5107">that ask and asks for confirmation</text><polygon fill="#181818" points="381,482.0645,391,486.0645,381,490.0645,385,486.0645" style="stroke:#181818;stroke-width:1.0;"/><line style="stroke:#181818;stroke-width:1.0;" x1="50" x2="387" y1="486.0645" y2="486.0645"/><text fill="#000000" font-family="sans-serif" font-size="13" font-weight="bold" lengthAdjust="spacing" textLength="7" x="57" y="480.8018">9</text><text fill="#000000" font-family="sans-serif" font-size="13" lengthAdjust="spacing" textLength="106" x="68" y="480.8018">confirms operation</text><line style="stroke:#181818;stroke-width:1.0;stroke-dasharray:2.0,2.0;" x1="403" x2="445" y1="517.3555" y2="517.3555"/><line style="stroke:#181818;stroke-width:1.0;stroke-dasharray:2.0,2.0;" x1="445" x2="445" y1="517.3555" y2="530.3555"/><line style="stroke:#181818;stroke-width:1.0;stroke-dasharray:2.0,2.0;" x1="404" x2="445" y1="530.3555" y2="530.3555"/><polygon fill="#181818" points="414,526.3555,404,530.3555,414,534.3555,410,530.3555" style="stroke:#181818;stroke-width:1.0;"/><text fill="#000000" font-family="sans-serif" font-size="13" font-weight="bold" lengthAdjust="spacing" textLength="14" x="410" y="512.0928">10</text><text fill="#000000" font-family="sans-serif" font-size="13" lengthAdjust="spacing" textLength="166" x="428" y="512.0928">assigns the team to the task</text><polygon fill="#181818" points="61,557.6465,51,561.6465,61,565.6465,57,561.6465" style="stroke:#181818;stroke-width:1.0;"/><line style="stroke:#181818;stroke-width:1.0;stroke-dasharray:2.0,2.0;" x1="55" x2="397" y1="561.6465" y2="561.6465"/><text fill="#000000" font-family="sans-serif" font-size="13" font-weight="bold" lengthAdjust="spacing" textLength="14" x="67" y="556.3838">11</text><text fill="#000000" font-family="sans-serif" font-size="13" lengthAdjust="spacing" textLength="147" x="85" y="556.3838">shows operation success</text><!--SRC=[dP8zRy9038Rt_0gB2GR-G8PAI4Y8eUeGs5ZCuOHJ4bzwTa3y-_h2Hm69gcsMtCUJruzp9xNd3YEsq0OERXz3Iw2nfqnkEnsw6YigzDGGH7AAN3NtWEnn5uwUAoYn4SeozMfeSHAb5Whwx8aTmTnZbV1nKSmdC8LPenGPrHy8FjW-mru3z-sMeesTXWYZHIHYA4o1DloER1vn12YmADupgwxU-GvPOPJFH7p5Ay9s5LOezNevWEjbbXaCqpSRvhPI2sYmTw913H-c3CGQJ-1jRKzWTNY7oS8VK6b80NlMIvXQaWNcrdOuoa0tNXH22OeM_f1WmRiDNuiADVRx85YpEth8lXb2Vg44qFAaVd182lSU0ryJTNDK72TyyXjDQrgI6VnRp1B-8cRuJs99VF0P9kb8S1jwJMPRkXmLsMxOiEvHuOeF-gNT4nUuzB6rknJuPGVv5HC87SKp_Dp4lV-vi7nRcSzLzqKtjs2GtZaIURBv0W00]--></g></svg>