<?xml version="1.0" encoding="us-ascii" standalone="no"?><svg xmlns="http://www.w3.org/2000/svg" xmlns:xlink="http://www.w3.org/1999/xlink" contentStyleType="text/css" height="1429.2px" preserveAspectRatio="none" style="width:2013px;height:1429px;background:#FFFFFF;" version="1.1" viewBox="0 0 2013 1429" width="2013.3px" zoomAndPan="magnify"><defs/><g><text fill="#000000" font-family="sans-serif" font-size="12.6" font-weight="bold" lengthAdjust="spacing" textLength="203.4" x="906.3" y="27.0967">SD_managerSpecificAgendaDTO</text><rect fill="#FFFFFF" height="1300.4139" style="stroke:#181818;stroke-width:0.9;" width="9" x="35.55" y="79.418"/><rect fill="#FFFFFF" height="1279.452" style="stroke:#181818;stroke-width:0.9;" width="9" x="247.05" y="100.3799"/><rect fill="#FFFFFF" height="159.7447" style="stroke:#181818;stroke-width:0.9;" width="9" x="550.35" y="380.8811"/><rect fill="#FFFFFF" height="89.9209" style="stroke:#181818;stroke-width:0.9;" width="9" x="855.45" y="591.2877"/><rect fill="#FFFFFF" height="182.2447" style="stroke:#181818;stroke-width:0.9;" width="9" x="1212.75" y="856.524"/><rect fill="#FFFFFF" height="87.4477" style="stroke:#181818;stroke-width:0.9;" width="9" x="1476" y="1173.0604"/><rect fill="none" height="1135.8984" style="stroke:#000000;stroke-width:1.35;" width="1832.4" x="175.5" y="194.1715"/><rect fill="none" height="485.543" style="stroke:#000000;stroke-width:1.35;" width="982.35" x="184.5" y="257.6953"/><rect fill="none" height="118.9828" style="stroke:#000000;stroke-width:1.35;" width="333" x="481.05" y="394.3811"/><rect fill="none" height="305.0982" style="stroke:#000000;stroke-width:1.35;" width="1280.25" x="184.5" y="795.7002"/><rect fill="none" height="141.4828" style="stroke:#000000;stroke-width:1.35;" width="297.9" x="1157.85" y="870.024"/><line style="stroke:#181818;stroke-width:0.45;stroke-dasharray:5.0,5.0;" x1="39.6" x2="39.6" y1="70.418" y2="1396.0318"/><line style="stroke:#181818;stroke-width:0.45;stroke-dasharray:5.0,5.0;" x1="251.1" x2="251.1" y1="70.418" y2="1396.0318"/><line style="stroke:#181818;stroke-width:0.45;stroke-dasharray:5.0,5.0;" x1="554.85" x2="554.85" y1="70.418" y2="1396.0318"/><line style="stroke:#181818;stroke-width:0.45;stroke-dasharray:5.0,5.0;" x1="748.35" x2="748.35" y1="462.8725" y2="1396.0318"/><line style="stroke:#181818;stroke-width:0.45;stroke-dasharray:5.0,5.0;" x1="859.95" x2="859.95" y1="70.418" y2="1396.0318"/><line style="stroke:#181818;stroke-width:0.45;stroke-dasharray:5.0,5.0;" x1="1120.05" x2="1120.05" y1="627.1172" y2="1396.0318"/><line style="stroke:#181818;stroke-width:0.45;stroke-dasharray:5.0,5.0;" x1="1217.25" x2="1217.25" y1="70.418" y2="1396.0318"/><line style="stroke:#181818;stroke-width:0.45;stroke-dasharray:5.0,5.0;" x1="1377.45" x2="1377.45" y1="938.5154" y2="1396.0318"/><line style="stroke:#181818;stroke-width:0.45;stroke-dasharray:5.0,5.0;" x1="1480.05" x2="1480.05" y1="70.418" y2="1396.0318"/><line style="stroke:#181818;stroke-width:0.45;stroke-dasharray:5.0,5.0;" x1="1941.3" x2="1941.3" y1="1218.9032" y2="1396.0318"/><rect fill="#E3E3E3" height="29.359" rx="2.25" ry="2.25" style="stroke:#181818;stroke-width:0.45;" width="71.1" x="4.5" y="40.159"/><text fill="#000000" font-family="sans-serif" font-size="12.6" lengthAdjust="spacing" textLength="58.5" x="10.8" y="60.0557">:AgendaUI</text><rect fill="#E3E3E3" height="29.359" rx="2.25" ry="2.25" style="stroke:#181818;stroke-width:0.45;" width="71.1" x="4.5" y="1395.1318"/><text fill="#000000" font-family="sans-serif" font-size="12.6" lengthAdjust="spacing" textLength="58.5" x="10.8" y="1415.0285">:AgendaUI</text><rect fill="#E3E3E3" height="29.359" rx="2.25" ry="2.25" style="stroke:#181818;stroke-width:0.45;" width="116.1" x="193.5" y="40.159"/><text fill="#000000" font-family="sans-serif" font-size="12.6" lengthAdjust="spacing" textLength="103.5" x="199.8" y="60.0557">:AgendaController</text><rect fill="#E3E3E3" height="29.359" rx="2.25" ry="2.25" style="stroke:#181818;stroke-width:0.45;" width="116.1" x="193.5" y="1395.1318"/><text fill="#000000" font-family="sans-serif" font-size="12.6" lengthAdjust="spacing" textLength="103.5" x="199.8" y="1415.0285">:AgendaController</text><rect fill="#E3E3E3" height="29.359" rx="2.25" ry="2.25" style="stroke:#181818;stroke-width:0.45;" width="129.6" x="490.05" y="40.159"/><text fill="#000000" font-family="sans-serif" font-size="12.6" lengthAdjust="spacing" textLength="117" x="496.35" y="60.0557">:CollaboratorMapper</text><rect fill="#E3E3E3" height="29.359" rx="2.25" ry="2.25" style="stroke:#181818;stroke-width:0.45;" width="129.6" x="490.05" y="1395.1318"/><text fill="#000000" font-family="sans-serif" font-size="12.6" lengthAdjust="spacing" textLength="117" x="496.35" y="1415.0285">:CollaboratorMapper</text><rect fill="#E3E3E3" height="29.359" rx="2.25" ry="2.25" style="stroke:#181818;stroke-width:0.45;" width="113.4" x="691.65" y="1395.1318"/><text fill="#000000" font-family="sans-serif" font-size="12.6" lengthAdjust="spacing" textLength="100.8" x="697.95" y="1415.0285">:CollaboratorDTO</text><rect fill="#E3E3E3" height="29.359" rx="2.25" ry="2.25" style="stroke:#181818;stroke-width:0.45;" width="91.8" x="814.05" y="40.159"/><text fill="#000000" font-family="sans-serif" font-size="12.6" lengthAdjust="spacing" textLength="79.2" x="820.35" y="60.0557">:TeamMapper</text><rect fill="#E3E3E3" height="29.359" rx="2.25" ry="2.25" style="stroke:#181818;stroke-width:0.45;" width="91.8" x="814.05" y="1395.1318"/><text fill="#000000" font-family="sans-serif" font-size="12.6" lengthAdjust="spacing" textLength="79.2" x="820.35" y="1415.0285">:TeamMapper</text><rect fill="#E3E3E3" height="29.359" rx="2.25" ry="2.25" style="stroke:#181818;stroke-width:0.45;" width="75.6" x="1082.25" y="1395.1318"/><text fill="#000000" font-family="sans-serif" font-size="12.6" lengthAdjust="spacing" textLength="63" x="1088.55" y="1415.0285">:TeamDTO</text><rect fill="#E3E3E3" height="29.359" rx="2.25" ry="2.25" style="stroke:#181818;stroke-width:0.45;" width="100.8" x="1166.85" y="40.159"/><text fill="#000000" font-family="sans-serif" font-size="12.6" lengthAdjust="spacing" textLength="88.2" x="1173.15" y="60.0557">:VehicleMapper</text><rect fill="#E3E3E3" height="29.359" rx="2.25" ry="2.25" style="stroke:#181818;stroke-width:0.45;" width="100.8" x="1166.85" y="1395.1318"/><text fill="#000000" font-family="sans-serif" font-size="12.6" lengthAdjust="spacing" textLength="88.2" x="1173.15" y="1415.0285">:VehicleMapper</text><rect fill="#E3E3E3" height="29.359" rx="2.25" ry="2.25" style="stroke:#181818;stroke-width:0.45;" width="84.6" x="1335.15" y="1395.1318"/><text fill="#000000" font-family="sans-serif" font-size="12.6" lengthAdjust="spacing" textLength="72" x="1341.45" y="1415.0285">:VehicleDTO</text><rect fill="#E3E3E3" height="29.359" rx="2.25" ry="2.25" style="stroke:#181818;stroke-width:0.45;" width="103.5" x="1428.75" y="40.159"/><text fill="#000000" font-family="sans-serif" font-size="12.6" lengthAdjust="spacing" textLength="90.9" x="1435.05" y="60.0557">:AgendaMapper</text><rect fill="#E3E3E3" height="29.359" rx="2.25" ry="2.25" style="stroke:#181818;stroke-width:0.45;" width="103.5" x="1428.75" y="1395.1318"/><text fill="#000000" font-family="sans-serif" font-size="12.6" lengthAdjust="spacing" textLength="90.9" x="1435.05" y="1415.0285">:AgendaMapper</text><rect fill="#E3E3E3" height="29.359" rx="2.25" ry="2.25" style="stroke:#181818;stroke-width:0.45;" width="115.2" x="1883.7" y="1395.1318"/><text fill="#000000" font-family="sans-serif" font-size="12.6" lengthAdjust="spacing" textLength="102.6" x="1890" y="1415.0285">:AgendaTaskDTO</text><rect fill="#FFFFFF" height="1300.4139" style="stroke:#181818;stroke-width:0.9;" width="9" x="35.55" y="79.418"/><rect fill="#FFFFFF" height="1279.452" style="stroke:#181818;stroke-width:0.9;" width="9" x="247.05" y="100.3799"/><rect fill="#FFFFFF" height="159.7447" style="stroke:#181818;stroke-width:0.9;" width="9" x="550.35" y="380.8811"/><rect fill="#FFFFFF" height="89.9209" style="stroke:#181818;stroke-width:0.9;" width="9" x="855.45" y="591.2877"/><rect fill="#FFFFFF" height="182.2447" style="stroke:#181818;stroke-width:0.9;" width="9" x="1212.75" y="856.524"/><rect fill="#FFFFFF" height="87.4477" style="stroke:#181818;stroke-width:0.9;" width="9" x="1476" y="1173.0604"/><polygon fill="#181818" points="236.25,96.7799,245.25,100.3799,236.25,103.9799,239.85,100.3799" style="stroke:#181818;stroke-width:0.9;"/><line style="stroke:#181818;stroke-width:0.9;" x1="44.55" x2="241.65" y1="100.3799" y2="100.3799"/><text fill="#000000" font-family="sans-serif" font-size="11.7" font-weight="bold" lengthAdjust="spacing" textLength="6.3" x="50.85" y="95.6435">1</text><text fill="#000000" font-family="sans-serif" font-size="11.7" lengthAdjust="spacing" textLength="175.5" x="60.75" y="95.6435">getAgendaTaskDTOManagerList()</text><rect fill="none" height="53.2916" style="stroke:#000000;stroke-width:1.35;" width="182.7" x="190.8" y="107.5799"/><path d="M190.8,107.5799 L246.6,107.5799 L246.6,115.6799 L237.6,124.6799 L190.8,124.6799 L190.8,107.5799 " fill="#EEEEEE" style="stroke:#000000;stroke-width:1.8;"/><text fill="#000000" font-family="sans-serif" font-size="11.7" font-weight="bold" lengthAdjust="spacing" textLength="15.3" x="202.5" y="122.0054">ref</text><text fill="#000000" font-family="sans-serif" font-size="10.8" lengthAdjust="spacing" textLength="175.5" x="194.4" y="139.9342">SD_obtainManagerAgendaTaskList</text><text fill="#000000" font-family="sans-serif" font-size="10.8" lengthAdjust="spacing" textLength="2.7" x="280.8" y="154.299">&#160;</text><path d="M175.5,194.1715 L241.2,194.1715 L241.2,202.5334 L232.2,211.5334 L175.5,211.5334 L175.5,194.1715 " fill="#EEEEEE" style="stroke:#000000;stroke-width:1.35;"/><rect fill="none" height="1135.8984" style="stroke:#000000;stroke-width:1.35;" width="1832.4" x="175.5" y="194.1715"/><text fill="#000000" font-family="sans-serif" font-size="11.7" font-weight="bold" lengthAdjust="spacing" textLength="25.2" x="189" y="207.697">loop</text><text fill="#000000" font-family="sans-serif" font-size="9.9" font-weight="bold" lengthAdjust="spacing" textLength="165.6" x="254.7" y="206.6546">[for each task in agendaTaskList]</text><line style="stroke:#181818;stroke-width:0.9;" x1="256.05" x2="293.85" y1="232.4953" y2="232.4953"/><line style="stroke:#181818;stroke-width:0.9;" x1="293.85" x2="293.85" y1="232.4953" y2="244.1953"/><line style="stroke:#181818;stroke-width:0.9;" x1="256.95" x2="293.85" y1="244.1953" y2="244.1953"/><polygon fill="#181818" points="265.95,240.5953,256.95,244.1953,265.95,247.7953,262.35,244.1953" style="stroke:#181818;stroke-width:0.9;"/><text fill="#000000" font-family="sans-serif" font-size="11.7" font-weight="bold" lengthAdjust="spacing" textLength="6.3" x="262.35" y="227.7589">2</text><text fill="#000000" font-family="sans-serif" font-size="11.7" lengthAdjust="spacing" textLength="134.1" x="272.25" y="227.7589">getTeamAssigned() [task]</text><path d="M184.5,257.6953 L239.4,257.6953 L239.4,266.0572 L230.4,275.0572 L184.5,275.0572 L184.5,257.6953 " fill="#EEEEEE" style="stroke:#000000;stroke-width:1.35;"/><rect fill="none" height="485.543" style="stroke:#000000;stroke-width:1.35;" width="982.35" x="184.5" y="257.6953"/><text fill="#000000" font-family="sans-serif" font-size="11.7" font-weight="bold" lengthAdjust="spacing" textLength="14.4" x="198" y="271.2208">alt</text><text fill="#000000" font-family="sans-serif" font-size="9.9" font-weight="bold" lengthAdjust="spacing" textLength="139.5" x="252.9" y="270.1784">[task have a team assigned]</text><line style="stroke:#181818;stroke-width:0.9;" x1="256.05" x2="293.85" y1="318.5191" y2="318.5191"/><line style="stroke:#181818;stroke-width:0.9;" x1="293.85" x2="293.85" y1="318.5191" y2="330.2191"/><line style="stroke:#181818;stroke-width:0.9;" x1="256.95" x2="293.85" y1="330.2191" y2="330.2191"/><polygon fill="#181818" points="265.95,326.6191,256.95,330.2191,265.95,333.8191,262.35,330.2191" style="stroke:#181818;stroke-width:0.9;"/><text fill="#000000" font-family="sans-serif" font-size="11.7" font-weight="bold" lengthAdjust="spacing" textLength="6.3" x="262.35" y="313.7827">3</text><text fill="#000000" font-family="sans-serif" font-size="11.7" lengthAdjust="spacing" textLength="111.6" x="272.25" y="313.7827">getMembers() [Team]</text><polygon fill="#181818" points="539.55,377.2811,548.55,380.8811,539.55,384.4811,543.15,380.8811" style="stroke:#181818;stroke-width:0.9;"/><line style="stroke:#181818;stroke-width:0.9;" x1="256.05" x2="544.95" y1="380.8811" y2="380.8811"/><text fill="#000000" font-family="sans-serif" font-size="11.7" font-weight="bold" lengthAdjust="spacing" textLength="6.3" x="262.35" y="376.1446">4</text><text fill="#000000" font-family="sans-serif" font-size="11.7" lengthAdjust="spacing" textLength="130.5" x="272.25" y="376.1446">toDTOlist(teamMembers)</text><path d="M481.05,394.3811 L546.75,394.3811 L546.75,402.743 L537.75,411.743 L481.05,411.743 L481.05,394.3811 " fill="#EEEEEE" style="stroke:#000000;stroke-width:1.35;"/><rect fill="none" height="118.9828" style="stroke:#000000;stroke-width:1.35;" width="333" x="481.05" y="394.3811"/><text fill="#000000" font-family="sans-serif" font-size="11.7" font-weight="bold" lengthAdjust="spacing" textLength="25.2" x="494.55" y="407.9065">loop</text><text fill="#000000" font-family="sans-serif" font-size="9.9" font-weight="bold" lengthAdjust="spacing" textLength="198" x="560.25" y="406.8642">[for each collaborator in teamMembers]</text><polygon fill="#181818" points="680.85,451.6049,689.85,455.2049,680.85,458.8049,684.45,455.2049" style="stroke:#181818;stroke-width:0.9;"/><line style="stroke:#181818;stroke-width:0.9;" x1="559.35" x2="686.25" y1="455.2049" y2="455.2049"/><text fill="#000000" font-family="sans-serif" font-size="11.7" font-weight="bold" lengthAdjust="spacing" textLength="6.3" x="565.65" y="450.4685">5</text><text fill="#000000" font-family="sans-serif" font-size="11.7" lengthAdjust="spacing" textLength="100.8" x="575.55" y="450.4685">toDTO(collaborator)</text><rect fill="#E3E3E3" height="29.359" rx="2.25" ry="2.25" style="stroke:#181818;stroke-width:0.45;" width="113.4" x="691.65" y="434.243"/><text fill="#000000" font-family="sans-serif" font-size="12.6" lengthAdjust="spacing" textLength="100.8" x="697.95" y="454.1396">:CollaboratorDTO</text><line style="stroke:#181818;stroke-width:0.9;stroke-dasharray:2.0,2.0;" x1="559.35" x2="597.15" y1="494.4639" y2="494.4639"/><line style="stroke:#181818;stroke-width:0.9;stroke-dasharray:2.0,2.0;" x1="597.15" x2="597.15" y1="494.4639" y2="506.1639"/><line style="stroke:#181818;stroke-width:0.9;stroke-dasharray:2.0,2.0;" x1="560.25" x2="597.15" y1="506.1639" y2="506.1639"/><polygon fill="#181818" points="569.25,502.5639,560.25,506.1639,569.25,509.7639,565.65,506.1639" style="stroke:#181818;stroke-width:0.9;"/><text fill="#000000" font-family="sans-serif" font-size="11.7" font-weight="bold" lengthAdjust="spacing" textLength="6.3" x="565.65" y="489.7274">6</text><text fill="#000000" font-family="sans-serif" font-size="11.7" lengthAdjust="spacing" textLength="109.8" x="575.55" y="489.7274">add(collaboratorDTO)</text><polygon fill="#181818" points="265.95,537.0258,256.95,540.6258,265.95,544.2258,262.35,540.6258" style="stroke:#181818;stroke-width:0.9;"/><line style="stroke:#181818;stroke-width:0.9;stroke-dasharray:2.0,2.0;" x1="260.55" x2="553.95" y1="540.6258" y2="540.6258"/><text fill="#000000" font-family="sans-serif" font-size="11.7" font-weight="bold" lengthAdjust="spacing" textLength="6.3" x="271.35" y="535.8894">7</text><text fill="#000000" font-family="sans-serif" font-size="11.7" lengthAdjust="spacing" textLength="99" x="281.25" y="535.8894">collaboratorDTOlist</text><polygon fill="#181818" points="844.65,587.6877,853.65,591.2877,844.65,594.8877,848.25,591.2877" style="stroke:#181818;stroke-width:0.9;"/><line style="stroke:#181818;stroke-width:0.9;" x1="256.05" x2="850.05" y1="591.2877" y2="591.2877"/><text fill="#000000" font-family="sans-serif" font-size="11.7" font-weight="bold" lengthAdjust="spacing" textLength="6.3" x="262.35" y="586.5513">8</text><text fill="#000000" font-family="sans-serif" font-size="11.7" lengthAdjust="spacing" textLength="139.5" x="272.25" y="586.5513">toDTO(collaboratorDTOlist)</text><polygon fill="#181818" points="1071.45,615.8496,1080.45,619.4496,1071.45,623.0496,1075.05,619.4496" style="stroke:#181818;stroke-width:0.9;"/><line style="stroke:#181818;stroke-width:0.9;" x1="864.45" x2="1076.85" y1="619.4496" y2="619.4496"/><text fill="#000000" font-family="sans-serif" font-size="11.7" font-weight="bold" lengthAdjust="spacing" textLength="6.3" x="870.75" y="614.7132">9</text><text fill="#000000" font-family="sans-serif" font-size="11.7" lengthAdjust="spacing" textLength="186.3" x="880.65" y="614.7132">new TeamDTO(collaboratorDTOList)</text><rect fill="#E3E3E3" height="29.359" rx="2.25" ry="2.25" style="stroke:#181818;stroke-width:0.45;" width="75.6" x="1082.25" y="598.4877"/><text fill="#000000" font-family="sans-serif" font-size="12.6" lengthAdjust="spacing" textLength="63" x="1088.55" y="618.3844">:TeamDTO</text><polygon fill="#181818" points="265.95,677.6086,256.95,681.2086,265.95,684.8086,262.35,681.2086" style="stroke:#181818;stroke-width:0.9;"/><line style="stroke:#181818;stroke-width:0.9;stroke-dasharray:2.0,2.0;" x1="260.55" x2="859.05" y1="681.2086" y2="681.2086"/><text fill="#000000" font-family="sans-serif" font-size="11.7" font-weight="bold" lengthAdjust="spacing" textLength="12.6" x="271.35" y="676.4722">10</text><text fill="#000000" font-family="sans-serif" font-size="11.7" lengthAdjust="spacing" textLength="49.5" x="287.55" y="676.4722">teamDTO</text><line style="stroke:#000000;stroke-width:0.9;stroke-dasharray:2.0,2.0;" x1="184.5" x2="1166.85" y1="689.3086" y2="689.3086"/><text fill="#000000" font-family="sans-serif" font-size="9.9" font-weight="bold" lengthAdjust="spacing" textLength="180" x="189" y="699.9917">[task doesn't have a team assigned]</text><line style="stroke:#181818;stroke-width:0.9;" x1="256.05" x2="293.85" y1="724.3383" y2="724.3383"/><line style="stroke:#181818;stroke-width:0.9;" x1="293.85" x2="293.85" y1="724.3383" y2="736.0383"/><line style="stroke:#181818;stroke-width:0.9;" x1="256.95" x2="293.85" y1="736.0383" y2="736.0383"/><polygon fill="#181818" points="265.95,732.4383,256.95,736.0383,265.95,739.6383,262.35,736.0383" style="stroke:#181818;stroke-width:0.9;"/><text fill="#000000" font-family="sans-serif" font-size="11.7" font-weight="bold" lengthAdjust="spacing" textLength="12.6" x="262.35" y="719.6019">11</text><text fill="#000000" font-family="sans-serif" font-size="11.7" lengthAdjust="spacing" textLength="81.9" x="278.55" y="719.6019">teamDTO = null</text><line style="stroke:#181818;stroke-width:0.9;" x1="256.05" x2="293.85" y1="770.5002" y2="770.5002"/><line style="stroke:#181818;stroke-width:0.9;" x1="293.85" x2="293.85" y1="770.5002" y2="782.2002"/><line style="stroke:#181818;stroke-width:0.9;" x1="256.95" x2="293.85" y1="782.2002" y2="782.2002"/><polygon fill="#181818" points="265.95,778.6002,256.95,782.2002,265.95,785.8002,262.35,782.2002" style="stroke:#181818;stroke-width:0.9;"/><text fill="#000000" font-family="sans-serif" font-size="11.7" font-weight="bold" lengthAdjust="spacing" textLength="12.6" x="262.35" y="765.7638">12</text><text fill="#000000" font-family="sans-serif" font-size="11.7" lengthAdjust="spacing" textLength="150.3" x="278.55" y="765.7638">getVehiclesAssigned() [task]</text><path d="M184.5,795.7002 L239.4,795.7002 L239.4,804.0621 L230.4,813.0621 L184.5,813.0621 L184.5,795.7002 " fill="#EEEEEE" style="stroke:#000000;stroke-width:1.35;"/><rect fill="none" height="305.0982" style="stroke:#000000;stroke-width:1.35;" width="1280.25" x="184.5" y="795.7002"/><text fill="#000000" font-family="sans-serif" font-size="11.7" font-weight="bold" lengthAdjust="spacing" textLength="14.4" x="198" y="809.2257">alt</text><text fill="#000000" font-family="sans-serif" font-size="9.9" font-weight="bold" lengthAdjust="spacing" textLength="147.6" x="252.9" y="808.1833">[task have vehicles assigned]</text><polygon fill="#181818" points="1201.95,852.924,1210.95,856.524,1201.95,860.124,1205.55,856.524" style="stroke:#181818;stroke-width:0.9;"/><line style="stroke:#181818;stroke-width:0.9;" x1="256.05" x2="1207.35" y1="856.524" y2="856.524"/><text fill="#000000" font-family="sans-serif" font-size="11.7" font-weight="bold" lengthAdjust="spacing" textLength="12.6" x="262.35" y="851.7876">13</text><text fill="#000000" font-family="sans-serif" font-size="11.7" lengthAdjust="spacing" textLength="176.4" x="278.55" y="851.7876">toDTOList(getVehiclesAssigned())</text><path d="M1157.85,870.024 L1223.55,870.024 L1223.55,878.3859 L1214.55,887.3859 L1157.85,887.3859 L1157.85,870.024 " fill="#EEEEEE" style="stroke:#000000;stroke-width:1.35;"/><rect fill="none" height="141.4828" style="stroke:#000000;stroke-width:1.35;" width="297.9" x="1157.85" y="870.024"/><text fill="#000000" font-family="sans-serif" font-size="11.7" font-weight="bold" lengthAdjust="spacing" textLength="25.2" x="1171.35" y="883.5495">loop</text><text fill="#000000" font-family="sans-serif" font-size="9.9" font-weight="bold" lengthAdjust="spacing" textLength="214.2" x="1237.05" y="882.5071">[for each vehicle in getVehiclesAssigned()]</text><polygon fill="#181818" points="1324.35,927.2479,1333.35,930.8479,1324.35,934.4479,1327.95,930.8479" style="stroke:#181818;stroke-width:0.9;"/><line style="stroke:#181818;stroke-width:0.9;" x1="1221.75" x2="1329.75" y1="930.8479" y2="930.8479"/><text fill="#000000" font-family="sans-serif" font-size="11.7" font-weight="bold" lengthAdjust="spacing" textLength="12.6" x="1228.05" y="926.1114">14</text><text fill="#000000" font-family="sans-serif" font-size="11.7" lengthAdjust="spacing" textLength="75.6" x="1244.25" y="926.1114">toDTO(vehicle)</text><rect fill="#E3E3E3" height="29.359" rx="2.25" ry="2.25" style="stroke:#181818;stroke-width:0.45;" width="84.6" x="1335.15" y="909.8859"/><text fill="#000000" font-family="sans-serif" font-size="12.6" lengthAdjust="spacing" textLength="72" x="1341.45" y="929.7826">:VehicleDTO</text><line style="stroke:#181818;stroke-width:0.9;stroke-dasharray:2.0,2.0;" x1="1221.75" x2="1259.55" y1="992.6068" y2="992.6068"/><line style="stroke:#181818;stroke-width:0.9;stroke-dasharray:2.0,2.0;" x1="1259.55" x2="1259.55" y1="992.6068" y2="1004.3068"/><line style="stroke:#181818;stroke-width:0.9;stroke-dasharray:2.0,2.0;" x1="1222.65" x2="1259.55" y1="1004.3068" y2="1004.3068"/><polygon fill="#181818" points="1231.65,1000.7068,1222.65,1004.3068,1231.65,1007.9068,1228.05,1004.3068" style="stroke:#181818;stroke-width:0.9;"/><text fill="#000000" font-family="sans-serif" font-size="11.7" font-weight="bold" lengthAdjust="spacing" textLength="12.6" x="1228.05" y="987.8704">15</text><text fill="#000000" font-family="sans-serif" font-size="11.7" lengthAdjust="spacing" textLength="84.6" x="1244.25" y="987.8704">add(vehicleDTO)</text><polygon fill="#181818" points="265.95,1035.1688,256.95,1038.7688,265.95,1042.3688,262.35,1038.7688" style="stroke:#181818;stroke-width:0.9;"/><line style="stroke:#181818;stroke-width:0.9;stroke-dasharray:2.0,2.0;" x1="260.55" x2="1216.35" y1="1038.7688" y2="1038.7688"/><text fill="#000000" font-family="sans-serif" font-size="11.7" font-weight="bold" lengthAdjust="spacing" textLength="12.6" x="271.35" y="1034.0323">16</text><text fill="#000000" font-family="sans-serif" font-size="11.7" lengthAdjust="spacing" textLength="77.4" x="287.55" y="1034.0323">vehicleDTOList</text><line style="stroke:#000000;stroke-width:0.9;stroke-dasharray:2.0,2.0;" x1="184.5" x2="1464.75" y1="1046.8688" y2="1046.8688"/><text fill="#000000" font-family="sans-serif" font-size="9.9" font-weight="bold" lengthAdjust="spacing" textLength="188.1" x="189" y="1057.5519">[task doesn't have vehicles assigned]</text><line style="stroke:#181818;stroke-width:0.9;" x1="256.05" x2="293.85" y1="1081.8984" y2="1081.8984"/><line style="stroke:#181818;stroke-width:0.9;" x1="293.85" x2="293.85" y1="1081.8984" y2="1093.5984"/><line style="stroke:#181818;stroke-width:0.9;" x1="256.95" x2="293.85" y1="1093.5984" y2="1093.5984"/><polygon fill="#181818" points="265.95,1089.9984,256.95,1093.5984,265.95,1097.1984,262.35,1093.5984" style="stroke:#181818;stroke-width:0.9;"/><text fill="#000000" font-family="sans-serif" font-size="11.7" font-weight="bold" lengthAdjust="spacing" textLength="12.6" x="262.35" y="1077.162">17</text><text fill="#000000" font-family="sans-serif" font-size="11.7" lengthAdjust="spacing" textLength="109.8" x="278.55" y="1077.162">vehicleDTOList = null</text><polygon fill="#181818" points="1465.2,1169.4604,1474.2,1173.0604,1465.2,1176.6604,1468.8,1173.0604" style="stroke:#181818;stroke-width:0.9;"/><line style="stroke:#181818;stroke-width:0.9;" x1="256.05" x2="1470.6" y1="1173.0604" y2="1173.0604"/><text fill="#000000" font-family="sans-serif" font-size="11.7" font-weight="bold" lengthAdjust="spacing" textLength="12.6" x="262.35" y="1168.3239">18</text><text fill="#000000" font-family="sans-serif" font-size="11.7" lengthAdjust="spacing" textLength="241.2" x="278.55" y="1168.3239">toDTO(agendaTask, teamDTO,vehicleDTOList)</text><polygon fill="#181818" points="1872.9,1228.7461,1881.9,1232.3461,1872.9,1235.9461,1876.5,1232.3461" style="stroke:#181818;stroke-width:0.9;"/><line style="stroke:#181818;stroke-width:0.9;" x1="1485" x2="1878.3" y1="1232.3461" y2="1232.3461"/><text fill="#000000" font-family="sans-serif" font-size="11.7" font-weight="bold" lengthAdjust="spacing" textLength="12.6" x="1491.3" y="1212.0478">19</text><text fill="#000000" font-family="sans-serif" font-size="11.7" lengthAdjust="spacing" textLength="357.3" x="1507.5" y="1196.4858">new AgendaTaskDTO(title, description, taskType, greenSpaceName,</text><text fill="#000000" font-family="sans-serif" font-size="11.7" lengthAdjust="spacing" textLength="344.7" x="1507.5" y="1212.0478">urgency, status, expectedDuration, workStartDate, workStartHour,</text><text fill="#000000" font-family="sans-serif" font-size="11.7" lengthAdjust="spacing" textLength="213.3" x="1511.1" y="1227.6097">workStartMin, teamDTO, vehicleDTOList)</text><rect fill="#E3E3E3" height="29.359" rx="2.25" ry="2.25" style="stroke:#181818;stroke-width:0.45;" width="115.2" x="1883.7" y="1200.2871"/><text fill="#000000" font-family="sans-serif" font-size="12.6" lengthAdjust="spacing" textLength="102.6" x="1890" y="1220.1838">:AgendaTaskDTO</text><polygon fill="#181818" points="265.95,1256.908,256.95,1260.508,265.95,1264.108,262.35,1260.508" style="stroke:#181818;stroke-width:0.9;"/><line style="stroke:#181818;stroke-width:0.9;stroke-dasharray:2.0,2.0;" x1="260.55" x2="1479.6" y1="1260.508" y2="1260.508"/><text fill="#000000" font-family="sans-serif" font-size="11.7" font-weight="bold" lengthAdjust="spacing" textLength="12.6" x="271.35" y="1255.7716">20</text><text fill="#000000" font-family="sans-serif" font-size="11.7" lengthAdjust="spacing" textLength="86.4" x="287.55" y="1255.7716">agendaTaskDTO</text><line style="stroke:#181818;stroke-width:0.9;" x1="256.05" x2="293.85" y1="1311.1699" y2="1311.1699"/><line style="stroke:#181818;stroke-width:0.9;" x1="293.85" x2="293.85" y1="1311.1699" y2="1322.8699"/><line style="stroke:#181818;stroke-width:0.9;" x1="256.95" x2="293.85" y1="1322.8699" y2="1322.8699"/><polygon fill="#181818" points="265.95,1319.2699,256.95,1322.8699,265.95,1326.4699,262.35,1322.8699" style="stroke:#181818;stroke-width:0.9;"/><text fill="#000000" font-family="sans-serif" font-size="11.7" font-weight="bold" lengthAdjust="spacing" textLength="12.6" x="262.35" y="1306.4335">21</text><text fill="#000000" font-family="sans-serif" font-size="11.7" lengthAdjust="spacing" textLength="265.5" x="278.55" y="1306.4335">managerSpecificAgendaDTO.add(agendaTaskDTO)</text><polygon fill="#181818" points="49.95,1376.2318,40.95,1379.8318,49.95,1383.4318,46.35,1379.8318" style="stroke:#181818;stroke-width:0.9;"/><line style="stroke:#181818;stroke-width:0.9;stroke-dasharray:2.0,2.0;" x1="44.55" x2="250.65" y1="1379.8318" y2="1379.8318"/><text fill="#000000" font-family="sans-serif" font-size="11.7" font-weight="bold" lengthAdjust="spacing" textLength="12.6" x="55.35" y="1375.0954">22</text><text fill="#000000" font-family="sans-serif" font-size="11.7" lengthAdjust="spacing" textLength="149.4" x="71.55" y="1375.0954">managerSpecificAgendaDTO</text><!--SRC=[fLVRRXen47ttLrXvAKJRVa2aLaAXQYD1AXNIbwQAdDq1B1PxPNj98-NZEsPljl4ktTPFs3jppjmy7lIUYu8fTg07AMIwK_80rAWIY6w_52pTiosip6iEL45gcDZche3UiKo-SB6b6vPh8CHmWwAh-TE12THKgm9Ilk7fR0iYO_FrDq9OQQGe3y-W244KmrDUC67erKqbz71tHPcc3tVHhxTI62Np7DH9QlRby_ryzdIx_hu8qMvHYZrBnOnKIrOKjSRvyO0U6docP9tmDTR03Wv3jut8DOZrxz3e7x3ZQGuEcdSIbsumksqyiWwgUn2LNJEzRt2z4qnWQlYH6R0f8WztzFqdDmtqXcx1U2hBgXOMN9l9j5FtSaTnATXGUGJbVR4Vi9xais5Sr4WTkiMibF740bIRjxStKlsoAvUoe1kfAB1qHmsgKIueyq6eirntOjxPvCsqvbi1sMHAVrh8NyI3OBcfc7Ri29HHWoeOoqh7appPEePz2VRoQ4ji3Gc8ev0HsFDxWEX6OhfocoThRqqqFODgKnYvJA6i7_pKKR19S6YYNj215V4Wy0kTkRvkt9gut5D2o21u5BqlR2pBF7Hacvx3smgrqI3_GEiNGS2LX_KRhWp6P6ni9NNzBXhgsi21Ad8QPYZZODTCJKu5l3Jxa6uHfOkLamj_5cLJj-Y1Q3gMUsA0Zs5r_JC9Mhmpbzl0nPjVcqC_Kb7cEGagQrmBgLyAFQg97MkbVliljJBlBMkAvVGiH6qQA1d_LHpkERNTjjr4QKOt7j-DpY-_tTIqqmjzvl-u8q6rpUZO6ZJKXqOI-LNKKIn6j9_-lFLScSj5DrZhlfL_TNV238JxaC-PfDhSTxD5qjpRn3V5hxfk9dBdCf_MvMbvwmchxOZUwUGqZISOVvqgNXWkHN8AyVgrmEEj0X0hdF7XdXrm_oXAXUhfQqArOQRK2ONVEByRoEObzjQJ-ejK-vN1WN6EvZhRhx9KoQFe3fPSTBxJqFa1ryvooBpniwUm-WDtANyULz_VbW_sLdc6T0biAwXjVnu5Sk2Gt0zDGa_SiTWvnsdx3m00]--></g></svg>