<?xml version="1.0" encoding="us-ascii" standalone="no"?><svg xmlns="http://www.w3.org/2000/svg" xmlns:xlink="http://www.w3.org/1999/xlink" contentStyleType="text/css" height="2082.6px" preserveAspectRatio="none" style="width:1862px;height:2082px;background:#FFFFFF;" version="1.1" viewBox="0 0 1862 2082" width="1862.1px" zoomAndPan="magnify"><defs/><g><text fill="#000000" font-family="sans-serif" font-size="12.6" font-weight="bold" lengthAdjust="spacing" textLength="139.5" x="855" y="22.5967">US024 - Class Diagram</text><!--cluster GUI--><g id="cluster_GUI"><path d="M535.95,41.0713 L559.35,41.0713 A3.375,3.375 0 0 1 561.6,43.3213 L567.9,63.2303 L781.65,63.2303 A2.25,2.25 0 0 1 783.9,65.4803 L783.9,230.5213 A2.25,2.25 0 0 1 781.65,232.7713 L535.95,232.7713 A2.25,2.25 0 0 1 533.7,230.5213 L533.7,43.3213 A2.25,2.25 0 0 1 535.95,41.0713 " fill="#DDDDDD" style="stroke:#000000;stroke-width:1.35;"/><line style="stroke:#000000;stroke-width:1.35;" x1="533.7" x2="567.9" y1="63.2303" y2="63.2303"/><text fill="#000000" font-family="sans-serif" font-size="12.6" font-weight="bold" lengthAdjust="spacing" textLength="22.5" x="537.3" y="56.468">GUI</text></g><!--cluster Controller--><g id="cluster_Controller"><path d="M249.75,262.4713 L314.55,262.4713 A3.375,3.375 0 0 1 316.8,264.7213 L323.1,284.6303 L1183.95,284.6303 A2.25,2.25 0 0 1 1186.2,286.8803 L1186.2,485.2213 A2.25,2.25 0 0 1 1183.95,487.4713 L249.75,487.4713 A2.25,2.25 0 0 1 247.5,485.2213 L247.5,264.7213 A2.25,2.25 0 0 1 249.75,262.4713 " fill="#DDDDDD" style="stroke:#000000;stroke-width:1.35;"/><line style="stroke:#000000;stroke-width:1.35;" x1="247.5" x2="323.1" y1="284.6303" y2="284.6303"/><text fill="#000000" font-family="sans-serif" font-size="12.6" font-weight="bold" lengthAdjust="spacing" textLength="63.9" x="251.1" y="277.868">Controller</text></g><!--cluster Repository--><g id="cluster_Repository"><path d="M7.65,887.0713 L76.95,887.0713 A3.375,3.375 0 0 1 79.2,889.3213 L85.5,909.2303 L1334.25,909.2303 A2.25,2.25 0 0 1 1336.5,911.4803 L1336.5,1373.5213 A2.25,2.25 0 0 1 1334.25,1375.7713 L7.65,1375.7713 A2.25,2.25 0 0 1 5.4,1373.5213 L5.4,889.3213 A2.25,2.25 0 0 1 7.65,887.0713 " fill="#DDDDDD" style="stroke:#000000;stroke-width:1.35;"/><line style="stroke:#000000;stroke-width:1.35;" x1="5.4" x2="85.5" y1="909.2303" y2="909.2303"/><text fill="#000000" font-family="sans-serif" font-size="12.6" font-weight="bold" lengthAdjust="spacing" textLength="68.4" x="9" y="902.468">Repository</text></g><!--cluster Domain--><g id="cluster_Domain"><path d="M272.25,1421.6713 L319.95,1421.6713 A3.375,3.375 0 0 1 322.2,1423.9213 L328.5,1443.8303 L1135.35,1443.8303 A2.25,2.25 0 0 1 1137.6,1446.0803 L1137.6,2074.6213 A2.25,2.25 0 0 1 1135.35,2076.8713 L272.25,2076.8713 A2.25,2.25 0 0 1 270,2074.6213 L270,1423.9213 A2.25,2.25 0 0 1 272.25,1421.6713 " fill="#DDDDDD" style="stroke:#000000;stroke-width:1.35;"/><line style="stroke:#000000;stroke-width:1.35;" x1="270" x2="328.5" y1="1443.8303" y2="1443.8303"/><text fill="#000000" font-family="sans-serif" font-size="12.6" font-weight="bold" lengthAdjust="spacing" textLength="46.8" x="273.6" y="1437.068">Domain</text></g><!--cluster Mapper--><g id="cluster_Mapper"><path d="M1284.75,312.8713 L1334.25,312.8713 A3.375,3.375 0 0 1 1336.5,315.1213 L1342.8,335.0303 L1706.85,335.0303 A2.25,2.25 0 0 1 1709.1,337.2803 L1709.1,434.8213 A2.25,2.25 0 0 1 1706.85,437.0713 L1284.75,437.0713 A2.25,2.25 0 0 1 1282.5,434.8213 L1282.5,315.1213 A2.25,2.25 0 0 1 1284.75,312.8713 " fill="#DDDDDD" style="stroke:#000000;stroke-width:1.35;"/><line style="stroke:#000000;stroke-width:1.35;" x1="1282.5" x2="1342.8" y1="335.0303" y2="335.0303"/><text fill="#000000" font-family="sans-serif" font-size="12.6" font-weight="bold" lengthAdjust="spacing" textLength="48.6" x="1286.1" y="328.268">Mapper</text></g><!--cluster DTO--><g id="cluster_DTO"><path d="M1360.35,517.1713 L1387.35,517.1713 A3.375,3.375 0 0 1 1389.6,519.4213 L1395.9,539.3303 L1853.55,539.3303 A2.25,2.25 0 0 1 1855.8,541.5803 L1855.8,1240.3213 A2.25,2.25 0 0 1 1853.55,1242.5713 L1360.35,1242.5713 A2.25,2.25 0 0 1 1358.1,1240.3213 L1358.1,519.4213 A2.25,2.25 0 0 1 1360.35,517.1713 " fill="#DDDDDD" style="stroke:#000000;stroke-width:1.35;"/><line style="stroke:#000000;stroke-width:1.35;" x1="1358.1" x2="1395.9" y1="539.3303" y2="539.3303"/><text fill="#000000" font-family="sans-serif" font-size="12.6" font-weight="bold" lengthAdjust="spacing" textLength="26.1" x="1361.7" y="532.568">DTO</text></g><!--class AgendaUI--><g id="elem_AgendaUI"><rect codeLine="12" fill="#F1F1F1" height="143.7539" id="AgendaUI" rx="2.25" ry="2.25" style="stroke:#181818;stroke-width:0.45;" width="221.4" x="548.1" y="74.3713"/><ellipse cx="627.525" cy="88.7713" fill="#ADD1B2" rx="9.9" ry="9.9" style="stroke:#181818;stroke-width:0.9;"/><path d="M630.0141,85.0588 Q630.1547,84.8619 630.3234,84.7635 Q630.4922,84.665 630.6891,84.665 Q631.0266,84.665 631.2375,84.9041 Q631.4484,85.1291 631.4484,85.6775 L631.4484,86.9854 Q631.4484,87.5338 631.2375,87.7729 Q631.0266,88.0119 630.6891,88.0119 Q630.3797,88.0119 630.1969,87.8291 Q630.0141,87.6604 629.9156,87.1963 Q629.8734,86.8729 629.7047,86.7041 Q629.4094,86.3666 628.8609,86.1697 Q628.3125,85.9729 627.75,85.9729 Q627.0609,85.9729 626.4844,86.2682 Q625.9219,86.5635 625.4719,87.2385 Q625.0359,87.9135 625.0359,88.8416 L625.0359,89.826 Q625.0359,90.9369 625.8375,91.6822 Q626.6391,92.4135 628.0734,92.4135 Q628.9172,92.4135 629.5078,92.1885 Q629.8594,92.0479 630.2391,91.6541 Q630.4781,91.415 630.6047,91.3447 Q630.7453,91.2744 630.9281,91.2744 Q631.2234,91.2744 631.4484,91.5135 Q631.6875,91.7385 631.6875,92.0479 Q631.6875,92.3572 631.3781,92.7229 Q630.9281,93.2432 630.2109,93.5385 Q629.2406,93.9463 628.0734,93.9463 Q626.7094,93.9463 625.6266,93.3838 Q624.7406,92.9338 624.1219,91.9775 Q623.5031,91.0072 623.5031,89.8541 L623.5031,88.8135 Q623.5031,87.6182 624.0516,86.5916 Q624.6141,85.551 625.5984,85.0025 Q626.5828,84.44 627.6938,84.44 Q628.3547,84.44 628.9313,84.5947 Q629.5219,84.7354 630.0141,85.0588 Z " fill="#000000"/><text fill="#000000" font-family="sans-serif" font-size="12.6" lengthAdjust="spacing" textLength="54.9" x="645.975" y="93.9885">AgendaUI</text><line style="stroke:#181818;stroke-width:0.45;" x1="549" x2="768.6" y1="103.1713" y2="103.1713"/><text fill="#000000" font-family="sans-serif" font-size="12.6" lengthAdjust="spacing" textLength="182.7" x="553.5" y="120.368">-AgendaTaskDTO selectedTask</text><line style="stroke:#181818;stroke-width:0.45;" x1="549" x2="768.6" y1="127.1303" y2="127.1303"/><text fill="#000000" font-family="sans-serif" font-size="12.6" lengthAdjust="spacing" textLength="168.3" x="553.5" y="144.327">+initialize(location, resources)</text><text fill="#000000" font-family="sans-serif" font-size="12.6" lengthAdjust="spacing" textLength="85.5" x="553.5" y="161.0859">-fillTaskTable()</text><text fill="#000000" font-family="sans-serif" font-size="12.6" lengthAdjust="spacing" textLength="101.7" x="553.5" y="177.8449">+btnCancelTask()</text><text fill="#000000" font-family="sans-serif" font-size="12.6" lengthAdjust="spacing" textLength="111.6" x="553.5" y="194.6039">-updateTableView()</text><text fill="#000000" font-family="sans-serif" font-size="12.6" lengthAdjust="spacing" textLength="210.6" x="553.5" y="211.3629">-validateSelectedTask(selectedTask)</text></g><!--class PostponeTaskController--><g id="elem_PostponeTaskController"><rect codeLine="23" fill="#F1F1F1" height="177.2719" id="PostponeTaskController" rx="2.25" ry="2.25" style="stroke:#181818;stroke-width:0.45;" width="664.2" x="507.6" y="295.7713"/><ellipse cx="767.025" cy="310.1713" fill="#ADD1B2" rx="9.9" ry="9.9" style="stroke:#181818;stroke-width:0.9;"/><path d="M769.5141,306.4588 Q769.6547,306.2619 769.8234,306.1635 Q769.9922,306.065 770.1891,306.065 Q770.5266,306.065 770.7375,306.3041 Q770.9484,306.5291 770.9484,307.0775 L770.9484,308.3854 Q770.9484,308.9338 770.7375,309.1729 Q770.5266,309.4119 770.1891,309.4119 Q769.8797,309.4119 769.6969,309.2291 Q769.5141,309.0604 769.4156,308.5963 Q769.3734,308.2729 769.2047,308.1041 Q768.9094,307.7666 768.3609,307.5697 Q767.8125,307.3729 767.25,307.3729 Q766.5609,307.3729 765.9844,307.6682 Q765.4219,307.9635 764.9719,308.6385 Q764.5359,309.3135 764.5359,310.2416 L764.5359,311.226 Q764.5359,312.3369 765.3375,313.0822 Q766.1391,313.8135 767.5734,313.8135 Q768.4172,313.8135 769.0078,313.5885 Q769.3594,313.4479 769.7391,313.0541 Q769.9781,312.815 770.1047,312.7447 Q770.2453,312.6744 770.4281,312.6744 Q770.7234,312.6744 770.9484,312.9135 Q771.1875,313.1385 771.1875,313.4479 Q771.1875,313.7572 770.8781,314.1229 Q770.4281,314.6432 769.7109,314.9385 Q768.7406,315.3463 767.5734,315.3463 Q766.2094,315.3463 765.1266,314.7838 Q764.2406,314.3338 763.6219,313.3775 Q763.0031,312.4072 763.0031,311.2541 L763.0031,310.2135 Q763.0031,309.0182 763.5516,307.9916 Q764.1141,306.951 765.0984,306.4025 Q766.0828,305.84 767.1938,305.84 Q767.8547,305.84 768.4313,305.9947 Q769.0219,306.1354 769.5141,306.4588 Z " fill="#000000"/><text fill="#000000" font-family="sans-serif" font-size="12.6" lengthAdjust="spacing" textLength="137.7" x="785.475" y="315.3885">PostponeTaskController</text><line style="stroke:#181818;stroke-width:0.45;" x1="508.5" x2="1170.9" y1="324.5713" y2="324.5713"/><text fill="#000000" font-family="sans-serif" font-size="12.6" lengthAdjust="spacing" textLength="108.9" x="513" y="341.768">-agendaRepository</text><text fill="#000000" font-family="sans-serif" font-size="12.6" lengthAdjust="spacing" textLength="105.3" x="513" y="358.527">-vehicleRepository</text><text fill="#000000" font-family="sans-serif" font-size="12.6" lengthAdjust="spacing" textLength="93.6" x="513" y="375.2859">-teamRepository</text><line style="stroke:#181818;stroke-width:0.45;" x1="508.5" x2="1170.9" y1="382.0482" y2="382.0482"/><text fill="#000000" font-family="sans-serif" font-size="12.6" lengthAdjust="spacing" textLength="139.5" x="513" y="399.2449">+getAgendaRepository()</text><text fill="#000000" font-family="sans-serif" font-size="12.6" lengthAdjust="spacing" textLength="136.8" x="513" y="416.0039">+getVehicleRepository()</text><text fill="#000000" font-family="sans-serif" font-size="12.6" lengthAdjust="spacing" textLength="127.8" x="513" y="432.7629">+getTeamRepository()</text><text fill="#000000" font-family="sans-serif" font-size="12.6" lengthAdjust="spacing" textLength="153.9" x="513" y="449.5219">+PostponeTaskController()</text><text fill="#000000" font-family="sans-serif" font-size="12.6" lengthAdjust="spacing" textLength="653.4" x="513" y="466.2809">+postponeTask(AgendaTaskDTO selectedTask, String selectedDate,int workStartingHours,int workStartingMinutes)</text></g><!--class AgendaController--><g id="elem_AgendaController"><rect codeLine="34" fill="#F1F1F1" height="59.959" id="AgendaController" rx="2.25" ry="2.25" style="stroke:#181818;stroke-width:0.45;" width="214.2" x="261.9" y="354.2713"/><ellipse cx="315.225" cy="368.6713" fill="#ADD1B2" rx="9.9" ry="9.9" style="stroke:#181818;stroke-width:0.9;"/><path d="M317.7141,364.9588 Q317.8547,364.7619 318.0234,364.6635 Q318.1922,364.565 318.3891,364.565 Q318.7266,364.565 318.9375,364.8041 Q319.1484,365.0291 319.1484,365.5775 L319.1484,366.8854 Q319.1484,367.4338 318.9375,367.6729 Q318.7266,367.9119 318.3891,367.9119 Q318.0797,367.9119 317.8969,367.7291 Q317.7141,367.5604 317.6156,367.0963 Q317.5734,366.7729 317.4047,366.6041 Q317.1094,366.2666 316.5609,366.0697 Q316.0125,365.8729 315.45,365.8729 Q314.7609,365.8729 314.1844,366.1682 Q313.6219,366.4635 313.1719,367.1385 Q312.7359,367.8135 312.7359,368.7416 L312.7359,369.726 Q312.7359,370.8369 313.5375,371.5822 Q314.3391,372.3135 315.7734,372.3135 Q316.6172,372.3135 317.2078,372.0885 Q317.5594,371.9479 317.9391,371.5541 Q318.1781,371.315 318.3047,371.2447 Q318.4453,371.1744 318.6281,371.1744 Q318.9234,371.1744 319.1484,371.4135 Q319.3875,371.6385 319.3875,371.9479 Q319.3875,372.2572 319.0781,372.6229 Q318.6281,373.1432 317.9109,373.4385 Q316.9406,373.8463 315.7734,373.8463 Q314.4094,373.8463 313.3266,373.2838 Q312.4406,372.8338 311.8219,371.8775 Q311.2031,370.9072 311.2031,369.7541 L311.2031,368.7135 Q311.2031,367.5182 311.7516,366.4916 Q312.3141,365.451 313.2984,364.9025 Q314.2828,364.34 315.3938,364.34 Q316.0547,364.34 316.6313,364.4947 Q317.2219,364.6354 317.7141,364.9588 Z " fill="#000000"/><text fill="#000000" font-family="sans-serif" font-size="12.6" lengthAdjust="spacing" textLength="99.9" x="333.675" y="373.8885">AgendaController</text><line style="stroke:#181818;stroke-width:0.45;" x1="262.8" x2="475.2" y1="383.0713" y2="383.0713"/><line style="stroke:#181818;stroke-width:0.45;" x1="262.8" x2="475.2" y1="390.2713" y2="390.2713"/><text fill="#000000" font-family="sans-serif" font-size="12.6" lengthAdjust="spacing" textLength="203.4" x="267.3" y="407.468">+getAgendaTaskDTOManagerList()</text></g><!--class TeamRepository--><g id="elem_TeamRepository"><rect codeLine="41" fill="#F1F1F1" height="76.718" id="TeamRepository" rx="2.25" ry="2.25" style="stroke:#181818;stroke-width:0.45;" width="374.4" x="947.7" y="1284.8713"/><ellipse cx="1084.275" cy="1299.2713" fill="#ADD1B2" rx="9.9" ry="9.9" style="stroke:#181818;stroke-width:0.9;"/><path d="M1086.7641,1295.5588 Q1086.9047,1295.3619 1087.0734,1295.2635 Q1087.2422,1295.165 1087.4391,1295.165 Q1087.7766,1295.165 1087.9875,1295.4041 Q1088.1984,1295.6291 1088.1984,1296.1775 L1088.1984,1297.4854 Q1088.1984,1298.0338 1087.9875,1298.2729 Q1087.7766,1298.5119 1087.4391,1298.5119 Q1087.1297,1298.5119 1086.9469,1298.3291 Q1086.7641,1298.1604 1086.6656,1297.6963 Q1086.6234,1297.3729 1086.4547,1297.2041 Q1086.1594,1296.8666 1085.6109,1296.6697 Q1085.0625,1296.4729 1084.5,1296.4729 Q1083.8109,1296.4729 1083.2344,1296.7682 Q1082.6719,1297.0635 1082.2219,1297.7385 Q1081.7859,1298.4135 1081.7859,1299.3416 L1081.7859,1300.326 Q1081.7859,1301.4369 1082.5875,1302.1822 Q1083.3891,1302.9135 1084.8234,1302.9135 Q1085.6672,1302.9135 1086.2578,1302.6885 Q1086.6094,1302.5479 1086.9891,1302.1541 Q1087.2281,1301.915 1087.3547,1301.8447 Q1087.4953,1301.7744 1087.6781,1301.7744 Q1087.9734,1301.7744 1088.1984,1302.0135 Q1088.4375,1302.2385 1088.4375,1302.5479 Q1088.4375,1302.8572 1088.1281,1303.2229 Q1087.6781,1303.7432 1086.9609,1304.0385 Q1085.9906,1304.4463 1084.8234,1304.4463 Q1083.4594,1304.4463 1082.3766,1303.8838 Q1081.4906,1303.4338 1080.8719,1302.4775 Q1080.2531,1301.5072 1080.2531,1300.3541 L1080.2531,1299.3135 Q1080.2531,1298.1182 1080.8016,1297.0916 Q1081.3641,1296.051 1082.3484,1295.5025 Q1083.3328,1294.94 1084.4438,1294.94 Q1085.1047,1294.94 1085.6813,1295.0947 Q1086.2719,1295.2354 1086.7641,1295.5588 Z " fill="#000000"/><text fill="#000000" font-family="sans-serif" font-size="12.6" lengthAdjust="spacing" textLength="93.6" x="1102.725" y="1304.4885">TeamRepository</text><line style="stroke:#181818;stroke-width:0.45;" x1="948.6" x2="1321.2" y1="1313.6713" y2="1313.6713"/><text fill="#000000" font-family="sans-serif" font-size="12.6" lengthAdjust="spacing" textLength="122.4" x="953.1" y="1330.868">-List&lt;Team&gt; teamList</text><line style="stroke:#181818;stroke-width:0.45;" x1="948.6" x2="1321.2" y1="1337.6303" y2="1337.6303"/><text fill="#000000" font-family="sans-serif" font-size="12.6" lengthAdjust="spacing" textLength="363.6" x="953.1" y="1354.827">+removeWorkPeriodFromTeam(canceledTask, taskWorkPeriod)</text></g><!--class VehicleRepository--><g id="elem_VehicleRepository"><rect codeLine="47" fill="#F1F1F1" height="59.959" id="VehicleRepository" rx="2.25" ry="2.25" style="stroke:#181818;stroke-width:0.45;" width="383.4" x="532.8" y="1292.9713"/><ellipse cx="669.375" cy="1307.3713" fill="#ADD1B2" rx="9.9" ry="9.9" style="stroke:#181818;stroke-width:0.9;"/><path d="M671.8641,1303.6588 Q672.0047,1303.4619 672.1734,1303.3635 Q672.3422,1303.265 672.5391,1303.265 Q672.8766,1303.265 673.0875,1303.5041 Q673.2984,1303.7291 673.2984,1304.2775 L673.2984,1305.5854 Q673.2984,1306.1338 673.0875,1306.3729 Q672.8766,1306.6119 672.5391,1306.6119 Q672.2297,1306.6119 672.0469,1306.4291 Q671.8641,1306.2604 671.7656,1305.7963 Q671.7234,1305.4729 671.5547,1305.3041 Q671.2594,1304.9666 670.7109,1304.7697 Q670.1625,1304.5729 669.6,1304.5729 Q668.9109,1304.5729 668.3344,1304.8682 Q667.7719,1305.1635 667.3219,1305.8385 Q666.8859,1306.5135 666.8859,1307.4416 L666.8859,1308.426 Q666.8859,1309.5369 667.6875,1310.2822 Q668.4891,1311.0135 669.9234,1311.0135 Q670.7672,1311.0135 671.3578,1310.7885 Q671.7094,1310.6479 672.0891,1310.2541 Q672.3281,1310.015 672.4547,1309.9447 Q672.5953,1309.8744 672.7781,1309.8744 Q673.0734,1309.8744 673.2984,1310.1135 Q673.5375,1310.3385 673.5375,1310.6479 Q673.5375,1310.9572 673.2281,1311.3229 Q672.7781,1311.8432 672.0609,1312.1385 Q671.0906,1312.5463 669.9234,1312.5463 Q668.5594,1312.5463 667.4766,1311.9838 Q666.5906,1311.5338 665.9719,1310.5775 Q665.3531,1309.6072 665.3531,1308.4541 L665.3531,1307.4135 Q665.3531,1306.2182 665.9016,1305.1916 Q666.4641,1304.151 667.4484,1303.6025 Q668.4328,1303.04 669.5438,1303.04 Q670.2047,1303.04 670.7813,1303.1947 Q671.3719,1303.3354 671.8641,1303.6588 Z " fill="#000000"/><text fill="#000000" font-family="sans-serif" font-size="12.6" lengthAdjust="spacing" textLength="102.6" x="687.825" y="1312.5885">VehicleRepository</text><line style="stroke:#181818;stroke-width:0.45;" x1="533.7" x2="915.3" y1="1321.7713" y2="1321.7713"/><line style="stroke:#181818;stroke-width:0.45;" x1="533.7" x2="915.3" y1="1328.9713" y2="1328.9713"/><text fill="#000000" font-family="sans-serif" font-size="12.6" lengthAdjust="spacing" textLength="372.6" x="538.2" y="1346.168">+removeWorkPeriodFromVehicle(canceledTask, taskWorkPeriod)</text></g><!--class AgendaRepository--><g id="elem_AgendaRepository"><rect codeLine="51" fill="#F1F1F1" height="76.718" id="AgendaRepository" rx="2.25" ry="2.25" style="stroke:#181818;stroke-width:0.45;" width="389.7" x="111.15" y="1284.8713"/><ellipse cx="249.525" cy="1299.2713" fill="#ADD1B2" rx="9.9" ry="9.9" style="stroke:#181818;stroke-width:0.9;"/><path d="M252.0141,1295.5588 Q252.1547,1295.3619 252.3234,1295.2635 Q252.4922,1295.165 252.6891,1295.165 Q253.0266,1295.165 253.2375,1295.4041 Q253.4484,1295.6291 253.4484,1296.1775 L253.4484,1297.4854 Q253.4484,1298.0338 253.2375,1298.2729 Q253.0266,1298.5119 252.6891,1298.5119 Q252.3797,1298.5119 252.1969,1298.3291 Q252.0141,1298.1604 251.9156,1297.6963 Q251.8734,1297.3729 251.7047,1297.2041 Q251.4094,1296.8666 250.8609,1296.6697 Q250.3125,1296.4729 249.75,1296.4729 Q249.0609,1296.4729 248.4844,1296.7682 Q247.9219,1297.0635 247.4719,1297.7385 Q247.0359,1298.4135 247.0359,1299.3416 L247.0359,1300.326 Q247.0359,1301.4369 247.8375,1302.1822 Q248.6391,1302.9135 250.0734,1302.9135 Q250.9172,1302.9135 251.5078,1302.6885 Q251.8594,1302.5479 252.2391,1302.1541 Q252.4781,1301.915 252.6047,1301.8447 Q252.7453,1301.7744 252.9281,1301.7744 Q253.2234,1301.7744 253.4484,1302.0135 Q253.6875,1302.2385 253.6875,1302.5479 Q253.6875,1302.8572 253.3781,1303.2229 Q252.9281,1303.7432 252.2109,1304.0385 Q251.2406,1304.4463 250.0734,1304.4463 Q248.7094,1304.4463 247.6266,1303.8838 Q246.7406,1303.4338 246.1219,1302.4775 Q245.5031,1301.5072 245.5031,1300.3541 L245.5031,1299.3135 Q245.5031,1298.1182 246.0516,1297.0916 Q246.6141,1296.051 247.5984,1295.5025 Q248.5828,1294.94 249.6938,1294.94 Q250.3547,1294.94 250.9313,1295.0947 Q251.5219,1295.2354 252.0141,1295.5588 Z " fill="#000000"/><text fill="#000000" font-family="sans-serif" font-size="12.6" lengthAdjust="spacing" textLength="105.3" x="267.975" y="1304.4885">AgendaRepository</text><line style="stroke:#181818;stroke-width:0.45;" x1="112.05" x2="499.95" y1="1313.6713" y2="1313.6713"/><text fill="#000000" font-family="sans-serif" font-size="12.6" lengthAdjust="spacing" textLength="113.4" x="116.55" y="1330.868">-List&lt;Task&gt; agenda</text><line style="stroke:#181818;stroke-width:0.45;" x1="112.05" x2="499.95" y1="1337.6303" y2="1337.6303"/><text fill="#000000" font-family="sans-serif" font-size="12.6" lengthAdjust="spacing" textLength="378.9" x="116.55" y="1354.827">+updateTaskToCanceled(title, greenSpace, executionDate, status)</text></g><!--class Repositories--><g id="elem_Repositories"><rect codeLine="56" fill="#F1F1F1" height="126.9949" id="Repositories" rx="2.25" ry="2.25" style="stroke:#181818;stroke-width:0.45;" width="174.6" x="512.1" y="920.3713"/><ellipse cx="560.025" cy="934.7713" fill="#ADD1B2" rx="9.9" ry="9.9" style="stroke:#181818;stroke-width:0.9;"/><path d="M562.5141,931.0588 Q562.6547,930.8619 562.8234,930.7635 Q562.9922,930.665 563.1891,930.665 Q563.5266,930.665 563.7375,930.9041 Q563.9484,931.1291 563.9484,931.6775 L563.9484,932.9854 Q563.9484,933.5338 563.7375,933.7729 Q563.5266,934.0119 563.1891,934.0119 Q562.8797,934.0119 562.6969,933.8291 Q562.5141,933.6604 562.4156,933.1963 Q562.3734,932.8729 562.2047,932.7041 Q561.9094,932.3666 561.3609,932.1697 Q560.8125,931.9729 560.25,931.9729 Q559.5609,931.9729 558.9844,932.2682 Q558.4219,932.5635 557.9719,933.2385 Q557.5359,933.9135 557.5359,934.8416 L557.5359,935.826 Q557.5359,936.9369 558.3375,937.6822 Q559.1391,938.4135 560.5734,938.4135 Q561.4172,938.4135 562.0078,938.1885 Q562.3594,938.0479 562.7391,937.6541 Q562.9781,937.415 563.1047,937.3447 Q563.2453,937.2744 563.4281,937.2744 Q563.7234,937.2744 563.9484,937.5135 Q564.1875,937.7385 564.1875,938.0479 Q564.1875,938.3572 563.8781,938.7229 Q563.4281,939.2432 562.7109,939.5385 Q561.7406,939.9463 560.5734,939.9463 Q559.2094,939.9463 558.1266,939.3838 Q557.2406,938.9338 556.6219,937.9775 Q556.0031,937.0072 556.0031,935.8541 L556.0031,934.8135 Q556.0031,933.6182 556.5516,932.5916 Q557.1141,931.551 558.0984,931.0025 Q559.0828,930.44 560.1938,930.44 Q560.8547,930.44 561.4313,930.5947 Q562.0219,930.7354 562.5141,931.0588 Z " fill="#000000"/><text fill="#000000" font-family="sans-serif" font-size="12.6" lengthAdjust="spacing" textLength="71.1" x="578.475" y="939.9885">Repositories</text><line style="stroke:#181818;stroke-width:0.45;" x1="513" x2="685.8" y1="949.1713" y2="949.1713"/><line style="stroke:#181818;stroke-width:0.45;" x1="513" x2="685.8" y1="956.3713" y2="956.3713"/><text fill="#000000" font-family="sans-serif" font-size="12.6" lengthAdjust="spacing" textLength="84.6" x="517.5" y="973.568">-Repositories()</text><text fill="#000000" font-family="sans-serif" font-size="12.6" lengthAdjust="spacing" textLength="163.8" x="517.5" y="990.327">+getInstance() : Repositories</text><text fill="#000000" font-family="sans-serif" font-size="12.6" lengthAdjust="spacing" textLength="127.8" x="517.5" y="1007.0859">+getTeamRepository()</text><text fill="#000000" font-family="sans-serif" font-size="12.6" lengthAdjust="spacing" textLength="139.5" x="517.5" y="1023.8449">+getAgendaRepository()</text><text fill="#000000" font-family="sans-serif" font-size="12.6" lengthAdjust="spacing" textLength="136.8" x="517.5" y="1040.6039">+getVehicleRepository()</text></g><!--class ApplicationSession--><g id="elem_ApplicationSession"><rect codeLine="64" fill="#F1F1F1" height="110.2359" id="ApplicationSession" rx="2.25" ry="2.25" style="stroke:#181818;stroke-width:0.45;" width="210.6" x="198.9" y="928.9213"/><ellipse cx="246.825" cy="943.3213" fill="#ADD1B2" rx="9.9" ry="9.9" style="stroke:#181818;stroke-width:0.9;"/><path d="M249.3141,939.6088 Q249.4547,939.4119 249.6234,939.3135 Q249.7922,939.215 249.9891,939.215 Q250.3266,939.215 250.5375,939.4541 Q250.7484,939.6791 250.7484,940.2275 L250.7484,941.5354 Q250.7484,942.0838 250.5375,942.3229 Q250.3266,942.5619 249.9891,942.5619 Q249.6797,942.5619 249.4969,942.3791 Q249.3141,942.2104 249.2156,941.7463 Q249.1734,941.4229 249.0047,941.2541 Q248.7094,940.9166 248.1609,940.7197 Q247.6125,940.5229 247.05,940.5229 Q246.3609,940.5229 245.7844,940.8182 Q245.2219,941.1135 244.7719,941.7885 Q244.3359,942.4635 244.3359,943.3916 L244.3359,944.376 Q244.3359,945.4869 245.1375,946.2322 Q245.9391,946.9635 247.3734,946.9635 Q248.2172,946.9635 248.8078,946.7385 Q249.1594,946.5979 249.5391,946.2041 Q249.7781,945.965 249.9047,945.8947 Q250.0453,945.8244 250.2281,945.8244 Q250.5234,945.8244 250.7484,946.0635 Q250.9875,946.2885 250.9875,946.5979 Q250.9875,946.9072 250.6781,947.2729 Q250.2281,947.7932 249.5109,948.0885 Q248.5406,948.4963 247.3734,948.4963 Q246.0094,948.4963 244.9266,947.9338 Q244.0406,947.4838 243.4219,946.5275 Q242.8031,945.5572 242.8031,944.4041 L242.8031,943.3635 Q242.8031,942.1682 243.3516,941.1416 Q243.9141,940.101 244.8984,939.5525 Q245.8828,938.99 246.9938,938.99 Q247.6547,938.99 248.2313,939.1447 Q248.8219,939.2854 249.3141,939.6088 Z " fill="#000000"/><text fill="#000000" font-family="sans-serif" font-size="12.6" lengthAdjust="spacing" textLength="107.1" x="265.275" y="948.5385">ApplicationSession</text><line style="stroke:#181818;stroke-width:0.45;" x1="199.8" x2="408.6" y1="957.7213" y2="957.7213"/><line style="stroke:#181818;stroke-width:0.45;" x1="199.8" x2="408.6" y1="964.9213" y2="964.9213"/><text fill="#000000" font-family="sans-serif" font-size="12.6" lengthAdjust="spacing" textLength="120.6" x="204.3" y="982.118">-ApplicationSession()</text><text fill="#000000" font-family="sans-serif" font-size="12.6" lengthAdjust="spacing" textLength="199.8" x="204.3" y="998.877">+getInstance() : ApplicationSession</text><text fill="#000000" font-family="sans-serif" font-size="12.6" lengthAdjust="spacing" textLength="176.4" x="204.3" y="1015.6359">+getAuthenticationRepository()</text><text fill="#000000" font-family="sans-serif" font-size="12.6" lengthAdjust="spacing" textLength="122.4" x="204.3" y="1032.3949">+getCurrentSession()</text></g><!--class UserSession--><g id="elem_UserSession"><rect codeLine="72" fill="#F1F1F1" height="59.959" id="UserSession" rx="2.25" ry="2.25" style="stroke:#181818;stroke-width:0.45;" width="101.7" x="145.35" y="1143.1213"/><ellipse cx="159.66" cy="1157.5213" fill="#ADD1B2" rx="9.9" ry="9.9" style="stroke:#181818;stroke-width:0.9;"/><path d="M162.1491,1153.8088 Q162.2897,1153.6119 162.4584,1153.5135 Q162.6272,1153.415 162.8241,1153.415 Q163.1616,1153.415 163.3725,1153.6541 Q163.5834,1153.8791 163.5834,1154.4275 L163.5834,1155.7354 Q163.5834,1156.2838 163.3725,1156.5229 Q163.1616,1156.7619 162.8241,1156.7619 Q162.5147,1156.7619 162.3319,1156.5791 Q162.1491,1156.4104 162.0506,1155.9463 Q162.0084,1155.6229 161.8397,1155.4541 Q161.5444,1155.1166 160.9959,1154.9197 Q160.4475,1154.7229 159.885,1154.7229 Q159.1959,1154.7229 158.6194,1155.0182 Q158.0569,1155.3135 157.6069,1155.9885 Q157.1709,1156.6635 157.1709,1157.5916 L157.1709,1158.576 Q157.1709,1159.6869 157.9725,1160.4322 Q158.7741,1161.1635 160.2084,1161.1635 Q161.0522,1161.1635 161.6428,1160.9385 Q161.9944,1160.7979 162.3741,1160.4041 Q162.6131,1160.165 162.7397,1160.0947 Q162.8803,1160.0244 163.0631,1160.0244 Q163.3584,1160.0244 163.5834,1160.2635 Q163.8225,1160.4885 163.8225,1160.7979 Q163.8225,1161.1072 163.5131,1161.4729 Q163.0631,1161.9932 162.3459,1162.2885 Q161.3756,1162.6963 160.2084,1162.6963 Q158.8444,1162.6963 157.7616,1162.1338 Q156.8756,1161.6838 156.2569,1160.7275 Q155.6381,1159.7572 155.6381,1158.6041 L155.6381,1157.5635 Q155.6381,1156.3682 156.1866,1155.3416 Q156.7491,1154.301 157.7334,1153.7525 Q158.7178,1153.19 159.8288,1153.19 Q160.4897,1153.19 161.0663,1153.3447 Q161.6569,1153.4854 162.1491,1153.8088 Z " fill="#000000"/><text fill="#000000" font-family="sans-serif" font-size="12.6" lengthAdjust="spacing" textLength="71.1" x="172.44" y="1162.7385">UserSession</text><line style="stroke:#181818;stroke-width:0.45;" x1="146.25" x2="246.15" y1="1171.9213" y2="1171.9213"/><line style="stroke:#181818;stroke-width:0.45;" x1="146.25" x2="246.15" y1="1179.1213" y2="1179.1213"/><text fill="#000000" font-family="sans-serif" font-size="12.6" lengthAdjust="spacing" textLength="90.9" x="150.75" y="1196.318">+getUserEmail()</text></g><!--class Email--><g id="elem_Email"><rect codeLine="77" fill="#F1F1F1" height="43.2" id="Email" rx="2.25" ry="2.25" style="stroke:#181818;stroke-width:0.45;" width="59.4" x="19.8" y="1301.5213"/><ellipse cx="33.3" cy="1315.9213" fill="#ADD1B2" rx="9.9" ry="9.9" style="stroke:#181818;stroke-width:0.9;"/><path d="M35.7891,1312.2088 Q35.9297,1312.0119 36.0984,1311.9135 Q36.2672,1311.815 36.4641,1311.815 Q36.8016,1311.815 37.0125,1312.0541 Q37.2234,1312.2791 37.2234,1312.8275 L37.2234,1314.1354 Q37.2234,1314.6838 37.0125,1314.9229 Q36.8016,1315.1619 36.4641,1315.1619 Q36.1547,1315.1619 35.9719,1314.9791 Q35.7891,1314.8104 35.6906,1314.3463 Q35.6484,1314.0229 35.4797,1313.8541 Q35.1844,1313.5166 34.6359,1313.3197 Q34.0875,1313.1229 33.525,1313.1229 Q32.8359,1313.1229 32.2594,1313.4182 Q31.6969,1313.7135 31.2469,1314.3885 Q30.8109,1315.0635 30.8109,1315.9916 L30.8109,1316.976 Q30.8109,1318.0869 31.6125,1318.8322 Q32.4141,1319.5635 33.8484,1319.5635 Q34.6922,1319.5635 35.2828,1319.3385 Q35.6344,1319.1979 36.0141,1318.8041 Q36.2531,1318.565 36.3797,1318.4947 Q36.5203,1318.4244 36.7031,1318.4244 Q36.9984,1318.4244 37.2234,1318.6635 Q37.4625,1318.8885 37.4625,1319.1979 Q37.4625,1319.5072 37.1531,1319.8729 Q36.7031,1320.3932 35.9859,1320.6885 Q35.0156,1321.0963 33.8484,1321.0963 Q32.4844,1321.0963 31.4016,1320.5338 Q30.5156,1320.0838 29.8969,1319.1275 Q29.2781,1318.1572 29.2781,1317.0041 L29.2781,1315.9635 Q29.2781,1314.7682 29.8266,1313.7416 Q30.3891,1312.701 31.3734,1312.1525 Q32.3578,1311.59 33.4688,1311.59 Q34.1297,1311.59 34.7063,1311.7447 Q35.2969,1311.8854 35.7891,1312.2088 Z " fill="#000000"/><text fill="#000000" font-family="sans-serif" font-size="12.6" lengthAdjust="spacing" textLength="30.6" x="45.9" y="1321.1385">Email</text><line style="stroke:#181818;stroke-width:0.45;" x1="20.7" x2="78.3" y1="1330.3213" y2="1330.3213"/><line style="stroke:#181818;stroke-width:0.45;" x1="20.7" x2="78.3" y1="1337.5213" y2="1337.5213"/></g><!--class Vehicle--><g id="elem_Vehicle"><rect codeLine="85" fill="#F1F1F1" height="160.5129" id="Vehicle" rx="2.25" ry="2.25" style="stroke:#181818;stroke-width:0.45;" width="258.3" x="595.35" y="1463.5213"/><ellipse cx="699.975" cy="1477.9213" fill="#ADD1B2" rx="9.9" ry="9.9" style="stroke:#181818;stroke-width:0.9;"/><path d="M702.4641,1474.2088 Q702.6047,1474.0119 702.7734,1473.9135 Q702.9422,1473.815 703.1391,1473.815 Q703.4766,1473.815 703.6875,1474.0541 Q703.8984,1474.2791 703.8984,1474.8275 L703.8984,1476.1354 Q703.8984,1476.6838 703.6875,1476.9229 Q703.4766,1477.1619 703.1391,1477.1619 Q702.8297,1477.1619 702.6469,1476.9791 Q702.4641,1476.8104 702.3656,1476.3463 Q702.3234,1476.0229 702.1547,1475.8541 Q701.8594,1475.5166 701.3109,1475.3197 Q700.7625,1475.1229 700.2,1475.1229 Q699.5109,1475.1229 698.9344,1475.4182 Q698.3719,1475.7135 697.9219,1476.3885 Q697.4859,1477.0635 697.4859,1477.9916 L697.4859,1478.976 Q697.4859,1480.0869 698.2875,1480.8322 Q699.0891,1481.5635 700.5234,1481.5635 Q701.3672,1481.5635 701.9578,1481.3385 Q702.3094,1481.1979 702.6891,1480.8041 Q702.9281,1480.565 703.0547,1480.4947 Q703.1953,1480.4244 703.3781,1480.4244 Q703.6734,1480.4244 703.8984,1480.6635 Q704.1375,1480.8885 704.1375,1481.1979 Q704.1375,1481.5072 703.8281,1481.8729 Q703.3781,1482.3932 702.6609,1482.6885 Q701.6906,1483.0963 700.5234,1483.0963 Q699.1594,1483.0963 698.0766,1482.5338 Q697.1906,1482.0838 696.5719,1481.1275 Q695.9531,1480.1572 695.9531,1479.0041 L695.9531,1477.9635 Q695.9531,1476.7682 696.5016,1475.7416 Q697.0641,1474.701 698.0484,1474.1525 Q699.0328,1473.59 700.1438,1473.59 Q700.8047,1473.59 701.3813,1473.7447 Q701.9719,1473.8854 702.4641,1474.2088 Z " fill="#000000"/><text fill="#000000" font-family="sans-serif" font-size="12.6" lengthAdjust="spacing" textLength="41.4" x="718.425" y="1483.1385">Vehicle</text><line style="stroke:#181818;stroke-width:0.45;" x1="596.25" x2="852.75" y1="1492.3213" y2="1492.3213"/><text fill="#000000" font-family="sans-serif" font-size="12.6" lengthAdjust="spacing" textLength="81.9" x="600.75" y="1509.518">+String plateId</text><text fill="#000000" font-family="sans-serif" font-size="12.6" lengthAdjust="spacing" textLength="77.4" x="600.75" y="1526.277">+String brand</text><text fill="#000000" font-family="sans-serif" font-size="12.6" lengthAdjust="spacing" textLength="78.3" x="600.75" y="1543.0359">+String model</text><text fill="#000000" font-family="sans-serif" font-size="12.6" lengthAdjust="spacing" textLength="105.3" x="600.75" y="1559.7949">+VehicleType type</text><text fill="#000000" font-family="sans-serif" font-size="12.6" lengthAdjust="spacing" textLength="72" x="600.75" y="1576.5539">+double tare</text><text fill="#000000" font-family="sans-serif" font-size="12.6" lengthAdjust="spacing" textLength="10.8" x="600.75" y="1593.3129">...</text><line style="stroke:#181818;stroke-width:0.45;" x1="596.25" x2="852.75" y1="1600.0752" y2="1600.0752"/><text fill="#000000" font-family="sans-serif" font-size="12.6" lengthAdjust="spacing" textLength="247.5" x="600.75" y="1617.2719">+removeWorkPeriodIfExists(oldWorkPeriod)</text></g><!--class Team--><g id="elem_Team"><rect codeLine="96" fill="#F1F1F1" height="93.477" id="Team" rx="2.25" ry="2.25" style="stroke:#181818;stroke-width:0.45;" width="237.6" x="885.6" y="1496.8213"/><ellipse cx="984.375" cy="1511.2213" fill="#ADD1B2" rx="9.9" ry="9.9" style="stroke:#181818;stroke-width:0.9;"/><path d="M986.8641,1507.5088 Q987.0047,1507.3119 987.1734,1507.2135 Q987.3422,1507.115 987.5391,1507.115 Q987.8766,1507.115 988.0875,1507.3541 Q988.2984,1507.5791 988.2984,1508.1275 L988.2984,1509.4354 Q988.2984,1509.9838 988.0875,1510.2229 Q987.8766,1510.4619 987.5391,1510.4619 Q987.2297,1510.4619 987.0469,1510.2791 Q986.8641,1510.1104 986.7656,1509.6463 Q986.7234,1509.3229 986.5547,1509.1541 Q986.2594,1508.8166 985.7109,1508.6197 Q985.1625,1508.4229 984.6,1508.4229 Q983.9109,1508.4229 983.3344,1508.7182 Q982.7719,1509.0135 982.3219,1509.6885 Q981.8859,1510.3635 981.8859,1511.2916 L981.8859,1512.276 Q981.8859,1513.3869 982.6875,1514.1322 Q983.4891,1514.8635 984.9234,1514.8635 Q985.7672,1514.8635 986.3578,1514.6385 Q986.7094,1514.4979 987.0891,1514.1041 Q987.3281,1513.865 987.4547,1513.7947 Q987.5953,1513.7244 987.7781,1513.7244 Q988.0734,1513.7244 988.2984,1513.9635 Q988.5375,1514.1885 988.5375,1514.4979 Q988.5375,1514.8072 988.2281,1515.1729 Q987.7781,1515.6932 987.0609,1515.9885 Q986.0906,1516.3963 984.9234,1516.3963 Q983.5594,1516.3963 982.4766,1515.8338 Q981.5906,1515.3838 980.9719,1514.4275 Q980.3531,1513.4572 980.3531,1512.3041 L980.3531,1511.2635 Q980.3531,1510.0682 980.9016,1509.0416 Q981.4641,1508.001 982.4484,1507.4525 Q983.4328,1506.89 984.5438,1506.89 Q985.2047,1506.89 985.7813,1507.0447 Q986.3719,1507.1854 986.8641,1507.5088 Z " fill="#000000"/><text fill="#000000" font-family="sans-serif" font-size="12.6" lengthAdjust="spacing" textLength="32.4" x="1002.825" y="1516.4385">Team</text><line style="stroke:#181818;stroke-width:0.45;" x1="886.5" x2="1122.3" y1="1525.6213" y2="1525.6213"/><text fill="#000000" font-family="sans-serif" font-size="12.6" lengthAdjust="spacing" textLength="164.7" x="891" y="1542.818">-List&lt;Collaborator&gt; members</text><text fill="#000000" font-family="sans-serif" font-size="12.6" lengthAdjust="spacing" textLength="178.2" x="891" y="1559.577">-List&lt;WorkPeriod&gt; workPeriods</text><line style="stroke:#181818;stroke-width:0.45;" x1="886.5" x2="1122.3" y1="1566.3393" y2="1566.3393"/><text fill="#000000" font-family="sans-serif" font-size="12.6" lengthAdjust="spacing" textLength="226.8" x="891" y="1583.5359">+removeWorkPeriodIfExists(workPeriod)</text></g><!--class Task--><g id="elem_Task"><rect codeLine="103" fill="#F1F1F1" height="177.2719" id="Task" rx="2.25" ry="2.25" style="stroke:#181818;stroke-width:0.45;" width="279" x="284.4" y="1454.9713"/><ellipse cx="406.125" cy="1469.3713" fill="#ADD1B2" rx="9.9" ry="9.9" style="stroke:#181818;stroke-width:0.9;"/><path d="M408.6141,1465.6588 Q408.7547,1465.4619 408.9234,1465.3635 Q409.0922,1465.265 409.2891,1465.265 Q409.6266,1465.265 409.8375,1465.5041 Q410.0484,1465.7291 410.0484,1466.2775 L410.0484,1467.5854 Q410.0484,1468.1338 409.8375,1468.3729 Q409.6266,1468.6119 409.2891,1468.6119 Q408.9797,1468.6119 408.7969,1468.4291 Q408.6141,1468.2604 408.5156,1467.7963 Q408.4734,1467.4729 408.3047,1467.3041 Q408.0094,1466.9666 407.4609,1466.7697 Q406.9125,1466.5729 406.35,1466.5729 Q405.6609,1466.5729 405.0844,1466.8682 Q404.5219,1467.1635 404.0719,1467.8385 Q403.6359,1468.5135 403.6359,1469.4416 L403.6359,1470.426 Q403.6359,1471.5369 404.4375,1472.2822 Q405.2391,1473.0135 406.6734,1473.0135 Q407.5172,1473.0135 408.1078,1472.7885 Q408.4594,1472.6479 408.8391,1472.2541 Q409.0781,1472.015 409.2047,1471.9447 Q409.3453,1471.8744 409.5281,1471.8744 Q409.8234,1471.8744 410.0484,1472.1135 Q410.2875,1472.3385 410.2875,1472.6479 Q410.2875,1472.9572 409.9781,1473.3229 Q409.5281,1473.8432 408.8109,1474.1385 Q407.8406,1474.5463 406.6734,1474.5463 Q405.3094,1474.5463 404.2266,1473.9838 Q403.3406,1473.5338 402.7219,1472.5775 Q402.1031,1471.6072 402.1031,1470.4541 L402.1031,1469.4135 Q402.1031,1468.2182 402.6516,1467.1916 Q403.2141,1466.151 404.1984,1465.6025 Q405.1828,1465.04 406.2938,1465.04 Q406.9547,1465.04 407.5313,1465.1947 Q408.1219,1465.3354 408.6141,1465.6588 Z " fill="#000000"/><text fill="#000000" font-family="sans-serif" font-size="12.6" lengthAdjust="spacing" textLength="27.9" x="424.575" y="1474.5885">Task</text><line style="stroke:#181818;stroke-width:0.45;" x1="285.3" x2="562.5" y1="1483.7713" y2="1483.7713"/><text fill="#000000" font-family="sans-serif" font-size="12.6" lengthAdjust="spacing" textLength="64.8" x="289.8" y="1500.968">-String title;</text><text fill="#000000" font-family="sans-serif" font-size="12.6" lengthAdjust="spacing" textLength="107.1" x="289.8" y="1517.727">-String description;</text><text fill="#000000" font-family="sans-serif" font-size="12.6" lengthAdjust="spacing" textLength="120.6" x="289.8" y="1534.4859">-TaskType taskType;</text><text fill="#000000" font-family="sans-serif" font-size="12.6" lengthAdjust="spacing" textLength="81.9" x="289.8" y="1551.2449">-Status status;</text><text fill="#000000" font-family="sans-serif" font-size="12.6" lengthAdjust="spacing" textLength="10.8" x="289.8" y="1568.0039">...</text><line style="stroke:#181818;stroke-width:0.45;" x1="285.3" x2="562.5" y1="1574.7662" y2="1574.7662"/><text fill="#000000" font-family="sans-serif" font-size="12.6" lengthAdjust="spacing" textLength="268.2" x="289.8" y="1591.9629">+Task(title, description, taskType, greenSpace,</text><text fill="#000000" font-family="sans-serif" font-size="12.6" lengthAdjust="spacing" textLength="175.5" x="289.8" y="1608.7219">urgency, days, hours, minutes)</text><text fill="#000000" font-family="sans-serif" font-size="12.6" lengthAdjust="spacing" textLength="19.8" x="289.8" y="1625.4809">(...)</text></g><!--class WorkPeriod--><g id="elem_WorkPeriod"><rect codeLine="114" fill="#F1F1F1" height="143.7539" id="WorkPeriod" rx="2.25" ry="2.25" style="stroke:#181818;stroke-width:0.45;" width="128.7" x="670.05" y="1918.4713"/><ellipse cx="698.535" cy="1932.8713" fill="#ADD1B2" rx="9.9" ry="9.9" style="stroke:#181818;stroke-width:0.9;"/><path d="M701.0241,1929.1588 Q701.1647,1928.9619 701.3334,1928.8635 Q701.5022,1928.765 701.6991,1928.765 Q702.0366,1928.765 702.2475,1929.0041 Q702.4584,1929.2291 702.4584,1929.7775 L702.4584,1931.0854 Q702.4584,1931.6338 702.2475,1931.8729 Q702.0366,1932.1119 701.6991,1932.1119 Q701.3897,1932.1119 701.2069,1931.9291 Q701.0241,1931.7604 700.9256,1931.2963 Q700.8834,1930.9729 700.7147,1930.8041 Q700.4194,1930.4666 699.8709,1930.2697 Q699.3225,1930.0729 698.76,1930.0729 Q698.0709,1930.0729 697.4944,1930.3682 Q696.9319,1930.6635 696.4819,1931.3385 Q696.0459,1932.0135 696.0459,1932.9416 L696.0459,1933.926 Q696.0459,1935.0369 696.8475,1935.7822 Q697.6491,1936.5135 699.0834,1936.5135 Q699.9272,1936.5135 700.5178,1936.2885 Q700.8694,1936.1479 701.2491,1935.7541 Q701.4881,1935.515 701.6147,1935.4447 Q701.7553,1935.3744 701.9381,1935.3744 Q702.2334,1935.3744 702.4584,1935.6135 Q702.6975,1935.8385 702.6975,1936.1479 Q702.6975,1936.4572 702.3881,1936.8229 Q701.9381,1937.3432 701.2209,1937.6385 Q700.2506,1938.0463 699.0834,1938.0463 Q697.7194,1938.0463 696.6366,1937.4838 Q695.7506,1937.0338 695.1319,1936.0775 Q694.5131,1935.1072 694.5131,1933.9541 L694.5131,1932.9135 Q694.5131,1931.7182 695.0616,1930.6916 Q695.6241,1929.651 696.6084,1929.1025 Q697.5928,1928.54 698.7038,1928.54 Q699.3647,1928.54 699.9413,1928.6947 Q700.5319,1928.8354 701.0241,1929.1588 Z " fill="#000000"/><text fill="#000000" font-family="sans-serif" font-size="12.6" lengthAdjust="spacing" textLength="66.6" x="714.465" y="1938.0885">WorkPeriod</text><line style="stroke:#181818;stroke-width:0.45;" x1="670.95" x2="797.85" y1="1947.2713" y2="1947.2713"/><text fill="#000000" font-family="sans-serif" font-size="12.6" lengthAdjust="spacing" textLength="117.9" x="675.45" y="1964.468">+Date workStartDate</text><text fill="#000000" font-family="sans-serif" font-size="12.6" lengthAdjust="spacing" textLength="104.4" x="675.45" y="1981.227">+int workStartHour</text><text fill="#000000" font-family="sans-serif" font-size="12.6" lengthAdjust="spacing" textLength="97.2" x="675.45" y="1997.9859">+int workStartMin</text><text fill="#000000" font-family="sans-serif" font-size="12.6" lengthAdjust="spacing" textLength="113.4" x="675.45" y="2014.7449">+Date workEndDate</text><text fill="#000000" font-family="sans-serif" font-size="12.6" lengthAdjust="spacing" textLength="99.9" x="675.45" y="2031.5039">+int workEndHour</text><text fill="#000000" font-family="sans-serif" font-size="12.6" lengthAdjust="spacing" textLength="92.7" x="675.45" y="2048.2629">+int workEndMin</text><line style="stroke:#181818;stroke-width:0.45;" x1="670.95" x2="797.85" y1="2055.0252" y2="2055.0252"/></g><!--class TaskDuration--><g id="elem_TaskDuration"><rect codeLine="124" fill="#F1F1F1" height="160.5129" id="TaskDuration" rx="2.25" ry="2.25" style="stroke:#181818;stroke-width:0.45;" width="262.8" x="288" y="1703.3713"/><ellipse cx="377.325" cy="1717.7713" fill="#ADD1B2" rx="9.9" ry="9.9" style="stroke:#181818;stroke-width:0.9;"/><path d="M379.8141,1714.0588 Q379.9547,1713.8619 380.1234,1713.7635 Q380.2922,1713.665 380.4891,1713.665 Q380.8266,1713.665 381.0375,1713.9041 Q381.2484,1714.1291 381.2484,1714.6775 L381.2484,1715.9854 Q381.2484,1716.5338 381.0375,1716.7729 Q380.8266,1717.0119 380.4891,1717.0119 Q380.1797,1717.0119 379.9969,1716.8291 Q379.8141,1716.6604 379.7156,1716.1963 Q379.6734,1715.8729 379.5047,1715.7041 Q379.2094,1715.3666 378.6609,1715.1697 Q378.1125,1714.9729 377.55,1714.9729 Q376.8609,1714.9729 376.2844,1715.2682 Q375.7219,1715.5635 375.2719,1716.2385 Q374.8359,1716.9135 374.8359,1717.8416 L374.8359,1718.826 Q374.8359,1719.9369 375.6375,1720.6822 Q376.4391,1721.4135 377.8734,1721.4135 Q378.7172,1721.4135 379.3078,1721.1885 Q379.6594,1721.0479 380.0391,1720.6541 Q380.2781,1720.415 380.4047,1720.3447 Q380.5453,1720.2744 380.7281,1720.2744 Q381.0234,1720.2744 381.2484,1720.5135 Q381.4875,1720.7385 381.4875,1721.0479 Q381.4875,1721.3572 381.1781,1721.7229 Q380.7281,1722.2432 380.0109,1722.5385 Q379.0406,1722.9463 377.8734,1722.9463 Q376.5094,1722.9463 375.4266,1722.3838 Q374.5406,1721.9338 373.9219,1720.9775 Q373.3031,1720.0072 373.3031,1718.8541 L373.3031,1717.8135 Q373.3031,1716.6182 373.8516,1715.5916 Q374.4141,1714.551 375.3984,1714.0025 Q376.3828,1713.44 377.4938,1713.44 Q378.1547,1713.44 378.7313,1713.5947 Q379.3219,1713.7354 379.8141,1714.0588 Z " fill="#000000"/><text fill="#000000" font-family="sans-serif" font-size="12.6" lengthAdjust="spacing" textLength="76.5" x="395.775" y="1722.9885">TaskDuration</text><line style="stroke:#181818;stroke-width:0.45;" x1="288.9" x2="549.9" y1="1732.1713" y2="1732.1713"/><text fill="#000000" font-family="sans-serif" font-size="12.6" lengthAdjust="spacing" textLength="52.2" x="293.4" y="1749.368">-int days;</text><text fill="#000000" font-family="sans-serif" font-size="12.6" lengthAdjust="spacing" textLength="57.6" x="293.4" y="1766.127">-int hours;</text><text fill="#000000" font-family="sans-serif" font-size="12.6" lengthAdjust="spacing" textLength="69.3" x="293.4" y="1782.8859">-int minutes;</text><text fill="#000000" font-family="sans-serif" font-size="12.6" lengthAdjust="spacing" textLength="142.2" x="293.4" y="1799.6449">-int totalDurationMinutes;</text><line style="stroke:#181818;stroke-width:0.45;" x1="288.9" x2="549.9" y1="1806.4072" y2="1806.4072"/><text fill="#000000" font-family="sans-serif" font-size="12.6" lengthAdjust="spacing" textLength="210.6" x="293.4" y="1823.6039">+TaskDuration(days, hours, minutes)</text><text fill="#000000" font-family="sans-serif" font-size="12.6" lengthAdjust="spacing" textLength="227.7" x="293.4" y="1840.3629">+setTaskDuration(days, hours, minutes)</text><text fill="#000000" font-family="sans-serif" font-size="12.6" lengthAdjust="spacing" textLength="252" x="293.4" y="1857.1219">-validateTaskDuration(days, hours, minutes)</text></g><!--class AgendaMapper--><g id="elem_AgendaMapper"><rect codeLine="141" fill="#F1F1F1" height="76.718" id="AgendaMapper" rx="2.25" ry="2.25" style="stroke:#181818;stroke-width:0.45;" width="397.8" x="1296.9" y="346.1713"/><ellipse cx="1448.325" cy="360.5713" fill="#ADD1B2" rx="9.9" ry="9.9" style="stroke:#181818;stroke-width:0.9;"/><path d="M1450.8141,356.8588 Q1450.9547,356.6619 1451.1234,356.5635 Q1451.2922,356.465 1451.4891,356.465 Q1451.8266,356.465 1452.0375,356.7041 Q1452.2484,356.9291 1452.2484,357.4775 L1452.2484,358.7854 Q1452.2484,359.3338 1452.0375,359.5729 Q1451.8266,359.8119 1451.4891,359.8119 Q1451.1797,359.8119 1450.9969,359.6291 Q1450.8141,359.4604 1450.7156,358.9963 Q1450.6734,358.6729 1450.5047,358.5041 Q1450.2094,358.1666 1449.6609,357.9697 Q1449.1125,357.7729 1448.55,357.7729 Q1447.8609,357.7729 1447.2844,358.0682 Q1446.7219,358.3635 1446.2719,359.0385 Q1445.8359,359.7135 1445.8359,360.6416 L1445.8359,361.626 Q1445.8359,362.7369 1446.6375,363.4822 Q1447.4391,364.2135 1448.8734,364.2135 Q1449.7172,364.2135 1450.3078,363.9885 Q1450.6594,363.8479 1451.0391,363.4541 Q1451.2781,363.215 1451.4047,363.1447 Q1451.5453,363.0744 1451.7281,363.0744 Q1452.0234,363.0744 1452.2484,363.3135 Q1452.4875,363.5385 1452.4875,363.8479 Q1452.4875,364.1572 1452.1781,364.5229 Q1451.7281,365.0432 1451.0109,365.3385 Q1450.0406,365.7463 1448.8734,365.7463 Q1447.5094,365.7463 1446.4266,365.1838 Q1445.5406,364.7338 1444.9219,363.7775 Q1444.3031,362.8072 1444.3031,361.6541 L1444.3031,360.6135 Q1444.3031,359.4182 1444.8516,358.3916 Q1445.4141,357.351 1446.3984,356.8025 Q1447.3828,356.24 1448.4938,356.24 Q1449.1547,356.24 1449.7313,356.3947 Q1450.3219,356.5354 1450.8141,356.8588 Z " fill="#000000"/><text fill="#000000" font-family="sans-serif" font-size="12.6" lengthAdjust="spacing" textLength="87.3" x="1466.775" y="365.7885">AgendaMapper</text><line style="stroke:#181818;stroke-width:0.45;" x1="1297.8" x2="1693.8" y1="374.9713" y2="374.9713"/><line style="stroke:#181818;stroke-width:0.45;" x1="1297.8" x2="1693.8" y1="382.1713" y2="382.1713"/><text fill="#000000" font-family="sans-serif" font-size="12.6" lengthAdjust="spacing" textLength="103.5" x="1302.3" y="399.368">+AgendaMapper()</text><text fill="#000000" font-family="sans-serif" font-size="12.6" lengthAdjust="spacing" textLength="387" x="1302.3" y="416.127">+toDTO(agendaTask, teamDTO, List&lt;VehicleDTO&gt; vehicleDTOList)</text></g><!--class AgendaTaskDTO--><g id="elem_AgendaTaskDTO"><rect codeLine="151" fill="#F1F1F1" height="294.5848" id="AgendaTaskDTO" rx="2.25" ry="2.25" style="stroke:#181818;stroke-width:0.45;" width="359.1" x="1372.95" y="550.4713"/><ellipse cx="1499.175" cy="564.8713" fill="#ADD1B2" rx="9.9" ry="9.9" style="stroke:#181818;stroke-width:0.9;"/><path d="M1501.6641,561.1588 Q1501.8047,560.9619 1501.9734,560.8635 Q1502.1422,560.765 1502.3391,560.765 Q1502.6766,560.765 1502.8875,561.0041 Q1503.0984,561.2291 1503.0984,561.7775 L1503.0984,563.0854 Q1503.0984,563.6338 1502.8875,563.8729 Q1502.6766,564.1119 1502.3391,564.1119 Q1502.0297,564.1119 1501.8469,563.9291 Q1501.6641,563.7604 1501.5656,563.2963 Q1501.5234,562.9729 1501.3547,562.8041 Q1501.0594,562.4666 1500.5109,562.2697 Q1499.9625,562.0729 1499.4,562.0729 Q1498.7109,562.0729 1498.1344,562.3682 Q1497.5719,562.6635 1497.1219,563.3385 Q1496.6859,564.0135 1496.6859,564.9416 L1496.6859,565.926 Q1496.6859,567.0369 1497.4875,567.7822 Q1498.2891,568.5135 1499.7234,568.5135 Q1500.5672,568.5135 1501.1578,568.2885 Q1501.5094,568.1479 1501.8891,567.7541 Q1502.1281,567.515 1502.2547,567.4447 Q1502.3953,567.3744 1502.5781,567.3744 Q1502.8734,567.3744 1503.0984,567.6135 Q1503.3375,567.8385 1503.3375,568.1479 Q1503.3375,568.4572 1503.0281,568.8229 Q1502.5781,569.3432 1501.8609,569.6385 Q1500.8906,570.0463 1499.7234,570.0463 Q1498.3594,570.0463 1497.2766,569.4838 Q1496.3906,569.0338 1495.7719,568.0775 Q1495.1531,567.1072 1495.1531,565.9541 L1495.1531,564.9135 Q1495.1531,563.7182 1495.7016,562.6916 Q1496.2641,561.651 1497.2484,561.1025 Q1498.2328,560.54 1499.3438,560.54 Q1500.0047,560.54 1500.5813,560.6947 Q1501.1719,560.8354 1501.6641,561.1588 Z " fill="#000000"/><text fill="#000000" font-family="sans-serif" font-size="12.6" lengthAdjust="spacing" textLength="99" x="1517.625" y="570.0885">AgendaTaskDTO</text><line style="stroke:#181818;stroke-width:0.45;" x1="1373.85" x2="1731.15" y1="579.2713" y2="579.2713"/><text fill="#000000" font-family="sans-serif" font-size="12.6" lengthAdjust="spacing" textLength="67.5" x="1378.35" y="596.468">+String title;</text><text fill="#000000" font-family="sans-serif" font-size="12.6" lengthAdjust="spacing" textLength="109.8" x="1378.35" y="613.227">+String description;</text><text fill="#000000" font-family="sans-serif" font-size="12.6" lengthAdjust="spacing" textLength="123.3" x="1378.35" y="629.9859">+TaskType taskType;</text><text fill="#000000" font-family="sans-serif" font-size="12.6" lengthAdjust="spacing" textLength="149.4" x="1378.35" y="646.7449">+String greenSpaceName;</text><text fill="#000000" font-family="sans-serif" font-size="12.6" lengthAdjust="spacing" textLength="135.9" x="1378.35" y="663.5039">+UrgencyType urgency;</text><text fill="#000000" font-family="sans-serif" font-size="12.6" lengthAdjust="spacing" textLength="127.8" x="1378.35" y="680.2629">+int expectedDuration;</text><text fill="#000000" font-family="sans-serif" font-size="12.6" lengthAdjust="spacing" textLength="127.8" x="1378.35" y="697.0219">+String workStartDate;</text><text fill="#000000" font-family="sans-serif" font-size="12.6" lengthAdjust="spacing" textLength="108" x="1378.35" y="713.7809">+int workStartHour;</text><text fill="#000000" font-family="sans-serif" font-size="12.6" lengthAdjust="spacing" textLength="125.1" x="1378.35" y="730.5398">+int workStartMinutes;</text><text fill="#000000" font-family="sans-serif" font-size="12.6" lengthAdjust="spacing" textLength="84.6" x="1378.35" y="747.2988">+Status status;</text><text fill="#000000" font-family="sans-serif" font-size="12.6" lengthAdjust="spacing" textLength="141.3" x="1378.35" y="764.0578">+String isTeamAssigned;</text><line style="stroke:#181818;stroke-width:0.45;" x1="1373.85" x2="1731.15" y1="770.8201" y2="770.8201"/><text fill="#000000" font-family="sans-serif" font-size="12.6" lengthAdjust="spacing" textLength="339.3" x="1378.35" y="788.0168">+AgendaTaskDTO(title, description, taskType, greenSpace,</text><text fill="#000000" font-family="sans-serif" font-size="12.6" lengthAdjust="spacing" textLength="332.1" x="1378.35" y="804.7758">urgency, expectedDuration, executionDate, workStartHour,</text><text fill="#000000" font-family="sans-serif" font-size="12.6" lengthAdjust="spacing" textLength="348.3" x="1378.35" y="821.5348">workStartMinutes, status, isTeamAssigned, vehiclesAssigned,</text><text fill="#000000" font-family="sans-serif" font-size="12.6" lengthAdjust="spacing" textLength="153" x="1378.35" y="838.2938">teamDTO, vehicleDTOList)</text></g><!--class CollaboratorDTO--><g id="elem_CollaboratorDTO"><rect codeLine="168" fill="#F1F1F1" height="110.2359" id="CollaboratorDTO" rx="2.25" ry="2.25" style="stroke:#181818;stroke-width:0.45;" width="191.7" x="1427.85" y="1118.3713"/><ellipse cx="1471.275" cy="1132.7713" fill="#ADD1B2" rx="9.9" ry="9.9" style="stroke:#181818;stroke-width:0.9;"/><path d="M1473.7641,1129.0588 Q1473.9047,1128.8619 1474.0734,1128.7635 Q1474.2422,1128.665 1474.4391,1128.665 Q1474.7766,1128.665 1474.9875,1128.9041 Q1475.1984,1129.1291 1475.1984,1129.6775 L1475.1984,1130.9854 Q1475.1984,1131.5338 1474.9875,1131.7729 Q1474.7766,1132.0119 1474.4391,1132.0119 Q1474.1297,1132.0119 1473.9469,1131.8291 Q1473.7641,1131.6604 1473.6656,1131.1963 Q1473.6234,1130.8729 1473.4547,1130.7041 Q1473.1594,1130.3666 1472.6109,1130.1697 Q1472.0625,1129.9729 1471.5,1129.9729 Q1470.8109,1129.9729 1470.2344,1130.2682 Q1469.6719,1130.5635 1469.2219,1131.2385 Q1468.7859,1131.9135 1468.7859,1132.8416 L1468.7859,1133.826 Q1468.7859,1134.9369 1469.5875,1135.6822 Q1470.3891,1136.4135 1471.8234,1136.4135 Q1472.6672,1136.4135 1473.2578,1136.1885 Q1473.6094,1136.0479 1473.9891,1135.6541 Q1474.2281,1135.415 1474.3547,1135.3447 Q1474.4953,1135.2744 1474.6781,1135.2744 Q1474.9734,1135.2744 1475.1984,1135.5135 Q1475.4375,1135.7385 1475.4375,1136.0479 Q1475.4375,1136.3572 1475.1281,1136.7229 Q1474.6781,1137.2432 1473.9609,1137.5385 Q1472.9906,1137.9463 1471.8234,1137.9463 Q1470.4594,1137.9463 1469.3766,1137.3838 Q1468.4906,1136.9338 1467.8719,1135.9775 Q1467.2531,1135.0072 1467.2531,1133.8541 L1467.2531,1132.8135 Q1467.2531,1131.6182 1467.8016,1130.5916 Q1468.3641,1129.551 1469.3484,1129.0025 Q1470.3328,1128.44 1471.4438,1128.44 Q1472.1047,1128.44 1472.6813,1128.5947 Q1473.2719,1128.7354 1473.7641,1129.0588 Z " fill="#000000"/><text fill="#000000" font-family="sans-serif" font-size="12.6" lengthAdjust="spacing" textLength="97.2" x="1489.725" y="1137.9885">CollaboratorDTO</text><line style="stroke:#181818;stroke-width:0.45;" x1="1428.75" x2="1618.65" y1="1147.1713" y2="1147.1713"/><text fill="#000000" font-family="sans-serif" font-size="12.6" lengthAdjust="spacing" textLength="147.6" x="1433.25" y="1164.368">+String collaboratorName;</text><text fill="#000000" font-family="sans-serif" font-size="12.6" lengthAdjust="spacing" textLength="77.4" x="1433.25" y="1181.127">+String email;</text><text fill="#000000" font-family="sans-serif" font-size="12.6" lengthAdjust="spacing" textLength="141.3" x="1433.25" y="1197.8859">+List&lt;String&gt; skillNames;</text><line style="stroke:#181818;stroke-width:0.45;" x1="1428.75" x2="1618.65" y1="1204.6482" y2="1204.6482"/><text fill="#000000" font-family="sans-serif" font-size="12.6" lengthAdjust="spacing" textLength="180.9" x="1433.25" y="1221.8449">+CollaboratorDTO(collaborator)</text></g><!--class TeamDTO--><g id="elem_TeamDTO"><rect codeLine="177" fill="#F1F1F1" height="76.718" id="TeamDTO" rx="2.25" ry="2.25" style="stroke:#181818;stroke-width:0.45;" width="301.5" x="1372.95" y="945.5713"/><ellipse cx="1490.175" cy="959.9713" fill="#ADD1B2" rx="9.9" ry="9.9" style="stroke:#181818;stroke-width:0.9;"/><path d="M1492.6641,956.2588 Q1492.8047,956.0619 1492.9734,955.9635 Q1493.1422,955.865 1493.3391,955.865 Q1493.6766,955.865 1493.8875,956.1041 Q1494.0984,956.3291 1494.0984,956.8775 L1494.0984,958.1854 Q1494.0984,958.7338 1493.8875,958.9729 Q1493.6766,959.2119 1493.3391,959.2119 Q1493.0297,959.2119 1492.8469,959.0291 Q1492.6641,958.8604 1492.5656,958.3963 Q1492.5234,958.0729 1492.3547,957.9041 Q1492.0594,957.5666 1491.5109,957.3697 Q1490.9625,957.1729 1490.4,957.1729 Q1489.7109,957.1729 1489.1344,957.4682 Q1488.5719,957.7635 1488.1219,958.4385 Q1487.6859,959.1135 1487.6859,960.0416 L1487.6859,961.026 Q1487.6859,962.1369 1488.4875,962.8822 Q1489.2891,963.6135 1490.7234,963.6135 Q1491.5672,963.6135 1492.1578,963.3885 Q1492.5094,963.2479 1492.8891,962.8541 Q1493.1281,962.615 1493.2547,962.5447 Q1493.3953,962.4744 1493.5781,962.4744 Q1493.8734,962.4744 1494.0984,962.7135 Q1494.3375,962.9385 1494.3375,963.2479 Q1494.3375,963.5572 1494.0281,963.9229 Q1493.5781,964.4432 1492.8609,964.7385 Q1491.8906,965.1463 1490.7234,965.1463 Q1489.3594,965.1463 1488.2766,964.5838 Q1487.3906,964.1338 1486.7719,963.1775 Q1486.1531,962.2072 1486.1531,961.0541 L1486.1531,960.0135 Q1486.1531,958.8182 1486.7016,957.7916 Q1487.2641,956.751 1488.2484,956.2025 Q1489.2328,955.64 1490.3438,955.64 Q1491.0047,955.64 1491.5813,955.7947 Q1492.1719,955.9354 1492.6641,956.2588 Z " fill="#000000"/><text fill="#000000" font-family="sans-serif" font-size="12.6" lengthAdjust="spacing" textLength="59.4" x="1508.625" y="965.1885">TeamDTO</text><line style="stroke:#181818;stroke-width:0.45;" x1="1373.85" x2="1673.55" y1="974.3713" y2="974.3713"/><text fill="#000000" font-family="sans-serif" font-size="12.6" lengthAdjust="spacing" textLength="216" x="1378.35" y="991.568">+List&lt;CollaboratorDTO&gt; collaborators</text><line style="stroke:#181818;stroke-width:0.45;" x1="1373.85" x2="1673.55" y1="998.3303" y2="998.3303"/><text fill="#000000" font-family="sans-serif" font-size="12.6" lengthAdjust="spacing" textLength="290.7" x="1378.35" y="1015.527">+TeamDTO(List&lt;CollaboratorDTO&gt; teamMembers)</text></g><!--class VehicleDTO--><g id="elem_VehicleDTO"><rect codeLine="182" fill="#F1F1F1" height="126.9949" id="VehicleDTO" rx="2.25" ry="2.25" style="stroke:#181818;stroke-width:0.45;" width="135" x="1706.4" y="920.3713"/><ellipse cx="1736.91" cy="934.7713" fill="#ADD1B2" rx="9.9" ry="9.9" style="stroke:#181818;stroke-width:0.9;"/><path d="M1739.3991,931.0588 Q1739.5397,930.8619 1739.7084,930.7635 Q1739.8772,930.665 1740.0741,930.665 Q1740.4116,930.665 1740.6225,930.9041 Q1740.8334,931.1291 1740.8334,931.6775 L1740.8334,932.9854 Q1740.8334,933.5338 1740.6225,933.7729 Q1740.4116,934.0119 1740.0741,934.0119 Q1739.7647,934.0119 1739.5819,933.8291 Q1739.3991,933.6604 1739.3006,933.1963 Q1739.2584,932.8729 1739.0897,932.7041 Q1738.7944,932.3666 1738.2459,932.1697 Q1737.6975,931.9729 1737.135,931.9729 Q1736.4459,931.9729 1735.8694,932.2682 Q1735.3069,932.5635 1734.8569,933.2385 Q1734.4209,933.9135 1734.4209,934.8416 L1734.4209,935.826 Q1734.4209,936.9369 1735.2225,937.6822 Q1736.0241,938.4135 1737.4584,938.4135 Q1738.3022,938.4135 1738.8928,938.1885 Q1739.2444,938.0479 1739.6241,937.6541 Q1739.8631,937.415 1739.9897,937.3447 Q1740.1303,937.2744 1740.3131,937.2744 Q1740.6084,937.2744 1740.8334,937.5135 Q1741.0725,937.7385 1741.0725,938.0479 Q1741.0725,938.3572 1740.7631,938.7229 Q1740.3131,939.2432 1739.5959,939.5385 Q1738.6256,939.9463 1737.4584,939.9463 Q1736.0944,939.9463 1735.0116,939.3838 Q1734.1256,938.9338 1733.5069,937.9775 Q1732.8881,937.0072 1732.8881,935.8541 L1732.8881,934.8135 Q1732.8881,933.6182 1733.4366,932.5916 Q1733.9991,931.551 1734.9834,931.0025 Q1735.9678,930.44 1737.0788,930.44 Q1737.7397,930.44 1738.3163,930.5947 Q1738.9069,930.7354 1739.3991,931.0588 Z " fill="#000000"/><text fill="#000000" font-family="sans-serif" font-size="12.6" lengthAdjust="spacing" textLength="68.4" x="1753.29" y="939.9885">VehicleDTO</text><line style="stroke:#181818;stroke-width:0.45;" x1="1707.3" x2="1840.5" y1="949.1713" y2="949.1713"/><text fill="#000000" font-family="sans-serif" font-size="12.6" lengthAdjust="spacing" textLength="87.3" x="1711.8" y="966.368">+String plateID;</text><text fill="#000000" font-family="sans-serif" font-size="12.6" lengthAdjust="spacing" textLength="81" x="1711.8" y="983.127">+String brand;</text><text fill="#000000" font-family="sans-serif" font-size="12.6" lengthAdjust="spacing" textLength="81.9" x="1711.8" y="999.8859">+String model;</text><text fill="#000000" font-family="sans-serif" font-size="12.6" lengthAdjust="spacing" textLength="72" x="1711.8" y="1016.6449">+String type;</text><line style="stroke:#181818;stroke-width:0.45;" x1="1707.3" x2="1840.5" y1="1023.4072" y2="1023.4072"/><text fill="#000000" font-family="sans-serif" font-size="12.6" lengthAdjust="spacing" textLength="124.2" x="1711.8" y="1040.6039">+VehicleDTO(vehicle)</text></g><!--link AgendaUI to AgendaController--><g id="link_AgendaUI_AgendaController"><path codeLine="197" d="M549.135,218.4073 C517.959,238.6303 492.3,255.2713 492.3,255.2713 C492.3,255.2713 437.4347,312.3447 401.0297,350.2077 " fill="none" id="AgendaUI-to-AgendaController" style="stroke:#181818;stroke-width:0.9;stroke-dasharray:7.0,7.0;"/><polygon fill="#181818" points="397.287,354.1003,405.4961,350.7565,400.4059,350.8565,400.306,345.7663,397.287,354.1003" style="stroke:#181818;stroke-width:0.9;"/></g><!--link AgendaUI to PostponeTaskController--><g id="link_AgendaUI_PostponeTaskController"><path codeLine="198" d="M713.322,218.4703 C731.943,242.7973 749.711,265.9959 769.214,291.4659 " fill="none" id="AgendaUI-to-PostponeTaskController" style="stroke:#181818;stroke-width:0.9;stroke-dasharray:7.0,7.0;"/><polygon fill="#181818" points="772.497,295.7533,770.4308,287.1335,769.7612,292.1804,764.7142,291.5108,772.497,295.7533" style="stroke:#181818;stroke-width:0.9;"/></g><!--link AgendaController to Repositories--><g id="link_AgendaController_Repositories"><path codeLine="199" d="M380.43,414.9583 C416.106,507.5143 524.0894,787.5778 573.2564,915.0988 " fill="none" id="AgendaController-to-Repositories" style="stroke:#181818;stroke-width:0.9;stroke-dasharray:7.0,7.0;"/><polygon fill="#181818" points="575.199,920.1373,575.644,911.2845,573.5801,915.9386,568.9261,913.8747,575.199,920.1373" style="stroke:#181818;stroke-width:0.9;"/></g><!--link PostponeTaskController to Repositories--><g id="link_PostponeTaskController_Repositories"><path codeLine="200" d="M804.375,473.1793 C755.316,595.1653 669.7879,807.8833 626.7319,914.9383 " fill="none" id="PostponeTaskController-to-Repositories" style="stroke:#181818;stroke-width:0.9;stroke-dasharray:7.0,7.0;"/><polygon fill="#181818" points="624.717,919.9483,631.0794,913.7766,626.3961,915.7733,624.3994,911.09,624.717,919.9483" style="stroke:#181818;stroke-width:0.9;"/></g><!--link AgendaController to ApplicationSession--><g id="link_AgendaController_ApplicationSession"><path codeLine="201" d="M365.787,414.9583 C355.518,509.6923 323.9522,800.7748 310.6412,923.5078 " fill="none" id="AgendaController-to-ApplicationSession" style="stroke:#181818;stroke-width:0.9;stroke-dasharray:7.0,7.0;"/><polygon fill="#181818" points="310.059,928.8763,314.5114,921.2117,310.5442,924.4025,307.3534,920.4353,310.059,928.8763" style="stroke:#181818;stroke-width:0.9;"/></g><!--link ApplicationSession to ApplicationSession--><g id="link_ApplicationSession_ApplicationSession"><path codeLine="202" d="M409.743,966.4153 C428.175,968.7373 441,974.5423 441,983.8213 C441,993.1003 433.5327,998.2304 415.1007,1000.5524 " fill="none" id="ApplicationSession-to-ApplicationSession" style="stroke:#181818;stroke-width:0.9;"/><polygon fill="#181818" points="409.743,1001.2273,418.2294,1003.7867,414.2077,1000.6648,417.3295,996.6431,409.743,1001.2273" style="stroke:#181818;stroke-width:0.9;"/><text fill="#000000" font-family="sans-serif" font-size="11.7" lengthAdjust="spacing" textLength="44.1" x="446.4" y="988.7968">instance</text></g><!--link ApplicationSession to UserSession--><g id="link_ApplicationSession_UserSession"><path codeLine="203" d="M273.105,1038.7483 C253.602,1072.6333 231.8971,1110.3524 215.8771,1138.1804 " fill="none" id="ApplicationSession-to-UserSession" style="stroke:#181818;stroke-width:0.9;"/><polygon fill="#181818" points="213.183,1142.8603,220.3441,1137.6365,215.4281,1138.9604,214.1043,1134.0443,213.183,1142.8603" style="stroke:#181818;stroke-width:0.9;"/><text fill="#000000" font-family="sans-serif" font-size="11.7" lengthAdjust="spacing" textLength="64.8" x="251.1" y="1087.7968">userSession</text><text fill="#000000" font-family="sans-serif" font-size="11.7" lengthAdjust="spacing" textLength="6.3" x="209.5199" y="1132.9879">1</text></g><!--link UserSession to Email--><g id="link_UserSession_Email"><path codeLine="204" d="M166.869,1203.7723 C138.267,1232.6353 99.3094,1271.955 74.0644,1297.425 " fill="none" id="UserSession-to-Email" style="stroke:#181818;stroke-width:0.9;stroke-dasharray:7.0,7.0;"/><polygon fill="#181818" points="70.263,1301.2603,78.522,1298.0416,73.4308,1298.0642,73.4082,1292.9731,70.263,1301.2603" style="stroke:#181818;stroke-width:0.9;"/></g><!--link Repositories to AgendaRepository--><g id="link_Repositories_AgendaRepository"><path codeLine="205" d="M544.905,1047.4153 C484.326,1117.0843 392.0369,1223.25 342.1499,1280.634 " fill="none" id="Repositories-to-AgendaRepository" style="stroke:#181818;stroke-width:0.9;"/><polygon fill="#181818" points="338.607,1284.7093,346.6382,1280.9583,341.5594,1281.3132,341.2044,1276.2344,338.607,1284.7093" style="stroke:#181818;stroke-width:0.9;"/><text fill="#000000" font-family="sans-serif" font-size="11.7" lengthAdjust="spacing" textLength="6.3" x="337.0017" y="1274.6971">1</text></g><!--link Repositories to TeamRepository--><g id="link_Repositories_TeamRepository"><path codeLine="206" d="M686.925,1039.8823 C796.5,1108.9483 976.6656,1222.493 1071.0126,1281.956 " fill="none" id="Repositories-to-TeamRepository" style="stroke:#181818;stroke-width:0.9;"/><polygon fill="#181818" points="1075.581,1284.8353,1070.648,1277.4708,1071.774,1282.4359,1066.809,1283.562,1075.581,1284.8353" style="stroke:#181818;stroke-width:0.9;"/><text fill="#000000" font-family="sans-serif" font-size="11.7" lengthAdjust="spacing" textLength="6.3" x="1059.325" y="1274.8432">1</text></g><!--link Repositories to VehicleRepository--><g id="link_Repositories_VehicleRepository"><path codeLine="207" d="M621.288,1047.3883 C649.449,1128.0283 694.8,1257.8713 694.8,1257.8713 C694.8,1257.8713 700.8006,1270.8596 708.6036,1287.7796 " fill="none" id="Repositories-to-VehicleRepository" style="stroke:#181818;stroke-width:0.9;"/><polygon fill="#181818" points="710.865,1292.6833,710.742,1283.8202,708.9805,1288.5969,704.2038,1286.8354,710.865,1292.6833" style="stroke:#181818;stroke-width:0.9;"/><text fill="#000000" font-family="sans-serif" font-size="11.7" lengthAdjust="spacing" textLength="6.3" x="701.3654" y="1282.8057">1</text></g><!--link AgendaRepository to Task--><g id="link_AgendaRepository_Task"><path codeLine="208" d="M326.268,1361.6143 C340.092,1387.2643 356.4385,1417.584 373.9345,1450.038 " fill="none" id="AgendaRepository-to-Task" style="stroke:#181818;stroke-width:0.9;"/><polygon fill="#181818" points="376.497,1454.7913,375.8221,1445.953,374.3616,1450.8302,369.4844,1449.3697,376.497,1454.7913" style="stroke:#181818;stroke-width:0.9;"/><text fill="#000000" font-family="sans-serif" font-size="11.7" lengthAdjust="spacing" textLength="22.5" x="348.3" y="1403.6968">task</text><text fill="#000000" font-family="sans-serif" font-size="11.7" lengthAdjust="spacing" textLength="6.3" x="322.5892" y="1381.3088">1</text></g><!--link VehicleRepository to Vehicle--><g id="link_VehicleRepository_Vehicle"><path codeLine="209" d="M724.5,1353.2893 C724.5,1381.3963 724.5,1419.7363 724.5,1458.1033 " fill="none" id="VehicleRepository-to-Vehicle" style="stroke:#181818;stroke-width:0.9;"/><polygon fill="#181818" points="724.5,1463.5033,728.1,1455.4033,724.5,1459.0033,720.9,1455.4033,724.5,1463.5033" style="stroke:#181818;stroke-width:0.9;"/><text fill="#000000" font-family="sans-serif" font-size="11.7" lengthAdjust="spacing" textLength="35.1" x="725.4" y="1403.6968">vehicle</text><text fill="#000000" font-family="sans-serif" font-size="11.7" lengthAdjust="spacing" textLength="6.3" x="717.6389" y="1372.7048">1</text></g><!--reverse link Task to TaskDuration--><g id="link_Task_TaskDuration"><path codeLine="210" d="M422.0337,1643.2854 C421.6017,1666.4604 421.326,1680.5293 420.903,1703.2273 " fill="none" id="Task-backto-TaskDuration" style="stroke:#181818;stroke-width:0.9;"/><polygon fill="#181818" points="422.235,1632.4873,418.535,1637.8193,422.0337,1643.2854,425.7337,1637.9534,422.235,1632.4873" style="stroke:#181818;stroke-width:0.9;"/><text fill="#000000" font-family="sans-serif" font-size="11.7" lengthAdjust="spacing" textLength="65.7" x="422.1" y="1672.7968">taskDuration</text><text fill="#000000" font-family="sans-serif" font-size="11.7" lengthAdjust="spacing" textLength="6.3" x="414.4666" y="1693.2719">1</text></g><!--link TeamRepository to Team--><g id="link_TeamRepository_Team"><path codeLine="211" d="M1112.463,1361.6143 C1090.17,1398.9913 1058.6923,1451.7382 1034.7433,1491.8692 " fill="none" id="TeamRepository-to-Team" style="stroke:#181818;stroke-width:0.9;"/><polygon fill="#181818" points="1031.976,1496.5063,1039.2183,1491.3955,1034.282,1492.6421,1033.0355,1487.7059,1031.976,1496.5063" style="stroke:#181818;stroke-width:0.9;"/><text fill="#000000" font-family="sans-serif" font-size="11.7" lengthAdjust="spacing" textLength="26.1" x="1093.5" y="1403.6968">team</text><text fill="#000000" font-family="sans-serif" font-size="11.7" lengthAdjust="spacing" textLength="6.3" x="1102.245" y="1381.3088">1</text></g><!--link AgendaController to AgendaRepository--><g id="link_AgendaController_AgendaRepository"><path codeLine="212" d="M341.055,414.6163 C267.129,492.1333 72,696.7213 72,696.7213 C72,696.7213 72,696.7213 72,1174.1713 C72,1174.1713 129.6,1249.7713 129.6,1249.7713 C129.6,1249.7713 166.8328,1265.0629 209.9608,1282.7749 " fill="none" id="AgendaController-to-AgendaRepository" style="stroke:#181818;stroke-width:0.9;stroke-dasharray:7.0,7.0;"/><polygon fill="#181818" points="214.956,1284.8263,208.8309,1278.419,210.7934,1283.1168,206.0956,1285.0792,214.956,1284.8263" style="stroke:#181818;stroke-width:0.9;"/><text fill="#000000" font-family="sans-serif" font-size="11.7" lengthAdjust="spacing" textLength="93.6" x="72.9" y="988.7968">agendaRepository</text></g><!--link PostponeTaskController to AgendaRepository--><g id="link_PostponeTaskController_AgendaRepository"><path codeLine="213" d="M834.363,473.3053 C828.774,565.3933 820.8,696.7213 820.8,696.7213 C820.8,696.7213 820.8,696.7213 820.8,1174.1713 C820.8,1174.1713 593.6007,1239.5129 441.0957,1283.3699 " fill="none" id="PostponeTaskController-to-AgendaRepository" style="stroke:#181818;stroke-width:0.9;stroke-dasharray:7.0,7.0;"/><polygon fill="#181818" points="435.906,1284.8623,444.6855,1286.0834,440.2307,1283.6186,442.6955,1279.1639,435.906,1284.8623" style="stroke:#181818;stroke-width:0.9;"/><text fill="#000000" font-family="sans-serif" font-size="11.7" lengthAdjust="spacing" textLength="93.6" x="821.7" y="988.7968">agendaRepository</text></g><!--link PostponeTaskController to TeamRepository--><g id="link_PostponeTaskController_TeamRepository"><path codeLine="214" d="M924.768,473.2423 C944.721,493.8703 960.3,509.9713 960.3,509.9713 C960.3,509.9713 1134.9,696.7213 1134.9,696.7213 C1134.9,696.7213 1134.9,696.7213 1134.9,1174.1713 C1134.9,1174.1713 1134.9,1235.6053 1134.9,1279.4623 " fill="none" id="PostponeTaskController-to-TeamRepository" style="stroke:#181818;stroke-width:0.9;stroke-dasharray:7.0,7.0;"/><polygon fill="#181818" points="1134.9,1284.8623,1138.5,1276.7623,1134.9,1280.3623,1131.3,1276.7623,1134.9,1284.8623" style="stroke:#181818;stroke-width:0.9;"/><text fill="#000000" font-family="sans-serif" font-size="11.7" lengthAdjust="spacing" textLength="81.9" x="1135.8" y="988.7968">teamRepository</text></g><!--link PostponeTaskController to VehicleRepository--><g id="link_PostponeTaskController_VehicleRepository"><path codeLine="215" d="M879.12,473.3053 C920.367,565.3933 979.2,696.7213 979.2,696.7213 C979.2,696.7213 979.2,696.7213 979.2,1174.1713 C979.2,1174.1713 844.2,1257.8713 844.2,1257.8713 C844.2,1257.8713 815.4222,1273.3412 783.8502,1290.3152 " fill="none" id="PostponeTaskController-to-VehicleRepository" style="stroke:#181818;stroke-width:0.9;stroke-dasharray:7.0,7.0;"/><polygon fill="#181818" points="779.094,1292.8723,787.933,1292.2075,783.0575,1290.7414,784.5236,1285.8659,779.094,1292.8723" style="stroke:#181818;stroke-width:0.9;"/><text fill="#000000" font-family="sans-serif" font-size="11.7" lengthAdjust="spacing" textLength="90.9" x="980.1" y="988.7968">vehicleRepository</text></g><!--link Repositories to Repositories--><g id="link_Repositories_Repositories"><path codeLine="216" d="M686.952,965.9113 C705.132,967.7923 718.2,973.7683 718.2,983.8213 C718.2,993.8743 710.5033,999.2945 692.3233,1001.1755 " fill="none" id="Repositories-to-Repositories" style="stroke:#181818;stroke-width:0.9;"/><polygon fill="#181818" points="686.952,1001.7313,695.3795,1004.4786,691.4281,1001.2682,694.6385,997.3168,686.952,1001.7313" style="stroke:#181818;stroke-width:0.9;"/><text fill="#000000" font-family="sans-serif" font-size="11.7" lengthAdjust="spacing" textLength="44.1" x="723.6" y="988.7968">instance</text></g><!--link AgendaController to AgendaMapper--><g id="link_AgendaController_AgendaMapper"><path codeLine="217" d="M397.908,354.1453 C434.349,315.9673 492.3,255.2713 492.3,255.2713 C492.3,255.2713 508.05,247.6213 508.05,247.6213 C508.05,247.6213 1170.45,247.6213 1170.45,247.6213 C1170.45,247.6213 1303.5142,303.569 1399.7602,344.042 " fill="none" id="AgendaController-to-AgendaMapper" style="stroke:#181818;stroke-width:0.9;stroke-dasharray:7.0,7.0;"/><polygon fill="#181818" points="1404.738,346.1353,1398.6668,339.6769,1400.5898,344.3909,1395.8758,346.314,1404.738,346.1353" style="stroke:#181818;stroke-width:0.9;"/></g><!--link AgendaMapper to AgendaTaskDTO--><g id="link_AgendaMapper_AgendaTaskDTO"><path codeLine="218" d="M1502.64,422.8873 C1508.472,454.9093 1516.2793,497.8097 1524.8563,544.8977 " fill="none" id="AgendaMapper-to-AgendaTaskDTO" style="stroke:#181818;stroke-width:0.9;stroke-dasharray:7.0,7.0;"/><polygon fill="#181818" points="1525.824,550.2103,1527.9142,541.5963,1525.0176,545.7831,1520.8308,542.8865,1525.824,550.2103" style="stroke:#181818;stroke-width:0.9;"/></g><!--link AgendaTaskDTO to TeamDTO--><g id="link_AgendaTaskDTO_TeamDTO"><path codeLine="219" d="M1537.677,844.8883 C1533.906,882.1753 1530.7053,913.7207 1528.0503,939.9737 " fill="none" id="AgendaTaskDTO-to-TeamDTO" style="stroke:#181818;stroke-width:0.9;stroke-dasharray:7.0,7.0;"/><polygon fill="#181818" points="1527.507,945.3463,1531.9037,937.6496,1527.9598,940.8691,1524.7403,936.9252,1527.507,945.3463" style="stroke:#181818;stroke-width:0.9;"/><text fill="#000000" font-family="sans-serif" font-size="11.7" lengthAdjust="spacing" textLength="6.3" x="1521.3117" y="935.3241">1</text></g><!--link TeamDTO to CollaboratorDTO--><g id="link_TeamDTO_CollaboratorDTO"><path codeLine="220" d="M1523.7,1022.2423 C1523.7,1049.7283 1523.7,1082.0473 1523.7,1112.8003 " fill="none" id="TeamDTO-to-CollaboratorDTO" style="stroke:#181818;stroke-width:0.9;stroke-dasharray:7.0,7.0;"/><polygon fill="#181818" points="1523.7,1118.2003,1527.3,1110.1003,1523.7,1113.7003,1520.1,1110.1003,1523.7,1118.2003" style="stroke:#181818;stroke-width:0.9;"/><text fill="#000000" font-family="sans-serif" font-size="11.7" lengthAdjust="spacing" textLength="6.3" x="1516.898" y="1042.2138">1</text></g><!--link AgendaTaskDTO to VehicleDTO--><g id="link_AgendaTaskDTO_VehicleDTO"><path codeLine="221" d="M1666.44,844.8883 C1687.104,871.4293 1704.2982,893.511 1721.7762,915.966 " fill="none" id="AgendaTaskDTO-to-VehicleDTO" style="stroke:#181818;stroke-width:0.9;stroke-dasharray:7.0,7.0;"/><polygon fill="#181818" points="1725.093,920.2273,1722.9586,911.6241,1722.329,916.6762,1717.2769,916.0465,1725.093,920.2273" style="stroke:#181818;stroke-width:0.9;"/><text fill="#000000" font-family="sans-serif" font-size="11.7" lengthAdjust="spacing" textLength="6.3" x="1665.5064" y="865.017">1</text></g><!--link Vehicle to WorkPeriod--><g id="link_Vehicle_WorkPeriod"><path codeLine="222" d="M726.264,1623.8293 C728.127,1707.4213 730.9048,1832.5046 732.6958,1912.9196 " fill="none" id="Vehicle-to-WorkPeriod" style="stroke:#181818;stroke-width:0.9;"/><polygon fill="#181818" points="732.816,1918.3183,736.2347,1910.1401,732.7158,1913.8194,729.0365,1910.3005,732.816,1918.3183" style="stroke:#181818;stroke-width:0.9;"/><text fill="#000000" font-family="sans-serif" font-size="11.7" lengthAdjust="spacing" textLength="55.8" x="731.7" y="1788.4468">workperiod</text><text fill="#000000" font-family="sans-serif" font-size="11.7" lengthAdjust="spacing" textLength="6.3" x="719.8492" y="1643.7284">1</text></g><!--link Team to WorkPeriod--><g id="link_Team_WorkPeriod"><path codeLine="223" d="M976.518,1590.4753 C929.367,1668.2083 836.3357,1821.5414 780.4187,1913.7194 " fill="none" id="Team-to-WorkPeriod" style="stroke:#181818;stroke-width:0.9;"/><polygon fill="#181818" points="777.618,1918.3363,784.897,1913.278,779.9519,1914.4889,778.7411,1909.5438,777.618,1918.3363" style="stroke:#181818;stroke-width:0.9;"/><text fill="#000000" font-family="sans-serif" font-size="11.7" lengthAdjust="spacing" textLength="55.8" x="908.1" y="1788.4468">workperiod</text><text fill="#000000" font-family="sans-serif" font-size="11.7" lengthAdjust="spacing" textLength="6.3" x="966.242" y="1610.1088">1</text></g><!--reverse link Task to WorkPeriod--><g id="link_Task_WorkPeriod"><path codeLine="224" d="M510.2113,1640.3317 C543.3043,1677.0697 567,1703.3713 567,1703.3713 C567,1703.3713 643.23,1833.6913 692.802,1918.4533 " fill="none" id="Task-backto-WorkPeriod" style="stroke:#181818;stroke-width:0.9;"/><polygon fill="#181818" points="502.983,1632.3073,503.9223,1638.7289,510.2113,1640.3317,509.272,1633.9101,502.983,1632.3073" style="stroke:#181818;stroke-width:0.9;"/><text fill="#000000" font-family="sans-serif" font-size="11.7" lengthAdjust="spacing" textLength="55.8" x="660.6" y="1788.4468">workperiod</text><text fill="#000000" font-family="sans-serif" font-size="11.7" lengthAdjust="spacing" textLength="6.3" x="502.2593" y="1652.0181">1</text><text fill="#000000" font-family="sans-serif" font-size="11.7" lengthAdjust="spacing" textLength="6.3" x="682.3768" y="1908.4578">1</text></g><!--SRC=[fLTBR-Cs4BxhLn3RG-JwWMtHKnm82Eni6w1f5xMplUo5bXYRY4mA9BM9ryX_xv0YALAF9DWwGMBDYyEPRnwwa8-KLLZW8pfonlE3u4U2bAX9qd8gd3_YFTceKqcG8Bd2R5-60lA02_v4sHuzu5A6d98oeauLGHKlJ_eXkHXWSg5u4cZb9PRoMYb1TxKYjpbd6_gTe8-9eWfSkDzy_FKtD4ShBORM5Ez1AKcic-Zt-rjqTVM9bmKHMOP-MfiFEYU9iOkkzuGL68JE2OBFt1AsM3wkjtyZIKgu8Ydqin6O8igeehW47zAIvrXHpcOG2CbhaHCviMOUQ5bgfItUbIITMDsTOYlCSc9OgPEjgm8hOYI_KFBawT_W5CtP14waeKUJv0L-_5rNd2d1ovA8uIitD_xCfQeu8zf0eE7kZytz_o4LbrHnSNA-a0FDIzAZAuAF7U8KxOcwxfZn8G3UbwwjaBcD37hEiDUUNGNiT3o5CxG1704q7N4DuPrHfj0J5uyRXOK2xX-GIjcZtb46-9CwvX5sMc_EtUjR5-umWwYAFwbKgKtPXSlPcXynPL6-hitdxDFQHkErjCPnSzdKPrvfLcOofHyJwwKWH_wD_0it_4m4vSKdg7OjcUO6eIvW2lwsGi7jUraylsBO2h_NTXSzyNL0AxCuTPTn9GG5nrVsZDGqY1dQ2qBO1g89tyapoMjTiYRnI2giQfFIvbn_8YNILqH8395woq0TZaedw38IUXFCFr0VRMYgggHDszaGAU6VxrmzpgYtVT70ireT25EMFUpXgXO2PDfZMl_k9H6HOqP1Ksy0wMKaQoXdGu3Vv9MQw83THiWTO8kwAY6fjqLCt0dCEgGZBqXfITRILayUFNuikU0rT6C0g6WeYyLY1Dst3pVFW4gPWgyTB0ULYI84hw1Tu1qN6EAQeICvxeYGeK1hA3CzgFakaxTyU1eg9bqL_dmR0bCQovXM49aBMkciEuufA1CQ-wLLqOLZwsVfGsJzCrtOLbzWTURDH4NvbTK2gY4_WJ0-oHawcFwBZgxXQgCfc0_krDxTOK0NTDklzPEVrq4VrwrzY0xDlMldXXK3Le0wO0Eesa8SytKjJ0dvs6jfVSDby6pk6XBihKEIuWgNpjgTumUnThnqF7vJ67dgdRBjvl4E1JtCNgBolSDLDRQ2HFsz4NG936c-roWEypF5VfhEp1W3sgmf55k-GCZSYWBVDMlYsehlAh0BlEsJsnewhIMeb-belKp7wiMhjAZ_2nyzyxw1lr6qfR0C04QUgsPNiOdes8mmlnm3_N84zItMfaD5xK-XKhUnQ-ZhUqOAZxueQ3zKyjtRzMPqT0tGx7hlflYiu-FC0K9wobVcqJC4bWO7ONC6TWS8US0DSsZPH4yqHpC8RHWPWXUQijGQRUbsJaf3svD6w2KS8e4tlJ5YAY0quBOGgvWEQ-Xut3NpPn8Vs5RMu9HTBmV6x79WpdPeoXH5GskFI6qwVD72nx-PBHPPRzMEkSCl1qbNIO-eBDxKHbw6Ud9zKzdG4jKdeVcG8AnWrEvZWphm0ir0ySCl7y9z2hJgzYa9ETfXiqqbqGexdrihtNLpH2pULqU4UkjfqhLknDmbpFfnQVf0qbED92qNX2qS4gFxytnkV0j7QcFFFIQntutHh5cyBWt6Xx2GzQ82mhtNtp64_3_jHTQ9jVNpVQhzC5uElA37sOi17G6m7nf1zmUrQ4FKJEKaV0W2QDj_4azGpOT4sFwJsFycDvhLQKKTPIVLjWY7dG0nSATs3uGRwSbGcGTpsZibDSIq9C3Cu6nCy3y0]--></g></svg>