<?xml version="1.0" encoding="us-ascii" standalone="no"?><svg xmlns="http://www.w3.org/2000/svg" xmlns:xlink="http://www.w3.org/1999/xlink" contentStyleType="text/css" height="1066.8px" preserveAspectRatio="none" style="width:1159px;height:1066px;background:#FFFFFF;" version="1.1" viewBox="0 0 1159 1066" width="1159.8px" zoomAndPan="magnify"><defs/><g><text fill="#000000" font-family="sans-serif" font-size="8.4" font-weight="bold" lengthAdjust="spacing" textLength="132.6" x="513.3" y="18.0645">US024 - Sequence Diagram (SD)</text><rect fill="#FFFFFF" height="909.273" style="stroke:#181818;stroke-width:0.6;" width="6" x="36" y="91.118"/><rect fill="#FFFFFF" height="353.9391" style="stroke:#181818;stroke-width:0.6;" width="6" x="258.6" y="105.0926"/><rect fill="#FFFFFF" height="80.3238" style="stroke:#181818;stroke-width:0.6;" width="6" x="258.6" y="477.8063"/><rect fill="#FFFFFF" height="76.1238" style="stroke:#181818;stroke-width:0.6;" width="6" x="258.6" y="576.9047"/><rect fill="#FFFFFF" height="323.1879" style="stroke:#181818;stroke-width:0.6;" width="6" x="258.6" y="671.8031"/><rect fill="#FFFFFF" height="274.4426" style="stroke:#181818;stroke-width:0.6;" width="6" x="438.9" y="150.0398"/><rect fill="#FFFFFF" height="285.6387" style="stroke:#181818;stroke-width:0.6;" width="6" x="438.9" y="690.5777"/><rect fill="#FFFFFF" height="18.7746" style="stroke:#181818;stroke-width:0.6;" width="6" x="525.3" y="168.8145"/><rect fill="#FFFFFF" height="18.7746" style="stroke:#181818;stroke-width:0.6;" width="6" x="525.3" y="709.3523"/><rect fill="#FFFFFF" height="18.7746" style="stroke:#181818;stroke-width:0.6;" width="6" x="589.5" y="206.3637"/><rect fill="#FFFFFF" height="18.7746" style="stroke:#181818;stroke-width:0.6;" width="6" x="589.5" y="746.9016"/><rect fill="#FFFFFF" height="18.7746" style="stroke:#181818;stroke-width:0.6;" width="6" x="644.7" y="243.9129"/><rect fill="#FFFFFF" height="172.991" style="stroke:#181818;stroke-width:0.6;" width="6" x="644.7" y="784.4508"/><rect fill="#FFFFFF" height="124.2457" style="stroke:#181818;stroke-width:0.6;" width="6" x="755.7" y="281.4621"/><rect fill="#FFFFFF" height="71.5219" style="stroke:#181818;stroke-width:0.6;" width="6" x="947.4" y="867.1453"/><rect fill="none" height="97.0711" style="stroke:#000000;stroke-width:0.8999999999999999;" width="288" x="723.6" y="290.4621"/><rect fill="none" height="64.1238" style="stroke:#000000;stroke-width:0.8999999999999999;" width="297.9" x="6" y="433.4824"/><rect fill="none" height="75.6984" style="stroke:#000000;stroke-width:0.8999999999999999;" width="359.4" x="6" y="532.5809"/><line style="stroke:#181818;stroke-width:0.3;stroke-dasharray:5.0,5.0;" x1="39" x2="39" y1="85.118" y2="1005.791"/><line style="stroke:#181818;stroke-width:0.3;stroke-dasharray:5.0,5.0;" x1="261.3" x2="261.3" y1="85.118" y2="1005.791"/><line style="stroke:#181818;stroke-width:0.3;stroke-dasharray:5.0,5.0;" x1="441.6" x2="441.6" y1="128.9789" y2="1005.791"/><line style="stroke:#181818;stroke-width:0.3;stroke-dasharray:5.0,5.0;" x1="528" x2="528" y1="85.118" y2="1005.791"/><line style="stroke:#181818;stroke-width:0.3;stroke-dasharray:5.0,5.0;" x1="592.2" x2="592.2" y1="85.118" y2="1005.791"/><line style="stroke:#181818;stroke-width:0.3;stroke-dasharray:5.0,5.0;" x1="647.4" x2="647.4" y1="85.118" y2="1005.791"/><line style="stroke:#181818;stroke-width:0.3;stroke-dasharray:5.0,5.0;" x1="758.4" x2="758.4" y1="85.118" y2="1005.791"/><line style="stroke:#181818;stroke-width:0.3;stroke-dasharray:5.0,5.0;" x1="852.3" x2="852.3" y1="321.123" y2="1005.791"/><line style="stroke:#181818;stroke-width:0.3;stroke-dasharray:5.0,5.0;" x1="905.7" x2="905.7" y1="813.9234" y2="1005.791"/><line style="stroke:#181818;stroke-width:0.3;stroke-dasharray:5.0,5.0;" x1="950.1" x2="950.1" y1="85.118" y2="1005.791"/><line style="stroke:#181818;stroke-width:0.3;stroke-dasharray:5.0,5.0;" x1="1062" x2="1062" y1="891.0316" y2="1005.791"/><text fill="#000000" font-family="sans-serif" font-size="8.4" lengthAdjust="spacing" textLength="50.4" x="12" y="71.8371">Green Space</text><text fill="#000000" font-family="sans-serif" font-size="8.4" lengthAdjust="spacing" textLength="33.6" x="20.4" y="83.0098">Manager</text><ellipse cx="39" cy="31.8727" fill="#E3E3E3" rx="4.8" ry="4.8" style="stroke:#181818;stroke-width:0.3;"/><path d="M39,36.6727 L39,52.8727 M31.2,41.4727 L46.8,41.4727 M39,52.8727 L31.2,61.8727 M39,52.8727 L46.8,61.8727 " fill="none" style="stroke:#181818;stroke-width:0.3;"/><text fill="#000000" font-family="sans-serif" font-size="8.4" lengthAdjust="spacing" textLength="50.4" x="12" y="1014.2555">Green Space</text><text fill="#000000" font-family="sans-serif" font-size="8.4" lengthAdjust="spacing" textLength="33.6" x="20.4" y="1025.4281">Manager</text><ellipse cx="39" cy="1032.6363" fill="#E3E3E3" rx="4.8" ry="4.8" style="stroke:#181818;stroke-width:0.3;"/><path d="M39,1037.4363 L39,1053.6363 M31.2,1042.2363 L46.8,1042.2363 M39,1053.6363 L31.2,1062.6363 M39,1053.6363 L46.8,1062.6363 " fill="none" style="stroke:#181818;stroke-width:0.3;"/><rect fill="#E3E3E3" height="19.5727" rx="1.5" ry="1.5" style="stroke:#181818;stroke-width:0.3;" width="72.6" x="225.3" y="64.9453"/><text fill="#000000" font-family="sans-serif" font-size="8.4" lengthAdjust="spacing" textLength="64.2" x="229.5" y="78.2098">:PostponeTaskUI</text><rect fill="#E3E3E3" height="19.5727" rx="1.5" ry="1.5" style="stroke:#181818;stroke-width:0.3;" width="72.6" x="225.3" y="1005.191"/><text fill="#000000" font-family="sans-serif" font-size="8.4" lengthAdjust="spacing" textLength="64.2" x="229.5" y="1018.4555">:PostponeTaskUI</text><rect fill="#E3E3E3" height="19.5727" rx="1.5" ry="1.5" style="stroke:#181818;stroke-width:0.3;" width="102.6" x="390.6" y="1005.191"/><text fill="#000000" font-family="sans-serif" font-size="8.4" lengthAdjust="spacing" textLength="94.2" x="394.8" y="1018.4555">:PostponeTaskController</text><rect fill="#E3E3E3" height="19.5727" rx="1.5" ry="1.5" style="stroke:#181818;stroke-width:0.3;" width="58.2" x="499.2" y="64.9453"/><text fill="#000000" font-family="sans-serif" font-size="8.4" lengthAdjust="spacing" textLength="49.8" x="503.4" y="78.2098">:Repositories</text><rect fill="#E3E3E3" height="19.5727" rx="1.5" ry="1.5" style="stroke:#181818;stroke-width:0.3;" width="58.2" x="499.2" y="1005.191"/><text fill="#000000" font-family="sans-serif" font-size="8.4" lengthAdjust="spacing" textLength="49.8" x="503.4" y="1018.4555">:Repositories</text><rect fill="#E3E3E3" height="30.7453" rx="1.5" ry="1.5" style="stroke:#181818;stroke-width:0.3;" width="58.2" x="563.4" y="53.7727"/><text fill="#000000" font-family="sans-serif" font-size="8.4" lengthAdjust="spacing" textLength="44.4" x="570.3" y="67.0371">repositories</text><text fill="#000000" font-family="sans-serif" font-size="8.4" lengthAdjust="spacing" textLength="49.8" x="567.6" y="78.2098">:Repositories</text><rect fill="#E3E3E3" height="30.7453" rx="1.5" ry="1.5" style="stroke:#181818;stroke-width:0.3;" width="58.2" x="563.4" y="1005.191"/><text fill="#000000" font-family="sans-serif" font-size="8.4" lengthAdjust="spacing" textLength="44.4" x="570.3" y="1018.4555">repositories</text><text fill="#000000" font-family="sans-serif" font-size="8.4" lengthAdjust="spacing" textLength="49.8" x="567.6" y="1029.6281">:Repositories</text><rect fill="#E3E3E3" height="30.7453" rx="1.5" ry="1.5" style="stroke:#181818;stroke-width:0.3;" width="40.2" x="627.6" y="53.7727"/><text fill="#000000" font-family="sans-serif" font-size="8.4" lengthAdjust="spacing" textLength="28.8" x="633.3" y="67.0371">agenda</text><text fill="#000000" font-family="sans-serif" font-size="8.4" lengthAdjust="spacing" textLength="31.8" x="631.8" y="78.2098">:Agenda</text><rect fill="#E3E3E3" height="30.7453" rx="1.5" ry="1.5" style="stroke:#181818;stroke-width:0.3;" width="40.2" x="627.6" y="1005.191"/><text fill="#000000" font-family="sans-serif" font-size="8.4" lengthAdjust="spacing" textLength="28.8" x="633.3" y="1018.4555">agenda</text><text fill="#000000" font-family="sans-serif" font-size="8.4" lengthAdjust="spacing" textLength="31.8" x="631.8" y="1029.6281">:Agenda</text><rect fill="#E3E3E3" height="19.5727" rx="1.5" ry="1.5" style="stroke:#181818;stroke-width:0.3;" width="58.2" x="729.6" y="64.9453"/><text fill="#000000" font-family="sans-serif" font-size="8.4" lengthAdjust="spacing" textLength="49.8" x="733.8" y="78.2098">:TaskMapper</text><rect fill="#E3E3E3" height="19.5727" rx="1.5" ry="1.5" style="stroke:#181818;stroke-width:0.3;" width="58.2" x="729.6" y="1005.191"/><text fill="#000000" font-family="sans-serif" font-size="8.4" lengthAdjust="spacing" textLength="49.8" x="733.8" y="1018.4555">:TaskMapper</text><rect fill="#E3E3E3" height="19.5727" rx="1.5" ry="1.5" style="stroke:#181818;stroke-width:0.3;" width="47.4" x="828.9" y="1005.191"/><text fill="#000000" font-family="sans-serif" font-size="8.4" lengthAdjust="spacing" textLength="39" x="833.1" y="1018.4555">:TaskDTO</text><rect fill="#E3E3E3" height="30.7453" rx="1.5" ry="1.5" style="stroke:#181818;stroke-width:0.3;" width="47.4" x="882.3" y="1005.191"/><text fill="#000000" font-family="sans-serif" font-size="8.4" lengthAdjust="spacing" textLength="33.6" x="889.2" y="1018.4555">taskDTO</text><text fill="#000000" font-family="sans-serif" font-size="8.4" lengthAdjust="spacing" textLength="39" x="886.5" y="1029.6281">:TaskDTO</text><rect fill="#E3E3E3" height="30.7453" rx="1.5" ry="1.5" style="stroke:#181818;stroke-width:0.3;" width="29.4" x="935.7" y="53.7727"/><text fill="#000000" font-family="sans-serif" font-size="8.4" lengthAdjust="spacing" textLength="15.6" x="942.6" y="67.0371">task</text><text fill="#000000" font-family="sans-serif" font-size="8.4" lengthAdjust="spacing" textLength="21" x="939.9" y="78.2098">:Task</text><rect fill="#E3E3E3" height="30.7453" rx="1.5" ry="1.5" style="stroke:#181818;stroke-width:0.3;" width="29.4" x="935.7" y="1005.191"/><text fill="#000000" font-family="sans-serif" font-size="8.4" lengthAdjust="spacing" textLength="15.6" x="942.6" y="1018.4555">task</text><text fill="#000000" font-family="sans-serif" font-size="8.4" lengthAdjust="spacing" textLength="21" x="939.9" y="1029.6281">:Task</text><rect fill="#E3E3E3" height="19.5727" rx="1.5" ry="1.5" style="stroke:#181818;stroke-width:0.3;" width="28.8" x="1047.6" y="1005.191"/><text fill="#000000" font-family="sans-serif" font-size="8.4" lengthAdjust="spacing" textLength="20.4" x="1051.8" y="1018.4555">:Date</text><rect fill="#FFFFFF" height="909.273" style="stroke:#181818;stroke-width:0.6;" width="6" x="36" y="91.118"/><rect fill="#FFFFFF" height="353.9391" style="stroke:#181818;stroke-width:0.6;" width="6" x="258.6" y="105.0926"/><rect fill="#FFFFFF" height="80.3238" style="stroke:#181818;stroke-width:0.6;" width="6" x="258.6" y="477.8063"/><rect fill="#FFFFFF" height="76.1238" style="stroke:#181818;stroke-width:0.6;" width="6" x="258.6" y="576.9047"/><rect fill="#FFFFFF" height="323.1879" style="stroke:#181818;stroke-width:0.6;" width="6" x="258.6" y="671.8031"/><rect fill="#FFFFFF" height="274.4426" style="stroke:#181818;stroke-width:0.6;" width="6" x="438.9" y="150.0398"/><rect fill="#FFFFFF" height="285.6387" style="stroke:#181818;stroke-width:0.6;" width="6" x="438.9" y="690.5777"/><rect fill="#FFFFFF" height="18.7746" style="stroke:#181818;stroke-width:0.6;" width="6" x="525.3" y="168.8145"/><rect fill="#FFFFFF" height="18.7746" style="stroke:#181818;stroke-width:0.6;" width="6" x="525.3" y="709.3523"/><rect fill="#FFFFFF" height="18.7746" style="stroke:#181818;stroke-width:0.6;" width="6" x="589.5" y="206.3637"/><rect fill="#FFFFFF" height="18.7746" style="stroke:#181818;stroke-width:0.6;" width="6" x="589.5" y="746.9016"/><rect fill="#FFFFFF" height="18.7746" style="stroke:#181818;stroke-width:0.6;" width="6" x="644.7" y="243.9129"/><rect fill="#FFFFFF" height="172.991" style="stroke:#181818;stroke-width:0.6;" width="6" x="644.7" y="784.4508"/><rect fill="#FFFFFF" height="124.2457" style="stroke:#181818;stroke-width:0.6;" width="6" x="755.7" y="281.4621"/><rect fill="#FFFFFF" height="71.5219" style="stroke:#181818;stroke-width:0.6;" width="6" x="947.4" y="867.1453"/><polygon fill="#181818" points="251.4,102.6926,257.4,105.0926,251.4,107.4926,253.8,105.0926" style="stroke:#181818;stroke-width:0.6;"/><line style="stroke:#181818;stroke-width:0.6;" x1="42" x2="255" y1="105.0926" y2="105.0926"/><text fill="#000000" font-family="sans-serif" font-size="7.8" font-weight="bold" lengthAdjust="spacing" textLength="4.2" x="46.2" y="101.935">1</text><text fill="#000000" font-family="sans-serif" font-size="7.8" lengthAdjust="spacing" textLength="133.2" x="52.8" y="101.935">asks to postpone a task in the agenda</text><polygon fill="#181818" points="383.4,121.4672,389.4,123.8672,383.4,126.2672,385.8,123.8672" style="stroke:#181818;stroke-width:0.6;"/><line style="stroke:#181818;stroke-width:0.6;" x1="264.6" x2="387" y1="123.8672" y2="123.8672"/><text fill="#000000" font-family="sans-serif" font-size="7.8" font-weight="bold" lengthAdjust="spacing" textLength="4.2" x="268.8" y="120.7096">2</text><text fill="#000000" font-family="sans-serif" font-size="7.8" lengthAdjust="spacing" textLength="105" x="275.4" y="120.7096">new PostPoneTaskController()</text><rect fill="#E3E3E3" height="19.5727" rx="1.5" ry="1.5" style="stroke:#181818;stroke-width:0.3;" width="102.6" x="390.6" y="109.8926"/><text fill="#000000" font-family="sans-serif" font-size="8.4" lengthAdjust="spacing" textLength="94.2" x="394.8" y="123.157">:PostponeTaskController</text><polygon fill="#181818" points="431.7,147.6398,437.7,150.0398,431.7,152.4398,434.1,150.0398" style="stroke:#181818;stroke-width:0.6;"/><line style="stroke:#181818;stroke-width:0.6;" x1="264.6" x2="435.3" y1="150.0398" y2="150.0398"/><text fill="#000000" font-family="sans-serif" font-size="7.8" font-weight="bold" lengthAdjust="spacing" textLength="4.2" x="268.8" y="146.8822">3</text><text fill="#000000" font-family="sans-serif" font-size="7.8" lengthAdjust="spacing" textLength="69" x="275.4" y="146.8822">getTasksInAgenda()</text><polygon fill="#181818" points="518.1,166.4145,524.1,168.8145,518.1,171.2145,520.5,168.8145" style="stroke:#181818;stroke-width:0.6;"/><line style="stroke:#181818;stroke-width:0.6;" x1="444.9" x2="521.7" y1="168.8145" y2="168.8145"/><text fill="#000000" font-family="sans-serif" font-size="7.8" font-weight="bold" lengthAdjust="spacing" textLength="4.2" x="449.1" y="165.6568">4</text><text fill="#000000" font-family="sans-serif" font-size="7.8" lengthAdjust="spacing" textLength="47.4" x="455.7" y="165.6568">getInstance();</text><polygon fill="#181818" points="451.5,185.1891,445.5,187.5891,451.5,189.9891,449.1,187.5891" style="stroke:#181818;stroke-width:0.6;"/><line style="stroke:#181818;stroke-width:0.6;stroke-dasharray:2.0,2.0;" x1="447.9" x2="527.7" y1="187.5891" y2="187.5891"/><text fill="#000000" font-family="sans-serif" font-size="7.8" font-weight="bold" lengthAdjust="spacing" textLength="4.2" x="455.1" y="184.4314">5</text><text fill="#000000" font-family="sans-serif" font-size="7.8" lengthAdjust="spacing" textLength="40.2" x="461.7" y="184.4314">repositories</text><polygon fill="#181818" points="582.3,203.9637,588.3,206.3637,582.3,208.7637,584.7,206.3637" style="stroke:#181818;stroke-width:0.6;"/><line style="stroke:#181818;stroke-width:0.6;" x1="444.9" x2="585.9" y1="206.3637" y2="206.3637"/><text fill="#000000" font-family="sans-serif" font-size="7.8" font-weight="bold" lengthAdjust="spacing" textLength="4.2" x="449.1" y="203.2061">6</text><text fill="#000000" font-family="sans-serif" font-size="7.8" lengthAdjust="spacing" textLength="42" x="455.7" y="203.2061">getAgenda()</text><polygon fill="#181818" points="451.5,222.7383,445.5,225.1383,451.5,227.5383,449.1,225.1383" style="stroke:#181818;stroke-width:0.6;"/><line style="stroke:#181818;stroke-width:0.6;stroke-dasharray:2.0,2.0;" x1="447.9" x2="591.9" y1="225.1383" y2="225.1383"/><text fill="#000000" font-family="sans-serif" font-size="7.8" font-weight="bold" lengthAdjust="spacing" textLength="4.2" x="455.1" y="221.9807">7</text><text fill="#000000" font-family="sans-serif" font-size="7.8" lengthAdjust="spacing" textLength="25.2" x="461.7" y="221.9807">agenda</text><polygon fill="#181818" points="637.5,241.5129,643.5,243.9129,637.5,246.3129,639.9,243.9129" style="stroke:#181818;stroke-width:0.6;"/><line style="stroke:#181818;stroke-width:0.6;" x1="444.9" x2="641.1" y1="243.9129" y2="243.9129"/><text fill="#000000" font-family="sans-serif" font-size="7.8" font-weight="bold" lengthAdjust="spacing" textLength="4.2" x="449.1" y="240.7553">8</text><text fill="#000000" font-family="sans-serif" font-size="7.8" lengthAdjust="spacing" textLength="45" x="455.7" y="240.7553">getTaskList()</text><polygon fill="#181818" points="451.5,260.2875,445.5,262.6875,451.5,265.0875,449.1,262.6875" style="stroke:#181818;stroke-width:0.6;"/><line style="stroke:#181818;stroke-width:0.6;stroke-dasharray:2.0,2.0;" x1="447.9" x2="647.1" y1="262.6875" y2="262.6875"/><text fill="#000000" font-family="sans-serif" font-size="7.8" font-weight="bold" lengthAdjust="spacing" textLength="4.2" x="455.1" y="259.5299">9</text><text fill="#000000" font-family="sans-serif" font-size="7.8" lengthAdjust="spacing" textLength="27.6" x="461.7" y="259.5299">taskList</text><polygon fill="#181818" points="748.5,279.0621,754.5,281.4621,748.5,283.8621,750.9,281.4621" style="stroke:#181818;stroke-width:0.6;"/><line style="stroke:#181818;stroke-width:0.6;" x1="444.9" x2="752.1" y1="281.4621" y2="281.4621"/><text fill="#000000" font-family="sans-serif" font-size="7.8" font-weight="bold" lengthAdjust="spacing" textLength="8.4" x="449.1" y="278.3045">10</text><text fill="#000000" font-family="sans-serif" font-size="7.8" lengthAdjust="spacing" textLength="85.8" x="459.9" y="278.3045">getTaskDTOlist(taskList)</text><path d="M723.6,290.4621 L767.4,290.4621 L767.4,296.0367 L761.4,302.0367 L723.6,302.0367 L723.6,290.4621 " fill="#EEEEEE" style="stroke:#000000;stroke-width:0.8999999999999999;"/><rect fill="none" height="97.0711" style="stroke:#000000;stroke-width:0.8999999999999999;" width="288" x="723.6" y="290.4621"/><text fill="#000000" font-family="sans-serif" font-size="7.8" font-weight="bold" lengthAdjust="spacing" textLength="16.8" x="732.6" y="299.4791">loop</text><text fill="#000000" font-family="sans-serif" font-size="6.6" font-weight="bold" lengthAdjust="spacing" textLength="84.6" x="776.4" y="298.7842">[for each task in taskList]</text><polygon fill="#181818" points="821.7,313.6113,827.7,316.0113,821.7,318.4113,824.1,316.0113" style="stroke:#181818;stroke-width:0.6;"/><line style="stroke:#181818;stroke-width:0.6;" x1="761.7" x2="825.3" y1="316.0113" y2="316.0113"/><text fill="#000000" font-family="sans-serif" font-size="7.8" font-weight="bold" lengthAdjust="spacing" textLength="8.4" x="765.9" y="312.8537">11</text><text fill="#000000" font-family="sans-serif" font-size="7.8" lengthAdjust="spacing" textLength="42" x="776.7" y="312.8537">toDTO(task)</text><rect fill="#E3E3E3" height="19.5727" rx="1.5" ry="1.5" style="stroke:#181818;stroke-width:0.3;" width="47.4" x="828.9" y="302.0367"/><text fill="#000000" font-family="sans-serif" font-size="8.4" lengthAdjust="spacing" textLength="39" x="833.1" y="315.3012">:TaskDTO</text><path d="M855.6,331.2094 L855.6,357.6094 L1005.6,357.6094 L1005.6,337.2094 L999.6,331.2094 L855.6,331.2094 " fill="#FAFAFA" style="stroke:#181818;stroke-width:0.3;"/><path d="M999.6,331.2094 L999.6,337.2094 L1005.6,337.2094 L999.6,331.2094 " fill="#FAFAFA" style="stroke:#181818;stroke-width:0.3;"/><text fill="#000000" font-family="sans-serif" font-size="7.8" lengthAdjust="spacing" textLength="137.4" x="859.2" y="342.6264">TaskDTO contains the title, description,</text><text fill="#000000" font-family="sans-serif" font-size="7.8" lengthAdjust="spacing" textLength="105.6" x="861.6" y="353.001">status and urgency of the task</text><line style="stroke:#181818;stroke-width:0.6;stroke-dasharray:2.0,2.0;" x1="761.7" x2="786.9" y1="374.9332" y2="374.9332"/><line style="stroke:#181818;stroke-width:0.6;stroke-dasharray:2.0,2.0;" x1="786.9" x2="786.9" y1="374.9332" y2="382.7332"/><line style="stroke:#181818;stroke-width:0.6;stroke-dasharray:2.0,2.0;" x1="762.3" x2="786.9" y1="382.7332" y2="382.7332"/><polygon fill="#181818" points="768.3,380.3332,762.3,382.7332,768.3,385.1332,765.9,382.7332" style="stroke:#181818;stroke-width:0.6;"/><text fill="#000000" font-family="sans-serif" font-size="7.8" font-weight="bold" lengthAdjust="spacing" textLength="8.4" x="765.9" y="371.7756">12</text><text fill="#000000" font-family="sans-serif" font-size="7.8" lengthAdjust="spacing" textLength="49.8" x="776.7" y="371.7756">add(TaskDTO)</text><polygon fill="#181818" points="451.5,403.3078,445.5,405.7078,451.5,408.1078,449.1,405.7078" style="stroke:#181818;stroke-width:0.6;"/><line style="stroke:#181818;stroke-width:0.6;stroke-dasharray:2.0,2.0;" x1="447.9" x2="758.1" y1="405.7078" y2="405.7078"/><text fill="#000000" font-family="sans-serif" font-size="7.8" font-weight="bold" lengthAdjust="spacing" textLength="8.4" x="455.1" y="402.5502">13</text><text fill="#000000" font-family="sans-serif" font-size="7.8" lengthAdjust="spacing" textLength="43.2" x="465.9" y="402.5502">taskDTOList</text><polygon fill="#181818" points="271.2,422.0824,265.2,424.4824,271.2,426.8824,268.8,424.4824" style="stroke:#181818;stroke-width:0.6;"/><line style="stroke:#181818;stroke-width:0.6;stroke-dasharray:2.0,2.0;" x1="267.6" x2="441.3" y1="424.4824" y2="424.4824"/><text fill="#000000" font-family="sans-serif" font-size="7.8" font-weight="bold" lengthAdjust="spacing" textLength="8.4" x="274.8" y="421.3248">14</text><text fill="#000000" font-family="sans-serif" font-size="7.8" lengthAdjust="spacing" textLength="43.2" x="285.6" y="421.3248">taskDTOList</text><path d="M6,433.4824 L49.8,433.4824 L49.8,439.057 L43.8,445.057 L6,445.057 L6,433.4824 " fill="#EEEEEE" style="stroke:#000000;stroke-width:0.8999999999999999;"/><rect fill="none" height="64.1238" style="stroke:#000000;stroke-width:0.8999999999999999;" width="297.9" x="6" y="433.4824"/><text fill="#000000" font-family="sans-serif" font-size="7.8" font-weight="bold" lengthAdjust="spacing" textLength="16.8" x="15" y="442.4994">loop</text><text fill="#000000" font-family="sans-serif" font-size="6.6" font-weight="bold" lengthAdjust="spacing" textLength="130.8" x="58.8" y="441.8045">[until user doesn't select a valid option]</text><polygon fill="#181818" points="48.6,456.6316,42.6,459.0316,48.6,461.4316,46.2,459.0316" style="stroke:#181818;stroke-width:0.6;"/><line style="stroke:#181818;stroke-width:0.6;stroke-dasharray:2.0,2.0;" x1="45" x2="261" y1="459.0316" y2="459.0316"/><text fill="#000000" font-family="sans-serif" font-size="7.8" font-weight="bold" lengthAdjust="spacing" textLength="8.4" x="52.2" y="455.874">15</text><text fill="#000000" font-family="sans-serif" font-size="7.8" lengthAdjust="spacing" textLength="191.4" x="63" y="455.874">displays all tasks in the agenda and asks to select one</text><polygon fill="#181818" points="251.4,475.4063,257.4,477.8063,251.4,480.2062,253.8,477.8063" style="stroke:#181818;stroke-width:0.6;"/><line style="stroke:#181818;stroke-width:0.6;" x1="42" x2="255" y1="477.8063" y2="477.8063"/><text fill="#000000" font-family="sans-serif" font-size="7.8" font-weight="bold" lengthAdjust="spacing" textLength="8.4" x="46.2" y="474.6486">16</text><text fill="#000000" font-family="sans-serif" font-size="7.8" lengthAdjust="spacing" textLength="49.2" x="57" y="474.6486">selects a task</text><line style="stroke:#181818;stroke-width:0.6;stroke-dasharray:2.0,2.0;" x1="264.6" x2="289.8" y1="515.7809" y2="515.7809"/><line style="stroke:#181818;stroke-width:0.6;stroke-dasharray:2.0,2.0;" x1="289.8" x2="289.8" y1="515.7809" y2="523.5809"/><line style="stroke:#181818;stroke-width:0.6;stroke-dasharray:2.0,2.0;" x1="265.2" x2="289.8" y1="523.5809" y2="523.5809"/><polygon fill="#181818" points="271.2,521.1809,265.2,523.5809,271.2,525.9809,268.8,523.5809" style="stroke:#181818;stroke-width:0.6;"/><text fill="#000000" font-family="sans-serif" font-size="7.8" font-weight="bold" lengthAdjust="spacing" textLength="8.4" x="268.8" y="512.6232">17</text><text fill="#000000" font-family="sans-serif" font-size="7.8" lengthAdjust="spacing" textLength="52.8" x="279.6" y="512.6232">keepData(task)</text><path d="M6,532.5809 L49.8,532.5809 L49.8,538.1555 L43.8,544.1555 L6,544.1555 L6,532.5809 " fill="#EEEEEE" style="stroke:#000000;stroke-width:0.8999999999999999;"/><rect fill="none" height="75.6984" style="stroke:#000000;stroke-width:0.8999999999999999;" width="359.4" x="6" y="532.5809"/><text fill="#000000" font-family="sans-serif" font-size="7.8" font-weight="bold" lengthAdjust="spacing" textLength="16.8" x="15" y="541.5979">loop</text><text fill="#000000" font-family="sans-serif" font-size="6.6" font-weight="bold" lengthAdjust="spacing" textLength="59.4" x="58.8" y="540.9029">[until data is valid]</text><polygon fill="#181818" points="48.6,555.7301,42.6,558.1301,48.6,560.5301,46.2,558.1301" style="stroke:#181818;stroke-width:0.6;"/><line style="stroke:#181818;stroke-width:0.6;stroke-dasharray:2.0,2.0;" x1="45" x2="261" y1="558.1301" y2="558.1301"/><text fill="#000000" font-family="sans-serif" font-size="7.8" font-weight="bold" lengthAdjust="spacing" textLength="8.4" x="52.2" y="554.9725">18</text><text fill="#000000" font-family="sans-serif" font-size="7.8" lengthAdjust="spacing" textLength="85.8" x="63" y="554.9725">asks for a new start date</text><polygon fill="#181818" points="251.4,574.5047,257.4,576.9047,251.4,579.3047,253.8,576.9047" style="stroke:#181818;stroke-width:0.6;"/><line style="stroke:#181818;stroke-width:0.6;" x1="42" x2="255" y1="576.9047" y2="576.9047"/><text fill="#000000" font-family="sans-serif" font-size="7.8" font-weight="bold" lengthAdjust="spacing" textLength="8.4" x="46.2" y="573.7471">19</text><text fill="#000000" font-family="sans-serif" font-size="7.8" lengthAdjust="spacing" textLength="59.4" x="57" y="573.7471">types a new date</text><line style="stroke:#181818;stroke-width:0.6;stroke-dasharray:2.0,2.0;" x1="264.6" x2="289.8" y1="595.6793" y2="595.6793"/><line style="stroke:#181818;stroke-width:0.6;stroke-dasharray:2.0,2.0;" x1="289.8" x2="289.8" y1="595.6793" y2="603.4793"/><line style="stroke:#181818;stroke-width:0.6;stroke-dasharray:2.0,2.0;" x1="265.2" x2="289.8" y1="603.4793" y2="603.4793"/><polygon fill="#181818" points="271.2,601.0793,265.2,603.4793,271.2,605.8793,268.8,603.4793" style="stroke:#181818;stroke-width:0.6;"/><text fill="#000000" font-family="sans-serif" font-size="7.8" font-weight="bold" lengthAdjust="spacing" textLength="8.4" x="268.8" y="592.5217">20</text><text fill="#000000" font-family="sans-serif" font-size="7.8" lengthAdjust="spacing" textLength="78.6" x="279.6" y="592.5217">validateDate(startDate)</text><line style="stroke:#181818;stroke-width:0.6;stroke-dasharray:2.0,2.0;" x1="264.6" x2="289.8" y1="626.4539" y2="626.4539"/><line style="stroke:#181818;stroke-width:0.6;stroke-dasharray:2.0,2.0;" x1="289.8" x2="289.8" y1="626.4539" y2="634.2539"/><line style="stroke:#181818;stroke-width:0.6;stroke-dasharray:2.0,2.0;" x1="265.2" x2="289.8" y1="634.2539" y2="634.2539"/><polygon fill="#181818" points="271.2,631.8539,265.2,634.2539,271.2,636.6539,268.8,634.2539" style="stroke:#181818;stroke-width:0.6;"/><text fill="#000000" font-family="sans-serif" font-size="7.8" font-weight="bold" lengthAdjust="spacing" textLength="8.4" x="268.8" y="623.2963">21</text><text fill="#000000" font-family="sans-serif" font-size="7.8" lengthAdjust="spacing" textLength="69.6" x="279.6" y="623.2963">keepData(startDate)</text><polygon fill="#181818" points="48.6,650.6285,42.6,653.0285,48.6,655.4285,46.2,653.0285" style="stroke:#181818;stroke-width:0.6;"/><line style="stroke:#181818;stroke-width:0.6;stroke-dasharray:2.0,2.0;" x1="45" x2="261" y1="653.0285" y2="653.0285"/><text fill="#000000" font-family="sans-serif" font-size="7.8" font-weight="bold" lengthAdjust="spacing" textLength="8.4" x="52.2" y="649.8709">22</text><text fill="#000000" font-family="sans-serif" font-size="7.8" lengthAdjust="spacing" textLength="141.6" x="63" y="649.8709">shows all data and requests confirmation</text><polygon fill="#181818" points="251.4,669.4031,257.4,671.8031,251.4,674.2031,253.8,671.8031" style="stroke:#181818;stroke-width:0.6;"/><line style="stroke:#181818;stroke-width:0.6;" x1="42" x2="255" y1="671.8031" y2="671.8031"/><text fill="#000000" font-family="sans-serif" font-size="7.8" font-weight="bold" lengthAdjust="spacing" textLength="8.4" x="46.2" y="668.6455">23</text><text fill="#000000" font-family="sans-serif" font-size="7.8" lengthAdjust="spacing" textLength="46.8" x="57" y="668.6455">confirms data</text><polygon fill="#181818" points="431.7,688.1777,437.7,690.5777,431.7,692.9777,434.1,690.5777" style="stroke:#181818;stroke-width:0.6;"/><line style="stroke:#181818;stroke-width:0.6;" x1="264.6" x2="435.3" y1="690.5777" y2="690.5777"/><text fill="#000000" font-family="sans-serif" font-size="7.8" font-weight="bold" lengthAdjust="spacing" textLength="8.4" x="268.8" y="687.4201">24</text><text fill="#000000" font-family="sans-serif" font-size="7.8" lengthAdjust="spacing" textLength="120.6" x="279.6" y="687.4201">postponeTask(taskDTO, startDate)</text><polygon fill="#181818" points="518.1,706.9523,524.1,709.3523,518.1,711.7523,520.5,709.3523" style="stroke:#181818;stroke-width:0.6;"/><line style="stroke:#181818;stroke-width:0.6;" x1="444.9" x2="521.7" y1="709.3523" y2="709.3523"/><text fill="#000000" font-family="sans-serif" font-size="7.8" font-weight="bold" lengthAdjust="spacing" textLength="8.4" x="449.1" y="706.1947">25</text><text fill="#000000" font-family="sans-serif" font-size="7.8" lengthAdjust="spacing" textLength="47.4" x="459.9" y="706.1947">getInstance();</text><polygon fill="#181818" points="451.5,725.727,445.5,728.127,451.5,730.527,449.1,728.127" style="stroke:#181818;stroke-width:0.6;"/><line style="stroke:#181818;stroke-width:0.6;stroke-dasharray:2.0,2.0;" x1="447.9" x2="527.7" y1="728.127" y2="728.127"/><text fill="#000000" font-family="sans-serif" font-size="7.8" font-weight="bold" lengthAdjust="spacing" textLength="8.4" x="455.1" y="724.9693">26</text><text fill="#000000" font-family="sans-serif" font-size="7.8" lengthAdjust="spacing" textLength="40.2" x="465.9" y="724.9693">repositories</text><polygon fill="#181818" points="582.3,744.5016,588.3,746.9016,582.3,749.3016,584.7,746.9016" style="stroke:#181818;stroke-width:0.6;"/><line style="stroke:#181818;stroke-width:0.6;" x1="444.9" x2="585.9" y1="746.9016" y2="746.9016"/><text fill="#000000" font-family="sans-serif" font-size="7.8" font-weight="bold" lengthAdjust="spacing" textLength="8.4" x="449.1" y="743.7439">27</text><text fill="#000000" font-family="sans-serif" font-size="7.8" lengthAdjust="spacing" textLength="42" x="459.9" y="743.7439">getAgenda()</text><polygon fill="#181818" points="451.5,763.2762,445.5,765.6762,451.5,768.0762,449.1,765.6762" style="stroke:#181818;stroke-width:0.6;"/><line style="stroke:#181818;stroke-width:0.6;stroke-dasharray:2.0,2.0;" x1="447.9" x2="591.9" y1="765.6762" y2="765.6762"/><text fill="#000000" font-family="sans-serif" font-size="7.8" font-weight="bold" lengthAdjust="spacing" textLength="8.4" x="455.1" y="762.5186">28</text><text fill="#000000" font-family="sans-serif" font-size="7.8" lengthAdjust="spacing" textLength="25.2" x="465.9" y="762.5186">agenda</text><polygon fill="#181818" points="637.5,782.0508,643.5,784.4508,637.5,786.8508,639.9,784.4508" style="stroke:#181818;stroke-width:0.6;"/><line style="stroke:#181818;stroke-width:0.6;" x1="444.9" x2="641.1" y1="784.4508" y2="784.4508"/><text fill="#000000" font-family="sans-serif" font-size="7.8" font-weight="bold" lengthAdjust="spacing" textLength="8.4" x="449.1" y="781.2932">29</text><text fill="#000000" font-family="sans-serif" font-size="7.8" lengthAdjust="spacing" textLength="120.6" x="459.9" y="781.2932">postponeTask(taskDTO, startDate)</text><polygon fill="#181818" points="875.1,800.8254,881.1,803.2254,875.1,805.6254,877.5,803.2254" style="stroke:#181818;stroke-width:0.6;"/><line style="stroke:#181818;stroke-width:0.6;stroke-dasharray:2.0,2.0;" x1="650.7" x2="878.7" y1="803.2254" y2="803.2254"/><text fill="#000000" font-family="sans-serif" font-size="7.8" font-weight="bold" lengthAdjust="spacing" textLength="8.4" x="654.9" y="800.0678">30</text><text fill="#000000" font-family="sans-serif" font-size="7.8" lengthAdjust="spacing" textLength="30" x="665.7" y="800.0678">getTitle()</text><rect fill="#E3E3E3" height="30.7453" rx="1.5" ry="1.5" style="stroke:#181818;stroke-width:0.3;" width="47.4" x="882.3" y="789.2508"/><text fill="#000000" font-family="sans-serif" font-size="8.4" lengthAdjust="spacing" textLength="33.6" x="889.2" y="802.5152">taskDTO</text><text fill="#000000" font-family="sans-serif" font-size="8.4" lengthAdjust="spacing" textLength="39" x="886.5" y="813.6879">:TaskDTO</text><line style="stroke:#181818;stroke-width:0.6;stroke-dasharray:2.0,2.0;" x1="650.7" x2="675.9" y1="840.5707" y2="840.5707"/><line style="stroke:#181818;stroke-width:0.6;stroke-dasharray:2.0,2.0;" x1="675.9" x2="675.9" y1="840.5707" y2="848.3707"/><line style="stroke:#181818;stroke-width:0.6;stroke-dasharray:2.0,2.0;" x1="651.3" x2="675.9" y1="848.3707" y2="848.3707"/><polygon fill="#181818" points="657.3,845.9707,651.3,848.3707,657.3,850.7707,654.9,848.3707" style="stroke:#181818;stroke-width:0.6;"/><text fill="#000000" font-family="sans-serif" font-size="7.8" font-weight="bold" lengthAdjust="spacing" textLength="8.4" x="654.9" y="837.4131">31</text><text fill="#000000" font-family="sans-serif" font-size="7.8" lengthAdjust="spacing" textLength="85.8" x="665.7" y="837.4131">getTaskByTitle(taskTitle)</text><polygon fill="#181818" points="940.2,864.7453,946.2,867.1453,940.2,869.5453,942.6,867.1453" style="stroke:#181818;stroke-width:0.6;"/><line style="stroke:#181818;stroke-width:0.6;" x1="650.7" x2="943.8" y1="867.1453" y2="867.1453"/><text fill="#000000" font-family="sans-serif" font-size="7.8" font-weight="bold" lengthAdjust="spacing" textLength="8.4" x="654.9" y="863.9877">32</text><text fill="#000000" font-family="sans-serif" font-size="7.8" lengthAdjust="spacing" textLength="80.4" x="665.7" y="863.9877">setStartDate(startDate)</text><polygon fill="#181818" points="1040.4,883.5199,1046.4,885.9199,1040.4,888.3199,1042.8,885.9199" style="stroke:#181818;stroke-width:0.6;"/><line style="stroke:#181818;stroke-width:0.6;" x1="953.4" x2="1044" y1="885.9199" y2="885.9199"/><text fill="#000000" font-family="sans-serif" font-size="7.8" font-weight="bold" lengthAdjust="spacing" textLength="8.4" x="957.6" y="882.7623">33</text><text fill="#000000" font-family="sans-serif" font-size="7.8" lengthAdjust="spacing" textLength="69" x="968.4" y="882.7623">new Date(startDate)</text><rect fill="#E3E3E3" height="19.5727" rx="1.5" ry="1.5" style="stroke:#181818;stroke-width:0.3;" width="28.8" x="1047.6" y="871.9453"/><text fill="#000000" font-family="sans-serif" font-size="8.4" lengthAdjust="spacing" textLength="20.4" x="1051.8" y="885.2098">:Date</text><line style="stroke:#181818;stroke-width:0.6;stroke-dasharray:2.0,2.0;" x1="1062" x2="1087.2" y1="912.0926" y2="912.0926"/><line style="stroke:#181818;stroke-width:0.6;stroke-dasharray:2.0,2.0;" x1="1087.2" x2="1087.2" y1="912.0926" y2="919.8926"/><line style="stroke:#181818;stroke-width:0.6;stroke-dasharray:2.0,2.0;" x1="1062.6" x2="1087.2" y1="919.8926" y2="919.8926"/><polygon fill="#181818" points="1068.6,917.4926,1062.6,919.8926,1068.6,922.2926,1066.2,919.8926" style="stroke:#181818;stroke-width:0.6;"/><text fill="#000000" font-family="sans-serif" font-size="7.8" font-weight="bold" lengthAdjust="spacing" textLength="8.4" x="1066.2" y="908.935">34</text><text fill="#000000" font-family="sans-serif" font-size="7.8" lengthAdjust="spacing" textLength="78.6" x="1077" y="908.935">validateDate(startDate)</text><polygon fill="#181818" points="657.3,936.2672,651.3,938.6672,657.3,941.0672,654.9,938.6672" style="stroke:#181818;stroke-width:0.6;"/><line style="stroke:#181818;stroke-width:0.6;stroke-dasharray:2.0,2.0;" x1="653.7" x2="949.8" y1="938.6672" y2="938.6672"/><text fill="#000000" font-family="sans-serif" font-size="7.8" font-weight="bold" lengthAdjust="spacing" textLength="8.4" x="660.9" y="935.5096">35</text><text fill="#000000" font-family="sans-serif" font-size="7.8" lengthAdjust="spacing" textLength="63.6" x="671.7" y="935.5096">operation success</text><polygon fill="#181818" points="451.5,955.0418,445.5,957.4418,451.5,959.8418,449.1,957.4418" style="stroke:#181818;stroke-width:0.6;"/><line style="stroke:#181818;stroke-width:0.6;stroke-dasharray:2.0,2.0;" x1="447.9" x2="647.1" y1="957.4418" y2="957.4418"/><text fill="#000000" font-family="sans-serif" font-size="7.8" font-weight="bold" lengthAdjust="spacing" textLength="8.4" x="455.1" y="954.2842">36</text><text fill="#000000" font-family="sans-serif" font-size="7.8" lengthAdjust="spacing" textLength="63.6" x="465.9" y="954.2842">operation success</text><polygon fill="#181818" points="271.2,973.8164,265.2,976.2164,271.2,978.6164,268.8,976.2164" style="stroke:#181818;stroke-width:0.6;"/><line style="stroke:#181818;stroke-width:0.6;stroke-dasharray:2.0,2.0;" x1="267.6" x2="441.3" y1="976.2164" y2="976.2164"/><text fill="#000000" font-family="sans-serif" font-size="7.8" font-weight="bold" lengthAdjust="spacing" textLength="8.4" x="274.8" y="973.0588">37</text><text fill="#000000" font-family="sans-serif" font-size="7.8" lengthAdjust="spacing" textLength="63.6" x="285.6" y="973.0588">operation success</text><polygon fill="#181818" points="48.6,992.591,42.6,994.991,48.6,997.391,46.2,994.991" style="stroke:#181818;stroke-width:0.6;"/><line style="stroke:#181818;stroke-width:0.6;stroke-dasharray:2.0,2.0;" x1="45" x2="261" y1="994.991" y2="994.991"/><text fill="#000000" font-family="sans-serif" font-size="7.8" font-weight="bold" lengthAdjust="spacing" textLength="8.4" x="52.2" y="991.8334">38</text><text fill="#000000" font-family="sans-serif" font-size="7.8" lengthAdjust="spacing" textLength="94.8" x="63" y="991.8334">displays operation success</text><!--SRC=[bLPDRzim3BtxLn2zB2bQO1Xswe01NLCK0TgjQDfRBvgj948SoPFa5W7wuqVHiYBBTfBg9CjyvEE7I9cDa1NJR0jR9LM-rchBmUgQPoRygLY-OIk-iBkIW-QvPN9LnW9cpGhrBkGAbgmqFCkii2ZwilZwxJjSmeB_gxdCESm4MpdvoM8spJ9MMoNhxL-kSPzRfU7iJdCkOO46-QjyO1AjwZDW1kuM3ndQiY8N5PCMpguUbR6LaloPcStBd8HUvWTaRfIqMfMbLtZp_7IVI3_nIXc1F0Gt9FDq-_YdAwCZaLSvZ9XBWm7AUHU9diY28UQQDYHzVNVxUtQTi71S7rXLUPxxpm6vsVEV88JxheHj3j5aBBhYTbJQYmQLYSKPivp-kGsbJBpXZdAJ0IxSmELFJ0DSeTZ6W5LG-HG00sS2X0IxnY-A0g627amV7I0UjRW4dP-Z9idVmINoiPV8oJG5eBXtqCnb4saKwbYXnDEHMmH2i4jS0sxJDvd-2581J1KHZjqYuENUV5mXGR3WNGr3rbkx3OiEznw5K68zAa5BH2cAzG2Pe2ibrLJdFgBtmjWXGhwAErGyDY9XlOOX6gc6bi6-zg-YkYqTZrRT09_encIbKXKiiREWiVM-05CkRkrXhMcqTNwEp1LkoE2q0v0AZMcnMbjGot058Ld-77AiMYQaeUgdzdY18J2v5fKLIbxqW81fiRK19WkeDQOmtpax17TtCnR5_1ATKOSwmNGbKHGJpsoQERGBr25qb4N4Z2Ko2dqtbsrNYF5P0cuk9cMibbQKK1iqNYXkv1SBXfSuUB2BlB5I5A0eQi6Awm1empMWAoY4gKgsmz2L9LaqtQv38MtxazUBlINbqxQZkAirqiOtirxxSjyV7n_zY7f-f6F3UOKTbFcIYXmky1I4QLmSzereku9cr1UnHhHrk9FOsrt5ZKS6JCe_fKjayBzh-XEovtRJ4tsC08F-cBLwRn95phlCQFTQC1Xal39BeRSiPFg8UrxUaAhXqTAR5bNqGfZuwho00TOZy-Fq6N9aZfmyImxDaq_Eb1FdoYTcoodpPN36d9o7ewCd6J_xkK6F2VVfccyIXGIKZhvVkmRaYD5k7DqqMceLTj7IdumuqfjRVLVQNkmqEmNXINHChrlk3pb4c_6xF6uq3eR2lawN4KoTvzoO7YuP1GSJumleiD83ZuJ-S1bNrPioX-V6iA9kz_aF]--></g></svg>