<?xml version="1.0" encoding="UTF-8" standalone="no"?>
<!DOCTYPE svg PUBLIC "-//W3C//DTD SVG 1.1//EN"
 "http://www.w3.org/Graphics/SVG/1.1/DTD/svg11.dtd">
<!-- Generated by graphviz version 10.0.1 (20240210.2158)
 -->
<!-- Pages: 1 -->
<svg width="421pt" height="315pt"
 viewBox="0.00 0.00 420.63 315.36" xmlns="http://www.w3.org/2000/svg" xmlns:xlink="http://www.w3.org/1999/xlink">
<g id="graph0" class="graph" transform="scale(1 1) rotate(0) translate(4 311.36)">
<polygon fill="white" stroke="none" points="-4,4 -4,-311.36 416.63,-311.36 416.63,4 -4,4"/>
<text text-anchor="middle" x="206.32" y="-279.61" font-family="Times New Roman,serif" font-size="25.00">1</text>
<!-- 1 -->
<g id="node1" class="node">
<title>1</title>
<ellipse fill="none" stroke="black" cx="27" cy="-18" rx="27" ry="18"/>
<text text-anchor="middle" x="27" y="-12.57" font-family="Times New Roman,serif" font-size="14.00">1</text>
</g>
<!-- 3 -->
<g id="node2" class="node">
<title>3</title>
<ellipse fill="none" stroke="black" cx="148.03" cy="-96.49" rx="27" ry="18"/>
<text text-anchor="middle" x="148.03" y="-91.06" font-family="Times New Roman,serif" font-size="14.00">3</text>
</g>
<!-- 1&#45;&#45;3 -->
<g id="edge1" class="edge">
<title>1&#45;&#45;3</title>
<path fill="none" stroke="red" stroke-width="2" d="M46.72,-30.79C69.22,-45.38 105.82,-69.12 128.32,-83.71"/>
<text text-anchor="middle" x="84.14" y="-59.7" font-family="Times New Roman,serif" font-size="14.00">3</text>
</g>
<!-- 5 -->
<g id="node3" class="node">
<title>5</title>
<ellipse fill="none" stroke="black" cx="281.96" cy="-152.14" rx="27" ry="18"/>
<text text-anchor="middle" x="281.96" y="-146.72" font-family="Times New Roman,serif" font-size="14.00">5</text>
</g>
<!-- 3&#45;&#45;5 -->
<g id="edge2" class="edge">
<title>3&#45;&#45;5</title>
<path fill="none" stroke="red" stroke-width="2" d="M171.36,-106.18C195.94,-116.4 234.42,-132.39 258.9,-142.56"/>
<text text-anchor="middle" x="211.76" y="-126.82" font-family="Times New Roman,serif" font-size="14.00">2</text>
</g>
<!-- AP5 -->
<g id="node4" class="node">
<title>AP5</title>
<ellipse fill="none" stroke="black" cx="385.52" cy="-253.61" rx="27.11" ry="18"/>
<text text-anchor="middle" x="385.52" y="-248.18" font-family="Times New Roman,serif" font-size="14.00">AP5</text>
</g>
<!-- AP5&#45;&#45;5 -->
<g id="edge3" class="edge">
<title>AP5&#45;&#45;5</title>
<path fill="none" stroke="red" stroke-width="2" d="M370.24,-238.63C350.66,-219.45 316.92,-186.39 297.31,-167.17"/>
<text text-anchor="middle" x="330.4" y="-205.35" font-family="Times New Roman,serif" font-size="14.00">3</text>
</g>
</g>
</svg>
