<?xml version="1.0" encoding="UTF-8" standalone="no"?>
<!DOCTYPE svg PUBLIC "-//W3C//DTD SVG 1.1//EN"
 "http://www.w3.org/Graphics/SVG/1.1/DTD/svg11.dtd">
<!-- Generated by graphviz version 10.0.1 (20240210.2158)
 -->
<!-- Pages: 1 -->
<svg width="421pt" height="315pt"
 viewBox="0.00 0.00 420.63 315.36" xmlns="http://www.w3.org/2000/svg" xmlns:xlink="http://www.w3.org/1999/xlink">
<g id="graph0" class="graph" transform="scale(1 1) rotate(0) translate(4 311.36)">
<polygon fill="white" stroke="none" points="-4,4 -4,-311.36 416.63,-311.36 416.63,4 -4,4"/>
<text text-anchor="middle" x="206.32" y="-279.61" font-family="Times New Roman,serif" font-size="25.00">20</text>
<!-- 20 -->
<g id="node1" class="node">
<title>20</title>
<ellipse fill="none" stroke="black" cx="27" cy="-18" rx="27" ry="18"/>
<text text-anchor="middle" x="27" y="-12.57" font-family="Times New Roman,serif" font-size="14.00">20</text>
</g>
<!-- 22 -->
<g id="node2" class="node">
<title>22</title>
<ellipse fill="none" stroke="black" cx="148.03" cy="-96.49" rx="27" ry="18"/>
<text text-anchor="middle" x="148.03" y="-91.06" font-family="Times New Roman,serif" font-size="14.00">22</text>
</g>
<!-- 20&#45;&#45;22 -->
<g id="edge1" class="edge">
<title>20&#45;&#45;22</title>
<path fill="none" stroke="red" stroke-width="2" d="M46.72,-30.79C69.22,-45.38 105.82,-69.12 128.32,-83.71"/>
<text text-anchor="middle" x="84.14" y="-59.7" font-family="Times New Roman,serif" font-size="14.00">4</text>
</g>
<!-- 23 -->
<g id="node3" class="node">
<title>23</title>
<ellipse fill="none" stroke="black" cx="281.96" cy="-152.14" rx="27" ry="18"/>
<text text-anchor="middle" x="281.96" y="-146.72" font-family="Times New Roman,serif" font-size="14.00">23</text>
</g>
<!-- 22&#45;&#45;23 -->
<g id="edge2" class="edge">
<title>22&#45;&#45;23</title>
<path fill="none" stroke="red" stroke-width="2" d="M171.36,-106.18C195.94,-116.4 234.42,-132.39 258.9,-142.56"/>
<text text-anchor="middle" x="211.76" y="-126.82" font-family="Times New Roman,serif" font-size="14.00">2</text>
</g>
<!-- AP2 -->
<g id="node4" class="node">
<title>AP2</title>
<ellipse fill="none" stroke="black" cx="385.52" cy="-253.61" rx="27.11" ry="18"/>
<text text-anchor="middle" x="385.52" y="-248.18" font-family="Times New Roman,serif" font-size="14.00">AP2</text>
</g>
<!-- 23&#45;&#45;AP2 -->
<g id="edge3" class="edge">
<title>23&#45;&#45;AP2</title>
<path fill="none" stroke="red" stroke-width="2" d="M297.24,-167.11C316.82,-186.3 350.57,-219.36 370.18,-238.57"/>
<text text-anchor="middle" x="330.34" y="-205.29" font-family="Times New Roman,serif" font-size="14.00">1</text>
</g>
</g>
</svg>
