<?xml version="1.0" encoding="UTF-8" standalone="no"?>
<!DOCTYPE svg PUBLIC "-//W3C//DTD SVG 1.1//EN"
 "http://www.w3.org/Graphics/SVG/1.1/DTD/svg11.dtd">
<!-- Generated by graphviz version 10.0.1 (20240210.2158)
 -->
<!-- Pages: 1 -->
<svg width="575pt" height="565pt"
 viewBox="0.00 0.00 575.27 564.96" xmlns="http://www.w3.org/2000/svg" xmlns:xlink="http://www.w3.org/1999/xlink">
<g id="graph0" class="graph" transform="scale(1 1) rotate(0) translate(4 560.96)">
<polygon fill="white" stroke="none" points="-4,4 -4,-560.96 571.27,-560.96 571.27,4 -4,4"/>
<text text-anchor="middle" x="283.63" y="-529.21" font-family="Times New Roman,serif" font-size="25.00">39</text>
<!-- 38 -->
<g id="node1" class="node">
<title>38</title>
<ellipse fill="none" stroke="black" cx="158.09" cy="-79.49" rx="27" ry="18"/>
<text text-anchor="middle" x="158.09" y="-74.07" font-family="Times New Roman,serif" font-size="14.00">38</text>
</g>
<!-- 39 -->
<g id="node2" class="node">
<title>39</title>
<ellipse fill="none" stroke="black" cx="27" cy="-18" rx="27" ry="18"/>
<text text-anchor="middle" x="27" y="-12.57" font-family="Times New Roman,serif" font-size="14.00">39</text>
</g>
<!-- 38&#45;&#45;39 -->
<g id="edge1" class="edge">
<title>38&#45;&#45;39</title>
<path fill="none" stroke="red" stroke-width="2" d="M135.55,-68.92C111.39,-57.59 73.28,-39.71 49.24,-28.43"/>
<text text-anchor="middle" x="89.02" y="-51.13" font-family="Times New Roman,serif" font-size="14.00">1</text>
</g>
<!-- 40 -->
<g id="node3" class="node">
<title>40</title>
<ellipse fill="none" stroke="black" cx="277.57" cy="-161.53" rx="27" ry="18"/>
<text text-anchor="middle" x="277.57" y="-156.1" font-family="Times New Roman,serif" font-size="14.00">40</text>
</g>
<!-- 38&#45;&#45;40 -->
<g id="edge2" class="edge">
<title>38&#45;&#45;40</title>
<path fill="none" stroke="red" stroke-width="2" d="M177.28,-92.67C199.58,-107.98 236.14,-133.09 258.42,-148.38"/>
<text text-anchor="middle" x="214.47" y="-122.98" font-family="Times New Roman,serif" font-size="14.00">1</text>
</g>
<!-- 22 -->
<g id="node4" class="node">
<title>22</title>
<ellipse fill="none" stroke="black" cx="382.68" cy="-261.33" rx="27" ry="18"/>
<text text-anchor="middle" x="382.68" y="-255.9" font-family="Times New Roman,serif" font-size="14.00">22</text>
</g>
<!-- 22&#45;&#45;40 -->
<g id="edge3" class="edge">
<title>22&#45;&#45;40</title>
<path fill="none" stroke="red" stroke-width="2" d="M367.17,-246.6C347.3,-227.73 313.04,-195.21 293.14,-176.31"/>
<text text-anchor="middle" x="326.78" y="-213.91" font-family="Times New Roman,serif" font-size="14.00">3</text>
</g>
<!-- 23 -->
<g id="node5" class="node">
<title>23</title>
<ellipse fill="none" stroke="black" cx="471.29" cy="-375.94" rx="27" ry="18"/>
<text text-anchor="middle" x="471.29" y="-370.52" font-family="Times New Roman,serif" font-size="14.00">23</text>
</g>
<!-- 22&#45;&#45;23 -->
<g id="edge4" class="edge">
<title>22&#45;&#45;23</title>
<path fill="none" stroke="red" stroke-width="2" d="M395,-277.26C411.84,-299.04 441.86,-337.88 458.79,-359.77"/>
<text text-anchor="middle" x="423.52" y="-320.97" font-family="Times New Roman,serif" font-size="14.00">2</text>
</g>
<!-- AP2 -->
<g id="node6" class="node">
<title>AP2</title>
<ellipse fill="none" stroke="black" cx="540.16" cy="-503.21" rx="27.11" ry="18"/>
<text text-anchor="middle" x="540.16" y="-497.78" font-family="Times New Roman,serif" font-size="14.00">AP2</text>
</g>
<!-- 23&#45;&#45;AP2 -->
<g id="edge5" class="edge">
<title>23&#45;&#45;AP2</title>
<path fill="none" stroke="red" stroke-width="2" d="M480.58,-393.11C493.72,-417.39 517.61,-461.55 530.8,-485.91"/>
<text text-anchor="middle" x="502.31" y="-441.96" font-family="Times New Roman,serif" font-size="14.00">1</text>
</g>
</g>
</svg>
