<?xml version="1.0" encoding="UTF-8" standalone="no"?>
<!DOCTYPE svg PUBLIC "-//W3C//DTD SVG 1.1//EN"
 "http://www.w3.org/Graphics/SVG/1.1/DTD/svg11.dtd">
<!-- Generated by graphviz version 10.0.1 (20240210.2158)
 -->
<!-- Pages: 1 -->
<svg width="485pt" height="126pt"
 viewBox="0.00 0.00 484.59 126.43" xmlns="http://www.w3.org/2000/svg" xmlns:xlink="http://www.w3.org/1999/xlink">
<g id="graph0" class="graph" transform="scale(1 1) rotate(0) translate(4 122.43)">
<polygon fill="white" stroke="none" points="-4,4 -4,-122.43 480.59,-122.43 480.59,4 -4,4"/>
<text text-anchor="middle" x="238.3" y="-90.68" font-family="Times New Roman,serif" font-size="25.00">40</text>
<!-- 22 -->
<g id="node1" class="node">
<title>22</title>
<ellipse fill="none" stroke="black" cx="166.21" cy="-18" rx="27" ry="18"/>
<text text-anchor="middle" x="166.21" y="-12.57" font-family="Times New Roman,serif" font-size="14.00">22</text>
</g>
<!-- 40 -->
<g id="node2" class="node">
<title>40</title>
<ellipse fill="none" stroke="black" cx="27" cy="-58.81" rx="27" ry="18"/>
<text text-anchor="middle" x="27" y="-53.39" font-family="Times New Roman,serif" font-size="14.00">40</text>
</g>
<!-- 22&#45;&#45;40 -->
<g id="edge1" class="edge">
<title>22&#45;&#45;40</title>
<path fill="none" stroke="red" stroke-width="2" d="M141,-25.39C115.77,-32.79 77.18,-44.1 52.02,-51.48"/>
<text text-anchor="middle" x="93.13" y="-40.88" font-family="Times New Roman,serif" font-size="14.00">3</text>
</g>
<!-- 23 -->
<g id="node3" class="node">
<title>23</title>
<ellipse fill="none" stroke="black" cx="311.47" cy="-20.03" rx="27" ry="18"/>
<text text-anchor="middle" x="311.47" y="-14.6" font-family="Times New Roman,serif" font-size="14.00">23</text>
</g>
<!-- 22&#45;&#45;23 -->
<g id="edge2" class="edge">
<title>22&#45;&#45;23</title>
<path fill="none" stroke="red" stroke-width="2" d="M193.53,-18.38C219.5,-18.74 258.34,-19.29 284.27,-19.65"/>
<text text-anchor="middle" x="235.52" y="-21.46" font-family="Times New Roman,serif" font-size="14.00">2</text>
</g>
<!-- AP2 -->
<g id="node4" class="node">
<title>AP2</title>
<ellipse fill="none" stroke="black" cx="449.48" cy="-64.68" rx="27.11" ry="18"/>
<text text-anchor="middle" x="449.48" y="-59.25" font-family="Times New Roman,serif" font-size="14.00">AP2</text>
</g>
<!-- 23&#45;&#45;AP2 -->
<g id="edge3" class="edge">
<title>23&#45;&#45;AP2</title>
<path fill="none" stroke="red" stroke-width="2" d="M336.14,-28.01C361.26,-36.14 399.98,-48.66 425.02,-56.76"/>
<text text-anchor="middle" x="377.2" y="-44.84" font-family="Times New Roman,serif" font-size="14.00">1</text>
</g>
</g>
</svg>
