<?xml version="1.0" encoding="us-ascii" standalone="no"?><svg xmlns="http://www.w3.org/2000/svg" xmlns:xlink="http://www.w3.org/1999/xlink" contentStyleType="text/css" height="1199.8px" preserveAspectRatio="none" style="width:1785px;height:1199px;background:#FFFFFF;" version="1.1" viewBox="0 0 1785 1199" width="1785.7px" zoomAndPan="magnify"><defs/><g><text fill="#000000" font-family="sans-serif" font-size="9.8" font-weight="bold" lengthAdjust="spacing" textLength="154.7" x="814.8" y="21.0752">US020 - Sequence Diagram (SD)</text><rect fill="#FFFFFF" height="1010.1943" style="stroke:#181818;stroke-width:0.6999999999999998;" width="7" x="42" y="106.3043"/><rect fill="#FFFFFF" height="82.9459" style="stroke:#181818;stroke-width:0.6999999999999998;" width="7" x="238.7" y="122.608"/><rect fill="#FFFFFF" height="69.9111" style="stroke:#181818;stroke-width:0.6999999999999998;" width="7" x="238.7" y="227.4576"/><rect fill="#FFFFFF" height="803.5262" style="stroke:#181818;stroke-width:0.6999999999999998;" width="7" x="238.7" y="319.2725"/><rect fill="#FFFFFF" height="719.4113" style="stroke:#181818;stroke-width:0.6999999999999998;" width="7" x="628.25" y="375.1836"/><rect fill="#FFFFFF" height="21.9037" style="stroke:#181818;stroke-width:0.6999999999999998;" width="7" x="743.75" y="397.0873"/><rect fill="#FFFFFF" height="21.9037" style="stroke:#181818;stroke-width:0.6999999999999998;" width="7" x="818.65" y="440.8947"/><rect fill="#FFFFFF" height="306.9445" style="stroke:#181818;stroke-width:0.6999999999999998;" width="7" x="910.7" y="659.9318"/><rect fill="#FFFFFF" height="83.9111" style="stroke:#181818;stroke-width:0.6999999999999998;" width="7" x="1025.85" y="988.7801"/><rect fill="#FFFFFF" height="21.9037" style="stroke:#181818;stroke-width:0.6999999999999998;" width="7" x="1506.75" y="484.7021"/><rect fill="#FFFFFF" height="21.9037" style="stroke:#181818;stroke-width:0.6999999999999998;" width="7" x="1609.65" y="528.5096"/><rect fill="#FFFFFF" height="21.9037" style="stroke:#181818;stroke-width:0.6999999999999998;" width="7" x="1698.55" y="572.317"/><rect fill="#FFFFFF" height="21.9037" style="stroke:#181818;stroke-width:0.6999999999999998;" width="7" x="1758.75" y="616.1244"/><rect fill="none" height="69.4148" style="stroke:#000000;stroke-width:1.0499999999999998;" width="299.25" x="7" y="163.6428"/><line style="stroke:#181818;stroke-width:0.3499999999999999;stroke-dasharray:5.0,5.0;" x1="45.5" x2="45.5" y1="99.3043" y2="1129.0986"/><line style="stroke:#181818;stroke-width:0.3499999999999999;stroke-dasharray:5.0,5.0;" x1="241.85" x2="241.85" y1="99.3043" y2="1129.0986"/><line style="stroke:#181818;stroke-width:0.3499999999999999;stroke-dasharray:5.0,5.0;" x1="505.4" x2="505.4" y1="348.8762" y2="1129.0986"/><line style="stroke:#181818;stroke-width:0.3499999999999999;stroke-dasharray:5.0,5.0;" x1="631.4" x2="631.4" y1="150.4754" y2="1129.0986"/><line style="stroke:#181818;stroke-width:0.3499999999999999;stroke-dasharray:5.0,5.0;" x1="746.9" x2="746.9" y1="99.3043" y2="1129.0986"/><line style="stroke:#181818;stroke-width:0.3499999999999999;stroke-dasharray:5.0,5.0;" x1="821.8" x2="821.8" y1="99.3043" y2="1129.0986"/><line style="stroke:#181818;stroke-width:0.3499999999999999;stroke-dasharray:5.0,5.0;" x1="914.2" x2="914.2" y1="99.3043" y2="1129.0986"/><line style="stroke:#181818;stroke-width:0.3499999999999999;stroke-dasharray:5.0,5.0;" x1="1029" x2="1029" y1="99.3043" y2="1129.0986"/><line style="stroke:#181818;stroke-width:0.3499999999999999;stroke-dasharray:5.0,5.0;" x1="1193.15" x2="1193.15" y1="689.5355" y2="1129.0986"/><line style="stroke:#181818;stroke-width:0.3499999999999999;stroke-dasharray:5.0,5.0;" x1="1359.75" x2="1359.75" y1="754.5467" y2="1129.0986"/><line style="stroke:#181818;stroke-width:0.3499999999999999;stroke-dasharray:5.0,5.0;" x1="1509.9" x2="1509.9" y1="99.3043" y2="1129.0986"/><line style="stroke:#181818;stroke-width:0.3499999999999999;stroke-dasharray:5.0,5.0;" x1="1612.8" x2="1612.8" y1="99.3043" y2="1129.0986"/><line style="stroke:#181818;stroke-width:0.3499999999999999;stroke-dasharray:5.0,5.0;" x1="1701.7" x2="1701.7" y1="99.3043" y2="1129.0986"/><line style="stroke:#181818;stroke-width:0.3499999999999999;stroke-dasharray:5.0,5.0;" x1="1761.9" x2="1761.9" y1="99.3043" y2="1129.0986"/><text fill="#000000" font-family="sans-serif" font-size="9.8" lengthAdjust="spacing" textLength="58.8" x="14" y="83.81">Green Space</text><text fill="#000000" font-family="sans-serif" font-size="9.8" lengthAdjust="spacing" textLength="39.2" x="23.8" y="96.8447">Manager</text><ellipse cx="45.5" cy="37.1848" fill="#E3E3E3" rx="5.6" ry="5.6" style="stroke:#181818;stroke-width:0.3499999999999999;"/><path d="M45.5,42.7848 L45.5,61.6848 M36.4,48.3848 L54.6,48.3848 M45.5,61.6848 L36.4,72.1848 M45.5,61.6848 L54.6,72.1848 " fill="none" style="stroke:#181818;stroke-width:0.3499999999999999;"/><text fill="#000000" font-family="sans-serif" font-size="9.8" lengthAdjust="spacing" textLength="58.8" x="14" y="1138.9738">Green Space</text><text fill="#000000" font-family="sans-serif" font-size="9.8" lengthAdjust="spacing" textLength="39.2" x="23.8" y="1152.0086">Manager</text><ellipse cx="45.5" cy="1160.4182" fill="#E3E3E3" rx="5.6" ry="5.6" style="stroke:#181818;stroke-width:0.3499999999999999;"/><path d="M45.5,1166.0182 L45.5,1184.9182 M36.4,1171.6182 L54.6,1171.6182 M45.5,1184.9182 L36.4,1195.4182 M45.5,1184.9182 L54.6,1195.4182 " fill="none" style="stroke:#181818;stroke-width:0.3499999999999999;"/><rect fill="#E3E3E3" height="22.8348" rx="1.75" ry="1.75" style="stroke:#181818;stroke-width:0.3499999999999999;" width="114.1" x="185.15" y="75.7695"/><text fill="#000000" font-family="sans-serif" font-size="9.8" lengthAdjust="spacing" textLength="104.3" x="190.05" y="91.2447">:RegisterGreenSpaceUI</text><rect fill="#E3E3E3" height="22.8348" rx="1.75" ry="1.75" style="stroke:#181818;stroke-width:0.3499999999999999;" width="114.1" x="185.15" y="1128.3986"/><text fill="#000000" font-family="sans-serif" font-size="9.8" lengthAdjust="spacing" textLength="104.3" x="190.05" y="1143.8738">:RegisterGreenSpaceUI</text><rect fill="#E3E3E3" height="22.8348" rx="1.75" ry="1.75" style="stroke:#181818;stroke-width:0.3499999999999999;" width="89.6" x="460.6" y="1128.3986"/><text fill="#000000" font-family="sans-serif" font-size="9.8" lengthAdjust="spacing" textLength="79.8" x="465.5" y="1143.8738">:GreenSpaceDTO</text><rect fill="#E3E3E3" height="22.8348" rx="1.75" ry="1.75" style="stroke:#181818;stroke-width:0.3499999999999999;" width="149.1" x="557.2" y="1128.3986"/><text fill="#000000" font-family="sans-serif" font-size="9.8" lengthAdjust="spacing" textLength="139.3" x="562.1" y="1143.8738">:RegisterGreenSpaceController</text><rect fill="#E3E3E3" height="22.8348" rx="1.75" ry="1.75" style="stroke:#181818;stroke-width:0.3499999999999999;" width="67.9" x="713.3" y="75.7695"/><text fill="#000000" font-family="sans-serif" font-size="9.8" lengthAdjust="spacing" textLength="58.1" x="718.2" y="91.2447">:Repositories</text><rect fill="#E3E3E3" height="22.8348" rx="1.75" ry="1.75" style="stroke:#181818;stroke-width:0.3499999999999999;" width="67.9" x="713.3" y="1128.3986"/><text fill="#000000" font-family="sans-serif" font-size="9.8" lengthAdjust="spacing" textLength="58.1" x="718.2" y="1143.8738">:Repositories</text><rect fill="#E3E3E3" height="35.8695" rx="1.75" ry="1.75" style="stroke:#181818;stroke-width:0.3499999999999999;" width="67.9" x="788.2" y="62.7348"/><text fill="#000000" font-family="sans-serif" font-size="9.8" lengthAdjust="spacing" textLength="51.8" x="796.25" y="78.21">repositories</text><text fill="#000000" font-family="sans-serif" font-size="9.8" lengthAdjust="spacing" textLength="58.1" x="793.1" y="91.2447">:Repositories</text><rect fill="#E3E3E3" height="35.8695" rx="1.75" ry="1.75" style="stroke:#181818;stroke-width:0.3499999999999999;" width="67.9" x="788.2" y="1128.3986"/><text fill="#000000" font-family="sans-serif" font-size="9.8" lengthAdjust="spacing" textLength="51.8" x="796.25" y="1143.8738">repositories</text><text fill="#000000" font-family="sans-serif" font-size="9.8" lengthAdjust="spacing" textLength="58.1" x="793.1" y="1156.9086">:Repositories</text><rect fill="#E3E3E3" height="22.8348" rx="1.75" ry="1.75" style="stroke:#181818;stroke-width:0.3499999999999999;" width="102.2" x="863.1" y="75.7695"/><text fill="#000000" font-family="sans-serif" font-size="9.8" lengthAdjust="spacing" textLength="92.4" x="868" y="91.2447">:GreenSpaceMapper</text><rect fill="#E3E3E3" height="22.8348" rx="1.75" ry="1.75" style="stroke:#181818;stroke-width:0.3499999999999999;" width="102.2" x="863.1" y="1128.3986"/><text fill="#000000" font-family="sans-serif" font-size="9.8" lengthAdjust="spacing" textLength="92.4" x="868" y="1143.8738">:GreenSpaceMapper</text><rect fill="#E3E3E3" height="22.8348" rx="1.75" ry="1.75" style="stroke:#181818;stroke-width:0.3499999999999999;" width="114.1" x="972.3" y="75.7695"/><text fill="#000000" font-family="sans-serif" font-size="9.8" lengthAdjust="spacing" textLength="104.3" x="977.2" y="91.2447">:greenSpaceRepository</text><rect fill="#E3E3E3" height="22.8348" rx="1.75" ry="1.75" style="stroke:#181818;stroke-width:0.3499999999999999;" width="114.1" x="972.3" y="1128.3986"/><text fill="#000000" font-family="sans-serif" font-size="9.8" lengthAdjust="spacing" textLength="104.3" x="977.2" y="1143.8738">:greenSpaceRepository</text><rect fill="#E3E3E3" height="22.8348" rx="1.75" ry="1.75" style="stroke:#181818;stroke-width:0.3499999999999999;" width="68.6" x="1158.85" y="1128.3986"/><text fill="#000000" font-family="sans-serif" font-size="9.8" lengthAdjust="spacing" textLength="58.8" x="1163.75" y="1143.8738">:GreenSpace</text><rect fill="#E3E3E3" height="22.8348" rx="1.75" ry="1.75" style="stroke:#181818;stroke-width:0.3499999999999999;" width="49" x="1335.25" y="1128.3986"/><text fill="#000000" font-family="sans-serif" font-size="9.8" lengthAdjust="spacing" textLength="39.2" x="1340.15" y="1143.8738">:Address</text><rect fill="#E3E3E3" height="22.8348" rx="1.75" ry="1.75" style="stroke:#181818;stroke-width:0.3499999999999999;" width="95.9" x="1462.3" y="75.7695"/><text fill="#000000" font-family="sans-serif" font-size="9.8" lengthAdjust="spacing" textLength="86.1" x="1467.2" y="91.2447">:ApplicationSession</text><rect fill="#E3E3E3" height="22.8348" rx="1.75" ry="1.75" style="stroke:#181818;stroke-width:0.3499999999999999;" width="95.9" x="1462.3" y="1128.3986"/><text fill="#000000" font-family="sans-serif" font-size="9.8" lengthAdjust="spacing" textLength="86.1" x="1467.2" y="1143.8738">:ApplicationSession</text><rect fill="#E3E3E3" height="35.8695" rx="1.75" ry="1.75" style="stroke:#181818;stroke-width:0.3499999999999999;" width="95.9" x="1565.2" y="62.7348"/><text fill="#000000" font-family="sans-serif" font-size="9.8" lengthAdjust="spacing" textLength="39.9" x="1593.2" y="78.21">singleton</text><text fill="#000000" font-family="sans-serif" font-size="9.8" lengthAdjust="spacing" textLength="86.1" x="1570.1" y="91.2447">:ApplicationSession</text><rect fill="#E3E3E3" height="35.8695" rx="1.75" ry="1.75" style="stroke:#181818;stroke-width:0.3499999999999999;" width="95.9" x="1565.2" y="1128.3986"/><text fill="#000000" font-family="sans-serif" font-size="9.8" lengthAdjust="spacing" textLength="39.9" x="1593.2" y="1143.8738">singleton</text><text fill="#000000" font-family="sans-serif" font-size="9.8" lengthAdjust="spacing" textLength="86.1" x="1570.1" y="1156.9086">:ApplicationSession</text><rect fill="#E3E3E3" height="35.8695" rx="1.75" ry="1.75" style="stroke:#181818;stroke-width:0.3499999999999999;" width="67.9" x="1668.1" y="62.7348"/><text fill="#000000" font-family="sans-serif" font-size="9.8" lengthAdjust="spacing" textLength="54.6" x="1674.75" y="78.21">userSession</text><text fill="#000000" font-family="sans-serif" font-size="9.8" lengthAdjust="spacing" textLength="58.1" x="1673" y="91.2447">:UserSession</text><rect fill="#E3E3E3" height="35.8695" rx="1.75" ry="1.75" style="stroke:#181818;stroke-width:0.3499999999999999;" width="67.9" x="1668.1" y="1128.3986"/><text fill="#000000" font-family="sans-serif" font-size="9.8" lengthAdjust="spacing" textLength="54.6" x="1674.75" y="1143.8738">userSession</text><text fill="#000000" font-family="sans-serif" font-size="9.8" lengthAdjust="spacing" textLength="58.1" x="1673" y="1156.9086">:UserSession</text><rect fill="#E3E3E3" height="35.8695" rx="1.75" ry="1.75" style="stroke:#181818;stroke-width:0.3499999999999999;" width="38.5" x="1743" y="62.7348"/><text fill="#000000" font-family="sans-serif" font-size="9.8" lengthAdjust="spacing" textLength="28.7" x="1747.9" y="78.21">userID</text><text fill="#000000" font-family="sans-serif" font-size="9.8" lengthAdjust="spacing" textLength="26.6" x="1748.95" y="91.2447">:Email</text><rect fill="#E3E3E3" height="35.8695" rx="1.75" ry="1.75" style="stroke:#181818;stroke-width:0.3499999999999999;" width="38.5" x="1743" y="1128.3986"/><text fill="#000000" font-family="sans-serif" font-size="9.8" lengthAdjust="spacing" textLength="28.7" x="1747.9" y="1143.8738">userID</text><text fill="#000000" font-family="sans-serif" font-size="9.8" lengthAdjust="spacing" textLength="26.6" x="1748.95" y="1156.9086">:Email</text><rect fill="#FFFFFF" height="1010.1943" style="stroke:#181818;stroke-width:0.6999999999999998;" width="7" x="42" y="106.3043"/><rect fill="#FFFFFF" height="82.9459" style="stroke:#181818;stroke-width:0.6999999999999998;" width="7" x="238.7" y="122.608"/><rect fill="#FFFFFF" height="69.9111" style="stroke:#181818;stroke-width:0.6999999999999998;" width="7" x="238.7" y="227.4576"/><rect fill="#FFFFFF" height="803.5262" style="stroke:#181818;stroke-width:0.6999999999999998;" width="7" x="238.7" y="319.2725"/><rect fill="#FFFFFF" height="719.4113" style="stroke:#181818;stroke-width:0.6999999999999998;" width="7" x="628.25" y="375.1836"/><rect fill="#FFFFFF" height="21.9037" style="stroke:#181818;stroke-width:0.6999999999999998;" width="7" x="743.75" y="397.0873"/><rect fill="#FFFFFF" height="21.9037" style="stroke:#181818;stroke-width:0.6999999999999998;" width="7" x="818.65" y="440.8947"/><rect fill="#FFFFFF" height="306.9445" style="stroke:#181818;stroke-width:0.6999999999999998;" width="7" x="910.7" y="659.9318"/><rect fill="#FFFFFF" height="83.9111" style="stroke:#181818;stroke-width:0.6999999999999998;" width="7" x="1025.85" y="988.7801"/><rect fill="#FFFFFF" height="21.9037" style="stroke:#181818;stroke-width:0.6999999999999998;" width="7" x="1506.75" y="484.7021"/><rect fill="#FFFFFF" height="21.9037" style="stroke:#181818;stroke-width:0.6999999999999998;" width="7" x="1609.65" y="528.5096"/><rect fill="#FFFFFF" height="21.9037" style="stroke:#181818;stroke-width:0.6999999999999998;" width="7" x="1698.55" y="572.317"/><rect fill="#FFFFFF" height="21.9037" style="stroke:#181818;stroke-width:0.6999999999999998;" width="7" x="1758.75" y="616.1244"/><polygon fill="#181818" points="230.3,119.808,237.3,122.608,230.3,125.408,233.1,122.608" style="stroke:#181818;stroke-width:0.6999999999999998;"/><line style="stroke:#181818;stroke-width:0.6999999999999998;" x1="49" x2="234.5" y1="122.608" y2="122.608"/><text fill="#000000" font-family="sans-serif" font-size="9.1" font-weight="bold" lengthAdjust="spacing" textLength="4.9" x="53.9" y="118.9241">1</text><text fill="#000000" font-family="sans-serif" font-size="9.1" lengthAdjust="spacing" textLength="140.7" x="61.6" y="118.9241">asks to create a new Green Space</text><polygon fill="#181818" points="548.8,141.7117,555.8,144.5117,548.8,147.3117,551.6,144.5117" style="stroke:#181818;stroke-width:0.6999999999999998;"/><line style="stroke:#181818;stroke-width:0.6999999999999998;stroke-dasharray:2.0,2.0;" x1="245.7" x2="553" y1="144.5117" y2="144.5117"/><text fill="#000000" font-family="sans-serif" font-size="9.1" font-weight="bold" lengthAdjust="spacing" textLength="4.9" x="250.6" y="140.8278">2</text><text fill="#000000" font-family="sans-serif" font-size="9.1" lengthAdjust="spacing" textLength="25.2" x="258.3" y="140.8278">create</text><rect fill="#E3E3E3" height="22.8348" rx="1.75" ry="1.75" style="stroke:#181818;stroke-width:0.3499999999999999;" width="149.1" x="557.2" y="128.208"/><text fill="#000000" font-family="sans-serif" font-size="9.8" lengthAdjust="spacing" textLength="139.3" x="562.1" y="143.6832">:RegisterGreenSpaceController</text><path d="M7,163.6428 L58.1,163.6428 L58.1,170.1465 L51.1,177.1465 L7,177.1465 L7,163.6428 " fill="#EEEEEE" style="stroke:#000000;stroke-width:1.0499999999999998;"/><rect fill="none" height="69.4148" style="stroke:#000000;stroke-width:1.0499999999999998;" width="299.25" x="7" y="163.6428"/><text fill="#000000" font-family="sans-serif" font-size="9.1" font-weight="bold" lengthAdjust="spacing" textLength="19.6" x="17.5" y="174.1626">loop</text><text fill="#000000" font-family="sans-serif" font-size="7.7" font-weight="bold" lengthAdjust="spacing" textLength="109.9" x="68.6" y="173.3519">[until typed data is validated]</text><polygon fill="#181818" points="56.7,202.7539,49.7,205.5539,56.7,208.3539,53.9,205.5539" style="stroke:#181818;stroke-width:0.6999999999999998;"/><line style="stroke:#181818;stroke-width:0.6999999999999998;stroke-dasharray:2.0,2.0;" x1="52.5" x2="241.5" y1="205.5539" y2="205.5539"/><text fill="#000000" font-family="sans-serif" font-size="9.1" font-weight="bold" lengthAdjust="spacing" textLength="4.9" x="60.9" y="195.8182">3</text><text fill="#000000" font-family="sans-serif" font-size="9.1" lengthAdjust="spacing" textLength="161" x="68.6" y="189.7663">requests data (name, type, area, street,</text><text fill="#000000" font-family="sans-serif" font-size="9.1" lengthAdjust="spacing" textLength="161.7" x="71.4" y="201.87">streetNumber, postalCode, city, district)</text><polygon fill="#181818" points="230.3,224.6576,237.3,227.4576,230.3,230.2576,233.1,227.4576" style="stroke:#181818;stroke-width:0.6999999999999998;"/><line style="stroke:#181818;stroke-width:0.6999999999999998;" x1="49" x2="234.5" y1="227.4576" y2="227.4576"/><text fill="#000000" font-family="sans-serif" font-size="9.1" font-weight="bold" lengthAdjust="spacing" textLength="4.9" x="53.9" y="223.7737">4</text><text fill="#000000" font-family="sans-serif" font-size="9.1" lengthAdjust="spacing" textLength="85.4" x="61.6" y="223.7737">types requested data</text><line style="stroke:#181818;stroke-width:0.6999999999999998;stroke-dasharray:2.0,2.0;" x1="245.7" x2="275.1" y1="266.365" y2="266.365"/><line style="stroke:#181818;stroke-width:0.6999999999999998;stroke-dasharray:2.0,2.0;" x1="275.1" x2="275.1" y1="266.365" y2="275.465"/><line style="stroke:#181818;stroke-width:0.6999999999999998;stroke-dasharray:2.0,2.0;" x1="246.4" x2="275.1" y1="275.465" y2="275.465"/><polygon fill="#181818" points="253.4,272.665,246.4,275.465,253.4,278.265,250.6,275.465" style="stroke:#181818;stroke-width:0.6999999999999998;"/><text fill="#000000" font-family="sans-serif" font-size="9.1" font-weight="bold" lengthAdjust="spacing" textLength="4.9" x="250.6" y="256.6293">5</text><text fill="#000000" font-family="sans-serif" font-size="9.1" lengthAdjust="spacing" textLength="141.4" x="258.3" y="250.5774">keepData(name, type, area, street,</text><text fill="#000000" font-family="sans-serif" font-size="9.1" lengthAdjust="spacing" textLength="158.9" x="261.1" y="262.6812">streetNumber,postalCode, city, district)</text><polygon fill="#181818" points="56.7,294.5687,49.7,297.3687,56.7,300.1687,53.9,297.3687" style="stroke:#181818;stroke-width:0.6999999999999998;"/><line style="stroke:#181818;stroke-width:0.6999999999999998;stroke-dasharray:2.0,2.0;" x1="52.5" x2="241.5" y1="297.3687" y2="297.3687"/><text fill="#000000" font-family="sans-serif" font-size="9.1" font-weight="bold" lengthAdjust="spacing" textLength="4.9" x="60.9" y="293.6849">6</text><text fill="#000000" font-family="sans-serif" font-size="9.1" lengthAdjust="spacing" textLength="165.2" x="68.6" y="293.6849">shows all data and requests confirmation</text><polygon fill="#181818" points="230.3,316.4725,237.3,319.2725,230.3,322.0725,233.1,319.2725" style="stroke:#181818;stroke-width:0.6999999999999998;"/><line style="stroke:#181818;stroke-width:0.6999999999999998;" x1="49" x2="234.5" y1="319.2725" y2="319.2725"/><text fill="#000000" font-family="sans-serif" font-size="9.1" font-weight="bold" lengthAdjust="spacing" textLength="4.9" x="53.9" y="315.5886">7</text><text fill="#000000" font-family="sans-serif" font-size="9.1" lengthAdjust="spacing" textLength="54.6" x="61.6" y="315.5886">confirms data</text><polygon fill="#181818" points="452.2,350.4799,459.2,353.2799,452.2,356.0799,455,353.2799" style="stroke:#181818;stroke-width:0.6999999999999998;"/><line style="stroke:#181818;stroke-width:0.6999999999999998;" x1="245.7" x2="456.4" y1="353.2799" y2="353.2799"/><text fill="#000000" font-family="sans-serif" font-size="9.1" font-weight="bold" lengthAdjust="spacing" textLength="4.9" x="250.6" y="343.5441">8</text><text fill="#000000" font-family="sans-serif" font-size="9.1" lengthAdjust="spacing" textLength="190.4" x="258.3" y="337.4923">new GreenSpaceDTO(name, type, area, street,</text><text fill="#000000" font-family="sans-serif" font-size="9.1" lengthAdjust="spacing" textLength="158.9" x="261.1" y="349.596">streetNumber,postalCode, city, district)</text><rect fill="#E3E3E3" height="22.8348" rx="1.75" ry="1.75" style="stroke:#181818;stroke-width:0.3499999999999999;" width="89.6" x="460.6" y="328.3451"/><text fill="#000000" font-family="sans-serif" font-size="9.8" lengthAdjust="spacing" textLength="79.8" x="465.5" y="343.8203">:GreenSpaceDTO</text><polygon fill="#181818" points="619.85,372.3836,626.85,375.1836,619.85,377.9836,622.65,375.1836" style="stroke:#181818;stroke-width:0.6999999999999998;"/><line style="stroke:#181818;stroke-width:0.6999999999999998;stroke-dasharray:2.0,2.0;" x1="245.7" x2="624.05" y1="375.1836" y2="375.1836"/><text fill="#000000" font-family="sans-serif" font-size="9.1" font-weight="bold" lengthAdjust="spacing" textLength="4.9" x="250.6" y="371.4997">9</text><text fill="#000000" font-family="sans-serif" font-size="9.1" lengthAdjust="spacing" textLength="152.6" x="258.3" y="371.4997">registerGreenSpace(greenSpaceDTO)</text><polygon fill="#181818" points="735.35,394.2873,742.35,397.0873,735.35,399.8873,738.15,397.0873" style="stroke:#181818;stroke-width:0.6999999999999998;"/><line style="stroke:#181818;stroke-width:0.6999999999999998;stroke-dasharray:2.0,2.0;" x1="635.25" x2="739.55" y1="397.0873" y2="397.0873"/><text fill="#000000" font-family="sans-serif" font-size="9.1" font-weight="bold" lengthAdjust="spacing" textLength="9.8" x="640.15" y="393.4034">10</text><text fill="#000000" font-family="sans-serif" font-size="9.1" lengthAdjust="spacing" textLength="52.5" x="652.75" y="393.4034">getInstance()</text><polygon fill="#181818" points="642.95,416.191,635.95,418.991,642.95,421.791,640.15,418.991" style="stroke:#181818;stroke-width:0.6999999999999998;"/><line style="stroke:#181818;stroke-width:0.6999999999999998;stroke-dasharray:2.0,2.0;" x1="638.75" x2="746.55" y1="418.991" y2="418.991"/><text fill="#000000" font-family="sans-serif" font-size="9.1" font-weight="bold" lengthAdjust="spacing" textLength="9.8" x="647.15" y="415.3071">11</text><text fill="#000000" font-family="sans-serif" font-size="9.1" lengthAdjust="spacing" textLength="46.9" x="659.75" y="415.3071">repositories</text><polygon fill="#181818" points="810.25,438.0947,817.25,440.8947,810.25,443.6947,813.05,440.8947" style="stroke:#181818;stroke-width:0.6999999999999998;"/><line style="stroke:#181818;stroke-width:0.6999999999999998;stroke-dasharray:2.0,2.0;" x1="635.25" x2="814.45" y1="440.8947" y2="440.8947"/><text fill="#000000" font-family="sans-serif" font-size="9.1" font-weight="bold" lengthAdjust="spacing" textLength="9.8" x="640.15" y="437.2108">12</text><text fill="#000000" font-family="sans-serif" font-size="9.1" lengthAdjust="spacing" textLength="112" x="652.75" y="437.2108">getGreenSpaceRepository()</text><polygon fill="#181818" points="642.95,459.9984,635.95,462.7984,642.95,465.5984,640.15,462.7984" style="stroke:#181818;stroke-width:0.6999999999999998;"/><line style="stroke:#181818;stroke-width:0.6999999999999998;stroke-dasharray:2.0,2.0;" x1="638.75" x2="821.45" y1="462.7984" y2="462.7984"/><text fill="#000000" font-family="sans-serif" font-size="9.1" font-weight="bold" lengthAdjust="spacing" textLength="9.8" x="647.15" y="459.1146">13</text><text fill="#000000" font-family="sans-serif" font-size="9.1" lengthAdjust="spacing" textLength="91.7" x="659.75" y="459.1146">greenSpaceRepository</text><polygon fill="#181818" points="1498.35,481.9021,1505.35,484.7021,1498.35,487.5021,1501.15,484.7021" style="stroke:#181818;stroke-width:0.6999999999999998;"/><line style="stroke:#181818;stroke-width:0.6999999999999998;stroke-dasharray:2.0,2.0;" x1="635.25" x2="1502.55" y1="484.7021" y2="484.7021"/><text fill="#000000" font-family="sans-serif" font-size="9.1" font-weight="bold" lengthAdjust="spacing" textLength="9.8" x="640.15" y="481.0183">14</text><text fill="#000000" font-family="sans-serif" font-size="9.1" lengthAdjust="spacing" textLength="52.5" x="652.75" y="481.0183">getInstance()</text><polygon fill="#181818" points="642.95,503.8059,635.95,506.6059,642.95,509.4059,640.15,506.6059" style="stroke:#181818;stroke-width:0.6999999999999998;"/><line style="stroke:#181818;stroke-width:0.6999999999999998;stroke-dasharray:2.0,2.0;" x1="638.75" x2="1509.55" y1="506.6059" y2="506.6059"/><text fill="#000000" font-family="sans-serif" font-size="9.1" font-weight="bold" lengthAdjust="spacing" textLength="9.8" x="647.15" y="502.922">15</text><text fill="#000000" font-family="sans-serif" font-size="9.1" lengthAdjust="spacing" textLength="36.4" x="659.75" y="502.922">singleton</text><polygon fill="#181818" points="1601.25,525.7096,1608.25,528.5096,1601.25,531.3096,1604.05,528.5096" style="stroke:#181818;stroke-width:0.6999999999999998;"/><line style="stroke:#181818;stroke-width:0.6999999999999998;stroke-dasharray:2.0,2.0;" x1="635.25" x2="1605.45" y1="528.5096" y2="528.5096"/><text fill="#000000" font-family="sans-serif" font-size="9.1" font-weight="bold" lengthAdjust="spacing" textLength="9.8" x="640.15" y="524.8257">16</text><text fill="#000000" font-family="sans-serif" font-size="9.1" lengthAdjust="spacing" textLength="70" x="652.75" y="524.8257">getUserSession()</text><polygon fill="#181818" points="642.95,547.6133,635.95,550.4133,642.95,553.2133,640.15,550.4133" style="stroke:#181818;stroke-width:0.6999999999999998;"/><line style="stroke:#181818;stroke-width:0.6999999999999998;stroke-dasharray:2.0,2.0;" x1="638.75" x2="1612.45" y1="550.4133" y2="550.4133"/><text fill="#000000" font-family="sans-serif" font-size="9.1" font-weight="bold" lengthAdjust="spacing" textLength="9.8" x="647.15" y="546.7294">17</text><text fill="#000000" font-family="sans-serif" font-size="9.1" lengthAdjust="spacing" textLength="50.4" x="659.75" y="546.7294">userSession</text><polygon fill="#181818" points="1690.15,569.517,1697.15,572.317,1690.15,575.117,1692.95,572.317" style="stroke:#181818;stroke-width:0.6999999999999998;"/><line style="stroke:#181818;stroke-width:0.6999999999999998;stroke-dasharray:2.0,2.0;" x1="635.25" x2="1694.35" y1="572.317" y2="572.317"/><text fill="#000000" font-family="sans-serif" font-size="9.1" font-weight="bold" lengthAdjust="spacing" textLength="9.8" x="640.15" y="568.6331">18</text><text fill="#000000" font-family="sans-serif" font-size="9.1" lengthAdjust="spacing" textLength="44.1" x="652.75" y="568.6331">getUserId()</text><polygon fill="#181818" points="642.95,591.4207,635.95,594.2207,642.95,597.0207,640.15,594.2207" style="stroke:#181818;stroke-width:0.6999999999999998;"/><line style="stroke:#181818;stroke-width:0.6999999999999998;stroke-dasharray:2.0,2.0;" x1="638.75" x2="1701.35" y1="594.2207" y2="594.2207"/><text fill="#000000" font-family="sans-serif" font-size="9.1" font-weight="bold" lengthAdjust="spacing" textLength="9.8" x="647.15" y="590.5368">19</text><text fill="#000000" font-family="sans-serif" font-size="9.1" lengthAdjust="spacing" textLength="24.5" x="659.75" y="590.5368">userId</text><polygon fill="#181818" points="1750.35,613.3244,1757.35,616.1244,1750.35,618.9244,1753.15,616.1244" style="stroke:#181818;stroke-width:0.6999999999999998;"/><line style="stroke:#181818;stroke-width:0.6999999999999998;stroke-dasharray:2.0,2.0;" x1="635.25" x2="1754.55" y1="616.1244" y2="616.1244"/><text fill="#000000" font-family="sans-serif" font-size="9.1" font-weight="bold" lengthAdjust="spacing" textLength="9.8" x="640.15" y="612.4405">20</text><text fill="#000000" font-family="sans-serif" font-size="9.1" lengthAdjust="spacing" textLength="41.3" x="652.75" y="612.4405">getEmail()</text><polygon fill="#181818" points="642.95,635.2281,635.95,638.0281,642.95,640.8281,640.15,638.0281" style="stroke:#181818;stroke-width:0.6999999999999998;"/><line style="stroke:#181818;stroke-width:0.6999999999999998;stroke-dasharray:2.0,2.0;" x1="638.75" x2="1761.55" y1="638.0281" y2="638.0281"/><text fill="#000000" font-family="sans-serif" font-size="9.1" font-weight="bold" lengthAdjust="spacing" textLength="9.8" x="647.15" y="634.3442">21</text><text fill="#000000" font-family="sans-serif" font-size="9.1" lengthAdjust="spacing" textLength="21.7" x="659.75" y="634.3442">email</text><polygon fill="#181818" points="902.3,657.1318,909.3,659.9318,902.3,662.7318,905.1,659.9318" style="stroke:#181818;stroke-width:0.6999999999999998;"/><line style="stroke:#181818;stroke-width:0.6999999999999998;stroke-dasharray:2.0,2.0;" x1="635.25" x2="906.5" y1="659.9318" y2="659.9318"/><text fill="#000000" font-family="sans-serif" font-size="9.1" font-weight="bold" lengthAdjust="spacing" textLength="9.8" x="640.15" y="656.2479">22</text><text fill="#000000" font-family="sans-serif" font-size="9.1" lengthAdjust="spacing" textLength="191.1" x="652.75" y="656.2479">toGreenSpace(greenSpaceDTO,managerEmail)</text><polygon fill="#181818" points="1150.45,691.1393,1157.45,693.9393,1150.45,696.7393,1153.25,693.9393" style="stroke:#181818;stroke-width:0.6999999999999998;"/><line style="stroke:#181818;stroke-width:0.6999999999999998;stroke-dasharray:2.0,2.0;" x1="917.7" x2="1154.65" y1="693.9393" y2="693.9393"/><text fill="#000000" font-family="sans-serif" font-size="9.1" font-weight="bold" lengthAdjust="spacing" textLength="9.8" x="922.6" y="684.2035">23</text><text fill="#000000" font-family="sans-serif" font-size="9.1" lengthAdjust="spacing" textLength="175" x="935.2" y="678.1517">new GreenSpace(type,name,streetNumber,</text><text fill="#000000" font-family="sans-serif" font-size="9.1" lengthAdjust="spacing" textLength="135.1" x="935.2" y="690.2554">postalCode,city,district,totalArea)</text><rect fill="#E3E3E3" height="22.8348" rx="1.75" ry="1.75" style="stroke:#181818;stroke-width:0.3499999999999999;" width="68.6" x="1158.85" y="669.0045"/><text fill="#000000" font-family="sans-serif" font-size="9.8" lengthAdjust="spacing" textLength="58.8" x="1163.75" y="684.4797">:GreenSpace</text><line style="stroke:#181818;stroke-width:0.6999999999999998;stroke-dasharray:2.0,2.0;" x1="1193.15" x2="1222.55" y1="715.843" y2="715.843"/><line style="stroke:#181818;stroke-width:0.6999999999999998;stroke-dasharray:2.0,2.0;" x1="1222.55" x2="1222.55" y1="715.843" y2="724.943"/><line style="stroke:#181818;stroke-width:0.6999999999999998;stroke-dasharray:2.0,2.0;" x1="1193.85" x2="1222.55" y1="724.943" y2="724.943"/><polygon fill="#181818" points="1200.85,722.143,1193.85,724.943,1200.85,727.743,1198.05,724.943" style="stroke:#181818;stroke-width:0.6999999999999998;"/><text fill="#000000" font-family="sans-serif" font-size="9.1" font-weight="bold" lengthAdjust="spacing" textLength="9.8" x="1198.05" y="712.1591">24</text><text fill="#000000" font-family="sans-serif" font-size="9.1" lengthAdjust="spacing" textLength="81.9" x="1210.65" y="712.1591">validateName(name)</text><polygon fill="#181818" points="1326.85,756.1504,1333.85,758.9504,1326.85,761.7504,1329.65,758.9504" style="stroke:#181818;stroke-width:0.6999999999999998;"/><line style="stroke:#181818;stroke-width:0.6999999999999998;stroke-dasharray:2.0,2.0;" x1="1193.15" x2="1331.05" y1="758.9504" y2="758.9504"/><text fill="#000000" font-family="sans-serif" font-size="9.1" font-weight="bold" lengthAdjust="spacing" textLength="9.8" x="1198.05" y="749.2146">25</text><text fill="#000000" font-family="sans-serif" font-size="9.1" lengthAdjust="spacing" textLength="112.7" x="1210.65" y="743.1628">new Address(streetNumber,</text><text fill="#000000" font-family="sans-serif" font-size="9.1" lengthAdjust="spacing" textLength="95.9" x="1210.65" y="755.2665">postalCode,city,district)</text><rect fill="#E3E3E3" height="22.8348" rx="1.75" ry="1.75" style="stroke:#181818;stroke-width:0.3499999999999999;" width="49" x="1335.25" y="734.0156"/><text fill="#000000" font-family="sans-serif" font-size="9.8" lengthAdjust="spacing" textLength="39.2" x="1340.15" y="749.4908">:Address</text><line style="stroke:#181818;stroke-width:0.6999999999999998;stroke-dasharray:2.0,2.0;" x1="1359.75" x2="1389.15" y1="780.8541" y2="780.8541"/><line style="stroke:#181818;stroke-width:0.6999999999999998;stroke-dasharray:2.0,2.0;" x1="1389.15" x2="1389.15" y1="780.8541" y2="789.9541"/><line style="stroke:#181818;stroke-width:0.6999999999999998;stroke-dasharray:2.0,2.0;" x1="1360.45" x2="1389.15" y1="789.9541" y2="789.9541"/><polygon fill="#181818" points="1367.45,787.1541,1360.45,789.9541,1367.45,792.7541,1364.65,789.9541" style="stroke:#181818;stroke-width:0.6999999999999998;"/><text fill="#000000" font-family="sans-serif" font-size="9.1" font-weight="bold" lengthAdjust="spacing" textLength="9.8" x="1364.65" y="777.1702">26</text><text fill="#000000" font-family="sans-serif" font-size="9.1" lengthAdjust="spacing" textLength="83.3" x="1377.25" y="777.1702">validateStreet(street)</text><line style="stroke:#181818;stroke-width:0.6999999999999998;stroke-dasharray:2.0,2.0;" x1="1359.75" x2="1389.15" y1="811.8578" y2="811.8578"/><line style="stroke:#181818;stroke-width:0.6999999999999998;stroke-dasharray:2.0,2.0;" x1="1389.15" x2="1389.15" y1="811.8578" y2="820.9578"/><line style="stroke:#181818;stroke-width:0.6999999999999998;stroke-dasharray:2.0,2.0;" x1="1360.45" x2="1389.15" y1="820.9578" y2="820.9578"/><polygon fill="#181818" points="1367.45,818.1578,1360.45,820.9578,1367.45,823.7578,1364.65,820.9578" style="stroke:#181818;stroke-width:0.6999999999999998;"/><text fill="#000000" font-family="sans-serif" font-size="9.1" font-weight="bold" lengthAdjust="spacing" textLength="9.8" x="1364.65" y="808.1739">27</text><text fill="#000000" font-family="sans-serif" font-size="9.1" lengthAdjust="spacing" textLength="121.8" x="1377.25" y="808.1739">validateStreetNumber(number)</text><line style="stroke:#181818;stroke-width:0.6999999999999998;stroke-dasharray:2.0,2.0;" x1="1359.75" x2="1389.15" y1="842.8615" y2="842.8615"/><line style="stroke:#181818;stroke-width:0.6999999999999998;stroke-dasharray:2.0,2.0;" x1="1389.15" x2="1389.15" y1="842.8615" y2="851.9615"/><line style="stroke:#181818;stroke-width:0.6999999999999998;stroke-dasharray:2.0,2.0;" x1="1360.45" x2="1389.15" y1="851.9615" y2="851.9615"/><polygon fill="#181818" points="1367.45,849.1615,1360.45,851.9615,1367.45,854.7615,1364.65,851.9615" style="stroke:#181818;stroke-width:0.6999999999999998;"/><text fill="#000000" font-family="sans-serif" font-size="9.1" font-weight="bold" lengthAdjust="spacing" textLength="9.8" x="1364.65" y="839.1776">28</text><text fill="#000000" font-family="sans-serif" font-size="9.1" lengthAdjust="spacing" textLength="128.1" x="1377.25" y="839.1776">validatePostalCode(postalCode)</text><line style="stroke:#181818;stroke-width:0.6999999999999998;stroke-dasharray:2.0,2.0;" x1="1359.75" x2="1389.15" y1="873.8652" y2="873.8652"/><line style="stroke:#181818;stroke-width:0.6999999999999998;stroke-dasharray:2.0,2.0;" x1="1389.15" x2="1389.15" y1="873.8652" y2="882.9652"/><line style="stroke:#181818;stroke-width:0.6999999999999998;stroke-dasharray:2.0,2.0;" x1="1360.45" x2="1389.15" y1="882.9652" y2="882.9652"/><polygon fill="#181818" points="1367.45,880.1652,1360.45,882.9652,1367.45,885.7652,1364.65,882.9652" style="stroke:#181818;stroke-width:0.6999999999999998;"/><text fill="#000000" font-family="sans-serif" font-size="9.1" font-weight="bold" lengthAdjust="spacing" textLength="9.8" x="1364.65" y="870.1813">29</text><text fill="#000000" font-family="sans-serif" font-size="9.1" lengthAdjust="spacing" textLength="66.5" x="1377.25" y="870.1813">validateCity(city)</text><line style="stroke:#181818;stroke-width:0.6999999999999998;stroke-dasharray:2.0,2.0;" x1="1359.75" x2="1389.15" y1="904.8689" y2="904.8689"/><line style="stroke:#181818;stroke-width:0.6999999999999998;stroke-dasharray:2.0,2.0;" x1="1389.15" x2="1389.15" y1="904.8689" y2="913.9689"/><line style="stroke:#181818;stroke-width:0.6999999999999998;stroke-dasharray:2.0,2.0;" x1="1360.45" x2="1389.15" y1="913.9689" y2="913.9689"/><polygon fill="#181818" points="1367.45,911.1689,1360.45,913.9689,1367.45,916.7689,1364.65,913.9689" style="stroke:#181818;stroke-width:0.6999999999999998;"/><text fill="#000000" font-family="sans-serif" font-size="9.1" font-weight="bold" lengthAdjust="spacing" textLength="9.8" x="1364.65" y="901.1851">30</text><text fill="#000000" font-family="sans-serif" font-size="9.1" lengthAdjust="spacing" textLength="91.7" x="1377.25" y="901.1851">validateDistrict(district)</text><line style="stroke:#181818;stroke-width:0.6999999999999998;stroke-dasharray:2.0,2.0;" x1="1193.15" x2="1222.55" y1="935.8727" y2="935.8727"/><line style="stroke:#181818;stroke-width:0.6999999999999998;stroke-dasharray:2.0,2.0;" x1="1222.55" x2="1222.55" y1="935.8727" y2="944.9727"/><line style="stroke:#181818;stroke-width:0.6999999999999998;stroke-dasharray:2.0,2.0;" x1="1193.85" x2="1222.55" y1="944.9727" y2="944.9727"/><polygon fill="#181818" points="1200.85,942.1727,1193.85,944.9727,1200.85,947.7727,1198.05,944.9727" style="stroke:#181818;stroke-width:0.6999999999999998;"/><text fill="#000000" font-family="sans-serif" font-size="9.1" font-weight="bold" lengthAdjust="spacing" textLength="9.8" x="1198.05" y="932.1888">31</text><text fill="#000000" font-family="sans-serif" font-size="9.1" lengthAdjust="spacing" textLength="110.6" x="1210.65" y="932.1888">validateTotalArea(totalArea)</text><polygon fill="#181818" points="642.95,964.0764,635.95,966.8764,642.95,969.6764,640.15,966.8764" style="stroke:#181818;stroke-width:0.6999999999999998;"/><line style="stroke:#181818;stroke-width:0.6999999999999998;stroke-dasharray:2.0,2.0;" x1="638.75" x2="913.5" y1="966.8764" y2="966.8764"/><text fill="#000000" font-family="sans-serif" font-size="9.1" font-weight="bold" lengthAdjust="spacing" textLength="9.8" x="647.15" y="963.1925">32</text><text fill="#000000" font-family="sans-serif" font-size="9.1" lengthAdjust="spacing" textLength="48.3" x="659.75" y="963.1925">greenSpace</text><polygon fill="#181818" points="1017.45,985.9801,1024.45,988.7801,1017.45,991.5801,1020.25,988.7801" style="stroke:#181818;stroke-width:0.6999999999999998;"/><line style="stroke:#181818;stroke-width:0.6999999999999998;stroke-dasharray:2.0,2.0;" x1="635.25" x2="1021.65" y1="988.7801" y2="988.7801"/><text fill="#000000" font-family="sans-serif" font-size="9.1" font-weight="bold" lengthAdjust="spacing" textLength="9.8" x="640.15" y="985.0962">33</text><text fill="#000000" font-family="sans-serif" font-size="9.1" lengthAdjust="spacing" textLength="134.4" x="652.75" y="985.0962">registerGreenSpace(greenSpace)</text><line style="stroke:#181818;stroke-width:0.6999999999999998;stroke-dasharray:2.0,2.0;" x1="1032.85" x2="1062.25" y1="1010.6838" y2="1010.6838"/><line style="stroke:#181818;stroke-width:0.6999999999999998;stroke-dasharray:2.0,2.0;" x1="1062.25" x2="1062.25" y1="1010.6838" y2="1019.7838"/><line style="stroke:#181818;stroke-width:0.6999999999999998;stroke-dasharray:2.0,2.0;" x1="1033.55" x2="1062.25" y1="1019.7838" y2="1019.7838"/><polygon fill="#181818" points="1040.55,1016.9838,1033.55,1019.7838,1040.55,1022.5838,1037.75,1019.7838" style="stroke:#181818;stroke-width:0.6999999999999998;"/><text fill="#000000" font-family="sans-serif" font-size="9.1" font-weight="bold" lengthAdjust="spacing" textLength="9.8" x="1037.75" y="1006.9999">34</text><text fill="#000000" font-family="sans-serif" font-size="9.1" lengthAdjust="spacing" textLength="68.6" x="1050.35" y="1006.9999">add(greenSpace)</text><line style="stroke:#181818;stroke-width:0.6999999999999998;stroke-dasharray:2.0,2.0;" x1="1032.85" x2="1062.25" y1="1041.6875" y2="1041.6875"/><line style="stroke:#181818;stroke-width:0.6999999999999998;stroke-dasharray:2.0,2.0;" x1="1062.25" x2="1062.25" y1="1041.6875" y2="1050.7875"/><line style="stroke:#181818;stroke-width:0.6999999999999998;stroke-dasharray:2.0,2.0;" x1="1033.55" x2="1062.25" y1="1050.7875" y2="1050.7875"/><polygon fill="#181818" points="1040.55,1047.9875,1033.55,1050.7875,1040.55,1053.5875,1037.75,1050.7875" style="stroke:#181818;stroke-width:0.6999999999999998;"/><text fill="#000000" font-family="sans-serif" font-size="9.1" font-weight="bold" lengthAdjust="spacing" textLength="9.8" x="1037.75" y="1038.0036">35</text><text fill="#000000" font-family="sans-serif" font-size="9.1" lengthAdjust="spacing" textLength="134.4" x="1050.35" y="1038.0036">validateGreenSpace(greenSpace)</text><polygon fill="#181818" points="642.95,1069.8912,635.95,1072.6912,642.95,1075.4912,640.15,1072.6912" style="stroke:#181818;stroke-width:0.6999999999999998;"/><line style="stroke:#181818;stroke-width:0.6999999999999998;stroke-dasharray:2.0,2.0;" x1="638.75" x2="1028.65" y1="1072.6912" y2="1072.6912"/><text fill="#000000" font-family="sans-serif" font-size="9.1" font-weight="bold" lengthAdjust="spacing" textLength="9.8" x="647.15" y="1069.0073">36</text><text fill="#000000" font-family="sans-serif" font-size="9.1" lengthAdjust="spacing" textLength="74.2" x="659.75" y="1069.0073">operation success</text><polygon fill="#181818" points="253.4,1091.7949,246.4,1094.5949,253.4,1097.3949,250.6,1094.5949" style="stroke:#181818;stroke-width:0.6999999999999998;"/><line style="stroke:#181818;stroke-width:0.6999999999999998;stroke-dasharray:2.0,2.0;" x1="249.2" x2="631.05" y1="1094.5949" y2="1094.5949"/><text fill="#000000" font-family="sans-serif" font-size="9.1" font-weight="bold" lengthAdjust="spacing" textLength="9.8" x="257.6" y="1090.911">37</text><text fill="#000000" font-family="sans-serif" font-size="9.1" lengthAdjust="spacing" textLength="74.2" x="270.2" y="1090.911">operation success</text><polygon fill="#181818" points="53.2,1113.6986,46.2,1116.4986,53.2,1119.2986,50.4,1116.4986" style="stroke:#181818;stroke-width:0.6999999999999998;"/><line style="stroke:#181818;stroke-width:0.6999999999999998;stroke-dasharray:2.0,2.0;" x1="49" x2="238" y1="1116.4986" y2="1116.4986"/><text fill="#000000" font-family="sans-serif" font-size="9.1" font-weight="bold" lengthAdjust="spacing" textLength="9.8" x="57.4" y="1112.8147">38</text><text fill="#000000" font-family="sans-serif" font-size="9.1" lengthAdjust="spacing" textLength="110.6" x="70" y="1112.8147">displays operation success</text><!--SRC=[hPPDR-CW48Rl_XMe9wTAfMgFFLIgaggAjEb6TNFBXRLfYkA0rv1M-VSx31ZZ3zoekxw4s3Cl3-FXDUh0HKLhUYH7AMJ-NiiZ8xe-iKJv9nND3tJFCdqk6QbPhgdObs60UgU5_EHYJzvegLYIQAuXT9lT_hWbDoHZVqvCv8miETsR-3HRpfA4dhGKf-DlLiCurx8cLqyrOu9aC27RYJKLC6jzHQWYJzawWRaqptb5XIPNTozipvLcDQPWndQ5eTjLBxADMBx-mX3u_L9j8OMkPLawWCNhoyz1JYKL1sxE5CQyF6vwkdKGiXFZ6IkXeA0vYrAlQLKv2ZliHUvzfDS_kwAP6r5T5zDx_b0KDLCMputx4LLLyfngBaK6J-771cystK35JPl0EuQLntEo9ggRV5AiTf6Glct_sNVS_X-chPQGyNYalCHO7667yG-g6RPIGk220RcvXtuXTn1tK4HBajVCn50Ys2S9kX4Jl0Iq6Dum5wJVW8hfZ-jhKB8AIL9AMP6JqBma-bonWXHKKy8L-Q0bXp4h-XA6vmxs5smMfPMDJmKziZagp0a5wJbH6h3qV2VSw1ctq9p0gzUqNCW28dEkptDIG4lNFDSpdAbW0_wm0cOArSpkS0UhPg8WPc5zT5GuC5Oj8Ujovg-G1yLHx_9J4LgMjZeKS7ozSYdUU7t47hjamIvUZQ-qC_-zSGnykxuj6Z_vFuiTwoRiXRuhfVjmyhPA7Xrzojys5sePKMCs8Bfdkh6STDQ9z29eP9r7viBy3bthPftWeF13fGvE0sAndaQCR0hHE-SegjSEaCUiSWfzV0Q_1B2lomfgl740QR83Dc-NCQ21ICZXRTG21GOvmTHwxnXSAnbG1huymHaHzi01NikxAcAeeTqFI4Ej7kYgY3565JqYVZOi70vZRExpqgUowG4FmxW8peY81x7VVEFGCkO3ywCzAg5CXDCT7GQWJjvwx8Z7fMXjw78TEzk9mD3Gpnexcsi9zn_02sU3sQm9kzbWhkPZ-0pwQAMJAUuyuYdT__H2i75jx7Oh54uIm6KexsRvDn7BcDfZxtUbDdvzQRlKxueje4AfATDt1PQkkkbqcSVU-clJAEb4omGDEd3n9BQXnhhTxoXxBlxg-nhPH-vGdGpNXw8TVLeKKS5OJbER2vXw4guw4XQEXo2YJdbkZk-H6ZKhYLZqQb8hqEaUEJhdDMY9ggHd5H7gmAoJlm00]--></g></svg>