<?xml version="1.0" encoding="us-ascii" standalone="no"?><svg xmlns="http://www.w3.org/2000/svg" xmlns:xlink="http://www.w3.org/1999/xlink" contentStyleType="text/css" height="1559.7px" preserveAspectRatio="none" style="width:1990px;height:1559px;background:#FFFFFF;" version="1.1" viewBox="0 0 1990 1559" width="1990.8px" zoomAndPan="magnify"><defs/><g><text fill="#000000" font-family="sans-serif" font-size="12.6" font-weight="bold" lengthAdjust="spacing" textLength="198.9" x="897.975" y="27.0967">US020 - Sequence Diagram (SD)</text><rect fill="#FFFFFF" height="1315.4414" style="stroke:#181818;stroke-width:0.9;" width="9" x="54" y="136.677"/><rect fill="#FFFFFF" height="67.3857" style="stroke:#181818;stroke-width:0.9;" width="9" x="342.9" y="157.6389"/><rect fill="#FFFFFF" height="198.4096" style="stroke:#181818;stroke-width:0.9;" width="9" x="342.9" y="253.1865"/><rect fill="#FFFFFF" height="152.2477" style="stroke:#181818;stroke-width:0.9;" width="9" x="342.9" y="479.758"/><rect fill="#FFFFFF" height="791.9508" style="stroke:#181818;stroke-width:0.9;" width="9" x="342.9" y="660.1676"/><rect fill="#FFFFFF" height="669.4031" style="stroke:#181818;stroke-width:0.9;" width="9" x="850.05" y="754.5533"/><rect fill="#FFFFFF" height="28.1619" style="stroke:#181818;stroke-width:0.9;" width="9" x="998.55" y="1175.2611"/><rect fill="#FFFFFF" height="28.1619" style="stroke:#181818;stroke-width:0.9;" width="9" x="1094.85" y="1231.585"/><rect fill="#FFFFFF" height="94.0887" style="stroke:#181818;stroke-width:0.9;" width="9" x="1213.2" y="1030.5105"/><rect fill="#FFFFFF" height="28.1619" style="stroke:#181818;stroke-width:0.9;" width="9" x="1349.55" y="782.7152"/><rect fill="#FFFFFF" height="28.1619" style="stroke:#181818;stroke-width:0.9;" width="9" x="1481.85" y="839.0391"/><rect fill="#FFFFFF" height="28.1619" style="stroke:#181818;stroke-width:0.9;" width="9" x="1596.15" y="895.3629"/><rect fill="#FFFFFF" height="28.1619" style="stroke:#181818;stroke-width:0.9;" width="9" x="1673.55" y="951.6867"/><rect fill="#FFFFFF" height="107.8857" style="stroke:#181818;stroke-width:0.9;" width="9" x="1780.65" y="1287.9088"/><rect fill="none" height="151.6096" style="stroke:#000000;stroke-width:1.35;" width="467.1" x="9" y="171.1389"/><rect fill="none" height="151.6096" style="stroke:#000000;stroke-width:1.35;" width="473.4" x="9" y="397.7104"/><line style="stroke:#181818;stroke-width:0.45;stroke-dasharray:5.0,5.0;" x1="58.5" x2="58.5" y1="127.677" y2="1468.3184"/><line style="stroke:#181818;stroke-width:0.45;stroke-dasharray:5.0,5.0;" x1="346.95" x2="346.95" y1="127.677" y2="1468.3184"/><line style="stroke:#181818;stroke-width:0.45;stroke-dasharray:5.0,5.0;" x1="692.1" x2="692.1" y1="698.2295" y2="1468.3184"/><line style="stroke:#181818;stroke-width:0.45;stroke-dasharray:5.0,5.0;" x1="854.1" x2="854.1" y1="127.677" y2="1468.3184"/><line style="stroke:#181818;stroke-width:0.45;stroke-dasharray:5.0,5.0;" x1="1002.6" x2="1002.6" y1="127.677" y2="1468.3184"/><line style="stroke:#181818;stroke-width:0.45;stroke-dasharray:5.0,5.0;" x1="1098.9" x2="1098.9" y1="127.677" y2="1468.3184"/><line style="stroke:#181818;stroke-width:0.45;stroke-dasharray:5.0,5.0;" x1="1217.7" x2="1217.7" y1="127.677" y2="1468.3184"/><line style="stroke:#181818;stroke-width:0.45;stroke-dasharray:5.0,5.0;" x1="1353.6" x2="1353.6" y1="127.677" y2="1468.3184"/><line style="stroke:#181818;stroke-width:0.45;stroke-dasharray:5.0,5.0;" x1="1485.9" x2="1485.9" y1="127.677" y2="1468.3184"/><line style="stroke:#181818;stroke-width:0.45;stroke-dasharray:5.0,5.0;" x1="1600.2" x2="1600.2" y1="127.677" y2="1468.3184"/><line style="stroke:#181818;stroke-width:0.45;stroke-dasharray:5.0,5.0;" x1="1677.6" x2="1677.6" y1="127.677" y2="1468.3184"/><line style="stroke:#181818;stroke-width:0.45;stroke-dasharray:5.0,5.0;" x1="1784.7" x2="1784.7" y1="127.677" y2="1468.3184"/><text fill="#000000" font-family="sans-serif" font-size="12.6" lengthAdjust="spacing" textLength="75.6" x="18" y="107.7557">Green Space</text><text fill="#000000" font-family="sans-serif" font-size="12.6" lengthAdjust="spacing" textLength="50.4" x="30.6" y="124.5146">Manager</text><ellipse cx="58.5" cy="47.809" fill="#E3E3E3" rx="7.2" ry="7.2" style="stroke:#181818;stroke-width:0.45;"/><path d="M58.5,55.009 L58.5,79.309 M46.8,62.209 L70.2,62.209 M58.5,79.309 L46.8,92.809 M58.5,79.309 L70.2,92.809 " fill="none" style="stroke:#181818;stroke-width:0.45;"/><text fill="#000000" font-family="sans-serif" font-size="12.6" lengthAdjust="spacing" textLength="75.6" x="18" y="1481.015">Green Space</text><text fill="#000000" font-family="sans-serif" font-size="12.6" lengthAdjust="spacing" textLength="50.4" x="30.6" y="1497.774">Manager</text><ellipse cx="58.5" cy="1508.5863" fill="#E3E3E3" rx="7.2" ry="7.2" style="stroke:#181818;stroke-width:0.45;"/><path d="M58.5,1515.7863 L58.5,1540.0863 M46.8,1522.9863 L70.2,1522.9863 M58.5,1540.0863 L46.8,1553.5863 M58.5,1540.0863 L70.2,1553.5863 " fill="none" style="stroke:#181818;stroke-width:0.45;"/><rect fill="#E3E3E3" height="29.359" rx="2.25" ry="2.25" style="stroke:#181818;stroke-width:0.45;" width="146.7" x="274.05" y="97.418"/><text fill="#000000" font-family="sans-serif" font-size="12.6" lengthAdjust="spacing" textLength="134.1" x="280.35" y="117.3146">:RegisterGreenSpaceUI</text><rect fill="#E3E3E3" height="29.359" rx="2.25" ry="2.25" style="stroke:#181818;stroke-width:0.45;" width="146.7" x="274.05" y="1467.4184"/><text fill="#000000" font-family="sans-serif" font-size="12.6" lengthAdjust="spacing" textLength="134.1" x="280.35" y="1487.315">:RegisterGreenSpaceUI</text><rect fill="#E3E3E3" height="29.359" rx="2.25" ry="2.25" style="stroke:#181818;stroke-width:0.45;" width="115.2" x="634.5" y="1467.4184"/><text fill="#000000" font-family="sans-serif" font-size="12.6" lengthAdjust="spacing" textLength="102.6" x="640.8" y="1487.315">:GreenSpaceDTO</text><rect fill="#E3E3E3" height="29.359" rx="2.25" ry="2.25" style="stroke:#181818;stroke-width:0.45;" width="191.7" x="758.7" y="97.418"/><text fill="#000000" font-family="sans-serif" font-size="12.6" lengthAdjust="spacing" textLength="179.1" x="765" y="117.3146">:RegisterGreenSpaceController</text><rect fill="#E3E3E3" height="29.359" rx="2.25" ry="2.25" style="stroke:#181818;stroke-width:0.45;" width="191.7" x="758.7" y="1467.4184"/><text fill="#000000" font-family="sans-serif" font-size="12.6" lengthAdjust="spacing" textLength="179.1" x="765" y="1487.315">:RegisterGreenSpaceController</text><rect fill="#E3E3E3" height="29.359" rx="2.25" ry="2.25" style="stroke:#181818;stroke-width:0.45;" width="87.3" x="959.4" y="97.418"/><text fill="#000000" font-family="sans-serif" font-size="12.6" lengthAdjust="spacing" textLength="74.7" x="965.7" y="117.3146">:Repositories</text><rect fill="#E3E3E3" height="29.359" rx="2.25" ry="2.25" style="stroke:#181818;stroke-width:0.45;" width="87.3" x="959.4" y="1467.4184"/><text fill="#000000" font-family="sans-serif" font-size="12.6" lengthAdjust="spacing" textLength="74.7" x="965.7" y="1487.315">:Repositories</text><rect fill="#E3E3E3" height="46.118" rx="2.25" ry="2.25" style="stroke:#181818;stroke-width:0.45;" width="87.3" x="1055.7" y="80.659"/><text fill="#000000" font-family="sans-serif" font-size="12.6" lengthAdjust="spacing" textLength="66.6" x="1066.05" y="100.5557">repositories</text><text fill="#000000" font-family="sans-serif" font-size="12.6" lengthAdjust="spacing" textLength="74.7" x="1062" y="117.3146">:Repositories</text><rect fill="#E3E3E3" height="46.118" rx="2.25" ry="2.25" style="stroke:#181818;stroke-width:0.45;" width="87.3" x="1055.7" y="1467.4184"/><text fill="#000000" font-family="sans-serif" font-size="12.6" lengthAdjust="spacing" textLength="66.6" x="1066.05" y="1487.315">repositories</text><text fill="#000000" font-family="sans-serif" font-size="12.6" lengthAdjust="spacing" textLength="74.7" x="1062" y="1504.074">:Repositories</text><rect fill="#E3E3E3" height="29.359" rx="2.25" ry="2.25" style="stroke:#181818;stroke-width:0.45;" width="131.4" x="1152" y="97.418"/><text fill="#000000" font-family="sans-serif" font-size="12.6" lengthAdjust="spacing" textLength="118.8" x="1158.3" y="117.3146">:GreenSpaceMapper</text><rect fill="#E3E3E3" height="29.359" rx="2.25" ry="2.25" style="stroke:#181818;stroke-width:0.45;" width="131.4" x="1152" y="1467.4184"/><text fill="#000000" font-family="sans-serif" font-size="12.6" lengthAdjust="spacing" textLength="118.8" x="1158.3" y="1487.315">:GreenSpaceMapper</text><rect fill="#E3E3E3" height="29.359" rx="2.25" ry="2.25" style="stroke:#181818;stroke-width:0.45;" width="123.3" x="1292.4" y="97.418"/><text fill="#000000" font-family="sans-serif" font-size="12.6" lengthAdjust="spacing" textLength="110.7" x="1298.7" y="117.3146">:ApplicationSession</text><rect fill="#E3E3E3" height="29.359" rx="2.25" ry="2.25" style="stroke:#181818;stroke-width:0.45;" width="123.3" x="1292.4" y="1467.4184"/><text fill="#000000" font-family="sans-serif" font-size="12.6" lengthAdjust="spacing" textLength="110.7" x="1298.7" y="1487.315">:ApplicationSession</text><rect fill="#E3E3E3" height="46.118" rx="2.25" ry="2.25" style="stroke:#181818;stroke-width:0.45;" width="123.3" x="1424.7" y="80.659"/><text fill="#000000" font-family="sans-serif" font-size="12.6" lengthAdjust="spacing" textLength="51.3" x="1460.7" y="100.5557">singleton</text><text fill="#000000" font-family="sans-serif" font-size="12.6" lengthAdjust="spacing" textLength="110.7" x="1431" y="117.3146">:ApplicationSession</text><rect fill="#E3E3E3" height="46.118" rx="2.25" ry="2.25" style="stroke:#181818;stroke-width:0.45;" width="123.3" x="1424.7" y="1467.4184"/><text fill="#000000" font-family="sans-serif" font-size="12.6" lengthAdjust="spacing" textLength="51.3" x="1460.7" y="1487.315">singleton</text><text fill="#000000" font-family="sans-serif" font-size="12.6" lengthAdjust="spacing" textLength="110.7" x="1431" y="1504.074">:ApplicationSession</text><rect fill="#E3E3E3" height="46.118" rx="2.25" ry="2.25" style="stroke:#181818;stroke-width:0.45;" width="87.3" x="1557" y="80.659"/><text fill="#000000" font-family="sans-serif" font-size="12.6" lengthAdjust="spacing" textLength="70.2" x="1565.55" y="100.5557">userSession</text><text fill="#000000" font-family="sans-serif" font-size="12.6" lengthAdjust="spacing" textLength="74.7" x="1563.3" y="117.3146">:UserSession</text><rect fill="#E3E3E3" height="46.118" rx="2.25" ry="2.25" style="stroke:#181818;stroke-width:0.45;" width="87.3" x="1557" y="1467.4184"/><text fill="#000000" font-family="sans-serif" font-size="12.6" lengthAdjust="spacing" textLength="70.2" x="1565.55" y="1487.315">userSession</text><text fill="#000000" font-family="sans-serif" font-size="12.6" lengthAdjust="spacing" textLength="74.7" x="1563.3" y="1504.074">:UserSession</text><rect fill="#E3E3E3" height="46.118" rx="2.25" ry="2.25" style="stroke:#181818;stroke-width:0.45;" width="49.5" x="1653.3" y="80.659"/><text fill="#000000" font-family="sans-serif" font-size="12.6" lengthAdjust="spacing" textLength="36.9" x="1659.6" y="100.5557">userID</text><text fill="#000000" font-family="sans-serif" font-size="12.6" lengthAdjust="spacing" textLength="34.2" x="1660.95" y="117.3146">:Email</text><rect fill="#E3E3E3" height="46.118" rx="2.25" ry="2.25" style="stroke:#181818;stroke-width:0.45;" width="49.5" x="1653.3" y="1467.4184"/><text fill="#000000" font-family="sans-serif" font-size="12.6" lengthAdjust="spacing" textLength="36.9" x="1659.6" y="1487.315">userID</text><text fill="#000000" font-family="sans-serif" font-size="12.6" lengthAdjust="spacing" textLength="34.2" x="1660.95" y="1504.074">:Email</text><rect fill="#E3E3E3" height="29.359" rx="2.25" ry="2.25" style="stroke:#181818;stroke-width:0.45;" width="146.7" x="1711.8" y="97.418"/><text fill="#000000" font-family="sans-serif" font-size="12.6" lengthAdjust="spacing" textLength="134.1" x="1718.1" y="117.3146">:greenSpaceRepository</text><rect fill="#E3E3E3" height="29.359" rx="2.25" ry="2.25" style="stroke:#181818;stroke-width:0.45;" width="146.7" x="1711.8" y="1467.4184"/><text fill="#000000" font-family="sans-serif" font-size="12.6" lengthAdjust="spacing" textLength="134.1" x="1718.1" y="1487.315">:greenSpaceRepository</text><rect fill="#FFFFFF" height="1315.4414" style="stroke:#181818;stroke-width:0.9;" width="9" x="54" y="136.677"/><rect fill="#FFFFFF" height="67.3857" style="stroke:#181818;stroke-width:0.9;" width="9" x="342.9" y="157.6389"/><rect fill="#FFFFFF" height="198.4096" style="stroke:#181818;stroke-width:0.9;" width="9" x="342.9" y="253.1865"/><rect fill="#FFFFFF" height="152.2477" style="stroke:#181818;stroke-width:0.9;" width="9" x="342.9" y="479.758"/><rect fill="#FFFFFF" height="791.9508" style="stroke:#181818;stroke-width:0.9;" width="9" x="342.9" y="660.1676"/><rect fill="#FFFFFF" height="669.4031" style="stroke:#181818;stroke-width:0.9;" width="9" x="850.05" y="754.5533"/><rect fill="#FFFFFF" height="28.1619" style="stroke:#181818;stroke-width:0.9;" width="9" x="998.55" y="1175.2611"/><rect fill="#FFFFFF" height="28.1619" style="stroke:#181818;stroke-width:0.9;" width="9" x="1094.85" y="1231.585"/><rect fill="#FFFFFF" height="94.0887" style="stroke:#181818;stroke-width:0.9;" width="9" x="1213.2" y="1030.5105"/><rect fill="#FFFFFF" height="28.1619" style="stroke:#181818;stroke-width:0.9;" width="9" x="1349.55" y="782.7152"/><rect fill="#FFFFFF" height="28.1619" style="stroke:#181818;stroke-width:0.9;" width="9" x="1481.85" y="839.0391"/><rect fill="#FFFFFF" height="28.1619" style="stroke:#181818;stroke-width:0.9;" width="9" x="1596.15" y="895.3629"/><rect fill="#FFFFFF" height="28.1619" style="stroke:#181818;stroke-width:0.9;" width="9" x="1673.55" y="951.6867"/><rect fill="#FFFFFF" height="107.8857" style="stroke:#181818;stroke-width:0.9;" width="9" x="1780.65" y="1287.9088"/><polygon fill="#181818" points="332.1,154.0389,341.1,157.6389,332.1,161.2389,335.7,157.6389" style="stroke:#181818;stroke-width:0.9;"/><line style="stroke:#181818;stroke-width:0.9;" x1="63" x2="337.5" y1="157.6389" y2="157.6389"/><text fill="#000000" font-family="sans-serif" font-size="11.7" font-weight="bold" lengthAdjust="spacing" textLength="6.3" x="69.3" y="152.9024">1</text><text fill="#000000" font-family="sans-serif" font-size="11.7" lengthAdjust="spacing" textLength="180.9" x="79.2" y="152.9024">asks to create a new Green Space</text><path d="M9,171.1389 L74.7,171.1389 L74.7,179.5008 L65.7,188.5008 L9,188.5008 L9,171.1389 " fill="#EEEEEE" style="stroke:#000000;stroke-width:1.35;"/><rect fill="none" height="151.6096" style="stroke:#000000;stroke-width:1.35;" width="467.1" x="9" y="171.1389"/><text fill="#000000" font-family="sans-serif" font-size="11.7" font-weight="bold" lengthAdjust="spacing" textLength="25.2" x="22.5" y="184.6644">loop</text><text fill="#000000" font-family="sans-serif" font-size="9.9" font-weight="bold" lengthAdjust="spacing" textLength="170.1" x="88.2" y="183.622">[until doesn't select a valid option]</text><polygon fill="#181818" points="72.9,221.4246,63.9,225.0246,72.9,228.6246,69.3,225.0246" style="stroke:#181818;stroke-width:0.9;"/><line style="stroke:#181818;stroke-width:0.9;stroke-dasharray:2.0,2.0;" x1="67.5" x2="346.5" y1="225.0246" y2="225.0246"/><text fill="#000000" font-family="sans-serif" font-size="11.7" font-weight="bold" lengthAdjust="spacing" textLength="6.3" x="78.3" y="212.5072">2</text><text fill="#000000" font-family="sans-serif" font-size="11.7" lengthAdjust="spacing" textLength="248.4" x="88.2" y="204.7263">Displays the types of green spaces and asks to</text><text fill="#000000" font-family="sans-serif" font-size="11.7" lengthAdjust="spacing" textLength="180.9" x="88.2" y="220.2882">select one (garden, medium, large)</text><polygon fill="#181818" points="332.1,249.5865,341.1,253.1865,332.1,256.7865,335.7,253.1865" style="stroke:#181818;stroke-width:0.9;"/><line style="stroke:#181818;stroke-width:0.9;" x1="63" x2="337.5" y1="253.1865" y2="253.1865"/><text fill="#000000" font-family="sans-serif" font-size="11.7" font-weight="bold" lengthAdjust="spacing" textLength="6.3" x="69.3" y="248.4501">3</text><text fill="#000000" font-family="sans-serif" font-size="11.7" lengthAdjust="spacing" textLength="144" x="79.2" y="248.4501">selects type of green space</text><line style="stroke:#181818;stroke-width:0.9;stroke-dasharray:2.0,2.0;" x1="351.9" x2="389.7" y1="281.3484" y2="281.3484"/><line style="stroke:#181818;stroke-width:0.9;stroke-dasharray:2.0,2.0;" x1="389.7" x2="389.7" y1="281.3484" y2="293.0484"/><line style="stroke:#181818;stroke-width:0.9;stroke-dasharray:2.0,2.0;" x1="352.8" x2="389.7" y1="293.0484" y2="293.0484"/><polygon fill="#181818" points="361.8,289.4484,352.8,293.0484,361.8,296.6484,358.2,293.0484" style="stroke:#181818;stroke-width:0.9;"/><text fill="#000000" font-family="sans-serif" font-size="11.7" font-weight="bold" lengthAdjust="spacing" textLength="6.3" x="358.2" y="276.612">4</text><text fill="#000000" font-family="sans-serif" font-size="11.7" lengthAdjust="spacing" textLength="97.2" x="368.1" y="276.612">validates Selection</text><line style="stroke:#181818;stroke-width:0.9;stroke-dasharray:2.0,2.0;" x1="351.9" x2="389.7" y1="372.5104" y2="372.5104"/><line style="stroke:#181818;stroke-width:0.9;stroke-dasharray:2.0,2.0;" x1="389.7" x2="389.7" y1="372.5104" y2="384.2104"/><line style="stroke:#181818;stroke-width:0.9;stroke-dasharray:2.0,2.0;" x1="352.8" x2="389.7" y1="384.2104" y2="384.2104"/><polygon fill="#181818" points="361.8,380.6104,352.8,384.2104,361.8,387.8104,358.2,384.2104" style="stroke:#181818;stroke-width:0.9;"/><text fill="#000000" font-family="sans-serif" font-size="11.7" font-weight="bold" lengthAdjust="spacing" textLength="6.3" x="358.2" y="367.7739">5</text><text fill="#000000" font-family="sans-serif" font-size="11.7" lengthAdjust="spacing" textLength="79.2" x="368.1" y="367.7739">keepData(type)</text><path d="M9,397.7104 L74.7,397.7104 L74.7,406.0723 L65.7,415.0723 L9,415.0723 L9,397.7104 " fill="#EEEEEE" style="stroke:#000000;stroke-width:1.35;"/><rect fill="none" height="151.6096" style="stroke:#000000;stroke-width:1.35;" width="473.4" x="9" y="397.7104"/><text fill="#000000" font-family="sans-serif" font-size="11.7" font-weight="bold" lengthAdjust="spacing" textLength="25.2" x="22.5" y="411.2358">loop</text><text fill="#000000" font-family="sans-serif" font-size="9.9" font-weight="bold" lengthAdjust="spacing" textLength="141.3" x="88.2" y="410.1935">[until typed data is validated]</text><polygon fill="#181818" points="72.9,447.9961,63.9,451.5961,72.9,455.1961,69.3,451.5961" style="stroke:#181818;stroke-width:0.9;"/><line style="stroke:#181818;stroke-width:0.9;stroke-dasharray:2.0,2.0;" x1="67.5" x2="346.5" y1="451.5961" y2="451.5961"/><text fill="#000000" font-family="sans-serif" font-size="11.7" font-weight="bold" lengthAdjust="spacing" textLength="6.3" x="78.3" y="439.0787">6</text><text fill="#000000" font-family="sans-serif" font-size="11.7" lengthAdjust="spacing" textLength="177.3" x="88.2" y="431.2978">requests data (name, area, street,</text><text fill="#000000" font-family="sans-serif" font-size="11.7" lengthAdjust="spacing" textLength="207.9" x="91.8" y="446.8597">streetNumber, postalCode, city, district)</text><polygon fill="#181818" points="332.1,476.158,341.1,479.758,332.1,483.358,335.7,479.758" style="stroke:#181818;stroke-width:0.9;"/><line style="stroke:#181818;stroke-width:0.9;" x1="63" x2="337.5" y1="479.758" y2="479.758"/><text fill="#000000" font-family="sans-serif" font-size="11.7" font-weight="bold" lengthAdjust="spacing" textLength="6.3" x="69.3" y="475.0216">7</text><text fill="#000000" font-family="sans-serif" font-size="11.7" lengthAdjust="spacing" textLength="109.8" x="79.2" y="475.0216">types requested data</text><line style="stroke:#181818;stroke-width:0.9;stroke-dasharray:2.0,2.0;" x1="351.9" x2="389.7" y1="507.9199" y2="507.9199"/><line style="stroke:#181818;stroke-width:0.9;stroke-dasharray:2.0,2.0;" x1="389.7" x2="389.7" y1="507.9199" y2="519.6199"/><line style="stroke:#181818;stroke-width:0.9;stroke-dasharray:2.0,2.0;" x1="352.8" x2="389.7" y1="519.6199" y2="519.6199"/><polygon fill="#181818" points="361.8,516.0199,352.8,519.6199,361.8,523.2199,358.2,519.6199" style="stroke:#181818;stroke-width:0.9;"/><text fill="#000000" font-family="sans-serif" font-size="11.7" font-weight="bold" lengthAdjust="spacing" textLength="6.3" x="358.2" y="503.1835">8</text><text fill="#000000" font-family="sans-serif" font-size="11.7" lengthAdjust="spacing" textLength="103.5" x="368.1" y="503.1835">Validates input data</text><line style="stroke:#181818;stroke-width:0.9;stroke-dasharray:2.0,2.0;" x1="351.9" x2="389.7" y1="592.1438" y2="592.1438"/><line style="stroke:#181818;stroke-width:0.9;stroke-dasharray:2.0,2.0;" x1="389.7" x2="389.7" y1="592.1438" y2="603.8438"/><line style="stroke:#181818;stroke-width:0.9;stroke-dasharray:2.0,2.0;" x1="352.8" x2="389.7" y1="603.8438" y2="603.8438"/><polygon fill="#181818" points="361.8,600.2438,352.8,603.8438,361.8,607.4438,358.2,603.8438" style="stroke:#181818;stroke-width:0.9;"/><text fill="#000000" font-family="sans-serif" font-size="11.7" font-weight="bold" lengthAdjust="spacing" textLength="6.3" x="358.2" y="579.6264">9</text><text fill="#000000" font-family="sans-serif" font-size="11.7" lengthAdjust="spacing" textLength="229.5" x="368.1" y="571.8454">keepData(name, area, street, streetNumber,</text><text fill="#000000" font-family="sans-serif" font-size="11.7" lengthAdjust="spacing" textLength="130.5" x="425.7" y="587.4073">postalCode, city, district)</text><polygon fill="#181818" points="72.9,628.4057,63.9,632.0057,72.9,635.6057,69.3,632.0057" style="stroke:#181818;stroke-width:0.9;"/><line style="stroke:#181818;stroke-width:0.9;stroke-dasharray:2.0,2.0;" x1="67.5" x2="346.5" y1="632.0057" y2="632.0057"/><text fill="#000000" font-family="sans-serif" font-size="11.7" font-weight="bold" lengthAdjust="spacing" textLength="12.6" x="78.3" y="627.2692">10</text><text fill="#000000" font-family="sans-serif" font-size="11.7" lengthAdjust="spacing" textLength="212.4" x="94.5" y="627.2692">shows all data and requests confirmation</text><polygon fill="#181818" points="332.1,656.5676,341.1,660.1676,332.1,663.7676,335.7,660.1676" style="stroke:#181818;stroke-width:0.9;"/><line style="stroke:#181818;stroke-width:0.9;" x1="63" x2="337.5" y1="660.1676" y2="660.1676"/><text fill="#000000" font-family="sans-serif" font-size="11.7" font-weight="bold" lengthAdjust="spacing" textLength="12.6" x="69.3" y="655.4312">11</text><text fill="#000000" font-family="sans-serif" font-size="11.7" lengthAdjust="spacing" textLength="70.2" x="85.5" y="655.4312">confirms data</text><polygon fill="#181818" points="623.7,700.2914,632.7,703.8914,623.7,707.4914,627.3,703.8914" style="stroke:#181818;stroke-width:0.9;"/><line style="stroke:#181818;stroke-width:0.9;" x1="351.9" x2="629.1" y1="703.8914" y2="703.8914"/><text fill="#000000" font-family="sans-serif" font-size="11.7" font-weight="bold" lengthAdjust="spacing" textLength="12.6" x="358.2" y="691.374">12</text><text fill="#000000" font-family="sans-serif" font-size="11.7" lengthAdjust="spacing" textLength="244.8" x="374.4" y="683.5931">new GreenSpaceDTO(name, type, area, street,</text><text fill="#000000" font-family="sans-serif" font-size="11.7" lengthAdjust="spacing" textLength="204.3" x="378" y="699.155">streetNumber,postalCode, city, district)</text><rect fill="#E3E3E3" height="29.359" rx="2.25" ry="2.25" style="stroke:#181818;stroke-width:0.45;" width="115.2" x="634.5" y="671.8324"/><text fill="#000000" font-family="sans-serif" font-size="12.6" lengthAdjust="spacing" textLength="102.6" x="640.8" y="691.7291">:GreenSpaceDTO</text><polygon fill="#181818" points="839.25,750.9533,848.25,754.5533,839.25,758.1533,842.85,754.5533" style="stroke:#181818;stroke-width:0.9;"/><line style="stroke:#181818;stroke-width:0.9;stroke-dasharray:2.0,2.0;" x1="351.9" x2="844.65" y1="754.5533" y2="754.5533"/><text fill="#000000" font-family="sans-serif" font-size="11.7" font-weight="bold" lengthAdjust="spacing" textLength="12.6" x="358.2" y="749.8169">13</text><text fill="#000000" font-family="sans-serif" font-size="11.7" lengthAdjust="spacing" textLength="196.2" x="374.4" y="749.8169">registerGreenSpace(greenSpaceDTO)</text><polygon fill="#181818" points="1338.75,779.1152,1347.75,782.7152,1338.75,786.3152,1342.35,782.7152" style="stroke:#181818;stroke-width:0.9;"/><line style="stroke:#181818;stroke-width:0.9;stroke-dasharray:2.0,2.0;" x1="859.05" x2="1344.15" y1="782.7152" y2="782.7152"/><text fill="#000000" font-family="sans-serif" font-size="11.7" font-weight="bold" lengthAdjust="spacing" textLength="12.6" x="865.35" y="777.9788">14</text><text fill="#000000" font-family="sans-serif" font-size="11.7" lengthAdjust="spacing" textLength="67.5" x="881.55" y="777.9788">getInstance()</text><polygon fill="#181818" points="868.95,807.2771,859.95,810.8771,868.95,814.4771,865.35,810.8771" style="stroke:#181818;stroke-width:0.9;"/><line style="stroke:#181818;stroke-width:0.9;stroke-dasharray:2.0,2.0;" x1="863.55" x2="1353.15" y1="810.8771" y2="810.8771"/><text fill="#000000" font-family="sans-serif" font-size="11.7" font-weight="bold" lengthAdjust="spacing" textLength="12.6" x="874.35" y="806.1407">15</text><text fill="#000000" font-family="sans-serif" font-size="11.7" lengthAdjust="spacing" textLength="46.8" x="890.55" y="806.1407">singleton</text><polygon fill="#181818" points="1471.05,835.4391,1480.05,839.0391,1471.05,842.6391,1474.65,839.0391" style="stroke:#181818;stroke-width:0.9;"/><line style="stroke:#181818;stroke-width:0.9;stroke-dasharray:2.0,2.0;" x1="859.05" x2="1476.45" y1="839.0391" y2="839.0391"/><text fill="#000000" font-family="sans-serif" font-size="11.7" font-weight="bold" lengthAdjust="spacing" textLength="12.6" x="865.35" y="834.3026">16</text><text fill="#000000" font-family="sans-serif" font-size="11.7" lengthAdjust="spacing" textLength="90" x="881.55" y="834.3026">getUserSession()</text><polygon fill="#181818" points="868.95,863.601,859.95,867.201,868.95,870.801,865.35,867.201" style="stroke:#181818;stroke-width:0.9;"/><line style="stroke:#181818;stroke-width:0.9;stroke-dasharray:2.0,2.0;" x1="863.55" x2="1485.45" y1="867.201" y2="867.201"/><text fill="#000000" font-family="sans-serif" font-size="11.7" font-weight="bold" lengthAdjust="spacing" textLength="12.6" x="874.35" y="862.4646">17</text><text fill="#000000" font-family="sans-serif" font-size="11.7" lengthAdjust="spacing" textLength="64.8" x="890.55" y="862.4646">userSession</text><polygon fill="#181818" points="1585.35,891.7629,1594.35,895.3629,1585.35,898.9629,1588.95,895.3629" style="stroke:#181818;stroke-width:0.9;"/><line style="stroke:#181818;stroke-width:0.9;stroke-dasharray:2.0,2.0;" x1="859.05" x2="1590.75" y1="895.3629" y2="895.3629"/><text fill="#000000" font-family="sans-serif" font-size="11.7" font-weight="bold" lengthAdjust="spacing" textLength="12.6" x="865.35" y="890.6265">18</text><text fill="#000000" font-family="sans-serif" font-size="11.7" lengthAdjust="spacing" textLength="56.7" x="881.55" y="890.6265">getUserId()</text><polygon fill="#181818" points="868.95,919.9248,859.95,923.5248,868.95,927.1248,865.35,923.5248" style="stroke:#181818;stroke-width:0.9;"/><line style="stroke:#181818;stroke-width:0.9;stroke-dasharray:2.0,2.0;" x1="863.55" x2="1599.75" y1="923.5248" y2="923.5248"/><text fill="#000000" font-family="sans-serif" font-size="11.7" font-weight="bold" lengthAdjust="spacing" textLength="12.6" x="874.35" y="918.7884">19</text><text fill="#000000" font-family="sans-serif" font-size="11.7" lengthAdjust="spacing" textLength="31.5" x="890.55" y="918.7884">userId</text><polygon fill="#181818" points="1662.75,948.0867,1671.75,951.6867,1662.75,955.2867,1666.35,951.6867" style="stroke:#181818;stroke-width:0.9;"/><line style="stroke:#181818;stroke-width:0.9;stroke-dasharray:2.0,2.0;" x1="859.05" x2="1668.15" y1="951.6867" y2="951.6867"/><text fill="#000000" font-family="sans-serif" font-size="11.7" font-weight="bold" lengthAdjust="spacing" textLength="12.6" x="865.35" y="946.9503">20</text><text fill="#000000" font-family="sans-serif" font-size="11.7" lengthAdjust="spacing" textLength="53.1" x="881.55" y="946.9503">getEmail()</text><polygon fill="#181818" points="868.95,976.2486,859.95,979.8486,868.95,983.4486,865.35,979.8486" style="stroke:#181818;stroke-width:0.9;"/><line style="stroke:#181818;stroke-width:0.9;stroke-dasharray:2.0,2.0;" x1="863.55" x2="1677.15" y1="979.8486" y2="979.8486"/><text fill="#000000" font-family="sans-serif" font-size="11.7" font-weight="bold" lengthAdjust="spacing" textLength="12.6" x="874.35" y="975.1122">21</text><text fill="#000000" font-family="sans-serif" font-size="11.7" lengthAdjust="spacing" textLength="27.9" x="890.55" y="975.1122">email</text><polygon fill="#181818" points="1202.4,1026.9105,1211.4,1030.5105,1202.4,1034.1105,1206,1030.5105" style="stroke:#181818;stroke-width:0.9;"/><line style="stroke:#181818;stroke-width:0.9;stroke-dasharray:2.0,2.0;" x1="859.05" x2="1207.8" y1="1030.5105" y2="1030.5105"/><text fill="#000000" font-family="sans-serif" font-size="11.7" font-weight="bold" lengthAdjust="spacing" textLength="12.6" x="865.35" y="1025.7741">22</text><text fill="#000000" font-family="sans-serif" font-size="11.7" lengthAdjust="spacing" textLength="245.7" x="881.55" y="1025.7741">toGreenSpace(greenSpaceDTO,managerEmail)</text><rect fill="none" height="38.9268" style="stroke:#000000;stroke-width:1.35;" width="171" x="1149.3" y="1060.2105"/><path d="M1149.3,1060.2105 L1205.1,1060.2105 L1205.1,1068.3105 L1196.1,1077.3105 L1149.3,1077.3105 L1149.3,1060.2105 " fill="#EEEEEE" style="stroke:#000000;stroke-width:1.8;"/><text fill="#000000" font-family="sans-serif" font-size="11.7" font-weight="bold" lengthAdjust="spacing" textLength="15.3" x="1161" y="1074.636">ref</text><text fill="#000000" font-family="sans-serif" font-size="10.8" lengthAdjust="spacing" textLength="163.8" x="1152.9" y="1092.5648">SD_toGreenSpaceDomainObject</text><polygon fill="#181818" points="868.95,1120.9992,859.95,1124.5992,868.95,1128.1992,865.35,1124.5992" style="stroke:#181818;stroke-width:0.9;"/><line style="stroke:#181818;stroke-width:0.9;stroke-dasharray:2.0,2.0;" x1="863.55" x2="1216.8" y1="1124.5992" y2="1124.5992"/><text fill="#000000" font-family="sans-serif" font-size="11.7" font-weight="bold" lengthAdjust="spacing" textLength="12.6" x="874.35" y="1119.8628">23</text><text fill="#000000" font-family="sans-serif" font-size="11.7" lengthAdjust="spacing" textLength="62.1" x="890.55" y="1119.8628">greenSpace</text><polygon fill="#181818" points="987.75,1171.6611,996.75,1175.2611,987.75,1178.8611,991.35,1175.2611" style="stroke:#181818;stroke-width:0.9;"/><line style="stroke:#181818;stroke-width:0.9;stroke-dasharray:2.0,2.0;" x1="859.05" x2="993.15" y1="1175.2611" y2="1175.2611"/><text fill="#000000" font-family="sans-serif" font-size="11.7" font-weight="bold" lengthAdjust="spacing" textLength="12.6" x="865.35" y="1170.5247">24</text><text fill="#000000" font-family="sans-serif" font-size="11.7" lengthAdjust="spacing" textLength="67.5" x="881.55" y="1170.5247">getInstance()</text><polygon fill="#181818" points="868.95,1199.823,859.95,1203.423,868.95,1207.023,865.35,1203.423" style="stroke:#181818;stroke-width:0.9;"/><line style="stroke:#181818;stroke-width:0.9;stroke-dasharray:2.0,2.0;" x1="863.55" x2="1002.15" y1="1203.423" y2="1203.423"/><text fill="#000000" font-family="sans-serif" font-size="11.7" font-weight="bold" lengthAdjust="spacing" textLength="12.6" x="874.35" y="1198.6866">25</text><text fill="#000000" font-family="sans-serif" font-size="11.7" lengthAdjust="spacing" textLength="60.3" x="890.55" y="1198.6866">repositories</text><polygon fill="#181818" points="1084.05,1227.985,1093.05,1231.585,1084.05,1235.185,1087.65,1231.585" style="stroke:#181818;stroke-width:0.9;"/><line style="stroke:#181818;stroke-width:0.9;stroke-dasharray:2.0,2.0;" x1="859.05" x2="1089.45" y1="1231.585" y2="1231.585"/><text fill="#000000" font-family="sans-serif" font-size="11.7" font-weight="bold" lengthAdjust="spacing" textLength="12.6" x="865.35" y="1226.8485">26</text><text fill="#000000" font-family="sans-serif" font-size="11.7" lengthAdjust="spacing" textLength="144" x="881.55" y="1226.8485">getGreenSpaceRepository()</text><polygon fill="#181818" points="868.95,1256.1469,859.95,1259.7469,868.95,1263.3469,865.35,1259.7469" style="stroke:#181818;stroke-width:0.9;"/><line style="stroke:#181818;stroke-width:0.9;stroke-dasharray:2.0,2.0;" x1="863.55" x2="1098.45" y1="1259.7469" y2="1259.7469"/><text fill="#000000" font-family="sans-serif" font-size="11.7" font-weight="bold" lengthAdjust="spacing" textLength="12.6" x="874.35" y="1255.0104">27</text><text fill="#000000" font-family="sans-serif" font-size="11.7" lengthAdjust="spacing" textLength="117.9" x="890.55" y="1255.0104">greenSpaceRepository</text><polygon fill="#181818" points="1769.85,1284.3088,1778.85,1287.9088,1769.85,1291.5088,1773.45,1287.9088" style="stroke:#181818;stroke-width:0.9;"/><line style="stroke:#181818;stroke-width:0.9;stroke-dasharray:2.0,2.0;" x1="859.05" x2="1775.25" y1="1287.9088" y2="1287.9088"/><text fill="#000000" font-family="sans-serif" font-size="11.7" font-weight="bold" lengthAdjust="spacing" textLength="12.6" x="865.35" y="1283.1724">28</text><text fill="#000000" font-family="sans-serif" font-size="11.7" lengthAdjust="spacing" textLength="172.8" x="881.55" y="1283.1724">registerGreenSpace(greenSpace)</text><line style="stroke:#181818;stroke-width:0.9;stroke-dasharray:2.0,2.0;" x1="1789.65" x2="1827.45" y1="1316.0707" y2="1316.0707"/><line style="stroke:#181818;stroke-width:0.9;stroke-dasharray:2.0,2.0;" x1="1827.45" x2="1827.45" y1="1316.0707" y2="1327.7707"/><line style="stroke:#181818;stroke-width:0.9;stroke-dasharray:2.0,2.0;" x1="1790.55" x2="1827.45" y1="1327.7707" y2="1327.7707"/><polygon fill="#181818" points="1799.55,1324.1707,1790.55,1327.7707,1799.55,1331.3707,1795.95,1327.7707" style="stroke:#181818;stroke-width:0.9;"/><text fill="#000000" font-family="sans-serif" font-size="11.7" font-weight="bold" lengthAdjust="spacing" textLength="12.6" x="1795.95" y="1311.3343">29</text><text fill="#000000" font-family="sans-serif" font-size="11.7" lengthAdjust="spacing" textLength="88.2" x="1812.15" y="1311.3343">add(greenSpace)</text><line style="stroke:#181818;stroke-width:0.9;stroke-dasharray:2.0,2.0;" x1="1789.65" x2="1827.45" y1="1355.9326" y2="1355.9326"/><line style="stroke:#181818;stroke-width:0.9;stroke-dasharray:2.0,2.0;" x1="1827.45" x2="1827.45" y1="1355.9326" y2="1367.6326"/><line style="stroke:#181818;stroke-width:0.9;stroke-dasharray:2.0,2.0;" x1="1790.55" x2="1827.45" y1="1367.6326" y2="1367.6326"/><polygon fill="#181818" points="1799.55,1364.0326,1790.55,1367.6326,1799.55,1371.2326,1795.95,1367.6326" style="stroke:#181818;stroke-width:0.9;"/><text fill="#000000" font-family="sans-serif" font-size="11.7" font-weight="bold" lengthAdjust="spacing" textLength="12.6" x="1795.95" y="1351.1962">30</text><text fill="#000000" font-family="sans-serif" font-size="11.7" lengthAdjust="spacing" textLength="172.8" x="1812.15" y="1351.1962">validateGreenSpace(greenSpace)</text><polygon fill="#181818" points="868.95,1392.1945,859.95,1395.7945,868.95,1399.3945,865.35,1395.7945" style="stroke:#181818;stroke-width:0.9;"/><line style="stroke:#181818;stroke-width:0.9;stroke-dasharray:2.0,2.0;" x1="863.55" x2="1784.25" y1="1395.7945" y2="1395.7945"/><text fill="#000000" font-family="sans-serif" font-size="11.7" font-weight="bold" lengthAdjust="spacing" textLength="12.6" x="874.35" y="1391.0581">31</text><text fill="#000000" font-family="sans-serif" font-size="11.7" lengthAdjust="spacing" textLength="95.4" x="890.55" y="1391.0581">operation success</text><polygon fill="#181818" points="361.8,1420.3564,352.8,1423.9564,361.8,1427.5564,358.2,1423.9564" style="stroke:#181818;stroke-width:0.9;"/><line style="stroke:#181818;stroke-width:0.9;stroke-dasharray:2.0,2.0;" x1="356.4" x2="853.65" y1="1423.9564" y2="1423.9564"/><text fill="#000000" font-family="sans-serif" font-size="11.7" font-weight="bold" lengthAdjust="spacing" textLength="12.6" x="367.2" y="1419.22">32</text><text fill="#000000" font-family="sans-serif" font-size="11.7" lengthAdjust="spacing" textLength="95.4" x="383.4" y="1419.22">operation success</text><polygon fill="#181818" points="68.4,1448.5184,59.4,1452.1184,68.4,1455.7184,64.8,1452.1184" style="stroke:#181818;stroke-width:0.9;"/><line style="stroke:#181818;stroke-width:0.9;stroke-dasharray:2.0,2.0;" x1="63" x2="346.5" y1="1452.1184" y2="1452.1184"/><text fill="#000000" font-family="sans-serif" font-size="11.7" font-weight="bold" lengthAdjust="spacing" textLength="12.6" x="73.8" y="1447.3819">33</text><text fill="#000000" font-family="sans-serif" font-size="11.7" lengthAdjust="spacing" textLength="142.2" x="90" y="1447.3819">displays operation success</text><!--SRC=[ZLPDRzmu3BtxLn2vT59CWAB770eKcI0OODC6SQUd08LgCuusjkILv0G3vCSl9Tko_27F-3Boc7nyVA8ewbSkQgPO1PKKCdjHia8mgi54-oyrorvPWQavbWWACyD4KOO6-eNbyfsB0fvPgJ5933TaUaY_VFq2Lv3YVmsA3677MM7jD-dkCabOOwHegh-eQ9qPgU3YJY4AI2aWFebx9YYgkW2cuIwzJoYMuHclcJ1mSVs81TS6bNDn7eUzCpti9vQ3nUxNJsT2loVHRgGmIfPbH-3cr-C_CvzQQawyEMfdytZxCC5LWScJMFRO2qs2PXXbVS_gkcFHBYUMt-kwv1apN8eKjQOVP_lzuM5igBdTDjAScCHzqjvgxDneL9qbkH-6jrRpuNtkjj-Hnst5UEbitMgIGk6JzH8TktstVxZwu6_Ce2k41EYX1Lnzezs6Qp9yrM0aP0gj3GE1xn3KadFm45GWzhsKieP665v2Bb6BJmOqbbJTvF_6Ifw3hAq-2OMueaWsu3MLiAvBTgHmBtHEZZLgaC_W-8EsiJGmaVUCdaG7AGN2fc0gHx652dFUL5iecIhmqf79CQGtIx15qIxW9DvYRXtbm_wwJOK-QJg65iHc10lFnyV7ulyeyfFsFXnHVKMiTyomZULAfpm9TBP_vK1i673jcULJd5PfPRk6fgIT_KQm2hV0Q8Ute0tbRxPFeblzS5ra2rGwXfKtCYVBZ9lZ5d8wrOfdvYoLs-tiudP4arFw_lRwKZTiJElK2qJYkJfRLseXjN5YbEZaEPNfJ4tz8j-fDCkobTFMg1Sua-APguhvsZYXKsUlXrndvdtyRxRNVlvCJlv8zfsuIzkAVc9Vrv9D5khGzcfNGDEUlYb20eDIdhxhyaaoAdY7Pc6fEH9gWQRls9lBaQ57iPrtTcQiTq3ED-EHOI3y32JauPjqIoXelokSXiw-H6w035W6NN-5PmJO4mxe3NptUOngU9dCc8PO4wBxFCOnYkWfkakf9UUMCMxjvJLZrRe7VD3PHUZSpZxQ8eumQwzysvrah92tLJifETpBPAshUmxT935DHE4po3UA5_cUxlw4F7QIGegVV_-bYoLPk3aitbojBgL0hY6T92PQHsWrEo-QdQjMp-gY9cv-YvhPn-6EMimmq4KTWoJM8upezyJRDEuM1gHpK_83vidKVCp5hHaYdvlgScIVPZlSdUhKaPFOJuPJ2Xte29_bUHGmvjDF9sTmca1qmaagLtUbWcuocWjrhBBxJ2BDSx-A5U2qbzVYxP_tK-jPGDsGCw9ud_mF]--></g></svg>