<?xml version="1.0" encoding="us-ascii" standalone="no"?><svg xmlns="http://www.w3.org/2000/svg" xmlns:xlink="http://www.w3.org/1999/xlink" contentStyleType="text/css" height="1190.7px" preserveAspectRatio="none" style="width:1084px;height:1190px;background:#FFFFFF;" version="1.1" viewBox="0 0 1084 1190" width="1084.3px" zoomAndPan="magnify"><defs/><g><text fill="#000000" font-family="sans-serif" font-size="9.8" font-weight="bold" lengthAdjust="spacing" textLength="108.5" x="483" y="17.5752">US020 - Class Diagram</text><!--cluster GUI--><g id="cluster_GUI"><path d="M645.75,31.9443 L663.95,31.9443 A2.625,2.625 0 0 1 665.7,33.6943 L670.6,49.1791 L789.25,49.1791 A1.75,1.75 0 0 1 791,50.9291 L791,256.9943 A1.75,1.75 0 0 1 789.25,258.7443 L645.75,258.7443 A1.75,1.75 0 0 1 644,256.9943 L644,33.6943 A1.75,1.75 0 0 1 645.75,31.9443 " fill="#DDDDDD" style="stroke:#000000;stroke-width:1.0499999999999998;"/><line style="stroke:#000000;stroke-width:1.0499999999999998;" x1="644" x2="670.6" y1="49.1791" y2="49.1791"/><text fill="#000000" font-family="sans-serif" font-size="9.8" font-weight="bold" lengthAdjust="spacing" textLength="17.5" x="646.8" y="43.9195">GUI</text></g><!--cluster Controller--><g id="cluster_Controller"><path d="M399.35,281.8443 L449.75,281.8443 A2.625,2.625 0 0 1 451.5,283.5943 L456.4,299.0791 L604.45,299.0791 A1.75,1.75 0 0 1 606.2,300.8291 L606.2,389.9943 A1.75,1.75 0 0 1 604.45,391.7443 L399.35,391.7443 A1.75,1.75 0 0 1 397.6,389.9943 L397.6,283.5943 A1.75,1.75 0 0 1 399.35,281.8443 " fill="#DDDDDD" style="stroke:#000000;stroke-width:1.0499999999999998;"/><line style="stroke:#000000;stroke-width:1.0499999999999998;" x1="397.6" x2="456.4" y1="299.0791" y2="299.0791"/><text fill="#000000" font-family="sans-serif" font-size="9.8" font-weight="bold" lengthAdjust="spacing" textLength="49.7" x="400.4" y="293.8195">Controller</text></g><!--cluster Repository--><g id="cluster_Repository"><path d="M5.95,466.6443 L59.85,466.6443 A2.625,2.625 0 0 1 61.6,468.3943 L66.5,483.8791 L462.35,483.8791 A1.75,1.75 0 0 1 464.1,485.6291 L464.1,945.7943 A1.75,1.75 0 0 1 462.35,947.5443 L5.95,947.5443 A1.75,1.75 0 0 1 4.2,945.7943 L4.2,468.3943 A1.75,1.75 0 0 1 5.95,466.6443 " fill="#DDDDDD" style="stroke:#000000;stroke-width:1.0499999999999998;"/><line style="stroke:#000000;stroke-width:1.0499999999999998;" x1="4.2" x2="66.5" y1="483.8791" y2="483.8791"/><text fill="#000000" font-family="sans-serif" font-size="9.8" font-weight="bold" lengthAdjust="spacing" textLength="53.2" x="7" y="478.6195">Repository</text></g><!--cluster Domain--><g id="cluster_Domain"><path d="M487.55,818.0443 L524.65,818.0443 A2.625,2.625 0 0 1 526.4,819.7943 L531.3,835.2791 L765.45,835.2791 A1.75,1.75 0 0 1 767.2,837.0291 L767.2,1184.4943 A1.75,1.75 0 0 1 765.45,1186.2443 L487.55,1186.2443 A1.75,1.75 0 0 1 485.8,1184.4943 L485.8,819.7943 A1.75,1.75 0 0 1 487.55,818.0443 " fill="#DDDDDD" style="stroke:#000000;stroke-width:1.0499999999999998;"/><line style="stroke:#000000;stroke-width:1.0499999999999998;" x1="485.8" x2="531.3" y1="835.2791" y2="835.2791"/><text fill="#000000" font-family="sans-serif" font-size="9.8" font-weight="bold" lengthAdjust="spacing" textLength="36.4" x="488.6" y="830.0195">Domain</text></g><!--cluster Mapper--><g id="cluster_Mapper"><path d="M506.45,667.5443 L544.95,667.5443 A2.625,2.625 0 0 1 546.7,669.2943 L551.6,684.7791 L754.95,684.7791 A1.75,1.75 0 0 1 756.7,686.5291 L756.7,762.3943 A1.75,1.75 0 0 1 754.95,764.1443 L506.45,764.1443 A1.75,1.75 0 0 1 504.7,762.3943 L504.7,669.2943 A1.75,1.75 0 0 1 506.45,667.5443 " fill="#DDDDDD" style="stroke:#000000;stroke-width:1.0499999999999998;"/><line style="stroke:#000000;stroke-width:1.0499999999999998;" x1="504.7" x2="551.6" y1="684.7791" y2="684.7791"/><text fill="#000000" font-family="sans-serif" font-size="9.8" font-weight="bold" lengthAdjust="spacing" textLength="37.8" x="507.5" y="679.5195">Mapper</text></g><!--cluster DTO--><g id="cluster_DTO"><path d="M659.75,427.4443 L680.75,427.4443 A2.625,2.625 0 0 1 682.5,429.1943 L687.4,444.6791 L1077.65,444.6791 A1.75,1.75 0 0 1 1079.4,446.4291 L1079.4,626.5943 A1.75,1.75 0 0 1 1077.65,628.3443 L659.75,628.3443 A1.75,1.75 0 0 1 658,626.5943 L658,429.1943 A1.75,1.75 0 0 1 659.75,427.4443 " fill="#DDDDDD" style="stroke:#000000;stroke-width:1.0499999999999998;"/><line style="stroke:#000000;stroke-width:1.0499999999999998;" x1="658" x2="687.4" y1="444.6791" y2="444.6791"/><text fill="#000000" font-family="sans-serif" font-size="9.8" font-weight="bold" lengthAdjust="spacing" textLength="20.3" x="660.8" y="439.4195">DTO</text></g><!--class RegisterGreenSpaceUI--><g id="elem_RegisterGreenSpaceUI"><rect codeLine="12" fill="#F1F1F1" height="190.0172" id="RegisterGreenSpaceUI" rx="1.75" ry="1.75" style="stroke:#181818;stroke-width:0.3499999999999999;" width="123.9" x="655.55" y="57.8443"/><ellipse cx="666.05" cy="69.0443" fill="#ADD1B2" rx="7.7" ry="7.7" style="stroke:#181818;stroke-width:0.6999999999999998;"/><path d="M667.9859,66.1568 Q668.0953,66.0037 668.2266,65.9271 Q668.3578,65.8506 668.5109,65.8506 Q668.7734,65.8506 668.9375,66.0365 Q669.1016,66.2115 669.1016,66.6381 L669.1016,67.6553 Q669.1016,68.0818 668.9375,68.2678 Q668.7734,68.4537 668.5109,68.4537 Q668.2703,68.4537 668.1281,68.3115 Q667.9859,68.1803 667.9094,67.8193 Q667.8766,67.5678 667.7453,67.4365 Q667.5156,67.174 667.0891,67.0209 Q666.6625,66.8678 666.225,66.8678 Q665.6891,66.8678 665.2406,67.0975 Q664.8031,67.3271 664.4531,67.8521 Q664.1141,68.3771 664.1141,69.099 L664.1141,69.8646 Q664.1141,70.7287 664.7375,71.3084 Q665.3609,71.8771 666.4766,71.8771 Q667.1328,71.8771 667.5922,71.7021 Q667.8656,71.5928 668.1609,71.2865 Q668.3469,71.1006 668.4453,71.0459 Q668.5547,70.9912 668.6969,70.9912 Q668.9266,70.9912 669.1016,71.1771 Q669.2875,71.3521 669.2875,71.5928 Q669.2875,71.8334 669.0469,72.1178 Q668.6969,72.5225 668.1391,72.7521 Q667.3844,73.0693 666.4766,73.0693 Q665.4156,73.0693 664.5734,72.6318 Q663.8844,72.2818 663.4031,71.5381 Q662.9219,70.7834 662.9219,69.8865 L662.9219,69.0771 Q662.9219,68.1475 663.3484,67.349 Q663.7859,66.5396 664.5516,66.1131 Q665.3172,65.6756 666.1812,65.6756 Q666.6953,65.6756 667.1437,65.7959 Q667.6031,65.9053 667.9859,66.1568 Z " fill="#000000"/><text fill="#000000" font-family="sans-serif" font-size="9.8" lengthAdjust="spacing" textLength="101.5" x="675.85" y="73.1021">RegisterGreenSpaceUI</text><line style="stroke:#181818;stroke-width:0.3499999999999999;" x1="656.25" x2="778.75" y1="80.2443" y2="80.2443"/><text fill="#000000" font-family="sans-serif" font-size="9.8" lengthAdjust="spacing" textLength="49.7" x="659.75" y="93.6195">-string type</text><text fill="#000000" font-family="sans-serif" font-size="9.8" lengthAdjust="spacing" textLength="55.3" x="659.75" y="106.6543">-string name</text><text fill="#000000" font-family="sans-serif" font-size="9.8" lengthAdjust="spacing" textLength="56" x="659.75" y="119.6891">-string street</text><text fill="#000000" font-family="sans-serif" font-size="9.8" lengthAdjust="spacing" textLength="76.3" x="659.75" y="132.7238">-int streetNumber</text><text fill="#000000" font-family="sans-serif" font-size="9.8" lengthAdjust="spacing" textLength="81.2" x="659.75" y="145.7586">-string postalCode</text><text fill="#000000" font-family="sans-serif" font-size="9.8" lengthAdjust="spacing" textLength="45.5" x="659.75" y="158.7934">-string city</text><text fill="#000000" font-family="sans-serif" font-size="9.8" lengthAdjust="spacing" textLength="59.5" x="659.75" y="171.8281">-string district</text><text fill="#000000" font-family="sans-serif" font-size="9.8" lengthAdjust="spacing" textLength="76.3" x="659.75" y="184.8629">-double totalArea</text><line style="stroke:#181818;stroke-width:0.3499999999999999;" x1="656.25" x2="778.75" y1="190.1225" y2="190.1225"/><text fill="#000000" font-family="sans-serif" font-size="9.8" lengthAdjust="spacing" textLength="114.1" x="659.75" y="203.4977">+RegisterGreenSpaceUI()</text><text fill="#000000" font-family="sans-serif" font-size="9.8" lengthAdjust="spacing" textLength="46.9" x="659.75" y="216.5324">+initialize()</text><text fill="#000000" font-family="sans-serif" font-size="9.8" lengthAdjust="spacing" textLength="98" x="659.75" y="229.5672">-fillGreenSpaceType()</text><text fill="#000000" font-family="sans-serif" font-size="9.8" lengthAdjust="spacing" textLength="15.4" x="659.75" y="242.602">(...)</text></g><!--class RegisterGreenSpaceController--><g id="elem_RegisterGreenSpaceController"><rect codeLine="29" fill="#F1F1F1" height="72.7043" id="RegisterGreenSpaceController" rx="1.75" ry="1.75" style="stroke:#181818;stroke-width:0.3499999999999999;" width="185.5" x="409.15" y="307.7443"/><ellipse cx="431.62" cy="318.9443" fill="#ADD1B2" rx="7.7" ry="7.7" style="stroke:#181818;stroke-width:0.6999999999999998;"/><path d="M433.5559,316.0568 Q433.6653,315.9037 433.7966,315.8271 Q433.9278,315.7506 434.0809,315.7506 Q434.3434,315.7506 434.5075,315.9365 Q434.6716,316.1115 434.6716,316.5381 L434.6716,317.5553 Q434.6716,317.9818 434.5075,318.1678 Q434.3434,318.3537 434.0809,318.3537 Q433.8403,318.3537 433.6981,318.2115 Q433.5559,318.0803 433.4794,317.7193 Q433.4466,317.4678 433.3153,317.3365 Q433.0856,317.074 432.6591,316.9209 Q432.2325,316.7678 431.795,316.7678 Q431.2591,316.7678 430.8106,316.9975 Q430.3731,317.2271 430.0231,317.7521 Q429.6841,318.2771 429.6841,318.999 L429.6841,319.7646 Q429.6841,320.6287 430.3075,321.2084 Q430.9309,321.7771 432.0466,321.7771 Q432.7028,321.7771 433.1622,321.6021 Q433.4356,321.4928 433.7309,321.1865 Q433.9169,321.0006 434.0153,320.9459 Q434.1247,320.8912 434.2669,320.8912 Q434.4966,320.8912 434.6716,321.0771 Q434.8575,321.2521 434.8575,321.4928 Q434.8575,321.7334 434.6169,322.0178 Q434.2669,322.4225 433.7091,322.6521 Q432.9544,322.9693 432.0466,322.9693 Q430.9856,322.9693 430.1434,322.5318 Q429.4544,322.1818 428.9731,321.4381 Q428.4919,320.6834 428.4919,319.7865 L428.4919,318.9771 Q428.4919,318.0475 428.9184,317.249 Q429.3559,316.4396 430.1216,316.0131 Q430.8872,315.5756 431.7512,315.5756 Q432.2653,315.5756 432.7137,315.6959 Q433.1731,315.8053 433.5559,316.0568 Z " fill="#000000"/><text fill="#000000" font-family="sans-serif" font-size="9.8" lengthAdjust="spacing" textLength="136.5" x="444.08" y="323.0021">RegisterGreenSpaceController</text><line style="stroke:#181818;stroke-width:0.3499999999999999;" x1="409.85" x2="593.95" y1="330.1443" y2="330.1443"/><line style="stroke:#181818;stroke-width:0.3499999999999999;" x1="409.85" x2="593.95" y1="335.7443" y2="335.7443"/><text fill="#000000" font-family="sans-serif" font-size="9.8" lengthAdjust="spacing" textLength="149.1" x="413.35" y="349.1195">+RegisterGreenSpaceController()</text><text fill="#000000" font-family="sans-serif" font-size="9.8" lengthAdjust="spacing" textLength="128.1" x="413.35" y="362.1543">-getGreenSpaceRepository()</text><text fill="#000000" font-family="sans-serif" font-size="9.8" lengthAdjust="spacing" textLength="177.1" x="413.35" y="375.1891">+registerGreenSpace(greenSpaceDTO)</text></g><!--class GreenSpaceRepository--><g id="elem_GreenSpaceRepository"><rect codeLine="38" fill="#F1F1F1" height="98.7738" id="GreenSpaceRepository" rx="1.75" ry="1.75" style="stroke:#181818;stroke-width:0.3499999999999999;" width="182.7" x="269.85" y="673.8443"/><ellipse cx="306.425" cy="685.0443" fill="#ADD1B2" rx="7.7" ry="7.7" style="stroke:#181818;stroke-width:0.6999999999999998;"/><path d="M308.3609,682.1568 Q308.4703,682.0037 308.6016,681.9271 Q308.7328,681.8506 308.8859,681.8506 Q309.1484,681.8506 309.3125,682.0365 Q309.4766,682.2115 309.4766,682.6381 L309.4766,683.6553 Q309.4766,684.0818 309.3125,684.2678 Q309.1484,684.4537 308.8859,684.4537 Q308.6453,684.4537 308.5031,684.3115 Q308.3609,684.1803 308.2844,683.8193 Q308.2516,683.5678 308.1203,683.4365 Q307.8906,683.174 307.4641,683.0209 Q307.0375,682.8678 306.6,682.8678 Q306.0641,682.8678 305.6156,683.0975 Q305.1781,683.3271 304.8281,683.8521 Q304.4891,684.3771 304.4891,685.099 L304.4891,685.8646 Q304.4891,686.7287 305.1125,687.3084 Q305.7359,687.8771 306.8516,687.8771 Q307.5078,687.8771 307.9672,687.7021 Q308.2406,687.5928 308.5359,687.2865 Q308.7219,687.1006 308.8203,687.0459 Q308.9297,686.9912 309.0719,686.9912 Q309.3016,686.9912 309.4766,687.1771 Q309.6625,687.3521 309.6625,687.5928 Q309.6625,687.8334 309.4219,688.1178 Q309.0719,688.5225 308.5141,688.7521 Q307.7594,689.0693 306.8516,689.0693 Q305.7906,689.0693 304.9484,688.6318 Q304.2594,688.2818 303.7781,687.5381 Q303.2969,686.7834 303.2969,685.8865 L303.2969,685.0771 Q303.2969,684.1475 303.7234,683.349 Q304.1609,682.5396 304.9266,682.1131 Q305.6922,681.6756 306.5562,681.6756 Q307.0703,681.6756 307.5187,681.7959 Q307.9781,681.9053 308.3609,682.1568 Z " fill="#000000"/><text fill="#000000" font-family="sans-serif" font-size="9.8" lengthAdjust="spacing" textLength="103.6" x="320.775" y="689.1021">GreenSpaceRepository</text><line style="stroke:#181818;stroke-width:0.3499999999999999;" x1="270.55" x2="451.85" y1="696.2443" y2="696.2443"/><text fill="#000000" font-family="sans-serif" font-size="9.8" lengthAdjust="spacing" textLength="158.2" x="274.05" y="709.6195">-List&lt;GreenSpace&gt; greenSpaceList</text><line style="stroke:#181818;stroke-width:0.3499999999999999;" x1="270.55" x2="451.85" y1="714.8791" y2="714.8791"/><text fill="#000000" font-family="sans-serif" font-size="9.8" lengthAdjust="spacing" textLength="116.2" x="274.05" y="728.2543">+GreenSpaceRepository()</text><text fill="#000000" font-family="sans-serif" font-size="9.8" lengthAdjust="spacing" textLength="156.1" x="274.05" y="741.2891">+registerGreenSpace(greenSpace)</text><text fill="#000000" font-family="sans-serif" font-size="9.8" lengthAdjust="spacing" textLength="83.3" x="274.05" y="754.3238">+add(greenSpace)</text><text fill="#000000" font-family="sans-serif" font-size="9.8" lengthAdjust="spacing" textLength="174.3" x="274.05" y="767.3586">-validateGreenSpace(newGreenSpace)</text></g><!--class Repositories--><g id="elem_Repositories"><rect codeLine="47" fill="#F1F1F1" height="72.7043" id="Repositories" rx="1.75" ry="1.75" style="stroke:#181818;stroke-width:0.3499999999999999;" width="138.6" x="259" y="498.8443"/><ellipse cx="297.675" cy="510.0443" fill="#ADD1B2" rx="7.7" ry="7.7" style="stroke:#181818;stroke-width:0.6999999999999998;"/><path d="M299.6109,507.1568 Q299.7203,507.0037 299.8516,506.9271 Q299.9828,506.8506 300.1359,506.8506 Q300.3984,506.8506 300.5625,507.0365 Q300.7266,507.2115 300.7266,507.6381 L300.7266,508.6553 Q300.7266,509.0818 300.5625,509.2678 Q300.3984,509.4537 300.1359,509.4537 Q299.8953,509.4537 299.7531,509.3115 Q299.6109,509.1803 299.5344,508.8193 Q299.5016,508.5678 299.3703,508.4365 Q299.1406,508.174 298.7141,508.0209 Q298.2875,507.8678 297.85,507.8678 Q297.3141,507.8678 296.8656,508.0975 Q296.4281,508.3271 296.0781,508.8521 Q295.7391,509.3771 295.7391,510.099 L295.7391,510.8646 Q295.7391,511.7287 296.3625,512.3084 Q296.9859,512.8771 298.1016,512.8771 Q298.7578,512.8771 299.2172,512.7021 Q299.4906,512.5928 299.7859,512.2865 Q299.9719,512.1006 300.0703,512.0459 Q300.1797,511.9912 300.3219,511.9912 Q300.5516,511.9912 300.7266,512.1771 Q300.9125,512.3521 300.9125,512.5928 Q300.9125,512.8334 300.6719,513.1178 Q300.3219,513.5225 299.7641,513.7521 Q299.0094,514.0693 298.1016,514.0693 Q297.0406,514.0693 296.1984,513.6318 Q295.5094,513.2818 295.0281,512.5381 Q294.5469,511.7834 294.5469,510.8865 L294.5469,510.0771 Q294.5469,509.1475 294.9734,508.349 Q295.4109,507.5396 296.1766,507.1131 Q296.9422,506.6756 297.8062,506.6756 Q298.3203,506.6756 298.7687,506.7959 Q299.2281,506.9053 299.6109,507.1568 Z " fill="#000000"/><text fill="#000000" font-family="sans-serif" font-size="9.8" lengthAdjust="spacing" textLength="55.3" x="312.025" y="514.1021">Repositories</text><line style="stroke:#181818;stroke-width:0.3499999999999999;" x1="259.7" x2="396.9" y1="521.2443" y2="521.2443"/><line style="stroke:#181818;stroke-width:0.3499999999999999;" x1="259.7" x2="396.9" y1="526.8443" y2="526.8443"/><text fill="#000000" font-family="sans-serif" font-size="9.8" lengthAdjust="spacing" textLength="65.8" x="263.2" y="540.2195">-Repositories()</text><text fill="#000000" font-family="sans-serif" font-size="9.8" lengthAdjust="spacing" textLength="127.4" x="263.2" y="553.2543">+getInstance() : Repositories</text><text fill="#000000" font-family="sans-serif" font-size="9.8" lengthAdjust="spacing" textLength="130.2" x="263.2" y="566.2891">+getGreenSpaceRepository()</text></g><!--class ApplicationSession--><g id="elem_ApplicationSession"><rect codeLine="53" fill="#F1F1F1" height="85.7391" id="ApplicationSession" rx="1.75" ry="1.75" style="stroke:#181818;stroke-width:0.3499999999999999;" width="163.8" x="15.4" y="492.5443"/><ellipse cx="52.675" cy="503.7443" fill="#ADD1B2" rx="7.7" ry="7.7" style="stroke:#181818;stroke-width:0.6999999999999998;"/><path d="M54.6109,500.8568 Q54.7203,500.7037 54.8516,500.6271 Q54.9828,500.5506 55.1359,500.5506 Q55.3984,500.5506 55.5625,500.7365 Q55.7266,500.9115 55.7266,501.3381 L55.7266,502.3553 Q55.7266,502.7818 55.5625,502.9678 Q55.3984,503.1537 55.1359,503.1537 Q54.8953,503.1537 54.7531,503.0115 Q54.6109,502.8803 54.5344,502.5193 Q54.5016,502.2678 54.3703,502.1365 Q54.1406,501.874 53.7141,501.7209 Q53.2875,501.5678 52.85,501.5678 Q52.3141,501.5678 51.8656,501.7975 Q51.4281,502.0271 51.0781,502.5521 Q50.7391,503.0771 50.7391,503.799 L50.7391,504.5646 Q50.7391,505.4287 51.3625,506.0084 Q51.9859,506.5771 53.1016,506.5771 Q53.7578,506.5771 54.2172,506.4021 Q54.4906,506.2928 54.7859,505.9865 Q54.9719,505.8006 55.0703,505.7459 Q55.1797,505.6912 55.3219,505.6912 Q55.5516,505.6912 55.7266,505.8771 Q55.9125,506.0521 55.9125,506.2928 Q55.9125,506.5334 55.6719,506.8178 Q55.3219,507.2225 54.7641,507.4521 Q54.0094,507.7693 53.1016,507.7693 Q52.0406,507.7693 51.1984,507.3318 Q50.5094,506.9818 50.0281,506.2381 Q49.5469,505.4834 49.5469,504.5865 L49.5469,503.7771 Q49.5469,502.8475 49.9734,502.049 Q50.4109,501.2396 51.1766,500.8131 Q51.9422,500.3756 52.8062,500.3756 Q53.3203,500.3756 53.7687,500.4959 Q54.2281,500.6053 54.6109,500.8568 Z " fill="#000000"/><text fill="#000000" font-family="sans-serif" font-size="9.8" lengthAdjust="spacing" textLength="83.3" x="67.025" y="507.8021">ApplicationSession</text><line style="stroke:#181818;stroke-width:0.3499999999999999;" x1="16.1" x2="178.5" y1="514.9443" y2="514.9443"/><line style="stroke:#181818;stroke-width:0.3499999999999999;" x1="16.1" x2="178.5" y1="520.5443" y2="520.5443"/><text fill="#000000" font-family="sans-serif" font-size="9.8" lengthAdjust="spacing" textLength="93.8" x="19.6" y="533.9195">-ApplicationSession()</text><text fill="#000000" font-family="sans-serif" font-size="9.8" lengthAdjust="spacing" textLength="155.4" x="19.6" y="546.9543">+getInstance() : ApplicationSession</text><text fill="#000000" font-family="sans-serif" font-size="9.8" lengthAdjust="spacing" textLength="137.2" x="19.6" y="559.9891">+getAuthenticationRepository()</text><text fill="#000000" font-family="sans-serif" font-size="9.8" lengthAdjust="spacing" textLength="95.2" x="19.6" y="573.0238">+getCurrentSession()</text></g><!--class UserSession--><g id="elem_UserSession"><rect codeLine="61" fill="#F1F1F1" height="46.6348" id="UserSession" rx="1.75" ry="1.75" style="stroke:#181818;stroke-width:0.3499999999999999;" width="79.1" x="57.75" y="699.7443"/><ellipse cx="68.88" cy="710.9443" fill="#ADD1B2" rx="7.7" ry="7.7" style="stroke:#181818;stroke-width:0.6999999999999998;"/><path d="M70.8159,708.0568 Q70.9253,707.9037 71.0566,707.8271 Q71.1878,707.7506 71.3409,707.7506 Q71.6034,707.7506 71.7675,707.9365 Q71.9316,708.1115 71.9316,708.5381 L71.9316,709.5553 Q71.9316,709.9818 71.7675,710.1678 Q71.6034,710.3537 71.3409,710.3537 Q71.1003,710.3537 70.9581,710.2115 Q70.8159,710.0803 70.7394,709.7193 Q70.7066,709.4678 70.5753,709.3365 Q70.3456,709.074 69.9191,708.9209 Q69.4925,708.7678 69.055,708.7678 Q68.5191,708.7678 68.0706,708.9975 Q67.6331,709.2271 67.2831,709.7521 Q66.9441,710.2771 66.9441,710.999 L66.9441,711.7646 Q66.9441,712.6287 67.5675,713.2084 Q68.1909,713.7771 69.3066,713.7771 Q69.9628,713.7771 70.4222,713.6021 Q70.6956,713.4928 70.9909,713.1865 Q71.1769,713.0006 71.2753,712.9459 Q71.3847,712.8912 71.5269,712.8912 Q71.7566,712.8912 71.9316,713.0771 Q72.1175,713.2521 72.1175,713.4928 Q72.1175,713.7334 71.8769,714.0178 Q71.5269,714.4225 70.9691,714.6521 Q70.2144,714.9693 69.3066,714.9693 Q68.2456,714.9693 67.4034,714.5318 Q66.7144,714.1818 66.2331,713.4381 Q65.7519,712.6834 65.7519,711.7865 L65.7519,710.9771 Q65.7519,710.0475 66.1784,709.249 Q66.6159,708.4396 67.3816,708.0131 Q68.1472,707.5756 69.0112,707.5756 Q69.5253,707.5756 69.9738,707.6959 Q70.4331,707.8053 70.8159,708.0568 Z " fill="#000000"/><text fill="#000000" font-family="sans-serif" font-size="9.8" lengthAdjust="spacing" textLength="55.3" x="78.82" y="715.0021">UserSession</text><line style="stroke:#181818;stroke-width:0.3499999999999999;" x1="58.45" x2="136.15" y1="722.1443" y2="722.1443"/><line style="stroke:#181818;stroke-width:0.3499999999999999;" x1="58.45" x2="136.15" y1="727.7443" y2="727.7443"/><text fill="#000000" font-family="sans-serif" font-size="9.8" lengthAdjust="spacing" textLength="70.7" x="61.95" y="741.1195">+getUserEmail()</text></g><!--class Email--><g id="elem_Email"><rect codeLine="66" fill="#F1F1F1" height="33.6" id="Email" rx="1.75" ry="1.75" style="stroke:#181818;stroke-width:0.3499999999999999;" width="46.2" x="74.2" y="902.7443"/><ellipse cx="84.7" cy="913.9443" fill="#ADD1B2" rx="7.7" ry="7.7" style="stroke:#181818;stroke-width:0.6999999999999998;"/><path d="M86.6359,911.0568 Q86.7453,910.9037 86.8766,910.8271 Q87.0078,910.7506 87.1609,910.7506 Q87.4234,910.7506 87.5875,910.9365 Q87.7516,911.1115 87.7516,911.5381 L87.7516,912.5553 Q87.7516,912.9818 87.5875,913.1678 Q87.4234,913.3537 87.1609,913.3537 Q86.9203,913.3537 86.7781,913.2115 Q86.6359,913.0803 86.5594,912.7193 Q86.5266,912.4678 86.3953,912.3365 Q86.1656,912.074 85.7391,911.9209 Q85.3125,911.7678 84.875,911.7678 Q84.3391,911.7678 83.8906,911.9975 Q83.4531,912.2271 83.1031,912.7521 Q82.7641,913.2771 82.7641,913.999 L82.7641,914.7646 Q82.7641,915.6287 83.3875,916.2084 Q84.0109,916.7771 85.1266,916.7771 Q85.7828,916.7771 86.2422,916.6021 Q86.5156,916.4928 86.8109,916.1865 Q86.9969,916.0006 87.0953,915.9459 Q87.2047,915.8912 87.3469,915.8912 Q87.5766,915.8912 87.7516,916.0771 Q87.9375,916.2521 87.9375,916.4928 Q87.9375,916.7334 87.6969,917.0178 Q87.3469,917.4225 86.7891,917.6521 Q86.0344,917.9693 85.1266,917.9693 Q84.0656,917.9693 83.2234,917.5318 Q82.5344,917.1818 82.0531,916.4381 Q81.5719,915.6834 81.5719,914.7865 L81.5719,913.9771 Q81.5719,913.0475 81.9984,912.249 Q82.4359,911.4396 83.2016,911.0131 Q83.9672,910.5756 84.8312,910.5756 Q85.3453,910.5756 85.7937,910.6959 Q86.2531,910.8053 86.6359,911.0568 Z " fill="#000000"/><text fill="#000000" font-family="sans-serif" font-size="9.8" lengthAdjust="spacing" textLength="23.8" x="94.5" y="918.0021">Email</text><line style="stroke:#181818;stroke-width:0.3499999999999999;" x1="74.9" x2="119.7" y1="925.1443" y2="925.1443"/><line style="stroke:#181818;stroke-width:0.3499999999999999;" x1="74.9" x2="119.7" y1="930.7443" y2="930.7443"/></g><!--class GreenSpace--><g id="elem_GreenSpace"><rect codeLine="74" fill="#F1F1F1" height="150.9129" id="GreenSpace" rx="1.75" ry="1.75" style="stroke:#181818;stroke-width:0.3499999999999999;" width="215.6" x="518.7" y="843.9443"/><ellipse cx="595.525" cy="855.1443" fill="#ADD1B2" rx="7.7" ry="7.7" style="stroke:#181818;stroke-width:0.6999999999999998;"/><path d="M597.4609,852.2568 Q597.5703,852.1037 597.7016,852.0271 Q597.8328,851.9506 597.9859,851.9506 Q598.2484,851.9506 598.4125,852.1365 Q598.5766,852.3115 598.5766,852.7381 L598.5766,853.7553 Q598.5766,854.1818 598.4125,854.3678 Q598.2484,854.5537 597.9859,854.5537 Q597.7453,854.5537 597.6031,854.4115 Q597.4609,854.2803 597.3844,853.9193 Q597.3516,853.6678 597.2203,853.5365 Q596.9906,853.274 596.5641,853.1209 Q596.1375,852.9678 595.7,852.9678 Q595.1641,852.9678 594.7156,853.1975 Q594.2781,853.4271 593.9281,853.9521 Q593.5891,854.4771 593.5891,855.199 L593.5891,855.9646 Q593.5891,856.8287 594.2125,857.4084 Q594.8359,857.9771 595.9516,857.9771 Q596.6078,857.9771 597.0672,857.8021 Q597.3406,857.6928 597.6359,857.3865 Q597.8219,857.2006 597.9203,857.1459 Q598.0297,857.0912 598.1719,857.0912 Q598.4016,857.0912 598.5766,857.2771 Q598.7625,857.4521 598.7625,857.6928 Q598.7625,857.9334 598.5219,858.2178 Q598.1719,858.6225 597.6141,858.8521 Q596.8594,859.1693 595.9516,859.1693 Q594.8906,859.1693 594.0484,858.7318 Q593.3594,858.3818 592.8781,857.6381 Q592.3969,856.8834 592.3969,855.9865 L592.3969,855.1771 Q592.3969,854.2475 592.8234,853.449 Q593.2609,852.6396 594.0266,852.2131 Q594.7922,851.7756 595.6562,851.7756 Q596.1703,851.7756 596.6187,851.8959 Q597.0781,852.0053 597.4609,852.2568 Z " fill="#000000"/><text fill="#000000" font-family="sans-serif" font-size="9.8" lengthAdjust="spacing" textLength="56" x="609.875" y="859.2021">GreenSpace</text><line style="stroke:#181818;stroke-width:0.3499999999999999;" x1="519.4" x2="733.6" y1="866.3443" y2="866.3443"/><text fill="#000000" font-family="sans-serif" font-size="9.8" lengthAdjust="spacing" textLength="103.6" x="522.9" y="879.7195">-GreenSpaceType type</text><text fill="#000000" font-family="sans-serif" font-size="9.8" lengthAdjust="spacing" textLength="56.7" x="522.9" y="892.7543">-String name</text><text fill="#000000" font-family="sans-serif" font-size="9.8" lengthAdjust="spacing" textLength="76.3" x="522.9" y="905.7891">-double totalArea</text><text fill="#000000" font-family="sans-serif" font-size="9.8" lengthAdjust="spacing" textLength="71.4" x="522.9" y="918.8238">-String manager</text><line style="stroke:#181818;stroke-width:0.3499999999999999;" x1="519.4" x2="733.6" y1="924.0834" y2="924.0834"/><text fill="#000000" font-family="sans-serif" font-size="9.8" lengthAdjust="spacing" textLength="207.2" x="522.9" y="937.4586">+GreenSpace(type,name,street, streetNumber,</text><text fill="#000000" font-family="sans-serif" font-size="9.8" lengthAdjust="spacing" textLength="190.4" x="522.9" y="950.4934">postalCode,city,district,totalArea, manager)</text><text fill="#000000" font-family="sans-serif" font-size="9.8" lengthAdjust="spacing" textLength="86.1" x="522.9" y="963.5281">-validateType(type)</text><text fill="#000000" font-family="sans-serif" font-size="9.8" lengthAdjust="spacing" textLength="94.5" x="522.9" y="976.5629">-validateName(name)</text><text fill="#000000" font-family="sans-serif" font-size="9.8" lengthAdjust="spacing" textLength="128.1" x="522.9" y="989.5977">-validateTotalArea(totalArea)</text></g><!--class Address--><g id="elem_Address"><rect codeLine="91" fill="#F1F1F1" height="124.8434" id="Address" rx="1.75" ry="1.75" style="stroke:#181818;stroke-width:0.3499999999999999;" width="258.3" x="497.35" y="1050.4443"/><ellipse cx="605.325" cy="1061.6443" fill="#ADD1B2" rx="7.7" ry="7.7" style="stroke:#181818;stroke-width:0.6999999999999998;"/><path d="M607.2609,1058.7568 Q607.3703,1058.6037 607.5016,1058.5271 Q607.6328,1058.4506 607.7859,1058.4506 Q608.0484,1058.4506 608.2125,1058.6365 Q608.3766,1058.8115 608.3766,1059.2381 L608.3766,1060.2553 Q608.3766,1060.6818 608.2125,1060.8678 Q608.0484,1061.0537 607.7859,1061.0537 Q607.5453,1061.0537 607.4031,1060.9115 Q607.2609,1060.7803 607.1844,1060.4193 Q607.1516,1060.1678 607.0203,1060.0365 Q606.7906,1059.774 606.3641,1059.6209 Q605.9375,1059.4678 605.5,1059.4678 Q604.9641,1059.4678 604.5156,1059.6975 Q604.0781,1059.9271 603.7281,1060.4521 Q603.3891,1060.9771 603.3891,1061.699 L603.3891,1062.4646 Q603.3891,1063.3287 604.0125,1063.9084 Q604.6359,1064.4771 605.7516,1064.4771 Q606.4078,1064.4771 606.8672,1064.3021 Q607.1406,1064.1928 607.4359,1063.8865 Q607.6219,1063.7006 607.7203,1063.6459 Q607.8297,1063.5912 607.9719,1063.5912 Q608.2016,1063.5912 608.3766,1063.7771 Q608.5625,1063.9521 608.5625,1064.1928 Q608.5625,1064.4334 608.3219,1064.7178 Q607.9719,1065.1225 607.4141,1065.3521 Q606.6594,1065.6693 605.7516,1065.6693 Q604.6906,1065.6693 603.8484,1065.2318 Q603.1594,1064.8818 602.6781,1064.1381 Q602.1969,1063.3834 602.1969,1062.4865 L602.1969,1061.6771 Q602.1969,1060.7475 602.6234,1059.949 Q603.0609,1059.1396 603.8266,1058.7131 Q604.5922,1058.2756 605.4562,1058.2756 Q605.9703,1058.2756 606.4187,1058.3959 Q606.8781,1058.5053 607.2609,1058.7568 Z " fill="#000000"/><text fill="#000000" font-family="sans-serif" font-size="9.8" lengthAdjust="spacing" textLength="36.4" x="619.675" y="1065.7021">Address</text><line style="stroke:#181818;stroke-width:0.3499999999999999;" x1="498.05" x2="754.95" y1="1072.8443" y2="1072.8443"/><text fill="#000000" font-family="sans-serif" font-size="9.8" lengthAdjust="spacing" textLength="57.4" x="501.55" y="1086.2195">-String street</text><text fill="#000000" font-family="sans-serif" font-size="9.8" lengthAdjust="spacing" textLength="76.3" x="501.55" y="1099.2543">-int streetNumber</text><text fill="#000000" font-family="sans-serif" font-size="9.8" lengthAdjust="spacing" textLength="82.6" x="501.55" y="1112.2891">-String postalCode</text><text fill="#000000" font-family="sans-serif" font-size="9.8" lengthAdjust="spacing" textLength="46.9" x="501.55" y="1125.3238">-String city</text><text fill="#000000" font-family="sans-serif" font-size="9.8" lengthAdjust="spacing" textLength="60.9" x="501.55" y="1138.3586">-String district</text><line style="stroke:#181818;stroke-width:0.3499999999999999;" x1="498.05" x2="754.95" y1="1143.6182" y2="1143.6182"/><text fill="#000000" font-family="sans-serif" font-size="9.8" lengthAdjust="spacing" textLength="249.9" x="501.55" y="1156.9934">+Address(street, streetNumber, postalCode, city, district)</text><text fill="#000000" font-family="sans-serif" font-size="9.8" lengthAdjust="spacing" textLength="15.4" x="501.55" y="1170.0281">(...)</text></g><!--class GreenSpaceMapper--><g id="elem_GreenSpaceMapper"><rect codeLine="104" fill="#F1F1F1" height="59.6695" id="GreenSpaceMapper" rx="1.75" ry="1.75" style="stroke:#181818;stroke-width:0.3499999999999999;" width="228.9" x="516.25" y="693.4443"/><ellipse cx="582.925" cy="704.6443" fill="#ADD1B2" rx="7.7" ry="7.7" style="stroke:#181818;stroke-width:0.6999999999999998;"/><path d="M584.8609,701.7568 Q584.9703,701.6037 585.1016,701.5271 Q585.2328,701.4506 585.3859,701.4506 Q585.6484,701.4506 585.8125,701.6365 Q585.9766,701.8115 585.9766,702.2381 L585.9766,703.2553 Q585.9766,703.6818 585.8125,703.8678 Q585.6484,704.0537 585.3859,704.0537 Q585.1453,704.0537 585.0031,703.9115 Q584.8609,703.7803 584.7844,703.4193 Q584.7516,703.1678 584.6203,703.0365 Q584.3906,702.774 583.9641,702.6209 Q583.5375,702.4678 583.1,702.4678 Q582.5641,702.4678 582.1156,702.6975 Q581.6781,702.9271 581.3281,703.4521 Q580.9891,703.9771 580.9891,704.699 L580.9891,705.4646 Q580.9891,706.3287 581.6125,706.9084 Q582.2359,707.4771 583.3516,707.4771 Q584.0078,707.4771 584.4672,707.3021 Q584.7406,707.1928 585.0359,706.8865 Q585.2219,706.7006 585.3203,706.6459 Q585.4297,706.5912 585.5719,706.5912 Q585.8016,706.5912 585.9766,706.7771 Q586.1625,706.9521 586.1625,707.1928 Q586.1625,707.4334 585.9219,707.7178 Q585.5719,708.1225 585.0141,708.3521 Q584.2594,708.6693 583.3516,708.6693 Q582.2906,708.6693 581.4484,708.2318 Q580.7594,707.8818 580.2781,707.1381 Q579.7969,706.3834 579.7969,705.4865 L579.7969,704.6771 Q579.7969,703.7475 580.2234,702.949 Q580.6609,702.1396 581.4266,701.7131 Q582.1922,701.2756 583.0562,701.2756 Q583.5703,701.2756 584.0187,701.3959 Q584.4781,701.5053 584.8609,701.7568 Z " fill="#000000"/><text fill="#000000" font-family="sans-serif" font-size="9.8" lengthAdjust="spacing" textLength="89.6" x="597.275" y="708.7021">GreenSpaceMapper</text><line style="stroke:#181818;stroke-width:0.3499999999999999;" x1="516.95" x2="744.45" y1="715.8443" y2="715.8443"/><line style="stroke:#181818;stroke-width:0.3499999999999999;" x1="516.95" x2="744.45" y1="721.4443" y2="721.4443"/><text fill="#000000" font-family="sans-serif" font-size="9.8" lengthAdjust="spacing" textLength="102.2" x="520.45" y="734.8195">+GreenSpaceMapper()</text><text fill="#000000" font-family="sans-serif" font-size="9.8" lengthAdjust="spacing" textLength="220.5" x="520.45" y="747.8543">+toGreenSpace(greenSpaceDTO, managerEmail)</text></g><!--class GreenSpaceDTO--><g id="elem_GreenSpaceDTO"><rect codeLine="112" fill="#F1F1F1" height="163.9477" id="GreenSpaceDTO" rx="1.75" ry="1.75" style="stroke:#181818;stroke-width:0.3499999999999999;" width="399" x="669.2" y="453.3443"/><ellipse cx="827.225" cy="464.5443" fill="#ADD1B2" rx="7.7" ry="7.7" style="stroke:#181818;stroke-width:0.6999999999999998;"/><path d="M829.1609,461.6568 Q829.2703,461.5037 829.4016,461.4271 Q829.5328,461.3506 829.6859,461.3506 Q829.9484,461.3506 830.1125,461.5365 Q830.2766,461.7115 830.2766,462.1381 L830.2766,463.1553 Q830.2766,463.5818 830.1125,463.7678 Q829.9484,463.9537 829.6859,463.9537 Q829.4453,463.9537 829.3031,463.8115 Q829.1609,463.6803 829.0844,463.3193 Q829.0516,463.0678 828.9203,462.9365 Q828.6906,462.674 828.2641,462.5209 Q827.8375,462.3678 827.4,462.3678 Q826.8641,462.3678 826.4156,462.5975 Q825.9781,462.8271 825.6281,463.3521 Q825.2891,463.8771 825.2891,464.599 L825.2891,465.3646 Q825.2891,466.2287 825.9125,466.8084 Q826.5359,467.3771 827.6516,467.3771 Q828.3078,467.3771 828.7672,467.2021 Q829.0406,467.0928 829.3359,466.7865 Q829.5219,466.6006 829.6203,466.5459 Q829.7297,466.4912 829.8719,466.4912 Q830.1016,466.4912 830.2766,466.6771 Q830.4625,466.8521 830.4625,467.0928 Q830.4625,467.3334 830.2219,467.6178 Q829.8719,468.0225 829.3141,468.2521 Q828.5594,468.5693 827.6516,468.5693 Q826.5906,468.5693 825.7484,468.1318 Q825.0594,467.7818 824.5781,467.0381 Q824.0969,466.2834 824.0969,465.3865 L824.0969,464.5771 Q824.0969,463.6475 824.5234,462.849 Q824.9609,462.0396 825.7266,461.6131 Q826.4922,461.1756 827.3562,461.1756 Q827.8703,461.1756 828.3187,461.2959 Q828.7781,461.4053 829.1609,461.6568 Z " fill="#000000"/><text fill="#000000" font-family="sans-serif" font-size="9.8" lengthAdjust="spacing" textLength="77" x="841.575" y="468.6021">GreenSpaceDTO</text><line style="stroke:#181818;stroke-width:0.3499999999999999;" x1="669.9" x2="1067.5" y1="475.7443" y2="475.7443"/><text fill="#000000" font-family="sans-serif" font-size="9.8" lengthAdjust="spacing" textLength="81.9" x="673.4" y="489.1195">public String name</text><text fill="#000000" font-family="sans-serif" font-size="9.8" lengthAdjust="spacing" textLength="105.7" x="673.4" y="502.1543">+GreenSpaceType type</text><text fill="#000000" font-family="sans-serif" font-size="9.8" lengthAdjust="spacing" textLength="79.8" x="673.4" y="515.1891">+Double totalArea</text><text fill="#000000" font-family="sans-serif" font-size="9.8" lengthAdjust="spacing" textLength="59.5" x="673.4" y="528.2238">+String street</text><text fill="#000000" font-family="sans-serif" font-size="9.8" lengthAdjust="spacing" textLength="78.4" x="673.4" y="541.2586">+int streetNumber</text><text fill="#000000" font-family="sans-serif" font-size="9.8" lengthAdjust="spacing" textLength="84.7" x="673.4" y="554.2934">+String postalCode</text><text fill="#000000" font-family="sans-serif" font-size="9.8" lengthAdjust="spacing" textLength="49" x="673.4" y="567.3281">+String city</text><text fill="#000000" font-family="sans-serif" font-size="9.8" lengthAdjust="spacing" textLength="63" x="673.4" y="580.3629">+String district</text><line style="stroke:#181818;stroke-width:0.3499999999999999;" x1="669.9" x2="1067.5" y1="585.6225" y2="585.6225"/><text fill="#000000" font-family="sans-serif" font-size="9.8" lengthAdjust="spacing" textLength="390.6" x="673.4" y="598.9977">+GreenSpaceDTO(name, type, totalArea, street, streetNumber, postalCode, city, district)</text><text fill="#000000" font-family="sans-serif" font-size="9.8" lengthAdjust="spacing" textLength="86.1" x="673.4" y="612.0324">+addressToString()</text></g><!--link RegisterGreenSpaceUI to RegisterGreenSpaceController--><g id="link_RegisterGreenSpaceUI_RegisterGreenSpaceController"><path codeLine="128" d="M655.431,208.1063 C619.101,240.1313 577.4235,276.8688 545.6085,304.9178 " fill="none" id="RegisterGreenSpaceUI-to-RegisterGreenSpaceController" style="stroke:#181818;stroke-width:0.6999999999999998;stroke-dasharray:7.0,7.0;"/><polygon fill="#181818" points="542.458,307.6953,549.0354,305.6293,545.0834,305.3807,545.332,301.4287,542.458,307.6953" style="stroke:#181818;stroke-width:0.6999999999999998;"/></g><!--link RegisterGreenSpaceController to GreenSpaceRepository--><g id="link_RegisterGreenSpaceController_GreenSpaceRepository"><path codeLine="129" d="M497.399,380.5863 C487.662,457.9293 465.5,633.9443 465.5,633.9443 C465.5,633.9443 445.9724,650.5177 421.7384,671.0977 " fill="none" id="RegisterGreenSpaceController-to-GreenSpaceRepository" style="stroke:#181818;stroke-width:0.6999999999999998;stroke-dasharray:7.0,7.0;"/><polygon fill="#181818" points="418.537,673.8163,425.1515,671.8726,421.2048,671.5508,421.5266,667.6041,418.537,673.8163" style="stroke:#181818;stroke-width:0.6999999999999998;"/><text fill="#000000" font-family="sans-serif" font-size="9.1" lengthAdjust="spacing" textLength="91.7" x="492.1" y="539.1142">greenSpaceRepository</text><text fill="#000000" font-family="sans-serif" font-size="9.1" lengthAdjust="spacing" textLength="4.9" x="419.2972" y="666.0372">1</text></g><!--link GreenSpaceRepository to GreenSpace--><g id="link_GreenSpaceRepository_GreenSpace"><path codeLine="130" d="M427.462,772.5863 C456.778,794.1253 488.5334,817.4614 521.0764,841.3734 " fill="none" id="GreenSpaceRepository-to-GreenSpace" style="stroke:#181818;stroke-width:0.6999999999999998;"/><polygon fill="#181818" points="524.461,843.8603,521.0421,837.8736,521.6405,841.7879,517.7262,842.3863,524.461,843.8603" style="stroke:#181818;stroke-width:0.6999999999999998;"/><text fill="#000000" font-family="sans-serif" font-size="9.1" lengthAdjust="spacing" textLength="48.3" x="470.4" y="804.0642">greenSpace</text><text fill="#000000" font-family="sans-serif" font-size="9.1" lengthAdjust="spacing" textLength="4.9" x="429.1426" y="788.12">1</text><text fill="#000000" font-family="sans-serif" font-size="9.1" lengthAdjust="spacing" textLength="3.5" x="513.6633" y="836.0575">*</text></g><!--reverse link GreenSpace to Address--><g id="link_GreenSpace_Address"><path codeLine="131" d="M626.5,1003.6213 C626.5,1021.9053 626.5,1032.8533 626.5,1050.4303 " fill="none" id="GreenSpace-backto-Address" style="stroke:#181818;stroke-width:0.6999999999999998;"/><polygon fill="#181818" points="626.5,995.2213,623.7,999.4213,626.5,1003.6213,629.3,999.4213,626.5,995.2213" style="stroke:#181818;stroke-width:0.6999999999999998;"/><text fill="#000000" font-family="sans-serif" font-size="9.1" lengthAdjust="spacing" textLength="32.2" x="627.2" y="1026.6642">address</text><text fill="#000000" font-family="sans-serif" font-size="9.1" lengthAdjust="spacing" textLength="4.9" x="621.3895" y="1042.482">1</text></g><!--link RegisterGreenSpaceController to Repositories--><g id="link_RegisterGreenSpaceController_Repositories"><path codeLine="132" d="M460.922,380.6493 C447.237,392.6053 435.4,402.9443 435.4,402.9443 C435.4,402.9443 391.9279,456.3586 360.2179,495.3276 " fill="none" id="RegisterGreenSpaceController-to-Repositories" style="stroke:#181818;stroke-width:0.6999999999999998;stroke-dasharray:7.0,7.0;"/><polygon fill="#181818" points="357.567,498.5853,363.7152,495.466,359.7761,495.8706,359.3715,491.9315,357.567,498.5853" style="stroke:#181818;stroke-width:0.6999999999999998;"/><text fill="#000000" font-family="sans-serif" font-size="9.1" lengthAdjust="spacing" textLength="46.9" x="436.1" y="413.4642">repositories</text></g><!--link Repositories to GreenSpaceRepository--><g id="link_Repositories_GreenSpaceRepository"><path codeLine="133" d="M334.607,571.6933 C339.717,600.6803 346.2465,637.6972 351.8885,669.6872 " fill="none" id="Repositories-to-GreenSpaceRepository" style="stroke:#181818;stroke-width:0.6999999999999998;"/><polygon fill="#181818" points="352.618,673.8233,354.2812,667.1328,352.0101,670.3765,348.7663,668.1054,352.618,673.8233" style="stroke:#181818;stroke-width:0.6999999999999998;"/><text fill="#000000" font-family="sans-serif" font-size="9.1" lengthAdjust="spacing" textLength="4.9" x="346.5803" y="666.0449">1</text></g><!--link Repositories to Repositories--><g id="link_Repositories_Repositories"><path codeLine="134" d="M397.635,515.2663 C411.88,517.4083 422.1,524.0653 422.1,535.2443 C422.1,546.4233 416.0333,552.4558 401.7883,554.5978 " fill="none" id="Repositories-to-Repositories" style="stroke:#181818;stroke-width:0.6999999999999998;"/><polygon fill="#181818" points="397.635,555.2223,404.2813,557.0544,401.0961,554.7019,403.4486,551.5167,397.635,555.2223" style="stroke:#181818;stroke-width:0.6999999999999998;"/><text fill="#000000" font-family="sans-serif" font-size="9.1" lengthAdjust="spacing" textLength="34.3" x="426.3" y="539.1142">instance</text></g><!--link RegisterGreenSpaceController to ApplicationSession--><g id="link_RegisterGreenSpaceController_ApplicationSession"><path codeLine="136" d="M409.01,372.9143 C336.189,394.9223 247.1,421.8443 247.1,421.8443 C247.1,421.8443 199.1952,457.8822 156.6492,489.8932 " fill="none" id="RegisterGreenSpaceController-to-ApplicationSession" style="stroke:#181818;stroke-width:0.6999999999999998;stroke-dasharray:7.0,7.0;"/><polygon fill="#181818" points="153.293,492.4183,160.0106,490.8681,156.0898,490.3141,156.6438,486.3932,153.293,492.4183" style="stroke:#181818;stroke-width:0.6999999999999998;"/></g><!--link ApplicationSession to ApplicationSession--><g id="link_ApplicationSession_ApplicationSession"><path codeLine="138" d="M179.389,515.8053 C193.725,518.3953 203.7,524.8773 203.7,535.2443 C203.7,545.6113 197.8581,551.3466 183.5221,553.9366 " fill="none" id="ApplicationSession-to-ApplicationSession" style="stroke:#181818;stroke-width:0.6999999999999998;"/><polygon fill="#181818" points="179.389,554.6833,186.0864,556.3187,182.8332,554.0611,185.0908,550.8079,179.389,554.6833" style="stroke:#181818;stroke-width:0.6999999999999998;"/><text fill="#000000" font-family="sans-serif" font-size="9.1" lengthAdjust="spacing" textLength="34.3" x="207.9" y="539.1142">instance</text></g><!--link ApplicationSession to UserSession--><g id="link_ApplicationSession_UserSession"><path codeLine="139" d="M97.3,578.0423 C97.3,615.6533 97.3,665.1433 97.3,695.3553 " fill="none" id="ApplicationSession-to-UserSession" style="stroke:#181818;stroke-width:0.6999999999999998;"/><polygon fill="#181818" points="97.3,699.5553,100.1,693.2553,97.3,696.0553,94.5,693.2553,97.3,699.5553" style="stroke:#181818;stroke-width:0.6999999999999998;"/><text fill="#000000" font-family="sans-serif" font-size="9.1" lengthAdjust="spacing" textLength="50.4" x="98" y="650.0642">userSession</text><text fill="#000000" font-family="sans-serif" font-size="9.1" lengthAdjust="spacing" textLength="4.9" x="91.933" y="691.8795">1</text></g><!--link UserSession to Email--><g id="link_UserSession_Email"><path codeLine="140" d="M97.3,746.8333 C97.3,786.6913 97.3,863.5933 97.3,898.2923 " fill="none" id="UserSession-to-Email" style="stroke:#181818;stroke-width:0.6999999999999998;stroke-dasharray:7.0,7.0;"/><polygon fill="#181818" points="97.3,902.4923,100.1,896.1923,97.3,898.9923,94.5,896.1923,97.3,902.4923" style="stroke:#181818;stroke-width:0.6999999999999998;"/></g><!--link RegisterGreenSpaceController to GreenSpaceMapper--><g id="link_RegisterGreenSpaceController_GreenSpaceMapper"><path codeLine="141" d="M547.785,380.6423 C573.559,400.7463 600.6,421.8443 600.6,421.8443 C600.6,421.8443 619.8167,613.7632 627.3697,689.2162 " fill="none" id="RegisterGreenSpaceController-to-GreenSpaceMapper" style="stroke:#181818;stroke-width:0.6999999999999998;stroke-dasharray:7.0,7.0;"/><polygon fill="#181818" points="627.788,693.3953,629.9466,686.8478,627.4394,689.9127,624.3744,687.4056,627.788,693.3953" style="stroke:#181818;stroke-width:0.6999999999999998;"/></g><!--link GreenSpaceMapper to GreenSpace--><g id="link_GreenSpaceMapper_GreenSpace"><path codeLine="142" d="M630.07,753.0773 C629.552,777.0873 628.8859,808.0003 628.2069,839.7313 " fill="none" id="GreenSpaceMapper-to-GreenSpace" style="stroke:#181818;stroke-width:0.6999999999999998;stroke-dasharray:7.0,7.0;"/><polygon fill="#181818" points="628.117,843.9303,631.0511,837.6917,628.1919,840.4311,625.4524,837.5719,628.117,843.9303" style="stroke:#181818;stroke-width:0.6999999999999998;"/></g><!--link RegisterGreenSpaceUI to GreenSpaceDTO--><g id="link_RegisterGreenSpaceUI_GreenSpaceDTO"><path codeLine="143" d="M754.873,247.6143 C779.884,310.6563 810.9201,388.8974 834.8181,449.1324 " fill="none" id="RegisterGreenSpaceUI-to-GreenSpaceDTO" style="stroke:#181818;stroke-width:0.6999999999999998;stroke-dasharray:7.0,7.0;"/><polygon fill="#181818" points="836.367,453.0363,836.6463,446.1478,835.0763,449.783,831.441,448.213,836.367,453.0363" style="stroke:#181818;stroke-width:0.6999999999999998;"/></g><!--SRC=[dLRTJzim47_tNs6n1m99AhP7X2fLxOQGDYOHUDkBIKomSEp8SOUwYlzzPpSVTk8KH5gfxTtlldm_t_MqUM6Y9efKk992vizALXHhjQLeqDGaVo4bpVIEKwneheaekGjedaaXNvaeyHFXZQlXJ52zgock9T-P7-Wqe9HAI-HOvPmqpKfhnHwtcjxaKcJi7yKNI3CDAJna5zykS8hN1eOtZ9HWX52R9hv-kC5NLpyaBwXQBl6NZNtm7Y7h5z_HaZMQgcj5gSZ0YeB17c5uKjn0KAZ3fELB1Ab64lYWLBSo9dGhkDrMZrJvq5escl2rB4OkSgPtlgHWvalUkItazX4grXBCLueIAuv35KHd1nqJJ3F2uRnQIVh4E1-Gzr1PguaMYyKPUeDNVtPhARIId5CLFiAv4tJiu9nj8aTHNMwuf7hGtr4uAAQbsdNL0Dt6JgAo_xgv_tt0UJKCNexL48hQaU0dXBmQ04iyX3Ighi3F9zw1I55Cf2d-2-qhYAQEgQ2lrmxkRU1o6vZHfkUmA-ppWOE-4S120TxEyAK76Y0p9VNnLdNDMKuqWoj9cmO-kg1JpMpeANG0hhRwcGhTgWFd2fZrLYd03666_1uQghp4h86HVgy8unxMIlPM0E-UFXi9Sl4nwlH7xjylTtnaa_4HlDCzi282ib0JYaN6PsBS98SvatZp9laZXY6JcBcITACawICbdVSnq-nGC076Ybk85vcW4ulEPzHxjpGvF2rPYa91B_P-WHyPczdCsCmcOpCBZCsuYnm5JyfncrXNIMy-cOizAtwHkZu-58TM7R3xIGiFyfx9MiuDjRvFbgAMiyvy0y37yW3W7jL0DfPFQ1ZFKZQ66n1QEe7-nU7-nJFzYoVzYsVwvzLW-PVO11FiSFbppRL3rv3ZNXvYHrshKV2FmGB-sOZ5ykWsGqSNuWAiJxwU1DS5JCCo84P1B3X9JJOf-3jt_NbU75jydgOcSdiT0DRM_dx2tcAvX6tcR0jFbwRprOsG4w-itGhe_Nm2EmDDPIP6GEf42jcq5JYx0oosmo_aQamozbg-d_FuvgEnO8IQ8Q0FWWk1_WC0]--></g></svg>