<?xml version="1.0" encoding="us-ascii" standalone="no"?><svg xmlns="http://www.w3.org/2000/svg" xmlns:xlink="http://www.w3.org/1999/xlink" contentStyleType="text/css" height="1390.5px" preserveAspectRatio="none" style="width:1696px;height:1390px;background:#FFFFFF;" version="1.1" viewBox="0 0 1696 1390" width="1696.5px" zoomAndPan="magnify"><defs/><g><text fill="#000000" font-family="sans-serif" font-size="12.6" font-weight="bold" lengthAdjust="spacing" textLength="198.9" x="748.575" y="27.0967">US020 - Sequence Diagram (SD)</text><rect fill="#FFFFFF" height="1146.3117" style="stroke:#181818;stroke-width:0.9;" width="9" x="54" y="136.677"/><rect fill="#FFFFFF" height="106.6447" style="stroke:#181818;stroke-width:0.9;" width="9" x="329.4" y="157.6389"/><rect fill="#FFFFFF" height="89.8857" style="stroke:#181818;stroke-width:0.9;" width="9" x="329.4" y="434.1551"/><rect fill="#FFFFFF" height="658.9002" style="stroke:#181818;stroke-width:0.9;" width="9" x="604.8" y="595.9266"/><rect fill="#FFFFFF" height="28.1619" style="stroke:#181818;stroke-width:0.9;" width="9" x="751.05" y="624.0885"/><rect fill="#FFFFFF" height="28.1619" style="stroke:#181818;stroke-width:0.9;" width="9" x="847.35" y="680.4123"/><rect fill="#FFFFFF" height="474.3668" style="stroke:#181818;stroke-width:0.9;" width="9" x="973.35" y="752.298"/><rect fill="none" height="89.2477" style="stroke:#000000;stroke-width:1.35;" width="405" x="9" y="210.3979"/><rect fill="none" height="89.2477" style="stroke:#000000;stroke-width:1.35;" width="405" x="9" y="352.1074"/><line style="stroke:#181818;stroke-width:0.45;stroke-dasharray:5.0,5.0;" x1="58.5" x2="58.5" y1="127.677" y2="1299.1887"/><line style="stroke:#181818;stroke-width:0.45;stroke-dasharray:5.0,5.0;" x1="333.9" x2="333.9" y1="127.677" y2="1299.1887"/><line style="stroke:#181818;stroke-width:0.45;stroke-dasharray:5.0,5.0;" x1="609.3" x2="609.3" y1="193.4684" y2="1299.1887"/><line style="stroke:#181818;stroke-width:0.45;stroke-dasharray:5.0,5.0;" x1="755.1" x2="755.1" y1="127.677" y2="1299.1887"/><line style="stroke:#181818;stroke-width:0.45;stroke-dasharray:5.0,5.0;" x1="851.4" x2="851.4" y1="127.677" y2="1299.1887"/><line style="stroke:#181818;stroke-width:0.45;stroke-dasharray:5.0,5.0;" x1="977.4" x2="977.4" y1="127.677" y2="1299.1887"/><line style="stroke:#181818;stroke-width:0.45;stroke-dasharray:5.0,5.0;" x1="1289.25" x2="1289.25" y1="790.36" y2="1299.1887"/><line style="stroke:#181818;stroke-width:0.45;stroke-dasharray:5.0,5.0;" x1="1503.45" x2="1503.45" y1="873.9457" y2="1299.1887"/><text fill="#000000" font-family="sans-serif" font-size="12.6" lengthAdjust="spacing" textLength="75.6" x="18" y="107.7557">Green Space</text><text fill="#000000" font-family="sans-serif" font-size="12.6" lengthAdjust="spacing" textLength="50.4" x="30.6" y="124.5146">Manager</text><ellipse cx="58.5" cy="47.809" fill="#E3E3E3" rx="7.2" ry="7.2" style="stroke:#181818;stroke-width:0.45;"/><path d="M58.5,55.009 L58.5,79.309 M46.8,62.209 L70.2,62.209 M58.5,79.309 L46.8,92.809 M58.5,79.309 L70.2,92.809 " fill="none" style="stroke:#181818;stroke-width:0.45;"/><text fill="#000000" font-family="sans-serif" font-size="12.6" lengthAdjust="spacing" textLength="75.6" x="18" y="1311.8854">Green Space</text><text fill="#000000" font-family="sans-serif" font-size="12.6" lengthAdjust="spacing" textLength="50.4" x="30.6" y="1328.6443">Manager</text><ellipse cx="58.5" cy="1339.4566" fill="#E3E3E3" rx="7.2" ry="7.2" style="stroke:#181818;stroke-width:0.45;"/><path d="M58.5,1346.6566 L58.5,1370.9566 M46.8,1353.8566 L70.2,1353.8566 M58.5,1370.9566 L46.8,1384.4566 M58.5,1370.9566 L70.2,1384.4566 " fill="none" style="stroke:#181818;stroke-width:0.45;"/><rect fill="#E3E3E3" height="29.359" rx="2.25" ry="2.25" style="stroke:#181818;stroke-width:0.45;" width="142.2" x="262.8" y="97.418"/><text fill="#000000" font-family="sans-serif" font-size="12.6" lengthAdjust="spacing" textLength="129.6" x="269.1" y="117.3146">:registerGreenSpaceUI</text><rect fill="#E3E3E3" height="29.359" rx="2.25" ry="2.25" style="stroke:#181818;stroke-width:0.45;" width="142.2" x="262.8" y="1298.2887"/><text fill="#000000" font-family="sans-serif" font-size="12.6" lengthAdjust="spacing" textLength="129.6" x="269.1" y="1318.1854">:registerGreenSpaceUI</text><rect fill="#E3E3E3" height="29.359" rx="2.25" ry="2.25" style="stroke:#181818;stroke-width:0.45;" width="187.2" x="515.7" y="1298.2887"/><text fill="#000000" font-family="sans-serif" font-size="12.6" lengthAdjust="spacing" textLength="174.6" x="522" y="1318.1854">:registerGreenSpaceController</text><rect fill="#E3E3E3" height="29.359" rx="2.25" ry="2.25" style="stroke:#181818;stroke-width:0.45;" width="87.3" x="711.9" y="97.418"/><text fill="#000000" font-family="sans-serif" font-size="12.6" lengthAdjust="spacing" textLength="74.7" x="718.2" y="117.3146">:Repositories</text><rect fill="#E3E3E3" height="29.359" rx="2.25" ry="2.25" style="stroke:#181818;stroke-width:0.45;" width="87.3" x="711.9" y="1298.2887"/><text fill="#000000" font-family="sans-serif" font-size="12.6" lengthAdjust="spacing" textLength="74.7" x="718.2" y="1318.1854">:Repositories</text><rect fill="#E3E3E3" height="46.118" rx="2.25" ry="2.25" style="stroke:#181818;stroke-width:0.45;" width="87.3" x="808.2" y="80.659"/><text fill="#000000" font-family="sans-serif" font-size="12.6" lengthAdjust="spacing" textLength="66.6" x="818.55" y="100.5557">repositories</text><text fill="#000000" font-family="sans-serif" font-size="12.6" lengthAdjust="spacing" textLength="74.7" x="814.5" y="117.3146">:Repositories</text><rect fill="#E3E3E3" height="46.118" rx="2.25" ry="2.25" style="stroke:#181818;stroke-width:0.45;" width="87.3" x="808.2" y="1298.2887"/><text fill="#000000" font-family="sans-serif" font-size="12.6" lengthAdjust="spacing" textLength="66.6" x="818.55" y="1318.1854">repositories</text><text fill="#000000" font-family="sans-serif" font-size="12.6" lengthAdjust="spacing" textLength="74.7" x="814.5" y="1334.9443">:Repositories</text><rect fill="#E3E3E3" height="29.359" rx="2.25" ry="2.25" style="stroke:#181818;stroke-width:0.45;" width="146.7" x="904.5" y="97.418"/><text fill="#000000" font-family="sans-serif" font-size="12.6" lengthAdjust="spacing" textLength="134.1" x="910.8" y="117.3146">:greenSpaceRepository</text><rect fill="#E3E3E3" height="29.359" rx="2.25" ry="2.25" style="stroke:#181818;stroke-width:0.45;" width="146.7" x="904.5" y="1298.2887"/><text fill="#000000" font-family="sans-serif" font-size="12.6" lengthAdjust="spacing" textLength="134.1" x="910.8" y="1318.1854">:greenSpaceRepository</text><rect fill="#E3E3E3" height="29.359" rx="2.25" ry="2.25" style="stroke:#181818;stroke-width:0.45;" width="88.2" x="1245.15" y="1298.2887"/><text fill="#000000" font-family="sans-serif" font-size="12.6" lengthAdjust="spacing" textLength="75.6" x="1251.45" y="1318.1854">:GreenSpace</text><rect fill="#E3E3E3" height="29.359" rx="2.25" ry="2.25" style="stroke:#181818;stroke-width:0.45;" width="63" x="1471.95" y="1298.2887"/><text fill="#000000" font-family="sans-serif" font-size="12.6" lengthAdjust="spacing" textLength="50.4" x="1478.25" y="1318.1854">:Address</text><rect fill="#FFFFFF" height="1146.3117" style="stroke:#181818;stroke-width:0.9;" width="9" x="54" y="136.677"/><rect fill="#FFFFFF" height="106.6447" style="stroke:#181818;stroke-width:0.9;" width="9" x="329.4" y="157.6389"/><rect fill="#FFFFFF" height="89.8857" style="stroke:#181818;stroke-width:0.9;" width="9" x="329.4" y="434.1551"/><rect fill="#FFFFFF" height="658.9002" style="stroke:#181818;stroke-width:0.9;" width="9" x="604.8" y="595.9266"/><rect fill="#FFFFFF" height="28.1619" style="stroke:#181818;stroke-width:0.9;" width="9" x="751.05" y="624.0885"/><rect fill="#FFFFFF" height="28.1619" style="stroke:#181818;stroke-width:0.9;" width="9" x="847.35" y="680.4123"/><rect fill="#FFFFFF" height="474.3668" style="stroke:#181818;stroke-width:0.9;" width="9" x="973.35" y="752.298"/><polygon fill="#181818" points="318.6,154.0389,327.6,157.6389,318.6,161.2389,322.2,157.6389" style="stroke:#181818;stroke-width:0.9;"/><line style="stroke:#181818;stroke-width:0.9;" x1="63" x2="324" y1="157.6389" y2="157.6389"/><text fill="#000000" font-family="sans-serif" font-size="11.7" font-weight="bold" lengthAdjust="spacing" textLength="6.3" x="69.3" y="152.9024">1</text><text fill="#000000" font-family="sans-serif" font-size="11.7" lengthAdjust="spacing" textLength="180.9" x="79.2" y="152.9024">asks to create a new Green Space</text><polygon fill="#181818" points="504.9,182.2008,513.9,185.8008,504.9,189.4008,508.5,185.8008" style="stroke:#181818;stroke-width:0.9;"/><line style="stroke:#181818;stroke-width:0.9;stroke-dasharray:2.0,2.0;" x1="338.4" x2="510.3" y1="185.8008" y2="185.8008"/><text fill="#000000" font-family="sans-serif" font-size="11.7" font-weight="bold" lengthAdjust="spacing" textLength="6.3" x="344.7" y="181.0644">2</text><text fill="#000000" font-family="sans-serif" font-size="11.7" lengthAdjust="spacing" textLength="32.4" x="354.6" y="181.0644">create</text><rect fill="#E3E3E3" height="29.359" rx="2.25" ry="2.25" style="stroke:#181818;stroke-width:0.45;" width="187.2" x="515.7" y="164.8389"/><text fill="#000000" font-family="sans-serif" font-size="12.6" lengthAdjust="spacing" textLength="174.6" x="522" y="184.7355">:registerGreenSpaceController</text><path d="M9,210.3979 L74.7,210.3979 L74.7,218.7598 L65.7,227.7598 L9,227.7598 L9,210.3979 " fill="#EEEEEE" style="stroke:#000000;stroke-width:1.35;"/><rect fill="none" height="89.2477" style="stroke:#000000;stroke-width:1.35;" width="405" x="9" y="210.3979"/><text fill="#000000" font-family="sans-serif" font-size="11.7" font-weight="bold" lengthAdjust="spacing" textLength="25.2" x="22.5" y="223.9233">loop</text><text fill="#000000" font-family="sans-serif" font-size="9.9" font-weight="bold" lengthAdjust="spacing" textLength="156.6" x="88.2" y="222.881">[until selected data is validated]</text><polygon fill="#181818" points="72.9,260.6836,63.9,264.2836,72.9,267.8836,69.3,264.2836" style="stroke:#181818;stroke-width:0.9;"/><line style="stroke:#181818;stroke-width:0.9;stroke-dasharray:2.0,2.0;" x1="67.5" x2="333" y1="264.2836" y2="264.2836"/><text fill="#000000" font-family="sans-serif" font-size="11.7" font-weight="bold" lengthAdjust="spacing" textLength="6.3" x="78.3" y="251.7662">3</text><text fill="#000000" font-family="sans-serif" font-size="11.7" lengthAdjust="spacing" textLength="234.9" x="88.2" y="243.9853">Displays the types of green spaces and asks</text><text fill="#000000" font-family="sans-serif" font-size="11.7" lengthAdjust="spacing" textLength="194.4" x="88.2" y="259.5472">to select one (garden, medium, large)</text><polygon fill="#181818" points="323.1,288.8455,332.1,292.4455,323.1,296.0455,326.7,292.4455" style="stroke:#181818;stroke-width:0.9;"/><line style="stroke:#181818;stroke-width:0.9;" x1="63" x2="328.5" y1="292.4455" y2="292.4455"/><text fill="#000000" font-family="sans-serif" font-size="11.7" font-weight="bold" lengthAdjust="spacing" textLength="6.3" x="69.3" y="287.7091">4</text><text fill="#000000" font-family="sans-serif" font-size="11.7" lengthAdjust="spacing" textLength="144" x="79.2" y="287.7091">selects type of green space</text><line style="stroke:#181818;stroke-width:0.9;stroke-dasharray:2.0,2.0;" x1="333.9" x2="371.7" y1="326.9074" y2="326.9074"/><line style="stroke:#181818;stroke-width:0.9;stroke-dasharray:2.0,2.0;" x1="371.7" x2="371.7" y1="326.9074" y2="338.6074"/><line style="stroke:#181818;stroke-width:0.9;stroke-dasharray:2.0,2.0;" x1="334.8" x2="371.7" y1="338.6074" y2="338.6074"/><polygon fill="#181818" points="343.8,335.0074,334.8,338.6074,343.8,342.2074,340.2,338.6074" style="stroke:#181818;stroke-width:0.9;"/><text fill="#000000" font-family="sans-serif" font-size="11.7" font-weight="bold" lengthAdjust="spacing" textLength="6.3" x="340.2" y="322.171">5</text><text fill="#000000" font-family="sans-serif" font-size="11.7" lengthAdjust="spacing" textLength="79.2" x="350.1" y="322.171">keepData(type)</text><path d="M9,352.1074 L74.7,352.1074 L74.7,360.4693 L65.7,369.4693 L9,369.4693 L9,352.1074 " fill="#EEEEEE" style="stroke:#000000;stroke-width:1.35;"/><rect fill="none" height="89.2477" style="stroke:#000000;stroke-width:1.35;" width="405" x="9" y="352.1074"/><text fill="#000000" font-family="sans-serif" font-size="11.7" font-weight="bold" lengthAdjust="spacing" textLength="25.2" x="22.5" y="365.6329">loop</text><text fill="#000000" font-family="sans-serif" font-size="9.9" font-weight="bold" lengthAdjust="spacing" textLength="141.3" x="88.2" y="364.5905">[until typed data is validated]</text><polygon fill="#181818" points="72.9,402.3932,63.9,405.9932,72.9,409.5932,69.3,405.9932" style="stroke:#181818;stroke-width:0.9;"/><line style="stroke:#181818;stroke-width:0.9;stroke-dasharray:2.0,2.0;" x1="67.5" x2="333" y1="405.9932" y2="405.9932"/><text fill="#000000" font-family="sans-serif" font-size="11.7" font-weight="bold" lengthAdjust="spacing" textLength="6.3" x="78.3" y="393.4758">6</text><text fill="#000000" font-family="sans-serif" font-size="11.7" lengthAdjust="spacing" textLength="188.1" x="88.2" y="385.6948">requests data (name, streetNumber,</text><text fill="#000000" font-family="sans-serif" font-size="11.7" lengthAdjust="spacing" textLength="184.5" x="88.2" y="401.2567">postalCode, city, district, totalArea)</text><polygon fill="#181818" points="318.6,430.5551,327.6,434.1551,318.6,437.7551,322.2,434.1551" style="stroke:#181818;stroke-width:0.9;"/><line style="stroke:#181818;stroke-width:0.9;" x1="63" x2="324" y1="434.1551" y2="434.1551"/><text fill="#000000" font-family="sans-serif" font-size="11.7" font-weight="bold" lengthAdjust="spacing" textLength="6.3" x="69.3" y="429.4187">7</text><text fill="#000000" font-family="sans-serif" font-size="11.7" lengthAdjust="spacing" textLength="109.8" x="79.2" y="429.4187">types requested data</text><line style="stroke:#181818;stroke-width:0.9;stroke-dasharray:2.0,2.0;" x1="338.4" x2="376.2" y1="484.1789" y2="484.1789"/><line style="stroke:#181818;stroke-width:0.9;stroke-dasharray:2.0,2.0;" x1="376.2" x2="376.2" y1="484.1789" y2="495.8789"/><line style="stroke:#181818;stroke-width:0.9;stroke-dasharray:2.0,2.0;" x1="339.3" x2="376.2" y1="495.8789" y2="495.8789"/><polygon fill="#181818" points="348.3,492.2789,339.3,495.8789,348.3,499.4789,344.7,495.8789" style="stroke:#181818;stroke-width:0.9;"/><text fill="#000000" font-family="sans-serif" font-size="11.7" font-weight="bold" lengthAdjust="spacing" textLength="6.3" x="344.7" y="471.6615">8</text><text fill="#000000" font-family="sans-serif" font-size="11.7" lengthAdjust="spacing" textLength="159.3" x="354.6" y="463.8806">keepData(name,streetNumber,</text><text fill="#000000" font-family="sans-serif" font-size="11.7" lengthAdjust="spacing" textLength="173.7" x="354.6" y="479.4425">postalCode,city,district,totalArea)</text><polygon fill="#181818" points="72.9,520.4408,63.9,524.0408,72.9,527.6408,69.3,524.0408" style="stroke:#181818;stroke-width:0.9;"/><line style="stroke:#181818;stroke-width:0.9;stroke-dasharray:2.0,2.0;" x1="67.5" x2="333" y1="524.0408" y2="524.0408"/><text fill="#000000" font-family="sans-serif" font-size="11.7" font-weight="bold" lengthAdjust="spacing" textLength="6.3" x="78.3" y="519.3044">9</text><text fill="#000000" font-family="sans-serif" font-size="11.7" lengthAdjust="spacing" textLength="212.4" x="88.2" y="519.3044">shows all data and requests confirmation</text><polygon fill="#181818" points="318.6,548.6027,327.6,552.2027,318.6,555.8027,322.2,552.2027" style="stroke:#181818;stroke-width:0.9;"/><line style="stroke:#181818;stroke-width:0.9;" x1="63" x2="324" y1="552.2027" y2="552.2027"/><text fill="#000000" font-family="sans-serif" font-size="11.7" font-weight="bold" lengthAdjust="spacing" textLength="12.6" x="69.3" y="547.4663">10</text><text fill="#000000" font-family="sans-serif" font-size="11.7" lengthAdjust="spacing" textLength="70.2" x="85.5" y="547.4663">confirms data</text><polygon fill="#181818" points="594,592.3266,603,595.9266,594,599.5266,597.6,595.9266" style="stroke:#181818;stroke-width:0.9;"/><line style="stroke:#181818;stroke-width:0.9;stroke-dasharray:2.0,2.0;" x1="338.4" x2="599.4" y1="595.9266" y2="595.9266"/><text fill="#000000" font-family="sans-serif" font-size="11.7" font-weight="bold" lengthAdjust="spacing" textLength="12.6" x="344.7" y="583.4092">11</text><text fill="#000000" font-family="sans-serif" font-size="11.7" lengthAdjust="spacing" textLength="233.1" x="360.9" y="575.6282">createGreenSpace(type,name,streetNumber,</text><text fill="#000000" font-family="sans-serif" font-size="11.7" lengthAdjust="spacing" textLength="173.7" x="360.9" y="591.1901">postalCode,city,district,totalArea)</text><polygon fill="#181818" points="740.25,620.4885,749.25,624.0885,740.25,627.6885,743.85,624.0885" style="stroke:#181818;stroke-width:0.9;"/><line style="stroke:#181818;stroke-width:0.9;stroke-dasharray:2.0,2.0;" x1="613.8" x2="745.65" y1="624.0885" y2="624.0885"/><text fill="#000000" font-family="sans-serif" font-size="11.7" font-weight="bold" lengthAdjust="spacing" textLength="12.6" x="620.1" y="619.3521">12</text><text fill="#000000" font-family="sans-serif" font-size="11.7" lengthAdjust="spacing" textLength="67.5" x="636.3" y="619.3521">getInstance()</text><polygon fill="#181818" points="623.7,648.6504,614.7,652.2504,623.7,655.8504,620.1,652.2504" style="stroke:#181818;stroke-width:0.9;"/><line style="stroke:#181818;stroke-width:0.9;stroke-dasharray:2.0,2.0;" x1="618.3" x2="754.65" y1="652.2504" y2="652.2504"/><text fill="#000000" font-family="sans-serif" font-size="11.7" font-weight="bold" lengthAdjust="spacing" textLength="12.6" x="629.1" y="647.514">13</text><text fill="#000000" font-family="sans-serif" font-size="11.7" lengthAdjust="spacing" textLength="60.3" x="645.3" y="647.514">repositories</text><polygon fill="#181818" points="836.55,676.8123,845.55,680.4123,836.55,684.0123,840.15,680.4123" style="stroke:#181818;stroke-width:0.9;"/><line style="stroke:#181818;stroke-width:0.9;stroke-dasharray:2.0,2.0;" x1="613.8" x2="841.95" y1="680.4123" y2="680.4123"/><text fill="#000000" font-family="sans-serif" font-size="11.7" font-weight="bold" lengthAdjust="spacing" textLength="12.6" x="620.1" y="675.6759">14</text><text fill="#000000" font-family="sans-serif" font-size="11.7" lengthAdjust="spacing" textLength="144" x="636.3" y="675.6759">getGreenSpaceRepository()</text><polygon fill="#181818" points="623.7,704.9742,614.7,708.5742,623.7,712.1742,620.1,708.5742" style="stroke:#181818;stroke-width:0.9;"/><line style="stroke:#181818;stroke-width:0.9;stroke-dasharray:2.0,2.0;" x1="618.3" x2="850.95" y1="708.5742" y2="708.5742"/><text fill="#000000" font-family="sans-serif" font-size="11.7" font-weight="bold" lengthAdjust="spacing" textLength="12.6" x="629.1" y="703.8378">15</text><text fill="#000000" font-family="sans-serif" font-size="11.7" lengthAdjust="spacing" textLength="117.9" x="645.3" y="703.8378">greenSpaceRepository</text><polygon fill="#181818" points="962.55,748.698,971.55,752.298,962.55,755.898,966.15,752.298" style="stroke:#181818;stroke-width:0.9;"/><line style="stroke:#181818;stroke-width:0.9;stroke-dasharray:2.0,2.0;" x1="613.8" x2="967.95" y1="752.298" y2="752.298"/><text fill="#000000" font-family="sans-serif" font-size="11.7" font-weight="bold" lengthAdjust="spacing" textLength="12.6" x="620.1" y="739.7807">16</text><text fill="#000000" font-family="sans-serif" font-size="11.7" lengthAdjust="spacing" textLength="233.1" x="636.3" y="731.9997">createGreenSpace(type,name,streetNumber,</text><text fill="#000000" font-family="sans-serif" font-size="11.7" lengthAdjust="spacing" textLength="173.7" x="636.3" y="747.5616">postalCode,city,district,totalArea)</text><polygon fill="#181818" points="1234.35,792.4219,1243.35,796.0219,1234.35,799.6219,1237.95,796.0219" style="stroke:#181818;stroke-width:0.9;"/><line style="stroke:#181818;stroke-width:0.9;stroke-dasharray:2.0,2.0;" x1="982.35" x2="1239.75" y1="796.0219" y2="796.0219"/><text fill="#000000" font-family="sans-serif" font-size="11.7" font-weight="bold" lengthAdjust="spacing" textLength="12.6" x="988.65" y="783.5045">17</text><text fill="#000000" font-family="sans-serif" font-size="11.7" lengthAdjust="spacing" textLength="225" x="1004.85" y="775.7235">new GreenSpace(type,name,streetNumber,</text><text fill="#000000" font-family="sans-serif" font-size="11.7" lengthAdjust="spacing" textLength="173.7" x="1004.85" y="791.2854">postalCode,city,district,totalArea)</text><rect fill="#E3E3E3" height="29.359" rx="2.25" ry="2.25" style="stroke:#181818;stroke-width:0.45;" width="88.2" x="1245.15" y="763.9629"/><text fill="#000000" font-family="sans-serif" font-size="12.6" lengthAdjust="spacing" textLength="75.6" x="1251.45" y="783.8596">:GreenSpace</text><line style="stroke:#181818;stroke-width:0.9;stroke-dasharray:2.0,2.0;" x1="1289.25" x2="1327.05" y1="824.1838" y2="824.1838"/><line style="stroke:#181818;stroke-width:0.9;stroke-dasharray:2.0,2.0;" x1="1327.05" x2="1327.05" y1="824.1838" y2="835.8838"/><line style="stroke:#181818;stroke-width:0.9;stroke-dasharray:2.0,2.0;" x1="1290.15" x2="1327.05" y1="835.8838" y2="835.8838"/><polygon fill="#181818" points="1299.15,832.2838,1290.15,835.8838,1299.15,839.4838,1295.55,835.8838" style="stroke:#181818;stroke-width:0.9;"/><text fill="#000000" font-family="sans-serif" font-size="11.7" font-weight="bold" lengthAdjust="spacing" textLength="12.6" x="1295.55" y="819.4474">18</text><text fill="#000000" font-family="sans-serif" font-size="11.7" lengthAdjust="spacing" textLength="105.3" x="1311.75" y="819.4474">validateName(name)</text><polygon fill="#181818" points="1461.15,876.0076,1470.15,879.6076,1461.15,883.2076,1464.75,879.6076" style="stroke:#181818;stroke-width:0.9;"/><line style="stroke:#181818;stroke-width:0.9;stroke-dasharray:2.0,2.0;" x1="1289.25" x2="1466.55" y1="879.6076" y2="879.6076"/><text fill="#000000" font-family="sans-serif" font-size="11.7" font-weight="bold" lengthAdjust="spacing" textLength="12.6" x="1295.55" y="867.0902">19</text><text fill="#000000" font-family="sans-serif" font-size="11.7" lengthAdjust="spacing" textLength="144.9" x="1311.75" y="859.3093">new Address(streetNumber,</text><text fill="#000000" font-family="sans-serif" font-size="11.7" lengthAdjust="spacing" textLength="123.3" x="1311.75" y="874.8712">postalCode,city,district)</text><rect fill="#E3E3E3" height="29.359" rx="2.25" ry="2.25" style="stroke:#181818;stroke-width:0.45;" width="63" x="1471.95" y="847.5486"/><text fill="#000000" font-family="sans-serif" font-size="12.6" lengthAdjust="spacing" textLength="50.4" x="1478.25" y="867.4453">:Address</text><line style="stroke:#181818;stroke-width:0.9;stroke-dasharray:2.0,2.0;" x1="1503.45" x2="1541.25" y1="907.7695" y2="907.7695"/><line style="stroke:#181818;stroke-width:0.9;stroke-dasharray:2.0,2.0;" x1="1541.25" x2="1541.25" y1="907.7695" y2="919.4695"/><line style="stroke:#181818;stroke-width:0.9;stroke-dasharray:2.0,2.0;" x1="1504.35" x2="1541.25" y1="919.4695" y2="919.4695"/><polygon fill="#181818" points="1513.35,915.8695,1504.35,919.4695,1513.35,923.0695,1509.75,919.4695" style="stroke:#181818;stroke-width:0.9;"/><text fill="#000000" font-family="sans-serif" font-size="11.7" font-weight="bold" lengthAdjust="spacing" textLength="12.6" x="1509.75" y="903.0331">20</text><text fill="#000000" font-family="sans-serif" font-size="11.7" lengthAdjust="spacing" textLength="107.1" x="1525.95" y="903.0331">validateStreet(street)</text><line style="stroke:#181818;stroke-width:0.9;stroke-dasharray:2.0,2.0;" x1="1503.45" x2="1541.25" y1="947.6314" y2="947.6314"/><line style="stroke:#181818;stroke-width:0.9;stroke-dasharray:2.0,2.0;" x1="1541.25" x2="1541.25" y1="947.6314" y2="959.3314"/><line style="stroke:#181818;stroke-width:0.9;stroke-dasharray:2.0,2.0;" x1="1504.35" x2="1541.25" y1="959.3314" y2="959.3314"/><polygon fill="#181818" points="1513.35,955.7314,1504.35,959.3314,1513.35,962.9314,1509.75,959.3314" style="stroke:#181818;stroke-width:0.9;"/><text fill="#000000" font-family="sans-serif" font-size="11.7" font-weight="bold" lengthAdjust="spacing" textLength="12.6" x="1509.75" y="942.895">21</text><text fill="#000000" font-family="sans-serif" font-size="11.7" lengthAdjust="spacing" textLength="156.6" x="1525.95" y="942.895">validateStreetNumber(number)</text><line style="stroke:#181818;stroke-width:0.9;stroke-dasharray:2.0,2.0;" x1="1503.45" x2="1541.25" y1="987.4934" y2="987.4934"/><line style="stroke:#181818;stroke-width:0.9;stroke-dasharray:2.0,2.0;" x1="1541.25" x2="1541.25" y1="987.4934" y2="999.1934"/><line style="stroke:#181818;stroke-width:0.9;stroke-dasharray:2.0,2.0;" x1="1504.35" x2="1541.25" y1="999.1934" y2="999.1934"/><polygon fill="#181818" points="1513.35,995.5934,1504.35,999.1934,1513.35,1002.7934,1509.75,999.1934" style="stroke:#181818;stroke-width:0.9;"/><text fill="#000000" font-family="sans-serif" font-size="11.7" font-weight="bold" lengthAdjust="spacing" textLength="12.6" x="1509.75" y="982.7569">22</text><text fill="#000000" font-family="sans-serif" font-size="11.7" lengthAdjust="spacing" textLength="164.7" x="1525.95" y="982.7569">validatePostalCode(postalCode)</text><line style="stroke:#181818;stroke-width:0.9;stroke-dasharray:2.0,2.0;" x1="1503.45" x2="1541.25" y1="1027.3553" y2="1027.3553"/><line style="stroke:#181818;stroke-width:0.9;stroke-dasharray:2.0,2.0;" x1="1541.25" x2="1541.25" y1="1027.3553" y2="1039.0553"/><line style="stroke:#181818;stroke-width:0.9;stroke-dasharray:2.0,2.0;" x1="1504.35" x2="1541.25" y1="1039.0553" y2="1039.0553"/><polygon fill="#181818" points="1513.35,1035.4553,1504.35,1039.0553,1513.35,1042.6553,1509.75,1039.0553" style="stroke:#181818;stroke-width:0.9;"/><text fill="#000000" font-family="sans-serif" font-size="11.7" font-weight="bold" lengthAdjust="spacing" textLength="12.6" x="1509.75" y="1022.6188">23</text><text fill="#000000" font-family="sans-serif" font-size="11.7" lengthAdjust="spacing" textLength="85.5" x="1525.95" y="1022.6188">validateCity(city)</text><line style="stroke:#181818;stroke-width:0.9;stroke-dasharray:2.0,2.0;" x1="1503.45" x2="1541.25" y1="1067.2172" y2="1067.2172"/><line style="stroke:#181818;stroke-width:0.9;stroke-dasharray:2.0,2.0;" x1="1541.25" x2="1541.25" y1="1067.2172" y2="1078.9172"/><line style="stroke:#181818;stroke-width:0.9;stroke-dasharray:2.0,2.0;" x1="1504.35" x2="1541.25" y1="1078.9172" y2="1078.9172"/><polygon fill="#181818" points="1513.35,1075.3172,1504.35,1078.9172,1513.35,1082.5172,1509.75,1078.9172" style="stroke:#181818;stroke-width:0.9;"/><text fill="#000000" font-family="sans-serif" font-size="11.7" font-weight="bold" lengthAdjust="spacing" textLength="12.6" x="1509.75" y="1062.4808">24</text><text fill="#000000" font-family="sans-serif" font-size="11.7" lengthAdjust="spacing" textLength="117.9" x="1525.95" y="1062.4808">validateDistrict(district)</text><line style="stroke:#181818;stroke-width:0.9;stroke-dasharray:2.0,2.0;" x1="1289.25" x2="1327.05" y1="1107.0791" y2="1107.0791"/><line style="stroke:#181818;stroke-width:0.9;stroke-dasharray:2.0,2.0;" x1="1327.05" x2="1327.05" y1="1107.0791" y2="1118.7791"/><line style="stroke:#181818;stroke-width:0.9;stroke-dasharray:2.0,2.0;" x1="1290.15" x2="1327.05" y1="1118.7791" y2="1118.7791"/><polygon fill="#181818" points="1299.15,1115.1791,1290.15,1118.7791,1299.15,1122.3791,1295.55,1118.7791" style="stroke:#181818;stroke-width:0.9;"/><text fill="#000000" font-family="sans-serif" font-size="11.7" font-weight="bold" lengthAdjust="spacing" textLength="12.6" x="1295.55" y="1102.3427">25</text><text fill="#000000" font-family="sans-serif" font-size="11.7" lengthAdjust="spacing" textLength="142.2" x="1311.75" y="1102.3427">validateTotalArea(totalArea)</text><line style="stroke:#181818;stroke-width:0.9;stroke-dasharray:2.0,2.0;" x1="982.35" x2="1020.15" y1="1146.941" y2="1146.941"/><line style="stroke:#181818;stroke-width:0.9;stroke-dasharray:2.0,2.0;" x1="1020.15" x2="1020.15" y1="1146.941" y2="1158.641"/><line style="stroke:#181818;stroke-width:0.9;stroke-dasharray:2.0,2.0;" x1="983.25" x2="1020.15" y1="1158.641" y2="1158.641"/><polygon fill="#181818" points="992.25,1155.041,983.25,1158.641,992.25,1162.241,988.65,1158.641" style="stroke:#181818;stroke-width:0.9;"/><text fill="#000000" font-family="sans-serif" font-size="11.7" font-weight="bold" lengthAdjust="spacing" textLength="12.6" x="988.65" y="1142.2046">26</text><text fill="#000000" font-family="sans-serif" font-size="11.7" lengthAdjust="spacing" textLength="111.6" x="1004.85" y="1142.2046">add(newGreenSpace)</text><line style="stroke:#181818;stroke-width:0.9;stroke-dasharray:2.0,2.0;" x1="982.35" x2="1020.15" y1="1186.8029" y2="1186.8029"/><line style="stroke:#181818;stroke-width:0.9;stroke-dasharray:2.0,2.0;" x1="1020.15" x2="1020.15" y1="1186.8029" y2="1198.5029"/><line style="stroke:#181818;stroke-width:0.9;stroke-dasharray:2.0,2.0;" x1="983.25" x2="1020.15" y1="1198.5029" y2="1198.5029"/><polygon fill="#181818" points="992.25,1194.9029,983.25,1198.5029,992.25,1202.1029,988.65,1198.5029" style="stroke:#181818;stroke-width:0.9;"/><text fill="#000000" font-family="sans-serif" font-size="11.7" font-weight="bold" lengthAdjust="spacing" textLength="12.6" x="988.65" y="1182.0665">27</text><text fill="#000000" font-family="sans-serif" font-size="11.7" lengthAdjust="spacing" textLength="196.2" x="1004.85" y="1182.0665">validateGreenSpace(newGreenSpace)</text><polygon fill="#181818" points="623.7,1223.0648,614.7,1226.6648,623.7,1230.2648,620.1,1226.6648" style="stroke:#181818;stroke-width:0.9;"/><line style="stroke:#181818;stroke-width:0.9;stroke-dasharray:2.0,2.0;" x1="618.3" x2="976.95" y1="1226.6648" y2="1226.6648"/><text fill="#000000" font-family="sans-serif" font-size="11.7" font-weight="bold" lengthAdjust="spacing" textLength="12.6" x="629.1" y="1221.9284">28</text><text fill="#000000" font-family="sans-serif" font-size="11.7" lengthAdjust="spacing" textLength="95.4" x="645.3" y="1221.9284">operation success</text><polygon fill="#181818" points="348.3,1251.2268,339.3,1254.8268,348.3,1258.4268,344.7,1254.8268" style="stroke:#181818;stroke-width:0.9;"/><line style="stroke:#181818;stroke-width:0.9;stroke-dasharray:2.0,2.0;" x1="342.9" x2="608.4" y1="1254.8268" y2="1254.8268"/><text fill="#000000" font-family="sans-serif" font-size="11.7" font-weight="bold" lengthAdjust="spacing" textLength="12.6" x="353.7" y="1250.0903">29</text><text fill="#000000" font-family="sans-serif" font-size="11.7" lengthAdjust="spacing" textLength="95.4" x="369.9" y="1250.0903">operation success</text><polygon fill="#181818" points="68.4,1279.3887,59.4,1282.9887,68.4,1286.5887,64.8,1282.9887" style="stroke:#181818;stroke-width:0.9;"/><line style="stroke:#181818;stroke-width:0.9;stroke-dasharray:2.0,2.0;" x1="63" x2="328.5" y1="1282.9887" y2="1282.9887"/><text fill="#000000" font-family="sans-serif" font-size="11.7" font-weight="bold" lengthAdjust="spacing" textLength="12.6" x="73.8" y="1278.2522">30</text><text fill="#000000" font-family="sans-serif" font-size="11.7" lengthAdjust="spacing" textLength="142.2" x="90" y="1278.2522">displays operation success</text><!--SRC=[jLR1JkCm4BtdAqQSKfHAQ8ySLaBj2Y4jB29mwyKR3wdLnCxQ3gX_lsF7TPCqBHNi-fJ6C- -zUHvFOpP2Daop6cebLR7MgaQmkiN4n9s65HjMOcwt5OB6mZ9PLlq0isPSlGjPmYkh32Q95PP2N_AhRrSmXnp_j2WBXALWfOjFy-KiILXhbMphtwZfkR1AmyMjHfIG4o6kv3sJnAelW1cupUyJuhAY40sJ5YwkDPR2MDG-nMUytFdGbxiF8nTAMgsgAe0ldfz-ZdAUi556a2Q1niSy_NZyDOpHlP2LdCwuauRCAd24NaObCMiRodGlHj5xtI5cj7_3kKRJaOPdRwXuOnQzSmdGeWUOVoTxu9eYDmQiWaAZYs4WyHrwvlk4246E-XTkKVgSK9nbbvU4r24abL8DjDAA2WnMr2B8WJFBG1XuOvMWP-HZ4AVecfh2D1NRafurTTwsGGFg5Rn5O9mO0qnoBtabINE73qeYf2NJ76K6DNBHrXbKJ9SuypmS3_Jt7UXGZ2SSyIL8TAwW3rtmI1l4PacbfWvgrdV2lJZR1kqkYI55FZwLhCOCZ2LPzi5VacmbgLSignQAqrOXx3O3JfsjHM4pEatQkg7JEAlypkV06KGUb3lmuMZPNkbneLvdb3bIUU22MQjtEk-gwcnm1n-DAPHy5RfcLYXvJeqXtamNDzNHiP_tLywVQlRL6YEn7pNnjLkUrmbmyu84b6XtKoET3I8ZY9z5WostV7wlalvy6WJtR3j46iZP2UbatKvChLCIu_2Rb1gnUvAdvk8fwTCCiOHkclwtGnqK72RtGQb1GoV7JymuQl-nb3rZO2EktSnv87n_KK-cX3-Fg3ByJiyKDetjLW3ga_J4vHu-i7mDfDEOTbyLduLwZFMb-r8_2xOWXr9dqsS1bi7TzBJDKwV-l6kKz4JB31eqt1V6UKeDiE_Iyz9slBtkFXybZ03LeFOJ7anR5EvJviZzdxfmyURx-NySgWSp7CY3_oA- -p2P1XfekK_-0W00]--></g></svg>