<?xml version="1.0" encoding="us-ascii" standalone="no"?><svg xmlns="http://www.w3.org/2000/svg" xmlns:xlink="http://www.w3.org/1999/xlink" contentStyleType="text/css" height="1150px" preserveAspectRatio="none" style="width:738px;height:1150px;background:#FFFFFF;" version="1.1" viewBox="0 0 738 1150" width="738px" zoomAndPan="magnify"><defs/><g><text fill="#000000" font-family="sans-serif" font-size="14" font-weight="bold" lengthAdjust="spacing" textLength="155" x="284.75" y="25.1074">US020 - Class Diagram</text><!--class GreenSpace--><g id="elem_GreenSpace"><rect codeLine="10" fill="#F1F1F1" height="159.7266" id="GreenSpace" rx="2.5" ry="2.5" style="stroke:#181818;stroke-width:0.5;" width="264" x="304.5" y="744.6211"/><ellipse cx="392.25" cy="760.6211" fill="#ADD1B2" rx="11" ry="11" style="stroke:#181818;stroke-width:1.0;"/><path d="M395.0156,756.4961 Q395.1719,756.2773 395.3594,756.168 Q395.5469,756.0586 395.7656,756.0586 Q396.1406,756.0586 396.375,756.3242 Q396.6094,756.5742 396.6094,757.1836 L396.6094,758.6367 Q396.6094,759.2461 396.375,759.5117 Q396.1406,759.7773 395.7656,759.7773 Q395.4219,759.7773 395.2188,759.5742 Q395.0156,759.3867 394.9063,758.8711 Q394.8594,758.5117 394.6719,758.3242 Q394.3438,757.9492 393.7344,757.7305 Q393.125,757.5117 392.5,757.5117 Q391.7344,757.5117 391.0938,757.8398 Q390.4688,758.168 389.9688,758.918 Q389.4844,759.668 389.4844,760.6992 L389.4844,761.793 Q389.4844,763.0273 390.375,763.8555 Q391.2656,764.668 392.8594,764.668 Q393.7969,764.668 394.4531,764.418 Q394.8438,764.2617 395.2656,763.8242 Q395.5313,763.5586 395.6719,763.4805 Q395.8281,763.4023 396.0313,763.4023 Q396.3594,763.4023 396.6094,763.668 Q396.875,763.918 396.875,764.2617 Q396.875,764.6055 396.5313,765.0117 Q396.0313,765.5898 395.2344,765.918 Q394.1563,766.3711 392.8594,766.3711 Q391.3438,766.3711 390.1406,765.7461 Q389.1563,765.2461 388.4688,764.1836 Q387.7813,763.1055 387.7813,761.8242 L387.7813,760.668 Q387.7813,759.3398 388.3906,758.1992 Q389.0156,757.043 390.1094,756.4336 Q391.2031,755.8086 392.4375,755.8086 Q393.1719,755.8086 393.8125,755.9805 Q394.4688,756.1367 395.0156,756.4961 Z " fill="#000000"/><text fill="#000000" font-family="sans-serif" font-size="14" lengthAdjust="spacing" textLength="80" x="412.75" y="766.418">GreenSpace</text><line style="stroke:#181818;stroke-width:0.5;" x1="305.5" x2="567.5" y1="776.6211" y2="776.6211"/><text fill="#000000" font-family="sans-serif" font-size="14" lengthAdjust="spacing" textLength="148" x="310.5" y="795.7285">-GreenSpaceType type</text><text fill="#000000" font-family="sans-serif" font-size="14" lengthAdjust="spacing" textLength="81" x="310.5" y="814.3496">-String name</text><text fill="#000000" font-family="sans-serif" font-size="14" lengthAdjust="spacing" textLength="112" x="310.5" y="832.9707">-Address address</text><text fill="#000000" font-family="sans-serif" font-size="14" lengthAdjust="spacing" textLength="93" x="310.5" y="851.5918">-float totalArea</text><line style="stroke:#181818;stroke-width:0.5;" x1="305.5" x2="567.5" y1="859.1055" y2="859.1055"/><text fill="#000000" font-family="sans-serif" font-size="14" lengthAdjust="spacing" textLength="252" x="310.5" y="878.2129">+GreenSpace(type,name,streetNumber,</text><text fill="#000000" font-family="sans-serif" font-size="14" lengthAdjust="spacing" textLength="208" x="310.5" y="896.834">postalCode,city,district,totalArea)</text></g><!--class GreenSpaceRepository--><g id="elem_GreenSpaceRepository"><rect codeLine="18" fill="#F1F1F1" height="141.1055" id="GreenSpaceRepository" rx="2.5" ry="2.5" style="stroke:#181818;stroke-width:0.5;" width="512" x="180.5" y="524.6211"/><ellipse cx="358.25" cy="540.6211" fill="#ADD1B2" rx="11" ry="11" style="stroke:#181818;stroke-width:1.0;"/><path d="M361.0156,536.4961 Q361.1719,536.2773 361.3594,536.168 Q361.5469,536.0586 361.7656,536.0586 Q362.1406,536.0586 362.375,536.3242 Q362.6094,536.5742 362.6094,537.1836 L362.6094,538.6367 Q362.6094,539.2461 362.375,539.5117 Q362.1406,539.7773 361.7656,539.7773 Q361.4219,539.7773 361.2188,539.5742 Q361.0156,539.3867 360.9063,538.8711 Q360.8594,538.5117 360.6719,538.3242 Q360.3438,537.9492 359.7344,537.7305 Q359.125,537.5117 358.5,537.5117 Q357.7344,537.5117 357.0938,537.8398 Q356.4688,538.168 355.9688,538.918 Q355.4844,539.668 355.4844,540.6992 L355.4844,541.793 Q355.4844,543.0273 356.375,543.8555 Q357.2656,544.668 358.8594,544.668 Q359.7969,544.668 360.4531,544.418 Q360.8438,544.2617 361.2656,543.8242 Q361.5313,543.5586 361.6719,543.4805 Q361.8281,543.4023 362.0313,543.4023 Q362.3594,543.4023 362.6094,543.668 Q362.875,543.918 362.875,544.2617 Q362.875,544.6055 362.5313,545.0117 Q362.0313,545.5898 361.2344,545.918 Q360.1563,546.3711 358.8594,546.3711 Q357.3438,546.3711 356.1406,545.7461 Q355.1563,545.2461 354.4688,544.1836 Q353.7813,543.1055 353.7813,541.8242 L353.7813,540.668 Q353.7813,539.3398 354.3906,538.1992 Q355.0156,537.043 356.1094,536.4336 Q357.2031,535.8086 358.4375,535.8086 Q359.1719,535.8086 359.8125,535.9805 Q360.4688,536.1367 361.0156,536.4961 Z " fill="#000000"/><text fill="#000000" font-family="sans-serif" font-size="14" lengthAdjust="spacing" textLength="148" x="378.75" y="546.418">GreenSpaceRepository</text><line style="stroke:#181818;stroke-width:0.5;" x1="181.5" x2="691.5" y1="556.6211" y2="556.6211"/><text fill="#000000" font-family="sans-serif" font-size="14" lengthAdjust="spacing" textLength="226" x="186.5" y="575.7285">-List&lt;GreenSpace&gt; greenSpaceList</text><line style="stroke:#181818;stroke-width:0.5;" x1="181.5" x2="691.5" y1="583.2422" y2="583.2422"/><text fill="#000000" font-family="sans-serif" font-size="14" lengthAdjust="spacing" textLength="166" x="186.5" y="602.3496">+GreenSpaceRepository()</text><text fill="#000000" font-family="sans-serif" font-size="14" lengthAdjust="spacing" textLength="147" x="186.5" y="620.9707">+add(newGreenSpace)</text><text fill="#000000" font-family="sans-serif" font-size="14" lengthAdjust="spacing" textLength="249" x="186.5" y="639.5918">-validateGreenSpace(newGreenSpace)</text><text fill="#000000" font-family="sans-serif" font-size="14" lengthAdjust="spacing" textLength="500" x="186.5" y="658.2129">+createGreenSpace(type,name,streetNumber,postalCode,city,district,totalArea)</text></g><!--class Repositories--><g id="elem_Repositories"><rect codeLine="27" fill="#F1F1F1" height="103.8633" id="Repositories" rx="2.5" ry="2.5" style="stroke:#181818;stroke-width:0.5;" width="198" x="213.5" y="359.6211"/><ellipse cx="268.75" cy="375.6211" fill="#ADD1B2" rx="11" ry="11" style="stroke:#181818;stroke-width:1.0;"/><path d="M271.5156,371.4961 Q271.6719,371.2773 271.8594,371.168 Q272.0469,371.0586 272.2656,371.0586 Q272.6406,371.0586 272.875,371.3242 Q273.1094,371.5742 273.1094,372.1836 L273.1094,373.6367 Q273.1094,374.2461 272.875,374.5117 Q272.6406,374.7773 272.2656,374.7773 Q271.9219,374.7773 271.7188,374.5742 Q271.5156,374.3867 271.4063,373.8711 Q271.3594,373.5117 271.1719,373.3242 Q270.8438,372.9492 270.2344,372.7305 Q269.625,372.5117 269,372.5117 Q268.2344,372.5117 267.5938,372.8398 Q266.9688,373.168 266.4688,373.918 Q265.9844,374.668 265.9844,375.6992 L265.9844,376.793 Q265.9844,378.0273 266.875,378.8555 Q267.7656,379.668 269.3594,379.668 Q270.2969,379.668 270.9531,379.418 Q271.3438,379.2617 271.7656,378.8242 Q272.0313,378.5586 272.1719,378.4805 Q272.3281,378.4023 272.5313,378.4023 Q272.8594,378.4023 273.1094,378.668 Q273.375,378.918 273.375,379.2617 Q273.375,379.6055 273.0313,380.0117 Q272.5313,380.5898 271.7344,380.918 Q270.6563,381.3711 269.3594,381.3711 Q267.8438,381.3711 266.6406,380.7461 Q265.6563,380.2461 264.9688,379.1836 Q264.2813,378.1055 264.2813,376.8242 L264.2813,375.668 Q264.2813,374.3398 264.8906,373.1992 Q265.5156,372.043 266.6094,371.4336 Q267.7031,370.8086 268.9375,370.8086 Q269.6719,370.8086 270.3125,370.9805 Q270.9688,371.1367 271.5156,371.4961 Z " fill="#000000"/><text fill="#000000" font-family="sans-serif" font-size="14" lengthAdjust="spacing" textLength="79" x="289.25" y="381.418">Repositories</text><line style="stroke:#181818;stroke-width:0.5;" x1="214.5" x2="410.5" y1="391.6211" y2="391.6211"/><line style="stroke:#181818;stroke-width:0.5;" x1="214.5" x2="410.5" y1="399.6211" y2="399.6211"/><text fill="#000000" font-family="sans-serif" font-size="14" lengthAdjust="spacing" textLength="94" x="219.5" y="418.7285">-Repositories()</text><text fill="#000000" font-family="sans-serif" font-size="14" lengthAdjust="spacing" textLength="182" x="219.5" y="437.3496">+getInstance() : Repositories</text><text fill="#000000" font-family="sans-serif" font-size="14" lengthAdjust="spacing" textLength="186" x="219.5" y="455.9707">+getGreenSpaceRepository()</text></g><!--class RegisterGreenSpaceController--><g id="elem_RegisterGreenSpaceController"><rect codeLine="33" fill="#F1F1F1" height="122.4844" id="RegisterGreenSpaceController" rx="2.5" ry="2.5" style="stroke:#181818;stroke-width:0.5;" width="512" x="219.5" y="102.6211"/><ellipse cx="373.75" cy="118.6211" fill="#ADD1B2" rx="11" ry="11" style="stroke:#181818;stroke-width:1.0;"/><path d="M376.5156,114.4961 Q376.6719,114.2773 376.8594,114.168 Q377.0469,114.0586 377.2656,114.0586 Q377.6406,114.0586 377.875,114.3242 Q378.1094,114.5742 378.1094,115.1836 L378.1094,116.6367 Q378.1094,117.2461 377.875,117.5117 Q377.6406,117.7773 377.2656,117.7773 Q376.9219,117.7773 376.7188,117.5742 Q376.5156,117.3867 376.4063,116.8711 Q376.3594,116.5117 376.1719,116.3242 Q375.8438,115.9492 375.2344,115.7305 Q374.625,115.5117 374,115.5117 Q373.2344,115.5117 372.5938,115.8398 Q371.9688,116.168 371.4688,116.918 Q370.9844,117.668 370.9844,118.6992 L370.9844,119.793 Q370.9844,121.0273 371.875,121.8555 Q372.7656,122.668 374.3594,122.668 Q375.2969,122.668 375.9531,122.418 Q376.3438,122.2617 376.7656,121.8242 Q377.0313,121.5586 377.1719,121.4805 Q377.3281,121.4023 377.5313,121.4023 Q377.8594,121.4023 378.1094,121.668 Q378.375,121.918 378.375,122.2617 Q378.375,122.6055 378.0313,123.0117 Q377.5313,123.5898 376.7344,123.918 Q375.6563,124.3711 374.3594,124.3711 Q372.8438,124.3711 371.6406,123.7461 Q370.6563,123.2461 369.9688,122.1836 Q369.2813,121.1055 369.2813,119.8242 L369.2813,118.668 Q369.2813,117.3398 369.8906,116.1992 Q370.5156,115.043 371.6094,114.4336 Q372.7031,113.8086 373.9375,113.8086 Q374.6719,113.8086 375.3125,113.9805 Q375.9688,114.1367 376.5156,114.4961 Z " fill="#000000"/><text fill="#000000" font-family="sans-serif" font-size="14" lengthAdjust="spacing" textLength="195" x="394.25" y="124.418">RegisterGreenSpaceController</text><line style="stroke:#181818;stroke-width:0.5;" x1="220.5" x2="730.5" y1="134.6211" y2="134.6211"/><line style="stroke:#181818;stroke-width:0.5;" x1="220.5" x2="730.5" y1="142.6211" y2="142.6211"/><text fill="#000000" font-family="sans-serif" font-size="14" lengthAdjust="spacing" textLength="358" x="225.5" y="161.7285">+RegisterGreenSpaceController(greenSpaceRepository)</text><text fill="#000000" font-family="sans-serif" font-size="14" lengthAdjust="spacing" textLength="213" x="225.5" y="180.3496">+RegisterGreenSpaceController()</text><text fill="#000000" font-family="sans-serif" font-size="14" lengthAdjust="spacing" textLength="183" x="225.5" y="198.9707">-getGreenSpaceRepository()</text><text fill="#000000" font-family="sans-serif" font-size="14" lengthAdjust="spacing" textLength="500" x="225.5" y="217.5918">+createGreenSpace(type,name,streetNumber,postalCode,city,district,totalArea)</text></g><!--class RegisterGreenSpaceUI--><g id="elem_RegisterGreenSpaceUI"><rect codeLine="41" fill="#F1F1F1" height="234.2109" id="RegisterGreenSpaceUI" rx="2.5" ry="2.5" style="stroke:#181818;stroke-width:0.5;" width="177" x="7" y="46.6211"/><ellipse cx="22" cy="62.6211" fill="#ADD1B2" rx="11" ry="11" style="stroke:#181818;stroke-width:1.0;"/><path d="M24.7656,58.4961 Q24.9219,58.2773 25.1094,58.168 Q25.2969,58.0586 25.5156,58.0586 Q25.8906,58.0586 26.125,58.3242 Q26.3594,58.5742 26.3594,59.1836 L26.3594,60.6367 Q26.3594,61.2461 26.125,61.5117 Q25.8906,61.7773 25.5156,61.7773 Q25.1719,61.7773 24.9688,61.5742 Q24.7656,61.3867 24.6563,60.8711 Q24.6094,60.5117 24.4219,60.3242 Q24.0938,59.9492 23.4844,59.7305 Q22.875,59.5117 22.25,59.5117 Q21.4844,59.5117 20.8438,59.8398 Q20.2188,60.168 19.7188,60.918 Q19.2344,61.668 19.2344,62.6992 L19.2344,63.793 Q19.2344,65.0273 20.125,65.8555 Q21.0156,66.668 22.6094,66.668 Q23.5469,66.668 24.2031,66.418 Q24.5938,66.2617 25.0156,65.8242 Q25.2813,65.5586 25.4219,65.4805 Q25.5781,65.4023 25.7813,65.4023 Q26.1094,65.4023 26.3594,65.668 Q26.625,65.918 26.625,66.2617 Q26.625,66.6055 26.2813,67.0117 Q25.7813,67.5898 24.9844,67.918 Q23.9063,68.3711 22.6094,68.3711 Q21.0938,68.3711 19.8906,67.7461 Q18.9063,67.2461 18.2188,66.1836 Q17.5313,65.1055 17.5313,63.8242 L17.5313,62.668 Q17.5313,61.3398 18.1406,60.1992 Q18.7656,59.043 19.8594,58.4336 Q20.9531,57.8086 22.1875,57.8086 Q22.9219,57.8086 23.5625,57.9805 Q24.2188,58.1367 24.7656,58.4961 Z " fill="#000000"/><text fill="#000000" font-family="sans-serif" font-size="14" lengthAdjust="spacing" textLength="145" x="36" y="68.418">RegisterGreenSpaceUI</text><line style="stroke:#181818;stroke-width:0.5;" x1="8" x2="183" y1="78.6211" y2="78.6211"/><text fill="#000000" font-family="sans-serif" font-size="14" lengthAdjust="spacing" textLength="71" x="13" y="97.7285">-string type</text><text fill="#000000" font-family="sans-serif" font-size="14" lengthAdjust="spacing" textLength="79" x="13" y="116.3496">-string name</text><text fill="#000000" font-family="sans-serif" font-size="14" lengthAdjust="spacing" textLength="80" x="13" y="134.9707">-string street</text><text fill="#000000" font-family="sans-serif" font-size="14" lengthAdjust="spacing" textLength="109" x="13" y="153.5918">-int streetNumber</text><text fill="#000000" font-family="sans-serif" font-size="14" lengthAdjust="spacing" textLength="116" x="13" y="172.2129">-string postalCode</text><text fill="#000000" font-family="sans-serif" font-size="14" lengthAdjust="spacing" textLength="65" x="13" y="190.834">-string city</text><text fill="#000000" font-family="sans-serif" font-size="14" lengthAdjust="spacing" textLength="85" x="13" y="209.4551">-string district</text><text fill="#000000" font-family="sans-serif" font-size="14" lengthAdjust="spacing" textLength="93" x="13" y="228.0762">-float totalArea</text><line style="stroke:#181818;stroke-width:0.5;" x1="8" x2="183" y1="235.5898" y2="235.5898"/><text fill="#000000" font-family="sans-serif" font-size="14" lengthAdjust="spacing" textLength="93" x="13" y="254.6973">-requestData()</text><text fill="#000000" font-family="sans-serif" font-size="14" lengthAdjust="spacing" textLength="86" x="13" y="273.3184">-submitData()</text></g><!--class Address--><g id="elem_Address"><rect codeLine="54" fill="#F1F1F1" height="159.7266" id="Address" rx="2.5" ry="2.5" style="stroke:#181818;stroke-width:0.5;" width="369" x="252" y="983.6211"/><ellipse cx="406.25" cy="999.6211" fill="#ADD1B2" rx="11" ry="11" style="stroke:#181818;stroke-width:1.0;"/><path d="M409.0156,995.4961 Q409.1719,995.2773 409.3594,995.168 Q409.5469,995.0586 409.7656,995.0586 Q410.1406,995.0586 410.375,995.3242 Q410.6094,995.5742 410.6094,996.1836 L410.6094,997.6367 Q410.6094,998.2461 410.375,998.5117 Q410.1406,998.7773 409.7656,998.7773 Q409.4219,998.7773 409.2188,998.5742 Q409.0156,998.3867 408.9063,997.8711 Q408.8594,997.5117 408.6719,997.3242 Q408.3438,996.9492 407.7344,996.7305 Q407.125,996.5117 406.5,996.5117 Q405.7344,996.5117 405.0938,996.8398 Q404.4688,997.168 403.9688,997.918 Q403.4844,998.668 403.4844,999.6992 L403.4844,1000.793 Q403.4844,1002.0273 404.375,1002.8555 Q405.2656,1003.668 406.8594,1003.668 Q407.7969,1003.668 408.4531,1003.418 Q408.8438,1003.2617 409.2656,1002.8242 Q409.5313,1002.5586 409.6719,1002.4805 Q409.8281,1002.4023 410.0313,1002.4023 Q410.3594,1002.4023 410.6094,1002.668 Q410.875,1002.918 410.875,1003.2617 Q410.875,1003.6055 410.5313,1004.0117 Q410.0313,1004.5898 409.2344,1004.918 Q408.1563,1005.3711 406.8594,1005.3711 Q405.3438,1005.3711 404.1406,1004.7461 Q403.1563,1004.2461 402.4688,1003.1836 Q401.7813,1002.1055 401.7813,1000.8242 L401.7813,999.668 Q401.7813,998.3398 402.3906,997.1992 Q403.0156,996.043 404.1094,995.4336 Q405.2031,994.8086 406.4375,994.8086 Q407.1719,994.8086 407.8125,994.9805 Q408.4688,995.1367 409.0156,995.4961 Z " fill="#000000"/><text fill="#000000" font-family="sans-serif" font-size="14" lengthAdjust="spacing" textLength="52" x="426.75" y="1005.418">Address</text><line style="stroke:#181818;stroke-width:0.5;" x1="253" x2="620" y1="1015.6211" y2="1015.6211"/><text fill="#000000" font-family="sans-serif" font-size="14" lengthAdjust="spacing" textLength="82" x="258" y="1034.7285">-String street</text><text fill="#000000" font-family="sans-serif" font-size="14" lengthAdjust="spacing" textLength="109" x="258" y="1053.3496">-int streetNumber</text><text fill="#000000" font-family="sans-serif" font-size="14" lengthAdjust="spacing" textLength="118" x="258" y="1071.9707">-String postalCode</text><text fill="#000000" font-family="sans-serif" font-size="14" lengthAdjust="spacing" textLength="67" x="258" y="1090.5918">-String city</text><text fill="#000000" font-family="sans-serif" font-size="14" lengthAdjust="spacing" textLength="87" x="258" y="1109.2129">-String district</text><line style="stroke:#181818;stroke-width:0.5;" x1="253" x2="620" y1="1116.7266" y2="1116.7266"/><text fill="#000000" font-family="sans-serif" font-size="14" lengthAdjust="spacing" textLength="357" x="258" y="1135.834">+Address(street, streetNumber, postalCode, city, district)</text></g><!--link RegisterGreenSpaceUI to RegisterGreenSpaceController--><g id="link_RegisterGreenSpaceUI_RegisterGreenSpaceController"><path codeLine="63" d="M184.16,163.6211 C200.13,163.6211 207.52,163.6211 213.22,163.6211 " fill="none" id="RegisterGreenSpaceUI-to-RegisterGreenSpaceController" style="stroke:#181818;stroke-width:1.0;stroke-dasharray:7.0,7.0;"/><polygon fill="#181818" points="219.22,163.6211,210.22,159.6211,214.22,163.6211,210.22,167.6211,219.22,163.6211" style="stroke:#181818;stroke-width:1.0;"/></g><!--link RegisterGreenSpaceController to GreenSpaceRepository--><g id="link_RegisterGreenSpaceController_GreenSpaceRepository"><path codeLine="64" d="M485.36,224.7211 C494.76,282.0111 507.5,359.6211 507.5,359.6211 C507.5,359.6211 507.5,463.6211 507.5,463.6211 C507.5,463.6211 494.2485,487.9912 477.3585,519.0212 " fill="none" id="RegisterGreenSpaceController-to-GreenSpaceRepository" style="stroke:#181818;stroke-width:1.0;stroke-dasharray:7.0,7.0;"/><polygon fill="#181818" points="474.49,524.2911,482.306,518.2986,476.8804,519.8995,475.2794,514.4739,474.49,524.2911" style="stroke:#181818;stroke-width:1.0;"/><text fill="#000000" font-family="sans-serif" font-size="13" lengthAdjust="spacing" textLength="131" x="508.5" y="417.1494">greenSpaceRepository</text><text fill="#000000" font-family="sans-serif" font-size="13" lengthAdjust="spacing" textLength="7" x="471.0468" y="513.1481">1</text></g><!--link GreenSpaceRepository to GreenSpace--><g id="link_GreenSpaceRepository_GreenSpace"><path codeLine="65" d="M436.5,665.9211 C436.5,690.7411 436.5,712.8511 436.5,738.4011 " fill="none" id="GreenSpaceRepository-to-GreenSpace" style="stroke:#181818;stroke-width:1.0;"/><polygon fill="#181818" points="436.5,744.4011,440.5,735.4011,436.5,739.4011,432.5,735.4011,436.5,744.4011" style="stroke:#181818;stroke-width:1.0;"/><text fill="#000000" font-family="sans-serif" font-size="13" lengthAdjust="spacing" textLength="69" x="437.5" y="710.6494">greenSpace</text><text fill="#000000" font-family="sans-serif" font-size="13" lengthAdjust="spacing" textLength="7" x="429.1555" y="687.7646">1</text><text fill="#000000" font-family="sans-serif" font-size="13" lengthAdjust="spacing" textLength="5" x="431.2695" y="733.2766">*</text></g><!--reverse link GreenSpace to Address--><g id="link_GreenSpace_Address"><path codeLine="66" d="M436.5,916.8711 C436.5,942.1711 436.5,958.1511 436.5,983.4511 " fill="none" id="GreenSpace-backto-Address" style="stroke:#181818;stroke-width:1.0;"/><polygon fill="#181818" points="436.5,904.8711,432.5,910.8711,436.5,916.8711,440.5,910.8711,436.5,904.8711" style="stroke:#181818;stroke-width:1.0;"/><text fill="#000000" font-family="sans-serif" font-size="13" lengthAdjust="spacing" textLength="46" x="437.5" y="949.6494">address</text><text fill="#000000" font-family="sans-serif" font-size="13" lengthAdjust="spacing" textLength="7" x="429.1773" y="972.3312">1</text></g><!--link RegisterGreenSpaceController to Repositories--><g id="link_RegisterGreenSpaceController_Repositories"><path codeLine="67" d="M435.63,224.8011 C408.29,266.0511 375.7338,315.1792 349.7638,354.3792 " fill="none" id="RegisterGreenSpaceController-to-Repositories" style="stroke:#181818;stroke-width:1.0;stroke-dasharray:7.0,7.0;"/><polygon fill="#181818" points="346.45,359.3811,354.7552,354.0874,349.2115,355.2128,348.086,349.6691,346.45,359.3811" style="stroke:#181818;stroke-width:1.0;"/><text fill="#000000" font-family="sans-serif" font-size="13" lengthAdjust="spacing" textLength="67" x="376.5" y="325.6494">repositories</text></g><!--link Repositories to GreenSpaceRepository--><g id="link_Repositories_GreenSpaceRepository"><path codeLine="68" d="M347.37,463.6611 C360.26,482.5311 371.725,499.3071 385.555,519.5471 " fill="none" id="Repositories-to-GreenSpaceRepository" style="stroke:#181818;stroke-width:1.0;"/><polygon fill="#181818" points="388.94,524.5011,387.1651,514.8135,386.1191,520.3728,380.5598,519.3269,388.94,524.5011" style="stroke:#181818;stroke-width:1.0;"/><text fill="#000000" font-family="sans-serif" font-size="13" lengthAdjust="spacing" textLength="7" x="376.6744" y="513.3797">1</text></g><!--link Repositories to Repositories--><g id="link_Repositories_Repositories"><path codeLine="69" d="M411.55,396.8111 C431.9,398.3911 446.5,403.3311 446.5,411.6211 C446.5,419.9111 437.882,424.3866 417.532,425.9666 " fill="none" id="Repositories-to-Repositories" style="stroke:#181818;stroke-width:1.0;"/><polygon fill="#181818" points="411.55,426.4311,420.8326,429.7224,416.535,426.0441,420.2134,421.7464,411.55,426.4311" style="stroke:#181818;stroke-width:1.0;"/><text fill="#000000" font-family="sans-serif" font-size="13" lengthAdjust="spacing" textLength="49" x="452.5" y="417.1494">instance</text></g><!--SRC=[jLHDRzim3BthLmYzr6di8DinA0e4AL0467QOrzikYiqwGcN9a-WLNh7_FZhnXrpRMNTeBaaU7nyV9P7NxbdgGbYHyzneanojoO6ZBO7raK8apoA362i5t4A2GcVA9xYZICsBr1b_4ihv4IKrO5K0BuogwZ_iUY9eB1hcPILAEBT5jF9G8kmJesFv6_YQeKIoy1YlFwzvn7SrZTzBaL4IOwSi_c01T4oMWRyoJf_8WxxNrUgIJIIc4kHQYxn5jcbgWMJ4-Rj1dvGHoD6WK5iBueGkFTsWrWnhcT0XeVYrp0zWmn-wC8wITYQ5C95OXQaaWammxCGMxC_O-pUWH8d6LcqJNoZnjYVSyQpxNOVOo5Cl4IoQ83KLQ7ZfEOj6_9TGCXK8NaSJl2LFoE-0DTFtVtNT6PNWkZlpmSv_1hZNfAofye9l1gIUCdC4NhsCx83jUJkZqHgbm5BzHkWIAyWcIYpUazWU-BpD3ptejyuUzzs1k_CeUCFXHiFH86S73IOrSj_IaDhx6-ArsI7IEhymSH4jdvybEBmNABgZTEKXbotKzThCyUjmqD_ZF9vn7e-SnnFEbstbu2mT3ag4dcnuaWgxz9FvoIjQMPaTSNLtyMcnYyzwHTbNdwucrmCDqjHxPfDS4eber-k8z6vylO6AbyjlegYkt2xMJRTQ_sbui1WsTFdUj0zYKJJVtHlcI5Ks2uMnlm00]--></g></svg>