<?xml version="1.0" encoding="us-ascii" standalone="no"?><svg xmlns="http://www.w3.org/2000/svg" xmlns:xlink="http://www.w3.org/1999/xlink" contentStyleType="text/css" height="1364px" preserveAspectRatio="none" style="width:1208px;height:1364px;background:#FFFFFF;" version="1.1" viewBox="0 0 1208 1364" width="1208px" zoomAndPan="magnify"><defs/><g><text fill="#000000" font-family="sans-serif" font-size="11.2" font-weight="bold" lengthAdjust="spacing" textLength="124" x="536.4" y="20.0859">US020 - Class Diagram</text><!--cluster GUI--><g id="cluster_GUI"><path d="M491.6,36.5078 L512.4,36.5078 A3,3 0 0 1 514.4,38.5078 L520,56.2047 L655.6,56.2047 A2,2 0 0 1 657.6,58.2047 L657.6,293.7078 A2,2 0 0 1 655.6,295.7078 L491.6,295.7078 A2,2 0 0 1 489.6,293.7078 L489.6,38.5078 A2,2 0 0 1 491.6,36.5078 " fill="#DDDDDD" style="stroke:#000000;stroke-width:1.2000000000000002;"/><line style="stroke:#000000;stroke-width:1.2000000000000002;" x1="489.6" x2="520" y1="56.2047" y2="56.2047"/><text fill="#000000" font-family="sans-serif" font-size="11.2" font-weight="bold" lengthAdjust="spacing" textLength="20" x="492.8" y="50.1938">GUI</text></g><!--cluster Controller--><g id="cluster_Controller"><path d="M456.4,322.1078 L514,322.1078 A3,3 0 0 1 516,324.1078 L521.6,341.8047 L690.8,341.8047 A2,2 0 0 1 692.8,343.8047 L692.8,445.7078 A2,2 0 0 1 690.8,447.7078 L456.4,447.7078 A2,2 0 0 1 454.4,445.7078 L454.4,324.1078 A2,2 0 0 1 456.4,322.1078 " fill="#DDDDDD" style="stroke:#000000;stroke-width:1.2000000000000002;"/><line style="stroke:#000000;stroke-width:1.2000000000000002;" x1="454.4" x2="521.6" y1="341.8047" y2="341.8047"/><text fill="#000000" font-family="sans-serif" font-size="11.2" font-weight="bold" lengthAdjust="spacing" textLength="56.8" x="457.6" y="335.7938">Controller</text></g><!--cluster Repository--><g id="cluster_Repository"><path d="M6.8,488.5078 L68.4,488.5078 A3,3 0 0 1 70.4,490.5078 L76,508.2047 L528.4,508.2047 A2,2 0 0 1 530.4,510.2047 L530.4,1084.1078 A2,2 0 0 1 528.4,1086.1078 L6.8,1086.1078 A2,2 0 0 1 4.8,1084.1078 L4.8,490.5078 A2,2 0 0 1 6.8,488.5078 " fill="#DDDDDD" style="stroke:#000000;stroke-width:1.2000000000000002;"/><line style="stroke:#000000;stroke-width:1.2000000000000002;" x1="4.8" x2="76" y1="508.2047" y2="508.2047"/><text fill="#000000" font-family="sans-serif" font-size="11.2" font-weight="bold" lengthAdjust="spacing" textLength="60.8" x="8" y="502.1938">Repository</text></g><!--cluster Domain--><g id="cluster_Domain"><path d="M551.6,938.1078 L594,938.1078 A3,3 0 0 1 596,940.1078 L601.6,957.8047 L869.2,957.8047 A2,2 0 0 1 871.2,959.8047 L871.2,1356.9078 A2,2 0 0 1 869.2,1358.9078 L551.6,1358.9078 A2,2 0 0 1 549.6,1356.9078 L549.6,940.1078 A2,2 0 0 1 551.6,938.1078 " fill="#DDDDDD" style="stroke:#000000;stroke-width:1.2000000000000002;"/><line style="stroke:#000000;stroke-width:1.2000000000000002;" x1="549.6" x2="601.6" y1="957.8047" y2="957.8047"/><text fill="#000000" font-family="sans-serif" font-size="11.2" font-weight="bold" lengthAdjust="spacing" textLength="41.6" x="552.8" y="951.7938">Domain</text></g><!--cluster Mapper--><g id="cluster_Mapper"><path d="M697.2,503.3078 L741.2,503.3078 A3,3 0 0 1 743.2,505.3078 L748.8,523.0047 L981.2,523.0047 A2,2 0 0 1 983.2,525.0047 L983.2,611.7078 A2,2 0 0 1 981.2,613.7078 L697.2,613.7078 A2,2 0 0 1 695.2,611.7078 L695.2,505.3078 A2,2 0 0 1 697.2,503.3078 " fill="#DDDDDD" style="stroke:#000000;stroke-width:1.2000000000000002;"/><line style="stroke:#000000;stroke-width:1.2000000000000002;" x1="695.2" x2="748.8" y1="523.0047" y2="523.0047"/><text fill="#000000" font-family="sans-serif" font-size="11.2" font-weight="bold" lengthAdjust="spacing" textLength="43.2" x="698.4" y="516.9938">Mapper</text></g><!--cluster DTO--><g id="cluster_DTO"><path d="M722.8,667.7078 L746.8,667.7078 A3,3 0 0 1 748.8,669.7078 L754.4,687.4047 L1200.4,687.4047 A2,2 0 0 1 1202.4,689.4047 L1202.4,895.3078 A2,2 0 0 1 1200.4,897.3078 L722.8,897.3078 A2,2 0 0 1 720.8,895.3078 L720.8,669.7078 A2,2 0 0 1 722.8,667.7078 " fill="#DDDDDD" style="stroke:#000000;stroke-width:1.2000000000000002;"/><line style="stroke:#000000;stroke-width:1.2000000000000002;" x1="720.8" x2="754.4" y1="687.4047" y2="687.4047"/><text fill="#000000" font-family="sans-serif" font-size="11.2" font-weight="bold" lengthAdjust="spacing" textLength="23.2" x="724" y="681.3938">DTO</text></g><!--class RegisterGreenSpaceUI--><g id="elem_RegisterGreenSpaceUI"><rect codeLine="12" fill="#F1F1F1" height="217.1625" id="RegisterGreenSpaceUI" rx="2" ry="2" style="stroke:#181818;stroke-width:0.4000000000000001;" width="141.6" x="502.8" y="66.1078"/><ellipse cx="514.8" cy="78.9078" fill="#ADD1B2" rx="8.8" ry="8.8" style="stroke:#181818;stroke-width:0.8000000000000002;"/><path d="M517.0125,75.6078 Q517.1375,75.4328 517.2875,75.3453 Q517.4375,75.2578 517.6125,75.2578 Q517.9125,75.2578 518.1,75.4703 Q518.2875,75.6703 518.2875,76.1578 L518.2875,77.3203 Q518.2875,77.8078 518.1,78.0203 Q517.9125,78.2328 517.6125,78.2328 Q517.3375,78.2328 517.175,78.0703 Q517.0125,77.9203 516.925,77.5078 Q516.8875,77.2203 516.7375,77.0703 Q516.475,76.7703 515.9875,76.5953 Q515.5,76.4203 515,76.4203 Q514.3875,76.4203 513.875,76.6828 Q513.375,76.9453 512.975,77.5453 Q512.5875,78.1453 512.5875,78.9703 L512.5875,79.8453 Q512.5875,80.8328 513.3,81.4953 Q514.0125,82.1453 515.2875,82.1453 Q516.0375,82.1453 516.5625,81.9453 Q516.875,81.8203 517.2125,81.4703 Q517.425,81.2578 517.5375,81.1953 Q517.6625,81.1328 517.825,81.1328 Q518.0875,81.1328 518.2875,81.3453 Q518.5,81.5453 518.5,81.8203 Q518.5,82.0953 518.225,82.4203 Q517.825,82.8828 517.1875,83.1453 Q516.325,83.5078 515.2875,83.5078 Q514.075,83.5078 513.1125,83.0078 Q512.325,82.6078 511.775,81.7578 Q511.225,80.8953 511.225,79.8703 L511.225,78.9453 Q511.225,77.8828 511.7125,76.9703 Q512.2125,76.0453 513.0875,75.5578 Q513.9625,75.0578 514.95,75.0578 Q515.5375,75.0578 516.05,75.1953 Q516.575,75.3203 517.0125,75.6078 Z " fill="#000000"/><text fill="#000000" font-family="sans-serif" font-size="11.2" lengthAdjust="spacing" textLength="116" x="526" y="83.5453">RegisterGreenSpaceUI</text><line style="stroke:#181818;stroke-width:0.4000000000000001;" x1="503.6" x2="643.6" y1="91.7078" y2="91.7078"/><text fill="#000000" font-family="sans-serif" font-size="11.2" lengthAdjust="spacing" textLength="56.8" x="507.6" y="106.9938">-string type</text><text fill="#000000" font-family="sans-serif" font-size="11.2" lengthAdjust="spacing" textLength="63.2" x="507.6" y="121.8906">-string name</text><text fill="#000000" font-family="sans-serif" font-size="11.2" lengthAdjust="spacing" textLength="64" x="507.6" y="136.7875">-string street</text><text fill="#000000" font-family="sans-serif" font-size="11.2" lengthAdjust="spacing" textLength="87.2" x="507.6" y="151.6844">-int streetNumber</text><text fill="#000000" font-family="sans-serif" font-size="11.2" lengthAdjust="spacing" textLength="92.8" x="507.6" y="166.5813">-string postalCode</text><text fill="#000000" font-family="sans-serif" font-size="11.2" lengthAdjust="spacing" textLength="52" x="507.6" y="181.4781">-string city</text><text fill="#000000" font-family="sans-serif" font-size="11.2" lengthAdjust="spacing" textLength="68" x="507.6" y="196.375">-string district</text><text fill="#000000" font-family="sans-serif" font-size="11.2" lengthAdjust="spacing" textLength="87.2" x="507.6" y="211.2719">-double totalArea</text><line style="stroke:#181818;stroke-width:0.4000000000000001;" x1="503.6" x2="643.6" y1="217.2828" y2="217.2828"/><text fill="#000000" font-family="sans-serif" font-size="11.2" lengthAdjust="spacing" textLength="130.4" x="507.6" y="232.5688">+RegisterGreenSpaceUI()</text><text fill="#000000" font-family="sans-serif" font-size="11.2" lengthAdjust="spacing" textLength="53.6" x="507.6" y="247.4656">+initialize()</text><text fill="#000000" font-family="sans-serif" font-size="11.2" lengthAdjust="spacing" textLength="112" x="507.6" y="262.3625">-fillGreenSpaceType()</text><text fill="#000000" font-family="sans-serif" font-size="11.2" lengthAdjust="spacing" textLength="17.6" x="507.6" y="277.2594">(...)</text></g><!--class RegisterGreenSpaceController--><g id="elem_RegisterGreenSpaceController"><rect codeLine="29" fill="#F1F1F1" height="83.0906" id="RegisterGreenSpaceController" rx="2" ry="2" style="stroke:#181818;stroke-width:0.4000000000000001;" width="212" x="467.6" y="351.7078"/><ellipse cx="493.28" cy="364.5078" fill="#ADD1B2" rx="8.8" ry="8.8" style="stroke:#181818;stroke-width:0.8000000000000002;"/><path d="M495.4925,361.2078 Q495.6175,361.0328 495.7675,360.9453 Q495.9175,360.8578 496.0925,360.8578 Q496.3925,360.8578 496.58,361.0703 Q496.7675,361.2703 496.7675,361.7578 L496.7675,362.9203 Q496.7675,363.4078 496.58,363.6203 Q496.3925,363.8328 496.0925,363.8328 Q495.8175,363.8328 495.655,363.6703 Q495.4925,363.5203 495.405,363.1078 Q495.3675,362.8203 495.2175,362.6703 Q494.955,362.3703 494.4675,362.1953 Q493.98,362.0203 493.48,362.0203 Q492.8675,362.0203 492.355,362.2828 Q491.855,362.5453 491.455,363.1453 Q491.0675,363.7453 491.0675,364.5703 L491.0675,365.4453 Q491.0675,366.4328 491.78,367.0953 Q492.4925,367.7453 493.7675,367.7453 Q494.5175,367.7453 495.0425,367.5453 Q495.355,367.4203 495.6925,367.0703 Q495.905,366.8578 496.0175,366.7953 Q496.1425,366.7328 496.305,366.7328 Q496.5675,366.7328 496.7675,366.9453 Q496.98,367.1453 496.98,367.4203 Q496.98,367.6953 496.705,368.0203 Q496.305,368.4828 495.6675,368.7453 Q494.805,369.1078 493.7675,369.1078 Q492.555,369.1078 491.5925,368.6078 Q490.805,368.2078 490.255,367.3578 Q489.705,366.4953 489.705,365.4703 L489.705,364.5453 Q489.705,363.4828 490.1925,362.5703 Q490.6925,361.6453 491.5675,361.1578 Q492.4425,360.6578 493.43,360.6578 Q494.0175,360.6578 494.53,360.7953 Q495.055,360.9203 495.4925,361.2078 Z " fill="#000000"/><text fill="#000000" font-family="sans-serif" font-size="11.2" lengthAdjust="spacing" textLength="156" x="507.52" y="369.1453">RegisterGreenSpaceController</text><line style="stroke:#181818;stroke-width:0.4000000000000001;" x1="468.4" x2="678.8" y1="377.3078" y2="377.3078"/><line style="stroke:#181818;stroke-width:0.4000000000000001;" x1="468.4" x2="678.8" y1="383.7078" y2="383.7078"/><text fill="#000000" font-family="sans-serif" font-size="11.2" lengthAdjust="spacing" textLength="170.4" x="472.4" y="398.9938">+RegisterGreenSpaceController()</text><text fill="#000000" font-family="sans-serif" font-size="11.2" lengthAdjust="spacing" textLength="146.4" x="472.4" y="413.8906">-getGreenSpaceRepository()</text><text fill="#000000" font-family="sans-serif" font-size="11.2" lengthAdjust="spacing" textLength="202.4" x="472.4" y="428.7875">+registerGreenSpace(greenSpaceDTO)</text></g><!--class GreenSpaceRepository--><g id="elem_GreenSpaceRepository"><rect codeLine="38" fill="#F1F1F1" height="112.8844" id="GreenSpaceRepository" rx="2" ry="2" style="stroke:#181818;stroke-width:0.4000000000000001;" width="208.8" x="308.4" y="734.5078"/><ellipse cx="350.2" cy="747.3078" fill="#ADD1B2" rx="8.8" ry="8.8" style="stroke:#181818;stroke-width:0.8000000000000002;"/><path d="M352.4125,744.0078 Q352.5375,743.8328 352.6875,743.7453 Q352.8375,743.6578 353.0125,743.6578 Q353.3125,743.6578 353.5,743.8703 Q353.6875,744.0703 353.6875,744.5578 L353.6875,745.7203 Q353.6875,746.2078 353.5,746.4203 Q353.3125,746.6328 353.0125,746.6328 Q352.7375,746.6328 352.575,746.4703 Q352.4125,746.3203 352.325,745.9078 Q352.2875,745.6203 352.1375,745.4703 Q351.875,745.1703 351.3875,744.9953 Q350.9,744.8203 350.4,744.8203 Q349.7875,744.8203 349.275,745.0828 Q348.775,745.3453 348.375,745.9453 Q347.9875,746.5453 347.9875,747.3703 L347.9875,748.2453 Q347.9875,749.2328 348.7,749.8953 Q349.4125,750.5453 350.6875,750.5453 Q351.4375,750.5453 351.9625,750.3453 Q352.275,750.2203 352.6125,749.8703 Q352.825,749.6578 352.9375,749.5953 Q353.0625,749.5328 353.225,749.5328 Q353.4875,749.5328 353.6875,749.7453 Q353.9,749.9453 353.9,750.2203 Q353.9,750.4953 353.625,750.8203 Q353.225,751.2828 352.5875,751.5453 Q351.725,751.9078 350.6875,751.9078 Q349.475,751.9078 348.5125,751.4078 Q347.725,751.0078 347.175,750.1578 Q346.625,749.2953 346.625,748.2703 L346.625,747.3453 Q346.625,746.2828 347.1125,745.3703 Q347.6125,744.4453 348.4875,743.9578 Q349.3625,743.4578 350.35,743.4578 Q350.9375,743.4578 351.45,743.5953 Q351.975,743.7203 352.4125,744.0078 Z " fill="#000000"/><text fill="#000000" font-family="sans-serif" font-size="11.2" lengthAdjust="spacing" textLength="118.4" x="366.6" y="751.9453">GreenSpaceRepository</text><line style="stroke:#181818;stroke-width:0.4000000000000001;" x1="309.2" x2="516.4" y1="760.1078" y2="760.1078"/><text fill="#000000" font-family="sans-serif" font-size="11.2" lengthAdjust="spacing" textLength="180.8" x="313.2" y="775.3938">-List&lt;GreenSpace&gt; greenSpaceList</text><line style="stroke:#181818;stroke-width:0.4000000000000001;" x1="309.2" x2="516.4" y1="781.4047" y2="781.4047"/><text fill="#000000" font-family="sans-serif" font-size="11.2" lengthAdjust="spacing" textLength="132.8" x="313.2" y="796.6906">+GreenSpaceRepository()</text><text fill="#000000" font-family="sans-serif" font-size="11.2" lengthAdjust="spacing" textLength="178.4" x="313.2" y="811.5875">+registerGreenSpace(greenSpace)</text><text fill="#000000" font-family="sans-serif" font-size="11.2" lengthAdjust="spacing" textLength="95.2" x="313.2" y="826.4844">+add(greenSpace)</text><text fill="#000000" font-family="sans-serif" font-size="11.2" lengthAdjust="spacing" textLength="199.2" x="313.2" y="841.3813">-validateGreenSpace(newGreenSpace)</text></g><!--class Repositories--><g id="elem_Repositories"><rect codeLine="47" fill="#F1F1F1" height="83.0906" id="Repositories" rx="2" ry="2" style="stroke:#181818;stroke-width:0.4000000000000001;" width="158.4" x="296" y="525.3078"/><ellipse cx="340.2" cy="538.1078" fill="#ADD1B2" rx="8.8" ry="8.8" style="stroke:#181818;stroke-width:0.8000000000000002;"/><path d="M342.4125,534.8078 Q342.5375,534.6328 342.6875,534.5453 Q342.8375,534.4578 343.0125,534.4578 Q343.3125,534.4578 343.5,534.6703 Q343.6875,534.8703 343.6875,535.3578 L343.6875,536.5203 Q343.6875,537.0078 343.5,537.2203 Q343.3125,537.4328 343.0125,537.4328 Q342.7375,537.4328 342.575,537.2703 Q342.4125,537.1203 342.325,536.7078 Q342.2875,536.4203 342.1375,536.2703 Q341.875,535.9703 341.3875,535.7953 Q340.9,535.6203 340.4,535.6203 Q339.7875,535.6203 339.275,535.8828 Q338.775,536.1453 338.375,536.7453 Q337.9875,537.3453 337.9875,538.1703 L337.9875,539.0453 Q337.9875,540.0328 338.7,540.6953 Q339.4125,541.3453 340.6875,541.3453 Q341.4375,541.3453 341.9625,541.1453 Q342.275,541.0203 342.6125,540.6703 Q342.825,540.4578 342.9375,540.3953 Q343.0625,540.3328 343.225,540.3328 Q343.4875,540.3328 343.6875,540.5453 Q343.9,540.7453 343.9,541.0203 Q343.9,541.2953 343.625,541.6203 Q343.225,542.0828 342.5875,542.3453 Q341.725,542.7078 340.6875,542.7078 Q339.475,542.7078 338.5125,542.2078 Q337.725,541.8078 337.175,540.9578 Q336.625,540.0953 336.625,539.0703 L336.625,538.1453 Q336.625,537.0828 337.1125,536.1703 Q337.6125,535.2453 338.4875,534.7578 Q339.3625,534.2578 340.35,534.2578 Q340.9375,534.2578 341.45,534.3953 Q341.975,534.5203 342.4125,534.8078 Z " fill="#000000"/><text fill="#000000" font-family="sans-serif" font-size="11.2" lengthAdjust="spacing" textLength="63.2" x="356.6" y="542.7453">Repositories</text><line style="stroke:#181818;stroke-width:0.4000000000000001;" x1="296.8" x2="453.6" y1="550.9078" y2="550.9078"/><line style="stroke:#181818;stroke-width:0.4000000000000001;" x1="296.8" x2="453.6" y1="557.3078" y2="557.3078"/><text fill="#000000" font-family="sans-serif" font-size="11.2" lengthAdjust="spacing" textLength="75.2" x="300.8" y="572.5938">-Repositories()</text><text fill="#000000" font-family="sans-serif" font-size="11.2" lengthAdjust="spacing" textLength="145.6" x="300.8" y="587.4906">+getInstance() : Repositories</text><text fill="#000000" font-family="sans-serif" font-size="11.2" lengthAdjust="spacing" textLength="148.8" x="300.8" y="602.3875">+getGreenSpaceRepository()</text></g><!--class ApplicationSession--><g id="elem_ApplicationSession"><rect codeLine="53" fill="#F1F1F1" height="97.9875" id="ApplicationSession" rx="2" ry="2" style="stroke:#181818;stroke-width:0.4000000000000001;" width="187.2" x="17.6" y="518.1078"/><ellipse cx="60.2" cy="530.9078" fill="#ADD1B2" rx="8.8" ry="8.8" style="stroke:#181818;stroke-width:0.8000000000000002;"/><path d="M62.4125,527.6078 Q62.5375,527.4328 62.6875,527.3453 Q62.8375,527.2578 63.0125,527.2578 Q63.3125,527.2578 63.5,527.4703 Q63.6875,527.6703 63.6875,528.1578 L63.6875,529.3203 Q63.6875,529.8078 63.5,530.0203 Q63.3125,530.2328 63.0125,530.2328 Q62.7375,530.2328 62.575,530.0703 Q62.4125,529.9203 62.325,529.5078 Q62.2875,529.2203 62.1375,529.0703 Q61.875,528.7703 61.3875,528.5953 Q60.9,528.4203 60.4,528.4203 Q59.7875,528.4203 59.275,528.6828 Q58.775,528.9453 58.375,529.5453 Q57.9875,530.1453 57.9875,530.9703 L57.9875,531.8453 Q57.9875,532.8328 58.7,533.4953 Q59.4125,534.1453 60.6875,534.1453 Q61.4375,534.1453 61.9625,533.9453 Q62.275,533.8203 62.6125,533.4703 Q62.825,533.2578 62.9375,533.1953 Q63.0625,533.1328 63.225,533.1328 Q63.4875,533.1328 63.6875,533.3453 Q63.9,533.5453 63.9,533.8203 Q63.9,534.0953 63.625,534.4203 Q63.225,534.8828 62.5875,535.1453 Q61.725,535.5078 60.6875,535.5078 Q59.475,535.5078 58.5125,535.0078 Q57.725,534.6078 57.175,533.7578 Q56.625,532.8953 56.625,531.8703 L56.625,530.9453 Q56.625,529.8828 57.1125,528.9703 Q57.6125,528.0453 58.4875,527.5578 Q59.3625,527.0578 60.35,527.0578 Q60.9375,527.0578 61.45,527.1953 Q61.975,527.3203 62.4125,527.6078 Z " fill="#000000"/><text fill="#000000" font-family="sans-serif" font-size="11.2" lengthAdjust="spacing" textLength="95.2" x="76.6" y="535.5453">ApplicationSession</text><line style="stroke:#181818;stroke-width:0.4000000000000001;" x1="18.4" x2="204" y1="543.7078" y2="543.7078"/><line style="stroke:#181818;stroke-width:0.4000000000000001;" x1="18.4" x2="204" y1="550.1078" y2="550.1078"/><text fill="#000000" font-family="sans-serif" font-size="11.2" lengthAdjust="spacing" textLength="107.2" x="22.4" y="565.3938">-ApplicationSession()</text><text fill="#000000" font-family="sans-serif" font-size="11.2" lengthAdjust="spacing" textLength="177.6" x="22.4" y="580.2906">+getInstance() : ApplicationSession</text><text fill="#000000" font-family="sans-serif" font-size="11.2" lengthAdjust="spacing" textLength="156.8" x="22.4" y="595.1875">+getAuthenticationRepository()</text><text fill="#000000" font-family="sans-serif" font-size="11.2" lengthAdjust="spacing" textLength="108.8" x="22.4" y="610.0844">+getCurrentSession()</text></g><!--class UserSession--><g id="elem_UserSession"><rect codeLine="61" fill="#F1F1F1" height="53.2969" id="UserSession" rx="2" ry="2" style="stroke:#181818;stroke-width:0.4000000000000001;" width="90.4" x="66" y="764.1078"/><ellipse cx="78.72" cy="776.9078" fill="#ADD1B2" rx="8.8" ry="8.8" style="stroke:#181818;stroke-width:0.8000000000000002;"/><path d="M80.9325,773.6078 Q81.0575,773.4328 81.2075,773.3453 Q81.3575,773.2578 81.5325,773.2578 Q81.8325,773.2578 82.02,773.4703 Q82.2075,773.6703 82.2075,774.1578 L82.2075,775.3203 Q82.2075,775.8078 82.02,776.0203 Q81.8325,776.2328 81.5325,776.2328 Q81.2575,776.2328 81.095,776.0703 Q80.9325,775.9203 80.845,775.5078 Q80.8075,775.2203 80.6575,775.0703 Q80.395,774.7703 79.9075,774.5953 Q79.42,774.4203 78.92,774.4203 Q78.3075,774.4203 77.795,774.6828 Q77.295,774.9453 76.895,775.5453 Q76.5075,776.1453 76.5075,776.9703 L76.5075,777.8453 Q76.5075,778.8328 77.22,779.4953 Q77.9325,780.1453 79.2075,780.1453 Q79.9575,780.1453 80.4825,779.9453 Q80.795,779.8203 81.1325,779.4703 Q81.345,779.2578 81.4575,779.1953 Q81.5825,779.1328 81.745,779.1328 Q82.0075,779.1328 82.2075,779.3453 Q82.42,779.5453 82.42,779.8203 Q82.42,780.0953 82.145,780.4203 Q81.745,780.8828 81.1075,781.1453 Q80.245,781.5078 79.2075,781.5078 Q77.995,781.5078 77.0325,781.0078 Q76.245,780.6078 75.695,779.7578 Q75.145,778.8953 75.145,777.8703 L75.145,776.9453 Q75.145,775.8828 75.6325,774.9703 Q76.1325,774.0453 77.0075,773.5578 Q77.8825,773.0578 78.87,773.0578 Q79.4575,773.0578 79.97,773.1953 Q80.495,773.3203 80.9325,773.6078 Z " fill="#000000"/><text fill="#000000" font-family="sans-serif" font-size="11.2" lengthAdjust="spacing" textLength="63.2" x="90.08" y="781.5453">UserSession</text><line style="stroke:#181818;stroke-width:0.4000000000000001;" x1="66.8" x2="155.6" y1="789.7078" y2="789.7078"/><line style="stroke:#181818;stroke-width:0.4000000000000001;" x1="66.8" x2="155.6" y1="796.1078" y2="796.1078"/><text fill="#000000" font-family="sans-serif" font-size="11.2" lengthAdjust="spacing" textLength="80.8" x="70.8" y="811.3938">+getUserEmail()</text></g><!--class Email--><g id="elem_Email"><rect codeLine="66" fill="#F1F1F1" height="38.4" id="Email" rx="2" ry="2" style="stroke:#181818;stroke-width:0.4000000000000001;" width="52.8" x="84.8" y="1034.9078"/><ellipse cx="96.8" cy="1047.7078" fill="#ADD1B2" rx="8.8" ry="8.8" style="stroke:#181818;stroke-width:0.8000000000000002;"/><path d="M99.0125,1044.4078 Q99.1375,1044.2328 99.2875,1044.1453 Q99.4375,1044.0578 99.6125,1044.0578 Q99.9125,1044.0578 100.1,1044.2703 Q100.2875,1044.4703 100.2875,1044.9578 L100.2875,1046.1203 Q100.2875,1046.6078 100.1,1046.8203 Q99.9125,1047.0328 99.6125,1047.0328 Q99.3375,1047.0328 99.175,1046.8703 Q99.0125,1046.7203 98.925,1046.3078 Q98.8875,1046.0203 98.7375,1045.8703 Q98.475,1045.5703 97.9875,1045.3953 Q97.5,1045.2203 97,1045.2203 Q96.3875,1045.2203 95.875,1045.4828 Q95.375,1045.7453 94.975,1046.3453 Q94.5875,1046.9453 94.5875,1047.7703 L94.5875,1048.6453 Q94.5875,1049.6328 95.3,1050.2953 Q96.0125,1050.9453 97.2875,1050.9453 Q98.0375,1050.9453 98.5625,1050.7453 Q98.875,1050.6203 99.2125,1050.2703 Q99.425,1050.0578 99.5375,1049.9953 Q99.6625,1049.9328 99.825,1049.9328 Q100.0875,1049.9328 100.2875,1050.1453 Q100.5,1050.3453 100.5,1050.6203 Q100.5,1050.8953 100.225,1051.2203 Q99.825,1051.6828 99.1875,1051.9453 Q98.325,1052.3078 97.2875,1052.3078 Q96.075,1052.3078 95.1125,1051.8078 Q94.325,1051.4078 93.775,1050.5578 Q93.225,1049.6953 93.225,1048.6703 L93.225,1047.7453 Q93.225,1046.6828 93.7125,1045.7703 Q94.2125,1044.8453 95.0875,1044.3578 Q95.9625,1043.8578 96.95,1043.8578 Q97.5375,1043.8578 98.05,1043.9953 Q98.575,1044.1203 99.0125,1044.4078 Z " fill="#000000"/><text fill="#000000" font-family="sans-serif" font-size="11.2" lengthAdjust="spacing" textLength="27.2" x="108" y="1052.3453">Email</text><line style="stroke:#181818;stroke-width:0.4000000000000001;" x1="85.6" x2="136.8" y1="1060.5078" y2="1060.5078"/><line style="stroke:#181818;stroke-width:0.4000000000000001;" x1="85.6" x2="136.8" y1="1066.9078" y2="1066.9078"/></g><!--class GreenSpace--><g id="elem_GreenSpace"><rect codeLine="74" fill="#F1F1F1" height="172.4719" id="GreenSpace" rx="2" ry="2" style="stroke:#181818;stroke-width:0.4000000000000001;" width="246.4" x="574.4" y="967.7078"/><ellipse cx="662.2" cy="980.5078" fill="#ADD1B2" rx="8.8" ry="8.8" style="stroke:#181818;stroke-width:0.8000000000000002;"/><path d="M664.4125,977.2078 Q664.5375,977.0328 664.6875,976.9453 Q664.8375,976.8578 665.0125,976.8578 Q665.3125,976.8578 665.5,977.0703 Q665.6875,977.2703 665.6875,977.7578 L665.6875,978.9203 Q665.6875,979.4078 665.5,979.6203 Q665.3125,979.8328 665.0125,979.8328 Q664.7375,979.8328 664.575,979.6703 Q664.4125,979.5203 664.325,979.1078 Q664.2875,978.8203 664.1375,978.6703 Q663.875,978.3703 663.3875,978.1953 Q662.9,978.0203 662.4,978.0203 Q661.7875,978.0203 661.275,978.2828 Q660.775,978.5453 660.375,979.1453 Q659.9875,979.7453 659.9875,980.5703 L659.9875,981.4453 Q659.9875,982.4328 660.7,983.0953 Q661.4125,983.7453 662.6875,983.7453 Q663.4375,983.7453 663.9625,983.5453 Q664.275,983.4203 664.6125,983.0703 Q664.825,982.8578 664.9375,982.7953 Q665.0625,982.7328 665.225,982.7328 Q665.4875,982.7328 665.6875,982.9453 Q665.9,983.1453 665.9,983.4203 Q665.9,983.6953 665.625,984.0203 Q665.225,984.4828 664.5875,984.7453 Q663.725,985.1078 662.6875,985.1078 Q661.475,985.1078 660.5125,984.6078 Q659.725,984.2078 659.175,983.3578 Q658.625,982.4953 658.625,981.4703 L658.625,980.5453 Q658.625,979.4828 659.1125,978.5703 Q659.6125,977.6453 660.4875,977.1578 Q661.3625,976.6578 662.35,976.6578 Q662.9375,976.6578 663.45,976.7953 Q663.975,976.9203 664.4125,977.2078 Z " fill="#000000"/><text fill="#000000" font-family="sans-serif" font-size="11.2" lengthAdjust="spacing" textLength="64" x="678.6" y="985.1453">GreenSpace</text><line style="stroke:#181818;stroke-width:0.4000000000000001;" x1="575.2" x2="820" y1="993.3078" y2="993.3078"/><text fill="#000000" font-family="sans-serif" font-size="11.2" lengthAdjust="spacing" textLength="118.4" x="579.2" y="1008.5938">-GreenSpaceType type</text><text fill="#000000" font-family="sans-serif" font-size="11.2" lengthAdjust="spacing" textLength="64.8" x="579.2" y="1023.4906">-String name</text><text fill="#000000" font-family="sans-serif" font-size="11.2" lengthAdjust="spacing" textLength="87.2" x="579.2" y="1038.3875">-double totalArea</text><text fill="#000000" font-family="sans-serif" font-size="11.2" lengthAdjust="spacing" textLength="81.6" x="579.2" y="1053.2844">-String manager</text><line style="stroke:#181818;stroke-width:0.4000000000000001;" x1="575.2" x2="820" y1="1059.2953" y2="1059.2953"/><text fill="#000000" font-family="sans-serif" font-size="11.2" lengthAdjust="spacing" textLength="236.8" x="579.2" y="1074.5813">+GreenSpace(type,name,street, streetNumber,</text><text fill="#000000" font-family="sans-serif" font-size="11.2" lengthAdjust="spacing" textLength="217.6" x="579.2" y="1089.4781">postalCode,city,district,totalArea, manager)</text><text fill="#000000" font-family="sans-serif" font-size="11.2" lengthAdjust="spacing" textLength="98.4" x="579.2" y="1104.375">-validateType(type)</text><text fill="#000000" font-family="sans-serif" font-size="11.2" lengthAdjust="spacing" textLength="108" x="579.2" y="1119.2719">-validateName(name)</text><text fill="#000000" font-family="sans-serif" font-size="11.2" lengthAdjust="spacing" textLength="146.4" x="579.2" y="1134.1688">-validateTotalArea(totalArea)</text></g><!--class Address--><g id="elem_Address"><rect codeLine="91" fill="#F1F1F1" height="142.6781" id="Address" rx="2" ry="2" style="stroke:#181818;stroke-width:0.4000000000000001;" width="295.2" x="562.8" y="1203.7078"/><ellipse cx="686.2" cy="1216.5078" fill="#ADD1B2" rx="8.8" ry="8.8" style="stroke:#181818;stroke-width:0.8000000000000002;"/><path d="M688.4125,1213.2078 Q688.5375,1213.0328 688.6875,1212.9453 Q688.8375,1212.8578 689.0125,1212.8578 Q689.3125,1212.8578 689.5,1213.0703 Q689.6875,1213.2703 689.6875,1213.7578 L689.6875,1214.9203 Q689.6875,1215.4078 689.5,1215.6203 Q689.3125,1215.8328 689.0125,1215.8328 Q688.7375,1215.8328 688.575,1215.6703 Q688.4125,1215.5203 688.325,1215.1078 Q688.2875,1214.8203 688.1375,1214.6703 Q687.875,1214.3703 687.3875,1214.1953 Q686.9,1214.0203 686.4,1214.0203 Q685.7875,1214.0203 685.275,1214.2828 Q684.775,1214.5453 684.375,1215.1453 Q683.9875,1215.7453 683.9875,1216.5703 L683.9875,1217.4453 Q683.9875,1218.4328 684.7,1219.0953 Q685.4125,1219.7453 686.6875,1219.7453 Q687.4375,1219.7453 687.9625,1219.5453 Q688.275,1219.4203 688.6125,1219.0703 Q688.825,1218.8578 688.9375,1218.7953 Q689.0625,1218.7328 689.225,1218.7328 Q689.4875,1218.7328 689.6875,1218.9453 Q689.9,1219.1453 689.9,1219.4203 Q689.9,1219.6953 689.625,1220.0203 Q689.225,1220.4828 688.5875,1220.7453 Q687.725,1221.1078 686.6875,1221.1078 Q685.475,1221.1078 684.5125,1220.6078 Q683.725,1220.2078 683.175,1219.3578 Q682.625,1218.4953 682.625,1217.4703 L682.625,1216.5453 Q682.625,1215.4828 683.1125,1214.5703 Q683.6125,1213.6453 684.4875,1213.1578 Q685.3625,1212.6578 686.35,1212.6578 Q686.9375,1212.6578 687.45,1212.7953 Q687.975,1212.9203 688.4125,1213.2078 Z " fill="#000000"/><text fill="#000000" font-family="sans-serif" font-size="11.2" lengthAdjust="spacing" textLength="41.6" x="702.6" y="1221.1453">Address</text><line style="stroke:#181818;stroke-width:0.4000000000000001;" x1="563.6" x2="857.2" y1="1229.3078" y2="1229.3078"/><text fill="#000000" font-family="sans-serif" font-size="11.2" lengthAdjust="spacing" textLength="65.6" x="567.6" y="1244.5938">-String street</text><text fill="#000000" font-family="sans-serif" font-size="11.2" lengthAdjust="spacing" textLength="87.2" x="567.6" y="1259.4906">-int streetNumber</text><text fill="#000000" font-family="sans-serif" font-size="11.2" lengthAdjust="spacing" textLength="94.4" x="567.6" y="1274.3875">-String postalCode</text><text fill="#000000" font-family="sans-serif" font-size="11.2" lengthAdjust="spacing" textLength="53.6" x="567.6" y="1289.2844">-String city</text><text fill="#000000" font-family="sans-serif" font-size="11.2" lengthAdjust="spacing" textLength="69.6" x="567.6" y="1304.1813">-String district</text><line style="stroke:#181818;stroke-width:0.4000000000000001;" x1="563.6" x2="857.2" y1="1310.1922" y2="1310.1922"/><text fill="#000000" font-family="sans-serif" font-size="11.2" lengthAdjust="spacing" textLength="285.6" x="567.6" y="1325.4781">+Address(street, streetNumber, postalCode, city, district)</text><text fill="#000000" font-family="sans-serif" font-size="11.2" lengthAdjust="spacing" textLength="17.6" x="567.6" y="1340.375">(...)</text></g><!--class GreenSpaceMapper--><g id="elem_GreenSpaceMapper"><rect codeLine="104" fill="#F1F1F1" height="68.1938" id="GreenSpaceMapper" rx="2" ry="2" style="stroke:#181818;stroke-width:0.4000000000000001;" width="261.6" x="708.4" y="532.9078"/><ellipse cx="784.6" cy="545.7078" fill="#ADD1B2" rx="8.8" ry="8.8" style="stroke:#181818;stroke-width:0.8000000000000002;"/><path d="M786.8125,542.4078 Q786.9375,542.2328 787.0875,542.1453 Q787.2375,542.0578 787.4125,542.0578 Q787.7125,542.0578 787.9,542.2703 Q788.0875,542.4703 788.0875,542.9578 L788.0875,544.1203 Q788.0875,544.6078 787.9,544.8203 Q787.7125,545.0328 787.4125,545.0328 Q787.1375,545.0328 786.975,544.8703 Q786.8125,544.7203 786.725,544.3078 Q786.6875,544.0203 786.5375,543.8703 Q786.275,543.5703 785.7875,543.3953 Q785.3,543.2203 784.8,543.2203 Q784.1875,543.2203 783.675,543.4828 Q783.175,543.7453 782.775,544.3453 Q782.3875,544.9453 782.3875,545.7703 L782.3875,546.6453 Q782.3875,547.6328 783.1,548.2953 Q783.8125,548.9453 785.0875,548.9453 Q785.8375,548.9453 786.3625,548.7453 Q786.675,548.6203 787.0125,548.2703 Q787.225,548.0578 787.3375,547.9953 Q787.4625,547.9328 787.625,547.9328 Q787.8875,547.9328 788.0875,548.1453 Q788.3,548.3453 788.3,548.6203 Q788.3,548.8953 788.025,549.2203 Q787.625,549.6828 786.9875,549.9453 Q786.125,550.3078 785.0875,550.3078 Q783.875,550.3078 782.9125,549.8078 Q782.125,549.4078 781.575,548.5578 Q781.025,547.6953 781.025,546.6703 L781.025,545.7453 Q781.025,544.6828 781.5125,543.7703 Q782.0125,542.8453 782.8875,542.3578 Q783.7625,541.8578 784.75,541.8578 Q785.3375,541.8578 785.85,541.9953 Q786.375,542.1203 786.8125,542.4078 Z " fill="#000000"/><text fill="#000000" font-family="sans-serif" font-size="11.2" lengthAdjust="spacing" textLength="102.4" x="801" y="550.3453">GreenSpaceMapper</text><line style="stroke:#181818;stroke-width:0.4000000000000001;" x1="709.2" x2="969.2" y1="558.5078" y2="558.5078"/><line style="stroke:#181818;stroke-width:0.4000000000000001;" x1="709.2" x2="969.2" y1="564.9078" y2="564.9078"/><text fill="#000000" font-family="sans-serif" font-size="11.2" lengthAdjust="spacing" textLength="116.8" x="713.2" y="580.1938">+GreenSpaceMapper()</text><text fill="#000000" font-family="sans-serif" font-size="11.2" lengthAdjust="spacing" textLength="252" x="713.2" y="595.0906">+toGreenSpace(greenSpaceDTO, managerEmail)</text></g><!--class GreenSpaceDTO--><g id="elem_GreenSpaceDTO"><rect codeLine="112" fill="#F1F1F1" height="187.3688" id="GreenSpaceDTO" rx="2" ry="2" style="stroke:#181818;stroke-width:0.4000000000000001;" width="456" x="733.6" y="697.3078"/><ellipse cx="914.2" cy="710.1078" fill="#ADD1B2" rx="8.8" ry="8.8" style="stroke:#181818;stroke-width:0.8000000000000002;"/><path d="M916.4125,706.8078 Q916.5375,706.6328 916.6875,706.5453 Q916.8375,706.4578 917.0125,706.4578 Q917.3125,706.4578 917.5,706.6703 Q917.6875,706.8703 917.6875,707.3578 L917.6875,708.5203 Q917.6875,709.0078 917.5,709.2203 Q917.3125,709.4328 917.0125,709.4328 Q916.7375,709.4328 916.575,709.2703 Q916.4125,709.1203 916.325,708.7078 Q916.2875,708.4203 916.1375,708.2703 Q915.875,707.9703 915.3875,707.7953 Q914.9,707.6203 914.4,707.6203 Q913.7875,707.6203 913.275,707.8828 Q912.775,708.1453 912.375,708.7453 Q911.9875,709.3453 911.9875,710.1703 L911.9875,711.0453 Q911.9875,712.0328 912.7,712.6953 Q913.4125,713.3453 914.6875,713.3453 Q915.4375,713.3453 915.9625,713.1453 Q916.275,713.0203 916.6125,712.6703 Q916.825,712.4578 916.9375,712.3953 Q917.0625,712.3328 917.225,712.3328 Q917.4875,712.3328 917.6875,712.5453 Q917.9,712.7453 917.9,713.0203 Q917.9,713.2953 917.625,713.6203 Q917.225,714.0828 916.5875,714.3453 Q915.725,714.7078 914.6875,714.7078 Q913.475,714.7078 912.5125,714.2078 Q911.725,713.8078 911.175,712.9578 Q910.625,712.0953 910.625,711.0703 L910.625,710.1453 Q910.625,709.0828 911.1125,708.1703 Q911.6125,707.2453 912.4875,706.7578 Q913.3625,706.2578 914.35,706.2578 Q914.9375,706.2578 915.45,706.3953 Q915.975,706.5203 916.4125,706.8078 Z " fill="#000000"/><text fill="#000000" font-family="sans-serif" font-size="11.2" lengthAdjust="spacing" textLength="88" x="930.6" y="714.7453">GreenSpaceDTO</text><line style="stroke:#181818;stroke-width:0.4000000000000001;" x1="734.4" x2="1188.8" y1="722.9078" y2="722.9078"/><text fill="#000000" font-family="sans-serif" font-size="11.2" lengthAdjust="spacing" textLength="93.6" x="738.4" y="738.1938">public String name</text><text fill="#000000" font-family="sans-serif" font-size="11.2" lengthAdjust="spacing" textLength="120.8" x="738.4" y="753.0906">+GreenSpaceType type</text><text fill="#000000" font-family="sans-serif" font-size="11.2" lengthAdjust="spacing" textLength="91.2" x="738.4" y="767.9875">+Double totalArea</text><text fill="#000000" font-family="sans-serif" font-size="11.2" lengthAdjust="spacing" textLength="68" x="738.4" y="782.8844">+String street</text><text fill="#000000" font-family="sans-serif" font-size="11.2" lengthAdjust="spacing" textLength="89.6" x="738.4" y="797.7813">+int streetNumber</text><text fill="#000000" font-family="sans-serif" font-size="11.2" lengthAdjust="spacing" textLength="96.8" x="738.4" y="812.6781">+String postalCode</text><text fill="#000000" font-family="sans-serif" font-size="11.2" lengthAdjust="spacing" textLength="56" x="738.4" y="827.575">+String city</text><text fill="#000000" font-family="sans-serif" font-size="11.2" lengthAdjust="spacing" textLength="72" x="738.4" y="842.4719">+String district</text><line style="stroke:#181818;stroke-width:0.4000000000000001;" x1="734.4" x2="1188.8" y1="848.4828" y2="848.4828"/><text fill="#000000" font-family="sans-serif" font-size="11.2" lengthAdjust="spacing" textLength="446.4" x="738.4" y="863.7688">+GreenSpaceDTO(name, type, totalArea, street, streetNumber, postalCode, city, district)</text><text fill="#000000" font-family="sans-serif" font-size="11.2" lengthAdjust="spacing" textLength="98.4" x="738.4" y="878.6656">+addressToString()</text></g><!--link RegisterGreenSpaceUI to RegisterGreenSpaceController--><g id="link_RegisterGreenSpaceUI_RegisterGreenSpaceController"><path codeLine="128" d="M573.6,282.9558 C573.6,307.3798 573.6,327.0758 573.6,346.6838 " fill="none" id="RegisterGreenSpaceUI-to-RegisterGreenSpaceController" style="stroke:#181818;stroke-width:0.8000000000000002;stroke-dasharray:7.0,7.0;"/><polygon fill="#181818" points="573.6,351.4838,576.8,344.2838,573.6,347.4838,570.4,344.2838,573.6,351.4838" style="stroke:#181818;stroke-width:0.8000000000000002;"/></g><!--link RegisterGreenSpaceController to GreenSpaceRepository--><g id="link_RegisterGreenSpaceController_GreenSpaceRepository"><path codeLine="129" d="M566.064,435.0358 C554.08,500.1638 532,620.1078 532,620.1078 C532,620.1078 489.3476,680.9376 454.5876,730.5136 " fill="none" id="RegisterGreenSpaceController-to-GreenSpaceRepository" style="stroke:#181818;stroke-width:0.8000000000000002;stroke-dasharray:7.0,7.0;"/><polygon fill="#181818" points="451.832,734.4438,458.5856,730.3856,454.1284,731.1686,453.3453,726.7114,451.832,734.4438" style="stroke:#181818;stroke-width:0.8000000000000002;"/><text fill="#000000" font-family="sans-serif" font-size="10.4" lengthAdjust="spacing" textLength="104.8" x="557.6" y="571.3305">greenSpaceRepository</text><text fill="#000000" font-family="sans-serif" font-size="10.4" lengthAdjust="spacing" textLength="5.6" x="449.9684" y="725.55">1</text></g><!--link GreenSpaceRepository to GreenSpace--><g id="link_GreenSpaceRepository_GreenSpace"><path codeLine="130" d="M473.544,847.5078 C511.528,882.3958 557.6807,924.789 600.6167,964.221 " fill="none" id="GreenSpaceRepository-to-GreenSpace" style="stroke:#181818;stroke-width:0.8000000000000002;"/><polygon fill="#181818" points="604.152,967.4678,601.0136,960.2408,601.2059,964.7622,596.6845,964.9545,604.152,967.4678" style="stroke:#181818;stroke-width:0.8000000000000002;"/><text fill="#000000" font-family="sans-serif" font-size="10.4" lengthAdjust="spacing" textLength="55.2" x="556" y="922.1305">greenSpace</text><text fill="#000000" font-family="sans-serif" font-size="10.4" lengthAdjust="spacing" textLength="5.6" x="473.6479" y="864.9787">1</text><text fill="#000000" font-family="sans-serif" font-size="10.4" lengthAdjust="spacing" textLength="4" x="593.7391" y="958.8313">*</text></g><!--reverse link GreenSpace to Address--><g id="link_GreenSpace_Address"><path codeLine="131" d="M703.1614,1150.1794 C704.3854,1171.0754 705.112,1183.6038 706.288,1203.6918 " fill="none" id="GreenSpace-backto-Address" style="stroke:#181818;stroke-width:0.8000000000000002;"/><polygon fill="#181818" points="702.6,1140.5958,699.6862,1145.5747,703.1614,1150.1794,706.0752,1145.2005,702.6,1140.5958" style="stroke:#181818;stroke-width:0.8000000000000002;"/><text fill="#000000" font-family="sans-serif" font-size="10.4" lengthAdjust="spacing" textLength="36.8" x="704.8" y="1176.5305">address</text><text fill="#000000" font-family="sans-serif" font-size="10.4" lengthAdjust="spacing" textLength="5.6" x="700.094" y="1194.608">1</text></g><!--link RegisterGreenSpaceController to Repositories--><g id="link_RegisterGreenSpaceController_Repositories"><path codeLine="132" d="M526.328,435.0838 C494.928,462.3158 457.4747,494.7794 426.0747,522.0034 " fill="none" id="RegisterGreenSpaceController-to-Repositories" style="stroke:#181818;stroke-width:0.8000000000000002;stroke-dasharray:7.0,7.0;"/><polygon fill="#181818" points="422.448,525.1478,429.9843,522.8491,425.4702,522.5275,425.7918,518.0135,422.448,525.1478" style="stroke:#181818;stroke-width:0.8000000000000002;"/><text fill="#000000" font-family="sans-serif" font-size="10.4" lengthAdjust="spacing" textLength="53.6" x="492.8" y="472.5305">repositories</text></g><!--link Repositories to GreenSpaceRepository--><g id="link_Repositories_GreenSpaceRepository"><path codeLine="133" d="M382.144,608.7558 C388.112,644.0918 395.9837,690.655 402.5837,729.687 " fill="none" id="Repositories-to-GreenSpaceRepository" style="stroke:#181818;stroke-width:0.8000000000000002;"/><polygon fill="#181818" points="403.384,734.4198,405.3388,726.7871,402.7171,730.4758,399.0284,727.8541,403.384,734.4198" style="stroke:#181818;stroke-width:0.8000000000000002;"/><text fill="#000000" font-family="sans-serif" font-size="10.4" lengthAdjust="spacing" textLength="5.6" x="396.5242" y="725.5235">1</text></g><!--link Repositories to Repositories--><g id="link_Repositories_Repositories"><path codeLine="134" d="M454.44,552.4598 C470.72,554.0038 482.4,558.8198 482.4,566.9078 C482.4,574.9958 475.4986,579.3586 459.2186,580.9026 " fill="none" id="Repositories-to-Repositories" style="stroke:#181818;stroke-width:0.8000000000000002;"/><polygon fill="#181818" points="454.44,581.3558,461.91,583.8617,458.4221,580.9781,461.3057,577.4903,454.44,581.3558" style="stroke:#181818;stroke-width:0.8000000000000002;"/><text fill="#000000" font-family="sans-serif" font-size="10.4" lengthAdjust="spacing" textLength="39.2" x="487.2" y="571.3305">instance</text></g><!--link RegisterGreenSpaceController to ApplicationSession--><g id="link_RegisterGreenSpaceController_ApplicationSession"><path codeLine="136" d="M467.44,426.1878 C384.216,451.3398 282.4,482.1078 282.4,482.1078 C282.4,482.1078 249.0933,498.4497 209.1253,518.0577 " fill="none" id="RegisterGreenSpaceController-to-ApplicationSession" style="stroke:#181818;stroke-width:0.8000000000000002;stroke-dasharray:7.0,7.0;"/><polygon fill="#181818" points="204.816,520.1718,212.6894,519.8735,208.4071,518.41,209.8706,514.1277,204.816,520.1718" style="stroke:#181818;stroke-width:0.8000000000000002;"/></g><!--link ApplicationSession to ApplicationSession--><g id="link_ApplicationSession_ApplicationSession"><path codeLine="138" d="M205.016,552.8438 C221.4,554.7238 232.8,559.4038 232.8,566.9078 C232.8,574.4118 226.1687,578.5446 209.7847,580.4246 " fill="none" id="ApplicationSession-to-ApplicationSession" style="stroke:#181818;stroke-width:0.8000000000000002;"/><polygon fill="#181818" points="205.016,580.9718,212.5339,583.3302,208.9899,580.5158,211.8043,576.9719,205.016,580.9718" style="stroke:#181818;stroke-width:0.8000000000000002;"/><text fill="#000000" font-family="sans-serif" font-size="10.4" lengthAdjust="spacing" textLength="39.2" x="237.6" y="571.3305">instance</text></g><!--link ApplicationSession to UserSession--><g id="link_ApplicationSession_UserSession"><path codeLine="139" d="M111.2,615.9638 C111.2,661.3158 111.2,722.6998 111.2,759.0198 " fill="none" id="ApplicationSession-to-UserSession" style="stroke:#181818;stroke-width:0.8000000000000002;"/><polygon fill="#181818" points="111.2,763.8198,114.4,756.6198,111.2,759.8198,108,756.6198,111.2,763.8198" style="stroke:#181818;stroke-width:0.8000000000000002;"/><text fill="#000000" font-family="sans-serif" font-size="10.4" lengthAdjust="spacing" textLength="57.6" x="112" y="651.7305">userSession</text><text fill="#000000" font-family="sans-serif" font-size="10.4" lengthAdjust="spacing" textLength="5.6" x="105.0663" y="755.0337">1</text></g><!--link UserSession to Email--><g id="link_UserSession_Email"><path codeLine="140" d="M111.2,817.7478 C111.2,870.4758 111.2,983.9478 111.2,1029.8278 " fill="none" id="UserSession-to-Email" style="stroke:#181818;stroke-width:0.8000000000000002;stroke-dasharray:7.0,7.0;"/><polygon fill="#181818" points="111.2,1034.6278,114.4,1027.4278,111.2,1030.6278,108,1027.4278,111.2,1034.6278" style="stroke:#181818;stroke-width:0.8000000000000002;"/></g><!--link RegisterGreenSpaceController to GreenSpaceMapper--><g id="link_RegisterGreenSpaceController_GreenSpaceMapper"><path codeLine="141" d="M636.88,435.0838 C682.984,464.9478 740.6351,502.2827 783.7231,530.1867 " fill="none" id="RegisterGreenSpaceController-to-GreenSpaceMapper" style="stroke:#181818;stroke-width:0.8000000000000002;stroke-dasharray:7.0,7.0;"/><polygon fill="#181818" points="787.752,532.7958,783.448,526.1961,784.3946,530.6215,779.9692,531.568,787.752,532.7958" style="stroke:#181818;stroke-width:0.8000000000000002;"/></g><!--link GreenSpaceMapper to GreenSpaceDTO--><g id="link_GreenSpaceMapper_GreenSpaceDTO"><path codeLine="142" d="M857.528,601.0038 C871.56,626.5078 889.3332,658.8069 908.1252,692.9429 " fill="none" id="GreenSpaceMapper-to-GreenSpaceDTO" style="stroke:#181818;stroke-width:0.8000000000000002;stroke-dasharray:7.0,7.0;"/><polygon fill="#181818" points="910.44,697.1478,909.771,689.2972,908.511,693.6437,904.1645,692.3836,910.44,697.1478" style="stroke:#181818;stroke-width:0.8000000000000002;"/></g><!--link RegisterGreenSpaceController to GreenSpaceDTO--><g id="link_RegisterGreenSpaceController_GreenSpaceDTO"><path codeLine="143" d="M679.616,416.8838 C800.976,442.9558 983.2,482.1078 983.2,482.1078 C983.2,482.1078 983.2,620.1078 983.2,620.1078 C983.2,620.1078 979.0616,652.6982 974.0136,692.3862 " fill="none" id="RegisterGreenSpaceController-to-GreenSpaceDTO" style="stroke:#181818;stroke-width:0.8000000000000002;stroke-dasharray:7.0,7.0;"/><polygon fill="#181818" points="973.408,697.1478,977.4909,690.4091,973.9127,693.1798,971.142,689.6016,973.408,697.1478" style="stroke:#181818;stroke-width:0.8000000000000002;"/></g><!--SRC=[dLRTJzim47_tNs5j3mIIL6oF25MgsWqXRKmYyBONavXWuTYHumnr5V_xpiwNapY5aLPgU_UxBz_FTpsfdfaeYI85BgIGwPEI1SLQrHGDcfAapoIdYTvpYXLDDH4vTm7L4yda2nCvVYIySZMS2Qht9SMbv7lp0vrub59fYHohb9EgscYjs4EjwNKgHSB-KdoEDDEGmdro_lKSntXhO7Z7I0v62BLfuglxQtnv-LtoZAhr6d_UsGSV4B9-yItDMQMfkbAKYWIiA1WS48OdnXK4XJfCMcE98CL40X-KwbR6X6u5DtNnGDKOMifA4xwLsSH5olH-BCcO-P9sRZDPFq35MeBvHb5YnQ6lWk2qqJ71D2CSpgkLn8-Cym5v1vMrcc2rMfsYLtZrPxULGYl9ELN-8rmwGSSEpjacSXJLvOPpgWVzBOM3ObggVLSDq6tg9CZxhxkxNmrkLCFWvLWDlgWT2Nv0oCi1iCP3IAFg2lnuuXs8PDbC6kC_qBwCQEgO2lfovU1U1owtWHcjUWwxmZuVEEXh0ImKuEqKNun00sIXf3xUfYmvIubcS2LfLS575tIkMGmzXmx0JQsVgD2jsdEkWDdMIW5c23FaTrzHDKhC6XZfju8mFi9QoS4AuDtJPoT1Bjv7dVx8n_VB7H_9R7nuxtGFB8Y0BDICOe7n6HatKJDdej6yYNwBOSX4Pgv4tIY9-aXHvttAD3iKJ82fuWRY1IRepABp6VJUBKsQfoLBbYdenM5Su7l6Ph8mDfFPs4myOpFi8WVUatBSHjPLr9lFvcBFYf-aB8yFnQ5L3VOmQs4ZxvcivT9Gw_jaAMevwymt0Bml3m0UK0baO-cCXk4YPKEu0Rwbu-bVwEzVkD2_SDQ_SA5_enei_oARO8GTBd-ikNRe6dBSoIPsqBKQUVyOhE2VZLYjZsupT7GXhi3wqvTFtdK1qp3tY94N2qvYaqqC_ivSVoClZYq-YsCJkRqE06jhVplXqMAvW6tcR8kHBewNgviWPrvPknNGs_buTWQQoqmCZzI9vBDfAt1s1rZKmo_aQamozbg-dVFqvgEfO882hl-FKmF_1m00]--></g></svg>