<?xml version="1.0" encoding="us-ascii" standalone="no"?><svg xmlns="http://www.w3.org/2000/svg" xmlns:xlink="http://www.w3.org/1999/xlink" contentStyleType="text/css" height="1332.9px" preserveAspectRatio="none" style="width:1948px;height:1332px;background:#FFFFFF;" version="1.1" viewBox="0 0 1948 1332" width="1948.5px" zoomAndPan="magnify"><defs/><g><text fill="#000000" font-family="sans-serif" font-size="12.6" font-weight="bold" lengthAdjust="spacing" textLength="198.9" x="876.825" y="27.0967">US020 - Sequence Diagram (SD)</text><rect fill="#FFFFFF" height="1088.8699" style="stroke:#181818;stroke-width:0.9;" width="9" x="54" y="136.677"/><rect fill="#FFFFFF" height="67.3857" style="stroke:#181818;stroke-width:0.9;" width="9" x="306.9" y="157.6389"/><rect fill="#FFFFFF" height="152.2477" style="stroke:#181818;stroke-width:0.9;" width="9" x="306.9" y="253.1865"/><rect fill="#FFFFFF" height="791.9508" style="stroke:#181818;stroke-width:0.9;" width="9" x="306.9" y="433.5961"/><rect fill="#FFFFFF" height="669.4031" style="stroke:#181818;stroke-width:0.9;" width="9" x="807.75" y="527.9818"/><rect fill="#FFFFFF" height="28.1619" style="stroke:#181818;stroke-width:0.9;" width="9" x="956.25" y="948.6896"/><rect fill="#FFFFFF" height="28.1619" style="stroke:#181818;stroke-width:0.9;" width="9" x="1052.55" y="1005.0135"/><rect fill="#FFFFFF" height="94.0887" style="stroke:#181818;stroke-width:0.9;" width="9" x="1170.9" y="803.9391"/><rect fill="#FFFFFF" height="28.1619" style="stroke:#181818;stroke-width:0.9;" width="9" x="1307.25" y="556.1438"/><rect fill="#FFFFFF" height="28.1619" style="stroke:#181818;stroke-width:0.9;" width="9" x="1439.55" y="612.4676"/><rect fill="#FFFFFF" height="28.1619" style="stroke:#181818;stroke-width:0.9;" width="9" x="1553.85" y="668.7914"/><rect fill="#FFFFFF" height="28.1619" style="stroke:#181818;stroke-width:0.9;" width="9" x="1631.25" y="725.1152"/><rect fill="#FFFFFF" height="107.8857" style="stroke:#181818;stroke-width:0.9;" width="9" x="1738.35" y="1061.3373"/><rect fill="none" height="151.6096" style="stroke:#000000;stroke-width:1.35;" width="437.4" x="9" y="171.1389"/><line style="stroke:#181818;stroke-width:0.45;stroke-dasharray:5.0,5.0;" x1="58.5" x2="58.5" y1="127.677" y2="1241.7469"/><line style="stroke:#181818;stroke-width:0.45;stroke-dasharray:5.0,5.0;" x1="310.95" x2="310.95" y1="127.677" y2="1241.7469"/><line style="stroke:#181818;stroke-width:0.45;stroke-dasharray:5.0,5.0;" x1="649.8" x2="649.8" y1="471.658" y2="1241.7469"/><line style="stroke:#181818;stroke-width:0.45;stroke-dasharray:5.0,5.0;" x1="811.8" x2="811.8" y1="127.677" y2="1241.7469"/><line style="stroke:#181818;stroke-width:0.45;stroke-dasharray:5.0,5.0;" x1="960.3" x2="960.3" y1="127.677" y2="1241.7469"/><line style="stroke:#181818;stroke-width:0.45;stroke-dasharray:5.0,5.0;" x1="1056.6" x2="1056.6" y1="127.677" y2="1241.7469"/><line style="stroke:#181818;stroke-width:0.45;stroke-dasharray:5.0,5.0;" x1="1175.4" x2="1175.4" y1="127.677" y2="1241.7469"/><line style="stroke:#181818;stroke-width:0.45;stroke-dasharray:5.0,5.0;" x1="1311.3" x2="1311.3" y1="127.677" y2="1241.7469"/><line style="stroke:#181818;stroke-width:0.45;stroke-dasharray:5.0,5.0;" x1="1443.6" x2="1443.6" y1="127.677" y2="1241.7469"/><line style="stroke:#181818;stroke-width:0.45;stroke-dasharray:5.0,5.0;" x1="1557.9" x2="1557.9" y1="127.677" y2="1241.7469"/><line style="stroke:#181818;stroke-width:0.45;stroke-dasharray:5.0,5.0;" x1="1635.3" x2="1635.3" y1="127.677" y2="1241.7469"/><line style="stroke:#181818;stroke-width:0.45;stroke-dasharray:5.0,5.0;" x1="1742.4" x2="1742.4" y1="127.677" y2="1241.7469"/><text fill="#000000" font-family="sans-serif" font-size="12.6" lengthAdjust="spacing" textLength="75.6" x="18" y="107.7557">Green Space</text><text fill="#000000" font-family="sans-serif" font-size="12.6" lengthAdjust="spacing" textLength="50.4" x="30.6" y="124.5146">Manager</text><ellipse cx="58.5" cy="47.809" fill="#E3E3E3" rx="7.2" ry="7.2" style="stroke:#181818;stroke-width:0.45;"/><path d="M58.5,55.009 L58.5,79.309 M46.8,62.209 L70.2,62.209 M58.5,79.309 L46.8,92.809 M58.5,79.309 L70.2,92.809 " fill="none" style="stroke:#181818;stroke-width:0.45;"/><text fill="#000000" font-family="sans-serif" font-size="12.6" lengthAdjust="spacing" textLength="75.6" x="18" y="1254.4436">Green Space</text><text fill="#000000" font-family="sans-serif" font-size="12.6" lengthAdjust="spacing" textLength="50.4" x="30.6" y="1271.2025">Manager</text><ellipse cx="58.5" cy="1282.0148" fill="#E3E3E3" rx="7.2" ry="7.2" style="stroke:#181818;stroke-width:0.45;"/><path d="M58.5,1289.2148 L58.5,1313.5148 M46.8,1296.4148 L70.2,1296.4148 M58.5,1313.5148 L46.8,1327.0148 M58.5,1313.5148 L70.2,1327.0148 " fill="none" style="stroke:#181818;stroke-width:0.45;"/><rect fill="#E3E3E3" height="29.359" rx="2.25" ry="2.25" style="stroke:#181818;stroke-width:0.45;" width="146.7" x="238.05" y="97.418"/><text fill="#000000" font-family="sans-serif" font-size="12.6" lengthAdjust="spacing" textLength="134.1" x="244.35" y="117.3146">:RegisterGreenSpaceUI</text><rect fill="#E3E3E3" height="29.359" rx="2.25" ry="2.25" style="stroke:#181818;stroke-width:0.45;" width="146.7" x="238.05" y="1240.8469"/><text fill="#000000" font-family="sans-serif" font-size="12.6" lengthAdjust="spacing" textLength="134.1" x="244.35" y="1260.7436">:RegisterGreenSpaceUI</text><rect fill="#E3E3E3" height="29.359" rx="2.25" ry="2.25" style="stroke:#181818;stroke-width:0.45;" width="115.2" x="592.2" y="1240.8469"/><text fill="#000000" font-family="sans-serif" font-size="12.6" lengthAdjust="spacing" textLength="102.6" x="598.5" y="1260.7436">:GreenSpaceDTO</text><rect fill="#E3E3E3" height="29.359" rx="2.25" ry="2.25" style="stroke:#181818;stroke-width:0.45;" width="191.7" x="716.4" y="97.418"/><text fill="#000000" font-family="sans-serif" font-size="12.6" lengthAdjust="spacing" textLength="179.1" x="722.7" y="117.3146">:RegisterGreenSpaceController</text><rect fill="#E3E3E3" height="29.359" rx="2.25" ry="2.25" style="stroke:#181818;stroke-width:0.45;" width="191.7" x="716.4" y="1240.8469"/><text fill="#000000" font-family="sans-serif" font-size="12.6" lengthAdjust="spacing" textLength="179.1" x="722.7" y="1260.7436">:RegisterGreenSpaceController</text><rect fill="#E3E3E3" height="29.359" rx="2.25" ry="2.25" style="stroke:#181818;stroke-width:0.45;" width="87.3" x="917.1" y="97.418"/><text fill="#000000" font-family="sans-serif" font-size="12.6" lengthAdjust="spacing" textLength="74.7" x="923.4" y="117.3146">:Repositories</text><rect fill="#E3E3E3" height="29.359" rx="2.25" ry="2.25" style="stroke:#181818;stroke-width:0.45;" width="87.3" x="917.1" y="1240.8469"/><text fill="#000000" font-family="sans-serif" font-size="12.6" lengthAdjust="spacing" textLength="74.7" x="923.4" y="1260.7436">:Repositories</text><rect fill="#E3E3E3" height="46.118" rx="2.25" ry="2.25" style="stroke:#181818;stroke-width:0.45;" width="87.3" x="1013.4" y="80.659"/><text fill="#000000" font-family="sans-serif" font-size="12.6" lengthAdjust="spacing" textLength="66.6" x="1023.75" y="100.5557">repositories</text><text fill="#000000" font-family="sans-serif" font-size="12.6" lengthAdjust="spacing" textLength="74.7" x="1019.7" y="117.3146">:Repositories</text><rect fill="#E3E3E3" height="46.118" rx="2.25" ry="2.25" style="stroke:#181818;stroke-width:0.45;" width="87.3" x="1013.4" y="1240.8469"/><text fill="#000000" font-family="sans-serif" font-size="12.6" lengthAdjust="spacing" textLength="66.6" x="1023.75" y="1260.7436">repositories</text><text fill="#000000" font-family="sans-serif" font-size="12.6" lengthAdjust="spacing" textLength="74.7" x="1019.7" y="1277.5025">:Repositories</text><rect fill="#E3E3E3" height="29.359" rx="2.25" ry="2.25" style="stroke:#181818;stroke-width:0.45;" width="131.4" x="1109.7" y="97.418"/><text fill="#000000" font-family="sans-serif" font-size="12.6" lengthAdjust="spacing" textLength="118.8" x="1116" y="117.3146">:GreenSpaceMapper</text><rect fill="#E3E3E3" height="29.359" rx="2.25" ry="2.25" style="stroke:#181818;stroke-width:0.45;" width="131.4" x="1109.7" y="1240.8469"/><text fill="#000000" font-family="sans-serif" font-size="12.6" lengthAdjust="spacing" textLength="118.8" x="1116" y="1260.7436">:GreenSpaceMapper</text><rect fill="#E3E3E3" height="29.359" rx="2.25" ry="2.25" style="stroke:#181818;stroke-width:0.45;" width="123.3" x="1250.1" y="97.418"/><text fill="#000000" font-family="sans-serif" font-size="12.6" lengthAdjust="spacing" textLength="110.7" x="1256.4" y="117.3146">:ApplicationSession</text><rect fill="#E3E3E3" height="29.359" rx="2.25" ry="2.25" style="stroke:#181818;stroke-width:0.45;" width="123.3" x="1250.1" y="1240.8469"/><text fill="#000000" font-family="sans-serif" font-size="12.6" lengthAdjust="spacing" textLength="110.7" x="1256.4" y="1260.7436">:ApplicationSession</text><rect fill="#E3E3E3" height="46.118" rx="2.25" ry="2.25" style="stroke:#181818;stroke-width:0.45;" width="123.3" x="1382.4" y="80.659"/><text fill="#000000" font-family="sans-serif" font-size="12.6" lengthAdjust="spacing" textLength="51.3" x="1418.4" y="100.5557">singleton</text><text fill="#000000" font-family="sans-serif" font-size="12.6" lengthAdjust="spacing" textLength="110.7" x="1388.7" y="117.3146">:ApplicationSession</text><rect fill="#E3E3E3" height="46.118" rx="2.25" ry="2.25" style="stroke:#181818;stroke-width:0.45;" width="123.3" x="1382.4" y="1240.8469"/><text fill="#000000" font-family="sans-serif" font-size="12.6" lengthAdjust="spacing" textLength="51.3" x="1418.4" y="1260.7436">singleton</text><text fill="#000000" font-family="sans-serif" font-size="12.6" lengthAdjust="spacing" textLength="110.7" x="1388.7" y="1277.5025">:ApplicationSession</text><rect fill="#E3E3E3" height="46.118" rx="2.25" ry="2.25" style="stroke:#181818;stroke-width:0.45;" width="87.3" x="1514.7" y="80.659"/><text fill="#000000" font-family="sans-serif" font-size="12.6" lengthAdjust="spacing" textLength="70.2" x="1523.25" y="100.5557">userSession</text><text fill="#000000" font-family="sans-serif" font-size="12.6" lengthAdjust="spacing" textLength="74.7" x="1521" y="117.3146">:UserSession</text><rect fill="#E3E3E3" height="46.118" rx="2.25" ry="2.25" style="stroke:#181818;stroke-width:0.45;" width="87.3" x="1514.7" y="1240.8469"/><text fill="#000000" font-family="sans-serif" font-size="12.6" lengthAdjust="spacing" textLength="70.2" x="1523.25" y="1260.7436">userSession</text><text fill="#000000" font-family="sans-serif" font-size="12.6" lengthAdjust="spacing" textLength="74.7" x="1521" y="1277.5025">:UserSession</text><rect fill="#E3E3E3" height="46.118" rx="2.25" ry="2.25" style="stroke:#181818;stroke-width:0.45;" width="49.5" x="1611" y="80.659"/><text fill="#000000" font-family="sans-serif" font-size="12.6" lengthAdjust="spacing" textLength="36.9" x="1617.3" y="100.5557">userID</text><text fill="#000000" font-family="sans-serif" font-size="12.6" lengthAdjust="spacing" textLength="34.2" x="1618.65" y="117.3146">:Email</text><rect fill="#E3E3E3" height="46.118" rx="2.25" ry="2.25" style="stroke:#181818;stroke-width:0.45;" width="49.5" x="1611" y="1240.8469"/><text fill="#000000" font-family="sans-serif" font-size="12.6" lengthAdjust="spacing" textLength="36.9" x="1617.3" y="1260.7436">userID</text><text fill="#000000" font-family="sans-serif" font-size="12.6" lengthAdjust="spacing" textLength="34.2" x="1618.65" y="1277.5025">:Email</text><rect fill="#E3E3E3" height="29.359" rx="2.25" ry="2.25" style="stroke:#181818;stroke-width:0.45;" width="146.7" x="1669.5" y="97.418"/><text fill="#000000" font-family="sans-serif" font-size="12.6" lengthAdjust="spacing" textLength="134.1" x="1675.8" y="117.3146">:greenSpaceRepository</text><rect fill="#E3E3E3" height="29.359" rx="2.25" ry="2.25" style="stroke:#181818;stroke-width:0.45;" width="146.7" x="1669.5" y="1240.8469"/><text fill="#000000" font-family="sans-serif" font-size="12.6" lengthAdjust="spacing" textLength="134.1" x="1675.8" y="1260.7436">:greenSpaceRepository</text><rect fill="#FFFFFF" height="1088.8699" style="stroke:#181818;stroke-width:0.9;" width="9" x="54" y="136.677"/><rect fill="#FFFFFF" height="67.3857" style="stroke:#181818;stroke-width:0.9;" width="9" x="306.9" y="157.6389"/><rect fill="#FFFFFF" height="152.2477" style="stroke:#181818;stroke-width:0.9;" width="9" x="306.9" y="253.1865"/><rect fill="#FFFFFF" height="791.9508" style="stroke:#181818;stroke-width:0.9;" width="9" x="306.9" y="433.5961"/><rect fill="#FFFFFF" height="669.4031" style="stroke:#181818;stroke-width:0.9;" width="9" x="807.75" y="527.9818"/><rect fill="#FFFFFF" height="28.1619" style="stroke:#181818;stroke-width:0.9;" width="9" x="956.25" y="948.6896"/><rect fill="#FFFFFF" height="28.1619" style="stroke:#181818;stroke-width:0.9;" width="9" x="1052.55" y="1005.0135"/><rect fill="#FFFFFF" height="94.0887" style="stroke:#181818;stroke-width:0.9;" width="9" x="1170.9" y="803.9391"/><rect fill="#FFFFFF" height="28.1619" style="stroke:#181818;stroke-width:0.9;" width="9" x="1307.25" y="556.1438"/><rect fill="#FFFFFF" height="28.1619" style="stroke:#181818;stroke-width:0.9;" width="9" x="1439.55" y="612.4676"/><rect fill="#FFFFFF" height="28.1619" style="stroke:#181818;stroke-width:0.9;" width="9" x="1553.85" y="668.7914"/><rect fill="#FFFFFF" height="28.1619" style="stroke:#181818;stroke-width:0.9;" width="9" x="1631.25" y="725.1152"/><rect fill="#FFFFFF" height="107.8857" style="stroke:#181818;stroke-width:0.9;" width="9" x="1738.35" y="1061.3373"/><polygon fill="#181818" points="296.1,154.0389,305.1,157.6389,296.1,161.2389,299.7,157.6389" style="stroke:#181818;stroke-width:0.9;"/><line style="stroke:#181818;stroke-width:0.9;" x1="63" x2="301.5" y1="157.6389" y2="157.6389"/><text fill="#000000" font-family="sans-serif" font-size="11.7" font-weight="bold" lengthAdjust="spacing" textLength="6.3" x="69.3" y="152.9024">1</text><text fill="#000000" font-family="sans-serif" font-size="11.7" lengthAdjust="spacing" textLength="180.9" x="79.2" y="152.9024">asks to create a new Green Space</text><path d="M9,171.1389 L74.7,171.1389 L74.7,179.5008 L65.7,188.5008 L9,188.5008 L9,171.1389 " fill="#EEEEEE" style="stroke:#000000;stroke-width:1.35;"/><rect fill="none" height="151.6096" style="stroke:#000000;stroke-width:1.35;" width="437.4" x="9" y="171.1389"/><text fill="#000000" font-family="sans-serif" font-size="11.7" font-weight="bold" lengthAdjust="spacing" textLength="25.2" x="22.5" y="184.6644">loop</text><text fill="#000000" font-family="sans-serif" font-size="9.9" font-weight="bold" lengthAdjust="spacing" textLength="141.3" x="88.2" y="183.622">[until typed data is validated]</text><polygon fill="#181818" points="72.9,221.4246,63.9,225.0246,72.9,228.6246,69.3,225.0246" style="stroke:#181818;stroke-width:0.9;"/><line style="stroke:#181818;stroke-width:0.9;stroke-dasharray:2.0,2.0;" x1="67.5" x2="310.5" y1="225.0246" y2="225.0246"/><text fill="#000000" font-family="sans-serif" font-size="11.7" font-weight="bold" lengthAdjust="spacing" textLength="6.3" x="78.3" y="212.5072">2</text><text fill="#000000" font-family="sans-serif" font-size="11.7" lengthAdjust="spacing" textLength="207" x="88.2" y="204.7263">requests data (name, type, area, street,</text><text fill="#000000" font-family="sans-serif" font-size="11.7" lengthAdjust="spacing" textLength="207.9" x="91.8" y="220.2882">streetNumber, postalCode, city, district)</text><polygon fill="#181818" points="296.1,249.5865,305.1,253.1865,296.1,256.7865,299.7,253.1865" style="stroke:#181818;stroke-width:0.9;"/><line style="stroke:#181818;stroke-width:0.9;" x1="63" x2="301.5" y1="253.1865" y2="253.1865"/><text fill="#000000" font-family="sans-serif" font-size="11.7" font-weight="bold" lengthAdjust="spacing" textLength="6.3" x="69.3" y="248.4501">3</text><text fill="#000000" font-family="sans-serif" font-size="11.7" lengthAdjust="spacing" textLength="109.8" x="79.2" y="248.4501">types requested data</text><line style="stroke:#181818;stroke-width:0.9;stroke-dasharray:2.0,2.0;" x1="315.9" x2="353.7" y1="281.3484" y2="281.3484"/><line style="stroke:#181818;stroke-width:0.9;stroke-dasharray:2.0,2.0;" x1="353.7" x2="353.7" y1="281.3484" y2="293.0484"/><line style="stroke:#181818;stroke-width:0.9;stroke-dasharray:2.0,2.0;" x1="316.8" x2="353.7" y1="293.0484" y2="293.0484"/><polygon fill="#181818" points="325.8,289.4484,316.8,293.0484,325.8,296.6484,322.2,293.0484" style="stroke:#181818;stroke-width:0.9;"/><text fill="#000000" font-family="sans-serif" font-size="11.7" font-weight="bold" lengthAdjust="spacing" textLength="6.3" x="322.2" y="276.612">4</text><text fill="#000000" font-family="sans-serif" font-size="11.7" lengthAdjust="spacing" textLength="103.5" x="332.1" y="276.612">Validates input data</text><line style="stroke:#181818;stroke-width:0.9;stroke-dasharray:2.0,2.0;" x1="315.9" x2="353.7" y1="365.5723" y2="365.5723"/><line style="stroke:#181818;stroke-width:0.9;stroke-dasharray:2.0,2.0;" x1="353.7" x2="353.7" y1="365.5723" y2="377.2723"/><line style="stroke:#181818;stroke-width:0.9;stroke-dasharray:2.0,2.0;" x1="316.8" x2="353.7" y1="377.2723" y2="377.2723"/><polygon fill="#181818" points="325.8,373.6723,316.8,377.2723,325.8,380.8723,322.2,377.2723" style="stroke:#181818;stroke-width:0.9;"/><text fill="#000000" font-family="sans-serif" font-size="11.7" font-weight="bold" lengthAdjust="spacing" textLength="6.3" x="322.2" y="353.0549">5</text><text fill="#000000" font-family="sans-serif" font-size="11.7" lengthAdjust="spacing" textLength="181.8" x="332.1" y="345.2739">keepData(name, type, area, street,</text><text fill="#000000" font-family="sans-serif" font-size="11.7" lengthAdjust="spacing" textLength="204.3" x="335.7" y="360.8358">streetNumber,postalCode, city, district)</text><polygon fill="#181818" points="72.9,401.8342,63.9,405.4342,72.9,409.0342,69.3,405.4342" style="stroke:#181818;stroke-width:0.9;"/><line style="stroke:#181818;stroke-width:0.9;stroke-dasharray:2.0,2.0;" x1="67.5" x2="310.5" y1="405.4342" y2="405.4342"/><text fill="#000000" font-family="sans-serif" font-size="11.7" font-weight="bold" lengthAdjust="spacing" textLength="6.3" x="78.3" y="400.6978">6</text><text fill="#000000" font-family="sans-serif" font-size="11.7" lengthAdjust="spacing" textLength="212.4" x="88.2" y="400.6978">shows all data and requests confirmation</text><polygon fill="#181818" points="296.1,429.9961,305.1,433.5961,296.1,437.1961,299.7,433.5961" style="stroke:#181818;stroke-width:0.9;"/><line style="stroke:#181818;stroke-width:0.9;" x1="63" x2="301.5" y1="433.5961" y2="433.5961"/><text fill="#000000" font-family="sans-serif" font-size="11.7" font-weight="bold" lengthAdjust="spacing" textLength="6.3" x="69.3" y="428.8597">7</text><text fill="#000000" font-family="sans-serif" font-size="11.7" lengthAdjust="spacing" textLength="70.2" x="79.2" y="428.8597">confirms data</text><polygon fill="#181818" points="581.4,473.7199,590.4,477.3199,581.4,480.9199,585,477.3199" style="stroke:#181818;stroke-width:0.9;"/><line style="stroke:#181818;stroke-width:0.9;" x1="315.9" x2="586.8" y1="477.3199" y2="477.3199"/><text fill="#000000" font-family="sans-serif" font-size="11.7" font-weight="bold" lengthAdjust="spacing" textLength="6.3" x="322.2" y="464.8025">8</text><text fill="#000000" font-family="sans-serif" font-size="11.7" lengthAdjust="spacing" textLength="244.8" x="332.1" y="457.0216">new GreenSpaceDTO(name, type, area, street,</text><text fill="#000000" font-family="sans-serif" font-size="11.7" lengthAdjust="spacing" textLength="204.3" x="335.7" y="472.5835">streetNumber,postalCode, city, district)</text><rect fill="#E3E3E3" height="29.359" rx="2.25" ry="2.25" style="stroke:#181818;stroke-width:0.45;" width="115.2" x="592.2" y="445.2609"/><text fill="#000000" font-family="sans-serif" font-size="12.6" lengthAdjust="spacing" textLength="102.6" x="598.5" y="465.1576">:GreenSpaceDTO</text><polygon fill="#181818" points="796.95,524.3818,805.95,527.9818,796.95,531.5818,800.55,527.9818" style="stroke:#181818;stroke-width:0.9;"/><line style="stroke:#181818;stroke-width:0.9;stroke-dasharray:2.0,2.0;" x1="315.9" x2="802.35" y1="527.9818" y2="527.9818"/><text fill="#000000" font-family="sans-serif" font-size="11.7" font-weight="bold" lengthAdjust="spacing" textLength="6.3" x="322.2" y="523.2454">9</text><text fill="#000000" font-family="sans-serif" font-size="11.7" lengthAdjust="spacing" textLength="196.2" x="332.1" y="523.2454">registerGreenSpace(greenSpaceDTO)</text><polygon fill="#181818" points="1296.45,552.5438,1305.45,556.1438,1296.45,559.7438,1300.05,556.1438" style="stroke:#181818;stroke-width:0.9;"/><line style="stroke:#181818;stroke-width:0.9;stroke-dasharray:2.0,2.0;" x1="816.75" x2="1301.85" y1="556.1438" y2="556.1438"/><text fill="#000000" font-family="sans-serif" font-size="11.7" font-weight="bold" lengthAdjust="spacing" textLength="12.6" x="823.05" y="551.4073">10</text><text fill="#000000" font-family="sans-serif" font-size="11.7" lengthAdjust="spacing" textLength="67.5" x="839.25" y="551.4073">getInstance()</text><polygon fill="#181818" points="826.65,580.7057,817.65,584.3057,826.65,587.9057,823.05,584.3057" style="stroke:#181818;stroke-width:0.9;"/><line style="stroke:#181818;stroke-width:0.9;stroke-dasharray:2.0,2.0;" x1="821.25" x2="1310.85" y1="584.3057" y2="584.3057"/><text fill="#000000" font-family="sans-serif" font-size="11.7" font-weight="bold" lengthAdjust="spacing" textLength="12.6" x="832.05" y="579.5692">11</text><text fill="#000000" font-family="sans-serif" font-size="11.7" lengthAdjust="spacing" textLength="46.8" x="848.25" y="579.5692">singleton</text><polygon fill="#181818" points="1428.75,608.8676,1437.75,612.4676,1428.75,616.0676,1432.35,612.4676" style="stroke:#181818;stroke-width:0.9;"/><line style="stroke:#181818;stroke-width:0.9;stroke-dasharray:2.0,2.0;" x1="816.75" x2="1434.15" y1="612.4676" y2="612.4676"/><text fill="#000000" font-family="sans-serif" font-size="11.7" font-weight="bold" lengthAdjust="spacing" textLength="12.6" x="823.05" y="607.7312">12</text><text fill="#000000" font-family="sans-serif" font-size="11.7" lengthAdjust="spacing" textLength="90" x="839.25" y="607.7312">getUserSession()</text><polygon fill="#181818" points="826.65,637.0295,817.65,640.6295,826.65,644.2295,823.05,640.6295" style="stroke:#181818;stroke-width:0.9;"/><line style="stroke:#181818;stroke-width:0.9;stroke-dasharray:2.0,2.0;" x1="821.25" x2="1443.15" y1="640.6295" y2="640.6295"/><text fill="#000000" font-family="sans-serif" font-size="11.7" font-weight="bold" lengthAdjust="spacing" textLength="12.6" x="832.05" y="635.8931">13</text><text fill="#000000" font-family="sans-serif" font-size="11.7" lengthAdjust="spacing" textLength="64.8" x="848.25" y="635.8931">userSession</text><polygon fill="#181818" points="1543.05,665.1914,1552.05,668.7914,1543.05,672.3914,1546.65,668.7914" style="stroke:#181818;stroke-width:0.9;"/><line style="stroke:#181818;stroke-width:0.9;stroke-dasharray:2.0,2.0;" x1="816.75" x2="1548.45" y1="668.7914" y2="668.7914"/><text fill="#000000" font-family="sans-serif" font-size="11.7" font-weight="bold" lengthAdjust="spacing" textLength="12.6" x="823.05" y="664.055">14</text><text fill="#000000" font-family="sans-serif" font-size="11.7" lengthAdjust="spacing" textLength="56.7" x="839.25" y="664.055">getUserId()</text><polygon fill="#181818" points="826.65,693.3533,817.65,696.9533,826.65,700.5533,823.05,696.9533" style="stroke:#181818;stroke-width:0.9;"/><line style="stroke:#181818;stroke-width:0.9;stroke-dasharray:2.0,2.0;" x1="821.25" x2="1557.45" y1="696.9533" y2="696.9533"/><text fill="#000000" font-family="sans-serif" font-size="11.7" font-weight="bold" lengthAdjust="spacing" textLength="12.6" x="832.05" y="692.2169">15</text><text fill="#000000" font-family="sans-serif" font-size="11.7" lengthAdjust="spacing" textLength="31.5" x="848.25" y="692.2169">userId</text><polygon fill="#181818" points="1620.45,721.5152,1629.45,725.1152,1620.45,728.7152,1624.05,725.1152" style="stroke:#181818;stroke-width:0.9;"/><line style="stroke:#181818;stroke-width:0.9;stroke-dasharray:2.0,2.0;" x1="816.75" x2="1625.85" y1="725.1152" y2="725.1152"/><text fill="#000000" font-family="sans-serif" font-size="11.7" font-weight="bold" lengthAdjust="spacing" textLength="12.6" x="823.05" y="720.3788">16</text><text fill="#000000" font-family="sans-serif" font-size="11.7" lengthAdjust="spacing" textLength="53.1" x="839.25" y="720.3788">getEmail()</text><polygon fill="#181818" points="826.65,749.6771,817.65,753.2771,826.65,756.8771,823.05,753.2771" style="stroke:#181818;stroke-width:0.9;"/><line style="stroke:#181818;stroke-width:0.9;stroke-dasharray:2.0,2.0;" x1="821.25" x2="1634.85" y1="753.2771" y2="753.2771"/><text fill="#000000" font-family="sans-serif" font-size="11.7" font-weight="bold" lengthAdjust="spacing" textLength="12.6" x="832.05" y="748.5407">17</text><text fill="#000000" font-family="sans-serif" font-size="11.7" lengthAdjust="spacing" textLength="27.9" x="848.25" y="748.5407">email</text><polygon fill="#181818" points="1160.1,800.3391,1169.1,803.9391,1160.1,807.5391,1163.7,803.9391" style="stroke:#181818;stroke-width:0.9;"/><line style="stroke:#181818;stroke-width:0.9;stroke-dasharray:2.0,2.0;" x1="816.75" x2="1165.5" y1="803.9391" y2="803.9391"/><text fill="#000000" font-family="sans-serif" font-size="11.7" font-weight="bold" lengthAdjust="spacing" textLength="12.6" x="823.05" y="799.2026">18</text><text fill="#000000" font-family="sans-serif" font-size="11.7" lengthAdjust="spacing" textLength="245.7" x="839.25" y="799.2026">toGreenSpace(greenSpaceDTO,managerEmail)</text><rect fill="none" height="38.9268" style="stroke:#000000;stroke-width:1.35;" width="171" x="1107" y="833.6391"/><path d="M1107,833.6391 L1162.8,833.6391 L1162.8,841.7391 L1153.8,850.7391 L1107,850.7391 L1107,833.6391 " fill="#EEEEEE" style="stroke:#000000;stroke-width:1.8;"/><text fill="#000000" font-family="sans-serif" font-size="11.7" font-weight="bold" lengthAdjust="spacing" textLength="15.3" x="1118.7" y="848.0646">ref</text><text fill="#000000" font-family="sans-serif" font-size="10.8" lengthAdjust="spacing" textLength="163.8" x="1110.6" y="865.9934">SD_toGreenSpaceDomainObject</text><polygon fill="#181818" points="826.65,894.4277,817.65,898.0277,826.65,901.6277,823.05,898.0277" style="stroke:#181818;stroke-width:0.9;"/><line style="stroke:#181818;stroke-width:0.9;stroke-dasharray:2.0,2.0;" x1="821.25" x2="1174.5" y1="898.0277" y2="898.0277"/><text fill="#000000" font-family="sans-serif" font-size="11.7" font-weight="bold" lengthAdjust="spacing" textLength="12.6" x="832.05" y="893.2913">19</text><text fill="#000000" font-family="sans-serif" font-size="11.7" lengthAdjust="spacing" textLength="62.1" x="848.25" y="893.2913">greenSpace</text><polygon fill="#181818" points="945.45,945.0896,954.45,948.6896,945.45,952.2896,949.05,948.6896" style="stroke:#181818;stroke-width:0.9;"/><line style="stroke:#181818;stroke-width:0.9;stroke-dasharray:2.0,2.0;" x1="816.75" x2="950.85" y1="948.6896" y2="948.6896"/><text fill="#000000" font-family="sans-serif" font-size="11.7" font-weight="bold" lengthAdjust="spacing" textLength="12.6" x="823.05" y="943.9532">20</text><text fill="#000000" font-family="sans-serif" font-size="11.7" lengthAdjust="spacing" textLength="67.5" x="839.25" y="943.9532">getInstance()</text><polygon fill="#181818" points="826.65,973.2516,817.65,976.8516,826.65,980.4516,823.05,976.8516" style="stroke:#181818;stroke-width:0.9;"/><line style="stroke:#181818;stroke-width:0.9;stroke-dasharray:2.0,2.0;" x1="821.25" x2="959.85" y1="976.8516" y2="976.8516"/><text fill="#000000" font-family="sans-serif" font-size="11.7" font-weight="bold" lengthAdjust="spacing" textLength="12.6" x="832.05" y="972.1151">21</text><text fill="#000000" font-family="sans-serif" font-size="11.7" lengthAdjust="spacing" textLength="60.3" x="848.25" y="972.1151">repositories</text><polygon fill="#181818" points="1041.75,1001.4135,1050.75,1005.0135,1041.75,1008.6135,1045.35,1005.0135" style="stroke:#181818;stroke-width:0.9;"/><line style="stroke:#181818;stroke-width:0.9;stroke-dasharray:2.0,2.0;" x1="816.75" x2="1047.15" y1="1005.0135" y2="1005.0135"/><text fill="#000000" font-family="sans-serif" font-size="11.7" font-weight="bold" lengthAdjust="spacing" textLength="12.6" x="823.05" y="1000.2771">22</text><text fill="#000000" font-family="sans-serif" font-size="11.7" lengthAdjust="spacing" textLength="144" x="839.25" y="1000.2771">getGreenSpaceRepository()</text><polygon fill="#181818" points="826.65,1029.5754,817.65,1033.1754,826.65,1036.7754,823.05,1033.1754" style="stroke:#181818;stroke-width:0.9;"/><line style="stroke:#181818;stroke-width:0.9;stroke-dasharray:2.0,2.0;" x1="821.25" x2="1056.15" y1="1033.1754" y2="1033.1754"/><text fill="#000000" font-family="sans-serif" font-size="11.7" font-weight="bold" lengthAdjust="spacing" textLength="12.6" x="832.05" y="1028.439">23</text><text fill="#000000" font-family="sans-serif" font-size="11.7" lengthAdjust="spacing" textLength="117.9" x="848.25" y="1028.439">greenSpaceRepository</text><polygon fill="#181818" points="1727.55,1057.7373,1736.55,1061.3373,1727.55,1064.9373,1731.15,1061.3373" style="stroke:#181818;stroke-width:0.9;"/><line style="stroke:#181818;stroke-width:0.9;stroke-dasharray:2.0,2.0;" x1="816.75" x2="1732.95" y1="1061.3373" y2="1061.3373"/><text fill="#000000" font-family="sans-serif" font-size="11.7" font-weight="bold" lengthAdjust="spacing" textLength="12.6" x="823.05" y="1056.6009">24</text><text fill="#000000" font-family="sans-serif" font-size="11.7" lengthAdjust="spacing" textLength="172.8" x="839.25" y="1056.6009">registerGreenSpace(greenSpace)</text><line style="stroke:#181818;stroke-width:0.9;stroke-dasharray:2.0,2.0;" x1="1747.35" x2="1785.15" y1="1089.4992" y2="1089.4992"/><line style="stroke:#181818;stroke-width:0.9;stroke-dasharray:2.0,2.0;" x1="1785.15" x2="1785.15" y1="1089.4992" y2="1101.1992"/><line style="stroke:#181818;stroke-width:0.9;stroke-dasharray:2.0,2.0;" x1="1748.25" x2="1785.15" y1="1101.1992" y2="1101.1992"/><polygon fill="#181818" points="1757.25,1097.5992,1748.25,1101.1992,1757.25,1104.7992,1753.65,1101.1992" style="stroke:#181818;stroke-width:0.9;"/><text fill="#000000" font-family="sans-serif" font-size="11.7" font-weight="bold" lengthAdjust="spacing" textLength="12.6" x="1753.65" y="1084.7628">25</text><text fill="#000000" font-family="sans-serif" font-size="11.7" lengthAdjust="spacing" textLength="88.2" x="1769.85" y="1084.7628">add(greenSpace)</text><line style="stroke:#181818;stroke-width:0.9;stroke-dasharray:2.0,2.0;" x1="1747.35" x2="1785.15" y1="1129.3611" y2="1129.3611"/><line style="stroke:#181818;stroke-width:0.9;stroke-dasharray:2.0,2.0;" x1="1785.15" x2="1785.15" y1="1129.3611" y2="1141.0611"/><line style="stroke:#181818;stroke-width:0.9;stroke-dasharray:2.0,2.0;" x1="1748.25" x2="1785.15" y1="1141.0611" y2="1141.0611"/><polygon fill="#181818" points="1757.25,1137.4611,1748.25,1141.0611,1757.25,1144.6611,1753.65,1141.0611" style="stroke:#181818;stroke-width:0.9;"/><text fill="#000000" font-family="sans-serif" font-size="11.7" font-weight="bold" lengthAdjust="spacing" textLength="12.6" x="1753.65" y="1124.6247">26</text><text fill="#000000" font-family="sans-serif" font-size="11.7" lengthAdjust="spacing" textLength="172.8" x="1769.85" y="1124.6247">validateGreenSpace(greenSpace)</text><polygon fill="#181818" points="826.65,1165.623,817.65,1169.223,826.65,1172.823,823.05,1169.223" style="stroke:#181818;stroke-width:0.9;"/><line style="stroke:#181818;stroke-width:0.9;stroke-dasharray:2.0,2.0;" x1="821.25" x2="1741.95" y1="1169.223" y2="1169.223"/><text fill="#000000" font-family="sans-serif" font-size="11.7" font-weight="bold" lengthAdjust="spacing" textLength="12.6" x="832.05" y="1164.4866">27</text><text fill="#000000" font-family="sans-serif" font-size="11.7" lengthAdjust="spacing" textLength="95.4" x="848.25" y="1164.4866">operation success</text><polygon fill="#181818" points="325.8,1193.785,316.8,1197.385,325.8,1200.985,322.2,1197.385" style="stroke:#181818;stroke-width:0.9;"/><line style="stroke:#181818;stroke-width:0.9;stroke-dasharray:2.0,2.0;" x1="320.4" x2="811.35" y1="1197.385" y2="1197.385"/><text fill="#000000" font-family="sans-serif" font-size="11.7" font-weight="bold" lengthAdjust="spacing" textLength="12.6" x="331.2" y="1192.6485">28</text><text fill="#000000" font-family="sans-serif" font-size="11.7" lengthAdjust="spacing" textLength="95.4" x="347.4" y="1192.6485">operation success</text><polygon fill="#181818" points="68.4,1221.9469,59.4,1225.5469,68.4,1229.1469,64.8,1225.5469" style="stroke:#181818;stroke-width:0.9;"/><line style="stroke:#181818;stroke-width:0.9;stroke-dasharray:2.0,2.0;" x1="63" x2="310.5" y1="1225.5469" y2="1225.5469"/><text fill="#000000" font-family="sans-serif" font-size="11.7" font-weight="bold" lengthAdjust="spacing" textLength="12.6" x="73.8" y="1220.8104">29</text><text fill="#000000" font-family="sans-serif" font-size="11.7" lengthAdjust="spacing" textLength="142.2" x="90" y="1220.8104">displays operation success</text><!--SRC=[hLPDJ-Cm4BtdLumujQiYeJtsW8GeGf6s2o9qJqWhaqo3jucTZHrG9NxyZfqlvyEbX_K5bxnvyzvaChOwS56makMGIo7ZjrBc2BgiC53TauB51vPYf8yPGecnPYBDN81wOudyu2A5FSiK1e7ccg2xwEhx5Ln2X7yh5372XhFKu1VHPXa4hD9ILFahbhIFjIpXuhv4511HGdmHMoOeQta1JC5zj0qeb-OnBvZGSB5-mfGhZQKDiH6xq49tuGZP8pRF3nP2VxzakvL2bpBB6W6tpqy_9Z65L9nqSrGMytJtEE8j7SYBc8y8XQA2nkXLlML5qQYejoFaJL5aF6QQIn6XKlJ7OcyU7uT0nSrhevgJ4dzCrAA6mPN2ia5I-Ax_LTUy_pqD2pSKSPSpdbcitOqif9tPhaJ7vhsRVzZ-uEzCess406ZH1YwlwMt3ce071Lf2NAB1C13u0KulsO2EWXg4LYPb0PNGF0DzB321X6a6NC4xopZjCR5HPb6EIqfbCgwf_wcPbLOrVY5OZYlBi096wLUWD2NMgnVHx7xQ5by1-T8ikvK98MEkZoj8gELA7kkbpPJWGE7OeqcXskoDt61Yp96x2zVmg_6YW3xLIjT11lFv-HcWIC1KOUpJfZiW5Xj2ds_mAt-JIget-Q60PLbTIaPokkB6KknvcTi6FQSw3Lxr3YVmDl-r-Vo_VQEWhalQuV1_p0Qck2F7PdpOvXcFcKNg2kWhrSctWoVeBPXbsGmjVQ_4cg9kXyXYEG1sB6OO39wOPQ8TSTry602Tmaz8N1tTtAW5EHFXXAP-sCo9woaTbSuWEg7JGzm9TkJrUiF49zMTRnEbBjT8Q9ZuD7ePEubsJjRYxDQdhPwd4rLrkAC7BSuZvsxoq3InHrbz2fcP97sDlChhmzloBYV4iqQQmsrifCGzo7VAvtaURNwxEZQIKeg7rpzqJvbWqSwO_RHQZIMdNBsTm5UqHj19TrtHp55_ybkThOczKdXXPbdUmOZfxnZUGCV4wGm3-QtmsiRzp9bzhgNkplEbjIxdxAlfCvzhTJvpPxE-RtmrgJrVOdjP6KjeI0VyB4cyXBwOzcPoXgOHHLCuIUrgZrHGLHpJzF5rTkl4Cpp3armEJtrupPx-T5uM6JkgyuYQgyr0uZRu1m00]--></g></svg>