<?xml version="1.0" encoding="us-ascii" standalone="no"?><svg xmlns="http://www.w3.org/2000/svg" xmlns:xlink="http://www.w3.org/1999/xlink" contentStyleType="text/css" height="579px" preserveAspectRatio="none" style="width:390px;height:579px;background:#FFFFFF;" version="1.1" viewBox="0 0 390 579" width="390px" zoomAndPan="magnify"><defs/><g><!--class Address--><g id="elem_Address"><rect codeLine="9" fill="#F1F1F1" height="558.7695" id="Address" rx="2.5" ry="2.5" style="stroke:#181818;stroke-width:0.5;" width="369" x="7" y="7"/><ellipse cx="161.25" cy="23" fill="#ADD1B2" rx="11" ry="11" style="stroke:#181818;stroke-width:1.0;"/><path d="M164.0156,18.875 Q164.1719,18.6563 164.3594,18.5469 Q164.5469,18.4375 164.7656,18.4375 Q165.1406,18.4375 165.375,18.7031 Q165.6094,18.9531 165.6094,19.5625 L165.6094,21.0156 Q165.6094,21.625 165.375,21.8906 Q165.1406,22.1563 164.7656,22.1563 Q164.4219,22.1563 164.2188,21.9531 Q164.0156,21.7656 163.9063,21.25 Q163.8594,20.8906 163.6719,20.7031 Q163.3438,20.3281 162.7344,20.1094 Q162.125,19.8906 161.5,19.8906 Q160.7344,19.8906 160.0938,20.2188 Q159.4688,20.5469 158.9688,21.2969 Q158.4844,22.0469 158.4844,23.0781 L158.4844,24.1719 Q158.4844,25.4063 159.375,26.2344 Q160.2656,27.0469 161.8594,27.0469 Q162.7969,27.0469 163.4531,26.7969 Q163.8438,26.6406 164.2656,26.2031 Q164.5313,25.9375 164.6719,25.8594 Q164.8281,25.7813 165.0313,25.7813 Q165.3594,25.7813 165.6094,26.0469 Q165.875,26.2969 165.875,26.6406 Q165.875,26.9844 165.5313,27.3906 Q165.0313,27.9688 164.2344,28.2969 Q163.1563,28.75 161.8594,28.75 Q160.3438,28.75 159.1406,28.125 Q158.1563,27.625 157.4688,26.5625 Q156.7813,25.4844 156.7813,24.2031 L156.7813,23.0469 Q156.7813,21.7188 157.3906,20.5781 Q158.0156,19.4219 159.1094,18.8125 Q160.2031,18.1875 161.4375,18.1875 Q162.1719,18.1875 162.8125,18.3594 Q163.4688,18.5156 164.0156,18.875 Z " fill="#000000"/><text fill="#000000" font-family="sans-serif" font-size="14" lengthAdjust="spacing" textLength="52" x="181.75" y="28.7969">Address</text><line style="stroke:#181818;stroke-width:0.5;" x1="8" x2="375" y1="39" y2="39"/><text fill="#000000" font-family="sans-serif" font-size="14" lengthAdjust="spacing" textLength="82" x="13" y="58.1074">-String street</text><text fill="#000000" font-family="sans-serif" font-size="14" lengthAdjust="spacing" textLength="109" x="13" y="76.7285">-int streetNumber</text><text fill="#000000" font-family="sans-serif" font-size="14" lengthAdjust="spacing" textLength="118" x="13" y="95.3496">-String postalCode</text><text fill="#000000" font-family="sans-serif" font-size="14" lengthAdjust="spacing" textLength="67" x="13" y="113.9707">-String city</text><text fill="#000000" font-family="sans-serif" font-size="14" lengthAdjust="spacing" textLength="87" x="13" y="132.5918">-String district</text><text fill="#000000" font-family="sans-serif" font-size="14" lengthAdjust="spacing" textLength="357" x="13" y="173.834">+Address(street, streetNumber, postalCode, city, district)</text><text fill="#000000" font-family="sans-serif" font-size="14" lengthAdjust="spacing" textLength="67" x="13" y="192.4551">+toString()</text><text fill="#000000" font-family="sans-serif" font-size="14" lengthAdjust="spacing" textLength="52" x="13" y="211.0762">+clone()</text><line style="stroke:#181818;stroke-width:1.0;" x1="8" x2="164.5" y1="149.416" y2="149.416"/><text fill="#000000" font-family="sans-serif" font-size="14" lengthAdjust="spacing" textLength="54" x="164.5" y="154.7129">Methods</text><line style="stroke:#181818;stroke-width:1.0;" x1="218.5" x2="375" y1="149.416" y2="149.416"/><text fill="#000000" font-family="sans-serif" font-size="14" lengthAdjust="spacing" textLength="76" x="13" y="252.3184">+getStreet()</text><text fill="#000000" font-family="sans-serif" font-size="14" lengthAdjust="spacing" textLength="125" x="13" y="270.9395">+getStreetNumber()</text><text fill="#000000" font-family="sans-serif" font-size="14" lengthAdjust="spacing" textLength="111" x="13" y="289.5605">+getPostalCode()</text><text fill="#000000" font-family="sans-serif" font-size="14" lengthAdjust="spacing" textLength="62" x="13" y="308.1816">+getCity()</text><text fill="#000000" font-family="sans-serif" font-size="14" lengthAdjust="spacing" textLength="81" x="13" y="326.8027">+getDistrict()</text><line style="stroke:#181818;stroke-width:1.0;stroke-dasharray:1.0,2.0;" x1="8" x2="168" y1="227.9004" y2="227.9004"/><text fill="#000000" font-family="sans-serif" font-size="14" lengthAdjust="spacing" textLength="47" x="168" y="233.1973">Getters</text><line style="stroke:#181818;stroke-width:1.0;stroke-dasharray:1.0,2.0;" x1="215" x2="375" y1="227.9004" y2="227.9004"/><text fill="#000000" font-family="sans-serif" font-size="14" lengthAdjust="spacing" textLength="111" x="13" y="368.0449">+setStreet(street)</text><text fill="#000000" font-family="sans-serif" font-size="14" lengthAdjust="spacing" textLength="209" x="13" y="386.666">+setStreetNumber(streetNumber)</text><text fill="#000000" font-family="sans-serif" font-size="14" lengthAdjust="spacing" textLength="182" x="13" y="405.2871">+setPostalCode(postalCode)</text><text fill="#000000" font-family="sans-serif" font-size="14" lengthAdjust="spacing" textLength="82" x="13" y="423.9082">+setCity(city)</text><text fill="#000000" font-family="sans-serif" font-size="14" lengthAdjust="spacing" textLength="121" x="13" y="442.5293">+setDistrict(district)</text><line style="stroke:#181818;stroke-width:1.0;stroke-dasharray:1.0,2.0;" x1="8" x2="169" y1="343.627" y2="343.627"/><text fill="#000000" font-family="sans-serif" font-size="14" lengthAdjust="spacing" textLength="45" x="169" y="348.9238">Setters</text><line style="stroke:#181818;stroke-width:1.0;stroke-dasharray:1.0,2.0;" x1="214" x2="375" y1="343.627" y2="343.627"/><text fill="#000000" font-family="sans-serif" font-size="14" lengthAdjust="spacing" textLength="138" x="13" y="483.7715">-validateStreet(street)</text><text fill="#000000" font-family="sans-serif" font-size="14" lengthAdjust="spacing" textLength="236" x="13" y="502.3926">-validateStreetNumber(streetNumber)</text><text fill="#000000" font-family="sans-serif" font-size="14" lengthAdjust="spacing" textLength="209" x="13" y="521.0137">-validatePostalCode(postalCode)</text><text fill="#000000" font-family="sans-serif" font-size="14" lengthAdjust="spacing" textLength="109" x="13" y="539.6348">-validateCity(city)</text><text fill="#000000" font-family="sans-serif" font-size="14" lengthAdjust="spacing" textLength="148" x="13" y="558.2559">-validateDistrict(district)</text><line style="stroke:#181818;stroke-width:1.0;stroke-dasharray:1.0,2.0;" x1="8" x2="131.5" y1="459.3535" y2="459.3535"/><text fill="#000000" font-family="sans-serif" font-size="14" lengthAdjust="spacing" textLength="120" x="131.5" y="464.6504">Validation Methods</text><line style="stroke:#181818;stroke-width:1.0;stroke-dasharray:1.0,2.0;" x1="251.5" x2="375" y1="459.3535" y2="459.3535"/></g><!--SRC=[VP51JuGm48Nl_HMzxMu4ub_Oh8dne34XyTvjHsYsT4WxQD3utsMXMmf1kSrxh_Ezbfs_QDiA9nhUe4LPEso0a-k0pKuhv4LKK59lW3kG96nbqe2lXS9FRIl-BenF7QCjKDy2Rz7qru7jDanqX2mv9Otm_aZazBaZU99eI_q5_9wnqU57fHnu_ytuyEMy7883svC3eA1fIq5uwPepk6MqHK_2d531KfUQ-gMYzB15ox0sVmQgKVay7-UxMvFzXCeMo2p1PEFgBAuxXFE44sT_4wH12s4gYaSW0kUB8hWLK3aIOZug4pFLNoCzLKz3ZtH-28qYirmnVMHEbpkizK1EhvvaaXRpSoJ-sEVwE8aMEosVgoZUXD5Aa4RBmvy8DNF-CLcmqNLj_bbu3lxJUWwjgi_6HlyVDdo_]--></g></svg>