<?xml version="1.0" encoding="us-ascii" standalone="no"?><svg xmlns="http://www.w3.org/2000/svg" xmlns:xlink="http://www.w3.org/1999/xlink" contentStyleType="text/css" height="1150px" preserveAspectRatio="none" style="width:928px;height:1150px;background:#FFFFFF;" version="1.1" viewBox="0 0 928 1150" width="928px" zoomAndPan="magnify"><defs/><g><text fill="#000000" font-family="sans-serif" font-size="14" font-weight="bold" lengthAdjust="spacing" textLength="155" x="379.5" y="25.1074">US020 - Class Diagram</text><!--class GreenSpace--><g id="elem_GreenSpace"><rect codeLine="10" fill="#F1F1F1" height="159.7266" id="GreenSpace" rx="2.5" ry="2.5" style="stroke:#181818;stroke-width:0.5;" width="264" x="356" y="744.6211"/><ellipse cx="443.75" cy="760.6211" fill="#ADD1B2" rx="11" ry="11" style="stroke:#181818;stroke-width:1.0;"/><path d="M446.5156,756.4961 Q446.6719,756.2773 446.8594,756.168 Q447.0469,756.0586 447.2656,756.0586 Q447.6406,756.0586 447.875,756.3242 Q448.1094,756.5742 448.1094,757.1836 L448.1094,758.6367 Q448.1094,759.2461 447.875,759.5117 Q447.6406,759.7773 447.2656,759.7773 Q446.9219,759.7773 446.7188,759.5742 Q446.5156,759.3867 446.4063,758.8711 Q446.3594,758.5117 446.1719,758.3242 Q445.8438,757.9492 445.2344,757.7305 Q444.625,757.5117 444,757.5117 Q443.2344,757.5117 442.5938,757.8398 Q441.9688,758.168 441.4688,758.918 Q440.9844,759.668 440.9844,760.6992 L440.9844,761.793 Q440.9844,763.0273 441.875,763.8555 Q442.7656,764.668 444.3594,764.668 Q445.2969,764.668 445.9531,764.418 Q446.3438,764.2617 446.7656,763.8242 Q447.0313,763.5586 447.1719,763.4805 Q447.3281,763.4023 447.5313,763.4023 Q447.8594,763.4023 448.1094,763.668 Q448.375,763.918 448.375,764.2617 Q448.375,764.6055 448.0313,765.0117 Q447.5313,765.5898 446.7344,765.918 Q445.6563,766.3711 444.3594,766.3711 Q442.8438,766.3711 441.6406,765.7461 Q440.6563,765.2461 439.9688,764.1836 Q439.2813,763.1055 439.2813,761.8242 L439.2813,760.668 Q439.2813,759.3398 439.8906,758.1992 Q440.5156,757.043 441.6094,756.4336 Q442.7031,755.8086 443.9375,755.8086 Q444.6719,755.8086 445.3125,755.9805 Q445.9688,756.1367 446.5156,756.4961 Z " fill="#000000"/><text fill="#000000" font-family="sans-serif" font-size="14" lengthAdjust="spacing" textLength="80" x="464.25" y="766.418">GreenSpace</text><line style="stroke:#181818;stroke-width:0.5;" x1="357" x2="619" y1="776.6211" y2="776.6211"/><text fill="#000000" font-family="sans-serif" font-size="14" lengthAdjust="spacing" textLength="148" x="362" y="795.7285">-GreenSpaceType type</text><text fill="#000000" font-family="sans-serif" font-size="14" lengthAdjust="spacing" textLength="81" x="362" y="814.3496">-String name</text><text fill="#000000" font-family="sans-serif" font-size="14" lengthAdjust="spacing" textLength="112" x="362" y="832.9707">-Address address</text><text fill="#000000" font-family="sans-serif" font-size="14" lengthAdjust="spacing" textLength="93" x="362" y="851.5918">-float totalArea</text><line style="stroke:#181818;stroke-width:0.5;" x1="357" x2="619" y1="859.1055" y2="859.1055"/><text fill="#000000" font-family="sans-serif" font-size="14" lengthAdjust="spacing" textLength="252" x="362" y="878.2129">+GreenSpace(type,name,streetNumber,</text><text fill="#000000" font-family="sans-serif" font-size="14" lengthAdjust="spacing" textLength="208" x="362" y="896.834">postalCode,city,district,totalArea)</text></g><!--class GreenSpaceRepository--><g id="elem_GreenSpaceRepository"><rect codeLine="18" fill="#F1F1F1" height="141.1055" id="GreenSpaceRepository" rx="2.5" ry="2.5" style="stroke:#181818;stroke-width:0.5;" width="512" x="232" y="524.6211"/><ellipse cx="409.75" cy="540.6211" fill="#ADD1B2" rx="11" ry="11" style="stroke:#181818;stroke-width:1.0;"/><path d="M412.5156,536.4961 Q412.6719,536.2773 412.8594,536.168 Q413.0469,536.0586 413.2656,536.0586 Q413.6406,536.0586 413.875,536.3242 Q414.1094,536.5742 414.1094,537.1836 L414.1094,538.6367 Q414.1094,539.2461 413.875,539.5117 Q413.6406,539.7773 413.2656,539.7773 Q412.9219,539.7773 412.7188,539.5742 Q412.5156,539.3867 412.4063,538.8711 Q412.3594,538.5117 412.1719,538.3242 Q411.8438,537.9492 411.2344,537.7305 Q410.625,537.5117 410,537.5117 Q409.2344,537.5117 408.5938,537.8398 Q407.9688,538.168 407.4688,538.918 Q406.9844,539.668 406.9844,540.6992 L406.9844,541.793 Q406.9844,543.0273 407.875,543.8555 Q408.7656,544.668 410.3594,544.668 Q411.2969,544.668 411.9531,544.418 Q412.3438,544.2617 412.7656,543.8242 Q413.0313,543.5586 413.1719,543.4805 Q413.3281,543.4023 413.5313,543.4023 Q413.8594,543.4023 414.1094,543.668 Q414.375,543.918 414.375,544.2617 Q414.375,544.6055 414.0313,545.0117 Q413.5313,545.5898 412.7344,545.918 Q411.6563,546.3711 410.3594,546.3711 Q408.8438,546.3711 407.6406,545.7461 Q406.6563,545.2461 405.9688,544.1836 Q405.2813,543.1055 405.2813,541.8242 L405.2813,540.668 Q405.2813,539.3398 405.8906,538.1992 Q406.5156,537.043 407.6094,536.4336 Q408.7031,535.8086 409.9375,535.8086 Q410.6719,535.8086 411.3125,535.9805 Q411.9688,536.1367 412.5156,536.4961 Z " fill="#000000"/><text fill="#000000" font-family="sans-serif" font-size="14" lengthAdjust="spacing" textLength="148" x="430.25" y="546.418">GreenSpaceRepository</text><line style="stroke:#181818;stroke-width:0.5;" x1="233" x2="743" y1="556.6211" y2="556.6211"/><text fill="#000000" font-family="sans-serif" font-size="14" lengthAdjust="spacing" textLength="226" x="238" y="575.7285">-List&lt;GreenSpace&gt; greenSpaceList</text><line style="stroke:#181818;stroke-width:0.5;" x1="233" x2="743" y1="583.2422" y2="583.2422"/><text fill="#000000" font-family="sans-serif" font-size="14" lengthAdjust="spacing" textLength="166" x="238" y="602.3496">+GreenSpaceRepository()</text><text fill="#000000" font-family="sans-serif" font-size="14" lengthAdjust="spacing" textLength="147" x="238" y="620.9707">+add(newGreenSpace)</text><text fill="#000000" font-family="sans-serif" font-size="14" lengthAdjust="spacing" textLength="249" x="238" y="639.5918">-validateGreenSpace(newGreenSpace)</text><text fill="#000000" font-family="sans-serif" font-size="14" lengthAdjust="spacing" textLength="500" x="238" y="658.2129">+createGreenSpace(type,name,streetNumber,postalCode,city,district,totalArea)</text></g><!--class Repositories--><g id="elem_Repositories"><rect codeLine="27" fill="#F1F1F1" height="103.8633" id="Repositories" rx="2.5" ry="2.5" style="stroke:#181818;stroke-width:0.5;" width="198" x="219" y="359.6211"/><ellipse cx="274.25" cy="375.6211" fill="#ADD1B2" rx="11" ry="11" style="stroke:#181818;stroke-width:1.0;"/><path d="M277.0156,371.4961 Q277.1719,371.2773 277.3594,371.168 Q277.5469,371.0586 277.7656,371.0586 Q278.1406,371.0586 278.375,371.3242 Q278.6094,371.5742 278.6094,372.1836 L278.6094,373.6367 Q278.6094,374.2461 278.375,374.5117 Q278.1406,374.7773 277.7656,374.7773 Q277.4219,374.7773 277.2188,374.5742 Q277.0156,374.3867 276.9063,373.8711 Q276.8594,373.5117 276.6719,373.3242 Q276.3438,372.9492 275.7344,372.7305 Q275.125,372.5117 274.5,372.5117 Q273.7344,372.5117 273.0938,372.8398 Q272.4688,373.168 271.9688,373.918 Q271.4844,374.668 271.4844,375.6992 L271.4844,376.793 Q271.4844,378.0273 272.375,378.8555 Q273.2656,379.668 274.8594,379.668 Q275.7969,379.668 276.4531,379.418 Q276.8438,379.2617 277.2656,378.8242 Q277.5313,378.5586 277.6719,378.4805 Q277.8281,378.4023 278.0313,378.4023 Q278.3594,378.4023 278.6094,378.668 Q278.875,378.918 278.875,379.2617 Q278.875,379.6055 278.5313,380.0117 Q278.0313,380.5898 277.2344,380.918 Q276.1563,381.3711 274.8594,381.3711 Q273.3438,381.3711 272.1406,380.7461 Q271.1563,380.2461 270.4688,379.1836 Q269.7813,378.1055 269.7813,376.8242 L269.7813,375.668 Q269.7813,374.3398 270.3906,373.1992 Q271.0156,372.043 272.1094,371.4336 Q273.2031,370.8086 274.4375,370.8086 Q275.1719,370.8086 275.8125,370.9805 Q276.4688,371.1367 277.0156,371.4961 Z " fill="#000000"/><text fill="#000000" font-family="sans-serif" font-size="14" lengthAdjust="spacing" textLength="79" x="294.75" y="381.418">Repositories</text><line style="stroke:#181818;stroke-width:0.5;" x1="220" x2="416" y1="391.6211" y2="391.6211"/><line style="stroke:#181818;stroke-width:0.5;" x1="220" x2="416" y1="399.6211" y2="399.6211"/><text fill="#000000" font-family="sans-serif" font-size="14" lengthAdjust="spacing" textLength="94" x="225" y="418.7285">-Repositories()</text><text fill="#000000" font-family="sans-serif" font-size="14" lengthAdjust="spacing" textLength="182" x="225" y="437.3496">+getInstance() : Repositories</text><text fill="#000000" font-family="sans-serif" font-size="14" lengthAdjust="spacing" textLength="186" x="225" y="455.9707">+getGreenSpaceRepository()</text></g><!--class RegisterGreenSpaceController--><g id="elem_RegisterGreenSpaceController"><rect codeLine="33" fill="#F1F1F1" height="122.4844" id="RegisterGreenSpaceController" rx="2.5" ry="2.5" style="stroke:#181818;stroke-width:0.5;" width="512" x="248" y="102.6211"/><ellipse cx="402.25" cy="118.6211" fill="#ADD1B2" rx="11" ry="11" style="stroke:#181818;stroke-width:1.0;"/><path d="M405.0156,114.4961 Q405.1719,114.2773 405.3594,114.168 Q405.5469,114.0586 405.7656,114.0586 Q406.1406,114.0586 406.375,114.3242 Q406.6094,114.5742 406.6094,115.1836 L406.6094,116.6367 Q406.6094,117.2461 406.375,117.5117 Q406.1406,117.7773 405.7656,117.7773 Q405.4219,117.7773 405.2188,117.5742 Q405.0156,117.3867 404.9063,116.8711 Q404.8594,116.5117 404.6719,116.3242 Q404.3438,115.9492 403.7344,115.7305 Q403.125,115.5117 402.5,115.5117 Q401.7344,115.5117 401.0938,115.8398 Q400.4688,116.168 399.9688,116.918 Q399.4844,117.668 399.4844,118.6992 L399.4844,119.793 Q399.4844,121.0273 400.375,121.8555 Q401.2656,122.668 402.8594,122.668 Q403.7969,122.668 404.4531,122.418 Q404.8438,122.2617 405.2656,121.8242 Q405.5313,121.5586 405.6719,121.4805 Q405.8281,121.4023 406.0313,121.4023 Q406.3594,121.4023 406.6094,121.668 Q406.875,121.918 406.875,122.2617 Q406.875,122.6055 406.5313,123.0117 Q406.0313,123.5898 405.2344,123.918 Q404.1563,124.3711 402.8594,124.3711 Q401.3438,124.3711 400.1406,123.7461 Q399.1563,123.2461 398.4688,122.1836 Q397.7813,121.1055 397.7813,119.8242 L397.7813,118.668 Q397.7813,117.3398 398.3906,116.1992 Q399.0156,115.043 400.1094,114.4336 Q401.2031,113.8086 402.4375,113.8086 Q403.1719,113.8086 403.8125,113.9805 Q404.4688,114.1367 405.0156,114.4961 Z " fill="#000000"/><text fill="#000000" font-family="sans-serif" font-size="14" lengthAdjust="spacing" textLength="195" x="422.75" y="124.418">RegisterGreenSpaceController</text><line style="stroke:#181818;stroke-width:0.5;" x1="249" x2="759" y1="134.6211" y2="134.6211"/><line style="stroke:#181818;stroke-width:0.5;" x1="249" x2="759" y1="142.6211" y2="142.6211"/><text fill="#000000" font-family="sans-serif" font-size="14" lengthAdjust="spacing" textLength="358" x="254" y="161.7285">+RegisterGreenSpaceController(greenSpaceRepository)</text><text fill="#000000" font-family="sans-serif" font-size="14" lengthAdjust="spacing" textLength="213" x="254" y="180.3496">+RegisterGreenSpaceController()</text><text fill="#000000" font-family="sans-serif" font-size="14" lengthAdjust="spacing" textLength="183" x="254" y="198.9707">-getGreenSpaceRepository()</text><text fill="#000000" font-family="sans-serif" font-size="14" lengthAdjust="spacing" textLength="500" x="254" y="217.5918">+createGreenSpace(type,name,streetNumber,postalCode,city,district,totalArea)</text></g><!--class RegisterGreenSpaceUI--><g id="elem_RegisterGreenSpaceUI"><rect codeLine="41" fill="#F1F1F1" height="234.2109" id="RegisterGreenSpaceUI" rx="2.5" ry="2.5" style="stroke:#181818;stroke-width:0.5;" width="177" x="35.5" y="46.6211"/><ellipse cx="50.5" cy="62.6211" fill="#ADD1B2" rx="11" ry="11" style="stroke:#181818;stroke-width:1.0;"/><path d="M53.2656,58.4961 Q53.4219,58.2773 53.6094,58.168 Q53.7969,58.0586 54.0156,58.0586 Q54.3906,58.0586 54.625,58.3242 Q54.8594,58.5742 54.8594,59.1836 L54.8594,60.6367 Q54.8594,61.2461 54.625,61.5117 Q54.3906,61.7773 54.0156,61.7773 Q53.6719,61.7773 53.4688,61.5742 Q53.2656,61.3867 53.1563,60.8711 Q53.1094,60.5117 52.9219,60.3242 Q52.5938,59.9492 51.9844,59.7305 Q51.375,59.5117 50.75,59.5117 Q49.9844,59.5117 49.3438,59.8398 Q48.7188,60.168 48.2188,60.918 Q47.7344,61.668 47.7344,62.6992 L47.7344,63.793 Q47.7344,65.0273 48.625,65.8555 Q49.5156,66.668 51.1094,66.668 Q52.0469,66.668 52.7031,66.418 Q53.0938,66.2617 53.5156,65.8242 Q53.7813,65.5586 53.9219,65.4805 Q54.0781,65.4023 54.2813,65.4023 Q54.6094,65.4023 54.8594,65.668 Q55.125,65.918 55.125,66.2617 Q55.125,66.6055 54.7813,67.0117 Q54.2813,67.5898 53.4844,67.918 Q52.4063,68.3711 51.1094,68.3711 Q49.5938,68.3711 48.3906,67.7461 Q47.4063,67.2461 46.7188,66.1836 Q46.0313,65.1055 46.0313,63.8242 L46.0313,62.668 Q46.0313,61.3398 46.6406,60.1992 Q47.2656,59.043 48.3594,58.4336 Q49.4531,57.8086 50.6875,57.8086 Q51.4219,57.8086 52.0625,57.9805 Q52.7188,58.1367 53.2656,58.4961 Z " fill="#000000"/><text fill="#000000" font-family="sans-serif" font-size="14" lengthAdjust="spacing" textLength="145" x="64.5" y="68.418">RegisterGreenSpaceUI</text><line style="stroke:#181818;stroke-width:0.5;" x1="36.5" x2="211.5" y1="78.6211" y2="78.6211"/><text fill="#000000" font-family="sans-serif" font-size="14" lengthAdjust="spacing" textLength="71" x="41.5" y="97.7285">-string type</text><text fill="#000000" font-family="sans-serif" font-size="14" lengthAdjust="spacing" textLength="79" x="41.5" y="116.3496">-string name</text><text fill="#000000" font-family="sans-serif" font-size="14" lengthAdjust="spacing" textLength="80" x="41.5" y="134.9707">-string street</text><text fill="#000000" font-family="sans-serif" font-size="14" lengthAdjust="spacing" textLength="109" x="41.5" y="153.5918">-int streetNumber</text><text fill="#000000" font-family="sans-serif" font-size="14" lengthAdjust="spacing" textLength="116" x="41.5" y="172.2129">-string postalCode</text><text fill="#000000" font-family="sans-serif" font-size="14" lengthAdjust="spacing" textLength="65" x="41.5" y="190.834">-string city</text><text fill="#000000" font-family="sans-serif" font-size="14" lengthAdjust="spacing" textLength="85" x="41.5" y="209.4551">-string district</text><text fill="#000000" font-family="sans-serif" font-size="14" lengthAdjust="spacing" textLength="93" x="41.5" y="228.0762">-float totalArea</text><line style="stroke:#181818;stroke-width:0.5;" x1="36.5" x2="211.5" y1="235.5898" y2="235.5898"/><text fill="#000000" font-family="sans-serif" font-size="14" lengthAdjust="spacing" textLength="93" x="41.5" y="254.6973">-requestData()</text><text fill="#000000" font-family="sans-serif" font-size="14" lengthAdjust="spacing" textLength="86" x="41.5" y="273.3184">-submitData()</text></g><!--class Address--><g id="elem_Address"><rect codeLine="54" fill="#F1F1F1" height="159.7266" id="Address" rx="2.5" ry="2.5" style="stroke:#181818;stroke-width:0.5;" width="369" x="303.5" y="983.6211"/><ellipse cx="457.75" cy="999.6211" fill="#ADD1B2" rx="11" ry="11" style="stroke:#181818;stroke-width:1.0;"/><path d="M460.5156,995.4961 Q460.6719,995.2773 460.8594,995.168 Q461.0469,995.0586 461.2656,995.0586 Q461.6406,995.0586 461.875,995.3242 Q462.1094,995.5742 462.1094,996.1836 L462.1094,997.6367 Q462.1094,998.2461 461.875,998.5117 Q461.6406,998.7773 461.2656,998.7773 Q460.9219,998.7773 460.7188,998.5742 Q460.5156,998.3867 460.4063,997.8711 Q460.3594,997.5117 460.1719,997.3242 Q459.8438,996.9492 459.2344,996.7305 Q458.625,996.5117 458,996.5117 Q457.2344,996.5117 456.5938,996.8398 Q455.9688,997.168 455.4688,997.918 Q454.9844,998.668 454.9844,999.6992 L454.9844,1000.793 Q454.9844,1002.0273 455.875,1002.8555 Q456.7656,1003.668 458.3594,1003.668 Q459.2969,1003.668 459.9531,1003.418 Q460.3438,1003.2617 460.7656,1002.8242 Q461.0313,1002.5586 461.1719,1002.4805 Q461.3281,1002.4023 461.5313,1002.4023 Q461.8594,1002.4023 462.1094,1002.668 Q462.375,1002.918 462.375,1003.2617 Q462.375,1003.6055 462.0313,1004.0117 Q461.5313,1004.5898 460.7344,1004.918 Q459.6563,1005.3711 458.3594,1005.3711 Q456.8438,1005.3711 455.6406,1004.7461 Q454.6563,1004.2461 453.9688,1003.1836 Q453.2813,1002.1055 453.2813,1000.8242 L453.2813,999.668 Q453.2813,998.3398 453.8906,997.1992 Q454.5156,996.043 455.6094,995.4336 Q456.7031,994.8086 457.9375,994.8086 Q458.6719,994.8086 459.3125,994.9805 Q459.9688,995.1367 460.5156,995.4961 Z " fill="#000000"/><text fill="#000000" font-family="sans-serif" font-size="14" lengthAdjust="spacing" textLength="52" x="478.25" y="1005.418">Address</text><line style="stroke:#181818;stroke-width:0.5;" x1="304.5" x2="671.5" y1="1015.6211" y2="1015.6211"/><text fill="#000000" font-family="sans-serif" font-size="14" lengthAdjust="spacing" textLength="82" x="309.5" y="1034.7285">-String street</text><text fill="#000000" font-family="sans-serif" font-size="14" lengthAdjust="spacing" textLength="109" x="309.5" y="1053.3496">-int streetNumber</text><text fill="#000000" font-family="sans-serif" font-size="14" lengthAdjust="spacing" textLength="118" x="309.5" y="1071.9707">-String postalCode</text><text fill="#000000" font-family="sans-serif" font-size="14" lengthAdjust="spacing" textLength="67" x="309.5" y="1090.5918">-String city</text><text fill="#000000" font-family="sans-serif" font-size="14" lengthAdjust="spacing" textLength="87" x="309.5" y="1109.2129">-String district</text><line style="stroke:#181818;stroke-width:0.5;" x1="304.5" x2="671.5" y1="1116.7266" y2="1116.7266"/><text fill="#000000" font-family="sans-serif" font-size="14" lengthAdjust="spacing" textLength="357" x="309.5" y="1135.834">+Address(street, streetNumber, postalCode, city, district)</text></g><!--class ApplicationController--><g id="elem_ApplicationController"><rect codeLine="63" fill="#F1F1F1" height="48" id="ApplicationController" rx="2.5" ry="2.5" style="stroke:#181818;stroke-width:0.5;" width="163" x="20.5" y="387.6211"/><ellipse cx="35.5" cy="403.6211" fill="#ADD1B2" rx="11" ry="11" style="stroke:#181818;stroke-width:1.0;"/><path d="M38.2656,399.4961 Q38.4219,399.2773 38.6094,399.168 Q38.7969,399.0586 39.0156,399.0586 Q39.3906,399.0586 39.625,399.3242 Q39.8594,399.5742 39.8594,400.1836 L39.8594,401.6367 Q39.8594,402.2461 39.625,402.5117 Q39.3906,402.7773 39.0156,402.7773 Q38.6719,402.7773 38.4688,402.5742 Q38.2656,402.3867 38.1563,401.8711 Q38.1094,401.5117 37.9219,401.3242 Q37.5938,400.9492 36.9844,400.7305 Q36.375,400.5117 35.75,400.5117 Q34.9844,400.5117 34.3438,400.8398 Q33.7188,401.168 33.2188,401.918 Q32.7344,402.668 32.7344,403.6992 L32.7344,404.793 Q32.7344,406.0273 33.625,406.8555 Q34.5156,407.668 36.1094,407.668 Q37.0469,407.668 37.7031,407.418 Q38.0938,407.2617 38.5156,406.8242 Q38.7813,406.5586 38.9219,406.4805 Q39.0781,406.4023 39.2813,406.4023 Q39.6094,406.4023 39.8594,406.668 Q40.125,406.918 40.125,407.2617 Q40.125,407.6055 39.7813,408.0117 Q39.2813,408.5898 38.4844,408.918 Q37.4063,409.3711 36.1094,409.3711 Q34.5938,409.3711 33.3906,408.7461 Q32.4063,408.2461 31.7188,407.1836 Q31.0313,406.1055 31.0313,404.8242 L31.0313,403.668 Q31.0313,402.3398 31.6406,401.1992 Q32.2656,400.043 33.3594,399.4336 Q34.4531,398.8086 35.6875,398.8086 Q36.4219,398.8086 37.0625,398.9805 Q37.7188,399.1367 38.2656,399.4961 Z " fill="#000000"/><text fill="#000000" font-family="sans-serif" font-size="14" lengthAdjust="spacing" textLength="131" x="49.5" y="409.418">ApplicationController</text><line style="stroke:#181818;stroke-width:0.5;" x1="21.5" x2="182.5" y1="419.6211" y2="419.6211"/><line style="stroke:#181818;stroke-width:0.5;" x1="21.5" x2="182.5" y1="427.6211" y2="427.6211"/></g><!--class UserSession--><g id="elem_UserSession"><rect codeLine="67" fill="#F1F1F1" height="48" id="UserSession" rx="2.5" ry="2.5" style="stroke:#181818;stroke-width:0.5;" width="111" x="46.5" y="800.6211"/><ellipse cx="61.5" cy="816.6211" fill="#ADD1B2" rx="11" ry="11" style="stroke:#181818;stroke-width:1.0;"/><path d="M64.2656,812.4961 Q64.4219,812.2773 64.6094,812.168 Q64.7969,812.0586 65.0156,812.0586 Q65.3906,812.0586 65.625,812.3242 Q65.8594,812.5742 65.8594,813.1836 L65.8594,814.6367 Q65.8594,815.2461 65.625,815.5117 Q65.3906,815.7773 65.0156,815.7773 Q64.6719,815.7773 64.4688,815.5742 Q64.2656,815.3867 64.1563,814.8711 Q64.1094,814.5117 63.9219,814.3242 Q63.5938,813.9492 62.9844,813.7305 Q62.375,813.5117 61.75,813.5117 Q60.9844,813.5117 60.3438,813.8398 Q59.7188,814.168 59.2188,814.918 Q58.7344,815.668 58.7344,816.6992 L58.7344,817.793 Q58.7344,819.0273 59.625,819.8555 Q60.5156,820.668 62.1094,820.668 Q63.0469,820.668 63.7031,820.418 Q64.0938,820.2617 64.5156,819.8242 Q64.7813,819.5586 64.9219,819.4805 Q65.0781,819.4023 65.2813,819.4023 Q65.6094,819.4023 65.8594,819.668 Q66.125,819.918 66.125,820.2617 Q66.125,820.6055 65.7813,821.0117 Q65.2813,821.5898 64.4844,821.918 Q63.4063,822.3711 62.1094,822.3711 Q60.5938,822.3711 59.3906,821.7461 Q58.4063,821.2461 57.7188,820.1836 Q57.0313,819.1055 57.0313,817.8242 L57.0313,816.668 Q57.0313,815.3398 57.6406,814.1992 Q58.2656,813.043 59.3594,812.4336 Q60.4531,811.8086 61.6875,811.8086 Q62.4219,811.8086 63.0625,811.9805 Q63.7188,812.1367 64.2656,812.4961 Z " fill="#000000"/><text fill="#000000" font-family="sans-serif" font-size="14" lengthAdjust="spacing" textLength="79" x="75.5" y="822.418">UserSession</text><line style="stroke:#181818;stroke-width:0.5;" x1="47.5" x2="156.5" y1="832.6211" y2="832.6211"/><line style="stroke:#181818;stroke-width:0.5;" x1="47.5" x2="156.5" y1="840.6211" y2="840.6211"/></g><!--class Email--><g id="elem_Email"><rect codeLine="71" fill="#F1F1F1" height="48" id="Email" rx="2.5" ry="2.5" style="stroke:#181818;stroke-width:0.5;" width="66" x="69" y="1039.6211"/><ellipse cx="84" cy="1055.6211" fill="#ADD1B2" rx="11" ry="11" style="stroke:#181818;stroke-width:1.0;"/><path d="M86.7656,1051.4961 Q86.9219,1051.2773 87.1094,1051.168 Q87.2969,1051.0586 87.5156,1051.0586 Q87.8906,1051.0586 88.125,1051.3242 Q88.3594,1051.5742 88.3594,1052.1836 L88.3594,1053.6367 Q88.3594,1054.2461 88.125,1054.5117 Q87.8906,1054.7773 87.5156,1054.7773 Q87.1719,1054.7773 86.9688,1054.5742 Q86.7656,1054.3867 86.6563,1053.8711 Q86.6094,1053.5117 86.4219,1053.3242 Q86.0938,1052.9492 85.4844,1052.7305 Q84.875,1052.5117 84.25,1052.5117 Q83.4844,1052.5117 82.8438,1052.8398 Q82.2188,1053.168 81.7188,1053.918 Q81.2344,1054.668 81.2344,1055.6992 L81.2344,1056.793 Q81.2344,1058.0273 82.125,1058.8555 Q83.0156,1059.668 84.6094,1059.668 Q85.5469,1059.668 86.2031,1059.418 Q86.5938,1059.2617 87.0156,1058.8242 Q87.2813,1058.5586 87.4219,1058.4805 Q87.5781,1058.4023 87.7813,1058.4023 Q88.1094,1058.4023 88.3594,1058.668 Q88.625,1058.918 88.625,1059.2617 Q88.625,1059.6055 88.2813,1060.0117 Q87.7813,1060.5898 86.9844,1060.918 Q85.9063,1061.3711 84.6094,1061.3711 Q83.0938,1061.3711 81.8906,1060.7461 Q80.9063,1060.2461 80.2188,1059.1836 Q79.5313,1058.1055 79.5313,1056.8242 L79.5313,1055.668 Q79.5313,1054.3398 80.1406,1053.1992 Q80.7656,1052.043 81.8594,1051.4336 Q82.9531,1050.8086 84.1875,1050.8086 Q84.9219,1050.8086 85.5625,1050.9805 Q86.2188,1051.1367 86.7656,1051.4961 Z " fill="#000000"/><text fill="#000000" font-family="sans-serif" font-size="14" lengthAdjust="spacing" textLength="34" x="98" y="1061.418">Email</text><line style="stroke:#181818;stroke-width:0.5;" x1="70" x2="134" y1="1071.6211" y2="1071.6211"/><line style="stroke:#181818;stroke-width:0.5;" x1="70" x2="134" y1="1079.6211" y2="1079.6211"/></g><!--class GreenSpaceMapper--><g id="elem_GreenSpaceMapper"><rect codeLine="75" fill="#F1F1F1" height="48" id="GreenSpaceMapper" rx="2.5" ry="2.5" style="stroke:#181818;stroke-width:0.5;" width="160" x="752" y="387.6211"/><ellipse cx="767" cy="403.6211" fill="#ADD1B2" rx="11" ry="11" style="stroke:#181818;stroke-width:1.0;"/><path d="M769.7656,399.4961 Q769.9219,399.2773 770.1094,399.168 Q770.2969,399.0586 770.5156,399.0586 Q770.8906,399.0586 771.125,399.3242 Q771.3594,399.5742 771.3594,400.1836 L771.3594,401.6367 Q771.3594,402.2461 771.125,402.5117 Q770.8906,402.7773 770.5156,402.7773 Q770.1719,402.7773 769.9688,402.5742 Q769.7656,402.3867 769.6563,401.8711 Q769.6094,401.5117 769.4219,401.3242 Q769.0938,400.9492 768.4844,400.7305 Q767.875,400.5117 767.25,400.5117 Q766.4844,400.5117 765.8438,400.8398 Q765.2188,401.168 764.7188,401.918 Q764.2344,402.668 764.2344,403.6992 L764.2344,404.793 Q764.2344,406.0273 765.125,406.8555 Q766.0156,407.668 767.6094,407.668 Q768.5469,407.668 769.2031,407.418 Q769.5938,407.2617 770.0156,406.8242 Q770.2813,406.5586 770.4219,406.4805 Q770.5781,406.4023 770.7813,406.4023 Q771.1094,406.4023 771.3594,406.668 Q771.625,406.918 771.625,407.2617 Q771.625,407.6055 771.2813,408.0117 Q770.7813,408.5898 769.9844,408.918 Q768.9063,409.3711 767.6094,409.3711 Q766.0938,409.3711 764.8906,408.7461 Q763.9063,408.2461 763.2188,407.1836 Q762.5313,406.1055 762.5313,404.8242 L762.5313,403.668 Q762.5313,402.3398 763.1406,401.1992 Q763.7656,400.043 764.8594,399.4336 Q765.9531,398.8086 767.1875,398.8086 Q767.9219,398.8086 768.5625,398.9805 Q769.2188,399.1367 769.7656,399.4961 Z " fill="#000000"/><text fill="#000000" font-family="sans-serif" font-size="14" lengthAdjust="spacing" textLength="128" x="781" y="409.418">GreenSpaceMapper</text><line style="stroke:#181818;stroke-width:0.5;" x1="753" x2="911" y1="419.6211" y2="419.6211"/><line style="stroke:#181818;stroke-width:0.5;" x1="753" x2="911" y1="427.6211" y2="427.6211"/></g><!--class GreenSpaceDTO--><g id="elem_GreenSpaceDTO"><rect codeLine="79" fill="#F1F1F1" height="48" id="GreenSpaceDTO" rx="2.5" ry="2.5" style="stroke:#181818;stroke-width:0.5;" width="142" x="779" y="571.1211"/><ellipse cx="794" cy="587.1211" fill="#ADD1B2" rx="11" ry="11" style="stroke:#181818;stroke-width:1.0;"/><path d="M796.7656,582.9961 Q796.9219,582.7773 797.1094,582.668 Q797.2969,582.5586 797.5156,582.5586 Q797.8906,582.5586 798.125,582.8242 Q798.3594,583.0742 798.3594,583.6836 L798.3594,585.1367 Q798.3594,585.7461 798.125,586.0117 Q797.8906,586.2773 797.5156,586.2773 Q797.1719,586.2773 796.9688,586.0742 Q796.7656,585.8867 796.6563,585.3711 Q796.6094,585.0117 796.4219,584.8242 Q796.0938,584.4492 795.4844,584.2305 Q794.875,584.0117 794.25,584.0117 Q793.4844,584.0117 792.8438,584.3398 Q792.2188,584.668 791.7188,585.418 Q791.2344,586.168 791.2344,587.1992 L791.2344,588.293 Q791.2344,589.5273 792.125,590.3555 Q793.0156,591.168 794.6094,591.168 Q795.5469,591.168 796.2031,590.918 Q796.5938,590.7617 797.0156,590.3242 Q797.2813,590.0586 797.4219,589.9805 Q797.5781,589.9023 797.7813,589.9023 Q798.1094,589.9023 798.3594,590.168 Q798.625,590.418 798.625,590.7617 Q798.625,591.1055 798.2813,591.5117 Q797.7813,592.0898 796.9844,592.418 Q795.9063,592.8711 794.6094,592.8711 Q793.0938,592.8711 791.8906,592.2461 Q790.9063,591.7461 790.2188,590.6836 Q789.5313,589.6055 789.5313,588.3242 L789.5313,587.168 Q789.5313,585.8398 790.1406,584.6992 Q790.7656,583.543 791.8594,582.9336 Q792.9531,582.3086 794.1875,582.3086 Q794.9219,582.3086 795.5625,582.4805 Q796.2188,582.6367 796.7656,582.9961 Z " fill="#000000"/><text fill="#000000" font-family="sans-serif" font-size="14" lengthAdjust="spacing" textLength="110" x="808" y="592.918">GreenSpaceDTO</text><line style="stroke:#181818;stroke-width:0.5;" x1="780" x2="920" y1="603.1211" y2="603.1211"/><line style="stroke:#181818;stroke-width:0.5;" x1="780" x2="920" y1="611.1211" y2="611.1211"/></g><!--class AuthenticationRepository--><g id="elem_AuthenticationRepository"><rect codeLine="83" fill="#F1F1F1" height="48" id="AuthenticationRepository" rx="2.5" ry="2.5" style="stroke:#181818;stroke-width:0.5;" width="190" x="7" y="571.1211"/><ellipse cx="22" cy="587.1211" fill="#ADD1B2" rx="11" ry="11" style="stroke:#181818;stroke-width:1.0;"/><path d="M24.7656,582.9961 Q24.9219,582.7773 25.1094,582.668 Q25.2969,582.5586 25.5156,582.5586 Q25.8906,582.5586 26.125,582.8242 Q26.3594,583.0742 26.3594,583.6836 L26.3594,585.1367 Q26.3594,585.7461 26.125,586.0117 Q25.8906,586.2773 25.5156,586.2773 Q25.1719,586.2773 24.9688,586.0742 Q24.7656,585.8867 24.6563,585.3711 Q24.6094,585.0117 24.4219,584.8242 Q24.0938,584.4492 23.4844,584.2305 Q22.875,584.0117 22.25,584.0117 Q21.4844,584.0117 20.8438,584.3398 Q20.2188,584.668 19.7188,585.418 Q19.2344,586.168 19.2344,587.1992 L19.2344,588.293 Q19.2344,589.5273 20.125,590.3555 Q21.0156,591.168 22.6094,591.168 Q23.5469,591.168 24.2031,590.918 Q24.5938,590.7617 25.0156,590.3242 Q25.2813,590.0586 25.4219,589.9805 Q25.5781,589.9023 25.7813,589.9023 Q26.1094,589.9023 26.3594,590.168 Q26.625,590.418 26.625,590.7617 Q26.625,591.1055 26.2813,591.5117 Q25.7813,592.0898 24.9844,592.418 Q23.9063,592.8711 22.6094,592.8711 Q21.0938,592.8711 19.8906,592.2461 Q18.9063,591.7461 18.2188,590.6836 Q17.5313,589.6055 17.5313,588.3242 L17.5313,587.168 Q17.5313,585.8398 18.1406,584.6992 Q18.7656,583.543 19.8594,582.9336 Q20.9531,582.3086 22.1875,582.3086 Q22.9219,582.3086 23.5625,582.4805 Q24.2188,582.6367 24.7656,582.9961 Z " fill="#000000"/><text fill="#000000" font-family="sans-serif" font-size="14" lengthAdjust="spacing" textLength="158" x="36" y="592.918">AuthenticationRepository</text><line style="stroke:#181818;stroke-width:0.5;" x1="8" x2="196" y1="603.1211" y2="603.1211"/><line style="stroke:#181818;stroke-width:0.5;" x1="8" x2="196" y1="611.1211" y2="611.1211"/></g><!--link RegisterGreenSpaceUI to RegisterGreenSpaceController--><g id="link_RegisterGreenSpaceUI_RegisterGreenSpaceController"><path codeLine="87" d="M212.66,163.6211 C228.63,163.6211 236.02,163.6211 241.72,163.6211 " fill="none" id="RegisterGreenSpaceUI-to-RegisterGreenSpaceController" style="stroke:#181818;stroke-width:1.0;stroke-dasharray:7.0,7.0;"/><polygon fill="#181818" points="247.72,163.6211,238.72,159.6211,242.72,163.6211,238.72,167.6211,247.72,163.6211" style="stroke:#181818;stroke-width:1.0;"/></g><!--link RegisterGreenSpaceController to GreenSpaceRepository--><g id="link_RegisterGreenSpaceController_GreenSpaceRepository"><path codeLine="88" d="M506.77,224.7211 C509.42,282.0111 513,359.6211 513,359.6211 C513,359.6211 513,463.6211 513,463.6211 C513,463.6211 508.4481,487.3681 502.5081,518.3981 " fill="none" id="RegisterGreenSpaceController-to-GreenSpaceRepository" style="stroke:#181818;stroke-width:1.0;stroke-dasharray:7.0,7.0;"/><polygon fill="#181818" points="501.38,524.2911,507.0008,516.2037,502.3201,519.3803,499.1435,514.6995,501.38,524.2911" style="stroke:#181818;stroke-width:1.0;"/><text fill="#000000" font-family="sans-serif" font-size="13" lengthAdjust="spacing" textLength="131" x="514" y="417.1494">greenSpaceRepository</text><text fill="#000000" font-family="sans-serif" font-size="13" lengthAdjust="spacing" textLength="7" x="495.3989" y="513.1481">1</text></g><!--link GreenSpaceRepository to GreenSpace--><g id="link_GreenSpaceRepository_GreenSpace"><path codeLine="89" d="M488,665.9211 C488,690.7411 488,712.8511 488,738.4011 " fill="none" id="GreenSpaceRepository-to-GreenSpace" style="stroke:#181818;stroke-width:1.0;"/><polygon fill="#181818" points="488,744.4011,492,735.4011,488,739.4011,484,735.4011,488,744.4011" style="stroke:#181818;stroke-width:1.0;"/><text fill="#000000" font-family="sans-serif" font-size="13" lengthAdjust="spacing" textLength="69" x="489" y="710.6494">greenSpace</text><text fill="#000000" font-family="sans-serif" font-size="13" lengthAdjust="spacing" textLength="7" x="480.6555" y="687.7646">1</text><text fill="#000000" font-family="sans-serif" font-size="13" lengthAdjust="spacing" textLength="5" x="482.7695" y="733.2766">*</text></g><!--reverse link GreenSpace to Address--><g id="link_GreenSpace_Address"><path codeLine="90" d="M488,916.8711 C488,942.1711 488,958.1511 488,983.4511 " fill="none" id="GreenSpace-backto-Address" style="stroke:#181818;stroke-width:1.0;"/><polygon fill="#181818" points="488,904.8711,484,910.8711,488,916.8711,492,910.8711,488,904.8711" style="stroke:#181818;stroke-width:1.0;"/><text fill="#000000" font-family="sans-serif" font-size="13" lengthAdjust="spacing" textLength="46" x="489" y="949.6494">address</text><text fill="#000000" font-family="sans-serif" font-size="13" lengthAdjust="spacing" textLength="7" x="480.6773" y="972.3312">1</text></g><!--link RegisterGreenSpaceController to Repositories--><g id="link_RegisterGreenSpaceController_Repositories"><path codeLine="91" d="M458.5,224.8011 C427.31,266.0511 389.9979,315.3946 360.3679,354.5946 " fill="none" id="RegisterGreenSpaceController-to-Repositories" style="stroke:#181818;stroke-width:1.0;stroke-dasharray:7.0,7.0;"/><polygon fill="#181818" points="356.75,359.3811,365.3679,354.6133,359.765,355.3924,358.9859,349.7894,356.75,359.3811" style="stroke:#181818;stroke-width:1.0;"/><text fill="#000000" font-family="sans-serif" font-size="13" lengthAdjust="spacing" textLength="67" x="390" y="325.6494">repositories</text></g><!--link Repositories to GreenSpaceRepository--><g id="link_Repositories_GreenSpaceRepository"><path codeLine="92" d="M365.81,463.6611 C383.48,482.5311 399.7281,499.8823 418.6881,520.1223 " fill="none" id="Repositories-to-GreenSpaceRepository" style="stroke:#181818;stroke-width:1.0;"/><polygon fill="#181818" points="422.79,524.5011,419.5563,515.1982,419.3717,520.8521,413.7179,520.6674,422.79,524.5011" style="stroke:#181818;stroke-width:1.0;"/><text fill="#000000" font-family="sans-serif" font-size="13" lengthAdjust="spacing" textLength="7" x="408.7043" y="513.3797">1</text></g><!--link Repositories to Repositories--><g id="link_Repositories_Repositories"><path codeLine="93" d="M417.05,396.8111 C437.4,398.3911 452,403.3311 452,411.6211 C452,419.9111 443.382,424.3866 423.032,425.9666 " fill="none" id="Repositories-to-Repositories" style="stroke:#181818;stroke-width:1.0;"/><polygon fill="#181818" points="417.05,426.4311,426.3326,429.7224,422.035,426.0441,425.7134,421.7464,417.05,426.4311" style="stroke:#181818;stroke-width:1.0;"/><text fill="#000000" font-family="sans-serif" font-size="13" lengthAdjust="spacing" textLength="49" x="458" y="417.1494">instance</text></g><!--link Repositories to AuthenticationRepository--><g id="link_Repositories_AuthenticationRepository"><path codeLine="94" d="M257.26,463.6611 C215.33,498.8911 166.1641,540.2118 134.1541,567.1018 " fill="none" id="Repositories-to-AuthenticationRepository" style="stroke:#181818;stroke-width:1.0;"/><polygon fill="#181818" points="129.56,570.9611,139.024,568.2349,133.3884,567.745,133.8783,562.1094,129.56,570.9611" style="stroke:#181818;stroke-width:1.0;"/><text fill="#000000" font-family="sans-serif" font-size="13" lengthAdjust="spacing" textLength="7" x="128.7254" y="559.6576">1</text></g><!--link RegisterGreenSpaceController to ApplicationController--><g id="link_RegisterGreenSpaceController_ApplicationController"><path codeLine="95" d="M405.92,224.6411 C320.15,277.1211 205.268,347.4296 144.928,384.3496 " fill="none" id="RegisterGreenSpaceController-to-ApplicationController" style="stroke:#181818;stroke-width:1.0;stroke-dasharray:7.0,7.0;"/><polygon fill="#181818" points="139.81,387.4811,149.5746,386.1958,144.075,384.8715,145.3993,379.3718,139.81,387.4811" style="stroke:#181818;stroke-width:1.0;"/></g><!--link ApplicationController to AuthenticationRepository--><g id="link_ApplicationController_AuthenticationRepository"><path codeLine="96" d="M102,435.9811 C102,470.8311 102,530.0611 102,564.8511 " fill="none" id="ApplicationController-to-AuthenticationRepository" style="stroke:#181818;stroke-width:1.0;stroke-dasharray:7.0,7.0;"/><polygon fill="#181818" points="102,570.8511,106,561.8511,102,565.8511,98,561.8511,102,570.8511" style="stroke:#181818;stroke-width:1.0;"/></g><!--link AuthenticationRepository to UserSession--><g id="link_AuthenticationRepository_UserSession"><path codeLine="97" d="M102,619.1911 C102,662.7911 102,750.8411 102,794.4911 " fill="none" id="AuthenticationRepository-to-UserSession" style="stroke:#181818;stroke-width:1.0;stroke-dasharray:7.0,7.0;"/><polygon fill="#181818" points="102,800.4911,106,791.4911,102,795.4911,98,791.4911,102,800.4911" style="stroke:#181818;stroke-width:1.0;"/></g><!--link UserSession to Email--><g id="link_UserSession_Email"><path codeLine="98" d="M102,848.7811 C102,894.0811 102,987.9911 102,1033.3711 " fill="none" id="UserSession-to-Email" style="stroke:#181818;stroke-width:1.0;stroke-dasharray:7.0,7.0;"/><polygon fill="#181818" points="102,1039.3711,106,1030.3711,102,1034.3711,98,1030.3711,102,1039.3711" style="stroke:#181818;stroke-width:1.0;"/></g><!--link RegisterGreenSpaceController to GreenSpaceMapper--><g id="link_RegisterGreenSpaceController_GreenSpaceMapper"><path codeLine="99" d="M584.24,224.8011 C654.22,277.2911 747.2196,347.0416 796.3896,383.9116 " fill="none" id="RegisterGreenSpaceController-to-GreenSpaceMapper" style="stroke:#181818;stroke-width:1.0;stroke-dasharray:7.0,7.0;"/><polygon fill="#181818" points="801.19,387.5111,796.3892,378.9116,797.1897,384.5115,791.5898,385.312,801.19,387.5111" style="stroke:#181818;stroke-width:1.0;"/></g><!--link GreenSpaceMapper to GreenSpaceDTO--><g id="link_GreenSpaceMapper_GreenSpaceDTO"><path codeLine="100" d="M834.32,435.9811 C837.77,470.8311 843.6479,530.0904 847.0979,564.8804 " fill="none" id="GreenSpaceMapper-to-GreenSpaceDTO" style="stroke:#181818;stroke-width:1.0;stroke-dasharray:7.0,7.0;"/><polygon fill="#181818" points="847.69,570.8511,850.7823,561.5003,847.1966,565.8755,842.8214,562.2898,847.69,570.8511" style="stroke:#181818;stroke-width:1.0;"/></g><!--SRC=[jLLDZzem4BtxLrXxMLWIH7j4rKe8gWgf7rApU-l59BF1MiTExKbNTDN_tad8XmC9R0_bGdZpvispCpFSkcUfSs55nZEZJRot9WEEjW3MHN8HFuiK8Zmeu1PY53fLFi7jHM9Uf4xvar3EZoYf0GyvyDoeG_c3tGu4ZKN3lAnO2UTMY5Rk2eHjR7GaVmDVC9H85XwZnVi53_cwfF6D52abCLPbyKyMG4Ta6VWhu_G9FUYXh5QMh2CHbI3NMcGDiaeI2oGZZjyr-gICG8u6XLfP41KwytGdfMPGoWGE2SMlHRO36_pGkN6Kj3O91B74Gv188iWOWrPiolwSU_yEb2ZHs4DpYC-K-A4ZtFEqVIv3xCnJ9p6Pra4wr4J3IyUPrkA_X9A9GF1EDC2RyPZyzbWZv_wdKxT69RZsdVbWwpy5t6fIrbHvofSzKaSPkGAlNafsm7QyjT5eZL9WgNujT8arIGTAJD-Is5pukCt_Uj6dpXwtxOMxuoXum-7EXgD6ZWvgJ6halgK-jVFNnqkpVQHnVc7YGbe-Fmjmk14esgjqnIwJ3TIUjPxZr_wWlyLvDE8yEdCU3JYVDPKdH-cWLoBmP8DAAcZJVVDvhcGiK1hTzGvrPajuT60ZAa847_wO2Qbye7lJNqIUzpMwsERXcnzO5RW7ZRK1VnELdC4ccbkPxd5-Vx7vsSN1crFspRkRmGL6epuqSMoGIo8X_HlfaFJkVBsUYfVBxyAmhDoi_cMx_AyQxgsk9RMdjuzwiJ0SFzq9yqnLrYjlM77iRLqtFzXbR10zyiSgZGMgBAzLcVTSnQf-lMxqj8lPAN32edvcVm40]--></g></svg>