<?xml version="1.0" encoding="us-ascii" standalone="no"?><svg xmlns="http://www.w3.org/2000/svg" xmlns:xlink="http://www.w3.org/1999/xlink" contentStyleType="text/css" height="1545px" preserveAspectRatio="none" style="width:1885px;height:1545px;background:#FFFFFF;" version="1.1" viewBox="0 0 1885 1545" width="1885px" zoomAndPan="magnify"><defs/><g><text fill="#000000" font-family="sans-serif" font-size="14" font-weight="bold" lengthAdjust="spacing" textLength="221" x="831.75" y="30.1074">US020 - Sequence Diagram (SD)</text><rect fill="#FFFFFF" height="1273.6797" style="stroke:#181818;stroke-width:1.0;" width="10" x="60" y="151.8633"/><rect fill="#FFFFFF" height="118.4941" style="stroke:#181818;stroke-width:1.0;" width="10" x="366" y="175.1543"/><rect fill="#FFFFFF" height="126.1641" style="stroke:#181818;stroke-width:1.0;" width="10" x="366" y="324.9395"/><rect fill="#FFFFFF" height="99.873" style="stroke:#181818;stroke-width:1.0;" width="10" x="366" y="482.3945"/><rect fill="#FFFFFF" height="820.9844" style="stroke:#181818;stroke-width:1.0;" width="10" x="366" y="613.5586"/><rect fill="#FFFFFF" height="732.1113" style="stroke:#181818;stroke-width:1.0;" width="10" x="672" y="662.1406"/><rect fill="#FFFFFF" height="31.291" style="stroke:#181818;stroke-width:1.0;" width="10" x="834.5" y="693.4316"/><rect fill="#FFFFFF" height="31.291" style="stroke:#181818;stroke-width:1.0;" width="10" x="941.5" y="756.0137"/><rect fill="#FFFFFF" height="527.0742" style="stroke:#181818;stroke-width:1.0;" width="10" x="1081.5" y="835.8867"/><rect fill="none" height="99.1641" style="stroke:#000000;stroke-width:1.5;" width="450" x="10" y="233.7754"/><rect fill="none" height="99.1641" style="stroke:#000000;stroke-width:1.5;" width="450" x="10" y="391.2305"/><line style="stroke:#181818;stroke-width:0.5;stroke-dasharray:5.0,5.0;" x1="65" x2="65" y1="141.8633" y2="1443.543"/><line style="stroke:#181818;stroke-width:0.5;stroke-dasharray:5.0,5.0;" x1="371" x2="371" y1="141.8633" y2="1443.543"/><line style="stroke:#181818;stroke-width:0.5;stroke-dasharray:5.0,5.0;" x1="677" x2="677" y1="214.9648" y2="1443.543"/><line style="stroke:#181818;stroke-width:0.5;stroke-dasharray:5.0,5.0;" x1="839" x2="839" y1="141.8633" y2="1443.543"/><line style="stroke:#181818;stroke-width:0.5;stroke-dasharray:5.0,5.0;" x1="946" x2="946" y1="141.8633" y2="1443.543"/><line style="stroke:#181818;stroke-width:0.5;stroke-dasharray:5.0,5.0;" x1="1086" x2="1086" y1="141.8633" y2="1443.543"/><line style="stroke:#181818;stroke-width:0.5;stroke-dasharray:5.0,5.0;" x1="1432.5" x2="1432.5" y1="878.1777" y2="1443.543"/><line style="stroke:#181818;stroke-width:0.5;stroke-dasharray:5.0,5.0;" x1="1670.5" x2="1670.5" y1="971.0508" y2="1443.543"/><text fill="#000000" font-family="sans-serif" font-size="14" lengthAdjust="spacing" textLength="84" x="20" y="119.7285">Green Space</text><text fill="#000000" font-family="sans-serif" font-size="14" lengthAdjust="spacing" textLength="56" x="34" y="138.3496">Manager</text><ellipse cx="65" cy="53.1211" fill="#E3E3E3" rx="8" ry="8" style="stroke:#181818;stroke-width:0.5;"/><path d="M65,61.1211 L65,88.1211 M52,69.1211 L78,69.1211 M65,88.1211 L52,103.1211 M65,88.1211 L78,103.1211 " fill="none" style="stroke:#181818;stroke-width:0.5;"/><text fill="#000000" font-family="sans-serif" font-size="14" lengthAdjust="spacing" textLength="84" x="20" y="1457.6504">Green Space</text><text fill="#000000" font-family="sans-serif" font-size="14" lengthAdjust="spacing" textLength="56" x="34" y="1476.2715">Manager</text><ellipse cx="65" cy="1488.2852" fill="#E3E3E3" rx="8" ry="8" style="stroke:#181818;stroke-width:0.5;"/><path d="M65,1496.2852 L65,1523.2852 M52,1504.2852 L78,1504.2852 M65,1523.2852 L52,1538.2852 M65,1523.2852 L78,1538.2852 " fill="none" style="stroke:#181818;stroke-width:0.5;"/><rect fill="#E3E3E3" height="32.6211" rx="2.5" ry="2.5" style="stroke:#181818;stroke-width:0.5;" width="158" x="292" y="108.2422"/><text fill="#000000" font-family="sans-serif" font-size="14" lengthAdjust="spacing" textLength="144" x="299" y="130.3496">:registerGreenSpaceUI</text><rect fill="#E3E3E3" height="32.6211" rx="2.5" ry="2.5" style="stroke:#181818;stroke-width:0.5;" width="158" x="292" y="1442.543"/><text fill="#000000" font-family="sans-serif" font-size="14" lengthAdjust="spacing" textLength="144" x="299" y="1464.6504">:registerGreenSpaceUI</text><rect fill="#E3E3E3" height="32.6211" rx="2.5" ry="2.5" style="stroke:#181818;stroke-width:0.5;" width="208" x="573" y="1442.543"/><text fill="#000000" font-family="sans-serif" font-size="14" lengthAdjust="spacing" textLength="194" x="580" y="1464.6504">:registerGreenSpaceController</text><rect fill="#E3E3E3" height="32.6211" rx="2.5" ry="2.5" style="stroke:#181818;stroke-width:0.5;" width="97" x="791" y="108.2422"/><text fill="#000000" font-family="sans-serif" font-size="14" lengthAdjust="spacing" textLength="83" x="798" y="130.3496">:Repositories</text><rect fill="#E3E3E3" height="32.6211" rx="2.5" ry="2.5" style="stroke:#181818;stroke-width:0.5;" width="97" x="791" y="1442.543"/><text fill="#000000" font-family="sans-serif" font-size="14" lengthAdjust="spacing" textLength="83" x="798" y="1464.6504">:Repositories</text><rect fill="#E3E3E3" height="51.2422" rx="2.5" ry="2.5" style="stroke:#181818;stroke-width:0.5;" width="97" x="898" y="89.6211"/><text fill="#000000" font-family="sans-serif" font-size="14" lengthAdjust="spacing" textLength="74" x="909.5" y="111.7285">repositories</text><text fill="#000000" font-family="sans-serif" font-size="14" lengthAdjust="spacing" textLength="83" x="905" y="130.3496">:Repositories</text><rect fill="#E3E3E3" height="51.2422" rx="2.5" ry="2.5" style="stroke:#181818;stroke-width:0.5;" width="97" x="898" y="1442.543"/><text fill="#000000" font-family="sans-serif" font-size="14" lengthAdjust="spacing" textLength="74" x="909.5" y="1464.6504">repositories</text><text fill="#000000" font-family="sans-serif" font-size="14" lengthAdjust="spacing" textLength="83" x="905" y="1483.2715">:Repositories</text><rect fill="#E3E3E3" height="32.6211" rx="2.5" ry="2.5" style="stroke:#181818;stroke-width:0.5;" width="163" x="1005" y="108.2422"/><text fill="#000000" font-family="sans-serif" font-size="14" lengthAdjust="spacing" textLength="149" x="1012" y="130.3496">:greenSpaceRepository</text><rect fill="#E3E3E3" height="32.6211" rx="2.5" ry="2.5" style="stroke:#181818;stroke-width:0.5;" width="163" x="1005" y="1442.543"/><text fill="#000000" font-family="sans-serif" font-size="14" lengthAdjust="spacing" textLength="149" x="1012" y="1464.6504">:greenSpaceRepository</text><rect fill="#E3E3E3" height="32.6211" rx="2.5" ry="2.5" style="stroke:#181818;stroke-width:0.5;" width="98" x="1383.5" y="1442.543"/><text fill="#000000" font-family="sans-serif" font-size="14" lengthAdjust="spacing" textLength="84" x="1390.5" y="1464.6504">:GreenSpace</text><rect fill="#E3E3E3" height="32.6211" rx="2.5" ry="2.5" style="stroke:#181818;stroke-width:0.5;" width="70" x="1635.5" y="1442.543"/><text fill="#000000" font-family="sans-serif" font-size="14" lengthAdjust="spacing" textLength="56" x="1642.5" y="1464.6504">:Address</text><rect fill="#FFFFFF" height="1273.6797" style="stroke:#181818;stroke-width:1.0;" width="10" x="60" y="151.8633"/><rect fill="#FFFFFF" height="118.4941" style="stroke:#181818;stroke-width:1.0;" width="10" x="366" y="175.1543"/><rect fill="#FFFFFF" height="126.1641" style="stroke:#181818;stroke-width:1.0;" width="10" x="366" y="324.9395"/><rect fill="#FFFFFF" height="99.873" style="stroke:#181818;stroke-width:1.0;" width="10" x="366" y="482.3945"/><rect fill="#FFFFFF" height="820.9844" style="stroke:#181818;stroke-width:1.0;" width="10" x="366" y="613.5586"/><rect fill="#FFFFFF" height="732.1113" style="stroke:#181818;stroke-width:1.0;" width="10" x="672" y="662.1406"/><rect fill="#FFFFFF" height="31.291" style="stroke:#181818;stroke-width:1.0;" width="10" x="834.5" y="693.4316"/><rect fill="#FFFFFF" height="31.291" style="stroke:#181818;stroke-width:1.0;" width="10" x="941.5" y="756.0137"/><rect fill="#FFFFFF" height="527.0742" style="stroke:#181818;stroke-width:1.0;" width="10" x="1081.5" y="835.8867"/><polygon fill="#181818" points="354,171.1543,364,175.1543,354,179.1543,358,175.1543" style="stroke:#181818;stroke-width:1.0;"/><line style="stroke:#181818;stroke-width:1.0;" x1="70" x2="360" y1="175.1543" y2="175.1543"/><text fill="#000000" font-family="sans-serif" font-size="13" font-weight="bold" lengthAdjust="spacing" textLength="7" x="77" y="169.8916">1</text><text fill="#000000" font-family="sans-serif" font-size="13" lengthAdjust="spacing" textLength="201" x="88" y="169.8916">asks to create a new Green Space</text><polygon fill="#181818" points="561,202.4453,571,206.4453,561,210.4453,565,206.4453" style="stroke:#181818;stroke-width:1.0;"/><line style="stroke:#181818;stroke-width:1.0;stroke-dasharray:2.0,2.0;" x1="376" x2="567" y1="206.4453" y2="206.4453"/><text fill="#000000" font-family="sans-serif" font-size="13" font-weight="bold" lengthAdjust="spacing" textLength="7" x="383" y="201.1826">2</text><text fill="#000000" font-family="sans-serif" font-size="13" lengthAdjust="spacing" textLength="36" x="394" y="201.1826">create</text><rect fill="#E3E3E3" height="32.6211" rx="2.5" ry="2.5" style="stroke:#181818;stroke-width:0.5;" width="208" x="573" y="183.1543"/><text fill="#000000" font-family="sans-serif" font-size="14" lengthAdjust="spacing" textLength="194" x="580" y="205.2617">:registerGreenSpaceController</text><path d="M10,233.7754 L83,233.7754 L83,243.0664 L73,253.0664 L10,253.0664 L10,233.7754 " fill="#EEEEEE" style="stroke:#000000;stroke-width:1.5;"/><rect fill="none" height="99.1641" style="stroke:#000000;stroke-width:1.5;" width="450" x="10" y="233.7754"/><text fill="#000000" font-family="sans-serif" font-size="13" font-weight="bold" lengthAdjust="spacing" textLength="28" x="25" y="248.8037">loop</text><text fill="#000000" font-family="sans-serif" font-size="11" font-weight="bold" lengthAdjust="spacing" textLength="174" x="98" y="247.6455">[until selected data is validated]</text><polygon fill="#181818" points="81,289.6484,71,293.6484,81,297.6484,77,293.6484" style="stroke:#181818;stroke-width:1.0;"/><line style="stroke:#181818;stroke-width:1.0;stroke-dasharray:2.0,2.0;" x1="75" x2="370" y1="293.6484" y2="293.6484"/><text fill="#000000" font-family="sans-serif" font-size="13" font-weight="bold" lengthAdjust="spacing" textLength="7" x="87" y="279.7402">3</text><text fill="#000000" font-family="sans-serif" font-size="13" lengthAdjust="spacing" textLength="261" x="98" y="271.0947">Displays the types of green spaces and asks</text><text fill="#000000" font-family="sans-serif" font-size="13" lengthAdjust="spacing" textLength="216" x="98" y="288.3857">to select one (garden, medium, large)</text><polygon fill="#181818" points="354,320.9395,364,324.9395,354,328.9395,358,324.9395" style="stroke:#181818;stroke-width:1.0;"/><line style="stroke:#181818;stroke-width:1.0;" x1="70" x2="360" y1="324.9395" y2="324.9395"/><text fill="#000000" font-family="sans-serif" font-size="13" font-weight="bold" lengthAdjust="spacing" textLength="7" x="77" y="319.6768">4</text><text fill="#000000" font-family="sans-serif" font-size="13" lengthAdjust="spacing" textLength="160" x="88" y="319.6768">selects type of green space</text><line style="stroke:#181818;stroke-width:1.0;stroke-dasharray:2.0,2.0;" x1="376" x2="418" y1="363.2305" y2="363.2305"/><line style="stroke:#181818;stroke-width:1.0;stroke-dasharray:2.0,2.0;" x1="418" x2="418" y1="363.2305" y2="376.2305"/><line style="stroke:#181818;stroke-width:1.0;stroke-dasharray:2.0,2.0;" x1="377" x2="418" y1="376.2305" y2="376.2305"/><polygon fill="#181818" points="387,372.2305,377,376.2305,387,380.2305,383,376.2305" style="stroke:#181818;stroke-width:1.0;"/><text fill="#000000" font-family="sans-serif" font-size="13" font-weight="bold" lengthAdjust="spacing" textLength="7" x="383" y="357.9678">5</text><text fill="#000000" font-family="sans-serif" font-size="13" lengthAdjust="spacing" textLength="88" x="394" y="357.9678">keepData(type)</text><path d="M10,391.2305 L83,391.2305 L83,400.5215 L73,410.5215 L10,410.5215 L10,391.2305 " fill="#EEEEEE" style="stroke:#000000;stroke-width:1.5;"/><rect fill="none" height="99.1641" style="stroke:#000000;stroke-width:1.5;" width="450" x="10" y="391.2305"/><text fill="#000000" font-family="sans-serif" font-size="13" font-weight="bold" lengthAdjust="spacing" textLength="28" x="25" y="406.2588">loop</text><text fill="#000000" font-family="sans-serif" font-size="11" font-weight="bold" lengthAdjust="spacing" textLength="157" x="98" y="405.1006">[until typed data is validated]</text><polygon fill="#181818" points="81,447.1035,71,451.1035,81,455.1035,77,451.1035" style="stroke:#181818;stroke-width:1.0;"/><line style="stroke:#181818;stroke-width:1.0;stroke-dasharray:2.0,2.0;" x1="75" x2="370" y1="451.1035" y2="451.1035"/><text fill="#000000" font-family="sans-serif" font-size="13" font-weight="bold" lengthAdjust="spacing" textLength="7" x="87" y="437.1953">6</text><text fill="#000000" font-family="sans-serif" font-size="13" lengthAdjust="spacing" textLength="209" x="98" y="428.5498">requests data (name, streetNumber,</text><text fill="#000000" font-family="sans-serif" font-size="13" lengthAdjust="spacing" textLength="205" x="98" y="445.8408">postalCode, city, district, totalArea)</text><polygon fill="#181818" points="354,478.3945,364,482.3945,354,486.3945,358,482.3945" style="stroke:#181818;stroke-width:1.0;"/><line style="stroke:#181818;stroke-width:1.0;" x1="70" x2="360" y1="482.3945" y2="482.3945"/><text fill="#000000" font-family="sans-serif" font-size="13" font-weight="bold" lengthAdjust="spacing" textLength="7" x="77" y="477.1318">7</text><text fill="#000000" font-family="sans-serif" font-size="13" lengthAdjust="spacing" textLength="122" x="88" y="477.1318">types requested data</text><line style="stroke:#181818;stroke-width:1.0;stroke-dasharray:2.0,2.0;" x1="376" x2="418" y1="537.9766" y2="537.9766"/><line style="stroke:#181818;stroke-width:1.0;stroke-dasharray:2.0,2.0;" x1="418" x2="418" y1="537.9766" y2="550.9766"/><line style="stroke:#181818;stroke-width:1.0;stroke-dasharray:2.0,2.0;" x1="377" x2="418" y1="550.9766" y2="550.9766"/><polygon fill="#181818" points="387,546.9766,377,550.9766,387,554.9766,383,550.9766" style="stroke:#181818;stroke-width:1.0;"/><text fill="#000000" font-family="sans-serif" font-size="13" font-weight="bold" lengthAdjust="spacing" textLength="7" x="383" y="524.0684">8</text><text fill="#000000" font-family="sans-serif" font-size="13" lengthAdjust="spacing" textLength="177" x="394" y="515.4229">keepData(name,streetNumber,</text><text fill="#000000" font-family="sans-serif" font-size="13" lengthAdjust="spacing" textLength="193" x="394" y="532.7139">postalCode,city,district,totalArea)</text><polygon fill="#181818" points="81,578.2676,71,582.2676,81,586.2676,77,582.2676" style="stroke:#181818;stroke-width:1.0;"/><line style="stroke:#181818;stroke-width:1.0;stroke-dasharray:2.0,2.0;" x1="75" x2="370" y1="582.2676" y2="582.2676"/><text fill="#000000" font-family="sans-serif" font-size="13" font-weight="bold" lengthAdjust="spacing" textLength="7" x="87" y="577.0049">9</text><text fill="#000000" font-family="sans-serif" font-size="13" lengthAdjust="spacing" textLength="236" x="98" y="577.0049">shows all data and requests confirmation</text><polygon fill="#181818" points="354,609.5586,364,613.5586,354,617.5586,358,613.5586" style="stroke:#181818;stroke-width:1.0;"/><line style="stroke:#181818;stroke-width:1.0;" x1="70" x2="360" y1="613.5586" y2="613.5586"/><text fill="#000000" font-family="sans-serif" font-size="13" font-weight="bold" lengthAdjust="spacing" textLength="14" x="77" y="608.2959">10</text><text fill="#000000" font-family="sans-serif" font-size="13" lengthAdjust="spacing" textLength="78" x="95" y="608.2959">confirms data</text><polygon fill="#181818" points="660,658.1406,670,662.1406,660,666.1406,664,662.1406" style="stroke:#181818;stroke-width:1.0;"/><line style="stroke:#181818;stroke-width:1.0;stroke-dasharray:2.0,2.0;" x1="376" x2="666" y1="662.1406" y2="662.1406"/><text fill="#000000" font-family="sans-serif" font-size="13" font-weight="bold" lengthAdjust="spacing" textLength="14" x="383" y="648.2324">11</text><text fill="#000000" font-family="sans-serif" font-size="13" lengthAdjust="spacing" textLength="259" x="401" y="639.5869">createGreenSpace(type,name,streetNumber,</text><text fill="#000000" font-family="sans-serif" font-size="13" lengthAdjust="spacing" textLength="193" x="401" y="656.8779">postalCode,city,district,totalArea)</text><polygon fill="#181818" points="822.5,689.4316,832.5,693.4316,822.5,697.4316,826.5,693.4316" style="stroke:#181818;stroke-width:1.0;"/><line style="stroke:#181818;stroke-width:1.0;stroke-dasharray:2.0,2.0;" x1="682" x2="828.5" y1="693.4316" y2="693.4316"/><text fill="#000000" font-family="sans-serif" font-size="13" font-weight="bold" lengthAdjust="spacing" textLength="14" x="689" y="688.1689">12</text><text fill="#000000" font-family="sans-serif" font-size="13" lengthAdjust="spacing" textLength="75" x="707" y="688.1689">getInstance()</text><polygon fill="#181818" points="693,720.7227,683,724.7227,693,728.7227,689,724.7227" style="stroke:#181818;stroke-width:1.0;"/><line style="stroke:#181818;stroke-width:1.0;stroke-dasharray:2.0,2.0;" x1="687" x2="838.5" y1="724.7227" y2="724.7227"/><text fill="#000000" font-family="sans-serif" font-size="13" font-weight="bold" lengthAdjust="spacing" textLength="14" x="699" y="719.46">13</text><text fill="#000000" font-family="sans-serif" font-size="13" lengthAdjust="spacing" textLength="67" x="717" y="719.46">repositories</text><polygon fill="#181818" points="929.5,752.0137,939.5,756.0137,929.5,760.0137,933.5,756.0137" style="stroke:#181818;stroke-width:1.0;"/><line style="stroke:#181818;stroke-width:1.0;stroke-dasharray:2.0,2.0;" x1="682" x2="935.5" y1="756.0137" y2="756.0137"/><text fill="#000000" font-family="sans-serif" font-size="13" font-weight="bold" lengthAdjust="spacing" textLength="14" x="689" y="750.751">14</text><text fill="#000000" font-family="sans-serif" font-size="13" lengthAdjust="spacing" textLength="160" x="707" y="750.751">getGreenSpaceRepository()</text><polygon fill="#181818" points="693,783.3047,683,787.3047,693,791.3047,689,787.3047" style="stroke:#181818;stroke-width:1.0;"/><line style="stroke:#181818;stroke-width:1.0;stroke-dasharray:2.0,2.0;" x1="687" x2="945.5" y1="787.3047" y2="787.3047"/><text fill="#000000" font-family="sans-serif" font-size="13" font-weight="bold" lengthAdjust="spacing" textLength="14" x="699" y="782.042">15</text><text fill="#000000" font-family="sans-serif" font-size="13" lengthAdjust="spacing" textLength="131" x="717" y="782.042">greenSpaceRepository</text><polygon fill="#181818" points="1069.5,831.8867,1079.5,835.8867,1069.5,839.8867,1073.5,835.8867" style="stroke:#181818;stroke-width:1.0;"/><line style="stroke:#181818;stroke-width:1.0;stroke-dasharray:2.0,2.0;" x1="682" x2="1075.5" y1="835.8867" y2="835.8867"/><text fill="#000000" font-family="sans-serif" font-size="13" font-weight="bold" lengthAdjust="spacing" textLength="14" x="689" y="821.9785">16</text><text fill="#000000" font-family="sans-serif" font-size="13" lengthAdjust="spacing" textLength="259" x="707" y="813.333">createGreenSpace(type,name,streetNumber,</text><text fill="#000000" font-family="sans-serif" font-size="13" lengthAdjust="spacing" textLength="193" x="707" y="830.624">postalCode,city,district,totalArea)</text><polygon fill="#181818" points="1371.5,880.4688,1381.5,884.4688,1371.5,888.4688,1375.5,884.4688" style="stroke:#181818;stroke-width:1.0;"/><line style="stroke:#181818;stroke-width:1.0;stroke-dasharray:2.0,2.0;" x1="1091.5" x2="1377.5" y1="884.4688" y2="884.4688"/><text fill="#000000" font-family="sans-serif" font-size="13" font-weight="bold" lengthAdjust="spacing" textLength="14" x="1098.5" y="870.5605">17</text><text fill="#000000" font-family="sans-serif" font-size="13" lengthAdjust="spacing" textLength="250" x="1116.5" y="861.915">new GreenSpace(type,name,streetNumber,</text><text fill="#000000" font-family="sans-serif" font-size="13" lengthAdjust="spacing" textLength="193" x="1116.5" y="879.2061">postalCode,city,district,totalArea)</text><rect fill="#E3E3E3" height="32.6211" rx="2.5" ry="2.5" style="stroke:#181818;stroke-width:0.5;" width="98" x="1383.5" y="848.8477"/><text fill="#000000" font-family="sans-serif" font-size="14" lengthAdjust="spacing" textLength="84" x="1390.5" y="870.9551">:GreenSpace</text><line style="stroke:#181818;stroke-width:1.0;stroke-dasharray:2.0,2.0;" x1="1432.5" x2="1474.5" y1="915.7598" y2="915.7598"/><line style="stroke:#181818;stroke-width:1.0;stroke-dasharray:2.0,2.0;" x1="1474.5" x2="1474.5" y1="915.7598" y2="928.7598"/><line style="stroke:#181818;stroke-width:1.0;stroke-dasharray:2.0,2.0;" x1="1433.5" x2="1474.5" y1="928.7598" y2="928.7598"/><polygon fill="#181818" points="1443.5,924.7598,1433.5,928.7598,1443.5,932.7598,1439.5,928.7598" style="stroke:#181818;stroke-width:1.0;"/><text fill="#000000" font-family="sans-serif" font-size="13" font-weight="bold" lengthAdjust="spacing" textLength="14" x="1439.5" y="910.4971">18</text><text fill="#000000" font-family="sans-serif" font-size="13" lengthAdjust="spacing" textLength="117" x="1457.5" y="910.4971">validateName(name)</text><polygon fill="#181818" points="1623.5,973.3418,1633.5,977.3418,1623.5,981.3418,1627.5,977.3418" style="stroke:#181818;stroke-width:1.0;"/><line style="stroke:#181818;stroke-width:1.0;stroke-dasharray:2.0,2.0;" x1="1432.5" x2="1629.5" y1="977.3418" y2="977.3418"/><text fill="#000000" font-family="sans-serif" font-size="13" font-weight="bold" lengthAdjust="spacing" textLength="14" x="1439.5" y="963.4336">19</text><text fill="#000000" font-family="sans-serif" font-size="13" lengthAdjust="spacing" textLength="161" x="1457.5" y="954.7881">new Address(streetNumber,</text><text fill="#000000" font-family="sans-serif" font-size="13" lengthAdjust="spacing" textLength="137" x="1457.5" y="972.0791">postalCode,city,district)</text><rect fill="#E3E3E3" height="32.6211" rx="2.5" ry="2.5" style="stroke:#181818;stroke-width:0.5;" width="70" x="1635.5" y="941.7207"/><text fill="#000000" font-family="sans-serif" font-size="14" lengthAdjust="spacing" textLength="56" x="1642.5" y="963.8281">:Address</text><line style="stroke:#181818;stroke-width:1.0;stroke-dasharray:2.0,2.0;" x1="1670.5" x2="1712.5" y1="1008.6328" y2="1008.6328"/><line style="stroke:#181818;stroke-width:1.0;stroke-dasharray:2.0,2.0;" x1="1712.5" x2="1712.5" y1="1008.6328" y2="1021.6328"/><line style="stroke:#181818;stroke-width:1.0;stroke-dasharray:2.0,2.0;" x1="1671.5" x2="1712.5" y1="1021.6328" y2="1021.6328"/><polygon fill="#181818" points="1681.5,1017.6328,1671.5,1021.6328,1681.5,1025.6328,1677.5,1021.6328" style="stroke:#181818;stroke-width:1.0;"/><text fill="#000000" font-family="sans-serif" font-size="13" font-weight="bold" lengthAdjust="spacing" textLength="14" x="1677.5" y="1003.3701">20</text><text fill="#000000" font-family="sans-serif" font-size="13" lengthAdjust="spacing" textLength="119" x="1695.5" y="1003.3701">validateStreet(street)</text><line style="stroke:#181818;stroke-width:1.0;stroke-dasharray:2.0,2.0;" x1="1670.5" x2="1712.5" y1="1052.9238" y2="1052.9238"/><line style="stroke:#181818;stroke-width:1.0;stroke-dasharray:2.0,2.0;" x1="1712.5" x2="1712.5" y1="1052.9238" y2="1065.9238"/><line style="stroke:#181818;stroke-width:1.0;stroke-dasharray:2.0,2.0;" x1="1671.5" x2="1712.5" y1="1065.9238" y2="1065.9238"/><polygon fill="#181818" points="1681.5,1061.9238,1671.5,1065.9238,1681.5,1069.9238,1677.5,1065.9238" style="stroke:#181818;stroke-width:1.0;"/><text fill="#000000" font-family="sans-serif" font-size="13" font-weight="bold" lengthAdjust="spacing" textLength="14" x="1677.5" y="1047.6611">21</text><text fill="#000000" font-family="sans-serif" font-size="13" lengthAdjust="spacing" textLength="174" x="1695.5" y="1047.6611">validateStreetNumber(number)</text><line style="stroke:#181818;stroke-width:1.0;stroke-dasharray:2.0,2.0;" x1="1670.5" x2="1712.5" y1="1097.2148" y2="1097.2148"/><line style="stroke:#181818;stroke-width:1.0;stroke-dasharray:2.0,2.0;" x1="1712.5" x2="1712.5" y1="1097.2148" y2="1110.2148"/><line style="stroke:#181818;stroke-width:1.0;stroke-dasharray:2.0,2.0;" x1="1671.5" x2="1712.5" y1="1110.2148" y2="1110.2148"/><polygon fill="#181818" points="1681.5,1106.2148,1671.5,1110.2148,1681.5,1114.2148,1677.5,1110.2148" style="stroke:#181818;stroke-width:1.0;"/><text fill="#000000" font-family="sans-serif" font-size="13" font-weight="bold" lengthAdjust="spacing" textLength="14" x="1677.5" y="1091.9521">22</text><text fill="#000000" font-family="sans-serif" font-size="13" lengthAdjust="spacing" textLength="183" x="1695.5" y="1091.9521">validatePostalCode(postalCode)</text><line style="stroke:#181818;stroke-width:1.0;stroke-dasharray:2.0,2.0;" x1="1670.5" x2="1712.5" y1="1141.5059" y2="1141.5059"/><line style="stroke:#181818;stroke-width:1.0;stroke-dasharray:2.0,2.0;" x1="1712.5" x2="1712.5" y1="1141.5059" y2="1154.5059"/><line style="stroke:#181818;stroke-width:1.0;stroke-dasharray:2.0,2.0;" x1="1671.5" x2="1712.5" y1="1154.5059" y2="1154.5059"/><polygon fill="#181818" points="1681.5,1150.5059,1671.5,1154.5059,1681.5,1158.5059,1677.5,1154.5059" style="stroke:#181818;stroke-width:1.0;"/><text fill="#000000" font-family="sans-serif" font-size="13" font-weight="bold" lengthAdjust="spacing" textLength="14" x="1677.5" y="1136.2432">23</text><text fill="#000000" font-family="sans-serif" font-size="13" lengthAdjust="spacing" textLength="95" x="1695.5" y="1136.2432">validateCity(city)</text><line style="stroke:#181818;stroke-width:1.0;stroke-dasharray:2.0,2.0;" x1="1670.5" x2="1712.5" y1="1185.7969" y2="1185.7969"/><line style="stroke:#181818;stroke-width:1.0;stroke-dasharray:2.0,2.0;" x1="1712.5" x2="1712.5" y1="1185.7969" y2="1198.7969"/><line style="stroke:#181818;stroke-width:1.0;stroke-dasharray:2.0,2.0;" x1="1671.5" x2="1712.5" y1="1198.7969" y2="1198.7969"/><polygon fill="#181818" points="1681.5,1194.7969,1671.5,1198.7969,1681.5,1202.7969,1677.5,1198.7969" style="stroke:#181818;stroke-width:1.0;"/><text fill="#000000" font-family="sans-serif" font-size="13" font-weight="bold" lengthAdjust="spacing" textLength="14" x="1677.5" y="1180.5342">24</text><text fill="#000000" font-family="sans-serif" font-size="13" lengthAdjust="spacing" textLength="131" x="1695.5" y="1180.5342">validateDistrict(district)</text><line style="stroke:#181818;stroke-width:1.0;stroke-dasharray:2.0,2.0;" x1="1432.5" x2="1474.5" y1="1230.0879" y2="1230.0879"/><line style="stroke:#181818;stroke-width:1.0;stroke-dasharray:2.0,2.0;" x1="1474.5" x2="1474.5" y1="1230.0879" y2="1243.0879"/><line style="stroke:#181818;stroke-width:1.0;stroke-dasharray:2.0,2.0;" x1="1433.5" x2="1474.5" y1="1243.0879" y2="1243.0879"/><polygon fill="#181818" points="1443.5,1239.0879,1433.5,1243.0879,1443.5,1247.0879,1439.5,1243.0879" style="stroke:#181818;stroke-width:1.0;"/><text fill="#000000" font-family="sans-serif" font-size="13" font-weight="bold" lengthAdjust="spacing" textLength="14" x="1439.5" y="1224.8252">25</text><text fill="#000000" font-family="sans-serif" font-size="13" lengthAdjust="spacing" textLength="158" x="1457.5" y="1224.8252">validateTotalArea(totalArea)</text><line style="stroke:#181818;stroke-width:1.0;stroke-dasharray:2.0,2.0;" x1="1091.5" x2="1133.5" y1="1274.3789" y2="1274.3789"/><line style="stroke:#181818;stroke-width:1.0;stroke-dasharray:2.0,2.0;" x1="1133.5" x2="1133.5" y1="1274.3789" y2="1287.3789"/><line style="stroke:#181818;stroke-width:1.0;stroke-dasharray:2.0,2.0;" x1="1092.5" x2="1133.5" y1="1287.3789" y2="1287.3789"/><polygon fill="#181818" points="1102.5,1283.3789,1092.5,1287.3789,1102.5,1291.3789,1098.5,1287.3789" style="stroke:#181818;stroke-width:1.0;"/><text fill="#000000" font-family="sans-serif" font-size="13" font-weight="bold" lengthAdjust="spacing" textLength="14" x="1098.5" y="1269.1162">26</text><text fill="#000000" font-family="sans-serif" font-size="13" lengthAdjust="spacing" textLength="124" x="1116.5" y="1269.1162">add(newGreenSpace)</text><line style="stroke:#181818;stroke-width:1.0;stroke-dasharray:2.0,2.0;" x1="1091.5" x2="1133.5" y1="1318.6699" y2="1318.6699"/><line style="stroke:#181818;stroke-width:1.0;stroke-dasharray:2.0,2.0;" x1="1133.5" x2="1133.5" y1="1318.6699" y2="1331.6699"/><line style="stroke:#181818;stroke-width:1.0;stroke-dasharray:2.0,2.0;" x1="1092.5" x2="1133.5" y1="1331.6699" y2="1331.6699"/><polygon fill="#181818" points="1102.5,1327.6699,1092.5,1331.6699,1102.5,1335.6699,1098.5,1331.6699" style="stroke:#181818;stroke-width:1.0;"/><text fill="#000000" font-family="sans-serif" font-size="13" font-weight="bold" lengthAdjust="spacing" textLength="14" x="1098.5" y="1313.4072">27</text><text fill="#000000" font-family="sans-serif" font-size="13" lengthAdjust="spacing" textLength="218" x="1116.5" y="1313.4072">validateGreenSpace(newGreenSpace)</text><polygon fill="#181818" points="693,1358.9609,683,1362.9609,693,1366.9609,689,1362.9609" style="stroke:#181818;stroke-width:1.0;"/><line style="stroke:#181818;stroke-width:1.0;stroke-dasharray:2.0,2.0;" x1="687" x2="1085.5" y1="1362.9609" y2="1362.9609"/><text fill="#000000" font-family="sans-serif" font-size="13" font-weight="bold" lengthAdjust="spacing" textLength="14" x="699" y="1357.6982">28</text><text fill="#000000" font-family="sans-serif" font-size="13" lengthAdjust="spacing" textLength="106" x="717" y="1357.6982">operation success</text><polygon fill="#181818" points="387,1390.252,377,1394.252,387,1398.252,383,1394.252" style="stroke:#181818;stroke-width:1.0;"/><line style="stroke:#181818;stroke-width:1.0;stroke-dasharray:2.0,2.0;" x1="381" x2="676" y1="1394.252" y2="1394.252"/><text fill="#000000" font-family="sans-serif" font-size="13" font-weight="bold" lengthAdjust="spacing" textLength="14" x="393" y="1388.9893">29</text><text fill="#000000" font-family="sans-serif" font-size="13" lengthAdjust="spacing" textLength="106" x="411" y="1388.9893">operation success</text><polygon fill="#181818" points="76,1421.543,66,1425.543,76,1429.543,72,1425.543" style="stroke:#181818;stroke-width:1.0;"/><line style="stroke:#181818;stroke-width:1.0;stroke-dasharray:2.0,2.0;" x1="70" x2="365" y1="1425.543" y2="1425.543"/><text fill="#000000" font-family="sans-serif" font-size="13" font-weight="bold" lengthAdjust="spacing" textLength="14" x="82" y="1420.2803">30</text><text fill="#000000" font-family="sans-serif" font-size="13" lengthAdjust="spacing" textLength="158" x="100" y="1420.2803">displays operation success</text><!--SRC=[jLR1Rjim3BtxAuYUd245YXrx650aGr5WxOgwlUMYMQmZH9OyIMwHlnybAuhjk5cGRZev5ldUunF5s6w4QfXXDTHQwN9jT8tWJ8kPJJiDApUimi9j9OB1qZ5LoNw0NJEktuMgu9L9YrdcXAFGb-BgwnLSGe6_MrGbmbAmoiVdnNAMPQnrMhNrBpJqN3fjuEBM82eeY11NwfufOZKNm2pS5lSPSJbHYeOf1nVN1YjX7PgG4Z9UxaBeozrV8nTQEQEbZE2BvwSVevmdRBGLf4cW3J5Ftnz_3cDCBsIbfZFkb2MpIXoXLqb9ojh6ClsBKVHUTumPxTzmRj1sfF4v62hUcCFWN0Qqw04klv4zS4sH6mjEGsdGnp1G-0uzyqD2WY17mmk_AFsIKBnbNxuGKeUGIQqRQ9KJ4YnAQX7am9bZ82oyCIde6VaOn2kwfgQmZMHRqhEcpjisQ46_Gh08h1TZWIaU9AyKQUxmGIk4l6A6evf3ZLoqzHmaCnNE0W_70_rz1peK6mX7V0V58z7x0iVw0z06iLbIfRb7clMDy2zETi7uEs99K8ZF5Qjn3jQHAlSGxiXyfQXL79CBpMch56ux1qwDRKJfvdIOj7L3Xt5IzPtDaJEAFBFieFHZeK5daZbIUU22NUjtEcufEnlykITZIgrUXQcP4rgTKcECjzF5JJLqQkVzZGkdElziZOauJ9hqsg_0wmNuSK42AdIxeP7F1f4998oYmPPV8RzNINyy3O9xjXqY3UJiX7IoRYU6rZ69QVPDIatOFSbJO_6Oz6c6L48tJF_ReGuAZeFxeDIeePCJ1cQQjFzOofuniX7NRkOy47wug4TJudz7KXb_voSAcyRsAmBrINhYYW0VMJu7qcdCku-ASw4UKttvljHpmHRaKEvjEXTW6TtDZziyTUhFkqR9ZxJCe47ZVM6SvzG0-ouzBMt7s-lkqr7Y2D0DcZ3XmRPbwRzaFhZ_KnSktVmm_p-6wi4C1_BWluZllakcWGPQxhC_]--></g></svg>