<?xml version="1.0" encoding="us-ascii" standalone="no"?><svg xmlns="http://www.w3.org/2000/svg" xmlns:xlink="http://www.w3.org/1999/xlink" contentStyleType="text/css" height="955px" preserveAspectRatio="none" style="width:796px;height:955px;background:#FFFFFF;" version="1.1" viewBox="0 0 796 955" width="796px" zoomAndPan="magnify"><defs/><g><text fill="#000000" font-family="sans-serif" font-size="14" font-weight="bold" lengthAdjust="spacing" textLength="284" x="257.75" y="30.1074">US022 - System Sequence Diagram (SSD)</text><rect fill="#FFFFFF" height="720.6563" style="stroke:#181818;stroke-width:1.0;" width="10" x="33.5" y="133.2422"/><rect fill="#FFFFFF" height="57.582" style="stroke:#181818;stroke-width:1.0;" width="10" x="360.5" y="156.5332"/><rect fill="#FFFFFF" height="194.1641" style="stroke:#181818;stroke-width:1.0;" width="10" x="360.5" y="245.4063"/><rect fill="#FFFFFF" height="142.873" style="stroke:#181818;stroke-width:1.0;" width="10" x="360.5" y="711.0254"/><rect fill="#FFFFFF" height="82.582" style="stroke:#181818;stroke-width:1.0;" width="10" x="635.5" y="439.5703"/><rect fill="#FFFFFF" height="132.582" style="stroke:#181818;stroke-width:1.0;" width="10" x="635.5" y="578.4434"/><rect fill="none" height="151.1641" style="stroke:#000000;stroke-width:1.5;" width="532.5" x="10" y="171.5332"/><rect fill="none" height="176.1641" style="stroke:#000000;stroke-width:1.5;" width="780.5" x="10" y="479.5703"/><line style="stroke:#181818;stroke-width:0.5;stroke-dasharray:5.0,5.0;" x1="38" x2="38" y1="123.2422" y2="871.8984"/><line style="stroke:#181818;stroke-width:0.5;stroke-dasharray:5.0,5.0;" x1="365" x2="365" y1="123.2422" y2="871.8984"/><line style="stroke:#181818;stroke-width:0.5;stroke-dasharray:5.0,5.0;" x1="640.5" x2="640.5" y1="123.2422" y2="871.8984"/><text fill="#000000" font-family="sans-serif" font-size="14" lengthAdjust="spacing" textLength="31" x="20" y="119.7285">GSM</text><ellipse cx="38.5" cy="53.1211" fill="#E3E3E3" rx="8" ry="8" style="stroke:#181818;stroke-width:0.5;"/><path d="M38.5,61.1211 L38.5,88.1211 M25.5,69.1211 L51.5,69.1211 M38.5,88.1211 L25.5,103.1211 M38.5,88.1211 L51.5,103.1211 " fill="none" style="stroke:#181818;stroke-width:0.5;"/><text fill="#000000" font-family="sans-serif" font-size="14" lengthAdjust="spacing" textLength="31" x="20" y="886.0059">GSM</text><ellipse cx="38.5" cy="898.0195" fill="#E3E3E3" rx="8" ry="8" style="stroke:#181818;stroke-width:0.5;"/><path d="M38.5,906.0195 L38.5,933.0195 M25.5,914.0195 L51.5,914.0195 M38.5,933.0195 L25.5,948.0195 M38.5,933.0195 L51.5,948.0195 " fill="none" style="stroke:#181818;stroke-width:0.5;"/><rect fill="#E3E3E3" height="32.6211" rx="2.5" ry="2.5" style="stroke:#181818;stroke-width:0.5;" width="163" x="284" y="89.6211"/><text fill="#000000" font-family="sans-serif" font-size="14" lengthAdjust="spacing" textLength="149" x="291" y="111.7285">:AddNewEntryAgendaUI</text><rect fill="#E3E3E3" height="32.6211" rx="2.5" ry="2.5" style="stroke:#181818;stroke-width:0.5;" width="163" x="284" y="870.8984"/><text fill="#000000" font-family="sans-serif" font-size="14" lengthAdjust="spacing" textLength="149" x="291" y="893.0059">:AddNewEntryAgendaUI</text><rect fill="#E3E3E3" height="32.6211" rx="2.5" ry="2.5" style="stroke:#181818;stroke-width:0.5;" width="136" x="572.5" y="89.6211"/><text fill="#000000" font-family="sans-serif" font-size="14" lengthAdjust="spacing" textLength="122" x="579.5" y="111.7285">:InsertDatePopupUI</text><rect fill="#E3E3E3" height="32.6211" rx="2.5" ry="2.5" style="stroke:#181818;stroke-width:0.5;" width="136" x="572.5" y="870.8984"/><text fill="#000000" font-family="sans-serif" font-size="14" lengthAdjust="spacing" textLength="122" x="579.5" y="893.0059">:InsertDatePopupUI</text><rect fill="#FFFFFF" height="720.6563" style="stroke:#181818;stroke-width:1.0;" width="10" x="33.5" y="133.2422"/><rect fill="#FFFFFF" height="57.582" style="stroke:#181818;stroke-width:1.0;" width="10" x="360.5" y="156.5332"/><rect fill="#FFFFFF" height="194.1641" style="stroke:#181818;stroke-width:1.0;" width="10" x="360.5" y="245.4063"/><rect fill="#FFFFFF" height="142.873" style="stroke:#181818;stroke-width:1.0;" width="10" x="360.5" y="711.0254"/><rect fill="#FFFFFF" height="82.582" style="stroke:#181818;stroke-width:1.0;" width="10" x="635.5" y="439.5703"/><rect fill="#FFFFFF" height="132.582" style="stroke:#181818;stroke-width:1.0;" width="10" x="635.5" y="578.4434"/><polygon fill="#181818" points="348.5,152.5332,358.5,156.5332,348.5,160.5332,352.5,156.5332" style="stroke:#181818;stroke-width:1.0;"/><line style="stroke:#181818;stroke-width:1.0;" x1="43.5" x2="354.5" y1="156.5332" y2="156.5332"/><text fill="#000000" font-family="sans-serif" font-size="13" font-weight="bold" lengthAdjust="spacing" textLength="7" x="50.5" y="151.2705">1</text><text fill="#000000" font-family="sans-serif" font-size="13" lengthAdjust="spacing" textLength="207" x="61.5" y="151.2705">Asks to add a new entry on Agenda</text><path d="M10,171.5332 L83,171.5332 L83,180.8242 L73,190.8242 L10,190.8242 L10,171.5332 " fill="#EEEEEE" style="stroke:#000000;stroke-width:1.5;"/><rect fill="none" height="151.1641" style="stroke:#000000;stroke-width:1.5;" width="532.5" x="10" y="171.5332"/><text fill="#000000" font-family="sans-serif" font-size="13" font-weight="bold" lengthAdjust="spacing" textLength="28" x="25" y="186.5615">loop</text><text fill="#000000" font-family="sans-serif" font-size="11" font-weight="bold" lengthAdjust="spacing" textLength="189" x="98" y="185.4033">[until doesn't select a valid option]</text><polygon fill="#181818" points="54.5,210.1152,44.5,214.1152,54.5,218.1152,50.5,214.1152" style="stroke:#181818;stroke-width:1.0;"/><line style="stroke:#181818;stroke-width:1.0;stroke-dasharray:2.0,2.0;" x1="48.5" x2="364.5" y1="214.1152" y2="214.1152"/><text fill="#000000" font-family="sans-serif" font-size="13" font-weight="bold" lengthAdjust="spacing" textLength="7" x="60.5" y="208.8525">2</text><text fill="#000000" font-family="sans-serif" font-size="13" lengthAdjust="spacing" textLength="282" x="71.5" y="208.8525">Shows the To-Do list and asks to select the task</text><polygon fill="#181818" points="348.5,241.4063,358.5,245.4063,348.5,249.4063,352.5,245.4063" style="stroke:#181818;stroke-width:1.0;"/><line style="stroke:#181818;stroke-width:1.0;" x1="43.5" x2="354.5" y1="245.4063" y2="245.4063"/><text fill="#000000" font-family="sans-serif" font-size="13" font-weight="bold" lengthAdjust="spacing" textLength="7" x="50.5" y="240.1436">3</text><text fill="#000000" font-family="sans-serif" font-size="13" lengthAdjust="spacing" textLength="84" x="61.5" y="240.1436">Selects a task</text><line style="stroke:#181818;stroke-width:1.0;stroke-dasharray:2.0,2.0;" x1="370.5" x2="412.5" y1="276.6973" y2="276.6973"/><line style="stroke:#181818;stroke-width:1.0;stroke-dasharray:2.0,2.0;" x1="412.5" x2="412.5" y1="276.6973" y2="289.6973"/><line style="stroke:#181818;stroke-width:1.0;stroke-dasharray:2.0,2.0;" x1="371.5" x2="412.5" y1="289.6973" y2="289.6973"/><polygon fill="#181818" points="381.5,285.6973,371.5,289.6973,381.5,293.6973,377.5,289.6973" style="stroke:#181818;stroke-width:1.0;"/><text fill="#000000" font-family="sans-serif" font-size="13" font-weight="bold" lengthAdjust="spacing" textLength="7" x="377.5" y="271.4346">4</text><text fill="#000000" font-family="sans-serif" font-size="13" lengthAdjust="spacing" textLength="142" x="388.5" y="271.4346">validates selected option</text><line style="stroke:#181818;stroke-width:1.0;stroke-dasharray:2.0,2.0;" x1="370.5" x2="412.5" y1="352.9883" y2="352.9883"/><line style="stroke:#181818;stroke-width:1.0;stroke-dasharray:2.0,2.0;" x1="412.5" x2="412.5" y1="352.9883" y2="365.9883"/><line style="stroke:#181818;stroke-width:1.0;stroke-dasharray:2.0,2.0;" x1="371.5" x2="412.5" y1="365.9883" y2="365.9883"/><polygon fill="#181818" points="381.5,361.9883,371.5,365.9883,381.5,369.9883,377.5,365.9883" style="stroke:#181818;stroke-width:1.0;"/><text fill="#000000" font-family="sans-serif" font-size="13" font-weight="bold" lengthAdjust="spacing" textLength="7" x="377.5" y="347.7256">5</text><text fill="#000000" font-family="sans-serif" font-size="13" lengthAdjust="spacing" textLength="88" x="388.5" y="347.7256">keepData(task)</text><polygon fill="#181818" points="623.5,435.5703,633.5,439.5703,623.5,443.5703,627.5,439.5703" style="stroke:#181818;stroke-width:1.0;"/><line style="stroke:#181818;stroke-width:1.0;" x1="365.5" x2="629.5" y1="439.5703" y2="439.5703"/><text fill="#000000" font-family="sans-serif" font-size="13" font-weight="bold" lengthAdjust="spacing" textLength="7" x="372.5" y="425.6621">6</text><text fill="#000000" font-family="sans-serif" font-size="13" lengthAdjust="spacing" textLength="233" x="383.5" y="417.0166">Show the popup to insert task execution</text><text fill="#000000" font-family="sans-serif" font-size="13" lengthAdjust="spacing" textLength="79" x="383.5" y="434.3076">date and hour</text><path d="M10,479.5703 L83,479.5703 L83,488.8613 L73,498.8613 L10,498.8613 L10,479.5703 " fill="#EEEEEE" style="stroke:#000000;stroke-width:1.5;"/><rect fill="none" height="176.1641" style="stroke:#000000;stroke-width:1.5;" width="780.5" x="10" y="479.5703"/><text fill="#000000" font-family="sans-serif" font-size="13" font-weight="bold" lengthAdjust="spacing" textLength="28" x="25" y="494.5986">loop</text><text fill="#000000" font-family="sans-serif" font-size="11" font-weight="bold" lengthAdjust="spacing" textLength="157" x="98" y="493.4404">[until typed data is validated]</text><polygon fill="#181818" points="54.5,518.1523,44.5,522.1523,54.5,526.1523,50.5,522.1523" style="stroke:#181818;stroke-width:1.0;"/><line style="stroke:#181818;stroke-width:1.0;stroke-dasharray:2.0,2.0;" x1="48.5" x2="639.5" y1="522.1523" y2="522.1523"/><text fill="#000000" font-family="sans-serif" font-size="13" font-weight="bold" lengthAdjust="spacing" textLength="7" x="60.5" y="516.8896">7</text><text fill="#000000" font-family="sans-serif" font-size="13" lengthAdjust="spacing" textLength="441" x="71.5" y="516.8896">Asks to type requested data ()execution date and hour for the selected task)</text><polygon fill="#181818" points="623.5,574.4434,633.5,578.4434,623.5,582.4434,627.5,578.4434" style="stroke:#181818;stroke-width:1.0;"/><line style="stroke:#181818;stroke-width:1.0;" x1="43.5" x2="629.5" y1="578.4434" y2="578.4434"/><text fill="#000000" font-family="sans-serif" font-size="13" font-weight="bold" lengthAdjust="spacing" textLength="7" x="50.5" y="573.1807">8</text><text fill="#000000" font-family="sans-serif" font-size="13" lengthAdjust="spacing" textLength="435" x="61.5" y="573.1807">Enters date (selectedDate) and time (workStartingHours, workStartingMins)</text><line style="stroke:#181818;stroke-width:1.0;stroke-dasharray:2.0,2.0;" x1="645.5" x2="687.5" y1="609.7344" y2="609.7344"/><line style="stroke:#181818;stroke-width:1.0;stroke-dasharray:2.0,2.0;" x1="687.5" x2="687.5" y1="609.7344" y2="622.7344"/><line style="stroke:#181818;stroke-width:1.0;stroke-dasharray:2.0,2.0;" x1="646.5" x2="687.5" y1="622.7344" y2="622.7344"/><polygon fill="#181818" points="656.5,618.7344,646.5,622.7344,656.5,626.7344,652.5,622.7344" style="stroke:#181818;stroke-width:1.0;"/><text fill="#000000" font-family="sans-serif" font-size="13" font-weight="bold" lengthAdjust="spacing" textLength="7" x="652.5" y="604.4717">9</text><text fill="#000000" font-family="sans-serif" font-size="13" lengthAdjust="spacing" textLength="115" x="663.5" y="604.4717">validates typed data</text><polygon fill="#181818" points="381.5,707.0254,371.5,711.0254,381.5,715.0254,377.5,711.0254" style="stroke:#181818;stroke-width:1.0;"/><line style="stroke:#181818;stroke-width:1.0;stroke-dasharray:2.0,2.0;" x1="375.5" x2="639.5" y1="711.0254" y2="711.0254"/><text fill="#000000" font-family="sans-serif" font-size="13" font-weight="bold" lengthAdjust="spacing" textLength="14" x="387.5" y="705.7627">10</text><text fill="#000000" font-family="sans-serif" font-size="13" lengthAdjust="spacing" textLength="212" x="405.5" y="705.7627">Sends date and time data to Main UI</text><line style="stroke:#181818;stroke-width:1.0;stroke-dasharray:2.0,2.0;" x1="370.5" x2="412.5" y1="784.6074" y2="784.6074"/><line style="stroke:#181818;stroke-width:1.0;stroke-dasharray:2.0,2.0;" x1="412.5" x2="412.5" y1="784.6074" y2="797.6074"/><line style="stroke:#181818;stroke-width:1.0;stroke-dasharray:2.0,2.0;" x1="371.5" x2="412.5" y1="797.6074" y2="797.6074"/><polygon fill="#181818" points="381.5,793.6074,371.5,797.6074,381.5,801.6074,377.5,797.6074" style="stroke:#181818;stroke-width:1.0;"/><text fill="#000000" font-family="sans-serif" font-size="13" font-weight="bold" lengthAdjust="spacing" textLength="14" x="377.5" y="770.6992">11</text><text fill="#000000" font-family="sans-serif" font-size="13" lengthAdjust="spacing" textLength="233" x="395.5" y="762.0537">add selected task to agenda and set the</text><text fill="#000000" font-family="sans-serif" font-size="13" lengthAdjust="spacing" textLength="228" x="395.5" y="779.3447">status of the selected task to "planned"</text><polygon fill="#181818" points="49.5,849.8984,39.5,853.8984,49.5,857.8984,45.5,853.8984" style="stroke:#181818;stroke-width:1.0;"/><line style="stroke:#181818;stroke-width:1.0;stroke-dasharray:2.0,2.0;" x1="43.5" x2="364.5" y1="853.8984" y2="853.8984"/><text fill="#000000" font-family="sans-serif" font-size="13" font-weight="bold" lengthAdjust="spacing" textLength="14" x="55.5" y="848.6357">12</text><text fill="#000000" font-family="sans-serif" font-size="13" lengthAdjust="spacing" textLength="153" x="73.5" y="848.6357">Display operation success</text><!--SRC=[XLHBZzf03BxdLrXS2bAHgZroM0c9gkL0LIdbjfTfuWqZminqx2n5uiVNupn85jhcmf2n_JriXuxM1HFD2KxU-U8G_Gc1OuCP3JV154TJOSwN6Y5YmSPLzJY03gRqP-igU3KrOPQnPGdTvv-Udc09-OKOJv3ZhmPTWR2nfaffyppVBBBCDEnTS_g9KSu5-mYpB_bk1eP0VZE1O5lOO1p3RBKkoszu_kmuNjOLkjBijngvtxuBt3h2o1l3-Ds79dHXUbOO-oPN2f21F7A0vREKWHMiwKZ07anPWW67Py241zv1Yzcc34K46xgdzZv0uzZMK7eazu61i1RBfD2RgMq9Fh3rRaWGmANW9lWLv0T_5kG3mW-_t7YeBKcY4nOTewvMYc1vbxL4IXnJkTUJQnO91KrwnBsZeU7AK-weWyCxqjVhTJYB7zbxDLhcY1Z4VZDFe8j9xYJ-kMrA9r-r1NqXUgqsKMa3_iQYIJHUN6AdlXny4uTYKniUSHtkkp5uq3M-1D4h00Oi3LQC9BPaRpthXoKbodB8Y1Ft5UQBWJHCECEhJ7bIEZWyDMaaPKJrNc0lhkksngv0jWCZjOZp7Y5jma89i9KLdvzzFEQSLiPLNuKIVOJngvrOlyZ-PjhDXBvtjw6vEJYXA7EYFcTtGt0hjj-cONKbtTnIicgcUBmprlNI7rlqlmaO3sXQxud_klEwu0fDg9lsueWDDmJ-zRvbAMKMQkCSbhD_8RR3ih4amV8b2HYDZWKrHO54Z_Puz3Tzflu0]--></g></svg>