<?xml version="1.0" encoding="us-ascii" standalone="no"?><svg xmlns="http://www.w3.org/2000/svg" xmlns:xlink="http://www.w3.org/1999/xlink" contentStyleType="text/css" height="653px" preserveAspectRatio="none" style="width:615px;height:653px;background:#FFFFFF;" version="1.1" viewBox="0 0 615 653" width="615px" zoomAndPan="magnify"><defs/><g><text fill="#000000" font-family="sans-serif" font-size="14" font-weight="bold" lengthAdjust="spacing" textLength="284" x="167.75" y="30.1074">US022 - System Sequence Diagram (SSD)</text><rect fill="#FFFFFF" height="418.9102" style="stroke:#181818;stroke-width:1.0;" width="10" x="33.5" y="133.2422"/><rect fill="#FFFFFF" height="57.582" style="stroke:#181818;stroke-width:1.0;" width="10" x="360.5" y="156.5332"/><rect fill="#FFFFFF" height="132.582" style="stroke:#181818;stroke-width:1.0;" width="10" x="360.5" y="245.4063"/><rect fill="#FFFFFF" height="142.873" style="stroke:#181818;stroke-width:1.0;" width="10" x="360.5" y="409.2793"/><rect fill="none" height="106.873" style="stroke:#000000;stroke-width:1.5;" width="447" x="10" y="171.5332"/><line style="stroke:#181818;stroke-width:0.5;stroke-dasharray:5.0,5.0;" x1="38" x2="38" y1="123.2422" y2="570.1523"/><line style="stroke:#181818;stroke-width:0.5;stroke-dasharray:5.0,5.0;" x1="365" x2="365" y1="123.2422" y2="570.1523"/><text fill="#000000" font-family="sans-serif" font-size="14" lengthAdjust="spacing" textLength="31" x="20" y="119.7285">GSM</text><ellipse cx="38.5" cy="53.1211" fill="#E3E3E3" rx="8" ry="8" style="stroke:#181818;stroke-width:0.5;"/><path d="M38.5,61.1211 L38.5,88.1211 M25.5,69.1211 L51.5,69.1211 M38.5,88.1211 L25.5,103.1211 M38.5,88.1211 L51.5,103.1211 " fill="none" style="stroke:#181818;stroke-width:0.5;"/><text fill="#000000" font-family="sans-serif" font-size="14" lengthAdjust="spacing" textLength="31" x="20" y="584.2598">GSM</text><ellipse cx="38.5" cy="596.2734" fill="#E3E3E3" rx="8" ry="8" style="stroke:#181818;stroke-width:0.5;"/><path d="M38.5,604.2734 L38.5,631.2734 M25.5,612.2734 L51.5,612.2734 M38.5,631.2734 L25.5,646.2734 M38.5,631.2734 L51.5,646.2734 " fill="none" style="stroke:#181818;stroke-width:0.5;"/><rect fill="#E3E3E3" height="32.6211" rx="2.5" ry="2.5" style="stroke:#181818;stroke-width:0.5;" width="163" x="284" y="89.6211"/><text fill="#000000" font-family="sans-serif" font-size="14" lengthAdjust="spacing" textLength="149" x="291" y="111.7285">:AddNewEntryAgendaUI</text><rect fill="#E3E3E3" height="32.6211" rx="2.5" ry="2.5" style="stroke:#181818;stroke-width:0.5;" width="163" x="284" y="569.1523"/><text fill="#000000" font-family="sans-serif" font-size="14" lengthAdjust="spacing" textLength="149" x="291" y="591.2598">:AddNewEntryAgendaUI</text><rect fill="#FFFFFF" height="418.9102" style="stroke:#181818;stroke-width:1.0;" width="10" x="33.5" y="133.2422"/><rect fill="#FFFFFF" height="57.582" style="stroke:#181818;stroke-width:1.0;" width="10" x="360.5" y="156.5332"/><rect fill="#FFFFFF" height="132.582" style="stroke:#181818;stroke-width:1.0;" width="10" x="360.5" y="245.4063"/><rect fill="#FFFFFF" height="142.873" style="stroke:#181818;stroke-width:1.0;" width="10" x="360.5" y="409.2793"/><polygon fill="#181818" points="348.5,152.5332,358.5,156.5332,348.5,160.5332,352.5,156.5332" style="stroke:#181818;stroke-width:1.0;"/><line style="stroke:#181818;stroke-width:1.0;" x1="43.5" x2="354.5" y1="156.5332" y2="156.5332"/><text fill="#000000" font-family="sans-serif" font-size="13" font-weight="bold" lengthAdjust="spacing" textLength="7" x="50.5" y="151.2705">1</text><text fill="#000000" font-family="sans-serif" font-size="13" lengthAdjust="spacing" textLength="207" x="61.5" y="151.2705">Asks to add a new entry on Agenda</text><path d="M10,171.5332 L83,171.5332 L83,180.8242 L73,190.8242 L10,190.8242 L10,171.5332 " fill="#EEEEEE" style="stroke:#000000;stroke-width:1.5;"/><rect fill="none" height="106.873" style="stroke:#000000;stroke-width:1.5;" width="447" x="10" y="171.5332"/><text fill="#000000" font-family="sans-serif" font-size="13" font-weight="bold" lengthAdjust="spacing" textLength="28" x="25" y="186.5615">loop</text><text fill="#000000" font-family="sans-serif" font-size="11" font-weight="bold" lengthAdjust="spacing" textLength="189" x="98" y="185.4033">[until doesn't select a valid option]</text><polygon fill="#181818" points="54.5,210.1152,44.5,214.1152,54.5,218.1152,50.5,214.1152" style="stroke:#181818;stroke-width:1.0;"/><line style="stroke:#181818;stroke-width:1.0;stroke-dasharray:2.0,2.0;" x1="48.5" x2="364.5" y1="214.1152" y2="214.1152"/><text fill="#000000" font-family="sans-serif" font-size="13" font-weight="bold" lengthAdjust="spacing" textLength="7" x="60.5" y="208.8525">2</text><text fill="#000000" font-family="sans-serif" font-size="13" lengthAdjust="spacing" textLength="282" x="71.5" y="208.8525">Shows the To-Do list and asks to select the task</text><polygon fill="#181818" points="348.5,241.4063,358.5,245.4063,348.5,249.4063,352.5,245.4063" style="stroke:#181818;stroke-width:1.0;"/><line style="stroke:#181818;stroke-width:1.0;" x1="43.5" x2="354.5" y1="245.4063" y2="245.4063"/><text fill="#000000" font-family="sans-serif" font-size="13" font-weight="bold" lengthAdjust="spacing" textLength="7" x="50.5" y="240.1436">3</text><text fill="#000000" font-family="sans-serif" font-size="13" lengthAdjust="spacing" textLength="84" x="61.5" y="240.1436">Selects a task</text><line style="stroke:#181818;stroke-width:1.0;stroke-dasharray:2.0,2.0;" x1="370.5" x2="412.5" y1="308.6973" y2="308.6973"/><line style="stroke:#181818;stroke-width:1.0;stroke-dasharray:2.0,2.0;" x1="412.5" x2="412.5" y1="308.6973" y2="321.6973"/><line style="stroke:#181818;stroke-width:1.0;stroke-dasharray:2.0,2.0;" x1="371.5" x2="412.5" y1="321.6973" y2="321.6973"/><polygon fill="#181818" points="381.5,317.6973,371.5,321.6973,381.5,325.6973,377.5,321.6973" style="stroke:#181818;stroke-width:1.0;"/><text fill="#000000" font-family="sans-serif" font-size="13" font-weight="bold" lengthAdjust="spacing" textLength="7" x="377.5" y="303.4346">4</text><text fill="#000000" font-family="sans-serif" font-size="13" lengthAdjust="spacing" textLength="88" x="388.5" y="303.4346">keepData(task)</text><polygon fill="#181818" points="54.5,373.9883,44.5,377.9883,54.5,381.9883,50.5,377.9883" style="stroke:#181818;stroke-width:1.0;"/><line style="stroke:#181818;stroke-width:1.0;stroke-dasharray:2.0,2.0;" x1="48.5" x2="364.5" y1="377.9883" y2="377.9883"/><text fill="#000000" font-family="sans-serif" font-size="13" font-weight="bold" lengthAdjust="spacing" textLength="7" x="60.5" y="372.7256">5</text><text fill="#000000" font-family="sans-serif" font-size="13" lengthAdjust="spacing" textLength="238" x="71.5" y="372.7256">Shows all data and requests confirmation</text><polygon fill="#181818" points="348.5,405.2793,358.5,409.2793,348.5,413.2793,352.5,409.2793" style="stroke:#181818;stroke-width:1.0;"/><line style="stroke:#181818;stroke-width:1.0;" x1="43.5" x2="354.5" y1="409.2793" y2="409.2793"/><text fill="#000000" font-family="sans-serif" font-size="13" font-weight="bold" lengthAdjust="spacing" textLength="7" x="50.5" y="404.0166">6</text><text fill="#000000" font-family="sans-serif" font-size="13" lengthAdjust="spacing" textLength="80" x="61.5" y="404.0166">Confirms data</text><line style="stroke:#181818;stroke-width:1.0;stroke-dasharray:2.0,2.0;" x1="370.5" x2="412.5" y1="482.8613" y2="482.8613"/><line style="stroke:#181818;stroke-width:1.0;stroke-dasharray:2.0,2.0;" x1="412.5" x2="412.5" y1="482.8613" y2="495.8613"/><line style="stroke:#181818;stroke-width:1.0;stroke-dasharray:2.0,2.0;" x1="371.5" x2="412.5" y1="495.8613" y2="495.8613"/><polygon fill="#181818" points="381.5,491.8613,371.5,495.8613,381.5,499.8613,377.5,495.8613" style="stroke:#181818;stroke-width:1.0;"/><text fill="#000000" font-family="sans-serif" font-size="13" font-weight="bold" lengthAdjust="spacing" textLength="7" x="377.5" y="468.9531">7</text><text fill="#000000" font-family="sans-serif" font-size="13" lengthAdjust="spacing" textLength="220" x="388.5" y="460.3076">add task to agenda and set the status</text><text fill="#000000" font-family="sans-serif" font-size="13" lengthAdjust="spacing" textLength="188" x="388.5" y="477.5986">of the selected task to "planned"</text><polygon fill="#181818" points="49.5,548.1523,39.5,552.1523,49.5,556.1523,45.5,552.1523" style="stroke:#181818;stroke-width:1.0;"/><line style="stroke:#181818;stroke-width:1.0;stroke-dasharray:2.0,2.0;" x1="43.5" x2="364.5" y1="552.1523" y2="552.1523"/><text fill="#000000" font-family="sans-serif" font-size="13" font-weight="bold" lengthAdjust="spacing" textLength="7" x="55.5" y="546.8896">8</text><text fill="#000000" font-family="sans-serif" font-size="13" lengthAdjust="spacing" textLength="153" x="66.5" y="546.8896">Display operation success</text><!--SRC=[ZLAzRjim4Dxv50SjIGO3HKOF0OoeA38qY-gjorKyouIfeyexnJ3WXy-9CbId3Ono4KNUztT7EGGUC6CFVUBKxdFg2JIFv6Iv6R0zO4UDdY91fbQHktXT87lqwHYuWnr68USqg9Lkco-FZx22vYHAFJJqUoHk2Ug0tGIxRvhwmJaSDV7O_w9i-rPJXkfRyxq25B2lCmaDRHYG5QhrnljNEdvbpQTDH-nn-r8gjoy57DvGgS0SsB8Dh9xi4jQmaOE09a3l0O7f23InG6AOcMR8GcACS5anfG56rX319nA-Kn2ArWWZUiCOFAH1G-85O88hqvtarz3iqz6KzmG_qgfE48COaCt5nT65QwfGEoiidgwD_1EcAH0n_GNncV7p-RpiBQBxss3XEX0DDIhUJrGF7x2t0c6qRXYiHCdJRCKCjObt8VUujEDMa3Kyp-LIcDn_vRYsFiroSbtcMePOt0ZDtHH57UKdfztyMvf6Vo3L496PV7LBQCvS1x5YUoq3vH8EP6nR4d7kivXbNPsL5_aE]--></g></svg>