<?xml version="1.0" encoding="us-ascii" standalone="no"?><svg xmlns="http://www.w3.org/2000/svg" xmlns:xlink="http://www.w3.org/1999/xlink" contentStyleType="text/css" height="750px" preserveAspectRatio="none" style="width:676px;height:750px;background:#FFFFFF;" version="1.1" viewBox="0 0 676 750" width="676px" zoomAndPan="magnify"><defs/><g><text fill="#000000" font-family="sans-serif" font-size="14" font-weight="bold" lengthAdjust="spacing" textLength="284" x="198" y="30.1074">US003 - System Sequence Diagram (SSD)</text><rect fill="#FFFFFF" height="525.0742" style="stroke:#181818;stroke-width:1.0;" width="10" x="33" y="133.2422"/><rect fill="#FFFFFF" height="73.582" style="stroke:#181818;stroke-width:1.0;" width="10" x="418" y="156.5332"/><rect fill="#FFFFFF" height="31.291" style="stroke:#181818;stroke-width:1.0;" width="10" x="418" y="287.6973"/><rect fill="#FFFFFF" height="125.582" style="stroke:#181818;stroke-width:1.0;" width="10" x="418" y="350.2793"/><rect fill="#FFFFFF" height="135.1641" style="stroke:#181818;stroke-width:1.0;" width="10" x="418" y="514.1523"/><rect fill="none" height="238.7461" style="stroke:#000000;stroke-width:1.5;" width="525" x="10" y="245.1152"/><line style="stroke:#181818;stroke-width:0.5;stroke-dasharray:5.0,5.0;" x1="38" x2="38" y1="123.2422" y2="667.3164"/><line style="stroke:#181818;stroke-width:0.5;stroke-dasharray:5.0,5.0;" x1="422.5" x2="422.5" y1="123.2422" y2="667.3164"/><text fill="#000000" font-family="sans-serif" font-size="14" lengthAdjust="spacing" textLength="30" x="20" y="119.7285">HRM</text><ellipse cx="38" cy="53.1211" fill="#E3E3E3" rx="8" ry="8" style="stroke:#181818;stroke-width:0.5;"/><path d="M38,61.1211 L38,88.1211 M25,69.1211 L51,69.1211 M38,88.1211 L25,103.1211 M38,88.1211 L51,103.1211 " fill="none" style="stroke:#181818;stroke-width:0.5;"/><text fill="#000000" font-family="sans-serif" font-size="14" lengthAdjust="spacing" textLength="30" x="20" y="681.4238">HRM</text><ellipse cx="38" cy="693.4375" fill="#E3E3E3" rx="8" ry="8" style="stroke:#181818;stroke-width:0.5;"/><path d="M38,701.4375 L38,728.4375 M25,709.4375 L51,709.4375 M38,728.4375 L25,743.4375 M38,728.4375 L51,743.4375 " fill="none" style="stroke:#181818;stroke-width:0.5;"/><rect fill="#E3E3E3" height="32.6211" rx="2.5" ry="2.5" style="stroke:#181818;stroke-width:0.5;" width="123" x="361.5" y="89.6211"/><text fill="#000000" font-family="sans-serif" font-size="14" lengthAdjust="spacing" textLength="109" x="368.5" y="111.7285">:RegisterCollabUI</text><rect fill="#E3E3E3" height="32.6211" rx="2.5" ry="2.5" style="stroke:#181818;stroke-width:0.5;" width="123" x="361.5" y="666.3164"/><text fill="#000000" font-family="sans-serif" font-size="14" lengthAdjust="spacing" textLength="109" x="368.5" y="688.4238">:RegisterCollabUI</text><rect fill="#FFFFFF" height="525.0742" style="stroke:#181818;stroke-width:1.0;" width="10" x="33" y="133.2422"/><rect fill="#FFFFFF" height="73.582" style="stroke:#181818;stroke-width:1.0;" width="10" x="418" y="156.5332"/><rect fill="#FFFFFF" height="31.291" style="stroke:#181818;stroke-width:1.0;" width="10" x="418" y="287.6973"/><rect fill="#FFFFFF" height="125.582" style="stroke:#181818;stroke-width:1.0;" width="10" x="418" y="350.2793"/><rect fill="#FFFFFF" height="135.1641" style="stroke:#181818;stroke-width:1.0;" width="10" x="418" y="514.1523"/><polygon fill="#181818" points="406,152.5332,416,156.5332,406,160.5332,410,156.5332" style="stroke:#181818;stroke-width:1.0;"/><line style="stroke:#181818;stroke-width:1.0;" x1="43" x2="412" y1="156.5332" y2="156.5332"/><text fill="#000000" font-family="sans-serif" font-size="13" font-weight="bold" lengthAdjust="spacing" textLength="7" x="50" y="151.2705">1</text><text fill="#000000" font-family="sans-serif" font-size="13" lengthAdjust="spacing" textLength="174" x="61" y="151.2705">Asks to register a collaborator</text><polygon fill="#181818" points="54,226.1152,44,230.1152,54,234.1152,50,230.1152" style="stroke:#181818;stroke-width:1.0;"/><line style="stroke:#181818;stroke-width:1.0;stroke-dasharray:2.0,2.0;" x1="48" x2="422" y1="230.1152" y2="230.1152"/><text fill="#000000" font-family="sans-serif" font-size="13" font-weight="bold" lengthAdjust="spacing" textLength="7" x="60" y="216.207">2</text><text fill="#000000" font-family="sans-serif" font-size="13" lengthAdjust="spacing" textLength="336" x="71" y="207.5615">Requests data (name, birthdate, admission date, address,</text><text fill="#000000" font-family="sans-serif" font-size="13" lengthAdjust="spacing" textLength="286" x="71" y="224.8525">email,mobile number, id doc type, id doc number)</text><path d="M10,245.1152 L83,245.1152 L83,254.4063 L73,264.4063 L10,264.4063 L10,245.1152 " fill="#EEEEEE" style="stroke:#000000;stroke-width:1.5;"/><rect fill="none" height="238.7461" style="stroke:#000000;stroke-width:1.5;" width="525" x="10" y="245.1152"/><text fill="#000000" font-family="sans-serif" font-size="13" font-weight="bold" lengthAdjust="spacing" textLength="28" x="25" y="260.1436">loop</text><text fill="#000000" font-family="sans-serif" font-size="11" font-weight="bold" lengthAdjust="spacing" textLength="157" x="98" y="258.9854">[until typed data is validated]</text><polygon fill="#181818" points="406,283.6973,416,287.6973,406,291.6973,410,287.6973" style="stroke:#181818;stroke-width:1.0;"/><line style="stroke:#181818;stroke-width:1.0;" x1="43" x2="412" y1="287.6973" y2="287.6973"/><text fill="#000000" font-family="sans-serif" font-size="13" font-weight="bold" lengthAdjust="spacing" textLength="7" x="50" y="282.4346">3</text><text fill="#000000" font-family="sans-serif" font-size="13" lengthAdjust="spacing" textLength="125" x="61" y="282.4346">Types requested data</text><polygon fill="#181818" points="54,314.9883,44,318.9883,54,322.9883,50,318.9883" style="stroke:#181818;stroke-width:1.0;"/><line style="stroke:#181818;stroke-width:1.0;stroke-dasharray:2.0,2.0;" x1="48" x2="422" y1="318.9883" y2="318.9883"/><text fill="#000000" font-family="sans-serif" font-size="13" font-weight="bold" lengthAdjust="spacing" textLength="7" x="60" y="313.7256">4</text><text fill="#000000" font-family="sans-serif" font-size="13" lengthAdjust="spacing" textLength="217" x="71" y="313.7256">Shows job list and asks to select one</text><polygon fill="#181818" points="406,346.2793,416,350.2793,406,354.2793,410,350.2793" style="stroke:#181818;stroke-width:1.0;"/><line style="stroke:#181818;stroke-width:1.0;" x1="43" x2="412" y1="350.2793" y2="350.2793"/><text fill="#000000" font-family="sans-serif" font-size="13" font-weight="bold" lengthAdjust="spacing" textLength="7" x="50" y="345.0166">5</text><text fill="#000000" font-family="sans-serif" font-size="13" lengthAdjust="spacing" textLength="76" x="61" y="345.0166">Selects a job</text><line style="stroke:#181818;stroke-width:1.0;stroke-dasharray:2.0,2.0;" x1="428" x2="470" y1="406.5703" y2="406.5703"/><line style="stroke:#181818;stroke-width:1.0;stroke-dasharray:2.0,2.0;" x1="470" x2="470" y1="406.5703" y2="419.5703"/><line style="stroke:#181818;stroke-width:1.0;stroke-dasharray:2.0,2.0;" x1="429" x2="470" y1="419.5703" y2="419.5703"/><polygon fill="#181818" points="439,415.5703,429,419.5703,439,423.5703,435,419.5703" style="stroke:#181818;stroke-width:1.0;"/><text fill="#000000" font-family="sans-serif" font-size="13" font-weight="bold" lengthAdjust="spacing" textLength="7" x="435" y="401.3076">6</text><text fill="#000000" font-family="sans-serif" font-size="13" lengthAdjust="spacing" textLength="77" x="446" y="401.3076">validatesData</text><polygon fill="#181818" points="54,471.8613,44,475.8613,54,479.8613,50,475.8613" style="stroke:#181818;stroke-width:1.0;"/><line style="stroke:#181818;stroke-width:1.0;stroke-dasharray:2.0,2.0;" x1="48" x2="422" y1="475.8613" y2="475.8613"/><text fill="#000000" font-family="sans-serif" font-size="13" font-weight="bold" lengthAdjust="spacing" textLength="7" x="60" y="470.5986">7</text><text fill="#000000" font-family="sans-serif" font-size="13" lengthAdjust="spacing" textLength="238" x="71" y="470.5986">Shows all data and requests confirmation</text><polygon fill="#181818" points="406,510.1523,416,514.1523,406,518.1523,410,514.1523" style="stroke:#181818;stroke-width:1.0;"/><line style="stroke:#181818;stroke-width:1.0;" x1="43" x2="412" y1="514.1523" y2="514.1523"/><text fill="#000000" font-family="sans-serif" font-size="13" font-weight="bold" lengthAdjust="spacing" textLength="7" x="50" y="508.8896">8</text><text fill="#000000" font-family="sans-serif" font-size="13" lengthAdjust="spacing" textLength="80" x="61" y="508.8896">Confirms data</text><line style="stroke:#181818;stroke-width:1.0;stroke-dasharray:2.0,2.0;" x1="428" x2="470" y1="580.0254" y2="580.0254"/><line style="stroke:#181818;stroke-width:1.0;stroke-dasharray:2.0,2.0;" x1="470" x2="470" y1="580.0254" y2="593.0254"/><line style="stroke:#181818;stroke-width:1.0;stroke-dasharray:2.0,2.0;" x1="429" x2="470" y1="593.0254" y2="593.0254"/><polygon fill="#181818" points="439,589.0254,429,593.0254,439,597.0254,435,593.0254" style="stroke:#181818;stroke-width:1.0;"/><text fill="#000000" font-family="sans-serif" font-size="13" font-weight="bold" lengthAdjust="spacing" textLength="7" x="435" y="557.4717">9</text><text fill="#000000" font-family="sans-serif" font-size="13" lengthAdjust="spacing" textLength="223" x="446" y="540.1807">keepsData(name, birthdate, admission</text><text fill="#000000" font-family="sans-serif" font-size="13" lengthAdjust="spacing" textLength="211" x="446" y="557.4717">date, address, email,mobile number,</text><text fill="#000000" font-family="sans-serif" font-size="13" lengthAdjust="spacing" textLength="217" x="446" y="574.7627">id doc type, id doc number, jobName)</text><polygon fill="#181818" points="54,645.3164,44,649.3164,54,653.3164,50,649.3164" style="stroke:#181818;stroke-width:1.0;"/><line style="stroke:#181818;stroke-width:1.0;stroke-dasharray:2.0,2.0;" x1="48" x2="422" y1="649.3164" y2="649.3164"/><text fill="#000000" font-family="sans-serif" font-size="13" font-weight="bold" lengthAdjust="spacing" textLength="14" x="60" y="644.0537">10</text><text fill="#000000" font-family="sans-serif" font-size="13" lengthAdjust="spacing" textLength="160" x="78" y="644.0537">Displays operation success</text><!--SRC=[dP9DRzim38Rl_XL4JWtW00Lwos70q0pO3kiXNc-vq1BhQD679yej3EJ7ZxPYRoWIxqCdVV4btuVaa_4jHdJWWW_g68CZIB6ZWkUN5jK96wfIRmaYgOI-iRz_u2Fgy6Py0ozecOeYcIHVdwlx-mVOGDLp8WSL_UZ8AuATmMO8kwkgtReei4l1TwwcA7kLGeJLv_tN5I339zVQq1CLaYSPPLhq2LRRFJL69EDZi1Rhvo_Ztvnbb32lcEXNS06ofXDiFam5RU4ZdnXI45DP413Kg1aYIY4vSXQyP83BEf_Fy_wYk17nET4MzeDZJWmQ4yATHqSbr2Qcerp85hKpp2PucCuw4dC91qyEZIrTg8s0p7HAC1fqK93wbkP3VbkFbMXwN-juRKDeeVF9s35Kvt8CmojQCsJMjmbzam0MFgEHI-XrB7zWKHt36yFtK8CLr81UIzCoVIOhGmN1qvABg-LLOoXBtqJvlzerIqqmU3TO_FicPsDeRSOw68jJtrNmBoOwJDBZ6zw6M_8B7NZC6ho0VidMYQWTBIsCty6_cxzhqtVmjyUl7F0_YVxw7y3j3BSMUuRGKXmH0NTAIG4tKFq4]--></g></svg>