<?xml version="1.0" encoding="us-ascii" standalone="no"?><svg xmlns="http://www.w3.org/2000/svg" xmlns:xlink="http://www.w3.org/1999/xlink" contentStyleType="text/css" height="493px" preserveAspectRatio="none" style="width:475px;height:493px;background:#FFFFFF;" version="1.1" viewBox="0 0 475 493" width="475px" zoomAndPan="magnify"><defs/><g><text fill="#000000" font-family="sans-serif" font-size="14" font-weight="bold" lengthAdjust="spacing" textLength="284" x="94.75" y="30.1074">US003 - System Sequence Diagram (SSD)</text><rect fill="#FFFFFF" height="268.6191" style="stroke:#181818;stroke-width:1.0;" width="10" x="18" y="133.2422"/><rect fill="#FFFFFF" height="48.582" style="stroke:#181818;stroke-width:1.0;" width="10" x="403" y="156.5332"/><rect fill="#FFFFFF" height="31.291" style="stroke:#181818;stroke-width:1.0;" width="10" x="403" y="236.4063"/><rect fill="#FFFFFF" height="31.291" style="stroke:#181818;stroke-width:1.0;" width="10" x="403" y="298.9883"/><rect fill="#FFFFFF" height="31.291" style="stroke:#181818;stroke-width:1.0;" width="10" x="403" y="361.5703"/><line style="stroke:#181818;stroke-width:0.5;stroke-dasharray:5.0,5.0;" x1="23" x2="23" y1="123.2422" y2="410.8613"/><line style="stroke:#181818;stroke-width:0.5;stroke-dasharray:5.0,5.0;" x1="407.5" x2="407.5" y1="123.2422" y2="410.8613"/><text fill="#000000" font-family="sans-serif" font-size="14" lengthAdjust="spacing" textLength="30" x="5" y="119.7285">HRM</text><ellipse cx="23" cy="53.1211" fill="#E3E3E3" rx="8" ry="8" style="stroke:#181818;stroke-width:0.5;"/><path d="M23,61.1211 L23,88.1211 M10,69.1211 L36,69.1211 M23,88.1211 L10,103.1211 M23,88.1211 L36,103.1211 " fill="none" style="stroke:#181818;stroke-width:0.5;"/><text fill="#000000" font-family="sans-serif" font-size="14" lengthAdjust="spacing" textLength="30" x="5" y="424.9688">HRM</text><ellipse cx="23" cy="436.9824" fill="#E3E3E3" rx="8" ry="8" style="stroke:#181818;stroke-width:0.5;"/><path d="M23,444.9824 L23,471.9824 M10,452.9824 L36,452.9824 M23,471.9824 L10,486.9824 M23,471.9824 L36,486.9824 " fill="none" style="stroke:#181818;stroke-width:0.5;"/><rect fill="#E3E3E3" height="32.6211" rx="2.5" ry="2.5" style="stroke:#181818;stroke-width:0.5;" width="123" x="346.5" y="89.6211"/><text fill="#000000" font-family="sans-serif" font-size="14" lengthAdjust="spacing" textLength="109" x="353.5" y="111.7285">:RegisterCollabUI</text><rect fill="#E3E3E3" height="32.6211" rx="2.5" ry="2.5" style="stroke:#181818;stroke-width:0.5;" width="123" x="346.5" y="409.8613"/><text fill="#000000" font-family="sans-serif" font-size="14" lengthAdjust="spacing" textLength="109" x="353.5" y="431.9688">:RegisterCollabUI</text><rect fill="#FFFFFF" height="268.6191" style="stroke:#181818;stroke-width:1.0;" width="10" x="18" y="133.2422"/><rect fill="#FFFFFF" height="48.582" style="stroke:#181818;stroke-width:1.0;" width="10" x="403" y="156.5332"/><rect fill="#FFFFFF" height="31.291" style="stroke:#181818;stroke-width:1.0;" width="10" x="403" y="236.4063"/><rect fill="#FFFFFF" height="31.291" style="stroke:#181818;stroke-width:1.0;" width="10" x="403" y="298.9883"/><rect fill="#FFFFFF" height="31.291" style="stroke:#181818;stroke-width:1.0;" width="10" x="403" y="361.5703"/><polygon fill="#181818" points="391,152.5332,401,156.5332,391,160.5332,395,156.5332" style="stroke:#181818;stroke-width:1.0;"/><line style="stroke:#181818;stroke-width:1.0;" x1="28" x2="397" y1="156.5332" y2="156.5332"/><text fill="#000000" font-family="sans-serif" font-size="13" font-weight="bold" lengthAdjust="spacing" textLength="7" x="35" y="151.2705">1</text><text fill="#000000" font-family="sans-serif" font-size="13" lengthAdjust="spacing" textLength="174" x="46" y="151.2705">Asks to register a collaborator</text><polygon fill="#181818" points="39,201.1152,29,205.1152,39,209.1152,35,205.1152" style="stroke:#181818;stroke-width:1.0;"/><line style="stroke:#181818;stroke-width:1.0;stroke-dasharray:2.0,2.0;" x1="33" x2="407" y1="205.1152" y2="205.1152"/><text fill="#000000" font-family="sans-serif" font-size="13" font-weight="bold" lengthAdjust="spacing" textLength="7" x="45" y="191.207">2</text><text fill="#000000" font-family="sans-serif" font-size="13" lengthAdjust="spacing" textLength="336" x="56" y="182.5615">Requests data (name, birthdate, admission date, address,</text><text fill="#000000" font-family="sans-serif" font-size="13" lengthAdjust="spacing" textLength="286" x="56" y="199.8525">email,mobile number, id doc type, id doc number)</text><polygon fill="#181818" points="391,232.4063,401,236.4063,391,240.4063,395,236.4063" style="stroke:#181818;stroke-width:1.0;"/><line style="stroke:#181818;stroke-width:1.0;" x1="28" x2="397" y1="236.4063" y2="236.4063"/><text fill="#000000" font-family="sans-serif" font-size="13" font-weight="bold" lengthAdjust="spacing" textLength="7" x="35" y="231.1436">3</text><text fill="#000000" font-family="sans-serif" font-size="13" lengthAdjust="spacing" textLength="125" x="46" y="231.1436">Types requested data</text><polygon fill="#181818" points="39,263.6973,29,267.6973,39,271.6973,35,267.6973" style="stroke:#181818;stroke-width:1.0;"/><line style="stroke:#181818;stroke-width:1.0;stroke-dasharray:2.0,2.0;" x1="33" x2="407" y1="267.6973" y2="267.6973"/><text fill="#000000" font-family="sans-serif" font-size="13" font-weight="bold" lengthAdjust="spacing" textLength="7" x="45" y="262.4346">4</text><text fill="#000000" font-family="sans-serif" font-size="13" lengthAdjust="spacing" textLength="217" x="56" y="262.4346">Shows job list and asks to select one</text><polygon fill="#181818" points="391,294.9883,401,298.9883,391,302.9883,395,298.9883" style="stroke:#181818;stroke-width:1.0;"/><line style="stroke:#181818;stroke-width:1.0;" x1="28" x2="397" y1="298.9883" y2="298.9883"/><text fill="#000000" font-family="sans-serif" font-size="13" font-weight="bold" lengthAdjust="spacing" textLength="7" x="35" y="293.7256">5</text><text fill="#000000" font-family="sans-serif" font-size="13" lengthAdjust="spacing" textLength="76" x="46" y="293.7256">Selects a job</text><polygon fill="#181818" points="39,326.2793,29,330.2793,39,334.2793,35,330.2793" style="stroke:#181818;stroke-width:1.0;"/><line style="stroke:#181818;stroke-width:1.0;stroke-dasharray:2.0,2.0;" x1="33" x2="407" y1="330.2793" y2="330.2793"/><text fill="#000000" font-family="sans-serif" font-size="13" font-weight="bold" lengthAdjust="spacing" textLength="7" x="45" y="325.0166">6</text><text fill="#000000" font-family="sans-serif" font-size="13" lengthAdjust="spacing" textLength="238" x="56" y="325.0166">Shows all data and requests confirmation</text><polygon fill="#181818" points="391,357.5703,401,361.5703,391,365.5703,395,361.5703" style="stroke:#181818;stroke-width:1.0;"/><line style="stroke:#181818;stroke-width:1.0;" x1="28" x2="397" y1="361.5703" y2="361.5703"/><text fill="#000000" font-family="sans-serif" font-size="13" font-weight="bold" lengthAdjust="spacing" textLength="7" x="35" y="356.3076">7</text><text fill="#000000" font-family="sans-serif" font-size="13" lengthAdjust="spacing" textLength="80" x="46" y="356.3076">Confirms data</text><polygon fill="#181818" points="39,388.8613,29,392.8613,39,396.8613,35,392.8613" style="stroke:#181818;stroke-width:1.0;"/><line style="stroke:#181818;stroke-width:1.0;stroke-dasharray:2.0,2.0;" x1="33" x2="407" y1="392.8613" y2="392.8613"/><text fill="#000000" font-family="sans-serif" font-size="13" font-weight="bold" lengthAdjust="spacing" textLength="7" x="45" y="387.5986">8</text><text fill="#000000" font-family="sans-serif" font-size="13" lengthAdjust="spacing" textLength="160" x="56" y="387.5986">Displays operation success</text><!--SRC=[fP8nRzmm38Lt_ug7cnBW3WZGxOO2HQv0EtGvDriNMc9yoacYAyeD_E_Bi-DhXtH8gacqoCUFZzPpo0CLIaYInPsA94Oj8pTwVHd8dQddjawHKTXLodtyEq5FvEKvv1wF59MRfePggG_jtTq7xD1EMZcXvPyZPySu1EelPJTjUxXj6Xghv35rNEpkgXHilXo_RK2Apsc8CZ4trgS65mRA5PlzaVjWakLUOgJkuUkSktIP9S8lglodk86TDSBkumgqnoSzAwhOK8iW26xMb486ibHU1TSEU3alCZjJlAhlSRoCgLNXgH9kCYNUeWkbdko3NScde1eaOurzOTKjVcHE5E8sIHVClSMIBOA75uSw3NmDbhVRcSJpgu2lpllTHDIcdGdPpuZl6h8zoRFYIJf4CmwKlQrWyL8vsYy2oVncl7OkLTk2AVy75yMuk7_XAki-dEJ7K19Ly_xDQFTBiRxViaFG8TAaa87B304TdRFL_mFcDm00]--></g></svg>