<?xml version="1.0" encoding="us-ascii" standalone="no"?><svg xmlns="http://www.w3.org/2000/svg" xmlns:xlink="http://www.w3.org/1999/xlink" contentStyleType="text/css" height="627.9px" preserveAspectRatio="none" style="width:991px;height:627px;background:#FFFFFF;" version="1.1" viewBox="0 0 991 627" width="991.9px" zoomAndPan="magnify"><defs/><g><text fill="#000000" font-family="sans-serif" font-size="9.8" font-weight="bold" lengthAdjust="spacing" textLength="98.7" x="447.65" y="21.0752">SD_getTeamListDTO</text><rect fill="#FFFFFF" height="507.9252" style="stroke:#181818;stroke-width:0.6999999999999998;" width="7" x="100.45" y="74.8043"/><rect fill="#FFFFFF" height="21.9037" style="stroke:#181818;stroke-width:0.6999999999999998;" width="7" x="244.65" y="91.108"/><rect fill="#FFFFFF" height="21.9037" style="stroke:#181818;stroke-width:0.6999999999999998;" width="7" x="319.55" y="134.9154"/><rect fill="#FFFFFF" height="21.9037" style="stroke:#181818;stroke-width:0.6999999999999998;" width="7" x="403.2" y="178.7229"/><rect fill="#FFFFFF" height="124.2459" style="stroke:#181818;stroke-width:0.6999999999999998;" width="7" x="503.3" y="258.434"/><rect fill="#FFFFFF" height="69.9385" style="stroke:#181818;stroke-width:0.6999999999999998;" width="7" x="740.6" y="422.0836"/><rect fill="none" height="317.4992" style="stroke:#000000;stroke-width:1.0499999999999998;" width="980.7" x="7" y="228.6266"/><rect fill="none" height="92.5422" style="stroke:#000000;stroke-width:1.0499999999999998;" width="259" x="449.4" y="268.934"/><line style="stroke:#181818;stroke-width:0.3499999999999999;stroke-dasharray:5.0,5.0;" x1="103.6" x2="103.6" y1="67.8043" y2="589.0295"/><line style="stroke:#181818;stroke-width:0.3499999999999999;stroke-dasharray:5.0,5.0;" x1="247.8" x2="247.8" y1="67.8043" y2="589.0295"/><line style="stroke:#181818;stroke-width:0.3499999999999999;stroke-dasharray:5.0,5.0;" x1="322.7" x2="322.7" y1="67.8043" y2="589.0295"/><line style="stroke:#181818;stroke-width:0.3499999999999999;stroke-dasharray:5.0,5.0;" x1="406.7" x2="406.7" y1="67.8043" y2="589.0295"/><line style="stroke:#181818;stroke-width:0.3499999999999999;stroke-dasharray:5.0,5.0;" x1="506.8" x2="506.8" y1="67.8043" y2="589.0295"/><line style="stroke:#181818;stroke-width:0.3499999999999999;stroke-dasharray:5.0,5.0;" x1="657.3" x2="657.3" y1="322.2051" y2="589.0295"/><line style="stroke:#181818;stroke-width:0.3499999999999999;stroke-dasharray:5.0,5.0;" x1="744.1" x2="744.1" y1="67.8043" y2="589.0295"/><line style="stroke:#181818;stroke-width:0.3499999999999999;stroke-dasharray:5.0,5.0;" x1="951.3" x2="951.3" y1="449.951" y2="589.0295"/><rect fill="#E3E3E3" height="22.8348" rx="1.75" ry="1.75" style="stroke:#181818;stroke-width:0.3499999999999999;" width="179.9" x="14" y="44.2695"/><text fill="#000000" font-family="sans-serif" font-size="9.8" lengthAdjust="spacing" textLength="170.1" x="18.9" y="59.7447">:AssignTeamToEntryAgendaController</text><rect fill="#E3E3E3" height="22.8348" rx="1.75" ry="1.75" style="stroke:#181818;stroke-width:0.3499999999999999;" width="179.9" x="14" y="588.3295"/><text fill="#000000" font-family="sans-serif" font-size="9.8" lengthAdjust="spacing" textLength="170.1" x="18.9" y="603.8047">:AssignTeamToEntryAgendaController</text><rect fill="#E3E3E3" height="22.8348" rx="1.75" ry="1.75" style="stroke:#181818;stroke-width:0.3499999999999999;" width="67.9" x="214.2" y="44.2695"/><text fill="#000000" font-family="sans-serif" font-size="9.8" lengthAdjust="spacing" textLength="58.1" x="219.1" y="59.7447">:Repositories</text><rect fill="#E3E3E3" height="22.8348" rx="1.75" ry="1.75" style="stroke:#181818;stroke-width:0.3499999999999999;" width="67.9" x="214.2" y="588.3295"/><text fill="#000000" font-family="sans-serif" font-size="9.8" lengthAdjust="spacing" textLength="58.1" x="219.1" y="603.8047">:Repositories</text><rect fill="#E3E3E3" height="35.8695" rx="1.75" ry="1.75" style="stroke:#181818;stroke-width:0.3499999999999999;" width="67.9" x="289.1" y="31.2348"/><text fill="#000000" font-family="sans-serif" font-size="9.8" lengthAdjust="spacing" textLength="51.8" x="297.15" y="46.71">repositories</text><text fill="#000000" font-family="sans-serif" font-size="9.8" lengthAdjust="spacing" textLength="58.1" x="294" y="59.7447">:Repositories</text><rect fill="#E3E3E3" height="35.8695" rx="1.75" ry="1.75" style="stroke:#181818;stroke-width:0.3499999999999999;" width="67.9" x="289.1" y="588.3295"/><text fill="#000000" font-family="sans-serif" font-size="9.8" lengthAdjust="spacing" textLength="51.8" x="297.15" y="603.8047">repositories</text><text fill="#000000" font-family="sans-serif" font-size="9.8" lengthAdjust="spacing" textLength="58.1" x="294" y="616.8395">:Repositories</text><rect fill="#E3E3E3" height="35.8695" rx="1.75" ry="1.75" style="stroke:#181818;stroke-width:0.3499999999999999;" width="85.4" x="364" y="31.2348"/><text fill="#000000" font-family="sans-serif" font-size="9.8" lengthAdjust="spacing" textLength="69.3" x="372.05" y="46.71">teamRepository</text><text fill="#000000" font-family="sans-serif" font-size="9.8" lengthAdjust="spacing" textLength="75.6" x="368.9" y="59.7447">:TeamRepository</text><rect fill="#E3E3E3" height="35.8695" rx="1.75" ry="1.75" style="stroke:#181818;stroke-width:0.3499999999999999;" width="85.4" x="364" y="588.3295"/><text fill="#000000" font-family="sans-serif" font-size="9.8" lengthAdjust="spacing" textLength="69.3" x="372.05" y="603.8047">teamRepository</text><text fill="#000000" font-family="sans-serif" font-size="9.8" lengthAdjust="spacing" textLength="75.6" x="368.9" y="616.8395">:TeamRepository</text><rect fill="#E3E3E3" height="22.8348" rx="1.75" ry="1.75" style="stroke:#181818;stroke-width:0.3499999999999999;" width="100.8" x="456.4" y="44.2695"/><text fill="#000000" font-family="sans-serif" font-size="9.8" lengthAdjust="spacing" textLength="91" x="461.3" y="59.7447">:CollaboratorMapper</text><rect fill="#E3E3E3" height="22.8348" rx="1.75" ry="1.75" style="stroke:#181818;stroke-width:0.3499999999999999;" width="100.8" x="456.4" y="588.3295"/><text fill="#000000" font-family="sans-serif" font-size="9.8" lengthAdjust="spacing" textLength="91" x="461.3" y="603.8047">:CollaboratorMapper</text><rect fill="#E3E3E3" height="22.8348" rx="1.75" ry="1.75" style="stroke:#181818;stroke-width:0.3499999999999999;" width="88.2" x="613.2" y="588.3295"/><text fill="#000000" font-family="sans-serif" font-size="9.8" lengthAdjust="spacing" textLength="78.4" x="618.1" y="603.8047">:CollaboratorDTO</text><rect fill="#E3E3E3" height="22.8348" rx="1.75" ry="1.75" style="stroke:#181818;stroke-width:0.3499999999999999;" width="71.4" x="708.4" y="44.2695"/><text fill="#000000" font-family="sans-serif" font-size="9.8" lengthAdjust="spacing" textLength="61.6" x="713.3" y="59.7447">:TeamMapper</text><rect fill="#E3E3E3" height="22.8348" rx="1.75" ry="1.75" style="stroke:#181818;stroke-width:0.3499999999999999;" width="71.4" x="708.4" y="588.3295"/><text fill="#000000" font-family="sans-serif" font-size="9.8" lengthAdjust="spacing" textLength="61.6" x="713.3" y="603.8047">:TeamMapper</text><rect fill="#E3E3E3" height="22.8348" rx="1.75" ry="1.75" style="stroke:#181818;stroke-width:0.3499999999999999;" width="58.8" x="921.9" y="588.3295"/><text fill="#000000" font-family="sans-serif" font-size="9.8" lengthAdjust="spacing" textLength="49" x="926.8" y="603.8047">:TeamDTO</text><rect fill="#FFFFFF" height="507.9252" style="stroke:#181818;stroke-width:0.6999999999999998;" width="7" x="100.45" y="74.8043"/><rect fill="#FFFFFF" height="21.9037" style="stroke:#181818;stroke-width:0.6999999999999998;" width="7" x="244.65" y="91.108"/><rect fill="#FFFFFF" height="21.9037" style="stroke:#181818;stroke-width:0.6999999999999998;" width="7" x="319.55" y="134.9154"/><rect fill="#FFFFFF" height="21.9037" style="stroke:#181818;stroke-width:0.6999999999999998;" width="7" x="403.2" y="178.7229"/><rect fill="#FFFFFF" height="124.2459" style="stroke:#181818;stroke-width:0.6999999999999998;" width="7" x="503.3" y="258.434"/><rect fill="#FFFFFF" height="69.9385" style="stroke:#181818;stroke-width:0.6999999999999998;" width="7" x="740.6" y="422.0836"/><polygon fill="#181818" points="236.25,88.308,243.25,91.108,236.25,93.908,239.05,91.108" style="stroke:#181818;stroke-width:0.6999999999999998;"/><line style="stroke:#181818;stroke-width:0.6999999999999998;" x1="107.45" x2="240.45" y1="91.108" y2="91.108"/><text fill="#000000" font-family="sans-serif" font-size="9.1" font-weight="bold" lengthAdjust="spacing" textLength="4.9" x="112.35" y="87.4241">1</text><text fill="#000000" font-family="sans-serif" font-size="9.1" lengthAdjust="spacing" textLength="52.5" x="120.05" y="87.4241">getInstance()</text><polygon fill="#181818" points="115.15,110.2117,108.15,113.0117,115.15,115.8117,112.35,113.0117" style="stroke:#181818;stroke-width:0.6999999999999998;"/><line style="stroke:#181818;stroke-width:0.6999999999999998;stroke-dasharray:2.0,2.0;" x1="110.95" x2="247.45" y1="113.0117" y2="113.0117"/><text fill="#000000" font-family="sans-serif" font-size="9.1" font-weight="bold" lengthAdjust="spacing" textLength="4.9" x="119.35" y="109.3278">2</text><text fill="#000000" font-family="sans-serif" font-size="9.1" lengthAdjust="spacing" textLength="46.9" x="127.05" y="109.3278">repositories</text><polygon fill="#181818" points="311.15,132.1154,318.15,134.9154,311.15,137.7154,313.95,134.9154" style="stroke:#181818;stroke-width:0.6999999999999998;"/><line style="stroke:#181818;stroke-width:0.6999999999999998;" x1="107.45" x2="315.35" y1="134.9154" y2="134.9154"/><text fill="#000000" font-family="sans-serif" font-size="9.1" font-weight="bold" lengthAdjust="spacing" textLength="4.9" x="112.35" y="131.2315">3</text><text fill="#000000" font-family="sans-serif" font-size="9.1" lengthAdjust="spacing" textLength="84" x="120.05" y="131.2315">getTeamRepository()</text><polygon fill="#181818" points="115.15,154.0191,108.15,156.8191,115.15,159.6191,112.35,156.8191" style="stroke:#181818;stroke-width:0.6999999999999998;"/><line style="stroke:#181818;stroke-width:0.6999999999999998;stroke-dasharray:2.0,2.0;" x1="110.95" x2="322.35" y1="156.8191" y2="156.8191"/><text fill="#000000" font-family="sans-serif" font-size="9.1" font-weight="bold" lengthAdjust="spacing" textLength="4.9" x="119.35" y="153.1353">4</text><text fill="#000000" font-family="sans-serif" font-size="9.1" lengthAdjust="spacing" textLength="63.7" x="127.05" y="153.1353">teamRepository</text><polygon fill="#181818" points="394.8,175.9229,401.8,178.7229,394.8,181.5229,397.6,178.7229" style="stroke:#181818;stroke-width:0.6999999999999998;"/><line style="stroke:#181818;stroke-width:0.6999999999999998;" x1="107.45" x2="399" y1="178.7229" y2="178.7229"/><text fill="#000000" font-family="sans-serif" font-size="9.1" font-weight="bold" lengthAdjust="spacing" textLength="4.9" x="112.35" y="175.039">5</text><text fill="#000000" font-family="sans-serif" font-size="9.1" lengthAdjust="spacing" textLength="55.3" x="120.05" y="175.039">getTeamList()</text><polygon fill="#181818" points="115.15,197.8266,108.15,200.6266,115.15,203.4266,112.35,200.6266" style="stroke:#181818;stroke-width:0.6999999999999998;"/><line style="stroke:#181818;stroke-width:0.6999999999999998;stroke-dasharray:2.0,2.0;" x1="110.95" x2="406" y1="200.6266" y2="200.6266"/><text fill="#000000" font-family="sans-serif" font-size="9.1" font-weight="bold" lengthAdjust="spacing" textLength="4.9" x="119.35" y="196.9427">6</text><text fill="#000000" font-family="sans-serif" font-size="9.1" lengthAdjust="spacing" textLength="35" x="127.05" y="196.9427">teamList</text><path d="M7,228.6266 L58.1,228.6266 L58.1,235.1303 L51.1,242.1303 L7,242.1303 L7,228.6266 " fill="#EEEEEE" style="stroke:#000000;stroke-width:1.0499999999999998;"/><rect fill="none" height="317.4992" style="stroke:#000000;stroke-width:1.0499999999999998;" width="980.7" x="7" y="228.6266"/><text fill="#000000" font-family="sans-serif" font-size="9.1" font-weight="bold" lengthAdjust="spacing" textLength="19.6" x="17.5" y="239.1464">loop</text><text fill="#000000" font-family="sans-serif" font-size="7.7" font-weight="bold" lengthAdjust="spacing" textLength="104.3" x="68.6" y="238.3356">[for each team in teamList]</text><polygon fill="#181818" points="494.9,255.634,501.9,258.434,494.9,261.234,497.7,258.434" style="stroke:#181818;stroke-width:0.6999999999999998;"/><line style="stroke:#181818;stroke-width:0.6999999999999998;" x1="107.45" x2="499.1" y1="258.434" y2="258.434"/><text fill="#000000" font-family="sans-serif" font-size="9.1" font-weight="bold" lengthAdjust="spacing" textLength="4.9" x="112.35" y="254.7501">7</text><text fill="#000000" font-family="sans-serif" font-size="9.1" lengthAdjust="spacing" textLength="122.5" x="120.05" y="254.7501">toDTOlist(team.getMembers())</text><path d="M449.4,268.934 L500.5,268.934 L500.5,275.4377 L493.5,282.4377 L449.4,282.4377 L449.4,268.934 " fill="#EEEEEE" style="stroke:#000000;stroke-width:1.0499999999999998;"/><rect fill="none" height="92.5422" style="stroke:#000000;stroke-width:1.0499999999999998;" width="259" x="449.4" y="268.934"/><text fill="#000000" font-family="sans-serif" font-size="9.1" font-weight="bold" lengthAdjust="spacing" textLength="19.6" x="459.9" y="279.4538">loop</text><text fill="#000000" font-family="sans-serif" font-size="7.7" font-weight="bold" lengthAdjust="spacing" textLength="154" x="511" y="278.6431">[for each collaborator in teamMembers]</text><polygon fill="#181818" points="604.8,313.4414,611.8,316.2414,604.8,319.0414,607.6,316.2414" style="stroke:#181818;stroke-width:0.6999999999999998;"/><line style="stroke:#181818;stroke-width:0.6999999999999998;" x1="510.3" x2="609" y1="316.2414" y2="316.2414"/><text fill="#000000" font-family="sans-serif" font-size="9.1" font-weight="bold" lengthAdjust="spacing" textLength="4.9" x="515.2" y="312.5575">8</text><text fill="#000000" font-family="sans-serif" font-size="9.1" lengthAdjust="spacing" textLength="78.4" x="522.9" y="312.5575">toDTO(collaborator)</text><rect fill="#E3E3E3" height="22.8348" rx="1.75" ry="1.75" style="stroke:#181818;stroke-width:0.3499999999999999;" width="88.2" x="613.2" y="299.9377"/><text fill="#000000" font-family="sans-serif" font-size="9.8" lengthAdjust="spacing" textLength="78.4" x="618.1" y="315.4129">:CollaboratorDTO</text><line style="stroke:#181818;stroke-width:0.6999999999999998;stroke-dasharray:2.0,2.0;" x1="510.3" x2="539.7" y1="346.7762" y2="346.7762"/><line style="stroke:#181818;stroke-width:0.6999999999999998;stroke-dasharray:2.0,2.0;" x1="539.7" x2="539.7" y1="346.7762" y2="355.8762"/><line style="stroke:#181818;stroke-width:0.6999999999999998;stroke-dasharray:2.0,2.0;" x1="511" x2="539.7" y1="355.8762" y2="355.8762"/><polygon fill="#181818" points="518,353.0762,511,355.8762,518,358.6762,515.2,355.8762" style="stroke:#181818;stroke-width:0.6999999999999998;"/><text fill="#000000" font-family="sans-serif" font-size="9.1" font-weight="bold" lengthAdjust="spacing" textLength="4.9" x="515.2" y="343.0923">9</text><text fill="#000000" font-family="sans-serif" font-size="9.1" lengthAdjust="spacing" textLength="85.4" x="522.9" y="343.0923">add(collaboratorDTO)</text><polygon fill="#181818" points="115.15,379.8799,108.15,382.6799,115.15,385.4799,112.35,382.6799" style="stroke:#181818;stroke-width:0.6999999999999998;"/><line style="stroke:#181818;stroke-width:0.6999999999999998;stroke-dasharray:2.0,2.0;" x1="110.95" x2="506.1" y1="382.6799" y2="382.6799"/><text fill="#000000" font-family="sans-serif" font-size="9.1" font-weight="bold" lengthAdjust="spacing" textLength="9.8" x="119.35" y="378.996">10</text><text fill="#000000" font-family="sans-serif" font-size="9.1" lengthAdjust="spacing" textLength="77" x="131.95" y="378.996">collaboratorDTOlist</text><polygon fill="#181818" points="732.2,419.2836,739.2,422.0836,732.2,424.8836,735,422.0836" style="stroke:#181818;stroke-width:0.6999999999999998;"/><line style="stroke:#181818;stroke-width:0.6999999999999998;" x1="107.45" x2="736.4" y1="422.0836" y2="422.0836"/><text fill="#000000" font-family="sans-serif" font-size="9.1" font-weight="bold" lengthAdjust="spacing" textLength="9.8" x="112.35" y="418.3997">11</text><text fill="#000000" font-family="sans-serif" font-size="9.1" lengthAdjust="spacing" textLength="108.5" x="124.95" y="418.3997">toDTO(collaboratorDTOlist)</text><polygon fill="#181818" points="913.5,441.1873,920.5,443.9873,913.5,446.7873,916.3,443.9873" style="stroke:#181818;stroke-width:0.6999999999999998;"/><line style="stroke:#181818;stroke-width:0.6999999999999998;" x1="747.6" x2="917.7" y1="443.9873" y2="443.9873"/><text fill="#000000" font-family="sans-serif" font-size="9.1" font-weight="bold" lengthAdjust="spacing" textLength="9.8" x="752.5" y="440.3034">12</text><text fill="#000000" font-family="sans-serif" font-size="9.1" lengthAdjust="spacing" textLength="144.9" x="765.1" y="440.3034">new TeamDTO(collaboratorDTOList)</text><rect fill="#E3E3E3" height="22.8348" rx="1.75" ry="1.75" style="stroke:#181818;stroke-width:0.3499999999999999;" width="58.8" x="921.9" y="427.6836"/><text fill="#000000" font-family="sans-serif" font-size="9.8" lengthAdjust="spacing" textLength="49" x="926.8" y="443.1588">:TeamDTO</text><polygon fill="#181818" points="115.15,489.2221,108.15,492.0221,115.15,494.8221,112.35,492.0221" style="stroke:#181818;stroke-width:0.6999999999999998;"/><line style="stroke:#181818;stroke-width:0.6999999999999998;stroke-dasharray:2.0,2.0;" x1="110.95" x2="743.4" y1="492.0221" y2="492.0221"/><text fill="#000000" font-family="sans-serif" font-size="9.1" font-weight="bold" lengthAdjust="spacing" textLength="9.8" x="119.35" y="488.3382">13</text><text fill="#000000" font-family="sans-serif" font-size="9.1" lengthAdjust="spacing" textLength="38.5" x="131.95" y="488.3382">teamDTO</text><line style="stroke:#181818;stroke-width:0.6999999999999998;" x1="107.45" x2="136.85" y1="531.4258" y2="531.4258"/><line style="stroke:#181818;stroke-width:0.6999999999999998;" x1="136.85" x2="136.85" y1="531.4258" y2="540.5258"/><line style="stroke:#181818;stroke-width:0.6999999999999998;" x1="108.15" x2="136.85" y1="540.5258" y2="540.5258"/><polygon fill="#181818" points="115.15,537.7258,108.15,540.5258,115.15,543.3258,112.35,540.5258" style="stroke:#181818;stroke-width:0.6999999999999998;"/><text fill="#000000" font-family="sans-serif" font-size="9.1" font-weight="bold" lengthAdjust="spacing" textLength="9.8" x="112.35" y="527.7419">14</text><text fill="#000000" font-family="sans-serif" font-size="9.1" lengthAdjust="spacing" textLength="114.8" x="124.95" y="527.7419">teamListDTO.add(teamDTO)</text><line style="stroke:#181818;stroke-width:0.6999999999999998;" x1="107.45" x2="136.85" y1="567.3295" y2="567.3295"/><line style="stroke:#181818;stroke-width:0.6999999999999998;" x1="136.85" x2="136.85" y1="567.3295" y2="576.4295"/><line style="stroke:#181818;stroke-width:0.6999999999999998;" x1="108.15" x2="136.85" y1="576.4295" y2="576.4295"/><polygon fill="#181818" points="115.15,573.6295,108.15,576.4295,115.15,579.2295,112.35,576.4295" style="stroke:#181818;stroke-width:0.6999999999999998;"/><text fill="#000000" font-family="sans-serif" font-size="9.1" font-weight="bold" lengthAdjust="spacing" textLength="9.8" x="112.35" y="563.6456">15</text><text fill="#000000" font-family="sans-serif" font-size="9.1" lengthAdjust="spacing" textLength="53.2" x="124.95" y="563.6456">teamListDTO</text><!--SRC=[dLHTJyCW57tdLn2VLXFz0NimCTC7avcPhOyc1jjhHsoX0QPPiX_lXOqM67L6dYWzvvvpFq1_Sj4pnJhQII6hhP8TKADsGFJmfsVL9sjWO_OjK0MLOQ9fGu3Uibf-Sz7G3zPg8CHmWz3Dmri3fWJMBRas3-MA4BOpKkowTr248DVmYlTC67erlzUQDyA2I_aeZDhVDo1gjf2ubsqBweeoJHVbUfaGrz1BpOrK7BJ3h1zVLZ561P1NaMSy2OrvLH0p3VePu7labj61OyT7QLuBDC_UfMBuyvdrlK_axFWN7fRkZ6JB6JEiZq1X_CpWVCJJ7XjJ6Vx531mhJ2WkkwCtTwuwT4wnbRv6iy811ewhk3koo-5laEW2p6bOVGUg8SCCrRpEKJMkRqvxw5taOOWIU8dxcNCJn_AkOW-ZBplOgQDq7hod94RYoaPA_UGY7Gu7CiPifUpfXrGKILiNXt8nnXk1Vlc4pkVF-f0u2wrDoKQunHoVmTvLFIkAiqXHpfbnpk5ZkrL0yhPFWbcsJPrUM9cyacmnnUjhd-miz52GJC7-f31LK5RNaG8g5da9VEjSTSX_vO-Jb8YrVgX-My70_R6DQLEoeF3gn1CsoxYyC5_1OvO51Y8dITzc0T_-EzLTJkfEJLee4rzV-uXUAEwb7AP4XoiRFnQeU6ldwwG-9eAZD0fCaybn_G00]--></g></svg>