<?xml version="1.0" encoding="us-ascii" standalone="no"?><svg xmlns="http://www.w3.org/2000/svg" xmlns:xlink="http://www.w3.org/1999/xlink" contentStyleType="text/css" height="570px" preserveAspectRatio="none" style="width:930px;height:570px;background:#FFFFFF;" version="1.1" viewBox="0 0 930 570" width="930px" zoomAndPan="magnify"><defs/><g><text fill="#000000" font-family="sans-serif" font-size="14" font-weight="bold" lengthAdjust="spacing" textLength="137" x="395.75" y="30.1074">SD_obtainTeamDTO</text><rect fill="#FFFFFF" height="426.2793" style="stroke:#181818;stroke-width:1.0;" width="10" x="64.5" y="88.2422"/><rect fill="#FFFFFF" height="177.4941" style="stroke:#181818;stroke-width:1.0;" width="10" x="249.5" y="180.8242"/><rect fill="#FFFFFF" height="99.9121" style="stroke:#181818;stroke-width:1.0;" width="10" x="588.5" y="414.6094"/><rect fill="none" height="132.2031" style="stroke:#000000;stroke-width:1.5;" width="370" x="172.5" y="195.8242"/><line style="stroke:#181818;stroke-width:0.5;stroke-dasharray:5.0,5.0;" x1="69" x2="69" y1="78.2422" y2="532.5215"/><line style="stroke:#181818;stroke-width:0.5;stroke-dasharray:5.0,5.0;" x1="254.5" x2="254.5" y1="78.2422" y2="532.5215"/><line style="stroke:#181818;stroke-width:0.5;stroke-dasharray:5.0,5.0;" x1="469.5" x2="469.5" y1="271.9258" y2="532.5215"/><line style="stroke:#181818;stroke-width:0.5;stroke-dasharray:5.0,5.0;" x1="593.5" x2="593.5" y1="78.2422" y2="532.5215"/><line style="stroke:#181818;stroke-width:0.5;stroke-dasharray:5.0,5.0;" x1="882.5" x2="882.5" y1="454.4199" y2="532.5215"/><rect fill="#E3E3E3" height="32.6211" rx="2.5" ry="2.5" style="stroke:#181818;stroke-width:0.5;" width="129" x="5" y="44.6211"/><text fill="#000000" font-family="sans-serif" font-size="14" lengthAdjust="spacing" textLength="115" x="12" y="66.7285">:AgendaController</text><rect fill="#E3E3E3" height="32.6211" rx="2.5" ry="2.5" style="stroke:#181818;stroke-width:0.5;" width="129" x="5" y="531.5215"/><text fill="#000000" font-family="sans-serif" font-size="14" lengthAdjust="spacing" textLength="115" x="12" y="553.6289">:AgendaController</text><rect fill="#E3E3E3" height="32.6211" rx="2.5" ry="2.5" style="stroke:#181818;stroke-width:0.5;" width="144" x="182.5" y="44.6211"/><text fill="#000000" font-family="sans-serif" font-size="14" lengthAdjust="spacing" textLength="130" x="189.5" y="66.7285">:CollaboratorMapper</text><rect fill="#E3E3E3" height="32.6211" rx="2.5" ry="2.5" style="stroke:#181818;stroke-width:0.5;" width="144" x="182.5" y="531.5215"/><text fill="#000000" font-family="sans-serif" font-size="14" lengthAdjust="spacing" textLength="130" x="189.5" y="553.6289">:CollaboratorMapper</text><rect fill="#E3E3E3" height="32.6211" rx="2.5" ry="2.5" style="stroke:#181818;stroke-width:0.5;" width="126" x="406.5" y="531.5215"/><text fill="#000000" font-family="sans-serif" font-size="14" lengthAdjust="spacing" textLength="112" x="413.5" y="553.6289">:CollaboratorDTO</text><rect fill="#E3E3E3" height="32.6211" rx="2.5" ry="2.5" style="stroke:#181818;stroke-width:0.5;" width="102" x="542.5" y="44.6211"/><text fill="#000000" font-family="sans-serif" font-size="14" lengthAdjust="spacing" textLength="88" x="549.5" y="66.7285">:TeamMapper</text><rect fill="#E3E3E3" height="32.6211" rx="2.5" ry="2.5" style="stroke:#181818;stroke-width:0.5;" width="102" x="542.5" y="531.5215"/><text fill="#000000" font-family="sans-serif" font-size="14" lengthAdjust="spacing" textLength="88" x="549.5" y="553.6289">:TeamMapper</text><rect fill="#E3E3E3" height="32.6211" rx="2.5" ry="2.5" style="stroke:#181818;stroke-width:0.5;" width="84" x="840.5" y="531.5215"/><text fill="#000000" font-family="sans-serif" font-size="14" lengthAdjust="spacing" textLength="70" x="847.5" y="553.6289">:TeamDTO</text><rect fill="#FFFFFF" height="426.2793" style="stroke:#181818;stroke-width:1.0;" width="10" x="64.5" y="88.2422"/><rect fill="#FFFFFF" height="177.4941" style="stroke:#181818;stroke-width:1.0;" width="10" x="249.5" y="180.8242"/><rect fill="#FFFFFF" height="99.9121" style="stroke:#181818;stroke-width:1.0;" width="10" x="588.5" y="414.6094"/><line style="stroke:#181818;stroke-width:1.0;" x1="74.5" x2="116.5" y1="111.5332" y2="111.5332"/><line style="stroke:#181818;stroke-width:1.0;" x1="116.5" x2="116.5" y1="111.5332" y2="124.5332"/><line style="stroke:#181818;stroke-width:1.0;" x1="75.5" x2="116.5" y1="124.5332" y2="124.5332"/><polygon fill="#181818" points="85.5,120.5332,75.5,124.5332,85.5,128.5332,81.5,124.5332" style="stroke:#181818;stroke-width:1.0;"/><text fill="#000000" font-family="sans-serif" font-size="13" font-weight="bold" lengthAdjust="spacing" textLength="7" x="81.5" y="106.2705">1</text><text fill="#000000" font-family="sans-serif" font-size="13" lengthAdjust="spacing" textLength="124" x="92.5" y="106.2705">getMembers() [Team]</text><polygon fill="#181818" points="237.5,176.8242,247.5,180.8242,237.5,184.8242,241.5,180.8242" style="stroke:#181818;stroke-width:1.0;"/><line style="stroke:#181818;stroke-width:1.0;" x1="74.5" x2="243.5" y1="180.8242" y2="180.8242"/><text fill="#000000" font-family="sans-serif" font-size="13" font-weight="bold" lengthAdjust="spacing" textLength="7" x="81.5" y="175.5615">2</text><text fill="#000000" font-family="sans-serif" font-size="13" lengthAdjust="spacing" textLength="145" x="92.5" y="175.5615">toDTOlist(teamMembers)</text><path d="M172.5,195.8242 L245.5,195.8242 L245.5,205.1152 L235.5,215.1152 L172.5,215.1152 L172.5,195.8242 " fill="#EEEEEE" style="stroke:#000000;stroke-width:1.5;"/><rect fill="none" height="132.2031" style="stroke:#000000;stroke-width:1.5;" width="370" x="172.5" y="195.8242"/><text fill="#000000" font-family="sans-serif" font-size="13" font-weight="bold" lengthAdjust="spacing" textLength="28" x="187.5" y="210.8525">loop</text><text fill="#000000" font-family="sans-serif" font-size="11" font-weight="bold" lengthAdjust="spacing" textLength="220" x="260.5" y="209.6943">[for each collaborator in teamMembers]</text><polygon fill="#181818" points="394.5,259.4063,404.5,263.4063,394.5,267.4063,398.5,263.4063" style="stroke:#181818;stroke-width:1.0;"/><line style="stroke:#181818;stroke-width:1.0;" x1="259.5" x2="400.5" y1="263.4063" y2="263.4063"/><text fill="#000000" font-family="sans-serif" font-size="13" font-weight="bold" lengthAdjust="spacing" textLength="7" x="266.5" y="258.1436">3</text><text fill="#000000" font-family="sans-serif" font-size="13" lengthAdjust="spacing" textLength="112" x="277.5" y="258.1436">toDTO(collaborator)</text><rect fill="#E3E3E3" height="32.6211" rx="2.5" ry="2.5" style="stroke:#181818;stroke-width:0.5;" width="126" x="406.5" y="240.1152"/><text fill="#000000" font-family="sans-serif" font-size="14" lengthAdjust="spacing" textLength="112" x="413.5" y="262.2227">:CollaboratorDTO</text><line style="stroke:#181818;stroke-width:1.0;stroke-dasharray:2.0,2.0;" x1="259.5" x2="301.5" y1="307.0273" y2="307.0273"/><line style="stroke:#181818;stroke-width:1.0;stroke-dasharray:2.0,2.0;" x1="301.5" x2="301.5" y1="307.0273" y2="320.0273"/><line style="stroke:#181818;stroke-width:1.0;stroke-dasharray:2.0,2.0;" x1="260.5" x2="301.5" y1="320.0273" y2="320.0273"/><polygon fill="#181818" points="270.5,316.0273,260.5,320.0273,270.5,324.0273,266.5,320.0273" style="stroke:#181818;stroke-width:1.0;"/><text fill="#000000" font-family="sans-serif" font-size="13" font-weight="bold" lengthAdjust="spacing" textLength="7" x="266.5" y="301.7646">4</text><text fill="#000000" font-family="sans-serif" font-size="13" lengthAdjust="spacing" textLength="122" x="277.5" y="301.7646">add(collaboratorDTO)</text><polygon fill="#181818" points="85.5,354.3184,75.5,358.3184,85.5,362.3184,81.5,358.3184" style="stroke:#181818;stroke-width:1.0;"/><line style="stroke:#181818;stroke-width:1.0;stroke-dasharray:2.0,2.0;" x1="79.5" x2="253.5" y1="358.3184" y2="358.3184"/><text fill="#000000" font-family="sans-serif" font-size="13" font-weight="bold" lengthAdjust="spacing" textLength="7" x="91.5" y="353.0557">5</text><text fill="#000000" font-family="sans-serif" font-size="13" lengthAdjust="spacing" textLength="110" x="102.5" y="353.0557">collaboratorDTOlist</text><polygon fill="#181818" points="576.5,410.6094,586.5,414.6094,576.5,418.6094,580.5,414.6094" style="stroke:#181818;stroke-width:1.0;"/><line style="stroke:#181818;stroke-width:1.0;" x1="74.5" x2="582.5" y1="414.6094" y2="414.6094"/><text fill="#000000" font-family="sans-serif" font-size="13" font-weight="bold" lengthAdjust="spacing" textLength="7" x="81.5" y="409.3467">6</text><text fill="#000000" font-family="sans-serif" font-size="13" lengthAdjust="spacing" textLength="155" x="92.5" y="409.3467">toDTO(collaboratorDTOlist)</text><polygon fill="#181818" points="828.5,441.9004,838.5,445.9004,828.5,449.9004,832.5,445.9004" style="stroke:#181818;stroke-width:1.0;"/><line style="stroke:#181818;stroke-width:1.0;" x1="598.5" x2="834.5" y1="445.9004" y2="445.9004"/><text fill="#000000" font-family="sans-serif" font-size="13" font-weight="bold" lengthAdjust="spacing" textLength="7" x="605.5" y="440.6377">7</text><text fill="#000000" font-family="sans-serif" font-size="13" lengthAdjust="spacing" textLength="207" x="616.5" y="440.6377">new TeamDTO(collaboratorDTOList)</text><rect fill="#E3E3E3" height="32.6211" rx="2.5" ry="2.5" style="stroke:#181818;stroke-width:0.5;" width="84" x="840.5" y="422.6094"/><text fill="#000000" font-family="sans-serif" font-size="14" lengthAdjust="spacing" textLength="70" x="847.5" y="444.7168">:TeamDTO</text><polygon fill="#181818" points="80.5,510.5215,70.5,514.5215,80.5,518.5215,76.5,514.5215" style="stroke:#181818;stroke-width:1.0;"/><line style="stroke:#181818;stroke-width:1.0;stroke-dasharray:2.0,2.0;" x1="74.5" x2="592.5" y1="514.5215" y2="514.5215"/><text fill="#000000" font-family="sans-serif" font-size="13" font-weight="bold" lengthAdjust="spacing" textLength="7" x="86.5" y="509.2588">8</text><text fill="#000000" font-family="sans-serif" font-size="13" lengthAdjust="spacing" textLength="55" x="97.5" y="509.2588">teamDTO</text><!--SRC=[ZPFFRi8m3CRlUGfh9ugq5-0m2S6q2spIu3PDoAIcHBH9bPYXIJpy4cXB-eTjkSNrz_DdntK7fKkqM41Xj95xQme2jaSIhlbIeZnWHYl-pWaiIKQTvN62ssDgJafdiCFSaH2isAUkvXkpPLHwJLZCrsz2u96DFXPRia9uAIkfIjGC3vDfHZh5cT5iJPwJVG1qC7rvVfrFDxFr-wARF_DPk3KMsTWbbcMbw8T_qNbBFL6msLO4yr65stKWhoRU6fQilf2ftGhu4mNWyQbrdK16lAGm9ZTAu2FGFg-gy_ayAE_txIbil8TSEHvnC7q59XTvusjWOE5xRam9EsE1KEv1HacWD4IunXLqpe2ZZazlRZokROxY6eaGeWSS9Dvh7TEqHVGLaYlIhzcbE_5FVFjXEimmt1uefR-c6vzxBthRiy4HLSKxhnajPuX7Z8fOprpJgRvtiOi6MpzhZEbDXAjLxtGUEH4YYiV_mGy0]--></g></svg>