<?xml version="1.0" encoding="us-ascii" standalone="no"?><svg xmlns="http://www.w3.org/2000/svg" xmlns:xlink="http://www.w3.org/1999/xlink" contentStyleType="text/css" height="369px" preserveAspectRatio="none" style="width:576px;height:369px;background:#FFFFFF;" version="1.1" viewBox="0 0 576 369" width="576px" zoomAndPan="magnify"><defs/><g><text fill="#000000" font-family="sans-serif" font-size="14" font-weight="bold" lengthAdjust="spacing" textLength="177" x="201.25" y="30.1074">SD_obtainVehicleDTOList</text><rect fill="#FFFFFF" height="225.7852" style="stroke:#181818;stroke-width:1.0;" width="10" x="64.5" y="88.2422"/><rect fill="#FFFFFF" height="202.4941" style="stroke:#181818;stroke-width:1.0;" width="10" x="300.5" y="111.5332"/><rect fill="none" height="157.2031" style="stroke:#000000;stroke-width:1.5;" width="331" x="239.5" y="126.5332"/><line style="stroke:#181818;stroke-width:0.5;stroke-dasharray:5.0,5.0;" x1="69" x2="69" y1="78.2422" y2="332.0273"/><line style="stroke:#181818;stroke-width:0.5;stroke-dasharray:5.0,5.0;" x1="305.5" x2="305.5" y1="78.2422" y2="332.0273"/><line style="stroke:#181818;stroke-width:0.5;stroke-dasharray:5.0,5.0;" x1="476.5" x2="476.5" y1="202.6348" y2="332.0273"/><rect fill="#E3E3E3" height="32.6211" rx="2.5" ry="2.5" style="stroke:#181818;stroke-width:0.5;" width="129" x="5" y="44.6211"/><text fill="#000000" font-family="sans-serif" font-size="14" lengthAdjust="spacing" textLength="115" x="12" y="66.7285">:AgendaController</text><rect fill="#E3E3E3" height="32.6211" rx="2.5" ry="2.5" style="stroke:#181818;stroke-width:0.5;" width="129" x="5" y="331.0273"/><text fill="#000000" font-family="sans-serif" font-size="14" lengthAdjust="spacing" textLength="115" x="12" y="353.1348">:AgendaController</text><rect fill="#E3E3E3" height="32.6211" rx="2.5" ry="2.5" style="stroke:#181818;stroke-width:0.5;" width="112" x="249.5" y="44.6211"/><text fill="#000000" font-family="sans-serif" font-size="14" lengthAdjust="spacing" textLength="98" x="256.5" y="66.7285">:VehicleMapper</text><rect fill="#E3E3E3" height="32.6211" rx="2.5" ry="2.5" style="stroke:#181818;stroke-width:0.5;" width="112" x="249.5" y="331.0273"/><text fill="#000000" font-family="sans-serif" font-size="14" lengthAdjust="spacing" textLength="98" x="256.5" y="353.1348">:VehicleMapper</text><rect fill="#E3E3E3" height="32.6211" rx="2.5" ry="2.5" style="stroke:#181818;stroke-width:0.5;" width="94" x="429.5" y="331.0273"/><text fill="#000000" font-family="sans-serif" font-size="14" lengthAdjust="spacing" textLength="80" x="436.5" y="353.1348">:VehicleDTO</text><rect fill="#FFFFFF" height="225.7852" style="stroke:#181818;stroke-width:1.0;" width="10" x="64.5" y="88.2422"/><rect fill="#FFFFFF" height="202.4941" style="stroke:#181818;stroke-width:1.0;" width="10" x="300.5" y="111.5332"/><polygon fill="#181818" points="288.5,107.5332,298.5,111.5332,288.5,115.5332,292.5,111.5332" style="stroke:#181818;stroke-width:1.0;"/><line style="stroke:#181818;stroke-width:1.0;" x1="74.5" x2="294.5" y1="111.5332" y2="111.5332"/><text fill="#000000" font-family="sans-serif" font-size="13" font-weight="bold" lengthAdjust="spacing" textLength="7" x="81.5" y="106.2705">1</text><text fill="#000000" font-family="sans-serif" font-size="13" lengthAdjust="spacing" textLength="196" x="92.5" y="106.2705">toDTOList(getVehiclesAssigned())</text><path d="M239.5,126.5332 L312.5,126.5332 L312.5,135.8242 L302.5,145.8242 L239.5,145.8242 L239.5,126.5332 " fill="#EEEEEE" style="stroke:#000000;stroke-width:1.5;"/><rect fill="none" height="157.2031" style="stroke:#000000;stroke-width:1.5;" width="331" x="239.5" y="126.5332"/><text fill="#000000" font-family="sans-serif" font-size="13" font-weight="bold" lengthAdjust="spacing" textLength="28" x="254.5" y="141.5615">loop</text><text fill="#000000" font-family="sans-serif" font-size="11" font-weight="bold" lengthAdjust="spacing" textLength="238" x="327.5" y="140.4033">[for each vehicle in getVehiclesAssigned()]</text><polygon fill="#181818" points="417.5,190.1152,427.5,194.1152,417.5,198.1152,421.5,194.1152" style="stroke:#181818;stroke-width:1.0;"/><line style="stroke:#181818;stroke-width:1.0;" x1="310.5" x2="423.5" y1="194.1152" y2="194.1152"/><text fill="#000000" font-family="sans-serif" font-size="13" font-weight="bold" lengthAdjust="spacing" textLength="7" x="317.5" y="188.8525">2</text><text fill="#000000" font-family="sans-serif" font-size="13" lengthAdjust="spacing" textLength="84" x="328.5" y="188.8525">toDTO(vehicle)</text><rect fill="#E3E3E3" height="32.6211" rx="2.5" ry="2.5" style="stroke:#181818;stroke-width:0.5;" width="94" x="429.5" y="170.8242"/><text fill="#000000" font-family="sans-serif" font-size="14" lengthAdjust="spacing" textLength="80" x="436.5" y="192.9316">:VehicleDTO</text><line style="stroke:#181818;stroke-width:1.0;stroke-dasharray:2.0,2.0;" x1="310.5" x2="352.5" y1="262.7363" y2="262.7363"/><line style="stroke:#181818;stroke-width:1.0;stroke-dasharray:2.0,2.0;" x1="352.5" x2="352.5" y1="262.7363" y2="275.7363"/><line style="stroke:#181818;stroke-width:1.0;stroke-dasharray:2.0,2.0;" x1="311.5" x2="352.5" y1="275.7363" y2="275.7363"/><polygon fill="#181818" points="321.5,271.7363,311.5,275.7363,321.5,279.7363,317.5,275.7363" style="stroke:#181818;stroke-width:1.0;"/><text fill="#000000" font-family="sans-serif" font-size="13" font-weight="bold" lengthAdjust="spacing" textLength="7" x="317.5" y="257.4736">3</text><text fill="#000000" font-family="sans-serif" font-size="13" lengthAdjust="spacing" textLength="94" x="328.5" y="257.4736">add(vehicleDTO)</text><polygon fill="#181818" points="80.5,310.0273,70.5,314.0273,80.5,318.0273,76.5,314.0273" style="stroke:#181818;stroke-width:1.0;"/><line style="stroke:#181818;stroke-width:1.0;stroke-dasharray:2.0,2.0;" x1="74.5" x2="304.5" y1="314.0273" y2="314.0273"/><text fill="#000000" font-family="sans-serif" font-size="13" font-weight="bold" lengthAdjust="spacing" textLength="7" x="86.5" y="308.7646">4</text><text fill="#000000" font-family="sans-serif" font-size="13" lengthAdjust="spacing" textLength="86" x="97.5" y="308.7646">vehicleDTOList</text><!--SRC=[ZL91QiCm4Bph5KjESQ0VoA5Wuj9Bqa8JUWqRUMEBo9AHrYu5FxwgwwIowqBs8gIPdHcjv2_ArEYmWieQAqjdAm9s3Gb_GsgK5onepv-Qm95aD8ME2Rx4t7ueKy0PjISXM76WxhEZFJ4gyqwbafgom-jMUHO26xQcgKxaX0WAhAIgqJ0ircb19iUDDUoirkGMW1xIvwUNB3rk3c_RANzGtc5T3-JHoJmxv8YfOHiYILOjCetD18IAJk3XSMm0Qs0xt6jP40-WJxrNXQ5ycIIznar-7EyRqjRMSBOE26K9xGyEoi2iND_ITLs_nZMEzPipX5kjhZ6NWtmY_lHFwmwFcM5WdbyzWjrW4vwql-KTUl6irz1E_isqFwT_vYf41CKl-WK0]--></g></svg>