<?xml version="1.0" encoding="us-ascii" standalone="no"?><svg xmlns="http://www.w3.org/2000/svg" xmlns:xlink="http://www.w3.org/1999/xlink" contentStyleType="text/css" height="609.6px" preserveAspectRatio="none" style="width:928px;height:609px;background:#FFFFFF;" version="1.1" viewBox="0 0 928 609" width="928px" zoomAndPan="magnify"><defs/><g><text fill="#000000" font-family="sans-serif" font-size="11.2" font-weight="bold" lengthAdjust="spacing" textLength="194.4" x="367.6" y="24.0859">SD_obtainManagerAgendaTaskList</text><rect fill="#FFFFFF" height="471.4531" style="stroke:#181818;stroke-width:0.8000000000000002;" width="8" x="114.8" y="85.4906"/><rect fill="#FFFFFF" height="25.0328" style="stroke:#181818;stroke-width:0.8000000000000002;" width="8" x="280.4" y="104.1234"/><rect fill="#FFFFFF" height="25.0328" style="stroke:#181818;stroke-width:0.8000000000000002;" width="8" x="398" y="154.1891"/><rect fill="#FFFFFF" height="25.0328" style="stroke:#181818;stroke-width:0.8000000000000002;" width="8" x="494" y="204.2547"/><rect fill="#FFFFFF" height="26.8969" style="stroke:#181818;stroke-width:0.8000000000000002;" width="8" x="574.4" y="354.2188"/><rect fill="#FFFFFF" height="26.8969" style="stroke:#181818;stroke-width:0.8000000000000002;" width="8" x="574.4" y="508.1828"/><rect fill="none" height="310.0563" style="stroke:#000000;stroke-width:1.2000000000000002;" width="914.4" x="8" y="241.2875"/><line style="stroke:#181818;stroke-width:0.4000000000000001;stroke-dasharray:5.0,5.0;" x1="118.4" x2="118.4" y1="77.4906" y2="564.9438"/><line style="stroke:#181818;stroke-width:0.4000000000000001;stroke-dasharray:5.0,5.0;" x1="284" x2="284" y1="77.4906" y2="564.9438"/><line style="stroke:#181818;stroke-width:0.4000000000000001;stroke-dasharray:5.0,5.0;" x1="401.6" x2="401.6" y1="77.4906" y2="564.9438"/><line style="stroke:#181818;stroke-width:0.4000000000000001;stroke-dasharray:5.0,5.0;" x1="497.6" x2="497.6" y1="77.4906" y2="564.9438"/><line style="stroke:#181818;stroke-width:0.4000000000000001;stroke-dasharray:5.0,5.0;" x1="578.4" x2="578.4" y1="506.9984" y2="564.9438"/><line style="stroke:#181818;stroke-width:0.4000000000000001;stroke-dasharray:5.0,5.0;" x1="792" x2="792" y1="541.8953" y2="564.9438"/><line style="stroke:#181818;stroke-width:0.4000000000000001;stroke-dasharray:5.0,5.0;" x1="874.4" x2="874.4" y1="387.9313" y2="564.9438"/><rect fill="#E3E3E3" height="26.0969" rx="2" ry="2" style="stroke:#181818;stroke-width:0.4000000000000001;" width="205.6" x="16" y="50.5938"/><text fill="#000000" font-family="sans-serif" font-size="11.2" lengthAdjust="spacing" textLength="194.4" x="21.6" y="68.2797">:AssignTeamToEntryAgendaController</text><rect fill="#E3E3E3" height="26.0969" rx="2" ry="2" style="stroke:#181818;stroke-width:0.4000000000000001;" width="205.6" x="16" y="564.1438"/><text fill="#000000" font-family="sans-serif" font-size="11.2" lengthAdjust="spacing" textLength="194.4" x="21.6" y="581.8297">:AssignTeamToEntryAgendaController</text><rect fill="#E3E3E3" height="26.0969" rx="2" ry="2" style="stroke:#181818;stroke-width:0.4000000000000001;" width="109.6" x="229.6" y="50.5938"/><text fill="#000000" font-family="sans-serif" font-size="11.2" lengthAdjust="spacing" textLength="98.4" x="235.2" y="68.2797">:ApplicationSession</text><rect fill="#E3E3E3" height="26.0969" rx="2" ry="2" style="stroke:#181818;stroke-width:0.4000000000000001;" width="109.6" x="229.6" y="564.1438"/><text fill="#000000" font-family="sans-serif" font-size="11.2" lengthAdjust="spacing" textLength="98.4" x="235.2" y="581.8297">:ApplicationSession</text><rect fill="#E3E3E3" height="40.9938" rx="2" ry="2" style="stroke:#181818;stroke-width:0.4000000000000001;" width="109.6" x="347.2" y="35.6969"/><text fill="#000000" font-family="sans-serif" font-size="11.2" lengthAdjust="spacing" textLength="45.6" x="379.2" y="53.3828">singleton</text><text fill="#000000" font-family="sans-serif" font-size="11.2" lengthAdjust="spacing" textLength="98.4" x="352.8" y="68.2797">:ApplicationSession</text><rect fill="#E3E3E3" height="40.9938" rx="2" ry="2" style="stroke:#181818;stroke-width:0.4000000000000001;" width="109.6" x="347.2" y="564.1438"/><text fill="#000000" font-family="sans-serif" font-size="11.2" lengthAdjust="spacing" textLength="45.6" x="379.2" y="581.8297">singleton</text><text fill="#000000" font-family="sans-serif" font-size="11.2" lengthAdjust="spacing" textLength="98.4" x="352.8" y="596.7266">:ApplicationSession</text><rect fill="#E3E3E3" height="40.9938" rx="2" ry="2" style="stroke:#181818;stroke-width:0.4000000000000001;" width="66.4" x="464.8" y="35.6969"/><text fill="#000000" font-family="sans-serif" font-size="11.2" lengthAdjust="spacing" textLength="51.2" x="472.4" y="53.3828">properties</text><text fill="#000000" font-family="sans-serif" font-size="11.2" lengthAdjust="spacing" textLength="55.2" x="470.4" y="68.2797">:Properties</text><rect fill="#E3E3E3" height="40.9938" rx="2" ry="2" style="stroke:#181818;stroke-width:0.4000000000000001;" width="66.4" x="464.8" y="564.1438"/><text fill="#000000" font-family="sans-serif" font-size="11.2" lengthAdjust="spacing" textLength="51.2" x="472.4" y="581.8297">properties</text><text fill="#000000" font-family="sans-serif" font-size="11.2" lengthAdjust="spacing" textLength="55.2" x="470.4" y="596.7266">:Properties</text><rect fill="#E3E3E3" height="26.0969" rx="2" ry="2" style="stroke:#181818;stroke-width:0.4000000000000001;" width="78.4" x="539.2" y="564.1438"/><text fill="#000000" font-family="sans-serif" font-size="11.2" lengthAdjust="spacing" textLength="67.2" x="544.8" y="581.8297">:EmailSender</text><rect fill="#E3E3E3" height="26.0969" rx="2" ry="2" style="stroke:#181818;stroke-width:0.4000000000000001;" width="68.8" x="757.6" y="564.1438"/><text fill="#000000" font-family="sans-serif" font-size="11.2" lengthAdjust="spacing" textLength="57.6" x="763.2" y="581.8297">:DEISender</text><rect fill="#E3E3E3" height="26.0969" rx="2" ry="2" style="stroke:#181818;stroke-width:0.4000000000000001;" width="80" x="834.4" y="564.1438"/><text fill="#000000" font-family="sans-serif" font-size="11.2" lengthAdjust="spacing" textLength="68.8" x="840" y="581.8297">:GmailSender</text><rect fill="#FFFFFF" height="471.4531" style="stroke:#181818;stroke-width:0.8000000000000002;" width="8" x="114.8" y="85.4906"/><rect fill="#FFFFFF" height="25.0328" style="stroke:#181818;stroke-width:0.8000000000000002;" width="8" x="280.4" y="104.1234"/><rect fill="#FFFFFF" height="25.0328" style="stroke:#181818;stroke-width:0.8000000000000002;" width="8" x="398" y="154.1891"/><rect fill="#FFFFFF" height="25.0328" style="stroke:#181818;stroke-width:0.8000000000000002;" width="8" x="494" y="204.2547"/><rect fill="#FFFFFF" height="26.8969" style="stroke:#181818;stroke-width:0.8000000000000002;" width="8" x="574.4" y="354.2188"/><rect fill="#FFFFFF" height="26.8969" style="stroke:#181818;stroke-width:0.8000000000000002;" width="8" x="574.4" y="508.1828"/><polygon fill="#181818" points="270.8,100.9234,278.8,104.1234,270.8,107.3234,274,104.1234" style="stroke:#181818;stroke-width:0.8000000000000002;"/><line style="stroke:#181818;stroke-width:0.8000000000000002;" x1="122.8" x2="275.6" y1="104.1234" y2="104.1234"/><text fill="#000000" font-family="sans-serif" font-size="10.4" font-weight="bold" lengthAdjust="spacing" textLength="5.6" x="128.4" y="99.9133">1</text><text fill="#000000" font-family="sans-serif" font-size="10.4" lengthAdjust="spacing" textLength="60" x="137.2" y="99.9133">getInstance()</text><polygon fill="#181818" points="131.6,125.9563,123.6,129.1563,131.6,132.3563,128.4,129.1563" style="stroke:#181818;stroke-width:0.8000000000000002;"/><line style="stroke:#181818;stroke-width:0.8000000000000002;stroke-dasharray:2.0,2.0;" x1="126.8" x2="283.6" y1="129.1563" y2="129.1563"/><text fill="#000000" font-family="sans-serif" font-size="10.4" font-weight="bold" lengthAdjust="spacing" textLength="5.6" x="136.4" y="124.9461">2</text><text fill="#000000" font-family="sans-serif" font-size="10.4" lengthAdjust="spacing" textLength="41.6" x="145.2" y="124.9461">singleton</text><polygon fill="#181818" points="388.4,150.9891,396.4,154.1891,388.4,157.3891,391.6,154.1891" style="stroke:#181818;stroke-width:0.8000000000000002;"/><line style="stroke:#181818;stroke-width:0.8000000000000002;" x1="122.8" x2="393.2" y1="154.1891" y2="154.1891"/><text fill="#000000" font-family="sans-serif" font-size="10.4" font-weight="bold" lengthAdjust="spacing" textLength="5.6" x="128.4" y="149.9789">3</text><text fill="#000000" font-family="sans-serif" font-size="10.4" lengthAdjust="spacing" textLength="68" x="137.2" y="149.9789">getProperties()</text><polygon fill="#181818" points="131.6,176.0219,123.6,179.2219,131.6,182.4219,128.4,179.2219" style="stroke:#181818;stroke-width:0.8000000000000002;"/><line style="stroke:#181818;stroke-width:0.8000000000000002;stroke-dasharray:2.0,2.0;" x1="126.8" x2="401.2" y1="179.2219" y2="179.2219"/><text fill="#000000" font-family="sans-serif" font-size="10.4" font-weight="bold" lengthAdjust="spacing" textLength="5.6" x="136.4" y="175.0117">4</text><text fill="#000000" font-family="sans-serif" font-size="10.4" lengthAdjust="spacing" textLength="45.6" x="145.2" y="175.0117">properties</text><polygon fill="#181818" points="484.4,201.0547,492.4,204.2547,484.4,207.4547,487.6,204.2547" style="stroke:#181818;stroke-width:0.8000000000000002;"/><line style="stroke:#181818;stroke-width:0.8000000000000002;" x1="122.8" x2="489.2" y1="204.2547" y2="204.2547"/><text fill="#000000" font-family="sans-serif" font-size="10.4" font-weight="bold" lengthAdjust="spacing" textLength="5.6" x="128.4" y="200.0445">5</text><text fill="#000000" font-family="sans-serif" font-size="10.4" lengthAdjust="spacing" textLength="234.4" x="137.2" y="200.0445">getProperty(ApplicationSession.EMAIL_SERVICE)</text><polygon fill="#181818" points="131.6,226.0875,123.6,229.2875,131.6,232.4875,128.4,229.2875" style="stroke:#181818;stroke-width:0.8000000000000002;"/><line style="stroke:#181818;stroke-width:0.8000000000000002;stroke-dasharray:2.0,2.0;" x1="126.8" x2="497.2" y1="229.2875" y2="229.2875"/><text fill="#000000" font-family="sans-serif" font-size="10.4" font-weight="bold" lengthAdjust="spacing" textLength="5.6" x="136.4" y="225.0773">6</text><text fill="#000000" font-family="sans-serif" font-size="10.4" lengthAdjust="spacing" textLength="58.4" x="145.2" y="225.0773">emailService</text><path d="M8,241.2875 L56.8,241.2875 L56.8,248.7203 L48.8,256.7203 L8,256.7203 L8,241.2875 " fill="#EEEEEE" style="stroke:#000000;stroke-width:1.2000000000000002;"/><rect fill="none" height="310.0563" style="stroke:#000000;stroke-width:1.2000000000000002;" width="914.4" x="8" y="241.2875"/><text fill="#000000" font-family="sans-serif" font-size="10.4" font-weight="bold" lengthAdjust="spacing" textLength="12.8" x="20" y="253.3102">alt</text><text fill="#000000" font-family="sans-serif" font-size="8.8" font-weight="bold" lengthAdjust="spacing" textLength="138.4" x="68.8" y="252.3836">[if emailService = GmailService]</text><line style="stroke:#181818;stroke-width:0.8000000000000002;" x1="122.8" x2="156.4" y1="275.3531" y2="275.3531"/><line style="stroke:#181818;stroke-width:0.8000000000000002;" x1="156.4" x2="156.4" y1="275.3531" y2="285.7531"/><line style="stroke:#181818;stroke-width:0.8000000000000002;" x1="123.6" x2="156.4" y1="285.7531" y2="285.7531"/><polygon fill="#181818" points="131.6,282.5531,123.6,285.7531,131.6,288.9531,128.4,285.7531" style="stroke:#181818;stroke-width:0.8000000000000002;"/><text fill="#000000" font-family="sans-serif" font-size="10.4" font-weight="bold" lengthAdjust="spacing" textLength="5.6" x="128.4" y="271.143">7</text><text fill="#000000" font-family="sans-serif" font-size="10.4" lengthAdjust="spacing" textLength="57.6" x="137.2" y="271.143">emailSender</text><path d="M204,263.5203 L204,285.1203 L357.6,285.1203 L357.6,271.5203 L349.6,263.5203 L204,263.5203 " fill="#FAFAFA" style="stroke:#181818;stroke-width:0.4000000000000001;"/><path d="M349.6,263.5203 L349.6,271.5203 L357.6,271.5203 L349.6,263.5203 " fill="#FAFAFA" style="stroke:#181818;stroke-width:0.4000000000000001;"/><text fill="#000000" font-family="sans-serif" font-size="10.4" lengthAdjust="spacing" textLength="136.8" x="208.8" y="278.743">emailSender = "@gmail.com"</text><line style="stroke:#181818;stroke-width:0.8000000000000002;" x1="122.8" x2="156.4" y1="310.7859" y2="310.7859"/><line style="stroke:#181818;stroke-width:0.8000000000000002;" x1="156.4" x2="156.4" y1="310.7859" y2="321.1859"/><line style="stroke:#181818;stroke-width:0.8000000000000002;" x1="123.6" x2="156.4" y1="321.1859" y2="321.1859"/><polygon fill="#181818" points="131.6,317.9859,123.6,321.1859,131.6,324.3859,128.4,321.1859" style="stroke:#181818;stroke-width:0.8000000000000002;"/><text fill="#000000" font-family="sans-serif" font-size="10.4" font-weight="bold" lengthAdjust="spacing" textLength="5.6" x="128.4" y="306.5758">8</text><text fill="#000000" font-family="sans-serif" font-size="10.4" lengthAdjust="spacing" textLength="86.4" x="137.2" y="306.5758">body(emailSender)</text><polygon fill="#181818" points="529.6,343.0188,537.6,346.2188,529.6,349.4188,532.8,346.2188" style="stroke:#181818;stroke-width:0.8000000000000002;"/><line style="stroke:#181818;stroke-width:0.8000000000000002;" x1="122.8" x2="534.4" y1="346.2188" y2="346.2188"/><text fill="#000000" font-family="sans-serif" font-size="10.4" font-weight="bold" lengthAdjust="spacing" textLength="5.6" x="128.4" y="342.0086">9</text><text fill="#000000" font-family="sans-serif" font-size="10.4" lengthAdjust="spacing" textLength="141.6" x="137.2" y="342.0086">sendEmail(emailSender, body)</text><rect fill="#E3E3E3" height="26.0969" rx="2" ry="2" style="stroke:#181818;stroke-width:0.4000000000000001;" width="78.4" x="539.2" y="327.5859"/><text fill="#000000" font-family="sans-serif" font-size="11.2" lengthAdjust="spacing" textLength="67.2" x="544.8" y="345.2719">:EmailSender</text><polygon fill="#181818" points="824.8,377.9156,832.8,381.1156,824.8,384.3156,828,381.1156" style="stroke:#181818;stroke-width:0.8000000000000002;"/><line style="stroke:#181818;stroke-width:0.8000000000000002;" x1="578.4" x2="829.6" y1="381.1156" y2="381.1156"/><text fill="#000000" font-family="sans-serif" font-size="10.4" font-weight="bold" lengthAdjust="spacing" textLength="11.2" x="584" y="376.9055">10</text><text fill="#000000" font-family="sans-serif" font-size="10.4" lengthAdjust="spacing" textLength="141.6" x="598.4" y="376.9055">sendEmail(emailSender, body)</text><rect fill="#E3E3E3" height="26.0969" rx="2" ry="2" style="stroke:#181818;stroke-width:0.4000000000000001;" width="80" x="834.4" y="362.4828"/><text fill="#000000" font-family="sans-serif" font-size="11.2" lengthAdjust="spacing" textLength="68.8" x="840" y="380.1688">:GmailSender</text><line style="stroke:#000000;stroke-width:0.8000000000000002;stroke-dasharray:2.0,2.0;" x1="8" x2="922.4" y1="398.1797" y2="398.1797"/><text fill="#000000" font-family="sans-serif" font-size="8.8" font-weight="bold" lengthAdjust="spacing" textLength="126.4" x="12" y="407.6758">[if emailService = DEIService]</text><line style="stroke:#181818;stroke-width:0.8000000000000002;" x1="122.8" x2="156.4" y1="429.3172" y2="429.3172"/><line style="stroke:#181818;stroke-width:0.8000000000000002;" x1="156.4" x2="156.4" y1="429.3172" y2="439.7172"/><line style="stroke:#181818;stroke-width:0.8000000000000002;" x1="123.6" x2="156.4" y1="439.7172" y2="439.7172"/><polygon fill="#181818" points="131.6,436.5172,123.6,439.7172,131.6,442.9172,128.4,439.7172" style="stroke:#181818;stroke-width:0.8000000000000002;"/><text fill="#000000" font-family="sans-serif" font-size="10.4" font-weight="bold" lengthAdjust="spacing" textLength="11.2" x="128.4" y="425.107">11</text><text fill="#000000" font-family="sans-serif" font-size="10.4" lengthAdjust="spacing" textLength="57.6" x="142.8" y="425.107">emailSender</text><path d="M209.6,417.4844 L209.6,439.0844 L363.2,439.0844 L363.2,425.4844 L355.2,417.4844 L209.6,417.4844 " fill="#FAFAFA" style="stroke:#181818;stroke-width:0.4000000000000001;"/><path d="M355.2,417.4844 L355.2,425.4844 L363.2,425.4844 L355.2,417.4844 " fill="#FAFAFA" style="stroke:#181818;stroke-width:0.4000000000000001;"/><text fill="#000000" font-family="sans-serif" font-size="10.4" lengthAdjust="spacing" textLength="136.8" x="214.4" y="432.707">emailSender = "@isep.ipp.pt"</text><line style="stroke:#181818;stroke-width:0.8000000000000002;" x1="122.8" x2="156.4" y1="464.75" y2="464.75"/><line style="stroke:#181818;stroke-width:0.8000000000000002;" x1="156.4" x2="156.4" y1="464.75" y2="475.15"/><line style="stroke:#181818;stroke-width:0.8000000000000002;" x1="123.6" x2="156.4" y1="475.15" y2="475.15"/><polygon fill="#181818" points="131.6,471.95,123.6,475.15,131.6,478.35,128.4,475.15" style="stroke:#181818;stroke-width:0.8000000000000002;"/><text fill="#000000" font-family="sans-serif" font-size="10.4" font-weight="bold" lengthAdjust="spacing" textLength="11.2" x="128.4" y="460.5398">12</text><text fill="#000000" font-family="sans-serif" font-size="10.4" lengthAdjust="spacing" textLength="86.4" x="142.8" y="460.5398">body(emailSender)</text><polygon fill="#181818" points="529.6,496.9828,537.6,500.1828,529.6,503.3828,532.8,500.1828" style="stroke:#181818;stroke-width:0.8000000000000002;"/><line style="stroke:#181818;stroke-width:0.8000000000000002;" x1="122.8" x2="534.4" y1="500.1828" y2="500.1828"/><text fill="#000000" font-family="sans-serif" font-size="10.4" font-weight="bold" lengthAdjust="spacing" textLength="11.2" x="128.4" y="495.9727">13</text><text fill="#000000" font-family="sans-serif" font-size="10.4" lengthAdjust="spacing" textLength="141.6" x="142.8" y="495.9727">sendEmail(emailSender, body)</text><rect fill="#E3E3E3" height="26.0969" rx="2" ry="2" style="stroke:#181818;stroke-width:0.4000000000000001;" width="78.4" x="539.2" y="481.55"/><text fill="#000000" font-family="sans-serif" font-size="11.2" lengthAdjust="spacing" textLength="67.2" x="544.8" y="499.2359">:EmailSender</text><polygon fill="#181818" points="748,531.8797,756,535.0797,748,538.2797,751.2,535.0797" style="stroke:#181818;stroke-width:0.8000000000000002;"/><line style="stroke:#181818;stroke-width:0.8000000000000002;" x1="578.4" x2="752.8" y1="535.0797" y2="535.0797"/><text fill="#000000" font-family="sans-serif" font-size="10.4" font-weight="bold" lengthAdjust="spacing" textLength="11.2" x="584" y="530.8695">14</text><text fill="#000000" font-family="sans-serif" font-size="10.4" lengthAdjust="spacing" textLength="141.6" x="598.4" y="530.8695">sendEmail(emailSender, body)</text><rect fill="#E3E3E3" height="26.0969" rx="2" ry="2" style="stroke:#181818;stroke-width:0.4000000000000001;" width="68.8" x="757.6" y="516.4469"/><text fill="#000000" font-family="sans-serif" font-size="11.2" lengthAdjust="spacing" textLength="57.6" x="763.2" y="534.1328">:DEISender</text><!--SRC=[rLHHQzim47xthn1vIikQ7n3ec4bC2AGbr65FWt1Hhew8BGb9wSY_tqdkPDbEHs4mc9vyqlTzzzsTP7iMKeE1XZLAAduoga7cp0Kp6qyqy3DKMBfhZSmWTo2hEWNO4npLJo4hzWgrnInpmX6qNExLmO6GJo29R_8AvH5sOCyROLsMmSKfUMaEQBACX9pWGeDqR3BFhHMLt24qErL8PwujTQ7eMzKrcWa3o_9LyRpCzulTosOae7KjE3YXP8aafcJBs6xxG2jyAMJZX_m3f_oDwfErKHefHaliRGm2ouTsOAfeGDGb5VBkFyG3pB9O9mYA1kUhWKQ8gPNSYJTmsEy9evLii8UllXesPnMwjRGqHuxJkm3h1AX5OIUG2VtWMOd8dCMc1TmHnznnqjZ2DdlNhHlvktQdHZg5iQDk4ZSi3UG6tiAWUgQkq_5Dc1LF-NgpBukNx-j5CR3SpZfwRHN79h4TdNaJ78Ss4mce7HElFJHxPAkKtBLbqETR-VnLYGIfA9aHrSd5BRyIAEMQVAjyFEEgcKGO7GRs9vCVrF4wJMJlFgA5Ht1_xwyL0KEKyhu4fOuTEzO-dbuLOSjhhZwd6Sd9819Pf5_PZKc45_gFvY0iwfdGUgRT_pa9QjRVpE6ztColz54dFxbV]--></g></svg>