<?xml version="1.0" encoding="us-ascii" standalone="no"?><svg xmlns="http://www.w3.org/2000/svg" xmlns:xlink="http://www.w3.org/1999/xlink" contentStyleType="text/css" height="1912.9px" preserveAspectRatio="none" style="width:2137px;height:1912px;background:#FFFFFF;" version="1.1" viewBox="0 0 2137 1912" width="2137.3px" zoomAndPan="magnify"><defs/><g><text fill="#000000" font-family="sans-serif" font-size="15.4" font-weight="bold" lengthAdjust="spacing" textLength="316.8" x="911.9" y="33.1182">Sequence Diagram (SD) - Alternative One</text><rect fill="#FFFFFF" height="1614.8516" style="stroke:#181818;stroke-width:1.1;" width="11" x="49.5" y="167.0496"/><rect fill="#FFFFFF" height="591.0051" style="stroke:#181818;stroke-width:1.1;" width="11" x="445.5" y="192.6697"/><rect fill="#FFFFFF" height="620.7051" style="stroke:#181818;stroke-width:1.1;" width="11" x="445.5" y="818.0949"/><rect fill="#FFFFFF" height="102.1604" style="stroke:#181818;stroke-width:1.1;" width="11" x="445.5" y="1473.2201"/><rect fill="#FFFFFF" height="172.1006" style="stroke:#181818;stroke-width:1.1;" width="11" x="445.5" y="1609.8006"/><rect fill="#FFFFFF" height="503.1447" style="stroke:#181818;stroke-width:1.1;" width="11" x="697.4" y="227.0898"/><rect fill="#FFFFFF" height="503.1447" style="stroke:#181818;stroke-width:1.1;" width="11" x="697.4" y="901.2352"/><rect fill="#FFFFFF" height="103.2604" style="stroke:#181818;stroke-width:1.1;" width="11" x="697.4" y="1644.2207"/><rect fill="#FFFFFF" height="34.4201" style="stroke:#181818;stroke-width:1.1;" width="11" x="871.2" y="1678.6408"/><rect fill="#FFFFFF" height="34.4201" style="stroke:#181818;stroke-width:1.1;" width="11" x="954.25" y="261.51"/><rect fill="#FFFFFF" height="34.4201" style="stroke:#181818;stroke-width:1.1;" width="11" x="954.25" y="935.6553"/><rect fill="#FFFFFF" height="34.4201" style="stroke:#181818;stroke-width:1.1;" width="11" x="1060.95" y="330.3502"/><rect fill="#FFFFFF" height="34.4201" style="stroke:#181818;stroke-width:1.1;" width="11" x="1060.95" y="1004.4955"/><rect fill="#FFFFFF" height="34.4201" style="stroke:#181818;stroke-width:1.1;" width="11" x="1157.2" y="399.1904"/><rect fill="#FFFFFF" height="227.7838" style="stroke:#181818;stroke-width:1.1;" width="11" x="1258.4" y="468.0307"/><rect fill="#FFFFFF" height="34.4201" style="stroke:#181818;stroke-width:1.1;" width="11" x="1552.1" y="1073.3357"/><rect fill="#FFFFFF" height="227.7838" style="stroke:#181818;stroke-width:1.1;" width="11" x="1686.3" y="1142.176"/><rect fill="none" height="177.9637" style="stroke:#000000;stroke-width:1.6500000000000001;" width="527.45" x="1199.55" y="484.5307"/><rect fill="none" height="177.9637" style="stroke:#000000;stroke-width:1.6500000000000001;" width="506" x="1624.7" y="1158.676"/><line style="stroke:#181818;stroke-width:0.55;stroke-dasharray:5.0,5.0;" x1="55" x2="55" y1="156.0496" y2="1801.7012"/><line style="stroke:#181818;stroke-width:0.55;stroke-dasharray:5.0,5.0;" x1="451" x2="451" y1="156.0496" y2="1801.7012"/><line style="stroke:#181818;stroke-width:0.55;stroke-dasharray:5.0,5.0;" x1="702.9" x2="702.9" y1="156.0496" y2="1801.7012"/><line style="stroke:#181818;stroke-width:0.55;stroke-dasharray:5.0,5.0;" x1="876.15" x2="876.15" y1="156.0496" y2="1801.7012"/><line style="stroke:#181818;stroke-width:0.55;stroke-dasharray:5.0,5.0;" x1="959.75" x2="959.75" y1="156.0496" y2="1801.7012"/><line style="stroke:#181818;stroke-width:0.55;stroke-dasharray:5.0,5.0;" x1="1066.45" x2="1066.45" y1="156.0496" y2="1801.7012"/><line style="stroke:#181818;stroke-width:0.55;stroke-dasharray:5.0,5.0;" x1="1162.15" x2="1162.15" y1="156.0496" y2="1801.7012"/><line style="stroke:#181818;stroke-width:0.55;stroke-dasharray:5.0,5.0;" x1="1263.35" x2="1263.35" y1="156.0496" y2="1801.7012"/><line style="stroke:#181818;stroke-width:0.55;stroke-dasharray:5.0,5.0;" x1="1435.5" x2="1435.5" y1="540.7424" y2="1801.7012"/><line style="stroke:#181818;stroke-width:0.55;stroke-dasharray:5.0,5.0;" x1="1557.6" x2="1557.6" y1="156.0496" y2="1801.7012"/><line style="stroke:#181818;stroke-width:0.55;stroke-dasharray:5.0,5.0;" x1="1691.8" x2="1691.8" y1="156.0496" y2="1801.7012"/><line style="stroke:#181818;stroke-width:0.55;stroke-dasharray:5.0,5.0;" x1="1871.1" x2="1871.1" y1="1214.8877" y2="1801.7012"/><text fill="#000000" font-family="sans-serif" font-size="15.4" lengthAdjust="spacing" textLength="92.4" x="5.5" y="131.7014">Green Space</text><text fill="#000000" font-family="sans-serif" font-size="15.4" lengthAdjust="spacing" textLength="61.6" x="20.9" y="152.1846">Manager</text><ellipse cx="55" cy="58.4332" fill="#E3E3E3" rx="8.8" ry="8.8" style="stroke:#181818;stroke-width:0.55;"/><path d="M55,67.2332 L55,96.9332 M40.7,76.0332 L69.3,76.0332 M55,96.9332 L40.7,113.4332 M55,96.9332 L69.3,113.4332 " fill="none" style="stroke:#181818;stroke-width:0.55;"/><text fill="#000000" font-family="sans-serif" font-size="15.4" lengthAdjust="spacing" textLength="92.4" x="5.5" y="1817.2193">Green Space</text><text fill="#000000" font-family="sans-serif" font-size="15.4" lengthAdjust="spacing" textLength="61.6" x="20.9" y="1837.7025">Manager</text><ellipse cx="55" cy="1850.9176" fill="#E3E3E3" rx="8.8" ry="8.8" style="stroke:#181818;stroke-width:0.55;"/><path d="M55,1859.7176 L55,1889.4176 M40.7,1868.5176 L69.3,1868.5176 M55,1889.4176 L40.7,1905.9176 M55,1889.4176 L69.3,1905.9176 " fill="none" style="stroke:#181818;stroke-width:0.55;"/><rect fill="#E3E3E3" height="35.8832" rx="2.75" ry="2.75" style="stroke:#181818;stroke-width:0.55;" width="171.6" x="365.2" y="119.0664"/><text fill="#000000" font-family="sans-serif" font-size="15.4" lengthAdjust="spacing" textLength="156.2" x="372.9" y="143.3846">:AssignTeamToTaskUI</text><rect fill="#E3E3E3" height="35.8832" rx="2.75" ry="2.75" style="stroke:#181818;stroke-width:0.55;" width="171.6" x="365.2" y="1800.6012"/><text fill="#000000" font-family="sans-serif" font-size="15.4" lengthAdjust="spacing" textLength="156.2" x="372.9" y="1824.9193">:AssignTeamToTaskUI</text><rect fill="#E3E3E3" height="35.8832" rx="2.75" ry="2.75" style="stroke:#181818;stroke-width:0.55;" width="226.6" x="589.6" y="119.0664"/><text fill="#000000" font-family="sans-serif" font-size="15.4" lengthAdjust="spacing" textLength="211.2" x="597.3" y="143.3846">:AssignTeamToTaskController</text><rect fill="#E3E3E3" height="35.8832" rx="2.75" ry="2.75" style="stroke:#181818;stroke-width:0.55;" width="226.6" x="589.6" y="1800.6012"/><text fill="#000000" font-family="sans-serif" font-size="15.4" lengthAdjust="spacing" textLength="211.2" x="597.3" y="1824.9193">:AssignTeamToTaskController</text><rect fill="#E3E3E3" height="56.3664" rx="2.75" ry="2.75" style="stroke:#181818;stroke-width:0.55;" width="49.5" x="851.95" y="98.5832"/><text fill="#000000" font-family="sans-serif" font-size="15.4" lengthAdjust="spacing" textLength="33" x="860.2" y="122.9014">task:</text><text fill="#000000" font-family="sans-serif" font-size="15.4" lengthAdjust="spacing" textLength="34.1" x="859.65" y="143.3846">Task</text><rect fill="#E3E3E3" height="56.3664" rx="2.75" ry="2.75" style="stroke:#181818;stroke-width:0.55;" width="49.5" x="851.95" y="1800.6012"/><text fill="#000000" font-family="sans-serif" font-size="15.4" lengthAdjust="spacing" textLength="33" x="860.2" y="1824.9193">task:</text><text fill="#000000" font-family="sans-serif" font-size="15.4" lengthAdjust="spacing" textLength="34.1" x="859.65" y="1845.4025">Task</text><rect fill="#E3E3E3" height="35.8832" rx="2.75" ry="2.75" style="stroke:#181818;stroke-width:0.55;" width="94.6" x="912.45" y="119.0664"/><text fill="#000000" font-family="sans-serif" font-size="15.4" lengthAdjust="spacing" textLength="79.2" x="920.15" y="143.3846">:Repository</text><rect fill="#E3E3E3" height="35.8832" rx="2.75" ry="2.75" style="stroke:#181818;stroke-width:0.55;" width="94.6" x="912.45" y="1800.6012"/><text fill="#000000" font-family="sans-serif" font-size="15.4" lengthAdjust="spacing" textLength="79.2" x="920.15" y="1824.9193">:Repository</text><rect fill="#E3E3E3" height="56.3664" rx="2.75" ry="2.75" style="stroke:#181818;stroke-width:0.55;" width="96.8" x="1018.05" y="98.5832"/><text fill="#000000" font-family="sans-serif" font-size="15.4" lengthAdjust="spacing" textLength="81.4" x="1025.75" y="122.9014">repositories</text><text fill="#000000" font-family="sans-serif" font-size="15.4" lengthAdjust="spacing" textLength="79.2" x="1026.85" y="143.3846">:Repository</text><rect fill="#E3E3E3" height="56.3664" rx="2.75" ry="2.75" style="stroke:#181818;stroke-width:0.55;" width="96.8" x="1018.05" y="1800.6012"/><text fill="#000000" font-family="sans-serif" font-size="15.4" lengthAdjust="spacing" textLength="81.4" x="1025.75" y="1824.9193">repositories</text><text fill="#000000" font-family="sans-serif" font-size="15.4" lengthAdjust="spacing" textLength="79.2" x="1026.85" y="1845.4025">:Repository</text><rect fill="#E3E3E3" height="56.3664" rx="2.75" ry="2.75" style="stroke:#181818;stroke-width:0.55;" width="73.7" x="1125.85" y="98.5832"/><text fill="#000000" font-family="sans-serif" font-size="15.4" lengthAdjust="spacing" textLength="52.8" x="1136.3" y="122.9014">agenda</text><text fill="#000000" font-family="sans-serif" font-size="15.4" lengthAdjust="spacing" textLength="58.3" x="1133.55" y="143.3846">:Agenda</text><rect fill="#E3E3E3" height="56.3664" rx="2.75" ry="2.75" style="stroke:#181818;stroke-width:0.55;" width="73.7" x="1125.85" y="1800.6012"/><text fill="#000000" font-family="sans-serif" font-size="15.4" lengthAdjust="spacing" textLength="52.8" x="1136.3" y="1824.9193">agenda</text><text fill="#000000" font-family="sans-serif" font-size="15.4" lengthAdjust="spacing" textLength="58.3" x="1133.55" y="1845.4025">:Agenda</text><rect fill="#E3E3E3" height="35.8832" rx="2.75" ry="2.75" style="stroke:#181818;stroke-width:0.55;" width="106.7" x="1210.55" y="119.0664"/><text fill="#000000" font-family="sans-serif" font-size="15.4" lengthAdjust="spacing" textLength="91.3" x="1218.25" y="143.3846">:TaskMapper</text><rect fill="#E3E3E3" height="35.8832" rx="2.75" ry="2.75" style="stroke:#181818;stroke-width:0.55;" width="106.7" x="1210.55" y="1800.6012"/><text fill="#000000" font-family="sans-serif" font-size="15.4" lengthAdjust="spacing" textLength="91.3" x="1218.25" y="1824.9193">:TaskMapper</text><rect fill="#E3E3E3" height="35.8832" rx="2.75" ry="2.75" style="stroke:#181818;stroke-width:0.55;" width="86.9" x="1392.6" y="1800.6012"/><text fill="#000000" font-family="sans-serif" font-size="15.4" lengthAdjust="spacing" textLength="71.5" x="1400.3" y="1824.9193">:TaskDTO</text><rect fill="#E3E3E3" height="56.3664" rx="2.75" ry="2.75" style="stroke:#181818;stroke-width:0.55;" width="134.2" x="1490.5" y="98.5832"/><text fill="#000000" font-family="sans-serif" font-size="15.4" lengthAdjust="spacing" textLength="108.9" x="1503.15" y="122.9014">teamRepository</text><text fill="#000000" font-family="sans-serif" font-size="15.4" lengthAdjust="spacing" textLength="118.8" x="1498.2" y="143.3846">:TeamRepository</text><rect fill="#E3E3E3" height="56.3664" rx="2.75" ry="2.75" style="stroke:#181818;stroke-width:0.55;" width="134.2" x="1490.5" y="1800.6012"/><text fill="#000000" font-family="sans-serif" font-size="15.4" lengthAdjust="spacing" textLength="108.9" x="1503.15" y="1824.9193">teamRepository</text><text fill="#000000" font-family="sans-serif" font-size="15.4" lengthAdjust="spacing" textLength="118.8" x="1498.2" y="1845.4025">:TeamRepository</text><rect fill="#E3E3E3" height="35.8832" rx="2.75" ry="2.75" style="stroke:#181818;stroke-width:0.55;" width="112.2" x="1635.7" y="119.0664"/><text fill="#000000" font-family="sans-serif" font-size="15.4" lengthAdjust="spacing" textLength="96.8" x="1643.4" y="143.3846">:TeamMapper</text><rect fill="#E3E3E3" height="35.8832" rx="2.75" ry="2.75" style="stroke:#181818;stroke-width:0.55;" width="112.2" x="1635.7" y="1800.6012"/><text fill="#000000" font-family="sans-serif" font-size="15.4" lengthAdjust="spacing" textLength="96.8" x="1643.4" y="1824.9193">:TeamMapper</text><rect fill="#E3E3E3" height="35.8832" rx="2.75" ry="2.75" style="stroke:#181818;stroke-width:0.55;" width="92.4" x="1824.9" y="1800.6012"/><text fill="#000000" font-family="sans-serif" font-size="15.4" lengthAdjust="spacing" textLength="77" x="1832.6" y="1824.9193">:TeamDTO</text><rect fill="#FFFFFF" height="1614.8516" style="stroke:#181818;stroke-width:1.1;" width="11" x="49.5" y="167.0496"/><rect fill="#FFFFFF" height="591.0051" style="stroke:#181818;stroke-width:1.1;" width="11" x="445.5" y="192.6697"/><rect fill="#FFFFFF" height="620.7051" style="stroke:#181818;stroke-width:1.1;" width="11" x="445.5" y="818.0949"/><rect fill="#FFFFFF" height="102.1604" style="stroke:#181818;stroke-width:1.1;" width="11" x="445.5" y="1473.2201"/><rect fill="#FFFFFF" height="172.1006" style="stroke:#181818;stroke-width:1.1;" width="11" x="445.5" y="1609.8006"/><rect fill="#FFFFFF" height="503.1447" style="stroke:#181818;stroke-width:1.1;" width="11" x="697.4" y="227.0898"/><rect fill="#FFFFFF" height="503.1447" style="stroke:#181818;stroke-width:1.1;" width="11" x="697.4" y="901.2352"/><rect fill="#FFFFFF" height="103.2604" style="stroke:#181818;stroke-width:1.1;" width="11" x="697.4" y="1644.2207"/><rect fill="#FFFFFF" height="34.4201" style="stroke:#181818;stroke-width:1.1;" width="11" x="871.2" y="1678.6408"/><rect fill="#FFFFFF" height="34.4201" style="stroke:#181818;stroke-width:1.1;" width="11" x="954.25" y="261.51"/><rect fill="#FFFFFF" height="34.4201" style="stroke:#181818;stroke-width:1.1;" width="11" x="954.25" y="935.6553"/><rect fill="#FFFFFF" height="34.4201" style="stroke:#181818;stroke-width:1.1;" width="11" x="1060.95" y="330.3502"/><rect fill="#FFFFFF" height="34.4201" style="stroke:#181818;stroke-width:1.1;" width="11" x="1060.95" y="1004.4955"/><rect fill="#FFFFFF" height="34.4201" style="stroke:#181818;stroke-width:1.1;" width="11" x="1157.2" y="399.1904"/><rect fill="#FFFFFF" height="227.7838" style="stroke:#181818;stroke-width:1.1;" width="11" x="1258.4" y="468.0307"/><rect fill="#FFFFFF" height="34.4201" style="stroke:#181818;stroke-width:1.1;" width="11" x="1552.1" y="1073.3357"/><rect fill="#FFFFFF" height="227.7838" style="stroke:#181818;stroke-width:1.1;" width="11" x="1686.3" y="1142.176"/><polygon fill="#181818" points="432.3,188.2697,443.3,192.6697,432.3,197.0697,436.7,192.6697" style="stroke:#181818;stroke-width:1.1;"/><line style="stroke:#181818;stroke-width:1.1;" x1="60.5" x2="438.9" y1="192.6697" y2="192.6697"/><text fill="#000000" font-family="sans-serif" font-size="14.3" font-weight="bold" lengthAdjust="spacing" textLength="7.7" x="68.2" y="186.8808">1</text><text fill="#000000" font-family="sans-serif" font-size="14.3" lengthAdjust="spacing" textLength="292.6" x="80.3" y="186.8808">asks to assign team to an entry in the agenda</text><polygon fill="#181818" points="684.2,222.6898,695.2,227.0898,684.2,231.4898,688.6,227.0898" style="stroke:#181818;stroke-width:1.1;"/><line style="stroke:#181818;stroke-width:1.1;" x1="456.5" x2="690.8" y1="227.0898" y2="227.0898"/><text fill="#000000" font-family="sans-serif" font-size="14.3" font-weight="bold" lengthAdjust="spacing" textLength="7.7" x="464.2" y="221.3009">2</text><text fill="#000000" font-family="sans-serif" font-size="14.3" lengthAdjust="spacing" textLength="82.5" x="476.3" y="221.3009">getTaskList()</text><polygon fill="#181818" points="941.05,257.11,952.05,261.51,941.05,265.91,945.45,261.51" style="stroke:#181818;stroke-width:1.1;"/><line style="stroke:#181818;stroke-width:1.1;" x1="708.4" x2="947.65" y1="261.51" y2="261.51"/><text fill="#000000" font-family="sans-serif" font-size="14.3" font-weight="bold" lengthAdjust="spacing" textLength="7.7" x="716.1" y="255.721">3</text><text fill="#000000" font-family="sans-serif" font-size="14.3" lengthAdjust="spacing" textLength="82.5" x="728.2" y="255.721">getInstance()</text><polygon fill="#181818" points="720.5,291.5301,709.5,295.9301,720.5,300.3301,716.1,295.9301" style="stroke:#181818;stroke-width:1.1;"/><line style="stroke:#181818;stroke-width:1.1;stroke-dasharray:2.0,2.0;" x1="713.9" x2="958.65" y1="295.9301" y2="295.9301"/><text fill="#000000" font-family="sans-serif" font-size="14.3" font-weight="bold" lengthAdjust="spacing" textLength="7.7" x="727.1" y="290.1411">4</text><text fill="#000000" font-family="sans-serif" font-size="14.3" lengthAdjust="spacing" textLength="73.7" x="739.2" y="290.1411">repositories</text><polygon fill="#181818" points="1047.75,325.9502,1058.75,330.3502,1047.75,334.7502,1052.15,330.3502" style="stroke:#181818;stroke-width:1.1;"/><line style="stroke:#181818;stroke-width:1.1;" x1="708.4" x2="1054.35" y1="330.3502" y2="330.3502"/><text fill="#000000" font-family="sans-serif" font-size="14.3" font-weight="bold" lengthAdjust="spacing" textLength="7.7" x="716.1" y="324.5612">5</text><text fill="#000000" font-family="sans-serif" font-size="14.3" lengthAdjust="spacing" textLength="77" x="728.2" y="324.5612">getAgenda()</text><polygon fill="#181818" points="720.5,360.3703,709.5,364.7703,720.5,369.1703,716.1,364.7703" style="stroke:#181818;stroke-width:1.1;"/><line style="stroke:#181818;stroke-width:1.1;stroke-dasharray:2.0,2.0;" x1="713.9" x2="1065.35" y1="364.7703" y2="364.7703"/><text fill="#000000" font-family="sans-serif" font-size="14.3" font-weight="bold" lengthAdjust="spacing" textLength="7.7" x="727.1" y="358.9813">6</text><text fill="#000000" font-family="sans-serif" font-size="14.3" lengthAdjust="spacing" textLength="46.2" x="739.2" y="358.9813">agenda</text><polygon fill="#181818" points="1144,394.7904,1155,399.1904,1144,403.5904,1148.4,399.1904" style="stroke:#181818;stroke-width:1.1;"/><line style="stroke:#181818;stroke-width:1.1;" x1="708.4" x2="1150.6" y1="399.1904" y2="399.1904"/><text fill="#000000" font-family="sans-serif" font-size="14.3" font-weight="bold" lengthAdjust="spacing" textLength="7.7" x="716.1" y="393.4015">7</text><text fill="#000000" font-family="sans-serif" font-size="14.3" lengthAdjust="spacing" textLength="82.5" x="728.2" y="393.4015">getTaskList()</text><polygon fill="#181818" points="720.5,429.2105,709.5,433.6105,720.5,438.0105,716.1,433.6105" style="stroke:#181818;stroke-width:1.1;"/><line style="stroke:#181818;stroke-width:1.1;stroke-dasharray:2.0,2.0;" x1="713.9" x2="1161.6" y1="433.6105" y2="433.6105"/><text fill="#000000" font-family="sans-serif" font-size="14.3" font-weight="bold" lengthAdjust="spacing" textLength="7.7" x="727.1" y="427.8216">8</text><text fill="#000000" font-family="sans-serif" font-size="14.3" lengthAdjust="spacing" textLength="50.6" x="739.2" y="427.8216">taskList</text><polygon fill="#181818" points="1245.2,463.6307,1256.2,468.0307,1245.2,472.4307,1249.6,468.0307" style="stroke:#181818;stroke-width:1.1;"/><line style="stroke:#181818;stroke-width:1.1;" x1="708.4" x2="1251.8" y1="468.0307" y2="468.0307"/><text fill="#000000" font-family="sans-serif" font-size="14.3" font-weight="bold" lengthAdjust="spacing" textLength="7.7" x="716.1" y="462.2417">9</text><text fill="#000000" font-family="sans-serif" font-size="14.3" lengthAdjust="spacing" textLength="157.3" x="728.2" y="462.2417">getTaskDTOlist(taskList)</text><path d="M1199.55,484.5307 L1279.85,484.5307 L1279.85,494.7508 L1268.85,505.7508 L1199.55,505.7508 L1199.55,484.5307 " fill="#EEEEEE" style="stroke:#000000;stroke-width:1.6500000000000001;"/><rect fill="none" height="177.9637" style="stroke:#000000;stroke-width:1.6500000000000001;" width="527.45" x="1199.55" y="484.5307"/><text fill="#000000" font-family="sans-serif" font-size="14.3" font-weight="bold" lengthAdjust="spacing" textLength="30.8" x="1216.05" y="501.0618">loop</text><text fill="#000000" font-family="sans-serif" font-size="12.1" font-weight="bold" lengthAdjust="spacing" textLength="155.1" x="1296.35" y="499.7878">[for each task in taskList]</text><polygon fill="#181818" points="1379.4,526.9709,1390.4,531.3709,1379.4,535.7709,1383.8,531.3709" style="stroke:#181818;stroke-width:1.1;"/><line style="stroke:#181818;stroke-width:1.1;" x1="1269.4" x2="1386" y1="531.3709" y2="531.3709"/><text fill="#000000" font-family="sans-serif" font-size="14.3" font-weight="bold" lengthAdjust="spacing" textLength="15.4" x="1277.1" y="525.5819">10</text><text fill="#000000" font-family="sans-serif" font-size="14.3" lengthAdjust="spacing" textLength="77" x="1296.9" y="525.5819">toDTO(task)</text><rect fill="#E3E3E3" height="35.8832" rx="2.75" ry="2.75" style="stroke:#181818;stroke-width:0.55;" width="86.9" x="1392.6" y="505.7508"/><text fill="#000000" font-family="sans-serif" font-size="15.4" lengthAdjust="spacing" textLength="71.5" x="1400.3" y="530.0689">:TaskDTO</text><path d="M1441,559.234 L1441,607.634 L1716,607.634 L1716,570.234 L1705,559.234 L1441,559.234 " fill="#FAFAFA" style="stroke:#181818;stroke-width:0.55;"/><path d="M1705,559.234 L1705,570.234 L1716,570.234 L1705,559.234 " fill="#FAFAFA" style="stroke:#181818;stroke-width:0.55;"/><text fill="#000000" font-family="sans-serif" font-size="14.3" lengthAdjust="spacing" textLength="251.9" x="1447.6" y="580.1651">TaskDTO contains the title, description,</text><text fill="#000000" font-family="sans-serif" font-size="14.3" lengthAdjust="spacing" textLength="193.6" x="1452" y="599.1853">status and urgency of the task</text><line style="stroke:#181818;stroke-width:1.1;stroke-dasharray:2.0,2.0;" x1="1269.4" x2="1315.6" y1="639.3943" y2="639.3943"/><line style="stroke:#181818;stroke-width:1.1;stroke-dasharray:2.0,2.0;" x1="1315.6" x2="1315.6" y1="639.3943" y2="653.6943"/><line style="stroke:#181818;stroke-width:1.1;stroke-dasharray:2.0,2.0;" x1="1270.5" x2="1315.6" y1="653.6943" y2="653.6943"/><polygon fill="#181818" points="1281.5,649.2943,1270.5,653.6943,1281.5,658.0943,1277.1,653.6943" style="stroke:#181818;stroke-width:1.1;"/><text fill="#000000" font-family="sans-serif" font-size="14.3" font-weight="bold" lengthAdjust="spacing" textLength="15.4" x="1277.1" y="633.6054">11</text><text fill="#000000" font-family="sans-serif" font-size="14.3" lengthAdjust="spacing" textLength="91.3" x="1296.9" y="633.6054">add(TaskDTO)</text><polygon fill="#181818" points="720.5,691.4145,709.5,695.8145,720.5,700.2145,716.1,695.8145" style="stroke:#181818;stroke-width:1.1;"/><line style="stroke:#181818;stroke-width:1.1;stroke-dasharray:2.0,2.0;" x1="713.9" x2="1262.8" y1="695.8145" y2="695.8145"/><text fill="#000000" font-family="sans-serif" font-size="14.3" font-weight="bold" lengthAdjust="spacing" textLength="15.4" x="727.1" y="690.0255">12</text><text fill="#000000" font-family="sans-serif" font-size="14.3" lengthAdjust="spacing" textLength="79.2" x="746.9" y="690.0255">taskDTOList</text><polygon fill="#181818" points="468.6,725.8346,457.6,730.2346,468.6,734.6346,464.2,730.2346" style="stroke:#181818;stroke-width:1.1;"/><line style="stroke:#181818;stroke-width:1.1;stroke-dasharray:2.0,2.0;" x1="462" x2="701.8" y1="730.2346" y2="730.2346"/><text fill="#000000" font-family="sans-serif" font-size="14.3" font-weight="bold" lengthAdjust="spacing" textLength="15.4" x="475.2" y="724.4456">13</text><text fill="#000000" font-family="sans-serif" font-size="14.3" lengthAdjust="spacing" textLength="79.2" x="495" y="724.4456">taskDTOList</text><polygon fill="#181818" points="72.6,779.2748,61.6,783.6748,72.6,788.0748,68.2,783.6748" style="stroke:#181818;stroke-width:1.1;"/><line style="stroke:#181818;stroke-width:1.1;stroke-dasharray:2.0,2.0;" x1="66" x2="449.9" y1="783.6748" y2="783.6748"/><text fill="#000000" font-family="sans-serif" font-size="14.3" font-weight="bold" lengthAdjust="spacing" textLength="15.4" x="79.2" y="768.3758">14</text><text fill="#000000" font-family="sans-serif" font-size="14.3" lengthAdjust="spacing" textLength="253" x="99" y="758.8657">shows the list of taks in the agenda and</text><text fill="#000000" font-family="sans-serif" font-size="14.3" lengthAdjust="spacing" textLength="117.7" x="99" y="777.8858">asks to select one</text><polygon fill="#181818" points="432.3,813.6949,443.3,818.0949,432.3,822.4949,436.7,818.0949" style="stroke:#181818;stroke-width:1.1;"/><line style="stroke:#181818;stroke-width:1.1;" x1="60.5" x2="438.9" y1="818.0949" y2="818.0949"/><text fill="#000000" font-family="sans-serif" font-size="14.3" font-weight="bold" lengthAdjust="spacing" textLength="15.4" x="68.2" y="812.306">15</text><text fill="#000000" font-family="sans-serif" font-size="14.3" lengthAdjust="spacing" textLength="90.2" x="88" y="812.306">selects a task</text><line style="stroke:#181818;stroke-width:1.1;stroke-dasharray:2.0,2.0;" x1="456.5" x2="502.7" y1="852.515" y2="852.515"/><line style="stroke:#181818;stroke-width:1.1;stroke-dasharray:2.0,2.0;" x1="502.7" x2="502.7" y1="852.515" y2="866.815"/><line style="stroke:#181818;stroke-width:1.1;stroke-dasharray:2.0,2.0;" x1="457.6" x2="502.7" y1="866.815" y2="866.815"/><polygon fill="#181818" points="468.6,862.415,457.6,866.815,468.6,871.215,464.2,866.815" style="stroke:#181818;stroke-width:1.1;"/><text fill="#000000" font-family="sans-serif" font-size="14.3" font-weight="bold" lengthAdjust="spacing" textLength="15.4" x="464.2" y="846.7261">16</text><text fill="#000000" font-family="sans-serif" font-size="14.3" lengthAdjust="spacing" textLength="96.8" x="484" y="846.7261">keepData(task)</text><polygon fill="#181818" points="684.2,896.8352,695.2,901.2352,684.2,905.6352,688.6,901.2352" style="stroke:#181818;stroke-width:1.1;"/><line style="stroke:#181818;stroke-width:1.1;stroke-dasharray:2.0,2.0;" x1="456.5" x2="690.8" y1="901.2352" y2="901.2352"/><text fill="#000000" font-family="sans-serif" font-size="14.3" font-weight="bold" lengthAdjust="spacing" textLength="15.4" x="464.2" y="895.4462">17</text><text fill="#000000" font-family="sans-serif" font-size="14.3" lengthAdjust="spacing" textLength="86.9" x="484" y="895.4462">getTeamList()</text><polygon fill="#181818" points="941.05,931.2553,952.05,935.6553,941.05,940.0553,945.45,935.6553" style="stroke:#181818;stroke-width:1.1;"/><line style="stroke:#181818;stroke-width:1.1;" x1="708.4" x2="947.65" y1="935.6553" y2="935.6553"/><text fill="#000000" font-family="sans-serif" font-size="14.3" font-weight="bold" lengthAdjust="spacing" textLength="15.4" x="716.1" y="929.8663">18</text><text fill="#000000" font-family="sans-serif" font-size="14.3" lengthAdjust="spacing" textLength="82.5" x="735.9" y="929.8663">getInstance()</text><polygon fill="#181818" points="720.5,965.6754,709.5,970.0754,720.5,974.4754,716.1,970.0754" style="stroke:#181818;stroke-width:1.1;"/><line style="stroke:#181818;stroke-width:1.1;stroke-dasharray:2.0,2.0;" x1="713.9" x2="958.65" y1="970.0754" y2="970.0754"/><text fill="#000000" font-family="sans-serif" font-size="14.3" font-weight="bold" lengthAdjust="spacing" textLength="15.4" x="727.1" y="964.2864">19</text><text fill="#000000" font-family="sans-serif" font-size="14.3" lengthAdjust="spacing" textLength="73.7" x="746.9" y="964.2864">repositories</text><polygon fill="#181818" points="1047.75,1000.0955,1058.75,1004.4955,1047.75,1008.8955,1052.15,1004.4955" style="stroke:#181818;stroke-width:1.1;"/><line style="stroke:#181818;stroke-width:1.1;" x1="708.4" x2="1054.35" y1="1004.4955" y2="1004.4955"/><text fill="#000000" font-family="sans-serif" font-size="14.3" font-weight="bold" lengthAdjust="spacing" textLength="15.4" x="716.1" y="998.7065">20</text><text fill="#000000" font-family="sans-serif" font-size="14.3" lengthAdjust="spacing" textLength="132" x="735.9" y="998.7065">getTeamRepository()</text><polygon fill="#181818" points="720.5,1034.5156,709.5,1038.9156,720.5,1043.3156,716.1,1038.9156" style="stroke:#181818;stroke-width:1.1;"/><line style="stroke:#181818;stroke-width:1.1;stroke-dasharray:2.0,2.0;" x1="713.9" x2="1065.35" y1="1038.9156" y2="1038.9156"/><text fill="#000000" font-family="sans-serif" font-size="14.3" font-weight="bold" lengthAdjust="spacing" textLength="15.4" x="727.1" y="1033.1267">21</text><text fill="#000000" font-family="sans-serif" font-size="14.3" lengthAdjust="spacing" textLength="100.1" x="746.9" y="1033.1267">teamRepository</text><polygon fill="#181818" points="1538.9,1068.9357,1549.9,1073.3357,1538.9,1077.7357,1543.3,1073.3357" style="stroke:#181818;stroke-width:1.1;"/><line style="stroke:#181818;stroke-width:1.1;" x1="708.4" x2="1545.5" y1="1073.3357" y2="1073.3357"/><text fill="#000000" font-family="sans-serif" font-size="14.3" font-weight="bold" lengthAdjust="spacing" textLength="15.4" x="716.1" y="1067.5468">22</text><text fill="#000000" font-family="sans-serif" font-size="14.3" lengthAdjust="spacing" textLength="86.9" x="735.9" y="1067.5468">getTeamList()</text><polygon fill="#181818" points="720.5,1103.3559,709.5,1107.7559,720.5,1112.1559,716.1,1107.7559" style="stroke:#181818;stroke-width:1.1;"/><line style="stroke:#181818;stroke-width:1.1;stroke-dasharray:2.0,2.0;" x1="713.9" x2="1556.5" y1="1107.7559" y2="1107.7559"/><text fill="#000000" font-family="sans-serif" font-size="14.3" font-weight="bold" lengthAdjust="spacing" textLength="15.4" x="727.1" y="1101.9669">23</text><text fill="#000000" font-family="sans-serif" font-size="14.3" lengthAdjust="spacing" textLength="55" x="746.9" y="1101.9669">teamList</text><polygon fill="#181818" points="1673.1,1137.776,1684.1,1142.176,1673.1,1146.576,1677.5,1142.176" style="stroke:#181818;stroke-width:1.1;"/><line style="stroke:#181818;stroke-width:1.1;" x1="708.4" x2="1679.7" y1="1142.176" y2="1142.176"/><text fill="#000000" font-family="sans-serif" font-size="14.3" font-weight="bold" lengthAdjust="spacing" textLength="15.4" x="716.1" y="1136.387">24</text><text fill="#000000" font-family="sans-serif" font-size="14.3" lengthAdjust="spacing" textLength="166.1" x="735.9" y="1136.387">getTeamDTOlist(teamList)</text><path d="M1624.7,1158.676 L1705,1158.676 L1705,1168.8961 L1694,1179.8961 L1624.7,1179.8961 L1624.7,1158.676 " fill="#EEEEEE" style="stroke:#000000;stroke-width:1.6500000000000001;"/><rect fill="none" height="177.9637" style="stroke:#000000;stroke-width:1.6500000000000001;" width="506" x="1624.7" y="1158.676"/><text fill="#000000" font-family="sans-serif" font-size="14.3" font-weight="bold" lengthAdjust="spacing" textLength="30.8" x="1641.2" y="1175.2071">loop</text><text fill="#000000" font-family="sans-serif" font-size="12.1" font-weight="bold" lengthAdjust="spacing" textLength="187" x="1721.5" y="1173.9331">[for each team in the teamList]</text><polygon fill="#181818" points="1811.7,1201.1162,1822.7,1205.5162,1811.7,1209.9162,1816.1,1205.5162" style="stroke:#181818;stroke-width:1.1;"/><line style="stroke:#181818;stroke-width:1.1;" x1="1697.3" x2="1818.3" y1="1205.5162" y2="1205.5162"/><text fill="#000000" font-family="sans-serif" font-size="14.3" font-weight="bold" lengthAdjust="spacing" textLength="15.4" x="1705" y="1199.7272">25</text><text fill="#000000" font-family="sans-serif" font-size="14.3" lengthAdjust="spacing" textLength="81.4" x="1724.8" y="1199.7272">toDTO(team)</text><rect fill="#E3E3E3" height="35.8832" rx="2.75" ry="2.75" style="stroke:#181818;stroke-width:0.55;" width="92.4" x="1824.9" y="1179.8961"/><text fill="#000000" font-family="sans-serif" font-size="15.4" lengthAdjust="spacing" textLength="77" x="1832.6" y="1204.2143">:TeamDTO</text><path d="M1876.6,1233.3793 L1876.6,1281.7793 L2119.7,1281.7793 L2119.7,1244.3793 L2108.7,1233.3793 L1876.6,1233.3793 " fill="#FAFAFA" style="stroke:#181818;stroke-width:0.55;"/><path d="M2108.7,1233.3793 L2108.7,1244.3793 L2119.7,1244.3793 L2108.7,1233.3793 " fill="#FAFAFA" style="stroke:#181818;stroke-width:0.55;"/><text fill="#000000" font-family="sans-serif" font-size="14.3" lengthAdjust="spacing" textLength="220" x="1883.2" y="1254.3104">TeamDTO contains the name of all</text><text fill="#000000" font-family="sans-serif" font-size="14.3" lengthAdjust="spacing" textLength="159.5" x="1883.2" y="1273.3306">the members of the team</text><line style="stroke:#181818;stroke-width:1.1;stroke-dasharray:2.0,2.0;" x1="1697.3" x2="1743.5" y1="1313.5396" y2="1313.5396"/><line style="stroke:#181818;stroke-width:1.1;stroke-dasharray:2.0,2.0;" x1="1743.5" x2="1743.5" y1="1313.5396" y2="1327.8396"/><line style="stroke:#181818;stroke-width:1.1;stroke-dasharray:2.0,2.0;" x1="1698.4" x2="1743.5" y1="1327.8396" y2="1327.8396"/><polygon fill="#181818" points="1709.4,1323.4396,1698.4,1327.8396,1709.4,1332.2396,1705,1327.8396" style="stroke:#181818;stroke-width:1.1;"/><text fill="#000000" font-family="sans-serif" font-size="14.3" font-weight="bold" lengthAdjust="spacing" textLength="15.4" x="1705" y="1307.7507">26</text><text fill="#000000" font-family="sans-serif" font-size="14.3" lengthAdjust="spacing" textLength="95.7" x="1724.8" y="1307.7507">add(TeamDTO)</text><polygon fill="#181818" points="720.5,1365.5598,709.5,1369.9598,720.5,1374.3598,716.1,1369.9598" style="stroke:#181818;stroke-width:1.1;"/><line style="stroke:#181818;stroke-width:1.1;stroke-dasharray:2.0,2.0;" x1="713.9" x2="1690.7" y1="1369.9598" y2="1369.9598"/><text fill="#000000" font-family="sans-serif" font-size="14.3" font-weight="bold" lengthAdjust="spacing" textLength="15.4" x="727.1" y="1364.1708">27</text><text fill="#000000" font-family="sans-serif" font-size="14.3" lengthAdjust="spacing" textLength="83.6" x="746.9" y="1364.1708">teamDTOList</text><polygon fill="#181818" points="468.6,1399.9799,457.6,1404.3799,468.6,1408.7799,464.2,1404.3799" style="stroke:#181818;stroke-width:1.1;"/><line style="stroke:#181818;stroke-width:1.1;stroke-dasharray:2.0,2.0;" x1="462" x2="701.8" y1="1404.3799" y2="1404.3799"/><text fill="#000000" font-family="sans-serif" font-size="14.3" font-weight="bold" lengthAdjust="spacing" textLength="15.4" x="475.2" y="1398.5909">28</text><text fill="#000000" font-family="sans-serif" font-size="14.3" lengthAdjust="spacing" textLength="83.6" x="495" y="1398.5909">teamDTOList</text><polygon fill="#181818" points="72.6,1434.4,61.6,1438.8,72.6,1443.2,68.2,1438.8" style="stroke:#181818;stroke-width:1.1;"/><line style="stroke:#181818;stroke-width:1.1;stroke-dasharray:2.0,2.0;" x1="66" x2="449.9" y1="1438.8" y2="1438.8"/><text fill="#000000" font-family="sans-serif" font-size="14.3" font-weight="bold" lengthAdjust="spacing" textLength="15.4" x="79.2" y="1433.011">29</text><text fill="#000000" font-family="sans-serif" font-size="14.3" lengthAdjust="spacing" textLength="297" x="99" y="1433.011">shows the list of teams and asks to select one</text><polygon fill="#181818" points="432.3,1468.8201,443.3,1473.2201,432.3,1477.6201,436.7,1473.2201" style="stroke:#181818;stroke-width:1.1;"/><line style="stroke:#181818;stroke-width:1.1;" x1="60.5" x2="438.9" y1="1473.2201" y2="1473.2201"/><text fill="#000000" font-family="sans-serif" font-size="14.3" font-weight="bold" lengthAdjust="spacing" textLength="15.4" x="68.2" y="1467.4312">30</text><text fill="#000000" font-family="sans-serif" font-size="14.3" lengthAdjust="spacing" textLength="94.6" x="88" y="1467.4312">selects a team</text><line style="stroke:#181818;stroke-width:1.1;stroke-dasharray:2.0,2.0;" x1="456.5" x2="502.7" y1="1507.6402" y2="1507.6402"/><line style="stroke:#181818;stroke-width:1.1;stroke-dasharray:2.0,2.0;" x1="502.7" x2="502.7" y1="1507.6402" y2="1521.9402"/><line style="stroke:#181818;stroke-width:1.1;stroke-dasharray:2.0,2.0;" x1="457.6" x2="502.7" y1="1521.9402" y2="1521.9402"/><polygon fill="#181818" points="468.6,1517.5402,457.6,1521.9402,468.6,1526.3402,464.2,1521.9402" style="stroke:#181818;stroke-width:1.1;"/><text fill="#000000" font-family="sans-serif" font-size="14.3" font-weight="bold" lengthAdjust="spacing" textLength="15.4" x="464.2" y="1501.8513">31</text><text fill="#000000" font-family="sans-serif" font-size="14.3" lengthAdjust="spacing" textLength="101.2" x="484" y="1501.8513">keepData(team)</text><polygon fill="#181818" points="72.6,1570.9805,61.6,1575.3805,72.6,1579.7805,68.2,1575.3805" style="stroke:#181818;stroke-width:1.1;"/><line style="stroke:#181818;stroke-width:1.1;stroke-dasharray:2.0,2.0;" x1="66" x2="449.9" y1="1575.3805" y2="1575.3805"/><text fill="#000000" font-family="sans-serif" font-size="14.3" font-weight="bold" lengthAdjust="spacing" textLength="15.4" x="79.2" y="1560.0814">32</text><text fill="#000000" font-family="sans-serif" font-size="14.3" lengthAdjust="spacing" textLength="338.8" x="99" y="1550.5714">shows the task and the team about to be assigned to</text><text fill="#000000" font-family="sans-serif" font-size="14.3" lengthAdjust="spacing" textLength="215.6" x="99" y="1569.5915">that ask and asks for confirmation</text><polygon fill="#181818" points="432.3,1605.4006,443.3,1609.8006,432.3,1614.2006,436.7,1609.8006" style="stroke:#181818;stroke-width:1.1;"/><line style="stroke:#181818;stroke-width:1.1;" x1="60.5" x2="438.9" y1="1609.8006" y2="1609.8006"/><text fill="#000000" font-family="sans-serif" font-size="14.3" font-weight="bold" lengthAdjust="spacing" textLength="15.4" x="68.2" y="1604.0116">33</text><text fill="#000000" font-family="sans-serif" font-size="14.3" lengthAdjust="spacing" textLength="116.6" x="88" y="1604.0116">confirms operation</text><polygon fill="#181818" points="684.2,1639.8207,695.2,1644.2207,684.2,1648.6207,688.6,1644.2207" style="stroke:#181818;stroke-width:1.1;"/><line style="stroke:#181818;stroke-width:1.1;stroke-dasharray:2.0,2.0;" x1="456.5" x2="690.8" y1="1644.2207" y2="1644.2207"/><text fill="#000000" font-family="sans-serif" font-size="14.3" font-weight="bold" lengthAdjust="spacing" textLength="15.4" x="464.2" y="1638.4317">34</text><text fill="#000000" font-family="sans-serif" font-size="14.3" lengthAdjust="spacing" textLength="200.2" x="484" y="1638.4317">assignTeamToTask(task, team)</text><polygon fill="#181818" points="858,1674.2408,869,1678.6408,858,1683.0408,862.4,1678.6408" style="stroke:#181818;stroke-width:1.1;"/><line style="stroke:#181818;stroke-width:1.1;" x1="708.4" x2="864.6" y1="1678.6408" y2="1678.6408"/><text fill="#000000" font-family="sans-serif" font-size="14.3" font-weight="bold" lengthAdjust="spacing" textLength="15.4" x="716.1" y="1672.8519">35</text><text fill="#000000" font-family="sans-serif" font-size="14.3" lengthAdjust="spacing" textLength="95.7" x="735.9" y="1672.8519">setTeam(team)</text><polygon fill="#181818" points="720.5,1708.6609,709.5,1713.0609,720.5,1717.4609,716.1,1713.0609" style="stroke:#181818;stroke-width:1.1;"/><line style="stroke:#181818;stroke-width:1.1;stroke-dasharray:2.0,2.0;" x1="713.9" x2="875.6" y1="1713.0609" y2="1713.0609"/><text fill="#000000" font-family="sans-serif" font-size="14.3" font-weight="bold" lengthAdjust="spacing" textLength="15.4" x="727.1" y="1707.272">36</text><text fill="#000000" font-family="sans-serif" font-size="14.3" lengthAdjust="spacing" textLength="116.6" x="746.9" y="1707.272">operation success</text><polygon fill="#181818" points="468.6,1743.0811,457.6,1747.4811,468.6,1751.8811,464.2,1747.4811" style="stroke:#181818;stroke-width:1.1;"/><line style="stroke:#181818;stroke-width:1.1;stroke-dasharray:2.0,2.0;" x1="462" x2="701.8" y1="1747.4811" y2="1747.4811"/><text fill="#000000" font-family="sans-serif" font-size="14.3" font-weight="bold" lengthAdjust="spacing" textLength="15.4" x="475.2" y="1741.6921">37</text><text fill="#000000" font-family="sans-serif" font-size="14.3" lengthAdjust="spacing" textLength="116.6" x="495" y="1741.6921">operation success</text><polygon fill="#181818" points="67.1,1777.5012,56.1,1781.9012,67.1,1786.3012,62.7,1781.9012" style="stroke:#181818;stroke-width:1.1;"/><line style="stroke:#181818;stroke-width:1.1;stroke-dasharray:2.0,2.0;" x1="60.5" x2="449.9" y1="1781.9012" y2="1781.9012"/><text fill="#000000" font-family="sans-serif" font-size="14.3" font-weight="bold" lengthAdjust="spacing" textLength="15.4" x="73.7" y="1776.1122">38</text><text fill="#000000" font-family="sans-serif" font-size="14.3" lengthAdjust="spacing" textLength="161.7" x="93.5" y="1776.1122">shows operation success</text><!--SRC=[tLTDR-8m4BtpAqOzjLNx1pYiL9NL2gbLLuNUkBXX08jWPsEd5Vz-P-musC49skwUDXSI-ytupOUVZTbBLObQ7E2WbIvsjJuWsBh1YUbcAb7inHONzbWYr5XOeRPb330xiTQVKcrX8qg3aucLbg0B_DMWAX1cKcmPTxsOtS0zF9GMQoMi_41uKGGNZTMgERnZJU-5rJLS_QWH5IneQLofPw5e_VeAX84VY-S9hMfb8IkXB5nD7uoHMxL4SLZgfJ3xjxa3liqlu1wrihKkozRnu_BrARMm19gk56CTWbzwFb-nqaOIuwD3l7x_-P8YwW2GQ5OgXvyhGmajCBMZUDLQaCM3Ut5e_zfZmAIUHLMrKPm-CxZPygK3qNilMahCYHwjl4m6l24FdSNea367xZE3wpZuTrTm-I4ikie2FVGBzz-eVbF2xGrOJRzSEc2AxbC1KksE86biX-2JvOmxRrH-Dy3FsvmTSe6di4NBuJz9OwzlEaHdvhgW6-Q7HzYSutRceM2HUUB29IYPueT7uRwb0LE86oC1ht74Kqmcy72aV6-CKUhwB4ijpCOKexGEaClx32Gzfw6K9mJRrZwZviTZKhRrD4GhvoaGEcsEZXIrOCcyWji1Vj6sSe1Iwmes95IqyCvnShsOuyRFoJpGe7LlRoaQJIzkyPip8wLfuLfkTnRqfjkpa7dQEIX8qOHKncqAfy5tb1fJrBAoKgkxh35G2MrZQ5EjeQafUyMHrtCkMF3wS4glepOQP99iRgNr-hfbwGDbBvp4IrwYgfFjME7x9KgBxmHbm57a9Dt-h1jaI88qfJDEV_h4Sh-u30aIfqI1E8Sh5KJBO4bd9MZbKnMj4hIfKpeYvj5KXbFMOtoF4elZ7h6Q2IlQzkb3sinndvDi_czwbnvE_rRtqfFmw_eNJikX8gGA4uxMyntHplGfZcw6hBUOMAo3_YZsEjWw7c4veeDyFhSx8iimX1DfeLyxqa8QkAY5xTqXguL-BjL29UXMIuQYBBD6Z3aWNq1Dfttavm-qBmegIN3GFi_galQbNg9QNzA-Nba6j2_ZwAlQHwxyaV7NQXVoF7XpEvExf4FoFDs9pFH2AK6ywyOoqNTihvD8itgbx4vO270N3VSpjSz6rWV1v-R5WAO1Jjr3DJWPZSKKBbczVoLEpUyW3JAjKLpXmNkEIxBRsfajbHoQa-mP77FiWWBJ50KQCtO6ZpJWi9z-6mvND- -ZLvtea_zL_0O0]--></g></svg>