<?xml version="1.0" encoding="us-ascii" standalone="no"?><svg xmlns="http://www.w3.org/2000/svg" xmlns:xlink="http://www.w3.org/1999/xlink" contentStyleType="text/css" height="1489.6px" preserveAspectRatio="none" style="width:1215px;height:1489px;background:#FFFFFF;" version="1.1" viewBox="0 0 1215 1489" width="1215.9px" zoomAndPan="magnify"><defs/><g><text fill="#000000" font-family="sans-serif" font-size="9.8" font-weight="bold" lengthAdjust="spacing" textLength="108.5" x="548.8" y="17.5752">US023 - Class Diagram</text><!--cluster GUI--><g id="cluster_GUI"><path d="M332.15,31.9443 L350.35,31.9443 A2.625,2.625 0 0 1 352.1,33.6943 L357,49.1791 L669.55,49.1791 A1.75,1.75 0 0 1 671.3,50.9291 L671.3,179.2943 A1.75,1.75 0 0 1 669.55,181.0443 L332.15,181.0443 A1.75,1.75 0 0 1 330.4,179.2943 L330.4,33.6943 A1.75,1.75 0 0 1 332.15,31.9443 " fill="#DDDDDD" style="stroke:#000000;stroke-width:1.0499999999999998;"/><line style="stroke:#000000;stroke-width:1.0499999999999998;" x1="330.4" x2="357" y1="49.1791" y2="49.1791"/><text fill="#000000" font-family="sans-serif" font-size="9.8" font-weight="bold" lengthAdjust="spacing" textLength="17.5" x="333.2" y="43.9195">GUI</text></g><!--cluster Controller--><g id="cluster_Controller"><path d="M267.75,247.5443 L318.15,247.5443 A2.625,2.625 0 0 1 319.9,249.2943 L324.8,264.7791 L785.75,264.7791 A1.75,1.75 0 0 1 787.5,266.5291 L787.5,394.8943 A1.75,1.75 0 0 1 785.75,396.6443 L267.75,396.6443 A1.75,1.75 0 0 1 266,394.8943 L266,249.2943 A1.75,1.75 0 0 1 267.75,247.5443 " fill="#DDDDDD" style="stroke:#000000;stroke-width:1.0499999999999998;"/><line style="stroke:#000000;stroke-width:1.0499999999999998;" x1="266" x2="324.8" y1="264.7791" y2="264.7791"/><text fill="#000000" font-family="sans-serif" font-size="9.8" font-weight="bold" lengthAdjust="spacing" textLength="49.7" x="268.8" y="259.5195">Controller</text></g><!--cluster Repository--><g id="cluster_Repository"><path d="M5.95,707.4443 L59.85,707.4443 A2.625,2.625 0 0 1 61.6,709.1943 L66.5,724.6791 L743.75,724.6791 A1.75,1.75 0 0 1 745.5,726.4291 L745.5,1092.4443 A1.75,1.75 0 0 1 743.75,1094.1943 L5.95,1094.1943 A1.75,1.75 0 0 1 4.2,1092.4443 L4.2,709.1943 A1.75,1.75 0 0 1 5.95,707.4443 " fill="#DDDDDD" style="stroke:#000000;stroke-width:1.0499999999999998;"/><line style="stroke:#000000;stroke-width:1.0499999999999998;" x1="4.2" x2="66.5" y1="724.6791" y2="724.6791"/><text fill="#000000" font-family="sans-serif" font-size="9.8" font-weight="bold" lengthAdjust="spacing" textLength="53.2" x="7" y="719.4195">Repository</text></g><!--cluster Domain--><g id="cluster_Domain"><path d="M227.85,1129.8943 L264.95,1129.8943 A2.625,2.625 0 0 1 266.7,1131.6443 L271.6,1147.1291 L625.45,1147.1291 A1.75,1.75 0 0 1 627.2,1148.8791 L627.2,1483.0443 A1.75,1.75 0 0 1 625.45,1484.7943 L227.85,1484.7943 A1.75,1.75 0 0 1 226.1,1483.0443 L226.1,1131.6443 A1.75,1.75 0 0 1 227.85,1129.8943 " fill="#DDDDDD" style="stroke:#000000;stroke-width:1.0499999999999998;"/><line style="stroke:#000000;stroke-width:1.0499999999999998;" x1="226.1" x2="271.6" y1="1147.1291" y2="1147.1291"/><text fill="#000000" font-family="sans-serif" font-size="9.8" font-weight="bold" lengthAdjust="spacing" textLength="36.4" x="228.9" y="1141.8695">Domain</text></g><!--cluster Mapper--><g id="cluster_Mapper"><path d="M808.15,273.7943 L846.65,273.7943 A2.625,2.625 0 0 1 848.4,275.5443 L853.3,291.0291 L1136.45,291.0291 A1.75,1.75 0 0 1 1138.2,292.7791 L1138.2,368.6443 A1.75,1.75 0 0 1 1136.45,370.3943 L808.15,370.3943 A1.75,1.75 0 0 1 806.4,368.6443 L806.4,275.5443 A1.75,1.75 0 0 1 808.15,273.7943 " fill="#DDDDDD" style="stroke:#000000;stroke-width:1.0499999999999998;"/><line style="stroke:#000000;stroke-width:1.0499999999999998;" x1="806.4" x2="853.3" y1="291.0291" y2="291.0291"/><text fill="#000000" font-family="sans-serif" font-size="9.8" font-weight="bold" lengthAdjust="spacing" textLength="37.8" x="809.2" y="285.7695">Mapper</text></g><!--cluster DTO--><g id="cluster_DTO"><path d="M825.65,419.7443 L846.65,419.7443 A2.625,2.625 0 0 1 848.4,421.4943 L853.3,436.9791 L1209.25,436.9791 A1.75,1.75 0 0 1 1211,438.7291 L1211,975.5443 A1.75,1.75 0 0 1 1209.25,977.2943 L825.65,977.2943 A1.75,1.75 0 0 1 823.9,975.5443 L823.9,421.4943 A1.75,1.75 0 0 1 825.65,419.7443 " fill="#DDDDDD" style="stroke:#000000;stroke-width:1.0499999999999998;"/><line style="stroke:#000000;stroke-width:1.0499999999999998;" x1="823.9" x2="853.3" y1="436.9791" y2="436.9791"/><text fill="#000000" font-family="sans-serif" font-size="9.8" font-weight="bold" lengthAdjust="spacing" textLength="20.3" x="826.7" y="431.7195">DTO</text></g><!--class AgendaUI--><g id="elem_AgendaUI"><rect codeLine="12" fill="#F1F1F1" height="111.8086" id="AgendaUI" rx="1.75" ry="1.75" style="stroke:#181818;stroke-width:0.3499999999999999;" width="172.2" x="341.6" y="57.8443"/><ellipse cx="403.375" cy="69.0443" fill="#ADD1B2" rx="7.7" ry="7.7" style="stroke:#181818;stroke-width:0.6999999999999998;"/><path d="M405.3109,66.1568 Q405.4203,66.0037 405.5516,65.9271 Q405.6828,65.8506 405.8359,65.8506 Q406.0984,65.8506 406.2625,66.0365 Q406.4266,66.2115 406.4266,66.6381 L406.4266,67.6553 Q406.4266,68.0818 406.2625,68.2678 Q406.0984,68.4537 405.8359,68.4537 Q405.5953,68.4537 405.4531,68.3115 Q405.3109,68.1803 405.2344,67.8193 Q405.2016,67.5678 405.0703,67.4365 Q404.8406,67.174 404.4141,67.0209 Q403.9875,66.8678 403.55,66.8678 Q403.0141,66.8678 402.5656,67.0975 Q402.1281,67.3271 401.7781,67.8521 Q401.4391,68.3771 401.4391,69.099 L401.4391,69.8646 Q401.4391,70.7287 402.0625,71.3084 Q402.6859,71.8771 403.8016,71.8771 Q404.4578,71.8771 404.9172,71.7021 Q405.1906,71.5928 405.4859,71.2865 Q405.6719,71.1006 405.7703,71.0459 Q405.8797,70.9912 406.0219,70.9912 Q406.2516,70.9912 406.4266,71.1771 Q406.6125,71.3521 406.6125,71.5928 Q406.6125,71.8334 406.3719,72.1178 Q406.0219,72.5225 405.4641,72.7521 Q404.7094,73.0693 403.8016,73.0693 Q402.7406,73.0693 401.8984,72.6318 Q401.2094,72.2818 400.7281,71.5381 Q400.2469,70.7834 400.2469,69.8865 L400.2469,69.0771 Q400.2469,68.1475 400.6734,67.349 Q401.1109,66.5396 401.8766,66.1131 Q402.6422,65.6756 403.5062,65.6756 Q404.0203,65.6756 404.4687,65.7959 Q404.9281,65.9053 405.3109,66.1568 Z " fill="#000000"/><text fill="#000000" font-family="sans-serif" font-size="9.8" lengthAdjust="spacing" textLength="42.7" x="417.725" y="73.1021">AgendaUI</text><line style="stroke:#181818;stroke-width:0.3499999999999999;" x1="342.3" x2="513.1" y1="80.2443" y2="80.2443"/><text fill="#000000" font-family="sans-serif" font-size="9.8" lengthAdjust="spacing" textLength="114.8" x="345.8" y="93.6195">-TeamDTO selectedTeam</text><line style="stroke:#181818;stroke-width:0.3499999999999999;" x1="342.3" x2="513.1" y1="98.8791" y2="98.8791"/><text fill="#000000" font-family="sans-serif" font-size="9.8" lengthAdjust="spacing" textLength="130.9" x="345.8" y="112.2543">+initialize(location, resources)</text><text fill="#000000" font-family="sans-serif" font-size="9.8" lengthAdjust="spacing" textLength="66.5" x="345.8" y="125.2891">-fillTaskTable()</text><text fill="#000000" font-family="sans-serif" font-size="9.8" lengthAdjust="spacing" textLength="81.2" x="345.8" y="138.3238">+btnAssignTeam()</text><text fill="#000000" font-family="sans-serif" font-size="9.8" lengthAdjust="spacing" textLength="86.8" x="345.8" y="151.3586">-updateTableView()</text><text fill="#000000" font-family="sans-serif" font-size="9.8" lengthAdjust="spacing" textLength="163.8" x="345.8" y="164.3934">-validateSelectedTask(selectedTask)</text></g><!--class SelectTeamPopupUI--><g id="elem_SelectTeamPopupUI"><rect codeLine="21" fill="#F1F1F1" height="111.8086" id="SelectTeamPopupUI" rx="1.75" ry="1.75" style="stroke:#181818;stroke-width:0.3499999999999999;" width="121.1" x="538.65" y="57.8443"/><ellipse cx="553.245" cy="69.0443" fill="#ADD1B2" rx="7.7" ry="7.7" style="stroke:#181818;stroke-width:0.6999999999999998;"/><path d="M555.1809,66.1568 Q555.2903,66.0037 555.4216,65.9271 Q555.5528,65.8506 555.7059,65.8506 Q555.9684,65.8506 556.1325,66.0365 Q556.2966,66.2115 556.2966,66.6381 L556.2966,67.6553 Q556.2966,68.0818 556.1325,68.2678 Q555.9684,68.4537 555.7059,68.4537 Q555.4653,68.4537 555.3231,68.3115 Q555.1809,68.1803 555.1044,67.8193 Q555.0716,67.5678 554.9403,67.4365 Q554.7106,67.174 554.2841,67.0209 Q553.8575,66.8678 553.42,66.8678 Q552.8841,66.8678 552.4356,67.0975 Q551.9981,67.3271 551.6481,67.8521 Q551.3091,68.3771 551.3091,69.099 L551.3091,69.8646 Q551.3091,70.7287 551.9325,71.3084 Q552.5559,71.8771 553.6716,71.8771 Q554.3278,71.8771 554.7872,71.7021 Q555.0606,71.5928 555.3559,71.2865 Q555.5419,71.1006 555.6403,71.0459 Q555.7497,70.9912 555.8919,70.9912 Q556.1216,70.9912 556.2966,71.1771 Q556.4825,71.3521 556.4825,71.5928 Q556.4825,71.8334 556.2419,72.1178 Q555.8919,72.5225 555.3341,72.7521 Q554.5794,73.0693 553.6716,73.0693 Q552.6106,73.0693 551.7684,72.6318 Q551.0794,72.2818 550.5981,71.5381 Q550.1169,70.7834 550.1169,69.8865 L550.1169,69.0771 Q550.1169,68.1475 550.5434,67.349 Q550.9809,66.5396 551.7466,66.1131 Q552.5122,65.6756 553.3762,65.6756 Q553.8903,65.6756 554.3387,65.7959 Q554.7981,65.9053 555.1809,66.1568 Z " fill="#000000"/><text fill="#000000" font-family="sans-serif" font-size="9.8" lengthAdjust="spacing" textLength="89.6" x="563.955" y="73.1021">SelectTeamPopupUI</text><line style="stroke:#181818;stroke-width:0.3499999999999999;" x1="539.35" x2="659.05" y1="80.2443" y2="80.2443"/><text fill="#000000" font-family="sans-serif" font-size="9.8" lengthAdjust="spacing" textLength="112.7" x="542.85" y="93.6195">-TeamDTO teamSelected</text><line style="stroke:#181818;stroke-width:0.3499999999999999;" x1="539.35" x2="659.05" y1="98.8791" y2="98.8791"/><text fill="#000000" font-family="sans-serif" font-size="9.8" lengthAdjust="spacing" textLength="79.1" x="542.85" y="112.2543">+btnSelectTeam()</text><text fill="#000000" font-family="sans-serif" font-size="9.8" lengthAdjust="spacing" textLength="82.6" x="542.85" y="125.2891">-btnCancelAction()</text><text fill="#000000" font-family="sans-serif" font-size="9.8" lengthAdjust="spacing" textLength="42" x="542.85" y="138.3238">-closeUI()</text><text fill="#000000" font-family="sans-serif" font-size="9.8" lengthAdjust="spacing" textLength="90.3" x="542.85" y="151.3586">+getTeamSelected()</text><text fill="#000000" font-family="sans-serif" font-size="9.8" lengthAdjust="spacing" textLength="72.1" x="542.85" y="164.3934">+fillTeamTable()</text></g><!--class AssignTeamToEntryAgendaController--><g id="elem_AssignTeamToEntryAgendaController"><rect codeLine="34" fill="#F1F1F1" height="111.8086" id="AssignTeamToEntryAgendaController" rx="1.75" ry="1.75" style="stroke:#181818;stroke-width:0.3499999999999999;" width="308" x="468.3" y="273.4443"/><ellipse cx="535.675" cy="284.6443" fill="#ADD1B2" rx="7.7" ry="7.7" style="stroke:#181818;stroke-width:0.6999999999999998;"/><path d="M537.6109,281.7568 Q537.7203,281.6037 537.8516,281.5271 Q537.9828,281.4506 538.1359,281.4506 Q538.3984,281.4506 538.5625,281.6365 Q538.7266,281.8115 538.7266,282.2381 L538.7266,283.2553 Q538.7266,283.6818 538.5625,283.8678 Q538.3984,284.0537 538.1359,284.0537 Q537.8953,284.0537 537.7531,283.9115 Q537.6109,283.7803 537.5344,283.4193 Q537.5016,283.1678 537.3703,283.0365 Q537.1406,282.774 536.7141,282.6209 Q536.2875,282.4678 535.85,282.4678 Q535.3141,282.4678 534.8656,282.6975 Q534.4281,282.9271 534.0781,283.4521 Q533.7391,283.9771 533.7391,284.699 L533.7391,285.4646 Q533.7391,286.3287 534.3625,286.9084 Q534.9859,287.4771 536.1016,287.4771 Q536.7578,287.4771 537.2172,287.3021 Q537.4906,287.1928 537.7859,286.8865 Q537.9719,286.7006 538.0703,286.6459 Q538.1797,286.5912 538.3219,286.5912 Q538.5516,286.5912 538.7266,286.7771 Q538.9125,286.9521 538.9125,287.1928 Q538.9125,287.4334 538.6719,287.7178 Q538.3219,288.1225 537.7641,288.3521 Q537.0094,288.6693 536.1016,288.6693 Q535.0406,288.6693 534.1984,288.2318 Q533.5094,287.8818 533.0281,287.1381 Q532.5469,286.3834 532.5469,285.4865 L532.5469,284.6771 Q532.5469,283.7475 532.9734,282.949 Q533.4109,282.1396 534.1766,281.7131 Q534.9422,281.2756 535.8062,281.2756 Q536.3203,281.2756 536.7687,281.3959 Q537.2281,281.5053 537.6109,281.7568 Z " fill="#000000"/><text fill="#000000" font-family="sans-serif" font-size="9.8" lengthAdjust="spacing" textLength="167.3" x="550.025" y="288.7021">AssignTeamToEntryAgendaController</text><line style="stroke:#181818;stroke-width:0.3499999999999999;" x1="469" x2="775.6" y1="295.8443" y2="295.8443"/><line style="stroke:#181818;stroke-width:0.3499999999999999;" x1="469" x2="775.6" y1="301.4443" y2="301.4443"/><text fill="#000000" font-family="sans-serif" font-size="9.8" lengthAdjust="spacing" textLength="179.9" x="472.5" y="314.8195">+AssignTeamToEntryAgendaController()</text><text fill="#000000" font-family="sans-serif" font-size="9.8" lengthAdjust="spacing" textLength="108.5" x="472.5" y="327.8543">+getAgendaRepository()</text><text fill="#000000" font-family="sans-serif" font-size="9.8" lengthAdjust="spacing" textLength="137.2" x="472.5" y="340.8891">+getAuthenticationRepository()</text><text fill="#000000" font-family="sans-serif" font-size="9.8" lengthAdjust="spacing" textLength="99.4" x="472.5" y="353.9238">+getTeamRepository()</text><text fill="#000000" font-family="sans-serif" font-size="9.8" lengthAdjust="spacing" textLength="56.7" x="472.5" y="366.9586">+getTeams()</text><text fill="#000000" font-family="sans-serif" font-size="9.8" lengthAdjust="spacing" textLength="299.6" x="472.5" y="379.9934">+assignTeamToTaskAgenda(agendaTaskDTO, selectedTeamDTO)</text></g><!--class AgendaController--><g id="elem_AgendaController"><rect codeLine="43" fill="#F1F1F1" height="46.6348" id="AgendaController" rx="1.75" ry="1.75" style="stroke:#181818;stroke-width:0.3499999999999999;" width="166.6" x="277.2" y="305.9943"/><ellipse cx="318.675" cy="317.1943" fill="#ADD1B2" rx="7.7" ry="7.7" style="stroke:#181818;stroke-width:0.6999999999999998;"/><path d="M320.6109,314.3068 Q320.7203,314.1537 320.8516,314.0771 Q320.9828,314.0006 321.1359,314.0006 Q321.3984,314.0006 321.5625,314.1865 Q321.7266,314.3615 321.7266,314.7881 L321.7266,315.8053 Q321.7266,316.2318 321.5625,316.4178 Q321.3984,316.6037 321.1359,316.6037 Q320.8953,316.6037 320.7531,316.4615 Q320.6109,316.3303 320.5344,315.9693 Q320.5016,315.7178 320.3703,315.5865 Q320.1406,315.324 319.7141,315.1709 Q319.2875,315.0178 318.85,315.0178 Q318.3141,315.0178 317.8656,315.2475 Q317.4281,315.4771 317.0781,316.0021 Q316.7391,316.5271 316.7391,317.249 L316.7391,318.0146 Q316.7391,318.8787 317.3625,319.4584 Q317.9859,320.0271 319.1016,320.0271 Q319.7578,320.0271 320.2172,319.8521 Q320.4906,319.7428 320.7859,319.4365 Q320.9719,319.2506 321.0703,319.1959 Q321.1797,319.1412 321.3219,319.1412 Q321.5516,319.1412 321.7266,319.3271 Q321.9125,319.5021 321.9125,319.7428 Q321.9125,319.9834 321.6719,320.2678 Q321.3219,320.6725 320.7641,320.9021 Q320.0094,321.2193 319.1016,321.2193 Q318.0406,321.2193 317.1984,320.7818 Q316.5094,320.4318 316.0281,319.6881 Q315.5469,318.9334 315.5469,318.0365 L315.5469,317.2271 Q315.5469,316.2975 315.9734,315.499 Q316.4109,314.6896 317.1766,314.2631 Q317.9422,313.8256 318.8062,313.8256 Q319.3203,313.8256 319.7687,313.9459 Q320.2281,314.0553 320.6109,314.3068 Z " fill="#000000"/><text fill="#000000" font-family="sans-serif" font-size="9.8" lengthAdjust="spacing" textLength="77.7" x="333.025" y="321.2521">AgendaController</text><line style="stroke:#181818;stroke-width:0.3499999999999999;" x1="277.9" x2="443.1" y1="328.3943" y2="328.3943"/><line style="stroke:#181818;stroke-width:0.3499999999999999;" x1="277.9" x2="443.1" y1="333.9943" y2="333.9943"/><text fill="#000000" font-family="sans-serif" font-size="9.8" lengthAdjust="spacing" textLength="158.2" x="281.4" y="347.3695">+getAgendaTaskDTOManagerList()</text></g><!--class TeamRepository--><g id="elem_TeamRepository"><rect codeLine="52" fill="#F1F1F1" height="59.6695" id="TeamRepository" rx="1.75" ry="1.75" style="stroke:#181818;stroke-width:0.3499999999999999;" width="237.3" x="86.45" y="1016.8443"/><ellipse cx="165.725" cy="1028.0443" fill="#ADD1B2" rx="7.7" ry="7.7" style="stroke:#181818;stroke-width:0.6999999999999998;"/><path d="M167.6609,1025.1568 Q167.7703,1025.0037 167.9016,1024.9271 Q168.0328,1024.8506 168.1859,1024.8506 Q168.4484,1024.8506 168.6125,1025.0365 Q168.7766,1025.2115 168.7766,1025.6381 L168.7766,1026.6553 Q168.7766,1027.0818 168.6125,1027.2678 Q168.4484,1027.4537 168.1859,1027.4537 Q167.9453,1027.4537 167.8031,1027.3115 Q167.6609,1027.1803 167.5844,1026.8193 Q167.5516,1026.5678 167.4203,1026.4365 Q167.1906,1026.174 166.7641,1026.0209 Q166.3375,1025.8678 165.9,1025.8678 Q165.3641,1025.8678 164.9156,1026.0975 Q164.4781,1026.3271 164.1281,1026.8521 Q163.7891,1027.3771 163.7891,1028.099 L163.7891,1028.8646 Q163.7891,1029.7287 164.4125,1030.3084 Q165.0359,1030.8771 166.1516,1030.8771 Q166.8078,1030.8771 167.2672,1030.7021 Q167.5406,1030.5928 167.8359,1030.2865 Q168.0219,1030.1006 168.1203,1030.0459 Q168.2297,1029.9912 168.3719,1029.9912 Q168.6016,1029.9912 168.7766,1030.1771 Q168.9625,1030.3521 168.9625,1030.5928 Q168.9625,1030.8334 168.7219,1031.1178 Q168.3719,1031.5225 167.8141,1031.7521 Q167.0594,1032.0693 166.1516,1032.0693 Q165.0906,1032.0693 164.2484,1031.6318 Q163.5594,1031.2818 163.0781,1030.5381 Q162.5969,1029.7834 162.5969,1028.8865 L162.5969,1028.0771 Q162.5969,1027.1475 163.0234,1026.349 Q163.4609,1025.5396 164.2266,1025.1131 Q164.9922,1024.6756 165.8562,1024.6756 Q166.3703,1024.6756 166.8187,1024.7959 Q167.2781,1024.9053 167.6609,1025.1568 Z " fill="#000000"/><text fill="#000000" font-family="sans-serif" font-size="9.8" lengthAdjust="spacing" textLength="72.8" x="180.075" y="1032.1021">TeamRepository</text><line style="stroke:#181818;stroke-width:0.3499999999999999;" x1="87.15" x2="323.05" y1="1039.2443" y2="1039.2443"/><text fill="#000000" font-family="sans-serif" font-size="9.8" lengthAdjust="spacing" textLength="95.2" x="90.65" y="1052.6195">-List&lt;Team&gt; teamList</text><line style="stroke:#181818;stroke-width:0.3499999999999999;" x1="87.15" x2="323.05" y1="1057.8791" y2="1057.8791"/><text fill="#000000" font-family="sans-serif" font-size="9.8" lengthAdjust="spacing" textLength="228.9" x="90.65" y="1071.2543">+getTeamByTeamMemberEmails(collaboratorEmail)</text></g><!--class AgendaRepository--><g id="elem_AgendaRepository"><rect codeLine="58" fill="#F1F1F1" height="72.7043" id="AgendaRepository" rx="1.75" ry="1.75" style="stroke:#181818;stroke-width:0.3499999999999999;" width="385.7" x="348.25" y="1010.1943"/><ellipse cx="497.175" cy="1021.3943" fill="#ADD1B2" rx="7.7" ry="7.7" style="stroke:#181818;stroke-width:0.6999999999999998;"/><path d="M499.1109,1018.5068 Q499.2203,1018.3537 499.3516,1018.2771 Q499.4828,1018.2006 499.6359,1018.2006 Q499.8984,1018.2006 500.0625,1018.3865 Q500.2266,1018.5615 500.2266,1018.9881 L500.2266,1020.0053 Q500.2266,1020.4318 500.0625,1020.6178 Q499.8984,1020.8037 499.6359,1020.8037 Q499.3953,1020.8037 499.2531,1020.6615 Q499.1109,1020.5303 499.0344,1020.1693 Q499.0016,1019.9178 498.8703,1019.7865 Q498.6406,1019.524 498.2141,1019.3709 Q497.7875,1019.2178 497.35,1019.2178 Q496.8141,1019.2178 496.3656,1019.4475 Q495.9281,1019.6771 495.5781,1020.2021 Q495.2391,1020.7271 495.2391,1021.449 L495.2391,1022.2146 Q495.2391,1023.0787 495.8625,1023.6584 Q496.4859,1024.2271 497.6016,1024.2271 Q498.2578,1024.2271 498.7172,1024.0521 Q498.9906,1023.9428 499.2859,1023.6365 Q499.4719,1023.4506 499.5703,1023.3959 Q499.6797,1023.3412 499.8219,1023.3412 Q500.0516,1023.3412 500.2266,1023.5271 Q500.4125,1023.7021 500.4125,1023.9428 Q500.4125,1024.1834 500.1719,1024.4678 Q499.8219,1024.8725 499.2641,1025.1021 Q498.5094,1025.4193 497.6016,1025.4193 Q496.5406,1025.4193 495.6984,1024.9818 Q495.0094,1024.6318 494.5281,1023.8881 Q494.0469,1023.1334 494.0469,1022.2365 L494.0469,1021.4271 Q494.0469,1020.4975 494.4734,1019.699 Q494.9109,1018.8896 495.6766,1018.4631 Q496.4422,1018.0256 497.3062,1018.0256 Q497.8203,1018.0256 498.2687,1018.1459 Q498.7281,1018.2553 499.1109,1018.5068 Z " fill="#000000"/><text fill="#000000" font-family="sans-serif" font-size="9.8" lengthAdjust="spacing" textLength="81.9" x="511.525" y="1025.4521">AgendaRepository</text><line style="stroke:#181818;stroke-width:0.3499999999999999;" x1="348.95" x2="733.25" y1="1032.5943" y2="1032.5943"/><text fill="#000000" font-family="sans-serif" font-size="9.8" lengthAdjust="spacing" textLength="88.2" x="352.45" y="1045.9695">-List&lt;Task&gt; agenda</text><line style="stroke:#181818;stroke-width:0.3499999999999999;" x1="348.95" x2="733.25" y1="1051.2291" y2="1051.2291"/><text fill="#000000" font-family="sans-serif" font-size="9.8" lengthAdjust="spacing" textLength="197.4" x="352.45" y="1064.6043">+getManagerSpecificAgenda(managerEmail)</text><text fill="#000000" font-family="sans-serif" font-size="9.8" lengthAdjust="spacing" textLength="377.3" x="352.45" y="1077.6391">+assignTeamToTaskAgenda(title, greenSpaceName, workStartDate, status, teamObj)</text></g><!--class Repositories--><g id="elem_Repositories"><rect codeLine="65" fill="#F1F1F1" height="85.7391" id="Repositories" rx="1.75" ry="1.75" style="stroke:#181818;stroke-width:0.3499999999999999;" width="135.8" x="259" y="733.3443"/><ellipse cx="296.275" cy="744.5443" fill="#ADD1B2" rx="7.7" ry="7.7" style="stroke:#181818;stroke-width:0.6999999999999998;"/><path d="M298.2109,741.6568 Q298.3203,741.5037 298.4516,741.4271 Q298.5828,741.3506 298.7359,741.3506 Q298.9984,741.3506 299.1625,741.5365 Q299.3266,741.7115 299.3266,742.1381 L299.3266,743.1553 Q299.3266,743.5818 299.1625,743.7678 Q298.9984,743.9537 298.7359,743.9537 Q298.4953,743.9537 298.3531,743.8115 Q298.2109,743.6803 298.1344,743.3193 Q298.1016,743.0678 297.9703,742.9365 Q297.7406,742.674 297.3141,742.5209 Q296.8875,742.3678 296.45,742.3678 Q295.9141,742.3678 295.4656,742.5975 Q295.0281,742.8271 294.6781,743.3521 Q294.3391,743.8771 294.3391,744.599 L294.3391,745.3646 Q294.3391,746.2287 294.9625,746.8084 Q295.5859,747.3771 296.7016,747.3771 Q297.3578,747.3771 297.8172,747.2021 Q298.0906,747.0928 298.3859,746.7865 Q298.5719,746.6006 298.6703,746.5459 Q298.7797,746.4912 298.9219,746.4912 Q299.1516,746.4912 299.3266,746.6771 Q299.5125,746.8521 299.5125,747.0928 Q299.5125,747.3334 299.2719,747.6178 Q298.9219,748.0225 298.3641,748.2521 Q297.6094,748.5693 296.7016,748.5693 Q295.6406,748.5693 294.7984,748.1318 Q294.1094,747.7818 293.6281,747.0381 Q293.1469,746.2834 293.1469,745.3865 L293.1469,744.5771 Q293.1469,743.6475 293.5734,742.849 Q294.0109,742.0396 294.7766,741.6131 Q295.5422,741.1756 296.4062,741.1756 Q296.9203,741.1756 297.3687,741.2959 Q297.8281,741.4053 298.2109,741.6568 Z " fill="#000000"/><text fill="#000000" font-family="sans-serif" font-size="9.8" lengthAdjust="spacing" textLength="55.3" x="310.625" y="748.6021">Repositories</text><line style="stroke:#181818;stroke-width:0.3499999999999999;" x1="259.7" x2="394.1" y1="755.7443" y2="755.7443"/><line style="stroke:#181818;stroke-width:0.3499999999999999;" x1="259.7" x2="394.1" y1="761.3443" y2="761.3443"/><text fill="#000000" font-family="sans-serif" font-size="9.8" lengthAdjust="spacing" textLength="65.8" x="263.2" y="774.7195">-Repositories()</text><text fill="#000000" font-family="sans-serif" font-size="9.8" lengthAdjust="spacing" textLength="127.4" x="263.2" y="787.7543">+getInstance() : Repositories</text><text fill="#000000" font-family="sans-serif" font-size="9.8" lengthAdjust="spacing" textLength="99.4" x="263.2" y="800.7891">+getTeamRepository()</text><text fill="#000000" font-family="sans-serif" font-size="9.8" lengthAdjust="spacing" textLength="108.5" x="263.2" y="813.8238">+getAgendaRepository()</text></g><!--class ApplicationSession--><g id="elem_ApplicationSession"><rect codeLine="72" fill="#F1F1F1" height="85.7391" id="ApplicationSession" rx="1.75" ry="1.75" style="stroke:#181818;stroke-width:0.3499999999999999;" width="163.8" x="15.4" y="733.3443"/><ellipse cx="52.675" cy="744.5443" fill="#ADD1B2" rx="7.7" ry="7.7" style="stroke:#181818;stroke-width:0.6999999999999998;"/><path d="M54.6109,741.6568 Q54.7203,741.5037 54.8516,741.4271 Q54.9828,741.3506 55.1359,741.3506 Q55.3984,741.3506 55.5625,741.5365 Q55.7266,741.7115 55.7266,742.1381 L55.7266,743.1553 Q55.7266,743.5818 55.5625,743.7678 Q55.3984,743.9537 55.1359,743.9537 Q54.8953,743.9537 54.7531,743.8115 Q54.6109,743.6803 54.5344,743.3193 Q54.5016,743.0678 54.3703,742.9365 Q54.1406,742.674 53.7141,742.5209 Q53.2875,742.3678 52.85,742.3678 Q52.3141,742.3678 51.8656,742.5975 Q51.4281,742.8271 51.0781,743.3521 Q50.7391,743.8771 50.7391,744.599 L50.7391,745.3646 Q50.7391,746.2287 51.3625,746.8084 Q51.9859,747.3771 53.1016,747.3771 Q53.7578,747.3771 54.2172,747.2021 Q54.4906,747.0928 54.7859,746.7865 Q54.9719,746.6006 55.0703,746.5459 Q55.1797,746.4912 55.3219,746.4912 Q55.5516,746.4912 55.7266,746.6771 Q55.9125,746.8521 55.9125,747.0928 Q55.9125,747.3334 55.6719,747.6178 Q55.3219,748.0225 54.7641,748.2521 Q54.0094,748.5693 53.1016,748.5693 Q52.0406,748.5693 51.1984,748.1318 Q50.5094,747.7818 50.0281,747.0381 Q49.5469,746.2834 49.5469,745.3865 L49.5469,744.5771 Q49.5469,743.6475 49.9734,742.849 Q50.4109,742.0396 51.1766,741.6131 Q51.9422,741.1756 52.8062,741.1756 Q53.3203,741.1756 53.7687,741.2959 Q54.2281,741.4053 54.6109,741.6568 Z " fill="#000000"/><text fill="#000000" font-family="sans-serif" font-size="9.8" lengthAdjust="spacing" textLength="83.3" x="67.025" y="748.6021">ApplicationSession</text><line style="stroke:#181818;stroke-width:0.3499999999999999;" x1="16.1" x2="178.5" y1="755.7443" y2="755.7443"/><line style="stroke:#181818;stroke-width:0.3499999999999999;" x1="16.1" x2="178.5" y1="761.3443" y2="761.3443"/><text fill="#000000" font-family="sans-serif" font-size="9.8" lengthAdjust="spacing" textLength="93.8" x="19.6" y="774.7195">-ApplicationSession()</text><text fill="#000000" font-family="sans-serif" font-size="9.8" lengthAdjust="spacing" textLength="155.4" x="19.6" y="787.7543">+getInstance() : ApplicationSession</text><text fill="#000000" font-family="sans-serif" font-size="9.8" lengthAdjust="spacing" textLength="137.2" x="19.6" y="800.7891">+getAuthenticationRepository()</text><text fill="#000000" font-family="sans-serif" font-size="9.8" lengthAdjust="spacing" textLength="95.2" x="19.6" y="813.8238">+getCurrentSession()</text></g><!--class UserSession--><g id="elem_UserSession"><rect codeLine="80" fill="#F1F1F1" height="46.6348" id="UserSession" rx="1.75" ry="1.75" style="stroke:#181818;stroke-width:0.3499999999999999;" width="79.1" x="36.05" y="899.9443"/><ellipse cx="47.18" cy="911.1443" fill="#ADD1B2" rx="7.7" ry="7.7" style="stroke:#181818;stroke-width:0.6999999999999998;"/><path d="M49.1159,908.2568 Q49.2253,908.1037 49.3566,908.0271 Q49.4878,907.9506 49.6409,907.9506 Q49.9034,907.9506 50.0675,908.1365 Q50.2316,908.3115 50.2316,908.7381 L50.2316,909.7553 Q50.2316,910.1818 50.0675,910.3678 Q49.9034,910.5537 49.6409,910.5537 Q49.4003,910.5537 49.2581,910.4115 Q49.1159,910.2803 49.0394,909.9193 Q49.0066,909.6678 48.8753,909.5365 Q48.6456,909.274 48.2191,909.1209 Q47.7925,908.9678 47.355,908.9678 Q46.8191,908.9678 46.3706,909.1975 Q45.9331,909.4271 45.5831,909.9521 Q45.2441,910.4771 45.2441,911.199 L45.2441,911.9646 Q45.2441,912.8287 45.8675,913.4084 Q46.4909,913.9771 47.6066,913.9771 Q48.2628,913.9771 48.7222,913.8021 Q48.9956,913.6928 49.2909,913.3865 Q49.4769,913.2006 49.5753,913.1459 Q49.6847,913.0912 49.8269,913.0912 Q50.0566,913.0912 50.2316,913.2771 Q50.4175,913.4521 50.4175,913.6928 Q50.4175,913.9334 50.1769,914.2178 Q49.8269,914.6225 49.2691,914.8521 Q48.5144,915.1693 47.6066,915.1693 Q46.5456,915.1693 45.7034,914.7318 Q45.0144,914.3818 44.5331,913.6381 Q44.0519,912.8834 44.0519,911.9865 L44.0519,911.1771 Q44.0519,910.2475 44.4784,909.449 Q44.9159,908.6396 45.6816,908.2131 Q46.4472,907.7756 47.3112,907.7756 Q47.8253,907.7756 48.2737,907.8959 Q48.7331,908.0053 49.1159,908.2568 Z " fill="#000000"/><text fill="#000000" font-family="sans-serif" font-size="9.8" lengthAdjust="spacing" textLength="55.3" x="57.12" y="915.2021">UserSession</text><line style="stroke:#181818;stroke-width:0.3499999999999999;" x1="36.75" x2="114.45" y1="922.3443" y2="922.3443"/><line style="stroke:#181818;stroke-width:0.3499999999999999;" x1="36.75" x2="114.45" y1="927.9443" y2="927.9443"/><text fill="#000000" font-family="sans-serif" font-size="9.8" lengthAdjust="spacing" textLength="70.7" x="40.25" y="941.3195">+getUserEmail()</text></g><!--class Email--><g id="elem_Email"><rect codeLine="85" fill="#F1F1F1" height="33.6" id="Email" rx="1.75" ry="1.75" style="stroke:#181818;stroke-width:0.3499999999999999;" width="46.2" x="15.4" y="1029.7943"/><ellipse cx="25.9" cy="1040.9943" fill="#ADD1B2" rx="7.7" ry="7.7" style="stroke:#181818;stroke-width:0.6999999999999998;"/><path d="M27.8359,1038.1068 Q27.9453,1037.9537 28.0766,1037.8771 Q28.2078,1037.8006 28.3609,1037.8006 Q28.6234,1037.8006 28.7875,1037.9865 Q28.9516,1038.1615 28.9516,1038.5881 L28.9516,1039.6053 Q28.9516,1040.0318 28.7875,1040.2178 Q28.6234,1040.4037 28.3609,1040.4037 Q28.1203,1040.4037 27.9781,1040.2615 Q27.8359,1040.1303 27.7594,1039.7693 Q27.7266,1039.5178 27.5953,1039.3865 Q27.3656,1039.124 26.9391,1038.9709 Q26.5125,1038.8178 26.075,1038.8178 Q25.5391,1038.8178 25.0906,1039.0475 Q24.6531,1039.2771 24.3031,1039.8021 Q23.9641,1040.3271 23.9641,1041.049 L23.9641,1041.8146 Q23.9641,1042.6787 24.5875,1043.2584 Q25.2109,1043.8271 26.3266,1043.8271 Q26.9828,1043.8271 27.4422,1043.6521 Q27.7156,1043.5428 28.0109,1043.2365 Q28.1969,1043.0506 28.2953,1042.9959 Q28.4047,1042.9412 28.5469,1042.9412 Q28.7766,1042.9412 28.9516,1043.1271 Q29.1375,1043.3021 29.1375,1043.5428 Q29.1375,1043.7834 28.8969,1044.0678 Q28.5469,1044.4725 27.9891,1044.7021 Q27.2344,1045.0193 26.3266,1045.0193 Q25.2656,1045.0193 24.4234,1044.5818 Q23.7344,1044.2318 23.2531,1043.4881 Q22.7719,1042.7334 22.7719,1041.8365 L22.7719,1041.0271 Q22.7719,1040.0975 23.1984,1039.299 Q23.6359,1038.4896 24.4016,1038.0631 Q25.1672,1037.6256 26.0312,1037.6256 Q26.5453,1037.6256 26.9937,1037.7459 Q27.4531,1037.8553 27.8359,1038.1068 Z " fill="#000000"/><text fill="#000000" font-family="sans-serif" font-size="9.8" lengthAdjust="spacing" textLength="23.8" x="35.7" y="1045.0521">Email</text><line style="stroke:#181818;stroke-width:0.3499999999999999;" x1="16.1" x2="60.9" y1="1052.1943" y2="1052.1943"/><line style="stroke:#181818;stroke-width:0.3499999999999999;" x1="16.1" x2="60.9" y1="1057.7943" y2="1057.7943"/></g><!--class Team--><g id="elem_Team"><rect codeLine="93" fill="#F1F1F1" height="46.6348" id="Team" rx="1.75" ry="1.75" style="stroke:#181818;stroke-width:0.3499999999999999;" width="136.5" x="237.65" y="1201.2943"/><ellipse cx="290.325" cy="1212.4943" fill="#ADD1B2" rx="7.7" ry="7.7" style="stroke:#181818;stroke-width:0.6999999999999998;"/><path d="M292.2609,1209.6068 Q292.3703,1209.4537 292.5016,1209.3771 Q292.6328,1209.3006 292.7859,1209.3006 Q293.0484,1209.3006 293.2125,1209.4865 Q293.3766,1209.6615 293.3766,1210.0881 L293.3766,1211.1053 Q293.3766,1211.5318 293.2125,1211.7178 Q293.0484,1211.9037 292.7859,1211.9037 Q292.5453,1211.9037 292.4031,1211.7615 Q292.2609,1211.6303 292.1844,1211.2693 Q292.1516,1211.0178 292.0203,1210.8865 Q291.7906,1210.624 291.3641,1210.4709 Q290.9375,1210.3178 290.5,1210.3178 Q289.9641,1210.3178 289.5156,1210.5475 Q289.0781,1210.7771 288.7281,1211.3021 Q288.3891,1211.8271 288.3891,1212.549 L288.3891,1213.3146 Q288.3891,1214.1787 289.0125,1214.7584 Q289.6359,1215.3271 290.7516,1215.3271 Q291.4078,1215.3271 291.8672,1215.1521 Q292.1406,1215.0428 292.4359,1214.7365 Q292.6219,1214.5506 292.7203,1214.4959 Q292.8297,1214.4412 292.9719,1214.4412 Q293.2016,1214.4412 293.3766,1214.6271 Q293.5625,1214.8021 293.5625,1215.0428 Q293.5625,1215.2834 293.3219,1215.5678 Q292.9719,1215.9725 292.4141,1216.2021 Q291.6594,1216.5193 290.7516,1216.5193 Q289.6906,1216.5193 288.8484,1216.0818 Q288.1594,1215.7318 287.6781,1214.9881 Q287.1969,1214.2334 287.1969,1213.3365 L287.1969,1212.5271 Q287.1969,1211.5975 287.6234,1210.799 Q288.0609,1209.9896 288.8266,1209.5631 Q289.5922,1209.1256 290.4562,1209.1256 Q290.9703,1209.1256 291.4187,1209.2459 Q291.8781,1209.3553 292.2609,1209.6068 Z " fill="#000000"/><text fill="#000000" font-family="sans-serif" font-size="9.8" lengthAdjust="spacing" textLength="25.2" x="304.675" y="1216.5521">Team</text><line style="stroke:#181818;stroke-width:0.3499999999999999;" x1="238.35" x2="373.45" y1="1223.6943" y2="1223.6943"/><text fill="#000000" font-family="sans-serif" font-size="9.8" lengthAdjust="spacing" textLength="128.1" x="241.85" y="1237.0695">-List&lt;Collaborator&gt; members</text><line style="stroke:#181818;stroke-width:0.3499999999999999;" x1="238.35" x2="373.45" y1="1242.3291" y2="1242.3291"/></g><!--class Task--><g id="elem_Task"><rect codeLine="97" fill="#F1F1F1" height="137.8781" id="Task" rx="1.75" ry="1.75" style="stroke:#181818;stroke-width:0.3499999999999999;" width="217" x="399" y="1155.7943"/><ellipse cx="493.675" cy="1166.9943" fill="#ADD1B2" rx="7.7" ry="7.7" style="stroke:#181818;stroke-width:0.6999999999999998;"/><path d="M495.6109,1164.1068 Q495.7203,1163.9537 495.8516,1163.8771 Q495.9828,1163.8006 496.1359,1163.8006 Q496.3984,1163.8006 496.5625,1163.9865 Q496.7266,1164.1615 496.7266,1164.5881 L496.7266,1165.6053 Q496.7266,1166.0318 496.5625,1166.2178 Q496.3984,1166.4037 496.1359,1166.4037 Q495.8953,1166.4037 495.7531,1166.2615 Q495.6109,1166.1303 495.5344,1165.7693 Q495.5016,1165.5178 495.3703,1165.3865 Q495.1406,1165.124 494.7141,1164.9709 Q494.2875,1164.8178 493.85,1164.8178 Q493.3141,1164.8178 492.8656,1165.0475 Q492.4281,1165.2771 492.0781,1165.8021 Q491.7391,1166.3271 491.7391,1167.049 L491.7391,1167.8146 Q491.7391,1168.6787 492.3625,1169.2584 Q492.9859,1169.8271 494.1016,1169.8271 Q494.7578,1169.8271 495.2172,1169.6521 Q495.4906,1169.5428 495.7859,1169.2365 Q495.9719,1169.0506 496.0703,1168.9959 Q496.1797,1168.9412 496.3219,1168.9412 Q496.5516,1168.9412 496.7266,1169.1271 Q496.9125,1169.3021 496.9125,1169.5428 Q496.9125,1169.7834 496.6719,1170.0678 Q496.3219,1170.4725 495.7641,1170.7021 Q495.0094,1171.0193 494.1016,1171.0193 Q493.0406,1171.0193 492.1984,1170.5818 Q491.5094,1170.2318 491.0281,1169.4881 Q490.5469,1168.7334 490.5469,1167.8365 L490.5469,1167.0271 Q490.5469,1166.0975 490.9734,1165.299 Q491.4109,1164.4896 492.1766,1164.0631 Q492.9422,1163.6256 493.8062,1163.6256 Q494.3203,1163.6256 494.7687,1163.7459 Q495.2281,1163.8553 495.6109,1164.1068 Z " fill="#000000"/><text fill="#000000" font-family="sans-serif" font-size="9.8" lengthAdjust="spacing" textLength="21.7" x="508.025" y="1171.0521">Task</text><line style="stroke:#181818;stroke-width:0.3499999999999999;" x1="399.7" x2="615.3" y1="1178.1943" y2="1178.1943"/><text fill="#000000" font-family="sans-serif" font-size="9.8" lengthAdjust="spacing" textLength="50.4" x="403.2" y="1191.5695">-String title;</text><text fill="#000000" font-family="sans-serif" font-size="9.8" lengthAdjust="spacing" textLength="83.3" x="403.2" y="1204.6043">-String description;</text><text fill="#000000" font-family="sans-serif" font-size="9.8" lengthAdjust="spacing" textLength="93.8" x="403.2" y="1217.6391">-TaskType taskType;</text><text fill="#000000" font-family="sans-serif" font-size="9.8" lengthAdjust="spacing" textLength="63.7" x="403.2" y="1230.6738">-Status status;</text><text fill="#000000" font-family="sans-serif" font-size="9.8" lengthAdjust="spacing" textLength="8.4" x="403.2" y="1243.7086">...</text><line style="stroke:#181818;stroke-width:0.3499999999999999;" x1="399.7" x2="615.3" y1="1248.9682" y2="1248.9682"/><text fill="#000000" font-family="sans-serif" font-size="9.8" lengthAdjust="spacing" textLength="208.6" x="403.2" y="1262.3434">+Task(title, description, taskType, greenSpace,</text><text fill="#000000" font-family="sans-serif" font-size="9.8" lengthAdjust="spacing" textLength="136.5" x="403.2" y="1275.3781">urgency, days, hours, minutes)</text><text fill="#000000" font-family="sans-serif" font-size="9.8" lengthAdjust="spacing" textLength="15.4" x="403.2" y="1288.4129">(...)</text></g><!--class TaskDuration--><g id="elem_TaskDuration"><rect codeLine="108" fill="#F1F1F1" height="124.8434" id="TaskDuration" rx="1.75" ry="1.75" style="stroke:#181818;stroke-width:0.3499999999999999;" width="204.4" x="405.3" y="1348.9943"/><ellipse cx="474.775" cy="1360.1943" fill="#ADD1B2" rx="7.7" ry="7.7" style="stroke:#181818;stroke-width:0.6999999999999998;"/><path d="M476.7109,1357.3068 Q476.8203,1357.1537 476.9516,1357.0771 Q477.0828,1357.0006 477.2359,1357.0006 Q477.4984,1357.0006 477.6625,1357.1865 Q477.8266,1357.3615 477.8266,1357.7881 L477.8266,1358.8053 Q477.8266,1359.2318 477.6625,1359.4178 Q477.4984,1359.6037 477.2359,1359.6037 Q476.9953,1359.6037 476.8531,1359.4615 Q476.7109,1359.3303 476.6344,1358.9693 Q476.6016,1358.7178 476.4703,1358.5865 Q476.2406,1358.324 475.8141,1358.1709 Q475.3875,1358.0178 474.95,1358.0178 Q474.4141,1358.0178 473.9656,1358.2475 Q473.5281,1358.4771 473.1781,1359.0021 Q472.8391,1359.5271 472.8391,1360.249 L472.8391,1361.0146 Q472.8391,1361.8787 473.4625,1362.4584 Q474.0859,1363.0271 475.2016,1363.0271 Q475.8578,1363.0271 476.3172,1362.8521 Q476.5906,1362.7428 476.8859,1362.4365 Q477.0719,1362.2506 477.1703,1362.1959 Q477.2797,1362.1412 477.4219,1362.1412 Q477.6516,1362.1412 477.8266,1362.3271 Q478.0125,1362.5021 478.0125,1362.7428 Q478.0125,1362.9834 477.7719,1363.2678 Q477.4219,1363.6725 476.8641,1363.9021 Q476.1094,1364.2193 475.2016,1364.2193 Q474.1406,1364.2193 473.2984,1363.7818 Q472.6094,1363.4318 472.1281,1362.6881 Q471.6469,1361.9334 471.6469,1361.0365 L471.6469,1360.2271 Q471.6469,1359.2975 472.0734,1358.499 Q472.5109,1357.6896 473.2766,1357.2631 Q474.0422,1356.8256 474.9062,1356.8256 Q475.4203,1356.8256 475.8687,1356.9459 Q476.3281,1357.0553 476.7109,1357.3068 Z " fill="#000000"/><text fill="#000000" font-family="sans-serif" font-size="9.8" lengthAdjust="spacing" textLength="59.5" x="489.125" y="1364.2521">TaskDuration</text><line style="stroke:#181818;stroke-width:0.3499999999999999;" x1="406" x2="609" y1="1371.3943" y2="1371.3943"/><text fill="#000000" font-family="sans-serif" font-size="9.8" lengthAdjust="spacing" textLength="40.6" x="409.5" y="1384.7695">-int days;</text><text fill="#000000" font-family="sans-serif" font-size="9.8" lengthAdjust="spacing" textLength="44.8" x="409.5" y="1397.8043">-int hours;</text><text fill="#000000" font-family="sans-serif" font-size="9.8" lengthAdjust="spacing" textLength="53.9" x="409.5" y="1410.8391">-int minutes;</text><text fill="#000000" font-family="sans-serif" font-size="9.8" lengthAdjust="spacing" textLength="110.6" x="409.5" y="1423.8738">-int totalDurationMinutes;</text><line style="stroke:#181818;stroke-width:0.3499999999999999;" x1="406" x2="609" y1="1429.1334" y2="1429.1334"/><text fill="#000000" font-family="sans-serif" font-size="9.8" lengthAdjust="spacing" textLength="163.8" x="409.5" y="1442.5086">+TaskDuration(days, hours, minutes)</text><text fill="#000000" font-family="sans-serif" font-size="9.8" lengthAdjust="spacing" textLength="177.1" x="409.5" y="1455.5434">+setTaskDuration(days, hours, minutes)</text><text fill="#000000" font-family="sans-serif" font-size="9.8" lengthAdjust="spacing" textLength="196" x="409.5" y="1468.5781">-validateTaskDuration(days, hours, minutes)</text></g><!--class AgendaMapper--><g id="elem_AgendaMapper"><rect codeLine="125" fill="#F1F1F1" height="59.6695" id="AgendaMapper" rx="1.75" ry="1.75" style="stroke:#181818;stroke-width:0.3499999999999999;" width="309.4" x="817.6" y="299.6943"/><ellipse cx="935.375" cy="310.8943" fill="#ADD1B2" rx="7.7" ry="7.7" style="stroke:#181818;stroke-width:0.6999999999999998;"/><path d="M937.3109,308.0068 Q937.4203,307.8537 937.5516,307.7771 Q937.6828,307.7006 937.8359,307.7006 Q938.0984,307.7006 938.2625,307.8865 Q938.4266,308.0615 938.4266,308.4881 L938.4266,309.5053 Q938.4266,309.9318 938.2625,310.1178 Q938.0984,310.3037 937.8359,310.3037 Q937.5953,310.3037 937.4531,310.1615 Q937.3109,310.0303 937.2344,309.6693 Q937.2016,309.4178 937.0703,309.2865 Q936.8406,309.024 936.4141,308.8709 Q935.9875,308.7178 935.55,308.7178 Q935.0141,308.7178 934.5656,308.9475 Q934.1281,309.1771 933.7781,309.7021 Q933.4391,310.2271 933.4391,310.949 L933.4391,311.7146 Q933.4391,312.5787 934.0625,313.1584 Q934.6859,313.7271 935.8016,313.7271 Q936.4578,313.7271 936.9172,313.5521 Q937.1906,313.4428 937.4859,313.1365 Q937.6719,312.9506 937.7703,312.8959 Q937.8797,312.8412 938.0219,312.8412 Q938.2516,312.8412 938.4266,313.0271 Q938.6125,313.2021 938.6125,313.4428 Q938.6125,313.6834 938.3719,313.9678 Q938.0219,314.3725 937.4641,314.6021 Q936.7094,314.9193 935.8016,314.9193 Q934.7406,314.9193 933.8984,314.4818 Q933.2094,314.1318 932.7281,313.3881 Q932.2469,312.6334 932.2469,311.7365 L932.2469,310.9271 Q932.2469,309.9975 932.6734,309.199 Q933.1109,308.3896 933.8766,307.9631 Q934.6422,307.5256 935.5062,307.5256 Q936.0203,307.5256 936.4687,307.6459 Q936.9281,307.7553 937.3109,308.0068 Z " fill="#000000"/><text fill="#000000" font-family="sans-serif" font-size="9.8" lengthAdjust="spacing" textLength="67.9" x="949.725" y="314.9521">AgendaMapper</text><line style="stroke:#181818;stroke-width:0.3499999999999999;" x1="818.3" x2="1126.3" y1="322.0943" y2="322.0943"/><line style="stroke:#181818;stroke-width:0.3499999999999999;" x1="818.3" x2="1126.3" y1="327.6943" y2="327.6943"/><text fill="#000000" font-family="sans-serif" font-size="9.8" lengthAdjust="spacing" textLength="80.5" x="821.8" y="341.0695">+AgendaMapper()</text><text fill="#000000" font-family="sans-serif" font-size="9.8" lengthAdjust="spacing" textLength="301" x="821.8" y="354.1043">+toDTO(agendaTask, teamDTO, List&lt;VehicleDTO&gt; vehicleDTOList)</text></g><!--class AgendaTaskDTO--><g id="elem_AgendaTaskDTO"><rect codeLine="135" fill="#F1F1F1" height="229.1215" id="AgendaTaskDTO" rx="1.75" ry="1.75" style="stroke:#181818;stroke-width:0.3499999999999999;" width="279.3" x="835.45" y="445.6443"/><ellipse cx="933.625" cy="456.8443" fill="#ADD1B2" rx="7.7" ry="7.7" style="stroke:#181818;stroke-width:0.6999999999999998;"/><path d="M935.5609,453.9568 Q935.6703,453.8037 935.8016,453.7271 Q935.9328,453.6506 936.0859,453.6506 Q936.3484,453.6506 936.5125,453.8365 Q936.6766,454.0115 936.6766,454.4381 L936.6766,455.4553 Q936.6766,455.8818 936.5125,456.0678 Q936.3484,456.2537 936.0859,456.2537 Q935.8453,456.2537 935.7031,456.1115 Q935.5609,455.9803 935.4844,455.6193 Q935.4516,455.3678 935.3203,455.2365 Q935.0906,454.974 934.6641,454.8209 Q934.2375,454.6678 933.8,454.6678 Q933.2641,454.6678 932.8156,454.8975 Q932.3781,455.1271 932.0281,455.6521 Q931.6891,456.1771 931.6891,456.899 L931.6891,457.6646 Q931.6891,458.5287 932.3125,459.1084 Q932.9359,459.6771 934.0516,459.6771 Q934.7078,459.6771 935.1672,459.5021 Q935.4406,459.3928 935.7359,459.0865 Q935.9219,458.9006 936.0203,458.8459 Q936.1297,458.7912 936.2719,458.7912 Q936.5016,458.7912 936.6766,458.9771 Q936.8625,459.1521 936.8625,459.3928 Q936.8625,459.6334 936.6219,459.9178 Q936.2719,460.3225 935.7141,460.5521 Q934.9594,460.8693 934.0516,460.8693 Q932.9906,460.8693 932.1484,460.4318 Q931.4594,460.0818 930.9781,459.3381 Q930.4969,458.5834 930.4969,457.6865 L930.4969,456.8771 Q930.4969,455.9475 930.9234,455.149 Q931.3609,454.3396 932.1266,453.9131 Q932.8922,453.4756 933.7562,453.4756 Q934.2703,453.4756 934.7187,453.5959 Q935.1781,453.7053 935.5609,453.9568 Z " fill="#000000"/><text fill="#000000" font-family="sans-serif" font-size="9.8" lengthAdjust="spacing" textLength="77" x="947.975" y="460.9021">AgendaTaskDTO</text><line style="stroke:#181818;stroke-width:0.3499999999999999;" x1="836.15" x2="1114.05" y1="468.0443" y2="468.0443"/><text fill="#000000" font-family="sans-serif" font-size="9.8" lengthAdjust="spacing" textLength="52.5" x="839.65" y="481.4195">+String title;</text><text fill="#000000" font-family="sans-serif" font-size="9.8" lengthAdjust="spacing" textLength="85.4" x="839.65" y="494.4543">+String description;</text><text fill="#000000" font-family="sans-serif" font-size="9.8" lengthAdjust="spacing" textLength="95.9" x="839.65" y="507.4891">+TaskType taskType;</text><text fill="#000000" font-family="sans-serif" font-size="9.8" lengthAdjust="spacing" textLength="116.2" x="839.65" y="520.5238">+String greenSpaceName;</text><text fill="#000000" font-family="sans-serif" font-size="9.8" lengthAdjust="spacing" textLength="105.7" x="839.65" y="533.5586">+UrgencyType urgency;</text><text fill="#000000" font-family="sans-serif" font-size="9.8" lengthAdjust="spacing" textLength="99.4" x="839.65" y="546.5934">+int expectedDuration;</text><text fill="#000000" font-family="sans-serif" font-size="9.8" lengthAdjust="spacing" textLength="99.4" x="839.65" y="559.6281">+String workStartDate;</text><text fill="#000000" font-family="sans-serif" font-size="9.8" lengthAdjust="spacing" textLength="84" x="839.65" y="572.6629">+int workStartHour;</text><text fill="#000000" font-family="sans-serif" font-size="9.8" lengthAdjust="spacing" textLength="97.3" x="839.65" y="585.6977">+int workStartMinutes;</text><text fill="#000000" font-family="sans-serif" font-size="9.8" lengthAdjust="spacing" textLength="65.8" x="839.65" y="598.7324">+Status status;</text><text fill="#000000" font-family="sans-serif" font-size="9.8" lengthAdjust="spacing" textLength="109.9" x="839.65" y="611.7672">+String isTeamAssigned;</text><line style="stroke:#181818;stroke-width:0.3499999999999999;" x1="836.15" x2="1114.05" y1="617.0268" y2="617.0268"/><text fill="#000000" font-family="sans-serif" font-size="9.8" lengthAdjust="spacing" textLength="263.9" x="839.65" y="630.402">+AgendaTaskDTO(title, description, taskType, greenSpace,</text><text fill="#000000" font-family="sans-serif" font-size="9.8" lengthAdjust="spacing" textLength="258.3" x="839.65" y="643.4367">urgency, expectedDuration, executionDate, workStartHour,</text><text fill="#000000" font-family="sans-serif" font-size="9.8" lengthAdjust="spacing" textLength="270.9" x="839.65" y="656.4715">workStartMinutes, status, isTeamAssigned, vehiclesAssigned,</text><text fill="#000000" font-family="sans-serif" font-size="9.8" lengthAdjust="spacing" textLength="119" x="839.65" y="669.5062">teamDTO, vehicleDTOList)</text></g><!--class CollaboratorDTO--><g id="elem_CollaboratorDTO"><rect codeLine="152" fill="#F1F1F1" height="85.7391" id="CollaboratorDTO" rx="1.75" ry="1.75" style="stroke:#181818;stroke-width:0.3499999999999999;" width="149.1" x="878.15" y="880.6943"/><ellipse cx="911.925" cy="891.8943" fill="#ADD1B2" rx="7.7" ry="7.7" style="stroke:#181818;stroke-width:0.6999999999999998;"/><path d="M913.8609,889.0068 Q913.9703,888.8537 914.1016,888.7771 Q914.2328,888.7006 914.3859,888.7006 Q914.6484,888.7006 914.8125,888.8865 Q914.9766,889.0615 914.9766,889.4881 L914.9766,890.5053 Q914.9766,890.9318 914.8125,891.1178 Q914.6484,891.3037 914.3859,891.3037 Q914.1453,891.3037 914.0031,891.1615 Q913.8609,891.0303 913.7844,890.6693 Q913.7516,890.4178 913.6203,890.2865 Q913.3906,890.024 912.9641,889.8709 Q912.5375,889.7178 912.1,889.7178 Q911.5641,889.7178 911.1156,889.9475 Q910.6781,890.1771 910.3281,890.7021 Q909.9891,891.2271 909.9891,891.949 L909.9891,892.7146 Q909.9891,893.5787 910.6125,894.1584 Q911.2359,894.7271 912.3516,894.7271 Q913.0078,894.7271 913.4672,894.5521 Q913.7406,894.4428 914.0359,894.1365 Q914.2219,893.9506 914.3203,893.8959 Q914.4297,893.8412 914.5719,893.8412 Q914.8016,893.8412 914.9766,894.0271 Q915.1625,894.2021 915.1625,894.4428 Q915.1625,894.6834 914.9219,894.9678 Q914.5719,895.3725 914.0141,895.6021 Q913.2594,895.9193 912.3516,895.9193 Q911.2906,895.9193 910.4484,895.4818 Q909.7594,895.1318 909.2781,894.3881 Q908.7969,893.6334 908.7969,892.7365 L908.7969,891.9271 Q908.7969,890.9975 909.2234,890.199 Q909.6609,889.3896 910.4266,888.9631 Q911.1922,888.5256 912.0562,888.5256 Q912.5703,888.5256 913.0187,888.6459 Q913.4781,888.7553 913.8609,889.0068 Z " fill="#000000"/><text fill="#000000" font-family="sans-serif" font-size="9.8" lengthAdjust="spacing" textLength="75.6" x="926.275" y="895.9521">CollaboratorDTO</text><line style="stroke:#181818;stroke-width:0.3499999999999999;" x1="878.85" x2="1026.55" y1="903.0943" y2="903.0943"/><text fill="#000000" font-family="sans-serif" font-size="9.8" lengthAdjust="spacing" textLength="114.8" x="882.35" y="916.4695">+String collaboratorName;</text><text fill="#000000" font-family="sans-serif" font-size="9.8" lengthAdjust="spacing" textLength="60.2" x="882.35" y="929.5043">+String email;</text><text fill="#000000" font-family="sans-serif" font-size="9.8" lengthAdjust="spacing" textLength="109.9" x="882.35" y="942.5391">+List&lt;String&gt; skillNames;</text><line style="stroke:#181818;stroke-width:0.3499999999999999;" x1="878.85" x2="1026.55" y1="947.7986" y2="947.7986"/><text fill="#000000" font-family="sans-serif" font-size="9.8" lengthAdjust="spacing" textLength="140.7" x="882.35" y="961.1738">+CollaboratorDTO(collaborator)</text></g><!--class TeamDTO--><g id="elem_TeamDTO"><rect codeLine="161" fill="#F1F1F1" height="59.6695" id="TeamDTO" rx="1.75" ry="1.75" style="stroke:#181818;stroke-width:0.3499999999999999;" width="234.5" x="835.45" y="746.2943"/><ellipse cx="926.625" cy="757.4943" fill="#ADD1B2" rx="7.7" ry="7.7" style="stroke:#181818;stroke-width:0.6999999999999998;"/><path d="M928.5609,754.6068 Q928.6703,754.4537 928.8016,754.3771 Q928.9328,754.3006 929.0859,754.3006 Q929.3484,754.3006 929.5125,754.4865 Q929.6766,754.6615 929.6766,755.0881 L929.6766,756.1053 Q929.6766,756.5318 929.5125,756.7178 Q929.3484,756.9037 929.0859,756.9037 Q928.8453,756.9037 928.7031,756.7615 Q928.5609,756.6303 928.4844,756.2693 Q928.4516,756.0178 928.3203,755.8865 Q928.0906,755.624 927.6641,755.4709 Q927.2375,755.3178 926.8,755.3178 Q926.2641,755.3178 925.8156,755.5475 Q925.3781,755.7771 925.0281,756.3021 Q924.6891,756.8271 924.6891,757.549 L924.6891,758.3146 Q924.6891,759.1787 925.3125,759.7584 Q925.9359,760.3271 927.0516,760.3271 Q927.7078,760.3271 928.1672,760.1521 Q928.4406,760.0428 928.7359,759.7365 Q928.9219,759.5506 929.0203,759.4959 Q929.1297,759.4412 929.2719,759.4412 Q929.5016,759.4412 929.6766,759.6271 Q929.8625,759.8021 929.8625,760.0428 Q929.8625,760.2834 929.6219,760.5678 Q929.2719,760.9725 928.7141,761.2021 Q927.9594,761.5193 927.0516,761.5193 Q925.9906,761.5193 925.1484,761.0818 Q924.4594,760.7318 923.9781,759.9881 Q923.4969,759.2334 923.4969,758.3365 L923.4969,757.5271 Q923.4969,756.5975 923.9234,755.799 Q924.3609,754.9896 925.1266,754.5631 Q925.8922,754.1256 926.7562,754.1256 Q927.2703,754.1256 927.7187,754.2459 Q928.1781,754.3553 928.5609,754.6068 Z " fill="#000000"/><text fill="#000000" font-family="sans-serif" font-size="9.8" lengthAdjust="spacing" textLength="46.2" x="940.975" y="761.5521">TeamDTO</text><line style="stroke:#181818;stroke-width:0.3499999999999999;" x1="836.15" x2="1069.25" y1="768.6943" y2="768.6943"/><text fill="#000000" font-family="sans-serif" font-size="9.8" lengthAdjust="spacing" textLength="168" x="839.65" y="782.0695">+List&lt;CollaboratorDTO&gt; collaborators</text><line style="stroke:#181818;stroke-width:0.3499999999999999;" x1="836.15" x2="1069.25" y1="787.3291" y2="787.3291"/><text fill="#000000" font-family="sans-serif" font-size="9.8" lengthAdjust="spacing" textLength="226.1" x="839.65" y="800.7043">+TeamDTO(List&lt;CollaboratorDTO&gt; teamMembers)</text></g><!--class VehicleDTO--><g id="elem_VehicleDTO"><rect codeLine="166" fill="#F1F1F1" height="98.7738" id="VehicleDTO" rx="1.75" ry="1.75" style="stroke:#181818;stroke-width:0.3499999999999999;" width="105" x="1094.8" y="726.6943"/><ellipse cx="1118.53" cy="737.8943" fill="#ADD1B2" rx="7.7" ry="7.7" style="stroke:#181818;stroke-width:0.6999999999999998;"/><path d="M1120.4659,735.0068 Q1120.5753,734.8537 1120.7066,734.7771 Q1120.8378,734.7006 1120.9909,734.7006 Q1121.2534,734.7006 1121.4175,734.8865 Q1121.5816,735.0615 1121.5816,735.4881 L1121.5816,736.5053 Q1121.5816,736.9318 1121.4175,737.1178 Q1121.2534,737.3037 1120.9909,737.3037 Q1120.7503,737.3037 1120.6081,737.1615 Q1120.4659,737.0303 1120.3894,736.6693 Q1120.3566,736.4178 1120.2253,736.2865 Q1119.9956,736.024 1119.5691,735.8709 Q1119.1425,735.7178 1118.705,735.7178 Q1118.1691,735.7178 1117.7206,735.9475 Q1117.2831,736.1771 1116.9331,736.7021 Q1116.5941,737.2271 1116.5941,737.949 L1116.5941,738.7146 Q1116.5941,739.5787 1117.2175,740.1584 Q1117.8409,740.7271 1118.9566,740.7271 Q1119.6128,740.7271 1120.0722,740.5521 Q1120.3456,740.4428 1120.6409,740.1365 Q1120.8269,739.9506 1120.9253,739.8959 Q1121.0347,739.8412 1121.1769,739.8412 Q1121.4066,739.8412 1121.5816,740.0271 Q1121.7675,740.2021 1121.7675,740.4428 Q1121.7675,740.6834 1121.5269,740.9678 Q1121.1769,741.3725 1120.6191,741.6021 Q1119.8644,741.9193 1118.9566,741.9193 Q1117.8956,741.9193 1117.0534,741.4818 Q1116.3644,741.1318 1115.8831,740.3881 Q1115.4019,739.6334 1115.4019,738.7365 L1115.4019,737.9271 Q1115.4019,736.9975 1115.8284,736.199 Q1116.2659,735.3896 1117.0316,734.9631 Q1117.7972,734.5256 1118.6612,734.5256 Q1119.1753,734.5256 1119.6237,734.6459 Q1120.0831,734.7553 1120.4659,735.0068 Z " fill="#000000"/><text fill="#000000" font-family="sans-serif" font-size="9.8" lengthAdjust="spacing" textLength="53.2" x="1131.27" y="741.9521">VehicleDTO</text><line style="stroke:#181818;stroke-width:0.3499999999999999;" x1="1095.5" x2="1199.1" y1="749.0943" y2="749.0943"/><text fill="#000000" font-family="sans-serif" font-size="9.8" lengthAdjust="spacing" textLength="67.9" x="1099" y="762.4695">+String plateID;</text><text fill="#000000" font-family="sans-serif" font-size="9.8" lengthAdjust="spacing" textLength="63" x="1099" y="775.5043">+String brand;</text><text fill="#000000" font-family="sans-serif" font-size="9.8" lengthAdjust="spacing" textLength="63.7" x="1099" y="788.5391">+String model;</text><text fill="#000000" font-family="sans-serif" font-size="9.8" lengthAdjust="spacing" textLength="56" x="1099" y="801.5738">+String type;</text><line style="stroke:#181818;stroke-width:0.3499999999999999;" x1="1095.5" x2="1199.1" y1="806.8334" y2="806.8334"/><text fill="#000000" font-family="sans-serif" font-size="9.8" lengthAdjust="spacing" textLength="96.6" x="1099" y="820.2086">+VehicleDTO(vehicle)</text></g><!--link AgendaUI to AgendaController--><g id="link_AgendaUI_AgendaController"><path codeLine="178" d="M410.305,169.9843 C396.466,214.1123 379.0473,269.6189 368.9533,301.7909 " fill="none" id="AgendaUI-to-AgendaController" style="stroke:#181818;stroke-width:0.6999999999999998;stroke-dasharray:7.0,7.0;"/><polygon fill="#181818" points="367.696,305.7983,372.2536,300.6255,368.7438,302.4588,366.9104,298.949,367.696,305.7983" style="stroke:#181818;stroke-width:0.6999999999999998;"/></g><!--reverse link SelectTeamPopupUI to AgendaUI--><g id="link_SelectTeamPopupUI_AgendaUI"><path codeLine="179" d="M534.191,113.8443 C529.158,113.8443 523.789,113.8443 514.122,113.8443 " fill="none" id="SelectTeamPopupUI-backto-AgendaUI" style="stroke:#181818;stroke-width:0.6999999999999998;stroke-dasharray:7.0,7.0;"/><polygon fill="#181818" points="538.391,113.8443,532.091,111.0443,534.891,113.8443,532.091,116.6443,538.391,113.8443" style="stroke:#181818;stroke-width:0.6999999999999998;"/></g><!--link SelectTeamPopupUI to AssignTeamToEntryAgendaController--><g id="link_SelectTeamPopupUI_AssignTeamToEntryAgendaController"><path codeLine="180" d="M605.178,169.9843 C608.608,201.7783 612.4484,237.3906 615.8784,269.1776 " fill="none" id="SelectTeamPopupUI-to-AssignTeamToEntryAgendaController" style="stroke:#181818;stroke-width:0.6999999999999998;stroke-dasharray:7.0,7.0;"/><polygon fill="#181818" points="616.329,273.3533,618.437,266.7893,615.9535,269.8735,612.8693,267.3901,616.329,273.3533" style="stroke:#181818;stroke-width:0.6999999999999998;"/></g><!--link AgendaController to Repositories--><g id="link_AgendaController_Repositories"><path codeLine="181" d="M358.764,353.1393 C353.402,424.1893 337.3591,636.7212 330.4011,728.9182 " fill="none" id="AgendaController-to-Repositories" style="stroke:#181818;stroke-width:0.6999999999999998;stroke-dasharray:7.0,7.0;"/><polygon fill="#181818" points="330.085,733.1063,333.3512,727.0349,330.3484,729.6163,327.767,726.6135,330.085,733.1063" style="stroke:#181818;stroke-width:0.6999999999999998;"/></g><!--link AssignTeamToEntryAgendaController to Repositories--><g id="link_AssignTeamToEntryAgendaController_Repositories"><path codeLine="182" d="M585.487,385.6263 C525.63,475.8353 410.8421,648.8266 357.2291,729.6276 " fill="none" id="AssignTeamToEntryAgendaController-to-Repositories" style="stroke:#181818;stroke-width:0.6999999999999998;stroke-dasharray:7.0,7.0;"/><polygon fill="#181818" points="354.907,733.1273,360.7233,729.4259,356.8421,730.2109,356.057,726.3297,354.907,733.1273" style="stroke:#181818;stroke-width:0.6999999999999998;"/></g><!--link AgendaController to ApplicationSession--><g id="link_AgendaController_ApplicationSession"><path codeLine="183" d="M346.906,353.1393 C304.899,424.1893 178.9155,637.2939 124.4065,729.4909 " fill="none" id="AgendaController-to-ApplicationSession" style="stroke:#181818;stroke-width:0.6999999999999998;stroke-dasharray:7.0,7.0;"/><polygon fill="#181818" points="122.269,733.1063,127.8855,729.1082,124.0503,730.0935,123.065,726.2582,122.269,733.1063" style="stroke:#181818;stroke-width:0.6999999999999998;"/></g><!--link ApplicationSession to ApplicationSession--><g id="link_ApplicationSession_ApplicationSession"><path codeLine="184" d="M179.389,762.5063 C193.725,764.3123 203.7,768.8273 203.7,776.0443 C203.7,783.2613 197.8921,787.2514 183.5561,789.0574 " fill="none" id="ApplicationSession-to-ApplicationSession" style="stroke:#181818;stroke-width:0.6999999999999998;"/><polygon fill="#181818" points="179.389,789.5823,185.9896,791.573,182.8616,789.1449,185.2896,786.0169,179.389,789.5823" style="stroke:#181818;stroke-width:0.6999999999999998;"/><text fill="#000000" font-family="sans-serif" font-size="9.1" lengthAdjust="spacing" textLength="34.3" x="207.9" y="779.9142">instance</text></g><!--link ApplicationSession to UserSession--><g id="link_ApplicationSession_UserSession"><path codeLine="185" d="M91.056,818.7653 C87.136,845.1203 82.847,873.9431 79.627,895.5871 " fill="none" id="ApplicationSession-to-UserSession" style="stroke:#181818;stroke-width:0.6999999999999998;"/><polygon fill="#181818" points="79.009,899.7413,82.7056,893.9219,79.524,896.2794,77.1665,893.0979,79.009,899.7413" style="stroke:#181818;stroke-width:0.6999999999999998;"/><text fill="#000000" font-family="sans-serif" font-size="9.1" lengthAdjust="spacing" textLength="50.4" x="87.5" y="856.9142">userSession</text><text fill="#000000" font-family="sans-serif" font-size="9.1" lengthAdjust="spacing" textLength="4.9" x="74.2918" y="892.0628">1</text></g><!--link UserSession to Email--><g id="link_UserSession_Email"><path codeLine="186" d="M68.621,947.0053 C61.278,971.1203 51.1191,1004.4614 44.6581,1025.6854 " fill="none" id="UserSession-to-Email" style="stroke:#181818;stroke-width:0.6999999999999998;stroke-dasharray:7.0,7.0;"/><polygon fill="#181818" points="43.435,1029.7033,47.9483,1024.4918,44.4543,1026.355,42.5911,1022.861,43.435,1029.7033" style="stroke:#181818;stroke-width:0.6999999999999998;"/></g><!--link Repositories to AgendaRepository--><g id="link_Repositories_AgendaRepository"><path codeLine="187" d="M360.367,818.8003 C402.255,871.4333 470.6545,957.3761 510.0435,1006.8661 " fill="none" id="Repositories-to-AgendaRepository" style="stroke:#181818;stroke-width:0.6999999999999998;"/><polygon fill="#181818" points="512.659,1010.1523,510.9266,1003.4794,510.4794,1007.4138,506.545,1006.9667,512.659,1010.1523" style="stroke:#181818;stroke-width:0.6999999999999998;"/><text fill="#000000" font-family="sans-serif" font-size="9.1" lengthAdjust="spacing" textLength="4.9" x="503.608" y="1002.3959">1</text></g><!--link Repositories to TeamRepository--><g id="link_Repositories_TeamRepository"><path codeLine="188" d="M307.867,818.8003 C282.947,873.8693 241.6215,965.1869 220.0125,1012.9409 " fill="none" id="Repositories-to-TeamRepository" style="stroke:#181818;stroke-width:0.6999999999999998;"/><polygon fill="#181818" points="218.281,1016.7673,223.4292,1012.182,219.7239,1013.5786,218.3273,1009.8733,218.281,1016.7673" style="stroke:#181818;stroke-width:0.6999999999999998;"/><text fill="#000000" font-family="sans-serif" font-size="9.1" lengthAdjust="spacing" textLength="4.9" x="215.0913" y="1008.9879">1</text></g><!--link AgendaRepository to Task--><g id="link_AgendaRepository_Task"><path codeLine="189" d="M534.303,1083.0643 C530.334,1103.9453 525.9726,1126.8601 521.2616,1151.6681 " fill="none" id="AgendaRepository-to-Task" style="stroke:#181818;stroke-width:0.6999999999999998;"/><polygon fill="#181818" points="520.478,1155.7943,524.4042,1150.1273,521.131,1152.3558,518.9025,1149.0826,520.478,1155.7943" style="stroke:#181818;stroke-width:0.6999999999999998;"/><text fill="#000000" font-family="sans-serif" font-size="9.1" lengthAdjust="spacing" textLength="17.5" x="529.9" y="1115.9142">task</text><text fill="#000000" font-family="sans-serif" font-size="9.1" lengthAdjust="spacing" textLength="4.9" x="528.2182" y="1098.3384">1</text></g><!--reverse link Task to TaskDuration--><g id="link_Task_TaskDuration"><path codeLine="190" d="M507.5,1302.2623 C507.5,1320.2873 507.5,1331.2283 507.5,1348.8823 " fill="none" id="Task-backto-TaskDuration" style="stroke:#181818;stroke-width:0.6999999999999998;"/><polygon fill="#181818" points="507.5,1293.8623,504.7,1298.0623,507.5,1302.2623,510.3,1298.0623,507.5,1293.8623" style="stroke:#181818;stroke-width:0.6999999999999998;"/><text fill="#000000" font-family="sans-serif" font-size="9.1" lengthAdjust="spacing" textLength="51.1" x="508.2" y="1325.2142">taskDuration</text><text fill="#000000" font-family="sans-serif" font-size="9.1" lengthAdjust="spacing" textLength="4.9" x="502.3971" y="1341.1393">1</text></g><!--link TeamRepository to Team--><g id="link_TeamRepository_Team"><path codeLine="191" d="M221.746,1076.4843 C241.71,1111.4843 272.6621,1165.7681 290.8411,1197.6391 " fill="none" id="TeamRepository-to-Team" style="stroke:#181818;stroke-width:0.6999999999999998;"/><polygon fill="#181818" points="292.922,1201.2873,292.2328,1194.4277,291.1879,1198.2471,287.3684,1197.2023,292.922,1201.2873" style="stroke:#181818;stroke-width:0.6999999999999998;"/><text fill="#000000" font-family="sans-serif" font-size="9.1" lengthAdjust="spacing" textLength="20.3" x="243.6" y="1115.9142">team</text><text fill="#000000" font-family="sans-serif" font-size="9.1" lengthAdjust="spacing" textLength="4.9" x="219.1085" y="1092.0189">1</text></g><!--link AgendaController to AgendaRepository--><g id="link_AgendaController_AgendaRepository"><path codeLine="192" d="M366.814,353.1183 C389.095,434.1573 462.7,701.8443 462.7,701.8443 C462.7,701.8443 511.922,917.8363 531.998,1005.9523 " fill="none" id="AgendaController-to-AgendaRepository" style="stroke:#181818;stroke-width:0.6999999999999998;stroke-dasharray:7.0,7.0;"/><polygon fill="#181818" points="532.931,1010.0473,534.2615,1003.2827,532.1535,1006.6348,528.8015,1004.5267,532.931,1010.0473" style="stroke:#181818;stroke-width:0.6999999999999998;"/><text fill="#000000" font-family="sans-serif" font-size="9.1" lengthAdjust="spacing" textLength="72.8" x="491.4" y="779.9142">agendaRepository</text></g><!--link AssignTeamToEntryAgendaController to AgendaRepository--><g id="link_AssignTeamToEntryAgendaController_AgendaRepository"><path codeLine="193" d="M649.922,385.6403 C683.69,453.4843 736.4,559.3943 736.4,559.3943 C736.4,559.3943 736.4,559.3943 736.4,924.0943 C736.4,924.0943 659.5689,972.013 601.9379,1007.951 " fill="none" id="AssignTeamToEntryAgendaController-to-AgendaRepository" style="stroke:#181818;stroke-width:0.6999999999999998;stroke-dasharray:7.0,7.0;"/><polygon fill="#181818" points="598.374,1010.1733,605.2014,1009.2157,601.3439,1008.3214,602.2382,1004.4639,598.374,1010.1733" style="stroke:#181818;stroke-width:0.6999999999999998;"/><text fill="#000000" font-family="sans-serif" font-size="9.1" lengthAdjust="spacing" textLength="72.8" x="737.1" y="779.9142">agendaRepository</text></g><!--link AssignTeamToEntryAgendaController to TeamRepository--><g id="link_AssignTeamToEntryAgendaController_TeamRepository"><path codeLine="194" d="M616.511,385.5143 C602.994,514.7483 570.5,825.3943 570.5,825.3943 C570.5,825.3943 356.0599,954.7962 256.8419,1014.6742 " fill="none" id="AssignTeamToEntryAgendaController-to-TeamRepository" style="stroke:#181818;stroke-width:0.6999999999999998;stroke-dasharray:7.0,7.0;"/><polygon fill="#181818" points="253.246,1016.8443,260.0866,1015.9864,256.2426,1015.0359,257.1931,1011.1919,253.246,1016.8443" style="stroke:#181818;stroke-width:0.6999999999999998;"/><text fill="#000000" font-family="sans-serif" font-size="9.1" lengthAdjust="spacing" textLength="63.7" x="583.8" y="779.9142">teamRepository</text></g><!--link Repositories to Repositories--><g id="link_Repositories_Repositories"><path codeLine="195" d="M394.996,762.1143 C409.136,763.5773 419.3,768.2253 419.3,776.0443 C419.3,783.8633 413.3137,788.0791 399.1737,789.5421 " fill="none" id="Repositories-to-Repositories" style="stroke:#181818;stroke-width:0.6999999999999998;"/><polygon fill="#181818" points="394.996,789.9743,401.5507,792.1111,398.4774,789.6141,400.9744,786.5408,394.996,789.9743" style="stroke:#181818;stroke-width:0.6999999999999998;"/><text fill="#000000" font-family="sans-serif" font-size="9.1" lengthAdjust="spacing" textLength="34.3" x="423.5" y="779.9142">instance</text></g><!--reverse link AgendaMapper to AgendaController--><g id="link_AgendaMapper_AgendaController"><path codeLine="196" d="M910.5057,297.727 C852.3847,267.886 775.25,228.2943 775.25,228.2943 C775.25,228.2943 468.65,228.2943 468.65,228.2943 C468.65,228.2943 417.529,276.1043 385.581,305.9873 " fill="none" id="AgendaMapper-backto-AgendaController" style="stroke:#181818;stroke-width:0.6999999999999998;stroke-dasharray:7.0,7.0;"/><polygon fill="#181818" points="914.242,299.6453,909.9164,294.277,911.1284,298.0467,907.3586,299.2587,914.242,299.6453" style="stroke:#181818;stroke-width:0.6999999999999998;"/></g><!--link AgendaMapper to AgendaTaskDTO--><g id="link_AgendaMapper_AgendaTaskDTO"><path codeLine="197" d="M972.657,359.4113 C972.93,381.5593 973.2634,409.3217 973.6554,441.2137 " fill="none" id="AgendaMapper-to-AgendaTaskDTO" style="stroke:#181818;stroke-width:0.6999999999999998;stroke-dasharray:7.0,7.0;"/><polygon fill="#181818" points="973.707,445.4133,976.4294,439.0794,973.664,441.9136,970.8298,439.1482,973.707,445.4133" style="stroke:#181818;stroke-width:0.6999999999999998;"/></g><!--link AgendaTaskDTO to TeamDTO--><g id="link_AgendaTaskDTO_TeamDTO"><path codeLine="198" d="M963.214,674.6633 C960.435,701.2423 958.156,723.1051 956.175,742.0401 " fill="none" id="AgendaTaskDTO-to-TeamDTO" style="stroke:#181818;stroke-width:0.6999999999999998;stroke-dasharray:7.0,7.0;"/><polygon fill="#181818" points="955.738,746.2173,959.1783,740.2429,956.1022,742.7363,953.6087,739.6602,955.738,746.2173" style="stroke:#181818;stroke-width:0.6999999999999998;"/><text fill="#000000" font-family="sans-serif" font-size="9.1" lengthAdjust="spacing" textLength="4.9" x="950.9317" y="738.4379">1</text></g><!--link TeamDTO to CollaboratorDTO--><g id="link_TeamDTO_CollaboratorDTO"><path codeLine="199" d="M952.7,805.9273 C952.7,827.3053 952.7,852.4423 952.7,876.3613 " fill="none" id="TeamDTO-to-CollaboratorDTO" style="stroke:#181818;stroke-width:0.6999999999999998;stroke-dasharray:7.0,7.0;"/><polygon fill="#181818" points="952.7,880.5613,955.5,874.2613,952.7,877.0613,949.9,874.2613,952.7,880.5613" style="stroke:#181818;stroke-width:0.6999999999999998;"/><text fill="#000000" font-family="sans-serif" font-size="9.1" lengthAdjust="spacing" textLength="4.9" x="947.4095" y="821.4608">1</text></g><!--link AgendaTaskDTO to VehicleDTO--><g id="link_AgendaTaskDTO_VehicleDTO"><path codeLine="200" d="M1066.492,674.6633 C1081.143,692.9193 1092.9617,707.6411 1105.4987,723.2581 " fill="none" id="AgendaTaskDTO-to-VehicleDTO" style="stroke:#181818;stroke-width:0.6999999999999998;stroke-dasharray:7.0,7.0;"/><polygon fill="#181818" points="1108.128,726.5333,1106.3676,719.8677,1105.9369,723.804,1102.0006,723.3734,1108.128,726.5333" style="stroke:#181818;stroke-width:0.6999999999999998;"/><text fill="#000000" font-family="sans-serif" font-size="9.1" lengthAdjust="spacing" textLength="4.9" x="1065.9001" y="690.3204">1</text></g><!--SRC=[hLVDRkCs4BxpAOZj8N9Z1zlsbWG2qdZR6cYwHHtlQI-qp3XiA58WgTswHjwzGugaI4bEqg8-9ERy3-VZpFXCFp7H44LgN4iXgqSbQugDQYdgEGsfdiYUhis1KwnePOZOyrH0FvAT_Ch47ZyGhbCEPuAQGqDn8_d17j3P15Cg8r6YLN6YzOqnYcrRGrUL56lsDyNlaM46GjYitt__0rxWMok6bupiGGaX7oR-URF2rzS_IRwZgYpnDqltmKU4d5ryiwTYHq3eY31y5lYUadfv_n5hoY4vkhDdnph7J33320Vl1PSLCKoAELo1bgsgg9vv0m-CytkYd-x9bjDYvdMtHjnepVR2sYk2RDliYA5EyXEZNoFz2tYnd7K80kmLEZdCq7F8e9EnPd-NJTjiLiDC3FmFXlfeUhNe5QYtH5IKtrGsjqYlkDHqiugvxAdJ2pOZtMKEZ92vZV6vByMj54P9pgcQheWlIBobU_a150vTXHBbetVtgcGQSCVxWpPICoFL8UErvf4AmxgIJijODwSvEX984fGjLEUt8EwV9K15vXcuW91KSvZ3SPY2jt571DXKlp9jx4s30J1n5gvwAMl2H7RDD-vpZDNeatcf6ddQ0LdMwxLbbGvSzeZo2_dnOF_UqNfBrGU8XUkYWdp8LYe2bXnfbFKfHv1nYRiRJDpu6rWtj68FhF8NNNTKx-35chZ-CSTxHQbOmxNGtqWDvwzIFQqDKMO93n1APOXfzTmb-d7xPn9q39TH7Tj7IanHiX9W2DvMCSENcT1R83O1tlxgcePxvAuf92f526NCEHdGMFJVlOxRLYcGwTtqyMqqr2WDp2bOggjH9kienz0tq0jede0fpa1pcw2jnBK3ekuzMHX4XJNC5XXN3WzNEMr7TQLOOpCF7DVRxQ0o_aklOf7Y0TCHBouk0c9T2_UGIwpEevaKYVFFebLGzEe0mkG0y7k48GF_QYPW2FfPKu3vMPxJibMkJ34t9eopS9MSdQsKuAsc92CDuS7QNU0dkGHUSJg-S-Xpveso_SnxWu9jTSyPHEv8qvoQArcFwGJZ24be4Sz6GdzDEdRtzbtVTj3wH1zPnIaGIlmbVhUiqSYpu_Vrc7nBZuDjZCVpatWyFuN7g9Btjy3STF1oYXvgLt7DCPZ-rRW15Geni9dro5GlCdw1aaqoxbAidKyzckY5QVkkkp5FTn5zsQNzfoSrpCvIQDNQhrtJpz80pM7q_LZ8Ovm7GEX8-ImYUgR0qk4WxLR07W0XdPnf3JsRsguPQ0wX7QF4i4HpRZNwfplmb4tbMIVKDvGky6DgUg1VPi65OUOLYsaD4pS3__QZm_vb3MwWuL2MrNAG-5OHiHlGQhcZV40pxb5qjDv5uSiH7styAN1nKOxsi8JBwOC1YT7UZKOKs__Br_TKD5fndLws9Ro-5ezLHXBbrA0Va_1YIX3M1EPtXaaT-D4dGF7TT-_IcGzQRNz2ASS6x2O-oZQfnS9R6Muz9yJojGaDjPnC2CwD_KlN7v3x_krYuMoaexFZXoFAxNVcocxZk7HOHfEb6CLnwLVODDOt5VN_ipH8fGl_v0NdSChAFpPk7qMPpLEK7f94VED6-UopVBXQtpbG-ErgRzko1arae1oa-iUDq3y0]--></g></svg>