<?xml version="1.0" encoding="us-ascii" standalone="no"?><svg xmlns="http://www.w3.org/2000/svg" xmlns:xlink="http://www.w3.org/1999/xlink" contentStyleType="text/css" height="1552.8px" preserveAspectRatio="none" style="width:1554px;height:1552px;background:#FFFFFF;" version="1.1" viewBox="0 0 1554 1552" width="1554.4px" zoomAndPan="magnify"><defs/><g><text fill="#000000" font-family="sans-serif" font-size="11.2" font-weight="bold" lengthAdjust="spacing" textLength="230.4" x="663.2" y="24.0859">Sequence Diagram (SD) - Alternative One</text><rect fill="#FFFFFF" height="1335.8266" style="stroke:#181818;stroke-width:0.8000000000000002;" width="8" x="36" y="121.4906"/><rect fill="#FFFFFF" height="479.6156" style="stroke:#181818;stroke-width:0.8000000000000002;" width="8" x="324" y="140.1234"/><rect fill="#FFFFFF" height="451.4219" style="stroke:#181818;stroke-width:0.8000000000000002;" width="8" x="324" y="644.7719"/><rect fill="#FFFFFF" height="74.2984" style="stroke:#181818;stroke-width:0.8000000000000002;" width="8" x="324" y="1121.2266"/><rect fill="#FFFFFF" height="236.7594" style="stroke:#181818;stroke-width:0.8000000000000002;" width="8" x="324" y="1220.5578"/><rect fill="#FFFFFF" height="365.9234" style="stroke:#181818;stroke-width:0.8000000000000002;" width="8" x="507.2" y="214.95"/><rect fill="#FFFFFF" height="365.9234" style="stroke:#181818;stroke-width:0.8000000000000002;" width="8" x="507.2" y="705.2375"/><rect fill="#FFFFFF" height="186.6938" style="stroke:#181818;stroke-width:0.8000000000000002;" width="8" x="507.2" y="1245.5906"/><rect fill="#FFFFFF" height="25.0328" style="stroke:#181818;stroke-width:0.8000000000000002;" width="8" x="633.6" y="1270.6234"/><rect fill="#FFFFFF" height="25.0328" style="stroke:#181818;stroke-width:0.8000000000000002;" width="8" x="694" y="239.9828"/><rect fill="#FFFFFF" height="25.0328" style="stroke:#181818;stroke-width:0.8000000000000002;" width="8" x="694" y="730.2703"/><rect fill="#FFFFFF" height="25.0328" style="stroke:#181818;stroke-width:0.8000000000000002;" width="8" x="771.6" y="290.0484"/><rect fill="#FFFFFF" height="25.0328" style="stroke:#181818;stroke-width:0.8000000000000002;" width="8" x="771.6" y="780.3359"/><rect fill="#FFFFFF" height="25.0328" style="stroke:#181818;stroke-width:0.8000000000000002;" width="8" x="841.6" y="340.1141"/><rect fill="#FFFFFF" height="165.6609" style="stroke:#181818;stroke-width:0.8000000000000002;" width="8" x="915.2" y="390.1797"/><rect fill="#FFFFFF" height="25.0328" style="stroke:#181818;stroke-width:0.8000000000000002;" width="8" x="1128.8" y="830.4016"/><rect fill="#FFFFFF" height="165.6609" style="stroke:#181818;stroke-width:0.8000000000000002;" width="8" x="1226.4" y="880.4672"/><rect fill="#FFFFFF" height="25.0328" style="stroke:#181818;stroke-width:0.8000000000000002;" width="8" x="1469.2" y="1376.6188"/><rect fill="none" height="129.4281" style="stroke:#000000;stroke-width:1.2000000000000002;" width="383.6" x="872.4" y="402.1797"/><rect fill="none" height="129.4281" style="stroke:#000000;stroke-width:1.2000000000000002;" width="368" x="1181.6" y="892.4672"/><rect fill="none" height="100.3953" style="stroke:#000000;stroke-width:1.2000000000000002;" width="1084.8" x="420.8" y="1307.6563"/><line style="stroke:#181818;stroke-width:0.4000000000000001;stroke-dasharray:5.0,5.0;" x1="40" x2="40" y1="113.4906" y2="1471.7172"/><line style="stroke:#181818;stroke-width:0.4000000000000001;stroke-dasharray:5.0,5.0;" x1="328" x2="328" y1="113.4906" y2="1471.7172"/><line style="stroke:#181818;stroke-width:0.4000000000000001;stroke-dasharray:5.0,5.0;" x1="511.2" x2="511.2" y1="179.4203" y2="1471.7172"/><line style="stroke:#181818;stroke-width:0.4000000000000001;stroke-dasharray:5.0,5.0;" x1="637.2" x2="637.2" y1="113.4906" y2="1471.7172"/><line style="stroke:#181818;stroke-width:0.4000000000000001;stroke-dasharray:5.0,5.0;" x1="698" x2="698" y1="113.4906" y2="1471.7172"/><line style="stroke:#181818;stroke-width:0.4000000000000001;stroke-dasharray:5.0,5.0;" x1="775.6" x2="775.6" y1="113.4906" y2="1471.7172"/><line style="stroke:#181818;stroke-width:0.4000000000000001;stroke-dasharray:5.0,5.0;" x1="845.2" x2="845.2" y1="113.4906" y2="1471.7172"/><line style="stroke:#181818;stroke-width:0.4000000000000001;stroke-dasharray:5.0,5.0;" x1="918.8" x2="918.8" y1="113.4906" y2="1471.7172"/><line style="stroke:#181818;stroke-width:0.4000000000000001;stroke-dasharray:5.0,5.0;" x1="1044" x2="1044" y1="443.0609" y2="1471.7172"/><line style="stroke:#181818;stroke-width:0.4000000000000001;stroke-dasharray:5.0,5.0;" x1="1132.8" x2="1132.8" y1="113.4906" y2="1471.7172"/><line style="stroke:#181818;stroke-width:0.4000000000000001;stroke-dasharray:5.0,5.0;" x1="1230.4" x2="1230.4" y1="113.4906" y2="1471.7172"/><line style="stroke:#181818;stroke-width:0.4000000000000001;stroke-dasharray:5.0,5.0;" x1="1360.8" x2="1360.8" y1="933.3484" y2="1471.7172"/><line style="stroke:#181818;stroke-width:0.4000000000000001;stroke-dasharray:5.0,5.0;" x1="1421.6" x2="1421.6" y1="1348.5375" y2="1471.7172"/><line style="stroke:#181818;stroke-width:0.4000000000000001;stroke-dasharray:5.0,5.0;" x1="1472.8" x2="1472.8" y1="113.4906" y2="1471.7172"/><text fill="#000000" font-family="sans-serif" font-size="11.2" lengthAdjust="spacing" textLength="67.2" x="4" y="95.7828">Green Space</text><text fill="#000000" font-family="sans-serif" font-size="11.2" lengthAdjust="spacing" textLength="44.8" x="15.2" y="110.6797">Manager</text><ellipse cx="40" cy="42.4969" fill="#E3E3E3" rx="6.4" ry="6.4" style="stroke:#181818;stroke-width:0.4000000000000001;"/><path d="M40,48.8969 L40,70.4969 M29.6,55.2969 L50.4,55.2969 M40,70.4969 L29.6,82.4969 M40,70.4969 L50.4,82.4969 " fill="none" style="stroke:#181818;stroke-width:0.4000000000000001;"/><text fill="#000000" font-family="sans-serif" font-size="11.2" lengthAdjust="spacing" textLength="67.2" x="4" y="1483.0031">Green Space</text><text fill="#000000" font-family="sans-serif" font-size="11.2" lengthAdjust="spacing" textLength="44.8" x="15.2" y="1497.9">Manager</text><ellipse cx="40" cy="1507.5109" fill="#E3E3E3" rx="6.4" ry="6.4" style="stroke:#181818;stroke-width:0.4000000000000001;"/><path d="M40,1513.9109 L40,1535.5109 M29.6,1520.3109 L50.4,1520.3109 M40,1535.5109 L29.6,1547.5109 M40,1535.5109 L50.4,1547.5109 " fill="none" style="stroke:#181818;stroke-width:0.4000000000000001;"/><rect fill="#E3E3E3" height="26.0969" rx="2" ry="2" style="stroke:#181818;stroke-width:0.4000000000000001;" width="124.8" x="265.6" y="86.5938"/><text fill="#000000" font-family="sans-serif" font-size="11.2" lengthAdjust="spacing" textLength="113.6" x="271.2" y="104.2797">:AssignTeamToTaskUI</text><rect fill="#E3E3E3" height="26.0969" rx="2" ry="2" style="stroke:#181818;stroke-width:0.4000000000000001;" width="124.8" x="265.6" y="1470.9172"/><text fill="#000000" font-family="sans-serif" font-size="11.2" lengthAdjust="spacing" textLength="113.6" x="271.2" y="1488.6031">:AssignTeamToTaskUI</text><rect fill="#E3E3E3" height="40.9938" rx="2" ry="2" style="stroke:#181818;stroke-width:0.4000000000000001;" width="164.8" x="428.8" y="1470.9172"/><text fill="#000000" font-family="sans-serif" font-size="11.2" lengthAdjust="spacing" textLength="47.2" x="487.6" y="1488.6031">controller</text><text fill="#000000" font-family="sans-serif" font-size="11.2" lengthAdjust="spacing" textLength="153.6" x="434.4" y="1503.5">:AssignTeamToTaskController</text><rect fill="#E3E3E3" height="40.9938" rx="2" ry="2" style="stroke:#181818;stroke-width:0.4000000000000001;" width="36" x="619.6" y="71.6969"/><text fill="#000000" font-family="sans-serif" font-size="11.2" lengthAdjust="spacing" textLength="24" x="625.6" y="89.3828">task:</text><text fill="#000000" font-family="sans-serif" font-size="11.2" lengthAdjust="spacing" textLength="24.8" x="625.2" y="104.2797">Task</text><rect fill="#E3E3E3" height="40.9938" rx="2" ry="2" style="stroke:#181818;stroke-width:0.4000000000000001;" width="36" x="619.6" y="1470.9172"/><text fill="#000000" font-family="sans-serif" font-size="11.2" lengthAdjust="spacing" textLength="24" x="625.6" y="1488.6031">task:</text><text fill="#000000" font-family="sans-serif" font-size="11.2" lengthAdjust="spacing" textLength="24.8" x="625.2" y="1503.5">Task</text><rect fill="#E3E3E3" height="26.0969" rx="2" ry="2" style="stroke:#181818;stroke-width:0.4000000000000001;" width="68.8" x="663.6" y="86.5938"/><text fill="#000000" font-family="sans-serif" font-size="11.2" lengthAdjust="spacing" textLength="57.6" x="669.2" y="104.2797">:Repository</text><rect fill="#E3E3E3" height="26.0969" rx="2" ry="2" style="stroke:#181818;stroke-width:0.4000000000000001;" width="68.8" x="663.6" y="1470.9172"/><text fill="#000000" font-family="sans-serif" font-size="11.2" lengthAdjust="spacing" textLength="57.6" x="669.2" y="1488.6031">:Repository</text><rect fill="#E3E3E3" height="40.9938" rx="2" ry="2" style="stroke:#181818;stroke-width:0.4000000000000001;" width="70.4" x="740.4" y="71.6969"/><text fill="#000000" font-family="sans-serif" font-size="11.2" lengthAdjust="spacing" textLength="59.2" x="746" y="89.3828">repositories</text><text fill="#000000" font-family="sans-serif" font-size="11.2" lengthAdjust="spacing" textLength="57.6" x="746.8" y="104.2797">:Repository</text><rect fill="#E3E3E3" height="40.9938" rx="2" ry="2" style="stroke:#181818;stroke-width:0.4000000000000001;" width="70.4" x="740.4" y="1470.9172"/><text fill="#000000" font-family="sans-serif" font-size="11.2" lengthAdjust="spacing" textLength="59.2" x="746" y="1488.6031">repositories</text><text fill="#000000" font-family="sans-serif" font-size="11.2" lengthAdjust="spacing" textLength="57.6" x="746.8" y="1503.5">:Repository</text><rect fill="#E3E3E3" height="40.9938" rx="2" ry="2" style="stroke:#181818;stroke-width:0.4000000000000001;" width="53.6" x="818.8" y="71.6969"/><text fill="#000000" font-family="sans-serif" font-size="11.2" lengthAdjust="spacing" textLength="38.4" x="826.4" y="89.3828">agenda</text><text fill="#000000" font-family="sans-serif" font-size="11.2" lengthAdjust="spacing" textLength="42.4" x="824.4" y="104.2797">:Agenda</text><rect fill="#E3E3E3" height="40.9938" rx="2" ry="2" style="stroke:#181818;stroke-width:0.4000000000000001;" width="53.6" x="818.8" y="1470.9172"/><text fill="#000000" font-family="sans-serif" font-size="11.2" lengthAdjust="spacing" textLength="38.4" x="826.4" y="1488.6031">agenda</text><text fill="#000000" font-family="sans-serif" font-size="11.2" lengthAdjust="spacing" textLength="42.4" x="824.4" y="1503.5">:Agenda</text><rect fill="#E3E3E3" height="26.0969" rx="2" ry="2" style="stroke:#181818;stroke-width:0.4000000000000001;" width="77.6" x="880.4" y="86.5938"/><text fill="#000000" font-family="sans-serif" font-size="11.2" lengthAdjust="spacing" textLength="66.4" x="886" y="104.2797">:TaskMapper</text><rect fill="#E3E3E3" height="26.0969" rx="2" ry="2" style="stroke:#181818;stroke-width:0.4000000000000001;" width="77.6" x="880.4" y="1470.9172"/><text fill="#000000" font-family="sans-serif" font-size="11.2" lengthAdjust="spacing" textLength="66.4" x="886" y="1488.6031">:TaskMapper</text><rect fill="#E3E3E3" height="26.0969" rx="2" ry="2" style="stroke:#181818;stroke-width:0.4000000000000001;" width="63.2" x="1012.8" y="1470.9172"/><text fill="#000000" font-family="sans-serif" font-size="11.2" lengthAdjust="spacing" textLength="52" x="1018.4" y="1488.6031">:TaskDTO</text><rect fill="#E3E3E3" height="40.9938" rx="2" ry="2" style="stroke:#181818;stroke-width:0.4000000000000001;" width="97.6" x="1084" y="71.6969"/><text fill="#000000" font-family="sans-serif" font-size="11.2" lengthAdjust="spacing" textLength="79.2" x="1093.2" y="89.3828">teamRepository</text><text fill="#000000" font-family="sans-serif" font-size="11.2" lengthAdjust="spacing" textLength="86.4" x="1089.6" y="104.2797">:TeamRepository</text><rect fill="#E3E3E3" height="40.9938" rx="2" ry="2" style="stroke:#181818;stroke-width:0.4000000000000001;" width="97.6" x="1084" y="1470.9172"/><text fill="#000000" font-family="sans-serif" font-size="11.2" lengthAdjust="spacing" textLength="79.2" x="1093.2" y="1488.6031">teamRepository</text><text fill="#000000" font-family="sans-serif" font-size="11.2" lengthAdjust="spacing" textLength="86.4" x="1089.6" y="1503.5">:TeamRepository</text><rect fill="#E3E3E3" height="26.0969" rx="2" ry="2" style="stroke:#181818;stroke-width:0.4000000000000001;" width="81.6" x="1189.6" y="86.5938"/><text fill="#000000" font-family="sans-serif" font-size="11.2" lengthAdjust="spacing" textLength="70.4" x="1195.2" y="104.2797">:TeamMapper</text><rect fill="#E3E3E3" height="26.0969" rx="2" ry="2" style="stroke:#181818;stroke-width:0.4000000000000001;" width="81.6" x="1189.6" y="1470.9172"/><text fill="#000000" font-family="sans-serif" font-size="11.2" lengthAdjust="spacing" textLength="70.4" x="1195.2" y="1488.6031">:TeamMapper</text><rect fill="#E3E3E3" height="26.0969" rx="2" ry="2" style="stroke:#181818;stroke-width:0.4000000000000001;" width="67.2" x="1327.2" y="1470.9172"/><text fill="#000000" font-family="sans-serif" font-size="11.2" lengthAdjust="spacing" textLength="56" x="1332.8" y="1488.6031">:TeamDTO</text><rect fill="#E3E3E3" height="26.0969" rx="2" ry="2" style="stroke:#181818;stroke-width:0.4000000000000001;" width="38.4" x="1402.4" y="1470.9172"/><text fill="#000000" font-family="sans-serif" font-size="11.2" lengthAdjust="spacing" textLength="27.2" x="1408" y="1488.6031">Email</text><rect fill="#E3E3E3" height="26.0969" rx="2" ry="2" style="stroke:#181818;stroke-width:0.4000000000000001;" width="48.8" x="1448.8" y="86.5938"/><text fill="#000000" font-family="sans-serif" font-size="11.2" lengthAdjust="spacing" textLength="37.6" x="1454.4" y="104.2797">Emailer</text><rect fill="#E3E3E3" height="26.0969" rx="2" ry="2" style="stroke:#181818;stroke-width:0.4000000000000001;" width="48.8" x="1448.8" y="1470.9172"/><text fill="#000000" font-family="sans-serif" font-size="11.2" lengthAdjust="spacing" textLength="37.6" x="1454.4" y="1488.6031">Emailer</text><rect fill="#FFFFFF" height="1335.8266" style="stroke:#181818;stroke-width:0.8000000000000002;" width="8" x="36" y="121.4906"/><rect fill="#FFFFFF" height="479.6156" style="stroke:#181818;stroke-width:0.8000000000000002;" width="8" x="324" y="140.1234"/><rect fill="#FFFFFF" height="451.4219" style="stroke:#181818;stroke-width:0.8000000000000002;" width="8" x="324" y="644.7719"/><rect fill="#FFFFFF" height="74.2984" style="stroke:#181818;stroke-width:0.8000000000000002;" width="8" x="324" y="1121.2266"/><rect fill="#FFFFFF" height="236.7594" style="stroke:#181818;stroke-width:0.8000000000000002;" width="8" x="324" y="1220.5578"/><rect fill="#FFFFFF" height="365.9234" style="stroke:#181818;stroke-width:0.8000000000000002;" width="8" x="507.2" y="214.95"/><rect fill="#FFFFFF" height="365.9234" style="stroke:#181818;stroke-width:0.8000000000000002;" width="8" x="507.2" y="705.2375"/><rect fill="#FFFFFF" height="186.6938" style="stroke:#181818;stroke-width:0.8000000000000002;" width="8" x="507.2" y="1245.5906"/><rect fill="#FFFFFF" height="25.0328" style="stroke:#181818;stroke-width:0.8000000000000002;" width="8" x="633.6" y="1270.6234"/><rect fill="#FFFFFF" height="25.0328" style="stroke:#181818;stroke-width:0.8000000000000002;" width="8" x="694" y="239.9828"/><rect fill="#FFFFFF" height="25.0328" style="stroke:#181818;stroke-width:0.8000000000000002;" width="8" x="694" y="730.2703"/><rect fill="#FFFFFF" height="25.0328" style="stroke:#181818;stroke-width:0.8000000000000002;" width="8" x="771.6" y="290.0484"/><rect fill="#FFFFFF" height="25.0328" style="stroke:#181818;stroke-width:0.8000000000000002;" width="8" x="771.6" y="780.3359"/><rect fill="#FFFFFF" height="25.0328" style="stroke:#181818;stroke-width:0.8000000000000002;" width="8" x="841.6" y="340.1141"/><rect fill="#FFFFFF" height="165.6609" style="stroke:#181818;stroke-width:0.8000000000000002;" width="8" x="915.2" y="390.1797"/><rect fill="#FFFFFF" height="25.0328" style="stroke:#181818;stroke-width:0.8000000000000002;" width="8" x="1128.8" y="830.4016"/><rect fill="#FFFFFF" height="165.6609" style="stroke:#181818;stroke-width:0.8000000000000002;" width="8" x="1226.4" y="880.4672"/><rect fill="#FFFFFF" height="25.0328" style="stroke:#181818;stroke-width:0.8000000000000002;" width="8" x="1469.2" y="1376.6188"/><polygon fill="#181818" points="314.4,136.9234,322.4,140.1234,314.4,143.3234,317.6,140.1234" style="stroke:#181818;stroke-width:0.8000000000000002;"/><line style="stroke:#181818;stroke-width:0.8000000000000002;" x1="44" x2="319.2" y1="140.1234" y2="140.1234"/><text fill="#000000" font-family="sans-serif" font-size="10.4" font-weight="bold" lengthAdjust="spacing" textLength="5.6" x="49.6" y="135.9133">1</text><text fill="#000000" font-family="sans-serif" font-size="10.4" lengthAdjust="spacing" textLength="212.8" x="58.4" y="135.9133">asks to assign team to an entry in the agenda</text><polygon fill="#181818" points="419.2,161.9563,427.2,165.1563,419.2,168.3563,422.4,165.1563" style="stroke:#181818;stroke-width:0.8000000000000002;"/><line style="stroke:#181818;stroke-width:0.8000000000000002;" x1="332" x2="424" y1="165.1563" y2="165.1563"/><text fill="#000000" font-family="sans-serif" font-size="10.4" font-weight="bold" lengthAdjust="spacing" textLength="5.6" x="337.6" y="160.9461">2</text><text fill="#000000" font-family="sans-serif" font-size="10.4" lengthAdjust="spacing" textLength="28.8" x="346.4" y="160.9461">create</text><rect fill="#E3E3E3" height="40.9938" rx="2" ry="2" style="stroke:#181818;stroke-width:0.4000000000000001;" width="164.8" x="428.8" y="146.5234"/><text fill="#000000" font-family="sans-serif" font-size="11.2" lengthAdjust="spacing" textLength="47.2" x="487.6" y="164.2094">controller</text><text fill="#000000" font-family="sans-serif" font-size="11.2" lengthAdjust="spacing" textLength="153.6" x="434.4" y="179.1063">:AssignTeamToTaskController</text><polygon fill="#181818" points="497.6,211.75,505.6,214.95,497.6,218.15,500.8,214.95" style="stroke:#181818;stroke-width:0.8000000000000002;"/><line style="stroke:#181818;stroke-width:0.8000000000000002;" x1="332" x2="502.4" y1="214.95" y2="214.95"/><text fill="#000000" font-family="sans-serif" font-size="10.4" font-weight="bold" lengthAdjust="spacing" textLength="5.6" x="337.6" y="210.7398">3</text><text fill="#000000" font-family="sans-serif" font-size="10.4" lengthAdjust="spacing" textLength="60" x="346.4" y="210.7398">getTaskList()</text><polygon fill="#181818" points="684.4,236.7828,692.4,239.9828,684.4,243.1828,687.6,239.9828" style="stroke:#181818;stroke-width:0.8000000000000002;"/><line style="stroke:#181818;stroke-width:0.8000000000000002;" x1="515.2" x2="689.2" y1="239.9828" y2="239.9828"/><text fill="#000000" font-family="sans-serif" font-size="10.4" font-weight="bold" lengthAdjust="spacing" textLength="5.6" x="520.8" y="235.7727">4</text><text fill="#000000" font-family="sans-serif" font-size="10.4" lengthAdjust="spacing" textLength="60" x="529.6" y="235.7727">getInstance()</text><polygon fill="#181818" points="524,261.8156,516,265.0156,524,268.2156,520.8,265.0156" style="stroke:#181818;stroke-width:0.8000000000000002;"/><line style="stroke:#181818;stroke-width:0.8000000000000002;stroke-dasharray:2.0,2.0;" x1="519.2" x2="697.2" y1="265.0156" y2="265.0156"/><text fill="#000000" font-family="sans-serif" font-size="10.4" font-weight="bold" lengthAdjust="spacing" textLength="5.6" x="528.8" y="260.8055">5</text><text fill="#000000" font-family="sans-serif" font-size="10.4" lengthAdjust="spacing" textLength="53.6" x="537.6" y="260.8055">repositories</text><polygon fill="#181818" points="762,286.8484,770,290.0484,762,293.2484,765.2,290.0484" style="stroke:#181818;stroke-width:0.8000000000000002;"/><line style="stroke:#181818;stroke-width:0.8000000000000002;" x1="515.2" x2="766.8" y1="290.0484" y2="290.0484"/><text fill="#000000" font-family="sans-serif" font-size="10.4" font-weight="bold" lengthAdjust="spacing" textLength="5.6" x="520.8" y="285.8383">6</text><text fill="#000000" font-family="sans-serif" font-size="10.4" lengthAdjust="spacing" textLength="56" x="529.6" y="285.8383">getAgenda()</text><polygon fill="#181818" points="524,311.8813,516,315.0813,524,318.2813,520.8,315.0813" style="stroke:#181818;stroke-width:0.8000000000000002;"/><line style="stroke:#181818;stroke-width:0.8000000000000002;stroke-dasharray:2.0,2.0;" x1="519.2" x2="774.8" y1="315.0813" y2="315.0813"/><text fill="#000000" font-family="sans-serif" font-size="10.4" font-weight="bold" lengthAdjust="spacing" textLength="5.6" x="528.8" y="310.8711">7</text><text fill="#000000" font-family="sans-serif" font-size="10.4" lengthAdjust="spacing" textLength="33.6" x="537.6" y="310.8711">agenda</text><polygon fill="#181818" points="832,336.9141,840,340.1141,832,343.3141,835.2,340.1141" style="stroke:#181818;stroke-width:0.8000000000000002;"/><line style="stroke:#181818;stroke-width:0.8000000000000002;" x1="515.2" x2="836.8" y1="340.1141" y2="340.1141"/><text fill="#000000" font-family="sans-serif" font-size="10.4" font-weight="bold" lengthAdjust="spacing" textLength="5.6" x="520.8" y="335.9039">8</text><text fill="#000000" font-family="sans-serif" font-size="10.4" lengthAdjust="spacing" textLength="60" x="529.6" y="335.9039">getTaskList()</text><polygon fill="#181818" points="524,361.9469,516,365.1469,524,368.3469,520.8,365.1469" style="stroke:#181818;stroke-width:0.8000000000000002;"/><line style="stroke:#181818;stroke-width:0.8000000000000002;stroke-dasharray:2.0,2.0;" x1="519.2" x2="844.8" y1="365.1469" y2="365.1469"/><text fill="#000000" font-family="sans-serif" font-size="10.4" font-weight="bold" lengthAdjust="spacing" textLength="5.6" x="528.8" y="360.9367">9</text><text fill="#000000" font-family="sans-serif" font-size="10.4" lengthAdjust="spacing" textLength="36.8" x="537.6" y="360.9367">taskList</text><polygon fill="#181818" points="905.6,386.9797,913.6,390.1797,905.6,393.3797,908.8,390.1797" style="stroke:#181818;stroke-width:0.8000000000000002;"/><line style="stroke:#181818;stroke-width:0.8000000000000002;" x1="515.2" x2="910.4" y1="390.1797" y2="390.1797"/><text fill="#000000" font-family="sans-serif" font-size="10.4" font-weight="bold" lengthAdjust="spacing" textLength="11.2" x="520.8" y="385.9695">10</text><text fill="#000000" font-family="sans-serif" font-size="10.4" lengthAdjust="spacing" textLength="114.4" x="535.2" y="385.9695">getTaskDTOlist(taskList)</text><path d="M872.4,402.1797 L930.8,402.1797 L930.8,409.6125 L922.8,417.6125 L872.4,417.6125 L872.4,402.1797 " fill="#EEEEEE" style="stroke:#000000;stroke-width:1.2000000000000002;"/><rect fill="none" height="129.4281" style="stroke:#000000;stroke-width:1.2000000000000002;" width="383.6" x="872.4" y="402.1797"/><text fill="#000000" font-family="sans-serif" font-size="10.4" font-weight="bold" lengthAdjust="spacing" textLength="22.4" x="884.4" y="414.2023">loop</text><text fill="#000000" font-family="sans-serif" font-size="8.8" font-weight="bold" lengthAdjust="spacing" textLength="112.8" x="942.8" y="413.2758">[for each task in taskList]</text><polygon fill="#181818" points="1003.2,433.0453,1011.2,436.2453,1003.2,439.4453,1006.4,436.2453" style="stroke:#181818;stroke-width:0.8000000000000002;"/><line style="stroke:#181818;stroke-width:0.8000000000000002;" x1="923.2" x2="1008" y1="436.2453" y2="436.2453"/><text fill="#000000" font-family="sans-serif" font-size="10.4" font-weight="bold" lengthAdjust="spacing" textLength="11.2" x="928.8" y="432.0352">11</text><text fill="#000000" font-family="sans-serif" font-size="10.4" lengthAdjust="spacing" textLength="56" x="943.2" y="432.0352">toDTO(task)</text><rect fill="#E3E3E3" height="26.0969" rx="2" ry="2" style="stroke:#181818;stroke-width:0.4000000000000001;" width="63.2" x="1012.8" y="417.6125"/><text fill="#000000" font-family="sans-serif" font-size="11.2" lengthAdjust="spacing" textLength="52" x="1018.4" y="435.2984">:TaskDTO</text><path d="M1048,456.5094 L1048,491.7094 L1248,491.7094 L1248,464.5094 L1240,456.5094 L1048,456.5094 " fill="#FAFAFA" style="stroke:#181818;stroke-width:0.4000000000000001;"/><path d="M1240,456.5094 L1240,464.5094 L1248,464.5094 L1240,456.5094 " fill="#FAFAFA" style="stroke:#181818;stroke-width:0.4000000000000001;"/><text fill="#000000" font-family="sans-serif" font-size="10.4" lengthAdjust="spacing" textLength="183.2" x="1052.8" y="471.732">TaskDTO contains the title, description,</text><text fill="#000000" font-family="sans-serif" font-size="10.4" lengthAdjust="spacing" textLength="140.8" x="1056" y="485.5648">status and urgency of the task</text><line style="stroke:#181818;stroke-width:0.8000000000000002;stroke-dasharray:2.0,2.0;" x1="923.2" x2="956.8" y1="514.8078" y2="514.8078"/><line style="stroke:#181818;stroke-width:0.8000000000000002;stroke-dasharray:2.0,2.0;" x1="956.8" x2="956.8" y1="514.8078" y2="525.2078"/><line style="stroke:#181818;stroke-width:0.8000000000000002;stroke-dasharray:2.0,2.0;" x1="924" x2="956.8" y1="525.2078" y2="525.2078"/><polygon fill="#181818" points="932,522.0078,924,525.2078,932,528.4078,928.8,525.2078" style="stroke:#181818;stroke-width:0.8000000000000002;"/><text fill="#000000" font-family="sans-serif" font-size="10.4" font-weight="bold" lengthAdjust="spacing" textLength="11.2" x="928.8" y="510.5977">12</text><text fill="#000000" font-family="sans-serif" font-size="10.4" lengthAdjust="spacing" textLength="66.4" x="943.2" y="510.5977">add(TaskDTO)</text><polygon fill="#181818" points="524,552.6406,516,555.8406,524,559.0406,520.8,555.8406" style="stroke:#181818;stroke-width:0.8000000000000002;"/><line style="stroke:#181818;stroke-width:0.8000000000000002;stroke-dasharray:2.0,2.0;" x1="519.2" x2="918.4" y1="555.8406" y2="555.8406"/><text fill="#000000" font-family="sans-serif" font-size="10.4" font-weight="bold" lengthAdjust="spacing" textLength="11.2" x="528.8" y="551.6305">13</text><text fill="#000000" font-family="sans-serif" font-size="10.4" lengthAdjust="spacing" textLength="57.6" x="543.2" y="551.6305">taskDTOList</text><polygon fill="#181818" points="340.8,577.6734,332.8,580.8734,340.8,584.0734,337.6,580.8734" style="stroke:#181818;stroke-width:0.8000000000000002;"/><line style="stroke:#181818;stroke-width:0.8000000000000002;stroke-dasharray:2.0,2.0;" x1="336" x2="510.4" y1="580.8734" y2="580.8734"/><text fill="#000000" font-family="sans-serif" font-size="10.4" font-weight="bold" lengthAdjust="spacing" textLength="11.2" x="345.6" y="576.6633">14</text><text fill="#000000" font-family="sans-serif" font-size="10.4" lengthAdjust="spacing" textLength="57.6" x="360" y="576.6633">taskDTOList</text><polygon fill="#181818" points="52.8,616.5391,44.8,619.7391,52.8,622.9391,49.6,619.7391" style="stroke:#181818;stroke-width:0.8000000000000002;"/><line style="stroke:#181818;stroke-width:0.8000000000000002;stroke-dasharray:2.0,2.0;" x1="48" x2="327.2" y1="619.7391" y2="619.7391"/><text fill="#000000" font-family="sans-serif" font-size="10.4" font-weight="bold" lengthAdjust="spacing" textLength="11.2" x="57.6" y="608.6125">15</text><text fill="#000000" font-family="sans-serif" font-size="10.4" lengthAdjust="spacing" textLength="184" x="72" y="601.6961">shows the list of taks in the agenda and</text><text fill="#000000" font-family="sans-serif" font-size="10.4" lengthAdjust="spacing" textLength="85.6" x="72" y="615.5289">asks to select one</text><polygon fill="#181818" points="314.4,641.5719,322.4,644.7719,314.4,647.9719,317.6,644.7719" style="stroke:#181818;stroke-width:0.8000000000000002;"/><line style="stroke:#181818;stroke-width:0.8000000000000002;" x1="44" x2="319.2" y1="644.7719" y2="644.7719"/><text fill="#000000" font-family="sans-serif" font-size="10.4" font-weight="bold" lengthAdjust="spacing" textLength="11.2" x="49.6" y="640.5617">16</text><text fill="#000000" font-family="sans-serif" font-size="10.4" lengthAdjust="spacing" textLength="65.6" x="64" y="640.5617">selects a task</text><line style="stroke:#181818;stroke-width:0.8000000000000002;stroke-dasharray:2.0,2.0;" x1="332" x2="365.6" y1="669.8047" y2="669.8047"/><line style="stroke:#181818;stroke-width:0.8000000000000002;stroke-dasharray:2.0,2.0;" x1="365.6" x2="365.6" y1="669.8047" y2="680.2047"/><line style="stroke:#181818;stroke-width:0.8000000000000002;stroke-dasharray:2.0,2.0;" x1="332.8" x2="365.6" y1="680.2047" y2="680.2047"/><polygon fill="#181818" points="340.8,677.0047,332.8,680.2047,340.8,683.4047,337.6,680.2047" style="stroke:#181818;stroke-width:0.8000000000000002;"/><text fill="#000000" font-family="sans-serif" font-size="10.4" font-weight="bold" lengthAdjust="spacing" textLength="11.2" x="337.6" y="665.5945">17</text><text fill="#000000" font-family="sans-serif" font-size="10.4" lengthAdjust="spacing" textLength="70.4" x="352" y="665.5945">keepData(task)</text><polygon fill="#181818" points="497.6,702.0375,505.6,705.2375,497.6,708.4375,500.8,705.2375" style="stroke:#181818;stroke-width:0.8000000000000002;"/><line style="stroke:#181818;stroke-width:0.8000000000000002;stroke-dasharray:2.0,2.0;" x1="332" x2="502.4" y1="705.2375" y2="705.2375"/><text fill="#000000" font-family="sans-serif" font-size="10.4" font-weight="bold" lengthAdjust="spacing" textLength="11.2" x="337.6" y="701.0273">18</text><text fill="#000000" font-family="sans-serif" font-size="10.4" lengthAdjust="spacing" textLength="63.2" x="352" y="701.0273">getTeamList()</text><polygon fill="#181818" points="684.4,727.0703,692.4,730.2703,684.4,733.4703,687.6,730.2703" style="stroke:#181818;stroke-width:0.8000000000000002;"/><line style="stroke:#181818;stroke-width:0.8000000000000002;" x1="515.2" x2="689.2" y1="730.2703" y2="730.2703"/><text fill="#000000" font-family="sans-serif" font-size="10.4" font-weight="bold" lengthAdjust="spacing" textLength="11.2" x="520.8" y="726.0602">19</text><text fill="#000000" font-family="sans-serif" font-size="10.4" lengthAdjust="spacing" textLength="60" x="535.2" y="726.0602">getInstance()</text><polygon fill="#181818" points="524,752.1031,516,755.3031,524,758.5031,520.8,755.3031" style="stroke:#181818;stroke-width:0.8000000000000002;"/><line style="stroke:#181818;stroke-width:0.8000000000000002;stroke-dasharray:2.0,2.0;" x1="519.2" x2="697.2" y1="755.3031" y2="755.3031"/><text fill="#000000" font-family="sans-serif" font-size="10.4" font-weight="bold" lengthAdjust="spacing" textLength="11.2" x="528.8" y="751.093">20</text><text fill="#000000" font-family="sans-serif" font-size="10.4" lengthAdjust="spacing" textLength="53.6" x="543.2" y="751.093">repositories</text><polygon fill="#181818" points="762,777.1359,770,780.3359,762,783.5359,765.2,780.3359" style="stroke:#181818;stroke-width:0.8000000000000002;"/><line style="stroke:#181818;stroke-width:0.8000000000000002;" x1="515.2" x2="766.8" y1="780.3359" y2="780.3359"/><text fill="#000000" font-family="sans-serif" font-size="10.4" font-weight="bold" lengthAdjust="spacing" textLength="11.2" x="520.8" y="776.1258">21</text><text fill="#000000" font-family="sans-serif" font-size="10.4" lengthAdjust="spacing" textLength="96" x="535.2" y="776.1258">getTeamRepository()</text><polygon fill="#181818" points="524,802.1688,516,805.3688,524,808.5688,520.8,805.3688" style="stroke:#181818;stroke-width:0.8000000000000002;"/><line style="stroke:#181818;stroke-width:0.8000000000000002;stroke-dasharray:2.0,2.0;" x1="519.2" x2="774.8" y1="805.3688" y2="805.3688"/><text fill="#000000" font-family="sans-serif" font-size="10.4" font-weight="bold" lengthAdjust="spacing" textLength="11.2" x="528.8" y="801.1586">22</text><text fill="#000000" font-family="sans-serif" font-size="10.4" lengthAdjust="spacing" textLength="72.8" x="543.2" y="801.1586">teamRepository</text><polygon fill="#181818" points="1119.2,827.2016,1127.2,830.4016,1119.2,833.6016,1122.4,830.4016" style="stroke:#181818;stroke-width:0.8000000000000002;"/><line style="stroke:#181818;stroke-width:0.8000000000000002;" x1="515.2" x2="1124" y1="830.4016" y2="830.4016"/><text fill="#000000" font-family="sans-serif" font-size="10.4" font-weight="bold" lengthAdjust="spacing" textLength="11.2" x="520.8" y="826.1914">23</text><text fill="#000000" font-family="sans-serif" font-size="10.4" lengthAdjust="spacing" textLength="63.2" x="535.2" y="826.1914">getTeamList()</text><polygon fill="#181818" points="524,852.2344,516,855.4344,524,858.6344,520.8,855.4344" style="stroke:#181818;stroke-width:0.8000000000000002;"/><line style="stroke:#181818;stroke-width:0.8000000000000002;stroke-dasharray:2.0,2.0;" x1="519.2" x2="1132" y1="855.4344" y2="855.4344"/><text fill="#000000" font-family="sans-serif" font-size="10.4" font-weight="bold" lengthAdjust="spacing" textLength="11.2" x="528.8" y="851.2242">24</text><text fill="#000000" font-family="sans-serif" font-size="10.4" lengthAdjust="spacing" textLength="40" x="543.2" y="851.2242">teamList</text><polygon fill="#181818" points="1216.8,877.2672,1224.8,880.4672,1216.8,883.6672,1220,880.4672" style="stroke:#181818;stroke-width:0.8000000000000002;"/><line style="stroke:#181818;stroke-width:0.8000000000000002;" x1="515.2" x2="1221.6" y1="880.4672" y2="880.4672"/><text fill="#000000" font-family="sans-serif" font-size="10.4" font-weight="bold" lengthAdjust="spacing" textLength="11.2" x="520.8" y="876.257">25</text><text fill="#000000" font-family="sans-serif" font-size="10.4" lengthAdjust="spacing" textLength="120.8" x="535.2" y="876.257">getTeamDTOlist(teamList)</text><path d="M1181.6,892.4672 L1240,892.4672 L1240,899.9 L1232,907.9 L1181.6,907.9 L1181.6,892.4672 " fill="#EEEEEE" style="stroke:#000000;stroke-width:1.2000000000000002;"/><rect fill="none" height="129.4281" style="stroke:#000000;stroke-width:1.2000000000000002;" width="368" x="1181.6" y="892.4672"/><text fill="#000000" font-family="sans-serif" font-size="10.4" font-weight="bold" lengthAdjust="spacing" textLength="22.4" x="1193.6" y="904.4898">loop</text><text fill="#000000" font-family="sans-serif" font-size="8.8" font-weight="bold" lengthAdjust="spacing" textLength="136" x="1252" y="903.5633">[for each team in the teamList]</text><polygon fill="#181818" points="1317.6,923.3328,1325.6,926.5328,1317.6,929.7328,1320.8,926.5328" style="stroke:#181818;stroke-width:0.8000000000000002;"/><line style="stroke:#181818;stroke-width:0.8000000000000002;" x1="1234.4" x2="1322.4" y1="926.5328" y2="926.5328"/><text fill="#000000" font-family="sans-serif" font-size="10.4" font-weight="bold" lengthAdjust="spacing" textLength="11.2" x="1240" y="922.3227">26</text><text fill="#000000" font-family="sans-serif" font-size="10.4" lengthAdjust="spacing" textLength="59.2" x="1254.4" y="922.3227">toDTO(team)</text><rect fill="#E3E3E3" height="26.0969" rx="2" ry="2" style="stroke:#181818;stroke-width:0.4000000000000001;" width="67.2" x="1327.2" y="907.9"/><text fill="#000000" font-family="sans-serif" font-size="11.2" lengthAdjust="spacing" textLength="56" x="1332.8" y="925.5859">:TeamDTO</text><path d="M1364.8,946.7969 L1364.8,981.9969 L1541.6,981.9969 L1541.6,954.7969 L1533.6,946.7969 L1364.8,946.7969 " fill="#FAFAFA" style="stroke:#181818;stroke-width:0.4000000000000001;"/><path d="M1533.6,946.7969 L1533.6,954.7969 L1541.6,954.7969 L1533.6,946.7969 " fill="#FAFAFA" style="stroke:#181818;stroke-width:0.4000000000000001;"/><text fill="#000000" font-family="sans-serif" font-size="10.4" lengthAdjust="spacing" textLength="160" x="1369.6" y="962.0195">TeamDTO contains the name of all</text><text fill="#000000" font-family="sans-serif" font-size="10.4" lengthAdjust="spacing" textLength="116" x="1369.6" y="975.8523">the members of the team</text><line style="stroke:#181818;stroke-width:0.8000000000000002;stroke-dasharray:2.0,2.0;" x1="1234.4" x2="1268" y1="1005.0953" y2="1005.0953"/><line style="stroke:#181818;stroke-width:0.8000000000000002;stroke-dasharray:2.0,2.0;" x1="1268" x2="1268" y1="1005.0953" y2="1015.4953"/><line style="stroke:#181818;stroke-width:0.8000000000000002;stroke-dasharray:2.0,2.0;" x1="1235.2" x2="1268" y1="1015.4953" y2="1015.4953"/><polygon fill="#181818" points="1243.2,1012.2953,1235.2,1015.4953,1243.2,1018.6953,1240,1015.4953" style="stroke:#181818;stroke-width:0.8000000000000002;"/><text fill="#000000" font-family="sans-serif" font-size="10.4" font-weight="bold" lengthAdjust="spacing" textLength="11.2" x="1240" y="1000.8852">27</text><text fill="#000000" font-family="sans-serif" font-size="10.4" lengthAdjust="spacing" textLength="69.6" x="1254.4" y="1000.8852">add(TeamDTO)</text><polygon fill="#181818" points="524,1042.9281,516,1046.1281,524,1049.3281,520.8,1046.1281" style="stroke:#181818;stroke-width:0.8000000000000002;"/><line style="stroke:#181818;stroke-width:0.8000000000000002;stroke-dasharray:2.0,2.0;" x1="519.2" x2="1229.6" y1="1046.1281" y2="1046.1281"/><text fill="#000000" font-family="sans-serif" font-size="10.4" font-weight="bold" lengthAdjust="spacing" textLength="11.2" x="528.8" y="1041.918">28</text><text fill="#000000" font-family="sans-serif" font-size="10.4" lengthAdjust="spacing" textLength="60.8" x="543.2" y="1041.918">teamDTOList</text><polygon fill="#181818" points="340.8,1067.9609,332.8,1071.1609,340.8,1074.3609,337.6,1071.1609" style="stroke:#181818;stroke-width:0.8000000000000002;"/><line style="stroke:#181818;stroke-width:0.8000000000000002;stroke-dasharray:2.0,2.0;" x1="336" x2="510.4" y1="1071.1609" y2="1071.1609"/><text fill="#000000" font-family="sans-serif" font-size="10.4" font-weight="bold" lengthAdjust="spacing" textLength="11.2" x="345.6" y="1066.9508">29</text><text fill="#000000" font-family="sans-serif" font-size="10.4" lengthAdjust="spacing" textLength="60.8" x="360" y="1066.9508">teamDTOList</text><polygon fill="#181818" points="52.8,1092.9938,44.8,1096.1938,52.8,1099.3938,49.6,1096.1938" style="stroke:#181818;stroke-width:0.8000000000000002;"/><line style="stroke:#181818;stroke-width:0.8000000000000002;stroke-dasharray:2.0,2.0;" x1="48" x2="327.2" y1="1096.1938" y2="1096.1938"/><text fill="#000000" font-family="sans-serif" font-size="10.4" font-weight="bold" lengthAdjust="spacing" textLength="11.2" x="57.6" y="1091.9836">30</text><text fill="#000000" font-family="sans-serif" font-size="10.4" lengthAdjust="spacing" textLength="216" x="72" y="1091.9836">shows the list of teams and asks to select one</text><polygon fill="#181818" points="314.4,1118.0266,322.4,1121.2266,314.4,1124.4266,317.6,1121.2266" style="stroke:#181818;stroke-width:0.8000000000000002;"/><line style="stroke:#181818;stroke-width:0.8000000000000002;" x1="44" x2="319.2" y1="1121.2266" y2="1121.2266"/><text fill="#000000" font-family="sans-serif" font-size="10.4" font-weight="bold" lengthAdjust="spacing" textLength="11.2" x="49.6" y="1117.0164">31</text><text fill="#000000" font-family="sans-serif" font-size="10.4" lengthAdjust="spacing" textLength="68.8" x="64" y="1117.0164">selects a team</text><line style="stroke:#181818;stroke-width:0.8000000000000002;stroke-dasharray:2.0,2.0;" x1="332" x2="365.6" y1="1146.2594" y2="1146.2594"/><line style="stroke:#181818;stroke-width:0.8000000000000002;stroke-dasharray:2.0,2.0;" x1="365.6" x2="365.6" y1="1146.2594" y2="1156.6594"/><line style="stroke:#181818;stroke-width:0.8000000000000002;stroke-dasharray:2.0,2.0;" x1="332.8" x2="365.6" y1="1156.6594" y2="1156.6594"/><polygon fill="#181818" points="340.8,1153.4594,332.8,1156.6594,340.8,1159.8594,337.6,1156.6594" style="stroke:#181818;stroke-width:0.8000000000000002;"/><text fill="#000000" font-family="sans-serif" font-size="10.4" font-weight="bold" lengthAdjust="spacing" textLength="11.2" x="337.6" y="1142.0492">32</text><text fill="#000000" font-family="sans-serif" font-size="10.4" lengthAdjust="spacing" textLength="73.6" x="352" y="1142.0492">keepData(team)</text><polygon fill="#181818" points="52.8,1192.325,44.8,1195.525,52.8,1198.725,49.6,1195.525" style="stroke:#181818;stroke-width:0.8000000000000002;"/><line style="stroke:#181818;stroke-width:0.8000000000000002;stroke-dasharray:2.0,2.0;" x1="48" x2="327.2" y1="1195.525" y2="1195.525"/><text fill="#000000" font-family="sans-serif" font-size="10.4" font-weight="bold" lengthAdjust="spacing" textLength="11.2" x="57.6" y="1184.3984">33</text><text fill="#000000" font-family="sans-serif" font-size="10.4" lengthAdjust="spacing" textLength="246.4" x="72" y="1177.482">shows the task and the team about to be assigned to</text><text fill="#000000" font-family="sans-serif" font-size="10.4" lengthAdjust="spacing" textLength="156.8" x="72" y="1191.3148">that ask and asks for confirmation</text><polygon fill="#181818" points="314.4,1217.3578,322.4,1220.5578,314.4,1223.7578,317.6,1220.5578" style="stroke:#181818;stroke-width:0.8000000000000002;"/><line style="stroke:#181818;stroke-width:0.8000000000000002;" x1="44" x2="319.2" y1="1220.5578" y2="1220.5578"/><text fill="#000000" font-family="sans-serif" font-size="10.4" font-weight="bold" lengthAdjust="spacing" textLength="11.2" x="49.6" y="1216.3477">34</text><text fill="#000000" font-family="sans-serif" font-size="10.4" lengthAdjust="spacing" textLength="84.8" x="64" y="1216.3477">confirms operation</text><polygon fill="#181818" points="497.6,1242.3906,505.6,1245.5906,497.6,1248.7906,500.8,1245.5906" style="stroke:#181818;stroke-width:0.8000000000000002;"/><line style="stroke:#181818;stroke-width:0.8000000000000002;stroke-dasharray:2.0,2.0;" x1="332" x2="502.4" y1="1245.5906" y2="1245.5906"/><text fill="#000000" font-family="sans-serif" font-size="10.4" font-weight="bold" lengthAdjust="spacing" textLength="11.2" x="337.6" y="1241.3805">35</text><text fill="#000000" font-family="sans-serif" font-size="10.4" lengthAdjust="spacing" textLength="145.6" x="352" y="1241.3805">assignTeamToTask(task, team)</text><polygon fill="#181818" points="624,1267.4234,632,1270.6234,624,1273.8234,627.2,1270.6234" style="stroke:#181818;stroke-width:0.8000000000000002;"/><line style="stroke:#181818;stroke-width:0.8000000000000002;" x1="515.2" x2="628.8" y1="1270.6234" y2="1270.6234"/><text fill="#000000" font-family="sans-serif" font-size="10.4" font-weight="bold" lengthAdjust="spacing" textLength="11.2" x="520.8" y="1266.4133">36</text><text fill="#000000" font-family="sans-serif" font-size="10.4" lengthAdjust="spacing" textLength="69.6" x="535.2" y="1266.4133">setTeam(team)</text><polygon fill="#181818" points="524,1292.4563,516,1295.6563,524,1298.8563,520.8,1295.6563" style="stroke:#181818;stroke-width:0.8000000000000002;"/><line style="stroke:#181818;stroke-width:0.8000000000000002;stroke-dasharray:2.0,2.0;" x1="519.2" x2="636.8" y1="1295.6563" y2="1295.6563"/><text fill="#000000" font-family="sans-serif" font-size="10.4" font-weight="bold" lengthAdjust="spacing" textLength="11.2" x="528.8" y="1291.4461">37</text><text fill="#000000" font-family="sans-serif" font-size="10.4" lengthAdjust="spacing" textLength="84.8" x="543.2" y="1291.4461">operation success</text><path d="M420.8,1307.6563 L479.2,1307.6563 L479.2,1315.0891 L471.2,1323.0891 L420.8,1323.0891 L420.8,1307.6563 " fill="#EEEEEE" style="stroke:#000000;stroke-width:1.2000000000000002;"/><rect fill="none" height="100.3953" style="stroke:#000000;stroke-width:1.2000000000000002;" width="1084.8" x="420.8" y="1307.6563"/><text fill="#000000" font-family="sans-serif" font-size="10.4" font-weight="bold" lengthAdjust="spacing" textLength="22.4" x="432.8" y="1319.6789">loop</text><text fill="#000000" font-family="sans-serif" font-size="8.8" font-weight="bold" lengthAdjust="spacing" textLength="139.2" x="491.2" y="1318.7523">[for every member in the team]</text><polygon fill="#181818" points="1392.8,1338.5219,1400.8,1341.7219,1392.8,1344.9219,1396,1341.7219" style="stroke:#181818;stroke-width:0.8000000000000002;"/><line style="stroke:#181818;stroke-width:0.8000000000000002;" x1="515.2" x2="1397.6" y1="1341.7219" y2="1341.7219"/><text fill="#000000" font-family="sans-serif" font-size="10.4" font-weight="bold" lengthAdjust="spacing" textLength="11.2" x="520.8" y="1337.5117">38</text><text fill="#000000" font-family="sans-serif" font-size="10.4" lengthAdjust="spacing" textLength="161.6" x="535.2" y="1337.5117">new Email(collaboratorName, task)</text><rect fill="#E3E3E3" height="26.0969" rx="2" ry="2" style="stroke:#181818;stroke-width:0.4000000000000001;" width="38.4" x="1402.4" y="1323.0891"/><text fill="#000000" font-family="sans-serif" font-size="11.2" lengthAdjust="spacing" textLength="27.2" x="1408" y="1340.775">Email</text><polygon fill="#181818" points="1459.6,1373.4188,1467.6,1376.6188,1459.6,1379.8188,1462.8,1376.6188" style="stroke:#181818;stroke-width:0.8000000000000002;"/><line style="stroke:#181818;stroke-width:0.8000000000000002;" x1="515.2" x2="1464.4" y1="1376.6188" y2="1376.6188"/><text fill="#000000" font-family="sans-serif" font-size="10.4" font-weight="bold" lengthAdjust="spacing" textLength="11.2" x="520.8" y="1372.4086">39</text><text fill="#000000" font-family="sans-serif" font-size="10.4" lengthAdjust="spacing" textLength="166.4" x="535.2" y="1372.4086">sendEmail(collaboratorEmail, email)</text><polygon fill="#181818" points="524,1398.4516,516,1401.6516,524,1404.8516,520.8,1401.6516" style="stroke:#181818;stroke-width:0.8000000000000002;"/><line style="stroke:#181818;stroke-width:0.8000000000000002;stroke-dasharray:2.0,2.0;" x1="519.2" x2="1472.4" y1="1401.6516" y2="1401.6516"/><text fill="#000000" font-family="sans-serif" font-size="10.4" font-weight="bold" lengthAdjust="spacing" textLength="11.2" x="528.8" y="1397.4414">40</text><text fill="#000000" font-family="sans-serif" font-size="10.4" lengthAdjust="spacing" textLength="84.8" x="543.2" y="1397.4414">operation success</text><polygon fill="#181818" points="340.8,1429.0844,332.8,1432.2844,340.8,1435.4844,337.6,1432.2844" style="stroke:#181818;stroke-width:0.8000000000000002;"/><line style="stroke:#181818;stroke-width:0.8000000000000002;stroke-dasharray:2.0,2.0;" x1="336" x2="510.4" y1="1432.2844" y2="1432.2844"/><text fill="#000000" font-family="sans-serif" font-size="10.4" font-weight="bold" lengthAdjust="spacing" textLength="11.2" x="345.6" y="1428.0742">41</text><text fill="#000000" font-family="sans-serif" font-size="10.4" lengthAdjust="spacing" textLength="84.8" x="360" y="1428.0742">operation success</text><polygon fill="#181818" points="48.8,1454.1172,40.8,1457.3172,48.8,1460.5172,45.6,1457.3172" style="stroke:#181818;stroke-width:0.8000000000000002;"/><line style="stroke:#181818;stroke-width:0.8000000000000002;stroke-dasharray:2.0,2.0;" x1="44" x2="327.2" y1="1457.3172" y2="1457.3172"/><text fill="#000000" font-family="sans-serif" font-size="10.4" font-weight="bold" lengthAdjust="spacing" textLength="11.2" x="53.6" y="1453.107">42</text><text fill="#000000" font-family="sans-serif" font-size="10.4" lengthAdjust="spacing" textLength="117.6" x="68" y="1453.107">shows operation success</text><!--SRC=[tLVBRkCu4BpxAnev9O7p0pui42I3GO39P10xDryOkMCJbaaDIIV8tsytASgaHCcxsJsDBfR8wcQn7qNQxgLgX147E6YbgvtH1mHdZZYptKmZghtOuj9zrWW6AoVKjau1TYSs-aEgBRo9sk9ivgGZw19_7r5L2FTIR1btkRo_WXkuhHqQ9PnyHtXI11T7fzNny8g6tYkd3LnyDuWAbhGqhjMZKBI-kG1XuVloSKQhEbd9HYW75ujRQ-LMhL0SLdebxFxbmGDV7d9SfPKpkgxHhDN0vgwRzBPtg-SVkRKZq6Aj6EiH_DBZyOoDjfBOVth4yxTVJpd2H814InmA-0TbARWLvdQqTxKHpDg_U7HuxJ5WKe-YQTfTd3uBkFlLKmUYzzvkAJ0dUhJoAXi8XZmqsAD7fXowpmAkun3UVVBbkt3eipm3UkW5RlwYP2u8kBVWDFroxe0v-ay5ICdx14bZEuGGBM_SkQDQy0Fyl3omGyxmzJKie398YCBi0hReE3e_f7MNLnsYS-gBf1lcXqVOdCFYpMC-4_FCXOzVDiKFZy9DIuCefdMJWJSuuIab4tbuKg5qfYXrPLYa5cTJYadGHyYLVKQIWTDOo3E2RUKFg8Nnb9HhFOtHAdcAX4wzqv6Y2gsPLtGxmY_fEW-ejMxWZJID5jvvJhvIIzpuEPb76hJkzJNjHjEBN_ngOAGqBMpaTkT0ltKj3OMddGDMGo6LzItZvNfEeR6LaOsJMisBna0fT4TBBRU1ew7eLP-yddV1UjY7KtWzjSbDPi7cKjfiBbkMOQFiXODupakITRATIdm_HNdolToCE4gSvEtFka6695SBEWxrHmWirukFa23folI9OxXMKT8irdIiWbOXLCagKRaw7IHY0KrfE4KznVSeiNJk4PjxuKHRFdr86pckSnBLFqtlyhFh_zMz_A3yklx5mtGi2Rd2n9Dts17jJ9_YP3CKlQN4KXqC9tNGmTRn1Ci97UJJk-s88iEudKGBmzg95jB0MIrihnP5BGnpkHOgGHTWCXHrNJHYp07vhcexxIC__qBxaarb0OxQ5rYTqxxSIvBhSzhNIyk8zXKSVLNxo5KuClwpsiKuZzxh1dANLKYPfp-HcLvC9OXNVNHCz1NRooRIh5uhjnCE8jplXkkPokTDceFWS_FiXXOHJjL3EJWPJUqfNh9wVrgyciyXt-G_a6kszO7rxLnee-oWd1NFtPHNjn6mnwf2QwVEtMpkf0dlI3Vuq5UfB1JvVpi8MVlBkyAFy7LPqPytoXlnqEOdjV0SXZUbpDxtcwN-6jhxaJaW_um4fdKnZ4tq_PNmHATz6Ha8GDwhu_xx7JlU26KVlK9EFld_sTy0]--></g></svg>