<?xml version="1.0" encoding="us-ascii" standalone="no"?><svg xmlns="http://www.w3.org/2000/svg" xmlns:xlink="http://www.w3.org/1999/xlink" contentStyleType="text/css" height="1534.4px" preserveAspectRatio="none" style="width:1605px;height:1534px;background:#FFFFFF;" version="1.1" viewBox="0 0 1605 1534" width="1605.6px" zoomAndPan="magnify"><defs/><g><text fill="#000000" font-family="sans-serif" font-size="11.2" font-weight="bold" lengthAdjust="spacing" textLength="150.4" x="728.6" y="24.0859">US023 - Sequence Diagram</text><rect fill="#FFFFFF" height="1325.0625" style="stroke:#181818;stroke-width:0.8000000000000002;" width="8" x="48" y="121.4906"/><rect fill="#FFFFFF" height="181.3344" style="stroke:#181818;stroke-width:0.8000000000000002;" width="8" x="292.8" y="140.1234"/><rect fill="#FFFFFF" height="155.3313" style="stroke:#181818;stroke-width:0.8000000000000002;" width="8" x="292.8" y="346.4906"/><rect fill="#FFFFFF" height="658.9313" style="stroke:#181818;stroke-width:0.8000000000000002;" width="8" x="292.8" y="780.4219"/><rect fill="#FFFFFF" height="167.5016" style="stroke:#181818;stroke-width:0.8000000000000002;" width="8" x="504" y="501.8219"/><rect fill="#FFFFFF" height="86.0656" style="stroke:#181818;stroke-width:0.8000000000000002;" width="8" x="504" y="694.3563"/><rect fill="#FFFFFF" height="96.4031" style="stroke:#181818;stroke-width:0.8000000000000002;" width="8" x="651.2" y="165.1563"/><rect fill="#FFFFFF" height="76.4031" style="stroke:#181818;stroke-width:0.8000000000000002;" width="8" x="813.6" y="526.8547"/><rect fill="#FFFFFF" height="533.4328" style="stroke:#181818;stroke-width:0.8000000000000002;" width="8" x="813.6" y="880.8875"/><rect fill="#FFFFFF" height="25.0328" style="stroke:#181818;stroke-width:0.8000000000000002;" width="8" x="963.2" y="992.7234"/><rect fill="#FFFFFF" height="25.0328" style="stroke:#181818;stroke-width:0.8000000000000002;" width="8" x="1048.8" y="1042.7891"/><rect fill="#FFFFFF" height="178.4297" style="stroke:#181818;stroke-width:0.8000000000000002;" width="8" x="1240.8" y="1092.8547"/><rect fill="#FFFFFF" height="47.9297" style="stroke:#181818;stroke-width:0.8000000000000002;" width="8" x="1382" y="1125.8875"/><rect fill="none" height="134.7641" style="stroke:#000000;stroke-width:1.2000000000000002;" width="430.4" x="8" y="273.5594"/><rect fill="none" height="100.9313" style="stroke:#000000;stroke-width:1.2000000000000002;" width="647.2" x="8" y="635.2578"/><rect fill="none" height="107.3" style="stroke:#000000;stroke-width:1.2000000000000002;" width="240.4" x="1360" y="1139.7516"/><rect fill="none" height="106.8031" style="stroke:#000000;stroke-width:1.2000000000000002;" width="268.8" x="706.8" y="1283.2844"/><line style="stroke:#181818;stroke-width:0.4000000000000001;stroke-dasharray:5.0,5.0;" x1="52" x2="52" y1="113.4906" y2="1453.7531"/><line style="stroke:#181818;stroke-width:0.4000000000000001;stroke-dasharray:5.0,5.0;" x1="296.4" x2="296.4" y1="113.4906" y2="1453.7531"/><line style="stroke:#181818;stroke-width:0.4000000000000001;stroke-dasharray:5.0,5.0;" x1="508" x2="508" y1="113.4906" y2="1453.7531"/><line style="stroke:#181818;stroke-width:0.4000000000000001;stroke-dasharray:5.0,5.0;" x1="654.8" x2="654.8" y1="113.4906" y2="1453.7531"/><line style="stroke:#181818;stroke-width:0.4000000000000001;stroke-dasharray:5.0,5.0;" x1="817.2" x2="817.2" y1="113.4906" y2="1453.7531"/><line style="stroke:#181818;stroke-width:0.4000000000000001;stroke-dasharray:5.0,5.0;" x1="966.8" x2="966.8" y1="113.4906" y2="1453.7531"/><line style="stroke:#181818;stroke-width:0.4000000000000001;stroke-dasharray:5.0,5.0;" x1="1052.4" x2="1052.4" y1="113.4906" y2="1453.7531"/><line style="stroke:#181818;stroke-width:0.4000000000000001;stroke-dasharray:5.0,5.0;" x1="1244.4" x2="1244.4" y1="113.4906" y2="1453.7531"/><line style="stroke:#181818;stroke-width:0.4000000000000001;stroke-dasharray:5.0,5.0;" x1="1385.6" x2="1385.6" y1="1124.7031" y2="1453.7531"/><line style="stroke:#181818;stroke-width:0.4000000000000001;stroke-dasharray:5.0,5.0;" x1="1572.4" x2="1572.4" y1="1180.6328" y2="1453.7531"/><text fill="#000000" font-family="sans-serif" font-size="11.2" lengthAdjust="spacing" textLength="67.2" x="16" y="95.7828">Green Space</text><text fill="#000000" font-family="sans-serif" font-size="11.2" lengthAdjust="spacing" textLength="44.8" x="27.2" y="110.6797">Manager</text><ellipse cx="52" cy="42.4969" fill="#E3E3E3" rx="6.4" ry="6.4" style="stroke:#181818;stroke-width:0.4000000000000001;"/><path d="M52,48.8969 L52,70.4969 M41.6,55.2969 L62.4,55.2969 M52,70.4969 L41.6,82.4969 M52,70.4969 L62.4,82.4969 " fill="none" style="stroke:#181818;stroke-width:0.4000000000000001;"/><text fill="#000000" font-family="sans-serif" font-size="11.2" lengthAdjust="spacing" textLength="67.2" x="16" y="1465.0391">Green Space</text><text fill="#000000" font-family="sans-serif" font-size="11.2" lengthAdjust="spacing" textLength="44.8" x="27.2" y="1479.9359">Manager</text><ellipse cx="52" cy="1489.5469" fill="#E3E3E3" rx="6.4" ry="6.4" style="stroke:#181818;stroke-width:0.4000000000000001;"/><path d="M52,1495.9469 L52,1517.5469 M41.6,1502.3469 L62.4,1502.3469 M52,1517.5469 L41.6,1529.5469 M52,1517.5469 L62.4,1529.5469 " fill="none" style="stroke:#181818;stroke-width:0.4000000000000001;"/><rect fill="#E3E3E3" height="26.0969" rx="2" ry="2" style="stroke:#181818;stroke-width:0.4000000000000001;" width="63.2" x="265.2" y="86.5938"/><text fill="#000000" font-family="sans-serif" font-size="11.2" lengthAdjust="spacing" textLength="52" x="270.8" y="104.2797">:AgendaUI</text><rect fill="#E3E3E3" height="26.0969" rx="2" ry="2" style="stroke:#181818;stroke-width:0.4000000000000001;" width="63.2" x="265.2" y="1452.9531"/><text fill="#000000" font-family="sans-serif" font-size="11.2" lengthAdjust="spacing" textLength="52" x="270.8" y="1470.6391">:AgendaUI</text><rect fill="#E3E3E3" height="26.0969" rx="2" ry="2" style="stroke:#181818;stroke-width:0.4000000000000001;" width="116.8" x="449.6" y="86.5938"/><text fill="#000000" font-family="sans-serif" font-size="11.2" lengthAdjust="spacing" textLength="105.6" x="455.2" y="104.2797">:SelectTeamPopupUI</text><rect fill="#E3E3E3" height="26.0969" rx="2" ry="2" style="stroke:#181818;stroke-width:0.4000000000000001;" width="116.8" x="449.6" y="1452.9531"/><text fill="#000000" font-family="sans-serif" font-size="11.2" lengthAdjust="spacing" textLength="105.6" x="455.2" y="1470.6391">:SelectTeamPopupUI</text><rect fill="#E3E3E3" height="26.0969" rx="2" ry="2" style="stroke:#181818;stroke-width:0.4000000000000001;" width="103.2" x="603.6" y="86.5938"/><text fill="#000000" font-family="sans-serif" font-size="11.2" lengthAdjust="spacing" textLength="92" x="609.2" y="104.2797">:AgendaController</text><rect fill="#E3E3E3" height="26.0969" rx="2" ry="2" style="stroke:#181818;stroke-width:0.4000000000000001;" width="103.2" x="603.6" y="1452.9531"/><text fill="#000000" font-family="sans-serif" font-size="11.2" lengthAdjust="spacing" textLength="92" x="609.2" y="1470.6391">:AgendaController</text><rect fill="#E3E3E3" height="26.0969" rx="2" ry="2" style="stroke:#181818;stroke-width:0.4000000000000001;" width="205.6" x="714.8" y="86.5938"/><text fill="#000000" font-family="sans-serif" font-size="11.2" lengthAdjust="spacing" textLength="194.4" x="720.4" y="104.2797">:AssignTeamToEntryAgendaController</text><rect fill="#E3E3E3" height="26.0969" rx="2" ry="2" style="stroke:#181818;stroke-width:0.4000000000000001;" width="205.6" x="714.8" y="1452.9531"/><text fill="#000000" font-family="sans-serif" font-size="11.2" lengthAdjust="spacing" textLength="194.4" x="720.4" y="1470.6391">:AssignTeamToEntryAgendaController</text><rect fill="#E3E3E3" height="26.0969" rx="2" ry="2" style="stroke:#181818;stroke-width:0.4000000000000001;" width="77.6" x="928.4" y="86.5938"/><text fill="#000000" font-family="sans-serif" font-size="11.2" lengthAdjust="spacing" textLength="66.4" x="934" y="104.2797">:Repositories</text><rect fill="#E3E3E3" height="26.0969" rx="2" ry="2" style="stroke:#181818;stroke-width:0.4000000000000001;" width="77.6" x="928.4" y="1452.9531"/><text fill="#000000" font-family="sans-serif" font-size="11.2" lengthAdjust="spacing" textLength="66.4" x="934" y="1470.6391">:Repositories</text><rect fill="#E3E3E3" height="40.9938" rx="2" ry="2" style="stroke:#181818;stroke-width:0.4000000000000001;" width="77.6" x="1014" y="71.6969"/><text fill="#000000" font-family="sans-serif" font-size="11.2" lengthAdjust="spacing" textLength="59.2" x="1023.2" y="89.3828">repositories</text><text fill="#000000" font-family="sans-serif" font-size="11.2" lengthAdjust="spacing" textLength="66.4" x="1019.6" y="104.2797">:Repositories</text><rect fill="#E3E3E3" height="40.9938" rx="2" ry="2" style="stroke:#181818;stroke-width:0.4000000000000001;" width="77.6" x="1014" y="1452.9531"/><text fill="#000000" font-family="sans-serif" font-size="11.2" lengthAdjust="spacing" textLength="59.2" x="1023.2" y="1470.6391">repositories</text><text fill="#000000" font-family="sans-serif" font-size="11.2" lengthAdjust="spacing" textLength="66.4" x="1019.6" y="1485.5359">:Repositories</text><rect fill="#E3E3E3" height="40.9938" rx="2" ry="2" style="stroke:#181818;stroke-width:0.4000000000000001;" width="108" x="1190.8" y="71.6969"/><text fill="#000000" font-family="sans-serif" font-size="11.2" lengthAdjust="spacing" textLength="92.8" x="1198.4" y="89.3828">agendaRepository</text><text fill="#000000" font-family="sans-serif" font-size="11.2" lengthAdjust="spacing" textLength="96.8" x="1196.4" y="104.2797">:AgendaRepository</text><rect fill="#E3E3E3" height="40.9938" rx="2" ry="2" style="stroke:#181818;stroke-width:0.4000000000000001;" width="108" x="1190.8" y="1452.9531"/><text fill="#000000" font-family="sans-serif" font-size="11.2" lengthAdjust="spacing" textLength="92.8" x="1198.4" y="1470.6391">agendaRepository</text><text fill="#000000" font-family="sans-serif" font-size="11.2" lengthAdjust="spacing" textLength="96.8" x="1196.4" y="1485.5359">:AgendaRepository</text><rect fill="#E3E3E3" height="26.0969" rx="2" ry="2" style="stroke:#181818;stroke-width:0.4000000000000001;" width="36" x="1368" y="1452.9531"/><text fill="#000000" font-family="sans-serif" font-size="11.2" lengthAdjust="spacing" textLength="24.8" x="1373.6" y="1470.6391">Task</text><rect fill="#E3E3E3" height="26.0969" rx="2" ry="2" style="stroke:#181818;stroke-width:0.4000000000000001;" width="40" x="1552.4" y="1452.9531"/><text fill="#000000" font-family="sans-serif" font-size="11.2" lengthAdjust="spacing" textLength="28.8" x="1558" y="1470.6391">Team</text><rect fill="#FFFFFF" height="1325.0625" style="stroke:#181818;stroke-width:0.8000000000000002;" width="8" x="48" y="121.4906"/><rect fill="#FFFFFF" height="181.3344" style="stroke:#181818;stroke-width:0.8000000000000002;" width="8" x="292.8" y="140.1234"/><rect fill="#FFFFFF" height="155.3313" style="stroke:#181818;stroke-width:0.8000000000000002;" width="8" x="292.8" y="346.4906"/><rect fill="#FFFFFF" height="658.9313" style="stroke:#181818;stroke-width:0.8000000000000002;" width="8" x="292.8" y="780.4219"/><rect fill="#FFFFFF" height="167.5016" style="stroke:#181818;stroke-width:0.8000000000000002;" width="8" x="504" y="501.8219"/><rect fill="#FFFFFF" height="86.0656" style="stroke:#181818;stroke-width:0.8000000000000002;" width="8" x="504" y="694.3563"/><rect fill="#FFFFFF" height="96.4031" style="stroke:#181818;stroke-width:0.8000000000000002;" width="8" x="651.2" y="165.1563"/><rect fill="#FFFFFF" height="76.4031" style="stroke:#181818;stroke-width:0.8000000000000002;" width="8" x="813.6" y="526.8547"/><rect fill="#FFFFFF" height="533.4328" style="stroke:#181818;stroke-width:0.8000000000000002;" width="8" x="813.6" y="880.8875"/><rect fill="#FFFFFF" height="25.0328" style="stroke:#181818;stroke-width:0.8000000000000002;" width="8" x="963.2" y="992.7234"/><rect fill="#FFFFFF" height="25.0328" style="stroke:#181818;stroke-width:0.8000000000000002;" width="8" x="1048.8" y="1042.7891"/><rect fill="#FFFFFF" height="178.4297" style="stroke:#181818;stroke-width:0.8000000000000002;" width="8" x="1240.8" y="1092.8547"/><rect fill="#FFFFFF" height="47.9297" style="stroke:#181818;stroke-width:0.8000000000000002;" width="8" x="1382" y="1125.8875"/><polygon fill="#181818" points="283.2,136.9234,291.2,140.1234,283.2,143.3234,286.4,140.1234" style="stroke:#181818;stroke-width:0.8000000000000002;"/><line style="stroke:#181818;stroke-width:0.8000000000000002;" x1="56" x2="288" y1="140.1234" y2="140.1234"/><text fill="#000000" font-family="sans-serif" font-size="10.4" font-weight="bold" lengthAdjust="spacing" textLength="5.6" x="61.6" y="135.9133">1</text><text fill="#000000" font-family="sans-serif" font-size="10.4" lengthAdjust="spacing" textLength="212.8" x="70.4" y="135.9133">asks to assign team to an entry in the agenda</text><polygon fill="#181818" points="641.6,161.9563,649.6,165.1563,641.6,168.3563,644.8,165.1563" style="stroke:#181818;stroke-width:0.8000000000000002;"/><line style="stroke:#181818;stroke-width:0.8000000000000002;" x1="300.8" x2="646.4" y1="165.1563" y2="165.1563"/><text fill="#000000" font-family="sans-serif" font-size="10.4" font-weight="bold" lengthAdjust="spacing" textLength="5.6" x="306.4" y="160.9461">2</text><text fill="#000000" font-family="sans-serif" font-size="10.4" lengthAdjust="spacing" textLength="156" x="315.2" y="160.9461">getAgendaTaskDTOManagerList()</text><rect fill="none" height="47.3703" style="stroke:#000000;stroke-width:1.2000000000000002;" width="153.6" x="601.2" y="191.5563"/><path d="M601.2,191.5563 L650.8,191.5563 L650.8,198.7563 L642.8,206.7563 L601.2,206.7563 L601.2,191.5563 " fill="#EEEEEE" style="stroke:#000000;stroke-width:1.6000000000000003;"/><text fill="#000000" font-family="sans-serif" font-size="10.4" font-weight="bold" lengthAdjust="spacing" textLength="13.6" x="611.6" y="204.3789">ref</text><text fill="#000000" font-family="sans-serif" font-size="9.6" lengthAdjust="spacing" textLength="147.2" x="604.4" y="220.3156">SD_managerSpecificAgendaDTO</text><text fill="#000000" font-family="sans-serif" font-size="9.6" lengthAdjust="spacing" textLength="2.4" x="676.8" y="233.0844">&#160;</text><polygon fill="#181818" points="309.6,258.3594,301.6,261.5594,309.6,264.7594,306.4,261.5594" style="stroke:#181818;stroke-width:0.8000000000000002;"/><line style="stroke:#181818;stroke-width:0.8000000000000002;stroke-dasharray:2.0,2.0;" x1="304.8" x2="654.4" y1="261.5594" y2="261.5594"/><text fill="#000000" font-family="sans-serif" font-size="10.4" font-weight="bold" lengthAdjust="spacing" textLength="5.6" x="314.4" y="257.3492">3</text><text fill="#000000" font-family="sans-serif" font-size="10.4" lengthAdjust="spacing" textLength="132.8" x="323.2" y="257.3492">managerSpecificAgendaDTO</text><path d="M8,273.5594 L66.4,273.5594 L66.4,280.9922 L58.4,288.9922 L8,288.9922 L8,273.5594 " fill="#EEEEEE" style="stroke:#000000;stroke-width:1.2000000000000002;"/><rect fill="none" height="134.7641" style="stroke:#000000;stroke-width:1.2000000000000002;" width="430.4" x="8" y="273.5594"/><text fill="#000000" font-family="sans-serif" font-size="10.4" font-weight="bold" lengthAdjust="spacing" textLength="22.4" x="20" y="285.582">loop</text><text fill="#000000" font-family="sans-serif" font-size="8.8" font-weight="bold" lengthAdjust="spacing" textLength="151.2" x="78.4" y="284.6555">[until doesn't select a valid option]</text><polygon fill="#181818" points="64.8,318.2578,56.8,321.4578,64.8,324.6578,61.6,321.4578" style="stroke:#181818;stroke-width:0.8000000000000002;"/><line style="stroke:#181818;stroke-width:0.8000000000000002;stroke-dasharray:2.0,2.0;" x1="60" x2="296" y1="321.4578" y2="321.4578"/><text fill="#000000" font-family="sans-serif" font-size="10.4" font-weight="bold" lengthAdjust="spacing" textLength="5.6" x="69.6" y="310.3313">4</text><text fill="#000000" font-family="sans-serif" font-size="10.4" lengthAdjust="spacing" textLength="189.6" x="78.4" y="303.4148">shows the list of tasks in the agenda and</text><text fill="#000000" font-family="sans-serif" font-size="10.4" lengthAdjust="spacing" textLength="85.6" x="78.4" y="317.2477">asks to select one</text><polygon fill="#181818" points="283.2,343.2906,291.2,346.4906,283.2,349.6906,286.4,346.4906" style="stroke:#181818;stroke-width:0.8000000000000002;"/><line style="stroke:#181818;stroke-width:0.8000000000000002;" x1="56" x2="288" y1="346.4906" y2="346.4906"/><text fill="#000000" font-family="sans-serif" font-size="10.4" font-weight="bold" lengthAdjust="spacing" textLength="5.6" x="61.6" y="342.2805">5</text><text fill="#000000" font-family="sans-serif" font-size="10.4" lengthAdjust="spacing" textLength="65.6" x="70.4" y="342.2805">selects a task</text><line style="stroke:#181818;stroke-width:0.8000000000000002;stroke-dasharray:2.0,2.0;" x1="300.8" x2="334.4" y1="371.5234" y2="371.5234"/><line style="stroke:#181818;stroke-width:0.8000000000000002;stroke-dasharray:2.0,2.0;" x1="334.4" x2="334.4" y1="371.5234" y2="381.9234"/><line style="stroke:#181818;stroke-width:0.8000000000000002;stroke-dasharray:2.0,2.0;" x1="301.6" x2="334.4" y1="381.9234" y2="381.9234"/><polygon fill="#181818" points="309.6,378.7234,301.6,381.9234,309.6,385.1234,306.4,381.9234" style="stroke:#181818;stroke-width:0.8000000000000002;"/><text fill="#000000" font-family="sans-serif" font-size="10.4" font-weight="bold" lengthAdjust="spacing" textLength="5.6" x="306.4" y="367.3133">6</text><text fill="#000000" font-family="sans-serif" font-size="10.4" lengthAdjust="spacing" textLength="113.6" x="315.2" y="367.3133">validates selected option</text><line style="stroke:#181818;stroke-width:0.8000000000000002;stroke-dasharray:2.0,2.0;" x1="300.8" x2="334.4" y1="432.5563" y2="432.5563"/><line style="stroke:#181818;stroke-width:0.8000000000000002;stroke-dasharray:2.0,2.0;" x1="334.4" x2="334.4" y1="432.5563" y2="442.9563"/><line style="stroke:#181818;stroke-width:0.8000000000000002;stroke-dasharray:2.0,2.0;" x1="301.6" x2="334.4" y1="442.9563" y2="442.9563"/><polygon fill="#181818" points="309.6,439.7563,301.6,442.9563,309.6,446.1563,306.4,442.9563" style="stroke:#181818;stroke-width:0.8000000000000002;"/><text fill="#000000" font-family="sans-serif" font-size="10.4" font-weight="bold" lengthAdjust="spacing" textLength="5.6" x="306.4" y="428.3461">7</text><text fill="#000000" font-family="sans-serif" font-size="10.4" lengthAdjust="spacing" textLength="70.4" x="315.2" y="428.3461">keepData(task)</text><polygon fill="#181818" points="494.4,498.6219,502.4,501.8219,494.4,505.0219,497.6,501.8219" style="stroke:#181818;stroke-width:0.8000000000000002;"/><line style="stroke:#181818;stroke-width:0.8000000000000002;" x1="296.8" x2="499.2" y1="501.8219" y2="501.8219"/><text fill="#000000" font-family="sans-serif" font-size="10.4" font-weight="bold" lengthAdjust="spacing" textLength="5.6" x="302.4" y="490.6953">8</text><text fill="#000000" font-family="sans-serif" font-size="10.4" lengthAdjust="spacing" textLength="179.2" x="311.2" y="483.7789">Shows the popup with the list of teams</text><text fill="#000000" font-family="sans-serif" font-size="10.4" lengthAdjust="spacing" textLength="66.4" x="365.6" y="497.6117">fillTeamTable()</text><polygon fill="#181818" points="804,523.6547,812,526.8547,804,530.0547,807.2,526.8547" style="stroke:#181818;stroke-width:0.8000000000000002;"/><line style="stroke:#181818;stroke-width:0.8000000000000002;" x1="512" x2="808.8" y1="526.8547" y2="526.8547"/><text fill="#000000" font-family="sans-serif" font-size="10.4" font-weight="bold" lengthAdjust="spacing" textLength="5.6" x="517.6" y="522.6445">9</text><text fill="#000000" font-family="sans-serif" font-size="10.4" lengthAdjust="spacing" textLength="52" x="526.4" y="522.6445">getTeams()</text><rect fill="none" height="47.3703" style="stroke:#000000;stroke-width:1.2000000000000002;" width="210.4" x="712.4" y="533.2547"/><path d="M712.4,533.2547 L762,533.2547 L762,540.4547 L754,548.4547 L712.4,548.4547 L712.4,533.2547 " fill="#EEEEEE" style="stroke:#000000;stroke-width:1.6000000000000003;"/><text fill="#000000" font-family="sans-serif" font-size="10.4" font-weight="bold" lengthAdjust="spacing" textLength="13.6" x="722.8" y="546.0773">ref</text><text fill="#000000" font-family="sans-serif" font-size="9.6" lengthAdjust="spacing" textLength="94.4" x="770.4" y="562.0141">SD_getTeamListDTO</text><text fill="#000000" font-family="sans-serif" font-size="9.6" lengthAdjust="spacing" textLength="2.4" x="816.4" y="574.7828">&#160;</text><polygon fill="#181818" points="520.8,600.0578,512.8,603.2578,520.8,606.4578,517.6,603.2578" style="stroke:#181818;stroke-width:0.8000000000000002;"/><line style="stroke:#181818;stroke-width:0.8000000000000002;stroke-dasharray:2.0,2.0;" x1="516" x2="816.8" y1="603.2578" y2="603.2578"/><text fill="#000000" font-family="sans-serif" font-size="10.4" font-weight="bold" lengthAdjust="spacing" textLength="11.2" x="525.6" y="599.0477">10</text><text fill="#000000" font-family="sans-serif" font-size="10.4" lengthAdjust="spacing" textLength="60.8" x="540" y="599.0477">teamListDTO</text><path d="M8,635.2578 L66.4,635.2578 L66.4,642.6906 L58.4,650.6906 L8,650.6906 L8,635.2578 " fill="#EEEEEE" style="stroke:#000000;stroke-width:1.2000000000000002;"/><rect fill="none" height="100.9313" style="stroke:#000000;stroke-width:1.2000000000000002;" width="647.2" x="8" y="635.2578"/><text fill="#000000" font-family="sans-serif" font-size="10.4" font-weight="bold" lengthAdjust="spacing" textLength="22.4" x="20" y="647.2805">loop</text><text fill="#000000" font-family="sans-serif" font-size="8.8" font-weight="bold" lengthAdjust="spacing" textLength="151.2" x="78.4" y="646.3539">[until doesn't select a valid option]</text><polygon fill="#181818" points="64.8,666.1234,56.8,669.3234,64.8,672.5234,61.6,669.3234" style="stroke:#181818;stroke-width:0.8000000000000002;"/><line style="stroke:#181818;stroke-width:0.8000000000000002;stroke-dasharray:2.0,2.0;" x1="60" x2="507.2" y1="669.3234" y2="669.3234"/><text fill="#000000" font-family="sans-serif" font-size="10.4" font-weight="bold" lengthAdjust="spacing" textLength="11.2" x="69.6" y="665.1133">11</text><text fill="#000000" font-family="sans-serif" font-size="10.4" lengthAdjust="spacing" textLength="217.6" x="84" y="665.1133">Shows the list of teams and asks to select one</text><polygon fill="#181818" points="494.4,691.1563,502.4,694.3563,494.4,697.5563,497.6,694.3563" style="stroke:#181818;stroke-width:0.8000000000000002;"/><line style="stroke:#181818;stroke-width:0.8000000000000002;" x1="56" x2="499.2" y1="694.3563" y2="694.3563"/><text fill="#000000" font-family="sans-serif" font-size="10.4" font-weight="bold" lengthAdjust="spacing" textLength="11.2" x="61.6" y="690.1461">12</text><text fill="#000000" font-family="sans-serif" font-size="10.4" lengthAdjust="spacing" textLength="68.8" x="76" y="690.1461">selects a team</text><line style="stroke:#181818;stroke-width:0.8000000000000002;stroke-dasharray:2.0,2.0;" x1="512" x2="545.6" y1="719.3891" y2="719.3891"/><line style="stroke:#181818;stroke-width:0.8000000000000002;stroke-dasharray:2.0,2.0;" x1="545.6" x2="545.6" y1="719.3891" y2="729.7891"/><line style="stroke:#181818;stroke-width:0.8000000000000002;stroke-dasharray:2.0,2.0;" x1="512.8" x2="545.6" y1="729.7891" y2="729.7891"/><polygon fill="#181818" points="520.8,726.5891,512.8,729.7891,520.8,732.9891,517.6,729.7891" style="stroke:#181818;stroke-width:0.8000000000000002;"/><text fill="#000000" font-family="sans-serif" font-size="10.4" font-weight="bold" lengthAdjust="spacing" textLength="11.2" x="517.6" y="715.1789">13</text><text fill="#000000" font-family="sans-serif" font-size="10.4" lengthAdjust="spacing" textLength="113.6" x="532" y="715.1789">validates selected option</text><polygon fill="#181818" points="309.6,777.2219,301.6,780.4219,309.6,783.6219,306.4,780.4219" style="stroke:#181818;stroke-width:0.8000000000000002;"/><line style="stroke:#181818;stroke-width:0.8000000000000002;stroke-dasharray:2.0,2.0;" x1="304.8" x2="507.2" y1="780.4219" y2="780.4219"/><text fill="#000000" font-family="sans-serif" font-size="10.4" font-weight="bold" lengthAdjust="spacing" textLength="11.2" x="314.4" y="776.2117">14</text><text fill="#000000" font-family="sans-serif" font-size="10.4" lengthAdjust="spacing" textLength="148.8" x="328.8" y="776.2117">Sends selected team to Main UI</text><line style="stroke:#181818;stroke-width:0.8000000000000002;stroke-dasharray:2.0,2.0;" x1="300.8" x2="334.4" y1="825.4547" y2="825.4547"/><line style="stroke:#181818;stroke-width:0.8000000000000002;stroke-dasharray:2.0,2.0;" x1="334.4" x2="334.4" y1="825.4547" y2="835.8547"/><line style="stroke:#181818;stroke-width:0.8000000000000002;stroke-dasharray:2.0,2.0;" x1="301.6" x2="334.4" y1="835.8547" y2="835.8547"/><polygon fill="#181818" points="309.6,832.6547,301.6,835.8547,309.6,839.0547,306.4,835.8547" style="stroke:#181818;stroke-width:0.8000000000000002;"/><text fill="#000000" font-family="sans-serif" font-size="10.4" font-weight="bold" lengthAdjust="spacing" textLength="11.2" x="306.4" y="821.2445">15</text><text fill="#000000" font-family="sans-serif" font-size="10.4" lengthAdjust="spacing" textLength="115.2" x="320.8" y="821.2445">keepData(selectedTeam)</text><polygon fill="#181818" points="804,877.6875,812,880.8875,804,884.0875,807.2,880.8875" style="stroke:#181818;stroke-width:0.8000000000000002;"/><line style="stroke:#181818;stroke-width:0.8000000000000002;" x1="300.8" x2="808.8" y1="880.8875" y2="880.8875"/><text fill="#000000" font-family="sans-serif" font-size="10.4" font-weight="bold" lengthAdjust="spacing" textLength="11.2" x="306.4" y="876.6773">16</text><text fill="#000000" font-family="sans-serif" font-size="10.4" lengthAdjust="spacing" textLength="264" x="320.8" y="876.6773">assignTeamToTaskAgenda(selectedTask, selectedTeam)</text><rect fill="none" height="47.3703" style="stroke:#000000;stroke-width:1.2000000000000002;" width="210.4" x="712.4" y="887.2875"/><path d="M712.4,887.2875 L762,887.2875 L762,894.4875 L754,902.4875 L712.4,902.4875 L712.4,887.2875 " fill="#EEEEEE" style="stroke:#000000;stroke-width:1.6000000000000003;"/><text fill="#000000" font-family="sans-serif" font-size="10.4" font-weight="bold" lengthAdjust="spacing" textLength="13.6" x="722.8" y="900.1102">ref</text><text fill="#000000" font-family="sans-serif" font-size="9.6" lengthAdjust="spacing" textLength="121.6" x="756.8" y="916.0469">SD_getTeamDomainObject</text><text fill="#000000" font-family="sans-serif" font-size="9.6" lengthAdjust="spacing" textLength="2.4" x="816.4" y="928.8156">&#160;</text><line style="stroke:#181818;stroke-width:0.8000000000000002;" x1="821.6" x2="855.2" y1="957.2906" y2="957.2906"/><line style="stroke:#181818;stroke-width:0.8000000000000002;" x1="855.2" x2="855.2" y1="957.2906" y2="967.6906"/><line style="stroke:#181818;stroke-width:0.8000000000000002;" x1="822.4" x2="855.2" y1="967.6906" y2="967.6906"/><polygon fill="#181818" points="830.4,964.4906,822.4,967.6906,830.4,970.8906,827.2,967.6906" style="stroke:#181818;stroke-width:0.8000000000000002;"/><text fill="#000000" font-family="sans-serif" font-size="10.4" font-weight="bold" lengthAdjust="spacing" textLength="11.2" x="827.2" y="953.0805">17</text><text fill="#000000" font-family="sans-serif" font-size="10.4" lengthAdjust="spacing" textLength="39.2" x="841.6" y="953.0805">teamObj</text><polygon fill="#181818" points="953.6,989.5234,961.6,992.7234,953.6,995.9234,956.8,992.7234" style="stroke:#181818;stroke-width:0.8000000000000002;"/><line style="stroke:#181818;stroke-width:0.8000000000000002;" x1="821.6" x2="958.4" y1="992.7234" y2="992.7234"/><text fill="#000000" font-family="sans-serif" font-size="10.4" font-weight="bold" lengthAdjust="spacing" textLength="11.2" x="827.2" y="988.5133">18</text><text fill="#000000" font-family="sans-serif" font-size="10.4" lengthAdjust="spacing" textLength="60" x="841.6" y="988.5133">getInstance()</text><polygon fill="#181818" points="830.4,1014.5563,822.4,1017.7563,830.4,1020.9563,827.2,1017.7563" style="stroke:#181818;stroke-width:0.8000000000000002;"/><line style="stroke:#181818;stroke-width:0.8000000000000002;stroke-dasharray:2.0,2.0;" x1="825.6" x2="966.4" y1="1017.7563" y2="1017.7563"/><text fill="#000000" font-family="sans-serif" font-size="10.4" font-weight="bold" lengthAdjust="spacing" textLength="11.2" x="835.2" y="1013.5461">19</text><text fill="#000000" font-family="sans-serif" font-size="10.4" lengthAdjust="spacing" textLength="53.6" x="849.6" y="1013.5461">repositories</text><polygon fill="#181818" points="1039.2,1039.5891,1047.2,1042.7891,1039.2,1045.9891,1042.4,1042.7891" style="stroke:#181818;stroke-width:0.8000000000000002;"/><line style="stroke:#181818;stroke-width:0.8000000000000002;" x1="821.6" x2="1044" y1="1042.7891" y2="1042.7891"/><text fill="#000000" font-family="sans-serif" font-size="10.4" font-weight="bold" lengthAdjust="spacing" textLength="11.2" x="827.2" y="1038.5789">20</text><text fill="#000000" font-family="sans-serif" font-size="10.4" lengthAdjust="spacing" textLength="105.6" x="841.6" y="1038.5789">getAgendaRepository()</text><polygon fill="#181818" points="830.4,1064.6219,822.4,1067.8219,830.4,1071.0219,827.2,1067.8219" style="stroke:#181818;stroke-width:0.8000000000000002;"/><line style="stroke:#181818;stroke-width:0.8000000000000002;stroke-dasharray:2.0,2.0;" x1="825.6" x2="1052" y1="1067.8219" y2="1067.8219"/><text fill="#000000" font-family="sans-serif" font-size="10.4" font-weight="bold" lengthAdjust="spacing" textLength="11.2" x="835.2" y="1063.6117">21</text><text fill="#000000" font-family="sans-serif" font-size="10.4" lengthAdjust="spacing" textLength="83.2" x="849.6" y="1063.6117">agendaRepository</text><polygon fill="#181818" points="1231.2,1089.6547,1239.2,1092.8547,1231.2,1096.0547,1234.4,1092.8547" style="stroke:#181818;stroke-width:0.8000000000000002;"/><line style="stroke:#181818;stroke-width:0.8000000000000002;" x1="821.6" x2="1236" y1="1092.8547" y2="1092.8547"/><text fill="#000000" font-family="sans-serif" font-size="10.4" font-weight="bold" lengthAdjust="spacing" textLength="11.2" x="827.2" y="1088.6445">22</text><text fill="#000000" font-family="sans-serif" font-size="10.4" lengthAdjust="spacing" textLength="389.6" x="841.6" y="1088.6445">assignTeamToTaskAgenda(title, greenSpaceName, workStartDate, status, teamObj)</text><polygon fill="#181818" points="1358.4,1114.6875,1366.4,1117.8875,1358.4,1121.0875,1361.6,1117.8875" style="stroke:#181818;stroke-width:0.8000000000000002;"/><line style="stroke:#181818;stroke-width:0.8000000000000002;" x1="1248.8" x2="1363.2" y1="1117.8875" y2="1117.8875"/><text fill="#000000" font-family="sans-serif" font-size="10.4" font-weight="bold" lengthAdjust="spacing" textLength="11.2" x="1254.4" y="1113.6773">23</text><text fill="#000000" font-family="sans-serif" font-size="10.4" lengthAdjust="spacing" textLength="85.6" x="1268.8" y="1113.6773">assignTeam(team)</text><rect fill="#E3E3E3" height="26.0969" rx="2" ry="2" style="stroke:#181818;stroke-width:0.4000000000000001;" width="36" x="1368" y="1099.2547"/><text fill="#000000" font-family="sans-serif" font-size="11.2" lengthAdjust="spacing" textLength="24.8" x="1373.6" y="1116.9406">Task</text><path d="M1360,1139.7516 L1408.8,1139.7516 L1408.8,1147.1844 L1400.8,1155.1844 L1360,1155.1844 L1360,1139.7516 " fill="#EEEEEE" style="stroke:#000000;stroke-width:1.2000000000000002;"/><rect fill="none" height="107.3" style="stroke:#000000;stroke-width:1.2000000000000002;" width="240.4" x="1360" y="1139.7516"/><text fill="#000000" font-family="sans-serif" font-size="10.4" font-weight="bold" lengthAdjust="spacing" textLength="12.8" x="1372" y="1151.7742">alt</text><text fill="#000000" font-family="sans-serif" font-size="8.8" font-weight="bold" lengthAdjust="spacing" textLength="79.2" x="1420.8" y="1150.8477">[team is available]</text><polygon fill="#181818" points="1542.8,1170.6172,1550.8,1173.8172,1542.8,1177.0172,1546,1173.8172" style="stroke:#181818;stroke-width:0.8000000000000002;"/><line style="stroke:#181818;stroke-width:0.8000000000000002;" x1="1386" x2="1547.6" y1="1173.8172" y2="1173.8172"/><text fill="#000000" font-family="sans-serif" font-size="10.4" font-weight="bold" lengthAdjust="spacing" textLength="11.2" x="1391.6" y="1169.607">24</text><text fill="#000000" font-family="sans-serif" font-size="10.4" lengthAdjust="spacing" textLength="128.8" x="1406" y="1169.607">addWorkPeriod(workPeriod)</text><rect fill="#E3E3E3" height="26.0969" rx="2" ry="2" style="stroke:#181818;stroke-width:0.4000000000000001;" width="40" x="1552.4" y="1155.1844"/><text fill="#000000" font-family="sans-serif" font-size="11.2" lengthAdjust="spacing" textLength="28.8" x="1558" y="1172.8703">Team</text><line style="stroke:#000000;stroke-width:0.8000000000000002;stroke-dasharray:2.0,2.0;" x1="1360" x2="1600.4" y1="1190.8813" y2="1190.8813"/><text fill="#000000" font-family="sans-serif" font-size="8.8" font-weight="bold" lengthAdjust="spacing" textLength="96" x="1364" y="1200.3773">[team is not available]</text><path d="M1368.8,1207.3859 L1368.8,1242.5859 L1588.8,1242.5859 L1588.8,1215.3859 L1580.8,1207.3859 L1368.8,1207.3859 " fill="#FAFAFA" style="stroke:#181818;stroke-width:0.4000000000000001;"/><path d="M1580.8,1207.3859 L1580.8,1215.3859 L1588.8,1215.3859 L1580.8,1207.3859 " fill="#FAFAFA" style="stroke:#181818;stroke-width:0.4000000000000001;"/><text fill="#000000" font-family="sans-serif" font-size="10.4" lengthAdjust="spacing" textLength="194.4" x="1378.2" y="1222.6086">An error message will be shown indicating</text><text fill="#000000" font-family="sans-serif" font-size="10.4" lengthAdjust="spacing" textLength="154.4" x="1397.4" y="1236.4414">the selected team is not available</text><polygon fill="#181818" points="830.4,1268.0844,822.4,1271.2844,830.4,1274.4844,827.2,1271.2844" style="stroke:#181818;stroke-width:0.8000000000000002;"/><line style="stroke:#181818;stroke-width:0.8000000000000002;stroke-dasharray:2.0,2.0;" x1="825.6" x2="1244" y1="1271.2844" y2="1271.2844"/><text fill="#000000" font-family="sans-serif" font-size="10.4" font-weight="bold" lengthAdjust="spacing" textLength="11.2" x="835.2" y="1267.0742">25</text><text fill="#000000" font-family="sans-serif" font-size="10.4" lengthAdjust="spacing" textLength="61.6" x="849.6" y="1267.0742">task Optional</text><path d="M706.8,1283.2844 L765.2,1283.2844 L765.2,1290.7172 L757.2,1298.7172 L706.8,1298.7172 L706.8,1283.2844 " fill="#EEEEEE" style="stroke:#000000;stroke-width:1.2000000000000002;"/><rect fill="none" height="106.8031" style="stroke:#000000;stroke-width:1.2000000000000002;" width="268.8" x="706.8" y="1283.2844"/><text fill="#000000" font-family="sans-serif" font-size="10.4" font-weight="bold" lengthAdjust="spacing" textLength="22.4" x="718.8" y="1295.307">loop</text><text fill="#000000" font-family="sans-serif" font-size="8.8" font-weight="bold" lengthAdjust="spacing" textLength="194.4" x="777.2" y="1294.3805">[for every collaborator in the selectedTeam]</text><rect fill="none" height="47.3703" style="stroke:#000000;stroke-width:1.2000000000000002;" width="210.4" x="712.4" y="1318.7172"/><path d="M712.4,1318.7172 L762,1318.7172 L762,1325.9172 L754,1333.9172 L712.4,1333.9172 L712.4,1318.7172 " fill="#EEEEEE" style="stroke:#000000;stroke-width:1.6000000000000003;"/><text fill="#000000" font-family="sans-serif" font-size="10.4" font-weight="bold" lengthAdjust="spacing" textLength="13.6" x="722.8" y="1331.5398">ref</text><text fill="#000000" font-family="sans-serif" font-size="9.6" lengthAdjust="spacing" textLength="132.8" x="751.2" y="1347.4766">SD_sendEmailToCollaborator</text><text fill="#000000" font-family="sans-serif" font-size="9.6" lengthAdjust="spacing" textLength="2.4" x="816.4" y="1360.2453">&#160;</text><polygon fill="#181818" points="309.6,1411.1203,301.6,1414.3203,309.6,1417.5203,306.4,1414.3203" style="stroke:#181818;stroke-width:0.8000000000000002;"/><line style="stroke:#181818;stroke-width:0.8000000000000002;stroke-dasharray:2.0,2.0;" x1="304.8" x2="816.8" y1="1414.3203" y2="1414.3203"/><text fill="#000000" font-family="sans-serif" font-size="10.4" font-weight="bold" lengthAdjust="spacing" textLength="11.2" x="314.4" y="1410.1102">26</text><text fill="#000000" font-family="sans-serif" font-size="10.4" lengthAdjust="spacing" textLength="84.8" x="328.8" y="1410.1102">operation success</text><polygon fill="#181818" points="64.8,1436.1531,56.8,1439.3531,64.8,1442.5531,61.6,1439.3531" style="stroke:#181818;stroke-width:0.8000000000000002;"/><line style="stroke:#181818;stroke-width:0.8000000000000002;stroke-dasharray:2.0,2.0;" x1="60" x2="296" y1="1439.3531" y2="1439.3531"/><text fill="#000000" font-family="sans-serif" font-size="10.4" font-weight="bold" lengthAdjust="spacing" textLength="11.2" x="69.6" y="1435.143">27</text><text fill="#000000" font-family="sans-serif" font-size="10.4" lengthAdjust="spacing" textLength="117.6" x="84" y="1435.143">shows operation success</text><!--SRC=[bLRBRjiw4DthAmRPNAT8WA9tbqK18mw204rjH3Qw2L3GqjXXJP6gICS8a8-_GrAYg9UJoqLYIVCuCtCuC_h0PSagLa2XfCfUAbKWcEg8YGvVIfOTs1vJyoOGAimCatiH2-WNbgiJbtlOCQ4nIGmt9Bf9ltxx5wuXnRz7b1d2WhCzoIS9EnebZyKMguGUCgCgkBYl42Mav0oVvIEJvB6w0ARXFdrCo8_X6I-PD71nCz-ZpDdcmNtUFFI-fYW8unfPiLBbiQp5LilLPZLgvrP9KoaXQdVp-xkVY_dls_NJZxwurdmlhU6rkYETjr7z4SKdB9Nc52L7xMIUxbRBhamLYJpBSOq7gIdr6NOrcGCH5Dv8UzvxvUFglNI9vw_CeCjmGd_W-ZkbyuQa3ngCelysO30KiNkKW3PiuFJk1S5xRirG9HAWitcmXg8ymWtiqNW0QpA-M2_h0l_WsimkdLOm4nV0VdX_VtV_Azo1UiLg890kVXVUN5fYndSyywx8ZGT43rRR_OvXNRju2TsakjN8SHIQ-oQKAk4e3HUGAzJo7mFQqGyOl3B1Sr2buKgsYI6NbEaRkZFgf5qQ1UK0r0wCItidjvJo_5asvQWjAub9XCbcFTIEOl5IcW1OWvtgrFwTc4D7xtMjW06gpRVDc8sjWzlf7H3B1JDiPgrV9fqA-SAxcqQIQOYmjFSGJjoyT0CcNX7PeNzsN0XtozXMOCsERi0TllYRxTvvruIXPPqrfFiKQmiOI1MpgLQpv1nmo3q4zZIncaYy1zVxwYRgqxI9Wcg8amw9OqEqL87pJAaJLPEbWHxnXUmaFUdMUIC_JPn06Xjcg-XeazB7IADfAO-C-4u57Q3iLpkcs82AZLbRjCiW7b6ofWEB6hZjG_wUj-hqwWg6nludRHQgeAYMspzaPjX_F7K299i84aqwtsopz-njMdvDuB4JqBcXCYbcZxDxtJgFXywaObGQvs5ABWRVm8xwVZjuPfV9vu89y-x3e1h9EBZ-NFniWEUzDb7sWvfcbzk5hc1lrnkttVna1JsVL7L83GroOZ0zaazpr5SD7yRBtSwXmImV4nzW9DmMs9Sl7RGp4vW-wT2gZKi8uoypfmxoohYmFNiSZhNX892uXv3dloWBAwouocUdy7E27qYhPV0bbVd87ucWlwJ-Obk_utcYlQQgQ0SjK6kY3Kqg8M2BRaPBciWvpvYXzVOC3sq_xdQt0SZHcAWpM9p91yHq-P-oyDdgHrt7bcBfkZOJoHc_ytENo4sn7UKDASblaD4EpBQgOdQThzUOk9bsT9j-tZ_3nZfsgDbg0dP7ZLQirMtaUBfNn4ruxFGHXMdsGMc6Tx6t8xXPfKeaV9HlqCSi8vubv_Q4uQ8urEzkHFy1]--></g></svg>