<?xml version="1.0" encoding="us-ascii" standalone="no"?><svg xmlns="http://www.w3.org/2000/svg" xmlns:xlink="http://www.w3.org/1999/xlink" contentStyleType="text/css" height="758px" preserveAspectRatio="none" style="width:1161px;height:758px;background:#FFFFFF;" version="1.1" viewBox="0 0 1161 758" width="1161px" zoomAndPan="magnify"><defs/><g><!--class Collaborator--><g id="elem_Collaborator"><rect codeLine="10" fill="#F1F1F1" height="744.9805" id="Collaborator" rx="2.5" ry="2.5" style="stroke:#181818;stroke-width:0.5;" width="398" x="363" y="7"/><ellipse cx="518.75" cy="23" fill="#ADD1B2" rx="11" ry="11" style="stroke:#181818;stroke-width:1.0;"/><path d="M521.5156,18.875 Q521.6719,18.6563 521.8594,18.5469 Q522.0469,18.4375 522.2656,18.4375 Q522.6406,18.4375 522.875,18.7031 Q523.1094,18.9531 523.1094,19.5625 L523.1094,21.0156 Q523.1094,21.625 522.875,21.8906 Q522.6406,22.1563 522.2656,22.1563 Q521.9219,22.1563 521.7188,21.9531 Q521.5156,21.7656 521.4063,21.25 Q521.3594,20.8906 521.1719,20.7031 Q520.8438,20.3281 520.2344,20.1094 Q519.625,19.8906 519,19.8906 Q518.2344,19.8906 517.5938,20.2188 Q516.9688,20.5469 516.4688,21.2969 Q515.9844,22.0469 515.9844,23.0781 L515.9844,24.1719 Q515.9844,25.4063 516.875,26.2344 Q517.7656,27.0469 519.3594,27.0469 Q520.2969,27.0469 520.9531,26.7969 Q521.3438,26.6406 521.7656,26.2031 Q522.0313,25.9375 522.1719,25.8594 Q522.3281,25.7813 522.5313,25.7813 Q522.8594,25.7813 523.1094,26.0469 Q523.375,26.2969 523.375,26.6406 Q523.375,26.9844 523.0313,27.3906 Q522.5313,27.9688 521.7344,28.2969 Q520.6563,28.75 519.3594,28.75 Q517.8438,28.75 516.6406,28.125 Q515.6563,27.625 514.9688,26.5625 Q514.2813,25.4844 514.2813,24.2031 L514.2813,23.0469 Q514.2813,21.7188 514.8906,20.5781 Q515.5156,19.4219 516.6094,18.8125 Q517.7031,18.1875 518.9375,18.1875 Q519.6719,18.1875 520.3125,18.3594 Q520.9688,18.5156 521.5156,18.875 Z " fill="#000000"/><text fill="#000000" font-family="sans-serif" font-size="14" lengthAdjust="spacing" textLength="78" x="539.25" y="28.7969">Collaborator</text><line style="stroke:#181818;stroke-width:0.5;" x1="364" x2="760" y1="39" y2="39"/><text fill="#000000" font-family="sans-serif" font-size="14" lengthAdjust="spacing" textLength="81" x="369" y="58.1074">-String name</text><text fill="#000000" font-family="sans-serif" font-size="14" lengthAdjust="spacing" textLength="136" x="369" y="76.7285">-String mobileNumber</text><text fill="#000000" font-family="sans-serif" font-size="14" lengthAdjust="spacing" textLength="145" x="369" y="95.3496">-IdDocType idDocType</text><text fill="#000000" font-family="sans-serif" font-size="14" lengthAdjust="spacing" textLength="131" x="369" y="113.9707">-String idDocNumber</text><text fill="#000000" font-family="sans-serif" font-size="14" lengthAdjust="spacing" textLength="117" x="369" y="132.5918">-List&lt;Skill&gt; skillList</text><text fill="#000000" font-family="sans-serif" font-size="14" lengthAdjust="spacing" textLength="339" x="369" y="173.834">+Collaborator(name, birthdate, admissionDate, street,</text><text fill="#000000" font-family="sans-serif" font-size="14" lengthAdjust="spacing" textLength="386" x="369" y="192.4551">streetNumber, postalCode, city, district, email, mobileNumber,</text><text fill="#000000" font-family="sans-serif" font-size="14" lengthAdjust="spacing" textLength="193" x="369" y="211.0762">idDocType, idDocNumber, job)</text><text fill="#000000" font-family="sans-serif" font-size="14" lengthAdjust="spacing" textLength="67" x="369" y="229.6973">+toString()</text><text fill="#000000" font-family="sans-serif" font-size="14" lengthAdjust="spacing" textLength="52" x="369" y="248.3184">+clone()</text><line style="stroke:#181818;stroke-width:1.0;" x1="364" x2="535" y1="149.416" y2="149.416"/><text fill="#000000" font-family="sans-serif" font-size="14" lengthAdjust="spacing" textLength="54" x="535" y="154.7129">Methods</text><line style="stroke:#181818;stroke-width:1.0;" x1="589" x2="760" y1="149.416" y2="149.416"/><text fill="#000000" font-family="sans-serif" font-size="14" lengthAdjust="spacing" textLength="74" x="369" y="289.5605">+getName()</text><text fill="#000000" font-family="sans-serif" font-size="14" lengthAdjust="spacing" textLength="95" x="369" y="308.1816">+getBirthdate()</text><text fill="#000000" font-family="sans-serif" font-size="14" lengthAdjust="spacing" textLength="132" x="369" y="326.8027">+getAdmissionDate()</text><text fill="#000000" font-family="sans-serif" font-size="14" lengthAdjust="spacing" textLength="90" x="369" y="345.4238">+getAddress()</text><text fill="#000000" font-family="sans-serif" font-size="14" lengthAdjust="spacing" textLength="72" x="369" y="364.0449">+getEmail()</text><text fill="#000000" font-family="sans-serif" font-size="14" lengthAdjust="spacing" textLength="128" x="369" y="382.666">+getMobileNumber()</text><text fill="#000000" font-family="sans-serif" font-size="14" lengthAdjust="spacing" textLength="106" x="369" y="401.2871">+getIdDocType()</text><text fill="#000000" font-family="sans-serif" font-size="14" lengthAdjust="spacing" textLength="123" x="369" y="419.9082">+getIdDocNumber()</text><text fill="#000000" font-family="sans-serif" font-size="14" lengthAdjust="spacing" textLength="60" x="369" y="438.5293">+getJob()</text><text fill="#000000" font-family="sans-serif" font-size="14" lengthAdjust="spacing" textLength="85" x="369" y="457.1504">+getSkillList()</text><line style="stroke:#181818;stroke-width:1.0;stroke-dasharray:1.0,2.0;" x1="364" x2="536.5" y1="265.1426" y2="265.1426"/><text fill="#000000" font-family="sans-serif" font-size="14" lengthAdjust="spacing" textLength="51" x="536.5" y="270.4395">Getters:</text><line style="stroke:#181818;stroke-width:1.0;stroke-dasharray:1.0,2.0;" x1="587.5" x2="760" y1="265.1426" y2="265.1426"/><text fill="#000000" font-family="sans-serif" font-size="14" lengthAdjust="spacing" textLength="108" x="369" y="498.3926">+setName(name)</text><text fill="#000000" font-family="sans-serif" font-size="14" lengthAdjust="spacing" textLength="150" x="369" y="517.0137">+setBirthdate(birthdate)</text><text fill="#000000" font-family="sans-serif" font-size="14" lengthAdjust="spacing" textLength="224" x="369" y="535.6348">+setAdmissionDate(admissionDate)</text><text fill="#000000" font-family="sans-serif" font-size="14" lengthAdjust="spacing" textLength="376" x="369" y="554.2559">+setAddress(street, streetNumber, postalCode, city, district)</text><text fill="#000000" font-family="sans-serif" font-size="14" lengthAdjust="spacing" textLength="104" x="369" y="572.877">+setEmail(email)</text><text fill="#000000" font-family="sans-serif" font-size="14" lengthAdjust="spacing" textLength="217" x="369" y="591.498">+setMobileNumber(mobileNumber)</text><text fill="#000000" font-family="sans-serif" font-size="14" lengthAdjust="spacing" textLength="173" x="369" y="610.1191">+setIdDocType(idDocType)</text><text fill="#000000" font-family="sans-serif" font-size="14" lengthAdjust="spacing" textLength="283" x="369" y="628.7402">+setIdDocNumber(idDocNumber, idDocType)</text><text fill="#000000" font-family="sans-serif" font-size="14" lengthAdjust="spacing" textLength="78" x="369" y="647.3613">+setJob(job)</text><line style="stroke:#181818;stroke-width:1.0;stroke-dasharray:1.0,2.0;" x1="364" x2="537.5" y1="473.9746" y2="473.9746"/><text fill="#000000" font-family="sans-serif" font-size="14" lengthAdjust="spacing" textLength="49" x="537.5" y="479.2715">Setters:</text><line style="stroke:#181818;stroke-width:1.0;stroke-dasharray:1.0,2.0;" x1="586.5" x2="760" y1="473.9746" y2="473.9746"/><text fill="#000000" font-family="sans-serif" font-size="14" lengthAdjust="spacing" textLength="135" x="369" y="688.6035">-validateName(name)</text><text fill="#000000" font-family="sans-serif" font-size="14" lengthAdjust="spacing" textLength="244" x="369" y="707.2246">-validateMobileNumber(mobileNumber)</text><text fill="#000000" font-family="sans-serif" font-size="14" lengthAdjust="spacing" textLength="200" x="369" y="725.8457">-validateIdDocType(idDocType)</text><text fill="#000000" font-family="sans-serif" font-size="14" lengthAdjust="spacing" textLength="310" x="369" y="744.4668">-validateIdDocNumber(idDocNumber, idDocType)</text><line style="stroke:#181818;stroke-width:1.0;stroke-dasharray:1.0,2.0;" x1="364" x2="500" y1="664.1855" y2="664.1855"/><text fill="#000000" font-family="sans-serif" font-size="14" lengthAdjust="spacing" textLength="124" x="500" y="669.4824">Validation Methods:</text><line style="stroke:#181818;stroke-width:1.0;stroke-dasharray:1.0,2.0;" x1="624" x2="760" y1="664.1855" y2="664.1855"/></g><path d="M796,323.5 L796,333.1455 L519,511.2168 L796,341.1455 L796,350.791 A0,0 0 0 0 796,350.791 L1116,350.791 A0,0 0 0 0 1116,350.791 L1116,333.5 L1106,323.5 L796,323.5 A0,0 0 0 0 796,323.5 " fill="#FEFFDD" style="stroke:#181818;stroke-width:0.5;"/><path d="M1106,323.5 L1106,333.5 L1116,333.5 L1106,323.5 " fill="#FEFFDD" style="stroke:#181818;stroke-width:0.5;"/><text fill="#000000" font-family="sans-serif" font-size="13" lengthAdjust="spacing" textLength="299" x="802" y="342.5283">This method already implements birthdate validation</text><path d="M796,360.791 L796,370.4365 L593,529.8379 L796,378.4365 L796,388.082 A0,0 0 0 0 796,388.082 L1154,388.082 A0,0 0 0 0 1154,388.082 L1154,370.791 L1144,360.791 L796,360.791 A0,0 0 0 0 796,360.791 " fill="#FEFFDD" style="stroke:#181818;stroke-width:0.5;"/><path d="M1144,360.791 L1144,370.791 L1154,370.791 L1144,360.791 " fill="#FEFFDD" style="stroke:#181818;stroke-width:0.5;"/><text fill="#000000" font-family="sans-serif" font-size="13" lengthAdjust="spacing" textLength="337" x="802" y="379.8193">This method already implements admission date validation</text><path d="M796,398.082 L796,407.7275 L745,548.459 L796,415.7275 L796,425.373 A0,0 0 0 0 796,425.373 L1133,425.373 A0,0 0 0 0 1133,425.373 L1133,408.082 L1123,398.082 L796,398.082 A0,0 0 0 0 796,398.082 " fill="#FEFFDD" style="stroke:#181818;stroke-width:0.5;"/><path d="M1123,398.082 L1123,408.082 L1133,408.082 L1123,398.082 " fill="#FEFFDD" style="stroke:#181818;stroke-width:0.5;"/><text fill="#000000" font-family="sans-serif" font-size="13" lengthAdjust="spacing" textLength="316" x="802" y="417.1104">Class Address has the responsability for this validation</text><path d="M6,361 L6,388.291 A0,0 0 0 0 6,388.291 L328,388.291 A0,0 0 0 0 328,388.291 L328,379 L367,567.0801 L328,371 L328,371 L318,361 L6,361 A0,0 0 0 0 6,361 " fill="#FEFFDD" style="stroke:#181818;stroke-width:0.5;"/><path d="M318,361 L318,371 L328,371 L318,361 " fill="#FEFFDD" style="stroke:#181818;stroke-width:0.5;"/><text fill="#000000" font-family="sans-serif" font-size="13" lengthAdjust="spacing" textLength="301" x="12" y="380.0283">Class Email has the responsability for this validation</text><!--SRC=[fLJ1Rjim3BtxAtXhYpb5py4me4k7eKExYukTTf5j9jOYYuR4RCY6_VieExQb94M6BPU8VAGV7qdfoc-rxPHJBRHagMeSjGZiTfZDIAUghTfWmNk3uB1YPJSc3l2Dgkc7jXjOA-DZn6YBlEyGEZBxO6HNPq1oJ5cKLHdb_Jspq-MEyR4YM-YV27TPblKGhCWOLP9JJ0v-PH1-2oWaGMgmgiKZLqkbDlXvrvReHkYnVg3g9T3hyNIKrVlJf2Vj-MsnrSQy0n_-WgC75mjuHcwezd8SmjyaTLw7kd8ejUEcLYn7LRVQUqtseJSzEqJElzhXC13dqZdFogoebf1Aypw7MZYThZW7R9KsUI9FyYSzUImXXszKteoLCGqYhoTFPSZYmRozXO_8ZCulvJn6RAGeqJ2dYEFzA2VntiVAZf3QeVU9xqDGaNYU8q49C0tjr7ic-XELYLsC4vjb5gSo_K5ccDTDv9obJZECuLHpCjiqR6Z0OThmjyEElp4qh1z-x4ww5kz473HtS5gJ4_ZmYMHvpaQ71izR9UtyeeoMneZkyJRCdLt0zm75u_REo2K9S-JhEevYBeZvdLbYUTRqfc6WTN9bbyjuxFBrbqPxQ7jXe8n3LUz1jvt15Ytx-MwF5KWVChGr18hi4b6oG9V9fWs3_s3iTr6uLlspUh2XKHwu2M-zxyXw9MEGNOIrFBOSYdgTo-3wF5M_iXDHR_qRpHy0]--></g></svg>