<?xml version="1.0" encoding="us-ascii" standalone="no"?><svg xmlns="http://www.w3.org/2000/svg" xmlns:xlink="http://www.w3.org/1999/xlink" contentStyleType="text/css" height="747px" preserveAspectRatio="none" style="width:442px;height:747px;background:#FFFFFF;" version="1.1" viewBox="0 0 442 747" width="442px" zoomAndPan="magnify"><defs/><g><text fill="#000000" font-family="sans-serif" font-size="14" font-weight="bold" lengthAdjust="spacing" textLength="127" x="150.5" y="25.1074">Use Case Diagram</text><g id="cluster_##4"><rect fill="none" height="695" rx="2.5" ry="2.5" style="stroke:none;stroke-width:1.0;" width="356" x="80" y="46.6211"/></g><g id="elem_UC1"><ellipse cx="258.1522" cy="82.8515" fill="#F1F1F1" rx="89.1522" ry="20.2304" style="stroke:#181818;stroke-width:0.5;"/><text fill="#000000" font-family="sans-serif" font-size="14" lengthAdjust="spacing" textLength="132" x="189.1522" y="87.6553">UC1 - Register a skill</text></g><g id="elem_UC2"><ellipse cx="258.0589" cy="157.5329" fill="#F1F1F1" rx="87.5589" ry="19.9118" style="stroke:#181818;stroke-width:0.5;"/><text fill="#000000" font-family="sans-serif" font-size="14" lengthAdjust="spacing" textLength="128" x="191.0589" y="162.3366">UC2 - Register a job</text></g><g id="elem_UC3"><ellipse cx="257.995" cy="237.8201" fill="#F1F1F1" rx="111.495" ry="24.699" style="stroke:#181818;stroke-width:0.5;"/><text fill="#000000" font-family="sans-serif" font-size="14" lengthAdjust="spacing" textLength="184" x="165.995" y="241.617">UC3 - Register a collaborator</text></g><g id="elem_UC4"><ellipse cx="257.8859" cy="325.3983" fill="#F1F1F1" rx="129.3859" ry="28.2772" style="stroke:#181818;stroke-width:0.5;"/><text fill="#000000" font-family="sans-serif" font-size="14" lengthAdjust="spacing" textLength="223" x="146.3859" y="329.1952">UC4 - Assign skills to a collaborator</text></g><g id="elem_UC5"><ellipse cx="257.969" cy="424.4149" fill="#F1F1F1" rx="161.969" ry="34.7938" style="stroke:#181818;stroke-width:0.5;"/><text fill="#000000" font-family="sans-serif" font-size="14" lengthAdjust="spacing" textLength="292" x="111.969" y="428.2118">UC5 - Generate a team proposal automatically</text></g><g id="elem_UC6"><ellipse cx="258.1507" cy="516.7512" fill="#F1F1F1" rx="98.6507" ry="22.1301" style="stroke:#181818;stroke-width:0.5;"/><text fill="#000000" font-family="sans-serif" font-size="14" lengthAdjust="spacing" textLength="155" x="179.138" y="521.0908">UC6 - Register a Vehicle</text></g><g id="elem_UC7"><ellipse cx="257.8162" cy="602.5843" fill="#F1F1F1" rx="130.3162" ry="28.4632" style="stroke:#181818;stroke-width:0.5;"/><text fill="#000000" font-family="sans-serif" font-size="14" lengthAdjust="spacing" textLength="225" x="145.3162" y="606.3812">UC7 - Register a vehicle&#8217;s check-up</text></g><g id="elem_UC8"><ellipse cx="258.0149" cy="695.4241" fill="#F1F1F1" rx="134.5149" ry="29.303" style="stroke:#181818;stroke-width:0.5;"/><text fill="#000000" font-family="sans-serif" font-size="14" lengthAdjust="spacing" textLength="234" x="141.0149" y="699.2209">UC8 - List vehicles needing check-up</text></g><!--entity HRM--><g id="elem_HRM"><ellipse cx="21" cy="206.6211" fill="#F1F1F1" rx="8" ry="8" style="stroke:#181818;stroke-width:0.5;"/><path d="M21,214.6211 L21,241.6211 M8,222.6211 L34,222.6211 M21,241.6211 L8,256.6211 M21,241.6211 L34,256.6211 " fill="none" style="stroke:#181818;stroke-width:0.5;"/><text fill="#000000" font-family="sans-serif" font-size="14" lengthAdjust="spacing" textLength="30" x="6" y="273.2285">HRM</text></g><!--entity FM--><g id="elem_FM"><ellipse cx="21" cy="571.6211" fill="#F1F1F1" rx="8" ry="8" style="stroke:#181818;stroke-width:0.5;"/><path d="M21,579.6211 L21,606.6211 M8,587.6211 L34,587.6211 M21,606.6211 L8,621.6211 M21,606.6211 L34,621.6211 " fill="none" style="stroke:#181818;stroke-width:0.5;"/><text fill="#000000" font-family="sans-serif" font-size="14" lengthAdjust="spacing" textLength="20" x="11" y="638.2285">FM</text></g><!--link HRM to UC1--><g id="link_HRM_UC1"><path d="M28.9,197.8811 C35.53,171.7911 48.2,139.0111 72,119.6211 C98.92,97.6911 129.3099,88.3536 162.6599,84.0236 " fill="none" id="HRM-to-UC1" style="stroke:#181818;stroke-width:1.0;"/><polygon fill="#181818" points="168.61,83.2511,159.1699,80.4432,163.6516,83.8949,160.1999,88.3766,168.61,83.2511" style="stroke:#181818;stroke-width:1.0;"/></g><!--link HRM to UC2--><g id="link_HRM_UC2"><path d="M36.35,222.1911 C45.66,213.1011 58.53,202.1411 72,195.6211 C104.47,179.9111 137.2665,171.6463 170.8765,166.2263 " fill="none" id="HRM-to-UC2" style="stroke:#181818;stroke-width:1.0;"/><polygon fill="#181818" points="176.8,165.2711,167.278,162.755,171.8638,166.0671,168.5516,170.6529,176.8,165.2711" style="stroke:#181818;stroke-width:1.0;"/></g><!--link HRM to UC3--><g id="link_HRM_UC3"><path d="M36.35,237.6211 C58.52,237.6211 97.09,237.6211 140.41,237.6211 " fill="none" id="HRM-to-UC3" style="stroke:#181818;stroke-width:1.0;"/><polygon fill="#181818" points="146.41,237.6211,137.41,233.6211,141.41,237.6211,137.41,241.6211,146.41,237.6211" style="stroke:#181818;stroke-width:1.0;"/></g><!--link HRM to UC4--><g id="link_HRM_UC4"><path d="M36.02,252.4511 C45.4,261.5411 58.46,272.7211 72,279.6211 C97.21,292.4711 120.3969,300.4149 147.8569,307.2349 " fill="none" id="HRM-to-UC4" style="stroke:#181818;stroke-width:1.0;"/><polygon fill="#181818" points="153.68,308.6811,145.9095,302.6297,148.8274,307.4759,143.9812,310.3938,153.68,308.6811" style="stroke:#181818;stroke-width:1.0;"/></g><!--link HRM to UC5--><g id="link_HRM_UC5"><path d="M27.08,277.2511 C32.95,307.1611 45.48,347.0911 72,371.6211 C87.45,385.9111 100.8987,394.2304 120.8487,401.8904 " fill="none" id="HRM-to-UC5" style="stroke:#181818;stroke-width:1.0;"/><polygon fill="#181818" points="126.45,404.0411,119.4818,397.0809,121.7822,402.2489,116.6143,404.5493,126.45,404.0411" style="stroke:#181818;stroke-width:1.0;"/></g><!--link FM to UC6--><g id="link_FM_UC6"><path d="M34.87,587.0911 C44.15,576.8911 57.55,564.1111 72,556.6211 C101.61,541.2711 130.9188,532.8857 162.6388,527.0557 " fill="none" id="FM-to-UC6" style="stroke:#181818;stroke-width:1.0;"/><polygon fill="#181818" points="168.54,525.9711,158.9652,523.6639,163.6224,526.8749,160.4113,531.5321,168.54,525.9711" style="stroke:#181818;stroke-width:1.0;"/></g><!--link FM to UC7--><g id="link_FM_UC7"><path d="M34.63,602.6211 C53.08,602.6211 83.35,602.6211 121.33,602.6211 " fill="none" id="FM-to-UC7" style="stroke:#181818;stroke-width:1.0;"/><polygon fill="#181818" points="127.33,602.6211,118.33,598.6211,122.33,602.6211,118.33,606.6211,127.33,602.6211" style="stroke:#181818;stroke-width:1.0;"/></g><!--link FM to UC8--><g id="link_FM_UC8"><path d="M34.55,617.5511 C43.89,627.7411 57.48,640.7611 72,648.6211 C95.9,661.5611 117.6544,669.516 144.0944,676.416 " fill="none" id="FM-to-UC8" style="stroke:#181818;stroke-width:1.0;"/><polygon fill="#181818" points="149.9,677.9311,142.2017,671.7881,145.062,676.6685,140.1816,679.5289,149.9,677.9311" style="stroke:#181818;stroke-width:1.0;"/></g><!--SRC=[RPA_JiCm48TtFyKfIwSCzF-4X8eA0on5PRywLyVKiIFR0LK8YTVWzNWIBYIbZKM6I3_v- -xEEe_2GTiQFLPGEUjawLr547r3udnIepoWegTuD0IUP4Ih38dHcGWb5kvDMmLxD874XVp7mxi0_dRE5-HNpZZFVT06niX6yI54r96nRI1O8VzkDIgk88IXVOJem6jLHYXqMr8xAtxheOnSARlVF6QNUSrHYClc7Tu4actnRBkwWXmsf7I8v061HpOc0mp0Hoax7h8lRjUJuvIS34dfZ46-C_9KlJ99bIahDo5ePRiXGdlPVzLfgivOlIDB314haTfrULUxW0QmYQx2g2KQS-mhpD8Ay-6yprHgQQYdvocz6DAl7Vtz-HL0bYGFULFtwY9Lbwm-i7YI0bYYedqpYRdiDiKRXJo__jl6EO-JF4doDCdTdTUdE1_6nJ1oTz4-nXy0]--></g></svg>