<?xml version="1.0" encoding="us-ascii" standalone="no"?><svg xmlns="http://www.w3.org/2000/svg" xmlns:xlink="http://www.w3.org/1999/xlink" contentStyleType="text/css" height="1756px" preserveAspectRatio="none" style="width:602px;height:1756px;background:#FFFFFF;" version="1.1" viewBox="0 0 602 1756" width="602px" zoomAndPan="magnify"><defs/><g><text fill="#000000" font-family="sans-serif" font-size="14" font-weight="bold" lengthAdjust="spacing" textLength="127" x="230.5" y="25.1074">Use Case Diagram</text><g id="cluster_##6"><rect fill="none" height="1704" rx="2.5" ry="2.5" style="stroke:#181818;stroke-width:1.0;" width="468" x="128" y="46.6211"/></g><g id="elem_UC1"><ellipse cx="362.1522" cy="82.8515" fill="#F1F1F1" rx="89.1522" ry="20.2304" style="stroke:#181818;stroke-width:0.5;"/><text fill="#000000" font-family="sans-serif" font-size="14" lengthAdjust="spacing" textLength="132" x="293.1522" y="87.6553">UC1 - Register a skill</text></g><g id="elem_UC2"><ellipse cx="362.0589" cy="157.5329" fill="#F1F1F1" rx="87.5589" ry="19.9118" style="stroke:#181818;stroke-width:0.5;"/><text fill="#000000" font-family="sans-serif" font-size="14" lengthAdjust="spacing" textLength="128" x="295.0589" y="162.3366">UC2 - Register a job</text></g><g id="elem_UC3"><ellipse cx="361.995" cy="237.8201" fill="#F1F1F1" rx="111.495" ry="24.699" style="stroke:#181818;stroke-width:0.5;"/><text fill="#000000" font-family="sans-serif" font-size="14" lengthAdjust="spacing" textLength="184" x="269.995" y="241.617">UC3 - Register a collaborator</text></g><g id="elem_UC4"><ellipse cx="361.8859" cy="325.3983" fill="#F1F1F1" rx="129.3859" ry="28.2772" style="stroke:#181818;stroke-width:0.5;"/><text fill="#000000" font-family="sans-serif" font-size="14" lengthAdjust="spacing" textLength="223" x="250.3859" y="329.1952">UC4 - Assign skills to a collaborator</text></g><g id="elem_UC5"><ellipse cx="361.969" cy="424.4149" fill="#F1F1F1" rx="161.969" ry="34.7938" style="stroke:#181818;stroke-width:0.5;"/><text fill="#000000" font-family="sans-serif" font-size="14" lengthAdjust="spacing" textLength="292" x="215.969" y="428.2118">UC5 - Generate a team proposal automatically</text></g><g id="elem_UC6"><ellipse cx="362.1507" cy="516.7512" fill="#F1F1F1" rx="98.6507" ry="22.1301" style="stroke:#181818;stroke-width:0.5;"/><text fill="#000000" font-family="sans-serif" font-size="14" lengthAdjust="spacing" textLength="155" x="283.138" y="521.0908">UC6 - Register a Vehicle</text></g><g id="elem_UC7"><ellipse cx="361.8162" cy="602.5843" fill="#F1F1F1" rx="130.3162" ry="28.4632" style="stroke:#181818;stroke-width:0.5;"/><text fill="#000000" font-family="sans-serif" font-size="14" lengthAdjust="spacing" textLength="225" x="249.3162" y="606.3812">UC7 - Register a vehicle&#8217;s check-up</text></g><g id="elem_UC8"><ellipse cx="362.0149" cy="695.4241" fill="#F1F1F1" rx="134.5149" ry="29.303" style="stroke:#181818;stroke-width:0.5;"/><text fill="#000000" font-family="sans-serif" font-size="14" lengthAdjust="spacing" textLength="234" x="245.0149" y="699.2209">UC8 - List vehicles needing check-up</text></g><g id="elem_UC20"><ellipse cx="361.9437" cy="786.4098" fill="#F1F1F1" rx="116.9437" ry="25.7887" style="stroke:#181818;stroke-width:0.5;"/><text fill="#000000" font-family="sans-serif" font-size="14" lengthAdjust="spacing" textLength="196" x="263.9437" y="790.2067">UC20 - Register a greens pace</text></g><g id="elem_UC21"><ellipse cx="362.0839" cy="878.7379" fill="#F1F1F1" rx="141.0839" ry="30.6168" style="stroke:#181818;stroke-width:0.5;"/><text fill="#000000" font-family="sans-serif" font-size="14" lengthAdjust="spacing" textLength="248" x="238.0839" y="882.5347">UC21 - Add new entry to the To-Do List</text></g><g id="elem_UC22"><ellipse cx="362.1463" cy="973.5503" fill="#F1F1F1" rx="132.6463" ry="28.9293" style="stroke:#181818;stroke-width:0.5;"/><text fill="#000000" font-family="sans-serif" font-size="14" lengthAdjust="spacing" textLength="230" x="247.1463" y="977.3472">UC22 - Add new entry in the Agenda</text></g><g id="elem_UC23"><ellipse cx="362.1405" cy="1069.7492" fill="#F1F1F1" rx="148.6405" ry="32.1281" style="stroke:#181818;stroke-width:0.5;"/><text fill="#000000" font-family="sans-serif" font-size="14" lengthAdjust="spacing" textLength="264" x="230.1405" y="1073.5461">UC23 - Assign team to an entry in agenda</text></g><g id="elem_UC24"><ellipse cx="362.098" cy="1182.6407" fill="#F1F1F1" rx="218.098" ry="46.0196" style="stroke:#181818;stroke-width:0.5;"/><text fill="#000000" font-family="sans-serif" font-size="14" lengthAdjust="spacing" textLength="408" x="158.098" y="1186.4376">UC24 - Postpone an entry in the Agenda to a specific future date</text></g><g id="elem_UC25"><ellipse cx="361.8248" cy="1293.4861" fill="#F1F1F1" rx="137.3248" ry="29.865" style="stroke:#181818;stroke-width:0.5;"/><text fill="#000000" font-family="sans-serif" font-size="14" lengthAdjust="spacing" textLength="240" x="241.8248" y="1297.2829">UC25 - Cancel an entry in the Agenda</text></g><g id="elem_UC26"><ellipse cx="361.8205" cy="1403.3852" fill="#F1F1F1" rx="209.3205" ry="44.2641" style="stroke:#181818;stroke-width:0.5;"/><text fill="#000000" font-family="sans-serif" font-size="14" lengthAdjust="spacing" textLength="390" x="166.8205" y="1407.1821">UC26 - Assign one or more vehicles to an entry in the Agenda</text></g><g id="elem_UC27"><ellipse cx="361.8085" cy="1505.6828" fill="#F1F1F1" rx="100.8085" ry="22.5617" style="stroke:#181818;stroke-width:0.5;"/><text fill="#000000" font-family="sans-serif" font-size="14" lengthAdjust="spacing" textLength="160" x="280.9387" y="1509.801">UC27 - List green spaces</text></g><g id="elem_UC28"><ellipse cx="361.9983" cy="1600.6207" fill="#F1F1F1" rx="172.9983" ry="36.9997" style="stroke:#181818;stroke-width:0.5;"/><text fill="#000000" font-family="sans-serif" font-size="14" lengthAdjust="spacing" textLength="315" x="204.4983" y="1604.4176">UC28 - Consult tasks assigned between two dates</text></g><g id="elem_UC29"><ellipse cx="362.0839" cy="1703.7379" fill="#F1F1F1" rx="141.0839" ry="30.6168" style="stroke:#181818;stroke-width:0.5;"/><text fill="#000000" font-family="sans-serif" font-size="14" lengthAdjust="spacing" textLength="248" x="238.0839" y="1707.5347">UC29 - Record the completion of a task</text></g><!--entity HRM--><g id="elem_HRM"><ellipse cx="45" cy="206.6211" fill="#F1F1F1" rx="8" ry="8" style="stroke:#181818;stroke-width:0.5;"/><path d="M45,214.6211 L45,241.6211 M32,222.6211 L58,222.6211 M45,241.6211 L32,256.6211 M45,241.6211 L58,256.6211 " fill="none" style="stroke:#181818;stroke-width:0.5;"/><text fill="#000000" font-family="sans-serif" font-size="14" lengthAdjust="spacing" textLength="30" x="30" y="273.2285">HRM</text></g><!--entity FM--><g id="elem_FM"><ellipse cx="45" cy="571.6211" fill="#F1F1F1" rx="8" ry="8" style="stroke:#181818;stroke-width:0.5;"/><path d="M45,579.6211 L45,606.6211 M32,587.6211 L58,587.6211 M45,606.6211 L32,621.6211 M45,606.6211 L58,621.6211 " fill="none" style="stroke:#181818;stroke-width:0.5;"/><text fill="#000000" font-family="sans-serif" font-size="14" lengthAdjust="spacing" textLength="20" x="35" y="638.2285">FM</text></g><!--entity GSM--><g id="elem_GSM"><ellipse cx="45" cy="1095.6211" fill="#F1F1F1" rx="8" ry="8" style="stroke:#181818;stroke-width:0.5;"/><path d="M45,1103.6211 L45,1130.6211 M32,1111.6211 L58,1111.6211 M45,1130.6211 L32,1145.6211 M45,1130.6211 L58,1145.6211 " fill="none" style="stroke:#181818;stroke-width:0.5;"/><text fill="#000000" font-family="sans-serif" font-size="14" lengthAdjust="spacing" textLength="31" x="29.5" y="1162.2285">GSM</text></g><!--entity Collaborator--><g id="elem_Collaborator"><ellipse cx="45" cy="1620.6211" fill="#F1F1F1" rx="8" ry="8" style="stroke:#181818;stroke-width:0.5;"/><path d="M45,1628.6211 L45,1655.6211 M32,1636.6211 L58,1636.6211 M45,1655.6211 L32,1670.6211 M45,1655.6211 L58,1670.6211 " fill="none" style="stroke:#181818;stroke-width:0.5;"/><text fill="#000000" font-family="sans-serif" font-size="14" lengthAdjust="spacing" textLength="78" x="6" y="1687.2285">Collaborator</text></g><!--link HRM to UC1--><g id="link_HRM_UC1"><path d="M60.01,199.2011 C71.81,172.4811 91.41,138.4111 120,119.6211 C165.28,89.8611 219.5341,80.8329 268.4641,79.0229 " fill="none" id="HRM-to-UC1" style="stroke:#181818;stroke-width:1.0;"/><polygon fill="#181818" points="274.46,78.8011,265.3183,75.1365,269.4634,78.9859,265.614,83.1311,274.46,78.8011" style="stroke:#181818;stroke-width:1.0;"/></g><!--link HRM to UC2--><g id="link_HRM_UC2"><path d="M60,227.6211 C74.36,217.8811 97.69,203.4211 120,195.6211 C170.88,177.8311 224.7539,168.9777 272.0839,163.9277 " fill="none" id="HRM-to-UC2" style="stroke:#181818;stroke-width:1.0;"/><polygon fill="#181818" points="278.05,163.2911,268.6764,160.2685,273.0782,163.8216,269.5252,168.2234,278.05,163.2911" style="stroke:#181818;stroke-width:1.0;"/></g><!--link HRM to UC3--><g id="link_HRM_UC3"><path d="M60.35,237.6211 C93.69,237.6211 172.96,237.6211 244.2,237.6211 " fill="none" id="HRM-to-UC3" style="stroke:#181818;stroke-width:1.0;"/><polygon fill="#181818" points="250.2,237.6211,241.2,233.6211,245.2,237.6211,241.2,241.6211,250.2,237.6211" style="stroke:#181818;stroke-width:1.0;"/></g><!--link HRM to UC4--><g id="link_HRM_UC4"><path d="M60.06,247.4711 C74.46,257.1011 97.82,271.4611 120,279.6211 C160.68,294.5811 201.1756,303.9012 242.3456,310.9312 " fill="none" id="HRM-to-UC4" style="stroke:#181818;stroke-width:1.0;"/><polygon fill="#181818" points="248.26,311.9411,240.0617,306.4833,243.3313,311.0995,238.7151,314.3692,248.26,311.9411" style="stroke:#181818;stroke-width:1.0;"/></g><!--link HRM to UC5--><g id="link_HRM_UC5"><path d="M57.91,277.4111 C69.08,307.8111 88.8,348.3311 120,371.6211 C146.35,391.2911 172.7397,402.4738 204.9297,410.5338 " fill="none" id="HRM-to-UC5" style="stroke:#181818;stroke-width:1.0;"/><polygon fill="#181818" points="210.75,411.9911,202.9911,405.9249,205.8997,410.7766,201.048,413.6853,210.75,411.9911" style="stroke:#181818;stroke-width:1.0;"/></g><!--link FM to UC6--><g id="link_FM_UC6"><path d="M58.55,592.6511 C72.65,581.9911 96.64,565.4211 120,556.6211 C167.13,538.8611 216.433,529.6879 262.143,524.1879 " fill="none" id="FM-to-UC6" style="stroke:#181818;stroke-width:1.0;"/><polygon fill="#181818" points="268.1,523.4711,258.6866,520.5749,263.1358,524.0684,259.6423,528.5176,268.1,523.4711" style="stroke:#181818;stroke-width:1.0;"/></g><!--link FM to UC7--><g id="link_FM_UC7"><path d="M58.74,602.6211 C88.09,602.6211 157.18,602.6211 225.17,602.6211 " fill="none" id="FM-to-UC7" style="stroke:#181818;stroke-width:1.0;"/><polygon fill="#181818" points="231.17,602.6211,222.17,598.6211,226.17,602.6211,222.17,606.6211,231.17,602.6211" style="stroke:#181818;stroke-width:1.0;"/></g><!--link FM to UC8--><g id="link_FM_UC8"><path d="M58.6,612.4711 C72.74,623.0211 96.77,639.4911 120,648.6211 C158.98,663.9411 197.6318,673.3753 237.7418,680.4753 " fill="none" id="FM-to-UC8" style="stroke:#181818;stroke-width:1.0;"/><polygon fill="#181818" points="243.65,681.5211,235.485,676.0136,238.7265,680.6496,234.0906,683.8911,243.65,681.5211" style="stroke:#181818;stroke-width:1.0;"/></g><!--link GSM to UC20--><g id="link_GSM_UC20"><path d="M50.61,1086.8911 C59.83,1014.5111 82.9,865.4011 120,830.6211 C153.66,799.0611 196.106,786.8994 240.726,782.7294 " fill="none" id="GSM-to-UC20" style="stroke:#181818;stroke-width:1.0;"/><polygon fill="#181818" points="246.7,782.1711,237.3668,779.0259,241.7217,782.6363,238.1112,786.9912,246.7,782.1711" style="stroke:#181818;stroke-width:1.0;"/></g><!--link GSM to UC21--><g id="link_GSM_UC21"><path d="M49.34,1087.1011 C55.4,1041.3911 72.41,967.2411 120,926.6211 C148.31,902.4611 179.4274,890.3215 215.9174,883.3215 " fill="none" id="GSM-to-UC21" style="stroke:#181818;stroke-width:1.0;"/><polygon fill="#181818" points="221.81,882.1911,212.2176,879.9583,216.8995,883.1331,213.7248,887.815,221.81,882.1911" style="stroke:#181818;stroke-width:1.0;"/></g><!--link GSM to UC22--><g id="link_GSM_UC22"><path d="M60.58,1093.0411 C72.88,1068.7811 92.84,1037.3111 120,1019.6211 C153.02,998.1211 187.7246,987.155 226.1446,980.635 " fill="none" id="GSM-to-UC22" style="stroke:#181818;stroke-width:1.0;"/><polygon fill="#181818" points="232.06,979.6311,222.5176,977.1933,227.1305,980.4676,223.8561,985.0805,232.06,979.6311" style="stroke:#181818;stroke-width:1.0;"/></g><!--link GSM to UC23--><g id="link_GSM_UC23"><path d="M60.77,1123.9511 C93.98,1117.9411 171.2259,1103.9597 241.6159,1091.2197 " fill="none" id="GSM-to-UC23" style="stroke:#181818;stroke-width:1.0;"/><polygon fill="#181818" points="247.52,1090.1511,237.9515,1087.8179,242.5999,1091.0416,239.3763,1095.69,247.52,1090.1511" style="stroke:#181818;stroke-width:1.0;"/></g><!--link GSM to UC24--><g id="link_GSM_UC24"><path d="M60.77,1129.2511 C85.89,1133.7111 133.6726,1142.2112 188.8126,1152.0112 " fill="none" id="GSM-to-UC24" style="stroke:#181818;stroke-width:1.0;"/><polygon fill="#181818" points="194.72,1153.0611,186.5588,1147.5479,189.7971,1152.1862,185.1589,1155.4245,194.72,1153.0611" style="stroke:#181818;stroke-width:1.0;"/></g><!--link GSM to UC25--><g id="link_GSM_UC25"><path d="M60.56,1165.8411 C72.49,1192.4611 92,1226.2311 120,1245.6211 C151.48,1267.4111 184.6103,1278.7385 222.0303,1285.6685 " fill="none" id="GSM-to-UC25" style="stroke:#181818;stroke-width:1.0;"/><polygon fill="#181818" points="227.93,1286.7611,219.8089,1281.1891,223.0136,1285.8506,218.3521,1289.0553,227.93,1286.7611" style="stroke:#181818;stroke-width:1.0;"/></g><!--link GSM to UC26--><g id="link_GSM_UC26"><path d="M48.69,1166.2111 C54.13,1214.3511 70.52,1294.8211 120,1340.6211 C138.57,1357.8111 155.6331,1368.2691 179.5531,1377.5091 " fill="none" id="GSM-to-UC26" style="stroke:#181818;stroke-width:1.0;"/><polygon fill="#181818" points="185.15,1379.6711,178.196,1372.6968,180.4859,1377.8694,175.3133,1380.1593,185.15,1379.6711" style="stroke:#181818;stroke-width:1.0;"/></g><!--link GSM to UC27--><g id="link_GSM_UC27"><path d="M49.16,1166.1311 C56.41,1246.4811 77.05,1424.7911 120,1465.6211 C158.65,1502.3711 211.4811,1512.5556 261.3411,1513.5156 " fill="none" id="GSM-to-UC27" style="stroke:#181818;stroke-width:1.0;"/><polygon fill="#181818" points="267.34,1513.6311,258.4187,1509.4586,262.3409,1513.5348,258.2647,1517.4571,267.34,1513.6311" style="stroke:#181818;stroke-width:1.0;"/></g><!--link Collaborator to UC28--><g id="link_Collaborator_UC28"><path d="M84.31,1645.4211 C119.15,1639.7811 166.8071,1632.06 217.5771,1623.84 " fill="none" id="Collaborator-to-UC28" style="stroke:#181818;stroke-width:1.0;"/><polygon fill="#181818" points="223.5,1622.8811,213.9764,1620.3709,218.5643,1623.6802,215.255,1628.2681,223.5,1622.8811" style="stroke:#181818;stroke-width:1.0;"/></g><!--link Collaborator to UC29--><g id="link_Collaborator_UC29"><path d="M84.31,1657.9411 C125.14,1664.6811 185.7701,1674.6939 243.3801,1684.2039 " fill="none" id="Collaborator-to-UC29" style="stroke:#181818;stroke-width:1.0;"/><polygon fill="#181818" points="249.3,1685.1811,241.0717,1679.7687,244.3668,1684.3667,239.7687,1687.6618,249.3,1685.1811" style="stroke:#181818;stroke-width:1.0;"/></g><!--SRC=[TLJBRjim4BppAnQ-v6J0eP-v530S93sqG94qlTFKMc9DaG99rJ2A0lsD_bw_fAHaMXRP-61WbpFBuUvex-nHg8OPLaEjbUQLqJM2CosIuQHX_CXAV7LdYM2GEwPAYUHkGDYA5VeaL0a79YqIueJps3UBi6F-xr6mqkC8aNXmu3GOKLOE2X6g2Qq80VzZt6a3auyldoUtyTCuV7uTnpij9Tjhmtmq8OHS1S9FqjTjBVAWOlAskuSfl60fh4C33FmBf9m0i-2FKYmTOx_h_GL9K-HyZEItYdhAFAKiF6LhhIXLByA6hloNkaYfIqzzHeKUX9xYC8p8w4PR9e6rJjVC2SwaF5ygBDCAgx7URrW9Bl62NgNezHZzeqV__Vt70g-G7wTjSw6kK-h6KpzvOYHPK8X5y4d2t6JDdurlBGsYii6AKIUTPPmmtMrH-4jEWCgPSsYggn2-wkcZxfH4SZvjcf65wiZR4bN18Z4RFfqFe-nc4GQfXX9iHC-CG8CJlcZh6grmH1pkxhrX6-JY83WSMjSQXCBFFvRDJ4A3ItPCSPJl58tKp1rqDJmeQF8VMQtzVTSP9W_CIsOMekjeX6wE_Yb-ZZR2CzlGu9kTLhQLVbimUxGU6VHW0Njqfr32dNJNWMkLt48FdOMuDaMdaUkwaHZM3UX3-71yuKX-kAmAltjWElrmNGT3J9DudiIB9ExR-XJ3rJXSZyDUkzziyR9PchXF4pHDpDF48aqiqyGgJVIoRZTgFDcyUn9QHtuHyWy0]--></g></svg>