<?xml version="1.0" encoding="us-ascii" standalone="no"?><svg xmlns="http://www.w3.org/2000/svg" xmlns:xlink="http://www.w3.org/1999/xlink" contentStyleType="text/css" height="1000px" preserveAspectRatio="none" style="width:633px;height:1000px;background:#FFFFFF;" version="1.1" viewBox="0 0 633 1000" width="633px" zoomAndPan="magnify"><defs/><g><text fill="#000000" font-family="sans-serif" font-size="14" font-weight="bold" lengthAdjust="spacing" textLength="155" x="232.25" y="25.1074">US008 - Class Diagram</text><!--class ListVehiclesNeedingCheckupUI--><g id="elem_ListVehiclesNeedingCheckupUI"><rect codeLine="12" fill="#F1F1F1" height="122.4844" id="ListVehiclesNeedingCheckupUI" rx="2.5" ry="2.5" style="stroke:#181818;stroke-width:0.5;" width="365" x="147" y="46.6211"/><ellipse cx="227.75" cy="62.6211" fill="#ADD1B2" rx="11" ry="11" style="stroke:#181818;stroke-width:1.0;"/><path d="M230.5156,58.4961 Q230.6719,58.2773 230.8594,58.168 Q231.0469,58.0586 231.2656,58.0586 Q231.6406,58.0586 231.875,58.3242 Q232.1094,58.5742 232.1094,59.1836 L232.1094,60.6367 Q232.1094,61.2461 231.875,61.5117 Q231.6406,61.7773 231.2656,61.7773 Q230.9219,61.7773 230.7188,61.5742 Q230.5156,61.3867 230.4063,60.8711 Q230.3594,60.5117 230.1719,60.3242 Q229.8438,59.9492 229.2344,59.7305 Q228.625,59.5117 228,59.5117 Q227.2344,59.5117 226.5938,59.8398 Q225.9688,60.168 225.4688,60.918 Q224.9844,61.668 224.9844,62.6992 L224.9844,63.793 Q224.9844,65.0273 225.875,65.8555 Q226.7656,66.668 228.3594,66.668 Q229.2969,66.668 229.9531,66.418 Q230.3438,66.2617 230.7656,65.8242 Q231.0313,65.5586 231.1719,65.4805 Q231.3281,65.4023 231.5313,65.4023 Q231.8594,65.4023 232.1094,65.668 Q232.375,65.918 232.375,66.2617 Q232.375,66.6055 232.0313,67.0117 Q231.5313,67.5898 230.7344,67.918 Q229.6563,68.3711 228.3594,68.3711 Q226.8438,68.3711 225.6406,67.7461 Q224.6563,67.2461 223.9688,66.1836 Q223.2813,65.1055 223.2813,63.8242 L223.2813,62.668 Q223.2813,61.3398 223.8906,60.1992 Q224.5156,59.043 225.6094,58.4336 Q226.7031,57.8086 227.9375,57.8086 Q228.6719,57.8086 229.3125,57.9805 Q229.9688,58.1367 230.5156,58.4961 Z " fill="#000000"/><text fill="#000000" font-family="sans-serif" font-size="14" lengthAdjust="spacing" textLength="195" x="248.25" y="68.418">ListVehiclesNeedingCheckupUI</text><line style="stroke:#181818;stroke-width:0.5;" x1="148" x2="511" y1="78.6211" y2="78.6211"/><text fill="#000000" font-family="sans-serif" font-size="14" lengthAdjust="spacing" textLength="313" x="153" y="97.7285">-ListVehiclesNeedingCheckupController controller</text><line style="stroke:#181818;stroke-width:0.5;" x1="148" x2="511" y1="105.2422" y2="105.2422"/><text fill="#000000" font-family="sans-serif" font-size="14" lengthAdjust="spacing" textLength="213" x="153" y="124.3496">+ListVehiclesNeedingCheckupUI()</text><text fill="#000000" font-family="sans-serif" font-size="14" lengthAdjust="spacing" textLength="353" x="153" y="142.9707">+getController(): ListVehiclesNeedingCheckupController</text><text fill="#000000" font-family="sans-serif" font-size="14" lengthAdjust="spacing" textLength="77" x="153" y="161.5918">-showData()</text></g><!--class ListVehiclesNeedingCheckupController--><g id="elem_ListVehiclesNeedingCheckupController"><rect codeLine="19" fill="#F1F1F1" height="141.1055" id="ListVehiclesNeedingCheckupController" rx="2.5" ry="2.5" style="stroke:#181818;stroke-width:0.5;" width="277" x="191" y="229.6211"/><ellipse cx="206" cy="245.6211" fill="#ADD1B2" rx="11" ry="11" style="stroke:#181818;stroke-width:1.0;"/><path d="M208.7656,241.4961 Q208.9219,241.2773 209.1094,241.168 Q209.2969,241.0586 209.5156,241.0586 Q209.8906,241.0586 210.125,241.3242 Q210.3594,241.5742 210.3594,242.1836 L210.3594,243.6367 Q210.3594,244.2461 210.125,244.5117 Q209.8906,244.7773 209.5156,244.7773 Q209.1719,244.7773 208.9688,244.5742 Q208.7656,244.3867 208.6563,243.8711 Q208.6094,243.5117 208.4219,243.3242 Q208.0938,242.9492 207.4844,242.7305 Q206.875,242.5117 206.25,242.5117 Q205.4844,242.5117 204.8438,242.8398 Q204.2188,243.168 203.7188,243.918 Q203.2344,244.668 203.2344,245.6992 L203.2344,246.793 Q203.2344,248.0273 204.125,248.8555 Q205.0156,249.668 206.6094,249.668 Q207.5469,249.668 208.2031,249.418 Q208.5938,249.2617 209.0156,248.8242 Q209.2813,248.5586 209.4219,248.4805 Q209.5781,248.4023 209.7813,248.4023 Q210.1094,248.4023 210.3594,248.668 Q210.625,248.918 210.625,249.2617 Q210.625,249.6055 210.2813,250.0117 Q209.7813,250.5898 208.9844,250.918 Q207.9063,251.3711 206.6094,251.3711 Q205.0938,251.3711 203.8906,250.7461 Q202.9063,250.2461 202.2188,249.1836 Q201.5313,248.1055 201.5313,246.8242 L201.5313,245.668 Q201.5313,244.3398 202.1406,243.1992 Q202.7656,242.043 203.8594,241.4336 Q204.9531,240.8086 206.1875,240.8086 Q206.9219,240.8086 207.5625,240.9805 Q208.2188,241.1367 208.7656,241.4961 Z " fill="#000000"/><text fill="#000000" font-family="sans-serif" font-size="14" lengthAdjust="spacing" textLength="245" x="220" y="251.418">ListVehiclesNeedingCheckupController</text><line style="stroke:#181818;stroke-width:0.5;" x1="192" x2="467" y1="261.6211" y2="261.6211"/><text fill="#000000" font-family="sans-serif" font-size="14" lengthAdjust="spacing" textLength="254" x="197" y="280.7285">-CheckupRepository checkupRepository</text><text fill="#000000" font-family="sans-serif" font-size="14" lengthAdjust="spacing" textLength="235" x="197" y="299.3496">-VehicleRepository vehicleRepository</text><line style="stroke:#181818;stroke-width:0.5;" x1="192" x2="467" y1="306.8633" y2="306.8633"/><text fill="#000000" font-family="sans-serif" font-size="14" lengthAdjust="spacing" textLength="199" x="197" y="325.9707">+getVehiclesNeedingCheckup()</text><text fill="#000000" font-family="sans-serif" font-size="14" lengthAdjust="spacing" textLength="162" x="197" y="344.5918">+getCheckupRepository()</text><text fill="#000000" font-family="sans-serif" font-size="14" lengthAdjust="spacing" textLength="152" x="197" y="363.2129">+getVehicleRepository()</text></g><!--class Repositories--><g id="elem_Repositories"><rect codeLine="27" fill="#F1F1F1" height="122.4844" id="Repositories" rx="2.5" ry="2.5" style="stroke:#181818;stroke-width:0.5;" width="174" x="242.5" y="449.6211"/><ellipse cx="285.85" cy="465.6211" fill="#ADD1B2" rx="11" ry="11" style="stroke:#181818;stroke-width:1.0;"/><path d="M288.6156,461.4961 Q288.7719,461.2773 288.9594,461.168 Q289.1469,461.0586 289.3656,461.0586 Q289.7406,461.0586 289.975,461.3242 Q290.2094,461.5742 290.2094,462.1836 L290.2094,463.6367 Q290.2094,464.2461 289.975,464.5117 Q289.7406,464.7773 289.3656,464.7773 Q289.0219,464.7773 288.8188,464.5742 Q288.6156,464.3867 288.5063,463.8711 Q288.4594,463.5117 288.2719,463.3242 Q287.9438,462.9492 287.3344,462.7305 Q286.725,462.5117 286.1,462.5117 Q285.3344,462.5117 284.6938,462.8398 Q284.0688,463.168 283.5688,463.918 Q283.0844,464.668 283.0844,465.6992 L283.0844,466.793 Q283.0844,468.0273 283.975,468.8555 Q284.8656,469.668 286.4594,469.668 Q287.3969,469.668 288.0531,469.418 Q288.4438,469.2617 288.8656,468.8242 Q289.1313,468.5586 289.2719,468.4805 Q289.4281,468.4023 289.6313,468.4023 Q289.9594,468.4023 290.2094,468.668 Q290.475,468.918 290.475,469.2617 Q290.475,469.6055 290.1313,470.0117 Q289.6313,470.5898 288.8344,470.918 Q287.7563,471.3711 286.4594,471.3711 Q284.9438,471.3711 283.7406,470.7461 Q282.7563,470.2461 282.0688,469.1836 Q281.3813,468.1055 281.3813,466.8242 L281.3813,465.668 Q281.3813,464.3398 281.9906,463.1992 Q282.6156,462.043 283.7094,461.4336 Q284.8031,460.8086 286.0375,460.8086 Q286.7719,460.8086 287.4125,460.9805 Q288.0688,461.1367 288.6156,461.4961 Z " fill="#000000"/><text fill="#000000" font-family="sans-serif" font-size="14" lengthAdjust="spacing" textLength="79" x="306.15" y="471.418">Repositories</text><line style="stroke:#181818;stroke-width:0.5;" x1="243.5" x2="415.5" y1="481.6211" y2="481.6211"/><line style="stroke:#181818;stroke-width:0.5;" x1="243.5" x2="415.5" y1="489.6211" y2="489.6211"/><text fill="#000000" font-family="sans-serif" font-size="14" lengthAdjust="spacing" textLength="94" x="248.5" y="508.7285">-Repositories()</text><text fill="#000000" font-family="sans-serif" font-size="14" lengthAdjust="spacing" textLength="91" x="248.5" y="527.3496">+getInstance()</text><text fill="#000000" font-family="sans-serif" font-size="14" lengthAdjust="spacing" textLength="152" x="248.5" y="545.9707">+getVehicleRepository()</text><text fill="#000000" font-family="sans-serif" font-size="14" lengthAdjust="spacing" textLength="162" x="248.5" y="564.5918">+getCheckupRepository()</text></g><!--class VehicleRepository--><g id="elem_VehicleRepository"><rect codeLine="34" fill="#F1F1F1" height="141.1055" id="VehicleRepository" rx="2.5" ry="2.5" style="stroke:#181818;stroke-width:0.5;" width="208" x="57.5" y="632.6211"/><ellipse cx="100.4" cy="648.6211" fill="#ADD1B2" rx="11" ry="11" style="stroke:#181818;stroke-width:1.0;"/><path d="M103.1656,644.4961 Q103.3219,644.2773 103.5094,644.168 Q103.6969,644.0586 103.9156,644.0586 Q104.2906,644.0586 104.525,644.3242 Q104.7594,644.5742 104.7594,645.1836 L104.7594,646.6367 Q104.7594,647.2461 104.525,647.5117 Q104.2906,647.7773 103.9156,647.7773 Q103.5719,647.7773 103.3688,647.5742 Q103.1656,647.3867 103.0563,646.8711 Q103.0094,646.5117 102.8219,646.3242 Q102.4938,645.9492 101.8844,645.7305 Q101.275,645.5117 100.65,645.5117 Q99.8844,645.5117 99.2438,645.8398 Q98.6188,646.168 98.1188,646.918 Q97.6344,647.668 97.6344,648.6992 L97.6344,649.793 Q97.6344,651.0273 98.525,651.8555 Q99.4156,652.668 101.0094,652.668 Q101.9469,652.668 102.6031,652.418 Q102.9938,652.2617 103.4156,651.8242 Q103.6813,651.5586 103.8219,651.4805 Q103.9781,651.4023 104.1813,651.4023 Q104.5094,651.4023 104.7594,651.668 Q105.025,651.918 105.025,652.2617 Q105.025,652.6055 104.6813,653.0117 Q104.1813,653.5898 103.3844,653.918 Q102.3063,654.3711 101.0094,654.3711 Q99.4938,654.3711 98.2906,653.7461 Q97.3063,653.2461 96.6188,652.1836 Q95.9313,651.1055 95.9313,649.8242 L95.9313,648.668 Q95.9313,647.3398 96.5406,646.1992 Q97.1656,645.043 98.2594,644.4336 Q99.3531,643.8086 100.5875,643.8086 Q101.3219,643.8086 101.9625,643.9805 Q102.6188,644.1367 103.1656,644.4961 Z " fill="#000000"/><text fill="#000000" font-family="sans-serif" font-size="14" lengthAdjust="spacing" textLength="114" x="120.6" y="654.418">VehicleRepository</text><line style="stroke:#181818;stroke-width:0.5;" x1="58.5" x2="264.5" y1="664.6211" y2="664.6211"/><text fill="#000000" font-family="sans-serif" font-size="14" lengthAdjust="spacing" textLength="159" x="63.5" y="683.7285">-List&lt;Vehicle&gt; vehicleList</text><line style="stroke:#181818;stroke-width:0.5;" x1="58.5" x2="264.5" y1="691.2422" y2="691.2422"/><text fill="#000000" font-family="sans-serif" font-size="14" lengthAdjust="spacing" textLength="196" x="63.5" y="710.3496">-getVehiclesNeedingCheckup()</text><text fill="#000000" font-family="sans-serif" font-size="14" lengthAdjust="spacing" textLength="88" x="63.5" y="728.9707">-getVehicles()</text><text fill="#000000" font-family="sans-serif" font-size="14" lengthAdjust="spacing" textLength="110" x="63.5" y="747.5918">-needsCheckup()</text><text fill="#000000" font-family="sans-serif" font-size="14" lengthAdjust="spacing" textLength="179" x="63.5" y="766.2129">-addVehicle(Vehicle vehicle)</text></g><!--class CheckupRepository--><g id="elem_CheckupRepository"><rect codeLine="42" fill="#F1F1F1" height="85.2422" id="CheckupRepository" rx="2.5" ry="2.5" style="stroke:#181818;stroke-width:0.5;" width="190" x="401.5" y="660.6211"/><ellipse cx="431.8" cy="676.6211" fill="#ADD1B2" rx="11" ry="11" style="stroke:#181818;stroke-width:1.0;"/><path d="M434.5656,672.4961 Q434.7219,672.2773 434.9094,672.168 Q435.0969,672.0586 435.3156,672.0586 Q435.6906,672.0586 435.925,672.3242 Q436.1594,672.5742 436.1594,673.1836 L436.1594,674.6367 Q436.1594,675.2461 435.925,675.5117 Q435.6906,675.7773 435.3156,675.7773 Q434.9719,675.7773 434.7688,675.5742 Q434.5656,675.3867 434.4563,674.8711 Q434.4094,674.5117 434.2219,674.3242 Q433.8938,673.9492 433.2844,673.7305 Q432.675,673.5117 432.05,673.5117 Q431.2844,673.5117 430.6438,673.8398 Q430.0188,674.168 429.5188,674.918 Q429.0344,675.668 429.0344,676.6992 L429.0344,677.793 Q429.0344,679.0273 429.925,679.8555 Q430.8156,680.668 432.4094,680.668 Q433.3469,680.668 434.0031,680.418 Q434.3938,680.2617 434.8156,679.8242 Q435.0813,679.5586 435.2219,679.4805 Q435.3781,679.4023 435.5813,679.4023 Q435.9094,679.4023 436.1594,679.668 Q436.425,679.918 436.425,680.2617 Q436.425,680.6055 436.0813,681.0117 Q435.5813,681.5898 434.7844,681.918 Q433.7063,682.3711 432.4094,682.3711 Q430.8938,682.3711 429.6906,681.7461 Q428.7063,681.2461 428.0188,680.1836 Q427.3313,679.1055 427.3313,677.8242 L427.3313,676.668 Q427.3313,675.3398 427.9406,674.1992 Q428.5656,673.043 429.6594,672.4336 Q430.7531,671.8086 431.9875,671.8086 Q432.7219,671.8086 433.3625,671.9805 Q434.0188,672.1367 434.5656,672.4961 Z " fill="#000000"/><text fill="#000000" font-family="sans-serif" font-size="14" lengthAdjust="spacing" textLength="124" x="449.2" y="682.418">CheckupRepository</text><line style="stroke:#181818;stroke-width:0.5;" x1="402.5" x2="590.5" y1="692.6211" y2="692.6211"/><text fill="#000000" font-family="sans-serif" font-size="14" lengthAdjust="spacing" textLength="178" x="407.5" y="711.7285">-List&lt;Checkup&gt; checkupList</text><line style="stroke:#181818;stroke-width:0.5;" x1="402.5" x2="590.5" y1="719.2422" y2="719.2422"/><text fill="#000000" font-family="sans-serif" font-size="14" lengthAdjust="spacing" textLength="162" x="407.5" y="738.3496">+getVehicleCheckupList()</text></g><!--class VehicleNeedingCheckup--><g id="elem_VehicleNeedingCheckup"><rect codeLine="47" fill="#F1F1F1" height="141.1055" id="VehicleNeedingCheckup" rx="2.5" ry="2.5" style="stroke:#181818;stroke-width:0.5;" width="309" x="7" y="852.6211"/><ellipse cx="80.25" cy="868.6211" fill="#ADD1B2" rx="11" ry="11" style="stroke:#181818;stroke-width:1.0;"/><path d="M83.0156,864.4961 Q83.1719,864.2773 83.3594,864.168 Q83.5469,864.0586 83.7656,864.0586 Q84.1406,864.0586 84.375,864.3242 Q84.6094,864.5742 84.6094,865.1836 L84.6094,866.6367 Q84.6094,867.2461 84.375,867.5117 Q84.1406,867.7773 83.7656,867.7773 Q83.4219,867.7773 83.2188,867.5742 Q83.0156,867.3867 82.9063,866.8711 Q82.8594,866.5117 82.6719,866.3242 Q82.3438,865.9492 81.7344,865.7305 Q81.125,865.5117 80.5,865.5117 Q79.7344,865.5117 79.0938,865.8398 Q78.4688,866.168 77.9688,866.918 Q77.4844,867.668 77.4844,868.6992 L77.4844,869.793 Q77.4844,871.0273 78.375,871.8555 Q79.2656,872.668 80.8594,872.668 Q81.7969,872.668 82.4531,872.418 Q82.8438,872.2617 83.2656,871.8242 Q83.5313,871.5586 83.6719,871.4805 Q83.8281,871.4023 84.0313,871.4023 Q84.3594,871.4023 84.6094,871.668 Q84.875,871.918 84.875,872.2617 Q84.875,872.6055 84.5313,873.0117 Q84.0313,873.5898 83.2344,873.918 Q82.1563,874.3711 80.8594,874.3711 Q79.3438,874.3711 78.1406,873.7461 Q77.1563,873.2461 76.4688,872.1836 Q75.7813,871.1055 75.7813,869.8242 L75.7813,868.668 Q75.7813,867.3398 76.3906,866.1992 Q77.0156,865.043 78.1094,864.4336 Q79.2031,863.8086 80.4375,863.8086 Q81.1719,863.8086 81.8125,863.9805 Q82.4688,864.1367 83.0156,864.4961 Z " fill="#000000"/><text fill="#000000" font-family="sans-serif" font-size="14" lengthAdjust="spacing" textLength="154" x="100.75" y="874.418">VehicleNeedingCheckup</text><line style="stroke:#181818;stroke-width:0.5;" x1="8" x2="315" y1="884.6211" y2="884.6211"/><text fill="#000000" font-family="sans-serif" font-size="14" lengthAdjust="spacing" textLength="99" x="13" y="903.7285">-Vehicle vehicle</text><text fill="#000000" font-family="sans-serif" font-size="14" lengthAdjust="spacing" textLength="122" x="13" y="922.3496">-int lastCheckupKm</text><text fill="#000000" font-family="sans-serif" font-size="14" lengthAdjust="spacing" textLength="172" x="13" y="940.9707">-int optimalNextCheckupKm</text><line style="stroke:#181818;stroke-width:0.5;" x1="8" x2="315" y1="948.4844" y2="948.4844"/><text fill="#000000" font-family="sans-serif" font-size="14" lengthAdjust="spacing" textLength="265" x="13" y="967.5918">+VehicleNeedingCheckup(Vehicle vehicle,</text><text fill="#000000" font-family="sans-serif" font-size="14" lengthAdjust="spacing" textLength="297" x="13" y="986.2129">int lastCheckupKm, int optimalNextCheckupKm)</text></g><!--link ListVehiclesNeedingCheckupUI to ListVehiclesNeedingCheckupController--><g id="link_ListVehiclesNeedingCheckupUI_ListVehiclesNeedingCheckupController"><path codeLine="54" d="M329.5,168.6311 C329.5,187.9411 329.5,203.4911 329.5,223.4311 " fill="none" id="ListVehiclesNeedingCheckupUI-to-ListVehiclesNeedingCheckupController" style="stroke:#181818;stroke-width:1.0;stroke-dasharray:7.0,7.0;"/><polygon fill="#181818" points="329.5,229.4311,333.5,220.4311,329.5,224.4311,325.5,220.4311,329.5,229.4311" style="stroke:#181818;stroke-width:1.0;"/></g><!--link ListVehiclesNeedingCheckupController to Repositories--><g id="link_ListVehiclesNeedingCheckupController_Repositories"><path codeLine="55" d="M329.5,370.8411 C329.5,396.2911 329.5,418.8411 329.5,443.3911 " fill="none" id="ListVehiclesNeedingCheckupController-to-Repositories" style="stroke:#181818;stroke-width:1.0;stroke-dasharray:7.0,7.0;"/><polygon fill="#181818" points="329.5,449.3911,333.5,440.3911,329.5,444.3911,325.5,440.3911,329.5,449.3911" style="stroke:#181818;stroke-width:1.0;"/><text fill="#000000" font-family="sans-serif" font-size="13" lengthAdjust="spacing" textLength="67" x="330.5" y="415.6494">repositories</text></g><!--link ListVehiclesNeedingCheckupController to VehicleRepository--><g id="link_ListVehiclesNeedingCheckupController_VehicleRepository"><path codeLine="56" d="M231.89,370.8011 C177.85,409.3911 121.5,449.6211 121.5,449.6211 C121.5,449.6211 121.5,571.6211 121.5,571.6211 C121.5,571.6211 128.8219,595.5245 138.3319,626.5545 " fill="none" id="ListVehiclesNeedingCheckupController-to-VehicleRepository" style="stroke:#181818;stroke-width:1.0;stroke-dasharray:7.0,7.0;"/><polygon fill="#181818" points="140.09,632.2911,141.2772,622.5141,138.6249,627.5106,133.6284,624.8582,140.09,632.2911" style="stroke:#181818;stroke-width:1.0;"/><text fill="#000000" font-family="sans-serif" font-size="13" lengthAdjust="spacing" textLength="101" x="122.5" y="516.1494">vehicleRepository</text></g><!--link ListVehiclesNeedingCheckupController to CheckupRepository--><g id="link_ListVehiclesNeedingCheckupController_CheckupRepository"><path codeLine="57" d="M415.84,370.8011 C463.65,409.3911 513.5,449.6211 513.5,449.6211 C513.5,449.6211 513.5,571.6211 513.5,571.6211 C513.5,571.6211 507.6743,616.3313 502.7043,654.5213 " fill="none" id="ListVehiclesNeedingCheckupController-to-CheckupRepository" style="stroke:#181818;stroke-width:1.0;stroke-dasharray:7.0,7.0;"/><polygon fill="#181818" points="501.93,660.4711,507.058,652.0626,502.5753,655.5129,499.1249,651.0301,501.93,660.4711" style="stroke:#181818;stroke-width:1.0;"/><text fill="#000000" font-family="sans-serif" font-size="13" lengthAdjust="spacing" textLength="111" x="514.5" y="516.1494">checkupRepository</text></g><!--link Repositories to VehicleRepository--><g id="link_Repositories_VehicleRepository"><path codeLine="58" d="M276.57,571.6311 C259.55,590.9411 244.5079,607.9905 226.9279,627.9305 " fill="none" id="Repositories-to-VehicleRepository" style="stroke:#181818;stroke-width:1.0;"/><polygon fill="#181818" points="222.96,632.4311,231.9123,628.3255,226.2666,628.6806,225.9115,623.0349,222.96,632.4311" style="stroke:#181818;stroke-width:1.0;"/><text fill="#000000" font-family="sans-serif" font-size="13" lengthAdjust="spacing" textLength="7" x="221.9371" y="621.3025">1</text></g><!--link Repositories to CheckupRepository--><g id="link_Repositories_CheckupRepository"><path codeLine="59" d="M382.11,571.6311 C407.45,600.5411 433.2448,629.9593 456.0548,655.9793 " fill="none" id="Repositories-to-CheckupRepository" style="stroke:#181818;stroke-width:1.0;"/><polygon fill="#181818" points="460.01,660.4911,457.0851,651.0866,456.714,656.7313,451.0693,656.3602,460.01,660.4911" style="stroke:#181818;stroke-width:1.0;"/><text fill="#000000" font-family="sans-serif" font-size="13" lengthAdjust="spacing" textLength="7" x="446.6366" y="649.3745">1</text></g><!--link VehicleRepository to VehicleNeedingCheckup--><g id="link_VehicleRepository_VehicleNeedingCheckup"><path codeLine="60" d="M161.5,773.7011 C161.5,798.8711 161.5,821.2811 161.5,846.4611 " fill="none" id="VehicleRepository-to-VehicleNeedingCheckup" style="stroke:#181818;stroke-width:1.0;stroke-dasharray:7.0,7.0;"/><polygon fill="#181818" points="161.5,852.4611,165.5,843.4611,161.5,847.4611,157.5,843.4611,161.5,852.4611" style="stroke:#181818;stroke-width:1.0;"/><text fill="#000000" font-family="sans-serif" font-size="13" lengthAdjust="spacing" textLength="137" x="162.5" y="818.6494">vehicleNeedingCheckup</text></g><!--link Repositories to Repositories--><g id="link_Repositories_Repositories"><path codeLine="61" d="M416.68,494.1211 C436.76,495.5411 451.5,501.0411 451.5,510.6211 C451.5,520.2011 442.7451,525.2778 422.6651,526.6978 " fill="none" id="Repositories-to-Repositories" style="stroke:#181818;stroke-width:1.0;"/><polygon fill="#181818" points="416.68,527.1211,425.9397,530.4763,421.6675,526.7684,425.3754,522.4962,416.68,527.1211" style="stroke:#181818;stroke-width:1.0;"/><text fill="#000000" font-family="sans-serif" font-size="13" lengthAdjust="spacing" textLength="49" x="457.5" y="516.1494">instance</text></g><!--SRC=[ZLEnRjim4Dtv5GSjTf0uSBV2A0mKpcAqo50tdRgmr4KYJ942UMxg1lttIX4bKQ9YoukiUu_ltgFk5kueTSajBw0mseZScWA1x0bPZvHS77c61peh18k2kCvKI70vJysBr1ayS-L2H4cDT2uHIgFEzGjRJ836ac71AQ6uSv-9hFnr8jmBem_oByAQVPTKMNWwhDSVOGMxcWOFacVL8SOM2fy9o82LMKwGojggD9gnXlXLElg1kHGAtIDYMldTvIYEf_9f3wyCgj_gVSxEQB96ARGWkhzlXsul2Izl6aw6r2iiRpOmfrFZoUNcvO4JhwJ-NSyI-FIPFF0DI-Ca6Ni6CQuqH2yO47-FArsOwUPXsd6F08iQXT6wgaJd4uIbG6QlNJMA0gyeNtBKTOsp1nFnoQFRzaBgOWDVkugGq9PqHNGZ6azJJrlwPzihC1b_oT2aHxVjv-rC1XUpww69zCC4huEfQEqqHQa9gfFjdNuf-h8fIHPSFUAV4NexsMKSz-wdZiJlu3tXjmmN5_l-VZjlrsQjLAqMJYDi8B71Up9V9fwupSI-pPQBPsCpiUS3xwlL5f8FIUnacXPrO7648DZGRHzkM1-rYczN-YLF6FiF]--></g></svg>