<?xml version="1.0" encoding="us-ascii" standalone="no"?><svg xmlns="http://www.w3.org/2000/svg" xmlns:xlink="http://www.w3.org/1999/xlink" contentStyleType="text/css" height="1247px" preserveAspectRatio="none" style="width:1964px;height:1247px;background:#FFFFFF;" version="1.1" viewBox="0 0 1964 1247" width="1964px" zoomAndPan="magnify"><defs/><g><text fill="#000000" font-family="sans-serif" font-size="14" font-weight="bold" lengthAdjust="spacing" textLength="284" x="841.75" y="30.1074">US008 - System Sequence Diagram (SSD)</text><rect fill="#FFFFFF" height="972.3906" style="stroke:#181818;stroke-width:1.0;" width="10" x="433" y="173.8242"/><rect fill="#FFFFFF" height="831.6055" style="stroke:#181818;stroke-width:1.0;" width="10" x="681" y="248.7363"/><rect fill="#FFFFFF" height="31.291" style="stroke:#181818;stroke-width:1.0;" width="10" x="871" y="280.0273"/><rect fill="#FFFFFF" height="31.291" style="stroke:#181818;stroke-width:1.0;" width="10" x="871" y="522.3555"/><rect fill="#FFFFFF" height="31.291" style="stroke:#181818;stroke-width:1.0;" width="10" x="978" y="342.6094"/><rect fill="#FFFFFF" height="31.291" style="stroke:#181818;stroke-width:1.0;" width="10" x="978" y="584.9375"/><rect fill="#FFFFFF" height="31.291" style="stroke:#181818;stroke-width:1.0;" width="10" x="1107.5" y="405.1914"/><rect fill="#FFFFFF" height="401.5313" style="stroke:#181818;stroke-width:1.0;" width="10" x="1254.5" y="647.5195"/><rect fill="#FFFFFF" height="158.4551" style="stroke:#181818;stroke-width:1.0;" width="10" x="1259.5" y="757.3926"/><rect fill="none" height="311.9492" style="stroke:#000000;stroke-width:1.5;" width="775" x="1183.5" y="706.8105"/><line style="stroke:#181818;stroke-width:0.5;stroke-dasharray:5.0,5.0;" x1="54" x2="54" y1="123.2422" y2="1164.2148"/><line style="stroke:#181818;stroke-width:0.5;stroke-dasharray:5.0,5.0;" x1="437.5" x2="437.5" y1="123.2422" y2="1164.2148"/><line style="stroke:#181818;stroke-width:0.5;stroke-dasharray:5.0,5.0;" x1="685.5" x2="685.5" y1="213.6348" y2="1164.2148"/><line style="stroke:#181818;stroke-width:0.5;stroke-dasharray:5.0,5.0;" x1="875.5" x2="875.5" y1="123.2422" y2="1164.2148"/><line style="stroke:#181818;stroke-width:0.5;stroke-dasharray:5.0,5.0;" x1="982.5" x2="982.5" y1="123.2422" y2="1164.2148"/><line style="stroke:#181818;stroke-width:0.5;stroke-dasharray:5.0,5.0;" x1="1112.5" x2="1112.5" y1="123.2422" y2="1164.2148"/><line style="stroke:#181818;stroke-width:0.5;stroke-dasharray:5.0,5.0;" x1="1259.5" x2="1259.5" y1="123.2422" y2="1164.2148"/><line style="stroke:#181818;stroke-width:0.5;stroke-dasharray:5.0,5.0;" x1="1862.5" x2="1862.5" y1="962.6582" y2="1164.2148"/><text fill="#000000" font-family="sans-serif" font-size="14" lengthAdjust="spacing" textLength="92" x="5" y="119.7285">Fleet Manager</text><ellipse cx="54" cy="53.1211" fill="#E3E3E3" rx="8" ry="8" style="stroke:#181818;stroke-width:0.5;"/><path d="M54,61.1211 L54,88.1211 M41,69.1211 L67,69.1211 M54,88.1211 L41,103.1211 M54,88.1211 L67,103.1211 " fill="none" style="stroke:#181818;stroke-width:0.5;"/><text fill="#000000" font-family="sans-serif" font-size="14" lengthAdjust="spacing" textLength="92" x="5" y="1178.3223">Fleet Manager</text><ellipse cx="54" cy="1190.3359" fill="#E3E3E3" rx="8" ry="8" style="stroke:#181818;stroke-width:0.5;"/><path d="M54,1198.3359 L54,1225.3359 M41,1206.3359 L67,1206.3359 M54,1225.3359 L41,1240.3359 M54,1225.3359 L67,1240.3359 " fill="none" style="stroke:#181818;stroke-width:0.5;"/><rect fill="#E3E3E3" height="32.6211" rx="2.5" ry="2.5" style="stroke:#181818;stroke-width:0.5;" width="213" x="331.5" y="89.6211"/><text fill="#000000" font-family="sans-serif" font-size="14" lengthAdjust="spacing" textLength="199" x="338.5" y="111.7285">:ListVehiclesNeedingCheckupUI</text><rect fill="#E3E3E3" height="32.6211" rx="2.5" ry="2.5" style="stroke:#181818;stroke-width:0.5;" width="213" x="331.5" y="1163.2148"/><text fill="#000000" font-family="sans-serif" font-size="14" lengthAdjust="spacing" textLength="199" x="338.5" y="1185.3223">:ListVehiclesNeedingCheckupUI</text><rect fill="#E3E3E3" height="32.6211" rx="2.5" ry="2.5" style="stroke:#181818;stroke-width:0.5;" width="263" x="554.5" y="1163.2148"/><text fill="#000000" font-family="sans-serif" font-size="14" lengthAdjust="spacing" textLength="249" x="561.5" y="1185.3223">:ListVehiclesNeedingCheckupController</text><rect fill="#E3E3E3" height="32.6211" rx="2.5" ry="2.5" style="stroke:#181818;stroke-width:0.5;" width="97" x="827.5" y="89.6211"/><text fill="#000000" font-family="sans-serif" font-size="14" lengthAdjust="spacing" textLength="83" x="834.5" y="111.7285">:Repositories</text><rect fill="#E3E3E3" height="32.6211" rx="2.5" ry="2.5" style="stroke:#181818;stroke-width:0.5;" width="97" x="827.5" y="1163.2148"/><text fill="#000000" font-family="sans-serif" font-size="14" lengthAdjust="spacing" textLength="83" x="834.5" y="1185.3223">:Repositories</text><rect fill="#E3E3E3" height="51.2422" rx="2.5" ry="2.5" style="stroke:#181818;stroke-width:0.5;" width="97" x="934.5" y="71"/><text fill="#000000" font-family="sans-serif" font-size="14" lengthAdjust="spacing" textLength="74" x="946" y="93.1074">repositories</text><text fill="#000000" font-family="sans-serif" font-size="14" lengthAdjust="spacing" textLength="83" x="941.5" y="111.7285">:Repositories</text><rect fill="#E3E3E3" height="51.2422" rx="2.5" ry="2.5" style="stroke:#181818;stroke-width:0.5;" width="97" x="934.5" y="1163.2148"/><text fill="#000000" font-family="sans-serif" font-size="14" lengthAdjust="spacing" textLength="74" x="946" y="1185.3223">repositories</text><text fill="#000000" font-family="sans-serif" font-size="14" lengthAdjust="spacing" textLength="83" x="941.5" y="1203.9434">:Repositories</text><rect fill="#E3E3E3" height="51.2422" rx="2.5" ry="2.5" style="stroke:#181818;stroke-width:0.5;" width="142" x="1041.5" y="71"/><text fill="#000000" font-family="sans-serif" font-size="14" lengthAdjust="spacing" textLength="120" x="1052.5" y="93.1074">checkupRepositoty</text><text fill="#000000" font-family="sans-serif" font-size="14" lengthAdjust="spacing" textLength="128" x="1048.5" y="111.7285">:CheckupRepository</text><rect fill="#E3E3E3" height="51.2422" rx="2.5" ry="2.5" style="stroke:#181818;stroke-width:0.5;" width="142" x="1041.5" y="1163.2148"/><text fill="#000000" font-family="sans-serif" font-size="14" lengthAdjust="spacing" textLength="120" x="1052.5" y="1185.3223">checkupRepositoty</text><text fill="#000000" font-family="sans-serif" font-size="14" lengthAdjust="spacing" textLength="128" x="1048.5" y="1203.9434">:CheckupRepository</text><rect fill="#E3E3E3" height="51.2422" rx="2.5" ry="2.5" style="stroke:#181818;stroke-width:0.5;" width="132" x="1193.5" y="71"/><text fill="#000000" font-family="sans-serif" font-size="14" lengthAdjust="spacing" textLength="112" x="1203.5" y="93.1074">vehicleRepository</text><text fill="#000000" font-family="sans-serif" font-size="14" lengthAdjust="spacing" textLength="118" x="1200.5" y="111.7285">:VehicleRepository</text><rect fill="#E3E3E3" height="51.2422" rx="2.5" ry="2.5" style="stroke:#181818;stroke-width:0.5;" width="132" x="1193.5" y="1163.2148"/><text fill="#000000" font-family="sans-serif" font-size="14" lengthAdjust="spacing" textLength="112" x="1203.5" y="1185.3223">vehicleRepository</text><text fill="#000000" font-family="sans-serif" font-size="14" lengthAdjust="spacing" textLength="118" x="1200.5" y="1203.9434">:VehicleRepository</text><rect fill="#E3E3E3" height="32.6211" rx="2.5" ry="2.5" style="stroke:#181818;stroke-width:0.5;" width="172" x="1776.5" y="1163.2148"/><text fill="#000000" font-family="sans-serif" font-size="14" lengthAdjust="spacing" textLength="158" x="1783.5" y="1185.3223">:VehicleNeedingCheckup</text><rect fill="#FFFFFF" height="972.3906" style="stroke:#181818;stroke-width:1.0;" width="10" x="433" y="173.8242"/><rect fill="#FFFFFF" height="831.6055" style="stroke:#181818;stroke-width:1.0;" width="10" x="681" y="248.7363"/><rect fill="#FFFFFF" height="31.291" style="stroke:#181818;stroke-width:1.0;" width="10" x="871" y="280.0273"/><rect fill="#FFFFFF" height="31.291" style="stroke:#181818;stroke-width:1.0;" width="10" x="871" y="522.3555"/><rect fill="#FFFFFF" height="31.291" style="stroke:#181818;stroke-width:1.0;" width="10" x="978" y="342.6094"/><rect fill="#FFFFFF" height="31.291" style="stroke:#181818;stroke-width:1.0;" width="10" x="978" y="584.9375"/><rect fill="#FFFFFF" height="31.291" style="stroke:#181818;stroke-width:1.0;" width="10" x="1107.5" y="405.1914"/><rect fill="#FFFFFF" height="401.5313" style="stroke:#181818;stroke-width:1.0;" width="10" x="1254.5" y="647.5195"/><rect fill="#FFFFFF" height="158.4551" style="stroke:#181818;stroke-width:1.0;" width="10" x="1259.5" y="757.3926"/><polygon fill="#181818" points="421,169.8242,431,173.8242,421,177.8242,425,173.8242" style="stroke:#181818;stroke-width:1.0;"/><line style="stroke:#181818;stroke-width:1.0;" x1="54" x2="427" y1="173.8242" y2="173.8242"/><text fill="#000000" font-family="sans-serif" font-size="13" font-weight="bold" lengthAdjust="spacing" textLength="7" x="61" y="159.916">1</text><text fill="#000000" font-family="sans-serif" font-size="13" lengthAdjust="spacing" textLength="161" x="72" y="151.2705">Requests to show the list of</text><text fill="#000000" font-family="sans-serif" font-size="13" lengthAdjust="spacing" textLength="163" x="72" y="168.5615">vehicles needing a check-up</text><polygon fill="#181818" points="542.5,201.1152,552.5,205.1152,542.5,209.1152,546.5,205.1152" style="stroke:#181818;stroke-width:1.0;"/><line style="stroke:#181818;stroke-width:1.0;" x1="443" x2="548.5" y1="205.1152" y2="205.1152"/><text fill="#000000" font-family="sans-serif" font-size="13" font-weight="bold" lengthAdjust="spacing" textLength="7" x="450" y="199.8525">2</text><text fill="#000000" font-family="sans-serif" font-size="13" lengthAdjust="spacing" textLength="36" x="461" y="199.8525">create</text><rect fill="#E3E3E3" height="32.6211" rx="2.5" ry="2.5" style="stroke:#181818;stroke-width:0.5;" width="263" x="554.5" y="181.8242"/><text fill="#000000" font-family="sans-serif" font-size="14" lengthAdjust="spacing" textLength="249" x="561.5" y="203.9316">:ListVehiclesNeedingCheckupController</text><polygon fill="#181818" points="669,244.7363,679,248.7363,669,252.7363,673,248.7363" style="stroke:#181818;stroke-width:1.0;"/><line style="stroke:#181818;stroke-width:1.0;" x1="443" x2="675" y1="248.7363" y2="248.7363"/><text fill="#000000" font-family="sans-serif" font-size="13" font-weight="bold" lengthAdjust="spacing" textLength="7" x="450" y="243.4736">3</text><text fill="#000000" font-family="sans-serif" font-size="13" lengthAdjust="spacing" textLength="174" x="461" y="243.4736">getVehiclesNeedingCheckup()</text><polygon fill="#181818" points="859,276.0273,869,280.0273,859,284.0273,863,280.0273" style="stroke:#181818;stroke-width:1.0;"/><line style="stroke:#181818;stroke-width:1.0;" x1="691" x2="865" y1="280.0273" y2="280.0273"/><text fill="#000000" font-family="sans-serif" font-size="13" font-weight="bold" lengthAdjust="spacing" textLength="7" x="698" y="274.7646">4</text><text fill="#000000" font-family="sans-serif" font-size="13" lengthAdjust="spacing" textLength="75" x="709" y="274.7646">getInstance()</text><polygon fill="#181818" points="702,307.3184,692,311.3184,702,315.3184,698,311.3184" style="stroke:#181818;stroke-width:1.0;"/><line style="stroke:#181818;stroke-width:1.0;stroke-dasharray:2.0,2.0;" x1="696" x2="875" y1="311.3184" y2="311.3184"/><text fill="#000000" font-family="sans-serif" font-size="13" font-weight="bold" lengthAdjust="spacing" textLength="7" x="708" y="306.0557">5</text><text fill="#000000" font-family="sans-serif" font-size="13" lengthAdjust="spacing" textLength="67" x="719" y="306.0557">repositories</text><polygon fill="#181818" points="966,338.6094,976,342.6094,966,346.6094,970,342.6094" style="stroke:#181818;stroke-width:1.0;"/><line style="stroke:#181818;stroke-width:1.0;" x1="691" x2="972" y1="342.6094" y2="342.6094"/><text fill="#000000" font-family="sans-serif" font-size="13" font-weight="bold" lengthAdjust="spacing" textLength="7" x="698" y="337.3467">6</text><text fill="#000000" font-family="sans-serif" font-size="13" lengthAdjust="spacing" textLength="139" x="709" y="337.3467">getCheckupRepository()</text><polygon fill="#181818" points="702,369.9004,692,373.9004,702,377.9004,698,373.9004" style="stroke:#181818;stroke-width:1.0;"/><line style="stroke:#181818;stroke-width:1.0;stroke-dasharray:2.0,2.0;" x1="696" x2="982" y1="373.9004" y2="373.9004"/><text fill="#000000" font-family="sans-serif" font-size="13" font-weight="bold" lengthAdjust="spacing" textLength="7" x="708" y="368.6377">7</text><text fill="#000000" font-family="sans-serif" font-size="13" lengthAdjust="spacing" textLength="111" x="719" y="368.6377">checkupRepository</text><polygon fill="#181818" points="1095.5,401.1914,1105.5,405.1914,1095.5,409.1914,1099.5,405.1914" style="stroke:#181818;stroke-width:1.0;"/><line style="stroke:#181818;stroke-width:1.0;" x1="691" x2="1101.5" y1="405.1914" y2="405.1914"/><text fill="#000000" font-family="sans-serif" font-size="13" font-weight="bold" lengthAdjust="spacing" textLength="7" x="698" y="399.9287">8</text><text fill="#000000" font-family="sans-serif" font-size="13" lengthAdjust="spacing" textLength="141" x="709" y="399.9287">getVehicleCheckupList()</text><polygon fill="#181818" points="702,432.4824,692,436.4824,702,440.4824,698,436.4824" style="stroke:#181818;stroke-width:1.0;"/><line style="stroke:#181818;stroke-width:1.0;stroke-dasharray:2.0,2.0;" x1="696" x2="1111.5" y1="436.4824" y2="436.4824"/><text fill="#000000" font-family="sans-serif" font-size="13" font-weight="bold" lengthAdjust="spacing" textLength="7" x="708" y="431.2197">9</text><text fill="#000000" font-family="sans-serif" font-size="13" lengthAdjust="spacing" textLength="77" x="719" y="431.2197">checkupsList</text><path d="M696,449.4824 L696,493.4824 L971,493.4824 L971,459.4824 L961,449.4824 L696,449.4824 " fill="#FAFAFA" style="stroke:#181818;stroke-width:0.5;"/><path d="M961,449.4824 L961,459.4824 L971,459.4824 L961,449.4824 " fill="#FAFAFA" style="stroke:#181818;stroke-width:0.5;"/><text fill="#000000" font-family="sans-serif" font-size="13" lengthAdjust="spacing" textLength="254" x="702" y="468.5107">the controller saves the checkupsList in list:</text><text fill="#000000" font-family="sans-serif" font-size="13" lengthAdjust="spacing" textLength="169" x="702" y="485.8018">List&lt;Checkup&gt; checkupsList</text><polygon fill="#181818" points="859,518.3555,869,522.3555,859,526.3555,863,522.3555" style="stroke:#181818;stroke-width:1.0;"/><line style="stroke:#181818;stroke-width:1.0;" x1="691" x2="865" y1="522.3555" y2="522.3555"/><text fill="#000000" font-family="sans-serif" font-size="13" font-weight="bold" lengthAdjust="spacing" textLength="14" x="698" y="517.0928">10</text><text fill="#000000" font-family="sans-serif" font-size="13" lengthAdjust="spacing" textLength="75" x="716" y="517.0928">getInstance()</text><polygon fill="#181818" points="702,549.6465,692,553.6465,702,557.6465,698,553.6465" style="stroke:#181818;stroke-width:1.0;"/><line style="stroke:#181818;stroke-width:1.0;stroke-dasharray:2.0,2.0;" x1="696" x2="875" y1="553.6465" y2="553.6465"/><text fill="#000000" font-family="sans-serif" font-size="13" font-weight="bold" lengthAdjust="spacing" textLength="14" x="708" y="548.3838">11</text><text fill="#000000" font-family="sans-serif" font-size="13" lengthAdjust="spacing" textLength="67" x="726" y="548.3838">repositories</text><polygon fill="#181818" points="966,580.9375,976,584.9375,966,588.9375,970,584.9375" style="stroke:#181818;stroke-width:1.0;"/><line style="stroke:#181818;stroke-width:1.0;" x1="691" x2="972" y1="584.9375" y2="584.9375"/><text fill="#000000" font-family="sans-serif" font-size="13" font-weight="bold" lengthAdjust="spacing" textLength="14" x="698" y="579.6748">12</text><text fill="#000000" font-family="sans-serif" font-size="13" lengthAdjust="spacing" textLength="131" x="716" y="579.6748">getVehicleRepository()</text><polygon fill="#181818" points="702,612.2285,692,616.2285,702,620.2285,698,616.2285" style="stroke:#181818;stroke-width:1.0;"/><line style="stroke:#181818;stroke-width:1.0;stroke-dasharray:2.0,2.0;" x1="696" x2="982" y1="616.2285" y2="616.2285"/><text fill="#000000" font-family="sans-serif" font-size="13" font-weight="bold" lengthAdjust="spacing" textLength="14" x="708" y="610.9658">13</text><text fill="#000000" font-family="sans-serif" font-size="13" lengthAdjust="spacing" textLength="101" x="726" y="610.9658">vehicleRepository</text><polygon fill="#181818" points="1242.5,643.5195,1252.5,647.5195,1242.5,651.5195,1246.5,647.5195" style="stroke:#181818;stroke-width:1.0;"/><line style="stroke:#181818;stroke-width:1.0;" x1="691" x2="1248.5" y1="647.5195" y2="647.5195"/><text fill="#000000" font-family="sans-serif" font-size="13" font-weight="bold" lengthAdjust="spacing" textLength="14" x="698" y="642.2568">14</text><text fill="#000000" font-family="sans-serif" font-size="13" lengthAdjust="spacing" textLength="251" x="716" y="642.2568">getVehiclesNeedingCheckup(checkupsList)</text><line style="stroke:#181818;stroke-width:1.0;stroke-dasharray:2.0,2.0;" x1="1264.5" x2="1306.5" y1="678.8105" y2="678.8105"/><line style="stroke:#181818;stroke-width:1.0;stroke-dasharray:2.0,2.0;" x1="1306.5" x2="1306.5" y1="678.8105" y2="691.8105"/><line style="stroke:#181818;stroke-width:1.0;stroke-dasharray:2.0,2.0;" x1="1265.5" x2="1306.5" y1="691.8105" y2="691.8105"/><polygon fill="#181818" points="1275.5,687.8105,1265.5,691.8105,1275.5,695.8105,1271.5,691.8105" style="stroke:#181818;stroke-width:1.0;"/><text fill="#000000" font-family="sans-serif" font-size="13" font-weight="bold" lengthAdjust="spacing" textLength="14" x="1271.5" y="673.5479">15</text><text fill="#000000" font-family="sans-serif" font-size="13" lengthAdjust="spacing" textLength="90" x="1289.5" y="673.5479">getVehicleList()</text><path d="M1183.5,706.8105 L1256.5,706.8105 L1256.5,716.1016 L1246.5,726.1016 L1183.5,726.1016 L1183.5,706.8105 " fill="#EEEEEE" style="stroke:#000000;stroke-width:1.5;"/><rect fill="none" height="311.9492" style="stroke:#000000;stroke-width:1.5;" width="775" x="1183.5" y="706.8105"/><text fill="#000000" font-family="sans-serif" font-size="13" font-weight="bold" lengthAdjust="spacing" textLength="28" x="1198.5" y="721.8389">loop</text><text fill="#000000" font-family="sans-serif" font-size="11" font-weight="bold" lengthAdjust="spacing" textLength="192" x="1271.5" y="720.6807">[for each vehicle in the vehicleList]</text><line style="stroke:#181818;stroke-width:1.0;stroke-dasharray:2.0,2.0;" x1="1264.5" x2="1311.5" y1="744.3926" y2="744.3926"/><line style="stroke:#181818;stroke-width:1.0;stroke-dasharray:2.0,2.0;" x1="1311.5" x2="1311.5" y1="744.3926" y2="757.3926"/><line style="stroke:#181818;stroke-width:1.0;stroke-dasharray:2.0,2.0;" x1="1270.5" x2="1311.5" y1="757.3926" y2="757.3926"/><polygon fill="#181818" points="1280.5,753.3926,1270.5,757.3926,1280.5,761.3926,1276.5,757.3926" style="stroke:#181818;stroke-width:1.0;"/><text fill="#000000" font-family="sans-serif" font-size="13" font-weight="bold" lengthAdjust="spacing" textLength="14" x="1276.5" y="739.1299">16</text><text fill="#000000" font-family="sans-serif" font-size="13" lengthAdjust="spacing" textLength="218" x="1294.5" y="739.1299">needsCheckup(vehicle, checkupsList)</text><line style="stroke:#181818;stroke-width:1.0;stroke-dasharray:2.0,2.0;" x1="1269.5" x2="1311.5" y1="793.6836" y2="793.6836"/><line style="stroke:#181818;stroke-width:1.0;stroke-dasharray:2.0,2.0;" x1="1311.5" x2="1311.5" y1="793.6836" y2="806.6836"/><line style="stroke:#181818;stroke-width:1.0;stroke-dasharray:2.0,2.0;" x1="1270.5" x2="1311.5" y1="806.6836" y2="806.6836"/><polygon fill="#181818" points="1280.5,802.6836,1270.5,806.6836,1280.5,810.6836,1276.5,806.6836" style="stroke:#181818;stroke-width:1.0;"/><text fill="#000000" font-family="sans-serif" font-size="13" font-weight="bold" lengthAdjust="spacing" textLength="14" x="1276.5" y="788.4209">17</text><text fill="#000000" font-family="sans-serif" font-size="13" lengthAdjust="spacing" textLength="253" x="1294.5" y="788.4209">getLastCheckupKms(vehicle, checkupsList)</text><path d="M1274,819.6836 L1274,880.6836 L1602,880.6836 L1602,829.6836 L1592,819.6836 L1274,819.6836 " fill="#FAFAFA" style="stroke:#181818;stroke-width:0.5;"/><path d="M1592,819.6836 L1592,829.6836 L1602,829.6836 L1592,819.6836 " fill="#FAFAFA" style="stroke:#181818;stroke-width:0.5;"/><text fill="#000000" font-family="sans-serif" font-size="13" lengthAdjust="spacing" textLength="297" x="1280" y="838.7119">in this method we check if the difference of the kms</text><text fill="#000000" font-family="sans-serif" font-size="13" lengthAdjust="spacing" textLength="307" x="1280" y="856.0029">since the last checkup is close to 5% of the checkup</text><text fill="#000000" font-family="sans-serif" font-size="13" lengthAdjust="spacing" textLength="225" x="1280" y="873.2939">frequency; if it is, return true, else false</text><line style="stroke:#181818;stroke-width:1.0;stroke-dasharray:2.0,2.0;" x1="1269.5" x2="1311.5" y1="914.8477" y2="914.8477"/><line style="stroke:#181818;stroke-width:1.0;stroke-dasharray:2.0,2.0;" x1="1311.5" x2="1311.5" y1="914.8477" y2="927.8477"/><line style="stroke:#181818;stroke-width:1.0;stroke-dasharray:2.0,2.0;" x1="1264.5" x2="1311.5" y1="927.8477" y2="927.8477"/><polygon fill="#181818" points="1274.5,923.8477,1264.5,927.8477,1274.5,931.8477,1270.5,927.8477" style="stroke:#181818;stroke-width:1.0;"/><text fill="#000000" font-family="sans-serif" font-size="13" font-weight="bold" lengthAdjust="spacing" textLength="14" x="1276.5" y="909.585">18</text><text fill="#000000" font-family="sans-serif" font-size="13" lengthAdjust="spacing" textLength="22" x="1294.5" y="909.585">true</text><polygon fill="#181818" points="1764.5,950.1387,1774.5,954.1387,1764.5,958.1387,1768.5,954.1387" style="stroke:#181818;stroke-width:1.0;"/><line style="stroke:#181818;stroke-width:1.0;stroke-dasharray:2.0,2.0;" x1="1264.5" x2="1770.5" y1="954.1387" y2="954.1387"/><text fill="#000000" font-family="sans-serif" font-size="13" font-weight="bold" lengthAdjust="spacing" textLength="14" x="1271.5" y="948.876">19</text><text fill="#000000" font-family="sans-serif" font-size="13" lengthAdjust="spacing" textLength="470" x="1289.5" y="948.876">new VehicleNeedingCheckup(vehicle, lastCheckupKm, optimalNextCheckupKms)</text><rect fill="#E3E3E3" height="32.6211" rx="2.5" ry="2.5" style="stroke:#181818;stroke-width:0.5;" width="172" x="1776.5" y="930.8477"/><text fill="#000000" font-family="sans-serif" font-size="14" lengthAdjust="spacing" textLength="158" x="1783.5" y="952.9551">:VehicleNeedingCheckup</text><line style="stroke:#181818;stroke-width:1.0;stroke-dasharray:2.0,2.0;" x1="1264.5" x2="1306.5" y1="997.7598" y2="997.7598"/><line style="stroke:#181818;stroke-width:1.0;stroke-dasharray:2.0,2.0;" x1="1306.5" x2="1306.5" y1="997.7598" y2="1010.7598"/><line style="stroke:#181818;stroke-width:1.0;stroke-dasharray:2.0,2.0;" x1="1265.5" x2="1306.5" y1="1010.7598" y2="1010.7598"/><polygon fill="#181818" points="1275.5,1006.7598,1265.5,1010.7598,1275.5,1014.7598,1271.5,1010.7598" style="stroke:#181818;stroke-width:1.0;"/><text fill="#000000" font-family="sans-serif" font-size="13" font-weight="bold" lengthAdjust="spacing" textLength="14" x="1271.5" y="992.4971">20</text><text fill="#000000" font-family="sans-serif" font-size="13" lengthAdjust="spacing" textLength="166" x="1289.5" y="992.4971">add(vehicleNeedingCheckup)</text><polygon fill="#181818" points="702,1045.0508,692,1049.0508,702,1053.0508,698,1049.0508" style="stroke:#181818;stroke-width:1.0;"/><line style="stroke:#181818;stroke-width:1.0;stroke-dasharray:2.0,2.0;" x1="696" x2="1258.5" y1="1049.0508" y2="1049.0508"/><text fill="#000000" font-family="sans-serif" font-size="13" font-weight="bold" lengthAdjust="spacing" textLength="14" x="708" y="1043.7881">21</text><text fill="#000000" font-family="sans-serif" font-size="13" lengthAdjust="spacing" textLength="144" x="726" y="1043.7881">vehiclesNeedingCheckup</text><polygon fill="#181818" points="454,1076.3418,444,1080.3418,454,1084.3418,450,1080.3418" style="stroke:#181818;stroke-width:1.0;"/><line style="stroke:#181818;stroke-width:1.0;stroke-dasharray:2.0,2.0;" x1="448" x2="685" y1="1080.3418" y2="1080.3418"/><text fill="#000000" font-family="sans-serif" font-size="13" font-weight="bold" lengthAdjust="spacing" textLength="14" x="460" y="1075.0791">22</text><text fill="#000000" font-family="sans-serif" font-size="13" lengthAdjust="spacing" textLength="144" x="478" y="1075.0791">vehiclesNeedingCheckup</text><polygon fill="#181818" points="65,1142.2148,55,1146.2148,65,1150.2148,61,1146.2148" style="stroke:#181818;stroke-width:1.0;"/><line style="stroke:#181818;stroke-width:1.0;" x1="59" x2="437" y1="1146.2148" y2="1146.2148"/><text fill="#000000" font-family="sans-serif" font-size="13" font-weight="bold" lengthAdjust="spacing" textLength="14" x="71" y="1123.6611">23</text><text fill="#000000" font-family="sans-serif" font-size="13" lengthAdjust="spacing" textLength="299" x="89" y="1106.3701">Shows the list of vehicles needing check-up by their</text><text fill="#000000" font-family="sans-serif" font-size="13" lengthAdjust="spacing" textLength="337" x="89" y="1123.6611">PlateID, Brand, Model, currentKm, checkupFrequencyKm,</text><text fill="#000000" font-family="sans-serif" font-size="13" lengthAdjust="spacing" textLength="261" x="89" y="1140.9521">lastCheckupKm and optimalNextCheckupKm</text><!--SRC=[rLPDQnin4BtlhnW2XQJOa4kXk2NGEWsOEY74YK- -ABjZhx1MsagoK__xZhGVrbfUrw6dxcaPpRnvqhoHngovB9bc1HHAgZJNga2mUeE9QLTAbgxP2cTs9n0qffR9bGWTJCuozSRb2fPC64mIoosvliokhp_346OxOx606VxQe4mHRZbRkR3BsUpsAadOnYgvALvHqtzgbOQBEu5euPv9IgilW1duKPH2xH0JocXvoaicBLoCfjpOEUOy5MWU43FYCCunNM_AbucFUvcS7J5MqcebH9rn_FmqFOXzmb8PJWmv6k_Z3Lqd7VWiP1poEFtst8r8g_IDfzrHsBXhqxkAqjxQXTXM6zgx4yJyqEOXvd5muzazZSfxlrARamJeQwe1mniwOHZHGL1jZJLW5Qb1lO7D4GGTDQWbB6JDpu2iSW03l-iX0JeyAZlVCekkNDxWFW8cU5U6ZnyfHQgHF8wiqjeAUsfwUTK6j3byOLkp-pmAeVcpgk0cqf3CKmm0EY1LvJjhxgiGXdjceHmwtXcUmceOERLKX295z37p0ek8UQ20Lte8rqSkXcku1Omw9QZjhj7wE8P2ZgY6k35Zut3xoFRYIaMhcgzoBqYlWCEqJh5fUmM0OLlIgpS6YO5BB-jH5EvMlzRvR_h9eimycVzFWD5zycy2ZAwizmcGWEQHyWwRFwn23zdvSGtEM_N5MMfXHp52gHAMz7mHzxpPdnEC4z5s7ni57a_ehahJxAGE7q3_bixTsiajJfbfRfgVXNbFshZBglnmulDdmmqKQ7ELmLlTQy2N_imolboYzYE3gYphmfm4DDmv-xU7DjAm1agH2cNGlKwVFZHWzUf9mAMkXfRT5qUAK_-R0RMKtMZffwG180qyzTZJ1zBs_Fcby1FOCTUWCSwlR_IA-mTLuXiSVVhtPHUX70QWIiiB9XxmTo2IgpFrpBAi0UwcYm7SWRbkEj6MtLlaeF6JaoSMNtFD5FCNjF2XwSmGrIpI3aKZcD48P3epK3G1DVCFlEwS8zSB-IW8Ud8xWE-QoMm0zof3GRstqTG4rXMWbknTeqgoBMIdI42HH-jKiGssGAFM7m00]--></g></svg>