<?xml version="1.0" encoding="us-ascii" standalone="no"?><svg xmlns="http://www.w3.org/2000/svg" xmlns:xlink="http://www.w3.org/1999/xlink" contentStyleType="text/css" height="1015px" preserveAspectRatio="none" style="width:1471px;height:1015px;background:#FFFFFF;" version="1.1" viewBox="0 0 1471 1015" width="1471px" zoomAndPan="magnify"><defs/><g><text fill="#000000" font-family="sans-serif" font-size="14" font-weight="bold" lengthAdjust="spacing" textLength="284" x="595" y="30.1074">US008 - System Sequence Diagram (SSD)</text><rect fill="#FFFFFF" height="740.7324" style="stroke:#181818;stroke-width:1.0;" width="10" x="379" y="173.8242"/><rect fill="#FFFFFF" height="617.2383" style="stroke:#181818;stroke-width:1.0;" width="10" x="627" y="248.7363"/><rect fill="#FFFFFF" height="31.291" style="stroke:#181818;stroke-width:1.0;" width="10" x="817" y="280.0273"/><rect fill="#FFFFFF" height="31.291" style="stroke:#181818;stroke-width:1.0;" width="10" x="817" y="480.7734"/><rect fill="#FFFFFF" height="31.291" style="stroke:#181818;stroke-width:1.0;" width="10" x="924" y="342.6094"/><rect fill="#FFFFFF" height="31.291" style="stroke:#181818;stroke-width:1.0;" width="10" x="924" y="543.3555"/><rect fill="#FFFFFF" height="429.4922" style="stroke:#181818;stroke-width:1.0;" width="10" x="1110" y="405.1914"/><rect fill="#FFFFFF" height="104.873" style="stroke:#181818;stroke-width:1.0;" width="10" x="1115" y="640.2285"/><rect fill="#FFFFFF" height="31.291" style="stroke:#181818;stroke-width:1.0;" width="10" x="1379" y="676.5195"/><rect fill="none" height="214.7461" style="stroke:#000000;stroke-width:1.5;" width="423" x="1042" y="589.6465"/><line style="stroke:#181818;stroke-width:0.5;stroke-dasharray:5.0,5.0;" x1="54" x2="54" y1="123.2422" y2="932.5566"/><line style="stroke:#181818;stroke-width:0.5;stroke-dasharray:5.0,5.0;" x1="383.5" x2="383.5" y1="123.2422" y2="932.5566"/><line style="stroke:#181818;stroke-width:0.5;stroke-dasharray:5.0,5.0;" x1="631.5" x2="631.5" y1="213.6348" y2="932.5566"/><line style="stroke:#181818;stroke-width:0.5;stroke-dasharray:5.0,5.0;" x1="821.5" x2="821.5" y1="123.2422" y2="932.5566"/><line style="stroke:#181818;stroke-width:0.5;stroke-dasharray:5.0,5.0;" x1="928.5" x2="928.5" y1="123.2422" y2="932.5566"/><line style="stroke:#181818;stroke-width:0.5;stroke-dasharray:5.0,5.0;" x1="1115" x2="1115" y1="123.2422" y2="932.5566"/><line style="stroke:#181818;stroke-width:0.5;stroke-dasharray:5.0,5.0;" x1="1384" x2="1384" y1="123.2422" y2="932.5566"/><text fill="#000000" font-family="sans-serif" font-size="14" lengthAdjust="spacing" textLength="92" x="5" y="119.7285">Fleet Manager</text><ellipse cx="54" cy="53.1211" fill="#E3E3E3" rx="8" ry="8" style="stroke:#181818;stroke-width:0.5;"/><path d="M54,61.1211 L54,88.1211 M41,69.1211 L67,69.1211 M54,88.1211 L41,103.1211 M54,88.1211 L67,103.1211 " fill="none" style="stroke:#181818;stroke-width:0.5;"/><text fill="#000000" font-family="sans-serif" font-size="14" lengthAdjust="spacing" textLength="92" x="5" y="946.6641">Fleet Manager</text><ellipse cx="54" cy="958.6777" fill="#E3E3E3" rx="8" ry="8" style="stroke:#181818;stroke-width:0.5;"/><path d="M54,966.6777 L54,993.6777 M41,974.6777 L67,974.6777 M54,993.6777 L41,1008.6777 M54,993.6777 L67,1008.6777 " fill="none" style="stroke:#181818;stroke-width:0.5;"/><rect fill="#E3E3E3" height="32.6211" rx="2.5" ry="2.5" style="stroke:#181818;stroke-width:0.5;" width="213" x="277.5" y="89.6211"/><text fill="#000000" font-family="sans-serif" font-size="14" lengthAdjust="spacing" textLength="199" x="284.5" y="111.7285">:ListVehiclesNeedingCheckupUI</text><rect fill="#E3E3E3" height="32.6211" rx="2.5" ry="2.5" style="stroke:#181818;stroke-width:0.5;" width="213" x="277.5" y="931.5566"/><text fill="#000000" font-family="sans-serif" font-size="14" lengthAdjust="spacing" textLength="199" x="284.5" y="953.6641">:ListVehiclesNeedingCheckupUI</text><rect fill="#E3E3E3" height="32.6211" rx="2.5" ry="2.5" style="stroke:#181818;stroke-width:0.5;" width="263" x="500.5" y="931.5566"/><text fill="#000000" font-family="sans-serif" font-size="14" lengthAdjust="spacing" textLength="249" x="507.5" y="953.6641">:ListVehiclesNeedingCheckupController</text><rect fill="#E3E3E3" height="32.6211" rx="2.5" ry="2.5" style="stroke:#181818;stroke-width:0.5;" width="97" x="773.5" y="89.6211"/><text fill="#000000" font-family="sans-serif" font-size="14" lengthAdjust="spacing" textLength="83" x="780.5" y="111.7285">:Repositories</text><rect fill="#E3E3E3" height="32.6211" rx="2.5" ry="2.5" style="stroke:#181818;stroke-width:0.5;" width="97" x="773.5" y="931.5566"/><text fill="#000000" font-family="sans-serif" font-size="14" lengthAdjust="spacing" textLength="83" x="780.5" y="953.6641">:Repositories</text><rect fill="#E3E3E3" height="51.2422" rx="2.5" ry="2.5" style="stroke:#181818;stroke-width:0.5;" width="97" x="880.5" y="71"/><text fill="#000000" font-family="sans-serif" font-size="14" lengthAdjust="spacing" textLength="74" x="892" y="93.1074">repositories</text><text fill="#000000" font-family="sans-serif" font-size="14" lengthAdjust="spacing" textLength="83" x="887.5" y="111.7285">:Repositories</text><rect fill="#E3E3E3" height="51.2422" rx="2.5" ry="2.5" style="stroke:#181818;stroke-width:0.5;" width="97" x="880.5" y="931.5566"/><text fill="#000000" font-family="sans-serif" font-size="14" lengthAdjust="spacing" textLength="74" x="892" y="953.6641">repositories</text><text fill="#000000" font-family="sans-serif" font-size="14" lengthAdjust="spacing" textLength="83" x="887.5" y="972.2852">:Repositories</text><rect fill="#E3E3E3" height="32.6211" rx="2.5" ry="2.5" style="stroke:#181818;stroke-width:0.5;" width="126" x="1052" y="89.6211"/><text fill="#000000" font-family="sans-serif" font-size="14" lengthAdjust="spacing" textLength="112" x="1059" y="111.7285">vehicleRepository</text><rect fill="#E3E3E3" height="32.6211" rx="2.5" ry="2.5" style="stroke:#181818;stroke-width:0.5;" width="126" x="1052" y="931.5566"/><text fill="#000000" font-family="sans-serif" font-size="14" lengthAdjust="spacing" textLength="112" x="1059" y="953.6641">vehicleRepository</text><rect fill="#E3E3E3" height="51.2422" rx="2.5" ry="2.5" style="stroke:#181818;stroke-width:0.5;" width="142" x="1313" y="71"/><text fill="#000000" font-family="sans-serif" font-size="14" lengthAdjust="spacing" textLength="120" x="1324" y="93.1074">checkupRepositoty</text><text fill="#000000" font-family="sans-serif" font-size="14" lengthAdjust="spacing" textLength="128" x="1320" y="111.7285">:CheckupRepository</text><rect fill="#E3E3E3" height="51.2422" rx="2.5" ry="2.5" style="stroke:#181818;stroke-width:0.5;" width="142" x="1313" y="931.5566"/><text fill="#000000" font-family="sans-serif" font-size="14" lengthAdjust="spacing" textLength="120" x="1324" y="953.6641">checkupRepositoty</text><text fill="#000000" font-family="sans-serif" font-size="14" lengthAdjust="spacing" textLength="128" x="1320" y="972.2852">:CheckupRepository</text><rect fill="#FFFFFF" height="740.7324" style="stroke:#181818;stroke-width:1.0;" width="10" x="379" y="173.8242"/><rect fill="#FFFFFF" height="617.2383" style="stroke:#181818;stroke-width:1.0;" width="10" x="627" y="248.7363"/><rect fill="#FFFFFF" height="31.291" style="stroke:#181818;stroke-width:1.0;" width="10" x="817" y="280.0273"/><rect fill="#FFFFFF" height="31.291" style="stroke:#181818;stroke-width:1.0;" width="10" x="817" y="480.7734"/><rect fill="#FFFFFF" height="31.291" style="stroke:#181818;stroke-width:1.0;" width="10" x="924" y="342.6094"/><rect fill="#FFFFFF" height="31.291" style="stroke:#181818;stroke-width:1.0;" width="10" x="924" y="543.3555"/><rect fill="#FFFFFF" height="429.4922" style="stroke:#181818;stroke-width:1.0;" width="10" x="1110" y="405.1914"/><rect fill="#FFFFFF" height="104.873" style="stroke:#181818;stroke-width:1.0;" width="10" x="1115" y="640.2285"/><rect fill="#FFFFFF" height="31.291" style="stroke:#181818;stroke-width:1.0;" width="10" x="1379" y="676.5195"/><polygon fill="#181818" points="367,169.8242,377,173.8242,367,177.8242,371,173.8242" style="stroke:#181818;stroke-width:1.0;"/><line style="stroke:#181818;stroke-width:1.0;" x1="54" x2="373" y1="173.8242" y2="173.8242"/><text fill="#000000" font-family="sans-serif" font-size="13" font-weight="bold" lengthAdjust="spacing" textLength="7" x="61" y="159.916">1</text><text fill="#000000" font-family="sans-serif" font-size="13" lengthAdjust="spacing" textLength="161" x="72" y="151.2705">Requests to show the list of</text><text fill="#000000" font-family="sans-serif" font-size="13" lengthAdjust="spacing" textLength="163" x="72" y="168.5615">vehicles needing a check-up</text><polygon fill="#181818" points="488.5,201.1152,498.5,205.1152,488.5,209.1152,492.5,205.1152" style="stroke:#181818;stroke-width:1.0;"/><line style="stroke:#181818;stroke-width:1.0;" x1="389" x2="494.5" y1="205.1152" y2="205.1152"/><text fill="#000000" font-family="sans-serif" font-size="13" font-weight="bold" lengthAdjust="spacing" textLength="7" x="396" y="199.8525">2</text><text fill="#000000" font-family="sans-serif" font-size="13" lengthAdjust="spacing" textLength="36" x="407" y="199.8525">create</text><rect fill="#E3E3E3" height="32.6211" rx="2.5" ry="2.5" style="stroke:#181818;stroke-width:0.5;" width="263" x="500.5" y="181.8242"/><text fill="#000000" font-family="sans-serif" font-size="14" lengthAdjust="spacing" textLength="249" x="507.5" y="203.9316">:ListVehiclesNeedingCheckupController</text><polygon fill="#181818" points="615,244.7363,625,248.7363,615,252.7363,619,248.7363" style="stroke:#181818;stroke-width:1.0;"/><line style="stroke:#181818;stroke-width:1.0;" x1="389" x2="621" y1="248.7363" y2="248.7363"/><text fill="#000000" font-family="sans-serif" font-size="13" font-weight="bold" lengthAdjust="spacing" textLength="7" x="396" y="243.4736">3</text><text fill="#000000" font-family="sans-serif" font-size="13" lengthAdjust="spacing" textLength="174" x="407" y="243.4736">getVehiclesNeedingCheckup()</text><polygon fill="#181818" points="805,276.0273,815,280.0273,805,284.0273,809,280.0273" style="stroke:#181818;stroke-width:1.0;"/><line style="stroke:#181818;stroke-width:1.0;" x1="637" x2="811" y1="280.0273" y2="280.0273"/><text fill="#000000" font-family="sans-serif" font-size="13" font-weight="bold" lengthAdjust="spacing" textLength="7" x="644" y="274.7646">4</text><text fill="#000000" font-family="sans-serif" font-size="13" lengthAdjust="spacing" textLength="75" x="655" y="274.7646">getInstance()</text><polygon fill="#181818" points="648,307.3184,638,311.3184,648,315.3184,644,311.3184" style="stroke:#181818;stroke-width:1.0;"/><line style="stroke:#181818;stroke-width:1.0;stroke-dasharray:2.0,2.0;" x1="642" x2="821" y1="311.3184" y2="311.3184"/><text fill="#000000" font-family="sans-serif" font-size="13" font-weight="bold" lengthAdjust="spacing" textLength="7" x="654" y="306.0557">5</text><text fill="#000000" font-family="sans-serif" font-size="13" lengthAdjust="spacing" textLength="67" x="665" y="306.0557">repositories</text><polygon fill="#181818" points="912,338.6094,922,342.6094,912,346.6094,916,342.6094" style="stroke:#181818;stroke-width:1.0;"/><line style="stroke:#181818;stroke-width:1.0;" x1="637" x2="918" y1="342.6094" y2="342.6094"/><text fill="#000000" font-family="sans-serif" font-size="13" font-weight="bold" lengthAdjust="spacing" textLength="7" x="644" y="337.3467">6</text><text fill="#000000" font-family="sans-serif" font-size="13" lengthAdjust="spacing" textLength="131" x="655" y="337.3467">getVehicleRepository()</text><polygon fill="#181818" points="648,369.9004,638,373.9004,648,377.9004,644,373.9004" style="stroke:#181818;stroke-width:1.0;"/><line style="stroke:#181818;stroke-width:1.0;stroke-dasharray:2.0,2.0;" x1="642" x2="928" y1="373.9004" y2="373.9004"/><text fill="#000000" font-family="sans-serif" font-size="13" font-weight="bold" lengthAdjust="spacing" textLength="7" x="654" y="368.6377">7</text><text fill="#000000" font-family="sans-serif" font-size="13" lengthAdjust="spacing" textLength="101" x="665" y="368.6377">vehicleRepository</text><polygon fill="#181818" points="1098,401.1914,1108,405.1914,1098,409.1914,1102,405.1914" style="stroke:#181818;stroke-width:1.0;"/><line style="stroke:#181818;stroke-width:1.0;" x1="637" x2="1104" y1="405.1914" y2="405.1914"/><text fill="#000000" font-family="sans-serif" font-size="13" font-weight="bold" lengthAdjust="spacing" textLength="7" x="644" y="399.9287">8</text><text fill="#000000" font-family="sans-serif" font-size="13" lengthAdjust="spacing" textLength="174" x="655" y="399.9287">getVehiclesNeedingCheckup()</text><line style="stroke:#181818;stroke-width:1.0;stroke-dasharray:2.0,2.0;" x1="1120" x2="1162" y1="436.4824" y2="436.4824"/><line style="stroke:#181818;stroke-width:1.0;stroke-dasharray:2.0,2.0;" x1="1162" x2="1162" y1="436.4824" y2="449.4824"/><line style="stroke:#181818;stroke-width:1.0;stroke-dasharray:2.0,2.0;" x1="1121" x2="1162" y1="449.4824" y2="449.4824"/><polygon fill="#181818" points="1131,445.4824,1121,449.4824,1131,453.4824,1127,449.4824" style="stroke:#181818;stroke-width:1.0;"/><text fill="#000000" font-family="sans-serif" font-size="13" font-weight="bold" lengthAdjust="spacing" textLength="7" x="1127" y="431.2197">9</text><text fill="#000000" font-family="sans-serif" font-size="13" lengthAdjust="spacing" textLength="76" x="1138" y="431.2197">getVehicles()</text><polygon fill="#181818" points="838,476.7734,828,480.7734,838,484.7734,834,480.7734" style="stroke:#181818;stroke-width:1.0;"/><line style="stroke:#181818;stroke-width:1.0;stroke-dasharray:2.0,2.0;" x1="832" x2="1109" y1="480.7734" y2="480.7734"/><text fill="#000000" font-family="sans-serif" font-size="13" font-weight="bold" lengthAdjust="spacing" textLength="14" x="844" y="475.5107">10</text><text fill="#000000" font-family="sans-serif" font-size="13" lengthAdjust="spacing" textLength="75" x="862" y="475.5107">getInstance()</text><polygon fill="#181818" points="1098,508.0645,1108,512.0645,1098,516.0645,1102,512.0645" style="stroke:#181818;stroke-width:1.0;"/><line style="stroke:#181818;stroke-width:1.0;stroke-dasharray:2.0,2.0;" x1="822" x2="1104" y1="512.0645" y2="512.0645"/><text fill="#000000" font-family="sans-serif" font-size="13" font-weight="bold" lengthAdjust="spacing" textLength="14" x="829" y="506.8018">11</text><text fill="#000000" font-family="sans-serif" font-size="13" lengthAdjust="spacing" textLength="67" x="847" y="506.8018">repositories</text><polygon fill="#181818" points="945,539.3555,935,543.3555,945,547.3555,941,543.3555" style="stroke:#181818;stroke-width:1.0;"/><line style="stroke:#181818;stroke-width:1.0;" x1="939" x2="1109" y1="543.3555" y2="543.3555"/><text fill="#000000" font-family="sans-serif" font-size="13" font-weight="bold" lengthAdjust="spacing" textLength="14" x="951" y="538.0928">12</text><text fill="#000000" font-family="sans-serif" font-size="13" lengthAdjust="spacing" textLength="139" x="969" y="538.0928">getCheckupRepository()</text><polygon fill="#181818" points="1098,570.6465,1108,574.6465,1098,578.6465,1102,574.6465" style="stroke:#181818;stroke-width:1.0;"/><line style="stroke:#181818;stroke-width:1.0;stroke-dasharray:2.0,2.0;" x1="929" x2="1104" y1="574.6465" y2="574.6465"/><text fill="#000000" font-family="sans-serif" font-size="13" font-weight="bold" lengthAdjust="spacing" textLength="14" x="936" y="569.3838">13</text><text fill="#000000" font-family="sans-serif" font-size="13" lengthAdjust="spacing" textLength="111" x="954" y="569.3838">checkupRepository</text><path d="M1042,589.6465 L1115,589.6465 L1115,598.9375 L1105,608.9375 L1042,608.9375 L1042,589.6465 " fill="#EEEEEE" style="stroke:#000000;stroke-width:1.5;"/><rect fill="none" height="214.7461" style="stroke:#000000;stroke-width:1.5;" width="423" x="1042" y="589.6465"/><text fill="#000000" font-family="sans-serif" font-size="13" font-weight="bold" lengthAdjust="spacing" textLength="28" x="1057" y="604.6748">loop</text><text fill="#000000" font-family="sans-serif" font-size="11" font-weight="bold" lengthAdjust="spacing" textLength="178" x="1130" y="603.5166">[for each vehicle in vehiclesList]</text><line style="stroke:#181818;stroke-width:1.0;stroke-dasharray:2.0,2.0;" x1="1120" x2="1167" y1="627.2285" y2="627.2285"/><line style="stroke:#181818;stroke-width:1.0;stroke-dasharray:2.0,2.0;" x1="1167" x2="1167" y1="627.2285" y2="640.2285"/><line style="stroke:#181818;stroke-width:1.0;stroke-dasharray:2.0,2.0;" x1="1126" x2="1167" y1="640.2285" y2="640.2285"/><polygon fill="#181818" points="1136,636.2285,1126,640.2285,1136,644.2285,1132,640.2285" style="stroke:#181818;stroke-width:1.0;"/><text fill="#000000" font-family="sans-serif" font-size="13" font-weight="bold" lengthAdjust="spacing" textLength="14" x="1132" y="621.9658">14</text><text fill="#000000" font-family="sans-serif" font-size="13" lengthAdjust="spacing" textLength="180" x="1150" y="621.9658">needsCheckup(Vehicle vehicle)</text><polygon fill="#181818" points="1367,672.5195,1377,676.5195,1367,680.5195,1371,676.5195" style="stroke:#181818;stroke-width:1.0;"/><line style="stroke:#181818;stroke-width:1.0;" x1="1125" x2="1373" y1="676.5195" y2="676.5195"/><text fill="#000000" font-family="sans-serif" font-size="13" font-weight="bold" lengthAdjust="spacing" textLength="14" x="1132" y="671.2568">15</text><text fill="#000000" font-family="sans-serif" font-size="13" lengthAdjust="spacing" textLength="116" x="1150" y="671.2568">getCheckup(vehicle)</text><polygon fill="#181818" points="1136,703.8105,1126,707.8105,1136,711.8105,1132,707.8105" style="stroke:#181818;stroke-width:1.0;"/><line style="stroke:#181818;stroke-width:1.0;stroke-dasharray:2.0,2.0;" x1="1130" x2="1383" y1="707.8105" y2="707.8105"/><text fill="#000000" font-family="sans-serif" font-size="13" font-weight="bold" lengthAdjust="spacing" textLength="14" x="1142" y="702.5479">16</text><text fill="#000000" font-family="sans-serif" font-size="13" lengthAdjust="spacing" textLength="76" x="1160" y="702.5479">checkupKms</text><line style="stroke:#181818;stroke-width:1.0;stroke-dasharray:2.0,2.0;" x1="1125" x2="1167" y1="744.1016" y2="744.1016"/><line style="stroke:#181818;stroke-width:1.0;stroke-dasharray:2.0,2.0;" x1="1167" x2="1167" y1="744.1016" y2="757.1016"/><line style="stroke:#181818;stroke-width:1.0;stroke-dasharray:2.0,2.0;" x1="1120" x2="1167" y1="757.1016" y2="757.1016"/><polygon fill="#181818" points="1130,753.1016,1120,757.1016,1130,761.1016,1126,757.1016" style="stroke:#181818;stroke-width:1.0;"/><text fill="#000000" font-family="sans-serif" font-size="13" font-weight="bold" lengthAdjust="spacing" textLength="14" x="1132" y="738.8389">17</text><text fill="#000000" font-family="sans-serif" font-size="13" lengthAdjust="spacing" textLength="53" x="1150" y="738.8389">true/false</text><line style="stroke:#181818;stroke-width:1.0;stroke-dasharray:2.0,2.0;" x1="1120" x2="1162" y1="783.3926" y2="783.3926"/><line style="stroke:#181818;stroke-width:1.0;stroke-dasharray:2.0,2.0;" x1="1162" x2="1162" y1="783.3926" y2="796.3926"/><line style="stroke:#181818;stroke-width:1.0;stroke-dasharray:2.0,2.0;" x1="1121" x2="1162" y1="796.3926" y2="796.3926"/><polygon fill="#181818" points="1131,792.3926,1121,796.3926,1131,800.3926,1127,796.3926" style="stroke:#181818;stroke-width:1.0;"/><text fill="#000000" font-family="sans-serif" font-size="13" font-weight="bold" lengthAdjust="spacing" textLength="14" x="1127" y="778.1299">18</text><text fill="#000000" font-family="sans-serif" font-size="13" lengthAdjust="spacing" textLength="227" x="1145" y="778.1299">addVehicleToNeedCheckupList(vehicle)</text><polygon fill="#181818" points="648,830.6836,638,834.6836,648,838.6836,644,834.6836" style="stroke:#181818;stroke-width:1.0;"/><line style="stroke:#181818;stroke-width:1.0;" x1="642" x2="1114" y1="834.6836" y2="834.6836"/><text fill="#000000" font-family="sans-serif" font-size="13" font-weight="bold" lengthAdjust="spacing" textLength="14" x="654" y="829.4209">19</text><text fill="#000000" font-family="sans-serif" font-size="13" lengthAdjust="spacing" textLength="165" x="672" y="829.4209">vehiclesNeedingCheckupList</text><polygon fill="#181818" points="400,861.9746,390,865.9746,400,869.9746,396,865.9746" style="stroke:#181818;stroke-width:1.0;"/><line style="stroke:#181818;stroke-width:1.0;" x1="394" x2="631" y1="865.9746" y2="865.9746"/><text fill="#000000" font-family="sans-serif" font-size="13" font-weight="bold" lengthAdjust="spacing" textLength="14" x="406" y="860.7119">20</text><text fill="#000000" font-family="sans-serif" font-size="13" lengthAdjust="spacing" textLength="165" x="424" y="860.7119">vehiclesNeedingCheckupList</text><polygon fill="#181818" points="65,910.5566,55,914.5566,65,918.5566,61,914.5566" style="stroke:#181818;stroke-width:1.0;"/><line style="stroke:#181818;stroke-width:1.0;" x1="59" x2="383" y1="914.5566" y2="914.5566"/><text fill="#000000" font-family="sans-serif" font-size="13" font-weight="bold" lengthAdjust="spacing" textLength="14" x="71" y="900.6484">21</text><text fill="#000000" font-family="sans-serif" font-size="13" lengthAdjust="spacing" textLength="279" x="89" y="892.0029">Shows the list of vehicles needing check-up with</text><text fill="#000000" font-family="sans-serif" font-size="13" lengthAdjust="spacing" textLength="193" x="89" y="909.2939">vehicle details and the data used.</text><!--SRC=[bLLDZzem4BtdLumumKgqUwmuLAhOLaAbLRK1JdlnEWEnIEmqTXRnxpjsIB3p0TIdn9vvy_BUnAEFGXQiP3daIYgUbYf7C6M5aMvF2iQFx82nEMS89NB3v27p0tJA4dKIyW1xbccC8YCCXMxZv-SlC8Vuh0tc4EFV2YL7U17iODEcSVmoYo9M6IMh_1rBUkP6bJ3vaI4Q-CKabIqdm3HypujCdH4ZgcW45mMJ1YQBjT1cXwdW6UhVY0bnMAR8ZrMnNRcyxUhXZAMIfbHPTgcutBokExclM2WjYA50xMBSHXXKUZ5lif_oP_rj4sPyr6pQoBEBszdtC93NF9j0SoRyPRXtIVPsemXeDVB1_2j90WjYJcPeey4eia-TmAG86Ma3QWzlyi99Wwmb0WQk-hmg71xv93wOGQklsx2BW0dUwlRqH2LuYHGnS4fd1nmnOJfh4zeQpebssow7GcZkiskubTJKbnmzW02ajYeuiwj6c5-P-Vu5qGbsi8O8MNU3pxiQCqRCDKIFbmFoQFMQP8nR7yuY491hg0Ub3mZkhctahnflFepSmGhZxxlsY7EXUms7KVlkMkXnz7ti_M2tg0vx6VZP4ELTt5ji7MxtF5EgW3rTbnINDWq2GZQFsbvrWsJwrjdVN3TzS36nmPaDOjnhZvwadf21ijERPSABe7kjZIs_re3eFtCzckwfxfTxJ4OxE3_NC_0Ezku_K5cIN2pPAFlBNdXPUyV5Gvcu3XdlyV1cwLm6lTwvoRsv_jneUG3G5pcutEiXqKwh1SGqctGmd7gZgHbCS18clSukAcAOo3GmKi829Cmmg3Gcd-fw7WcQOly0]--></g></svg>