<?xml version="1.0" encoding="UTF-8" standalone="no"?>
<!DOCTYPE svg PUBLIC "-//W3C//DTD SVG 1.1//EN"
 "http://www.w3.org/Graphics/SVG/1.1/DTD/svg11.dtd">
<!-- Generated by graphviz version 10.0.1 (20240210.2158)
 -->
<!-- Pages: 1 -->
<svg width="440pt" height="315pt"
 viewBox="0.00 0.00 439.59 315.36" xmlns="http://www.w3.org/2000/svg" xmlns:xlink="http://www.w3.org/1999/xlink">
<g id="graph0" class="graph" transform="scale(1 1) rotate(0) translate(4 311.36)">
<polygon fill="white" stroke="none" points="-4,4 -4,-311.36 435.59,-311.36 435.59,4 -4,4"/>
<text text-anchor="middle" x="215.8" y="-279.61" font-family="Times New Roman,serif" font-size="25.00">Escadas3</text>
<!-- Escadas3 -->
<g id="node1" class="node">
<title>Escadas3</title>
<ellipse fill="none" stroke="black" cx="46.07" cy="-18" rx="46.07" ry="18"/>
<text text-anchor="middle" x="46.07" y="-12.57" font-family="Times New Roman,serif" font-size="14.00">Escadas3</text>
</g>
<!-- Escadas2 -->
<g id="node2" class="node">
<title>Escadas2</title>
<ellipse fill="none" stroke="black" cx="167.11" cy="-96.49" rx="46.07" ry="18"/>
<text text-anchor="middle" x="167.11" y="-91.06" font-family="Times New Roman,serif" font-size="14.00">Escadas2</text>
</g>
<!-- Escadas3&#45;&#45;Escadas2 -->
<g id="edge1" class="edge">
<title>Escadas3&#45;&#45;Escadas2</title>
<path fill="none" stroke="red" stroke-width="2" d="M70.28,-33.69C91.38,-47.38 121.85,-67.14 142.95,-80.82"/>
<text text-anchor="middle" x="103.24" y="-59.71" font-family="Times New Roman,serif" font-size="14.00">5</text>
</g>
<!-- Escadas1 -->
<g id="node3" class="node">
<title>Escadas1</title>
<ellipse fill="none" stroke="black" cx="301.04" cy="-152.14" rx="46.07" ry="18"/>
<text text-anchor="middle" x="301.04" y="-146.72" font-family="Times New Roman,serif" font-size="14.00">Escadas1</text>
</g>
<!-- Escadas2&#45;&#45;Escadas1 -->
<g id="edge2" class="edge">
<title>Escadas2&#45;&#45;Escadas1</title>
<path fill="none" stroke="red" stroke-width="2" d="M199.19,-109.82C220.39,-118.63 248.07,-130.13 269.22,-138.92"/>
<text text-anchor="middle" x="230.83" y="-126.82" font-family="Times New Roman,serif" font-size="14.00">3</text>
</g>
<!-- AP -->
<g id="node4" class="node">
<title>AP</title>
<ellipse fill="none" stroke="black" cx="404.59" cy="-253.61" rx="27" ry="18"/>
<text text-anchor="middle" x="404.59" y="-248.18" font-family="Times New Roman,serif" font-size="14.00">AP</text>
</g>
<!-- AP&#45;&#45;Escadas1 -->
<g id="edge3" class="edge">
<title>AP&#45;&#45;Escadas1</title>
<path fill="none" stroke="red" stroke-width="2" d="M389.31,-238.63C370.41,-220.11 338.3,-188.65 318.46,-169.21"/>
<text text-anchor="middle" x="347.14" y="-206.37" font-family="Times New Roman,serif" font-size="14.00">10</text>
</g>
</g>
</svg>
