<?xml version="1.0" encoding="UTF-8" standalone="no"?>
<!DOCTYPE svg PUBLIC "-//W3C//DTD SVG 1.1//EN"
 "http://www.w3.org/Graphics/SVG/1.1/DTD/svg11.dtd">
<!-- Generated by graphviz version 10.0.1 (20240210.2158)
 -->
<!-- Pages: 1 -->
<svg width="436pt" height="315pt"
 viewBox="0.00 0.00 436.10 315.36" xmlns="http://www.w3.org/2000/svg" xmlns:xlink="http://www.w3.org/1999/xlink">
<g id="graph0" class="graph" transform="scale(1 1) rotate(0) translate(4 311.36)">
<polygon fill="white" stroke="none" points="-4,4 -4,-311.36 432.1,-311.36 432.1,4 -4,4"/>
<text text-anchor="middle" x="214.05" y="-279.61" font-family="Times New Roman,serif" font-size="25.00">Fontaine</text>
<!-- Fontaine -->
<g id="node1" class="node">
<title>Fontaine</title>
<ellipse fill="none" stroke="black" cx="42.58" cy="-18" rx="42.58" ry="18"/>
<text text-anchor="middle" x="42.58" y="-12.57" font-family="Times New Roman,serif" font-size="14.00">Fontaine</text>
</g>
<!-- Miradouro -->
<g id="node2" class="node">
<title>Miradouro</title>
<ellipse fill="none" stroke="black" cx="163.61" cy="-96.49" rx="50.07" ry="18"/>
<text text-anchor="middle" x="163.61" y="-91.06" font-family="Times New Roman,serif" font-size="14.00">Miradouro</text>
</g>
<!-- Fontaine&#45;&#45;Miradouro -->
<g id="edge1" class="edge">
<title>Fontaine&#45;&#45;Miradouro</title>
<path fill="none" stroke="red" stroke-width="2" d="M66.2,-33.32C87.12,-46.88 117.54,-66.61 138.8,-80.4"/>
<text text-anchor="middle" x="99.13" y="-59.31" font-family="Times New Roman,serif" font-size="14.00">8</text>
</g>
<!-- Topo -->
<g id="node3" class="node">
<title>Topo</title>
<ellipse fill="none" stroke="black" cx="297.54" cy="-152.14" rx="31.6" ry="18"/>
<text text-anchor="middle" x="297.54" y="-146.72" font-family="Times New Roman,serif" font-size="14.00">Topo</text>
</g>
<!-- Topo&#45;&#45;Miradouro -->
<g id="edge2" class="edge">
<title>Topo&#45;&#45;Miradouro</title>
<path fill="none" stroke="red" stroke-width="2" d="M271.72,-141.41C250.44,-132.57 220.1,-119.96 196.98,-110.35"/>
<text text-anchor="middle" x="230.97" y="-128.33" font-family="Times New Roman,serif" font-size="14.00">3</text>
</g>
<!-- AP -->
<g id="node4" class="node">
<title>AP</title>
<ellipse fill="none" stroke="black" cx="401.1" cy="-253.61" rx="27" ry="18"/>
<text text-anchor="middle" x="401.1" y="-248.18" font-family="Times New Roman,serif" font-size="14.00">AP</text>
</g>
<!-- AP&#45;&#45;Topo -->
<g id="edge3" class="edge">
<title>AP&#45;&#45;Topo</title>
<path fill="none" stroke="red" stroke-width="2" d="M385.82,-238.63C366.47,-219.67 333.27,-187.15 313.57,-167.84"/>
<text text-anchor="middle" x="346.32" y="-205.69" font-family="Times New Roman,serif" font-size="14.00">9</text>
</g>
</g>
</svg>
