<?xml version="1.0" encoding="UTF-8" standalone="no"?>
<!DOCTYPE svg PUBLIC "-//W3C//DTD SVG 1.1//EN"
 "http://www.w3.org/Graphics/SVG/1.1/DTD/svg11.dtd">
<!-- Generated by graphviz version 10.0.1 (20240210.2158)
 -->
<!-- Pages: 1 -->
<svg width="459pt" height="315pt"
 viewBox="0.00 0.00 459.06 315.36" xmlns="http://www.w3.org/2000/svg" xmlns:xlink="http://www.w3.org/1999/xlink">
<g id="graph0" class="graph" transform="scale(1 1) rotate(0) translate(4 311.36)">
<polygon fill="white" stroke="none" points="-4,4 -4,-311.36 455.06,-311.36 455.06,4 -4,4"/>
<text text-anchor="middle" x="225.53" y="-279.61" font-family="Times New Roman,serif" font-size="25.00">JardimRoseiral</text>
<!-- JardimRoseiral -->
<g id="node1" class="node">
<title>JardimRoseiral</title>
<ellipse fill="none" stroke="black" cx="65.53" cy="-18" rx="65.53" ry="18"/>
<text text-anchor="middle" x="65.53" y="-12.57" font-family="Times New Roman,serif" font-size="14.00">JardimRoseiral</text>
</g>
<!-- Escadas2 -->
<g id="node2" class="node">
<title>Escadas2</title>
<ellipse fill="none" stroke="black" cx="186.57" cy="-96.49" rx="46.07" ry="18"/>
<text text-anchor="middle" x="186.57" y="-91.06" font-family="Times New Roman,serif" font-size="14.00">Escadas2</text>
</g>
<!-- JardimRoseiral&#45;&#45;Escadas2 -->
<g id="edge1" class="edge">
<title>JardimRoseiral&#45;&#45;Escadas2</title>
<path fill="none" stroke="red" stroke-width="2" d="M91.5,-34.84C112.48,-48.44 141.78,-67.45 162.29,-80.75"/>
<text text-anchor="middle" x="123.52" y="-60.24" font-family="Times New Roman,serif" font-size="14.00">3</text>
</g>
<!-- Escadas1 -->
<g id="node3" class="node">
<title>Escadas1</title>
<ellipse fill="none" stroke="black" cx="320.5" cy="-152.14" rx="46.07" ry="18"/>
<text text-anchor="middle" x="320.5" y="-146.72" font-family="Times New Roman,serif" font-size="14.00">Escadas1</text>
</g>
<!-- Escadas2&#45;&#45;Escadas1 -->
<g id="edge2" class="edge">
<title>Escadas2&#45;&#45;Escadas1</title>
<path fill="none" stroke="red" stroke-width="2" d="M218.65,-109.82C239.85,-118.63 267.53,-130.13 288.68,-138.92"/>
<text text-anchor="middle" x="250.29" y="-126.82" font-family="Times New Roman,serif" font-size="14.00">3</text>
</g>
<!-- AP -->
<g id="node4" class="node">
<title>AP</title>
<ellipse fill="none" stroke="black" cx="424.06" cy="-253.61" rx="27" ry="18"/>
<text text-anchor="middle" x="424.06" y="-248.18" font-family="Times New Roman,serif" font-size="14.00">AP</text>
</g>
<!-- AP&#45;&#45;Escadas1 -->
<g id="edge3" class="edge">
<title>AP&#45;&#45;Escadas1</title>
<path fill="none" stroke="red" stroke-width="2" d="M408.78,-238.63C389.87,-220.11 357.76,-188.65 337.92,-169.21"/>
<text text-anchor="middle" x="366.6" y="-206.37" font-family="Times New Roman,serif" font-size="14.00">10</text>
</g>
</g>
</svg>
