<?xml version="1.0" encoding="UTF-8" standalone="no"?>
<!DOCTYPE svg PUBLIC "-//W3C//DTD SVG 1.1//EN"
 "http://www.w3.org/Graphics/SVG/1.1/DTD/svg11.dtd">
<!-- Generated by graphviz version 10.0.1 (20240210.2158)
 -->
<!-- Pages: 1 -->
<svg width="498pt" height="126pt"
 viewBox="0.00 0.00 498.07 126.43" xmlns="http://www.w3.org/2000/svg" xmlns:xlink="http://www.w3.org/1999/xlink">
<g id="graph0" class="graph" transform="scale(1 1) rotate(0) translate(4 122.43)">
<polygon fill="white" stroke="none" points="-4,4 -4,-122.43 494.07,-122.43 494.07,4 -4,4"/>
<text text-anchor="middle" x="245.03" y="-90.68" font-family="Times New Roman,serif" font-size="25.00">Torreao</text>
<!-- Miradouro -->
<g id="node1" class="node">
<title>Miradouro</title>
<ellipse fill="none" stroke="black" cx="179.79" cy="-18" rx="50.07" ry="18"/>
<text text-anchor="middle" x="179.79" y="-12.57" font-family="Times New Roman,serif" font-size="14.00">Miradouro</text>
</g>
<!-- Torreao -->
<g id="node2" class="node">
<title>Torreao</title>
<ellipse fill="none" stroke="black" cx="40.58" cy="-58.81" rx="40.58" ry="18"/>
<text text-anchor="middle" x="40.58" y="-53.39" font-family="Times New Roman,serif" font-size="14.00">Torreao</text>
</g>
<!-- Miradouro&#45;&#45;Torreao -->
<g id="edge1" class="edge">
<title>Miradouro&#45;&#45;Torreao</title>
<path fill="none" stroke="red" stroke-width="2" d="M140.64,-29.48C119.9,-35.56 94.65,-42.96 74.71,-48.81"/>
<text text-anchor="middle" x="104.3" y="-41.59" font-family="Times New Roman,serif" font-size="14.00">9</text>
</g>
<!-- Topo -->
<g id="node3" class="node">
<title>Topo</title>
<ellipse fill="none" stroke="black" cx="325.05" cy="-20.03" rx="31.6" ry="18"/>
<text text-anchor="middle" x="325.05" y="-14.6" font-family="Times New Roman,serif" font-size="14.00">Topo</text>
</g>
<!-- Topo&#45;&#45;Miradouro -->
<g id="edge2" class="edge">
<title>Topo&#45;&#45;Miradouro</title>
<path fill="none" stroke="red" stroke-width="2" d="M293.17,-19.58C274.72,-19.32 251.07,-18.99 230.15,-18.7"/>
<text text-anchor="middle" x="258.29" y="-21.59" font-family="Times New Roman,serif" font-size="14.00">3</text>
</g>
<!-- AP -->
<g id="node4" class="node">
<title>AP</title>
<ellipse fill="none" stroke="black" cx="463.07" cy="-64.68" rx="27" ry="18"/>
<text text-anchor="middle" x="463.07" y="-59.25" font-family="Times New Roman,serif" font-size="14.00">AP</text>
</g>
<!-- AP&#45;&#45;Topo -->
<g id="edge3" class="edge">
<title>AP&#45;&#45;Topo</title>
<path fill="none" stroke="red" stroke-width="2" d="M438.39,-56.7C414.36,-48.92 377.88,-37.12 352.83,-29.01"/>
<text text-anchor="middle" x="392.24" y="-45.31" font-family="Times New Roman,serif" font-size="14.00">9</text>
</g>
</g>
</svg>
