<?xml version="1.0" encoding="us-ascii" standalone="no"?><svg xmlns="http://www.w3.org/2000/svg" xmlns:xlink="http://www.w3.org/1999/xlink" contentStyleType="text/css" height="1356px" preserveAspectRatio="none" style="width:1006px;height:1356px;background:#FFFFFF;" version="1.1" viewBox="0 0 1006 1356" width="1006px" zoomAndPan="magnify"><defs/><g><text fill="#000000" font-family="sans-serif" font-size="14" font-weight="bold" lengthAdjust="spacing" textLength="284" x="364.5" y="30.1074">US005 - System Sequence Diagram (SSD)</text><rect fill="#FFFFFF" height="1121.6934" style="stroke:#181818;stroke-width:1.0;" width="10" x="33" y="133.2422"/><rect fill="#FFFFFF" height="57.582" style="stroke:#181818;stroke-width:1.0;" width="10" x="402" y="156.5332"/><rect fill="#FFFFFF" height="208.873" style="stroke:#181818;stroke-width:1.0;" width="10" x="402" y="245.4063"/><rect fill="#FFFFFF" height="158.873" style="stroke:#181818;stroke-width:1.0;" width="10" x="402" y="510.5703"/><rect fill="#FFFFFF" height="290.3281" style="stroke:#181818;stroke-width:1.0;" width="10" x="402" y="725.7344"/><rect fill="#FFFFFF" height="182.582" style="stroke:#181818;stroke-width:1.0;" width="10" x="402" y="1072.3535"/><rect fill="none" height="106.873" style="stroke:#000000;stroke-width:1.5;" width="468" x="10" y="171.5332"/><rect fill="none" height="156.873" style="stroke:#000000;stroke-width:1.5;" width="468" x="10" y="386.6973"/><rect fill="none" height="131.873" style="stroke:#000000;stroke-width:1.5;" width="468" x="10" y="626.8613"/><rect fill="none" height="131.873" style="stroke:#000000;stroke-width:1.5;" width="468" x="10" y="973.4805"/><line style="stroke:#181818;stroke-width:0.5;stroke-dasharray:5.0,5.0;" x1="38" x2="38" y1="123.2422" y2="1272.9355"/><line style="stroke:#181818;stroke-width:0.5;stroke-dasharray:5.0,5.0;" x1="407" x2="407" y1="123.2422" y2="1272.9355"/><text fill="#000000" font-family="sans-serif" font-size="14" lengthAdjust="spacing" textLength="30" x="20" y="119.7285">HRM</text><ellipse cx="38" cy="53.1211" fill="#E3E3E3" rx="8" ry="8" style="stroke:#181818;stroke-width:0.5;"/><path d="M38,61.1211 L38,88.1211 M25,69.1211 L51,69.1211 M38,88.1211 L25,103.1211 M38,88.1211 L51,103.1211 " fill="none" style="stroke:#181818;stroke-width:0.5;"/><text fill="#000000" font-family="sans-serif" font-size="14" lengthAdjust="spacing" textLength="30" x="20" y="1287.043">HRM</text><ellipse cx="38" cy="1299.0566" fill="#E3E3E3" rx="8" ry="8" style="stroke:#181818;stroke-width:0.5;"/><path d="M38,1307.0566 L38,1334.0566 M25,1315.0566 L51,1315.0566 M38,1334.0566 L25,1349.0566 M38,1334.0566 L51,1349.0566 " fill="none" style="stroke:#181818;stroke-width:0.5;"/><rect fill="#E3E3E3" height="32.6211" rx="2.5" ry="2.5" style="stroke:#181818;stroke-width:0.5;" width="122" x="346" y="89.6211"/><text fill="#000000" font-family="sans-serif" font-size="14" lengthAdjust="spacing" textLength="108" x="353" y="111.7285">:TeamProposalUI</text><rect fill="#E3E3E3" height="32.6211" rx="2.5" ry="2.5" style="stroke:#181818;stroke-width:0.5;" width="122" x="346" y="1271.9355"/><text fill="#000000" font-family="sans-serif" font-size="14" lengthAdjust="spacing" textLength="108" x="353" y="1294.043">:TeamProposalUI</text><rect fill="#FFFFFF" height="1121.6934" style="stroke:#181818;stroke-width:1.0;" width="10" x="33" y="133.2422"/><rect fill="#FFFFFF" height="57.582" style="stroke:#181818;stroke-width:1.0;" width="10" x="402" y="156.5332"/><rect fill="#FFFFFF" height="208.873" style="stroke:#181818;stroke-width:1.0;" width="10" x="402" y="245.4063"/><rect fill="#FFFFFF" height="158.873" style="stroke:#181818;stroke-width:1.0;" width="10" x="402" y="510.5703"/><rect fill="#FFFFFF" height="290.3281" style="stroke:#181818;stroke-width:1.0;" width="10" x="402" y="725.7344"/><rect fill="#FFFFFF" height="182.582" style="stroke:#181818;stroke-width:1.0;" width="10" x="402" y="1072.3535"/><polygon fill="#181818" points="390,152.5332,400,156.5332,390,160.5332,394,156.5332" style="stroke:#181818;stroke-width:1.0;"/><line style="stroke:#181818;stroke-width:1.0;" x1="43" x2="396" y1="156.5332" y2="156.5332"/><text fill="#000000" font-family="sans-serif" font-size="13" font-weight="bold" lengthAdjust="spacing" textLength="7" x="50" y="151.2705">1</text><text fill="#000000" font-family="sans-serif" font-size="13" lengthAdjust="spacing" textLength="223" x="61" y="151.2705">Asks to generate a new team proposal</text><path d="M10,171.5332 L83,171.5332 L83,180.8242 L73,190.8242 L10,190.8242 L10,171.5332 " fill="#EEEEEE" style="stroke:#000000;stroke-width:1.5;"/><rect fill="none" height="106.873" style="stroke:#000000;stroke-width:1.5;" width="468" x="10" y="171.5332"/><text fill="#000000" font-family="sans-serif" font-size="13" font-weight="bold" lengthAdjust="spacing" textLength="28" x="25" y="186.5615">loop</text><text fill="#000000" font-family="sans-serif" font-size="11" font-weight="bold" lengthAdjust="spacing" textLength="157" x="98" y="185.4033">[until typed data is validated]</text><polygon fill="#181818" points="54,210.1152,44,214.1152,54,218.1152,50,214.1152" style="stroke:#181818;stroke-width:1.0;"/><line style="stroke:#181818;stroke-width:1.0;stroke-dasharray:2.0,2.0;" x1="48" x2="406" y1="214.1152" y2="214.1152"/><text fill="#000000" font-family="sans-serif" font-size="13" font-weight="bold" lengthAdjust="spacing" textLength="7" x="60" y="208.8525">2</text><text fill="#000000" font-family="sans-serif" font-size="13" lengthAdjust="spacing" textLength="256" x="71" y="208.8525">Requests data (maxteamsize, minteamsize)</text><polygon fill="#181818" points="390,241.4063,400,245.4063,390,249.4063,394,245.4063" style="stroke:#181818;stroke-width:1.0;"/><line style="stroke:#181818;stroke-width:1.0;" x1="43" x2="396" y1="245.4063" y2="245.4063"/><text fill="#000000" font-family="sans-serif" font-size="13" font-weight="bold" lengthAdjust="spacing" textLength="7" x="50" y="240.1436">3</text><text fill="#000000" font-family="sans-serif" font-size="13" lengthAdjust="spacing" textLength="125" x="61" y="240.1436">Types requested data</text><line style="stroke:#181818;stroke-width:1.0;stroke-dasharray:2.0,2.0;" x1="412" x2="454" y1="333.6973" y2="333.6973"/><line style="stroke:#181818;stroke-width:1.0;stroke-dasharray:2.0,2.0;" x1="454" x2="454" y1="333.6973" y2="346.6973"/><line style="stroke:#181818;stroke-width:1.0;stroke-dasharray:2.0,2.0;" x1="413" x2="454" y1="346.6973" y2="346.6973"/><polygon fill="#181818" points="423,342.6973,413,346.6973,423,350.6973,419,346.6973" style="stroke:#181818;stroke-width:1.0;"/><text fill="#000000" font-family="sans-serif" font-size="13" font-weight="bold" lengthAdjust="spacing" textLength="7" x="419" y="328.4346">4</text><text fill="#000000" font-family="sans-serif" font-size="13" lengthAdjust="spacing" textLength="199" x="430" y="328.4346">keepData(max and min team size)</text><path d="M10,386.6973 L83,386.6973 L83,395.9883 L73,405.9883 L10,405.9883 L10,386.6973 " fill="#EEEEEE" style="stroke:#000000;stroke-width:1.5;"/><rect fill="none" height="156.873" style="stroke:#000000;stroke-width:1.5;" width="468" x="10" y="386.6973"/><text fill="#000000" font-family="sans-serif" font-size="13" font-weight="bold" lengthAdjust="spacing" textLength="28" x="25" y="401.7256">loop</text><text fill="#000000" font-family="sans-serif" font-size="11" font-weight="bold" lengthAdjust="spacing" textLength="202" x="98" y="400.5674">[until no longer want to select skills]</text><polygon fill="#181818" points="54,450.2793,44,454.2793,54,458.2793,50,454.2793" style="stroke:#181818;stroke-width:1.0;"/><line style="stroke:#181818;stroke-width:1.0;stroke-dasharray:2.0,2.0;" x1="48" x2="406" y1="454.2793" y2="454.2793"/><text fill="#000000" font-family="sans-serif" font-size="13" font-weight="bold" lengthAdjust="spacing" textLength="7" x="60" y="449.0166">5</text><text fill="#000000" font-family="sans-serif" font-size="13" lengthAdjust="spacing" textLength="321" x="71" y="449.0166">Shows list of skills and asks to select the skills needed</text><polygon fill="#181818" points="390,506.5703,400,510.5703,390,514.5703,394,510.5703" style="stroke:#181818;stroke-width:1.0;"/><line style="stroke:#181818;stroke-width:1.0;" x1="43" x2="396" y1="510.5703" y2="510.5703"/><text fill="#000000" font-family="sans-serif" font-size="13" font-weight="bold" lengthAdjust="spacing" textLength="7" x="50" y="505.3076">6</text><text fill="#000000" font-family="sans-serif" font-size="13" lengthAdjust="spacing" textLength="143" x="61" y="505.3076">Select skills from the list</text><line style="stroke:#181818;stroke-width:1.0;stroke-dasharray:2.0,2.0;" x1="412" x2="454" y1="573.8613" y2="573.8613"/><line style="stroke:#181818;stroke-width:1.0;stroke-dasharray:2.0,2.0;" x1="454" x2="454" y1="573.8613" y2="586.8613"/><line style="stroke:#181818;stroke-width:1.0;stroke-dasharray:2.0,2.0;" x1="413" x2="454" y1="586.8613" y2="586.8613"/><polygon fill="#181818" points="423,582.8613,413,586.8613,423,590.8613,419,586.8613" style="stroke:#181818;stroke-width:1.0;"/><text fill="#000000" font-family="sans-serif" font-size="13" font-weight="bold" lengthAdjust="spacing" textLength="7" x="419" y="568.5986">7</text><text fill="#000000" font-family="sans-serif" font-size="13" lengthAdjust="spacing" textLength="203" x="430" y="568.5986">keepData(List&lt;Skill&gt; skillsNeeded)</text><path d="M10,626.8613 L83,626.8613 L83,636.1523 L73,646.1523 L10,646.1523 L10,626.8613 " fill="#EEEEEE" style="stroke:#000000;stroke-width:1.5;"/><rect fill="none" height="131.873" style="stroke:#000000;stroke-width:1.5;" width="468" x="10" y="626.8613"/><text fill="#000000" font-family="sans-serif" font-size="13" font-weight="bold" lengthAdjust="spacing" textLength="28" x="25" y="641.8896">loop</text><text fill="#000000" font-family="sans-serif" font-size="11" font-weight="bold" lengthAdjust="spacing" textLength="130" x="98" y="640.7314">[for each skill selected]</text><polygon fill="#181818" points="54,665.4434,44,669.4434,54,673.4434,50,669.4434" style="stroke:#181818;stroke-width:1.0;"/><line style="stroke:#181818;stroke-width:1.0;stroke-dasharray:2.0,2.0;" x1="48" x2="406" y1="669.4434" y2="669.4434"/><text fill="#000000" font-family="sans-serif" font-size="13" font-weight="bold" lengthAdjust="spacing" textLength="7" x="60" y="664.1807">8</text><text fill="#000000" font-family="sans-serif" font-size="13" lengthAdjust="spacing" textLength="324" x="71" y="664.1807">Asks to specify the quantity needed of the selected skill</text><polygon fill="#181818" points="390,721.7344,400,725.7344,390,729.7344,394,725.7344" style="stroke:#181818;stroke-width:1.0;"/><line style="stroke:#181818;stroke-width:1.0;" x1="43" x2="396" y1="725.7344" y2="725.7344"/><text fill="#000000" font-family="sans-serif" font-size="13" font-weight="bold" lengthAdjust="spacing" textLength="7" x="50" y="720.4717">9</text><text fill="#000000" font-family="sans-serif" font-size="13" lengthAdjust="spacing" textLength="224" x="61" y="720.4717">Types the quantity needed for that skill</text><line style="stroke:#181818;stroke-width:1.0;stroke-dasharray:2.0,2.0;" x1="412" x2="454" y1="811.4619" y2="811.4619"/><line style="stroke:#181818;stroke-width:1.0;stroke-dasharray:2.0,2.0;" x1="454" x2="454" y1="811.4619" y2="824.4619"/><line style="stroke:#181818;stroke-width:1.0;stroke-dasharray:2.0,2.0;" x1="413" x2="454" y1="824.4619" y2="824.4619"/><polygon fill="#181818" points="423,820.4619,413,824.4619,423,828.4619,419,824.4619" style="stroke:#181818;stroke-width:1.0;"/><text fill="#000000" font-family="sans-serif" font-size="13" font-weight="bold" lengthAdjust="spacing" textLength="14" x="419" y="806.1992">10</text><text fill="#000000" font-family="sans-serif" font-size="13" lengthAdjust="spacing" textLength="233" x="437" y="806.1992">keepData(List&lt;Integer&gt; quantityNeeded)</text><path d="M682,770.7344 L682,849.7344 L999,849.7344 L999,780.7344 L989,770.7344 L682,770.7344 " fill="#FAFAFA" style="stroke:#181818;stroke-width:0.5;"/><path d="M989,770.7344 L989,780.7344 L999,780.7344 L989,770.7344 " fill="#FAFAFA" style="stroke:#181818;stroke-width:0.5;"/><text fill="#000000" font-family="sans-serif" font-size="13" font-weight="bold" lengthAdjust="spacing" textLength="39" x="688" y="789.7627">NOTE:</text><text fill="#000000" font-family="sans-serif" font-size="13" font-weight="bold" lengthAdjust="spacing" textLength="76" x="688" y="807.0537">Set of skills:</text><ellipse cx="693.5" cy="820.1074" fill="#000000" rx="2.5" ry="2.5" style="stroke:#000000;stroke-width:0.0;"/><text fill="#000000" font-family="sans-serif" font-size="13" lengthAdjust="spacing" textLength="248" x="700" y="824.3447">Set of skills required for the team proposal;</text><ellipse cx="693.5" cy="837.3984" fill="#000000" rx="2.5" ry="2.5" style="stroke:#000000;stroke-width:0.0;"/><text fill="#000000" font-family="sans-serif" font-size="13" lengthAdjust="spacing" textLength="284" x="700" y="841.6357">Includes the skill name and the required quantity.</text><line style="stroke:#181818;stroke-width:1.0;" x1="412" x2="454" y1="920.4805" y2="920.4805"/><line style="stroke:#181818;stroke-width:1.0;" x1="454" x2="454" y1="920.4805" y2="933.4805"/><line style="stroke:#181818;stroke-width:1.0;" x1="413" x2="454" y1="933.4805" y2="933.4805"/><polygon fill="#181818" points="423,929.4805,413,933.4805,423,937.4805,419,933.4805" style="stroke:#181818;stroke-width:1.0;"/><text fill="#000000" font-family="sans-serif" font-size="13" font-weight="bold" lengthAdjust="spacing" textLength="14" x="419" y="906.5723">11</text><text fill="#000000" font-family="sans-serif" font-size="13" lengthAdjust="spacing" textLength="200" x="437" y="897.9268">generates the list of team proposal</text><text fill="#000000" font-family="sans-serif" font-size="13" lengthAdjust="spacing" textLength="177" x="441" y="915.2178">(List&lt;Team&gt; teamsGenerated)</text><path d="M10,973.4805 L83,973.4805 L83,982.7715 L73,992.7715 L10,992.7715 L10,973.4805 " fill="#EEEEEE" style="stroke:#000000;stroke-width:1.5;"/><rect fill="none" height="131.873" style="stroke:#000000;stroke-width:1.5;" width="468" x="10" y="973.4805"/><text fill="#000000" font-family="sans-serif" font-size="13" font-weight="bold" lengthAdjust="spacing" textLength="28" x="25" y="988.5088">loop</text><text fill="#000000" font-family="sans-serif" font-size="11" font-weight="bold" lengthAdjust="spacing" textLength="189" x="98" y="987.3506">[until team generated is accepted]</text><path d="M483,978.4805 L483,1039.4805 L751,1039.4805 L751,988.4805 L741,978.4805 L483,978.4805 " fill="#FAFAFA" style="stroke:#181818;stroke-width:0.5;"/><path d="M741,978.4805 L741,988.4805 L751,988.4805 L741,978.4805 " fill="#FAFAFA" style="stroke:#181818;stroke-width:0.5;"/><text fill="#000000" font-family="sans-serif" font-size="13" lengthAdjust="spacing" textLength="218" x="489" y="997.5088">If the user rejects the displayed team,</text><text fill="#000000" font-family="sans-serif" font-size="13" lengthAdjust="spacing" textLength="247" x="489" y="1014.7998">the next team in the list "teamsGenerated"</text><text fill="#000000" font-family="sans-serif" font-size="13" lengthAdjust="spacing" textLength="88" x="489" y="1032.0908">will be showed.</text><polygon fill="#181818" points="54,1012.0625,44,1016.0625,54,1020.0625,50,1016.0625" style="stroke:#181818;stroke-width:1.0;"/><line style="stroke:#181818;stroke-width:1.0;stroke-dasharray:2.0,2.0;" x1="48" x2="406" y1="1016.0625" y2="1016.0625"/><text fill="#000000" font-family="sans-serif" font-size="13" font-weight="bold" lengthAdjust="spacing" textLength="14" x="60" y="1010.7998">12</text><text fill="#000000" font-family="sans-serif" font-size="13" lengthAdjust="spacing" textLength="282" x="78" y="1010.7998">Shows team generated and asks for confirmation</text><polygon fill="#181818" points="390,1068.3535,400,1072.3535,390,1076.3535,394,1072.3535" style="stroke:#181818;stroke-width:1.0;"/><line style="stroke:#181818;stroke-width:1.0;" x1="43" x2="396" y1="1072.3535" y2="1072.3535"/><text fill="#000000" font-family="sans-serif" font-size="13" font-weight="bold" lengthAdjust="spacing" textLength="14" x="50" y="1067.0908">13</text><text fill="#000000" font-family="sans-serif" font-size="13" lengthAdjust="spacing" textLength="185" x="68" y="1067.0908">Accepts or rejects the proposal.</text><line style="stroke:#181818;stroke-width:1.0;" x1="412" x2="454" y1="1185.6445" y2="1185.6445"/><line style="stroke:#181818;stroke-width:1.0;" x1="454" x2="454" y1="1185.6445" y2="1198.6445"/><line style="stroke:#181818;stroke-width:1.0;" x1="413" x2="454" y1="1198.6445" y2="1198.6445"/><polygon fill="#181818" points="423,1194.6445,413,1198.6445,423,1202.6445,419,1198.6445" style="stroke:#181818;stroke-width:1.0;"/><text fill="#000000" font-family="sans-serif" font-size="13" font-weight="bold" lengthAdjust="spacing" textLength="14" x="419" y="1180.3818">14</text><text fill="#000000" font-family="sans-serif" font-size="13" lengthAdjust="spacing" textLength="123" x="437" y="1180.3818">saves accepted team</text><polygon fill="#181818" points="49,1250.9355,39,1254.9355,49,1258.9355,45,1254.9355" style="stroke:#181818;stroke-width:1.0;"/><line style="stroke:#181818;stroke-width:1.0;stroke-dasharray:2.0,2.0;" x1="43" x2="406" y1="1254.9355" y2="1254.9355"/><text fill="#000000" font-family="sans-serif" font-size="13" font-weight="bold" lengthAdjust="spacing" textLength="14" x="55" y="1249.6729">15</text><text fill="#000000" font-family="sans-serif" font-size="13" lengthAdjust="spacing" textLength="106" x="73" y="1249.6729">operation success</text><!--SRC=[ZLLDRzim3BtxLn0vDK5RzB9BDWGeq64Bi7L3tTvsKMt6rc9BhYatpT0VFrB-g9Mu7xhOblGUoSSdcRRQLAfM9PJMs2IlROdWwWOZ6bOgbMnLXh7R5mWr9awPh1Xle5obTgTD1XjL44QHquwttiKN5v_W3E8zEImXneS6JO9mfLKci9Culff7aMgSDKrvZpM_9yxMCFj-ytC6Ye2V4OTmEj6LCWvcorjKvU_QLfPKSRVsc-xMaGo6waVbq8CYuC4lSBRYTLZ29Mq9d8KC3TQoIu717JYK-Ze-3nfec5Q-2sihQ8pJ1RXzXIcaoYdG18-gqFoEgTycWmETSJm9kuGRgPOSjVjFIlKaiKZ_mrCejUa_vXwTuZZiKVAt79XOUS_OfT3kUdv-dimQJUep3pQDSlIqMyJgYgaaEL2CuBnQHLuow_7Hy3KIn5Z-CXdMi9FkiBo41Vi3s1f5GGDa81bF16h5kTqH59eSs4q7zocfhcyTiSknNpM8wKZySQ7lo1cFauGDMzxpIlH9CNlQGTJeRJb_CD6NMDXNNP1hd-jy10pay99ksFYSTzv2keAvmEWDsNfNKuM9tknz6GyDzqAxVIUGwEbLw_XQ-e0ob6jAq7uSct8gebJYSkKcGdqqKE3VzyLUytbY6ww6L8u5bs4iHwvrbhjWUh6u_dNxTRbO7Cp6E7BZqNAmwW-dheVYCRnPFeVGjKcA9ktKQzjj5D-xOdYP6iZwSiwFn95ItbHGnEgqwkyy6cpkJJ5E4FuOQAMK2tRb5-bRXqldnoSvc1dVaSBQ1qpbdbH9WfKxEAaJX_y0EHn-4JInPgFhKZbjpQjLJziu-0duL0YOiSQ_V1nQHNeHpgCfsjSiortuYBdMxV5h2CEWgQQgK7kkL0e_3J2oRl39jPh8fTptRHOsPXR0TcAaUtOKwudfEvuPbtZuW-Za8lM8B_tpoKGVkyvj9Vbniu0QXXEzqYGUemdvSVy7]--></g></svg>