<?xml version="1.0" encoding="us-ascii" standalone="no"?><svg xmlns="http://www.w3.org/2000/svg" xmlns:xlink="http://www.w3.org/1999/xlink" contentStyleType="text/css" height="844px" preserveAspectRatio="none" style="width:816px;height:844px;background:#FFFFFF;" version="1.1" viewBox="0 0 816 844" width="816px" zoomAndPan="magnify"><defs/><g><text fill="#000000" font-family="sans-serif" font-size="14" font-weight="bold" lengthAdjust="spacing" textLength="284" x="269.5" y="30.1074">US005 - System Sequence Diagram (SSD)</text><rect fill="#FFFFFF" height="618.6563" style="stroke:#181818;stroke-width:1.0;" width="10" x="43" y="133.2422"/><rect fill="#FFFFFF" height="31.291" style="stroke:#181818;stroke-width:1.0;" width="10" x="370" y="156.5332"/><rect fill="#FFFFFF" height="82.582" style="stroke:#181818;stroke-width:1.0;" width="10" x="370" y="245.4063"/><rect fill="#FFFFFF" height="227.4551" style="stroke:#181818;stroke-width:1.0;" width="10" x="370" y="376.5703"/><rect fill="#FFFFFF" height="107.582" style="stroke:#181818;stroke-width:1.0;" width="10" x="370" y="635.3164"/><rect fill="none" height="283.0371" style="stroke:#000000;stroke-width:1.5;" width="477" x="10" y="202.8242"/><rect fill="none" height="124.1641" style="stroke:#000000;stroke-width:1.5;" width="426" x="20" y="285.4063"/><rect fill="none" height="143.4551" style="stroke:#000000;stroke-width:1.5;" width="551" x="20" y="499.8613"/><line style="stroke:#181818;stroke-width:0.5;stroke-dasharray:5.0,5.0;" x1="48" x2="48" y1="123.2422" y2="760.8984"/><line style="stroke:#181818;stroke-width:0.5;stroke-dasharray:5.0,5.0;" x1="375" x2="375" y1="123.2422" y2="760.8984"/><text fill="#000000" font-family="sans-serif" font-size="14" lengthAdjust="spacing" textLength="30" x="30" y="119.7285">HRM</text><ellipse cx="48" cy="53.1211" fill="#E3E3E3" rx="8" ry="8" style="stroke:#181818;stroke-width:0.5;"/><path d="M48,61.1211 L48,88.1211 M35,69.1211 L61,69.1211 M48,88.1211 L35,103.1211 M48,88.1211 L61,103.1211 " fill="none" style="stroke:#181818;stroke-width:0.5;"/><text fill="#000000" font-family="sans-serif" font-size="14" lengthAdjust="spacing" textLength="30" x="30" y="775.0059">HRM</text><ellipse cx="48" cy="787.0195" fill="#E3E3E3" rx="8" ry="8" style="stroke:#181818;stroke-width:0.5;"/><path d="M48,795.0195 L48,822.0195 M35,803.0195 L61,803.0195 M48,822.0195 L35,837.0195 M48,822.0195 L61,837.0195 " fill="none" style="stroke:#181818;stroke-width:0.5;"/><rect fill="#E3E3E3" height="32.6211" rx="2.5" ry="2.5" style="stroke:#181818;stroke-width:0.5;" width="122" x="314" y="89.6211"/><text fill="#000000" font-family="sans-serif" font-size="14" lengthAdjust="spacing" textLength="108" x="321" y="111.7285">:TeamProposalUI</text><rect fill="#E3E3E3" height="32.6211" rx="2.5" ry="2.5" style="stroke:#181818;stroke-width:0.5;" width="122" x="314" y="759.8984"/><text fill="#000000" font-family="sans-serif" font-size="14" lengthAdjust="spacing" textLength="108" x="321" y="782.0059">:TeamProposalUI</text><rect fill="#FFFFFF" height="618.6563" style="stroke:#181818;stroke-width:1.0;" width="10" x="43" y="133.2422"/><rect fill="#FFFFFF" height="31.291" style="stroke:#181818;stroke-width:1.0;" width="10" x="370" y="156.5332"/><rect fill="#FFFFFF" height="82.582" style="stroke:#181818;stroke-width:1.0;" width="10" x="370" y="245.4063"/><rect fill="#FFFFFF" height="227.4551" style="stroke:#181818;stroke-width:1.0;" width="10" x="370" y="376.5703"/><rect fill="#FFFFFF" height="107.582" style="stroke:#181818;stroke-width:1.0;" width="10" x="370" y="635.3164"/><polygon fill="#181818" points="358,152.5332,368,156.5332,358,160.5332,362,156.5332" style="stroke:#181818;stroke-width:1.0;"/><line style="stroke:#181818;stroke-width:1.0;" x1="53" x2="364" y1="156.5332" y2="156.5332"/><text fill="#000000" font-family="sans-serif" font-size="13" font-weight="bold" lengthAdjust="spacing" textLength="7" x="60" y="151.2705">1</text><text fill="#000000" font-family="sans-serif" font-size="13" lengthAdjust="spacing" textLength="223" x="71" y="151.2705">Asks to generate a new team proposal</text><polygon fill="#181818" points="64,183.8242,54,187.8242,64,191.8242,60,187.8242" style="stroke:#181818;stroke-width:1.0;"/><line style="stroke:#181818;stroke-width:1.0;stroke-dasharray:2.0,2.0;" x1="58" x2="374" y1="187.8242" y2="187.8242"/><text fill="#000000" font-family="sans-serif" font-size="13" font-weight="bold" lengthAdjust="spacing" textLength="7" x="70" y="182.5615">2</text><text fill="#000000" font-family="sans-serif" font-size="13" lengthAdjust="spacing" textLength="232" x="81" y="182.5615">Requests data (max and min team size)</text><path d="M10,202.8242 L83,202.8242 L83,212.1152 L73,222.1152 L10,222.1152 L10,202.8242 " fill="#EEEEEE" style="stroke:#000000;stroke-width:1.5;"/><rect fill="none" height="283.0371" style="stroke:#000000;stroke-width:1.5;" width="477" x="10" y="202.8242"/><text fill="#000000" font-family="sans-serif" font-size="13" font-weight="bold" lengthAdjust="spacing" textLength="28" x="25" y="217.8525">loop</text><text fill="#000000" font-family="sans-serif" font-size="11" font-weight="bold" lengthAdjust="spacing" textLength="154" x="98" y="216.6943">[until input data is validated]</text><path d="M492,207.8242 L492,286.8242 L809,286.8242 L809,217.8242 L799,207.8242 L492,207.8242 " fill="#FAFAFA" style="stroke:#181818;stroke-width:0.5;"/><path d="M799,207.8242 L799,217.8242 L809,217.8242 L799,207.8242 " fill="#FAFAFA" style="stroke:#181818;stroke-width:0.5;"/><text fill="#000000" font-family="sans-serif" font-size="13" font-weight="bold" lengthAdjust="spacing" textLength="58" x="498" y="226.8525">(5) NOTE:</text><text fill="#000000" font-family="sans-serif" font-size="13" font-weight="bold" lengthAdjust="spacing" textLength="76" x="498" y="244.1436">Set of skills:</text><ellipse cx="503.5" cy="257.1973" fill="#000000" rx="2.5" ry="2.5" style="stroke:#000000;stroke-width:0.0;"/><text fill="#000000" font-family="sans-serif" font-size="13" lengthAdjust="spacing" textLength="248" x="510" y="261.4346">Set of skills required for the team proposal;</text><ellipse cx="503.5" cy="274.4883" fill="#000000" rx="2.5" ry="2.5" style="stroke:#000000;stroke-width:0.0;"/><text fill="#000000" font-family="sans-serif" font-size="13" lengthAdjust="spacing" textLength="284" x="510" y="278.7256">Includes the skill name and the required quantity.</text><polygon fill="#181818" points="358,241.4063,368,245.4063,358,249.4063,362,245.4063" style="stroke:#181818;stroke-width:1.0;"/><line style="stroke:#181818;stroke-width:1.0;" x1="53" x2="364" y1="245.4063" y2="245.4063"/><text fill="#000000" font-family="sans-serif" font-size="13" font-weight="bold" lengthAdjust="spacing" textLength="7" x="60" y="240.1436">3</text><text fill="#000000" font-family="sans-serif" font-size="13" lengthAdjust="spacing" textLength="125" x="71" y="240.1436">Types requested data</text><path d="M20,285.4063 L93,285.4063 L93,294.6973 L83,304.6973 L20,304.6973 L20,285.4063 " fill="#EEEEEE" style="stroke:#000000;stroke-width:1.5;"/><rect fill="none" height="124.1641" style="stroke:#000000;stroke-width:1.5;" width="426" x="20" y="285.4063"/><text fill="#000000" font-family="sans-serif" font-size="13" font-weight="bold" lengthAdjust="spacing" textLength="28" x="35" y="300.4346">loop</text><text fill="#000000" font-family="sans-serif" font-size="11" font-weight="bold" lengthAdjust="spacing" textLength="202" x="108" y="299.2764">[until no longer want to select skills]</text><polygon fill="#181818" points="64,323.9883,54,327.9883,64,331.9883,60,327.9883" style="stroke:#181818;stroke-width:1.0;"/><line style="stroke:#181818;stroke-width:1.0;stroke-dasharray:2.0,2.0;" x1="58" x2="374" y1="327.9883" y2="327.9883"/><text fill="#000000" font-family="sans-serif" font-size="13" font-weight="bold" lengthAdjust="spacing" textLength="7" x="70" y="322.7256">4</text><text fill="#000000" font-family="sans-serif" font-size="13" lengthAdjust="spacing" textLength="244" x="81" y="322.7256">Shows list of skills and asks to select one</text><polygon fill="#181818" points="358,372.5703,368,376.5703,358,380.5703,362,376.5703" style="stroke:#181818;stroke-width:1.0;"/><line style="stroke:#181818;stroke-width:1.0;" x1="53" x2="364" y1="376.5703" y2="376.5703"/><text fill="#000000" font-family="sans-serif" font-size="13" font-weight="bold" lengthAdjust="spacing" textLength="7" x="60" y="362.6621">5</text><text fill="#000000" font-family="sans-serif" font-size="13" lengthAdjust="spacing" textLength="256" x="71" y="354.0166">Selects a skill from the list and specifies the</text><text fill="#000000" font-family="sans-serif" font-size="13" lengthAdjust="spacing" textLength="117" x="71" y="371.3076">quantity of that skill.</text><line style="stroke:#181818;stroke-width:1.0;stroke-dasharray:2.0,2.0;" x1="380" x2="422" y1="439.8613" y2="439.8613"/><line style="stroke:#181818;stroke-width:1.0;stroke-dasharray:2.0,2.0;" x1="422" x2="422" y1="439.8613" y2="452.8613"/><line style="stroke:#181818;stroke-width:1.0;stroke-dasharray:2.0,2.0;" x1="381" x2="422" y1="452.8613" y2="452.8613"/><polygon fill="#181818" points="391,448.8613,381,452.8613,391,456.8613,387,452.8613" style="stroke:#181818;stroke-width:1.0;"/><text fill="#000000" font-family="sans-serif" font-size="13" font-weight="bold" lengthAdjust="spacing" textLength="7" x="387" y="434.5986">6</text><text fill="#000000" font-family="sans-serif" font-size="13" lengthAdjust="spacing" textLength="77" x="398" y="434.5986">validatesData</text><path d="M20,499.8613 L93,499.8613 L93,509.1523 L83,519.1523 L20,519.1523 L20,499.8613 " fill="#EEEEEE" style="stroke:#000000;stroke-width:1.5;"/><rect fill="none" height="143.4551" style="stroke:#000000;stroke-width:1.5;" width="551" x="20" y="499.8613"/><text fill="#000000" font-family="sans-serif" font-size="13" font-weight="bold" lengthAdjust="spacing" textLength="28" x="35" y="514.8896">loop</text><text fill="#000000" font-family="sans-serif" font-size="11" font-weight="bold" lengthAdjust="spacing" textLength="210" x="108" y="513.7314">[until the team generated is accepted]</text><line style="stroke:#181818;stroke-width:1.0;stroke-dasharray:2.0,2.0;" x1="380" x2="422" y1="559.7344" y2="559.7344"/><line style="stroke:#181818;stroke-width:1.0;stroke-dasharray:2.0,2.0;" x1="422" x2="422" y1="559.7344" y2="572.7344"/><line style="stroke:#181818;stroke-width:1.0;stroke-dasharray:2.0,2.0;" x1="381" x2="422" y1="572.7344" y2="572.7344"/><polygon fill="#181818" points="391,568.7344,381,572.7344,391,576.7344,387,572.7344" style="stroke:#181818;stroke-width:1.0;"/><text fill="#000000" font-family="sans-serif" font-size="13" font-weight="bold" lengthAdjust="spacing" textLength="7" x="387" y="545.8262">7</text><text fill="#000000" font-family="sans-serif" font-size="13" lengthAdjust="spacing" textLength="161" x="398" y="537.1807">Generate the team proposal</text><text fill="#000000" font-family="sans-serif" font-size="13" lengthAdjust="spacing" textLength="123" x="398" y="554.4717">with given information</text><polygon fill="#181818" points="64,600.0254,54,604.0254,64,608.0254,60,604.0254" style="stroke:#181818;stroke-width:1.0;"/><line style="stroke:#181818;stroke-width:1.0;stroke-dasharray:2.0,2.0;" x1="58" x2="374" y1="604.0254" y2="604.0254"/><text fill="#000000" font-family="sans-serif" font-size="13" font-weight="bold" lengthAdjust="spacing" textLength="7" x="70" y="598.7627">8</text><text fill="#000000" font-family="sans-serif" font-size="13" lengthAdjust="spacing" textLength="282" x="81" y="598.7627">Shows team generated and asks for confirmation</text><polygon fill="#181818" points="358,631.3164,368,635.3164,358,639.3164,362,635.3164" style="stroke:#181818;stroke-width:1.0;"/><line style="stroke:#181818;stroke-width:1.0;" x1="53" x2="364" y1="635.3164" y2="635.3164"/><text fill="#000000" font-family="sans-serif" font-size="13" font-weight="bold" lengthAdjust="spacing" textLength="7" x="60" y="630.0537">9</text><text fill="#000000" font-family="sans-serif" font-size="13" lengthAdjust="spacing" textLength="185" x="71" y="630.0537">Accepts or rejects the proposal.</text><line style="stroke:#181818;stroke-width:1.0;stroke-dasharray:2.0,2.0;" x1="380" x2="422" y1="698.6074" y2="698.6074"/><line style="stroke:#181818;stroke-width:1.0;stroke-dasharray:2.0,2.0;" x1="422" x2="422" y1="698.6074" y2="711.6074"/><line style="stroke:#181818;stroke-width:1.0;stroke-dasharray:2.0,2.0;" x1="381" x2="422" y1="711.6074" y2="711.6074"/><polygon fill="#181818" points="391,707.6074,381,711.6074,391,715.6074,387,711.6074" style="stroke:#181818;stroke-width:1.0;"/><text fill="#000000" font-family="sans-serif" font-size="13" font-weight="bold" lengthAdjust="spacing" textLength="14" x="387" y="693.3447">10</text><text fill="#000000" font-family="sans-serif" font-size="13" lengthAdjust="spacing" textLength="92" x="405" y="693.3447">keepData(team)</text><polygon fill="#181818" points="64,738.8984,54,742.8984,64,746.8984,60,742.8984" style="stroke:#181818;stroke-width:1.0;"/><line style="stroke:#181818;stroke-width:1.0;stroke-dasharray:2.0,2.0;" x1="58" x2="374" y1="742.8984" y2="742.8984"/><text fill="#000000" font-family="sans-serif" font-size="13" font-weight="bold" lengthAdjust="spacing" textLength="14" x="70" y="737.6357">11</text><text fill="#000000" font-family="sans-serif" font-size="13" lengthAdjust="spacing" textLength="160" x="88" y="737.6357">Displays operation success</text><!--SRC=[XLHDRzim3BtxLn0v9G4IzD9B1WmOa6BhOH-eqrild4tRMcJ9DULa6VBZH_b3JHedrScMoKU-nqVpLfaAQooXjCOcHMrB0bSt577uKc6onPnYTz04DIKEJQvF0xZ0rEwLoI53pHH5JZa9VOxlxkvX0V617PKGqsj39Y5OAynzsZIErxCemiPPqvI_gPRdnDaQ9j-Ulay06HxAIji3KIHrd4fKXSR1PBKXB7_LjhAC-lcnZUngH2s2sg6Zjzm8v0nliFWyzBE2BxnbS1PoCbJx70H3Ut3aIVVuRNO07Sf0VtgeXQ262YjuyapPCQJe4AOb_WKqAPJATDYi_j6inKXf55fRMq5ZdD8W6ZUk0r8CEzHAdYczmMfpg8XbJcqFbBQvNVZnU0oTdvGmLjvCJZNilRuY29EMCODCM6iEAJULkAr8NDWzWrRim6OzRgi9zYFeArf3PuXNz1dEAF-uXHBuhWvaucbm1NNbVL6kA56P4fNyzOjvROItSWVVcokm9xwyIVnKJn9ChsVx4hrJ8VGrp8xNVY13VYWIGCADiLAkLddXBbIUpwVtC_ZnS_Emciz7liPq8lHeo5b4wnPLYraoMJylojaEVBfCVpI9Rj9UmKvdW_BhyFBwgm0uQBiy8-gfNLWzr1tsCVMMnoIXoZj-LDSLV1sMzwBj5xDNhe1SxSZ87Wcr4fso9lfeVpktlcibkDLBb5YJgG0txjJhlvsM4OFWrFIdzQhlVMXx6LtpswNP1WT6LtEkkN5BL7aZJZtDsGU2h1LN6W_ISkNL4DB0ZR1WliBzFm00]--></g></svg>