<?xml version="1.0" encoding="us-ascii" standalone="no"?><svg xmlns="http://www.w3.org/2000/svg" xmlns:xlink="http://www.w3.org/1999/xlink" contentStyleType="text/css" height="615px" preserveAspectRatio="none" style="width:678px;height:615px;background:#FFFFFF;" version="1.1" viewBox="0 0 678 615" width="678px" zoomAndPan="magnify"><defs/><g><text fill="#000000" font-family="sans-serif" font-size="14" font-weight="bold" lengthAdjust="spacing" textLength="284" x="199" y="30.1074">US007 - System Sequence Diagram (SSD)</text><rect fill="#FFFFFF" height="390.4922" style="stroke:#181818;stroke-width:1.0;" width="10" x="64" y="133.2422"/><rect fill="#FFFFFF" height="31.291" style="stroke:#181818;stroke-width:1.0;" width="10" x="474" y="156.5332"/><rect fill="#FFFFFF" height="31.291" style="stroke:#181818;stroke-width:1.0;" width="10" x="474" y="219.1152"/><rect fill="#FFFFFF" height="75.582" style="stroke:#181818;stroke-width:1.0;" width="10" x="474" y="307.9883"/><rect fill="#FFFFFF" height="92.873" style="stroke:#181818;stroke-width:1.0;" width="10" x="474" y="421.8613"/><rect fill="none" height="126.1641" style="stroke:#000000;stroke-width:1.5;" width="581" x="10" y="265.4063"/><line style="stroke:#181818;stroke-width:0.5;stroke-dasharray:5.0,5.0;" x1="69" x2="69" y1="123.2422" y2="532.7344"/><line style="stroke:#181818;stroke-width:0.5;stroke-dasharray:5.0,5.0;" x1="478.5" x2="478.5" y1="123.2422" y2="532.7344"/><text fill="#000000" font-family="sans-serif" font-size="14" lengthAdjust="spacing" textLength="92" x="20" y="119.7285">Fleet Manager</text><ellipse cx="69" cy="53.1211" fill="#E3E3E3" rx="8" ry="8" style="stroke:#181818;stroke-width:0.5;"/><path d="M69,61.1211 L69,88.1211 M56,69.1211 L82,69.1211 M69,88.1211 L56,103.1211 M69,88.1211 L82,103.1211 " fill="none" style="stroke:#181818;stroke-width:0.5;"/><text fill="#000000" font-family="sans-serif" font-size="14" lengthAdjust="spacing" textLength="92" x="20" y="546.8418">Fleet Manager</text><ellipse cx="69" cy="558.8555" fill="#E3E3E3" rx="8" ry="8" style="stroke:#181818;stroke-width:0.5;"/><path d="M69,566.8555 L69,593.8555 M56,574.8555 L82,574.8555 M69,593.8555 L56,608.8555 M69,593.8555 L82,608.8555 " fill="none" style="stroke:#181818;stroke-width:0.5;"/><rect fill="#E3E3E3" height="32.6211" rx="2.5" ry="2.5" style="stroke:#181818;stroke-width:0.5;" width="139" x="409.5" y="89.6211"/><text fill="#000000" font-family="sans-serif" font-size="14" lengthAdjust="spacing" textLength="125" x="416.5" y="111.7285">:RegisterCheckupUI</text><rect fill="#E3E3E3" height="32.6211" rx="2.5" ry="2.5" style="stroke:#181818;stroke-width:0.5;" width="139" x="409.5" y="531.7344"/><text fill="#000000" font-family="sans-serif" font-size="14" lengthAdjust="spacing" textLength="125" x="416.5" y="553.8418">:RegisterCheckupUI</text><rect fill="#FFFFFF" height="390.4922" style="stroke:#181818;stroke-width:1.0;" width="10" x="64" y="133.2422"/><rect fill="#FFFFFF" height="31.291" style="stroke:#181818;stroke-width:1.0;" width="10" x="474" y="156.5332"/><rect fill="#FFFFFF" height="31.291" style="stroke:#181818;stroke-width:1.0;" width="10" x="474" y="219.1152"/><rect fill="#FFFFFF" height="75.582" style="stroke:#181818;stroke-width:1.0;" width="10" x="474" y="307.9883"/><rect fill="#FFFFFF" height="92.873" style="stroke:#181818;stroke-width:1.0;" width="10" x="474" y="421.8613"/><polygon fill="#181818" points="462,152.5332,472,156.5332,462,160.5332,466,156.5332" style="stroke:#181818;stroke-width:1.0;"/><line style="stroke:#181818;stroke-width:1.0;" x1="74" x2="468" y1="156.5332" y2="156.5332"/><text fill="#000000" font-family="sans-serif" font-size="13" font-weight="bold" lengthAdjust="spacing" textLength="7" x="81" y="151.2705">1</text><text fill="#000000" font-family="sans-serif" font-size="13" lengthAdjust="spacing" textLength="239" x="92" y="151.2705">Asks to register a new vehicle's check-up</text><polygon fill="#181818" points="85,183.8242,75,187.8242,85,191.8242,81,187.8242" style="stroke:#181818;stroke-width:1.0;"/><line style="stroke:#181818;stroke-width:1.0;stroke-dasharray:2.0,2.0;" x1="79" x2="478" y1="187.8242" y2="187.8242"/><text fill="#000000" font-family="sans-serif" font-size="13" font-weight="bold" lengthAdjust="spacing" textLength="7" x="91" y="182.5615">2</text><text fill="#000000" font-family="sans-serif" font-size="13" lengthAdjust="spacing" textLength="282" x="102" y="182.5615">Shows the list of vehicles and asks to select one</text><polygon fill="#181818" points="462,215.1152,472,219.1152,462,223.1152,466,219.1152" style="stroke:#181818;stroke-width:1.0;"/><line style="stroke:#181818;stroke-width:1.0;" x1="74" x2="468" y1="219.1152" y2="219.1152"/><text fill="#000000" font-family="sans-serif" font-size="13" font-weight="bold" lengthAdjust="spacing" textLength="7" x="81" y="213.8525">3</text><text fill="#000000" font-family="sans-serif" font-size="13" lengthAdjust="spacing" textLength="98" x="92" y="213.8525">Selects a vehicle</text><polygon fill="#181818" points="85,246.4063,75,250.4063,85,254.4063,81,250.4063" style="stroke:#181818;stroke-width:1.0;"/><line style="stroke:#181818;stroke-width:1.0;stroke-dasharray:2.0,2.0;" x1="79" x2="478" y1="250.4063" y2="250.4063"/><text fill="#000000" font-family="sans-serif" font-size="13" font-weight="bold" lengthAdjust="spacing" textLength="7" x="91" y="245.1436">4</text><text fill="#000000" font-family="sans-serif" font-size="13" lengthAdjust="spacing" textLength="365" x="102" y="245.1436">Requests check-up data (Date of check-up, Current kilometers)</text><path d="M10,265.4063 L83,265.4063 L83,274.6973 L73,284.6973 L10,284.6973 L10,265.4063 " fill="#EEEEEE" style="stroke:#000000;stroke-width:1.5;"/><rect fill="none" height="126.1641" style="stroke:#000000;stroke-width:1.5;" width="581" x="10" y="265.4063"/><text fill="#000000" font-family="sans-serif" font-size="13" font-weight="bold" lengthAdjust="spacing" textLength="28" x="25" y="280.4346">loop</text><text fill="#000000" font-family="sans-serif" font-size="11" font-weight="bold" lengthAdjust="spacing" textLength="123" x="98" y="279.2764">[until data is validated]</text><polygon fill="#181818" points="462,303.9883,472,307.9883,462,311.9883,466,307.9883" style="stroke:#181818;stroke-width:1.0;"/><line style="stroke:#181818;stroke-width:1.0;" x1="74" x2="468" y1="307.9883" y2="307.9883"/><text fill="#000000" font-family="sans-serif" font-size="13" font-weight="bold" lengthAdjust="spacing" textLength="7" x="81" y="302.7256">5</text><text fill="#000000" font-family="sans-serif" font-size="13" lengthAdjust="spacing" textLength="125" x="92" y="302.7256">Types requested data</text><line style="stroke:#181818;stroke-width:1.0;stroke-dasharray:2.0,2.0;" x1="484" x2="526" y1="339.2793" y2="339.2793"/><line style="stroke:#181818;stroke-width:1.0;stroke-dasharray:2.0,2.0;" x1="526" x2="526" y1="339.2793" y2="352.2793"/><line style="stroke:#181818;stroke-width:1.0;stroke-dasharray:2.0,2.0;" x1="485" x2="526" y1="352.2793" y2="352.2793"/><polygon fill="#181818" points="495,348.2793,485,352.2793,495,356.2793,491,352.2793" style="stroke:#181818;stroke-width:1.0;"/><text fill="#000000" font-family="sans-serif" font-size="13" font-weight="bold" lengthAdjust="spacing" textLength="7" x="491" y="334.0166">6</text><text fill="#000000" font-family="sans-serif" font-size="13" lengthAdjust="spacing" textLength="77" x="502" y="334.0166">validatesData</text><polygon fill="#181818" points="85,379.5703,75,383.5703,85,387.5703,81,383.5703" style="stroke:#181818;stroke-width:1.0;"/><line style="stroke:#181818;stroke-width:1.0;stroke-dasharray:2.0,2.0;" x1="79" x2="478" y1="383.5703" y2="383.5703"/><text fill="#000000" font-family="sans-serif" font-size="13" font-weight="bold" lengthAdjust="spacing" textLength="7" x="91" y="378.3076">7</text><text fill="#000000" font-family="sans-serif" font-size="13" lengthAdjust="spacing" textLength="238" x="102" y="378.3076">Shows all data and requests confirmation</text><polygon fill="#181818" points="462,417.8613,472,421.8613,462,425.8613,466,421.8613" style="stroke:#181818;stroke-width:1.0;"/><line style="stroke:#181818;stroke-width:1.0;" x1="74" x2="468" y1="421.8613" y2="421.8613"/><text fill="#000000" font-family="sans-serif" font-size="13" font-weight="bold" lengthAdjust="spacing" textLength="7" x="81" y="416.5986">8</text><text fill="#000000" font-family="sans-serif" font-size="13" lengthAdjust="spacing" textLength="80" x="92" y="416.5986">Confirms data</text><line style="stroke:#181818;stroke-width:1.0;stroke-dasharray:2.0,2.0;" x1="484" x2="526" y1="470.4434" y2="470.4434"/><line style="stroke:#181818;stroke-width:1.0;stroke-dasharray:2.0,2.0;" x1="526" x2="526" y1="470.4434" y2="483.4434"/><line style="stroke:#181818;stroke-width:1.0;stroke-dasharray:2.0,2.0;" x1="485" x2="526" y1="483.4434" y2="483.4434"/><polygon fill="#181818" points="495,479.4434,485,483.4434,495,487.4434,491,483.4434" style="stroke:#181818;stroke-width:1.0;"/><text fill="#000000" font-family="sans-serif" font-size="13" font-weight="bold" lengthAdjust="spacing" textLength="7" x="491" y="456.5352">9</text><text fill="#000000" font-family="sans-serif" font-size="13" lengthAdjust="spacing" textLength="145" x="502" y="447.8896">keepData(vehicle, date of</text><text fill="#000000" font-family="sans-serif" font-size="13" lengthAdjust="spacing" textLength="169" x="502" y="465.1807">check-up, current kilometers)</text><polygon fill="#181818" points="85,510.7344,75,514.7344,85,518.7344,81,514.7344" style="stroke:#181818;stroke-width:1.0;"/><line style="stroke:#181818;stroke-width:1.0;stroke-dasharray:2.0,2.0;" x1="79" x2="478" y1="514.7344" y2="514.7344"/><text fill="#000000" font-family="sans-serif" font-size="13" font-weight="bold" lengthAdjust="spacing" textLength="14" x="91" y="509.4717">10</text><text fill="#000000" font-family="sans-serif" font-size="13" lengthAdjust="spacing" textLength="160" x="109" y="509.4717">Displays operation success</text><!--SRC=[dP8nRzim48Lt_Og3bpX036GhuA50OQL0XonHidMvKcU944MoFCg6_dsEb2Ldi18W70IAudtltZrnfwt7W3tqpZhL1jSJn31GmSiNZwh3Xgeu6e90Ag9jpCSBt6BjpjesS4J3L1HHHxdwLZq-_e0TL2D7wg6Y_mDPHL1gR5BPjghA-wB08JexzFyeo5v55s3psn15U4Ohic43oF3KU-D6ea8KerRQeusmsRzGemKU3YsfRl1lV_BbIJ3Jz0aZNQiBa3M_mUxdtDiUVd7749tucuY0OEaC9sgrCdJ7e9B4Rl0PiP1dARYi2sydw4Lc3rNhpa9l2Op0mHrdBWFQMbgUj9cCJ1USfSohwQRCpVQhN2gucVoTDbzIGXolNg76YB0j4qAQdeyVu324G990futyC38klbzfEPqQvpmCDcep0JN32OsMFTNhbbv7B_C9KqzKvzARhcwOMY2p3fTpzLSfeRbqcP89oqISFUhGOzJEVk8qFqWAa-LFuZfCEFwUgOx89p_RIzOF2PCJ-ckl6QcLZDO7K6hs1aS6vobagy23KiIyOlaT]--></g></svg>