<?xml version="1.0" encoding="us-ascii" standalone="no"?><svg xmlns="http://www.w3.org/2000/svg" xmlns:xlink="http://www.w3.org/1999/xlink" contentStyleType="text/css" height="768px" preserveAspectRatio="none" style="width:634px;height:768px;background:#FFFFFF;" version="1.1" viewBox="0 0 634 768" width="634px" zoomAndPan="magnify"><defs/><g><text fill="#000000" font-family="sans-serif" font-size="14" font-weight="bold" lengthAdjust="spacing" textLength="127" x="246.5" y="25.1074">Use Case Diagram</text><!--cluster actors--><g id="cluster_actors"><rect fill="none" height="247" rx="2.5" ry="2.5" style="stroke:#181818;stroke-width:1.0;" width="115" x="7" y="325.6211"/><text fill="#000000" font-family="sans-serif" font-size="14" font-weight="bold" lengthAdjust="spacing" textLength="99" x="15" y="342.7285">System Actors</text></g><!--cluster usecases--><g id="cluster_usecases"><rect fill="none" height="716" rx="2.5" ry="2.5" style="stroke:#181818;stroke-width:1.0;" width="356" x="272" y="46.6211"/><text fill="#000000" font-family="sans-serif" font-size="14" font-weight="bold" lengthAdjust="spacing" textLength="74" x="413" y="63.7285">Use Cases</text></g><!--entity HRM--><g id="elem_HRM"><ellipse cx="64" cy="371.6211" fill="#F1F1F1" rx="8" ry="8" style="stroke:#181818;stroke-width:0.5;"/><path d="M64,379.6211 L64,406.6211 M51,387.6211 L77,387.6211 M64,406.6211 L51,421.6211 M64,406.6211 L77,421.6211 " fill="none" style="stroke:#181818;stroke-width:0.5;"/><text fill="#000000" font-family="sans-serif" font-size="14" lengthAdjust="spacing" textLength="30" x="49" y="438.2285">HRM</text></g><!--entity FM--><g id="elem_FM"><ellipse cx="64" cy="485.6211" fill="#F1F1F1" rx="8" ry="8" style="stroke:#181818;stroke-width:0.5;"/><path d="M64,493.6211 L64,520.6211 M51,501.6211 L77,501.6211 M64,520.6211 L51,535.6211 M64,520.6211 L77,535.6211 " fill="none" style="stroke:#181818;stroke-width:0.5;"/><text fill="#000000" font-family="sans-serif" font-size="14" lengthAdjust="spacing" textLength="20" x="54" y="552.2285">FM</text></g><g id="elem_UC1"><ellipse cx="450.1522" cy="385.8515" fill="#F1F1F1" rx="89.1522" ry="20.2304" style="stroke:#181818;stroke-width:0.5;"/><text fill="#000000" font-family="sans-serif" font-size="14" lengthAdjust="spacing" textLength="132" x="381.1522" y="390.6553">UC1 - Register a skill</text></g><g id="elem_UC2"><ellipse cx="450.0589" cy="460.5329" fill="#F1F1F1" rx="87.5589" ry="19.9118" style="stroke:#181818;stroke-width:0.5;"/><text fill="#000000" font-family="sans-serif" font-size="14" lengthAdjust="spacing" textLength="128" x="383.0589" y="465.3366">UC2 - Register a job</text></g><g id="elem_UC3"><ellipse cx="449.995" cy="108.8201" fill="#F1F1F1" rx="111.495" ry="24.699" style="stroke:#181818;stroke-width:0.5;"/><text fill="#000000" font-family="sans-serif" font-size="14" lengthAdjust="spacing" textLength="184" x="357.995" y="112.617">UC3 - Register a collaborator</text></g><g id="elem_UC4"><ellipse cx="449.8859" cy="196.3983" fill="#F1F1F1" rx="129.3859" ry="28.2772" style="stroke:#181818;stroke-width:0.5;"/><text fill="#000000" font-family="sans-serif" font-size="14" lengthAdjust="spacing" textLength="223" x="338.3859" y="200.1952">UC4 - Assign skills to a collaborator</text></g><g id="elem_UC5"><ellipse cx="449.969" cy="295.4149" fill="#F1F1F1" rx="161.969" ry="34.7938" style="stroke:#181818;stroke-width:0.5;"/><text fill="#000000" font-family="sans-serif" font-size="14" lengthAdjust="spacing" textLength="292" x="303.969" y="299.2118">UC5 - Generate a team purposal automatically</text></g><g id="elem_UC6"><ellipse cx="450.1507" cy="537.7512" fill="#F1F1F1" rx="98.6507" ry="22.1301" style="stroke:#181818;stroke-width:0.5;"/><text fill="#000000" font-family="sans-serif" font-size="14" lengthAdjust="spacing" textLength="155" x="371.138" y="542.0908">UC6 - Register a Vehicle</text></g><g id="elem_UC7"><ellipse cx="449.8162" cy="717.5843" fill="#F1F1F1" rx="130.3162" ry="28.4632" style="stroke:#181818;stroke-width:0.5;"/><text fill="#000000" font-family="sans-serif" font-size="14" lengthAdjust="spacing" textLength="225" x="337.3162" y="721.3812">UC7 - Register a vehicle&#8217;s check-up</text></g><g id="elem_UC8"><ellipse cx="450.0149" cy="624.4241" fill="#F1F1F1" rx="134.5149" ry="29.303" style="stroke:#181818;stroke-width:0.5;"/><text fill="#000000" font-family="sans-serif" font-size="14" lengthAdjust="spacing" textLength="234" x="333.0149" y="628.2209">UC8 - List vehicles needing check-up</text></g><!--link HRM to UC1--><g id="link_HRM_UC1"><path d="M79.12,401.9911 C124.32,399.9911 267.95,393.6411 362.36,389.4611 " fill="none" id="HRM-UC1" style="stroke:#181818;stroke-width:1.0;"/></g><!--link HRM to UC2--><g id="link_HRM_UC2"><path d="M79.12,404.7511 C126.62,411.9311 282.82,435.5211 376.37,449.6511 " fill="none" id="HRM-UC2" style="stroke:#181818;stroke-width:1.0;"/></g><!--link HRM to UC3--><g id="link_HRM_UC3"><path d="M79.12,373.9511 C106.8,320.9211 173.48,207.7311 264,150.6211 C289.07,134.8011 319.38,124.9211 348.14,118.7511 " fill="none" id="HRM-UC3" style="stroke:#181818;stroke-width:1.0;"/></g><!--link HRM to UC4--><g id="link_HRM_UC4"><path d="M79.37,387.2311 C110.09,355.2611 185.76,281.4311 264,242.6211 C289.5,229.9711 318.74,220.6311 346.34,213.8011 " fill="none" id="HRM-UC4" style="stroke:#181818;stroke-width:1.0;"/></g><!--link HRM to UC5--><g id="link_HRM_UC5"><path d="M79.02,398.3411 C98.5,392.4311 134.86,381.4811 166,372.6211 C225.87,355.5911 293.1,337.2611 347,322.7611 " fill="none" id="HRM-UC5" style="stroke:#181818;stroke-width:1.0;"/></g><!--link FM to UC6--><g id="link_FM_UC6"><path d="M77.78,517.3211 C120.14,519.6411 258.67,527.2111 353.98,532.4211 " fill="none" id="FM-UC6" style="stroke:#181818;stroke-width:1.0;"/></g><!--link FM to UC7--><g id="link_FM_UC7"><path d="M77.65,529.6811 C107.31,559.5211 184.85,633.1211 264,671.6211 C289.6,684.0711 318.87,693.3511 346.47,700.1811 " fill="none" id="FM-UC7" style="stroke:#181818;stroke-width:1.0;"/></g><!--link FM to UC8--><g id="link_FM_UC8"><path d="M77.52,520.5811 C108.84,530.4511 193.12,556.7511 264,576.6211 C295.47,585.4411 330.11,594.5811 360.82,602.4911 " fill="none" id="FM-UC8" style="stroke:#181818;stroke-width:1.0;"/></g><!--link UC3 to UC1--><g id="link_UC3_UC1"><path d="M351.77,120.3811 C322.33,126.6011 290.78,136.1111 264,150.6211 C254.19,155.9411 250.34,157.8411 246,168.1211 C231.99,201.2811 231.99,296.9611 246,330.1211 C264.53,373.9911 310.6907,387.2937 357.6207,390.0937 " fill="none" id="UC3-to-UC1" style="stroke:#181818;stroke-width:1.0;stroke-dasharray:7.0,7.0;"/><polygon fill="#181818" points="363.61,390.4511,354.8642,385.9222,358.6189,390.1533,354.3877,393.908,363.61,390.4511" style="stroke:#181818;stroke-width:1.0;"/></g><!--link UC3 to UC2--><g id="link_UC3_UC2"><path d="M338.46,108.7211 C299.34,115.4711 261.33,131.8411 246,168.1211 C225.5,216.6311 225.5,356.6111 246,405.1211 C264.71,449.4111 311.6992,462.5791 358.9792,465.1991 " fill="none" id="UC3-to-UC2" style="stroke:#181818;stroke-width:1.0;stroke-dasharray:7.0,7.0;"/><polygon fill="#181818" points="364.97,465.5311,356.2051,461.0393,359.9777,465.2544,355.7625,469.027,364.97,465.5311" style="stroke:#181818;stroke-width:1.0;"/></g><!--link UC4 to UC1--><g id="link_UC4_UC1"><path d="M343.05,212.8911 C316.18,219.6711 288.14,229.2211 264,242.6211 C229.29,261.8911 230.55,293.5511 246,330.1211 C264.53,373.9911 310.6907,387.2937 357.6207,390.0937 " fill="none" id="UC4-to-UC1" style="stroke:#181818;stroke-width:1.0;stroke-dasharray:7.0,7.0;"/><polygon fill="#181818" points="363.61,390.4511,354.8642,385.9222,358.6189,390.1533,354.3877,393.908,363.61,390.4511" style="stroke:#181818;stroke-width:1.0;"/></g><!--link UC4 to UC3--><g id="link_UC4_UC3"><path d="M450,168.0911 C450,156.4711 450,150.8611 450,139.2411 " fill="none" id="UC4-to-UC3" style="stroke:#181818;stroke-width:1.0;stroke-dasharray:7.0,7.0;"/><polygon fill="#181818" points="450,133.2411,446,142.2411,450,138.2411,454,142.2411,450,133.2411" style="stroke:#181818;stroke-width:1.0;"/></g><!--link UC7 to UC6--><g id="link_UC7_UC6"><path d="M342.56,701.2311 C315.84,694.4611 287.99,684.9411 264,671.6211 C233.46,654.6611 232.41,627.2911 246,595.1211 C263.08,554.7011 302.5452,540.1099 346.2152,535.3599 " fill="none" id="UC7-to-UC6" style="stroke:#181818;stroke-width:1.0;stroke-dasharray:7.0,7.0;"/><polygon fill="#181818" points="352.18,534.7111,342.8002,531.7077,347.2093,535.2518,343.6653,539.6608,352.18,534.7111" style="stroke:#181818;stroke-width:1.0;"/></g><!--link UC8 to UC6--><g id="link_UC8_UC6"><path d="M450,595.0511 C450,583.3911 450,577.7211 450,566.0511 " fill="none" id="UC8-to-UC6" style="stroke:#181818;stroke-width:1.0;stroke-dasharray:7.0,7.0;"/><polygon fill="#181818" points="450,560.0511,446,569.0511,450,565.0511,454,569.0511,450,560.0511" style="stroke:#181818;stroke-width:1.0;"/></g><!--link UC8 to UC7--><g id="link_UC8_UC7"><path d="M450,654.2611 C450,665.8111 450,671.3711 450,682.9211 " fill="none" id="UC8-to-UC7" style="stroke:#181818;stroke-width:1.0;stroke-dasharray:7.0,7.0;"/><polygon fill="#181818" points="450,688.9211,454,679.9211,450,683.9211,446,679.9211,450,688.9211" style="stroke:#181818;stroke-width:1.0;"/></g><!--SRC=[RP9DJiCm44RtFiMecww2H7-Ihf0GgB20JH7if-wGc3fsP3kW2Y5n3Qx7IPWaRjf4P17bnT-RSJoP-hqo5JeieRJ6oiBPaY2uciHffKAvnvoUma4JE981JQv9J4y9N-3EVYYJmojgV-vgPIWSAW9PRvKK8gZ0HPuzmGtoxLPXpZ4XDBq621QSoei0EzMqKTO8qVU3oTF11ohXMWRh_0JG0xQFy2a4yDKIJEutZvDpNZD-2J4eTTn0LwRs91luRBL87BgvX0Gsb2lkwm21Fqlhrk2bSNOspBxPRKpEnidvC2cjrhYr3dctKPcFbGKhrzwht7IRyCrP_QiknkgIrJion25Y9L0pqTfLrgC6h8CjCIY9MXzYXUMuGZhSxmiLIcgAwNISpeRfzoxz-_tZGHOazqbTHJKRgojM7rWyIXuCqQxvhKRcgXiuJvgDuooED3jHalI7sN5_G3rsNxkEb0ueEr7BtBPzqupmugfltECiucAu6d4UCUimZRZw5pDknJ_j7m00]--></g></svg>