<?xml version="1.0" encoding="us-ascii" standalone="no"?><svg xmlns="http://www.w3.org/2000/svg" xmlns:xlink="http://www.w3.org/1999/xlink" contentStyleType="text/css" height="1063px" preserveAspectRatio="none" style="width:1184px;height:1063px;background:#FFFFFF;" version="1.1" viewBox="0 0 1184 1063" width="1184px" zoomAndPan="magnify"><defs/><g><text fill="#000000" font-family="sans-serif" font-size="14" font-weight="bold" lengthAdjust="spacing" textLength="188" x="497.75" y="30.1074">US002 - Sequence Diagram</text><rect fill="#FFFFFF" height="838.0234" style="stroke:#181818;stroke-width:1.0;" width="10" x="33" y="133.2422"/><rect fill="#FFFFFF" height="57.582" style="stroke:#181818;stroke-width:1.0;" width="10" x="335" y="156.5332"/><rect fill="#FFFFFF" height="132.582" style="stroke:#181818;stroke-width:1.0;" width="10" x="335" y="245.4063"/><rect fill="#FFFFFF" height="552.9863" style="stroke:#181818;stroke-width:1.0;" width="10" x="335" y="409.2793"/><rect fill="#FFFFFF" height="490.4043" style="stroke:#181818;stroke-width:1.0;" width="10" x="497" y="440.5703"/><rect fill="#FFFFFF" height="31.291" style="stroke:#181818;stroke-width:1.0;" width="10" x="633" y="471.8613"/><rect fill="#FFFFFF" height="31.291" style="stroke:#181818;stroke-width:1.0;" width="10" x="740" y="534.4434"/><rect fill="#FFFFFF" height="302.6582" style="stroke:#181818;stroke-width:1.0;" width="10" x="852.5" y="597.0254"/><rect fill="none" height="106.873" style="stroke:#000000;stroke-width:1.5;" width="392.5" x="10" y="171.5332"/><line style="stroke:#181818;stroke-width:0.5;stroke-dasharray:5.0,5.0;" x1="38" x2="38" y1="123.2422" y2="980.2656"/><line style="stroke:#181818;stroke-width:0.5;stroke-dasharray:5.0,5.0;" x1="339.5" x2="339.5" y1="123.2422" y2="980.2656"/><line style="stroke:#181818;stroke-width:0.5;stroke-dasharray:5.0,5.0;" x1="501.5" x2="501.5" y1="123.2422" y2="980.2656"/><line style="stroke:#181818;stroke-width:0.5;stroke-dasharray:5.0,5.0;" x1="637.5" x2="637.5" y1="123.2422" y2="980.2656"/><line style="stroke:#181818;stroke-width:0.5;stroke-dasharray:5.0,5.0;" x1="744.5" x2="744.5" y1="123.2422" y2="980.2656"/><line style="stroke:#181818;stroke-width:0.5;stroke-dasharray:5.0,5.0;" x1="857.5" x2="857.5" y1="123.2422" y2="980.2656"/><line style="stroke:#181818;stroke-width:0.5;stroke-dasharray:5.0,5.0;" x1="1030.5" x2="1030.5" y1="636.8359" y2="980.2656"/><text fill="#000000" font-family="sans-serif" font-size="14" lengthAdjust="spacing" textLength="30" x="20" y="119.7285">HRM</text><ellipse cx="38" cy="53.1211" fill="#E3E3E3" rx="8" ry="8" style="stroke:#181818;stroke-width:0.5;"/><path d="M38,61.1211 L38,88.1211 M25,69.1211 L51,69.1211 M38,88.1211 L25,103.1211 M38,88.1211 L51,103.1211 " fill="none" style="stroke:#181818;stroke-width:0.5;"/><text fill="#000000" font-family="sans-serif" font-size="14" lengthAdjust="spacing" textLength="30" x="20" y="994.373">HRM</text><ellipse cx="38" cy="1006.3867" fill="#E3E3E3" rx="8" ry="8" style="stroke:#181818;stroke-width:0.5;"/><path d="M38,1014.3867 L38,1041.3867 M25,1022.3867 L51,1022.3867 M38,1041.3867 L25,1056.3867 M38,1041.3867 L51,1056.3867 " fill="none" style="stroke:#181818;stroke-width:0.5;"/><rect fill="#E3E3E3" height="32.6211" rx="2.5" ry="2.5" style="stroke:#181818;stroke-width:0.5;" width="105" x="287.5" y="89.6211"/><text fill="#000000" font-family="sans-serif" font-size="14" lengthAdjust="spacing" textLength="91" x="294.5" y="111.7285">:RegisterJobUI</text><rect fill="#E3E3E3" height="32.6211" rx="2.5" ry="2.5" style="stroke:#181818;stroke-width:0.5;" width="105" x="287.5" y="979.2656"/><text fill="#000000" font-family="sans-serif" font-size="14" lengthAdjust="spacing" textLength="91" x="294.5" y="1001.373">:RegisterJobUI</text><rect fill="#E3E3E3" height="32.6211" rx="2.5" ry="2.5" style="stroke:#181818;stroke-width:0.5;" width="155" x="424.5" y="89.6211"/><text fill="#000000" font-family="sans-serif" font-size="14" lengthAdjust="spacing" textLength="141" x="431.5" y="111.7285">:RegisterJobController</text><rect fill="#E3E3E3" height="32.6211" rx="2.5" ry="2.5" style="stroke:#181818;stroke-width:0.5;" width="155" x="424.5" y="979.2656"/><text fill="#000000" font-family="sans-serif" font-size="14" lengthAdjust="spacing" textLength="141" x="431.5" y="1001.373">:RegisterJobController</text><rect fill="#E3E3E3" height="32.6211" rx="2.5" ry="2.5" style="stroke:#181818;stroke-width:0.5;" width="97" x="589.5" y="89.6211"/><text fill="#000000" font-family="sans-serif" font-size="14" lengthAdjust="spacing" textLength="83" x="596.5" y="111.7285">:Repositories</text><rect fill="#E3E3E3" height="32.6211" rx="2.5" ry="2.5" style="stroke:#181818;stroke-width:0.5;" width="97" x="589.5" y="979.2656"/><text fill="#000000" font-family="sans-serif" font-size="14" lengthAdjust="spacing" textLength="83" x="596.5" y="1001.373">:Repositories</text><rect fill="#E3E3E3" height="51.2422" rx="2.5" ry="2.5" style="stroke:#181818;stroke-width:0.5;" width="97" x="696.5" y="71"/><text fill="#000000" font-family="sans-serif" font-size="14" lengthAdjust="spacing" textLength="74" x="708" y="93.1074">repositories</text><text fill="#000000" font-family="sans-serif" font-size="14" lengthAdjust="spacing" textLength="83" x="703.5" y="111.7285">:Repositories</text><rect fill="#E3E3E3" height="51.2422" rx="2.5" ry="2.5" style="stroke:#181818;stroke-width:0.5;" width="97" x="696.5" y="979.2656"/><text fill="#000000" font-family="sans-serif" font-size="14" lengthAdjust="spacing" textLength="74" x="708" y="1001.373">repositories</text><text fill="#000000" font-family="sans-serif" font-size="14" lengthAdjust="spacing" textLength="83" x="703.5" y="1019.9941">:Repositories</text><rect fill="#E3E3E3" height="51.2422" rx="2.5" ry="2.5" style="stroke:#181818;stroke-width:0.5;" width="108" x="803.5" y="71"/><text fill="#000000" font-family="sans-serif" font-size="14" lengthAdjust="spacing" textLength="87" x="814" y="93.1074">jobRepository</text><text fill="#000000" font-family="sans-serif" font-size="14" lengthAdjust="spacing" textLength="94" x="810.5" y="111.7285">:JobRepository</text><rect fill="#E3E3E3" height="51.2422" rx="2.5" ry="2.5" style="stroke:#181818;stroke-width:0.5;" width="108" x="803.5" y="979.2656"/><text fill="#000000" font-family="sans-serif" font-size="14" lengthAdjust="spacing" textLength="87" x="814" y="1001.373">jobRepository</text><text fill="#000000" font-family="sans-serif" font-size="14" lengthAdjust="spacing" textLength="94" x="810.5" y="1019.9941">:JobRepository</text><rect fill="#E3E3E3" height="32.6211" rx="2.5" ry="2.5" style="stroke:#181818;stroke-width:0.5;" width="40" x="1010.5" y="979.2656"/><text fill="#000000" font-family="sans-serif" font-size="14" lengthAdjust="spacing" textLength="26" x="1017.5" y="1001.373">:Job</text><rect fill="#FFFFFF" height="838.0234" style="stroke:#181818;stroke-width:1.0;" width="10" x="33" y="133.2422"/><rect fill="#FFFFFF" height="57.582" style="stroke:#181818;stroke-width:1.0;" width="10" x="335" y="156.5332"/><rect fill="#FFFFFF" height="132.582" style="stroke:#181818;stroke-width:1.0;" width="10" x="335" y="245.4063"/><rect fill="#FFFFFF" height="552.9863" style="stroke:#181818;stroke-width:1.0;" width="10" x="335" y="409.2793"/><rect fill="#FFFFFF" height="490.4043" style="stroke:#181818;stroke-width:1.0;" width="10" x="497" y="440.5703"/><rect fill="#FFFFFF" height="31.291" style="stroke:#181818;stroke-width:1.0;" width="10" x="633" y="471.8613"/><rect fill="#FFFFFF" height="31.291" style="stroke:#181818;stroke-width:1.0;" width="10" x="740" y="534.4434"/><rect fill="#FFFFFF" height="302.6582" style="stroke:#181818;stroke-width:1.0;" width="10" x="852.5" y="597.0254"/><polygon fill="#181818" points="323,152.5332,333,156.5332,323,160.5332,327,156.5332" style="stroke:#181818;stroke-width:1.0;"/><line style="stroke:#181818;stroke-width:1.0;" x1="43" x2="329" y1="156.5332" y2="156.5332"/><text fill="#000000" font-family="sans-serif" font-size="13" font-weight="bold" lengthAdjust="spacing" textLength="7" x="50" y="151.2705">1</text><text fill="#000000" font-family="sans-serif" font-size="13" lengthAdjust="spacing" textLength="151" x="61" y="151.2705">Asks to register a new job</text><path d="M10,171.5332 L83,171.5332 L83,180.8242 L73,190.8242 L10,190.8242 L10,171.5332 " fill="#EEEEEE" style="stroke:#000000;stroke-width:1.5;"/><rect fill="none" height="106.873" style="stroke:#000000;stroke-width:1.5;" width="392.5" x="10" y="171.5332"/><text fill="#000000" font-family="sans-serif" font-size="13" font-weight="bold" lengthAdjust="spacing" textLength="28" x="25" y="186.5615">loop</text><text fill="#000000" font-family="sans-serif" font-size="11" font-weight="bold" lengthAdjust="spacing" textLength="157" x="98" y="185.4033">[until typed data is validated]</text><polygon fill="#181818" points="54,210.1152,44,214.1152,54,218.1152,50,214.1152" style="stroke:#181818;stroke-width:1.0;"/><line style="stroke:#181818;stroke-width:1.0;stroke-dasharray:2.0,2.0;" x1="48" x2="339" y1="214.1152" y2="214.1152"/><text fill="#000000" font-family="sans-serif" font-size="13" font-weight="bold" lengthAdjust="spacing" textLength="7" x="60" y="208.8525">2</text><text fill="#000000" font-family="sans-serif" font-size="13" lengthAdjust="spacing" textLength="149" x="71" y="208.8525">Requests data (job name)</text><polygon fill="#181818" points="323,241.4063,333,245.4063,323,249.4063,327,245.4063" style="stroke:#181818;stroke-width:1.0;"/><line style="stroke:#181818;stroke-width:1.0;" x1="43" x2="329" y1="245.4063" y2="245.4063"/><text fill="#000000" font-family="sans-serif" font-size="13" font-weight="bold" lengthAdjust="spacing" textLength="7" x="50" y="240.1436">3</text><text fill="#000000" font-family="sans-serif" font-size="13" lengthAdjust="spacing" textLength="125" x="61" y="240.1436">Types requested data</text><line style="stroke:#181818;stroke-width:1.0;stroke-dasharray:2.0,2.0;" x1="345" x2="387" y1="308.6973" y2="308.6973"/><line style="stroke:#181818;stroke-width:1.0;stroke-dasharray:2.0,2.0;" x1="387" x2="387" y1="308.6973" y2="321.6973"/><line style="stroke:#181818;stroke-width:1.0;stroke-dasharray:2.0,2.0;" x1="346" x2="387" y1="321.6973" y2="321.6973"/><polygon fill="#181818" points="356,317.6973,346,321.6973,356,325.6973,352,321.6973" style="stroke:#181818;stroke-width:1.0;"/><text fill="#000000" font-family="sans-serif" font-size="13" font-weight="bold" lengthAdjust="spacing" textLength="7" x="352" y="303.4346">4</text><text fill="#000000" font-family="sans-serif" font-size="13" lengthAdjust="spacing" textLength="114" x="363" y="303.4346">keepData(jobName)</text><polygon fill="#181818" points="54,373.9883,44,377.9883,54,381.9883,50,377.9883" style="stroke:#181818;stroke-width:1.0;"/><line style="stroke:#181818;stroke-width:1.0;stroke-dasharray:2.0,2.0;" x1="48" x2="339" y1="377.9883" y2="377.9883"/><text fill="#000000" font-family="sans-serif" font-size="13" font-weight="bold" lengthAdjust="spacing" textLength="7" x="60" y="372.7256">5</text><text fill="#000000" font-family="sans-serif" font-size="13" lengthAdjust="spacing" textLength="257" x="71" y="372.7256">Shows typed data and requests confirmation</text><polygon fill="#181818" points="323,405.2793,333,409.2793,323,413.2793,327,409.2793" style="stroke:#181818;stroke-width:1.0;"/><line style="stroke:#181818;stroke-width:1.0;" x1="43" x2="329" y1="409.2793" y2="409.2793"/><text fill="#000000" font-family="sans-serif" font-size="13" font-weight="bold" lengthAdjust="spacing" textLength="7" x="50" y="404.0166">6</text><text fill="#000000" font-family="sans-serif" font-size="13" lengthAdjust="spacing" textLength="155" x="61" y="404.0166">Confirms data and submits</text><polygon fill="#181818" points="485,436.5703,495,440.5703,485,444.5703,489,440.5703" style="stroke:#181818;stroke-width:1.0;"/><line style="stroke:#181818;stroke-width:1.0;" x1="345" x2="491" y1="440.5703" y2="440.5703"/><text fill="#000000" font-family="sans-serif" font-size="13" font-weight="bold" lengthAdjust="spacing" textLength="7" x="352" y="435.3076">7</text><text fill="#000000" font-family="sans-serif" font-size="13" lengthAdjust="spacing" textLength="122" x="363" y="435.3076">registerJob(jobName)</text><polygon fill="#181818" points="621,467.8613,631,471.8613,621,475.8613,625,471.8613" style="stroke:#181818;stroke-width:1.0;"/><line style="stroke:#181818;stroke-width:1.0;" x1="507" x2="627" y1="471.8613" y2="471.8613"/><text fill="#000000" font-family="sans-serif" font-size="13" font-weight="bold" lengthAdjust="spacing" textLength="7" x="514" y="466.5986">8</text><text fill="#000000" font-family="sans-serif" font-size="13" lengthAdjust="spacing" textLength="75" x="525" y="466.5986">getInstance()</text><polygon fill="#181818" points="518,499.1523,508,503.1523,518,507.1523,514,503.1523" style="stroke:#181818;stroke-width:1.0;"/><line style="stroke:#181818;stroke-width:1.0;stroke-dasharray:2.0,2.0;" x1="512" x2="637" y1="503.1523" y2="503.1523"/><text fill="#000000" font-family="sans-serif" font-size="13" font-weight="bold" lengthAdjust="spacing" textLength="7" x="524" y="497.8896">9</text><text fill="#000000" font-family="sans-serif" font-size="13" lengthAdjust="spacing" textLength="67" x="535" y="497.8896">repositories</text><polygon fill="#181818" points="728,530.4434,738,534.4434,728,538.4434,732,534.4434" style="stroke:#181818;stroke-width:1.0;"/><line style="stroke:#181818;stroke-width:1.0;" x1="507" x2="734" y1="534.4434" y2="534.4434"/><text fill="#000000" font-family="sans-serif" font-size="13" font-weight="bold" lengthAdjust="spacing" textLength="14" x="514" y="529.1807">10</text><text fill="#000000" font-family="sans-serif" font-size="13" lengthAdjust="spacing" textLength="108" x="532" y="529.1807">getJobRepository()</text><polygon fill="#181818" points="518,561.7344,508,565.7344,518,569.7344,514,565.7344" style="stroke:#181818;stroke-width:1.0;"/><line style="stroke:#181818;stroke-width:1.0;stroke-dasharray:2.0,2.0;" x1="512" x2="744" y1="565.7344" y2="565.7344"/><text fill="#000000" font-family="sans-serif" font-size="13" font-weight="bold" lengthAdjust="spacing" textLength="14" x="524" y="560.4717">11</text><text fill="#000000" font-family="sans-serif" font-size="13" lengthAdjust="spacing" textLength="79" x="542" y="560.4717">jobRepository</text><polygon fill="#181818" points="840.5,593.0254,850.5,597.0254,840.5,601.0254,844.5,597.0254" style="stroke:#181818;stroke-width:1.0;"/><line style="stroke:#181818;stroke-width:1.0;" x1="507" x2="846.5" y1="597.0254" y2="597.0254"/><text fill="#000000" font-family="sans-serif" font-size="13" font-weight="bold" lengthAdjust="spacing" textLength="14" x="514" y="591.7627">12</text><text fill="#000000" font-family="sans-serif" font-size="13" lengthAdjust="spacing" textLength="122" x="532" y="591.7627">registerJob(jobName)</text><polygon fill="#181818" points="998.5,624.3164,1008.5,628.3164,998.5,632.3164,1002.5,628.3164" style="stroke:#181818;stroke-width:1.0;"/><line style="stroke:#181818;stroke-width:1.0;" x1="862.5" x2="1004.5" y1="628.3164" y2="628.3164"/><text fill="#000000" font-family="sans-serif" font-size="13" font-weight="bold" lengthAdjust="spacing" textLength="14" x="869.5" y="623.0537">13</text><text fill="#000000" font-family="sans-serif" font-size="13" lengthAdjust="spacing" textLength="106" x="887.5" y="623.0537">new Job(jobName)</text><rect fill="#E3E3E3" height="32.6211" rx="2.5" ry="2.5" style="stroke:#181818;stroke-width:0.5;" width="40" x="1010.5" y="605.0254"/><text fill="#000000" font-family="sans-serif" font-size="14" lengthAdjust="spacing" textLength="26" x="1017.5" y="627.1328">:Job</text><line style="stroke:#181818;stroke-width:1.0;stroke-dasharray:2.0,2.0;" x1="1030.5" x2="1072.5" y1="671.9375" y2="671.9375"/><line style="stroke:#181818;stroke-width:1.0;stroke-dasharray:2.0,2.0;" x1="1072.5" x2="1072.5" y1="671.9375" y2="684.9375"/><line style="stroke:#181818;stroke-width:1.0;stroke-dasharray:2.0,2.0;" x1="1031.5" x2="1072.5" y1="684.9375" y2="684.9375"/><polygon fill="#181818" points="1041.5,680.9375,1031.5,684.9375,1041.5,688.9375,1037.5,684.9375" style="stroke:#181818;stroke-width:1.0;"/><text fill="#000000" font-family="sans-serif" font-size="13" font-weight="bold" lengthAdjust="spacing" textLength="14" x="1037.5" y="666.6748">14</text><text fill="#000000" font-family="sans-serif" font-size="13" lengthAdjust="spacing" textLength="122" x="1055.5" y="666.6748">validateJob(jobName)</text><line style="stroke:#181818;stroke-width:1.0;stroke-dasharray:2.0,2.0;" x1="862.5" x2="904.5" y1="788.665" y2="788.665"/><line style="stroke:#181818;stroke-width:1.0;stroke-dasharray:2.0,2.0;" x1="904.5" x2="904.5" y1="788.665" y2="801.665"/><line style="stroke:#181818;stroke-width:1.0;stroke-dasharray:2.0,2.0;" x1="863.5" x2="904.5" y1="801.665" y2="801.665"/><polygon fill="#181818" points="873.5,797.665,863.5,801.665,873.5,805.665,869.5,801.665" style="stroke:#181818;stroke-width:1.0;"/><text fill="#000000" font-family="sans-serif" font-size="13" font-weight="bold" lengthAdjust="spacing" textLength="14" x="869.5" y="783.4023">15</text><text fill="#000000" font-family="sans-serif" font-size="13" lengthAdjust="spacing" textLength="122" x="887.5" y="783.4023">validateJob(jobName)</text><path d="M1021,747.9375 L1021,826.9375 L1166,826.9375 L1166,757.9375 L1156,747.9375 L1021,747.9375 " fill="#FAFAFA" style="stroke:#181818;stroke-width:0.5;"/><path d="M1156,747.9375 L1156,757.9375 L1166,757.9375 L1156,747.9375 " fill="#FAFAFA" style="stroke:#181818;stroke-width:0.5;"/><text fill="#000000" font-family="sans-serif" font-size="13" lengthAdjust="spacing" textLength="117" x="1027" y="766.9658">Validate if this job is</text><text fill="#000000" font-family="sans-serif" font-size="13" lengthAdjust="spacing" textLength="124" x="1027" y="784.2568">already in the jobList.</text><text fill="#000000" font-family="sans-serif" font-size="13" lengthAdjust="spacing" textLength="4" x="1027" y="801.5479">&#160;</text><text fill="#000000" font-family="sans-serif" font-size="13" lengthAdjust="spacing" textLength="107" x="1027" y="818.8389">adds the job if not.</text><line style="stroke:#181818;stroke-width:1.0;stroke-dasharray:2.0,2.0;" x1="862.5" x2="904.5" y1="855.3926" y2="855.3926"/><line style="stroke:#181818;stroke-width:1.0;stroke-dasharray:2.0,2.0;" x1="904.5" x2="904.5" y1="855.3926" y2="868.3926"/><line style="stroke:#181818;stroke-width:1.0;stroke-dasharray:2.0,2.0;" x1="863.5" x2="904.5" y1="868.3926" y2="868.3926"/><polygon fill="#181818" points="873.5,864.3926,863.5,868.3926,873.5,872.3926,869.5,868.3926" style="stroke:#181818;stroke-width:1.0;"/><text fill="#000000" font-family="sans-serif" font-size="13" font-weight="bold" lengthAdjust="spacing" textLength="14" x="869.5" y="850.1299">16</text><text fill="#000000" font-family="sans-serif" font-size="13" lengthAdjust="spacing" textLength="80" x="887.5" y="850.1299">add(jobName)</text><polygon fill="#181818" points="518,895.6836,508,899.6836,518,903.6836,514,899.6836" style="stroke:#181818;stroke-width:1.0;"/><line style="stroke:#181818;stroke-width:1.0;stroke-dasharray:2.0,2.0;" x1="512" x2="856.5" y1="899.6836" y2="899.6836"/><text fill="#000000" font-family="sans-serif" font-size="13" font-weight="bold" lengthAdjust="spacing" textLength="14" x="524" y="894.4209">17</text><text fill="#000000" font-family="sans-serif" font-size="13" lengthAdjust="spacing" textLength="106" x="542" y="894.4209">operation success</text><polygon fill="#181818" points="356,926.9746,346,930.9746,356,934.9746,352,930.9746" style="stroke:#181818;stroke-width:1.0;"/><line style="stroke:#181818;stroke-width:1.0;stroke-dasharray:2.0,2.0;" x1="350" x2="501" y1="930.9746" y2="930.9746"/><text fill="#000000" font-family="sans-serif" font-size="13" font-weight="bold" lengthAdjust="spacing" textLength="14" x="362" y="925.7119">18</text><text fill="#000000" font-family="sans-serif" font-size="13" lengthAdjust="spacing" textLength="106" x="380" y="925.7119">operation success</text><polygon fill="#181818" points="54,958.2656,44,962.2656,54,966.2656,50,962.2656" style="stroke:#181818;stroke-width:1.0;"/><line style="stroke:#181818;stroke-width:1.0;stroke-dasharray:2.0,2.0;" x1="48" x2="339" y1="962.2656" y2="962.2656"/><text fill="#000000" font-family="sans-serif" font-size="13" font-weight="bold" lengthAdjust="spacing" textLength="14" x="60" y="957.0029">19</text><text fill="#000000" font-family="sans-serif" font-size="13" lengthAdjust="spacing" textLength="160" x="78" y="957.0029">Displays operation success</text><!--SRC=[XLDDZzem4BtdLumuRLTYjUgHmqejL2seBHLqUzgBIORWajYfnon2uiTtFFacMMqkZkttvhsnd-ceJQ6SoY6tniO7PtC4xquOKRDJgFYeKjpwIuRWCFRAf5aNG0ULsBCsAUnLHXX5Ndk6FcyV7p_25BRuxuGcHbXebJ8-YjJ9MtFAT-ZuF_RMmUJRviS4506F4LVrEjQ5CXucimsccZowbTqzBmNpl7mRChV6Evjbw0GwNyq7sCAIPasD993Dbr_hFiPr82zcX14M-fI_TjV0BinPTUT2Mc- -tZXXZEoirf_b6FIhyYW7405__0FJ9suMPl29ZWJUykcNZO82WsTWLO4sP3wPCC-iBU1alCx0NmfC855UWIPuLPdcVqm45ZukFsML83RZnlYco5E9l-FoO5IE7mITO5TcOF4t2n4Rb0gLvAYvw_Kg8vhIHUL0YXmHYmKJW_JFHZamnWrl3_PCtHwLIMeF1B4rU-rovRKrOoqCUfYN16fhqMcNQq-3HXhdJo5YJ7Lj1Flc6rQ8egm40lD2xfYOebyQuZSLuzqDGv8fIuATTiJQHDusrf9gdG0kXNgf7AX9gaiveRHwlNGF15jUfSXHV-j4-fBXJSXAO32HNyBzFLD3jeSqtXLFOPmrKHxYwe3LenHlR8to0inOTkHqUl0o_LFXGE_17_ZjXDUWgoHa3bLo0Mru2yFETsxreUekIQXU3cIk-r07NaH6J36dqqJKGvHNO0jq4cIEP1mZ3Uuzd6Lp1tMWtsKreHmyhOMc8bCNUhy6FuV_]--></g></svg>