<?xml version="1.0" encoding="us-ascii" standalone="no"?><svg xmlns="http://www.w3.org/2000/svg" xmlns:xlink="http://www.w3.org/1999/xlink" contentStyleType="text/css" height="1446px" preserveAspectRatio="none" style="width:775px;height:1446px;background:#FFFFFF;" version="1.1" viewBox="0 0 775 1446" width="775px" zoomAndPan="magnify"><defs/><g><text fill="#000000" font-family="sans-serif" font-size="14" font-weight="bold" lengthAdjust="spacing" textLength="155" x="303" y="25.1074">US007 - Class Diagram</text><!--class Repositories--><g id="elem_Repositories"><rect codeLine="55" fill="#F1F1F1" height="122.4844" id="Repositories" rx="2.5" ry="2.5" style="stroke:#181818;stroke-width:0.5;" width="174" x="283" y="729.6211"/><ellipse cx="326.35" cy="745.6211" fill="#ADD1B2" rx="11" ry="11" style="stroke:#181818;stroke-width:1.0;"/><path d="M329.1156,741.4961 Q329.2719,741.2773 329.4594,741.168 Q329.6469,741.0586 329.8656,741.0586 Q330.2406,741.0586 330.475,741.3242 Q330.7094,741.5742 330.7094,742.1836 L330.7094,743.6367 Q330.7094,744.2461 330.475,744.5117 Q330.2406,744.7773 329.8656,744.7773 Q329.5219,744.7773 329.3188,744.5742 Q329.1156,744.3867 329.0063,743.8711 Q328.9594,743.5117 328.7719,743.3242 Q328.4438,742.9492 327.8344,742.7305 Q327.225,742.5117 326.6,742.5117 Q325.8344,742.5117 325.1938,742.8398 Q324.5688,743.168 324.0688,743.918 Q323.5844,744.668 323.5844,745.6992 L323.5844,746.793 Q323.5844,748.0273 324.475,748.8555 Q325.3656,749.668 326.9594,749.668 Q327.8969,749.668 328.5531,749.418 Q328.9438,749.2617 329.3656,748.8242 Q329.6313,748.5586 329.7719,748.4805 Q329.9281,748.4023 330.1313,748.4023 Q330.4594,748.4023 330.7094,748.668 Q330.975,748.918 330.975,749.2617 Q330.975,749.6055 330.6313,750.0117 Q330.1313,750.5898 329.3344,750.918 Q328.2563,751.3711 326.9594,751.3711 Q325.4438,751.3711 324.2406,750.7461 Q323.2563,750.2461 322.5688,749.1836 Q321.8813,748.1055 321.8813,746.8242 L321.8813,745.668 Q321.8813,744.3398 322.4906,743.1992 Q323.1156,742.043 324.2094,741.4336 Q325.3031,740.8086 326.5375,740.8086 Q327.2719,740.8086 327.9125,740.9805 Q328.5688,741.1367 329.1156,741.4961 Z " fill="#000000"/><text fill="#000000" font-family="sans-serif" font-size="14" lengthAdjust="spacing" textLength="79" x="346.65" y="751.418">Repositories</text><line style="stroke:#181818;stroke-width:0.5;" x1="284" x2="456" y1="761.6211" y2="761.6211"/><line style="stroke:#181818;stroke-width:0.5;" x1="284" x2="456" y1="769.6211" y2="769.6211"/><text fill="#000000" font-family="sans-serif" font-size="14" lengthAdjust="spacing" textLength="94" x="289" y="788.7285">-Repositories()</text><text fill="#000000" font-family="sans-serif" font-size="14" lengthAdjust="spacing" textLength="91" x="289" y="807.3496">+getInstance()</text><text fill="#000000" font-family="sans-serif" font-size="14" lengthAdjust="spacing" textLength="152" x="289" y="825.9707">+getVehicleRepository()</text><text fill="#000000" font-family="sans-serif" font-size="14" lengthAdjust="spacing" textLength="162" x="289" y="844.5918">+getCheckupRepository()</text></g><!--class VehicleRepository--><g id="elem_VehicleRepository"><rect codeLine="62" fill="#F1F1F1" height="103.8633" id="VehicleRepository" rx="2.5" ry="2.5" style="stroke:#181818;stroke-width:0.5;" width="168" x="97" y="912.6211"/><ellipse cx="121.9" cy="928.6211" fill="#ADD1B2" rx="11" ry="11" style="stroke:#181818;stroke-width:1.0;"/><path d="M124.6656,924.4961 Q124.8219,924.2773 125.0094,924.168 Q125.1969,924.0586 125.4156,924.0586 Q125.7906,924.0586 126.025,924.3242 Q126.2594,924.5742 126.2594,925.1836 L126.2594,926.6367 Q126.2594,927.2461 126.025,927.5117 Q125.7906,927.7773 125.4156,927.7773 Q125.0719,927.7773 124.8688,927.5742 Q124.6656,927.3867 124.5563,926.8711 Q124.5094,926.5117 124.3219,926.3242 Q123.9938,925.9492 123.3844,925.7305 Q122.775,925.5117 122.15,925.5117 Q121.3844,925.5117 120.7438,925.8398 Q120.1188,926.168 119.6188,926.918 Q119.1344,927.668 119.1344,928.6992 L119.1344,929.793 Q119.1344,931.0273 120.025,931.8555 Q120.9156,932.668 122.5094,932.668 Q123.4469,932.668 124.1031,932.418 Q124.4938,932.2617 124.9156,931.8242 Q125.1813,931.5586 125.3219,931.4805 Q125.4781,931.4023 125.6813,931.4023 Q126.0094,931.4023 126.2594,931.668 Q126.525,931.918 126.525,932.2617 Q126.525,932.6055 126.1813,933.0117 Q125.6813,933.5898 124.8844,933.918 Q123.8063,934.3711 122.5094,934.3711 Q120.9938,934.3711 119.7906,933.7461 Q118.8063,933.2461 118.1188,932.1836 Q117.4313,931.1055 117.4313,929.8242 L117.4313,928.668 Q117.4313,927.3398 118.0406,926.1992 Q118.6656,925.043 119.7594,924.4336 Q120.8531,923.8086 122.0875,923.8086 Q122.8219,923.8086 123.4625,923.9805 Q124.1188,924.1367 124.6656,924.4961 Z " fill="#000000"/><text fill="#000000" font-family="sans-serif" font-size="14" lengthAdjust="spacing" textLength="114" x="138.1" y="934.418">VehicleRepository</text><line style="stroke:#181818;stroke-width:0.5;" x1="98" x2="264" y1="944.6211" y2="944.6211"/><text fill="#000000" font-family="sans-serif" font-size="14" lengthAdjust="spacing" textLength="144" x="103" y="963.7285">-List&lt;Vehicle&gt; vehicles</text><line style="stroke:#181818;stroke-width:0.5;" x1="98" x2="264" y1="971.2422" y2="971.2422"/><text fill="#000000" font-family="sans-serif" font-size="14" lengthAdjust="spacing" textLength="156" x="103" y="990.3496">+registerVehicle(vehicle)</text><text fill="#000000" font-family="sans-serif" font-size="14" lengthAdjust="spacing" textLength="91" x="103" y="1008.9707">+getVehicles()</text></g><!--class CheckupRepository--><g id="elem_CheckupRepository"><rect codeLine="68" fill="#F1F1F1" height="103.8633" id="CheckupRepository" rx="2.5" ry="2.5" style="stroke:#181818;stroke-width:0.5;" width="396" x="372" y="912.6211"/><ellipse cx="503.75" cy="928.6211" fill="#ADD1B2" rx="11" ry="11" style="stroke:#181818;stroke-width:1.0;"/><path d="M506.5156,924.4961 Q506.6719,924.2773 506.8594,924.168 Q507.0469,924.0586 507.2656,924.0586 Q507.6406,924.0586 507.875,924.3242 Q508.1094,924.5742 508.1094,925.1836 L508.1094,926.6367 Q508.1094,927.2461 507.875,927.5117 Q507.6406,927.7773 507.2656,927.7773 Q506.9219,927.7773 506.7188,927.5742 Q506.5156,927.3867 506.4063,926.8711 Q506.3594,926.5117 506.1719,926.3242 Q505.8438,925.9492 505.2344,925.7305 Q504.625,925.5117 504,925.5117 Q503.2344,925.5117 502.5938,925.8398 Q501.9688,926.168 501.4688,926.918 Q500.9844,927.668 500.9844,928.6992 L500.9844,929.793 Q500.9844,931.0273 501.875,931.8555 Q502.7656,932.668 504.3594,932.668 Q505.2969,932.668 505.9531,932.418 Q506.3438,932.2617 506.7656,931.8242 Q507.0313,931.5586 507.1719,931.4805 Q507.3281,931.4023 507.5313,931.4023 Q507.8594,931.4023 508.1094,931.668 Q508.375,931.918 508.375,932.2617 Q508.375,932.6055 508.0313,933.0117 Q507.5313,933.5898 506.7344,933.918 Q505.6563,934.3711 504.3594,934.3711 Q502.8438,934.3711 501.6406,933.7461 Q500.6563,933.2461 499.9688,932.1836 Q499.2813,931.1055 499.2813,929.8242 L499.2813,928.668 Q499.2813,927.3398 499.8906,926.1992 Q500.5156,925.043 501.6094,924.4336 Q502.7031,923.8086 503.9375,923.8086 Q504.6719,923.8086 505.3125,923.9805 Q505.9688,924.1367 506.5156,924.4961 Z " fill="#000000"/><text fill="#000000" font-family="sans-serif" font-size="14" lengthAdjust="spacing" textLength="124" x="524.25" y="934.418">CheckupRepository</text><line style="stroke:#181818;stroke-width:0.5;" x1="373" x2="767" y1="944.6211" y2="944.6211"/><line style="stroke:#181818;stroke-width:0.5;" x1="373" x2="767" y1="952.6211" y2="952.6211"/><text fill="#000000" font-family="sans-serif" font-size="14" lengthAdjust="spacing" textLength="384" x="378" y="971.7285">+registerVehicleCheckup(vehicle, checkupDate, checkupKm)</text><text fill="#000000" font-family="sans-serif" font-size="14" lengthAdjust="spacing" textLength="198" x="378" y="990.3496">+addCheckup(vehicleCheckup)</text><text fill="#000000" font-family="sans-serif" font-size="14" lengthAdjust="spacing" textLength="215" x="378" y="1008.9707">validateCheckup(vehicleCheckup)</text></g><!--class VehicleCheckup--><g id="elem_VehicleCheckup"><rect codeLine="74" fill="#F1F1F1" height="159.7266" id="VehicleCheckup" rx="2.5" ry="2.5" style="stroke:#181818;stroke-width:0.5;" width="348" x="7" y="1077.6211"/><ellipse cx="125.75" cy="1093.6211" fill="#ADD1B2" rx="11" ry="11" style="stroke:#181818;stroke-width:1.0;"/><path d="M128.5156,1089.4961 Q128.6719,1089.2773 128.8594,1089.168 Q129.0469,1089.0586 129.2656,1089.0586 Q129.6406,1089.0586 129.875,1089.3242 Q130.1094,1089.5742 130.1094,1090.1836 L130.1094,1091.6367 Q130.1094,1092.2461 129.875,1092.5117 Q129.6406,1092.7773 129.2656,1092.7773 Q128.9219,1092.7773 128.7188,1092.5742 Q128.5156,1092.3867 128.4063,1091.8711 Q128.3594,1091.5117 128.1719,1091.3242 Q127.8438,1090.9492 127.2344,1090.7305 Q126.625,1090.5117 126,1090.5117 Q125.2344,1090.5117 124.5938,1090.8398 Q123.9688,1091.168 123.4688,1091.918 Q122.9844,1092.668 122.9844,1093.6992 L122.9844,1094.793 Q122.9844,1096.0273 123.875,1096.8555 Q124.7656,1097.668 126.3594,1097.668 Q127.2969,1097.668 127.9531,1097.418 Q128.3438,1097.2617 128.7656,1096.8242 Q129.0313,1096.5586 129.1719,1096.4805 Q129.3281,1096.4023 129.5313,1096.4023 Q129.8594,1096.4023 130.1094,1096.668 Q130.375,1096.918 130.375,1097.2617 Q130.375,1097.6055 130.0313,1098.0117 Q129.5313,1098.5898 128.7344,1098.918 Q127.6563,1099.3711 126.3594,1099.3711 Q124.8438,1099.3711 123.6406,1098.7461 Q122.6563,1098.2461 121.9688,1097.1836 Q121.2813,1096.1055 121.2813,1094.8242 L121.2813,1093.668 Q121.2813,1092.3398 121.8906,1091.1992 Q122.5156,1090.043 123.6094,1089.4336 Q124.7031,1088.8086 125.9375,1088.8086 Q126.6719,1088.8086 127.3125,1088.9805 Q127.9688,1089.1367 128.5156,1089.4961 Z " fill="#000000"/><text fill="#000000" font-family="sans-serif" font-size="14" lengthAdjust="spacing" textLength="102" x="146.25" y="1099.418">VehicleCheckup</text><line style="stroke:#181818;stroke-width:0.5;" x1="8" x2="354" y1="1109.6211" y2="1109.6211"/><text fill="#000000" font-family="sans-serif" font-size="14" lengthAdjust="spacing" textLength="99" x="13" y="1128.7285">-Vehicle vehicle</text><text fill="#000000" font-family="sans-serif" font-size="14" lengthAdjust="spacing" textLength="122" x="13" y="1147.3496">-Date checkupDate</text><text fill="#000000" font-family="sans-serif" font-size="14" lengthAdjust="spacing" textLength="97" x="13" y="1165.9707">-int checkupKm</text><line style="stroke:#181818;stroke-width:0.5;" x1="8" x2="354" y1="1173.4844" y2="1173.4844"/><text fill="#000000" font-family="sans-serif" font-size="14" lengthAdjust="spacing" textLength="336" x="13" y="1192.5918">+VehicleCheckup(vehicle, checkupDate, checkupKm)</text><text fill="#000000" font-family="sans-serif" font-size="14" lengthAdjust="spacing" textLength="140" x="13" y="1211.2129">-validateCheckupKm()</text><text fill="#000000" font-family="sans-serif" font-size="14" lengthAdjust="spacing" textLength="233" x="13" y="1229.834">-validateCheckupDate(checkupDate)</text></g><!--class Date--><g id="elem_Date"><rect codeLine="83" fill="#F1F1F1" height="122.4844" id="Date" rx="2.5" ry="2.5" style="stroke:#181818;stroke-width:0.5;" width="189" x="86.5" y="1316.6211"/><ellipse cx="161.75" cy="1332.6211" fill="#ADD1B2" rx="11" ry="11" style="stroke:#181818;stroke-width:1.0;"/><path d="M164.5156,1328.4961 Q164.6719,1328.2773 164.8594,1328.168 Q165.0469,1328.0586 165.2656,1328.0586 Q165.6406,1328.0586 165.875,1328.3242 Q166.1094,1328.5742 166.1094,1329.1836 L166.1094,1330.6367 Q166.1094,1331.2461 165.875,1331.5117 Q165.6406,1331.7773 165.2656,1331.7773 Q164.9219,1331.7773 164.7188,1331.5742 Q164.5156,1331.3867 164.4063,1330.8711 Q164.3594,1330.5117 164.1719,1330.3242 Q163.8438,1329.9492 163.2344,1329.7305 Q162.625,1329.5117 162,1329.5117 Q161.2344,1329.5117 160.5938,1329.8398 Q159.9688,1330.168 159.4688,1330.918 Q158.9844,1331.668 158.9844,1332.6992 L158.9844,1333.793 Q158.9844,1335.0273 159.875,1335.8555 Q160.7656,1336.668 162.3594,1336.668 Q163.2969,1336.668 163.9531,1336.418 Q164.3438,1336.2617 164.7656,1335.8242 Q165.0313,1335.5586 165.1719,1335.4805 Q165.3281,1335.4023 165.5313,1335.4023 Q165.8594,1335.4023 166.1094,1335.668 Q166.375,1335.918 166.375,1336.2617 Q166.375,1336.6055 166.0313,1337.0117 Q165.5313,1337.5898 164.7344,1337.918 Q163.6563,1338.3711 162.3594,1338.3711 Q160.8438,1338.3711 159.6406,1337.7461 Q158.6563,1337.2461 157.9688,1336.1836 Q157.2813,1335.1055 157.2813,1333.8242 L157.2813,1332.668 Q157.2813,1331.3398 157.8906,1330.1992 Q158.5156,1329.043 159.6094,1328.4336 Q160.7031,1327.8086 161.9375,1327.8086 Q162.6719,1327.8086 163.3125,1327.9805 Q163.9688,1328.1367 164.5156,1328.4961 Z " fill="#000000"/><text fill="#000000" font-family="sans-serif" font-size="14" lengthAdjust="spacing" textLength="30" x="182.25" y="1338.418">Date</text><line style="stroke:#181818;stroke-width:0.5;" x1="87.5" x2="274.5" y1="1348.6211" y2="1348.6211"/><text fill="#000000" font-family="sans-serif" font-size="14" lengthAdjust="spacing" textLength="47" x="92.5" y="1367.7285">-int day</text><text fill="#000000" font-family="sans-serif" font-size="14" lengthAdjust="spacing" textLength="63" x="92.5" y="1386.3496">-int month</text><text fill="#000000" font-family="sans-serif" font-size="14" lengthAdjust="spacing" textLength="52" x="92.5" y="1404.9707">-int year</text><line style="stroke:#181818;stroke-width:0.5;" x1="87.5" x2="274.5" y1="1412.4844" y2="1412.4844"/><text fill="#000000" font-family="sans-serif" font-size="14" lengthAdjust="spacing" textLength="177" x="92.5" y="1431.5918">-validateDate(checkupDate)</text></g><!--class RegisterCheckupController--><g id="elem_RegisterCheckupController"><rect codeLine="44" fill="#F1F1F1" height="196.9688" id="RegisterCheckupController" rx="2.5" ry="2.5" style="stroke:#181818;stroke-width:0.5;" width="688" x="26" y="453.6211"/><ellipse cx="280.25" cy="469.6211" fill="#ADD1B2" rx="11" ry="11" style="stroke:#181818;stroke-width:1.0;"/><path d="M283.0156,465.4961 Q283.1719,465.2773 283.3594,465.168 Q283.5469,465.0586 283.7656,465.0586 Q284.1406,465.0586 284.375,465.3242 Q284.6094,465.5742 284.6094,466.1836 L284.6094,467.6367 Q284.6094,468.2461 284.375,468.5117 Q284.1406,468.7773 283.7656,468.7773 Q283.4219,468.7773 283.2188,468.5742 Q283.0156,468.3867 282.9063,467.8711 Q282.8594,467.5117 282.6719,467.3242 Q282.3438,466.9492 281.7344,466.7305 Q281.125,466.5117 280.5,466.5117 Q279.7344,466.5117 279.0938,466.8398 Q278.4688,467.168 277.9688,467.918 Q277.4844,468.668 277.4844,469.6992 L277.4844,470.793 Q277.4844,472.0273 278.375,472.8555 Q279.2656,473.668 280.8594,473.668 Q281.7969,473.668 282.4531,473.418 Q282.8438,473.2617 283.2656,472.8242 Q283.5313,472.5586 283.6719,472.4805 Q283.8281,472.4023 284.0313,472.4023 Q284.3594,472.4023 284.6094,472.668 Q284.875,472.918 284.875,473.2617 Q284.875,473.6055 284.5313,474.0117 Q284.0313,474.5898 283.2344,474.918 Q282.1563,475.3711 280.8594,475.3711 Q279.3438,475.3711 278.1406,474.7461 Q277.1563,474.2461 276.4688,473.1836 Q275.7813,472.1055 275.7813,470.8242 L275.7813,469.668 Q275.7813,468.3398 276.3906,467.1992 Q277.0156,466.043 278.1094,465.4336 Q279.2031,464.8086 280.4375,464.8086 Q281.1719,464.8086 281.8125,464.9805 Q282.4688,465.1367 283.0156,465.4961 Z " fill="#000000"/><text fill="#000000" font-family="sans-serif" font-size="14" lengthAdjust="spacing" textLength="171" x="300.75" y="475.418">RegisterCheckupController</text><line style="stroke:#181818;stroke-width:0.5;" x1="27" x2="713" y1="485.6211" y2="485.6211"/><text fill="#000000" font-family="sans-serif" font-size="14" lengthAdjust="spacing" textLength="254" x="32" y="504.7285">-CheckupRepository checkupRepository</text><text fill="#000000" font-family="sans-serif" font-size="14" lengthAdjust="spacing" textLength="235" x="32" y="523.3496">-VehicleRepository vehicleRepository</text><line style="stroke:#181818;stroke-width:0.5;" x1="27" x2="713" y1="530.8633" y2="530.8633"/><text fill="#000000" font-family="sans-serif" font-size="14" lengthAdjust="spacing" textLength="189" x="32" y="549.9707">+RegisterCheckupController()</text><text fill="#000000" font-family="sans-serif" font-size="14" lengthAdjust="spacing" textLength="676" x="32" y="568.5918">+RegisterCheckupController(CheckupRepository checkupRepository, VehicleRepository vehicleRepository)</text><text fill="#000000" font-family="sans-serif" font-size="14" lengthAdjust="spacing" textLength="294" x="32" y="587.2129">+getCheckupRepository(): CheckupRepository</text><text fill="#000000" font-family="sans-serif" font-size="14" lengthAdjust="spacing" textLength="274" x="32" y="605.834">+getVehicleRepository(): VehicleRepository</text><text fill="#000000" font-family="sans-serif" font-size="14" lengthAdjust="spacing" textLength="673" x="32" y="624.4551">+registerVehicleCheckup(Vehicle vehicle, String checkupDate, int checkupKm): Optional&lt;VehicleCheckup&gt;</text><text fill="#000000" font-family="sans-serif" font-size="14" lengthAdjust="spacing" textLength="183" x="32" y="643.0762">+getVehicles(): List&lt;Vehicle&gt;</text></g><!--class RegisterCheckupUI--><g id="elem_RegisterCheckupUI"><rect codeLine="25" fill="#F1F1F1" height="345.9375" id="RegisterCheckupUI" rx="2.5" ry="2.5" style="stroke:#181818;stroke-width:0.5;" width="532" x="104" y="46.6211"/><ellipse cx="305.25" cy="62.6211" fill="#ADD1B2" rx="11" ry="11" style="stroke:#181818;stroke-width:1.0;"/><path d="M308.0156,58.4961 Q308.1719,58.2773 308.3594,58.168 Q308.5469,58.0586 308.7656,58.0586 Q309.1406,58.0586 309.375,58.3242 Q309.6094,58.5742 309.6094,59.1836 L309.6094,60.6367 Q309.6094,61.2461 309.375,61.5117 Q309.1406,61.7773 308.7656,61.7773 Q308.4219,61.7773 308.2188,61.5742 Q308.0156,61.3867 307.9063,60.8711 Q307.8594,60.5117 307.6719,60.3242 Q307.3438,59.9492 306.7344,59.7305 Q306.125,59.5117 305.5,59.5117 Q304.7344,59.5117 304.0938,59.8398 Q303.4688,60.168 302.9688,60.918 Q302.4844,61.668 302.4844,62.6992 L302.4844,63.793 Q302.4844,65.0273 303.375,65.8555 Q304.2656,66.668 305.8594,66.668 Q306.7969,66.668 307.4531,66.418 Q307.8438,66.2617 308.2656,65.8242 Q308.5313,65.5586 308.6719,65.4805 Q308.8281,65.4023 309.0313,65.4023 Q309.3594,65.4023 309.6094,65.668 Q309.875,65.918 309.875,66.2617 Q309.875,66.6055 309.5313,67.0117 Q309.0313,67.5898 308.2344,67.918 Q307.1563,68.3711 305.8594,68.3711 Q304.3438,68.3711 303.1406,67.7461 Q302.1563,67.2461 301.4688,66.1836 Q300.7813,65.1055 300.7813,63.8242 L300.7813,62.668 Q300.7813,61.3398 301.3906,60.1992 Q302.0156,59.043 303.1094,58.4336 Q304.2031,57.8086 305.4375,57.8086 Q306.1719,57.8086 306.8125,57.9805 Q307.4688,58.1367 308.0156,58.4961 Z " fill="#000000"/><text fill="#000000" font-family="sans-serif" font-size="14" lengthAdjust="spacing" textLength="121" x="325.75" y="68.418">RegisterCheckupUI</text><line style="stroke:#181818;stroke-width:0.5;" x1="105" x2="635" y1="78.6211" y2="78.6211"/><text fill="#000000" font-family="sans-serif" font-size="14" lengthAdjust="spacing" textLength="239" x="110" y="97.7285">-RegisterCheckupController controller</text><text fill="#000000" font-family="sans-serif" font-size="14" lengthAdjust="spacing" textLength="99" x="110" y="116.3496">-Vehicle vehicle</text><text fill="#000000" font-family="sans-serif" font-size="14" lengthAdjust="spacing" textLength="129" x="110" y="134.9707">-String checkupDate</text><text fill="#000000" font-family="sans-serif" font-size="14" lengthAdjust="spacing" textLength="97" x="110" y="153.5918">-int checkupKm</text><line style="stroke:#181818;stroke-width:0.5;" x1="105" x2="635" y1="161.1055" y2="161.1055"/><text fill="#000000" font-family="sans-serif" font-size="14" lengthAdjust="spacing" textLength="139" x="110" y="180.2129">+RegisterCheckupUI()</text><text fill="#000000" font-family="sans-serif" font-size="14" lengthAdjust="spacing" textLength="276" x="110" y="198.834">-getController(): RegisterCheckupController</text><text fill="#000000" font-family="sans-serif" font-size="14" lengthAdjust="spacing" textLength="86" x="110" y="217.4551">-submitData()</text><text fill="#000000" font-family="sans-serif" font-size="14" lengthAdjust="spacing" textLength="520" x="110" y="236.0762">-showAllDataForConfirmation(Vehicle vehicle, String checkupDate, int checkupKm)</text><text fill="#000000" font-family="sans-serif" font-size="14" lengthAdjust="spacing" textLength="93" x="110" y="254.6973">-requestData()</text><text fill="#000000" font-family="sans-serif" font-size="14" lengthAdjust="spacing" textLength="194" x="110" y="273.3184">-requestCheckupDate(): String</text><text fill="#000000" font-family="sans-serif" font-size="14" lengthAdjust="spacing" textLength="215" x="110" y="291.9395">-validateDate(Date date): boolean</text><text fill="#000000" font-family="sans-serif" font-size="14" lengthAdjust="spacing" textLength="162" x="110" y="310.5605">-requestCheckupKm(): int</text><text fill="#000000" font-family="sans-serif" font-size="14" lengthAdjust="spacing" textLength="298" x="110" y="329.1816">-validateCheckupKms(int checkupKm): boolean</text><text fill="#000000" font-family="sans-serif" font-size="14" lengthAdjust="spacing" textLength="223" x="110" y="347.8027">-displayAndSelectVehicle(): Vehicle</text><text fill="#000000" font-family="sans-serif" font-size="14" lengthAdjust="spacing" textLength="363" x="110" y="366.4238">-validateIndex(int answer, int numberOfVehicles): boolean</text><text fill="#000000" font-family="sans-serif" font-size="14" lengthAdjust="spacing" textLength="308" x="110" y="385.0449">-displayVehicleOptions(List&lt;Vehicle&gt; vehicleList)</text></g><!--link Repositories to Repositories--><g id="link_Repositories_Repositories"><path codeLine="11" d="M457.18,774.1211 C477.26,775.5411 492,781.0411 492,790.6211 C492,800.2011 483.2451,805.2778 463.1651,806.6978 " fill="none" id="Repositories-to-Repositories" style="stroke:#181818;stroke-width:1.0;"/><polygon fill="#181818" points="457.18,807.1211,466.4397,810.4763,462.1675,806.7684,465.8754,802.4962,457.18,807.1211" style="stroke:#181818;stroke-width:1.0;"/><text fill="#000000" font-family="sans-serif" font-size="13" lengthAdjust="spacing" textLength="49" x="498" y="796.1494">instance</text></g><!--link Repositories to VehicleRepository--><g id="link_Repositories_VehicleRepository"><path codeLine="14" d="M303.9,851.7811 C282.18,871.5411 262.6973,889.2725 241.7773,908.3125 " fill="none" id="Repositories-to-VehicleRepository" style="stroke:#181818;stroke-width:1.0;"/><polygon fill="#181818" points="237.34,912.3511,246.6884,909.2515,241.0378,908.9856,241.3036,903.335,237.34,912.3511" style="stroke:#181818;stroke-width:1.0;"/><text fill="#000000" font-family="sans-serif" font-size="13" lengthAdjust="spacing" textLength="7" x="237.4404" y="901.2422">1</text></g><!--link Repositories to CheckupRepository--><g id="link_Repositories_CheckupRepository"><path codeLine="15" d="M439.95,851.7811 C462.93,871.5411 483.6908,889.3989 505.8308,908.4389 " fill="none" id="Repositories-to-CheckupRepository" style="stroke:#181818;stroke-width:1.0;"/><polygon fill="#181818" points="510.38,912.3511,506.1644,903.45,506.589,909.0909,500.9481,909.5156,510.38,912.3511" style="stroke:#181818;stroke-width:1.0;"/><text fill="#000000" font-family="sans-serif" font-size="13" lengthAdjust="spacing" textLength="7" x="494.8983" y="901.2422">1</text></g><!--link VehicleRepository to VehicleCheckup--><g id="link_VehicleRepository_VehicleCheckup"><path codeLine="17" d="M181,1016.8011 C181,1035.4811 181,1051.0611 181,1071.5911 " fill="none" id="VehicleRepository-to-VehicleCheckup" style="stroke:#181818;stroke-width:1.0;"/><polygon fill="#181818" points="181,1077.5911,185,1068.5911,181,1072.5911,177,1068.5911,181,1077.5911" style="stroke:#181818;stroke-width:1.0;"/><text fill="#000000" font-family="sans-serif" font-size="13" lengthAdjust="spacing" textLength="5" x="175.7695" y="1066.4841">*</text></g><!--link VehicleCheckup to Date--><g id="link_VehicleCheckup_Date"><path codeLine="19" d="M181,1237.6311 C181,1263.5911 181,1286.0011 181,1310.3411 " fill="none" id="VehicleCheckup-to-Date" style="stroke:#181818;stroke-width:1.0;stroke-dasharray:7.0,7.0;"/><polygon fill="#181818" points="181,1316.3411,185,1307.3411,181,1311.3411,177,1307.3411,181,1316.3411" style="stroke:#181818;stroke-width:1.0;"/><text fill="#000000" font-family="sans-serif" font-size="13" lengthAdjust="spacing" textLength="76" x="182" y="1282.6494">checkupDate</text></g><!--link RegisterCheckupController to Repositories--><g id="link_RegisterCheckupController_Repositories"><path codeLine="20" d="M370,650.6811 C370,677.4011 370,699.5711 370,723.5211 " fill="none" id="RegisterCheckupController-to-Repositories" style="stroke:#181818;stroke-width:1.0;stroke-dasharray:7.0,7.0;"/><polygon fill="#181818" points="370,729.5211,374,720.5211,370,724.5211,366,720.5211,370,729.5211" style="stroke:#181818;stroke-width:1.0;"/><text fill="#000000" font-family="sans-serif" font-size="13" lengthAdjust="spacing" textLength="67" x="371" y="695.6494">repositories</text></g><!--link RegisterCheckupUI to RegisterCheckupController--><g id="link_RegisterCheckupUI_RegisterCheckupController"><path codeLine="21" d="M370,392.6511 C370,413.5111 370,428.2211 370,447.4611 " fill="none" id="RegisterCheckupUI-to-RegisterCheckupController" style="stroke:#181818;stroke-width:1.0;stroke-dasharray:7.0,7.0;"/><polygon fill="#181818" points="370,453.4611,374,444.4611,370,448.4611,366,444.4611,370,453.4611" style="stroke:#181818;stroke-width:1.0;"/></g><!--link RegisterCheckupController to VehicleRepository--><g id="link_RegisterCheckupController_VehicleRepository"><path codeLine="22" d="M255.05,650.6611 C206.94,691.4811 162,729.6211 162,729.6211 C162,729.6211 162,851.6211 162,851.6211 C162,851.6211 166.3167,877.0856 171.3267,906.6256 " fill="none" id="RegisterCheckupController-to-VehicleRepository" style="stroke:#181818;stroke-width:1.0;stroke-dasharray:7.0,7.0;"/><polygon fill="#181818" points="172.33,912.5411,174.7688,902.999,171.4939,907.6115,166.8814,904.3367,172.33,912.5411" style="stroke:#181818;stroke-width:1.0;"/><text fill="#000000" font-family="sans-serif" font-size="13" lengthAdjust="spacing" textLength="101" x="163" y="796.1494">vehicleRepository</text></g><!--link RegisterCheckupController to CheckupRepository--><g id="link_RegisterCheckupController_CheckupRepository"><path codeLine="23" d="M471.69,650.6611 C514.24,691.4811 554,729.6211 554,729.6211 C554,729.6211 561.3906,837.7151 566.1006,906.5751 " fill="none" id="RegisterCheckupController-to-CheckupRepository" style="stroke:#181818;stroke-width:1.0;stroke-dasharray:7.0,7.0;"/><polygon fill="#181818" points="566.51,912.5611,569.8865,903.3091,566.1688,907.5727,561.9052,903.855,566.51,912.5611" style="stroke:#181818;stroke-width:1.0;"/><text fill="#000000" font-family="sans-serif" font-size="13" lengthAdjust="spacing" textLength="111" x="563" y="796.1494">checkupRepository</text></g><!--SRC=[dLRVJzim47xFNt7YXJ0ewfucLQWIAffKCGbf7RoxoJMnwjYPxS8ojFzzTk8qZfq2WZVVVVVTTpzwuLpjAQ-991LKWekibA92qFA0oU2fIROd1Mvqmn0aPfhmWla0LP9Sl51Um8umvNiOvQYR6g4MhB6Fv7p2AQGMNb36Y5AtMakwFMXSPu9lw5-4UNBESAT12v2qA3Nar8gXWYV9BwgDjiVDVFuDPh2o1717IM7eakGdra9HBIH51RCbZDuBe5oPYZ9CGgI1ddqzWoSiQSRmw6kcOQiIi_sXzc195Dc1lnmvNSmHwTvmVRs4EwBHgCiwatsPl0LL6gM3hGJNKZ26iWq8ofBUCunyNBk84tplP8hhMi3pH9VUueZQDTJgjx3T1OZbloPW_cQdSsH3CItIQUvrTiQDsJ6pjNwFMplbkZVULwtfCfAGNdJO0lMGDhrOlD7L5gyEsufgaulq3AeKBxUCMTDt8Gr-HsL5x6AdWUehY1LVmKYjuvJu-u1gbCQPLaEeLTiHTeXdmcXkxAsltJ_xCg2j40m9d-AvhooBaJ2cE7fLEfONaELKrOmqjppV83E_PbUmvNpo9zNphdcEVrfAmjKBogvwVgYsA1zsBaIToEBS3xNjhKf_c37TEDkoRx4rNYJ_JcoUjs1k0-CzZhVONq0F6FzafZRDNwxt01yGSmKV4E8IsTKEu-raLfCLMdZ4xGqoX4jNnlZsVMRb5z2DbB2RCTao5AQidj7S_L5xz_DuNmPRttumT6ltpV1j4xKFpea-3fdZYRZqCBcYoj463KoTEvQa_6JnZhnEy_K3EGvYD87Wu5m2oVCWmZqx00IN8GA5tUY_XNqh9WzuzvMCxZTC773uJ5apY0vQUiBJ7asFowke5VdgISj9uxtCVrwwzDuD4Xdac2B_3m00]--></g></svg>