<?xml version="1.0" encoding="us-ascii" standalone="no"?><svg xmlns="http://www.w3.org/2000/svg" xmlns:xlink="http://www.w3.org/1999/xlink" contentStyleType="text/css" height="1788px" preserveAspectRatio="none" style="width:1956px;height:1788px;background:#FFFFFF;" version="1.1" viewBox="0 0 1956 1788" width="1956px" zoomAndPan="magnify"><defs/><g><text fill="#000000" font-family="sans-serif" font-size="14" font-weight="bold" lengthAdjust="spacing" textLength="230" x="862.75" y="30.1074">US007 - Sequence Diagram (SSD)</text><rect fill="#FFFFFF" height="1516.7949" style="stroke:#181818;stroke-width:1.0;" width="10" x="59" y="151.8633"/><rect fill="#FFFFFF" height="368.8223" style="stroke:#181818;stroke-width:1.0;" width="10" x="355" y="175.1543"/><rect fill="#FFFFFF" height="207.7461" style="stroke:#181818;stroke-width:1.0;" width="10" x="355" y="592.5586"/><rect fill="#FFFFFF" height="171.1641" style="stroke:#181818;stroke-width:1.0;" width="10" x="355" y="831.5957"/><rect fill="#FFFFFF" height="634.6074" style="stroke:#181818;stroke-width:1.0;" width="10" x="355" y="1034.0508"/><rect fill="#FFFFFF" height="219.0371" style="stroke:#181818;stroke-width:1.0;" width="10" x="747" y="250.0664"/><rect fill="#FFFFFF" height="572.0254" style="stroke:#181818;stroke-width:1.0;" width="10" x="747" y="1065.3418"/><rect fill="#FFFFFF" height="31.291" style="stroke:#181818;stroke-width:1.0;" width="10" x="900" y="281.3574"/><rect fill="#FFFFFF" height="31.291" style="stroke:#181818;stroke-width:1.0;" width="10" x="900" y="1096.6328"/><rect fill="#FFFFFF" height="31.291" style="stroke:#181818;stroke-width:1.0;" width="10" x="1007" y="343.9395"/><rect fill="#FFFFFF" height="31.291" style="stroke:#181818;stroke-width:1.0;" width="10" x="1007" y="1159.2148"/><rect fill="#FFFFFF" height="31.291" style="stroke:#181818;stroke-width:1.0;" width="10" x="1131.5" y="406.5215"/><rect fill="#FFFFFF" height="384.2793" style="stroke:#181818;stroke-width:1.0;" width="10" x="1278.5" y="1221.7969"/><rect fill="none" height="160.7461" style="stroke:#000000;stroke-width:1.5;" width="622" x="10" y="484.1035"/><rect fill="none" height="170.4551" style="stroke:#000000;stroke-width:1.5;" width="583" x="10" y="757.7227"/><line style="stroke:#181818;stroke-width:0.5;stroke-dasharray:5.0,5.0;" x1="64" x2="64" y1="141.8633" y2="1686.6582"/><line style="stroke:#181818;stroke-width:0.5;stroke-dasharray:5.0,5.0;" x1="359.5" x2="359.5" y1="141.8633" y2="1686.6582"/><line style="stroke:#181818;stroke-width:0.5;stroke-dasharray:5.0,5.0;" x1="751.5" x2="751.5" y1="214.9648" y2="1686.6582"/><line style="stroke:#181818;stroke-width:0.5;stroke-dasharray:5.0,5.0;" x1="904.5" x2="904.5" y1="141.8633" y2="1686.6582"/><line style="stroke:#181818;stroke-width:0.5;stroke-dasharray:5.0,5.0;" x1="1011.5" x2="1011.5" y1="141.8633" y2="1686.6582"/><line style="stroke:#181818;stroke-width:0.5;stroke-dasharray:5.0,5.0;" x1="1136.5" x2="1136.5" y1="141.8633" y2="1686.6582"/><line style="stroke:#181818;stroke-width:0.5;stroke-dasharray:5.0,5.0;" x1="1283.5" x2="1283.5" y1="141.8633" y2="1686.6582"/><line style="stroke:#181818;stroke-width:0.5;stroke-dasharray:5.0,5.0;" x1="1519.5" x2="1519.5" y1="1261.6074" y2="1686.6582"/><line style="stroke:#181818;stroke-width:0.5;stroke-dasharray:5.0,5.0;" x1="1719.5" x2="1719.5" y1="1349.5195" y2="1686.6582"/><text fill="#000000" font-family="sans-serif" font-size="14" lengthAdjust="spacing" textLength="82" x="20" y="119.7285">Vehicle Fleet</text><text fill="#000000" font-family="sans-serif" font-size="14" lengthAdjust="spacing" textLength="56" x="35" y="138.3496">Manager</text><ellipse cx="64" cy="53.1211" fill="#E3E3E3" rx="8" ry="8" style="stroke:#181818;stroke-width:0.5;"/><path d="M64,61.1211 L64,88.1211 M51,69.1211 L77,69.1211 M64,88.1211 L51,103.1211 M64,88.1211 L77,103.1211 " fill="none" style="stroke:#181818;stroke-width:0.5;"/><text fill="#000000" font-family="sans-serif" font-size="14" lengthAdjust="spacing" textLength="82" x="20" y="1700.7656">Vehicle Fleet</text><text fill="#000000" font-family="sans-serif" font-size="14" lengthAdjust="spacing" textLength="56" x="35" y="1719.3867">Manager</text><ellipse cx="64" cy="1731.4004" fill="#E3E3E3" rx="8" ry="8" style="stroke:#181818;stroke-width:0.5;"/><path d="M64,1739.4004 L64,1766.4004 M51,1747.4004 L77,1747.4004 M64,1766.4004 L51,1781.4004 M64,1766.4004 L77,1781.4004 " fill="none" style="stroke:#181818;stroke-width:0.5;"/><rect fill="#E3E3E3" height="32.6211" rx="2.5" ry="2.5" style="stroke:#181818;stroke-width:0.5;" width="139" x="290.5" y="108.2422"/><text fill="#000000" font-family="sans-serif" font-size="14" lengthAdjust="spacing" textLength="125" x="297.5" y="130.3496">:RegisterCheckupUI</text><rect fill="#E3E3E3" height="32.6211" rx="2.5" ry="2.5" style="stroke:#181818;stroke-width:0.5;" width="139" x="290.5" y="1685.6582"/><text fill="#000000" font-family="sans-serif" font-size="14" lengthAdjust="spacing" textLength="125" x="297.5" y="1707.7656">:RegisterCheckupUI</text><rect fill="#E3E3E3" height="32.6211" rx="2.5" ry="2.5" style="stroke:#181818;stroke-width:0.5;" width="189" x="657.5" y="1685.6582"/><text fill="#000000" font-family="sans-serif" font-size="14" lengthAdjust="spacing" textLength="175" x="664.5" y="1707.7656">:RegisterCheckupController</text><rect fill="#E3E3E3" height="32.6211" rx="2.5" ry="2.5" style="stroke:#181818;stroke-width:0.5;" width="97" x="856.5" y="108.2422"/><text fill="#000000" font-family="sans-serif" font-size="14" lengthAdjust="spacing" textLength="83" x="863.5" y="130.3496">:Repositories</text><rect fill="#E3E3E3" height="32.6211" rx="2.5" ry="2.5" style="stroke:#181818;stroke-width:0.5;" width="97" x="856.5" y="1685.6582"/><text fill="#000000" font-family="sans-serif" font-size="14" lengthAdjust="spacing" textLength="83" x="863.5" y="1707.7656">:Repositories</text><rect fill="#E3E3E3" height="51.2422" rx="2.5" ry="2.5" style="stroke:#181818;stroke-width:0.5;" width="97" x="963.5" y="89.6211"/><text fill="#000000" font-family="sans-serif" font-size="14" lengthAdjust="spacing" textLength="74" x="975" y="111.7285">repositories</text><text fill="#000000" font-family="sans-serif" font-size="14" lengthAdjust="spacing" textLength="83" x="970.5" y="130.3496">:Repositories</text><rect fill="#E3E3E3" height="51.2422" rx="2.5" ry="2.5" style="stroke:#181818;stroke-width:0.5;" width="97" x="963.5" y="1685.6582"/><text fill="#000000" font-family="sans-serif" font-size="14" lengthAdjust="spacing" textLength="74" x="975" y="1707.7656">repositories</text><text fill="#000000" font-family="sans-serif" font-size="14" lengthAdjust="spacing" textLength="83" x="970.5" y="1726.3867">:Repositories</text><rect fill="#E3E3E3" height="51.2422" rx="2.5" ry="2.5" style="stroke:#181818;stroke-width:0.5;" width="132" x="1070.5" y="89.6211"/><text fill="#000000" font-family="sans-serif" font-size="14" lengthAdjust="spacing" textLength="112" x="1080.5" y="111.7285">vehicleRepository</text><text fill="#000000" font-family="sans-serif" font-size="14" lengthAdjust="spacing" textLength="118" x="1077.5" y="130.3496">:VehicleRepository</text><rect fill="#E3E3E3" height="51.2422" rx="2.5" ry="2.5" style="stroke:#181818;stroke-width:0.5;" width="132" x="1070.5" y="1685.6582"/><text fill="#000000" font-family="sans-serif" font-size="14" lengthAdjust="spacing" textLength="112" x="1080.5" y="1707.7656">vehicleRepository</text><text fill="#000000" font-family="sans-serif" font-size="14" lengthAdjust="spacing" textLength="118" x="1077.5" y="1726.3867">:VehicleRepository</text><rect fill="#E3E3E3" height="51.2422" rx="2.5" ry="2.5" style="stroke:#181818;stroke-width:0.5;" width="142" x="1212.5" y="89.6211"/><text fill="#000000" font-family="sans-serif" font-size="14" lengthAdjust="spacing" textLength="121" x="1223" y="111.7285">checkupRepository</text><text fill="#000000" font-family="sans-serif" font-size="14" lengthAdjust="spacing" textLength="128" x="1219.5" y="130.3496">:CheckupRepository</text><rect fill="#E3E3E3" height="51.2422" rx="2.5" ry="2.5" style="stroke:#181818;stroke-width:0.5;" width="142" x="1212.5" y="1685.6582"/><text fill="#000000" font-family="sans-serif" font-size="14" lengthAdjust="spacing" textLength="121" x="1223" y="1707.7656">checkupRepository</text><text fill="#000000" font-family="sans-serif" font-size="14" lengthAdjust="spacing" textLength="128" x="1219.5" y="1726.3867">:CheckupRepository</text><rect fill="#E3E3E3" height="32.6211" rx="2.5" ry="2.5" style="stroke:#181818;stroke-width:0.5;" width="48" x="1495.5" y="1685.6582"/><text fill="#000000" font-family="sans-serif" font-size="14" lengthAdjust="spacing" textLength="34" x="1502.5" y="1707.7656">:Date</text><rect fill="#E3E3E3" height="32.6211" rx="2.5" ry="2.5" style="stroke:#181818;stroke-width:0.5;" width="120" x="1659.5" y="1685.6582"/><text fill="#000000" font-family="sans-serif" font-size="14" lengthAdjust="spacing" textLength="106" x="1666.5" y="1707.7656">:VehicleCheckup</text><rect fill="#FFFFFF" height="1516.7949" style="stroke:#181818;stroke-width:1.0;" width="10" x="59" y="151.8633"/><rect fill="#FFFFFF" height="368.8223" style="stroke:#181818;stroke-width:1.0;" width="10" x="355" y="175.1543"/><rect fill="#FFFFFF" height="207.7461" style="stroke:#181818;stroke-width:1.0;" width="10" x="355" y="592.5586"/><rect fill="#FFFFFF" height="171.1641" style="stroke:#181818;stroke-width:1.0;" width="10" x="355" y="831.5957"/><rect fill="#FFFFFF" height="634.6074" style="stroke:#181818;stroke-width:1.0;" width="10" x="355" y="1034.0508"/><rect fill="#FFFFFF" height="219.0371" style="stroke:#181818;stroke-width:1.0;" width="10" x="747" y="250.0664"/><rect fill="#FFFFFF" height="572.0254" style="stroke:#181818;stroke-width:1.0;" width="10" x="747" y="1065.3418"/><rect fill="#FFFFFF" height="31.291" style="stroke:#181818;stroke-width:1.0;" width="10" x="900" y="281.3574"/><rect fill="#FFFFFF" height="31.291" style="stroke:#181818;stroke-width:1.0;" width="10" x="900" y="1096.6328"/><rect fill="#FFFFFF" height="31.291" style="stroke:#181818;stroke-width:1.0;" width="10" x="1007" y="343.9395"/><rect fill="#FFFFFF" height="31.291" style="stroke:#181818;stroke-width:1.0;" width="10" x="1007" y="1159.2148"/><rect fill="#FFFFFF" height="31.291" style="stroke:#181818;stroke-width:1.0;" width="10" x="1131.5" y="406.5215"/><rect fill="#FFFFFF" height="384.2793" style="stroke:#181818;stroke-width:1.0;" width="10" x="1278.5" y="1221.7969"/><polygon fill="#181818" points="343,171.1543,353,175.1543,343,179.1543,347,175.1543" style="stroke:#181818;stroke-width:1.0;"/><line style="stroke:#181818;stroke-width:1.0;" x1="69" x2="349" y1="175.1543" y2="175.1543"/><text fill="#000000" font-family="sans-serif" font-size="13" font-weight="bold" lengthAdjust="spacing" textLength="7" x="76" y="169.8916">1</text><text fill="#000000" font-family="sans-serif" font-size="13" lengthAdjust="spacing" textLength="217" x="87" y="169.8916">aks to register a new vehicle checkup</text><polygon fill="#181818" points="645.5,202.4453,655.5,206.4453,645.5,210.4453,649.5,206.4453" style="stroke:#181818;stroke-width:1.0;"/><line style="stroke:#181818;stroke-width:1.0;" x1="365" x2="651.5" y1="206.4453" y2="206.4453"/><text fill="#000000" font-family="sans-serif" font-size="13" font-weight="bold" lengthAdjust="spacing" textLength="7" x="372" y="201.1826">2</text><text fill="#000000" font-family="sans-serif" font-size="13" lengthAdjust="spacing" textLength="36" x="383" y="201.1826">create</text><rect fill="#E3E3E3" height="32.6211" rx="2.5" ry="2.5" style="stroke:#181818;stroke-width:0.5;" width="189" x="657.5" y="183.1543"/><text fill="#000000" font-family="sans-serif" font-size="14" lengthAdjust="spacing" textLength="175" x="664.5" y="205.2617">:RegisterCheckupController</text><polygon fill="#181818" points="735,246.0664,745,250.0664,735,254.0664,739,250.0664" style="stroke:#181818;stroke-width:1.0;"/><line style="stroke:#181818;stroke-width:1.0;" x1="365" x2="741" y1="250.0664" y2="250.0664"/><text fill="#000000" font-family="sans-serif" font-size="13" font-weight="bold" lengthAdjust="spacing" textLength="7" x="372" y="244.8037">3</text><text fill="#000000" font-family="sans-serif" font-size="13" lengthAdjust="spacing" textLength="76" x="383" y="244.8037">getVehicles()</text><polygon fill="#181818" points="888,277.3574,898,281.3574,888,285.3574,892,281.3574" style="stroke:#181818;stroke-width:1.0;"/><line style="stroke:#181818;stroke-width:1.0;" x1="757" x2="894" y1="281.3574" y2="281.3574"/><text fill="#000000" font-family="sans-serif" font-size="13" font-weight="bold" lengthAdjust="spacing" textLength="7" x="764" y="276.0947">4</text><text fill="#000000" font-family="sans-serif" font-size="13" lengthAdjust="spacing" textLength="75" x="775" y="276.0947">getInstance()</text><polygon fill="#181818" points="768,308.6484,758,312.6484,768,316.6484,764,312.6484" style="stroke:#181818;stroke-width:1.0;"/><line style="stroke:#181818;stroke-width:1.0;stroke-dasharray:2.0,2.0;" x1="762" x2="904" y1="312.6484" y2="312.6484"/><text fill="#000000" font-family="sans-serif" font-size="13" font-weight="bold" lengthAdjust="spacing" textLength="7" x="774" y="307.3857">5</text><text fill="#000000" font-family="sans-serif" font-size="13" lengthAdjust="spacing" textLength="67" x="785" y="307.3857">repositories</text><polygon fill="#181818" points="995,339.9395,1005,343.9395,995,347.9395,999,343.9395" style="stroke:#181818;stroke-width:1.0;"/><line style="stroke:#181818;stroke-width:1.0;" x1="757" x2="1001" y1="343.9395" y2="343.9395"/><text fill="#000000" font-family="sans-serif" font-size="13" font-weight="bold" lengthAdjust="spacing" textLength="7" x="764" y="338.6768">6</text><text fill="#000000" font-family="sans-serif" font-size="13" lengthAdjust="spacing" textLength="123" x="775" y="338.6768">getVehicleRepository</text><polygon fill="#181818" points="768,371.2305,758,375.2305,768,379.2305,764,375.2305" style="stroke:#181818;stroke-width:1.0;"/><line style="stroke:#181818;stroke-width:1.0;stroke-dasharray:2.0,2.0;" x1="762" x2="1011" y1="375.2305" y2="375.2305"/><text fill="#000000" font-family="sans-serif" font-size="13" font-weight="bold" lengthAdjust="spacing" textLength="7" x="774" y="369.9678">7</text><text fill="#000000" font-family="sans-serif" font-size="13" lengthAdjust="spacing" textLength="101" x="785" y="369.9678">vehicleRepository</text><polygon fill="#181818" points="1119.5,402.5215,1129.5,406.5215,1119.5,410.5215,1123.5,406.5215" style="stroke:#181818;stroke-width:1.0;"/><line style="stroke:#181818;stroke-width:1.0;" x1="757" x2="1125.5" y1="406.5215" y2="406.5215"/><text fill="#000000" font-family="sans-serif" font-size="13" font-weight="bold" lengthAdjust="spacing" textLength="7" x="764" y="401.2588">8</text><text fill="#000000" font-family="sans-serif" font-size="13" lengthAdjust="spacing" textLength="90" x="775" y="401.2588">getVehicleList()</text><polygon fill="#181818" points="768,433.8125,758,437.8125,768,441.8125,764,437.8125" style="stroke:#181818;stroke-width:1.0;"/><line style="stroke:#181818;stroke-width:1.0;stroke-dasharray:2.0,2.0;" x1="762" x2="1135.5" y1="437.8125" y2="437.8125"/><text fill="#000000" font-family="sans-serif" font-size="13" font-weight="bold" lengthAdjust="spacing" textLength="7" x="774" y="432.5498">9</text><text fill="#000000" font-family="sans-serif" font-size="13" lengthAdjust="spacing" textLength="60" x="785" y="432.5498">vehicleList</text><polygon fill="#181818" points="376,465.1035,366,469.1035,376,473.1035,372,469.1035" style="stroke:#181818;stroke-width:1.0;"/><line style="stroke:#181818;stroke-width:1.0;stroke-dasharray:2.0,2.0;" x1="370" x2="751" y1="469.1035" y2="469.1035"/><text fill="#000000" font-family="sans-serif" font-size="13" font-weight="bold" lengthAdjust="spacing" textLength="14" x="382" y="463.8408">10</text><text fill="#000000" font-family="sans-serif" font-size="13" lengthAdjust="spacing" textLength="60" x="400" y="463.8408">vehicleList</text><path d="M10,484.1035 L83,484.1035 L83,493.3945 L73,503.3945 L10,503.3945 L10,484.1035 " fill="#EEEEEE" style="stroke:#000000;stroke-width:1.5;"/><rect fill="none" height="160.7461" style="stroke:#000000;stroke-width:1.5;" width="622" x="10" y="484.1035"/><text fill="#000000" font-family="sans-serif" font-size="13" font-weight="bold" lengthAdjust="spacing" textLength="28" x="25" y="499.1318">loop</text><text fill="#000000" font-family="sans-serif" font-size="11" font-weight="bold" lengthAdjust="spacing" textLength="140" x="98" y="497.9736">[until typed index is valid]</text><polygon fill="#181818" points="80,539.9766,70,543.9766,80,547.9766,76,543.9766" style="stroke:#181818;stroke-width:1.0;"/><line style="stroke:#181818;stroke-width:1.0;stroke-dasharray:2.0,2.0;" x1="74" x2="359" y1="543.9766" y2="543.9766"/><text fill="#000000" font-family="sans-serif" font-size="13" font-weight="bold" lengthAdjust="spacing" textLength="14" x="86" y="530.0684">11</text><text fill="#000000" font-family="sans-serif" font-size="13" lengthAdjust="spacing" textLength="187" x="104" y="521.4229">displays all vehicles and asks to</text><text fill="#000000" font-family="sans-serif" font-size="13" lengthAdjust="spacing" textLength="113" x="108" y="538.7139">select one by index</text><polygon fill="#181818" points="343,588.5586,353,592.5586,343,596.5586,347,592.5586" style="stroke:#181818;stroke-width:1.0;"/><line style="stroke:#181818;stroke-width:1.0;" x1="69" x2="349" y1="592.5586" y2="592.5586"/><text fill="#000000" font-family="sans-serif" font-size="13" font-weight="bold" lengthAdjust="spacing" textLength="14" x="76" y="578.6504">12</text><text fill="#000000" font-family="sans-serif" font-size="13" lengthAdjust="spacing" textLength="168" x="94" y="570.0049">types the index of the vehicle</text><text fill="#000000" font-family="sans-serif" font-size="13" lengthAdjust="spacing" textLength="111" x="98" y="587.2959">to register checkup</text><line style="stroke:#181818;stroke-width:1.0;stroke-dasharray:2.0,2.0;" x1="365" x2="407" y1="623.8496" y2="623.8496"/><line style="stroke:#181818;stroke-width:1.0;stroke-dasharray:2.0,2.0;" x1="407" x2="407" y1="623.8496" y2="636.8496"/><line style="stroke:#181818;stroke-width:1.0;stroke-dasharray:2.0,2.0;" x1="366" x2="407" y1="636.8496" y2="636.8496"/><polygon fill="#181818" points="376,632.8496,366,636.8496,376,640.8496,372,636.8496" style="stroke:#181818;stroke-width:1.0;"/><text fill="#000000" font-family="sans-serif" font-size="13" font-weight="bold" lengthAdjust="spacing" textLength="14" x="372" y="618.5869">13</text><text fill="#000000" font-family="sans-serif" font-size="13" lengthAdjust="spacing" textLength="230" x="390" y="618.5869">validateIndex(answer, numerOfVehicles)</text><path d="M370,656.8496 L370,700.8496 L608,700.8496 L608,666.8496 L598,656.8496 L370,656.8496 " fill="#FAFAFA" style="stroke:#181818;stroke-width:0.5;"/><path d="M598,656.8496 L598,666.8496 L608,666.8496 L598,656.8496 " fill="#FAFAFA" style="stroke:#181818;stroke-width:0.5;"/><text fill="#000000" font-family="sans-serif" font-size="13" lengthAdjust="spacing" textLength="217" x="376" y="675.8779">saves the vehicle from vehicleList that</text><text fill="#000000" font-family="sans-serif" font-size="13" lengthAdjust="spacing" textLength="163" x="376" y="693.1689">is located in the typed index</text><line style="stroke:#181818;stroke-width:1.0;stroke-dasharray:2.0,2.0;" x1="365" x2="407" y1="729.7227" y2="729.7227"/><line style="stroke:#181818;stroke-width:1.0;stroke-dasharray:2.0,2.0;" x1="407" x2="407" y1="729.7227" y2="742.7227"/><line style="stroke:#181818;stroke-width:1.0;stroke-dasharray:2.0,2.0;" x1="366" x2="407" y1="742.7227" y2="742.7227"/><polygon fill="#181818" points="376,738.7227,366,742.7227,376,746.7227,372,742.7227" style="stroke:#181818;stroke-width:1.0;"/><text fill="#000000" font-family="sans-serif" font-size="13" font-weight="bold" lengthAdjust="spacing" textLength="14" x="372" y="724.46">14</text><text fill="#000000" font-family="sans-serif" font-size="13" lengthAdjust="spacing" textLength="104" x="390" y="724.46">KeepData(vehicle)</text><path d="M10,757.7227 L83,757.7227 L83,767.0137 L73,777.0137 L10,777.0137 L10,757.7227 " fill="#EEEEEE" style="stroke:#000000;stroke-width:1.5;"/><rect fill="none" height="170.4551" style="stroke:#000000;stroke-width:1.5;" width="583" x="10" y="757.7227"/><text fill="#000000" font-family="sans-serif" font-size="13" font-weight="bold" lengthAdjust="spacing" textLength="28" x="25" y="772.751">loop</text><text fill="#000000" font-family="sans-serif" font-size="11" font-weight="bold" lengthAdjust="spacing" textLength="133" x="98" y="771.5928">[until typed data is valid]</text><polygon fill="#181818" points="80,796.3047,70,800.3047,80,804.3047,76,800.3047" style="stroke:#181818;stroke-width:1.0;"/><line style="stroke:#181818;stroke-width:1.0;stroke-dasharray:2.0,2.0;" x1="74" x2="359" y1="800.3047" y2="800.3047"/><text fill="#000000" font-family="sans-serif" font-size="13" font-weight="bold" lengthAdjust="spacing" textLength="14" x="86" y="795.042">15</text><text fill="#000000" font-family="sans-serif" font-size="13" lengthAdjust="spacing" textLength="244" x="104" y="795.042">requests data (checkupData, checkupKm)</text><polygon fill="#181818" points="343,827.5957,353,831.5957,343,835.5957,347,831.5957" style="stroke:#181818;stroke-width:1.0;"/><line style="stroke:#181818;stroke-width:1.0;" x1="69" x2="349" y1="831.5957" y2="831.5957"/><text fill="#000000" font-family="sans-serif" font-size="13" font-weight="bold" lengthAdjust="spacing" textLength="14" x="76" y="826.333">16</text><text fill="#000000" font-family="sans-serif" font-size="13" lengthAdjust="spacing" textLength="122" x="94" y="826.333">types requested data</text><line style="stroke:#181818;stroke-width:1.0;stroke-dasharray:2.0,2.0;" x1="365" x2="407" y1="862.8867" y2="862.8867"/><line style="stroke:#181818;stroke-width:1.0;stroke-dasharray:2.0,2.0;" x1="407" x2="407" y1="862.8867" y2="875.8867"/><line style="stroke:#181818;stroke-width:1.0;stroke-dasharray:2.0,2.0;" x1="366" x2="407" y1="875.8867" y2="875.8867"/><polygon fill="#181818" points="376,871.8867,366,875.8867,376,879.8867,372,875.8867" style="stroke:#181818;stroke-width:1.0;"/><text fill="#000000" font-family="sans-serif" font-size="13" font-weight="bold" lengthAdjust="spacing" textLength="14" x="372" y="857.624">17</text><text fill="#000000" font-family="sans-serif" font-size="13" lengthAdjust="spacing" textLength="154" x="390" y="857.624">validateDate(checkupDate)</text><line style="stroke:#181818;stroke-width:1.0;stroke-dasharray:2.0,2.0;" x1="365" x2="407" y1="907.1777" y2="907.1777"/><line style="stroke:#181818;stroke-width:1.0;stroke-dasharray:2.0,2.0;" x1="407" x2="407" y1="907.1777" y2="920.1777"/><line style="stroke:#181818;stroke-width:1.0;stroke-dasharray:2.0,2.0;" x1="366" x2="407" y1="920.1777" y2="920.1777"/><polygon fill="#181818" points="376,916.1777,366,920.1777,376,924.1777,372,920.1777" style="stroke:#181818;stroke-width:1.0;"/><text fill="#000000" font-family="sans-serif" font-size="13" font-weight="bold" lengthAdjust="spacing" textLength="14" x="372" y="901.915">18</text><text fill="#000000" font-family="sans-serif" font-size="13" lengthAdjust="spacing" textLength="191" x="390" y="901.915">validateCheckupKm(checkupKm)</text><line style="stroke:#181818;stroke-width:1.0;stroke-dasharray:2.0,2.0;" x1="365" x2="407" y1="958.4688" y2="958.4688"/><line style="stroke:#181818;stroke-width:1.0;stroke-dasharray:2.0,2.0;" x1="407" x2="407" y1="958.4688" y2="971.4688"/><line style="stroke:#181818;stroke-width:1.0;stroke-dasharray:2.0,2.0;" x1="366" x2="407" y1="971.4688" y2="971.4688"/><polygon fill="#181818" points="376,967.4688,366,971.4688,376,975.4688,372,971.4688" style="stroke:#181818;stroke-width:1.0;"/><text fill="#000000" font-family="sans-serif" font-size="13" font-weight="bold" lengthAdjust="spacing" textLength="14" x="372" y="953.2061">19</text><text fill="#000000" font-family="sans-serif" font-size="13" lengthAdjust="spacing" textLength="218" x="390" y="953.2061">KeepData(checkupDate, checkupKm)</text><polygon fill="#181818" points="80,998.7598,70,1002.7598,80,1006.7598,76,1002.7598" style="stroke:#181818;stroke-width:1.0;"/><line style="stroke:#181818;stroke-width:1.0;stroke-dasharray:2.0,2.0;" x1="74" x2="359" y1="1002.7598" y2="1002.7598"/><text fill="#000000" font-family="sans-serif" font-size="13" font-weight="bold" lengthAdjust="spacing" textLength="14" x="86" y="997.4971">20</text><text fill="#000000" font-family="sans-serif" font-size="13" lengthAdjust="spacing" textLength="222" x="104" y="997.4971">show all data and request confirmation</text><polygon fill="#181818" points="343,1030.0508,353,1034.0508,343,1038.0508,347,1034.0508" style="stroke:#181818;stroke-width:1.0;"/><line style="stroke:#181818;stroke-width:1.0;" x1="69" x2="349" y1="1034.0508" y2="1034.0508"/><text fill="#000000" font-family="sans-serif" font-size="13" font-weight="bold" lengthAdjust="spacing" textLength="14" x="76" y="1028.7881">21</text><text fill="#000000" font-family="sans-serif" font-size="13" lengthAdjust="spacing" textLength="78" x="94" y="1028.7881">confirms data</text><polygon fill="#181818" points="735,1061.3418,745,1065.3418,735,1069.3418,739,1065.3418" style="stroke:#181818;stroke-width:1.0;"/><line style="stroke:#181818;stroke-width:1.0;" x1="365" x2="741" y1="1065.3418" y2="1065.3418"/><text fill="#000000" font-family="sans-serif" font-size="13" font-weight="bold" lengthAdjust="spacing" textLength="14" x="372" y="1060.0791">22</text><text fill="#000000" font-family="sans-serif" font-size="13" lengthAdjust="spacing" textLength="345" x="390" y="1060.0791">registerVehicleCheckup(vehicle, checkupDate, checkupKm)</text><polygon fill="#181818" points="888,1092.6328,898,1096.6328,888,1100.6328,892,1096.6328" style="stroke:#181818;stroke-width:1.0;"/><line style="stroke:#181818;stroke-width:1.0;" x1="757" x2="894" y1="1096.6328" y2="1096.6328"/><text fill="#000000" font-family="sans-serif" font-size="13" font-weight="bold" lengthAdjust="spacing" textLength="14" x="764" y="1091.3701">23</text><text fill="#000000" font-family="sans-serif" font-size="13" lengthAdjust="spacing" textLength="75" x="782" y="1091.3701">getInstance()</text><polygon fill="#181818" points="768,1123.9238,758,1127.9238,768,1131.9238,764,1127.9238" style="stroke:#181818;stroke-width:1.0;"/><line style="stroke:#181818;stroke-width:1.0;stroke-dasharray:2.0,2.0;" x1="762" x2="904" y1="1127.9238" y2="1127.9238"/><text fill="#000000" font-family="sans-serif" font-size="13" font-weight="bold" lengthAdjust="spacing" textLength="14" x="774" y="1122.6611">24</text><text fill="#000000" font-family="sans-serif" font-size="13" lengthAdjust="spacing" textLength="67" x="792" y="1122.6611">repositories</text><polygon fill="#181818" points="995,1155.2148,1005,1159.2148,995,1163.2148,999,1159.2148" style="stroke:#181818;stroke-width:1.0;"/><line style="stroke:#181818;stroke-width:1.0;" x1="757" x2="1001" y1="1159.2148" y2="1159.2148"/><text fill="#000000" font-family="sans-serif" font-size="13" font-weight="bold" lengthAdjust="spacing" textLength="14" x="764" y="1153.9521">25</text><text fill="#000000" font-family="sans-serif" font-size="13" lengthAdjust="spacing" textLength="139" x="782" y="1153.9521">getCheckupRepository()</text><polygon fill="#181818" points="768,1186.5059,758,1190.5059,768,1194.5059,764,1190.5059" style="stroke:#181818;stroke-width:1.0;"/><line style="stroke:#181818;stroke-width:1.0;stroke-dasharray:2.0,2.0;" x1="762" x2="1011" y1="1190.5059" y2="1190.5059"/><text fill="#000000" font-family="sans-serif" font-size="13" font-weight="bold" lengthAdjust="spacing" textLength="14" x="774" y="1185.2432">26</text><text fill="#000000" font-family="sans-serif" font-size="13" lengthAdjust="spacing" textLength="111" x="792" y="1185.2432">checkupRepository</text><polygon fill="#181818" points="1266.5,1217.7969,1276.5,1221.7969,1266.5,1225.7969,1270.5,1221.7969" style="stroke:#181818;stroke-width:1.0;"/><line style="stroke:#181818;stroke-width:1.0;" x1="757" x2="1272.5" y1="1221.7969" y2="1221.7969"/><text fill="#000000" font-family="sans-serif" font-size="13" font-weight="bold" lengthAdjust="spacing" textLength="14" x="764" y="1216.5342">27</text><text fill="#000000" font-family="sans-serif" font-size="13" lengthAdjust="spacing" textLength="345" x="782" y="1216.5342">registerVehicleCheckup(vehicle, checkupDate, checkupKm)</text><polygon fill="#181818" points="1483.5,1249.0879,1493.5,1253.0879,1483.5,1257.0879,1487.5,1253.0879" style="stroke:#181818;stroke-width:1.0;"/><line style="stroke:#181818;stroke-width:1.0;" x1="1288.5" x2="1489.5" y1="1253.0879" y2="1253.0879"/><text fill="#000000" font-family="sans-serif" font-size="13" font-weight="bold" lengthAdjust="spacing" textLength="14" x="1295.5" y="1247.8252">28</text><text fill="#000000" font-family="sans-serif" font-size="13" lengthAdjust="spacing" textLength="138" x="1313.5" y="1247.8252">new Date(checkupDate)</text><rect fill="#E3E3E3" height="32.6211" rx="2.5" ry="2.5" style="stroke:#181818;stroke-width:0.5;" width="48" x="1495.5" y="1229.7969"/><text fill="#000000" font-family="sans-serif" font-size="14" lengthAdjust="spacing" textLength="34" x="1502.5" y="1251.9043">:Date</text><line style="stroke:#181818;stroke-width:1.0;stroke-dasharray:2.0,2.0;" x1="1519.5" x2="1561.5" y1="1296.709" y2="1296.709"/><line style="stroke:#181818;stroke-width:1.0;stroke-dasharray:2.0,2.0;" x1="1561.5" x2="1561.5" y1="1296.709" y2="1309.709"/><line style="stroke:#181818;stroke-width:1.0;stroke-dasharray:2.0,2.0;" x1="1520.5" x2="1561.5" y1="1309.709" y2="1309.709"/><polygon fill="#181818" points="1530.5,1305.709,1520.5,1309.709,1530.5,1313.709,1526.5,1309.709" style="stroke:#181818;stroke-width:1.0;"/><text fill="#000000" font-family="sans-serif" font-size="13" font-weight="bold" lengthAdjust="spacing" textLength="14" x="1526.5" y="1291.4463">29</text><text fill="#000000" font-family="sans-serif" font-size="13" lengthAdjust="spacing" textLength="154" x="1544.5" y="1291.4463">validateDate(checkupDate)</text><polygon fill="#181818" points="1647.5,1337,1657.5,1341,1647.5,1345,1651.5,1341" style="stroke:#181818;stroke-width:1.0;"/><line style="stroke:#181818;stroke-width:1.0;" x1="1288.5" x2="1653.5" y1="1341" y2="1341"/><text fill="#000000" font-family="sans-serif" font-size="13" font-weight="bold" lengthAdjust="spacing" textLength="14" x="1295.5" y="1335.7373">30</text><text fill="#000000" font-family="sans-serif" font-size="13" lengthAdjust="spacing" textLength="329" x="1313.5" y="1335.7373">new VehicleCheckup(vehicle, checkupDate, checkupKm)</text><rect fill="#E3E3E3" height="32.6211" rx="2.5" ry="2.5" style="stroke:#181818;stroke-width:0.5;" width="120" x="1659.5" y="1317.709"/><text fill="#000000" font-family="sans-serif" font-size="14" lengthAdjust="spacing" textLength="106" x="1666.5" y="1339.8164">:VehicleCheckup</text><line style="stroke:#181818;stroke-width:1.0;stroke-dasharray:2.0,2.0;" x1="1719.5" x2="1761.5" y1="1384.6211" y2="1384.6211"/><line style="stroke:#181818;stroke-width:1.0;stroke-dasharray:2.0,2.0;" x1="1761.5" x2="1761.5" y1="1384.6211" y2="1397.6211"/><line style="stroke:#181818;stroke-width:1.0;stroke-dasharray:2.0,2.0;" x1="1720.5" x2="1761.5" y1="1397.6211" y2="1397.6211"/><polygon fill="#181818" points="1730.5,1393.6211,1720.5,1397.6211,1730.5,1401.6211,1726.5,1397.6211" style="stroke:#181818;stroke-width:1.0;"/><text fill="#000000" font-family="sans-serif" font-size="13" font-weight="bold" lengthAdjust="spacing" textLength="14" x="1726.5" y="1379.3584">31</text><text fill="#000000" font-family="sans-serif" font-size="13" lengthAdjust="spacing" textLength="133" x="1744.5" y="1379.3584">validateVehicle(vehicle)</text><line style="stroke:#181818;stroke-width:1.0;stroke-dasharray:2.0,2.0;" x1="1719.5" x2="1761.5" y1="1428.9121" y2="1428.9121"/><line style="stroke:#181818;stroke-width:1.0;stroke-dasharray:2.0,2.0;" x1="1761.5" x2="1761.5" y1="1428.9121" y2="1441.9121"/><line style="stroke:#181818;stroke-width:1.0;stroke-dasharray:2.0,2.0;" x1="1720.5" x2="1761.5" y1="1441.9121" y2="1441.9121"/><polygon fill="#181818" points="1730.5,1437.9121,1720.5,1441.9121,1730.5,1445.9121,1726.5,1441.9121" style="stroke:#181818;stroke-width:1.0;"/><text fill="#000000" font-family="sans-serif" font-size="13" font-weight="bold" lengthAdjust="spacing" textLength="14" x="1726.5" y="1423.6494">32</text><text fill="#000000" font-family="sans-serif" font-size="13" lengthAdjust="spacing" textLength="205" x="1744.5" y="1423.6494">validateCheckupDate(checkupDate)</text><line style="stroke:#181818;stroke-width:1.0;stroke-dasharray:2.0,2.0;" x1="1719.5" x2="1761.5" y1="1473.2031" y2="1473.2031"/><line style="stroke:#181818;stroke-width:1.0;stroke-dasharray:2.0,2.0;" x1="1761.5" x2="1761.5" y1="1473.2031" y2="1486.2031"/><line style="stroke:#181818;stroke-width:1.0;stroke-dasharray:2.0,2.0;" x1="1720.5" x2="1761.5" y1="1486.2031" y2="1486.2031"/><polygon fill="#181818" points="1730.5,1482.2031,1720.5,1486.2031,1730.5,1490.2031,1726.5,1486.2031" style="stroke:#181818;stroke-width:1.0;"/><text fill="#000000" font-family="sans-serif" font-size="13" font-weight="bold" lengthAdjust="spacing" textLength="14" x="1726.5" y="1467.9404">33</text><text fill="#000000" font-family="sans-serif" font-size="13" lengthAdjust="spacing" textLength="198" x="1744.5" y="1467.9404">validateCheckupKms(checkupKm)</text><line style="stroke:#181818;stroke-width:1.0;stroke-dasharray:2.0,2.0;" x1="1288.5" x2="1330.5" y1="1517.4941" y2="1517.4941"/><line style="stroke:#181818;stroke-width:1.0;stroke-dasharray:2.0,2.0;" x1="1330.5" x2="1330.5" y1="1517.4941" y2="1530.4941"/><line style="stroke:#181818;stroke-width:1.0;stroke-dasharray:2.0,2.0;" x1="1289.5" x2="1330.5" y1="1530.4941" y2="1530.4941"/><polygon fill="#181818" points="1299.5,1526.4941,1289.5,1530.4941,1299.5,1534.4941,1295.5,1530.4941" style="stroke:#181818;stroke-width:1.0;"/><text fill="#000000" font-family="sans-serif" font-size="13" font-weight="bold" lengthAdjust="spacing" textLength="14" x="1295.5" y="1512.2314">34</text><text fill="#000000" font-family="sans-serif" font-size="13" lengthAdjust="spacing" textLength="78" x="1313.5" y="1512.2314">add(checkup)</text><line style="stroke:#181818;stroke-width:1.0;stroke-dasharray:2.0,2.0;" x1="1288.5" x2="1330.5" y1="1561.7852" y2="1561.7852"/><line style="stroke:#181818;stroke-width:1.0;stroke-dasharray:2.0,2.0;" x1="1330.5" x2="1330.5" y1="1561.7852" y2="1574.7852"/><line style="stroke:#181818;stroke-width:1.0;stroke-dasharray:2.0,2.0;" x1="1289.5" x2="1330.5" y1="1574.7852" y2="1574.7852"/><polygon fill="#181818" points="1299.5,1570.7852,1289.5,1574.7852,1299.5,1578.7852,1295.5,1574.7852" style="stroke:#181818;stroke-width:1.0;"/><text fill="#000000" font-family="sans-serif" font-size="13" font-weight="bold" lengthAdjust="spacing" textLength="14" x="1295.5" y="1556.5225">35</text><text fill="#000000" font-family="sans-serif" font-size="13" lengthAdjust="spacing" textLength="194" x="1313.5" y="1556.5225">validateVehicleCheckup(checkup)</text><polygon fill="#181818" points="768,1602.0762,758,1606.0762,768,1610.0762,764,1606.0762" style="stroke:#181818;stroke-width:1.0;"/><line style="stroke:#181818;stroke-width:1.0;stroke-dasharray:2.0,2.0;" x1="762" x2="1282.5" y1="1606.0762" y2="1606.0762"/><text fill="#000000" font-family="sans-serif" font-size="13" font-weight="bold" lengthAdjust="spacing" textLength="14" x="774" y="1600.8135">36</text><text fill="#000000" font-family="sans-serif" font-size="13" lengthAdjust="spacing" textLength="49" x="792" y="1600.8135">checkup</text><polygon fill="#181818" points="376,1633.3672,366,1637.3672,376,1641.3672,372,1637.3672" style="stroke:#181818;stroke-width:1.0;"/><line style="stroke:#181818;stroke-width:1.0;stroke-dasharray:2.0,2.0;" x1="370" x2="751" y1="1637.3672" y2="1637.3672"/><text fill="#000000" font-family="sans-serif" font-size="13" font-weight="bold" lengthAdjust="spacing" textLength="14" x="382" y="1632.1045">37</text><text fill="#000000" font-family="sans-serif" font-size="13" lengthAdjust="spacing" textLength="49" x="400" y="1632.1045">checkup</text><polygon fill="#181818" points="75,1664.6582,65,1668.6582,75,1672.6582,71,1668.6582" style="stroke:#181818;stroke-width:1.0;"/><line style="stroke:#181818;stroke-width:1.0;stroke-dasharray:2.0,2.0;" x1="69" x2="359" y1="1668.6582" y2="1668.6582"/><text fill="#000000" font-family="sans-serif" font-size="13" font-weight="bold" lengthAdjust="spacing" textLength="14" x="81" y="1663.3955">38</text><text fill="#000000" font-family="sans-serif" font-size="13" lengthAdjust="spacing" textLength="151" x="99" y="1663.3955">display operation success</text><!--SRC=[tLR1Rjim3BtxAuYUac85UXkGmoxf2WHjqQ5PU-f5bPb4Y2Dvaf8iVpzAbXt9ZjrqtMa-sHRv-FX8IZ9h8KkcsGOsIYg-qcg3OFKMCzEib8olsHBdzb0WQEIMoMKH6vWLozLUo2KiM64mowomPFeylxx-2bSmnrzRb1pXHh2bin_DvpVZB6DRg-HsyuQQthbL6YvUS2KukTuMYFPLmWEJ55bV03FmSlkGKJmhk2YPj70nUSAbC1RrT8LylIsVPzxkUJPiDbNIQbKK0NRwy-c-ur0g8uYGGEDjdhx_U9odHZgoUPKzBZDfI2oEgUkkIh9nEP3_I_jVbNBuIrWf1AzIII2cxNzLUk5l1s9omonw4_VIMWk1WtCCv4ibTkJY2v81FVG2Lzz8U9W0MnkmYjgaqXmOIDn3I1a2R-_Lu531_0_t40OXkPfSNX8Qr-Z8TLTfROasq3IZSMFIeFgwDh_Tu_t8tvUc0gWB504a85NXapNtL0XNHovnDoJMEGvX9OngBabgnseE46pQx3JH1ZWYl1k4RxC-7Q1c7tLfmlsUEg1FsBYpEwnZm2vd1zl7DeRjKgrxz1HG1E8xfr2gXAsqeW1xA3478NFy3SB0ZXKYJrhIQK0ZC85ScB9W1mEiAEeez25p6Y0_5xIb6Ine2mKb4TuE5MhM8b0FH3nNZWGXh30GKGl_4O8GRZnqVMFM8bs9uTAXzPc37J5fzgY_0EtBg1yNzO2DCwGad2ODXbI4gSLoPHsN2DmzXkq2stho5tIonCBJ8alBID8MYXCJfxNtZOHlB1qF5_faBdU89UrcR1G2ZRjbf5JPErNKxhmorbIseo2cm_rIAtkt6PzVj80NWW_lVUsgkBqvOe3ZGUjfpMuKyUnKxgHYKOnEbXs5p4hjVOzxXLn_Xno1AxaGUiEiKF8SXOAzEKEQQBEjsZmzfEgQD-nxK_bVZeZEWJz8yIyEYSujunE7H7GF-GSbJCiONN4woSLnYOP3z3SBTolf7wxuSIjU5VzopcZsn0wVJVZF9DyAKLKjl1yfXWZ7xV3Z4DCZcVUbEWlgRcD60rabedKQX-LvxVnHrvOejUpdeoL3qJSAlSsONa7QAEthn-3z0bI9sc-nOBQSep6djjhuMaGtzJy0]--></g></svg>