<?xml version="1.0" encoding="us-ascii" standalone="no"?><svg xmlns="http://www.w3.org/2000/svg" xmlns:xlink="http://www.w3.org/1999/xlink" contentStyleType="text/css" height="815.2px" preserveAspectRatio="none" style="width:1386px;height:815px;background:#FFFFFF;" version="1.1" viewBox="0 0 1386 815" width="1386.4px" zoomAndPan="magnify"><defs/><g><text fill="#000000" font-family="sans-serif" font-size="11.2" font-weight="bold" lengthAdjust="spacing" textLength="80" x="647.6" y="20.0859">Domain Model</text><!--class Organization--><g id="elem_Organization"><rect codeLine="12" fill="#F1F1F1" height="103.7813" id="Organization" rx="2" ry="2" style="stroke:#181818;stroke-width:0.4000000000000001;" width="80.8" x="5.6" y="205.907"/><text fill="#000000" font-family="sans-serif" font-size="11.2" lengthAdjust="spacing" textLength="64" x="14" y="221.993">Organization</text><line style="stroke:#181818;stroke-width:0.4000000000000001;" x1="6.4" x2="85.6" y1="228.8039" y2="228.8039"/><text fill="#000000" font-family="sans-serif" font-size="11.2" lengthAdjust="spacing" textLength="28" x="10.4" y="244.0898">name</text><text fill="#000000" font-family="sans-serif" font-size="11.2" lengthAdjust="spacing" textLength="12" x="10.4" y="258.9867">nif</text><text fill="#000000" font-family="sans-serif" font-size="11.2" lengthAdjust="spacing" textLength="37.6" x="10.4" y="273.8836">website</text><text fill="#000000" font-family="sans-serif" font-size="11.2" lengthAdjust="spacing" textLength="71.2" x="10.4" y="288.7805">phoneNumber</text><text fill="#000000" font-family="sans-serif" font-size="11.2" lengthAdjust="spacing" textLength="26.4" x="10.4" y="303.6773">email</text></g><!--class Skill--><g id="elem_Skill"><rect codeLine="20" fill="#F1F1F1" height="44.1938" id="Skill" rx="2" ry="2" style="stroke:#181818;stroke-width:0.4000000000000001;" width="37.6" x="1323.2" y="627.107"/><text fill="#000000" font-family="sans-serif" font-size="11.2" lengthAdjust="spacing" textLength="20" x="1332" y="643.193">Skill</text><line style="stroke:#181818;stroke-width:0.4000000000000001;" x1="1324" x2="1360" y1="650.0039" y2="650.0039"/><text fill="#000000" font-family="sans-serif" font-size="11.2" lengthAdjust="spacing" textLength="28" x="1328" y="665.2898">name</text></g><!--class Collaborator--><g id="elem_Collaborator"><rect codeLine="25" fill="#F1F1F1" height="133.575" id="Collaborator" rx="2" ry="2" style="stroke:#181818;stroke-width:0.4000000000000001;" width="84" x="1050.4" y="413.507"/><text fill="#000000" font-family="sans-serif" font-size="11.2" lengthAdjust="spacing" textLength="62.4" x="1061.2" y="429.593">Collaborator</text><line style="stroke:#181818;stroke-width:0.4000000000000001;" x1="1051.2" x2="1133.6" y1="436.4039" y2="436.4039"/><text fill="#000000" font-family="sans-serif" font-size="11.2" lengthAdjust="spacing" textLength="28" x="1055.2" y="451.6898">name</text><text fill="#000000" font-family="sans-serif" font-size="11.2" lengthAdjust="spacing" textLength="74.4" x="1055.2" y="466.5867">admissionDate</text><text fill="#000000" font-family="sans-serif" font-size="11.2" lengthAdjust="spacing" textLength="46.4" x="1055.2" y="481.4836">birthDate</text><text fill="#000000" font-family="sans-serif" font-size="11.2" lengthAdjust="spacing" textLength="71.2" x="1055.2" y="496.3805">phoneNumber</text><text fill="#000000" font-family="sans-serif" font-size="11.2" lengthAdjust="spacing" textLength="26.4" x="1055.2" y="511.2773">email</text><text fill="#000000" font-family="sans-serif" font-size="11.2" lengthAdjust="spacing" textLength="54.4" x="1055.2" y="526.1742">idDocType</text><text fill="#000000" font-family="sans-serif" font-size="11.2" lengthAdjust="spacing" textLength="68" x="1055.2" y="541.0711">idDocNumber</text></g><!--class Job--><g id="elem_Job"><rect codeLine="35" fill="#F1F1F1" height="44.1938" id="Job" rx="2" ry="2" style="stroke:#181818;stroke-width:0.4000000000000001;" width="37.6" x="1214" y="634.307"/><text fill="#000000" font-family="sans-serif" font-size="11.2" lengthAdjust="spacing" textLength="17.6" x="1224" y="650.393">Job</text><line style="stroke:#181818;stroke-width:0.4000000000000001;" x1="1214.8" x2="1250.8" y1="657.2039" y2="657.2039"/><text fill="#000000" font-family="sans-serif" font-size="11.2" lengthAdjust="spacing" textLength="28" x="1218.8" y="672.4898">name</text></g><!--class HRM--><g id="elem_HRM"><rect codeLine="39" fill="#F1F1F1" height="29.2969" id="HRM" rx="2" ry="2" style="stroke:#181818;stroke-width:0.4000000000000001;" width="28.8" x="685.6" y="629.507"/><text fill="#000000" font-family="sans-serif" font-size="11.2" lengthAdjust="spacing" textLength="24" x="688" y="645.593">HRM</text><line style="stroke:#181818;stroke-width:0.4000000000000001;" x1="686.4" x2="713.6" y1="652.4039" y2="652.4039"/></g><!--class FM--><g id="elem_FM"><rect codeLine="43" fill="#F1F1F1" height="29.2969" id="FM" rx="2" ry="2" style="stroke:#181818;stroke-width:0.4000000000000001;" width="20.8" x="35.6" y="611.107"/><text fill="#000000" font-family="sans-serif" font-size="11.2" lengthAdjust="spacing" textLength="16" x="38" y="627.193">FM</text><line style="stroke:#181818;stroke-width:0.4000000000000001;" x1="36.4" x2="55.6" y1="634.0039" y2="634.0039"/></g><!--class Team--><g id="elem_Team"><rect codeLine="47" fill="#F1F1F1" height="88.8844" id="Team" rx="2" ry="2" style="stroke:#181818;stroke-width:0.4000000000000001;" width="64.8" x="880" y="348.707"/><text fill="#000000" font-family="sans-serif" font-size="11.2" lengthAdjust="spacing" textLength="28.8" x="898" y="364.793">Team</text><line style="stroke:#181818;stroke-width:0.4000000000000001;" x1="880.8" x2="944" y1="371.6039" y2="371.6039"/><text fill="#000000" font-family="sans-serif" font-size="11.2" lengthAdjust="spacing" textLength="28" x="884.8" y="386.8898">name</text><text fill="#000000" font-family="sans-serif" font-size="11.2" lengthAdjust="spacing" textLength="55.2" x="884.8" y="401.7867">description</text><text fill="#000000" font-family="sans-serif" font-size="11.2" lengthAdjust="spacing" textLength="46.4" x="884.8" y="416.6836">members</text><text fill="#000000" font-family="sans-serif" font-size="11.2" lengthAdjust="spacing" textLength="30.4" x="884.8" y="431.5805">status</text></g><!--class Vehicle--><g id="elem_Vehicle"><rect codeLine="54" fill="#F1F1F1" height="178.2656" id="Vehicle" rx="2" ry="2" style="stroke:#181818;stroke-width:0.4000000000000001;" width="128" x="436" y="529.507"/><text fill="#000000" font-family="sans-serif" font-size="11.2" lengthAdjust="spacing" textLength="36.8" x="481.6" y="545.593">Vehicle</text><line style="stroke:#181818;stroke-width:0.4000000000000001;" x1="436.8" x2="563.2" y1="552.4039" y2="552.4039"/><text fill="#000000" font-family="sans-serif" font-size="11.2" lengthAdjust="spacing" textLength="33.6" x="440.8" y="567.6898">plateId</text><text fill="#000000" font-family="sans-serif" font-size="11.2" lengthAdjust="spacing" textLength="29.6" x="440.8" y="582.5867">brand</text><text fill="#000000" font-family="sans-serif" font-size="11.2" lengthAdjust="spacing" textLength="30.4" x="440.8" y="597.4836">model</text><text fill="#000000" font-family="sans-serif" font-size="11.2" lengthAdjust="spacing" textLength="21.6" x="440.8" y="612.3805">type</text><text fill="#000000" font-family="sans-serif" font-size="11.2" lengthAdjust="spacing" textLength="20" x="440.8" y="627.2773">tare</text><text fill="#000000" font-family="sans-serif" font-size="11.2" lengthAdjust="spacing" textLength="63.2" x="440.8" y="642.1742">grossWeight</text><text fill="#000000" font-family="sans-serif" font-size="11.2" lengthAdjust="spacing" textLength="52" x="440.8" y="657.0711">currentKm</text><text fill="#000000" font-family="sans-serif" font-size="11.2" lengthAdjust="spacing" textLength="62.4" x="440.8" y="671.968">registerDate</text><text fill="#000000" font-family="sans-serif" font-size="11.2" lengthAdjust="spacing" textLength="77.6" x="440.8" y="686.8648">acquisitionDate</text><text fill="#000000" font-family="sans-serif" font-size="11.2" lengthAdjust="spacing" textLength="118.4" x="440.8" y="701.7617">checkupFrequencyKms</text></g><!--class Checkup--><g id="elem_Checkup"><rect codeLine="67" fill="#F1F1F1" height="59.0906" id="Checkup" rx="2" ry="2" style="stroke:#181818;stroke-width:0.4000000000000001;" width="73.6" x="463.2" y="750.707"/><text fill="#000000" font-family="sans-serif" font-size="11.2" lengthAdjust="spacing" textLength="44.8" x="477.6" y="766.793">Checkup</text><line style="stroke:#181818;stroke-width:0.4000000000000001;" x1="464" x2="536" y1="773.6039" y2="773.6039"/><text fill="#000000" font-family="sans-serif" font-size="11.2" lengthAdjust="spacing" textLength="22.4" x="468" y="788.8898">date</text><text fill="#000000" font-family="sans-serif" font-size="11.2" lengthAdjust="spacing" textLength="64" x="468" y="803.7867">checkupKms</text></g><!--class CheckupList--><g id="elem_CheckupList"><rect codeLine="71" fill="#F1F1F1" height="29.2969" id="CheckupList" rx="2" ry="2" style="stroke:#181818;stroke-width:0.4000000000000001;" width="67.2" x="229.2" y="665.507"/><text fill="#000000" font-family="sans-serif" font-size="11.2" lengthAdjust="spacing" textLength="62.4" x="231.6" y="681.593">CheckupList</text><line style="stroke:#181818;stroke-width:0.4000000000000001;" x1="230" x2="295.6" y1="688.4039" y2="688.4039"/></g><!--class GreenSpace--><g id="elem_GreenSpace"><rect codeLine="75" fill="#F1F1F1" height="73.9875" id="GreenSpace" rx="2" ry="2" style="stroke:#181818;stroke-width:0.4000000000000001;" width="68.8" x="665.6" y="151.507"/><text fill="#000000" font-family="sans-serif" font-size="11.2" lengthAdjust="spacing" textLength="64" x="668" y="167.593">GreenSpace</text><line style="stroke:#181818;stroke-width:0.4000000000000001;" x1="666.4" x2="733.6" y1="174.4039" y2="174.4039"/><text fill="#000000" font-family="sans-serif" font-size="11.2" lengthAdjust="spacing" textLength="28" x="670.4" y="189.6898">name</text><text fill="#000000" font-family="sans-serif" font-size="11.2" lengthAdjust="spacing" textLength="21.6" x="670.4" y="204.5867">type</text><text fill="#000000" font-family="sans-serif" font-size="11.2" lengthAdjust="spacing" textLength="55.2" x="670.4" y="219.4836">description</text></g><!--class Address--><g id="elem_Address"><rect codeLine="82" fill="#F1F1F1" height="103.7813" id="Address" rx="2" ry="2" style="stroke:#181818;stroke-width:0.4000000000000001;" width="77.6" x="1303.2" y="113.907"/><text fill="#000000" font-family="sans-serif" font-size="11.2" lengthAdjust="spacing" textLength="41.6" x="1321.2" y="129.993">Address</text><line style="stroke:#181818;stroke-width:0.4000000000000001;" x1="1304" x2="1380" y1="136.8039" y2="136.8039"/><text fill="#000000" font-family="sans-serif" font-size="11.2" lengthAdjust="spacing" textLength="28.8" x="1308" y="152.0898">street</text><text fill="#000000" font-family="sans-serif" font-size="11.2" lengthAdjust="spacing" textLength="68" x="1308" y="166.9867">streetNumber</text><text fill="#000000" font-family="sans-serif" font-size="11.2" lengthAdjust="spacing" textLength="57.6" x="1308" y="181.8836">postalCode</text><text fill="#000000" font-family="sans-serif" font-size="11.2" lengthAdjust="spacing" textLength="16.8" x="1308" y="196.7805">city</text><text fill="#000000" font-family="sans-serif" font-size="11.2" lengthAdjust="spacing" textLength="32.8" x="1308" y="211.6773">district</text></g><!--class Task--><g id="elem_Task"><rect codeLine="90" fill="#F1F1F1" height="88.8844" id="Task" rx="2" ry="2" style="stroke:#181818;stroke-width:0.4000000000000001;" width="51.2" x="674.4" y="355.107"/><text fill="#000000" font-family="sans-serif" font-size="11.2" lengthAdjust="spacing" textLength="24.8" x="687.6" y="371.193">Task</text><line style="stroke:#181818;stroke-width:0.4000000000000001;" x1="675.2" x2="724.8" y1="378.0039" y2="378.0039"/><text fill="#000000" font-family="sans-serif" font-size="11.2" lengthAdjust="spacing" textLength="17.6" x="679.2" y="393.2898">title</text><text fill="#000000" font-family="sans-serif" font-size="11.2" lengthAdjust="spacing" textLength="41.6" x="679.2" y="408.1867">duration</text><text fill="#000000" font-family="sans-serif" font-size="11.2" lengthAdjust="spacing" textLength="30.4" x="679.2" y="423.0836">status</text><text fill="#000000" font-family="sans-serif" font-size="11.2" lengthAdjust="spacing" textLength="34.4" x="679.2" y="437.9805">priority</text></g><!--class UserPortal--><g id="elem_UserPortal"><rect codeLine="97" fill="#F1F1F1" height="59.0906" id="UserPortal" rx="2" ry="2" style="stroke:#181818;stroke-width:0.4000000000000001;" width="57.6" x="471.2" y="233.107"/><text fill="#000000" font-family="sans-serif" font-size="11.2" lengthAdjust="spacing" textLength="52.8" x="473.6" y="249.193">UserPortal</text><line style="stroke:#181818;stroke-width:0.4000000000000001;" x1="472" x2="528" y1="256.0039" y2="256.0039"/><text fill="#000000" font-family="sans-serif" font-size="11.2" lengthAdjust="spacing" textLength="28" x="476" y="271.2898">name</text><text fill="#000000" font-family="sans-serif" font-size="11.2" lengthAdjust="spacing" textLength="12.8" x="476" y="286.1867">url</text></g><!--class Comment--><g id="elem_Comment"><rect codeLine="102" fill="#F1F1F1" height="73.9875" id="Comment" rx="2" ry="2" style="stroke:#181818;stroke-width:0.4000000000000001;" width="52.8" x="673.6" y="253.107"/><text fill="#000000" font-family="sans-serif" font-size="11.2" lengthAdjust="spacing" textLength="48" x="676" y="269.193">Comment</text><line style="stroke:#181818;stroke-width:0.4000000000000001;" x1="674.4" x2="725.6" y1="276.0039" y2="276.0039"/><text fill="#000000" font-family="sans-serif" font-size="11.2" lengthAdjust="spacing" textLength="17.6" x="678.4" y="291.2898">text</text><text fill="#000000" font-family="sans-serif" font-size="11.2" lengthAdjust="spacing" textLength="22.4" x="678.4" y="306.1867">date</text><text fill="#000000" font-family="sans-serif" font-size="11.2" lengthAdjust="spacing" textLength="32.8" x="678.4" y="321.0836">author</text></g><!--class Agenda--><g id="elem_Agenda"><rect fill="#F1F1F1" height="29.2969" id="Agenda" rx="2" ry="2" style="stroke:#181818;stroke-width:0.4000000000000001;" width="44" x="478" y="323.107"/><text fill="#000000" font-family="sans-serif" font-size="11.2" lengthAdjust="spacing" textLength="39.2" x="480.4" y="339.193">Agenda</text><line style="stroke:#181818;stroke-width:0.4000000000000001;" x1="478.8" x2="521.2" y1="346.0039" y2="346.0039"/></g><!--class GSU--><g id="elem_GSU"><rect fill="#F1F1F1" height="29.2969" id="GSU" rx="2" ry="2" style="stroke:#181818;stroke-width:0.4000000000000001;" width="28" x="898.4" y="287.107"/><text fill="#000000" font-family="sans-serif" font-size="11.2" lengthAdjust="spacing" textLength="23.2" x="900.8" y="303.193">GSU</text><line style="stroke:#181818;stroke-width:0.4000000000000001;" x1="899.2" x2="925.6" y1="310.0039" y2="310.0039"/></g><!--class GSM--><g id="elem_GSM"><rect fill="#F1F1F1" height="29.2969" id="GSM" rx="2" ry="2" style="stroke:#181818;stroke-width:0.4000000000000001;" width="29.6" x="897.6" y="212.707"/><text fill="#000000" font-family="sans-serif" font-size="11.2" lengthAdjust="spacing" textLength="24.8" x="900" y="228.793">GSM</text><line style="stroke:#181818;stroke-width:0.4000000000000001;" x1="898.4" x2="926.4" y1="235.6039" y2="235.6039"/></g><!--link Organization to Task--><g id="link_Organization_Task"><path codeLine="108" d="M86.472,280.787 C94.248,284.715 102.456,288.499 110.4,291.507 C318.848,370.539 591.352,392.955 674.232,398.147 " fill="none" id="Organization-Task" style="stroke:#181818;stroke-width:0.8000000000000002;"/><polygon fill="#000000" points="357.9226,346.4067,351.2869,342.6842,350.3662,347.2954,357.9226,346.4067" style="stroke:#000000;stroke-width:0.8000000000000002;"/><text fill="#000000" font-family="sans-serif" font-size="10.4" lengthAdjust="spacing" textLength="24" x="361.2" y="349.9297">owns</text><text fill="#000000" font-family="sans-serif" font-size="10.4" lengthAdjust="spacing" textLength="5.6" x="92.8276" y="296.4021">1</text><text fill="#000000" font-family="sans-serif" font-size="10.4" lengthAdjust="spacing" textLength="4" x="664.1578" y="410.5759">*</text></g><!--link Organization to Agenda--><g id="link_Organization_Agenda"><path codeLine="109" d="M86.552,264.939 C179.264,281.331 407.304,321.659 477.968,334.155 " fill="none" id="Organization-Agenda" style="stroke:#181818;stroke-width:0.8000000000000002;"/><polygon fill="#000000" points="252.7389,283.92,246.0228,280.3447,245.204,284.9752,252.7389,283.92" style="stroke:#000000;stroke-width:0.8000000000000002;"/><text fill="#000000" font-family="sans-serif" font-size="10.4" lengthAdjust="spacing" textLength="24" x="256" y="287.5297">owns</text><text fill="#000000" font-family="sans-serif" font-size="10.4" lengthAdjust="spacing" textLength="5.6" x="92.9193" y="278.2264">1</text><text fill="#000000" font-family="sans-serif" font-size="10.4" lengthAdjust="spacing" textLength="5.6" x="466.0048" y="346.2274">1</text></g><!--link Organization to Address--><g id="link_Organization_Address"><path codeLine="110" d="M64.688,205.691 C75.088,181.163 90.176,152.875 110.4,132.307 C163.816,77.987 185.816,52.307 262,52.307 C262,52.307 262,52.307 1233.6,52.307 C1270.272,52.307 1298.192,83.899 1316.384,113.763 " fill="none" id="Organization-Address" style="stroke:#181818;stroke-width:0.8000000000000002;"/><polygon fill="#000000" points="787.9893,44.5305,780.6004,42.7156,780.9448,47.4053,787.9893,44.5305" style="stroke:#000000;stroke-width:0.8000000000000002;"/><text fill="#000000" font-family="sans-serif" font-size="10.4" lengthAdjust="spacing" textLength="31.2" x="791.2" y="49.1297">has an</text><text fill="#000000" font-family="sans-serif" font-size="10.4" lengthAdjust="spacing" textLength="5.6" x="60.8258" y="196.8835">1</text><text fill="#000000" font-family="sans-serif" font-size="10.4" lengthAdjust="spacing" textLength="5.6" x="1307.676" y="104.9634">1</text></g><!--link Organization to UserPortal--><g id="link_Organization_UserPortal"><path codeLine="111" d="M86.552,258.331 C176.464,259.283 393.64,261.587 471.136,262.411 " fill="none" id="Organization-UserPortal" style="stroke:#181818;stroke-width:0.8000000000000002;"/><polygon fill="#000000" points="252.7998,252.8659,245.5891,250.4381,245.5392,255.1401,252.7998,252.8659" style="stroke:#000000;stroke-width:0.8000000000000002;"/><text fill="#000000" font-family="sans-serif" font-size="10.4" lengthAdjust="spacing" textLength="24" x="256" y="257.1297">owns</text><text fill="#000000" font-family="sans-serif" font-size="10.4" lengthAdjust="spacing" textLength="5.6" x="92.9193" y="270.6479">1</text><text fill="#000000" font-family="sans-serif" font-size="10.4" lengthAdjust="spacing" textLength="16" x="448.8" y="274.781">1..*</text></g><!--link Organization to GreenSpace--><g id="link_Organization_GreenSpace"><path codeLine="112" d="M86.52,244.539 C94.36,242.291 102.584,240.203 110.4,238.707 C318.728,198.795 574.6,190.475 665.336,188.755 " fill="none" id="Organization-GreenSpace" style="stroke:#181818;stroke-width:0.8000000000000002;"/><polygon fill="#000000" points="324.0184,194.0072,331.4467,195.6533,330.9956,190.9727,324.0184,194.0072" style="stroke:#000000;stroke-width:0.8000000000000002;"/><text fill="#000000" font-family="sans-serif" font-size="10.4" lengthAdjust="spacing" textLength="76" x="335.2" y="197.9297">is maintained by</text><text fill="#000000" font-family="sans-serif" font-size="10.4" lengthAdjust="spacing" textLength="5.6" x="92.8826" y="254.8302">1</text><text fill="#000000" font-family="sans-serif" font-size="10.4" lengthAdjust="spacing" textLength="4" x="655.2635" y="201.1653">*</text></g><!--link Organization to Collaborator--><g id="link_Organization_Collaborator"><path codeLine="115" d="M86.464,208.355 C125.904,165.075 190.688,109.107 262,109.107 C262,109.107 262,109.107 802.4,109.107 C954.864,109.107 1038.728,306.379 1072.984,413.299 " fill="none" id="Organization-Collaborator" style="stroke:#181818;stroke-width:0.8000000000000002;"/><polygon fill="#000000" points="588.0836,100.8098,594.6902,104.5837,595.6466,99.9797,588.0836,100.8098" style="stroke:#000000;stroke-width:0.8000000000000002;"/><text fill="#000000" font-family="sans-serif" font-size="10.4" lengthAdjust="spacing" textLength="41.6" x="599.2" y="105.9297">works for</text><text fill="#000000" font-family="sans-serif" font-size="10.4" lengthAdjust="spacing" textLength="5.6" x="92.8184" y="213.3316">1</text><text fill="#000000" font-family="sans-serif" font-size="10.4" lengthAdjust="spacing" textLength="4" x="1067.1436" y="404.5899">*</text></g><!--link Organization to Vehicle--><g id="link_Organization_Vehicle"><path codeLine="116" d="M57.096,310.251 C66.176,344.891 82.448,389.451 110.4,420.307 C200.2,519.427 350.992,576.179 435.984,601.867 " fill="none" id="Organization-Vehicle" style="stroke:#181818;stroke-width:0.8000000000000002;"/><polygon fill="#000000" points="226.4302,503.9837,230.7304,510.2604,233.5985,506.534,226.4302,503.9837" style="stroke:#000000;stroke-width:0.8000000000000002;"/><text fill="#000000" font-family="sans-serif" font-size="10.4" lengthAdjust="spacing" textLength="62.4" x="236.8" y="510.7297">is an asset of</text><text fill="#000000" font-family="sans-serif" font-size="10.4" lengthAdjust="spacing" textLength="5.6" x="52.3126" y="327.3179">1</text><text fill="#000000" font-family="sans-serif" font-size="10.4" lengthAdjust="spacing" textLength="4" x="425.6919" y="612.1502">*</text></g><!--link Collaborator to Skill--><g id="link_Collaborator_Skill"><path codeLine="117" d="M1134.432,508.371 C1189.248,545.683 1283.784,610.027 1323.168,636.835 " fill="none" id="Collaborator-Skill" style="stroke:#181818;stroke-width:0.8000000000000002;"/><polygon fill="#000000" points="1225.7067,556.6742,1221.0478,550.6589,1218.4019,554.5462,1225.7067,556.6742" style="stroke:#000000;stroke-width:0.8000000000000002;"/><text fill="#000000" font-family="sans-serif" font-size="10.4" lengthAdjust="spacing" textLength="16.8" x="1229.6" y="558.7297">has</text><text fill="#000000" font-family="sans-serif" font-size="10.4" lengthAdjust="spacing" textLength="5.6" x="1140.7365" y="524.5146">1</text><text fill="#000000" font-family="sans-serif" font-size="10.4" lengthAdjust="spacing" textLength="4" x="1312.7882" y="646.3879">*</text></g><!--link Collaborator to Address--><g id="link_Collaborator_Address"><path codeLine="118" d="M1134.432,428.035 C1181.4,368.491 1257.52,271.987 1303.128,214.171 " fill="none" id="Collaborator-Address" style="stroke:#181818;stroke-width:0.8000000000000002;"/><polygon fill="#000000" points="1217.6773,266.4829,1211.3499,270.7081,1215.0418,273.6203,1217.6773,266.4829" style="stroke:#000000;stroke-width:0.8000000000000002;"/><text fill="#000000" font-family="sans-serif" font-size="10.4" lengthAdjust="spacing" textLength="31.2" x="1222.4" y="273.9297">has an</text><text fill="#000000" font-family="sans-serif" font-size="10.4" lengthAdjust="spacing" textLength="5.6" x="1140.7365" y="432.8813">1</text><text fill="#000000" font-family="sans-serif" font-size="10.4" lengthAdjust="spacing" textLength="5.6" x="1291.147" y="233.8599">1</text></g><!--link Collaborator to Job--><g id="link_Collaborator_Job"><path codeLine="119" d="M1134.472,533.723 C1142.384,543.899 1150.632,554.451 1158.4,564.307 C1177.264,588.243 1199.104,615.483 1214.064,634.075 " fill="none" id="Collaborator-Job" style="stroke:#181818;stroke-width:0.8000000000000002;"/><polygon fill="#000000" points="1164.8856,559.9574,1162.2312,552.827,1158.547,555.749,1164.8856,559.9574" style="stroke:#000000;stroke-width:0.8000000000000002;"/><text fill="#000000" font-family="sans-serif" font-size="10.4" lengthAdjust="spacing" textLength="16.8" x="1169.6" y="561.1297">has</text><text fill="#000000" font-family="sans-serif" font-size="10.4" lengthAdjust="spacing" textLength="5.6" x="1140.7821" y="553.4317">1</text><text fill="#000000" font-family="sans-serif" font-size="10.4" lengthAdjust="spacing" textLength="5.6" x="1201.8686" y="640.5776">1</text></g><!--link HRM to Skill--><g id="link_HRM_Skill"><path codeLine="120" d="M711.2,659.195 C738.992,697.035 819.152,793.907 911.6,793.907 C911.6,793.907 911.6,793.907 1233.6,793.907 C1293.888,793.907 1324.352,712.035 1335.752,671.411 " fill="none" id="HRM-Skill" style="stroke:#181818;stroke-width:0.8000000000000002;"/><polygon fill="#000000" points="1077.1992,786.5017,1070.0105,784.0095,1069.9186,788.7108,1077.1992,786.5017" style="stroke:#000000;stroke-width:0.8000000000000002;"/><text fill="#000000" font-family="sans-serif" font-size="10.4" lengthAdjust="spacing" textLength="34.4" x="1080.4" y="790.7297">register</text><text fill="#000000" font-family="sans-serif" font-size="10.4" lengthAdjust="spacing" textLength="5.6" x="707.8575" y="676.3184">1</text><text fill="#000000" font-family="sans-serif" font-size="10.4" lengthAdjust="spacing" textLength="4" x="1329.9478" y="689.0045">*</text></g><!--link HRM to Job--><g id="link_HRM_Job"><path codeLine="121" d="M714.448,655.619 C725.528,664.027 741.944,674.811 758.4,679.507 C929.784,728.403 1150.016,678.003 1213.896,661.283 " fill="none" id="HRM-Job" style="stroke:#181818;stroke-width:0.8000000000000002;"/><polygon fill="#000000" points="987.9997,687.2688,980.7908,684.8358,980.7375,689.5377,987.9997,687.2688" style="stroke:#000000;stroke-width:0.8000000000000002;"/><text fill="#000000" font-family="sans-serif" font-size="10.4" lengthAdjust="spacing" textLength="34.4" x="991.2" y="691.5297">register</text><text fill="#000000" font-family="sans-serif" font-size="10.4" lengthAdjust="spacing" textLength="5.6" x="720.8082" y="673.6193">1</text><text fill="#000000" font-family="sans-serif" font-size="10.4" lengthAdjust="spacing" textLength="4" x="1203.4942" y="676.1181">*</text></g><!--link HRM to Collaborator--><g id="link_HRM_Collaborator"><path codeLine="122" d="M714.496,648.747 C763.248,663.643 930.568,706.667 1026.4,629.907 C1052.048,609.363 1063.3921,590.4189 1072.9921,560.8589 " fill="none" id="HRM-to-Collaborator" style="stroke:#181818;stroke-width:0.8000000000000002;"/><polygon fill="none" points="1077.44,547.163,1068.4268,559.3762,1077.5574,562.3415,1077.44,547.163" style="stroke:#181818;stroke-width:0.8000000000000002;"/><text fill="#000000" font-family="sans-serif" font-size="10.4" lengthAdjust="spacing" textLength="5.6" x="720.8739" y="664.2133">1</text><text fill="#000000" font-family="sans-serif" font-size="10.4" lengthAdjust="spacing" textLength="5.6" x="1070.3138" y="564.7266">1</text></g><!--link HRM to Collaborator--><g id="link_HRM_Collaborator"><path codeLine="123" d="M712.816,629.259 C723.56,616.707 740.36,599.179 758.4,588.307 C761.64,586.355 961.688,522.019 1050.216,493.587 " fill="none" id="HRM-Collaborator" style="stroke:#181818;stroke-width:0.8000000000000002;"/><polygon fill="#000000" points="896.9112,516.1311,889.3204,516.6494,891.0747,521.0121,896.9112,516.1311" style="stroke:#000000;stroke-width:0.8000000000000002;"/><text fill="#000000" font-family="sans-serif" font-size="10.4" lengthAdjust="spacing" textLength="34.4" x="900.4" y="521.9297">register</text><text fill="#000000" font-family="sans-serif" font-size="10.4" lengthAdjust="spacing" textLength="5.6" x="710.1582" y="620.5426">1</text><text fill="#000000" font-family="sans-serif" font-size="10.4" lengthAdjust="spacing" textLength="4" x="1040.0026" y="507.6516">*</text></g><!--link HRM to Collaborator--><g id="link_HRM_Collaborator"><path codeLine="124" d="M714.64,642.091 C753.912,635.475 868.864,613.715 956,573.107 C989.744,557.379 1024.32,533.571 1050.112,514.011 " fill="none" id="HRM-Collaborator-1" style="stroke:#181818;stroke-width:0.8000000000000002;"/><polygon fill="#000000" points="876.5369,564.1967,868.9382,564.5812,870.6154,568.9742,876.5369,564.1967" style="stroke:#000000;stroke-width:0.8000000000000002;"/><text fill="#000000" font-family="sans-serif" font-size="10.4" lengthAdjust="spacing" textLength="75.2" x="880" y="569.9297">assigns skills to</text><text fill="#000000" font-family="sans-serif" font-size="10.4" lengthAdjust="spacing" textLength="5.6" x="720.853" y="636.5972">1</text><text fill="#000000" font-family="sans-serif" font-size="10.4" lengthAdjust="spacing" textLength="4" x="1039.884" y="530.9477">*</text></g><!--link HRM to Team--><g id="link_HRM_Team"><path codeLine="125" d="M705.056,629.387 C712.728,604.315 730.688,552.979 758.4,517.107 C792.704,472.699 845.936,434.299 879.76,412.435 " fill="none" id="HRM-Team" style="stroke:#181818;stroke-width:0.8000000000000002;"/><polygon fill="#000000" points="779.3088,427.308,772.9391,431.4693,776.6016,434.4185,779.3088,427.308" style="stroke:#000000;stroke-width:0.8000000000000002;"/><text fill="#000000" font-family="sans-serif" font-size="10.4" lengthAdjust="spacing" textLength="45.6" x="784" y="434.7297">generates</text><text fill="#000000" font-family="sans-serif" font-size="10.4" lengthAdjust="spacing" textLength="5.6" x="700.1469" y="620.44">1</text><text fill="#000000" font-family="sans-serif" font-size="10.4" lengthAdjust="spacing" textLength="4" x="869.5898" y="428.325">*</text></g><!--link FM to Collaborator--><g id="link_FM_Collaborator"><path codeLine="126" d="M56.528,622.219 C99.992,605.955 281,540.331 436,515.507 C665.88,478.691 931.8731,478.0373 1035.8411,479.3493 " fill="none" id="FM-to-Collaborator" style="stroke:#181818;stroke-width:0.8000000000000002;"/><polygon fill="none" points="1050.24,479.531,1035.9017,474.5497,1035.7806,484.1489,1050.24,479.531" style="stroke:#181818;stroke-width:0.8000000000000002;"/><text fill="#000000" font-family="sans-serif" font-size="10.4" lengthAdjust="spacing" textLength="5.6" x="62.6922" y="615.1149">1</text><text fill="#000000" font-family="sans-serif" font-size="10.4" lengthAdjust="spacing" textLength="5.6" x="1038.3175" y="491.6189">1</text></g><!--link FM to Vehicle--><g id="link_FM_Vehicle"><path codeLine="127" d="M56.456,625.755 C105.12,624.979 325.432,621.475 435.792,619.715 " fill="none" id="FM-Vehicle" style="stroke:#181818;stroke-width:0.8000000000000002;"/><polygon fill="#000000" points="244.7995,615.1598,237.5269,612.9241,237.6018,617.6258,244.7995,615.1598" style="stroke:#000000;stroke-width:0.8000000000000002;"/><text fill="#000000" font-family="sans-serif" font-size="10.4" lengthAdjust="spacing" textLength="40" x="248" y="619.5297">registers</text><text fill="#000000" font-family="sans-serif" font-size="10.4" lengthAdjust="spacing" textLength="5.6" x="62.9183" y="640.3492">1</text><text fill="#000000" font-family="sans-serif" font-size="10.4" lengthAdjust="spacing" textLength="4" x="425.6885" y="631.6744">*</text></g><!--link FM to Checkup--><g id="link_FM_Checkup"><path codeLine="128" d="M56.464,634.139 C68.536,644.179 90.096,661.251 110.4,673.107 C228.016,741.755 391.344,767.971 463.032,776.603 " fill="none" id="FM-Checkup" style="stroke:#181818;stroke-width:0.8000000000000002;"/><polygon fill="#000000" points="244.575,718.1462,238.5235,713.5344,236.9685,717.9722,244.575,718.1462" style="stroke:#000000;stroke-width:0.8000000000000002;"/><text fill="#000000" font-family="sans-serif" font-size="10.4" lengthAdjust="spacing" textLength="40" x="248" y="721.1297">registers</text><text fill="#000000" font-family="sans-serif" font-size="10.4" lengthAdjust="spacing" textLength="5.6" x="62.9302" y="652.8204">1</text><text fill="#000000" font-family="sans-serif" font-size="10.4" lengthAdjust="spacing" textLength="4" x="452.8215" y="788.3464">*</text></g><!--link UserPortal to Comment--><g id="link_UserPortal_Comment"><path codeLine="129" d="M528.808,266.547 C567.368,271.835 636.256,281.275 673.544,286.387 " fill="none" id="UserPortal-Comment" style="stroke:#181818;stroke-width:0.8000000000000002;"/><polygon fill="#000000" points="608.3629,267.7667,601.5132,264.4546,600.8746,269.1133,608.3629,267.7667" style="stroke:#000000;stroke-width:0.8000000000000002;"/><text fill="#000000" font-family="sans-serif" font-size="10.4" lengthAdjust="spacing" textLength="16.8" x="611.6" y="271.5297">has</text><text fill="#000000" font-family="sans-serif" font-size="10.4" lengthAdjust="spacing" textLength="5.6" x="535.3272" y="279.9995">1</text><text fill="#000000" font-family="sans-serif" font-size="10.4" lengthAdjust="spacing" textLength="4" x="663.3193" y="298.3103">*</text></g><!--link Agenda to Task--><g id="link_Agenda_Task"><path codeLine="130" d="M522.16,343.635 C549.864,351.171 599.608,365.059 641.6,378.707 C652.416,382.227 664.256,386.435 674.368,390.147 " fill="none" id="Agenda-Task" style="stroke:#181818;stroke-width:0.8000000000000002;"/><polygon fill="#000000" points="608.2254,357.1924,601.9923,352.8292,600.6181,357.3262,608.2254,357.1924" style="stroke:#000000;stroke-width:0.8000000000000002;"/><text fill="#000000" font-family="sans-serif" font-size="10.4" lengthAdjust="spacing" textLength="16.8" x="611.6" y="360.3297">has</text><text fill="#000000" font-family="sans-serif" font-size="10.4" lengthAdjust="spacing" textLength="5.6" x="528.244" y="357.9767">1</text><text fill="#000000" font-family="sans-serif" font-size="10.4" lengthAdjust="spacing" textLength="4" x="663.9781" y="384.0499">*</text></g><!--link Task to Team--><g id="link_Task_Team"><path codeLine="131" d="M725.6,398.755 C763.912,397.587 837.456,395.355 879.688,394.075 " fill="none" id="Task-Team" style="stroke:#181818;stroke-width:0.8000000000000002;"/><polygon fill="#000000" points="766.3982,387.902,759.094,385.7716,759.2368,390.4717,766.3982,387.902" style="stroke:#000000;stroke-width:0.8000000000000002;"/><text fill="#000000" font-family="sans-serif" font-size="10.4" lengthAdjust="spacing" textLength="74.4" x="769.6" y="392.3297">is carried out by</text><text fill="#000000" font-family="sans-serif" font-size="10.4" lengthAdjust="spacing" textLength="4" x="731.9825" y="411.3935">*</text><text fill="#000000" font-family="sans-serif" font-size="10.4" lengthAdjust="spacing" textLength="5.6" x="867.9844" y="406.6456">1</text></g><!--link GreenSpace to Address--><g id="link_GreenSpace_Address"><path codeLine="132" d="M734.64,182.483 C776.176,175.843 848.848,165.907 911.6,165.907 C911.6,165.907 911.6,165.907 1233.6,165.907 C1256.672,165.907 1282.52,165.907 1303.104,165.907 " fill="none" id="GreenSpace-Address" style="stroke:#181818;stroke-width:0.8000000000000002;"/><polygon fill="#000000" points="1078.7983,158.3068,1071.4968,156.1676,1071.6338,160.8679,1078.7983,158.3068" style="stroke:#000000;stroke-width:0.8000000000000002;"/><text fill="#000000" font-family="sans-serif" font-size="10.4" lengthAdjust="spacing" textLength="31.2" x="1082" y="162.7297">has an</text><text fill="#000000" font-family="sans-serif" font-size="10.4" lengthAdjust="spacing" textLength="5.6" x="740.841" y="193.8545">1</text><text fill="#000000" font-family="sans-serif" font-size="10.4" lengthAdjust="spacing" textLength="5.6" x="1291.1193" y="178.2055">1</text></g><!--link Team to Collaborator--><g id="link_Team_Collaborator"><path codeLine="133" d="M944.888,408.595 C974.224,422.939 1018.032,444.347 1050.136,460.043 " fill="none" id="Team-Collaborator" style="stroke:#181818;stroke-width:0.8000000000000002;"/><polygon fill="#000000" points="996.3936,420.9801,990.9252,415.69,988.8602,419.9146,996.3936,420.9801" style="stroke:#000000;stroke-width:0.8000000000000002;"/><text fill="#000000" font-family="sans-serif" font-size="10.4" lengthAdjust="spacing" textLength="16.8" x="1000" y="423.5297">has</text><text fill="#000000" font-family="sans-serif" font-size="10.4" lengthAdjust="spacing" textLength="5.6" x="951.1737" y="423.801">1</text><text fill="#000000" font-family="sans-serif" font-size="10.4" lengthAdjust="spacing" textLength="4" x="1039.9114" y="469.3904">*</text></g><!--link Vehicle to Checkup--><g id="link_Vehicle_Checkup"><path codeLine="134" d="M500,707.971 C500,723.379 500,738.363 500,750.667 " fill="none" id="Vehicle-Checkup" style="stroke:#181818;stroke-width:0.8000000000000002;"/><polygon fill="#000000" points="476.8,733.4234,479.1511,726.1874,474.4489,726.1874,476.8,733.4234" style="stroke:#000000;stroke-width:0.8000000000000002;"/><text fill="#000000" font-family="sans-serif" font-size="10.4" lengthAdjust="spacing" textLength="22.4" x="484" y="733.7297">does</text><text fill="#000000" font-family="sans-serif" font-size="10.4" lengthAdjust="spacing" textLength="5.6" x="494.2206" y="725.3595">1</text><text fill="#000000" font-family="sans-serif" font-size="10.4" lengthAdjust="spacing" textLength="4" x="495.6313" y="741.6026">*</text></g><!--link CheckupList to Vehicle--><g id="link_CheckupList_Vehicle"><path codeLine="135" d="M296.456,673.115 C326.624,666.379 372.504,655.763 412,645.107 C419.792,643.003 427.936,640.691 435.984,638.339 " fill="none" id="CheckupList-Vehicle" style="stroke:#181818;stroke-width:0.8000000000000002;"/><polygon fill="#000000" points="361.4813,636.6561,353.8914,636.1247,355.0286,640.6874,361.4813,636.6561" style="stroke:#000000;stroke-width:0.8000000000000002;"/><text fill="#000000" font-family="sans-serif" font-size="10.4" lengthAdjust="spacing" textLength="16.8" x="364.8" y="641.9297">has</text><text fill="#000000" font-family="sans-serif" font-size="10.4" lengthAdjust="spacing" textLength="5.6" x="302.7219" y="684.3164">1</text><text fill="#000000" font-family="sans-serif" font-size="10.4" lengthAdjust="spacing" textLength="16" x="413.5701" y="651.9321">1..*</text></g><!--link FM to CheckupList--><g id="link_FM_CheckupList"><path codeLine="136" d="M56.44,629.035 C68.856,633.003 91.12,639.963 110.4,645.107 C151,655.939 198.208,666.595 229.024,673.299 " fill="none" id="FM-CheckupList" style="stroke:#181818;stroke-width:0.8000000000000002;"/><polygon fill="#000000" points="118.2746,638.6172,111.8495,634.5421,110.6813,639.0969,118.2746,638.6172" style="stroke:#000000;stroke-width:0.8000000000000002;"/><text fill="#000000" font-family="sans-serif" font-size="10.4" lengthAdjust="spacing" textLength="79.2" x="121.6" y="641.9297">requests to show</text><text fill="#000000" font-family="sans-serif" font-size="10.4" lengthAdjust="spacing" textLength="5.6" x="62.8945" y="630.0557">1</text><text fill="#000000" font-family="sans-serif" font-size="10.4" lengthAdjust="spacing" textLength="4" x="218.875" y="684.532">*</text></g><!--link Comment to GSU--><g id="link_Comment_GSU"><path codeLine="137" d="M726.44,291.363 C771.64,293.939 863.992,299.195 898.344,301.155 " fill="none" id="Comment-GSU" style="stroke:#181818;stroke-width:0.8000000000000002;"/><polygon fill="#000000" points="775.6065,286.196,782.6971,288.9548,782.9645,284.2601,775.6065,286.196" style="stroke:#000000;stroke-width:0.8000000000000002;"/><text fill="#000000" font-family="sans-serif" font-size="10.4" lengthAdjust="spacing" textLength="40" x="786.8" y="290.7297">makes a</text><text fill="#000000" font-family="sans-serif" font-size="10.4" lengthAdjust="spacing" textLength="4" x="732.6613" y="304.3748">*</text><text fill="#000000" font-family="sans-serif" font-size="10.4" lengthAdjust="spacing" textLength="4" x="888.022" y="314.8646">*</text></g><!--link GreenSpace to GSM--><g id="link_GreenSpace_GSM"><path codeLine="138" d="M734.528,196.667 C742.344,198.491 750.64,200.347 758.4,201.907 C809.288,212.155 870.272,221.467 897.392,225.451 " fill="none" id="GreenSpace-GSM" style="stroke:#181818;stroke-width:0.8000000000000002;"/><polygon fill="#000000" points="774.461,193.7273,781.1775,197.3019,781.9959,192.6714,774.461,193.7273" style="stroke:#000000;stroke-width:0.8000000000000002;"/><text fill="#000000" font-family="sans-serif" font-size="10.4" lengthAdjust="spacing" textLength="42.4" x="785.6" y="198.7297">manages</text><text fill="#000000" font-family="sans-serif" font-size="10.4" lengthAdjust="spacing" textLength="16" x="740.7743" y="210.105">1..*</text><text fill="#000000" font-family="sans-serif" font-size="10.4" lengthAdjust="spacing" textLength="5.6" x="885.6705" y="238.3966">1</text></g><!--link GSM to Collaborator--><g id="link_GSM_Collaborator"><path codeLine="139" d="M927.2,241.803 C935.72,250.651 946.704,262.339 956,273.107 C988.904,311.235 998.512,319.971 1026.4,361.907 C1037.184,378.123 1040.8653,383.6725 1050.3293,400.7925 " fill="none" id="GSM-to-Collaborator" style="stroke:#181818;stroke-width:0.8000000000000002;"/><polygon fill="none" points="1057.296,413.395,1054.5301,398.4702,1046.1284,403.1147,1057.296,413.395" style="stroke:#181818;stroke-width:0.8000000000000002;"/><text fill="#000000" font-family="sans-serif" font-size="10.4" lengthAdjust="spacing" textLength="5.6" x="932.59" y="259.5684">1</text><text fill="#000000" font-family="sans-serif" font-size="10.4" lengthAdjust="spacing" textLength="5.6" x="1048.3202" y="404.4642">1</text></g><!--link GSU to Collaborator--><g id="link_GSU_Collaborator"><path codeLine="140" d="M926.672,311.523 C935.28,317.843 946.568,326.435 956,334.707 C989.904,364.419 1014.981,390.8454 1040.733,420.2294 " fill="none" id="GSU-to-Collaborator" style="stroke:#181818;stroke-width:0.8000000000000002;"/><polygon fill="none" points="1050.224,431.059,1044.3428,417.0657,1037.1231,423.3931,1050.224,431.059" style="stroke:#181818;stroke-width:0.8000000000000002;"/><text fill="#000000" font-family="sans-serif" font-size="10.4" lengthAdjust="spacing" textLength="5.6" x="932.7539" y="328.6894">1</text><text fill="#000000" font-family="sans-serif" font-size="10.4" lengthAdjust="spacing" textLength="5.6" x="1038.2993" y="436.3306">1</text></g><!--SRC=[ZLRRRjim37ttLmXv6J2Wm_Ow50MA5jsbwpOiw_Qio8mjH1UNaf5btVvzr2MEx3fP0mIMhCD3yf1KuZRIT1ovPjeQArgq6fZ77Yetd7HSR7W3IxzJm124vwPH9S2rlBPRQHgsvif1zU9mfAG1l-k0MVIjhHIiFVEMeMnQpsePsAGr1PTGtBbBxr6kUWyVX3LB-HlOwwgLDJ0XKP3hkDP0ZBMhAYyz1NPjDPU6tTaQL5L56lO56sxaRnvyiCUAqSTm3MaXr_6vXPMJFhthMclWSwzNW74FHAcgltkwvKOgLT0SJgwiKdnbaNkB4p-yrj8v2k2QPoyhILeCktcVOINhQok-atY7NSODVZ_QLU5kUFt-szrZ4TtDQFSTk9x4M8CJABjOYh3N4Douk7QU-zuTp7z0Awa6YQ5JbCQ7EgM5tAILZZK8Ax-FtdDCYmQjSpyXr3_kHOy8nj_gk4DefFE0WpfSFFIIwbFg9reGcxwxGNZemOZThIx2kqg7ARnwOfAG8-0dybUgymu1p99Q7YOQ3QcKOf5PjhkiQmJd7hDcnEABPL7VpfAYweeaIf59lqkq50XAuOj2SRT9VB734wf7FfGfboQoehGOg0RhUmVubQQEgqaYFQgoSRKc-RCR-EN7kl6UPYpsssYK5cyMxEpiZ2rUBcAKx2rRsArnx69n14ZFomPCpPy7JM86RCiTu-O4-jKh2kAGxF_v2NueSe1BnyBLuUaBDLljsFcYUZ5Z6qtZ7L0wEOgasNnMCENT4Gos5ZUEhMbpVi8gZs6EdnIYQe9dTXsiHfIbrH1zaFNY6F1O1MRGyP4ppPnq-SmAjf_j6Kmcc4VykOYBqldKVYhX2LTJACac6wgG2s6wyDlqr2RSc05B3Gna237DcrFntOpiYrhj8njJfCZIXVG4LVJsA8yuk8NkURxAkFDePa3SXlUvRFkqg7y4HvJK_BRtOG08N8n8KUdPjeWy9oJExlSg96Jw1p39kxP9s-9kFdYFWrv8cMbdHOoMKKZwYN0-rjMrTXipMzud5VhkYPIQRoW2dc2PECAIz_6zeRcXlqLk19xjXkZnwEa_]--></g></svg>