<?xml version="1.0" encoding="us-ascii" standalone="no"?><svg xmlns="http://www.w3.org/2000/svg" xmlns:xlink="http://www.w3.org/1999/xlink" contentStyleType="text/css" height="535.6px" preserveAspectRatio="none" style="width:620px;height:535px;background:#FFFFFF;" version="1.1" viewBox="0 0 620 535" width="620.8px" zoomAndPan="magnify"><defs/><g><text fill="#000000" font-family="sans-serif" font-size="5.6" font-weight="bold" lengthAdjust="spacing" textLength="40" x="287.6" y="10.043">Domain Model</text><!--class Organization--><g id="elem_Organization"><rect codeLine="12" fill="#F1F1F1" height="51.8906" id="Organization" rx="1" ry="1" style="stroke:#181818;stroke-width:0.20000000000000004;" width="40.4" x="82.8" y="303.2764"/><text fill="#000000" font-family="sans-serif" font-size="5.6" lengthAdjust="spacing" textLength="32" x="87" y="311.3194">Organization</text><line style="stroke:#181818;stroke-width:0.20000000000000004;" x1="83.2" x2="122.8" y1="314.7249" y2="314.7249"/><text fill="#000000" font-family="sans-serif" font-size="5.6" lengthAdjust="spacing" textLength="14" x="85.2" y="322.3678">name</text><text fill="#000000" font-family="sans-serif" font-size="5.6" lengthAdjust="spacing" textLength="6" x="85.2" y="329.8163">nif</text><text fill="#000000" font-family="sans-serif" font-size="5.6" lengthAdjust="spacing" textLength="18.8" x="85.2" y="337.2647">website</text><text fill="#000000" font-family="sans-serif" font-size="5.6" lengthAdjust="spacing" textLength="35.6" x="85.2" y="344.7132">phoneNumber</text><text fill="#000000" font-family="sans-serif" font-size="5.6" lengthAdjust="spacing" textLength="13.2" x="85.2" y="352.1616">email</text></g><!--class Skill--><g id="elem_Skill"><rect codeLine="20" fill="#F1F1F1" height="22.0969" id="Skill" rx="1" ry="1" style="stroke:#181818;stroke-width:0.20000000000000004;" width="18.8" x="589.2" y="143.0764"/><text fill="#000000" font-family="sans-serif" font-size="5.6" lengthAdjust="spacing" textLength="10" x="593.6" y="151.1194">Skill</text><line style="stroke:#181818;stroke-width:0.20000000000000004;" x1="589.6" x2="607.6" y1="154.5249" y2="154.5249"/><text fill="#000000" font-family="sans-serif" font-size="5.6" lengthAdjust="spacing" textLength="14" x="591.6" y="162.1678">name</text></g><!--class Collaborator--><g id="elem_Collaborator"><rect codeLine="25" fill="#F1F1F1" height="66.7875" id="Collaborator" rx="1" ry="1" style="stroke:#181818;stroke-width:0.20000000000000004;" width="42" x="491.6" y="137.8764"/><text fill="#000000" font-family="sans-serif" font-size="5.6" lengthAdjust="spacing" textLength="31.2" x="497" y="145.9194">Collaborator</text><line style="stroke:#181818;stroke-width:0.20000000000000004;" x1="492" x2="533.2" y1="149.3249" y2="149.3249"/><text fill="#000000" font-family="sans-serif" font-size="5.6" lengthAdjust="spacing" textLength="14" x="494" y="156.9678">name</text><text fill="#000000" font-family="sans-serif" font-size="5.6" lengthAdjust="spacing" textLength="37.2" x="494" y="164.4163">admissionDate</text><text fill="#000000" font-family="sans-serif" font-size="5.6" lengthAdjust="spacing" textLength="23.2" x="494" y="171.8647">birthDate</text><text fill="#000000" font-family="sans-serif" font-size="5.6" lengthAdjust="spacing" textLength="35.6" x="494" y="179.3132">phoneNumber</text><text fill="#000000" font-family="sans-serif" font-size="5.6" lengthAdjust="spacing" textLength="13.2" x="494" y="186.7616">email</text><text fill="#000000" font-family="sans-serif" font-size="5.6" lengthAdjust="spacing" textLength="27.2" x="494" y="194.21">idDocType</text><text fill="#000000" font-family="sans-serif" font-size="5.6" lengthAdjust="spacing" textLength="34" x="494" y="201.6585">idDocNumber</text></g><!--class Job--><g id="elem_Job"><rect codeLine="35" fill="#F1F1F1" height="22.0969" id="Job" rx="1" ry="1" style="stroke:#181818;stroke-width:0.20000000000000004;" width="18.8" x="589.2" y="84.2764"/><text fill="#000000" font-family="sans-serif" font-size="5.6" lengthAdjust="spacing" textLength="8.8" x="594.2" y="92.3194">Job</text><line style="stroke:#181818;stroke-width:0.20000000000000004;" x1="589.6" x2="607.6" y1="95.7249" y2="95.7249"/><text fill="#000000" font-family="sans-serif" font-size="5.6" lengthAdjust="spacing" textLength="14" x="591.6" y="103.3678">name</text></g><!--class HRM--><g id="elem_HRM"><rect codeLine="39" fill="#F1F1F1" height="14.6484" id="HRM" rx="1" ry="1" style="stroke:#181818;stroke-width:0.20000000000000004;" width="14.4" x="308" y="113.8764"/><text fill="#000000" font-family="sans-serif" font-size="5.6" lengthAdjust="spacing" textLength="12" x="309.2" y="121.9194">HRM</text><line style="stroke:#181818;stroke-width:0.20000000000000004;" x1="308.4" x2="322" y1="125.3249" y2="125.3249"/></g><!--class FM--><g id="elem_FM"><rect codeLine="43" fill="#F1F1F1" height="14.6484" id="FM" rx="1" ry="1" style="stroke:#181818;stroke-width:0.20000000000000004;" width="10.4" x="2.8" y="469.8764"/><text fill="#000000" font-family="sans-serif" font-size="5.6" lengthAdjust="spacing" textLength="8" x="4" y="477.9194">FM</text><line style="stroke:#181818;stroke-width:0.20000000000000004;" x1="3.2" x2="12.8" y1="481.3249" y2="481.3249"/></g><!--class Team--><g id="elem_Team"><rect codeLine="47" fill="#F1F1F1" height="44.4422" id="Team" rx="1" ry="1" style="stroke:#181818;stroke-width:0.20000000000000004;" width="32.4" x="406.4" y="227.8764"/><text fill="#000000" font-family="sans-serif" font-size="5.6" lengthAdjust="spacing" textLength="14.4" x="415.4" y="235.9194">Team</text><line style="stroke:#181818;stroke-width:0.20000000000000004;" x1="406.8" x2="438.4" y1="239.3249" y2="239.3249"/><text fill="#000000" font-family="sans-serif" font-size="5.6" lengthAdjust="spacing" textLength="14" x="408.8" y="246.9678">name</text><text fill="#000000" font-family="sans-serif" font-size="5.6" lengthAdjust="spacing" textLength="27.6" x="408.8" y="254.4163">description</text><text fill="#000000" font-family="sans-serif" font-size="5.6" lengthAdjust="spacing" textLength="23.2" x="408.8" y="261.8647">members</text><text fill="#000000" font-family="sans-serif" font-size="5.6" lengthAdjust="spacing" textLength="15.2" x="408.8" y="269.3132">status</text></g><!--class Vehicle--><g id="elem_Vehicle"><rect codeLine="54" fill="#F1F1F1" height="89.1328" id="Vehicle" rx="1" ry="1" style="stroke:#181818;stroke-width:0.20000000000000004;" width="64" x="174.4" y="429.8764"/><text fill="#000000" font-family="sans-serif" font-size="5.6" lengthAdjust="spacing" textLength="18.4" x="197.2" y="437.9194">Vehicle</text><line style="stroke:#181818;stroke-width:0.20000000000000004;" x1="174.8" x2="238" y1="441.3249" y2="441.3249"/><text fill="#000000" font-family="sans-serif" font-size="5.6" lengthAdjust="spacing" textLength="16.8" x="176.8" y="448.9678">plateId</text><text fill="#000000" font-family="sans-serif" font-size="5.6" lengthAdjust="spacing" textLength="14.8" x="176.8" y="456.4163">brand</text><text fill="#000000" font-family="sans-serif" font-size="5.6" lengthAdjust="spacing" textLength="15.2" x="176.8" y="463.8647">model</text><text fill="#000000" font-family="sans-serif" font-size="5.6" lengthAdjust="spacing" textLength="10.8" x="176.8" y="471.3132">type</text><text fill="#000000" font-family="sans-serif" font-size="5.6" lengthAdjust="spacing" textLength="10" x="176.8" y="478.7616">tare</text><text fill="#000000" font-family="sans-serif" font-size="5.6" lengthAdjust="spacing" textLength="31.6" x="176.8" y="486.21">grossWeight</text><text fill="#000000" font-family="sans-serif" font-size="5.6" lengthAdjust="spacing" textLength="26" x="176.8" y="493.6585">currentKm</text><text fill="#000000" font-family="sans-serif" font-size="5.6" lengthAdjust="spacing" textLength="31.2" x="176.8" y="501.1069">registerDate</text><text fill="#000000" font-family="sans-serif" font-size="5.6" lengthAdjust="spacing" textLength="38.8" x="176.8" y="508.5553">acquisitionDate</text><text fill="#000000" font-family="sans-serif" font-size="5.6" lengthAdjust="spacing" textLength="59.2" x="176.8" y="516.0038">checkupFrequencyKms</text></g><!--class Checkup--><g id="elem_Checkup"><rect codeLine="67" fill="#F1F1F1" height="29.5453" id="Checkup" rx="1" ry="1" style="stroke:#181818;stroke-width:0.20000000000000004;" width="36.8" x="296.8" y="503.2764"/><text fill="#000000" font-family="sans-serif" font-size="5.6" lengthAdjust="spacing" textLength="22.4" x="304" y="511.3194">Checkup</text><line style="stroke:#181818;stroke-width:0.20000000000000004;" x1="297.2" x2="333.2" y1="514.7249" y2="514.7249"/><text fill="#000000" font-family="sans-serif" font-size="5.6" lengthAdjust="spacing" textLength="11.2" x="299.2" y="522.3678">date</text><text fill="#000000" font-family="sans-serif" font-size="5.6" lengthAdjust="spacing" textLength="32" x="299.2" y="529.8163">checkupKms</text></g><!--class CheckupList--><g id="elem_CheckupList"><rect codeLine="71" fill="#F1F1F1" height="14.6484" id="CheckupList" rx="1" ry="1" style="stroke:#181818;stroke-width:0.20000000000000004;" width="33.6" x="86.2" y="496.2764"/><text fill="#000000" font-family="sans-serif" font-size="5.6" lengthAdjust="spacing" textLength="31.2" x="87.4" y="504.3194">CheckupList</text><line style="stroke:#181818;stroke-width:0.20000000000000004;" x1="86.6" x2="119.4" y1="507.7249" y2="507.7249"/></g><!--class GreenSpace--><g id="elem_GreenSpace"><rect codeLine="75" fill="#F1F1F1" height="36.9938" id="GreenSpace" rx="1" ry="1" style="stroke:#181818;stroke-width:0.20000000000000004;" width="34.4" x="250.4" y="310.8764"/><text fill="#000000" font-family="sans-serif" font-size="5.6" lengthAdjust="spacing" textLength="32" x="251.6" y="318.9194">GreenSpace</text><line style="stroke:#181818;stroke-width:0.20000000000000004;" x1="250.8" x2="284.4" y1="322.3249" y2="322.3249"/><text fill="#000000" font-family="sans-serif" font-size="5.6" lengthAdjust="spacing" textLength="14" x="252.8" y="329.9678">name</text><text fill="#000000" font-family="sans-serif" font-size="5.6" lengthAdjust="spacing" textLength="10.8" x="252.8" y="337.4163">type</text><text fill="#000000" font-family="sans-serif" font-size="5.6" lengthAdjust="spacing" textLength="27.6" x="252.8" y="344.8647">description</text></g><!--class Address--><g id="elem_Address"><rect codeLine="82" fill="#F1F1F1" height="51.8906" id="Address" rx="1" ry="1" style="stroke:#181818;stroke-width:0.20000000000000004;" width="38.8" x="579.2" y="303.2764"/><text fill="#000000" font-family="sans-serif" font-size="5.6" lengthAdjust="spacing" textLength="20.8" x="588.2" y="311.3194">Address</text><line style="stroke:#181818;stroke-width:0.20000000000000004;" x1="579.6" x2="617.6" y1="314.7249" y2="314.7249"/><text fill="#000000" font-family="sans-serif" font-size="5.6" lengthAdjust="spacing" textLength="14.4" x="581.6" y="322.3678">street</text><text fill="#000000" font-family="sans-serif" font-size="5.6" lengthAdjust="spacing" textLength="34" x="581.6" y="329.8163">streetNumber</text><text fill="#000000" font-family="sans-serif" font-size="5.6" lengthAdjust="spacing" textLength="28.8" x="581.6" y="337.2647">postalCode</text><text fill="#000000" font-family="sans-serif" font-size="5.6" lengthAdjust="spacing" textLength="8.4" x="581.6" y="344.7132">city</text><text fill="#000000" font-family="sans-serif" font-size="5.6" lengthAdjust="spacing" textLength="16.4" x="581.6" y="352.1616">district</text></g><!--class Task--><g id="elem_Task"><rect codeLine="90" fill="#F1F1F1" height="44.4422" id="Task" rx="1" ry="1" style="stroke:#181818;stroke-width:0.20000000000000004;" width="25.6" x="302.4" y="227.8764"/><text fill="#000000" font-family="sans-serif" font-size="5.6" lengthAdjust="spacing" textLength="12.4" x="309" y="235.9194">Task</text><line style="stroke:#181818;stroke-width:0.20000000000000004;" x1="302.8" x2="327.6" y1="239.3249" y2="239.3249"/><text fill="#000000" font-family="sans-serif" font-size="5.6" lengthAdjust="spacing" textLength="8.8" x="304.8" y="246.9678">title</text><text fill="#000000" font-family="sans-serif" font-size="5.6" lengthAdjust="spacing" textLength="20.8" x="304.8" y="254.4163">duration</text><text fill="#000000" font-family="sans-serif" font-size="5.6" lengthAdjust="spacing" textLength="15.2" x="304.8" y="261.8647">status</text><text fill="#000000" font-family="sans-serif" font-size="5.6" lengthAdjust="spacing" textLength="17.2" x="304.8" y="269.3132">priority</text></g><!--class UserPortal--><g id="elem_UserPortal"><rect codeLine="97" fill="#F1F1F1" height="29.5453" id="UserPortal" rx="1" ry="1" style="stroke:#181818;stroke-width:0.20000000000000004;" width="28.8" x="192" y="352.0764"/><text fill="#000000" font-family="sans-serif" font-size="5.6" lengthAdjust="spacing" textLength="26.4" x="193.2" y="360.1194">UserPortal</text><line style="stroke:#181818;stroke-width:0.20000000000000004;" x1="192.4" x2="220.4" y1="363.5249" y2="363.5249"/><text fill="#000000" font-family="sans-serif" font-size="5.6" lengthAdjust="spacing" textLength="14" x="194.4" y="371.1678">name</text><text fill="#000000" font-family="sans-serif" font-size="5.6" lengthAdjust="spacing" textLength="6.4" x="194.4" y="378.6163">url</text></g><!--class Comment--><g id="elem_Comment"><rect codeLine="102" fill="#F1F1F1" height="36.9938" id="Comment" rx="1" ry="1" style="stroke:#181818;stroke-width:0.20000000000000004;" width="26.4" x="302" y="350.4764"/><text fill="#000000" font-family="sans-serif" font-size="5.6" lengthAdjust="spacing" textLength="24" x="303.2" y="358.5194">Comment</text><line style="stroke:#181818;stroke-width:0.20000000000000004;" x1="302.4" x2="328" y1="361.9249" y2="361.9249"/><text fill="#000000" font-family="sans-serif" font-size="5.6" lengthAdjust="spacing" textLength="8.8" x="304.4" y="369.5678">text</text><text fill="#000000" font-family="sans-serif" font-size="5.6" lengthAdjust="spacing" textLength="11.2" x="304.4" y="377.0163">date</text><text fill="#000000" font-family="sans-serif" font-size="5.6" lengthAdjust="spacing" textLength="16.4" x="304.4" y="384.4647">author</text></g><!--class Agenda--><g id="elem_Agenda"><rect fill="#F1F1F1" height="14.6484" id="Agenda" rx="1" ry="1" style="stroke:#181818;stroke-width:0.20000000000000004;" width="22" x="195.4" y="227.8764"/><text fill="#000000" font-family="sans-serif" font-size="5.6" lengthAdjust="spacing" textLength="19.6" x="196.6" y="235.9194">Agenda</text><line style="stroke:#181818;stroke-width:0.20000000000000004;" x1="195.8" x2="217" y1="239.3249" y2="239.3249"/></g><!--link Organization to Task--><g id="link_Organization_Task"><path codeLine="108" d="M119.796,303.2524 C124.216,297.9444 129.4,292.8884 135.2,289.2764 C163.68,271.5404 266.524,256.4964 302.372,251.6844 " fill="none" id="Organization-Task" style="stroke:#181818;stroke-width:0.4000000000000001;"/><polygon fill="#000000" points="201.3247,257.391,197.5233,257.2431,198.1624,259.5058,201.3247,257.391" style="stroke:#000000;stroke-width:0.4000000000000001;"/><text fill="#000000" font-family="sans-serif" font-size="5.2" lengthAdjust="spacing" textLength="12" x="203" y="260.0878">owns</text><text fill="#000000" font-family="sans-serif" font-size="5.2" lengthAdjust="spacing" textLength="2.8" x="118.6799" y="298.8579">1</text><text fill="#000000" font-family="sans-serif" font-size="5.2" lengthAdjust="spacing" textLength="2" x="297.1743" y="258.4624">*</text></g><!--link Organization to Agenda--><g id="link_Organization_Agenda"><path codeLine="109" d="M108.312,303.1684 C112.7,286.8524 120.752,266.6244 135.2,254.0764 C152.388,239.1484 180.152,235.9044 195.304,235.3044 " fill="none" id="Organization-Agenda" style="stroke:#181818;stroke-width:0.4000000000000001;"/><polygon fill="#000000" points="143.3769,235.9045,139.8012,237.203,141.2473,239.0568,143.3769,235.9045" style="stroke:#000000;stroke-width:0.4000000000000001;"/><text fill="#000000" font-family="sans-serif" font-size="5.2" lengthAdjust="spacing" textLength="12" x="145.4" y="239.2878">owns</text><text fill="#000000" font-family="sans-serif" font-size="5.2" lengthAdjust="spacing" textLength="2.8" x="105.9399" y="298.7647">1</text><text fill="#000000" font-family="sans-serif" font-size="5.2" lengthAdjust="spacing" textLength="2.8" x="189.4581" y="241.784">1</text></g><!--link Organization to Address--><g id="link_Organization_Address"><path codeLine="110" d="M121.452,355.3204 C139.796,378.4044 170.504,408.4764 206,408.4764 C206,408.4764 206,408.4764 513,408.4764 C544.86,408.4764 569.804,378.4044 584.26,355.3204 " fill="none" id="Organization-Address" style="stroke:#181818;stroke-width:0.4000000000000001;"/><polygon fill="#000000" points="360.4,404.7346,356.782,403.5591,356.782,405.9102,360.4,404.7346" style="stroke:#000000;stroke-width:0.4000000000000001;"/><text fill="#000000" font-family="sans-serif" font-size="5.2" lengthAdjust="spacing" textLength="15.6" x="362" y="406.8878">has an</text><text fill="#000000" font-family="sans-serif" font-size="5.2" lengthAdjust="spacing" textLength="2.8" x="120.4105" y="363.9798">1</text><text fill="#000000" font-family="sans-serif" font-size="5.2" lengthAdjust="spacing" textLength="2.8" x="579.8368" y="363.9798">1</text></g><!--link Organization to UserPortal--><g id="link_Organization_UserPortal"><path codeLine="111" d="M123.328,347.1124 C127.076,349.7804 131.108,352.2484 135.2,354.0764 C153.728,362.3644 177.26,365.2884 191.98,366.3164 " fill="none" id="Organization-UserPortal" style="stroke:#181818;stroke-width:0.4000000000000001;"/><polygon fill="#000000" points="143.7261,350.8734,140.5585,348.7666,139.9251,351.0309,143.7261,350.8734" style="stroke:#000000;stroke-width:0.4000000000000001;"/><text fill="#000000" font-family="sans-serif" font-size="5.2" lengthAdjust="spacing" textLength="12" x="145.4" y="352.4878">owns</text><text fill="#000000" font-family="sans-serif" font-size="5.2" lengthAdjust="spacing" textLength="2.8" x="126.3835" y="355.726">1</text><text fill="#000000" font-family="sans-serif" font-size="5.2" lengthAdjust="spacing" textLength="8" x="180.8141" y="372.4306">1..*</text></g><!--link Organization to GreenSpace--><g id="link_Organization_GreenSpace"><path codeLine="112" d="M123.32,329.2764 C155.892,329.2764 219.952,329.2764 250.384,329.2764 " fill="none" id="Organization-GreenSpace" style="stroke:#181818;stroke-width:0.4000000000000001;"/><polygon fill="#000000" points="139.2,325.5346,135.582,324.3591,135.582,326.7102,139.2,325.5346" style="stroke:#000000;stroke-width:0.4000000000000001;"/><text fill="#000000" font-family="sans-serif" font-size="5.2" lengthAdjust="spacing" textLength="21.2" x="140.8" y="327.6878">manages</text><text fill="#000000" font-family="sans-serif" font-size="5.2" lengthAdjust="spacing" textLength="2.8" x="126.3744" y="335.3818">1</text><text fill="#000000" font-family="sans-serif" font-size="5.2" lengthAdjust="spacing" textLength="2" x="245.2531" y="335.4655">*</text></g><!--link Organization to Collaborator--><g id="link_Organization_Collaborator"><path codeLine="115" d="M123.24,321.8564 C127.164,320.5804 131.28,319.3804 135.2,318.4764 C152.072,314.5844 428.96,287.1124 444.4,279.2764 C473.62,264.4484 491.716,230.6684 501.78,204.8084 " fill="none" id="Organization-Collaborator" style="stroke:#181818;stroke-width:0.4000000000000001;"/><polygon fill="#000000" points="311.9107,291.3438,308.1069,291.2895,308.8015,293.5357,311.9107,291.3438" style="stroke:#000000;stroke-width:0.4000000000000001;"/><text fill="#000000" font-family="sans-serif" font-size="5.2" lengthAdjust="spacing" textLength="8.4" x="313.6" y="294.0878">has</text><text fill="#000000" font-family="sans-serif" font-size="5.2" lengthAdjust="spacing" textLength="2.8" x="126.4184" y="326.8939">1</text><text fill="#000000" font-family="sans-serif" font-size="5.2" lengthAdjust="spacing" textLength="2" x="498.8012" y="213.4835">*</text></g><!--link Organization to Vehicle--><g id="link_Organization_Vehicle"><path codeLine="116" d="M107.16,355.3724 C111.232,376.2804 119.388,405.4884 135.2,426.4764 C145.432,440.0564 160.672,451.0924 174.396,459.1404 " fill="none" id="Organization-Vehicle" style="stroke:#181818;stroke-width:0.4000000000000001;"/><polygon fill="#000000" points="142.8876,424.4131,141.9067,420.7375,139.9336,422.016,142.8876,424.4131" style="stroke:#000000;stroke-width:0.4000000000000001;"/><text fill="#000000" font-family="sans-serif" font-size="5.2" lengthAdjust="spacing" textLength="12" x="145.4" y="424.8878">owns</text><text fill="#000000" font-family="sans-serif" font-size="5.2" lengthAdjust="spacing" textLength="2.8" x="104.6446" y="364.0372">1</text><text fill="#000000" font-family="sans-serif" font-size="5.2" lengthAdjust="spacing" textLength="2" x="169.2503" y="463.6229">*</text></g><!--link Collaborator to Skill--><g id="link_Collaborator_Skill"><path codeLine="117" d="M533.624,167.1124 C551.352,163.5324 576.076,158.5444 589.192,155.8964 " fill="none" id="Collaborator-Skill" style="stroke:#181818;stroke-width:0.4000000000000001;"/><polygon fill="#000000" points="553.1605,156.7389,549.3814,156.3024,549.8465,158.6071,553.1605,156.7389" style="stroke:#000000;stroke-width:0.4000000000000001;"/><text fill="#000000" font-family="sans-serif" font-size="5.2" lengthAdjust="spacing" textLength="8.4" x="554.8" y="159.2878">has</text><text fill="#000000" font-family="sans-serif" font-size="5.2" lengthAdjust="spacing" textLength="2.8" x="536.7774" y="172.6254">1</text><text fill="#000000" font-family="sans-serif" font-size="5.2" lengthAdjust="spacing" textLength="2" x="584.0046" y="163.1094">*</text></g><!--link Collaborator to Address--><g id="link_Collaborator_Address"><path codeLine="118" d="M531.068,204.7844 C546.92,234.1804 569.644,276.3204 584.164,303.2444 " fill="none" id="Collaborator-Address" style="stroke:#181818;stroke-width:0.4000000000000001;"/><polygon fill="#000000" points="548.5493,234.495,547.8667,230.7525,545.7973,231.8685,548.5493,234.495" style="stroke:#000000;stroke-width:0.4000000000000001;"/><text fill="#000000" font-family="sans-serif" font-size="5.2" lengthAdjust="spacing" textLength="15.6" x="551.2" y="234.8878">has an</text><text fill="#000000" font-family="sans-serif" font-size="5.2" lengthAdjust="spacing" textLength="2.8" x="529.6814" y="213.4575">1</text><text fill="#000000" font-family="sans-serif" font-size="5.2" lengthAdjust="spacing" textLength="2.8" x="579.6319" y="298.849">1</text></g><!--link Collaborator to Job--><g id="link_Collaborator_Job"><path codeLine="119" d="M533.624,152.8804 C551.352,137.0644 576.076,115.0124 589.192,103.3124 " fill="none" id="Collaborator-Job" style="stroke:#181818;stroke-width:0.4000000000000001;"/><polygon fill="#000000" points="552.6925,119.4033,549.21,120.9345,550.7751,122.689,552.6925,119.4033" style="stroke:#000000;stroke-width:0.4000000000000001;"/><text fill="#000000" font-family="sans-serif" font-size="5.2" lengthAdjust="spacing" textLength="8.4" x="554.8" y="122.8878">has</text><text fill="#000000" font-family="sans-serif" font-size="5.2" lengthAdjust="spacing" textLength="2.8" x="536.7774" y="156.392">1</text><text fill="#000000" font-family="sans-serif" font-size="5.2" lengthAdjust="spacing" textLength="2.8" x="583.2172" y="112.286">1</text></g><!--link HRM to Skill--><g id="link_HRM_Skill"><path codeLine="120" d="M322.416,115.2084 C328.152,110.5244 336.804,104.4004 345.6,101.6764 C439.82,72.5084 481.2,65.3804 567.2,113.6764 C578.992,120.3004 587.764,133.4364 592.912,142.9364 " fill="none" id="HRM-Skill" style="stroke:#181818;stroke-width:0.4000000000000001;"/><polygon fill="#000000" points="460.3896,75.3386,456.9103,73.8002,456.6705,76.1391,460.3896,75.3386" style="stroke:#000000;stroke-width:0.4000000000000001;"/><text fill="#000000" font-family="sans-serif" font-size="5.2" lengthAdjust="spacing" textLength="17.2" x="462" y="77.2878">register</text><text fill="#000000" font-family="sans-serif" font-size="5.2" lengthAdjust="spacing" textLength="2.8" x="325.5932" y="110.5778">1</text><text fill="#000000" font-family="sans-serif" font-size="5.2" lengthAdjust="spacing" textLength="2" x="589.449" y="138.5693">*</text></g><!--link HRM to Job--><g id="link_HRM_Job"><path codeLine="121" d="M317.288,113.7564 C320.46,101.6164 328.588,78.0564 345.6,68.0764 C430.552,18.2484 475.108,33.1604 567.2,68.0764 C575.836,71.3524 583.64,78.2324 589.26,84.2524 " fill="none" id="HRM-Job" style="stroke:#181818;stroke-width:0.4000000000000001;"/><polygon fill="#000000" points="460.3883,32.9189,456.6646,32.1404,456.9182,34.4779,460.3883,32.9189" style="stroke:#000000;stroke-width:0.4000000000000001;"/><text fill="#000000" font-family="sans-serif" font-size="5.2" lengthAdjust="spacing" textLength="17.2" x="462" y="35.2878">register</text><text fill="#000000" font-family="sans-serif" font-size="5.2" lengthAdjust="spacing" textLength="2.8" x="314.6901" y="109.3994">1</text><text fill="#000000" font-family="sans-serif" font-size="5.2" lengthAdjust="spacing" textLength="2" x="584.8689" y="79.7305">*</text></g><!--link HRM to Collaborator--><g id="link_HRM_Collaborator"><path codeLine="122" d="M322.548,119.3804 C346.244,113.3124 425.428,96.4284 479.6,125.2764 C485.26,128.2884 485.5558,127.2336 489.7118,132.2376 " fill="none" id="HRM-to-Collaborator" style="stroke:#181818;stroke-width:0.4000000000000001;"/><polygon fill="none" points="494.312,137.7764,491.5581,130.7042,487.8656,133.771,494.312,137.7764" style="stroke:#181818;stroke-width:0.4000000000000001;"/><text fill="#000000" font-family="sans-serif" font-size="5.2" lengthAdjust="spacing" textLength="2.8" x="325.5551" y="125.5548">1</text><text fill="#000000" font-family="sans-serif" font-size="5.2" lengthAdjust="spacing" textLength="2.8" x="489.8201" y="133.4222">1</text></g><!--link HRM to Collaborator--><g id="link_HRM_Collaborator"><path codeLine="123" d="M322.52,122.7604 C345.192,127.6604 419.236,143.9844 479.6,160.8764 C483.492,161.9644 487.612,163.2084 491.572,164.4484 " fill="none" id="HRM-Collaborator" style="stroke:#181818;stroke-width:0.4000000000000001;"/><polygon fill="#000000" points="414.9418,138.0135,411.7105,136.0059,411.1476,138.2886,414.9418,138.0135" style="stroke:#000000;stroke-width:0.4000000000000001;"/><text fill="#000000" font-family="sans-serif" font-size="5.2" lengthAdjust="spacing" textLength="17.2" x="416.6" y="139.6878">register</text><text fill="#000000" font-family="sans-serif" font-size="5.2" lengthAdjust="spacing" textLength="2.8" x="325.6265" y="120.9369">1</text><text fill="#000000" font-family="sans-serif" font-size="5.2" lengthAdjust="spacing" textLength="2" x="486.3366" y="169.5657">*</text></g><!--link HRM to Collaborator--><g id="link_HRM_Collaborator"><path codeLine="124" d="M322.496,126.3884 C328.42,130.6284 337.292,136.6284 345.6,140.8764 C369,152.8404 375.18,156.2244 400.8,162.0764 C431.876,169.1724 468.932,170.9524 491.504,171.3124 " fill="none" id="HRM-Collaborator-1" style="stroke:#181818;stroke-width:0.4000000000000001;"/><polygon fill="#000000" points="404.7329,158.8484,401.5383,156.7829,400.9343,159.0551,404.7329,158.8484" style="stroke:#000000;stroke-width:0.4000000000000001;"/><text fill="#000000" font-family="sans-serif" font-size="5.2" lengthAdjust="spacing" textLength="37.6" x="406.4" y="160.4878">assigns skills to</text><text fill="#000000" font-family="sans-serif" font-size="5.2" lengthAdjust="spacing" textLength="2.8" x="325.594" y="135.0799">1</text><text fill="#000000" font-family="sans-serif" font-size="5.2" lengthAdjust="spacing" textLength="2" x="486.3968" y="177.416">*</text></g><!--link HRM to Team--><g id="link_HRM_Team"><path codeLine="125" d="M318.024,128.8444 C322.26,141.3004 331.876,166.5324 345.6,184.4764 C363.044,207.2844 389.576,227.7924 406.392,239.5844 " fill="none" id="HRM-Team" style="stroke:#181818;stroke-width:0.4000000000000001;"/><polygon fill="#000000" points="356.0475,182.2979,354.7097,178.7367,352.8719,180.2032,356.0475,182.2979" style="stroke:#000000;stroke-width:0.4000000000000001;"/><text fill="#000000" font-family="sans-serif" font-size="5.2" lengthAdjust="spacing" textLength="22.8" x="358.4" y="182.8878">generates</text><text fill="#000000" font-family="sans-serif" font-size="5.2" lengthAdjust="spacing" textLength="2.8" x="315.5889" y="137.3006">1</text><text fill="#000000" font-family="sans-serif" font-size="5.2" lengthAdjust="spacing" textLength="2" x="401.2193" y="243.895">*</text></g><!--link FM to Collaborator--><g id="link_FM_Collaborator"><path codeLine="126" d="M9.312,469.7524 C14.804,426.0164 45.232,206.4764 102.6,206.4764 C102.6,206.4764 102.6,206.4764 423,206.4764 C447.804,206.4764 467.6936,198.1123 485.2176,188.1443 " fill="none" id="FM-to-Collaborator" style="stroke:#181818;stroke-width:0.4000000000000001;"/><polygon fill="none" points="491.476,184.5844,484.031,186.0582,486.4043,190.2304,491.476,184.5844" style="stroke:#181818;stroke-width:0.4000000000000001;"/><text fill="#000000" font-family="sans-serif" font-size="5.2" lengthAdjust="spacing" textLength="2.8" x="6.4862" y="465.3942">1</text><text fill="#000000" font-family="sans-serif" font-size="5.2" lengthAdjust="spacing" textLength="2.8" x="485.6493" y="192.4496">1</text></g><!--link FM to Vehicle--><g id="link_FM_Vehicle"><path codeLine="127" d="M13.252,477.1484 C16.608,477.0604 21.176,476.9524 25.2,476.8764 C77.46,475.9084 138.22,475.1844 174.316,474.7964 " fill="none" id="FM-Vehicle" style="stroke:#181818;stroke-width:0.4000000000000001;"/><polygon fill="#000000" points="93.9998,471.5054,90.365,470.3828,90.3993,472.7337,93.9998,471.5054" style="stroke:#000000;stroke-width:0.4000000000000001;"/><text fill="#000000" font-family="sans-serif" font-size="5.2" lengthAdjust="spacing" textLength="20" x="95.6" y="473.6878">registers</text><text fill="#000000" font-family="sans-serif" font-size="5.2" lengthAdjust="spacing" textLength="2.8" x="16.3286" y="484.335">1</text><text fill="#000000" font-family="sans-serif" font-size="5.2" lengthAdjust="spacing" textLength="2" x="169.1627" y="480.7711">*</text></g><!--link FM to Checkup--><g id="link_FM_Checkup"><path codeLine="128" d="M11.876,484.7004 C14.74,490.0484 19.288,497.0404 25.2,501.2764 C46.872,516.8124 56.592,513.1604 82.8,518.0764 C150.86,530.8444 169.248,529.6884 238.4,526.0764 C258.444,525.0284 281.324,522.4484 296.78,520.5004 " fill="none" id="FM-Checkup" style="stroke:#181818;stroke-width:0.4000000000000001;"/><polygon fill="#000000" points="139.7844,522.584,136.3412,520.9665,136.048,523.2993,139.7844,522.584" style="stroke:#000000;stroke-width:0.4000000000000001;"/><text fill="#000000" font-family="sans-serif" font-size="5.2" lengthAdjust="spacing" textLength="20" x="141.4" y="524.4878">registers</text><text fill="#000000" font-family="sans-serif" font-size="5.2" lengthAdjust="spacing" textLength="2.8" x="9.7724" y="493.3937">1</text><text fill="#000000" font-family="sans-serif" font-size="5.2" lengthAdjust="spacing" textLength="2" x="291.5636" y="527.0905">*</text></g><!--link UserPortal to Comment--><g id="link_UserPortal_Comment"><path codeLine="129" d="M220.808,367.1364 C241.924,367.5284 281.608,368.2604 301.992,368.6404 " fill="none" id="UserPortal-Comment" style="stroke:#181818;stroke-width:0.4000000000000001;"/><polygon fill="#000000" points="264.3997,364.3717,260.804,363.1293,260.7605,365.48,264.3997,364.3717" style="stroke:#000000;stroke-width:0.4000000000000001;"/><text fill="#000000" font-family="sans-serif" font-size="5.2" lengthAdjust="spacing" textLength="8.4" x="266" y="366.4878">has</text><text fill="#000000" font-family="sans-serif" font-size="5.2" lengthAdjust="spacing" textLength="2.8" x="224.0684" y="373.5203">1</text><text fill="#000000" font-family="sans-serif" font-size="5.2" lengthAdjust="spacing" textLength="2" x="296.884" y="374.9354">*</text></g><!--link Agenda to Task--><g id="link_Agenda_Task"><path codeLine="130" d="M217.552,236.7484 C237.664,239.5044 280.884,245.4284 302.276,248.3604 " fill="none" id="Agenda-Task" style="stroke:#181818;stroke-width:0.4000000000000001;"/><polygon fill="#000000" points="264.3815,238.2062,260.9566,236.5502,260.6373,238.8796,264.3815,238.2062" style="stroke:#000000;stroke-width:0.4000000000000001;"/><text fill="#000000" font-family="sans-serif" font-size="5.2" lengthAdjust="spacing" textLength="8.4" x="266" y="240.0878">has</text><text fill="#000000" font-family="sans-serif" font-size="5.2" lengthAdjust="spacing" textLength="2.8" x="220.6116" y="243.58">1</text><text fill="#000000" font-family="sans-serif" font-size="5.2" lengthAdjust="spacing" textLength="2" x="297.2301" y="246.0608">*</text></g><!--link Task to Team--><g id="link_Task_Team"><path codeLine="131" d="M328.036,250.0764 C347.48,250.0764 385.052,250.0764 406.388,250.0764 " fill="none" id="Task-Team" style="stroke:#181818;stroke-width:0.4000000000000001;"/><polygon fill="#000000" points="349.6,246.3346,345.982,245.1591,345.982,247.5102,349.6,246.3346" style="stroke:#000000;stroke-width:0.4000000000000001;"/><text fill="#000000" font-family="sans-serif" font-size="5.2" lengthAdjust="spacing" textLength="37.2" x="351.2" y="248.4878">is carried out by</text><text fill="#000000" font-family="sans-serif" font-size="5.2" lengthAdjust="spacing" textLength="2" x="331.2356" y="256.4826">*</text><text fill="#000000" font-family="sans-serif" font-size="5.2" lengthAdjust="spacing" textLength="2.8" x="400.4509" y="256.3">1</text></g><!--link GreenSpace to Address--><g id="link_GreenSpace_Address"><path codeLine="132" d="M284.96,329.2764 C304.64,329.2764 338.068,329.2764 366.8,329.2764 C366.8,329.2764 366.8,329.2764 513,329.2764 C535.704,329.2764 561.812,329.2764 579.08,329.2764 " fill="none" id="GreenSpace-Address" style="stroke:#181818;stroke-width:0.4000000000000001;"/><polygon fill="#000000" points="415.8,325.5346,412.182,324.3591,412.182,326.7102,415.8,325.5346" style="stroke:#000000;stroke-width:0.4000000000000001;"/><text fill="#000000" font-family="sans-serif" font-size="5.2" lengthAdjust="spacing" textLength="15.6" x="417.4" y="327.6878">has an</text><text fill="#000000" font-family="sans-serif" font-size="5.2" lengthAdjust="spacing" textLength="2.8" x="287.9499" y="335.4235">1</text><text fill="#000000" font-family="sans-serif" font-size="5.2" lengthAdjust="spacing" textLength="2.8" x="573.2074" y="335.4037">1</text></g><!--link Team to Collaborator--><g id="link_Team_Collaborator"><path codeLine="133" d="M438.828,245.7284 C451.044,241.7564 467.792,234.8924 479.6,224.4764 C485.896,218.9244 491.368,211.8564 495.936,204.7004 " fill="none" id="Team-Collaborator" style="stroke:#181818;stroke-width:0.4000000000000001;"/><polygon fill="#000000" points="464.4243,219.5677,460.8,220.724,462.1718,222.6334,464.4243,219.5677" style="stroke:#000000;stroke-width:0.4000000000000001;"/><text fill="#000000" font-family="sans-serif" font-size="5.2" lengthAdjust="spacing" textLength="8.4" x="466.4" y="222.8878">has</text><text fill="#000000" font-family="sans-serif" font-size="5.2" lengthAdjust="spacing" textLength="2.8" x="441.968" y="251.1775">1</text><text fill="#000000" font-family="sans-serif" font-size="5.2" lengthAdjust="spacing" textLength="2" x="492.418" y="213.4819">*</text></g><!--link Vehicle to Checkup--><g id="link_Vehicle_Checkup"><path codeLine="134" d="M238.472,487.2644 C257.456,494.9284 280.908,504.3964 296.768,510.7964 " fill="none" id="Vehicle-Checkup" style="stroke:#181818;stroke-width:0.4000000000000001;"/><polygon fill="#000000" points="262.8546,489.0833,259.9396,486.6389,259.0596,488.8191,262.8546,489.0833" style="stroke:#000000;stroke-width:0.4000000000000001;"/><text fill="#000000" font-family="sans-serif" font-size="5.2" lengthAdjust="spacing" textLength="11.2" x="264.6" y="490.4878">does</text><text fill="#000000" font-family="sans-serif" font-size="5.2" lengthAdjust="spacing" textLength="2.8" x="241.5577" y="494.3766">1</text><text fill="#000000" font-family="sans-serif" font-size="5.2" lengthAdjust="spacing" textLength="2" x="291.5496" y="515.7793">*</text></g><!--link CheckupList to Vehicle--><g id="link_CheckupList_Vehicle"><path codeLine="135" d="M119.884,498.9844 C134.528,494.8164 156.336,488.6124 174.34,483.4844 " fill="none" id="CheckupList-Vehicle" style="stroke:#181818;stroke-width:0.4000000000000001;"/><polygon fill="#000000" points="145.5236,482.9871,141.722,482.8469,142.3656,485.1083,145.5236,482.9871" style="stroke:#000000;stroke-width:0.4000000000000001;"/><text fill="#000000" font-family="sans-serif" font-size="5.2" lengthAdjust="spacing" textLength="8.4" x="147.2" y="485.6878">has</text><text fill="#000000" font-family="sans-serif" font-size="5.2" lengthAdjust="spacing" textLength="2.8" x="123.0266" y="504.3967">1</text><text fill="#000000" font-family="sans-serif" font-size="5.2" lengthAdjust="spacing" textLength="8" x="163.2411" y="490.17">1..*</text></g><!--link FM to CheckupList--><g id="link_FM_CheckupList"><path codeLine="136" d="M13.244,480.2444 C16.52,482.1404 21,484.5284 25.2,486.0764 C45.564,493.5804 70.168,498.5124 86.088,501.1964 " fill="none" id="FM-CheckupList" style="stroke:#181818;stroke-width:0.4000000000000001;"/><polygon fill="#000000" points="29.1221,482.8875,25.97,480.7576,25.3201,483.0171,29.1221,482.8875" style="stroke:#000000;stroke-width:0.4000000000000001;"/><text fill="#000000" font-family="sans-serif" font-size="5.2" lengthAdjust="spacing" textLength="39.6" x="30.8" y="484.4878">requests to show</text><text fill="#000000" font-family="sans-serif" font-size="5.2" lengthAdjust="spacing" textLength="2.8" x="16.483" y="478.9105">1</text><text fill="#000000" font-family="sans-serif" font-size="5.2" lengthAdjust="spacing" textLength="2" x="81.0094" y="506.9889">*</text></g><!--SRC=[ZLLDRzim3BtxLmYv51ZGORlkKA1eaQthkWrBjvqLYRM5wCEbP6Hfj_y-Ih8TnNNQvcBAVdma7qd5RvHjENB3ZBDEDEWCi80TL7xyqdAnuJMimau3Gn21srgN0DzmwRRArkoEQm_LoVwJLXR2hWNcC3Ikqd0NM70CLTq49bLaKyuMN49pxyz3GBNk0bm9PrVg0TYxgb4Ic50eA7Io3H2Zz5KLLA34BftXoh8R9q5NLQ9Xtx3cLZtm68CzLen-bXl8XhfBposilGhvNTiu2ryximPCPo1ANVqRw5ORfNL1i_zouRJcQuSyE9p4uT8exoc1Izv7MIlIOZpDnuoMafTEt99u-rEF6-D-TkiYtFZwqu-RnoAxvS7f5hYPv2Z12rHjQaKy6uXXVB9zuA7pU_TVq2ZgGMPeDPLn9NDPo6ssJEf1jCAGVU2OZHgTzxyXzZ-THOS8DboRT4AebG-0epfSt7UA-bFg9neGcwvT8jntOCNksXJfNUIFEJqvSSd80-0NYbUgyn41x8f67YOQZQMKOf5RxtSk9OBtZxrcn18Ai-XlwqXHVK4IvSnKs6LQIWIL24MZkDzalZJX6TKX7zlKjoQned8OgKRldnxmEsqTrvD2EjJbu1f3ylTXu4yur8rtj6DftWvMQV5-mKvFsUBD8YN9Fh25srhFpXRpE7gSrs0bVnKoAncX3VUCs-FWjsyfWtsXBx8JUj_VY3RSqisM74wEUQIjBwcF8caRNvD2ULaCLJu3xnUkP3vWc4krfvp57PFu6BYlggUagsKsuh2vCvYUO1xnzomPPV2f_rIlPq9DeJJYgYRDV4pJnt-UfpxnFenO6b0WnpmDo-VoMzuSwS-GsI55pYnVDqzGnVGUr97Mij2ztv-PpUi1wHZVzsqRobAU2OweG3BN1RRUHN2n1I-DHU9vUNe75UPBbYxBMbowaoqkLEmPP_LBdab3kljzI2trZTj6X_y0]--></g></svg>