<?xml version="1.0" encoding="us-ascii" standalone="no"?><svg xmlns="http://www.w3.org/2000/svg" xmlns:xlink="http://www.w3.org/1999/xlink" contentStyleType="text/css" height="791.2px" preserveAspectRatio="none" style="width:1112px;height:791px;background:#FFFFFF;" version="1.1" viewBox="0 0 1112 791" width="1112px" zoomAndPan="magnify"><defs/><g><text fill="#000000" font-family="sans-serif" font-size="11.2" font-weight="bold" lengthAdjust="spacing" textLength="178.4" x="468.2" y="24.0859">SD_getCollaboratorTaskDTOList</text><rect fill="#FFFFFF" height="626.5203" style="stroke:#181818;stroke-width:0.8000000000000002;" width="8" x="51.6" y="85.4906"/><rect fill="#FFFFFF" height="25.0328" style="stroke:#181818;stroke-width:0.8000000000000002;" width="8" x="166" y="104.1234"/><rect fill="#FFFFFF" height="25.0328" style="stroke:#181818;stroke-width:0.8000000000000002;" width="8" x="283.6" y="154.1891"/><rect fill="#FFFFFF" height="25.0328" style="stroke:#181818;stroke-width:0.8000000000000002;" width="8" x="385.2" y="204.2547"/><rect fill="#FFFFFF" height="25.0328" style="stroke:#181818;stroke-width:0.8000000000000002;" width="8" x="454" y="254.3203"/><rect fill="#FFFFFF" height="25.0328" style="stroke:#181818;stroke-width:0.8000000000000002;" width="8" x="522.8" y="359.8188"/><rect fill="#FFFFFF" height="25.0328" style="stroke:#181818;stroke-width:0.8000000000000002;" width="8" x="608.4" y="409.8844"/><rect fill="#FFFFFF" height="25.0328" style="stroke:#181818;stroke-width:0.8000000000000002;" width="8" x="709.2" y="459.95"/><rect fill="#FFFFFF" height="161.9953" style="stroke:#181818;stroke-width:0.8000000000000002;" width="8" x="815.6" y="550.0156"/><rect fill="none" height="125.7625" style="stroke:#000000;stroke-width:1.2000000000000002;" width="340.4" x="767.2" y="562.0156"/><line style="stroke:#181818;stroke-width:0.4000000000000001;stroke-dasharray:5.0,5.0;" x1="55.2" x2="55.2" y1="77.4906" y2="746.4109"/><line style="stroke:#181818;stroke-width:0.4000000000000001;stroke-dasharray:5.0,5.0;" x1="169.6" x2="169.6" y1="77.4906" y2="746.4109"/><line style="stroke:#181818;stroke-width:0.4000000000000001;stroke-dasharray:5.0,5.0;" x1="287.2" x2="287.2" y1="77.4906" y2="746.4109"/><line style="stroke:#181818;stroke-width:0.4000000000000001;stroke-dasharray:5.0,5.0;" x1="388.8" x2="388.8" y1="77.4906" y2="746.4109"/><line style="stroke:#181818;stroke-width:0.4000000000000001;stroke-dasharray:5.0,5.0;" x1="457.6" x2="457.6" y1="77.4906" y2="746.4109"/><line style="stroke:#181818;stroke-width:0.4000000000000001;stroke-dasharray:5.0,5.0;" x1="526.4" x2="526.4" y1="77.4906" y2="746.4109"/><line style="stroke:#181818;stroke-width:0.4000000000000001;stroke-dasharray:5.0,5.0;" x1="612" x2="612" y1="77.4906" y2="746.4109"/><line style="stroke:#181818;stroke-width:0.4000000000000001;stroke-dasharray:5.0,5.0;" x1="712.8" x2="712.8" y1="77.4906" y2="746.4109"/><line style="stroke:#181818;stroke-width:0.4000000000000001;stroke-dasharray:5.0,5.0;" x1="819.2" x2="819.2" y1="77.4906" y2="746.4109"/><line style="stroke:#181818;stroke-width:0.4000000000000001;stroke-dasharray:5.0,5.0;" x1="1050" x2="1050" y1="602.8969" y2="746.4109"/><rect fill="#E3E3E3" height="26.0969" rx="2" ry="2" style="stroke:#181818;stroke-width:0.4000000000000001;" width="103.2" x="4" y="50.5938"/><text fill="#000000" font-family="sans-serif" font-size="11.2" lengthAdjust="spacing" textLength="92" x="9.6" y="68.2797">:AgendaController</text><rect fill="#E3E3E3" height="26.0969" rx="2" ry="2" style="stroke:#181818;stroke-width:0.4000000000000001;" width="103.2" x="4" y="745.6109"/><text fill="#000000" font-family="sans-serif" font-size="11.2" lengthAdjust="spacing" textLength="92" x="9.6" y="763.2969">:AgendaController</text><rect fill="#E3E3E3" height="26.0969" rx="2" ry="2" style="stroke:#181818;stroke-width:0.4000000000000001;" width="109.6" x="115.2" y="50.5938"/><text fill="#000000" font-family="sans-serif" font-size="11.2" lengthAdjust="spacing" textLength="98.4" x="120.8" y="68.2797">:ApplicationSession</text><rect fill="#E3E3E3" height="26.0969" rx="2" ry="2" style="stroke:#181818;stroke-width:0.4000000000000001;" width="109.6" x="115.2" y="745.6109"/><text fill="#000000" font-family="sans-serif" font-size="11.2" lengthAdjust="spacing" textLength="98.4" x="120.8" y="763.2969">:ApplicationSession</text><rect fill="#E3E3E3" height="40.9938" rx="2" ry="2" style="stroke:#181818;stroke-width:0.4000000000000001;" width="109.6" x="232.8" y="35.6969"/><text fill="#000000" font-family="sans-serif" font-size="11.2" lengthAdjust="spacing" textLength="45.6" x="264.8" y="53.3828">singleton</text><text fill="#000000" font-family="sans-serif" font-size="11.2" lengthAdjust="spacing" textLength="98.4" x="238.4" y="68.2797">:ApplicationSession</text><rect fill="#E3E3E3" height="40.9938" rx="2" ry="2" style="stroke:#181818;stroke-width:0.4000000000000001;" width="109.6" x="232.8" y="745.6109"/><text fill="#000000" font-family="sans-serif" font-size="11.2" lengthAdjust="spacing" textLength="45.6" x="264.8" y="763.2969">singleton</text><text fill="#000000" font-family="sans-serif" font-size="11.2" lengthAdjust="spacing" textLength="98.4" x="238.4" y="778.1938">:ApplicationSession</text><rect fill="#E3E3E3" height="40.9938" rx="2" ry="2" style="stroke:#181818;stroke-width:0.4000000000000001;" width="77.6" x="350.4" y="35.6969"/><text fill="#000000" font-family="sans-serif" font-size="11.2" lengthAdjust="spacing" textLength="62.4" x="358" y="53.3828">userSession</text><text fill="#000000" font-family="sans-serif" font-size="11.2" lengthAdjust="spacing" textLength="66.4" x="356" y="68.2797">:UserSession</text><rect fill="#E3E3E3" height="40.9938" rx="2" ry="2" style="stroke:#181818;stroke-width:0.4000000000000001;" width="77.6" x="350.4" y="745.6109"/><text fill="#000000" font-family="sans-serif" font-size="11.2" lengthAdjust="spacing" textLength="62.4" x="358" y="763.2969">userSession</text><text fill="#000000" font-family="sans-serif" font-size="11.2" lengthAdjust="spacing" textLength="66.4" x="356" y="778.1938">:UserSession</text><rect fill="#E3E3E3" height="40.9938" rx="2" ry="2" style="stroke:#181818;stroke-width:0.4000000000000001;" width="44" x="436" y="35.6969"/><text fill="#000000" font-family="sans-serif" font-size="11.2" lengthAdjust="spacing" textLength="32.8" x="441.6" y="53.3828">userID</text><text fill="#000000" font-family="sans-serif" font-size="11.2" lengthAdjust="spacing" textLength="30.4" x="442.8" y="68.2797">:Email</text><rect fill="#E3E3E3" height="40.9938" rx="2" ry="2" style="stroke:#181818;stroke-width:0.4000000000000001;" width="44" x="436" y="745.6109"/><text fill="#000000" font-family="sans-serif" font-size="11.2" lengthAdjust="spacing" textLength="32.8" x="441.6" y="763.2969">userID</text><text fill="#000000" font-family="sans-serif" font-size="11.2" lengthAdjust="spacing" textLength="30.4" x="442.8" y="778.1938">:Email</text><rect fill="#E3E3E3" height="26.0969" rx="2" ry="2" style="stroke:#181818;stroke-width:0.4000000000000001;" width="77.6" x="488" y="50.5938"/><text fill="#000000" font-family="sans-serif" font-size="11.2" lengthAdjust="spacing" textLength="66.4" x="493.6" y="68.2797">:Repositories</text><rect fill="#E3E3E3" height="26.0969" rx="2" ry="2" style="stroke:#181818;stroke-width:0.4000000000000001;" width="77.6" x="488" y="745.6109"/><text fill="#000000" font-family="sans-serif" font-size="11.2" lengthAdjust="spacing" textLength="66.4" x="493.6" y="763.2969">:Repositories</text><rect fill="#E3E3E3" height="40.9938" rx="2" ry="2" style="stroke:#181818;stroke-width:0.4000000000000001;" width="77.6" x="573.6" y="35.6969"/><text fill="#000000" font-family="sans-serif" font-size="11.2" lengthAdjust="spacing" textLength="59.2" x="582.8" y="53.3828">repositories</text><text fill="#000000" font-family="sans-serif" font-size="11.2" lengthAdjust="spacing" textLength="66.4" x="579.2" y="68.2797">:Repositories</text><rect fill="#E3E3E3" height="40.9938" rx="2" ry="2" style="stroke:#181818;stroke-width:0.4000000000000001;" width="77.6" x="573.6" y="745.6109"/><text fill="#000000" font-family="sans-serif" font-size="11.2" lengthAdjust="spacing" textLength="59.2" x="582.8" y="763.2969">repositories</text><text fill="#000000" font-family="sans-serif" font-size="11.2" lengthAdjust="spacing" textLength="66.4" x="579.2" y="778.1938">:Repositories</text><rect fill="#E3E3E3" height="40.9938" rx="2" ry="2" style="stroke:#181818;stroke-width:0.4000000000000001;" width="108" x="659.2" y="35.6969"/><text fill="#000000" font-family="sans-serif" font-size="11.2" lengthAdjust="spacing" textLength="92.8" x="666.8" y="53.3828">agendaRepository</text><text fill="#000000" font-family="sans-serif" font-size="11.2" lengthAdjust="spacing" textLength="96.8" x="664.8" y="68.2797">:AgendaRepository</text><rect fill="#E3E3E3" height="40.9938" rx="2" ry="2" style="stroke:#181818;stroke-width:0.4000000000000001;" width="108" x="659.2" y="745.6109"/><text fill="#000000" font-family="sans-serif" font-size="11.2" lengthAdjust="spacing" textLength="92.8" x="666.8" y="763.2969">agendaRepository</text><text fill="#000000" font-family="sans-serif" font-size="11.2" lengthAdjust="spacing" textLength="96.8" x="664.8" y="778.1938">:AgendaRepository</text><rect fill="#E3E3E3" height="26.0969" rx="2" ry="2" style="stroke:#181818;stroke-width:0.4000000000000001;" width="88.8" x="775.2" y="50.5938"/><text fill="#000000" font-family="sans-serif" font-size="11.2" lengthAdjust="spacing" textLength="77.6" x="780.8" y="68.2797">AgendaMapper</text><rect fill="#E3E3E3" height="26.0969" rx="2" ry="2" style="stroke:#181818;stroke-width:0.4000000000000001;" width="88.8" x="775.2" y="745.6109"/><text fill="#000000" font-family="sans-serif" font-size="11.2" lengthAdjust="spacing" textLength="77.6" x="780.8" y="763.2969">AgendaMapper</text><rect fill="#E3E3E3" height="26.0969" rx="2" ry="2" style="stroke:#181818;stroke-width:0.4000000000000001;" width="99.2" x="1000.4" y="745.6109"/><text fill="#000000" font-family="sans-serif" font-size="11.2" lengthAdjust="spacing" textLength="88" x="1006" y="763.2969">AgendaTaskDTO</text><rect fill="#FFFFFF" height="626.5203" style="stroke:#181818;stroke-width:0.8000000000000002;" width="8" x="51.6" y="85.4906"/><rect fill="#FFFFFF" height="25.0328" style="stroke:#181818;stroke-width:0.8000000000000002;" width="8" x="166" y="104.1234"/><rect fill="#FFFFFF" height="25.0328" style="stroke:#181818;stroke-width:0.8000000000000002;" width="8" x="283.6" y="154.1891"/><rect fill="#FFFFFF" height="25.0328" style="stroke:#181818;stroke-width:0.8000000000000002;" width="8" x="385.2" y="204.2547"/><rect fill="#FFFFFF" height="25.0328" style="stroke:#181818;stroke-width:0.8000000000000002;" width="8" x="454" y="254.3203"/><rect fill="#FFFFFF" height="25.0328" style="stroke:#181818;stroke-width:0.8000000000000002;" width="8" x="522.8" y="359.8188"/><rect fill="#FFFFFF" height="25.0328" style="stroke:#181818;stroke-width:0.8000000000000002;" width="8" x="608.4" y="409.8844"/><rect fill="#FFFFFF" height="25.0328" style="stroke:#181818;stroke-width:0.8000000000000002;" width="8" x="709.2" y="459.95"/><rect fill="#FFFFFF" height="161.9953" style="stroke:#181818;stroke-width:0.8000000000000002;" width="8" x="815.6" y="550.0156"/><polygon fill="#181818" points="156.4,100.9234,164.4,104.1234,156.4,107.3234,159.6,104.1234" style="stroke:#181818;stroke-width:0.8000000000000002;"/><line style="stroke:#181818;stroke-width:0.8000000000000002;" x1="59.6" x2="161.2" y1="104.1234" y2="104.1234"/><text fill="#000000" font-family="sans-serif" font-size="10.4" font-weight="bold" lengthAdjust="spacing" textLength="5.6" x="65.2" y="99.9133">1</text><text fill="#000000" font-family="sans-serif" font-size="10.4" lengthAdjust="spacing" textLength="60" x="74" y="99.9133">getInstance()</text><polygon fill="#181818" points="68.4,125.9563,60.4,129.1563,68.4,132.3563,65.2,129.1563" style="stroke:#181818;stroke-width:0.8000000000000002;"/><line style="stroke:#181818;stroke-width:0.8000000000000002;stroke-dasharray:2.0,2.0;" x1="63.6" x2="169.2" y1="129.1563" y2="129.1563"/><text fill="#000000" font-family="sans-serif" font-size="10.4" font-weight="bold" lengthAdjust="spacing" textLength="5.6" x="73.2" y="124.9461">2</text><text fill="#000000" font-family="sans-serif" font-size="10.4" lengthAdjust="spacing" textLength="41.6" x="82" y="124.9461">singleton</text><polygon fill="#181818" points="274,150.9891,282,154.1891,274,157.3891,277.2,154.1891" style="stroke:#181818;stroke-width:0.8000000000000002;"/><line style="stroke:#181818;stroke-width:0.8000000000000002;" x1="59.6" x2="278.8" y1="154.1891" y2="154.1891"/><text fill="#000000" font-family="sans-serif" font-size="10.4" font-weight="bold" lengthAdjust="spacing" textLength="5.6" x="65.2" y="149.9789">3</text><text fill="#000000" font-family="sans-serif" font-size="10.4" lengthAdjust="spacing" textLength="80" x="74" y="149.9789">getUserSession()</text><polygon fill="#181818" points="68.4,176.0219,60.4,179.2219,68.4,182.4219,65.2,179.2219" style="stroke:#181818;stroke-width:0.8000000000000002;"/><line style="stroke:#181818;stroke-width:0.8000000000000002;stroke-dasharray:2.0,2.0;" x1="63.6" x2="286.8" y1="179.2219" y2="179.2219"/><text fill="#000000" font-family="sans-serif" font-size="10.4" font-weight="bold" lengthAdjust="spacing" textLength="5.6" x="73.2" y="175.0117">4</text><text fill="#000000" font-family="sans-serif" font-size="10.4" lengthAdjust="spacing" textLength="57.6" x="82" y="175.0117">userSession</text><polygon fill="#181818" points="375.6,201.0547,383.6,204.2547,375.6,207.4547,378.8,204.2547" style="stroke:#181818;stroke-width:0.8000000000000002;"/><line style="stroke:#181818;stroke-width:0.8000000000000002;" x1="59.6" x2="380.4" y1="204.2547" y2="204.2547"/><text fill="#000000" font-family="sans-serif" font-size="10.4" font-weight="bold" lengthAdjust="spacing" textLength="5.6" x="65.2" y="200.0445">5</text><text fill="#000000" font-family="sans-serif" font-size="10.4" lengthAdjust="spacing" textLength="50.4" x="74" y="200.0445">getUserId()</text><polygon fill="#181818" points="68.4,226.0875,60.4,229.2875,68.4,232.4875,65.2,229.2875" style="stroke:#181818;stroke-width:0.8000000000000002;"/><line style="stroke:#181818;stroke-width:0.8000000000000002;stroke-dasharray:2.0,2.0;" x1="63.6" x2="388.4" y1="229.2875" y2="229.2875"/><text fill="#000000" font-family="sans-serif" font-size="10.4" font-weight="bold" lengthAdjust="spacing" textLength="5.6" x="73.2" y="225.0773">6</text><text fill="#000000" font-family="sans-serif" font-size="10.4" lengthAdjust="spacing" textLength="28" x="82" y="225.0773">userId</text><polygon fill="#181818" points="444.4,251.1203,452.4,254.3203,444.4,257.5203,447.6,254.3203" style="stroke:#181818;stroke-width:0.8000000000000002;"/><line style="stroke:#181818;stroke-width:0.8000000000000002;" x1="59.6" x2="449.2" y1="254.3203" y2="254.3203"/><text fill="#000000" font-family="sans-serif" font-size="10.4" font-weight="bold" lengthAdjust="spacing" textLength="5.6" x="65.2" y="250.1102">7</text><text fill="#000000" font-family="sans-serif" font-size="10.4" lengthAdjust="spacing" textLength="47.2" x="74" y="250.1102">getEmail()</text><polygon fill="#181818" points="68.4,276.1531,60.4,279.3531,68.4,282.5531,65.2,279.3531" style="stroke:#181818;stroke-width:0.8000000000000002;"/><line style="stroke:#181818;stroke-width:0.8000000000000002;stroke-dasharray:2.0,2.0;" x1="63.6" x2="457.2" y1="279.3531" y2="279.3531"/><text fill="#000000" font-family="sans-serif" font-size="10.4" font-weight="bold" lengthAdjust="spacing" textLength="5.6" x="73.2" y="275.143">8</text><text fill="#000000" font-family="sans-serif" font-size="10.4" lengthAdjust="spacing" textLength="24.8" x="82" y="275.143">email</text><line style="stroke:#181818;stroke-width:0.8000000000000002;" x1="59.6" x2="93.2" y1="304.3859" y2="304.3859"/><line style="stroke:#181818;stroke-width:0.8000000000000002;" x1="93.2" x2="93.2" y1="304.3859" y2="314.7859"/><line style="stroke:#181818;stroke-width:0.8000000000000002;" x1="60.4" x2="93.2" y1="314.7859" y2="314.7859"/><polygon fill="#181818" points="68.4,311.5859,60.4,314.7859,68.4,317.9859,65.2,314.7859" style="stroke:#181818;stroke-width:0.8000000000000002;"/><text fill="#000000" font-family="sans-serif" font-size="10.4" font-weight="bold" lengthAdjust="spacing" textLength="5.6" x="65.2" y="300.1758">9</text><text fill="#000000" font-family="sans-serif" font-size="10.4" lengthAdjust="spacing" textLength="80" x="74" y="300.1758">collaboratorEmail</text><polygon fill="#181818" points="513.2,356.6188,521.2,359.8188,513.2,363.0188,516.4,359.8188" style="stroke:#181818;stroke-width:0.8000000000000002;"/><line style="stroke:#181818;stroke-width:0.8000000000000002;" x1="59.6" x2="518" y1="359.8188" y2="359.8188"/><text fill="#000000" font-family="sans-serif" font-size="10.4" font-weight="bold" lengthAdjust="spacing" textLength="11.2" x="65.2" y="355.6086">10</text><text fill="#000000" font-family="sans-serif" font-size="10.4" lengthAdjust="spacing" textLength="60" x="79.6" y="355.6086">getInstance()</text><polygon fill="#181818" points="68.4,381.6516,60.4,384.8516,68.4,388.0516,65.2,384.8516" style="stroke:#181818;stroke-width:0.8000000000000002;"/><line style="stroke:#181818;stroke-width:0.8000000000000002;stroke-dasharray:2.0,2.0;" x1="63.6" x2="526" y1="384.8516" y2="384.8516"/><text fill="#000000" font-family="sans-serif" font-size="10.4" font-weight="bold" lengthAdjust="spacing" textLength="11.2" x="73.2" y="380.6414">11</text><text fill="#000000" font-family="sans-serif" font-size="10.4" lengthAdjust="spacing" textLength="53.6" x="87.6" y="380.6414">repositories</text><polygon fill="#181818" points="598.8,406.6844,606.8,409.8844,598.8,413.0844,602,409.8844" style="stroke:#181818;stroke-width:0.8000000000000002;"/><line style="stroke:#181818;stroke-width:0.8000000000000002;" x1="59.6" x2="603.6" y1="409.8844" y2="409.8844"/><text fill="#000000" font-family="sans-serif" font-size="10.4" font-weight="bold" lengthAdjust="spacing" textLength="11.2" x="65.2" y="405.6742">12</text><text fill="#000000" font-family="sans-serif" font-size="10.4" lengthAdjust="spacing" textLength="105.6" x="79.6" y="405.6742">getAgendaRepository()</text><polygon fill="#181818" points="68.4,431.7172,60.4,434.9172,68.4,438.1172,65.2,434.9172" style="stroke:#181818;stroke-width:0.8000000000000002;"/><line style="stroke:#181818;stroke-width:0.8000000000000002;stroke-dasharray:2.0,2.0;" x1="63.6" x2="611.6" y1="434.9172" y2="434.9172"/><text fill="#000000" font-family="sans-serif" font-size="10.4" font-weight="bold" lengthAdjust="spacing" textLength="11.2" x="73.2" y="430.707">13</text><text fill="#000000" font-family="sans-serif" font-size="10.4" lengthAdjust="spacing" textLength="83.2" x="87.6" y="430.707">agendaRepository</text><polygon fill="#181818" points="699.6,456.75,707.6,459.95,699.6,463.15,702.8,459.95" style="stroke:#181818;stroke-width:0.8000000000000002;"/><line style="stroke:#181818;stroke-width:0.8000000000000002;" x1="59.6" x2="704.4" y1="459.95" y2="459.95"/><text fill="#000000" font-family="sans-serif" font-size="10.4" font-weight="bold" lengthAdjust="spacing" textLength="11.2" x="65.2" y="455.7398">14</text><text fill="#000000" font-family="sans-serif" font-size="10.4" lengthAdjust="spacing" textLength="233.6" x="79.6" y="455.7398">getCollbaboratorSpecificAgenda(collaboratorEmail)</text><polygon fill="#181818" points="68.4,481.7828,60.4,484.9828,68.4,488.1828,65.2,484.9828" style="stroke:#181818;stroke-width:0.8000000000000002;"/><line style="stroke:#181818;stroke-width:0.8000000000000002;stroke-dasharray:2.0,2.0;" x1="63.6" x2="712.4" y1="484.9828" y2="484.9828"/><text fill="#000000" font-family="sans-serif" font-size="10.4" font-weight="bold" lengthAdjust="spacing" textLength="11.2" x="73.2" y="480.7727">15</text><text fill="#000000" font-family="sans-serif" font-size="10.4" lengthAdjust="spacing" textLength="81.6" x="87.6" y="480.7727">collaboratorTasks</text><polygon fill="#181818" points="806,546.8156,814,550.0156,806,553.2156,809.2,550.0156" style="stroke:#181818;stroke-width:0.8000000000000002;"/><line style="stroke:#181818;stroke-width:0.8000000000000002;" x1="59.6" x2="810.8" y1="550.0156" y2="550.0156"/><text fill="#000000" font-family="sans-serif" font-size="10.4" font-weight="bold" lengthAdjust="spacing" textLength="11.2" x="65.2" y="545.8055">16</text><text fill="#000000" font-family="sans-serif" font-size="10.4" lengthAdjust="spacing" textLength="134.4" x="79.6" y="545.8055">toDTOList(collaboratorTasks)</text><path d="M767.2,562.0156 L825.6,562.0156 L825.6,569.4484 L817.6,577.4484 L767.2,577.4484 L767.2,562.0156 " fill="#EEEEEE" style="stroke:#000000;stroke-width:1.2000000000000002;"/><rect fill="none" height="125.7625" style="stroke:#000000;stroke-width:1.2000000000000002;" width="340.4" x="767.2" y="562.0156"/><text fill="#000000" font-family="sans-serif" font-size="10.4" font-weight="bold" lengthAdjust="spacing" textLength="22.4" x="779.2" y="574.0383">loop</text><text fill="#000000" font-family="sans-serif" font-size="8.8" font-weight="bold" lengthAdjust="spacing" textLength="156.8" x="837.6" y="573.1117">[for each task in collaboratorTasks]</text><polygon fill="#181818" points="990.8,592.8813,998.8,596.0813,990.8,599.2813,994,596.0813" style="stroke:#181818;stroke-width:0.8000000000000002;"/><line style="stroke:#181818;stroke-width:0.8000000000000002;" x1="823.6" x2="995.6" y1="596.0813" y2="596.0813"/><text fill="#000000" font-family="sans-serif" font-size="10.4" font-weight="bold" lengthAdjust="spacing" textLength="11.2" x="829.2" y="591.8711">17</text><text fill="#000000" font-family="sans-serif" font-size="10.4" lengthAdjust="spacing" textLength="56" x="843.6" y="591.8711">toDTO(task)</text><rect fill="#E3E3E3" height="26.0969" rx="2" ry="2" style="stroke:#181818;stroke-width:0.4000000000000001;" width="99.2" x="1000.4" y="577.4484"/><text fill="#000000" font-family="sans-serif" font-size="11.2" lengthAdjust="spacing" textLength="88" x="1006" y="595.1344">AgendaTaskDTO</text><line style="stroke:#181818;stroke-width:0.8000000000000002;" x1="823.6" x2="857.2" y1="650.9781" y2="650.9781"/><line style="stroke:#181818;stroke-width:0.8000000000000002;" x1="857.2" x2="857.2" y1="650.9781" y2="661.3781"/><line style="stroke:#181818;stroke-width:0.8000000000000002;" x1="824.4" x2="857.2" y1="661.3781" y2="661.3781"/><polygon fill="#181818" points="832.4,658.1781,824.4,661.3781,832.4,664.5781,829.2,661.3781" style="stroke:#181818;stroke-width:0.8000000000000002;"/><text fill="#000000" font-family="sans-serif" font-size="10.4" font-weight="bold" lengthAdjust="spacing" textLength="11.2" x="829.2" y="646.768">18</text><text fill="#000000" font-family="sans-serif" font-size="10.4" lengthAdjust="spacing" textLength="196.8" x="843.6" y="646.768">agendaTaskDTOList.add(agendaTaskDTO)</text><polygon fill="#181818" points="64.4,708.8109,56.4,712.0109,64.4,715.2109,61.2,712.0109" style="stroke:#181818;stroke-width:0.8000000000000002;"/><line style="stroke:#181818;stroke-width:0.8000000000000002;stroke-dasharray:2.0,2.0;" x1="59.6" x2="818.8" y1="712.0109" y2="712.0109"/><text fill="#000000" font-family="sans-serif" font-size="10.4" font-weight="bold" lengthAdjust="spacing" textLength="11.2" x="69.2" y="707.8008">19</text><text fill="#000000" font-family="sans-serif" font-size="10.4" lengthAdjust="spacing" textLength="93.6" x="83.6" y="707.8008">agendaTaskDTOList</text><!--SRC=[ZLN1Rk8m4BtdAwoUGYNs0pXKge1395P5XBsjL0s90Ol4ZcpJLIK-Vcs7EFOufVKbnBmtxysC9rONnZkGq99MS56TfMWfqV9AC-N_wQ2wm8cM-hEXHD9A0pyr8K2TeHR_63-H8pIAPfbcsa3BrVk9wgLe6ZW82Lh8FQZBQl-sOKfd6LoruDVsG6MMcJYQLQm3hidJulL4UGrBmRKqP2gV22YoAShz-tA_soJehcjO1Pe9NbAbpCFXNxVR6AYOjMqq__87d790nUIhelAEDFG_uvlZ1UyfhLWPnhe5rZYi-uLpsD5EA6OgnAXogDrw-nPZP00n0ISP1LUcEHMDcU3AwGcVDd-qrMUFDasBAiq-GDEm-CGi_qhcBxPeP45CfmVrVEP0dcmxuNRiikYvOOqX5iHtng5gcZAneEzIhnpKVq9yR6deOWo1xGIzdZ24eaNE0X-ZiQB6diBZuYs5t2b7HOtD964YB-wSzIxSJspYVWu7-HwEXQa38Ts06Ic6n2gO-hKFShlT9dZsv3u-GMuQl5M7nqx3yS26HtgYEoZs-dW2fdpu6Oly-3ZO5nw-AMznoFYi8thlqtvJ3qDvouvMxCYg7fedbSS3aKov7mgiDN_GLFifLrao7rFPsgw7pw-o_0rTHwNHqU9-IUI9uiox7HRIxeDa2QmHeYD78OanUoRQn2ACJsI4UP4rR_L-aJq_3svp6t4sfXUk8U_lm_eAGAXYA_4BwZgFTcS_qZ64RxGdpsjuKMDwqkwlIkwcFGlWuoto7m00]--></g></svg>