<?xml version="1.0" encoding="us-ascii" standalone="no"?><svg xmlns="http://www.w3.org/2000/svg" xmlns:xlink="http://www.w3.org/1999/xlink" contentStyleType="text/css" height="1628.2px" preserveAspectRatio="none" style="width:1465px;height:1628px;background:#FFFFFF;" version="1.1" viewBox="0 0 1465 1628" width="1465.1px" zoomAndPan="magnify"><defs/><g><text fill="#000000" font-family="sans-serif" font-size="9.8" font-weight="bold" lengthAdjust="spacing" textLength="108.5" x="673.4" y="17.5752">US029 - Class Diagram</text><!--cluster GUI--><g id="cluster_GUI"><path d="M485.45,31.9443 L503.65,31.9443 A2.625,2.625 0 0 1 505.4,33.6943 L510.3,49.1791 L676.55,49.1791 A1.75,1.75 0 0 1 678.3,50.9291 L678.3,191.8943 A1.75,1.75 0 0 1 676.55,193.6443 L485.45,193.6443 A1.75,1.75 0 0 1 483.7,191.8943 L483.7,33.6943 A1.75,1.75 0 0 1 485.45,31.9443 " fill="#DDDDDD" style="stroke:#000000;stroke-width:1.0499999999999998;"/><line style="stroke:#000000;stroke-width:1.0499999999999998;" x1="483.7" x2="510.3" y1="49.1791" y2="49.1791"/><text fill="#000000" font-family="sans-serif" font-size="9.8" font-weight="bold" lengthAdjust="spacing" textLength="17.5" x="486.5" y="43.9195">GUI</text></g><!--cluster Controller--><g id="cluster_Controller"><path d="M372.75,216.7443 L423.15,216.7443 A2.625,2.625 0 0 1 424.9,218.4943 L429.8,233.9791 L754.95,233.9791 A1.75,1.75 0 0 1 756.7,235.7291 L756.7,350.7943 A1.75,1.75 0 0 1 754.95,352.5443 L372.75,352.5443 A1.75,1.75 0 0 1 371,350.7943 L371,218.4943 A1.75,1.75 0 0 1 372.75,216.7443 " fill="#DDDDDD" style="stroke:#000000;stroke-width:1.0499999999999998;"/><line style="stroke:#000000;stroke-width:1.0499999999999998;" x1="371" x2="429.8" y1="233.9791" y2="233.9791"/><text fill="#000000" font-family="sans-serif" font-size="9.8" font-weight="bold" lengthAdjust="spacing" textLength="49.7" x="373.8" y="228.7195">Controller</text></g><!--cluster Repository--><g id="cluster_Repository"><path d="M5.95,582.8443 L59.85,582.8443 A2.625,2.625 0 0 1 61.6,584.5943 L66.5,600.0791 L1054.55,600.0791 A1.75,1.75 0 0 1 1056.3,601.8291 L1056.3,1057.7943 A1.75,1.75 0 0 1 1054.55,1059.5443 L5.95,1059.5443 A1.75,1.75 0 0 1 4.2,1057.7943 L4.2,584.5943 A1.75,1.75 0 0 1 5.95,582.8443 " fill="#DDDDDD" style="stroke:#000000;stroke-width:1.0499999999999998;"/><line style="stroke:#000000;stroke-width:1.0499999999999998;" x1="4.2" x2="66.5" y1="600.0791" y2="600.0791"/><text fill="#000000" font-family="sans-serif" font-size="9.8" font-weight="bold" lengthAdjust="spacing" textLength="53.2" x="7" y="594.8195">Repository</text></g><!--cluster Domain--><g id="cluster_Domain"><path d="M210.35,1101.5443 L247.45,1101.5443 A2.625,2.625 0 0 1 249.2,1103.2943 L254.1,1118.7791 L850.15,1118.7791 A1.75,1.75 0 0 1 851.9,1120.5291 L851.9,1621.9943 A1.75,1.75 0 0 1 850.15,1623.7443 L210.35,1623.7443 A1.75,1.75 0 0 1 208.6,1621.9943 L208.6,1103.2943 A1.75,1.75 0 0 1 210.35,1101.5443 " fill="#DDDDDD" style="stroke:#000000;stroke-width:1.0499999999999998;"/><line style="stroke:#000000;stroke-width:1.0499999999999998;" x1="208.6" x2="254.1" y1="1118.7791" y2="1118.7791"/><text fill="#000000" font-family="sans-serif" font-size="9.8" font-weight="bold" lengthAdjust="spacing" textLength="36.4" x="211.4" y="1113.5195">Domain</text></g><!--cluster Mapper--><g id="cluster_Mapper"><path d="M1030.05,381.2443 L1068.55,381.2443 A2.625,2.625 0 0 1 1070.3,382.9943 L1075.2,398.4791 L1164.45,398.4791 A1.75,1.75 0 0 1 1166.2,400.2291 L1166.2,487.2943 A1.75,1.75 0 0 1 1164.45,489.0443 L1030.05,489.0443 A1.75,1.75 0 0 1 1028.3,487.2943 L1028.3,382.9943 A1.75,1.75 0 0 1 1030.05,381.2443 " fill="#DDDDDD" style="stroke:#000000;stroke-width:1.0499999999999998;"/><line style="stroke:#000000;stroke-width:1.0499999999999998;" x1="1028.3" x2="1075.2" y1="398.4791" y2="398.4791"/><text fill="#000000" font-family="sans-serif" font-size="9.8" font-weight="bold" lengthAdjust="spacing" textLength="37.8" x="1031.1" y="393.2195">Mapper</text></g><!--cluster DTO--><g id="cluster_DTO"><path d="M1074.85,517.7443 L1095.85,517.7443 A2.625,2.625 0 0 1 1097.6,519.4943 L1102.5,534.9791 L1458.45,534.9791 A1.75,1.75 0 0 1 1460.2,536.7291 L1460.2,1064.0943 A1.75,1.75 0 0 1 1458.45,1065.8443 L1074.85,1065.8443 A1.75,1.75 0 0 1 1073.1,1064.0943 L1073.1,519.4943 A1.75,1.75 0 0 1 1074.85,517.7443 " fill="#DDDDDD" style="stroke:#000000;stroke-width:1.0499999999999998;"/><line style="stroke:#000000;stroke-width:1.0499999999999998;" x1="1073.1" x2="1102.5" y1="534.9791" y2="534.9791"/><text fill="#000000" font-family="sans-serif" font-size="9.8" font-weight="bold" lengthAdjust="spacing" textLength="20.3" x="1075.9" y="529.7195">DTO</text></g><!--class ListCollaboratorTasksUI--><g id="elem_ListCollaboratorTasksUI"><rect codeLine="12" fill="#F1F1F1" height="124.8434" id="ListCollaboratorTasksUI" rx="1.75" ry="1.75" style="stroke:#181818;stroke-width:0.3499999999999999;" width="172.2" x="494.9" y="57.8443"/><ellipse cx="525.56" cy="69.0443" fill="#ADD1B2" rx="7.7" ry="7.7" style="stroke:#181818;stroke-width:0.6999999999999998;"/><path d="M527.4959,66.1568 Q527.6053,66.0037 527.7366,65.9271 Q527.8678,65.8506 528.0209,65.8506 Q528.2834,65.8506 528.4475,66.0365 Q528.6116,66.2115 528.6116,66.6381 L528.6116,67.6553 Q528.6116,68.0818 528.4475,68.2678 Q528.2834,68.4537 528.0209,68.4537 Q527.7803,68.4537 527.6381,68.3115 Q527.4959,68.1803 527.4194,67.8193 Q527.3866,67.5678 527.2553,67.4365 Q527.0256,67.174 526.5991,67.0209 Q526.1725,66.8678 525.735,66.8678 Q525.1991,66.8678 524.7506,67.0975 Q524.3131,67.3271 523.9631,67.8521 Q523.6241,68.3771 523.6241,69.099 L523.6241,69.8646 Q523.6241,70.7287 524.2475,71.3084 Q524.8709,71.8771 525.9866,71.8771 Q526.6428,71.8771 527.1022,71.7021 Q527.3756,71.5928 527.6709,71.2865 Q527.8569,71.1006 527.9553,71.0459 Q528.0647,70.9912 528.2069,70.9912 Q528.4366,70.9912 528.6116,71.1771 Q528.7975,71.3521 528.7975,71.5928 Q528.7975,71.8334 528.5569,72.1178 Q528.2069,72.5225 527.6491,72.7521 Q526.8944,73.0693 525.9866,73.0693 Q524.9256,73.0693 524.0834,72.6318 Q523.3944,72.2818 522.9131,71.5381 Q522.4319,70.7834 522.4319,69.8865 L522.4319,69.0771 Q522.4319,68.1475 522.8584,67.349 Q523.2959,66.5396 524.0616,66.1131 Q524.8272,65.6756 525.6912,65.6756 Q526.2053,65.6756 526.6537,65.7959 Q527.1131,65.9053 527.4959,66.1568 Z " fill="#000000"/><text fill="#000000" font-family="sans-serif" font-size="9.8" lengthAdjust="spacing" textLength="105" x="539.84" y="73.1021">ListCollaboratorTasksUI</text><line style="stroke:#181818;stroke-width:0.3499999999999999;" x1="495.6" x2="666.4" y1="80.2443" y2="80.2443"/><line style="stroke:#181818;stroke-width:0.3499999999999999;" x1="495.6" x2="666.4" y1="85.8443" y2="85.8443"/><text fill="#000000" font-family="sans-serif" font-size="9.8" lengthAdjust="spacing" textLength="117.6" x="499.1" y="99.2195">+ListCollaboratorTasksUI()</text><text fill="#000000" font-family="sans-serif" font-size="9.8" lengthAdjust="spacing" textLength="133.7" x="499.1" y="112.2543">+initialize(url, resourceBundle)</text><text fill="#000000" font-family="sans-serif" font-size="9.8" lengthAdjust="spacing" textLength="88.9" x="499.1" y="125.2891">+btnSetCompleted()</text><text fill="#000000" font-family="sans-serif" font-size="9.8" lengthAdjust="spacing" textLength="74.2" x="499.1" y="138.3238">+completeTask()</text><text fill="#000000" font-family="sans-serif" font-size="9.8" lengthAdjust="spacing" textLength="163.8" x="499.1" y="151.3586">-validateSelectedTask(selectedTask)</text><text fill="#000000" font-family="sans-serif" font-size="9.8" lengthAdjust="spacing" textLength="116.9" x="499.1" y="164.3934">-fillTaskList(collabAgenda)</text><text fill="#000000" font-family="sans-serif" font-size="9.8" lengthAdjust="spacing" textLength="86.8" x="499.1" y="177.4281">-updateTableView()</text></g><!--class ListCollaboratorTasksController--><g id="elem_ListCollaboratorTasksController"><rect codeLine="25" fill="#F1F1F1" height="72.7043" id="ListCollaboratorTasksController" rx="1.75" ry="1.75" style="stroke:#181818;stroke-width:0.3499999999999999;" width="162.4" x="382.2" y="255.5943"/><ellipse cx="392.7" cy="266.7943" fill="#ADD1B2" rx="7.7" ry="7.7" style="stroke:#181818;stroke-width:0.6999999999999998;"/><path d="M394.6359,263.9068 Q394.7453,263.7537 394.8766,263.6771 Q395.0078,263.6006 395.1609,263.6006 Q395.4234,263.6006 395.5875,263.7865 Q395.7516,263.9615 395.7516,264.3881 L395.7516,265.4053 Q395.7516,265.8318 395.5875,266.0178 Q395.4234,266.2037 395.1609,266.2037 Q394.9203,266.2037 394.7781,266.0615 Q394.6359,265.9303 394.5594,265.5693 Q394.5266,265.3178 394.3953,265.1865 Q394.1656,264.924 393.7391,264.7709 Q393.3125,264.6178 392.875,264.6178 Q392.3391,264.6178 391.8906,264.8475 Q391.4531,265.0771 391.1031,265.6021 Q390.7641,266.1271 390.7641,266.849 L390.7641,267.6146 Q390.7641,268.4787 391.3875,269.0584 Q392.0109,269.6271 393.1266,269.6271 Q393.7828,269.6271 394.2422,269.4521 Q394.5156,269.3428 394.8109,269.0365 Q394.9969,268.8506 395.0953,268.7959 Q395.2047,268.7412 395.3469,268.7412 Q395.5766,268.7412 395.7516,268.9271 Q395.9375,269.1021 395.9375,269.3428 Q395.9375,269.5834 395.6969,269.8678 Q395.3469,270.2725 394.7891,270.5021 Q394.0344,270.8193 393.1266,270.8193 Q392.0656,270.8193 391.2234,270.3818 Q390.5344,270.0318 390.0531,269.2881 Q389.5719,268.5334 389.5719,267.6365 L389.5719,266.8271 Q389.5719,265.8975 389.9984,265.099 Q390.4359,264.2896 391.2016,263.8631 Q391.9672,263.4256 392.8312,263.4256 Q393.3453,263.4256 393.7937,263.5459 Q394.2531,263.6553 394.6359,263.9068 Z " fill="#000000"/><text fill="#000000" font-family="sans-serif" font-size="9.8" lengthAdjust="spacing" textLength="140" x="402.5" y="270.8521">ListCollaboratorTasksController</text><line style="stroke:#181818;stroke-width:0.3499999999999999;" x1="382.9" x2="543.9" y1="277.9943" y2="277.9943"/><line style="stroke:#181818;stroke-width:0.3499999999999999;" x1="382.9" x2="543.9" y1="283.5943" y2="283.5943"/><text fill="#000000" font-family="sans-serif" font-size="9.8" lengthAdjust="spacing" textLength="152.6" x="386.4" y="296.9695">+ListCollaboratorTasksController()</text><text fill="#000000" font-family="sans-serif" font-size="9.8" lengthAdjust="spacing" textLength="108.5" x="386.4" y="310.0043">+getAgendaRepository()</text><text fill="#000000" font-family="sans-serif" font-size="9.8" lengthAdjust="spacing" textLength="107.8" x="386.4" y="323.0391">+getCollaboratorTasks()</text></g><!--class CompleteTaskController--><g id="elem_CompleteTaskController"><rect codeLine="31" fill="#F1F1F1" height="98.7738" id="CompleteTaskController" rx="1.75" ry="1.75" style="stroke:#181818;stroke-width:0.3499999999999999;" width="175.7" x="569.45" y="242.6443"/><ellipse cx="600.775" cy="253.8443" fill="#ADD1B2" rx="7.7" ry="7.7" style="stroke:#181818;stroke-width:0.6999999999999998;"/><path d="M602.7109,250.9568 Q602.8203,250.8037 602.9516,250.7271 Q603.0828,250.6506 603.2359,250.6506 Q603.4984,250.6506 603.6625,250.8365 Q603.8266,251.0115 603.8266,251.4381 L603.8266,252.4553 Q603.8266,252.8818 603.6625,253.0678 Q603.4984,253.2537 603.2359,253.2537 Q602.9953,253.2537 602.8531,253.1115 Q602.7109,252.9803 602.6344,252.6193 Q602.6016,252.3678 602.4703,252.2365 Q602.2406,251.974 601.8141,251.8209 Q601.3875,251.6678 600.95,251.6678 Q600.4141,251.6678 599.9656,251.8975 Q599.5281,252.1271 599.1781,252.6521 Q598.8391,253.1771 598.8391,253.899 L598.8391,254.6646 Q598.8391,255.5287 599.4625,256.1084 Q600.0859,256.6771 601.2016,256.6771 Q601.8578,256.6771 602.3172,256.5021 Q602.5906,256.3928 602.8859,256.0865 Q603.0719,255.9006 603.1703,255.8459 Q603.2797,255.7912 603.4219,255.7912 Q603.6516,255.7912 603.8266,255.9771 Q604.0125,256.1521 604.0125,256.3928 Q604.0125,256.6334 603.7719,256.9178 Q603.4219,257.3225 602.8641,257.5521 Q602.1094,257.8693 601.2016,257.8693 Q600.1406,257.8693 599.2984,257.4318 Q598.6094,257.0818 598.1281,256.3381 Q597.6469,255.5834 597.6469,254.6865 L597.6469,253.8771 Q597.6469,252.9475 598.0734,252.149 Q598.5109,251.3396 599.2766,250.9131 Q600.0422,250.4756 600.9062,250.4756 Q601.4203,250.4756 601.8687,250.5959 Q602.3281,250.7053 602.7109,250.9568 Z " fill="#000000"/><text fill="#000000" font-family="sans-serif" font-size="9.8" lengthAdjust="spacing" textLength="107.1" x="615.125" y="257.9021">CompleteTaskController</text><line style="stroke:#181818;stroke-width:0.3499999999999999;" x1="570.15" x2="744.45" y1="265.0443" y2="265.0443"/><line style="stroke:#181818;stroke-width:0.3499999999999999;" x1="570.15" x2="744.45" y1="270.6443" y2="270.6443"/><text fill="#000000" font-family="sans-serif" font-size="9.8" lengthAdjust="spacing" textLength="119.7" x="573.65" y="284.0195">+CompleteTaskController()</text><text fill="#000000" font-family="sans-serif" font-size="9.8" lengthAdjust="spacing" textLength="106.4" x="573.65" y="297.0543">-getAgendaRepository()</text><text fill="#000000" font-family="sans-serif" font-size="9.8" lengthAdjust="spacing" textLength="97.3" x="573.65" y="310.0891">-getTeamRepository()</text><text fill="#000000" font-family="sans-serif" font-size="9.8" lengthAdjust="spacing" textLength="104.3" x="573.65" y="323.1238">-getVehicleRepository()</text><text fill="#000000" font-family="sans-serif" font-size="9.8" lengthAdjust="spacing" textLength="167.3" x="573.65" y="336.1586">+completeTaskAgenda(selectedTask)</text></g><!--class VehicleRepository--><g id="elem_VehicleRepository"><rect codeLine="43" fill="#F1F1F1" height="59.6695" id="VehicleRepository" rx="1.75" ry="1.75" style="stroke:#181818;stroke-width:0.3499999999999999;" width="303.8" x="741.3" y="982.1943"/><ellipse cx="850.325" cy="993.3943" fill="#ADD1B2" rx="7.7" ry="7.7" style="stroke:#181818;stroke-width:0.6999999999999998;"/><path d="M852.2609,990.5068 Q852.3703,990.3537 852.5016,990.2771 Q852.6328,990.2006 852.7859,990.2006 Q853.0484,990.2006 853.2125,990.3865 Q853.3766,990.5615 853.3766,990.9881 L853.3766,992.0053 Q853.3766,992.4318 853.2125,992.6178 Q853.0484,992.8037 852.7859,992.8037 Q852.5453,992.8037 852.4031,992.6615 Q852.2609,992.5303 852.1844,992.1693 Q852.1516,991.9178 852.0203,991.7865 Q851.7906,991.524 851.3641,991.3709 Q850.9375,991.2178 850.5,991.2178 Q849.9641,991.2178 849.5156,991.4475 Q849.0781,991.6771 848.7281,992.2021 Q848.3891,992.7271 848.3891,993.449 L848.3891,994.2146 Q848.3891,995.0787 849.0125,995.6584 Q849.6359,996.2271 850.7516,996.2271 Q851.4078,996.2271 851.8672,996.0521 Q852.1406,995.9428 852.4359,995.6365 Q852.6219,995.4506 852.7203,995.3959 Q852.8297,995.3412 852.9719,995.3412 Q853.2016,995.3412 853.3766,995.5271 Q853.5625,995.7021 853.5625,995.9428 Q853.5625,996.1834 853.3219,996.4678 Q852.9719,996.8725 852.4141,997.1021 Q851.6594,997.4193 850.7516,997.4193 Q849.6906,997.4193 848.8484,996.9818 Q848.1594,996.6318 847.6781,995.8881 Q847.1969,995.1334 847.1969,994.2365 L847.1969,993.4271 Q847.1969,992.4975 847.6234,991.699 Q848.0609,990.8896 848.8266,990.4631 Q849.5922,990.0256 850.4562,990.0256 Q850.9703,990.0256 851.4187,990.1459 Q851.8781,990.2553 852.2609,990.5068 Z " fill="#000000"/><text fill="#000000" font-family="sans-serif" font-size="9.8" lengthAdjust="spacing" textLength="79.8" x="864.675" y="997.4521">VehicleRepository</text><line style="stroke:#181818;stroke-width:0.3499999999999999;" x1="742" x2="1044.4" y1="1004.5943" y2="1004.5943"/><text fill="#000000" font-family="sans-serif" font-size="9.8" lengthAdjust="spacing" textLength="111.3" x="745.5" y="1017.9695">-List&lt;Vehicle&gt; vehicleList</text><line style="stroke:#181818;stroke-width:0.3499999999999999;" x1="742" x2="1044.4" y1="1023.2291" y2="1023.2291"/><text fill="#000000" font-family="sans-serif" font-size="9.8" lengthAdjust="spacing" textLength="295.4" x="745.5" y="1036.6043">+removeWorkPeriodFromVehicle(completedTask, taskWorkPeriod)</text></g><!--class AgendaRepository--><g id="elem_AgendaRepository"><rect codeLine="49" fill="#F1F1F1" height="72.7043" id="AgendaRepository" rx="1.75" ry="1.75" style="stroke:#181818;stroke-width:0.3499999999999999;" width="309.4" x="86.1" y="975.5443"/><ellipse cx="196.875" cy="986.7443" fill="#ADD1B2" rx="7.7" ry="7.7" style="stroke:#181818;stroke-width:0.6999999999999998;"/><path d="M198.8109,983.8568 Q198.9203,983.7037 199.0516,983.6271 Q199.1828,983.5506 199.3359,983.5506 Q199.5984,983.5506 199.7625,983.7365 Q199.9266,983.9115 199.9266,984.3381 L199.9266,985.3553 Q199.9266,985.7818 199.7625,985.9678 Q199.5984,986.1537 199.3359,986.1537 Q199.0953,986.1537 198.9531,986.0115 Q198.8109,985.8803 198.7344,985.5193 Q198.7016,985.2678 198.5703,985.1365 Q198.3406,984.874 197.9141,984.7209 Q197.4875,984.5678 197.05,984.5678 Q196.5141,984.5678 196.0656,984.7975 Q195.6281,985.0271 195.2781,985.5521 Q194.9391,986.0771 194.9391,986.799 L194.9391,987.5646 Q194.9391,988.4287 195.5625,989.0084 Q196.1859,989.5771 197.3016,989.5771 Q197.9578,989.5771 198.4172,989.4021 Q198.6906,989.2928 198.9859,988.9865 Q199.1719,988.8006 199.2703,988.7459 Q199.3797,988.6912 199.5219,988.6912 Q199.7516,988.6912 199.9266,988.8771 Q200.1125,989.0521 200.1125,989.2928 Q200.1125,989.5334 199.8719,989.8178 Q199.5219,990.2225 198.9641,990.4521 Q198.2094,990.7693 197.3016,990.7693 Q196.2406,990.7693 195.3984,990.3318 Q194.7094,989.9818 194.2281,989.2381 Q193.7469,988.4834 193.7469,987.5865 L193.7469,986.7771 Q193.7469,985.8475 194.1734,985.049 Q194.6109,984.2396 195.3766,983.8131 Q196.1422,983.3756 197.0062,983.3756 Q197.5203,983.3756 197.9687,983.4959 Q198.4281,983.6053 198.8109,983.8568 Z " fill="#000000"/><text fill="#000000" font-family="sans-serif" font-size="9.8" lengthAdjust="spacing" textLength="81.9" x="211.225" y="990.8021">AgendaRepository</text><line style="stroke:#181818;stroke-width:0.3499999999999999;" x1="86.8" x2="394.8" y1="997.9443" y2="997.9443"/><text fill="#000000" font-family="sans-serif" font-size="9.8" lengthAdjust="spacing" textLength="88.2" x="90.3" y="1011.3195">-List&lt;Task&gt; agenda</text><line style="stroke:#181818;stroke-width:0.3499999999999999;" x1="86.8" x2="394.8" y1="1016.5791" y2="1016.5791"/><text fill="#000000" font-family="sans-serif" font-size="9.8" lengthAdjust="spacing" textLength="231.7" x="90.3" y="1029.9543">+getCollbaboratorSpecificAgenda(collaboratorEmail)</text><text fill="#000000" font-family="sans-serif" font-size="9.8" lengthAdjust="spacing" textLength="301" x="90.3" y="1042.9891">+updateTaskToDone(title, greenSpaceName, workStartDate, status)</text></g><!--class TeamRepository--><g id="elem_TeamRepository"><rect codeLine="56" fill="#F1F1F1" height="59.6695" id="TeamRepository" rx="1.75" ry="1.75" style="stroke:#181818;stroke-width:0.3499999999999999;" width="296.8" x="420" y="982.1943"/><ellipse cx="529.025" cy="993.3943" fill="#ADD1B2" rx="7.7" ry="7.7" style="stroke:#181818;stroke-width:0.6999999999999998;"/><path d="M530.9609,990.5068 Q531.0703,990.3537 531.2016,990.2771 Q531.3328,990.2006 531.4859,990.2006 Q531.7484,990.2006 531.9125,990.3865 Q532.0766,990.5615 532.0766,990.9881 L532.0766,992.0053 Q532.0766,992.4318 531.9125,992.6178 Q531.7484,992.8037 531.4859,992.8037 Q531.2453,992.8037 531.1031,992.6615 Q530.9609,992.5303 530.8844,992.1693 Q530.8516,991.9178 530.7203,991.7865 Q530.4906,991.524 530.0641,991.3709 Q529.6375,991.2178 529.2,991.2178 Q528.6641,991.2178 528.2156,991.4475 Q527.7781,991.6771 527.4281,992.2021 Q527.0891,992.7271 527.0891,993.449 L527.0891,994.2146 Q527.0891,995.0787 527.7125,995.6584 Q528.3359,996.2271 529.4516,996.2271 Q530.1078,996.2271 530.5672,996.0521 Q530.8406,995.9428 531.1359,995.6365 Q531.3219,995.4506 531.4203,995.3959 Q531.5297,995.3412 531.6719,995.3412 Q531.9016,995.3412 532.0766,995.5271 Q532.2625,995.7021 532.2625,995.9428 Q532.2625,996.1834 532.0219,996.4678 Q531.6719,996.8725 531.1141,997.1021 Q530.3594,997.4193 529.4516,997.4193 Q528.3906,997.4193 527.5484,996.9818 Q526.8594,996.6318 526.3781,995.8881 Q525.8969,995.1334 525.8969,994.2365 L525.8969,993.4271 Q525.8969,992.4975 526.3234,991.699 Q526.7609,990.8896 527.5266,990.4631 Q528.2922,990.0256 529.1562,990.0256 Q529.6703,990.0256 530.1187,990.1459 Q530.5781,990.2553 530.9609,990.5068 Z " fill="#000000"/><text fill="#000000" font-family="sans-serif" font-size="9.8" lengthAdjust="spacing" textLength="72.8" x="543.375" y="997.4521">TeamRepository</text><line style="stroke:#181818;stroke-width:0.3499999999999999;" x1="420.7" x2="716.1" y1="1004.5943" y2="1004.5943"/><text fill="#000000" font-family="sans-serif" font-size="9.8" lengthAdjust="spacing" textLength="95.2" x="424.2" y="1017.9695">-List&lt;Team&gt; teamList</text><line style="stroke:#181818;stroke-width:0.3499999999999999;" x1="420.7" x2="716.1" y1="1023.2291" y2="1023.2291"/><text fill="#000000" font-family="sans-serif" font-size="9.8" lengthAdjust="spacing" textLength="288.4" x="424.2" y="1036.6043">+removeWorkPeriodFromTeam(completedTask, taskWorkPeriod)</text></g><!--class Repositories--><g id="elem_Repositories"><rect codeLine="63" fill="#F1F1F1" height="98.7738" id="Repositories" rx="1.75" ry="1.75" style="stroke:#181818;stroke-width:0.3499999999999999;" width="135.8" x="259" y="608.7443"/><ellipse cx="296.275" cy="619.9443" fill="#ADD1B2" rx="7.7" ry="7.7" style="stroke:#181818;stroke-width:0.6999999999999998;"/><path d="M298.2109,617.0568 Q298.3203,616.9037 298.4516,616.8271 Q298.5828,616.7506 298.7359,616.7506 Q298.9984,616.7506 299.1625,616.9365 Q299.3266,617.1115 299.3266,617.5381 L299.3266,618.5553 Q299.3266,618.9818 299.1625,619.1678 Q298.9984,619.3537 298.7359,619.3537 Q298.4953,619.3537 298.3531,619.2115 Q298.2109,619.0803 298.1344,618.7193 Q298.1016,618.4678 297.9703,618.3365 Q297.7406,618.074 297.3141,617.9209 Q296.8875,617.7678 296.45,617.7678 Q295.9141,617.7678 295.4656,617.9975 Q295.0281,618.2271 294.6781,618.7521 Q294.3391,619.2771 294.3391,619.999 L294.3391,620.7646 Q294.3391,621.6287 294.9625,622.2084 Q295.5859,622.7771 296.7016,622.7771 Q297.3578,622.7771 297.8172,622.6021 Q298.0906,622.4928 298.3859,622.1865 Q298.5719,622.0006 298.6703,621.9459 Q298.7797,621.8912 298.9219,621.8912 Q299.1516,621.8912 299.3266,622.0771 Q299.5125,622.2521 299.5125,622.4928 Q299.5125,622.7334 299.2719,623.0178 Q298.9219,623.4225 298.3641,623.6521 Q297.6094,623.9693 296.7016,623.9693 Q295.6406,623.9693 294.7984,623.5318 Q294.1094,623.1818 293.6281,622.4381 Q293.1469,621.6834 293.1469,620.7865 L293.1469,619.9771 Q293.1469,619.0475 293.5734,618.249 Q294.0109,617.4396 294.7766,617.0131 Q295.5422,616.5756 296.4062,616.5756 Q296.9203,616.5756 297.3687,616.6959 Q297.8281,616.8053 298.2109,617.0568 Z " fill="#000000"/><text fill="#000000" font-family="sans-serif" font-size="9.8" lengthAdjust="spacing" textLength="55.3" x="310.625" y="624.0021">Repositories</text><line style="stroke:#181818;stroke-width:0.3499999999999999;" x1="259.7" x2="394.1" y1="631.1443" y2="631.1443"/><line style="stroke:#181818;stroke-width:0.3499999999999999;" x1="259.7" x2="394.1" y1="636.7443" y2="636.7443"/><text fill="#000000" font-family="sans-serif" font-size="9.8" lengthAdjust="spacing" textLength="65.8" x="263.2" y="650.1195">-Repositories()</text><text fill="#000000" font-family="sans-serif" font-size="9.8" lengthAdjust="spacing" textLength="127.4" x="263.2" y="663.1543">+getInstance() : Repositories</text><text fill="#000000" font-family="sans-serif" font-size="9.8" lengthAdjust="spacing" textLength="106.4" x="263.2" y="676.1891">+getVehicleRepository()</text><text fill="#000000" font-family="sans-serif" font-size="9.8" lengthAdjust="spacing" textLength="108.5" x="263.2" y="689.2238">+getAgendaRepository()</text><text fill="#000000" font-family="sans-serif" font-size="9.8" lengthAdjust="spacing" textLength="99.4" x="263.2" y="702.2586">+getTeamRepository()</text></g><!--class ApplicationSession--><g id="elem_ApplicationSession"><rect codeLine="71" fill="#F1F1F1" height="85.7391" id="ApplicationSession" rx="1.75" ry="1.75" style="stroke:#181818;stroke-width:0.3499999999999999;" width="163.8" x="15.4" y="615.3943"/><ellipse cx="52.675" cy="626.5943" fill="#ADD1B2" rx="7.7" ry="7.7" style="stroke:#181818;stroke-width:0.6999999999999998;"/><path d="M54.6109,623.7068 Q54.7203,623.5537 54.8516,623.4771 Q54.9828,623.4006 55.1359,623.4006 Q55.3984,623.4006 55.5625,623.5865 Q55.7266,623.7615 55.7266,624.1881 L55.7266,625.2053 Q55.7266,625.6318 55.5625,625.8178 Q55.3984,626.0037 55.1359,626.0037 Q54.8953,626.0037 54.7531,625.8615 Q54.6109,625.7303 54.5344,625.3693 Q54.5016,625.1178 54.3703,624.9865 Q54.1406,624.724 53.7141,624.5709 Q53.2875,624.4178 52.85,624.4178 Q52.3141,624.4178 51.8656,624.6475 Q51.4281,624.8771 51.0781,625.4021 Q50.7391,625.9271 50.7391,626.649 L50.7391,627.4146 Q50.7391,628.2787 51.3625,628.8584 Q51.9859,629.4271 53.1016,629.4271 Q53.7578,629.4271 54.2172,629.2521 Q54.4906,629.1428 54.7859,628.8365 Q54.9719,628.6506 55.0703,628.5959 Q55.1797,628.5412 55.3219,628.5412 Q55.5516,628.5412 55.7266,628.7271 Q55.9125,628.9021 55.9125,629.1428 Q55.9125,629.3834 55.6719,629.6678 Q55.3219,630.0725 54.7641,630.3021 Q54.0094,630.6193 53.1016,630.6193 Q52.0406,630.6193 51.1984,630.1818 Q50.5094,629.8318 50.0281,629.0881 Q49.5469,628.3334 49.5469,627.4365 L49.5469,626.6271 Q49.5469,625.6975 49.9734,624.899 Q50.4109,624.0896 51.1766,623.6631 Q51.9422,623.2256 52.8062,623.2256 Q53.3203,623.2256 53.7687,623.3459 Q54.2281,623.4553 54.6109,623.7068 Z " fill="#000000"/><text fill="#000000" font-family="sans-serif" font-size="9.8" lengthAdjust="spacing" textLength="83.3" x="67.025" y="630.6521">ApplicationSession</text><line style="stroke:#181818;stroke-width:0.3499999999999999;" x1="16.1" x2="178.5" y1="637.7943" y2="637.7943"/><line style="stroke:#181818;stroke-width:0.3499999999999999;" x1="16.1" x2="178.5" y1="643.3943" y2="643.3943"/><text fill="#000000" font-family="sans-serif" font-size="9.8" lengthAdjust="spacing" textLength="93.8" x="19.6" y="656.7695">-ApplicationSession()</text><text fill="#000000" font-family="sans-serif" font-size="9.8" lengthAdjust="spacing" textLength="155.4" x="19.6" y="669.8043">+getInstance() : ApplicationSession</text><text fill="#000000" font-family="sans-serif" font-size="9.8" lengthAdjust="spacing" textLength="137.2" x="19.6" y="682.8391">+getAuthenticationRepository()</text><text fill="#000000" font-family="sans-serif" font-size="9.8" lengthAdjust="spacing" textLength="95.2" x="19.6" y="695.8738">+getCurrentSession()</text></g><!--class UserSession--><g id="elem_UserSession"><rect codeLine="79" fill="#F1F1F1" height="46.6348" id="UserSession" rx="1.75" ry="1.75" style="stroke:#181818;stroke-width:0.3499999999999999;" width="79.1" x="27.65" y="853.7443"/><ellipse cx="38.78" cy="864.9443" fill="#ADD1B2" rx="7.7" ry="7.7" style="stroke:#181818;stroke-width:0.6999999999999998;"/><path d="M40.7159,862.0568 Q40.8253,861.9037 40.9566,861.8271 Q41.0878,861.7506 41.2409,861.7506 Q41.5034,861.7506 41.6675,861.9365 Q41.8316,862.1115 41.8316,862.5381 L41.8316,863.5553 Q41.8316,863.9818 41.6675,864.1678 Q41.5034,864.3537 41.2409,864.3537 Q41.0003,864.3537 40.8581,864.2115 Q40.7159,864.0803 40.6394,863.7193 Q40.6066,863.4678 40.4753,863.3365 Q40.2456,863.074 39.8191,862.9209 Q39.3925,862.7678 38.955,862.7678 Q38.4191,862.7678 37.9706,862.9975 Q37.5331,863.2271 37.1831,863.7521 Q36.8441,864.2771 36.8441,864.999 L36.8441,865.7646 Q36.8441,866.6287 37.4675,867.2084 Q38.0909,867.7771 39.2066,867.7771 Q39.8628,867.7771 40.3222,867.6021 Q40.5956,867.4928 40.8909,867.1865 Q41.0769,867.0006 41.1753,866.9459 Q41.2847,866.8912 41.4269,866.8912 Q41.6566,866.8912 41.8316,867.0771 Q42.0175,867.2521 42.0175,867.4928 Q42.0175,867.7334 41.7769,868.0178 Q41.4269,868.4225 40.8691,868.6521 Q40.1144,868.9693 39.2066,868.9693 Q38.1456,868.9693 37.3034,868.5318 Q36.6144,868.1818 36.1331,867.4381 Q35.6519,866.6834 35.6519,865.7865 L35.6519,864.9771 Q35.6519,864.0475 36.0784,863.249 Q36.5159,862.4396 37.2816,862.0131 Q38.0472,861.5756 38.9112,861.5756 Q39.4253,861.5756 39.8737,861.6959 Q40.3331,861.8053 40.7159,862.0568 Z " fill="#000000"/><text fill="#000000" font-family="sans-serif" font-size="9.8" lengthAdjust="spacing" textLength="55.3" x="48.72" y="869.0021">UserSession</text><line style="stroke:#181818;stroke-width:0.3499999999999999;" x1="28.35" x2="106.05" y1="876.1443" y2="876.1443"/><line style="stroke:#181818;stroke-width:0.3499999999999999;" x1="28.35" x2="106.05" y1="881.7443" y2="881.7443"/><text fill="#000000" font-family="sans-serif" font-size="9.8" lengthAdjust="spacing" textLength="70.7" x="31.85" y="895.1195">+getUserEmail()</text></g><!--class Email--><g id="elem_Email"><rect codeLine="84" fill="#F1F1F1" height="33.6" id="Email" rx="1.75" ry="1.75" style="stroke:#181818;stroke-width:0.3499999999999999;" width="46.2" x="15.4" y="995.1443"/><ellipse cx="25.9" cy="1006.3443" fill="#ADD1B2" rx="7.7" ry="7.7" style="stroke:#181818;stroke-width:0.6999999999999998;"/><path d="M27.8359,1003.4568 Q27.9453,1003.3037 28.0766,1003.2271 Q28.2078,1003.1506 28.3609,1003.1506 Q28.6234,1003.1506 28.7875,1003.3365 Q28.9516,1003.5115 28.9516,1003.9381 L28.9516,1004.9553 Q28.9516,1005.3818 28.7875,1005.5678 Q28.6234,1005.7537 28.3609,1005.7537 Q28.1203,1005.7537 27.9781,1005.6115 Q27.8359,1005.4803 27.7594,1005.1193 Q27.7266,1004.8678 27.5953,1004.7365 Q27.3656,1004.474 26.9391,1004.3209 Q26.5125,1004.1678 26.075,1004.1678 Q25.5391,1004.1678 25.0906,1004.3975 Q24.6531,1004.6271 24.3031,1005.1521 Q23.9641,1005.6771 23.9641,1006.399 L23.9641,1007.1646 Q23.9641,1008.0287 24.5875,1008.6084 Q25.2109,1009.1771 26.3266,1009.1771 Q26.9828,1009.1771 27.4422,1009.0021 Q27.7156,1008.8928 28.0109,1008.5865 Q28.1969,1008.4006 28.2953,1008.3459 Q28.4047,1008.2912 28.5469,1008.2912 Q28.7766,1008.2912 28.9516,1008.4771 Q29.1375,1008.6521 29.1375,1008.8928 Q29.1375,1009.1334 28.8969,1009.4178 Q28.5469,1009.8225 27.9891,1010.0521 Q27.2344,1010.3693 26.3266,1010.3693 Q25.2656,1010.3693 24.4234,1009.9318 Q23.7344,1009.5818 23.2531,1008.8381 Q22.7719,1008.0834 22.7719,1007.1865 L22.7719,1006.3771 Q22.7719,1005.4475 23.1984,1004.649 Q23.6359,1003.8396 24.4016,1003.4131 Q25.1672,1002.9756 26.0312,1002.9756 Q26.5453,1002.9756 26.9937,1003.0959 Q27.4531,1003.2053 27.8359,1003.4568 Z " fill="#000000"/><text fill="#000000" font-family="sans-serif" font-size="9.8" lengthAdjust="spacing" textLength="23.8" x="35.7" y="1010.4021">Email</text><line style="stroke:#181818;stroke-width:0.3499999999999999;" x1="16.1" x2="60.9" y1="1017.5443" y2="1017.5443"/><line style="stroke:#181818;stroke-width:0.3499999999999999;" x1="16.1" x2="60.9" y1="1023.1443" y2="1023.1443"/></g><!--class WorkPeriod--><g id="elem_WorkPeriod"><rect codeLine="93" fill="#F1F1F1" height="111.8086" id="WorkPeriod" rx="1.75" ry="1.75" style="stroke:#181818;stroke-width:0.3499999999999999;" width="100.1" x="518.35" y="1500.5443"/><ellipse cx="540.505" cy="1511.7443" fill="#ADD1B2" rx="7.7" ry="7.7" style="stroke:#181818;stroke-width:0.6999999999999998;"/><path d="M542.4409,1508.8568 Q542.5503,1508.7037 542.6816,1508.6271 Q542.8128,1508.5506 542.9659,1508.5506 Q543.2284,1508.5506 543.3925,1508.7365 Q543.5566,1508.9115 543.5566,1509.3381 L543.5566,1510.3553 Q543.5566,1510.7818 543.3925,1510.9678 Q543.2284,1511.1537 542.9659,1511.1537 Q542.7253,1511.1537 542.5831,1511.0115 Q542.4409,1510.8803 542.3644,1510.5193 Q542.3316,1510.2678 542.2003,1510.1365 Q541.9706,1509.874 541.5441,1509.7209 Q541.1175,1509.5678 540.68,1509.5678 Q540.1441,1509.5678 539.6956,1509.7975 Q539.2581,1510.0271 538.9081,1510.5521 Q538.5691,1511.0771 538.5691,1511.799 L538.5691,1512.5646 Q538.5691,1513.4287 539.1925,1514.0084 Q539.8159,1514.5771 540.9316,1514.5771 Q541.5878,1514.5771 542.0472,1514.4021 Q542.3206,1514.2928 542.6159,1513.9865 Q542.8019,1513.8006 542.9003,1513.7459 Q543.0097,1513.6912 543.1519,1513.6912 Q543.3816,1513.6912 543.5566,1513.8771 Q543.7425,1514.0521 543.7425,1514.2928 Q543.7425,1514.5334 543.5019,1514.8178 Q543.1519,1515.2225 542.5941,1515.4521 Q541.8394,1515.7693 540.9316,1515.7693 Q539.8706,1515.7693 539.0284,1515.3318 Q538.3394,1514.9818 537.8581,1514.2381 Q537.3769,1513.4834 537.3769,1512.5865 L537.3769,1511.7771 Q537.3769,1510.8475 537.8034,1510.049 Q538.2409,1509.2396 539.0066,1508.8131 Q539.7722,1508.3756 540.6362,1508.3756 Q541.1503,1508.3756 541.5987,1508.4959 Q542.0581,1508.6053 542.4409,1508.8568 Z " fill="#000000"/><text fill="#000000" font-family="sans-serif" font-size="9.8" lengthAdjust="spacing" textLength="51.8" x="552.895" y="1515.8021">WorkPeriod</text><line style="stroke:#181818;stroke-width:0.3499999999999999;" x1="519.05" x2="617.75" y1="1522.9443" y2="1522.9443"/><text fill="#000000" font-family="sans-serif" font-size="9.8" lengthAdjust="spacing" textLength="91.7" x="522.55" y="1536.3195">+Date workStartDate</text><text fill="#000000" font-family="sans-serif" font-size="9.8" lengthAdjust="spacing" textLength="81.2" x="522.55" y="1549.3543">+int workStartHour</text><text fill="#000000" font-family="sans-serif" font-size="9.8" lengthAdjust="spacing" textLength="75.6" x="522.55" y="1562.3891">+int workStartMin</text><text fill="#000000" font-family="sans-serif" font-size="9.8" lengthAdjust="spacing" textLength="88.2" x="522.55" y="1575.4238">+Date workEndDate</text><text fill="#000000" font-family="sans-serif" font-size="9.8" lengthAdjust="spacing" textLength="77.7" x="522.55" y="1588.4586">+int workEndHour</text><text fill="#000000" font-family="sans-serif" font-size="9.8" lengthAdjust="spacing" textLength="72.1" x="522.55" y="1601.4934">+int workEndMin</text><line style="stroke:#181818;stroke-width:0.3499999999999999;" x1="519.05" x2="617.75" y1="1606.7529" y2="1606.7529"/></g><!--class Team--><g id="elem_Team"><rect codeLine="103" fill="#F1F1F1" height="59.6695" id="Team" rx="1.75" ry="1.75" style="stroke:#181818;stroke-width:0.3499999999999999;" width="209.3" x="463.75" y="1166.6443"/><ellipse cx="552.825" cy="1177.8443" fill="#ADD1B2" rx="7.7" ry="7.7" style="stroke:#181818;stroke-width:0.6999999999999998;"/><path d="M554.7609,1174.9568 Q554.8703,1174.8037 555.0016,1174.7271 Q555.1328,1174.6506 555.2859,1174.6506 Q555.5484,1174.6506 555.7125,1174.8365 Q555.8766,1175.0115 555.8766,1175.4381 L555.8766,1176.4553 Q555.8766,1176.8818 555.7125,1177.0678 Q555.5484,1177.2537 555.2859,1177.2537 Q555.0453,1177.2537 554.9031,1177.1115 Q554.7609,1176.9803 554.6844,1176.6193 Q554.6516,1176.3678 554.5203,1176.2365 Q554.2906,1175.974 553.8641,1175.8209 Q553.4375,1175.6678 553,1175.6678 Q552.4641,1175.6678 552.0156,1175.8975 Q551.5781,1176.1271 551.2281,1176.6521 Q550.8891,1177.1771 550.8891,1177.899 L550.8891,1178.6646 Q550.8891,1179.5287 551.5125,1180.1084 Q552.1359,1180.6771 553.2516,1180.6771 Q553.9078,1180.6771 554.3672,1180.5021 Q554.6406,1180.3928 554.9359,1180.0865 Q555.1219,1179.9006 555.2203,1179.8459 Q555.3297,1179.7912 555.4719,1179.7912 Q555.7016,1179.7912 555.8766,1179.9771 Q556.0625,1180.1521 556.0625,1180.3928 Q556.0625,1180.6334 555.8219,1180.9178 Q555.4719,1181.3225 554.9141,1181.5521 Q554.1594,1181.8693 553.2516,1181.8693 Q552.1906,1181.8693 551.3484,1181.4318 Q550.6594,1181.0818 550.1781,1180.3381 Q549.6969,1179.5834 549.6969,1178.6865 L549.6969,1177.8771 Q549.6969,1176.9475 550.1234,1176.149 Q550.5609,1175.3396 551.3266,1174.9131 Q552.0922,1174.4756 552.9562,1174.4756 Q553.4703,1174.4756 553.9187,1174.5959 Q554.3781,1174.7053 554.7609,1174.9568 Z " fill="#000000"/><text fill="#000000" font-family="sans-serif" font-size="9.8" lengthAdjust="spacing" textLength="25.2" x="567.175" y="1181.9021">Team</text><line style="stroke:#181818;stroke-width:0.3499999999999999;" x1="464.45" x2="672.35" y1="1189.0443" y2="1189.0443"/><text fill="#000000" font-family="sans-serif" font-size="9.8" lengthAdjust="spacing" textLength="128.1" x="467.95" y="1202.4195">-List&lt;Collaborator&gt; members</text><line style="stroke:#181818;stroke-width:0.3499999999999999;" x1="464.45" x2="672.35" y1="1207.6791" y2="1207.6791"/><text fill="#000000" font-family="sans-serif" font-size="9.8" lengthAdjust="spacing" textLength="200.9" x="467.95" y="1221.0543">++ removeWorkPeriodIfExists(oldWorkPeriod)</text></g><!--class Vehicle--><g id="elem_Vehicle"><rect codeLine="109" fill="#F1F1F1" height="124.8434" id="Vehicle" rx="1.75" ry="1.75" style="stroke:#181818;stroke-width:0.3499999999999999;" width="200.9" x="639.45" y="1320.6443"/><ellipse cx="720.825" cy="1331.8443" fill="#ADD1B2" rx="7.7" ry="7.7" style="stroke:#181818;stroke-width:0.6999999999999998;"/><path d="M722.7609,1328.9568 Q722.8703,1328.8037 723.0016,1328.7271 Q723.1328,1328.6506 723.2859,1328.6506 Q723.5484,1328.6506 723.7125,1328.8365 Q723.8766,1329.0115 723.8766,1329.4381 L723.8766,1330.4553 Q723.8766,1330.8818 723.7125,1331.0678 Q723.5484,1331.2537 723.2859,1331.2537 Q723.0453,1331.2537 722.9031,1331.1115 Q722.7609,1330.9803 722.6844,1330.6193 Q722.6516,1330.3678 722.5203,1330.2365 Q722.2906,1329.974 721.8641,1329.8209 Q721.4375,1329.6678 721,1329.6678 Q720.4641,1329.6678 720.0156,1329.8975 Q719.5781,1330.1271 719.2281,1330.6521 Q718.8891,1331.1771 718.8891,1331.899 L718.8891,1332.6646 Q718.8891,1333.5287 719.5125,1334.1084 Q720.1359,1334.6771 721.2516,1334.6771 Q721.9078,1334.6771 722.3672,1334.5021 Q722.6406,1334.3928 722.9359,1334.0865 Q723.1219,1333.9006 723.2203,1333.8459 Q723.3297,1333.7912 723.4719,1333.7912 Q723.7016,1333.7912 723.8766,1333.9771 Q724.0625,1334.1521 724.0625,1334.3928 Q724.0625,1334.6334 723.8219,1334.9178 Q723.4719,1335.3225 722.9141,1335.5521 Q722.1594,1335.8693 721.2516,1335.8693 Q720.1906,1335.8693 719.3484,1335.4318 Q718.6594,1335.0818 718.1781,1334.3381 Q717.6969,1333.5834 717.6969,1332.6865 L717.6969,1331.8771 Q717.6969,1330.9475 718.1234,1330.149 Q718.5609,1329.3396 719.3266,1328.9131 Q720.0922,1328.4756 720.9562,1328.4756 Q721.4703,1328.4756 721.9187,1328.5959 Q722.3781,1328.7053 722.7609,1328.9568 Z " fill="#000000"/><text fill="#000000" font-family="sans-serif" font-size="9.8" lengthAdjust="spacing" textLength="32.2" x="735.175" y="1335.9021">Vehicle</text><line style="stroke:#181818;stroke-width:0.3499999999999999;" x1="640.15" x2="839.65" y1="1343.0443" y2="1343.0443"/><text fill="#000000" font-family="sans-serif" font-size="9.8" lengthAdjust="spacing" textLength="63.7" x="643.65" y="1356.4195">+String plateId</text><text fill="#000000" font-family="sans-serif" font-size="9.8" lengthAdjust="spacing" textLength="60.2" x="643.65" y="1369.4543">+String brand</text><text fill="#000000" font-family="sans-serif" font-size="9.8" lengthAdjust="spacing" textLength="60.9" x="643.65" y="1382.4891">+String model</text><text fill="#000000" font-family="sans-serif" font-size="9.8" lengthAdjust="spacing" textLength="81.9" x="643.65" y="1395.5238">+VehicleType type</text><text fill="#000000" font-family="sans-serif" font-size="9.8" lengthAdjust="spacing" textLength="56" x="643.65" y="1408.5586">+double tare</text><text fill="#000000" font-family="sans-serif" font-size="9.8" lengthAdjust="spacing" textLength="8.4" x="643.65" y="1421.5934">...</text><line style="stroke:#181818;stroke-width:0.3499999999999999;" x1="640.15" x2="839.65" y1="1426.8529" y2="1426.8529"/><text fill="#000000" font-family="sans-serif" font-size="9.8" lengthAdjust="spacing" textLength="192.5" x="643.65" y="1440.2281">+removeWorkPeriodIfExists(oldWorkPeriod)</text></g><!--class Task--><g id="elem_Task"><rect codeLine="119" fill="#F1F1F1" height="137.8781" id="Task" rx="1.75" ry="1.75" style="stroke:#181818;stroke-width:0.3499999999999999;" width="217" x="219.8" y="1127.4443"/><ellipse cx="314.475" cy="1138.6443" fill="#ADD1B2" rx="7.7" ry="7.7" style="stroke:#181818;stroke-width:0.6999999999999998;"/><path d="M316.4109,1135.7568 Q316.5203,1135.6037 316.6516,1135.5271 Q316.7828,1135.4506 316.9359,1135.4506 Q317.1984,1135.4506 317.3625,1135.6365 Q317.5266,1135.8115 317.5266,1136.2381 L317.5266,1137.2553 Q317.5266,1137.6818 317.3625,1137.8678 Q317.1984,1138.0537 316.9359,1138.0537 Q316.6953,1138.0537 316.5531,1137.9115 Q316.4109,1137.7803 316.3344,1137.4193 Q316.3016,1137.1678 316.1703,1137.0365 Q315.9406,1136.774 315.5141,1136.6209 Q315.0875,1136.4678 314.65,1136.4678 Q314.1141,1136.4678 313.6656,1136.6975 Q313.2281,1136.9271 312.8781,1137.4521 Q312.5391,1137.9771 312.5391,1138.699 L312.5391,1139.4646 Q312.5391,1140.3287 313.1625,1140.9084 Q313.7859,1141.4771 314.9016,1141.4771 Q315.5578,1141.4771 316.0172,1141.3021 Q316.2906,1141.1928 316.5859,1140.8865 Q316.7719,1140.7006 316.8703,1140.6459 Q316.9797,1140.5912 317.1219,1140.5912 Q317.3516,1140.5912 317.5266,1140.7771 Q317.7125,1140.9521 317.7125,1141.1928 Q317.7125,1141.4334 317.4719,1141.7178 Q317.1219,1142.1225 316.5641,1142.3521 Q315.8094,1142.6693 314.9016,1142.6693 Q313.8406,1142.6693 312.9984,1142.2318 Q312.3094,1141.8818 311.8281,1141.1381 Q311.3469,1140.3834 311.3469,1139.4865 L311.3469,1138.6771 Q311.3469,1137.7475 311.7734,1136.949 Q312.2109,1136.1396 312.9766,1135.7131 Q313.7422,1135.2756 314.6062,1135.2756 Q315.1203,1135.2756 315.5687,1135.3959 Q316.0281,1135.5053 316.4109,1135.7568 Z " fill="#000000"/><text fill="#000000" font-family="sans-serif" font-size="9.8" lengthAdjust="spacing" textLength="21.7" x="328.825" y="1142.7021">Task</text><line style="stroke:#181818;stroke-width:0.3499999999999999;" x1="220.5" x2="436.1" y1="1149.8443" y2="1149.8443"/><text fill="#000000" font-family="sans-serif" font-size="9.8" lengthAdjust="spacing" textLength="50.4" x="224" y="1163.2195">-String title;</text><text fill="#000000" font-family="sans-serif" font-size="9.8" lengthAdjust="spacing" textLength="83.3" x="224" y="1176.2543">-String description;</text><text fill="#000000" font-family="sans-serif" font-size="9.8" lengthAdjust="spacing" textLength="93.8" x="224" y="1189.2891">-TaskType taskType;</text><text fill="#000000" font-family="sans-serif" font-size="9.8" lengthAdjust="spacing" textLength="63.7" x="224" y="1202.3238">-Status status;</text><text fill="#000000" font-family="sans-serif" font-size="9.8" lengthAdjust="spacing" textLength="8.4" x="224" y="1215.3586">...</text><line style="stroke:#181818;stroke-width:0.3499999999999999;" x1="220.5" x2="436.1" y1="1220.6182" y2="1220.6182"/><text fill="#000000" font-family="sans-serif" font-size="9.8" lengthAdjust="spacing" textLength="208.6" x="224" y="1233.9934">+Task(title, description, taskType, greenSpace,</text><text fill="#000000" font-family="sans-serif" font-size="9.8" lengthAdjust="spacing" textLength="136.5" x="224" y="1247.0281">urgency, days, hours, minutes)</text><text fill="#000000" font-family="sans-serif" font-size="9.8" lengthAdjust="spacing" textLength="15.4" x="224" y="1260.0629">(...)</text></g><!--class TaskDuration--><g id="elem_TaskDuration"><rect codeLine="130" fill="#F1F1F1" height="124.8434" id="TaskDuration" rx="1.75" ry="1.75" style="stroke:#181818;stroke-width:0.3499999999999999;" width="204.4" x="219.8" y="1320.6443"/><ellipse cx="289.275" cy="1331.8443" fill="#ADD1B2" rx="7.7" ry="7.7" style="stroke:#181818;stroke-width:0.6999999999999998;"/><path d="M291.2109,1328.9568 Q291.3203,1328.8037 291.4516,1328.7271 Q291.5828,1328.6506 291.7359,1328.6506 Q291.9984,1328.6506 292.1625,1328.8365 Q292.3266,1329.0115 292.3266,1329.4381 L292.3266,1330.4553 Q292.3266,1330.8818 292.1625,1331.0678 Q291.9984,1331.2537 291.7359,1331.2537 Q291.4953,1331.2537 291.3531,1331.1115 Q291.2109,1330.9803 291.1344,1330.6193 Q291.1016,1330.3678 290.9703,1330.2365 Q290.7406,1329.974 290.3141,1329.8209 Q289.8875,1329.6678 289.45,1329.6678 Q288.9141,1329.6678 288.4656,1329.8975 Q288.0281,1330.1271 287.6781,1330.6521 Q287.3391,1331.1771 287.3391,1331.899 L287.3391,1332.6646 Q287.3391,1333.5287 287.9625,1334.1084 Q288.5859,1334.6771 289.7016,1334.6771 Q290.3578,1334.6771 290.8172,1334.5021 Q291.0906,1334.3928 291.3859,1334.0865 Q291.5719,1333.9006 291.6703,1333.8459 Q291.7797,1333.7912 291.9219,1333.7912 Q292.1516,1333.7912 292.3266,1333.9771 Q292.5125,1334.1521 292.5125,1334.3928 Q292.5125,1334.6334 292.2719,1334.9178 Q291.9219,1335.3225 291.3641,1335.5521 Q290.6094,1335.8693 289.7016,1335.8693 Q288.6406,1335.8693 287.7984,1335.4318 Q287.1094,1335.0818 286.6281,1334.3381 Q286.1469,1333.5834 286.1469,1332.6865 L286.1469,1331.8771 Q286.1469,1330.9475 286.5734,1330.149 Q287.0109,1329.3396 287.7766,1328.9131 Q288.5422,1328.4756 289.4062,1328.4756 Q289.9203,1328.4756 290.3687,1328.5959 Q290.8281,1328.7053 291.2109,1328.9568 Z " fill="#000000"/><text fill="#000000" font-family="sans-serif" font-size="9.8" lengthAdjust="spacing" textLength="59.5" x="303.625" y="1335.9021">TaskDuration</text><line style="stroke:#181818;stroke-width:0.3499999999999999;" x1="220.5" x2="423.5" y1="1343.0443" y2="1343.0443"/><text fill="#000000" font-family="sans-serif" font-size="9.8" lengthAdjust="spacing" textLength="40.6" x="224" y="1356.4195">-int days;</text><text fill="#000000" font-family="sans-serif" font-size="9.8" lengthAdjust="spacing" textLength="44.8" x="224" y="1369.4543">-int hours;</text><text fill="#000000" font-family="sans-serif" font-size="9.8" lengthAdjust="spacing" textLength="53.9" x="224" y="1382.4891">-int minutes;</text><text fill="#000000" font-family="sans-serif" font-size="9.8" lengthAdjust="spacing" textLength="110.6" x="224" y="1395.5238">-int totalDurationMinutes;</text><line style="stroke:#181818;stroke-width:0.3499999999999999;" x1="220.5" x2="423.5" y1="1400.7834" y2="1400.7834"/><text fill="#000000" font-family="sans-serif" font-size="9.8" lengthAdjust="spacing" textLength="163.8" x="224" y="1414.1586">+TaskDuration(days, hours, minutes)</text><text fill="#000000" font-family="sans-serif" font-size="9.8" lengthAdjust="spacing" textLength="177.1" x="224" y="1427.1934">+setTaskDuration(days, hours, minutes)</text><text fill="#000000" font-family="sans-serif" font-size="9.8" lengthAdjust="spacing" textLength="196" x="224" y="1440.2281">-validateTaskDuration(days, hours, minutes)</text></g><!--class AgendaMapper--><g id="elem_AgendaMapper"><rect codeLine="147" fill="#F1F1F1" height="59.6695" id="AgendaMapper" rx="1.75" ry="1.75" style="stroke:#181818;stroke-width:0.3499999999999999;" width="90.3" x="1058.75" y="412.7443"/><ellipse cx="1069.25" cy="423.9443" fill="#ADD1B2" rx="7.7" ry="7.7" style="stroke:#181818;stroke-width:0.6999999999999998;"/><path d="M1071.1859,421.0568 Q1071.2953,420.9037 1071.4266,420.8271 Q1071.5578,420.7506 1071.7109,420.7506 Q1071.9734,420.7506 1072.1375,420.9365 Q1072.3016,421.1115 1072.3016,421.5381 L1072.3016,422.5553 Q1072.3016,422.9818 1072.1375,423.1678 Q1071.9734,423.3537 1071.7109,423.3537 Q1071.4703,423.3537 1071.3281,423.2115 Q1071.1859,423.0803 1071.1094,422.7193 Q1071.0766,422.4678 1070.9453,422.3365 Q1070.7156,422.074 1070.2891,421.9209 Q1069.8625,421.7678 1069.425,421.7678 Q1068.8891,421.7678 1068.4406,421.9975 Q1068.0031,422.2271 1067.6531,422.7521 Q1067.3141,423.2771 1067.3141,423.999 L1067.3141,424.7646 Q1067.3141,425.6287 1067.9375,426.2084 Q1068.5609,426.7771 1069.6766,426.7771 Q1070.3328,426.7771 1070.7922,426.6021 Q1071.0656,426.4928 1071.3609,426.1865 Q1071.5469,426.0006 1071.6453,425.9459 Q1071.7547,425.8912 1071.8969,425.8912 Q1072.1266,425.8912 1072.3016,426.0771 Q1072.4875,426.2521 1072.4875,426.4928 Q1072.4875,426.7334 1072.2469,427.0178 Q1071.8969,427.4225 1071.3391,427.6521 Q1070.5844,427.9693 1069.6766,427.9693 Q1068.6156,427.9693 1067.7734,427.5318 Q1067.0844,427.1818 1066.6031,426.4381 Q1066.1219,425.6834 1066.1219,424.7865 L1066.1219,423.9771 Q1066.1219,423.0475 1066.5484,422.249 Q1066.9859,421.4396 1067.7516,421.0131 Q1068.5172,420.5756 1069.3812,420.5756 Q1069.8953,420.5756 1070.3437,420.6959 Q1070.8031,420.8053 1071.1859,421.0568 Z " fill="#000000"/><text fill="#000000" font-family="sans-serif" font-size="9.8" lengthAdjust="spacing" textLength="67.9" x="1079.05" y="428.0021">AgendaMapper</text><line style="stroke:#181818;stroke-width:0.3499999999999999;" x1="1059.45" x2="1148.35" y1="435.1443" y2="435.1443"/><line style="stroke:#181818;stroke-width:0.3499999999999999;" x1="1059.45" x2="1148.35" y1="440.7443" y2="440.7443"/><text fill="#000000" font-family="sans-serif" font-size="9.8" lengthAdjust="spacing" textLength="80.5" x="1062.95" y="454.1195">+AgendaMapper()</text><text fill="#000000" font-family="sans-serif" font-size="9.8" lengthAdjust="spacing" textLength="60.2" x="1062.95" y="467.1543">+toDTO(task)</text></g><!--class AgendaTaskDTO--><g id="elem_AgendaTaskDTO"><rect codeLine="156" fill="#F1F1F1" height="229.1215" id="AgendaTaskDTO" rx="1.75" ry="1.75" style="stroke:#181818;stroke-width:0.3499999999999999;" width="279.3" x="1084.65" y="543.6443"/><ellipse cx="1182.825" cy="554.8443" fill="#ADD1B2" rx="7.7" ry="7.7" style="stroke:#181818;stroke-width:0.6999999999999998;"/><path d="M1184.7609,551.9568 Q1184.8703,551.8037 1185.0016,551.7271 Q1185.1328,551.6506 1185.2859,551.6506 Q1185.5484,551.6506 1185.7125,551.8365 Q1185.8766,552.0115 1185.8766,552.4381 L1185.8766,553.4553 Q1185.8766,553.8818 1185.7125,554.0678 Q1185.5484,554.2537 1185.2859,554.2537 Q1185.0453,554.2537 1184.9031,554.1115 Q1184.7609,553.9803 1184.6844,553.6193 Q1184.6516,553.3678 1184.5203,553.2365 Q1184.2906,552.974 1183.8641,552.8209 Q1183.4375,552.6678 1183,552.6678 Q1182.4641,552.6678 1182.0156,552.8975 Q1181.5781,553.1271 1181.2281,553.6521 Q1180.8891,554.1771 1180.8891,554.899 L1180.8891,555.6646 Q1180.8891,556.5287 1181.5125,557.1084 Q1182.1359,557.6771 1183.2516,557.6771 Q1183.9078,557.6771 1184.3672,557.5021 Q1184.6406,557.3928 1184.9359,557.0865 Q1185.1219,556.9006 1185.2203,556.8459 Q1185.3297,556.7912 1185.4719,556.7912 Q1185.7016,556.7912 1185.8766,556.9771 Q1186.0625,557.1521 1186.0625,557.3928 Q1186.0625,557.6334 1185.8219,557.9178 Q1185.4719,558.3225 1184.9141,558.5521 Q1184.1594,558.8693 1183.2516,558.8693 Q1182.1906,558.8693 1181.3484,558.4318 Q1180.6594,558.0818 1180.1781,557.3381 Q1179.6969,556.5834 1179.6969,555.6865 L1179.6969,554.8771 Q1179.6969,553.9475 1180.1234,553.149 Q1180.5609,552.3396 1181.3266,551.9131 Q1182.0922,551.4756 1182.9562,551.4756 Q1183.4703,551.4756 1183.9187,551.5959 Q1184.3781,551.7053 1184.7609,551.9568 Z " fill="#000000"/><text fill="#000000" font-family="sans-serif" font-size="9.8" lengthAdjust="spacing" textLength="77" x="1197.175" y="558.9021">AgendaTaskDTO</text><line style="stroke:#181818;stroke-width:0.3499999999999999;" x1="1085.35" x2="1363.25" y1="566.0443" y2="566.0443"/><text fill="#000000" font-family="sans-serif" font-size="9.8" lengthAdjust="spacing" textLength="52.5" x="1088.85" y="579.4195">+String title;</text><text fill="#000000" font-family="sans-serif" font-size="9.8" lengthAdjust="spacing" textLength="85.4" x="1088.85" y="592.4543">+String description;</text><text fill="#000000" font-family="sans-serif" font-size="9.8" lengthAdjust="spacing" textLength="95.9" x="1088.85" y="605.4891">+TaskType taskType;</text><text fill="#000000" font-family="sans-serif" font-size="9.8" lengthAdjust="spacing" textLength="116.2" x="1088.85" y="618.5238">+String greenSpaceName;</text><text fill="#000000" font-family="sans-serif" font-size="9.8" lengthAdjust="spacing" textLength="105.7" x="1088.85" y="631.5586">+UrgencyType urgency;</text><text fill="#000000" font-family="sans-serif" font-size="9.8" lengthAdjust="spacing" textLength="99.4" x="1088.85" y="644.5934">+int expectedDuration;</text><text fill="#000000" font-family="sans-serif" font-size="9.8" lengthAdjust="spacing" textLength="99.4" x="1088.85" y="657.6281">+String workStartDate;</text><text fill="#000000" font-family="sans-serif" font-size="9.8" lengthAdjust="spacing" textLength="84" x="1088.85" y="670.6629">+int workStartHour;</text><text fill="#000000" font-family="sans-serif" font-size="9.8" lengthAdjust="spacing" textLength="97.3" x="1088.85" y="683.6977">+int workStartMinutes;</text><text fill="#000000" font-family="sans-serif" font-size="9.8" lengthAdjust="spacing" textLength="65.8" x="1088.85" y="696.7324">+Status status;</text><text fill="#000000" font-family="sans-serif" font-size="9.8" lengthAdjust="spacing" textLength="109.9" x="1088.85" y="709.7672">+String isTeamAssigned;</text><line style="stroke:#181818;stroke-width:0.3499999999999999;" x1="1085.35" x2="1363.25" y1="715.0268" y2="715.0268"/><text fill="#000000" font-family="sans-serif" font-size="9.8" lengthAdjust="spacing" textLength="263.9" x="1088.85" y="728.402">+AgendaTaskDTO(title, description, taskType, greenSpace,</text><text fill="#000000" font-family="sans-serif" font-size="9.8" lengthAdjust="spacing" textLength="258.3" x="1088.85" y="741.4367">urgency, expectedDuration, executionDate, workStartHour,</text><text fill="#000000" font-family="sans-serif" font-size="9.8" lengthAdjust="spacing" textLength="270.9" x="1088.85" y="754.4715">workStartMinutes, status, isTeamAssigned, vehiclesAssigned,</text><text fill="#000000" font-family="sans-serif" font-size="9.8" lengthAdjust="spacing" textLength="119" x="1088.85" y="767.5062">teamDTO, vehicleDTOList)</text></g><!--class CollaboratorDTO--><g id="elem_CollaboratorDTO"><rect codeLine="173" fill="#F1F1F1" height="85.7391" id="CollaboratorDTO" rx="1.75" ry="1.75" style="stroke:#181818;stroke-width:0.3499999999999999;" width="149.1" x="1127.35" y="969.2443"/><ellipse cx="1161.125" cy="980.4443" fill="#ADD1B2" rx="7.7" ry="7.7" style="stroke:#181818;stroke-width:0.6999999999999998;"/><path d="M1163.0609,977.5568 Q1163.1703,977.4037 1163.3016,977.3271 Q1163.4328,977.2506 1163.5859,977.2506 Q1163.8484,977.2506 1164.0125,977.4365 Q1164.1766,977.6115 1164.1766,978.0381 L1164.1766,979.0553 Q1164.1766,979.4818 1164.0125,979.6678 Q1163.8484,979.8537 1163.5859,979.8537 Q1163.3453,979.8537 1163.2031,979.7115 Q1163.0609,979.5803 1162.9844,979.2193 Q1162.9516,978.9678 1162.8203,978.8365 Q1162.5906,978.574 1162.1641,978.4209 Q1161.7375,978.2678 1161.3,978.2678 Q1160.7641,978.2678 1160.3156,978.4975 Q1159.8781,978.7271 1159.5281,979.2521 Q1159.1891,979.7771 1159.1891,980.499 L1159.1891,981.2646 Q1159.1891,982.1287 1159.8125,982.7084 Q1160.4359,983.2771 1161.5516,983.2771 Q1162.2078,983.2771 1162.6672,983.1021 Q1162.9406,982.9928 1163.2359,982.6865 Q1163.4219,982.5006 1163.5203,982.4459 Q1163.6297,982.3912 1163.7719,982.3912 Q1164.0016,982.3912 1164.1766,982.5771 Q1164.3625,982.7521 1164.3625,982.9928 Q1164.3625,983.2334 1164.1219,983.5178 Q1163.7719,983.9225 1163.2141,984.1521 Q1162.4594,984.4693 1161.5516,984.4693 Q1160.4906,984.4693 1159.6484,984.0318 Q1158.9594,983.6818 1158.4781,982.9381 Q1157.9969,982.1834 1157.9969,981.2865 L1157.9969,980.4771 Q1157.9969,979.5475 1158.4234,978.749 Q1158.8609,977.9396 1159.6266,977.5131 Q1160.3922,977.0756 1161.2562,977.0756 Q1161.7703,977.0756 1162.2187,977.1959 Q1162.6781,977.3053 1163.0609,977.5568 Z " fill="#000000"/><text fill="#000000" font-family="sans-serif" font-size="9.8" lengthAdjust="spacing" textLength="75.6" x="1175.475" y="984.5021">CollaboratorDTO</text><line style="stroke:#181818;stroke-width:0.3499999999999999;" x1="1128.05" x2="1275.75" y1="991.6443" y2="991.6443"/><text fill="#000000" font-family="sans-serif" font-size="9.8" lengthAdjust="spacing" textLength="114.8" x="1131.55" y="1005.0195">+String collaboratorName;</text><text fill="#000000" font-family="sans-serif" font-size="9.8" lengthAdjust="spacing" textLength="60.2" x="1131.55" y="1018.0543">+String email;</text><text fill="#000000" font-family="sans-serif" font-size="9.8" lengthAdjust="spacing" textLength="109.9" x="1131.55" y="1031.0891">+List&lt;String&gt; skillNames;</text><line style="stroke:#181818;stroke-width:0.3499999999999999;" x1="1128.05" x2="1275.75" y1="1036.3486" y2="1036.3486"/><text fill="#000000" font-family="sans-serif" font-size="9.8" lengthAdjust="spacing" textLength="140.7" x="1131.55" y="1049.7238">+CollaboratorDTO(collaborator)</text></g><!--class TeamDTO--><g id="elem_TeamDTO"><rect codeLine="182" fill="#F1F1F1" height="59.6695" id="TeamDTO" rx="1.75" ry="1.75" style="stroke:#181818;stroke-width:0.3499999999999999;" width="234.5" x="1084.65" y="847.4443"/><ellipse cx="1175.825" cy="858.6443" fill="#ADD1B2" rx="7.7" ry="7.7" style="stroke:#181818;stroke-width:0.6999999999999998;"/><path d="M1177.7609,855.7568 Q1177.8703,855.6037 1178.0016,855.5271 Q1178.1328,855.4506 1178.2859,855.4506 Q1178.5484,855.4506 1178.7125,855.6365 Q1178.8766,855.8115 1178.8766,856.2381 L1178.8766,857.2553 Q1178.8766,857.6818 1178.7125,857.8678 Q1178.5484,858.0537 1178.2859,858.0537 Q1178.0453,858.0537 1177.9031,857.9115 Q1177.7609,857.7803 1177.6844,857.4193 Q1177.6516,857.1678 1177.5203,857.0365 Q1177.2906,856.774 1176.8641,856.6209 Q1176.4375,856.4678 1176,856.4678 Q1175.4641,856.4678 1175.0156,856.6975 Q1174.5781,856.9271 1174.2281,857.4521 Q1173.8891,857.9771 1173.8891,858.699 L1173.8891,859.4646 Q1173.8891,860.3287 1174.5125,860.9084 Q1175.1359,861.4771 1176.2516,861.4771 Q1176.9078,861.4771 1177.3672,861.3021 Q1177.6406,861.1928 1177.9359,860.8865 Q1178.1219,860.7006 1178.2203,860.6459 Q1178.3297,860.5912 1178.4719,860.5912 Q1178.7016,860.5912 1178.8766,860.7771 Q1179.0625,860.9521 1179.0625,861.1928 Q1179.0625,861.4334 1178.8219,861.7178 Q1178.4719,862.1225 1177.9141,862.3521 Q1177.1594,862.6693 1176.2516,862.6693 Q1175.1906,862.6693 1174.3484,862.2318 Q1173.6594,861.8818 1173.1781,861.1381 Q1172.6969,860.3834 1172.6969,859.4865 L1172.6969,858.6771 Q1172.6969,857.7475 1173.1234,856.949 Q1173.5609,856.1396 1174.3266,855.7131 Q1175.0922,855.2756 1175.9562,855.2756 Q1176.4703,855.2756 1176.9187,855.3959 Q1177.3781,855.5053 1177.7609,855.7568 Z " fill="#000000"/><text fill="#000000" font-family="sans-serif" font-size="9.8" lengthAdjust="spacing" textLength="46.2" x="1190.175" y="862.7021">TeamDTO</text><line style="stroke:#181818;stroke-width:0.3499999999999999;" x1="1085.35" x2="1318.45" y1="869.8443" y2="869.8443"/><text fill="#000000" font-family="sans-serif" font-size="9.8" lengthAdjust="spacing" textLength="168" x="1088.85" y="883.2195">+List&lt;CollaboratorDTO&gt; collaborators</text><line style="stroke:#181818;stroke-width:0.3499999999999999;" x1="1085.35" x2="1318.45" y1="888.4791" y2="888.4791"/><text fill="#000000" font-family="sans-serif" font-size="9.8" lengthAdjust="spacing" textLength="226.1" x="1088.85" y="901.8543">+TeamDTO(List&lt;CollaboratorDTO&gt; teamMembers)</text></g><!--class VehicleDTO--><g id="elem_VehicleDTO"><rect codeLine="187" fill="#F1F1F1" height="98.7738" id="VehicleDTO" rx="1.75" ry="1.75" style="stroke:#181818;stroke-width:0.3499999999999999;" width="105" x="1344" y="827.8443"/><ellipse cx="1367.73" cy="839.0443" fill="#ADD1B2" rx="7.7" ry="7.7" style="stroke:#181818;stroke-width:0.6999999999999998;"/><path d="M1369.6659,836.1568 Q1369.7753,836.0037 1369.9066,835.9271 Q1370.0378,835.8506 1370.1909,835.8506 Q1370.4534,835.8506 1370.6175,836.0365 Q1370.7816,836.2115 1370.7816,836.6381 L1370.7816,837.6553 Q1370.7816,838.0818 1370.6175,838.2678 Q1370.4534,838.4537 1370.1909,838.4537 Q1369.9503,838.4537 1369.8081,838.3115 Q1369.6659,838.1803 1369.5894,837.8193 Q1369.5566,837.5678 1369.4253,837.4365 Q1369.1956,837.174 1368.7691,837.0209 Q1368.3425,836.8678 1367.905,836.8678 Q1367.3691,836.8678 1366.9206,837.0975 Q1366.4831,837.3271 1366.1331,837.8521 Q1365.7941,838.3771 1365.7941,839.099 L1365.7941,839.8646 Q1365.7941,840.7287 1366.4175,841.3084 Q1367.0409,841.8771 1368.1566,841.8771 Q1368.8128,841.8771 1369.2722,841.7021 Q1369.5456,841.5928 1369.8409,841.2865 Q1370.0269,841.1006 1370.1253,841.0459 Q1370.2347,840.9912 1370.3769,840.9912 Q1370.6066,840.9912 1370.7816,841.1771 Q1370.9675,841.3521 1370.9675,841.5928 Q1370.9675,841.8334 1370.7269,842.1178 Q1370.3769,842.5225 1369.8191,842.7521 Q1369.0644,843.0693 1368.1566,843.0693 Q1367.0956,843.0693 1366.2534,842.6318 Q1365.5644,842.2818 1365.0831,841.5381 Q1364.6019,840.7834 1364.6019,839.8865 L1364.6019,839.0771 Q1364.6019,838.1475 1365.0284,837.349 Q1365.4659,836.5396 1366.2316,836.1131 Q1366.9972,835.6756 1367.8612,835.6756 Q1368.3753,835.6756 1368.8237,835.7959 Q1369.2831,835.9053 1369.6659,836.1568 Z " fill="#000000"/><text fill="#000000" font-family="sans-serif" font-size="9.8" lengthAdjust="spacing" textLength="53.2" x="1380.47" y="843.1021">VehicleDTO</text><line style="stroke:#181818;stroke-width:0.3499999999999999;" x1="1344.7" x2="1448.3" y1="850.2443" y2="850.2443"/><text fill="#000000" font-family="sans-serif" font-size="9.8" lengthAdjust="spacing" textLength="67.9" x="1348.2" y="863.6195">+String plateID;</text><text fill="#000000" font-family="sans-serif" font-size="9.8" lengthAdjust="spacing" textLength="63" x="1348.2" y="876.6543">+String brand;</text><text fill="#000000" font-family="sans-serif" font-size="9.8" lengthAdjust="spacing" textLength="63.7" x="1348.2" y="889.6891">+String model;</text><text fill="#000000" font-family="sans-serif" font-size="9.8" lengthAdjust="spacing" textLength="56" x="1348.2" y="902.7238">+String type;</text><line style="stroke:#181818;stroke-width:0.3499999999999999;" x1="1344.7" x2="1448.3" y1="907.9834" y2="907.9834"/><text fill="#000000" font-family="sans-serif" font-size="9.8" lengthAdjust="spacing" textLength="96.6" x="1348.2" y="921.3586">+VehicleDTO(vehicle)</text></g><!--link ListCollaboratorTasksUI to ListCollaboratorTasksController--><g id="link_ListCollaboratorTasksUI_ListCollaboratorTasksController"><path codeLine="199" d="M538.377,182.6193 C521.486,207.1053 505.041,230.9342 490.481,252.0392 " fill="none" id="ListCollaboratorTasksUI-to-ListCollaboratorTasksController" style="stroke:#181818;stroke-width:0.6999999999999998;stroke-dasharray:7.0,7.0;"/><polygon fill="#181818" points="488.096,255.4963,493.9783,251.9007,490.0835,252.6154,489.3688,248.7206,488.096,255.4963" style="stroke:#181818;stroke-width:0.6999999999999998;"/></g><!--link ListCollaboratorTasksUI to CompleteTaskController--><g id="link_ListCollaboratorTasksUI_CompleteTaskController"><path codeLine="200" d="M608.657,182.6193 C617.484,202.3453 625.4075,220.0507 633.7585,238.7127 " fill="none" id="ListCollaboratorTasksUI-to-CompleteTaskController" style="stroke:#181818;stroke-width:0.6999999999999998;stroke-dasharray:7.0,7.0;"/><polygon fill="#181818" points="635.474,242.5463,635.4565,235.6522,634.0444,239.3516,630.3449,237.9395,635.474,242.5463" style="stroke:#181818;stroke-width:0.6999999999999998;"/></g><!--link ListCollaboratorTasksController to Repositories--><g id="link_ListCollaboratorTasksController_Repositories"><path codeLine="201" d="M440.762,328.4293 C427.924,348.6943 414.4,370.0443 414.4,370.0443 C414.4,370.0443 367.9328,522.6516 342.9638,604.6286 " fill="none" id="ListCollaboratorTasksController-to-Repositories" style="stroke:#181818;stroke-width:0.6999999999999998;stroke-dasharray:7.0,7.0;"/><polygon fill="#181818" points="341.74,608.6463,346.2541,603.4355,342.7598,605.2982,340.8971,601.8039,341.74,608.6463" style="stroke:#181818;stroke-width:0.6999999999999998;"/><text fill="#000000" font-family="sans-serif" font-size="9.1" lengthAdjust="spacing" textLength="46.9" x="415.1" y="446.3642">repositories</text></g><!--link CompleteTaskController to Repositories--><g id="link_CompleteTaskController_Repositories"><path codeLine="202" d="M613.081,341.4983 C549.871,411.2813 437.156,535.6948 373.939,605.4708 " fill="none" id="CompleteTaskController-to-Repositories" style="stroke:#181818;stroke-width:0.6999999999999998;stroke-dasharray:7.0,7.0;"/><polygon fill="#181818" points="371.119,608.5833,377.424,605.7945,373.469,605.9896,373.2739,602.0346,371.119,608.5833" style="stroke:#181818;stroke-width:0.6999999999999998;"/></g><!--link Repositories to Repositories--><g id="link_Repositories_Repositories"><path codeLine="203" d="M394.996,632.5163 C409.136,635.2043 419.3,643.7303 419.3,658.0943 C419.3,672.4583 413.2621,680.2 399.1221,682.888 " fill="none" id="Repositories-to-Repositories" style="stroke:#181818;stroke-width:0.6999999999999998;"/><polygon fill="#181818" points="394.996,683.6723,401.7081,685.2465,398.4344,683.0187,400.6622,679.745,394.996,683.6723" style="stroke:#181818;stroke-width:0.6999999999999998;"/><text fill="#000000" font-family="sans-serif" font-size="9.1" lengthAdjust="spacing" textLength="34.3" x="423.5" y="661.9642">instance</text></g><!--link ListCollaboratorTasksController to ApplicationSession--><g id="link_ListCollaboratorTasksController_ApplicationSession"><path codeLine="204" d="M419.748,328.4293 C394.982,348.6943 368.9,370.0443 368.9,370.0443 C368.9,370.0443 215.405,532.437 139.966,612.251 " fill="none" id="ListCollaboratorTasksController-to-ApplicationSession" style="stroke:#181818;stroke-width:0.6999999999999998;stroke-dasharray:7.0,7.0;"/><polygon fill="#181818" points="137.081,615.3033,143.4434,612.6482,139.4852,612.7597,139.3736,608.8015,137.081,615.3033" style="stroke:#181818;stroke-width:0.6999999999999998;"/></g><!--link ApplicationSession to ApplicationSession--><g id="link_ApplicationSession_ApplicationSession"><path codeLine="205" d="M179.389,633.2373 C193.725,636.5553 203.7,644.8363 203.7,658.0943 C203.7,671.3523 197.8168,678.6863 183.4808,682.0043 " fill="none" id="ApplicationSession-to-ApplicationSession" style="stroke:#181818;stroke-width:0.6999999999999998;"/><polygon fill="#181818" points="179.389,682.9513,186.1581,684.2587,182.7989,682.1621,184.8954,678.8029,179.389,682.9513" style="stroke:#181818;stroke-width:0.6999999999999998;"/><text fill="#000000" font-family="sans-serif" font-size="9.1" lengthAdjust="spacing" textLength="34.3" x="207.9" y="661.9642">instance</text></g><!--link ApplicationSession to UserSession--><g id="link_ApplicationSession_UserSession"><path codeLine="206" d="M91.462,701.0253 C85.169,746.5323 75.9654,813.1069 70.9604,849.2969 " fill="none" id="ApplicationSession-to-UserSession" style="stroke:#181818;stroke-width:0.6999999999999998;"/><polygon fill="#181818" points="70.385,853.4573,74.0217,847.6003,70.8645,849.9903,68.4745,846.8331,70.385,853.4573" style="stroke:#181818;stroke-width:0.6999999999999998;"/><text fill="#000000" font-family="sans-serif" font-size="9.1" lengthAdjust="spacing" textLength="50.4" x="79.1" y="804.0642">userSession</text><text fill="#000000" font-family="sans-serif" font-size="9.1" lengthAdjust="spacing" textLength="4.9" x="65.6205" y="845.9469">1</text></g><!--link UserSession to Email--><g id="link_UserSession_Email"><path codeLine="207" d="M62.265,900.8193 C56.483,927.6993 47.9239,967.4624 42.8559,991.0034 " fill="none" id="UserSession-to-Email" style="stroke:#181818;stroke-width:0.6999999999999998;stroke-dasharray:7.0,7.0;"/><polygon fill="#181818" points="41.972,995.1093,46.0352,989.5397,42.7086,991.6877,40.5606,988.3611,41.972,995.1093" style="stroke:#181818;stroke-width:0.6999999999999998;"/></g><!--link Repositories to TeamRepository--><g id="link_Repositories_TeamRepository"><path codeLine="208" d="M339.402,707.5703 C360.549,790.0583 401.1,948.2443 401.1,948.2443 C401.1,948.2443 443.3484,964.1523 487.1824,980.6583 " fill="none" id="Repositories-to-TeamRepository" style="stroke:#181818;stroke-width:0.6999999999999998;"/><polygon fill="#181818" points="491.113,982.1383,486.2039,977.2978,487.8375,980.9049,484.2304,982.5386,491.113,982.1383" style="stroke:#181818;stroke-width:0.6999999999999998;"/></g><!--link Repositories to VehicleRepository--><g id="link_Repositories_VehicleRepository"><path codeLine="209" d="M377.538,707.4793 C422.422,750.6273 480.9,806.8443 480.9,806.8443 C480.9,806.8443 716.9709,923.881 830.8049,980.308 " fill="none" id="Repositories-to-VehicleRepository" style="stroke:#181818;stroke-width:0.6999999999999998;"/><polygon fill="#181818" points="834.568,982.1733,830.167,976.8666,831.4321,980.6189,827.6799,981.884,834.568,982.1733" style="stroke:#181818;stroke-width:0.6999999999999998;"/></g><!--link Repositories to AgendaRepository--><g id="link_Repositories_AgendaRepository"><path codeLine="210" d="M314.972,707.6193 C297.43,779.4323 266.0657,907.8203 250.5467,971.3453 " fill="none" id="Repositories-to-AgendaRepository" style="stroke:#181818;stroke-width:0.6999999999999998;"/><polygon fill="#181818" points="249.55,975.4253,253.7651,969.9698,250.3806,972.0253,248.3251,968.6408,249.55,975.4253" style="stroke:#181818;stroke-width:0.6999999999999998;"/></g><!--link ListCollaboratorTasksController to AgendaRepository--><g id="link_ListCollaboratorTasksController_AgendaRepository"><path codeLine="211" d="M464.604,328.5133 C468.447,443.1453 480.2,793.5443 480.2,793.5443 C480.2,793.5443 480.2,806.8443 480.2,806.8443 C480.2,806.8443 354.6293,914.0593 285.9663,972.6773 " fill="none" id="ListCollaboratorTasksController-to-AgendaRepository" style="stroke:#181818;stroke-width:0.6999999999999998;stroke-dasharray:7.0,7.0;"/><polygon fill="#181818" points="282.772,975.4043,289.3814,973.4434,285.4339,973.1318,285.7455,969.1843,282.772,975.4043" style="stroke:#181818;stroke-width:0.6999999999999998;"/><text fill="#000000" font-family="sans-serif" font-size="9.1" lengthAdjust="spacing" textLength="72.8" x="479.5" y="661.9642">agendaRepository</text></g><!--link CompleteTaskController to AgendaRepository--><g id="link_CompleteTaskController_AgendaRepository"><path codeLine="212" d="M645.841,341.5123 C635.635,384.9963 622.3,441.7943 622.3,441.7943 C622.3,441.7943 622.3,441.7943 622.3,877.8943 C622.3,877.8943 460.0078,934.6225 346.9998,974.1235 " fill="none" id="CompleteTaskController-to-AgendaRepository" style="stroke:#181818;stroke-width:0.6999999999999998;stroke-dasharray:7.0,7.0;"/><polygon fill="#181818" points="343.035,975.5093,349.9061,976.0737,346.339,974.3545,348.0583,970.7874,343.035,975.5093" style="stroke:#181818;stroke-width:0.6999999999999998;"/><text fill="#000000" font-family="sans-serif" font-size="9.1" lengthAdjust="spacing" textLength="72.8" x="623" y="661.9642">agendaRepository</text></g><!--link CompleteTaskController to VehicleRepository--><g id="link_CompleteTaskController_VehicleRepository"><path codeLine="213" d="M729.043,341.5123 C792.939,384.9963 876.4,441.7943 876.4,441.7943 C876.4,441.7943 876.4,441.7943 876.4,877.8943 C876.4,877.8943 884.0443,938.5612 888.9863,977.8102 " fill="none" id="CompleteTaskController-to-VehicleRepository" style="stroke:#181818;stroke-width:0.6999999999999998;stroke-dasharray:7.0,7.0;"/><polygon fill="#181818" points="889.511,981.9773,891.502,975.3769,889.0738,978.5048,885.9459,976.0765,889.511,981.9773" style="stroke:#181818;stroke-width:0.6999999999999998;"/><text fill="#000000" font-family="sans-serif" font-size="9.1" lengthAdjust="spacing" textLength="70.7" x="877.1" y="661.9642">vehicleRepository</text></g><!--link CompleteTaskController to TeamRepository--><g id="link_CompleteTaskController_TeamRepository"><path codeLine="214" d="M686.182,341.5123 C711.9,384.9963 745.5,441.7943 745.5,441.7943 C745.5,441.7943 745.5,441.7943 745.5,877.8943 C745.5,877.8943 662.5102,940.384 610.4022,979.619 " fill="none" id="CompleteTaskController-to-TeamRepository" style="stroke:#181818;stroke-width:0.6999999999999998;stroke-dasharray:7.0,7.0;"/><polygon fill="#181818" points="607.047,982.1453,613.7641,980.5926,609.843,980.0401,610.3956,976.119,607.047,982.1453" style="stroke:#181818;stroke-width:0.6999999999999998;"/><text fill="#000000" font-family="sans-serif" font-size="9.1" lengthAdjust="spacing" textLength="63.7" x="746.2" y="661.9642">teamRepository</text></g><!--link ListCollaboratorTasksController to Mapper--><g id="link_ListCollaboratorTasksController_Mapper"><path codeLine="215" d="M514.689,328.4853 C536.592,343.7663 557.2,358.1443 557.2,358.1443 C557.2,358.1443 674.52,378.7313 792.757,399.4793 C851.8755,409.8533 911.2232,420.2676 956.2499,428.1688 C978.7632,432.1195 997.6962,435.4418 1011.2302,437.8168 C1017.9971,439.0043 1023.4144,439.9549 1027.2544,440.6288 C1027.4944,440.6709 1023.5915,439.986 1023.8191,440.026 " fill="none" id="ListCollaboratorTasksController-to-Mapper" style="stroke:#181818;stroke-width:0.6999999999999998;stroke-dasharray:7.0,7.0;"/><polygon fill="#181818" points="1027.9559,440.7519,1022.2347,436.9051,1024.5086,440.1469,1021.2668,442.4208,1027.9559,440.7519" style="stroke:#181818;stroke-width:0.6999999999999998;"/></g><!--link AgendaMapper to AgendaTaskDTO--><g id="link_AgendaMapper_AgendaTaskDTO"><path codeLine="216" d="M1120.266,472.3073 C1130.871,491.1793 1143.3866,513.4463 1158.2756,539.9273 " fill="none" id="AgendaMapper-to-AgendaTaskDTO" style="stroke:#181818;stroke-width:0.6999999999999998;stroke-dasharray:7.0,7.0;"/><polygon fill="#181818" points="1160.334,543.5883,1159.6871,536.7246,1158.6187,540.5375,1154.8057,539.4691,1160.334,543.5883" style="stroke:#181818;stroke-width:0.6999999999999998;"/></g><!--link AgendaTaskDTO to TeamDTO--><g id="link_AgendaTaskDTO_TeamDTO"><path codeLine="217" d="M1212.575,772.7473 C1209.726,800.4183 1207.3554,823.4773 1205.3394,843.0913 " fill="none" id="AgendaTaskDTO-to-TeamDTO" style="stroke:#181818;stroke-width:0.6999999999999998;stroke-dasharray:7.0,7.0;"/><polygon fill="#181818" points="1204.91,847.2693,1208.3395,841.2886,1205.2679,843.7877,1202.7688,840.7161,1204.91,847.2693" style="stroke:#181818;stroke-width:0.6999999999999998;"/><text fill="#000000" font-family="sans-serif" font-size="9.1" lengthAdjust="spacing" textLength="4.9" x="1200.0992" y="839.4743">1</text></g><!--link TeamDTO to CollaboratorDTO--><g id="link_TeamDTO_CollaboratorDTO"><path codeLine="218" d="M1201.9,907.1613 C1201.9,925.3263 1201.9,944.7793 1201.9,964.9463 " fill="none" id="TeamDTO-to-CollaboratorDTO" style="stroke:#181818;stroke-width:0.6999999999999998;stroke-dasharray:7.0,7.0;"/><polygon fill="#181818" points="1201.9,969.1463,1204.7,962.8463,1201.9,965.6463,1199.1,962.8463,1201.9,969.1463" style="stroke:#181818;stroke-width:0.6999999999999998;"/><text fill="#000000" font-family="sans-serif" font-size="9.1" lengthAdjust="spacing" textLength="4.9" x="1196.6248" y="922.4836">1</text></g><!--link AgendaTaskDTO to VehicleDTO--><g id="link_AgendaTaskDTO_VehicleDTO"><path codeLine="219" d="M1314.432,772.7473 C1329.734,792.0883 1342.2551,807.9185 1355.2751,824.3755 " fill="none" id="AgendaTaskDTO-to-VehicleDTO" style="stroke:#181818;stroke-width:0.6999999999999998;stroke-dasharray:7.0,7.0;"/><polygon fill="#181818" points="1357.881,827.6693,1356.168,820.9913,1355.7094,824.9245,1351.7763,824.4659,1357.881,827.6693" style="stroke:#181818;stroke-width:0.6999999999999998;"/><text fill="#000000" font-family="sans-serif" font-size="9.1" lengthAdjust="spacing" textLength="4.9" x="1313.5051" y="788.0316">1</text></g><!--link VehicleRepository to Vehicle--><g id="link_VehicleRepository_Vehicle"><path codeLine="220" d="M881.041,1041.9533 C856.149,1101.9713 800.5261,1236.0828 767.0871,1316.7018 " fill="none" id="VehicleRepository-to-Vehicle" style="stroke:#181818;stroke-width:0.6999999999999998;"/><polygon fill="#181818" points="765.478,1320.5813,770.4781,1315.8348,766.8189,1317.3484,765.3054,1313.6893,765.478,1320.5813" style="stroke:#181818;stroke-width:0.6999999999999998;"/><text fill="#000000" font-family="sans-serif" font-size="9.1" lengthAdjust="spacing" textLength="27.3" x="858.2" y="1200.2642">vehicle</text><text fill="#000000" font-family="sans-serif" font-size="9.1" lengthAdjust="spacing" textLength="4.9" x="873.904" y="1057.282">1</text></g><!--link TeamRepository to Team--><g id="link_TeamRepository_Team"><path codeLine="221" d="M568.4,1041.8483 C568.4,1076.0713 568.4,1128.2213 568.4,1162.3883 " fill="none" id="TeamRepository-to-Team" style="stroke:#181818;stroke-width:0.6999999999999998;"/><polygon fill="#181818" points="568.4,1166.5883,571.2,1160.2883,568.4,1163.0883,565.6,1160.2883,568.4,1166.5883" style="stroke:#181818;stroke-width:0.6999999999999998;"/><text fill="#000000" font-family="sans-serif" font-size="9.1" lengthAdjust="spacing" textLength="20.3" x="569.1" y="1087.5642">team</text><text fill="#000000" font-family="sans-serif" font-size="9.1" lengthAdjust="spacing" textLength="4.9" x="563.1095" y="1057.3851">1</text></g><!--link AgendaRepository to Task--><g id="link_AgendaRepository_Task"><path codeLine="222" d="M257.88,1048.3723 C268.618,1070.8493 281.0241,1096.7888 293.8621,1123.6548 " fill="none" id="AgendaRepository-to-Task" style="stroke:#181818;stroke-width:0.6999999999999998;"/><polygon fill="#181818" points="295.673,1127.4443,295.4831,1120.5528,294.164,1124.2864,290.4303,1122.9672,295.673,1127.4443" style="stroke:#181818;stroke-width:0.6999999999999998;"/><text fill="#000000" font-family="sans-serif" font-size="9.1" lengthAdjust="spacing" textLength="17.5" x="277.2" y="1087.5642">task</text><text fill="#000000" font-family="sans-serif" font-size="9.1" lengthAdjust="spacing" textLength="4.9" x="254.8545" y="1063.641">1</text></g><!--reverse link Task to TaskDuration--><g id="link_Task_TaskDuration"><path codeLine="223" d="M325.6854,1273.9075 C325.0764,1291.9325 324.702,1302.8783 324.1,1320.5323 " fill="none" id="Task-backto-TaskDuration" style="stroke:#181818;stroke-width:0.6999999999999998;"/><polygon fill="#181818" points="325.969,1265.5123,323.0288,1269.6154,325.6854,1273.9075,328.6256,1269.8045,325.969,1265.5123" style="stroke:#181818;stroke-width:0.6999999999999998;"/><text fill="#000000" font-family="sans-serif" font-size="9.1" lengthAdjust="spacing" textLength="51.1" x="325.5" y="1296.8642">taskDuration</text><text fill="#000000" font-family="sans-serif" font-size="9.1" lengthAdjust="spacing" textLength="4.9" x="319.171" y="1312.7893">1</text></g><!--reverse link Task to WorkPeriod--><g id="link_Task_WorkPeriod"><path codeLine="224" d="M393.805,1271.6838 C418.9,1300.2578 436.8,1320.6443 436.8,1320.6443 C436.8,1320.6443 498.47,1430.8663 537.376,1500.4043 " fill="none" id="Task-backto-WorkPeriod" style="stroke:#181818;stroke-width:0.6999999999999998;"/><polygon fill="#181818" points="388.262,1265.3723,388.9297,1270.3758,393.805,1271.6838,393.1373,1266.6804,388.262,1265.3723" style="stroke:#181818;stroke-width:0.6999999999999998;"/><text fill="#000000" font-family="sans-serif" font-size="9.1" lengthAdjust="spacing" textLength="44.8" x="505.4" y="1386.8142">workPeriod</text><text fill="#000000" font-family="sans-serif" font-size="9.1" lengthAdjust="spacing" textLength="4.9" x="529.3901" y="1492.6185">1</text></g><!--link Vehicle to WorkPeriod--><g id="link_Vehicle_WorkPeriod"><path codeLine="225" d="M678.468,1445.3283 C658.861,1465.0123 640.3697,1483.5824 621.6517,1502.3774 " fill="none" id="Vehicle-to-WorkPeriod" style="stroke:#181818;stroke-width:0.6999999999999998;"/><polygon fill="#181818" points="618.688,1505.3533,625.1176,1502.8653,621.1578,1502.8734,621.1497,1498.9136,618.688,1505.3533" style="stroke:#181818;stroke-width:0.6999999999999998;"/><text fill="#000000" font-family="sans-serif" font-size="9.1" lengthAdjust="spacing" textLength="44.8" x="654.5" y="1476.7642">workPeriod</text><text fill="#000000" font-family="sans-serif" font-size="9.1" lengthAdjust="spacing" textLength="4.9" x="668.2778" y="1460.8054">1</text></g><!--link Team to WorkPeriod--><g id="link_Team_WorkPeriod"><path codeLine="226" d="M568.4,1226.1513 C568.4,1285.8683 568.4,1419.0643 568.4,1496.3163 " fill="none" id="Team-to-WorkPeriod" style="stroke:#181818;stroke-width:0.6999999999999998;"/><polygon fill="#181818" points="568.4,1500.5163,571.2,1494.2163,568.4,1497.0163,565.6,1494.2163,568.4,1500.5163" style="stroke:#181818;stroke-width:0.6999999999999998;"/><text fill="#000000" font-family="sans-serif" font-size="9.1" lengthAdjust="spacing" textLength="44.8" x="569.1" y="1386.8142">workPeriod</text><text fill="#000000" font-family="sans-serif" font-size="9.1" lengthAdjust="spacing" textLength="4.9" x="563.1095" y="1241.6647">1</text></g><!--SRC=[hLTRJoCt57xthx2s3mmbGTk-bQ18bB0jKkbMJQ0l- -BCc63XiKUs1pQBzh_ts6FFs7C9KTK8aSov-VEvpub-Pg8YYfIub4BcJqgM51jLKzHnAf8_anrTcpsdMD7S4B7ZiO1-8eLyPMA77mdNCOSpGSs-ehYIV6yVqCa8KoeZKQILSwBrbJ6ARMj3RtCfrkmRnH-HOGOWtAy__lmBdkDhAuPNZEn02I4F4_zsVuilBpz9Nb2rNE8VLkw3tn1oTl4VJ9jhoJdPIaMCL1kYdpNel24CdxCfVdRg-KmmmmW7H5cj-0myecMjSlfhBGfEWzJMY3K5EsN5gQ55gvrxYhNgYNFy0kOAOkYQSd0lBHnJHmz1y95nRfyjnYnt8AzsL1Ga2DILjRCXMquV67s54xuZ-nUSSos5KQ17rRYF3hWeKZtegawklVIEcWRctxIIce7aFkODJ3Im6opNaSCwqm71EBTrxFJ1ZhUXf1pdFD0dbdCwWZSEO6Ex5wd6uIV1uojP4YOIRr-vpriRbEwKGq4PG7hpS6qKBZrtYL-Q7vQ8F6H5I_b2_v7g-I-gc2m-GPLx-InSnu6VOGF_Eq5tvpOIVKycvrlr9IPE1AMXtOROhYkQiqUMUxVbKTXlm4ayk3WaiNxUo9KKD7DrFyCxHQbOWzVedwI4vrS0kZP4cHM8px0snDIwCTA2JaESGWRM4Xlu_vwphEHxdkeojZsEKOt3YJ4nplrR0R15JhDJV948TIBJkVXENGtIkmjbLN6M4yEWjLAjuIlW778cqGv58rYrUQB2UFP4sTTAWKntJ8VlNbEL07CAbkeI9P5rb3VawmuTgBl-9EZ25mwnYPIcLTlqJKV_7Vhz6FsEYRwT6r6CM07gY0sWMWieoLsSf6pSAPUufEMMgf0fmzIzVRpv2bew0m-CfwfFhN3zDOnScE8L1yYtHKhSAY9wf58Mb7kIjxInyzmETKykP0sZ28f5DPJpy_E9Efi2sta32gxrXaVW6iCYfHLKvufLDky2nxKIXyp_w5Hio_2TOz4Yz13T6FQz9x8wQyt4BMdsHTGAYZ7VWp3Pwnb-WX33Lya4R36-BsLWldUdLQrSaRHti_bWBIoYPsSh9dYhCSb8GtYmTXVuqLq2Bvl6TuOrz8tZPBkzvGW5EnA_9mLwHwfgQWr99auZ678qfhNTnCZLvdDceldRje7DvoEES1S0oLuXHEbrDfbUPrFfrQgaSoimxvjiSOe-SnPHHw1VAxTK1B_sR2PDQZ7LfHOJRQfBdREn6cXFOThse2jen3j1YpQP4gVzfmhftyvIQ5xRdyqmJwu1cdtqOTpFUXXdOG7IBUMBi3CUaBOy-6tRQTm9uyuAx5uYnAjA74FFfdO4BQAb-B9XB36yr71kDRfAx9sKh46dQBYzH6W6Cm1uomHS60PUCHlNiFwuQuP7RrrwQ1qqEXDMYv6Xi1YP2ZsQSKNHqBeZCX-Eqp2yfrxDpi-Nxxrh7DGTVqj0xxtcMDLacRk0gHLjQEDc1seeiJ6V3umolrKT0GXCZwnTGv8xPeGS7JQc1A_n0XG__FGXNi50g-wUKConWDm2bbuIZWSpwVxPTmC833RR4Pd-WdkaatfQS0NIDpGPllz1Vt0pCF0okEqX2wdpGDsatZmcUPifYUAHYRlR-VwDqX5e-H1_tq2G_tOfqPHIqajwoa6ggt4qz8GL2fdckPrtKE_UiR3RXnj7e4604a6xAbwu8OJSxn_dSyjFrgs67nvREIVOBQ0Wzje-XCiqXy51Kt8EQIDqG0hz2m00]--></g></svg>