<?xml version="1.0" encoding="us-ascii" standalone="no"?><svg xmlns="http://www.w3.org/2000/svg" xmlns:xlink="http://www.w3.org/1999/xlink" contentStyleType="text/css" height="571px" preserveAspectRatio="none" style="width:475px;height:571px;background:#FFFFFF;" version="1.1" viewBox="0 0 475 571" width="475px" zoomAndPan="magnify"><defs/><g><text fill="#000000" font-family="sans-serif" font-size="14" font-weight="bold" lengthAdjust="spacing" textLength="284" x="97.5" y="30.1074">US009 - System Sequence Diagram (SSD)</text><rect fill="#FFFFFF" height="346.4922" style="stroke:#181818;stroke-width:1.0;" width="10" x="49" y="133.2422"/><rect fill="#FFFFFF" height="127.4551" style="stroke:#181818;stroke-width:1.0;" width="10" x="290" y="156.5332"/><rect fill="#FFFFFF" height="48.582" style="stroke:#181818;stroke-width:1.0;" width="10" x="290" y="315.2793"/><rect fill="#FFFFFF" height="75.582" style="stroke:#181818;stroke-width:1.0;" width="10" x="290" y="395.1523"/><line style="stroke:#181818;stroke-width:0.5;stroke-dasharray:5.0,5.0;" x1="54" x2="54" y1="123.2422" y2="488.7344"/><line style="stroke:#181818;stroke-width:0.5;stroke-dasharray:5.0,5.0;" x1="294.5" x2="294.5" y1="123.2422" y2="488.7344"/><text fill="#000000" font-family="sans-serif" font-size="14" lengthAdjust="spacing" textLength="92" x="5" y="119.7285">Fleet Manager</text><ellipse cx="54" cy="53.1211" fill="#E3E3E3" rx="8" ry="8" style="stroke:#181818;stroke-width:0.5;"/><path d="M54,61.1211 L54,88.1211 M41,69.1211 L67,69.1211 M54,88.1211 L41,103.1211 M54,88.1211 L67,103.1211 " fill="none" style="stroke:#181818;stroke-width:0.5;"/><text fill="#000000" font-family="sans-serif" font-size="14" lengthAdjust="spacing" textLength="92" x="5" y="502.8418">Fleet Manager</text><ellipse cx="54" cy="514.8555" fill="#E3E3E3" rx="8" ry="8" style="stroke:#181818;stroke-width:0.5;"/><path d="M54,522.8555 L54,549.8555 M41,530.8555 L67,530.8555 M54,549.8555 L41,564.8555 M54,549.8555 L67,564.8555 " fill="none" style="stroke:#181818;stroke-width:0.5;"/><rect fill="#E3E3E3" height="32.6211" rx="2.5" ry="2.5" style="stroke:#181818;stroke-width:0.5;" width="119" x="235.5" y="89.6211"/><text fill="#000000" font-family="sans-serif" font-size="14" lengthAdjust="spacing" textLength="105" x="242.5" y="111.7285">:NeedCheckupUI</text><rect fill="#E3E3E3" height="32.6211" rx="2.5" ry="2.5" style="stroke:#181818;stroke-width:0.5;" width="119" x="235.5" y="487.7344"/><text fill="#000000" font-family="sans-serif" font-size="14" lengthAdjust="spacing" textLength="105" x="242.5" y="509.8418">:NeedCheckupUI</text><rect fill="#FFFFFF" height="346.4922" style="stroke:#181818;stroke-width:1.0;" width="10" x="49" y="133.2422"/><rect fill="#FFFFFF" height="127.4551" style="stroke:#181818;stroke-width:1.0;" width="10" x="290" y="156.5332"/><rect fill="#FFFFFF" height="48.582" style="stroke:#181818;stroke-width:1.0;" width="10" x="290" y="315.2793"/><rect fill="#FFFFFF" height="75.582" style="stroke:#181818;stroke-width:1.0;" width="10" x="290" y="395.1523"/><polygon fill="#181818" points="278,152.5332,288,156.5332,278,160.5332,282,156.5332" style="stroke:#181818;stroke-width:1.0;"/><line style="stroke:#181818;stroke-width:1.0;" x1="59" x2="284" y1="156.5332" y2="156.5332"/><text fill="#000000" font-family="sans-serif" font-size="13" font-weight="bold" lengthAdjust="spacing" textLength="7" x="66" y="151.2705">1</text><text fill="#000000" font-family="sans-serif" font-size="13" lengthAdjust="spacing" textLength="201" x="77" y="151.2705">provides waterConsumption.csv file</text><line style="stroke:#181818;stroke-width:1.0;" x1="300" x2="342" y1="205.1152" y2="205.1152"/><line style="stroke:#181818;stroke-width:1.0;" x1="342" x2="342" y1="205.1152" y2="218.1152"/><line style="stroke:#181818;stroke-width:1.0;" x1="301" x2="342" y1="218.1152" y2="218.1152"/><polygon fill="#181818" points="311,214.1152,301,218.1152,311,222.1152,307,218.1152" style="stroke:#181818;stroke-width:1.0;"/><text fill="#000000" font-family="sans-serif" font-size="13" font-weight="bold" lengthAdjust="spacing" textLength="7" x="307" y="191.207">2</text><text fill="#000000" font-family="sans-serif" font-size="13" lengthAdjust="spacing" textLength="97" x="318" y="182.5615">reads and stores</text><text fill="#000000" font-family="sans-serif" font-size="13" lengthAdjust="spacing" textLength="150" x="318" y="199.8525">waterConsumption.csv file</text><polygon fill="#181818" points="70,279.9883,60,283.9883,70,287.9883,66,283.9883" style="stroke:#181818;stroke-width:1.0;"/><line style="stroke:#181818;stroke-width:1.0;" x1="64" x2="294" y1="283.9883" y2="283.9883"/><text fill="#000000" font-family="sans-serif" font-size="13" font-weight="bold" lengthAdjust="spacing" textLength="7" x="76" y="261.4346">3</text><text fill="#000000" font-family="sans-serif" font-size="13" lengthAdjust="spacing" textLength="180" x="87" y="244.1436">asks to select desired analysis</text><text fill="#000000" font-family="sans-serif" font-size="13" lengthAdjust="spacing" textLength="189" x="91" y="261.4346">(Barplot, Average Monthly costs,</text><text fill="#000000" font-family="sans-serif" font-size="13" lengthAdjust="spacing" textLength="122" x="91" y="278.7256">Statistical Indicators)</text><polygon fill="#181818" points="278,311.2793,288,315.2793,278,319.2793,282,315.2793" style="stroke:#181818;stroke-width:1.0;"/><line style="stroke:#181818;stroke-width:1.0;" x1="59" x2="284" y1="315.2793" y2="315.2793"/><text fill="#000000" font-family="sans-serif" font-size="13" font-weight="bold" lengthAdjust="spacing" textLength="7" x="66" y="310.0166">4</text><text fill="#000000" font-family="sans-serif" font-size="13" lengthAdjust="spacing" textLength="87" x="77" y="310.0166">selects Barplot</text><polygon fill="#181818" points="70,359.8613,60,363.8613,70,367.8613,66,363.8613" style="stroke:#181818;stroke-width:1.0;"/><line style="stroke:#181818;stroke-width:1.0;" x1="64" x2="294" y1="363.8613" y2="363.8613"/><text fill="#000000" font-family="sans-serif" font-size="13" font-weight="bold" lengthAdjust="spacing" textLength="7" x="76" y="349.9531">5</text><text fill="#000000" font-family="sans-serif" font-size="13" lengthAdjust="spacing" textLength="68" x="87" y="341.3076">aks for data</text><text fill="#000000" font-family="sans-serif" font-size="13" lengthAdjust="spacing" textLength="180" x="87" y="358.5986">(startMonth, endMonth, parkID)</text><polygon fill="#181818" points="278,391.1523,288,395.1523,278,399.1523,282,395.1523" style="stroke:#181818;stroke-width:1.0;"/><line style="stroke:#181818;stroke-width:1.0;" x1="59" x2="284" y1="395.1523" y2="395.1523"/><text fill="#000000" font-family="sans-serif" font-size="13" font-weight="bold" lengthAdjust="spacing" textLength="7" x="66" y="389.8896">6</text><text fill="#000000" font-family="sans-serif" font-size="13" lengthAdjust="spacing" textLength="61" x="77" y="389.8896">types data</text><line style="stroke:#181818;stroke-width:1.0;" x1="300" x2="342" y1="426.4434" y2="426.4434"/><line style="stroke:#181818;stroke-width:1.0;" x1="342" x2="342" y1="426.4434" y2="439.4434"/><line style="stroke:#181818;stroke-width:1.0;" x1="301" x2="342" y1="439.4434" y2="439.4434"/><polygon fill="#181818" points="311,435.4434,301,439.4434,311,443.4434,307,439.4434" style="stroke:#181818;stroke-width:1.0;"/><text fill="#000000" font-family="sans-serif" font-size="13" font-weight="bold" lengthAdjust="spacing" textLength="7" x="307" y="421.1807">7</text><text fill="#000000" font-family="sans-serif" font-size="13" lengthAdjust="spacing" textLength="102" x="318" y="421.1807">generates Barplot</text><polygon fill="#181818" points="70,466.7344,60,470.7344,70,474.7344,66,470.7344" style="stroke:#181818;stroke-width:1.0;"/><line style="stroke:#181818;stroke-width:1.0;" x1="64" x2="294" y1="470.7344" y2="470.7344"/><text fill="#000000" font-family="sans-serif" font-size="13" font-weight="bold" lengthAdjust="spacing" textLength="7" x="76" y="465.4717">8</text><text fill="#000000" font-family="sans-serif" font-size="13" lengthAdjust="spacing" textLength="82" x="87" y="465.4717">shows Barplot</text><!--SRC=[bL4zJyCm4DtpAqwTYbGGAnsGW8BK0PQ8ZUMmhuaLvnnybrRvzrnBMYW8HBt4LjwzhvCcS8SPMsWJ9rVdr19exgcGmvyENOCLbJf4WanEaQlu5I0r-hG9NC4Aer1HQ523FfUNbrTm3kKWIYsKzDOJEu95m6exDYtBnLbHOA-9-_QLijsTfWoJXqYay8Xiida2A73VTZ4DH8KfQd2XGrQOp9-8_5rDhkcxv-KE-26sOmfhLFgSBC3E_WNdroDq3brEw-19O6FuV9TO-hRJaFZ2oHfMmR9kHm-CUmaOpvZl2sCcz0B87iJo6FCB_yrzJBCtERT0ZO0c48hMEvZ9aCaRCyP1WhmmJ6yn6rfdSBEcR7t1OsAjum0kYShC8AMY1h7MCCAIlNtDb9pjX3rzZ_LRInyM14Qz_rPoeB8mbcLbw_MeQ8rCHMsNExSp8FRZpHRSB1UdkjEXivgtpAVkgYAstfIEa_ss4AdJvXZvq-Cx]--></g></svg>