<?xml version="1.0" encoding="us-ascii" standalone="no"?><svg xmlns="http://www.w3.org/2000/svg" xmlns:xlink="http://www.w3.org/1999/xlink" contentStyleType="text/css" height="783.3px" preserveAspectRatio="none" style="width:1091px;height:783px;background:#FFFFFF;" version="1.1" viewBox="0 0 1091 783" width="1091.3px" zoomAndPan="magnify"><defs/><g><text fill="#000000" font-family="sans-serif" font-size="9.8" font-weight="bold" lengthAdjust="spacing" textLength="70" x="505.75" y="17.5752">Domain Model</text><!--class Organization--><g id="elem_Organization"><rect codeLine="12" fill="#F1F1F1" height="90.8086" id="Organization" rx="1.75" ry="1.75" style="stroke:#181818;stroke-width:0.3499999999999999;" width="70.7" x="4.9" y="381.5848"/><text fill="#000000" font-family="sans-serif" font-size="9.8" lengthAdjust="spacing" textLength="56" x="12.25" y="395.66">Organization</text><line style="stroke:#181818;stroke-width:0.3499999999999999;" x1="5.6" x2="74.9" y1="401.6195" y2="401.6195"/><text fill="#000000" font-family="sans-serif" font-size="9.8" lengthAdjust="spacing" textLength="24.5" x="9.1" y="414.9947">name</text><text fill="#000000" font-family="sans-serif" font-size="9.8" lengthAdjust="spacing" textLength="10.5" x="9.1" y="428.0295">nif</text><text fill="#000000" font-family="sans-serif" font-size="9.8" lengthAdjust="spacing" textLength="32.9" x="9.1" y="441.0643">website</text><text fill="#000000" font-family="sans-serif" font-size="9.8" lengthAdjust="spacing" textLength="62.3" x="9.1" y="454.099">phoneNumber</text><text fill="#000000" font-family="sans-serif" font-size="9.8" lengthAdjust="spacing" textLength="23.1" x="9.1" y="467.1338">email</text></g><!--class Skill--><g id="elem_Skill"><rect codeLine="20" fill="#F1F1F1" height="38.6695" id="Skill" rx="1.75" ry="1.75" style="stroke:#181818;stroke-width:0.3499999999999999;" width="32.9" x="1036" y="652.1348"/><text fill="#000000" font-family="sans-serif" font-size="9.8" lengthAdjust="spacing" textLength="17.5" x="1043.7" y="666.21">Skill</text><line style="stroke:#181818;stroke-width:0.3499999999999999;" x1="1036.7" x2="1068.2" y1="672.1695" y2="672.1695"/><text fill="#000000" font-family="sans-serif" font-size="9.8" lengthAdjust="spacing" textLength="24.5" x="1040.2" y="685.5447">name</text></g><!--class Collaborator--><g id="elem_Collaborator"><rect codeLine="25" fill="#F1F1F1" height="116.8781" id="Collaborator" rx="1.75" ry="1.75" style="stroke:#181818;stroke-width:0.3499999999999999;" width="73.5" x="797.3" y="584.2348"/><text fill="#000000" font-family="sans-serif" font-size="9.8" lengthAdjust="spacing" textLength="54.6" x="806.75" y="598.31">Collaborator</text><line style="stroke:#181818;stroke-width:0.3499999999999999;" x1="798" x2="870.1" y1="604.2695" y2="604.2695"/><text fill="#000000" font-family="sans-serif" font-size="9.8" lengthAdjust="spacing" textLength="24.5" x="801.5" y="617.6447">name</text><text fill="#000000" font-family="sans-serif" font-size="9.8" lengthAdjust="spacing" textLength="65.1" x="801.5" y="630.6795">admissionDate</text><text fill="#000000" font-family="sans-serif" font-size="9.8" lengthAdjust="spacing" textLength="40.6" x="801.5" y="643.7143">birthDate</text><text fill="#000000" font-family="sans-serif" font-size="9.8" lengthAdjust="spacing" textLength="62.3" x="801.5" y="656.749">phoneNumber</text><text fill="#000000" font-family="sans-serif" font-size="9.8" lengthAdjust="spacing" textLength="23.1" x="801.5" y="669.7838">email</text><text fill="#000000" font-family="sans-serif" font-size="9.8" lengthAdjust="spacing" textLength="47.6" x="801.5" y="682.8186">idDocType</text><text fill="#000000" font-family="sans-serif" font-size="9.8" lengthAdjust="spacing" textLength="59.5" x="801.5" y="695.8533">idDocNumber</text></g><!--class Job--><g id="elem_Job"><rect codeLine="35" fill="#F1F1F1" height="38.6695" id="Job" rx="1.75" ry="1.75" style="stroke:#181818;stroke-width:0.3499999999999999;" width="32.9" x="940.45" y="594.7348"/><text fill="#000000" font-family="sans-serif" font-size="9.8" lengthAdjust="spacing" textLength="15.4" x="949.2" y="608.81">Job</text><line style="stroke:#181818;stroke-width:0.3499999999999999;" x1="941.15" x2="972.65" y1="614.7695" y2="614.7695"/><text fill="#000000" font-family="sans-serif" font-size="9.8" lengthAdjust="spacing" textLength="24.5" x="944.65" y="628.1447">name</text></g><!--class Team--><g id="elem_Team"><rect codeLine="40" fill="#F1F1F1" height="77.7738" id="Team" rx="1.75" ry="1.75" style="stroke:#181818;stroke-width:0.3499999999999999;" width="56.7" x="618.45" y="526.8348"/><text fill="#000000" font-family="sans-serif" font-size="9.8" lengthAdjust="spacing" textLength="25.2" x="634.2" y="540.91">Team</text><line style="stroke:#181818;stroke-width:0.3499999999999999;" x1="619.15" x2="674.45" y1="546.8695" y2="546.8695"/><text fill="#000000" font-family="sans-serif" font-size="9.8" lengthAdjust="spacing" textLength="24.5" x="622.65" y="560.2447">name</text><text fill="#000000" font-family="sans-serif" font-size="9.8" lengthAdjust="spacing" textLength="48.3" x="622.65" y="573.2795">description</text><text fill="#000000" font-family="sans-serif" font-size="9.8" lengthAdjust="spacing" textLength="40.6" x="622.65" y="586.3143">members</text><text fill="#000000" font-family="sans-serif" font-size="9.8" lengthAdjust="spacing" textLength="26.6" x="622.65" y="599.349">status</text></g><!--class Vehicle--><g id="elem_Vehicle"><rect codeLine="47" fill="#F1F1F1" height="155.9824" id="Vehicle" rx="1.75" ry="1.75" style="stroke:#181818;stroke-width:0.3499999999999999;" width="112" x="590.8" y="256.6348"/><text fill="#000000" font-family="sans-serif" font-size="9.8" lengthAdjust="spacing" textLength="32.2" x="630.7" y="270.71">Vehicle</text><line style="stroke:#181818;stroke-width:0.3499999999999999;" x1="591.5" x2="702.1" y1="276.6695" y2="276.6695"/><text fill="#000000" font-family="sans-serif" font-size="9.8" lengthAdjust="spacing" textLength="29.4" x="595" y="290.0447">plateId</text><text fill="#000000" font-family="sans-serif" font-size="9.8" lengthAdjust="spacing" textLength="25.9" x="595" y="303.0795">brand</text><text fill="#000000" font-family="sans-serif" font-size="9.8" lengthAdjust="spacing" textLength="26.6" x="595" y="316.1143">model</text><text fill="#000000" font-family="sans-serif" font-size="9.8" lengthAdjust="spacing" textLength="18.9" x="595" y="329.149">type</text><text fill="#000000" font-family="sans-serif" font-size="9.8" lengthAdjust="spacing" textLength="17.5" x="595" y="342.1838">tare</text><text fill="#000000" font-family="sans-serif" font-size="9.8" lengthAdjust="spacing" textLength="55.3" x="595" y="355.2186">grossWeight</text><text fill="#000000" font-family="sans-serif" font-size="9.8" lengthAdjust="spacing" textLength="45.5" x="595" y="368.2533">currentKm</text><text fill="#000000" font-family="sans-serif" font-size="9.8" lengthAdjust="spacing" textLength="54.6" x="595" y="381.2881">registerDate</text><text fill="#000000" font-family="sans-serif" font-size="9.8" lengthAdjust="spacing" textLength="67.9" x="595" y="394.3229">acquisitionDate</text><text fill="#000000" font-family="sans-serif" font-size="9.8" lengthAdjust="spacing" textLength="103.6" x="595" y="407.3576">checkupFrequencyKms</text></g><!--class Checkup--><g id="elem_Checkup"><rect codeLine="60" fill="#F1F1F1" height="51.7043" id="Checkup" rx="1.75" ry="1.75" style="stroke:#181818;stroke-width:0.3499999999999999;" width="64.4" x="614.6" y="450.1848"/><text fill="#000000" font-family="sans-serif" font-size="9.8" lengthAdjust="spacing" textLength="39.2" x="627.2" y="464.26">Checkup</text><line style="stroke:#181818;stroke-width:0.3499999999999999;" x1="615.3" x2="678.3" y1="470.2195" y2="470.2195"/><text fill="#000000" font-family="sans-serif" font-size="9.8" lengthAdjust="spacing" textLength="19.6" x="618.8" y="483.5947">date</text><text fill="#000000" font-family="sans-serif" font-size="9.8" lengthAdjust="spacing" textLength="56" x="618.8" y="496.6295">checkupKms</text></g><!--class CheckupList--><g id="elem_CheckupList"><rect codeLine="64" fill="#F1F1F1" height="25.6348" id="CheckupList" rx="1.75" ry="1.75" style="stroke:#181818;stroke-width:0.3499999999999999;" width="58.8" x="422.8" y="355.3348"/><text fill="#000000" font-family="sans-serif" font-size="9.8" lengthAdjust="spacing" textLength="54.6" x="424.9" y="369.41">CheckupList</text><line style="stroke:#181818;stroke-width:0.3499999999999999;" x1="423.5" x2="480.9" y1="375.3695" y2="375.3695"/></g><!--class GreenSpace--><g id="elem_GreenSpace"><rect codeLine="68" fill="#F1F1F1" height="64.7391" id="GreenSpace" rx="1.75" ry="1.75" style="stroke:#181818;stroke-width:0.3499999999999999;" width="60.2" x="271.25" y="95.9848"/><text fill="#000000" font-family="sans-serif" font-size="9.8" lengthAdjust="spacing" textLength="56" x="273.35" y="110.06">GreenSpace</text><line style="stroke:#181818;stroke-width:0.3499999999999999;" x1="271.95" x2="330.75" y1="116.0195" y2="116.0195"/><text fill="#000000" font-family="sans-serif" font-size="9.8" lengthAdjust="spacing" textLength="24.5" x="275.45" y="129.3947">name</text><text fill="#000000" font-family="sans-serif" font-size="9.8" lengthAdjust="spacing" textLength="18.9" x="275.45" y="142.4295">type</text><text fill="#000000" font-family="sans-serif" font-size="9.8" lengthAdjust="spacing" textLength="48.3" x="275.45" y="155.4643">description</text></g><!--class Address--><g id="elem_Address"><rect codeLine="75" fill="#F1F1F1" height="90.8086" id="Address" rx="1.75" ry="1.75" style="stroke:#181818;stroke-width:0.3499999999999999;" width="67.9" x="1018.5" y="173.6848"/><text fill="#000000" font-family="sans-serif" font-size="9.8" lengthAdjust="spacing" textLength="36.4" x="1034.25" y="187.76">Address</text><line style="stroke:#181818;stroke-width:0.3499999999999999;" x1="1019.2" x2="1085.7" y1="193.7195" y2="193.7195"/><text fill="#000000" font-family="sans-serif" font-size="9.8" lengthAdjust="spacing" textLength="25.2" x="1022.7" y="207.0947">street</text><text fill="#000000" font-family="sans-serif" font-size="9.8" lengthAdjust="spacing" textLength="59.5" x="1022.7" y="220.1295">streetNumber</text><text fill="#000000" font-family="sans-serif" font-size="9.8" lengthAdjust="spacing" textLength="50.4" x="1022.7" y="233.1643">postalCode</text><text fill="#000000" font-family="sans-serif" font-size="9.8" lengthAdjust="spacing" textLength="14.7" x="1022.7" y="246.199">city</text><text fill="#000000" font-family="sans-serif" font-size="9.8" lengthAdjust="spacing" textLength="28.7" x="1022.7" y="259.2338">district</text></g><!--class Task--><g id="elem_Task"><rect codeLine="83" fill="#F1F1F1" height="77.7738" id="Task" rx="1.75" ry="1.75" style="stroke:#181818;stroke-width:0.3499999999999999;" width="44.8" x="429.8" y="526.8348"/><text fill="#000000" font-family="sans-serif" font-size="9.8" lengthAdjust="spacing" textLength="21.7" x="441.35" y="540.91">Task</text><line style="stroke:#181818;stroke-width:0.3499999999999999;" x1="430.5" x2="473.9" y1="546.8695" y2="546.8695"/><text fill="#000000" font-family="sans-serif" font-size="9.8" lengthAdjust="spacing" textLength="15.4" x="434" y="560.2447">title</text><text fill="#000000" font-family="sans-serif" font-size="9.8" lengthAdjust="spacing" textLength="36.4" x="434" y="573.2795">duration</text><text fill="#000000" font-family="sans-serif" font-size="9.8" lengthAdjust="spacing" textLength="26.6" x="434" y="586.3143">status</text><text fill="#000000" font-family="sans-serif" font-size="9.8" lengthAdjust="spacing" textLength="30.1" x="434" y="599.349">priority</text></g><!--class ToDoList--><g id="elem_ToDoList"><rect codeLine="90" fill="#F1F1F1" height="25.6348" id="ToDoList" rx="1.75" ry="1.75" style="stroke:#181818;stroke-width:0.3499999999999999;" width="44.1" x="279.3" y="477.8348"/><text fill="#000000" font-family="sans-serif" font-size="9.8" lengthAdjust="spacing" textLength="39.9" x="281.4" y="491.91">ToDoList</text><line style="stroke:#181818;stroke-width:0.3499999999999999;" x1="280" x2="322.7" y1="497.8695" y2="497.8695"/></g><!--class UserPortal--><g id="elem_UserPortal"><rect codeLine="94" fill="#F1F1F1" height="51.7043" id="UserPortal" rx="1.75" ry="1.75" style="stroke:#181818;stroke-width:0.3499999999999999;" width="50.4" x="276.15" y="401.1848"/><text fill="#000000" font-family="sans-serif" font-size="9.8" lengthAdjust="spacing" textLength="46.2" x="278.25" y="415.26">UserPortal</text><line style="stroke:#181818;stroke-width:0.3499999999999999;" x1="276.85" x2="325.85" y1="421.2195" y2="421.2195"/><text fill="#000000" font-family="sans-serif" font-size="9.8" lengthAdjust="spacing" textLength="24.5" x="280.35" y="434.5947">name</text><text fill="#000000" font-family="sans-serif" font-size="9.8" lengthAdjust="spacing" textLength="11.2" x="280.35" y="447.6295">url</text></g><!--class Comment--><g id="elem_Comment"><rect codeLine="99" fill="#F1F1F1" height="64.7391" id="Comment" rx="1.75" ry="1.75" style="stroke:#181818;stroke-width:0.3499999999999999;" width="46.2" x="429.1" y="406.0848"/><text fill="#000000" font-family="sans-serif" font-size="9.8" lengthAdjust="spacing" textLength="42" x="431.2" y="420.16">Comment</text><line style="stroke:#181818;stroke-width:0.3499999999999999;" x1="429.8" x2="474.6" y1="426.1195" y2="426.1195"/><text fill="#000000" font-family="sans-serif" font-size="9.8" lengthAdjust="spacing" textLength="15.4" x="433.3" y="439.4947">text</text><text fill="#000000" font-family="sans-serif" font-size="9.8" lengthAdjust="spacing" textLength="19.6" x="433.3" y="452.5295">date</text><text fill="#000000" font-family="sans-serif" font-size="9.8" lengthAdjust="spacing" textLength="28.7" x="433.3" y="465.5643">author</text></g><!--class Agenda--><g id="elem_Agenda"><rect fill="#F1F1F1" height="25.6348" id="Agenda" rx="1.75" ry="1.75" style="stroke:#181818;stroke-width:0.3499999999999999;" width="38.5" x="282.1" y="578.6348"/><text fill="#000000" font-family="sans-serif" font-size="9.8" lengthAdjust="spacing" textLength="34.3" x="284.2" y="592.71">Agenda</text><line style="stroke:#181818;stroke-width:0.3499999999999999;" x1="282.8" x2="319.9" y1="598.6695" y2="598.6695"/></g><!--class Garden--><g id="elem_Garden"><rect fill="#F1F1F1" height="25.6348" id="Garden" rx="1.75" ry="1.75" style="stroke:#181818;stroke-width:0.3499999999999999;" width="37.8" x="282.45" y="32.6348"/><text fill="#000000" font-family="sans-serif" font-size="9.8" lengthAdjust="spacing" textLength="33.6" x="284.55" y="46.71">Garden</text><line style="stroke:#181818;stroke-width:0.3499999999999999;" x1="283.15" x2="319.55" y1="52.6695" y2="52.6695"/></g><!--class MediumPark--><g id="elem_MediumPark"><rect fill="#F1F1F1" height="25.6348" id="MediumPark" rx="1.75" ry="1.75" style="stroke:#181818;stroke-width:0.3499999999999999;" width="58.8" x="422.8" y="155.8348"/><text fill="#000000" font-family="sans-serif" font-size="9.8" lengthAdjust="spacing" textLength="54.6" x="424.9" y="169.91">MediumPark</text><line style="stroke:#181818;stroke-width:0.3499999999999999;" x1="423.5" x2="480.9" y1="175.8695" y2="175.8695"/></g><!--class LargePark--><g id="elem_LargePark"><rect fill="#F1F1F1" height="25.6348" id="LargePark" rx="1.75" ry="1.75" style="stroke:#181818;stroke-width:0.3499999999999999;" width="50.4" x="427" y="55.0348"/><text fill="#000000" font-family="sans-serif" font-size="9.8" lengthAdjust="spacing" textLength="46.2" x="429.1" y="69.11">LargePark</text><line style="stroke:#181818;stroke-width:0.3499999999999999;" x1="427.7" x2="476.7" y1="75.0695" y2="75.0695"/></g><!--link Organization to Task--><g id="link_Organization_Task"><path codeLine="105" d="M75.656,441.9598 C119.973,460.6428 199.248,493.0248 268.8,515.9848 C326.081,534.8918 395.115,552.2308 429.625,560.5328 " fill="none" id="Organization-Task" style="stroke:#181818;stroke-width:0.6999999999999998;"/><polygon fill="#000000" points="223.1187,493.0483,217.7685,489.0865,216.4616,492.9879,223.1187,493.0483" style="stroke:#000000;stroke-width:0.6999999999999998;"/><text fill="#000000" font-family="sans-serif" font-size="9.1" lengthAdjust="spacing" textLength="21" x="226.1" y="495.7046">owns</text><text fill="#000000" font-family="sans-serif" font-size="9.1" lengthAdjust="spacing" textLength="4.9" x="81.2161" y="454.8673">1</text><text fill="#000000" font-family="sans-serif" font-size="9.1" lengthAdjust="spacing" textLength="3.5" x="420.8039" y="570.5414">*</text></g><!--link Organization to Agenda--><g id="link_Organization_Agenda"><path codeLine="106" d="M52.486,472.8858 C61.152,500.2978 75.25,534.5278 96.6,559.3848 C143.213,613.6628 241.094,602.8968 282.03,595.5048 " fill="none" id="Organization-Agenda" style="stroke:#181818;stroke-width:0.6999999999999998;"/><polygon fill="#000000" points="147.6371,573.3857,143.0218,568.5879,141.0831,572.217,147.6371,573.3857" style="stroke:#000000;stroke-width:0.6999999999999998;"/><text fill="#000000" font-family="sans-serif" font-size="9.1" lengthAdjust="spacing" textLength="21" x="150.85" y="575.5046">owns</text><text fill="#000000" font-family="sans-serif" font-size="9.1" lengthAdjust="spacing" textLength="4.9" x="48.5493" y="487.8193">1</text><text fill="#000000" font-family="sans-serif" font-size="9.1" lengthAdjust="spacing" textLength="4.9" x="271.5514" y="607.9139">1</text></g><!--link Organization to Address--><g id="link_Organization_Address"><path codeLine="107" d="M45.969,381.4588 C55.524,320.2648 82.453,219.1848 156.1,219.1848 C156.1,219.1848 156.1,219.1848 957.6,219.1848 C977.788,219.1848 1000.405,219.1848 1018.416,219.1848 " fill="none" id="Organization-Address" style="stroke:#181818;stroke-width:0.6999999999999998;"/><polygon fill="#000000" points="524.2523,212.0605,517.6684,211.0735,518.3457,215.1319,524.2523,212.0605" style="stroke:#000000;stroke-width:0.6999999999999998;"/><text fill="#000000" font-family="sans-serif" font-size="9.1" lengthAdjust="spacing" textLength="27.3" x="527.1" y="216.4046">has an</text><text fill="#000000" font-family="sans-serif" font-size="9.1" lengthAdjust="spacing" textLength="4.9" x="46.8625" y="373.7591">1</text><text fill="#000000" font-family="sans-serif" font-size="9.1" lengthAdjust="spacing" textLength="4.9" x="1007.9294" y="229.9459">1</text></g><!--link Organization to UserPortal--><g id="link_Organization_UserPortal"><path codeLine="108" d="M75.705,427.0848 C128.989,427.0848 229.558,427.0848 275.996,427.0848 " fill="none" id="Organization-UserPortal" style="stroke:#181818;stroke-width:0.6999999999999998;"/><polygon fill="#000000" points="148.05,420.5366,141.7184,418.4794,141.7184,422.5939,148.05,420.5366" style="stroke:#000000;stroke-width:0.6999999999999998;"/><text fill="#000000" font-family="sans-serif" font-size="9.1" lengthAdjust="spacing" textLength="21" x="150.85" y="424.3046">owns</text><text fill="#000000" font-family="sans-serif" font-size="9.1" lengthAdjust="spacing" textLength="4.9" x="81.2723" y="437.8075">1</text><text fill="#000000" font-family="sans-serif" font-size="9.1" lengthAdjust="spacing" textLength="14" x="256.6374" y="437.9149">1..*</text></g><!--link Organization to GreenSpace--><g id="link_Organization_GreenSpace"><path codeLine="109" d="M47.019,381.3818 C55.587,323.2538 72.891,227.2348 96.6,200.9848 C142.618,150.0528 226.723,134.7368 271.229,130.1448 " fill="none" id="Organization-GreenSpace" style="stroke:#181818;stroke-width:0.6999999999999998;"/><polygon fill="#000000" points="119.4696,141.748,125.2203,138.3938,122.1504,135.6542,119.4696,141.748" style="stroke:#000000;stroke-width:0.6999999999999998;"/><text fill="#000000" font-family="sans-serif" font-size="9.1" lengthAdjust="spacing" textLength="66.5" x="128.1" y="142.9046">is maintained by</text><text fill="#000000" font-family="sans-serif" font-size="9.1" lengthAdjust="spacing" textLength="4.9" x="42.5914" y="373.6737">1</text><text fill="#000000" font-family="sans-serif" font-size="9.1" lengthAdjust="spacing" textLength="3.5" x="262.052" y="141.3615">*</text></g><!--link Organization to Collaborator--><g id="link_Organization_Collaborator"><path codeLine="110" d="M46.172,472.6618 C58.331,567.7428 92.463,778.4848 156.1,778.4848 C156.1,778.4848 156.1,778.4848 647.5,778.4848 C708.743,778.4848 763.259,729.8208 797.16,690.7538 " fill="none" id="Organization-Collaborator" style="stroke:#181818;stroke-width:0.6999999999999998;"/><polygon fill="#000000" points="355.0389,770.9605,360.5455,774.7019,361.693,770.7507,355.0389,770.9605" style="stroke:#000000;stroke-width:0.6999999999999998;"/><text fill="#000000" font-family="sans-serif" font-size="9.1" lengthAdjust="spacing" textLength="36.4" x="364.7" y="775.7046">works for</text><text fill="#000000" font-family="sans-serif" font-size="9.1" lengthAdjust="spacing" textLength="4.9" x="41.63" y="487.8157">1</text><text fill="#000000" font-family="sans-serif" font-size="9.1" lengthAdjust="spacing" textLength="3.5" x="788.2262" y="708.1859">*</text></g><!--link Organization to Vehicle--><g id="link_Organization_Vehicle"><path codeLine="111" d="M65.842,381.4098 C85.827,351.4848 116.977,317.8848 156.1,317.8848 C156.1,317.8848 156.1,317.8848 452.9,317.8848 C499.443,317.8848 552.062,322.7848 590.618,327.2928 " fill="none" id="Organization-Vehicle" style="stroke:#181818;stroke-width:0.6999999999999998;"/><polygon fill="#000000" points="268.8185,311.6957,275.3277,313.0926,274.9056,308.9998,268.8185,311.6957" style="stroke:#000000;stroke-width:0.6999999999999998;"/><text fill="#000000" font-family="sans-serif" font-size="9.1" lengthAdjust="spacing" textLength="54.6" x="278.6" y="315.1046">is an asset of</text><text fill="#000000" font-family="sans-serif" font-size="9.1" lengthAdjust="spacing" textLength="4.9" x="63.4732" y="373.7047">1</text><text fill="#000000" font-family="sans-serif" font-size="9.1" lengthAdjust="spacing" textLength="3.5" x="581.7774" y="336.9945">*</text></g><!--link Collaborator to Skill--><g id="link_Collaborator_Skill"><path codeLine="112" d="M871.01,648.7398 C890.778,651.9458 915.698,655.8098 938,658.7848 C972.86,663.4328 1013.894,667.6748 1035.895,669.8518 " fill="none" id="Collaborator-Skill" style="stroke:#181818;stroke-width:0.6999999999999998;"/><polygon fill="#000000" points="951.2717,652.6811,945.2526,649.8364,944.7301,653.9176,951.2717,652.6811" style="stroke:#000000;stroke-width:0.6999999999999998;"/><text fill="#000000" font-family="sans-serif" font-size="9.1" lengthAdjust="spacing" textLength="14.7" x="954.1" y="656.0046">has</text><text fill="#000000" font-family="sans-serif" font-size="9.1" lengthAdjust="spacing" textLength="4.9" x="876.3057" y="660.1879">1</text><text fill="#000000" font-family="sans-serif" font-size="9.1" lengthAdjust="spacing" textLength="3.5" x="1026.7891" y="681.0295">*</text></g><!--link Collaborator to Address--><g id="link_Collaborator_Address"><path codeLine="113" d="M864.808,584.0248 C908.502,498.7508 988.659,342.3148 1028.293,264.9718 " fill="none" id="Collaborator-Address" style="stroke:#181818;stroke-width:0.6999999999999998;"/><polygon fill="#000000" points="943.0961,358.6217,938.3779,363.3185,942.0396,365.1948,943.0961,358.6217" style="stroke:#000000;stroke-width:0.6999999999999998;"/><text fill="#000000" font-family="sans-serif" font-size="9.1" lengthAdjust="spacing" textLength="27.3" x="947.8" y="365.5046">has an</text><text fill="#000000" font-family="sans-serif" font-size="9.1" lengthAdjust="spacing" textLength="4.9" x="862.3407" y="576.4019">1</text><text fill="#000000" font-family="sans-serif" font-size="9.1" lengthAdjust="spacing" textLength="4.9" x="1020.7739" y="279.9039">1</text></g><!--link Collaborator to Job--><g id="link_Collaborator_Job"><path codeLine="114" d="M870.863,634.1518 C893.935,628.6988 922.719,621.8948 940.261,617.7508 " fill="none" id="Collaborator-Job" style="stroke:#181818;stroke-width:0.6999999999999998;"/><polygon fill="#000000" points="898.7062,615.7316,892.0712,615.1858,893.0175,619.19,898.7062,615.7316" style="stroke:#000000;stroke-width:0.6999999999999998;"/><text fill="#000000" font-family="sans-serif" font-size="9.1" lengthAdjust="spacing" textLength="14.7" x="901.6" y="620.3046">has</text><text fill="#000000" font-family="sans-serif" font-size="9.1" lengthAdjust="spacing" textLength="4.9" x="876.3844" y="643.6242">1</text><text fill="#000000" font-family="sans-serif" font-size="9.1" lengthAdjust="spacing" textLength="4.9" x="929.9922" y="630.308">1</text></g><!--link UserPortal to Comment--><g id="link_UserPortal_Comment"><path codeLine="115" d="M326.732,428.9328 C355.166,431.0678 401.499,434.5398 428.988,436.5978 " fill="none" id="UserPortal-Comment" style="stroke:#181818;stroke-width:0.6999999999999998;"/><polygon fill="#000000" points="372.7402,425.6982,366.5801,423.1735,366.2726,427.2765,372.7402,425.6982" style="stroke:#000000;stroke-width:0.6999999999999998;"/><text fill="#000000" font-family="sans-serif" font-size="9.1" lengthAdjust="spacing" textLength="14.7" x="375.55" y="429.2046">has</text><text fill="#000000" font-family="sans-serif" font-size="9.1" lengthAdjust="spacing" textLength="4.9" x="332.2114" y="440.3173">1</text><text fill="#000000" font-family="sans-serif" font-size="9.1" lengthAdjust="spacing" textLength="3.5" x="420.0276" y="447.3353">*</text></g><!--link Task to Team--><g id="link_Task_Team"><path codeLine="116" d="M474.684,565.6848 C509.915,565.6848 579.355,565.6848 618.17,565.6848 " fill="none" id="Task-Team" style="stroke:#181818;stroke-width:0.6999999999999998;"/><polygon fill="#000000" points="502.6,559.1366,508.9316,561.1939,508.9316,557.0794,502.6,559.1366" style="stroke:#000000;stroke-width:0.6999999999999998;"/><text fill="#000000" font-family="sans-serif" font-size="9.1" lengthAdjust="spacing" textLength="56.7" x="512.4" y="562.9046">is assigned to</text><text fill="#000000" font-family="sans-serif" font-size="9.1" lengthAdjust="spacing" textLength="3.5" x="480.2881" y="576.8955">*</text><text fill="#000000" font-family="sans-serif" font-size="9.1" lengthAdjust="spacing" textLength="4.9" x="607.9281" y="576.5384">1</text></g><!--link Task to Vehicle--><g id="link_Task_Vehicle"><path codeLine="117" d="M474.684,539.6378 C502.614,506.2408 552.041,447.1468 590.66,400.9678 " fill="none" id="Task-Vehicle" style="stroke:#181818;stroke-width:0.6999999999999998;"/><polygon fill="#000000" points="503.8546,426.0214,509.4947,422.4844,506.3385,419.8448,503.8546,426.0214" style="stroke:#000000;stroke-width:0.6999999999999998;"/><text fill="#000000" font-family="sans-serif" font-size="9.1" lengthAdjust="spacing" textLength="56.7" x="512.4" y="427.1046">is assigned to</text><text fill="#000000" font-family="sans-serif" font-size="9.1" lengthAdjust="spacing" textLength="3.5" x="480.2881" y="544.8252">*</text><text fill="#000000" font-family="sans-serif" font-size="9.1" lengthAdjust="spacing" textLength="3.5" x="581.6424" y="417.6876">*</text></g><!--link GreenSpace to Address--><g id="link_GreenSpace_Address"><path codeLine="118" d="M331.506,125.1118 C361.62,122.2348 409.766,118.3848 451.5,118.3848 C451.5,118.3848 451.5,118.3848 957.6,118.3848 C990.164,118.3848 1014.706,146.8328 1030.547,173.5028 " fill="none" id="GreenSpace-Address" style="stroke:#181818;stroke-width:0.6999999999999998;"/><polygon fill="#000000" points="738.1416,112.0783,731.9673,109.5887,731.6831,113.6934,738.1416,112.0783" style="stroke:#000000;stroke-width:0.6999999999999998;"/><text fill="#000000" font-family="sans-serif" font-size="9.1" lengthAdjust="spacing" textLength="27.3" x="740.95" y="115.6046">has an</text><text fill="#000000" font-family="sans-serif" font-size="9.1" lengthAdjust="spacing" textLength="4.9" x="337.1102" y="135.4144">1</text><text fill="#000000" font-family="sans-serif" font-size="9.1" lengthAdjust="spacing" textLength="4.9" x="1022.9834" y="165.7969">1</text></g><!--link Team to Collaborator--><g id="link_Team_Collaborator"><path codeLine="119" d="M675.325,577.2138 C707.728,590.6398 761.355,612.8578 797.02,627.6348 " fill="none" id="Team-Collaborator" style="stroke:#181818;stroke-width:0.6999999999999998;"/><polygon fill="#000000" points="724.0665,591.3969,729.1285,595.721,730.7034,591.9199,724.0665,591.3969" style="stroke:#000000;stroke-width:0.6999999999999998;"/><text fill="#000000" font-family="sans-serif" font-size="9.1" lengthAdjust="spacing" textLength="42" x="733.6" y="596.5046">belongs to</text><text fill="#000000" font-family="sans-serif" font-size="9.1" lengthAdjust="spacing" textLength="4.9" x="680.8424" y="590.1586">1</text><text fill="#000000" font-family="sans-serif" font-size="9.1" lengthAdjust="spacing" textLength="3.5" x="788.3089" y="636.2469">*</text></g><!--link Vehicle to Checkup--><g id="link_Vehicle_Checkup"><path codeLine="120" d="M646.8,412.7908 C646.8,426.2728 646.8,439.3838 646.8,450.1498 " fill="none" id="Vehicle-Checkup" style="stroke:#181818;stroke-width:0.6999999999999998;"/><polygon fill="#000000" points="626.5,435.0616,628.5572,428.7301,624.4428,428.7301,626.5,435.0616" style="stroke:#000000;stroke-width:0.6999999999999998;"/><text fill="#000000" font-family="sans-serif" font-size="9.1" lengthAdjust="spacing" textLength="19.6" x="632.8" y="435.3296">does</text><text fill="#000000" font-family="sans-serif" font-size="9.1" lengthAdjust="spacing" textLength="4.9" x="641.743" y="428.0057">1</text><text fill="#000000" font-family="sans-serif" font-size="9.1" lengthAdjust="spacing" textLength="3.5" x="642.9773" y="442.2184">*</text></g><!--link CheckupList to Vehicle--><g id="link_CheckupList_Vehicle"><path codeLine="121" d="M481.768,363.8678 C505.449,360.1788 539.84,354.6908 569.8,349.3848 C576.576,348.1878 583.681,346.8788 590.709,345.5558 " fill="none" id="CheckupList-Vehicle" style="stroke:#181818;stroke-width:0.6999999999999998;"/><polygon fill="#000000" points="530.5516,342.2564,523.9666,341.2772,524.6486,345.3348,530.5516,342.2564" style="stroke:#000000;stroke-width:0.6999999999999998;"/><text fill="#000000" font-family="sans-serif" font-size="9.1" lengthAdjust="spacing" textLength="14.7" x="533.4" y="346.6046">has</text><text fill="#000000" font-family="sans-serif" font-size="9.1" lengthAdjust="spacing" textLength="4.9" x="487.2711" y="373.9914">1</text><text fill="#000000" font-family="sans-serif" font-size="9.1" lengthAdjust="spacing" textLength="14" x="571.2871" y="356.8349">1..*</text></g><!--link Garden to GreenSpace--><g id="link_Garden_GreenSpace"><path codeLine="122" d="M301.35,58.7308 C301.35,68.7058 301.35,70.2528 301.35,83.1748 " fill="none" id="Garden-to-GreenSpace" style="stroke:#181818;stroke-width:0.6999999999999998;"/><polygon fill="none" points="301.35,95.7748,305.55,83.1748,297.15,83.1748,301.35,95.7748" style="stroke:#181818;stroke-width:0.6999999999999998;"/><text fill="#000000" font-family="sans-serif" font-size="9.1" lengthAdjust="spacing" textLength="44.8" x="270.2" y="81.1296">is a type of</text></g><!--reverse link GreenSpace to MediumPark--><g id="link_GreenSpace_MediumPark"><path codeLine="123" d="M343.26,146.2566 C350.757,149.3086 347.207,147.5748 354.9,149.8848 C377.244,156.5838 403.221,161.5118 422.611,164.6548 " fill="none" id="GreenSpace-backto-MediumPark" style="stroke:#181818;stroke-width:0.6999999999999998;"/><polygon fill="none" points="331.59,141.5058,341.6764,150.1466,344.8436,142.3666,331.59,141.5058" style="stroke:#181818;stroke-width:0.6999999999999998;"/><text fill="#000000" font-family="sans-serif" font-size="9.1" lengthAdjust="spacing" textLength="44.8" x="355.95" y="147.1046">is a type of</text></g><!--reverse link GreenSpace to LargePark--><g id="link_GreenSpace_LargePark"><path codeLine="124" d="M342.6849,105.5951 C350.1889,101.6471 347.165,103.4958 354.9,100.1848 C378.791,89.9578 407.092,80.8578 426.867,74.9638 " fill="none" id="GreenSpace-backto-LargePark" style="stroke:#181818;stroke-width:0.6999999999999998;"/><polygon fill="none" points="331.534,111.4618,344.6404,109.312,340.7293,101.8781,331.534,111.4618" style="stroke:#181818;stroke-width:0.6999999999999998;"/><text fill="#000000" font-family="sans-serif" font-size="9.1" lengthAdjust="spacing" textLength="44.8" x="355.95" y="81.3046">is a type of</text></g><!--link ToDoList to Task--><g id="link_ToDoList_Task"><path codeLine="125" d="M323.491,495.1038 C344.4,499.8988 376.642,508.8798 401.8,522.9848 C411.719,528.5498 421.477,536.2778 429.681,543.6418 " fill="none" id="ToDoList-Task" style="stroke:#181818;stroke-width:0.6999999999999998;"/><polygon fill="#000000" points="355.9168,496.7816,360.8201,501.2848,362.5305,497.5427,355.9168,496.7816" style="stroke:#000000;stroke-width:0.6999999999999998;"/><text fill="#000000" font-family="sans-serif" font-size="9.1" lengthAdjust="spacing" textLength="35" x="365.4" y="502.0046">enters in</text><text fill="#000000" font-family="sans-serif" font-size="9.1" lengthAdjust="spacing" textLength="4.9" x="328.8703" y="507.2212">1</text><text fill="#000000" font-family="sans-serif" font-size="9.1" lengthAdjust="spacing" textLength="3.5" x="420.5688" y="549.7551">*</text></g><!--link Agenda to Task--><g id="link_Agenda_Task"><path codeLine="126" d="M320.677,588.3578 C348.376,583.5558 400.309,574.5538 429.73,569.4578 " fill="none" id="Agenda-Task" style="stroke:#181818;stroke-width:0.6999999999999998;"/><polygon fill="#000000" points="355.6514,568.8343,362.2413,569.7801,361.5387,565.7261,355.6514,568.8343" style="stroke:#000000;stroke-width:0.6999999999999998;"/><text fill="#000000" font-family="sans-serif" font-size="9.1" lengthAdjust="spacing" textLength="35" x="365.4" y="572.0046">enters in</text><text fill="#000000" font-family="sans-serif" font-size="9.1" lengthAdjust="spacing" textLength="4.9" x="326.2574" y="598.9354">1</text><text fill="#000000" font-family="sans-serif" font-size="9.1" lengthAdjust="spacing" textLength="3.5" x="420.6291" y="581.5411">*</text></g><!--link Task to Collaborator--><g id="link_Task_Collaborator"><path codeLine="127" d="M466.039,604.6748 C474.089,623.6868 486.066,645.6738 502.6,660.8848 C533.89,689.6828 549.115,689.5708 590.8,697.9848 C639.597,707.8268 654.017,707.8898 702.8,697.9848 C736.211,691.2018 771.68,675.5708 797.202,662.6558 " fill="none" id="Task-Collaborator" style="stroke:#181818;stroke-width:0.6999999999999998;"/><text fill="#000000" font-family="sans-serif" font-size="9.1" lengthAdjust="spacing" textLength="92.4" x="600.6" y="683.3046">lists assigned between</text><polygon fill="#000000" points="622.7024,691.0367,628.5843,694.1551,629.2939,690.1022,622.7024,691.0367" style="stroke:#000000;stroke-width:0.6999999999999998;"/><text fill="#000000" font-family="sans-serif" font-size="9.1" lengthAdjust="spacing" textLength="39.2" x="631.75" y="695.4083">two dates</text><text fill="#000000" font-family="sans-serif" font-size="9.1" lengthAdjust="spacing" textLength="14" x="452.8725" y="619.9796">0..*</text><text fill="#000000" font-family="sans-serif" font-size="9.1" lengthAdjust="spacing" textLength="4.9" x="786.7757" y="676.1366">1</text></g><!--link Collaborator to Task--><g id="link_Collaborator_Task"><path codeLine="128" d="M797.167,645.0718 C749.203,647.2768 662.298,647.9138 590.8,630.0848 C547.344,619.2488 500.976,594.5318 474.607,579.0618 " fill="none" id="Collaborator-Task" style="stroke:#181818;stroke-width:0.6999999999999998;"/><polygon fill="#000000" points="605.2211,622.8349,611.0116,626.1198,611.8365,622.0888,605.2211,622.8349" style="stroke:#000000;stroke-width:0.6999999999999998;"/><text fill="#000000" font-family="sans-serif" font-size="9.1" lengthAdjust="spacing" textLength="72.8" x="614.95" y="627.3046">mark as complete</text><text fill="#000000" font-family="sans-serif" font-size="9.1" lengthAdjust="spacing" textLength="3.5" x="788.2342" y="656.0798">*</text><text fill="#000000" font-family="sans-serif" font-size="9.1" lengthAdjust="spacing" textLength="3.5" x="480.1933" y="593.366">*</text></g><!--SRC=[ZLLDRzim3BtxLmYv31ZGehiEHO6YmOgkxLOWtNRPHPOOMuW-N4f6bdRxxwCaErRIz2D0OCbwV2GVATglbEquSiECiqwqw0omW3rKVdlISR7Y3Ip2HWD3487RHfS0ttBfriesRCcrX-h3TAILXR3fW3aChQiqB0CBZg5gsi2aYcpAsO9BQExzUGYewZx0bN1seHw1dLIjai24Ga6kqze0CKfVLK452cpk35UMtJe9kgeI3VkE3RVgaKSVxAbYzBFSG5wePNgkeVOgv7TTwonywqqDcFP0bBhwDz8jLahhWcOwkN1QyzeX3mxt_71fbFSKm9mFNcf5McntXtt6bP9p9-v9l6atuBP-lxgwS4UlX_VtmCrU71AyGDKbkUFUGAJoQUq33xsVQ7z2gqZdpD1f2lLAvj2HsxmoIUUu2cE4WMDUDEYy_mMnncalUaImuTga7KAZV03SAi35Gw-e1gL6eWMnwhil20yzMB6vDaLu5_amXoVtJ39o1tX3_fwAQbqYW5rGMyEUHjjKIh4cLS-bHF3-QT2CM4AnB6hOEL9KNv14EJ8LDfcM0a4bmXJAFVUhp9UwEADwvDio3QL9hAWSHgh9sitTVd8_FE0TtJQkzvBhKPSDQmoLP70DVyAkbhodkvNwRESApJxDsD7H4PjzdAN8sMSsSslhsTdi1I0zpnkmahyFcWMEs9PxnkqhwEDZ2c9Azcr-Wa-5Zt3bMHmPWVuWMRrXfw-ObZSy6gyThZnRqkOrg-4Y3Tue7z8U0dFBQBL3MLgbEJEASFOIy2Mz3g3JWsP5mLaeDs9Ibgaj2bmgSpmQME9a6TEXiTP4wMYWdvP8-XZOW_dl6XJLAC8yc5FokXFdRZLgqCusVY0UlMQ3_Ar9LdaSH0Ff84ixJOWfYDHQHUY359SS9TZ8-FViUIjnbhzporbr2rBrvexZYi3z6-0RZWsy4plUzrAAyHvIsMYSC_e4aWB3dNiBzhnLUaAVfFn70qt-YjBL4DOKu6yRrYxD2_-SAFP0KdtNjOb9afJ2cKv3WAXfzHy0]--></g></svg>