<?xml version="1.0" encoding="us-ascii" standalone="no"?><svg xmlns="http://www.w3.org/2000/svg" xmlns:xlink="http://www.w3.org/1999/xlink" contentStyleType="text/css" height="1347px" preserveAspectRatio="none" style="width:1396px;height:1347px;background:#FFFFFF;" version="1.1" viewBox="0 0 1396 1347" width="1396.8px" zoomAndPan="magnify"><defs/><g><text fill="#000000" font-family="sans-serif" font-size="8.4" font-weight="bold" lengthAdjust="spacing" textLength="112.8" x="641.85" y="18.0645">US003 - Sequence Diagram</text><rect fill="#FFFFFF" height="1212.225" style="stroke:#181818;stroke-width:0.6;" width="6" x="19.8" y="79.9453"/><rect fill="#FFFFFF" height="44.9238" style="stroke:#181818;stroke-width:0.6;" width="6" x="250.8" y="93.9199"/><rect fill="#FFFFFF" height="265.4953" style="stroke:#181818;stroke-width:0.6;" width="6" x="250.8" y="157.6184"/><rect fill="#FFFFFF" height="45.3492" style="stroke:#181818;stroke-width:0.6;" width="6" x="250.8" y="441.8883"/><rect fill="#FFFFFF" height="780.7582" style="stroke:#181818;stroke-width:0.6;" width="6" x="250.8" y="506.0121"/><rect fill="#FFFFFF" height="131.4223" style="stroke:#181818;stroke-width:0.6;" width="6" x="448.8" y="272.9168"/><rect fill="#FFFFFF" height="722.4598" style="stroke:#181818;stroke-width:0.6;" width="6" x="448.8" y="545.5359"/><rect fill="#FFFFFF" height="18.7746" style="stroke:#181818;stroke-width:0.6;" width="6" x="547.2" y="291.6914"/><rect fill="#FFFFFF" height="18.7746" style="stroke:#181818;stroke-width:0.6;" width="6" x="611.4" y="329.2406"/><rect fill="#FFFFFF" height="18.7746" style="stroke:#181818;stroke-width:0.6;" width="6" x="678" y="366.7898"/><rect fill="#FFFFFF" height="18.7746" style="stroke:#181818;stroke-width:0.6;" width="6" x="678" y="564.3105"/><rect fill="#FFFFFF" height="585.0375" style="stroke:#181818;stroke-width:0.6;" width="6" x="765" y="664.1836"/><rect fill="none" height="74.4984" style="stroke:#000000;stroke-width:0.8999999999999999;" width="302.1" x="6" y="102.9199"/><line style="stroke:#181818;stroke-width:0.3;stroke-dasharray:5.0,5.0;" x1="22.8" x2="22.8" y1="73.9453" y2="1297.5703"/><line style="stroke:#181818;stroke-width:0.3;stroke-dasharray:5.0,5.0;" x1="253.5" x2="253.5" y1="73.9453" y2="1297.5703"/><line style="stroke:#181818;stroke-width:0.3;stroke-dasharray:5.0,5.0;" x1="451.5" x2="451.5" y1="73.9453" y2="1297.5703"/><line style="stroke:#181818;stroke-width:0.3;stroke-dasharray:5.0,5.0;" x1="549.9" x2="549.9" y1="73.9453" y2="1297.5703"/><line style="stroke:#181818;stroke-width:0.3;stroke-dasharray:5.0,5.0;" x1="614.1" x2="614.1" y1="73.9453" y2="1297.5703"/><line style="stroke:#181818;stroke-width:0.3;stroke-dasharray:5.0,5.0;" x1="680.7" x2="680.7" y1="73.9453" y2="1297.5703"/><line style="stroke:#181818;stroke-width:0.3;stroke-dasharray:5.0,5.0;" x1="767.7" x2="767.7" y1="73.9453" y2="1297.5703"/><line style="stroke:#181818;stroke-width:0.3;stroke-dasharray:5.0,5.0;" x1="994.8" x2="994.8" y1="694.7455" y2="1297.5703"/><line style="stroke:#181818;stroke-width:0.3;stroke-dasharray:5.0,5.0;" x1="1179.9" x2="1179.9" y1="775.343" y2="1297.5703"/><line style="stroke:#181818;stroke-width:0.3;stroke-dasharray:5.0,5.0;" x1="1308.9" x2="1308.9" y1="1012.1379" y2="1297.5703"/><text fill="#000000" font-family="sans-serif" font-size="8.4" lengthAdjust="spacing" textLength="18" x="12" y="71.8371">HRM</text><ellipse cx="22.8" cy="31.8727" fill="#E3E3E3" rx="4.8" ry="4.8" style="stroke:#181818;stroke-width:0.3;"/><path d="M22.8,36.6727 L22.8,52.8727 M15,41.4727 L30.6,41.4727 M22.8,52.8727 L15,61.8727 M22.8,52.8727 L30.6,61.8727 " fill="none" style="stroke:#181818;stroke-width:0.3;"/><text fill="#000000" font-family="sans-serif" font-size="8.4" lengthAdjust="spacing" textLength="18" x="12" y="1306.0348">HRM</text><ellipse cx="22.8" cy="1313.243" fill="#E3E3E3" rx="4.8" ry="4.8" style="stroke:#181818;stroke-width:0.3;"/><path d="M22.8,1318.043 L22.8,1334.243 M15,1322.843 L30.6,1322.843 M22.8,1334.243 L15,1343.243 M22.8,1334.243 L30.6,1343.243 " fill="none" style="stroke:#181818;stroke-width:0.3;"/><rect fill="#E3E3E3" height="19.5727" rx="1.5" ry="1.5" style="stroke:#181818;stroke-width:0.3;" width="96.6" x="205.5" y="53.7727"/><text fill="#000000" font-family="sans-serif" font-size="8.4" lengthAdjust="spacing" textLength="88.2" x="209.7" y="67.0371">:RegisterCollaboratorUI</text><rect fill="#E3E3E3" height="19.5727" rx="1.5" ry="1.5" style="stroke:#181818;stroke-width:0.3;" width="96.6" x="205.5" y="1296.9703"/><text fill="#000000" font-family="sans-serif" font-size="8.4" lengthAdjust="spacing" textLength="88.2" x="209.7" y="1310.2348">:RegisterCollaboratorUI</text><rect fill="#E3E3E3" height="19.5727" rx="1.5" ry="1.5" style="stroke:#181818;stroke-width:0.3;" width="126.6" x="388.5" y="53.7727"/><text fill="#000000" font-family="sans-serif" font-size="8.4" lengthAdjust="spacing" textLength="118.2" x="392.7" y="67.0371">:RegisterCollaboratorController</text><rect fill="#E3E3E3" height="19.5727" rx="1.5" ry="1.5" style="stroke:#181818;stroke-width:0.3;" width="126.6" x="388.5" y="1296.9703"/><text fill="#000000" font-family="sans-serif" font-size="8.4" lengthAdjust="spacing" textLength="118.2" x="392.7" y="1310.2348">:RegisterCollaboratorController</text><rect fill="#E3E3E3" height="19.5727" rx="1.5" ry="1.5" style="stroke:#181818;stroke-width:0.3;" width="58.2" x="521.1" y="53.7727"/><text fill="#000000" font-family="sans-serif" font-size="8.4" lengthAdjust="spacing" textLength="49.8" x="525.3" y="67.0371">:Repositories</text><rect fill="#E3E3E3" height="19.5727" rx="1.5" ry="1.5" style="stroke:#181818;stroke-width:0.3;" width="58.2" x="521.1" y="1296.9703"/><text fill="#000000" font-family="sans-serif" font-size="8.4" lengthAdjust="spacing" textLength="49.8" x="525.3" y="1310.2348">:Repositories</text><rect fill="#E3E3E3" height="30.7453" rx="1.5" ry="1.5" style="stroke:#181818;stroke-width:0.3;" width="58.2" x="585.3" y="42.6"/><text fill="#000000" font-family="sans-serif" font-size="8.4" lengthAdjust="spacing" textLength="44.4" x="592.2" y="55.8645">repositories</text><text fill="#000000" font-family="sans-serif" font-size="8.4" lengthAdjust="spacing" textLength="49.8" x="589.5" y="67.0371">:Repositories</text><rect fill="#E3E3E3" height="30.7453" rx="1.5" ry="1.5" style="stroke:#181818;stroke-width:0.3;" width="58.2" x="585.3" y="1296.9703"/><text fill="#000000" font-family="sans-serif" font-size="8.4" lengthAdjust="spacing" textLength="44.4" x="592.2" y="1310.2348">repositories</text><text fill="#000000" font-family="sans-serif" font-size="8.4" lengthAdjust="spacing" textLength="49.8" x="589.5" y="1321.4074">:Repositories</text><rect fill="#E3E3E3" height="30.7453" rx="1.5" ry="1.5" style="stroke:#181818;stroke-width:0.3;" width="63" x="649.5" y="42.6"/><text fill="#000000" font-family="sans-serif" font-size="8.4" lengthAdjust="spacing" textLength="54.6" x="653.7" y="55.8645">jobRepository:</text><text fill="#000000" font-family="sans-serif" font-size="8.4" lengthAdjust="spacing" textLength="54" x="654" y="67.0371">JobRepository</text><rect fill="#E3E3E3" height="30.7453" rx="1.5" ry="1.5" style="stroke:#181818;stroke-width:0.3;" width="63" x="649.5" y="1296.9703"/><text fill="#000000" font-family="sans-serif" font-size="8.4" lengthAdjust="spacing" textLength="54.6" x="653.7" y="1310.2348">jobRepository:</text><text fill="#000000" font-family="sans-serif" font-size="8.4" lengthAdjust="spacing" textLength="54" x="654" y="1321.4074">JobRepository</text><rect fill="#E3E3E3" height="30.7453" rx="1.5" ry="1.5" style="stroke:#181818;stroke-width:0.3;" width="99" x="718.5" y="42.6"/><text fill="#000000" font-family="sans-serif" font-size="8.4" lengthAdjust="spacing" textLength="88.2" x="722.7" y="55.8645">:collaboratorRepository</text><text fill="#000000" font-family="sans-serif" font-size="8.4" lengthAdjust="spacing" textLength="87.6" x="724.2" y="67.0371">CollaboratorRepository</text><rect fill="#E3E3E3" height="30.7453" rx="1.5" ry="1.5" style="stroke:#181818;stroke-width:0.3;" width="99" x="718.5" y="1296.9703"/><text fill="#000000" font-family="sans-serif" font-size="8.4" lengthAdjust="spacing" textLength="88.2" x="722.7" y="1310.2348">:collaboratorRepository</text><text fill="#000000" font-family="sans-serif" font-size="8.4" lengthAdjust="spacing" textLength="87.6" x="724.2" y="1321.4074">CollaboratorRepository</text><rect fill="#E3E3E3" height="30.7453" rx="1.5" ry="1.5" style="stroke:#181818;stroke-width:0.3;" width="58.2" x="966" y="1296.9703"/><text fill="#000000" font-family="sans-serif" font-size="8.4" lengthAdjust="spacing" textLength="47.4" x="970.2" y="1310.2348">:collaborator</text><text fill="#000000" font-family="sans-serif" font-size="8.4" lengthAdjust="spacing" textLength="46.8" x="971.7" y="1321.4074">Collaborator</text><rect fill="#E3E3E3" height="19.5727" rx="1.5" ry="1.5" style="stroke:#181818;stroke-width:0.3;" width="42" x="1158.9" y="1296.9703"/><text fill="#000000" font-family="sans-serif" font-size="8.4" lengthAdjust="spacing" textLength="33.6" x="1163.1" y="1310.2348">:Address</text><rect fill="#E3E3E3" height="19.5727" rx="1.5" ry="1.5" style="stroke:#181818;stroke-width:0.3;" width="28.8" x="1294.5" y="1296.9703"/><text fill="#000000" font-family="sans-serif" font-size="8.4" lengthAdjust="spacing" textLength="20.4" x="1298.7" y="1310.2348">Email</text><rect fill="#FFFFFF" height="1212.225" style="stroke:#181818;stroke-width:0.6;" width="6" x="19.8" y="79.9453"/><rect fill="#FFFFFF" height="44.9238" style="stroke:#181818;stroke-width:0.6;" width="6" x="250.8" y="93.9199"/><rect fill="#FFFFFF" height="265.4953" style="stroke:#181818;stroke-width:0.6;" width="6" x="250.8" y="157.6184"/><rect fill="#FFFFFF" height="45.3492" style="stroke:#181818;stroke-width:0.6;" width="6" x="250.8" y="441.8883"/><rect fill="#FFFFFF" height="780.7582" style="stroke:#181818;stroke-width:0.6;" width="6" x="250.8" y="506.0121"/><rect fill="#FFFFFF" height="131.4223" style="stroke:#181818;stroke-width:0.6;" width="6" x="448.8" y="272.9168"/><rect fill="#FFFFFF" height="722.4598" style="stroke:#181818;stroke-width:0.6;" width="6" x="448.8" y="545.5359"/><rect fill="#FFFFFF" height="18.7746" style="stroke:#181818;stroke-width:0.6;" width="6" x="547.2" y="291.6914"/><rect fill="#FFFFFF" height="18.7746" style="stroke:#181818;stroke-width:0.6;" width="6" x="611.4" y="329.2406"/><rect fill="#FFFFFF" height="18.7746" style="stroke:#181818;stroke-width:0.6;" width="6" x="678" y="366.7898"/><rect fill="#FFFFFF" height="18.7746" style="stroke:#181818;stroke-width:0.6;" width="6" x="678" y="564.3105"/><rect fill="#FFFFFF" height="585.0375" style="stroke:#181818;stroke-width:0.6;" width="6" x="765" y="664.1836"/><polygon fill="#181818" points="243.6,91.5199,249.6,93.9199,243.6,96.3199,246,93.9199" style="stroke:#181818;stroke-width:0.6;"/><line style="stroke:#181818;stroke-width:0.6;" x1="25.8" x2="247.2" y1="93.9199" y2="93.9199"/><text fill="#000000" font-family="sans-serif" font-size="7.8" font-weight="bold" lengthAdjust="spacing" textLength="4.2" x="30" y="90.7623">1</text><text fill="#000000" font-family="sans-serif" font-size="7.8" lengthAdjust="spacing" textLength="104.4" x="36.6" y="90.7623">Asks to register a collaborator</text><path d="M6,102.9199 L49.8,102.9199 L49.8,108.4945 L43.8,114.4945 L6,114.4945 L6,102.9199 " fill="#EEEEEE" style="stroke:#000000;stroke-width:0.8999999999999999;"/><rect fill="none" height="74.4984" style="stroke:#000000;stroke-width:0.8999999999999999;" width="302.1" x="6" y="102.9199"/><text fill="#000000" font-family="sans-serif" font-size="7.8" font-weight="bold" lengthAdjust="spacing" textLength="16.8" x="15" y="111.9369">loop</text><text fill="#000000" font-family="sans-serif" font-size="6.6" font-weight="bold" lengthAdjust="spacing" textLength="94.2" x="58.8" y="111.242">[until typed data is validated]</text><polygon fill="#181818" points="32.4,136.4438,26.4,138.8438,32.4,141.2438,30,138.8438" style="stroke:#181818;stroke-width:0.6;"/><line style="stroke:#181818;stroke-width:0.6;stroke-dasharray:2.0,2.0;" x1="28.8" x2="253.2" y1="138.8438" y2="138.8438"/><text fill="#000000" font-family="sans-serif" font-size="7.8" font-weight="bold" lengthAdjust="spacing" textLength="4.2" x="36" y="130.4988">2</text><text fill="#000000" font-family="sans-serif" font-size="7.8" lengthAdjust="spacing" textLength="201.6" x="42.6" y="125.3115">Requests data (name, birthdate, admission date, address,</text><text fill="#000000" font-family="sans-serif" font-size="7.8" lengthAdjust="spacing" textLength="171.6" x="42.6" y="135.6861">email,mobile number, id doc type, id doc number)</text><polygon fill="#181818" points="243.6,155.2184,249.6,157.6184,243.6,160.0184,246,157.6184" style="stroke:#181818;stroke-width:0.6;"/><line style="stroke:#181818;stroke-width:0.6;" x1="25.8" x2="247.2" y1="157.6184" y2="157.6184"/><text fill="#000000" font-family="sans-serif" font-size="7.8" font-weight="bold" lengthAdjust="spacing" textLength="4.2" x="30" y="154.4607">3</text><text fill="#000000" font-family="sans-serif" font-size="7.8" lengthAdjust="spacing" textLength="75" x="36.6" y="154.4607">Types requested data</text><line style="stroke:#181818;stroke-width:0.6;stroke-dasharray:2.0,2.0;" x1="256.8" x2="282" y1="231.3422" y2="231.3422"/><line style="stroke:#181818;stroke-width:0.6;stroke-dasharray:2.0,2.0;" x1="282" x2="282" y1="231.3422" y2="239.1422"/><line style="stroke:#181818;stroke-width:0.6;stroke-dasharray:2.0,2.0;" x1="257.4" x2="282" y1="239.1422" y2="239.1422"/><polygon fill="#181818" points="263.4,236.7422,257.4,239.1422,263.4,241.5422,261,239.1422" style="stroke:#181818;stroke-width:0.6;"/><text fill="#000000" font-family="sans-serif" font-size="7.8" font-weight="bold" lengthAdjust="spacing" textLength="4.2" x="261" y="217.81">4</text><text fill="#000000" font-family="sans-serif" font-size="7.8" lengthAdjust="spacing" textLength="129.6" x="267.6" y="207.4354">keepData(name, birthdate, admission</text><text fill="#000000" font-family="sans-serif" font-size="7.8" lengthAdjust="spacing" textLength="126.6" x="267.6" y="217.81">date, address, email,mobile number,</text><text fill="#000000" font-family="sans-serif" font-size="7.8" lengthAdjust="spacing" textLength="94.8" x="267.6" y="228.1846">id doc type, id doc number)</text><polygon fill="#181818" points="441.6,270.5168,447.6,272.9168,441.6,275.3168,444,272.9168" style="stroke:#181818;stroke-width:0.6;"/><line style="stroke:#181818;stroke-width:0.6;" x1="256.8" x2="445.2" y1="272.9168" y2="272.9168"/><text fill="#000000" font-family="sans-serif" font-size="7.8" font-weight="bold" lengthAdjust="spacing" textLength="4.2" x="261" y="269.7592">5</text><text fill="#000000" font-family="sans-serif" font-size="7.8" lengthAdjust="spacing" textLength="40.2" x="267.6" y="269.7592">getJobList()</text><polygon fill="#181818" points="540,289.2914,546,291.6914,540,294.0914,542.4,291.6914" style="stroke:#181818;stroke-width:0.6;"/><line style="stroke:#181818;stroke-width:0.6;" x1="454.8" x2="543.6" y1="291.6914" y2="291.6914"/><text fill="#000000" font-family="sans-serif" font-size="7.8" font-weight="bold" lengthAdjust="spacing" textLength="4.2" x="459" y="288.5338">6</text><text fill="#000000" font-family="sans-serif" font-size="7.8" lengthAdjust="spacing" textLength="45" x="465.6" y="288.5338">getInstance()</text><polygon fill="#181818" points="461.4,308.066,455.4,310.466,461.4,312.866,459,310.466" style="stroke:#181818;stroke-width:0.6;"/><line style="stroke:#181818;stroke-width:0.6;stroke-dasharray:2.0,2.0;" x1="457.8" x2="549.6" y1="310.466" y2="310.466"/><text fill="#000000" font-family="sans-serif" font-size="7.8" font-weight="bold" lengthAdjust="spacing" textLength="4.2" x="465" y="307.3084">7</text><text fill="#000000" font-family="sans-serif" font-size="7.8" lengthAdjust="spacing" textLength="40.2" x="471.6" y="307.3084">repositories</text><polygon fill="#181818" points="604.2,326.8406,610.2,329.2406,604.2,331.6406,606.6,329.2406" style="stroke:#181818;stroke-width:0.6;"/><line style="stroke:#181818;stroke-width:0.6;" x1="454.8" x2="607.8" y1="329.2406" y2="329.2406"/><text fill="#000000" font-family="sans-serif" font-size="7.8" font-weight="bold" lengthAdjust="spacing" textLength="4.2" x="459" y="326.083">8</text><text fill="#000000" font-family="sans-serif" font-size="7.8" lengthAdjust="spacing" textLength="64.8" x="465.6" y="326.083">getJobRepository()</text><polygon fill="#181818" points="461.4,345.6152,455.4,348.0152,461.4,350.4152,459,348.0152" style="stroke:#181818;stroke-width:0.6;"/><line style="stroke:#181818;stroke-width:0.6;stroke-dasharray:2.0,2.0;" x1="457.8" x2="613.8" y1="348.0152" y2="348.0152"/><text fill="#000000" font-family="sans-serif" font-size="7.8" font-weight="bold" lengthAdjust="spacing" textLength="4.2" x="465" y="344.8576">9</text><text fill="#000000" font-family="sans-serif" font-size="7.8" lengthAdjust="spacing" textLength="47.4" x="471.6" y="344.8576">jobRepository</text><polygon fill="#181818" points="670.8,364.3898,676.8,366.7898,670.8,369.1898,673.2,366.7898" style="stroke:#181818;stroke-width:0.6;"/><line style="stroke:#181818;stroke-width:0.6;" x1="454.8" x2="674.4" y1="366.7898" y2="366.7898"/><text fill="#000000" font-family="sans-serif" font-size="7.8" font-weight="bold" lengthAdjust="spacing" textLength="8.4" x="459" y="363.6322">10</text><text fill="#000000" font-family="sans-serif" font-size="7.8" lengthAdjust="spacing" textLength="40.2" x="469.8" y="363.6322">getJobList()</text><polygon fill="#181818" points="461.4,383.1645,455.4,385.5645,461.4,387.9645,459,385.5645" style="stroke:#181818;stroke-width:0.6;"/><line style="stroke:#181818;stroke-width:0.6;stroke-dasharray:2.0,2.0;" x1="457.8" x2="680.4" y1="385.5645" y2="385.5645"/><text fill="#000000" font-family="sans-serif" font-size="7.8" font-weight="bold" lengthAdjust="spacing" textLength="8.4" x="465" y="382.4068">11</text><text fill="#000000" font-family="sans-serif" font-size="7.8" lengthAdjust="spacing" textLength="22.8" x="475.8" y="382.4068">jobList</text><polygon fill="#181818" points="263.4,401.9391,257.4,404.3391,263.4,406.7391,261,404.3391" style="stroke:#181818;stroke-width:0.6;"/><line style="stroke:#181818;stroke-width:0.6;stroke-dasharray:2.0,2.0;" x1="259.8" x2="451.2" y1="404.3391" y2="404.3391"/><text fill="#000000" font-family="sans-serif" font-size="7.8" font-weight="bold" lengthAdjust="spacing" textLength="8.4" x="267" y="401.1814">12</text><text fill="#000000" font-family="sans-serif" font-size="7.8" lengthAdjust="spacing" textLength="22.8" x="277.8" y="401.1814">jobList</text><polygon fill="#181818" points="32.4,420.7137,26.4,423.1137,32.4,425.5137,30,423.1137" style="stroke:#181818;stroke-width:0.6;"/><line style="stroke:#181818;stroke-width:0.6;stroke-dasharray:2.0,2.0;" x1="28.8" x2="253.2" y1="423.1137" y2="423.1137"/><text fill="#000000" font-family="sans-serif" font-size="7.8" font-weight="bold" lengthAdjust="spacing" textLength="8.4" x="36" y="419.9561">13</text><text fill="#000000" font-family="sans-serif" font-size="7.8" lengthAdjust="spacing" textLength="130.2" x="46.8" y="419.9561">Shows job list and asks to select one</text><polygon fill="#181818" points="243.6,439.4883,249.6,441.8883,243.6,444.2883,246,441.8883" style="stroke:#181818;stroke-width:0.6;"/><line style="stroke:#181818;stroke-width:0.6;" x1="25.8" x2="247.2" y1="441.8883" y2="441.8883"/><text fill="#000000" font-family="sans-serif" font-size="7.8" font-weight="bold" lengthAdjust="spacing" textLength="8.4" x="30" y="438.7307">14</text><text fill="#000000" font-family="sans-serif" font-size="7.8" lengthAdjust="spacing" textLength="45.6" x="40.8" y="438.7307">Selects a job</text><line style="stroke:#181818;stroke-width:0.6;stroke-dasharray:2.0,2.0;" x1="256.8" x2="282" y1="460.6629" y2="460.6629"/><line style="stroke:#181818;stroke-width:0.6;stroke-dasharray:2.0,2.0;" x1="282" x2="282" y1="460.6629" y2="468.4629"/><line style="stroke:#181818;stroke-width:0.6;stroke-dasharray:2.0,2.0;" x1="257.4" x2="282" y1="468.4629" y2="468.4629"/><polygon fill="#181818" points="263.4,466.0629,257.4,468.4629,263.4,470.8629,261,468.4629" style="stroke:#181818;stroke-width:0.6;"/><text fill="#000000" font-family="sans-serif" font-size="7.8" font-weight="bold" lengthAdjust="spacing" textLength="8.4" x="261" y="457.5053">15</text><text fill="#000000" font-family="sans-serif" font-size="7.8" lengthAdjust="spacing" textLength="68.4" x="271.8" y="457.5053">keepData(jobName)</text><polygon fill="#181818" points="32.4,484.8375,26.4,487.2375,32.4,489.6375,30,487.2375" style="stroke:#181818;stroke-width:0.6;"/><line style="stroke:#181818;stroke-width:0.6;stroke-dasharray:2.0,2.0;" x1="28.8" x2="253.2" y1="487.2375" y2="487.2375"/><text fill="#000000" font-family="sans-serif" font-size="7.8" font-weight="bold" lengthAdjust="spacing" textLength="8.4" x="36" y="484.0799">16</text><text fill="#000000" font-family="sans-serif" font-size="7.8" lengthAdjust="spacing" textLength="142.8" x="46.8" y="484.0799">Shows all data and requests confirmation</text><polygon fill="#181818" points="243.6,503.6121,249.6,506.0121,243.6,508.4121,246,506.0121" style="stroke:#181818;stroke-width:0.6;"/><line style="stroke:#181818;stroke-width:0.6;" x1="25.8" x2="247.2" y1="506.0121" y2="506.0121"/><text fill="#000000" font-family="sans-serif" font-size="7.8" font-weight="bold" lengthAdjust="spacing" textLength="8.4" x="30" y="502.8545">17</text><text fill="#000000" font-family="sans-serif" font-size="7.8" lengthAdjust="spacing" textLength="48" x="40.8" y="502.8545">Confirms data</text><polygon fill="#181818" points="441.6,543.1359,447.6,545.5359,441.6,547.9359,444,545.5359" style="stroke:#181818;stroke-width:0.6;"/><line style="stroke:#181818;stroke-width:0.6;" x1="256.8" x2="445.2" y1="545.5359" y2="545.5359"/><text fill="#000000" font-family="sans-serif" font-size="7.8" font-weight="bold" lengthAdjust="spacing" textLength="8.4" x="261" y="532.0037">18</text><text fill="#000000" font-family="sans-serif" font-size="7.8" lengthAdjust="spacing" textLength="159.6" x="271.8" y="521.6291">createCollaborator(name, birthdate, admission</text><text fill="#000000" font-family="sans-serif" font-size="7.8" lengthAdjust="spacing" textLength="169.8" x="271.8" y="532.0037">date, address, email,mobile number, id doc type,</text><text fill="#000000" font-family="sans-serif" font-size="7.8" lengthAdjust="spacing" textLength="87" x="271.8" y="542.3783">id doc number, jobName)</text><polygon fill="#181818" points="670.8,561.9105,676.8,564.3105,670.8,566.7105,673.2,564.3105" style="stroke:#181818;stroke-width:0.6;"/><line style="stroke:#181818;stroke-width:0.6;" x1="454.8" x2="674.4" y1="564.3105" y2="564.3105"/><text fill="#000000" font-family="sans-serif" font-size="7.8" font-weight="bold" lengthAdjust="spacing" textLength="8.4" x="459" y="561.1529">19</text><text fill="#000000" font-family="sans-serif" font-size="7.8" lengthAdjust="spacing" textLength="100.2" x="469.8" y="561.1529">getJobByJobName(jobName)</text><polygon fill="#181818" points="461.4,580.6852,455.4,583.0852,461.4,585.4852,459,583.0852" style="stroke:#181818;stroke-width:0.6;"/><line style="stroke:#181818;stroke-width:0.6;stroke-dasharray:2.0,2.0;" x1="457.8" x2="680.4" y1="583.0852" y2="583.0852"/><text fill="#000000" font-family="sans-serif" font-size="7.8" font-weight="bold" lengthAdjust="spacing" textLength="8.4" x="465" y="579.9275">20</text><text fill="#000000" font-family="sans-serif" font-size="7.8" lengthAdjust="spacing" textLength="10.2" x="475.8" y="579.9275">job</text><line style="stroke:#181818;stroke-width:0.6;stroke-dasharray:2.0,2.0;" x1="454.8" x2="480" y1="601.8598" y2="601.8598"/><line style="stroke:#181818;stroke-width:0.6;stroke-dasharray:2.0,2.0;" x1="480" x2="480" y1="601.8598" y2="609.6598"/><line style="stroke:#181818;stroke-width:0.6;stroke-dasharray:2.0,2.0;" x1="455.4" x2="480" y1="609.6598" y2="609.6598"/><polygon fill="#181818" points="461.4,607.2598,455.4,609.6598,461.4,612.0598,459,609.6598" style="stroke:#181818;stroke-width:0.6;"/><text fill="#000000" font-family="sans-serif" font-size="7.8" font-weight="bold" lengthAdjust="spacing" textLength="8.4" x="459" y="598.7021">21</text><text fill="#000000" font-family="sans-serif" font-size="7.8" lengthAdjust="spacing" textLength="10.2" x="469.8" y="598.7021">job</text><polygon fill="#181818" points="757.8,661.7836,763.8,664.1836,757.8,666.5836,760.2,664.1836" style="stroke:#181818;stroke-width:0.6;"/><line style="stroke:#181818;stroke-width:0.6;" x1="454.8" x2="761.4" y1="664.1836" y2="664.1836"/><text fill="#000000" font-family="sans-serif" font-size="7.8" font-weight="bold" lengthAdjust="spacing" textLength="8.4" x="459" y="650.6514">22</text><text fill="#000000" font-family="sans-serif" font-size="7.8" lengthAdjust="spacing" textLength="159.6" x="469.8" y="640.2768">createCollaborator(name, birthdate, admission</text><text fill="#000000" font-family="sans-serif" font-size="7.8" lengthAdjust="spacing" textLength="169.8" x="469.8" y="650.6514">date, address, email,mobile number, id doc type,</text><text fill="#000000" font-family="sans-serif" font-size="7.8" lengthAdjust="spacing" textLength="66.6" x="469.8" y="661.026">id doc number, job)</text><polygon fill="#181818" points="958.8,701.3074,964.8,703.7074,958.8,706.1074,961.2,703.7074" style="stroke:#181818;stroke-width:0.6;"/><line style="stroke:#181818;stroke-width:0.6;" x1="771" x2="962.4" y1="703.7074" y2="703.7074"/><text fill="#000000" font-family="sans-serif" font-size="7.8" font-weight="bold" lengthAdjust="spacing" textLength="8.4" x="775.2" y="690.1752">23</text><text fill="#000000" font-family="sans-serif" font-size="7.8" lengthAdjust="spacing" textLength="159.6" x="786" y="679.8006">createCollaborator(name, birthdate, admission</text><text fill="#000000" font-family="sans-serif" font-size="7.8" lengthAdjust="spacing" textLength="169.8" x="786" y="690.1752">date, address, email,mobile number, id doc type,</text><text fill="#000000" font-family="sans-serif" font-size="7.8" lengthAdjust="spacing" textLength="66.6" x="786" y="700.5498">id doc number, job)</text><rect fill="#E3E3E3" height="30.7453" rx="1.5" ry="1.5" style="stroke:#181818;stroke-width:0.3;" width="58.2" x="966" y="671.1621"/><text fill="#000000" font-family="sans-serif" font-size="8.4" lengthAdjust="spacing" textLength="47.4" x="970.2" y="684.4266">:collaborator</text><text fill="#000000" font-family="sans-serif" font-size="8.4" lengthAdjust="spacing" textLength="46.8" x="971.7" y="695.5992">Collaborator</text><path d="M997.8,711.5074 L997.8,737.9074 L1201.8,737.9074 L1201.8,717.5074 L1195.8,711.5074 L997.8,711.5074 " fill="#FAFAFA" style="stroke:#181818;stroke-width:0.3;"/><path d="M1195.8,711.5074 L1195.8,717.5074 L1201.8,717.5074 L1195.8,711.5074 " fill="#FAFAFA" style="stroke:#181818;stroke-width:0.3;"/><text fill="#000000" font-family="sans-serif" font-size="7.8" lengthAdjust="spacing" textLength="171" x="1001.4" y="722.9244">When creating a collaborator it uses class Email,</text><text fill="#000000" font-family="sans-serif" font-size="7.8" lengthAdjust="spacing" textLength="191.4" x="1001.4" y="733.299">Address and Date to create the object for that attribute.</text><polygon fill="#181818" points="1151.7,767.8313,1157.7,770.2312,1151.7,772.6313,1154.1,770.2312" style="stroke:#181818;stroke-width:0.6;"/><line style="stroke:#181818;stroke-width:0.6;" x1="995.1" x2="1155.3" y1="770.2312" y2="770.2312"/><text fill="#000000" font-family="sans-serif" font-size="7.8" font-weight="bold" lengthAdjust="spacing" textLength="8.4" x="999.3" y="767.0736">24</text><text fill="#000000" font-family="sans-serif" font-size="7.8" lengthAdjust="spacing" textLength="76.8" x="1010.1" y="767.0736">createCreate(address)</text><rect fill="#E3E3E3" height="19.5727" rx="1.5" ry="1.5" style="stroke:#181818;stroke-width:0.3;" width="42" x="1158.9" y="756.2566"/><text fill="#000000" font-family="sans-serif" font-size="8.4" lengthAdjust="spacing" textLength="33.6" x="1163.1" y="769.5211">:Address</text><path d="M1182.6,785.4293 L1182.6,811.8293 L1373.4,811.8293 L1373.4,791.4293 L1367.4,785.4293 L1182.6,785.4293 " fill="#FAFAFA" style="stroke:#181818;stroke-width:0.3;"/><path d="M1367.4,785.4293 L1367.4,791.4293 L1373.4,791.4293 L1367.4,785.4293 " fill="#FAFAFA" style="stroke:#181818;stroke-width:0.3;"/><text fill="#000000" font-family="sans-serif" font-size="7.8" lengthAdjust="spacing" textLength="168.6" x="1186.2" y="796.8463">The Address object constructor is composed by:</text><text fill="#000000" font-family="sans-serif" font-size="7.8" lengthAdjust="spacing" textLength="178.2" x="1186.2" y="807.2209">- street, streetNumber, postalCode, city and district</text><line style="stroke:#181818;stroke-width:0.6;stroke-dasharray:2.0,2.0;" x1="1179.9" x2="1205.1" y1="844.1531" y2="844.1531"/><line style="stroke:#181818;stroke-width:0.6;stroke-dasharray:2.0,2.0;" x1="1205.1" x2="1205.1" y1="844.1531" y2="851.9531"/><line style="stroke:#181818;stroke-width:0.6;stroke-dasharray:2.0,2.0;" x1="1180.5" x2="1205.1" y1="851.9531" y2="851.9531"/><polygon fill="#181818" points="1186.5,849.5531,1180.5,851.9531,1186.5,854.3531,1184.1,851.9531" style="stroke:#181818;stroke-width:0.6;"/><text fill="#000000" font-family="sans-serif" font-size="7.8" font-weight="bold" lengthAdjust="spacing" textLength="8.4" x="1184.1" y="840.9955">25</text><text fill="#000000" font-family="sans-serif" font-size="7.8" lengthAdjust="spacing" textLength="71.4" x="1194.9" y="840.9955">validateStreet(street)</text><line style="stroke:#181818;stroke-width:0.6;stroke-dasharray:2.0,2.0;" x1="1179.9" x2="1205.1" y1="870.7277" y2="870.7277"/><line style="stroke:#181818;stroke-width:0.6;stroke-dasharray:2.0,2.0;" x1="1205.1" x2="1205.1" y1="870.7277" y2="878.5277"/><line style="stroke:#181818;stroke-width:0.6;stroke-dasharray:2.0,2.0;" x1="1180.5" x2="1205.1" y1="878.5277" y2="878.5277"/><polygon fill="#181818" points="1186.5,876.1277,1180.5,878.5277,1186.5,880.9277,1184.1,878.5277" style="stroke:#181818;stroke-width:0.6;"/><text fill="#000000" font-family="sans-serif" font-size="7.8" font-weight="bold" lengthAdjust="spacing" textLength="8.4" x="1184.1" y="867.5701">26</text><text fill="#000000" font-family="sans-serif" font-size="7.8" lengthAdjust="spacing" textLength="104.4" x="1194.9" y="867.5701">validateStreetNumber(number)</text><line style="stroke:#181818;stroke-width:0.6;stroke-dasharray:2.0,2.0;" x1="1179.9" x2="1205.1" y1="897.3023" y2="897.3023"/><line style="stroke:#181818;stroke-width:0.6;stroke-dasharray:2.0,2.0;" x1="1205.1" x2="1205.1" y1="897.3023" y2="905.1023"/><line style="stroke:#181818;stroke-width:0.6;stroke-dasharray:2.0,2.0;" x1="1180.5" x2="1205.1" y1="905.1023" y2="905.1023"/><polygon fill="#181818" points="1186.5,902.7023,1180.5,905.1023,1186.5,907.5023,1184.1,905.1023" style="stroke:#181818;stroke-width:0.6;"/><text fill="#000000" font-family="sans-serif" font-size="7.8" font-weight="bold" lengthAdjust="spacing" textLength="8.4" x="1184.1" y="894.1447">27</text><text fill="#000000" font-family="sans-serif" font-size="7.8" lengthAdjust="spacing" textLength="109.8" x="1194.9" y="894.1447">validatePostalCode(postalCode)</text><line style="stroke:#181818;stroke-width:0.6;stroke-dasharray:2.0,2.0;" x1="1179.9" x2="1205.1" y1="923.877" y2="923.877"/><line style="stroke:#181818;stroke-width:0.6;stroke-dasharray:2.0,2.0;" x1="1205.1" x2="1205.1" y1="923.877" y2="931.677"/><line style="stroke:#181818;stroke-width:0.6;stroke-dasharray:2.0,2.0;" x1="1180.5" x2="1205.1" y1="931.677" y2="931.677"/><polygon fill="#181818" points="1186.5,929.277,1180.5,931.677,1186.5,934.077,1184.1,931.677" style="stroke:#181818;stroke-width:0.6;"/><text fill="#000000" font-family="sans-serif" font-size="7.8" font-weight="bold" lengthAdjust="spacing" textLength="8.4" x="1184.1" y="920.7193">28</text><text fill="#000000" font-family="sans-serif" font-size="7.8" lengthAdjust="spacing" textLength="57" x="1194.9" y="920.7193">validateCity(city)</text><line style="stroke:#181818;stroke-width:0.6;stroke-dasharray:2.0,2.0;" x1="1179.9" x2="1205.1" y1="950.4516" y2="950.4516"/><line style="stroke:#181818;stroke-width:0.6;stroke-dasharray:2.0,2.0;" x1="1205.1" x2="1205.1" y1="950.4516" y2="958.2516"/><line style="stroke:#181818;stroke-width:0.6;stroke-dasharray:2.0,2.0;" x1="1180.5" x2="1205.1" y1="958.2516" y2="958.2516"/><polygon fill="#181818" points="1186.5,955.8516,1180.5,958.2516,1186.5,960.6516,1184.1,958.2516" style="stroke:#181818;stroke-width:0.6;"/><text fill="#000000" font-family="sans-serif" font-size="7.8" font-weight="bold" lengthAdjust="spacing" textLength="8.4" x="1184.1" y="947.2939">29</text><text fill="#000000" font-family="sans-serif" font-size="7.8" lengthAdjust="spacing" textLength="78.6" x="1194.9" y="947.2939">validateDistrict(district)</text><polygon fill="#181818" points="1287.3,1004.6262,1293.3,1007.0262,1287.3,1009.4262,1289.7,1007.0262" style="stroke:#181818;stroke-width:0.6;"/><line style="stroke:#181818;stroke-width:0.6;" x1="995.1" x2="1290.9" y1="1007.0262" y2="1007.0262"/><text fill="#000000" font-family="sans-serif" font-size="7.8" font-weight="bold" lengthAdjust="spacing" textLength="8.4" x="999.3" y="1003.8686">30</text><text fill="#000000" font-family="sans-serif" font-size="7.8" lengthAdjust="spacing" textLength="64.8" x="1010.1" y="1003.8686">createEmail(email)</text><rect fill="#E3E3E3" height="19.5727" rx="1.5" ry="1.5" style="stroke:#181818;stroke-width:0.3;" width="28.8" x="1294.5" y="993.0516"/><text fill="#000000" font-family="sans-serif" font-size="8.4" lengthAdjust="spacing" textLength="20.4" x="1298.7" y="1006.316">Email</text><line style="stroke:#181818;stroke-width:0.6;stroke-dasharray:2.0,2.0;" x1="1308.9" x2="1334.1" y1="1033.1988" y2="1033.1988"/><line style="stroke:#181818;stroke-width:0.6;stroke-dasharray:2.0,2.0;" x1="1334.1" x2="1334.1" y1="1033.1988" y2="1040.9988"/><line style="stroke:#181818;stroke-width:0.6;stroke-dasharray:2.0,2.0;" x1="1309.5" x2="1334.1" y1="1040.9988" y2="1040.9988"/><polygon fill="#181818" points="1315.5,1038.5988,1309.5,1040.9988,1315.5,1043.3988,1313.1,1040.9988" style="stroke:#181818;stroke-width:0.6;"/><text fill="#000000" font-family="sans-serif" font-size="7.8" font-weight="bold" lengthAdjust="spacing" textLength="8.4" x="1313.1" y="1030.0412">31</text><text fill="#000000" font-family="sans-serif" font-size="7.8" lengthAdjust="spacing" textLength="69" x="1323.9" y="1030.0412">validateEmail(email)</text><line style="stroke:#181818;stroke-width:0.6;stroke-dasharray:2.0,2.0;" x1="995.1" x2="1020.3" y1="1059.7734" y2="1059.7734"/><line style="stroke:#181818;stroke-width:0.6;stroke-dasharray:2.0,2.0;" x1="1020.3" x2="1020.3" y1="1059.7734" y2="1067.5734"/><line style="stroke:#181818;stroke-width:0.6;stroke-dasharray:2.0,2.0;" x1="995.7" x2="1020.3" y1="1067.5734" y2="1067.5734"/><polygon fill="#181818" points="1001.7,1065.1734,995.7,1067.5734,1001.7,1069.9734,999.3,1067.5734" style="stroke:#181818;stroke-width:0.6;"/><text fill="#000000" font-family="sans-serif" font-size="7.8" font-weight="bold" lengthAdjust="spacing" textLength="8.4" x="999.3" y="1056.6158">32</text><text fill="#000000" font-family="sans-serif" font-size="7.8" lengthAdjust="spacing" textLength="70.2" x="1010.1" y="1056.6158">validateName(name)</text><line style="stroke:#181818;stroke-width:0.6;stroke-dasharray:2.0,2.0;" x1="995.1" x2="1020.3" y1="1086.348" y2="1086.348"/><line style="stroke:#181818;stroke-width:0.6;stroke-dasharray:2.0,2.0;" x1="1020.3" x2="1020.3" y1="1086.348" y2="1094.148"/><line style="stroke:#181818;stroke-width:0.6;stroke-dasharray:2.0,2.0;" x1="995.7" x2="1020.3" y1="1094.148" y2="1094.148"/><polygon fill="#181818" points="1001.7,1091.748,995.7,1094.148,1001.7,1096.548,999.3,1094.148" style="stroke:#181818;stroke-width:0.6;"/><text fill="#000000" font-family="sans-serif" font-size="7.8" font-weight="bold" lengthAdjust="spacing" textLength="8.4" x="999.3" y="1083.1904">33</text><text fill="#000000" font-family="sans-serif" font-size="7.8" lengthAdjust="spacing" textLength="130.2" x="1010.1" y="1083.1904">validateMobileNumber(mobileNumber)</text><line style="stroke:#181818;stroke-width:0.6;stroke-dasharray:2.0,2.0;" x1="995.1" x2="1020.3" y1="1112.9227" y2="1112.9227"/><line style="stroke:#181818;stroke-width:0.6;stroke-dasharray:2.0,2.0;" x1="1020.3" x2="1020.3" y1="1112.9227" y2="1120.7227"/><line style="stroke:#181818;stroke-width:0.6;stroke-dasharray:2.0,2.0;" x1="995.7" x2="1020.3" y1="1120.7227" y2="1120.7227"/><polygon fill="#181818" points="1001.7,1118.3227,995.7,1120.7227,1001.7,1123.1227,999.3,1120.7227" style="stroke:#181818;stroke-width:0.6;"/><text fill="#000000" font-family="sans-serif" font-size="7.8" font-weight="bold" lengthAdjust="spacing" textLength="8.4" x="999.3" y="1109.765">34</text><text fill="#000000" font-family="sans-serif" font-size="7.8" lengthAdjust="spacing" textLength="103.8" x="1010.1" y="1109.765">validateIdDocType(idDocType)</text><line style="stroke:#181818;stroke-width:0.6;stroke-dasharray:2.0,2.0;" x1="995.1" x2="1020.3" y1="1139.4973" y2="1139.4973"/><line style="stroke:#181818;stroke-width:0.6;stroke-dasharray:2.0,2.0;" x1="1020.3" x2="1020.3" y1="1139.4973" y2="1147.2973"/><line style="stroke:#181818;stroke-width:0.6;stroke-dasharray:2.0,2.0;" x1="995.7" x2="1020.3" y1="1147.2973" y2="1147.2973"/><polygon fill="#181818" points="1001.7,1144.8973,995.7,1147.2973,1001.7,1149.6973,999.3,1147.2973" style="stroke:#181818;stroke-width:0.6;"/><text fill="#000000" font-family="sans-serif" font-size="7.8" font-weight="bold" lengthAdjust="spacing" textLength="8.4" x="999.3" y="1136.3396">35</text><text fill="#000000" font-family="sans-serif" font-size="7.8" lengthAdjust="spacing" textLength="165.6" x="1010.1" y="1136.3396">validateIdDocNumber(idDocNumber, idDocType)</text><line style="stroke:#181818;stroke-width:0.6;stroke-dasharray:2.0,2.0;" x1="771" x2="796.2" y1="1196.0719" y2="1196.0719"/><line style="stroke:#181818;stroke-width:0.6;stroke-dasharray:2.0,2.0;" x1="796.2" x2="796.2" y1="1196.0719" y2="1203.8719"/><line style="stroke:#181818;stroke-width:0.6;stroke-dasharray:2.0,2.0;" x1="771.6" x2="796.2" y1="1203.8719" y2="1203.8719"/><polygon fill="#181818" points="777.6,1201.4719,771.6,1203.8719,777.6,1206.2719,775.2,1203.8719" style="stroke:#181818;stroke-width:0.6;"/><text fill="#000000" font-family="sans-serif" font-size="7.8" font-weight="bold" lengthAdjust="spacing" textLength="8.4" x="775.2" y="1192.9143">36</text><text fill="#000000" font-family="sans-serif" font-size="7.8" lengthAdjust="spacing" textLength="104.4" x="786" y="1192.9143">validateCaborator(collaborator)</text><line style="stroke:#181818;stroke-width:0.6;stroke-dasharray:2.0,2.0;" x1="771" x2="796.2" y1="1222.6465" y2="1222.6465"/><line style="stroke:#181818;stroke-width:0.6;stroke-dasharray:2.0,2.0;" x1="796.2" x2="796.2" y1="1222.6465" y2="1230.4465"/><line style="stroke:#181818;stroke-width:0.6;stroke-dasharray:2.0,2.0;" x1="771.6" x2="796.2" y1="1230.4465" y2="1230.4465"/><polygon fill="#181818" points="777.6,1228.0465,771.6,1230.4465,777.6,1232.8465,775.2,1230.4465" style="stroke:#181818;stroke-width:0.6;"/><text fill="#000000" font-family="sans-serif" font-size="7.8" font-weight="bold" lengthAdjust="spacing" textLength="8.4" x="775.2" y="1219.4889">37</text><text fill="#000000" font-family="sans-serif" font-size="7.8" lengthAdjust="spacing" textLength="120" x="786" y="1219.4889">addToCollaboratorList(collaborator)</text><polygon fill="#181818" points="461.4,1246.8211,455.4,1249.2211,461.4,1251.6211,459,1249.2211" style="stroke:#181818;stroke-width:0.6;"/><line style="stroke:#181818;stroke-width:0.6;stroke-dasharray:2.0,2.0;" x1="457.8" x2="767.4" y1="1249.2211" y2="1249.2211"/><text fill="#000000" font-family="sans-serif" font-size="7.8" font-weight="bold" lengthAdjust="spacing" textLength="8.4" x="465" y="1246.0635">38</text><text fill="#000000" font-family="sans-serif" font-size="7.8" lengthAdjust="spacing" textLength="63.6" x="475.8" y="1246.0635">operation success</text><polygon fill="#181818" points="263.4,1265.5957,257.4,1267.9957,263.4,1270.3957,261,1267.9957" style="stroke:#181818;stroke-width:0.6;"/><line style="stroke:#181818;stroke-width:0.6;stroke-dasharray:2.0,2.0;" x1="259.8" x2="451.2" y1="1267.9957" y2="1267.9957"/><text fill="#000000" font-family="sans-serif" font-size="7.8" font-weight="bold" lengthAdjust="spacing" textLength="8.4" x="267" y="1264.8381">39</text><text fill="#000000" font-family="sans-serif" font-size="7.8" lengthAdjust="spacing" textLength="63.6" x="277.8" y="1264.8381">operation success</text><polygon fill="#181818" points="32.4,1284.3703,26.4,1286.7703,32.4,1289.1703,30,1286.7703" style="stroke:#181818;stroke-width:0.6;"/><line style="stroke:#181818;stroke-width:0.6;stroke-dasharray:2.0,2.0;" x1="28.8" x2="253.2" y1="1286.7703" y2="1286.7703"/><text fill="#000000" font-family="sans-serif" font-size="7.8" font-weight="bold" lengthAdjust="spacing" textLength="8.4" x="36" y="1283.6127">40</text><text fill="#000000" font-family="sans-serif" font-size="7.8" lengthAdjust="spacing" textLength="96" x="46.8" y="1283.6127">Displays operation success</text><!--SRC=[pLTDRziu4BthLmnoaWkxAB2t70faxG9DaNQ3EC5UVA6bYSr68hqatS90VlmEINsG4ktOtGLsTOWbaVFuvkjfeb-us375QgYbaCLMoHh1g3rckblPiUA5RN1f3XM2mi8miQd23NhBIlcJYmqyiqfZbXbkQElJyiE7ts06I_nhZw90M72seVrPnlP6YdszHaNtXP4AhZu_VBq2fe5-Cq8rlE0x9WnSNJ_WXck3QYwhYgsbOhJ_wTPjVhezO-zS2gFe6PMpcJy-t8siTb9psifHkptTYyEIMr-9RMoY0ekL60FStzqynXRVvRf7lLw9B-6piudU31WMWJ_z9bY9UNB1E_h7tSEd-nD00_FMQ61nKvOAjNUhkNT9up-OGPUk3EYY6vXzf8p0DTpe5mr6KgtuR023y5nlq45G4krp9UKEziBm2inXXoMKp33W6dwmYjCzbjxENdJAZ0wpPrvJigYyjD7U81UinYcikJ9RQpK5LjPSQou5jC_EYIcvZpNZrRIMQqxbwWjo2foEbeKZqJtujOaZK698FHkx_qYMcfntj1f7ihJJhw-lVW55sRqOUEamNn1t2y8vuTvA3FnBURSIRxcNOl7HTGtHsA2XChsZhEQJhCz7vvPhhkwrlPmX0IHQokFT2as2Kg0530qxp5GpHZjJqBEUSzYhaLsGo3VFQDsmZTt5eRVA9sdkJWUY9GSGi8jquHYzCKpB9s8nJ52IKYmpqPuOB2Pf8O_HEm7fURPLFCG9CEBAYHfykPK_jRM5Yeo1YPAqo2kCneg-Ho05fbfps9XBjrkJ717Ok25FDnwPVAFUcvpYoAhAgv3bg5fTAgHuvgfcXfeqgI13ddDle1lbECcpor6XaDP3GV-dMX4fOISSxU8e7cU8GBfQVpzyyLXzZF_LqitEgzjasHv3wOHxwAB_wlut-JZIySqW42qwofwg9_tktV-1ixs49CwARxRKry-M6X7xSul2ixDJPZnE03Umr_J5BIgcDNnoB5QYcLLSAovi64Wkl7zWjWXo_TqgnpFPcoqZLJ56yVNUuFjHeCAlOH0x6xZca31uxc_U16MIlU5U0q130t5gAJVSI3SqZU9kFkPMHcggLPedrdP-d06j8Pffy_kj2IbjCQoQov8oKt1pSFwNf9kA5sP49kLQosBM-qVUjLFOqfsM-qCdlsJigUR3eUCyYFlElxntzLAGEGKcjz6vr73H139l8vf8S2gcJYwoOrNaIZQe8VUSktPAuBjLny_VzUmYk-HPljS34oUx8jBnqmPVNNitAQo3XtC1Rik5BEo8dFFsxYBJvcZUtrkHwP0koCSnFGnLlAkOJX13wPcSXK5Qy2X3KNNZsVau_XCaTwZS205wNnJklx0ZdxMKtiTps1ZhiecCsc1NiOC-0ZISR_u6]--></g></svg>