<?xml version="1.0" encoding="us-ascii" standalone="no"?><svg xmlns="http://www.w3.org/2000/svg" xmlns:xlink="http://www.w3.org/1999/xlink" contentStyleType="text/css" height="1067.2px" preserveAspectRatio="none" style="width:1464px;height:1067px;background:#FFFFFF;" version="1.1" viewBox="0 0 1464 1067" width="1464px" zoomAndPan="magnify"><defs/><g><text fill="#000000" font-family="sans-serif" font-size="11.2" font-weight="bold" lengthAdjust="spacing" textLength="150.4" x="655.6" y="24.0859">US003 - Sequence Diagram</text><rect fill="#FFFFFF" height="887.5813" style="stroke:#181818;stroke-width:0.8000000000000002;" width="8" x="26.4" y="106.5938"/><rect fill="#FFFFFF" height="38.8656" style="stroke:#181818;stroke-width:0.8000000000000002;" width="8" x="334.4" y="125.2266"/><rect fill="#FFFFFF" height="308.3938" style="stroke:#181818;stroke-width:0.8000000000000002;" width="8" x="334.4" y="210.1578"/><rect fill="#FFFFFF" height="60.4656" style="stroke:#181818;stroke-width:0.8000000000000002;" width="8" x="334.4" y="543.5844"/><rect fill="#FFFFFF" height="352.2922" style="stroke:#181818;stroke-width:0.8000000000000002;" width="8" x="334.4" y="634.6828"/><rect fill="#FFFFFF" height="175.2297" style="stroke:#181818;stroke-width:0.8000000000000002;" width="8" x="598.4" y="318.2891"/><rect fill="#FFFFFF" height="274.5609" style="stroke:#181818;stroke-width:0.8000000000000002;" width="8" x="598.4" y="687.3813"/><rect fill="#FFFFFF" height="25.0328" style="stroke:#181818;stroke-width:0.8000000000000002;" width="8" x="729.6" y="343.3219"/><rect fill="#FFFFFF" height="25.0328" style="stroke:#181818;stroke-width:0.8000000000000002;" width="8" x="815.2" y="393.3875"/><rect fill="#FFFFFF" height="25.0328" style="stroke:#181818;stroke-width:0.8000000000000002;" width="8" x="904" y="443.4531"/><rect fill="#FFFFFF" height="196.8297" style="stroke:#181818;stroke-width:0.8000000000000002;" width="8" x="993.6" y="740.0797"/><rect fill="none" height="434.3578" style="stroke:#000000;stroke-width:1.2000000000000002;" width="950" x="8" y="176.0922"/><line style="stroke:#181818;stroke-width:0.4000000000000001;stroke-dasharray:5.0,5.0;" x1="30.4" x2="30.4" y1="98.5938" y2="1001.375"/><line style="stroke:#181818;stroke-width:0.4000000000000001;stroke-dasharray:5.0,5.0;" x1="338" x2="338" y1="98.5938" y2="1001.375"/><line style="stroke:#181818;stroke-width:0.4000000000000001;stroke-dasharray:5.0,5.0;" x1="602" x2="602" y1="98.5938" y2="1001.375"/><line style="stroke:#181818;stroke-width:0.4000000000000001;stroke-dasharray:5.0,5.0;" x1="733.2" x2="733.2" y1="98.5938" y2="1001.375"/><line style="stroke:#181818;stroke-width:0.4000000000000001;stroke-dasharray:5.0,5.0;" x1="818.8" x2="818.8" y1="98.5938" y2="1001.375"/><line style="stroke:#181818;stroke-width:0.4000000000000001;stroke-dasharray:5.0,5.0;" x1="907.6" x2="907.6" y1="98.5938" y2="1001.375"/><line style="stroke:#181818;stroke-width:0.4000000000000001;stroke-dasharray:5.0,5.0;" x1="997.2" x2="997.2" y1="98.5938" y2="1001.375"/><line style="stroke:#181818;stroke-width:0.4000000000000001;stroke-dasharray:5.0,5.0;" x1="1300" x2="1300" y1="780.8289" y2="1001.375"/><text fill="#000000" font-family="sans-serif" font-size="11.2" lengthAdjust="spacing" textLength="24" x="16" y="95.7828">HRM</text><ellipse cx="30.4" cy="42.4969" fill="#E3E3E3" rx="6.4" ry="6.4" style="stroke:#181818;stroke-width:0.4000000000000001;"/><path d="M30.4,48.8969 L30.4,70.4969 M20,55.2969 L40.8,55.2969 M30.4,70.4969 L20,82.4969 M30.4,70.4969 L40.8,82.4969 " fill="none" style="stroke:#181818;stroke-width:0.4000000000000001;"/><text fill="#000000" font-family="sans-serif" font-size="11.2" lengthAdjust="spacing" textLength="24" x="16" y="1012.6609">HRM</text><ellipse cx="30.4" cy="1022.2719" fill="#E3E3E3" rx="6.4" ry="6.4" style="stroke:#181818;stroke-width:0.4000000000000001;"/><path d="M30.4,1028.6719 L30.4,1050.2719 M20,1035.0719 L40.8,1035.0719 M30.4,1050.2719 L20,1062.2719 M30.4,1050.2719 L40.8,1062.2719 " fill="none" style="stroke:#181818;stroke-width:0.4000000000000001;"/><rect fill="#E3E3E3" height="26.0969" rx="2" ry="2" style="stroke:#181818;stroke-width:0.4000000000000001;" width="128.8" x="274" y="71.6969"/><text fill="#000000" font-family="sans-serif" font-size="11.2" lengthAdjust="spacing" textLength="117.6" x="279.6" y="89.3828">:RegisterCollaboratorUI</text><rect fill="#E3E3E3" height="26.0969" rx="2" ry="2" style="stroke:#181818;stroke-width:0.4000000000000001;" width="128.8" x="274" y="1000.575"/><text fill="#000000" font-family="sans-serif" font-size="11.2" lengthAdjust="spacing" textLength="117.6" x="279.6" y="1018.2609">:RegisterCollaboratorUI</text><rect fill="#E3E3E3" height="26.0969" rx="2" ry="2" style="stroke:#181818;stroke-width:0.4000000000000001;" width="168.8" x="518" y="71.6969"/><text fill="#000000" font-family="sans-serif" font-size="11.2" lengthAdjust="spacing" textLength="157.6" x="523.6" y="89.3828">:RegisterCollaboratorController</text><rect fill="#E3E3E3" height="26.0969" rx="2" ry="2" style="stroke:#181818;stroke-width:0.4000000000000001;" width="168.8" x="518" y="1000.575"/><text fill="#000000" font-family="sans-serif" font-size="11.2" lengthAdjust="spacing" textLength="157.6" x="523.6" y="1018.2609">:RegisterCollaboratorController</text><rect fill="#E3E3E3" height="26.0969" rx="2" ry="2" style="stroke:#181818;stroke-width:0.4000000000000001;" width="77.6" x="694.8" y="71.6969"/><text fill="#000000" font-family="sans-serif" font-size="11.2" lengthAdjust="spacing" textLength="66.4" x="700.4" y="89.3828">:Repositories</text><rect fill="#E3E3E3" height="26.0969" rx="2" ry="2" style="stroke:#181818;stroke-width:0.4000000000000001;" width="77.6" x="694.8" y="1000.575"/><text fill="#000000" font-family="sans-serif" font-size="11.2" lengthAdjust="spacing" textLength="66.4" x="700.4" y="1018.2609">:Repositories</text><rect fill="#E3E3E3" height="40.9938" rx="2" ry="2" style="stroke:#181818;stroke-width:0.4000000000000001;" width="77.6" x="780.4" y="56.8"/><text fill="#000000" font-family="sans-serif" font-size="11.2" lengthAdjust="spacing" textLength="59.2" x="789.6" y="74.4859">repositories</text><text fill="#000000" font-family="sans-serif" font-size="11.2" lengthAdjust="spacing" textLength="66.4" x="786" y="89.3828">:Repositories</text><rect fill="#E3E3E3" height="40.9938" rx="2" ry="2" style="stroke:#181818;stroke-width:0.4000000000000001;" width="77.6" x="780.4" y="1000.575"/><text fill="#000000" font-family="sans-serif" font-size="11.2" lengthAdjust="spacing" textLength="59.2" x="789.6" y="1018.2609">repositories</text><text fill="#000000" font-family="sans-serif" font-size="11.2" lengthAdjust="spacing" textLength="66.4" x="786" y="1033.1578">:Repositories</text><rect fill="#E3E3E3" height="40.9938" rx="2" ry="2" style="stroke:#181818;stroke-width:0.4000000000000001;" width="84" x="866" y="56.8"/><text fill="#000000" font-family="sans-serif" font-size="11.2" lengthAdjust="spacing" textLength="72.8" x="871.6" y="74.4859">jobRepository:</text><text fill="#000000" font-family="sans-serif" font-size="11.2" lengthAdjust="spacing" textLength="72" x="872" y="89.3828">JobRepository</text><rect fill="#E3E3E3" height="40.9938" rx="2" ry="2" style="stroke:#181818;stroke-width:0.4000000000000001;" width="84" x="866" y="1000.575"/><text fill="#000000" font-family="sans-serif" font-size="11.2" lengthAdjust="spacing" textLength="72.8" x="871.6" y="1018.2609">jobRepository:</text><text fill="#000000" font-family="sans-serif" font-size="11.2" lengthAdjust="spacing" textLength="72" x="872" y="1033.1578">JobRepository</text><rect fill="#E3E3E3" height="40.9938" rx="2" ry="2" style="stroke:#181818;stroke-width:0.4000000000000001;" width="79.2" x="958" y="56.8"/><text fill="#000000" font-family="sans-serif" font-size="11.2" lengthAdjust="spacing" textLength="64.8" x="963.6" y="74.4859">:organization</text><text fill="#000000" font-family="sans-serif" font-size="11.2" lengthAdjust="spacing" textLength="64" x="965.6" y="89.3828">Organization</text><rect fill="#E3E3E3" height="40.9938" rx="2" ry="2" style="stroke:#181818;stroke-width:0.4000000000000001;" width="79.2" x="958" y="1000.575"/><text fill="#000000" font-family="sans-serif" font-size="11.2" lengthAdjust="spacing" textLength="64.8" x="963.6" y="1018.2609">:organization</text><text fill="#000000" font-family="sans-serif" font-size="11.2" lengthAdjust="spacing" textLength="64" x="965.6" y="1033.1578">Organization</text><rect fill="#E3E3E3" height="40.9938" rx="2" ry="2" style="stroke:#181818;stroke-width:0.4000000000000001;" width="77.6" x="1261.6" y="1000.575"/><text fill="#000000" font-family="sans-serif" font-size="11.2" lengthAdjust="spacing" textLength="63.2" x="1267.2" y="1018.2609">:collaborator</text><text fill="#000000" font-family="sans-serif" font-size="11.2" lengthAdjust="spacing" textLength="62.4" x="1269.2" y="1033.1578">Collaborator</text><rect fill="#FFFFFF" height="887.5813" style="stroke:#181818;stroke-width:0.8000000000000002;" width="8" x="26.4" y="106.5938"/><rect fill="#FFFFFF" height="38.8656" style="stroke:#181818;stroke-width:0.8000000000000002;" width="8" x="334.4" y="125.2266"/><rect fill="#FFFFFF" height="308.3938" style="stroke:#181818;stroke-width:0.8000000000000002;" width="8" x="334.4" y="210.1578"/><rect fill="#FFFFFF" height="60.4656" style="stroke:#181818;stroke-width:0.8000000000000002;" width="8" x="334.4" y="543.5844"/><rect fill="#FFFFFF" height="352.2922" style="stroke:#181818;stroke-width:0.8000000000000002;" width="8" x="334.4" y="634.6828"/><rect fill="#FFFFFF" height="175.2297" style="stroke:#181818;stroke-width:0.8000000000000002;" width="8" x="598.4" y="318.2891"/><rect fill="#FFFFFF" height="274.5609" style="stroke:#181818;stroke-width:0.8000000000000002;" width="8" x="598.4" y="687.3813"/><rect fill="#FFFFFF" height="25.0328" style="stroke:#181818;stroke-width:0.8000000000000002;" width="8" x="729.6" y="343.3219"/><rect fill="#FFFFFF" height="25.0328" style="stroke:#181818;stroke-width:0.8000000000000002;" width="8" x="815.2" y="393.3875"/><rect fill="#FFFFFF" height="25.0328" style="stroke:#181818;stroke-width:0.8000000000000002;" width="8" x="904" y="443.4531"/><rect fill="#FFFFFF" height="196.8297" style="stroke:#181818;stroke-width:0.8000000000000002;" width="8" x="993.6" y="740.0797"/><polygon fill="#181818" points="324.8,122.0266,332.8,125.2266,324.8,128.4266,328,125.2266" style="stroke:#181818;stroke-width:0.8000000000000002;"/><line style="stroke:#181818;stroke-width:0.8000000000000002;" x1="34.4" x2="329.6" y1="125.2266" y2="125.2266"/><text fill="#000000" font-family="sans-serif" font-size="10.4" font-weight="bold" lengthAdjust="spacing" textLength="5.6" x="40" y="121.0164">1</text><text fill="#000000" font-family="sans-serif" font-size="10.4" lengthAdjust="spacing" textLength="139.2" x="48.8" y="121.0164">Asks to register a collaborator</text><polygon fill="#181818" points="43.2,160.8922,35.2,164.0922,43.2,167.2922,40,164.0922" style="stroke:#181818;stroke-width:0.8000000000000002;"/><line style="stroke:#181818;stroke-width:0.8000000000000002;stroke-dasharray:2.0,2.0;" x1="38.4" x2="337.6" y1="164.0922" y2="164.0922"/><text fill="#000000" font-family="sans-serif" font-size="10.4" font-weight="bold" lengthAdjust="spacing" textLength="5.6" x="48" y="152.9656">2</text><text fill="#000000" font-family="sans-serif" font-size="10.4" lengthAdjust="spacing" textLength="268.8" x="56.8" y="146.0492">Requests data (name, birthdate, admission date, address,</text><text fill="#000000" font-family="sans-serif" font-size="10.4" lengthAdjust="spacing" textLength="228.8" x="56.8" y="159.882">email,mobile number, id doc type, id doc number)</text><path d="M8,176.0922 L66.4,176.0922 L66.4,183.525 L58.4,191.525 L8,191.525 L8,176.0922 " fill="#EEEEEE" style="stroke:#000000;stroke-width:1.2000000000000002;"/><rect fill="none" height="434.3578" style="stroke:#000000;stroke-width:1.2000000000000002;" width="950" x="8" y="176.0922"/><text fill="#000000" font-family="sans-serif" font-size="10.4" font-weight="bold" lengthAdjust="spacing" textLength="22.4" x="20" y="188.1148">loop</text><text fill="#000000" font-family="sans-serif" font-size="8.8" font-weight="bold" lengthAdjust="spacing" textLength="125.6" x="78.4" y="187.1883">[until typed data is validated]</text><polygon fill="#181818" points="324.8,206.9578,332.8,210.1578,324.8,213.3578,328,210.1578" style="stroke:#181818;stroke-width:0.8000000000000002;"/><line style="stroke:#181818;stroke-width:0.8000000000000002;" x1="34.4" x2="329.6" y1="210.1578" y2="210.1578"/><text fill="#000000" font-family="sans-serif" font-size="10.4" font-weight="bold" lengthAdjust="spacing" textLength="5.6" x="40" y="205.9477">3</text><text fill="#000000" font-family="sans-serif" font-size="10.4" lengthAdjust="spacing" textLength="100" x="48.8" y="205.9477">Types requested data</text><line style="stroke:#181818;stroke-width:0.8000000000000002;stroke-dasharray:2.0,2.0;" x1="342.4" x2="376" y1="262.8563" y2="262.8563"/><line style="stroke:#181818;stroke-width:0.8000000000000002;stroke-dasharray:2.0,2.0;" x1="376" x2="376" y1="262.8563" y2="273.2563"/><line style="stroke:#181818;stroke-width:0.8000000000000002;stroke-dasharray:2.0,2.0;" x1="343.2" x2="376" y1="273.2563" y2="273.2563"/><polygon fill="#181818" points="351.2,270.0563,343.2,273.2563,351.2,276.4563,348,273.2563" style="stroke:#181818;stroke-width:0.8000000000000002;"/><text fill="#000000" font-family="sans-serif" font-size="10.4" font-weight="bold" lengthAdjust="spacing" textLength="5.6" x="348" y="244.8133">4</text><text fill="#000000" font-family="sans-serif" font-size="10.4" lengthAdjust="spacing" textLength="172.8" x="356.8" y="230.9805">keepData(name, birthdate, admission</text><text fill="#000000" font-family="sans-serif" font-size="10.4" lengthAdjust="spacing" textLength="168.8" x="356.8" y="244.8133">date, address, email,mobile number,</text><text fill="#000000" font-family="sans-serif" font-size="10.4" lengthAdjust="spacing" textLength="126.4" x="356.8" y="258.6461">id doc type, id doc number)</text><polygon fill="#181818" points="588.8,315.0891,596.8,318.2891,588.8,321.4891,592,318.2891" style="stroke:#181818;stroke-width:0.8000000000000002;"/><line style="stroke:#181818;stroke-width:0.8000000000000002;" x1="342.4" x2="593.6" y1="318.2891" y2="318.2891"/><text fill="#000000" font-family="sans-serif" font-size="10.4" font-weight="bold" lengthAdjust="spacing" textLength="5.6" x="348" y="314.0789">5</text><text fill="#000000" font-family="sans-serif" font-size="10.4" lengthAdjust="spacing" textLength="53.6" x="356.8" y="314.0789">getJobList()</text><polygon fill="#181818" points="720,340.1219,728,343.3219,720,346.5219,723.2,343.3219" style="stroke:#181818;stroke-width:0.8000000000000002;"/><line style="stroke:#181818;stroke-width:0.8000000000000002;" x1="606.4" x2="724.8" y1="343.3219" y2="343.3219"/><text fill="#000000" font-family="sans-serif" font-size="10.4" font-weight="bold" lengthAdjust="spacing" textLength="5.6" x="612" y="339.1117">6</text><text fill="#000000" font-family="sans-serif" font-size="10.4" lengthAdjust="spacing" textLength="60" x="620.8" y="339.1117">getInstance()</text><polygon fill="#181818" points="615.2,365.1547,607.2,368.3547,615.2,371.5547,612,368.3547" style="stroke:#181818;stroke-width:0.8000000000000002;"/><line style="stroke:#181818;stroke-width:0.8000000000000002;stroke-dasharray:2.0,2.0;" x1="610.4" x2="732.8" y1="368.3547" y2="368.3547"/><text fill="#000000" font-family="sans-serif" font-size="10.4" font-weight="bold" lengthAdjust="spacing" textLength="5.6" x="620" y="364.1445">7</text><text fill="#000000" font-family="sans-serif" font-size="10.4" lengthAdjust="spacing" textLength="53.6" x="628.8" y="364.1445">repositories</text><polygon fill="#181818" points="805.6,390.1875,813.6,393.3875,805.6,396.5875,808.8,393.3875" style="stroke:#181818;stroke-width:0.8000000000000002;"/><line style="stroke:#181818;stroke-width:0.8000000000000002;" x1="606.4" x2="810.4" y1="393.3875" y2="393.3875"/><text fill="#000000" font-family="sans-serif" font-size="10.4" font-weight="bold" lengthAdjust="spacing" textLength="5.6" x="612" y="389.1773">8</text><text fill="#000000" font-family="sans-serif" font-size="10.4" lengthAdjust="spacing" textLength="86.4" x="620.8" y="389.1773">getJobRepository()</text><polygon fill="#181818" points="615.2,415.2203,607.2,418.4203,615.2,421.6203,612,418.4203" style="stroke:#181818;stroke-width:0.8000000000000002;"/><line style="stroke:#181818;stroke-width:0.8000000000000002;stroke-dasharray:2.0,2.0;" x1="610.4" x2="818.4" y1="418.4203" y2="418.4203"/><text fill="#000000" font-family="sans-serif" font-size="10.4" font-weight="bold" lengthAdjust="spacing" textLength="5.6" x="620" y="414.2102">9</text><text fill="#000000" font-family="sans-serif" font-size="10.4" lengthAdjust="spacing" textLength="63.2" x="628.8" y="414.2102">jobRepository</text><polygon fill="#181818" points="894.4,440.2531,902.4,443.4531,894.4,446.6531,897.6,443.4531" style="stroke:#181818;stroke-width:0.8000000000000002;"/><line style="stroke:#181818;stroke-width:0.8000000000000002;" x1="606.4" x2="899.2" y1="443.4531" y2="443.4531"/><text fill="#000000" font-family="sans-serif" font-size="10.4" font-weight="bold" lengthAdjust="spacing" textLength="11.2" x="612" y="439.243">10</text><text fill="#000000" font-family="sans-serif" font-size="10.4" lengthAdjust="spacing" textLength="53.6" x="626.4" y="439.243">getJobList()</text><polygon fill="#181818" points="615.2,465.2859,607.2,468.4859,615.2,471.6859,612,468.4859" style="stroke:#181818;stroke-width:0.8000000000000002;"/><line style="stroke:#181818;stroke-width:0.8000000000000002;stroke-dasharray:2.0,2.0;" x1="610.4" x2="907.2" y1="468.4859" y2="468.4859"/><text fill="#000000" font-family="sans-serif" font-size="10.4" font-weight="bold" lengthAdjust="spacing" textLength="11.2" x="620" y="464.2758">11</text><text fill="#000000" font-family="sans-serif" font-size="10.4" lengthAdjust="spacing" textLength="30.4" x="634.4" y="464.2758">jobList</text><polygon fill="#181818" points="351.2,490.3188,343.2,493.5188,351.2,496.7188,348,493.5188" style="stroke:#181818;stroke-width:0.8000000000000002;"/><line style="stroke:#181818;stroke-width:0.8000000000000002;stroke-dasharray:2.0,2.0;" x1="346.4" x2="601.6" y1="493.5188" y2="493.5188"/><text fill="#000000" font-family="sans-serif" font-size="10.4" font-weight="bold" lengthAdjust="spacing" textLength="11.2" x="356" y="489.3086">12</text><text fill="#000000" font-family="sans-serif" font-size="10.4" lengthAdjust="spacing" textLength="30.4" x="370.4" y="489.3086">jobList</text><polygon fill="#181818" points="43.2,515.3516,35.2,518.5516,43.2,521.7516,40,518.5516" style="stroke:#181818;stroke-width:0.8000000000000002;"/><line style="stroke:#181818;stroke-width:0.8000000000000002;stroke-dasharray:2.0,2.0;" x1="38.4" x2="337.6" y1="518.5516" y2="518.5516"/><text fill="#000000" font-family="sans-serif" font-size="10.4" font-weight="bold" lengthAdjust="spacing" textLength="11.2" x="48" y="514.3414">13</text><text fill="#000000" font-family="sans-serif" font-size="10.4" lengthAdjust="spacing" textLength="173.6" x="62.4" y="514.3414">Shows job list and asks to select one</text><polygon fill="#181818" points="324.8,540.3844,332.8,543.5844,324.8,546.7844,328,543.5844" style="stroke:#181818;stroke-width:0.8000000000000002;"/><line style="stroke:#181818;stroke-width:0.8000000000000002;" x1="34.4" x2="329.6" y1="543.5844" y2="543.5844"/><text fill="#000000" font-family="sans-serif" font-size="10.4" font-weight="bold" lengthAdjust="spacing" textLength="11.2" x="40" y="539.3742">14</text><text fill="#000000" font-family="sans-serif" font-size="10.4" lengthAdjust="spacing" textLength="60.8" x="54.4" y="539.3742">Selects a job</text><line style="stroke:#181818;stroke-width:0.8000000000000002;stroke-dasharray:2.0,2.0;" x1="342.4" x2="376" y1="568.6172" y2="568.6172"/><line style="stroke:#181818;stroke-width:0.8000000000000002;stroke-dasharray:2.0,2.0;" x1="376" x2="376" y1="568.6172" y2="579.0172"/><line style="stroke:#181818;stroke-width:0.8000000000000002;stroke-dasharray:2.0,2.0;" x1="343.2" x2="376" y1="579.0172" y2="579.0172"/><polygon fill="#181818" points="351.2,575.8172,343.2,579.0172,351.2,582.2172,348,579.0172" style="stroke:#181818;stroke-width:0.8000000000000002;"/><text fill="#000000" font-family="sans-serif" font-size="10.4" font-weight="bold" lengthAdjust="spacing" textLength="11.2" x="348" y="564.407">15</text><text fill="#000000" font-family="sans-serif" font-size="10.4" lengthAdjust="spacing" textLength="91.2" x="362.4" y="564.407">keepData(jobName)</text><polygon fill="#181818" points="43.2,600.85,35.2,604.05,43.2,607.25,40,604.05" style="stroke:#181818;stroke-width:0.8000000000000002;"/><line style="stroke:#181818;stroke-width:0.8000000000000002;stroke-dasharray:2.0,2.0;" x1="38.4" x2="337.6" y1="604.05" y2="604.05"/><text fill="#000000" font-family="sans-serif" font-size="10.4" font-weight="bold" lengthAdjust="spacing" textLength="11.2" x="48" y="599.8398">16</text><text fill="#000000" font-family="sans-serif" font-size="10.4" lengthAdjust="spacing" textLength="190.4" x="62.4" y="599.8398">Shows all data and requests confirmation</text><polygon fill="#181818" points="324.8,631.4828,332.8,634.6828,324.8,637.8828,328,634.6828" style="stroke:#181818;stroke-width:0.8000000000000002;"/><line style="stroke:#181818;stroke-width:0.8000000000000002;" x1="34.4" x2="329.6" y1="634.6828" y2="634.6828"/><text fill="#000000" font-family="sans-serif" font-size="10.4" font-weight="bold" lengthAdjust="spacing" textLength="11.2" x="40" y="630.4727">17</text><text fill="#000000" font-family="sans-serif" font-size="10.4" lengthAdjust="spacing" textLength="64" x="54.4" y="630.4727">Confirms data</text><polygon fill="#181818" points="588.8,684.1813,596.8,687.3813,588.8,690.5813,592,687.3813" style="stroke:#181818;stroke-width:0.8000000000000002;"/><line style="stroke:#181818;stroke-width:0.8000000000000002;" x1="342.4" x2="593.6" y1="687.3813" y2="687.3813"/><text fill="#000000" font-family="sans-serif" font-size="10.4" font-weight="bold" lengthAdjust="spacing" textLength="11.2" x="348" y="669.3383">18</text><text fill="#000000" font-family="sans-serif" font-size="10.4" lengthAdjust="spacing" textLength="212.8" x="362.4" y="655.5055">createCollaborator(name, birthdate, admission</text><text fill="#000000" font-family="sans-serif" font-size="10.4" lengthAdjust="spacing" textLength="226.4" x="362.4" y="669.3383">date, address, email,mobile number, id doc type,</text><text fill="#000000" font-family="sans-serif" font-size="10.4" lengthAdjust="spacing" textLength="116" x="362.4" y="683.1711">id doc number, jobName)</text><polygon fill="#181818" points="984,736.8797,992,740.0797,984,743.2797,987.2,740.0797" style="stroke:#181818;stroke-width:0.8000000000000002;"/><line style="stroke:#181818;stroke-width:0.8000000000000002;" x1="606.4" x2="988.8" y1="740.0797" y2="740.0797"/><text fill="#000000" font-family="sans-serif" font-size="10.4" font-weight="bold" lengthAdjust="spacing" textLength="11.2" x="612" y="722.0367">19</text><text fill="#000000" font-family="sans-serif" font-size="10.4" lengthAdjust="spacing" textLength="212.8" x="626.4" y="708.2039">createCollaborator(name, birthdate, admission</text><text fill="#000000" font-family="sans-serif" font-size="10.4" lengthAdjust="spacing" textLength="226.4" x="626.4" y="722.0367">date, address, email,mobile number, id doc type,</text><text fill="#000000" font-family="sans-serif" font-size="10.4" lengthAdjust="spacing" textLength="116" x="626.4" y="735.8695">id doc number, jobName)</text><polygon fill="#181818" points="1252,789.5781,1260,792.7781,1252,795.9781,1255.2,792.7781" style="stroke:#181818;stroke-width:0.8000000000000002;"/><line style="stroke:#181818;stroke-width:0.8000000000000002;" x1="1001.6" x2="1256.8" y1="792.7781" y2="792.7781"/><text fill="#000000" font-family="sans-serif" font-size="10.4" font-weight="bold" lengthAdjust="spacing" textLength="11.2" x="1007.2" y="774.7352">20</text><text fill="#000000" font-family="sans-serif" font-size="10.4" lengthAdjust="spacing" textLength="212.8" x="1021.6" y="760.9023">createCollaborator(name, birthdate, admission</text><text fill="#000000" font-family="sans-serif" font-size="10.4" lengthAdjust="spacing" textLength="226.4" x="1021.6" y="774.7352">date, address, email,mobile number, id doc type,</text><text fill="#000000" font-family="sans-serif" font-size="10.4" lengthAdjust="spacing" textLength="116" x="1021.6" y="788.568">id doc number, jobName)</text><rect fill="#E3E3E3" height="40.9938" rx="2" ry="2" style="stroke:#181818;stroke-width:0.4000000000000001;" width="77.6" x="1261.6" y="749.3844"/><text fill="#000000" font-family="sans-serif" font-size="11.2" lengthAdjust="spacing" textLength="63.2" x="1267.2" y="767.0703">:collaborator</text><text fill="#000000" font-family="sans-serif" font-size="11.2" lengthAdjust="spacing" textLength="62.4" x="1269.2" y="781.9672">Collaborator</text><path d="M1304,803.1781 L1304,838.3781 L1458.4,838.3781 L1458.4,811.1781 L1450.4,803.1781 L1304,803.1781 " fill="#FAFAFA" style="stroke:#181818;stroke-width:0.4000000000000001;"/><path d="M1450.4,803.1781 L1450.4,811.1781 L1458.4,811.1781 L1450.4,803.1781 " fill="#FAFAFA" style="stroke:#181818;stroke-width:0.4000000000000001;"/><text fill="#000000" font-family="sans-serif" font-size="10.4" lengthAdjust="spacing" textLength="110.4" x="1308.8" y="818.4008">Collaborator constructor</text><text fill="#000000" font-family="sans-serif" font-size="10.4" lengthAdjust="spacing" textLength="137.6" x="1308.8" y="832.2336">normally validates arguments.</text><line style="stroke:#181818;stroke-width:0.8000000000000002;" x1="1001.6" x2="1035.2" y1="901.4766" y2="901.4766"/><line style="stroke:#181818;stroke-width:0.8000000000000002;" x1="1035.2" x2="1035.2" y1="901.4766" y2="911.8766"/><line style="stroke:#181818;stroke-width:0.8000000000000002;" x1="1002.4" x2="1035.2" y1="911.8766" y2="911.8766"/><polygon fill="#181818" points="1010.4,908.6766,1002.4,911.8766,1010.4,915.0766,1007.2,911.8766" style="stroke:#181818;stroke-width:0.8000000000000002;"/><text fill="#000000" font-family="sans-serif" font-size="10.4" font-weight="bold" lengthAdjust="spacing" textLength="11.2" x="1007.2" y="897.2664">21</text><text fill="#000000" font-family="sans-serif" font-size="10.4" lengthAdjust="spacing" textLength="160" x="1021.6" y="897.2664">addToCollaboratorList(collaborator)</text><polygon fill="#181818" points="615.2,933.7094,607.2,936.9094,615.2,940.1094,612,936.9094" style="stroke:#181818;stroke-width:0.8000000000000002;"/><line style="stroke:#181818;stroke-width:0.8000000000000002;stroke-dasharray:2.0,2.0;" x1="610.4" x2="996.8" y1="936.9094" y2="936.9094"/><text fill="#000000" font-family="sans-serif" font-size="10.4" font-weight="bold" lengthAdjust="spacing" textLength="11.2" x="620" y="932.6992">22</text><text fill="#000000" font-family="sans-serif" font-size="10.4" lengthAdjust="spacing" textLength="53.6" x="634.4" y="932.6992">collaborator</text><polygon fill="#181818" points="351.2,958.7422,343.2,961.9422,351.2,965.1422,348,961.9422" style="stroke:#181818;stroke-width:0.8000000000000002;"/><line style="stroke:#181818;stroke-width:0.8000000000000002;stroke-dasharray:2.0,2.0;" x1="346.4" x2="601.6" y1="961.9422" y2="961.9422"/><text fill="#000000" font-family="sans-serif" font-size="10.4" font-weight="bold" lengthAdjust="spacing" textLength="11.2" x="356" y="957.732">23</text><text fill="#000000" font-family="sans-serif" font-size="10.4" lengthAdjust="spacing" textLength="53.6" x="370.4" y="957.732">collaborator</text><polygon fill="#181818" points="43.2,983.775,35.2,986.975,43.2,990.175,40,986.975" style="stroke:#181818;stroke-width:0.8000000000000002;"/><line style="stroke:#181818;stroke-width:0.8000000000000002;stroke-dasharray:2.0,2.0;" x1="38.4" x2="337.6" y1="986.975" y2="986.975"/><text fill="#000000" font-family="sans-serif" font-size="10.4" font-weight="bold" lengthAdjust="spacing" textLength="11.2" x="48" y="982.7648">24</text><text fill="#000000" font-family="sans-serif" font-size="10.4" lengthAdjust="spacing" textLength="128" x="62.4" y="982.7648">Displays operation success</text><!--SRC=[pLRFRzem5BxdhtZggLGmLTgDGwMgbRPER4n0RrnCyXey73lpCwsO-iVlsHd19e5MsgM-aDZl-_ZUJuSsKjV2YWegeqs-jgP2S7QB6RKdjSWteiIvsoa4YxaJkbIn0Qr5OLwaBk59AC8iSzAnwUFy-lepZ62ElxUeSuHxAKgsppAnTKPlgnLQViwTiN3nTVRz0WG1_sRCwcGkQw4TN8ndM4foQE-CKc9bh63xnuTW_FZm3jixevtbTxG1SxUOJJgesf1aKuaKRDgDtLnwNrbj2h4HOgcx13ydjuiKySki3gpZfVuMlmTCidEaqDXIQFb7E6aqBFKqUWtOwUpB4IAF8i28E21D6AQJB0HVFWk78UmPyE876DrmP64CjxGXS8PptaGL1CIq3Q2bu6I43RyOFc8MJpRcQ7B-oH4KmWcurAB28QoaTMlUu4THL9B8UxP_BomI3LasLaAgOMLMakkfgPWXo08AauFRrTY-D6U38A30ZYPbJ0rRxQGAiAAH8WcUXPB-Nukkzmis9FOzYFy7wRfyv750RX3hUxO-u-fI7_dQv-bIl-MgNw-lhucAcr3YBAD4npKruTHT3h93RbhreHFQRRy2a0bwwh_XUz34tP-Z9uo1BMTVvoIMVTIZW-QuiH9SbDGt_sFlXk_2DWu7rEMWNtjeskGe44JgaYO-9QzBizUJg3XEKA-aT2OaDYbPAj9Jdf9tXhBHkQ_YOvw88wsSfDddQ_D27WkAmI1qmTEc6IE4YYyFC1fFjMdSVlDWJJnpcEpjKPCs7aD-SEyDpcaKIZLZm6kq-ncL6_qaRHL6QuzCluEwPrhSDJWwCIRwEpItoEVnRFxVaP4CntP-x0yxONd7BE2hvICeJTJwwouvySiBzQ6TJgwkFefYlxHXnLQMQoxz9oylL4jqEtF94Nzo-U-WfTQ6Yq-fNNipSQ7QSbkXTlIfmntF_dDx_sBJv9ATN9XOGPX0ySq-w2U82ZV-33WnQ3f9IiTBByNxPiozf5g97O6fqJRVHBJDSqvSts39_W80]--></g></svg>