<?xml version="1.0" encoding="us-ascii" standalone="no"?><svg xmlns="http://www.w3.org/2000/svg" xmlns:xlink="http://www.w3.org/1999/xlink" contentStyleType="text/css" height="1479.1px" preserveAspectRatio="none" style="width:1629px;height:1479px;background:#FFFFFF;" version="1.1" viewBox="0 0 1629 1479" width="1629.6px" zoomAndPan="magnify"><defs/><g><text fill="#000000" font-family="sans-serif" font-size="9.8" font-weight="bold" lengthAdjust="spacing" textLength="131.6" x="748.825" y="21.0752">US003 - Sequence Diagram</text><rect fill="#FFFFFF" height="1321.9514" style="stroke:#181818;stroke-width:0.6999999999999998;" width="7" x="23.1" y="93.2695"/><rect fill="#FFFFFF" height="52.4111" style="stroke:#181818;stroke-width:0.6999999999999998;" width="7" x="292.6" y="109.5732"/><rect fill="#FFFFFF" height="309.7445" style="stroke:#181818;stroke-width:0.6999999999999998;" width="7" x="292.6" y="183.8881"/><rect fill="#FFFFFF" height="52.9074" style="stroke:#181818;stroke-width:0.6999999999999998;" width="7" x="292.6" y="515.5363"/><rect fill="#FFFFFF" height="818.5734" style="stroke:#181818;stroke-width:0.6999999999999998;" width="7" x="292.6" y="590.3475"/><rect fill="#FFFFFF" height="153.326" style="stroke:#181818;stroke-width:0.6999999999999998;" width="7" x="523.6" y="318.4029"/><rect fill="#FFFFFF" height="750.5586" style="stroke:#181818;stroke-width:0.6999999999999998;" width="7" x="523.6" y="636.4586"/><rect fill="#FFFFFF" height="21.9037" style="stroke:#181818;stroke-width:0.6999999999999998;" width="7" x="638.4" y="340.3066"/><rect fill="#FFFFFF" height="21.9037" style="stroke:#181818;stroke-width:0.6999999999999998;" width="7" x="713.3" y="384.1141"/><rect fill="#FFFFFF" height="21.9037" style="stroke:#181818;stroke-width:0.6999999999999998;" width="7" x="791" y="427.9215"/><rect fill="#FFFFFF" height="682.5437" style="stroke:#181818;stroke-width:0.6999999999999998;" width="7" x="892.5" y="682.5697"/><rect fill="none" height="86.9148" style="stroke:#000000;stroke-width:1.0499999999999998;" width="352.45" x="7" y="120.0732"/><line style="stroke:#181818;stroke-width:0.3499999999999999;stroke-dasharray:5.0,5.0;" x1="26.6" x2="26.6" y1="86.2695" y2="1421.5209"/><line style="stroke:#181818;stroke-width:0.3499999999999999;stroke-dasharray:5.0,5.0;" x1="295.75" x2="295.75" y1="86.2695" y2="1421.5209"/><line style="stroke:#181818;stroke-width:0.3499999999999999;stroke-dasharray:5.0,5.0;" x1="526.75" x2="526.75" y1="86.2695" y2="1421.5209"/><line style="stroke:#181818;stroke-width:0.3499999999999999;stroke-dasharray:5.0,5.0;" x1="641.55" x2="641.55" y1="86.2695" y2="1421.5209"/><line style="stroke:#181818;stroke-width:0.3499999999999999;stroke-dasharray:5.0,5.0;" x1="716.45" x2="716.45" y1="86.2695" y2="1421.5209"/><line style="stroke:#181818;stroke-width:0.3499999999999999;stroke-dasharray:5.0,5.0;" x1="794.15" x2="794.15" y1="86.2695" y2="1421.5209"/><line style="stroke:#181818;stroke-width:0.3499999999999999;stroke-dasharray:5.0,5.0;" x1="895.65" x2="895.65" y1="86.2695" y2="1421.5209"/><line style="stroke:#181818;stroke-width:0.3499999999999999;stroke-dasharray:5.0,5.0;" x1="1160.6" x2="1160.6" y1="718.2253" y2="1421.5209"/><line style="stroke:#181818;stroke-width:0.3499999999999999;stroke-dasharray:5.0,5.0;" x1="1376.55" x2="1376.55" y1="812.2557" y2="1421.5209"/><line style="stroke:#181818;stroke-width:0.3499999999999999;stroke-dasharray:5.0,5.0;" x1="1527.05" x2="1527.05" y1="1088.5164" y2="1421.5209"/><text fill="#000000" font-family="sans-serif" font-size="9.8" lengthAdjust="spacing" textLength="21" x="14" y="83.81">HRM</text><ellipse cx="26.6" cy="37.1848" fill="#E3E3E3" rx="5.6" ry="5.6" style="stroke:#181818;stroke-width:0.3499999999999999;"/><path d="M26.6,42.7848 L26.6,61.6848 M17.5,48.3848 L35.7,48.3848 M26.6,61.6848 L17.5,72.1848 M26.6,61.6848 L35.7,72.1848 " fill="none" style="stroke:#181818;stroke-width:0.3499999999999999;"/><text fill="#000000" font-family="sans-serif" font-size="9.8" lengthAdjust="spacing" textLength="21" x="14" y="1431.3961">HRM</text><ellipse cx="26.6" cy="1439.8057" fill="#E3E3E3" rx="5.6" ry="5.6" style="stroke:#181818;stroke-width:0.3499999999999999;"/><path d="M26.6,1445.4057 L26.6,1464.3057 M17.5,1451.0057 L35.7,1451.0057 M26.6,1464.3057 L17.5,1474.8057 M26.6,1464.3057 L35.7,1474.8057 " fill="none" style="stroke:#181818;stroke-width:0.3499999999999999;"/><rect fill="#E3E3E3" height="22.8348" rx="1.75" ry="1.75" style="stroke:#181818;stroke-width:0.3499999999999999;" width="112.7" x="239.75" y="62.7348"/><text fill="#000000" font-family="sans-serif" font-size="9.8" lengthAdjust="spacing" textLength="102.9" x="244.65" y="78.21">:RegisterCollaboratorUI</text><rect fill="#E3E3E3" height="22.8348" rx="1.75" ry="1.75" style="stroke:#181818;stroke-width:0.3499999999999999;" width="112.7" x="239.75" y="1420.8209"/><text fill="#000000" font-family="sans-serif" font-size="9.8" lengthAdjust="spacing" textLength="102.9" x="244.65" y="1436.2961">:RegisterCollaboratorUI</text><rect fill="#E3E3E3" height="22.8348" rx="1.75" ry="1.75" style="stroke:#181818;stroke-width:0.3499999999999999;" width="147.7" x="453.25" y="62.7348"/><text fill="#000000" font-family="sans-serif" font-size="9.8" lengthAdjust="spacing" textLength="137.9" x="458.15" y="78.21">:RegisterCollaboratorController</text><rect fill="#E3E3E3" height="22.8348" rx="1.75" ry="1.75" style="stroke:#181818;stroke-width:0.3499999999999999;" width="147.7" x="453.25" y="1420.8209"/><text fill="#000000" font-family="sans-serif" font-size="9.8" lengthAdjust="spacing" textLength="137.9" x="458.15" y="1436.2961">:RegisterCollaboratorController</text><rect fill="#E3E3E3" height="22.8348" rx="1.75" ry="1.75" style="stroke:#181818;stroke-width:0.3499999999999999;" width="67.9" x="607.95" y="62.7348"/><text fill="#000000" font-family="sans-serif" font-size="9.8" lengthAdjust="spacing" textLength="58.1" x="612.85" y="78.21">:Repositories</text><rect fill="#E3E3E3" height="22.8348" rx="1.75" ry="1.75" style="stroke:#181818;stroke-width:0.3499999999999999;" width="67.9" x="607.95" y="1420.8209"/><text fill="#000000" font-family="sans-serif" font-size="9.8" lengthAdjust="spacing" textLength="58.1" x="612.85" y="1436.2961">:Repositories</text><rect fill="#E3E3E3" height="35.8695" rx="1.75" ry="1.75" style="stroke:#181818;stroke-width:0.3499999999999999;" width="67.9" x="682.85" y="49.7"/><text fill="#000000" font-family="sans-serif" font-size="9.8" lengthAdjust="spacing" textLength="51.8" x="690.9" y="65.1752">repositories</text><text fill="#000000" font-family="sans-serif" font-size="9.8" lengthAdjust="spacing" textLength="58.1" x="687.75" y="78.21">:Repositories</text><rect fill="#E3E3E3" height="35.8695" rx="1.75" ry="1.75" style="stroke:#181818;stroke-width:0.3499999999999999;" width="67.9" x="682.85" y="1420.8209"/><text fill="#000000" font-family="sans-serif" font-size="9.8" lengthAdjust="spacing" textLength="51.8" x="690.9" y="1436.2961">repositories</text><text fill="#000000" font-family="sans-serif" font-size="9.8" lengthAdjust="spacing" textLength="58.1" x="687.75" y="1449.3309">:Repositories</text><rect fill="#E3E3E3" height="35.8695" rx="1.75" ry="1.75" style="stroke:#181818;stroke-width:0.3499999999999999;" width="73.5" x="757.75" y="49.7"/><text fill="#000000" font-family="sans-serif" font-size="9.8" lengthAdjust="spacing" textLength="63.7" x="762.65" y="65.1752">jobRepository:</text><text fill="#000000" font-family="sans-serif" font-size="9.8" lengthAdjust="spacing" textLength="63" x="763" y="78.21">JobRepository</text><rect fill="#E3E3E3" height="35.8695" rx="1.75" ry="1.75" style="stroke:#181818;stroke-width:0.3499999999999999;" width="73.5" x="757.75" y="1420.8209"/><text fill="#000000" font-family="sans-serif" font-size="9.8" lengthAdjust="spacing" textLength="63.7" x="762.65" y="1436.2961">jobRepository:</text><text fill="#000000" font-family="sans-serif" font-size="9.8" lengthAdjust="spacing" textLength="63" x="763" y="1449.3309">JobRepository</text><rect fill="#E3E3E3" height="35.8695" rx="1.75" ry="1.75" style="stroke:#181818;stroke-width:0.3499999999999999;" width="115.5" x="838.25" y="49.7"/><text fill="#000000" font-family="sans-serif" font-size="9.8" lengthAdjust="spacing" textLength="102.9" x="843.15" y="65.1752">:collaboratorRepository</text><text fill="#000000" font-family="sans-serif" font-size="9.8" lengthAdjust="spacing" textLength="102.2" x="844.9" y="78.21">CollaboratorRepository</text><rect fill="#E3E3E3" height="35.8695" rx="1.75" ry="1.75" style="stroke:#181818;stroke-width:0.3499999999999999;" width="115.5" x="838.25" y="1420.8209"/><text fill="#000000" font-family="sans-serif" font-size="9.8" lengthAdjust="spacing" textLength="102.9" x="843.15" y="1436.2961">:collaboratorRepository</text><text fill="#000000" font-family="sans-serif" font-size="9.8" lengthAdjust="spacing" textLength="102.2" x="844.9" y="1449.3309">CollaboratorRepository</text><rect fill="#E3E3E3" height="35.8695" rx="1.75" ry="1.75" style="stroke:#181818;stroke-width:0.3499999999999999;" width="67.9" x="1127" y="1420.8209"/><text fill="#000000" font-family="sans-serif" font-size="9.8" lengthAdjust="spacing" textLength="55.3" x="1131.9" y="1436.2961">:collaborator</text><text fill="#000000" font-family="sans-serif" font-size="9.8" lengthAdjust="spacing" textLength="54.6" x="1133.65" y="1449.3309">Collaborator</text><rect fill="#E3E3E3" height="22.8348" rx="1.75" ry="1.75" style="stroke:#181818;stroke-width:0.3499999999999999;" width="49" x="1352.05" y="1420.8209"/><text fill="#000000" font-family="sans-serif" font-size="9.8" lengthAdjust="spacing" textLength="39.2" x="1356.95" y="1436.2961">:Address</text><rect fill="#E3E3E3" height="22.8348" rx="1.75" ry="1.75" style="stroke:#181818;stroke-width:0.3499999999999999;" width="33.6" x="1510.25" y="1420.8209"/><text fill="#000000" font-family="sans-serif" font-size="9.8" lengthAdjust="spacing" textLength="23.8" x="1515.15" y="1436.2961">Email</text><rect fill="#FFFFFF" height="1321.9514" style="stroke:#181818;stroke-width:0.6999999999999998;" width="7" x="23.1" y="93.2695"/><rect fill="#FFFFFF" height="52.4111" style="stroke:#181818;stroke-width:0.6999999999999998;" width="7" x="292.6" y="109.5732"/><rect fill="#FFFFFF" height="309.7445" style="stroke:#181818;stroke-width:0.6999999999999998;" width="7" x="292.6" y="183.8881"/><rect fill="#FFFFFF" height="52.9074" style="stroke:#181818;stroke-width:0.6999999999999998;" width="7" x="292.6" y="515.5363"/><rect fill="#FFFFFF" height="818.5734" style="stroke:#181818;stroke-width:0.6999999999999998;" width="7" x="292.6" y="590.3475"/><rect fill="#FFFFFF" height="153.326" style="stroke:#181818;stroke-width:0.6999999999999998;" width="7" x="523.6" y="318.4029"/><rect fill="#FFFFFF" height="750.5586" style="stroke:#181818;stroke-width:0.6999999999999998;" width="7" x="523.6" y="636.4586"/><rect fill="#FFFFFF" height="21.9037" style="stroke:#181818;stroke-width:0.6999999999999998;" width="7" x="638.4" y="340.3066"/><rect fill="#FFFFFF" height="21.9037" style="stroke:#181818;stroke-width:0.6999999999999998;" width="7" x="713.3" y="384.1141"/><rect fill="#FFFFFF" height="21.9037" style="stroke:#181818;stroke-width:0.6999999999999998;" width="7" x="791" y="427.9215"/><rect fill="#FFFFFF" height="682.5437" style="stroke:#181818;stroke-width:0.6999999999999998;" width="7" x="892.5" y="682.5697"/><polygon fill="#181818" points="284.2,106.7732,291.2,109.5732,284.2,112.3732,287,109.5732" style="stroke:#181818;stroke-width:0.6999999999999998;"/><line style="stroke:#181818;stroke-width:0.6999999999999998;" x1="30.1" x2="288.4" y1="109.5732" y2="109.5732"/><text fill="#000000" font-family="sans-serif" font-size="9.1" font-weight="bold" lengthAdjust="spacing" textLength="4.9" x="35" y="105.8894">1</text><text fill="#000000" font-family="sans-serif" font-size="9.1" lengthAdjust="spacing" textLength="121.8" x="42.7" y="105.8894">Asks to register a collaborator</text><path d="M7,120.0732 L58.1,120.0732 L58.1,126.577 L51.1,133.577 L7,133.577 L7,120.0732 " fill="#EEEEEE" style="stroke:#000000;stroke-width:1.0499999999999998;"/><rect fill="none" height="86.9148" style="stroke:#000000;stroke-width:1.0499999999999998;" width="352.45" x="7" y="120.0732"/><text fill="#000000" font-family="sans-serif" font-size="9.1" font-weight="bold" lengthAdjust="spacing" textLength="19.6" x="17.5" y="130.5931">loop</text><text fill="#000000" font-family="sans-serif" font-size="7.7" font-weight="bold" lengthAdjust="spacing" textLength="109.9" x="68.6" y="129.7823">[until typed data is validated]</text><polygon fill="#181818" points="37.8,159.1844,30.8,161.9844,37.8,164.7844,35,161.9844" style="stroke:#181818;stroke-width:0.6999999999999998;"/><line style="stroke:#181818;stroke-width:0.6999999999999998;stroke-dasharray:2.0,2.0;" x1="33.6" x2="295.4" y1="161.9844" y2="161.9844"/><text fill="#000000" font-family="sans-serif" font-size="9.1" font-weight="bold" lengthAdjust="spacing" textLength="4.9" x="42" y="152.2486">2</text><text fill="#000000" font-family="sans-serif" font-size="9.1" lengthAdjust="spacing" textLength="235.2" x="49.7" y="146.1968">Requests data (name, birthdate, admission date, address,</text><text fill="#000000" font-family="sans-serif" font-size="9.1" lengthAdjust="spacing" textLength="200.2" x="49.7" y="158.3005">email,mobile number, id doc type, id doc number)</text><polygon fill="#181818" points="284.2,181.0881,291.2,183.8881,284.2,186.6881,287,183.8881" style="stroke:#181818;stroke-width:0.6999999999999998;"/><line style="stroke:#181818;stroke-width:0.6999999999999998;" x1="30.1" x2="288.4" y1="183.8881" y2="183.8881"/><text fill="#000000" font-family="sans-serif" font-size="9.1" font-weight="bold" lengthAdjust="spacing" textLength="4.9" x="35" y="180.2042">3</text><text fill="#000000" font-family="sans-serif" font-size="9.1" lengthAdjust="spacing" textLength="87.5" x="42.7" y="180.2042">Types requested data</text><line style="stroke:#181818;stroke-width:0.6999999999999998;stroke-dasharray:2.0,2.0;" x1="299.6" x2="329" y1="269.8992" y2="269.8992"/><line style="stroke:#181818;stroke-width:0.6999999999999998;stroke-dasharray:2.0,2.0;" x1="329" x2="329" y1="269.8992" y2="278.9992"/><line style="stroke:#181818;stroke-width:0.6999999999999998;stroke-dasharray:2.0,2.0;" x1="300.3" x2="329" y1="278.9992" y2="278.9992"/><polygon fill="#181818" points="307.3,276.1992,300.3,278.9992,307.3,281.7992,304.5,278.9992" style="stroke:#181818;stroke-width:0.6999999999999998;"/><text fill="#000000" font-family="sans-serif" font-size="9.1" font-weight="bold" lengthAdjust="spacing" textLength="4.9" x="304.5" y="254.1116">4</text><text fill="#000000" font-family="sans-serif" font-size="9.1" lengthAdjust="spacing" textLength="151.2" x="312.2" y="242.0079">keepData(name, birthdate, admission</text><text fill="#000000" font-family="sans-serif" font-size="9.1" lengthAdjust="spacing" textLength="147.7" x="312.2" y="254.1116">date, address, email,mobile number,</text><text fill="#000000" font-family="sans-serif" font-size="9.1" lengthAdjust="spacing" textLength="110.6" x="312.2" y="266.2153">id doc type, id doc number)</text><polygon fill="#181818" points="515.2,315.6029,522.2,318.4029,515.2,321.2029,518,318.4029" style="stroke:#181818;stroke-width:0.6999999999999998;"/><line style="stroke:#181818;stroke-width:0.6999999999999998;" x1="299.6" x2="519.4" y1="318.4029" y2="318.4029"/><text fill="#000000" font-family="sans-serif" font-size="9.1" font-weight="bold" lengthAdjust="spacing" textLength="4.9" x="304.5" y="314.719">5</text><text fill="#000000" font-family="sans-serif" font-size="9.1" lengthAdjust="spacing" textLength="46.9" x="312.2" y="314.719">getJobList()</text><polygon fill="#181818" points="630,337.5066,637,340.3066,630,343.1066,632.8,340.3066" style="stroke:#181818;stroke-width:0.6999999999999998;"/><line style="stroke:#181818;stroke-width:0.6999999999999998;" x1="530.6" x2="634.2" y1="340.3066" y2="340.3066"/><text fill="#000000" font-family="sans-serif" font-size="9.1" font-weight="bold" lengthAdjust="spacing" textLength="4.9" x="535.5" y="336.6228">6</text><text fill="#000000" font-family="sans-serif" font-size="9.1" lengthAdjust="spacing" textLength="52.5" x="543.2" y="336.6228">getInstance()</text><polygon fill="#181818" points="538.3,359.4104,531.3,362.2104,538.3,365.0104,535.5,362.2104" style="stroke:#181818;stroke-width:0.6999999999999998;"/><line style="stroke:#181818;stroke-width:0.6999999999999998;stroke-dasharray:2.0,2.0;" x1="534.1" x2="641.2" y1="362.2104" y2="362.2104"/><text fill="#000000" font-family="sans-serif" font-size="9.1" font-weight="bold" lengthAdjust="spacing" textLength="4.9" x="542.5" y="358.5265">7</text><text fill="#000000" font-family="sans-serif" font-size="9.1" lengthAdjust="spacing" textLength="46.9" x="550.2" y="358.5265">repositories</text><polygon fill="#181818" points="704.9,381.3141,711.9,384.1141,704.9,386.9141,707.7,384.1141" style="stroke:#181818;stroke-width:0.6999999999999998;"/><line style="stroke:#181818;stroke-width:0.6999999999999998;" x1="530.6" x2="709.1" y1="384.1141" y2="384.1141"/><text fill="#000000" font-family="sans-serif" font-size="9.1" font-weight="bold" lengthAdjust="spacing" textLength="4.9" x="535.5" y="380.4302">8</text><text fill="#000000" font-family="sans-serif" font-size="9.1" lengthAdjust="spacing" textLength="75.6" x="543.2" y="380.4302">getJobRepository()</text><polygon fill="#181818" points="538.3,403.2178,531.3,406.0178,538.3,408.8178,535.5,406.0178" style="stroke:#181818;stroke-width:0.6999999999999998;"/><line style="stroke:#181818;stroke-width:0.6999999999999998;stroke-dasharray:2.0,2.0;" x1="534.1" x2="716.1" y1="406.0178" y2="406.0178"/><text fill="#000000" font-family="sans-serif" font-size="9.1" font-weight="bold" lengthAdjust="spacing" textLength="4.9" x="542.5" y="402.3339">9</text><text fill="#000000" font-family="sans-serif" font-size="9.1" lengthAdjust="spacing" textLength="55.3" x="550.2" y="402.3339">jobRepository</text><polygon fill="#181818" points="782.6,425.1215,789.6,427.9215,782.6,430.7215,785.4,427.9215" style="stroke:#181818;stroke-width:0.6999999999999998;"/><line style="stroke:#181818;stroke-width:0.6999999999999998;" x1="530.6" x2="786.8" y1="427.9215" y2="427.9215"/><text fill="#000000" font-family="sans-serif" font-size="9.1" font-weight="bold" lengthAdjust="spacing" textLength="9.8" x="535.5" y="424.2376">10</text><text fill="#000000" font-family="sans-serif" font-size="9.1" lengthAdjust="spacing" textLength="46.9" x="548.1" y="424.2376">getJobList()</text><polygon fill="#181818" points="538.3,447.0252,531.3,449.8252,538.3,452.6252,535.5,449.8252" style="stroke:#181818;stroke-width:0.6999999999999998;"/><line style="stroke:#181818;stroke-width:0.6999999999999998;stroke-dasharray:2.0,2.0;" x1="534.1" x2="793.8" y1="449.8252" y2="449.8252"/><text fill="#000000" font-family="sans-serif" font-size="9.1" font-weight="bold" lengthAdjust="spacing" textLength="9.8" x="542.5" y="446.1413">11</text><text fill="#000000" font-family="sans-serif" font-size="9.1" lengthAdjust="spacing" textLength="26.6" x="555.1" y="446.1413">jobList</text><polygon fill="#181818" points="307.3,468.9289,300.3,471.7289,307.3,474.5289,304.5,471.7289" style="stroke:#181818;stroke-width:0.6999999999999998;"/><line style="stroke:#181818;stroke-width:0.6999999999999998;stroke-dasharray:2.0,2.0;" x1="303.1" x2="526.4" y1="471.7289" y2="471.7289"/><text fill="#000000" font-family="sans-serif" font-size="9.1" font-weight="bold" lengthAdjust="spacing" textLength="9.8" x="311.5" y="468.045">12</text><text fill="#000000" font-family="sans-serif" font-size="9.1" lengthAdjust="spacing" textLength="26.6" x="324.1" y="468.045">jobList</text><polygon fill="#181818" points="37.8,490.8326,30.8,493.6326,37.8,496.4326,35,493.6326" style="stroke:#181818;stroke-width:0.6999999999999998;"/><line style="stroke:#181818;stroke-width:0.6999999999999998;stroke-dasharray:2.0,2.0;" x1="33.6" x2="295.4" y1="493.6326" y2="493.6326"/><text fill="#000000" font-family="sans-serif" font-size="9.1" font-weight="bold" lengthAdjust="spacing" textLength="9.8" x="42" y="489.9487">13</text><text fill="#000000" font-family="sans-serif" font-size="9.1" lengthAdjust="spacing" textLength="151.9" x="54.6" y="489.9487">Shows job list and asks to select one</text><polygon fill="#181818" points="284.2,512.7363,291.2,515.5363,284.2,518.3363,287,515.5363" style="stroke:#181818;stroke-width:0.6999999999999998;"/><line style="stroke:#181818;stroke-width:0.6999999999999998;" x1="30.1" x2="288.4" y1="515.5363" y2="515.5363"/><text fill="#000000" font-family="sans-serif" font-size="9.1" font-weight="bold" lengthAdjust="spacing" textLength="9.8" x="35" y="511.8524">14</text><text fill="#000000" font-family="sans-serif" font-size="9.1" lengthAdjust="spacing" textLength="53.2" x="47.6" y="511.8524">Selects a job</text><line style="stroke:#181818;stroke-width:0.6999999999999998;stroke-dasharray:2.0,2.0;" x1="299.6" x2="329" y1="537.44" y2="537.44"/><line style="stroke:#181818;stroke-width:0.6999999999999998;stroke-dasharray:2.0,2.0;" x1="329" x2="329" y1="537.44" y2="546.54"/><line style="stroke:#181818;stroke-width:0.6999999999999998;stroke-dasharray:2.0,2.0;" x1="300.3" x2="329" y1="546.54" y2="546.54"/><polygon fill="#181818" points="307.3,543.74,300.3,546.54,307.3,549.34,304.5,546.54" style="stroke:#181818;stroke-width:0.6999999999999998;"/><text fill="#000000" font-family="sans-serif" font-size="9.1" font-weight="bold" lengthAdjust="spacing" textLength="9.8" x="304.5" y="533.7562">15</text><text fill="#000000" font-family="sans-serif" font-size="9.1" lengthAdjust="spacing" textLength="72.8" x="317.1" y="533.7562">keepData(Job job)</text><polygon fill="#181818" points="37.8,565.6437,30.8,568.4437,37.8,571.2437,35,568.4437" style="stroke:#181818;stroke-width:0.6999999999999998;"/><line style="stroke:#181818;stroke-width:0.6999999999999998;stroke-dasharray:2.0,2.0;" x1="33.6" x2="295.4" y1="568.4437" y2="568.4437"/><text fill="#000000" font-family="sans-serif" font-size="9.1" font-weight="bold" lengthAdjust="spacing" textLength="9.8" x="42" y="564.7599">16</text><text fill="#000000" font-family="sans-serif" font-size="9.1" lengthAdjust="spacing" textLength="166.6" x="54.6" y="564.7599">Shows all data and requests confirmation</text><polygon fill="#181818" points="284.2,587.5475,291.2,590.3475,284.2,593.1475,287,590.3475" style="stroke:#181818;stroke-width:0.6999999999999998;"/><line style="stroke:#181818;stroke-width:0.6999999999999998;" x1="30.1" x2="288.4" y1="590.3475" y2="590.3475"/><text fill="#000000" font-family="sans-serif" font-size="9.1" font-weight="bold" lengthAdjust="spacing" textLength="9.8" x="35" y="586.6636">17</text><text fill="#000000" font-family="sans-serif" font-size="9.1" lengthAdjust="spacing" textLength="56" x="47.6" y="586.6636">Confirms data</text><polygon fill="#181818" points="515.2,633.6586,522.2,636.4586,515.2,639.2586,518,636.4586" style="stroke:#181818;stroke-width:0.6999999999999998;"/><line style="stroke:#181818;stroke-width:0.6999999999999998;" x1="299.6" x2="519.4" y1="636.4586" y2="636.4586"/><text fill="#000000" font-family="sans-serif" font-size="9.1" font-weight="bold" lengthAdjust="spacing" textLength="9.8" x="304.5" y="620.671">18</text><text fill="#000000" font-family="sans-serif" font-size="9.1" lengthAdjust="spacing" textLength="186.2" x="317.1" y="608.5673">createCollaborator(name, birthdate, admission</text><text fill="#000000" font-family="sans-serif" font-size="9.1" lengthAdjust="spacing" textLength="198.1" x="317.1" y="620.671">date, address, email,mobile number, id doc type,</text><text fill="#000000" font-family="sans-serif" font-size="9.1" lengthAdjust="spacing" textLength="77.7" x="317.1" y="632.7747">id doc number, job)</text><polygon fill="#181818" points="884.1,679.7697,891.1,682.5697,884.1,685.3697,886.9,682.5697" style="stroke:#181818;stroke-width:0.6999999999999998;"/><line style="stroke:#181818;stroke-width:0.6999999999999998;" x1="530.6" x2="888.3" y1="682.5697" y2="682.5697"/><text fill="#000000" font-family="sans-serif" font-size="9.1" font-weight="bold" lengthAdjust="spacing" textLength="9.8" x="535.5" y="666.7821">19</text><text fill="#000000" font-family="sans-serif" font-size="9.1" lengthAdjust="spacing" textLength="186.2" x="548.1" y="654.6784">createCollaborator(name, birthdate, admission</text><text fill="#000000" font-family="sans-serif" font-size="9.1" lengthAdjust="spacing" textLength="198.1" x="548.1" y="666.7821">date, address, email,mobile number, id doc type,</text><text fill="#000000" font-family="sans-serif" font-size="9.1" lengthAdjust="spacing" textLength="77.7" x="548.1" y="678.8858">id doc number, job)</text><polygon fill="#181818" points="1118.6,725.8809,1125.6,728.6809,1118.6,731.4809,1121.4,728.6809" style="stroke:#181818;stroke-width:0.6999999999999998;"/><line style="stroke:#181818;stroke-width:0.6999999999999998;" x1="899.5" x2="1122.8" y1="728.6809" y2="728.6809"/><text fill="#000000" font-family="sans-serif" font-size="9.1" font-weight="bold" lengthAdjust="spacing" textLength="9.8" x="904.4" y="712.8933">20</text><text fill="#000000" font-family="sans-serif" font-size="9.1" lengthAdjust="spacing" textLength="186.2" x="917" y="700.7896">createCollaborator(name, birthdate, admission</text><text fill="#000000" font-family="sans-serif" font-size="9.1" lengthAdjust="spacing" textLength="198.1" x="917" y="712.8933">date, address, email,mobile number, id doc type,</text><text fill="#000000" font-family="sans-serif" font-size="9.1" lengthAdjust="spacing" textLength="77.7" x="917" y="724.997">id doc number, job)</text><rect fill="#E3E3E3" height="35.8695" rx="1.75" ry="1.75" style="stroke:#181818;stroke-width:0.3499999999999999;" width="67.9" x="1127" y="690.7113"/><text fill="#000000" font-family="sans-serif" font-size="9.8" lengthAdjust="spacing" textLength="55.3" x="1131.9" y="706.1865">:collaborator</text><text fill="#000000" font-family="sans-serif" font-size="9.8" lengthAdjust="spacing" textLength="54.6" x="1133.65" y="719.2213">Collaborator</text><path d="M1164.1,737.7809 L1164.1,768.5809 L1402.1,768.5809 L1402.1,744.7809 L1395.1,737.7809 L1164.1,737.7809 " fill="#FAFAFA" style="stroke:#181818;stroke-width:0.3499999999999999;"/><path d="M1395.1,737.7809 L1395.1,744.7809 L1402.1,744.7809 L1395.1,737.7809 " fill="#FAFAFA" style="stroke:#181818;stroke-width:0.3499999999999999;"/><text fill="#000000" font-family="sans-serif" font-size="9.1" lengthAdjust="spacing" textLength="199.5" x="1168.3" y="751.1007">When creating a collaborator it uses class Email,</text><text fill="#000000" font-family="sans-serif" font-size="9.1" lengthAdjust="spacing" textLength="223.3" x="1168.3" y="763.2044">Address and Date to create the object for that attribute.</text><polygon fill="#181818" points="1343.65,803.492,1350.65,806.292,1343.65,809.092,1346.45,806.292" style="stroke:#181818;stroke-width:0.6999999999999998;"/><line style="stroke:#181818;stroke-width:0.6999999999999998;" x1="1160.95" x2="1347.85" y1="806.292" y2="806.292"/><text fill="#000000" font-family="sans-serif" font-size="9.1" font-weight="bold" lengthAdjust="spacing" textLength="9.8" x="1165.85" y="802.6081">21</text><text fill="#000000" font-family="sans-serif" font-size="9.1" lengthAdjust="spacing" textLength="89.6" x="1178.45" y="802.6081">createCreate(address)</text><rect fill="#E3E3E3" height="22.8348" rx="1.75" ry="1.75" style="stroke:#181818;stroke-width:0.3499999999999999;" width="49" x="1352.05" y="789.9883"/><text fill="#000000" font-family="sans-serif" font-size="9.8" lengthAdjust="spacing" textLength="39.2" x="1356.95" y="805.4635">:Address</text><path d="M1379.7,824.023 L1379.7,854.823 L1602.3,854.823 L1602.3,831.023 L1595.3,824.023 L1379.7,824.023 " fill="#FAFAFA" style="stroke:#181818;stroke-width:0.3499999999999999;"/><path d="M1595.3,824.023 L1595.3,831.023 L1602.3,831.023 L1595.3,824.023 " fill="#FAFAFA" style="stroke:#181818;stroke-width:0.3499999999999999;"/><text fill="#000000" font-family="sans-serif" font-size="9.1" lengthAdjust="spacing" textLength="196.7" x="1383.9" y="837.3429">The Address object constructor is composed by:</text><text fill="#000000" font-family="sans-serif" font-size="9.1" lengthAdjust="spacing" textLength="207.9" x="1383.9" y="849.4466">- street, streetNumber, postalCode, city and district</text><line style="stroke:#181818;stroke-width:0.6999999999999998;stroke-dasharray:2.0,2.0;" x1="1376.55" x2="1405.95" y1="892.5342" y2="892.5342"/><line style="stroke:#181818;stroke-width:0.6999999999999998;stroke-dasharray:2.0,2.0;" x1="1405.95" x2="1405.95" y1="892.5342" y2="901.6342"/><line style="stroke:#181818;stroke-width:0.6999999999999998;stroke-dasharray:2.0,2.0;" x1="1377.25" x2="1405.95" y1="901.6342" y2="901.6342"/><polygon fill="#181818" points="1384.25,898.8342,1377.25,901.6342,1384.25,904.4342,1381.45,901.6342" style="stroke:#181818;stroke-width:0.6999999999999998;"/><text fill="#000000" font-family="sans-serif" font-size="9.1" font-weight="bold" lengthAdjust="spacing" textLength="9.8" x="1381.45" y="888.8503">22</text><text fill="#000000" font-family="sans-serif" font-size="9.1" lengthAdjust="spacing" textLength="83.3" x="1394.05" y="888.8503">validateStreet(street)</text><line style="stroke:#181818;stroke-width:0.6999999999999998;stroke-dasharray:2.0,2.0;" x1="1376.55" x2="1405.95" y1="923.5379" y2="923.5379"/><line style="stroke:#181818;stroke-width:0.6999999999999998;stroke-dasharray:2.0,2.0;" x1="1405.95" x2="1405.95" y1="923.5379" y2="932.6379"/><line style="stroke:#181818;stroke-width:0.6999999999999998;stroke-dasharray:2.0,2.0;" x1="1377.25" x2="1405.95" y1="932.6379" y2="932.6379"/><polygon fill="#181818" points="1384.25,929.8379,1377.25,932.6379,1384.25,935.4379,1381.45,932.6379" style="stroke:#181818;stroke-width:0.6999999999999998;"/><text fill="#000000" font-family="sans-serif" font-size="9.1" font-weight="bold" lengthAdjust="spacing" textLength="9.8" x="1381.45" y="919.854">23</text><text fill="#000000" font-family="sans-serif" font-size="9.1" lengthAdjust="spacing" textLength="121.8" x="1394.05" y="919.854">validateStreetNumber(number)</text><line style="stroke:#181818;stroke-width:0.6999999999999998;stroke-dasharray:2.0,2.0;" x1="1376.55" x2="1405.95" y1="954.5416" y2="954.5416"/><line style="stroke:#181818;stroke-width:0.6999999999999998;stroke-dasharray:2.0,2.0;" x1="1405.95" x2="1405.95" y1="954.5416" y2="963.6416"/><line style="stroke:#181818;stroke-width:0.6999999999999998;stroke-dasharray:2.0,2.0;" x1="1377.25" x2="1405.95" y1="963.6416" y2="963.6416"/><polygon fill="#181818" points="1384.25,960.8416,1377.25,963.6416,1384.25,966.4416,1381.45,963.6416" style="stroke:#181818;stroke-width:0.6999999999999998;"/><text fill="#000000" font-family="sans-serif" font-size="9.1" font-weight="bold" lengthAdjust="spacing" textLength="9.8" x="1381.45" y="950.8577">24</text><text fill="#000000" font-family="sans-serif" font-size="9.1" lengthAdjust="spacing" textLength="128.1" x="1394.05" y="950.8577">validatePostalCode(postalCode)</text><line style="stroke:#181818;stroke-width:0.6999999999999998;stroke-dasharray:2.0,2.0;" x1="1376.55" x2="1405.95" y1="985.5453" y2="985.5453"/><line style="stroke:#181818;stroke-width:0.6999999999999998;stroke-dasharray:2.0,2.0;" x1="1405.95" x2="1405.95" y1="985.5453" y2="994.6453"/><line style="stroke:#181818;stroke-width:0.6999999999999998;stroke-dasharray:2.0,2.0;" x1="1377.25" x2="1405.95" y1="994.6453" y2="994.6453"/><polygon fill="#181818" points="1384.25,991.8453,1377.25,994.6453,1384.25,997.4453,1381.45,994.6453" style="stroke:#181818;stroke-width:0.6999999999999998;"/><text fill="#000000" font-family="sans-serif" font-size="9.1" font-weight="bold" lengthAdjust="spacing" textLength="9.8" x="1381.45" y="981.8614">25</text><text fill="#000000" font-family="sans-serif" font-size="9.1" lengthAdjust="spacing" textLength="66.5" x="1394.05" y="981.8614">validateCity(city)</text><line style="stroke:#181818;stroke-width:0.6999999999999998;stroke-dasharray:2.0,2.0;" x1="1376.55" x2="1405.95" y1="1016.549" y2="1016.549"/><line style="stroke:#181818;stroke-width:0.6999999999999998;stroke-dasharray:2.0,2.0;" x1="1405.95" x2="1405.95" y1="1016.549" y2="1025.649"/><line style="stroke:#181818;stroke-width:0.6999999999999998;stroke-dasharray:2.0,2.0;" x1="1377.25" x2="1405.95" y1="1025.649" y2="1025.649"/><polygon fill="#181818" points="1384.25,1022.849,1377.25,1025.649,1384.25,1028.449,1381.45,1025.649" style="stroke:#181818;stroke-width:0.6999999999999998;"/><text fill="#000000" font-family="sans-serif" font-size="9.1" font-weight="bold" lengthAdjust="spacing" textLength="9.8" x="1381.45" y="1012.8651">26</text><text fill="#000000" font-family="sans-serif" font-size="9.1" lengthAdjust="spacing" textLength="91.7" x="1394.05" y="1012.8651">validateDistrict(district)</text><polygon fill="#181818" points="1501.85,1079.7527,1508.85,1082.5527,1501.85,1085.3527,1504.65,1082.5527" style="stroke:#181818;stroke-width:0.6999999999999998;"/><line style="stroke:#181818;stroke-width:0.6999999999999998;" x1="1160.95" x2="1506.05" y1="1082.5527" y2="1082.5527"/><text fill="#000000" font-family="sans-serif" font-size="9.1" font-weight="bold" lengthAdjust="spacing" textLength="9.8" x="1165.85" y="1078.8688">27</text><text fill="#000000" font-family="sans-serif" font-size="9.1" lengthAdjust="spacing" textLength="75.6" x="1178.45" y="1078.8688">createEmail(email)</text><rect fill="#E3E3E3" height="22.8348" rx="1.75" ry="1.75" style="stroke:#181818;stroke-width:0.3499999999999999;" width="33.6" x="1510.25" y="1066.249"/><text fill="#000000" font-family="sans-serif" font-size="9.8" lengthAdjust="spacing" textLength="23.8" x="1515.15" y="1081.7242">Email</text><line style="stroke:#181818;stroke-width:0.6999999999999998;stroke-dasharray:2.0,2.0;" x1="1527.05" x2="1556.45" y1="1113.0875" y2="1113.0875"/><line style="stroke:#181818;stroke-width:0.6999999999999998;stroke-dasharray:2.0,2.0;" x1="1556.45" x2="1556.45" y1="1113.0875" y2="1122.1875"/><line style="stroke:#181818;stroke-width:0.6999999999999998;stroke-dasharray:2.0,2.0;" x1="1527.75" x2="1556.45" y1="1122.1875" y2="1122.1875"/><polygon fill="#181818" points="1534.75,1119.3875,1527.75,1122.1875,1534.75,1124.9875,1531.95,1122.1875" style="stroke:#181818;stroke-width:0.6999999999999998;"/><text fill="#000000" font-family="sans-serif" font-size="9.1" font-weight="bold" lengthAdjust="spacing" textLength="9.8" x="1531.95" y="1109.4036">28</text><text fill="#000000" font-family="sans-serif" font-size="9.1" lengthAdjust="spacing" textLength="80.5" x="1544.55" y="1109.4036">validateEmail(email)</text><line style="stroke:#181818;stroke-width:0.6999999999999998;stroke-dasharray:2.0,2.0;" x1="1160.95" x2="1190.35" y1="1144.0912" y2="1144.0912"/><line style="stroke:#181818;stroke-width:0.6999999999999998;stroke-dasharray:2.0,2.0;" x1="1190.35" x2="1190.35" y1="1144.0912" y2="1153.1912"/><line style="stroke:#181818;stroke-width:0.6999999999999998;stroke-dasharray:2.0,2.0;" x1="1161.65" x2="1190.35" y1="1153.1912" y2="1153.1912"/><polygon fill="#181818" points="1168.65,1150.3912,1161.65,1153.1912,1168.65,1155.9912,1165.85,1153.1912" style="stroke:#181818;stroke-width:0.6999999999999998;"/><text fill="#000000" font-family="sans-serif" font-size="9.1" font-weight="bold" lengthAdjust="spacing" textLength="9.8" x="1165.85" y="1140.4073">29</text><text fill="#000000" font-family="sans-serif" font-size="9.1" lengthAdjust="spacing" textLength="81.9" x="1178.45" y="1140.4073">validateName(name)</text><line style="stroke:#181818;stroke-width:0.6999999999999998;stroke-dasharray:2.0,2.0;" x1="1160.95" x2="1190.35" y1="1175.0949" y2="1175.0949"/><line style="stroke:#181818;stroke-width:0.6999999999999998;stroke-dasharray:2.0,2.0;" x1="1190.35" x2="1190.35" y1="1175.0949" y2="1184.1949"/><line style="stroke:#181818;stroke-width:0.6999999999999998;stroke-dasharray:2.0,2.0;" x1="1161.65" x2="1190.35" y1="1184.1949" y2="1184.1949"/><polygon fill="#181818" points="1168.65,1181.3949,1161.65,1184.1949,1168.65,1186.9949,1165.85,1184.1949" style="stroke:#181818;stroke-width:0.6999999999999998;"/><text fill="#000000" font-family="sans-serif" font-size="9.1" font-weight="bold" lengthAdjust="spacing" textLength="9.8" x="1165.85" y="1171.411">30</text><text fill="#000000" font-family="sans-serif" font-size="9.1" lengthAdjust="spacing" textLength="151.9" x="1178.45" y="1171.411">validateMobileNumber(mobileNumber)</text><line style="stroke:#181818;stroke-width:0.6999999999999998;stroke-dasharray:2.0,2.0;" x1="1160.95" x2="1190.35" y1="1206.0986" y2="1206.0986"/><line style="stroke:#181818;stroke-width:0.6999999999999998;stroke-dasharray:2.0,2.0;" x1="1190.35" x2="1190.35" y1="1206.0986" y2="1215.1986"/><line style="stroke:#181818;stroke-width:0.6999999999999998;stroke-dasharray:2.0,2.0;" x1="1161.65" x2="1190.35" y1="1215.1986" y2="1215.1986"/><polygon fill="#181818" points="1168.65,1212.3986,1161.65,1215.1986,1168.65,1217.9986,1165.85,1215.1986" style="stroke:#181818;stroke-width:0.6999999999999998;"/><text fill="#000000" font-family="sans-serif" font-size="9.1" font-weight="bold" lengthAdjust="spacing" textLength="9.8" x="1165.85" y="1202.4147">31</text><text fill="#000000" font-family="sans-serif" font-size="9.1" lengthAdjust="spacing" textLength="121.1" x="1178.45" y="1202.4147">validateIdDocType(idDocType)</text><line style="stroke:#181818;stroke-width:0.6999999999999998;stroke-dasharray:2.0,2.0;" x1="1160.95" x2="1190.35" y1="1237.1023" y2="1237.1023"/><line style="stroke:#181818;stroke-width:0.6999999999999998;stroke-dasharray:2.0,2.0;" x1="1190.35" x2="1190.35" y1="1237.1023" y2="1246.2023"/><line style="stroke:#181818;stroke-width:0.6999999999999998;stroke-dasharray:2.0,2.0;" x1="1161.65" x2="1190.35" y1="1246.2023" y2="1246.2023"/><polygon fill="#181818" points="1168.65,1243.4023,1161.65,1246.2023,1168.65,1249.0023,1165.85,1246.2023" style="stroke:#181818;stroke-width:0.6999999999999998;"/><text fill="#000000" font-family="sans-serif" font-size="9.1" font-weight="bold" lengthAdjust="spacing" textLength="9.8" x="1165.85" y="1233.4185">32</text><text fill="#000000" font-family="sans-serif" font-size="9.1" lengthAdjust="spacing" textLength="193.2" x="1178.45" y="1233.4185">validateIdDocNumber(idDocNumber, idDocType)</text><line style="stroke:#181818;stroke-width:0.6999999999999998;stroke-dasharray:2.0,2.0;" x1="899.5" x2="928.9" y1="1303.1061" y2="1303.1061"/><line style="stroke:#181818;stroke-width:0.6999999999999998;stroke-dasharray:2.0,2.0;" x1="928.9" x2="928.9" y1="1303.1061" y2="1312.2061"/><line style="stroke:#181818;stroke-width:0.6999999999999998;stroke-dasharray:2.0,2.0;" x1="900.2" x2="928.9" y1="1312.2061" y2="1312.2061"/><polygon fill="#181818" points="907.2,1309.4061,900.2,1312.2061,907.2,1315.0061,904.4,1312.2061" style="stroke:#181818;stroke-width:0.6999999999999998;"/><text fill="#000000" font-family="sans-serif" font-size="9.1" font-weight="bold" lengthAdjust="spacing" textLength="9.8" x="904.4" y="1299.4222">33</text><text fill="#000000" font-family="sans-serif" font-size="9.1" lengthAdjust="spacing" textLength="121.8" x="917" y="1299.4222">validateCaborator(collaborator)</text><line style="stroke:#181818;stroke-width:0.6999999999999998;stroke-dasharray:2.0,2.0;" x1="899.5" x2="928.9" y1="1334.1098" y2="1334.1098"/><line style="stroke:#181818;stroke-width:0.6999999999999998;stroke-dasharray:2.0,2.0;" x1="928.9" x2="928.9" y1="1334.1098" y2="1343.2098"/><line style="stroke:#181818;stroke-width:0.6999999999999998;stroke-dasharray:2.0,2.0;" x1="900.2" x2="928.9" y1="1343.2098" y2="1343.2098"/><polygon fill="#181818" points="907.2,1340.4098,900.2,1343.2098,907.2,1346.0098,904.4,1343.2098" style="stroke:#181818;stroke-width:0.6999999999999998;"/><text fill="#000000" font-family="sans-serif" font-size="9.1" font-weight="bold" lengthAdjust="spacing" textLength="9.8" x="904.4" y="1330.4259">34</text><text fill="#000000" font-family="sans-serif" font-size="9.1" lengthAdjust="spacing" textLength="140" x="917" y="1330.4259">addToCollaboratorList(collaborator)</text><polygon fill="#181818" points="538.3,1362.3135,531.3,1365.1135,538.3,1367.9135,535.5,1365.1135" style="stroke:#181818;stroke-width:0.6999999999999998;"/><line style="stroke:#181818;stroke-width:0.6999999999999998;stroke-dasharray:2.0,2.0;" x1="534.1" x2="895.3" y1="1365.1135" y2="1365.1135"/><text fill="#000000" font-family="sans-serif" font-size="9.1" font-weight="bold" lengthAdjust="spacing" textLength="9.8" x="542.5" y="1361.4296">35</text><text fill="#000000" font-family="sans-serif" font-size="9.1" lengthAdjust="spacing" textLength="74.2" x="555.1" y="1361.4296">operation success</text><polygon fill="#181818" points="307.3,1384.2172,300.3,1387.0172,307.3,1389.8172,304.5,1387.0172" style="stroke:#181818;stroke-width:0.6999999999999998;"/><line style="stroke:#181818;stroke-width:0.6999999999999998;stroke-dasharray:2.0,2.0;" x1="303.1" x2="526.4" y1="1387.0172" y2="1387.0172"/><text fill="#000000" font-family="sans-serif" font-size="9.1" font-weight="bold" lengthAdjust="spacing" textLength="9.8" x="311.5" y="1383.3333">36</text><text fill="#000000" font-family="sans-serif" font-size="9.1" lengthAdjust="spacing" textLength="74.2" x="324.1" y="1383.3333">operation success</text><polygon fill="#181818" points="37.8,1406.1209,30.8,1408.9209,37.8,1411.7209,35,1408.9209" style="stroke:#181818;stroke-width:0.6999999999999998;"/><line style="stroke:#181818;stroke-width:0.6999999999999998;stroke-dasharray:2.0,2.0;" x1="33.6" x2="295.4" y1="1408.9209" y2="1408.9209"/><text fill="#000000" font-family="sans-serif" font-size="9.1" font-weight="bold" lengthAdjust="spacing" textLength="9.8" x="42" y="1405.237">37</text><text fill="#000000" font-family="sans-serif" font-size="9.1" lengthAdjust="spacing" textLength="112" x="54.6" y="1405.237">Displays operation success</text><!--SRC=[pLVBRjiu5DthAowoaWjxK61sMHG8x0AJGTe6SO9klA4bncOZaIf9jp2GZ-_bfHwaJ3lsTD7H8gP4diDpdsJCYv0Dqwo6MabLRBMgELYzuvdfPnfMlB0DNzfznK7pmZAvgS85PijAzLF83Jopol0iiyBYqgVb-_T_mmoM_FkEouB3Gh0DhiyojhDAxkerrpWkhD9mzS_3fojW1l0tGrOh2j4mQU7g-e5lXB5SprLLiRNI3DS_tTBYfzipriwLj1hVkIRC_F7XxW3LA2DmgU26rlGVzalXR4MrCKG7Y9Ky9BY_ktcC4T_KUc2zNib_mtV2H5z62el0dc4HhEGyEU4D_NBtyF7-1D48te56Y9korDnuizen1KtyO9PJk3B01mSm-u0HWMkuCIy6hC9SyT401k6-7j1JO13TUwLK0pjfHGLst_0IIcOP20C_M2Lmp4kFSm_kCiFDt9xN62nCBsED1-IIrNmAQw7jrg6cmCfQ62EKXEwTZ9YY-RncefhMQYqmNNr2Ja7WrgeW4VsBdvkGW9A7qhD3ynyHQT1uajKQagMDVdrzzHDSbls7aPN4-S9viq2U4-QjvCY-b7Kh-PPvAHKVg6fGnePRJDCxZ6e-oOPuz6PHSVMVtKD094YKbEUxbGORIi4TOGZiELF56ArCKSy6pM6jHhWWa6_kqPdX2hltmu3A9sdjr0UYAI88r4LzuPYyGvfEJwHY7A2afBZDH6jYibYaepmcxmIbrzbbyPWdu8Wp9ohmvLRzD0uB5OA1oH9xaUymXbTu7e6IF5MQuy9Sqcg3xGZ93WloTE6XaGusEQMHLPNlGawZxlfIeUIpq3MpMAJ93ZBMEVS0qtQEaphx61MQutpOq7-tLqITi6yStMJaYnCD89st_d3wqx9ZwVwyZ2P9ifVgHRzxzt_Gx1wfKBCMcosc_xEJXiA-RhdqwjnbB3vrGLZO6JoOYeeP0nz9nKgsHpfbxCAv0QlAsmTsoq6jlxa2UqQytJ8iFckrMEyi_-l0KU6X4VZEEQxT97GU_SrRfqooDynh2V1iHKsTv5ORbfV16ojT8uMhjXfR4HwxQtVDcW7ESMwdxU_drgMunB9ghagCJ27idkmliRreKTW3CIdJEXMpmJwqhhkiB6ctt6yw-KzWBpKVdytdKTptzkM3gPUIpD4nkVFEfS15wyYyysWYm2cVqdKeEvP5bB913j5xJkMKuATPqkT7Wxe8bzpBrte0-OpbJJL-Bk0JbNSRmZfuEPVWjboemjqaSz6DBeAsMujXx9fCptH1F8xrmx2BzndJDyImzKpEui1UyAZ2fagtcFDv_36e6gxff0MpAmhwP-N8hINLx-FhoY7NPHSNB8EcOdjpX6Xy3VW5]--></g></svg>