<?xml version="1.0" encoding="us-ascii" standalone="no"?><svg xmlns="http://www.w3.org/2000/svg" xmlns:xlink="http://www.w3.org/1999/xlink" contentStyleType="text/css" height="739px" preserveAspectRatio="none" style="width:695px;height:739px;background:#FFFFFF;" version="1.1" viewBox="0 0 695 739" width="695px" zoomAndPan="magnify"><defs/><g><!--class Collaborator--><g id="elem_Collaborator"><rect codeLine="10" fill="#F1F1F1" height="178.3477" id="Collaborator" rx="2.5" ry="2.5" style="stroke:#181818;stroke-width:0.5;" width="147" x="297" y="554"/><ellipse cx="328.65" cy="570" fill="#ADD1B2" rx="11" ry="11" style="stroke:#181818;stroke-width:1.0;"/><path d="M331.4156,565.875 Q331.5719,565.6563 331.7594,565.5469 Q331.9469,565.4375 332.1656,565.4375 Q332.5406,565.4375 332.775,565.7031 Q333.0094,565.9531 333.0094,566.5625 L333.0094,568.0156 Q333.0094,568.625 332.775,568.8906 Q332.5406,569.1563 332.1656,569.1563 Q331.8219,569.1563 331.6188,568.9531 Q331.4156,568.7656 331.3063,568.25 Q331.2594,567.8906 331.0719,567.7031 Q330.7438,567.3281 330.1344,567.1094 Q329.525,566.8906 328.9,566.8906 Q328.1344,566.8906 327.4938,567.2188 Q326.8688,567.5469 326.3688,568.2969 Q325.8844,569.0469 325.8844,570.0781 L325.8844,571.1719 Q325.8844,572.4063 326.775,573.2344 Q327.6656,574.0469 329.2594,574.0469 Q330.1969,574.0469 330.8531,573.7969 Q331.2438,573.6406 331.6656,573.2031 Q331.9313,572.9375 332.0719,572.8594 Q332.2281,572.7813 332.4313,572.7813 Q332.7594,572.7813 333.0094,573.0469 Q333.275,573.2969 333.275,573.6406 Q333.275,573.9844 332.9313,574.3906 Q332.4313,574.9688 331.6344,575.2969 Q330.5563,575.75 329.2594,575.75 Q327.7438,575.75 326.5406,575.125 Q325.5563,574.625 324.8688,573.5625 Q324.1813,572.4844 324.1813,571.2031 L324.1813,570.0469 Q324.1813,568.7188 324.7906,567.5781 Q325.4156,566.4219 326.5094,565.8125 Q327.6031,565.1875 328.8375,565.1875 Q329.5719,565.1875 330.2125,565.3594 Q330.8688,565.5156 331.4156,565.875 Z " fill="#000000"/><text fill="#000000" font-family="sans-serif" font-size="14" lengthAdjust="spacing" textLength="78" x="346.35" y="575.7969">Collaborator</text><line style="stroke:#181818;stroke-width:0.5;" x1="298" x2="443" y1="586" y2="586"/><text fill="#000000" font-family="sans-serif" font-size="14" lengthAdjust="spacing" textLength="81" x="303" y="605.1074">-String name</text><text fill="#000000" font-family="sans-serif" font-size="14" lengthAdjust="spacing" textLength="132" x="303" y="623.7285">-Date admissionDate</text><text fill="#000000" font-family="sans-serif" font-size="14" lengthAdjust="spacing" textLength="97" x="303" y="642.3496">-Date birthDate</text><text fill="#000000" font-family="sans-serif" font-size="14" lengthAdjust="spacing" textLength="135" x="303" y="660.9707">-String phoneNumber</text><text fill="#000000" font-family="sans-serif" font-size="14" lengthAdjust="spacing" textLength="76" x="303" y="679.5918">-Email email</text><text fill="#000000" font-family="sans-serif" font-size="14" lengthAdjust="spacing" textLength="114" x="303" y="698.2129">-String idDocType</text><text fill="#000000" font-family="sans-serif" font-size="14" lengthAdjust="spacing" textLength="109" x="303" y="716.834">-int idDocNumber</text><line style="stroke:#181818;stroke-width:0.5;" x1="298" x2="443" y1="724.3477" y2="724.3477"/></g><!--class Job--><g id="elem_Job"><rect codeLine="20" fill="#F1F1F1" height="66.6211" id="Job" rx="2.5" ry="2.5" style="stroke:#181818;stroke-width:0.5;" width="113" x="479" y="609.5"/><ellipse cx="520.55" cy="625.5" fill="#ADD1B2" rx="11" ry="11" style="stroke:#181818;stroke-width:1.0;"/><path d="M523.3156,621.375 Q523.4719,621.1563 523.6594,621.0469 Q523.8469,620.9375 524.0656,620.9375 Q524.4406,620.9375 524.675,621.2031 Q524.9094,621.4531 524.9094,622.0625 L524.9094,623.5156 Q524.9094,624.125 524.675,624.3906 Q524.4406,624.6563 524.0656,624.6563 Q523.7219,624.6563 523.5188,624.4531 Q523.3156,624.2656 523.2063,623.75 Q523.1594,623.3906 522.9719,623.2031 Q522.6438,622.8281 522.0344,622.6094 Q521.425,622.3906 520.8,622.3906 Q520.0344,622.3906 519.3938,622.7188 Q518.7688,623.0469 518.2688,623.7969 Q517.7844,624.5469 517.7844,625.5781 L517.7844,626.6719 Q517.7844,627.9063 518.675,628.7344 Q519.5656,629.5469 521.1594,629.5469 Q522.0969,629.5469 522.7531,629.2969 Q523.1438,629.1406 523.5656,628.7031 Q523.8313,628.4375 523.9719,628.3594 Q524.1281,628.2813 524.3313,628.2813 Q524.6594,628.2813 524.9094,628.5469 Q525.175,628.7969 525.175,629.1406 Q525.175,629.4844 524.8313,629.8906 Q524.3313,630.4688 523.5344,630.7969 Q522.4563,631.25 521.1594,631.25 Q519.6438,631.25 518.4406,630.625 Q517.4563,630.125 516.7688,629.0625 Q516.0813,627.9844 516.0813,626.7031 L516.0813,625.5469 Q516.0813,624.2188 516.6906,623.0781 Q517.3156,621.9219 518.4094,621.3125 Q519.5031,620.6875 520.7375,620.6875 Q521.4719,620.6875 522.1125,620.8594 Q522.7688,621.0156 523.3156,621.375 Z " fill="#000000"/><text fill="#000000" font-family="sans-serif" font-size="14" lengthAdjust="spacing" textLength="22" x="540.45" y="631.2969">Job</text><line style="stroke:#181818;stroke-width:0.5;" x1="480" x2="591" y1="641.5" y2="641.5"/><text fill="#000000" font-family="sans-serif" font-size="14" lengthAdjust="spacing" textLength="101" x="485" y="660.6074">-String jobName</text><line style="stroke:#181818;stroke-width:0.5;" x1="480" x2="591" y1="668.1211" y2="668.1211"/></g><!--class Organization--><g id="elem_Organization"><rect codeLine="24" fill="#F1F1F1" height="141.1055" id="Organization" rx="2.5" ry="2.5" style="stroke:#181818;stroke-width:0.5;" width="112" x="331.5" y="189"/><ellipse cx="346.5" cy="205" fill="#ADD1B2" rx="11" ry="11" style="stroke:#181818;stroke-width:1.0;"/><path d="M349.2656,200.875 Q349.4219,200.6563 349.6094,200.5469 Q349.7969,200.4375 350.0156,200.4375 Q350.3906,200.4375 350.625,200.7031 Q350.8594,200.9531 350.8594,201.5625 L350.8594,203.0156 Q350.8594,203.625 350.625,203.8906 Q350.3906,204.1563 350.0156,204.1563 Q349.6719,204.1563 349.4688,203.9531 Q349.2656,203.7656 349.1563,203.25 Q349.1094,202.8906 348.9219,202.7031 Q348.5938,202.3281 347.9844,202.1094 Q347.375,201.8906 346.75,201.8906 Q345.9844,201.8906 345.3438,202.2188 Q344.7188,202.5469 344.2188,203.2969 Q343.7344,204.0469 343.7344,205.0781 L343.7344,206.1719 Q343.7344,207.4063 344.625,208.2344 Q345.5156,209.0469 347.1094,209.0469 Q348.0469,209.0469 348.7031,208.7969 Q349.0938,208.6406 349.5156,208.2031 Q349.7813,207.9375 349.9219,207.8594 Q350.0781,207.7813 350.2813,207.7813 Q350.6094,207.7813 350.8594,208.0469 Q351.125,208.2969 351.125,208.6406 Q351.125,208.9844 350.7813,209.3906 Q350.2813,209.9688 349.4844,210.2969 Q348.4063,210.75 347.1094,210.75 Q345.5938,210.75 344.3906,210.125 Q343.4063,209.625 342.7188,208.5625 Q342.0313,207.4844 342.0313,206.2031 L342.0313,205.0469 Q342.0313,203.7188 342.6406,202.5781 Q343.2656,201.4219 344.3594,200.8125 Q345.4531,200.1875 346.6875,200.1875 Q347.4219,200.1875 348.0625,200.3594 Q348.7188,200.5156 349.2656,200.875 Z " fill="#000000"/><text fill="#000000" font-family="sans-serif" font-size="14" lengthAdjust="spacing" textLength="80" x="360.5" y="210.7969">Organization</text><line style="stroke:#181818;stroke-width:0.5;" x1="332.5" x2="442.5" y1="221" y2="221"/><text fill="#000000" font-family="sans-serif" font-size="14" lengthAdjust="spacing" textLength="81" x="337.5" y="240.1074">-String name</text><text fill="#000000" font-family="sans-serif" font-size="14" lengthAdjust="spacing" textLength="39" x="337.5" y="258.7285">-int nif</text><text fill="#000000" font-family="sans-serif" font-size="14" lengthAdjust="spacing" textLength="93" x="337.5" y="277.3496">-String website</text><text fill="#000000" font-family="sans-serif" font-size="14" lengthAdjust="spacing" textLength="86" x="337.5" y="295.9707">-String phone</text><text fill="#000000" font-family="sans-serif" font-size="14" lengthAdjust="spacing" textLength="79" x="337.5" y="314.5918">-String email</text><line style="stroke:#181818;stroke-width:0.5;" x1="332.5" x2="442.5" y1="322.1055" y2="322.1055"/></g><!--class JobReposity--><g id="elem_JobReposity"><rect codeLine="32" fill="#F1F1F1" height="103.8633" id="JobReposity" rx="2.5" ry="2.5" style="stroke:#181818;stroke-width:0.5;" width="194" x="434.5" y="390"/><ellipse cx="488.75" cy="406" fill="#ADD1B2" rx="11" ry="11" style="stroke:#181818;stroke-width:1.0;"/><path d="M491.5156,401.875 Q491.6719,401.6563 491.8594,401.5469 Q492.0469,401.4375 492.2656,401.4375 Q492.6406,401.4375 492.875,401.7031 Q493.1094,401.9531 493.1094,402.5625 L493.1094,404.0156 Q493.1094,404.625 492.875,404.8906 Q492.6406,405.1563 492.2656,405.1563 Q491.9219,405.1563 491.7188,404.9531 Q491.5156,404.7656 491.4063,404.25 Q491.3594,403.8906 491.1719,403.7031 Q490.8438,403.3281 490.2344,403.1094 Q489.625,402.8906 489,402.8906 Q488.2344,402.8906 487.5938,403.2188 Q486.9688,403.5469 486.4688,404.2969 Q485.9844,405.0469 485.9844,406.0781 L485.9844,407.1719 Q485.9844,408.4063 486.875,409.2344 Q487.7656,410.0469 489.3594,410.0469 Q490.2969,410.0469 490.9531,409.7969 Q491.3438,409.6406 491.7656,409.2031 Q492.0313,408.9375 492.1719,408.8594 Q492.3281,408.7813 492.5313,408.7813 Q492.8594,408.7813 493.1094,409.0469 Q493.375,409.2969 493.375,409.6406 Q493.375,409.9844 493.0313,410.3906 Q492.5313,410.9688 491.7344,411.2969 Q490.6563,411.75 489.3594,411.75 Q487.8438,411.75 486.6406,411.125 Q485.6563,410.625 484.9688,409.5625 Q484.2813,408.4844 484.2813,407.2031 L484.2813,406.0469 Q484.2813,404.7188 484.8906,403.5781 Q485.5156,402.4219 486.6094,401.8125 Q487.7031,401.1875 488.9375,401.1875 Q489.6719,401.1875 490.3125,401.3594 Q490.9688,401.5156 491.5156,401.875 Z " fill="#000000"/><text fill="#000000" font-family="sans-serif" font-size="14" lengthAdjust="spacing" textLength="77" x="509.25" y="411.7969">JobReposity</text><line style="stroke:#181818;stroke-width:0.5;" x1="435.5" x2="627.5" y1="422" y2="422"/><line style="stroke:#181818;stroke-width:0.5;" x1="435.5" x2="627.5" y1="430" y2="430"/><text fill="#000000" font-family="sans-serif" font-size="14" lengthAdjust="spacing" textLength="94" x="440.5" y="449.1074">-Repositories()</text><text fill="#000000" font-family="sans-serif" font-size="14" lengthAdjust="spacing" textLength="182" x="440.5" y="467.7285">+getInstance() : Repositories</text><text fill="#000000" font-family="sans-serif" font-size="14" lengthAdjust="spacing" textLength="128" x="440.5" y="486.3496">+getJobRepository()</text></g><!--class RegisterCollaboratorController--><g id="elem_RegisterCollaboratorController"><rect codeLine="38" fill="#F1F1F1" height="122.4844" id="RegisterCollaboratorController" rx="2.5" ry="2.5" style="stroke:#181818;stroke-width:0.5;" width="471" x="217" y="7"/><ellipse cx="351.75" cy="23" fill="#ADD1B2" rx="11" ry="11" style="stroke:#181818;stroke-width:1.0;"/><path d="M354.5156,18.875 Q354.6719,18.6563 354.8594,18.5469 Q355.0469,18.4375 355.2656,18.4375 Q355.6406,18.4375 355.875,18.7031 Q356.1094,18.9531 356.1094,19.5625 L356.1094,21.0156 Q356.1094,21.625 355.875,21.8906 Q355.6406,22.1563 355.2656,22.1563 Q354.9219,22.1563 354.7188,21.9531 Q354.5156,21.7656 354.4063,21.25 Q354.3594,20.8906 354.1719,20.7031 Q353.8438,20.3281 353.2344,20.1094 Q352.625,19.8906 352,19.8906 Q351.2344,19.8906 350.5938,20.2188 Q349.9688,20.5469 349.4688,21.2969 Q348.9844,22.0469 348.9844,23.0781 L348.9844,24.1719 Q348.9844,25.4063 349.875,26.2344 Q350.7656,27.0469 352.3594,27.0469 Q353.2969,27.0469 353.9531,26.7969 Q354.3438,26.6406 354.7656,26.2031 Q355.0313,25.9375 355.1719,25.8594 Q355.3281,25.7813 355.5313,25.7813 Q355.8594,25.7813 356.1094,26.0469 Q356.375,26.2969 356.375,26.6406 Q356.375,26.9844 356.0313,27.3906 Q355.5313,27.9688 354.7344,28.2969 Q353.6563,28.75 352.3594,28.75 Q350.8438,28.75 349.6406,28.125 Q348.6563,27.625 347.9688,26.5625 Q347.2813,25.4844 347.2813,24.2031 L347.2813,23.0469 Q347.2813,21.7188 347.8906,20.5781 Q348.5156,19.4219 349.6094,18.8125 Q350.7031,18.1875 351.9375,18.1875 Q352.6719,18.1875 353.3125,18.3594 Q353.9688,18.5156 354.5156,18.875 Z " fill="#000000"/><text fill="#000000" font-family="sans-serif" font-size="14" lengthAdjust="spacing" textLength="193" x="372.25" y="28.7969">RegisterCollaboratorController</text><line style="stroke:#181818;stroke-width:0.5;" x1="218" x2="687" y1="39" y2="39"/><line style="stroke:#181818;stroke-width:0.5;" x1="218" x2="687" y1="47" y2="47"/><text fill="#000000" font-family="sans-serif" font-size="14" lengthAdjust="spacing" textLength="459" x="223" y="66.1074">+CreateTaskController(organizationRepository, taskCategoryRepository)</text><text fill="#000000" font-family="sans-serif" font-size="14" lengthAdjust="spacing" textLength="82" x="223" y="84.7285">+getJobList()</text><text fill="#000000" font-family="sans-serif" font-size="14" lengthAdjust="spacing" textLength="437" x="223" y="103.3496">+createCollaborator(name, birthdate, admission date, address, email,</text><text fill="#000000" font-family="sans-serif" font-size="14" lengthAdjust="spacing" textLength="336" x="223" y="121.9707">mobile number, id doc type, id doc number, jobName)</text></g><!--class RegisterCollaboratorUI--><g id="elem_RegisterCollaboratorUI"><rect codeLine="44" fill="#F1F1F1" height="48" id="RegisterCollaboratorUI" rx="2.5" ry="2.5" style="stroke:#181818;stroke-width:0.5;" width="175" x="7" y="44"/><ellipse cx="22" cy="60" fill="#ADD1B2" rx="11" ry="11" style="stroke:#181818;stroke-width:1.0;"/><path d="M24.7656,55.875 Q24.9219,55.6563 25.1094,55.5469 Q25.2969,55.4375 25.5156,55.4375 Q25.8906,55.4375 26.125,55.7031 Q26.3594,55.9531 26.3594,56.5625 L26.3594,58.0156 Q26.3594,58.625 26.125,58.8906 Q25.8906,59.1563 25.5156,59.1563 Q25.1719,59.1563 24.9688,58.9531 Q24.7656,58.7656 24.6563,58.25 Q24.6094,57.8906 24.4219,57.7031 Q24.0938,57.3281 23.4844,57.1094 Q22.875,56.8906 22.25,56.8906 Q21.4844,56.8906 20.8438,57.2188 Q20.2188,57.5469 19.7188,58.2969 Q19.2344,59.0469 19.2344,60.0781 L19.2344,61.1719 Q19.2344,62.4063 20.125,63.2344 Q21.0156,64.0469 22.6094,64.0469 Q23.5469,64.0469 24.2031,63.7969 Q24.5938,63.6406 25.0156,63.2031 Q25.2813,62.9375 25.4219,62.8594 Q25.5781,62.7813 25.7813,62.7813 Q26.1094,62.7813 26.3594,63.0469 Q26.625,63.2969 26.625,63.6406 Q26.625,63.9844 26.2813,64.3906 Q25.7813,64.9688 24.9844,65.2969 Q23.9063,65.75 22.6094,65.75 Q21.0938,65.75 19.8906,65.125 Q18.9063,64.625 18.2188,63.5625 Q17.5313,62.4844 17.5313,61.2031 L17.5313,60.0469 Q17.5313,58.7188 18.1406,57.5781 Q18.7656,56.4219 19.8594,55.8125 Q20.9531,55.1875 22.1875,55.1875 Q22.9219,55.1875 23.5625,55.3594 Q24.2188,55.5156 24.7656,55.875 Z " fill="#000000"/><text fill="#000000" font-family="sans-serif" font-size="14" lengthAdjust="spacing" textLength="143" x="36" y="65.7969">RegisterCollaboratorUI</text><line style="stroke:#181818;stroke-width:0.5;" x1="8" x2="181" y1="76" y2="76"/><line style="stroke:#181818;stroke-width:0.5;" x1="8" x2="181" y1="84" y2="84"/></g><!--link RegisterCollaboratorUI to RegisterCollaboratorController--><g id="link_RegisterCollaboratorUI_RegisterCollaboratorController"><path codeLine="47" d="M182.17,68 C200.21,68 213.83,68 213.83,68 C213.83,68 208.88,68 210.78,68 " fill="none" id="RegisterCollaboratorUI-to-RegisterCollaboratorController" style="stroke:#181818;stroke-width:1.0;stroke-dasharray:7.0,7.0;"/><polygon fill="#181818" points="216.78,68,207.78,64,211.78,68,207.78,72,216.78,68" style="stroke:#181818;stroke-width:1.0;"/></g><!--link RegisterCollaboratorController to Organization--><g id="link_RegisterCollaboratorController_Organization"><path codeLine="48" d="M431.84,129.22 C425.34,148.19 420.0469,163.6147 413.3369,183.1747 " fill="none" id="RegisterCollaboratorController-to-Organization" style="stroke:#181818;stroke-width:1.0;stroke-dasharray:7.0,7.0;"/><polygon fill="#181818" points="411.39,188.85,418.0939,181.6349,413.0124,184.1205,410.5268,179.039,411.39,188.85" style="stroke:#181818;stroke-width:1.0;"/></g><!--link Organization to Collaborator--><g id="link_Organization_Collaborator"><path codeLine="49" d="M384.4,330.03 C381.6,392.89 377.7269,479.7559 374.6969,547.8159 " fill="none" id="Organization-to-Collaborator" style="stroke:#181818;stroke-width:1.0;"/><polygon fill="#181818" points="374.43,553.81,378.8263,544.9968,374.6524,548.8149,370.8342,544.641,374.43,553.81" style="stroke:#181818;stroke-width:1.0;"/></g><!--link RegisterCollaboratorController to JobReposity--><g id="link_RegisterCollaboratorController_JobReposity"><path codeLine="50" d="M465.28,129.18 C480.65,201.56 504.9442,315.9307 519.3942,384.0107 " fill="none" id="RegisterCollaboratorController-to-JobReposity" style="stroke:#181818;stroke-width:1.0;stroke-dasharray:7.0,7.0;"/><polygon fill="#181818" points="520.64,389.88,522.6842,380.2456,519.6019,384.989,514.8585,381.9066,520.64,389.88" style="stroke:#181818;stroke-width:1.0;"/></g><!--link JobReposity to Job--><g id="link_JobReposity_Job"><path codeLine="51" d="M532.53,494.25 C533.26,530.52 534.1009,572.0912 534.7209,603.3212 " fill="none" id="JobReposity-to-Job" style="stroke:#181818;stroke-width:1.0;"/><polygon fill="#181818" points="534.84,609.32,538.6606,600.2424,534.7408,604.321,530.6621,600.4012,534.84,609.32" style="stroke:#181818;stroke-width:1.0;"/></g><!--link Collaborator to Job--><g id="link_Collaborator_Job"><path codeLine="52" d="M444.12,643 C457.33,643 467.61,643 472.82,643 " fill="none" id="Collaborator-to-Job" style="stroke:#181818;stroke-width:1.0;"/><polygon fill="#181818" points="478.82,643,469.82,639,473.82,643,469.82,647,478.82,643" style="stroke:#181818;stroke-width:1.0;"/></g><!--SRC=[XLCzRzim4DtvAswBZKX1vmm10gU3Yo85udJBGb4NYJN54yWp0gNeV-_9-gAI5jOWuDvxztsyYaVhMnrq0mrvCdMW1e732TN2jDeSTOK7xXn2GCFQLouLn5gNz6Pz1Q_QnPHnrYDtBK9BhkiDTVKFaWAJIhoCqp7UCmTRd1ZtXlp1lYDyKKgTATYHSxgWe9a2_5RGVpaSn45gyBh12NhGZA3BniPeoVVMYYbiu3f5nn1jJHuVJqs1OMA-DjewmFx_GMpB1pBFqiU4Myy3E4RuCvNzZOgnsjdv5nMFVRspvaUejBVlcgNUZ-Avio67jwzh_WsBQ1dLvrxMqD15MjOJjYIktPnn12XOZ9lj6Ro62ddlewpVu6OBjolH8bd2KUZ4TyxpX9MDZ27Tteuy1x5nskCrx0BAHfvrF2xaXfAnBD4pu5ucyagi1T-kglakMUSUp3bwMiAc7sist48fNBOS34ns6J36R1XSzk8RAgoy1N_URoRBXf8CzBSy6nCtBlZ267xkfNrH_8VBWwrglidlBinGNHXnVdEtEZ2rkhPS7h6N7AdpvOZYa1oGIeyf7pYrUguZzXS0]--></g></svg>