<?xml version="1.0" encoding="us-ascii" standalone="no"?><svg xmlns="http://www.w3.org/2000/svg" xmlns:xlink="http://www.w3.org/1999/xlink" contentStyleType="text/css" height="1296px" preserveAspectRatio="none" style="width:1162px;height:1296px;background:#FFFFFF;" version="1.1" viewBox="0 0 1162 1296" width="1162px" zoomAndPan="magnify"><defs/><g><text fill="#000000" font-family="sans-serif" font-size="14" font-weight="bold" lengthAdjust="spacing" textLength="155" x="496.5" y="25.1074">US003 - Class Diagram</text><!--class Collaborator--><g id="elem_Collaborator"><rect codeLine="10" fill="#F1F1F1" height="215.5898" id="Collaborator" rx="2.5" ry="2.5" style="stroke:#181818;stroke-width:0.5;" width="398" x="449.5" y="743.6211"/><ellipse cx="605.25" cy="759.6211" fill="#ADD1B2" rx="11" ry="11" style="stroke:#181818;stroke-width:1.0;"/><path d="M608.0156,755.4961 Q608.1719,755.2773 608.3594,755.168 Q608.5469,755.0586 608.7656,755.0586 Q609.1406,755.0586 609.375,755.3242 Q609.6094,755.5742 609.6094,756.1836 L609.6094,757.6367 Q609.6094,758.2461 609.375,758.5117 Q609.1406,758.7773 608.7656,758.7773 Q608.4219,758.7773 608.2188,758.5742 Q608.0156,758.3867 607.9063,757.8711 Q607.8594,757.5117 607.6719,757.3242 Q607.3438,756.9492 606.7344,756.7305 Q606.125,756.5117 605.5,756.5117 Q604.7344,756.5117 604.0938,756.8398 Q603.4688,757.168 602.9688,757.918 Q602.4844,758.668 602.4844,759.6992 L602.4844,760.793 Q602.4844,762.0273 603.375,762.8555 Q604.2656,763.668 605.8594,763.668 Q606.7969,763.668 607.4531,763.418 Q607.8438,763.2617 608.2656,762.8242 Q608.5313,762.5586 608.6719,762.4805 Q608.8281,762.4023 609.0313,762.4023 Q609.3594,762.4023 609.6094,762.668 Q609.875,762.918 609.875,763.2617 Q609.875,763.6055 609.5313,764.0117 Q609.0313,764.5898 608.2344,764.918 Q607.1563,765.3711 605.8594,765.3711 Q604.3438,765.3711 603.1406,764.7461 Q602.1563,764.2461 601.4688,763.1836 Q600.7813,762.1055 600.7813,760.8242 L600.7813,759.668 Q600.7813,758.3398 601.3906,757.1992 Q602.0156,756.043 603.1094,755.4336 Q604.2031,754.8086 605.4375,754.8086 Q606.1719,754.8086 606.8125,754.9805 Q607.4688,755.1367 608.0156,755.4961 Z " fill="#000000"/><text fill="#000000" font-family="sans-serif" font-size="14" lengthAdjust="spacing" textLength="78" x="625.75" y="765.418">Collaborator</text><line style="stroke:#181818;stroke-width:0.5;" x1="450.5" x2="846.5" y1="775.6211" y2="775.6211"/><text fill="#000000" font-family="sans-serif" font-size="14" lengthAdjust="spacing" textLength="81" x="455.5" y="794.7285">-String name</text><text fill="#000000" font-family="sans-serif" font-size="14" lengthAdjust="spacing" textLength="136" x="455.5" y="813.3496">-String mobileNumber</text><text fill="#000000" font-family="sans-serif" font-size="14" lengthAdjust="spacing" textLength="12" x="455.5" y="831.9707">...</text><line style="stroke:#181818;stroke-width:0.5;" x1="450.5" x2="846.5" y1="839.4844" y2="839.4844"/><text fill="#000000" font-family="sans-serif" font-size="14" lengthAdjust="spacing" textLength="339" x="455.5" y="858.5918">+Collaborator(name, birthdate, admissionDate, street,</text><text fill="#000000" font-family="sans-serif" font-size="14" lengthAdjust="spacing" textLength="386" x="455.5" y="877.2129">streetNumber, postalCode, city, district, email, mobileNumber,</text><text fill="#000000" font-family="sans-serif" font-size="14" lengthAdjust="spacing" textLength="193" x="455.5" y="895.834">idDocType, idDocNumber, job)</text><text fill="#000000" font-family="sans-serif" font-size="14" lengthAdjust="spacing" textLength="74" x="455.5" y="914.4551">+getName()</text><text fill="#000000" font-family="sans-serif" font-size="14" lengthAdjust="spacing" textLength="95" x="455.5" y="933.0762">+getBirthdate()</text><text fill="#000000" font-family="sans-serif" font-size="14" lengthAdjust="spacing" textLength="22" x="455.5" y="951.6973">...()</text></g><!--class Job--><g id="elem_Job"><rect codeLine="22" fill="#F1F1F1" height="141.1055" id="Job" rx="2.5" ry="2.5" style="stroke:#181818;stroke-width:0.5;" width="162" x="241.5" y="1102.1211"/><ellipse cx="307.25" cy="1118.1211" fill="#ADD1B2" rx="11" ry="11" style="stroke:#181818;stroke-width:1.0;"/><path d="M310.0156,1113.9961 Q310.1719,1113.7773 310.3594,1113.668 Q310.5469,1113.5586 310.7656,1113.5586 Q311.1406,1113.5586 311.375,1113.8242 Q311.6094,1114.0742 311.6094,1114.6836 L311.6094,1116.1367 Q311.6094,1116.7461 311.375,1117.0117 Q311.1406,1117.2773 310.7656,1117.2773 Q310.4219,1117.2773 310.2188,1117.0742 Q310.0156,1116.8867 309.9063,1116.3711 Q309.8594,1116.0117 309.6719,1115.8242 Q309.3438,1115.4492 308.7344,1115.2305 Q308.125,1115.0117 307.5,1115.0117 Q306.7344,1115.0117 306.0938,1115.3398 Q305.4688,1115.668 304.9688,1116.418 Q304.4844,1117.168 304.4844,1118.1992 L304.4844,1119.293 Q304.4844,1120.5273 305.375,1121.3555 Q306.2656,1122.168 307.8594,1122.168 Q308.7969,1122.168 309.4531,1121.918 Q309.8438,1121.7617 310.2656,1121.3242 Q310.5313,1121.0586 310.6719,1120.9805 Q310.8281,1120.9023 311.0313,1120.9023 Q311.3594,1120.9023 311.6094,1121.168 Q311.875,1121.418 311.875,1121.7617 Q311.875,1122.1055 311.5313,1122.5117 Q311.0313,1123.0898 310.2344,1123.418 Q309.1563,1123.8711 307.8594,1123.8711 Q306.3438,1123.8711 305.1406,1123.2461 Q304.1563,1122.7461 303.4688,1121.6836 Q302.7813,1120.6055 302.7813,1119.3242 L302.7813,1118.168 Q302.7813,1116.8398 303.3906,1115.6992 Q304.0156,1114.543 305.1094,1113.9336 Q306.2031,1113.3086 307.4375,1113.3086 Q308.1719,1113.3086 308.8125,1113.4805 Q309.4688,1113.6367 310.0156,1113.9961 Z " fill="#000000"/><text fill="#000000" font-family="sans-serif" font-size="14" lengthAdjust="spacing" textLength="22" x="327.75" y="1123.918">Job</text><line style="stroke:#181818;stroke-width:0.5;" x1="242.5" x2="402.5" y1="1134.1211" y2="1134.1211"/><text fill="#000000" font-family="sans-serif" font-size="14" lengthAdjust="spacing" textLength="101" x="247.5" y="1153.2285">-String jobName</text><line style="stroke:#181818;stroke-width:0.5;" x1="242.5" x2="402.5" y1="1160.7422" y2="1160.7422"/><text fill="#000000" font-family="sans-serif" font-size="14" lengthAdjust="spacing" textLength="95" x="247.5" y="1179.8496">+Job(jobName)</text><text fill="#000000" font-family="sans-serif" font-size="14" lengthAdjust="spacing" textLength="150" x="247.5" y="1198.4707">+setJobName(jobName)</text><text fill="#000000" font-family="sans-serif" font-size="14" lengthAdjust="spacing" textLength="52" x="247.5" y="1217.0918">+clone()</text><text fill="#000000" font-family="sans-serif" font-size="14" lengthAdjust="spacing" textLength="141" x="247.5" y="1235.7129">-validateJob(jobName)</text></g><!--class Date--><g id="elem_Date"><rect codeLine="32" fill="#F1F1F1" height="196.9688" id="Date" rx="2.5" ry="2.5" style="stroke:#181818;stroke-width:0.5;" width="134" x="438.5" y="1074.1211"/><ellipse cx="486.25" cy="1090.1211" fill="#ADD1B2" rx="11" ry="11" style="stroke:#181818;stroke-width:1.0;"/><path d="M489.0156,1085.9961 Q489.1719,1085.7773 489.3594,1085.668 Q489.5469,1085.5586 489.7656,1085.5586 Q490.1406,1085.5586 490.375,1085.8242 Q490.6094,1086.0742 490.6094,1086.6836 L490.6094,1088.1367 Q490.6094,1088.7461 490.375,1089.0117 Q490.1406,1089.2773 489.7656,1089.2773 Q489.4219,1089.2773 489.2188,1089.0742 Q489.0156,1088.8867 488.9063,1088.3711 Q488.8594,1088.0117 488.6719,1087.8242 Q488.3438,1087.4492 487.7344,1087.2305 Q487.125,1087.0117 486.5,1087.0117 Q485.7344,1087.0117 485.0938,1087.3398 Q484.4688,1087.668 483.9688,1088.418 Q483.4844,1089.168 483.4844,1090.1992 L483.4844,1091.293 Q483.4844,1092.5273 484.375,1093.3555 Q485.2656,1094.168 486.8594,1094.168 Q487.7969,1094.168 488.4531,1093.918 Q488.8438,1093.7617 489.2656,1093.3242 Q489.5313,1093.0586 489.6719,1092.9805 Q489.8281,1092.9023 490.0313,1092.9023 Q490.3594,1092.9023 490.6094,1093.168 Q490.875,1093.418 490.875,1093.7617 Q490.875,1094.1055 490.5313,1094.5117 Q490.0313,1095.0898 489.2344,1095.418 Q488.1563,1095.8711 486.8594,1095.8711 Q485.3438,1095.8711 484.1406,1095.2461 Q483.1563,1094.7461 482.4688,1093.6836 Q481.7813,1092.6055 481.7813,1091.3242 L481.7813,1090.168 Q481.7813,1088.8398 482.3906,1087.6992 Q483.0156,1086.543 484.1094,1085.9336 Q485.2031,1085.3086 486.4375,1085.3086 Q487.1719,1085.3086 487.8125,1085.4805 Q488.4688,1085.6367 489.0156,1085.9961 Z " fill="#000000"/><text fill="#000000" font-family="sans-serif" font-size="14" lengthAdjust="spacing" textLength="30" x="506.75" y="1095.918">Date</text><line style="stroke:#181818;stroke-width:0.5;" x1="439.5" x2="571.5" y1="1106.1211" y2="1106.1211"/><text fill="#000000" font-family="sans-serif" font-size="14" lengthAdjust="spacing" textLength="47" x="444.5" y="1125.2285">-int day</text><text fill="#000000" font-family="sans-serif" font-size="14" lengthAdjust="spacing" textLength="63" x="444.5" y="1143.8496">-int month</text><text fill="#000000" font-family="sans-serif" font-size="14" lengthAdjust="spacing" textLength="52" x="444.5" y="1162.4707">-int year</text><line style="stroke:#181818;stroke-width:0.5;" x1="439.5" x2="571.5" y1="1169.9844" y2="1169.9844"/><text fill="#000000" font-family="sans-serif" font-size="14" lengthAdjust="spacing" textLength="113" x="444.5" y="1189.0918">+Date(dateString)</text><text fill="#000000" font-family="sans-serif" font-size="14" lengthAdjust="spacing" textLength="48" x="444.5" y="1207.7129">+Date()</text><text fill="#000000" font-family="sans-serif" font-size="14" lengthAdjust="spacing" textLength="95" x="444.5" y="1226.334">+setDate(date)</text><text fill="#000000" font-family="sans-serif" font-size="14" lengthAdjust="spacing" textLength="122" x="444.5" y="1244.9551">-validateDate(date)</text><text fill="#000000" font-family="sans-serif" font-size="14" lengthAdjust="spacing" textLength="22" x="444.5" y="1263.5762">...()</text></g><!--class CollaboratorRepository--><g id="elem_CollaboratorRepository"><rect codeLine="44" fill="#F1F1F1" height="178.3477" id="CollaboratorRepository" rx="2.5" ry="2.5" style="stroke:#181818;stroke-width:0.5;" width="398" x="449.5" y="486.6211"/><ellipse cx="571.25" cy="502.6211" fill="#ADD1B2" rx="11" ry="11" style="stroke:#181818;stroke-width:1.0;"/><path d="M574.0156,498.4961 Q574.1719,498.2773 574.3594,498.168 Q574.5469,498.0586 574.7656,498.0586 Q575.1406,498.0586 575.375,498.3242 Q575.6094,498.5742 575.6094,499.1836 L575.6094,500.6367 Q575.6094,501.2461 575.375,501.5117 Q575.1406,501.7773 574.7656,501.7773 Q574.4219,501.7773 574.2188,501.5742 Q574.0156,501.3867 573.9063,500.8711 Q573.8594,500.5117 573.6719,500.3242 Q573.3438,499.9492 572.7344,499.7305 Q572.125,499.5117 571.5,499.5117 Q570.7344,499.5117 570.0938,499.8398 Q569.4688,500.168 568.9688,500.918 Q568.4844,501.668 568.4844,502.6992 L568.4844,503.793 Q568.4844,505.0273 569.375,505.8555 Q570.2656,506.668 571.8594,506.668 Q572.7969,506.668 573.4531,506.418 Q573.8438,506.2617 574.2656,505.8242 Q574.5313,505.5586 574.6719,505.4805 Q574.8281,505.4023 575.0313,505.4023 Q575.3594,505.4023 575.6094,505.668 Q575.875,505.918 575.875,506.2617 Q575.875,506.6055 575.5313,507.0117 Q575.0313,507.5898 574.2344,507.918 Q573.1563,508.3711 571.8594,508.3711 Q570.3438,508.3711 569.1406,507.7461 Q568.1563,507.2461 567.4688,506.1836 Q566.7813,505.1055 566.7813,503.8242 L566.7813,502.668 Q566.7813,501.3398 567.3906,500.1992 Q568.0156,499.043 569.1094,498.4336 Q570.2031,497.8086 571.4375,497.8086 Q572.1719,497.8086 572.8125,497.9805 Q573.4688,498.1367 574.0156,498.4961 Z " fill="#000000"/><text fill="#000000" font-family="sans-serif" font-size="14" lengthAdjust="spacing" textLength="146" x="591.75" y="508.418">CollaboratorRepository</text><line style="stroke:#181818;stroke-width:0.5;" x1="450.5" x2="846.5" y1="518.6211" y2="518.6211"/><text fill="#000000" font-family="sans-serif" font-size="14" lengthAdjust="spacing" textLength="222" x="455.5" y="537.7285">-List&lt;Collaborator&gt; collaboratorList</text><line style="stroke:#181818;stroke-width:0.5;" x1="450.5" x2="846.5" y1="545.2422" y2="545.2422"/><text fill="#000000" font-family="sans-serif" font-size="14" lengthAdjust="spacing" textLength="164" x="455.5" y="564.3496">+CollaboratorRepository()</text><text fill="#000000" font-family="sans-serif" font-size="14" lengthAdjust="spacing" textLength="117" x="455.5" y="582.9707">+add(collaborator)</text><text fill="#000000" font-family="sans-serif" font-size="14" lengthAdjust="spacing" textLength="217" x="455.5" y="601.5918">-validateCollaborator(collaborator)</text><text fill="#000000" font-family="sans-serif" font-size="14" lengthAdjust="spacing" textLength="379" x="455.5" y="620.2129">+createCollaborator(name, birthdate, admissionDate, street,</text><text fill="#000000" font-family="sans-serif" font-size="14" lengthAdjust="spacing" textLength="386" x="455.5" y="638.834">streetNumber, postalCode, city, district, email, mobileNumber,</text><text fill="#000000" font-family="sans-serif" font-size="14" lengthAdjust="spacing" textLength="193" x="455.5" y="657.4551">idDocType, idDocNumber, job)</text></g><!--class JobRepository--><g id="elem_JobRepository"><rect codeLine="53" fill="#F1F1F1" height="85.2422" id="JobRepository" rx="2.5" ry="2.5" style="stroke:#181818;stroke-width:0.5;" width="122" x="261.5" y="533.1211"/><ellipse cx="276.5" cy="549.1211" fill="#ADD1B2" rx="11" ry="11" style="stroke:#181818;stroke-width:1.0;"/><path d="M279.2656,544.9961 Q279.4219,544.7773 279.6094,544.668 Q279.7969,544.5586 280.0156,544.5586 Q280.3906,544.5586 280.625,544.8242 Q280.8594,545.0742 280.8594,545.6836 L280.8594,547.1367 Q280.8594,547.7461 280.625,548.0117 Q280.3906,548.2773 280.0156,548.2773 Q279.6719,548.2773 279.4688,548.0742 Q279.2656,547.8867 279.1563,547.3711 Q279.1094,547.0117 278.9219,546.8242 Q278.5938,546.4492 277.9844,546.2305 Q277.375,546.0117 276.75,546.0117 Q275.9844,546.0117 275.3438,546.3398 Q274.7188,546.668 274.2188,547.418 Q273.7344,548.168 273.7344,549.1992 L273.7344,550.293 Q273.7344,551.5273 274.625,552.3555 Q275.5156,553.168 277.1094,553.168 Q278.0469,553.168 278.7031,552.918 Q279.0938,552.7617 279.5156,552.3242 Q279.7813,552.0586 279.9219,551.9805 Q280.0781,551.9023 280.2813,551.9023 Q280.6094,551.9023 280.8594,552.168 Q281.125,552.418 281.125,552.7617 Q281.125,553.1055 280.7813,553.5117 Q280.2813,554.0898 279.4844,554.418 Q278.4063,554.8711 277.1094,554.8711 Q275.5938,554.8711 274.3906,554.2461 Q273.4063,553.7461 272.7188,552.6836 Q272.0313,551.6055 272.0313,550.3242 L272.0313,549.168 Q272.0313,547.8398 272.6406,546.6992 Q273.2656,545.543 274.3594,544.9336 Q275.4531,544.3086 276.6875,544.3086 Q277.4219,544.3086 278.0625,544.4805 Q278.7188,544.6367 279.2656,544.9961 Z " fill="#000000"/><text fill="#000000" font-family="sans-serif" font-size="14" lengthAdjust="spacing" textLength="90" x="290.5" y="554.918">JobRepository</text><line style="stroke:#181818;stroke-width:0.5;" x1="262.5" x2="382.5" y1="565.1211" y2="565.1211"/><text fill="#000000" font-family="sans-serif" font-size="14" lengthAdjust="spacing" textLength="110" x="267.5" y="584.2285">-List&lt;Job&gt; jobList</text><line style="stroke:#181818;stroke-width:0.5;" x1="262.5" x2="382.5" y1="591.7422" y2="591.7422"/><text fill="#000000" font-family="sans-serif" font-size="14" lengthAdjust="spacing" textLength="82" x="267.5" y="610.8496">+getJobList()</text></g><!--class Repositories--><g id="elem_Repositories"><rect codeLine="59" fill="#F1F1F1" height="122.4844" id="Repositories" rx="2.5" ry="2.5" style="stroke:#181818;stroke-width:0.5;" width="196" x="370.5" y="303.6211"/><ellipse cx="424.75" cy="319.6211" fill="#ADD1B2" rx="11" ry="11" style="stroke:#181818;stroke-width:1.0;"/><path d="M427.5156,315.4961 Q427.6719,315.2773 427.8594,315.168 Q428.0469,315.0586 428.2656,315.0586 Q428.6406,315.0586 428.875,315.3242 Q429.1094,315.5742 429.1094,316.1836 L429.1094,317.6367 Q429.1094,318.2461 428.875,318.5117 Q428.6406,318.7773 428.2656,318.7773 Q427.9219,318.7773 427.7188,318.5742 Q427.5156,318.3867 427.4063,317.8711 Q427.3594,317.5117 427.1719,317.3242 Q426.8438,316.9492 426.2344,316.7305 Q425.625,316.5117 425,316.5117 Q424.2344,316.5117 423.5938,316.8398 Q422.9688,317.168 422.4688,317.918 Q421.9844,318.668 421.9844,319.6992 L421.9844,320.793 Q421.9844,322.0273 422.875,322.8555 Q423.7656,323.668 425.3594,323.668 Q426.2969,323.668 426.9531,323.418 Q427.3438,323.2617 427.7656,322.8242 Q428.0313,322.5586 428.1719,322.4805 Q428.3281,322.4023 428.5313,322.4023 Q428.8594,322.4023 429.1094,322.668 Q429.375,322.918 429.375,323.2617 Q429.375,323.6055 429.0313,324.0117 Q428.5313,324.5898 427.7344,324.918 Q426.6563,325.3711 425.3594,325.3711 Q423.8438,325.3711 422.6406,324.7461 Q421.6563,324.2461 420.9688,323.1836 Q420.2813,322.1055 420.2813,320.8242 L420.2813,319.668 Q420.2813,318.3398 420.8906,317.1992 Q421.5156,316.043 422.6094,315.4336 Q423.7031,314.8086 424.9375,314.8086 Q425.6719,314.8086 426.3125,314.9805 Q426.9688,315.1367 427.5156,315.4961 Z " fill="#000000"/><text fill="#000000" font-family="sans-serif" font-size="14" lengthAdjust="spacing" textLength="79" x="445.25" y="325.418">Repositories</text><line style="stroke:#181818;stroke-width:0.5;" x1="371.5" x2="565.5" y1="335.6211" y2="335.6211"/><line style="stroke:#181818;stroke-width:0.5;" x1="371.5" x2="565.5" y1="343.6211" y2="343.6211"/><text fill="#000000" font-family="sans-serif" font-size="14" lengthAdjust="spacing" textLength="94" x="376.5" y="362.7285">-Repositories()</text><text fill="#000000" font-family="sans-serif" font-size="14" lengthAdjust="spacing" textLength="182" x="376.5" y="381.3496">+getInstance() : Repositories</text><text fill="#000000" font-family="sans-serif" font-size="14" lengthAdjust="spacing" textLength="128" x="376.5" y="399.9707">+getJobRepository()</text><text fill="#000000" font-family="sans-serif" font-size="14" lengthAdjust="spacing" textLength="184" x="376.5" y="418.5918">+getCollaboratorRepository()</text></g><g id="elem_GMN8"><path d="M89,553.1211 L89,597.7031 A0,0 0 0 0 89,597.7031 L226,597.7031 A0,0 0 0 0 226,597.7031 L226,579.6211 L261.46,575.6211 L226,571.6211 L226,563.1211 L216,553.1211 L89,553.1211 A0,0 0 0 0 89,553.1211 " fill="#FEFFDD" style="stroke:#181818;stroke-width:0.5;"/><path d="M216,553.1211 L216,563.1211 L226,563.1211 L216,553.1211 " fill="#FEFFDD" style="stroke:#181818;stroke-width:0.5;"/><text fill="#000000" font-family="sans-serif" font-size="13" lengthAdjust="spacing" textLength="116" x="95" y="572.1494">- used for displaying</text><text fill="#000000" font-family="sans-serif" font-size="13" lengthAdjust="spacing" textLength="60" x="95" y="589.4404">the job list</text></g><!--class RegisterCollaboratorController--><g id="elem_RegisterCollaboratorController"><rect codeLine="71" fill="#F1F1F1" height="178.3477" id="RegisterCollaboratorController" rx="2.5" ry="2.5" style="stroke:#181818;stroke-width:0.5;" width="502" x="217.5" y="46.6211"/><ellipse cx="367.75" cy="62.6211" fill="#ADD1B2" rx="11" ry="11" style="stroke:#181818;stroke-width:1.0;"/><path d="M370.5156,58.4961 Q370.6719,58.2773 370.8594,58.168 Q371.0469,58.0586 371.2656,58.0586 Q371.6406,58.0586 371.875,58.3242 Q372.1094,58.5742 372.1094,59.1836 L372.1094,60.6367 Q372.1094,61.2461 371.875,61.5117 Q371.6406,61.7773 371.2656,61.7773 Q370.9219,61.7773 370.7188,61.5742 Q370.5156,61.3867 370.4063,60.8711 Q370.3594,60.5117 370.1719,60.3242 Q369.8438,59.9492 369.2344,59.7305 Q368.625,59.5117 368,59.5117 Q367.2344,59.5117 366.5938,59.8398 Q365.9688,60.168 365.4688,60.918 Q364.9844,61.668 364.9844,62.6992 L364.9844,63.793 Q364.9844,65.0273 365.875,65.8555 Q366.7656,66.668 368.3594,66.668 Q369.2969,66.668 369.9531,66.418 Q370.3438,66.2617 370.7656,65.8242 Q371.0313,65.5586 371.1719,65.4805 Q371.3281,65.4023 371.5313,65.4023 Q371.8594,65.4023 372.1094,65.668 Q372.375,65.918 372.375,66.2617 Q372.375,66.6055 372.0313,67.0117 Q371.5313,67.5898 370.7344,67.918 Q369.6563,68.3711 368.3594,68.3711 Q366.8438,68.3711 365.6406,67.7461 Q364.6563,67.2461 363.9688,66.1836 Q363.2813,65.1055 363.2813,63.8242 L363.2813,62.668 Q363.2813,61.3398 363.8906,60.1992 Q364.5156,59.043 365.6094,58.4336 Q366.7031,57.8086 367.9375,57.8086 Q368.6719,57.8086 369.3125,57.9805 Q369.9688,58.1367 370.5156,58.4961 Z " fill="#000000"/><text fill="#000000" font-family="sans-serif" font-size="14" lengthAdjust="spacing" textLength="193" x="388.25" y="68.418">RegisterCollaboratorController</text><line style="stroke:#181818;stroke-width:0.5;" x1="218.5" x2="718.5" y1="78.6211" y2="78.6211"/><line style="stroke:#181818;stroke-width:0.5;" x1="218.5" x2="718.5" y1="86.6211" y2="86.6211"/><text fill="#000000" font-family="sans-serif" font-size="14" lengthAdjust="spacing" textLength="449" x="223.5" y="105.7285">+RegisterCollaboratorController(jobRepository, collaboratorRepository)</text><text fill="#000000" font-family="sans-serif" font-size="14" lengthAdjust="spacing" textLength="211" x="223.5" y="124.3496">+RegisterCollaboratorController()</text><text fill="#000000" font-family="sans-serif" font-size="14" lengthAdjust="spacing" textLength="125" x="223.5" y="142.9707">-getJobRepository()</text><text fill="#000000" font-family="sans-serif" font-size="14" lengthAdjust="spacing" textLength="181" x="223.5" y="161.5918">-getCollaboratorRepository()</text><text fill="#000000" font-family="sans-serif" font-size="14" lengthAdjust="spacing" textLength="82" x="223.5" y="180.2129">+getJobList()</text><text fill="#000000" font-family="sans-serif" font-size="14" lengthAdjust="spacing" textLength="472" x="223.5" y="198.834">+createCollaborator(name, birthdate, admissionDate, street, streetNumber,</text><text fill="#000000" font-family="sans-serif" font-size="14" lengthAdjust="spacing" textLength="490" x="223.5" y="217.4551">postalCode, city, district, email, mobileNumber, idDocType, idDocNumber, job)</text></g><!--class RegisterCollaboratorUI--><g id="elem_RegisterCollaboratorUI"><rect codeLine="82" fill="#F1F1F1" height="178.3477" id="RegisterCollaboratorUI" rx="2.5" ry="2.5" style="stroke:#181818;stroke-width:0.5;" width="175" x="7" y="46.6211"/><ellipse cx="22" cy="62.6211" fill="#ADD1B2" rx="11" ry="11" style="stroke:#181818;stroke-width:1.0;"/><path d="M24.7656,58.4961 Q24.9219,58.2773 25.1094,58.168 Q25.2969,58.0586 25.5156,58.0586 Q25.8906,58.0586 26.125,58.3242 Q26.3594,58.5742 26.3594,59.1836 L26.3594,60.6367 Q26.3594,61.2461 26.125,61.5117 Q25.8906,61.7773 25.5156,61.7773 Q25.1719,61.7773 24.9688,61.5742 Q24.7656,61.3867 24.6563,60.8711 Q24.6094,60.5117 24.4219,60.3242 Q24.0938,59.9492 23.4844,59.7305 Q22.875,59.5117 22.25,59.5117 Q21.4844,59.5117 20.8438,59.8398 Q20.2188,60.168 19.7188,60.918 Q19.2344,61.668 19.2344,62.6992 L19.2344,63.793 Q19.2344,65.0273 20.125,65.8555 Q21.0156,66.668 22.6094,66.668 Q23.5469,66.668 24.2031,66.418 Q24.5938,66.2617 25.0156,65.8242 Q25.2813,65.5586 25.4219,65.4805 Q25.5781,65.4023 25.7813,65.4023 Q26.1094,65.4023 26.3594,65.668 Q26.625,65.918 26.625,66.2617 Q26.625,66.6055 26.2813,67.0117 Q25.7813,67.5898 24.9844,67.918 Q23.9063,68.3711 22.6094,68.3711 Q21.0938,68.3711 19.8906,67.7461 Q18.9063,67.2461 18.2188,66.1836 Q17.5313,65.1055 17.5313,63.8242 L17.5313,62.668 Q17.5313,61.3398 18.1406,60.1992 Q18.7656,59.043 19.8594,58.4336 Q20.9531,57.8086 22.1875,57.8086 Q22.9219,57.8086 23.5625,57.9805 Q24.2188,58.1367 24.7656,58.4961 Z " fill="#000000"/><text fill="#000000" font-family="sans-serif" font-size="14" lengthAdjust="spacing" textLength="143" x="36" y="68.418">RegisterCollaboratorUI</text><line style="stroke:#181818;stroke-width:0.5;" x1="8" x2="181" y1="78.6211" y2="78.6211"/><text fill="#000000" font-family="sans-serif" font-size="14" lengthAdjust="spacing" textLength="81" x="13" y="97.7285">-String name</text><text fill="#000000" font-family="sans-serif" font-size="14" lengthAdjust="spacing" textLength="102" x="13" y="116.3496">-String birthdate</text><text fill="#000000" font-family="sans-serif" font-size="14" lengthAdjust="spacing" textLength="12" x="13" y="134.9707">...</text><line style="stroke:#181818;stroke-width:0.5;" x1="8" x2="181" y1="142.4844" y2="142.4844"/><text fill="#000000" font-family="sans-serif" font-size="14" lengthAdjust="spacing" textLength="93" x="13" y="161.5918">-requestData()</text><text fill="#000000" font-family="sans-serif" font-size="14" lengthAdjust="spacing" textLength="145" x="13" y="180.2129">-displayAndSelectJob()</text><text fill="#000000" font-family="sans-serif" font-size="14" lengthAdjust="spacing" textLength="86" x="13" y="198.834">-submitData()</text><text fill="#000000" font-family="sans-serif" font-size="14" lengthAdjust="spacing" textLength="22" x="13" y="217.4551">...()</text></g><!--class Email--><g id="elem_Email"><rect codeLine="93" fill="#F1F1F1" height="178.3477" id="Email" rx="2.5" ry="2.5" style="stroke:#181818;stroke-width:0.5;" width="143" x="608" y="1083.6211"/><ellipse cx="658.25" cy="1099.6211" fill="#ADD1B2" rx="11" ry="11" style="stroke:#181818;stroke-width:1.0;"/><path d="M661.0156,1095.4961 Q661.1719,1095.2773 661.3594,1095.168 Q661.5469,1095.0586 661.7656,1095.0586 Q662.1406,1095.0586 662.375,1095.3242 Q662.6094,1095.5742 662.6094,1096.1836 L662.6094,1097.6367 Q662.6094,1098.2461 662.375,1098.5117 Q662.1406,1098.7773 661.7656,1098.7773 Q661.4219,1098.7773 661.2188,1098.5742 Q661.0156,1098.3867 660.9063,1097.8711 Q660.8594,1097.5117 660.6719,1097.3242 Q660.3438,1096.9492 659.7344,1096.7305 Q659.125,1096.5117 658.5,1096.5117 Q657.7344,1096.5117 657.0938,1096.8398 Q656.4688,1097.168 655.9688,1097.918 Q655.4844,1098.668 655.4844,1099.6992 L655.4844,1100.793 Q655.4844,1102.0273 656.375,1102.8555 Q657.2656,1103.668 658.8594,1103.668 Q659.7969,1103.668 660.4531,1103.418 Q660.8438,1103.2617 661.2656,1102.8242 Q661.5313,1102.5586 661.6719,1102.4805 Q661.8281,1102.4023 662.0313,1102.4023 Q662.3594,1102.4023 662.6094,1102.668 Q662.875,1102.918 662.875,1103.2617 Q662.875,1103.6055 662.5313,1104.0117 Q662.0313,1104.5898 661.2344,1104.918 Q660.1563,1105.3711 658.8594,1105.3711 Q657.3438,1105.3711 656.1406,1104.7461 Q655.1563,1104.2461 654.4688,1103.1836 Q653.7813,1102.1055 653.7813,1100.8242 L653.7813,1099.668 Q653.7813,1098.3398 654.3906,1097.1992 Q655.0156,1096.043 656.1094,1095.4336 Q657.2031,1094.8086 658.4375,1094.8086 Q659.1719,1094.8086 659.8125,1094.9805 Q660.4688,1095.1367 661.0156,1095.4961 Z " fill="#000000"/><text fill="#000000" font-family="sans-serif" font-size="14" lengthAdjust="spacing" textLength="34" x="678.75" y="1105.418">Email</text><line style="stroke:#181818;stroke-width:0.5;" x1="609" x2="750" y1="1115.6211" y2="1115.6211"/><text fill="#000000" font-family="sans-serif" font-size="14" lengthAdjust="spacing" textLength="79" x="614" y="1134.7285">-String email</text><line style="stroke:#181818;stroke-width:0.5;" x1="609" x2="750" y1="1142.2422" y2="1142.2422"/><text fill="#000000" font-family="sans-serif" font-size="14" lengthAdjust="spacing" textLength="85" x="614" y="1161.3496">+Email(email)</text><text fill="#000000" font-family="sans-serif" font-size="14" lengthAdjust="spacing" textLength="72" x="614" y="1179.9707">+getEmail()</text><text fill="#000000" font-family="sans-serif" font-size="14" lengthAdjust="spacing" textLength="104" x="614" y="1198.5918">+setEmail(email)</text><text fill="#000000" font-family="sans-serif" font-size="14" lengthAdjust="spacing" textLength="131" x="614" y="1217.2129">-validateEmail(email)</text><text fill="#000000" font-family="sans-serif" font-size="14" lengthAdjust="spacing" textLength="67" x="614" y="1235.834">+toString()</text><text fill="#000000" font-family="sans-serif" font-size="14" lengthAdjust="spacing" textLength="52" x="614" y="1254.4551">+clone()</text></g><!--class Address--><g id="elem_Address"><rect codeLine="104" fill="#F1F1F1" height="234.2109" id="Address" rx="2.5" ry="2.5" style="stroke:#181818;stroke-width:0.5;" width="369" x="786" y="1055.6211"/><ellipse cx="940.25" cy="1071.6211" fill="#ADD1B2" rx="11" ry="11" style="stroke:#181818;stroke-width:1.0;"/><path d="M943.0156,1067.4961 Q943.1719,1067.2773 943.3594,1067.168 Q943.5469,1067.0586 943.7656,1067.0586 Q944.1406,1067.0586 944.375,1067.3242 Q944.6094,1067.5742 944.6094,1068.1836 L944.6094,1069.6367 Q944.6094,1070.2461 944.375,1070.5117 Q944.1406,1070.7773 943.7656,1070.7773 Q943.4219,1070.7773 943.2188,1070.5742 Q943.0156,1070.3867 942.9063,1069.8711 Q942.8594,1069.5117 942.6719,1069.3242 Q942.3438,1068.9492 941.7344,1068.7305 Q941.125,1068.5117 940.5,1068.5117 Q939.7344,1068.5117 939.0938,1068.8398 Q938.4688,1069.168 937.9688,1069.918 Q937.4844,1070.668 937.4844,1071.6992 L937.4844,1072.793 Q937.4844,1074.0273 938.375,1074.8555 Q939.2656,1075.668 940.8594,1075.668 Q941.7969,1075.668 942.4531,1075.418 Q942.8438,1075.2617 943.2656,1074.8242 Q943.5313,1074.5586 943.6719,1074.4805 Q943.8281,1074.4023 944.0313,1074.4023 Q944.3594,1074.4023 944.6094,1074.668 Q944.875,1074.918 944.875,1075.2617 Q944.875,1075.6055 944.5313,1076.0117 Q944.0313,1076.5898 943.2344,1076.918 Q942.1563,1077.3711 940.8594,1077.3711 Q939.3438,1077.3711 938.1406,1076.7461 Q937.1563,1076.2461 936.4688,1075.1836 Q935.7813,1074.1055 935.7813,1072.8242 L935.7813,1071.668 Q935.7813,1070.3398 936.3906,1069.1992 Q937.0156,1068.043 938.1094,1067.4336 Q939.2031,1066.8086 940.4375,1066.8086 Q941.1719,1066.8086 941.8125,1066.9805 Q942.4688,1067.1367 943.0156,1067.4961 Z " fill="#000000"/><text fill="#000000" font-family="sans-serif" font-size="14" lengthAdjust="spacing" textLength="52" x="960.75" y="1077.418">Address</text><line style="stroke:#181818;stroke-width:0.5;" x1="787" x2="1154" y1="1087.6211" y2="1087.6211"/><text fill="#000000" font-family="sans-serif" font-size="14" lengthAdjust="spacing" textLength="82" x="792" y="1106.7285">-String street</text><text fill="#000000" font-family="sans-serif" font-size="14" lengthAdjust="spacing" textLength="109" x="792" y="1125.3496">-int streetNumber</text><text fill="#000000" font-family="sans-serif" font-size="14" lengthAdjust="spacing" textLength="118" x="792" y="1143.9707">-String postalCode</text><text fill="#000000" font-family="sans-serif" font-size="14" lengthAdjust="spacing" textLength="67" x="792" y="1162.5918">-String city</text><text fill="#000000" font-family="sans-serif" font-size="14" lengthAdjust="spacing" textLength="87" x="792" y="1181.2129">-String district</text><line style="stroke:#181818;stroke-width:0.5;" x1="787" x2="1154" y1="1188.7266" y2="1188.7266"/><text fill="#000000" font-family="sans-serif" font-size="14" lengthAdjust="spacing" textLength="357" x="792" y="1207.834">+Address(street, streetNumber, postalCode, city, district)</text><text fill="#000000" font-family="sans-serif" font-size="14" lengthAdjust="spacing" textLength="76" x="792" y="1226.4551">+getStreet()</text><text fill="#000000" font-family="sans-serif" font-size="14" lengthAdjust="spacing" textLength="111" x="792" y="1245.0762">+setStreet(street)</text><text fill="#000000" font-family="sans-serif" font-size="14" lengthAdjust="spacing" textLength="125" x="792" y="1263.6973">+getStreetNumber()</text><text fill="#000000" font-family="sans-serif" font-size="14" lengthAdjust="spacing" textLength="22" x="792" y="1282.3184">...()</text></g><!--link RegisterCollaboratorUI to RegisterCollaboratorController--><g id="link_RegisterCollaboratorUI_RegisterCollaboratorController"><path codeLine="118" d="M182.1,135.6211 C198.67,135.6211 206.37,135.6211 211.25,135.6211 " fill="none" id="RegisterCollaboratorUI-to-RegisterCollaboratorController" style="stroke:#181818;stroke-width:1.0;stroke-dasharray:7.0,7.0;"/><polygon fill="#181818" points="217.25,135.6211,208.25,131.6211,212.25,135.6211,208.25,139.6211,217.25,135.6211" style="stroke:#181818;stroke-width:1.0;"/></g><!--link RegisterCollaboratorController to CollaboratorRepository--><g id="link_RegisterCollaboratorController_CollaboratorRepository"><path codeLine="119" d="M571.42,224.7711 C618.3,264.9111 663.5,303.6211 663.5,303.6211 C663.5,303.6211 663.5,425.6211 663.5,425.6211 C663.5,425.6211 661.2311,448.1713 658.0011,480.2513 " fill="none" id="RegisterCollaboratorController-to-CollaboratorRepository" style="stroke:#181818;stroke-width:1.0;stroke-dasharray:7.0,7.0;"/><polygon fill="#181818" points="657.4,486.2211,662.2815,477.6671,657.9009,481.2462,654.3217,476.8657,657.4,486.2211" style="stroke:#181818;stroke-width:1.0;"/><text fill="#000000" font-family="sans-serif" font-size="13" lengthAdjust="spacing" textLength="129" x="664.5" y="370.1494">collaboratorRepository</text><text fill="#000000" font-family="sans-serif" font-size="13" lengthAdjust="spacing" textLength="7" x="650.8303" y="475.4458">1</text></g><!--link CollaboratorRepository to Collaborator--><g id="link_CollaboratorRepository_Collaborator"><path codeLine="120" d="M648.5,664.8211 C648.5,689.8511 648.5,711.3911 648.5,737.4111 " fill="none" id="CollaboratorRepository-to-Collaborator" style="stroke:#181818;stroke-width:1.0;"/><polygon fill="#181818" points="648.5,743.4111,652.5,734.4111,648.5,738.4111,644.5,734.4111,648.5,743.4111" style="stroke:#181818;stroke-width:1.0;"/><text fill="#000000" font-family="sans-serif" font-size="13" lengthAdjust="spacing" textLength="67" x="649.5" y="709.6494">collaborator</text><text fill="#000000" font-family="sans-serif" font-size="13" lengthAdjust="spacing" textLength="7" x="641.2102" y="686.9379">1</text><text fill="#000000" font-family="sans-serif" font-size="13" lengthAdjust="spacing" textLength="5" x="643.3242" y="732.2579">*</text></g><!--link RegisterCollaboratorController to JobRepository--><g id="link_RegisterCollaboratorController_JobRepository"><path codeLine="121" d="M364.52,224.7711 C317.16,264.9111 271.5,303.6211 271.5,303.6211 C271.5,303.6211 271.5,425.6211 271.5,425.6211 C271.5,425.6211 291.2571,483.3544 306.3471,527.4444 " fill="none" id="RegisterCollaboratorController-to-JobRepository" style="stroke:#181818;stroke-width:1.0;stroke-dasharray:7.0,7.0;"/><polygon fill="#181818" points="308.29,533.1211,309.1602,523.3108,306.6709,528.3905,301.5912,525.9013,308.29,533.1211" style="stroke:#181818;stroke-width:1.0;"/><text fill="#000000" font-family="sans-serif" font-size="13" lengthAdjust="spacing" textLength="79" x="272.5" y="370.1494">jobRepository</text></g><!--link JobRepository to Job--><g id="link_JobRepository_Job"><path codeLine="122" d="M322.5,618.4611 C322.5,719.3711 322.5,971.0211 322.5,1095.8011 " fill="none" id="JobRepository-to-Job" style="stroke:#181818;stroke-width:1.0;"/><polygon fill="#181818" points="322.5,1101.8011,326.5,1092.8011,322.5,1096.8011,318.5,1092.8011,322.5,1101.8011" style="stroke:#181818;stroke-width:1.0;"/><text fill="#000000" font-family="sans-serif" font-size="13" lengthAdjust="spacing" textLength="17" x="323.5" y="857.1494">job</text><text fill="#000000" font-family="sans-serif" font-size="13" lengthAdjust="spacing" textLength="7" x="314.9641" y="640.3546">1</text><text fill="#000000" font-family="sans-serif" font-size="13" lengthAdjust="spacing" textLength="5" x="317.2422" y="1090.6591">*</text></g><!--reverse link Collaborator to Job--><g id="link_Collaborator_Job"><path codeLine="123" d="M519.745,967.7703 C465.175,1016.5703 421.5,1055.6211 421.5,1055.6211 C421.5,1055.6211 403.05,1077.2311 382.09,1101.8011 " fill="none" id="Collaborator-backto-Job" style="stroke:#181818;stroke-width:1.0;"/><polygon fill="none" points="528.69,959.7711,521.5511,960.789,519.745,967.7703,526.8839,966.7524,528.69,959.7711" style="stroke:#181818;stroke-width:1.0;"/><text fill="#000000" font-family="sans-serif" font-size="13" lengthAdjust="spacing" textLength="17" x="495.5" y="1013.1494">job</text><text fill="#000000" font-family="sans-serif" font-size="13" lengthAdjust="spacing" textLength="7" x="380.8743" y="1090.6591">1</text></g><!--reverse link Collaborator to Email--><g id="link_Collaborator_Email"><path codeLine="124" d="M660.0693,971.675 C663.9693,1011.855 667.2,1045.0911 670.92,1083.3711 " fill="none" id="Collaborator-backto-Email" style="stroke:#181818;stroke-width:1.0;"/><polygon fill="#181818" points="658.91,959.7311,655.5084,966.0895,660.0693,971.675,663.4709,965.3166,658.91,959.7311" style="stroke:#181818;stroke-width:1.0;"/><text fill="#000000" font-family="sans-serif" font-size="13" lengthAdjust="spacing" textLength="31" x="665.5" y="1013.1494">email</text><text fill="#000000" font-family="sans-serif" font-size="13" lengthAdjust="spacing" textLength="7" x="662.9196" y="1072.3021">1</text></g><!--reverse link Collaborator to Address--><g id="link_Collaborator_Address"><path codeLine="125" d="M765.145,968.1765 C796.205,998.9465 821.69,1024.2011 853.27,1055.4811 " fill="none" id="Collaborator-backto-Address" style="stroke:#181818;stroke-width:1.0;"/><polygon fill="#181818" points="756.62,959.7311,758.0674,966.7955,765.145,968.1765,763.6976,961.1121,756.62,959.7311" style="stroke:#181818;stroke-width:1.0;"/><text fill="#000000" font-family="sans-serif" font-size="13" lengthAdjust="spacing" textLength="46" x="819.5" y="1013.1494">address</text><text fill="#000000" font-family="sans-serif" font-size="13" lengthAdjust="spacing" textLength="7" x="838.5357" y="1044.4632">1</text></g><!--reverse link Collaborator to Date--><g id="link_Collaborator_Date"><path codeLine="126" d="M577.2943,970.1559 C566.7943,987.4959 565.5,989.6211 565.5,989.6211 C565.5,989.6211 551.93,1030.7911 537.7,1073.9611 " fill="none" id="Collaborator-backto-Date" style="stroke:#181818;stroke-width:1.0;"/><polygon fill="#181818" points="583.51,959.8911,576.9806,962.9516,577.2943,970.1559,583.8237,967.0954,583.51,959.8911" style="stroke:#181818;stroke-width:1.0;"/><text fill="#000000" font-family="sans-serif" font-size="13" lengthAdjust="spacing" textLength="58" x="580.5" y="1004.6494">birthdate /</text><text fill="#000000" font-family="sans-serif" font-size="13" lengthAdjust="spacing" textLength="86" x="566.5" y="1021.9404">admissionDate</text><text fill="#000000" font-family="sans-serif" font-size="13" lengthAdjust="spacing" textLength="7" x="532.8973" y="1062.7973">1</text></g><!--link RegisterCollaboratorController to Repositories--><g id="link_RegisterCollaboratorController_Repositories"><path codeLine="127" d="M468.5,224.7111 C468.5,251.0011 468.5,273.2211 468.5,297.3011 " fill="none" id="RegisterCollaboratorController-to-Repositories" style="stroke:#181818;stroke-width:1.0;stroke-dasharray:7.0,7.0;"/><polygon fill="#181818" points="468.5,303.3011,472.5,294.3011,468.5,298.3011,464.5,294.3011,468.5,303.3011" style="stroke:#181818;stroke-width:1.0;"/><text fill="#000000" font-family="sans-serif" font-size="13" lengthAdjust="spacing" textLength="67" x="469.5" y="269.6494">repositories</text></g><!--link Repositories to JobRepository--><g id="link_Repositories_JobRepository"><path codeLine="128" d="M426.47,425.7911 C402.46,460.1611 376.3958,497.4622 354.9658,528.1422 " fill="none" id="Repositories-to-JobRepository" style="stroke:#181818;stroke-width:1.0;"/><polygon fill="#181818" points="351.53,533.0611,359.963,527.9734,354.3932,528.962,353.4045,523.3923,351.53,533.0611" style="stroke:#181818;stroke-width:1.0;"/><text fill="#000000" font-family="sans-serif" font-size="13" lengthAdjust="spacing" textLength="7" x="348.5988" y="521.9556">1</text></g><!--link Repositories to CollaboratorRepository--><g id="link_Repositories_CollaboratorRepository"><path codeLine="129" d="M520.32,425.7911 C536.63,444.7211 551.0759,461.4936 568.6859,481.9536 " fill="none" id="Repositories-to-CollaboratorRepository" style="stroke:#181818;stroke-width:1.0;"/><polygon fill="#181818" points="572.6,486.5011,569.7606,477.0704,569.3383,482.7115,563.6972,482.2892,572.6,486.5011" style="stroke:#181818;stroke-width:1.0;"/><text fill="#000000" font-family="sans-serif" font-size="13" lengthAdjust="spacing" textLength="7" x="559.0247" y="475.4429">1</text></g><!--link Repositories to Repositories--><g id="link_Repositories_Repositories"><path codeLine="130" d="M566.52,348.3411 C586.87,350.0511 601.5,355.4811 601.5,364.6211 C601.5,373.7611 592.8489,378.6887 572.4989,380.3987 " fill="none" id="Repositories-to-Repositories" style="stroke:#181818;stroke-width:1.0;"/><polygon fill="#181818" points="566.52,380.9011,575.8233,384.1334,571.5024,380.4824,575.1535,376.1615,566.52,380.9011" style="stroke:#181818;stroke-width:1.0;"/><text fill="#000000" font-family="sans-serif" font-size="13" lengthAdjust="spacing" textLength="49" x="607.5" y="370.1494">instance</text></g><!--SRC=[pLR1SjiW4Btp5KmkaHF9JQStJySpgTD3CfqUwkRc2vAmJ8F01ToEsic_Tn520bbsqkcbFi7kOtcx-xJuKZyniIUArBYMGXOx9MkAZJfGD7Zsf7WY5LsRXbEiQ668g7W8q3jIofzCL7XBk0uzd0bgcZt5UyaRkq6N4qwfZ4J1gO8JhM-DKIm_67fVIB5cloY-GOOPeF2ulhbvXpEyiZ1ynqW5Xn1gJ-6Lv9paKX4Z5VwDiFrbU0snW9uWDHsPQfapJZyVwfmgvvhFvyYjhgDeYJsTufmfiok9WIKfQwOra-AktMgZA3NfHhY5Yvb2wjeGlf8bG0fccXIN312iC2ccDM4yZKZ0ULRUoU8hL2R5xT97-YRpcMTMmGN09maD7pmrRuLKO8cUVN4UPDxLfCyVOjeuBkDhYqWwqwmpQMeUd6NiARWK_guC_o2SsSkZ4CFTjaRzvKmON98cs87yp2xODvGeJyeUJMnentaMcWEMFMpCQEHmLNcUKimN2jrYi6Wyqq_Gg_SXP8cBO6VTdkPqe9uXASiaF3fc6Mdj60ZbLdGC-pya6UfhI1n79GJNqgB3WbMjigmbx4SVWL7TnmYDVKNX_3raHaG1Ei2B21HTCT4DS9pi5r0H4jJAwTPWkOtJwWWTD2tn5cOCL6xFIGEwR3rcHssQCDmWJofAR2CDgLLWfYgyUGN2Lx2dTbnrvCxZxDSry4aZFGxssUjYUHMUA5Hsjb0JRVnNgU98gHlnjrB5PvKQgkouB8_tu-dOFnYzfKy0HMz51W_ZzmFLTWYHldQTDcv5kQOS7aux6hrF7_AQXV3HMFfeanlHQHFs8ca1IMiAEk6imLGyWWqJPoA2aUwgP3pZUrwtPQcerYDchcl1_0xR64E7ZiPssztOuZljC-wkJYQbScQe1ULPjqV2-dGM5-i8wOAFEtH2F7F5gfsPBr_uvj0BOs0E4IxUNfnuJs3EJN_mw0GUGcNmzqna4FKgZZgAzHfYyOXVu6WMeTXhRywMzbBxnwF5HYInpB8sqnFkgooptbQcu7Vgdq9qmW0CSQj9LFiFP35ymVZDHaH3w3NvHw_J0hxwuCc9V5cszBa51Pg4J3TkX3swcdLF7q9_0000]--></g></svg>