<?xml version="1.0" encoding="us-ascii" standalone="no"?><svg xmlns="http://www.w3.org/2000/svg" xmlns:xlink="http://www.w3.org/1999/xlink" contentStyleType="text/css" height="948px" preserveAspectRatio="none" style="width:424px;height:948px;background:#FFFFFF;" version="1.1" viewBox="0 0 424 948" width="424px" zoomAndPan="magnify"><defs/><g><!--class RegisterCollaboratorUI--><g id="elem_RegisterCollaboratorUI"><rect codeLine="9" fill="#F1F1F1" height="927.1914" id="RegisterCollaboratorUI" rx="2.5" ry="2.5" style="stroke:#181818;stroke-width:0.5;" width="403" x="7" y="7"/><ellipse cx="132.75" cy="23" fill="#ADD1B2" rx="11" ry="11" style="stroke:#181818;stroke-width:1.0;"/><path d="M135.5156,18.875 Q135.6719,18.6563 135.8594,18.5469 Q136.0469,18.4375 136.2656,18.4375 Q136.6406,18.4375 136.875,18.7031 Q137.1094,18.9531 137.1094,19.5625 L137.1094,21.0156 Q137.1094,21.625 136.875,21.8906 Q136.6406,22.1563 136.2656,22.1563 Q135.9219,22.1563 135.7188,21.9531 Q135.5156,21.7656 135.4063,21.25 Q135.3594,20.8906 135.1719,20.7031 Q134.8438,20.3281 134.2344,20.1094 Q133.625,19.8906 133,19.8906 Q132.2344,19.8906 131.5938,20.2188 Q130.9688,20.5469 130.4688,21.2969 Q129.9844,22.0469 129.9844,23.0781 L129.9844,24.1719 Q129.9844,25.4063 130.875,26.2344 Q131.7656,27.0469 133.3594,27.0469 Q134.2969,27.0469 134.9531,26.7969 Q135.3438,26.6406 135.7656,26.2031 Q136.0313,25.9375 136.1719,25.8594 Q136.3281,25.7813 136.5313,25.7813 Q136.8594,25.7813 137.1094,26.0469 Q137.375,26.2969 137.375,26.6406 Q137.375,26.9844 137.0313,27.3906 Q136.5313,27.9688 135.7344,28.2969 Q134.6563,28.75 133.3594,28.75 Q131.8438,28.75 130.6406,28.125 Q129.6563,27.625 128.9688,26.5625 Q128.2813,25.4844 128.2813,24.2031 L128.2813,23.0469 Q128.2813,21.7188 128.8906,20.5781 Q129.5156,19.4219 130.6094,18.8125 Q131.7031,18.1875 132.9375,18.1875 Q133.6719,18.1875 134.3125,18.3594 Q134.9688,18.5156 135.5156,18.875 Z " fill="#000000"/><text fill="#000000" font-family="sans-serif" font-size="14" lengthAdjust="spacing" textLength="143" x="153.25" y="28.7969">RegisterCollaboratorUI</text><line style="stroke:#181818;stroke-width:0.5;" x1="8" x2="409" y1="39" y2="39"/><text fill="#000000" font-family="sans-serif" font-size="14" lengthAdjust="spacing" textLength="85" x="13" y="58.1074">-String name;</text><text fill="#000000" font-family="sans-serif" font-size="14" lengthAdjust="spacing" textLength="106" x="13" y="76.7285">-String birthdate;</text><text fill="#000000" font-family="sans-serif" font-size="14" lengthAdjust="spacing" textLength="143" x="13" y="95.3496">-String admissionDate;</text><text fill="#000000" font-family="sans-serif" font-size="14" lengthAdjust="spacing" textLength="86" x="13" y="113.9707">-String street;</text><text fill="#000000" font-family="sans-serif" font-size="14" lengthAdjust="spacing" textLength="113" x="13" y="132.5918">-int streetNumber;</text><text fill="#000000" font-family="sans-serif" font-size="14" lengthAdjust="spacing" textLength="122" x="13" y="151.2129">-String postalCode;</text><text fill="#000000" font-family="sans-serif" font-size="14" lengthAdjust="spacing" textLength="71" x="13" y="169.834">-String city;</text><text fill="#000000" font-family="sans-serif" font-size="14" lengthAdjust="spacing" textLength="91" x="13" y="188.4551">-String district;</text><text fill="#000000" font-family="sans-serif" font-size="14" lengthAdjust="spacing" textLength="83" x="13" y="207.0762">-String email;</text><text fill="#000000" font-family="sans-serif" font-size="14" lengthAdjust="spacing" textLength="140" x="13" y="225.6973">-String mobileNumber;</text><text fill="#000000" font-family="sans-serif" font-size="14" lengthAdjust="spacing" textLength="149" x="13" y="244.3184">-IdDocType idDocType;</text><text fill="#000000" font-family="sans-serif" font-size="14" lengthAdjust="spacing" textLength="135" x="13" y="262.9395">-String idDocNumber;</text><text fill="#000000" font-family="sans-serif" font-size="14" lengthAdjust="spacing" textLength="54" x="13" y="281.5605">-Job job;</text><text fill="#000000" font-family="sans-serif" font-size="14" lengthAdjust="spacing" textLength="161" x="13" y="322.8027">+RegisterCollaboratorUI()</text><text fill="#000000" font-family="sans-serif" font-size="14" lengthAdjust="spacing" textLength="231" x="13" y="341.4238">+getRegisterCollaboratorController()</text><text fill="#000000" font-family="sans-serif" font-size="14" lengthAdjust="spacing" textLength="39" x="13" y="360.0449">+run()</text><text fill="#000000" font-family="sans-serif" font-size="14" lengthAdjust="spacing" textLength="86" x="13" y="378.666">-submitData()</text><text fill="#000000" font-family="sans-serif" font-size="14" lengthAdjust="spacing" textLength="145" x="13" y="397.2871">-displayAndSelectJob()</text><text fill="#000000" font-family="sans-serif" font-size="14" lengthAdjust="spacing" textLength="171" x="13" y="415.9082">-displayJobOptions(jobList)</text><line style="stroke:#181818;stroke-width:1.0;" x1="8" x2="181.5" y1="298.3848" y2="298.3848"/><text fill="#000000" font-family="sans-serif" font-size="14" lengthAdjust="spacing" textLength="54" x="181.5" y="303.6816">Methods</text><line style="stroke:#181818;stroke-width:1.0;" x1="235.5" x2="409" y1="298.3848" y2="298.3848"/><text fill="#000000" font-family="sans-serif" font-size="14" lengthAdjust="spacing" textLength="93" x="13" y="457.1504">-requestData()</text><text fill="#000000" font-family="sans-serif" font-size="14" lengthAdjust="spacing" textLength="99" x="13" y="475.7715">-requestName()</text><text fill="#000000" font-family="sans-serif" font-size="14" lengthAdjust="spacing" textLength="120" x="13" y="494.3926">-requestBirthdate()</text><text fill="#000000" font-family="sans-serif" font-size="14" lengthAdjust="spacing" textLength="157" x="13" y="513.0137">-requestAdmissionDate()</text><text fill="#000000" font-family="sans-serif" font-size="14" lengthAdjust="spacing" textLength="101" x="13" y="531.6348">-requestStreet()</text><text fill="#000000" font-family="sans-serif" font-size="14" lengthAdjust="spacing" textLength="150" x="13" y="550.2559">-requestStreetNumber()</text><text fill="#000000" font-family="sans-serif" font-size="14" lengthAdjust="spacing" textLength="136" x="13" y="568.877">-requestPostalCode()</text><text fill="#000000" font-family="sans-serif" font-size="14" lengthAdjust="spacing" textLength="87" x="13" y="587.498">-requestCity()</text><text fill="#000000" font-family="sans-serif" font-size="14" lengthAdjust="spacing" textLength="106" x="13" y="606.1191">-requestDistrict()</text><text fill="#000000" font-family="sans-serif" font-size="14" lengthAdjust="spacing" textLength="97" x="13" y="624.7402">-requestEmail()</text><text fill="#000000" font-family="sans-serif" font-size="14" lengthAdjust="spacing" textLength="153" x="13" y="643.3613">-requestMobileNumber()</text><text fill="#000000" font-family="sans-serif" font-size="14" lengthAdjust="spacing" textLength="131" x="13" y="661.9824">-requestIdDocType()</text><text fill="#000000" font-family="sans-serif" font-size="14" lengthAdjust="spacing" textLength="148" x="13" y="680.6035">-requestIdDocNumber()</text><line style="stroke:#181818;stroke-width:1.0;stroke-dasharray:1.0,2.0;" x1="8" x2="134" y1="432.7324" y2="432.7324"/><text fill="#000000" font-family="sans-serif" font-size="14" lengthAdjust="spacing" textLength="149" x="134" y="438.0293">Request Data Methods:</text><line style="stroke:#181818;stroke-width:1.0;stroke-dasharray:1.0,2.0;" x1="283" x2="409" y1="432.7324" y2="432.7324"/><text fill="#000000" font-family="sans-serif" font-size="14" lengthAdjust="spacing" textLength="135" x="13" y="721.8457">-validateName(name)</text><text fill="#000000" font-family="sans-serif" font-size="14" lengthAdjust="spacing" textLength="317" x="13" y="740.4668">-validateBirthdate(birthdate) - not implemented yet</text><text fill="#000000" font-family="sans-serif" font-size="14" lengthAdjust="spacing" textLength="391" x="13" y="759.0879">-validateAdmissionDate(admissionDate) - not implemented yet</text><text fill="#000000" font-family="sans-serif" font-size="14" lengthAdjust="spacing" textLength="138" x="13" y="777.709">-validateStreet(street)</text><text fill="#000000" font-family="sans-serif" font-size="14" lengthAdjust="spacing" textLength="199" x="13" y="796.3301">-validateStreetNumber(number)</text><text fill="#000000" font-family="sans-serif" font-size="14" lengthAdjust="spacing" textLength="209" x="13" y="814.9512">-validatePostalCode(postalCode)</text><text fill="#000000" font-family="sans-serif" font-size="14" lengthAdjust="spacing" textLength="109" x="13" y="833.5723">-validateCity(city)</text><text fill="#000000" font-family="sans-serif" font-size="14" lengthAdjust="spacing" textLength="148" x="13" y="852.1934">-validateDistrict(district)</text><text fill="#000000" font-family="sans-serif" font-size="14" lengthAdjust="spacing" textLength="131" x="13" y="870.8145">-validateEmail(email)</text><text fill="#000000" font-family="sans-serif" font-size="14" lengthAdjust="spacing" textLength="244" x="13" y="889.4355">-validateMobileNumber(mobileNumber)</text><text fill="#000000" font-family="sans-serif" font-size="14" lengthAdjust="spacing" textLength="310" x="13" y="908.0566">-validateIdDocNumber(idDocNumber, idDocType)</text><text fill="#000000" font-family="sans-serif" font-size="14" lengthAdjust="spacing" textLength="4" x="13" y="926.6777">&#160;</text><line style="stroke:#181818;stroke-width:1.0;stroke-dasharray:1.0,2.0;" x1="8" x2="117.5" y1="697.4277" y2="697.4277"/><text fill="#000000" font-family="sans-serif" font-size="14" lengthAdjust="spacing" textLength="182" x="117.5" y="702.7246">Validate Input Data Methods:</text><line style="stroke:#181818;stroke-width:1.0;stroke-dasharray:1.0,2.0;" x1="299.5" x2="409" y1="697.4277" y2="697.4277"/></g><!--SRC=[ZLJ1ajCm3BtdAtpRpK1tECEfj1pAi0j3WBkJYDIiRGLRWGaC_uwIk6aYiZFqKlizIRQVdd8J7urlTT1EEVHOdGCwK1GwoAvCgwj7tK11lGKLe2Bj6xiCY6TTuq_Z6_LLsxXahF50VGkgHTiFc-ncWyH0c2soAgjZt1C5KtO4fmfzONw1Uf5b8wC-GcCYGJYWjRh4e0d3vvFwdId-xLJ1YNmNhnsyMaEb2NIkDKbSryx4QD0V_-KY1G2wWCPJGXuwLq8GmIr6qlQ0jQnI6Ue5LFCRWgb8mE2qiG9pM1eBwnDFzH6hJuDyvh8IMIE-JdgBfVg6PThkr3tG6Ul8on5vzeIqjtcY6w2jY0Dw2ho7C4U6pgVrJiMkT8POMpr3_FZMwdxlwm8iMuel9Zc6thV4JOctVELtVEWKS7V7j_pUGIGrbBoyuIKJgK2OwDM12NjWKqZizSKLajWlRI79OdJ1DZg9BhaFipaaSs1tIEoOx27nDuC_97Y_C8ZaPgDi4giSblQBjcRGGfryspsfy8yKDSev35ekYAkcyypbJ7iaPLnhmO4dg5KF91BNcgy6y_yAfBvCGvflakdDVloJ8OikNQTP1eqD6sPQ4dFNBjCj0wRsZKCkgLKJboCl0vUDMmpvy-kN8C-oFzbV]--></g></svg>