<?xml version="1.0" encoding="us-ascii" standalone="no"?><svg xmlns="http://www.w3.org/2000/svg" xmlns:xlink="http://www.w3.org/1999/xlink" contentStyleType="text/css" height="1295px" preserveAspectRatio="none" style="width:1260px;height:1295px;background:#FFFFFF;" version="1.1" viewBox="0 0 1260 1295" width="1260px" zoomAndPan="magnify"><defs/><g><!--class Collaborator--><g id="elem_Collaborator"><rect codeLine="10" fill="#F1F1F1" height="215.5898" id="Collaborator" rx="2.5" ry="2.5" style="stroke:#181818;stroke-width:0.5;" width="398" x="547.5" y="742"/><ellipse cx="703.25" cy="758" fill="#ADD1B2" rx="11" ry="11" style="stroke:#181818;stroke-width:1.0;"/><path d="M706.0156,753.875 Q706.1719,753.6563 706.3594,753.5469 Q706.5469,753.4375 706.7656,753.4375 Q707.1406,753.4375 707.375,753.7031 Q707.6094,753.9531 707.6094,754.5625 L707.6094,756.0156 Q707.6094,756.625 707.375,756.8906 Q707.1406,757.1563 706.7656,757.1563 Q706.4219,757.1563 706.2188,756.9531 Q706.0156,756.7656 705.9063,756.25 Q705.8594,755.8906 705.6719,755.7031 Q705.3438,755.3281 704.7344,755.1094 Q704.125,754.8906 703.5,754.8906 Q702.7344,754.8906 702.0938,755.2188 Q701.4688,755.5469 700.9688,756.2969 Q700.4844,757.0469 700.4844,758.0781 L700.4844,759.1719 Q700.4844,760.4063 701.375,761.2344 Q702.2656,762.0469 703.8594,762.0469 Q704.7969,762.0469 705.4531,761.7969 Q705.8438,761.6406 706.2656,761.2031 Q706.5313,760.9375 706.6719,760.8594 Q706.8281,760.7813 707.0313,760.7813 Q707.3594,760.7813 707.6094,761.0469 Q707.875,761.2969 707.875,761.6406 Q707.875,761.9844 707.5313,762.3906 Q707.0313,762.9688 706.2344,763.2969 Q705.1563,763.75 703.8594,763.75 Q702.3438,763.75 701.1406,763.125 Q700.1563,762.625 699.4688,761.5625 Q698.7813,760.4844 698.7813,759.2031 L698.7813,758.0469 Q698.7813,756.7188 699.3906,755.5781 Q700.0156,754.4219 701.1094,753.8125 Q702.2031,753.1875 703.4375,753.1875 Q704.1719,753.1875 704.8125,753.3594 Q705.4688,753.5156 706.0156,753.875 Z " fill="#000000"/><text fill="#000000" font-family="sans-serif" font-size="14" lengthAdjust="spacing" textLength="78" x="723.75" y="763.7969">Collaborator</text><line style="stroke:#181818;stroke-width:0.5;" x1="548.5" x2="944.5" y1="774" y2="774"/><text fill="#000000" font-family="sans-serif" font-size="14" lengthAdjust="spacing" textLength="81" x="553.5" y="793.1074">-String name</text><text fill="#000000" font-family="sans-serif" font-size="14" lengthAdjust="spacing" textLength="136" x="553.5" y="811.7285">-String mobileNumber</text><text fill="#000000" font-family="sans-serif" font-size="14" lengthAdjust="spacing" textLength="12" x="553.5" y="830.3496">...</text><line style="stroke:#181818;stroke-width:0.5;" x1="548.5" x2="944.5" y1="837.8633" y2="837.8633"/><text fill="#000000" font-family="sans-serif" font-size="14" lengthAdjust="spacing" textLength="339" x="553.5" y="856.9707">+Collaborator(name, birthdate, admissionDate, street,</text><text fill="#000000" font-family="sans-serif" font-size="14" lengthAdjust="spacing" textLength="386" x="553.5" y="875.5918">streetNumber, postalCode, city, district, email, mobileNumber,</text><text fill="#000000" font-family="sans-serif" font-size="14" lengthAdjust="spacing" textLength="193" x="553.5" y="894.2129">idDocType, idDocNumber, job)</text><text fill="#000000" font-family="sans-serif" font-size="14" lengthAdjust="spacing" textLength="74" x="553.5" y="912.834">+getName()</text><text fill="#000000" font-family="sans-serif" font-size="14" lengthAdjust="spacing" textLength="95" x="553.5" y="931.4551">+getBirthdate()</text><text fill="#000000" font-family="sans-serif" font-size="14" lengthAdjust="spacing" textLength="22" x="553.5" y="950.0762">...()</text></g><!--class Job--><g id="elem_Job"><rect codeLine="22" fill="#F1F1F1" height="141.1055" id="Job" rx="2.5" ry="2.5" style="stroke:#181818;stroke-width:0.5;" width="162" x="339.5" y="1100.5"/><ellipse cx="405.25" cy="1116.5" fill="#ADD1B2" rx="11" ry="11" style="stroke:#181818;stroke-width:1.0;"/><path d="M408.0156,1112.375 Q408.1719,1112.1563 408.3594,1112.0469 Q408.5469,1111.9375 408.7656,1111.9375 Q409.1406,1111.9375 409.375,1112.2031 Q409.6094,1112.4531 409.6094,1113.0625 L409.6094,1114.5156 Q409.6094,1115.125 409.375,1115.3906 Q409.1406,1115.6563 408.7656,1115.6563 Q408.4219,1115.6563 408.2188,1115.4531 Q408.0156,1115.2656 407.9063,1114.75 Q407.8594,1114.3906 407.6719,1114.2031 Q407.3438,1113.8281 406.7344,1113.6094 Q406.125,1113.3906 405.5,1113.3906 Q404.7344,1113.3906 404.0938,1113.7188 Q403.4688,1114.0469 402.9688,1114.7969 Q402.4844,1115.5469 402.4844,1116.5781 L402.4844,1117.6719 Q402.4844,1118.9063 403.375,1119.7344 Q404.2656,1120.5469 405.8594,1120.5469 Q406.7969,1120.5469 407.4531,1120.2969 Q407.8438,1120.1406 408.2656,1119.7031 Q408.5313,1119.4375 408.6719,1119.3594 Q408.8281,1119.2813 409.0313,1119.2813 Q409.3594,1119.2813 409.6094,1119.5469 Q409.875,1119.7969 409.875,1120.1406 Q409.875,1120.4844 409.5313,1120.8906 Q409.0313,1121.4688 408.2344,1121.7969 Q407.1563,1122.25 405.8594,1122.25 Q404.3438,1122.25 403.1406,1121.625 Q402.1563,1121.125 401.4688,1120.0625 Q400.7813,1118.9844 400.7813,1117.7031 L400.7813,1116.5469 Q400.7813,1115.2188 401.3906,1114.0781 Q402.0156,1112.9219 403.1094,1112.3125 Q404.2031,1111.6875 405.4375,1111.6875 Q406.1719,1111.6875 406.8125,1111.8594 Q407.4688,1112.0156 408.0156,1112.375 Z " fill="#000000"/><text fill="#000000" font-family="sans-serif" font-size="14" lengthAdjust="spacing" textLength="22" x="425.75" y="1122.2969">Job</text><line style="stroke:#181818;stroke-width:0.5;" x1="340.5" x2="500.5" y1="1132.5" y2="1132.5"/><text fill="#000000" font-family="sans-serif" font-size="14" lengthAdjust="spacing" textLength="101" x="345.5" y="1151.6074">-String jobName</text><line style="stroke:#181818;stroke-width:0.5;" x1="340.5" x2="500.5" y1="1159.1211" y2="1159.1211"/><text fill="#000000" font-family="sans-serif" font-size="14" lengthAdjust="spacing" textLength="95" x="345.5" y="1178.2285">+Job(jobName)</text><text fill="#000000" font-family="sans-serif" font-size="14" lengthAdjust="spacing" textLength="150" x="345.5" y="1196.8496">+setJobName(jobName)</text><text fill="#000000" font-family="sans-serif" font-size="14" lengthAdjust="spacing" textLength="52" x="345.5" y="1215.4707">+clone()</text><text fill="#000000" font-family="sans-serif" font-size="14" lengthAdjust="spacing" textLength="141" x="345.5" y="1234.0918">-validateJob(jobName)</text></g><!--class Date--><g id="elem_Date"><rect codeLine="32" fill="#F1F1F1" height="196.9688" id="Date" rx="2.5" ry="2.5" style="stroke:#181818;stroke-width:0.5;" width="134" x="536.5" y="1072.5"/><ellipse cx="584.25" cy="1088.5" fill="#ADD1B2" rx="11" ry="11" style="stroke:#181818;stroke-width:1.0;"/><path d="M587.0156,1084.375 Q587.1719,1084.1563 587.3594,1084.0469 Q587.5469,1083.9375 587.7656,1083.9375 Q588.1406,1083.9375 588.375,1084.2031 Q588.6094,1084.4531 588.6094,1085.0625 L588.6094,1086.5156 Q588.6094,1087.125 588.375,1087.3906 Q588.1406,1087.6563 587.7656,1087.6563 Q587.4219,1087.6563 587.2188,1087.4531 Q587.0156,1087.2656 586.9063,1086.75 Q586.8594,1086.3906 586.6719,1086.2031 Q586.3438,1085.8281 585.7344,1085.6094 Q585.125,1085.3906 584.5,1085.3906 Q583.7344,1085.3906 583.0938,1085.7188 Q582.4688,1086.0469 581.9688,1086.7969 Q581.4844,1087.5469 581.4844,1088.5781 L581.4844,1089.6719 Q581.4844,1090.9063 582.375,1091.7344 Q583.2656,1092.5469 584.8594,1092.5469 Q585.7969,1092.5469 586.4531,1092.2969 Q586.8438,1092.1406 587.2656,1091.7031 Q587.5313,1091.4375 587.6719,1091.3594 Q587.8281,1091.2813 588.0313,1091.2813 Q588.3594,1091.2813 588.6094,1091.5469 Q588.875,1091.7969 588.875,1092.1406 Q588.875,1092.4844 588.5313,1092.8906 Q588.0313,1093.4688 587.2344,1093.7969 Q586.1563,1094.25 584.8594,1094.25 Q583.3438,1094.25 582.1406,1093.625 Q581.1563,1093.125 580.4688,1092.0625 Q579.7813,1090.9844 579.7813,1089.7031 L579.7813,1088.5469 Q579.7813,1087.2188 580.3906,1086.0781 Q581.0156,1084.9219 582.1094,1084.3125 Q583.2031,1083.6875 584.4375,1083.6875 Q585.1719,1083.6875 585.8125,1083.8594 Q586.4688,1084.0156 587.0156,1084.375 Z " fill="#000000"/><text fill="#000000" font-family="sans-serif" font-size="14" lengthAdjust="spacing" textLength="30" x="604.75" y="1094.2969">Date</text><line style="stroke:#181818;stroke-width:0.5;" x1="537.5" x2="669.5" y1="1104.5" y2="1104.5"/><text fill="#000000" font-family="sans-serif" font-size="14" lengthAdjust="spacing" textLength="47" x="542.5" y="1123.6074">-int day</text><text fill="#000000" font-family="sans-serif" font-size="14" lengthAdjust="spacing" textLength="63" x="542.5" y="1142.2285">-int month</text><text fill="#000000" font-family="sans-serif" font-size="14" lengthAdjust="spacing" textLength="52" x="542.5" y="1160.8496">-int year</text><line style="stroke:#181818;stroke-width:0.5;" x1="537.5" x2="669.5" y1="1168.3633" y2="1168.3633"/><text fill="#000000" font-family="sans-serif" font-size="14" lengthAdjust="spacing" textLength="113" x="542.5" y="1187.4707">+Date(dateString)</text><text fill="#000000" font-family="sans-serif" font-size="14" lengthAdjust="spacing" textLength="48" x="542.5" y="1206.0918">+Date()</text><text fill="#000000" font-family="sans-serif" font-size="14" lengthAdjust="spacing" textLength="95" x="542.5" y="1224.7129">+setDate(date)</text><text fill="#000000" font-family="sans-serif" font-size="14" lengthAdjust="spacing" textLength="122" x="542.5" y="1243.334">-validateDate(date)</text><text fill="#000000" font-family="sans-serif" font-size="14" lengthAdjust="spacing" textLength="22" x="542.5" y="1261.9551">...()</text></g><!--class CollaboratorRepository--><g id="elem_CollaboratorRepository"><rect codeLine="44" fill="#F1F1F1" height="178.3477" id="CollaboratorRepository" rx="2.5" ry="2.5" style="stroke:#181818;stroke-width:0.5;" width="398" x="547.5" y="485"/><ellipse cx="669.25" cy="501" fill="#ADD1B2" rx="11" ry="11" style="stroke:#181818;stroke-width:1.0;"/><path d="M672.0156,496.875 Q672.1719,496.6563 672.3594,496.5469 Q672.5469,496.4375 672.7656,496.4375 Q673.1406,496.4375 673.375,496.7031 Q673.6094,496.9531 673.6094,497.5625 L673.6094,499.0156 Q673.6094,499.625 673.375,499.8906 Q673.1406,500.1563 672.7656,500.1563 Q672.4219,500.1563 672.2188,499.9531 Q672.0156,499.7656 671.9063,499.25 Q671.8594,498.8906 671.6719,498.7031 Q671.3438,498.3281 670.7344,498.1094 Q670.125,497.8906 669.5,497.8906 Q668.7344,497.8906 668.0938,498.2188 Q667.4688,498.5469 666.9688,499.2969 Q666.4844,500.0469 666.4844,501.0781 L666.4844,502.1719 Q666.4844,503.4063 667.375,504.2344 Q668.2656,505.0469 669.8594,505.0469 Q670.7969,505.0469 671.4531,504.7969 Q671.8438,504.6406 672.2656,504.2031 Q672.5313,503.9375 672.6719,503.8594 Q672.8281,503.7813 673.0313,503.7813 Q673.3594,503.7813 673.6094,504.0469 Q673.875,504.2969 673.875,504.6406 Q673.875,504.9844 673.5313,505.3906 Q673.0313,505.9688 672.2344,506.2969 Q671.1563,506.75 669.8594,506.75 Q668.3438,506.75 667.1406,506.125 Q666.1563,505.625 665.4688,504.5625 Q664.7813,503.4844 664.7813,502.2031 L664.7813,501.0469 Q664.7813,499.7188 665.3906,498.5781 Q666.0156,497.4219 667.1094,496.8125 Q668.2031,496.1875 669.4375,496.1875 Q670.1719,496.1875 670.8125,496.3594 Q671.4688,496.5156 672.0156,496.875 Z " fill="#000000"/><text fill="#000000" font-family="sans-serif" font-size="14" lengthAdjust="spacing" textLength="146" x="689.75" y="506.7969">CollaboratorRepository</text><line style="stroke:#181818;stroke-width:0.5;" x1="548.5" x2="944.5" y1="517" y2="517"/><text fill="#000000" font-family="sans-serif" font-size="14" lengthAdjust="spacing" textLength="222" x="553.5" y="536.1074">-List&lt;Collaborator&gt; collaboratorList</text><line style="stroke:#181818;stroke-width:0.5;" x1="548.5" x2="944.5" y1="543.6211" y2="543.6211"/><text fill="#000000" font-family="sans-serif" font-size="14" lengthAdjust="spacing" textLength="164" x="553.5" y="562.7285">+CollaboratorRepository()</text><text fill="#000000" font-family="sans-serif" font-size="14" lengthAdjust="spacing" textLength="117" x="553.5" y="581.3496">+add(collaborator)</text><text fill="#000000" font-family="sans-serif" font-size="14" lengthAdjust="spacing" textLength="217" x="553.5" y="599.9707">-validateCollaborator(collaborator)</text><text fill="#000000" font-family="sans-serif" font-size="14" lengthAdjust="spacing" textLength="379" x="553.5" y="618.5918">+createCollaborator(name, birthdate, admissionDate, street,</text><text fill="#000000" font-family="sans-serif" font-size="14" lengthAdjust="spacing" textLength="386" x="553.5" y="637.2129">streetNumber, postalCode, city, district, email, mobileNumber,</text><text fill="#000000" font-family="sans-serif" font-size="14" lengthAdjust="spacing" textLength="193" x="553.5" y="655.834">idDocType, idDocNumber, job)</text></g><!--class JobRepository--><g id="elem_JobRepository"><rect codeLine="53" fill="#F1F1F1" height="85.2422" id="JobRepository" rx="2.5" ry="2.5" style="stroke:#181818;stroke-width:0.5;" width="122" x="359.5" y="531.5"/><ellipse cx="374.5" cy="547.5" fill="#ADD1B2" rx="11" ry="11" style="stroke:#181818;stroke-width:1.0;"/><path d="M377.2656,543.375 Q377.4219,543.1563 377.6094,543.0469 Q377.7969,542.9375 378.0156,542.9375 Q378.3906,542.9375 378.625,543.2031 Q378.8594,543.4531 378.8594,544.0625 L378.8594,545.5156 Q378.8594,546.125 378.625,546.3906 Q378.3906,546.6563 378.0156,546.6563 Q377.6719,546.6563 377.4688,546.4531 Q377.2656,546.2656 377.1563,545.75 Q377.1094,545.3906 376.9219,545.2031 Q376.5938,544.8281 375.9844,544.6094 Q375.375,544.3906 374.75,544.3906 Q373.9844,544.3906 373.3438,544.7188 Q372.7188,545.0469 372.2188,545.7969 Q371.7344,546.5469 371.7344,547.5781 L371.7344,548.6719 Q371.7344,549.9063 372.625,550.7344 Q373.5156,551.5469 375.1094,551.5469 Q376.0469,551.5469 376.7031,551.2969 Q377.0938,551.1406 377.5156,550.7031 Q377.7813,550.4375 377.9219,550.3594 Q378.0781,550.2813 378.2813,550.2813 Q378.6094,550.2813 378.8594,550.5469 Q379.125,550.7969 379.125,551.1406 Q379.125,551.4844 378.7813,551.8906 Q378.2813,552.4688 377.4844,552.7969 Q376.4063,553.25 375.1094,553.25 Q373.5938,553.25 372.3906,552.625 Q371.4063,552.125 370.7188,551.0625 Q370.0313,549.9844 370.0313,548.7031 L370.0313,547.5469 Q370.0313,546.2188 370.6406,545.0781 Q371.2656,543.9219 372.3594,543.3125 Q373.4531,542.6875 374.6875,542.6875 Q375.4219,542.6875 376.0625,542.8594 Q376.7188,543.0156 377.2656,543.375 Z " fill="#000000"/><text fill="#000000" font-family="sans-serif" font-size="14" lengthAdjust="spacing" textLength="90" x="388.5" y="553.2969">JobRepository</text><line style="stroke:#181818;stroke-width:0.5;" x1="360.5" x2="480.5" y1="563.5" y2="563.5"/><text fill="#000000" font-family="sans-serif" font-size="14" lengthAdjust="spacing" textLength="110" x="365.5" y="582.6074">-List&lt;Job&gt; jobList</text><line style="stroke:#181818;stroke-width:0.5;" x1="360.5" x2="480.5" y1="590.1211" y2="590.1211"/><text fill="#000000" font-family="sans-serif" font-size="14" lengthAdjust="spacing" textLength="82" x="365.5" y="609.2285">+getJobList()</text></g><!--class Repositories--><g id="elem_Repositories"><rect codeLine="59" fill="#F1F1F1" height="122.4844" id="Repositories" rx="2.5" ry="2.5" style="stroke:#181818;stroke-width:0.5;" width="196" x="468.5" y="302"/><ellipse cx="522.75" cy="318" fill="#ADD1B2" rx="11" ry="11" style="stroke:#181818;stroke-width:1.0;"/><path d="M525.5156,313.875 Q525.6719,313.6563 525.8594,313.5469 Q526.0469,313.4375 526.2656,313.4375 Q526.6406,313.4375 526.875,313.7031 Q527.1094,313.9531 527.1094,314.5625 L527.1094,316.0156 Q527.1094,316.625 526.875,316.8906 Q526.6406,317.1563 526.2656,317.1563 Q525.9219,317.1563 525.7188,316.9531 Q525.5156,316.7656 525.4063,316.25 Q525.3594,315.8906 525.1719,315.7031 Q524.8438,315.3281 524.2344,315.1094 Q523.625,314.8906 523,314.8906 Q522.2344,314.8906 521.5938,315.2188 Q520.9688,315.5469 520.4688,316.2969 Q519.9844,317.0469 519.9844,318.0781 L519.9844,319.1719 Q519.9844,320.4063 520.875,321.2344 Q521.7656,322.0469 523.3594,322.0469 Q524.2969,322.0469 524.9531,321.7969 Q525.3438,321.6406 525.7656,321.2031 Q526.0313,320.9375 526.1719,320.8594 Q526.3281,320.7813 526.5313,320.7813 Q526.8594,320.7813 527.1094,321.0469 Q527.375,321.2969 527.375,321.6406 Q527.375,321.9844 527.0313,322.3906 Q526.5313,322.9688 525.7344,323.2969 Q524.6563,323.75 523.3594,323.75 Q521.8438,323.75 520.6406,323.125 Q519.6563,322.625 518.9688,321.5625 Q518.2813,320.4844 518.2813,319.2031 L518.2813,318.0469 Q518.2813,316.7188 518.8906,315.5781 Q519.5156,314.4219 520.6094,313.8125 Q521.7031,313.1875 522.9375,313.1875 Q523.6719,313.1875 524.3125,313.3594 Q524.9688,313.5156 525.5156,313.875 Z " fill="#000000"/><text fill="#000000" font-family="sans-serif" font-size="14" lengthAdjust="spacing" textLength="79" x="543.25" y="323.7969">Repositories</text><line style="stroke:#181818;stroke-width:0.5;" x1="469.5" x2="663.5" y1="334" y2="334"/><line style="stroke:#181818;stroke-width:0.5;" x1="469.5" x2="663.5" y1="342" y2="342"/><text fill="#000000" font-family="sans-serif" font-size="14" lengthAdjust="spacing" textLength="94" x="474.5" y="361.1074">-Repositories()</text><text fill="#000000" font-family="sans-serif" font-size="14" lengthAdjust="spacing" textLength="182" x="474.5" y="379.7285">+getInstance() : Repositories</text><text fill="#000000" font-family="sans-serif" font-size="14" lengthAdjust="spacing" textLength="128" x="474.5" y="398.3496">+getJobRepository()</text><text fill="#000000" font-family="sans-serif" font-size="14" lengthAdjust="spacing" textLength="184" x="474.5" y="416.9707">+getCollaboratorRepository()</text></g><g id="elem_GMN8"><path d="M187,551.5 L187,596.082 A0,0 0 0 0 187,596.082 L324,596.082 A0,0 0 0 0 324,596.082 L324,578 L359.46,574 L324,570 L324,561.5 L314,551.5 L187,551.5 A0,0 0 0 0 187,551.5 " fill="#FEFFDD" style="stroke:#181818;stroke-width:0.5;"/><path d="M314,551.5 L314,561.5 L324,561.5 L314,551.5 " fill="#FEFFDD" style="stroke:#181818;stroke-width:0.5;"/><text fill="#000000" font-family="sans-serif" font-size="13" lengthAdjust="spacing" textLength="116" x="193" y="570.5283">- used for displaying</text><text fill="#000000" font-family="sans-serif" font-size="13" lengthAdjust="spacing" textLength="60" x="193" y="587.8193">the job list</text></g><!--class RegisterCollaboratorController--><g id="elem_RegisterCollaboratorController"><rect codeLine="71" fill="#F1F1F1" height="215.5898" id="RegisterCollaboratorController" rx="2.5" ry="2.5" style="stroke:#181818;stroke-width:0.5;" width="502" x="315.5" y="7"/><ellipse cx="465.75" cy="23" fill="#ADD1B2" rx="11" ry="11" style="stroke:#181818;stroke-width:1.0;"/><path d="M468.5156,18.875 Q468.6719,18.6563 468.8594,18.5469 Q469.0469,18.4375 469.2656,18.4375 Q469.6406,18.4375 469.875,18.7031 Q470.1094,18.9531 470.1094,19.5625 L470.1094,21.0156 Q470.1094,21.625 469.875,21.8906 Q469.6406,22.1563 469.2656,22.1563 Q468.9219,22.1563 468.7188,21.9531 Q468.5156,21.7656 468.4063,21.25 Q468.3594,20.8906 468.1719,20.7031 Q467.8438,20.3281 467.2344,20.1094 Q466.625,19.8906 466,19.8906 Q465.2344,19.8906 464.5938,20.2188 Q463.9688,20.5469 463.4688,21.2969 Q462.9844,22.0469 462.9844,23.0781 L462.9844,24.1719 Q462.9844,25.4063 463.875,26.2344 Q464.7656,27.0469 466.3594,27.0469 Q467.2969,27.0469 467.9531,26.7969 Q468.3438,26.6406 468.7656,26.2031 Q469.0313,25.9375 469.1719,25.8594 Q469.3281,25.7813 469.5313,25.7813 Q469.8594,25.7813 470.1094,26.0469 Q470.375,26.2969 470.375,26.6406 Q470.375,26.9844 470.0313,27.3906 Q469.5313,27.9688 468.7344,28.2969 Q467.6563,28.75 466.3594,28.75 Q464.8438,28.75 463.6406,28.125 Q462.6563,27.625 461.9688,26.5625 Q461.2813,25.4844 461.2813,24.2031 L461.2813,23.0469 Q461.2813,21.7188 461.8906,20.5781 Q462.5156,19.4219 463.6094,18.8125 Q464.7031,18.1875 465.9375,18.1875 Q466.6719,18.1875 467.3125,18.3594 Q467.9688,18.5156 468.5156,18.875 Z " fill="#000000"/><text fill="#000000" font-family="sans-serif" font-size="14" lengthAdjust="spacing" textLength="193" x="486.25" y="28.7969">RegisterCollaboratorController</text><line style="stroke:#181818;stroke-width:0.5;" x1="316.5" x2="816.5" y1="39" y2="39"/><text fill="#000000" font-family="sans-serif" font-size="14" lengthAdjust="spacing" textLength="186" x="321.5" y="58.1074">-JobRepository jobRepository</text><text fill="#000000" font-family="sans-serif" font-size="14" lengthAdjust="spacing" textLength="298" x="321.5" y="76.7285">-CollaboratorRepository collaboratorRepository</text><line style="stroke:#181818;stroke-width:0.5;" x1="316.5" x2="816.5" y1="84.2422" y2="84.2422"/><text fill="#000000" font-family="sans-serif" font-size="14" lengthAdjust="spacing" textLength="449" x="321.5" y="103.3496">+RegisterCollaboratorController(jobRepository, collaboratorRepository)</text><text fill="#000000" font-family="sans-serif" font-size="14" lengthAdjust="spacing" textLength="211" x="321.5" y="121.9707">+RegisterCollaboratorController()</text><text fill="#000000" font-family="sans-serif" font-size="14" lengthAdjust="spacing" textLength="125" x="321.5" y="140.5918">-getJobRepository()</text><text fill="#000000" font-family="sans-serif" font-size="14" lengthAdjust="spacing" textLength="181" x="321.5" y="159.2129">-getCollaboratorRepository()</text><text fill="#000000" font-family="sans-serif" font-size="14" lengthAdjust="spacing" textLength="82" x="321.5" y="177.834">+getJobList()</text><text fill="#000000" font-family="sans-serif" font-size="14" lengthAdjust="spacing" textLength="472" x="321.5" y="196.4551">+createCollaborator(name, birthdate, admissionDate, street, streetNumber,</text><text fill="#000000" font-family="sans-serif" font-size="14" lengthAdjust="spacing" textLength="490" x="321.5" y="215.0762">postalCode, city, district, email, mobileNumber, idDocType, idDocNumber, job)</text></g><!--class RegisterCollaboratorUI--><g id="elem_RegisterCollaboratorUI"><rect codeLine="84" fill="#F1F1F1" height="196.9688" id="RegisterCollaboratorUI" rx="2.5" ry="2.5" style="stroke:#181818;stroke-width:0.5;" width="273" x="7" y="16.5"/><ellipse cx="67.75" cy="32.5" fill="#ADD1B2" rx="11" ry="11" style="stroke:#181818;stroke-width:1.0;"/><path d="M70.5156,28.375 Q70.6719,28.1563 70.8594,28.0469 Q71.0469,27.9375 71.2656,27.9375 Q71.6406,27.9375 71.875,28.2031 Q72.1094,28.4531 72.1094,29.0625 L72.1094,30.5156 Q72.1094,31.125 71.875,31.3906 Q71.6406,31.6563 71.2656,31.6563 Q70.9219,31.6563 70.7188,31.4531 Q70.5156,31.2656 70.4063,30.75 Q70.3594,30.3906 70.1719,30.2031 Q69.8438,29.8281 69.2344,29.6094 Q68.625,29.3906 68,29.3906 Q67.2344,29.3906 66.5938,29.7188 Q65.9688,30.0469 65.4688,30.7969 Q64.9844,31.5469 64.9844,32.5781 L64.9844,33.6719 Q64.9844,34.9063 65.875,35.7344 Q66.7656,36.5469 68.3594,36.5469 Q69.2969,36.5469 69.9531,36.2969 Q70.3438,36.1406 70.7656,35.7031 Q71.0313,35.4375 71.1719,35.3594 Q71.3281,35.2813 71.5313,35.2813 Q71.8594,35.2813 72.1094,35.5469 Q72.375,35.7969 72.375,36.1406 Q72.375,36.4844 72.0313,36.8906 Q71.5313,37.4688 70.7344,37.7969 Q69.6563,38.25 68.3594,38.25 Q66.8438,38.25 65.6406,37.625 Q64.6563,37.125 63.9688,36.0625 Q63.2813,34.9844 63.2813,33.7031 L63.2813,32.5469 Q63.2813,31.2188 63.8906,30.0781 Q64.5156,28.9219 65.6094,28.3125 Q66.7031,27.6875 67.9375,27.6875 Q68.6719,27.6875 69.3125,27.8594 Q69.9688,28.0156 70.5156,28.375 Z " fill="#000000"/><text fill="#000000" font-family="sans-serif" font-size="14" lengthAdjust="spacing" textLength="143" x="88.25" y="38.2969">RegisterCollaboratorUI</text><line style="stroke:#181818;stroke-width:0.5;" x1="8" x2="279" y1="48.5" y2="48.5"/><text fill="#000000" font-family="sans-serif" font-size="14" lengthAdjust="spacing" textLength="261" x="13" y="67.6074">-RegisterCollaboratorController controller</text><text fill="#000000" font-family="sans-serif" font-size="14" lengthAdjust="spacing" textLength="81" x="13" y="86.2285">-String name</text><text fill="#000000" font-family="sans-serif" font-size="14" lengthAdjust="spacing" textLength="102" x="13" y="104.8496">-String birthdate</text><text fill="#000000" font-family="sans-serif" font-size="14" lengthAdjust="spacing" textLength="12" x="13" y="123.4707">...</text><line style="stroke:#181818;stroke-width:0.5;" x1="8" x2="279" y1="130.9844" y2="130.9844"/><text fill="#000000" font-family="sans-serif" font-size="14" lengthAdjust="spacing" textLength="96" x="13" y="150.0918">+requestData()</text><text fill="#000000" font-family="sans-serif" font-size="14" lengthAdjust="spacing" textLength="148" x="13" y="168.7129">+displayAndSelectJob()</text><text fill="#000000" font-family="sans-serif" font-size="14" lengthAdjust="spacing" textLength="89" x="13" y="187.334">+submitData()</text><text fill="#000000" font-family="sans-serif" font-size="14" lengthAdjust="spacing" textLength="22" x="13" y="205.9551">...()</text></g><!--class Email--><g id="elem_Email"><rect codeLine="96" fill="#F1F1F1" height="178.3477" id="Email" rx="2.5" ry="2.5" style="stroke:#181818;stroke-width:0.5;" width="143" x="706" y="1082"/><ellipse cx="756.25" cy="1098" fill="#ADD1B2" rx="11" ry="11" style="stroke:#181818;stroke-width:1.0;"/><path d="M759.0156,1093.875 Q759.1719,1093.6563 759.3594,1093.5469 Q759.5469,1093.4375 759.7656,1093.4375 Q760.1406,1093.4375 760.375,1093.7031 Q760.6094,1093.9531 760.6094,1094.5625 L760.6094,1096.0156 Q760.6094,1096.625 760.375,1096.8906 Q760.1406,1097.1563 759.7656,1097.1563 Q759.4219,1097.1563 759.2188,1096.9531 Q759.0156,1096.7656 758.9063,1096.25 Q758.8594,1095.8906 758.6719,1095.7031 Q758.3438,1095.3281 757.7344,1095.1094 Q757.125,1094.8906 756.5,1094.8906 Q755.7344,1094.8906 755.0938,1095.2188 Q754.4688,1095.5469 753.9688,1096.2969 Q753.4844,1097.0469 753.4844,1098.0781 L753.4844,1099.1719 Q753.4844,1100.4063 754.375,1101.2344 Q755.2656,1102.0469 756.8594,1102.0469 Q757.7969,1102.0469 758.4531,1101.7969 Q758.8438,1101.6406 759.2656,1101.2031 Q759.5313,1100.9375 759.6719,1100.8594 Q759.8281,1100.7813 760.0313,1100.7813 Q760.3594,1100.7813 760.6094,1101.0469 Q760.875,1101.2969 760.875,1101.6406 Q760.875,1101.9844 760.5313,1102.3906 Q760.0313,1102.9688 759.2344,1103.2969 Q758.1563,1103.75 756.8594,1103.75 Q755.3438,1103.75 754.1406,1103.125 Q753.1563,1102.625 752.4688,1101.5625 Q751.7813,1100.4844 751.7813,1099.2031 L751.7813,1098.0469 Q751.7813,1096.7188 752.3906,1095.5781 Q753.0156,1094.4219 754.1094,1093.8125 Q755.2031,1093.1875 756.4375,1093.1875 Q757.1719,1093.1875 757.8125,1093.3594 Q758.4688,1093.5156 759.0156,1093.875 Z " fill="#000000"/><text fill="#000000" font-family="sans-serif" font-size="14" lengthAdjust="spacing" textLength="34" x="776.75" y="1103.7969">Email</text><line style="stroke:#181818;stroke-width:0.5;" x1="707" x2="848" y1="1114" y2="1114"/><text fill="#000000" font-family="sans-serif" font-size="14" lengthAdjust="spacing" textLength="79" x="712" y="1133.1074">-String email</text><line style="stroke:#181818;stroke-width:0.5;" x1="707" x2="848" y1="1140.6211" y2="1140.6211"/><text fill="#000000" font-family="sans-serif" font-size="14" lengthAdjust="spacing" textLength="85" x="712" y="1159.7285">+Email(email)</text><text fill="#000000" font-family="sans-serif" font-size="14" lengthAdjust="spacing" textLength="72" x="712" y="1178.3496">+getEmail()</text><text fill="#000000" font-family="sans-serif" font-size="14" lengthAdjust="spacing" textLength="104" x="712" y="1196.9707">+setEmail(email)</text><text fill="#000000" font-family="sans-serif" font-size="14" lengthAdjust="spacing" textLength="131" x="712" y="1215.5918">-validateEmail(email)</text><text fill="#000000" font-family="sans-serif" font-size="14" lengthAdjust="spacing" textLength="67" x="712" y="1234.2129">+toString()</text><text fill="#000000" font-family="sans-serif" font-size="14" lengthAdjust="spacing" textLength="52" x="712" y="1252.834">+clone()</text></g><!--class Address--><g id="elem_Address"><rect codeLine="107" fill="#F1F1F1" height="234.2109" id="Address" rx="2.5" ry="2.5" style="stroke:#181818;stroke-width:0.5;" width="369" x="884" y="1054"/><ellipse cx="1038.25" cy="1070" fill="#ADD1B2" rx="11" ry="11" style="stroke:#181818;stroke-width:1.0;"/><path d="M1041.0156,1065.875 Q1041.1719,1065.6563 1041.3594,1065.5469 Q1041.5469,1065.4375 1041.7656,1065.4375 Q1042.1406,1065.4375 1042.375,1065.7031 Q1042.6094,1065.9531 1042.6094,1066.5625 L1042.6094,1068.0156 Q1042.6094,1068.625 1042.375,1068.8906 Q1042.1406,1069.1563 1041.7656,1069.1563 Q1041.4219,1069.1563 1041.2188,1068.9531 Q1041.0156,1068.7656 1040.9063,1068.25 Q1040.8594,1067.8906 1040.6719,1067.7031 Q1040.3438,1067.3281 1039.7344,1067.1094 Q1039.125,1066.8906 1038.5,1066.8906 Q1037.7344,1066.8906 1037.0938,1067.2188 Q1036.4688,1067.5469 1035.9688,1068.2969 Q1035.4844,1069.0469 1035.4844,1070.0781 L1035.4844,1071.1719 Q1035.4844,1072.4063 1036.375,1073.2344 Q1037.2656,1074.0469 1038.8594,1074.0469 Q1039.7969,1074.0469 1040.4531,1073.7969 Q1040.8438,1073.6406 1041.2656,1073.2031 Q1041.5313,1072.9375 1041.6719,1072.8594 Q1041.8281,1072.7813 1042.0313,1072.7813 Q1042.3594,1072.7813 1042.6094,1073.0469 Q1042.875,1073.2969 1042.875,1073.6406 Q1042.875,1073.9844 1042.5313,1074.3906 Q1042.0313,1074.9688 1041.2344,1075.2969 Q1040.1563,1075.75 1038.8594,1075.75 Q1037.3438,1075.75 1036.1406,1075.125 Q1035.1563,1074.625 1034.4688,1073.5625 Q1033.7813,1072.4844 1033.7813,1071.2031 L1033.7813,1070.0469 Q1033.7813,1068.7188 1034.3906,1067.5781 Q1035.0156,1066.4219 1036.1094,1065.8125 Q1037.2031,1065.1875 1038.4375,1065.1875 Q1039.1719,1065.1875 1039.8125,1065.3594 Q1040.4688,1065.5156 1041.0156,1065.875 Z " fill="#000000"/><text fill="#000000" font-family="sans-serif" font-size="14" lengthAdjust="spacing" textLength="52" x="1058.75" y="1075.7969">Address</text><line style="stroke:#181818;stroke-width:0.5;" x1="885" x2="1252" y1="1086" y2="1086"/><text fill="#000000" font-family="sans-serif" font-size="14" lengthAdjust="spacing" textLength="82" x="890" y="1105.1074">-String street</text><text fill="#000000" font-family="sans-serif" font-size="14" lengthAdjust="spacing" textLength="109" x="890" y="1123.7285">-int streetNumber</text><text fill="#000000" font-family="sans-serif" font-size="14" lengthAdjust="spacing" textLength="118" x="890" y="1142.3496">-String postalCode</text><text fill="#000000" font-family="sans-serif" font-size="14" lengthAdjust="spacing" textLength="67" x="890" y="1160.9707">-String city</text><text fill="#000000" font-family="sans-serif" font-size="14" lengthAdjust="spacing" textLength="87" x="890" y="1179.5918">-String district</text><line style="stroke:#181818;stroke-width:0.5;" x1="885" x2="1252" y1="1187.1055" y2="1187.1055"/><text fill="#000000" font-family="sans-serif" font-size="14" lengthAdjust="spacing" textLength="357" x="890" y="1206.2129">+Address(street, streetNumber, postalCode, city, district)</text><text fill="#000000" font-family="sans-serif" font-size="14" lengthAdjust="spacing" textLength="76" x="890" y="1224.834">+getStreet()</text><text fill="#000000" font-family="sans-serif" font-size="14" lengthAdjust="spacing" textLength="111" x="890" y="1243.4551">+setStreet(street)</text><text fill="#000000" font-family="sans-serif" font-size="14" lengthAdjust="spacing" textLength="125" x="890" y="1262.0762">+getStreetNumber()</text><text fill="#000000" font-family="sans-serif" font-size="14" lengthAdjust="spacing" textLength="22" x="890" y="1280.6973">...()</text></g><!--link RegisterCollaboratorUI to RegisterCollaboratorController--><g id="link_RegisterCollaboratorUI_RegisterCollaboratorController"><path codeLine="121" d="M280.13,115 C282.93,115 284.5,115 284.5,115 C284.5,115 291.42,115 309.44,115 " fill="none" id="RegisterCollaboratorUI-to-RegisterCollaboratorController" style="stroke:#181818;stroke-width:1.0;stroke-dasharray:7.0,7.0;"/><polygon fill="#181818" points="315.44,115,306.44,111,310.44,115,306.44,119,315.44,115" style="stroke:#181818;stroke-width:1.0;"/></g><!--link RegisterCollaboratorController to CollaboratorRepository--><g id="link_RegisterCollaboratorController_CollaboratorRepository"><path codeLine="122" d="M678.8,223.12 C722.15,264.47 761.5,302 761.5,302 C761.5,302 761.5,424 761.5,424 C761.5,424 759.2311,446.5502 756.0011,478.6302 " fill="none" id="RegisterCollaboratorController-to-CollaboratorRepository" style="stroke:#181818;stroke-width:1.0;stroke-dasharray:7.0,7.0;"/><polygon fill="#181818" points="755.4,484.6,760.2815,476.046,755.9009,479.6252,752.3217,475.2446,755.4,484.6" style="stroke:#181818;stroke-width:1.0;"/><text fill="#000000" font-family="sans-serif" font-size="13" lengthAdjust="spacing" textLength="129" x="762.5" y="368.5283">collaboratorRepository</text><text fill="#000000" font-family="sans-serif" font-size="13" lengthAdjust="spacing" textLength="7" x="748.8303" y="473.8247">1</text></g><!--link CollaboratorRepository to Collaborator--><g id="link_CollaboratorRepository_Collaborator"><path codeLine="123" d="M746.5,663.2 C746.5,688.23 746.5,709.77 746.5,735.79 " fill="none" id="CollaboratorRepository-to-Collaborator" style="stroke:#181818;stroke-width:1.0;"/><polygon fill="#181818" points="746.5,741.79,750.5,732.79,746.5,736.79,742.5,732.79,746.5,741.79" style="stroke:#181818;stroke-width:1.0;"/><text fill="#000000" font-family="sans-serif" font-size="13" lengthAdjust="spacing" textLength="67" x="747.5" y="708.0283">collaborator</text><text fill="#000000" font-family="sans-serif" font-size="13" lengthAdjust="spacing" textLength="7" x="739.2102" y="685.3168">1</text><text fill="#000000" font-family="sans-serif" font-size="13" lengthAdjust="spacing" textLength="5" x="741.3242" y="730.6368">*</text></g><!--link RegisterCollaboratorController to JobRepository--><g id="link_RegisterCollaboratorController_JobRepository"><path codeLine="124" d="M453.05,223.12 C409.25,264.47 369.5,302 369.5,302 C369.5,302 369.5,424 369.5,424 C369.5,424 389.2571,481.7333 404.3471,525.8233 " fill="none" id="RegisterCollaboratorController-to-JobRepository" style="stroke:#181818;stroke-width:1.0;stroke-dasharray:7.0,7.0;"/><polygon fill="#181818" points="406.29,531.5,407.1602,521.6897,404.6709,526.7694,399.5912,524.2802,406.29,531.5" style="stroke:#181818;stroke-width:1.0;"/><text fill="#000000" font-family="sans-serif" font-size="13" lengthAdjust="spacing" textLength="79" x="370.5" y="368.5283">jobRepository</text></g><!--link JobRepository to Job--><g id="link_JobRepository_Job"><path codeLine="125" d="M420.5,616.84 C420.5,717.75 420.5,969.4 420.5,1094.18 " fill="none" id="JobRepository-to-Job" style="stroke:#181818;stroke-width:1.0;"/><polygon fill="#181818" points="420.5,1100.18,424.5,1091.18,420.5,1095.18,416.5,1091.18,420.5,1100.18" style="stroke:#181818;stroke-width:1.0;"/><text fill="#000000" font-family="sans-serif" font-size="13" lengthAdjust="spacing" textLength="17" x="421.5" y="855.5283">job</text><text fill="#000000" font-family="sans-serif" font-size="13" lengthAdjust="spacing" textLength="7" x="412.9641" y="638.7335">1</text><text fill="#000000" font-family="sans-serif" font-size="13" lengthAdjust="spacing" textLength="5" x="415.2422" y="1089.038">*</text></g><!--reverse link Collaborator to Job--><g id="link_Collaborator_Job"><path codeLine="126" d="M617.745,966.1492 C563.175,1014.9492 519.5,1054 519.5,1054 C519.5,1054 501.05,1075.61 480.09,1100.18 " fill="none" id="Collaborator-backto-Job" style="stroke:#181818;stroke-width:1.0;"/><polygon fill="none" points="626.69,958.15,619.5511,959.1679,617.745,966.1492,624.8839,965.1313,626.69,958.15" style="stroke:#181818;stroke-width:1.0;"/><text fill="#000000" font-family="sans-serif" font-size="13" lengthAdjust="spacing" textLength="17" x="593.5" y="1011.5283">job</text><text fill="#000000" font-family="sans-serif" font-size="13" lengthAdjust="spacing" textLength="7" x="478.8743" y="1089.038">1</text></g><!--reverse link Collaborator to Email--><g id="link_Collaborator_Email"><path codeLine="127" d="M758.0693,970.0539 C761.9693,1010.2339 765.2,1043.47 768.92,1081.75 " fill="none" id="Collaborator-backto-Email" style="stroke:#181818;stroke-width:1.0;"/><polygon fill="#181818" points="756.91,958.11,753.5084,964.4684,758.0693,970.0539,761.4709,963.6955,756.91,958.11" style="stroke:#181818;stroke-width:1.0;"/><text fill="#000000" font-family="sans-serif" font-size="13" lengthAdjust="spacing" textLength="31" x="763.5" y="1011.5283">email</text><text fill="#000000" font-family="sans-serif" font-size="13" lengthAdjust="spacing" textLength="7" x="760.9196" y="1070.6811">1</text></g><!--reverse link Collaborator to Address--><g id="link_Collaborator_Address"><path codeLine="128" d="M863.145,966.5554 C894.205,997.3254 919.69,1022.58 951.27,1053.86 " fill="none" id="Collaborator-backto-Address" style="stroke:#181818;stroke-width:1.0;"/><polygon fill="#181818" points="854.62,958.11,856.0674,965.1744,863.145,966.5554,861.6976,959.491,854.62,958.11" style="stroke:#181818;stroke-width:1.0;"/><text fill="#000000" font-family="sans-serif" font-size="13" lengthAdjust="spacing" textLength="46" x="917.5" y="1011.5283">address</text><text fill="#000000" font-family="sans-serif" font-size="13" lengthAdjust="spacing" textLength="7" x="936.5357" y="1042.8421">1</text></g><!--reverse link Collaborator to Date--><g id="link_Collaborator_Date"><path codeLine="129" d="M675.2943,968.5348 C664.7943,985.8748 663.5,988 663.5,988 C663.5,988 649.93,1029.17 635.7,1072.34 " fill="none" id="Collaborator-backto-Date" style="stroke:#181818;stroke-width:1.0;"/><polygon fill="#181818" points="681.51,958.27,674.9806,961.3305,675.2943,968.5348,681.8237,965.4743,681.51,958.27" style="stroke:#181818;stroke-width:1.0;"/><text fill="#000000" font-family="sans-serif" font-size="13" lengthAdjust="spacing" textLength="58" x="678.5" y="1003.0283">birthdate /</text><text fill="#000000" font-family="sans-serif" font-size="13" lengthAdjust="spacing" textLength="86" x="664.5" y="1020.3193">admissionDate</text><text fill="#000000" font-family="sans-serif" font-size="13" lengthAdjust="spacing" textLength="7" x="630.8973" y="1061.1762">1</text></g><!--link RegisterCollaboratorController to Repositories--><g id="link_RegisterCollaboratorController_Repositories"><path codeLine="130" d="M566.5,223.18 C566.5,250.11 566.5,272.07 566.5,295.78 " fill="none" id="RegisterCollaboratorController-to-Repositories" style="stroke:#181818;stroke-width:1.0;stroke-dasharray:7.0,7.0;"/><polygon fill="#181818" points="566.5,301.78,570.5,292.78,566.5,296.78,562.5,292.78,566.5,301.78" style="stroke:#181818;stroke-width:1.0;"/><text fill="#000000" font-family="sans-serif" font-size="13" lengthAdjust="spacing" textLength="67" x="567.5" y="268.0283">repositories</text></g><!--link Repositories to JobRepository--><g id="link_Repositories_JobRepository"><path codeLine="131" d="M524.47,424.17 C500.46,458.54 474.3958,495.8411 452.9658,526.5211 " fill="none" id="Repositories-to-JobRepository" style="stroke:#181818;stroke-width:1.0;"/><polygon fill="#181818" points="449.53,531.44,457.963,526.3523,452.3932,527.341,451.4045,521.7712,449.53,531.44" style="stroke:#181818;stroke-width:1.0;"/><text fill="#000000" font-family="sans-serif" font-size="13" lengthAdjust="spacing" textLength="7" x="446.5988" y="520.3345">1</text></g><!--link Repositories to CollaboratorRepository--><g id="link_Repositories_CollaboratorRepository"><path codeLine="132" d="M618.32,424.17 C634.63,443.1 649.0759,459.8725 666.6859,480.3325 " fill="none" id="Repositories-to-CollaboratorRepository" style="stroke:#181818;stroke-width:1.0;"/><polygon fill="#181818" points="670.6,484.88,667.7606,475.4493,667.3383,481.0904,661.6972,480.6681,670.6,484.88" style="stroke:#181818;stroke-width:1.0;"/><text fill="#000000" font-family="sans-serif" font-size="13" lengthAdjust="spacing" textLength="7" x="657.0247" y="473.8218">1</text></g><!--link Repositories to Repositories--><g id="link_Repositories_Repositories"><path codeLine="133" d="M664.52,346.72 C684.87,348.43 699.5,353.86 699.5,363 C699.5,372.14 690.8489,377.0676 670.4989,378.7776 " fill="none" id="Repositories-to-Repositories" style="stroke:#181818;stroke-width:1.0;"/><polygon fill="#181818" points="664.52,379.28,673.8233,382.5123,669.5024,378.8613,673.1535,374.5404,664.52,379.28" style="stroke:#181818;stroke-width:1.0;"/><text fill="#000000" font-family="sans-serif" font-size="13" lengthAdjust="spacing" textLength="49" x="705.5" y="368.5283">instance</text></g><!--SRC=[pLPBSzCm4BxxLsXwgTFO0QuP9ZEbvT0Emu70hHVPtZXgPIb82enX-jzPMNv8ZfsMuK9EqkwdVNxUpQL-Ok905Qr89ONCzqfMG8mwGZHe3ZH_eYLiJSs1ACWD5INt0NfF2_cJYPBiADU-XZC1fZu0EKXUsqjqEQ6KoiZ8UvLpglMrCOfbHmDtkHHRzWl8soYA6XMvaPpJJ2fgf2A_8s9_ATdY0un1q0f6eafcZCFdOvM1SghLQXMvqpAm5jlN2ScOClk26ZpIec9QCobkcwis2i0a3y8TdCq4yzE6yXjP82Hdfav8mH31SfCGg2ZZIH04lcV5hSo_Ole9QOwTfKUPBRh8IdI0ySI-u4CNMYV5LF0OFNV5kPTPMvC-VxHfxRYCbnOHjw95Az9WxfrahCcv59slbFoWd5ddWOd1jwrHxvm9GmfQUpVacDbxzngeweAoJsDhsiMyyCLUb3ri7D58uQhoFCMOBu3TOdYekqW_OQ_U-v0DoRsRLNTXJXlg8wH54VjFnr46N3i5OhaLZ67_1oLzVWs9aw24gDfOj5-mic6MbVZzw2qmqBqDNzXN5D_VOMPKvCW3iWv0WOk9Rg1YjbyOYf38LWuxG-GkJAiDwAYX83kSCLYv0wSryhBHc3tOD762OPuW2c8j3QcLA0RbUxv1uYkyW-gJ3SluEE5zElI0cTwRDkNptkF0Jp9ZQ_4wMnstPygVdYt_13d-zGCW0VyVnDz-0EGi_ttkdfRbsvt7uhFzp_jZDBssUacVS1Hih2NkuEz7q7OKqhviBKElHR45ZZlQ3kX-R1wpYldmqN3yQ8inMXbDWJg73I1kH5xddDIRpIUmOUvDM33IkOh7cwQFwxee56WzYinrsTiYVjj3wC20K6xP44ewPdGPjwxZIMgT6QrUURRD4xy-hSJPEa4wu-CEpP1jfLYvDwlD2soBNY3Z2YrSlBkO6pNhkM4pWqTJAVuJ52bQlGgjZcoz9h1mGgv7CpBKMi_fnZgrVtyQR10aaMdQP3gZlafJgsreYdh7_Yb4Imp4K7UQH3N_WzR35qpUF8XWQBqc_s17hl6hznPVe4lJJPURLw19o7JZHjWJrwnTm57q1m00]--></g></svg>