<?xml version="1.0" encoding="us-ascii" standalone="no"?><svg xmlns="http://www.w3.org/2000/svg" xmlns:xlink="http://www.w3.org/1999/xlink" contentStyleType="text/css" height="2329px" preserveAspectRatio="none" style="width:2718px;height:2329px;background:#FFFFFF;" version="1.1" viewBox="0 0 2718 2329" width="2718px" zoomAndPan="magnify"><defs/><g><text fill="#000000" font-family="sans-serif" font-size="14" font-weight="bold" lengthAdjust="spacing" textLength="188" x="1266.25" y="30.1074">US003 - Sequence Diagram</text><rect fill="#FFFFFF" height="2104.5391" style="stroke:#181818;stroke-width:1.0;" width="10" x="33" y="133.2422"/><rect fill="#FFFFFF" height="92.1641" style="stroke:#181818;stroke-width:1.0;" width="10" x="363" y="156.5332"/><rect fill="#FFFFFF" height="442.4922" style="stroke:#181818;stroke-width:1.0;" width="10" x="363" y="279.9883"/><rect fill="#FFFFFF" height="75.582" style="stroke:#181818;stroke-width:1.0;" width="10" x="363" y="753.7715"/><rect fill="#FFFFFF" height="1368.1367" style="stroke:#181818;stroke-width:1.0;" width="10" x="363" y="860.6445"/><rect fill="#FFFFFF" height="219.0371" style="stroke:#181818;stroke-width:1.0;" width="10" x="721" y="472.1523"/><rect fill="#FFFFFF" height="1270.9727" style="stroke:#181818;stroke-width:1.0;" width="10" x="721" y="926.5176"/><rect fill="#FFFFFF" height="31.291" style="stroke:#181818;stroke-width:1.0;" width="10" x="885" y="503.4434"/><rect fill="#FFFFFF" height="31.291" style="stroke:#181818;stroke-width:1.0;" width="10" x="992" y="566.0254"/><rect fill="#FFFFFF" height="31.291" style="stroke:#181818;stroke-width:1.0;" width="10" x="1103" y="628.6074"/><rect fill="#FFFFFF" height="1191.0996" style="stroke:#181818;stroke-width:1.0;" width="10" x="1248" y="975.0996"/><rect fill="none" height="141.4551" style="stroke:#000000;stroke-width:1.5;" width="448.5" x="10" y="171.5332"/><line style="stroke:#181818;stroke-width:0.5;stroke-dasharray:5.0,5.0;" x1="38" x2="38" y1="123.2422" y2="2246.7813"/><line style="stroke:#181818;stroke-width:0.5;stroke-dasharray:5.0,5.0;" x1="367.5" x2="367.5" y1="123.2422" y2="2246.7813"/><line style="stroke:#181818;stroke-width:0.5;stroke-dasharray:5.0,5.0;" x1="725.5" x2="725.5" y1="123.2422" y2="2246.7813"/><line style="stroke:#181818;stroke-width:0.5;stroke-dasharray:5.0,5.0;" x1="889.5" x2="889.5" y1="123.2422" y2="2246.7813"/><line style="stroke:#181818;stroke-width:0.5;stroke-dasharray:5.0,5.0;" x1="996.5" x2="996.5" y1="123.2422" y2="2246.7813"/><line style="stroke:#181818;stroke-width:0.5;stroke-dasharray:5.0,5.0;" x1="1107.5" x2="1107.5" y1="123.2422" y2="2246.7813"/><line style="stroke:#181818;stroke-width:0.5;stroke-dasharray:5.0,5.0;" x1="1252.5" x2="1252.5" y1="123.2422" y2="2246.7813"/><line style="stroke:#181818;stroke-width:0.5;stroke-dasharray:5.0,5.0;" x1="1659" x2="1659" y1="1026.0361" y2="2246.7813"/><line style="stroke:#181818;stroke-width:0.5;stroke-dasharray:5.0,5.0;" x1="2087.5" x2="2087.5" y1="1332.8203" y2="2246.7813"/><line style="stroke:#181818;stroke-width:0.5;stroke-dasharray:5.0,5.0;" x1="2302.5" x2="2302.5" y1="1162.8457" y2="2246.7813"/><line style="stroke:#181818;stroke-width:0.5;stroke-dasharray:5.0,5.0;" x1="2498.5" x2="2498.5" y1="1647.8965" y2="2246.7813"/><text fill="#000000" font-family="sans-serif" font-size="14" lengthAdjust="spacing" textLength="30" x="20" y="119.7285">HRM</text><ellipse cx="38" cy="53.1211" fill="#E3E3E3" rx="8" ry="8" style="stroke:#181818;stroke-width:0.5;"/><path d="M38,61.1211 L38,88.1211 M25,69.1211 L51,69.1211 M38,88.1211 L25,103.1211 M38,88.1211 L51,103.1211 " fill="none" style="stroke:#181818;stroke-width:0.5;"/><text fill="#000000" font-family="sans-serif" font-size="14" lengthAdjust="spacing" textLength="30" x="20" y="2260.8887">HRM</text><ellipse cx="38" cy="2272.9023" fill="#E3E3E3" rx="8" ry="8" style="stroke:#181818;stroke-width:0.5;"/><path d="M38,2280.9023 L38,2307.9023 M25,2288.9023 L51,2288.9023 M38,2307.9023 L25,2322.9023 M38,2307.9023 L51,2322.9023 " fill="none" style="stroke:#181818;stroke-width:0.5;"/><rect fill="#E3E3E3" height="32.6211" rx="2.5" ry="2.5" style="stroke:#181818;stroke-width:0.5;" width="161" x="287.5" y="89.6211"/><text fill="#000000" font-family="sans-serif" font-size="14" lengthAdjust="spacing" textLength="147" x="294.5" y="111.7285">:RegisterCollaboratorUI</text><rect fill="#E3E3E3" height="32.6211" rx="2.5" ry="2.5" style="stroke:#181818;stroke-width:0.5;" width="161" x="287.5" y="2245.7813"/><text fill="#000000" font-family="sans-serif" font-size="14" lengthAdjust="spacing" textLength="147" x="294.5" y="2267.8887">:RegisterCollaboratorUI</text><rect fill="#E3E3E3" height="32.6211" rx="2.5" ry="2.5" style="stroke:#181818;stroke-width:0.5;" width="211" x="620.5" y="89.6211"/><text fill="#000000" font-family="sans-serif" font-size="14" lengthAdjust="spacing" textLength="197" x="627.5" y="111.7285">:RegisterCollaboratorController</text><rect fill="#E3E3E3" height="32.6211" rx="2.5" ry="2.5" style="stroke:#181818;stroke-width:0.5;" width="211" x="620.5" y="2245.7813"/><text fill="#000000" font-family="sans-serif" font-size="14" lengthAdjust="spacing" textLength="197" x="627.5" y="2267.8887">:RegisterCollaboratorController</text><rect fill="#E3E3E3" height="32.6211" rx="2.5" ry="2.5" style="stroke:#181818;stroke-width:0.5;" width="97" x="841.5" y="89.6211"/><text fill="#000000" font-family="sans-serif" font-size="14" lengthAdjust="spacing" textLength="83" x="848.5" y="111.7285">:Repositories</text><rect fill="#E3E3E3" height="32.6211" rx="2.5" ry="2.5" style="stroke:#181818;stroke-width:0.5;" width="97" x="841.5" y="2245.7813"/><text fill="#000000" font-family="sans-serif" font-size="14" lengthAdjust="spacing" textLength="83" x="848.5" y="2267.8887">:Repositories</text><rect fill="#E3E3E3" height="51.2422" rx="2.5" ry="2.5" style="stroke:#181818;stroke-width:0.5;" width="97" x="948.5" y="71"/><text fill="#000000" font-family="sans-serif" font-size="14" lengthAdjust="spacing" textLength="74" x="960" y="93.1074">repositories</text><text fill="#000000" font-family="sans-serif" font-size="14" lengthAdjust="spacing" textLength="83" x="955.5" y="111.7285">:Repositories</text><rect fill="#E3E3E3" height="51.2422" rx="2.5" ry="2.5" style="stroke:#181818;stroke-width:0.5;" width="97" x="948.5" y="2245.7813"/><text fill="#000000" font-family="sans-serif" font-size="14" lengthAdjust="spacing" textLength="74" x="960" y="2267.8887">repositories</text><text fill="#000000" font-family="sans-serif" font-size="14" lengthAdjust="spacing" textLength="83" x="955.5" y="2286.5098">:Repositories</text><rect fill="#E3E3E3" height="51.2422" rx="2.5" ry="2.5" style="stroke:#181818;stroke-width:0.5;" width="105" x="1055.5" y="71"/><text fill="#000000" font-family="sans-serif" font-size="14" lengthAdjust="spacing" textLength="91" x="1062.5" y="93.1074">jobRepository:</text><text fill="#000000" font-family="sans-serif" font-size="14" lengthAdjust="spacing" textLength="90" x="1063" y="111.7285">JobRepository</text><rect fill="#E3E3E3" height="51.2422" rx="2.5" ry="2.5" style="stroke:#181818;stroke-width:0.5;" width="105" x="1055.5" y="2245.7813"/><text fill="#000000" font-family="sans-serif" font-size="14" lengthAdjust="spacing" textLength="91" x="1062.5" y="2267.8887">jobRepository:</text><text fill="#000000" font-family="sans-serif" font-size="14" lengthAdjust="spacing" textLength="90" x="1063" y="2286.5098">JobRepository</text><rect fill="#E3E3E3" height="51.2422" rx="2.5" ry="2.5" style="stroke:#181818;stroke-width:0.5;" width="165" x="1170.5" y="71"/><text fill="#000000" font-family="sans-serif" font-size="14" lengthAdjust="spacing" textLength="147" x="1177.5" y="93.1074">:collaboratorRepository</text><text fill="#000000" font-family="sans-serif" font-size="14" lengthAdjust="spacing" textLength="146" x="1180" y="111.7285">CollaboratorRepository</text><rect fill="#E3E3E3" height="51.2422" rx="2.5" ry="2.5" style="stroke:#181818;stroke-width:0.5;" width="165" x="1170.5" y="2245.7813"/><text fill="#000000" font-family="sans-serif" font-size="14" lengthAdjust="spacing" textLength="147" x="1177.5" y="2267.8887">:collaboratorRepository</text><text fill="#000000" font-family="sans-serif" font-size="14" lengthAdjust="spacing" textLength="146" x="1180" y="2286.5098">CollaboratorRepository</text><rect fill="#E3E3E3" height="51.2422" rx="2.5" ry="2.5" style="stroke:#181818;stroke-width:0.5;" width="97" x="1611" y="2245.7813"/><text fill="#000000" font-family="sans-serif" font-size="14" lengthAdjust="spacing" textLength="79" x="1618" y="2267.8887">:collaborator</text><text fill="#000000" font-family="sans-serif" font-size="14" lengthAdjust="spacing" textLength="78" x="1620.5" y="2286.5098">Collaborator</text><rect fill="#E3E3E3" height="32.6211" rx="2.5" ry="2.5" style="stroke:#181818;stroke-width:0.5;" width="70" x="2052.5" y="2245.7813"/><text fill="#000000" font-family="sans-serif" font-size="14" lengthAdjust="spacing" textLength="56" x="2059.5" y="2267.8887">:Address</text><rect fill="#E3E3E3" height="32.6211" rx="2.5" ry="2.5" style="stroke:#181818;stroke-width:0.5;" width="48" x="2278.5" y="2245.7813"/><text fill="#000000" font-family="sans-serif" font-size="14" lengthAdjust="spacing" textLength="34" x="2285.5" y="2267.8887">:Date</text><rect fill="#E3E3E3" height="32.6211" rx="2.5" ry="2.5" style="stroke:#181818;stroke-width:0.5;" width="52" x="2472.5" y="2245.7813"/><text fill="#000000" font-family="sans-serif" font-size="14" lengthAdjust="spacing" textLength="38" x="2479.5" y="2267.8887">:Email</text><rect fill="#FFFFFF" height="2104.5391" style="stroke:#181818;stroke-width:1.0;" width="10" x="33" y="133.2422"/><rect fill="#FFFFFF" height="92.1641" style="stroke:#181818;stroke-width:1.0;" width="10" x="363" y="156.5332"/><rect fill="#FFFFFF" height="442.4922" style="stroke:#181818;stroke-width:1.0;" width="10" x="363" y="279.9883"/><rect fill="#FFFFFF" height="75.582" style="stroke:#181818;stroke-width:1.0;" width="10" x="363" y="753.7715"/><rect fill="#FFFFFF" height="1368.1367" style="stroke:#181818;stroke-width:1.0;" width="10" x="363" y="860.6445"/><rect fill="#FFFFFF" height="219.0371" style="stroke:#181818;stroke-width:1.0;" width="10" x="721" y="472.1523"/><rect fill="#FFFFFF" height="1270.9727" style="stroke:#181818;stroke-width:1.0;" width="10" x="721" y="926.5176"/><rect fill="#FFFFFF" height="31.291" style="stroke:#181818;stroke-width:1.0;" width="10" x="885" y="503.4434"/><rect fill="#FFFFFF" height="31.291" style="stroke:#181818;stroke-width:1.0;" width="10" x="992" y="566.0254"/><rect fill="#FFFFFF" height="31.291" style="stroke:#181818;stroke-width:1.0;" width="10" x="1103" y="628.6074"/><rect fill="#FFFFFF" height="1191.0996" style="stroke:#181818;stroke-width:1.0;" width="10" x="1248" y="975.0996"/><polygon fill="#181818" points="351,152.5332,361,156.5332,351,160.5332,355,156.5332" style="stroke:#181818;stroke-width:1.0;"/><line style="stroke:#181818;stroke-width:1.0;" x1="43" x2="357" y1="156.5332" y2="156.5332"/><text fill="#000000" font-family="sans-serif" font-size="13" font-weight="bold" lengthAdjust="spacing" textLength="7" x="50" y="151.2705">1</text><text fill="#000000" font-family="sans-serif" font-size="13" lengthAdjust="spacing" textLength="174" x="61" y="151.2705">Asks to register a collaborator</text><path d="M10,171.5332 L83,171.5332 L83,180.8242 L73,190.8242 L10,190.8242 L10,171.5332 " fill="#EEEEEE" style="stroke:#000000;stroke-width:1.5;"/><rect fill="none" height="141.4551" style="stroke:#000000;stroke-width:1.5;" width="448.5" x="10" y="171.5332"/><text fill="#000000" font-family="sans-serif" font-size="13" font-weight="bold" lengthAdjust="spacing" textLength="28" x="25" y="186.5615">loop</text><text fill="#000000" font-family="sans-serif" font-size="11" font-weight="bold" lengthAdjust="spacing" textLength="157" x="98" y="185.4033">[until typed data is validated]</text><polygon fill="#181818" points="54,244.6973,44,248.6973,54,252.6973,50,248.6973" style="stroke:#181818;stroke-width:1.0;"/><line style="stroke:#181818;stroke-width:1.0;stroke-dasharray:2.0,2.0;" x1="48" x2="367" y1="248.6973" y2="248.6973"/><text fill="#000000" font-family="sans-serif" font-size="13" font-weight="bold" lengthAdjust="spacing" textLength="7" x="60" y="226.1436">2</text><text fill="#000000" font-family="sans-serif" font-size="13" lengthAdjust="spacing" textLength="280" x="71" y="208.8525">Requests data (name, birthdate, admissionDate,</text><text fill="#000000" font-family="sans-serif" font-size="13" lengthAdjust="spacing" textLength="272" x="75" y="226.1436">street, streetNumber, postalCode, city, district,</text><text fill="#000000" font-family="sans-serif" font-size="13" lengthAdjust="spacing" textLength="281" x="75" y="243.4346">email, mobileNumber, idDocType, idDocNumber)</text><polygon fill="#181818" points="351,275.9883,361,279.9883,351,283.9883,355,279.9883" style="stroke:#181818;stroke-width:1.0;"/><line style="stroke:#181818;stroke-width:1.0;" x1="43" x2="357" y1="279.9883" y2="279.9883"/><text fill="#000000" font-family="sans-serif" font-size="13" font-weight="bold" lengthAdjust="spacing" textLength="7" x="50" y="274.7256">3</text><text fill="#000000" font-family="sans-serif" font-size="13" lengthAdjust="spacing" textLength="125" x="61" y="274.7256">Types requested data</text><line style="stroke:#181818;stroke-width:1.0;stroke-dasharray:2.0,2.0;" x1="373" x2="415" y1="402.8613" y2="402.8613"/><line style="stroke:#181818;stroke-width:1.0;stroke-dasharray:2.0,2.0;" x1="415" x2="415" y1="402.8613" y2="415.8613"/><line style="stroke:#181818;stroke-width:1.0;stroke-dasharray:2.0,2.0;" x1="374" x2="415" y1="415.8613" y2="415.8613"/><polygon fill="#181818" points="384,411.8613,374,415.8613,384,419.8613,380,415.8613" style="stroke:#181818;stroke-width:1.0;"/><text fill="#000000" font-family="sans-serif" font-size="13" font-weight="bold" lengthAdjust="spacing" textLength="7" x="380" y="380.3076">4</text><text fill="#000000" font-family="sans-serif" font-size="13" lengthAdjust="spacing" textLength="247" x="391" y="363.0166">keepData(name, birthdate, admissionDate,</text><text fill="#000000" font-family="sans-serif" font-size="13" lengthAdjust="spacing" textLength="272" x="395" y="380.3076">street, streetNumber, postalCode, city, district,</text><text fill="#000000" font-family="sans-serif" font-size="13" lengthAdjust="spacing" textLength="281" x="395" y="397.5986">email, mobileNumber, idDocType, idDocNumber)</text><polygon fill="#181818" points="709,468.1523,719,472.1523,709,476.1523,713,472.1523" style="stroke:#181818;stroke-width:1.0;"/><line style="stroke:#181818;stroke-width:1.0;" x1="373" x2="715" y1="472.1523" y2="472.1523"/><text fill="#000000" font-family="sans-serif" font-size="13" font-weight="bold" lengthAdjust="spacing" textLength="7" x="380" y="466.8896">5</text><text fill="#000000" font-family="sans-serif" font-size="13" lengthAdjust="spacing" textLength="67" x="391" y="466.8896">getJobList()</text><polygon fill="#181818" points="873,499.4434,883,503.4434,873,507.4434,877,503.4434" style="stroke:#181818;stroke-width:1.0;"/><line style="stroke:#181818;stroke-width:1.0;" x1="731" x2="879" y1="503.4434" y2="503.4434"/><text fill="#000000" font-family="sans-serif" font-size="13" font-weight="bold" lengthAdjust="spacing" textLength="7" x="738" y="498.1807">6</text><text fill="#000000" font-family="sans-serif" font-size="13" lengthAdjust="spacing" textLength="75" x="749" y="498.1807">getInstance()</text><polygon fill="#181818" points="742,530.7344,732,534.7344,742,538.7344,738,534.7344" style="stroke:#181818;stroke-width:1.0;"/><line style="stroke:#181818;stroke-width:1.0;stroke-dasharray:2.0,2.0;" x1="736" x2="889" y1="534.7344" y2="534.7344"/><text fill="#000000" font-family="sans-serif" font-size="13" font-weight="bold" lengthAdjust="spacing" textLength="7" x="748" y="529.4717">7</text><text fill="#000000" font-family="sans-serif" font-size="13" lengthAdjust="spacing" textLength="67" x="759" y="529.4717">repositories</text><polygon fill="#181818" points="980,562.0254,990,566.0254,980,570.0254,984,566.0254" style="stroke:#181818;stroke-width:1.0;"/><line style="stroke:#181818;stroke-width:1.0;" x1="731" x2="986" y1="566.0254" y2="566.0254"/><text fill="#000000" font-family="sans-serif" font-size="13" font-weight="bold" lengthAdjust="spacing" textLength="7" x="738" y="560.7627">8</text><text fill="#000000" font-family="sans-serif" font-size="13" lengthAdjust="spacing" textLength="108" x="749" y="560.7627">getJobRepository()</text><polygon fill="#181818" points="742,593.3164,732,597.3164,742,601.3164,738,597.3164" style="stroke:#181818;stroke-width:1.0;"/><line style="stroke:#181818;stroke-width:1.0;stroke-dasharray:2.0,2.0;" x1="736" x2="996" y1="597.3164" y2="597.3164"/><text fill="#000000" font-family="sans-serif" font-size="13" font-weight="bold" lengthAdjust="spacing" textLength="7" x="748" y="592.0537">9</text><text fill="#000000" font-family="sans-serif" font-size="13" lengthAdjust="spacing" textLength="79" x="759" y="592.0537">jobRepository</text><polygon fill="#181818" points="1091,624.6074,1101,628.6074,1091,632.6074,1095,628.6074" style="stroke:#181818;stroke-width:1.0;"/><line style="stroke:#181818;stroke-width:1.0;" x1="731" x2="1097" y1="628.6074" y2="628.6074"/><text fill="#000000" font-family="sans-serif" font-size="13" font-weight="bold" lengthAdjust="spacing" textLength="14" x="738" y="623.3447">10</text><text fill="#000000" font-family="sans-serif" font-size="13" lengthAdjust="spacing" textLength="67" x="756" y="623.3447">getJobList()</text><polygon fill="#181818" points="742,655.8984,732,659.8984,742,663.8984,738,659.8984" style="stroke:#181818;stroke-width:1.0;"/><line style="stroke:#181818;stroke-width:1.0;stroke-dasharray:2.0,2.0;" x1="736" x2="1107" y1="659.8984" y2="659.8984"/><text fill="#000000" font-family="sans-serif" font-size="13" font-weight="bold" lengthAdjust="spacing" textLength="14" x="748" y="654.6357">11</text><text fill="#000000" font-family="sans-serif" font-size="13" lengthAdjust="spacing" textLength="38" x="766" y="654.6357">jobList</text><polygon fill="#181818" points="384,687.1895,374,691.1895,384,695.1895,380,691.1895" style="stroke:#181818;stroke-width:1.0;"/><line style="stroke:#181818;stroke-width:1.0;stroke-dasharray:2.0,2.0;" x1="378" x2="725" y1="691.1895" y2="691.1895"/><text fill="#000000" font-family="sans-serif" font-size="13" font-weight="bold" lengthAdjust="spacing" textLength="14" x="390" y="685.9268">12</text><text fill="#000000" font-family="sans-serif" font-size="13" lengthAdjust="spacing" textLength="38" x="408" y="685.9268">jobList</text><polygon fill="#181818" points="54,718.4805,44,722.4805,54,726.4805,50,722.4805" style="stroke:#181818;stroke-width:1.0;"/><line style="stroke:#181818;stroke-width:1.0;stroke-dasharray:2.0,2.0;" x1="48" x2="367" y1="722.4805" y2="722.4805"/><text fill="#000000" font-family="sans-serif" font-size="13" font-weight="bold" lengthAdjust="spacing" textLength="14" x="60" y="717.2178">13</text><text fill="#000000" font-family="sans-serif" font-size="13" lengthAdjust="spacing" textLength="217" x="78" y="717.2178">Shows job list and asks to select one</text><polygon fill="#181818" points="351,749.7715,361,753.7715,351,757.7715,355,753.7715" style="stroke:#181818;stroke-width:1.0;"/><line style="stroke:#181818;stroke-width:1.0;" x1="43" x2="357" y1="753.7715" y2="753.7715"/><text fill="#000000" font-family="sans-serif" font-size="13" font-weight="bold" lengthAdjust="spacing" textLength="14" x="50" y="748.5088">14</text><text fill="#000000" font-family="sans-serif" font-size="13" lengthAdjust="spacing" textLength="76" x="68" y="748.5088">Selects a job</text><line style="stroke:#181818;stroke-width:1.0;stroke-dasharray:2.0,2.0;" x1="373" x2="415" y1="785.0625" y2="785.0625"/><line style="stroke:#181818;stroke-width:1.0;stroke-dasharray:2.0,2.0;" x1="415" x2="415" y1="785.0625" y2="798.0625"/><line style="stroke:#181818;stroke-width:1.0;stroke-dasharray:2.0,2.0;" x1="374" x2="415" y1="798.0625" y2="798.0625"/><polygon fill="#181818" points="384,794.0625,374,798.0625,384,802.0625,380,798.0625" style="stroke:#181818;stroke-width:1.0;"/><text fill="#000000" font-family="sans-serif" font-size="13" font-weight="bold" lengthAdjust="spacing" textLength="14" x="380" y="779.7998">15</text><text fill="#000000" font-family="sans-serif" font-size="13" lengthAdjust="spacing" textLength="104" x="398" y="779.7998">keepData(Job job)</text><polygon fill="#181818" points="54,825.3535,44,829.3535,54,833.3535,50,829.3535" style="stroke:#181818;stroke-width:1.0;"/><line style="stroke:#181818;stroke-width:1.0;stroke-dasharray:2.0,2.0;" x1="48" x2="367" y1="829.3535" y2="829.3535"/><text fill="#000000" font-family="sans-serif" font-size="13" font-weight="bold" lengthAdjust="spacing" textLength="14" x="60" y="824.0908">16</text><text fill="#000000" font-family="sans-serif" font-size="13" lengthAdjust="spacing" textLength="238" x="78" y="824.0908">Shows all data and requests confirmation</text><polygon fill="#181818" points="351,856.6445,361,860.6445,351,864.6445,355,860.6445" style="stroke:#181818;stroke-width:1.0;"/><line style="stroke:#181818;stroke-width:1.0;" x1="43" x2="357" y1="860.6445" y2="860.6445"/><text fill="#000000" font-family="sans-serif" font-size="13" font-weight="bold" lengthAdjust="spacing" textLength="14" x="50" y="855.3818">17</text><text fill="#000000" font-family="sans-serif" font-size="13" lengthAdjust="spacing" textLength="80" x="68" y="855.3818">Confirms data</text><polygon fill="#181818" points="709,922.5176,719,926.5176,709,930.5176,713,926.5176" style="stroke:#181818;stroke-width:1.0;"/><line style="stroke:#181818;stroke-width:1.0;" x1="373" x2="715" y1="926.5176" y2="926.5176"/><text fill="#000000" font-family="sans-serif" font-size="13" font-weight="bold" lengthAdjust="spacing" textLength="14" x="380" y="903.9639">18</text><text fill="#000000" font-family="sans-serif" font-size="13" lengthAdjust="spacing" textLength="297" x="398" y="886.6729">createCollaborator(name, birthdate, admissionDate,</text><text fill="#000000" font-family="sans-serif" font-size="13" lengthAdjust="spacing" textLength="311" x="398" y="903.9639">street, streetNumber, postalCode, city, district, email,</text><text fill="#000000" font-family="sans-serif" font-size="13" lengthAdjust="spacing" textLength="267" x="402" y="921.2549">mobileNumber, idDocType, idDocNumber, job)</text><polygon fill="#181818" points="1236,971.0996,1246,975.0996,1236,979.0996,1240,975.0996" style="stroke:#181818;stroke-width:1.0;"/><line style="stroke:#181818;stroke-width:1.0;" x1="731" x2="1242" y1="975.0996" y2="975.0996"/><text fill="#000000" font-family="sans-serif" font-size="13" font-weight="bold" lengthAdjust="spacing" textLength="14" x="738" y="961.1914">19</text><text fill="#000000" font-family="sans-serif" font-size="13" lengthAdjust="spacing" textLength="424" x="756" y="952.5459">createCollaborator(name, birthdate, admissionDate, street, streetNumber,</text><text fill="#000000" font-family="sans-serif" font-size="13" lengthAdjust="spacing" textLength="455" x="760" y="969.8369">postalCode, city, district, email, mobileNumber, idDocType, idDocNumber, job)</text><polygon fill="#181818" points="1599,1036.9727,1609,1040.9727,1599,1044.9727,1603,1040.9727" style="stroke:#181818;stroke-width:1.0;"/><line style="stroke:#181818;stroke-width:1.0;" x1="1258" x2="1605" y1="1040.9727" y2="1040.9727"/><text fill="#000000" font-family="sans-serif" font-size="13" font-weight="bold" lengthAdjust="spacing" textLength="14" x="1265" y="1018.4189">20</text><text fill="#000000" font-family="sans-serif" font-size="13" lengthAdjust="spacing" textLength="297" x="1283" y="1001.1279">createCollaborator(name, birthdate, admissionDate,</text><text fill="#000000" font-family="sans-serif" font-size="13" lengthAdjust="spacing" textLength="311" x="1283" y="1018.4189">street, streetNumber, postalCode, city, district, email,</text><text fill="#000000" font-family="sans-serif" font-size="13" lengthAdjust="spacing" textLength="267" x="1287" y="1035.71">mobileNumber, idDocType, idDocNumber, job)</text><rect fill="#E3E3E3" height="51.2422" rx="2.5" ry="2.5" style="stroke:#181818;stroke-width:0.5;" width="97" x="1611" y="986.7305"/><text fill="#000000" font-family="sans-serif" font-size="14" lengthAdjust="spacing" textLength="79" x="1618" y="1008.8379">:collaborator</text><text fill="#000000" font-family="sans-serif" font-size="14" lengthAdjust="spacing" textLength="78" x="1620.5" y="1027.459">Collaborator</text><path d="M1664,1053.9727 L1664,1097.9727 L2004,1097.9727 L2004,1063.9727 L1994,1053.9727 L1664,1053.9727 " fill="#FAFAFA" style="stroke:#181818;stroke-width:0.5;"/><path d="M1994,1053.9727 L1994,1063.9727 L2004,1063.9727 L1994,1053.9727 " fill="#FAFAFA" style="stroke:#181818;stroke-width:0.5;"/><text fill="#000000" font-family="sans-serif" font-size="13" lengthAdjust="spacing" textLength="285" x="1670" y="1073.001">When creating a collaborator it uses class Email,</text><text fill="#000000" font-family="sans-serif" font-size="13" lengthAdjust="spacing" textLength="319" x="1670" y="1090.292">Address and Date to create the object for that attribute.</text><polygon fill="#181818" points="2266.5,1165.1367,2276.5,1169.1367,2266.5,1173.1367,2270.5,1169.1367" style="stroke:#181818;stroke-width:1.0;"/><line style="stroke:#181818;stroke-width:1.0;" x1="1659.5" x2="2272.5" y1="1169.1367" y2="1169.1367"/><text fill="#000000" font-family="sans-serif" font-size="13" font-weight="bold" lengthAdjust="spacing" textLength="14" x="1666.5" y="1155.2285">21</text><text fill="#000000" font-family="sans-serif" font-size="13" lengthAdjust="spacing" textLength="112" x="1684.5" y="1146.583">new Date(birthdate)</text><text fill="#000000" font-family="sans-serif" font-size="13" lengthAdjust="spacing" textLength="139" x="1684.5" y="1163.874">new Date(admissionate)</text><rect fill="#E3E3E3" height="32.6211" rx="2.5" ry="2.5" style="stroke:#181818;stroke-width:0.5;" width="48" x="2278.5" y="1133.5156"/><text fill="#000000" font-family="sans-serif" font-size="14" lengthAdjust="spacing" textLength="34" x="2285.5" y="1155.623">:Date</text><line style="stroke:#181818;stroke-width:1.0;stroke-dasharray:2.0,2.0;" x1="2302.5" x2="2344.5" y1="1200.4277" y2="1200.4277"/><line style="stroke:#181818;stroke-width:1.0;stroke-dasharray:2.0,2.0;" x1="2344.5" x2="2344.5" y1="1200.4277" y2="1213.4277"/><line style="stroke:#181818;stroke-width:1.0;stroke-dasharray:2.0,2.0;" x1="2303.5" x2="2344.5" y1="1213.4277" y2="1213.4277"/><polygon fill="#181818" points="2313.5,1209.4277,2303.5,1213.4277,2313.5,1217.4277,2309.5,1213.4277" style="stroke:#181818;stroke-width:1.0;"/><text fill="#000000" font-family="sans-serif" font-size="13" font-weight="bold" lengthAdjust="spacing" textLength="14" x="2309.5" y="1195.165">22</text><text fill="#000000" font-family="sans-serif" font-size="13" lengthAdjust="spacing" textLength="128" x="2327.5" y="1195.165">validateDate(birthdate)</text><line style="stroke:#181818;stroke-width:1.0;stroke-dasharray:2.0,2.0;" x1="2302.5" x2="2344.5" y1="1249.8643" y2="1249.8643"/><line style="stroke:#181818;stroke-width:1.0;stroke-dasharray:2.0,2.0;" x1="2344.5" x2="2344.5" y1="1249.8643" y2="1262.8643"/><line style="stroke:#181818;stroke-width:1.0;stroke-dasharray:2.0,2.0;" x1="2303.5" x2="2344.5" y1="1262.8643" y2="1262.8643"/><polygon fill="#181818" points="2313.5,1258.8643,2303.5,1262.8643,2313.5,1266.8643,2309.5,1262.8643" style="stroke:#181818;stroke-width:1.0;"/><text fill="#000000" font-family="sans-serif" font-size="13" font-weight="bold" lengthAdjust="spacing" textLength="14" x="2309.5" y="1244.6016">23</text><text fill="#000000" font-family="sans-serif" font-size="13" lengthAdjust="spacing" textLength="164" x="2327.5" y="1244.6016">validateDate(admissionDate)</text><path d="M2503,1226.4277 L2503,1270.4277 L2711,1270.4277 L2711,1236.4277 L2701,1226.4277 L2503,1226.4277 " fill="#FAFAFA" style="stroke:#181818;stroke-width:0.5;"/><path d="M2701,1226.4277 L2701,1236.4277 L2711,1236.4277 L2701,1226.4277 " fill="#FAFAFA" style="stroke:#181818;stroke-width:0.5;"/><text fill="#000000" font-family="sans-serif" font-size="13" font-weight="bold" lengthAdjust="spacing" textLength="35" x="2509" y="1245.4561">NOTE</text><text fill="#000000" font-family="sans-serif" font-size="13" lengthAdjust="spacing" textLength="187" x="2509" y="1262.7471">validates if date is correct format</text><polygon fill="#181818" points="2040.5,1320.3008,2050.5,1324.3008,2040.5,1328.3008,2044.5,1324.3008" style="stroke:#181818;stroke-width:1.0;"/><line style="stroke:#181818;stroke-width:1.0;" x1="1659.5" x2="2046.5" y1="1324.3008" y2="1324.3008"/><text fill="#000000" font-family="sans-serif" font-size="13" font-weight="bold" lengthAdjust="spacing" textLength="14" x="1666.5" y="1319.0381">24</text><text fill="#000000" font-family="sans-serif" font-size="13" lengthAdjust="spacing" textLength="351" x="1684.5" y="1319.0381">new Address(street, streetNumber, postalCode, city, district)</text><rect fill="#E3E3E3" height="32.6211" rx="2.5" ry="2.5" style="stroke:#181818;stroke-width:0.5;" width="70" x="2052.5" y="1301.0098"/><text fill="#000000" font-family="sans-serif" font-size="14" lengthAdjust="spacing" textLength="56" x="2059.5" y="1323.1172">:Address</text><line style="stroke:#181818;stroke-width:1.0;stroke-dasharray:2.0,2.0;" x1="2087.5" x2="2129.5" y1="1367.9219" y2="1367.9219"/><line style="stroke:#181818;stroke-width:1.0;stroke-dasharray:2.0,2.0;" x1="2129.5" x2="2129.5" y1="1367.9219" y2="1380.9219"/><line style="stroke:#181818;stroke-width:1.0;stroke-dasharray:2.0,2.0;" x1="2088.5" x2="2129.5" y1="1380.9219" y2="1380.9219"/><polygon fill="#181818" points="2098.5,1376.9219,2088.5,1380.9219,2098.5,1384.9219,2094.5,1380.9219" style="stroke:#181818;stroke-width:1.0;"/><text fill="#000000" font-family="sans-serif" font-size="13" font-weight="bold" lengthAdjust="spacing" textLength="14" x="2094.5" y="1362.6592">25</text><text fill="#000000" font-family="sans-serif" font-size="13" lengthAdjust="spacing" textLength="119" x="2112.5" y="1362.6592">validateStreet(street)</text><line style="stroke:#181818;stroke-width:1.0;stroke-dasharray:2.0,2.0;" x1="2087.5" x2="2129.5" y1="1412.2129" y2="1412.2129"/><line style="stroke:#181818;stroke-width:1.0;stroke-dasharray:2.0,2.0;" x1="2129.5" x2="2129.5" y1="1412.2129" y2="1425.2129"/><line style="stroke:#181818;stroke-width:1.0;stroke-dasharray:2.0,2.0;" x1="2088.5" x2="2129.5" y1="1425.2129" y2="1425.2129"/><polygon fill="#181818" points="2098.5,1421.2129,2088.5,1425.2129,2098.5,1429.2129,2094.5,1425.2129" style="stroke:#181818;stroke-width:1.0;"/><text fill="#000000" font-family="sans-serif" font-size="13" font-weight="bold" lengthAdjust="spacing" textLength="14" x="2094.5" y="1406.9502">26</text><text fill="#000000" font-family="sans-serif" font-size="13" lengthAdjust="spacing" textLength="174" x="2112.5" y="1406.9502">validateStreetNumber(number)</text><line style="stroke:#181818;stroke-width:1.0;stroke-dasharray:2.0,2.0;" x1="2087.5" x2="2129.5" y1="1456.5039" y2="1456.5039"/><line style="stroke:#181818;stroke-width:1.0;stroke-dasharray:2.0,2.0;" x1="2129.5" x2="2129.5" y1="1456.5039" y2="1469.5039"/><line style="stroke:#181818;stroke-width:1.0;stroke-dasharray:2.0,2.0;" x1="2088.5" x2="2129.5" y1="1469.5039" y2="1469.5039"/><polygon fill="#181818" points="2098.5,1465.5039,2088.5,1469.5039,2098.5,1473.5039,2094.5,1469.5039" style="stroke:#181818;stroke-width:1.0;"/><text fill="#000000" font-family="sans-serif" font-size="13" font-weight="bold" lengthAdjust="spacing" textLength="14" x="2094.5" y="1451.2412">27</text><text fill="#000000" font-family="sans-serif" font-size="13" lengthAdjust="spacing" textLength="183" x="2112.5" y="1451.2412">validatePostalCode(postalCode)</text><line style="stroke:#181818;stroke-width:1.0;stroke-dasharray:2.0,2.0;" x1="2087.5" x2="2129.5" y1="1500.7949" y2="1500.7949"/><line style="stroke:#181818;stroke-width:1.0;stroke-dasharray:2.0,2.0;" x1="2129.5" x2="2129.5" y1="1500.7949" y2="1513.7949"/><line style="stroke:#181818;stroke-width:1.0;stroke-dasharray:2.0,2.0;" x1="2088.5" x2="2129.5" y1="1513.7949" y2="1513.7949"/><polygon fill="#181818" points="2098.5,1509.7949,2088.5,1513.7949,2098.5,1517.7949,2094.5,1513.7949" style="stroke:#181818;stroke-width:1.0;"/><text fill="#000000" font-family="sans-serif" font-size="13" font-weight="bold" lengthAdjust="spacing" textLength="14" x="2094.5" y="1495.5322">28</text><text fill="#000000" font-family="sans-serif" font-size="13" lengthAdjust="spacing" textLength="95" x="2112.5" y="1495.5322">validateCity(city)</text><line style="stroke:#181818;stroke-width:1.0;stroke-dasharray:2.0,2.0;" x1="2087.5" x2="2129.5" y1="1545.0859" y2="1545.0859"/><line style="stroke:#181818;stroke-width:1.0;stroke-dasharray:2.0,2.0;" x1="2129.5" x2="2129.5" y1="1545.0859" y2="1558.0859"/><line style="stroke:#181818;stroke-width:1.0;stroke-dasharray:2.0,2.0;" x1="2088.5" x2="2129.5" y1="1558.0859" y2="1558.0859"/><polygon fill="#181818" points="2098.5,1554.0859,2088.5,1558.0859,2098.5,1562.0859,2094.5,1558.0859" style="stroke:#181818;stroke-width:1.0;"/><text fill="#000000" font-family="sans-serif" font-size="13" font-weight="bold" lengthAdjust="spacing" textLength="14" x="2094.5" y="1539.8232">29</text><text fill="#000000" font-family="sans-serif" font-size="13" lengthAdjust="spacing" textLength="131" x="2112.5" y="1539.8232">validateDistrict(district)</text><polygon fill="#181818" points="2460.5,1635.377,2470.5,1639.377,2460.5,1643.377,2464.5,1639.377" style="stroke:#181818;stroke-width:1.0;"/><line style="stroke:#181818;stroke-width:1.0;" x1="1659.5" x2="2466.5" y1="1639.377" y2="1639.377"/><text fill="#000000" font-family="sans-serif" font-size="13" font-weight="bold" lengthAdjust="spacing" textLength="14" x="1666.5" y="1634.1143">30</text><text fill="#000000" font-family="sans-serif" font-size="13" lengthAdjust="spacing" textLength="99" x="1684.5" y="1634.1143">new Email(email)</text><rect fill="#E3E3E3" height="32.6211" rx="2.5" ry="2.5" style="stroke:#181818;stroke-width:0.5;" width="52" x="2472.5" y="1616.0859"/><text fill="#000000" font-family="sans-serif" font-size="14" lengthAdjust="spacing" textLength="38" x="2479.5" y="1638.1934">:Email</text><line style="stroke:#181818;stroke-width:1.0;stroke-dasharray:2.0,2.0;" x1="2498.5" x2="2540.5" y1="1682.998" y2="1682.998"/><line style="stroke:#181818;stroke-width:1.0;stroke-dasharray:2.0,2.0;" x1="2540.5" x2="2540.5" y1="1682.998" y2="1695.998"/><line style="stroke:#181818;stroke-width:1.0;stroke-dasharray:2.0,2.0;" x1="2499.5" x2="2540.5" y1="1695.998" y2="1695.998"/><polygon fill="#181818" points="2509.5,1691.998,2499.5,1695.998,2509.5,1699.998,2505.5,1695.998" style="stroke:#181818;stroke-width:1.0;"/><text fill="#000000" font-family="sans-serif" font-size="13" font-weight="bold" lengthAdjust="spacing" textLength="14" x="2505.5" y="1677.7354">31</text><text fill="#000000" font-family="sans-serif" font-size="13" lengthAdjust="spacing" textLength="115" x="2523.5" y="1677.7354">validateEmail(email)</text><line style="stroke:#181818;stroke-width:1.0;stroke-dasharray:2.0,2.0;" x1="1659.5" x2="1701.5" y1="1744.5801" y2="1744.5801"/><line style="stroke:#181818;stroke-width:1.0;stroke-dasharray:2.0,2.0;" x1="1701.5" x2="1701.5" y1="1744.5801" y2="1757.5801"/><line style="stroke:#181818;stroke-width:1.0;stroke-dasharray:2.0,2.0;" x1="1660.5" x2="1701.5" y1="1757.5801" y2="1757.5801"/><polygon fill="#181818" points="1670.5,1753.5801,1660.5,1757.5801,1670.5,1761.5801,1666.5,1757.5801" style="stroke:#181818;stroke-width:1.0;"/><text fill="#000000" font-family="sans-serif" font-size="13" font-weight="bold" lengthAdjust="spacing" textLength="14" x="1666.5" y="1730.6719">32</text><text fill="#000000" font-family="sans-serif" font-size="13" lengthAdjust="spacing" textLength="124" x="1684.5" y="1722.0264">validate birthdate with</text><text fill="#000000" font-family="sans-serif" font-size="13" lengthAdjust="spacing" textLength="128" x="1684.5" y="1739.3174">setBirthdate(birthdate)</text><line style="stroke:#181818;stroke-width:1.0;stroke-dasharray:2.0,2.0;" x1="1659.5" x2="1701.5" y1="1806.1621" y2="1806.1621"/><line style="stroke:#181818;stroke-width:1.0;stroke-dasharray:2.0,2.0;" x1="1701.5" x2="1701.5" y1="1806.1621" y2="1819.1621"/><line style="stroke:#181818;stroke-width:1.0;stroke-dasharray:2.0,2.0;" x1="1660.5" x2="1701.5" y1="1819.1621" y2="1819.1621"/><polygon fill="#181818" points="1670.5,1815.1621,1660.5,1819.1621,1670.5,1823.1621,1666.5,1819.1621" style="stroke:#181818;stroke-width:1.0;"/><text fill="#000000" font-family="sans-serif" font-size="13" font-weight="bold" lengthAdjust="spacing" textLength="14" x="1666.5" y="1792.2539">33</text><text fill="#000000" font-family="sans-serif" font-size="13" lengthAdjust="spacing" textLength="160" x="1684.5" y="1783.6084">validate admissionDate with</text><text fill="#000000" font-family="sans-serif" font-size="13" lengthAdjust="spacing" textLength="164" x="1684.5" y="1800.8994">setAdmissionDate(birthdate)</text><path d="M1860,1774.0801 L1860,1818.0801 L2068,1818.0801 L2068,1784.0801 L2058,1774.0801 L1860,1774.0801 " fill="#FAFAFA" style="stroke:#181818;stroke-width:0.5;"/><path d="M2058,1774.0801 L2058,1784.0801 L2068,1784.0801 L2058,1774.0801 " fill="#FAFAFA" style="stroke:#181818;stroke-width:0.5;"/><text fill="#000000" font-family="sans-serif" font-size="13" font-weight="bold" lengthAdjust="spacing" textLength="35" x="1866" y="1793.1084">NOTE</text><text fill="#000000" font-family="sans-serif" font-size="13" lengthAdjust="spacing" textLength="187" x="1866" y="1810.3994">validates AC for that collaborator</text><line style="stroke:#181818;stroke-width:1.0;stroke-dasharray:2.0,2.0;" x1="1659.5" x2="1701.5" y1="1850.4531" y2="1850.4531"/><line style="stroke:#181818;stroke-width:1.0;stroke-dasharray:2.0,2.0;" x1="1701.5" x2="1701.5" y1="1850.4531" y2="1863.4531"/><line style="stroke:#181818;stroke-width:1.0;stroke-dasharray:2.0,2.0;" x1="1660.5" x2="1701.5" y1="1863.4531" y2="1863.4531"/><polygon fill="#181818" points="1670.5,1859.4531,1660.5,1863.4531,1670.5,1867.4531,1666.5,1863.4531" style="stroke:#181818;stroke-width:1.0;"/><text fill="#000000" font-family="sans-serif" font-size="13" font-weight="bold" lengthAdjust="spacing" textLength="14" x="1666.5" y="1845.1904">34</text><text fill="#000000" font-family="sans-serif" font-size="13" lengthAdjust="spacing" textLength="117" x="1684.5" y="1845.1904">validateName(name)</text><line style="stroke:#181818;stroke-width:1.0;stroke-dasharray:2.0,2.0;" x1="1659.5" x2="1701.5" y1="1894.7441" y2="1894.7441"/><line style="stroke:#181818;stroke-width:1.0;stroke-dasharray:2.0,2.0;" x1="1701.5" x2="1701.5" y1="1894.7441" y2="1907.7441"/><line style="stroke:#181818;stroke-width:1.0;stroke-dasharray:2.0,2.0;" x1="1660.5" x2="1701.5" y1="1907.7441" y2="1907.7441"/><polygon fill="#181818" points="1670.5,1903.7441,1660.5,1907.7441,1670.5,1911.7441,1666.5,1907.7441" style="stroke:#181818;stroke-width:1.0;"/><text fill="#000000" font-family="sans-serif" font-size="13" font-weight="bold" lengthAdjust="spacing" textLength="14" x="1666.5" y="1889.4814">35</text><text fill="#000000" font-family="sans-serif" font-size="13" lengthAdjust="spacing" textLength="217" x="1684.5" y="1889.4814">validateMobileNumber(mobileNumber)</text><line style="stroke:#181818;stroke-width:1.0;stroke-dasharray:2.0,2.0;" x1="1659.5" x2="1701.5" y1="1939.0352" y2="1939.0352"/><line style="stroke:#181818;stroke-width:1.0;stroke-dasharray:2.0,2.0;" x1="1701.5" x2="1701.5" y1="1939.0352" y2="1952.0352"/><line style="stroke:#181818;stroke-width:1.0;stroke-dasharray:2.0,2.0;" x1="1660.5" x2="1701.5" y1="1952.0352" y2="1952.0352"/><polygon fill="#181818" points="1670.5,1948.0352,1660.5,1952.0352,1670.5,1956.0352,1666.5,1952.0352" style="stroke:#181818;stroke-width:1.0;"/><text fill="#000000" font-family="sans-serif" font-size="13" font-weight="bold" lengthAdjust="spacing" textLength="14" x="1666.5" y="1933.7725">36</text><text fill="#000000" font-family="sans-serif" font-size="13" lengthAdjust="spacing" textLength="173" x="1684.5" y="1933.7725">validateIdDocType(idDocType)</text><line style="stroke:#181818;stroke-width:1.0;stroke-dasharray:2.0,2.0;" x1="1659.5" x2="1701.5" y1="1983.3262" y2="1983.3262"/><line style="stroke:#181818;stroke-width:1.0;stroke-dasharray:2.0,2.0;" x1="1701.5" x2="1701.5" y1="1983.3262" y2="1996.3262"/><line style="stroke:#181818;stroke-width:1.0;stroke-dasharray:2.0,2.0;" x1="1660.5" x2="1701.5" y1="1996.3262" y2="1996.3262"/><polygon fill="#181818" points="1670.5,1992.3262,1660.5,1996.3262,1670.5,2000.3262,1666.5,1996.3262" style="stroke:#181818;stroke-width:1.0;"/><text fill="#000000" font-family="sans-serif" font-size="13" font-weight="bold" lengthAdjust="spacing" textLength="14" x="1666.5" y="1978.0635">37</text><text fill="#000000" font-family="sans-serif" font-size="13" lengthAdjust="spacing" textLength="276" x="1684.5" y="1978.0635">validateIdDocNumber(idDocNumber, idDocType)</text><line style="stroke:#181818;stroke-width:1.0;stroke-dasharray:2.0,2.0;" x1="1258" x2="1300" y1="2077.6172" y2="2077.6172"/><line style="stroke:#181818;stroke-width:1.0;stroke-dasharray:2.0,2.0;" x1="1300" x2="1300" y1="2077.6172" y2="2090.6172"/><line style="stroke:#181818;stroke-width:1.0;stroke-dasharray:2.0,2.0;" x1="1259" x2="1300" y1="2090.6172" y2="2090.6172"/><polygon fill="#181818" points="1269,2086.6172,1259,2090.6172,1269,2094.6172,1265,2090.6172" style="stroke:#181818;stroke-width:1.0;"/><text fill="#000000" font-family="sans-serif" font-size="13" font-weight="bold" lengthAdjust="spacing" textLength="14" x="1265" y="2072.3545">38</text><text fill="#000000" font-family="sans-serif" font-size="13" lengthAdjust="spacing" textLength="174" x="1283" y="2072.3545">validateCaborator(collaborator)</text><line style="stroke:#181818;stroke-width:1.0;stroke-dasharray:2.0,2.0;" x1="1258" x2="1300" y1="2121.9082" y2="2121.9082"/><line style="stroke:#181818;stroke-width:1.0;stroke-dasharray:2.0,2.0;" x1="1300" x2="1300" y1="2121.9082" y2="2134.9082"/><line style="stroke:#181818;stroke-width:1.0;stroke-dasharray:2.0,2.0;" x1="1259" x2="1300" y1="2134.9082" y2="2134.9082"/><polygon fill="#181818" points="1269,2130.9082,1259,2134.9082,1269,2138.9082,1265,2134.9082" style="stroke:#181818;stroke-width:1.0;"/><text fill="#000000" font-family="sans-serif" font-size="13" font-weight="bold" lengthAdjust="spacing" textLength="14" x="1265" y="2116.6455">39</text><text fill="#000000" font-family="sans-serif" font-size="13" lengthAdjust="spacing" textLength="200" x="1283" y="2116.6455">addToCollaboratorList(collaborator)</text><polygon fill="#181818" points="742,2162.1992,732,2166.1992,742,2170.1992,738,2166.1992" style="stroke:#181818;stroke-width:1.0;"/><line style="stroke:#181818;stroke-width:1.0;stroke-dasharray:2.0,2.0;" x1="736" x2="1252" y1="2166.1992" y2="2166.1992"/><text fill="#000000" font-family="sans-serif" font-size="13" font-weight="bold" lengthAdjust="spacing" textLength="14" x="748" y="2160.9365">40</text><text fill="#000000" font-family="sans-serif" font-size="13" lengthAdjust="spacing" textLength="106" x="766" y="2160.9365">operation success</text><polygon fill="#181818" points="384,2193.4902,374,2197.4902,384,2201.4902,380,2197.4902" style="stroke:#181818;stroke-width:1.0;"/><line style="stroke:#181818;stroke-width:1.0;stroke-dasharray:2.0,2.0;" x1="378" x2="725" y1="2197.4902" y2="2197.4902"/><text fill="#000000" font-family="sans-serif" font-size="13" font-weight="bold" lengthAdjust="spacing" textLength="14" x="390" y="2192.2275">41</text><text fill="#000000" font-family="sans-serif" font-size="13" lengthAdjust="spacing" textLength="106" x="408" y="2192.2275">operation success</text><polygon fill="#181818" points="54,2224.7813,44,2228.7813,54,2232.7813,50,2228.7813" style="stroke:#181818;stroke-width:1.0;"/><line style="stroke:#181818;stroke-width:1.0;stroke-dasharray:2.0,2.0;" x1="48" x2="367" y1="2228.7813" y2="2228.7813"/><text fill="#000000" font-family="sans-serif" font-size="13" font-weight="bold" lengthAdjust="spacing" textLength="14" x="60" y="2223.5186">42</text><text fill="#000000" font-family="sans-serif" font-size="13" lengthAdjust="spacing" textLength="160" x="78" y="2223.5186">Displays operation success</text><!--SRC=[rLT1R-8w4BxdLunw2WYULjfR3oknjDBhgjkj2jLUUZ690M-3pRFDLaZzyMzi9uvj0eIUTdF1iVrz_cOcCnxKA-DR8ia6DeABOYt5XeAMEveflx8bnIjPqPdULnGaBJJXgohSeDQa56-Chs19AaMpJ3EDMvzddpvzXZ7Cw7yxoWiADuoiS7-MaPqMVBTPK8dZGWi9L_y-VRy2eW1_CsJLh61RmZLSNJ_H5LEQogceAh8Gak3-vpkx-Vcknzwfu5hYEvKMCvq_tH-Wja8ntCgeidlyn7x6ZAseDeR80F723maUxoVp6F5BB5hMwnV-BNotc6WcKLW4zhIRu8LFEnUSeJ_kdsuVJn0by0QK82PbAQboPjNZPCSDqTGkcq6oThiXhBABTcJ3pNxZFXle3F310Oo_O2pX6YRgLO4M-9MvE0A1KB43U0eCltclXDZ2ZcjMWTvlQGabqGIOWj-aOZYcfSEP1qyPus7cp6iCCtwOIYi7o3dPq14icDHhWne1AJTCAIQuCMpqma5fIQaUrRyFzWiU0NfTasegIeGKJEz7KA9uoGfjCDJOFSBqMh2ADX1MteXYZcBhePiVM9ab3GtC3fraS0fTPCNNvcRThdb_VtSBb9T-8l65vNobT8jMaZ_52LrQlzZSHR4hgZ5Pxf4_7sHjRBtnDiNzj7ai40aw4jlntN6KZpNA48P0pzbL4gATNTJZLdDOCI9S4EwpPpHccFBY_T2Yya6tTbkDeYLB4AYBgjCnUOSqZPv8HHgWJabniOlsn6InI4DvJDu9IgUp-TPJde0Z_dAYOZ5RYpTbi50X60WliQgvQgLeXRSY24wx4ZXDtvdThR2q8TbXsfvEJpJIm0QdD9AgSXNDQ9HDZIi4NpAv8HfJkRFEf3gd3g3g-d9IfuzH8IckXzVA-OfoSK6fomdMbJu5PHGxB8brzmVjxiuFsTDT7r7hUOC-OaviahloeqLhbZF76JOS_XLnQXukq339LcjCiANHZ-f_hYbt9fYcC-uHW6dOARmWYugekkr02NNhOdF2s6ForZa1z9g2MFmoARn4l5uJJ6-D9YnsclwJUjDVgR5_ZNCDh_Kkfs_s9VVU762pvMUzOyt20PbLDwxfaApfOXB2ot1HB0-StFeuNHaE7txCRuV3TBuXLy2Mfa1GqsyLGihQYrXdKWYs8FQWB4swvAgFVLh7pRkrViyl_HWF_TLGMPyruzPjCqjSdpFu4DYfoddIr_IZUFIcvArLbv9CqGUvSSIbm9lQRVa9_tK4pML7Pm4omRJ9w4Dftt9R8phOxQfLvqQjjjCuUvIhT06chMlmnlGQir5H_RMP2zEg9r-KK07d99m_nTix1SyynpBqpDCcy6JQbhtepzPbX3wz-pdm0MyRU-NqzVZtu0h9m_kaBy5TS-la_lwv25eV7TrO0TC5-N7iUWuR3v_1_duEOpFenK7ASYx2EzvsvFrvN4idjbJQhX7KhYZCt_zZ7NXN-n6tteTSbpNXM9Qs5Tch8qHfI_i_]--></g></svg>