<?xml version="1.0" encoding="us-ascii" standalone="no"?><svg xmlns="http://www.w3.org/2000/svg" xmlns:xlink="http://www.w3.org/1999/xlink" contentStyleType="text/css" height="1004px" preserveAspectRatio="none" style="width:426px;height:1004px;background:#FFFFFF;" version="1.1" viewBox="0 0 426 1004" width="426px" zoomAndPan="magnify"><defs/><g><!--class RegisterCollaboratorUI--><g id="elem_RegisterCollaboratorUI"><rect codeLine="9" fill="#F1F1F1" height="983.0547" id="RegisterCollaboratorUI" rx="2.5" ry="2.5" style="stroke:#181818;stroke-width:0.5;" width="405" x="7" y="7"/><ellipse cx="133.75" cy="23" fill="#ADD1B2" rx="11" ry="11" style="stroke:#181818;stroke-width:1.0;"/><path d="M136.5156,18.875 Q136.6719,18.6563 136.8594,18.5469 Q137.0469,18.4375 137.2656,18.4375 Q137.6406,18.4375 137.875,18.7031 Q138.1094,18.9531 138.1094,19.5625 L138.1094,21.0156 Q138.1094,21.625 137.875,21.8906 Q137.6406,22.1563 137.2656,22.1563 Q136.9219,22.1563 136.7188,21.9531 Q136.5156,21.7656 136.4063,21.25 Q136.3594,20.8906 136.1719,20.7031 Q135.8438,20.3281 135.2344,20.1094 Q134.625,19.8906 134,19.8906 Q133.2344,19.8906 132.5938,20.2188 Q131.9688,20.5469 131.4688,21.2969 Q130.9844,22.0469 130.9844,23.0781 L130.9844,24.1719 Q130.9844,25.4063 131.875,26.2344 Q132.7656,27.0469 134.3594,27.0469 Q135.2969,27.0469 135.9531,26.7969 Q136.3438,26.6406 136.7656,26.2031 Q137.0313,25.9375 137.1719,25.8594 Q137.3281,25.7813 137.5313,25.7813 Q137.8594,25.7813 138.1094,26.0469 Q138.375,26.2969 138.375,26.6406 Q138.375,26.9844 138.0313,27.3906 Q137.5313,27.9688 136.7344,28.2969 Q135.6563,28.75 134.3594,28.75 Q132.8438,28.75 131.6406,28.125 Q130.6563,27.625 129.9688,26.5625 Q129.2813,25.4844 129.2813,24.2031 L129.2813,23.0469 Q129.2813,21.7188 129.8906,20.5781 Q130.5156,19.4219 131.6094,18.8125 Q132.7031,18.1875 133.9375,18.1875 Q134.6719,18.1875 135.3125,18.3594 Q135.9688,18.5156 136.5156,18.875 Z " fill="#000000"/><text fill="#000000" font-family="sans-serif" font-size="14" lengthAdjust="spacing" textLength="143" x="154.25" y="28.7969">RegisterCollaboratorUI</text><line style="stroke:#181818;stroke-width:0.5;" x1="8" x2="411" y1="39" y2="39"/><text fill="#000000" font-family="sans-serif" font-size="14" lengthAdjust="spacing" textLength="85" x="13" y="58.1074">-String name;</text><text fill="#000000" font-family="sans-serif" font-size="14" lengthAdjust="spacing" textLength="106" x="13" y="76.7285">-String birthdate;</text><text fill="#000000" font-family="sans-serif" font-size="14" lengthAdjust="spacing" textLength="143" x="13" y="95.3496">-String admissionDate;</text><text fill="#000000" font-family="sans-serif" font-size="14" lengthAdjust="spacing" textLength="86" x="13" y="113.9707">-String street;</text><text fill="#000000" font-family="sans-serif" font-size="14" lengthAdjust="spacing" textLength="113" x="13" y="132.5918">-int streetNumber;</text><text fill="#000000" font-family="sans-serif" font-size="14" lengthAdjust="spacing" textLength="122" x="13" y="151.2129">-String postalCode;</text><text fill="#000000" font-family="sans-serif" font-size="14" lengthAdjust="spacing" textLength="71" x="13" y="169.834">-String city;</text><text fill="#000000" font-family="sans-serif" font-size="14" lengthAdjust="spacing" textLength="91" x="13" y="188.4551">-String district;</text><text fill="#000000" font-family="sans-serif" font-size="14" lengthAdjust="spacing" textLength="83" x="13" y="207.0762">-String email;</text><text fill="#000000" font-family="sans-serif" font-size="14" lengthAdjust="spacing" textLength="140" x="13" y="225.6973">-String mobileNumber;</text><text fill="#000000" font-family="sans-serif" font-size="14" lengthAdjust="spacing" textLength="149" x="13" y="244.3184">-IdDocType idDocType;</text><text fill="#000000" font-family="sans-serif" font-size="14" lengthAdjust="spacing" textLength="135" x="13" y="262.9395">-String idDocNumber;</text><text fill="#000000" font-family="sans-serif" font-size="14" lengthAdjust="spacing" textLength="54" x="13" y="281.5605">-Job job;</text><text fill="#000000" font-family="sans-serif" font-size="14" lengthAdjust="spacing" textLength="161" x="13" y="322.8027">+RegisterCollaboratorUI()</text><text fill="#000000" font-family="sans-serif" font-size="14" lengthAdjust="spacing" textLength="231" x="13" y="341.4238">+getRegisterCollaboratorController()</text><text fill="#000000" font-family="sans-serif" font-size="14" lengthAdjust="spacing" textLength="39" x="13" y="360.0449">+run()</text><text fill="#000000" font-family="sans-serif" font-size="14" lengthAdjust="spacing" textLength="86" x="13" y="378.666">-submitData()</text><text fill="#000000" font-family="sans-serif" font-size="14" lengthAdjust="spacing" textLength="145" x="13" y="397.2871">-displayAndSelectJob()</text><text fill="#000000" font-family="sans-serif" font-size="14" lengthAdjust="spacing" textLength="171" x="13" y="415.9082">-displayJobOptions(jobList)</text><text fill="#000000" font-family="sans-serif" font-size="14" lengthAdjust="spacing" textLength="393" x="13" y="434.5293">-showAllDataForConfirmation(name, birthdate, admissionDate,</text><text fill="#000000" font-family="sans-serif" font-size="14" lengthAdjust="spacing" textLength="332" x="13" y="453.1504">street, streetNumber, postalCode, city, district, email,</text><text fill="#000000" font-family="sans-serif" font-size="14" lengthAdjust="spacing" textLength="344" x="13" y="471.7715">mobileNumber, idDocType, idDocNumber, job, header)</text><line style="stroke:#181818;stroke-width:1.0;" x1="8" x2="182.5" y1="298.3848" y2="298.3848"/><text fill="#000000" font-family="sans-serif" font-size="14" lengthAdjust="spacing" textLength="54" x="182.5" y="303.6816">Methods</text><line style="stroke:#181818;stroke-width:1.0;" x1="236.5" x2="411" y1="298.3848" y2="298.3848"/><text fill="#000000" font-family="sans-serif" font-size="14" lengthAdjust="spacing" textLength="93" x="13" y="513.0137">-requestData()</text><text fill="#000000" font-family="sans-serif" font-size="14" lengthAdjust="spacing" textLength="99" x="13" y="531.6348">-requestName()</text><text fill="#000000" font-family="sans-serif" font-size="14" lengthAdjust="spacing" textLength="120" x="13" y="550.2559">-requestBirthdate()</text><text fill="#000000" font-family="sans-serif" font-size="14" lengthAdjust="spacing" textLength="157" x="13" y="568.877">-requestAdmissionDate()</text><text fill="#000000" font-family="sans-serif" font-size="14" lengthAdjust="spacing" textLength="101" x="13" y="587.498">-requestStreet()</text><text fill="#000000" font-family="sans-serif" font-size="14" lengthAdjust="spacing" textLength="150" x="13" y="606.1191">-requestStreetNumber()</text><text fill="#000000" font-family="sans-serif" font-size="14" lengthAdjust="spacing" textLength="136" x="13" y="624.7402">-requestPostalCode()</text><text fill="#000000" font-family="sans-serif" font-size="14" lengthAdjust="spacing" textLength="87" x="13" y="643.3613">-requestCity()</text><text fill="#000000" font-family="sans-serif" font-size="14" lengthAdjust="spacing" textLength="106" x="13" y="661.9824">-requestDistrict()</text><text fill="#000000" font-family="sans-serif" font-size="14" lengthAdjust="spacing" textLength="97" x="13" y="680.6035">-requestEmail()</text><text fill="#000000" font-family="sans-serif" font-size="14" lengthAdjust="spacing" textLength="153" x="13" y="699.2246">-requestMobileNumber()</text><text fill="#000000" font-family="sans-serif" font-size="14" lengthAdjust="spacing" textLength="131" x="13" y="717.8457">-requestIdDocType()</text><text fill="#000000" font-family="sans-serif" font-size="14" lengthAdjust="spacing" textLength="148" x="13" y="736.4668">-requestIdDocNumber()</text><line style="stroke:#181818;stroke-width:1.0;stroke-dasharray:1.0,2.0;" x1="8" x2="135" y1="488.5957" y2="488.5957"/><text fill="#000000" font-family="sans-serif" font-size="14" lengthAdjust="spacing" textLength="149" x="135" y="493.8926">Request Data Methods:</text><line style="stroke:#181818;stroke-width:1.0;stroke-dasharray:1.0,2.0;" x1="284" x2="411" y1="488.5957" y2="488.5957"/><text fill="#000000" font-family="sans-serif" font-size="14" lengthAdjust="spacing" textLength="135" x="13" y="777.709">-validateName(name)</text><text fill="#000000" font-family="sans-serif" font-size="14" lengthAdjust="spacing" textLength="317" x="13" y="796.3301">-validateBirthdate(birthdate) - not implemented yet</text><text fill="#000000" font-family="sans-serif" font-size="14" lengthAdjust="spacing" textLength="391" x="13" y="814.9512">-validateAdmissionDate(admissionDate) - not implemented yet</text><text fill="#000000" font-family="sans-serif" font-size="14" lengthAdjust="spacing" textLength="138" x="13" y="833.5723">-validateStreet(street)</text><text fill="#000000" font-family="sans-serif" font-size="14" lengthAdjust="spacing" textLength="199" x="13" y="852.1934">-validateStreetNumber(number)</text><text fill="#000000" font-family="sans-serif" font-size="14" lengthAdjust="spacing" textLength="209" x="13" y="870.8145">-validatePostalCode(postalCode)</text><text fill="#000000" font-family="sans-serif" font-size="14" lengthAdjust="spacing" textLength="109" x="13" y="889.4355">-validateCity(city)</text><text fill="#000000" font-family="sans-serif" font-size="14" lengthAdjust="spacing" textLength="148" x="13" y="908.0566">-validateDistrict(district)</text><text fill="#000000" font-family="sans-serif" font-size="14" lengthAdjust="spacing" textLength="131" x="13" y="926.6777">-validateEmail(email)</text><text fill="#000000" font-family="sans-serif" font-size="14" lengthAdjust="spacing" textLength="244" x="13" y="945.2988">-validateMobileNumber(mobileNumber)</text><text fill="#000000" font-family="sans-serif" font-size="14" lengthAdjust="spacing" textLength="310" x="13" y="963.9199">-validateIdDocNumber(idDocNumber, idDocType)</text><text fill="#000000" font-family="sans-serif" font-size="14" lengthAdjust="spacing" textLength="4" x="13" y="982.541">&#160;</text><line style="stroke:#181818;stroke-width:1.0;stroke-dasharray:1.0,2.0;" x1="8" x2="118.5" y1="753.291" y2="753.291"/><text fill="#000000" font-family="sans-serif" font-size="14" lengthAdjust="spacing" textLength="182" x="118.5" y="758.5879">Validate Input Data Methods:</text><line style="stroke:#181818;stroke-width:1.0;stroke-dasharray:1.0,2.0;" x1="300.5" x2="411" y1="753.291" y2="753.291"/></g><!--SRC=[ZLDDZzCm4BtdL_YsM-6kECEfj20LiGkYm8cBaymsPcrFi2Ui0kA_utmqjMUx4hd4Vc_6ddblV1KUj6kLLrPOT5Wr7Yq8yXqKPwPLrOCwme5w0y93HSeTJHeG6bNZetP7SQzCI1cZ7L3VWcZHzCEckBf0eYSiagpAg10sH5wN7S6-GdVGlq6yB8gH4P_Xg0E1tw8ngaIl2FtNlVXJYFYjnI4cnbgSil0wXqhjgQaLSLpLLeUWqUsUSe4y09r0xMX6xZfRWcV1BGPIPeirFwNIr3EeZZruNH63mIfj66Qnr0Ro6_Vr3gilWtpwj69P8vudlSTI_C1otgx5BL23TOZB4NdnZBJNgva-0bsAsA8Z7_VWbqZVkNcz5g4hhQQehLgWs7nhLBznzG5C7AbO6ESYzB6bQ4guZYL_Y9SkvpNuk35cEF3TUFczzbODeTU3wVBiiyojbT_TP9xCJ9I9RtAqIYxkoCcGc9cQ8C-YorHdEQWhHGEg1Z-LUtCJHVtPGI0n57oI_5KavdRyH6VwpDXTR8TZRqxDSMAJjih9mzZlPNIgdNEV5aquiuqASMmtwyNnjuDw7BnDfEJSCjSNYImdIljD6Jre8VQkxPvL-DSSDSevZCYA4MTDbz5PHTeX2MrR0nOSGIrw89QOQvuDs_yTCFioZUFg8ZdtxCOV3qbSEWyn3neD6-QQ4ujhft7d0PDzunFWL6PY-ZXuO6fSzbQMDxGgYh_5Fm00]--></g></svg>