<?xml version="1.0" encoding="us-ascii" standalone="no"?><svg xmlns="http://www.w3.org/2000/svg" xmlns:xlink="http://www.w3.org/1999/xlink" contentStyleType="text/css" height="1361.4px" preserveAspectRatio="none" style="width:746px;height:1361px;background:#FFFFFF;" version="1.1" viewBox="0 0 746 1361" width="746.4px" zoomAndPan="magnify"><defs/><g><text fill="#000000" font-family="sans-serif" font-size="8.4" font-weight="bold" lengthAdjust="spacing" textLength="93" x="322.65" y="15.0645">US028 - Class Diagram</text><!--cluster GUI--><g id="cluster_GUI"><path d="M157.5,27.3809 L173.1,27.3809 A2.25,2.25 0 0 1 174.6,28.8809 L178.8,42.1535 L394.5,42.1535 A1.5,1.5 0 0 1 396,43.6535 L396,253.8809 A1.5,1.5 0 0 1 394.5,255.3809 L157.5,255.3809 A1.5,1.5 0 0 1 156,253.8809 L156,28.8809 A1.5,1.5 0 0 1 157.5,27.3809 " fill="#DDDDDD" style="stroke:#000000;stroke-width:0.8999999999999999;"/><line style="stroke:#000000;stroke-width:0.8999999999999999;" x1="156" x2="178.8" y1="42.1535" y2="42.1535"/><text fill="#000000" font-family="sans-serif" font-size="8.4" font-weight="bold" lengthAdjust="spacing" textLength="15" x="158.4" y="37.6453">GUI</text></g><!--cluster Controller--><g id="cluster_Controller"><path d="M119.7,269.7809 L162.9,269.7809 A2.25,2.25 0 0 1 164.4,271.2809 L168.6,284.5535 L432.3,284.5535 A1.5,1.5 0 0 1 433.8,286.0535 L433.8,440.4809 A1.5,1.5 0 0 1 432.3,441.9809 L119.7,441.9809 A1.5,1.5 0 0 1 118.2,440.4809 L118.2,271.2809 A1.5,1.5 0 0 1 119.7,269.7809 " fill="#DDDDDD" style="stroke:#000000;stroke-width:0.8999999999999999;"/><line style="stroke:#000000;stroke-width:0.8999999999999999;" x1="118.2" x2="168.6" y1="284.5535" y2="284.5535"/><text fill="#000000" font-family="sans-serif" font-size="8.4" font-weight="bold" lengthAdjust="spacing" textLength="42.6" x="120.6" y="280.0453">Controller</text></g><!--cluster Repository--><g id="cluster_Repository"><path d="M5.1,586.8809 L51.3,586.8809 A2.25,2.25 0 0 1 52.8,588.3809 L57,601.6535 L254.1,601.6535 A1.5,1.5 0 0 1 255.6,603.1535 L255.6,657.3809 A1.5,1.5 0 0 1 254.1,658.8809 L5.1,658.8809 A1.5,1.5 0 0 1 3.6,657.3809 L3.6,588.3809 A1.5,1.5 0 0 1 5.1,586.8809 " fill="#DDDDDD" style="stroke:#000000;stroke-width:0.8999999999999999;"/><line style="stroke:#000000;stroke-width:0.8999999999999999;" x1="3.6" x2="57" y1="601.6535" y2="601.6535"/><text fill="#000000" font-family="sans-serif" font-size="8.4" font-weight="bold" lengthAdjust="spacing" textLength="45.6" x="6" y="597.1453">Repository</text></g><!--cluster Mapper--><g id="cluster_Mapper"><path d="M159.9,456.3809 L192.9,456.3809 A2.25,2.25 0 0 1 194.4,457.8809 L198.6,471.1535 L392.1,471.1535 A1.5,1.5 0 0 1 393.6,472.6535 L393.6,537.6809 A1.5,1.5 0 0 1 392.1,539.1809 L159.9,539.1809 A1.5,1.5 0 0 1 158.4,537.6809 L158.4,457.8809 A1.5,1.5 0 0 1 159.9,456.3809 " fill="#DDDDDD" style="stroke:#000000;stroke-width:0.8999999999999999;"/><line style="stroke:#000000;stroke-width:0.8999999999999999;" x1="158.4" x2="198.6" y1="471.1535" y2="471.1535"/><text fill="#000000" font-family="sans-serif" font-size="8.4" font-weight="bold" lengthAdjust="spacing" textLength="32.4" x="160.8" y="466.6453">Mapper</text></g><!--cluster DTO--><g id="cluster_DTO"><path d="M271.5,553.5809 L289.5,553.5809 A2.25,2.25 0 0 1 291,555.0809 L295.2,568.3535 L392.1,568.3535 A1.5,1.5 0 0 1 393.6,569.8535 L393.6,690.6809 A1.5,1.5 0 0 1 392.1,692.1809 L271.5,692.1809 A1.5,1.5 0 0 1 270,690.6809 L270,555.0809 A1.5,1.5 0 0 1 271.5,553.5809 " fill="#DDDDDD" style="stroke:#000000;stroke-width:0.8999999999999999;"/><line style="stroke:#000000;stroke-width:0.8999999999999999;" x1="270" x2="295.2" y1="568.3535" y2="568.3535"/><text fill="#000000" font-family="sans-serif" font-size="8.4" font-weight="bold" lengthAdjust="spacing" textLength="17.4" x="272.4" y="563.8453">DTO</text></g><!--cluster Domain--><g id="cluster_Domain"><path d="M99.9,732.9809 L131.7,732.9809 A2.25,2.25 0 0 1 133.2,734.4809 L137.4,747.7535 L623.7,747.7535 A1.5,1.5 0 0 1 625.2,749.2535 L625.2,1332.3809 A1.5,1.5 0 0 1 623.7,1333.8809 L99.9,1333.8809 A1.5,1.5 0 0 1 98.4,1332.3809 L98.4,734.4809 A1.5,1.5 0 0 1 99.9,732.9809 " fill="#DDDDDD" style="stroke:#000000;stroke-width:0.8999999999999999;"/><line style="stroke:#000000;stroke-width:0.8999999999999999;" x1="98.4" x2="137.4" y1="747.7535" y2="747.7535"/><text fill="#000000" font-family="sans-serif" font-size="8.4" font-weight="bold" lengthAdjust="spacing" textLength="31.2" x="100.8" y="743.2453">Domain</text></g><!--class ListCollaboratorTasksUI--><g id="elem_ListCollaboratorTasksUI"><rect codeLine="11" fill="#F1F1F1" height="196.3898" id="ListCollaboratorTasksUI" rx="1.5" ry="1.5" style="stroke:#181818;stroke-width:0.3;" width="220.8" x="165.6" y="49.5809"/><ellipse cx="228.45" cy="59.1809" fill="#ADD1B2" rx="6.6" ry="6.6" style="stroke:#181818;stroke-width:0.6;"/><path d="M230.1094,56.7059 Q230.2031,56.5746 230.3156,56.509 Q230.4281,56.4434 230.5594,56.4434 Q230.7844,56.4434 230.925,56.6027 Q231.0656,56.7527 231.0656,57.1184 L231.0656,57.9902 Q231.0656,58.3559 230.925,58.5152 Q230.7844,58.6746 230.5594,58.6746 Q230.3531,58.6746 230.2313,58.5527 Q230.1094,58.4402 230.0438,58.1309 Q230.0156,57.9152 229.9031,57.8027 Q229.7062,57.5777 229.3406,57.4465 Q228.975,57.3152 228.6,57.3152 Q228.1406,57.3152 227.7563,57.5121 Q227.3813,57.709 227.0812,58.159 Q226.7906,58.609 226.7906,59.2277 L226.7906,59.884 Q226.7906,60.6246 227.325,61.1215 Q227.8594,61.609 228.8156,61.609 Q229.3781,61.609 229.7719,61.459 Q230.0063,61.3652 230.2594,61.1027 Q230.4188,60.9434 230.5031,60.8965 Q230.5969,60.8496 230.7188,60.8496 Q230.9156,60.8496 231.0656,61.009 Q231.225,61.159 231.225,61.3652 Q231.225,61.5715 231.0187,61.8152 Q230.7188,62.1621 230.2406,62.359 Q229.5938,62.6309 228.8156,62.6309 Q227.9063,62.6309 227.1844,62.2559 Q226.5938,61.9559 226.1813,61.3184 Q225.7687,60.6715 225.7687,59.9027 L225.7687,59.209 Q225.7687,58.4121 226.1344,57.7277 Q226.5094,57.034 227.1656,56.6684 Q227.8219,56.2934 228.5625,56.2934 Q229.0031,56.2934 229.3875,56.3965 Q229.7813,56.4902 230.1094,56.7059 Z " fill="#000000"/><text fill="#000000" font-family="sans-serif" font-size="8.4" lengthAdjust="spacing" textLength="90" x="240.75" y="62.659">ListCollaboratorTasksUI</text><line style="stroke:#181818;stroke-width:0.3;" x1="166.2" x2="385.8" y1="68.7809" y2="68.7809"/><line style="stroke:#181818;stroke-width:0.3;" x1="166.2" x2="385.8" y1="73.5809" y2="73.5809"/><text fill="#000000" font-family="sans-serif" font-size="8.4" lengthAdjust="spacing" textLength="100.8" x="169.2" y="85.0453">+ListCollaboratorTasksUI()</text><text fill="#000000" font-family="sans-serif" font-size="8.4" lengthAdjust="spacing" textLength="203.4" x="169.2" y="96.218">+initialize(url: URL, resourceBundle: ResourceBundle)</text><text fill="#000000" font-family="sans-serif" font-size="8.4" lengthAdjust="spacing" textLength="65.4" x="169.2" y="107.3906">+btnFilterAction()</text><text fill="#000000" font-family="sans-serif" font-size="8.4" lengthAdjust="spacing" textLength="48.6" x="169.2" y="118.5633">+filterTable()</text><text fill="#000000" font-family="sans-serif" font-size="8.4" lengthAdjust="spacing" textLength="51" x="169.2" y="129.7359">+filterStatus()</text><text fill="#000000" font-family="sans-serif" font-size="8.4" lengthAdjust="spacing" textLength="62.4" x="169.2" y="140.9086">+btnClearFilter()</text><text fill="#000000" font-family="sans-serif" font-size="8.4" lengthAdjust="spacing" textLength="112.2" x="169.2" y="152.0812">+validateFinalDate(): boolean</text><text fill="#000000" font-family="sans-serif" font-size="8.4" lengthAdjust="spacing" textLength="104.4" x="169.2" y="163.2539">+checkIsOneNull(): boolean</text><text fill="#000000" font-family="sans-serif" font-size="8.4" lengthAdjust="spacing" textLength="195.6" x="169.2" y="174.4266">+fillTaskList(collabAgenda: List&lt;AgendaTaskDTO&gt;)</text><text fill="#000000" font-family="sans-serif" font-size="8.4" lengthAdjust="spacing" textLength="61.8" x="169.2" y="185.5992">+fillStatusFilter()</text><text fill="#000000" font-family="sans-serif" font-size="8.4" lengthAdjust="spacing" textLength="213.6" x="169.2" y="196.7719">+setError(field: Control, lblError: Label, message: String)</text><text fill="#000000" font-family="sans-serif" font-size="8.4" lengthAdjust="spacing" textLength="154.8" x="169.2" y="207.9445">+clearError(field: Control, lblError: Label)</text><text fill="#000000" font-family="sans-serif" font-size="8.4" lengthAdjust="spacing" textLength="76.2" x="169.2" y="219.1172">+updateTableView()</text><text fill="#000000" font-family="sans-serif" font-size="8.4" lengthAdjust="spacing" textLength="127.2" x="169.2" y="230.2898">+dpToDate(dp: DatePicker): Date</text><text fill="#000000" font-family="sans-serif" font-size="8.4" lengthAdjust="spacing" textLength="185.4" x="169.2" y="241.4625">+showTaskDetailsPopup(task: AgendaTaskDTO)</text></g><!--class ListCollaboratorTasksController--><g id="elem_ListCollaboratorTasksController"><rect codeLine="31" fill="#F1F1F1" height="140.5266" id="ListCollaboratorTasksController" rx="1.5" ry="1.5" style="stroke:#181818;stroke-width:0.3;" width="296.4" x="127.8" y="291.9809"/><ellipse cx="213.45" cy="301.5809" fill="#ADD1B2" rx="6.6" ry="6.6" style="stroke:#181818;stroke-width:0.6;"/><path d="M215.1094,299.1059 Q215.2031,298.9746 215.3156,298.909 Q215.4281,298.8434 215.5594,298.8434 Q215.7844,298.8434 215.925,299.0027 Q216.0656,299.1527 216.0656,299.5184 L216.0656,300.3902 Q216.0656,300.7559 215.925,300.9152 Q215.7844,301.0746 215.5594,301.0746 Q215.3531,301.0746 215.2313,300.9527 Q215.1094,300.8402 215.0438,300.5309 Q215.0156,300.3152 214.9031,300.2027 Q214.7062,299.9777 214.3406,299.8465 Q213.975,299.7152 213.6,299.7152 Q213.1406,299.7152 212.7563,299.9121 Q212.3813,300.109 212.0812,300.559 Q211.7906,301.009 211.7906,301.6277 L211.7906,302.284 Q211.7906,303.0246 212.325,303.5215 Q212.8594,304.009 213.8156,304.009 Q214.3781,304.009 214.7719,303.859 Q215.0063,303.7652 215.2594,303.5027 Q215.4188,303.3434 215.5031,303.2965 Q215.5969,303.2496 215.7188,303.2496 Q215.9156,303.2496 216.0656,303.409 Q216.225,303.559 216.225,303.7652 Q216.225,303.9715 216.0187,304.2152 Q215.7188,304.5621 215.2406,304.759 Q214.5938,305.0309 213.8156,305.0309 Q212.9063,305.0309 212.1844,304.6559 Q211.5938,304.3559 211.1813,303.7184 Q210.7687,303.0715 210.7687,302.3027 L210.7687,301.609 Q210.7687,300.8121 211.1344,300.1277 Q211.5094,299.434 212.1656,299.0684 Q212.8219,298.6934 213.5625,298.6934 Q214.0031,298.6934 214.3875,298.7965 Q214.7813,298.8902 215.1094,299.1059 Z " fill="#000000"/><text fill="#000000" font-family="sans-serif" font-size="8.4" lengthAdjust="spacing" textLength="120" x="225.75" y="305.059">ListCollaboratorTasksController</text><line style="stroke:#181818;stroke-width:0.3;" x1="128.4" x2="423.6" y1="311.1809" y2="311.1809"/><text fill="#000000" font-family="sans-serif" font-size="8.4" lengthAdjust="spacing" textLength="60.6" x="131.4" y="322.6453">-Date initialDate</text><text fill="#000000" font-family="sans-serif" font-size="8.4" lengthAdjust="spacing" textLength="57" x="131.4" y="333.818">-Date finalDate</text><text fill="#000000" font-family="sans-serif" font-size="8.4" lengthAdjust="spacing" textLength="145.2" x="131.4" y="344.9906">-AgendaRepository agendaRepository</text><line style="stroke:#181818;stroke-width:0.3;" x1="128.4" x2="423.6" y1="349.4988" y2="349.4988"/><text fill="#000000" font-family="sans-serif" font-size="8.4" lengthAdjust="spacing" textLength="130.8" x="131.4" y="360.9633">+ListCollaboratorTasksController()</text><text fill="#000000" font-family="sans-serif" font-size="8.4" lengthAdjust="spacing" textLength="168" x="131.4" y="372.1359">+getAgendaRepository(): AgendaRepository</text><text fill="#000000" font-family="sans-serif" font-size="8.4" lengthAdjust="spacing" textLength="118.2" x="131.4" y="383.3086">+getCollaboratorName(): String</text><text fill="#000000" font-family="sans-serif" font-size="8.4" lengthAdjust="spacing" textLength="186" x="131.4" y="394.4813">+getCollaboratorTasks(): List&lt;AgendaTaskDTO&gt;</text><text fill="#000000" font-family="sans-serif" font-size="8.4" lengthAdjust="spacing" textLength="289.2" x="131.4" y="405.6539">+getFilteredTasks(initialDate: Date, finalDate: Date): List&lt;AgendaTaskDTO&gt;</text><text fill="#000000" font-family="sans-serif" font-size="8.4" lengthAdjust="spacing" textLength="134.4" x="131.4" y="416.8266">+updateInitialDate(initialDate: Date)</text><text fill="#000000" font-family="sans-serif" font-size="8.4" lengthAdjust="spacing" textLength="130.2" x="131.4" y="427.9992">+updateFinalDate(finalDate: Date)</text></g><!--class AgendaRepository--><g id="elem_AgendaRepository"><rect codeLine="46" fill="#F1F1F1" height="39.9727" id="AgendaRepository" rx="1.5" ry="1.5" style="stroke:#181818;stroke-width:0.3;" width="232.2" x="13.5" y="609.0809"/><ellipse cx="91.95" cy="618.6809" fill="#ADD1B2" rx="6.6" ry="6.6" style="stroke:#181818;stroke-width:0.6;"/><path d="M93.6094,616.2059 Q93.7031,616.0746 93.8156,616.009 Q93.9281,615.9434 94.0594,615.9434 Q94.2844,615.9434 94.425,616.1027 Q94.5656,616.2527 94.5656,616.6184 L94.5656,617.4902 Q94.5656,617.8559 94.425,618.0152 Q94.2844,618.1746 94.0594,618.1746 Q93.8531,618.1746 93.7313,618.0527 Q93.6094,617.9402 93.5438,617.6309 Q93.5156,617.4152 93.4031,617.3027 Q93.2063,617.0777 92.8406,616.9465 Q92.475,616.8152 92.1,616.8152 Q91.6406,616.8152 91.2563,617.0121 Q90.8813,617.209 90.5813,617.659 Q90.2906,618.109 90.2906,618.7277 L90.2906,619.384 Q90.2906,620.1246 90.825,620.6215 Q91.3594,621.109 92.3156,621.109 Q92.8781,621.109 93.2719,620.959 Q93.5063,620.8652 93.7594,620.6027 Q93.9188,620.4434 94.0031,620.3965 Q94.0969,620.3496 94.2188,620.3496 Q94.4156,620.3496 94.5656,620.509 Q94.725,620.659 94.725,620.8652 Q94.725,621.0715 94.5188,621.3152 Q94.2188,621.6621 93.7406,621.859 Q93.0938,622.1309 92.3156,622.1309 Q91.4063,622.1309 90.6844,621.7559 Q90.0938,621.4559 89.6812,620.8184 Q89.2688,620.1715 89.2688,619.4027 L89.2688,618.709 Q89.2688,617.9121 89.6344,617.2277 Q90.0094,616.534 90.6656,616.1684 Q91.3219,615.7934 92.0625,615.7934 Q92.5031,615.7934 92.8875,615.8965 Q93.2813,615.9902 93.6094,616.2059 Z " fill="#000000"/><text fill="#000000" font-family="sans-serif" font-size="8.4" lengthAdjust="spacing" textLength="70.2" x="104.25" y="622.159">AgendaRepository</text><line style="stroke:#181818;stroke-width:0.3;" x1="14.1" x2="245.1" y1="628.2809" y2="628.2809"/><line style="stroke:#181818;stroke-width:0.3;" x1="14.1" x2="245.1" y1="633.0809" y2="633.0809"/><text fill="#000000" font-family="sans-serif" font-size="8.4" lengthAdjust="spacing" textLength="225" x="17.1" y="644.5453">+getCollaboratorSpecificAgenda(userId: String): List&lt;Task&gt;</text></g><!--class AgendaMapper--><g id="elem_AgendaMapper"><rect codeLine="52" fill="#F1F1F1" height="51.1453" id="AgendaMapper" rx="1.5" ry="1.5" style="stroke:#181818;stroke-width:0.3;" width="216" x="168" y="478.5809"/><ellipse cx="244.35" cy="488.1809" fill="#ADD1B2" rx="6.6" ry="6.6" style="stroke:#181818;stroke-width:0.6;"/><path d="M246.0094,485.7059 Q246.1031,485.5746 246.2156,485.509 Q246.3281,485.4434 246.4594,485.4434 Q246.6844,485.4434 246.825,485.6027 Q246.9656,485.7527 246.9656,486.1184 L246.9656,486.9902 Q246.9656,487.3559 246.825,487.5152 Q246.6844,487.6746 246.4594,487.6746 Q246.2531,487.6746 246.1313,487.5527 Q246.0094,487.4402 245.9438,487.1309 Q245.9156,486.9152 245.8031,486.8027 Q245.6063,486.5777 245.2406,486.4465 Q244.875,486.3152 244.5,486.3152 Q244.0406,486.3152 243.6563,486.5121 Q243.2813,486.709 242.9813,487.159 Q242.6906,487.609 242.6906,488.2277 L242.6906,488.884 Q242.6906,489.6246 243.225,490.1215 Q243.7594,490.609 244.7156,490.609 Q245.2781,490.609 245.6719,490.459 Q245.9063,490.3652 246.1594,490.1027 Q246.3188,489.9434 246.4031,489.8965 Q246.4969,489.8496 246.6187,489.8496 Q246.8156,489.8496 246.9656,490.009 Q247.125,490.159 247.125,490.3652 Q247.125,490.5715 246.9188,490.8152 Q246.6187,491.1621 246.1406,491.359 Q245.4937,491.6309 244.7156,491.6309 Q243.8062,491.6309 243.0844,491.2559 Q242.4937,490.9559 242.0812,490.3184 Q241.6688,489.6715 241.6688,488.9027 L241.6688,488.209 Q241.6688,487.4121 242.0344,486.7277 Q242.4094,486.034 243.0656,485.6684 Q243.7219,485.2934 244.4625,485.2934 Q244.9031,485.2934 245.2875,485.3965 Q245.6812,485.4902 246.0094,485.7059 Z " fill="#000000"/><text fill="#000000" font-family="sans-serif" font-size="8.4" lengthAdjust="spacing" textLength="58.2" x="256.65" y="491.659">AgendaMapper</text><line style="stroke:#181818;stroke-width:0.3;" x1="168.6" x2="383.4" y1="497.7809" y2="497.7809"/><line style="stroke:#181818;stroke-width:0.3;" x1="168.6" x2="383.4" y1="502.5809" y2="502.5809"/><text fill="#000000" font-family="sans-serif" font-size="8.4" lengthAdjust="spacing" textLength="208.8" x="171.6" y="514.0453">+toDTOList(tasks: List&lt;Task&gt;): List&lt;AgendaTaskDTO&gt;</text><text fill="#000000" font-family="sans-serif" font-size="8.4" lengthAdjust="spacing" textLength="145.8" x="171.6" y="525.218">+toDTO(task: Task): AgendaTaskDTO</text></g><!--class AgendaTaskDTO--><g id="elem_AgendaTaskDTO"><rect codeLine="59" fill="#F1F1F1" height="107.0086" id="AgendaTaskDTO" rx="1.5" ry="1.5" style="stroke:#181818;stroke-width:0.3;" width="104.4" x="279.6" y="575.7809"/><ellipse cx="297.24" cy="585.3809" fill="#ADD1B2" rx="6.6" ry="6.6" style="stroke:#181818;stroke-width:0.6;"/><path d="M298.8994,582.9059 Q298.9931,582.7746 299.1056,582.709 Q299.2181,582.6434 299.3494,582.6434 Q299.5744,582.6434 299.715,582.8027 Q299.8556,582.9527 299.8556,583.3184 L299.8556,584.1902 Q299.8556,584.5559 299.715,584.7152 Q299.5744,584.8746 299.3494,584.8746 Q299.1431,584.8746 299.0212,584.7527 Q298.8994,584.6402 298.8337,584.3309 Q298.8056,584.1152 298.6931,584.0027 Q298.4963,583.7777 298.1306,583.6465 Q297.765,583.5152 297.39,583.5152 Q296.9306,583.5152 296.5463,583.7121 Q296.1713,583.909 295.8713,584.359 Q295.5806,584.809 295.5806,585.4277 L295.5806,586.084 Q295.5806,586.8246 296.115,587.3215 Q296.6494,587.809 297.6056,587.809 Q298.1681,587.809 298.5619,587.659 Q298.7963,587.5652 299.0494,587.3027 Q299.2087,587.1434 299.2931,587.0965 Q299.3869,587.0496 299.5087,587.0496 Q299.7056,587.0496 299.8556,587.209 Q300.015,587.359 300.015,587.5652 Q300.015,587.7715 299.8088,588.0152 Q299.5087,588.3621 299.0306,588.559 Q298.3837,588.8309 297.6056,588.8309 Q296.6962,588.8309 295.9744,588.4559 Q295.3837,588.1559 294.9713,587.5184 Q294.5588,586.8715 294.5588,586.1027 L294.5588,585.409 Q294.5588,584.6121 294.9244,583.9277 Q295.2994,583.234 295.9556,582.8684 Q296.6119,582.4934 297.3525,582.4934 Q297.7931,582.4934 298.1775,582.5965 Q298.5712,582.6902 298.8994,582.9059 Z " fill="#000000"/><text fill="#000000" font-family="sans-serif" font-size="8.4" lengthAdjust="spacing" textLength="66" x="307.56" y="588.859">AgendaTaskDTO</text><line style="stroke:#181818;stroke-width:0.3;" x1="280.2" x2="383.4" y1="594.9809" y2="594.9809"/><text fill="#000000" font-family="sans-serif" font-size="8.4" lengthAdjust="spacing" textLength="42.6" x="283.2" y="606.4453">+String title</text><text fill="#000000" font-family="sans-serif" font-size="8.4" lengthAdjust="spacing" textLength="79.8" x="283.2" y="617.618">+TaskType taskType</text><text fill="#000000" font-family="sans-serif" font-size="8.4" lengthAdjust="spacing" textLength="54" x="283.2" y="628.7906">+Status status</text><text fill="#000000" font-family="sans-serif" font-size="8.4" lengthAdjust="spacing" textLength="69" x="283.2" y="639.9633">+Urgency urgency</text><text fill="#000000" font-family="sans-serif" font-size="8.4" lengthAdjust="spacing" textLength="97.2" x="283.2" y="651.1359">+String greenSpaceName</text><text fill="#000000" font-family="sans-serif" font-size="8.4" lengthAdjust="spacing" textLength="82.8" x="283.2" y="662.3086">+String workStartDate</text><text fill="#000000" font-family="sans-serif" font-size="8.4" lengthAdjust="spacing" textLength="82.8" x="283.2" y="673.4812">+int expectedDuration</text><line style="stroke:#181818;stroke-width:0.3;" x1="280.2" x2="383.4" y1="677.9895" y2="677.9895"/></g><!--class Organization--><g id="elem_Organization"><rect codeLine="71" fill="#F1F1F1" height="62.318" id="Organization" rx="1.5" ry="1.5" style="stroke:#181818;stroke-width:0.3;" width="109.8" x="505.5" y="783.0809"/><ellipse cx="533.85" cy="792.6809" fill="#ADD1B2" rx="6.6" ry="6.6" style="stroke:#181818;stroke-width:0.6;"/><path d="M535.5094,790.2059 Q535.6031,790.0746 535.7156,790.009 Q535.8281,789.9434 535.9594,789.9434 Q536.1844,789.9434 536.325,790.1027 Q536.4656,790.2527 536.4656,790.6184 L536.4656,791.4902 Q536.4656,791.8559 536.325,792.0152 Q536.1844,792.1746 535.9594,792.1746 Q535.7531,792.1746 535.6313,792.0527 Q535.5094,791.9402 535.4438,791.6309 Q535.4156,791.4152 535.3031,791.3027 Q535.1062,791.0777 534.7406,790.9465 Q534.375,790.8152 534,790.8152 Q533.5406,790.8152 533.1563,791.0121 Q532.7813,791.209 532.4812,791.659 Q532.1906,792.109 532.1906,792.7277 L532.1906,793.384 Q532.1906,794.1246 532.725,794.6215 Q533.2594,795.109 534.2156,795.109 Q534.7781,795.109 535.1719,794.959 Q535.4063,794.8652 535.6594,794.6027 Q535.8188,794.4434 535.9031,794.3965 Q535.9969,794.3496 536.1188,794.3496 Q536.3156,794.3496 536.4656,794.509 Q536.625,794.659 536.625,794.8652 Q536.625,795.0715 536.4187,795.3152 Q536.1188,795.6621 535.6406,795.859 Q534.9938,796.1309 534.2156,796.1309 Q533.3063,796.1309 532.5844,795.7559 Q531.9938,795.4559 531.5813,794.8184 Q531.1687,794.1715 531.1687,793.4027 L531.1687,792.709 Q531.1687,791.9121 531.5344,791.2277 Q531.9094,790.534 532.5656,790.1684 Q533.2219,789.7934 533.9625,789.7934 Q534.4031,789.7934 534.7875,789.8965 Q535.1813,789.9902 535.5094,790.2059 Z " fill="#000000"/><text fill="#000000" font-family="sans-serif" font-size="8.4" lengthAdjust="spacing" textLength="48" x="546.15" y="796.159">Organization</text><line style="stroke:#181818;stroke-width:0.3;" x1="506.1" x2="614.7" y1="802.2809" y2="802.2809"/><line style="stroke:#181818;stroke-width:0.3;" x1="506.1" x2="614.7" y1="807.0809" y2="807.0809"/><text fill="#000000" font-family="sans-serif" font-size="8.4" lengthAdjust="spacing" textLength="82.8" x="509.1" y="818.5453">+addTask(task: Task)</text><text fill="#000000" font-family="sans-serif" font-size="8.4" lengthAdjust="spacing" textLength="97.8" x="509.1" y="829.718">+validateTask(task: Task)</text><text fill="#000000" font-family="sans-serif" font-size="8.4" lengthAdjust="spacing" textLength="102.6" x="509.1" y="840.8906">+completeTask(task: Task)</text></g><!--class Task--><g id="elem_Task"><rect codeLine="77" fill="#F1F1F1" height="118.1812" id="Task" rx="1.5" ry="1.5" style="stroke:#181818;stroke-width:0.3;" width="123.6" x="111.6" y="755.1809"/><ellipse cx="161.55" cy="764.7809" fill="#ADD1B2" rx="6.6" ry="6.6" style="stroke:#181818;stroke-width:0.6;"/><path d="M163.2094,762.3059 Q163.3031,762.1746 163.4156,762.109 Q163.5281,762.0434 163.6594,762.0434 Q163.8844,762.0434 164.025,762.2027 Q164.1656,762.3527 164.1656,762.7184 L164.1656,763.5902 Q164.1656,763.9559 164.025,764.1152 Q163.8844,764.2746 163.6594,764.2746 Q163.4531,764.2746 163.3312,764.1527 Q163.2094,764.0402 163.1437,763.7309 Q163.1156,763.5152 163.0031,763.4027 Q162.8063,763.1777 162.4406,763.0465 Q162.075,762.9152 161.7,762.9152 Q161.2406,762.9152 160.8563,763.1121 Q160.4813,763.309 160.1813,763.759 Q159.8906,764.209 159.8906,764.8277 L159.8906,765.484 Q159.8906,766.2246 160.425,766.7215 Q160.9594,767.209 161.9156,767.209 Q162.4781,767.209 162.8719,767.059 Q163.1063,766.9652 163.3594,766.7027 Q163.5187,766.5434 163.6031,766.4965 Q163.6969,766.4496 163.8188,766.4496 Q164.0156,766.4496 164.1656,766.609 Q164.325,766.759 164.325,766.9652 Q164.325,767.1715 164.1188,767.4152 Q163.8188,767.7621 163.3406,767.959 Q162.6938,768.2309 161.9156,768.2309 Q161.0063,768.2309 160.2844,767.8559 Q159.6938,767.5559 159.2813,766.9184 Q158.8688,766.2715 158.8688,765.5027 L158.8688,764.809 Q158.8688,764.0121 159.2344,763.3277 Q159.6094,762.634 160.2656,762.2684 Q160.9219,761.8934 161.6625,761.8934 Q162.1031,761.8934 162.4875,761.9965 Q162.8813,762.0902 163.2094,762.3059 Z " fill="#000000"/><text fill="#000000" font-family="sans-serif" font-size="8.4" lengthAdjust="spacing" textLength="18.6" x="173.85" y="768.259">Task</text><line style="stroke:#181818;stroke-width:0.3;" x1="112.2" x2="234.6" y1="774.3809" y2="774.3809"/><text fill="#000000" font-family="sans-serif" font-size="8.4" lengthAdjust="spacing" textLength="36" x="115.2" y="785.8453">+String id</text><text fill="#000000" font-family="sans-serif" font-size="8.4" lengthAdjust="spacing" textLength="42.6" x="115.2" y="797.018">+String title</text><text fill="#000000" font-family="sans-serif" font-size="8.4" lengthAdjust="spacing" textLength="54" x="115.2" y="808.1906">+Status status</text><text fill="#000000" font-family="sans-serif" font-size="8.4" lengthAdjust="spacing" textLength="93.6" x="115.2" y="819.3633">+WorkPeriod workPeriod</text><line style="stroke:#181818;stroke-width:0.3;" x1="112.2" x2="234.6" y1="823.8715" y2="823.8715"/><text fill="#000000" font-family="sans-serif" font-size="8.4" lengthAdjust="spacing" textLength="29.4" x="115.2" y="835.3359">+Task()</text><text fill="#000000" font-family="sans-serif" font-size="8.4" lengthAdjust="spacing" textLength="116.4" x="115.2" y="846.5086">+getWorkPeriod(): WorkPeriod</text><text fill="#000000" font-family="sans-serif" font-size="8.4" lengthAdjust="spacing" textLength="97.8" x="115.2" y="857.6813">+setStatus(status: Status)</text><text fill="#000000" font-family="sans-serif" font-size="8.4" lengthAdjust="spacing" textLength="40.2" x="115.2" y="868.8539">+validate()</text></g><!--class WorkPeriod--><g id="elem_WorkPeriod"><rect codeLine="88" fill="#F1F1F1" height="196.3898" id="WorkPeriod" rx="1.5" ry="1.5" style="stroke:#181818;stroke-width:0.3;" width="405" x="108.3" y="1018.5809"/><ellipse cx="286.05" cy="1028.1809" fill="#ADD1B2" rx="6.6" ry="6.6" style="stroke:#181818;stroke-width:0.6;"/><path d="M287.7094,1025.7059 Q287.8031,1025.5746 287.9156,1025.509 Q288.0281,1025.4434 288.1594,1025.4434 Q288.3844,1025.4434 288.525,1025.6027 Q288.6656,1025.7527 288.6656,1026.1184 L288.6656,1026.9902 Q288.6656,1027.3559 288.525,1027.5152 Q288.3844,1027.6746 288.1594,1027.6746 Q287.9531,1027.6746 287.8313,1027.5527 Q287.7094,1027.4402 287.6438,1027.1309 Q287.6156,1026.9152 287.5031,1026.8027 Q287.3063,1026.5777 286.9406,1026.4465 Q286.575,1026.3152 286.2,1026.3152 Q285.7406,1026.3152 285.3563,1026.5121 Q284.9813,1026.709 284.6813,1027.159 Q284.3906,1027.609 284.3906,1028.2277 L284.3906,1028.884 Q284.3906,1029.6246 284.925,1030.1215 Q285.4594,1030.609 286.4156,1030.609 Q286.9781,1030.609 287.3719,1030.459 Q287.6063,1030.3652 287.8594,1030.1027 Q288.0188,1029.9434 288.1031,1029.8965 Q288.1969,1029.8496 288.3187,1029.8496 Q288.5156,1029.8496 288.6656,1030.009 Q288.825,1030.159 288.825,1030.3652 Q288.825,1030.5715 288.6188,1030.8152 Q288.3187,1031.1621 287.8406,1031.359 Q287.1937,1031.6309 286.4156,1031.6309 Q285.5062,1031.6309 284.7844,1031.2559 Q284.1937,1030.9559 283.7813,1030.3184 Q283.3688,1029.6715 283.3688,1028.9027 L283.3688,1028.209 Q283.3688,1027.4121 283.7344,1026.7277 Q284.1094,1026.034 284.7656,1025.6684 Q285.4219,1025.2934 286.1625,1025.2934 Q286.6031,1025.2934 286.9875,1025.3965 Q287.3812,1025.4902 287.7094,1025.7059 Z " fill="#000000"/><text fill="#000000" font-family="sans-serif" font-size="8.4" lengthAdjust="spacing" textLength="44.4" x="298.35" y="1031.659">WorkPeriod</text><line style="stroke:#181818;stroke-width:0.3;" x1="108.9" x2="512.7" y1="1037.7809" y2="1037.7809"/><text fill="#000000" font-family="sans-serif" font-size="8.4" lengthAdjust="spacing" textLength="76.8" x="111.9" y="1049.2453">-Date workStartDate</text><text fill="#000000" font-family="sans-serif" font-size="8.4" lengthAdjust="spacing" textLength="67.8" x="111.9" y="1060.418">-int workStartHour</text><text fill="#000000" font-family="sans-serif" font-size="8.4" lengthAdjust="spacing" textLength="63" x="111.9" y="1071.5906">-int workStartMin</text><text fill="#000000" font-family="sans-serif" font-size="8.4" lengthAdjust="spacing" textLength="73.8" x="111.9" y="1082.7633">-Date workEndDate</text><text fill="#000000" font-family="sans-serif" font-size="8.4" lengthAdjust="spacing" textLength="64.8" x="111.9" y="1093.9359">-int workEndHour</text><text fill="#000000" font-family="sans-serif" font-size="8.4" lengthAdjust="spacing" textLength="60" x="111.9" y="1105.1086">-int workEndMin</text><line style="stroke:#181818;stroke-width:0.3;" x1="108.9" x2="512.7" y1="1109.6168" y2="1109.6168"/><text fill="#000000" font-family="sans-serif" font-size="8.4" lengthAdjust="spacing" textLength="397.8" x="111.9" y="1121.0813">+WorkPeriod(workStartDate: Date, workStartHour: int, workStartMin: int, expectedDuration: TaskDuration)</text><text fill="#000000" font-family="sans-serif" font-size="8.4" lengthAdjust="spacing" textLength="176.4" x="111.9" y="1132.2539">+WorkPeriod(initialDate: Date, finalDate: Date)</text><text fill="#000000" font-family="sans-serif" font-size="8.4" lengthAdjust="spacing" textLength="101.4" x="111.9" y="1143.4266">+getWorkStartDate(): Date</text><text fill="#000000" font-family="sans-serif" font-size="8.4" lengthAdjust="spacing" textLength="92.4" x="111.9" y="1154.5992">+getWorkStartHour(): int</text><text fill="#000000" font-family="sans-serif" font-size="8.4" lengthAdjust="spacing" textLength="87.6" x="111.9" y="1165.7719">+getWorkStartMin(): int</text><text fill="#000000" font-family="sans-serif" font-size="8.4" lengthAdjust="spacing" textLength="98.4" x="111.9" y="1176.9445">+getWorkEndDate(): Date</text><text fill="#000000" font-family="sans-serif" font-size="8.4" lengthAdjust="spacing" textLength="89.4" x="111.9" y="1188.1172">+getWorkEndHour(): int</text><text fill="#000000" font-family="sans-serif" font-size="8.4" lengthAdjust="spacing" textLength="84.6" x="111.9" y="1199.2898">+getWorkEndMin(): int</text><text fill="#000000" font-family="sans-serif" font-size="8.4" lengthAdjust="spacing" textLength="151.2" x="111.9" y="1210.4625">+isOverlap(other: WorkPeriod): boolean</text></g><!--class TaskDuration--><g id="elem_TaskDuration"><rect codeLine="106" fill="#F1F1F1" height="39.9727" id="TaskDuration" rx="1.5" ry="1.5" style="stroke:#181818;stroke-width:0.3;" width="136.2" x="242.7" y="1284.0809"/><ellipse cx="282.75" cy="1293.6809" fill="#ADD1B2" rx="6.6" ry="6.6" style="stroke:#181818;stroke-width:0.6;"/><path d="M284.4094,1291.2059 Q284.5031,1291.0746 284.6156,1291.009 Q284.7281,1290.9434 284.8594,1290.9434 Q285.0844,1290.9434 285.225,1291.1027 Q285.3656,1291.2527 285.3656,1291.6184 L285.3656,1292.4902 Q285.3656,1292.8559 285.225,1293.0152 Q285.0844,1293.1746 284.8594,1293.1746 Q284.6531,1293.1746 284.5313,1293.0527 Q284.4094,1292.9402 284.3438,1292.6309 Q284.3156,1292.4152 284.2031,1292.3027 Q284.0062,1292.0777 283.6406,1291.9465 Q283.275,1291.8152 282.9,1291.8152 Q282.4406,1291.8152 282.0563,1292.0121 Q281.6813,1292.209 281.3812,1292.659 Q281.0906,1293.109 281.0906,1293.7277 L281.0906,1294.384 Q281.0906,1295.1246 281.625,1295.6215 Q282.1594,1296.109 283.1156,1296.109 Q283.6781,1296.109 284.0719,1295.959 Q284.3063,1295.8652 284.5594,1295.6027 Q284.7188,1295.4434 284.8031,1295.3965 Q284.8969,1295.3496 285.0188,1295.3496 Q285.2156,1295.3496 285.3656,1295.509 Q285.525,1295.659 285.525,1295.8652 Q285.525,1296.0715 285.3187,1296.3152 Q285.0188,1296.6621 284.5406,1296.859 Q283.8938,1297.1309 283.1156,1297.1309 Q282.2063,1297.1309 281.4844,1296.7559 Q280.8938,1296.4559 280.4813,1295.8184 Q280.0687,1295.1715 280.0687,1294.4027 L280.0687,1293.709 Q280.0687,1292.9121 280.4344,1292.2277 Q280.8094,1291.534 281.4656,1291.1684 Q282.1219,1290.7934 282.8625,1290.7934 Q283.3031,1290.7934 283.6875,1290.8965 Q284.0813,1290.9902 284.4094,1291.2059 Z " fill="#000000"/><text fill="#000000" font-family="sans-serif" font-size="8.4" lengthAdjust="spacing" textLength="51" x="295.05" y="1297.159">TaskDuration</text><line style="stroke:#181818;stroke-width:0.3;" x1="243.3" x2="378.3" y1="1303.2809" y2="1303.2809"/><line style="stroke:#181818;stroke-width:0.3;" x1="243.3" x2="378.3" y1="1308.0809" y2="1308.0809"/><text fill="#000000" font-family="sans-serif" font-size="8.4" lengthAdjust="spacing" textLength="129" x="246.3" y="1319.5453">+int getTotalDurationMinutes(): int</text></g><!--class Email--><g id="elem_Email"><rect codeLine="110" fill="#F1F1F1" height="62.318" id="Email" rx="1.5" ry="1.5" style="stroke:#181818;stroke-width:0.3;" width="81" x="534.3" y="1085.4809"/><ellipse cx="562.05" cy="1095.0809" fill="#ADD1B2" rx="6.6" ry="6.6" style="stroke:#181818;stroke-width:0.6;"/><path d="M563.7094,1092.6059 Q563.8031,1092.4746 563.9156,1092.409 Q564.0281,1092.3434 564.1594,1092.3434 Q564.3844,1092.3434 564.525,1092.5027 Q564.6656,1092.6527 564.6656,1093.0184 L564.6656,1093.8902 Q564.6656,1094.2559 564.525,1094.4152 Q564.3844,1094.5746 564.1594,1094.5746 Q563.9531,1094.5746 563.8313,1094.4527 Q563.7094,1094.3402 563.6438,1094.0309 Q563.6156,1093.8152 563.5031,1093.7027 Q563.3063,1093.4777 562.9406,1093.3465 Q562.575,1093.2152 562.2,1093.2152 Q561.7406,1093.2152 561.3562,1093.4121 Q560.9812,1093.609 560.6813,1094.059 Q560.3906,1094.509 560.3906,1095.1277 L560.3906,1095.784 Q560.3906,1096.5246 560.925,1097.0215 Q561.4594,1097.509 562.4156,1097.509 Q562.9781,1097.509 563.3719,1097.359 Q563.6062,1097.2652 563.8594,1097.0027 Q564.0188,1096.8434 564.1031,1096.7965 Q564.1969,1096.7496 564.3188,1096.7496 Q564.5156,1096.7496 564.6656,1096.909 Q564.825,1097.059 564.825,1097.2652 Q564.825,1097.4715 564.6188,1097.7152 Q564.3188,1098.0621 563.8406,1098.259 Q563.1938,1098.5309 562.4156,1098.5309 Q561.5063,1098.5309 560.7844,1098.1559 Q560.1938,1097.8559 559.7813,1097.2184 Q559.3688,1096.5715 559.3688,1095.8027 L559.3688,1095.109 Q559.3688,1094.3121 559.7344,1093.6277 Q560.1094,1092.934 560.7656,1092.5684 Q561.4219,1092.1934 562.1625,1092.1934 Q562.6031,1092.1934 562.9875,1092.2965 Q563.3813,1092.3902 563.7094,1092.6059 Z " fill="#000000"/><text fill="#000000" font-family="sans-serif" font-size="8.4" lengthAdjust="spacing" textLength="20.4" x="574.35" y="1098.559">Email</text><line style="stroke:#181818;stroke-width:0.3;" x1="534.9" x2="614.7" y1="1104.6809" y2="1104.6809"/><text fill="#000000" font-family="sans-serif" font-size="8.4" lengthAdjust="spacing" textLength="60" x="537.9" y="1116.1453">+String address</text><line style="stroke:#181818;stroke-width:0.3;" x1="534.9" x2="614.7" y1="1120.6535" y2="1120.6535"/><text fill="#000000" font-family="sans-serif" font-size="8.4" lengthAdjust="spacing" textLength="31.2" x="537.9" y="1132.118">+Email()</text><text fill="#000000" font-family="sans-serif" font-size="8.4" lengthAdjust="spacing" textLength="73.8" x="537.9" y="1143.2906">+getUserId(): String</text></g><!--class UserSession--><g id="elem_UserSession"><rect codeLine="116" fill="#F1F1F1" height="73.4906" id="UserSession" rx="1.5" ry="1.5" style="stroke:#181818;stroke-width:0.3;" width="98.4" x="420" y="909.3809"/><ellipse cx="443.31" cy="918.9809" fill="#ADD1B2" rx="6.6" ry="6.6" style="stroke:#181818;stroke-width:0.6;"/><path d="M444.9694,916.5059 Q445.0631,916.3746 445.1756,916.309 Q445.2881,916.2434 445.4194,916.2434 Q445.6444,916.2434 445.785,916.4027 Q445.9256,916.5527 445.9256,916.9184 L445.9256,917.7902 Q445.9256,918.1559 445.785,918.3152 Q445.6444,918.4746 445.4194,918.4746 Q445.2131,918.4746 445.0913,918.3527 Q444.9694,918.2402 444.9038,917.9309 Q444.8756,917.7152 444.7631,917.6027 Q444.5663,917.3777 444.2006,917.2465 Q443.835,917.1152 443.46,917.1152 Q443.0006,917.1152 442.6163,917.3121 Q442.2413,917.509 441.9413,917.959 Q441.6506,918.409 441.6506,919.0277 L441.6506,919.684 Q441.6506,920.4246 442.185,920.9215 Q442.7194,921.409 443.6756,921.409 Q444.2381,921.409 444.6319,921.259 Q444.8663,921.1652 445.1194,920.9027 Q445.2788,920.7434 445.3631,920.6965 Q445.4569,920.6496 445.5788,920.6496 Q445.7756,920.6496 445.9256,920.809 Q446.085,920.959 446.085,921.1652 Q446.085,921.3715 445.8788,921.6152 Q445.5788,921.9621 445.1006,922.159 Q444.4538,922.4309 443.6756,922.4309 Q442.7663,922.4309 442.0444,922.0559 Q441.4538,921.7559 441.0413,921.1184 Q440.6288,920.4715 440.6288,919.7027 L440.6288,919.009 Q440.6288,918.2121 440.9944,917.5277 Q441.3694,916.834 442.0256,916.4684 Q442.6819,916.0934 443.4225,916.0934 Q443.8631,916.0934 444.2475,916.1965 Q444.6413,916.2902 444.9694,916.5059 Z " fill="#000000"/><text fill="#000000" font-family="sans-serif" font-size="8.4" lengthAdjust="spacing" textLength="47.4" x="454.89" y="922.459">UserSession</text><line style="stroke:#181818;stroke-width:0.3;" x1="420.6" x2="517.8" y1="928.5809" y2="928.5809"/><text fill="#000000" font-family="sans-serif" font-size="8.4" lengthAdjust="spacing" textLength="52.8" x="423.6" y="940.0453">+String userId</text><line style="stroke:#181818;stroke-width:0.3;" x1="420.6" x2="517.8" y1="944.5535" y2="944.5535"/><text fill="#000000" font-family="sans-serif" font-size="8.4" lengthAdjust="spacing" textLength="58.2" x="423.6" y="956.018">+UserSession()</text><text fill="#000000" font-family="sans-serif" font-size="8.4" lengthAdjust="spacing" textLength="91.2" x="423.6" y="967.1906">+getCurrentUser(): User</text><text fill="#000000" font-family="sans-serif" font-size="8.4" lengthAdjust="spacing" textLength="73.8" x="423.6" y="978.3633">+getUserId(): String</text></g><!--class ApplicationSession--><g id="elem_ApplicationSession"><rect codeLine="123" fill="#F1F1F1" height="84.6633" id="ApplicationSession" rx="1.5" ry="1.5" style="stroke:#181818;stroke-width:0.3;" width="224.4" x="259.8" y="771.9809"/><ellipse cx="333.75" cy="781.5809" fill="#ADD1B2" rx="6.6" ry="6.6" style="stroke:#181818;stroke-width:0.6;"/><path d="M335.4094,779.1059 Q335.5031,778.9746 335.6156,778.909 Q335.7281,778.8434 335.8594,778.8434 Q336.0844,778.8434 336.225,779.0027 Q336.3656,779.1527 336.3656,779.5184 L336.3656,780.3902 Q336.3656,780.7559 336.225,780.9152 Q336.0844,781.0746 335.8594,781.0746 Q335.6531,781.0746 335.5313,780.9527 Q335.4094,780.8402 335.3438,780.5309 Q335.3156,780.3152 335.2031,780.2027 Q335.0062,779.9777 334.6406,779.8465 Q334.275,779.7152 333.9,779.7152 Q333.4406,779.7152 333.0563,779.9121 Q332.6813,780.109 332.3812,780.559 Q332.0906,781.009 332.0906,781.6277 L332.0906,782.284 Q332.0906,783.0246 332.625,783.5215 Q333.1594,784.009 334.1156,784.009 Q334.6781,784.009 335.0719,783.859 Q335.3063,783.7652 335.5594,783.5027 Q335.7188,783.3434 335.8031,783.2965 Q335.8969,783.2496 336.0188,783.2496 Q336.2156,783.2496 336.3656,783.409 Q336.525,783.559 336.525,783.7652 Q336.525,783.9715 336.3187,784.2152 Q336.0188,784.5621 335.5406,784.759 Q334.8938,785.0309 334.1156,785.0309 Q333.2063,785.0309 332.4844,784.6559 Q331.8938,784.3559 331.4813,783.7184 Q331.0687,783.0715 331.0687,782.3027 L331.0687,781.609 Q331.0687,780.8121 331.4344,780.1277 Q331.8094,779.434 332.4656,779.0684 Q333.1219,778.6934 333.8625,778.6934 Q334.3031,778.6934 334.6875,778.7965 Q335.0813,778.8902 335.4094,779.1059 Z " fill="#000000"/><text fill="#000000" font-family="sans-serif" font-size="8.4" lengthAdjust="spacing" textLength="71.4" x="346.05" y="785.059">ApplicationSession</text><line style="stroke:#181818;stroke-width:0.3;" x1="260.4" x2="483.6" y1="791.1809" y2="791.1809"/><line style="stroke:#181818;stroke-width:0.3;" x1="260.4" x2="483.6" y1="795.9809" y2="795.9809"/><text fill="#000000" font-family="sans-serif" font-size="8.4" lengthAdjust="spacing" textLength="82.2" x="263.4" y="807.4453">+ApplicationSession()</text><text fill="#000000" font-family="sans-serif" font-size="8.4" lengthAdjust="spacing" textLength="130.8" x="263.4" y="818.618">+getInstance(): ApplicationSession</text><text fill="#000000" font-family="sans-serif" font-size="8.4" lengthAdjust="spacing" textLength="133.8" x="263.4" y="829.7906">+getCurrentSession(): UserSession</text><text fill="#000000" font-family="sans-serif" font-size="8.4" lengthAdjust="spacing" textLength="105.6" x="263.4" y="840.9633">+getProperties(): Properties</text><text fill="#000000" font-family="sans-serif" font-size="8.4" lengthAdjust="spacing" textLength="217.2" x="263.4" y="852.1359">+getAuthenticationRepository(): AuthenticationRepository</text></g><!--class Date--><g id="elem_Date"><rect codeLine="134" fill="#F1F1F1" height="107.0086" id="Date" rx="1.5" ry="1.5" style="stroke:#181818;stroke-width:0.3;" width="107.4" x="635.1" y="1250.7809"/><ellipse cx="677.25" cy="1260.3809" fill="#ADD1B2" rx="6.6" ry="6.6" style="stroke:#181818;stroke-width:0.6;"/><path d="M678.9094,1257.9059 Q679.0031,1257.7746 679.1156,1257.709 Q679.2281,1257.6434 679.3594,1257.6434 Q679.5844,1257.6434 679.725,1257.8027 Q679.8656,1257.9527 679.8656,1258.3184 L679.8656,1259.1902 Q679.8656,1259.5559 679.725,1259.7152 Q679.5844,1259.8746 679.3594,1259.8746 Q679.1531,1259.8746 679.0313,1259.7527 Q678.9094,1259.6402 678.8438,1259.3309 Q678.8156,1259.1152 678.7031,1259.0027 Q678.5063,1258.7777 678.1406,1258.6465 Q677.775,1258.5152 677.4,1258.5152 Q676.9406,1258.5152 676.5563,1258.7121 Q676.1813,1258.909 675.8813,1259.359 Q675.5906,1259.809 675.5906,1260.4277 L675.5906,1261.084 Q675.5906,1261.8246 676.125,1262.3215 Q676.6594,1262.809 677.6156,1262.809 Q678.1781,1262.809 678.5719,1262.659 Q678.8063,1262.5652 679.0594,1262.3027 Q679.2188,1262.1434 679.3031,1262.0965 Q679.3969,1262.0496 679.5188,1262.0496 Q679.7156,1262.0496 679.8656,1262.209 Q680.025,1262.359 680.025,1262.5652 Q680.025,1262.7715 679.8188,1263.0152 Q679.5188,1263.3621 679.0406,1263.559 Q678.3938,1263.8309 677.6156,1263.8309 Q676.7063,1263.8309 675.9844,1263.4559 Q675.3938,1263.1559 674.9812,1262.5184 Q674.5688,1261.8715 674.5688,1261.1027 L674.5688,1260.409 Q674.5688,1259.6121 674.9344,1258.9277 Q675.3094,1258.234 675.9656,1257.8684 Q676.6219,1257.4934 677.3625,1257.4934 Q677.8031,1257.4934 678.1875,1257.5965 Q678.5813,1257.6902 678.9094,1257.9059 Z " fill="#000000"/><text fill="#000000" font-family="sans-serif" font-size="8.4" lengthAdjust="spacing" textLength="18" x="689.55" y="1263.859">Date</text><line style="stroke:#181818;stroke-width:0.3;" x1="635.7" x2="741.9" y1="1269.9809" y2="1269.9809"/><text fill="#000000" font-family="sans-serif" font-size="8.4" lengthAdjust="spacing" textLength="30" x="638.7" y="1281.4453">+int day</text><text fill="#000000" font-family="sans-serif" font-size="8.4" lengthAdjust="spacing" textLength="39.6" x="638.7" y="1292.618">+int month</text><text fill="#000000" font-family="sans-serif" font-size="8.4" lengthAdjust="spacing" textLength="33" x="638.7" y="1303.7906">+int year</text><line style="stroke:#181818;stroke-width:0.3;" x1="635.7" x2="741.9" y1="1308.2988" y2="1308.2988"/><text fill="#000000" font-family="sans-serif" font-size="8.4" lengthAdjust="spacing" textLength="28.8" x="638.7" y="1319.7633">+Date()</text><text fill="#000000" font-family="sans-serif" font-size="8.4" lengthAdjust="spacing" textLength="67.2" x="638.7" y="1330.9359">+toString(): String</text><text fill="#000000" font-family="sans-serif" font-size="8.4" lengthAdjust="spacing" textLength="54" x="638.7" y="1342.1086">+clone(): Date</text><text fill="#000000" font-family="sans-serif" font-size="8.4" lengthAdjust="spacing" textLength="100.2" x="638.7" y="1353.2813">+plusDays(days: int): Date</text></g><!--link ListCollaboratorTasksUI to ListCollaboratorTasksController--><g id="link_ListCollaboratorTasksUI_ListCollaboratorTasksController"><path codeLine="144" d="M276,245.8769 C276,261.3989 276,273.5789 276,288.2909 " fill="none" id="ListCollaboratorTasksUI-to-ListCollaboratorTasksController" style="stroke:#181818;stroke-width:0.6;stroke-dasharray:7.0,7.0;"/><polygon fill="#181818" points="276,291.8909,278.4,286.4909,276,288.8909,273.6,286.4909,276,291.8909" style="stroke:#181818;stroke-width:0.6;"/></g><!--link ListCollaboratorTasksController to AgendaRepository--><g id="link_ListCollaboratorTasksController_AgendaRepository"><path codeLine="145" d="M183.63,432.5309 C168.9,443.6489 158.4,451.5809 158.4,451.5809 C158.4,451.5809 140.8703,559.3276 133.3703,605.4076 " fill="none" id="ListCollaboratorTasksController-to-AgendaRepository" style="stroke:#181818;stroke-width:0.6;stroke-dasharray:7.0,7.0;"/><polygon fill="#181818" points="132.792,608.9609,136.0283,604.0165,133.2739,605.9998,131.2907,603.2454,132.792,608.9609" style="stroke:#181818;stroke-width:0.6;"/></g><!--link ListCollaboratorTasksController to AgendaMapper--><g id="link_ListCollaboratorTasksController_AgendaMapper"><path codeLine="146" d="M276,432.5129 C276,449.0249 276,461.9909 276,474.9509 " fill="none" id="ListCollaboratorTasksController-to-AgendaMapper" style="stroke:#181818;stroke-width:0.6;stroke-dasharray:7.0,7.0;"/><polygon fill="#181818" points="276,478.5509,278.4,473.1509,276,475.5509,273.6,473.1509,276,478.5509" style="stroke:#181818;stroke-width:0.6;"/></g><!--link ListCollaboratorTasksController to ApplicationSession--><g id="link_ListCollaboratorTasksController_ApplicationSession"><path codeLine="147" d="M368.37,432.5309 C383.1,443.6489 393.6,451.5809 393.6,451.5809 C393.6,451.5809 393.6,696.9809 393.6,696.9809 C393.6,696.9809 386.5866,734.8529 380.3946,768.3389 " fill="none" id="ListCollaboratorTasksController-to-ApplicationSession" style="stroke:#181818;stroke-width:0.6;stroke-dasharray:7.0,7.0;"/><polygon fill="#181818" points="379.74,771.8789,383.0819,767.0053,380.2855,768.9289,378.3619,766.1325,379.74,771.8789" style="stroke:#181818;stroke-width:0.6;"/></g><!--link AgendaRepository to Task--><g id="link_AgendaRepository_Task"><path codeLine="148" d="M134.244,649.2869 C140.202,674.2949 149.9576,715.2589 158.6276,751.6489 " fill="none" id="AgendaRepository-to-Task" style="stroke:#181818;stroke-width:0.6;"/><polygon fill="#181818" points="159.462,755.1509,160.5451,749.3417,158.7667,752.2325,155.8758,750.4541,159.462,755.1509" style="stroke:#181818;stroke-width:0.6;"/></g><!--link AgendaMapper to AgendaTaskDTO--><g id="link_AgendaMapper_AgendaTaskDTO"><path codeLine="149" d="M287.292,529.7549 C293.25,542.9789 299.3134,556.4425 306.4894,572.3725 " fill="none" id="AgendaMapper-to-AgendaTaskDTO" style="stroke:#181818;stroke-width:0.6;stroke-dasharray:7.0,7.0;"/><polygon fill="#181818" points="307.968,575.6549,307.9383,569.7456,306.7358,572.9196,303.5619,571.7171,307.968,575.6549" style="stroke:#181818;stroke-width:0.6;"/></g><!--link Task to WorkPeriod--><g id="link_Task_WorkPeriod"><path codeLine="150" d="M200.136,873.4889 C218.91,914.6489 242.9699,967.3895 264.7919,1015.2275 " fill="none" id="Task-to-WorkPeriod" style="stroke:#181818;stroke-width:0.6;"/><polygon fill="#181818" points="266.286,1018.5029,266.2284,1012.5938,265.0409,1015.7734,261.8613,1014.5859,266.286,1018.5029" style="stroke:#181818;stroke-width:0.6;"/></g><!--link WorkPeriod to Date--><g id="link_WorkPeriod_Date"><path codeLine="151" d="M513.528,1210.0769 C520.044,1213.0589 523.8,1214.7809 523.8,1214.7809 C523.8,1214.7809 625.2,1250.7809 625.2,1250.7809 C625.2,1250.7809 626.2827,1251.6787 632.0907,1256.5027 " fill="none" id="WorkPeriod-to-Date" style="stroke:#181818;stroke-width:0.6;stroke-dasharray:7.0,7.0;"/><polygon fill="#181818" points="634.86,1258.8029,632.2394,1253.5064,632.5522,1256.8861,629.1725,1257.1989,634.86,1258.8029" style="stroke:#181818;stroke-width:0.6;"/></g><!--link WorkPeriod to TaskDuration--><g id="link_WorkPeriod_TaskDuration"><path codeLine="152" d="M310.8,1214.7929 C310.8,1241.1209 310.8,1263.3749 310.8,1280.3369 " fill="none" id="WorkPeriod-to-TaskDuration" style="stroke:#181818;stroke-width:0.6;stroke-dasharray:7.0,7.0;"/><polygon fill="#181818" points="310.8,1283.9369,313.2,1278.5369,310.8,1280.9369,308.4,1278.5369,310.8,1283.9369" style="stroke:#181818;stroke-width:0.6;"/></g><!--link ApplicationSession to UserSession--><g id="link_ApplicationSession_UserSession"><path codeLine="153" d="M403.158,856.7129 C415.758,873.6329 428.019,890.0961 440.157,906.3861 " fill="none" id="ApplicationSession-to-UserSession" style="stroke:#181818;stroke-width:0.6;stroke-dasharray:7.0,7.0;"/><polygon fill="#181818" points="442.308,909.2729,441.006,903.5088,440.5155,906.8672,437.157,906.3767,442.308,909.2729" style="stroke:#181818;stroke-width:0.6;"/></g><!--link UserSession to Email--><g id="link_UserSession_Email"><path codeLine="154" d="M496.662,982.7909 C510.258,1000.7189 523.8,1018.5809 523.8,1018.5809 C523.8,1018.5809 542.0508,1053.4792 556.9968,1082.0392 " fill="none" id="UserSession-to-Email" style="stroke:#181818;stroke-width:0.6;stroke-dasharray:7.0,7.0;"/><polygon fill="#181818" points="558.666,1085.2289,558.2886,1079.3316,557.275,1082.5708,554.0358,1081.5572,558.666,1085.2289" style="stroke:#181818;stroke-width:0.6;"/></g><!--SRC=[dLTRRzis57xNho2mXyfe71Hx6eJ0W6Sdcu6s2M9xVQQbOvimJGearSmj-jztICeHgKkLpYyMUMwVFfuBzKwVc2YfecTobaBcHoNFG8og86aa9SrFz01hS-505EI6YWCF5VIH5lA5YGFPKwv32MS2pAK4Kaf-iOia4EQSQZqtHh5TPM2LIx5ctu1yI1B338RQhZ_y_WUPaeNL8qj63sYL93KSyjTsHUxk7YGlGCrcvBUb-v7l2S6Vyqq-CcqMadEwaueQgJPKdpIQUHtxUp-aaqu27IQOOPGZkhHIF2FRvuyto8IMbShXpqeK73Bo7Ar3yvqH3umRKFFSC2aYrtidsD0TXvxzjQ6cqcdBsO83LTvZ9FgA40jgu849ofVua4uoifCIrKMWbXyXFwtqeu3F5UVzEXYUMoOiEsdkw9aVG1GqSuJT-ONLM6uUPotWtCFkGQZ1t2ibLRfdm8kCBAGmIl8RmdVS2T0ztG5kd45hFEMCh34_n25qajlNVvERqAegBJMEw7yOl4ImYd8Z7Lz5cH7xyCJo4wY9NuJuZ_B5lJGOohX-acLLfWOtCX8nuft_I7uqwLfZvA3-LzO6vatsJXs-Qtf6M6lH_feAWS0ZVOPIQeRkBuIsDiQgey4IiNW0qtPjasi-x1qjGkUVwTcbh3_oOJq7mYhsf69ivLCG2cyHyEHFzgRXns-C-lHPj6eSTPrsawwfntQuRfe4npAI9frZ_3xCsBg4dErPxctIIeDQ5Q-rLR-qVTrP5z4dMfRZIUizrxeX4YEHGjT6R9teCDOesywshYyhdhJAh0iMDz-6jFOGGVLq43TzWcshkh53pDGFaOdjT4Ixls1_gp1AVY6L_-y6EIW0iKROOBE-At-HweJEbMbr82OCWN_nE0qKomeF5mTA3mtoJ9aOO-9H7QXWtvoFY0XQk8e9cUyPCpzHoUMvv32WWZWR37Qxxn1OCNumG-H_GUwUG35PE1hzO-j0svshiR6DvKkV6GwlUXxxY5aDe8-RjETL0rYT5jv_t5DttA-ol_5-CIJxn4IVptjH37X4oO0_b8JUGZxJ2EUrYKO0C-ld9W9MRxNJrkV4TJNf3_Y6djqzo5U4QNU4XoeMhrL1U0CQY7vGeUPsE4PDySySzFfd-l4hA4xBL9eZg30TMvUrJYbTsOnAoXuiXjn8WxpL2XWOBzqw31uvkyS6mliA4ti3tdp3SdEgxNhQkX7JckPH1AknHazjj7KSFwF2bjhejuCjAgL0k9Wselt_LJJpikGiTzJqWUgAsnXM0hk2o5qwTBLxyRvwoiANYrMVbCI9QfW_gcRLkdTLc2Z2r35Rzwy1MJCraiHpuBg6VskVD0Mz12lyGZJ7O7t1QtYzN3OjpqvjJtABRdjnbo8kb_Uav9LUqejECPPskNYL8x2XxxTR_DmKjxEnssaoTfE-lKKddVlfkDKikkwypQ2R4fqBt7GwdRagJgBRL1FlUkrnGzDf1uCg62_Mmd7OsWixHDAJyLOdpCImHA-SksfF_WC0]--></g></svg>