<?xml version="1.0" encoding="us-ascii" standalone="no"?><svg xmlns="http://www.w3.org/2000/svg" xmlns:xlink="http://www.w3.org/1999/xlink" contentStyleType="text/css" height="1906px" preserveAspectRatio="none" style="width:2068px;height:1906px;background:#FFFFFF;" version="1.1" viewBox="0 0 2068 1906" width="2068px" zoomAndPan="magnify"><defs/><g><text fill="#000000" font-family="sans-serif" font-size="14" font-weight="bold" lengthAdjust="spacing" textLength="188" x="941.75" y="30.1074">US028 - Sequence Diagram</text><rect fill="#FFFFFF" height="1681.1328" style="stroke:#181818;stroke-width:1.0;" width="10" x="57" y="133.2422"/><rect fill="#FFFFFF" height="1657.8418" style="stroke:#181818;stroke-width:1.0;" width="10" x="475" y="156.5332"/><rect fill="#FFFFFF" height="312.9102" style="stroke:#181818;stroke-width:1.0;" width="10" x="741" y="187.8242"/><rect fill="#FFFFFF" height="504.6563" style="stroke:#181818;stroke-width:1.0;" width="10" x="741" y="672.1895"/><rect fill="#FFFFFF" height="312.9102" style="stroke:#181818;stroke-width:1.0;" width="10" x="741" y="1270.7188"/><rect fill="#FFFFFF" height="156.4551" style="stroke:#181818;stroke-width:1.0;" width="10" x="973" y="219.1152"/><rect fill="#FFFFFF" height="156.4551" style="stroke:#181818;stroke-width:1.0;" width="10" x="973" y="703.4805"/><rect fill="#FFFFFF" height="156.4551" style="stroke:#181818;stroke-width:1.0;" width="10" x="973" y="1302.0098"/><rect fill="#FFFFFF" height="31.291" style="stroke:#181818;stroke-width:1.0;" width="10" x="1114.5" y="438.1523"/><rect fill="#FFFFFF" height="31.291" style="stroke:#181818;stroke-width:1.0;" width="10" x="1114.5" y="922.5176"/><rect fill="#FFFFFF" height="31.291" style="stroke:#181818;stroke-width:1.0;" width="10" x="1114.5" y="1521.0469"/><rect fill="#FFFFFF" height="31.291" style="stroke:#181818;stroke-width:1.0;" width="10" x="1300.5" y="406.8613"/><rect fill="#FFFFFF" height="31.291" style="stroke:#181818;stroke-width:1.0;" width="10" x="1300.5" y="891.2266"/><rect fill="#FFFFFF" height="31.291" style="stroke:#181818;stroke-width:1.0;" width="10" x="1300.5" y="1100.2637"/><rect fill="#FFFFFF" height="31.291" style="stroke:#181818;stroke-width:1.0;" width="10" x="1300.5" y="1489.7559"/><rect fill="#FFFFFF" height="31.291" style="stroke:#181818;stroke-width:1.0;" width="10" x="1436.5" y="250.4063"/><rect fill="#FFFFFF" height="31.291" style="stroke:#181818;stroke-width:1.0;" width="10" x="1436.5" y="734.7715"/><rect fill="#FFFFFF" height="31.291" style="stroke:#181818;stroke-width:1.0;" width="10" x="1436.5" y="1333.3008"/><rect fill="#FFFFFF" height="31.291" style="stroke:#181818;stroke-width:1.0;" width="10" x="1598.5" y="281.6973"/><rect fill="#FFFFFF" height="31.291" style="stroke:#181818;stroke-width:1.0;" width="10" x="1598.5" y="766.0625"/><rect fill="#FFFFFF" height="31.291" style="stroke:#181818;stroke-width:1.0;" width="10" x="1598.5" y="1364.5918"/><rect fill="#FFFFFF" height="31.291" style="stroke:#181818;stroke-width:1.0;" width="10" x="1708.5" y="312.9883"/><rect fill="#FFFFFF" height="31.291" style="stroke:#181818;stroke-width:1.0;" width="10" x="1708.5" y="797.3535"/><rect fill="#FFFFFF" height="31.291" style="stroke:#181818;stroke-width:1.0;" width="10" x="1708.5" y="1395.8828"/><rect fill="#FFFFFF" height="31.291" style="stroke:#181818;stroke-width:1.0;" width="10" x="1769" y="1011.3906"/><rect fill="#FFFFFF" height="57.582" style="stroke:#181818;stroke-width:1.0;" width="10" x="1992" y="1042.6816"/><rect fill="none" height="94.873" style="stroke:#000000;stroke-width:1.5;" width="717" x="10" y="547.0254"/><rect fill="none" height="177.7461" style="stroke:#000000;stroke-width:1.5;" width="1445.5" x="617" y="968.8086"/><rect fill="none" height="81.873" style="stroke:#000000;stroke-width:1.5;" width="1425.5" x="627" y="1057.6816"/><rect fill="none" height="176.4551" style="stroke:#000000;stroke-width:1.5;" width="363" x="366" y="1598.6289"/><rect fill="none" height="143.1641" style="stroke:#000000;stroke-width:1.5;" width="343" x="376" y="1624.9199"/><rect fill="none" height="63.582" style="stroke:#000000;stroke-width:1.5;" width="323" x="386" y="1651.2109"/><line style="stroke:#181818;stroke-width:0.5;stroke-dasharray:5.0,5.0;" x1="62" x2="62" y1="123.2422" y2="1823.375"/><line style="stroke:#181818;stroke-width:0.5;stroke-dasharray:5.0,5.0;" x1="480" x2="480" y1="123.2422" y2="1823.375"/><line style="stroke:#181818;stroke-width:0.5;stroke-dasharray:5.0,5.0;" x1="746" x2="746" y1="123.2422" y2="1823.375"/><line style="stroke:#181818;stroke-width:0.5;stroke-dasharray:5.0,5.0;" x1="977.5" x2="977.5" y1="123.2422" y2="1823.375"/><line style="stroke:#181818;stroke-width:0.5;stroke-dasharray:5.0,5.0;" x1="1119.5" x2="1119.5" y1="123.2422" y2="1823.375"/><line style="stroke:#181818;stroke-width:0.5;stroke-dasharray:5.0,5.0;" x1="1305" x2="1305" y1="123.2422" y2="1823.375"/><line style="stroke:#181818;stroke-width:0.5;stroke-dasharray:5.0,5.0;" x1="1441" x2="1441" y1="123.2422" y2="1823.375"/><line style="stroke:#181818;stroke-width:0.5;stroke-dasharray:5.0,5.0;" x1="1603" x2="1603" y1="123.2422" y2="1823.375"/><line style="stroke:#181818;stroke-width:0.5;stroke-dasharray:5.0,5.0;" x1="1713.5" x2="1713.5" y1="123.2422" y2="1823.375"/><line style="stroke:#181818;stroke-width:0.5;stroke-dasharray:5.0,5.0;" x1="1773.5" x2="1773.5" y1="123.2422" y2="1823.375"/><line style="stroke:#181818;stroke-width:0.5;stroke-dasharray:5.0,5.0;" x1="1996.5" x2="1996.5" y1="123.2422" y2="1823.375"/><text fill="#000000" font-family="sans-serif" font-size="14" lengthAdjust="spacing" textLength="78" x="20" y="119.7285">Collaborator</text><ellipse cx="62" cy="53.1211" fill="#E3E3E3" rx="8" ry="8" style="stroke:#181818;stroke-width:0.5;"/><path d="M62,61.1211 L62,88.1211 M49,69.1211 L75,69.1211 M62,88.1211 L49,103.1211 M62,88.1211 L75,103.1211 " fill="none" style="stroke:#181818;stroke-width:0.5;"/><text fill="#000000" font-family="sans-serif" font-size="14" lengthAdjust="spacing" textLength="78" x="20" y="1837.4824">Collaborator</text><ellipse cx="62" cy="1849.4961" fill="#E3E3E3" rx="8" ry="8" style="stroke:#181818;stroke-width:0.5;"/><path d="M62,1857.4961 L62,1884.4961 M49,1865.4961 L75,1865.4961 M62,1884.4961 L49,1899.4961 M62,1884.4961 L75,1899.4961 " fill="none" style="stroke:#181818;stroke-width:0.5;"/><rect fill="#E3E3E3" height="32.6211" rx="2.5" ry="2.5" style="stroke:#181818;stroke-width:0.5;" width="168" x="396" y="89.6211"/><text fill="#000000" font-family="sans-serif" font-size="14" lengthAdjust="spacing" textLength="154" x="403" y="111.7285">:ListCollaboratorTasksUI</text><rect fill="#E3E3E3" height="32.6211" rx="2.5" ry="2.5" style="stroke:#181818;stroke-width:0.5;" width="168" x="396" y="1822.375"/><text fill="#000000" font-family="sans-serif" font-size="14" lengthAdjust="spacing" textLength="154" x="403" y="1844.4824">:ListCollaboratorTasksUI</text><rect fill="#E3E3E3" height="32.6211" rx="2.5" ry="2.5" style="stroke:#181818;stroke-width:0.5;" width="218" x="637" y="89.6211"/><text fill="#000000" font-family="sans-serif" font-size="14" lengthAdjust="spacing" textLength="204" x="644" y="111.7285">:ListCollaboratorTasksController</text><rect fill="#E3E3E3" height="32.6211" rx="2.5" ry="2.5" style="stroke:#181818;stroke-width:0.5;" width="218" x="637" y="1822.375"/><text fill="#000000" font-family="sans-serif" font-size="14" lengthAdjust="spacing" textLength="204" x="644" y="1844.4824">:ListCollaboratorTasksController</text><rect fill="#E3E3E3" height="32.6211" rx="2.5" ry="2.5" style="stroke:#181818;stroke-width:0.5;" width="135" x="910.5" y="89.6211"/><text fill="#000000" font-family="sans-serif" font-size="14" lengthAdjust="spacing" textLength="121" x="917.5" y="111.7285">:AgendaRepository</text><rect fill="#E3E3E3" height="32.6211" rx="2.5" ry="2.5" style="stroke:#181818;stroke-width:0.5;" width="135" x="910.5" y="1822.375"/><text fill="#000000" font-family="sans-serif" font-size="14" lengthAdjust="spacing" textLength="121" x="917.5" y="1844.4824">:AgendaRepository</text><rect fill="#E3E3E3" height="32.6211" rx="2.5" ry="2.5" style="stroke:#181818;stroke-width:0.5;" width="128" x="1055.5" y="89.6211"/><text fill="#000000" font-family="sans-serif" font-size="14" lengthAdjust="spacing" textLength="114" x="1062.5" y="111.7285">:AgendaTaskDTO</text><rect fill="#E3E3E3" height="32.6211" rx="2.5" ry="2.5" style="stroke:#181818;stroke-width:0.5;" width="128" x="1055.5" y="1822.375"/><text fill="#000000" font-family="sans-serif" font-size="14" lengthAdjust="spacing" textLength="114" x="1062.5" y="1844.4824">:AgendaTaskDTO</text><rect fill="#E3E3E3" height="32.6211" rx="2.5" ry="2.5" style="stroke:#181818;stroke-width:0.5;" width="115" x="1248" y="89.6211"/><text fill="#000000" font-family="sans-serif" font-size="14" lengthAdjust="spacing" textLength="101" x="1255" y="111.7285">:AgendaMapper</text><rect fill="#E3E3E3" height="32.6211" rx="2.5" ry="2.5" style="stroke:#181818;stroke-width:0.5;" width="115" x="1248" y="1822.375"/><text fill="#000000" font-family="sans-serif" font-size="14" lengthAdjust="spacing" textLength="101" x="1255" y="1844.4824">:AgendaMapper</text><rect fill="#E3E3E3" height="32.6211" rx="2.5" ry="2.5" style="stroke:#181818;stroke-width:0.5;" width="137" x="1373" y="89.6211"/><text fill="#000000" font-family="sans-serif" font-size="14" lengthAdjust="spacing" textLength="123" x="1380" y="111.7285">:ApplicationSession</text><rect fill="#E3E3E3" height="32.6211" rx="2.5" ry="2.5" style="stroke:#181818;stroke-width:0.5;" width="137" x="1373" y="1822.375"/><text fill="#000000" font-family="sans-serif" font-size="14" lengthAdjust="spacing" textLength="123" x="1380" y="1844.4824">:ApplicationSession</text><rect fill="#E3E3E3" height="32.6211" rx="2.5" ry="2.5" style="stroke:#181818;stroke-width:0.5;" width="97" x="1555" y="89.6211"/><text fill="#000000" font-family="sans-serif" font-size="14" lengthAdjust="spacing" textLength="83" x="1562" y="111.7285">:UserSession</text><rect fill="#E3E3E3" height="32.6211" rx="2.5" ry="2.5" style="stroke:#181818;stroke-width:0.5;" width="97" x="1555" y="1822.375"/><text fill="#000000" font-family="sans-serif" font-size="14" lengthAdjust="spacing" textLength="83" x="1562" y="1844.4824">:UserSession</text><rect fill="#E3E3E3" height="32.6211" rx="2.5" ry="2.5" style="stroke:#181818;stroke-width:0.5;" width="52" x="1687.5" y="89.6211"/><text fill="#000000" font-family="sans-serif" font-size="14" lengthAdjust="spacing" textLength="38" x="1694.5" y="111.7285">:Email</text><rect fill="#E3E3E3" height="32.6211" rx="2.5" ry="2.5" style="stroke:#181818;stroke-width:0.5;" width="52" x="1687.5" y="1822.375"/><text fill="#000000" font-family="sans-serif" font-size="14" lengthAdjust="spacing" textLength="38" x="1694.5" y="1844.4824">:Email</text><rect fill="#E3E3E3" height="32.6211" rx="2.5" ry="2.5" style="stroke:#181818;stroke-width:0.5;" width="49" x="1749.5" y="89.6211"/><text fill="#000000" font-family="sans-serif" font-size="14" lengthAdjust="spacing" textLength="35" x="1756.5" y="111.7285">:Task</text><rect fill="#E3E3E3" height="32.6211" rx="2.5" ry="2.5" style="stroke:#181818;stroke-width:0.5;" width="49" x="1749.5" y="1822.375"/><text fill="#000000" font-family="sans-serif" font-size="14" lengthAdjust="spacing" textLength="35" x="1756.5" y="1844.4824">:Task</text><rect fill="#E3E3E3" height="32.6211" rx="2.5" ry="2.5" style="stroke:#181818;stroke-width:0.5;" width="91" x="1951.5" y="89.6211"/><text fill="#000000" font-family="sans-serif" font-size="14" lengthAdjust="spacing" textLength="77" x="1958.5" y="111.7285">:Workperiod</text><rect fill="#E3E3E3" height="32.6211" rx="2.5" ry="2.5" style="stroke:#181818;stroke-width:0.5;" width="91" x="1951.5" y="1822.375"/><text fill="#000000" font-family="sans-serif" font-size="14" lengthAdjust="spacing" textLength="77" x="1958.5" y="1844.4824">:Workperiod</text><rect fill="#FFFFFF" height="1681.1328" style="stroke:#181818;stroke-width:1.0;" width="10" x="57" y="133.2422"/><rect fill="#FFFFFF" height="1657.8418" style="stroke:#181818;stroke-width:1.0;" width="10" x="475" y="156.5332"/><rect fill="#FFFFFF" height="312.9102" style="stroke:#181818;stroke-width:1.0;" width="10" x="741" y="187.8242"/><rect fill="#FFFFFF" height="504.6563" style="stroke:#181818;stroke-width:1.0;" width="10" x="741" y="672.1895"/><rect fill="#FFFFFF" height="312.9102" style="stroke:#181818;stroke-width:1.0;" width="10" x="741" y="1270.7188"/><rect fill="#FFFFFF" height="156.4551" style="stroke:#181818;stroke-width:1.0;" width="10" x="973" y="219.1152"/><rect fill="#FFFFFF" height="156.4551" style="stroke:#181818;stroke-width:1.0;" width="10" x="973" y="703.4805"/><rect fill="#FFFFFF" height="156.4551" style="stroke:#181818;stroke-width:1.0;" width="10" x="973" y="1302.0098"/><rect fill="#FFFFFF" height="31.291" style="stroke:#181818;stroke-width:1.0;" width="10" x="1114.5" y="438.1523"/><rect fill="#FFFFFF" height="31.291" style="stroke:#181818;stroke-width:1.0;" width="10" x="1114.5" y="922.5176"/><rect fill="#FFFFFF" height="31.291" style="stroke:#181818;stroke-width:1.0;" width="10" x="1114.5" y="1521.0469"/><rect fill="#FFFFFF" height="31.291" style="stroke:#181818;stroke-width:1.0;" width="10" x="1300.5" y="406.8613"/><rect fill="#FFFFFF" height="31.291" style="stroke:#181818;stroke-width:1.0;" width="10" x="1300.5" y="891.2266"/><rect fill="#FFFFFF" height="31.291" style="stroke:#181818;stroke-width:1.0;" width="10" x="1300.5" y="1100.2637"/><rect fill="#FFFFFF" height="31.291" style="stroke:#181818;stroke-width:1.0;" width="10" x="1300.5" y="1489.7559"/><rect fill="#FFFFFF" height="31.291" style="stroke:#181818;stroke-width:1.0;" width="10" x="1436.5" y="250.4063"/><rect fill="#FFFFFF" height="31.291" style="stroke:#181818;stroke-width:1.0;" width="10" x="1436.5" y="734.7715"/><rect fill="#FFFFFF" height="31.291" style="stroke:#181818;stroke-width:1.0;" width="10" x="1436.5" y="1333.3008"/><rect fill="#FFFFFF" height="31.291" style="stroke:#181818;stroke-width:1.0;" width="10" x="1598.5" y="281.6973"/><rect fill="#FFFFFF" height="31.291" style="stroke:#181818;stroke-width:1.0;" width="10" x="1598.5" y="766.0625"/><rect fill="#FFFFFF" height="31.291" style="stroke:#181818;stroke-width:1.0;" width="10" x="1598.5" y="1364.5918"/><rect fill="#FFFFFF" height="31.291" style="stroke:#181818;stroke-width:1.0;" width="10" x="1708.5" y="312.9883"/><rect fill="#FFFFFF" height="31.291" style="stroke:#181818;stroke-width:1.0;" width="10" x="1708.5" y="797.3535"/><rect fill="#FFFFFF" height="31.291" style="stroke:#181818;stroke-width:1.0;" width="10" x="1708.5" y="1395.8828"/><rect fill="#FFFFFF" height="31.291" style="stroke:#181818;stroke-width:1.0;" width="10" x="1769" y="1011.3906"/><rect fill="#FFFFFF" height="57.582" style="stroke:#181818;stroke-width:1.0;" width="10" x="1992" y="1042.6816"/><polygon fill="#181818" points="463,152.5332,473,156.5332,463,160.5332,467,156.5332" style="stroke:#181818;stroke-width:1.0;"/><line style="stroke:#181818;stroke-width:1.0;" x1="67" x2="469" y1="156.5332" y2="156.5332"/><text fill="#000000" font-family="sans-serif" font-size="13" font-weight="bold" lengthAdjust="spacing" textLength="7" x="74" y="151.2705">1</text><text fill="#000000" font-family="sans-serif" font-size="13" lengthAdjust="spacing" textLength="144" x="85" y="151.2705">asks to show his agenda</text><polygon fill="#181818" points="729,183.8242,739,187.8242,729,191.8242,733,187.8242" style="stroke:#181818;stroke-width:1.0;"/><line style="stroke:#181818;stroke-width:1.0;" x1="485" x2="735" y1="187.8242" y2="187.8242"/><text fill="#000000" font-family="sans-serif" font-size="13" font-weight="bold" lengthAdjust="spacing" textLength="7" x="492" y="182.5615">2</text><text fill="#000000" font-family="sans-serif" font-size="13" lengthAdjust="spacing" textLength="130" x="503" y="182.5615">getCollaboratorTasks()</text><polygon fill="#181818" points="961,215.1152,971,219.1152,961,223.1152,965,219.1152" style="stroke:#181818;stroke-width:1.0;"/><line style="stroke:#181818;stroke-width:1.0;" x1="751" x2="967" y1="219.1152" y2="219.1152"/><text fill="#000000" font-family="sans-serif" font-size="13" font-weight="bold" lengthAdjust="spacing" textLength="7" x="758" y="213.8525">3</text><text fill="#000000" font-family="sans-serif" font-size="13" lengthAdjust="spacing" textLength="185" x="769" y="213.8525">getCollaboratorSpecificAgenda()</text><polygon fill="#181818" points="1424.5,246.4063,1434.5,250.4063,1424.5,254.4063,1428.5,250.4063" style="stroke:#181818;stroke-width:1.0;"/><line style="stroke:#181818;stroke-width:1.0;" x1="983" x2="1430.5" y1="250.4063" y2="250.4063"/><text fill="#000000" font-family="sans-serif" font-size="13" font-weight="bold" lengthAdjust="spacing" textLength="7" x="990" y="245.1436">4</text><text fill="#000000" font-family="sans-serif" font-size="13" lengthAdjust="spacing" textLength="75" x="1001" y="245.1436">getInstance()</text><polygon fill="#181818" points="1586.5,277.6973,1596.5,281.6973,1586.5,285.6973,1590.5,281.6973" style="stroke:#181818;stroke-width:1.0;"/><line style="stroke:#181818;stroke-width:1.0;" x1="1441.5" x2="1592.5" y1="281.6973" y2="281.6973"/><text fill="#000000" font-family="sans-serif" font-size="13" font-weight="bold" lengthAdjust="spacing" textLength="7" x="1448.5" y="276.4346">5</text><text fill="#000000" font-family="sans-serif" font-size="13" lengthAdjust="spacing" textLength="115" x="1459.5" y="276.4346">getCurrentSession()</text><polygon fill="#181818" points="1696.5,308.9883,1706.5,312.9883,1696.5,316.9883,1700.5,312.9883" style="stroke:#181818;stroke-width:1.0;"/><line style="stroke:#181818;stroke-width:1.0;" x1="1603.5" x2="1702.5" y1="312.9883" y2="312.9883"/><text fill="#000000" font-family="sans-serif" font-size="13" font-weight="bold" lengthAdjust="spacing" textLength="7" x="1610.5" y="307.7256">6</text><text fill="#000000" font-family="sans-serif" font-size="13" lengthAdjust="spacing" textLength="63" x="1621.5" y="307.7256">getUserId()</text><polygon fill="#181818" points="994,340.2793,984,344.2793,994,348.2793,990,344.2793" style="stroke:#181818;stroke-width:1.0;"/><line style="stroke:#181818;stroke-width:1.0;stroke-dasharray:2.0,2.0;" x1="988" x2="1712.5" y1="344.2793" y2="344.2793"/><text fill="#000000" font-family="sans-serif" font-size="13" font-weight="bold" lengthAdjust="spacing" textLength="7" x="1000" y="339.0166">7</text><text fill="#000000" font-family="sans-serif" font-size="13" lengthAdjust="spacing" textLength="58" x="1011" y="339.0166">userEmail</text><polygon fill="#181818" points="762,371.5703,752,375.5703,762,379.5703,758,375.5703" style="stroke:#181818;stroke-width:1.0;"/><line style="stroke:#181818;stroke-width:1.0;stroke-dasharray:2.0,2.0;" x1="756" x2="977" y1="375.5703" y2="375.5703"/><text fill="#000000" font-family="sans-serif" font-size="13" font-weight="bold" lengthAdjust="spacing" textLength="7" x="768" y="370.3076">8</text><text fill="#000000" font-family="sans-serif" font-size="13" lengthAdjust="spacing" textLength="102" x="779" y="370.3076">collaboratorTasks</text><polygon fill="#181818" points="1288.5,402.8613,1298.5,406.8613,1288.5,410.8613,1292.5,406.8613" style="stroke:#181818;stroke-width:1.0;"/><line style="stroke:#181818;stroke-width:1.0;" x1="751" x2="1294.5" y1="406.8613" y2="406.8613"/><text fill="#000000" font-family="sans-serif" font-size="13" font-weight="bold" lengthAdjust="spacing" textLength="7" x="758" y="401.5986">9</text><text fill="#000000" font-family="sans-serif" font-size="13" lengthAdjust="spacing" textLength="168" x="769" y="401.5986">toDTOList(collaboratorTasks)</text><polygon fill="#181818" points="1135.5,434.1523,1125.5,438.1523,1135.5,442.1523,1131.5,438.1523" style="stroke:#181818;stroke-width:1.0;"/><line style="stroke:#181818;stroke-width:1.0;stroke-dasharray:2.0,2.0;" x1="1129.5" x2="1304.5" y1="438.1523" y2="438.1523"/><text fill="#000000" font-family="sans-serif" font-size="13" font-weight="bold" lengthAdjust="spacing" textLength="14" x="1141.5" y="432.8896">10</text><text fill="#000000" font-family="sans-serif" font-size="13" lengthAdjust="spacing" textLength="139" x="1159.5" y="432.8896">collaboratorDTOtaskList</text><polygon fill="#181818" points="762,465.4434,752,469.4434,762,473.4434,758,469.4434" style="stroke:#181818;stroke-width:1.0;"/><line style="stroke:#181818;stroke-width:1.0;stroke-dasharray:2.0,2.0;" x1="756" x2="1118.5" y1="469.4434" y2="469.4434"/><text fill="#000000" font-family="sans-serif" font-size="13" font-weight="bold" lengthAdjust="spacing" textLength="14" x="768" y="464.1807">11</text><text fill="#000000" font-family="sans-serif" font-size="13" lengthAdjust="spacing" textLength="139" x="786" y="464.1807">collaboratorDTOtaskList</text><polygon fill="#181818" points="496,496.7344,486,500.7344,496,504.7344,492,500.7344" style="stroke:#181818;stroke-width:1.0;"/><line style="stroke:#181818;stroke-width:1.0;stroke-dasharray:2.0,2.0;" x1="490" x2="745" y1="500.7344" y2="500.7344"/><text fill="#000000" font-family="sans-serif" font-size="13" font-weight="bold" lengthAdjust="spacing" textLength="14" x="502" y="495.4717">12</text><text fill="#000000" font-family="sans-serif" font-size="13" lengthAdjust="spacing" textLength="139" x="520" y="495.4717">collaboratorDTOtaskList</text><polygon fill="#181818" points="78,528.0254,68,532.0254,78,536.0254,74,532.0254" style="stroke:#181818;stroke-width:1.0;"/><line style="stroke:#181818;stroke-width:1.0;stroke-dasharray:2.0,2.0;" x1="72" x2="474" y1="532.0254" y2="532.0254"/><text fill="#000000" font-family="sans-serif" font-size="13" font-weight="bold" lengthAdjust="spacing" textLength="14" x="84" y="526.7627">13</text><text fill="#000000" font-family="sans-serif" font-size="13" lengthAdjust="spacing" textLength="246" x="102" y="526.7627">Displays the collaborator's specific agenda</text><path d="M10,547.0254 L83,547.0254 L83,556.3164 L73,566.3164 L10,566.3164 L10,547.0254 " fill="#EEEEEE" style="stroke:#000000;stroke-width:1.5;"/><rect fill="none" height="94.873" style="stroke:#000000;stroke-width:1.5;" width="717" x="10" y="547.0254"/><text fill="#000000" font-family="sans-serif" font-size="13" font-weight="bold" lengthAdjust="spacing" textLength="28" x="25" y="562.0537">loop</text><text fill="#000000" font-family="sans-serif" font-size="11" font-weight="bold" lengthAdjust="spacing" textLength="228" x="98" y="560.8955">[until the collaborator selects valid dates]</text><polygon fill="#181818" points="463,585.6074,473,589.6074,463,593.6074,467,589.6074" style="stroke:#181818;stroke-width:1.0;"/><line style="stroke:#181818;stroke-width:1.0;" x1="67" x2="469" y1="589.6074" y2="589.6074"/><text fill="#000000" font-family="sans-serif" font-size="13" font-weight="bold" lengthAdjust="spacing" textLength="14" x="74" y="584.3447">14</text><text fill="#000000" font-family="sans-serif" font-size="13" lengthAdjust="spacing" textLength="366" x="92" y="584.3447">Asks to filter the tasks between two dates(initialDate, finalDate)</text><line style="stroke:#181818;stroke-width:1.0;stroke-dasharray:2.0,2.0;" x1="485" x2="527" y1="620.8984" y2="620.8984"/><line style="stroke:#181818;stroke-width:1.0;stroke-dasharray:2.0,2.0;" x1="527" x2="527" y1="620.8984" y2="633.8984"/><line style="stroke:#181818;stroke-width:1.0;stroke-dasharray:2.0,2.0;" x1="486" x2="527" y1="633.8984" y2="633.8984"/><polygon fill="#181818" points="496,629.8984,486,633.8984,496,637.8984,492,633.8984" style="stroke:#181818;stroke-width:1.0;"/><text fill="#000000" font-family="sans-serif" font-size="13" font-weight="bold" lengthAdjust="spacing" textLength="14" x="492" y="615.6357">15</text><text fill="#000000" font-family="sans-serif" font-size="13" lengthAdjust="spacing" textLength="205" x="510" y="615.6357">validateDates(initialDate, FinalDate)</text><polygon fill="#181818" points="729,668.1895,739,672.1895,729,676.1895,733,672.1895" style="stroke:#181818;stroke-width:1.0;"/><line style="stroke:#181818;stroke-width:1.0;" x1="485" x2="735" y1="672.1895" y2="672.1895"/><text fill="#000000" font-family="sans-serif" font-size="13" font-weight="bold" lengthAdjust="spacing" textLength="14" x="492" y="666.9268">16</text><text fill="#000000" font-family="sans-serif" font-size="13" lengthAdjust="spacing" textLength="219" x="510" y="666.9268">getFilteredTasks(initialDate, finalDate)</text><polygon fill="#181818" points="961,699.4805,971,703.4805,961,707.4805,965,703.4805" style="stroke:#181818;stroke-width:1.0;"/><line style="stroke:#181818;stroke-width:1.0;" x1="751" x2="967" y1="703.4805" y2="703.4805"/><text fill="#000000" font-family="sans-serif" font-size="13" font-weight="bold" lengthAdjust="spacing" textLength="14" x="758" y="698.2178">17</text><text fill="#000000" font-family="sans-serif" font-size="13" lengthAdjust="spacing" textLength="185" x="776" y="698.2178">getCollaboratorSpecificAgenda()</text><polygon fill="#181818" points="1424.5,730.7715,1434.5,734.7715,1424.5,738.7715,1428.5,734.7715" style="stroke:#181818;stroke-width:1.0;"/><line style="stroke:#181818;stroke-width:1.0;" x1="983" x2="1430.5" y1="734.7715" y2="734.7715"/><text fill="#000000" font-family="sans-serif" font-size="13" font-weight="bold" lengthAdjust="spacing" textLength="14" x="990" y="729.5088">18</text><text fill="#000000" font-family="sans-serif" font-size="13" lengthAdjust="spacing" textLength="75" x="1008" y="729.5088">getInstance()</text><polygon fill="#181818" points="1586.5,762.0625,1596.5,766.0625,1586.5,770.0625,1590.5,766.0625" style="stroke:#181818;stroke-width:1.0;"/><line style="stroke:#181818;stroke-width:1.0;" x1="1441.5" x2="1592.5" y1="766.0625" y2="766.0625"/><text fill="#000000" font-family="sans-serif" font-size="13" font-weight="bold" lengthAdjust="spacing" textLength="14" x="1448.5" y="760.7998">19</text><text fill="#000000" font-family="sans-serif" font-size="13" lengthAdjust="spacing" textLength="115" x="1466.5" y="760.7998">getCurrentSession()</text><polygon fill="#181818" points="1696.5,793.3535,1706.5,797.3535,1696.5,801.3535,1700.5,797.3535" style="stroke:#181818;stroke-width:1.0;"/><line style="stroke:#181818;stroke-width:1.0;" x1="1603.5" x2="1702.5" y1="797.3535" y2="797.3535"/><text fill="#000000" font-family="sans-serif" font-size="13" font-weight="bold" lengthAdjust="spacing" textLength="14" x="1610.5" y="792.0908">20</text><text fill="#000000" font-family="sans-serif" font-size="13" lengthAdjust="spacing" textLength="63" x="1628.5" y="792.0908">getUserId()</text><polygon fill="#181818" points="994,824.6445,984,828.6445,994,832.6445,990,828.6445" style="stroke:#181818;stroke-width:1.0;"/><line style="stroke:#181818;stroke-width:1.0;stroke-dasharray:2.0,2.0;" x1="988" x2="1712.5" y1="828.6445" y2="828.6445"/><text fill="#000000" font-family="sans-serif" font-size="13" font-weight="bold" lengthAdjust="spacing" textLength="14" x="1000" y="823.3818">21</text><text fill="#000000" font-family="sans-serif" font-size="13" lengthAdjust="spacing" textLength="58" x="1018" y="823.3818">userEmail</text><polygon fill="#181818" points="762,855.9355,752,859.9355,762,863.9355,758,859.9355" style="stroke:#181818;stroke-width:1.0;"/><line style="stroke:#181818;stroke-width:1.0;stroke-dasharray:2.0,2.0;" x1="756" x2="977" y1="859.9355" y2="859.9355"/><text fill="#000000" font-family="sans-serif" font-size="13" font-weight="bold" lengthAdjust="spacing" textLength="14" x="768" y="854.6729">22</text><text fill="#000000" font-family="sans-serif" font-size="13" lengthAdjust="spacing" textLength="102" x="786" y="854.6729">collaboratorTasks</text><polygon fill="#181818" points="1288.5,887.2266,1298.5,891.2266,1288.5,895.2266,1292.5,891.2266" style="stroke:#181818;stroke-width:1.0;"/><line style="stroke:#181818;stroke-width:1.0;" x1="751" x2="1294.5" y1="891.2266" y2="891.2266"/><text fill="#000000" font-family="sans-serif" font-size="13" font-weight="bold" lengthAdjust="spacing" textLength="14" x="758" y="885.9639">23</text><text fill="#000000" font-family="sans-serif" font-size="13" lengthAdjust="spacing" textLength="168" x="776" y="885.9639">toDTOList(collaboratorTasks)</text><polygon fill="#181818" points="1135.5,918.5176,1125.5,922.5176,1135.5,926.5176,1131.5,922.5176" style="stroke:#181818;stroke-width:1.0;"/><line style="stroke:#181818;stroke-width:1.0;stroke-dasharray:2.0,2.0;" x1="1129.5" x2="1304.5" y1="922.5176" y2="922.5176"/><text fill="#000000" font-family="sans-serif" font-size="13" font-weight="bold" lengthAdjust="spacing" textLength="14" x="1141.5" y="917.2549">24</text><text fill="#000000" font-family="sans-serif" font-size="13" lengthAdjust="spacing" textLength="139" x="1159.5" y="917.2549">collaboratorDTOtaskList</text><polygon fill="#181818" points="762,949.8086,752,953.8086,762,957.8086,758,953.8086" style="stroke:#181818;stroke-width:1.0;"/><line style="stroke:#181818;stroke-width:1.0;stroke-dasharray:2.0,2.0;" x1="756" x2="1118.5" y1="953.8086" y2="953.8086"/><text fill="#000000" font-family="sans-serif" font-size="13" font-weight="bold" lengthAdjust="spacing" textLength="14" x="768" y="948.5459">25</text><text fill="#000000" font-family="sans-serif" font-size="13" lengthAdjust="spacing" textLength="139" x="786" y="948.5459">collaboratorDTOtaskList</text><path d="M617,968.8086 L690,968.8086 L690,978.0996 L680,988.0996 L617,988.0996 L617,968.8086 " fill="#EEEEEE" style="stroke:#000000;stroke-width:1.5;"/><rect fill="none" height="177.7461" style="stroke:#000000;stroke-width:1.5;" width="1445.5" x="617" y="968.8086"/><text fill="#000000" font-family="sans-serif" font-size="13" font-weight="bold" lengthAdjust="spacing" textLength="28" x="632" y="983.8369">loop</text><text fill="#000000" font-family="sans-serif" font-size="11" font-weight="bold" lengthAdjust="spacing" textLength="237" x="705" y="982.6787">[for each task of the collaborator's agenda]</text><polygon fill="#181818" points="1757,1007.3906,1767,1011.3906,1757,1015.3906,1761,1011.3906" style="stroke:#181818;stroke-width:1.0;"/><line style="stroke:#181818;stroke-width:1.0;" x1="751" x2="1763" y1="1011.3906" y2="1011.3906"/><text fill="#000000" font-family="sans-serif" font-size="13" font-weight="bold" lengthAdjust="spacing" textLength="14" x="758" y="1006.1279">26</text><text fill="#000000" font-family="sans-serif" font-size="13" lengthAdjust="spacing" textLength="122" x="776" y="1006.1279">getTaskWorkPeriod()</text><polygon fill="#181818" points="1980,1038.6816,1990,1042.6816,1980,1046.6816,1984,1042.6816" style="stroke:#181818;stroke-width:1.0;"/><line style="stroke:#181818;stroke-width:1.0;" x1="1774" x2="1986" y1="1042.6816" y2="1042.6816"/><text fill="#000000" font-family="sans-serif" font-size="13" font-weight="bold" lengthAdjust="spacing" textLength="14" x="1781" y="1037.4189">27</text><text fill="#000000" font-family="sans-serif" font-size="13" lengthAdjust="spacing" textLength="176" x="1799" y="1037.4189">isOverlap(initialDate, finalDate)</text><path d="M627,1057.6816 L688,1057.6816 L688,1066.9727 L678,1076.9727 L627,1076.9727 L627,1057.6816 " fill="#EEEEEE" style="stroke:#000000;stroke-width:1.5;"/><rect fill="none" height="81.873" style="stroke:#000000;stroke-width:1.5;" width="1425.5" x="627" y="1057.6816"/><text fill="#000000" font-family="sans-serif" font-size="13" font-weight="bold" lengthAdjust="spacing" textLength="16" x="642" y="1072.71">alt</text><text fill="#000000" font-family="sans-serif" font-size="11" font-weight="bold" lengthAdjust="spacing" textLength="352" x="703" y="1071.5518">[the task work period overlaps with the selected dates interval]</text><polygon fill="#181818" points="1321.5,1096.2637,1311.5,1100.2637,1321.5,1104.2637,1317.5,1100.2637" style="stroke:#181818;stroke-width:1.0;"/><line style="stroke:#181818;stroke-width:1.0;stroke-dasharray:2.0,2.0;" x1="1315.5" x2="1996" y1="1100.2637" y2="1100.2637"/><text fill="#000000" font-family="sans-serif" font-size="13" font-weight="bold" lengthAdjust="spacing" textLength="14" x="1327.5" y="1095.001">28</text><text fill="#000000" font-family="sans-serif" font-size="13" lengthAdjust="spacing" textLength="70" x="1345.5" y="1095.001">toDTO(task)</text><polygon fill="#181818" points="762,1127.5547,752,1131.5547,762,1135.5547,758,1131.5547" style="stroke:#181818;stroke-width:1.0;"/><line style="stroke:#181818;stroke-width:1.0;stroke-dasharray:2.0,2.0;" x1="756" x2="1304.5" y1="1131.5547" y2="1131.5547"/><text fill="#000000" font-family="sans-serif" font-size="13" font-weight="bold" lengthAdjust="spacing" textLength="14" x="768" y="1126.292">29</text><text fill="#000000" font-family="sans-serif" font-size="13" lengthAdjust="spacing" textLength="57" x="786" y="1126.292">addTask()</text><polygon fill="#181818" points="496,1172.8457,486,1176.8457,496,1180.8457,492,1176.8457" style="stroke:#181818;stroke-width:1.0;"/><line style="stroke:#181818;stroke-width:1.0;stroke-dasharray:2.0,2.0;" x1="490" x2="745" y1="1176.8457" y2="1176.8457"/><text fill="#000000" font-family="sans-serif" font-size="13" font-weight="bold" lengthAdjust="spacing" textLength="14" x="502" y="1171.583">30</text><text fill="#000000" font-family="sans-serif" font-size="13" lengthAdjust="spacing" textLength="73" x="520" y="1171.583">filteredTasks</text><polygon fill="#181818" points="78,1204.1367,68,1208.1367,78,1212.1367,74,1208.1367" style="stroke:#181818;stroke-width:1.0;"/><line style="stroke:#181818;stroke-width:1.0;stroke-dasharray:2.0,2.0;" x1="72" x2="474" y1="1208.1367" y2="1208.1367"/><text fill="#000000" font-family="sans-serif" font-size="13" font-weight="bold" lengthAdjust="spacing" textLength="14" x="84" y="1202.874">31</text><text fill="#000000" font-family="sans-serif" font-size="13" lengthAdjust="spacing" textLength="73" x="102" y="1202.874">filteredTasks</text><polygon fill="#181818" points="463,1235.4277,473,1239.4277,463,1243.4277,467,1239.4277" style="stroke:#181818;stroke-width:1.0;"/><line style="stroke:#181818;stroke-width:1.0;" x1="67" x2="469" y1="1239.4277" y2="1239.4277"/><text fill="#000000" font-family="sans-serif" font-size="13" font-weight="bold" lengthAdjust="spacing" textLength="14" x="74" y="1234.165">32</text><text fill="#000000" font-family="sans-serif" font-size="13" lengthAdjust="spacing" textLength="286" x="92" y="1234.165">Asks to filter the tasks by status(selected status)</text><polygon fill="#181818" points="729,1266.7188,739,1270.7188,729,1274.7188,733,1270.7188" style="stroke:#181818;stroke-width:1.0;"/><line style="stroke:#181818;stroke-width:1.0;" x1="485" x2="735" y1="1270.7188" y2="1270.7188"/><text fill="#000000" font-family="sans-serif" font-size="13" font-weight="bold" lengthAdjust="spacing" textLength="14" x="492" y="1265.4561">33</text><text fill="#000000" font-family="sans-serif" font-size="13" lengthAdjust="spacing" textLength="130" x="510" y="1265.4561">getCollaboratorTasks()</text><polygon fill="#181818" points="961,1298.0098,971,1302.0098,961,1306.0098,965,1302.0098" style="stroke:#181818;stroke-width:1.0;"/><line style="stroke:#181818;stroke-width:1.0;" x1="751" x2="967" y1="1302.0098" y2="1302.0098"/><text fill="#000000" font-family="sans-serif" font-size="13" font-weight="bold" lengthAdjust="spacing" textLength="14" x="758" y="1296.7471">34</text><text fill="#000000" font-family="sans-serif" font-size="13" lengthAdjust="spacing" textLength="185" x="776" y="1296.7471">getCollaboratorSpecificAgenda()</text><polygon fill="#181818" points="1424.5,1329.3008,1434.5,1333.3008,1424.5,1337.3008,1428.5,1333.3008" style="stroke:#181818;stroke-width:1.0;"/><line style="stroke:#181818;stroke-width:1.0;" x1="983" x2="1430.5" y1="1333.3008" y2="1333.3008"/><text fill="#000000" font-family="sans-serif" font-size="13" font-weight="bold" lengthAdjust="spacing" textLength="14" x="990" y="1328.0381">35</text><text fill="#000000" font-family="sans-serif" font-size="13" lengthAdjust="spacing" textLength="75" x="1008" y="1328.0381">getInstance()</text><polygon fill="#181818" points="1586.5,1360.5918,1596.5,1364.5918,1586.5,1368.5918,1590.5,1364.5918" style="stroke:#181818;stroke-width:1.0;"/><line style="stroke:#181818;stroke-width:1.0;" x1="1441.5" x2="1592.5" y1="1364.5918" y2="1364.5918"/><text fill="#000000" font-family="sans-serif" font-size="13" font-weight="bold" lengthAdjust="spacing" textLength="14" x="1448.5" y="1359.3291">36</text><text fill="#000000" font-family="sans-serif" font-size="13" lengthAdjust="spacing" textLength="115" x="1466.5" y="1359.3291">getCurrentSession()</text><polygon fill="#181818" points="1696.5,1391.8828,1706.5,1395.8828,1696.5,1399.8828,1700.5,1395.8828" style="stroke:#181818;stroke-width:1.0;"/><line style="stroke:#181818;stroke-width:1.0;" x1="1603.5" x2="1702.5" y1="1395.8828" y2="1395.8828"/><text fill="#000000" font-family="sans-serif" font-size="13" font-weight="bold" lengthAdjust="spacing" textLength="14" x="1610.5" y="1390.6201">37</text><text fill="#000000" font-family="sans-serif" font-size="13" lengthAdjust="spacing" textLength="63" x="1628.5" y="1390.6201">getUserId()</text><polygon fill="#181818" points="994,1423.1738,984,1427.1738,994,1431.1738,990,1427.1738" style="stroke:#181818;stroke-width:1.0;"/><line style="stroke:#181818;stroke-width:1.0;stroke-dasharray:2.0,2.0;" x1="988" x2="1712.5" y1="1427.1738" y2="1427.1738"/><text fill="#000000" font-family="sans-serif" font-size="13" font-weight="bold" lengthAdjust="spacing" textLength="14" x="1000" y="1421.9111">38</text><text fill="#000000" font-family="sans-serif" font-size="13" lengthAdjust="spacing" textLength="58" x="1018" y="1421.9111">userEmail</text><polygon fill="#181818" points="762,1454.4648,752,1458.4648,762,1462.4648,758,1458.4648" style="stroke:#181818;stroke-width:1.0;"/><line style="stroke:#181818;stroke-width:1.0;stroke-dasharray:2.0,2.0;" x1="756" x2="977" y1="1458.4648" y2="1458.4648"/><text fill="#000000" font-family="sans-serif" font-size="13" font-weight="bold" lengthAdjust="spacing" textLength="14" x="768" y="1453.2021">39</text><text fill="#000000" font-family="sans-serif" font-size="13" lengthAdjust="spacing" textLength="102" x="786" y="1453.2021">collaboratorTasks</text><polygon fill="#181818" points="1288.5,1485.7559,1298.5,1489.7559,1288.5,1493.7559,1292.5,1489.7559" style="stroke:#181818;stroke-width:1.0;"/><line style="stroke:#181818;stroke-width:1.0;" x1="751" x2="1294.5" y1="1489.7559" y2="1489.7559"/><text fill="#000000" font-family="sans-serif" font-size="13" font-weight="bold" lengthAdjust="spacing" textLength="14" x="758" y="1484.4932">40</text><text fill="#000000" font-family="sans-serif" font-size="13" lengthAdjust="spacing" textLength="168" x="776" y="1484.4932">toDTOList(collaboratorTasks)</text><polygon fill="#181818" points="1135.5,1517.0469,1125.5,1521.0469,1135.5,1525.0469,1131.5,1521.0469" style="stroke:#181818;stroke-width:1.0;"/><line style="stroke:#181818;stroke-width:1.0;stroke-dasharray:2.0,2.0;" x1="1129.5" x2="1304.5" y1="1521.0469" y2="1521.0469"/><text fill="#000000" font-family="sans-serif" font-size="13" font-weight="bold" lengthAdjust="spacing" textLength="14" x="1141.5" y="1515.7842">41</text><text fill="#000000" font-family="sans-serif" font-size="13" lengthAdjust="spacing" textLength="139" x="1159.5" y="1515.7842">collaboratorDTOtaskList</text><polygon fill="#181818" points="762,1548.3379,752,1552.3379,762,1556.3379,758,1552.3379" style="stroke:#181818;stroke-width:1.0;"/><line style="stroke:#181818;stroke-width:1.0;stroke-dasharray:2.0,2.0;" x1="756" x2="1118.5" y1="1552.3379" y2="1552.3379"/><text fill="#000000" font-family="sans-serif" font-size="13" font-weight="bold" lengthAdjust="spacing" textLength="14" x="768" y="1547.0752">42</text><text fill="#000000" font-family="sans-serif" font-size="13" lengthAdjust="spacing" textLength="139" x="786" y="1547.0752">collaboratorDTOtaskList</text><polygon fill="#181818" points="496,1579.6289,486,1583.6289,496,1587.6289,492,1583.6289" style="stroke:#181818;stroke-width:1.0;"/><line style="stroke:#181818;stroke-width:1.0;stroke-dasharray:2.0,2.0;" x1="490" x2="745" y1="1583.6289" y2="1583.6289"/><text fill="#000000" font-family="sans-serif" font-size="13" font-weight="bold" lengthAdjust="spacing" textLength="14" x="502" y="1578.3662">43</text><text fill="#000000" font-family="sans-serif" font-size="13" lengthAdjust="spacing" textLength="139" x="520" y="1578.3662">collaboratorDTOtaskList</text><path d="M366,1598.6289 L439,1598.6289 L439,1607.9199 L429,1617.9199 L366,1617.9199 L366,1598.6289 " fill="#EEEEEE" style="stroke:#000000;stroke-width:1.5;"/><rect fill="none" height="176.4551" style="stroke:#000000;stroke-width:1.5;" width="363" x="366" y="1598.6289"/><text fill="#000000" font-family="sans-serif" font-size="13" font-weight="bold" lengthAdjust="spacing" textLength="28" x="381" y="1613.6572">loop</text><text fill="#000000" font-family="sans-serif" font-size="11" font-weight="bold" lengthAdjust="spacing" textLength="237" x="454" y="1612.499">[for each task of the collaborator's agenda]</text><path d="M376,1624.9199 L437,1624.9199 L437,1634.2109 L427,1644.2109 L376,1644.2109 L376,1624.9199 " fill="#EEEEEE" style="stroke:#000000;stroke-width:1.5;"/><rect fill="none" height="143.1641" style="stroke:#000000;stroke-width:1.5;" width="343" x="376" y="1624.9199"/><text fill="#000000" font-family="sans-serif" font-size="13" font-weight="bold" lengthAdjust="spacing" textLength="16" x="391" y="1639.9482">alt</text><text fill="#000000" font-family="sans-serif" font-size="11" font-weight="bold" lengthAdjust="spacing" textLength="243" x="452" y="1638.79">[the selected status filter is not "All Status"]</text><path d="M386,1651.2109 L447,1651.2109 L447,1660.502 L437,1670.502 L386,1670.502 L386,1651.2109 " fill="#EEEEEE" style="stroke:#000000;stroke-width:1.5;"/><rect fill="none" height="63.582" style="stroke:#000000;stroke-width:1.5;" width="323" x="386" y="1651.2109"/><text fill="#000000" font-family="sans-serif" font-size="13" font-weight="bold" lengthAdjust="spacing" textLength="16" x="401" y="1666.2393">alt</text><text fill="#000000" font-family="sans-serif" font-size="11" font-weight="bold" lengthAdjust="spacing" textLength="242" x="462" y="1665.0811">[task status is the same as the filter status]</text><line style="stroke:#181818;stroke-width:1.0;stroke-dasharray:2.0,2.0;" x1="485" x2="527" y1="1693.793" y2="1693.793"/><line style="stroke:#181818;stroke-width:1.0;stroke-dasharray:2.0,2.0;" x1="527" x2="527" y1="1693.793" y2="1706.793"/><line style="stroke:#181818;stroke-width:1.0;stroke-dasharray:2.0,2.0;" x1="486" x2="527" y1="1706.793" y2="1706.793"/><polygon fill="#181818" points="496,1702.793,486,1706.793,496,1710.793,492,1706.793" style="stroke:#181818;stroke-width:1.0;"/><text fill="#000000" font-family="sans-serif" font-size="13" font-weight="bold" lengthAdjust="spacing" textLength="14" x="492" y="1688.5303">44</text><text fill="#000000" font-family="sans-serif" font-size="13" lengthAdjust="spacing" textLength="54" x="510" y="1688.5303">add(task)</text><line style="stroke:#000000;stroke-width:1.0;stroke-dasharray:2.0,2.0;" x1="376" x2="719" y1="1722.793" y2="1722.793"/><line style="stroke:#181818;stroke-width:1.0;stroke-dasharray:2.0,2.0;" x1="485" x2="527" y1="1747.084" y2="1747.084"/><line style="stroke:#181818;stroke-width:1.0;stroke-dasharray:2.0,2.0;" x1="527" x2="527" y1="1747.084" y2="1760.084"/><line style="stroke:#181818;stroke-width:1.0;stroke-dasharray:2.0,2.0;" x1="486" x2="527" y1="1760.084" y2="1760.084"/><polygon fill="#181818" points="496,1756.084,486,1760.084,496,1764.084,492,1760.084" style="stroke:#181818;stroke-width:1.0;"/><text fill="#000000" font-family="sans-serif" font-size="13" font-weight="bold" lengthAdjust="spacing" textLength="14" x="492" y="1741.8213">45</text><text fill="#000000" font-family="sans-serif" font-size="13" lengthAdjust="spacing" textLength="54" x="510" y="1741.8213">add(task)</text><polygon fill="#181818" points="78,1801.375,68,1805.375,78,1809.375,74,1805.375" style="stroke:#181818;stroke-width:1.0;"/><line style="stroke:#181818;stroke-width:1.0;stroke-dasharray:2.0,2.0;" x1="72" x2="474" y1="1805.375" y2="1805.375"/><text fill="#000000" font-family="sans-serif" font-size="13" font-weight="bold" lengthAdjust="spacing" textLength="14" x="84" y="1800.1123">46</text><text fill="#000000" font-family="sans-serif" font-size="13" lengthAdjust="spacing" textLength="73" x="102" y="1800.1123">filteredTasks</text><!--SRC=[fLVBRjim4BphAnQvr04QeEYfyA604IT0W1GfeXWzCn9j4w59LQHZvE-xNCgsI96ExFfYFdQ6ZzqPIUPDg8QrR0CRhNIrRlM6Wsstl327cOPLRsp5I_iXERIyiaojP3_0h5cjTqAjOCcauKLXXSNGHVdj-m-uWPB_tN9LSPWBjiBuec1RgzLsyyfRR5TMjt1rgwLahxfbsBi2Pg0_KE0wLbIYOSh2rVHH6DkVVc7cpImU2BPu61DygvLjSP1tQxqyFqQmsOghcZtpHXk1g0-AUxxx_PICSwJpboSAmlzap2_MDDrwlXb7DOqK5RD2gv8RWtyKEokZk8NXRJzW4GVSRPYGD4MjQDPjbIPT8vhxezitt9ZGDKKSkvGcySui3_DI0Fxw8t3p4rC0KtV9O3MMXjx1MXXWT0SKVw32NBa-nYFAvG2cApvCrkGwX56sQ647GQXBIumi6rw9fQZytSSKb4WtuXgEObOwWWTbiBWh7eTZ3cXWLjBvAFPssxPSsIuJ7QBcVKnuMDzV40Kbnh6uP3xKG_GYGljCkY5gmSt-s5iaE4xs6FnWxv3T7K-XYYyuXXvkPt_1lbwdc50iRYUeoO3ZkWWtt9Mu6_DDsW32m_Lnm2BSSSQxw1X2MYSkDu3_cHETODo3_R6eKlFO8aOVoixLgrkw1voYjvb6iWyi-ZKFEByOC5qjxaL0B5Bh1hRAOZ9Z21WkqMODl3CfQgXnTPDHsXHcdTAMGbgyPSTbINsltEuuLs1tsbDCX19MC3d7pbUCLxvvtJ-KOwHLSM8-1Ds783mDdQCOw1YmjkzfHxps8iujNXGPTL-ayBJAFrLwKksZ59zMVKhvdwa_xG0P5_ZK2V9kCDeHSgvmcJFatE5SXpZX4acdECyjCevn4EmIXOVJQz8Ow6LAxdkL3oxBNGSfmpNSm_KtFLnJDKWFv_sewpZyyNay1M6UtdahMNDIrT5n0bOcxS4jO8VKuBb1Us83Es7N5EBzY7TM14AXhj4bXjlklJ7ivuv3b8AWO2PkxUHE4qGZYiVdbzLaEMbPHM3CLB_jtIpCM-UAoxwRfPW3uqe-8z8Kvvdw1w1nsQsP77BY-zV1qYDUfmRN6kp_OlFD6_0e4yuQyMWppXjopfJ767FUd4yOz2YJFctKPvdrASE-tBHFQUyIypujoAo7N-Rb6KzFNCidhuCPCX9DC7dkOo8uU6V9aRRtDe2VKKhZTzfCIYXfvce8TmjsCE7VHWt3RthcsnsJ3mWLS7m1H0EDd3csIkgxJ_t_OuWDTvnp_WC0]--></g></svg>