<?xml version="1.0" encoding="us-ascii" standalone="no"?><svg xmlns="http://www.w3.org/2000/svg" xmlns:xlink="http://www.w3.org/1999/xlink" contentStyleType="text/css" height="606px" preserveAspectRatio="none" style="width:544px;height:606px;background:#FFFFFF;" version="1.1" viewBox="0 0 544 606" width="544px" zoomAndPan="magnify"><defs/><g><text fill="#000000" font-family="sans-serif" font-size="14" font-weight="bold" lengthAdjust="spacing" textLength="284" x="132" y="30.1074">US004 - System Sequence Diagram (SSD)</text><rect fill="#FFFFFF" height="380.7832" style="stroke:#181818;stroke-width:1.0;" width="10" x="33" y="133.2422"/><rect fill="#FFFFFF" height="31.291" style="stroke:#181818;stroke-width:1.0;" width="10" x="379" y="156.5332"/><rect fill="#FFFFFF" height="74.873" style="stroke:#181818;stroke-width:1.0;" width="10" x="379" y="219.1152"/><rect fill="#FFFFFF" height="55.582" style="stroke:#181818;stroke-width:1.0;" width="10" x="379" y="325.2793"/><rect fill="#FFFFFF" height="92.873" style="stroke:#181818;stroke-width:1.0;" width="10" x="379" y="412.1523"/><rect fill="none" height="99.1641" style="stroke:#000000;stroke-width:1.5;" width="432.5" x="10" y="234.1152"/><line style="stroke:#181818;stroke-width:0.5;stroke-dasharray:5.0,5.0;" x1="38" x2="38" y1="123.2422" y2="523.0254"/><line style="stroke:#181818;stroke-width:0.5;stroke-dasharray:5.0,5.0;" x1="383.5" x2="383.5" y1="123.2422" y2="523.0254"/><text fill="#000000" font-family="sans-serif" font-size="14" lengthAdjust="spacing" textLength="30" x="20" y="119.7285">HRM</text><ellipse cx="38" cy="53.1211" fill="#E3E3E3" rx="8" ry="8" style="stroke:#181818;stroke-width:0.5;"/><path d="M38,61.1211 L38,88.1211 M25,69.1211 L51,69.1211 M38,88.1211 L25,103.1211 M38,88.1211 L51,103.1211 " fill="none" style="stroke:#181818;stroke-width:0.5;"/><text fill="#000000" font-family="sans-serif" font-size="14" lengthAdjust="spacing" textLength="30" x="20" y="537.1328">HRM</text><ellipse cx="38" cy="549.1465" fill="#E3E3E3" rx="8" ry="8" style="stroke:#181818;stroke-width:0.5;"/><path d="M38,557.1465 L38,584.1465 M25,565.1465 L51,565.1465 M38,584.1465 L25,599.1465 M38,584.1465 L51,599.1465 " fill="none" style="stroke:#181818;stroke-width:0.5;"/><rect fill="#E3E3E3" height="32.6211" rx="2.5" ry="2.5" style="stroke:#181818;stroke-width:0.5;" width="97" x="335.5" y="89.6211"/><text fill="#000000" font-family="sans-serif" font-size="14" lengthAdjust="spacing" textLength="83" x="342.5" y="111.7285">:AssignSkillUI</text><rect fill="#E3E3E3" height="32.6211" rx="2.5" ry="2.5" style="stroke:#181818;stroke-width:0.5;" width="97" x="335.5" y="522.0254"/><text fill="#000000" font-family="sans-serif" font-size="14" lengthAdjust="spacing" textLength="83" x="342.5" y="544.1328">:AssignSkillUI</text><rect fill="#FFFFFF" height="380.7832" style="stroke:#181818;stroke-width:1.0;" width="10" x="33" y="133.2422"/><rect fill="#FFFFFF" height="31.291" style="stroke:#181818;stroke-width:1.0;" width="10" x="379" y="156.5332"/><rect fill="#FFFFFF" height="74.873" style="stroke:#181818;stroke-width:1.0;" width="10" x="379" y="219.1152"/><rect fill="#FFFFFF" height="55.582" style="stroke:#181818;stroke-width:1.0;" width="10" x="379" y="325.2793"/><rect fill="#FFFFFF" height="92.873" style="stroke:#181818;stroke-width:1.0;" width="10" x="379" y="412.1523"/><polygon fill="#181818" points="367,152.5332,377,156.5332,367,160.5332,371,156.5332" style="stroke:#181818;stroke-width:1.0;"/><line style="stroke:#181818;stroke-width:1.0;" x1="43" x2="373" y1="156.5332" y2="156.5332"/><text fill="#000000" font-family="sans-serif" font-size="13" font-weight="bold" lengthAdjust="spacing" textLength="7" x="50" y="151.2705">1</text><text fill="#000000" font-family="sans-serif" font-size="13" lengthAdjust="spacing" textLength="291" x="61" y="151.2705">Asks to assign one or more skills to a collaborator</text><polygon fill="#181818" points="54,183.8242,44,187.8242,54,191.8242,50,187.8242" style="stroke:#181818;stroke-width:1.0;"/><line style="stroke:#181818;stroke-width:1.0;stroke-dasharray:2.0,2.0;" x1="48" x2="383" y1="187.8242" y2="187.8242"/><text fill="#000000" font-family="sans-serif" font-size="13" font-weight="bold" lengthAdjust="spacing" textLength="7" x="60" y="182.5615">2</text><text fill="#000000" font-family="sans-serif" font-size="13" lengthAdjust="spacing" textLength="301" x="71" y="182.5615">Shows a list of Collaborators and asks to select one</text><polygon fill="#181818" points="367,215.1152,377,219.1152,367,223.1152,371,219.1152" style="stroke:#181818;stroke-width:1.0;"/><line style="stroke:#181818;stroke-width:1.0;" x1="43" x2="373" y1="219.1152" y2="219.1152"/><text fill="#000000" font-family="sans-serif" font-size="13" font-weight="bold" lengthAdjust="spacing" textLength="7" x="50" y="213.8525">3</text><text fill="#000000" font-family="sans-serif" font-size="13" lengthAdjust="spacing" textLength="126" x="61" y="213.8525">Selects a collaborator</text><path d="M10,234.1152 L83,234.1152 L83,243.4063 L73,253.4063 L10,253.4063 L10,234.1152 " fill="#EEEEEE" style="stroke:#000000;stroke-width:1.5;"/><rect fill="none" height="99.1641" style="stroke:#000000;stroke-width:1.5;" width="432.5" x="10" y="234.1152"/><text fill="#000000" font-family="sans-serif" font-size="13" font-weight="bold" lengthAdjust="spacing" textLength="28" x="25" y="249.1436">loop</text><text fill="#000000" font-family="sans-serif" font-size="11" font-weight="bold" lengthAdjust="spacing" textLength="202" x="98" y="247.9854">[until no longer want to select skills]</text><polygon fill="#181818" points="54,289.9883,44,293.9883,54,297.9883,50,293.9883" style="stroke:#181818;stroke-width:1.0;"/><line style="stroke:#181818;stroke-width:1.0;stroke-dasharray:2.0,2.0;" x1="48" x2="383" y1="293.9883" y2="293.9883"/><text fill="#000000" font-family="sans-serif" font-size="13" font-weight="bold" lengthAdjust="spacing" textLength="7" x="60" y="280.0801">4</text><text fill="#000000" font-family="sans-serif" font-size="13" lengthAdjust="spacing" textLength="255" x="71" y="271.4346">Displays a list of available skills and asks to</text><text fill="#000000" font-family="sans-serif" font-size="13" lengthAdjust="spacing" textLength="64" x="71" y="288.7256">select one.</text><polygon fill="#181818" points="367,321.2793,377,325.2793,367,329.2793,371,325.2793" style="stroke:#181818;stroke-width:1.0;"/><line style="stroke:#181818;stroke-width:1.0;" x1="43" x2="373" y1="325.2793" y2="325.2793"/><text fill="#000000" font-family="sans-serif" font-size="13" font-weight="bold" lengthAdjust="spacing" textLength="7" x="50" y="320.0166">5</text><text fill="#000000" font-family="sans-serif" font-size="13" lengthAdjust="spacing" textLength="82" x="61" y="320.0166">Selects a skill</text><polygon fill="#181818" points="54,376.8613,44,380.8613,54,384.8613,50,380.8613" style="stroke:#181818;stroke-width:1.0;"/><line style="stroke:#181818;stroke-width:1.0;stroke-dasharray:2.0,2.0;" x1="48" x2="383" y1="380.8613" y2="380.8613"/><text fill="#000000" font-family="sans-serif" font-size="13" font-weight="bold" lengthAdjust="spacing" textLength="7" x="60" y="366.9531">6</text><text fill="#000000" font-family="sans-serif" font-size="13" lengthAdjust="spacing" textLength="269" x="71" y="358.3076">Shows all data (collaborator and his skills) and</text><text fill="#000000" font-family="sans-serif" font-size="13" lengthAdjust="spacing" textLength="124" x="71" y="375.5986">requests confirmation</text><polygon fill="#181818" points="367,408.1523,377,412.1523,367,416.1523,371,412.1523" style="stroke:#181818;stroke-width:1.0;"/><line style="stroke:#181818;stroke-width:1.0;" x1="43" x2="373" y1="412.1523" y2="412.1523"/><text fill="#000000" font-family="sans-serif" font-size="13" font-weight="bold" lengthAdjust="spacing" textLength="7" x="50" y="406.8896">7</text><text fill="#000000" font-family="sans-serif" font-size="13" lengthAdjust="spacing" textLength="130" x="61" y="406.8896">Confirms the operation</text><line style="stroke:#181818;stroke-width:1.0;stroke-dasharray:2.0,2.0;" x1="389" x2="431" y1="460.7344" y2="460.7344"/><line style="stroke:#181818;stroke-width:1.0;stroke-dasharray:2.0,2.0;" x1="431" x2="431" y1="460.7344" y2="473.7344"/><line style="stroke:#181818;stroke-width:1.0;stroke-dasharray:2.0,2.0;" x1="390" x2="431" y1="473.7344" y2="473.7344"/><polygon fill="#181818" points="400,469.7344,390,473.7344,400,477.7344,396,473.7344" style="stroke:#181818;stroke-width:1.0;"/><text fill="#000000" font-family="sans-serif" font-size="13" font-weight="bold" lengthAdjust="spacing" textLength="7" x="396" y="446.8262">8</text><text fill="#000000" font-family="sans-serif" font-size="13" lengthAdjust="spacing" textLength="130" x="407" y="438.1807">keepData(collaborator,</text><text fill="#000000" font-family="sans-serif" font-size="13" lengthAdjust="spacing" textLength="100" x="407" y="455.4717">List&lt;Skill&gt; skills)</text><polygon fill="#181818" points="54,501.0254,44,505.0254,54,509.0254,50,505.0254" style="stroke:#181818;stroke-width:1.0;"/><line style="stroke:#181818;stroke-width:1.0;stroke-dasharray:2.0,2.0;" x1="48" x2="383" y1="505.0254" y2="505.0254"/><text fill="#000000" font-family="sans-serif" font-size="13" font-weight="bold" lengthAdjust="spacing" textLength="7" x="60" y="499.7627">9</text><text fill="#000000" font-family="sans-serif" font-size="13" lengthAdjust="spacing" textLength="160" x="71" y="499.7627">Displays operation success</text><!--SRC=[fPDFRzim3CNl_XH4JYsm33ti50m5YcR01coN6RtbmigCBLWcFL5ka6y_MauShyY0hjF9-iFtVe-IjVNSOyGEEc5nJPIE8CM12frtUdGjrbIcOo28v19o7PO7jC5A3fvhs6DGAehaanrzAk_kFi4QogCcwg2aNmEn8zXwhCUocxBStXO53abuw9ufshTB4c7rzUUF5Q32bwuFSYGgp2Tvvtla1AlDWwglkMnz24_Vyi798jVx5qnqgIp0nda6w_ippGOUj5L8OkMZ6WWJc7SdaK17wMaJd8I0pnBHoBBOx74sXTCuAQ_DP3RSGDd8GKqdU4qWUtXSwDawLmOmWIW5Q-u8aYKhkkfqDKkPI_KrRYu88ZqCd7m05fjnJH4EOoSldbFWuZtvjbxxWCTbH7n1Rn1XRkGovOulEJ_-Hz0iNLn77jU8gpTUJGXGOKAuMVOkCpTUJn5kytp7SNp4QW1EUEzZXyaB_tEAnwdO-j7Oe-ifNcIkHNcLO9PfYVgjaVy1_c77t-qUFkVVu_wC_zPBd6501-T8zI_PVWC0]--></g></svg>