<?xml version="1.0" encoding="us-ascii" standalone="no"?><svg xmlns="http://www.w3.org/2000/svg" xmlns:xlink="http://www.w3.org/1999/xlink" contentStyleType="text/css" height="939px" preserveAspectRatio="none" style="width:1510px;height:939px;background:#FFFFFF;" version="1.1" viewBox="0 0 1510 939" width="1510px" zoomAndPan="magnify"><defs/><g><text fill="#000000" font-family="sans-serif" font-size="14" font-weight="bold" lengthAdjust="spacing" textLength="173" x="670.25" y="30.1074">SD_getToDoManagerList</text><rect fill="#FFFFFF" height="758.1504" style="stroke:#181818;stroke-width:1.0;" width="10" x="106.5" y="106.8633"/><rect fill="#FFFFFF" height="31.291" style="stroke:#181818;stroke-width:1.0;" width="10" x="291.5" y="130.1543"/><rect fill="#FFFFFF" height="31.291" style="stroke:#181818;stroke-width:1.0;" width="10" x="438.5" y="192.7363"/><rect fill="#FFFFFF" height="31.291" style="stroke:#181818;stroke-width:1.0;" width="10" x="565.5" y="255.3184"/><rect fill="#FFFFFF" height="31.291" style="stroke:#181818;stroke-width:1.0;" width="10" x="651.5" y="317.9004"/><rect fill="#FFFFFF" height="31.291" style="stroke:#181818;stroke-width:1.0;" width="10" x="737.5" y="449.7734"/><rect fill="#FFFFFF" height="31.291" style="stroke:#181818;stroke-width:1.0;" width="10" x="844.5" y="512.3555"/><rect fill="#FFFFFF" height="31.291" style="stroke:#181818;stroke-width:1.0;" width="10" x="963.5" y="574.9375"/><rect fill="#FFFFFF" height="211.4941" style="stroke:#181818;stroke-width:1.0;" width="10" x="1095.5" y="662.5195"/><rect fill="none" height="157.2031" style="stroke:#000000;stroke-width:1.5;" width="475.5" x="1029" y="677.5195"/><line style="stroke:#181818;stroke-width:0.5;stroke-dasharray:5.0,5.0;" x1="111" x2="111" y1="96.8633" y2="883.0137"/><line style="stroke:#181818;stroke-width:0.5;stroke-dasharray:5.0,5.0;" x1="296" x2="296" y1="96.8633" y2="883.0137"/><line style="stroke:#181818;stroke-width:0.5;stroke-dasharray:5.0,5.0;" x1="443" x2="443" y1="96.8633" y2="883.0137"/><line style="stroke:#181818;stroke-width:0.5;stroke-dasharray:5.0,5.0;" x1="570" x2="570" y1="96.8633" y2="883.0137"/><line style="stroke:#181818;stroke-width:0.5;stroke-dasharray:5.0,5.0;" x1="656" x2="656" y1="96.8633" y2="883.0137"/><line style="stroke:#181818;stroke-width:0.5;stroke-dasharray:5.0,5.0;" x1="742" x2="742" y1="96.8633" y2="883.0137"/><line style="stroke:#181818;stroke-width:0.5;stroke-dasharray:5.0,5.0;" x1="849" x2="849" y1="96.8633" y2="883.0137"/><line style="stroke:#181818;stroke-width:0.5;stroke-dasharray:5.0,5.0;" x1="968" x2="968" y1="96.8633" y2="883.0137"/><line style="stroke:#181818;stroke-width:0.5;stroke-dasharray:5.0,5.0;" x1="1100" x2="1100" y1="96.8633" y2="883.0137"/><line style="stroke:#181818;stroke-width:0.5;stroke-dasharray:5.0,5.0;" x1="1403.5" x2="1403.5" y1="753.6211" y2="883.0137"/><rect fill="#E3E3E3" height="51.2422" rx="2.5" ry="2.5" style="stroke:#181818;stroke-width:0.5;" width="213" x="5" y="44.6211"/><text fill="#000000" font-family="sans-serif" font-size="14" lengthAdjust="spacing" textLength="59" x="82" y="66.7285">controller</text><text fill="#000000" font-family="sans-serif" font-size="14" lengthAdjust="spacing" textLength="199" x="12" y="85.3496">:AddNewEntryAgendaController</text><rect fill="#E3E3E3" height="51.2422" rx="2.5" ry="2.5" style="stroke:#181818;stroke-width:0.5;" width="213" x="5" y="882.0137"/><text fill="#000000" font-family="sans-serif" font-size="14" lengthAdjust="spacing" textLength="59" x="82" y="904.1211">controller</text><text fill="#000000" font-family="sans-serif" font-size="14" lengthAdjust="spacing" textLength="199" x="12" y="922.7422">:AddNewEntryAgendaController</text><rect fill="#E3E3E3" height="32.6211" rx="2.5" ry="2.5" style="stroke:#181818;stroke-width:0.5;" width="137" x="228" y="63.2422"/><text fill="#000000" font-family="sans-serif" font-size="14" lengthAdjust="spacing" textLength="123" x="235" y="85.3496">:ApplicationSession</text><rect fill="#E3E3E3" height="32.6211" rx="2.5" ry="2.5" style="stroke:#181818;stroke-width:0.5;" width="137" x="228" y="882.0137"/><text fill="#000000" font-family="sans-serif" font-size="14" lengthAdjust="spacing" textLength="123" x="235" y="904.1211">:ApplicationSession</text><rect fill="#E3E3E3" height="51.2422" rx="2.5" ry="2.5" style="stroke:#181818;stroke-width:0.5;" width="137" x="375" y="44.6211"/><text fill="#000000" font-family="sans-serif" font-size="14" lengthAdjust="spacing" textLength="57" x="415" y="66.7285">singleton</text><text fill="#000000" font-family="sans-serif" font-size="14" lengthAdjust="spacing" textLength="123" x="382" y="85.3496">:ApplicationSession</text><rect fill="#E3E3E3" height="51.2422" rx="2.5" ry="2.5" style="stroke:#181818;stroke-width:0.5;" width="137" x="375" y="882.0137"/><text fill="#000000" font-family="sans-serif" font-size="14" lengthAdjust="spacing" textLength="57" x="415" y="904.1211">singleton</text><text fill="#000000" font-family="sans-serif" font-size="14" lengthAdjust="spacing" textLength="123" x="382" y="922.7422">:ApplicationSession</text><rect fill="#E3E3E3" height="51.2422" rx="2.5" ry="2.5" style="stroke:#181818;stroke-width:0.5;" width="97" x="522" y="44.6211"/><text fill="#000000" font-family="sans-serif" font-size="14" lengthAdjust="spacing" textLength="78" x="531.5" y="66.7285">userSession</text><text fill="#000000" font-family="sans-serif" font-size="14" lengthAdjust="spacing" textLength="83" x="529" y="85.3496">:UserSession</text><rect fill="#E3E3E3" height="51.2422" rx="2.5" ry="2.5" style="stroke:#181818;stroke-width:0.5;" width="97" x="522" y="882.0137"/><text fill="#000000" font-family="sans-serif" font-size="14" lengthAdjust="spacing" textLength="78" x="531.5" y="904.1211">userSession</text><text fill="#000000" font-family="sans-serif" font-size="14" lengthAdjust="spacing" textLength="83" x="529" y="922.7422">:UserSession</text><rect fill="#E3E3E3" height="51.2422" rx="2.5" ry="2.5" style="stroke:#181818;stroke-width:0.5;" width="55" x="629" y="44.6211"/><text fill="#000000" font-family="sans-serif" font-size="14" lengthAdjust="spacing" textLength="41" x="636" y="66.7285">userID</text><text fill="#000000" font-family="sans-serif" font-size="14" lengthAdjust="spacing" textLength="38" x="637.5" y="85.3496">:Email</text><rect fill="#E3E3E3" height="51.2422" rx="2.5" ry="2.5" style="stroke:#181818;stroke-width:0.5;" width="55" x="629" y="882.0137"/><text fill="#000000" font-family="sans-serif" font-size="14" lengthAdjust="spacing" textLength="41" x="636" y="904.1211">userID</text><text fill="#000000" font-family="sans-serif" font-size="14" lengthAdjust="spacing" textLength="38" x="637.5" y="922.7422">:Email</text><rect fill="#E3E3E3" height="32.6211" rx="2.5" ry="2.5" style="stroke:#181818;stroke-width:0.5;" width="97" x="694" y="63.2422"/><text fill="#000000" font-family="sans-serif" font-size="14" lengthAdjust="spacing" textLength="83" x="701" y="85.3496">:Repositories</text><rect fill="#E3E3E3" height="32.6211" rx="2.5" ry="2.5" style="stroke:#181818;stroke-width:0.5;" width="97" x="694" y="882.0137"/><text fill="#000000" font-family="sans-serif" font-size="14" lengthAdjust="spacing" textLength="83" x="701" y="904.1211">:Repositories</text><rect fill="#E3E3E3" height="51.2422" rx="2.5" ry="2.5" style="stroke:#181818;stroke-width:0.5;" width="97" x="801" y="44.6211"/><text fill="#000000" font-family="sans-serif" font-size="14" lengthAdjust="spacing" textLength="74" x="812.5" y="66.7285">repositories</text><text fill="#000000" font-family="sans-serif" font-size="14" lengthAdjust="spacing" textLength="83" x="808" y="85.3496">:Repositories</text><rect fill="#E3E3E3" height="51.2422" rx="2.5" ry="2.5" style="stroke:#181818;stroke-width:0.5;" width="97" x="801" y="882.0137"/><text fill="#000000" font-family="sans-serif" font-size="14" lengthAdjust="spacing" textLength="74" x="812.5" y="904.1211">repositories</text><text fill="#000000" font-family="sans-serif" font-size="14" lengthAdjust="spacing" textLength="83" x="808" y="922.7422">:Repositories</text><rect fill="#E3E3E3" height="51.2422" rx="2.5" ry="2.5" style="stroke:#181818;stroke-width:0.5;" width="121" x="908" y="44.6211"/><text fill="#000000" font-family="sans-serif" font-size="14" lengthAdjust="spacing" textLength="98" x="919.5" y="66.7285">toDoRepository</text><text fill="#000000" font-family="sans-serif" font-size="14" lengthAdjust="spacing" textLength="107" x="915" y="85.3496">:ToDoRepository</text><rect fill="#E3E3E3" height="51.2422" rx="2.5" ry="2.5" style="stroke:#181818;stroke-width:0.5;" width="121" x="908" y="882.0137"/><text fill="#000000" font-family="sans-serif" font-size="14" lengthAdjust="spacing" textLength="98" x="919.5" y="904.1211">toDoRepository</text><text fill="#000000" font-family="sans-serif" font-size="14" lengthAdjust="spacing" textLength="107" x="915" y="922.7422">:ToDoRepository</text><rect fill="#E3E3E3" height="32.6211" rx="2.5" ry="2.5" style="stroke:#181818;stroke-width:0.5;" width="123" x="1039" y="63.2422"/><text fill="#000000" font-family="sans-serif" font-size="14" lengthAdjust="spacing" textLength="109" x="1046" y="85.3496">:ToDoListMapper</text><rect fill="#E3E3E3" height="32.6211" rx="2.5" ry="2.5" style="stroke:#181818;stroke-width:0.5;" width="123" x="1039" y="882.0137"/><text fill="#000000" font-family="sans-serif" font-size="14" lengthAdjust="spacing" textLength="109" x="1046" y="904.1211">:ToDoListMapper</text><rect fill="#E3E3E3" height="32.6211" rx="2.5" ry="2.5" style="stroke:#181818;stroke-width:0.5;" width="182" x="1312.5" y="882.0137"/><text fill="#000000" font-family="sans-serif" font-size="14" lengthAdjust="spacing" textLength="168" x="1319.5" y="904.1211">:ToDoTaskWithStatusDTO</text><rect fill="#FFFFFF" height="758.1504" style="stroke:#181818;stroke-width:1.0;" width="10" x="106.5" y="106.8633"/><rect fill="#FFFFFF" height="31.291" style="stroke:#181818;stroke-width:1.0;" width="10" x="291.5" y="130.1543"/><rect fill="#FFFFFF" height="31.291" style="stroke:#181818;stroke-width:1.0;" width="10" x="438.5" y="192.7363"/><rect fill="#FFFFFF" height="31.291" style="stroke:#181818;stroke-width:1.0;" width="10" x="565.5" y="255.3184"/><rect fill="#FFFFFF" height="31.291" style="stroke:#181818;stroke-width:1.0;" width="10" x="651.5" y="317.9004"/><rect fill="#FFFFFF" height="31.291" style="stroke:#181818;stroke-width:1.0;" width="10" x="737.5" y="449.7734"/><rect fill="#FFFFFF" height="31.291" style="stroke:#181818;stroke-width:1.0;" width="10" x="844.5" y="512.3555"/><rect fill="#FFFFFF" height="31.291" style="stroke:#181818;stroke-width:1.0;" width="10" x="963.5" y="574.9375"/><rect fill="#FFFFFF" height="211.4941" style="stroke:#181818;stroke-width:1.0;" width="10" x="1095.5" y="662.5195"/><polygon fill="#181818" points="279.5,126.1543,289.5,130.1543,279.5,134.1543,283.5,130.1543" style="stroke:#181818;stroke-width:1.0;"/><line style="stroke:#181818;stroke-width:1.0;" x1="116.5" x2="285.5" y1="130.1543" y2="130.1543"/><text fill="#000000" font-family="sans-serif" font-size="13" font-weight="bold" lengthAdjust="spacing" textLength="7" x="123.5" y="124.8916">1</text><text fill="#000000" font-family="sans-serif" font-size="13" lengthAdjust="spacing" textLength="75" x="134.5" y="124.8916">getInstance()</text><polygon fill="#181818" points="127.5,157.4453,117.5,161.4453,127.5,165.4453,123.5,161.4453" style="stroke:#181818;stroke-width:1.0;"/><line style="stroke:#181818;stroke-width:1.0;stroke-dasharray:2.0,2.0;" x1="121.5" x2="295.5" y1="161.4453" y2="161.4453"/><text fill="#000000" font-family="sans-serif" font-size="13" font-weight="bold" lengthAdjust="spacing" textLength="7" x="133.5" y="156.1826">2</text><text fill="#000000" font-family="sans-serif" font-size="13" lengthAdjust="spacing" textLength="52" x="144.5" y="156.1826">singleton</text><polygon fill="#181818" points="426.5,188.7363,436.5,192.7363,426.5,196.7363,430.5,192.7363" style="stroke:#181818;stroke-width:1.0;"/><line style="stroke:#181818;stroke-width:1.0;" x1="116.5" x2="432.5" y1="192.7363" y2="192.7363"/><text fill="#000000" font-family="sans-serif" font-size="13" font-weight="bold" lengthAdjust="spacing" textLength="7" x="123.5" y="187.4736">3</text><text fill="#000000" font-family="sans-serif" font-size="13" lengthAdjust="spacing" textLength="100" x="134.5" y="187.4736">getUserSession()</text><polygon fill="#181818" points="127.5,220.0273,117.5,224.0273,127.5,228.0273,123.5,224.0273" style="stroke:#181818;stroke-width:1.0;"/><line style="stroke:#181818;stroke-width:1.0;stroke-dasharray:2.0,2.0;" x1="121.5" x2="442.5" y1="224.0273" y2="224.0273"/><text fill="#000000" font-family="sans-serif" font-size="13" font-weight="bold" lengthAdjust="spacing" textLength="7" x="133.5" y="218.7646">4</text><text fill="#000000" font-family="sans-serif" font-size="13" lengthAdjust="spacing" textLength="72" x="144.5" y="218.7646">userSession</text><polygon fill="#181818" points="553.5,251.3184,563.5,255.3184,553.5,259.3184,557.5,255.3184" style="stroke:#181818;stroke-width:1.0;"/><line style="stroke:#181818;stroke-width:1.0;" x1="116.5" x2="559.5" y1="255.3184" y2="255.3184"/><text fill="#000000" font-family="sans-serif" font-size="13" font-weight="bold" lengthAdjust="spacing" textLength="7" x="123.5" y="250.0557">5</text><text fill="#000000" font-family="sans-serif" font-size="13" lengthAdjust="spacing" textLength="63" x="134.5" y="250.0557">getUserId()</text><polygon fill="#181818" points="127.5,282.6094,117.5,286.6094,127.5,290.6094,123.5,286.6094" style="stroke:#181818;stroke-width:1.0;"/><line style="stroke:#181818;stroke-width:1.0;stroke-dasharray:2.0,2.0;" x1="121.5" x2="569.5" y1="286.6094" y2="286.6094"/><text fill="#000000" font-family="sans-serif" font-size="13" font-weight="bold" lengthAdjust="spacing" textLength="7" x="133.5" y="281.3467">6</text><text fill="#000000" font-family="sans-serif" font-size="13" lengthAdjust="spacing" textLength="35" x="144.5" y="281.3467">userId</text><polygon fill="#181818" points="639.5,313.9004,649.5,317.9004,639.5,321.9004,643.5,317.9004" style="stroke:#181818;stroke-width:1.0;"/><line style="stroke:#181818;stroke-width:1.0;" x1="116.5" x2="645.5" y1="317.9004" y2="317.9004"/><text fill="#000000" font-family="sans-serif" font-size="13" font-weight="bold" lengthAdjust="spacing" textLength="7" x="123.5" y="312.6377">7</text><text fill="#000000" font-family="sans-serif" font-size="13" lengthAdjust="spacing" textLength="59" x="134.5" y="312.6377">getEmail()</text><polygon fill="#181818" points="127.5,345.1914,117.5,349.1914,127.5,353.1914,123.5,349.1914" style="stroke:#181818;stroke-width:1.0;"/><line style="stroke:#181818;stroke-width:1.0;stroke-dasharray:2.0,2.0;" x1="121.5" x2="655.5" y1="349.1914" y2="349.1914"/><text fill="#000000" font-family="sans-serif" font-size="13" font-weight="bold" lengthAdjust="spacing" textLength="7" x="133.5" y="343.9287">8</text><text fill="#000000" font-family="sans-serif" font-size="13" lengthAdjust="spacing" textLength="31" x="144.5" y="343.9287">email</text><line style="stroke:#181818;stroke-width:1.0;" x1="116.5" x2="158.5" y1="380.4824" y2="380.4824"/><line style="stroke:#181818;stroke-width:1.0;" x1="158.5" x2="158.5" y1="380.4824" y2="393.4824"/><line style="stroke:#181818;stroke-width:1.0;" x1="117.5" x2="158.5" y1="393.4824" y2="393.4824"/><polygon fill="#181818" points="127.5,389.4824,117.5,393.4824,127.5,397.4824,123.5,393.4824" style="stroke:#181818;stroke-width:1.0;"/><text fill="#000000" font-family="sans-serif" font-size="13" font-weight="bold" lengthAdjust="spacing" textLength="7" x="123.5" y="375.2197">9</text><text fill="#000000" font-family="sans-serif" font-size="13" lengthAdjust="spacing" textLength="83" x="134.5" y="375.2197">managerEmail</text><polygon fill="#181818" points="725.5,445.7734,735.5,449.7734,725.5,453.7734,729.5,449.7734" style="stroke:#181818;stroke-width:1.0;"/><line style="stroke:#181818;stroke-width:1.0;" x1="116.5" x2="731.5" y1="449.7734" y2="449.7734"/><text fill="#000000" font-family="sans-serif" font-size="13" font-weight="bold" lengthAdjust="spacing" textLength="14" x="123.5" y="444.5107">10</text><text fill="#000000" font-family="sans-serif" font-size="13" lengthAdjust="spacing" textLength="75" x="141.5" y="444.5107">getInstance()</text><polygon fill="#181818" points="127.5,477.0645,117.5,481.0645,127.5,485.0645,123.5,481.0645" style="stroke:#181818;stroke-width:1.0;"/><line style="stroke:#181818;stroke-width:1.0;stroke-dasharray:2.0,2.0;" x1="121.5" x2="741.5" y1="481.0645" y2="481.0645"/><text fill="#000000" font-family="sans-serif" font-size="13" font-weight="bold" lengthAdjust="spacing" textLength="14" x="133.5" y="475.8018">11</text><text fill="#000000" font-family="sans-serif" font-size="13" lengthAdjust="spacing" textLength="67" x="151.5" y="475.8018">repositories</text><polygon fill="#181818" points="832.5,508.3555,842.5,512.3555,832.5,516.3555,836.5,512.3555" style="stroke:#181818;stroke-width:1.0;"/><line style="stroke:#181818;stroke-width:1.0;" x1="116.5" x2="838.5" y1="512.3555" y2="512.3555"/><text fill="#000000" font-family="sans-serif" font-size="13" font-weight="bold" lengthAdjust="spacing" textLength="14" x="123.5" y="507.0928">12</text><text fill="#000000" font-family="sans-serif" font-size="13" lengthAdjust="spacing" textLength="118" x="141.5" y="507.0928">getToDoRepository()</text><polygon fill="#181818" points="127.5,539.6465,117.5,543.6465,127.5,547.6465,123.5,543.6465" style="stroke:#181818;stroke-width:1.0;"/><line style="stroke:#181818;stroke-width:1.0;stroke-dasharray:2.0,2.0;" x1="121.5" x2="848.5" y1="543.6465" y2="543.6465"/><text fill="#000000" font-family="sans-serif" font-size="13" font-weight="bold" lengthAdjust="spacing" textLength="14" x="133.5" y="538.3838">13</text><text fill="#000000" font-family="sans-serif" font-size="13" lengthAdjust="spacing" textLength="89" x="151.5" y="538.3838">toDoRepository</text><polygon fill="#181818" points="951.5,570.9375,961.5,574.9375,951.5,578.9375,955.5,574.9375" style="stroke:#181818;stroke-width:1.0;"/><line style="stroke:#181818;stroke-width:1.0;" x1="116.5" x2="957.5" y1="574.9375" y2="574.9375"/><text fill="#000000" font-family="sans-serif" font-size="13" font-weight="bold" lengthAdjust="spacing" textLength="14" x="123.5" y="569.6748">14</text><text fill="#000000" font-family="sans-serif" font-size="13" lengthAdjust="spacing" textLength="210" x="141.5" y="569.6748">getToDoManagerList(managerEmail)</text><polygon fill="#181818" points="127.5,602.2285,117.5,606.2285,127.5,610.2285,123.5,606.2285" style="stroke:#181818;stroke-width:1.0;"/><line style="stroke:#181818;stroke-width:1.0;stroke-dasharray:2.0,2.0;" x1="121.5" x2="967.5" y1="606.2285" y2="606.2285"/><text fill="#000000" font-family="sans-serif" font-size="13" font-weight="bold" lengthAdjust="spacing" textLength="14" x="133.5" y="600.9658">15</text><text fill="#000000" font-family="sans-serif" font-size="13" lengthAdjust="spacing" textLength="129" x="151.5" y="600.9658">managerToDoTaskList</text><polygon fill="#181818" points="1083.5,658.5195,1093.5,662.5195,1083.5,666.5195,1087.5,662.5195" style="stroke:#181818;stroke-width:1.0;"/><line style="stroke:#181818;stroke-width:1.0;" x1="116.5" x2="1089.5" y1="662.5195" y2="662.5195"/><text fill="#000000" font-family="sans-serif" font-size="13" font-weight="bold" lengthAdjust="spacing" textLength="14" x="123.5" y="657.2568">16</text><text fill="#000000" font-family="sans-serif" font-size="13" lengthAdjust="spacing" textLength="260" x="141.5" y="657.2568">toDTOWithStatusList(managerToDoTaskList)</text><path d="M1029,677.5195 L1102,677.5195 L1102,686.8105 L1092,696.8105 L1029,696.8105 L1029,677.5195 " fill="#EEEEEE" style="stroke:#000000;stroke-width:1.5;"/><rect fill="none" height="157.2031" style="stroke:#000000;stroke-width:1.5;" width="475.5" x="1029" y="677.5195"/><text fill="#000000" font-family="sans-serif" font-size="13" font-weight="bold" lengthAdjust="spacing" textLength="28" x="1044" y="692.5479">loop</text><text fill="#000000" font-family="sans-serif" font-size="11" font-weight="bold" lengthAdjust="spacing" textLength="249" x="1117" y="691.3896">[for each toDoTask in managerToDoTaskList]</text><polygon fill="#181818" points="1300.5,741.1016,1310.5,745.1016,1300.5,749.1016,1304.5,745.1016" style="stroke:#181818;stroke-width:1.0;"/><line style="stroke:#181818;stroke-width:1.0;" x1="1105.5" x2="1306.5" y1="745.1016" y2="745.1016"/><text fill="#000000" font-family="sans-serif" font-size="13" font-weight="bold" lengthAdjust="spacing" textLength="14" x="1112.5" y="739.8389">17</text><text fill="#000000" font-family="sans-serif" font-size="13" lengthAdjust="spacing" textLength="165" x="1130.5" y="739.8389">toDTOWithStatus(toDoTask)</text><rect fill="#E3E3E3" height="32.6211" rx="2.5" ry="2.5" style="stroke:#181818;stroke-width:0.5;" width="182" x="1312.5" y="721.8105"/><text fill="#000000" font-family="sans-serif" font-size="14" lengthAdjust="spacing" textLength="168" x="1319.5" y="743.918">:ToDoTaskWithStatusDTO</text><line style="stroke:#181818;stroke-width:1.0;stroke-dasharray:2.0,2.0;" x1="1105.5" x2="1147.5" y1="813.7227" y2="813.7227"/><line style="stroke:#181818;stroke-width:1.0;stroke-dasharray:2.0,2.0;" x1="1147.5" x2="1147.5" y1="813.7227" y2="826.7227"/><line style="stroke:#181818;stroke-width:1.0;stroke-dasharray:2.0,2.0;" x1="1106.5" x2="1147.5" y1="826.7227" y2="826.7227"/><polygon fill="#181818" points="1116.5,822.7227,1106.5,826.7227,1116.5,830.7227,1112.5,826.7227" style="stroke:#181818;stroke-width:1.0;"/><text fill="#000000" font-family="sans-serif" font-size="13" font-weight="bold" lengthAdjust="spacing" textLength="14" x="1112.5" y="808.46">18</text><text fill="#000000" font-family="sans-serif" font-size="13" lengthAdjust="spacing" textLength="175" x="1130.5" y="808.46">add(toDoTaskWithStatusDTO)</text><polygon fill="#181818" points="122.5,861.0137,112.5,865.0137,122.5,869.0137,118.5,865.0137" style="stroke:#181818;stroke-width:1.0;"/><line style="stroke:#181818;stroke-width:1.0;stroke-dasharray:2.0,2.0;" x1="116.5" x2="1094.5" y1="865.0137" y2="865.0137"/><text fill="#000000" font-family="sans-serif" font-size="13" font-weight="bold" lengthAdjust="spacing" textLength="14" x="128.5" y="859.751">19</text><text fill="#000000" font-family="sans-serif" font-size="13" lengthAdjust="spacing" textLength="98" x="146.5" y="859.751">toDoTaskDTOlist</text><!--SRC=[XPR1Rk8m48RlUGgh9rg95-2m4YeSaDg285KlAwsyYGiMYHtPPYia7dx73dR6YHDo8TWp_tpZcKoYprmqLD6Qr5B8ugHapOXH5vRfiDFGuaoFx62k5IEA5OQAOuKDz8cMyeUB8_ccbMPPPhW1qyFgpv6PNAxaEnKWeDwuDbb6BqQAI_sNgGmkK32yu0qLXZmLKXWbgugftsAnBCiFzhE6bUloo4H9NyFk4w6QlERxjzXziMoQYXVKS2aEJ6luSPRBtIusrDnc01WspAZFmLl5pXVDrDqIt3-xVyuF_H-wRLRWiQufhvojk-kbi6UDrDn8nPbsHllrRXlRA6G2UacFZT1GfeB5dWPg4Solu9j72yuxNkhHsKrRnNVQDFSon4i9-vpgynStfuEXvg9N-JQu3NPiGn2uQ67uFsfOMsEtPE_8_9Uj2raGw2kVuUpPxUChkDl23tRjPLNceEPK5oJqmy2uPDDY22kqIyk76k41OjTdOwoTD896VVW0UoA0vqUq7Vwcd2B7dPu4nvezxaqvXJofx8dTmzEokjifrFP1IqAsCWYFETi9kX4nptMNgTkHjqwgtMwtJi0xsiTsjBL3T3SE8a7dXnB0uo5By3k5L70VrZ74Om18qYXXpWoG_0v6Y-VF6DnGqrF6K2I0elVB31zyYhettu91Jti-AAMVMEujbgmaocCi2iwacvhjqUJRRXZYL73WiOpG1AwaRCYtL0HeJkx8hJFX8fc8JG2NhWTsHnrCwfUN8VFCnthEqiyQFhIfcAdpeMKPz2CI20OV1yHc_KWKTQ6L0UVAVP7SSL7vslTEzXy0]--></g></svg>