<?xml version="1.0" encoding="us-ascii" standalone="no"?><svg xmlns="http://www.w3.org/2000/svg" xmlns:xlink="http://www.w3.org/1999/xlink" contentStyleType="text/css" height="1500.1px" preserveAspectRatio="none" style="width:1225px;height:1500px;background:#FFFFFF;" version="1.1" viewBox="0 0 1225 1500" width="1225.7px" zoomAndPan="magnify"><defs/><g><text fill="#000000" font-family="sans-serif" font-size="9.8" font-weight="bold" lengthAdjust="spacing" textLength="108.5" x="553.7" y="17.5752">US022 - Class Diagram</text><!--cluster GUI--><g id="cluster_GUI"><path d="M447.65,31.9443 L465.85,31.9443 A2.625,2.625 0 0 1 467.6,33.6943 L472.5,49.1791 L946.75,49.1791 A1.75,1.75 0 0 1 948.5,50.9291 L948.5,283.5943 A1.75,1.75 0 0 1 946.75,285.3443 L447.65,285.3443 A1.75,1.75 0 0 1 445.9,283.5943 L445.9,33.6943 A1.75,1.75 0 0 1 447.65,31.9443 " fill="#DDDDDD" style="stroke:#000000;stroke-width:1.0499999999999998;"/><line style="stroke:#000000;stroke-width:1.0499999999999998;" x1="445.9" x2="472.5" y1="49.1791" y2="49.1791"/><text fill="#000000" font-family="sans-serif" font-size="9.8" font-weight="bold" lengthAdjust="spacing" textLength="17.5" x="448.7" y="43.9195">GUI</text></g><!--cluster Controller--><g id="cluster_Controller"><path d="M397.95,334.6943 L448.35,334.6943 A2.625,2.625 0 0 1 450.1,336.4443 L455,351.9291 L659.05,351.9291 A1.75,1.75 0 0 1 660.8,353.6791 L660.8,494.6443 A1.75,1.75 0 0 1 659.05,496.3943 L397.95,496.3943 A1.75,1.75 0 0 1 396.2,494.6443 L396.2,336.4443 A1.75,1.75 0 0 1 397.95,334.6943 " fill="#DDDDDD" style="stroke:#000000;stroke-width:1.0499999999999998;"/><line style="stroke:#000000;stroke-width:1.0499999999999998;" x1="396.2" x2="455" y1="351.9291" y2="351.9291"/><text fill="#000000" font-family="sans-serif" font-size="9.8" font-weight="bold" lengthAdjust="spacing" textLength="49.7" x="399" y="346.6695">Controller</text></g><!--cluster Repository--><g id="cluster_Repository"><path d="M5.95,686.4443 L59.85,686.4443 A2.625,2.625 0 0 1 61.6,688.1943 L66.5,703.6791 L739.55,703.6791 A1.75,1.75 0 0 1 741.3,705.4291 L741.3,1089.9943 A1.75,1.75 0 0 1 739.55,1091.7443 L5.95,1091.7443 A1.75,1.75 0 0 1 4.2,1089.9943 L4.2,688.1943 A1.75,1.75 0 0 1 5.95,686.4443 " fill="#DDDDDD" style="stroke:#000000;stroke-width:1.0499999999999998;"/><line style="stroke:#000000;stroke-width:1.0499999999999998;" x1="4.2" x2="66.5" y1="703.6791" y2="703.6791"/><text fill="#000000" font-family="sans-serif" font-size="9.8" font-weight="bold" lengthAdjust="spacing" textLength="53.2" x="7" y="698.4195">Repository</text></g><!--cluster Domain--><g id="cluster_Domain"><path d="M283.15,1127.4443 L320.25,1127.4443 A2.625,2.625 0 0 1 322,1129.1943 L326.9,1144.6791 L759.15,1144.6791 A1.75,1.75 0 0 1 760.9,1146.4291 L760.9,1493.8943 A1.75,1.75 0 0 1 759.15,1495.6443 L283.15,1495.6443 A1.75,1.75 0 0 1 281.4,1493.8943 L281.4,1129.1943 A1.75,1.75 0 0 1 283.15,1127.4443 " fill="#DDDDDD" style="stroke:#000000;stroke-width:1.0499999999999998;"/><line style="stroke:#000000;stroke-width:1.0499999999999998;" x1="281.4" x2="326.9" y1="1144.6791" y2="1144.6791"/><text fill="#000000" font-family="sans-serif" font-size="9.8" font-weight="bold" lengthAdjust="spacing" textLength="36.4" x="284.2" y="1139.4195">Domain</text></g><!--cluster Mapper--><g id="cluster_Mapper"><path d="M705.95,354.2943 L744.45,354.2943 A2.625,2.625 0 0 1 746.2,356.0443 L751.1,371.5291 L926.45,371.5291 A1.75,1.75 0 0 1 928.2,373.2791 L928.2,475.0443 A1.75,1.75 0 0 1 926.45,476.7943 L705.95,476.7943 A1.75,1.75 0 0 1 704.2,475.0443 L704.2,356.0443 A1.75,1.75 0 0 1 705.95,354.2943 " fill="#DDDDDD" style="stroke:#000000;stroke-width:1.0499999999999998;"/><line style="stroke:#000000;stroke-width:1.0499999999999998;" x1="704.2" x2="751.1" y1="371.5291" y2="371.5291"/><text fill="#000000" font-family="sans-serif" font-size="9.8" font-weight="bold" lengthAdjust="spacing" textLength="37.8" x="707" y="366.2695">Mapper</text></g><!--cluster DTO--><g id="cluster_DTO"><path d="M946.75,308.4443 L967.75,308.4443 A2.625,2.625 0 0 1 969.5,310.1943 L974.4,325.6791 L1219.05,325.6791 A1.75,1.75 0 0 1 1220.8,327.4291 L1220.8,661.5943 A1.75,1.75 0 0 1 1219.05,663.3443 L946.75,663.3443 A1.75,1.75 0 0 1 945,661.5943 L945,310.1943 A1.75,1.75 0 0 1 946.75,308.4443 " fill="#DDDDDD" style="stroke:#000000;stroke-width:1.0499999999999998;"/><line style="stroke:#000000;stroke-width:1.0499999999999998;" x1="945" x2="974.4" y1="325.6791" y2="325.6791"/><text fill="#000000" font-family="sans-serif" font-size="9.8" font-weight="bold" lengthAdjust="spacing" textLength="20.3" x="947.8" y="320.4195">DTO</text></g><!--class AddNewEntryAgendaUI--><g id="elem_AddNewEntryAgendaUI"><rect codeLine="12" fill="#F1F1F1" height="124.8434" id="AddNewEntryAgendaUI" rx="1.75" ry="1.75" style="stroke:#181818;stroke-width:0.3499999999999999;" width="142.1" x="457.45" y="103.6943"/><ellipse cx="476.14" cy="114.8943" fill="#ADD1B2" rx="7.7" ry="7.7" style="stroke:#181818;stroke-width:0.6999999999999998;"/><path d="M478.0759,112.0068 Q478.1853,111.8537 478.3166,111.7771 Q478.4478,111.7006 478.6009,111.7006 Q478.8634,111.7006 479.0275,111.8865 Q479.1916,112.0615 479.1916,112.4881 L479.1916,113.5053 Q479.1916,113.9318 479.0275,114.1178 Q478.8634,114.3037 478.6009,114.3037 Q478.3603,114.3037 478.2181,114.1615 Q478.0759,114.0303 477.9994,113.6693 Q477.9666,113.4178 477.8353,113.2865 Q477.6056,113.024 477.1791,112.8709 Q476.7525,112.7178 476.315,112.7178 Q475.7791,112.7178 475.3306,112.9475 Q474.8931,113.1771 474.5431,113.7021 Q474.2041,114.2271 474.2041,114.949 L474.2041,115.7146 Q474.2041,116.5787 474.8275,117.1584 Q475.4509,117.7271 476.5666,117.7271 Q477.2228,117.7271 477.6822,117.5521 Q477.9556,117.4428 478.2509,117.1365 Q478.4369,116.9506 478.5353,116.8959 Q478.6447,116.8412 478.7869,116.8412 Q479.0166,116.8412 479.1916,117.0271 Q479.3775,117.2021 479.3775,117.4428 Q479.3775,117.6834 479.1369,117.9678 Q478.7869,118.3725 478.2291,118.6021 Q477.4744,118.9193 476.5666,118.9193 Q475.5056,118.9193 474.6634,118.4818 Q473.9744,118.1318 473.4931,117.3881 Q473.0119,116.6334 473.0119,115.7365 L473.0119,114.9271 Q473.0119,113.9975 473.4384,113.199 Q473.8759,112.3896 474.6416,111.9631 Q475.4072,111.5256 476.2712,111.5256 Q476.7853,111.5256 477.2337,111.6459 Q477.6931,111.7553 478.0759,112.0068 Z " fill="#000000"/><text fill="#000000" font-family="sans-serif" font-size="9.8" lengthAdjust="spacing" textLength="101.5" x="487.76" y="118.9521">AddNewEntryAgendaUI</text><line style="stroke:#181818;stroke-width:0.3499999999999999;" x1="458.15" x2="598.85" y1="126.0943" y2="126.0943"/><text fill="#000000" font-family="sans-serif" font-size="9.8" lengthAdjust="spacing" textLength="132.3" x="461.65" y="139.4695">-ToDoTaskDTO selectedTask</text><line style="stroke:#181818;stroke-width:0.3499999999999999;" x1="458.15" x2="598.85" y1="144.7291" y2="144.7291"/><text fill="#000000" font-family="sans-serif" font-size="9.8" lengthAdjust="spacing" textLength="114.1" x="461.65" y="158.1043">+AddNewEntryAgendaUI()</text><text fill="#000000" font-family="sans-serif" font-size="9.8" lengthAdjust="spacing" textLength="133.7" x="461.65" y="171.1391">+initialize(url, resourceBundle)</text><text fill="#000000" font-family="sans-serif" font-size="9.8" lengthAdjust="spacing" textLength="93.8" x="461.65" y="184.1738">-fillTableInformation()</text><text fill="#000000" font-family="sans-serif" font-size="9.8" lengthAdjust="spacing" textLength="104.3" x="461.65" y="197.2086">-handleAddToAgenda()</text><text fill="#000000" font-family="sans-serif" font-size="9.8" lengthAdjust="spacing" textLength="105" x="461.65" y="210.2434">-validateTaskSelected()</text><text fill="#000000" font-family="sans-serif" font-size="9.8" lengthAdjust="spacing" textLength="86.8" x="461.65" y="223.2781">-updateTableView()</text></g><!--class InsertDatePopupUI--><g id="elem_InsertDatePopupUI"><rect codeLine="23" fill="#F1F1F1" height="216.0867" id="InsertDatePopupUI" rx="1.75" ry="1.75" style="stroke:#181818;stroke-width:0.3499999999999999;" width="312.9" x="624.05" y="57.8443"/><ellipse cx="736.225" cy="69.0443" fill="#ADD1B2" rx="7.7" ry="7.7" style="stroke:#181818;stroke-width:0.6999999999999998;"/><path d="M738.1609,66.1568 Q738.2703,66.0037 738.4016,65.9271 Q738.5328,65.8506 738.6859,65.8506 Q738.9484,65.8506 739.1125,66.0365 Q739.2766,66.2115 739.2766,66.6381 L739.2766,67.6553 Q739.2766,68.0818 739.1125,68.2678 Q738.9484,68.4537 738.6859,68.4537 Q738.4453,68.4537 738.3031,68.3115 Q738.1609,68.1803 738.0844,67.8193 Q738.0516,67.5678 737.9203,67.4365 Q737.6906,67.174 737.2641,67.0209 Q736.8375,66.8678 736.4,66.8678 Q735.8641,66.8678 735.4156,67.0975 Q734.9781,67.3271 734.6281,67.8521 Q734.2891,68.3771 734.2891,69.099 L734.2891,69.8646 Q734.2891,70.7287 734.9125,71.3084 Q735.5359,71.8771 736.6516,71.8771 Q737.3078,71.8771 737.7672,71.7021 Q738.0406,71.5928 738.3359,71.2865 Q738.5219,71.1006 738.6203,71.0459 Q738.7297,70.9912 738.8719,70.9912 Q739.1016,70.9912 739.2766,71.1771 Q739.4625,71.3521 739.4625,71.5928 Q739.4625,71.8334 739.2219,72.1178 Q738.8719,72.5225 738.3141,72.7521 Q737.5594,73.0693 736.6516,73.0693 Q735.5906,73.0693 734.7484,72.6318 Q734.0594,72.2818 733.5781,71.5381 Q733.0969,70.7834 733.0969,69.8865 L733.0969,69.0771 Q733.0969,68.1475 733.5234,67.349 Q733.9609,66.5396 734.7266,66.1131 Q735.4922,65.6756 736.3562,65.6756 Q736.8703,65.6756 737.3187,65.7959 Q737.7781,65.9053 738.1609,66.1568 Z " fill="#000000"/><text fill="#000000" font-family="sans-serif" font-size="9.8" lengthAdjust="spacing" textLength="82.6" x="750.575" y="73.1021">InsertDatePopupUI</text><line style="stroke:#181818;stroke-width:0.3499999999999999;" x1="624.75" x2="936.25" y1="80.2443" y2="80.2443"/><text fill="#000000" font-family="sans-serif" font-size="9.8" lengthAdjust="spacing" textLength="90.3" x="628.25" y="93.6195">-String selectedDate</text><text fill="#000000" font-family="sans-serif" font-size="9.8" lengthAdjust="spacing" textLength="97.3" x="628.25" y="106.6543">-int workStartingHours</text><text fill="#000000" font-family="sans-serif" font-size="9.8" lengthAdjust="spacing" textLength="105.7" x="628.25" y="119.6891">-int workStartingMinutes</text><line style="stroke:#181818;stroke-width:0.3499999999999999;" x1="624.75" x2="936.25" y1="124.9486" y2="124.9486"/><text fill="#000000" font-family="sans-serif" font-size="9.8" lengthAdjust="spacing" textLength="79.8" x="628.25" y="138.3238">-btnConfirmData()</text><text fill="#000000" font-family="sans-serif" font-size="9.8" lengthAdjust="spacing" textLength="82.6" x="628.25" y="151.3586">-btnCancelAction()</text><text fill="#000000" font-family="sans-serif" font-size="9.8" lengthAdjust="spacing" textLength="42" x="628.25" y="164.3934">-closeUI()</text><text fill="#000000" font-family="sans-serif" font-size="9.8" lengthAdjust="spacing" textLength="66.5" x="628.25" y="177.4281">-validateTime()</text><text fill="#000000" font-family="sans-serif" font-size="9.8" lengthAdjust="spacing" textLength="108.5" x="628.25" y="190.4629">-validateExecutionDate()</text><text fill="#000000" font-family="sans-serif" font-size="9.8" lengthAdjust="spacing" textLength="86.1" x="628.25" y="203.4977">+getSelectedDate()</text><text fill="#000000" font-family="sans-serif" font-size="9.8" lengthAdjust="spacing" textLength="109.9" x="628.25" y="216.5324">+getWorkStartingHours()</text><text fill="#000000" font-family="sans-serif" font-size="9.8" lengthAdjust="spacing" textLength="118.3" x="628.25" y="229.5672">+getWorkStartingMinutes()</text><text fill="#000000" font-family="sans-serif" font-size="9.8" lengthAdjust="spacing" textLength="94.5" x="628.25" y="242.602">-convertFormat(date)</text><text fill="#000000" font-family="sans-serif" font-size="9.8" lengthAdjust="spacing" textLength="304.5" x="628.25" y="255.6367">-displayErrorLayout(controlObject, labelToShowError, errorMessage)</text><text fill="#000000" font-family="sans-serif" font-size="9.8" lengthAdjust="spacing" textLength="217" x="628.25" y="268.6715">-clearLayoutErrors(controlObject, labelWithError)</text></g><!--class AddNewEntryAgendaController--><g id="elem_AddNewEntryAgendaController"><rect codeLine="45" fill="#F1F1F1" height="124.8434" id="AddNewEntryAgendaController" rx="1.75" ry="1.75" style="stroke:#181818;stroke-width:0.3499999999999999;" width="242.2" x="407.4" y="360.5943"/><ellipse cx="457.275" cy="371.7943" fill="#ADD1B2" rx="7.7" ry="7.7" style="stroke:#181818;stroke-width:0.6999999999999998;"/><path d="M459.2109,368.9068 Q459.3203,368.7537 459.4516,368.6771 Q459.5828,368.6006 459.7359,368.6006 Q459.9984,368.6006 460.1625,368.7865 Q460.3266,368.9615 460.3266,369.3881 L460.3266,370.4053 Q460.3266,370.8318 460.1625,371.0178 Q459.9984,371.2037 459.7359,371.2037 Q459.4953,371.2037 459.3531,371.0615 Q459.2109,370.9303 459.1344,370.5693 Q459.1016,370.3178 458.9703,370.1865 Q458.7406,369.924 458.3141,369.7709 Q457.8875,369.6178 457.45,369.6178 Q456.9141,369.6178 456.4656,369.8475 Q456.0281,370.0771 455.6781,370.6021 Q455.3391,371.1271 455.3391,371.849 L455.3391,372.6146 Q455.3391,373.4787 455.9625,374.0584 Q456.5859,374.6271 457.7016,374.6271 Q458.3578,374.6271 458.8172,374.4521 Q459.0906,374.3428 459.3859,374.0365 Q459.5719,373.8506 459.6703,373.7959 Q459.7797,373.7412 459.9219,373.7412 Q460.1516,373.7412 460.3266,373.9271 Q460.5125,374.1021 460.5125,374.3428 Q460.5125,374.5834 460.2719,374.8678 Q459.9219,375.2725 459.3641,375.5021 Q458.6094,375.8193 457.7016,375.8193 Q456.6406,375.8193 455.7984,375.3818 Q455.1094,375.0318 454.6281,374.2881 Q454.1469,373.5334 454.1469,372.6365 L454.1469,371.8271 Q454.1469,370.8975 454.5734,370.099 Q455.0109,369.2896 455.7766,368.8631 Q456.5422,368.4256 457.4062,368.4256 Q457.9203,368.4256 458.3687,368.5459 Q458.8281,368.6553 459.2109,368.9068 Z " fill="#000000"/><text fill="#000000" font-family="sans-serif" font-size="9.8" lengthAdjust="spacing" textLength="136.5" x="471.625" y="375.8521">AddNewEntryAgendaController</text><line style="stroke:#181818;stroke-width:0.3499999999999999;" x1="408.1" x2="648.9" y1="382.9943" y2="382.9943"/><line style="stroke:#181818;stroke-width:0.3499999999999999;" x1="408.1" x2="648.9" y1="388.5943" y2="388.5943"/><text fill="#000000" font-family="sans-serif" font-size="9.8" lengthAdjust="spacing" textLength="149.1" x="411.6" y="401.9695">+AddNewEntryAgendaController()</text><text fill="#000000" font-family="sans-serif" font-size="9.8" lengthAdjust="spacing" textLength="96.6" x="411.6" y="415.0043">-getToDoRepository()</text><text fill="#000000" font-family="sans-serif" font-size="9.8" lengthAdjust="spacing" textLength="106.4" x="411.6" y="428.0391">-getAgendaRepository()</text><text fill="#000000" font-family="sans-serif" font-size="9.8" lengthAdjust="spacing" textLength="128.1" x="411.6" y="441.0738">-getGreenSpaceRepository()</text><text fill="#000000" font-family="sans-serif" font-size="9.8" lengthAdjust="spacing" textLength="126.7" x="411.6" y="454.1086">+getToDoDTOManagerList()</text><text fill="#000000" font-family="sans-serif" font-size="9.8" lengthAdjust="spacing" textLength="233.8" x="411.6" y="467.1434">+registerTaskAgenda(toDoTaskDTO, executionDate,</text><text fill="#000000" font-family="sans-serif" font-size="9.8" lengthAdjust="spacing" textLength="175" x="411.6" y="480.1781">workStartingDays, workStartingMinutes)</text></g><!--class GreenSpaceRepository--><g id="elem_GreenSpaceRepository"><rect codeLine="58" fill="#F1F1F1" height="59.6695" id="GreenSpaceRepository" rx="1.75" ry="1.75" style="stroke:#181818;stroke-width:0.3499999999999999;" width="206.5" x="86.45" y="988.4943"/><ellipse cx="134.925" cy="999.6943" fill="#ADD1B2" rx="7.7" ry="7.7" style="stroke:#181818;stroke-width:0.6999999999999998;"/><path d="M136.8609,996.8068 Q136.9703,996.6537 137.1016,996.5771 Q137.2328,996.5006 137.3859,996.5006 Q137.6484,996.5006 137.8125,996.6865 Q137.9766,996.8615 137.9766,997.2881 L137.9766,998.3053 Q137.9766,998.7318 137.8125,998.9178 Q137.6484,999.1037 137.3859,999.1037 Q137.1453,999.1037 137.0031,998.9615 Q136.8609,998.8303 136.7844,998.4693 Q136.7516,998.2178 136.6203,998.0865 Q136.3906,997.824 135.9641,997.6709 Q135.5375,997.5178 135.1,997.5178 Q134.5641,997.5178 134.1156,997.7475 Q133.6781,997.9771 133.3281,998.5021 Q132.9891,999.0271 132.9891,999.749 L132.9891,1000.5146 Q132.9891,1001.3787 133.6125,1001.9584 Q134.2359,1002.5271 135.3516,1002.5271 Q136.0078,1002.5271 136.4672,1002.3521 Q136.7406,1002.2428 137.0359,1001.9365 Q137.2219,1001.7506 137.3203,1001.6959 Q137.4297,1001.6412 137.5719,1001.6412 Q137.8016,1001.6412 137.9766,1001.8271 Q138.1625,1002.0021 138.1625,1002.2428 Q138.1625,1002.4834 137.9219,1002.7678 Q137.5719,1003.1725 137.0141,1003.4021 Q136.2594,1003.7193 135.3516,1003.7193 Q134.2906,1003.7193 133.4484,1003.2818 Q132.7594,1002.9318 132.2781,1002.1881 Q131.7969,1001.4334 131.7969,1000.5365 L131.7969,999.7271 Q131.7969,998.7975 132.2234,997.999 Q132.6609,997.1896 133.4266,996.7631 Q134.1922,996.3256 135.0562,996.3256 Q135.5703,996.3256 136.0187,996.4459 Q136.4781,996.5553 136.8609,996.8068 Z " fill="#000000"/><text fill="#000000" font-family="sans-serif" font-size="9.8" lengthAdjust="spacing" textLength="103.6" x="149.275" y="1003.7521">GreenSpaceRepository</text><line style="stroke:#181818;stroke-width:0.3499999999999999;" x1="87.15" x2="292.25" y1="1010.8943" y2="1010.8943"/><text fill="#000000" font-family="sans-serif" font-size="9.8" lengthAdjust="spacing" textLength="158.2" x="90.65" y="1024.2695">-List&lt;GreenSpace&gt; greenSpaceList</text><line style="stroke:#181818;stroke-width:0.3499999999999999;" x1="87.15" x2="292.25" y1="1029.5291" y2="1029.5291"/><text fill="#000000" font-family="sans-serif" font-size="9.8" lengthAdjust="spacing" textLength="198.1" x="90.65" y="1042.9043">+getGreenSpaceByName(greenSpaceName)</text></g><!--class ToDoRepository--><g id="elem_ToDoRepository"><rect codeLine="64" fill="#F1F1F1" height="59.6695" id="ToDoRepository" rx="1.75" ry="1.75" style="stroke:#181818;stroke-width:0.3499999999999999;" width="177.1" x="552.65" y="988.4943"/><ellipse cx="602.175" cy="999.6943" fill="#ADD1B2" rx="7.7" ry="7.7" style="stroke:#181818;stroke-width:0.6999999999999998;"/><path d="M604.1109,996.8068 Q604.2203,996.6537 604.3516,996.5771 Q604.4828,996.5006 604.6359,996.5006 Q604.8984,996.5006 605.0625,996.6865 Q605.2266,996.8615 605.2266,997.2881 L605.2266,998.3053 Q605.2266,998.7318 605.0625,998.9178 Q604.8984,999.1037 604.6359,999.1037 Q604.3953,999.1037 604.2531,998.9615 Q604.1109,998.8303 604.0344,998.4693 Q604.0016,998.2178 603.8703,998.0865 Q603.6406,997.824 603.2141,997.6709 Q602.7875,997.5178 602.35,997.5178 Q601.8141,997.5178 601.3656,997.7475 Q600.9281,997.9771 600.5781,998.5021 Q600.2391,999.0271 600.2391,999.749 L600.2391,1000.5146 Q600.2391,1001.3787 600.8625,1001.9584 Q601.4859,1002.5271 602.6016,1002.5271 Q603.2578,1002.5271 603.7172,1002.3521 Q603.9906,1002.2428 604.2859,1001.9365 Q604.4719,1001.7506 604.5703,1001.6959 Q604.6797,1001.6412 604.8219,1001.6412 Q605.0516,1001.6412 605.2266,1001.8271 Q605.4125,1002.0021 605.4125,1002.2428 Q605.4125,1002.4834 605.1719,1002.7678 Q604.8219,1003.1725 604.2641,1003.4021 Q603.5094,1003.7193 602.6016,1003.7193 Q601.5406,1003.7193 600.6984,1003.2818 Q600.0094,1002.9318 599.5281,1002.1881 Q599.0469,1001.4334 599.0469,1000.5365 L599.0469,999.7271 Q599.0469,998.7975 599.4734,997.999 Q599.9109,997.1896 600.6766,996.7631 Q601.4422,996.3256 602.3062,996.3256 Q602.8203,996.3256 603.2687,996.4459 Q603.7281,996.5553 604.1109,996.8068 Z " fill="#000000"/><text fill="#000000" font-family="sans-serif" font-size="9.8" lengthAdjust="spacing" textLength="72.1" x="616.525" y="1003.7521">ToDoRepository</text><line style="stroke:#181818;stroke-width:0.3499999999999999;" x1="553.35" x2="729.05" y1="1010.8943" y2="1010.8943"/><text fill="#000000" font-family="sans-serif" font-size="9.8" lengthAdjust="spacing" textLength="91" x="556.85" y="1024.2695">-List&lt;Task&gt; toDoList</text><line style="stroke:#181818;stroke-width:0.3499999999999999;" x1="553.35" x2="729.05" y1="1029.5291" y2="1029.5291"/><text fill="#000000" font-family="sans-serif" font-size="9.8" lengthAdjust="spacing" textLength="168.7" x="556.85" y="1042.9043">+getToDoManagerList(managerEmail)</text></g><!--class AgendaRepository--><g id="elem_AgendaRepository"><rect codeLine="70" fill="#F1F1F1" height="124.8434" id="AgendaRepository" rx="1.75" ry="1.75" style="stroke:#181818;stroke-width:0.3499999999999999;" width="210" x="317.8" y="955.9443"/><ellipse cx="378.875" cy="967.1443" fill="#ADD1B2" rx="7.7" ry="7.7" style="stroke:#181818;stroke-width:0.6999999999999998;"/><path d="M380.8109,964.2568 Q380.9203,964.1037 381.0516,964.0271 Q381.1828,963.9506 381.3359,963.9506 Q381.5984,963.9506 381.7625,964.1365 Q381.9266,964.3115 381.9266,964.7381 L381.9266,965.7553 Q381.9266,966.1818 381.7625,966.3678 Q381.5984,966.5537 381.3359,966.5537 Q381.0953,966.5537 380.9531,966.4115 Q380.8109,966.2803 380.7344,965.9193 Q380.7016,965.6678 380.5703,965.5365 Q380.3406,965.274 379.9141,965.1209 Q379.4875,964.9678 379.05,964.9678 Q378.5141,964.9678 378.0656,965.1975 Q377.6281,965.4271 377.2781,965.9521 Q376.9391,966.4771 376.9391,967.199 L376.9391,967.9646 Q376.9391,968.8287 377.5625,969.4084 Q378.1859,969.9771 379.3016,969.9771 Q379.9578,969.9771 380.4172,969.8021 Q380.6906,969.6928 380.9859,969.3865 Q381.1719,969.2006 381.2703,969.1459 Q381.3797,969.0912 381.5219,969.0912 Q381.7516,969.0912 381.9266,969.2771 Q382.1125,969.4521 382.1125,969.6928 Q382.1125,969.9334 381.8719,970.2178 Q381.5219,970.6225 380.9641,970.8521 Q380.2094,971.1693 379.3016,971.1693 Q378.2406,971.1693 377.3984,970.7318 Q376.7094,970.3818 376.2281,969.6381 Q375.7469,968.8834 375.7469,967.9865 L375.7469,967.1771 Q375.7469,966.2475 376.1734,965.449 Q376.6109,964.6396 377.3766,964.2131 Q378.1422,963.7756 379.0062,963.7756 Q379.5203,963.7756 379.9687,963.8959 Q380.4281,964.0053 380.8109,964.2568 Z " fill="#000000"/><text fill="#000000" font-family="sans-serif" font-size="9.8" lengthAdjust="spacing" textLength="81.9" x="393.225" y="971.2021">AgendaRepository</text><line style="stroke:#181818;stroke-width:0.3499999999999999;" x1="318.5" x2="527.1" y1="978.3443" y2="978.3443"/><text fill="#000000" font-family="sans-serif" font-size="9.8" lengthAdjust="spacing" textLength="88.2" x="322" y="991.7195">-List&lt;Task&gt; agenda</text><line style="stroke:#181818;stroke-width:0.3499999999999999;" x1="318.5" x2="527.1" y1="996.9791" y2="996.9791"/><text fill="#000000" font-family="sans-serif" font-size="9.8" lengthAdjust="spacing" textLength="94.5" x="322" y="1010.3543">+AgendaRepository()</text><text fill="#000000" font-family="sans-serif" font-size="9.8" lengthAdjust="spacing" textLength="188.3" x="322" y="1023.3891">+registerTaskAgenda(task, executionDate,</text><text fill="#000000" font-family="sans-serif" font-size="9.8" lengthAdjust="spacing" textLength="178.5" x="322" y="1036.4238">workStartingHours, workStartingMinutes)</text><text fill="#000000" font-family="sans-serif" font-size="9.8" lengthAdjust="spacing" textLength="201.6" x="322" y="1049.4586">+add(task, executionDate, workStartingHours,</text><text fill="#000000" font-family="sans-serif" font-size="9.8" lengthAdjust="spacing" textLength="92.4" x="322" y="1062.4934">workStartingMinutes)</text><text fill="#000000" font-family="sans-serif" font-size="9.8" lengthAdjust="spacing" textLength="119" x="322" y="1075.5281">-validateTaskAgenda(task)</text></g><!--class Repositories--><g id="elem_Repositories"><rect codeLine="79" fill="#F1F1F1" height="98.7738" id="Repositories" rx="1.75" ry="1.75" style="stroke:#181818;stroke-width:0.3499999999999999;" width="138.6" x="259" y="712.3443"/><ellipse cx="297.675" cy="723.5443" fill="#ADD1B2" rx="7.7" ry="7.7" style="stroke:#181818;stroke-width:0.6999999999999998;"/><path d="M299.6109,720.6568 Q299.7203,720.5037 299.8516,720.4271 Q299.9828,720.3506 300.1359,720.3506 Q300.3984,720.3506 300.5625,720.5365 Q300.7266,720.7115 300.7266,721.1381 L300.7266,722.1553 Q300.7266,722.5818 300.5625,722.7678 Q300.3984,722.9537 300.1359,722.9537 Q299.8953,722.9537 299.7531,722.8115 Q299.6109,722.6803 299.5344,722.3193 Q299.5016,722.0678 299.3703,721.9365 Q299.1406,721.674 298.7141,721.5209 Q298.2875,721.3678 297.85,721.3678 Q297.3141,721.3678 296.8656,721.5975 Q296.4281,721.8271 296.0781,722.3521 Q295.7391,722.8771 295.7391,723.599 L295.7391,724.3646 Q295.7391,725.2287 296.3625,725.8084 Q296.9859,726.3771 298.1016,726.3771 Q298.7578,726.3771 299.2172,726.2021 Q299.4906,726.0928 299.7859,725.7865 Q299.9719,725.6006 300.0703,725.5459 Q300.1797,725.4912 300.3219,725.4912 Q300.5516,725.4912 300.7266,725.6771 Q300.9125,725.8521 300.9125,726.0928 Q300.9125,726.3334 300.6719,726.6178 Q300.3219,727.0225 299.7641,727.2521 Q299.0094,727.5693 298.1016,727.5693 Q297.0406,727.5693 296.1984,727.1318 Q295.5094,726.7818 295.0281,726.0381 Q294.5469,725.2834 294.5469,724.3865 L294.5469,723.5771 Q294.5469,722.6475 294.9734,721.849 Q295.4109,721.0396 296.1766,720.6131 Q296.9422,720.1756 297.8062,720.1756 Q298.3203,720.1756 298.7687,720.2959 Q299.2281,720.4053 299.6109,720.6568 Z " fill="#000000"/><text fill="#000000" font-family="sans-serif" font-size="9.8" lengthAdjust="spacing" textLength="55.3" x="312.025" y="727.6021">Repositories</text><line style="stroke:#181818;stroke-width:0.3499999999999999;" x1="259.7" x2="396.9" y1="734.7443" y2="734.7443"/><line style="stroke:#181818;stroke-width:0.3499999999999999;" x1="259.7" x2="396.9" y1="740.3443" y2="740.3443"/><text fill="#000000" font-family="sans-serif" font-size="9.8" lengthAdjust="spacing" textLength="65.8" x="263.2" y="753.7195">-Repositories()</text><text fill="#000000" font-family="sans-serif" font-size="9.8" lengthAdjust="spacing" textLength="127.4" x="263.2" y="766.7543">+getInstance() : Repositories</text><text fill="#000000" font-family="sans-serif" font-size="9.8" lengthAdjust="spacing" textLength="130.2" x="263.2" y="779.7891">+getGreenSpaceRepository()</text><text fill="#000000" font-family="sans-serif" font-size="9.8" lengthAdjust="spacing" textLength="98.7" x="263.2" y="792.8238">+getToDoRepository()</text><text fill="#000000" font-family="sans-serif" font-size="9.8" lengthAdjust="spacing" textLength="108.5" x="263.2" y="805.8586">+getAgendaRepository()</text></g><!--class ApplicationSession--><g id="elem_ApplicationSession"><rect codeLine="87" fill="#F1F1F1" height="85.7391" id="ApplicationSession" rx="1.75" ry="1.75" style="stroke:#181818;stroke-width:0.3499999999999999;" width="163.8" x="15.4" y="718.9943"/><ellipse cx="52.675" cy="730.1943" fill="#ADD1B2" rx="7.7" ry="7.7" style="stroke:#181818;stroke-width:0.6999999999999998;"/><path d="M54.6109,727.3068 Q54.7203,727.1537 54.8516,727.0771 Q54.9828,727.0006 55.1359,727.0006 Q55.3984,727.0006 55.5625,727.1865 Q55.7266,727.3615 55.7266,727.7881 L55.7266,728.8053 Q55.7266,729.2318 55.5625,729.4178 Q55.3984,729.6037 55.1359,729.6037 Q54.8953,729.6037 54.7531,729.4615 Q54.6109,729.3303 54.5344,728.9693 Q54.5016,728.7178 54.3703,728.5865 Q54.1406,728.324 53.7141,728.1709 Q53.2875,728.0178 52.85,728.0178 Q52.3141,728.0178 51.8656,728.2475 Q51.4281,728.4771 51.0781,729.0021 Q50.7391,729.5271 50.7391,730.249 L50.7391,731.0146 Q50.7391,731.8787 51.3625,732.4584 Q51.9859,733.0271 53.1016,733.0271 Q53.7578,733.0271 54.2172,732.8521 Q54.4906,732.7428 54.7859,732.4365 Q54.9719,732.2506 55.0703,732.1959 Q55.1797,732.1412 55.3219,732.1412 Q55.5516,732.1412 55.7266,732.3271 Q55.9125,732.5021 55.9125,732.7428 Q55.9125,732.9834 55.6719,733.2678 Q55.3219,733.6725 54.7641,733.9021 Q54.0094,734.2193 53.1016,734.2193 Q52.0406,734.2193 51.1984,733.7818 Q50.5094,733.4318 50.0281,732.6881 Q49.5469,731.9334 49.5469,731.0365 L49.5469,730.2271 Q49.5469,729.2975 49.9734,728.499 Q50.4109,727.6896 51.1766,727.2631 Q51.9422,726.8256 52.8062,726.8256 Q53.3203,726.8256 53.7687,726.9459 Q54.2281,727.0553 54.6109,727.3068 Z " fill="#000000"/><text fill="#000000" font-family="sans-serif" font-size="9.8" lengthAdjust="spacing" textLength="83.3" x="67.025" y="734.2521">ApplicationSession</text><line style="stroke:#181818;stroke-width:0.3499999999999999;" x1="16.1" x2="178.5" y1="741.3943" y2="741.3943"/><line style="stroke:#181818;stroke-width:0.3499999999999999;" x1="16.1" x2="178.5" y1="746.9943" y2="746.9943"/><text fill="#000000" font-family="sans-serif" font-size="9.8" lengthAdjust="spacing" textLength="93.8" x="19.6" y="760.3695">-ApplicationSession()</text><text fill="#000000" font-family="sans-serif" font-size="9.8" lengthAdjust="spacing" textLength="155.4" x="19.6" y="773.4043">+getInstance() : ApplicationSession</text><text fill="#000000" font-family="sans-serif" font-size="9.8" lengthAdjust="spacing" textLength="137.2" x="19.6" y="786.4391">+getAuthenticationRepository()</text><text fill="#000000" font-family="sans-serif" font-size="9.8" lengthAdjust="spacing" textLength="95.2" x="19.6" y="799.4738">+getCurrentSession()</text></g><!--class UserSession--><g id="elem_UserSession"><rect codeLine="95" fill="#F1F1F1" height="46.6348" id="UserSession" rx="1.75" ry="1.75" style="stroke:#181818;stroke-width:0.3499999999999999;" width="79.1" x="36.05" y="866.3443"/><ellipse cx="47.18" cy="877.5443" fill="#ADD1B2" rx="7.7" ry="7.7" style="stroke:#181818;stroke-width:0.6999999999999998;"/><path d="M49.1159,874.6568 Q49.2253,874.5037 49.3566,874.4271 Q49.4878,874.3506 49.6409,874.3506 Q49.9034,874.3506 50.0675,874.5365 Q50.2316,874.7115 50.2316,875.1381 L50.2316,876.1553 Q50.2316,876.5818 50.0675,876.7678 Q49.9034,876.9537 49.6409,876.9537 Q49.4003,876.9537 49.2581,876.8115 Q49.1159,876.6803 49.0394,876.3193 Q49.0066,876.0678 48.8753,875.9365 Q48.6456,875.674 48.2191,875.5209 Q47.7925,875.3678 47.355,875.3678 Q46.8191,875.3678 46.3706,875.5975 Q45.9331,875.8271 45.5831,876.3521 Q45.2441,876.8771 45.2441,877.599 L45.2441,878.3646 Q45.2441,879.2287 45.8675,879.8084 Q46.4909,880.3771 47.6066,880.3771 Q48.2628,880.3771 48.7222,880.2021 Q48.9956,880.0928 49.2909,879.7865 Q49.4769,879.6006 49.5753,879.5459 Q49.6847,879.4912 49.8269,879.4912 Q50.0566,879.4912 50.2316,879.6771 Q50.4175,879.8521 50.4175,880.0928 Q50.4175,880.3334 50.1769,880.6178 Q49.8269,881.0225 49.2691,881.2521 Q48.5144,881.5693 47.6066,881.5693 Q46.5456,881.5693 45.7034,881.1318 Q45.0144,880.7818 44.5331,880.0381 Q44.0519,879.2834 44.0519,878.3865 L44.0519,877.5771 Q44.0519,876.6475 44.4784,875.849 Q44.9159,875.0396 45.6816,874.6131 Q46.4472,874.1756 47.3112,874.1756 Q47.8253,874.1756 48.2737,874.2959 Q48.7331,874.4053 49.1159,874.6568 Z " fill="#000000"/><text fill="#000000" font-family="sans-serif" font-size="9.8" lengthAdjust="spacing" textLength="55.3" x="57.12" y="881.6021">UserSession</text><line style="stroke:#181818;stroke-width:0.3499999999999999;" x1="36.75" x2="114.45" y1="888.7443" y2="888.7443"/><line style="stroke:#181818;stroke-width:0.3499999999999999;" x1="36.75" x2="114.45" y1="894.3443" y2="894.3443"/><text fill="#000000" font-family="sans-serif" font-size="9.8" lengthAdjust="spacing" textLength="70.7" x="40.25" y="907.7195">+getUserEmail()</text></g><!--class Email--><g id="elem_Email"><rect codeLine="100" fill="#F1F1F1" height="33.6" id="Email" rx="1.75" ry="1.75" style="stroke:#181818;stroke-width:0.3499999999999999;" width="46.2" x="15.4" y="1001.4443"/><ellipse cx="25.9" cy="1012.6443" fill="#ADD1B2" rx="7.7" ry="7.7" style="stroke:#181818;stroke-width:0.6999999999999998;"/><path d="M27.8359,1009.7568 Q27.9453,1009.6037 28.0766,1009.5271 Q28.2078,1009.4506 28.3609,1009.4506 Q28.6234,1009.4506 28.7875,1009.6365 Q28.9516,1009.8115 28.9516,1010.2381 L28.9516,1011.2553 Q28.9516,1011.6818 28.7875,1011.8678 Q28.6234,1012.0537 28.3609,1012.0537 Q28.1203,1012.0537 27.9781,1011.9115 Q27.8359,1011.7803 27.7594,1011.4193 Q27.7266,1011.1678 27.5953,1011.0365 Q27.3656,1010.774 26.9391,1010.6209 Q26.5125,1010.4678 26.075,1010.4678 Q25.5391,1010.4678 25.0906,1010.6975 Q24.6531,1010.9271 24.3031,1011.4521 Q23.9641,1011.9771 23.9641,1012.699 L23.9641,1013.4646 Q23.9641,1014.3287 24.5875,1014.9084 Q25.2109,1015.4771 26.3266,1015.4771 Q26.9828,1015.4771 27.4422,1015.3021 Q27.7156,1015.1928 28.0109,1014.8865 Q28.1969,1014.7006 28.2953,1014.6459 Q28.4047,1014.5912 28.5469,1014.5912 Q28.7766,1014.5912 28.9516,1014.7771 Q29.1375,1014.9521 29.1375,1015.1928 Q29.1375,1015.4334 28.8969,1015.7178 Q28.5469,1016.1225 27.9891,1016.3521 Q27.2344,1016.6693 26.3266,1016.6693 Q25.2656,1016.6693 24.4234,1016.2318 Q23.7344,1015.8818 23.2531,1015.1381 Q22.7719,1014.3834 22.7719,1013.4865 L22.7719,1012.6771 Q22.7719,1011.7475 23.1984,1010.949 Q23.6359,1010.1396 24.4016,1009.7131 Q25.1672,1009.2756 26.0312,1009.2756 Q26.5453,1009.2756 26.9937,1009.3959 Q27.4531,1009.5053 27.8359,1009.7568 Z " fill="#000000"/><text fill="#000000" font-family="sans-serif" font-size="9.8" lengthAdjust="spacing" textLength="23.8" x="35.7" y="1016.7021">Email</text><line style="stroke:#181818;stroke-width:0.3499999999999999;" x1="16.1" x2="60.9" y1="1023.8443" y2="1023.8443"/><line style="stroke:#181818;stroke-width:0.3499999999999999;" x1="16.1" x2="60.9" y1="1029.4443" y2="1029.4443"/></g><!--class GreenSpace--><g id="elem_GreenSpace"><rect codeLine="108" fill="#F1F1F1" height="150.9129" id="GreenSpace" rx="1.75" ry="1.75" style="stroke:#181818;stroke-width:0.3499999999999999;" width="215.6" x="292.6" y="1153.3443"/><ellipse cx="369.425" cy="1164.5443" fill="#ADD1B2" rx="7.7" ry="7.7" style="stroke:#181818;stroke-width:0.6999999999999998;"/><path d="M371.3609,1161.6568 Q371.4703,1161.5037 371.6016,1161.4271 Q371.7328,1161.3506 371.8859,1161.3506 Q372.1484,1161.3506 372.3125,1161.5365 Q372.4766,1161.7115 372.4766,1162.1381 L372.4766,1163.1553 Q372.4766,1163.5818 372.3125,1163.7678 Q372.1484,1163.9537 371.8859,1163.9537 Q371.6453,1163.9537 371.5031,1163.8115 Q371.3609,1163.6803 371.2844,1163.3193 Q371.2516,1163.0678 371.1203,1162.9365 Q370.8906,1162.674 370.4641,1162.5209 Q370.0375,1162.3678 369.6,1162.3678 Q369.0641,1162.3678 368.6156,1162.5975 Q368.1781,1162.8271 367.8281,1163.3521 Q367.4891,1163.8771 367.4891,1164.599 L367.4891,1165.3646 Q367.4891,1166.2287 368.1125,1166.8084 Q368.7359,1167.3771 369.8516,1167.3771 Q370.5078,1167.3771 370.9672,1167.2021 Q371.2406,1167.0928 371.5359,1166.7865 Q371.7219,1166.6006 371.8203,1166.5459 Q371.9297,1166.4912 372.0719,1166.4912 Q372.3016,1166.4912 372.4766,1166.6771 Q372.6625,1166.8521 372.6625,1167.0928 Q372.6625,1167.3334 372.4219,1167.6178 Q372.0719,1168.0225 371.5141,1168.2521 Q370.7594,1168.5693 369.8516,1168.5693 Q368.7906,1168.5693 367.9484,1168.1318 Q367.2594,1167.7818 366.7781,1167.0381 Q366.2969,1166.2834 366.2969,1165.3865 L366.2969,1164.5771 Q366.2969,1163.6475 366.7234,1162.849 Q367.1609,1162.0396 367.9266,1161.6131 Q368.6922,1161.1756 369.5562,1161.1756 Q370.0703,1161.1756 370.5187,1161.2959 Q370.9781,1161.4053 371.3609,1161.6568 Z " fill="#000000"/><text fill="#000000" font-family="sans-serif" font-size="9.8" lengthAdjust="spacing" textLength="56" x="383.775" y="1168.6021">GreenSpace</text><line style="stroke:#181818;stroke-width:0.3499999999999999;" x1="293.3" x2="507.5" y1="1175.7443" y2="1175.7443"/><text fill="#000000" font-family="sans-serif" font-size="9.8" lengthAdjust="spacing" textLength="103.6" x="296.8" y="1189.1195">-GreenSpaceType type</text><text fill="#000000" font-family="sans-serif" font-size="9.8" lengthAdjust="spacing" textLength="56.7" x="296.8" y="1202.1543">-String name</text><text fill="#000000" font-family="sans-serif" font-size="9.8" lengthAdjust="spacing" textLength="76.3" x="296.8" y="1215.1891">-double totalArea</text><text fill="#000000" font-family="sans-serif" font-size="9.8" lengthAdjust="spacing" textLength="71.4" x="296.8" y="1228.2238">-String manager</text><line style="stroke:#181818;stroke-width:0.3499999999999999;" x1="293.3" x2="507.5" y1="1233.4834" y2="1233.4834"/><text fill="#000000" font-family="sans-serif" font-size="9.8" lengthAdjust="spacing" textLength="207.2" x="296.8" y="1246.8586">+GreenSpace(type,name,street, streetNumber,</text><text fill="#000000" font-family="sans-serif" font-size="9.8" lengthAdjust="spacing" textLength="190.4" x="296.8" y="1259.8934">postalCode,city,district,totalArea, manager)</text><text fill="#000000" font-family="sans-serif" font-size="9.8" lengthAdjust="spacing" textLength="86.1" x="296.8" y="1272.9281">-validateType(type)</text><text fill="#000000" font-family="sans-serif" font-size="9.8" lengthAdjust="spacing" textLength="94.5" x="296.8" y="1285.9629">-validateName(name)</text><text fill="#000000" font-family="sans-serif" font-size="9.8" lengthAdjust="spacing" textLength="128.1" x="296.8" y="1298.9977">-validateTotalArea(totalArea)</text></g><!--class Task--><g id="elem_Task"><rect codeLine="119" fill="#F1F1F1" height="137.8781" id="Task" rx="1.75" ry="1.75" style="stroke:#181818;stroke-width:0.3499999999999999;" width="217" x="532.7" y="1159.9943"/><ellipse cx="627.375" cy="1171.1943" fill="#ADD1B2" rx="7.7" ry="7.7" style="stroke:#181818;stroke-width:0.6999999999999998;"/><path d="M629.3109,1168.3068 Q629.4203,1168.1537 629.5516,1168.0771 Q629.6828,1168.0006 629.8359,1168.0006 Q630.0984,1168.0006 630.2625,1168.1865 Q630.4266,1168.3615 630.4266,1168.7881 L630.4266,1169.8053 Q630.4266,1170.2318 630.2625,1170.4178 Q630.0984,1170.6037 629.8359,1170.6037 Q629.5953,1170.6037 629.4531,1170.4615 Q629.3109,1170.3303 629.2344,1169.9693 Q629.2016,1169.7178 629.0703,1169.5865 Q628.8406,1169.324 628.4141,1169.1709 Q627.9875,1169.0178 627.55,1169.0178 Q627.0141,1169.0178 626.5656,1169.2475 Q626.1281,1169.4771 625.7781,1170.0021 Q625.4391,1170.5271 625.4391,1171.249 L625.4391,1172.0146 Q625.4391,1172.8787 626.0625,1173.4584 Q626.6859,1174.0271 627.8016,1174.0271 Q628.4578,1174.0271 628.9172,1173.8521 Q629.1906,1173.7428 629.4859,1173.4365 Q629.6719,1173.2506 629.7703,1173.1959 Q629.8797,1173.1412 630.0219,1173.1412 Q630.2516,1173.1412 630.4266,1173.3271 Q630.6125,1173.5021 630.6125,1173.7428 Q630.6125,1173.9834 630.3719,1174.2678 Q630.0219,1174.6725 629.4641,1174.9021 Q628.7094,1175.2193 627.8016,1175.2193 Q626.7406,1175.2193 625.8984,1174.7818 Q625.2094,1174.4318 624.7281,1173.6881 Q624.2469,1172.9334 624.2469,1172.0365 L624.2469,1171.2271 Q624.2469,1170.2975 624.6734,1169.499 Q625.1109,1168.6896 625.8766,1168.2631 Q626.6422,1167.8256 627.5062,1167.8256 Q628.0203,1167.8256 628.4687,1167.9459 Q628.9281,1168.0553 629.3109,1168.3068 Z " fill="#000000"/><text fill="#000000" font-family="sans-serif" font-size="9.8" lengthAdjust="spacing" textLength="21.7" x="641.725" y="1175.2521">Task</text><line style="stroke:#181818;stroke-width:0.3499999999999999;" x1="533.4" x2="749" y1="1182.3943" y2="1182.3943"/><text fill="#000000" font-family="sans-serif" font-size="9.8" lengthAdjust="spacing" textLength="50.4" x="536.9" y="1195.7695">-String title;</text><text fill="#000000" font-family="sans-serif" font-size="9.8" lengthAdjust="spacing" textLength="83.3" x="536.9" y="1208.8043">-String description;</text><text fill="#000000" font-family="sans-serif" font-size="9.8" lengthAdjust="spacing" textLength="93.8" x="536.9" y="1221.8391">-TaskType taskType;</text><text fill="#000000" font-family="sans-serif" font-size="9.8" lengthAdjust="spacing" textLength="63.7" x="536.9" y="1234.8738">-Status status;</text><text fill="#000000" font-family="sans-serif" font-size="9.8" lengthAdjust="spacing" textLength="8.4" x="536.9" y="1247.9086">...</text><line style="stroke:#181818;stroke-width:0.3499999999999999;" x1="533.4" x2="749" y1="1253.1682" y2="1253.1682"/><text fill="#000000" font-family="sans-serif" font-size="9.8" lengthAdjust="spacing" textLength="208.6" x="536.9" y="1266.5434">+Task(title, description, taskType, greenSpace,</text><text fill="#000000" font-family="sans-serif" font-size="9.8" lengthAdjust="spacing" textLength="136.5" x="536.9" y="1279.5781">urgency, days, hours, minutes)</text><text fill="#000000" font-family="sans-serif" font-size="9.8" lengthAdjust="spacing" textLength="15.4" x="536.9" y="1292.6129">(...)</text></g><!--class TaskDuration--><g id="elem_TaskDuration"><rect codeLine="130" fill="#F1F1F1" height="124.8434" id="TaskDuration" rx="1.75" ry="1.75" style="stroke:#181818;stroke-width:0.3499999999999999;" width="204.4" x="539" y="1359.8443"/><ellipse cx="608.475" cy="1371.0443" fill="#ADD1B2" rx="7.7" ry="7.7" style="stroke:#181818;stroke-width:0.6999999999999998;"/><path d="M610.4109,1368.1568 Q610.5203,1368.0037 610.6516,1367.9271 Q610.7828,1367.8506 610.9359,1367.8506 Q611.1984,1367.8506 611.3625,1368.0365 Q611.5266,1368.2115 611.5266,1368.6381 L611.5266,1369.6553 Q611.5266,1370.0818 611.3625,1370.2678 Q611.1984,1370.4537 610.9359,1370.4537 Q610.6953,1370.4537 610.5531,1370.3115 Q610.4109,1370.1803 610.3344,1369.8193 Q610.3016,1369.5678 610.1703,1369.4365 Q609.9406,1369.174 609.5141,1369.0209 Q609.0875,1368.8678 608.65,1368.8678 Q608.1141,1368.8678 607.6656,1369.0975 Q607.2281,1369.3271 606.8781,1369.8521 Q606.5391,1370.3771 606.5391,1371.099 L606.5391,1371.8646 Q606.5391,1372.7287 607.1625,1373.3084 Q607.7859,1373.8771 608.9016,1373.8771 Q609.5578,1373.8771 610.0172,1373.7021 Q610.2906,1373.5928 610.5859,1373.2865 Q610.7719,1373.1006 610.8703,1373.0459 Q610.9797,1372.9912 611.1219,1372.9912 Q611.3516,1372.9912 611.5266,1373.1771 Q611.7125,1373.3521 611.7125,1373.5928 Q611.7125,1373.8334 611.4719,1374.1178 Q611.1219,1374.5225 610.5641,1374.7521 Q609.8094,1375.0693 608.9016,1375.0693 Q607.8406,1375.0693 606.9984,1374.6318 Q606.3094,1374.2818 605.8281,1373.5381 Q605.3469,1372.7834 605.3469,1371.8865 L605.3469,1371.0771 Q605.3469,1370.1475 605.7734,1369.349 Q606.2109,1368.5396 606.9766,1368.1131 Q607.7422,1367.6756 608.6062,1367.6756 Q609.1203,1367.6756 609.5687,1367.7959 Q610.0281,1367.9053 610.4109,1368.1568 Z " fill="#000000"/><text fill="#000000" font-family="sans-serif" font-size="9.8" lengthAdjust="spacing" textLength="59.5" x="622.825" y="1375.1021">TaskDuration</text><line style="stroke:#181818;stroke-width:0.3499999999999999;" x1="539.7" x2="742.7" y1="1382.2443" y2="1382.2443"/><text fill="#000000" font-family="sans-serif" font-size="9.8" lengthAdjust="spacing" textLength="40.6" x="543.2" y="1395.6195">-int days;</text><text fill="#000000" font-family="sans-serif" font-size="9.8" lengthAdjust="spacing" textLength="44.8" x="543.2" y="1408.6543">-int hours;</text><text fill="#000000" font-family="sans-serif" font-size="9.8" lengthAdjust="spacing" textLength="53.9" x="543.2" y="1421.6891">-int minutes;</text><text fill="#000000" font-family="sans-serif" font-size="9.8" lengthAdjust="spacing" textLength="110.6" x="543.2" y="1434.7238">-int totalDurationMinutes;</text><line style="stroke:#181818;stroke-width:0.3499999999999999;" x1="539.7" x2="742.7" y1="1439.9834" y2="1439.9834"/><text fill="#000000" font-family="sans-serif" font-size="9.8" lengthAdjust="spacing" textLength="163.8" x="543.2" y="1453.3586">+TaskDuration(days, hours, minutes)</text><text fill="#000000" font-family="sans-serif" font-size="9.8" lengthAdjust="spacing" textLength="177.1" x="543.2" y="1466.3934">+setTaskDuration(days, hours, minutes)</text><text fill="#000000" font-family="sans-serif" font-size="9.8" lengthAdjust="spacing" textLength="196" x="543.2" y="1479.4281">-validateTaskDuration(days, hours, minutes)</text></g><!--class ToDoListMapper--><g id="elem_ToDoListMapper"><rect codeLine="147" fill="#F1F1F1" height="85.7391" id="ToDoListMapper" rx="1.75" ry="1.75" style="stroke:#181818;stroke-width:0.3499999999999999;" width="200.9" x="715.75" y="380.1943"/><ellipse cx="776.475" cy="391.3943" fill="#ADD1B2" rx="7.7" ry="7.7" style="stroke:#181818;stroke-width:0.6999999999999998;"/><path d="M778.4109,388.5068 Q778.5203,388.3537 778.6516,388.2771 Q778.7828,388.2006 778.9359,388.2006 Q779.1984,388.2006 779.3625,388.3865 Q779.5266,388.5615 779.5266,388.9881 L779.5266,390.0053 Q779.5266,390.4318 779.3625,390.6178 Q779.1984,390.8037 778.9359,390.8037 Q778.6953,390.8037 778.5531,390.6615 Q778.4109,390.5303 778.3344,390.1693 Q778.3016,389.9178 778.1703,389.7865 Q777.9406,389.524 777.5141,389.3709 Q777.0875,389.2178 776.65,389.2178 Q776.1141,389.2178 775.6656,389.4475 Q775.2281,389.6771 774.8781,390.2021 Q774.5391,390.7271 774.5391,391.449 L774.5391,392.2146 Q774.5391,393.0787 775.1625,393.6584 Q775.7859,394.2271 776.9016,394.2271 Q777.5578,394.2271 778.0172,394.0521 Q778.2906,393.9428 778.5859,393.6365 Q778.7719,393.4506 778.8703,393.3959 Q778.9797,393.3412 779.1219,393.3412 Q779.3516,393.3412 779.5266,393.5271 Q779.7125,393.7021 779.7125,393.9428 Q779.7125,394.1834 779.4719,394.4678 Q779.1219,394.8725 778.5641,395.1021 Q777.8094,395.4193 776.9016,395.4193 Q775.8406,395.4193 774.9984,394.9818 Q774.3094,394.6318 773.8281,393.8881 Q773.3469,393.1334 773.3469,392.2365 L773.3469,391.4271 Q773.3469,390.4975 773.7734,389.699 Q774.2109,388.8896 774.9766,388.4631 Q775.7422,388.0256 776.6062,388.0256 Q777.1203,388.0256 777.5687,388.1459 Q778.0281,388.2553 778.4109,388.5068 Z " fill="#000000"/><text fill="#000000" font-family="sans-serif" font-size="9.8" lengthAdjust="spacing" textLength="73.5" x="790.825" y="395.4521">ToDoListMapper</text><line style="stroke:#181818;stroke-width:0.3499999999999999;" x1="716.45" x2="915.95" y1="402.5943" y2="402.5943"/><line style="stroke:#181818;stroke-width:0.3499999999999999;" x1="716.45" x2="915.95" y1="408.1943" y2="408.1943"/><text fill="#000000" font-family="sans-serif" font-size="9.8" lengthAdjust="spacing" textLength="86.1" x="719.95" y="421.5695">+ToDoListMapper()</text><text fill="#000000" font-family="sans-serif" font-size="9.8" lengthAdjust="spacing" textLength="192.5" x="719.95" y="434.6043">+toDTOWithStatusList(List&lt;Task&gt; toDoList)</text><text fill="#000000" font-family="sans-serif" font-size="9.8" lengthAdjust="spacing" textLength="132.3" x="719.95" y="447.6391">+toDTOWithStatus(toDoTask)</text><text fill="#000000" font-family="sans-serif" font-size="9.8" lengthAdjust="spacing" textLength="165.9" x="719.95" y="460.6738">+toTask(toDoTaskDTO, greenSpace)</text></g><!--class ToDoTaskDTO--><g id="elem_ToDoTaskDTO"><rect codeLine="157" fill="#F1F1F1" height="176.9824" id="ToDoTaskDTO" rx="1.75" ry="1.75" style="stroke:#181818;stroke-width:0.3499999999999999;" width="204.4" x="980.7" y="334.3443"/><ellipse cx="1046.325" cy="345.5443" fill="#ADD1B2" rx="7.7" ry="7.7" style="stroke:#181818;stroke-width:0.6999999999999998;"/><path d="M1048.2609,342.6568 Q1048.3703,342.5037 1048.5016,342.4271 Q1048.6328,342.3506 1048.7859,342.3506 Q1049.0484,342.3506 1049.2125,342.5365 Q1049.3766,342.7115 1049.3766,343.1381 L1049.3766,344.1553 Q1049.3766,344.5818 1049.2125,344.7678 Q1049.0484,344.9537 1048.7859,344.9537 Q1048.5453,344.9537 1048.4031,344.8115 Q1048.2609,344.6803 1048.1844,344.3193 Q1048.1516,344.0678 1048.0203,343.9365 Q1047.7906,343.674 1047.3641,343.5209 Q1046.9375,343.3678 1046.5,343.3678 Q1045.9641,343.3678 1045.5156,343.5975 Q1045.0781,343.8271 1044.7281,344.3521 Q1044.3891,344.8771 1044.3891,345.599 L1044.3891,346.3646 Q1044.3891,347.2287 1045.0125,347.8084 Q1045.6359,348.3771 1046.7516,348.3771 Q1047.4078,348.3771 1047.8672,348.2021 Q1048.1406,348.0928 1048.4359,347.7865 Q1048.6219,347.6006 1048.7203,347.5459 Q1048.8297,347.4912 1048.9719,347.4912 Q1049.2016,347.4912 1049.3766,347.6771 Q1049.5625,347.8521 1049.5625,348.0928 Q1049.5625,348.3334 1049.3219,348.6178 Q1048.9719,349.0225 1048.4141,349.2521 Q1047.6594,349.5693 1046.7516,349.5693 Q1045.6906,349.5693 1044.8484,349.1318 Q1044.1594,348.7818 1043.6781,348.0381 Q1043.1969,347.2834 1043.1969,346.3865 L1043.1969,345.5771 Q1043.1969,344.6475 1043.6234,343.849 Q1044.0609,343.0396 1044.8266,342.6131 Q1045.5922,342.1756 1046.4562,342.1756 Q1046.9703,342.1756 1047.4187,342.2959 Q1047.8781,342.4053 1048.2609,342.6568 Z " fill="#000000"/><text fill="#000000" font-family="sans-serif" font-size="9.8" lengthAdjust="spacing" textLength="67.2" x="1060.675" y="349.6021">ToDoTaskDTO</text><line style="stroke:#181818;stroke-width:0.3499999999999999;" x1="981.4" x2="1184.4" y1="356.7443" y2="356.7443"/><text fill="#000000" font-family="sans-serif" font-size="9.8" lengthAdjust="spacing" textLength="52.5" x="984.9" y="370.1195">+String title;</text><text fill="#000000" font-family="sans-serif" font-size="9.8" lengthAdjust="spacing" textLength="85.4" x="984.9" y="383.1543">+String description;</text><text fill="#000000" font-family="sans-serif" font-size="9.8" lengthAdjust="spacing" textLength="95.9" x="984.9" y="396.1891">+TaskType taskType;</text><text fill="#000000" font-family="sans-serif" font-size="9.8" lengthAdjust="spacing" textLength="116.2" x="984.9" y="409.2238">+String greenSpaceName;</text><text fill="#000000" font-family="sans-serif" font-size="9.8" lengthAdjust="spacing" textLength="105.7" x="984.9" y="422.2586">+UrgencyType urgency;</text><text fill="#000000" font-family="sans-serif" font-size="9.8" lengthAdjust="spacing" textLength="42.7" x="984.9" y="435.2934">+int days;</text><text fill="#000000" font-family="sans-serif" font-size="9.8" lengthAdjust="spacing" textLength="46.9" x="984.9" y="448.3281">+int hours;</text><text fill="#000000" font-family="sans-serif" font-size="9.8" lengthAdjust="spacing" textLength="56" x="984.9" y="461.3629">+int minutes;</text><line style="stroke:#181818;stroke-width:0.3499999999999999;" x1="981.4" x2="1184.4" y1="466.6225" y2="466.6225"/><text fill="#000000" font-family="sans-serif" font-size="9.8" lengthAdjust="spacing" textLength="194.6" x="984.9" y="479.9977">+ToDoTaskDTO(title, description, taskType,</text><text fill="#000000" font-family="sans-serif" font-size="9.8" lengthAdjust="spacing" textLength="196" x="984.9" y="493.0324">greenSpace, urgency, days, hours, minutes)</text><text fill="#000000" font-family="sans-serif" font-size="9.8" lengthAdjust="spacing" textLength="128.1" x="984.9" y="506.0672">+expectedDurationToString()</text></g><!--class ToDoTaskWithStatusDTO--><g id="elem_ToDoTaskWithStatusDTO"><rect codeLine="171" fill="#F1F1F1" height="85.7391" id="ToDoTaskWithStatusDTO" rx="1.75" ry="1.75" style="stroke:#181818;stroke-width:0.3499999999999999;" width="253.4" x="956.2" y="566.7443"/><ellipse cx="1022.525" cy="577.9443" fill="#ADD1B2" rx="7.7" ry="7.7" style="stroke:#181818;stroke-width:0.6999999999999998;"/><path d="M1024.4609,575.0568 Q1024.5703,574.9037 1024.7016,574.8271 Q1024.8328,574.7506 1024.9859,574.7506 Q1025.2484,574.7506 1025.4125,574.9365 Q1025.5766,575.1115 1025.5766,575.5381 L1025.5766,576.5553 Q1025.5766,576.9818 1025.4125,577.1678 Q1025.2484,577.3537 1024.9859,577.3537 Q1024.7453,577.3537 1024.6031,577.2115 Q1024.4609,577.0803 1024.3844,576.7193 Q1024.3516,576.4678 1024.2203,576.3365 Q1023.9906,576.074 1023.5641,575.9209 Q1023.1375,575.7678 1022.7,575.7678 Q1022.1641,575.7678 1021.7156,575.9975 Q1021.2781,576.2271 1020.9281,576.7521 Q1020.5891,577.2771 1020.5891,577.999 L1020.5891,578.7646 Q1020.5891,579.6287 1021.2125,580.2084 Q1021.8359,580.7771 1022.9516,580.7771 Q1023.6078,580.7771 1024.0672,580.6021 Q1024.3406,580.4928 1024.6359,580.1865 Q1024.8219,580.0006 1024.9203,579.9459 Q1025.0297,579.8912 1025.1719,579.8912 Q1025.4016,579.8912 1025.5766,580.0771 Q1025.7625,580.2521 1025.7625,580.4928 Q1025.7625,580.7334 1025.5219,581.0178 Q1025.1719,581.4225 1024.6141,581.6521 Q1023.8594,581.9693 1022.9516,581.9693 Q1021.8906,581.9693 1021.0484,581.5318 Q1020.3594,581.1818 1019.8781,580.4381 Q1019.3969,579.6834 1019.3969,578.7865 L1019.3969,577.9771 Q1019.3969,577.0475 1019.8234,576.249 Q1020.2609,575.4396 1021.0266,575.0131 Q1021.7922,574.5756 1022.6562,574.5756 Q1023.1703,574.5756 1023.6187,574.6959 Q1024.0781,574.8053 1024.4609,575.0568 Z " fill="#000000"/><text fill="#000000" font-family="sans-serif" font-size="9.8" lengthAdjust="spacing" textLength="114.8" x="1036.875" y="582.0021">ToDoTaskWithStatusDTO</text><line style="stroke:#181818;stroke-width:0.3499999999999999;" x1="956.9" x2="1208.9" y1="589.1443" y2="589.1443"/><text fill="#000000" font-family="sans-serif" font-size="9.8" lengthAdjust="spacing" textLength="63" x="960.4" y="602.5195">+Status status</text><line style="stroke:#181818;stroke-width:0.3499999999999999;" x1="956.9" x2="1208.9" y1="607.7791" y2="607.7791"/><text fill="#000000" font-family="sans-serif" font-size="9.8" lengthAdjust="spacing" textLength="242.2" x="960.4" y="621.1543">+ToDoTaskWithStatusDTO(title, description, taskType,</text><text fill="#000000" font-family="sans-serif" font-size="9.8" lengthAdjust="spacing" textLength="239.4" x="960.4" y="634.1891">greenSpaceName, urgency, expectedDuration, status)</text><text fill="#000000" font-family="sans-serif" font-size="9.8" lengthAdjust="spacing" textLength="128.1" x="960.4" y="647.2238">+expectedDurationToString()</text></g><!--link AddNewEntryAgendaUI to AddNewEntryAgendaController--><g id="link_AddNewEntryAgendaUI_AddNewEntryAgendaController"><path codeLine="181" d="M528.5,228.5463 C528.5,268.5653 528.5,316.2773 528.5,356.2753 " fill="none" id="AddNewEntryAgendaUI-to-AddNewEntryAgendaController" style="stroke:#181818;stroke-width:0.6999999999999998;stroke-dasharray:7.0,7.0;"/><polygon fill="#181818" points="528.5,360.4753,531.3,354.1753,528.5,356.9753,525.7,354.1753,528.5,360.4753" style="stroke:#181818;stroke-width:0.6999999999999998;"/></g><!--link AddNewEntryAgendaUI to InsertDatePopupUI--><g id="link_AddNewEntryAgendaUI_InsertDatePopupUI"><path codeLine="182" d="M599.557,165.9943 C607.334,165.9943 612.5,165.9943 612.5,165.9943 C612.5,165.9943 612.759,165.9943 619.626,165.9943 " fill="none" id="AddNewEntryAgendaUI-to-InsertDatePopupUI" style="stroke:#181818;stroke-width:0.6999999999999998;stroke-dasharray:7.0,7.0;"/><polygon fill="#181818" points="623.826,165.9943,617.526,163.1943,620.326,165.9943,617.526,168.7943,623.826,165.9943" style="stroke:#181818;stroke-width:0.6999999999999998;"/></g><!--link AddNewEntryAgendaController to Repositories--><g id="link_AddNewEntryAgendaController_Repositories"><path codeLine="183" d="M488.341,485.3413 C463.141,524.0863 435.4,566.7443 435.4,566.7443 C435.4,566.7443 388.9388,651.0073 357.2148,708.5473 " fill="none" id="AddNewEntryAgendaController-to-Repositories" style="stroke:#181818;stroke-width:0.6999999999999998;stroke-dasharray:7.0,7.0;"/><polygon fill="#181818" points="355.187,712.2253,360.6808,708.0602,356.8769,709.1603,355.7767,705.3564,355.187,712.2253" style="stroke:#181818;stroke-width:0.6999999999999998;"/><text fill="#000000" font-family="sans-serif" font-size="9.1" lengthAdjust="spacing" textLength="46.9" x="436.1" y="613.3142">repositories</text></g><!--link AddNewEntryAgendaController to GreenSpaceRepository--><g id="link_AddNewEntryAgendaController_GreenSpaceRepository"><path codeLine="184" d="M519.645,485.2433 C511.903,539.1083 501.9,608.7443 501.9,608.7443 C501.9,608.7443 501.9,608.7443 501.9,890.4943 C501.9,890.4943 305.2,955.9443 305.2,955.9443 C305.2,955.9443 277.9658,970.4666 248.1108,986.3916 " fill="none" id="AddNewEntryAgendaController-to-GreenSpaceRepository" style="stroke:#181818;stroke-width:0.6999999999999998;stroke-dasharray:7.0,7.0;"/><polygon fill="#181818" points="244.405,988.3683,251.2814,987.8738,247.4931,986.7211,248.6458,982.9328,244.405,988.3683" style="stroke:#181818;stroke-width:0.6999999999999998;"/><text fill="#000000" font-family="sans-serif" font-size="9.1" lengthAdjust="spacing" textLength="91.7" x="502.6" y="765.5642">greenSpaceRepository</text></g><!--link AddNewEntryAgendaController to ToDoRepository--><g id="link_AddNewEntryAgendaController_ToDoRepository"><path codeLine="185" d="M607.985,485.2433 C677.425,539.1083 767.2,608.7443 767.2,608.7443 C767.2,608.7443 767.2,608.7443 767.2,890.4943 C767.2,890.4943 710.2656,947.9083 673.0676,985.4143 " fill="none" id="AddNewEntryAgendaController-to-ToDoRepository" style="stroke:#181818;stroke-width:0.6999999999999998;stroke-dasharray:7.0,7.0;"/><polygon fill="#181818" points="670.11,988.3963,676.5344,985.895,672.5746,985.9113,672.5583,981.9515,670.11,988.3963" style="stroke:#181818;stroke-width:0.6999999999999998;"/><text fill="#000000" font-family="sans-serif" font-size="9.1" lengthAdjust="spacing" textLength="62.3" x="767.9" y="765.5642">toDoRepository</text></g><!--link AddNewEntryAgendaController to AgendaRepository--><g id="link_AddNewEntryAgendaController_AgendaRepository"><path codeLine="186" d="M566.958,485.2433 C600.558,539.1083 644,608.7443 644,608.7443 C644,608.7443 644,608.7443 644,890.4943 C644,890.4943 588.6111,922.3106 531.5331,955.0916 " fill="none" id="AddNewEntryAgendaController-to-AgendaRepository" style="stroke:#181818;stroke-width:0.6999999999999998;stroke-dasharray:7.0,7.0;"/><polygon fill="#181818" points="527.891,957.1833,534.7486,956.4738,530.9261,955.4402,531.9596,951.6177,527.891,957.1833" style="stroke:#181818;stroke-width:0.6999999999999998;"/><text fill="#000000" font-family="sans-serif" font-size="9.1" lengthAdjust="spacing" textLength="72.8" x="644.7" y="765.5642">agendaRepository</text></g><!--link AddNewEntryAgendaController to ApplicationSession--><g id="link_AddNewEntryAgendaController_ApplicationSession"><path codeLine="187" d="M449.659,485.2853 C363.027,553.0733 229.5128,657.5433 154.3958,716.3153 " fill="none" id="AddNewEntryAgendaController-to-ApplicationSession" style="stroke:#181818;stroke-width:0.6999999999999998;stroke-dasharray:7.0,7.0;"/><polygon fill="#181818" points="151.088,718.9033,157.7752,717.2264,153.8445,716.7466,154.3244,712.816,151.088,718.9033" style="stroke:#181818;stroke-width:0.6999999999999998;"/></g><!--link Repositories to Repositories--><g id="link_Repositories_Repositories"><path codeLine="188" d="M397.635,747.7853 C411.88,749.2763 422.1,753.9103 422.1,761.6943 C422.1,769.4783 416.0572,773.6751 401.8122,775.1661 " fill="none" id="Repositories-to-Repositories" style="stroke:#181818;stroke-width:0.6999999999999998;"/><polygon fill="#181818" points="397.635,775.6033,404.1923,777.7323,401.116,775.239,403.6093,772.1627,397.635,775.6033" style="stroke:#181818;stroke-width:0.6999999999999998;"/><text fill="#000000" font-family="sans-serif" font-size="9.1" lengthAdjust="spacing" textLength="34.3" x="426.3" y="765.5642">instance</text></g><!--link Repositories to GreenSpaceRepository--><g id="link_Repositories_GreenSpaceRepository"><path codeLine="189" d="M301.742,811.2893 C273.245,863.7403 230.9396,941.6206 207.4966,984.7826 " fill="none" id="Repositories-to-GreenSpaceRepository" style="stroke:#181818;stroke-width:0.6999999999999998;"/><polygon fill="#181818" points="205.492,988.4733,210.9594,984.2736,207.1625,985.3977,206.0384,981.6008,205.492,988.4733" style="stroke:#181818;stroke-width:0.6999999999999998;"/><text fill="#000000" font-family="sans-serif" font-size="9.1" lengthAdjust="spacing" textLength="4.9" x="202.7184" y="980.7028">1</text></g><!--link Repositories to ToDoRepository--><g id="link_Repositories_ToDoRepository"><path codeLine="190" d="M388.073,811.1353 C452.375,863.5723 549.2549,942.5733 602.2519,985.7843 " fill="none" id="Repositories-to-ToDoRepository" style="stroke:#181818;stroke-width:0.6999999999999998;"/><polygon fill="#181818" points="605.507,988.4383,602.3937,982.2871,602.7944,986.2266,598.8549,986.6273,605.507,988.4383" style="stroke:#181818;stroke-width:0.6999999999999998;"/><text fill="#000000" font-family="sans-serif" font-size="9.1" lengthAdjust="spacing" textLength="4.9" x="594.528" y="980.6623">1</text></g><!--link Repositories to AgendaRepository--><g id="link_Repositories_AgendaRepository"><path codeLine="191" d="M346.409,811.2893 C361.627,852.3863 382.008,907.4089 398.444,951.7749 " fill="none" id="Repositories-to-AgendaRepository" style="stroke:#181818;stroke-width:0.6999999999999998;"/><polygon fill="#181818" points="399.903,955.7133,400.3401,948.833,398.6871,952.4313,395.0888,950.7784,399.903,955.7133" style="stroke:#181818;stroke-width:0.6999999999999998;"/><text fill="#000000" font-family="sans-serif" font-size="9.1" lengthAdjust="spacing" textLength="4.9" x="392.904" y="947.9604">1</text></g><!--link ApplicationSession to ApplicationSession--><g id="link_ApplicationSession_ApplicationSession"><path codeLine="192" d="M179.389,748.1563 C193.725,749.9623 203.7,754.4773 203.7,761.6943 C203.7,768.9113 197.8921,772.9014 183.5561,774.7074 " fill="none" id="ApplicationSession-to-ApplicationSession" style="stroke:#181818;stroke-width:0.6999999999999998;"/><polygon fill="#181818" points="179.389,775.2323,185.9896,777.223,182.8616,774.7949,185.2896,771.6669,179.389,775.2323" style="stroke:#181818;stroke-width:0.6999999999999998;"/><text fill="#000000" font-family="sans-serif" font-size="9.1" lengthAdjust="spacing" textLength="34.3" x="207.9" y="765.5642">instance</text></g><!--link ApplicationSession to UserSession--><g id="link_ApplicationSession_UserSession"><path codeLine="193" d="M90.104,804.4083 C86.576,825.0093 83.1769,844.8798 80.2299,862.0648 " fill="none" id="ApplicationSession-to-UserSession" style="stroke:#181818;stroke-width:0.6999999999999998;"/><polygon fill="#181818" points="79.52,866.2043,83.3445,860.4682,80.1116,862.7547,77.8251,859.5217,79.52,866.2043" style="stroke:#181818;stroke-width:0.6999999999999998;"/><text fill="#000000" font-family="sans-serif" font-size="9.1" lengthAdjust="spacing" textLength="50.4" x="86.1" y="842.5642">userSession</text><text fill="#000000" font-family="sans-serif" font-size="9.1" lengthAdjust="spacing" textLength="4.9" x="74.9002" y="858.5378">1</text></g><!--link UserSession to Email--><g id="link_UserSession_Email"><path codeLine="194" d="M68.88,913.5033 C61.467,938.8853 50.9054,975.0547 44.4024,997.3217 " fill="none" id="UserSession-to-Email" style="stroke:#181818;stroke-width:0.6999999999999998;stroke-dasharray:7.0,7.0;"/><polygon fill="#181818" points="43.225,1001.3533,47.6788,996.0909,44.2062,997.9937,42.3034,994.521,43.225,1001.3533" style="stroke:#181818;stroke-width:0.6999999999999998;"/></g><!--link GreenSpaceRepository to GreenSpace--><g id="link_GreenSpaceRepository_GreenSpace"><path codeLine="195" d="M218.995,1048.0433 C246.302,1075.1753 285.2312,1113.8375 321.8902,1150.2515 " fill="none" id="GreenSpaceRepository-to-GreenSpace" style="stroke:#181818;stroke-width:0.6999999999999998;"/><polygon fill="#181818" points="324.87,1153.2113,322.3736,1146.785,322.3868,1150.7448,318.4271,1150.7581,324.87,1153.2113" style="stroke:#181818;stroke-width:0.6999999999999998;"/><text fill="#000000" font-family="sans-serif" font-size="9.1" lengthAdjust="spacing" textLength="48.3" x="283.5" y="1113.4642">greenSpace</text><text fill="#000000" font-family="sans-serif" font-size="9.1" lengthAdjust="spacing" textLength="4.9" x="218.3734" y="1063.5634">1</text></g><!--link ToDoRepository to Task--><g id="link_ToDoRepository_Task"><path codeLine="196" d="M641.2,1048.0433 C641.2,1076.8553 641.2,1117.8263 641.2,1155.7313 " fill="none" id="ToDoRepository-to-Task" style="stroke:#181818;stroke-width:0.6999999999999998;"/><polygon fill="#181818" points="641.2,1159.9313,644,1153.6313,641.2,1156.4313,638.4,1153.6313,641.2,1159.9313" style="stroke:#181818;stroke-width:0.6999999999999998;"/><text fill="#000000" font-family="sans-serif" font-size="9.1" lengthAdjust="spacing" textLength="17.5" x="641.9" y="1113.4642">task</text><text fill="#000000" font-family="sans-serif" font-size="9.1" lengthAdjust="spacing" textLength="4.9" x="635.9095" y="1063.5634">1</text></g><!--reverse link Task to TaskDuration--><g id="link_Task_TaskDuration"><path codeLine="197" d="M641.2,1306.4763 C641.2,1326.5943 641.2,1340.0763 641.2,1359.7463 " fill="none" id="Task-backto-TaskDuration" style="stroke:#181818;stroke-width:0.6999999999999998;"/><polygon fill="#181818" points="641.2,1298.0763,638.4,1302.2763,641.2,1306.4763,644,1302.2763,641.2,1298.0763" style="stroke:#181818;stroke-width:0.6999999999999998;"/><text fill="#000000" font-family="sans-serif" font-size="9.1" lengthAdjust="spacing" textLength="51.1" x="641.9" y="1336.0642">taskDuration</text><text fill="#000000" font-family="sans-serif" font-size="9.1" lengthAdjust="spacing" textLength="4.9" x="636.0971" y="1352.0044">1</text></g><!--link AddNewEntryAgendaController to ToDoListMapper--><g id="link_AddNewEntryAgendaController_ToDoListMapper"><path codeLine="198" d="M649.845,422.8943 C672.49,422.8943 699.58,422.8943 711.361,422.8943 " fill="none" id="AddNewEntryAgendaController-to-ToDoListMapper" style="stroke:#181818;stroke-width:0.6999999999999998;stroke-dasharray:7.0,7.0;"/><polygon fill="#181818" points="715.561,422.8943,709.261,420.0943,712.061,422.8943,709.261,425.6943,715.561,422.8943" style="stroke:#181818;stroke-width:0.6999999999999998;"/></g><!--link ToDoListMapper to Task--><g id="link_ToDoListMapper_Task"><path codeLine="199" d="M827.953,465.6083 C843.234,520.2363 868,608.7443 868,608.7443 C868,608.7443 868,608.7443 868,1018.9443 C868,1018.9443 784.6925,1095.8259 718.5495,1156.8659 " fill="none" id="ToDoListMapper-to-Task" style="stroke:#181818;stroke-width:0.6999999999999998;stroke-dasharray:7.0,7.0;"/><polygon fill="#181818" points="715.463,1159.7143,721.9917,1157.4994,718.0351,1157.3407,718.1939,1153.3841,715.463,1159.7143" style="stroke:#181818;stroke-width:0.6999999999999998;"/><text fill="#000000" font-family="sans-serif" font-size="9.1" lengthAdjust="spacing" textLength="17.5" x="868.7" y="842.5642">task</text></g><!--link ToDoListMapper to ToDoTaskWithStatusDTO--><g id="link_ToDoListMapper_ToDoTaskWithStatusDTO"><path codeLine="200" d="M870.401,465.6293 C915.964,500.9653 973.7,545.7443 973.7,545.7443 C973.7,545.7443 986.3929,553.0676 1006.4269,564.6246 " fill="none" id="ToDoListMapper-to-ToDoTaskWithStatusDTO" style="stroke:#181818;stroke-width:0.6999999999999998;stroke-dasharray:7.0,7.0;"/><polygon fill="#181818" points="1010.065,566.7233,1006.007,561.1499,1007.0333,564.9744,1003.2088,566.0007,1010.065,566.7233" style="stroke:#181818;stroke-width:0.6999999999999998;"/><text fill="#000000" font-family="sans-serif" font-size="9.1" lengthAdjust="spacing" textLength="102.2" x="974.4" y="542.9642">toDoTaskWithStatusDTO</text></g><!--reverse link ToDoTaskDTO to ToDoTaskWithStatusDTO--><g id="link_ToDoTaskDTO_ToDoTaskWithStatusDTO"><path codeLine="201" d="M1082.9,524.1633 C1082.9,543.3783 1082.9,550.2663 1082.9,566.6953 " fill="none" id="ToDoTaskDTO-backto-ToDoTaskWithStatusDTO" style="stroke:#181818;stroke-width:0.6999999999999998;"/><polygon fill="none" points="1082.9,511.5633,1078.7,524.1633,1087.1,524.1633,1082.9,511.5633" style="stroke:#181818;stroke-width:0.6999999999999998;"/></g><!--SRC=[ZLXBSzis4BxZLs3IW-c8qgGvsXxDA9QJUYPsEf7SN7A1I5X23G4S48ohklxlNO0W2P2WP5r4xkF3xc9Vqbdvn4H15DdZlHGosocvfrYhYgAEKv3iYMpfIXyunOfcceWjzmNA7SdbCnDR_4XuwNCu4rGV2eeBoG_c1Pr5c59fYJojZ9EoN6YjsARIz3QJOiN-fVW3qao32G-h3ny_uYc-Dc9uoSWMb11oPk8l3xVuwkgpv3bLypd-RMa_-0KXYuiNUNvFds-4LeV5begSWFmBml2PuhLSoZKfdvRhRxYa77obkNb7bZ-9wIRdZiS4qunmi3If54yXKgMiL4O_LIBdzDoTyCWuNvCDfxVYKQezqKoAf67kY165GzQoXcyvlm0u9veQOrREi9PP5JKBKFzYz1dehuspjwAaIY-1_QSigkBXjl5q1T652skSD1AEmuJ6pr8zhJHH6cJ-02_A4TuT4t139NBiZHRNKZmojGUypdX39YAZV945xcPSbhIDeESaszC1yUOVcbL6tPZQ1drBzSfpmQV_wFimndHET6P9yGk2zjbUJsBERZWvAmjE3ZTAIVML76Ib4n3MIl9lcx_1Y1Hpig5yBLSx-MobKapDrnqjIyZDpd5A782LAgCmFvZUMVOvCXVwsgNuTItDgOfd-aYYUselendT2RK1WNYPmlXE2raoBTN1vzHQSTuNHQbOWTLqm9yqg51gTqI0L-ehAtNBLNGBhrIPX7UreBlYXB3wwP3-57vMBicXJ6DvMeE_cb2UDR5SoZrX8eZZmdvUsd1tnXyBTypPfjgCQrUTm1nlssV3Gbr8Eg5FXti2TT19cbUljCCh2KuoKPfZ4wyUkj7nexsldsyW1Do3xjzf19nOaJQBuaaGlqPuF7v_jbgFNE04apoFuWmRLmywm0dRgcUU5uhM9qRBTapuH3-VeTjgq-YIStmH2CNkTxmaufn8ZBiBAmhECZjCLj1guAinTSWPDNWewXrUwHqLsh7Z1bvNIe5CTqndtmDCeS0mgs2eDlK2MKjvQLeUEbAdemNONbH7Mfj5msmRuVmJK5DDSvSL352e6atuGb4I2hfASSPtk8d1J0rCMcgWGlEkl- -h_OOgI3y85I1Uovoc6TE758O8G4ANRqzA6_H1MWAsFQ3Fi9r1s7xGqsWmanRTRncGsxYt0TYTwZAavRJC52lCLJSSerh7q3rqAaHN9JXjlchYR3Ph6eDHI-mHgO-QjZ2frmeXM9M2BCyE86nx-Axk17k_QXE0x_cqh9JDozOtiwSOX4lltMBv18VgaspG6hIxXk_vql2ISVici5JfDyg67UY4WfbQhq5Dt96Y6Di1l2bXsdOjsXHVI6sBM9jfRDQE-bBjY8WCb17nTa1t_Fhw_RdTtRPnoDjfpCfzoX67qdWnpE39Q0PFnZAuLGa7RSDyg1FIAhhal6mNVZ_99lqacuH9vaNUkN6yBduAhp3m6-fY0hEmg3TXbqUmXrhNacRlwOMokxeWg5uzzwqED4xKjU-0YQZdHD_Gr1ttTaTC5SH-oCtWXwYOpO-jjN6zcMBRdPuFVp2XOsiqjA9vk29SmChZpVsJoh5z042s4V9fi71v01WT44u3z7SCW20zqXj0Xdj44ABf86JChI4zkIb8lllzNJH68w9X14Q45WEN1XOR8oDKpzIOZaa-TuQtyO1MrRqXdsF2PVST5Cq30pJrSoJ83DIxRYljJB2J_i9M8xBFxwTJ6nz_MjRyvlN4nThwS3dMZGuKlbg7WhCZx5WlSRawe2F_7vch_wRJk3f2_mC0]--></g></svg>