<?xml version="1.0" encoding="us-ascii" standalone="no"?><svg xmlns="http://www.w3.org/2000/svg" xmlns:xlink="http://www.w3.org/1999/xlink" contentStyleType="text/css" height="1045px" preserveAspectRatio="none" style="width:378px;height:1045px;background:#FFFFFF;" version="1.1" viewBox="0 0 378 1045" width="378px" zoomAndPan="magnify"><defs/><g><!--class Task--><g id="elem_Task"><rect codeLine="8" fill="#F1F1F1" height="1024.2969" id="Task" rx="2.5" ry="2.5" style="stroke:#181818;stroke-width:0.5;" width="357" x="7" y="7"/><ellipse cx="165.75" cy="23" fill="#ADD1B2" rx="11" ry="11" style="stroke:#181818;stroke-width:1.0;"/><path d="M168.5156,18.875 Q168.6719,18.6563 168.8594,18.5469 Q169.0469,18.4375 169.2656,18.4375 Q169.6406,18.4375 169.875,18.7031 Q170.1094,18.9531 170.1094,19.5625 L170.1094,21.0156 Q170.1094,21.625 169.875,21.8906 Q169.6406,22.1563 169.2656,22.1563 Q168.9219,22.1563 168.7188,21.9531 Q168.5156,21.7656 168.4063,21.25 Q168.3594,20.8906 168.1719,20.7031 Q167.8438,20.3281 167.2344,20.1094 Q166.625,19.8906 166,19.8906 Q165.2344,19.8906 164.5938,20.2188 Q163.9688,20.5469 163.4688,21.2969 Q162.9844,22.0469 162.9844,23.0781 L162.9844,24.1719 Q162.9844,25.4063 163.875,26.2344 Q164.7656,27.0469 166.3594,27.0469 Q167.2969,27.0469 167.9531,26.7969 Q168.3438,26.6406 168.7656,26.2031 Q169.0313,25.9375 169.1719,25.8594 Q169.3281,25.7813 169.5313,25.7813 Q169.8594,25.7813 170.1094,26.0469 Q170.375,26.2969 170.375,26.6406 Q170.375,26.9844 170.0313,27.3906 Q169.5313,27.9688 168.7344,28.2969 Q167.6563,28.75 166.3594,28.75 Q164.8438,28.75 163.6406,28.125 Q162.6563,27.625 161.9688,26.5625 Q161.2813,25.4844 161.2813,24.2031 L161.2813,23.0469 Q161.2813,21.7188 161.8906,20.5781 Q162.5156,19.4219 163.6094,18.8125 Q164.7031,18.1875 165.9375,18.1875 Q166.6719,18.1875 167.3125,18.3594 Q167.9688,18.5156 168.5156,18.875 Z " fill="#000000"/><text fill="#000000" font-family="sans-serif" font-size="14" lengthAdjust="spacing" textLength="31" x="186.25" y="28.7969">Task</text><line style="stroke:#181818;stroke-width:0.5;" x1="8" x2="363" y1="39" y2="39"/><text fill="#000000" font-family="sans-serif" font-size="14" lengthAdjust="spacing" textLength="72" x="13" y="58.1074">-String title;</text><text fill="#000000" font-family="sans-serif" font-size="14" lengthAdjust="spacing" textLength="119" x="13" y="76.7285">-String description;</text><text fill="#000000" font-family="sans-serif" font-size="14" lengthAdjust="spacing" textLength="134" x="13" y="95.3496">-TaskType taskType;</text><text fill="#000000" font-family="sans-serif" font-size="14" lengthAdjust="spacing" textLength="91" x="13" y="113.9707">-Status status;</text><text fill="#000000" font-family="sans-serif" font-size="14" lengthAdjust="spacing" textLength="170" x="13" y="132.5918">-GreenSpace greenSpace;</text><text fill="#000000" font-family="sans-serif" font-size="14" lengthAdjust="spacing" textLength="148" x="13" y="151.2129">-UrgencyType urgency;</text><text fill="#000000" font-family="sans-serif" font-size="14" lengthAdjust="spacing" textLength="209" x="13" y="169.834">-TaskDuration expectedDuration;</text><text fill="#000000" font-family="sans-serif" font-size="14" lengthAdjust="spacing" textLength="138" x="13" y="188.4551">-Team teamAssigned;</text><text fill="#000000" font-family="sans-serif" font-size="14" lengthAdjust="spacing" textLength="206" x="13" y="207.0762">-List&lt;Vehicle&gt; vehiclesAssigned;</text><text fill="#000000" font-family="sans-serif" font-size="14" lengthAdjust="spacing" textLength="187" x="13" y="225.6973">-WorkPeriod taskWorkPeriod;</text><text fill="#000000" font-family="sans-serif" font-size="14" lengthAdjust="spacing" textLength="4" x="13" y="244.3184">&#160;</text><text fill="#000000" font-family="sans-serif" font-size="14" lengthAdjust="spacing" textLength="298" x="13" y="285.5605">+Task(title, description, taskType, greenSpace,</text><text fill="#000000" font-family="sans-serif" font-size="14" lengthAdjust="spacing" textLength="195" x="13" y="304.1816">urgency, days, hours, minutes)</text><text fill="#000000" font-family="sans-serif" font-size="14" lengthAdjust="spacing" textLength="126" x="13" y="322.8027">+assignTeam(team)</text><text fill="#000000" font-family="sans-serif" font-size="14" lengthAdjust="spacing" textLength="251" x="13" y="341.4238">+assignVehicles(List&lt;Vehicle&gt; vehicles)</text><text fill="#000000" font-family="sans-serif" font-size="14" lengthAdjust="spacing" textLength="328" x="13" y="360.0449">+setTaskWorkPeriod(executionDate, workStartHour,</text><text fill="#000000" font-family="sans-serif" font-size="14" lengthAdjust="spacing" textLength="232" x="13" y="378.666">workStartMinutes, expectedDuration)</text><text fill="#000000" font-family="sans-serif" font-size="14" lengthAdjust="spacing" textLength="159" x="13" y="397.2871">+removeAssignedTeam()</text><text fill="#000000" font-family="sans-serif" font-size="14" lengthAdjust="spacing" textLength="176" x="13" y="415.9082">+removeAssignedVehicles()</text><text fill="#000000" font-family="sans-serif" font-size="14" lengthAdjust="spacing" textLength="4" x="13" y="434.5293">&#160;</text><line style="stroke:#181818;stroke-width:1.0;" x1="8" x2="158.5" y1="261.1426" y2="261.1426"/><text fill="#000000" font-family="sans-serif" font-size="14" lengthAdjust="spacing" textLength="54" x="158.5" y="266.4395">Methods</text><line style="stroke:#181818;stroke-width:1.0;" x1="212.5" x2="363" y1="261.1426" y2="261.1426"/><text fill="#000000" font-family="sans-serif" font-size="14" lengthAdjust="spacing" textLength="113" x="13" y="475.7715">-validateTitle(title)</text><text fill="#000000" font-family="sans-serif" font-size="14" lengthAdjust="spacing" textLength="204" x="13" y="494.3926">-validateDescription(description)</text><text fill="#000000" font-family="sans-serif" font-size="14" lengthAdjust="spacing" textLength="185" x="13" y="513.0137">-validateTaskType(taskType)</text><text fill="#000000" font-family="sans-serif" font-size="14" lengthAdjust="spacing" textLength="142" x="13" y="531.6348">-validateStatus(status)</text><text fill="#000000" font-family="sans-serif" font-size="14" lengthAdjust="spacing" textLength="167" x="13" y="550.2559">-validateUrgency(urgency)</text><text fill="#000000" font-family="sans-serif" font-size="14" lengthAdjust="spacing" textLength="4" x="13" y="568.877">&#160;</text><line style="stroke:#181818;stroke-width:1.0;stroke-dasharray:1.0,2.0;" x1="8" x2="125.5" y1="451.3535" y2="451.3535"/><text fill="#000000" font-family="sans-serif" font-size="14" lengthAdjust="spacing" textLength="120" x="125.5" y="456.6504">Validation methods</text><line style="stroke:#181818;stroke-width:1.0;stroke-dasharray:1.0,2.0;" x1="245.5" x2="363" y1="451.3535" y2="451.3535"/><text fill="#000000" font-family="sans-serif" font-size="14" lengthAdjust="spacing" textLength="65" x="13" y="610.1191">+getTitle()</text><text fill="#000000" font-family="sans-serif" font-size="14" lengthAdjust="spacing" textLength="109" x="13" y="628.7402">+getDescription()</text><text fill="#000000" font-family="sans-serif" font-size="14" lengthAdjust="spacing" textLength="101" x="13" y="647.3613">+getTaskType()</text><text fill="#000000" font-family="sans-serif" font-size="14" lengthAdjust="spacing" textLength="78" x="13" y="665.9824">+getStatus()</text><text fill="#000000" font-family="sans-serif" font-size="14" lengthAdjust="spacing" textLength="143" x="13" y="684.6035">+getTaskWorkPeriod()</text><text fill="#000000" font-family="sans-serif" font-size="14" lengthAdjust="spacing" textLength="118" x="13" y="703.2246">+getGreenSpace()</text><text fill="#000000" font-family="sans-serif" font-size="14" lengthAdjust="spacing" textLength="132" x="13" y="721.8457">+getTeamAssigned()</text><text fill="#000000" font-family="sans-serif" font-size="14" lengthAdjust="spacing" textLength="149" x="13" y="740.4668">+getVehiclesAssigned()</text><text fill="#000000" font-family="sans-serif" font-size="14" lengthAdjust="spacing" textLength="150" x="13" y="759.0879">+getExpectedDuration()</text><text fill="#000000" font-family="sans-serif" font-size="14" lengthAdjust="spacing" textLength="90" x="13" y="777.709">+getUrgency()</text><text fill="#000000" font-family="sans-serif" font-size="14" lengthAdjust="spacing" textLength="4" x="13" y="796.3301">&#160;</text><line style="stroke:#181818;stroke-width:1.0;stroke-dasharray:1.0,2.0;" x1="8" x2="163.5" y1="585.7012" y2="585.7012"/><text fill="#000000" font-family="sans-serif" font-size="14" lengthAdjust="spacing" textLength="44" x="163.5" y="590.998">getters</text><line style="stroke:#181818;stroke-width:1.0;stroke-dasharray:1.0,2.0;" x1="207.5" x2="363" y1="585.7012" y2="585.7012"/><text fill="#000000" font-family="sans-serif" font-size="14" lengthAdjust="spacing" textLength="86" x="13" y="837.5723">+setTitle(title)</text><text fill="#000000" font-family="sans-serif" font-size="14" lengthAdjust="spacing" textLength="177" x="13" y="856.1934">+setDescription(description)</text><text fill="#000000" font-family="sans-serif" font-size="14" lengthAdjust="spacing" textLength="115" x="13" y="874.8145">+setStatus(status)</text><text fill="#000000" font-family="sans-serif" font-size="14" lengthAdjust="spacing" textLength="158" x="13" y="893.4355">+setTaskType(taskType)</text><text fill="#000000" font-family="sans-serif" font-size="14" lengthAdjust="spacing" textLength="194" x="13" y="912.0566">+setGreenSpace(greenSpace)</text><text fill="#000000" font-family="sans-serif" font-size="14" lengthAdjust="spacing" textLength="220" x="13" y="930.6777">+setTeamAssigned(teamAssigned)</text><text fill="#000000" font-family="sans-serif" font-size="14" lengthAdjust="spacing" textLength="345" x="13" y="949.2988">+setVehiclesAssigned(List&lt;Vehicle&gt; vehiclesAssigned)</text><text fill="#000000" font-family="sans-serif" font-size="14" lengthAdjust="spacing" textLength="212" x="13" y="967.9199">+setTaskWorkPeriod(workPeriod)</text><text fill="#000000" font-family="sans-serif" font-size="14" lengthAdjust="spacing" textLength="140" x="13" y="986.541">+setUrgency(urgency)</text><text fill="#000000" font-family="sans-serif" font-size="14" lengthAdjust="spacing" textLength="4" x="13" y="1005.1621">&#160;</text><text fill="#000000" font-family="sans-serif" font-size="14" lengthAdjust="spacing" textLength="4" x="13" y="1023.7832">&#160;</text><line style="stroke:#181818;stroke-width:1.0;stroke-dasharray:1.0,2.0;" x1="8" x2="164" y1="813.1543" y2="813.1543"/><text fill="#000000" font-family="sans-serif" font-size="14" lengthAdjust="spacing" textLength="43" x="164" y="818.4512">setters</text><line style="stroke:#181818;stroke-width:1.0;stroke-dasharray:1.0,2.0;" x1="207" x2="363" y1="813.1543" y2="813.1543"/></g><!--SRC=[VLJ1Yjim4BtxAtHRXtL2xriA2rdQXLqe94qllQZsr1Qn9QCP9-kM_djboR8dJhg1nDAy9-kzDrBkyAXqAwriH6EqoIjh6X1aEqXcf9NvKPQmexu6OI4dgSkQ4x2IXJahNOfViaQEr4e3zIs8rjJzC4dkRe36aadOghoMY8z4Llti29vpetVgDuWFYGV4Nk9H_4c4-wp5ph7SngIeXeVBMW6OMzMICZeYmzBzi2MDWtc9f0u5-aSiVhO0UkViWoYdOGI_sH9qtlktTM7CTzbsLWux2tXhNMHGnC940kUKtCyZeYer515uKKWV3r2fl8PFuXG6k6HzD_Ru5QmoXVSoJn-Im5Y_0bMcmFNQp- -zgjJdbF5eiYcBZBdCVkZHb2FB7ZDHcSwwHwEqwmcknfTABslmaWvUBikZ2KnlMufa1DfVM4ZX3V9k4BULv6IT7U8QPEcBq-2KJVFN82Qx2Zc-sa9ZJX2pyp9lGvFKLOXlipd8MXMXXKr8ShCPipy52FP3c27IrGBQpW6dBEmbBPx7DFPWIGZdCWtdSWcEHp0TEpL9Bu48RDHxBzmyI5tD1IwGbIT1h3PgMB1OknWoNvaBFZlcl7vO76wEFIrQoh5eV7AC2ySO7RFc-EgxVV6C6ubFH_H6gpp6NCzNYA_b_lcTPvohBDx_7_Z_vJbFGyQvFYh9N_TD_W40]--></g></svg>