<?xml version="1.0" encoding="us-ascii" standalone="no"?><svg xmlns="http://www.w3.org/2000/svg" xmlns:xlink="http://www.w3.org/1999/xlink" contentStyleType="text/css" height="932.4px" preserveAspectRatio="none" style="width:1141px;height:932px;background:#FFFFFF;" version="1.1" viewBox="0 0 1141 932" width="1141.2px" zoomAndPan="magnify"><defs/><g><text fill="#000000" font-family="sans-serif" font-size="12.6" font-weight="bold" lengthAdjust="spacing" textLength="169.2" x="484.65" y="27.0967">US022 - Sequence Diagram</text><rect fill="#FFFFFF" height="721.8211" style="stroke:#181818;stroke-width:0.9;" width="9" x="30.15" y="119.918"/><rect fill="#FFFFFF" height="164.4715" style="stroke:#181818;stroke-width:0.9;" width="9" x="324.45" y="140.8799"/><rect fill="#FFFFFF" height="119.3238" style="stroke:#181818;stroke-width:0.9;" width="9" x="324.45" y="333.5133"/><rect fill="#FFFFFF" height="360.74" style="stroke:#181818;stroke-width:0.9;" width="9" x="324.45" y="480.999"/><rect fill="#FFFFFF" height="84.4857" style="stroke:#181818;stroke-width:0.9;" width="9" x="502.65" y="169.0418"/><rect fill="#FFFFFF" height="259.4162" style="stroke:#181818;stroke-width:0.9;" width="9" x="502.65" y="531.6609"/><rect fill="#FFFFFF" height="28.1619" style="stroke:#181818;stroke-width:0.9;" width="9" x="631.35" y="197.2037"/><rect fill="#FFFFFF" height="203.0924" style="stroke:#181818;stroke-width:0.9;" width="9" x="694.35" y="559.8229"/><rect fill="none" height="96.1857" style="stroke:#000000;stroke-width:1.35;" width="402.3" x="9" y="267.0275"/><line style="stroke:#181818;stroke-width:0.45;stroke-dasharray:5.0,5.0;" x1="34.2" x2="34.2" y1="110.918" y2="857.9391"/><line style="stroke:#181818;stroke-width:0.45;stroke-dasharray:5.0,5.0;" x1="328.5" x2="328.5" y1="110.918" y2="857.9391"/><line style="stroke:#181818;stroke-width:0.45;stroke-dasharray:5.0,5.0;" x1="506.7" x2="506.7" y1="110.918" y2="857.9391"/><line style="stroke:#181818;stroke-width:0.45;stroke-dasharray:5.0,5.0;" x1="635.4" x2="635.4" y1="110.918" y2="857.9391"/><line style="stroke:#181818;stroke-width:0.45;stroke-dasharray:5.0,5.0;" x1="698.4" x2="698.4" y1="110.918" y2="857.9391"/><line style="stroke:#181818;stroke-width:0.45;stroke-dasharray:5.0,5.0;" x1="877.95" x2="877.95" y1="595.6523" y2="857.9391"/><text fill="#000000" font-family="sans-serif" font-size="12.6" lengthAdjust="spacing" textLength="27.9" x="18" y="107.7557">GSM</text><ellipse cx="34.65" cy="47.809" fill="#E3E3E3" rx="7.2" ry="7.2" style="stroke:#181818;stroke-width:0.45;"/><path d="M34.65,55.009 L34.65,79.309 M22.95,62.209 L46.35,62.209 M34.65,79.309 L22.95,92.809 M34.65,79.309 L46.35,92.809 " fill="none" style="stroke:#181818;stroke-width:0.45;"/><text fill="#000000" font-family="sans-serif" font-size="12.6" lengthAdjust="spacing" textLength="27.9" x="18" y="870.6357">GSM</text><ellipse cx="34.65" cy="881.448" fill="#E3E3E3" rx="7.2" ry="7.2" style="stroke:#181818;stroke-width:0.45;"/><path d="M34.65,888.648 L34.65,912.948 M22.95,895.848 L46.35,895.848 M34.65,912.948 L22.95,926.448 M34.65,912.948 L46.35,926.448 " fill="none" style="stroke:#181818;stroke-width:0.45;"/><rect fill="#E3E3E3" height="29.359" rx="2.25" ry="2.25" style="stroke:#181818;stroke-width:0.45;" width="146.7" x="255.6" y="80.659"/><text fill="#000000" font-family="sans-serif" font-size="12.6" lengthAdjust="spacing" textLength="134.1" x="261.9" y="100.5557">:AddNewEntryAgendaUI</text><rect fill="#E3E3E3" height="29.359" rx="2.25" ry="2.25" style="stroke:#181818;stroke-width:0.45;" width="146.7" x="255.6" y="857.0391"/><text fill="#000000" font-family="sans-serif" font-size="12.6" lengthAdjust="spacing" textLength="134.1" x="261.9" y="876.9357">:AddNewEntryAgendaUI</text><rect fill="#E3E3E3" height="29.359" rx="2.25" ry="2.25" style="stroke:#181818;stroke-width:0.45;" width="191.7" x="411.3" y="80.659"/><text fill="#000000" font-family="sans-serif" font-size="12.6" lengthAdjust="spacing" textLength="179.1" x="417.6" y="100.5557">:AddNewEntryAgendaController</text><rect fill="#E3E3E3" height="29.359" rx="2.25" ry="2.25" style="stroke:#181818;stroke-width:0.45;" width="191.7" x="411.3" y="857.0391"/><text fill="#000000" font-family="sans-serif" font-size="12.6" lengthAdjust="spacing" textLength="179.1" x="417.6" y="876.9357">:AddNewEntryAgendaController</text><rect fill="#E3E3E3" height="29.359" rx="2.25" ry="2.25" style="stroke:#181818;stroke-width:0.45;" width="47.7" x="612" y="80.659"/><text fill="#000000" font-family="sans-serif" font-size="12.6" lengthAdjust="spacing" textLength="35.1" x="618.3" y="100.5557">:ToDo</text><rect fill="#E3E3E3" height="29.359" rx="2.25" ry="2.25" style="stroke:#181818;stroke-width:0.45;" width="47.7" x="612" y="857.0391"/><text fill="#000000" font-family="sans-serif" font-size="12.6" lengthAdjust="spacing" textLength="35.1" x="618.3" y="876.9357">:ToDo</text><rect fill="#E3E3E3" height="29.359" rx="2.25" ry="2.25" style="stroke:#181818;stroke-width:0.45;" width="60.3" x="668.7" y="80.659"/><text fill="#000000" font-family="sans-serif" font-size="12.6" lengthAdjust="spacing" textLength="47.7" x="675" y="100.5557">:Agenda</text><rect fill="#E3E3E3" height="29.359" rx="2.25" ry="2.25" style="stroke:#181818;stroke-width:0.45;" width="60.3" x="668.7" y="857.0391"/><text fill="#000000" font-family="sans-serif" font-size="12.6" lengthAdjust="spacing" textLength="47.7" x="675" y="876.9357">:Agenda</text><rect fill="#E3E3E3" height="29.359" rx="2.25" ry="2.25" style="stroke:#181818;stroke-width:0.45;" width="44.1" x="856.35" y="857.0391"/><text fill="#000000" font-family="sans-serif" font-size="12.6" lengthAdjust="spacing" textLength="31.5" x="862.65" y="876.9357">:Task</text><rect fill="#FFFFFF" height="721.8211" style="stroke:#181818;stroke-width:0.9;" width="9" x="30.15" y="119.918"/><rect fill="#FFFFFF" height="164.4715" style="stroke:#181818;stroke-width:0.9;" width="9" x="324.45" y="140.8799"/><rect fill="#FFFFFF" height="119.3238" style="stroke:#181818;stroke-width:0.9;" width="9" x="324.45" y="333.5133"/><rect fill="#FFFFFF" height="360.74" style="stroke:#181818;stroke-width:0.9;" width="9" x="324.45" y="480.999"/><rect fill="#FFFFFF" height="84.4857" style="stroke:#181818;stroke-width:0.9;" width="9" x="502.65" y="169.0418"/><rect fill="#FFFFFF" height="259.4162" style="stroke:#181818;stroke-width:0.9;" width="9" x="502.65" y="531.6609"/><rect fill="#FFFFFF" height="28.1619" style="stroke:#181818;stroke-width:0.9;" width="9" x="631.35" y="197.2037"/><rect fill="#FFFFFF" height="203.0924" style="stroke:#181818;stroke-width:0.9;" width="9" x="694.35" y="559.8229"/><polygon fill="#181818" points="313.65,137.2799,322.65,140.8799,313.65,144.4799,317.25,140.8799" style="stroke:#181818;stroke-width:0.9;"/><line style="stroke:#181818;stroke-width:0.9;" x1="39.15" x2="319.05" y1="140.8799" y2="140.8799"/><text fill="#000000" font-family="sans-serif" font-size="11.7" font-weight="bold" lengthAdjust="spacing" textLength="6.3" x="45.45" y="136.1435">1</text><text fill="#000000" font-family="sans-serif" font-size="11.7" lengthAdjust="spacing" textLength="186.3" x="55.35" y="136.1435">Asks to add a new entry on Agenda</text><polygon fill="#181818" points="491.85,165.4418,500.85,169.0418,491.85,172.6418,495.45,169.0418" style="stroke:#181818;stroke-width:0.9;"/><line style="stroke:#181818;stroke-width:0.9;" x1="333.45" x2="497.25" y1="169.0418" y2="169.0418"/><text fill="#000000" font-family="sans-serif" font-size="11.7" font-weight="bold" lengthAdjust="spacing" textLength="6.3" x="339.75" y="164.3054">2</text><text fill="#000000" font-family="sans-serif" font-size="11.7" lengthAdjust="spacing" textLength="69.3" x="349.65" y="164.3054">getToDoList()</text><polygon fill="#181818" points="620.55,193.6037,629.55,197.2037,620.55,200.8037,624.15,197.2037" style="stroke:#181818;stroke-width:0.9;"/><line style="stroke:#181818;stroke-width:0.9;" x1="511.65" x2="625.95" y1="197.2037" y2="197.2037"/><text fill="#000000" font-family="sans-serif" font-size="11.7" font-weight="bold" lengthAdjust="spacing" textLength="6.3" x="517.95" y="192.4673">3</text><text fill="#000000" font-family="sans-serif" font-size="11.7" lengthAdjust="spacing" textLength="69.3" x="527.85" y="192.4673">getToDoList()</text><polygon fill="#181818" points="521.55,221.7656,512.55,225.3656,521.55,228.9656,517.95,225.3656" style="stroke:#181818;stroke-width:0.9;"/><line style="stroke:#181818;stroke-width:0.9;stroke-dasharray:2.0,2.0;" x1="516.15" x2="634.95" y1="225.3656" y2="225.3656"/><text fill="#000000" font-family="sans-serif" font-size="11.7" font-weight="bold" lengthAdjust="spacing" textLength="6.3" x="526.95" y="220.6292">4</text><text fill="#000000" font-family="sans-serif" font-size="11.7" lengthAdjust="spacing" textLength="43.2" x="536.85" y="220.6292">toDoList</text><polygon fill="#181818" points="343.35,249.9275,334.35,253.5275,343.35,257.1275,339.75,253.5275" style="stroke:#181818;stroke-width:0.9;"/><line style="stroke:#181818;stroke-width:0.9;stroke-dasharray:2.0,2.0;" x1="337.95" x2="506.25" y1="253.5275" y2="253.5275"/><text fill="#000000" font-family="sans-serif" font-size="11.7" font-weight="bold" lengthAdjust="spacing" textLength="6.3" x="348.75" y="248.7911">5</text><text fill="#000000" font-family="sans-serif" font-size="11.7" lengthAdjust="spacing" textLength="43.2" x="358.65" y="248.7911">toDoList</text><path d="M9,267.0275 L74.7,267.0275 L74.7,275.3895 L65.7,284.3895 L9,284.3895 L9,267.0275 " fill="#EEEEEE" style="stroke:#000000;stroke-width:1.35;"/><rect fill="none" height="96.1857" style="stroke:#000000;stroke-width:1.35;" width="402.3" x="9" y="267.0275"/><text fill="#000000" font-family="sans-serif" font-size="11.7" font-weight="bold" lengthAdjust="spacing" textLength="25.2" x="22.5" y="280.553">loop</text><text fill="#000000" font-family="sans-serif" font-size="9.9" font-weight="bold" lengthAdjust="spacing" textLength="170.1" x="88.2" y="279.5106">[until doesn't select a valid option]</text><polygon fill="#181818" points="49.05,301.7514,40.05,305.3514,49.05,308.9514,45.45,305.3514" style="stroke:#181818;stroke-width:0.9;"/><line style="stroke:#181818;stroke-width:0.9;stroke-dasharray:2.0,2.0;" x1="43.65" x2="328.05" y1="305.3514" y2="305.3514"/><text fill="#000000" font-family="sans-serif" font-size="11.7" font-weight="bold" lengthAdjust="spacing" textLength="6.3" x="54.45" y="300.6149">6</text><text fill="#000000" font-family="sans-serif" font-size="11.7" lengthAdjust="spacing" textLength="253.8" x="64.35" y="300.6149">Shows the To-Do list and asks to select the task</text><polygon fill="#181818" points="313.65,329.9133,322.65,333.5133,313.65,337.1133,317.25,333.5133" style="stroke:#181818;stroke-width:0.9;"/><line style="stroke:#181818;stroke-width:0.9;" x1="39.15" x2="319.05" y1="333.5133" y2="333.5133"/><text fill="#000000" font-family="sans-serif" font-size="11.7" font-weight="bold" lengthAdjust="spacing" textLength="6.3" x="45.45" y="328.7769">7</text><text fill="#000000" font-family="sans-serif" font-size="11.7" lengthAdjust="spacing" textLength="75.6" x="55.35" y="328.7769">Selects a task</text><line style="stroke:#181818;stroke-width:0.9;stroke-dasharray:2.0,2.0;" x1="333.45" x2="371.25" y1="390.4752" y2="390.4752"/><line style="stroke:#181818;stroke-width:0.9;stroke-dasharray:2.0,2.0;" x1="371.25" x2="371.25" y1="390.4752" y2="402.1752"/><line style="stroke:#181818;stroke-width:0.9;stroke-dasharray:2.0,2.0;" x1="334.35" x2="371.25" y1="402.1752" y2="402.1752"/><polygon fill="#181818" points="343.35,398.5752,334.35,402.1752,343.35,405.7752,339.75,402.1752" style="stroke:#181818;stroke-width:0.9;"/><text fill="#000000" font-family="sans-serif" font-size="11.7" font-weight="bold" lengthAdjust="spacing" textLength="6.3" x="339.75" y="385.7388">8</text><text fill="#000000" font-family="sans-serif" font-size="11.7" lengthAdjust="spacing" textLength="79.2" x="349.65" y="385.7388">keepData(task)</text><polygon fill="#181818" points="49.05,449.2371,40.05,452.8371,49.05,456.4371,45.45,452.8371" style="stroke:#181818;stroke-width:0.9;"/><line style="stroke:#181818;stroke-width:0.9;stroke-dasharray:2.0,2.0;" x1="43.65" x2="328.05" y1="452.8371" y2="452.8371"/><text fill="#000000" font-family="sans-serif" font-size="11.7" font-weight="bold" lengthAdjust="spacing" textLength="6.3" x="54.45" y="448.1007">9</text><text fill="#000000" font-family="sans-serif" font-size="11.7" lengthAdjust="spacing" textLength="214.2" x="64.35" y="448.1007">Shows all data and requests confirmation</text><polygon fill="#181818" points="313.65,477.399,322.65,480.999,313.65,484.599,317.25,480.999" style="stroke:#181818;stroke-width:0.9;"/><line style="stroke:#181818;stroke-width:0.9;" x1="39.15" x2="319.05" y1="480.999" y2="480.999"/><text fill="#000000" font-family="sans-serif" font-size="11.7" font-weight="bold" lengthAdjust="spacing" textLength="12.6" x="45.45" y="476.2626">10</text><text fill="#000000" font-family="sans-serif" font-size="11.7" lengthAdjust="spacing" textLength="72" x="61.65" y="476.2626">Confirms data</text><polygon fill="#181818" points="491.85,528.0609,500.85,531.6609,491.85,535.2609,495.45,531.6609" style="stroke:#181818;stroke-width:0.9;"/><line style="stroke:#181818;stroke-width:0.9;" x1="333.45" x2="497.25" y1="531.6609" y2="531.6609"/><text fill="#000000" font-family="sans-serif" font-size="11.7" font-weight="bold" lengthAdjust="spacing" textLength="12.6" x="339.75" y="526.9245">11</text><text fill="#000000" font-family="sans-serif" font-size="11.7" lengthAdjust="spacing" textLength="128.7" x="355.95" y="526.9245">addEntryToAgenda(task)</text><polygon fill="#181818" points="683.55,556.2229,692.55,559.8229,683.55,563.4229,687.15,559.8229" style="stroke:#181818;stroke-width:0.9;"/><line style="stroke:#181818;stroke-width:0.9;" x1="511.65" x2="688.95" y1="559.8229" y2="559.8229"/><text fill="#000000" font-family="sans-serif" font-size="11.7" font-weight="bold" lengthAdjust="spacing" textLength="12.6" x="517.95" y="555.0864">12</text><text fill="#000000" font-family="sans-serif" font-size="11.7" lengthAdjust="spacing" textLength="128.7" x="534.15" y="555.0864">addEntryToAgenda(task)</text><polygon fill="#181818" points="845.55,584.3848,854.55,587.9848,845.55,591.5848,849.15,587.9848" style="stroke:#181818;stroke-width:0.9;"/><line style="stroke:#181818;stroke-width:0.9;" x1="703.35" x2="850.95" y1="587.9848" y2="587.9848"/><text fill="#000000" font-family="sans-serif" font-size="11.7" font-weight="bold" lengthAdjust="spacing" textLength="12.6" x="709.65" y="583.2483">13</text><text fill="#000000" font-family="sans-serif" font-size="11.7" lengthAdjust="spacing" textLength="115.2" x="725.85" y="583.2483">setTaskStatus(status)</text><rect fill="#E3E3E3" height="29.359" rx="2.25" ry="2.25" style="stroke:#181818;stroke-width:0.45;" width="44.1" x="856.35" y="567.0229"/><text fill="#000000" font-family="sans-serif" font-size="12.6" lengthAdjust="spacing" textLength="31.5" x="862.65" y="586.9195">:Task</text><path d="M882.9,610.7818 L882.9,697.1818 L1134.9,697.1818 L1134.9,619.7818 L1125.9,610.7818 L882.9,610.7818 " fill="#FAFAFA" style="stroke:#181818;stroke-width:0.45;"/><path d="M1125.9,610.7818 L1125.9,619.7818 L1134.9,619.7818 L1125.9,610.7818 " fill="#FAFAFA" style="stroke:#181818;stroke-width:0.45;"/><text fill="#000000" font-family="sans-serif" font-size="11.7" lengthAdjust="spacing" textLength="233.1" x="888.3" y="627.9073">The task was pending on ToDo list by default</text><text fill="#000000" font-family="sans-serif" font-size="11.7" lengthAdjust="spacing" textLength="3.6" x="888.3" y="643.4692">&#160;</text><text fill="#000000" font-family="sans-serif" font-size="11.7" lengthAdjust="spacing" textLength="225.9" x="888.3" y="659.0312">After adding the task to Agenda, the dafault</text><text fill="#000000" font-family="sans-serif" font-size="11.7" lengthAdjust="spacing" textLength="126" x="888.3" y="674.5931">status is set to planned.</text><text fill="#000000" font-family="sans-serif" font-size="11.7" lengthAdjust="spacing" textLength="3.6" x="888.3" y="690.155">&#160;</text><line style="stroke:#181818;stroke-width:0.9;stroke-dasharray:2.0,2.0;" x1="703.35" x2="741.15" y1="723.0533" y2="723.0533"/><line style="stroke:#181818;stroke-width:0.9;stroke-dasharray:2.0,2.0;" x1="741.15" x2="741.15" y1="723.0533" y2="734.7533"/><line style="stroke:#181818;stroke-width:0.9;stroke-dasharray:2.0,2.0;" x1="704.25" x2="741.15" y1="734.7533" y2="734.7533"/><polygon fill="#181818" points="713.25,731.1533,704.25,734.7533,713.25,738.3533,709.65,734.7533" style="stroke:#181818;stroke-width:0.9;"/><text fill="#000000" font-family="sans-serif" font-size="11.7" font-weight="bold" lengthAdjust="spacing" textLength="12.6" x="709.65" y="718.3169">14</text><text fill="#000000" font-family="sans-serif" font-size="11.7" lengthAdjust="spacing" textLength="73.8" x="725.85" y="718.3169">addTask(task)</text><polygon fill="#181818" points="521.55,759.3152,512.55,762.9152,521.55,766.5152,517.95,762.9152" style="stroke:#181818;stroke-width:0.9;"/><line style="stroke:#181818;stroke-width:0.9;stroke-dasharray:2.0,2.0;" x1="516.15" x2="697.95" y1="762.9152" y2="762.9152"/><text fill="#000000" font-family="sans-serif" font-size="11.7" font-weight="bold" lengthAdjust="spacing" textLength="12.6" x="526.95" y="758.1788">15</text><text fill="#000000" font-family="sans-serif" font-size="11.7" lengthAdjust="spacing" textLength="95.4" x="543.15" y="758.1788">operation success</text><polygon fill="#181818" points="343.35,787.4771,334.35,791.0771,343.35,794.6771,339.75,791.0771" style="stroke:#181818;stroke-width:0.9;"/><line style="stroke:#181818;stroke-width:0.9;stroke-dasharray:2.0,2.0;" x1="337.95" x2="506.25" y1="791.0771" y2="791.0771"/><text fill="#000000" font-family="sans-serif" font-size="11.7" font-weight="bold" lengthAdjust="spacing" textLength="12.6" x="348.75" y="786.3407">16</text><text fill="#000000" font-family="sans-serif" font-size="11.7" lengthAdjust="spacing" textLength="95.4" x="364.95" y="786.3407">operation success</text><polygon fill="#181818" points="44.55,838.1391,35.55,841.7391,44.55,845.3391,40.95,841.7391" style="stroke:#181818;stroke-width:0.9;"/><line style="stroke:#181818;stroke-width:0.9;stroke-dasharray:2.0,2.0;" x1="39.15" x2="328.05" y1="841.7391" y2="841.7391"/><text fill="#000000" font-family="sans-serif" font-size="11.7" font-weight="bold" lengthAdjust="spacing" textLength="12.6" x="49.95" y="837.0026">17</text><text fill="#000000" font-family="sans-serif" font-size="11.7" lengthAdjust="spacing" textLength="137.7" x="66.15" y="837.0026">Display operation success</text><!--SRC=[ZLHDRzim3BtxLn2vB2cMOUWnXm51CWm5kXtcv0UmDkC8KIHFeXi4o8yV9N_CTjokkbYG-1xvg4Vxap8bEZp3sHgR7Pqz4x2hAF7TJOdP2GjA-Qe976MCfj3z07_4t5wKAU20sbEIi689tQTV7nzX2IdzgSXa15k5XSGd2LPiJNL-8IVxZAs3sO_qvmpGWtmJOMMLgH8DmsorplDVTFbks5tN1PaSzqynSl_qly2DbRtLcbm4R7Q_dqUGdTtQU1SsOxh84M_hxHYB_bHZPHDrg5TaYWeIa2KRM7wJEc45Qt_om1Ompm71q0Ker0dMjEG1qN68jdWGbk259HGlF0LnAFLPUPulXfWehqF5UC65w4dS01lbTyTXHTpoNs9kq5rGJc-Wwyojy06kXnbMgwqjeJAiDEIMlFd4u4cBrQHPhwXL3hPaPSsWAP8Yj7W5wT5UfBl7KCbIojQI3z18fvkkDrmXWiDZZMffkzr_i3H2lEJl4FtujexRxTRjvHcJSO6HwqHKRf5n7gWM0-nxWb1BDmGMfRWmH5uAogmvA7V6hXtl2Ld1fWxtaIdva8w1uSImSQ9sjlPfe-7UGiC7xLkm1dw0Qy3NZCNWCgo6BLXRq0yFmkl5tB9F6RdoSny_YtkaiKBhL75ai8TwQc5YxHgNm4LckvHauSScSned8bhhvIfDFs2bEPbaM1-ON50RaAtfWW_hsZ_7innhXYc2MW8e7wG5OAdH6Cg_tESJmYZixKQDNY3e7Xbn0j6ylYt9HQU1hxACl4-IOQAU-Te7cp91EmdtV1D4GoUDdTaDoLPvQSjriiQ9kOYhTnP_qty1]--></g></svg>