<?xml version="1.0" encoding="us-ascii" standalone="no"?><svg xmlns="http://www.w3.org/2000/svg" xmlns:xlink="http://www.w3.org/1999/xlink" contentStyleType="text/css" height="1332.8px" preserveAspectRatio="none" style="width:1581px;height:1332px;background:#FFFFFF;" version="1.1" viewBox="0 0 1581 1332" width="1582px" zoomAndPan="magnify"><defs/><g><text fill="#000000" font-family="sans-serif" font-size="9.8" font-weight="bold" lengthAdjust="spacing" textLength="131.6" x="726.075" y="21.0752">US022 - Sequence Diagram</text><rect fill="#FFFFFF" height="1168.7812" style="stroke:#181818;stroke-width:0.6999999999999998;" width="7" x="23.45" y="93.2695"/><rect fill="#FFFFFF" height="129.0639" style="stroke:#181818;stroke-width:0.6999999999999998;" width="7" x="252.35" y="109.5732"/><rect fill="#FFFFFF" height="135.9148" style="stroke:#181818;stroke-width:0.6999999999999998;" width="7" x="252.35" y="260.5408"/><rect fill="#FFFFFF" height="675.5766" style="stroke:#181818;stroke-width:0.6999999999999998;" width="7" x="252.35" y="586.4742"/><rect fill="#FFFFFF" height="57.8074" style="stroke:#181818;stroke-width:0.6999999999999998;" width="7" x="443.45" y="396.4557"/><rect fill="#FFFFFF" height="92.8074" style="stroke:#181818;stroke-width:0.6999999999999998;" width="7" x="443.45" y="493.6668"/><rect fill="#FFFFFF" height="66.8527" style="stroke:#181818;stroke-width:0.6999999999999998;" width="7" x="639.45" y="131.477"/><rect fill="#FFFFFF" height="614.2691" style="stroke:#181818;stroke-width:0.6999999999999998;" width="7" x="639.45" y="625.8779"/><rect fill="#FFFFFF" height="21.9037" style="stroke:#181818;stroke-width:0.6999999999999998;" width="7" x="754.95" y="758.7344"/><rect fill="#FFFFFF" height="21.9037" style="stroke:#181818;stroke-width:0.6999999999999998;" width="7" x="754.95" y="1078.19"/><rect fill="#FFFFFF" height="21.9037" style="stroke:#181818;stroke-width:0.6999999999999998;" width="7" x="829.85" y="802.5418"/><rect fill="#FFFFFF" height="21.9037" style="stroke:#181818;stroke-width:0.6999999999999998;" width="7" x="829.85" y="1121.9975"/><rect fill="#FFFFFF" height="209.9371" style="stroke:#181818;stroke-width:0.6999999999999998;" width="7" x="1004.85" y="846.3492"/><rect fill="#FFFFFF" height="52.4385" style="stroke:#181818;stroke-width:0.6999999999999998;" width="7" x="1212.75" y="1165.8049"/><rect fill="none" height="105.8148" style="stroke:#000000;stroke-width:1.0499999999999998;" width="372.75" x="7" y="208.8297"/><rect fill="none" height="123.3148" style="stroke:#000000;stroke-width:1.0499999999999998;" width="549.85" x="7" y="424.4557"/><line style="stroke:#181818;stroke-width:0.3499999999999999;stroke-dasharray:5.0,5.0;" x1="26.6" x2="26.6" y1="86.2695" y2="1274.6508"/><line style="stroke:#181818;stroke-width:0.3499999999999999;stroke-dasharray:5.0,5.0;" x1="255.5" x2="255.5" y1="86.2695" y2="1274.6508"/><line style="stroke:#181818;stroke-width:0.3499999999999999;stroke-dasharray:5.0,5.0;" x1="446.95" x2="446.95" y1="86.2695" y2="1274.6508"/><line style="stroke:#181818;stroke-width:0.3499999999999999;stroke-dasharray:5.0,5.0;" x1="642.6" x2="642.6" y1="86.2695" y2="1274.6508"/><line style="stroke:#181818;stroke-width:0.3499999999999999;stroke-dasharray:5.0,5.0;" x1="758.1" x2="758.1" y1="86.2695" y2="1274.6508"/><line style="stroke:#181818;stroke-width:0.3499999999999999;stroke-dasharray:5.0,5.0;" x1="833" x2="833" y1="86.2695" y2="1274.6508"/><line style="stroke:#181818;stroke-width:0.3499999999999999;stroke-dasharray:5.0,5.0;" x1="1008" x2="1008" y1="86.2695" y2="1274.6508"/><line style="stroke:#181818;stroke-width:0.3499999999999999;stroke-dasharray:5.0,5.0;" x1="1215.9" x2="1215.9" y1="86.2695" y2="1274.6508"/><line style="stroke:#181818;stroke-width:0.3499999999999999;stroke-dasharray:5.0,5.0;" x1="1396.15" x2="1396.15" y1="1193.6723" y2="1274.6508"/><text fill="#000000" font-family="sans-serif" font-size="9.8" lengthAdjust="spacing" textLength="21.7" x="14" y="83.81">GSM</text><ellipse cx="26.95" cy="37.1848" fill="#E3E3E3" rx="5.6" ry="5.6" style="stroke:#181818;stroke-width:0.3499999999999999;"/><path d="M26.95,42.7848 L26.95,61.6848 M17.85,48.3848 L36.05,48.3848 M26.95,61.6848 L17.85,72.1848 M26.95,61.6848 L36.05,72.1848 " fill="none" style="stroke:#181818;stroke-width:0.3499999999999999;"/><text fill="#000000" font-family="sans-serif" font-size="9.8" lengthAdjust="spacing" textLength="21.7" x="14" y="1284.526">GSM</text><ellipse cx="26.95" cy="1292.9355" fill="#E3E3E3" rx="5.6" ry="5.6" style="stroke:#181818;stroke-width:0.3499999999999999;"/><path d="M26.95,1298.5355 L26.95,1317.4355 M17.85,1304.1355 L36.05,1304.1355 M26.95,1317.4355 L17.85,1327.9355 M26.95,1317.4355 L36.05,1327.9355 " fill="none" style="stroke:#181818;stroke-width:0.3499999999999999;"/><rect fill="#E3E3E3" height="22.8348" rx="1.75" ry="1.75" style="stroke:#181818;stroke-width:0.3499999999999999;" width="114.1" x="198.8" y="62.7348"/><text fill="#000000" font-family="sans-serif" font-size="9.8" lengthAdjust="spacing" textLength="104.3" x="203.7" y="78.21">:AddNewEntryAgendaUI</text><rect fill="#E3E3E3" height="22.8348" rx="1.75" ry="1.75" style="stroke:#181818;stroke-width:0.3499999999999999;" width="114.1" x="198.8" y="1273.9508"/><text fill="#000000" font-family="sans-serif" font-size="9.8" lengthAdjust="spacing" textLength="104.3" x="203.7" y="1289.426">:AddNewEntryAgendaUI</text><rect fill="#E3E3E3" height="22.8348" rx="1.75" ry="1.75" style="stroke:#181818;stroke-width:0.3499999999999999;" width="95.2" x="399.35" y="62.7348"/><text fill="#000000" font-family="sans-serif" font-size="9.8" lengthAdjust="spacing" textLength="85.4" x="404.25" y="78.21">:InsertDatePopupUI</text><rect fill="#E3E3E3" height="22.8348" rx="1.75" ry="1.75" style="stroke:#181818;stroke-width:0.3499999999999999;" width="95.2" x="399.35" y="1273.9508"/><text fill="#000000" font-family="sans-serif" font-size="9.8" lengthAdjust="spacing" textLength="85.4" x="404.25" y="1289.426">:InsertDatePopupUI</text><rect fill="#E3E3E3" height="22.8348" rx="1.75" ry="1.75" style="stroke:#181818;stroke-width:0.3499999999999999;" width="149.1" x="568.4" y="62.7348"/><text fill="#000000" font-family="sans-serif" font-size="9.8" lengthAdjust="spacing" textLength="139.3" x="573.3" y="78.21">:AddNewEntryAgendaController</text><rect fill="#E3E3E3" height="22.8348" rx="1.75" ry="1.75" style="stroke:#181818;stroke-width:0.3499999999999999;" width="149.1" x="568.4" y="1273.9508"/><text fill="#000000" font-family="sans-serif" font-size="9.8" lengthAdjust="spacing" textLength="139.3" x="573.3" y="1289.426">:AddNewEntryAgendaController</text><rect fill="#E3E3E3" height="22.8348" rx="1.75" ry="1.75" style="stroke:#181818;stroke-width:0.3499999999999999;" width="67.9" x="724.5" y="62.7348"/><text fill="#000000" font-family="sans-serif" font-size="9.8" lengthAdjust="spacing" textLength="58.1" x="729.4" y="78.21">:Repositories</text><rect fill="#E3E3E3" height="22.8348" rx="1.75" ry="1.75" style="stroke:#181818;stroke-width:0.3499999999999999;" width="67.9" x="724.5" y="1273.9508"/><text fill="#000000" font-family="sans-serif" font-size="9.8" lengthAdjust="spacing" textLength="58.1" x="729.4" y="1289.426">:Repositories</text><rect fill="#E3E3E3" height="35.8695" rx="1.75" ry="1.75" style="stroke:#181818;stroke-width:0.3499999999999999;" width="67.9" x="799.4" y="49.7"/><text fill="#000000" font-family="sans-serif" font-size="9.8" lengthAdjust="spacing" textLength="51.8" x="807.45" y="65.1752">repositories</text><text fill="#000000" font-family="sans-serif" font-size="9.8" lengthAdjust="spacing" textLength="58.1" x="804.3" y="78.21">:Repositories</text><rect fill="#E3E3E3" height="35.8695" rx="1.75" ry="1.75" style="stroke:#181818;stroke-width:0.3499999999999999;" width="67.9" x="799.4" y="1273.9508"/><text fill="#000000" font-family="sans-serif" font-size="9.8" lengthAdjust="spacing" textLength="51.8" x="807.45" y="1289.426">repositories</text><text fill="#000000" font-family="sans-serif" font-size="9.8" lengthAdjust="spacing" textLength="58.1" x="804.3" y="1302.4607">:Repositories</text><rect fill="#E3E3E3" height="35.8695" rx="1.75" ry="1.75" style="stroke:#181818;stroke-width:0.3499999999999999;" width="94.5" x="961.1" y="49.7"/><text fill="#000000" font-family="sans-serif" font-size="9.8" lengthAdjust="spacing" textLength="81.2" x="967.75" y="65.1752">agendaRepository</text><text fill="#000000" font-family="sans-serif" font-size="9.8" lengthAdjust="spacing" textLength="84.7" x="966" y="78.21">:AgendaRepository</text><rect fill="#E3E3E3" height="35.8695" rx="1.75" ry="1.75" style="stroke:#181818;stroke-width:0.3499999999999999;" width="94.5" x="961.1" y="1273.9508"/><text fill="#000000" font-family="sans-serif" font-size="9.8" lengthAdjust="spacing" textLength="81.2" x="967.75" y="1289.426">agendaRepository</text><text fill="#000000" font-family="sans-serif" font-size="9.8" lengthAdjust="spacing" textLength="84.7" x="966" y="1302.4607">:AgendaRepository</text><rect fill="#E3E3E3" height="35.8695" rx="1.75" ry="1.75" style="stroke:#181818;stroke-width:0.3499999999999999;" width="84.7" x="1173.9" y="49.7"/><text fill="#000000" font-family="sans-serif" font-size="9.8" lengthAdjust="spacing" textLength="68.6" x="1181.95" y="65.1752">toDoRepository</text><text fill="#000000" font-family="sans-serif" font-size="9.8" lengthAdjust="spacing" textLength="74.9" x="1178.8" y="78.21">:ToDoRepository</text><rect fill="#E3E3E3" height="35.8695" rx="1.75" ry="1.75" style="stroke:#181818;stroke-width:0.3499999999999999;" width="84.7" x="1173.9" y="1273.9508"/><text fill="#000000" font-family="sans-serif" font-size="9.8" lengthAdjust="spacing" textLength="68.6" x="1181.95" y="1289.426">toDoRepository</text><text fill="#000000" font-family="sans-serif" font-size="9.8" lengthAdjust="spacing" textLength="74.9" x="1178.8" y="1302.4607">:ToDoRepository</text><rect fill="#E3E3E3" height="22.8348" rx="1.75" ry="1.75" style="stroke:#181818;stroke-width:0.3499999999999999;" width="31.5" x="1380.75" y="1273.9508"/><text fill="#000000" font-family="sans-serif" font-size="9.8" lengthAdjust="spacing" textLength="21.7" x="1385.65" y="1289.426">Task</text><rect fill="#FFFFFF" height="1168.7812" style="stroke:#181818;stroke-width:0.6999999999999998;" width="7" x="23.45" y="93.2695"/><rect fill="#FFFFFF" height="129.0639" style="stroke:#181818;stroke-width:0.6999999999999998;" width="7" x="252.35" y="109.5732"/><rect fill="#FFFFFF" height="135.9148" style="stroke:#181818;stroke-width:0.6999999999999998;" width="7" x="252.35" y="260.5408"/><rect fill="#FFFFFF" height="675.5766" style="stroke:#181818;stroke-width:0.6999999999999998;" width="7" x="252.35" y="586.4742"/><rect fill="#FFFFFF" height="57.8074" style="stroke:#181818;stroke-width:0.6999999999999998;" width="7" x="443.45" y="396.4557"/><rect fill="#FFFFFF" height="92.8074" style="stroke:#181818;stroke-width:0.6999999999999998;" width="7" x="443.45" y="493.6668"/><rect fill="#FFFFFF" height="66.8527" style="stroke:#181818;stroke-width:0.6999999999999998;" width="7" x="639.45" y="131.477"/><rect fill="#FFFFFF" height="614.2691" style="stroke:#181818;stroke-width:0.6999999999999998;" width="7" x="639.45" y="625.8779"/><rect fill="#FFFFFF" height="21.9037" style="stroke:#181818;stroke-width:0.6999999999999998;" width="7" x="754.95" y="758.7344"/><rect fill="#FFFFFF" height="21.9037" style="stroke:#181818;stroke-width:0.6999999999999998;" width="7" x="754.95" y="1078.19"/><rect fill="#FFFFFF" height="21.9037" style="stroke:#181818;stroke-width:0.6999999999999998;" width="7" x="829.85" y="802.5418"/><rect fill="#FFFFFF" height="21.9037" style="stroke:#181818;stroke-width:0.6999999999999998;" width="7" x="829.85" y="1121.9975"/><rect fill="#FFFFFF" height="209.9371" style="stroke:#181818;stroke-width:0.6999999999999998;" width="7" x="1004.85" y="846.3492"/><rect fill="#FFFFFF" height="52.4385" style="stroke:#181818;stroke-width:0.6999999999999998;" width="7" x="1212.75" y="1165.8049"/><polygon fill="#181818" points="243.95,106.7732,250.95,109.5732,243.95,112.3732,246.75,109.5732" style="stroke:#181818;stroke-width:0.6999999999999998;"/><line style="stroke:#181818;stroke-width:0.6999999999999998;" x1="30.45" x2="248.15" y1="109.5732" y2="109.5732"/><text fill="#000000" font-family="sans-serif" font-size="9.1" font-weight="bold" lengthAdjust="spacing" textLength="4.9" x="35.35" y="105.8894">1</text><text fill="#000000" font-family="sans-serif" font-size="9.1" lengthAdjust="spacing" textLength="144.9" x="43.05" y="105.8894">Asks to add a new entry on Agenda</text><polygon fill="#181818" points="631.05,128.677,638.05,131.477,631.05,134.277,633.85,131.477" style="stroke:#181818;stroke-width:0.6999999999999998;"/><line style="stroke:#181818;stroke-width:0.6999999999999998;" x1="259.35" x2="635.25" y1="131.477" y2="131.477"/><text fill="#000000" font-family="sans-serif" font-size="9.1" font-weight="bold" lengthAdjust="spacing" textLength="4.9" x="264.25" y="127.7931">2</text><text fill="#000000" font-family="sans-serif" font-size="9.1" lengthAdjust="spacing" textLength="107.1" x="271.95" y="127.7931">getToDoDTOManagerList()</text><rect fill="none" height="41.449" style="stroke:#000000;stroke-width:1.0499999999999998;" width="153.3" x="566.3" y="137.077"/><path d="M566.3,137.077 L609.7,137.077 L609.7,143.377 L602.7,150.377 L566.3,150.377 L566.3,137.077 " fill="#EEEEEE" style="stroke:#000000;stroke-width:1.3999999999999997;"/><text fill="#000000" font-family="sans-serif" font-size="9.1" font-weight="bold" lengthAdjust="spacing" textLength="11.9" x="575.4" y="148.2968">ref</text><text fill="#000000" font-family="sans-serif" font-size="8.4" lengthAdjust="spacing" textLength="97.3" x="594.3" y="162.2414">SD_getToDoManagerList</text><text fill="#000000" font-family="sans-serif" font-size="8.4" lengthAdjust="spacing" textLength="2.1" x="641.9" y="173.4141">&#160;</text><polygon fill="#181818" points="267.05,195.5297,260.05,198.3297,267.05,201.1297,264.25,198.3297" style="stroke:#181818;stroke-width:0.6999999999999998;"/><line style="stroke:#181818;stroke-width:0.6999999999999998;stroke-dasharray:2.0,2.0;" x1="262.85" x2="642.25" y1="198.3297" y2="198.3297"/><text fill="#000000" font-family="sans-serif" font-size="9.1" font-weight="bold" lengthAdjust="spacing" textLength="4.9" x="271.25" y="194.6458">3</text><text fill="#000000" font-family="sans-serif" font-size="9.1" lengthAdjust="spacing" textLength="86.8" x="278.95" y="194.6458">toDoDTOManagerList</text><path d="M7,208.8297 L58.1,208.8297 L58.1,215.3334 L51.1,222.3334 L7,222.3334 L7,208.8297 " fill="#EEEEEE" style="stroke:#000000;stroke-width:1.0499999999999998;"/><rect fill="none" height="105.8148" style="stroke:#000000;stroke-width:1.0499999999999998;" width="372.75" x="7" y="208.8297"/><text fill="#000000" font-family="sans-serif" font-size="9.1" font-weight="bold" lengthAdjust="spacing" textLength="19.6" x="17.5" y="219.3495">loop</text><text fill="#000000" font-family="sans-serif" font-size="7.7" font-weight="bold" lengthAdjust="spacing" textLength="132.3" x="68.6" y="218.5388">[until doesn't select a valid option]</text><polygon fill="#181818" points="38.15,235.8371,31.15,238.6371,38.15,241.4371,35.35,238.6371" style="stroke:#181818;stroke-width:0.6999999999999998;"/><line style="stroke:#181818;stroke-width:0.6999999999999998;stroke-dasharray:2.0,2.0;" x1="33.95" x2="255.15" y1="238.6371" y2="238.6371"/><text fill="#000000" font-family="sans-serif" font-size="9.1" font-weight="bold" lengthAdjust="spacing" textLength="4.9" x="42.35" y="234.9532">4</text><text fill="#000000" font-family="sans-serif" font-size="9.1" lengthAdjust="spacing" textLength="197.4" x="50.05" y="234.9532">Shows the To-Do list and asks to select the task</text><polygon fill="#181818" points="243.95,257.7408,250.95,260.5408,243.95,263.3408,246.75,260.5408" style="stroke:#181818;stroke-width:0.6999999999999998;"/><line style="stroke:#181818;stroke-width:0.6999999999999998;" x1="30.45" x2="248.15" y1="260.5408" y2="260.5408"/><text fill="#000000" font-family="sans-serif" font-size="9.1" font-weight="bold" lengthAdjust="spacing" textLength="4.9" x="35.35" y="256.8569">5</text><text fill="#000000" font-family="sans-serif" font-size="9.1" lengthAdjust="spacing" textLength="58.8" x="43.05" y="256.8569">Selects a task</text><line style="stroke:#181818;stroke-width:0.6999999999999998;stroke-dasharray:2.0,2.0;" x1="259.35" x2="288.75" y1="282.4445" y2="282.4445"/><line style="stroke:#181818;stroke-width:0.6999999999999998;stroke-dasharray:2.0,2.0;" x1="288.75" x2="288.75" y1="282.4445" y2="291.5445"/><line style="stroke:#181818;stroke-width:0.6999999999999998;stroke-dasharray:2.0,2.0;" x1="260.05" x2="288.75" y1="291.5445" y2="291.5445"/><polygon fill="#181818" points="267.05,288.7445,260.05,291.5445,267.05,294.3445,264.25,291.5445" style="stroke:#181818;stroke-width:0.6999999999999998;"/><text fill="#000000" font-family="sans-serif" font-size="9.1" font-weight="bold" lengthAdjust="spacing" textLength="4.9" x="264.25" y="278.7606">6</text><text fill="#000000" font-family="sans-serif" font-size="9.1" lengthAdjust="spacing" textLength="99.4" x="271.95" y="278.7606">validates selected option</text><line style="stroke:#181818;stroke-width:0.6999999999999998;stroke-dasharray:2.0,2.0;" x1="259.35" x2="288.75" y1="335.8482" y2="335.8482"/><line style="stroke:#181818;stroke-width:0.6999999999999998;stroke-dasharray:2.0,2.0;" x1="288.75" x2="288.75" y1="335.8482" y2="344.9482"/><line style="stroke:#181818;stroke-width:0.6999999999999998;stroke-dasharray:2.0,2.0;" x1="260.05" x2="288.75" y1="344.9482" y2="344.9482"/><polygon fill="#181818" points="267.05,342.1482,260.05,344.9482,267.05,347.7482,264.25,344.9482" style="stroke:#181818;stroke-width:0.6999999999999998;"/><text fill="#000000" font-family="sans-serif" font-size="9.1" font-weight="bold" lengthAdjust="spacing" textLength="4.9" x="264.25" y="332.1644">7</text><text fill="#000000" font-family="sans-serif" font-size="9.1" lengthAdjust="spacing" textLength="98" x="271.95" y="332.1644">keepData(selectedTask)</text><polygon fill="#181818" points="435.05,393.6557,442.05,396.4557,435.05,399.2557,437.85,396.4557" style="stroke:#181818;stroke-width:0.6999999999999998;"/><line style="stroke:#181818;stroke-width:0.6999999999999998;" x1="255.85" x2="439.25" y1="396.4557" y2="396.4557"/><text fill="#000000" font-family="sans-serif" font-size="9.1" font-weight="bold" lengthAdjust="spacing" textLength="4.9" x="260.75" y="386.7199">8</text><text fill="#000000" font-family="sans-serif" font-size="9.1" lengthAdjust="spacing" textLength="163.1" x="268.45" y="380.6681">Show the popup to insert task execution</text><text fill="#000000" font-family="sans-serif" font-size="9.1" lengthAdjust="spacing" textLength="55.3" x="268.45" y="392.7718">date and hour</text><path d="M7,424.4557 L58.1,424.4557 L58.1,430.9594 L51.1,437.9594 L7,437.9594 L7,424.4557 " fill="#EEEEEE" style="stroke:#000000;stroke-width:1.0499999999999998;"/><rect fill="none" height="123.3148" style="stroke:#000000;stroke-width:1.0499999999999998;" width="549.85" x="7" y="424.4557"/><text fill="#000000" font-family="sans-serif" font-size="9.1" font-weight="bold" lengthAdjust="spacing" textLength="19.6" x="17.5" y="434.9755">loop</text><text fill="#000000" font-family="sans-serif" font-size="7.7" font-weight="bold" lengthAdjust="spacing" textLength="109.9" x="68.6" y="434.1647">[until typed data is validated]</text><polygon fill="#181818" points="38.15,451.4631,31.15,454.2631,38.15,457.0631,35.35,454.2631" style="stroke:#181818;stroke-width:0.6999999999999998;"/><line style="stroke:#181818;stroke-width:0.6999999999999998;stroke-dasharray:2.0,2.0;" x1="33.95" x2="446.25" y1="454.2631" y2="454.2631"/><text fill="#000000" font-family="sans-serif" font-size="9.1" font-weight="bold" lengthAdjust="spacing" textLength="4.9" x="42.35" y="450.5792">9</text><text fill="#000000" font-family="sans-serif" font-size="9.1" lengthAdjust="spacing" textLength="305.9" x="50.05" y="450.5792">Asks to type requested data (execution date and hour for the selected task)</text><polygon fill="#181818" points="435.05,490.8668,442.05,493.6668,435.05,496.4668,437.85,493.6668" style="stroke:#181818;stroke-width:0.6999999999999998;"/><line style="stroke:#181818;stroke-width:0.6999999999999998;" x1="30.45" x2="439.25" y1="493.6668" y2="493.6668"/><text fill="#000000" font-family="sans-serif" font-size="9.1" font-weight="bold" lengthAdjust="spacing" textLength="9.8" x="35.35" y="489.9829">10</text><text fill="#000000" font-family="sans-serif" font-size="9.1" lengthAdjust="spacing" textLength="304.5" x="47.95" y="489.9829">Enters date (selectedDate) and time (workStartingHours, workStartingMins)</text><line style="stroke:#181818;stroke-width:0.6999999999999998;stroke-dasharray:2.0,2.0;" x1="450.45" x2="479.85" y1="515.5705" y2="515.5705"/><line style="stroke:#181818;stroke-width:0.6999999999999998;stroke-dasharray:2.0,2.0;" x1="479.85" x2="479.85" y1="515.5705" y2="524.6705"/><line style="stroke:#181818;stroke-width:0.6999999999999998;stroke-dasharray:2.0,2.0;" x1="451.15" x2="479.85" y1="524.6705" y2="524.6705"/><polygon fill="#181818" points="458.15,521.8705,451.15,524.6705,458.15,527.4705,455.35,524.6705" style="stroke:#181818;stroke-width:0.6999999999999998;"/><text fill="#000000" font-family="sans-serif" font-size="9.1" font-weight="bold" lengthAdjust="spacing" textLength="9.8" x="455.35" y="511.8866">11</text><text fill="#000000" font-family="sans-serif" font-size="9.1" lengthAdjust="spacing" textLength="80.5" x="467.95" y="511.8866">validates typed data</text><polygon fill="#181818" points="267.05,583.6742,260.05,586.4742,267.05,589.2742,264.25,586.4742" style="stroke:#181818;stroke-width:0.6999999999999998;"/><line style="stroke:#181818;stroke-width:0.6999999999999998;stroke-dasharray:2.0,2.0;" x1="262.85" x2="446.25" y1="586.4742" y2="586.4742"/><text fill="#000000" font-family="sans-serif" font-size="9.1" font-weight="bold" lengthAdjust="spacing" textLength="9.8" x="271.25" y="582.7903">12</text><text fill="#000000" font-family="sans-serif" font-size="9.1" lengthAdjust="spacing" textLength="148.4" x="283.85" y="582.7903">Sends date and time data to Main UI</text><polygon fill="#181818" points="631.05,623.0779,638.05,625.8779,631.05,628.6779,633.85,625.8779" style="stroke:#181818;stroke-width:0.6999999999999998;"/><line style="stroke:#181818;stroke-width:0.6999999999999998;stroke-dasharray:2.0,2.0;" x1="259.35" x2="635.25" y1="625.8779" y2="625.8779"/><text fill="#000000" font-family="sans-serif" font-size="9.1" font-weight="bold" lengthAdjust="spacing" textLength="9.8" x="264.25" y="622.194">13</text><text fill="#000000" font-family="sans-serif" font-size="9.1" lengthAdjust="spacing" textLength="354.2" x="276.85" y="622.194">registerTaskAgenda(selectedTask, selectedDate, workStartingHours, workStartingMins)</text><rect fill="none" height="41.449" style="stroke:#000000;stroke-width:1.0499999999999998;" width="153.3" x="566.3" y="648.9779"/><path d="M566.3,648.9779 L609.7,648.9779 L609.7,655.2779 L602.7,662.2779 L566.3,662.2779 L566.3,648.9779 " fill="#EEEEEE" style="stroke:#000000;stroke-width:1.3999999999999997;"/><text fill="#000000" font-family="sans-serif" font-size="9.1" font-weight="bold" lengthAdjust="spacing" textLength="11.9" x="575.4" y="660.1978">ref</text><text fill="#000000" font-family="sans-serif" font-size="8.4" lengthAdjust="spacing" textLength="98" x="593.95" y="674.1424">SD_toTaskDomainObject</text><text fill="#000000" font-family="sans-serif" font-size="8.4" lengthAdjust="spacing" textLength="2.1" x="641.9" y="685.315">&#160;</text><line style="stroke:#181818;stroke-width:0.6999999999999998;" x1="646.45" x2="675.85" y1="710.2307" y2="710.2307"/><line style="stroke:#181818;stroke-width:0.6999999999999998;" x1="675.85" x2="675.85" y1="710.2307" y2="719.3307"/><line style="stroke:#181818;stroke-width:0.6999999999999998;" x1="647.15" x2="675.85" y1="719.3307" y2="719.3307"/><polygon fill="#181818" points="654.15,716.5307,647.15,719.3307,654.15,722.1307,651.35,719.3307" style="stroke:#181818;stroke-width:0.6999999999999998;"/><text fill="#000000" font-family="sans-serif" font-size="9.1" font-weight="bold" lengthAdjust="spacing" textLength="9.8" x="651.35" y="706.5468">14</text><text fill="#000000" font-family="sans-serif" font-size="9.1" lengthAdjust="spacing" textLength="17.5" x="663.95" y="706.5468">task</text><polygon fill="#181818" points="746.55,755.9344,753.55,758.7344,746.55,761.5344,749.35,758.7344" style="stroke:#181818;stroke-width:0.6999999999999998;"/><line style="stroke:#181818;stroke-width:0.6999999999999998;" x1="646.45" x2="750.75" y1="758.7344" y2="758.7344"/><text fill="#000000" font-family="sans-serif" font-size="9.1" font-weight="bold" lengthAdjust="spacing" textLength="9.8" x="651.35" y="755.0505">15</text><text fill="#000000" font-family="sans-serif" font-size="9.1" lengthAdjust="spacing" textLength="52.5" x="663.95" y="755.0505">getInstance()</text><polygon fill="#181818" points="654.15,777.8381,647.15,780.6381,654.15,783.4381,651.35,780.6381" style="stroke:#181818;stroke-width:0.6999999999999998;"/><line style="stroke:#181818;stroke-width:0.6999999999999998;stroke-dasharray:2.0,2.0;" x1="649.95" x2="757.75" y1="780.6381" y2="780.6381"/><text fill="#000000" font-family="sans-serif" font-size="9.1" font-weight="bold" lengthAdjust="spacing" textLength="9.8" x="658.35" y="776.9542">16</text><text fill="#000000" font-family="sans-serif" font-size="9.1" lengthAdjust="spacing" textLength="46.9" x="670.95" y="776.9542">repositories</text><polygon fill="#181818" points="821.45,799.7418,828.45,802.5418,821.45,805.3418,824.25,802.5418" style="stroke:#181818;stroke-width:0.6999999999999998;"/><line style="stroke:#181818;stroke-width:0.6999999999999998;" x1="646.45" x2="825.65" y1="802.5418" y2="802.5418"/><text fill="#000000" font-family="sans-serif" font-size="9.1" font-weight="bold" lengthAdjust="spacing" textLength="9.8" x="651.35" y="798.8579">17</text><text fill="#000000" font-family="sans-serif" font-size="9.1" lengthAdjust="spacing" textLength="92.4" x="663.95" y="798.8579">getAgendaRepository()</text><polygon fill="#181818" points="654.15,821.6455,647.15,824.4455,654.15,827.2455,651.35,824.4455" style="stroke:#181818;stroke-width:0.6999999999999998;"/><line style="stroke:#181818;stroke-width:0.6999999999999998;stroke-dasharray:2.0,2.0;" x1="649.95" x2="832.65" y1="824.4455" y2="824.4455"/><text fill="#000000" font-family="sans-serif" font-size="9.1" font-weight="bold" lengthAdjust="spacing" textLength="9.8" x="658.35" y="820.7616">18</text><text fill="#000000" font-family="sans-serif" font-size="9.1" lengthAdjust="spacing" textLength="72.8" x="670.95" y="820.7616">agendaRepository</text><polygon fill="#181818" points="996.45,843.5492,1003.45,846.3492,996.45,849.1492,999.25,846.3492" style="stroke:#181818;stroke-width:0.6999999999999998;"/><line style="stroke:#181818;stroke-width:0.6999999999999998;" x1="646.45" x2="1000.65" y1="846.3492" y2="846.3492"/><text fill="#000000" font-family="sans-serif" font-size="9.1" font-weight="bold" lengthAdjust="spacing" textLength="9.8" x="651.35" y="842.6653">19</text><text fill="#000000" font-family="sans-serif" font-size="9.1" lengthAdjust="spacing" textLength="332.5" x="663.95" y="842.6653">registerTaskAgenda(task, executionDate, workStartingDays, workStartingMinutes)</text><line style="stroke:#181818;stroke-width:0.6999999999999998;stroke-dasharray:2.0,2.0;" x1="1011.85" x2="1041.25" y1="880.3566" y2="880.3566"/><line style="stroke:#181818;stroke-width:0.6999999999999998;stroke-dasharray:2.0,2.0;" x1="1041.25" x2="1041.25" y1="880.3566" y2="889.4566"/><line style="stroke:#181818;stroke-width:0.6999999999999998;stroke-dasharray:2.0,2.0;" x1="1012.55" x2="1041.25" y1="889.4566" y2="889.4566"/><polygon fill="#181818" points="1019.55,886.6566,1012.55,889.4566,1019.55,892.2566,1016.75,889.4566" style="stroke:#181818;stroke-width:0.6999999999999998;"/><text fill="#000000" font-family="sans-serif" font-size="9.1" font-weight="bold" lengthAdjust="spacing" textLength="9.8" x="1016.75" y="870.6209">20</text><text fill="#000000" font-family="sans-serif" font-size="9.1" lengthAdjust="spacing" textLength="178.5" x="1029.35" y="864.569">add(task, executionDate, workStartingDays,</text><text fill="#000000" font-family="sans-serif" font-size="9.1" lengthAdjust="spacing" textLength="85.4" x="1029.35" y="876.6728">workStartingMinutes)</text><line style="stroke:#181818;stroke-width:0.6999999999999998;stroke-dasharray:2.0,2.0;" x1="1011.85" x2="1041.25" y1="911.3604" y2="911.3604"/><line style="stroke:#181818;stroke-width:0.6999999999999998;stroke-dasharray:2.0,2.0;" x1="1041.25" x2="1041.25" y1="911.3604" y2="920.4604"/><line style="stroke:#181818;stroke-width:0.6999999999999998;stroke-dasharray:2.0,2.0;" x1="1012.55" x2="1041.25" y1="920.4604" y2="920.4604"/><polygon fill="#181818" points="1019.55,917.6604,1012.55,920.4604,1019.55,923.2604,1016.75,920.4604" style="stroke:#181818;stroke-width:0.6999999999999998;"/><text fill="#000000" font-family="sans-serif" font-size="9.1" font-weight="bold" lengthAdjust="spacing" textLength="9.8" x="1016.75" y="907.6765">21</text><text fill="#000000" font-family="sans-serif" font-size="9.1" lengthAdjust="spacing" textLength="103.6" x="1029.35" y="907.6765">validateTaskAgenda(task)</text><polygon fill="#181818" points="1372.35,957.0641,1379.35,959.8641,1372.35,962.6641,1375.15,959.8641" style="stroke:#181818;stroke-width:0.6999999999999998;"/><line style="stroke:#181818;stroke-width:0.6999999999999998;" x1="1011.85" x2="1376.55" y1="959.8641" y2="959.8641"/><text fill="#000000" font-family="sans-serif" font-size="9.1" font-weight="bold" lengthAdjust="spacing" textLength="9.8" x="1016.75" y="956.1802">22</text><text fill="#000000" font-family="sans-serif" font-size="9.1" lengthAdjust="spacing" textLength="168.7" x="1029.35" y="956.1802">setStatus(AGENDA_DEFAULT_STATUS)</text><rect fill="#E3E3E3" height="22.8348" rx="1.75" ry="1.75" style="stroke:#181818;stroke-width:0.3499999999999999;" width="31.5" x="1380.75" y="959.5004"/><text fill="#000000" font-family="sans-serif" font-size="9.8" lengthAdjust="spacing" textLength="21.7" x="1385.65" y="974.9756">Task</text><path d="M1415.75,947.0604 L1415.75,1002.3604 L1577.45,1002.3604 L1577.45,954.0604 L1570.45,947.0604 L1415.75,947.0604 " fill="#FAFAFA" style="stroke:#181818;stroke-width:0.3499999999999999;"/><path d="M1570.45,947.0604 L1570.45,954.0604 L1577.45,954.0604 L1570.45,947.0604 " fill="#FAFAFA" style="stroke:#181818;stroke-width:0.3499999999999999;"/><text fill="#000000" font-family="sans-serif" font-size="9.1" lengthAdjust="spacing" textLength="147" x="1419.95" y="960.3802">When a task enters the Agenda, the</text><text fill="#000000" font-family="sans-serif" font-size="9.1" lengthAdjust="spacing" textLength="109.9" x="1419.95" y="972.4839">default status of the task is</text><text fill="#000000" font-family="sans-serif" font-size="9.1" lengthAdjust="spacing" textLength="139.3" x="1419.95" y="984.5876">"PLANNED" and the task in To-Do</text><text fill="#000000" font-family="sans-serif" font-size="9.1" lengthAdjust="spacing" textLength="107.1" x="1419.95" y="996.6913">list will be "PROCESSED"</text><polygon fill="#181818" points="1372.35,1031.5826,1379.35,1034.3826,1372.35,1037.1826,1375.15,1034.3826" style="stroke:#181818;stroke-width:0.6999999999999998;"/><line style="stroke:#181818;stroke-width:0.6999999999999998;" x1="1011.85" x2="1376.55" y1="1034.3826" y2="1034.3826"/><text fill="#000000" font-family="sans-serif" font-size="9.1" font-weight="bold" lengthAdjust="spacing" textLength="9.8" x="1016.75" y="1024.6469">23</text><text fill="#000000" font-family="sans-serif" font-size="9.1" lengthAdjust="spacing" textLength="223.3" x="1029.35" y="1018.595">setTaskWorkPeriod(executionDate, workStartingHours,</text><text fill="#000000" font-family="sans-serif" font-size="9.1" lengthAdjust="spacing" textLength="164.5" x="1029.35" y="1030.6987">workStartingMinutes, expectedDuration);</text><rect fill="#E3E3E3" height="22.8348" rx="1.75" ry="1.75" style="stroke:#181818;stroke-width:0.3499999999999999;" width="31.5" x="1380.75" y="1009.4479"/><text fill="#000000" font-family="sans-serif" font-size="9.8" lengthAdjust="spacing" textLength="21.7" x="1385.65" y="1024.923">Task</text><polygon fill="#181818" points="654.15,1053.4863,647.15,1056.2863,654.15,1059.0863,651.35,1056.2863" style="stroke:#181818;stroke-width:0.6999999999999998;"/><line style="stroke:#181818;stroke-width:0.6999999999999998;stroke-dasharray:2.0,2.0;" x1="649.95" x2="1007.65" y1="1056.2863" y2="1056.2863"/><text fill="#000000" font-family="sans-serif" font-size="9.1" font-weight="bold" lengthAdjust="spacing" textLength="9.8" x="658.35" y="1052.6024">24</text><text fill="#000000" font-family="sans-serif" font-size="9.1" lengthAdjust="spacing" textLength="51.1" x="670.95" y="1052.6024">taskOptional</text><polygon fill="#181818" points="746.55,1075.39,753.55,1078.19,746.55,1080.99,749.35,1078.19" style="stroke:#181818;stroke-width:0.6999999999999998;"/><line style="stroke:#181818;stroke-width:0.6999999999999998;" x1="646.45" x2="750.75" y1="1078.19" y2="1078.19"/><text fill="#000000" font-family="sans-serif" font-size="9.1" font-weight="bold" lengthAdjust="spacing" textLength="9.8" x="651.35" y="1074.5062">25</text><text fill="#000000" font-family="sans-serif" font-size="9.1" lengthAdjust="spacing" textLength="52.5" x="663.95" y="1074.5062">getInstance()</text><polygon fill="#181818" points="654.15,1097.2937,647.15,1100.0937,654.15,1102.8937,651.35,1100.0937" style="stroke:#181818;stroke-width:0.6999999999999998;"/><line style="stroke:#181818;stroke-width:0.6999999999999998;stroke-dasharray:2.0,2.0;" x1="649.95" x2="757.75" y1="1100.0937" y2="1100.0937"/><text fill="#000000" font-family="sans-serif" font-size="9.1" font-weight="bold" lengthAdjust="spacing" textLength="9.8" x="658.35" y="1096.4099">26</text><text fill="#000000" font-family="sans-serif" font-size="9.1" lengthAdjust="spacing" textLength="46.9" x="670.95" y="1096.4099">repositories</text><polygon fill="#181818" points="821.45,1119.1975,828.45,1121.9975,821.45,1124.7975,824.25,1121.9975" style="stroke:#181818;stroke-width:0.6999999999999998;"/><line style="stroke:#181818;stroke-width:0.6999999999999998;" x1="646.45" x2="825.65" y1="1121.9975" y2="1121.9975"/><text fill="#000000" font-family="sans-serif" font-size="9.1" font-weight="bold" lengthAdjust="spacing" textLength="9.8" x="651.35" y="1118.3136">27</text><text fill="#000000" font-family="sans-serif" font-size="9.1" lengthAdjust="spacing" textLength="82.6" x="663.95" y="1118.3136">getToDoRepository()</text><polygon fill="#181818" points="654.15,1141.1012,647.15,1143.9012,654.15,1146.7012,651.35,1143.9012" style="stroke:#181818;stroke-width:0.6999999999999998;"/><line style="stroke:#181818;stroke-width:0.6999999999999998;stroke-dasharray:2.0,2.0;" x1="649.95" x2="832.65" y1="1143.9012" y2="1143.9012"/><text fill="#000000" font-family="sans-serif" font-size="9.1" font-weight="bold" lengthAdjust="spacing" textLength="9.8" x="658.35" y="1140.2173">28</text><text fill="#000000" font-family="sans-serif" font-size="9.1" lengthAdjust="spacing" textLength="62.3" x="670.95" y="1140.2173">toDoRepository</text><polygon fill="#181818" points="1204.35,1163.0049,1211.35,1165.8049,1204.35,1168.6049,1207.15,1165.8049" style="stroke:#181818;stroke-width:0.6999999999999998;"/><line style="stroke:#181818;stroke-width:0.6999999999999998;" x1="646.45" x2="1208.55" y1="1165.8049" y2="1165.8049"/><text fill="#000000" font-family="sans-serif" font-size="9.1" font-weight="bold" lengthAdjust="spacing" textLength="9.8" x="651.35" y="1162.121">29</text><text fill="#000000" font-family="sans-serif" font-size="9.1" lengthAdjust="spacing" textLength="123.2" x="663.95" y="1162.121">updateTaskToProcessed(task)</text><polygon fill="#181818" points="1372.35,1184.9086,1379.35,1187.7086,1372.35,1190.5086,1375.15,1187.7086" style="stroke:#181818;stroke-width:0.6999999999999998;"/><line style="stroke:#181818;stroke-width:0.6999999999999998;" x1="1219.75" x2="1376.55" y1="1187.7086" y2="1187.7086"/><text fill="#000000" font-family="sans-serif" font-size="9.1" font-weight="bold" lengthAdjust="spacing" textLength="9.8" x="1224.65" y="1184.0247">30</text><text fill="#000000" font-family="sans-serif" font-size="9.1" lengthAdjust="spacing" textLength="131.6" x="1237.25" y="1184.0247">setStatus(Status.PROCESSED)</text><rect fill="#E3E3E3" height="22.8348" rx="1.75" ry="1.75" style="stroke:#181818;stroke-width:0.3499999999999999;" width="31.5" x="1380.75" y="1171.4049"/><text fill="#000000" font-family="sans-serif" font-size="9.8" lengthAdjust="spacing" textLength="21.7" x="1385.65" y="1186.8801">Task</text><polygon fill="#181818" points="654.15,1215.4434,647.15,1218.2434,654.15,1221.0434,651.35,1218.2434" style="stroke:#181818;stroke-width:0.6999999999999998;"/><line style="stroke:#181818;stroke-width:0.6999999999999998;stroke-dasharray:2.0,2.0;" x1="649.95" x2="1215.55" y1="1218.2434" y2="1218.2434"/><text fill="#000000" font-family="sans-serif" font-size="9.1" font-weight="bold" lengthAdjust="spacing" textLength="9.8" x="658.35" y="1214.5595">31</text><text fill="#000000" font-family="sans-serif" font-size="9.1" lengthAdjust="spacing" textLength="74.2" x="670.95" y="1214.5595">operation success</text><polygon fill="#181818" points="267.05,1237.3471,260.05,1240.1471,267.05,1242.9471,264.25,1240.1471" style="stroke:#181818;stroke-width:0.6999999999999998;"/><line style="stroke:#181818;stroke-width:0.6999999999999998;stroke-dasharray:2.0,2.0;" x1="262.85" x2="642.25" y1="1240.1471" y2="1240.1471"/><text fill="#000000" font-family="sans-serif" font-size="9.1" font-weight="bold" lengthAdjust="spacing" textLength="9.8" x="271.25" y="1236.4632">32</text><text fill="#000000" font-family="sans-serif" font-size="9.1" lengthAdjust="spacing" textLength="74.2" x="283.85" y="1236.4632">operation success</text><polygon fill="#181818" points="34.65,1259.2508,27.65,1262.0508,34.65,1264.8508,31.85,1262.0508" style="stroke:#181818;stroke-width:0.6999999999999998;"/><line style="stroke:#181818;stroke-width:0.6999999999999998;stroke-dasharray:2.0,2.0;" x1="30.45" x2="255.15" y1="1262.0508" y2="1262.0508"/><text fill="#000000" font-family="sans-serif" font-size="9.1" font-weight="bold" lengthAdjust="spacing" textLength="9.8" x="38.85" y="1258.3669">33</text><text fill="#000000" font-family="sans-serif" font-size="9.1" lengthAdjust="spacing" textLength="107.1" x="51.45" y="1258.3669">Display operation success</text><!--SRC=[hLTTR-8u57tFhx1u6HYLrMWUkr8brB0pbTg26j2yLAfSSWjUWfsrdR98_V5xxIHEd0HIsCaBnhaVvnvV7pjgotXA9TsHdU1YjP5Y1qJB30BbtgHqjQLhYFGX0I9XfIbV9tK3jQ6ns3E-9cyqKH04ccaqNKRVldydOnB1Fndm5P2GqJNQ1m7DjE3PxXKaZbTQI3Bu4JqC25K4VmECgjcAfPHhChYUnF4ZxATSoyDa3JocopjhkRnh6Dvn1LA7LCDSf5bQcDbnNyXRWMEH922jp-tYwRxXyWIfK0oXCb3Mvcawd_asicRopBiz42FIjmBVareGpk60tfF6b8tGdFIZQ14AByR2cx0H_2dBFdj7nYpl0S471sHyW-oIQp9HMqMq83IE2IKSzWGCPqJm0ahkueBWakGpw8qn38qOPGtQf0qNimVAiLHvpvGUZXg-bdCx9U6DY7UG-PIPYSAN8aWjGcwCA8n3_iSc79VeTIkfDOgX8wTv4Y5Iad7D4X8BKFoB9WeIx7Ui_PqcB2OYrKnmvs2gn6I6iMiIRSGUoTe0SZmE1Kam7w68ZXOa5h6CXSQvWgaQ6iTUVGaYwwKGWdLgqbs3OSqjJdodYdJG0ltnyU76I5xGhCQ6sGAak97ei8oomEGZBuRdTvDliu86MsDg9x1kPhUbXK_WNrXb1iupDoWjFnkHIHVCfwCBitkVR-okrTE75El619GmvIYfbPg3hTQkx7FZYDs4SgLq6M7eC1CFCdb3sJA5EgArnr6jaXhITdrbRSMYMzjhWje4KkKPtI8OQHjP09gXJ0_tGcuZRII0htyY97L5wbCFoFmeECPPnK6vT5NlL0Hw4CrUCpG7hHweWYtlJC_oM5LiMR2MIwJuWJ9UbjvDKLy357rQY8k4DMuqaAP1SqtoUlQArCdp-Jb9MQl48wBH5gj2iBGm-KEnmu9dhtyZXg2-xohHgeJB5UMsUWj5QMZEabnQonDbME6kFmwsFQywJSnZutcqLeTNfrDjxMpaBfiws1AcnTmynyh3u2HuTtIUBAAqgXVJF5u_Kz3nR6LLpIAwcr7R9dGQqkx2a1xQJPZXBcolfmFOkWUqJ5lWnjs8yMJ_9CHdtednuiobsZIuweXOt_p7izmG4-dhLmojG2DEdQdXvCVqCPoyXDE_9ilxnKkqc2oMKKSABf1LoTORVRIvokVN1dXn6flRa55fSmhaWAxCk3T436yqI_1sOK4IyUOk1NXUzNeFvlUJnyTfECZ5rNdo_EBHwsyl9dkM9EGLCDZJx7OQHHYkrz5xZ8GPreApbyQCVs4hpK4o4GzFz5qkq9sDP_erpNKzazIuZ_uCWazsOqrbP_PoH9FWX1pqxxR-YRDr-xIEz-RxRJf_YUv_-XpmlqOwc3YV6gVR_ukYhbF4_xowXApBiPKC-eGXg2mjDNGXvbAiG2c8X_vDj9UtnNcLzHeqK7PBS_xpXzEV2nQ_cQTQAv52hWf4PIj3Id36KlrkElolqdvefxGeltnsVu66JAK9FHp9qFZGhFqrd_x_0G00]--></g></svg>