<?xml version="1.0" encoding="us-ascii" standalone="no"?><svg xmlns="http://www.w3.org/2000/svg" xmlns:xlink="http://www.w3.org/1999/xlink" contentStyleType="text/css" height="1820.5px" preserveAspectRatio="none" style="width:2279px;height:1820px;background:#FFFFFF;" version="1.1" viewBox="0 0 2279 1820" width="2279.2px" zoomAndPan="magnify"><defs/><g><text fill="#000000" font-family="sans-serif" font-size="15.4" font-weight="bold" lengthAdjust="spacing" textLength="312.4" x="984.775" y="33.1182">US022 - System Sequence Diagram (SSD)</text><rect fill="#FFFFFF" height="1563.1322" style="stroke:#181818;stroke-width:1.1;" width="11" x="36.85" y="146.5664"/><rect fill="#FFFFFF" height="202.8146" style="stroke:#181818;stroke-width:1.1;" width="11" x="396.55" y="172.1865"/><rect fill="#FFFFFF" height="213.5805" style="stroke:#181818;stroke-width:1.1;" width="11" x="396.55" y="409.4213"/><rect fill="#FFFFFF" height="788.0963" style="stroke:#181818;stroke-width:1.1;" width="11" x="396.55" y="921.6023"/><rect fill="#FFFFFF" height="90.8402" style="stroke:#181818;stroke-width:1.1;" width="11" x="696.85" y="623.0018"/><rect fill="#FFFFFF" height="145.8402" style="stroke:#181818;stroke-width:1.1;" width="11" x="696.85" y="775.7621"/><rect fill="#FFFFFF" height="105.0543" style="stroke:#181818;stroke-width:1.1;" width="11" x="1004.85" y="206.6066"/><rect fill="#FFFFFF" height="691.7561" style="stroke:#181818;stroke-width:1.1;" width="11" x="1004.85" y="983.5225"/><rect fill="#FFFFFF" height="34.4201" style="stroke:#181818;stroke-width:1.1;" width="11" x="1186.35" y="1192.2969"/><rect fill="#FFFFFF" height="34.4201" style="stroke:#181818;stroke-width:1.1;" width="11" x="1304.05" y="1261.1371"/><rect fill="#FFFFFF" height="310.8811" style="stroke:#181818;stroke-width:1.1;" width="11" x="1579.05" y="1329.9773"/><rect fill="none" height="166.2805" style="stroke:#000000;stroke-width:1.6500000000000001;" width="585.75" x="11" y="328.1609"/><rect fill="none" height="193.7805" style="stroke:#000000;stroke-width:1.6500000000000001;" width="864.05" x="11" y="667.0018"/><line style="stroke:#181818;stroke-width:0.55;stroke-dasharray:5.0,5.0;" x1="41.8" x2="41.8" y1="135.5664" y2="1729.4986"/><line style="stroke:#181818;stroke-width:0.55;stroke-dasharray:5.0,5.0;" x1="401.5" x2="401.5" y1="135.5664" y2="1729.4986"/><line style="stroke:#181818;stroke-width:0.55;stroke-dasharray:5.0,5.0;" x1="702.35" x2="702.35" y1="135.5664" y2="1729.4986"/><line style="stroke:#181818;stroke-width:0.55;stroke-dasharray:5.0,5.0;" x1="1009.8" x2="1009.8" y1="135.5664" y2="1729.4986"/><line style="stroke:#181818;stroke-width:0.55;stroke-dasharray:5.0,5.0;" x1="1191.3" x2="1191.3" y1="135.5664" y2="1729.4986"/><line style="stroke:#181818;stroke-width:0.55;stroke-dasharray:5.0,5.0;" x1="1309" x2="1309" y1="135.5664" y2="1729.4986"/><line style="stroke:#181818;stroke-width:0.55;stroke-dasharray:5.0,5.0;" x1="1584" x2="1584" y1="135.5664" y2="1729.4986"/><line style="stroke:#181818;stroke-width:0.55;stroke-dasharray:5.0,5.0;" x1="2011.35" x2="2011.35" y1="1599.5182" y2="1729.4986"/><text fill="#000000" font-family="sans-serif" font-size="15.4" lengthAdjust="spacing" textLength="34.1" x="22" y="131.7014">GSM</text><ellipse cx="42.35" cy="58.4332" fill="#E3E3E3" rx="8.8" ry="8.8" style="stroke:#181818;stroke-width:0.55;"/><path d="M42.35,67.2332 L42.35,96.9332 M28.05,76.0332 L56.65,76.0332 M42.35,96.9332 L28.05,113.4332 M42.35,96.9332 L56.65,113.4332 " fill="none" style="stroke:#181818;stroke-width:0.55;"/><text fill="#000000" font-family="sans-serif" font-size="15.4" lengthAdjust="spacing" textLength="34.1" x="22" y="1745.0168">GSM</text><ellipse cx="42.35" cy="1758.2318" fill="#E3E3E3" rx="8.8" ry="8.8" style="stroke:#181818;stroke-width:0.55;"/><path d="M42.35,1767.0318 L42.35,1796.7318 M28.05,1775.8318 L56.65,1775.8318 M42.35,1796.7318 L28.05,1813.2318 M42.35,1796.7318 L56.65,1813.2318 " fill="none" style="stroke:#181818;stroke-width:0.55;"/><rect fill="#E3E3E3" height="35.8832" rx="2.75" ry="2.75" style="stroke:#181818;stroke-width:0.55;" width="179.3" x="312.4" y="98.5832"/><text fill="#000000" font-family="sans-serif" font-size="15.4" lengthAdjust="spacing" textLength="163.9" x="320.1" y="122.9014">:AddNewEntryAgendaUI</text><rect fill="#E3E3E3" height="35.8832" rx="2.75" ry="2.75" style="stroke:#181818;stroke-width:0.55;" width="179.3" x="312.4" y="1728.3986"/><text fill="#000000" font-family="sans-serif" font-size="15.4" lengthAdjust="spacing" textLength="163.9" x="320.1" y="1752.7168">:AddNewEntryAgendaUI</text><rect fill="#E3E3E3" height="35.8832" rx="2.75" ry="2.75" style="stroke:#181818;stroke-width:0.55;" width="149.6" x="627.55" y="98.5832"/><text fill="#000000" font-family="sans-serif" font-size="15.4" lengthAdjust="spacing" textLength="134.2" x="635.25" y="122.9014">:InsertDatePopupUI</text><rect fill="#E3E3E3" height="35.8832" rx="2.75" ry="2.75" style="stroke:#181818;stroke-width:0.55;" width="149.6" x="627.55" y="1728.3986"/><text fill="#000000" font-family="sans-serif" font-size="15.4" lengthAdjust="spacing" textLength="134.2" x="635.25" y="1752.7168">:InsertDatePopupUI</text><rect fill="#E3E3E3" height="35.8832" rx="2.75" ry="2.75" style="stroke:#181818;stroke-width:0.55;" width="234.3" x="893.2" y="98.5832"/><text fill="#000000" font-family="sans-serif" font-size="15.4" lengthAdjust="spacing" textLength="218.9" x="900.9" y="122.9014">:AddNewEntryAgendaController</text><rect fill="#E3E3E3" height="35.8832" rx="2.75" ry="2.75" style="stroke:#181818;stroke-width:0.55;" width="234.3" x="893.2" y="1728.3986"/><text fill="#000000" font-family="sans-serif" font-size="15.4" lengthAdjust="spacing" textLength="218.9" x="900.9" y="1752.7168">:AddNewEntryAgendaController</text><rect fill="#E3E3E3" height="35.8832" rx="2.75" ry="2.75" style="stroke:#181818;stroke-width:0.55;" width="106.7" x="1138.5" y="98.5832"/><text fill="#000000" font-family="sans-serif" font-size="15.4" lengthAdjust="spacing" textLength="91.3" x="1146.2" y="122.9014">:Repositories</text><rect fill="#E3E3E3" height="35.8832" rx="2.75" ry="2.75" style="stroke:#181818;stroke-width:0.55;" width="106.7" x="1138.5" y="1728.3986"/><text fill="#000000" font-family="sans-serif" font-size="15.4" lengthAdjust="spacing" textLength="91.3" x="1146.2" y="1752.7168">:Repositories</text><rect fill="#E3E3E3" height="56.3664" rx="2.75" ry="2.75" style="stroke:#181818;stroke-width:0.55;" width="106.7" x="1256.2" y="78.1"/><text fill="#000000" font-family="sans-serif" font-size="15.4" lengthAdjust="spacing" textLength="81.4" x="1268.85" y="102.4182">repositories</text><text fill="#000000" font-family="sans-serif" font-size="15.4" lengthAdjust="spacing" textLength="91.3" x="1263.9" y="122.9014">:Repositories</text><rect fill="#E3E3E3" height="56.3664" rx="2.75" ry="2.75" style="stroke:#181818;stroke-width:0.55;" width="106.7" x="1256.2" y="1728.3986"/><text fill="#000000" font-family="sans-serif" font-size="15.4" lengthAdjust="spacing" textLength="81.4" x="1268.85" y="1752.7168">repositories</text><text fill="#000000" font-family="sans-serif" font-size="15.4" lengthAdjust="spacing" textLength="91.3" x="1263.9" y="1773.2">:Repositories</text><rect fill="#E3E3E3" height="56.3664" rx="2.75" ry="2.75" style="stroke:#181818;stroke-width:0.55;" width="148.5" x="1510.3" y="78.1"/><text fill="#000000" font-family="sans-serif" font-size="15.4" lengthAdjust="spacing" textLength="127.6" x="1520.75" y="102.4182">agendaRepository</text><text fill="#000000" font-family="sans-serif" font-size="15.4" lengthAdjust="spacing" textLength="133.1" x="1518" y="122.9014">:AgendaRepository</text><rect fill="#E3E3E3" height="56.3664" rx="2.75" ry="2.75" style="stroke:#181818;stroke-width:0.55;" width="148.5" x="1510.3" y="1728.3986"/><text fill="#000000" font-family="sans-serif" font-size="15.4" lengthAdjust="spacing" textLength="127.6" x="1520.75" y="1752.7168">agendaRepository</text><text fill="#000000" font-family="sans-serif" font-size="15.4" lengthAdjust="spacing" textLength="133.1" x="1518" y="1773.2">:AgendaRepository</text><rect fill="#E3E3E3" height="35.8832" rx="2.75" ry="2.75" style="stroke:#181818;stroke-width:0.55;" width="49.5" x="1987.15" y="1728.3986"/><text fill="#000000" font-family="sans-serif" font-size="15.4" lengthAdjust="spacing" textLength="34.1" x="1994.85" y="1752.7168">Task</text><rect fill="#FFFFFF" height="1563.1322" style="stroke:#181818;stroke-width:1.1;" width="11" x="36.85" y="146.5664"/><rect fill="#FFFFFF" height="202.8146" style="stroke:#181818;stroke-width:1.1;" width="11" x="396.55" y="172.1865"/><rect fill="#FFFFFF" height="213.5805" style="stroke:#181818;stroke-width:1.1;" width="11" x="396.55" y="409.4213"/><rect fill="#FFFFFF" height="788.0963" style="stroke:#181818;stroke-width:1.1;" width="11" x="396.55" y="921.6023"/><rect fill="#FFFFFF" height="90.8402" style="stroke:#181818;stroke-width:1.1;" width="11" x="696.85" y="623.0018"/><rect fill="#FFFFFF" height="145.8402" style="stroke:#181818;stroke-width:1.1;" width="11" x="696.85" y="775.7621"/><rect fill="#FFFFFF" height="105.0543" style="stroke:#181818;stroke-width:1.1;" width="11" x="1004.85" y="206.6066"/><rect fill="#FFFFFF" height="691.7561" style="stroke:#181818;stroke-width:1.1;" width="11" x="1004.85" y="983.5225"/><rect fill="#FFFFFF" height="34.4201" style="stroke:#181818;stroke-width:1.1;" width="11" x="1186.35" y="1192.2969"/><rect fill="#FFFFFF" height="34.4201" style="stroke:#181818;stroke-width:1.1;" width="11" x="1304.05" y="1261.1371"/><rect fill="#FFFFFF" height="310.8811" style="stroke:#181818;stroke-width:1.1;" width="11" x="1579.05" y="1329.9773"/><polygon fill="#181818" points="383.35,167.7865,394.35,172.1865,383.35,176.5865,387.75,172.1865" style="stroke:#181818;stroke-width:1.1;"/><line style="stroke:#181818;stroke-width:1.1;" x1="47.85" x2="389.95" y1="172.1865" y2="172.1865"/><text fill="#000000" font-family="sans-serif" font-size="14.3" font-weight="bold" lengthAdjust="spacing" textLength="7.7" x="55.55" y="166.3976">1</text><text fill="#000000" font-family="sans-serif" font-size="14.3" lengthAdjust="spacing" textLength="227.7" x="67.65" y="166.3976">Asks to add a new entry on Agenda</text><polygon fill="#181818" points="991.65,202.2066,1002.65,206.6066,991.65,211.0066,996.05,206.6066" style="stroke:#181818;stroke-width:1.1;"/><line style="stroke:#181818;stroke-width:1.1;" x1="407.55" x2="998.25" y1="206.6066" y2="206.6066"/><text fill="#000000" font-family="sans-serif" font-size="14.3" font-weight="bold" lengthAdjust="spacing" textLength="7.7" x="415.25" y="200.8177">2</text><text fill="#000000" font-family="sans-serif" font-size="14.3" lengthAdjust="spacing" textLength="168.3" x="427.35" y="200.8177">getToDoDTOManagerList()</text><rect fill="none" height="65.1342" style="stroke:#000000;stroke-width:1.6500000000000001;" width="240.9" x="889.9" y="215.4066"/><path d="M889.9,215.4066 L958.1,215.4066 L958.1,225.3066 L947.1,236.3066 L889.9,236.3066 L889.9,215.4066 " fill="#EEEEEE" style="stroke:#000000;stroke-width:2.2;"/><text fill="#000000" font-family="sans-serif" font-size="14.3" font-weight="bold" lengthAdjust="spacing" textLength="18.7" x="904.2" y="233.0378">ref</text><text fill="#000000" font-family="sans-serif" font-size="13.2" lengthAdjust="spacing" textLength="152.9" x="933.9" y="254.9508">SD_getToDoManagerList</text><text fill="#000000" font-family="sans-serif" font-size="13.2" lengthAdjust="spacing" textLength="3.3" x="1008.7" y="272.5078">&#160;</text><polygon fill="#181818" points="419.65,307.2609,408.65,311.6609,419.65,316.0609,415.25,311.6609" style="stroke:#181818;stroke-width:1.1;"/><line style="stroke:#181818;stroke-width:1.1;stroke-dasharray:2.0,2.0;" x1="413.05" x2="1009.25" y1="311.6609" y2="311.6609"/><text fill="#000000" font-family="sans-serif" font-size="14.3" font-weight="bold" lengthAdjust="spacing" textLength="7.7" x="426.25" y="305.872">3</text><text fill="#000000" font-family="sans-serif" font-size="14.3" lengthAdjust="spacing" textLength="136.4" x="438.35" y="305.872">toDoDTOManagerList</text><path d="M11,328.1609 L91.3,328.1609 L91.3,338.3811 L80.3,349.3811 L11,349.3811 L11,328.1609 " fill="#EEEEEE" style="stroke:#000000;stroke-width:1.6500000000000001;"/><rect fill="none" height="166.2805" style="stroke:#000000;stroke-width:1.6500000000000001;" width="585.75" x="11" y="328.1609"/><text fill="#000000" font-family="sans-serif" font-size="14.3" font-weight="bold" lengthAdjust="spacing" textLength="30.8" x="27.5" y="344.6921">loop</text><text fill="#000000" font-family="sans-serif" font-size="12.1" font-weight="bold" lengthAdjust="spacing" textLength="207.9" x="107.8" y="343.4181">[until doesn't select a valid option]</text><polygon fill="#181818" points="59.95,370.6012,48.95,375.0012,59.95,379.4012,55.55,375.0012" style="stroke:#181818;stroke-width:1.1;"/><line style="stroke:#181818;stroke-width:1.1;stroke-dasharray:2.0,2.0;" x1="53.35" x2="400.95" y1="375.0012" y2="375.0012"/><text fill="#000000" font-family="sans-serif" font-size="14.3" font-weight="bold" lengthAdjust="spacing" textLength="7.7" x="66.55" y="369.2122">4</text><text fill="#000000" font-family="sans-serif" font-size="14.3" lengthAdjust="spacing" textLength="310.2" x="78.65" y="369.2122">Shows the To-Do list and asks to select the task</text><polygon fill="#181818" points="383.35,405.0213,394.35,409.4213,383.35,413.8213,387.75,409.4213" style="stroke:#181818;stroke-width:1.1;"/><line style="stroke:#181818;stroke-width:1.1;" x1="47.85" x2="389.95" y1="409.4213" y2="409.4213"/><text fill="#000000" font-family="sans-serif" font-size="14.3" font-weight="bold" lengthAdjust="spacing" textLength="7.7" x="55.55" y="403.6323">5</text><text fill="#000000" font-family="sans-serif" font-size="14.3" lengthAdjust="spacing" textLength="92.4" x="67.65" y="403.6323">Selects a task</text><line style="stroke:#181818;stroke-width:1.1;stroke-dasharray:2.0,2.0;" x1="407.55" x2="453.75" y1="443.8414" y2="443.8414"/><line style="stroke:#181818;stroke-width:1.1;stroke-dasharray:2.0,2.0;" x1="453.75" x2="453.75" y1="443.8414" y2="458.1414"/><line style="stroke:#181818;stroke-width:1.1;stroke-dasharray:2.0,2.0;" x1="408.65" x2="453.75" y1="458.1414" y2="458.1414"/><polygon fill="#181818" points="419.65,453.7414,408.65,458.1414,419.65,462.5414,415.25,458.1414" style="stroke:#181818;stroke-width:1.1;"/><text fill="#000000" font-family="sans-serif" font-size="14.3" font-weight="bold" lengthAdjust="spacing" textLength="7.7" x="415.25" y="438.0524">6</text><text fill="#000000" font-family="sans-serif" font-size="14.3" lengthAdjust="spacing" textLength="156.2" x="427.35" y="438.0524">validates selected option</text><line style="stroke:#181818;stroke-width:1.1;stroke-dasharray:2.0,2.0;" x1="407.55" x2="453.75" y1="527.7615" y2="527.7615"/><line style="stroke:#181818;stroke-width:1.1;stroke-dasharray:2.0,2.0;" x1="453.75" x2="453.75" y1="527.7615" y2="542.0615"/><line style="stroke:#181818;stroke-width:1.1;stroke-dasharray:2.0,2.0;" x1="408.65" x2="453.75" y1="542.0615" y2="542.0615"/><polygon fill="#181818" points="419.65,537.6615,408.65,542.0615,419.65,546.4615,415.25,542.0615" style="stroke:#181818;stroke-width:1.1;"/><text fill="#000000" font-family="sans-serif" font-size="14.3" font-weight="bold" lengthAdjust="spacing" textLength="7.7" x="415.25" y="521.9726">7</text><text fill="#000000" font-family="sans-serif" font-size="14.3" lengthAdjust="spacing" textLength="154" x="427.35" y="521.9726">keepData(selectedTask)</text><polygon fill="#181818" points="683.65,618.6018,694.65,623.0018,683.65,627.4018,688.05,623.0018" style="stroke:#181818;stroke-width:1.1;"/><line style="stroke:#181818;stroke-width:1.1;" x1="402.05" x2="690.25" y1="623.0018" y2="623.0018"/><text fill="#000000" font-family="sans-serif" font-size="14.3" font-weight="bold" lengthAdjust="spacing" textLength="7.7" x="409.75" y="607.7027">8</text><text fill="#000000" font-family="sans-serif" font-size="14.3" lengthAdjust="spacing" textLength="256.3" x="421.85" y="598.1927">Show the popup to insert task execution</text><text fill="#000000" font-family="sans-serif" font-size="14.3" lengthAdjust="spacing" textLength="86.9" x="421.85" y="617.2128">date and hour</text><path d="M11,667.0018 L91.3,667.0018 L91.3,677.2219 L80.3,688.2219 L11,688.2219 L11,667.0018 " fill="#EEEEEE" style="stroke:#000000;stroke-width:1.6500000000000001;"/><rect fill="none" height="193.7805" style="stroke:#000000;stroke-width:1.6500000000000001;" width="864.05" x="11" y="667.0018"/><text fill="#000000" font-family="sans-serif" font-size="14.3" font-weight="bold" lengthAdjust="spacing" textLength="30.8" x="27.5" y="683.5329">loop</text><text fill="#000000" font-family="sans-serif" font-size="12.1" font-weight="bold" lengthAdjust="spacing" textLength="172.7" x="107.8" y="682.2589">[until typed data is validated]</text><polygon fill="#181818" points="59.95,709.442,48.95,713.842,59.95,718.242,55.55,713.842" style="stroke:#181818;stroke-width:1.1;"/><line style="stroke:#181818;stroke-width:1.1;stroke-dasharray:2.0,2.0;" x1="53.35" x2="701.25" y1="713.842" y2="713.842"/><text fill="#000000" font-family="sans-serif" font-size="14.3" font-weight="bold" lengthAdjust="spacing" textLength="7.7" x="66.55" y="708.053">9</text><text fill="#000000" font-family="sans-serif" font-size="14.3" lengthAdjust="spacing" textLength="480.7" x="78.65" y="708.053">Asks to type requested data (execution date and hour for the selected task)</text><polygon fill="#181818" points="683.65,771.3621,694.65,775.7621,683.65,780.1621,688.05,775.7621" style="stroke:#181818;stroke-width:1.1;"/><line style="stroke:#181818;stroke-width:1.1;" x1="47.85" x2="690.25" y1="775.7621" y2="775.7621"/><text fill="#000000" font-family="sans-serif" font-size="14.3" font-weight="bold" lengthAdjust="spacing" textLength="15.4" x="55.55" y="769.9731">10</text><text fill="#000000" font-family="sans-serif" font-size="14.3" lengthAdjust="spacing" textLength="478.5" x="75.35" y="769.9731">Enters date (selectedDate) and time (workStartingHours, workStartingMins)</text><line style="stroke:#181818;stroke-width:1.1;stroke-dasharray:2.0,2.0;" x1="707.85" x2="754.05" y1="810.1822" y2="810.1822"/><line style="stroke:#181818;stroke-width:1.1;stroke-dasharray:2.0,2.0;" x1="754.05" x2="754.05" y1="810.1822" y2="824.4822"/><line style="stroke:#181818;stroke-width:1.1;stroke-dasharray:2.0,2.0;" x1="708.95" x2="754.05" y1="824.4822" y2="824.4822"/><polygon fill="#181818" points="719.95,820.0822,708.95,824.4822,719.95,828.8822,715.55,824.4822" style="stroke:#181818;stroke-width:1.1;"/><text fill="#000000" font-family="sans-serif" font-size="14.3" font-weight="bold" lengthAdjust="spacing" textLength="15.4" x="715.55" y="804.3933">11</text><text fill="#000000" font-family="sans-serif" font-size="14.3" lengthAdjust="spacing" textLength="126.5" x="735.35" y="804.3933">validates typed data</text><polygon fill="#181818" points="419.65,917.2023,408.65,921.6023,419.65,926.0023,415.25,921.6023" style="stroke:#181818;stroke-width:1.1;"/><line style="stroke:#181818;stroke-width:1.1;stroke-dasharray:2.0,2.0;" x1="413.05" x2="701.25" y1="921.6023" y2="921.6023"/><text fill="#000000" font-family="sans-serif" font-size="14.3" font-weight="bold" lengthAdjust="spacing" textLength="15.4" x="426.25" y="915.8134">12</text><text fill="#000000" font-family="sans-serif" font-size="14.3" lengthAdjust="spacing" textLength="233.2" x="446.05" y="915.8134">Sends date and time data to Main UI</text><polygon fill="#181818" points="991.65,979.1225,1002.65,983.5225,991.65,987.9225,996.05,983.5225" style="stroke:#181818;stroke-width:1.1;"/><line style="stroke:#181818;stroke-width:1.1;stroke-dasharray:2.0,2.0;" x1="407.55" x2="998.25" y1="983.5225" y2="983.5225"/><text fill="#000000" font-family="sans-serif" font-size="14.3" font-weight="bold" lengthAdjust="spacing" textLength="15.4" x="415.25" y="977.7335">13</text><text fill="#000000" font-family="sans-serif" font-size="14.3" lengthAdjust="spacing" textLength="556.6" x="435.05" y="977.7335">registerTaskAgenda(selectedTask, selectedDate, workStartingHours, workStartingMins)</text><rect fill="none" height="65.1342" style="stroke:#000000;stroke-width:1.6500000000000001;" width="240.9" x="889.9" y="1019.8225"/><path d="M889.9,1019.8225 L958.1,1019.8225 L958.1,1029.7225 L947.1,1040.7225 L889.9,1040.7225 L889.9,1019.8225 " fill="#EEEEEE" style="stroke:#000000;stroke-width:2.2;"/><text fill="#000000" font-family="sans-serif" font-size="14.3" font-weight="bold" lengthAdjust="spacing" textLength="18.7" x="904.2" y="1037.4536">ref</text><text fill="#000000" font-family="sans-serif" font-size="13.2" lengthAdjust="spacing" textLength="154" x="933.35" y="1059.3666">SD_toTaskDomainObject</text><text fill="#000000" font-family="sans-serif" font-size="13.2" lengthAdjust="spacing" textLength="3.3" x="1008.7" y="1076.9236">&#160;</text><line style="stroke:#181818;stroke-width:1.1;" x1="1015.85" x2="1062.05" y1="1116.0768" y2="1116.0768"/><line style="stroke:#181818;stroke-width:1.1;" x1="1062.05" x2="1062.05" y1="1116.0768" y2="1130.3768"/><line style="stroke:#181818;stroke-width:1.1;" x1="1016.95" x2="1062.05" y1="1130.3768" y2="1130.3768"/><polygon fill="#181818" points="1027.95,1125.9768,1016.95,1130.3768,1027.95,1134.7768,1023.55,1130.3768" style="stroke:#181818;stroke-width:1.1;"/><text fill="#000000" font-family="sans-serif" font-size="14.3" font-weight="bold" lengthAdjust="spacing" textLength="15.4" x="1023.55" y="1110.2878">14</text><text fill="#000000" font-family="sans-serif" font-size="14.3" lengthAdjust="spacing" textLength="27.5" x="1043.35" y="1110.2878">task</text><polygon fill="#181818" points="1173.15,1187.8969,1184.15,1192.2969,1173.15,1196.6969,1177.55,1192.2969" style="stroke:#181818;stroke-width:1.1;"/><line style="stroke:#181818;stroke-width:1.1;" x1="1015.85" x2="1179.75" y1="1192.2969" y2="1192.2969"/><text fill="#000000" font-family="sans-serif" font-size="14.3" font-weight="bold" lengthAdjust="spacing" textLength="15.4" x="1023.55" y="1186.5079">15</text><text fill="#000000" font-family="sans-serif" font-size="14.3" lengthAdjust="spacing" textLength="82.5" x="1043.35" y="1186.5079">getInstance()</text><polygon fill="#181818" points="1027.95,1222.317,1016.95,1226.717,1027.95,1231.117,1023.55,1226.717" style="stroke:#181818;stroke-width:1.1;"/><line style="stroke:#181818;stroke-width:1.1;stroke-dasharray:2.0,2.0;" x1="1021.35" x2="1190.75" y1="1226.717" y2="1226.717"/><text fill="#000000" font-family="sans-serif" font-size="14.3" font-weight="bold" lengthAdjust="spacing" textLength="15.4" x="1034.55" y="1220.928">16</text><text fill="#000000" font-family="sans-serif" font-size="14.3" lengthAdjust="spacing" textLength="73.7" x="1054.35" y="1220.928">repositories</text><polygon fill="#181818" points="1290.85,1256.7371,1301.85,1261.1371,1290.85,1265.5371,1295.25,1261.1371" style="stroke:#181818;stroke-width:1.1;"/><line style="stroke:#181818;stroke-width:1.1;" x1="1015.85" x2="1297.45" y1="1261.1371" y2="1261.1371"/><text fill="#000000" font-family="sans-serif" font-size="14.3" font-weight="bold" lengthAdjust="spacing" textLength="15.4" x="1023.55" y="1255.3481">17</text><text fill="#000000" font-family="sans-serif" font-size="14.3" lengthAdjust="spacing" textLength="145.2" x="1043.35" y="1255.3481">getAgendaRepository()</text><polygon fill="#181818" points="1027.95,1291.1572,1016.95,1295.5572,1027.95,1299.9572,1023.55,1295.5572" style="stroke:#181818;stroke-width:1.1;"/><line style="stroke:#181818;stroke-width:1.1;stroke-dasharray:2.0,2.0;" x1="1021.35" x2="1308.45" y1="1295.5572" y2="1295.5572"/><text fill="#000000" font-family="sans-serif" font-size="14.3" font-weight="bold" lengthAdjust="spacing" textLength="15.4" x="1034.55" y="1289.7683">18</text><text fill="#000000" font-family="sans-serif" font-size="14.3" lengthAdjust="spacing" textLength="114.4" x="1054.35" y="1289.7683">agendaRepository</text><polygon fill="#181818" points="1565.85,1325.5773,1576.85,1329.9773,1565.85,1334.3773,1570.25,1329.9773" style="stroke:#181818;stroke-width:1.1;"/><line style="stroke:#181818;stroke-width:1.1;" x1="1015.85" x2="1572.45" y1="1329.9773" y2="1329.9773"/><text fill="#000000" font-family="sans-serif" font-size="14.3" font-weight="bold" lengthAdjust="spacing" textLength="15.4" x="1023.55" y="1324.1884">19</text><text fill="#000000" font-family="sans-serif" font-size="14.3" lengthAdjust="spacing" textLength="522.5" x="1043.35" y="1324.1884">registerTaskAgenda(task, executionDate, workStartingDays, workStartingMinutes)</text><line style="stroke:#181818;stroke-width:1.1;stroke-dasharray:2.0,2.0;" x1="1590.05" x2="1636.25" y1="1383.4176" y2="1383.4176"/><line style="stroke:#181818;stroke-width:1.1;stroke-dasharray:2.0,2.0;" x1="1636.25" x2="1636.25" y1="1383.4176" y2="1397.7176"/><line style="stroke:#181818;stroke-width:1.1;stroke-dasharray:2.0,2.0;" x1="1591.15" x2="1636.25" y1="1397.7176" y2="1397.7176"/><polygon fill="#181818" points="1602.15,1393.3176,1591.15,1397.7176,1602.15,1402.1176,1597.75,1397.7176" style="stroke:#181818;stroke-width:1.1;"/><text fill="#000000" font-family="sans-serif" font-size="14.3" font-weight="bold" lengthAdjust="spacing" textLength="15.4" x="1597.75" y="1368.1186">20</text><text fill="#000000" font-family="sans-serif" font-size="14.3" lengthAdjust="spacing" textLength="280.5" x="1617.55" y="1358.6085">add(task, executionDate, workStartingDays,</text><text fill="#000000" font-family="sans-serif" font-size="14.3" lengthAdjust="spacing" textLength="134.2" x="1617.55" y="1377.6286">workStartingMinutes)</text><line style="stroke:#181818;stroke-width:1.1;stroke-dasharray:2.0,2.0;" x1="1590.05" x2="1636.25" y1="1432.1377" y2="1432.1377"/><line style="stroke:#181818;stroke-width:1.1;stroke-dasharray:2.0,2.0;" x1="1636.25" x2="1636.25" y1="1432.1377" y2="1446.4377"/><line style="stroke:#181818;stroke-width:1.1;stroke-dasharray:2.0,2.0;" x1="1591.15" x2="1636.25" y1="1446.4377" y2="1446.4377"/><polygon fill="#181818" points="1602.15,1442.0377,1591.15,1446.4377,1602.15,1450.8377,1597.75,1446.4377" style="stroke:#181818;stroke-width:1.1;"/><text fill="#000000" font-family="sans-serif" font-size="14.3" font-weight="bold" lengthAdjust="spacing" textLength="15.4" x="1597.75" y="1426.3487">21</text><text fill="#000000" font-family="sans-serif" font-size="14.3" lengthAdjust="spacing" textLength="162.8" x="1617.55" y="1426.3487">validateTaskAgenda(task)</text><polygon fill="#181818" points="1973.95,1503.9578,1984.95,1508.3578,1973.95,1512.7578,1978.35,1508.3578" style="stroke:#181818;stroke-width:1.1;"/><line style="stroke:#181818;stroke-width:1.1;" x1="1590.05" x2="1980.55" y1="1508.3578" y2="1508.3578"/><text fill="#000000" font-family="sans-serif" font-size="14.3" font-weight="bold" lengthAdjust="spacing" textLength="15.4" x="1597.75" y="1502.5688">22</text><text fill="#000000" font-family="sans-serif" font-size="14.3" lengthAdjust="spacing" textLength="265.1" x="1617.55" y="1502.5688">setStatus(AGENDA_DEFAULT_STATUS)</text><rect fill="#E3E3E3" height="35.8832" rx="2.75" ry="2.75" style="stroke:#181818;stroke-width:0.55;" width="49.5" x="1987.15" y="1498.2763"/><text fill="#000000" font-family="sans-serif" font-size="15.4" lengthAdjust="spacing" textLength="34.1" x="1994.85" y="1522.5944">Task</text><path d="M2042.15,1488.2377 L2042.15,1555.3377 L2272.05,1555.3377 L2272.05,1499.2377 L2261.05,1488.2377 L2042.15,1488.2377 " fill="#FAFAFA" style="stroke:#181818;stroke-width:0.55;"/><path d="M2261.05,1488.2377 L2261.05,1499.2377 L2272.05,1499.2377 L2261.05,1488.2377 " fill="#FAFAFA" style="stroke:#181818;stroke-width:0.55;"/><text fill="#000000" font-family="sans-serif" font-size="14.3" lengthAdjust="spacing" textLength="206.8" x="2048.75" y="1509.1688">When a task enters the Agenda,</text><text fill="#000000" font-family="sans-serif" font-size="14.3" lengthAdjust="spacing" textLength="181.5" x="2048.75" y="1528.189">the default status of the task</text><text fill="#000000" font-family="sans-serif" font-size="14.3" lengthAdjust="spacing" textLength="93.5" x="2048.75" y="1547.2091">is "PLANNED"</text><polygon fill="#181818" points="1973.95,1602.0383,1984.95,1606.4383,1973.95,1610.8383,1978.35,1606.4383" style="stroke:#181818;stroke-width:1.1;"/><line style="stroke:#181818;stroke-width:1.1;" x1="1590.05" x2="1980.55" y1="1606.4383" y2="1606.4383"/><text fill="#000000" font-family="sans-serif" font-size="14.3" font-weight="bold" lengthAdjust="spacing" textLength="15.4" x="1597.75" y="1591.1393">23</text><text fill="#000000" font-family="sans-serif" font-size="14.3" lengthAdjust="spacing" textLength="350.9" x="1617.55" y="1581.6292">setTaskWorkPeriod(executionDate, workStartingHours,</text><text fill="#000000" font-family="sans-serif" font-size="14.3" lengthAdjust="spacing" textLength="258.5" x="1617.55" y="1600.6493">workStartingMinutes, expectedDuration);</text><rect fill="#E3E3E3" height="35.8832" rx="2.75" ry="2.75" style="stroke:#181818;stroke-width:0.55;" width="49.5" x="1987.15" y="1567.2551"/><text fill="#000000" font-family="sans-serif" font-size="15.4" lengthAdjust="spacing" textLength="34.1" x="1994.85" y="1591.5732">Task</text><polygon fill="#181818" points="1027.95,1636.4584,1016.95,1640.8584,1027.95,1645.2584,1023.55,1640.8584" style="stroke:#181818;stroke-width:1.1;"/><line style="stroke:#181818;stroke-width:1.1;stroke-dasharray:2.0,2.0;" x1="1021.35" x2="1583.45" y1="1640.8584" y2="1640.8584"/><text fill="#000000" font-family="sans-serif" font-size="14.3" font-weight="bold" lengthAdjust="spacing" textLength="15.4" x="1034.55" y="1635.0694">24</text><text fill="#000000" font-family="sans-serif" font-size="14.3" lengthAdjust="spacing" textLength="116.6" x="1054.35" y="1635.0694">operation success</text><polygon fill="#181818" points="419.65,1670.8785,408.65,1675.2785,419.65,1679.6785,415.25,1675.2785" style="stroke:#181818;stroke-width:1.1;"/><line style="stroke:#181818;stroke-width:1.1;stroke-dasharray:2.0,2.0;" x1="413.05" x2="1009.25" y1="1675.2785" y2="1675.2785"/><text fill="#000000" font-family="sans-serif" font-size="14.3" font-weight="bold" lengthAdjust="spacing" textLength="15.4" x="426.25" y="1669.4896">25</text><text fill="#000000" font-family="sans-serif" font-size="14.3" lengthAdjust="spacing" textLength="116.6" x="446.05" y="1669.4896">operation success</text><polygon fill="#181818" points="54.45,1705.2986,43.45,1709.6986,54.45,1714.0986,50.05,1709.6986" style="stroke:#181818;stroke-width:1.1;"/><line style="stroke:#181818;stroke-width:1.1;stroke-dasharray:2.0,2.0;" x1="47.85" x2="400.95" y1="1709.6986" y2="1709.6986"/><text fill="#000000" font-family="sans-serif" font-size="14.3" font-weight="bold" lengthAdjust="spacing" textLength="15.4" x="61.05" y="1703.9097">26</text><text fill="#000000" font-family="sans-serif" font-size="14.3" lengthAdjust="spacing" textLength="168.3" x="80.85" y="1703.9097">Display operation success</text><!--SRC=[dLPPR-Cs47xNhnZufVOY1efzJ840mihT1iY5oCQ-10YuqbXcBPCgISKra1_V8NLHX-Di-MAQckERZtDGxxaec687E4WXavsI1mIZIWnq-wLWoPvb69jJZg0mCKnakI-WTooLHouosB9SOn0ORaXq4__-zIii8JvfWmU8yPyIHO8GSPPPjNaSHuiWOAMHeZpyH4Nxn4W5i-_n_GoO1leDo8NX2I-OC32x3jFq0OyhOTGfp52aR7Fh93Ut0y5ReL6PY1byaaLPr69kVydaDqbxcUUedCwtzVFTGEKP2wavGUMedSppwkcnBwCyaHSnhK4OYSi4-vhCWMWLJgGT3ewSXU5XuEZZRnIo8ou0MhI1vGtH0zSGwhq68u6bAJ0GU0IqGOCKjQrAfJL2d5Odf4qsB0za9KEpbf6Cre_tJ11MTSUrcIy6keuqTwHm2_8DLNLaJ-BejJRYMQY42OLLgFuuXyi6lHavTK8fJlYqAvUoW58OdaCgKOlV36ZCANifzZUMynHaORWKhOADafnPnguXtiaZaRL3MCjb924dVy087Qj9h6rP2KDdDLCUcfOz_mfYfwK9WbCQqkt1SE8E9ttJjJiSWNv_Vs_tH5umZCQPsICML0bitbXPa_D5pqPFxwQgave65sFX3YXkxkhAmGVy5vFImdaH5gNZPoTBrHhhqp65kVrULURKxPbJGN6J0mPSjvHueLPWkxjhyjmgKZPHrz6ciJ1lCKCFCcofxzX0Mw9DZoCl4W_fEBucjlhIdUmrK7D1fIkFxINOthHm00odfZi_IhMFZUq48lkB8Eahy8_kYVb5S8wpZeFcwhhSwGZiGRIrPcaEHZdG6TlSsfmLgUxOSc0TbqJnFUEY2NsQeai9KETftLmKPbHeg6o2LZsfbxDNu9FNv-T3oaOXdcaQusPLDomZhVz87YZWnvz_4uR0hxkkQNMDgmsgBVKHYaRG3eEgjJOZOTxXzbSBsmsSIH6xdBqUhTtqcLJoxivPdfBnmJOm7URX86g6mOVWszdtOH2Db1_CS3v-9g3ptfgeXa5C9wDnITZsa74MHkmqJiAIgd1ydot0yI0VYex0BQSHqsJ_9CGNCOdnVtjkkis0gmcBVl6Vzt83rjANBsHQeo6SfjJpyFlg8GfVezMVuUPk_Hglm_Kcdd0X9B6gUBOpPvEhMJzsAEffR5z3jalRAL01khgeRcLJtB8ofzU50mbospqABgdJF9iztOKF3wjeTb6ujspFiM46lyobtV-Wktz2nMKw_o1HgeuwcIasmOgg4PUAMVN57q7moVIfwrWMMAc2BfC4zRWpUKLykKRwhyLVCbxDWEc7OCHraRFJ6OE3zvxtrxx0_mC0]--></g></svg>