<?xml version="1.0" encoding="us-ascii" standalone="no"?><svg xmlns="http://www.w3.org/2000/svg" xmlns:xlink="http://www.w3.org/1999/xlink" contentStyleType="text/css" height="1655px" preserveAspectRatio="none" style="width:2072px;height:1655px;background:#FFFFFF;" version="1.1" viewBox="0 0 2072 1655" width="2072px" zoomAndPan="magnify"><defs/><g><text fill="#000000" font-family="sans-serif" font-size="14" font-weight="bold" lengthAdjust="spacing" textLength="188" x="943.25" y="30.1074">US022 - Sequence Diagram</text><rect fill="#FFFFFF" height="1421.0293" style="stroke:#181818;stroke-width:1.0;" width="10" x="33.5" y="133.2422"/><rect fill="#FFFFFF" height="184.377" style="stroke:#181818;stroke-width:1.0;" width="10" x="360.5" y="156.5332"/><rect fill="#FFFFFF" height="194.1641" style="stroke:#181818;stroke-width:1.0;" width="10" x="360.5" y="372.2012"/><rect fill="#FFFFFF" height="716.4512" style="stroke:#181818;stroke-width:1.0;" width="10" x="360.5" y="837.8203"/><rect fill="#FFFFFF" height="82.582" style="stroke:#181818;stroke-width:1.0;" width="10" x="633.5" y="566.3652"/><rect fill="#FFFFFF" height="132.582" style="stroke:#181818;stroke-width:1.0;" width="10" x="633.5" y="705.2383"/><rect fill="#FFFFFF" height="95.5039" style="stroke:#181818;stroke-width:1.0;" width="10" x="913.5" y="187.8242"/><rect fill="#FFFFFF" height="628.8691" style="stroke:#181818;stroke-width:1.0;" width="10" x="913.5" y="894.1113"/><rect fill="#FFFFFF" height="31.291" style="stroke:#181818;stroke-width:1.0;" width="10" x="1078.5" y="1083.9063"/><rect fill="#FFFFFF" height="31.291" style="stroke:#181818;stroke-width:1.0;" width="10" x="1185.5" y="1146.4883"/><rect fill="#FFFFFF" height="282.6191" style="stroke:#181818;stroke-width:1.0;" width="10" x="1435.5" y="1209.0703"/><rect fill="none" height="151.1641" style="stroke:#000000;stroke-width:1.5;" width="532.5" x="10" y="298.3281"/><rect fill="none" height="176.1641" style="stroke:#000000;stroke-width:1.5;" width="785.5" x="10" y="606.3652"/><line style="stroke:#181818;stroke-width:0.5;stroke-dasharray:5.0,5.0;" x1="38" x2="38" y1="123.2422" y2="1572.2715"/><line style="stroke:#181818;stroke-width:0.5;stroke-dasharray:5.0,5.0;" x1="365" x2="365" y1="123.2422" y2="1572.2715"/><line style="stroke:#181818;stroke-width:0.5;stroke-dasharray:5.0,5.0;" x1="638.5" x2="638.5" y1="123.2422" y2="1572.2715"/><line style="stroke:#181818;stroke-width:0.5;stroke-dasharray:5.0,5.0;" x1="918" x2="918" y1="123.2422" y2="1572.2715"/><line style="stroke:#181818;stroke-width:0.5;stroke-dasharray:5.0,5.0;" x1="1083" x2="1083" y1="123.2422" y2="1572.2715"/><line style="stroke:#181818;stroke-width:0.5;stroke-dasharray:5.0,5.0;" x1="1190" x2="1190" y1="123.2422" y2="1572.2715"/><line style="stroke:#181818;stroke-width:0.5;stroke-dasharray:5.0,5.0;" x1="1440" x2="1440" y1="123.2422" y2="1572.2715"/><line style="stroke:#181818;stroke-width:0.5;stroke-dasharray:5.0,5.0;" x1="1828.5" x2="1828.5" y1="1454.1074" y2="1572.2715"/><text fill="#000000" font-family="sans-serif" font-size="14" lengthAdjust="spacing" textLength="31" x="20" y="119.7285">GSM</text><ellipse cx="38.5" cy="53.1211" fill="#E3E3E3" rx="8" ry="8" style="stroke:#181818;stroke-width:0.5;"/><path d="M38.5,61.1211 L38.5,88.1211 M25.5,69.1211 L51.5,69.1211 M38.5,88.1211 L25.5,103.1211 M38.5,88.1211 L51.5,103.1211 " fill="none" style="stroke:#181818;stroke-width:0.5;"/><text fill="#000000" font-family="sans-serif" font-size="14" lengthAdjust="spacing" textLength="31" x="20" y="1586.3789">GSM</text><ellipse cx="38.5" cy="1598.3926" fill="#E3E3E3" rx="8" ry="8" style="stroke:#181818;stroke-width:0.5;"/><path d="M38.5,1606.3926 L38.5,1633.3926 M25.5,1614.3926 L51.5,1614.3926 M38.5,1633.3926 L25.5,1648.3926 M38.5,1633.3926 L51.5,1648.3926 " fill="none" style="stroke:#181818;stroke-width:0.5;"/><rect fill="#E3E3E3" height="32.6211" rx="2.5" ry="2.5" style="stroke:#181818;stroke-width:0.5;" width="163" x="284" y="89.6211"/><text fill="#000000" font-family="sans-serif" font-size="14" lengthAdjust="spacing" textLength="149" x="291" y="111.7285">:AddNewEntryAgendaUI</text><rect fill="#E3E3E3" height="32.6211" rx="2.5" ry="2.5" style="stroke:#181818;stroke-width:0.5;" width="163" x="284" y="1571.2715"/><text fill="#000000" font-family="sans-serif" font-size="14" lengthAdjust="spacing" textLength="149" x="291" y="1593.3789">:AddNewEntryAgendaUI</text><rect fill="#E3E3E3" height="32.6211" rx="2.5" ry="2.5" style="stroke:#181818;stroke-width:0.5;" width="136" x="570.5" y="89.6211"/><text fill="#000000" font-family="sans-serif" font-size="14" lengthAdjust="spacing" textLength="122" x="577.5" y="111.7285">:InsertDatePopupUI</text><rect fill="#E3E3E3" height="32.6211" rx="2.5" ry="2.5" style="stroke:#181818;stroke-width:0.5;" width="136" x="570.5" y="1571.2715"/><text fill="#000000" font-family="sans-serif" font-size="14" lengthAdjust="spacing" textLength="122" x="577.5" y="1593.3789">:InsertDatePopupUI</text><rect fill="#E3E3E3" height="32.6211" rx="2.5" ry="2.5" style="stroke:#181818;stroke-width:0.5;" width="213" x="812" y="89.6211"/><text fill="#000000" font-family="sans-serif" font-size="14" lengthAdjust="spacing" textLength="199" x="819" y="111.7285">:AddNewEntryAgendaController</text><rect fill="#E3E3E3" height="32.6211" rx="2.5" ry="2.5" style="stroke:#181818;stroke-width:0.5;" width="213" x="812" y="1571.2715"/><text fill="#000000" font-family="sans-serif" font-size="14" lengthAdjust="spacing" textLength="199" x="819" y="1593.3789">:AddNewEntryAgendaController</text><rect fill="#E3E3E3" height="32.6211" rx="2.5" ry="2.5" style="stroke:#181818;stroke-width:0.5;" width="97" x="1035" y="89.6211"/><text fill="#000000" font-family="sans-serif" font-size="14" lengthAdjust="spacing" textLength="83" x="1042" y="111.7285">:Repositories</text><rect fill="#E3E3E3" height="32.6211" rx="2.5" ry="2.5" style="stroke:#181818;stroke-width:0.5;" width="97" x="1035" y="1571.2715"/><text fill="#000000" font-family="sans-serif" font-size="14" lengthAdjust="spacing" textLength="83" x="1042" y="1593.3789">:Repositories</text><rect fill="#E3E3E3" height="51.2422" rx="2.5" ry="2.5" style="stroke:#181818;stroke-width:0.5;" width="97" x="1142" y="71"/><text fill="#000000" font-family="sans-serif" font-size="14" lengthAdjust="spacing" textLength="74" x="1153.5" y="93.1074">repositories</text><text fill="#000000" font-family="sans-serif" font-size="14" lengthAdjust="spacing" textLength="83" x="1149" y="111.7285">:Repositories</text><rect fill="#E3E3E3" height="51.2422" rx="2.5" ry="2.5" style="stroke:#181818;stroke-width:0.5;" width="97" x="1142" y="1571.2715"/><text fill="#000000" font-family="sans-serif" font-size="14" lengthAdjust="spacing" textLength="74" x="1153.5" y="1593.3789">repositories</text><text fill="#000000" font-family="sans-serif" font-size="14" lengthAdjust="spacing" textLength="83" x="1149" y="1612">:Repositories</text><rect fill="#E3E3E3" height="51.2422" rx="2.5" ry="2.5" style="stroke:#181818;stroke-width:0.5;" width="135" x="1373" y="71"/><text fill="#000000" font-family="sans-serif" font-size="14" lengthAdjust="spacing" textLength="116" x="1382.5" y="93.1074">agendaRepository</text><text fill="#000000" font-family="sans-serif" font-size="14" lengthAdjust="spacing" textLength="121" x="1380" y="111.7285">:AgendaRepository</text><rect fill="#E3E3E3" height="51.2422" rx="2.5" ry="2.5" style="stroke:#181818;stroke-width:0.5;" width="135" x="1373" y="1571.2715"/><text fill="#000000" font-family="sans-serif" font-size="14" lengthAdjust="spacing" textLength="116" x="1382.5" y="1593.3789">agendaRepository</text><text fill="#000000" font-family="sans-serif" font-size="14" lengthAdjust="spacing" textLength="121" x="1380" y="1612">:AgendaRepository</text><rect fill="#E3E3E3" height="32.6211" rx="2.5" ry="2.5" style="stroke:#181818;stroke-width:0.5;" width="45" x="1806.5" y="1571.2715"/><text fill="#000000" font-family="sans-serif" font-size="14" lengthAdjust="spacing" textLength="31" x="1813.5" y="1593.3789">Task</text><rect fill="#FFFFFF" height="1421.0293" style="stroke:#181818;stroke-width:1.0;" width="10" x="33.5" y="133.2422"/><rect fill="#FFFFFF" height="184.377" style="stroke:#181818;stroke-width:1.0;" width="10" x="360.5" y="156.5332"/><rect fill="#FFFFFF" height="194.1641" style="stroke:#181818;stroke-width:1.0;" width="10" x="360.5" y="372.2012"/><rect fill="#FFFFFF" height="716.4512" style="stroke:#181818;stroke-width:1.0;" width="10" x="360.5" y="837.8203"/><rect fill="#FFFFFF" height="82.582" style="stroke:#181818;stroke-width:1.0;" width="10" x="633.5" y="566.3652"/><rect fill="#FFFFFF" height="132.582" style="stroke:#181818;stroke-width:1.0;" width="10" x="633.5" y="705.2383"/><rect fill="#FFFFFF" height="95.5039" style="stroke:#181818;stroke-width:1.0;" width="10" x="913.5" y="187.8242"/><rect fill="#FFFFFF" height="628.8691" style="stroke:#181818;stroke-width:1.0;" width="10" x="913.5" y="894.1113"/><rect fill="#FFFFFF" height="31.291" style="stroke:#181818;stroke-width:1.0;" width="10" x="1078.5" y="1083.9063"/><rect fill="#FFFFFF" height="31.291" style="stroke:#181818;stroke-width:1.0;" width="10" x="1185.5" y="1146.4883"/><rect fill="#FFFFFF" height="282.6191" style="stroke:#181818;stroke-width:1.0;" width="10" x="1435.5" y="1209.0703"/><polygon fill="#181818" points="348.5,152.5332,358.5,156.5332,348.5,160.5332,352.5,156.5332" style="stroke:#181818;stroke-width:1.0;"/><line style="stroke:#181818;stroke-width:1.0;" x1="43.5" x2="354.5" y1="156.5332" y2="156.5332"/><text fill="#000000" font-family="sans-serif" font-size="13" font-weight="bold" lengthAdjust="spacing" textLength="7" x="50.5" y="151.2705">1</text><text fill="#000000" font-family="sans-serif" font-size="13" lengthAdjust="spacing" textLength="207" x="61.5" y="151.2705">Asks to add a new entry on Agenda</text><polygon fill="#181818" points="901.5,183.8242,911.5,187.8242,901.5,191.8242,905.5,187.8242" style="stroke:#181818;stroke-width:1.0;"/><line style="stroke:#181818;stroke-width:1.0;" x1="370.5" x2="907.5" y1="187.8242" y2="187.8242"/><text fill="#000000" font-family="sans-serif" font-size="13" font-weight="bold" lengthAdjust="spacing" textLength="7" x="377.5" y="182.5615">2</text><text fill="#000000" font-family="sans-serif" font-size="13" lengthAdjust="spacing" textLength="153" x="388.5" y="182.5615">getToDoDTOManagerList()</text><rect fill="none" height="59.2129" style="stroke:#000000;stroke-width:1.5;" width="219" x="809" y="195.8242"/><path d="M809,195.8242 L871,195.8242 L871,204.8242 L861,214.8242 L809,214.8242 L809,195.8242 " fill="#EEEEEE" style="stroke:#000000;stroke-width:2.0;"/><text fill="#000000" font-family="sans-serif" font-size="13" font-weight="bold" lengthAdjust="spacing" textLength="17" x="822" y="211.8525">ref</text><text fill="#000000" font-family="sans-serif" font-size="12" lengthAdjust="spacing" textLength="139" x="849" y="231.7734">SD_getToDoManagerList</text><text fill="#000000" font-family="sans-serif" font-size="12" lengthAdjust="spacing" textLength="3" x="917" y="247.7344">&#160;</text><polygon fill="#181818" points="381.5,279.3281,371.5,283.3281,381.5,287.3281,377.5,283.3281" style="stroke:#181818;stroke-width:1.0;"/><line style="stroke:#181818;stroke-width:1.0;stroke-dasharray:2.0,2.0;" x1="375.5" x2="917.5" y1="283.3281" y2="283.3281"/><text fill="#000000" font-family="sans-serif" font-size="13" font-weight="bold" lengthAdjust="spacing" textLength="7" x="387.5" y="278.0654">3</text><text fill="#000000" font-family="sans-serif" font-size="13" lengthAdjust="spacing" textLength="124" x="398.5" y="278.0654">toDoDTOManagerList</text><path d="M10,298.3281 L83,298.3281 L83,307.6191 L73,317.6191 L10,317.6191 L10,298.3281 " fill="#EEEEEE" style="stroke:#000000;stroke-width:1.5;"/><rect fill="none" height="151.1641" style="stroke:#000000;stroke-width:1.5;" width="532.5" x="10" y="298.3281"/><text fill="#000000" font-family="sans-serif" font-size="13" font-weight="bold" lengthAdjust="spacing" textLength="28" x="25" y="313.3564">loop</text><text fill="#000000" font-family="sans-serif" font-size="11" font-weight="bold" lengthAdjust="spacing" textLength="189" x="98" y="312.1982">[until doesn't select a valid option]</text><polygon fill="#181818" points="54.5,336.9102,44.5,340.9102,54.5,344.9102,50.5,340.9102" style="stroke:#181818;stroke-width:1.0;"/><line style="stroke:#181818;stroke-width:1.0;stroke-dasharray:2.0,2.0;" x1="48.5" x2="364.5" y1="340.9102" y2="340.9102"/><text fill="#000000" font-family="sans-serif" font-size="13" font-weight="bold" lengthAdjust="spacing" textLength="7" x="60.5" y="335.6475">4</text><text fill="#000000" font-family="sans-serif" font-size="13" lengthAdjust="spacing" textLength="282" x="71.5" y="335.6475">Shows the To-Do list and asks to select the task</text><polygon fill="#181818" points="348.5,368.2012,358.5,372.2012,348.5,376.2012,352.5,372.2012" style="stroke:#181818;stroke-width:1.0;"/><line style="stroke:#181818;stroke-width:1.0;" x1="43.5" x2="354.5" y1="372.2012" y2="372.2012"/><text fill="#000000" font-family="sans-serif" font-size="13" font-weight="bold" lengthAdjust="spacing" textLength="7" x="50.5" y="366.9385">5</text><text fill="#000000" font-family="sans-serif" font-size="13" lengthAdjust="spacing" textLength="84" x="61.5" y="366.9385">Selects a task</text><line style="stroke:#181818;stroke-width:1.0;stroke-dasharray:2.0,2.0;" x1="370.5" x2="412.5" y1="403.4922" y2="403.4922"/><line style="stroke:#181818;stroke-width:1.0;stroke-dasharray:2.0,2.0;" x1="412.5" x2="412.5" y1="403.4922" y2="416.4922"/><line style="stroke:#181818;stroke-width:1.0;stroke-dasharray:2.0,2.0;" x1="371.5" x2="412.5" y1="416.4922" y2="416.4922"/><polygon fill="#181818" points="381.5,412.4922,371.5,416.4922,381.5,420.4922,377.5,416.4922" style="stroke:#181818;stroke-width:1.0;"/><text fill="#000000" font-family="sans-serif" font-size="13" font-weight="bold" lengthAdjust="spacing" textLength="7" x="377.5" y="398.2295">6</text><text fill="#000000" font-family="sans-serif" font-size="13" lengthAdjust="spacing" textLength="142" x="388.5" y="398.2295">validates selected option</text><line style="stroke:#181818;stroke-width:1.0;stroke-dasharray:2.0,2.0;" x1="370.5" x2="412.5" y1="479.7832" y2="479.7832"/><line style="stroke:#181818;stroke-width:1.0;stroke-dasharray:2.0,2.0;" x1="412.5" x2="412.5" y1="479.7832" y2="492.7832"/><line style="stroke:#181818;stroke-width:1.0;stroke-dasharray:2.0,2.0;" x1="371.5" x2="412.5" y1="492.7832" y2="492.7832"/><polygon fill="#181818" points="381.5,488.7832,371.5,492.7832,381.5,496.7832,377.5,492.7832" style="stroke:#181818;stroke-width:1.0;"/><text fill="#000000" font-family="sans-serif" font-size="13" font-weight="bold" lengthAdjust="spacing" textLength="7" x="377.5" y="474.5205">7</text><text fill="#000000" font-family="sans-serif" font-size="13" lengthAdjust="spacing" textLength="140" x="388.5" y="474.5205">keepData(selectedTask)</text><polygon fill="#181818" points="621.5,562.3652,631.5,566.3652,621.5,570.3652,625.5,566.3652" style="stroke:#181818;stroke-width:1.0;"/><line style="stroke:#181818;stroke-width:1.0;" x1="365.5" x2="627.5" y1="566.3652" y2="566.3652"/><text fill="#000000" font-family="sans-serif" font-size="13" font-weight="bold" lengthAdjust="spacing" textLength="7" x="372.5" y="552.457">8</text><text fill="#000000" font-family="sans-serif" font-size="13" lengthAdjust="spacing" textLength="233" x="383.5" y="543.8115">Show the popup to insert task execution</text><text fill="#000000" font-family="sans-serif" font-size="13" lengthAdjust="spacing" textLength="79" x="383.5" y="561.1025">date and hour</text><path d="M10,606.3652 L83,606.3652 L83,615.6563 L73,625.6563 L10,625.6563 L10,606.3652 " fill="#EEEEEE" style="stroke:#000000;stroke-width:1.5;"/><rect fill="none" height="176.1641" style="stroke:#000000;stroke-width:1.5;" width="785.5" x="10" y="606.3652"/><text fill="#000000" font-family="sans-serif" font-size="13" font-weight="bold" lengthAdjust="spacing" textLength="28" x="25" y="621.3936">loop</text><text fill="#000000" font-family="sans-serif" font-size="11" font-weight="bold" lengthAdjust="spacing" textLength="157" x="98" y="620.2354">[until typed data is validated]</text><polygon fill="#181818" points="54.5,644.9473,44.5,648.9473,54.5,652.9473,50.5,648.9473" style="stroke:#181818;stroke-width:1.0;"/><line style="stroke:#181818;stroke-width:1.0;stroke-dasharray:2.0,2.0;" x1="48.5" x2="637.5" y1="648.9473" y2="648.9473"/><text fill="#000000" font-family="sans-serif" font-size="13" font-weight="bold" lengthAdjust="spacing" textLength="7" x="60.5" y="643.6846">9</text><text fill="#000000" font-family="sans-serif" font-size="13" lengthAdjust="spacing" textLength="437" x="71.5" y="643.6846">Asks to type requested data (execution date and hour for the selected task)</text><polygon fill="#181818" points="621.5,701.2383,631.5,705.2383,621.5,709.2383,625.5,705.2383" style="stroke:#181818;stroke-width:1.0;"/><line style="stroke:#181818;stroke-width:1.0;" x1="43.5" x2="627.5" y1="705.2383" y2="705.2383"/><text fill="#000000" font-family="sans-serif" font-size="13" font-weight="bold" lengthAdjust="spacing" textLength="14" x="50.5" y="699.9756">10</text><text fill="#000000" font-family="sans-serif" font-size="13" lengthAdjust="spacing" textLength="435" x="68.5" y="699.9756">Enters date (selectedDate) and time (workStartingHours, workStartingMins)</text><line style="stroke:#181818;stroke-width:1.0;stroke-dasharray:2.0,2.0;" x1="643.5" x2="685.5" y1="736.5293" y2="736.5293"/><line style="stroke:#181818;stroke-width:1.0;stroke-dasharray:2.0,2.0;" x1="685.5" x2="685.5" y1="736.5293" y2="749.5293"/><line style="stroke:#181818;stroke-width:1.0;stroke-dasharray:2.0,2.0;" x1="644.5" x2="685.5" y1="749.5293" y2="749.5293"/><polygon fill="#181818" points="654.5,745.5293,644.5,749.5293,654.5,753.5293,650.5,749.5293" style="stroke:#181818;stroke-width:1.0;"/><text fill="#000000" font-family="sans-serif" font-size="13" font-weight="bold" lengthAdjust="spacing" textLength="14" x="650.5" y="731.2666">11</text><text fill="#000000" font-family="sans-serif" font-size="13" lengthAdjust="spacing" textLength="115" x="668.5" y="731.2666">validates typed data</text><polygon fill="#181818" points="381.5,833.8203,371.5,837.8203,381.5,841.8203,377.5,837.8203" style="stroke:#181818;stroke-width:1.0;"/><line style="stroke:#181818;stroke-width:1.0;stroke-dasharray:2.0,2.0;" x1="375.5" x2="637.5" y1="837.8203" y2="837.8203"/><text fill="#000000" font-family="sans-serif" font-size="13" font-weight="bold" lengthAdjust="spacing" textLength="14" x="387.5" y="832.5576">12</text><text fill="#000000" font-family="sans-serif" font-size="13" lengthAdjust="spacing" textLength="212" x="405.5" y="832.5576">Sends date and time data to Main UI</text><polygon fill="#181818" points="901.5,890.1113,911.5,894.1113,901.5,898.1113,905.5,894.1113" style="stroke:#181818;stroke-width:1.0;"/><line style="stroke:#181818;stroke-width:1.0;stroke-dasharray:2.0,2.0;" x1="370.5" x2="907.5" y1="894.1113" y2="894.1113"/><text fill="#000000" font-family="sans-serif" font-size="13" font-weight="bold" lengthAdjust="spacing" textLength="14" x="377.5" y="888.8486">13</text><text fill="#000000" font-family="sans-serif" font-size="13" lengthAdjust="spacing" textLength="506" x="395.5" y="888.8486">registerTaskAgenda(selectedTask, selectedDate, workStartingHours, workStartingMins)</text><rect fill="none" height="59.2129" style="stroke:#000000;stroke-width:1.5;" width="219" x="809" y="927.1113"/><path d="M809,927.1113 L871,927.1113 L871,936.1113 L861,946.1113 L809,946.1113 L809,927.1113 " fill="#EEEEEE" style="stroke:#000000;stroke-width:2.0;"/><text fill="#000000" font-family="sans-serif" font-size="13" font-weight="bold" lengthAdjust="spacing" textLength="17" x="822" y="943.1396">ref</text><text fill="#000000" font-family="sans-serif" font-size="12" lengthAdjust="spacing" textLength="140" x="848.5" y="963.0605">SD_toTaskDomainObject</text><text fill="#000000" font-family="sans-serif" font-size="12" lengthAdjust="spacing" textLength="3" x="917" y="979.0215">&#160;</text><line style="stroke:#181818;stroke-width:1.0;" x1="923.5" x2="965.5" y1="1014.6152" y2="1014.6152"/><line style="stroke:#181818;stroke-width:1.0;" x1="965.5" x2="965.5" y1="1014.6152" y2="1027.6152"/><line style="stroke:#181818;stroke-width:1.0;" x1="924.5" x2="965.5" y1="1027.6152" y2="1027.6152"/><polygon fill="#181818" points="934.5,1023.6152,924.5,1027.6152,934.5,1031.6152,930.5,1027.6152" style="stroke:#181818;stroke-width:1.0;"/><text fill="#000000" font-family="sans-serif" font-size="13" font-weight="bold" lengthAdjust="spacing" textLength="14" x="930.5" y="1009.3525">14</text><text fill="#000000" font-family="sans-serif" font-size="13" lengthAdjust="spacing" textLength="25" x="948.5" y="1009.3525">task</text><polygon fill="#181818" points="1066.5,1079.9063,1076.5,1083.9063,1066.5,1087.9063,1070.5,1083.9063" style="stroke:#181818;stroke-width:1.0;"/><line style="stroke:#181818;stroke-width:1.0;" x1="923.5" x2="1072.5" y1="1083.9063" y2="1083.9063"/><text fill="#000000" font-family="sans-serif" font-size="13" font-weight="bold" lengthAdjust="spacing" textLength="14" x="930.5" y="1078.6436">15</text><text fill="#000000" font-family="sans-serif" font-size="13" lengthAdjust="spacing" textLength="75" x="948.5" y="1078.6436">getInstance()</text><polygon fill="#181818" points="934.5,1111.1973,924.5,1115.1973,934.5,1119.1973,930.5,1115.1973" style="stroke:#181818;stroke-width:1.0;"/><line style="stroke:#181818;stroke-width:1.0;stroke-dasharray:2.0,2.0;" x1="928.5" x2="1082.5" y1="1115.1973" y2="1115.1973"/><text fill="#000000" font-family="sans-serif" font-size="13" font-weight="bold" lengthAdjust="spacing" textLength="14" x="940.5" y="1109.9346">16</text><text fill="#000000" font-family="sans-serif" font-size="13" lengthAdjust="spacing" textLength="67" x="958.5" y="1109.9346">repositories</text><polygon fill="#181818" points="1173.5,1142.4883,1183.5,1146.4883,1173.5,1150.4883,1177.5,1146.4883" style="stroke:#181818;stroke-width:1.0;"/><line style="stroke:#181818;stroke-width:1.0;" x1="923.5" x2="1179.5" y1="1146.4883" y2="1146.4883"/><text fill="#000000" font-family="sans-serif" font-size="13" font-weight="bold" lengthAdjust="spacing" textLength="14" x="930.5" y="1141.2256">17</text><text fill="#000000" font-family="sans-serif" font-size="13" lengthAdjust="spacing" textLength="132" x="948.5" y="1141.2256">getAgendaRepository()</text><polygon fill="#181818" points="934.5,1173.7793,924.5,1177.7793,934.5,1181.7793,930.5,1177.7793" style="stroke:#181818;stroke-width:1.0;"/><line style="stroke:#181818;stroke-width:1.0;stroke-dasharray:2.0,2.0;" x1="928.5" x2="1189.5" y1="1177.7793" y2="1177.7793"/><text fill="#000000" font-family="sans-serif" font-size="13" font-weight="bold" lengthAdjust="spacing" textLength="14" x="940.5" y="1172.5166">18</text><text fill="#000000" font-family="sans-serif" font-size="13" lengthAdjust="spacing" textLength="104" x="958.5" y="1172.5166">agendaRepository</text><polygon fill="#181818" points="1423.5,1205.0703,1433.5,1209.0703,1423.5,1213.0703,1427.5,1209.0703" style="stroke:#181818;stroke-width:1.0;"/><line style="stroke:#181818;stroke-width:1.0;" x1="923.5" x2="1429.5" y1="1209.0703" y2="1209.0703"/><text fill="#000000" font-family="sans-serif" font-size="13" font-weight="bold" lengthAdjust="spacing" textLength="14" x="930.5" y="1203.8076">19</text><text fill="#000000" font-family="sans-serif" font-size="13" lengthAdjust="spacing" textLength="475" x="948.5" y="1203.8076">registerTaskAgenda(task, executionDate, workStartingDays, workStartingMinutes)</text><line style="stroke:#181818;stroke-width:1.0;stroke-dasharray:2.0,2.0;" x1="1445.5" x2="1487.5" y1="1257.6523" y2="1257.6523"/><line style="stroke:#181818;stroke-width:1.0;stroke-dasharray:2.0,2.0;" x1="1487.5" x2="1487.5" y1="1257.6523" y2="1270.6523"/><line style="stroke:#181818;stroke-width:1.0;stroke-dasharray:2.0,2.0;" x1="1446.5" x2="1487.5" y1="1270.6523" y2="1270.6523"/><polygon fill="#181818" points="1456.5,1266.6523,1446.5,1270.6523,1456.5,1274.6523,1452.5,1270.6523" style="stroke:#181818;stroke-width:1.0;"/><text fill="#000000" font-family="sans-serif" font-size="13" font-weight="bold" lengthAdjust="spacing" textLength="14" x="1452.5" y="1243.7441">20</text><text fill="#000000" font-family="sans-serif" font-size="13" lengthAdjust="spacing" textLength="255" x="1470.5" y="1235.0986">add(task, executionDate, workStartingDays,</text><text fill="#000000" font-family="sans-serif" font-size="13" lengthAdjust="spacing" textLength="122" x="1470.5" y="1252.3896">workStartingMinutes)</text><line style="stroke:#181818;stroke-width:1.0;stroke-dasharray:2.0,2.0;" x1="1445.5" x2="1487.5" y1="1301.9434" y2="1301.9434"/><line style="stroke:#181818;stroke-width:1.0;stroke-dasharray:2.0,2.0;" x1="1487.5" x2="1487.5" y1="1301.9434" y2="1314.9434"/><line style="stroke:#181818;stroke-width:1.0;stroke-dasharray:2.0,2.0;" x1="1446.5" x2="1487.5" y1="1314.9434" y2="1314.9434"/><polygon fill="#181818" points="1456.5,1310.9434,1446.5,1314.9434,1456.5,1318.9434,1452.5,1314.9434" style="stroke:#181818;stroke-width:1.0;"/><text fill="#000000" font-family="sans-serif" font-size="13" font-weight="bold" lengthAdjust="spacing" textLength="14" x="1452.5" y="1296.6807">21</text><text fill="#000000" font-family="sans-serif" font-size="13" lengthAdjust="spacing" textLength="148" x="1470.5" y="1296.6807">validateTaskAgenda(task)</text><polygon fill="#181818" points="1794.5,1367.2344,1804.5,1371.2344,1794.5,1375.2344,1798.5,1371.2344" style="stroke:#181818;stroke-width:1.0;"/><line style="stroke:#181818;stroke-width:1.0;" x1="1445.5" x2="1800.5" y1="1371.2344" y2="1371.2344"/><text fill="#000000" font-family="sans-serif" font-size="13" font-weight="bold" lengthAdjust="spacing" textLength="14" x="1452.5" y="1365.9717">22</text><text fill="#000000" font-family="sans-serif" font-size="13" lengthAdjust="spacing" textLength="241" x="1470.5" y="1365.9717">setStatus(AGENDA_DEFAULT_STATUS)</text><rect fill="#E3E3E3" height="32.6211" rx="2.5" ry="2.5" style="stroke:#181818;stroke-width:0.5;" width="45" x="1806.5" y="1362.0693"/><text fill="#000000" font-family="sans-serif" font-size="14" lengthAdjust="spacing" textLength="31" x="1813.5" y="1384.1768">Task</text><path d="M1856.5,1352.9434 L1856.5,1413.9434 L2065.5,1413.9434 L2065.5,1362.9434 L2055.5,1352.9434 L1856.5,1352.9434 " fill="#FAFAFA" style="stroke:#181818;stroke-width:0.5;"/><path d="M2055.5,1352.9434 L2055.5,1362.9434 L2065.5,1362.9434 L2055.5,1352.9434 " fill="#FAFAFA" style="stroke:#181818;stroke-width:0.5;"/><text fill="#000000" font-family="sans-serif" font-size="13" lengthAdjust="spacing" textLength="188" x="1862.5" y="1371.9717">When a task enters the Agenda,</text><text fill="#000000" font-family="sans-serif" font-size="13" lengthAdjust="spacing" textLength="165" x="1862.5" y="1389.2627">the default status of the task</text><text fill="#000000" font-family="sans-serif" font-size="13" lengthAdjust="spacing" textLength="85" x="1862.5" y="1406.5537">is "PLANNED"</text><polygon fill="#181818" points="1794.5,1456.3984,1804.5,1460.3984,1794.5,1464.3984,1798.5,1460.3984" style="stroke:#181818;stroke-width:1.0;"/><line style="stroke:#181818;stroke-width:1.0;" x1="1445.5" x2="1800.5" y1="1460.3984" y2="1460.3984"/><text fill="#000000" font-family="sans-serif" font-size="13" font-weight="bold" lengthAdjust="spacing" textLength="14" x="1452.5" y="1446.4902">23</text><text fill="#000000" font-family="sans-serif" font-size="13" lengthAdjust="spacing" textLength="319" x="1470.5" y="1437.8447">setTaskWorkPeriod(executionDate, workStartingHours,</text><text fill="#000000" font-family="sans-serif" font-size="13" lengthAdjust="spacing" textLength="235" x="1470.5" y="1455.1357">workStartingMinutes, expectedDuration);</text><rect fill="#E3E3E3" height="32.6211" rx="2.5" ry="2.5" style="stroke:#181818;stroke-width:0.5;" width="45" x="1806.5" y="1424.7773"/><text fill="#000000" font-family="sans-serif" font-size="14" lengthAdjust="spacing" textLength="31" x="1813.5" y="1446.8848">Task</text><polygon fill="#181818" points="934.5,1487.6895,924.5,1491.6895,934.5,1495.6895,930.5,1491.6895" style="stroke:#181818;stroke-width:1.0;"/><line style="stroke:#181818;stroke-width:1.0;stroke-dasharray:2.0,2.0;" x1="928.5" x2="1439.5" y1="1491.6895" y2="1491.6895"/><text fill="#000000" font-family="sans-serif" font-size="13" font-weight="bold" lengthAdjust="spacing" textLength="14" x="940.5" y="1486.4268">24</text><text fill="#000000" font-family="sans-serif" font-size="13" lengthAdjust="spacing" textLength="106" x="958.5" y="1486.4268">operation success</text><polygon fill="#181818" points="381.5,1518.9805,371.5,1522.9805,381.5,1526.9805,377.5,1522.9805" style="stroke:#181818;stroke-width:1.0;"/><line style="stroke:#181818;stroke-width:1.0;stroke-dasharray:2.0,2.0;" x1="375.5" x2="917.5" y1="1522.9805" y2="1522.9805"/><text fill="#000000" font-family="sans-serif" font-size="13" font-weight="bold" lengthAdjust="spacing" textLength="14" x="387.5" y="1517.7178">25</text><text fill="#000000" font-family="sans-serif" font-size="13" lengthAdjust="spacing" textLength="106" x="405.5" y="1517.7178">operation success</text><polygon fill="#181818" points="49.5,1550.2715,39.5,1554.2715,49.5,1558.2715,45.5,1554.2715" style="stroke:#181818;stroke-width:1.0;"/><line style="stroke:#181818;stroke-width:1.0;stroke-dasharray:2.0,2.0;" x1="43.5" x2="364.5" y1="1554.2715" y2="1554.2715"/><text fill="#000000" font-family="sans-serif" font-size="13" font-weight="bold" lengthAdjust="spacing" textLength="14" x="55.5" y="1549.0088">26</text><text fill="#000000" font-family="sans-serif" font-size="13" lengthAdjust="spacing" textLength="153" x="73.5" y="1549.0088">Display operation success</text><!--SRC=[dLPPR-Cs47xNhnZufVOY1efzJ840mihT1iY5oCQ-10YuqbXcBPCgISKra1_V8NLHX-Di-MAQckERZtDGxxaec687E4WXavsI1mIZIWnq-wLWoPvb69jJZg0mCKnakI-WTooLHouosB9SOn0ORaXq4__-zIii8SP_IXG9GiHPHl91m4eZHNduYOhsYP4APj_Z-nam3VGRa5N34rumOM1s7QRf0nvNmgXJcA58sURMIMvk1uAtGgCo4JFu98kogCNS_fB9RvBsCizHEPrlw-UxWSep5b9pWifHEvddrTDZNqPv8YzYMeCm4dq9zZMP0z4gd4Wx71mv2yF3mD77toXaHrm0j6W3onkY1wuXr7iDHW9BKs0Wy0XeWmOfQbkLIck4EArEI9jiM1x8IePcBICPhH_lcI2iwevhCryCT1rfxaZX5kGRgkh8diJHQst4ir094mghKFrn3fSDUZDoweHIdF1fLovb0QKmF8TKeXQ_6T2OKy9Ix6yivod8md0fMWKR9JcpZ5r3l9D78ck7i9RBI49E_e0HEbQJMDko4eREQgOyD2rx_XN4JaiJ1ASqfDk3uSGTJlgcQtSu0lt-_jxkYRnW68qpiqSig1BOlB6o9kUBdesUtarL9pKDBiR27L3StDMLWm_uBoQbXVCYB4h7pqwMgZNMfsCAS_kzgiofspEdWk8c1mouRYdnGgt0TdVNvBbLf6oYVgDDOs7UOeOUPDXItx61jaIR7aTU91xISNnDRFMbEzbheEQ2IbSUsqkmlMdX01XEVNP-b6eV6zi9HFONGT9Nu1_T4_EBu1nd7GVDrNMvqn7OWsXhpT8SZ7AWCxQvjJahKjsnvS0wBedYUyP54_eqHPSIeCxJkhaepAZGKDa4hNfIBsUlm2Ulpy-7b8r2FDCqnisgRbX6Ml-HF530Zp__9Wo1NtTTq-eQLnjKM-eZ58sW7GPLQsr6mhp3xQyMjXiuao9sENizMhlfCwdatPspF2NZWsrWEip3GTGCWm_1jxFlmo0QAJ-OuNpyJ43dlJLH3OEOJaRZah3j8UCiZDXfd8GbLU7uFbk0uq4-51s1MquZfid-IOWlOXBZ__RST9i1LnCM_U8_x-K6hAKlNyYqHaCuJQdduVVLGnI-Hgi_mytT-ZLUX-jDFE52I69LyMndpYPNitxiKDJJsBw6R9UsKw02T7LHtSgck6LbJgyB1nBajdiKN5AdUJPxkWiV7bRHxA9mRzcUOyCCVfbBk_z1T_-4Yijq_a6YL1rrCbDiWXLL8ouLi-gBFuBWa-bJrx4ii585NIO9wd5dyehuSetqNuk_PBoQ0TCFmOZh8cUdCmO7xptlhts1_mS0]--></g></svg>