<?xml version="1.0" encoding="us-ascii" standalone="no"?><svg xmlns="http://www.w3.org/2000/svg" xmlns:xlink="http://www.w3.org/1999/xlink" contentStyleType="text/css" height="484.5px" preserveAspectRatio="none" style="width:468px;height:484px;background:#FFFFFF;" version="1.1" viewBox="0 0 468 484" width="468px" zoomAndPan="magnify"><defs/><g><text fill="#000000" font-family="sans-serif" font-size="7" font-weight="bold" lengthAdjust="spacing" textLength="142" x="163.75" y="15.0537">US026 - System Sequence Diagram (SSD)</text><rect fill="#FFFFFF" height="353.3281" style="stroke:#181818;stroke-width:0.5;" width="5" x="30" y="75.9316"/><rect fill="#FFFFFF" height="28.791" style="stroke:#181818;stroke-width:0.5;" width="5" x="230" y="87.5771"/><rect fill="#FFFFFF" height="75.9365" style="stroke:#181818;stroke-width:0.5;" width="5" x="230" y="132.0137"/><rect fill="#FFFFFF" height="106.082" style="stroke:#181818;stroke-width:0.5;" width="5" x="230" y="318.6777"/><rect fill="#FFFFFF" height="41.291" style="stroke:#181818;stroke-width:0.5;" width="5" x="374" y="207.9502"/><rect fill="#FFFFFF" height="53.791" style="stroke:#181818;stroke-width:0.5;" width="5" x="374" y="264.8867"/><rect fill="none" height="75.582" style="stroke:#000000;stroke-width:0.75;" width="316" x="5" y="95.0771"/><rect fill="none" height="63.082" style="stroke:#000000;stroke-width:0.75;" width="460" x="5" y="227.9502"/><line style="stroke:#181818;stroke-width:0.25;stroke-dasharray:5.0,5.0;" x1="32.5" x2="32.5" y1="70.9316" y2="433.7598"/><line style="stroke:#181818;stroke-width:0.25;stroke-dasharray:5.0,5.0;" x1="232.25" x2="232.25" y1="70.9316" y2="433.7598"/><line style="stroke:#181818;stroke-width:0.25;stroke-dasharray:5.0,5.0;" x1="376.25" x2="376.25" y1="70.9316" y2="433.7598"/><text fill="#000000" font-family="sans-serif" font-size="7" lengthAdjust="spacing" textLength="42" x="10" y="59.8643">Green Space</text><text fill="#000000" font-family="sans-serif" font-size="7" lengthAdjust="spacing" textLength="28" x="17" y="69.1748">Manager</text><ellipse cx="32.5" cy="26.5605" fill="#E3E3E3" rx="4" ry="4" style="stroke:#181818;stroke-width:0.25;"/><path d="M32.5,30.5605 L32.5,44.0605 M26,34.5605 L39,34.5605 M32.5,44.0605 L26,51.5605 M32.5,44.0605 L39,51.5605 " fill="none" style="stroke:#181818;stroke-width:0.25;"/><text fill="#000000" font-family="sans-serif" font-size="7" lengthAdjust="spacing" textLength="42" x="10" y="440.8135">Green Space</text><text fill="#000000" font-family="sans-serif" font-size="7" lengthAdjust="spacing" textLength="28" x="17" y="450.124">Manager</text><ellipse cx="32.5" cy="456.1309" fill="#E3E3E3" rx="4" ry="4" style="stroke:#181818;stroke-width:0.25;"/><path d="M32.5,460.1309 L32.5,473.6309 M26,464.1309 L39,464.1309 M32.5,473.6309 L26,481.1309 M32.5,473.6309 L39,481.1309 " fill="none" style="stroke:#181818;stroke-width:0.25;"/><rect fill="#E3E3E3" height="16.3105" rx="1.25" ry="1.25" style="stroke:#181818;stroke-width:0.25;" width="39.5" x="212.75" y="54.1211"/><text fill="#000000" font-family="sans-serif" font-size="7" lengthAdjust="spacing" textLength="32.5" x="216.25" y="65.1748">:AgendaUI</text><rect fill="#E3E3E3" height="16.3105" rx="1.25" ry="1.25" style="stroke:#181818;stroke-width:0.25;" width="39.5" x="212.75" y="433.2598"/><text fill="#000000" font-family="sans-serif" font-size="7" lengthAdjust="spacing" textLength="32.5" x="216.25" y="444.3135">:AgendaUI</text><rect fill="#E3E3E3" height="16.3105" rx="1.25" ry="1.25" style="stroke:#181818;stroke-width:0.25;" width="81.5" x="335.75" y="54.1211"/><text fill="#000000" font-family="sans-serif" font-size="7" lengthAdjust="spacing" textLength="74.5" x="339.25" y="65.1748">:SelectVehiclesPopupUI</text><rect fill="#E3E3E3" height="16.3105" rx="1.25" ry="1.25" style="stroke:#181818;stroke-width:0.25;" width="81.5" x="335.75" y="433.2598"/><text fill="#000000" font-family="sans-serif" font-size="7" lengthAdjust="spacing" textLength="74.5" x="339.25" y="444.3135">:SelectVehiclesPopupUI</text><rect fill="#FFFFFF" height="353.3281" style="stroke:#181818;stroke-width:0.5;" width="5" x="30" y="75.9316"/><rect fill="#FFFFFF" height="28.791" style="stroke:#181818;stroke-width:0.5;" width="5" x="230" y="87.5771"/><rect fill="#FFFFFF" height="75.9365" style="stroke:#181818;stroke-width:0.5;" width="5" x="230" y="132.0137"/><rect fill="#FFFFFF" height="106.082" style="stroke:#181818;stroke-width:0.5;" width="5" x="230" y="318.6777"/><rect fill="#FFFFFF" height="41.291" style="stroke:#181818;stroke-width:0.5;" width="5" x="374" y="207.9502"/><rect fill="#FFFFFF" height="53.791" style="stroke:#181818;stroke-width:0.5;" width="5" x="374" y="264.8867"/><polygon fill="#181818" points="224,85.5771,229,87.5771,224,89.5771,226,87.5771" style="stroke:#181818;stroke-width:0.5;"/><line style="stroke:#181818;stroke-width:0.5;" x1="35" x2="227" y1="87.5771" y2="87.5771"/><text fill="#000000" font-family="sans-serif" font-size="6.5" font-weight="bold" lengthAdjust="spacing" textLength="3.5" x="38.5" y="84.9458">1</text><text fill="#000000" font-family="sans-serif" font-size="6.5" lengthAdjust="spacing" textLength="180" x="44" y="84.9458">Asks to assign one or more vehicles to an entry in the Agenda</text><path d="M5,95.0771 L41.5,95.0771 L41.5,99.7227 L36.5,104.7227 L5,104.7227 L5,95.0771 " fill="#EEEEEE" style="stroke:#000000;stroke-width:0.75;"/><rect fill="none" height="75.582" style="stroke:#000000;stroke-width:0.75;" width="316" x="5" y="95.0771"/><text fill="#000000" font-family="sans-serif" font-size="6.5" font-weight="bold" lengthAdjust="spacing" textLength="14" x="12.5" y="102.5913">loop</text><text fill="#000000" font-family="sans-serif" font-size="5.5" font-weight="bold" lengthAdjust="spacing" textLength="94.5" x="49" y="102.0122">[until doesn't select a valid option]</text><polygon fill="#181818" points="40.5,114.3682,35.5,116.3682,40.5,118.3682,38.5,116.3682" style="stroke:#181818;stroke-width:0.5;"/><line style="stroke:#181818;stroke-width:0.5;stroke-dasharray:2.0,2.0;" x1="37.5" x2="232" y1="116.3682" y2="116.3682"/><text fill="#000000" font-family="sans-serif" font-size="6.5" font-weight="bold" lengthAdjust="spacing" textLength="3.5" x="43.5" y="113.7368">2</text><text fill="#000000" font-family="sans-serif" font-size="6.5" lengthAdjust="spacing" textLength="175" x="49" y="113.7368">Shows the list of tasks in the agenda and asks to select one</text><polygon fill="#181818" points="224,130.0137,229,132.0137,224,134.0137,226,132.0137" style="stroke:#181818;stroke-width:0.5;"/><line style="stroke:#181818;stroke-width:0.5;" x1="35" x2="227" y1="132.0137" y2="132.0137"/><text fill="#000000" font-family="sans-serif" font-size="6.5" font-weight="bold" lengthAdjust="spacing" textLength="3.5" x="38.5" y="129.3823">3</text><text fill="#000000" font-family="sans-serif" font-size="6.5" lengthAdjust="spacing" textLength="42" x="44" y="129.3823">Selects a task</text><line style="stroke:#181818;stroke-width:0.5;stroke-dasharray:2.0,2.0;" x1="235" x2="256" y1="147.6592" y2="147.6592"/><line style="stroke:#181818;stroke-width:0.5;stroke-dasharray:2.0,2.0;" x1="256" x2="256" y1="147.6592" y2="154.1592"/><line style="stroke:#181818;stroke-width:0.5;stroke-dasharray:2.0,2.0;" x1="235.5" x2="256" y1="154.1592" y2="154.1592"/><polygon fill="#181818" points="240.5,152.1592,235.5,154.1592,240.5,156.1592,238.5,154.1592" style="stroke:#181818;stroke-width:0.5;"/><text fill="#000000" font-family="sans-serif" font-size="6.5" font-weight="bold" lengthAdjust="spacing" textLength="3.5" x="238.5" y="145.0278">4</text><text fill="#000000" font-family="sans-serif" font-size="6.5" lengthAdjust="spacing" textLength="71" x="244" y="145.0278">validates selected option</text><line style="stroke:#181818;stroke-width:0.5;stroke-dasharray:2.0,2.0;" x1="235" x2="256" y1="185.8047" y2="185.8047"/><line style="stroke:#181818;stroke-width:0.5;stroke-dasharray:2.0,2.0;" x1="256" x2="256" y1="185.8047" y2="192.3047"/><line style="stroke:#181818;stroke-width:0.5;stroke-dasharray:2.0,2.0;" x1="235.5" x2="256" y1="192.3047" y2="192.3047"/><polygon fill="#181818" points="240.5,190.3047,235.5,192.3047,240.5,194.3047,238.5,192.3047" style="stroke:#181818;stroke-width:0.5;"/><text fill="#000000" font-family="sans-serif" font-size="6.5" font-weight="bold" lengthAdjust="spacing" textLength="3.5" x="238.5" y="183.1733">5</text><text fill="#000000" font-family="sans-serif" font-size="6.5" lengthAdjust="spacing" textLength="44" x="244" y="183.1733">keepData(task)</text><polygon fill="#181818" points="368,205.9502,373,207.9502,368,209.9502,370,207.9502" style="stroke:#181818;stroke-width:0.5;"/><line style="stroke:#181818;stroke-width:0.5;" x1="232.5" x2="371" y1="207.9502" y2="207.9502"/><text fill="#000000" font-family="sans-serif" font-size="6.5" font-weight="bold" lengthAdjust="spacing" textLength="3.5" x="236" y="205.3188">6</text><text fill="#000000" font-family="sans-serif" font-size="6.5" lengthAdjust="spacing" textLength="117" x="241.5" y="205.3188">Shows the popup with the list of vehicles</text><path d="M5,227.9502 L41.5,227.9502 L41.5,232.5957 L36.5,237.5957 L5,237.5957 L5,227.9502 " fill="#EEEEEE" style="stroke:#000000;stroke-width:0.75;"/><rect fill="none" height="63.082" style="stroke:#000000;stroke-width:0.75;" width="460" x="5" y="227.9502"/><text fill="#000000" font-family="sans-serif" font-size="6.5" font-weight="bold" lengthAdjust="spacing" textLength="14" x="12.5" y="235.4644">loop</text><text fill="#000000" font-family="sans-serif" font-size="5.5" font-weight="bold" lengthAdjust="spacing" textLength="91.5" x="49" y="234.8853">[until doesn't choose to advance]</text><polygon fill="#181818" points="40.5,247.2412,35.5,249.2412,40.5,251.2412,38.5,249.2412" style="stroke:#181818;stroke-width:0.5;"/><line style="stroke:#181818;stroke-width:0.5;stroke-dasharray:2.0,2.0;" x1="37.5" x2="376" y1="249.2412" y2="249.2412"/><text fill="#000000" font-family="sans-serif" font-size="6.5" font-weight="bold" lengthAdjust="spacing" textLength="3.5" x="43.5" y="246.6099">7</text><text fill="#000000" font-family="sans-serif" font-size="6.5" lengthAdjust="spacing" textLength="187.5" x="49" y="246.6099">Shows the list of vehicles and asks to select the vehicles needed</text><polygon fill="#181818" points="368,262.8867,373,264.8867,368,266.8867,370,264.8867" style="stroke:#181818;stroke-width:0.5;"/><line style="stroke:#181818;stroke-width:0.5;" x1="35" x2="371" y1="264.8867" y2="264.8867"/><text fill="#000000" font-family="sans-serif" font-size="6.5" font-weight="bold" lengthAdjust="spacing" textLength="3.5" x="38.5" y="262.2554">8</text><text fill="#000000" font-family="sans-serif" font-size="6.5" lengthAdjust="spacing" textLength="48" x="44" y="262.2554">selects a vehicle</text><line style="stroke:#181818;stroke-width:0.5;stroke-dasharray:2.0,2.0;" x1="379" x2="400" y1="280.5322" y2="280.5322"/><line style="stroke:#181818;stroke-width:0.5;stroke-dasharray:2.0,2.0;" x1="400" x2="400" y1="280.5322" y2="287.0322"/><line style="stroke:#181818;stroke-width:0.5;stroke-dasharray:2.0,2.0;" x1="379.5" x2="400" y1="287.0322" y2="287.0322"/><polygon fill="#181818" points="384.5,285.0322,379.5,287.0322,384.5,289.0322,382.5,287.0322" style="stroke:#181818;stroke-width:0.5;"/><text fill="#000000" font-family="sans-serif" font-size="6.5" font-weight="bold" lengthAdjust="spacing" textLength="3.5" x="382.5" y="277.9009">9</text><text fill="#000000" font-family="sans-serif" font-size="6.5" lengthAdjust="spacing" textLength="71" x="388" y="277.9009">validates selected option</text><polygon fill="#181818" points="240.5,316.6777,235.5,318.6777,240.5,320.6777,238.5,318.6777" style="stroke:#181818;stroke-width:0.5;"/><line style="stroke:#181818;stroke-width:0.5;stroke-dasharray:2.0,2.0;" x1="237.5" x2="376" y1="318.6777" y2="318.6777"/><text fill="#000000" font-family="sans-serif" font-size="6.5" font-weight="bold" lengthAdjust="spacing" textLength="7" x="243.5" y="316.0464">10</text><text fill="#000000" font-family="sans-serif" font-size="6.5" lengthAdjust="spacing" textLength="109.5" x="252.5" y="316.0464">the list of selected vehicles to main UI</text><line style="stroke:#181818;stroke-width:0.5;stroke-dasharray:2.0,2.0;" x1="235" x2="256" y1="346.8232" y2="346.8232"/><line style="stroke:#181818;stroke-width:0.5;stroke-dasharray:2.0,2.0;" x1="256" x2="256" y1="346.8232" y2="353.3232"/><line style="stroke:#181818;stroke-width:0.5;stroke-dasharray:2.0,2.0;" x1="235.5" x2="256" y1="353.3232" y2="353.3232"/><polygon fill="#181818" points="240.5,351.3232,235.5,353.3232,240.5,355.3232,238.5,353.3232" style="stroke:#181818;stroke-width:0.5;"/><text fill="#000000" font-family="sans-serif" font-size="6.5" font-weight="bold" lengthAdjust="spacing" textLength="7" x="238.5" y="344.1919">11</text><text fill="#000000" font-family="sans-serif" font-size="6.5" lengthAdjust="spacing" textLength="123" x="247.5" y="344.1919">keepData(List&lt;Vehicle&gt; selectedVehicles)</text><line style="stroke:#181818;stroke-width:0.5;" x1="235" x2="256" y1="390.1143" y2="390.1143"/><line style="stroke:#181818;stroke-width:0.5;" x1="256" x2="256" y1="390.1143" y2="396.6143"/><line style="stroke:#181818;stroke-width:0.5;" x1="235.5" x2="256" y1="396.6143" y2="396.6143"/><polygon fill="#181818" points="240.5,394.6143,235.5,396.6143,240.5,398.6143,238.5,396.6143" style="stroke:#181818;stroke-width:0.5;"/><text fill="#000000" font-family="sans-serif" font-size="6.5" font-weight="bold" lengthAdjust="spacing" textLength="7" x="238.5" y="383.1602">12</text><text fill="#000000" font-family="sans-serif" font-size="6.5" lengthAdjust="spacing" textLength="84" x="247.5" y="378.8374">adds the selected vehicles to</text><text fill="#000000" font-family="sans-serif" font-size="6.5" lengthAdjust="spacing" textLength="85" x="247.5" y="387.4829">the selected entry of Agenda.</text><polygon fill="#181818" points="40.5,422.7598,35.5,424.7598,40.5,426.7598,38.5,424.7598" style="stroke:#181818;stroke-width:0.5;"/><line style="stroke:#181818;stroke-width:0.5;stroke-dasharray:2.0,2.0;" x1="37.5" x2="232" y1="424.7598" y2="424.7598"/><text fill="#000000" font-family="sans-serif" font-size="6.5" font-weight="bold" lengthAdjust="spacing" textLength="7" x="43.5" y="422.1284">13</text><text fill="#000000" font-family="sans-serif" font-size="6.5" lengthAdjust="spacing" textLength="73.5" x="52.5" y="422.1284">shows operation success</text><!--SRC=[VLF1Yjim4BthAuPSkZcab1vw22Mm45W2NHemwMalKslM5h4bLv8J0lduZcHPYPFi-c2GPkQzDsyqRgzqXnPRQ8qsPMrDI-1jJyBbI8Vb7Yig_AaXi5Hwr5LpdU1gbEQeT0Nls3WImYlFgRlYs_SVi83Yv3orKD2_ddH9i5POXRAdebZFXS3U6zstVyaAFfJUM9YzM28D1JFJctv5pVHs1kZWfNWLJEfLgJhK7cRBvugqnDqcXdURcsX13Gl-GxKg6t9Rq_LTIjt-tkwsaL0Tq5D45lo3nOfXbl3izWwyuLIdAWr64x2orbY2GuABOGsalJs1qk1hWa7E1POL2U2lCQQ3NdlLW3Jaz1SFBce3X0CsIeBfl39woDvjOC4wMCuIYjeSNSHkbFDWti5Zq9O8CHAo3WcO92TWbYmaJPJa_e1nOvPZ_e0tKPpeOreKn_SkmL9MUZwV1NF7rYQoOzsUg5kZnwU0Fh_4LuFpSDrO5-O2H-NhIP-Zpx5ssacuoUTXbE4gIFh0xR8snb4ScJmWlyEOE6ZvnEiywmS6XxmSrqIIvBNXwOKbpyUkNROzbOgRWekaiUJZ4MJxG-ENmZY0wovotVNJRP6V47jv9_dMwD7LX-FznHG_quAjCj6uSVCxW5IFKWv6FvBsfYUHOS6uZM6vlcRC-sLnSO2c8ul1871zMP9pDtlm7m00]--></g></svg>