<?xml version="1.0" encoding="us-ascii" standalone="no"?><svg xmlns="http://www.w3.org/2000/svg" xmlns:xlink="http://www.w3.org/1999/xlink" contentStyleType="text/css" height="969px" preserveAspectRatio="none" style="width:955px;height:969px;background:#FFFFFF;" version="1.1" viewBox="0 0 955 969" width="955px" zoomAndPan="magnify"><defs/><g><text fill="#000000" font-family="sans-serif" font-size="14" font-weight="bold" lengthAdjust="spacing" textLength="284" x="337" y="30.1074">US026 - System Sequence Diagram (SSD)</text><rect fill="#FFFFFF" height="706.6563" style="stroke:#181818;stroke-width:1.0;" width="10" x="60" y="151.8633"/><rect fill="#FFFFFF" height="57.582" style="stroke:#181818;stroke-width:1.0;" width="10" x="460" y="175.1543"/><rect fill="#FFFFFF" height="151.873" style="stroke:#181818;stroke-width:1.0;" width="10" x="460" y="264.0273"/><rect fill="#FFFFFF" height="212.1641" style="stroke:#181818;stroke-width:1.0;" width="10" x="460" y="637.3555"/><rect fill="#FFFFFF" height="82.582" style="stroke:#181818;stroke-width:1.0;" width="10" x="767" y="415.9004"/><rect fill="#FFFFFF" height="107.582" style="stroke:#181818;stroke-width:1.0;" width="10" x="767" y="529.7734"/><rect fill="none" height="151.1641" style="stroke:#000000;stroke-width:1.5;" width="632" x="10" y="190.1543"/><rect fill="none" height="126.1641" style="stroke:#000000;stroke-width:1.5;" width="939" x="10" y="455.9004"/><line style="stroke:#181818;stroke-width:0.5;stroke-dasharray:5.0,5.0;" x1="65" x2="65" y1="141.8633" y2="867.5195"/><line style="stroke:#181818;stroke-width:0.5;stroke-dasharray:5.0,5.0;" x1="464.5" x2="464.5" y1="141.8633" y2="867.5195"/><line style="stroke:#181818;stroke-width:0.5;stroke-dasharray:5.0,5.0;" x1="771.5" x2="771.5" y1="141.8633" y2="867.5195"/><text fill="#000000" font-family="sans-serif" font-size="14" lengthAdjust="spacing" textLength="84" x="20" y="119.7285">Green Space</text><text fill="#000000" font-family="sans-serif" font-size="14" lengthAdjust="spacing" textLength="56" x="34" y="138.3496">Manager</text><ellipse cx="65" cy="53.1211" fill="#E3E3E3" rx="8" ry="8" style="stroke:#181818;stroke-width:0.5;"/><path d="M65,61.1211 L65,88.1211 M52,69.1211 L78,69.1211 M65,88.1211 L52,103.1211 M65,88.1211 L78,103.1211 " fill="none" style="stroke:#181818;stroke-width:0.5;"/><text fill="#000000" font-family="sans-serif" font-size="14" lengthAdjust="spacing" textLength="84" x="20" y="881.627">Green Space</text><text fill="#000000" font-family="sans-serif" font-size="14" lengthAdjust="spacing" textLength="56" x="34" y="900.248">Manager</text><ellipse cx="65" cy="912.2617" fill="#E3E3E3" rx="8" ry="8" style="stroke:#181818;stroke-width:0.5;"/><path d="M65,920.2617 L65,947.2617 M52,928.2617 L78,928.2617 M65,947.2617 L52,962.2617 M65,947.2617 L78,962.2617 " fill="none" style="stroke:#181818;stroke-width:0.5;"/><rect fill="#E3E3E3" height="32.6211" rx="2.5" ry="2.5" style="stroke:#181818;stroke-width:0.5;" width="79" x="425.5" y="108.2422"/><text fill="#000000" font-family="sans-serif" font-size="14" lengthAdjust="spacing" textLength="65" x="432.5" y="130.3496">:AgendaUI</text><rect fill="#E3E3E3" height="32.6211" rx="2.5" ry="2.5" style="stroke:#181818;stroke-width:0.5;" width="79" x="425.5" y="866.5195"/><text fill="#000000" font-family="sans-serif" font-size="14" lengthAdjust="spacing" textLength="65" x="432.5" y="888.627">:AgendaUI</text><rect fill="#E3E3E3" height="32.6211" rx="2.5" ry="2.5" style="stroke:#181818;stroke-width:0.5;" width="163" x="690.5" y="108.2422"/><text fill="#000000" font-family="sans-serif" font-size="14" lengthAdjust="spacing" textLength="149" x="697.5" y="130.3496">:SelectVehiclesPopupUI</text><rect fill="#E3E3E3" height="32.6211" rx="2.5" ry="2.5" style="stroke:#181818;stroke-width:0.5;" width="163" x="690.5" y="866.5195"/><text fill="#000000" font-family="sans-serif" font-size="14" lengthAdjust="spacing" textLength="149" x="697.5" y="888.627">:SelectVehiclesPopupUI</text><rect fill="#FFFFFF" height="706.6563" style="stroke:#181818;stroke-width:1.0;" width="10" x="60" y="151.8633"/><rect fill="#FFFFFF" height="57.582" style="stroke:#181818;stroke-width:1.0;" width="10" x="460" y="175.1543"/><rect fill="#FFFFFF" height="151.873" style="stroke:#181818;stroke-width:1.0;" width="10" x="460" y="264.0273"/><rect fill="#FFFFFF" height="212.1641" style="stroke:#181818;stroke-width:1.0;" width="10" x="460" y="637.3555"/><rect fill="#FFFFFF" height="82.582" style="stroke:#181818;stroke-width:1.0;" width="10" x="767" y="415.9004"/><rect fill="#FFFFFF" height="107.582" style="stroke:#181818;stroke-width:1.0;" width="10" x="767" y="529.7734"/><polygon fill="#181818" points="448,171.1543,458,175.1543,448,179.1543,452,175.1543" style="stroke:#181818;stroke-width:1.0;"/><line style="stroke:#181818;stroke-width:1.0;" x1="70" x2="454" y1="175.1543" y2="175.1543"/><text fill="#000000" font-family="sans-serif" font-size="13" font-weight="bold" lengthAdjust="spacing" textLength="7" x="77" y="169.8916">1</text><text fill="#000000" font-family="sans-serif" font-size="13" lengthAdjust="spacing" textLength="360" x="88" y="169.8916">Asks to assign one or more vehicles to an entry in the Agenda</text><path d="M10,190.1543 L83,190.1543 L83,199.4453 L73,209.4453 L10,209.4453 L10,190.1543 " fill="#EEEEEE" style="stroke:#000000;stroke-width:1.5;"/><rect fill="none" height="151.1641" style="stroke:#000000;stroke-width:1.5;" width="632" x="10" y="190.1543"/><text fill="#000000" font-family="sans-serif" font-size="13" font-weight="bold" lengthAdjust="spacing" textLength="28" x="25" y="205.1826">loop</text><text fill="#000000" font-family="sans-serif" font-size="11" font-weight="bold" lengthAdjust="spacing" textLength="189" x="98" y="204.0244">[until doesn't select a valid option]</text><polygon fill="#181818" points="81,228.7363,71,232.7363,81,236.7363,77,232.7363" style="stroke:#181818;stroke-width:1.0;"/><line style="stroke:#181818;stroke-width:1.0;stroke-dasharray:2.0,2.0;" x1="75" x2="464" y1="232.7363" y2="232.7363"/><text fill="#000000" font-family="sans-serif" font-size="13" font-weight="bold" lengthAdjust="spacing" textLength="7" x="87" y="227.4736">2</text><text fill="#000000" font-family="sans-serif" font-size="13" lengthAdjust="spacing" textLength="350" x="98" y="227.4736">Shows the list of tasks in the agenda and asks to select one</text><polygon fill="#181818" points="448,260.0273,458,264.0273,448,268.0273,452,264.0273" style="stroke:#181818;stroke-width:1.0;"/><line style="stroke:#181818;stroke-width:1.0;" x1="70" x2="454" y1="264.0273" y2="264.0273"/><text fill="#000000" font-family="sans-serif" font-size="13" font-weight="bold" lengthAdjust="spacing" textLength="7" x="77" y="258.7646">3</text><text fill="#000000" font-family="sans-serif" font-size="13" lengthAdjust="spacing" textLength="84" x="88" y="258.7646">Selects a task</text><line style="stroke:#181818;stroke-width:1.0;stroke-dasharray:2.0,2.0;" x1="470" x2="512" y1="295.3184" y2="295.3184"/><line style="stroke:#181818;stroke-width:1.0;stroke-dasharray:2.0,2.0;" x1="512" x2="512" y1="295.3184" y2="308.3184"/><line style="stroke:#181818;stroke-width:1.0;stroke-dasharray:2.0,2.0;" x1="471" x2="512" y1="308.3184" y2="308.3184"/><polygon fill="#181818" points="481,304.3184,471,308.3184,481,312.3184,477,308.3184" style="stroke:#181818;stroke-width:1.0;"/><text fill="#000000" font-family="sans-serif" font-size="13" font-weight="bold" lengthAdjust="spacing" textLength="7" x="477" y="290.0557">4</text><text fill="#000000" font-family="sans-serif" font-size="13" lengthAdjust="spacing" textLength="142" x="488" y="290.0557">validates selected option</text><line style="stroke:#181818;stroke-width:1.0;stroke-dasharray:2.0,2.0;" x1="470" x2="512" y1="371.6094" y2="371.6094"/><line style="stroke:#181818;stroke-width:1.0;stroke-dasharray:2.0,2.0;" x1="512" x2="512" y1="371.6094" y2="384.6094"/><line style="stroke:#181818;stroke-width:1.0;stroke-dasharray:2.0,2.0;" x1="471" x2="512" y1="384.6094" y2="384.6094"/><polygon fill="#181818" points="481,380.6094,471,384.6094,481,388.6094,477,384.6094" style="stroke:#181818;stroke-width:1.0;"/><text fill="#000000" font-family="sans-serif" font-size="13" font-weight="bold" lengthAdjust="spacing" textLength="7" x="477" y="366.3467">5</text><text fill="#000000" font-family="sans-serif" font-size="13" lengthAdjust="spacing" textLength="88" x="488" y="366.3467">keepData(task)</text><polygon fill="#181818" points="755,411.9004,765,415.9004,755,419.9004,759,415.9004" style="stroke:#181818;stroke-width:1.0;"/><line style="stroke:#181818;stroke-width:1.0;" x1="465" x2="761" y1="415.9004" y2="415.9004"/><text fill="#000000" font-family="sans-serif" font-size="13" font-weight="bold" lengthAdjust="spacing" textLength="7" x="472" y="410.6377">6</text><text fill="#000000" font-family="sans-serif" font-size="13" lengthAdjust="spacing" textLength="234" x="483" y="410.6377">Shows the popup with the list of vehicles</text><path d="M10,455.9004 L83,455.9004 L83,465.1914 L73,475.1914 L10,475.1914 L10,455.9004 " fill="#EEEEEE" style="stroke:#000000;stroke-width:1.5;"/><rect fill="none" height="126.1641" style="stroke:#000000;stroke-width:1.5;" width="939" x="10" y="455.9004"/><text fill="#000000" font-family="sans-serif" font-size="13" font-weight="bold" lengthAdjust="spacing" textLength="28" x="25" y="470.9287">loop</text><text fill="#000000" font-family="sans-serif" font-size="11" font-weight="bold" lengthAdjust="spacing" textLength="183" x="98" y="469.7705">[until doesn't choose to advance]</text><polygon fill="#181818" points="81,494.4824,71,498.4824,81,502.4824,77,498.4824" style="stroke:#181818;stroke-width:1.0;"/><line style="stroke:#181818;stroke-width:1.0;stroke-dasharray:2.0,2.0;" x1="75" x2="771" y1="498.4824" y2="498.4824"/><text fill="#000000" font-family="sans-serif" font-size="13" font-weight="bold" lengthAdjust="spacing" textLength="7" x="87" y="493.2197">7</text><text fill="#000000" font-family="sans-serif" font-size="13" lengthAdjust="spacing" textLength="375" x="98" y="493.2197">Shows the list of vehicles and asks to select the vehicles needed</text><polygon fill="#181818" points="755,525.7734,765,529.7734,755,533.7734,759,529.7734" style="stroke:#181818;stroke-width:1.0;"/><line style="stroke:#181818;stroke-width:1.0;" x1="70" x2="761" y1="529.7734" y2="529.7734"/><text fill="#000000" font-family="sans-serif" font-size="13" font-weight="bold" lengthAdjust="spacing" textLength="7" x="77" y="524.5107">8</text><text fill="#000000" font-family="sans-serif" font-size="13" lengthAdjust="spacing" textLength="96" x="88" y="524.5107">selects a vehicle</text><line style="stroke:#181818;stroke-width:1.0;stroke-dasharray:2.0,2.0;" x1="777" x2="819" y1="561.0645" y2="561.0645"/><line style="stroke:#181818;stroke-width:1.0;stroke-dasharray:2.0,2.0;" x1="819" x2="819" y1="561.0645" y2="574.0645"/><line style="stroke:#181818;stroke-width:1.0;stroke-dasharray:2.0,2.0;" x1="778" x2="819" y1="574.0645" y2="574.0645"/><polygon fill="#181818" points="788,570.0645,778,574.0645,788,578.0645,784,574.0645" style="stroke:#181818;stroke-width:1.0;"/><text fill="#000000" font-family="sans-serif" font-size="13" font-weight="bold" lengthAdjust="spacing" textLength="7" x="784" y="555.8018">9</text><text fill="#000000" font-family="sans-serif" font-size="13" lengthAdjust="spacing" textLength="142" x="795" y="555.8018">validates selected option</text><polygon fill="#181818" points="481,633.3555,471,637.3555,481,641.3555,477,637.3555" style="stroke:#181818;stroke-width:1.0;"/><line style="stroke:#181818;stroke-width:1.0;stroke-dasharray:2.0,2.0;" x1="475" x2="771" y1="637.3555" y2="637.3555"/><text fill="#000000" font-family="sans-serif" font-size="13" font-weight="bold" lengthAdjust="spacing" textLength="14" x="487" y="632.0928">10</text><text fill="#000000" font-family="sans-serif" font-size="13" lengthAdjust="spacing" textLength="260" x="505" y="632.0928">Sends the list of selected vehicles to main UI</text><line style="stroke:#181818;stroke-width:1.0;stroke-dasharray:2.0,2.0;" x1="470" x2="512" y1="693.6465" y2="693.6465"/><line style="stroke:#181818;stroke-width:1.0;stroke-dasharray:2.0,2.0;" x1="512" x2="512" y1="693.6465" y2="706.6465"/><line style="stroke:#181818;stroke-width:1.0;stroke-dasharray:2.0,2.0;" x1="471" x2="512" y1="706.6465" y2="706.6465"/><polygon fill="#181818" points="481,702.6465,471,706.6465,481,710.6465,477,706.6465" style="stroke:#181818;stroke-width:1.0;"/><text fill="#000000" font-family="sans-serif" font-size="13" font-weight="bold" lengthAdjust="spacing" textLength="14" x="477" y="688.3838">11</text><text fill="#000000" font-family="sans-serif" font-size="13" lengthAdjust="spacing" textLength="246" x="495" y="688.3838">keepData(List&lt;Vehicle&gt; selectedVehicles)</text><line style="stroke:#181818;stroke-width:1.0;" x1="470" x2="512" y1="780.2285" y2="780.2285"/><line style="stroke:#181818;stroke-width:1.0;" x1="512" x2="512" y1="780.2285" y2="793.2285"/><line style="stroke:#181818;stroke-width:1.0;" x1="471" x2="512" y1="793.2285" y2="793.2285"/><polygon fill="#181818" points="481,789.2285,471,793.2285,481,797.2285,477,793.2285" style="stroke:#181818;stroke-width:1.0;"/><text fill="#000000" font-family="sans-serif" font-size="13" font-weight="bold" lengthAdjust="spacing" textLength="14" x="477" y="766.3203">12</text><text fill="#000000" font-family="sans-serif" font-size="13" lengthAdjust="spacing" textLength="168" x="495" y="757.6748">adds the selected vehicles to</text><text fill="#000000" font-family="sans-serif" font-size="13" lengthAdjust="spacing" textLength="170" x="495" y="774.9658">the selected entry of Agenda.</text><polygon fill="#181818" points="81,845.5195,71,849.5195,81,853.5195,77,849.5195" style="stroke:#181818;stroke-width:1.0;"/><line style="stroke:#181818;stroke-width:1.0;stroke-dasharray:2.0,2.0;" x1="75" x2="464" y1="849.5195" y2="849.5195"/><text fill="#000000" font-family="sans-serif" font-size="13" font-weight="bold" lengthAdjust="spacing" textLength="14" x="87" y="844.2568">13</text><text fill="#000000" font-family="sans-serif" font-size="13" lengthAdjust="spacing" textLength="160" x="105" y="844.2568">Displays operation success</text><!--SRC=[VPF1Yjim48RlUeeXbsuEAQM77a89B0IMG9S6J7hQozIQjKLioVN82O4yV4UoxCH9TdC8M3FpppV_IBmtji4MQwYTTNdPkfh0jnqf7YCDvdiiAFEdYg2btACjgki4Bb6xex45l6F5f9GtNb9tsRVlFs01sOazrP3HluviJh0sM8IofonRpvN2pZlRrN-fLVAHUzV2xAKbif19PtgphsYbVJi3P7Z9NfKqzIOt3LeFi-LpGLRZRXF3kyrDDADAWFzGQVAAUEkQhacfsz_RtJOsD0Vq59ML_C5Y9J9BUEOzWtUIogQmu2o1aDMk9JWakHYsGDQt9p0MV4dGurnaXKY1_2hd6kYiDnLeHso_UE381WW7h8m6rtZZR9-zsy12E0Hd2LdfZXorAyCUt3ju36of8SQ6mg414t8I5cIbQK8opWUY6xDO-WUz2N5g7zCYd9npagMHz7m-A-aTHvjWnxezKRD6Zqz1VNw9hthduNgm9km5ZiQNapa7dsFjT99mCdxtgmn70Ua3j_FIEQQuCdr0kOSniMVvnEjnrmyC3dbZt19fqjU6fnkMF1-cvj7sLAfk2Yv8Gyd7AnZj3uDV2jD-hPxECbPVN-0QvIA9etVWjtOFtZvSyYzfyJCzizNOQ7Xtypk1L8yw8Jv2UxEJIF_CP8p-YNqTDU-VpDfmK-69nIPgCJW5tEKvCTyyYFy0]--></g></svg>