<?xml version="1.0" encoding="us-ascii" standalone="no"?><svg xmlns="http://www.w3.org/2000/svg" xmlns:xlink="http://www.w3.org/1999/xlink" contentStyleType="text/css" height="632px" preserveAspectRatio="none" style="width:570px;height:632px;background:#FFFFFF;" version="1.1" viewBox="0 0 570 632" width="570px" zoomAndPan="magnify"><defs/><g><text fill="#000000" font-family="sans-serif" font-size="14" font-weight="bold" lengthAdjust="spacing" textLength="284" x="145" y="30.1074">US029 - System Sequence Diagram (SSD)</text><rect fill="#FFFFFF" height="406.7832" style="stroke:#181818;stroke-width:1.0;" width="10" x="57" y="133.2422"/><rect fill="#FFFFFF" height="74.873" style="stroke:#181818;stroke-width:1.0;" width="10" x="367" y="156.5332"/><rect fill="#FFFFFF" height="126.873" style="stroke:#181818;stroke-width:1.0;" width="10" x="367" y="262.6973"/><rect fill="#FFFFFF" height="110.1641" style="stroke:#181818;stroke-width:1.0;" width="10" x="367" y="420.8613"/><rect fill="none" height="143.4551" style="stroke:#000000;stroke-width:1.5;" width="532" x="10" y="171.5332"/><line style="stroke:#181818;stroke-width:0.5;stroke-dasharray:5.0,5.0;" x1="62" x2="62" y1="123.2422" y2="549.0254"/><line style="stroke:#181818;stroke-width:0.5;stroke-dasharray:5.0,5.0;" x1="372" x2="372" y1="123.2422" y2="549.0254"/><text fill="#000000" font-family="sans-serif" font-size="14" lengthAdjust="spacing" textLength="78" x="20" y="119.7285">Collaborator</text><ellipse cx="62" cy="53.1211" fill="#E3E3E3" rx="8" ry="8" style="stroke:#181818;stroke-width:0.5;"/><path d="M62,61.1211 L62,88.1211 M49,69.1211 L75,69.1211 M62,88.1211 L49,103.1211 M62,88.1211 L75,103.1211 " fill="none" style="stroke:#181818;stroke-width:0.5;"/><text fill="#000000" font-family="sans-serif" font-size="14" lengthAdjust="spacing" textLength="78" x="20" y="563.1328">Collaborator</text><ellipse cx="62" cy="575.1465" fill="#E3E3E3" rx="8" ry="8" style="stroke:#181818;stroke-width:0.5;"/><path d="M62,583.1465 L62,610.1465 M49,591.1465 L75,591.1465 M62,610.1465 L49,625.1465 M62,610.1465 L75,625.1465 " fill="none" style="stroke:#181818;stroke-width:0.5;"/><rect fill="#E3E3E3" height="32.6211" rx="2.5" ry="2.5" style="stroke:#181818;stroke-width:0.5;" width="168" x="288" y="89.6211"/><text fill="#000000" font-family="sans-serif" font-size="14" lengthAdjust="spacing" textLength="154" x="295" y="111.7285">:ListCollaboratorTasksUI</text><rect fill="#E3E3E3" height="32.6211" rx="2.5" ry="2.5" style="stroke:#181818;stroke-width:0.5;" width="168" x="288" y="548.0254"/><text fill="#000000" font-family="sans-serif" font-size="14" lengthAdjust="spacing" textLength="154" x="295" y="570.1328">:ListCollaboratorTasksUI</text><rect fill="#FFFFFF" height="406.7832" style="stroke:#181818;stroke-width:1.0;" width="10" x="57" y="133.2422"/><rect fill="#FFFFFF" height="74.873" style="stroke:#181818;stroke-width:1.0;" width="10" x="367" y="156.5332"/><rect fill="#FFFFFF" height="126.873" style="stroke:#181818;stroke-width:1.0;" width="10" x="367" y="262.6973"/><rect fill="#FFFFFF" height="110.1641" style="stroke:#181818;stroke-width:1.0;" width="10" x="367" y="420.8613"/><polygon fill="#181818" points="355,152.5332,365,156.5332,355,160.5332,359,156.5332" style="stroke:#181818;stroke-width:1.0;"/><line style="stroke:#181818;stroke-width:1.0;" x1="67" x2="361" y1="156.5332" y2="156.5332"/><text fill="#000000" font-family="sans-serif" font-size="13" font-weight="bold" lengthAdjust="spacing" textLength="7" x="74" y="151.2705">1</text><text fill="#000000" font-family="sans-serif" font-size="13" lengthAdjust="spacing" textLength="228" x="85" y="151.2705">Asks to record the completion of a task</text><path d="M10,171.5332 L83,171.5332 L83,180.8242 L73,190.8242 L10,190.8242 L10,171.5332 " fill="#EEEEEE" style="stroke:#000000;stroke-width:1.5;"/><rect fill="none" height="143.4551" style="stroke:#000000;stroke-width:1.5;" width="532" x="10" y="171.5332"/><text fill="#000000" font-family="sans-serif" font-size="13" font-weight="bold" lengthAdjust="spacing" textLength="28" x="25" y="186.5615">loop</text><text fill="#000000" font-family="sans-serif" font-size="11" font-weight="bold" lengthAdjust="spacing" textLength="189" x="98" y="185.4033">[until doesn't select a valid option]</text><polygon fill="#181818" points="78,227.4063,68,231.4063,78,235.4063,74,231.4063" style="stroke:#181818;stroke-width:1.0;"/><line style="stroke:#181818;stroke-width:1.0;stroke-dasharray:2.0,2.0;" x1="72" x2="371" y1="231.4063" y2="231.4063"/><text fill="#000000" font-family="sans-serif" font-size="13" font-weight="bold" lengthAdjust="spacing" textLength="7" x="84" y="217.498">2</text><text fill="#000000" font-family="sans-serif" font-size="13" lengthAdjust="spacing" textLength="261" x="95" y="208.8525">Shows the tasks assigned to the collaborator</text><text fill="#000000" font-family="sans-serif" font-size="13" lengthAdjust="spacing" textLength="132" x="95" y="226.1436">and asks to select one</text><polygon fill="#181818" points="355,258.6973,365,262.6973,355,266.6973,359,262.6973" style="stroke:#181818;stroke-width:1.0;"/><line style="stroke:#181818;stroke-width:1.0;" x1="67" x2="361" y1="262.6973" y2="262.6973"/><text fill="#000000" font-family="sans-serif" font-size="13" font-weight="bold" lengthAdjust="spacing" textLength="7" x="74" y="257.4346">3</text><text fill="#000000" font-family="sans-serif" font-size="13" lengthAdjust="spacing" textLength="98" x="85" y="257.4346">Selects one task</text><line style="stroke:#181818;stroke-width:1.0;stroke-dasharray:2.0,2.0;" x1="377" x2="419" y1="293.9883" y2="293.9883"/><line style="stroke:#181818;stroke-width:1.0;stroke-dasharray:2.0,2.0;" x1="419" x2="419" y1="293.9883" y2="306.9883"/><line style="stroke:#181818;stroke-width:1.0;stroke-dasharray:2.0,2.0;" x1="378" x2="419" y1="306.9883" y2="306.9883"/><polygon fill="#181818" points="388,302.9883,378,306.9883,388,310.9883,384,306.9883" style="stroke:#181818;stroke-width:1.0;"/><text fill="#000000" font-family="sans-serif" font-size="13" font-weight="bold" lengthAdjust="spacing" textLength="7" x="384" y="288.7256">4</text><text fill="#000000" font-family="sans-serif" font-size="13" lengthAdjust="spacing" textLength="135" x="395" y="288.7256">validate selected option</text><line style="stroke:#181818;stroke-width:1.0;stroke-dasharray:2.0,2.0;" x1="377" x2="419" y1="345.2793" y2="345.2793"/><line style="stroke:#181818;stroke-width:1.0;stroke-dasharray:2.0,2.0;" x1="419" x2="419" y1="345.2793" y2="358.2793"/><line style="stroke:#181818;stroke-width:1.0;stroke-dasharray:2.0,2.0;" x1="378" x2="419" y1="358.2793" y2="358.2793"/><polygon fill="#181818" points="388,354.2793,378,358.2793,388,362.2793,384,358.2793" style="stroke:#181818;stroke-width:1.0;"/><text fill="#000000" font-family="sans-serif" font-size="13" font-weight="bold" lengthAdjust="spacing" textLength="7" x="384" y="340.0166">5</text><text fill="#000000" font-family="sans-serif" font-size="13" lengthAdjust="spacing" textLength="140" x="395" y="340.0166">keepData(selectedTask)</text><polygon fill="#181818" points="78,385.5703,68,389.5703,78,393.5703,74,389.5703" style="stroke:#181818;stroke-width:1.0;"/><line style="stroke:#181818;stroke-width:1.0;stroke-dasharray:2.0,2.0;" x1="72" x2="371" y1="389.5703" y2="389.5703"/><text fill="#000000" font-family="sans-serif" font-size="13" font-weight="bold" lengthAdjust="spacing" textLength="7" x="84" y="384.3076">6</text><text fill="#000000" font-family="sans-serif" font-size="13" lengthAdjust="spacing" textLength="173" x="95" y="384.3076">Asks for confirm the operation</text><polygon fill="#181818" points="355,416.8613,365,420.8613,355,424.8613,359,420.8613" style="stroke:#181818;stroke-width:1.0;"/><line style="stroke:#181818;stroke-width:1.0;" x1="67" x2="361" y1="420.8613" y2="420.8613"/><text fill="#000000" font-family="sans-serif" font-size="13" font-weight="bold" lengthAdjust="spacing" textLength="7" x="74" y="415.5986">7</text><text fill="#000000" font-family="sans-serif" font-size="13" lengthAdjust="spacing" textLength="130" x="85" y="415.5986">Confirms the operation</text><line style="stroke:#181818;stroke-width:1.0;stroke-dasharray:2.0,2.0;" x1="377" x2="419" y1="486.7344" y2="486.7344"/><line style="stroke:#181818;stroke-width:1.0;stroke-dasharray:2.0,2.0;" x1="419" x2="419" y1="486.7344" y2="499.7344"/><line style="stroke:#181818;stroke-width:1.0;stroke-dasharray:2.0,2.0;" x1="378" x2="419" y1="499.7344" y2="499.7344"/><polygon fill="#181818" points="388,495.7344,378,499.7344,388,503.7344,384,499.7344" style="stroke:#181818;stroke-width:1.0;"/><text fill="#000000" font-family="sans-serif" font-size="13" font-weight="bold" lengthAdjust="spacing" textLength="7" x="384" y="464.1807">8</text><text fill="#000000" font-family="sans-serif" font-size="13" lengthAdjust="spacing" textLength="152" x="395" y="446.8896">updates the task status to</text><text fill="#000000" font-family="sans-serif" font-size="13" lengthAdjust="spacing" textLength="168" x="395" y="464.1807">"DONE" and release vehicles</text><text fill="#000000" font-family="sans-serif" font-size="13" lengthAdjust="spacing" textLength="138" x="399" y="481.4717">and teams work periods</text><polygon fill="#181818" points="78,527.0254,68,531.0254,78,535.0254,74,531.0254" style="stroke:#181818;stroke-width:1.0;"/><line style="stroke:#181818;stroke-width:1.0;stroke-dasharray:2.0,2.0;" x1="72" x2="371" y1="531.0254" y2="531.0254"/><text fill="#000000" font-family="sans-serif" font-size="13" font-weight="bold" lengthAdjust="spacing" textLength="7" x="84" y="525.7627">9</text><text fill="#000000" font-family="sans-serif" font-size="13" lengthAdjust="spacing" textLength="160" x="95" y="525.7627">Displays operation success</text><!--SRC=[XLBDRjim3BxxAOXSrXu23BtDXm73t4E1eJjukUN2oamiM1OzaKwGjn-bjgcpjeXECgdlZxGCFawOS8IH8xi-yKYWQQPApfq9tO1xQlKK218vnRWFomVIOyT77_Ummo1KLUhLdcxQhtVVO0tjIPH6QEdlJD4HD1xt6NRJjirjLU6i7EVnYPBTdNA2rKyE0PyueNsj00MMXSf4rJi_OLHOrR-ywBBz1sMGpKE1RHuAfJ-WqYL71NQM5LX_j-TGmm-3Wt8Eoga3xGaSZrCWzHo1Tu2W9b48pjnPA31FC4Vr0JecYLyKX8ADon073Bu3dZ97GUPZScjJlN1HGzlpKOfibX6B8NuVgSkUdiqidcyZnWxmnVAB74Sg6XrT-FiqSLjWad4VH_lFS06LHBd_B4hdT6I6yYZUeseOYAO65MzUGNbPjzMLYPIDxEpgEEvy6iiOU2BhByTv6VUr-ZvnRRN28vyGNOi-Jpdusuv057NE6zZ6LVFxyTx-FHj2ieme10VglGiasrZAIcZAHqu3cBBdJgxbRxnC0K_oPXLaTev4FbZpFm00]--></g></svg>