<?xml version="1.0" encoding="us-ascii" standalone="no"?><svg xmlns="http://www.w3.org/2000/svg" xmlns:xlink="http://www.w3.org/1999/xlink" contentStyleType="text/css" height="1588px" preserveAspectRatio="none" style="width:2237px;height:1588px;background:#FFFFFF;" version="1.1" viewBox="0 0 2237 1588" width="2237px" zoomAndPan="magnify"><defs/><g><text fill="#000000" font-family="sans-serif" font-size="14" font-weight="bold" lengthAdjust="spacing" textLength="226" x="1007" y="30.1074">SD_managerSpecificAgendaDTO</text><rect fill="#FFFFFF" height="1444.9043" style="stroke:#181818;stroke-width:1.0;" width="10" x="39.5" y="88.2422"/><rect fill="#FFFFFF" height="1421.6133" style="stroke:#181818;stroke-width:1.0;" width="10" x="274.5" y="111.5332"/><rect fill="#FFFFFF" height="177.4941" style="stroke:#181818;stroke-width:1.0;" width="10" x="611.5" y="423.2012"/><rect fill="#FFFFFF" height="99.9121" style="stroke:#181818;stroke-width:1.0;" width="10" x="950.5" y="656.9863"/><rect fill="#FFFFFF" height="202.4941" style="stroke:#181818;stroke-width:1.0;" width="10" x="1347.5" y="951.6934"/><rect fill="#FFFFFF" height="97.1641" style="stroke:#181818;stroke-width:1.0;" width="10" x="1640" y="1303.4004"/><rect fill="none" height="1262.1094" style="stroke:#000000;stroke-width:1.5;" width="2036" x="195" y="215.7461"/><rect fill="none" height="539.4922" style="stroke:#000000;stroke-width:1.5;" width="1091.5" x="205" y="286.3281"/><rect fill="none" height="132.2031" style="stroke:#000000;stroke-width:1.5;" width="370" x="534.5" y="438.2012"/><rect fill="none" height="338.998" style="stroke:#000000;stroke-width:1.5;" width="1422.5" x="205" y="884.1113"/><rect fill="none" height="157.2031" style="stroke:#000000;stroke-width:1.5;" width="331" x="1286.5" y="966.6934"/><line style="stroke:#181818;stroke-width:0.5;stroke-dasharray:5.0,5.0;" x1="44" x2="44" y1="78.2422" y2="1551.1465"/><line style="stroke:#181818;stroke-width:0.5;stroke-dasharray:5.0,5.0;" x1="279" x2="279" y1="78.2422" y2="1551.1465"/><line style="stroke:#181818;stroke-width:0.5;stroke-dasharray:5.0,5.0;" x1="616.5" x2="616.5" y1="78.2422" y2="1551.1465"/><line style="stroke:#181818;stroke-width:0.5;stroke-dasharray:5.0,5.0;" x1="831.5" x2="831.5" y1="514.3027" y2="1551.1465"/><line style="stroke:#181818;stroke-width:0.5;stroke-dasharray:5.0,5.0;" x1="955.5" x2="955.5" y1="78.2422" y2="1551.1465"/><line style="stroke:#181818;stroke-width:0.5;stroke-dasharray:5.0,5.0;" x1="1244.5" x2="1244.5" y1="696.7969" y2="1551.1465"/><line style="stroke:#181818;stroke-width:0.5;stroke-dasharray:5.0,5.0;" x1="1352.5" x2="1352.5" y1="78.2422" y2="1551.1465"/><line style="stroke:#181818;stroke-width:0.5;stroke-dasharray:5.0,5.0;" x1="1530.5" x2="1530.5" y1="1042.7949" y2="1551.1465"/><line style="stroke:#181818;stroke-width:0.5;stroke-dasharray:5.0,5.0;" x1="1644.5" x2="1644.5" y1="78.2422" y2="1551.1465"/><line style="stroke:#181818;stroke-width:0.5;stroke-dasharray:5.0,5.0;" x1="2157" x2="2157" y1="1354.3369" y2="1551.1465"/><rect fill="#E3E3E3" height="32.6211" rx="2.5" ry="2.5" style="stroke:#181818;stroke-width:0.5;" width="79" x="5" y="44.6211"/><text fill="#000000" font-family="sans-serif" font-size="14" lengthAdjust="spacing" textLength="65" x="12" y="66.7285">:AgendaUI</text><rect fill="#E3E3E3" height="32.6211" rx="2.5" ry="2.5" style="stroke:#181818;stroke-width:0.5;" width="79" x="5" y="1550.1465"/><text fill="#000000" font-family="sans-serif" font-size="14" lengthAdjust="spacing" textLength="65" x="12" y="1572.2539">:AgendaUI</text><rect fill="#E3E3E3" height="32.6211" rx="2.5" ry="2.5" style="stroke:#181818;stroke-width:0.5;" width="129" x="215" y="44.6211"/><text fill="#000000" font-family="sans-serif" font-size="14" lengthAdjust="spacing" textLength="115" x="222" y="66.7285">:AgendaController</text><rect fill="#E3E3E3" height="32.6211" rx="2.5" ry="2.5" style="stroke:#181818;stroke-width:0.5;" width="129" x="215" y="1550.1465"/><text fill="#000000" font-family="sans-serif" font-size="14" lengthAdjust="spacing" textLength="115" x="222" y="1572.2539">:AgendaController</text><rect fill="#E3E3E3" height="32.6211" rx="2.5" ry="2.5" style="stroke:#181818;stroke-width:0.5;" width="144" x="544.5" y="44.6211"/><text fill="#000000" font-family="sans-serif" font-size="14" lengthAdjust="spacing" textLength="130" x="551.5" y="66.7285">:CollaboratorMapper</text><rect fill="#E3E3E3" height="32.6211" rx="2.5" ry="2.5" style="stroke:#181818;stroke-width:0.5;" width="144" x="544.5" y="1550.1465"/><text fill="#000000" font-family="sans-serif" font-size="14" lengthAdjust="spacing" textLength="130" x="551.5" y="1572.2539">:CollaboratorMapper</text><rect fill="#E3E3E3" height="32.6211" rx="2.5" ry="2.5" style="stroke:#181818;stroke-width:0.5;" width="126" x="768.5" y="1550.1465"/><text fill="#000000" font-family="sans-serif" font-size="14" lengthAdjust="spacing" textLength="112" x="775.5" y="1572.2539">:CollaboratorDTO</text><rect fill="#E3E3E3" height="32.6211" rx="2.5" ry="2.5" style="stroke:#181818;stroke-width:0.5;" width="102" x="904.5" y="44.6211"/><text fill="#000000" font-family="sans-serif" font-size="14" lengthAdjust="spacing" textLength="88" x="911.5" y="66.7285">:TeamMapper</text><rect fill="#E3E3E3" height="32.6211" rx="2.5" ry="2.5" style="stroke:#181818;stroke-width:0.5;" width="102" x="904.5" y="1550.1465"/><text fill="#000000" font-family="sans-serif" font-size="14" lengthAdjust="spacing" textLength="88" x="911.5" y="1572.2539">:TeamMapper</text><rect fill="#E3E3E3" height="32.6211" rx="2.5" ry="2.5" style="stroke:#181818;stroke-width:0.5;" width="84" x="1202.5" y="1550.1465"/><text fill="#000000" font-family="sans-serif" font-size="14" lengthAdjust="spacing" textLength="70" x="1209.5" y="1572.2539">:TeamDTO</text><rect fill="#E3E3E3" height="32.6211" rx="2.5" ry="2.5" style="stroke:#181818;stroke-width:0.5;" width="112" x="1296.5" y="44.6211"/><text fill="#000000" font-family="sans-serif" font-size="14" lengthAdjust="spacing" textLength="98" x="1303.5" y="66.7285">:VehicleMapper</text><rect fill="#E3E3E3" height="32.6211" rx="2.5" ry="2.5" style="stroke:#181818;stroke-width:0.5;" width="112" x="1296.5" y="1550.1465"/><text fill="#000000" font-family="sans-serif" font-size="14" lengthAdjust="spacing" textLength="98" x="1303.5" y="1572.2539">:VehicleMapper</text><rect fill="#E3E3E3" height="32.6211" rx="2.5" ry="2.5" style="stroke:#181818;stroke-width:0.5;" width="94" x="1483.5" y="1550.1465"/><text fill="#000000" font-family="sans-serif" font-size="14" lengthAdjust="spacing" textLength="80" x="1490.5" y="1572.2539">:VehicleDTO</text><rect fill="#E3E3E3" height="32.6211" rx="2.5" ry="2.5" style="stroke:#181818;stroke-width:0.5;" width="115" x="1587.5" y="44.6211"/><text fill="#000000" font-family="sans-serif" font-size="14" lengthAdjust="spacing" textLength="101" x="1594.5" y="66.7285">:AgendaMapper</text><rect fill="#E3E3E3" height="32.6211" rx="2.5" ry="2.5" style="stroke:#181818;stroke-width:0.5;" width="115" x="1587.5" y="1550.1465"/><text fill="#000000" font-family="sans-serif" font-size="14" lengthAdjust="spacing" textLength="101" x="1594.5" y="1572.2539">:AgendaMapper</text><rect fill="#E3E3E3" height="32.6211" rx="2.5" ry="2.5" style="stroke:#181818;stroke-width:0.5;" width="128" x="2093" y="1550.1465"/><text fill="#000000" font-family="sans-serif" font-size="14" lengthAdjust="spacing" textLength="114" x="2100" y="1572.2539">:AgendaTaskDTO</text><rect fill="#FFFFFF" height="1444.9043" style="stroke:#181818;stroke-width:1.0;" width="10" x="39.5" y="88.2422"/><rect fill="#FFFFFF" height="1421.6133" style="stroke:#181818;stroke-width:1.0;" width="10" x="274.5" y="111.5332"/><rect fill="#FFFFFF" height="177.4941" style="stroke:#181818;stroke-width:1.0;" width="10" x="611.5" y="423.2012"/><rect fill="#FFFFFF" height="99.9121" style="stroke:#181818;stroke-width:1.0;" width="10" x="950.5" y="656.9863"/><rect fill="#FFFFFF" height="202.4941" style="stroke:#181818;stroke-width:1.0;" width="10" x="1347.5" y="951.6934"/><rect fill="#FFFFFF" height="97.1641" style="stroke:#181818;stroke-width:1.0;" width="10" x="1640" y="1303.4004"/><polygon fill="#181818" points="262.5,107.5332,272.5,111.5332,262.5,115.5332,266.5,111.5332" style="stroke:#181818;stroke-width:1.0;"/><line style="stroke:#181818;stroke-width:1.0;" x1="49.5" x2="268.5" y1="111.5332" y2="111.5332"/><text fill="#000000" font-family="sans-serif" font-size="13" font-weight="bold" lengthAdjust="spacing" textLength="7" x="56.5" y="106.2705">1</text><text fill="#000000" font-family="sans-serif" font-size="13" lengthAdjust="spacing" textLength="195" x="67.5" y="106.2705">getAgendaTaskDTOManagerList()</text><rect fill="none" height="59.2129" style="stroke:#000000;stroke-width:1.5;" width="203" x="212" y="119.5332"/><path d="M212,119.5332 L274,119.5332 L274,128.5332 L264,138.5332 L212,138.5332 L212,119.5332 " fill="#EEEEEE" style="stroke:#000000;stroke-width:2.0;"/><text fill="#000000" font-family="sans-serif" font-size="13" font-weight="bold" lengthAdjust="spacing" textLength="17" x="225" y="135.5615">ref</text><text fill="#000000" font-family="sans-serif" font-size="12" lengthAdjust="spacing" textLength="195" x="216" y="155.4824">SD_obtainManagerAgendaTaskList</text><text fill="#000000" font-family="sans-serif" font-size="12" lengthAdjust="spacing" textLength="3" x="312" y="171.4434">&#160;</text><path d="M195,215.7461 L268,215.7461 L268,225.0371 L258,235.0371 L195,235.0371 L195,215.7461 " fill="#EEEEEE" style="stroke:#000000;stroke-width:1.5;"/><rect fill="none" height="1262.1094" style="stroke:#000000;stroke-width:1.5;" width="2036" x="195" y="215.7461"/><text fill="#000000" font-family="sans-serif" font-size="13" font-weight="bold" lengthAdjust="spacing" textLength="28" x="210" y="230.7744">loop</text><text fill="#000000" font-family="sans-serif" font-size="11" font-weight="bold" lengthAdjust="spacing" textLength="184" x="283" y="229.6162">[for each task in agendaTaskList]</text><line style="stroke:#181818;stroke-width:1.0;" x1="284.5" x2="326.5" y1="258.3281" y2="258.3281"/><line style="stroke:#181818;stroke-width:1.0;" x1="326.5" x2="326.5" y1="258.3281" y2="271.3281"/><line style="stroke:#181818;stroke-width:1.0;" x1="285.5" x2="326.5" y1="271.3281" y2="271.3281"/><polygon fill="#181818" points="295.5,267.3281,285.5,271.3281,295.5,275.3281,291.5,271.3281" style="stroke:#181818;stroke-width:1.0;"/><text fill="#000000" font-family="sans-serif" font-size="13" font-weight="bold" lengthAdjust="spacing" textLength="7" x="291.5" y="253.0654">2</text><text fill="#000000" font-family="sans-serif" font-size="13" lengthAdjust="spacing" textLength="149" x="302.5" y="253.0654">getTeamAssigned() [task]</text><path d="M205,286.3281 L266,286.3281 L266,295.6191 L256,305.6191 L205,305.6191 L205,286.3281 " fill="#EEEEEE" style="stroke:#000000;stroke-width:1.5;"/><rect fill="none" height="539.4922" style="stroke:#000000;stroke-width:1.5;" width="1091.5" x="205" y="286.3281"/><text fill="#000000" font-family="sans-serif" font-size="13" font-weight="bold" lengthAdjust="spacing" textLength="16" x="220" y="301.3564">alt</text><text fill="#000000" font-family="sans-serif" font-size="11" font-weight="bold" lengthAdjust="spacing" textLength="155" x="281" y="300.1982">[task have a team assigned]</text><line style="stroke:#181818;stroke-width:1.0;" x1="284.5" x2="326.5" y1="353.9102" y2="353.9102"/><line style="stroke:#181818;stroke-width:1.0;" x1="326.5" x2="326.5" y1="353.9102" y2="366.9102"/><line style="stroke:#181818;stroke-width:1.0;" x1="285.5" x2="326.5" y1="366.9102" y2="366.9102"/><polygon fill="#181818" points="295.5,362.9102,285.5,366.9102,295.5,370.9102,291.5,366.9102" style="stroke:#181818;stroke-width:1.0;"/><text fill="#000000" font-family="sans-serif" font-size="13" font-weight="bold" lengthAdjust="spacing" textLength="7" x="291.5" y="348.6475">3</text><text fill="#000000" font-family="sans-serif" font-size="13" lengthAdjust="spacing" textLength="124" x="302.5" y="348.6475">getMembers() [Team]</text><polygon fill="#181818" points="599.5,419.2012,609.5,423.2012,599.5,427.2012,603.5,423.2012" style="stroke:#181818;stroke-width:1.0;"/><line style="stroke:#181818;stroke-width:1.0;" x1="284.5" x2="605.5" y1="423.2012" y2="423.2012"/><text fill="#000000" font-family="sans-serif" font-size="13" font-weight="bold" lengthAdjust="spacing" textLength="7" x="291.5" y="417.9385">4</text><text fill="#000000" font-family="sans-serif" font-size="13" lengthAdjust="spacing" textLength="145" x="302.5" y="417.9385">toDTOlist(teamMembers)</text><path d="M534.5,438.2012 L607.5,438.2012 L607.5,447.4922 L597.5,457.4922 L534.5,457.4922 L534.5,438.2012 " fill="#EEEEEE" style="stroke:#000000;stroke-width:1.5;"/><rect fill="none" height="132.2031" style="stroke:#000000;stroke-width:1.5;" width="370" x="534.5" y="438.2012"/><text fill="#000000" font-family="sans-serif" font-size="13" font-weight="bold" lengthAdjust="spacing" textLength="28" x="549.5" y="453.2295">loop</text><text fill="#000000" font-family="sans-serif" font-size="11" font-weight="bold" lengthAdjust="spacing" textLength="220" x="622.5" y="452.0713">[for each collaborator in teamMembers]</text><polygon fill="#181818" points="756.5,501.7832,766.5,505.7832,756.5,509.7832,760.5,505.7832" style="stroke:#181818;stroke-width:1.0;"/><line style="stroke:#181818;stroke-width:1.0;" x1="621.5" x2="762.5" y1="505.7832" y2="505.7832"/><text fill="#000000" font-family="sans-serif" font-size="13" font-weight="bold" lengthAdjust="spacing" textLength="7" x="628.5" y="500.5205">5</text><text fill="#000000" font-family="sans-serif" font-size="13" lengthAdjust="spacing" textLength="112" x="639.5" y="500.5205">toDTO(collaborator)</text><rect fill="#E3E3E3" height="32.6211" rx="2.5" ry="2.5" style="stroke:#181818;stroke-width:0.5;" width="126" x="768.5" y="482.4922"/><text fill="#000000" font-family="sans-serif" font-size="14" lengthAdjust="spacing" textLength="112" x="775.5" y="504.5996">:CollaboratorDTO</text><line style="stroke:#181818;stroke-width:1.0;stroke-dasharray:2.0,2.0;" x1="621.5" x2="663.5" y1="549.4043" y2="549.4043"/><line style="stroke:#181818;stroke-width:1.0;stroke-dasharray:2.0,2.0;" x1="663.5" x2="663.5" y1="549.4043" y2="562.4043"/><line style="stroke:#181818;stroke-width:1.0;stroke-dasharray:2.0,2.0;" x1="622.5" x2="663.5" y1="562.4043" y2="562.4043"/><polygon fill="#181818" points="632.5,558.4043,622.5,562.4043,632.5,566.4043,628.5,562.4043" style="stroke:#181818;stroke-width:1.0;"/><text fill="#000000" font-family="sans-serif" font-size="13" font-weight="bold" lengthAdjust="spacing" textLength="7" x="628.5" y="544.1416">6</text><text fill="#000000" font-family="sans-serif" font-size="13" lengthAdjust="spacing" textLength="122" x="639.5" y="544.1416">add(collaboratorDTO)</text><polygon fill="#181818" points="295.5,596.6953,285.5,600.6953,295.5,604.6953,291.5,600.6953" style="stroke:#181818;stroke-width:1.0;"/><line style="stroke:#181818;stroke-width:1.0;stroke-dasharray:2.0,2.0;" x1="289.5" x2="615.5" y1="600.6953" y2="600.6953"/><text fill="#000000" font-family="sans-serif" font-size="13" font-weight="bold" lengthAdjust="spacing" textLength="7" x="301.5" y="595.4326">7</text><text fill="#000000" font-family="sans-serif" font-size="13" lengthAdjust="spacing" textLength="110" x="312.5" y="595.4326">collaboratorDTOlist</text><polygon fill="#181818" points="938.5,652.9863,948.5,656.9863,938.5,660.9863,942.5,656.9863" style="stroke:#181818;stroke-width:1.0;"/><line style="stroke:#181818;stroke-width:1.0;" x1="284.5" x2="944.5" y1="656.9863" y2="656.9863"/><text fill="#000000" font-family="sans-serif" font-size="13" font-weight="bold" lengthAdjust="spacing" textLength="7" x="291.5" y="651.7236">8</text><text fill="#000000" font-family="sans-serif" font-size="13" lengthAdjust="spacing" textLength="155" x="302.5" y="651.7236">toDTO(collaboratorDTOlist)</text><polygon fill="#181818" points="1190.5,684.2773,1200.5,688.2773,1190.5,692.2773,1194.5,688.2773" style="stroke:#181818;stroke-width:1.0;"/><line style="stroke:#181818;stroke-width:1.0;" x1="960.5" x2="1196.5" y1="688.2773" y2="688.2773"/><text fill="#000000" font-family="sans-serif" font-size="13" font-weight="bold" lengthAdjust="spacing" textLength="7" x="967.5" y="683.0146">9</text><text fill="#000000" font-family="sans-serif" font-size="13" lengthAdjust="spacing" textLength="207" x="978.5" y="683.0146">new TeamDTO(collaboratorDTOList)</text><rect fill="#E3E3E3" height="32.6211" rx="2.5" ry="2.5" style="stroke:#181818;stroke-width:0.5;" width="84" x="1202.5" y="664.9863"/><text fill="#000000" font-family="sans-serif" font-size="14" lengthAdjust="spacing" textLength="70" x="1209.5" y="687.0938">:TeamDTO</text><polygon fill="#181818" points="295.5,752.8984,285.5,756.8984,295.5,760.8984,291.5,756.8984" style="stroke:#181818;stroke-width:1.0;"/><line style="stroke:#181818;stroke-width:1.0;stroke-dasharray:2.0,2.0;" x1="289.5" x2="954.5" y1="756.8984" y2="756.8984"/><text fill="#000000" font-family="sans-serif" font-size="13" font-weight="bold" lengthAdjust="spacing" textLength="14" x="301.5" y="751.6357">10</text><text fill="#000000" font-family="sans-serif" font-size="13" lengthAdjust="spacing" textLength="55" x="319.5" y="751.6357">teamDTO</text><line style="stroke:#000000;stroke-width:1.0;stroke-dasharray:2.0,2.0;" x1="205" x2="1296.5" y1="765.8984" y2="765.8984"/><text fill="#000000" font-family="sans-serif" font-size="11" font-weight="bold" lengthAdjust="spacing" textLength="200" x="210" y="777.7686">[task doesn't have a team assigned]</text><line style="stroke:#181818;stroke-width:1.0;" x1="284.5" x2="326.5" y1="804.8203" y2="804.8203"/><line style="stroke:#181818;stroke-width:1.0;" x1="326.5" x2="326.5" y1="804.8203" y2="817.8203"/><line style="stroke:#181818;stroke-width:1.0;" x1="285.5" x2="326.5" y1="817.8203" y2="817.8203"/><polygon fill="#181818" points="295.5,813.8203,285.5,817.8203,295.5,821.8203,291.5,817.8203" style="stroke:#181818;stroke-width:1.0;"/><text fill="#000000" font-family="sans-serif" font-size="13" font-weight="bold" lengthAdjust="spacing" textLength="14" x="291.5" y="799.5576">11</text><text fill="#000000" font-family="sans-serif" font-size="13" lengthAdjust="spacing" textLength="91" x="309.5" y="799.5576">teamDTO = null</text><line style="stroke:#181818;stroke-width:1.0;" x1="284.5" x2="326.5" y1="856.1113" y2="856.1113"/><line style="stroke:#181818;stroke-width:1.0;" x1="326.5" x2="326.5" y1="856.1113" y2="869.1113"/><line style="stroke:#181818;stroke-width:1.0;" x1="285.5" x2="326.5" y1="869.1113" y2="869.1113"/><polygon fill="#181818" points="295.5,865.1113,285.5,869.1113,295.5,873.1113,291.5,869.1113" style="stroke:#181818;stroke-width:1.0;"/><text fill="#000000" font-family="sans-serif" font-size="13" font-weight="bold" lengthAdjust="spacing" textLength="14" x="291.5" y="850.8486">12</text><text fill="#000000" font-family="sans-serif" font-size="13" lengthAdjust="spacing" textLength="167" x="309.5" y="850.8486">getVehiclesAssigned() [task]</text><path d="M205,884.1113 L266,884.1113 L266,893.4023 L256,903.4023 L205,903.4023 L205,884.1113 " fill="#EEEEEE" style="stroke:#000000;stroke-width:1.5;"/><rect fill="none" height="338.998" style="stroke:#000000;stroke-width:1.5;" width="1422.5" x="205" y="884.1113"/><text fill="#000000" font-family="sans-serif" font-size="13" font-weight="bold" lengthAdjust="spacing" textLength="16" x="220" y="899.1396">alt</text><text fill="#000000" font-family="sans-serif" font-size="11" font-weight="bold" lengthAdjust="spacing" textLength="164" x="281" y="897.9814">[task have vehicles assigned]</text><polygon fill="#181818" points="1335.5,947.6934,1345.5,951.6934,1335.5,955.6934,1339.5,951.6934" style="stroke:#181818;stroke-width:1.0;"/><line style="stroke:#181818;stroke-width:1.0;" x1="284.5" x2="1341.5" y1="951.6934" y2="951.6934"/><text fill="#000000" font-family="sans-serif" font-size="13" font-weight="bold" lengthAdjust="spacing" textLength="14" x="291.5" y="946.4307">13</text><text fill="#000000" font-family="sans-serif" font-size="13" lengthAdjust="spacing" textLength="196" x="309.5" y="946.4307">toDTOList(getVehiclesAssigned())</text><path d="M1286.5,966.6934 L1359.5,966.6934 L1359.5,975.9844 L1349.5,985.9844 L1286.5,985.9844 L1286.5,966.6934 " fill="#EEEEEE" style="stroke:#000000;stroke-width:1.5;"/><rect fill="none" height="157.2031" style="stroke:#000000;stroke-width:1.5;" width="331" x="1286.5" y="966.6934"/><text fill="#000000" font-family="sans-serif" font-size="13" font-weight="bold" lengthAdjust="spacing" textLength="28" x="1301.5" y="981.7217">loop</text><text fill="#000000" font-family="sans-serif" font-size="11" font-weight="bold" lengthAdjust="spacing" textLength="238" x="1374.5" y="980.5635">[for each vehicle in getVehiclesAssigned()]</text><polygon fill="#181818" points="1471.5,1030.2754,1481.5,1034.2754,1471.5,1038.2754,1475.5,1034.2754" style="stroke:#181818;stroke-width:1.0;"/><line style="stroke:#181818;stroke-width:1.0;" x1="1357.5" x2="1477.5" y1="1034.2754" y2="1034.2754"/><text fill="#000000" font-family="sans-serif" font-size="13" font-weight="bold" lengthAdjust="spacing" textLength="14" x="1364.5" y="1029.0127">14</text><text fill="#000000" font-family="sans-serif" font-size="13" lengthAdjust="spacing" textLength="84" x="1382.5" y="1029.0127">toDTO(vehicle)</text><rect fill="#E3E3E3" height="32.6211" rx="2.5" ry="2.5" style="stroke:#181818;stroke-width:0.5;" width="94" x="1483.5" y="1010.9844"/><text fill="#000000" font-family="sans-serif" font-size="14" lengthAdjust="spacing" textLength="80" x="1490.5" y="1033.0918">:VehicleDTO</text><line style="stroke:#181818;stroke-width:1.0;stroke-dasharray:2.0,2.0;" x1="1357.5" x2="1399.5" y1="1102.8965" y2="1102.8965"/><line style="stroke:#181818;stroke-width:1.0;stroke-dasharray:2.0,2.0;" x1="1399.5" x2="1399.5" y1="1102.8965" y2="1115.8965"/><line style="stroke:#181818;stroke-width:1.0;stroke-dasharray:2.0,2.0;" x1="1358.5" x2="1399.5" y1="1115.8965" y2="1115.8965"/><polygon fill="#181818" points="1368.5,1111.8965,1358.5,1115.8965,1368.5,1119.8965,1364.5,1115.8965" style="stroke:#181818;stroke-width:1.0;"/><text fill="#000000" font-family="sans-serif" font-size="13" font-weight="bold" lengthAdjust="spacing" textLength="14" x="1364.5" y="1097.6338">15</text><text fill="#000000" font-family="sans-serif" font-size="13" lengthAdjust="spacing" textLength="94" x="1382.5" y="1097.6338">add(vehicleDTO)</text><polygon fill="#181818" points="295.5,1150.1875,285.5,1154.1875,295.5,1158.1875,291.5,1154.1875" style="stroke:#181818;stroke-width:1.0;"/><line style="stroke:#181818;stroke-width:1.0;stroke-dasharray:2.0,2.0;" x1="289.5" x2="1351.5" y1="1154.1875" y2="1154.1875"/><text fill="#000000" font-family="sans-serif" font-size="13" font-weight="bold" lengthAdjust="spacing" textLength="14" x="301.5" y="1148.9248">16</text><text fill="#000000" font-family="sans-serif" font-size="13" lengthAdjust="spacing" textLength="86" x="319.5" y="1148.9248">vehicleDTOList</text><line style="stroke:#000000;stroke-width:1.0;stroke-dasharray:2.0,2.0;" x1="205" x2="1627.5" y1="1163.1875" y2="1163.1875"/><text fill="#000000" font-family="sans-serif" font-size="11" font-weight="bold" lengthAdjust="spacing" textLength="209" x="210" y="1175.0576">[task doesn't have vehicles assigned]</text><line style="stroke:#181818;stroke-width:1.0;" x1="284.5" x2="326.5" y1="1202.1094" y2="1202.1094"/><line style="stroke:#181818;stroke-width:1.0;" x1="326.5" x2="326.5" y1="1202.1094" y2="1215.1094"/><line style="stroke:#181818;stroke-width:1.0;" x1="285.5" x2="326.5" y1="1215.1094" y2="1215.1094"/><polygon fill="#181818" points="295.5,1211.1094,285.5,1215.1094,295.5,1219.1094,291.5,1215.1094" style="stroke:#181818;stroke-width:1.0;"/><text fill="#000000" font-family="sans-serif" font-size="13" font-weight="bold" lengthAdjust="spacing" textLength="14" x="291.5" y="1196.8467">17</text><text fill="#000000" font-family="sans-serif" font-size="13" lengthAdjust="spacing" textLength="122" x="309.5" y="1196.8467">vehicleDTOList = null</text><polygon fill="#181818" points="1628,1299.4004,1638,1303.4004,1628,1307.4004,1632,1303.4004" style="stroke:#181818;stroke-width:1.0;"/><line style="stroke:#181818;stroke-width:1.0;" x1="284.5" x2="1634" y1="1303.4004" y2="1303.4004"/><text fill="#000000" font-family="sans-serif" font-size="13" font-weight="bold" lengthAdjust="spacing" textLength="14" x="291.5" y="1298.1377">18</text><text fill="#000000" font-family="sans-serif" font-size="13" lengthAdjust="spacing" textLength="268" x="309.5" y="1298.1377">toDTO(agendaTask, teamDTO,vehicleDTOList)</text><polygon fill="#181818" points="2081,1365.2734,2091,1369.2734,2081,1373.2734,2085,1369.2734" style="stroke:#181818;stroke-width:1.0;"/><line style="stroke:#181818;stroke-width:1.0;" x1="1650" x2="2087" y1="1369.2734" y2="1369.2734"/><text fill="#000000" font-family="sans-serif" font-size="13" font-weight="bold" lengthAdjust="spacing" textLength="14" x="1657" y="1346.7197">19</text><text fill="#000000" font-family="sans-serif" font-size="13" lengthAdjust="spacing" textLength="397" x="1675" y="1329.4287">new AgendaTaskDTO(title, description, taskType, greenSpaceName,</text><text fill="#000000" font-family="sans-serif" font-size="13" lengthAdjust="spacing" textLength="383" x="1675" y="1346.7197">urgency, status, expectedDuration, workStartDate, workStartHour,</text><text fill="#000000" font-family="sans-serif" font-size="13" lengthAdjust="spacing" textLength="237" x="1679" y="1364.0107">workStartMin, teamDTO, vehicleDTOList)</text><rect fill="#E3E3E3" height="32.6211" rx="2.5" ry="2.5" style="stroke:#181818;stroke-width:0.5;" width="128" x="2093" y="1333.6523"/><text fill="#000000" font-family="sans-serif" font-size="14" lengthAdjust="spacing" textLength="114" x="2100" y="1355.7598">:AgendaTaskDTO</text><polygon fill="#181818" points="295.5,1396.5645,285.5,1400.5645,295.5,1404.5645,291.5,1400.5645" style="stroke:#181818;stroke-width:1.0;"/><line style="stroke:#181818;stroke-width:1.0;stroke-dasharray:2.0,2.0;" x1="289.5" x2="1644" y1="1400.5645" y2="1400.5645"/><text fill="#000000" font-family="sans-serif" font-size="13" font-weight="bold" lengthAdjust="spacing" textLength="14" x="301.5" y="1395.3018">20</text><text fill="#000000" font-family="sans-serif" font-size="13" lengthAdjust="spacing" textLength="96" x="319.5" y="1395.3018">agendaTaskDTO</text><line style="stroke:#181818;stroke-width:1.0;" x1="284.5" x2="326.5" y1="1456.8555" y2="1456.8555"/><line style="stroke:#181818;stroke-width:1.0;" x1="326.5" x2="326.5" y1="1456.8555" y2="1469.8555"/><line style="stroke:#181818;stroke-width:1.0;" x1="285.5" x2="326.5" y1="1469.8555" y2="1469.8555"/><polygon fill="#181818" points="295.5,1465.8555,285.5,1469.8555,295.5,1473.8555,291.5,1469.8555" style="stroke:#181818;stroke-width:1.0;"/><text fill="#000000" font-family="sans-serif" font-size="13" font-weight="bold" lengthAdjust="spacing" textLength="14" x="291.5" y="1451.5928">21</text><text fill="#000000" font-family="sans-serif" font-size="13" lengthAdjust="spacing" textLength="295" x="309.5" y="1451.5928">managerSpecificAgendaDTO.add(agendaTaskDTO)</text><polygon fill="#181818" points="55.5,1529.1465,45.5,1533.1465,55.5,1537.1465,51.5,1533.1465" style="stroke:#181818;stroke-width:1.0;"/><line style="stroke:#181818;stroke-width:1.0;stroke-dasharray:2.0,2.0;" x1="49.5" x2="278.5" y1="1533.1465" y2="1533.1465"/><text fill="#000000" font-family="sans-serif" font-size="13" font-weight="bold" lengthAdjust="spacing" textLength="14" x="61.5" y="1527.8838">22</text><text fill="#000000" font-family="sans-serif" font-size="13" lengthAdjust="spacing" textLength="166" x="79.5" y="1527.8838">managerSpecificAgendaDTO</text><!--SRC=[fLVRRXen47ttLrXvAKJRVa2aLaAXQYD1AXNIbwQAdDq1B1PxPNj98-NZEsPljl4ktTPFs3jppjmy7lIUYu8fTg07AMIwK_80rAWIY6w_52pTiosip6iEL45gcDZche3UiKo-SB6b6vPh8CHmWwAh-TE12THKgm9Ilk7fR0iYO_FrDq9OQQGe3y-W244KmrDUC67erKqbz71tHPcc3tVHhxTI62Np7DH9QlRby_ryzdIx_hu8qMvHYZrBnOnKIrOKjSRvyO0U6docP9tmDTR03Wv3jut8DOZrxz3e7x3ZQGuEcdSIbsumksqyiWwgUn2LNJEzRt2z4qnWQlYH6R0f8WztzFqdDmtqXcx1U2hBgXOMN9l9j5FtSaTnATXGUGJbVR4Vi9xais5Sr4WTkiMibF740bIRjxStKlsoAvUoe1kfAB1qHmsgKIueyq6eirntOjxPvCsqvbi1sMHAVrh8NyI3OBcfc7Ri29HHWoeOoqh7appPEePz2VRoQ4ji3Gc8ev0HsFDxWEX6OhfocoThRqqqFODgKnYvJA6i7_pKKR19S6YYNj215V4Wy0kTkRvkt9gut5D2o21u5BqlR2pBF7Hacvx3smgrqI3_GEiNGS2LX_KRhWp6P6ni9NNzBXhgsi21Ad8QPYZZODTCJKu5l3Jxa6uHfOkLamj_5cLJj-Y1Q3gMUsA0Zs5r_JC9Mhmpbzl0nPjVcqC_Kb7cEGagQrmBgLyAFQg97MkbVliljJBlBMkAvVGiH6qQA1d_LHpkERNTjjr4QKOt7j-DpY-_tTIqqmjzvl-u8q6rpUZO6ZJKXqOI-LNKKIn6j9_-lFLScSj5DrZhlfL_TNV238JxaC-PfDhSTxD5qjpRn3V5hxfk9dBdCf_MvMbvwmchxOZUwUGqZISOVvqgNXWkHN8AyVgrmEEj0X0hdF7XdXrm_oXAXUhfQqArOQRK2ONVEByRoEObzjQJ-ejK-vN1WN6EvZhRhx9KoQFe3fPSTBxJqFa1ryvooBpniwUm-WDtANyULz_VbW_sLdc6T0biAwXjVnu5Sk2Gt0zDGa_SiTWvnsdx3m00]--></g></svg>