<?xml version="1.0" encoding="us-ascii" standalone="no"?><svg xmlns="http://www.w3.org/2000/svg" xmlns:xlink="http://www.w3.org/1999/xlink" contentStyleType="text/css" height="680px" preserveAspectRatio="none" style="width:965px;height:680px;background:#FFFFFF;" version="1.1" viewBox="0 0 965 680" width="965px" zoomAndPan="magnify"><defs/><g><text fill="#000000" font-family="sans-serif" font-size="14" font-weight="bold" lengthAdjust="spacing" textLength="243" x="360" y="30.1074">SD_obtainManagerAgendaTaskList</text><rect fill="#FFFFFF" height="499.3652" style="stroke:#181818;stroke-width:1.0;" width="10" x="64.5" y="106.8633"/><rect fill="#FFFFFF" height="31.291" style="stroke:#181818;stroke-width:1.0;" width="10" x="207.5" y="130.1543"/><rect fill="#FFFFFF" height="31.291" style="stroke:#181818;stroke-width:1.0;" width="10" x="354.5" y="192.7363"/><rect fill="#FFFFFF" height="31.291" style="stroke:#181818;stroke-width:1.0;" width="10" x="481.5" y="255.3184"/><rect fill="#FFFFFF" height="31.291" style="stroke:#181818;stroke-width:1.0;" width="10" x="567.5" y="317.9004"/><rect fill="#FFFFFF" height="31.291" style="stroke:#181818;stroke-width:1.0;" width="10" x="653.5" y="449.7734"/><rect fill="#FFFFFF" height="31.291" style="stroke:#181818;stroke-width:1.0;" width="10" x="760.5" y="512.3555"/><rect fill="#FFFFFF" height="31.291" style="stroke:#181818;stroke-width:1.0;" width="10" x="886.5" y="574.9375"/><line style="stroke:#181818;stroke-width:0.5;stroke-dasharray:5.0,5.0;" x1="69" x2="69" y1="96.8633" y2="624.2285"/><line style="stroke:#181818;stroke-width:0.5;stroke-dasharray:5.0,5.0;" x1="212" x2="212" y1="96.8633" y2="624.2285"/><line style="stroke:#181818;stroke-width:0.5;stroke-dasharray:5.0,5.0;" x1="359" x2="359" y1="96.8633" y2="624.2285"/><line style="stroke:#181818;stroke-width:0.5;stroke-dasharray:5.0,5.0;" x1="486" x2="486" y1="96.8633" y2="624.2285"/><line style="stroke:#181818;stroke-width:0.5;stroke-dasharray:5.0,5.0;" x1="572" x2="572" y1="96.8633" y2="624.2285"/><line style="stroke:#181818;stroke-width:0.5;stroke-dasharray:5.0,5.0;" x1="658" x2="658" y1="96.8633" y2="624.2285"/><line style="stroke:#181818;stroke-width:0.5;stroke-dasharray:5.0,5.0;" x1="765" x2="765" y1="96.8633" y2="624.2285"/><line style="stroke:#181818;stroke-width:0.5;stroke-dasharray:5.0,5.0;" x1="891" x2="891" y1="96.8633" y2="624.2285"/><rect fill="#E3E3E3" height="32.6211" rx="2.5" ry="2.5" style="stroke:#181818;stroke-width:0.5;" width="129" x="5" y="63.2422"/><text fill="#000000" font-family="sans-serif" font-size="14" lengthAdjust="spacing" textLength="115" x="12" y="85.3496">:AgendaController</text><rect fill="#E3E3E3" height="32.6211" rx="2.5" ry="2.5" style="stroke:#181818;stroke-width:0.5;" width="129" x="5" y="623.2285"/><text fill="#000000" font-family="sans-serif" font-size="14" lengthAdjust="spacing" textLength="115" x="12" y="645.3359">:AgendaController</text><rect fill="#E3E3E3" height="32.6211" rx="2.5" ry="2.5" style="stroke:#181818;stroke-width:0.5;" width="137" x="144" y="63.2422"/><text fill="#000000" font-family="sans-serif" font-size="14" lengthAdjust="spacing" textLength="123" x="151" y="85.3496">:ApplicationSession</text><rect fill="#E3E3E3" height="32.6211" rx="2.5" ry="2.5" style="stroke:#181818;stroke-width:0.5;" width="137" x="144" y="623.2285"/><text fill="#000000" font-family="sans-serif" font-size="14" lengthAdjust="spacing" textLength="123" x="151" y="645.3359">:ApplicationSession</text><rect fill="#E3E3E3" height="51.2422" rx="2.5" ry="2.5" style="stroke:#181818;stroke-width:0.5;" width="137" x="291" y="44.6211"/><text fill="#000000" font-family="sans-serif" font-size="14" lengthAdjust="spacing" textLength="57" x="331" y="66.7285">singleton</text><text fill="#000000" font-family="sans-serif" font-size="14" lengthAdjust="spacing" textLength="123" x="298" y="85.3496">:ApplicationSession</text><rect fill="#E3E3E3" height="51.2422" rx="2.5" ry="2.5" style="stroke:#181818;stroke-width:0.5;" width="137" x="291" y="623.2285"/><text fill="#000000" font-family="sans-serif" font-size="14" lengthAdjust="spacing" textLength="57" x="331" y="645.3359">singleton</text><text fill="#000000" font-family="sans-serif" font-size="14" lengthAdjust="spacing" textLength="123" x="298" y="663.957">:ApplicationSession</text><rect fill="#E3E3E3" height="51.2422" rx="2.5" ry="2.5" style="stroke:#181818;stroke-width:0.5;" width="97" x="438" y="44.6211"/><text fill="#000000" font-family="sans-serif" font-size="14" lengthAdjust="spacing" textLength="78" x="447.5" y="66.7285">userSession</text><text fill="#000000" font-family="sans-serif" font-size="14" lengthAdjust="spacing" textLength="83" x="445" y="85.3496">:UserSession</text><rect fill="#E3E3E3" height="51.2422" rx="2.5" ry="2.5" style="stroke:#181818;stroke-width:0.5;" width="97" x="438" y="623.2285"/><text fill="#000000" font-family="sans-serif" font-size="14" lengthAdjust="spacing" textLength="78" x="447.5" y="645.3359">userSession</text><text fill="#000000" font-family="sans-serif" font-size="14" lengthAdjust="spacing" textLength="83" x="445" y="663.957">:UserSession</text><rect fill="#E3E3E3" height="51.2422" rx="2.5" ry="2.5" style="stroke:#181818;stroke-width:0.5;" width="55" x="545" y="44.6211"/><text fill="#000000" font-family="sans-serif" font-size="14" lengthAdjust="spacing" textLength="41" x="552" y="66.7285">userID</text><text fill="#000000" font-family="sans-serif" font-size="14" lengthAdjust="spacing" textLength="38" x="553.5" y="85.3496">:Email</text><rect fill="#E3E3E3" height="51.2422" rx="2.5" ry="2.5" style="stroke:#181818;stroke-width:0.5;" width="55" x="545" y="623.2285"/><text fill="#000000" font-family="sans-serif" font-size="14" lengthAdjust="spacing" textLength="41" x="552" y="645.3359">userID</text><text fill="#000000" font-family="sans-serif" font-size="14" lengthAdjust="spacing" textLength="38" x="553.5" y="663.957">:Email</text><rect fill="#E3E3E3" height="32.6211" rx="2.5" ry="2.5" style="stroke:#181818;stroke-width:0.5;" width="97" x="610" y="63.2422"/><text fill="#000000" font-family="sans-serif" font-size="14" lengthAdjust="spacing" textLength="83" x="617" y="85.3496">:Repositories</text><rect fill="#E3E3E3" height="32.6211" rx="2.5" ry="2.5" style="stroke:#181818;stroke-width:0.5;" width="97" x="610" y="623.2285"/><text fill="#000000" font-family="sans-serif" font-size="14" lengthAdjust="spacing" textLength="83" x="617" y="645.3359">:Repositories</text><rect fill="#E3E3E3" height="51.2422" rx="2.5" ry="2.5" style="stroke:#181818;stroke-width:0.5;" width="97" x="717" y="44.6211"/><text fill="#000000" font-family="sans-serif" font-size="14" lengthAdjust="spacing" textLength="74" x="728.5" y="66.7285">repositories</text><text fill="#000000" font-family="sans-serif" font-size="14" lengthAdjust="spacing" textLength="83" x="724" y="85.3496">:Repositories</text><rect fill="#E3E3E3" height="51.2422" rx="2.5" ry="2.5" style="stroke:#181818;stroke-width:0.5;" width="97" x="717" y="623.2285"/><text fill="#000000" font-family="sans-serif" font-size="14" lengthAdjust="spacing" textLength="74" x="728.5" y="645.3359">repositories</text><text fill="#000000" font-family="sans-serif" font-size="14" lengthAdjust="spacing" textLength="83" x="724" y="663.957">:Repositories</text><rect fill="#E3E3E3" height="51.2422" rx="2.5" ry="2.5" style="stroke:#181818;stroke-width:0.5;" width="135" x="824" y="44.6211"/><text fill="#000000" font-family="sans-serif" font-size="14" lengthAdjust="spacing" textLength="116" x="833.5" y="66.7285">agendaRepository</text><text fill="#000000" font-family="sans-serif" font-size="14" lengthAdjust="spacing" textLength="121" x="831" y="85.3496">:AgendaRepository</text><rect fill="#E3E3E3" height="51.2422" rx="2.5" ry="2.5" style="stroke:#181818;stroke-width:0.5;" width="135" x="824" y="623.2285"/><text fill="#000000" font-family="sans-serif" font-size="14" lengthAdjust="spacing" textLength="116" x="833.5" y="645.3359">agendaRepository</text><text fill="#000000" font-family="sans-serif" font-size="14" lengthAdjust="spacing" textLength="121" x="831" y="663.957">:AgendaRepository</text><rect fill="#FFFFFF" height="499.3652" style="stroke:#181818;stroke-width:1.0;" width="10" x="64.5" y="106.8633"/><rect fill="#FFFFFF" height="31.291" style="stroke:#181818;stroke-width:1.0;" width="10" x="207.5" y="130.1543"/><rect fill="#FFFFFF" height="31.291" style="stroke:#181818;stroke-width:1.0;" width="10" x="354.5" y="192.7363"/><rect fill="#FFFFFF" height="31.291" style="stroke:#181818;stroke-width:1.0;" width="10" x="481.5" y="255.3184"/><rect fill="#FFFFFF" height="31.291" style="stroke:#181818;stroke-width:1.0;" width="10" x="567.5" y="317.9004"/><rect fill="#FFFFFF" height="31.291" style="stroke:#181818;stroke-width:1.0;" width="10" x="653.5" y="449.7734"/><rect fill="#FFFFFF" height="31.291" style="stroke:#181818;stroke-width:1.0;" width="10" x="760.5" y="512.3555"/><rect fill="#FFFFFF" height="31.291" style="stroke:#181818;stroke-width:1.0;" width="10" x="886.5" y="574.9375"/><polygon fill="#181818" points="195.5,126.1543,205.5,130.1543,195.5,134.1543,199.5,130.1543" style="stroke:#181818;stroke-width:1.0;"/><line style="stroke:#181818;stroke-width:1.0;" x1="74.5" x2="201.5" y1="130.1543" y2="130.1543"/><text fill="#000000" font-family="sans-serif" font-size="13" font-weight="bold" lengthAdjust="spacing" textLength="7" x="81.5" y="124.8916">1</text><text fill="#000000" font-family="sans-serif" font-size="13" lengthAdjust="spacing" textLength="75" x="92.5" y="124.8916">getInstance()</text><polygon fill="#181818" points="85.5,157.4453,75.5,161.4453,85.5,165.4453,81.5,161.4453" style="stroke:#181818;stroke-width:1.0;"/><line style="stroke:#181818;stroke-width:1.0;stroke-dasharray:2.0,2.0;" x1="79.5" x2="211.5" y1="161.4453" y2="161.4453"/><text fill="#000000" font-family="sans-serif" font-size="13" font-weight="bold" lengthAdjust="spacing" textLength="7" x="91.5" y="156.1826">2</text><text fill="#000000" font-family="sans-serif" font-size="13" lengthAdjust="spacing" textLength="52" x="102.5" y="156.1826">singleton</text><polygon fill="#181818" points="342.5,188.7363,352.5,192.7363,342.5,196.7363,346.5,192.7363" style="stroke:#181818;stroke-width:1.0;"/><line style="stroke:#181818;stroke-width:1.0;" x1="74.5" x2="348.5" y1="192.7363" y2="192.7363"/><text fill="#000000" font-family="sans-serif" font-size="13" font-weight="bold" lengthAdjust="spacing" textLength="7" x="81.5" y="187.4736">3</text><text fill="#000000" font-family="sans-serif" font-size="13" lengthAdjust="spacing" textLength="100" x="92.5" y="187.4736">getUserSession()</text><polygon fill="#181818" points="85.5,220.0273,75.5,224.0273,85.5,228.0273,81.5,224.0273" style="stroke:#181818;stroke-width:1.0;"/><line style="stroke:#181818;stroke-width:1.0;stroke-dasharray:2.0,2.0;" x1="79.5" x2="358.5" y1="224.0273" y2="224.0273"/><text fill="#000000" font-family="sans-serif" font-size="13" font-weight="bold" lengthAdjust="spacing" textLength="7" x="91.5" y="218.7646">4</text><text fill="#000000" font-family="sans-serif" font-size="13" lengthAdjust="spacing" textLength="72" x="102.5" y="218.7646">userSession</text><polygon fill="#181818" points="469.5,251.3184,479.5,255.3184,469.5,259.3184,473.5,255.3184" style="stroke:#181818;stroke-width:1.0;"/><line style="stroke:#181818;stroke-width:1.0;" x1="74.5" x2="475.5" y1="255.3184" y2="255.3184"/><text fill="#000000" font-family="sans-serif" font-size="13" font-weight="bold" lengthAdjust="spacing" textLength="7" x="81.5" y="250.0557">5</text><text fill="#000000" font-family="sans-serif" font-size="13" lengthAdjust="spacing" textLength="63" x="92.5" y="250.0557">getUserId()</text><polygon fill="#181818" points="85.5,282.6094,75.5,286.6094,85.5,290.6094,81.5,286.6094" style="stroke:#181818;stroke-width:1.0;"/><line style="stroke:#181818;stroke-width:1.0;stroke-dasharray:2.0,2.0;" x1="79.5" x2="485.5" y1="286.6094" y2="286.6094"/><text fill="#000000" font-family="sans-serif" font-size="13" font-weight="bold" lengthAdjust="spacing" textLength="7" x="91.5" y="281.3467">6</text><text fill="#000000" font-family="sans-serif" font-size="13" lengthAdjust="spacing" textLength="35" x="102.5" y="281.3467">userId</text><polygon fill="#181818" points="555.5,313.9004,565.5,317.9004,555.5,321.9004,559.5,317.9004" style="stroke:#181818;stroke-width:1.0;"/><line style="stroke:#181818;stroke-width:1.0;" x1="74.5" x2="561.5" y1="317.9004" y2="317.9004"/><text fill="#000000" font-family="sans-serif" font-size="13" font-weight="bold" lengthAdjust="spacing" textLength="7" x="81.5" y="312.6377">7</text><text fill="#000000" font-family="sans-serif" font-size="13" lengthAdjust="spacing" textLength="59" x="92.5" y="312.6377">getEmail()</text><polygon fill="#181818" points="85.5,345.1914,75.5,349.1914,85.5,353.1914,81.5,349.1914" style="stroke:#181818;stroke-width:1.0;"/><line style="stroke:#181818;stroke-width:1.0;stroke-dasharray:2.0,2.0;" x1="79.5" x2="571.5" y1="349.1914" y2="349.1914"/><text fill="#000000" font-family="sans-serif" font-size="13" font-weight="bold" lengthAdjust="spacing" textLength="7" x="91.5" y="343.9287">8</text><text fill="#000000" font-family="sans-serif" font-size="13" lengthAdjust="spacing" textLength="31" x="102.5" y="343.9287">email</text><line style="stroke:#181818;stroke-width:1.0;" x1="74.5" x2="116.5" y1="380.4824" y2="380.4824"/><line style="stroke:#181818;stroke-width:1.0;" x1="116.5" x2="116.5" y1="380.4824" y2="393.4824"/><line style="stroke:#181818;stroke-width:1.0;" x1="75.5" x2="116.5" y1="393.4824" y2="393.4824"/><polygon fill="#181818" points="85.5,389.4824,75.5,393.4824,85.5,397.4824,81.5,393.4824" style="stroke:#181818;stroke-width:1.0;"/><text fill="#000000" font-family="sans-serif" font-size="13" font-weight="bold" lengthAdjust="spacing" textLength="7" x="81.5" y="375.2197">9</text><text fill="#000000" font-family="sans-serif" font-size="13" lengthAdjust="spacing" textLength="83" x="92.5" y="375.2197">managerEmail</text><polygon fill="#181818" points="641.5,445.7734,651.5,449.7734,641.5,453.7734,645.5,449.7734" style="stroke:#181818;stroke-width:1.0;"/><line style="stroke:#181818;stroke-width:1.0;" x1="74.5" x2="647.5" y1="449.7734" y2="449.7734"/><text fill="#000000" font-family="sans-serif" font-size="13" font-weight="bold" lengthAdjust="spacing" textLength="14" x="81.5" y="444.5107">10</text><text fill="#000000" font-family="sans-serif" font-size="13" lengthAdjust="spacing" textLength="75" x="99.5" y="444.5107">getInstance()</text><polygon fill="#181818" points="85.5,477.0645,75.5,481.0645,85.5,485.0645,81.5,481.0645" style="stroke:#181818;stroke-width:1.0;"/><line style="stroke:#181818;stroke-width:1.0;stroke-dasharray:2.0,2.0;" x1="79.5" x2="657.5" y1="481.0645" y2="481.0645"/><text fill="#000000" font-family="sans-serif" font-size="13" font-weight="bold" lengthAdjust="spacing" textLength="14" x="91.5" y="475.8018">11</text><text fill="#000000" font-family="sans-serif" font-size="13" lengthAdjust="spacing" textLength="67" x="109.5" y="475.8018">repositories</text><polygon fill="#181818" points="748.5,508.3555,758.5,512.3555,748.5,516.3555,752.5,512.3555" style="stroke:#181818;stroke-width:1.0;"/><line style="stroke:#181818;stroke-width:1.0;" x1="74.5" x2="754.5" y1="512.3555" y2="512.3555"/><text fill="#000000" font-family="sans-serif" font-size="13" font-weight="bold" lengthAdjust="spacing" textLength="14" x="81.5" y="507.0928">12</text><text fill="#000000" font-family="sans-serif" font-size="13" lengthAdjust="spacing" textLength="132" x="99.5" y="507.0928">getAgendaRepository()</text><polygon fill="#181818" points="85.5,539.6465,75.5,543.6465,85.5,547.6465,81.5,543.6465" style="stroke:#181818;stroke-width:1.0;"/><line style="stroke:#181818;stroke-width:1.0;stroke-dasharray:2.0,2.0;" x1="79.5" x2="764.5" y1="543.6465" y2="543.6465"/><text fill="#000000" font-family="sans-serif" font-size="13" font-weight="bold" lengthAdjust="spacing" textLength="14" x="91.5" y="538.3838">13</text><text fill="#000000" font-family="sans-serif" font-size="13" lengthAdjust="spacing" textLength="104" x="109.5" y="538.3838">agendaRepository</text><polygon fill="#181818" points="874.5,570.9375,884.5,574.9375,874.5,578.9375,878.5,574.9375" style="stroke:#181818;stroke-width:1.0;"/><line style="stroke:#181818;stroke-width:1.0;" x1="74.5" x2="880.5" y1="574.9375" y2="574.9375"/><text fill="#000000" font-family="sans-serif" font-size="13" font-weight="bold" lengthAdjust="spacing" textLength="14" x="81.5" y="569.6748">14</text><text fill="#000000" font-family="sans-serif" font-size="13" lengthAdjust="spacing" textLength="249" x="99.5" y="569.6748">getManagerSpecificAgenda(managerEmail)</text><polygon fill="#181818" points="80.5,602.2285,70.5,606.2285,80.5,610.2285,76.5,606.2285" style="stroke:#181818;stroke-width:1.0;"/><line style="stroke:#181818;stroke-width:1.0;stroke-dasharray:2.0,2.0;" x1="74.5" x2="890.5" y1="606.2285" y2="606.2285"/><text fill="#000000" font-family="sans-serif" font-size="13" font-weight="bold" lengthAdjust="spacing" textLength="14" x="86.5" y="600.9658">15</text><text fill="#000000" font-family="sans-serif" font-size="13" lengthAdjust="spacing" textLength="91" x="104.5" y="600.9658">agendaTaskList</text><!--SRC=[VPJFRi8m3CRlVOfef-t02t2OX0QQaFO7qUqsQV9IKoBQf4h2faay_D84qjJfu4ARVf_zYnt778JiG4FBMYKLtslL8hFwY8M9NphW1wYnjByDCetSWgoRL63sKAaV8MksWyPWKLXXdRHSVgel2q8-WtH-lQXHLl06vl0aZ2qAE5ebZ-qNwg9mWQpWeWDfsSqyA1-Kj5er3UeR1eOj7bSloyNdmzlsATDtNICuMA5aYSQul-3ORCP28tfob_L3Nl6K5zNOV3IepqfdVn_Ul2zvpsthfNEiMX2Dr_edkeSjTie8gxH0urNRrUPrhD69n0MSTAobSVtXE7Q2BsWq_FRx9qjXzsJHDObRyGqMn-LdxfSiiDbzNpWsPpNQ2y7jdPSD0Lmt_8etE_MiToL1vYpsn-igpBrvqjYja3tfmmJ0qDgKP0YH8oLTdu0YyGXTmZB0hIlAbHwTY9LwfwdM5GNA0X4UV-u2YN-a8ETpUK48yZmvUXd9dNXfZqRcDjm5gnZZT3fDslh3VFr0-G69j5wVmwOpGvc701EvBra30nsCAPOuUYEc62TderCvnJSEIajB0WJMytLRTiZ5Jl0WkaqBJmSZc_eu73J1VviORdKw95diz6Dof_m1]--></g></svg>