<?xml version="1.0" encoding="us-ascii" standalone="no"?><svg xmlns="http://www.w3.org/2000/svg" xmlns:xlink="http://www.w3.org/1999/xlink" contentStyleType="text/css" height="802px" preserveAspectRatio="none" style="width:796px;height:802px;background:#FFFFFF;" version="1.1" viewBox="0 0 796 802" width="796px" zoomAndPan="magnify"><defs/><g><text fill="#000000" font-family="sans-serif" font-size="5.6" font-weight="bold" lengthAdjust="spacing" textLength="62" x="364.2" y="10.043">US025 - Class Diagram</text><!--cluster GUI--><g id="cluster_GUI"><path d="M428.6,18.2539 L439,18.2539 A1.5,1.5 0 0 1 440,19.2539 L442.8,28.1023 L537.8,28.1023 A1,1 0 0 1 538.8,29.1023 L538.8,102.4539 A1,1 0 0 1 537.8,103.4539 L428.6,103.4539 A1,1 0 0 1 427.6,102.4539 L427.6,19.2539 A1,1 0 0 1 428.6,18.2539 " fill="#DDDDDD" style="stroke:#000000;stroke-width:0.6000000000000001;"/><line style="stroke:#000000;stroke-width:0.6000000000000001;" x1="427.6" x2="442.8" y1="28.1023" y2="28.1023"/><text fill="#000000" font-family="sans-serif" font-size="5.6" font-weight="bold" lengthAdjust="spacing" textLength="10" x="429.2" y="25.0969">GUI</text></g><!--cluster Controller--><g id="cluster_Controller"><path d="M373.8,116.6539 L402.6,116.6539 A1.5,1.5 0 0 1 403.6,117.6539 L406.4,126.5023 L597.8,126.5023 A1,1 0 0 1 598.8,127.5023 L598.8,193.2539 A1,1 0 0 1 597.8,194.2539 L373.8,194.2539 A1,1 0 0 1 372.8,193.2539 L372.8,117.6539 A1,1 0 0 1 373.8,116.6539 " fill="#DDDDDD" style="stroke:#000000;stroke-width:0.6000000000000001;"/><line style="stroke:#000000;stroke-width:0.6000000000000001;" x1="372.8" x2="406.4" y1="126.5023" y2="126.5023"/><text fill="#000000" font-family="sans-serif" font-size="5.6" font-weight="bold" lengthAdjust="spacing" textLength="28.4" x="374.4" y="123.4969">Controller</text></g><!--cluster Repository--><g id="cluster_Repository"><path d="M202.6,232.2539 L233.4,232.2539 A1.5,1.5 0 0 1 234.4,233.2539 L237.2,242.1023 L792.2,242.1023 A1,1 0 0 1 793.2,243.1023 L793.2,434.8539 A1,1 0 0 1 792.2,435.8539 L202.6,435.8539 A1,1 0 0 1 201.6,434.8539 L201.6,233.2539 A1,1 0 0 1 202.6,232.2539 " fill="#DDDDDD" style="stroke:#000000;stroke-width:0.6000000000000001;"/><line style="stroke:#000000;stroke-width:0.6000000000000001;" x1="201.6" x2="237.2" y1="242.1023" y2="242.1023"/><text fill="#000000" font-family="sans-serif" font-size="5.6" font-weight="bold" lengthAdjust="spacing" textLength="30.4" x="203.2" y="239.0969">Repository</text></g><!--cluster Domain--><g id="cluster_Domain"><path d="M309,482.2539 L330.2,482.2539 A1.5,1.5 0 0 1 331.2,483.2539 L334,492.1023 L692.6,492.1023 A1,1 0 0 1 693.6,493.1023 L693.6,798.4539 A1,1 0 0 1 692.6,799.4539 L309,799.4539 A1,1 0 0 1 308,798.4539 L308,483.2539 A1,1 0 0 1 309,482.2539 " fill="#DDDDDD" style="stroke:#000000;stroke-width:0.6000000000000001;"/><line style="stroke:#000000;stroke-width:0.6000000000000001;" x1="308" x2="334" y1="492.1023" y2="492.1023"/><text fill="#000000" font-family="sans-serif" font-size="5.6" font-weight="bold" lengthAdjust="spacing" textLength="20.8" x="309.6" y="489.0969">Domain</text></g><!--cluster Mapper--><g id="cluster_Mapper"><path d="M3.4,380.6539 L25.4,380.6539 A1.5,1.5 0 0 1 26.4,381.6539 L29.2,390.5023 L191,390.5023 A1,1 0 0 1 192,391.5023 L192,434.8539 A1,1 0 0 1 191,435.8539 L3.4,435.8539 A1,1 0 0 1 2.4,434.8539 L2.4,381.6539 A1,1 0 0 1 3.4,380.6539 " fill="#DDDDDD" style="stroke:#000000;stroke-width:0.6000000000000001;"/><line style="stroke:#000000;stroke-width:0.6000000000000001;" x1="2.4" x2="29.2" y1="390.5023" y2="390.5023"/><text fill="#000000" font-family="sans-serif" font-size="5.6" font-weight="bold" lengthAdjust="spacing" textLength="21.6" x="4" y="387.4969">Mapper</text></g><!--cluster DTO--><g id="cluster_DTO"><path d="M7.8,456.2539 L19.8,456.2539 A1.5,1.5 0 0 1 20.8,457.2539 L23.6,466.1023 L227,466.1023 A1,1 0 0 1 228,467.1023 L228,790.8539 A1,1 0 0 1 227,791.8539 L7.8,791.8539 A1,1 0 0 1 6.8,790.8539 L6.8,457.2539 A1,1 0 0 1 7.8,456.2539 " fill="#DDDDDD" style="stroke:#000000;stroke-width:0.6000000000000001;"/><line style="stroke:#000000;stroke-width:0.6000000000000001;" x1="6.8" x2="23.6" y1="466.1023" y2="466.1023"/><text fill="#000000" font-family="sans-serif" font-size="5.6" font-weight="bold" lengthAdjust="spacing" textLength="11.6" x="8.4" y="463.0969">DTO</text></g><!--class AgendaUI--><g id="elem_AgendaUI"><rect codeLine="12" fill="#F1F1F1" height="63.8906" id="AgendaUI" rx="1" ry="1" style="stroke:#181818;stroke-width:0.20000000000000004;" width="98.4" x="434" y="33.0539"/><ellipse cx="469.3" cy="39.4539" fill="#ADD1B2" rx="4.4" ry="4.4" style="stroke:#181818;stroke-width:0.4000000000000001;"/><path d="M470.4063,37.8039 Q470.4688,37.7164 470.5438,37.6727 Q470.6188,37.6289 470.7063,37.6289 Q470.8563,37.6289 470.95,37.7352 Q471.0438,37.8352 471.0438,38.0789 L471.0438,38.6602 Q471.0438,38.9039 470.95,39.0102 Q470.8563,39.1164 470.7063,39.1164 Q470.5688,39.1164 470.4875,39.0352 Q470.4063,38.9602 470.3625,38.7539 Q470.3438,38.6102 470.2688,38.5352 Q470.1375,38.3852 469.8938,38.2977 Q469.65,38.2102 469.4,38.2102 Q469.0938,38.2102 468.8375,38.3414 Q468.5875,38.4727 468.3875,38.7727 Q468.1938,39.0727 468.1938,39.4852 L468.1938,39.9227 Q468.1938,40.4164 468.55,40.7477 Q468.9063,41.0727 469.5438,41.0727 Q469.9188,41.0727 470.1813,40.9727 Q470.3375,40.9102 470.5063,40.7352 Q470.6125,40.6289 470.6688,40.5977 Q470.7313,40.5664 470.8125,40.5664 Q470.9438,40.5664 471.0438,40.6727 Q471.15,40.7727 471.15,40.9102 Q471.15,41.0477 471.0125,41.2102 Q470.8125,41.4414 470.4938,41.5727 Q470.0625,41.7539 469.5438,41.7539 Q468.9375,41.7539 468.4563,41.5039 Q468.0625,41.3039 467.7875,40.8789 Q467.5125,40.4477 467.5125,39.9352 L467.5125,39.4727 Q467.5125,38.9414 467.7563,38.4852 Q468.0063,38.0227 468.4438,37.7789 Q468.8813,37.5289 469.375,37.5289 Q469.6688,37.5289 469.925,37.5977 Q470.1875,37.6602 470.4063,37.8039 Z " fill="#000000"/><text fill="#000000" font-family="sans-serif" font-size="5.6" lengthAdjust="spacing" textLength="24.4" x="477.5" y="41.7727">AgendaUI</text><line style="stroke:#181818;stroke-width:0.20000000000000004;" x1="434.4" x2="532" y1="45.8539" y2="45.8539"/><text fill="#000000" font-family="sans-serif" font-size="5.6" lengthAdjust="spacing" textLength="81.2" x="436.4" y="53.4969">-AgendaTaskDTO selectedTask</text><line style="stroke:#181818;stroke-width:0.20000000000000004;" x1="434.4" x2="532" y1="56.5023" y2="56.5023"/><text fill="#000000" font-family="sans-serif" font-size="5.6" lengthAdjust="spacing" textLength="74.8" x="436.4" y="64.1453">+initialize(location, resources)</text><text fill="#000000" font-family="sans-serif" font-size="5.6" lengthAdjust="spacing" textLength="38" x="436.4" y="71.5938">-fillTaskTable()</text><text fill="#000000" font-family="sans-serif" font-size="5.6" lengthAdjust="spacing" textLength="45.2" x="436.4" y="79.0422">+btnCancelTask()</text><text fill="#000000" font-family="sans-serif" font-size="5.6" lengthAdjust="spacing" textLength="49.6" x="436.4" y="86.4906">-updateTableView()</text><text fill="#000000" font-family="sans-serif" font-size="5.6" lengthAdjust="spacing" textLength="93.6" x="436.4" y="93.9391">-validateSelectedTask(selectedTask)</text></g><!--class CancelEntryAgendaController--><g id="elem_CancelEntryAgendaController"><rect codeLine="23" fill="#F1F1F1" height="56.4422" id="CancelEntryAgendaController" rx="1" ry="1" style="stroke:#181818;stroke-width:0.20000000000000004;" width="104" x="488.4" y="131.4539"/><ellipse cx="501.6" cy="137.8539" fill="#ADD1B2" rx="4.4" ry="4.4" style="stroke:#181818;stroke-width:0.4000000000000001;"/><path d="M502.7063,136.2039 Q502.7688,136.1164 502.8438,136.0727 Q502.9188,136.0289 503.0063,136.0289 Q503.1563,136.0289 503.25,136.1352 Q503.3438,136.2352 503.3438,136.4789 L503.3438,137.0602 Q503.3438,137.3039 503.25,137.4102 Q503.1563,137.5164 503.0063,137.5164 Q502.8688,137.5164 502.7875,137.4352 Q502.7063,137.3602 502.6625,137.1539 Q502.6438,137.0102 502.5688,136.9352 Q502.4375,136.7852 502.1938,136.6977 Q501.95,136.6102 501.7,136.6102 Q501.3938,136.6102 501.1375,136.7414 Q500.8875,136.8727 500.6875,137.1727 Q500.4938,137.4727 500.4938,137.8852 L500.4938,138.3227 Q500.4938,138.8164 500.85,139.1477 Q501.2063,139.4727 501.8438,139.4727 Q502.2188,139.4727 502.4813,139.3727 Q502.6375,139.3102 502.8063,139.1352 Q502.9125,139.0289 502.9688,138.9977 Q503.0313,138.9664 503.1125,138.9664 Q503.2438,138.9664 503.3438,139.0727 Q503.45,139.1727 503.45,139.3102 Q503.45,139.4477 503.3125,139.6102 Q503.1125,139.8414 502.7938,139.9727 Q502.3625,140.1539 501.8438,140.1539 Q501.2375,140.1539 500.7563,139.9039 Q500.3625,139.7039 500.0875,139.2789 Q499.8125,138.8477 499.8125,138.3352 L499.8125,137.8727 Q499.8125,137.3414 500.0563,136.8852 Q500.3063,136.4227 500.7438,136.1789 Q501.1813,135.9289 501.675,135.9289 Q501.9688,135.9289 502.225,135.9977 Q502.4875,136.0602 502.7063,136.2039 Z " fill="#000000"/><text fill="#000000" font-family="sans-serif" font-size="5.6" lengthAdjust="spacing" textLength="75.2" x="508.8" y="140.1727">CancelEntryAgendaController</text><line style="stroke:#181818;stroke-width:0.20000000000000004;" x1="488.8" x2="592" y1="144.2539" y2="144.2539"/><line style="stroke:#181818;stroke-width:0.20000000000000004;" x1="488.8" x2="592" y1="147.4539" y2="147.4539"/><text fill="#000000" font-family="sans-serif" font-size="5.6" lengthAdjust="spacing" textLength="82.4" x="490.8" y="155.0969">+CancelEntryAgendaController()</text><text fill="#000000" font-family="sans-serif" font-size="5.6" lengthAdjust="spacing" textLength="99.2" x="490.8" y="162.5453">+cancelTaskAgenda(agendaTaskDTO)</text><text fill="#000000" font-family="sans-serif" font-size="5.6" lengthAdjust="spacing" textLength="62" x="490.8" y="169.9938">+getAgendaRepository()</text><text fill="#000000" font-family="sans-serif" font-size="5.6" lengthAdjust="spacing" textLength="56.8" x="490.8" y="177.4422">+getTeamRepository()</text><text fill="#000000" font-family="sans-serif" font-size="5.6" lengthAdjust="spacing" textLength="60.8" x="490.8" y="184.8906">+getVehicleRepository()</text></g><!--class AgendaController--><g id="elem_AgendaController"><rect codeLine="31" fill="#F1F1F1" height="26.6484" id="AgendaController" rx="1" ry="1" style="stroke:#181818;stroke-width:0.20000000000000004;" width="95.2" x="379.2" y="146.2539"/><ellipse cx="402.9" cy="152.6539" fill="#ADD1B2" rx="4.4" ry="4.4" style="stroke:#181818;stroke-width:0.4000000000000001;"/><path d="M404.0063,151.0039 Q404.0688,150.9164 404.1438,150.8727 Q404.2188,150.8289 404.3063,150.8289 Q404.4563,150.8289 404.55,150.9352 Q404.6438,151.0352 404.6438,151.2789 L404.6438,151.8602 Q404.6438,152.1039 404.55,152.2102 Q404.4563,152.3164 404.3063,152.3164 Q404.1688,152.3164 404.0875,152.2352 Q404.0063,152.1602 403.9625,151.9539 Q403.9438,151.8102 403.8688,151.7352 Q403.7375,151.5852 403.4938,151.4977 Q403.25,151.4102 403,151.4102 Q402.6938,151.4102 402.4375,151.5414 Q402.1875,151.6727 401.9875,151.9727 Q401.7938,152.2727 401.7938,152.6852 L401.7938,153.1227 Q401.7938,153.6164 402.15,153.9477 Q402.5063,154.2727 403.1438,154.2727 Q403.5188,154.2727 403.7813,154.1727 Q403.9375,154.1102 404.1063,153.9352 Q404.2125,153.8289 404.2688,153.7977 Q404.3313,153.7664 404.4125,153.7664 Q404.5438,153.7664 404.6438,153.8727 Q404.75,153.9727 404.75,154.1102 Q404.75,154.2477 404.6125,154.4102 Q404.4125,154.6414 404.0938,154.7727 Q403.6625,154.9539 403.1438,154.9539 Q402.5375,154.9539 402.0563,154.7039 Q401.6625,154.5039 401.3875,154.0789 Q401.1125,153.6477 401.1125,153.1352 L401.1125,152.6727 Q401.1125,152.1414 401.3563,151.6852 Q401.6063,151.2227 402.0438,150.9789 Q402.4813,150.7289 402.975,150.7289 Q403.2688,150.7289 403.525,150.7977 Q403.7875,150.8602 404.0063,151.0039 Z " fill="#000000"/><text fill="#000000" font-family="sans-serif" font-size="5.6" lengthAdjust="spacing" textLength="44.4" x="411.1" y="154.9727">AgendaController</text><line style="stroke:#181818;stroke-width:0.20000000000000004;" x1="379.6" x2="474" y1="159.0539" y2="159.0539"/><line style="stroke:#181818;stroke-width:0.20000000000000004;" x1="379.6" x2="474" y1="162.2539" y2="162.2539"/><text fill="#000000" font-family="sans-serif" font-size="5.6" lengthAdjust="spacing" textLength="90.4" x="381.6" y="169.8969">+getAgendaTaskDTOManagerList()</text></g><!--class TeamRepository--><g id="elem_TeamRepository"><rect codeLine="38" fill="#F1F1F1" height="34.0969" id="TeamRepository" rx="1" ry="1" style="stroke:#181818;stroke-width:0.20000000000000004;" width="166.4" x="436" y="395.4539"/><ellipse cx="496.7" cy="401.8539" fill="#ADD1B2" rx="4.4" ry="4.4" style="stroke:#181818;stroke-width:0.4000000000000001;"/><path d="M497.8063,400.2039 Q497.8688,400.1164 497.9438,400.0727 Q498.0188,400.0289 498.1063,400.0289 Q498.2563,400.0289 498.35,400.1352 Q498.4438,400.2352 498.4438,400.4789 L498.4438,401.0602 Q498.4438,401.3039 498.35,401.4102 Q498.2563,401.5164 498.1063,401.5164 Q497.9688,401.5164 497.8875,401.4352 Q497.8063,401.3602 497.7625,401.1539 Q497.7438,401.0102 497.6688,400.9352 Q497.5375,400.7852 497.2938,400.6977 Q497.05,400.6102 496.8,400.6102 Q496.4938,400.6102 496.2375,400.7414 Q495.9875,400.8727 495.7875,401.1727 Q495.5938,401.4727 495.5938,401.8852 L495.5938,402.3227 Q495.5938,402.8164 495.95,403.1477 Q496.3063,403.4727 496.9438,403.4727 Q497.3188,403.4727 497.5813,403.3727 Q497.7375,403.3102 497.9063,403.1352 Q498.0125,403.0289 498.0688,402.9977 Q498.1313,402.9664 498.2125,402.9664 Q498.3438,402.9664 498.4438,403.0727 Q498.55,403.1727 498.55,403.3102 Q498.55,403.4477 498.4125,403.6102 Q498.2125,403.8414 497.8938,403.9727 Q497.4625,404.1539 496.9438,404.1539 Q496.3375,404.1539 495.8563,403.9039 Q495.4625,403.7039 495.1875,403.2789 Q494.9125,402.8477 494.9125,402.3352 L494.9125,401.8727 Q494.9125,401.3414 495.1563,400.8852 Q495.4063,400.4227 495.8438,400.1789 Q496.2813,399.9289 496.775,399.9289 Q497.0688,399.9289 497.325,399.9977 Q497.5875,400.0602 497.8063,400.2039 Z " fill="#000000"/><text fill="#000000" font-family="sans-serif" font-size="5.6" lengthAdjust="spacing" textLength="41.6" x="504.9" y="404.1727">TeamRepository</text><line style="stroke:#181818;stroke-width:0.20000000000000004;" x1="436.4" x2="602" y1="408.2539" y2="408.2539"/><text fill="#000000" font-family="sans-serif" font-size="5.6" lengthAdjust="spacing" textLength="54.4" x="438.4" y="415.8969">-List&lt;Team&gt; teamList</text><line style="stroke:#181818;stroke-width:0.20000000000000004;" x1="436.4" x2="602" y1="418.9023" y2="418.9023"/><text fill="#000000" font-family="sans-serif" font-size="5.6" lengthAdjust="spacing" textLength="161.6" x="438.4" y="426.5453">+removeWorkPeriodFromTeam(canceledTask, taskWorkPeriod)</text></g><!--class VehicleRepository--><g id="elem_VehicleRepository"><rect codeLine="44" fill="#F1F1F1" height="26.6484" id="VehicleRepository" rx="1" ry="1" style="stroke:#181818;stroke-width:0.20000000000000004;" width="170.4" x="616.4" y="399.0539"/><ellipse cx="677.1" cy="405.4539" fill="#ADD1B2" rx="4.4" ry="4.4" style="stroke:#181818;stroke-width:0.4000000000000001;"/><path d="M678.2063,403.8039 Q678.2688,403.7164 678.3438,403.6727 Q678.4188,403.6289 678.5063,403.6289 Q678.6563,403.6289 678.75,403.7352 Q678.8438,403.8352 678.8438,404.0789 L678.8438,404.6602 Q678.8438,404.9039 678.75,405.0102 Q678.6563,405.1164 678.5063,405.1164 Q678.3688,405.1164 678.2875,405.0352 Q678.2063,404.9602 678.1625,404.7539 Q678.1438,404.6102 678.0688,404.5352 Q677.9375,404.3852 677.6938,404.2977 Q677.45,404.2102 677.2,404.2102 Q676.8938,404.2102 676.6375,404.3414 Q676.3875,404.4727 676.1875,404.7727 Q675.9938,405.0727 675.9938,405.4852 L675.9938,405.9227 Q675.9938,406.4164 676.35,406.7477 Q676.7063,407.0727 677.3438,407.0727 Q677.7188,407.0727 677.9813,406.9727 Q678.1375,406.9102 678.3063,406.7352 Q678.4125,406.6289 678.4688,406.5977 Q678.5313,406.5664 678.6125,406.5664 Q678.7438,406.5664 678.8438,406.6727 Q678.95,406.7727 678.95,406.9102 Q678.95,407.0477 678.8125,407.2102 Q678.6125,407.4414 678.2938,407.5727 Q677.8625,407.7539 677.3438,407.7539 Q676.7375,407.7539 676.2563,407.5039 Q675.8625,407.3039 675.5875,406.8789 Q675.3125,406.4477 675.3125,405.9352 L675.3125,405.4727 Q675.3125,404.9414 675.5563,404.4852 Q675.8063,404.0227 676.2438,403.7789 Q676.6813,403.5289 677.175,403.5289 Q677.4688,403.5289 677.725,403.5977 Q677.9875,403.6602 678.2063,403.8039 Z " fill="#000000"/><text fill="#000000" font-family="sans-serif" font-size="5.6" lengthAdjust="spacing" textLength="45.6" x="685.3" y="407.7727">VehicleRepository</text><line style="stroke:#181818;stroke-width:0.20000000000000004;" x1="616.8" x2="786.4" y1="411.8539" y2="411.8539"/><line style="stroke:#181818;stroke-width:0.20000000000000004;" x1="616.8" x2="786.4" y1="415.0539" y2="415.0539"/><text fill="#000000" font-family="sans-serif" font-size="5.6" lengthAdjust="spacing" textLength="165.6" x="618.8" y="422.6969">+removeWorkPeriodFromVehicle(canceledTask, taskWorkPeriod)</text></g><!--class AgendaRepository--><g id="elem_AgendaRepository"><rect codeLine="48" fill="#F1F1F1" height="34.0969" id="AgendaRepository" rx="1" ry="1" style="stroke:#181818;stroke-width:0.20000000000000004;" width="173.2" x="248.6" y="395.4539"/><ellipse cx="310.1" cy="401.8539" fill="#ADD1B2" rx="4.4" ry="4.4" style="stroke:#181818;stroke-width:0.4000000000000001;"/><path d="M311.2063,400.2039 Q311.2688,400.1164 311.3438,400.0727 Q311.4188,400.0289 311.5063,400.0289 Q311.6563,400.0289 311.75,400.1352 Q311.8438,400.2352 311.8438,400.4789 L311.8438,401.0602 Q311.8438,401.3039 311.75,401.4102 Q311.6563,401.5164 311.5063,401.5164 Q311.3688,401.5164 311.2875,401.4352 Q311.2063,401.3602 311.1625,401.1539 Q311.1438,401.0102 311.0688,400.9352 Q310.9375,400.7852 310.6938,400.6977 Q310.45,400.6102 310.2,400.6102 Q309.8938,400.6102 309.6375,400.7414 Q309.3875,400.8727 309.1875,401.1727 Q308.9938,401.4727 308.9938,401.8852 L308.9938,402.3227 Q308.9938,402.8164 309.35,403.1477 Q309.7063,403.4727 310.3438,403.4727 Q310.7188,403.4727 310.9813,403.3727 Q311.1375,403.3102 311.3063,403.1352 Q311.4125,403.0289 311.4688,402.9977 Q311.5313,402.9664 311.6125,402.9664 Q311.7438,402.9664 311.8438,403.0727 Q311.95,403.1727 311.95,403.3102 Q311.95,403.4477 311.8125,403.6102 Q311.6125,403.8414 311.2938,403.9727 Q310.8625,404.1539 310.3438,404.1539 Q309.7375,404.1539 309.2563,403.9039 Q308.8625,403.7039 308.5875,403.2789 Q308.3125,402.8477 308.3125,402.3352 L308.3125,401.8727 Q308.3125,401.3414 308.5563,400.8852 Q308.8063,400.4227 309.2438,400.1789 Q309.6813,399.9289 310.175,399.9289 Q310.4688,399.9289 310.725,399.9977 Q310.9875,400.0602 311.2063,400.2039 Z " fill="#000000"/><text fill="#000000" font-family="sans-serif" font-size="5.6" lengthAdjust="spacing" textLength="46.8" x="318.3" y="404.1727">AgendaRepository</text><line style="stroke:#181818;stroke-width:0.20000000000000004;" x1="249" x2="421.4" y1="408.2539" y2="408.2539"/><text fill="#000000" font-family="sans-serif" font-size="5.6" lengthAdjust="spacing" textLength="50.4" x="251" y="415.8969">-List&lt;Task&gt; agenda</text><line style="stroke:#181818;stroke-width:0.20000000000000004;" x1="249" x2="421.4" y1="418.9023" y2="418.9023"/><text fill="#000000" font-family="sans-serif" font-size="5.6" lengthAdjust="spacing" textLength="168.4" x="251" y="426.5453">+updateTaskToCanceled(title, greenSpace, executionDate, status)</text></g><!--class Repositories--><g id="elem_Repositories"><rect codeLine="53" fill="#F1F1F1" height="56.4422" id="Repositories" rx="1" ry="1" style="stroke:#181818;stroke-width:0.20000000000000004;" width="77.6" x="347.2" y="247.0539"/><ellipse cx="368.5" cy="253.4539" fill="#ADD1B2" rx="4.4" ry="4.4" style="stroke:#181818;stroke-width:0.4000000000000001;"/><path d="M369.6063,251.8039 Q369.6688,251.7164 369.7438,251.6727 Q369.8188,251.6289 369.9063,251.6289 Q370.0563,251.6289 370.15,251.7352 Q370.2438,251.8352 370.2438,252.0789 L370.2438,252.6602 Q370.2438,252.9039 370.15,253.0102 Q370.0563,253.1164 369.9063,253.1164 Q369.7688,253.1164 369.6875,253.0352 Q369.6063,252.9602 369.5625,252.7539 Q369.5438,252.6102 369.4688,252.5352 Q369.3375,252.3852 369.0938,252.2977 Q368.85,252.2102 368.6,252.2102 Q368.2938,252.2102 368.0375,252.3414 Q367.7875,252.4727 367.5875,252.7727 Q367.3938,253.0727 367.3938,253.4852 L367.3938,253.9227 Q367.3938,254.4164 367.75,254.7477 Q368.1063,255.0727 368.7438,255.0727 Q369.1188,255.0727 369.3813,254.9727 Q369.5375,254.9102 369.7063,254.7352 Q369.8125,254.6289 369.8688,254.5977 Q369.9313,254.5664 370.0125,254.5664 Q370.1438,254.5664 370.2438,254.6727 Q370.35,254.7727 370.35,254.9102 Q370.35,255.0477 370.2125,255.2102 Q370.0125,255.4414 369.6938,255.5727 Q369.2625,255.7539 368.7438,255.7539 Q368.1375,255.7539 367.6563,255.5039 Q367.2625,255.3039 366.9875,254.8789 Q366.7125,254.4477 366.7125,253.9352 L366.7125,253.4727 Q366.7125,252.9414 366.9563,252.4852 Q367.2063,252.0227 367.6438,251.7789 Q368.0813,251.5289 368.575,251.5289 Q368.8688,251.5289 369.125,251.5977 Q369.3875,251.6602 369.6063,251.8039 Z " fill="#000000"/><text fill="#000000" font-family="sans-serif" font-size="5.6" lengthAdjust="spacing" textLength="31.6" x="376.7" y="255.7727">Repositories</text><line style="stroke:#181818;stroke-width:0.20000000000000004;" x1="347.6" x2="424.4" y1="259.8539" y2="259.8539"/><line style="stroke:#181818;stroke-width:0.20000000000000004;" x1="347.6" x2="424.4" y1="263.0539" y2="263.0539"/><text fill="#000000" font-family="sans-serif" font-size="5.6" lengthAdjust="spacing" textLength="37.6" x="349.6" y="270.6969">-Repositories()</text><text fill="#000000" font-family="sans-serif" font-size="5.6" lengthAdjust="spacing" textLength="72.8" x="349.6" y="278.1453">+getInstance() : Repositories</text><text fill="#000000" font-family="sans-serif" font-size="5.6" lengthAdjust="spacing" textLength="56.8" x="349.6" y="285.5938">+getTeamRepository()</text><text fill="#000000" font-family="sans-serif" font-size="5.6" lengthAdjust="spacing" textLength="62" x="349.6" y="293.0422">+getAgendaRepository()</text><text fill="#000000" font-family="sans-serif" font-size="5.6" lengthAdjust="spacing" textLength="60.8" x="349.6" y="300.4906">+getVehicleRepository()</text></g><!--class ApplicationSession--><g id="elem_ApplicationSession"><rect codeLine="61" fill="#F1F1F1" height="48.9938" id="ApplicationSession" rx="1" ry="1" style="stroke:#181818;stroke-width:0.20000000000000004;" width="93.6" x="208" y="250.8539"/><ellipse cx="229.3" cy="257.2539" fill="#ADD1B2" rx="4.4" ry="4.4" style="stroke:#181818;stroke-width:0.4000000000000001;"/><path d="M230.4063,255.6039 Q230.4688,255.5164 230.5438,255.4727 Q230.6188,255.4289 230.7063,255.4289 Q230.8563,255.4289 230.95,255.5352 Q231.0438,255.6352 231.0438,255.8789 L231.0438,256.4602 Q231.0438,256.7039 230.95,256.8102 Q230.8563,256.9164 230.7063,256.9164 Q230.5688,256.9164 230.4875,256.8352 Q230.4063,256.7602 230.3625,256.5539 Q230.3438,256.4102 230.2688,256.3352 Q230.1375,256.1852 229.8938,256.0977 Q229.65,256.0102 229.4,256.0102 Q229.0938,256.0102 228.8375,256.1414 Q228.5875,256.2727 228.3875,256.5727 Q228.1938,256.8727 228.1938,257.2852 L228.1938,257.7227 Q228.1938,258.2164 228.55,258.5477 Q228.9063,258.8727 229.5438,258.8727 Q229.9188,258.8727 230.1813,258.7727 Q230.3375,258.7102 230.5063,258.5352 Q230.6125,258.4289 230.6688,258.3977 Q230.7313,258.3664 230.8125,258.3664 Q230.9438,258.3664 231.0438,258.4727 Q231.15,258.5727 231.15,258.7102 Q231.15,258.8477 231.0125,259.0102 Q230.8125,259.2414 230.4938,259.3727 Q230.0625,259.5539 229.5438,259.5539 Q228.9375,259.5539 228.4563,259.3039 Q228.0625,259.1039 227.7875,258.6789 Q227.5125,258.2477 227.5125,257.7352 L227.5125,257.2727 Q227.5125,256.7414 227.7563,256.2852 Q228.0063,255.8227 228.4438,255.5789 Q228.8813,255.3289 229.375,255.3289 Q229.6688,255.3289 229.925,255.3977 Q230.1875,255.4602 230.4063,255.6039 Z " fill="#000000"/><text fill="#000000" font-family="sans-serif" font-size="5.6" lengthAdjust="spacing" textLength="47.6" x="237.5" y="259.5727">ApplicationSession</text><line style="stroke:#181818;stroke-width:0.20000000000000004;" x1="208.4" x2="301.2" y1="263.6539" y2="263.6539"/><line style="stroke:#181818;stroke-width:0.20000000000000004;" x1="208.4" x2="301.2" y1="266.8539" y2="266.8539"/><text fill="#000000" font-family="sans-serif" font-size="5.6" lengthAdjust="spacing" textLength="53.6" x="210.4" y="274.4969">-ApplicationSession()</text><text fill="#000000" font-family="sans-serif" font-size="5.6" lengthAdjust="spacing" textLength="88.8" x="210.4" y="281.9453">+getInstance() : ApplicationSession</text><text fill="#000000" font-family="sans-serif" font-size="5.6" lengthAdjust="spacing" textLength="78.4" x="210.4" y="289.3938">+getAuthenticationRepository()</text><text fill="#000000" font-family="sans-serif" font-size="5.6" lengthAdjust="spacing" textLength="54.4" x="210.4" y="296.8422">+getCurrentSession()</text></g><!--class UserSession--><g id="elem_UserSession"><rect codeLine="69" fill="#F1F1F1" height="26.6484" id="UserSession" rx="1" ry="1" style="stroke:#181818;stroke-width:0.20000000000000004;" width="45.2" x="219.8" y="335.0539"/><ellipse cx="226.16" cy="341.4539" fill="#ADD1B2" rx="4.4" ry="4.4" style="stroke:#181818;stroke-width:0.4000000000000001;"/><path d="M227.2663,339.8039 Q227.3288,339.7164 227.4038,339.6727 Q227.4788,339.6289 227.5663,339.6289 Q227.7163,339.6289 227.81,339.7352 Q227.9038,339.8352 227.9038,340.0789 L227.9038,340.6602 Q227.9038,340.9039 227.81,341.0102 Q227.7163,341.1164 227.5663,341.1164 Q227.4288,341.1164 227.3475,341.0352 Q227.2663,340.9602 227.2225,340.7539 Q227.2038,340.6102 227.1288,340.5352 Q226.9975,340.3852 226.7538,340.2977 Q226.51,340.2102 226.26,340.2102 Q225.9538,340.2102 225.6975,340.3414 Q225.4475,340.4727 225.2475,340.7727 Q225.0538,341.0727 225.0538,341.4852 L225.0538,341.9227 Q225.0538,342.4164 225.41,342.7477 Q225.7663,343.0727 226.4038,343.0727 Q226.7788,343.0727 227.0413,342.9727 Q227.1975,342.9102 227.3663,342.7352 Q227.4725,342.6289 227.5288,342.5977 Q227.5913,342.5664 227.6725,342.5664 Q227.8038,342.5664 227.9038,342.6727 Q228.01,342.7727 228.01,342.9102 Q228.01,343.0477 227.8725,343.2102 Q227.6725,343.4414 227.3538,343.5727 Q226.9225,343.7539 226.4038,343.7539 Q225.7975,343.7539 225.3163,343.5039 Q224.9225,343.3039 224.6475,342.8789 Q224.3725,342.4477 224.3725,341.9352 L224.3725,341.4727 Q224.3725,340.9414 224.6163,340.4852 Q224.8663,340.0227 225.3038,339.7789 Q225.7413,339.5289 226.235,339.5289 Q226.5288,339.5289 226.785,339.5977 Q227.0475,339.6602 227.2663,339.8039 Z " fill="#000000"/><text fill="#000000" font-family="sans-serif" font-size="5.6" lengthAdjust="spacing" textLength="31.6" x="231.84" y="343.7727">UserSession</text><line style="stroke:#181818;stroke-width:0.20000000000000004;" x1="220.2" x2="264.6" y1="347.8539" y2="347.8539"/><line style="stroke:#181818;stroke-width:0.20000000000000004;" x1="220.2" x2="264.6" y1="351.0539" y2="351.0539"/><text fill="#000000" font-family="sans-serif" font-size="5.6" lengthAdjust="spacing" textLength="40.4" x="222.2" y="358.6969">+getUserEmail()</text></g><!--class Email--><g id="elem_Email"><rect codeLine="74" fill="#F1F1F1" height="19.2" id="Email" rx="1" ry="1" style="stroke:#181818;stroke-width:0.20000000000000004;" width="26.4" x="208" y="402.8539"/><ellipse cx="214" cy="409.2539" fill="#ADD1B2" rx="4.4" ry="4.4" style="stroke:#181818;stroke-width:0.4000000000000001;"/><path d="M215.1063,407.6039 Q215.1688,407.5164 215.2438,407.4727 Q215.3188,407.4289 215.4063,407.4289 Q215.5563,407.4289 215.65,407.5352 Q215.7438,407.6352 215.7438,407.8789 L215.7438,408.4602 Q215.7438,408.7039 215.65,408.8102 Q215.5563,408.9164 215.4063,408.9164 Q215.2688,408.9164 215.1875,408.8352 Q215.1063,408.7602 215.0625,408.5539 Q215.0438,408.4102 214.9688,408.3352 Q214.8375,408.1852 214.5938,408.0977 Q214.35,408.0102 214.1,408.0102 Q213.7938,408.0102 213.5375,408.1414 Q213.2875,408.2727 213.0875,408.5727 Q212.8938,408.8727 212.8938,409.2852 L212.8938,409.7227 Q212.8938,410.2164 213.25,410.5477 Q213.6063,410.8727 214.2438,410.8727 Q214.6188,410.8727 214.8813,410.7727 Q215.0375,410.7102 215.2063,410.5352 Q215.3125,410.4289 215.3688,410.3977 Q215.4313,410.3664 215.5125,410.3664 Q215.6438,410.3664 215.7438,410.4727 Q215.85,410.5727 215.85,410.7102 Q215.85,410.8477 215.7125,411.0102 Q215.5125,411.2414 215.1938,411.3727 Q214.7625,411.5539 214.2438,411.5539 Q213.6375,411.5539 213.1563,411.3039 Q212.7625,411.1039 212.4875,410.6789 Q212.2125,410.2477 212.2125,409.7352 L212.2125,409.2727 Q212.2125,408.7414 212.4563,408.2852 Q212.7063,407.8227 213.1438,407.5789 Q213.5813,407.3289 214.075,407.3289 Q214.3688,407.3289 214.625,407.3977 Q214.8875,407.4602 215.1063,407.6039 Z " fill="#000000"/><text fill="#000000" font-family="sans-serif" font-size="5.6" lengthAdjust="spacing" textLength="13.6" x="219.6" y="411.5727">Email</text><line style="stroke:#181818;stroke-width:0.20000000000000004;" x1="208.4" x2="234" y1="415.6539" y2="415.6539"/><line style="stroke:#181818;stroke-width:0.20000000000000004;" x1="208.4" x2="234" y1="418.8539" y2="418.8539"/></g><!--class Vehicle--><g id="elem_Vehicle"><rect codeLine="82" fill="#F1F1F1" height="71.3391" id="Vehicle" rx="1" ry="1" style="stroke:#181818;stroke-width:0.20000000000000004;" width="114.8" x="572.2" y="500.8539"/><ellipse cx="618.7" cy="507.2539" fill="#ADD1B2" rx="4.4" ry="4.4" style="stroke:#181818;stroke-width:0.4000000000000001;"/><path d="M619.8063,505.6039 Q619.8688,505.5164 619.9438,505.4727 Q620.0188,505.4289 620.1063,505.4289 Q620.2563,505.4289 620.35,505.5352 Q620.4438,505.6352 620.4438,505.8789 L620.4438,506.4602 Q620.4438,506.7039 620.35,506.8102 Q620.2563,506.9164 620.1063,506.9164 Q619.9688,506.9164 619.8875,506.8352 Q619.8063,506.7602 619.7625,506.5539 Q619.7438,506.4102 619.6688,506.3352 Q619.5375,506.1852 619.2938,506.0977 Q619.05,506.0102 618.8,506.0102 Q618.4938,506.0102 618.2375,506.1414 Q617.9875,506.2727 617.7875,506.5727 Q617.5938,506.8727 617.5938,507.2852 L617.5938,507.7227 Q617.5938,508.2164 617.95,508.5477 Q618.3063,508.8727 618.9438,508.8727 Q619.3188,508.8727 619.5813,508.7727 Q619.7375,508.7102 619.9063,508.5352 Q620.0125,508.4289 620.0688,508.3977 Q620.1313,508.3664 620.2125,508.3664 Q620.3438,508.3664 620.4438,508.4727 Q620.55,508.5727 620.55,508.7102 Q620.55,508.8477 620.4125,509.0102 Q620.2125,509.2414 619.8938,509.3727 Q619.4625,509.5539 618.9438,509.5539 Q618.3375,509.5539 617.8563,509.3039 Q617.4625,509.1039 617.1875,508.6789 Q616.9125,508.2477 616.9125,507.7352 L616.9125,507.2727 Q616.9125,506.7414 617.1563,506.2852 Q617.4063,505.8227 617.8438,505.5789 Q618.2813,505.3289 618.775,505.3289 Q619.0688,505.3289 619.325,505.3977 Q619.5875,505.4602 619.8063,505.6039 Z " fill="#000000"/><text fill="#000000" font-family="sans-serif" font-size="5.6" lengthAdjust="spacing" textLength="18.4" x="626.9" y="509.5727">Vehicle</text><line style="stroke:#181818;stroke-width:0.20000000000000004;" x1="572.6" x2="686.6" y1="513.6539" y2="513.6539"/><text fill="#000000" font-family="sans-serif" font-size="5.6" lengthAdjust="spacing" textLength="36.4" x="574.6" y="521.2969">+String plateId</text><text fill="#000000" font-family="sans-serif" font-size="5.6" lengthAdjust="spacing" textLength="34.4" x="574.6" y="528.7453">+String brand</text><text fill="#000000" font-family="sans-serif" font-size="5.6" lengthAdjust="spacing" textLength="34.8" x="574.6" y="536.1938">+String model</text><text fill="#000000" font-family="sans-serif" font-size="5.6" lengthAdjust="spacing" textLength="46.8" x="574.6" y="543.6422">+VehicleType type</text><text fill="#000000" font-family="sans-serif" font-size="5.6" lengthAdjust="spacing" textLength="32" x="574.6" y="551.0906">+double tare</text><text fill="#000000" font-family="sans-serif" font-size="5.6" lengthAdjust="spacing" textLength="4.8" x="574.6" y="558.5391">...</text><line style="stroke:#181818;stroke-width:0.20000000000000004;" x1="572.6" x2="686.6" y1="561.5445" y2="561.5445"/><text fill="#000000" font-family="sans-serif" font-size="5.6" lengthAdjust="spacing" textLength="110" x="574.6" y="569.1875">+removeWorkPeriodIfExists(oldWorkPeriod)</text></g><!--class Team--><g id="elem_Team"><rect codeLine="93" fill="#F1F1F1" height="41.5453" id="Team" rx="1" ry="1" style="stroke:#181818;stroke-width:0.20000000000000004;" width="105.6" x="452.4" y="515.6539"/><ellipse cx="496.3" cy="522.0539" fill="#ADD1B2" rx="4.4" ry="4.4" style="stroke:#181818;stroke-width:0.4000000000000001;"/><path d="M497.4063,520.4039 Q497.4688,520.3164 497.5438,520.2727 Q497.6188,520.2289 497.7063,520.2289 Q497.8563,520.2289 497.95,520.3352 Q498.0438,520.4352 498.0438,520.6789 L498.0438,521.2602 Q498.0438,521.5039 497.95,521.6102 Q497.8563,521.7164 497.7063,521.7164 Q497.5688,521.7164 497.4875,521.6352 Q497.4063,521.5602 497.3625,521.3539 Q497.3438,521.2102 497.2688,521.1352 Q497.1375,520.9852 496.8938,520.8977 Q496.65,520.8102 496.4,520.8102 Q496.0938,520.8102 495.8375,520.9414 Q495.5875,521.0727 495.3875,521.3727 Q495.1938,521.6727 495.1938,522.0852 L495.1938,522.5227 Q495.1938,523.0164 495.55,523.3477 Q495.9063,523.6727 496.5438,523.6727 Q496.9188,523.6727 497.1813,523.5727 Q497.3375,523.5102 497.5063,523.3352 Q497.6125,523.2289 497.6688,523.1977 Q497.7313,523.1664 497.8125,523.1664 Q497.9438,523.1664 498.0438,523.2727 Q498.15,523.3727 498.15,523.5102 Q498.15,523.6477 498.0125,523.8102 Q497.8125,524.0414 497.4938,524.1727 Q497.0625,524.3539 496.5438,524.3539 Q495.9375,524.3539 495.4563,524.1039 Q495.0625,523.9039 494.7875,523.4789 Q494.5125,523.0477 494.5125,522.5352 L494.5125,522.0727 Q494.5125,521.5414 494.7563,521.0852 Q495.0063,520.6227 495.4438,520.3789 Q495.8813,520.1289 496.375,520.1289 Q496.6688,520.1289 496.925,520.1977 Q497.1875,520.2602 497.4063,520.4039 Z " fill="#000000"/><text fill="#000000" font-family="sans-serif" font-size="5.6" lengthAdjust="spacing" textLength="14.4" x="504.5" y="524.3727">Team</text><line style="stroke:#181818;stroke-width:0.20000000000000004;" x1="452.8" x2="557.6" y1="528.4539" y2="528.4539"/><text fill="#000000" font-family="sans-serif" font-size="5.6" lengthAdjust="spacing" textLength="73.2" x="454.8" y="536.0969">-List&lt;Collaborator&gt; members</text><text fill="#000000" font-family="sans-serif" font-size="5.6" lengthAdjust="spacing" textLength="79.2" x="454.8" y="543.5453">-List&lt;WorkPeriod&gt; workPeriods</text><line style="stroke:#181818;stroke-width:0.20000000000000004;" x1="452.8" x2="557.6" y1="546.5508" y2="546.5508"/><text fill="#000000" font-family="sans-serif" font-size="5.6" lengthAdjust="spacing" textLength="100.8" x="454.8" y="554.1938">+removeWorkPeriodIfExists(workPeriod)</text></g><!--class Task--><g id="elem_Task"><rect codeLine="100" fill="#F1F1F1" height="78.7875" id="Task" rx="1" ry="1" style="stroke:#181818;stroke-width:0.20000000000000004;" width="124" x="314.4" y="497.0539"/><ellipse cx="368.5" cy="503.4539" fill="#ADD1B2" rx="4.4" ry="4.4" style="stroke:#181818;stroke-width:0.4000000000000001;"/><path d="M369.6063,501.8039 Q369.6688,501.7164 369.7438,501.6727 Q369.8188,501.6289 369.9063,501.6289 Q370.0563,501.6289 370.15,501.7352 Q370.2438,501.8352 370.2438,502.0789 L370.2438,502.6602 Q370.2438,502.9039 370.15,503.0102 Q370.0563,503.1164 369.9063,503.1164 Q369.7688,503.1164 369.6875,503.0352 Q369.6063,502.9602 369.5625,502.7539 Q369.5438,502.6102 369.4688,502.5352 Q369.3375,502.3852 369.0938,502.2977 Q368.85,502.2102 368.6,502.2102 Q368.2938,502.2102 368.0375,502.3414 Q367.7875,502.4727 367.5875,502.7727 Q367.3938,503.0727 367.3938,503.4852 L367.3938,503.9227 Q367.3938,504.4164 367.75,504.7477 Q368.1063,505.0727 368.7438,505.0727 Q369.1188,505.0727 369.3813,504.9727 Q369.5375,504.9102 369.7063,504.7352 Q369.8125,504.6289 369.8688,504.5977 Q369.9313,504.5664 370.0125,504.5664 Q370.1438,504.5664 370.2438,504.6727 Q370.35,504.7727 370.35,504.9102 Q370.35,505.0477 370.2125,505.2102 Q370.0125,505.4414 369.6938,505.5727 Q369.2625,505.7539 368.7438,505.7539 Q368.1375,505.7539 367.6563,505.5039 Q367.2625,505.3039 366.9875,504.8789 Q366.7125,504.4477 366.7125,503.9352 L366.7125,503.4727 Q366.7125,502.9414 366.9563,502.4852 Q367.2063,502.0227 367.6438,501.7789 Q368.0813,501.5289 368.575,501.5289 Q368.8688,501.5289 369.125,501.5977 Q369.3875,501.6602 369.6063,501.8039 Z " fill="#000000"/><text fill="#000000" font-family="sans-serif" font-size="5.6" lengthAdjust="spacing" textLength="12.4" x="376.7" y="505.7727">Task</text><line style="stroke:#181818;stroke-width:0.20000000000000004;" x1="314.8" x2="438" y1="509.8539" y2="509.8539"/><text fill="#000000" font-family="sans-serif" font-size="5.6" lengthAdjust="spacing" textLength="28.8" x="316.8" y="517.4969">-String title;</text><text fill="#000000" font-family="sans-serif" font-size="5.6" lengthAdjust="spacing" textLength="47.6" x="316.8" y="524.9453">-String description;</text><text fill="#000000" font-family="sans-serif" font-size="5.6" lengthAdjust="spacing" textLength="53.6" x="316.8" y="532.3938">-TaskType taskType;</text><text fill="#000000" font-family="sans-serif" font-size="5.6" lengthAdjust="spacing" textLength="36.4" x="316.8" y="539.8422">-Status status;</text><text fill="#000000" font-family="sans-serif" font-size="5.6" lengthAdjust="spacing" textLength="4.8" x="316.8" y="547.2906">...</text><line style="stroke:#181818;stroke-width:0.20000000000000004;" x1="314.8" x2="438" y1="550.2961" y2="550.2961"/><text fill="#000000" font-family="sans-serif" font-size="5.6" lengthAdjust="spacing" textLength="119.2" x="316.8" y="557.9391">+Task(title, description, taskType, greenSpace,</text><text fill="#000000" font-family="sans-serif" font-size="5.6" lengthAdjust="spacing" textLength="78" x="316.8" y="565.3875">urgency, days, hours, minutes)</text><text fill="#000000" font-family="sans-serif" font-size="5.6" lengthAdjust="spacing" textLength="8.8" x="316.8" y="572.8359">(...)</text></g><!--class WorkPeriod--><g id="elem_WorkPeriod"><rect codeLine="111" fill="#F1F1F1" height="63.8906" id="WorkPeriod" rx="1" ry="1" style="stroke:#181818;stroke-width:0.20000000000000004;" width="57.2" x="485.8" y="729.0539"/><ellipse cx="498.46" cy="735.4539" fill="#ADD1B2" rx="4.4" ry="4.4" style="stroke:#181818;stroke-width:0.4000000000000001;"/><path d="M499.5663,733.8039 Q499.6288,733.7164 499.7038,733.6727 Q499.7788,733.6289 499.8663,733.6289 Q500.0163,733.6289 500.11,733.7352 Q500.2038,733.8352 500.2038,734.0789 L500.2038,734.6602 Q500.2038,734.9039 500.11,735.0102 Q500.0163,735.1164 499.8663,735.1164 Q499.7288,735.1164 499.6475,735.0352 Q499.5663,734.9602 499.5225,734.7539 Q499.5038,734.6102 499.4288,734.5352 Q499.2975,734.3852 499.0538,734.2977 Q498.81,734.2102 498.56,734.2102 Q498.2538,734.2102 497.9975,734.3414 Q497.7475,734.4727 497.5475,734.7727 Q497.3538,735.0727 497.3538,735.4852 L497.3538,735.9227 Q497.3538,736.4164 497.71,736.7477 Q498.0663,737.0727 498.7038,737.0727 Q499.0788,737.0727 499.3413,736.9727 Q499.4975,736.9102 499.6663,736.7352 Q499.7725,736.6289 499.8288,736.5977 Q499.8913,736.5664 499.9725,736.5664 Q500.1038,736.5664 500.2038,736.6727 Q500.31,736.7727 500.31,736.9102 Q500.31,737.0477 500.1725,737.2102 Q499.9725,737.4414 499.6538,737.5727 Q499.2225,737.7539 498.7038,737.7539 Q498.0975,737.7539 497.6163,737.5039 Q497.2225,737.3039 496.9475,736.8789 Q496.6725,736.4477 496.6725,735.9352 L496.6725,735.4727 Q496.6725,734.9414 496.9163,734.4852 Q497.1663,734.0227 497.6038,733.7789 Q498.0413,733.5289 498.535,733.5289 Q498.8288,733.5289 499.085,733.5977 Q499.3475,733.6602 499.5663,733.8039 Z " fill="#000000"/><text fill="#000000" font-family="sans-serif" font-size="5.6" lengthAdjust="spacing" textLength="29.6" x="505.54" y="737.7727">WorkPeriod</text><line style="stroke:#181818;stroke-width:0.20000000000000004;" x1="486.2" x2="542.6" y1="741.8539" y2="741.8539"/><text fill="#000000" font-family="sans-serif" font-size="5.6" lengthAdjust="spacing" textLength="52.4" x="488.2" y="749.4969">+Date workStartDate</text><text fill="#000000" font-family="sans-serif" font-size="5.6" lengthAdjust="spacing" textLength="46.4" x="488.2" y="756.9453">+int workStartHour</text><text fill="#000000" font-family="sans-serif" font-size="5.6" lengthAdjust="spacing" textLength="43.2" x="488.2" y="764.3938">+int workStartMin</text><text fill="#000000" font-family="sans-serif" font-size="5.6" lengthAdjust="spacing" textLength="50.4" x="488.2" y="771.8422">+Date workEndDate</text><text fill="#000000" font-family="sans-serif" font-size="5.6" lengthAdjust="spacing" textLength="44.4" x="488.2" y="779.2906">+int workEndHour</text><text fill="#000000" font-family="sans-serif" font-size="5.6" lengthAdjust="spacing" textLength="41.2" x="488.2" y="786.7391">+int workEndMin</text><line style="stroke:#181818;stroke-width:0.20000000000000004;" x1="486.2" x2="542.6" y1="789.7445" y2="789.7445"/></g><!--class TaskDuration--><g id="elem_TaskDuration"><rect codeLine="121" fill="#F1F1F1" height="71.3391" id="TaskDuration" rx="1" ry="1" style="stroke:#181818;stroke-width:0.20000000000000004;" width="116.8" x="316" y="633.4539"/><ellipse cx="355.7" cy="639.8539" fill="#ADD1B2" rx="4.4" ry="4.4" style="stroke:#181818;stroke-width:0.4000000000000001;"/><path d="M356.8063,638.2039 Q356.8688,638.1164 356.9438,638.0727 Q357.0188,638.0289 357.1063,638.0289 Q357.2563,638.0289 357.35,638.1352 Q357.4438,638.2352 357.4438,638.4789 L357.4438,639.0602 Q357.4438,639.3039 357.35,639.4102 Q357.2563,639.5164 357.1063,639.5164 Q356.9688,639.5164 356.8875,639.4352 Q356.8063,639.3602 356.7625,639.1539 Q356.7438,639.0102 356.6688,638.9352 Q356.5375,638.7852 356.2938,638.6977 Q356.05,638.6102 355.8,638.6102 Q355.4938,638.6102 355.2375,638.7414 Q354.9875,638.8727 354.7875,639.1727 Q354.5938,639.4727 354.5938,639.8852 L354.5938,640.3227 Q354.5938,640.8164 354.95,641.1477 Q355.3063,641.4727 355.9438,641.4727 Q356.3188,641.4727 356.5813,641.3727 Q356.7375,641.3102 356.9063,641.1352 Q357.0125,641.0289 357.0688,640.9977 Q357.1313,640.9664 357.2125,640.9664 Q357.3438,640.9664 357.4438,641.0727 Q357.55,641.1727 357.55,641.3102 Q357.55,641.4477 357.4125,641.6102 Q357.2125,641.8414 356.8938,641.9727 Q356.4625,642.1539 355.9438,642.1539 Q355.3375,642.1539 354.8563,641.9039 Q354.4625,641.7039 354.1875,641.2789 Q353.9125,640.8477 353.9125,640.3352 L353.9125,639.8727 Q353.9125,639.3414 354.1563,638.8852 Q354.4063,638.4227 354.8438,638.1789 Q355.2813,637.9289 355.775,637.9289 Q356.0688,637.9289 356.325,637.9977 Q356.5875,638.0602 356.8063,638.2039 Z " fill="#000000"/><text fill="#000000" font-family="sans-serif" font-size="5.6" lengthAdjust="spacing" textLength="34" x="363.9" y="642.1727">TaskDuration</text><line style="stroke:#181818;stroke-width:0.20000000000000004;" x1="316.4" x2="432.4" y1="646.2539" y2="646.2539"/><text fill="#000000" font-family="sans-serif" font-size="5.6" lengthAdjust="spacing" textLength="23.2" x="318.4" y="653.8969">-int days;</text><text fill="#000000" font-family="sans-serif" font-size="5.6" lengthAdjust="spacing" textLength="25.6" x="318.4" y="661.3453">-int hours;</text><text fill="#000000" font-family="sans-serif" font-size="5.6" lengthAdjust="spacing" textLength="30.8" x="318.4" y="668.7938">-int minutes;</text><text fill="#000000" font-family="sans-serif" font-size="5.6" lengthAdjust="spacing" textLength="63.2" x="318.4" y="676.2422">-int totalDurationMinutes;</text><line style="stroke:#181818;stroke-width:0.20000000000000004;" x1="316.4" x2="432.4" y1="679.2477" y2="679.2477"/><text fill="#000000" font-family="sans-serif" font-size="5.6" lengthAdjust="spacing" textLength="93.6" x="318.4" y="686.8906">+TaskDuration(days, hours, minutes)</text><text fill="#000000" font-family="sans-serif" font-size="5.6" lengthAdjust="spacing" textLength="101.2" x="318.4" y="694.3391">+setTaskDuration(days, hours, minutes)</text><text fill="#000000" font-family="sans-serif" font-size="5.6" lengthAdjust="spacing" textLength="112" x="318.4" y="701.7875">-validateTaskDuration(days, hours, minutes)</text></g><!--class AgendaMapper--><g id="elem_AgendaMapper"><rect codeLine="138" fill="#F1F1F1" height="34.0969" id="AgendaMapper" rx="1" ry="1" style="stroke:#181818;stroke-width:0.20000000000000004;" width="176.8" x="8.8" y="395.4539"/><ellipse cx="76.1" cy="401.8539" fill="#ADD1B2" rx="4.4" ry="4.4" style="stroke:#181818;stroke-width:0.4000000000000001;"/><path d="M77.2063,400.2039 Q77.2688,400.1164 77.3438,400.0727 Q77.4188,400.0289 77.5063,400.0289 Q77.6563,400.0289 77.75,400.1352 Q77.8438,400.2352 77.8438,400.4789 L77.8438,401.0602 Q77.8438,401.3039 77.75,401.4102 Q77.6563,401.5164 77.5063,401.5164 Q77.3688,401.5164 77.2875,401.4352 Q77.2063,401.3602 77.1625,401.1539 Q77.1438,401.0102 77.0688,400.9352 Q76.9375,400.7852 76.6938,400.6977 Q76.45,400.6102 76.2,400.6102 Q75.8938,400.6102 75.6375,400.7414 Q75.3875,400.8727 75.1875,401.1727 Q74.9938,401.4727 74.9938,401.8852 L74.9938,402.3227 Q74.9938,402.8164 75.35,403.1477 Q75.7063,403.4727 76.3438,403.4727 Q76.7188,403.4727 76.9813,403.3727 Q77.1375,403.3102 77.3063,403.1352 Q77.4125,403.0289 77.4688,402.9977 Q77.5313,402.9664 77.6125,402.9664 Q77.7438,402.9664 77.8438,403.0727 Q77.95,403.1727 77.95,403.3102 Q77.95,403.4477 77.8125,403.6102 Q77.6125,403.8414 77.2938,403.9727 Q76.8625,404.1539 76.3438,404.1539 Q75.7375,404.1539 75.2563,403.9039 Q74.8625,403.7039 74.5875,403.2789 Q74.3125,402.8477 74.3125,402.3352 L74.3125,401.8727 Q74.3125,401.3414 74.5563,400.8852 Q74.8063,400.4227 75.2438,400.1789 Q75.6813,399.9289 76.175,399.9289 Q76.4688,399.9289 76.725,399.9977 Q76.9875,400.0602 77.2063,400.2039 Z " fill="#000000"/><text fill="#000000" font-family="sans-serif" font-size="5.6" lengthAdjust="spacing" textLength="38.8" x="84.3" y="404.1727">AgendaMapper</text><line style="stroke:#181818;stroke-width:0.20000000000000004;" x1="9.2" x2="185.2" y1="408.2539" y2="408.2539"/><line style="stroke:#181818;stroke-width:0.20000000000000004;" x1="9.2" x2="185.2" y1="411.4539" y2="411.4539"/><text fill="#000000" font-family="sans-serif" font-size="5.6" lengthAdjust="spacing" textLength="46" x="11.2" y="419.0969">+AgendaMapper()</text><text fill="#000000" font-family="sans-serif" font-size="5.6" lengthAdjust="spacing" textLength="172" x="11.2" y="426.5453">+toDTO(agendaTask, teamDTO, List&lt;VehicleDTO&gt; vehicleDTOList)</text></g><!--class AgendaTaskDTO--><g id="elem_AgendaTaskDTO"><rect codeLine="148" fill="#F1F1F1" height="130.9266" id="AgendaTaskDTO" rx="1" ry="1" style="stroke:#181818;stroke-width:0.20000000000000004;" width="159.6" x="17.4" y="471.0539"/><ellipse cx="73.5" cy="477.4539" fill="#ADD1B2" rx="4.4" ry="4.4" style="stroke:#181818;stroke-width:0.4000000000000001;"/><path d="M74.6063,475.8039 Q74.6688,475.7164 74.7438,475.6727 Q74.8188,475.6289 74.9063,475.6289 Q75.0563,475.6289 75.15,475.7352 Q75.2438,475.8352 75.2438,476.0789 L75.2438,476.6602 Q75.2438,476.9039 75.15,477.0102 Q75.0563,477.1164 74.9063,477.1164 Q74.7688,477.1164 74.6875,477.0352 Q74.6063,476.9602 74.5625,476.7539 Q74.5438,476.6102 74.4688,476.5352 Q74.3375,476.3852 74.0938,476.2977 Q73.85,476.2102 73.6,476.2102 Q73.2938,476.2102 73.0375,476.3414 Q72.7875,476.4727 72.5875,476.7727 Q72.3938,477.0727 72.3938,477.4852 L72.3938,477.9227 Q72.3938,478.4164 72.75,478.7477 Q73.1063,479.0727 73.7438,479.0727 Q74.1188,479.0727 74.3813,478.9727 Q74.5375,478.9102 74.7063,478.7352 Q74.8125,478.6289 74.8688,478.5977 Q74.9313,478.5664 75.0125,478.5664 Q75.1438,478.5664 75.2438,478.6727 Q75.35,478.7727 75.35,478.9102 Q75.35,479.0477 75.2125,479.2102 Q75.0125,479.4414 74.6938,479.5727 Q74.2625,479.7539 73.7438,479.7539 Q73.1375,479.7539 72.6563,479.5039 Q72.2625,479.3039 71.9875,478.8789 Q71.7125,478.4477 71.7125,477.9352 L71.7125,477.4727 Q71.7125,476.9414 71.9563,476.4852 Q72.2063,476.0227 72.6438,475.7789 Q73.0813,475.5289 73.575,475.5289 Q73.8688,475.5289 74.125,475.5977 Q74.3875,475.6602 74.6063,475.8039 Z " fill="#000000"/><text fill="#000000" font-family="sans-serif" font-size="5.6" lengthAdjust="spacing" textLength="44" x="81.7" y="479.7727">AgendaTaskDTO</text><line style="stroke:#181818;stroke-width:0.20000000000000004;" x1="17.8" x2="176.6" y1="483.8539" y2="483.8539"/><text fill="#000000" font-family="sans-serif" font-size="5.6" lengthAdjust="spacing" textLength="30" x="19.8" y="491.4969">+String title;</text><text fill="#000000" font-family="sans-serif" font-size="5.6" lengthAdjust="spacing" textLength="48.8" x="19.8" y="498.9453">+String description;</text><text fill="#000000" font-family="sans-serif" font-size="5.6" lengthAdjust="spacing" textLength="54.8" x="19.8" y="506.3938">+TaskType taskType;</text><text fill="#000000" font-family="sans-serif" font-size="5.6" lengthAdjust="spacing" textLength="66.4" x="19.8" y="513.8422">+String greenSpaceName;</text><text fill="#000000" font-family="sans-serif" font-size="5.6" lengthAdjust="spacing" textLength="60.4" x="19.8" y="521.2906">+UrgencyType urgency;</text><text fill="#000000" font-family="sans-serif" font-size="5.6" lengthAdjust="spacing" textLength="56.8" x="19.8" y="528.7391">+int expectedDuration;</text><text fill="#000000" font-family="sans-serif" font-size="5.6" lengthAdjust="spacing" textLength="56.8" x="19.8" y="536.1875">+String workStartDate;</text><text fill="#000000" font-family="sans-serif" font-size="5.6" lengthAdjust="spacing" textLength="48" x="19.8" y="543.6359">+int workStartHour;</text><text fill="#000000" font-family="sans-serif" font-size="5.6" lengthAdjust="spacing" textLength="55.6" x="19.8" y="551.0844">+int workStartMinutes;</text><text fill="#000000" font-family="sans-serif" font-size="5.6" lengthAdjust="spacing" textLength="37.6" x="19.8" y="558.5328">+Status status;</text><text fill="#000000" font-family="sans-serif" font-size="5.6" lengthAdjust="spacing" textLength="62.8" x="19.8" y="565.9813">+String isTeamAssigned;</text><line style="stroke:#181818;stroke-width:0.20000000000000004;" x1="17.8" x2="176.6" y1="568.9867" y2="568.9867"/><text fill="#000000" font-family="sans-serif" font-size="5.6" lengthAdjust="spacing" textLength="150.8" x="19.8" y="576.6297">+AgendaTaskDTO(title, description, taskType, greenSpace,</text><text fill="#000000" font-family="sans-serif" font-size="5.6" lengthAdjust="spacing" textLength="147.6" x="19.8" y="584.0781">urgency, expectedDuration, executionDate, workStartHour,</text><text fill="#000000" font-family="sans-serif" font-size="5.6" lengthAdjust="spacing" textLength="154.8" x="19.8" y="591.5266">workStartMinutes, status, isTeamAssigned, vehiclesAssigned,</text><text fill="#000000" font-family="sans-serif" font-size="5.6" lengthAdjust="spacing" textLength="68" x="19.8" y="598.975">teamDTO, vehicleDTOList)</text></g><!--class CollaboratorDTO--><g id="elem_CollaboratorDTO"><rect codeLine="165" fill="#F1F1F1" height="48.9938" id="CollaboratorDTO" rx="1" ry="1" style="stroke:#181818;stroke-width:0.20000000000000004;" width="85.2" x="37.8" y="736.6539"/><ellipse cx="57.1" cy="743.0539" fill="#ADD1B2" rx="4.4" ry="4.4" style="stroke:#181818;stroke-width:0.4000000000000001;"/><path d="M58.2063,741.4039 Q58.2688,741.3164 58.3438,741.2727 Q58.4188,741.2289 58.5063,741.2289 Q58.6563,741.2289 58.75,741.3352 Q58.8438,741.4352 58.8438,741.6789 L58.8438,742.2602 Q58.8438,742.5039 58.75,742.6102 Q58.6563,742.7164 58.5063,742.7164 Q58.3688,742.7164 58.2875,742.6352 Q58.2063,742.5602 58.1625,742.3539 Q58.1438,742.2102 58.0688,742.1352 Q57.9375,741.9852 57.6938,741.8977 Q57.45,741.8102 57.2,741.8102 Q56.8938,741.8102 56.6375,741.9414 Q56.3875,742.0727 56.1875,742.3727 Q55.9938,742.6727 55.9938,743.0852 L55.9938,743.5227 Q55.9938,744.0164 56.35,744.3477 Q56.7063,744.6727 57.3438,744.6727 Q57.7188,744.6727 57.9813,744.5727 Q58.1375,744.5102 58.3063,744.3352 Q58.4125,744.2289 58.4688,744.1977 Q58.5313,744.1664 58.6125,744.1664 Q58.7438,744.1664 58.8438,744.2727 Q58.95,744.3727 58.95,744.5102 Q58.95,744.6477 58.8125,744.8102 Q58.6125,745.0414 58.2938,745.1727 Q57.8625,745.3539 57.3438,745.3539 Q56.7375,745.3539 56.2563,745.1039 Q55.8625,744.9039 55.5875,744.4789 Q55.3125,744.0477 55.3125,743.5352 L55.3125,743.0727 Q55.3125,742.5414 55.5563,742.0852 Q55.8063,741.6227 56.2438,741.3789 Q56.6813,741.1289 57.175,741.1289 Q57.4688,741.1289 57.725,741.1977 Q57.9875,741.2602 58.2063,741.4039 Z " fill="#000000"/><text fill="#000000" font-family="sans-serif" font-size="5.6" lengthAdjust="spacing" textLength="43.2" x="65.3" y="745.3727">CollaboratorDTO</text><line style="stroke:#181818;stroke-width:0.20000000000000004;" x1="38.2" x2="122.6" y1="749.4539" y2="749.4539"/><text fill="#000000" font-family="sans-serif" font-size="5.6" lengthAdjust="spacing" textLength="65.6" x="40.2" y="757.0969">+String collaboratorName;</text><text fill="#000000" font-family="sans-serif" font-size="5.6" lengthAdjust="spacing" textLength="34.4" x="40.2" y="764.5453">+String email;</text><text fill="#000000" font-family="sans-serif" font-size="5.6" lengthAdjust="spacing" textLength="62.8" x="40.2" y="771.9938">+List&lt;String&gt; skillNames;</text><line style="stroke:#181818;stroke-width:0.20000000000000004;" x1="38.2" x2="122.6" y1="774.9992" y2="774.9992"/><text fill="#000000" font-family="sans-serif" font-size="5.6" lengthAdjust="spacing" textLength="80.4" x="40.2" y="782.6422">+CollaboratorDTO(collaborator)</text></g><!--class TeamDTO--><g id="elem_TeamDTO"><rect codeLine="174" fill="#F1F1F1" height="34.0969" id="TeamDTO" rx="1" ry="1" style="stroke:#181818;stroke-width:0.20000000000000004;" width="134" x="13.4" y="652.0539"/><ellipse cx="65.5" cy="658.4539" fill="#ADD1B2" rx="4.4" ry="4.4" style="stroke:#181818;stroke-width:0.4000000000000001;"/><path d="M66.6063,656.8039 Q66.6688,656.7164 66.7438,656.6727 Q66.8188,656.6289 66.9063,656.6289 Q67.0563,656.6289 67.15,656.7352 Q67.2438,656.8352 67.2438,657.0789 L67.2438,657.6602 Q67.2438,657.9039 67.15,658.0102 Q67.0563,658.1164 66.9063,658.1164 Q66.7688,658.1164 66.6875,658.0352 Q66.6063,657.9602 66.5625,657.7539 Q66.5438,657.6102 66.4688,657.5352 Q66.3375,657.3852 66.0938,657.2977 Q65.85,657.2102 65.6,657.2102 Q65.2938,657.2102 65.0375,657.3414 Q64.7875,657.4727 64.5875,657.7727 Q64.3938,658.0727 64.3938,658.4852 L64.3938,658.9227 Q64.3938,659.4164 64.75,659.7477 Q65.1063,660.0727 65.7438,660.0727 Q66.1188,660.0727 66.3813,659.9727 Q66.5375,659.9102 66.7063,659.7352 Q66.8125,659.6289 66.8688,659.5977 Q66.9313,659.5664 67.0125,659.5664 Q67.1438,659.5664 67.2438,659.6727 Q67.35,659.7727 67.35,659.9102 Q67.35,660.0477 67.2125,660.2102 Q67.0125,660.4414 66.6938,660.5727 Q66.2625,660.7539 65.7438,660.7539 Q65.1375,660.7539 64.6563,660.5039 Q64.2625,660.3039 63.9875,659.8789 Q63.7125,659.4477 63.7125,658.9352 L63.7125,658.4727 Q63.7125,657.9414 63.9563,657.4852 Q64.2063,657.0227 64.6438,656.7789 Q65.0813,656.5289 65.575,656.5289 Q65.8688,656.5289 66.125,656.5977 Q66.3875,656.6602 66.6063,656.8039 Z " fill="#000000"/><text fill="#000000" font-family="sans-serif" font-size="5.6" lengthAdjust="spacing" textLength="26.4" x="73.7" y="660.7727">TeamDTO</text><line style="stroke:#181818;stroke-width:0.20000000000000004;" x1="13.8" x2="147" y1="664.8539" y2="664.8539"/><text fill="#000000" font-family="sans-serif" font-size="5.6" lengthAdjust="spacing" textLength="96" x="15.8" y="672.4969">+List&lt;CollaboratorDTO&gt; collaborators</text><line style="stroke:#181818;stroke-width:0.20000000000000004;" x1="13.8" x2="147" y1="675.5023" y2="675.5023"/><text fill="#000000" font-family="sans-serif" font-size="5.6" lengthAdjust="spacing" textLength="129.2" x="15.8" y="683.1453">+TeamDTO(List&lt;CollaboratorDTO&gt; teamMembers)</text></g><!--class VehicleDTO--><g id="elem_VehicleDTO"><rect codeLine="179" fill="#F1F1F1" height="56.4422" id="VehicleDTO" rx="1" ry="1" style="stroke:#181818;stroke-width:0.20000000000000004;" width="60" x="161.6" y="640.8539"/><ellipse cx="175.16" cy="647.2539" fill="#ADD1B2" rx="4.4" ry="4.4" style="stroke:#181818;stroke-width:0.4000000000000001;"/><path d="M176.2663,645.6039 Q176.3288,645.5164 176.4038,645.4727 Q176.4788,645.4289 176.5663,645.4289 Q176.7163,645.4289 176.81,645.5352 Q176.9038,645.6352 176.9038,645.8789 L176.9038,646.4602 Q176.9038,646.7039 176.81,646.8102 Q176.7163,646.9164 176.5663,646.9164 Q176.4288,646.9164 176.3475,646.8352 Q176.2663,646.7602 176.2225,646.5539 Q176.2038,646.4102 176.1288,646.3352 Q175.9975,646.1852 175.7538,646.0977 Q175.51,646.0102 175.26,646.0102 Q174.9538,646.0102 174.6975,646.1414 Q174.4475,646.2727 174.2475,646.5727 Q174.0538,646.8727 174.0538,647.2852 L174.0538,647.7227 Q174.0538,648.2164 174.41,648.5477 Q174.7663,648.8727 175.4038,648.8727 Q175.7788,648.8727 176.0413,648.7727 Q176.1975,648.7102 176.3663,648.5352 Q176.4725,648.4289 176.5288,648.3977 Q176.5913,648.3664 176.6725,648.3664 Q176.8038,648.3664 176.9038,648.4727 Q177.01,648.5727 177.01,648.7102 Q177.01,648.8477 176.8725,649.0102 Q176.6725,649.2414 176.3538,649.3727 Q175.9225,649.5539 175.4038,649.5539 Q174.7975,649.5539 174.3163,649.3039 Q173.9225,649.1039 173.6475,648.6789 Q173.3725,648.2477 173.3725,647.7352 L173.3725,647.2727 Q173.3725,646.7414 173.6163,646.2852 Q173.8663,645.8227 174.3038,645.5789 Q174.7413,645.3289 175.235,645.3289 Q175.5288,645.3289 175.785,645.3977 Q176.0475,645.4602 176.2663,645.6039 Z " fill="#000000"/><text fill="#000000" font-family="sans-serif" font-size="5.6" lengthAdjust="spacing" textLength="30.4" x="182.44" y="649.5727">VehicleDTO</text><line style="stroke:#181818;stroke-width:0.20000000000000004;" x1="162" x2="221.2" y1="653.6539" y2="653.6539"/><text fill="#000000" font-family="sans-serif" font-size="5.6" lengthAdjust="spacing" textLength="38.8" x="164" y="661.2969">+String plateID;</text><text fill="#000000" font-family="sans-serif" font-size="5.6" lengthAdjust="spacing" textLength="36" x="164" y="668.7453">+String brand;</text><text fill="#000000" font-family="sans-serif" font-size="5.6" lengthAdjust="spacing" textLength="36.4" x="164" y="676.1938">+String model;</text><text fill="#000000" font-family="sans-serif" font-size="5.6" lengthAdjust="spacing" textLength="32" x="164" y="683.6422">+String type;</text><line style="stroke:#181818;stroke-width:0.20000000000000004;" x1="162" x2="221.2" y1="686.6477" y2="686.6477"/><text fill="#000000" font-family="sans-serif" font-size="5.6" lengthAdjust="spacing" textLength="55.2" x="164" y="694.2906">+VehicleDTO(vehicle)</text></g><!--link AgendaUI to AgendaController--><g id="link_AgendaUI_AgendaController"><path codeLine="194" d="M464.184,97.0779 C454.112,113.8339 443.5162,131.4488 435.9082,144.1088 " fill="none" id="AgendaUI-to-AgendaController" style="stroke:#181818;stroke-width:0.4000000000000001;stroke-dasharray:7.0,7.0;"/><polygon fill="#181818" points="434.672,146.1659,437.8977,143.9044,435.7022,144.4516,435.1549,142.2561,434.672,146.1659" style="stroke:#181818;stroke-width:0.4000000000000001;"/></g><!--link AgendaUI to CancelEntryAgendaController--><g id="link_AgendaUI_CancelEntryAgendaController"><path codeLine="195" d="M502.484,97.0779 C509.264,108.1939 515.5785,118.5488 522.1545,129.3328 " fill="none" id="AgendaUI-to-CancelEntryAgendaController" style="stroke:#181818;stroke-width:0.4000000000000001;stroke-dasharray:7.0,7.0;"/><polygon fill="#181818" points="523.404,131.3819,522.8958,127.4753,522.3627,129.6743,520.1637,129.1413,523.404,131.3819" style="stroke:#181818;stroke-width:0.4000000000000001;"/></g><!--link AgendaController to Repositories--><g id="link_AgendaController_Repositories"><path codeLine="196" d="M422.16,173.1099 C415.812,190.9779 405.0555,221.2324 396.7155,244.7044 " fill="none" id="AgendaController-to-Repositories" style="stroke:#181818;stroke-width:0.4000000000000001;stroke-dasharray:7.0,7.0;"/><polygon fill="#181818" points="395.912,246.9659,398.625,244.1094,396.5816,245.0813,395.6097,243.038,395.912,246.9659" style="stroke:#181818;stroke-width:0.4000000000000001;"/></g><!--link CancelEntryAgendaController to Repositories--><g id="link_CancelEntryAgendaController_Repositories"><path codeLine="197" d="M502.828,187.9899 C478.724,205.9099 449.4821,227.6541 425.3981,245.5581 " fill="none" id="CancelEntryAgendaController-to-Repositories" style="stroke:#181818;stroke-width:0.4000000000000001;stroke-dasharray:7.0,7.0;"/><polygon fill="#181818" points="423.472,246.9899,427.3157,246.1262,425.0771,245.7967,425.4066,243.5581,423.472,246.9899" style="stroke:#181818;stroke-width:0.4000000000000001;"/></g><!--link AgendaController to ApplicationSession--><g id="link_AgendaController_ApplicationSession"><path codeLine="198" d="M407.236,173.1099 C378.972,191.9739 328.2282,225.8456 292.8082,249.4856 " fill="none" id="AgendaController-to-ApplicationSession" style="stroke:#181818;stroke-width:0.4000000000000001;stroke-dasharray:7.0,7.0;"/><polygon fill="#181818" points="290.812,250.8179,294.6946,250.1502,292.4755,249.7076,292.9181,247.4886,290.812,250.8179" style="stroke:#181818;stroke-width:0.4000000000000001;"/></g><!--link ApplicationSession to ApplicationSession--><g id="link_ApplicationSession_ApplicationSession"><path codeLine="199" d="M301.708,267.5179 C309.9,268.5499 315.6,271.1299 315.6,275.2539 C315.6,279.3779 312.2812,281.6579 304.0892,282.6899 " fill="none" id="ApplicationSession-to-ApplicationSession" style="stroke:#181818;stroke-width:0.4000000000000001;"/><polygon fill="#181818" points="301.708,282.9899,305.4798,284.1274,303.6923,282.7399,305.0798,280.9525,301.708,282.9899" style="stroke:#181818;stroke-width:0.4000000000000001;"/><text fill="#000000" font-family="sans-serif" font-size="5.2" lengthAdjust="spacing" textLength="19.6" x="318" y="277.4652">instance</text></g><!--link ApplicationSession to UserSession--><g id="link_ApplicationSession_UserSession"><path codeLine="200" d="M250.688,299.6619 C248.672,311.4339 246.7296,322.7884 245.0456,332.6084 " fill="none" id="ApplicationSession-to-UserSession" style="stroke:#181818;stroke-width:0.4000000000000001;"/><polygon fill="#181818" points="244.64,334.9739,246.8255,331.6961,244.978,333.0027,243.6715,331.1553,244.64,334.9739" style="stroke:#181818;stroke-width:0.4000000000000001;"/><text fill="#000000" font-family="sans-serif" font-size="5.2" lengthAdjust="spacing" textLength="28.8" x="248" y="321.4652">userSession</text><text fill="#000000" font-family="sans-serif" font-size="5.2" lengthAdjust="spacing" textLength="2.8" x="242.0001" y="330.593">1</text></g><!--link UserSession to Email--><g id="link_UserSession_Email"><path codeLine="201" d="M238.008,361.9499 C233.932,374.0979 228.7312,389.6025 225.1112,400.3945 " fill="none" id="UserSession-to-Email" style="stroke:#181818;stroke-width:0.4000000000000001;stroke-dasharray:7.0,7.0;"/><polygon fill="#181818" points="224.348,402.6699,227.0098,399.7656,224.984,400.7737,223.9759,398.748,224.348,402.6699" style="stroke:#181818;stroke-width:0.4000000000000001;"/></g><!--link Repositories to AgendaRepository--><g id="link_Repositories_AgendaRepository"><path codeLine="202" d="M375.596,303.5859 C365.32,331.1779 350.7816,370.2168 342.2696,393.0728 " fill="none" id="Repositories-to-AgendaRepository" style="stroke:#181818;stroke-width:0.4000000000000001;"/><polygon fill="#181818" points="341.432,395.3219,344.1878,392.5067,342.13,393.4477,341.189,391.3899,341.432,395.3219" style="stroke:#181818;stroke-width:0.4000000000000001;"/><text fill="#000000" font-family="sans-serif" font-size="5.2" lengthAdjust="spacing" textLength="2.8" x="339.3719" y="390.9908">1</text></g><!--link Repositories to TeamRepository--><g id="link_Repositories_TeamRepository"><path codeLine="203" d="M397.98,303.5139 C410.52,332.6699 428.4,374.2539 428.4,374.2539 C428.4,374.2539 452.6643,384.3556 477.0243,394.4956 " fill="none" id="Repositories-to-TeamRepository" style="stroke:#181818;stroke-width:0.4000000000000001;"/><polygon fill="#181818" points="479.24,395.4179,476.5313,392.5573,477.3936,394.6493,475.3016,395.5116,479.24,395.4179" style="stroke:#181818;stroke-width:0.4000000000000001;"/><text fill="#000000" font-family="sans-serif" font-size="5.2" lengthAdjust="spacing" textLength="2.8" x="469.8483" y="390.9738">1</text></g><!--link Repositories to VehicleRepository--><g id="link_Repositories_VehicleRepository"><path codeLine="204" d="M424.856,296.5819 C448.428,309.2819 474,323.0539 474,323.0539 C474,323.0539 602.8088,373.4239 666.0248,398.1439 " fill="none" id="Repositories-to-VehicleRepository" style="stroke:#181818;stroke-width:0.4000000000000001;"/><polygon fill="#181818" points="668.26,399.0179,665.4899,396.2167,666.3973,398.2895,664.3245,399.197,668.26,399.0179" style="stroke:#181818;stroke-width:0.4000000000000001;"/><text fill="#000000" font-family="sans-serif" font-size="5.2" lengthAdjust="spacing" textLength="2.8" x="658.6206" y="394.541">1</text></g><!--link AgendaRepository to Task--><g id="link_AgendaRepository_Task"><path codeLine="205" d="M340.756,429.4699 C346.512,446.6779 354.9467,471.9099 362.5587,494.6659 " fill="none" id="AgendaRepository-to-Task" style="stroke:#181818;stroke-width:0.4000000000000001;"/><polygon fill="#181818" points="363.32,496.9419,363.6953,493.0203,362.6855,495.0452,360.6606,494.0354,363.32,496.9419" style="stroke:#181818;stroke-width:0.4000000000000001;"/><text fill="#000000" font-family="sans-serif" font-size="5.2" lengthAdjust="spacing" textLength="10" x="347.6" y="448.2652">task</text><text fill="#000000" font-family="sans-serif" font-size="5.2" lengthAdjust="spacing" textLength="2.8" x="338.6184" y="438.3366">1</text></g><!--link VehicleRepository to Vehicle--><g id="link_VehicleRepository_Vehicle"><path codeLine="206" d="M693.964,425.9219 C683.632,443.6019 666.019,473.7378 651.387,498.7738 " fill="none" id="VehicleRepository-to-Vehicle" style="stroke:#181818;stroke-width:0.4000000000000001;"/><polygon fill="#181818" points="650.176,500.8459,653.3739,498.5451,651.1852,499.1192,650.6111,496.9305,650.176,500.8459" style="stroke:#181818;stroke-width:0.4000000000000001;"/><text fill="#000000" font-family="sans-serif" font-size="5.2" lengthAdjust="spacing" textLength="15.6" x="684.4" y="448.2652">vehicle</text><text fill="#000000" font-family="sans-serif" font-size="5.2" lengthAdjust="spacing" textLength="2.8" x="689.5545" y="434.5617">1</text></g><!--reverse link Task to TaskDuration--><g id="link_Task_TaskDuration"><path codeLine="207" d="M375.7354,580.6614 C375.4594,598.9174 375.204,615.6979 374.936,633.4499 " fill="none" id="Task-backto-TaskDuration" style="stroke:#181818;stroke-width:0.4000000000000001;"/><polygon fill="#181818" points="375.808,575.8619,374.1719,578.2374,375.7354,580.6614,377.3715,578.2858,375.808,575.8619" style="stroke:#181818;stroke-width:0.4000000000000001;"/><text fill="#000000" font-family="sans-serif" font-size="5.2" lengthAdjust="spacing" textLength="29.2" x="375.6" y="619.8652">taskDuration</text><text fill="#000000" font-family="sans-serif" font-size="5.2" lengthAdjust="spacing" textLength="2.8" x="372.0618" y="628.9084">1</text></g><!--link TeamRepository to Team--><g id="link_TeamRepository_Team"><path codeLine="208" d="M517.312,429.4699 C514.776,451.8019 510.5347,489.0892 507.7947,513.2252 " fill="none" id="TeamRepository-to-Team" style="stroke:#181818;stroke-width:0.4000000000000001;"/><polygon fill="#181818" points="507.524,515.6099,509.5199,512.2134,507.7496,513.6227,506.3403,511.8524,507.524,515.6099" style="stroke:#181818;stroke-width:0.4000000000000001;"/><text fill="#000000" font-family="sans-serif" font-size="5.2" lengthAdjust="spacing" textLength="11.6" x="516" y="448.2652">team</text><text fill="#000000" font-family="sans-serif" font-size="5.2" lengthAdjust="spacing" textLength="2.8" x="513.988" y="438.3366">1</text></g><!--link AgendaController to AgendaRepository--><g id="link_AgendaController_AgendaRepository"><path codeLine="209" d="M433.808,173.1939 C444.484,193.2139 463.6,229.0539 463.6,229.0539 C463.6,229.0539 470.4,315.4539 470.4,315.4539 C470.4,315.4539 470.4,323.0539 470.4,323.0539 C470.4,323.0539 401.6086,368.3383 362.4766,394.0983 " fill="none" id="AgendaController-to-AgendaRepository" style="stroke:#181818;stroke-width:0.4000000000000001;stroke-dasharray:7.0,7.0;"/><polygon fill="#181818" points="360.472,395.4179,364.3587,394.7749,362.1425,394.3182,362.5992,392.102,360.472,395.4179" style="stroke:#181818;stroke-width:0.4000000000000001;"/><text fill="#000000" font-family="sans-serif" font-size="5.2" lengthAdjust="spacing" textLength="41.6" x="469.6" y="277.4652">agendaRepository</text></g><!--link CancelEntryAgendaController to AgendaRepository--><g id="link_CancelEntryAgendaController_AgendaRepository"><path codeLine="210" d="M547.98,187.9499 C551.448,200.7179 554.8,213.0539 554.8,213.0539 C554.8,213.0539 554.8,213.0539 554.8,348.8539 C554.8,348.8539 429.2,377.4539 429.2,377.4539 C429.2,377.4539 406.7443,385.7208 382.6643,394.5848 " fill="none" id="CancelEntryAgendaController-to-AgendaRepository" style="stroke:#181818;stroke-width:0.4000000000000001;stroke-dasharray:7.0,7.0;"/><polygon fill="#181818" points="380.412,395.4139,384.3431,395.6718,382.2889,394.723,383.2377,392.6688,380.412,395.4139" style="stroke:#181818;stroke-width:0.4000000000000001;"/><text fill="#000000" font-family="sans-serif" font-size="5.2" lengthAdjust="spacing" textLength="41.6" x="555.2" y="277.4652">agendaRepository</text></g><!--link CancelEntryAgendaController to TeamRepository--><g id="link_CancelEntryAgendaController_TeamRepository"><path codeLine="211" d="M584.912,187.8739 C605.384,200.6699 625.2,213.0539 625.2,213.0539 C625.2,213.0539 625.2,213.0539 625.2,348.8539 C625.2,348.8539 580.5173,375.4926 549.1133,394.2206 " fill="none" id="CancelEntryAgendaController-to-TeamRepository" style="stroke:#181818;stroke-width:0.4000000000000001;stroke-dasharray:7.0,7.0;"/><polygon fill="#181818" points="547.052,395.4499,550.9634,394.9802,548.7697,394.4255,549.3244,392.2318,547.052,395.4499" style="stroke:#181818;stroke-width:0.4000000000000001;"/><text fill="#000000" font-family="sans-serif" font-size="5.2" lengthAdjust="spacing" textLength="36.4" x="625.6" y="277.4652">teamRepository</text></g><!--link CancelEntryAgendaController to VehicleRepository--><g id="link_CancelEntryAgendaController_VehicleRepository"><path codeLine="212" d="M592.428,177.7739 C637.664,193.1819 696,213.0539 696,213.0539 C696,213.0539 696,213.0539 696,348.8539 C696,348.8539 698.5882,378.0553 700.2282,396.5673 " fill="none" id="CancelEntryAgendaController-to-VehicleRepository" style="stroke:#181818;stroke-width:0.4000000000000001;stroke-dasharray:7.0,7.0;"/><polygon fill="#181818" points="700.44,398.9579,701.7161,395.2308,700.2635,396.9657,698.5286,395.5131,700.44,398.9579" style="stroke:#181818;stroke-width:0.4000000000000001;"/><text fill="#000000" font-family="sans-serif" font-size="5.2" lengthAdjust="spacing" textLength="40.4" x="696.4" y="277.4652">vehicleRepository</text></g><!--link Repositories to Repositories--><g id="link_Repositories_Repositories"><path codeLine="214" d="M424.912,267.2939 C432.992,268.1299 438.8,270.7859 438.8,275.2539 C438.8,279.7219 435.3793,282.1309 427.2993,282.9669 " fill="none" id="Repositories-to-Repositories" style="stroke:#181818;stroke-width:0.4000000000000001;"/><polygon fill="#181818" points="424.912,283.2139,428.6575,284.4349,426.9014,283.0081,428.3282,281.2519,424.912,283.2139" style="stroke:#181818;stroke-width:0.4000000000000001;"/><text fill="#000000" font-family="sans-serif" font-size="5.2" lengthAdjust="spacing" textLength="19.6" x="441.2" y="277.4652">instance</text></g><!--link AgendaController to AgendaMapper--><g id="link_AgendaController_AgendaMapper"><path codeLine="215" d="M379.132,168.9259 C298.056,184.0139 142,213.0539 142,213.0539 C142,213.0539 142,213.0539 142,348.8539 C142,348.8539 123.6317,374.7638 110.3597,393.4918 " fill="none" id="AgendaController-to-AgendaMapper" style="stroke:#181818;stroke-width:0.4000000000000001;stroke-dasharray:7.0,7.0;"/><polygon fill="#181818" points="108.972,395.4499,112.359,393.4378,110.1284,393.8181,109.7481,391.5876,108.972,395.4499" style="stroke:#181818;stroke-width:0.4000000000000001;"/></g><!--link AgendaMapper to AgendaTaskDTO--><g id="link_AgendaMapper_AgendaTaskDTO"><path codeLine="216" d="M97.2,429.4699 C97.2,440.4379 97.2,453.1899 97.2,468.6299 " fill="none" id="AgendaMapper-to-AgendaTaskDTO" style="stroke:#181818;stroke-width:0.4000000000000001;stroke-dasharray:7.0,7.0;"/><polygon fill="#181818" points="97.2,471.0299,98.8,467.4299,97.2,469.0299,95.6,467.4299,97.2,471.0299" style="stroke:#181818;stroke-width:0.4000000000000001;"/></g><!--link AgendaTaskDTO to TeamDTO--><g id="link_AgendaTaskDTO_TeamDTO"><path codeLine="217" d="M88.9,601.9819 C86.536,620.5299 84.4634,636.7772 82.8274,649.6132 " fill="none" id="AgendaTaskDTO-to-TeamDTO" style="stroke:#181818;stroke-width:0.4000000000000001;stroke-dasharray:7.0,7.0;"/><polygon fill="#181818" points="82.524,651.9939,84.5663,648.6251,82.7769,650.01,81.392,648.2205,82.524,651.9939" style="stroke:#181818;stroke-width:0.4000000000000001;"/><text fill="#000000" font-family="sans-serif" font-size="5.2" lengthAdjust="spacing" textLength="2.8" x="79.8394" y="647.546">1</text></g><!--link AgendaMapper to Task--><g id="link_AgendaMapper_Task"><path codeLine="218" d="M151.344,429.4939 C187.328,440.5539 228,453.0539 228,453.0539 C228,453.0539 271.5654,477.4184 312.2294,500.1624 " fill="none" id="AgendaMapper-to-Task" style="stroke:#181818;stroke-width:0.4000000000000001;stroke-dasharray:7.0,7.0;"/><polygon fill="#181818" points="314.324,501.3339,311.9631,498.1802,312.5785,500.3576,310.401,500.973,314.324,501.3339" style="stroke:#181818;stroke-width:0.4000000000000001;"/></g><!--link TeamDTO to CollaboratorDTO--><g id="link_TeamDTO_CollaboratorDTO"><path codeLine="219" d="M80.4,686.0739 C80.4,700.2059 80.4,718.2699 80.4,734.1899 " fill="none" id="TeamDTO-to-CollaboratorDTO" style="stroke:#181818;stroke-width:0.4000000000000001;stroke-dasharray:7.0,7.0;"/><polygon fill="#181818" points="80.4,736.5899,82,732.9899,80.4,734.5899,78.8,732.9899,80.4,736.5899" style="stroke:#181818;stroke-width:0.4000000000000001;"/><text fill="#000000" font-family="sans-serif" font-size="5.2" lengthAdjust="spacing" textLength="2.8" x="77.3769" y="694.9412">1</text></g><!--link AgendaTaskDTO to VehicleDTO--><g id="link_AgendaTaskDTO_VehicleDTO"><path codeLine="220" d="M143.848,601.9819 C153.648,615.6659 162.0822,627.4429 170.2582,638.8549 " fill="none" id="AgendaTaskDTO-to-VehicleDTO" style="stroke:#181818;stroke-width:0.4000000000000001;stroke-dasharray:7.0,7.0;"/><polygon fill="#181818" points="171.656,640.8059,170.86,636.9476,170.4912,639.1801,168.2587,638.8113,171.656,640.8059" style="stroke:#181818;stroke-width:0.4000000000000001;"/><text fill="#000000" font-family="sans-serif" font-size="5.2" lengthAdjust="spacing" textLength="2.8" x="143.0983" y="610.7163">1</text></g><!--link Vehicle to WorkPeriod--><g id="link_Vehicle_WorkPeriod"><path codeLine="221" d="M611.472,572.0699 C589.296,615.1539 553.1744,685.324 531.8424,726.768 " fill="none" id="Vehicle-to-WorkPeriod" style="stroke:#181818;stroke-width:0.4000000000000001;"/><polygon fill="#181818" points="530.744,728.9019,533.8142,726.4333,531.6593,727.1236,530.9689,724.9688,530.744,728.9019" style="stroke:#181818;stroke-width:0.4000000000000001;"/><text fill="#000000" font-family="sans-serif" font-size="5.2" lengthAdjust="spacing" textLength="24.8" x="580" y="671.2652">workperiod</text><text fill="#000000" font-family="sans-serif" font-size="5.2" lengthAdjust="spacing" textLength="2.8" x="606.9938" y="581.0332">1</text></g><!--link Team to WorkPeriod--><g id="link_Team_WorkPeriod"><path codeLine="222" d="M506.04,557.3099 C507.652,596.4779 511.0815,679.9199 512.9975,726.5679 " fill="none" id="Team-to-WorkPeriod" style="stroke:#181818;stroke-width:0.4000000000000001;"/><polygon fill="#181818" points="513.096,728.9659,514.5469,725.3033,513.0139,726.9676,511.3496,725.4346,513.096,728.9659" style="stroke:#181818;stroke-width:0.4000000000000001;"/><text fill="#000000" font-family="sans-serif" font-size="5.2" lengthAdjust="spacing" textLength="24.8" x="512.4" y="671.2652">workperiod</text><text fill="#000000" font-family="sans-serif" font-size="5.2" lengthAdjust="spacing" textLength="2.8" x="503.1683" y="566.04">1</text></g><!--reverse link Task to WorkPeriod--><g id="link_Task_WorkPeriod"><path codeLine="223" d="M404.7235,579.875 C422.3755,606.687 440,633.4539 440,633.4539 C440,633.4539 480,704.6539 480,704.6539 C480,704.6539 487.184,716.3499 494.988,729.0539 " fill="none" id="Task-backto-WorkPeriod" style="stroke:#181818;stroke-width:0.4000000000000001;"/><polygon fill="#181818" points="402.084,575.8659,402.0674,578.7503,404.7235,579.875,404.7401,576.9907,402.084,575.8659" style="stroke:#181818;stroke-width:0.4000000000000001;"/><text fill="#000000" font-family="sans-serif" font-size="5.2" lengthAdjust="spacing" textLength="24.8" x="480.4" y="671.2652">workperiod</text><text fill="#000000" font-family="sans-serif" font-size="5.2" lengthAdjust="spacing" textLength="2.8" x="401.0674" y="584.626">1</text><text fill="#000000" font-family="sans-serif" font-size="5.2" lengthAdjust="spacing" textLength="2.8" x="490.2044" y="724.5019">1</text></g><!--SRC=[hLXBR-Cs4BxhLn3RG-J6DhO5Uea30O6TRGCqRL4dsyjUQ8cnYT2aG5B9kaR-UuSKIP6Ix4sBEel4cXTdXjyyj1VgcV8QIxn7Uy55kPDYJv2M3SawJetBPxmbQtrW14bIQiotB1PGEro9Lygtw0ap5NCOvKGVQe9gmGxc8RiOOGgfHHPfbGmhTQErf9j6axjIy3Nzcw2FcQOQN7XSV_pn9pH3IoE6LXHlGIdBd9levySxT7tzIR2AoA90twti1nsppDf5Drl2Amn2nmp1P-O83rWzhnv-Huem295KvjaAN2BAgQQOWGyv4oNMLF0f94A9HfP4JPoP9ygOKNh06qRoYTFTQBx4l2IMbNlPfgwm9bRoCoMlWVu2fnZEEd8YZpsQP6_m4s9T2gwbO8p8yP3RY5i7Ra7qqCOQgHsTdsTaGYnb2AGLoN6SEI-r9Rfb_qbgeQWMyf17l0U2z-ESpsH7IqOIvbjwQvrJn_vfpejxpC4h-IjLEdV9kl3PMeazfZp9r8tz74D2kyFF9JIDmUF8d7bjM0NIyDiyPivBIVRYXVmbvFCVH59HVO8wCv9vczBsRgT8m-zEA8f-a9hZ6SDE-Bss-vULXWDQ1MhlsGVZmGjG5qjtHcvBSugsaX2-Xcp2T_ALb8qfbXM8Jv7IM3VA7DoU6qwaH8LQZ8anDkuugCDH-GHT9KBl0TOvE9u7NLqpsXRycYW5VqBF671EUZiKZJnhz8vmxTZZ7YuRAK6cEwRpxr4HcJXc5Gpr5f3E4bbBELe2_ClEr4GFx2v3_e0rj6Nez3M3IxshKk96OjuZxKL5c2CvIm-cvvl6xyYLQA0F0a1bIvdFvoVGVVTq-nLGgNBmjOVbg39HWk0bj0ky4H93NWkq9_iDaIeMw0mLw3LyLzctV7WTAoPJ5U5ybm9R6ekKLX5LIbgRM_SSMr0sDUvBfs8AnzNF8gJ8-MT7XAk-oEeqc4cAyWjl95H3UG1XV51Jj8CX1d_sbCEeTRCi1_DHJ5ti7WEce6skm3MfpLEObBgZ_mAcn-ZtbFVjtF9gn0fGHsm0rLX8Sxvgf2sXa7iZRI9SHCysrfZWeev9McZClBLxpuzoxNdvwVnTmXAXtodRpVntA9XXzfQKxpskwrF3F-dlhQ2_m9WMUeqMC3-ZcJwrOmneqxPGNFa2eK0luRjXJNnR2Lq55gbl- -HNhbvhYUhbycIzN9wgbw3IeVutl0_CnnR-Lj6LmY826FbQsrtBNqJFPeBvnIdGBqwWliFQvLXHXrEeCcti1lhwbfCge2z9sdyg-NvqWncTX06QVU_z59_sV9nwGAX0-S83UiR0uZRJg3a3kmU4CkB6T-ZOn4mqJxC8RHa5WbS9nen6Lxgza_BOzgGLUek7IEJDO8pO2eWD-2t4AURZ6YOVz-tycQG7TfKrEcLNYv4nknYPipsQjaNHqheZSdSTeMZX4zw9vlDYi6gdt3Cl2jdWxM9kD99rxToxo41uA56ChLD34fgD2S8oHjrcDge3Bx4S53_yy27Uh42hwPwoc6CSjdjLbYopivcpqbyyJuYbc-i9eS6YclMjMp4VX5r4hcn7o0QgYQJZWh03HcPrlv_Dh6_nS6tj-SSizRirMhGhs9L5UpPwnGE_hzmBHXJRMPZy3oRcHI_hpkD_eJ_CQiXWPALtcod04q0Epv1qkzFpBcNjlCxYXoYXRZ1awMmrVBWOrvc6klQ_EHpNtg2jyRHrzKnwgQwbU8H5k898kxqHuZIJfBOFzhHtIXeW6aa0eqNZAS5_0000]--></g></svg>