<?xml version="1.0" encoding="us-ascii" standalone="no"?><svg xmlns="http://www.w3.org/2000/svg" xmlns:xlink="http://www.w3.org/1999/xlink" contentStyleType="text/css" height="2258px" preserveAspectRatio="none" style="width:2069px;height:2258px;background:#FFFFFF;" version="1.1" viewBox="0 0 2069 2258" width="2069px" zoomAndPan="magnify"><defs/><g><text fill="#000000" font-family="sans-serif" font-size="14" font-weight="bold" lengthAdjust="spacing" textLength="155" x="950" y="25.1074">US025 - Class Diagram</text><!--cluster GUI--><g id="cluster_GUI"><path d="M672.5,45.6348 L698.5,45.6348 A3.75,3.75 0 0 1 701,48.1348 L708,70.2559 L945.5,70.2559 A2.5,2.5 0 0 1 948,72.7559 L948,256.1348 A2.5,2.5 0 0 1 945.5,258.6348 L672.5,258.6348 A2.5,2.5 0 0 1 670,256.1348 L670,48.1348 A2.5,2.5 0 0 1 672.5,45.6348 " fill="#DDDDDD" style="stroke:#000000;stroke-width:1.5;"/><line style="stroke:#000000;stroke-width:1.5;" x1="670" x2="708" y1="70.2559" y2="70.2559"/><text fill="#000000" font-family="sans-serif" font-size="14" font-weight="bold" lengthAdjust="spacing" textLength="25" x="674" y="62.7422">GUI</text></g><!--cluster Controller--><g id="cluster_Controller"><path d="M504.5,291.6348 L576.5,291.6348 A3.75,3.75 0 0 1 579,294.1348 L586,316.2559 L1064.5,316.2559 A2.5,2.5 0 0 1 1067,318.7559 L1067,483.1348 A2.5,2.5 0 0 1 1064.5,485.6348 L504.5,485.6348 A2.5,2.5 0 0 1 502,483.1348 L502,294.1348 A2.5,2.5 0 0 1 504.5,291.6348 " fill="#DDDDDD" style="stroke:#000000;stroke-width:1.5;"/><line style="stroke:#000000;stroke-width:1.5;" x1="502" x2="586" y1="316.2559" y2="316.2559"/><text fill="#000000" font-family="sans-serif" font-size="14" font-weight="bold" lengthAdjust="spacing" textLength="71" x="506" y="308.7422">Controller</text></g><!--cluster Repository--><g id="cluster_Repository"><path d="M8.5,929.6348 L85.5,929.6348 A3.75,3.75 0 0 1 88,932.1348 L95,954.2559 L1482.5,954.2559 A2.5,2.5 0 0 1 1485,956.7559 L1485,1470.1348 A2.5,2.5 0 0 1 1482.5,1472.6348 L8.5,1472.6348 A2.5,2.5 0 0 1 6,1470.1348 L6,932.1348 A2.5,2.5 0 0 1 8.5,929.6348 " fill="#DDDDDD" style="stroke:#000000;stroke-width:1.5;"/><line style="stroke:#000000;stroke-width:1.5;" x1="6" x2="95" y1="954.2559" y2="954.2559"/><text fill="#000000" font-family="sans-serif" font-size="14" font-weight="bold" lengthAdjust="spacing" textLength="76" x="10" y="946.7422">Repository</text></g><!--cluster Domain--><g id="cluster_Domain"><path d="M302.5,1523.6348 L355.5,1523.6348 A3.75,3.75 0 0 1 358,1526.1348 L365,1548.2559 L1261.5,1548.2559 A2.5,2.5 0 0 1 1264,1550.7559 L1264,2249.1348 A2.5,2.5 0 0 1 1261.5,2251.6348 L302.5,2251.6348 A2.5,2.5 0 0 1 300,2249.1348 L300,1526.1348 A2.5,2.5 0 0 1 302.5,1523.6348 " fill="#DDDDDD" style="stroke:#000000;stroke-width:1.5;"/><line style="stroke:#000000;stroke-width:1.5;" x1="300" x2="365" y1="1548.2559" y2="1548.2559"/><text fill="#000000" font-family="sans-serif" font-size="14" font-weight="bold" lengthAdjust="spacing" textLength="52" x="304" y="1540.7422">Domain</text></g><!--cluster Mapper--><g id="cluster_Mapper"><path d="M1190.5,319.6348 L1245.5,319.6348 A3.75,3.75 0 0 1 1248,322.1348 L1255,344.2559 L1659.5,344.2559 A2.5,2.5 0 0 1 1662,346.7559 L1662,455.1348 A2.5,2.5 0 0 1 1659.5,457.6348 L1190.5,457.6348 A2.5,2.5 0 0 1 1188,455.1348 L1188,322.1348 A2.5,2.5 0 0 1 1190.5,319.6348 " fill="#DDDDDD" style="stroke:#000000;stroke-width:1.5;"/><line style="stroke:#000000;stroke-width:1.5;" x1="1188" x2="1255" y1="344.2559" y2="344.2559"/><text fill="#000000" font-family="sans-serif" font-size="14" font-weight="bold" lengthAdjust="spacing" textLength="54" x="1192" y="336.7422">Mapper</text></g><!--cluster DTO--><g id="cluster_DTO"><path d="M1511.5,518.6348 L1541.5,518.6348 A3.75,3.75 0 0 1 1544,521.1348 L1551,543.2559 L2059.5,543.2559 A2.5,2.5 0 0 1 2062,545.7559 L2062,1322.1348 A2.5,2.5 0 0 1 2059.5,1324.6348 L1511.5,1324.6348 A2.5,2.5 0 0 1 1509,1322.1348 L1509,521.1348 A2.5,2.5 0 0 1 1511.5,518.6348 " fill="#DDDDDD" style="stroke:#000000;stroke-width:1.5;"/><line style="stroke:#000000;stroke-width:1.5;" x1="1509" x2="1551" y1="543.2559" y2="543.2559"/><text fill="#000000" font-family="sans-serif" font-size="14" font-weight="bold" lengthAdjust="spacing" textLength="29" x="1513" y="535.7422">DTO</text></g><!--class AgendaUI--><g id="elem_AgendaUI"><rect codeLine="12" fill="#F1F1F1" height="159.7266" id="AgendaUI" rx="2.5" ry="2.5" style="stroke:#181818;stroke-width:0.5;" width="246" x="686" y="82.6348"/><ellipse cx="774.25" cy="98.6348" fill="#ADD1B2" rx="11" ry="11" style="stroke:#181818;stroke-width:1.0;"/><path d="M777.0156,94.5098 Q777.1719,94.291 777.3594,94.1816 Q777.5469,94.0723 777.7656,94.0723 Q778.1406,94.0723 778.375,94.3379 Q778.6094,94.5879 778.6094,95.1973 L778.6094,96.6504 Q778.6094,97.2598 778.375,97.5254 Q778.1406,97.791 777.7656,97.791 Q777.4219,97.791 777.2188,97.5879 Q777.0156,97.4004 776.9063,96.8848 Q776.8594,96.5254 776.6719,96.3379 Q776.3438,95.9629 775.7344,95.7441 Q775.125,95.5254 774.5,95.5254 Q773.7344,95.5254 773.0938,95.8535 Q772.4688,96.1816 771.9688,96.9316 Q771.4844,97.6816 771.4844,98.7129 L771.4844,99.8066 Q771.4844,101.041 772.375,101.8691 Q773.2656,102.6816 774.8594,102.6816 Q775.7969,102.6816 776.4531,102.4316 Q776.8438,102.2754 777.2656,101.8379 Q777.5313,101.5723 777.6719,101.4941 Q777.8281,101.416 778.0313,101.416 Q778.3594,101.416 778.6094,101.6816 Q778.875,101.9316 778.875,102.2754 Q778.875,102.6191 778.5313,103.0254 Q778.0313,103.6035 777.2344,103.9316 Q776.1563,104.3848 774.8594,104.3848 Q773.3438,104.3848 772.1406,103.7598 Q771.1563,103.2598 770.4688,102.1973 Q769.7813,101.1191 769.7813,99.8379 L769.7813,98.6816 Q769.7813,97.3535 770.3906,96.2129 Q771.0156,95.0566 772.1094,94.4473 Q773.2031,93.8223 774.4375,93.8223 Q775.1719,93.8223 775.8125,93.9941 Q776.4688,94.1504 777.0156,94.5098 Z " fill="#000000"/><text fill="#000000" font-family="sans-serif" font-size="14" lengthAdjust="spacing" textLength="61" x="794.75" y="104.4316">AgendaUI</text><line style="stroke:#181818;stroke-width:0.5;" x1="687" x2="931" y1="114.6348" y2="114.6348"/><text fill="#000000" font-family="sans-serif" font-size="14" lengthAdjust="spacing" textLength="203" x="692" y="133.7422">-AgendaTaskDTO selectedTask</text><line style="stroke:#181818;stroke-width:0.5;" x1="687" x2="931" y1="141.2559" y2="141.2559"/><text fill="#000000" font-family="sans-serif" font-size="14" lengthAdjust="spacing" textLength="187" x="692" y="160.3633">+initialize(location, resources)</text><text fill="#000000" font-family="sans-serif" font-size="14" lengthAdjust="spacing" textLength="95" x="692" y="178.9844">-fillTaskTable()</text><text fill="#000000" font-family="sans-serif" font-size="14" lengthAdjust="spacing" textLength="113" x="692" y="197.6055">+btnCancelTask()</text><text fill="#000000" font-family="sans-serif" font-size="14" lengthAdjust="spacing" textLength="124" x="692" y="216.2266">-updateTableView()</text><text fill="#000000" font-family="sans-serif" font-size="14" lengthAdjust="spacing" textLength="234" x="692" y="234.8477">-validateSelectedTask(selectedTask)</text></g><!--class CancelEntryAgendaController--><g id="elem_CancelEntryAgendaController"><rect codeLine="23" fill="#F1F1F1" height="141.1055" id="CancelEntryAgendaController" rx="2.5" ry="2.5" style="stroke:#181818;stroke-width:0.5;" width="260" x="791" y="328.6348"/><ellipse cx="824" cy="344.6348" fill="#ADD1B2" rx="11" ry="11" style="stroke:#181818;stroke-width:1.0;"/><path d="M826.7656,340.5098 Q826.9219,340.291 827.1094,340.1816 Q827.2969,340.0723 827.5156,340.0723 Q827.8906,340.0723 828.125,340.3379 Q828.3594,340.5879 828.3594,341.1973 L828.3594,342.6504 Q828.3594,343.2598 828.125,343.5254 Q827.8906,343.791 827.5156,343.791 Q827.1719,343.791 826.9688,343.5879 Q826.7656,343.4004 826.6563,342.8848 Q826.6094,342.5254 826.4219,342.3379 Q826.0938,341.9629 825.4844,341.7441 Q824.875,341.5254 824.25,341.5254 Q823.4844,341.5254 822.8438,341.8535 Q822.2188,342.1816 821.7188,342.9316 Q821.2344,343.6816 821.2344,344.7129 L821.2344,345.8066 Q821.2344,347.041 822.125,347.8691 Q823.0156,348.6816 824.6094,348.6816 Q825.5469,348.6816 826.2031,348.4316 Q826.5938,348.2754 827.0156,347.8379 Q827.2813,347.5723 827.4219,347.4941 Q827.5781,347.416 827.7813,347.416 Q828.1094,347.416 828.3594,347.6816 Q828.625,347.9316 828.625,348.2754 Q828.625,348.6191 828.2813,349.0254 Q827.7813,349.6035 826.9844,349.9316 Q825.9063,350.3848 824.6094,350.3848 Q823.0938,350.3848 821.8906,349.7598 Q820.9063,349.2598 820.2188,348.1973 Q819.5313,347.1191 819.5313,345.8379 L819.5313,344.6816 Q819.5313,343.3535 820.1406,342.2129 Q820.7656,341.0566 821.8594,340.4473 Q822.9531,339.8223 824.1875,339.8223 Q824.9219,339.8223 825.5625,339.9941 Q826.2188,340.1504 826.7656,340.5098 Z " fill="#000000"/><text fill="#000000" font-family="sans-serif" font-size="14" lengthAdjust="spacing" textLength="188" x="842" y="350.4316">CancelEntryAgendaController</text><line style="stroke:#181818;stroke-width:0.5;" x1="792" x2="1050" y1="360.6348" y2="360.6348"/><line style="stroke:#181818;stroke-width:0.5;" x1="792" x2="1050" y1="368.6348" y2="368.6348"/><text fill="#000000" font-family="sans-serif" font-size="14" lengthAdjust="spacing" textLength="206" x="797" y="387.7422">+CancelEntryAgendaController()</text><text fill="#000000" font-family="sans-serif" font-size="14" lengthAdjust="spacing" textLength="248" x="797" y="406.3633">+cancelTaskAgenda(agendaTaskDTO)</text><text fill="#000000" font-family="sans-serif" font-size="14" lengthAdjust="spacing" textLength="155" x="797" y="424.9844">+getAgendaRepository()</text><text fill="#000000" font-family="sans-serif" font-size="14" lengthAdjust="spacing" textLength="142" x="797" y="443.6055">+getTeamRepository()</text><text fill="#000000" font-family="sans-serif" font-size="14" lengthAdjust="spacing" textLength="152" x="797" y="462.2266">+getVehicleRepository()</text></g><!--class AgendaController--><g id="elem_AgendaController"><rect codeLine="31" fill="#F1F1F1" height="66.6211" id="AgendaController" rx="2.5" ry="2.5" style="stroke:#181818;stroke-width:0.5;" width="238" x="518" y="365.6348"/><ellipse cx="577.25" cy="381.6348" fill="#ADD1B2" rx="11" ry="11" style="stroke:#181818;stroke-width:1.0;"/><path d="M580.0156,377.5098 Q580.1719,377.291 580.3594,377.1816 Q580.5469,377.0723 580.7656,377.0723 Q581.1406,377.0723 581.375,377.3379 Q581.6094,377.5879 581.6094,378.1973 L581.6094,379.6504 Q581.6094,380.2598 581.375,380.5254 Q581.1406,380.791 580.7656,380.791 Q580.4219,380.791 580.2188,380.5879 Q580.0156,380.4004 579.9063,379.8848 Q579.8594,379.5254 579.6719,379.3379 Q579.3438,378.9629 578.7344,378.7441 Q578.125,378.5254 577.5,378.5254 Q576.7344,378.5254 576.0938,378.8535 Q575.4688,379.1816 574.9688,379.9316 Q574.4844,380.6816 574.4844,381.7129 L574.4844,382.8066 Q574.4844,384.041 575.375,384.8691 Q576.2656,385.6816 577.8594,385.6816 Q578.7969,385.6816 579.4531,385.4316 Q579.8438,385.2754 580.2656,384.8379 Q580.5313,384.5723 580.6719,384.4941 Q580.8281,384.416 581.0313,384.416 Q581.3594,384.416 581.6094,384.6816 Q581.875,384.9316 581.875,385.2754 Q581.875,385.6191 581.5313,386.0254 Q581.0313,386.6035 580.2344,386.9316 Q579.1563,387.3848 577.8594,387.3848 Q576.3438,387.3848 575.1406,386.7598 Q574.1563,386.2598 573.4688,385.1973 Q572.7813,384.1191 572.7813,382.8379 L572.7813,381.6816 Q572.7813,380.3535 573.3906,379.2129 Q574.0156,378.0566 575.1094,377.4473 Q576.2031,376.8223 577.4375,376.8223 Q578.1719,376.8223 578.8125,376.9941 Q579.4688,377.1504 580.0156,377.5098 Z " fill="#000000"/><text fill="#000000" font-family="sans-serif" font-size="14" lengthAdjust="spacing" textLength="111" x="597.75" y="387.4316">AgendaController</text><line style="stroke:#181818;stroke-width:0.5;" x1="519" x2="755" y1="397.6348" y2="397.6348"/><line style="stroke:#181818;stroke-width:0.5;" x1="519" x2="755" y1="405.6348" y2="405.6348"/><text fill="#000000" font-family="sans-serif" font-size="14" lengthAdjust="spacing" textLength="226" x="524" y="424.7422">+getAgendaTaskDTOManagerList()</text></g><!--class TeamRepository--><g id="elem_TeamRepository"><rect codeLine="38" fill="#F1F1F1" height="85.2422" id="TeamRepository" rx="2.5" ry="2.5" style="stroke:#181818;stroke-width:0.5;" width="416" x="1053" y="1371.6348"/><ellipse cx="1204.75" cy="1387.6348" fill="#ADD1B2" rx="11" ry="11" style="stroke:#181818;stroke-width:1.0;"/><path d="M1207.5156,1383.5098 Q1207.6719,1383.291 1207.8594,1383.1816 Q1208.0469,1383.0723 1208.2656,1383.0723 Q1208.6406,1383.0723 1208.875,1383.3379 Q1209.1094,1383.5879 1209.1094,1384.1973 L1209.1094,1385.6504 Q1209.1094,1386.2598 1208.875,1386.5254 Q1208.6406,1386.791 1208.2656,1386.791 Q1207.9219,1386.791 1207.7188,1386.5879 Q1207.5156,1386.4004 1207.4063,1385.8848 Q1207.3594,1385.5254 1207.1719,1385.3379 Q1206.8438,1384.9629 1206.2344,1384.7441 Q1205.625,1384.5254 1205,1384.5254 Q1204.2344,1384.5254 1203.5938,1384.8535 Q1202.9688,1385.1816 1202.4688,1385.9316 Q1201.9844,1386.6816 1201.9844,1387.7129 L1201.9844,1388.8066 Q1201.9844,1390.041 1202.875,1390.8691 Q1203.7656,1391.6816 1205.3594,1391.6816 Q1206.2969,1391.6816 1206.9531,1391.4316 Q1207.3438,1391.2754 1207.7656,1390.8379 Q1208.0313,1390.5723 1208.1719,1390.4941 Q1208.3281,1390.416 1208.5313,1390.416 Q1208.8594,1390.416 1209.1094,1390.6816 Q1209.375,1390.9316 1209.375,1391.2754 Q1209.375,1391.6191 1209.0313,1392.0254 Q1208.5313,1392.6035 1207.7344,1392.9316 Q1206.6563,1393.3848 1205.3594,1393.3848 Q1203.8438,1393.3848 1202.6406,1392.7598 Q1201.6563,1392.2598 1200.9688,1391.1973 Q1200.2813,1390.1191 1200.2813,1388.8379 L1200.2813,1387.6816 Q1200.2813,1386.3535 1200.8906,1385.2129 Q1201.5156,1384.0566 1202.6094,1383.4473 Q1203.7031,1382.8223 1204.9375,1382.8223 Q1205.6719,1382.8223 1206.3125,1382.9941 Q1206.9688,1383.1504 1207.5156,1383.5098 Z " fill="#000000"/><text fill="#000000" font-family="sans-serif" font-size="14" lengthAdjust="spacing" textLength="104" x="1225.25" y="1393.4316">TeamRepository</text><line style="stroke:#181818;stroke-width:0.5;" x1="1054" x2="1468" y1="1403.6348" y2="1403.6348"/><text fill="#000000" font-family="sans-serif" font-size="14" lengthAdjust="spacing" textLength="136" x="1059" y="1422.7422">-List&lt;Team&gt; teamList</text><line style="stroke:#181818;stroke-width:0.5;" x1="1054" x2="1468" y1="1430.2559" y2="1430.2559"/><text fill="#000000" font-family="sans-serif" font-size="14" lengthAdjust="spacing" textLength="404" x="1059" y="1449.3633">+removeWorkPeriodFromTeam(canceledTask, taskWorkPeriod)</text></g><!--class VehicleRepository--><g id="elem_VehicleRepository"><rect codeLine="44" fill="#F1F1F1" height="85.2422" id="VehicleRepository" rx="2.5" ry="2.5" style="stroke:#181818;stroke-width:0.5;" width="426" x="592" y="1371.6348"/><ellipse cx="743.75" cy="1387.6348" fill="#ADD1B2" rx="11" ry="11" style="stroke:#181818;stroke-width:1.0;"/><path d="M746.5156,1383.5098 Q746.6719,1383.291 746.8594,1383.1816 Q747.0469,1383.0723 747.2656,1383.0723 Q747.6406,1383.0723 747.875,1383.3379 Q748.1094,1383.5879 748.1094,1384.1973 L748.1094,1385.6504 Q748.1094,1386.2598 747.875,1386.5254 Q747.6406,1386.791 747.2656,1386.791 Q746.9219,1386.791 746.7188,1386.5879 Q746.5156,1386.4004 746.4063,1385.8848 Q746.3594,1385.5254 746.1719,1385.3379 Q745.8438,1384.9629 745.2344,1384.7441 Q744.625,1384.5254 744,1384.5254 Q743.2344,1384.5254 742.5938,1384.8535 Q741.9688,1385.1816 741.4688,1385.9316 Q740.9844,1386.6816 740.9844,1387.7129 L740.9844,1388.8066 Q740.9844,1390.041 741.875,1390.8691 Q742.7656,1391.6816 744.3594,1391.6816 Q745.2969,1391.6816 745.9531,1391.4316 Q746.3438,1391.2754 746.7656,1390.8379 Q747.0313,1390.5723 747.1719,1390.4941 Q747.3281,1390.416 747.5313,1390.416 Q747.8594,1390.416 748.1094,1390.6816 Q748.375,1390.9316 748.375,1391.2754 Q748.375,1391.6191 748.0313,1392.0254 Q747.5313,1392.6035 746.7344,1392.9316 Q745.6563,1393.3848 744.3594,1393.3848 Q742.8438,1393.3848 741.6406,1392.7598 Q740.6563,1392.2598 739.9688,1391.1973 Q739.2813,1390.1191 739.2813,1388.8379 L739.2813,1387.6816 Q739.2813,1386.3535 739.8906,1385.2129 Q740.5156,1384.0566 741.6094,1383.4473 Q742.7031,1382.8223 743.9375,1382.8223 Q744.6719,1382.8223 745.3125,1382.9941 Q745.9688,1383.1504 746.5156,1383.5098 Z " fill="#000000"/><text fill="#000000" font-family="sans-serif" font-size="14" lengthAdjust="spacing" textLength="114" x="764.25" y="1393.4316">VehicleRepository</text><line style="stroke:#181818;stroke-width:0.5;" x1="593" x2="1017" y1="1403.6348" y2="1403.6348"/><text fill="#000000" font-family="sans-serif" font-size="14" lengthAdjust="spacing" textLength="159" x="598" y="1422.7422">-List&lt;Vehicle&gt; vehicleList</text><line style="stroke:#181818;stroke-width:0.5;" x1="593" x2="1017" y1="1430.2559" y2="1430.2559"/><text fill="#000000" font-family="sans-serif" font-size="14" lengthAdjust="spacing" textLength="414" x="598" y="1449.3633">+removeWorkPeriodFromVehicle(canceledTask, taskWorkPeriod)</text></g><!--class AgendaRepository--><g id="elem_AgendaRepository"><rect codeLine="50" fill="#F1F1F1" height="85.2422" id="AgendaRepository" rx="2.5" ry="2.5" style="stroke:#181818;stroke-width:0.5;" width="433" x="123.5" y="1371.6348"/><ellipse cx="277.25" cy="1387.6348" fill="#ADD1B2" rx="11" ry="11" style="stroke:#181818;stroke-width:1.0;"/><path d="M280.0156,1383.5098 Q280.1719,1383.291 280.3594,1383.1816 Q280.5469,1383.0723 280.7656,1383.0723 Q281.1406,1383.0723 281.375,1383.3379 Q281.6094,1383.5879 281.6094,1384.1973 L281.6094,1385.6504 Q281.6094,1386.2598 281.375,1386.5254 Q281.1406,1386.791 280.7656,1386.791 Q280.4219,1386.791 280.2188,1386.5879 Q280.0156,1386.4004 279.9063,1385.8848 Q279.8594,1385.5254 279.6719,1385.3379 Q279.3438,1384.9629 278.7344,1384.7441 Q278.125,1384.5254 277.5,1384.5254 Q276.7344,1384.5254 276.0938,1384.8535 Q275.4688,1385.1816 274.9688,1385.9316 Q274.4844,1386.6816 274.4844,1387.7129 L274.4844,1388.8066 Q274.4844,1390.041 275.375,1390.8691 Q276.2656,1391.6816 277.8594,1391.6816 Q278.7969,1391.6816 279.4531,1391.4316 Q279.8438,1391.2754 280.2656,1390.8379 Q280.5313,1390.5723 280.6719,1390.4941 Q280.8281,1390.416 281.0313,1390.416 Q281.3594,1390.416 281.6094,1390.6816 Q281.875,1390.9316 281.875,1391.2754 Q281.875,1391.6191 281.5313,1392.0254 Q281.0313,1392.6035 280.2344,1392.9316 Q279.1563,1393.3848 277.8594,1393.3848 Q276.3438,1393.3848 275.1406,1392.7598 Q274.1563,1392.2598 273.4688,1391.1973 Q272.7813,1390.1191 272.7813,1388.8379 L272.7813,1387.6816 Q272.7813,1386.3535 273.3906,1385.2129 Q274.0156,1384.0566 275.1094,1383.4473 Q276.2031,1382.8223 277.4375,1382.8223 Q278.1719,1382.8223 278.8125,1382.9941 Q279.4688,1383.1504 280.0156,1383.5098 Z " fill="#000000"/><text fill="#000000" font-family="sans-serif" font-size="14" lengthAdjust="spacing" textLength="117" x="297.75" y="1393.4316">AgendaRepository</text><line style="stroke:#181818;stroke-width:0.5;" x1="124.5" x2="555.5" y1="1403.6348" y2="1403.6348"/><text fill="#000000" font-family="sans-serif" font-size="14" lengthAdjust="spacing" textLength="126" x="129.5" y="1422.7422">-List&lt;Task&gt; agenda</text><line style="stroke:#181818;stroke-width:0.5;" x1="124.5" x2="555.5" y1="1430.2559" y2="1430.2559"/><text fill="#000000" font-family="sans-serif" font-size="14" lengthAdjust="spacing" textLength="421" x="129.5" y="1449.3633">+updateTaskToCanceled(title, greenSpace, executionDate, status)</text></g><!--class Repositories--><g id="elem_Repositories"><rect codeLine="55" fill="#F1F1F1" height="141.1055" id="Repositories" rx="2.5" ry="2.5" style="stroke:#181818;stroke-width:0.5;" width="194" x="569" y="966.6348"/><ellipse cx="622.25" cy="982.6348" fill="#ADD1B2" rx="11" ry="11" style="stroke:#181818;stroke-width:1.0;"/><path d="M625.0156,978.5098 Q625.1719,978.291 625.3594,978.1816 Q625.5469,978.0723 625.7656,978.0723 Q626.1406,978.0723 626.375,978.3379 Q626.6094,978.5879 626.6094,979.1973 L626.6094,980.6504 Q626.6094,981.2598 626.375,981.5254 Q626.1406,981.791 625.7656,981.791 Q625.4219,981.791 625.2188,981.5879 Q625.0156,981.4004 624.9063,980.8848 Q624.8594,980.5254 624.6719,980.3379 Q624.3438,979.9629 623.7344,979.7441 Q623.125,979.5254 622.5,979.5254 Q621.7344,979.5254 621.0938,979.8535 Q620.4688,980.1816 619.9688,980.9316 Q619.4844,981.6816 619.4844,982.7129 L619.4844,983.8066 Q619.4844,985.041 620.375,985.8691 Q621.2656,986.6816 622.8594,986.6816 Q623.7969,986.6816 624.4531,986.4316 Q624.8438,986.2754 625.2656,985.8379 Q625.5313,985.5723 625.6719,985.4941 Q625.8281,985.416 626.0313,985.416 Q626.3594,985.416 626.6094,985.6816 Q626.875,985.9316 626.875,986.2754 Q626.875,986.6191 626.5313,987.0254 Q626.0313,987.6035 625.2344,987.9316 Q624.1563,988.3848 622.8594,988.3848 Q621.3438,988.3848 620.1406,987.7598 Q619.1563,987.2598 618.4688,986.1973 Q617.7813,985.1191 617.7813,983.8379 L617.7813,982.6816 Q617.7813,981.3535 618.3906,980.2129 Q619.0156,979.0566 620.1094,978.4473 Q621.2031,977.8223 622.4375,977.8223 Q623.1719,977.8223 623.8125,977.9941 Q624.4688,978.1504 625.0156,978.5098 Z " fill="#000000"/><text fill="#000000" font-family="sans-serif" font-size="14" lengthAdjust="spacing" textLength="79" x="642.75" y="988.4316">Repositories</text><line style="stroke:#181818;stroke-width:0.5;" x1="570" x2="762" y1="998.6348" y2="998.6348"/><line style="stroke:#181818;stroke-width:0.5;" x1="570" x2="762" y1="1006.6348" y2="1006.6348"/><text fill="#000000" font-family="sans-serif" font-size="14" lengthAdjust="spacing" textLength="94" x="575" y="1025.7422">-Repositories()</text><text fill="#000000" font-family="sans-serif" font-size="14" lengthAdjust="spacing" textLength="182" x="575" y="1044.3633">+getInstance() : Repositories</text><text fill="#000000" font-family="sans-serif" font-size="14" lengthAdjust="spacing" textLength="142" x="575" y="1062.9844">+getTeamRepository()</text><text fill="#000000" font-family="sans-serif" font-size="14" lengthAdjust="spacing" textLength="155" x="575" y="1081.6055">+getAgendaRepository()</text><text fill="#000000" font-family="sans-serif" font-size="14" lengthAdjust="spacing" textLength="152" x="575" y="1100.2266">+getVehicleRepository()</text></g><!--class ApplicationSession--><g id="elem_ApplicationSession"><rect codeLine="63" fill="#F1F1F1" height="122.4844" id="ApplicationSession" rx="2.5" ry="2.5" style="stroke:#181818;stroke-width:0.5;" width="234" x="221" y="976.1348"/><ellipse cx="274.25" cy="992.1348" fill="#ADD1B2" rx="11" ry="11" style="stroke:#181818;stroke-width:1.0;"/><path d="M277.0156,988.0098 Q277.1719,987.791 277.3594,987.6816 Q277.5469,987.5723 277.7656,987.5723 Q278.1406,987.5723 278.375,987.8379 Q278.6094,988.0879 278.6094,988.6973 L278.6094,990.1504 Q278.6094,990.7598 278.375,991.0254 Q278.1406,991.291 277.7656,991.291 Q277.4219,991.291 277.2188,991.0879 Q277.0156,990.9004 276.9063,990.3848 Q276.8594,990.0254 276.6719,989.8379 Q276.3438,989.4629 275.7344,989.2441 Q275.125,989.0254 274.5,989.0254 Q273.7344,989.0254 273.0938,989.3535 Q272.4688,989.6816 271.9688,990.4316 Q271.4844,991.1816 271.4844,992.2129 L271.4844,993.3066 Q271.4844,994.541 272.375,995.3691 Q273.2656,996.1816 274.8594,996.1816 Q275.7969,996.1816 276.4531,995.9316 Q276.8438,995.7754 277.2656,995.3379 Q277.5313,995.0723 277.6719,994.9941 Q277.8281,994.916 278.0313,994.916 Q278.3594,994.916 278.6094,995.1816 Q278.875,995.4316 278.875,995.7754 Q278.875,996.1191 278.5313,996.5254 Q278.0313,997.1035 277.2344,997.4316 Q276.1563,997.8848 274.8594,997.8848 Q273.3438,997.8848 272.1406,997.2598 Q271.1563,996.7598 270.4688,995.6973 Q269.7813,994.6191 269.7813,993.3379 L269.7813,992.1816 Q269.7813,990.8535 270.3906,989.7129 Q271.0156,988.5566 272.1094,987.9473 Q273.2031,987.3223 274.4375,987.3223 Q275.1719,987.3223 275.8125,987.4941 Q276.4688,987.6504 277.0156,988.0098 Z " fill="#000000"/><text fill="#000000" font-family="sans-serif" font-size="14" lengthAdjust="spacing" textLength="119" x="294.75" y="997.9316">ApplicationSession</text><line style="stroke:#181818;stroke-width:0.5;" x1="222" x2="454" y1="1008.1348" y2="1008.1348"/><line style="stroke:#181818;stroke-width:0.5;" x1="222" x2="454" y1="1016.1348" y2="1016.1348"/><text fill="#000000" font-family="sans-serif" font-size="14" lengthAdjust="spacing" textLength="134" x="227" y="1035.2422">-ApplicationSession()</text><text fill="#000000" font-family="sans-serif" font-size="14" lengthAdjust="spacing" textLength="222" x="227" y="1053.8633">+getInstance() : ApplicationSession</text><text fill="#000000" font-family="sans-serif" font-size="14" lengthAdjust="spacing" textLength="196" x="227" y="1072.4844">+getAuthenticationRepository()</text><text fill="#000000" font-family="sans-serif" font-size="14" lengthAdjust="spacing" textLength="136" x="227" y="1091.1055">+getCurrentSession()</text></g><!--class UserSession--><g id="elem_UserSession"><rect codeLine="71" fill="#F1F1F1" height="66.6211" id="UserSession" rx="2.5" ry="2.5" style="stroke:#181818;stroke-width:0.5;" width="113" x="161.5" y="1214.1348"/><ellipse cx="177.4" cy="1230.1348" fill="#ADD1B2" rx="11" ry="11" style="stroke:#181818;stroke-width:1.0;"/><path d="M180.1656,1226.0098 Q180.3219,1225.791 180.5094,1225.6816 Q180.6969,1225.5723 180.9156,1225.5723 Q181.2906,1225.5723 181.525,1225.8379 Q181.7594,1226.0879 181.7594,1226.6973 L181.7594,1228.1504 Q181.7594,1228.7598 181.525,1229.0254 Q181.2906,1229.291 180.9156,1229.291 Q180.5719,1229.291 180.3688,1229.0879 Q180.1656,1228.9004 180.0563,1228.3848 Q180.0094,1228.0254 179.8219,1227.8379 Q179.4938,1227.4629 178.8844,1227.2441 Q178.275,1227.0254 177.65,1227.0254 Q176.8844,1227.0254 176.2438,1227.3535 Q175.6188,1227.6816 175.1188,1228.4316 Q174.6344,1229.1816 174.6344,1230.2129 L174.6344,1231.3066 Q174.6344,1232.541 175.525,1233.3691 Q176.4156,1234.1816 178.0094,1234.1816 Q178.9469,1234.1816 179.6031,1233.9316 Q179.9938,1233.7754 180.4156,1233.3379 Q180.6813,1233.0723 180.8219,1232.9941 Q180.9781,1232.916 181.1813,1232.916 Q181.5094,1232.916 181.7594,1233.1816 Q182.025,1233.4316 182.025,1233.7754 Q182.025,1234.1191 181.6813,1234.5254 Q181.1813,1235.1035 180.3844,1235.4316 Q179.3063,1235.8848 178.0094,1235.8848 Q176.4938,1235.8848 175.2906,1235.2598 Q174.3063,1234.7598 173.6188,1233.6973 Q172.9313,1232.6191 172.9313,1231.3379 L172.9313,1230.1816 Q172.9313,1228.8535 173.5406,1227.7129 Q174.1656,1226.5566 175.2594,1225.9473 Q176.3531,1225.3223 177.5875,1225.3223 Q178.3219,1225.3223 178.9625,1225.4941 Q179.6188,1225.6504 180.1656,1226.0098 Z " fill="#000000"/><text fill="#000000" font-family="sans-serif" font-size="14" lengthAdjust="spacing" textLength="79" x="191.6" y="1235.9316">UserSession</text><line style="stroke:#181818;stroke-width:0.5;" x1="162.5" x2="273.5" y1="1246.1348" y2="1246.1348"/><line style="stroke:#181818;stroke-width:0.5;" x1="162.5" x2="273.5" y1="1254.1348" y2="1254.1348"/><text fill="#000000" font-family="sans-serif" font-size="14" lengthAdjust="spacing" textLength="101" x="167.5" y="1273.2422">+getUserEmail()</text></g><!--class Email--><g id="elem_Email"><rect codeLine="76" fill="#F1F1F1" height="48" id="Email" rx="2.5" ry="2.5" style="stroke:#181818;stroke-width:0.5;" width="66" x="22" y="1390.1348"/><ellipse cx="37" cy="1406.1348" fill="#ADD1B2" rx="11" ry="11" style="stroke:#181818;stroke-width:1.0;"/><path d="M39.7656,1402.0098 Q39.9219,1401.791 40.1094,1401.6816 Q40.2969,1401.5723 40.5156,1401.5723 Q40.8906,1401.5723 41.125,1401.8379 Q41.3594,1402.0879 41.3594,1402.6973 L41.3594,1404.1504 Q41.3594,1404.7598 41.125,1405.0254 Q40.8906,1405.291 40.5156,1405.291 Q40.1719,1405.291 39.9688,1405.0879 Q39.7656,1404.9004 39.6563,1404.3848 Q39.6094,1404.0254 39.4219,1403.8379 Q39.0938,1403.4629 38.4844,1403.2441 Q37.875,1403.0254 37.25,1403.0254 Q36.4844,1403.0254 35.8438,1403.3535 Q35.2188,1403.6816 34.7188,1404.4316 Q34.2344,1405.1816 34.2344,1406.2129 L34.2344,1407.3066 Q34.2344,1408.541 35.125,1409.3691 Q36.0156,1410.1816 37.6094,1410.1816 Q38.5469,1410.1816 39.2031,1409.9316 Q39.5938,1409.7754 40.0156,1409.3379 Q40.2813,1409.0723 40.4219,1408.9941 Q40.5781,1408.916 40.7813,1408.916 Q41.1094,1408.916 41.3594,1409.1816 Q41.625,1409.4316 41.625,1409.7754 Q41.625,1410.1191 41.2813,1410.5254 Q40.7813,1411.1035 39.9844,1411.4316 Q38.9063,1411.8848 37.6094,1411.8848 Q36.0938,1411.8848 34.8906,1411.2598 Q33.9063,1410.7598 33.2188,1409.6973 Q32.5313,1408.6191 32.5313,1407.3379 L32.5313,1406.1816 Q32.5313,1404.8535 33.1406,1403.7129 Q33.7656,1402.5566 34.8594,1401.9473 Q35.9531,1401.3223 37.1875,1401.3223 Q37.9219,1401.3223 38.5625,1401.4941 Q39.2188,1401.6504 39.7656,1402.0098 Z " fill="#000000"/><text fill="#000000" font-family="sans-serif" font-size="14" lengthAdjust="spacing" textLength="34" x="51" y="1411.9316">Email</text><line style="stroke:#181818;stroke-width:0.5;" x1="23" x2="87" y1="1422.1348" y2="1422.1348"/><line style="stroke:#181818;stroke-width:0.5;" x1="23" x2="87" y1="1430.1348" y2="1430.1348"/></g><!--class Vehicle--><g id="elem_Vehicle"><rect codeLine="84" fill="#F1F1F1" height="178.3477" id="Vehicle" rx="2.5" ry="2.5" style="stroke:#181818;stroke-width:0.5;" width="287" x="661.5" y="1570.1348"/><ellipse cx="777.75" cy="1586.1348" fill="#ADD1B2" rx="11" ry="11" style="stroke:#181818;stroke-width:1.0;"/><path d="M780.5156,1582.0098 Q780.6719,1581.791 780.8594,1581.6816 Q781.0469,1581.5723 781.2656,1581.5723 Q781.6406,1581.5723 781.875,1581.8379 Q782.1094,1582.0879 782.1094,1582.6973 L782.1094,1584.1504 Q782.1094,1584.7598 781.875,1585.0254 Q781.6406,1585.291 781.2656,1585.291 Q780.9219,1585.291 780.7188,1585.0879 Q780.5156,1584.9004 780.4063,1584.3848 Q780.3594,1584.0254 780.1719,1583.8379 Q779.8438,1583.4629 779.2344,1583.2441 Q778.625,1583.0254 778,1583.0254 Q777.2344,1583.0254 776.5938,1583.3535 Q775.9688,1583.6816 775.4688,1584.4316 Q774.9844,1585.1816 774.9844,1586.2129 L774.9844,1587.3066 Q774.9844,1588.541 775.875,1589.3691 Q776.7656,1590.1816 778.3594,1590.1816 Q779.2969,1590.1816 779.9531,1589.9316 Q780.3438,1589.7754 780.7656,1589.3379 Q781.0313,1589.0723 781.1719,1588.9941 Q781.3281,1588.916 781.5313,1588.916 Q781.8594,1588.916 782.1094,1589.1816 Q782.375,1589.4316 782.375,1589.7754 Q782.375,1590.1191 782.0313,1590.5254 Q781.5313,1591.1035 780.7344,1591.4316 Q779.6563,1591.8848 778.3594,1591.8848 Q776.8438,1591.8848 775.6406,1591.2598 Q774.6563,1590.7598 773.9688,1589.6973 Q773.2813,1588.6191 773.2813,1587.3379 L773.2813,1586.1816 Q773.2813,1584.8535 773.8906,1583.7129 Q774.5156,1582.5566 775.6094,1581.9473 Q776.7031,1581.3223 777.9375,1581.3223 Q778.6719,1581.3223 779.3125,1581.4941 Q779.9688,1581.6504 780.5156,1582.0098 Z " fill="#000000"/><text fill="#000000" font-family="sans-serif" font-size="14" lengthAdjust="spacing" textLength="46" x="798.25" y="1591.9316">Vehicle</text><line style="stroke:#181818;stroke-width:0.5;" x1="662.5" x2="947.5" y1="1602.1348" y2="1602.1348"/><text fill="#000000" font-family="sans-serif" font-size="14" lengthAdjust="spacing" textLength="91" x="667.5" y="1621.2422">+String plateId</text><text fill="#000000" font-family="sans-serif" font-size="14" lengthAdjust="spacing" textLength="86" x="667.5" y="1639.8633">+String brand</text><text fill="#000000" font-family="sans-serif" font-size="14" lengthAdjust="spacing" textLength="87" x="667.5" y="1658.4844">+String model</text><text fill="#000000" font-family="sans-serif" font-size="14" lengthAdjust="spacing" textLength="117" x="667.5" y="1677.1055">+VehicleType type</text><text fill="#000000" font-family="sans-serif" font-size="14" lengthAdjust="spacing" textLength="80" x="667.5" y="1695.7266">+double tare</text><text fill="#000000" font-family="sans-serif" font-size="14" lengthAdjust="spacing" textLength="12" x="667.5" y="1714.3477">...</text><line style="stroke:#181818;stroke-width:0.5;" x1="662.5" x2="947.5" y1="1721.8613" y2="1721.8613"/><text fill="#000000" font-family="sans-serif" font-size="14" lengthAdjust="spacing" textLength="275" x="667.5" y="1740.9688">+removeWorkPeriodIfExists(oldWorkPeriod)</text></g><!--class Team--><g id="elem_Team"><rect codeLine="95" fill="#F1F1F1" height="103.8633" id="Team" rx="2.5" ry="2.5" style="stroke:#181818;stroke-width:0.5;" width="264" x="984" y="1607.1348"/><ellipse cx="1093.75" cy="1623.1348" fill="#ADD1B2" rx="11" ry="11" style="stroke:#181818;stroke-width:1.0;"/><path d="M1096.5156,1619.0098 Q1096.6719,1618.791 1096.8594,1618.6816 Q1097.0469,1618.5723 1097.2656,1618.5723 Q1097.6406,1618.5723 1097.875,1618.8379 Q1098.1094,1619.0879 1098.1094,1619.6973 L1098.1094,1621.1504 Q1098.1094,1621.7598 1097.875,1622.0254 Q1097.6406,1622.291 1097.2656,1622.291 Q1096.9219,1622.291 1096.7188,1622.0879 Q1096.5156,1621.9004 1096.4063,1621.3848 Q1096.3594,1621.0254 1096.1719,1620.8379 Q1095.8438,1620.4629 1095.2344,1620.2441 Q1094.625,1620.0254 1094,1620.0254 Q1093.2344,1620.0254 1092.5938,1620.3535 Q1091.9688,1620.6816 1091.4688,1621.4316 Q1090.9844,1622.1816 1090.9844,1623.2129 L1090.9844,1624.3066 Q1090.9844,1625.541 1091.875,1626.3691 Q1092.7656,1627.1816 1094.3594,1627.1816 Q1095.2969,1627.1816 1095.9531,1626.9316 Q1096.3438,1626.7754 1096.7656,1626.3379 Q1097.0313,1626.0723 1097.1719,1625.9941 Q1097.3281,1625.916 1097.5313,1625.916 Q1097.8594,1625.916 1098.1094,1626.1816 Q1098.375,1626.4316 1098.375,1626.7754 Q1098.375,1627.1191 1098.0313,1627.5254 Q1097.5313,1628.1035 1096.7344,1628.4316 Q1095.6563,1628.8848 1094.3594,1628.8848 Q1092.8438,1628.8848 1091.6406,1628.2598 Q1090.6563,1627.7598 1089.9688,1626.6973 Q1089.2813,1625.6191 1089.2813,1624.3379 L1089.2813,1623.1816 Q1089.2813,1621.8535 1089.8906,1620.7129 Q1090.5156,1619.5566 1091.6094,1618.9473 Q1092.7031,1618.3223 1093.9375,1618.3223 Q1094.6719,1618.3223 1095.3125,1618.4941 Q1095.9688,1618.6504 1096.5156,1619.0098 Z " fill="#000000"/><text fill="#000000" font-family="sans-serif" font-size="14" lengthAdjust="spacing" textLength="36" x="1114.25" y="1628.9316">Team</text><line style="stroke:#181818;stroke-width:0.5;" x1="985" x2="1247" y1="1639.1348" y2="1639.1348"/><text fill="#000000" font-family="sans-serif" font-size="14" lengthAdjust="spacing" textLength="183" x="990" y="1658.2422">-List&lt;Collaborator&gt; members</text><text fill="#000000" font-family="sans-serif" font-size="14" lengthAdjust="spacing" textLength="198" x="990" y="1676.8633">-List&lt;WorkPeriod&gt; workPeriods</text><line style="stroke:#181818;stroke-width:0.5;" x1="985" x2="1247" y1="1684.377" y2="1684.377"/><text fill="#000000" font-family="sans-serif" font-size="14" lengthAdjust="spacing" textLength="252" x="990" y="1703.4844">+removeWorkPeriodIfExists(workPeriod)</text></g><!--class Task--><g id="elem_Task"><rect codeLine="102" fill="#F1F1F1" height="196.9688" id="Task" rx="2.5" ry="2.5" style="stroke:#181818;stroke-width:0.5;" width="310" x="316" y="1560.6348"/><ellipse cx="451.25" cy="1576.6348" fill="#ADD1B2" rx="11" ry="11" style="stroke:#181818;stroke-width:1.0;"/><path d="M454.0156,1572.5098 Q454.1719,1572.291 454.3594,1572.1816 Q454.5469,1572.0723 454.7656,1572.0723 Q455.1406,1572.0723 455.375,1572.3379 Q455.6094,1572.5879 455.6094,1573.1973 L455.6094,1574.6504 Q455.6094,1575.2598 455.375,1575.5254 Q455.1406,1575.791 454.7656,1575.791 Q454.4219,1575.791 454.2188,1575.5879 Q454.0156,1575.4004 453.9063,1574.8848 Q453.8594,1574.5254 453.6719,1574.3379 Q453.3438,1573.9629 452.7344,1573.7441 Q452.125,1573.5254 451.5,1573.5254 Q450.7344,1573.5254 450.0938,1573.8535 Q449.4688,1574.1816 448.9688,1574.9316 Q448.4844,1575.6816 448.4844,1576.7129 L448.4844,1577.8066 Q448.4844,1579.041 449.375,1579.8691 Q450.2656,1580.6816 451.8594,1580.6816 Q452.7969,1580.6816 453.4531,1580.4316 Q453.8438,1580.2754 454.2656,1579.8379 Q454.5313,1579.5723 454.6719,1579.4941 Q454.8281,1579.416 455.0313,1579.416 Q455.3594,1579.416 455.6094,1579.6816 Q455.875,1579.9316 455.875,1580.2754 Q455.875,1580.6191 455.5313,1581.0254 Q455.0313,1581.6035 454.2344,1581.9316 Q453.1563,1582.3848 451.8594,1582.3848 Q450.3438,1582.3848 449.1406,1581.7598 Q448.1563,1581.2598 447.4688,1580.1973 Q446.7813,1579.1191 446.7813,1577.8379 L446.7813,1576.6816 Q446.7813,1575.3535 447.3906,1574.2129 Q448.0156,1573.0566 449.1094,1572.4473 Q450.2031,1571.8223 451.4375,1571.8223 Q452.1719,1571.8223 452.8125,1571.9941 Q453.4688,1572.1504 454.0156,1572.5098 Z " fill="#000000"/><text fill="#000000" font-family="sans-serif" font-size="14" lengthAdjust="spacing" textLength="31" x="471.75" y="1582.4316">Task</text><line style="stroke:#181818;stroke-width:0.5;" x1="317" x2="625" y1="1592.6348" y2="1592.6348"/><text fill="#000000" font-family="sans-serif" font-size="14" lengthAdjust="spacing" textLength="72" x="322" y="1611.7422">-String title;</text><text fill="#000000" font-family="sans-serif" font-size="14" lengthAdjust="spacing" textLength="119" x="322" y="1630.3633">-String description;</text><text fill="#000000" font-family="sans-serif" font-size="14" lengthAdjust="spacing" textLength="134" x="322" y="1648.9844">-TaskType taskType;</text><text fill="#000000" font-family="sans-serif" font-size="14" lengthAdjust="spacing" textLength="91" x="322" y="1667.6055">-Status status;</text><text fill="#000000" font-family="sans-serif" font-size="14" lengthAdjust="spacing" textLength="12" x="322" y="1686.2266">...</text><line style="stroke:#181818;stroke-width:0.5;" x1="317" x2="625" y1="1693.7402" y2="1693.7402"/><text fill="#000000" font-family="sans-serif" font-size="14" lengthAdjust="spacing" textLength="298" x="322" y="1712.8477">+Task(title, description, taskType, greenSpace,</text><text fill="#000000" font-family="sans-serif" font-size="14" lengthAdjust="spacing" textLength="195" x="322" y="1731.4688">urgency, days, hours, minutes)</text><text fill="#000000" font-family="sans-serif" font-size="14" lengthAdjust="spacing" textLength="22" x="322" y="1750.0898">(...)</text></g><!--class WorkPeriod--><g id="elem_WorkPeriod"><rect codeLine="113" fill="#F1F1F1" height="159.7266" id="WorkPeriod" rx="2.5" ry="2.5" style="stroke:#181818;stroke-width:0.5;" width="143" x="744.5" y="2075.6348"/><ellipse cx="776.15" cy="2091.6348" fill="#ADD1B2" rx="11" ry="11" style="stroke:#181818;stroke-width:1.0;"/><path d="M778.9156,2087.5098 Q779.0719,2087.291 779.2594,2087.1816 Q779.4469,2087.0723 779.6656,2087.0723 Q780.0406,2087.0723 780.275,2087.3379 Q780.5094,2087.5879 780.5094,2088.1973 L780.5094,2089.6504 Q780.5094,2090.2598 780.275,2090.5254 Q780.0406,2090.791 779.6656,2090.791 Q779.3219,2090.791 779.1188,2090.5879 Q778.9156,2090.4004 778.8063,2089.8848 Q778.7594,2089.5254 778.5719,2089.3379 Q778.2438,2088.9629 777.6344,2088.7441 Q777.025,2088.5254 776.4,2088.5254 Q775.6344,2088.5254 774.9938,2088.8535 Q774.3688,2089.1816 773.8688,2089.9316 Q773.3844,2090.6816 773.3844,2091.7129 L773.3844,2092.8066 Q773.3844,2094.041 774.275,2094.8691 Q775.1656,2095.6816 776.7594,2095.6816 Q777.6969,2095.6816 778.3531,2095.4316 Q778.7438,2095.2754 779.1656,2094.8379 Q779.4313,2094.5723 779.5719,2094.4941 Q779.7281,2094.416 779.9313,2094.416 Q780.2594,2094.416 780.5094,2094.6816 Q780.775,2094.9316 780.775,2095.2754 Q780.775,2095.6191 780.4313,2096.0254 Q779.9313,2096.6035 779.1344,2096.9316 Q778.0563,2097.3848 776.7594,2097.3848 Q775.2438,2097.3848 774.0406,2096.7598 Q773.0563,2096.2598 772.3688,2095.1973 Q771.6813,2094.1191 771.6813,2092.8379 L771.6813,2091.6816 Q771.6813,2090.3535 772.2906,2089.2129 Q772.9156,2088.0566 774.0094,2087.4473 Q775.1031,2086.8223 776.3375,2086.8223 Q777.0719,2086.8223 777.7125,2086.9941 Q778.3688,2087.1504 778.9156,2087.5098 Z " fill="#000000"/><text fill="#000000" font-family="sans-serif" font-size="14" lengthAdjust="spacing" textLength="74" x="793.85" y="2097.4316">WorkPeriod</text><line style="stroke:#181818;stroke-width:0.5;" x1="745.5" x2="886.5" y1="2107.6348" y2="2107.6348"/><text fill="#000000" font-family="sans-serif" font-size="14" lengthAdjust="spacing" textLength="131" x="750.5" y="2126.7422">+Date workStartDate</text><text fill="#000000" font-family="sans-serif" font-size="14" lengthAdjust="spacing" textLength="116" x="750.5" y="2145.3633">+int workStartHour</text><text fill="#000000" font-family="sans-serif" font-size="14" lengthAdjust="spacing" textLength="108" x="750.5" y="2163.9844">+int workStartMin</text><text fill="#000000" font-family="sans-serif" font-size="14" lengthAdjust="spacing" textLength="126" x="750.5" y="2182.6055">+Date workEndDate</text><text fill="#000000" font-family="sans-serif" font-size="14" lengthAdjust="spacing" textLength="111" x="750.5" y="2201.2266">+int workEndHour</text><text fill="#000000" font-family="sans-serif" font-size="14" lengthAdjust="spacing" textLength="103" x="750.5" y="2219.8477">+int workEndMin</text><line style="stroke:#181818;stroke-width:0.5;" x1="745.5" x2="886.5" y1="2227.3613" y2="2227.3613"/></g><!--class TaskDuration--><g id="elem_TaskDuration"><rect codeLine="123" fill="#F1F1F1" height="178.3477" id="TaskDuration" rx="2.5" ry="2.5" style="stroke:#181818;stroke-width:0.5;" width="292" x="320" y="1836.6348"/><ellipse cx="419.25" cy="1852.6348" fill="#ADD1B2" rx="11" ry="11" style="stroke:#181818;stroke-width:1.0;"/><path d="M422.0156,1848.5098 Q422.1719,1848.291 422.3594,1848.1816 Q422.5469,1848.0723 422.7656,1848.0723 Q423.1406,1848.0723 423.375,1848.3379 Q423.6094,1848.5879 423.6094,1849.1973 L423.6094,1850.6504 Q423.6094,1851.2598 423.375,1851.5254 Q423.1406,1851.791 422.7656,1851.791 Q422.4219,1851.791 422.2188,1851.5879 Q422.0156,1851.4004 421.9063,1850.8848 Q421.8594,1850.5254 421.6719,1850.3379 Q421.3438,1849.9629 420.7344,1849.7441 Q420.125,1849.5254 419.5,1849.5254 Q418.7344,1849.5254 418.0938,1849.8535 Q417.4688,1850.1816 416.9688,1850.9316 Q416.4844,1851.6816 416.4844,1852.7129 L416.4844,1853.8066 Q416.4844,1855.041 417.375,1855.8691 Q418.2656,1856.6816 419.8594,1856.6816 Q420.7969,1856.6816 421.4531,1856.4316 Q421.8438,1856.2754 422.2656,1855.8379 Q422.5313,1855.5723 422.6719,1855.4941 Q422.8281,1855.416 423.0313,1855.416 Q423.3594,1855.416 423.6094,1855.6816 Q423.875,1855.9316 423.875,1856.2754 Q423.875,1856.6191 423.5313,1857.0254 Q423.0313,1857.6035 422.2344,1857.9316 Q421.1563,1858.3848 419.8594,1858.3848 Q418.3438,1858.3848 417.1406,1857.7598 Q416.1563,1857.2598 415.4688,1856.1973 Q414.7813,1855.1191 414.7813,1853.8379 L414.7813,1852.6816 Q414.7813,1851.3535 415.3906,1850.2129 Q416.0156,1849.0566 417.1094,1848.4473 Q418.2031,1847.8223 419.4375,1847.8223 Q420.1719,1847.8223 420.8125,1847.9941 Q421.4688,1848.1504 422.0156,1848.5098 Z " fill="#000000"/><text fill="#000000" font-family="sans-serif" font-size="14" lengthAdjust="spacing" textLength="85" x="439.75" y="1858.4316">TaskDuration</text><line style="stroke:#181818;stroke-width:0.5;" x1="321" x2="611" y1="1868.6348" y2="1868.6348"/><text fill="#000000" font-family="sans-serif" font-size="14" lengthAdjust="spacing" textLength="58" x="326" y="1887.7422">-int days;</text><text fill="#000000" font-family="sans-serif" font-size="14" lengthAdjust="spacing" textLength="64" x="326" y="1906.3633">-int hours;</text><text fill="#000000" font-family="sans-serif" font-size="14" lengthAdjust="spacing" textLength="77" x="326" y="1924.9844">-int minutes;</text><text fill="#000000" font-family="sans-serif" font-size="14" lengthAdjust="spacing" textLength="158" x="326" y="1943.6055">-int totalDurationMinutes;</text><line style="stroke:#181818;stroke-width:0.5;" x1="321" x2="611" y1="1951.1191" y2="1951.1191"/><text fill="#000000" font-family="sans-serif" font-size="14" lengthAdjust="spacing" textLength="234" x="326" y="1970.2266">+TaskDuration(days, hours, minutes)</text><text fill="#000000" font-family="sans-serif" font-size="14" lengthAdjust="spacing" textLength="253" x="326" y="1988.8477">+setTaskDuration(days, hours, minutes)</text><text fill="#000000" font-family="sans-serif" font-size="14" lengthAdjust="spacing" textLength="280" x="326" y="2007.4688">-validateTaskDuration(days, hours, minutes)</text></g><!--class AgendaMapper--><g id="elem_AgendaMapper"><rect codeLine="140" fill="#F1F1F1" height="85.2422" id="AgendaMapper" rx="2.5" ry="2.5" style="stroke:#181818;stroke-width:0.5;" width="442" x="1204" y="356.6348"/><ellipse cx="1372.25" cy="372.6348" fill="#ADD1B2" rx="11" ry="11" style="stroke:#181818;stroke-width:1.0;"/><path d="M1375.0156,368.5098 Q1375.1719,368.291 1375.3594,368.1816 Q1375.5469,368.0723 1375.7656,368.0723 Q1376.1406,368.0723 1376.375,368.3379 Q1376.6094,368.5879 1376.6094,369.1973 L1376.6094,370.6504 Q1376.6094,371.2598 1376.375,371.5254 Q1376.1406,371.791 1375.7656,371.791 Q1375.4219,371.791 1375.2188,371.5879 Q1375.0156,371.4004 1374.9063,370.8848 Q1374.8594,370.5254 1374.6719,370.3379 Q1374.3438,369.9629 1373.7344,369.7441 Q1373.125,369.5254 1372.5,369.5254 Q1371.7344,369.5254 1371.0938,369.8535 Q1370.4688,370.1816 1369.9688,370.9316 Q1369.4844,371.6816 1369.4844,372.7129 L1369.4844,373.8066 Q1369.4844,375.041 1370.375,375.8691 Q1371.2656,376.6816 1372.8594,376.6816 Q1373.7969,376.6816 1374.4531,376.4316 Q1374.8438,376.2754 1375.2656,375.8379 Q1375.5313,375.5723 1375.6719,375.4941 Q1375.8281,375.416 1376.0313,375.416 Q1376.3594,375.416 1376.6094,375.6816 Q1376.875,375.9316 1376.875,376.2754 Q1376.875,376.6191 1376.5313,377.0254 Q1376.0313,377.6035 1375.2344,377.9316 Q1374.1563,378.3848 1372.8594,378.3848 Q1371.3438,378.3848 1370.1406,377.7598 Q1369.1563,377.2598 1368.4688,376.1973 Q1367.7813,375.1191 1367.7813,373.8379 L1367.7813,372.6816 Q1367.7813,371.3535 1368.3906,370.2129 Q1369.0156,369.0566 1370.1094,368.4473 Q1371.2031,367.8223 1372.4375,367.8223 Q1373.1719,367.8223 1373.8125,367.9941 Q1374.4688,368.1504 1375.0156,368.5098 Z " fill="#000000"/><text fill="#000000" font-family="sans-serif" font-size="14" lengthAdjust="spacing" textLength="97" x="1392.75" y="378.4316">AgendaMapper</text><line style="stroke:#181818;stroke-width:0.5;" x1="1205" x2="1645" y1="388.6348" y2="388.6348"/><line style="stroke:#181818;stroke-width:0.5;" x1="1205" x2="1645" y1="396.6348" y2="396.6348"/><text fill="#000000" font-family="sans-serif" font-size="14" lengthAdjust="spacing" textLength="115" x="1210" y="415.7422">+AgendaMapper()</text><text fill="#000000" font-family="sans-serif" font-size="14" lengthAdjust="spacing" textLength="430" x="1210" y="434.3633">+toDTO(agendaTask, teamDTO, List&lt;VehicleDTO&gt; vehicleDTOList)</text></g><!--class AgendaTaskDTO--><g id="elem_AgendaTaskDTO"><rect codeLine="150" fill="#F1F1F1" height="327.3164" id="AgendaTaskDTO" rx="2.5" ry="2.5" style="stroke:#181818;stroke-width:0.5;" width="399" x="1525.5" y="555.6348"/><ellipse cx="1665.75" cy="571.6348" fill="#ADD1B2" rx="11" ry="11" style="stroke:#181818;stroke-width:1.0;"/><path d="M1668.5156,567.5098 Q1668.6719,567.291 1668.8594,567.1816 Q1669.0469,567.0723 1669.2656,567.0723 Q1669.6406,567.0723 1669.875,567.3379 Q1670.1094,567.5879 1670.1094,568.1973 L1670.1094,569.6504 Q1670.1094,570.2598 1669.875,570.5254 Q1669.6406,570.791 1669.2656,570.791 Q1668.9219,570.791 1668.7188,570.5879 Q1668.5156,570.4004 1668.4063,569.8848 Q1668.3594,569.5254 1668.1719,569.3379 Q1667.8438,568.9629 1667.2344,568.7441 Q1666.625,568.5254 1666,568.5254 Q1665.2344,568.5254 1664.5938,568.8535 Q1663.9688,569.1816 1663.4688,569.9316 Q1662.9844,570.6816 1662.9844,571.7129 L1662.9844,572.8066 Q1662.9844,574.041 1663.875,574.8691 Q1664.7656,575.6816 1666.3594,575.6816 Q1667.2969,575.6816 1667.9531,575.4316 Q1668.3438,575.2754 1668.7656,574.8379 Q1669.0313,574.5723 1669.1719,574.4941 Q1669.3281,574.416 1669.5313,574.416 Q1669.8594,574.416 1670.1094,574.6816 Q1670.375,574.9316 1670.375,575.2754 Q1670.375,575.6191 1670.0313,576.0254 Q1669.5313,576.6035 1668.7344,576.9316 Q1667.6563,577.3848 1666.3594,577.3848 Q1664.8438,577.3848 1663.6406,576.7598 Q1662.6563,576.2598 1661.9688,575.1973 Q1661.2813,574.1191 1661.2813,572.8379 L1661.2813,571.6816 Q1661.2813,570.3535 1661.8906,569.2129 Q1662.5156,568.0566 1663.6094,567.4473 Q1664.7031,566.8223 1665.9375,566.8223 Q1666.6719,566.8223 1667.3125,566.9941 Q1667.9688,567.1504 1668.5156,567.5098 Z " fill="#000000"/><text fill="#000000" font-family="sans-serif" font-size="14" lengthAdjust="spacing" textLength="110" x="1686.25" y="577.4316">AgendaTaskDTO</text><line style="stroke:#181818;stroke-width:0.5;" x1="1526.5" x2="1923.5" y1="587.6348" y2="587.6348"/><text fill="#000000" font-family="sans-serif" font-size="14" lengthAdjust="spacing" textLength="75" x="1531.5" y="606.7422">+String title;</text><text fill="#000000" font-family="sans-serif" font-size="14" lengthAdjust="spacing" textLength="122" x="1531.5" y="625.3633">+String description;</text><text fill="#000000" font-family="sans-serif" font-size="14" lengthAdjust="spacing" textLength="137" x="1531.5" y="643.9844">+TaskType taskType;</text><text fill="#000000" font-family="sans-serif" font-size="14" lengthAdjust="spacing" textLength="166" x="1531.5" y="662.6055">+String greenSpaceName;</text><text fill="#000000" font-family="sans-serif" font-size="14" lengthAdjust="spacing" textLength="151" x="1531.5" y="681.2266">+UrgencyType urgency;</text><text fill="#000000" font-family="sans-serif" font-size="14" lengthAdjust="spacing" textLength="142" x="1531.5" y="699.8477">+int expectedDuration;</text><text fill="#000000" font-family="sans-serif" font-size="14" lengthAdjust="spacing" textLength="142" x="1531.5" y="718.4688">+String workStartDate;</text><text fill="#000000" font-family="sans-serif" font-size="14" lengthAdjust="spacing" textLength="120" x="1531.5" y="737.0898">+int workStartHour;</text><text fill="#000000" font-family="sans-serif" font-size="14" lengthAdjust="spacing" textLength="139" x="1531.5" y="755.7109">+int workStartMinutes;</text><text fill="#000000" font-family="sans-serif" font-size="14" lengthAdjust="spacing" textLength="94" x="1531.5" y="774.332">+Status status;</text><text fill="#000000" font-family="sans-serif" font-size="14" lengthAdjust="spacing" textLength="157" x="1531.5" y="792.9531">+String isTeamAssigned;</text><line style="stroke:#181818;stroke-width:0.5;" x1="1526.5" x2="1923.5" y1="800.4668" y2="800.4668"/><text fill="#000000" font-family="sans-serif" font-size="14" lengthAdjust="spacing" textLength="377" x="1531.5" y="819.5742">+AgendaTaskDTO(title, description, taskType, greenSpace,</text><text fill="#000000" font-family="sans-serif" font-size="14" lengthAdjust="spacing" textLength="369" x="1531.5" y="838.1953">urgency, expectedDuration, executionDate, workStartHour,</text><text fill="#000000" font-family="sans-serif" font-size="14" lengthAdjust="spacing" textLength="387" x="1531.5" y="856.8164">workStartMinutes, status, isTeamAssigned, vehiclesAssigned,</text><text fill="#000000" font-family="sans-serif" font-size="14" lengthAdjust="spacing" textLength="170" x="1531.5" y="875.4375">teamDTO, vehicleDTOList)</text></g><!--class CollaboratorDTO--><g id="elem_CollaboratorDTO"><rect codeLine="167" fill="#F1F1F1" height="122.4844" id="CollaboratorDTO" rx="2.5" ry="2.5" style="stroke:#181818;stroke-width:0.5;" width="213" x="1586.5" y="1186.6348"/><ellipse cx="1634.75" cy="1202.6348" fill="#ADD1B2" rx="11" ry="11" style="stroke:#181818;stroke-width:1.0;"/><path d="M1637.5156,1198.5098 Q1637.6719,1198.291 1637.8594,1198.1816 Q1638.0469,1198.0723 1638.2656,1198.0723 Q1638.6406,1198.0723 1638.875,1198.3379 Q1639.1094,1198.5879 1639.1094,1199.1973 L1639.1094,1200.6504 Q1639.1094,1201.2598 1638.875,1201.5254 Q1638.6406,1201.791 1638.2656,1201.791 Q1637.9219,1201.791 1637.7188,1201.5879 Q1637.5156,1201.4004 1637.4063,1200.8848 Q1637.3594,1200.5254 1637.1719,1200.3379 Q1636.8438,1199.9629 1636.2344,1199.7441 Q1635.625,1199.5254 1635,1199.5254 Q1634.2344,1199.5254 1633.5938,1199.8535 Q1632.9688,1200.1816 1632.4688,1200.9316 Q1631.9844,1201.6816 1631.9844,1202.7129 L1631.9844,1203.8066 Q1631.9844,1205.041 1632.875,1205.8691 Q1633.7656,1206.6816 1635.3594,1206.6816 Q1636.2969,1206.6816 1636.9531,1206.4316 Q1637.3438,1206.2754 1637.7656,1205.8379 Q1638.0313,1205.5723 1638.1719,1205.4941 Q1638.3281,1205.416 1638.5313,1205.416 Q1638.8594,1205.416 1639.1094,1205.6816 Q1639.375,1205.9316 1639.375,1206.2754 Q1639.375,1206.6191 1639.0313,1207.0254 Q1638.5313,1207.6035 1637.7344,1207.9316 Q1636.6563,1208.3848 1635.3594,1208.3848 Q1633.8438,1208.3848 1632.6406,1207.7598 Q1631.6563,1207.2598 1630.9688,1206.1973 Q1630.2813,1205.1191 1630.2813,1203.8379 L1630.2813,1202.6816 Q1630.2813,1201.3535 1630.8906,1200.2129 Q1631.5156,1199.0566 1632.6094,1198.4473 Q1633.7031,1197.8223 1634.9375,1197.8223 Q1635.6719,1197.8223 1636.3125,1197.9941 Q1636.9688,1198.1504 1637.5156,1198.5098 Z " fill="#000000"/><text fill="#000000" font-family="sans-serif" font-size="14" lengthAdjust="spacing" textLength="108" x="1655.25" y="1208.4316">CollaboratorDTO</text><line style="stroke:#181818;stroke-width:0.5;" x1="1587.5" x2="1798.5" y1="1218.6348" y2="1218.6348"/><text fill="#000000" font-family="sans-serif" font-size="14" lengthAdjust="spacing" textLength="164" x="1592.5" y="1237.7422">+String collaboratorName;</text><text fill="#000000" font-family="sans-serif" font-size="14" lengthAdjust="spacing" textLength="86" x="1592.5" y="1256.3633">+String email;</text><text fill="#000000" font-family="sans-serif" font-size="14" lengthAdjust="spacing" textLength="157" x="1592.5" y="1274.9844">+List&lt;String&gt; skillNames;</text><line style="stroke:#181818;stroke-width:0.5;" x1="1587.5" x2="1798.5" y1="1282.498" y2="1282.498"/><text fill="#000000" font-family="sans-serif" font-size="14" lengthAdjust="spacing" textLength="201" x="1592.5" y="1301.6055">+CollaboratorDTO(collaborator)</text></g><!--class TeamDTO--><g id="elem_TeamDTO"><rect codeLine="176" fill="#F1F1F1" height="85.2422" id="TeamDTO" rx="2.5" ry="2.5" style="stroke:#181818;stroke-width:0.5;" width="335" x="1525.5" y="994.6348"/><ellipse cx="1655.75" cy="1010.6348" fill="#ADD1B2" rx="11" ry="11" style="stroke:#181818;stroke-width:1.0;"/><path d="M1658.5156,1006.5098 Q1658.6719,1006.291 1658.8594,1006.1816 Q1659.0469,1006.0723 1659.2656,1006.0723 Q1659.6406,1006.0723 1659.875,1006.3379 Q1660.1094,1006.5879 1660.1094,1007.1973 L1660.1094,1008.6504 Q1660.1094,1009.2598 1659.875,1009.5254 Q1659.6406,1009.791 1659.2656,1009.791 Q1658.9219,1009.791 1658.7188,1009.5879 Q1658.5156,1009.4004 1658.4063,1008.8848 Q1658.3594,1008.5254 1658.1719,1008.3379 Q1657.8438,1007.9629 1657.2344,1007.7441 Q1656.625,1007.5254 1656,1007.5254 Q1655.2344,1007.5254 1654.5938,1007.8535 Q1653.9688,1008.1816 1653.4688,1008.9316 Q1652.9844,1009.6816 1652.9844,1010.7129 L1652.9844,1011.8066 Q1652.9844,1013.041 1653.875,1013.8691 Q1654.7656,1014.6816 1656.3594,1014.6816 Q1657.2969,1014.6816 1657.9531,1014.4316 Q1658.3438,1014.2754 1658.7656,1013.8379 Q1659.0313,1013.5723 1659.1719,1013.4941 Q1659.3281,1013.416 1659.5313,1013.416 Q1659.8594,1013.416 1660.1094,1013.6816 Q1660.375,1013.9316 1660.375,1014.2754 Q1660.375,1014.6191 1660.0313,1015.0254 Q1659.5313,1015.6035 1658.7344,1015.9316 Q1657.6563,1016.3848 1656.3594,1016.3848 Q1654.8438,1016.3848 1653.6406,1015.7598 Q1652.6563,1015.2598 1651.9688,1014.1973 Q1651.2813,1013.1191 1651.2813,1011.8379 L1651.2813,1010.6816 Q1651.2813,1009.3535 1651.8906,1008.2129 Q1652.5156,1007.0566 1653.6094,1006.4473 Q1654.7031,1005.8223 1655.9375,1005.8223 Q1656.6719,1005.8223 1657.3125,1005.9941 Q1657.9688,1006.1504 1658.5156,1006.5098 Z " fill="#000000"/><text fill="#000000" font-family="sans-serif" font-size="14" lengthAdjust="spacing" textLength="66" x="1676.25" y="1016.4316">TeamDTO</text><line style="stroke:#181818;stroke-width:0.5;" x1="1526.5" x2="1859.5" y1="1026.6348" y2="1026.6348"/><text fill="#000000" font-family="sans-serif" font-size="14" lengthAdjust="spacing" textLength="240" x="1531.5" y="1045.7422">+List&lt;CollaboratorDTO&gt; collaborators</text><line style="stroke:#181818;stroke-width:0.5;" x1="1526.5" x2="1859.5" y1="1053.2559" y2="1053.2559"/><text fill="#000000" font-family="sans-serif" font-size="14" lengthAdjust="spacing" textLength="323" x="1531.5" y="1072.3633">+TeamDTO(List&lt;CollaboratorDTO&gt; teamMembers)</text></g><!--class VehicleDTO--><g id="elem_VehicleDTO"><rect codeLine="181" fill="#F1F1F1" height="141.1055" id="VehicleDTO" rx="2.5" ry="2.5" style="stroke:#181818;stroke-width:0.5;" width="150" x="1896" y="966.6348"/><ellipse cx="1929.9" cy="982.6348" fill="#ADD1B2" rx="11" ry="11" style="stroke:#181818;stroke-width:1.0;"/><path d="M1932.6656,978.5098 Q1932.8219,978.291 1933.0094,978.1816 Q1933.1969,978.0723 1933.4156,978.0723 Q1933.7906,978.0723 1934.025,978.3379 Q1934.2594,978.5879 1934.2594,979.1973 L1934.2594,980.6504 Q1934.2594,981.2598 1934.025,981.5254 Q1933.7906,981.791 1933.4156,981.791 Q1933.0719,981.791 1932.8688,981.5879 Q1932.6656,981.4004 1932.5563,980.8848 Q1932.5094,980.5254 1932.3219,980.3379 Q1931.9938,979.9629 1931.3844,979.7441 Q1930.775,979.5254 1930.15,979.5254 Q1929.3844,979.5254 1928.7438,979.8535 Q1928.1188,980.1816 1927.6188,980.9316 Q1927.1344,981.6816 1927.1344,982.7129 L1927.1344,983.8066 Q1927.1344,985.041 1928.025,985.8691 Q1928.9156,986.6816 1930.5094,986.6816 Q1931.4469,986.6816 1932.1031,986.4316 Q1932.4938,986.2754 1932.9156,985.8379 Q1933.1813,985.5723 1933.3219,985.4941 Q1933.4781,985.416 1933.6813,985.416 Q1934.0094,985.416 1934.2594,985.6816 Q1934.525,985.9316 1934.525,986.2754 Q1934.525,986.6191 1934.1813,987.0254 Q1933.6813,987.6035 1932.8844,987.9316 Q1931.8063,988.3848 1930.5094,988.3848 Q1928.9938,988.3848 1927.7906,987.7598 Q1926.8063,987.2598 1926.1188,986.1973 Q1925.4313,985.1191 1925.4313,983.8379 L1925.4313,982.6816 Q1925.4313,981.3535 1926.0406,980.2129 Q1926.6656,979.0566 1927.7594,978.4473 Q1928.8531,977.8223 1930.0875,977.8223 Q1930.8219,977.8223 1931.4625,977.9941 Q1932.1188,978.1504 1932.6656,978.5098 Z " fill="#000000"/><text fill="#000000" font-family="sans-serif" font-size="14" lengthAdjust="spacing" textLength="76" x="1948.1" y="988.4316">VehicleDTO</text><line style="stroke:#181818;stroke-width:0.5;" x1="1897" x2="2045" y1="998.6348" y2="998.6348"/><text fill="#000000" font-family="sans-serif" font-size="14" lengthAdjust="spacing" textLength="97" x="1902" y="1017.7422">+String plateID;</text><text fill="#000000" font-family="sans-serif" font-size="14" lengthAdjust="spacing" textLength="90" x="1902" y="1036.3633">+String brand;</text><text fill="#000000" font-family="sans-serif" font-size="14" lengthAdjust="spacing" textLength="91" x="1902" y="1054.9844">+String model;</text><text fill="#000000" font-family="sans-serif" font-size="14" lengthAdjust="spacing" textLength="80" x="1902" y="1073.6055">+String type;</text><line style="stroke:#181818;stroke-width:0.5;" x1="1897" x2="2045" y1="1081.1191" y2="1081.1191"/><text fill="#000000" font-family="sans-serif" font-size="14" lengthAdjust="spacing" textLength="138" x="1902" y="1100.2266">+VehicleDTO(vehicle)</text></g><!--link AgendaUI to AgendaController--><g id="link_AgendaUI_AgendaController"><path codeLine="196" d="M751.01,242.6948 C720.29,284.5848 687.7582,328.9263 664.5482,360.5763 " fill="none" id="AgendaUI-to-AgendaController" style="stroke:#181818;stroke-width:1.0;stroke-dasharray:7.0,7.0;"/><polygon fill="#181818" points="661,365.4148,669.5479,360.5226,663.9568,361.3827,663.0967,355.7917,661,365.4148" style="stroke:#181818;stroke-width:1.0;"/></g><!--link AgendaUI to CancelEntryAgendaController--><g id="link_AgendaUI_CancelEntryAgendaController"><path codeLine="197" d="M846.76,242.6948 C860.03,270.4848 872.2535,296.0809 885.1335,323.0409 " fill="none" id="AgendaUI-to-CancelEntryAgendaController" style="stroke:#181818;stroke-width:1.0;stroke-dasharray:7.0,7.0;"/><polygon fill="#181818" points="887.72,328.4548,887.4496,318.6096,885.5646,323.9432,880.2311,322.0582,887.72,328.4548" style="stroke:#181818;stroke-width:1.0;"/></g><!--link AgendaController to Repositories--><g id="link_AgendaController_Repositories"><path codeLine="198" d="M638.5,432.9848 C643.02,532.1948 656.3367,824.231 662.5567,960.621 " fill="none" id="AgendaController-to-Repositories" style="stroke:#181818;stroke-width:1.0;stroke-dasharray:7.0,7.0;"/><polygon fill="#181818" points="662.83,966.6148,666.4158,957.4419,662.6022,961.62,658.4241,957.8063,662.83,966.6148" style="stroke:#181818;stroke-width:1.0;"/></g><!--link CancelEntryAgendaController to Repositories--><g id="link_CancelEntryAgendaController_Repositories"><path codeLine="199" d="M893.1,469.7148 C844.06,592.0348 745.183,838.6458 696.133,960.9758 " fill="none" id="CancelEntryAgendaController-to-Repositories" style="stroke:#181818;stroke-width:1.0;stroke-dasharray:7.0,7.0;"/><polygon fill="#181818" points="693.9,966.5448,700.9621,959.6799,695.7608,961.9039,693.5368,956.7026,693.9,966.5448" style="stroke:#181818;stroke-width:1.0;"/></g><!--link AgendaController to ApplicationSession--><g id="link_AgendaController_ApplicationSession"><path codeLine="200" d="M621.55,432.9848 C573.84,534.4848 430.8427,838.6549 368.9227,970.3649 " fill="none" id="AgendaController-to-ApplicationSession" style="stroke:#181818;stroke-width:1.0;stroke-dasharray:7.0,7.0;"/><polygon fill="#181818" points="366.37,975.7948,373.819,969.3518,368.4973,971.2699,366.5792,965.9481,366.37,975.7948" style="stroke:#181818;stroke-width:1.0;"/></g><!--link ApplicationSession to ApplicationSession--><g id="link_ApplicationSession_ApplicationSession"><path codeLine="201" d="M455.27,1017.7948 C475.75,1020.3748 490,1026.8248 490,1037.1348 C490,1047.4448 481.7029,1053.1448 461.2229,1055.7248 " fill="none" id="ApplicationSession-to-ApplicationSession" style="stroke:#181818;stroke-width:1.0;"/><polygon fill="#181818" points="455.27,1056.4748,464.6994,1059.3185,460.2308,1055.8498,463.6995,1051.3812,455.27,1056.4748" style="stroke:#181818;stroke-width:1.0;"/><text fill="#000000" font-family="sans-serif" font-size="13" lengthAdjust="spacing" textLength="49" x="496" y="1042.6631">instance</text></g><!--link ApplicationSession to UserSession--><g id="link_ApplicationSession_UserSession"><path codeLine="202" d="M303.45,1098.1648 C281.78,1135.8148 257.6635,1177.7249 239.8635,1208.6449 " fill="none" id="ApplicationSession-to-UserSession" style="stroke:#181818;stroke-width:1.0;"/><polygon fill="#181818" points="236.87,1213.8448,244.8268,1208.0406,239.3646,1209.5115,237.8936,1204.0492,236.87,1213.8448" style="stroke:#181818;stroke-width:1.0;"/><text fill="#000000" font-family="sans-serif" font-size="13" lengthAdjust="spacing" textLength="72" x="279" y="1152.6631">userSession</text><text fill="#000000" font-family="sans-serif" font-size="13" lengthAdjust="spacing" textLength="7" x="232.7999" y="1202.8754">1</text></g><!--link UserSession to Email--><g id="link_UserSession_Email"><path codeLine="203" d="M185.41,1281.5248 C153.63,1313.5948 110.3438,1357.2833 82.2938,1385.5833 " fill="none" id="UserSession-to-Email" style="stroke:#181818;stroke-width:1.0;stroke-dasharray:7.0,7.0;"/><polygon fill="#181818" points="78.07,1389.8448,87.2466,1386.2685,81.5898,1386.2936,81.5647,1380.6368,78.07,1389.8448" style="stroke:#181818;stroke-width:1.0;"/></g><!--link Repositories to AgendaRepository--><g id="link_Repositories_AgendaRepository"><path codeLine="204" d="M605.45,1107.7948 C538.14,1185.2048 435.5965,1303.1667 380.1665,1366.9267 " fill="none" id="Repositories-to-AgendaRepository" style="stroke:#181818;stroke-width:1.0;"/><polygon fill="#181818" points="376.23,1371.4548,385.1535,1367.287,379.5104,1367.6813,379.1161,1362.0383,376.23,1371.4548" style="stroke:#181818;stroke-width:1.0;"/><text fill="#000000" font-family="sans-serif" font-size="13" lengthAdjust="spacing" textLength="7" x="374.4463" y="1360.3302">1</text></g><!--link Repositories to TeamRepository--><g id="link_Repositories_TeamRepository"><path codeLine="205" d="M763.25,1099.4248 C885,1176.1648 1085.184,1302.3256 1190.014,1368.3956 " fill="none" id="Repositories-to-TeamRepository" style="stroke:#181818;stroke-width:1.0;"/><polygon fill="#181818" points="1195.09,1371.5948,1189.6088,1363.412,1190.86,1368.9288,1185.3433,1370.18,1195.09,1371.5948" style="stroke:#181818;stroke-width:1.0;"/><text fill="#000000" font-family="sans-serif" font-size="13" lengthAdjust="spacing" textLength="7" x="1177.0278" y="1360.4925">1</text></g><!--link Repositories to VehicleRepository--><g id="link_Repositories_VehicleRepository"><path codeLine="206" d="M690.32,1107.7648 C721.61,1197.3648 772,1341.6348 772,1341.6348 C772,1341.6348 776.0257,1350.367 783.2857,1366.097 " fill="none" id="Repositories-to-VehicleRepository" style="stroke:#181818;stroke-width:1.0;"/><polygon fill="#181818" points="785.8,1371.5448,785.6603,1361.6969,783.7047,1367.005,778.3966,1365.0494,785.8,1371.5448" style="stroke:#181818;stroke-width:1.0;"/><text fill="#000000" font-family="sans-serif" font-size="13" lengthAdjust="spacing" textLength="7" x="775.1822" y="1360.4345">1</text></g><!--link AgendaRepository to Task--><g id="link_AgendaRepository_Task"><path codeLine="207" d="M362.52,1456.9048 C377.88,1485.4048 396.0428,1519.0934 415.4828,1555.1534 " fill="none" id="AgendaRepository-to-Task" style="stroke:#181818;stroke-width:1.0;"/><polygon fill="#181818" points="418.33,1560.4348,417.5801,1550.6145,415.9573,1556.0336,410.5382,1554.4108,418.33,1560.4348" style="stroke:#181818;stroke-width:1.0;"/><text fill="#000000" font-family="sans-serif" font-size="13" lengthAdjust="spacing" textLength="25" x="387" y="1503.6631">task</text><text fill="#000000" font-family="sans-serif" font-size="13" lengthAdjust="spacing" textLength="7" x="358.4324" y="1478.7875">1</text></g><!--link VehicleRepository to Vehicle--><g id="link_VehicleRepository_Vehicle"><path codeLine="208" d="M805,1456.9048 C805,1487.9148 805,1525.3248 805,1563.8948 " fill="none" id="VehicleRepository-to-Vehicle" style="stroke:#181818;stroke-width:1.0;"/><polygon fill="#181818" points="805,1569.8948,809,1560.8948,805,1564.8948,801,1560.8948,805,1569.8948" style="stroke:#181818;stroke-width:1.0;"/><text fill="#000000" font-family="sans-serif" font-size="13" lengthAdjust="spacing" textLength="39" x="806" y="1503.6631">vehicle</text><text fill="#000000" font-family="sans-serif" font-size="13" lengthAdjust="spacing" textLength="7" x="797.4641" y="1478.7875">1</text></g><!--reverse link Task to TaskDuration--><g id="link_Task_TaskDuration"><path codeLine="209" d="M468.9263,1769.8727 C468.4463,1795.6227 468.14,1811.2548 467.67,1836.4748 " fill="none" id="Task-backto-TaskDuration" style="stroke:#181818;stroke-width:1.0;"/><polygon fill="#181818" points="469.15,1757.8748,465.0389,1763.7992,468.9263,1769.8727,473.0375,1763.9483,469.15,1757.8748" style="stroke:#181818;stroke-width:1.0;"/><text fill="#000000" font-family="sans-serif" font-size="13" lengthAdjust="spacing" textLength="73" x="469" y="1802.6631">taskDuration</text><text fill="#000000" font-family="sans-serif" font-size="13" lengthAdjust="spacing" textLength="7" x="460.5185" y="1825.4133">1</text></g><!--link TeamRepository to Team--><g id="link_TeamRepository_Team"><path codeLine="210" d="M1236.07,1456.9048 C1211.3,1498.4348 1176.3247,1557.0425 1149.7147,1601.6325 " fill="none" id="TeamRepository-to-Team" style="stroke:#181818;stroke-width:1.0;"/><polygon fill="#181818" points="1146.64,1606.7848,1154.687,1601.1062,1149.2023,1602.4912,1147.8172,1597.0065,1146.64,1606.7848" style="stroke:#181818;stroke-width:1.0;"/><text fill="#000000" font-family="sans-serif" font-size="13" lengthAdjust="spacing" textLength="29" x="1215" y="1503.6631">team</text><text fill="#000000" font-family="sans-serif" font-size="13" lengthAdjust="spacing" textLength="7" x="1224.7167" y="1478.7875">1</text></g><!--link AgendaController to AgendaRepository--><g id="link_AgendaController_AgendaRepository"><path codeLine="211" d="M567.76,432.6948 C498.44,465.2848 402,510.6348 402,510.6348 C402,510.6348 80,718.1348 80,718.1348 C80,718.1348 80,718.1348 80,1248.6348 C80,1248.6348 144,1332.6348 144,1332.6348 C144,1332.6348 185.3698,1349.6254 233.2898,1369.3054 " fill="none" id="AgendaController-to-AgendaRepository" style="stroke:#181818;stroke-width:1.0;stroke-dasharray:7.0,7.0;"/><polygon fill="#181818" points="238.84,1371.5848,232.0343,1364.4656,234.2149,1369.6853,228.9952,1371.8658,238.84,1371.5848" style="stroke:#181818;stroke-width:1.0;"/><text fill="#000000" font-family="sans-serif" font-size="13" lengthAdjust="spacing" textLength="104" x="81" y="1042.6631">agendaRepository</text></g><!--link CancelEntryAgendaController to AgendaRepository--><g id="link_CancelEntryAgendaController_AgendaRepository"><path codeLine="212" d="M919.02,469.9248 C916.38,563.5248 912,718.1348 912,718.1348 C912,718.1348 912,718.1348 912,1248.6348 C912,1248.6348 659.5563,1321.2365 490.1063,1369.9665 " fill="none" id="CancelEntryAgendaController-to-AgendaRepository" style="stroke:#181818;stroke-width:1.0;stroke-dasharray:7.0,7.0;"/><polygon fill="#181818" points="484.34,1371.6248,494.095,1372.9816,489.1452,1370.2429,491.8839,1365.2932,484.34,1371.6248" style="stroke:#181818;stroke-width:1.0;"/><text fill="#000000" font-family="sans-serif" font-size="13" lengthAdjust="spacing" textLength="104" x="913" y="1042.6631">agendaRepository</text></g><!--link CancelEntryAgendaController to TeamRepository--><g id="link_CancelEntryAgendaController_TeamRepository"><path codeLine="213" d="M1008.01,469.8048 C1035.56,491.8648 1059,510.6348 1059,510.6348 C1059,510.6348 1261,718.1348 1261,718.1348 C1261,718.1348 1261,718.1348 1261,1248.6348 C1261,1248.6348 1261,1316.8948 1261,1365.6248 " fill="none" id="CancelEntryAgendaController-to-TeamRepository" style="stroke:#181818;stroke-width:1.0;stroke-dasharray:7.0,7.0;"/><polygon fill="#181818" points="1261,1371.6248,1265,1362.6248,1261,1366.6248,1257,1362.6248,1261,1371.6248" style="stroke:#181818;stroke-width:1.0;"/><text fill="#000000" font-family="sans-serif" font-size="13" lengthAdjust="spacing" textLength="91" x="1262" y="1042.6631">teamRepository</text></g><!--link CancelEntryAgendaController to VehicleRepository--><g id="link_CancelEntryAgendaController_VehicleRepository"><path codeLine="214" d="M957.65,469.9248 C1006.81,563.5248 1088,718.1348 1088,718.1348 C1088,718.1348 1088,718.1348 1088,1248.6348 C1088,1248.6348 938,1341.6348 938,1341.6348 C938,1341.6348 916.9147,1352.9737 887.6547,1368.7037 " fill="none" id="CancelEntryAgendaController-to-VehicleRepository" style="stroke:#181818;stroke-width:1.0;stroke-dasharray:7.0,7.0;"/><polygon fill="#181818" points="882.37,1371.5448,892.1911,1370.8064,886.7739,1369.1772,888.4031,1363.76,882.37,1371.5448" style="stroke:#181818;stroke-width:1.0;"/><text fill="#000000" font-family="sans-serif" font-size="13" lengthAdjust="spacing" textLength="101" x="1089" y="1042.6631">vehicleRepository</text></g><!--link Repositories to Repositories--><g id="link_Repositories_Repositories"><path codeLine="215" d="M763.28,1017.2348 C783.48,1019.3248 798,1025.9648 798,1037.1348 C798,1048.3048 789.4481,1054.3273 769.2481,1056.4173 " fill="none" id="Repositories-to-Repositories" style="stroke:#181818;stroke-width:1.0;"/><polygon fill="#181818" points="763.28,1057.0348,772.6439,1060.0873,768.2535,1056.5202,771.8205,1052.1298,763.28,1057.0348" style="stroke:#181818;stroke-width:1.0;"/><text fill="#000000" font-family="sans-serif" font-size="13" lengthAdjust="spacing" textLength="49" x="804" y="1042.6631">instance</text></g><!--link AgendaController to AgendaMapper--><g id="link_AgendaController_AgendaMapper"><path codeLine="216" d="M676.99,365.4148 C717.43,331.3248 774,283.6348 774,283.6348 C774,283.6348 791.5,275.1348 791.5,275.1348 C791.5,275.1348 1049.5,275.1348 1049.5,275.1348 C1049.5,275.1348 1181.9027,318.8531 1290.6027,354.7531 " fill="none" id="AgendaController-to-AgendaMapper" style="stroke:#181818;stroke-width:1.0;stroke-dasharray:7.0,7.0;"/><polygon fill="#181818" points="1296.3,356.6348,1289.0084,350.0141,1291.5522,355.0667,1286.4996,357.6105,1296.3,356.6348" style="stroke:#181818;stroke-width:1.0;"/></g><!--link AgendaMapper to AgendaTaskDTO--><g id="link_AgendaMapper_AgendaTaskDTO"><path codeLine="217" d="M1464.22,441.7048 C1492.17,471.3348 1527.6026,508.9005 1567.4726,551.1605 " fill="none" id="AgendaMapper-to-AgendaTaskDTO" style="stroke:#181818;stroke-width:1.0;stroke-dasharray:7.0,7.0;"/><polygon fill="#181818" points="1571.59,555.5248,1568.3233,546.2334,1568.1588,551.8879,1562.5043,551.7233,1571.59,555.5248" style="stroke:#181818;stroke-width:1.0;"/></g><!--link AgendaTaskDTO to TeamDTO--><g id="link_AgendaTaskDTO_TeamDTO"><path codeLine="218" d="M1708.53,882.7648 C1704.34,924.1948 1700.7837,959.2452 1697.8337,988.4152 " fill="none" id="AgendaTaskDTO-to-TeamDTO" style="stroke:#181818;stroke-width:1.0;stroke-dasharray:7.0,7.0;"/><polygon fill="#181818" points="1697.23,994.3848,1702.1153,985.8329,1697.7331,989.4101,1694.1559,985.028,1697.23,994.3848" style="stroke:#181818;stroke-width:1.0;"/><text fill="#000000" font-family="sans-serif" font-size="13" lengthAdjust="spacing" textLength="7" x="1690.3463" y="983.249">1</text></g><!--link TeamDTO to CollaboratorDTO--><g id="link_TeamDTO_CollaboratorDTO"><path codeLine="219" d="M1693,1079.8248 C1693,1110.3648 1693,1146.2748 1693,1180.4448 " fill="none" id="TeamDTO-to-CollaboratorDTO" style="stroke:#181818;stroke-width:1.0;stroke-dasharray:7.0,7.0;"/><polygon fill="#181818" points="1693,1186.4448,1697,1177.4448,1693,1181.4448,1689,1177.4448,1693,1186.4448" style="stroke:#181818;stroke-width:1.0;"/><text fill="#000000" font-family="sans-serif" font-size="13" lengthAdjust="spacing" textLength="7" x="1685.4422" y="1102.0154">1</text></g><!--link AgendaTaskDTO to VehicleDTO--><g id="link_AgendaTaskDTO_VehicleDTO"><path codeLine="220" d="M1851.6,882.7648 C1874.56,912.2548 1893.6646,936.79 1913.0846,961.74 " fill="none" id="AgendaTaskDTO-to-VehicleDTO" style="stroke:#181818;stroke-width:1.0;stroke-dasharray:7.0,7.0;"/><polygon fill="#181818" points="1916.77,966.4748,1914.3985,956.9157,1913.6989,962.5291,1908.0854,961.8295,1916.77,966.4748" style="stroke:#181818;stroke-width:1.0;"/><text fill="#000000" font-family="sans-serif" font-size="13" lengthAdjust="spacing" textLength="7" x="1850.5627" y="905.13">1</text></g><!--link Vehicle to WorkPeriod--><g id="link_Vehicle_WorkPeriod"><path codeLine="221" d="M806.96,1748.2548 C809.03,1841.1348 812.1164,1980.1163 814.1064,2069.4663 " fill="none" id="Vehicle-to-WorkPeriod" style="stroke:#181818;stroke-width:1.0;"/><polygon fill="#181818" points="814.24,2075.4648,818.0386,2066.3779,814.1287,2070.466,810.0406,2066.5561,814.24,2075.4648" style="stroke:#181818;stroke-width:1.0;"/><text fill="#000000" font-family="sans-serif" font-size="13" lengthAdjust="spacing" textLength="62" x="813" y="1931.1631">workperiod</text><text fill="#000000" font-family="sans-serif" font-size="13" lengthAdjust="spacing" textLength="7" x="799.8325" y="1770.3649">1</text></g><!--link Team to WorkPeriod--><g id="link_Team_WorkPeriod"><path codeLine="222" d="M1085.02,1711.1948 C1032.63,1797.5648 929.2619,1967.9349 867.1319,2070.3549 " fill="none" id="Team-to-WorkPeriod" style="stroke:#181818;stroke-width:1.0;"/><polygon fill="#181818" points="864.02,2075.4848,872.1078,2069.8645,866.6133,2071.2098,865.2679,2065.7153,864.02,2075.4848" style="stroke:#181818;stroke-width:1.0;"/><text fill="#000000" font-family="sans-serif" font-size="13" lengthAdjust="spacing" textLength="62" x="1009" y="1931.1631">workperiod</text><text fill="#000000" font-family="sans-serif" font-size="13" lengthAdjust="spacing" textLength="7" x="1073.6023" y="1733.0097">1</text></g><!--reverse link Task to WorkPeriod--><g id="link_Task_WorkPeriod"><path codeLine="223" d="M566.9014,1766.5908 C603.6714,1807.4108 630,1836.6348 630,1836.6348 C630,1836.6348 714.7,1981.4348 769.78,2075.6148 " fill="none" id="Task-backto-WorkPeriod" style="stroke:#181818;stroke-width:1.0;"/><polygon fill="#181818" points="558.87,1757.6748,559.9137,1764.8099,566.9014,1766.5908,565.8577,1759.4556,558.87,1757.6748" style="stroke:#181818;stroke-width:1.0;"/><text fill="#000000" font-family="sans-serif" font-size="13" lengthAdjust="spacing" textLength="62" x="734" y="1931.1631">workperiod</text><text fill="#000000" font-family="sans-serif" font-size="13" lengthAdjust="spacing" textLength="7" x="558.0659" y="1779.5757">1</text><text fill="#000000" font-family="sans-serif" font-size="13" lengthAdjust="spacing" textLength="7" x="758.1964" y="2064.5087">1</text></g><!--SRC=[hLTBR-Cs4BxpLn3RG-J6DhO5Uea30O6TRGCqRL4dsyjU68cnYSYaGD99N2F_lKEAf4WzdBIeTn5RyvxXDvpHcNfYl2QIxF1ES55ifTXHhEMUefPJa-A9REXQ7ogA9IqquPig5b1RKeeNnZVuaLGgvbICKtseAQv5TJ0Fw6o0AQGMAD8gAgBKbTQIFUmrlIa4NxE_AVwCDDCGmltwyuy_uHbU6Z6yOcG3IWYvCF7FzpVuylABg4egynn_jx8VV4J8siLN6yfB0a97XE4pSuGxefvMTxzZHIj8aPRcsGgSOyQPPgI26B9A54GpmQTG22Nsig1guimyigeoIdVaeQBPnEa-QBualA2MbNdPVLqIJQtaLqPV0lqPl1ZEEWeYYoEQe3Vu5t9T2gwbg2egXrDkCcu2k0RHGvDhf7PqSPwG2RaK8P5692DnvRpKXkg6_IUjXM9Qo4CMyUuesGrplj8jAogQCD_IKsk3EdQzkIXk2OUevAzCwSmLwynNQoLsXF6aKbVsSmm5RPsVAcYQWyUHyNbfM3dMyDSy8XUbf3lnJFyIykaFAfaelq2V6SciAMbpjbEiuMyh56NVAqtYqt5p_DpyUC-pa_-ey-vfflc2LeuR87YV7jtG2sBfV6IsTwTu8odbQoWt_AQljDYRRbg1-1GhJVHU6SUDt-2HKHMQDIR6uBdXe0wkiWc-I8G-WhnJU3sDohgkM7CZhAbIy1KkbHvdDDg-Q1JPNcyfruuz7E5oBoN8j6xQ-EuLbKbWLi5Ghw4LgaJMKewM0F_HYQRfT8Eha7UmXdiRHa5TmQ7Ub2dnGHBU8Ur4IIj7SfRkp50may6HIx67Yn80AXlAV3uVGVVDu_Khe59b46i7or7huWJ1IxXFo8EG1EgQuntTFL2fOe7MK8vVmc-5telXPQYPJ5S4_wu4jZKMAQsagf2iDgVkERQXR6dSZrR5D8xhdqKeaOlFpX3NVP7LQJ2JDEKtlfVG3SK1XCb1JV4MfXnyxHY7MUo6NGRcevpQt3q6J4FRMa5eKfkdC4frI_y5J0_HRndlshdcvO0Le0xO0AgnaDPyjPUsXKBjZRJ9S14zsrnZWiiw9ccXIUMjtNf-L6lFoyRhTmvRXlwWRBiKV431JBktf7rlILsFRGV9_Tu8-WECQU6kqG86R3JqftRE0MsQp24WX544lmrhug-LSAl0flL-J7udwrmjKR-SZ_RB-LY_19KMzR-HNM3UD_2tYguL5X70w6jjbp5_41sR2UONOw1VZA2-nThvK5C7BqoPQ-mAxlKDfsL0NrAq_zJotUnwCpf90pIxqVifFkt4EFM0K87oZGVq3875hQxHvGpi3X2AY1kVeMDJCz4ypIAqOUGOtZMgocYqhTlnbCMs9utGMpn4ecXwOyHsG6p0Ro5ECHlMCFMuRURF97NOTjRWb5qj1iRiOc3ETcZQDaL3QrraxZX2qy8dl3JDvtbl5q-v9zuaKE_rOsuqadNjrCjAJxWlaG-jKtqIdWq9mZB6t6Osg0DlkHmKF_tmATwiG6lVFg6OOmAsUnLAbjdPp5dfBfuZOkdcEYBKMrHHrxeLyqdOHUJ2tWYefvf8EYu8Es0Wg_lzR6PZYuThOyy_eZJkncZUh60N5krey8XxSL-u5umejvCm-HzCpFDErLt4_qA_NzLGmT73JF6TuB7lGhBDLi_RYZNZ6iKFKJtTN43fQ3LyE1TtCI7tRO_ADdDwHtMKlLHxTtWeHG22dDe54J8o8wEs3zRR1oKDuemaeCx2Rapm7m00]--></g></svg>