<?xml version="1.0" encoding="us-ascii" standalone="no"?><svg xmlns="http://www.w3.org/2000/svg" xmlns:xlink="http://www.w3.org/1999/xlink" contentStyleType="text/css" height="902px" preserveAspectRatio="none" style="width:962px;height:902px;background:#FFFFFF;" version="1.1" viewBox="0 0 962 902" width="962px" zoomAndPan="magnify"><defs/><g><text fill="#000000" font-family="sans-serif" font-size="14" font-weight="bold" lengthAdjust="spacing" textLength="284" x="338.25" y="30.1074">US025 - System Sequence Diagram (SSD)</text><rect fill="#FFFFFF" height="668.5684" style="stroke:#181818;stroke-width:1.0;" width="10" x="33.5" y="133.2422"/><rect fill="#FFFFFF" height="200.0371" style="stroke:#181818;stroke-width:1.0;" width="10" x="331.5" y="156.5332"/><rect fill="#FFFFFF" height="132.582" style="stroke:#181818;stroke-width:1.0;" width="10" x="331.5" y="387.8613"/><rect fill="#FFFFFF" height="250.0762" style="stroke:#181818;stroke-width:1.0;" width="10" x="331.5" y="551.7344"/><rect fill="#FFFFFF" height="93.873" style="stroke:#181818;stroke-width:1.0;" width="10" x="534.5" y="187.8242"/><rect fill="#FFFFFF" height="137.4941" style="stroke:#181818;stroke-width:1.0;" width="10" x="534.5" y="608.0254"/><rect fill="#FFFFFF" height="31.291" style="stroke:#181818;stroke-width:1.0;" width="10" x="737.5" y="219.1152"/><rect fill="#FFFFFF" height="74.9121" style="stroke:#181818;stroke-width:1.0;" width="10" x="737.5" y="639.3164"/><rect fill="none" height="124.1641" style="stroke:#000000;stroke-width:1.5;" width="414.5" x="10" y="296.6973"/><line style="stroke:#181818;stroke-width:0.5;stroke-dasharray:5.0,5.0;" x1="38" x2="38" y1="123.2422" y2="819.8105"/><line style="stroke:#181818;stroke-width:0.5;stroke-dasharray:5.0,5.0;" x1="336.5" x2="336.5" y1="123.2422" y2="819.8105"/><line style="stroke:#181818;stroke-width:0.5;stroke-dasharray:5.0,5.0;" x1="539.5" x2="539.5" y1="123.2422" y2="819.8105"/><line style="stroke:#181818;stroke-width:0.5;stroke-dasharray:5.0,5.0;" x1="742" x2="742" y1="123.2422" y2="819.8105"/><line style="stroke:#181818;stroke-width:0.5;stroke-dasharray:5.0,5.0;" x1="931.5" x2="931.5" y1="679.127" y2="819.8105"/><text fill="#000000" font-family="sans-serif" font-size="14" lengthAdjust="spacing" textLength="31" x="20" y="119.7285">GSM</text><ellipse cx="38.5" cy="53.1211" fill="#E3E3E3" rx="8" ry="8" style="stroke:#181818;stroke-width:0.5;"/><path d="M38.5,61.1211 L38.5,88.1211 M25.5,69.1211 L51.5,69.1211 M38.5,88.1211 L25.5,103.1211 M38.5,88.1211 L51.5,103.1211 " fill="none" style="stroke:#181818;stroke-width:0.5;"/><text fill="#000000" font-family="sans-serif" font-size="14" lengthAdjust="spacing" textLength="31" x="20" y="833.918">GSM</text><ellipse cx="38.5" cy="845.9316" fill="#E3E3E3" rx="8" ry="8" style="stroke:#181818;stroke-width:0.5;"/><path d="M38.5,853.9316 L38.5,880.9316 M25.5,861.9316 L51.5,861.9316 M38.5,880.9316 L25.5,895.9316 M38.5,880.9316 L51.5,895.9316 " fill="none" style="stroke:#181818;stroke-width:0.5;"/><rect fill="#E3E3E3" height="32.6211" rx="2.5" ry="2.5" style="stroke:#181818;stroke-width:0.5;" width="156" x="258.5" y="89.6211"/><text fill="#000000" font-family="sans-serif" font-size="14" lengthAdjust="spacing" textLength="142" x="265.5" y="111.7285">:CancelEntryAgendaUI</text><rect fill="#E3E3E3" height="32.6211" rx="2.5" ry="2.5" style="stroke:#181818;stroke-width:0.5;" width="156" x="258.5" y="818.8105"/><text fill="#000000" font-family="sans-serif" font-size="14" lengthAdjust="spacing" textLength="142" x="265.5" y="840.918">:CancelEntryAgendaUI</text><rect fill="#E3E3E3" height="32.6211" rx="2.5" ry="2.5" style="stroke:#181818;stroke-width:0.5;" width="206" x="436.5" y="89.6211"/><text fill="#000000" font-family="sans-serif" font-size="14" lengthAdjust="spacing" textLength="192" x="443.5" y="111.7285">:CancelEntryAgendaController</text><rect fill="#E3E3E3" height="32.6211" rx="2.5" ry="2.5" style="stroke:#181818;stroke-width:0.5;" width="206" x="436.5" y="818.8105"/><text fill="#000000" font-family="sans-serif" font-size="14" lengthAdjust="spacing" textLength="192" x="443.5" y="840.918">:CancelEntryAgendaController</text><rect fill="#E3E3E3" height="32.6211" rx="2.5" ry="2.5" style="stroke:#181818;stroke-width:0.5;" width="67" x="709" y="89.6211"/><text fill="#000000" font-family="sans-serif" font-size="14" lengthAdjust="spacing" textLength="53" x="716" y="111.7285">:Agenda</text><rect fill="#E3E3E3" height="32.6211" rx="2.5" ry="2.5" style="stroke:#181818;stroke-width:0.5;" width="67" x="709" y="818.8105"/><text fill="#000000" font-family="sans-serif" font-size="14" lengthAdjust="spacing" textLength="53" x="716" y="840.918">:Agenda</text><rect fill="#E3E3E3" height="32.6211" rx="2.5" ry="2.5" style="stroke:#181818;stroke-width:0.5;" width="49" x="907.5" y="818.8105"/><text fill="#000000" font-family="sans-serif" font-size="14" lengthAdjust="spacing" textLength="35" x="914.5" y="840.918">:Task</text><rect fill="#FFFFFF" height="668.5684" style="stroke:#181818;stroke-width:1.0;" width="10" x="33.5" y="133.2422"/><rect fill="#FFFFFF" height="200.0371" style="stroke:#181818;stroke-width:1.0;" width="10" x="331.5" y="156.5332"/><rect fill="#FFFFFF" height="132.582" style="stroke:#181818;stroke-width:1.0;" width="10" x="331.5" y="387.8613"/><rect fill="#FFFFFF" height="250.0762" style="stroke:#181818;stroke-width:1.0;" width="10" x="331.5" y="551.7344"/><rect fill="#FFFFFF" height="93.873" style="stroke:#181818;stroke-width:1.0;" width="10" x="534.5" y="187.8242"/><rect fill="#FFFFFF" height="137.4941" style="stroke:#181818;stroke-width:1.0;" width="10" x="534.5" y="608.0254"/><rect fill="#FFFFFF" height="31.291" style="stroke:#181818;stroke-width:1.0;" width="10" x="737.5" y="219.1152"/><rect fill="#FFFFFF" height="74.9121" style="stroke:#181818;stroke-width:1.0;" width="10" x="737.5" y="639.3164"/><polygon fill="#181818" points="319.5,152.5332,329.5,156.5332,319.5,160.5332,323.5,156.5332" style="stroke:#181818;stroke-width:1.0;"/><line style="stroke:#181818;stroke-width:1.0;" x1="43.5" x2="325.5" y1="156.5332" y2="156.5332"/><text fill="#000000" font-family="sans-serif" font-size="13" font-weight="bold" lengthAdjust="spacing" textLength="7" x="50.5" y="151.2705">1</text><text fill="#000000" font-family="sans-serif" font-size="13" lengthAdjust="spacing" textLength="204" x="61.5" y="151.2705">Asks to cancel an entry on Agenda</text><polygon fill="#181818" points="522.5,183.8242,532.5,187.8242,522.5,191.8242,526.5,187.8242" style="stroke:#181818;stroke-width:1.0;"/><line style="stroke:#181818;stroke-width:1.0;" x1="341.5" x2="528.5" y1="187.8242" y2="187.8242"/><text fill="#000000" font-family="sans-serif" font-size="13" font-weight="bold" lengthAdjust="spacing" textLength="7" x="348.5" y="182.5615">2</text><text fill="#000000" font-family="sans-serif" font-size="13" lengthAdjust="spacing" textLength="70" x="359.5" y="182.5615">getAgenda()</text><polygon fill="#181818" points="725.5,215.1152,735.5,219.1152,725.5,223.1152,729.5,219.1152" style="stroke:#181818;stroke-width:1.0;"/><line style="stroke:#181818;stroke-width:1.0;" x1="544.5" x2="731.5" y1="219.1152" y2="219.1152"/><text fill="#000000" font-family="sans-serif" font-size="13" font-weight="bold" lengthAdjust="spacing" textLength="7" x="551.5" y="213.8525">3</text><text fill="#000000" font-family="sans-serif" font-size="13" lengthAdjust="spacing" textLength="70" x="562.5" y="213.8525">getAgenda()</text><polygon fill="#181818" points="555.5,246.4063,545.5,250.4063,555.5,254.4063,551.5,250.4063" style="stroke:#181818;stroke-width:1.0;"/><line style="stroke:#181818;stroke-width:1.0;stroke-dasharray:2.0,2.0;" x1="549.5" x2="741.5" y1="250.4063" y2="250.4063"/><text fill="#000000" font-family="sans-serif" font-size="13" font-weight="bold" lengthAdjust="spacing" textLength="7" x="561.5" y="245.1436">4</text><text fill="#000000" font-family="sans-serif" font-size="13" lengthAdjust="spacing" textLength="42" x="572.5" y="245.1436">agenda</text><polygon fill="#181818" points="352.5,277.6973,342.5,281.6973,352.5,285.6973,348.5,281.6973" style="stroke:#181818;stroke-width:1.0;"/><line style="stroke:#181818;stroke-width:1.0;stroke-dasharray:2.0,2.0;" x1="346.5" x2="538.5" y1="281.6973" y2="281.6973"/><text fill="#000000" font-family="sans-serif" font-size="13" font-weight="bold" lengthAdjust="spacing" textLength="7" x="358.5" y="276.4346">5</text><text fill="#000000" font-family="sans-serif" font-size="13" lengthAdjust="spacing" textLength="42" x="369.5" y="276.4346">agenda</text><path d="M10,296.6973 L83,296.6973 L83,305.9883 L73,315.9883 L10,315.9883 L10,296.6973 " fill="#EEEEEE" style="stroke:#000000;stroke-width:1.5;"/><rect fill="none" height="124.1641" style="stroke:#000000;stroke-width:1.5;" width="414.5" x="10" y="296.6973"/><text fill="#000000" font-family="sans-serif" font-size="13" font-weight="bold" lengthAdjust="spacing" textLength="28" x="25" y="311.7256">loop</text><text fill="#000000" font-family="sans-serif" font-size="11" font-weight="bold" lengthAdjust="spacing" textLength="189" x="98" y="310.5674">[until doesn't select a valid option]</text><polygon fill="#181818" points="54.5,352.5703,44.5,356.5703,54.5,360.5703,50.5,356.5703" style="stroke:#181818;stroke-width:1.0;"/><line style="stroke:#181818;stroke-width:1.0;stroke-dasharray:2.0,2.0;" x1="48.5" x2="335.5" y1="356.5703" y2="356.5703"/><text fill="#000000" font-family="sans-serif" font-size="13" font-weight="bold" lengthAdjust="spacing" textLength="7" x="60.5" y="342.6621">6</text><text fill="#000000" font-family="sans-serif" font-size="13" lengthAdjust="spacing" textLength="253" x="71.5" y="334.0166">Shows the tasks of the Agenda and asks to</text><text fill="#000000" font-family="sans-serif" font-size="13" lengthAdjust="spacing" textLength="175" x="71.5" y="351.3076">select the task to be canceled</text><polygon fill="#181818" points="319.5,383.8613,329.5,387.8613,319.5,391.8613,323.5,387.8613" style="stroke:#181818;stroke-width:1.0;"/><line style="stroke:#181818;stroke-width:1.0;" x1="43.5" x2="325.5" y1="387.8613" y2="387.8613"/><text fill="#000000" font-family="sans-serif" font-size="13" font-weight="bold" lengthAdjust="spacing" textLength="7" x="50.5" y="382.5986">7</text><text fill="#000000" font-family="sans-serif" font-size="13" lengthAdjust="spacing" textLength="84" x="61.5" y="382.5986">Selects a task</text><line style="stroke:#181818;stroke-width:1.0;stroke-dasharray:2.0,2.0;" x1="341.5" x2="383.5" y1="451.1523" y2="451.1523"/><line style="stroke:#181818;stroke-width:1.0;stroke-dasharray:2.0,2.0;" x1="383.5" x2="383.5" y1="451.1523" y2="464.1523"/><line style="stroke:#181818;stroke-width:1.0;stroke-dasharray:2.0,2.0;" x1="342.5" x2="383.5" y1="464.1523" y2="464.1523"/><polygon fill="#181818" points="352.5,460.1523,342.5,464.1523,352.5,468.1523,348.5,464.1523" style="stroke:#181818;stroke-width:1.0;"/><text fill="#000000" font-family="sans-serif" font-size="13" font-weight="bold" lengthAdjust="spacing" textLength="7" x="348.5" y="445.8896">8</text><text fill="#000000" font-family="sans-serif" font-size="13" lengthAdjust="spacing" textLength="88" x="359.5" y="445.8896">keepData(task)</text><polygon fill="#181818" points="54.5,516.4434,44.5,520.4434,54.5,524.4434,50.5,520.4434" style="stroke:#181818;stroke-width:1.0;"/><line style="stroke:#181818;stroke-width:1.0;stroke-dasharray:2.0,2.0;" x1="48.5" x2="335.5" y1="520.4434" y2="520.4434"/><text fill="#000000" font-family="sans-serif" font-size="13" font-weight="bold" lengthAdjust="spacing" textLength="7" x="60.5" y="515.1807">9</text><text fill="#000000" font-family="sans-serif" font-size="13" lengthAdjust="spacing" textLength="238" x="71.5" y="515.1807">Shows all data and requests confirmation</text><polygon fill="#181818" points="319.5,547.7344,329.5,551.7344,319.5,555.7344,323.5,551.7344" style="stroke:#181818;stroke-width:1.0;"/><line style="stroke:#181818;stroke-width:1.0;" x1="43.5" x2="325.5" y1="551.7344" y2="551.7344"/><text fill="#000000" font-family="sans-serif" font-size="13" font-weight="bold" lengthAdjust="spacing" textLength="14" x="50.5" y="546.4717">10</text><text fill="#000000" font-family="sans-serif" font-size="13" lengthAdjust="spacing" textLength="80" x="68.5" y="546.4717">Confirms data</text><polygon fill="#181818" points="522.5,604.0254,532.5,608.0254,522.5,612.0254,526.5,608.0254" style="stroke:#181818;stroke-width:1.0;"/><line style="stroke:#181818;stroke-width:1.0;" x1="341.5" x2="528.5" y1="608.0254" y2="608.0254"/><text fill="#000000" font-family="sans-serif" font-size="13" font-weight="bold" lengthAdjust="spacing" textLength="14" x="348.5" y="602.7627">11</text><text fill="#000000" font-family="sans-serif" font-size="13" lengthAdjust="spacing" textLength="156" x="366.5" y="602.7627">cancelEntryInAgenda(task)</text><polygon fill="#181818" points="725.5,635.3164,735.5,639.3164,725.5,643.3164,729.5,639.3164" style="stroke:#181818;stroke-width:1.0;"/><line style="stroke:#181818;stroke-width:1.0;" x1="544.5" x2="731.5" y1="639.3164" y2="639.3164"/><text fill="#000000" font-family="sans-serif" font-size="13" font-weight="bold" lengthAdjust="spacing" textLength="14" x="551.5" y="634.0537">12</text><text fill="#000000" font-family="sans-serif" font-size="13" lengthAdjust="spacing" textLength="156" x="569.5" y="634.0537">cancelEntryInAgenda(task)</text><polygon fill="#181818" points="895.5,666.6074,905.5,670.6074,895.5,674.6074,899.5,670.6074" style="stroke:#181818;stroke-width:1.0;"/><line style="stroke:#181818;stroke-width:1.0;" x1="747.5" x2="901.5" y1="670.6074" y2="670.6074"/><text fill="#000000" font-family="sans-serif" font-size="13" font-weight="bold" lengthAdjust="spacing" textLength="14" x="754.5" y="665.3447">13</text><text fill="#000000" font-family="sans-serif" font-size="13" lengthAdjust="spacing" textLength="118" x="772.5" y="665.3447">setStatusToCancel()</text><rect fill="#E3E3E3" height="32.6211" rx="2.5" ry="2.5" style="stroke:#181818;stroke-width:0.5;" width="49" x="907.5" y="647.3164"/><text fill="#000000" font-family="sans-serif" font-size="14" lengthAdjust="spacing" textLength="35" x="914.5" y="669.4238">:Task</text><polygon fill="#181818" points="555.5,710.2285,545.5,714.2285,555.5,718.2285,551.5,714.2285" style="stroke:#181818;stroke-width:1.0;"/><line style="stroke:#181818;stroke-width:1.0;stroke-dasharray:2.0,2.0;" x1="549.5" x2="741.5" y1="714.2285" y2="714.2285"/><text fill="#000000" font-family="sans-serif" font-size="13" font-weight="bold" lengthAdjust="spacing" textLength="14" x="561.5" y="708.9658">14</text><text fill="#000000" font-family="sans-serif" font-size="13" lengthAdjust="spacing" textLength="106" x="579.5" y="708.9658">operation success</text><polygon fill="#181818" points="352.5,741.5195,342.5,745.5195,352.5,749.5195,348.5,745.5195" style="stroke:#181818;stroke-width:1.0;"/><line style="stroke:#181818;stroke-width:1.0;stroke-dasharray:2.0,2.0;" x1="346.5" x2="538.5" y1="745.5195" y2="745.5195"/><text fill="#000000" font-family="sans-serif" font-size="13" font-weight="bold" lengthAdjust="spacing" textLength="14" x="358.5" y="740.2568">15</text><text fill="#000000" font-family="sans-serif" font-size="13" lengthAdjust="spacing" textLength="106" x="376.5" y="740.2568">operation success</text><polygon fill="#181818" points="49.5,797.8105,39.5,801.8105,49.5,805.8105,45.5,801.8105" style="stroke:#181818;stroke-width:1.0;"/><line style="stroke:#181818;stroke-width:1.0;stroke-dasharray:2.0,2.0;" x1="43.5" x2="335.5" y1="801.8105" y2="801.8105"/><text fill="#000000" font-family="sans-serif" font-size="13" font-weight="bold" lengthAdjust="spacing" textLength="14" x="55.5" y="796.5479">16</text><text fill="#000000" font-family="sans-serif" font-size="13" lengthAdjust="spacing" textLength="153" x="73.5" y="796.5479">Display operation success</text><!--SRC=[ZLJ1Zjem4BtxAqPS2YiXLPLwuR3I2geAgRqqSEjbrXc2XMEdjhCh93w-OuU440AxlZ3OyvxVp3p77vIfq649fJLMxfqj2OAhIVZkf49vm8AoSDG4ZcH0K-X-WjzZRj-LAM27sfCGGGLEtMPVlts7EMH77wY4ZFxLP2J1Ic4HOTCiMys4m3fOKvUlv3YMmJgO_Cn-Jm0zyA_WAuAIga8JOB9O8ZFe7oQuuqj19iVjEcLkrnybBYt7Lcjo2R3S_FarW3HvwRG91-SRz8Tq6WEHnAet39Ha2k350SoVMGmiuCKVF0GBCWa1D41H35ZJiYT8Hy8Lf8suc81feaGcAYWqWEdiaj71KXtTTbm9nl06T8_WYgGlgB_E5FEB66mo-qavFUHfvBHT6U1xsEj2jBKLr2Oe3RabRxu4yAJPUu3mXbhbOAkWhBbg6LyI9x20R6_VkVbxjZB6CTXT-dCk1qqEs4pdhpcpjhbnOgzq7XhbOY2o7L9_q5bYy2mi4jmCjHLuEfswc6M8eVB4TI2gLXXm6gbcLzX7bQBcDZ4ibURYE_CiI5gpKwx4ha-F2bd0iadtYKdShMDOourVvUNbhStPU4qvu-QxTV2eYpz9-obVzxtzd9xpqnDVuIba0KFjDxRvVCG7ynXzATjMv5AhmTTIalTZq96tSg_qrXAtl7S8R_iuDgREEIlbAut7KTqZxD4mQVNsqdVlFm00]--></g></svg>