<?xml version="1.0" encoding="us-ascii" standalone="no"?><svg xmlns="http://www.w3.org/2000/svg" xmlns:xlink="http://www.w3.org/1999/xlink" contentStyleType="text/css" height="1354.8px" preserveAspectRatio="none" style="width:1241px;height:1354px;background:#FFFFFF;" version="1.1" viewBox="0 0 1241 1354" width="1241.4px" zoomAndPan="magnify"><defs/><g><text fill="#000000" font-family="sans-serif" font-size="8.4" font-weight="bold" lengthAdjust="spacing" textLength="93" x="570" y="15.0645">US025 - Class Diagram</text><!--cluster GUI--><g id="cluster_GUI"><path d="M403.5,27.3809 L419.1,27.3809 A2.25,2.25 0 0 1 420.6,28.8809 L424.8,42.1535 L567.3,42.1535 A1.5,1.5 0 0 1 568.8,43.6535 L568.8,153.6809 A1.5,1.5 0 0 1 567.3,155.1809 L403.5,155.1809 A1.5,1.5 0 0 1 402,153.6809 L402,28.8809 A1.5,1.5 0 0 1 403.5,27.3809 " fill="#DDDDDD" style="stroke:#000000;stroke-width:0.8999999999999999;"/><line style="stroke:#000000;stroke-width:0.8999999999999999;" x1="402" x2="424.8" y1="42.1535" y2="42.1535"/><text fill="#000000" font-family="sans-serif" font-size="8.4" font-weight="bold" lengthAdjust="spacing" textLength="15" x="404.4" y="37.6453">GUI</text></g><!--cluster Controller--><g id="cluster_Controller"><path d="M302.7,174.9809 L345.9,174.9809 A2.25,2.25 0 0 1 347.4,176.4809 L351.6,189.7535 L638.7,189.7535 A1.5,1.5 0 0 1 640.2,191.2535 L640.2,289.8809 A1.5,1.5 0 0 1 638.7,291.3809 L302.7,291.3809 A1.5,1.5 0 0 1 301.2,289.8809 L301.2,176.4809 A1.5,1.5 0 0 1 302.7,174.9809 " fill="#DDDDDD" style="stroke:#000000;stroke-width:0.8999999999999999;"/><line style="stroke:#000000;stroke-width:0.8999999999999999;" x1="301.2" x2="351.6" y1="189.7535" y2="189.7535"/><text fill="#000000" font-family="sans-serif" font-size="8.4" font-weight="bold" lengthAdjust="spacing" textLength="42.6" x="303.6" y="185.2453">Controller</text></g><!--cluster Repository--><g id="cluster_Repository"><path d="M5.1,557.7809 L51.3,557.7809 A2.25,2.25 0 0 1 52.8,559.2809 L57,572.5535 L889.5,572.5535 A1.5,1.5 0 0 1 891,574.0535 L891,882.0809 A1.5,1.5 0 0 1 889.5,883.5809 L5.1,883.5809 A1.5,1.5 0 0 1 3.6,882.0809 L3.6,559.2809 A1.5,1.5 0 0 1 5.1,557.7809 " fill="#DDDDDD" style="stroke:#000000;stroke-width:0.8999999999999999;"/><line style="stroke:#000000;stroke-width:0.8999999999999999;" x1="3.6" x2="57" y1="572.5535" y2="572.5535"/><text fill="#000000" font-family="sans-serif" font-size="8.4" font-weight="bold" lengthAdjust="spacing" textLength="45.6" x="6" y="568.0453">Repository</text></g><!--cluster Domain--><g id="cluster_Domain"><path d="M181.5,914.1809 L213.3,914.1809 A2.25,2.25 0 0 1 214.8,915.6809 L219,928.9535 L756.9,928.9535 A1.5,1.5 0 0 1 758.4,930.4535 L758.4,1349.4809 A1.5,1.5 0 0 1 756.9,1350.9809 L181.5,1350.9809 A1.5,1.5 0 0 1 180,1349.4809 L180,915.6809 A1.5,1.5 0 0 1 181.5,914.1809 " fill="#DDDDDD" style="stroke:#000000;stroke-width:0.8999999999999999;"/><line style="stroke:#000000;stroke-width:0.8999999999999999;" x1="180" x2="219" y1="928.9535" y2="928.9535"/><text fill="#000000" font-family="sans-serif" font-size="8.4" font-weight="bold" lengthAdjust="spacing" textLength="31.2" x="182.4" y="924.4453">Domain</text></g><!--cluster Mapper--><g id="cluster_Mapper"><path d="M714.3,191.7809 L747.3,191.7809 A2.25,2.25 0 0 1 748.8,193.2809 L753,206.5535 L995.7,206.5535 A1.5,1.5 0 0 1 997.2,208.0535 L997.2,273.0809 A1.5,1.5 0 0 1 995.7,274.5809 L714.3,274.5809 A1.5,1.5 0 0 1 712.8,273.0809 L712.8,193.2809 A1.5,1.5 0 0 1 714.3,191.7809 " fill="#DDDDDD" style="stroke:#000000;stroke-width:0.8999999999999999;"/><line style="stroke:#000000;stroke-width:0.8999999999999999;" x1="712.8" x2="753" y1="206.5535" y2="206.5535"/><text fill="#000000" font-family="sans-serif" font-size="8.4" font-weight="bold" lengthAdjust="spacing" textLength="32.4" x="715.2" y="202.0453">Mapper</text></g><!--cluster DTO--><g id="cluster_DTO"><path d="M906.9,311.1809 L924.9,311.1809 A2.25,2.25 0 0 1 926.4,312.6809 L930.6,325.9535 L1235.7,325.9535 A1.5,1.5 0 0 1 1237.2,327.4535 L1237.2,793.2809 A1.5,1.5 0 0 1 1235.7,794.7809 L906.9,794.7809 A1.5,1.5 0 0 1 905.4,793.2809 L905.4,312.6809 A1.5,1.5 0 0 1 906.9,311.1809 " fill="#DDDDDD" style="stroke:#000000;stroke-width:0.8999999999999999;"/><line style="stroke:#000000;stroke-width:0.8999999999999999;" x1="905.4" x2="930.6" y1="325.9535" y2="325.9535"/><text fill="#000000" font-family="sans-serif" font-size="8.4" font-weight="bold" lengthAdjust="spacing" textLength="17.4" x="907.8" y="321.4453">DTO</text></g><!--class AgendaUI--><g id="elem_AgendaUI"><rect codeLine="12" fill="#F1F1F1" height="95.8359" id="AgendaUI" rx="1.5" ry="1.5" style="stroke:#181818;stroke-width:0.3;" width="147.6" x="411.6" y="49.5809"/><ellipse cx="464.55" cy="59.1809" fill="#ADD1B2" rx="6.6" ry="6.6" style="stroke:#181818;stroke-width:0.6;"/><path d="M466.2094,56.7059 Q466.3031,56.5746 466.4156,56.509 Q466.5281,56.4434 466.6594,56.4434 Q466.8844,56.4434 467.025,56.6027 Q467.1656,56.7527 467.1656,57.1184 L467.1656,57.9902 Q467.1656,58.3559 467.025,58.5152 Q466.8844,58.6746 466.6594,58.6746 Q466.4531,58.6746 466.3312,58.5527 Q466.2094,58.4402 466.1437,58.1309 Q466.1156,57.9152 466.0031,57.8027 Q465.8063,57.5777 465.4406,57.4465 Q465.075,57.3152 464.7,57.3152 Q464.2406,57.3152 463.8563,57.5121 Q463.4813,57.709 463.1813,58.159 Q462.8906,58.609 462.8906,59.2277 L462.8906,59.884 Q462.8906,60.6246 463.425,61.1215 Q463.9594,61.609 464.9156,61.609 Q465.4781,61.609 465.8719,61.459 Q466.1063,61.3652 466.3594,61.1027 Q466.5187,60.9434 466.6031,60.8965 Q466.6969,60.8496 466.8187,60.8496 Q467.0156,60.8496 467.1656,61.009 Q467.325,61.159 467.325,61.3652 Q467.325,61.5715 467.1188,61.8152 Q466.8187,62.1621 466.3406,62.359 Q465.6937,62.6309 464.9156,62.6309 Q464.0062,62.6309 463.2844,62.2559 Q462.6937,61.9559 462.2813,61.3184 Q461.8688,60.6715 461.8688,59.9027 L461.8688,59.209 Q461.8688,58.4121 462.2344,57.7277 Q462.6094,57.034 463.2656,56.6684 Q463.9219,56.2934 464.6625,56.2934 Q465.1031,56.2934 465.4875,56.3965 Q465.8812,56.4902 466.2094,56.7059 Z " fill="#000000"/><text fill="#000000" font-family="sans-serif" font-size="8.4" lengthAdjust="spacing" textLength="36.6" x="476.85" y="62.659">AgendaUI</text><line style="stroke:#181818;stroke-width:0.3;" x1="412.2" x2="558.6" y1="68.7809" y2="68.7809"/><text fill="#000000" font-family="sans-serif" font-size="8.4" lengthAdjust="spacing" textLength="121.8" x="415.2" y="80.2453">-AgendaTaskDTO selectedTask</text><line style="stroke:#181818;stroke-width:0.3;" x1="412.2" x2="558.6" y1="84.7535" y2="84.7535"/><text fill="#000000" font-family="sans-serif" font-size="8.4" lengthAdjust="spacing" textLength="112.2" x="415.2" y="96.218">+initialize(location, resources)</text><text fill="#000000" font-family="sans-serif" font-size="8.4" lengthAdjust="spacing" textLength="57" x="415.2" y="107.3906">-fillTaskTable()</text><text fill="#000000" font-family="sans-serif" font-size="8.4" lengthAdjust="spacing" textLength="67.8" x="415.2" y="118.5633">+btnCancelTask()</text><text fill="#000000" font-family="sans-serif" font-size="8.4" lengthAdjust="spacing" textLength="74.4" x="415.2" y="129.7359">-updateTableView()</text><text fill="#000000" font-family="sans-serif" font-size="8.4" lengthAdjust="spacing" textLength="140.4" x="415.2" y="140.9086">-validateSelectedTask(selectedTask)</text></g><!--class CancelEntryAgendaController--><g id="elem_CancelEntryAgendaController"><rect codeLine="23" fill="#F1F1F1" height="84.6633" id="CancelEntryAgendaController" rx="1.5" ry="1.5" style="stroke:#181818;stroke-width:0.3;" width="156" x="474.6" y="197.1809"/><ellipse cx="494.4" cy="206.7809" fill="#ADD1B2" rx="6.6" ry="6.6" style="stroke:#181818;stroke-width:0.6;"/><path d="M496.0594,204.3059 Q496.1531,204.1746 496.2656,204.109 Q496.3781,204.0434 496.5094,204.0434 Q496.7344,204.0434 496.875,204.2027 Q497.0156,204.3527 497.0156,204.7184 L497.0156,205.5902 Q497.0156,205.9559 496.875,206.1152 Q496.7344,206.2746 496.5094,206.2746 Q496.3031,206.2746 496.1813,206.1527 Q496.0594,206.0402 495.9938,205.7309 Q495.9656,205.5152 495.8531,205.4027 Q495.6563,205.1777 495.2906,205.0465 Q494.925,204.9152 494.55,204.9152 Q494.0906,204.9152 493.7062,205.1121 Q493.3312,205.309 493.0313,205.759 Q492.7406,206.209 492.7406,206.8277 L492.7406,207.484 Q492.7406,208.2246 493.275,208.7215 Q493.8094,209.209 494.7656,209.209 Q495.3281,209.209 495.7219,209.059 Q495.9562,208.9652 496.2094,208.7027 Q496.3688,208.5434 496.4531,208.4965 Q496.5469,208.4496 496.6688,208.4496 Q496.8656,208.4496 497.0156,208.609 Q497.175,208.759 497.175,208.9652 Q497.175,209.1715 496.9688,209.4152 Q496.6688,209.7621 496.1906,209.959 Q495.5438,210.2309 494.7656,210.2309 Q493.8563,210.2309 493.1344,209.8559 Q492.5438,209.5559 492.1312,208.9184 Q491.7188,208.2715 491.7188,207.5027 L491.7188,206.809 Q491.7188,206.0121 492.0844,205.3277 Q492.4594,204.634 493.1156,204.2684 Q493.7719,203.8934 494.5125,203.8934 Q494.9531,203.8934 495.3375,203.9965 Q495.7313,204.0902 496.0594,204.3059 Z " fill="#000000"/><text fill="#000000" font-family="sans-serif" font-size="8.4" lengthAdjust="spacing" textLength="112.8" x="505.2" y="210.259">CancelEntryAgendaController</text><line style="stroke:#181818;stroke-width:0.3;" x1="475.2" x2="630" y1="216.3809" y2="216.3809"/><line style="stroke:#181818;stroke-width:0.3;" x1="475.2" x2="630" y1="221.1809" y2="221.1809"/><text fill="#000000" font-family="sans-serif" font-size="8.4" lengthAdjust="spacing" textLength="123.6" x="478.2" y="232.6453">+CancelEntryAgendaController()</text><text fill="#000000" font-family="sans-serif" font-size="8.4" lengthAdjust="spacing" textLength="148.8" x="478.2" y="243.818">+cancelTaskAgenda(agendaTaskDTO)</text><text fill="#000000" font-family="sans-serif" font-size="8.4" lengthAdjust="spacing" textLength="93" x="478.2" y="254.9906">+getAgendaRepository()</text><text fill="#000000" font-family="sans-serif" font-size="8.4" lengthAdjust="spacing" textLength="85.2" x="478.2" y="266.1633">+getTeamRepository()</text><text fill="#000000" font-family="sans-serif" font-size="8.4" lengthAdjust="spacing" textLength="91.2" x="478.2" y="277.3359">+getVehicleRepository()</text></g><!--class AgendaController--><g id="elem_AgendaController"><rect codeLine="31" fill="#F1F1F1" height="39.9727" id="AgendaController" rx="1.5" ry="1.5" style="stroke:#181818;stroke-width:0.3;" width="142.8" x="310.8" y="219.3809"/><ellipse cx="346.35" cy="228.9809" fill="#ADD1B2" rx="6.6" ry="6.6" style="stroke:#181818;stroke-width:0.6;"/><path d="M348.0094,226.5059 Q348.1031,226.3746 348.2156,226.309 Q348.3281,226.2434 348.4594,226.2434 Q348.6844,226.2434 348.825,226.4027 Q348.9656,226.5527 348.9656,226.9184 L348.9656,227.7902 Q348.9656,228.1559 348.825,228.3152 Q348.6844,228.4746 348.4594,228.4746 Q348.2531,228.4746 348.1312,228.3527 Q348.0094,228.2402 347.9437,227.9309 Q347.9156,227.7152 347.8031,227.6027 Q347.6063,227.3777 347.2406,227.2465 Q346.875,227.1152 346.5,227.1152 Q346.0406,227.1152 345.6563,227.3121 Q345.2813,227.509 344.9813,227.959 Q344.6906,228.409 344.6906,229.0277 L344.6906,229.684 Q344.6906,230.4246 345.225,230.9215 Q345.7594,231.409 346.7156,231.409 Q347.2781,231.409 347.6719,231.259 Q347.9063,231.1652 348.1594,230.9027 Q348.3187,230.7434 348.4031,230.6965 Q348.4969,230.6496 348.6188,230.6496 Q348.8156,230.6496 348.9656,230.809 Q349.125,230.959 349.125,231.1652 Q349.125,231.3715 348.9188,231.6152 Q348.6188,231.9621 348.1406,232.159 Q347.4938,232.4309 346.7156,232.4309 Q345.8063,232.4309 345.0844,232.0559 Q344.4938,231.7559 344.0813,231.1184 Q343.6688,230.4715 343.6688,229.7027 L343.6688,229.009 Q343.6688,228.2121 344.0344,227.5277 Q344.4094,226.834 345.0656,226.4684 Q345.7219,226.0934 346.4625,226.0934 Q346.9031,226.0934 347.2875,226.1965 Q347.6813,226.2902 348.0094,226.5059 Z " fill="#000000"/><text fill="#000000" font-family="sans-serif" font-size="8.4" lengthAdjust="spacing" textLength="66.6" x="358.65" y="232.459">AgendaController</text><line style="stroke:#181818;stroke-width:0.3;" x1="311.4" x2="453" y1="238.5809" y2="238.5809"/><line style="stroke:#181818;stroke-width:0.3;" x1="311.4" x2="453" y1="243.3809" y2="243.3809"/><text fill="#000000" font-family="sans-serif" font-size="8.4" lengthAdjust="spacing" textLength="135.6" x="314.4" y="254.8453">+getAgendaTaskDTOManagerList()</text></g><!--class TeamRepository--><g id="elem_TeamRepository"><rect codeLine="38" fill="#F1F1F1" height="51.1453" id="TeamRepository" rx="1.5" ry="1.5" style="stroke:#181818;stroke-width:0.3;" width="249.6" x="631.8" y="822.9809"/><ellipse cx="722.85" cy="832.5809" fill="#ADD1B2" rx="6.6" ry="6.6" style="stroke:#181818;stroke-width:0.6;"/><path d="M724.5094,830.1059 Q724.6031,829.9746 724.7156,829.909 Q724.8281,829.8434 724.9594,829.8434 Q725.1844,829.8434 725.325,830.0027 Q725.4656,830.1527 725.4656,830.5184 L725.4656,831.3902 Q725.4656,831.7559 725.325,831.9152 Q725.1844,832.0746 724.9594,832.0746 Q724.7531,832.0746 724.6313,831.9527 Q724.5094,831.8402 724.4438,831.5309 Q724.4156,831.3152 724.3031,831.2027 Q724.1062,830.9777 723.7406,830.8465 Q723.375,830.7152 723,830.7152 Q722.5406,830.7152 722.1563,830.9121 Q721.7813,831.109 721.4812,831.559 Q721.1906,832.009 721.1906,832.6277 L721.1906,833.284 Q721.1906,834.0246 721.725,834.5215 Q722.2594,835.009 723.2156,835.009 Q723.7781,835.009 724.1719,834.859 Q724.4063,834.7652 724.6594,834.5027 Q724.8188,834.3434 724.9031,834.2965 Q724.9969,834.2496 725.1188,834.2496 Q725.3156,834.2496 725.4656,834.409 Q725.625,834.559 725.625,834.7652 Q725.625,834.9715 725.4187,835.2152 Q725.1188,835.5621 724.6406,835.759 Q723.9938,836.0309 723.2156,836.0309 Q722.3063,836.0309 721.5844,835.6559 Q720.9938,835.3559 720.5813,834.7184 Q720.1687,834.0715 720.1687,833.3027 L720.1687,832.609 Q720.1687,831.8121 720.5344,831.1277 Q720.9094,830.434 721.5656,830.0684 Q722.2219,829.6934 722.9625,829.6934 Q723.4031,829.6934 723.7875,829.7965 Q724.1813,829.8902 724.5094,830.1059 Z " fill="#000000"/><text fill="#000000" font-family="sans-serif" font-size="8.4" lengthAdjust="spacing" textLength="62.4" x="735.15" y="836.059">TeamRepository</text><line style="stroke:#181818;stroke-width:0.3;" x1="632.4" x2="880.8" y1="842.1809" y2="842.1809"/><text fill="#000000" font-family="sans-serif" font-size="8.4" lengthAdjust="spacing" textLength="81.6" x="635.4" y="853.6453">-List&lt;Team&gt; teamList</text><line style="stroke:#181818;stroke-width:0.3;" x1="632.4" x2="880.8" y1="858.1535" y2="858.1535"/><text fill="#000000" font-family="sans-serif" font-size="8.4" lengthAdjust="spacing" textLength="242.4" x="635.4" y="869.618">+removeWorkPeriodFromTeam(canceledTask, taskWorkPeriod)</text></g><!--class VehicleRepository--><g id="elem_VehicleRepository"><rect codeLine="44" fill="#F1F1F1" height="39.9727" id="VehicleRepository" rx="1.5" ry="1.5" style="stroke:#181818;stroke-width:0.3;" width="255.6" x="355.2" y="828.3809"/><ellipse cx="446.25" cy="837.9809" fill="#ADD1B2" rx="6.6" ry="6.6" style="stroke:#181818;stroke-width:0.6;"/><path d="M447.9094,835.5059 Q448.0031,835.3746 448.1156,835.309 Q448.2281,835.2434 448.3594,835.2434 Q448.5844,835.2434 448.725,835.4027 Q448.8656,835.5527 448.8656,835.9184 L448.8656,836.7902 Q448.8656,837.1559 448.725,837.3152 Q448.5844,837.4746 448.3594,837.4746 Q448.1531,837.4746 448.0313,837.3527 Q447.9094,837.2402 447.8438,836.9309 Q447.8156,836.7152 447.7031,836.6027 Q447.5062,836.3777 447.1406,836.2465 Q446.775,836.1152 446.4,836.1152 Q445.9406,836.1152 445.5563,836.3121 Q445.1813,836.509 444.8812,836.959 Q444.5906,837.409 444.5906,838.0277 L444.5906,838.684 Q444.5906,839.4246 445.125,839.9215 Q445.6594,840.409 446.6156,840.409 Q447.1781,840.409 447.5719,840.259 Q447.8063,840.1652 448.0594,839.9027 Q448.2188,839.7434 448.3031,839.6965 Q448.3969,839.6496 448.5188,839.6496 Q448.7156,839.6496 448.8656,839.809 Q449.025,839.959 449.025,840.1652 Q449.025,840.3715 448.8187,840.6152 Q448.5188,840.9621 448.0406,841.159 Q447.3938,841.4309 446.6156,841.4309 Q445.7063,841.4309 444.9844,841.0559 Q444.3938,840.7559 443.9813,840.1184 Q443.5687,839.4715 443.5687,838.7027 L443.5687,838.009 Q443.5687,837.2121 443.9344,836.5277 Q444.3094,835.834 444.9656,835.4684 Q445.6219,835.0934 446.3625,835.0934 Q446.8031,835.0934 447.1875,835.1965 Q447.5813,835.2902 447.9094,835.5059 Z " fill="#000000"/><text fill="#000000" font-family="sans-serif" font-size="8.4" lengthAdjust="spacing" textLength="68.4" x="458.55" y="841.459">VehicleRepository</text><line style="stroke:#181818;stroke-width:0.3;" x1="355.8" x2="610.2" y1="847.5809" y2="847.5809"/><line style="stroke:#181818;stroke-width:0.3;" x1="355.8" x2="610.2" y1="852.3809" y2="852.3809"/><text fill="#000000" font-family="sans-serif" font-size="8.4" lengthAdjust="spacing" textLength="248.4" x="358.8" y="863.8453">+removeWorkPeriodFromVehicle(canceledTask, taskWorkPeriod)</text></g><!--class AgendaRepository--><g id="elem_AgendaRepository"><rect codeLine="48" fill="#F1F1F1" height="51.1453" id="AgendaRepository" rx="1.5" ry="1.5" style="stroke:#181818;stroke-width:0.3;" width="259.8" x="74.1" y="822.9809"/><ellipse cx="166.35" cy="832.5809" fill="#ADD1B2" rx="6.6" ry="6.6" style="stroke:#181818;stroke-width:0.6;"/><path d="M168.0094,830.1059 Q168.1031,829.9746 168.2156,829.909 Q168.3281,829.8434 168.4594,829.8434 Q168.6844,829.8434 168.825,830.0027 Q168.9656,830.1527 168.9656,830.5184 L168.9656,831.3902 Q168.9656,831.7559 168.825,831.9152 Q168.6844,832.0746 168.4594,832.0746 Q168.2531,832.0746 168.1313,831.9527 Q168.0094,831.8402 167.9438,831.5309 Q167.9156,831.3152 167.8031,831.2027 Q167.6063,830.9777 167.2406,830.8465 Q166.875,830.7152 166.5,830.7152 Q166.0406,830.7152 165.6563,830.9121 Q165.2813,831.109 164.9813,831.559 Q164.6906,832.009 164.6906,832.6277 L164.6906,833.284 Q164.6906,834.0246 165.225,834.5215 Q165.7594,835.009 166.7156,835.009 Q167.2781,835.009 167.6719,834.859 Q167.9063,834.7652 168.1594,834.5027 Q168.3188,834.3434 168.4031,834.2965 Q168.4969,834.2496 168.6188,834.2496 Q168.8156,834.2496 168.9656,834.409 Q169.125,834.559 169.125,834.7652 Q169.125,834.9715 168.9188,835.2152 Q168.6188,835.5621 168.1406,835.759 Q167.4938,836.0309 166.7156,836.0309 Q165.8063,836.0309 165.0844,835.6559 Q164.4938,835.3559 164.0812,834.7184 Q163.6688,834.0715 163.6688,833.3027 L163.6688,832.609 Q163.6688,831.8121 164.0344,831.1277 Q164.4094,830.434 165.0656,830.0684 Q165.7219,829.6934 166.4625,829.6934 Q166.9031,829.6934 167.2875,829.7965 Q167.6813,829.8902 168.0094,830.1059 Z " fill="#000000"/><text fill="#000000" font-family="sans-serif" font-size="8.4" lengthAdjust="spacing" textLength="70.2" x="178.65" y="836.059">AgendaRepository</text><line style="stroke:#181818;stroke-width:0.3;" x1="74.7" x2="333.3" y1="842.1809" y2="842.1809"/><text fill="#000000" font-family="sans-serif" font-size="8.4" lengthAdjust="spacing" textLength="75.6" x="77.7" y="853.6453">-List&lt;Task&gt; agenda</text><line style="stroke:#181818;stroke-width:0.3;" x1="74.7" x2="333.3" y1="858.1535" y2="858.1535"/><text fill="#000000" font-family="sans-serif" font-size="8.4" lengthAdjust="spacing" textLength="252.6" x="77.7" y="869.618">+updateTaskToCanceled(title, greenSpace, executionDate, status)</text></g><!--class Repositories--><g id="elem_Repositories"><rect codeLine="53" fill="#F1F1F1" height="84.6633" id="Repositories" rx="1.5" ry="1.5" style="stroke:#181818;stroke-width:0.3;" width="116.4" x="341.4" y="579.9809"/><ellipse cx="373.35" cy="589.5809" fill="#ADD1B2" rx="6.6" ry="6.6" style="stroke:#181818;stroke-width:0.6;"/><path d="M375.0094,587.1059 Q375.1031,586.9746 375.2156,586.909 Q375.3281,586.8434 375.4594,586.8434 Q375.6844,586.8434 375.825,587.0027 Q375.9656,587.1527 375.9656,587.5184 L375.9656,588.3902 Q375.9656,588.7559 375.825,588.9152 Q375.6844,589.0746 375.4594,589.0746 Q375.2531,589.0746 375.1312,588.9527 Q375.0094,588.8402 374.9437,588.5309 Q374.9156,588.3152 374.8031,588.2027 Q374.6063,587.9777 374.2406,587.8465 Q373.875,587.7152 373.5,587.7152 Q373.0406,587.7152 372.6563,587.9121 Q372.2813,588.109 371.9813,588.559 Q371.6906,589.009 371.6906,589.6277 L371.6906,590.284 Q371.6906,591.0246 372.225,591.5215 Q372.7594,592.009 373.7156,592.009 Q374.2781,592.009 374.6719,591.859 Q374.9063,591.7652 375.1594,591.5027 Q375.3187,591.3434 375.4031,591.2965 Q375.4969,591.2496 375.6188,591.2496 Q375.8156,591.2496 375.9656,591.409 Q376.125,591.559 376.125,591.7652 Q376.125,591.9715 375.9188,592.2152 Q375.6188,592.5621 375.1406,592.759 Q374.4938,593.0309 373.7156,593.0309 Q372.8063,593.0309 372.0844,592.6559 Q371.4938,592.3559 371.0813,591.7184 Q370.6688,591.0715 370.6688,590.3027 L370.6688,589.609 Q370.6688,588.8121 371.0344,588.1277 Q371.4094,587.434 372.0656,587.0684 Q372.7219,586.6934 373.4625,586.6934 Q373.9031,586.6934 374.2875,586.7965 Q374.6813,586.8902 375.0094,587.1059 Z " fill="#000000"/><text fill="#000000" font-family="sans-serif" font-size="8.4" lengthAdjust="spacing" textLength="47.4" x="385.65" y="593.059">Repositories</text><line style="stroke:#181818;stroke-width:0.3;" x1="342" x2="457.2" y1="599.1809" y2="599.1809"/><line style="stroke:#181818;stroke-width:0.3;" x1="342" x2="457.2" y1="603.9809" y2="603.9809"/><text fill="#000000" font-family="sans-serif" font-size="8.4" lengthAdjust="spacing" textLength="56.4" x="345" y="615.4453">-Repositories()</text><text fill="#000000" font-family="sans-serif" font-size="8.4" lengthAdjust="spacing" textLength="109.2" x="345" y="626.618">+getInstance() : Repositories</text><text fill="#000000" font-family="sans-serif" font-size="8.4" lengthAdjust="spacing" textLength="85.2" x="345" y="637.7906">+getTeamRepository()</text><text fill="#000000" font-family="sans-serif" font-size="8.4" lengthAdjust="spacing" textLength="93" x="345" y="648.9633">+getAgendaRepository()</text><text fill="#000000" font-family="sans-serif" font-size="8.4" lengthAdjust="spacing" textLength="91.2" x="345" y="660.1359">+getVehicleRepository()</text></g><!--class ApplicationSession--><g id="elem_ApplicationSession"><rect codeLine="61" fill="#F1F1F1" height="73.4906" id="ApplicationSession" rx="1.5" ry="1.5" style="stroke:#181818;stroke-width:0.3;" width="140.4" x="132.6" y="585.6809"/><ellipse cx="164.55" cy="595.2809" fill="#ADD1B2" rx="6.6" ry="6.6" style="stroke:#181818;stroke-width:0.6;"/><path d="M166.2094,592.8059 Q166.3031,592.6746 166.4156,592.609 Q166.5281,592.5434 166.6594,592.5434 Q166.8844,592.5434 167.025,592.7027 Q167.1656,592.8527 167.1656,593.2184 L167.1656,594.0902 Q167.1656,594.4559 167.025,594.6152 Q166.8844,594.7746 166.6594,594.7746 Q166.4531,594.7746 166.3312,594.6527 Q166.2094,594.5402 166.1437,594.2309 Q166.1156,594.0152 166.0031,593.9027 Q165.8063,593.6777 165.4406,593.5465 Q165.075,593.4152 164.7,593.4152 Q164.2406,593.4152 163.8563,593.6121 Q163.4813,593.809 163.1813,594.259 Q162.8906,594.709 162.8906,595.3277 L162.8906,595.984 Q162.8906,596.7246 163.425,597.2215 Q163.9594,597.709 164.9156,597.709 Q165.4781,597.709 165.8719,597.559 Q166.1063,597.4652 166.3594,597.2027 Q166.5187,597.0434 166.6031,596.9965 Q166.6969,596.9496 166.8188,596.9496 Q167.0156,596.9496 167.1656,597.109 Q167.325,597.259 167.325,597.4652 Q167.325,597.6715 167.1188,597.9152 Q166.8188,598.2621 166.3406,598.459 Q165.6938,598.7309 164.9156,598.7309 Q164.0063,598.7309 163.2844,598.3559 Q162.6938,598.0559 162.2813,597.4184 Q161.8688,596.7715 161.8688,596.0027 L161.8688,595.309 Q161.8688,594.5121 162.2344,593.8277 Q162.6094,593.134 163.2656,592.7684 Q163.9219,592.3934 164.6625,592.3934 Q165.1031,592.3934 165.4875,592.4965 Q165.8813,592.5902 166.2094,592.8059 Z " fill="#000000"/><text fill="#000000" font-family="sans-serif" font-size="8.4" lengthAdjust="spacing" textLength="71.4" x="176.85" y="598.759">ApplicationSession</text><line style="stroke:#181818;stroke-width:0.3;" x1="133.2" x2="272.4" y1="604.8809" y2="604.8809"/><line style="stroke:#181818;stroke-width:0.3;" x1="133.2" x2="272.4" y1="609.6809" y2="609.6809"/><text fill="#000000" font-family="sans-serif" font-size="8.4" lengthAdjust="spacing" textLength="80.4" x="136.2" y="621.1453">-ApplicationSession()</text><text fill="#000000" font-family="sans-serif" font-size="8.4" lengthAdjust="spacing" textLength="133.2" x="136.2" y="632.318">+getInstance() : ApplicationSession</text><text fill="#000000" font-family="sans-serif" font-size="8.4" lengthAdjust="spacing" textLength="117.6" x="136.2" y="643.4906">+getAuthenticationRepository()</text><text fill="#000000" font-family="sans-serif" font-size="8.4" lengthAdjust="spacing" textLength="81.6" x="136.2" y="654.6633">+getCurrentSession()</text></g><!--class UserSession--><g id="elem_UserSession"><rect codeLine="69" fill="#F1F1F1" height="39.9727" id="UserSession" rx="1.5" ry="1.5" style="stroke:#181818;stroke-width:0.3;" width="67.8" x="96.9" y="728.4809"/><ellipse cx="106.44" cy="738.0809" fill="#ADD1B2" rx="6.6" ry="6.6" style="stroke:#181818;stroke-width:0.6;"/><path d="M108.0994,735.6059 Q108.1931,735.4746 108.3056,735.409 Q108.4181,735.3434 108.5494,735.3434 Q108.7744,735.3434 108.915,735.5027 Q109.0556,735.6527 109.0556,736.0184 L109.0556,736.8902 Q109.0556,737.2559 108.915,737.4152 Q108.7744,737.5746 108.5494,737.5746 Q108.3431,737.5746 108.2213,737.4527 Q108.0994,737.3402 108.0338,737.0309 Q108.0056,736.8152 107.8931,736.7027 Q107.6963,736.4777 107.3306,736.3465 Q106.965,736.2152 106.59,736.2152 Q106.1306,736.2152 105.7463,736.4121 Q105.3713,736.609 105.0713,737.059 Q104.7806,737.509 104.7806,738.1277 L104.7806,738.784 Q104.7806,739.5246 105.315,740.0215 Q105.8494,740.509 106.8056,740.509 Q107.3681,740.509 107.7619,740.359 Q107.9963,740.2652 108.2494,740.0027 Q108.4088,739.8434 108.4931,739.7965 Q108.5869,739.7496 108.7088,739.7496 Q108.9056,739.7496 109.0556,739.909 Q109.215,740.059 109.215,740.2652 Q109.215,740.4715 109.0088,740.7152 Q108.7088,741.0621 108.2306,741.259 Q107.5838,741.5309 106.8056,741.5309 Q105.8963,741.5309 105.1744,741.1559 Q104.5838,740.8559 104.1713,740.2184 Q103.7588,739.5715 103.7588,738.8027 L103.7588,738.109 Q103.7588,737.3121 104.1244,736.6277 Q104.4994,735.934 105.1556,735.5684 Q105.8119,735.1934 106.5525,735.1934 Q106.9931,735.1934 107.3775,735.2965 Q107.7713,735.3902 108.0994,735.6059 Z " fill="#000000"/><text fill="#000000" font-family="sans-serif" font-size="8.4" lengthAdjust="spacing" textLength="47.4" x="114.96" y="741.559">UserSession</text><line style="stroke:#181818;stroke-width:0.3;" x1="97.5" x2="164.1" y1="747.6809" y2="747.6809"/><line style="stroke:#181818;stroke-width:0.3;" x1="97.5" x2="164.1" y1="752.4809" y2="752.4809"/><text fill="#000000" font-family="sans-serif" font-size="8.4" lengthAdjust="spacing" textLength="60.6" x="100.5" y="763.9453">+getUserEmail()</text></g><!--class Email--><g id="elem_Email"><rect codeLine="74" fill="#F1F1F1" height="28.8" id="Email" rx="1.5" ry="1.5" style="stroke:#181818;stroke-width:0.3;" width="39.6" x="13.2" y="834.0809"/><ellipse cx="22.2" cy="843.6809" fill="#ADD1B2" rx="6.6" ry="6.6" style="stroke:#181818;stroke-width:0.6;"/><path d="M23.8594,841.2059 Q23.9531,841.0746 24.0656,841.009 Q24.1781,840.9434 24.3094,840.9434 Q24.5344,840.9434 24.675,841.1027 Q24.8156,841.2527 24.8156,841.6184 L24.8156,842.4902 Q24.8156,842.8559 24.675,843.0152 Q24.5344,843.1746 24.3094,843.1746 Q24.1031,843.1746 23.9813,843.0527 Q23.8594,842.9402 23.7938,842.6309 Q23.7656,842.4152 23.6531,842.3027 Q23.4563,842.0777 23.0906,841.9465 Q22.725,841.8152 22.35,841.8152 Q21.8906,841.8152 21.5062,842.0121 Q21.1312,842.209 20.8313,842.659 Q20.5406,843.109 20.5406,843.7277 L20.5406,844.384 Q20.5406,845.1246 21.075,845.6215 Q21.6094,846.109 22.5656,846.109 Q23.1281,846.109 23.5219,845.959 Q23.7562,845.8652 24.0094,845.6027 Q24.1688,845.4434 24.2531,845.3965 Q24.3469,845.3496 24.4688,845.3496 Q24.6656,845.3496 24.8156,845.509 Q24.975,845.659 24.975,845.8652 Q24.975,846.0715 24.7688,846.3152 Q24.4688,846.6621 23.9906,846.859 Q23.3438,847.1309 22.5656,847.1309 Q21.6563,847.1309 20.9344,846.7559 Q20.3438,846.4559 19.9313,845.8184 Q19.5188,845.1715 19.5188,844.4027 L19.5188,843.709 Q19.5188,842.9121 19.8844,842.2277 Q20.2594,841.534 20.9156,841.1684 Q21.5719,840.7934 22.3125,840.7934 Q22.7531,840.7934 23.1375,840.8965 Q23.5313,840.9902 23.8594,841.2059 Z " fill="#000000"/><text fill="#000000" font-family="sans-serif" font-size="8.4" lengthAdjust="spacing" textLength="20.4" x="30.6" y="847.159">Email</text><line style="stroke:#181818;stroke-width:0.3;" x1="13.8" x2="52.2" y1="853.2809" y2="853.2809"/><line style="stroke:#181818;stroke-width:0.3;" x1="13.8" x2="52.2" y1="858.0809" y2="858.0809"/></g><!--class Vehicle--><g id="elem_Vehicle"><rect codeLine="82" fill="#F1F1F1" height="107.0086" id="Vehicle" rx="1.5" ry="1.5" style="stroke:#181818;stroke-width:0.3;" width="172.2" x="396.9" y="942.0809"/><ellipse cx="466.65" cy="951.6809" fill="#ADD1B2" rx="6.6" ry="6.6" style="stroke:#181818;stroke-width:0.6;"/><path d="M468.3094,949.2059 Q468.4031,949.0746 468.5156,949.009 Q468.6281,948.9434 468.7594,948.9434 Q468.9844,948.9434 469.125,949.1027 Q469.2656,949.2527 469.2656,949.6184 L469.2656,950.4902 Q469.2656,950.8559 469.125,951.0152 Q468.9844,951.1746 468.7594,951.1746 Q468.5531,951.1746 468.4313,951.0527 Q468.3094,950.9402 468.2438,950.6309 Q468.2156,950.4152 468.1031,950.3027 Q467.9063,950.0777 467.5406,949.9465 Q467.175,949.8152 466.8,949.8152 Q466.3406,949.8152 465.9562,950.0121 Q465.5812,950.209 465.2813,950.659 Q464.9906,951.109 464.9906,951.7277 L464.9906,952.384 Q464.9906,953.1246 465.525,953.6215 Q466.0594,954.109 467.0156,954.109 Q467.5781,954.109 467.9719,953.959 Q468.2062,953.8652 468.4594,953.6027 Q468.6188,953.4434 468.7031,953.3965 Q468.7969,953.3496 468.9188,953.3496 Q469.1156,953.3496 469.2656,953.509 Q469.425,953.659 469.425,953.8652 Q469.425,954.0715 469.2188,954.3152 Q468.9188,954.6621 468.4406,954.859 Q467.7938,955.1309 467.0156,955.1309 Q466.1063,955.1309 465.3844,954.7559 Q464.7938,954.4559 464.3812,953.8184 Q463.9688,953.1715 463.9688,952.4027 L463.9688,951.709 Q463.9688,950.9121 464.3344,950.2277 Q464.7094,949.534 465.3656,949.1684 Q466.0219,948.7934 466.7625,948.7934 Q467.2031,948.7934 467.5875,948.8965 Q467.9813,948.9902 468.3094,949.2059 Z " fill="#000000"/><text fill="#000000" font-family="sans-serif" font-size="8.4" lengthAdjust="spacing" textLength="27.6" x="478.95" y="955.159">Vehicle</text><line style="stroke:#181818;stroke-width:0.3;" x1="397.5" x2="568.5" y1="961.2809" y2="961.2809"/><text fill="#000000" font-family="sans-serif" font-size="8.4" lengthAdjust="spacing" textLength="54.6" x="400.5" y="972.7453">+String plateId</text><text fill="#000000" font-family="sans-serif" font-size="8.4" lengthAdjust="spacing" textLength="51.6" x="400.5" y="983.918">+String brand</text><text fill="#000000" font-family="sans-serif" font-size="8.4" lengthAdjust="spacing" textLength="52.2" x="400.5" y="995.0906">+String model</text><text fill="#000000" font-family="sans-serif" font-size="8.4" lengthAdjust="spacing" textLength="70.2" x="400.5" y="1006.2633">+VehicleType type</text><text fill="#000000" font-family="sans-serif" font-size="8.4" lengthAdjust="spacing" textLength="48" x="400.5" y="1017.4359">+double tare</text><text fill="#000000" font-family="sans-serif" font-size="8.4" lengthAdjust="spacing" textLength="7.2" x="400.5" y="1028.6086">...</text><line style="stroke:#181818;stroke-width:0.3;" x1="397.5" x2="568.5" y1="1033.1168" y2="1033.1168"/><text fill="#000000" font-family="sans-serif" font-size="8.4" lengthAdjust="spacing" textLength="165" x="400.5" y="1044.5813">+removeWorkPeriodIfExists(oldWorkPeriod)</text></g><!--class Team--><g id="elem_Team"><rect codeLine="93" fill="#F1F1F1" height="62.318" id="Team" rx="1.5" ry="1.5" style="stroke:#181818;stroke-width:0.3;" width="158.4" x="590.4" y="964.2809"/><ellipse cx="656.25" cy="973.8809" fill="#ADD1B2" rx="6.6" ry="6.6" style="stroke:#181818;stroke-width:0.6;"/><path d="M657.9094,971.4059 Q658.0031,971.2746 658.1156,971.209 Q658.2281,971.1434 658.3594,971.1434 Q658.5844,971.1434 658.725,971.3027 Q658.8656,971.4527 658.8656,971.8184 L658.8656,972.6902 Q658.8656,973.0559 658.725,973.2152 Q658.5844,973.3746 658.3594,973.3746 Q658.1531,973.3746 658.0313,973.2527 Q657.9094,973.1402 657.8438,972.8309 Q657.8156,972.6152 657.7031,972.5027 Q657.5063,972.2777 657.1406,972.1465 Q656.775,972.0152 656.4,972.0152 Q655.9406,972.0152 655.5563,972.2121 Q655.1813,972.409 654.8813,972.859 Q654.5906,973.309 654.5906,973.9277 L654.5906,974.584 Q654.5906,975.3246 655.125,975.8215 Q655.6594,976.309 656.6156,976.309 Q657.1781,976.309 657.5719,976.159 Q657.8063,976.0652 658.0594,975.8027 Q658.2188,975.6434 658.3031,975.5965 Q658.3969,975.5496 658.5188,975.5496 Q658.7156,975.5496 658.8656,975.709 Q659.025,975.859 659.025,976.0652 Q659.025,976.2715 658.8188,976.5152 Q658.5188,976.8621 658.0406,977.059 Q657.3938,977.3309 656.6156,977.3309 Q655.7063,977.3309 654.9844,976.9559 Q654.3938,976.6559 653.9812,976.0184 Q653.5688,975.3715 653.5688,974.6027 L653.5688,973.909 Q653.5688,973.1121 653.9344,972.4277 Q654.3094,971.734 654.9656,971.3684 Q655.6219,970.9934 656.3625,970.9934 Q656.8031,970.9934 657.1875,971.0965 Q657.5813,971.1902 657.9094,971.4059 Z " fill="#000000"/><text fill="#000000" font-family="sans-serif" font-size="8.4" lengthAdjust="spacing" textLength="21.6" x="668.55" y="977.359">Team</text><line style="stroke:#181818;stroke-width:0.3;" x1="591" x2="748.2" y1="983.4809" y2="983.4809"/><text fill="#000000" font-family="sans-serif" font-size="8.4" lengthAdjust="spacing" textLength="109.8" x="594" y="994.9453">-List&lt;Collaborator&gt; members</text><text fill="#000000" font-family="sans-serif" font-size="8.4" lengthAdjust="spacing" textLength="118.8" x="594" y="1006.118">-List&lt;WorkPeriod&gt; workPeriods</text><line style="stroke:#181818;stroke-width:0.3;" x1="591" x2="748.2" y1="1010.6262" y2="1010.6262"/><text fill="#000000" font-family="sans-serif" font-size="8.4" lengthAdjust="spacing" textLength="151.2" x="594" y="1022.0906">+removeWorkPeriodIfExists(workPeriod)</text></g><!--class Task--><g id="elem_Task"><rect codeLine="100" fill="#F1F1F1" height="118.1812" id="Task" rx="1.5" ry="1.5" style="stroke:#181818;stroke-width:0.3;" width="186" x="189.6" y="936.3809"/><ellipse cx="270.75" cy="945.9809" fill="#ADD1B2" rx="6.6" ry="6.6" style="stroke:#181818;stroke-width:0.6;"/><path d="M272.4094,943.5059 Q272.5031,943.3746 272.6156,943.309 Q272.7281,943.2434 272.8594,943.2434 Q273.0844,943.2434 273.225,943.4027 Q273.3656,943.5527 273.3656,943.9184 L273.3656,944.7902 Q273.3656,945.1559 273.225,945.3152 Q273.0844,945.4746 272.8594,945.4746 Q272.6531,945.4746 272.5313,945.3527 Q272.4094,945.2402 272.3438,944.9309 Q272.3156,944.7152 272.2031,944.6027 Q272.0062,944.3777 271.6406,944.2465 Q271.275,944.1152 270.9,944.1152 Q270.4406,944.1152 270.0563,944.3121 Q269.6813,944.509 269.3812,944.959 Q269.0906,945.409 269.0906,946.0277 L269.0906,946.684 Q269.0906,947.4246 269.625,947.9215 Q270.1594,948.409 271.1156,948.409 Q271.6781,948.409 272.0719,948.259 Q272.3063,948.1652 272.5594,947.9027 Q272.7188,947.7434 272.8031,947.6965 Q272.8969,947.6496 273.0188,947.6496 Q273.2156,947.6496 273.3656,947.809 Q273.525,947.959 273.525,948.1652 Q273.525,948.3715 273.3187,948.6152 Q273.0188,948.9621 272.5406,949.159 Q271.8938,949.4309 271.1156,949.4309 Q270.2063,949.4309 269.4844,949.0559 Q268.8938,948.7559 268.4813,948.1184 Q268.0687,947.4715 268.0687,946.7027 L268.0687,946.009 Q268.0687,945.2121 268.4344,944.5277 Q268.8094,943.834 269.4656,943.4684 Q270.1219,943.0934 270.8625,943.0934 Q271.3031,943.0934 271.6875,943.1965 Q272.0813,943.2902 272.4094,943.5059 Z " fill="#000000"/><text fill="#000000" font-family="sans-serif" font-size="8.4" lengthAdjust="spacing" textLength="18.6" x="283.05" y="949.459">Task</text><line style="stroke:#181818;stroke-width:0.3;" x1="190.2" x2="375" y1="955.5809" y2="955.5809"/><text fill="#000000" font-family="sans-serif" font-size="8.4" lengthAdjust="spacing" textLength="43.2" x="193.2" y="967.0453">-String title;</text><text fill="#000000" font-family="sans-serif" font-size="8.4" lengthAdjust="spacing" textLength="71.4" x="193.2" y="978.218">-String description;</text><text fill="#000000" font-family="sans-serif" font-size="8.4" lengthAdjust="spacing" textLength="80.4" x="193.2" y="989.3906">-TaskType taskType;</text><text fill="#000000" font-family="sans-serif" font-size="8.4" lengthAdjust="spacing" textLength="54.6" x="193.2" y="1000.5633">-Status status;</text><text fill="#000000" font-family="sans-serif" font-size="8.4" lengthAdjust="spacing" textLength="7.2" x="193.2" y="1011.7359">...</text><line style="stroke:#181818;stroke-width:0.3;" x1="190.2" x2="375" y1="1016.2441" y2="1016.2441"/><text fill="#000000" font-family="sans-serif" font-size="8.4" lengthAdjust="spacing" textLength="178.8" x="193.2" y="1027.7086">+Task(title, description, taskType, greenSpace,</text><text fill="#000000" font-family="sans-serif" font-size="8.4" lengthAdjust="spacing" textLength="117" x="193.2" y="1038.8813">urgency, days, hours, minutes)</text><text fill="#000000" font-family="sans-serif" font-size="8.4" lengthAdjust="spacing" textLength="13.2" x="193.2" y="1050.0539">(...)</text></g><!--class WorkPeriod--><g id="elem_WorkPeriod"><rect codeLine="111" fill="#F1F1F1" height="95.8359" id="WorkPeriod" rx="1.5" ry="1.5" style="stroke:#181818;stroke-width:0.3;" width="85.8" x="446.7" y="1245.3809"/><ellipse cx="465.69" cy="1254.9809" fill="#ADD1B2" rx="6.6" ry="6.6" style="stroke:#181818;stroke-width:0.6;"/><path d="M467.3494,1252.5059 Q467.4431,1252.3746 467.5556,1252.309 Q467.6681,1252.2434 467.7994,1252.2434 Q468.0244,1252.2434 468.165,1252.4027 Q468.3056,1252.5527 468.3056,1252.9184 L468.3056,1253.7902 Q468.3056,1254.1559 468.165,1254.3152 Q468.0244,1254.4746 467.7994,1254.4746 Q467.5931,1254.4746 467.4712,1254.3527 Q467.3494,1254.2402 467.2837,1253.9309 Q467.2556,1253.7152 467.1431,1253.6027 Q466.9462,1253.3777 466.5806,1253.2465 Q466.215,1253.1152 465.84,1253.1152 Q465.3806,1253.1152 464.9963,1253.3121 Q464.6213,1253.509 464.3212,1253.959 Q464.0306,1254.409 464.0306,1255.0277 L464.0306,1255.684 Q464.0306,1256.4246 464.565,1256.9215 Q465.0994,1257.409 466.0556,1257.409 Q466.6181,1257.409 467.0119,1257.259 Q467.2463,1257.1652 467.4994,1256.9027 Q467.6587,1256.7434 467.7431,1256.6965 Q467.8369,1256.6496 467.9587,1256.6496 Q468.1556,1256.6496 468.3056,1256.809 Q468.465,1256.959 468.465,1257.1652 Q468.465,1257.3715 468.2587,1257.6152 Q467.9587,1257.9621 467.4806,1258.159 Q466.8337,1258.4309 466.0556,1258.4309 Q465.1462,1258.4309 464.4244,1258.0559 Q463.8337,1257.7559 463.4213,1257.1184 Q463.0087,1256.4715 463.0087,1255.7027 L463.0087,1255.009 Q463.0087,1254.2121 463.3744,1253.5277 Q463.7494,1252.834 464.4056,1252.4684 Q465.0619,1252.0934 465.8025,1252.0934 Q466.2431,1252.0934 466.6275,1252.1965 Q467.0212,1252.2902 467.3494,1252.5059 Z " fill="#000000"/><text fill="#000000" font-family="sans-serif" font-size="8.4" lengthAdjust="spacing" textLength="44.4" x="476.31" y="1258.459">WorkPeriod</text><line style="stroke:#181818;stroke-width:0.3;" x1="447.3" x2="531.9" y1="1264.5809" y2="1264.5809"/><text fill="#000000" font-family="sans-serif" font-size="8.4" lengthAdjust="spacing" textLength="78.6" x="450.3" y="1276.0453">+Date workStartDate</text><text fill="#000000" font-family="sans-serif" font-size="8.4" lengthAdjust="spacing" textLength="69.6" x="450.3" y="1287.218">+int workStartHour</text><text fill="#000000" font-family="sans-serif" font-size="8.4" lengthAdjust="spacing" textLength="64.8" x="450.3" y="1298.3906">+int workStartMin</text><text fill="#000000" font-family="sans-serif" font-size="8.4" lengthAdjust="spacing" textLength="75.6" x="450.3" y="1309.5633">+Date workEndDate</text><text fill="#000000" font-family="sans-serif" font-size="8.4" lengthAdjust="spacing" textLength="66.6" x="450.3" y="1320.7359">+int workEndHour</text><text fill="#000000" font-family="sans-serif" font-size="8.4" lengthAdjust="spacing" textLength="61.8" x="450.3" y="1331.9086">+int workEndMin</text><line style="stroke:#181818;stroke-width:0.3;" x1="447.3" x2="531.9" y1="1336.4168" y2="1336.4168"/></g><!--class TaskDuration--><g id="elem_TaskDuration"><rect codeLine="121" fill="#F1F1F1" height="107.0086" id="TaskDuration" rx="1.5" ry="1.5" style="stroke:#181818;stroke-width:0.3;" width="175.2" x="192" y="1101.9809"/><ellipse cx="251.55" cy="1111.5809" fill="#ADD1B2" rx="6.6" ry="6.6" style="stroke:#181818;stroke-width:0.6;"/><path d="M253.2094,1109.1059 Q253.3031,1108.9746 253.4156,1108.909 Q253.5281,1108.8434 253.6594,1108.8434 Q253.8844,1108.8434 254.025,1109.0027 Q254.1656,1109.1527 254.1656,1109.5184 L254.1656,1110.3902 Q254.1656,1110.7559 254.025,1110.9152 Q253.8844,1111.0746 253.6594,1111.0746 Q253.4531,1111.0746 253.3312,1110.9527 Q253.2094,1110.8402 253.1437,1110.5309 Q253.1156,1110.3152 253.0031,1110.2027 Q252.8062,1109.9777 252.4406,1109.8465 Q252.075,1109.7152 251.7,1109.7152 Q251.2406,1109.7152 250.8563,1109.9121 Q250.4813,1110.109 250.1812,1110.559 Q249.8906,1111.009 249.8906,1111.6277 L249.8906,1112.284 Q249.8906,1113.0246 250.425,1113.5215 Q250.9594,1114.009 251.9156,1114.009 Q252.4781,1114.009 252.8719,1113.859 Q253.1063,1113.7652 253.3594,1113.5027 Q253.5187,1113.3434 253.6031,1113.2965 Q253.6969,1113.2496 253.8188,1113.2496 Q254.0156,1113.2496 254.1656,1113.409 Q254.325,1113.559 254.325,1113.7652 Q254.325,1113.9715 254.1187,1114.2152 Q253.8188,1114.5621 253.3406,1114.759 Q252.6938,1115.0309 251.9156,1115.0309 Q251.0063,1115.0309 250.2844,1114.6559 Q249.6938,1114.3559 249.2813,1113.7184 Q248.8687,1113.0715 248.8687,1112.3027 L248.8687,1111.609 Q248.8687,1110.8121 249.2344,1110.1277 Q249.6094,1109.434 250.2656,1109.0684 Q250.9219,1108.6934 251.6625,1108.6934 Q252.1031,1108.6934 252.4875,1108.7965 Q252.8813,1108.8902 253.2094,1109.1059 Z " fill="#000000"/><text fill="#000000" font-family="sans-serif" font-size="8.4" lengthAdjust="spacing" textLength="51" x="263.85" y="1115.059">TaskDuration</text><line style="stroke:#181818;stroke-width:0.3;" x1="192.6" x2="366.6" y1="1121.1809" y2="1121.1809"/><text fill="#000000" font-family="sans-serif" font-size="8.4" lengthAdjust="spacing" textLength="34.8" x="195.6" y="1132.6453">-int days;</text><text fill="#000000" font-family="sans-serif" font-size="8.4" lengthAdjust="spacing" textLength="38.4" x="195.6" y="1143.818">-int hours;</text><text fill="#000000" font-family="sans-serif" font-size="8.4" lengthAdjust="spacing" textLength="46.2" x="195.6" y="1154.9906">-int minutes;</text><text fill="#000000" font-family="sans-serif" font-size="8.4" lengthAdjust="spacing" textLength="94.8" x="195.6" y="1166.1633">-int totalDurationMinutes;</text><line style="stroke:#181818;stroke-width:0.3;" x1="192.6" x2="366.6" y1="1170.6715" y2="1170.6715"/><text fill="#000000" font-family="sans-serif" font-size="8.4" lengthAdjust="spacing" textLength="140.4" x="195.6" y="1182.1359">+TaskDuration(days, hours, minutes)</text><text fill="#000000" font-family="sans-serif" font-size="8.4" lengthAdjust="spacing" textLength="151.8" x="195.6" y="1193.3086">+setTaskDuration(days, hours, minutes)</text><text fill="#000000" font-family="sans-serif" font-size="8.4" lengthAdjust="spacing" textLength="168" x="195.6" y="1204.4813">-validateTaskDuration(days, hours, minutes)</text></g><!--class AgendaMapper--><g id="elem_AgendaMapper"><rect codeLine="138" fill="#F1F1F1" height="51.1453" id="AgendaMapper" rx="1.5" ry="1.5" style="stroke:#181818;stroke-width:0.3;" width="265.2" x="722.4" y="213.9809"/><ellipse cx="823.35" cy="223.5809" fill="#ADD1B2" rx="6.6" ry="6.6" style="stroke:#181818;stroke-width:0.6;"/><path d="M825.0094,221.1059 Q825.1031,220.9746 825.2156,220.909 Q825.3281,220.8434 825.4594,220.8434 Q825.6844,220.8434 825.825,221.0027 Q825.9656,221.1527 825.9656,221.5184 L825.9656,222.3902 Q825.9656,222.7559 825.825,222.9152 Q825.6844,223.0746 825.4594,223.0746 Q825.2531,223.0746 825.1313,222.9527 Q825.0094,222.8402 824.9438,222.5309 Q824.9156,222.3152 824.8031,222.2027 Q824.6062,221.9777 824.2406,221.8465 Q823.875,221.7152 823.5,221.7152 Q823.0406,221.7152 822.6563,221.9121 Q822.2813,222.109 821.9812,222.559 Q821.6906,223.009 821.6906,223.6277 L821.6906,224.284 Q821.6906,225.0246 822.225,225.5215 Q822.7594,226.009 823.7156,226.009 Q824.2781,226.009 824.6719,225.859 Q824.9063,225.7652 825.1594,225.5027 Q825.3188,225.3434 825.4031,225.2965 Q825.4969,225.2496 825.6188,225.2496 Q825.8156,225.2496 825.9656,225.409 Q826.125,225.559 826.125,225.7652 Q826.125,225.9715 825.9187,226.2152 Q825.6188,226.5621 825.1406,226.759 Q824.4938,227.0309 823.7156,227.0309 Q822.8063,227.0309 822.0844,226.6559 Q821.4938,226.3559 821.0813,225.7184 Q820.6687,225.0715 820.6687,224.3027 L820.6687,223.609 Q820.6687,222.8121 821.0344,222.1277 Q821.4094,221.434 822.0656,221.0684 Q822.7219,220.6934 823.4625,220.6934 Q823.9031,220.6934 824.2875,220.7965 Q824.6813,220.8902 825.0094,221.1059 Z " fill="#000000"/><text fill="#000000" font-family="sans-serif" font-size="8.4" lengthAdjust="spacing" textLength="58.2" x="835.65" y="227.059">AgendaMapper</text><line style="stroke:#181818;stroke-width:0.3;" x1="723" x2="987" y1="233.1809" y2="233.1809"/><line style="stroke:#181818;stroke-width:0.3;" x1="723" x2="987" y1="237.9809" y2="237.9809"/><text fill="#000000" font-family="sans-serif" font-size="8.4" lengthAdjust="spacing" textLength="69" x="726" y="249.4453">+AgendaMapper()</text><text fill="#000000" font-family="sans-serif" font-size="8.4" lengthAdjust="spacing" textLength="258" x="726" y="260.618">+toDTO(agendaTask, teamDTO, List&lt;VehicleDTO&gt; vehicleDTOList)</text></g><!--class AgendaTaskDTO--><g id="elem_AgendaTaskDTO"><rect codeLine="148" fill="#F1F1F1" height="196.3898" id="AgendaTaskDTO" rx="1.5" ry="1.5" style="stroke:#181818;stroke-width:0.3;" width="239.4" x="915.3" y="333.3809"/><ellipse cx="999.45" cy="342.9809" fill="#ADD1B2" rx="6.6" ry="6.6" style="stroke:#181818;stroke-width:0.6;"/><path d="M1001.1094,340.5059 Q1001.2031,340.3746 1001.3156,340.309 Q1001.4281,340.2434 1001.5594,340.2434 Q1001.7844,340.2434 1001.925,340.4027 Q1002.0656,340.5527 1002.0656,340.9184 L1002.0656,341.7902 Q1002.0656,342.1559 1001.925,342.3152 Q1001.7844,342.4746 1001.5594,342.4746 Q1001.3531,342.4746 1001.2312,342.3527 Q1001.1094,342.2402 1001.0437,341.9309 Q1001.0156,341.7152 1000.9031,341.6027 Q1000.7063,341.3777 1000.3406,341.2465 Q999.975,341.1152 999.6,341.1152 Q999.1406,341.1152 998.7562,341.3121 Q998.3812,341.509 998.0813,341.959 Q997.7906,342.409 997.7906,343.0277 L997.7906,343.684 Q997.7906,344.4246 998.325,344.9215 Q998.8594,345.409 999.8156,345.409 Q1000.3781,345.409 1000.7719,345.259 Q1001.0062,345.1652 1001.2594,344.9027 Q1001.4187,344.7434 1001.5031,344.6965 Q1001.5969,344.6496 1001.7188,344.6496 Q1001.9156,344.6496 1002.0656,344.809 Q1002.225,344.959 1002.225,345.1652 Q1002.225,345.3715 1002.0188,345.6152 Q1001.7188,345.9621 1001.2406,346.159 Q1000.5938,346.4309 999.8156,346.4309 Q998.9063,346.4309 998.1844,346.0559 Q997.5938,345.7559 997.1813,345.1184 Q996.7688,344.4715 996.7688,343.7027 L996.7688,343.009 Q996.7688,342.2121 997.1344,341.5277 Q997.5094,340.834 998.1656,340.4684 Q998.8219,340.0934 999.5625,340.0934 Q1000.0031,340.0934 1000.3875,340.1965 Q1000.7813,340.2902 1001.1094,340.5059 Z " fill="#000000"/><text fill="#000000" font-family="sans-serif" font-size="8.4" lengthAdjust="spacing" textLength="66" x="1011.75" y="346.459">AgendaTaskDTO</text><line style="stroke:#181818;stroke-width:0.3;" x1="915.9" x2="1154.1" y1="352.5809" y2="352.5809"/><text fill="#000000" font-family="sans-serif" font-size="8.4" lengthAdjust="spacing" textLength="45" x="918.9" y="364.0453">+String title;</text><text fill="#000000" font-family="sans-serif" font-size="8.4" lengthAdjust="spacing" textLength="73.2" x="918.9" y="375.218">+String description;</text><text fill="#000000" font-family="sans-serif" font-size="8.4" lengthAdjust="spacing" textLength="82.2" x="918.9" y="386.3906">+TaskType taskType;</text><text fill="#000000" font-family="sans-serif" font-size="8.4" lengthAdjust="spacing" textLength="99.6" x="918.9" y="397.5633">+String greenSpaceName;</text><text fill="#000000" font-family="sans-serif" font-size="8.4" lengthAdjust="spacing" textLength="90.6" x="918.9" y="408.7359">+UrgencyType urgency;</text><text fill="#000000" font-family="sans-serif" font-size="8.4" lengthAdjust="spacing" textLength="85.2" x="918.9" y="419.9086">+int expectedDuration;</text><text fill="#000000" font-family="sans-serif" font-size="8.4" lengthAdjust="spacing" textLength="85.2" x="918.9" y="431.0813">+String workStartDate;</text><text fill="#000000" font-family="sans-serif" font-size="8.4" lengthAdjust="spacing" textLength="72" x="918.9" y="442.2539">+int workStartHour;</text><text fill="#000000" font-family="sans-serif" font-size="8.4" lengthAdjust="spacing" textLength="83.4" x="918.9" y="453.4266">+int workStartMinutes;</text><text fill="#000000" font-family="sans-serif" font-size="8.4" lengthAdjust="spacing" textLength="56.4" x="918.9" y="464.5992">+Status status;</text><text fill="#000000" font-family="sans-serif" font-size="8.4" lengthAdjust="spacing" textLength="94.2" x="918.9" y="475.7719">+String isTeamAssigned;</text><line style="stroke:#181818;stroke-width:0.3;" x1="915.9" x2="1154.1" y1="480.2801" y2="480.2801"/><text fill="#000000" font-family="sans-serif" font-size="8.4" lengthAdjust="spacing" textLength="226.2" x="918.9" y="491.7445">+AgendaTaskDTO(title, description, taskType, greenSpace,</text><text fill="#000000" font-family="sans-serif" font-size="8.4" lengthAdjust="spacing" textLength="221.4" x="918.9" y="502.9172">urgency, expectedDuration, executionDate, workStartHour,</text><text fill="#000000" font-family="sans-serif" font-size="8.4" lengthAdjust="spacing" textLength="232.2" x="918.9" y="514.0898">workStartMinutes, status, isTeamAssigned, vehiclesAssigned,</text><text fill="#000000" font-family="sans-serif" font-size="8.4" lengthAdjust="spacing" textLength="102" x="918.9" y="525.2625">teamDTO, vehicleDTOList)</text></g><!--class CollaboratorDTO--><g id="elem_CollaboratorDTO"><rect codeLine="165" fill="#F1F1F1" height="73.4906" id="CollaboratorDTO" rx="1.5" ry="1.5" style="stroke:#181818;stroke-width:0.3;" width="127.8" x="951.9" y="711.9809"/><ellipse cx="980.85" cy="721.5809" fill="#ADD1B2" rx="6.6" ry="6.6" style="stroke:#181818;stroke-width:0.6;"/><path d="M982.5094,719.1059 Q982.6031,718.9746 982.7156,718.909 Q982.8281,718.8434 982.9594,718.8434 Q983.1844,718.8434 983.325,719.0027 Q983.4656,719.1527 983.4656,719.5184 L983.4656,720.3902 Q983.4656,720.7559 983.325,720.9152 Q983.1844,721.0746 982.9594,721.0746 Q982.7531,721.0746 982.6312,720.9527 Q982.5094,720.8402 982.4437,720.5309 Q982.4156,720.3152 982.3031,720.2027 Q982.1062,719.9777 981.7406,719.8465 Q981.375,719.7152 981,719.7152 Q980.5406,719.7152 980.1563,719.9121 Q979.7813,720.109 979.4812,720.559 Q979.1906,721.009 979.1906,721.6277 L979.1906,722.284 Q979.1906,723.0246 979.725,723.5215 Q980.2594,724.009 981.2156,724.009 Q981.7781,724.009 982.1719,723.859 Q982.4063,723.7652 982.6594,723.5027 Q982.8187,723.3434 982.9031,723.2965 Q982.9969,723.2496 983.1188,723.2496 Q983.3156,723.2496 983.4656,723.409 Q983.625,723.559 983.625,723.7652 Q983.625,723.9715 983.4187,724.2152 Q983.1188,724.5621 982.6406,724.759 Q981.9938,725.0309 981.2156,725.0309 Q980.3063,725.0309 979.5844,724.6559 Q978.9938,724.3559 978.5813,723.7184 Q978.1687,723.0715 978.1687,722.3027 L978.1687,721.609 Q978.1687,720.8121 978.5344,720.1277 Q978.9094,719.434 979.5656,719.0684 Q980.2219,718.6934 980.9625,718.6934 Q981.4031,718.6934 981.7875,718.7965 Q982.1813,718.8902 982.5094,719.1059 Z " fill="#000000"/><text fill="#000000" font-family="sans-serif" font-size="8.4" lengthAdjust="spacing" textLength="64.8" x="993.15" y="725.059">CollaboratorDTO</text><line style="stroke:#181818;stroke-width:0.3;" x1="952.5" x2="1079.1" y1="731.1809" y2="731.1809"/><text fill="#000000" font-family="sans-serif" font-size="8.4" lengthAdjust="spacing" textLength="98.4" x="955.5" y="742.6453">+String collaboratorName;</text><text fill="#000000" font-family="sans-serif" font-size="8.4" lengthAdjust="spacing" textLength="51.6" x="955.5" y="753.818">+String email;</text><text fill="#000000" font-family="sans-serif" font-size="8.4" lengthAdjust="spacing" textLength="94.2" x="955.5" y="764.9906">+List&lt;String&gt; skillNames;</text><line style="stroke:#181818;stroke-width:0.3;" x1="952.5" x2="1079.1" y1="769.4988" y2="769.4988"/><text fill="#000000" font-family="sans-serif" font-size="8.4" lengthAdjust="spacing" textLength="120.6" x="955.5" y="780.9633">+CollaboratorDTO(collaborator)</text></g><!--class TeamDTO--><g id="elem_TeamDTO"><rect codeLine="174" fill="#F1F1F1" height="51.1453" id="TeamDTO" rx="1.5" ry="1.5" style="stroke:#181818;stroke-width:0.3;" width="201" x="915.3" y="596.7809"/><ellipse cx="993.45" cy="606.3809" fill="#ADD1B2" rx="6.6" ry="6.6" style="stroke:#181818;stroke-width:0.6;"/><path d="M995.1094,603.9059 Q995.2031,603.7746 995.3156,603.709 Q995.4281,603.6434 995.5594,603.6434 Q995.7844,603.6434 995.925,603.8027 Q996.0656,603.9527 996.0656,604.3184 L996.0656,605.1902 Q996.0656,605.5559 995.925,605.7152 Q995.7844,605.8746 995.5594,605.8746 Q995.3531,605.8746 995.2312,605.7527 Q995.1094,605.6402 995.0437,605.3309 Q995.0156,605.1152 994.9031,605.0027 Q994.7063,604.7777 994.3406,604.6465 Q993.975,604.5152 993.6,604.5152 Q993.1406,604.5152 992.7562,604.7121 Q992.3812,604.909 992.0813,605.359 Q991.7906,605.809 991.7906,606.4277 L991.7906,607.084 Q991.7906,607.8246 992.325,608.3215 Q992.8594,608.809 993.8156,608.809 Q994.3781,608.809 994.7719,608.659 Q995.0062,608.5652 995.2594,608.3027 Q995.4187,608.1434 995.5031,608.0965 Q995.5969,608.0496 995.7188,608.0496 Q995.9156,608.0496 996.0656,608.209 Q996.225,608.359 996.225,608.5652 Q996.225,608.7715 996.0188,609.0152 Q995.7188,609.3621 995.2406,609.559 Q994.5938,609.8309 993.8156,609.8309 Q992.9063,609.8309 992.1844,609.4559 Q991.5938,609.1559 991.1813,608.5184 Q990.7688,607.8715 990.7688,607.1027 L990.7688,606.409 Q990.7688,605.6121 991.1344,604.9277 Q991.5094,604.234 992.1656,603.8684 Q992.8219,603.4934 993.5625,603.4934 Q994.0031,603.4934 994.3875,603.5965 Q994.7813,603.6902 995.1094,603.9059 Z " fill="#000000"/><text fill="#000000" font-family="sans-serif" font-size="8.4" lengthAdjust="spacing" textLength="39.6" x="1005.75" y="609.859">TeamDTO</text><line style="stroke:#181818;stroke-width:0.3;" x1="915.9" x2="1115.7" y1="615.9809" y2="615.9809"/><text fill="#000000" font-family="sans-serif" font-size="8.4" lengthAdjust="spacing" textLength="144" x="918.9" y="627.4453">+List&lt;CollaboratorDTO&gt; collaborators</text><line style="stroke:#181818;stroke-width:0.3;" x1="915.9" x2="1115.7" y1="631.9535" y2="631.9535"/><text fill="#000000" font-family="sans-serif" font-size="8.4" lengthAdjust="spacing" textLength="193.8" x="918.9" y="643.418">+TeamDTO(List&lt;CollaboratorDTO&gt; teamMembers)</text></g><!--class VehicleDTO--><g id="elem_VehicleDTO"><rect codeLine="179" fill="#F1F1F1" height="84.6633" id="VehicleDTO" rx="1.5" ry="1.5" style="stroke:#181818;stroke-width:0.3;" width="90" x="1137.6" y="579.9809"/><ellipse cx="1157.94" cy="589.5809" fill="#ADD1B2" rx="6.6" ry="6.6" style="stroke:#181818;stroke-width:0.6;"/><path d="M1159.5994,587.1059 Q1159.6931,586.9746 1159.8056,586.909 Q1159.9181,586.8434 1160.0494,586.8434 Q1160.2744,586.8434 1160.415,587.0027 Q1160.5556,587.1527 1160.5556,587.5184 L1160.5556,588.3902 Q1160.5556,588.7559 1160.415,588.9152 Q1160.2744,589.0746 1160.0494,589.0746 Q1159.8431,589.0746 1159.7213,588.9527 Q1159.5994,588.8402 1159.5338,588.5309 Q1159.5056,588.3152 1159.3931,588.2027 Q1159.1963,587.9777 1158.8306,587.8465 Q1158.465,587.7152 1158.09,587.7152 Q1157.6306,587.7152 1157.2463,587.9121 Q1156.8713,588.109 1156.5713,588.559 Q1156.2806,589.009 1156.2806,589.6277 L1156.2806,590.284 Q1156.2806,591.0246 1156.815,591.5215 Q1157.3494,592.009 1158.3056,592.009 Q1158.8681,592.009 1159.2619,591.859 Q1159.4963,591.7652 1159.7494,591.5027 Q1159.9088,591.3434 1159.9931,591.2965 Q1160.0869,591.2496 1160.2088,591.2496 Q1160.4056,591.2496 1160.5556,591.409 Q1160.715,591.559 1160.715,591.7652 Q1160.715,591.9715 1160.5088,592.2152 Q1160.2088,592.5621 1159.7306,592.759 Q1159.0838,593.0309 1158.3056,593.0309 Q1157.3963,593.0309 1156.6744,592.6559 Q1156.0838,592.3559 1155.6713,591.7184 Q1155.2588,591.0715 1155.2588,590.3027 L1155.2588,589.609 Q1155.2588,588.8121 1155.6244,588.1277 Q1155.9994,587.434 1156.6556,587.0684 Q1157.3119,586.6934 1158.0525,586.6934 Q1158.4931,586.6934 1158.8775,586.7965 Q1159.2713,586.8902 1159.5994,587.1059 Z " fill="#000000"/><text fill="#000000" font-family="sans-serif" font-size="8.4" lengthAdjust="spacing" textLength="45.6" x="1168.86" y="593.059">VehicleDTO</text><line style="stroke:#181818;stroke-width:0.3;" x1="1138.2" x2="1227" y1="599.1809" y2="599.1809"/><text fill="#000000" font-family="sans-serif" font-size="8.4" lengthAdjust="spacing" textLength="58.2" x="1141.2" y="610.6453">+String plateID;</text><text fill="#000000" font-family="sans-serif" font-size="8.4" lengthAdjust="spacing" textLength="54" x="1141.2" y="621.818">+String brand;</text><text fill="#000000" font-family="sans-serif" font-size="8.4" lengthAdjust="spacing" textLength="54.6" x="1141.2" y="632.9906">+String model;</text><text fill="#000000" font-family="sans-serif" font-size="8.4" lengthAdjust="spacing" textLength="48" x="1141.2" y="644.1633">+String type;</text><line style="stroke:#181818;stroke-width:0.3;" x1="1138.2" x2="1227" y1="648.6715" y2="648.6715"/><text fill="#000000" font-family="sans-serif" font-size="8.4" lengthAdjust="spacing" textLength="82.8" x="1141.2" y="660.1359">+VehicleDTO(vehicle)</text></g><!--link AgendaUI to AgendaController--><g id="link_AgendaUI_AgendaController"><path codeLine="194" d="M450.606,145.6169 C432.174,170.7509 412.6549,197.3558 398.7289,216.3458 " fill="none" id="AgendaUI-to-AgendaController" style="stroke:#181818;stroke-width:0.6;stroke-dasharray:7.0,7.0;"/><polygon fill="#181818" points="396.6,219.2489,401.7287,216.3135,398.3741,216.8296,397.858,213.475,396.6,219.2489" style="stroke:#181818;stroke-width:0.6;"/></g><!--link AgendaUI to CancelEntryAgendaController--><g id="link_AgendaUI_CancelEntryAgendaController"><path codeLine="195" d="M508.056,145.6169 C516.018,162.2909 523.3521,177.6485 531.0801,193.8245 " fill="none" id="AgendaUI-to-CancelEntryAgendaController" style="stroke:#181818;stroke-width:0.6;stroke-dasharray:7.0,7.0;"/><polygon fill="#181818" points="532.632,197.0729,532.4697,191.1658,531.3388,194.3659,528.1386,193.2349,532.632,197.0729" style="stroke:#181818;stroke-width:0.6;"/></g><!--link AgendaController to Repositories--><g id="link_AgendaController_Repositories"><path codeLine="196" d="M383.1,259.7909 C385.812,319.3169 393.802,494.5386 397.534,576.3726 " fill="none" id="AgendaController-to-Repositories" style="stroke:#181818;stroke-width:0.6;stroke-dasharray:7.0,7.0;"/><polygon fill="#181818" points="397.698,579.9689,399.8495,574.4651,397.5613,576.972,395.0545,574.6838,397.698,579.9689" style="stroke:#181818;stroke-width:0.6;"/></g><!--link CancelEntryAgendaController to Repositories--><g id="link_CancelEntryAgendaController_Repositories"><path codeLine="197" d="M535.86,281.8289 C506.436,355.2209 447.1098,503.1875 417.6798,576.5855 " fill="none" id="CancelEntryAgendaController-to-Repositories" style="stroke:#181818;stroke-width:0.6;stroke-dasharray:7.0,7.0;"/><polygon fill="#181818" points="416.34,579.9269,420.5773,575.8079,417.4565,577.1424,416.1221,574.0216,416.34,579.9269" style="stroke:#181818;stroke-width:0.6;"/></g><!--link AgendaController to ApplicationSession--><g id="link_AgendaController_ApplicationSession"><path codeLine="198" d="M372.93,259.7909 C344.304,320.6909 258.5056,503.1929 221.3536,582.2189 " fill="none" id="AgendaController-to-ApplicationSession" style="stroke:#181818;stroke-width:0.6;stroke-dasharray:7.0,7.0;"/><polygon fill="#181818" points="219.822,585.4769,224.2914,581.6111,221.0984,582.7619,219.9475,579.5689,219.822,585.4769" style="stroke:#181818;stroke-width:0.6;"/></g><!--link ApplicationSession to ApplicationSession--><g id="link_ApplicationSession_ApplicationSession"><path codeLine="199" d="M273.162,610.6769 C285.45,612.2249 294,616.0949 294,622.2809 C294,628.4669 289.0218,631.8869 276.7338,633.4349 " fill="none" id="ApplicationSession-to-ApplicationSession" style="stroke:#181818;stroke-width:0.6;"/><polygon fill="#181818" points="273.162,633.8849,278.8196,635.5911,276.1385,633.5099,278.2197,630.8287,273.162,633.8849" style="stroke:#181818;stroke-width:0.6;"/><text fill="#000000" font-family="sans-serif" font-size="7.8" lengthAdjust="spacing" textLength="29.4" x="297.6" y="625.5979">instance</text></g><!--link ApplicationSession to UserSession--><g id="link_ApplicationSession_UserSession"><path codeLine="200" d="M182.07,658.8989 C169.068,681.4889 154.5981,706.6349 143.9181,725.1869 " fill="none" id="ApplicationSession-to-UserSession" style="stroke:#181818;stroke-width:0.6;"/><polygon fill="#181818" points="142.122,728.3069,146.8961,724.8243,143.6187,725.7069,142.7362,722.4295,142.122,728.3069" style="stroke:#181818;stroke-width:0.6;"/><text fill="#000000" font-family="sans-serif" font-size="7.8" lengthAdjust="spacing" textLength="43.2" x="167.4" y="691.5979">userSession</text><text fill="#000000" font-family="sans-serif" font-size="7.8" lengthAdjust="spacing" textLength="4.2" x="139.6799" y="721.7252">1</text></g><!--link UserSession to Email--><g id="link_UserSession_Email"><path codeLine="201" d="M111.246,768.9149 C92.178,788.1569 66.2063,814.37 49.3763,831.35 " fill="none" id="UserSession-to-Email" style="stroke:#181818;stroke-width:0.6;stroke-dasharray:7.0,7.0;"/><polygon fill="#181818" points="46.842,833.9069,52.348,831.7611,48.9539,831.7761,48.9388,828.3821,46.842,833.9069" style="stroke:#181818;stroke-width:0.6;"/></g><!--link Repositories to AgendaRepository--><g id="link_Repositories_AgendaRepository"><path codeLine="202" d="M363.27,664.6769 C322.884,711.1229 261.3579,781.9 228.0999,820.156 " fill="none" id="Repositories-to-AgendaRepository" style="stroke:#181818;stroke-width:0.6;"/><polygon fill="#181818" points="225.738,822.8729,231.0921,820.3722,227.7063,820.6088,227.4696,817.223,225.738,822.8729" style="stroke:#181818;stroke-width:0.6;"/><text fill="#000000" font-family="sans-serif" font-size="7.8" lengthAdjust="spacing" textLength="4.2" x="224.6678" y="816.1981">1</text></g><!--link Repositories to TeamRepository--><g id="link_Repositories_TeamRepository"><path codeLine="203" d="M457.95,659.6549 C531,705.6989 651.1104,781.3954 714.0084,821.0374 " fill="none" id="Repositories-to-TeamRepository" style="stroke:#181818;stroke-width:0.6;"/><polygon fill="#181818" points="717.054,822.9569,713.7653,818.0472,714.516,821.3573,711.206,822.108,717.054,822.9569" style="stroke:#181818;stroke-width:0.6;"/><text fill="#000000" font-family="sans-serif" font-size="7.8" lengthAdjust="spacing" textLength="4.2" x="706.2167" y="816.2955">1</text></g><!--link Repositories to VehicleRepository--><g id="link_Repositories_VehicleRepository"><path codeLine="204" d="M414.192,664.6589 C432.966,718.4189 463.2,804.9809 463.2,804.9809 C463.2,804.9809 467.2004,813.6397 472.4024,824.9197 " fill="none" id="Repositories-to-VehicleRepository" style="stroke:#181818;stroke-width:0.6;"/><polygon fill="#181818" points="473.91,828.1889,473.828,822.2801,472.6537,825.4646,469.4692,824.2903,473.91,828.1889" style="stroke:#181818;stroke-width:0.6;"/><text fill="#000000" font-family="sans-serif" font-size="7.8" lengthAdjust="spacing" textLength="4.2" x="467.5769" y="821.6038">1</text></g><!--link AgendaRepository to Task--><g id="link_AgendaRepository_Task"><path codeLine="205" d="M217.512,874.1429 C226.728,891.2429 237.6257,911.456 249.2897,933.092 " fill="none" id="AgendaRepository-to-Task" style="stroke:#181818;stroke-width:0.6;"/><polygon fill="#181818" points="250.998,936.2609,250.5481,930.3687,249.5744,933.6202,246.3229,932.6465,250.998,936.2609" style="stroke:#181818;stroke-width:0.6;"/><text fill="#000000" font-family="sans-serif" font-size="7.8" lengthAdjust="spacing" textLength="15" x="232.2" y="902.1979">task</text><text fill="#000000" font-family="sans-serif" font-size="7.8" lengthAdjust="spacing" textLength="4.2" x="215.0595" y="887.2725">1</text></g><!--link VehicleRepository to Vehicle--><g id="link_VehicleRepository_Vehicle"><path codeLine="206" d="M483,868.5929 C483,887.3309 483,912.8909 483,938.4689 " fill="none" id="VehicleRepository-to-Vehicle" style="stroke:#181818;stroke-width:0.6;"/><polygon fill="#181818" points="483,942.0689,485.4,936.6689,483,939.0689,480.6,936.6689,483,942.0689" style="stroke:#181818;stroke-width:0.6;"/><text fill="#000000" font-family="sans-serif" font-size="7.8" lengthAdjust="spacing" textLength="23.4" x="483.6" y="902.1979">vehicle</text><text fill="#000000" font-family="sans-serif" font-size="7.8" lengthAdjust="spacing" textLength="4.2" x="478.4259" y="881.5365">1</text></g><!--reverse link Task to TaskDuration--><g id="link_Task_TaskDuration"><path codeLine="207" d="M281.3558,1061.9236 C281.0678,1077.3736 280.884,1086.7529 280.602,1101.8849 " fill="none" id="Task-backto-TaskDuration" style="stroke:#181818;stroke-width:0.6;"/><polygon fill="#181818" points="281.49,1054.7249,279.0233,1058.2795,281.3558,1061.9236,283.8225,1058.369,281.49,1054.7249" style="stroke:#181818;stroke-width:0.6;"/><text fill="#000000" font-family="sans-serif" font-size="7.8" lengthAdjust="spacing" textLength="43.8" x="281.4" y="1081.5979">taskDuration</text><text fill="#000000" font-family="sans-serif" font-size="7.8" lengthAdjust="spacing" textLength="4.2" x="276.3111" y="1095.248">1</text></g><!--link TeamRepository to Team--><g id="link_TeamRepository_Team"><path codeLine="208" d="M741.642,874.1429 C726.78,899.0609 705.7948,934.2255 689.8288,960.9795 " fill="none" id="TeamRepository-to-Team" style="stroke:#181818;stroke-width:0.6;"/><polygon fill="#181818" points="687.984,964.0709,692.8122,960.6637,689.5214,961.4947,688.6903,958.2039,687.984,964.0709" style="stroke:#181818;stroke-width:0.6;"/><text fill="#000000" font-family="sans-serif" font-size="7.8" lengthAdjust="spacing" textLength="17.4" x="729" y="902.1979">team</text><text fill="#000000" font-family="sans-serif" font-size="7.8" lengthAdjust="spacing" textLength="4.2" x="734.83" y="887.2725">1</text></g><!--link AgendaController to AgendaRepository--><g id="link_AgendaController_AgendaRepository"><path codeLine="209" d="M340.656,259.6169 C299.064,279.1709 241.2,306.3809 241.2,306.3809 C241.2,306.3809 48,430.8809 48,430.8809 C48,430.8809 48,430.8809 48,749.1809 C48,749.1809 86.4,799.5809 86.4,799.5809 C86.4,799.5809 111.2219,809.7752 139.9739,821.5832 " fill="none" id="AgendaController-to-AgendaRepository" style="stroke:#181818;stroke-width:0.6;stroke-dasharray:7.0,7.0;"/><polygon fill="#181818" points="143.304,822.9509,139.2206,818.6794,140.5289,821.8112,137.3971,823.1195,143.304,822.9509" style="stroke:#181818;stroke-width:0.6;"/><text fill="#000000" font-family="sans-serif" font-size="7.8" lengthAdjust="spacing" textLength="62.4" x="48.6" y="625.5979">agendaRepository</text></g><!--link CancelEntryAgendaController to AgendaRepository--><g id="link_CancelEntryAgendaController_AgendaRepository"><path codeLine="210" d="M551.412,281.9549 C549.828,338.1149 547.2,430.8809 547.2,430.8809 C547.2,430.8809 547.2,430.8809 547.2,749.1809 C547.2,749.1809 395.7338,792.7419 294.0638,821.9799 " fill="none" id="CancelEntryAgendaController-to-AgendaRepository" style="stroke:#181818;stroke-width:0.6;stroke-dasharray:7.0,7.0;"/><polygon fill="#181818" points="290.604,822.9749,296.457,823.7889,293.4871,822.1457,295.1304,819.1759,290.604,822.9749" style="stroke:#181818;stroke-width:0.6;"/><text fill="#000000" font-family="sans-serif" font-size="7.8" lengthAdjust="spacing" textLength="62.4" x="547.8" y="625.5979">agendaRepository</text></g><!--link CancelEntryAgendaController to TeamRepository--><g id="link_CancelEntryAgendaController_TeamRepository"><path codeLine="211" d="M604.806,281.8829 C621.336,295.1189 635.4,306.3809 635.4,306.3809 C635.4,306.3809 756.6,430.8809 756.6,430.8809 C756.6,430.8809 756.6,430.8809 756.6,749.1809 C756.6,749.1809 756.6,790.1369 756.6,819.3749 " fill="none" id="CancelEntryAgendaController-to-TeamRepository" style="stroke:#181818;stroke-width:0.6;stroke-dasharray:7.0,7.0;"/><polygon fill="#181818" points="756.6,822.9749,759,817.5749,756.6,819.9749,754.2,817.5749,756.6,822.9749" style="stroke:#181818;stroke-width:0.6;"/><text fill="#000000" font-family="sans-serif" font-size="7.8" lengthAdjust="spacing" textLength="54.6" x="757.2" y="625.5979">teamRepository</text></g><!--link CancelEntryAgendaController to VehicleRepository--><g id="link_CancelEntryAgendaController_VehicleRepository"><path codeLine="212" d="M574.59,281.9549 C604.086,338.1149 652.8,430.8809 652.8,430.8809 C652.8,430.8809 652.8,430.8809 652.8,749.1809 C652.8,749.1809 562.8,804.9809 562.8,804.9809 C562.8,804.9809 543.6148,815.2941 522.5668,826.6101 " fill="none" id="CancelEntryAgendaController-to-VehicleRepository" style="stroke:#181818;stroke-width:0.6;stroke-dasharray:7.0,7.0;"/><polygon fill="#181818" points="519.396,828.3149,525.2887,827.8717,522.0383,826.8943,523.0157,823.6439,519.396,828.3149" style="stroke:#181818;stroke-width:0.6;"/><text fill="#000000" font-family="sans-serif" font-size="7.8" lengthAdjust="spacing" textLength="60.6" x="653.4" y="625.5979">vehicleRepository</text></g><!--link Repositories to Repositories--><g id="link_Repositories_Repositories"><path codeLine="213" d="M457.968,610.3409 C470.088,611.5949 478.8,615.5789 478.8,622.2809 C478.8,628.9829 473.6689,632.5964 461.5489,633.8504 " fill="none" id="Repositories-to-Repositories" style="stroke:#181818;stroke-width:0.6;"/><polygon fill="#181818" points="457.968,634.2209,463.5863,636.0524,460.9521,633.9121,463.0923,631.2779,457.968,634.2209" style="stroke:#181818;stroke-width:0.6;"/><text fill="#000000" font-family="sans-serif" font-size="7.8" lengthAdjust="spacing" textLength="29.4" x="482.4" y="625.5979">instance</text></g><!--link AgendaController to AgendaMapper--><g id="link_AgendaController_AgendaMapper"><path codeLine="214" d="M406.194,219.2489 C430.458,198.7949 464.4,170.1809 464.4,170.1809 C464.4,170.1809 474.9,165.0809 474.9,165.0809 C474.9,165.0809 629.7,165.0809 629.7,165.0809 C629.7,165.0809 709.1416,191.3119 774.3616,212.8519 " fill="none" id="AgendaController-to-AgendaMapper" style="stroke:#181818;stroke-width:0.6;stroke-dasharray:7.0,7.0;"/><polygon fill="#181818" points="777.78,213.9809,773.4051,210.0085,774.9313,213.04,771.8998,214.5663,777.78,213.9809" style="stroke:#181818;stroke-width:0.6;"/></g><!--link AgendaMapper to AgendaTaskDTO--><g id="link_AgendaMapper_AgendaTaskDTO"><path codeLine="215" d="M878.532,265.0229 C895.302,282.8009 916.5615,305.3403 940.4835,330.6963 " fill="none" id="AgendaMapper-to-AgendaTaskDTO" style="stroke:#181818;stroke-width:0.6;stroke-dasharray:7.0,7.0;"/><polygon fill="#181818" points="942.954,333.3149,940.994,327.7401,940.8953,331.1327,937.5026,331.034,942.954,333.3149" style="stroke:#181818;stroke-width:0.6;"/></g><!--link AgendaTaskDTO to TeamDTO--><g id="link_AgendaTaskDTO_TeamDTO"><path codeLine="216" d="M1025.118,529.6589 C1022.604,554.5169 1020.4702,575.5471 1018.7002,593.0491 " fill="none" id="AgendaTaskDTO-to-TeamDTO" style="stroke:#181818;stroke-width:0.6;stroke-dasharray:7.0,7.0;"/><polygon fill="#181818" points="1018.338,596.6309,1021.2692,591.4997,1018.6399,593.6461,1016.4935,591.0168,1018.338,596.6309" style="stroke:#181818;stroke-width:0.6;"/><text fill="#000000" font-family="sans-serif" font-size="7.8" lengthAdjust="spacing" textLength="4.2" x="1014.2078" y="589.9494">1</text></g><!--link TeamDTO to CollaboratorDTO--><g id="link_TeamDTO_CollaboratorDTO"><path codeLine="217" d="M1015.8,647.8949 C1015.8,666.2189 1015.8,687.7649 1015.8,708.2669 " fill="none" id="TeamDTO-to-CollaboratorDTO" style="stroke:#181818;stroke-width:0.6;stroke-dasharray:7.0,7.0;"/><polygon fill="#181818" points="1015.8,711.8669,1018.2,706.4669,1015.8,708.8669,1013.4,706.4669,1015.8,711.8669" style="stroke:#181818;stroke-width:0.6;"/><text fill="#000000" font-family="sans-serif" font-size="7.8" lengthAdjust="spacing" textLength="4.2" x="1011.2653" y="661.2092">1</text></g><!--link AgendaTaskDTO to VehicleDTO--><g id="link_AgendaTaskDTO_VehicleDTO"><path codeLine="218" d="M1110.96,529.6589 C1124.736,547.3529 1136.1988,562.074 1147.8508,577.044 " fill="none" id="AgendaTaskDTO-to-VehicleDTO" style="stroke:#181818;stroke-width:0.6;stroke-dasharray:7.0,7.0;"/><polygon fill="#181818" points="1150.062,579.8849,1148.6391,574.1494,1148.2193,577.5175,1144.8513,577.0977,1150.062,579.8849" style="stroke:#181818;stroke-width:0.6;"/><text fill="#000000" font-family="sans-serif" font-size="7.8" lengthAdjust="spacing" textLength="4.2" x="1110.3376" y="543.078">1</text></g><!--link Vehicle to WorkPeriod--><g id="link_Vehicle_WorkPeriod"><path codeLine="219" d="M484.176,1048.9529 C485.418,1104.6809 487.2698,1188.0698 488.4638,1241.6798 " fill="none" id="Vehicle-to-WorkPeriod" style="stroke:#181818;stroke-width:0.6;"/><polygon fill="#181818" points="488.544,1245.2789,490.8232,1239.8268,488.4772,1242.2796,486.0244,1239.9336,488.544,1245.2789" style="stroke:#181818;stroke-width:0.6;"/><text fill="#000000" font-family="sans-serif" font-size="7.8" lengthAdjust="spacing" textLength="37.2" x="487.8" y="1158.6979">workperiod</text><text fill="#000000" font-family="sans-serif" font-size="7.8" lengthAdjust="spacing" textLength="4.2" x="479.8995" y="1062.2189">1</text></g><!--link Team to WorkPeriod--><g id="link_Team_WorkPeriod"><path codeLine="220" d="M651.012,1026.7169 C619.578,1078.5389 557.5571,1180.7609 520.2791,1242.2129 " fill="none" id="Team-to-WorkPeriod" style="stroke:#181818;stroke-width:0.6;"/><polygon fill="#181818" points="518.412,1245.2909,523.2647,1241.9187,519.968,1242.7259,519.1608,1239.4292,518.412,1245.2909" style="stroke:#181818;stroke-width:0.6;"/><text fill="#000000" font-family="sans-serif" font-size="7.8" lengthAdjust="spacing" textLength="37.2" x="605.4" y="1158.6979">workperiod</text><text fill="#000000" font-family="sans-serif" font-size="7.8" lengthAdjust="spacing" textLength="4.2" x="644.1614" y="1039.8058">1</text></g><!--reverse link Task to WorkPeriod--><g id="link_Task_WorkPeriod"><path codeLine="221" d="M340.1409,1059.9545 C362.2029,1084.4465 378,1101.9809 378,1101.9809 C378,1101.9809 428.82,1188.8609 461.868,1245.3689 " fill="none" id="Task-backto-WorkPeriod" style="stroke:#181818;stroke-width:0.6;"/><polygon fill="#181818" points="335.322,1054.6049,335.9482,1058.886,340.1409,1059.9545,339.5146,1055.6734,335.322,1054.6049" style="stroke:#181818;stroke-width:0.6;"/><text fill="#000000" font-family="sans-serif" font-size="7.8" lengthAdjust="spacing" textLength="37.2" x="440.4" y="1158.6979">workperiod</text><text fill="#000000" font-family="sans-serif" font-size="7.8" lengthAdjust="spacing" textLength="4.2" x="334.8396" y="1067.7454">1</text><text fill="#000000" font-family="sans-serif" font-size="7.8" lengthAdjust="spacing" textLength="4.2" x="454.9179" y="1238.7052">1</text></g><!--SRC=[hLTBR-Cs4BxpLn3RG-J6DhO5Uea30O6TRGCqRL4dsyjUQ8cnYSYaGDB9kaR-UuSKIP5wUDEYtaLipOipmsyUkb3FZDT4aZtU2owAdHHxYhKyKDHoQb8yaorTwsD5iQI59dnRnG9gHqhnolWMFv5AnPoASQgFDSMrg8xc0LqCC8NK0aLQHKMKkj5Qiir1qxj2y3Nxc-AFI3CDBZokF_xu4vxXfH73AqQse8IGSnF__7Y7hwy_YQgaCi_nTolxmIU4h5ryiwMy921qGXW-CqTu8EfvzV0xLhI246bfdgt09MQSQKOgy26hH44q4tmAYL3Y80kg9ixC4wige_H0DXND9avte_cIy89QLkPb3tL9DBMIdnbz3VGNECLmrf4JMUpH1Bt1ln3hKd0jHLLHEHno4t7Zm2s87fjO8xMJy_ECJ8Yb284q8Xc9C-UbjbGtx3zfBHJJGXwpYFT0oNwOyvdkM57HXFcMtbhhrAbxclFYdd3mIlxAbCvSiYvyjbPYJnXFCdLZFwUGqFRmSmbDO_0uCcTU6rQEDVmrZyXvAUbUlD2_X7p-WqecoazGPqOoQrBQtEqKQ_ZR2aNHzr9pEcFO2R_NTlUoqd10AyVDFVjWF7W1wcBfpiXiQKxnLbBArv1D-4s_qk9WYcK5ubEiDD47PGvkpWqdCgf2BSR461jt7DJXg6o2hnAXzm3h71pFWwwkAzOK_9eg1L-XP_GuezxsHIFF3df7kNRiOG-N1ob1fZsczUzHKPauPXKCzHQGNYMobdAo1FYFpjH41-mkG_w0DRHbwFHr1PTwLwR4ZIIyGzgBabQEv2mzc9vl6hyZb-80VH00AXlAV3uVGVVTq-rNGANAmDSEbgFAn0c2bz0ko4P80ddDyPxkDrIgMA0rbEFNy5kXR_dmEbHCfYh2-Iu5jZGMAQsagf2iDhVkERQWR6hSZrR558whdqL8aVFFZWXNVP7LQJ2J5EKNVf1G3SKHXCbHJV4EXXXyxHc7KUjcMGRcevZQs3q6J47RN85hKfkdC2brI_y5J0_HxndlshdbvO0Le0xO0AgnaEPyTP2sX4BkZRI9S14zsrXZWeiw9ccXIUMjtNj-b6lFoyRpTmbBX7wdR3lptw5WXjbRKhxtfAx7Xd_Itnj1Vu4nBVGQBM1-HZDzQiSOqAPDeRZo1KAENy9lmvhujXAw2YnIt_R9hroTrXBLo-LelLoErKjGQL7_6za7vcC3VwleIc4H0On-hUskvI-YOpF1_68Cz8iHrBTOknmgwd0AKwQDtK1Vtt9Q1lGbIVjF9T-DhZUZap10i-kzd-BJZezJ3mWLA5zuGCyGMDnc6ZLdO7U0K4JS-0uTcvg9vcaMeGqZn_0gKLL6eotTpabPR7lI2Bt5GoJofZT6R0N41lmMuXIpOGsJZ_jc_apI0zlA6foogyN0c5qCpDaEJTkYQ6Zj4PcxZb2qy0dlHFDvtbkrK-wP5mNKUxkO6uraNJltBj8JxalaG-jKduHdGuAmZ36tcGtgm4ii1yKFFto8DolGEhHFAEOOX-rUXP9bTZPpLhgBvuXOkhcE2FKMLTIrRiLy47OHkR8T0VLK4qd71M4736Hrlv_Dh6_nS6ti-KUK-jqOpPiLxCgY7GrUSS_lA_U24SLs5YR_Wubvticwy_XVwFUp6Z8uUfaflXCyze-GRBlJypPZpRX6yKEKJpSNK3fQ3H_knJKcvBxjLTbYJdjKHzbBjRt3Goa24CJKBeWGaHaPjNsmfxrJqY3EI0BgBEp61Fy1]--></g></svg>