<?xml version="1.0" encoding="us-ascii" standalone="no"?><svg xmlns="http://www.w3.org/2000/svg" xmlns:xlink="http://www.w3.org/1999/xlink" contentStyleType="text/css" height="1368.8px" preserveAspectRatio="none" style="width:1523px;height:1368px;background:#FFFFFF;" version="1.1" viewBox="0 0 1523 1368" width="1523.2px" zoomAndPan="magnify"><defs/><g><text fill="#000000" font-family="sans-serif" font-size="11.2" font-weight="bold" lengthAdjust="spacing" textLength="150.4" x="687.8" y="24.0859">US025 - Sequence Diagram</text><rect fill="#FFFFFF" height="1181.8094" style="stroke:#181818;stroke-width:0.8000000000000002;" width="8" x="26.8" y="106.5938"/><rect fill="#FFFFFF" height="181.3344" style="stroke:#181818;stroke-width:0.8000000000000002;" width="8" x="315.6" y="125.2266"/><rect fill="#FFFFFF" height="141.4984" style="stroke:#181818;stroke-width:0.8000000000000002;" width="8" x="315.6" y="331.5938"/><rect fill="#FFFFFF" height="790.2781" style="stroke:#181818;stroke-width:0.8000000000000002;" width="8" x="315.6" y="498.125"/><rect fill="#FFFFFF" height="96.4031" style="stroke:#181818;stroke-width:0.8000000000000002;" width="8" x="503.6" y="150.2594"/><rect fill="#FFFFFF" height="740.2125" style="stroke:#181818;stroke-width:0.8000000000000002;" width="8" x="645.6" y="523.1578"/><rect fill="#FFFFFF" height="25.0328" style="stroke:#181818;stroke-width:0.8000000000000002;" width="8" x="774.8" y="548.1906"/><rect fill="#FFFFFF" height="25.0328" style="stroke:#181818;stroke-width:0.8000000000000002;" width="8" x="774.8" y="794.3172"/><rect fill="#FFFFFF" height="25.0328" style="stroke:#181818;stroke-width:0.8000000000000002;" width="8" x="774.8" y="1026.0438"/><rect fill="#FFFFFF" height="25.0328" style="stroke:#181818;stroke-width:0.8000000000000002;" width="8" x="860.4" y="598.2563"/><rect fill="#FFFFFF" height="25.0328" style="stroke:#181818;stroke-width:0.8000000000000002;" width="8" x="860.4" y="844.3828"/><rect fill="#FFFFFF" height="25.0328" style="stroke:#181818;stroke-width:0.8000000000000002;" width="8" x="860.4" y="1076.1094"/><rect fill="#FFFFFF" height="79.9297" style="stroke:#181818;stroke-width:0.8000000000000002;" width="8" x="1010.4" y="648.3219"/><rect fill="#FFFFFF" height="59.9297" style="stroke:#181818;stroke-width:0.8000000000000002;" width="8" x="1121.2" y="894.4484"/><rect fill="#FFFFFF" height="106.5625" style="stroke:#181818;stroke-width:0.8000000000000002;" width="8" x="1230.8" y="1126.175"/><rect fill="none" height="134.7641" style="stroke:#000000;stroke-width:1.2000000000000002;" width="453.2" x="8" y="258.6625"/><rect fill="none" height="200.5266" style="stroke:#000000;stroke-width:1.2000000000000002;" width="834.8" x="559.2" y="760.2516"/><rect fill="none" height="247.1594" style="stroke:#000000;stroke-width:1.2000000000000002;" width="959.6" x="559.2" y="991.9781"/><rect fill="none" height="70.3297" style="stroke:#000000;stroke-width:1.2000000000000002;" width="336.8" x="1174" y="1138.175"/><line style="stroke:#181818;stroke-width:0.4000000000000001;stroke-dasharray:5.0,5.0;" x1="30.4" x2="30.4" y1="98.5938" y2="1302.8031"/><line style="stroke:#181818;stroke-width:0.4000000000000001;stroke-dasharray:5.0,5.0;" x1="319.2" x2="319.2" y1="98.5938" y2="1302.8031"/><line style="stroke:#181818;stroke-width:0.4000000000000001;stroke-dasharray:5.0,5.0;" x1="507.2" x2="507.2" y1="98.5938" y2="1302.8031"/><line style="stroke:#181818;stroke-width:0.4000000000000001;stroke-dasharray:5.0,5.0;" x1="649.6" x2="649.6" y1="98.5938" y2="1302.8031"/><line style="stroke:#181818;stroke-width:0.4000000000000001;stroke-dasharray:5.0,5.0;" x1="778.4" x2="778.4" y1="98.5938" y2="1302.8031"/><line style="stroke:#181818;stroke-width:0.4000000000000001;stroke-dasharray:5.0,5.0;" x1="864" x2="864" y1="98.5938" y2="1302.8031"/><line style="stroke:#181818;stroke-width:0.4000000000000001;stroke-dasharray:5.0,5.0;" x1="1014" x2="1014" y1="98.5938" y2="1302.8031"/><line style="stroke:#181818;stroke-width:0.4000000000000001;stroke-dasharray:5.0,5.0;" x1="1125.2" x2="1125.2" y1="98.5938" y2="1302.8031"/><line style="stroke:#181818;stroke-width:0.4000000000000001;stroke-dasharray:5.0,5.0;" x1="1234.8" x2="1234.8" y1="98.5938" y2="1302.8031"/><line style="stroke:#181818;stroke-width:0.4000000000000001;stroke-dasharray:5.0,5.0;" x1="1314.8" x2="1314.8" y1="680.1703" y2="1302.8031"/><line style="stroke:#181818;stroke-width:0.4000000000000001;stroke-dasharray:5.0,5.0;" x1="1364.4" x2="1364.4" y1="926.2969" y2="1302.8031"/><line style="stroke:#181818;stroke-width:0.4000000000000001;stroke-dasharray:5.0,5.0;" x1="1477.2" x2="1477.2" y1="1179.0563" y2="1302.8031"/><text fill="#000000" font-family="sans-serif" font-size="11.2" lengthAdjust="spacing" textLength="24.8" x="16" y="95.7828">GSM</text><ellipse cx="30.8" cy="42.4969" fill="#E3E3E3" rx="6.4" ry="6.4" style="stroke:#181818;stroke-width:0.4000000000000001;"/><path d="M30.8,48.8969 L30.8,70.4969 M20.4,55.2969 L41.2,55.2969 M30.8,70.4969 L20.4,82.4969 M30.8,70.4969 L41.2,82.4969 " fill="none" style="stroke:#181818;stroke-width:0.4000000000000001;"/><text fill="#000000" font-family="sans-serif" font-size="11.2" lengthAdjust="spacing" textLength="24.8" x="16" y="1314.0891">GSM</text><ellipse cx="30.8" cy="1323.7" fill="#E3E3E3" rx="6.4" ry="6.4" style="stroke:#181818;stroke-width:0.4000000000000001;"/><path d="M30.8,1330.1 L30.8,1351.7 M20.4,1336.5 L41.2,1336.5 M30.8,1351.7 L20.4,1363.7 M30.8,1351.7 L41.2,1363.7 " fill="none" style="stroke:#181818;stroke-width:0.4000000000000001;"/><rect fill="#E3E3E3" height="26.0969" rx="2" ry="2" style="stroke:#181818;stroke-width:0.4000000000000001;" width="63.2" x="288" y="71.6969"/><text fill="#000000" font-family="sans-serif" font-size="11.2" lengthAdjust="spacing" textLength="52" x="293.6" y="89.3828">:AgendaUI</text><rect fill="#E3E3E3" height="26.0969" rx="2" ry="2" style="stroke:#181818;stroke-width:0.4000000000000001;" width="63.2" x="288" y="1302.0031"/><text fill="#000000" font-family="sans-serif" font-size="11.2" lengthAdjust="spacing" textLength="52" x="293.6" y="1319.6891">:AgendaUI</text><rect fill="#E3E3E3" height="26.0969" rx="2" ry="2" style="stroke:#181818;stroke-width:0.4000000000000001;" width="103.2" x="456" y="71.6969"/><text fill="#000000" font-family="sans-serif" font-size="11.2" lengthAdjust="spacing" textLength="92" x="461.6" y="89.3828">:AgendaController</text><rect fill="#E3E3E3" height="26.0969" rx="2" ry="2" style="stroke:#181818;stroke-width:0.4000000000000001;" width="103.2" x="456" y="1302.0031"/><text fill="#000000" font-family="sans-serif" font-size="11.2" lengthAdjust="spacing" textLength="92" x="461.6" y="1319.6891">:AgendaController</text><rect fill="#E3E3E3" height="26.0969" rx="2" ry="2" style="stroke:#181818;stroke-width:0.4000000000000001;" width="164.8" x="567.2" y="71.6969"/><text fill="#000000" font-family="sans-serif" font-size="11.2" lengthAdjust="spacing" textLength="153.6" x="572.8" y="89.3828">:CancelEntryAgendaController</text><rect fill="#E3E3E3" height="26.0969" rx="2" ry="2" style="stroke:#181818;stroke-width:0.4000000000000001;" width="164.8" x="567.2" y="1302.0031"/><text fill="#000000" font-family="sans-serif" font-size="11.2" lengthAdjust="spacing" textLength="153.6" x="572.8" y="1319.6891">:CancelEntryAgendaController</text><rect fill="#E3E3E3" height="26.0969" rx="2" ry="2" style="stroke:#181818;stroke-width:0.4000000000000001;" width="77.6" x="740" y="71.6969"/><text fill="#000000" font-family="sans-serif" font-size="11.2" lengthAdjust="spacing" textLength="66.4" x="745.6" y="89.3828">:Repositories</text><rect fill="#E3E3E3" height="26.0969" rx="2" ry="2" style="stroke:#181818;stroke-width:0.4000000000000001;" width="77.6" x="740" y="1302.0031"/><text fill="#000000" font-family="sans-serif" font-size="11.2" lengthAdjust="spacing" textLength="66.4" x="745.6" y="1319.6891">:Repositories</text><rect fill="#E3E3E3" height="40.9938" rx="2" ry="2" style="stroke:#181818;stroke-width:0.4000000000000001;" width="77.6" x="825.6" y="56.8"/><text fill="#000000" font-family="sans-serif" font-size="11.2" lengthAdjust="spacing" textLength="59.2" x="834.8" y="74.4859">repositories</text><text fill="#000000" font-family="sans-serif" font-size="11.2" lengthAdjust="spacing" textLength="66.4" x="831.2" y="89.3828">:Repositories</text><rect fill="#E3E3E3" height="40.9938" rx="2" ry="2" style="stroke:#181818;stroke-width:0.4000000000000001;" width="77.6" x="825.6" y="1302.0031"/><text fill="#000000" font-family="sans-serif" font-size="11.2" lengthAdjust="spacing" textLength="59.2" x="834.8" y="1319.6891">repositories</text><text fill="#000000" font-family="sans-serif" font-size="11.2" lengthAdjust="spacing" textLength="66.4" x="831.2" y="1334.5859">:Repositories</text><rect fill="#E3E3E3" height="40.9938" rx="2" ry="2" style="stroke:#181818;stroke-width:0.4000000000000001;" width="108" x="960.4" y="56.8"/><text fill="#000000" font-family="sans-serif" font-size="11.2" lengthAdjust="spacing" textLength="92.8" x="968" y="74.4859">agendaRepository</text><text fill="#000000" font-family="sans-serif" font-size="11.2" lengthAdjust="spacing" textLength="96.8" x="966" y="89.3828">:AgendaRepository</text><rect fill="#E3E3E3" height="40.9938" rx="2" ry="2" style="stroke:#181818;stroke-width:0.4000000000000001;" width="108" x="960.4" y="1302.0031"/><text fill="#000000" font-family="sans-serif" font-size="11.2" lengthAdjust="spacing" textLength="92.8" x="968" y="1319.6891">agendaRepository</text><text fill="#000000" font-family="sans-serif" font-size="11.2" lengthAdjust="spacing" textLength="96.8" x="966" y="1334.5859">:AgendaRepository</text><rect fill="#E3E3E3" height="40.9938" rx="2" ry="2" style="stroke:#181818;stroke-width:0.4000000000000001;" width="97.6" x="1076.4" y="56.8"/><text fill="#000000" font-family="sans-serif" font-size="11.2" lengthAdjust="spacing" textLength="79.2" x="1085.6" y="74.4859">teamRepository</text><text fill="#000000" font-family="sans-serif" font-size="11.2" lengthAdjust="spacing" textLength="86.4" x="1082" y="89.3828">:TeamRepository</text><rect fill="#E3E3E3" height="40.9938" rx="2" ry="2" style="stroke:#181818;stroke-width:0.4000000000000001;" width="97.6" x="1076.4" y="1302.0031"/><text fill="#000000" font-family="sans-serif" font-size="11.2" lengthAdjust="spacing" textLength="79.2" x="1085.6" y="1319.6891">teamRepository</text><text fill="#000000" font-family="sans-serif" font-size="11.2" lengthAdjust="spacing" textLength="86.4" x="1082" y="1334.5859">:TeamRepository</text><rect fill="#E3E3E3" height="40.9938" rx="2" ry="2" style="stroke:#181818;stroke-width:0.4000000000000001;" width="105.6" x="1182" y="56.8"/><text fill="#000000" font-family="sans-serif" font-size="11.2" lengthAdjust="spacing" textLength="89.6" x="1190" y="74.4859">vehicleRepository</text><text fill="#000000" font-family="sans-serif" font-size="11.2" lengthAdjust="spacing" textLength="94.4" x="1187.6" y="89.3828">:VehicleRepository</text><rect fill="#E3E3E3" height="40.9938" rx="2" ry="2" style="stroke:#181818;stroke-width:0.4000000000000001;" width="105.6" x="1182" y="1302.0031"/><text fill="#000000" font-family="sans-serif" font-size="11.2" lengthAdjust="spacing" textLength="89.6" x="1190" y="1319.6891">vehicleRepository</text><text fill="#000000" font-family="sans-serif" font-size="11.2" lengthAdjust="spacing" textLength="94.4" x="1187.6" y="1334.5859">:VehicleRepository</text><rect fill="#E3E3E3" height="26.0969" rx="2" ry="2" style="stroke:#181818;stroke-width:0.4000000000000001;" width="39.2" x="1295.6" y="1302.0031"/><text fill="#000000" font-family="sans-serif" font-size="11.2" lengthAdjust="spacing" textLength="28" x="1301.2" y="1319.6891">:Task</text><rect fill="#E3E3E3" height="26.0969" rx="2" ry="2" style="stroke:#181818;stroke-width:0.4000000000000001;" width="43.2" x="1342.8" y="1302.0031"/><text fill="#000000" font-family="sans-serif" font-size="11.2" lengthAdjust="spacing" textLength="32" x="1348.4" y="1319.6891">:Team</text><rect fill="#E3E3E3" height="26.0969" rx="2" ry="2" style="stroke:#181818;stroke-width:0.4000000000000001;" width="51.2" x="1451.6" y="1302.0031"/><text fill="#000000" font-family="sans-serif" font-size="11.2" lengthAdjust="spacing" textLength="40" x="1457.2" y="1319.6891">:Vehicle</text><rect fill="#FFFFFF" height="1181.8094" style="stroke:#181818;stroke-width:0.8000000000000002;" width="8" x="26.8" y="106.5938"/><rect fill="#FFFFFF" height="181.3344" style="stroke:#181818;stroke-width:0.8000000000000002;" width="8" x="315.6" y="125.2266"/><rect fill="#FFFFFF" height="141.4984" style="stroke:#181818;stroke-width:0.8000000000000002;" width="8" x="315.6" y="331.5938"/><rect fill="#FFFFFF" height="790.2781" style="stroke:#181818;stroke-width:0.8000000000000002;" width="8" x="315.6" y="498.125"/><rect fill="#FFFFFF" height="96.4031" style="stroke:#181818;stroke-width:0.8000000000000002;" width="8" x="503.6" y="150.2594"/><rect fill="#FFFFFF" height="740.2125" style="stroke:#181818;stroke-width:0.8000000000000002;" width="8" x="645.6" y="523.1578"/><rect fill="#FFFFFF" height="25.0328" style="stroke:#181818;stroke-width:0.8000000000000002;" width="8" x="774.8" y="548.1906"/><rect fill="#FFFFFF" height="25.0328" style="stroke:#181818;stroke-width:0.8000000000000002;" width="8" x="774.8" y="794.3172"/><rect fill="#FFFFFF" height="25.0328" style="stroke:#181818;stroke-width:0.8000000000000002;" width="8" x="774.8" y="1026.0438"/><rect fill="#FFFFFF" height="25.0328" style="stroke:#181818;stroke-width:0.8000000000000002;" width="8" x="860.4" y="598.2563"/><rect fill="#FFFFFF" height="25.0328" style="stroke:#181818;stroke-width:0.8000000000000002;" width="8" x="860.4" y="844.3828"/><rect fill="#FFFFFF" height="25.0328" style="stroke:#181818;stroke-width:0.8000000000000002;" width="8" x="860.4" y="1076.1094"/><rect fill="#FFFFFF" height="79.9297" style="stroke:#181818;stroke-width:0.8000000000000002;" width="8" x="1010.4" y="648.3219"/><rect fill="#FFFFFF" height="59.9297" style="stroke:#181818;stroke-width:0.8000000000000002;" width="8" x="1121.2" y="894.4484"/><rect fill="#FFFFFF" height="106.5625" style="stroke:#181818;stroke-width:0.8000000000000002;" width="8" x="1230.8" y="1126.175"/><polygon fill="#181818" points="306,122.0266,314,125.2266,306,128.4266,309.2,125.2266" style="stroke:#181818;stroke-width:0.8000000000000002;"/><line style="stroke:#181818;stroke-width:0.8000000000000002;" x1="34.8" x2="310.8" y1="125.2266" y2="125.2266"/><text fill="#000000" font-family="sans-serif" font-size="10.4" font-weight="bold" lengthAdjust="spacing" textLength="5.6" x="40.4" y="121.0164">1</text><text fill="#000000" font-family="sans-serif" font-size="10.4" lengthAdjust="spacing" textLength="163.2" x="49.2" y="121.0164">Asks to cancel an entry on Agenda</text><polygon fill="#181818" points="494,147.0594,502,150.2594,494,153.4594,497.2,150.2594" style="stroke:#181818;stroke-width:0.8000000000000002;"/><line style="stroke:#181818;stroke-width:0.8000000000000002;" x1="323.6" x2="498.8" y1="150.2594" y2="150.2594"/><text fill="#000000" font-family="sans-serif" font-size="10.4" font-weight="bold" lengthAdjust="spacing" textLength="5.6" x="329.2" y="146.0492">2</text><text fill="#000000" font-family="sans-serif" font-size="10.4" lengthAdjust="spacing" textLength="156" x="338" y="146.0492">getAgendaTaskDTOManagerList()</text><rect fill="none" height="47.3703" style="stroke:#000000;stroke-width:1.2000000000000002;" width="153.6" x="453.6" y="176.6594"/><path d="M453.6,176.6594 L503.2,176.6594 L503.2,183.8594 L495.2,191.8594 L453.6,191.8594 L453.6,176.6594 " fill="#EEEEEE" style="stroke:#000000;stroke-width:1.6000000000000003;"/><text fill="#000000" font-family="sans-serif" font-size="10.4" font-weight="bold" lengthAdjust="spacing" textLength="13.6" x="464" y="189.482">ref</text><text fill="#000000" font-family="sans-serif" font-size="9.6" lengthAdjust="spacing" textLength="147.2" x="456.8" y="205.4188">SD_managerSpecificAgendaDTO</text><text fill="#000000" font-family="sans-serif" font-size="9.6" lengthAdjust="spacing" textLength="2.4" x="529.2" y="218.1875">&#160;</text><polygon fill="#181818" points="332.4,243.4625,324.4,246.6625,332.4,249.8625,329.2,246.6625" style="stroke:#181818;stroke-width:0.8000000000000002;"/><line style="stroke:#181818;stroke-width:0.8000000000000002;stroke-dasharray:2.0,2.0;" x1="327.6" x2="506.8" y1="246.6625" y2="246.6625"/><text fill="#000000" font-family="sans-serif" font-size="10.4" font-weight="bold" lengthAdjust="spacing" textLength="5.6" x="337.2" y="242.4523">3</text><text fill="#000000" font-family="sans-serif" font-size="10.4" lengthAdjust="spacing" textLength="132.8" x="346" y="242.4523">managerSpecificAgendaDTO</text><path d="M8,258.6625 L66.4,258.6625 L66.4,266.0953 L58.4,274.0953 L8,274.0953 L8,258.6625 " fill="#EEEEEE" style="stroke:#000000;stroke-width:1.2000000000000002;"/><rect fill="none" height="134.7641" style="stroke:#000000;stroke-width:1.2000000000000002;" width="453.2" x="8" y="258.6625"/><text fill="#000000" font-family="sans-serif" font-size="10.4" font-weight="bold" lengthAdjust="spacing" textLength="22.4" x="20" y="270.6852">loop</text><text fill="#000000" font-family="sans-serif" font-size="8.8" font-weight="bold" lengthAdjust="spacing" textLength="151.2" x="78.4" y="269.7586">[until doesn't select a valid option]</text><polygon fill="#181818" points="43.6,303.3609,35.6,306.5609,43.6,309.7609,40.4,306.5609" style="stroke:#181818;stroke-width:0.8000000000000002;"/><line style="stroke:#181818;stroke-width:0.8000000000000002;stroke-dasharray:2.0,2.0;" x1="38.8" x2="318.8" y1="306.5609" y2="306.5609"/><text fill="#000000" font-family="sans-serif" font-size="10.4" font-weight="bold" lengthAdjust="spacing" textLength="5.6" x="48.4" y="295.4344">4</text><text fill="#000000" font-family="sans-serif" font-size="10.4" lengthAdjust="spacing" textLength="202.4" x="57.2" y="288.518">Shows the tasks of the Agenda and asks to</text><text fill="#000000" font-family="sans-serif" font-size="10.4" lengthAdjust="spacing" textLength="140" x="57.2" y="302.3508">select the task to be canceled</text><polygon fill="#181818" points="306,328.3938,314,331.5938,306,334.7938,309.2,331.5938" style="stroke:#181818;stroke-width:0.8000000000000002;"/><line style="stroke:#181818;stroke-width:0.8000000000000002;" x1="34.8" x2="310.8" y1="331.5938" y2="331.5938"/><text fill="#000000" font-family="sans-serif" font-size="10.4" font-weight="bold" lengthAdjust="spacing" textLength="5.6" x="40.4" y="327.3836">5</text><text fill="#000000" font-family="sans-serif" font-size="10.4" lengthAdjust="spacing" textLength="67.2" x="49.2" y="327.3836">Selects a task</text><line style="stroke:#181818;stroke-width:0.8000000000000002;stroke-dasharray:2.0,2.0;" x1="323.6" x2="357.2" y1="356.6266" y2="356.6266"/><line style="stroke:#181818;stroke-width:0.8000000000000002;stroke-dasharray:2.0,2.0;" x1="357.2" x2="357.2" y1="356.6266" y2="367.0266"/><line style="stroke:#181818;stroke-width:0.8000000000000002;stroke-dasharray:2.0,2.0;" x1="324.4" x2="357.2" y1="367.0266" y2="367.0266"/><polygon fill="#181818" points="332.4,363.8266,324.4,367.0266,332.4,370.2266,329.2,367.0266" style="stroke:#181818;stroke-width:0.8000000000000002;"/><text fill="#000000" font-family="sans-serif" font-size="10.4" font-weight="bold" lengthAdjust="spacing" textLength="5.6" x="329.2" y="352.4164">6</text><text fill="#000000" font-family="sans-serif" font-size="10.4" lengthAdjust="spacing" textLength="113.6" x="338" y="352.4164">validates selected option</text><line style="stroke:#181818;stroke-width:0.8000000000000002;stroke-dasharray:2.0,2.0;" x1="323.6" x2="357.2" y1="417.6594" y2="417.6594"/><line style="stroke:#181818;stroke-width:0.8000000000000002;stroke-dasharray:2.0,2.0;" x1="357.2" x2="357.2" y1="417.6594" y2="428.0594"/><line style="stroke:#181818;stroke-width:0.8000000000000002;stroke-dasharray:2.0,2.0;" x1="324.4" x2="357.2" y1="428.0594" y2="428.0594"/><polygon fill="#181818" points="332.4,424.8594,324.4,428.0594,332.4,431.2594,329.2,428.0594" style="stroke:#181818;stroke-width:0.8000000000000002;"/><text fill="#000000" font-family="sans-serif" font-size="10.4" font-weight="bold" lengthAdjust="spacing" textLength="5.6" x="329.2" y="413.4492">7</text><text fill="#000000" font-family="sans-serif" font-size="10.4" lengthAdjust="spacing" textLength="70.4" x="338" y="413.4492">keepData(task)</text><polygon fill="#181818" points="43.6,469.8922,35.6,473.0922,43.6,476.2922,40.4,473.0922" style="stroke:#181818;stroke-width:0.8000000000000002;"/><line style="stroke:#181818;stroke-width:0.8000000000000002;stroke-dasharray:2.0,2.0;" x1="38.8" x2="318.8" y1="473.0922" y2="473.0922"/><text fill="#000000" font-family="sans-serif" font-size="10.4" font-weight="bold" lengthAdjust="spacing" textLength="5.6" x="48.4" y="468.882">8</text><text fill="#000000" font-family="sans-serif" font-size="10.4" lengthAdjust="spacing" textLength="252.8" x="57.2" y="468.882">Shows cancel task message and asks for confirmation</text><polygon fill="#181818" points="306,494.925,314,498.125,306,501.325,309.2,498.125" style="stroke:#181818;stroke-width:0.8000000000000002;"/><line style="stroke:#181818;stroke-width:0.8000000000000002;" x1="34.8" x2="310.8" y1="498.125" y2="498.125"/><text fill="#000000" font-family="sans-serif" font-size="10.4" font-weight="bold" lengthAdjust="spacing" textLength="5.6" x="40.4" y="493.9148">9</text><text fill="#000000" font-family="sans-serif" font-size="10.4" lengthAdjust="spacing" textLength="104" x="49.2" y="493.9148">Confirms the operation</text><polygon fill="#181818" points="636,519.9578,644,523.1578,636,526.3578,639.2,523.1578" style="stroke:#181818;stroke-width:0.8000000000000002;"/><line style="stroke:#181818;stroke-width:0.8000000000000002;" x1="323.6" x2="640.8" y1="523.1578" y2="523.1578"/><text fill="#000000" font-family="sans-serif" font-size="10.4" font-weight="bold" lengthAdjust="spacing" textLength="11.2" x="329.2" y="518.9477">10</text><text fill="#000000" font-family="sans-serif" font-size="10.4" lengthAdjust="spacing" textLength="156" x="343.6" y="518.9477">cancelTaskAgenda(selectedTask)</text><polygon fill="#181818" points="765.2,544.9906,773.2,548.1906,765.2,551.3906,768.4,548.1906" style="stroke:#181818;stroke-width:0.8000000000000002;"/><line style="stroke:#181818;stroke-width:0.8000000000000002;" x1="653.6" x2="770" y1="548.1906" y2="548.1906"/><text fill="#000000" font-family="sans-serif" font-size="10.4" font-weight="bold" lengthAdjust="spacing" textLength="11.2" x="659.2" y="543.9805">11</text><text fill="#000000" font-family="sans-serif" font-size="10.4" lengthAdjust="spacing" textLength="60" x="673.6" y="543.9805">getInstance()</text><polygon fill="#181818" points="662.4,570.0234,654.4,573.2234,662.4,576.4234,659.2,573.2234" style="stroke:#181818;stroke-width:0.8000000000000002;"/><line style="stroke:#181818;stroke-width:0.8000000000000002;stroke-dasharray:2.0,2.0;" x1="657.6" x2="778" y1="573.2234" y2="573.2234"/><text fill="#000000" font-family="sans-serif" font-size="10.4" font-weight="bold" lengthAdjust="spacing" textLength="11.2" x="667.2" y="569.0133">12</text><text fill="#000000" font-family="sans-serif" font-size="10.4" lengthAdjust="spacing" textLength="53.6" x="681.6" y="569.0133">repositories</text><polygon fill="#181818" points="850.8,595.0563,858.8,598.2563,850.8,601.4563,854,598.2563" style="stroke:#181818;stroke-width:0.8000000000000002;"/><line style="stroke:#181818;stroke-width:0.8000000000000002;" x1="653.6" x2="855.6" y1="598.2563" y2="598.2563"/><text fill="#000000" font-family="sans-serif" font-size="10.4" font-weight="bold" lengthAdjust="spacing" textLength="11.2" x="659.2" y="594.0461">13</text><text fill="#000000" font-family="sans-serif" font-size="10.4" lengthAdjust="spacing" textLength="105.6" x="673.6" y="594.0461">getAgendaRepository()</text><polygon fill="#181818" points="662.4,620.0891,654.4,623.2891,662.4,626.4891,659.2,623.2891" style="stroke:#181818;stroke-width:0.8000000000000002;"/><line style="stroke:#181818;stroke-width:0.8000000000000002;stroke-dasharray:2.0,2.0;" x1="657.6" x2="863.6" y1="623.2891" y2="623.2891"/><text fill="#000000" font-family="sans-serif" font-size="10.4" font-weight="bold" lengthAdjust="spacing" textLength="11.2" x="667.2" y="619.0789">14</text><text fill="#000000" font-family="sans-serif" font-size="10.4" lengthAdjust="spacing" textLength="83.2" x="681.6" y="619.0789">agendaRepository</text><polygon fill="#181818" points="1000.8,645.1219,1008.8,648.3219,1000.8,651.5219,1004,648.3219" style="stroke:#181818;stroke-width:0.8000000000000002;"/><line style="stroke:#181818;stroke-width:0.8000000000000002;" x1="653.6" x2="1005.6" y1="648.3219" y2="648.3219"/><text fill="#000000" font-family="sans-serif" font-size="10.4" font-weight="bold" lengthAdjust="spacing" textLength="11.2" x="659.2" y="644.1117">15</text><text fill="#000000" font-family="sans-serif" font-size="10.4" lengthAdjust="spacing" textLength="327.2" x="673.6" y="644.1117">updateTaskToCanceled(title, greenSpaceName, workStartDate, status)</text><polygon fill="#181818" points="1286,670.1547,1294,673.3547,1286,676.5547,1289.2,673.3547" style="stroke:#181818;stroke-width:0.8000000000000002;"/><line style="stroke:#181818;stroke-width:0.8000000000000002;" x1="1018.4" x2="1290.8" y1="673.3547" y2="673.3547"/><text fill="#000000" font-family="sans-serif" font-size="10.4" font-weight="bold" lengthAdjust="spacing" textLength="11.2" x="1024" y="669.1445">16</text><text fill="#000000" font-family="sans-serif" font-size="10.4" lengthAdjust="spacing" textLength="140.8" x="1038.4" y="669.1445">setStatus(Status.CANCELED)</text><rect fill="#E3E3E3" height="26.0969" rx="2" ry="2" style="stroke:#181818;stroke-width:0.4000000000000001;" width="39.2" x="1295.6" y="654.7219"/><text fill="#000000" font-family="sans-serif" font-size="11.2" lengthAdjust="spacing" textLength="28" x="1301.2" y="672.4078">:Task</text><polygon fill="#181818" points="662.4,725.0516,654.4,728.2516,662.4,731.4516,659.2,728.2516" style="stroke:#181818;stroke-width:0.8000000000000002;"/><line style="stroke:#181818;stroke-width:0.8000000000000002;stroke-dasharray:2.0,2.0;" x1="657.6" x2="1013.6" y1="728.2516" y2="728.2516"/><text fill="#000000" font-family="sans-serif" font-size="10.4" font-weight="bold" lengthAdjust="spacing" textLength="11.2" x="667.2" y="724.0414">17</text><text fill="#000000" font-family="sans-serif" font-size="10.4" lengthAdjust="spacing" textLength="64" x="681.6" y="724.0414">canceledTask</text><path d="M559.2,760.2516 L608,760.2516 L608,767.6844 L600,775.6844 L559.2,775.6844 L559.2,760.2516 " fill="#EEEEEE" style="stroke:#000000;stroke-width:1.2000000000000002;"/><rect fill="none" height="200.5266" style="stroke:#000000;stroke-width:1.2000000000000002;" width="834.8" x="559.2" y="760.2516"/><text fill="#000000" font-family="sans-serif" font-size="10.4" font-weight="bold" lengthAdjust="spacing" textLength="12.8" x="571.2" y="772.2742">alt</text><text fill="#000000" font-family="sans-serif" font-size="8.8" font-weight="bold" lengthAdjust="spacing" textLength="153.6" x="620" y="771.3477">[canceledTask has team assigned]</text><polygon fill="#181818" points="765.2,791.1172,773.2,794.3172,765.2,797.5172,768.4,794.3172" style="stroke:#181818;stroke-width:0.8000000000000002;"/><line style="stroke:#181818;stroke-width:0.8000000000000002;" x1="653.6" x2="770" y1="794.3172" y2="794.3172"/><text fill="#000000" font-family="sans-serif" font-size="10.4" font-weight="bold" lengthAdjust="spacing" textLength="11.2" x="659.2" y="790.107">18</text><text fill="#000000" font-family="sans-serif" font-size="10.4" lengthAdjust="spacing" textLength="60" x="673.6" y="790.107">getInstance()</text><polygon fill="#181818" points="662.4,816.15,654.4,819.35,662.4,822.55,659.2,819.35" style="stroke:#181818;stroke-width:0.8000000000000002;"/><line style="stroke:#181818;stroke-width:0.8000000000000002;stroke-dasharray:2.0,2.0;" x1="657.6" x2="778" y1="819.35" y2="819.35"/><text fill="#000000" font-family="sans-serif" font-size="10.4" font-weight="bold" lengthAdjust="spacing" textLength="11.2" x="667.2" y="815.1398">19</text><text fill="#000000" font-family="sans-serif" font-size="10.4" lengthAdjust="spacing" textLength="53.6" x="681.6" y="815.1398">repositories</text><polygon fill="#181818" points="850.8,841.1828,858.8,844.3828,850.8,847.5828,854,844.3828" style="stroke:#181818;stroke-width:0.8000000000000002;"/><line style="stroke:#181818;stroke-width:0.8000000000000002;" x1="653.6" x2="855.6" y1="844.3828" y2="844.3828"/><text fill="#000000" font-family="sans-serif" font-size="10.4" font-weight="bold" lengthAdjust="spacing" textLength="11.2" x="659.2" y="840.1727">20</text><text fill="#000000" font-family="sans-serif" font-size="10.4" lengthAdjust="spacing" textLength="96" x="673.6" y="840.1727">getTeamRepository()</text><polygon fill="#181818" points="662.4,866.2156,654.4,869.4156,662.4,872.6156,659.2,869.4156" style="stroke:#181818;stroke-width:0.8000000000000002;"/><line style="stroke:#181818;stroke-width:0.8000000000000002;stroke-dasharray:2.0,2.0;" x1="657.6" x2="863.6" y1="869.4156" y2="869.4156"/><text fill="#000000" font-family="sans-serif" font-size="10.4" font-weight="bold" lengthAdjust="spacing" textLength="11.2" x="667.2" y="865.2055">21</text><text fill="#000000" font-family="sans-serif" font-size="10.4" lengthAdjust="spacing" textLength="72.8" x="681.6" y="865.2055">teamRepository</text><polygon fill="#181818" points="1111.6,891.2484,1119.6,894.4484,1111.6,897.6484,1114.8,894.4484" style="stroke:#181818;stroke-width:0.8000000000000002;"/><line style="stroke:#181818;stroke-width:0.8000000000000002;" x1="653.6" x2="1116.4" y1="894.4484" y2="894.4484"/><text fill="#000000" font-family="sans-serif" font-size="10.4" font-weight="bold" lengthAdjust="spacing" textLength="11.2" x="659.2" y="890.2383">22</text><text fill="#000000" font-family="sans-serif" font-size="10.4" lengthAdjust="spacing" textLength="378.4" x="673.6" y="890.2383">removeWorkPeriodFromTeam(canceledTask, canceledTask.getTaskWorkPeriod())</text><polygon fill="#181818" points="1333.2,916.2813,1341.2,919.4813,1333.2,922.6813,1336.4,919.4813" style="stroke:#181818;stroke-width:0.8000000000000002;"/><line style="stroke:#181818;stroke-width:0.8000000000000002;" x1="1129.2" x2="1338" y1="919.4813" y2="919.4813"/><text fill="#000000" font-family="sans-serif" font-size="10.4" font-weight="bold" lengthAdjust="spacing" textLength="11.2" x="1134.8" y="915.2711">23</text><text fill="#000000" font-family="sans-serif" font-size="10.4" lengthAdjust="spacing" textLength="179.2" x="1149.2" y="915.2711">removeWorkPeriodIfExists(workPeriod)</text><rect fill="#E3E3E3" height="26.0969" rx="2" ry="2" style="stroke:#181818;stroke-width:0.4000000000000001;" width="43.2" x="1342.8" y="900.8484"/><text fill="#000000" font-family="sans-serif" font-size="11.2" lengthAdjust="spacing" textLength="32" x="1348.4" y="918.5344">:Team</text><polygon fill="#181818" points="662.4,951.1781,654.4,954.3781,662.4,957.5781,659.2,954.3781" style="stroke:#181818;stroke-width:0.8000000000000002;"/><line style="stroke:#181818;stroke-width:0.8000000000000002;stroke-dasharray:2.0,2.0;" x1="657.6" x2="1124.4" y1="954.3781" y2="954.3781"/><text fill="#000000" font-family="sans-serif" font-size="10.4" font-weight="bold" lengthAdjust="spacing" textLength="11.2" x="667.2" y="950.168">24</text><text fill="#000000" font-family="sans-serif" font-size="10.4" lengthAdjust="spacing" textLength="187.2" x="681.6" y="950.168">team work periods successfully removed</text><path d="M559.2,991.9781 L608,991.9781 L608,999.4109 L600,1007.4109 L559.2,1007.4109 L559.2,991.9781 " fill="#EEEEEE" style="stroke:#000000;stroke-width:1.2000000000000002;"/><rect fill="none" height="247.1594" style="stroke:#000000;stroke-width:1.2000000000000002;" width="959.6" x="559.2" y="991.9781"/><text fill="#000000" font-family="sans-serif" font-size="10.4" font-weight="bold" lengthAdjust="spacing" textLength="12.8" x="571.2" y="1004.0008">alt</text><text fill="#000000" font-family="sans-serif" font-size="8.8" font-weight="bold" lengthAdjust="spacing" textLength="168" x="620" y="1003.0742">[canceledTask has vehicles assigned]</text><polygon fill="#181818" points="765.2,1022.8438,773.2,1026.0438,765.2,1029.2438,768.4,1026.0438" style="stroke:#181818;stroke-width:0.8000000000000002;"/><line style="stroke:#181818;stroke-width:0.8000000000000002;" x1="653.6" x2="770" y1="1026.0438" y2="1026.0438"/><text fill="#000000" font-family="sans-serif" font-size="10.4" font-weight="bold" lengthAdjust="spacing" textLength="11.2" x="659.2" y="1021.8336">25</text><text fill="#000000" font-family="sans-serif" font-size="10.4" lengthAdjust="spacing" textLength="60" x="673.6" y="1021.8336">getInstance()</text><polygon fill="#181818" points="662.4,1047.8766,654.4,1051.0766,662.4,1054.2766,659.2,1051.0766" style="stroke:#181818;stroke-width:0.8000000000000002;"/><line style="stroke:#181818;stroke-width:0.8000000000000002;stroke-dasharray:2.0,2.0;" x1="657.6" x2="778" y1="1051.0766" y2="1051.0766"/><text fill="#000000" font-family="sans-serif" font-size="10.4" font-weight="bold" lengthAdjust="spacing" textLength="11.2" x="667.2" y="1046.8664">26</text><text fill="#000000" font-family="sans-serif" font-size="10.4" lengthAdjust="spacing" textLength="53.6" x="681.6" y="1046.8664">repositories</text><polygon fill="#181818" points="850.8,1072.9094,858.8,1076.1094,850.8,1079.3094,854,1076.1094" style="stroke:#181818;stroke-width:0.8000000000000002;"/><line style="stroke:#181818;stroke-width:0.8000000000000002;" x1="653.6" x2="855.6" y1="1076.1094" y2="1076.1094"/><text fill="#000000" font-family="sans-serif" font-size="10.4" font-weight="bold" lengthAdjust="spacing" textLength="11.2" x="659.2" y="1071.8992">27</text><text fill="#000000" font-family="sans-serif" font-size="10.4" lengthAdjust="spacing" textLength="104.8" x="673.6" y="1071.8992">getVehicleRepository()</text><polygon fill="#181818" points="662.4,1097.9422,654.4,1101.1422,662.4,1104.3422,659.2,1101.1422" style="stroke:#181818;stroke-width:0.8000000000000002;"/><line style="stroke:#181818;stroke-width:0.8000000000000002;stroke-dasharray:2.0,2.0;" x1="657.6" x2="863.6" y1="1101.1422" y2="1101.1422"/><text fill="#000000" font-family="sans-serif" font-size="10.4" font-weight="bold" lengthAdjust="spacing" textLength="11.2" x="667.2" y="1096.932">28</text><text fill="#000000" font-family="sans-serif" font-size="10.4" lengthAdjust="spacing" textLength="80.8" x="681.6" y="1096.932">vehicleRepository</text><polygon fill="#181818" points="1221.2,1122.975,1229.2,1126.175,1221.2,1129.375,1224.4,1126.175" style="stroke:#181818;stroke-width:0.8000000000000002;"/><line style="stroke:#181818;stroke-width:0.8000000000000002;" x1="653.6" x2="1226" y1="1126.175" y2="1126.175"/><text fill="#000000" font-family="sans-serif" font-size="10.4" font-weight="bold" lengthAdjust="spacing" textLength="11.2" x="659.2" y="1121.9648">29</text><text fill="#000000" font-family="sans-serif" font-size="10.4" lengthAdjust="spacing" textLength="387.2" x="673.6" y="1121.9648">removeWorkPeriodFromVehicle(canceledTask, canceledTask.getTaskWorkPeriod())</text><path d="M1174,1138.175 L1232.4,1138.175 L1232.4,1145.6078 L1224.4,1153.6078 L1174,1153.6078 L1174,1138.175 " fill="#EEEEEE" style="stroke:#000000;stroke-width:1.2000000000000002;"/><rect fill="none" height="70.3297" style="stroke:#000000;stroke-width:1.2000000000000002;" width="336.8" x="1174" y="1138.175"/><text fill="#000000" font-family="sans-serif" font-size="10.4" font-weight="bold" lengthAdjust="spacing" textLength="22.4" x="1186" y="1150.1977">loop</text><text fill="#000000" font-family="sans-serif" font-size="8.8" font-weight="bold" lengthAdjust="spacing" textLength="168.8" x="1244.4" y="1149.2711">[for each vehicle assigned to the task]</text><polygon fill="#181818" points="1442,1169.0406,1450,1172.2406,1442,1175.4406,1445.2,1172.2406" style="stroke:#181818;stroke-width:0.8000000000000002;"/><line style="stroke:#181818;stroke-width:0.8000000000000002;" x1="1238.8" x2="1446.8" y1="1172.2406" y2="1172.2406"/><text fill="#000000" font-family="sans-serif" font-size="10.4" font-weight="bold" lengthAdjust="spacing" textLength="11.2" x="1244.4" y="1168.0305">30</text><text fill="#000000" font-family="sans-serif" font-size="10.4" lengthAdjust="spacing" textLength="179.2" x="1258.8" y="1168.0305">removeWorkPeriodIfExists(workPeriod)</text><rect fill="#E3E3E3" height="26.0969" rx="2" ry="2" style="stroke:#181818;stroke-width:0.4000000000000001;" width="51.2" x="1451.6" y="1153.6078"/><text fill="#000000" font-family="sans-serif" font-size="11.2" lengthAdjust="spacing" textLength="40" x="1457.2" y="1171.2938">:Vehicle</text><polygon fill="#181818" points="662.4,1229.5375,654.4,1232.7375,662.4,1235.9375,659.2,1232.7375" style="stroke:#181818;stroke-width:0.8000000000000002;"/><line style="stroke:#181818;stroke-width:0.8000000000000002;stroke-dasharray:2.0,2.0;" x1="657.6" x2="1234" y1="1232.7375" y2="1232.7375"/><text fill="#000000" font-family="sans-serif" font-size="10.4" font-weight="bold" lengthAdjust="spacing" textLength="11.2" x="667.2" y="1228.5273">31</text><text fill="#000000" font-family="sans-serif" font-size="10.4" lengthAdjust="spacing" textLength="202.4" x="681.6" y="1228.5273">vehicle's work periods successfully removed</text><polygon fill="#181818" points="332.4,1260.1703,324.4,1263.3703,332.4,1266.5703,329.2,1263.3703" style="stroke:#181818;stroke-width:0.8000000000000002;"/><line style="stroke:#181818;stroke-width:0.8000000000000002;stroke-dasharray:2.0,2.0;" x1="327.6" x2="648.8" y1="1263.3703" y2="1263.3703"/><text fill="#000000" font-family="sans-serif" font-size="10.4" font-weight="bold" lengthAdjust="spacing" textLength="11.2" x="337.2" y="1259.1602">32</text><text fill="#000000" font-family="sans-serif" font-size="10.4" lengthAdjust="spacing" textLength="84.8" x="351.6" y="1259.1602">operation success</text><polygon fill="#181818" points="39.6,1285.2031,31.6,1288.4031,39.6,1291.6031,36.4,1288.4031" style="stroke:#181818;stroke-width:0.8000000000000002;"/><line style="stroke:#181818;stroke-width:0.8000000000000002;stroke-dasharray:2.0,2.0;" x1="34.8" x2="318.8" y1="1288.4031" y2="1288.4031"/><text fill="#000000" font-family="sans-serif" font-size="10.4" font-weight="bold" lengthAdjust="spacing" textLength="11.2" x="44.4" y="1284.193">33</text><text fill="#000000" font-family="sans-serif" font-size="10.4" lengthAdjust="spacing" textLength="122.4" x="58.8" y="1284.193">Display operation success</text><!--SRC=[dLV1Rjiu4BthAuXSgXHDiLXWBpuKC6nl4I1DYyXfBmKALXhRX2LIAz993UJZEoH5YQHenrrVR94pZszc7aTZkMUyfHrjI2EuA7UTQ82exW2P77PQMkxf5Wfrh85qK2hAjxLl87Uq4i-CRyc6rXAoJ365fe_5Nt__Gsv80VyTW9T0benkqJxBw449VcX-GeU_IoKwSlMn-7H5g2JudI6gOYLhALVaQZRV0g_euwtPVhpDajiBmLKdwXewOpR_kBfVpdyirWztaVc28fDwXTR7fATnYNmUe1MI8Kq6qXWzhBvy3cqwp-GxJtlSSgdqwQ4dDIm6XoDwpwCb6rAq6A8ee4s0iGuM34Au5Fe_mOwLDGGGN-CrWp9PZRErfd9lpyCVyHvI6BX4UpsmVqXcvC6Ug08ZZ8pW1t-Gcm-e138ZSxcNH0bIcgeIoWdeoXB1-tnPbm54ouVq7mH064yfYBS5PVqqz-NwyoVAiJxT7PCglnvT1pnVPsxpvULbjDIV3ZP4F46Nj7QVOlcZiOSLBPHimqfB14ba4sFSqAZXXX_9ZKlGIKpdLK4oc66_5g8b1wvOJIe1ahzHH4ADJO1GyaHhLX7HAYPua5OyNLTfHegTUCO2xR2dK5qgiJ4FbWQMgoBKLl0xxr6ThQxgJ-WB2rKMSNM5zCLG60I9n3J0fF0UEMDksEEUx0E2IIYwabxAipX60xC7Q9TKqLmVUfrMGI8dlM9Dg0r8YLKQyx71ZbWAlc5TGmT6vwAVaOKrjyaMBNJMCIr_A_rUyvQ95hmjI-xIiHu26W16RLYPVJ2DpLuSrzxooCSqIxDaR6_6a_sc6OTelEA3t17UHHtxaBkW0SJGSmS2RiKd4lVW59aGoR6AII3OeTMgqibRYqKltzoy4T-HRGV02toXmZrjyFbPTFj2OHj41U4Zdg0ECihVfF6RxSd1I4QV-VOjKf2W2WELsw_tY_dzOdMtMbfef-ifHgmAAu8u7Mb63fNMAl0cEspe-ls4sfPioy6xIA-gw8IIBbBJAKMTLLNuaams_QaQpcahV3EV8ZR5Smn3GYRE1jyctr0vNw1ZeleNPpPjbFj9VnUKuBqE3Bz7f_mwaTzeG1WC8WezAQEqcCpjPlKBNvOoVnwMhay3XLaoju6qnWcRyg4iiIzk3dLzx8-fKjbBaTRD-bL9zYEFJCZoOccUaUV54ZqdqxDIdKnYlbelKEmvrKxcmNDqqz2EzuJc2GttTlzRna74YIdLjpDJZNxBOY0x5-mW13rxk3aaz9l6CWPu-Ntm4VqPmurscjrhnqvAzKR-mVs9YdWcMy7SuysMit78S4UbRgST6BB94BHaigtfCG6IcdKoxzdy3_WD]--></g></svg>