<?xml version="1.0" encoding="us-ascii" standalone="no"?><svg xmlns="http://www.w3.org/2000/svg" xmlns:xlink="http://www.w3.org/1999/xlink" contentStyleType="text/css" height="268.8px" preserveAspectRatio="none" style="width:362px;height:268px;background:#FFFFFF;" version="1.1" viewBox="0 0 362 268" width="362.6px" zoomAndPan="magnify"><defs/><g><text fill="#000000" font-family="sans-serif" font-size="9.8" font-weight="bold" lengthAdjust="spacing" textLength="198.8" x="82.95" y="21.0752">US029 - System Sequence Diagram (SSD)</text><rect fill="#FFFFFF" height="111.6186" style="stroke:#181818;stroke-width:0.6999999999999998;" width="7" x="39.9" y="93.2695"/><rect fill="#FFFFFF" height="111.6186" style="stroke:#181818;stroke-width:0.6999999999999998;" width="7" x="289.1" y="93.2695"/><rect fill="none" height="79.2148" style="stroke:#000000;stroke-width:1.0499999999999998;" width="351.4" x="7" y="98.1695"/><line style="stroke:#181818;stroke-width:0.3499999999999999;stroke-dasharray:5.0,5.0;" x1="43.4" x2="43.4" y1="86.2695" y2="211.1881"/><line style="stroke:#181818;stroke-width:0.3499999999999999;stroke-dasharray:5.0,5.0;" x1="292.6" x2="292.6" y1="86.2695" y2="211.1881"/><text fill="#000000" font-family="sans-serif" font-size="9.8" lengthAdjust="spacing" textLength="54.6" x="14" y="83.81">Collaborator</text><ellipse cx="43.4" cy="37.1848" fill="#E3E3E3" rx="5.6" ry="5.6" style="stroke:#181818;stroke-width:0.3499999999999999;"/><path d="M43.4,42.7848 L43.4,61.6848 M34.3,48.3848 L52.5,48.3848 M43.4,61.6848 L34.3,72.1848 M43.4,61.6848 L52.5,72.1848 " fill="none" style="stroke:#181818;stroke-width:0.3499999999999999;"/><text fill="#000000" font-family="sans-serif" font-size="9.8" lengthAdjust="spacing" textLength="54.6" x="14" y="221.0633">Collaborator</text><ellipse cx="43.4" cy="229.4729" fill="#E3E3E3" rx="5.6" ry="5.6" style="stroke:#181818;stroke-width:0.3499999999999999;"/><path d="M43.4,235.0729 L43.4,253.9729 M34.3,240.6729 L52.5,240.6729 M43.4,253.9729 L34.3,264.4729 M43.4,253.9729 L52.5,264.4729 " fill="none" style="stroke:#181818;stroke-width:0.3499999999999999;"/><rect fill="#E3E3E3" height="22.8348" rx="1.75" ry="1.75" style="stroke:#181818;stroke-width:0.3499999999999999;" width="117.6" x="233.8" y="62.7348"/><text fill="#000000" font-family="sans-serif" font-size="9.8" lengthAdjust="spacing" textLength="107.8" x="238.7" y="78.21">:ListCollaboratorTasksUI</text><rect fill="#E3E3E3" height="22.8348" rx="1.75" ry="1.75" style="stroke:#181818;stroke-width:0.3499999999999999;" width="117.6" x="233.8" y="210.4881"/><text fill="#000000" font-family="sans-serif" font-size="9.8" lengthAdjust="spacing" textLength="107.8" x="238.7" y="225.9633">:ListCollaboratorTasksUI</text><rect fill="#FFFFFF" height="111.6186" style="stroke:#181818;stroke-width:0.6999999999999998;" width="7" x="39.9" y="93.2695"/><rect fill="#FFFFFF" height="111.6186" style="stroke:#181818;stroke-width:0.6999999999999998;" width="7" x="289.1" y="93.2695"/><path d="M7,98.1695 L58.1,98.1695 L58.1,104.6732 L51.1,111.6732 L7,111.6732 L7,98.1695 " fill="#EEEEEE" style="stroke:#000000;stroke-width:1.0499999999999998;"/><rect fill="none" height="79.2148" style="stroke:#000000;stroke-width:1.0499999999999998;" width="351.4" x="7" y="98.1695"/><text fill="#000000" font-family="sans-serif" font-size="9.1" font-weight="bold" lengthAdjust="spacing" textLength="19.6" x="17.5" y="108.6894">loop</text><text fill="#000000" font-family="sans-serif" font-size="7.7" font-weight="bold" lengthAdjust="spacing" textLength="158.9" x="68.6" y="107.8786">[until the collaborator shows a valid task]</text><polygon fill="#181818" points="280.7,125.177,287.7,127.977,280.7,130.777,283.5,127.977" style="stroke:#181818;stroke-width:0.6999999999999998;"/><line style="stroke:#181818;stroke-width:0.6999999999999998;" x1="46.9" x2="284.9" y1="127.977" y2="127.977"/><text fill="#000000" font-family="sans-serif" font-size="9.1" font-weight="bold" lengthAdjust="spacing" textLength="4.9" x="51.8" y="124.2931">1</text><text fill="#000000" font-family="sans-serif" font-size="9.1" lengthAdjust="spacing" textLength="217.7" x="59.5" y="124.2931">asks to record the completion of a task(selectedTask)</text><polygon fill="#181818" points="54.6,147.0807,47.6,149.8807,54.6,152.6807,51.8,149.8807" style="stroke:#181818;stroke-width:0.6999999999999998;"/><line style="stroke:#181818;stroke-width:0.6999999999999998;" x1="50.4" x2="288.4" y1="149.8807" y2="149.8807"/><text fill="#000000" font-family="sans-serif" font-size="9.1" font-weight="bold" lengthAdjust="spacing" textLength="4.9" x="58.8" y="146.1968">2</text><text fill="#000000" font-family="sans-serif" font-size="9.1" lengthAdjust="spacing" textLength="151.9" x="66.5" y="146.1968">asks the confirmation of the operation</text><polygon fill="#181818" points="280.7,168.9844,287.7,171.7844,280.7,174.5844,283.5,171.7844" style="stroke:#181818;stroke-width:0.6999999999999998;"/><line style="stroke:#181818;stroke-width:0.6999999999999998;" x1="46.9" x2="284.9" y1="171.7844" y2="171.7844"/><text fill="#000000" font-family="sans-serif" font-size="9.1" font-weight="bold" lengthAdjust="spacing" textLength="4.9" x="51.8" y="168.1005">3</text><text fill="#000000" font-family="sans-serif" font-size="9.1" lengthAdjust="spacing" textLength="91" x="59.5" y="168.1005">Confirms the operation</text><polygon fill="#181818" points="54.6,195.7881,47.6,198.5881,54.6,201.3881,51.8,198.5881" style="stroke:#181818;stroke-width:0.6999999999999998;"/><line style="stroke:#181818;stroke-width:0.6999999999999998;" x1="50.4" x2="288.4" y1="198.5881" y2="198.5881"/><text fill="#000000" font-family="sans-serif" font-size="9.1" font-weight="bold" lengthAdjust="spacing" textLength="4.9" x="58.8" y="194.9042">4</text><text fill="#000000" font-family="sans-serif" font-size="9.1" lengthAdjust="spacing" textLength="112" x="66.5" y="194.9042">Displays operation success</text><!--SRC=[RP2_RW8n38VtF8N510DIrQqCNRW5gTlr7i3ap16Hn27sWNZx9jT2hnLZdD_t-O-SN4oOCK3WoFQOEH1e7id8uoUXFU50hTuyGIQh60S_3yWHUxwwEC01lP0nwhH4k_RbzGtMqDv4AK1Bvv6Y9MWS3XLRjcspCWP7vJY6FMM3LZd3OilUuvupbjS2K61UCAMdEkiIHeN5viE9phy_KKxIxIQisnbJdUw2IdybZshDUEO4OrJdGOy4TXOik_5L0E62tlMWnMxc8bY_5yK6QbTGhkVXtFzeGlAaZYFmeHWgknJovO3Krp5NfjjLVkwxcoO-7bmEU3VK6YVAK-7f4DjlGlv53SKUwexb6azRDawInvlyCY2ZjIHIW2y0]--></g></svg>