<?xml version="1.0" encoding="us-ascii" standalone="no"?><svg xmlns="http://www.w3.org/2000/svg" xmlns:xlink="http://www.w3.org/1999/xlink" contentStyleType="text/css" height="569.1px" preserveAspectRatio="none" style="width:438px;height:569px;background:#FFFFFF;" version="1.1" viewBox="0 0 438 569" width="438.9px" zoomAndPan="magnify"><defs/><g><text fill="#000000" font-family="sans-serif" font-size="9.8" font-weight="bold" lengthAdjust="spacing" textLength="198.8" x="121.45" y="21.0752">US028 - System Sequence Diagram (SSD)</text><rect fill="#FFFFFF" height="411.7668" style="stroke:#181818;stroke-width:0.6999999999999998;" width="7" x="39.9" y="93.2695"/><rect fill="#FFFFFF" height="52.4111" style="stroke:#181818;stroke-width:0.6999999999999998;" width="7" x="256.9" y="121.677"/><rect fill="#FFFFFF" height="124.7148" style="stroke:#181818;stroke-width:0.6999999999999998;" width="7" x="256.9" y="195.9918"/><rect fill="#FFFFFF" height="156.126" style="stroke:#181818;stroke-width:0.6999999999999998;" width="7" x="256.9" y="342.6104"/><rect fill="none" height="100.4186" style="stroke:#000000;stroke-width:1.0499999999999998;" width="372.4" x="7" y="132.177"/><rect fill="none" height="100.4186" style="stroke:#000000;stroke-width:1.0499999999999998;" width="372.4" x="7" y="290.8992"/><line style="stroke:#181818;stroke-width:0.3499999999999999;stroke-dasharray:5.0,5.0;" x1="43.4" x2="43.4" y1="86.2695" y2="511.3363"/><line style="stroke:#181818;stroke-width:0.3499999999999999;stroke-dasharray:5.0,5.0;" x1="260.4" x2="260.4" y1="86.2695" y2="511.3363"/><text fill="#000000" font-family="sans-serif" font-size="9.8" lengthAdjust="spacing" textLength="54.6" x="14" y="83.81">Collaborator</text><ellipse cx="43.4" cy="37.1848" fill="#E3E3E3" rx="5.6" ry="5.6" style="stroke:#181818;stroke-width:0.3499999999999999;"/><path d="M43.4,42.7848 L43.4,61.6848 M34.3,48.3848 L52.5,48.3848 M43.4,61.6848 L34.3,72.1848 M43.4,61.6848 L52.5,72.1848 " fill="none" style="stroke:#181818;stroke-width:0.3499999999999999;"/><text fill="#000000" font-family="sans-serif" font-size="9.8" lengthAdjust="spacing" textLength="54.6" x="14" y="521.2115">Collaborator</text><ellipse cx="43.4" cy="529.6211" fill="#E3E3E3" rx="5.6" ry="5.6" style="stroke:#181818;stroke-width:0.3499999999999999;"/><path d="M43.4,535.2211 L43.4,554.1211 M34.3,540.8211 L52.5,540.8211 M43.4,554.1211 L34.3,564.6211 M43.4,554.1211 L52.5,564.6211 " fill="none" style="stroke:#181818;stroke-width:0.3499999999999999;"/><rect fill="#E3E3E3" height="22.8348" rx="1.75" ry="1.75" style="stroke:#181818;stroke-width:0.3499999999999999;" width="117.6" x="201.6" y="62.7348"/><text fill="#000000" font-family="sans-serif" font-size="9.8" lengthAdjust="spacing" textLength="107.8" x="206.5" y="78.21">:ListCollaboratorTasksUI</text><rect fill="#E3E3E3" height="22.8348" rx="1.75" ry="1.75" style="stroke:#181818;stroke-width:0.3499999999999999;" width="117.6" x="201.6" y="510.6363"/><text fill="#000000" font-family="sans-serif" font-size="9.8" lengthAdjust="spacing" textLength="107.8" x="206.5" y="526.1115">:ListCollaboratorTasksUI</text><rect fill="#FFFFFF" height="411.7668" style="stroke:#181818;stroke-width:0.6999999999999998;" width="7" x="39.9" y="93.2695"/><rect fill="#FFFFFF" height="52.4111" style="stroke:#181818;stroke-width:0.6999999999999998;" width="7" x="256.9" y="121.677"/><rect fill="#FFFFFF" height="124.7148" style="stroke:#181818;stroke-width:0.6999999999999998;" width="7" x="256.9" y="195.9918"/><rect fill="#FFFFFF" height="156.126" style="stroke:#181818;stroke-width:0.6999999999999998;" width="7" x="256.9" y="342.6104"/><polygon fill="#181818" points="248.5,118.877,255.5,121.677,248.5,124.477,251.3,121.677" style="stroke:#181818;stroke-width:0.6999999999999998;"/><line style="stroke:#181818;stroke-width:0.6999999999999998;" x1="46.9" x2="252.7" y1="121.677" y2="121.677"/><text fill="#000000" font-family="sans-serif" font-size="9.1" font-weight="bold" lengthAdjust="spacing" textLength="4.9" x="51.8" y="111.9412">1</text><text fill="#000000" font-family="sans-serif" font-size="9.1" lengthAdjust="spacing" textLength="184.8" x="59.5" y="105.8894">asks to list tasks assigned to the collaborator</text><text fill="#000000" font-family="sans-serif" font-size="9.1" lengthAdjust="spacing" textLength="75.6" x="59.5" y="117.9931">between two dates</text><path d="M7,132.177 L58.1,132.177 L58.1,138.6807 L51.1,145.6807 L7,145.6807 L7,132.177 " fill="#EEEEEE" style="stroke:#000000;stroke-width:1.0499999999999998;"/><rect fill="none" height="100.4186" style="stroke:#000000;stroke-width:1.0499999999999998;" width="372.4" x="7" y="132.177"/><text fill="#000000" font-family="sans-serif" font-size="9.1" font-weight="bold" lengthAdjust="spacing" textLength="19.6" x="17.5" y="142.6968">loop</text><text fill="#000000" font-family="sans-serif" font-size="7.7" font-weight="bold" lengthAdjust="spacing" textLength="132.3" x="68.6" y="141.886">[until doesn't select a valid option]</text><polygon fill="#181818" points="54.6,171.2881,47.6,174.0881,54.6,176.8881,51.8,174.0881" style="stroke:#181818;stroke-width:0.6999999999999998;"/><line style="stroke:#181818;stroke-width:0.6999999999999998;stroke-dasharray:2.0,2.0;" x1="50.4" x2="259.7" y1="174.0881" y2="174.0881"/><text fill="#000000" font-family="sans-serif" font-size="9.1" font-weight="bold" lengthAdjust="spacing" textLength="4.9" x="58.8" y="164.3523">2</text><text fill="#000000" font-family="sans-serif" font-size="9.1" lengthAdjust="spacing" textLength="182.7" x="66.5" y="158.3005">Shows the tasks assigned to the collaborator</text><text fill="#000000" font-family="sans-serif" font-size="9.1" lengthAdjust="spacing" textLength="92.4" x="66.5" y="170.4042">and asks to select one</text><polygon fill="#181818" points="248.5,193.1918,255.5,195.9918,248.5,198.7918,251.3,195.9918" style="stroke:#181818;stroke-width:0.6999999999999998;"/><line style="stroke:#181818;stroke-width:0.6999999999999998;" x1="46.9" x2="252.7" y1="195.9918" y2="195.9918"/><text fill="#000000" font-family="sans-serif" font-size="9.1" font-weight="bold" lengthAdjust="spacing" textLength="4.9" x="51.8" y="192.3079">3</text><text fill="#000000" font-family="sans-serif" font-size="9.1" lengthAdjust="spacing" textLength="68.6" x="59.5" y="192.3079">Selects one task</text><line style="stroke:#181818;stroke-width:0.6999999999999998;stroke-dasharray:2.0,2.0;" x1="263.9" x2="293.3" y1="217.8955" y2="217.8955"/><line style="stroke:#181818;stroke-width:0.6999999999999998;stroke-dasharray:2.0,2.0;" x1="293.3" x2="293.3" y1="217.8955" y2="226.9955"/><line style="stroke:#181818;stroke-width:0.6999999999999998;stroke-dasharray:2.0,2.0;" x1="264.6" x2="293.3" y1="226.9955" y2="226.9955"/><polygon fill="#181818" points="271.6,224.1955,264.6,226.9955,271.6,229.7955,268.8,226.9955" style="stroke:#181818;stroke-width:0.6999999999999998;"/><text fill="#000000" font-family="sans-serif" font-size="9.1" font-weight="bold" lengthAdjust="spacing" textLength="4.9" x="268.8" y="214.2116">4</text><text fill="#000000" font-family="sans-serif" font-size="9.1" lengthAdjust="spacing" textLength="94.5" x="276.5" y="214.2116">validate selected option</text><line style="stroke:#181818;stroke-width:0.6999999999999998;stroke-dasharray:2.0,2.0;" x1="263.9" x2="293.3" y1="271.2992" y2="271.2992"/><line style="stroke:#181818;stroke-width:0.6999999999999998;stroke-dasharray:2.0,2.0;" x1="293.3" x2="293.3" y1="271.2992" y2="280.3992"/><line style="stroke:#181818;stroke-width:0.6999999999999998;stroke-dasharray:2.0,2.0;" x1="264.6" x2="293.3" y1="280.3992" y2="280.3992"/><polygon fill="#181818" points="271.6,277.5992,264.6,280.3992,271.6,283.1992,268.8,280.3992" style="stroke:#181818;stroke-width:0.6999999999999998;"/><text fill="#000000" font-family="sans-serif" font-size="9.1" font-weight="bold" lengthAdjust="spacing" textLength="4.9" x="268.8" y="267.6153">5</text><text fill="#000000" font-family="sans-serif" font-size="9.1" lengthAdjust="spacing" textLength="98" x="276.5" y="267.6153">keepData(selectedTask)</text><path d="M7,290.8992 L58.1,290.8992 L58.1,297.4029 L51.1,304.4029 L7,304.4029 L7,290.8992 " fill="#EEEEEE" style="stroke:#000000;stroke-width:1.0499999999999998;"/><rect fill="none" height="100.4186" style="stroke:#000000;stroke-width:1.0499999999999998;" width="372.4" x="7" y="290.8992"/><text fill="#000000" font-family="sans-serif" font-size="9.1" font-weight="bold" lengthAdjust="spacing" textLength="19.6" x="17.5" y="301.419">loop</text><text fill="#000000" font-family="sans-serif" font-size="7.7" font-weight="bold" lengthAdjust="spacing" textLength="93.1" x="68.6" y="300.6083">[until typed data is valid]</text><polygon fill="#181818" points="54.6,317.9066,47.6,320.7066,54.6,323.5066,51.8,320.7066" style="stroke:#181818;stroke-width:0.6999999999999998;"/><line style="stroke:#181818;stroke-width:0.6999999999999998;stroke-dasharray:2.0,2.0;" x1="50.4" x2="259.7" y1="320.7066" y2="320.7066"/><text fill="#000000" font-family="sans-serif" font-size="9.1" font-weight="bold" lengthAdjust="spacing" textLength="4.9" x="58.8" y="317.0228">6</text><text fill="#000000" font-family="sans-serif" font-size="9.1" lengthAdjust="spacing" textLength="144.2" x="66.5" y="317.0228">requests data (initialDate, finalDate)</text><polygon fill="#181818" points="248.5,339.8104,255.5,342.6104,248.5,345.4104,251.3,342.6104" style="stroke:#181818;stroke-width:0.6999999999999998;"/><line style="stroke:#181818;stroke-width:0.6999999999999998;" x1="46.9" x2="252.7" y1="342.6104" y2="342.6104"/><text fill="#000000" font-family="sans-serif" font-size="9.1" font-weight="bold" lengthAdjust="spacing" textLength="4.9" x="51.8" y="338.9265">7</text><text fill="#000000" font-family="sans-serif" font-size="9.1" lengthAdjust="spacing" textLength="85.4" x="59.5" y="338.9265">types requested data</text><line style="stroke:#181818;stroke-width:0.6999999999999998;stroke-dasharray:2.0,2.0;" x1="263.9" x2="293.3" y1="376.6178" y2="376.6178"/><line style="stroke:#181818;stroke-width:0.6999999999999998;stroke-dasharray:2.0,2.0;" x1="293.3" x2="293.3" y1="376.6178" y2="385.7178"/><line style="stroke:#181818;stroke-width:0.6999999999999998;stroke-dasharray:2.0,2.0;" x1="264.6" x2="293.3" y1="385.7178" y2="385.7178"/><polygon fill="#181818" points="271.6,382.9178,264.6,385.7178,271.6,388.5178,268.8,385.7178" style="stroke:#181818;stroke-width:0.6999999999999998;"/><text fill="#000000" font-family="sans-serif" font-size="9.1" font-weight="bold" lengthAdjust="spacing" textLength="4.9" x="268.8" y="366.882">8</text><text fill="#000000" font-family="sans-serif" font-size="9.1" lengthAdjust="spacing" textLength="94.5" x="276.5" y="360.8302">validateData(initialDate,</text><text fill="#000000" font-family="sans-serif" font-size="9.1" lengthAdjust="spacing" textLength="37.8" x="276.5" y="372.9339">finalDate)</text><line style="stroke:#181818;stroke-width:0.6999999999999998;stroke-dasharray:2.0,2.0;" x1="263.9" x2="293.3" y1="424.6252" y2="424.6252"/><line style="stroke:#181818;stroke-width:0.6999999999999998;stroke-dasharray:2.0,2.0;" x1="293.3" x2="293.3" y1="424.6252" y2="433.7252"/><line style="stroke:#181818;stroke-width:0.6999999999999998;stroke-dasharray:2.0,2.0;" x1="264.6" x2="293.3" y1="433.7252" y2="433.7252"/><polygon fill="#181818" points="271.6,430.9252,264.6,433.7252,271.6,436.5252,268.8,433.7252" style="stroke:#181818;stroke-width:0.6999999999999998;"/><text fill="#000000" font-family="sans-serif" font-size="9.1" font-weight="bold" lengthAdjust="spacing" textLength="4.9" x="268.8" y="414.8895">9</text><text fill="#000000" font-family="sans-serif" font-size="9.1" lengthAdjust="spacing" textLength="157.5" x="276.5" y="408.8376">gets tasks assigned to the collaborator</text><text fill="#000000" font-family="sans-serif" font-size="9.1" lengthAdjust="spacing" textLength="91" x="276.5" y="420.9413">between the two dates</text><line style="stroke:#181818;stroke-width:0.6999999999999998;stroke-dasharray:2.0,2.0;" x1="263.9" x2="293.3" y1="455.6289" y2="455.6289"/><line style="stroke:#181818;stroke-width:0.6999999999999998;stroke-dasharray:2.0,2.0;" x1="293.3" x2="293.3" y1="455.6289" y2="464.7289"/><line style="stroke:#181818;stroke-width:0.6999999999999998;stroke-dasharray:2.0,2.0;" x1="264.6" x2="293.3" y1="464.7289" y2="464.7289"/><polygon fill="#181818" points="271.6,461.9289,264.6,464.7289,271.6,467.5289,268.8,464.7289" style="stroke:#181818;stroke-width:0.6999999999999998;"/><text fill="#000000" font-family="sans-serif" font-size="9.1" font-weight="bold" lengthAdjust="spacing" textLength="9.8" x="268.8" y="451.945">10</text><text fill="#000000" font-family="sans-serif" font-size="9.1" lengthAdjust="spacing" textLength="93.8" x="281.4" y="451.945">sorts the tasks by date</text><polygon fill="#181818" points="54.6,495.9363,47.6,498.7363,54.6,501.5363,51.8,498.7363" style="stroke:#181818;stroke-width:0.6999999999999998;"/><line style="stroke:#181818;stroke-width:0.6999999999999998;stroke-dasharray:2.0,2.0;" x1="50.4" x2="259.7" y1="498.7363" y2="498.7363"/><text fill="#000000" font-family="sans-serif" font-size="9.1" font-weight="bold" lengthAdjust="spacing" textLength="9.8" x="58.8" y="489.0006">11</text><text fill="#000000" font-family="sans-serif" font-size="9.1" lengthAdjust="spacing" textLength="165.9" x="71.4" y="482.9487">shows tasks assigned to the collaborator</text><text fill="#000000" font-family="sans-serif" font-size="9.1" lengthAdjust="spacing" textLength="169.4" x="71.4" y="495.0524">between the two dates and sorted by date</text><!--SRC=[dLAnZjim3Dtr5KIMve06A3eL6Reqom6tkTcoC3RF4I9BhaXV420VNqg-67AQzD1gC2o9VE_nwV7H-XuZTj057-f331s1n84CJpSzraTigPAp8uXK2_hMbGLym2QSh6_X5HsJCM95IxVLbw_VO0NLcOKwgEZNGBucs5XiKzkogZPFnk0WmG_TdgB-rn8YB7u4vt0V8kfk0SXG7XWb5LlR7ht0OlrYMShhdyX7tZxdjkrpXhHlA3J7CA2hF87LTos7DQHsa01ESK7o3fbjwwb9nt8Wg8k-dT-Jd8Wyo2b0eqISiITQrP3s-UD2w67mOXqqWTX_4c1owYWWlA6p3OHURF2v-BfKrKh5pSIkeJg44sSr7sk4dKVVJ9EzKmPF4qz3T_K-DAdA49mmClzKVGjpCqHkpfEccb48pQOc5PfioflBvN8VPGr7edw3WiihI7ftJLDXiPnxnLOc1CiZg_cxgJ55b7MktBIqtef5fpJq6Lwj7t-Vp9-EFOvJ4i5Nu7Svvf5JzrpAGvPAThwGChFhngAMT99_Id1Aqop58-8La4EKCdFxSoxzm5GUa_g_EY15Dp5hLqauVu3V]--></g></svg>