<?xml version="1.0" encoding="us-ascii" standalone="no"?><svg xmlns="http://www.w3.org/2000/svg" xmlns:xlink="http://www.w3.org/1999/xlink" contentStyleType="text/css" height="630px" preserveAspectRatio="none" style="width:698px;height:630px;background:#FFFFFF;" version="1.1" viewBox="0 0 698 630" width="698px" zoomAndPan="magnify"><defs/><g><text fill="#000000" font-family="sans-serif" font-size="14" font-weight="bold" lengthAdjust="spacing" textLength="284" x="209" y="30.1074">US006 - System Sequence Diagram (SSD)</text><rect fill="#FFFFFF" height="404.7832" style="stroke:#181818;stroke-width:1.0;" width="10" x="64" y="133.2422"/><rect fill="#FFFFFF" height="65.873" style="stroke:#181818;stroke-width:1.0;" width="10" x="406" y="156.5332"/><rect fill="#FFFFFF" height="75.582" style="stroke:#181818;stroke-width:1.0;" width="10" x="406" y="279.9883"/><rect fill="#FFFFFF" height="110.1641" style="stroke:#181818;stroke-width:1.0;" width="10" x="406" y="418.8613"/><rect fill="none" height="126.1641" style="stroke:#000000;stroke-width:1.5;" width="513" x="10" y="237.4063"/><line style="stroke:#181818;stroke-width:0.5;stroke-dasharray:5.0,5.0;" x1="69" x2="69" y1="123.2422" y2="547.0254"/><line style="stroke:#181818;stroke-width:0.5;stroke-dasharray:5.0,5.0;" x1="410.5" x2="410.5" y1="123.2422" y2="547.0254"/><text fill="#000000" font-family="sans-serif" font-size="14" lengthAdjust="spacing" textLength="92" x="20" y="119.7285">Fleet Manager</text><ellipse cx="69" cy="53.1211" fill="#E3E3E3" rx="8" ry="8" style="stroke:#181818;stroke-width:0.5;"/><path d="M69,61.1211 L69,88.1211 M56,69.1211 L82,69.1211 M69,88.1211 L56,103.1211 M69,88.1211 L82,103.1211 " fill="none" style="stroke:#181818;stroke-width:0.5;"/><text fill="#000000" font-family="sans-serif" font-size="14" lengthAdjust="spacing" textLength="92" x="20" y="561.1328">Fleet Manager</text><ellipse cx="69" cy="573.1465" fill="#E3E3E3" rx="8" ry="8" style="stroke:#181818;stroke-width:0.5;"/><path d="M69,581.1465 L69,608.1465 M56,589.1465 L82,589.1465 M69,608.1465 L56,623.1465 M69,608.1465 L82,623.1465 " fill="none" style="stroke:#181818;stroke-width:0.5;"/><rect fill="#E3E3E3" height="32.6211" rx="2.5" ry="2.5" style="stroke:#181818;stroke-width:0.5;" width="129" x="346.5" y="89.6211"/><text fill="#000000" font-family="sans-serif" font-size="14" lengthAdjust="spacing" textLength="115" x="353.5" y="111.7285">:RegisterVehicleUI</text><rect fill="#E3E3E3" height="32.6211" rx="2.5" ry="2.5" style="stroke:#181818;stroke-width:0.5;" width="129" x="346.5" y="546.0254"/><text fill="#000000" font-family="sans-serif" font-size="14" lengthAdjust="spacing" textLength="115" x="353.5" y="568.1328">:RegisterVehicleUI</text><rect fill="#FFFFFF" height="404.7832" style="stroke:#181818;stroke-width:1.0;" width="10" x="64" y="133.2422"/><rect fill="#FFFFFF" height="65.873" style="stroke:#181818;stroke-width:1.0;" width="10" x="406" y="156.5332"/><rect fill="#FFFFFF" height="75.582" style="stroke:#181818;stroke-width:1.0;" width="10" x="406" y="279.9883"/><rect fill="#FFFFFF" height="110.1641" style="stroke:#181818;stroke-width:1.0;" width="10" x="406" y="418.8613"/><polygon fill="#181818" points="394,152.5332,404,156.5332,394,160.5332,398,156.5332" style="stroke:#181818;stroke-width:1.0;"/><line style="stroke:#181818;stroke-width:1.0;" x1="74" x2="400" y1="156.5332" y2="156.5332"/><text fill="#000000" font-family="sans-serif" font-size="13" font-weight="bold" lengthAdjust="spacing" textLength="7" x="81" y="151.2705">1</text><text fill="#000000" font-family="sans-serif" font-size="13" lengthAdjust="spacing" textLength="166" x="92" y="151.2705">Asks to create a new vehicle</text><polygon fill="#181818" points="85,218.4063,75,222.4063,85,226.4063,81,222.4063" style="stroke:#181818;stroke-width:1.0;"/><line style="stroke:#181818;stroke-width:1.0;stroke-dasharray:2.0,2.0;" x1="79" x2="410" y1="222.4063" y2="222.4063"/><text fill="#000000" font-family="sans-serif" font-size="13" font-weight="bold" lengthAdjust="spacing" textLength="7" x="91" y="199.8525">2</text><text fill="#000000" font-family="sans-serif" font-size="13" lengthAdjust="spacing" textLength="297" x="102" y="182.5615">Requests vehicle data (plate id, brand, model, type,</text><text fill="#000000" font-family="sans-serif" font-size="13" lengthAdjust="spacing" textLength="257" x="102" y="199.8525">tare, gross weight, current km, register date,</text><text fill="#000000" font-family="sans-serif" font-size="13" lengthAdjust="spacing" textLength="241" x="102" y="217.1436">acquisition date, checkup frequency kms)</text><path d="M10,237.4063 L83,237.4063 L83,246.6973 L73,256.6973 L10,256.6973 L10,237.4063 " fill="#EEEEEE" style="stroke:#000000;stroke-width:1.5;"/><rect fill="none" height="126.1641" style="stroke:#000000;stroke-width:1.5;" width="513" x="10" y="237.4063"/><text fill="#000000" font-family="sans-serif" font-size="13" font-weight="bold" lengthAdjust="spacing" textLength="28" x="25" y="252.4346">loop</text><text fill="#000000" font-family="sans-serif" font-size="11" font-weight="bold" lengthAdjust="spacing" textLength="157" x="98" y="251.2764">[until typed data is validated]</text><polygon fill="#181818" points="394,275.9883,404,279.9883,394,283.9883,398,279.9883" style="stroke:#181818;stroke-width:1.0;"/><line style="stroke:#181818;stroke-width:1.0;" x1="74" x2="400" y1="279.9883" y2="279.9883"/><text fill="#000000" font-family="sans-serif" font-size="13" font-weight="bold" lengthAdjust="spacing" textLength="7" x="81" y="274.7256">3</text><text fill="#000000" font-family="sans-serif" font-size="13" lengthAdjust="spacing" textLength="125" x="92" y="274.7256">Types requested data</text><line style="stroke:#181818;stroke-width:1.0;stroke-dasharray:2.0,2.0;" x1="416" x2="458" y1="311.2793" y2="311.2793"/><line style="stroke:#181818;stroke-width:1.0;stroke-dasharray:2.0,2.0;" x1="458" x2="458" y1="311.2793" y2="324.2793"/><line style="stroke:#181818;stroke-width:1.0;stroke-dasharray:2.0,2.0;" x1="417" x2="458" y1="324.2793" y2="324.2793"/><polygon fill="#181818" points="427,320.2793,417,324.2793,427,328.2793,423,324.2793" style="stroke:#181818;stroke-width:1.0;"/><text fill="#000000" font-family="sans-serif" font-size="13" font-weight="bold" lengthAdjust="spacing" textLength="7" x="423" y="306.0166">4</text><text fill="#000000" font-family="sans-serif" font-size="13" lengthAdjust="spacing" textLength="77" x="434" y="306.0166">validatesData</text><polygon fill="#181818" points="85,351.5703,75,355.5703,85,359.5703,81,355.5703" style="stroke:#181818;stroke-width:1.0;"/><line style="stroke:#181818;stroke-width:1.0;stroke-dasharray:2.0,2.0;" x1="79" x2="410" y1="355.5703" y2="355.5703"/><text fill="#000000" font-family="sans-serif" font-size="13" font-weight="bold" lengthAdjust="spacing" textLength="7" x="91" y="350.3076">5</text><text fill="#000000" font-family="sans-serif" font-size="13" lengthAdjust="spacing" textLength="238" x="102" y="350.3076">Shows all data and requests confirmation</text><polygon fill="#181818" points="394,414.8613,404,418.8613,394,422.8613,398,418.8613" style="stroke:#181818;stroke-width:1.0;"/><line style="stroke:#181818;stroke-width:1.0;" x1="74" x2="400" y1="418.8613" y2="418.8613"/><text fill="#000000" font-family="sans-serif" font-size="13" font-weight="bold" lengthAdjust="spacing" textLength="7" x="81" y="413.5986">6</text><text fill="#000000" font-family="sans-serif" font-size="13" lengthAdjust="spacing" textLength="155" x="92" y="413.5986">Confirms data and submits</text><line style="stroke:#181818;stroke-width:1.0;stroke-dasharray:2.0,2.0;" x1="416" x2="458" y1="484.7344" y2="484.7344"/><line style="stroke:#181818;stroke-width:1.0;stroke-dasharray:2.0,2.0;" x1="458" x2="458" y1="484.7344" y2="497.7344"/><line style="stroke:#181818;stroke-width:1.0;stroke-dasharray:2.0,2.0;" x1="417" x2="458" y1="497.7344" y2="497.7344"/><polygon fill="#181818" points="427,493.7344,417,497.7344,427,501.7344,423,497.7344" style="stroke:#181818;stroke-width:1.0;"/><text fill="#000000" font-family="sans-serif" font-size="13" font-weight="bold" lengthAdjust="spacing" textLength="7" x="423" y="462.1807">7</text><text fill="#000000" font-family="sans-serif" font-size="13" lengthAdjust="spacing" textLength="221" x="434" y="444.8896">keepData(plate id, brand, model, type,</text><text fill="#000000" font-family="sans-serif" font-size="13" lengthAdjust="spacing" textLength="257" x="434" y="462.1807">tare, gross weight, current km, register date,</text><text fill="#000000" font-family="sans-serif" font-size="13" lengthAdjust="spacing" textLength="241" x="434" y="479.4717">acquisition date, checkup frequency kms)</text><polygon fill="#181818" points="85,525.0254,75,529.0254,85,533.0254,81,529.0254" style="stroke:#181818;stroke-width:1.0;"/><line style="stroke:#181818;stroke-width:1.0;stroke-dasharray:2.0,2.0;" x1="79" x2="410" y1="529.0254" y2="529.0254"/><text fill="#000000" font-family="sans-serif" font-size="13" font-weight="bold" lengthAdjust="spacing" textLength="7" x="91" y="523.7627">8</text><text fill="#000000" font-family="sans-serif" font-size="13" lengthAdjust="spacing" textLength="160" x="102" y="523.7627">Displays operation success</text><!--SRC=[nP8nRzim48Lt_Og3fmIGWKmTF1GewWR8a2LgEcKvKsVf88faUASO0lpZGqgMKw1HrdAGIEhUT_SU91sxW15xwBtpfes-9z0uK27NBm5DXmrLEbg2I4RHDVRl0ccnzYTs3HpH2XM5igRIv-hkxXjieHf5gOUANWToXc3Fs6JPJLNjRui21_Lkw0yKqzweZx2vjqGAZ-XIsxW15FZL1-j7eY9rL3OSq2biTa_KS8B7FzIoiVJyC1NF3ISQlw7IXxg0j9OJRByli-tWXtG2wi54oWe4HoTucx6JwWfRw71P5yGsqQxa7JnbjwAoCA16HRW9DYEuBk4GqQLNxsko9UWOg7nnYf5AQA8NWHDnqse9PeYHajkkBrFwizzCo_LeNWSMLlPklWBJakc60CSunpqcdTnEmzRqZuVftdeVO73ATXgZdaVbD3fQpjHwFRRVII0GPxCNwQTnVPBM5RBqaVsYNi-rQlr90AsTfqmPBjq5Z7T7ZZtcE5OSvzlfGKcOZK-7y_cyRl7dJ9MFXZ8SUbRvqkUNXZkYaBt-rzzXFUCzInfi5F21ufHcicmCYQoa-Wu0]--></g></svg>