<?xml version="1.0" encoding="us-ascii" standalone="no"?><svg xmlns="http://www.w3.org/2000/svg" xmlns:xlink="http://www.w3.org/1999/xlink" contentStyleType="text/css" height="774px" preserveAspectRatio="none" style="width:624px;height:774px;background:#FFFFFF;" version="1.1" viewBox="0 0 624 774" width="624px" zoomAndPan="magnify"><defs/><g><text fill="#000000" font-family="sans-serif" font-size="14" font-weight="bold" lengthAdjust="spacing" textLength="284" x="172" y="30.1074">US004 - System Sequence Diagram (SSD)</text><rect fill="#FFFFFF" height="548.7832" style="stroke:#181818;stroke-width:1.0;" width="10" x="33" y="133.2422"/><rect fill="#FFFFFF" height="57.582" style="stroke:#181818;stroke-width:1.0;" width="10" x="379" y="156.5332"/><rect fill="#FFFFFF" height="201.1641" style="stroke:#181818;stroke-width:1.0;" width="10" x="379" y="245.4063"/><rect fill="#FFFFFF" height="132.582" style="stroke:#181818;stroke-width:1.0;" width="10" x="379" y="477.8613"/><rect fill="#FFFFFF" height="31.291" style="stroke:#181818;stroke-width:1.0;" width="10" x="379" y="641.7344"/><rect fill="none" height="106.873" style="stroke:#000000;stroke-width:1.5;" width="432.5" x="10" y="171.5332"/><rect fill="none" height="124.1641" style="stroke:#000000;stroke-width:1.5;" width="432.5" x="10" y="386.6973"/><line style="stroke:#181818;stroke-width:0.5;stroke-dasharray:5.0,5.0;" x1="38" x2="38" y1="123.2422" y2="691.0254"/><line style="stroke:#181818;stroke-width:0.5;stroke-dasharray:5.0,5.0;" x1="383.5" x2="383.5" y1="123.2422" y2="691.0254"/><text fill="#000000" font-family="sans-serif" font-size="14" lengthAdjust="spacing" textLength="30" x="20" y="119.7285">HRM</text><ellipse cx="38" cy="53.1211" fill="#E3E3E3" rx="8" ry="8" style="stroke:#181818;stroke-width:0.5;"/><path d="M38,61.1211 L38,88.1211 M25,69.1211 L51,69.1211 M38,88.1211 L25,103.1211 M38,88.1211 L51,103.1211 " fill="none" style="stroke:#181818;stroke-width:0.5;"/><text fill="#000000" font-family="sans-serif" font-size="14" lengthAdjust="spacing" textLength="30" x="20" y="705.1328">HRM</text><ellipse cx="38" cy="717.1465" fill="#E3E3E3" rx="8" ry="8" style="stroke:#181818;stroke-width:0.5;"/><path d="M38,725.1465 L38,752.1465 M25,733.1465 L51,733.1465 M38,752.1465 L25,767.1465 M38,752.1465 L51,767.1465 " fill="none" style="stroke:#181818;stroke-width:0.5;"/><rect fill="#E3E3E3" height="32.6211" rx="2.5" ry="2.5" style="stroke:#181818;stroke-width:0.5;" width="97" x="335.5" y="89.6211"/><text fill="#000000" font-family="sans-serif" font-size="14" lengthAdjust="spacing" textLength="83" x="342.5" y="111.7285">:AssignSkillUI</text><rect fill="#E3E3E3" height="32.6211" rx="2.5" ry="2.5" style="stroke:#181818;stroke-width:0.5;" width="97" x="335.5" y="690.0254"/><text fill="#000000" font-family="sans-serif" font-size="14" lengthAdjust="spacing" textLength="83" x="342.5" y="712.1328">:AssignSkillUI</text><rect fill="#FFFFFF" height="548.7832" style="stroke:#181818;stroke-width:1.0;" width="10" x="33" y="133.2422"/><rect fill="#FFFFFF" height="57.582" style="stroke:#181818;stroke-width:1.0;" width="10" x="379" y="156.5332"/><rect fill="#FFFFFF" height="201.1641" style="stroke:#181818;stroke-width:1.0;" width="10" x="379" y="245.4063"/><rect fill="#FFFFFF" height="132.582" style="stroke:#181818;stroke-width:1.0;" width="10" x="379" y="477.8613"/><rect fill="#FFFFFF" height="31.291" style="stroke:#181818;stroke-width:1.0;" width="10" x="379" y="641.7344"/><polygon fill="#181818" points="367,152.5332,377,156.5332,367,160.5332,371,156.5332" style="stroke:#181818;stroke-width:1.0;"/><line style="stroke:#181818;stroke-width:1.0;" x1="43" x2="373" y1="156.5332" y2="156.5332"/><text fill="#000000" font-family="sans-serif" font-size="13" font-weight="bold" lengthAdjust="spacing" textLength="7" x="50" y="151.2705">1</text><text fill="#000000" font-family="sans-serif" font-size="13" lengthAdjust="spacing" textLength="291" x="61" y="151.2705">Asks to assign one or more skills to a collaborator</text><path d="M10,171.5332 L83,171.5332 L83,180.8242 L73,190.8242 L10,190.8242 L10,171.5332 " fill="#EEEEEE" style="stroke:#000000;stroke-width:1.5;"/><rect fill="none" height="106.873" style="stroke:#000000;stroke-width:1.5;" width="432.5" x="10" y="171.5332"/><text fill="#000000" font-family="sans-serif" font-size="13" font-weight="bold" lengthAdjust="spacing" textLength="28" x="25" y="186.5615">loop</text><text fill="#000000" font-family="sans-serif" font-size="11" font-weight="bold" lengthAdjust="spacing" textLength="196" x="98" y="185.4033">[until doesn't choose a valid option]</text><polygon fill="#181818" points="54,210.1152,44,214.1152,54,218.1152,50,214.1152" style="stroke:#181818;stroke-width:1.0;"/><line style="stroke:#181818;stroke-width:1.0;stroke-dasharray:2.0,2.0;" x1="48" x2="383" y1="214.1152" y2="214.1152"/><text fill="#000000" font-family="sans-serif" font-size="13" font-weight="bold" lengthAdjust="spacing" textLength="7" x="60" y="208.8525">2</text><text fill="#000000" font-family="sans-serif" font-size="13" lengthAdjust="spacing" textLength="301" x="71" y="208.8525">Shows a list of Collaborators and asks to select one</text><polygon fill="#181818" points="367,241.4063,377,245.4063,367,249.4063,371,245.4063" style="stroke:#181818;stroke-width:1.0;"/><line style="stroke:#181818;stroke-width:1.0;" x1="43" x2="373" y1="245.4063" y2="245.4063"/><text fill="#000000" font-family="sans-serif" font-size="13" font-weight="bold" lengthAdjust="spacing" textLength="7" x="50" y="240.1436">3</text><text fill="#000000" font-family="sans-serif" font-size="13" lengthAdjust="spacing" textLength="126" x="61" y="240.1436">Selects a collaborator</text><line style="stroke:#181818;stroke-width:1.0;stroke-dasharray:2.0,2.0;" x1="389" x2="431" y1="333.6973" y2="333.6973"/><line style="stroke:#181818;stroke-width:1.0;stroke-dasharray:2.0,2.0;" x1="431" x2="431" y1="333.6973" y2="346.6973"/><line style="stroke:#181818;stroke-width:1.0;stroke-dasharray:2.0,2.0;" x1="390" x2="431" y1="346.6973" y2="346.6973"/><polygon fill="#181818" points="400,342.6973,390,346.6973,400,350.6973,396,346.6973" style="stroke:#181818;stroke-width:1.0;"/><text fill="#000000" font-family="sans-serif" font-size="13" font-weight="bold" lengthAdjust="spacing" textLength="7" x="396" y="328.4346">4</text><text fill="#000000" font-family="sans-serif" font-size="13" lengthAdjust="spacing" textLength="137" x="407" y="328.4346">keepsData(collaborator)</text><path d="M10,386.6973 L83,386.6973 L83,395.9883 L73,405.9883 L10,405.9883 L10,386.6973 " fill="#EEEEEE" style="stroke:#000000;stroke-width:1.5;"/><rect fill="none" height="124.1641" style="stroke:#000000;stroke-width:1.5;" width="432.5" x="10" y="386.6973"/><text fill="#000000" font-family="sans-serif" font-size="13" font-weight="bold" lengthAdjust="spacing" textLength="28" x="25" y="401.7256">loop</text><text fill="#000000" font-family="sans-serif" font-size="11" font-weight="bold" lengthAdjust="spacing" textLength="189" x="98" y="400.5674">[while doesn't choose to advance]</text><polygon fill="#181818" points="54,442.5703,44,446.5703,54,450.5703,50,446.5703" style="stroke:#181818;stroke-width:1.0;"/><line style="stroke:#181818;stroke-width:1.0;stroke-dasharray:2.0,2.0;" x1="48" x2="383" y1="446.5703" y2="446.5703"/><text fill="#000000" font-family="sans-serif" font-size="13" font-weight="bold" lengthAdjust="spacing" textLength="7" x="60" y="432.6621">5</text><text fill="#000000" font-family="sans-serif" font-size="13" lengthAdjust="spacing" textLength="255" x="71" y="424.0166">Displays a list of available skills and asks to</text><text fill="#000000" font-family="sans-serif" font-size="13" lengthAdjust="spacing" textLength="64" x="71" y="441.3076">select one.</text><polygon fill="#181818" points="367,473.8613,377,477.8613,367,481.8613,371,477.8613" style="stroke:#181818;stroke-width:1.0;"/><line style="stroke:#181818;stroke-width:1.0;" x1="43" x2="373" y1="477.8613" y2="477.8613"/><text fill="#000000" font-family="sans-serif" font-size="13" font-weight="bold" lengthAdjust="spacing" textLength="7" x="50" y="472.5986">6</text><text fill="#000000" font-family="sans-serif" font-size="13" lengthAdjust="spacing" textLength="82" x="61" y="472.5986">Selects a skill</text><line style="stroke:#181818;stroke-width:1.0;stroke-dasharray:2.0,2.0;" x1="389" x2="431" y1="566.1523" y2="566.1523"/><line style="stroke:#181818;stroke-width:1.0;stroke-dasharray:2.0,2.0;" x1="431" x2="431" y1="566.1523" y2="579.1523"/><line style="stroke:#181818;stroke-width:1.0;stroke-dasharray:2.0,2.0;" x1="390" x2="431" y1="579.1523" y2="579.1523"/><polygon fill="#181818" points="400,575.1523,390,579.1523,400,583.1523,396,579.1523" style="stroke:#181818;stroke-width:1.0;"/><text fill="#000000" font-family="sans-serif" font-size="13" font-weight="bold" lengthAdjust="spacing" textLength="7" x="396" y="560.8896">7</text><text fill="#000000" font-family="sans-serif" font-size="13" lengthAdjust="spacing" textLength="210" x="407" y="560.8896">keepData(List&lt;Skill&gt; selectedSkills)</text><polygon fill="#181818" points="54,606.4434,44,610.4434,54,614.4434,50,610.4434" style="stroke:#181818;stroke-width:1.0;"/><line style="stroke:#181818;stroke-width:1.0;stroke-dasharray:2.0,2.0;" x1="48" x2="383" y1="610.4434" y2="610.4434"/><text fill="#000000" font-family="sans-serif" font-size="13" font-weight="bold" lengthAdjust="spacing" textLength="7" x="60" y="605.1807">8</text><text fill="#000000" font-family="sans-serif" font-size="13" lengthAdjust="spacing" textLength="238" x="71" y="605.1807">Shows all data and requests confirmation</text><polygon fill="#181818" points="367,637.7344,377,641.7344,367,645.7344,371,641.7344" style="stroke:#181818;stroke-width:1.0;"/><line style="stroke:#181818;stroke-width:1.0;" x1="43" x2="373" y1="641.7344" y2="641.7344"/><text fill="#000000" font-family="sans-serif" font-size="13" font-weight="bold" lengthAdjust="spacing" textLength="7" x="50" y="636.4717">9</text><text fill="#000000" font-family="sans-serif" font-size="13" lengthAdjust="spacing" textLength="130" x="61" y="636.4717">Confirms the operation</text><polygon fill="#181818" points="54,669.0254,44,673.0254,54,677.0254,50,673.0254" style="stroke:#181818;stroke-width:1.0;"/><line style="stroke:#181818;stroke-width:1.0;stroke-dasharray:2.0,2.0;" x1="48" x2="383" y1="673.0254" y2="673.0254"/><text fill="#000000" font-family="sans-serif" font-size="13" font-weight="bold" lengthAdjust="spacing" textLength="14" x="60" y="667.7627">10</text><text fill="#000000" font-family="sans-serif" font-size="13" lengthAdjust="spacing" textLength="153" x="78" y="667.7627">Display operation success</text><!--SRC=[VLEnZjim3Dtr5KIMNeOKDtGAYWCEbw47j4kDR5ruCXCBbaLNb1C4oCUNabl7oQMdHPBr-FZuI4lhGeyHE-Wui6qYTmGf3cHaUkdHjhYdAfqyGIIRCEpz720DrdnqOGyxz4B699SKkgqU7x_02ggJ9EgWejy31KkmSRZFOGzLjLaQWqFYC7Hl5FLi4qTOVFlvOm4eeBlH5CbPrsD8i5W_YxXzg5hd_VQrOBQlfiIv0oOg4GPqwG5MJ_eAQtYMLY2nedCmS23GB1r70ibCuoDOzXxVEA9g64acsfm4Piipzp24v3pKJ18-9R0Div3I7D2x6hXFZiCbIeMiL4-MjOQguQCer3j9m3jucMNMxw5MgQDa8Q-6PyaZLKrNcjwLMXMyt5PpMqo-dy_dibEeJJwRcSp2rHBrii643tEkfPcYpPKTnyPfqs_ioCRM1zIsNnjuPSV6IU_nD7S43-WqfPywD3VbLxZOylcUBV-ot7UcC4wOgP2x3DcSEV96_-HJiUcxYlzQPlFfR-EeBbTPVZm8NiT82KgHCVycea8jXvsB7POv-a-Hym9VHhmwrEXyznGlaUzBk-V_9GXai9P4HknrtZy0]--></g></svg>