<?xml version="1.0" encoding="us-ascii" standalone="no"?><svg xmlns="http://www.w3.org/2000/svg" xmlns:xlink="http://www.w3.org/1999/xlink" contentStyleType="text/css" height="513px" preserveAspectRatio="none" style="width:479px;height:513px;background:#FFFFFF;" version="1.1" viewBox="0 0 479 513" width="479px" zoomAndPan="magnify"><defs/><g><text fill="#000000" font-family="sans-serif" font-size="14" font-weight="bold" lengthAdjust="spacing" textLength="284" x="96.75" y="30.1074">US007 - System Sequence Diagram (SSD)</text><rect fill="#FFFFFF" height="251.3281" style="stroke:#181818;stroke-width:1.0;" width="10" x="46" y="151.8633"/><rect fill="#FFFFFF" height="31.291" style="stroke:#181818;stroke-width:1.0;" width="10" x="399" y="175.1543"/><rect fill="#FFFFFF" height="31.291" style="stroke:#181818;stroke-width:1.0;" width="10" x="399" y="237.7363"/><rect fill="#FFFFFF" height="31.291" style="stroke:#181818;stroke-width:1.0;" width="10" x="399" y="300.3184"/><rect fill="#FFFFFF" height="31.291" style="stroke:#181818;stroke-width:1.0;" width="10" x="399" y="362.9004"/><line style="stroke:#181818;stroke-width:0.5;stroke-dasharray:5.0,5.0;" x1="51" x2="51" y1="141.8633" y2="412.1914"/><line style="stroke:#181818;stroke-width:0.5;stroke-dasharray:5.0,5.0;" x1="403.5" x2="403.5" y1="141.8633" y2="412.1914"/><text fill="#000000" font-family="sans-serif" font-size="14" lengthAdjust="spacing" textLength="20" x="38" y="119.7285">FM</text><text fill="#000000" font-family="sans-serif" font-size="14" lengthAdjust="spacing" textLength="86" x="5" y="138.3496">MS Employee</text><ellipse cx="51" cy="53.1211" fill="#E3E3E3" rx="8" ry="8" style="stroke:#181818;stroke-width:0.5;"/><path d="M51,61.1211 L51,88.1211 M38,69.1211 L64,69.1211 M51,88.1211 L38,103.1211 M51,88.1211 L64,103.1211 " fill="none" style="stroke:#181818;stroke-width:0.5;"/><text fill="#000000" font-family="sans-serif" font-size="14" lengthAdjust="spacing" textLength="20" x="38" y="426.2988">FM</text><text fill="#000000" font-family="sans-serif" font-size="14" lengthAdjust="spacing" textLength="86" x="5" y="444.9199">MS Employee</text><ellipse cx="51" cy="456.9336" fill="#E3E3E3" rx="8" ry="8" style="stroke:#181818;stroke-width:0.5;"/><path d="M51,464.9336 L51,491.9336 M38,472.9336 L64,472.9336 M51,491.9336 L38,506.9336 M51,491.9336 L64,506.9336 " fill="none" style="stroke:#181818;stroke-width:0.5;"/><rect fill="#E3E3E3" height="32.6211" rx="2.5" ry="2.5" style="stroke:#181818;stroke-width:0.5;" width="139" x="334.5" y="108.2422"/><text fill="#000000" font-family="sans-serif" font-size="14" lengthAdjust="spacing" textLength="125" x="341.5" y="130.3496">:RegisterCheckupUI</text><rect fill="#E3E3E3" height="32.6211" rx="2.5" ry="2.5" style="stroke:#181818;stroke-width:0.5;" width="139" x="334.5" y="411.1914"/><text fill="#000000" font-family="sans-serif" font-size="14" lengthAdjust="spacing" textLength="125" x="341.5" y="433.2988">:RegisterCheckupUI</text><rect fill="#FFFFFF" height="251.3281" style="stroke:#181818;stroke-width:1.0;" width="10" x="46" y="151.8633"/><rect fill="#FFFFFF" height="31.291" style="stroke:#181818;stroke-width:1.0;" width="10" x="399" y="175.1543"/><rect fill="#FFFFFF" height="31.291" style="stroke:#181818;stroke-width:1.0;" width="10" x="399" y="237.7363"/><rect fill="#FFFFFF" height="31.291" style="stroke:#181818;stroke-width:1.0;" width="10" x="399" y="300.3184"/><rect fill="#FFFFFF" height="31.291" style="stroke:#181818;stroke-width:1.0;" width="10" x="399" y="362.9004"/><polygon fill="#181818" points="387,171.1543,397,175.1543,387,179.1543,391,175.1543" style="stroke:#181818;stroke-width:1.0;"/><line style="stroke:#181818;stroke-width:1.0;" x1="56" x2="393" y1="175.1543" y2="175.1543"/><text fill="#000000" font-family="sans-serif" font-size="13" font-weight="bold" lengthAdjust="spacing" textLength="7" x="63" y="169.8916">1</text><text fill="#000000" font-family="sans-serif" font-size="13" lengthAdjust="spacing" textLength="239" x="74" y="169.8916">Asks to register a new vehicle's check-up</text><polygon fill="#181818" points="67,202.4453,57,206.4453,67,210.4453,63,206.4453" style="stroke:#181818;stroke-width:1.0;"/><line style="stroke:#181818;stroke-width:1.0;stroke-dasharray:2.0,2.0;" x1="61" x2="403" y1="206.4453" y2="206.4453"/><text fill="#000000" font-family="sans-serif" font-size="13" font-weight="bold" lengthAdjust="spacing" textLength="7" x="73" y="201.1826">2</text><text fill="#000000" font-family="sans-serif" font-size="13" lengthAdjust="spacing" textLength="268" x="84" y="201.1826">Shows the vehicles list and asks to select one</text><polygon fill="#181818" points="387,233.7363,397,237.7363,387,241.7363,391,237.7363" style="stroke:#181818;stroke-width:1.0;"/><line style="stroke:#181818;stroke-width:1.0;" x1="56" x2="393" y1="237.7363" y2="237.7363"/><text fill="#000000" font-family="sans-serif" font-size="13" font-weight="bold" lengthAdjust="spacing" textLength="7" x="63" y="232.4736">3</text><text fill="#000000" font-family="sans-serif" font-size="13" lengthAdjust="spacing" textLength="98" x="74" y="232.4736">Selects a vehicle</text><polygon fill="#181818" points="67,265.0273,57,269.0273,67,273.0273,63,269.0273" style="stroke:#181818;stroke-width:1.0;"/><line style="stroke:#181818;stroke-width:1.0;stroke-dasharray:2.0,2.0;" x1="61" x2="403" y1="269.0273" y2="269.0273"/><text fill="#000000" font-family="sans-serif" font-size="13" font-weight="bold" lengthAdjust="spacing" textLength="7" x="73" y="263.7646">4</text><text fill="#000000" font-family="sans-serif" font-size="13" lengthAdjust="spacing" textLength="308" x="84" y="263.7646">Requests data (Date of check-up, Current kilometers)</text><polygon fill="#181818" points="387,296.3184,397,300.3184,387,304.3184,391,300.3184" style="stroke:#181818;stroke-width:1.0;"/><line style="stroke:#181818;stroke-width:1.0;" x1="56" x2="393" y1="300.3184" y2="300.3184"/><text fill="#000000" font-family="sans-serif" font-size="13" font-weight="bold" lengthAdjust="spacing" textLength="7" x="63" y="295.0557">5</text><text fill="#000000" font-family="sans-serif" font-size="13" lengthAdjust="spacing" textLength="125" x="74" y="295.0557">Types requested data</text><polygon fill="#181818" points="67,327.6094,57,331.6094,67,335.6094,63,331.6094" style="stroke:#181818;stroke-width:1.0;"/><line style="stroke:#181818;stroke-width:1.0;stroke-dasharray:2.0,2.0;" x1="61" x2="403" y1="331.6094" y2="331.6094"/><text fill="#000000" font-family="sans-serif" font-size="13" font-weight="bold" lengthAdjust="spacing" textLength="7" x="73" y="326.3467">6</text><text fill="#000000" font-family="sans-serif" font-size="13" lengthAdjust="spacing" textLength="238" x="84" y="326.3467">Shows all data and requests confirmation</text><polygon fill="#181818" points="387,358.9004,397,362.9004,387,366.9004,391,362.9004" style="stroke:#181818;stroke-width:1.0;"/><line style="stroke:#181818;stroke-width:1.0;" x1="56" x2="393" y1="362.9004" y2="362.9004"/><text fill="#000000" font-family="sans-serif" font-size="13" font-weight="bold" lengthAdjust="spacing" textLength="7" x="63" y="357.6377">7</text><text fill="#000000" font-family="sans-serif" font-size="13" lengthAdjust="spacing" textLength="80" x="74" y="357.6377">Confirms data</text><polygon fill="#181818" points="67,390.1914,57,394.1914,67,398.1914,63,394.1914" style="stroke:#181818;stroke-width:1.0;"/><line style="stroke:#181818;stroke-width:1.0;stroke-dasharray:2.0,2.0;" x1="61" x2="403" y1="394.1914" y2="394.1914"/><text fill="#000000" font-family="sans-serif" font-size="13" font-weight="bold" lengthAdjust="spacing" textLength="7" x="73" y="388.9287">8</text><text fill="#000000" font-family="sans-serif" font-size="13" lengthAdjust="spacing" textLength="160" x="84" y="388.9287">Displays operation success</text><!--SRC=[dPAnRi8m48RtFCM9fI0LYQqIGwKAMga32ovRbwjp95OSs_KveBnzBmb9Ez01FCNAtVT_TmbNnWMCM4FjdTTbz3L1YWrbFBq9g2iiIANM4aJI2LrX_nPmYRa_6rV04IrJbYMJfFIWLgidM89gEL4DYhuRSffWQx3eskPARHTPXatohgc_ACgpJZx2x6ttwNOANkjWVKiq0-JfaabcCje4T0bcwpqLHl1nKvAkcd1uxuk7o9vdJfZejpi3EUCDbi-ZtHfUk698NYOSY83Ww0mdAesszC2WkuXb4th4H1wZu78klAMWfvWrgDAVXLxIo6EmaWBeSl4TWfciB1UyenwMqzMCg-wgRsLHlk3lSTnt7uY5acD2c6-xJd-Sndw4JHCZoTOhO-KtaHNnucRJZpR8x768ehpFkd-XQErWs-qnZlxQkwE9DIRZtSs2cw6PxpRR6WuMMmOVAFOEm8tMnFoFomy0]--></g></svg>