<?xml version="1.0" encoding="UTF-8" standalone="no"?><svg xmlns="http://www.w3.org/2000/svg" xmlns:xlink="http://www.w3.org/1999/xlink" contentStyleType="text/css" height="440px" preserveAspectRatio="none" style="width:379px;height:440px;background:#FFFFFF;" version="1.1" viewBox="0 0 379 440" width="379px" zoomAndPan="magnify"><defs/><g><text fill="#000000" font-family="sans-serif" font-size="14" font-weight="bold" lengthAdjust="spacing" textLength="351" x="10" y="29.5332">System Sequence Diagram (SSD) - Alternative One</text><rect fill="#FFFFFF" height="183.1094" style="stroke:#181818;stroke-width:1.0;" width="10" x="47.5" y="148.8281"/><rect fill="#FFFFFF" height="30.3516" style="stroke:#181818;stroke-width:1.0;" width="10" x="328.5" y="171.1797"/><rect fill="#FFFFFF" height="30.3516" style="stroke:#181818;stroke-width:1.0;" width="10" x="328.5" y="231.8828"/><rect fill="#FFFFFF" height="30.3516" style="stroke:#181818;stroke-width:1.0;" width="10" x="328.5" y="292.5859"/><line style="stroke:#181818;stroke-width:0.5;stroke-dasharray:5.0,5.0;" x1="52.5" x2="52.5" y1="138.8281" y2="340.9375"/><line style="stroke:#181818;stroke-width:0.5;stroke-dasharray:5.0,5.0;" x1="333.5" x2="333.5" y1="138.8281" y2="340.9375"/><text fill="#000000" font-family="sans-serif" font-size="14" lengthAdjust="spacing" textLength="30" x="34.5" y="118.1426">HRM</text><text fill="#000000" font-family="sans-serif" font-size="14" lengthAdjust="spacing" textLength="86" x="6.5" y="135.752">MS Employee</text><ellipse cx="52.5" cy="52.1094" fill="#E3E3E3" rx="8" ry="8" style="stroke:#181818;stroke-width:0.5;"/><path d="M52.5,60.1094 L52.5,87.1094 M39.5,68.1094 L65.5,68.1094 M52.5,87.1094 L39.5,102.1094 M52.5,87.1094 L65.5,102.1094 " fill="none" style="stroke:#181818;stroke-width:0.5;"/><text fill="#000000" font-family="sans-serif" font-size="14" lengthAdjust="spacing" textLength="30" x="34.5" y="354.4707">HRM</text><text fill="#000000" font-family="sans-serif" font-size="14" lengthAdjust="spacing" textLength="86" x="6.5" y="372.0801">MS Employee</text><ellipse cx="52.5" cy="383.6563" fill="#E3E3E3" rx="8" ry="8" style="stroke:#181818;stroke-width:0.5;"/><path d="M52.5,391.6563 L52.5,418.6563 M39.5,399.6563 L65.5,399.6563 M52.5,418.6563 L39.5,433.6563 M52.5,418.6563 L65.5,433.6563 " fill="none" style="stroke:#181818;stroke-width:0.5;"/><rect fill="#E3E3E3" height="31.6094" rx="2.5" ry="2.5" style="stroke:#181818;stroke-width:0.5;" width="64" x="301.5" y="106.2188"/><text fill="#000000" font-family="sans-serif" font-size="14" lengthAdjust="spacing" textLength="50" x="308.5" y="127.752">:System</text><rect fill="#E3E3E3" height="31.6094" rx="2.5" ry="2.5" style="stroke:#181818;stroke-width:0.5;" width="64" x="301.5" y="339.9375"/><text fill="#000000" font-family="sans-serif" font-size="14" lengthAdjust="spacing" textLength="50" x="308.5" y="361.4707">:System</text><rect fill="#FFFFFF" height="183.1094" style="stroke:#181818;stroke-width:1.0;" width="10" x="47.5" y="148.8281"/><rect fill="#FFFFFF" height="30.3516" style="stroke:#181818;stroke-width:1.0;" width="10" x="328.5" y="171.1797"/><rect fill="#FFFFFF" height="30.3516" style="stroke:#181818;stroke-width:1.0;" width="10" x="328.5" y="231.8828"/><rect fill="#FFFFFF" height="30.3516" style="stroke:#181818;stroke-width:1.0;" width="10" x="328.5" y="292.5859"/><polygon fill="#181818" points="316.5,167.1797,326.5,171.1797,316.5,175.1797,320.5,171.1797" style="stroke:#181818;stroke-width:1.0;"/><line style="stroke:#181818;stroke-width:1.0;" x1="57.5" x2="322.5" y1="171.1797" y2="171.1797"/><text fill="#000000" font-family="sans-serif" font-size="13" font-weight="bold" lengthAdjust="spacing" textLength="7" x="64.5" y="166.3232">1</text><text fill="#000000" font-family="sans-serif" font-size="13" lengthAdjust="spacing" textLength="142" x="75.5" y="166.3232">asks to create a new job</text><polygon fill="#181818" points="68.5,197.5313,58.5,201.5313,68.5,205.5313,64.5,201.5313" style="stroke:#181818;stroke-width:1.0;"/><line style="stroke:#181818;stroke-width:1.0;stroke-dasharray:2.0,2.0;" x1="62.5" x2="332.5" y1="201.5313" y2="201.5313"/><text fill="#000000" font-family="sans-serif" font-size="13" font-weight="bold" lengthAdjust="spacing" textLength="7" x="74.5" y="196.6748">2</text><text fill="#000000" font-family="sans-serif" font-size="13" lengthAdjust="spacing" textLength="165" x="85.5" y="196.6748">requests job data (job name)</text><polygon fill="#181818" points="316.5,227.8828,326.5,231.8828,316.5,235.8828,320.5,231.8828" style="stroke:#181818;stroke-width:1.0;"/><line style="stroke:#181818;stroke-width:1.0;" x1="57.5" x2="322.5" y1="231.8828" y2="231.8828"/><text fill="#000000" font-family="sans-serif" font-size="13" font-weight="bold" lengthAdjust="spacing" textLength="7" x="64.5" y="227.0264">3</text><text fill="#000000" font-family="sans-serif" font-size="13" lengthAdjust="spacing" textLength="122" x="75.5" y="227.0264">types requested data</text><polygon fill="#181818" points="68.5,258.2344,58.5,262.2344,68.5,266.2344,64.5,262.2344" style="stroke:#181818;stroke-width:1.0;"/><line style="stroke:#181818;stroke-width:1.0;stroke-dasharray:2.0,2.0;" x1="62.5" x2="332.5" y1="262.2344" y2="262.2344"/><text fill="#000000" font-family="sans-serif" font-size="13" font-weight="bold" lengthAdjust="spacing" textLength="7" x="74.5" y="257.3779">4</text><text fill="#000000" font-family="sans-serif" font-size="13" lengthAdjust="spacing" textLength="236" x="85.5" y="257.3779">shows all data and requests confirmation</text><polygon fill="#181818" points="316.5,288.5859,326.5,292.5859,316.5,296.5859,320.5,292.5859" style="stroke:#181818;stroke-width:1.0;"/><line style="stroke:#181818;stroke-width:1.0;" x1="57.5" x2="322.5" y1="292.5859" y2="292.5859"/><text fill="#000000" font-family="sans-serif" font-size="13" font-weight="bold" lengthAdjust="spacing" textLength="7" x="64.5" y="287.7295">5</text><text fill="#000000" font-family="sans-serif" font-size="13" lengthAdjust="spacing" textLength="153" x="75.5" y="287.7295">confirms data and submits</text><polygon fill="#181818" points="68.5,318.9375,58.5,322.9375,68.5,326.9375,64.5,322.9375" style="stroke:#181818;stroke-width:1.0;"/><line style="stroke:#181818;stroke-width:1.0;stroke-dasharray:2.0,2.0;" x1="62.5" x2="332.5" y1="322.9375" y2="322.9375"/><text fill="#000000" font-family="sans-serif" font-size="13" font-weight="bold" lengthAdjust="spacing" textLength="7" x="74.5" y="318.0811">6</text><text fill="#000000" font-family="sans-serif" font-size="13" lengthAdjust="spacing" textLength="158" x="85.5" y="318.0811">displays operation success</text><!--SRC=[bP2nRiCm34HtVmMHAHdo0naA54Y1Ba61Ukt2o8oZHY9LaKxWlw_in761PcWrdQ2xnnFrv3bXnWXHMDmnIoImt56bzvU4xeGjrTO7WapEaDlmqw17REJYkOK31gMgCc_5MlTg5A6chuxO4MmzjeDzMTVR5QpXEHXbHlDdWZSkCUnCk8jxoaKxamoBr_VT1-zgU8afI4-q0DJxfIhZpJkVa0qMc-kyqN6L8yMVqMYEL9E2zTFKS5CY9mKJS9a6DmBJ1JvbFmCc8fHpYwqBuKxRbCsKVwhfa8C63M4vACP8gwgXNwI7HQnFf1EAcf7pdn9wb8i2Xd1jWDpClPpmmUTO5YxyvqAtaCuyxVRHc_wdLUCr1UmL954UvnUASwJweCSt]--></g></svg>