<?xml version="1.0" encoding="us-ascii" standalone="no"?><svg xmlns="http://www.w3.org/2000/svg" xmlns:xlink="http://www.w3.org/1999/xlink" contentStyleType="text/css" height="701px" preserveAspectRatio="none" style="width:388px;height:701px;background:#FFFFFF;" version="1.1" viewBox="0 0 388 701" width="388px" zoomAndPan="magnify"><defs/><g><!--class ListVehiclesNeedingCheckupUI--><g id="elem_ListVehiclesNeedingCheckupUI"><rect codeLine="11" fill="#F1F1F1" height="48" id="ListVehiclesNeedingCheckupUI" rx="2.5" ry="2.5" style="stroke:#181818;stroke-width:0.5;" width="227" x="98.5" y="7"/><ellipse cx="113.5" cy="23" fill="#ADD1B2" rx="11" ry="11" style="stroke:#181818;stroke-width:1.0;"/><path d="M116.2656,18.875 Q116.4219,18.6563 116.6094,18.5469 Q116.7969,18.4375 117.0156,18.4375 Q117.3906,18.4375 117.625,18.7031 Q117.8594,18.9531 117.8594,19.5625 L117.8594,21.0156 Q117.8594,21.625 117.625,21.8906 Q117.3906,22.1563 117.0156,22.1563 Q116.6719,22.1563 116.4688,21.9531 Q116.2656,21.7656 116.1563,21.25 Q116.1094,20.8906 115.9219,20.7031 Q115.5938,20.3281 114.9844,20.1094 Q114.375,19.8906 113.75,19.8906 Q112.9844,19.8906 112.3438,20.2188 Q111.7188,20.5469 111.2188,21.2969 Q110.7344,22.0469 110.7344,23.0781 L110.7344,24.1719 Q110.7344,25.4063 111.625,26.2344 Q112.5156,27.0469 114.1094,27.0469 Q115.0469,27.0469 115.7031,26.7969 Q116.0938,26.6406 116.5156,26.2031 Q116.7813,25.9375 116.9219,25.8594 Q117.0781,25.7813 117.2813,25.7813 Q117.6094,25.7813 117.8594,26.0469 Q118.125,26.2969 118.125,26.6406 Q118.125,26.9844 117.7813,27.3906 Q117.2813,27.9688 116.4844,28.2969 Q115.4063,28.75 114.1094,28.75 Q112.5938,28.75 111.3906,28.125 Q110.4063,27.625 109.7188,26.5625 Q109.0313,25.4844 109.0313,24.2031 L109.0313,23.0469 Q109.0313,21.7188 109.6406,20.5781 Q110.2656,19.4219 111.3594,18.8125 Q112.4531,18.1875 113.6875,18.1875 Q114.4219,18.1875 115.0625,18.3594 Q115.7188,18.5156 116.2656,18.875 Z " fill="#000000"/><text fill="#000000" font-family="sans-serif" font-size="14" lengthAdjust="spacing" textLength="195" x="127.5" y="28.7969">ListVehiclesNeedingCheckupUI</text><line style="stroke:#181818;stroke-width:0.5;" x1="99.5" x2="324.5" y1="39" y2="39"/><line style="stroke:#181818;stroke-width:0.5;" x1="99.5" x2="324.5" y1="47" y2="47"/></g><!--class ListVehiclesNeedingCheckupController--><g id="elem_ListVehiclesNeedingCheckupController"><rect codeLine="15" fill="#F1F1F1" height="66.6211" id="ListVehiclesNeedingCheckupController" rx="2.5" ry="2.5" style="stroke:#181818;stroke-width:0.5;" width="277" x="73.5" y="116"/><ellipse cx="88.5" cy="132" fill="#ADD1B2" rx="11" ry="11" style="stroke:#181818;stroke-width:1.0;"/><path d="M91.2656,127.875 Q91.4219,127.6563 91.6094,127.5469 Q91.7969,127.4375 92.0156,127.4375 Q92.3906,127.4375 92.625,127.7031 Q92.8594,127.9531 92.8594,128.5625 L92.8594,130.0156 Q92.8594,130.625 92.625,130.8906 Q92.3906,131.1563 92.0156,131.1563 Q91.6719,131.1563 91.4688,130.9531 Q91.2656,130.7656 91.1563,130.25 Q91.1094,129.8906 90.9219,129.7031 Q90.5938,129.3281 89.9844,129.1094 Q89.375,128.8906 88.75,128.8906 Q87.9844,128.8906 87.3438,129.2188 Q86.7188,129.5469 86.2188,130.2969 Q85.7344,131.0469 85.7344,132.0781 L85.7344,133.1719 Q85.7344,134.4063 86.625,135.2344 Q87.5156,136.0469 89.1094,136.0469 Q90.0469,136.0469 90.7031,135.7969 Q91.0938,135.6406 91.5156,135.2031 Q91.7813,134.9375 91.9219,134.8594 Q92.0781,134.7813 92.2813,134.7813 Q92.6094,134.7813 92.8594,135.0469 Q93.125,135.2969 93.125,135.6406 Q93.125,135.9844 92.7813,136.3906 Q92.2813,136.9688 91.4844,137.2969 Q90.4063,137.75 89.1094,137.75 Q87.5938,137.75 86.3906,137.125 Q85.4063,136.625 84.7188,135.5625 Q84.0313,134.4844 84.0313,133.2031 L84.0313,132.0469 Q84.0313,130.7188 84.6406,129.5781 Q85.2656,128.4219 86.3594,127.8125 Q87.4531,127.1875 88.6875,127.1875 Q89.4219,127.1875 90.0625,127.3594 Q90.7188,127.5156 91.2656,127.875 Z " fill="#000000"/><text fill="#000000" font-family="sans-serif" font-size="14" lengthAdjust="spacing" textLength="245" x="102.5" y="137.7969">ListVehiclesNeedingCheckupController</text><line style="stroke:#181818;stroke-width:0.5;" x1="74.5" x2="349.5" y1="148" y2="148"/><line style="stroke:#181818;stroke-width:0.5;" x1="74.5" x2="349.5" y1="156" y2="156"/><text fill="#000000" font-family="sans-serif" font-size="14" lengthAdjust="spacing" textLength="199" x="79.5" y="175.1074">+getVehiclesNeedingCheckup()</text></g><!--class Repositories--><g id="elem_Repositories"><rect codeLine="19" fill="#F1F1F1" height="103.8633" id="Repositories" rx="2.5" ry="2.5" style="stroke:#181818;stroke-width:0.5;" width="174" x="7" y="262"/><ellipse cx="50.35" cy="278" fill="#ADD1B2" rx="11" ry="11" style="stroke:#181818;stroke-width:1.0;"/><path d="M53.1156,273.875 Q53.2719,273.6563 53.4594,273.5469 Q53.6469,273.4375 53.8656,273.4375 Q54.2406,273.4375 54.475,273.7031 Q54.7094,273.9531 54.7094,274.5625 L54.7094,276.0156 Q54.7094,276.625 54.475,276.8906 Q54.2406,277.1563 53.8656,277.1563 Q53.5219,277.1563 53.3188,276.9531 Q53.1156,276.7656 53.0063,276.25 Q52.9594,275.8906 52.7719,275.7031 Q52.4438,275.3281 51.8344,275.1094 Q51.225,274.8906 50.6,274.8906 Q49.8344,274.8906 49.1938,275.2188 Q48.5688,275.5469 48.0688,276.2969 Q47.5844,277.0469 47.5844,278.0781 L47.5844,279.1719 Q47.5844,280.4063 48.475,281.2344 Q49.3656,282.0469 50.9594,282.0469 Q51.8969,282.0469 52.5531,281.7969 Q52.9438,281.6406 53.3656,281.2031 Q53.6313,280.9375 53.7719,280.8594 Q53.9281,280.7813 54.1313,280.7813 Q54.4594,280.7813 54.7094,281.0469 Q54.975,281.2969 54.975,281.6406 Q54.975,281.9844 54.6313,282.3906 Q54.1313,282.9688 53.3344,283.2969 Q52.2563,283.75 50.9594,283.75 Q49.4438,283.75 48.2406,283.125 Q47.2563,282.625 46.5688,281.5625 Q45.8813,280.4844 45.8813,279.2031 L45.8813,278.0469 Q45.8813,276.7188 46.4906,275.5781 Q47.1156,274.4219 48.2094,273.8125 Q49.3031,273.1875 50.5375,273.1875 Q51.2719,273.1875 51.9125,273.3594 Q52.5688,273.5156 53.1156,273.875 Z " fill="#000000"/><text fill="#000000" font-family="sans-serif" font-size="14" lengthAdjust="spacing" textLength="79" x="70.65" y="283.7969">Repositories</text><line style="stroke:#181818;stroke-width:0.5;" x1="8" x2="180" y1="294" y2="294"/><line style="stroke:#181818;stroke-width:0.5;" x1="8" x2="180" y1="302" y2="302"/><text fill="#000000" font-family="sans-serif" font-size="14" lengthAdjust="spacing" textLength="91" x="13" y="321.1074">+getInstance()</text><text fill="#000000" font-family="sans-serif" font-size="14" lengthAdjust="spacing" textLength="152" x="13" y="339.7285">+getVehicleRepository()</text><text fill="#000000" font-family="sans-serif" font-size="14" lengthAdjust="spacing" textLength="162" x="13" y="358.3496">+getCheckupRepository()</text></g><!--class VehicleRepository--><g id="elem_VehicleRepository"><rect codeLine="25" fill="#F1F1F1" height="122.4844" id="VehicleRepository" rx="2.5" ry="2.5" style="stroke:#181818;stroke-width:0.5;" width="208" x="147" y="427"/><ellipse cx="189.9" cy="443" fill="#ADD1B2" rx="11" ry="11" style="stroke:#181818;stroke-width:1.0;"/><path d="M192.6656,438.875 Q192.8219,438.6563 193.0094,438.5469 Q193.1969,438.4375 193.4156,438.4375 Q193.7906,438.4375 194.025,438.7031 Q194.2594,438.9531 194.2594,439.5625 L194.2594,441.0156 Q194.2594,441.625 194.025,441.8906 Q193.7906,442.1563 193.4156,442.1563 Q193.0719,442.1563 192.8688,441.9531 Q192.6656,441.7656 192.5563,441.25 Q192.5094,440.8906 192.3219,440.7031 Q191.9938,440.3281 191.3844,440.1094 Q190.775,439.8906 190.15,439.8906 Q189.3844,439.8906 188.7438,440.2188 Q188.1188,440.5469 187.6188,441.2969 Q187.1344,442.0469 187.1344,443.0781 L187.1344,444.1719 Q187.1344,445.4063 188.025,446.2344 Q188.9156,447.0469 190.5094,447.0469 Q191.4469,447.0469 192.1031,446.7969 Q192.4938,446.6406 192.9156,446.2031 Q193.1813,445.9375 193.3219,445.8594 Q193.4781,445.7813 193.6813,445.7813 Q194.0094,445.7813 194.2594,446.0469 Q194.525,446.2969 194.525,446.6406 Q194.525,446.9844 194.1813,447.3906 Q193.6813,447.9688 192.8844,448.2969 Q191.8063,448.75 190.5094,448.75 Q188.9938,448.75 187.7906,448.125 Q186.8063,447.625 186.1188,446.5625 Q185.4313,445.4844 185.4313,444.2031 L185.4313,443.0469 Q185.4313,441.7188 186.0406,440.5781 Q186.6656,439.4219 187.7594,438.8125 Q188.8531,438.1875 190.0875,438.1875 Q190.8219,438.1875 191.4625,438.3594 Q192.1188,438.5156 192.6656,438.875 Z " fill="#000000"/><text fill="#000000" font-family="sans-serif" font-size="14" lengthAdjust="spacing" textLength="114" x="210.1" y="448.7969">VehicleRepository</text><line style="stroke:#181818;stroke-width:0.5;" x1="148" x2="354" y1="459" y2="459"/><line style="stroke:#181818;stroke-width:0.5;" x1="148" x2="354" y1="467" y2="467"/><text fill="#000000" font-family="sans-serif" font-size="14" lengthAdjust="spacing" textLength="196" x="153" y="486.1074">-getVehiclesNeedingCheckup()</text><text fill="#000000" font-family="sans-serif" font-size="14" lengthAdjust="spacing" textLength="88" x="153" y="504.7285">-getVehicles()</text><text fill="#000000" font-family="sans-serif" font-size="14" lengthAdjust="spacing" textLength="110" x="153" y="523.3496">-needsCheckup()</text><text fill="#000000" font-family="sans-serif" font-size="14" lengthAdjust="spacing" textLength="179" x="153" y="541.9707">-addVehicle(Vehicle vehicle)</text></g><!--class CheckupRepository--><g id="elem_CheckupRepository"><rect codeLine="32" fill="#F1F1F1" height="66.6211" id="CheckupRepository" rx="2.5" ry="2.5" style="stroke:#181818;stroke-width:0.5;" width="204" x="21" y="628"/><ellipse cx="57.6" cy="644" fill="#ADD1B2" rx="11" ry="11" style="stroke:#181818;stroke-width:1.0;"/><path d="M60.3656,639.875 Q60.5219,639.6563 60.7094,639.5469 Q60.8969,639.4375 61.1156,639.4375 Q61.4906,639.4375 61.725,639.7031 Q61.9594,639.9531 61.9594,640.5625 L61.9594,642.0156 Q61.9594,642.625 61.725,642.8906 Q61.4906,643.1563 61.1156,643.1563 Q60.7719,643.1563 60.5688,642.9531 Q60.3656,642.7656 60.2563,642.25 Q60.2094,641.8906 60.0219,641.7031 Q59.6938,641.3281 59.0844,641.1094 Q58.475,640.8906 57.85,640.8906 Q57.0844,640.8906 56.4438,641.2188 Q55.8188,641.5469 55.3188,642.2969 Q54.8344,643.0469 54.8344,644.0781 L54.8344,645.1719 Q54.8344,646.4063 55.725,647.2344 Q56.6156,648.0469 58.2094,648.0469 Q59.1469,648.0469 59.8031,647.7969 Q60.1938,647.6406 60.6156,647.2031 Q60.8813,646.9375 61.0219,646.8594 Q61.1781,646.7813 61.3813,646.7813 Q61.7094,646.7813 61.9594,647.0469 Q62.225,647.2969 62.225,647.6406 Q62.225,647.9844 61.8813,648.3906 Q61.3813,648.9688 60.5844,649.2969 Q59.5063,649.75 58.2094,649.75 Q56.6938,649.75 55.4906,649.125 Q54.5063,648.625 53.8188,647.5625 Q53.1313,646.4844 53.1313,645.2031 L53.1313,644.0469 Q53.1313,642.7188 53.7406,641.5781 Q54.3656,640.4219 55.4594,639.8125 Q56.5531,639.1875 57.7875,639.1875 Q58.5219,639.1875 59.1625,639.3594 Q59.8188,639.5156 60.3656,639.875 Z " fill="#000000"/><text fill="#000000" font-family="sans-serif" font-size="14" lengthAdjust="spacing" textLength="124" x="76.4" y="649.7969">CheckupRepository</text><line style="stroke:#181818;stroke-width:0.5;" x1="22" x2="224" y1="660" y2="660"/><line style="stroke:#181818;stroke-width:0.5;" x1="22" x2="224" y1="668" y2="668"/><text fill="#000000" font-family="sans-serif" font-size="14" lengthAdjust="spacing" textLength="192" x="27" y="687.1074">-getCheckups(Vehicle vehicle)</text></g><!--link ListVehiclesNeedingCheckupUI to ListVehiclesNeedingCheckupController--><g id="link_ListVehiclesNeedingCheckupUI_ListVehiclesNeedingCheckupController"><path codeLine="36" d="M212,55.02 C212,72.39 212,90.46 212,109.83 " fill="none" id="ListVehiclesNeedingCheckupUI-to-ListVehiclesNeedingCheckupController" style="stroke:#181818;stroke-width:1.0;stroke-dasharray:7.0,7.0;"/><polygon fill="#181818" points="212,115.83,216,106.83,212,110.83,208,106.83,212,115.83" style="stroke:#181818;stroke-width:1.0;"/></g><!--link ListVehiclesNeedingCheckupController to Repositories--><g id="link_ListVehiclesNeedingCheckupController_Repositories"><path codeLine="37" d="M188.12,183.38 C171.76,205.92 153.2451,231.4047 134.6151,257.0647 " fill="none" id="ListVehiclesNeedingCheckupController-to-Repositories" style="stroke:#181818;stroke-width:1.0;stroke-dasharray:7.0,7.0;"/><polygon fill="#181818" points="131.09,261.92,139.6145,256.9871,134.0276,257.8739,133.1408,252.287,131.09,261.92" style="stroke:#181818;stroke-width:1.0;"/><text fill="#000000" font-family="sans-serif" font-size="13" lengthAdjust="spacing" textLength="67" x="165" y="228.0283">repositories</text></g><!--link ListVehiclesNeedingCheckupController to VehicleRepository--><g id="link_ListVehiclesNeedingCheckupController_VehicleRepository"><path codeLine="38" d="M231.27,183.05 C250.75,215.96 278,262 278,262 C278,262 278,366 278,366 C278,366 272.5077,390.6342 265.7277,420.9942 " fill="none" id="ListVehiclesNeedingCheckupController-to-VehicleRepository" style="stroke:#181818;stroke-width:1.0;stroke-dasharray:7.0,7.0;"/><polygon fill="#181818" points="264.42,426.85,270.2854,418.9382,265.5098,421.9702,262.4777,417.1946,264.42,426.85" style="stroke:#181818;stroke-width:1.0;"/><text fill="#000000" font-family="sans-serif" font-size="13" lengthAdjust="spacing" textLength="101" x="279" y="319.5283">vehicleRepository</text></g><!--link VehicleRepository to CheckupRepository--><g id="link_VehicleRepository_CheckupRepository"><path codeLine="39" d="M205.87,549.46 C186.15,575.89 167.3878,601.0209 150.8778,623.1509 " fill="none" id="VehicleRepository-to-CheckupRepository" style="stroke:#181818;stroke-width:1.0;stroke-dasharray:7.0,7.0;"/><polygon fill="#181818" points="147.29,627.96,155.8778,623.1382,150.2798,623.9524,149.4657,618.3545,147.29,627.96" style="stroke:#181818;stroke-width:1.0;"/><text fill="#000000" font-family="sans-serif" font-size="13" lengthAdjust="spacing" textLength="111" x="185" y="594.0283">checkupRepository</text></g><!--link Repositories to VehicleRepository--><g id="link_Repositories_VehicleRepository"><path codeLine="40" d="M140.68,366.14 C158.13,385.25 174.0437,402.6997 192.1637,422.5397 " fill="none" id="Repositories-to-VehicleRepository" style="stroke:#181818;stroke-width:1.0;"/><polygon fill="#181818" points="196.21,426.97,193.0942,417.627,192.8381,423.2781,187.1871,423.022,196.21,426.97" style="stroke:#181818;stroke-width:1.0;"/><text fill="#000000" font-family="sans-serif" font-size="13" lengthAdjust="spacing" textLength="7" x="182.4702" y="415.9477">1</text></g><!--link Repositories to CheckupRepository--><g id="link_Repositories_CheckupRepository"><path codeLine="41" d="M98.31,366.35 C104.35,438.35 114.6679,561.251 119.7379,621.621 " fill="none" id="Repositories-to-CheckupRepository" style="stroke:#181818;stroke-width:1.0;"/><polygon fill="#181818" points="120.24,627.6,123.4728,618.2968,119.8216,622.6175,115.5008,618.9663,120.24,627.6" style="stroke:#181818;stroke-width:1.0;"/><text fill="#000000" font-family="sans-serif" font-size="13" lengthAdjust="spacing" textLength="7" x="112.0467" y="616.6097">1</text></g><!--link Repositories to Repositories--><g id="link_Repositories_Repositories"><path codeLine="42" d="M181.18,298.96 C201.26,300.26 216,305.27 216,314 C216,322.73 207.2475,327.3524 187.1675,328.6524 " fill="none" id="Repositories-to-Repositories" style="stroke:#181818;stroke-width:1.0;"/><polygon fill="#181818" points="181.18,329.04,190.4196,332.4502,186.1696,328.717,189.9028,324.4669,181.18,329.04" style="stroke:#181818;stroke-width:1.0;"/><text fill="#000000" font-family="sans-serif" font-size="13" lengthAdjust="spacing" textLength="49" x="222" y="319.5283">instance</text></g><!--SRC=[ZL8zJyCm4DtlLvooj0YrWhL39PIf4cAWWjquryIgwuliAoWW_Zk9I1itBgLUBD_xyFET9s5hNAsysk6E7UlAyuvG_9vWG6gbjwgajJIMq9CMvKeR4qAb2lumhiIDiY56h74aJKrOissw0qpEWEo58L9fgq9u4F7cRI-qqkpMvfFm3c1YQICeZDwKbM1XkZY67K3UQV3H17cbocXBuOceQ3Fb5UdjldvPuHV0z__4d9rujfPyAy1stPRq1tLwCnW-Kyt127j3OT2jN6YxfQbbZgoE_2R2UjyJx7X38kpppIxb6nCE9TSImuYcYgAdJViTtt_tA4KICKhHO-6i_E9evlFbLIE1g-RMkSNpm0LcFZfdrzkaJLySNZNK86LrshHL2zJZ6fm4dSsMcDrdwRNdQVa_RcaRJFyXCu0V]--></g></svg>