<?xml version="1.0" encoding="us-ascii" standalone="no"?><svg xmlns="http://www.w3.org/2000/svg" xmlns:xlink="http://www.w3.org/1999/xlink" contentStyleType="text/css" height="928px" preserveAspectRatio="none" style="width:671px;height:928px;background:#FFFFFF;" version="1.1" viewBox="0 0 671 928" width="671px" zoomAndPan="magnify"><defs/><g><text fill="#000000" font-family="sans-serif" font-size="14" font-weight="bold" lengthAdjust="spacing" textLength="284" x="195.5" y="30.1074">US020 - System Sequence Diagram (SSD)</text><rect fill="#FFFFFF" height="657.2383" style="stroke:#181818;stroke-width:1.0;" width="10" x="60" y="151.8633"/><rect fill="#FFFFFF" height="74.873" style="stroke:#181818;stroke-width:1.0;" width="10" x="381" y="175.1543"/><rect fill="#FFFFFF" height="220.4551" style="stroke:#181818;stroke-width:1.0;" width="10" x="381" y="281.3184"/><rect fill="#FFFFFF" height="169.1641" style="stroke:#181818;stroke-width:1.0;" width="10" x="381" y="533.0645"/><rect fill="#FFFFFF" height="75.582" style="stroke:#181818;stroke-width:1.0;" width="10" x="381" y="733.5195"/><rect fill="none" height="168.4551" style="stroke:#000000;stroke-width:1.5;" width="519" x="10" y="190.1543"/><rect fill="none" height="168.4551" style="stroke:#000000;stroke-width:1.5;" width="526" x="10" y="441.9004"/><line style="stroke:#181818;stroke-width:0.5;stroke-dasharray:5.0,5.0;" x1="65" x2="65" y1="141.8633" y2="827.1016"/><line style="stroke:#181818;stroke-width:0.5;stroke-dasharray:5.0,5.0;" x1="385.5" x2="385.5" y1="141.8633" y2="827.1016"/><text fill="#000000" font-family="sans-serif" font-size="14" lengthAdjust="spacing" textLength="84" x="20" y="119.7285">Green Space</text><text fill="#000000" font-family="sans-serif" font-size="14" lengthAdjust="spacing" textLength="56" x="34" y="138.3496">Manager</text><ellipse cx="65" cy="53.1211" fill="#E3E3E3" rx="8" ry="8" style="stroke:#181818;stroke-width:0.5;"/><path d="M65,61.1211 L65,88.1211 M52,69.1211 L78,69.1211 M65,88.1211 L52,103.1211 M65,88.1211 L78,103.1211 " fill="none" style="stroke:#181818;stroke-width:0.5;"/><text fill="#000000" font-family="sans-serif" font-size="14" lengthAdjust="spacing" textLength="84" x="20" y="841.209">Green Space</text><text fill="#000000" font-family="sans-serif" font-size="14" lengthAdjust="spacing" textLength="56" x="34" y="859.8301">Manager</text><ellipse cx="65" cy="871.8438" fill="#E3E3E3" rx="8" ry="8" style="stroke:#181818;stroke-width:0.5;"/><path d="M65,879.8438 L65,906.8438 M52,887.8438 L78,887.8438 M65,906.8438 L52,921.8438 M65,906.8438 L78,921.8438 " fill="none" style="stroke:#181818;stroke-width:0.5;"/><rect fill="#E3E3E3" height="32.6211" rx="2.5" ry="2.5" style="stroke:#181818;stroke-width:0.5;" width="163" x="304.5" y="108.2422"/><text fill="#000000" font-family="sans-serif" font-size="14" lengthAdjust="spacing" textLength="149" x="311.5" y="130.3496">:RegisterGreenSpaceUI</text><rect fill="#E3E3E3" height="32.6211" rx="2.5" ry="2.5" style="stroke:#181818;stroke-width:0.5;" width="163" x="304.5" y="826.1016"/><text fill="#000000" font-family="sans-serif" font-size="14" lengthAdjust="spacing" textLength="149" x="311.5" y="848.209">:RegisterGreenSpaceUI</text><rect fill="#FFFFFF" height="657.2383" style="stroke:#181818;stroke-width:1.0;" width="10" x="60" y="151.8633"/><rect fill="#FFFFFF" height="74.873" style="stroke:#181818;stroke-width:1.0;" width="10" x="381" y="175.1543"/><rect fill="#FFFFFF" height="220.4551" style="stroke:#181818;stroke-width:1.0;" width="10" x="381" y="281.3184"/><rect fill="#FFFFFF" height="169.1641" style="stroke:#181818;stroke-width:1.0;" width="10" x="381" y="533.0645"/><rect fill="#FFFFFF" height="75.582" style="stroke:#181818;stroke-width:1.0;" width="10" x="381" y="733.5195"/><polygon fill="#181818" points="369,171.1543,379,175.1543,369,179.1543,373,175.1543" style="stroke:#181818;stroke-width:1.0;"/><line style="stroke:#181818;stroke-width:1.0;" x1="70" x2="375" y1="175.1543" y2="175.1543"/><text fill="#000000" font-family="sans-serif" font-size="13" font-weight="bold" lengthAdjust="spacing" textLength="7" x="77" y="169.8916">1</text><text fill="#000000" font-family="sans-serif" font-size="13" lengthAdjust="spacing" textLength="201" x="88" y="169.8916">asks to create a new Green Space</text><path d="M10,190.1543 L83,190.1543 L83,199.4453 L73,209.4453 L10,209.4453 L10,190.1543 " fill="#EEEEEE" style="stroke:#000000;stroke-width:1.5;"/><rect fill="none" height="168.4551" style="stroke:#000000;stroke-width:1.5;" width="519" x="10" y="190.1543"/><text fill="#000000" font-family="sans-serif" font-size="13" font-weight="bold" lengthAdjust="spacing" textLength="28" x="25" y="205.1826">loop</text><text fill="#000000" font-family="sans-serif" font-size="11" font-weight="bold" lengthAdjust="spacing" textLength="189" x="98" y="204.0244">[until doesn't select a valid option]</text><polygon fill="#181818" points="81,246.0273,71,250.0273,81,254.0273,77,250.0273" style="stroke:#181818;stroke-width:1.0;"/><line style="stroke:#181818;stroke-width:1.0;stroke-dasharray:2.0,2.0;" x1="75" x2="385" y1="250.0273" y2="250.0273"/><text fill="#000000" font-family="sans-serif" font-size="13" font-weight="bold" lengthAdjust="spacing" textLength="7" x="87" y="236.1191">2</text><text fill="#000000" font-family="sans-serif" font-size="13" lengthAdjust="spacing" textLength="276" x="98" y="227.4736">Displays the types of green spaces and asks to</text><text fill="#000000" font-family="sans-serif" font-size="13" lengthAdjust="spacing" textLength="201" x="98" y="244.7646">select one (garden, medium, large)</text><polygon fill="#181818" points="369,277.3184,379,281.3184,369,285.3184,373,281.3184" style="stroke:#181818;stroke-width:1.0;"/><line style="stroke:#181818;stroke-width:1.0;" x1="70" x2="375" y1="281.3184" y2="281.3184"/><text fill="#000000" font-family="sans-serif" font-size="13" font-weight="bold" lengthAdjust="spacing" textLength="7" x="77" y="276.0557">3</text><text fill="#000000" font-family="sans-serif" font-size="13" lengthAdjust="spacing" textLength="160" x="88" y="276.0557">selects type of green space</text><line style="stroke:#181818;stroke-width:1.0;stroke-dasharray:2.0,2.0;" x1="391" x2="433" y1="312.6094" y2="312.6094"/><line style="stroke:#181818;stroke-width:1.0;stroke-dasharray:2.0,2.0;" x1="433" x2="433" y1="312.6094" y2="325.6094"/><line style="stroke:#181818;stroke-width:1.0;stroke-dasharray:2.0,2.0;" x1="392" x2="433" y1="325.6094" y2="325.6094"/><polygon fill="#181818" points="402,321.6094,392,325.6094,402,329.6094,398,325.6094" style="stroke:#181818;stroke-width:1.0;"/><text fill="#000000" font-family="sans-serif" font-size="13" font-weight="bold" lengthAdjust="spacing" textLength="7" x="398" y="307.3467">4</text><text fill="#000000" font-family="sans-serif" font-size="13" lengthAdjust="spacing" textLength="108" x="409" y="307.3467">validates Selection</text><line style="stroke:#181818;stroke-width:1.0;stroke-dasharray:2.0,2.0;" x1="391" x2="433" y1="413.9004" y2="413.9004"/><line style="stroke:#181818;stroke-width:1.0;stroke-dasharray:2.0,2.0;" x1="433" x2="433" y1="413.9004" y2="426.9004"/><line style="stroke:#181818;stroke-width:1.0;stroke-dasharray:2.0,2.0;" x1="392" x2="433" y1="426.9004" y2="426.9004"/><polygon fill="#181818" points="402,422.9004,392,426.9004,402,430.9004,398,426.9004" style="stroke:#181818;stroke-width:1.0;"/><text fill="#000000" font-family="sans-serif" font-size="13" font-weight="bold" lengthAdjust="spacing" textLength="7" x="398" y="408.6377">5</text><text fill="#000000" font-family="sans-serif" font-size="13" lengthAdjust="spacing" textLength="88" x="409" y="408.6377">keepData(type)</text><path d="M10,441.9004 L83,441.9004 L83,451.1914 L73,461.1914 L10,461.1914 L10,441.9004 " fill="#EEEEEE" style="stroke:#000000;stroke-width:1.5;"/><rect fill="none" height="168.4551" style="stroke:#000000;stroke-width:1.5;" width="526" x="10" y="441.9004"/><text fill="#000000" font-family="sans-serif" font-size="13" font-weight="bold" lengthAdjust="spacing" textLength="28" x="25" y="456.9287">loop</text><text fill="#000000" font-family="sans-serif" font-size="11" font-weight="bold" lengthAdjust="spacing" textLength="157" x="98" y="455.7705">[until typed data is validated]</text><polygon fill="#181818" points="81,497.7734,71,501.7734,81,505.7734,77,501.7734" style="stroke:#181818;stroke-width:1.0;"/><line style="stroke:#181818;stroke-width:1.0;stroke-dasharray:2.0,2.0;" x1="75" x2="385" y1="501.7734" y2="501.7734"/><text fill="#000000" font-family="sans-serif" font-size="13" font-weight="bold" lengthAdjust="spacing" textLength="7" x="87" y="487.8652">6</text><text fill="#000000" font-family="sans-serif" font-size="13" lengthAdjust="spacing" textLength="197" x="98" y="479.2197">requests data (name, area, street,</text><text fill="#000000" font-family="sans-serif" font-size="13" lengthAdjust="spacing" textLength="231" x="102" y="496.5107">streetNumber, postalCode, city, district)</text><polygon fill="#181818" points="369,529.0645,379,533.0645,369,537.0645,373,533.0645" style="stroke:#181818;stroke-width:1.0;"/><line style="stroke:#181818;stroke-width:1.0;" x1="70" x2="375" y1="533.0645" y2="533.0645"/><text fill="#000000" font-family="sans-serif" font-size="13" font-weight="bold" lengthAdjust="spacing" textLength="7" x="77" y="527.8018">7</text><text fill="#000000" font-family="sans-serif" font-size="13" lengthAdjust="spacing" textLength="122" x="88" y="527.8018">types requested data</text><line style="stroke:#181818;stroke-width:1.0;stroke-dasharray:2.0,2.0;" x1="391" x2="433" y1="564.3555" y2="564.3555"/><line style="stroke:#181818;stroke-width:1.0;stroke-dasharray:2.0,2.0;" x1="433" x2="433" y1="564.3555" y2="577.3555"/><line style="stroke:#181818;stroke-width:1.0;stroke-dasharray:2.0,2.0;" x1="392" x2="433" y1="577.3555" y2="577.3555"/><polygon fill="#181818" points="402,573.3555,392,577.3555,402,581.3555,398,577.3555" style="stroke:#181818;stroke-width:1.0;"/><text fill="#000000" font-family="sans-serif" font-size="13" font-weight="bold" lengthAdjust="spacing" textLength="7" x="398" y="559.0928">8</text><text fill="#000000" font-family="sans-serif" font-size="13" lengthAdjust="spacing" textLength="115" x="409" y="559.0928">Validates input data</text><line style="stroke:#181818;stroke-width:1.0;stroke-dasharray:2.0,2.0;" x1="391" x2="433" y1="657.9375" y2="657.9375"/><line style="stroke:#181818;stroke-width:1.0;stroke-dasharray:2.0,2.0;" x1="433" x2="433" y1="657.9375" y2="670.9375"/><line style="stroke:#181818;stroke-width:1.0;stroke-dasharray:2.0,2.0;" x1="392" x2="433" y1="670.9375" y2="670.9375"/><polygon fill="#181818" points="402,666.9375,392,670.9375,402,674.9375,398,670.9375" style="stroke:#181818;stroke-width:1.0;"/><text fill="#000000" font-family="sans-serif" font-size="13" font-weight="bold" lengthAdjust="spacing" textLength="7" x="398" y="644.0293">9</text><text fill="#000000" font-family="sans-serif" font-size="13" lengthAdjust="spacing" textLength="255" x="409" y="635.3838">keepData(name, area, street, streetNumber,</text><text fill="#000000" font-family="sans-serif" font-size="13" lengthAdjust="spacing" textLength="145" x="477" y="652.6748">postalCode, city, district)</text><polygon fill="#181818" points="81,698.2285,71,702.2285,81,706.2285,77,702.2285" style="stroke:#181818;stroke-width:1.0;"/><line style="stroke:#181818;stroke-width:1.0;stroke-dasharray:2.0,2.0;" x1="75" x2="385" y1="702.2285" y2="702.2285"/><text fill="#000000" font-family="sans-serif" font-size="13" font-weight="bold" lengthAdjust="spacing" textLength="14" x="87" y="696.9658">10</text><text fill="#000000" font-family="sans-serif" font-size="13" lengthAdjust="spacing" textLength="236" x="105" y="696.9658">shows all data and requests confirmation</text><polygon fill="#181818" points="369,729.5195,379,733.5195,369,737.5195,373,733.5195" style="stroke:#181818;stroke-width:1.0;"/><line style="stroke:#181818;stroke-width:1.0;" x1="70" x2="375" y1="733.5195" y2="733.5195"/><text fill="#000000" font-family="sans-serif" font-size="13" font-weight="bold" lengthAdjust="spacing" textLength="14" x="77" y="728.2568">11</text><text fill="#000000" font-family="sans-serif" font-size="13" lengthAdjust="spacing" textLength="78" x="95" y="728.2568">confirms data</text><line style="stroke:#181818;stroke-width:1.0;stroke-dasharray:2.0,2.0;" x1="391" x2="433" y1="764.8105" y2="764.8105"/><line style="stroke:#181818;stroke-width:1.0;stroke-dasharray:2.0,2.0;" x1="433" x2="433" y1="764.8105" y2="777.8105"/><line style="stroke:#181818;stroke-width:1.0;stroke-dasharray:2.0,2.0;" x1="392" x2="433" y1="777.8105" y2="777.8105"/><polygon fill="#181818" points="402,773.8105,392,777.8105,402,781.8105,398,777.8105" style="stroke:#181818;stroke-width:1.0;"/><text fill="#000000" font-family="sans-serif" font-size="13" font-weight="bold" lengthAdjust="spacing" textLength="14" x="398" y="759.5479">12</text><text fill="#000000" font-family="sans-serif" font-size="13" lengthAdjust="spacing" textLength="130" x="416" y="759.5479">Save new green space</text><polygon fill="#181818" points="76,805.1016,66,809.1016,76,813.1016,72,809.1016" style="stroke:#181818;stroke-width:1.0;"/><line style="stroke:#181818;stroke-width:1.0;stroke-dasharray:2.0,2.0;" x1="70" x2="385" y1="809.1016" y2="809.1016"/><text fill="#000000" font-family="sans-serif" font-size="13" font-weight="bold" lengthAdjust="spacing" textLength="14" x="82" y="803.8389">13</text><text fill="#000000" font-family="sans-serif" font-size="13" lengthAdjust="spacing" textLength="158" x="100" y="803.8389">displays operation success</text><!--SRC=[ZLHDZzem4BtdLuoub9M2jEgHGoz5Md7O7XhH4vUfFGGBnquz3WY97z-n4r8seB8v6VlDl0-FuODnBGPieF7Egttm3K4C7HKydhIe3bXJ5S-M892Aw6fx2-0zQdyoheOTMgQYY2OAT5EzVds51LHdZjH0HNywSefWPR1EPVEgMhqK1NRHkwxvJK7MAle0ixT0vA0IOjgwTtJ27cQ036_LUo6SqIZJeeimM_wasaZxa4jonMQTePjrRcUE62dN5I2VB63nJGvXAQ03G_IW0YKCWgCJt53dWh55wfSshFSjT2uQ2zeJkoyHcAoa8WsEQ8q6tqRZNI4S2w5AZ4lnpAt5i_3j9TzpImn-1tKcuqJ6W4vV9MtTqD8xWdcDGPCheI5jkgO4Yw6cbon6qvs-MuTz5yw44xuxS-dt87cpNlPMv8ZbtbAJv0WUV9VBvU4-EVqKFzA9r0DHkyA8ywHLfgAuoJbjQH0r28P7PNhQfqywf35ZCPtnSuSDbO1onILm5F-ntBfXzIDFNGcjvuZskzU2L2QUIz0oKy6e-AcK- -iSU0UXnRDyVutvoYlgObzq3KZ2otFs_wGUMFjeJ8nElsTMx-BalJ_9R5hRvvc6T4nOURSpeS5nE9u4DU3vdzbfGCNKR8L7ok_oTdGVAzNN9-PR2baJSAVaPV68_wXlifF-8_u2]--></g></svg>