<?xml version="1.0" encoding="us-ascii" standalone="no"?><svg xmlns="http://www.w3.org/2000/svg" xmlns:xlink="http://www.w3.org/1999/xlink" contentStyleType="text/css" height="632px" preserveAspectRatio="none" style="width:607px;height:632px;background:#FFFFFF;" version="1.1" viewBox="0 0 607 632" width="607px" zoomAndPan="magnify"><defs/><g><text fill="#000000" font-family="sans-serif" font-size="14" font-weight="bold" lengthAdjust="spacing" textLength="284" x="163.5" y="30.1074">US020 - System Sequence Diagram (SSD)</text><rect fill="#FFFFFF" height="361.2012" style="stroke:#181818;stroke-width:1.0;" width="10" x="60" y="151.8633"/><rect fill="#FFFFFF" height="74.873" style="stroke:#181818;stroke-width:1.0;" width="10" x="341" y="175.1543"/><rect fill="#FFFFFF" height="169.1641" style="stroke:#181818;stroke-width:1.0;" width="10" x="341" y="281.3184"/><rect fill="#FFFFFF" height="40.291" style="stroke:#181818;stroke-width:1.0;" width="10" x="341" y="481.7734"/><rect fill="none" height="168.4551" style="stroke:#000000;stroke-width:1.5;" width="486" x="10" y="190.1543"/><line style="stroke:#181818;stroke-width:0.5;stroke-dasharray:5.0,5.0;" x1="65" x2="65" y1="141.8633" y2="531.0645"/><line style="stroke:#181818;stroke-width:0.5;stroke-dasharray:5.0,5.0;" x1="345.5" x2="345.5" y1="141.8633" y2="531.0645"/><text fill="#000000" font-family="sans-serif" font-size="14" lengthAdjust="spacing" textLength="84" x="20" y="119.7285">Green Space</text><text fill="#000000" font-family="sans-serif" font-size="14" lengthAdjust="spacing" textLength="56" x="34" y="138.3496">Manager</text><ellipse cx="65" cy="53.1211" fill="#E3E3E3" rx="8" ry="8" style="stroke:#181818;stroke-width:0.5;"/><path d="M65,61.1211 L65,88.1211 M52,69.1211 L78,69.1211 M65,88.1211 L52,103.1211 M65,88.1211 L78,103.1211 " fill="none" style="stroke:#181818;stroke-width:0.5;"/><text fill="#000000" font-family="sans-serif" font-size="14" lengthAdjust="spacing" textLength="84" x="20" y="545.1719">Green Space</text><text fill="#000000" font-family="sans-serif" font-size="14" lengthAdjust="spacing" textLength="56" x="34" y="563.793">Manager</text><ellipse cx="65" cy="575.8066" fill="#E3E3E3" rx="8" ry="8" style="stroke:#181818;stroke-width:0.5;"/><path d="M65,583.8066 L65,610.8066 M52,591.8066 L78,591.8066 M65,610.8066 L52,625.8066 M65,610.8066 L78,625.8066 " fill="none" style="stroke:#181818;stroke-width:0.5;"/><rect fill="#E3E3E3" height="32.6211" rx="2.5" ry="2.5" style="stroke:#181818;stroke-width:0.5;" width="163" x="264.5" y="108.2422"/><text fill="#000000" font-family="sans-serif" font-size="14" lengthAdjust="spacing" textLength="149" x="271.5" y="130.3496">:RegisterGreenSpaceUI</text><rect fill="#E3E3E3" height="32.6211" rx="2.5" ry="2.5" style="stroke:#181818;stroke-width:0.5;" width="163" x="264.5" y="530.0645"/><text fill="#000000" font-family="sans-serif" font-size="14" lengthAdjust="spacing" textLength="149" x="271.5" y="552.1719">:RegisterGreenSpaceUI</text><rect fill="#FFFFFF" height="361.2012" style="stroke:#181818;stroke-width:1.0;" width="10" x="60" y="151.8633"/><rect fill="#FFFFFF" height="74.873" style="stroke:#181818;stroke-width:1.0;" width="10" x="341" y="175.1543"/><rect fill="#FFFFFF" height="169.1641" style="stroke:#181818;stroke-width:1.0;" width="10" x="341" y="281.3184"/><rect fill="#FFFFFF" height="40.291" style="stroke:#181818;stroke-width:1.0;" width="10" x="341" y="481.7734"/><polygon fill="#181818" points="329,171.1543,339,175.1543,329,179.1543,333,175.1543" style="stroke:#181818;stroke-width:1.0;"/><line style="stroke:#181818;stroke-width:1.0;" x1="70" x2="335" y1="175.1543" y2="175.1543"/><text fill="#000000" font-family="sans-serif" font-size="13" font-weight="bold" lengthAdjust="spacing" textLength="7" x="77" y="169.8916">1</text><text fill="#000000" font-family="sans-serif" font-size="13" lengthAdjust="spacing" textLength="201" x="88" y="169.8916">asks to create a new Green Space</text><path d="M10,190.1543 L83,190.1543 L83,199.4453 L73,209.4453 L10,209.4453 L10,190.1543 " fill="#EEEEEE" style="stroke:#000000;stroke-width:1.5;"/><rect fill="none" height="168.4551" style="stroke:#000000;stroke-width:1.5;" width="486" x="10" y="190.1543"/><text fill="#000000" font-family="sans-serif" font-size="13" font-weight="bold" lengthAdjust="spacing" textLength="28" x="25" y="205.1826">loop</text><text fill="#000000" font-family="sans-serif" font-size="11" font-weight="bold" lengthAdjust="spacing" textLength="157" x="98" y="204.0244">[until typed data is validated]</text><polygon fill="#181818" points="81,246.0273,71,250.0273,81,254.0273,77,250.0273" style="stroke:#181818;stroke-width:1.0;"/><line style="stroke:#181818;stroke-width:1.0;stroke-dasharray:2.0,2.0;" x1="75" x2="345" y1="250.0273" y2="250.0273"/><text fill="#000000" font-family="sans-serif" font-size="13" font-weight="bold" lengthAdjust="spacing" textLength="7" x="87" y="236.1191">2</text><text fill="#000000" font-family="sans-serif" font-size="13" lengthAdjust="spacing" textLength="230" x="98" y="227.4736">requests data (name, type, area, street,</text><text fill="#000000" font-family="sans-serif" font-size="13" lengthAdjust="spacing" textLength="231" x="102" y="244.7646">streetNumber, postalCode, city, district)</text><polygon fill="#181818" points="329,277.3184,339,281.3184,329,285.3184,333,281.3184" style="stroke:#181818;stroke-width:1.0;"/><line style="stroke:#181818;stroke-width:1.0;" x1="70" x2="335" y1="281.3184" y2="281.3184"/><text fill="#000000" font-family="sans-serif" font-size="13" font-weight="bold" lengthAdjust="spacing" textLength="7" x="77" y="276.0557">3</text><text fill="#000000" font-family="sans-serif" font-size="13" lengthAdjust="spacing" textLength="122" x="88" y="276.0557">types requested data</text><line style="stroke:#181818;stroke-width:1.0;stroke-dasharray:2.0,2.0;" x1="351" x2="393" y1="312.6094" y2="312.6094"/><line style="stroke:#181818;stroke-width:1.0;stroke-dasharray:2.0,2.0;" x1="393" x2="393" y1="312.6094" y2="325.6094"/><line style="stroke:#181818;stroke-width:1.0;stroke-dasharray:2.0,2.0;" x1="352" x2="393" y1="325.6094" y2="325.6094"/><polygon fill="#181818" points="362,321.6094,352,325.6094,362,329.6094,358,325.6094" style="stroke:#181818;stroke-width:1.0;"/><text fill="#000000" font-family="sans-serif" font-size="13" font-weight="bold" lengthAdjust="spacing" textLength="7" x="358" y="307.3467">4</text><text fill="#000000" font-family="sans-serif" font-size="13" lengthAdjust="spacing" textLength="115" x="369" y="307.3467">Validates input data</text><line style="stroke:#181818;stroke-width:1.0;stroke-dasharray:2.0,2.0;" x1="351" x2="393" y1="406.1914" y2="406.1914"/><line style="stroke:#181818;stroke-width:1.0;stroke-dasharray:2.0,2.0;" x1="393" x2="393" y1="406.1914" y2="419.1914"/><line style="stroke:#181818;stroke-width:1.0;stroke-dasharray:2.0,2.0;" x1="352" x2="393" y1="419.1914" y2="419.1914"/><polygon fill="#181818" points="362,415.1914,352,419.1914,362,423.1914,358,419.1914" style="stroke:#181818;stroke-width:1.0;"/><text fill="#000000" font-family="sans-serif" font-size="13" font-weight="bold" lengthAdjust="spacing" textLength="7" x="358" y="392.2832">5</text><text fill="#000000" font-family="sans-serif" font-size="13" lengthAdjust="spacing" textLength="202" x="369" y="383.6377">keepData(name, type, area, street,</text><text fill="#000000" font-family="sans-serif" font-size="13" lengthAdjust="spacing" textLength="227" x="373" y="400.9287">streetNumber,postalCode, city, district)</text><polygon fill="#181818" points="81,446.4824,71,450.4824,81,454.4824,77,450.4824" style="stroke:#181818;stroke-width:1.0;"/><line style="stroke:#181818;stroke-width:1.0;stroke-dasharray:2.0,2.0;" x1="75" x2="345" y1="450.4824" y2="450.4824"/><text fill="#000000" font-family="sans-serif" font-size="13" font-weight="bold" lengthAdjust="spacing" textLength="7" x="87" y="445.2197">6</text><text fill="#000000" font-family="sans-serif" font-size="13" lengthAdjust="spacing" textLength="236" x="98" y="445.2197">shows all data and requests confirmation</text><polygon fill="#181818" points="329,477.7734,339,481.7734,329,485.7734,333,481.7734" style="stroke:#181818;stroke-width:1.0;"/><line style="stroke:#181818;stroke-width:1.0;" x1="70" x2="335" y1="481.7734" y2="481.7734"/><text fill="#000000" font-family="sans-serif" font-size="13" font-weight="bold" lengthAdjust="spacing" textLength="7" x="77" y="476.5107">7</text><text fill="#000000" font-family="sans-serif" font-size="13" lengthAdjust="spacing" textLength="78" x="88" y="476.5107">confirms data</text><polygon fill="#181818" points="76,509.0645,66,513.0645,76,517.0645,72,513.0645" style="stroke:#181818;stroke-width:1.0;"/><line style="stroke:#181818;stroke-width:1.0;stroke-dasharray:2.0,2.0;" x1="70" x2="340" y1="513.0645" y2="513.0645"/><text fill="#000000" font-family="sans-serif" font-size="13" font-weight="bold" lengthAdjust="spacing" textLength="7" x="82" y="507.8018">8</text><text fill="#000000" font-family="sans-serif" font-size="13" lengthAdjust="spacing" textLength="158" x="93" y="507.8018">displays operation success</text><!--SRC=[ZP8nRo8n48Lx_ueHLP0MAKf9aUQG8egak1MfQEQyayN2Q_iyiq4hyUCpDXp7GN5nPSdlpJVlxVBUXOGP1nXYY7QNuq0WUIJ3bvU4TeyzjJ9vWanMCFJ-Mi0xxEB1XHu-q3CP8qvKkcaVdnvX0Ut4GWEqz7kaO0bM3ljYUsZRrTmO72M6SVX5MUzMOeRPIoOAq2gOjk4LWzBp393XfNqroXHdNS8WC5l-fDxf-5mjrR5PL-bcNSUvJnIgFWDwz0ABPts4fOhs31B1PYeQX407k49NmsL4cMUCZp716CHva2bH1nqAWcFuHE_qJbrrbQECXQ8ASQcrQNWMFkaV0WxKr0aDeE8RO56mDDjmlhtLHXf8aGNzZzYfqZgP6kWqRtPMvfNKqJyRtcOi2Fv3Fwzhxe9ThRjPB-7zd8L1l_0e9rFH78z7Gw63qi9jpehR4wMLghyVy7_vxfhaNJmmeFUdAb7NkPHhO_XmUK1nCNoddREU_oQyaz_nTRtaSMA8YN8b0O_M4lCjiVnqNm00]--></g></svg>