<?xml version="1.0" encoding="us-ascii" standalone="no"?><svg xmlns="http://www.w3.org/2000/svg" xmlns:xlink="http://www.w3.org/1999/xlink" contentStyleType="text/css" height="687px" preserveAspectRatio="none" style="width:594px;height:687px;background:#FFFFFF;" version="1.1" viewBox="0 0 594 687" width="594px" zoomAndPan="magnify"><defs/><g><text fill="#000000" font-family="sans-serif" font-size="14" font-weight="bold" lengthAdjust="spacing" textLength="228" x="185" y="30.1074">System Sequence Diagram (SSD)</text><rect fill="#FFFFFF" height="416.0742" style="stroke:#181818;stroke-width:1.0;" width="10" x="60" y="151.8633"/><rect fill="#FFFFFF" height="48.582" style="stroke:#181818;stroke-width:1.0;" width="10" x="366" y="175.1543"/><rect fill="#FFFFFF" height="119.1641" style="stroke:#181818;stroke-width:1.0;" width="10" x="366" y="255.0273"/><rect fill="#FFFFFF" height="99.873" style="stroke:#181818;stroke-width:1.0;" width="10" x="366" y="405.4824"/><rect fill="#FFFFFF" height="40.291" style="stroke:#181818;stroke-width:1.0;" width="10" x="366" y="536.6465"/><rect fill="none" height="99.1641" style="stroke:#000000;stroke-width:1.5;" width="450" x="10" y="314.3184"/><line style="stroke:#181818;stroke-width:0.5;stroke-dasharray:5.0,5.0;" x1="65" x2="65" y1="141.8633" y2="585.9375"/><line style="stroke:#181818;stroke-width:0.5;stroke-dasharray:5.0,5.0;" x1="371" x2="371" y1="141.8633" y2="585.9375"/><text fill="#000000" font-family="sans-serif" font-size="14" lengthAdjust="spacing" textLength="84" x="20" y="119.7285">Green Space</text><text fill="#000000" font-family="sans-serif" font-size="14" lengthAdjust="spacing" textLength="56" x="34" y="138.3496">Manager</text><ellipse cx="65" cy="53.1211" fill="#E3E3E3" rx="8" ry="8" style="stroke:#181818;stroke-width:0.5;"/><path d="M65,61.1211 L65,88.1211 M52,69.1211 L78,69.1211 M65,88.1211 L52,103.1211 M65,88.1211 L78,103.1211 " fill="none" style="stroke:#181818;stroke-width:0.5;"/><text fill="#000000" font-family="sans-serif" font-size="14" lengthAdjust="spacing" textLength="84" x="20" y="600.0449">Green Space</text><text fill="#000000" font-family="sans-serif" font-size="14" lengthAdjust="spacing" textLength="56" x="34" y="618.666">Manager</text><ellipse cx="65" cy="630.6797" fill="#E3E3E3" rx="8" ry="8" style="stroke:#181818;stroke-width:0.5;"/><path d="M65,638.6797 L65,665.6797 M52,646.6797 L78,646.6797 M65,665.6797 L52,680.6797 M65,665.6797 L78,680.6797 " fill="none" style="stroke:#181818;stroke-width:0.5;"/><rect fill="#E3E3E3" height="32.6211" rx="2.5" ry="2.5" style="stroke:#181818;stroke-width:0.5;" width="158" x="292" y="108.2422"/><text fill="#000000" font-family="sans-serif" font-size="14" lengthAdjust="spacing" textLength="144" x="299" y="130.3496">:registerGreenSpaceUI</text><rect fill="#E3E3E3" height="32.6211" rx="2.5" ry="2.5" style="stroke:#181818;stroke-width:0.5;" width="158" x="292" y="584.9375"/><text fill="#000000" font-family="sans-serif" font-size="14" lengthAdjust="spacing" textLength="144" x="299" y="607.0449">:registerGreenSpaceUI</text><rect fill="#FFFFFF" height="416.0742" style="stroke:#181818;stroke-width:1.0;" width="10" x="60" y="151.8633"/><rect fill="#FFFFFF" height="48.582" style="stroke:#181818;stroke-width:1.0;" width="10" x="366" y="175.1543"/><rect fill="#FFFFFF" height="119.1641" style="stroke:#181818;stroke-width:1.0;" width="10" x="366" y="255.0273"/><rect fill="#FFFFFF" height="99.873" style="stroke:#181818;stroke-width:1.0;" width="10" x="366" y="405.4824"/><rect fill="#FFFFFF" height="40.291" style="stroke:#181818;stroke-width:1.0;" width="10" x="366" y="536.6465"/><polygon fill="#181818" points="354,171.1543,364,175.1543,354,179.1543,358,175.1543" style="stroke:#181818;stroke-width:1.0;"/><line style="stroke:#181818;stroke-width:1.0;" x1="70" x2="360" y1="175.1543" y2="175.1543"/><text fill="#000000" font-family="sans-serif" font-size="13" font-weight="bold" lengthAdjust="spacing" textLength="7" x="77" y="169.8916">1</text><text fill="#000000" font-family="sans-serif" font-size="13" lengthAdjust="spacing" textLength="201" x="88" y="169.8916">asks to create a new Green Space</text><polygon fill="#181818" points="81,219.7363,71,223.7363,81,227.7363,77,223.7363" style="stroke:#181818;stroke-width:1.0;"/><line style="stroke:#181818;stroke-width:1.0;stroke-dasharray:2.0,2.0;" x1="75" x2="370" y1="223.7363" y2="223.7363"/><text fill="#000000" font-family="sans-serif" font-size="13" font-weight="bold" lengthAdjust="spacing" textLength="7" x="87" y="209.8281">2</text><text fill="#000000" font-family="sans-serif" font-size="13" lengthAdjust="spacing" textLength="261" x="98" y="201.1826">Displays the types of green spaces and asks</text><text fill="#000000" font-family="sans-serif" font-size="13" lengthAdjust="spacing" textLength="216" x="98" y="218.4736">to select one (garden, medium, large)</text><polygon fill="#181818" points="354,251.0273,364,255.0273,354,259.0273,358,255.0273" style="stroke:#181818;stroke-width:1.0;"/><line style="stroke:#181818;stroke-width:1.0;" x1="70" x2="360" y1="255.0273" y2="255.0273"/><text fill="#000000" font-family="sans-serif" font-size="13" font-weight="bold" lengthAdjust="spacing" textLength="7" x="77" y="249.7646">3</text><text fill="#000000" font-family="sans-serif" font-size="13" lengthAdjust="spacing" textLength="160" x="88" y="249.7646">selects type of green space</text><line style="stroke:#181818;stroke-width:1.0;stroke-dasharray:2.0,2.0;" x1="376" x2="418" y1="286.3184" y2="286.3184"/><line style="stroke:#181818;stroke-width:1.0;stroke-dasharray:2.0,2.0;" x1="418" x2="418" y1="286.3184" y2="299.3184"/><line style="stroke:#181818;stroke-width:1.0;stroke-dasharray:2.0,2.0;" x1="377" x2="418" y1="299.3184" y2="299.3184"/><polygon fill="#181818" points="387,295.3184,377,299.3184,387,303.3184,383,299.3184" style="stroke:#181818;stroke-width:1.0;"/><text fill="#000000" font-family="sans-serif" font-size="13" font-weight="bold" lengthAdjust="spacing" textLength="7" x="383" y="281.0557">4</text><text fill="#000000" font-family="sans-serif" font-size="13" lengthAdjust="spacing" textLength="88" x="394" y="281.0557">keepData(type)</text><path d="M10,314.3184 L83,314.3184 L83,323.6094 L73,333.6094 L10,333.6094 L10,314.3184 " fill="#EEEEEE" style="stroke:#000000;stroke-width:1.5;"/><rect fill="none" height="99.1641" style="stroke:#000000;stroke-width:1.5;" width="450" x="10" y="314.3184"/><text fill="#000000" font-family="sans-serif" font-size="13" font-weight="bold" lengthAdjust="spacing" textLength="28" x="25" y="329.3467">loop</text><text fill="#000000" font-family="sans-serif" font-size="11" font-weight="bold" lengthAdjust="spacing" textLength="157" x="98" y="328.1885">[until typed data is validated]</text><polygon fill="#181818" points="81,370.1914,71,374.1914,81,378.1914,77,374.1914" style="stroke:#181818;stroke-width:1.0;"/><line style="stroke:#181818;stroke-width:1.0;stroke-dasharray:2.0,2.0;" x1="75" x2="370" y1="374.1914" y2="374.1914"/><text fill="#000000" font-family="sans-serif" font-size="13" font-weight="bold" lengthAdjust="spacing" textLength="7" x="87" y="360.2832">5</text><text fill="#000000" font-family="sans-serif" font-size="13" lengthAdjust="spacing" textLength="209" x="98" y="351.6377">requests data (name, streetNumber,</text><text fill="#000000" font-family="sans-serif" font-size="13" lengthAdjust="spacing" textLength="205" x="98" y="368.9287">postalCode, city, district, totalArea)</text><polygon fill="#181818" points="354,401.4824,364,405.4824,354,409.4824,358,405.4824" style="stroke:#181818;stroke-width:1.0;"/><line style="stroke:#181818;stroke-width:1.0;" x1="70" x2="360" y1="405.4824" y2="405.4824"/><text fill="#000000" font-family="sans-serif" font-size="13" font-weight="bold" lengthAdjust="spacing" textLength="7" x="77" y="400.2197">6</text><text fill="#000000" font-family="sans-serif" font-size="13" lengthAdjust="spacing" textLength="122" x="88" y="400.2197">types requested data</text><line style="stroke:#181818;stroke-width:1.0;stroke-dasharray:2.0,2.0;" x1="376" x2="418" y1="461.0645" y2="461.0645"/><line style="stroke:#181818;stroke-width:1.0;stroke-dasharray:2.0,2.0;" x1="418" x2="418" y1="461.0645" y2="474.0645"/><line style="stroke:#181818;stroke-width:1.0;stroke-dasharray:2.0,2.0;" x1="377" x2="418" y1="474.0645" y2="474.0645"/><polygon fill="#181818" points="387,470.0645,377,474.0645,387,478.0645,383,474.0645" style="stroke:#181818;stroke-width:1.0;"/><text fill="#000000" font-family="sans-serif" font-size="13" font-weight="bold" lengthAdjust="spacing" textLength="7" x="383" y="447.1563">7</text><text fill="#000000" font-family="sans-serif" font-size="13" lengthAdjust="spacing" textLength="177" x="394" y="438.5107">keepData(name,streetNumber,</text><text fill="#000000" font-family="sans-serif" font-size="13" lengthAdjust="spacing" textLength="193" x="394" y="455.8018">postalCode,city,district,totalArea)</text><polygon fill="#181818" points="81,501.3555,71,505.3555,81,509.3555,77,505.3555" style="stroke:#181818;stroke-width:1.0;"/><line style="stroke:#181818;stroke-width:1.0;stroke-dasharray:2.0,2.0;" x1="75" x2="370" y1="505.3555" y2="505.3555"/><text fill="#000000" font-family="sans-serif" font-size="13" font-weight="bold" lengthAdjust="spacing" textLength="7" x="87" y="500.0928">8</text><text fill="#000000" font-family="sans-serif" font-size="13" lengthAdjust="spacing" textLength="236" x="98" y="500.0928">shows all data and requests confirmation</text><polygon fill="#181818" points="354,532.6465,364,536.6465,354,540.6465,358,536.6465" style="stroke:#181818;stroke-width:1.0;"/><line style="stroke:#181818;stroke-width:1.0;" x1="70" x2="360" y1="536.6465" y2="536.6465"/><text fill="#000000" font-family="sans-serif" font-size="13" font-weight="bold" lengthAdjust="spacing" textLength="7" x="77" y="531.3838">9</text><text fill="#000000" font-family="sans-serif" font-size="13" lengthAdjust="spacing" textLength="78" x="88" y="531.3838">confirms data</text><polygon fill="#181818" points="76,563.9375,66,567.9375,76,571.9375,72,567.9375" style="stroke:#181818;stroke-width:1.0;"/><line style="stroke:#181818;stroke-width:1.0;stroke-dasharray:2.0,2.0;" x1="70" x2="365" y1="567.9375" y2="567.9375"/><text fill="#000000" font-family="sans-serif" font-size="13" font-weight="bold" lengthAdjust="spacing" textLength="14" x="82" y="562.6748">10</text><text fill="#000000" font-family="sans-serif" font-size="13" lengthAdjust="spacing" textLength="158" x="100" y="562.6748">displays operation success</text><!--SRC=[ZLF1QYCn3BtFLuYS4fZ-G0uBImEbX-vbw2qNhQrCJ3pohALfcBzVsKb3ID9IdmnwUk_foPP3u14p3Z0aJcwVqq2WUQ96BfKHtG5xwdIE19cS8lVn6Y1xzEaOk8STHg6cqQ06xMPH6g2ZVnEn8zW4x0jysNMRLTFWf8cduIzbkpjD6HOlcOYXCq7QyXkogUO5eC1BzzQObWONHcI5nJfJ7um-rvRQyVvQeU-lbIvye5BjQy2ENU3fbnLXRQ23W2PmcGe6WUa8LzAruK9H-E1yhFt9M0hPsiQHCU9iL7kBR1v98EsWhpnIU0IGVLNRiia9HSiE4XCiUyoUk8M1V9Y65YBcdbPLnzETzBNv4ujKmHkzEzytjcl_WMZSeEAo4AoQcD884sk8bT63jne4WG-CmUxa7m-VorB5V5Jyad6W5aJDZFwfEsstF2PHZC_9Mya5dLlmjh8SdBOMlvL-sm9-DFGftRFcsUJTj6HXbt6-7xiw_TfezNcnUUFoBWNPfwDjESPJ36NTbs1Subt80sf8_9CPptXvFDnZVV_v1DD8kIg1JCvUdjmgbe_m7m00]--></g></svg>