<?xml version="1.0" encoding="us-ascii" standalone="no"?><svg xmlns="http://www.w3.org/2000/svg" xmlns:xlink="http://www.w3.org/1999/xlink" contentStyleType="text/css" height="1169px" preserveAspectRatio="none" style="width:755px;height:1169px;background:#FFFFFF;" version="1.1" viewBox="0 0 755 1169" width="755px" zoomAndPan="magnify"><defs/><g><text fill="#000000" font-family="sans-serif" font-size="14" font-weight="bold" lengthAdjust="spacing" textLength="284" x="237.75" y="30.1074">US021 - System Sequence Diagram (SSD)</text><rect fill="#FFFFFF" height="943.9844" style="stroke:#181818;stroke-width:1.0;" width="10" x="33.5" y="133.2422"/><rect fill="#FFFFFF" height="57.582" style="stroke:#181818;stroke-width:1.0;" width="10" x="456.5" y="156.5332"/><rect fill="#FFFFFF" height="178.1641" style="stroke:#181818;stroke-width:1.0;" width="10" x="456.5" y="245.4063"/><rect fill="#FFFFFF" height="257.7461" style="stroke:#181818;stroke-width:1.0;" width="10" x="456.5" y="454.8613"/><rect fill="#FFFFFF" height="188.5186" style="stroke:#181818;stroke-width:1.0;" width="10" x="456.5" y="755.5439"/><rect fill="#FFFFFF" height="92.873" style="stroke:#181818;stroke-width:1.0;" width="10" x="456.5" y="975.3535"/><rect fill="none" height="151.1641" style="stroke:#000000;stroke-width:1.5;" width="594.5" x="10" y="171.5332"/><rect fill="none" height="151.1641" style="stroke:#000000;stroke-width:1.5;" width="601.5" x="10" y="380.9883"/><rect fill="none" height="174.4551" style="stroke:#000000;stroke-width:1.5;" width="641.5" x="10" y="670.0254"/><line style="stroke:#181818;stroke-width:0.5;stroke-dasharray:5.0,5.0;" x1="38" x2="38" y1="123.2422" y2="1086.2266"/><line style="stroke:#181818;stroke-width:0.5;stroke-dasharray:5.0,5.0;" x1="461" x2="461" y1="123.2422" y2="1086.2266"/><text fill="#000000" font-family="sans-serif" font-size="14" lengthAdjust="spacing" textLength="31" x="20" y="119.7285">GSM</text><ellipse cx="38.5" cy="53.1211" fill="#E3E3E3" rx="8" ry="8" style="stroke:#181818;stroke-width:0.5;"/><path d="M38.5,61.1211 L38.5,88.1211 M25.5,69.1211 L51.5,69.1211 M38.5,88.1211 L25.5,103.1211 M38.5,88.1211 L51.5,103.1211 " fill="none" style="stroke:#181818;stroke-width:0.5;"/><text fill="#000000" font-family="sans-serif" font-size="14" lengthAdjust="spacing" textLength="31" x="20" y="1100.334">GSM</text><ellipse cx="38.5" cy="1112.3477" fill="#E3E3E3" rx="8" ry="8" style="stroke:#181818;stroke-width:0.5;"/><path d="M38.5,1120.3477 L38.5,1147.3477 M25.5,1128.3477 L51.5,1128.3477 M38.5,1147.3477 L25.5,1162.3477 M38.5,1147.3477 L51.5,1162.3477 " fill="none" style="stroke:#181818;stroke-width:0.5;"/><rect fill="#E3E3E3" height="32.6211" rx="2.5" ry="2.5" style="stroke:#181818;stroke-width:0.5;" width="149" x="387" y="89.6211"/><text fill="#000000" font-family="sans-serif" font-size="14" lengthAdjust="spacing" textLength="135" x="394" y="111.7285">:AddNewEntryToDoUI</text><rect fill="#E3E3E3" height="32.6211" rx="2.5" ry="2.5" style="stroke:#181818;stroke-width:0.5;" width="149" x="387" y="1085.2266"/><text fill="#000000" font-family="sans-serif" font-size="14" lengthAdjust="spacing" textLength="135" x="394" y="1107.334">:AddNewEntryToDoUI</text><rect fill="#FFFFFF" height="943.9844" style="stroke:#181818;stroke-width:1.0;" width="10" x="33.5" y="133.2422"/><rect fill="#FFFFFF" height="57.582" style="stroke:#181818;stroke-width:1.0;" width="10" x="456.5" y="156.5332"/><rect fill="#FFFFFF" height="178.1641" style="stroke:#181818;stroke-width:1.0;" width="10" x="456.5" y="245.4063"/><rect fill="#FFFFFF" height="257.7461" style="stroke:#181818;stroke-width:1.0;" width="10" x="456.5" y="454.8613"/><rect fill="#FFFFFF" height="188.5186" style="stroke:#181818;stroke-width:1.0;" width="10" x="456.5" y="755.5439"/><rect fill="#FFFFFF" height="92.873" style="stroke:#181818;stroke-width:1.0;" width="10" x="456.5" y="975.3535"/><polygon fill="#181818" points="444.5,152.5332,454.5,156.5332,444.5,160.5332,448.5,156.5332" style="stroke:#181818;stroke-width:1.0;"/><line style="stroke:#181818;stroke-width:1.0;" x1="43.5" x2="450.5" y1="156.5332" y2="156.5332"/><text fill="#000000" font-family="sans-serif" font-size="13" font-weight="bold" lengthAdjust="spacing" textLength="7" x="50.5" y="151.2705">1</text><text fill="#000000" font-family="sans-serif" font-size="13" lengthAdjust="spacing" textLength="222" x="61.5" y="151.2705">Asks to add a new entry on To-Do List</text><path d="M10,171.5332 L83,171.5332 L83,180.8242 L73,190.8242 L10,190.8242 L10,171.5332 " fill="#EEEEEE" style="stroke:#000000;stroke-width:1.5;"/><rect fill="none" height="151.1641" style="stroke:#000000;stroke-width:1.5;" width="594.5" x="10" y="171.5332"/><text fill="#000000" font-family="sans-serif" font-size="13" font-weight="bold" lengthAdjust="spacing" textLength="28" x="25" y="186.5615">loop</text><text fill="#000000" font-family="sans-serif" font-size="11" font-weight="bold" lengthAdjust="spacing" textLength="189" x="98" y="185.4033">[until doesn't select a valid option]</text><polygon fill="#181818" points="54.5,210.1152,44.5,214.1152,54.5,218.1152,50.5,214.1152" style="stroke:#181818;stroke-width:1.0;"/><line style="stroke:#181818;stroke-width:1.0;stroke-dasharray:2.0,2.0;" x1="48.5" x2="460.5" y1="214.1152" y2="214.1152"/><text fill="#000000" font-family="sans-serif" font-size="13" font-weight="bold" lengthAdjust="spacing" textLength="7" x="60.5" y="208.8525">2</text><text fill="#000000" font-family="sans-serif" font-size="13" lengthAdjust="spacing" textLength="292" x="71.5" y="208.8525">Shows list of green spaces and asks to select one</text><polygon fill="#181818" points="444.5,241.4063,454.5,245.4063,444.5,249.4063,448.5,245.4063" style="stroke:#181818;stroke-width:1.0;"/><line style="stroke:#181818;stroke-width:1.0;" x1="43.5" x2="450.5" y1="245.4063" y2="245.4063"/><text fill="#000000" font-family="sans-serif" font-size="13" font-weight="bold" lengthAdjust="spacing" textLength="7" x="50.5" y="240.1436">3</text><text fill="#000000" font-family="sans-serif" font-size="13" lengthAdjust="spacing" textLength="130" x="61.5" y="240.1436">Selects a green space</text><line style="stroke:#181818;stroke-width:1.0;stroke-dasharray:2.0,2.0;" x1="466.5" x2="508.5" y1="276.6973" y2="276.6973"/><line style="stroke:#181818;stroke-width:1.0;stroke-dasharray:2.0,2.0;" x1="508.5" x2="508.5" y1="276.6973" y2="289.6973"/><line style="stroke:#181818;stroke-width:1.0;stroke-dasharray:2.0,2.0;" x1="467.5" x2="508.5" y1="289.6973" y2="289.6973"/><polygon fill="#181818" points="477.5,285.6973,467.5,289.6973,477.5,293.6973,473.5,289.6973" style="stroke:#181818;stroke-width:1.0;"/><text fill="#000000" font-family="sans-serif" font-size="13" font-weight="bold" lengthAdjust="spacing" textLength="7" x="473.5" y="271.4346">4</text><text fill="#000000" font-family="sans-serif" font-size="13" lengthAdjust="spacing" textLength="108" x="484.5" y="271.4346">validates Selection</text><line style="stroke:#181818;stroke-width:1.0;stroke-dasharray:2.0,2.0;" x1="466.5" x2="508.5" y1="352.9883" y2="352.9883"/><line style="stroke:#181818;stroke-width:1.0;stroke-dasharray:2.0,2.0;" x1="508.5" x2="508.5" y1="352.9883" y2="365.9883"/><line style="stroke:#181818;stroke-width:1.0;stroke-dasharray:2.0,2.0;" x1="467.5" x2="508.5" y1="365.9883" y2="365.9883"/><polygon fill="#181818" points="477.5,361.9883,467.5,365.9883,477.5,369.9883,473.5,365.9883" style="stroke:#181818;stroke-width:1.0;"/><text fill="#000000" font-family="sans-serif" font-size="13" font-weight="bold" lengthAdjust="spacing" textLength="7" x="473.5" y="347.7256">5</text><text fill="#000000" font-family="sans-serif" font-size="13" lengthAdjust="spacing" textLength="130" x="484.5" y="347.7256">keepData(greenspace)</text><path d="M10,380.9883 L83,380.9883 L83,390.2793 L73,400.2793 L10,400.2793 L10,380.9883 " fill="#EEEEEE" style="stroke:#000000;stroke-width:1.5;"/><rect fill="none" height="151.1641" style="stroke:#000000;stroke-width:1.5;" width="601.5" x="10" y="380.9883"/><text fill="#000000" font-family="sans-serif" font-size="13" font-weight="bold" lengthAdjust="spacing" textLength="28" x="25" y="396.0166">loop</text><text fill="#000000" font-family="sans-serif" font-size="11" font-weight="bold" lengthAdjust="spacing" textLength="157" x="98" y="394.8584">[until typed data is validated]</text><polygon fill="#181818" points="54.5,419.5703,44.5,423.5703,54.5,427.5703,50.5,423.5703" style="stroke:#181818;stroke-width:1.0;"/><line style="stroke:#181818;stroke-width:1.0;stroke-dasharray:2.0,2.0;" x1="48.5" x2="460.5" y1="423.5703" y2="423.5703"/><text fill="#000000" font-family="sans-serif" font-size="13" font-weight="bold" lengthAdjust="spacing" textLength="7" x="60.5" y="418.3076">6</text><text fill="#000000" font-family="sans-serif" font-size="13" lengthAdjust="spacing" textLength="299" x="71.5" y="418.3076">Requests data (title, description, expected duration)</text><polygon fill="#181818" points="444.5,450.8613,454.5,454.8613,444.5,458.8613,448.5,454.8613" style="stroke:#181818;stroke-width:1.0;"/><line style="stroke:#181818;stroke-width:1.0;" x1="43.5" x2="450.5" y1="454.8613" y2="454.8613"/><text fill="#000000" font-family="sans-serif" font-size="13" font-weight="bold" lengthAdjust="spacing" textLength="7" x="50.5" y="449.5986">7</text><text fill="#000000" font-family="sans-serif" font-size="13" lengthAdjust="spacing" textLength="125" x="61.5" y="449.5986">Types requested data</text><line style="stroke:#181818;stroke-width:1.0;stroke-dasharray:2.0,2.0;" x1="466.5" x2="508.5" y1="486.1523" y2="486.1523"/><line style="stroke:#181818;stroke-width:1.0;stroke-dasharray:2.0,2.0;" x1="508.5" x2="508.5" y1="486.1523" y2="499.1523"/><line style="stroke:#181818;stroke-width:1.0;stroke-dasharray:2.0,2.0;" x1="467.5" x2="508.5" y1="499.1523" y2="499.1523"/><polygon fill="#181818" points="477.5,495.1523,467.5,499.1523,477.5,503.1523,473.5,499.1523" style="stroke:#181818;stroke-width:1.0;"/><text fill="#000000" font-family="sans-serif" font-size="13" font-weight="bold" lengthAdjust="spacing" textLength="7" x="473.5" y="480.8896">8</text><text fill="#000000" font-family="sans-serif" font-size="13" lengthAdjust="spacing" textLength="115" x="484.5" y="480.8896">validates typed data</text><line style="stroke:#181818;stroke-width:1.0;stroke-dasharray:2.0,2.0;" x1="466.5" x2="508.5" y1="562.4434" y2="562.4434"/><line style="stroke:#181818;stroke-width:1.0;stroke-dasharray:2.0,2.0;" x1="508.5" x2="508.5" y1="562.4434" y2="575.4434"/><line style="stroke:#181818;stroke-width:1.0;stroke-dasharray:2.0,2.0;" x1="467.5" x2="508.5" y1="575.4434" y2="575.4434"/><polygon fill="#181818" points="477.5,571.4434,467.5,575.4434,477.5,579.4434,473.5,575.4434" style="stroke:#181818;stroke-width:1.0;"/><text fill="#000000" font-family="sans-serif" font-size="13" font-weight="bold" lengthAdjust="spacing" textLength="7" x="473.5" y="557.1807">9</text><text fill="#000000" font-family="sans-serif" font-size="13" lengthAdjust="spacing" textLength="264" x="484.5" y="557.1807">keepData(title, description, expectedDuration)</text><path d="M471,588.4434 L471,632.4434 L671,632.4434 L671,598.4434 L661,588.4434 L471,588.4434 " fill="#FAFAFA" style="stroke:#181818;stroke-width:0.5;"/><path d="M661,588.4434 L661,598.4434 L671,598.4434 L661,588.4434 " fill="#FAFAFA" style="stroke:#181818;stroke-width:0.5;"/><text fill="#000000" font-family="sans-serif" font-size="13" lengthAdjust="spacing" textLength="179" x="477" y="607.4717">expectedDuration is composed</text><text fill="#000000" font-family="sans-serif" font-size="13" lengthAdjust="spacing" textLength="161" x="477" y="624.7627">by days, hours and minutes</text><path d="M10,670.0254 L83,670.0254 L83,679.3164 L73,689.3164 L10,689.3164 L10,670.0254 " fill="#EEEEEE" style="stroke:#000000;stroke-width:1.5;"/><rect fill="none" height="174.4551" style="stroke:#000000;stroke-width:1.5;" width="641.5" x="10" y="670.0254"/><text fill="#000000" font-family="sans-serif" font-size="13" font-weight="bold" lengthAdjust="spacing" textLength="28" x="25" y="685.0537">loop</text><text fill="#000000" font-family="sans-serif" font-size="11" font-weight="bold" lengthAdjust="spacing" textLength="189" x="98" y="683.8955">[until doesn't select a valid option]</text><polygon fill="#181818" points="54.5,708.6074,44.5,712.6074,54.5,716.6074,50.5,712.6074" style="stroke:#181818;stroke-width:1.0;"/><line style="stroke:#181818;stroke-width:1.0;stroke-dasharray:2.0,2.0;" x1="48.5" x2="460.5" y1="712.6074" y2="712.6074"/><text fill="#000000" font-family="sans-serif" font-size="13" font-weight="bold" lengthAdjust="spacing" textLength="14" x="60.5" y="707.3447">10</text><text fill="#000000" font-family="sans-serif" font-size="13" lengthAdjust="spacing" textLength="371" x="78.5" y="707.3447">Shows list of task taskType and urgency and asks to select one</text><polygon fill="#181818" points="444.5,751.5439,454.5,755.5439,444.5,759.5439,448.5,755.5439" style="stroke:#181818;stroke-width:1.0;"/><line style="stroke:#181818;stroke-width:1.0;" x1="43.5" x2="450.5" y1="755.5439" y2="755.5439"/><text fill="#000000" font-family="sans-serif" font-size="13" font-weight="bold" lengthAdjust="spacing" textLength="14" x="50.5" y="750.2813">11</text><text fill="#000000" font-family="sans-serif" font-size="13" lengthAdjust="spacing" textLength="191" x="68.5" y="750.2813">Selects type of task and urgency</text><path d="M471,725.6074 L471,769.6074 L646,769.6074 L646,735.6074 L636,725.6074 L471,725.6074 " fill="#FAFAFA" style="stroke:#181818;stroke-width:0.5;"/><path d="M636,725.6074 L636,735.6074 L646,735.6074 L636,725.6074 " fill="#FAFAFA" style="stroke:#181818;stroke-width:0.5;"/><text fill="#000000" font-family="sans-serif" font-size="13" lengthAdjust="spacing" textLength="154" x="477" y="744.6357">Task type and urgency are</text><text fill="#000000" font-family="sans-serif" font-size="13" lengthAdjust="spacing" textLength="126" x="477" y="761.9268">both enumerate types</text><line style="stroke:#181818;stroke-width:1.0;stroke-dasharray:2.0,2.0;" x1="466.5" x2="508.5" y1="798.4805" y2="798.4805"/><line style="stroke:#181818;stroke-width:1.0;stroke-dasharray:2.0,2.0;" x1="508.5" x2="508.5" y1="798.4805" y2="811.4805"/><line style="stroke:#181818;stroke-width:1.0;stroke-dasharray:2.0,2.0;" x1="467.5" x2="508.5" y1="811.4805" y2="811.4805"/><polygon fill="#181818" points="477.5,807.4805,467.5,811.4805,477.5,815.4805,473.5,811.4805" style="stroke:#181818;stroke-width:1.0;"/><text fill="#000000" font-family="sans-serif" font-size="13" font-weight="bold" lengthAdjust="spacing" textLength="14" x="473.5" y="793.2178">12</text><text fill="#000000" font-family="sans-serif" font-size="13" lengthAdjust="spacing" textLength="108" x="491.5" y="793.2178">validates Selection</text><line style="stroke:#181818;stroke-width:1.0;stroke-dasharray:2.0,2.0;" x1="466.5" x2="508.5" y1="874.7715" y2="874.7715"/><line style="stroke:#181818;stroke-width:1.0;stroke-dasharray:2.0,2.0;" x1="508.5" x2="508.5" y1="874.7715" y2="887.7715"/><line style="stroke:#181818;stroke-width:1.0;stroke-dasharray:2.0,2.0;" x1="467.5" x2="508.5" y1="887.7715" y2="887.7715"/><polygon fill="#181818" points="477.5,883.7715,467.5,887.7715,477.5,891.7715,473.5,887.7715" style="stroke:#181818;stroke-width:1.0;"/><text fill="#000000" font-family="sans-serif" font-size="13" font-weight="bold" lengthAdjust="spacing" textLength="14" x="473.5" y="869.5088">13</text><text fill="#000000" font-family="sans-serif" font-size="13" lengthAdjust="spacing" textLength="142" x="491.5" y="869.5088">keepData(type, urgency)</text><polygon fill="#181818" points="54.5,940.0625,44.5,944.0625,54.5,948.0625,50.5,944.0625" style="stroke:#181818;stroke-width:1.0;"/><line style="stroke:#181818;stroke-width:1.0;stroke-dasharray:2.0,2.0;" x1="48.5" x2="460.5" y1="944.0625" y2="944.0625"/><text fill="#000000" font-family="sans-serif" font-size="13" font-weight="bold" lengthAdjust="spacing" textLength="14" x="60.5" y="938.7998">14</text><text fill="#000000" font-family="sans-serif" font-size="13" lengthAdjust="spacing" textLength="238" x="78.5" y="938.7998">Shows all data and requests confirmation</text><polygon fill="#181818" points="444.5,971.3535,454.5,975.3535,444.5,979.3535,448.5,975.3535" style="stroke:#181818;stroke-width:1.0;"/><line style="stroke:#181818;stroke-width:1.0;" x1="43.5" x2="450.5" y1="975.3535" y2="975.3535"/><text fill="#000000" font-family="sans-serif" font-size="13" font-weight="bold" lengthAdjust="spacing" textLength="14" x="50.5" y="970.0908">15</text><text fill="#000000" font-family="sans-serif" font-size="13" lengthAdjust="spacing" textLength="80" x="68.5" y="970.0908">Confirms data</text><line style="stroke:#181818;stroke-width:1.0;stroke-dasharray:2.0,2.0;" x1="466.5" x2="508.5" y1="1023.9355" y2="1023.9355"/><line style="stroke:#181818;stroke-width:1.0;stroke-dasharray:2.0,2.0;" x1="508.5" x2="508.5" y1="1023.9355" y2="1036.9355"/><line style="stroke:#181818;stroke-width:1.0;stroke-dasharray:2.0,2.0;" x1="467.5" x2="508.5" y1="1036.9355" y2="1036.9355"/><polygon fill="#181818" points="477.5,1032.9355,467.5,1036.9355,477.5,1040.9355,473.5,1036.9355" style="stroke:#181818;stroke-width:1.0;"/><text fill="#000000" font-family="sans-serif" font-size="13" font-weight="bold" lengthAdjust="spacing" textLength="14" x="473.5" y="1010.0273">16</text><text fill="#000000" font-family="sans-serif" font-size="13" lengthAdjust="spacing" textLength="106" x="491.5" y="1001.3818">adds the new task</text><text fill="#000000" font-family="sans-serif" font-size="13" lengthAdjust="spacing" textLength="92" x="491.5" y="1018.6729">to the To-Do list</text><polygon fill="#181818" points="54.5,1064.2266,44.5,1068.2266,54.5,1072.2266,50.5,1068.2266" style="stroke:#181818;stroke-width:1.0;"/><line style="stroke:#181818;stroke-width:1.0;stroke-dasharray:2.0,2.0;" x1="48.5" x2="460.5" y1="1068.2266" y2="1068.2266"/><text fill="#000000" font-family="sans-serif" font-size="13" font-weight="bold" lengthAdjust="spacing" textLength="14" x="60.5" y="1062.9639">17</text><text fill="#000000" font-family="sans-serif" font-size="13" lengthAdjust="spacing" textLength="160" x="78.5" y="1062.9639">Displays operation success</text><!--SRC=[hLN1Rjim3BthAuXUrW09iEsOmu1Y7eO2smvpSjj5jLbRY2rwejpCG3z-b9mcZksqmJ0T4aCY7nyVIObtnZRQwHfgifILZce4xrfKV3nfTBRJ1QQ-gn0SPbxReXeQSAbpsXjRmAEk69NonelfDdt_yGEi8EtOOmqf_cxHPWY9qKLmkqtJPA6KRZtPjdv09z-P9mStNzFlDw0Pv5z926yoqsZhuMPzb-S_SF_5UjTjAA7jVRJRtgkunDqyQO_HKO4i-O3L9p60DTpnZi4Jw3m73HRtW047oCA6LWd1DyC-UXrnUk2mLH4rq5flAiW9sRxpm5Y960Brf2kJ0pNUa8t6uoNXLy8Ya5b3MjAUeP9OG8zGE4GBB1eZWxR2xC3oW4uM9v0vdX4S7mzpJYEA80y3JLs6U9VOR-_NVQPYnmVWkOIVdvydUsZpyw17JE6uGsmIxVLjf1WPBgQg-wx172Iu1iD78WFOCv5_XcPZIJmwtCQ6N8fmd3aJwxG4_DD81W6pTJfiBTG5SOU2ReG6onH4-0CXDMsQSOuduKvvg1UrUlEeaNfLeDVIICwo2CkIa76cA6EZZIexTWkYPbGtnABfqF2X4x8TBw6arlKjMXlRIYfgLE4Oy9H1dzb_c9ut9iZBnCIVK9h8htM5N3JTjUDqnKXT6gjGp2E7GUXPW5CzPeytCOz93cwUy0FvKaHlQtI1TF3ZMSDZOUOENvtxVvZzI_C_UmTSRdD9PlcYm49DMqfTqHwwglhX3sgwb-iW8_jeN1rRNfqNVLpZpxqfNplYygn8GvGONvRG4B-iz5tOw5-NqA_gmdML66ugcJ8P0ppC8xUPF0aySoVz1G00]--></g></svg>