<?xml version="1.0" encoding="us-ascii" standalone="no"?><svg xmlns="http://www.w3.org/2000/svg" xmlns:xlink="http://www.w3.org/1999/xlink" contentStyleType="text/css" height="835px" preserveAspectRatio="none" style="width:535px;height:835px;background:#FFFFFF;" version="1.1" viewBox="0 0 535 835" width="535px" zoomAndPan="magnify"><defs/><g><text fill="#000000" font-family="sans-serif" font-size="14" font-weight="bold" lengthAdjust="spacing" textLength="284" x="127.75" y="30.1074">US021 - System Sequence Diagram (SSD)</text><rect fill="#FFFFFF" height="610.3652" style="stroke:#181818;stroke-width:1.0;" width="10" x="33.5" y="133.2422"/><rect fill="#FFFFFF" height="57.582" style="stroke:#181818;stroke-width:1.0;" width="10" x="370.5" y="156.5332"/><rect fill="#FFFFFF" height="133.873" style="stroke:#181818;stroke-width:1.0;" width="10" x="370.5" y="245.4063"/><rect fill="#FFFFFF" height="149.873" style="stroke:#181818;stroke-width:1.0;" width="10" x="370.5" y="410.5703"/><rect fill="#FFFFFF" height="142.873" style="stroke:#181818;stroke-width:1.0;" width="10" x="370.5" y="591.7344"/><rect fill="none" height="106.873" style="stroke:#000000;stroke-width:1.5;" width="450" x="10" y="171.5332"/><rect fill="none" height="106.873" style="stroke:#000000;stroke-width:1.5;" width="450" x="10" y="336.6973"/><line style="stroke:#181818;stroke-width:0.5;stroke-dasharray:5.0,5.0;" x1="38" x2="38" y1="123.2422" y2="752.6074"/><line style="stroke:#181818;stroke-width:0.5;stroke-dasharray:5.0,5.0;" x1="375" x2="375" y1="123.2422" y2="752.6074"/><text fill="#000000" font-family="sans-serif" font-size="14" lengthAdjust="spacing" textLength="31" x="20" y="119.7285">GSM</text><ellipse cx="38.5" cy="53.1211" fill="#E3E3E3" rx="8" ry="8" style="stroke:#181818;stroke-width:0.5;"/><path d="M38.5,61.1211 L38.5,88.1211 M25.5,69.1211 L51.5,69.1211 M38.5,88.1211 L25.5,103.1211 M38.5,88.1211 L51.5,103.1211 " fill="none" style="stroke:#181818;stroke-width:0.5;"/><text fill="#000000" font-family="sans-serif" font-size="14" lengthAdjust="spacing" textLength="31" x="20" y="766.7148">GSM</text><ellipse cx="38.5" cy="778.7285" fill="#E3E3E3" rx="8" ry="8" style="stroke:#181818;stroke-width:0.5;"/><path d="M38.5,786.7285 L38.5,813.7285 M25.5,794.7285 L51.5,794.7285 M38.5,813.7285 L25.5,828.7285 M38.5,813.7285 L51.5,828.7285 " fill="none" style="stroke:#181818;stroke-width:0.5;"/><rect fill="#E3E3E3" height="32.6211" rx="2.5" ry="2.5" style="stroke:#181818;stroke-width:0.5;" width="149" x="301" y="89.6211"/><text fill="#000000" font-family="sans-serif" font-size="14" lengthAdjust="spacing" textLength="135" x="308" y="111.7285">:AddNewEntryToDoUI</text><rect fill="#E3E3E3" height="32.6211" rx="2.5" ry="2.5" style="stroke:#181818;stroke-width:0.5;" width="149" x="301" y="751.6074"/><text fill="#000000" font-family="sans-serif" font-size="14" lengthAdjust="spacing" textLength="135" x="308" y="773.7148">:AddNewEntryToDoUI</text><rect fill="#FFFFFF" height="610.3652" style="stroke:#181818;stroke-width:1.0;" width="10" x="33.5" y="133.2422"/><rect fill="#FFFFFF" height="57.582" style="stroke:#181818;stroke-width:1.0;" width="10" x="370.5" y="156.5332"/><rect fill="#FFFFFF" height="133.873" style="stroke:#181818;stroke-width:1.0;" width="10" x="370.5" y="245.4063"/><rect fill="#FFFFFF" height="149.873" style="stroke:#181818;stroke-width:1.0;" width="10" x="370.5" y="410.5703"/><rect fill="#FFFFFF" height="142.873" style="stroke:#181818;stroke-width:1.0;" width="10" x="370.5" y="591.7344"/><polygon fill="#181818" points="358.5,152.5332,368.5,156.5332,358.5,160.5332,362.5,156.5332" style="stroke:#181818;stroke-width:1.0;"/><line style="stroke:#181818;stroke-width:1.0;" x1="43.5" x2="364.5" y1="156.5332" y2="156.5332"/><text fill="#000000" font-family="sans-serif" font-size="13" font-weight="bold" lengthAdjust="spacing" textLength="7" x="50.5" y="151.2705">1</text><text fill="#000000" font-family="sans-serif" font-size="13" lengthAdjust="spacing" textLength="222" x="61.5" y="151.2705">Asks to add a new entry on To-Do List</text><path d="M10,171.5332 L83,171.5332 L83,180.8242 L73,190.8242 L10,190.8242 L10,171.5332 " fill="#EEEEEE" style="stroke:#000000;stroke-width:1.5;"/><rect fill="none" height="106.873" style="stroke:#000000;stroke-width:1.5;" width="450" x="10" y="171.5332"/><text fill="#000000" font-family="sans-serif" font-size="13" font-weight="bold" lengthAdjust="spacing" textLength="28" x="25" y="186.5615">loop</text><text fill="#000000" font-family="sans-serif" font-size="11" font-weight="bold" lengthAdjust="spacing" textLength="189" x="98" y="185.4033">[until doesn't select a valid option]</text><polygon fill="#181818" points="54.5,210.1152,44.5,214.1152,54.5,218.1152,50.5,214.1152" style="stroke:#181818;stroke-width:1.0;"/><line style="stroke:#181818;stroke-width:1.0;stroke-dasharray:2.0,2.0;" x1="48.5" x2="374.5" y1="214.1152" y2="214.1152"/><text fill="#000000" font-family="sans-serif" font-size="13" font-weight="bold" lengthAdjust="spacing" textLength="7" x="60.5" y="208.8525">2</text><text fill="#000000" font-family="sans-serif" font-size="13" lengthAdjust="spacing" textLength="292" x="71.5" y="208.8525">Shows list of green spaces and asks to select one</text><polygon fill="#181818" points="358.5,241.4063,368.5,245.4063,358.5,249.4063,362.5,245.4063" style="stroke:#181818;stroke-width:1.0;"/><line style="stroke:#181818;stroke-width:1.0;" x1="43.5" x2="364.5" y1="245.4063" y2="245.4063"/><text fill="#000000" font-family="sans-serif" font-size="13" font-weight="bold" lengthAdjust="spacing" textLength="7" x="50.5" y="240.1436">3</text><text fill="#000000" font-family="sans-serif" font-size="13" lengthAdjust="spacing" textLength="130" x="61.5" y="240.1436">Selects a green space</text><line style="stroke:#181818;stroke-width:1.0;stroke-dasharray:2.0,2.0;" x1="380.5" x2="422.5" y1="308.6973" y2="308.6973"/><line style="stroke:#181818;stroke-width:1.0;stroke-dasharray:2.0,2.0;" x1="422.5" x2="422.5" y1="308.6973" y2="321.6973"/><line style="stroke:#181818;stroke-width:1.0;stroke-dasharray:2.0,2.0;" x1="381.5" x2="422.5" y1="321.6973" y2="321.6973"/><polygon fill="#181818" points="391.5,317.6973,381.5,321.6973,391.5,325.6973,387.5,321.6973" style="stroke:#181818;stroke-width:1.0;"/><text fill="#000000" font-family="sans-serif" font-size="13" font-weight="bold" lengthAdjust="spacing" textLength="7" x="387.5" y="303.4346">4</text><text fill="#000000" font-family="sans-serif" font-size="13" lengthAdjust="spacing" textLength="130" x="398.5" y="303.4346">keepData(greenspace)</text><path d="M10,336.6973 L83,336.6973 L83,345.9883 L73,355.9883 L10,355.9883 L10,336.6973 " fill="#EEEEEE" style="stroke:#000000;stroke-width:1.5;"/><rect fill="none" height="106.873" style="stroke:#000000;stroke-width:1.5;" width="450" x="10" y="336.6973"/><text fill="#000000" font-family="sans-serif" font-size="13" font-weight="bold" lengthAdjust="spacing" textLength="28" x="25" y="351.7256">loop</text><text fill="#000000" font-family="sans-serif" font-size="11" font-weight="bold" lengthAdjust="spacing" textLength="157" x="98" y="350.5674">[until typed data is validated]</text><polygon fill="#181818" points="54.5,375.2793,44.5,379.2793,54.5,383.2793,50.5,379.2793" style="stroke:#181818;stroke-width:1.0;"/><line style="stroke:#181818;stroke-width:1.0;stroke-dasharray:2.0,2.0;" x1="48.5" x2="374.5" y1="379.2793" y2="379.2793"/><text fill="#000000" font-family="sans-serif" font-size="13" font-weight="bold" lengthAdjust="spacing" textLength="7" x="60.5" y="374.0166">5</text><text fill="#000000" font-family="sans-serif" font-size="13" lengthAdjust="spacing" textLength="230" x="71.5" y="374.0166">Requests data (taskType, taskDuration)</text><polygon fill="#181818" points="358.5,406.5703,368.5,410.5703,358.5,414.5703,362.5,410.5703" style="stroke:#181818;stroke-width:1.0;"/><line style="stroke:#181818;stroke-width:1.0;" x1="43.5" x2="364.5" y1="410.5703" y2="410.5703"/><text fill="#000000" font-family="sans-serif" font-size="13" font-weight="bold" lengthAdjust="spacing" textLength="7" x="50.5" y="405.3076">6</text><text fill="#000000" font-family="sans-serif" font-size="13" lengthAdjust="spacing" textLength="125" x="61.5" y="405.3076">Types requested data</text><line style="stroke:#181818;stroke-width:1.0;stroke-dasharray:2.0,2.0;" x1="380.5" x2="422.5" y1="491.1523" y2="491.1523"/><line style="stroke:#181818;stroke-width:1.0;stroke-dasharray:2.0,2.0;" x1="422.5" x2="422.5" y1="491.1523" y2="504.1523"/><line style="stroke:#181818;stroke-width:1.0;stroke-dasharray:2.0,2.0;" x1="381.5" x2="422.5" y1="504.1523" y2="504.1523"/><polygon fill="#181818" points="391.5,500.1523,381.5,504.1523,391.5,508.1523,387.5,504.1523" style="stroke:#181818;stroke-width:1.0;"/><text fill="#000000" font-family="sans-serif" font-size="13" font-weight="bold" lengthAdjust="spacing" textLength="7" x="387.5" y="477.2441">7</text><text fill="#000000" font-family="sans-serif" font-size="13" lengthAdjust="spacing" textLength="116" x="398.5" y="468.5986">keepData(taskType,</text><text fill="#000000" font-family="sans-serif" font-size="13" lengthAdjust="spacing" textLength="77" x="398.5" y="485.8896">taskDuration)</text><polygon fill="#181818" points="54.5,556.4434,44.5,560.4434,54.5,564.4434,50.5,560.4434" style="stroke:#181818;stroke-width:1.0;"/><line style="stroke:#181818;stroke-width:1.0;stroke-dasharray:2.0,2.0;" x1="48.5" x2="374.5" y1="560.4434" y2="560.4434"/><text fill="#000000" font-family="sans-serif" font-size="13" font-weight="bold" lengthAdjust="spacing" textLength="7" x="60.5" y="555.1807">8</text><text fill="#000000" font-family="sans-serif" font-size="13" lengthAdjust="spacing" textLength="238" x="71.5" y="555.1807">Shows all data and requests confirmation</text><polygon fill="#181818" points="358.5,587.7344,368.5,591.7344,358.5,595.7344,362.5,591.7344" style="stroke:#181818;stroke-width:1.0;"/><line style="stroke:#181818;stroke-width:1.0;" x1="43.5" x2="364.5" y1="591.7344" y2="591.7344"/><text fill="#000000" font-family="sans-serif" font-size="13" font-weight="bold" lengthAdjust="spacing" textLength="7" x="50.5" y="586.4717">9</text><text fill="#000000" font-family="sans-serif" font-size="13" lengthAdjust="spacing" textLength="80" x="61.5" y="586.4717">Confirms data</text><line style="stroke:#181818;stroke-width:1.0;stroke-dasharray:2.0,2.0;" x1="380.5" x2="422.5" y1="665.3164" y2="665.3164"/><line style="stroke:#181818;stroke-width:1.0;stroke-dasharray:2.0,2.0;" x1="422.5" x2="422.5" y1="665.3164" y2="678.3164"/><line style="stroke:#181818;stroke-width:1.0;stroke-dasharray:2.0,2.0;" x1="381.5" x2="422.5" y1="678.3164" y2="678.3164"/><polygon fill="#181818" points="391.5,674.3164,381.5,678.3164,391.5,682.3164,387.5,678.3164" style="stroke:#181818;stroke-width:1.0;"/><text fill="#000000" font-family="sans-serif" font-size="13" font-weight="bold" lengthAdjust="spacing" textLength="14" x="387.5" y="651.4082">10</text><text fill="#000000" font-family="sans-serif" font-size="13" lengthAdjust="spacing" textLength="99" x="405.5" y="642.7627">add the new task</text><text fill="#000000" font-family="sans-serif" font-size="13" lengthAdjust="spacing" textLength="92" x="405.5" y="660.0537">to the To-Do list</text><polygon fill="#181818" points="54.5,730.6074,44.5,734.6074,54.5,738.6074,50.5,734.6074" style="stroke:#181818;stroke-width:1.0;"/><line style="stroke:#181818;stroke-width:1.0;stroke-dasharray:2.0,2.0;" x1="48.5" x2="374.5" y1="734.6074" y2="734.6074"/><text fill="#000000" font-family="sans-serif" font-size="13" font-weight="bold" lengthAdjust="spacing" textLength="14" x="60.5" y="729.3447">11</text><text fill="#000000" font-family="sans-serif" font-size="13" lengthAdjust="spacing" textLength="160" x="78.5" y="729.3447">Displays operation success</text><!--SRC=[ZLEnZjim3Dtr5KIMve06Q3jcA72eY-A0jaETR5rKYqc4oA8hqXS4oCUNadE14-SErM9P8X_VUo9vxsDdassXfKZDBb6B8Ab7mvURpZPxkyLQZW4XOICsRiCuW7VMqS77BMniO3H6l6ZeklxmwICie3woO0ir_kqnDWYLjzkSDg_hwi4Osml5lls3IVUDK8BPj_h732o3VesM4D_upaQ1sVBHkPzu-1eb7LTKqVgfnAsVIgf_je8boO0ktS3Yirx24Xvvpo04rZcm4F40c3608gneKH5yzombwuAZeFa_47NGH_417277TmACGLrGd6SRl0Fgn5CimRTBQo-KGcQoX7f71uQWXO0si4s84LZDHGORbTQPuXcT8auW7OxPJQx7Wkk2eiZZGjEKMxNZTJgT9cSOtJN8MM6fkKViAYjsNagMYlg-joxAiKC7JkF0ys2X4XZ1NfdsAtSDgv2IC1TrQQK0xo7lgZxPxFs3USMTiICvZRL_2zwPWRdxv5cucQYzg_J2vtUS4hfWcV_e2nl2e37tGdfHtL3S-DGMK7Cjy5RVbo6Ktn1s-wfZINaoP8TbDh8K5KJbO9YFy38Vhs0CKYhFNR17rfd0mGdWlj4Evpilz0y0]--></g></svg>