<?xml version="1.0" encoding="us-ascii" standalone="no"?><svg xmlns="http://www.w3.org/2000/svg" xmlns:xlink="http://www.w3.org/1999/xlink" contentStyleType="text/css" height="889px" preserveAspectRatio="none" style="width:546px;height:889px;background:#FFFFFF;" version="1.1" viewBox="0 0 546 889" width="546px" zoomAndPan="magnify"><defs/><g><text fill="#000000" font-family="sans-serif" font-size="14" font-weight="bold" lengthAdjust="spacing" textLength="284" x="133.25" y="30.1074">US021 - System Sequence Diagram (SSD)</text><rect fill="#FFFFFF" height="663.9473" style="stroke:#181818;stroke-width:1.0;" width="10" x="33.5" y="133.2422"/><rect fill="#FFFFFF" height="57.582" style="stroke:#181818;stroke-width:1.0;" width="10" x="381.5" y="156.5332"/><rect fill="#FFFFFF" height="133.873" style="stroke:#181818;stroke-width:1.0;" width="10" x="381.5" y="245.4063"/><rect fill="#FFFFFF" height="176.1641" style="stroke:#181818;stroke-width:1.0;" width="10" x="381.5" y="410.5703"/><rect fill="#FFFFFF" height="107.582" style="stroke:#181818;stroke-width:1.0;" width="10" x="381.5" y="618.0254"/><rect fill="#FFFFFF" height="31.291" style="stroke:#181818;stroke-width:1.0;" width="10" x="381.5" y="756.8984"/><rect fill="none" height="106.873" style="stroke:#000000;stroke-width:1.5;" width="461" x="10" y="171.5332"/><rect fill="none" height="106.873" style="stroke:#000000;stroke-width:1.5;" width="461" x="10" y="336.6973"/><rect fill="none" height="106.873" style="stroke:#000000;stroke-width:1.5;" width="461" x="10" y="544.1523"/><line style="stroke:#181818;stroke-width:0.5;stroke-dasharray:5.0,5.0;" x1="38" x2="38" y1="123.2422" y2="806.1895"/><line style="stroke:#181818;stroke-width:0.5;stroke-dasharray:5.0,5.0;" x1="386" x2="386" y1="123.2422" y2="806.1895"/><text fill="#000000" font-family="sans-serif" font-size="14" lengthAdjust="spacing" textLength="31" x="20" y="119.7285">GSM</text><ellipse cx="38.5" cy="53.1211" fill="#E3E3E3" rx="8" ry="8" style="stroke:#181818;stroke-width:0.5;"/><path d="M38.5,61.1211 L38.5,88.1211 M25.5,69.1211 L51.5,69.1211 M38.5,88.1211 L25.5,103.1211 M38.5,88.1211 L51.5,103.1211 " fill="none" style="stroke:#181818;stroke-width:0.5;"/><text fill="#000000" font-family="sans-serif" font-size="14" lengthAdjust="spacing" textLength="31" x="20" y="820.2969">GSM</text><ellipse cx="38.5" cy="832.3105" fill="#E3E3E3" rx="8" ry="8" style="stroke:#181818;stroke-width:0.5;"/><path d="M38.5,840.3105 L38.5,867.3105 M25.5,848.3105 L51.5,848.3105 M38.5,867.3105 L25.5,882.3105 M38.5,867.3105 L51.5,882.3105 " fill="none" style="stroke:#181818;stroke-width:0.5;"/><rect fill="#E3E3E3" height="32.6211" rx="2.5" ry="2.5" style="stroke:#181818;stroke-width:0.5;" width="149" x="312" y="89.6211"/><text fill="#000000" font-family="sans-serif" font-size="14" lengthAdjust="spacing" textLength="135" x="319" y="111.7285">:AddNewEntryToDoUI</text><rect fill="#E3E3E3" height="32.6211" rx="2.5" ry="2.5" style="stroke:#181818;stroke-width:0.5;" width="149" x="312" y="805.1895"/><text fill="#000000" font-family="sans-serif" font-size="14" lengthAdjust="spacing" textLength="135" x="319" y="827.2969">:AddNewEntryToDoUI</text><rect fill="#FFFFFF" height="663.9473" style="stroke:#181818;stroke-width:1.0;" width="10" x="33.5" y="133.2422"/><rect fill="#FFFFFF" height="57.582" style="stroke:#181818;stroke-width:1.0;" width="10" x="381.5" y="156.5332"/><rect fill="#FFFFFF" height="133.873" style="stroke:#181818;stroke-width:1.0;" width="10" x="381.5" y="245.4063"/><rect fill="#FFFFFF" height="176.1641" style="stroke:#181818;stroke-width:1.0;" width="10" x="381.5" y="410.5703"/><rect fill="#FFFFFF" height="107.582" style="stroke:#181818;stroke-width:1.0;" width="10" x="381.5" y="618.0254"/><rect fill="#FFFFFF" height="31.291" style="stroke:#181818;stroke-width:1.0;" width="10" x="381.5" y="756.8984"/><polygon fill="#181818" points="369.5,152.5332,379.5,156.5332,369.5,160.5332,373.5,156.5332" style="stroke:#181818;stroke-width:1.0;"/><line style="stroke:#181818;stroke-width:1.0;" x1="43.5" x2="375.5" y1="156.5332" y2="156.5332"/><text fill="#000000" font-family="sans-serif" font-size="13" font-weight="bold" lengthAdjust="spacing" textLength="7" x="50.5" y="151.2705">1</text><text fill="#000000" font-family="sans-serif" font-size="13" lengthAdjust="spacing" textLength="222" x="61.5" y="151.2705">Asks to add a new entry on To-Do List</text><path d="M10,171.5332 L83,171.5332 L83,180.8242 L73,190.8242 L10,190.8242 L10,171.5332 " fill="#EEEEEE" style="stroke:#000000;stroke-width:1.5;"/><rect fill="none" height="106.873" style="stroke:#000000;stroke-width:1.5;" width="461" x="10" y="171.5332"/><text fill="#000000" font-family="sans-serif" font-size="13" font-weight="bold" lengthAdjust="spacing" textLength="28" x="25" y="186.5615">loop</text><text fill="#000000" font-family="sans-serif" font-size="11" font-weight="bold" lengthAdjust="spacing" textLength="189" x="98" y="185.4033">[until doesn't select a valid option]</text><polygon fill="#181818" points="54.5,210.1152,44.5,214.1152,54.5,218.1152,50.5,214.1152" style="stroke:#181818;stroke-width:1.0;"/><line style="stroke:#181818;stroke-width:1.0;stroke-dasharray:2.0,2.0;" x1="48.5" x2="385.5" y1="214.1152" y2="214.1152"/><text fill="#000000" font-family="sans-serif" font-size="13" font-weight="bold" lengthAdjust="spacing" textLength="7" x="60.5" y="208.8525">2</text><text fill="#000000" font-family="sans-serif" font-size="13" lengthAdjust="spacing" textLength="292" x="71.5" y="208.8525">Shows list of green spaces and asks to select one</text><polygon fill="#181818" points="369.5,241.4063,379.5,245.4063,369.5,249.4063,373.5,245.4063" style="stroke:#181818;stroke-width:1.0;"/><line style="stroke:#181818;stroke-width:1.0;" x1="43.5" x2="375.5" y1="245.4063" y2="245.4063"/><text fill="#000000" font-family="sans-serif" font-size="13" font-weight="bold" lengthAdjust="spacing" textLength="7" x="50.5" y="240.1436">3</text><text fill="#000000" font-family="sans-serif" font-size="13" lengthAdjust="spacing" textLength="130" x="61.5" y="240.1436">Selects a green space</text><line style="stroke:#181818;stroke-width:1.0;stroke-dasharray:2.0,2.0;" x1="391.5" x2="433.5" y1="308.6973" y2="308.6973"/><line style="stroke:#181818;stroke-width:1.0;stroke-dasharray:2.0,2.0;" x1="433.5" x2="433.5" y1="308.6973" y2="321.6973"/><line style="stroke:#181818;stroke-width:1.0;stroke-dasharray:2.0,2.0;" x1="392.5" x2="433.5" y1="321.6973" y2="321.6973"/><polygon fill="#181818" points="402.5,317.6973,392.5,321.6973,402.5,325.6973,398.5,321.6973" style="stroke:#181818;stroke-width:1.0;"/><text fill="#000000" font-family="sans-serif" font-size="13" font-weight="bold" lengthAdjust="spacing" textLength="7" x="398.5" y="303.4346">4</text><text fill="#000000" font-family="sans-serif" font-size="13" lengthAdjust="spacing" textLength="130" x="409.5" y="303.4346">keepData(greenspace)</text><path d="M10,336.6973 L83,336.6973 L83,345.9883 L73,355.9883 L10,355.9883 L10,336.6973 " fill="#EEEEEE" style="stroke:#000000;stroke-width:1.5;"/><rect fill="none" height="106.873" style="stroke:#000000;stroke-width:1.5;" width="461" x="10" y="336.6973"/><text fill="#000000" font-family="sans-serif" font-size="13" font-weight="bold" lengthAdjust="spacing" textLength="28" x="25" y="351.7256">loop</text><text fill="#000000" font-family="sans-serif" font-size="11" font-weight="bold" lengthAdjust="spacing" textLength="157" x="98" y="350.5674">[until typed data is validated]</text><polygon fill="#181818" points="54.5,375.2793,44.5,379.2793,54.5,383.2793,50.5,379.2793" style="stroke:#181818;stroke-width:1.0;"/><line style="stroke:#181818;stroke-width:1.0;stroke-dasharray:2.0,2.0;" x1="48.5" x2="385.5" y1="379.2793" y2="379.2793"/><text fill="#000000" font-family="sans-serif" font-size="13" font-weight="bold" lengthAdjust="spacing" textLength="7" x="60.5" y="374.0166">5</text><text fill="#000000" font-family="sans-serif" font-size="13" lengthAdjust="spacing" textLength="230" x="71.5" y="374.0166">Requests data (taskType, taskDuration)</text><polygon fill="#181818" points="369.5,406.5703,379.5,410.5703,369.5,414.5703,373.5,410.5703" style="stroke:#181818;stroke-width:1.0;"/><line style="stroke:#181818;stroke-width:1.0;" x1="43.5" x2="375.5" y1="410.5703" y2="410.5703"/><text fill="#000000" font-family="sans-serif" font-size="13" font-weight="bold" lengthAdjust="spacing" textLength="7" x="50.5" y="405.3076">6</text><text fill="#000000" font-family="sans-serif" font-size="13" lengthAdjust="spacing" textLength="125" x="61.5" y="405.3076">Types requested data</text><line style="stroke:#181818;stroke-width:1.0;stroke-dasharray:2.0,2.0;" x1="391.5" x2="433.5" y1="491.1523" y2="491.1523"/><line style="stroke:#181818;stroke-width:1.0;stroke-dasharray:2.0,2.0;" x1="433.5" x2="433.5" y1="491.1523" y2="504.1523"/><line style="stroke:#181818;stroke-width:1.0;stroke-dasharray:2.0,2.0;" x1="392.5" x2="433.5" y1="504.1523" y2="504.1523"/><polygon fill="#181818" points="402.5,500.1523,392.5,504.1523,402.5,508.1523,398.5,504.1523" style="stroke:#181818;stroke-width:1.0;"/><text fill="#000000" font-family="sans-serif" font-size="13" font-weight="bold" lengthAdjust="spacing" textLength="7" x="398.5" y="477.2441">7</text><text fill="#000000" font-family="sans-serif" font-size="13" lengthAdjust="spacing" textLength="116" x="409.5" y="468.5986">keepData(taskType,</text><text fill="#000000" font-family="sans-serif" font-size="13" lengthAdjust="spacing" textLength="77" x="409.5" y="485.8896">taskDuration)</text><path d="M10,544.1523 L83,544.1523 L83,553.4434 L73,563.4434 L10,563.4434 L10,544.1523 " fill="#EEEEEE" style="stroke:#000000;stroke-width:1.5;"/><rect fill="none" height="106.873" style="stroke:#000000;stroke-width:1.5;" width="461" x="10" y="544.1523"/><text fill="#000000" font-family="sans-serif" font-size="13" font-weight="bold" lengthAdjust="spacing" textLength="28" x="25" y="559.1807">loop</text><text fill="#000000" font-family="sans-serif" font-size="11" font-weight="bold" lengthAdjust="spacing" textLength="189" x="98" y="558.0225">[until doesn't select a valid option]</text><polygon fill="#181818" points="54.5,582.7344,44.5,586.7344,54.5,590.7344,50.5,586.7344" style="stroke:#181818;stroke-width:1.0;"/><line style="stroke:#181818;stroke-width:1.0;stroke-dasharray:2.0,2.0;" x1="48.5" x2="385.5" y1="586.7344" y2="586.7344"/><text fill="#000000" font-family="sans-serif" font-size="13" font-weight="bold" lengthAdjust="spacing" textLength="7" x="60.5" y="581.4717">8</text><text fill="#000000" font-family="sans-serif" font-size="13" lengthAdjust="spacing" textLength="303" x="71.5" y="581.4717">Shows list of available teams and asks to select one</text><polygon fill="#181818" points="369.5,614.0254,379.5,618.0254,369.5,622.0254,373.5,618.0254" style="stroke:#181818;stroke-width:1.0;"/><line style="stroke:#181818;stroke-width:1.0;" x1="43.5" x2="375.5" y1="618.0254" y2="618.0254"/><text fill="#000000" font-family="sans-serif" font-size="13" font-weight="bold" lengthAdjust="spacing" textLength="7" x="50.5" y="612.7627">9</text><text fill="#000000" font-family="sans-serif" font-size="13" lengthAdjust="spacing" textLength="88" x="61.5" y="612.7627">Selects a team</text><line style="stroke:#181818;stroke-width:1.0;stroke-dasharray:2.0,2.0;" x1="391.5" x2="433.5" y1="681.3164" y2="681.3164"/><line style="stroke:#181818;stroke-width:1.0;stroke-dasharray:2.0,2.0;" x1="433.5" x2="433.5" y1="681.3164" y2="694.3164"/><line style="stroke:#181818;stroke-width:1.0;stroke-dasharray:2.0,2.0;" x1="392.5" x2="433.5" y1="694.3164" y2="694.3164"/><polygon fill="#181818" points="402.5,690.3164,392.5,694.3164,402.5,698.3164,398.5,694.3164" style="stroke:#181818;stroke-width:1.0;"/><text fill="#000000" font-family="sans-serif" font-size="13" font-weight="bold" lengthAdjust="spacing" textLength="14" x="398.5" y="676.0537">10</text><text fill="#000000" font-family="sans-serif" font-size="13" lengthAdjust="spacing" textLength="92" x="416.5" y="676.0537">keepData(team)</text><polygon fill="#181818" points="54.5,721.6074,44.5,725.6074,54.5,729.6074,50.5,725.6074" style="stroke:#181818;stroke-width:1.0;"/><line style="stroke:#181818;stroke-width:1.0;stroke-dasharray:2.0,2.0;" x1="48.5" x2="385.5" y1="725.6074" y2="725.6074"/><text fill="#000000" font-family="sans-serif" font-size="13" font-weight="bold" lengthAdjust="spacing" textLength="14" x="60.5" y="720.3447">11</text><text fill="#000000" font-family="sans-serif" font-size="13" lengthAdjust="spacing" textLength="238" x="78.5" y="720.3447">Shows all data and requests confirmation</text><polygon fill="#181818" points="369.5,752.8984,379.5,756.8984,369.5,760.8984,373.5,756.8984" style="stroke:#181818;stroke-width:1.0;"/><line style="stroke:#181818;stroke-width:1.0;" x1="43.5" x2="375.5" y1="756.8984" y2="756.8984"/><text fill="#000000" font-family="sans-serif" font-size="13" font-weight="bold" lengthAdjust="spacing" textLength="14" x="50.5" y="751.6357">12</text><text fill="#000000" font-family="sans-serif" font-size="13" lengthAdjust="spacing" textLength="80" x="68.5" y="751.6357">Confirms data</text><polygon fill="#181818" points="54.5,784.1895,44.5,788.1895,54.5,792.1895,50.5,788.1895" style="stroke:#181818;stroke-width:1.0;"/><line style="stroke:#181818;stroke-width:1.0;stroke-dasharray:2.0,2.0;" x1="48.5" x2="385.5" y1="788.1895" y2="788.1895"/><text fill="#000000" font-family="sans-serif" font-size="13" font-weight="bold" lengthAdjust="spacing" textLength="14" x="60.5" y="782.9268">13</text><text fill="#000000" font-family="sans-serif" font-size="13" lengthAdjust="spacing" textLength="160" x="78.5" y="782.9268">Displays operation success</text><!--SRC=[fLJ1Zjem4BtxAqPS5gGYjJrogBHggcgbRGyDt7gPZGUmSEpKuu0YyV4T6ue20HQfSuc9PzwyUVC2RunhC60DjNU-MWTV4yJGakBJJOFL1bTKniuI1AeYkfNj9_0QjTyPju8bMYQbeecIkYW_Vlu4KoWxZbH3INzQSXL1ON2LoiPbMKoKmZPwrzPl5EHSHHzWzBtyCG9aaAUI5j5Kfa4NOJHxrledxRwv6BgvB_pY9USjNdAfsMAaNAH0GWum_IANC8DdtZ143wWr83ZQ0IKCy0xcVbfuU3KSSzK9Hq3JR-jz0wsBneBsnEuf0fCL5GHdYzPey4qqtkNaov3UKw6GcCoWNFiTWvL6u9Um2aGEMCGb1dH2wqZnYEuT3I0rzTaDhli3bnb5aFkDXYMNq_PZlzyFtf7Jvo372NFF3L5JOCHnRfaxodulLOnTGngqv87XWuH2e0Tx9jglv1gMGNB1E8fASm7u0EbKj06JzXDrGvs-8gcCnRyPxyX0NLrv6bmDfhqwwOdFRpSaT8RLZ__or0FUmYqQYs_o3KR2-c5xFMYp-tPB7M_NtFFRFT_TzD-xNany9ke1yT3QWycIMk6VxIhlbYRKUQlgN9XB3RuUKlc6iwxxkp3SMEnODau7xm2tbVmdy1LF_mK0]--></g></svg>