<?xml version="1.0" encoding="us-ascii" standalone="no"?><svg xmlns="http://www.w3.org/2000/svg" xmlns:xlink="http://www.w3.org/1999/xlink" contentStyleType="text/css" height="1092px" preserveAspectRatio="none" style="width:1010px;height:1092px;background:#FFFFFF;" version="1.1" viewBox="0 0 1010 1092" width="1010px" zoomAndPan="magnify"><defs/><g><text fill="#000000" font-family="sans-serif" font-size="14" font-weight="bold" lengthAdjust="spacing" textLength="100" x="448.25" y="25.1074">Domain Model</text><!--class Organization--><g id="elem_Organization"><rect codeLine="12" fill="#F1F1F1" height="129.7266" id="Organization" rx="2.5" ry="2.5" style="stroke:#181818;stroke-width:0.5;" width="101" x="158" y="46.6211"/><text fill="#000000" font-family="sans-serif" font-size="14" lengthAdjust="spacing" textLength="80" x="168.5" y="66.7285">Organization</text><line style="stroke:#181818;stroke-width:0.5;" x1="159" x2="258" y1="75.2422" y2="75.2422"/><text fill="#000000" font-family="sans-serif" font-size="14" lengthAdjust="spacing" textLength="35" x="164" y="94.3496">name</text><text fill="#000000" font-family="sans-serif" font-size="14" lengthAdjust="spacing" textLength="68" x="164" y="112.9707">vatNumber</text><text fill="#000000" font-family="sans-serif" font-size="14" lengthAdjust="spacing" textLength="47" x="164" y="131.5918">website</text><text fill="#000000" font-family="sans-serif" font-size="14" lengthAdjust="spacing" textLength="89" x="164" y="150.2129">phoneNumber</text><text fill="#000000" font-family="sans-serif" font-size="14" lengthAdjust="spacing" textLength="33" x="164" y="168.834">email</text></g><!--class Employee--><g id="elem_Employee"><rect codeLine="20" fill="#F1F1F1" height="166.9688" id="Employee" rx="2.5" ry="2.5" style="stroke:#181818;stroke-width:0.5;" width="105" x="285" y="255.6211"/><text fill="#000000" font-family="sans-serif" font-size="14" lengthAdjust="spacing" textLength="62" x="306.5" y="275.7285">Employee</text><line style="stroke:#181818;stroke-width:0.5;" x1="286" x2="389" y1="284.2422" y2="284.2422"/><text fill="#000000" font-family="sans-serif" font-size="14" lengthAdjust="spacing" textLength="35" x="291" y="303.3496">name</text><text fill="#000000" font-family="sans-serif" font-size="14" lengthAdjust="spacing" textLength="93" x="291" y="321.9707">admissionDate</text><text fill="#000000" font-family="sans-serif" font-size="14" lengthAdjust="spacing" textLength="58" x="291" y="340.5918">birthDate</text><text fill="#000000" font-family="sans-serif" font-size="14" lengthAdjust="spacing" textLength="51" x="291" y="359.2129">address</text><text fill="#000000" font-family="sans-serif" font-size="14" lengthAdjust="spacing" textLength="69" x="291" y="377.834">contactInfo</text><text fill="#000000" font-family="sans-serif" font-size="14" lengthAdjust="spacing" textLength="68" x="291" y="396.4551">IdDocType</text><text fill="#000000" font-family="sans-serif" font-size="14" lengthAdjust="spacing" textLength="60" x="291" y="415.0762">IdNumber</text></g><!--class HRM--><g id="elem_HRM"><rect codeLine="30" fill="#F1F1F1" height="36.6211" id="HRM" rx="2.5" ry="2.5" style="stroke:#181818;stroke-width:0.5;" width="36" x="656.5" y="93.1211"/><text fill="#000000" font-family="sans-serif" font-size="14" lengthAdjust="spacing" textLength="30" x="659.5" y="113.2285">HRM</text><line style="stroke:#181818;stroke-width:0.5;" x1="657.5" x2="691.5" y1="121.7422" y2="121.7422"/></g><!--class FM--><g id="elem_FM"><rect codeLine="34" fill="#F1F1F1" height="36.6211" id="FM" rx="2.5" ry="2.5" style="stroke:#181818;stroke-width:0.5;" width="26" x="345.5" y="529.1211"/><text fill="#000000" font-family="sans-serif" font-size="14" lengthAdjust="spacing" textLength="20" x="348.5" y="549.2285">FM</text><line style="stroke:#181818;stroke-width:0.5;" x1="346.5" x2="370.5" y1="557.7422" y2="557.7422"/></g><!--class Collaborator--><g id="elem_Collaborator"><rect codeLine="38" fill="#F1F1F1" height="73.8633" id="Collaborator" rx="2.5" ry="2.5" style="stroke:#181818;stroke-width:0.5;" width="84" x="801.5" y="691.1211"/><text fill="#000000" font-family="sans-serif" font-size="14" lengthAdjust="spacing" textLength="78" x="804.5" y="711.2285">Collaborator</text><line style="stroke:#181818;stroke-width:0.5;" x1="802.5" x2="884.5" y1="719.7422" y2="719.7422"/><text fill="#000000" font-family="sans-serif" font-size="14" lengthAdjust="spacing" textLength="30" x="807.5" y="738.8496">skills</text><text fill="#000000" font-family="sans-serif" font-size="14" lengthAdjust="spacing" textLength="19" x="807.5" y="757.4707">job</text></g><!--class Skill--><g id="elem_Skill"><rect codeLine="43" fill="#F1F1F1" height="73.8633" id="Skill" rx="2.5" ry="2.5" style="stroke:#181818;stroke-width:0.5;" width="81" x="868" y="937.1211"/><text fill="#000000" font-family="sans-serif" font-size="14" lengthAdjust="spacing" textLength="25" x="896" y="957.2285">Skill</text><line style="stroke:#181818;stroke-width:0.5;" x1="869" x2="948" y1="965.7422" y2="965.7422"/><text fill="#000000" font-family="sans-serif" font-size="14" lengthAdjust="spacing" textLength="35" x="874" y="984.8496">name</text><text fill="#000000" font-family="sans-serif" font-size="14" lengthAdjust="spacing" textLength="69" x="874" y="1003.4707">description</text></g><!--class Job--><g id="elem_Job"><rect codeLine="48" fill="#F1F1F1" height="55.2422" id="Job" rx="2.5" ry="2.5" style="stroke:#181818;stroke-width:0.5;" width="70" x="651.5" y="946.6211"/><text fill="#000000" font-family="sans-serif" font-size="14" lengthAdjust="spacing" textLength="22" x="675.5" y="966.7285">Job</text><line style="stroke:#181818;stroke-width:0.5;" x1="652.5" x2="720.5" y1="975.2422" y2="975.2422"/><text fill="#000000" font-family="sans-serif" font-size="14" lengthAdjust="spacing" textLength="58" x="657.5" y="994.3496">job name</text></g><!--class Vehicle--><g id="elem_Vehicle"><rect codeLine="52" fill="#F1F1F1" height="222.832" id="Vehicle" rx="2.5" ry="2.5" style="stroke:#181818;stroke-width:0.5;" width="161" x="236" y="862.6211"/><text fill="#000000" font-family="sans-serif" font-size="14" lengthAdjust="spacing" textLength="46" x="293.5" y="882.7285">Vehicle</text><line style="stroke:#181818;stroke-width:0.5;" x1="237" x2="396" y1="891.2422" y2="891.2422"/><text fill="#000000" font-family="sans-serif" font-size="14" lengthAdjust="spacing" textLength="46" x="242" y="910.3496">plate id</text><text fill="#000000" font-family="sans-serif" font-size="14" lengthAdjust="spacing" textLength="37" x="242" y="928.9707">brand</text><text fill="#000000" font-family="sans-serif" font-size="14" lengthAdjust="spacing" textLength="38" x="242" y="947.5918">model</text><text fill="#000000" font-family="sans-serif" font-size="14" lengthAdjust="spacing" textLength="27" x="242" y="966.2129">type</text><text fill="#000000" font-family="sans-serif" font-size="14" lengthAdjust="spacing" textLength="25" x="242" y="984.834">tare</text><text fill="#000000" font-family="sans-serif" font-size="14" lengthAdjust="spacing" textLength="79" x="242" y="1003.4551">gross weight</text><text fill="#000000" font-family="sans-serif" font-size="14" lengthAdjust="spacing" textLength="67" x="242" y="1022.0762">current km</text><text fill="#000000" font-family="sans-serif" font-size="14" lengthAdjust="spacing" textLength="80" x="242" y="1040.6973">register date</text><text fill="#000000" font-family="sans-serif" font-size="14" lengthAdjust="spacing" textLength="99" x="242" y="1059.3184">acquisition date</text><text fill="#000000" font-family="sans-serif" font-size="14" lengthAdjust="spacing" textLength="149" x="242" y="1077.9395">checkup frequency kms</text></g><!--class Checkup--><g id="elem_Checkup"><rect codeLine="65" fill="#F1F1F1" height="73.8633" id="Checkup" rx="2.5" ry="2.5" style="stroke:#181818;stroke-width:0.5;" width="81" x="207" y="691.1211"/><text fill="#000000" font-family="sans-serif" font-size="14" lengthAdjust="spacing" textLength="56" x="219.5" y="711.2285">Checkup</text><line style="stroke:#181818;stroke-width:0.5;" x1="208" x2="287" y1="719.7422" y2="719.7422"/><text fill="#000000" font-family="sans-serif" font-size="14" lengthAdjust="spacing" textLength="28" x="213" y="738.8496">date</text><text fill="#000000" font-family="sans-serif" font-size="14" lengthAdjust="spacing" textLength="69" x="213" y="757.4707">description</text></g><!--class Team_Proposal--><g id="elem_Team_Proposal"><rect codeLine="70" fill="#F1F1F1" height="73.8633" id="Team_Proposal" rx="2.5" ry="2.5" style="stroke:#181818;stroke-width:0.5;" width="106" x="621.5" y="302.1211"/><text fill="#000000" font-family="sans-serif" font-size="14" lengthAdjust="spacing" textLength="100" x="624.5" y="322.2285">Team_Proposal</text><line style="stroke:#181818;stroke-width:0.5;" x1="622.5" x2="726.5" y1="330.7422" y2="330.7422"/><text fill="#000000" font-family="sans-serif" font-size="14" lengthAdjust="spacing" textLength="87" x="627.5" y="349.8496">maxTeamSize</text><text fill="#000000" font-family="sans-serif" font-size="14" lengthAdjust="spacing" textLength="66" x="627.5" y="368.4707">setOfSkills</text></g><!--class Team--><g id="elem_Team"><rect codeLine="75" fill="#F1F1F1" height="92.4844" id="Team" rx="2.5" ry="2.5" style="stroke:#181818;stroke-width:0.5;" width="81" x="634" y="501.6211"/><text fill="#000000" font-family="sans-serif" font-size="14" lengthAdjust="spacing" textLength="36" x="656.5" y="521.7285">Team</text><line style="stroke:#181818;stroke-width:0.5;" x1="635" x2="714" y1="530.2422" y2="530.2422"/><text fill="#000000" font-family="sans-serif" font-size="14" lengthAdjust="spacing" textLength="35" x="640" y="549.3496">name</text><text fill="#000000" font-family="sans-serif" font-size="14" lengthAdjust="spacing" textLength="69" x="640" y="567.9707">description</text><text fill="#000000" font-family="sans-serif" font-size="14" lengthAdjust="spacing" textLength="58" x="640" y="586.5918">members</text></g><!--class Agenda--><g id="elem_Agenda"><rect codeLine="81" fill="#F1F1F1" height="36.6211" id="Agenda" rx="2.5" ry="2.5" style="stroke:#181818;stroke-width:0.5;" width="55" x="711" y="709.6211"/><text fill="#000000" font-family="sans-serif" font-size="14" lengthAdjust="spacing" textLength="49" x="714" y="729.7285">Agenda</text><line style="stroke:#181818;stroke-width:0.5;" x1="712" x2="765" y1="738.2422" y2="738.2422"/></g><!--class Task--><g id="elem_Task"><rect codeLine="85" fill="#F1F1F1" height="111.1055" id="Task" rx="2.5" ry="2.5" style="stroke:#181818;stroke-width:0.5;" width="81" x="530" y="672.6211"/><text fill="#000000" font-family="sans-serif" font-size="14" lengthAdjust="spacing" textLength="31" x="555" y="692.7285">Task</text><line style="stroke:#181818;stroke-width:0.5;" x1="531" x2="610" y1="701.2422" y2="701.2422"/><text fill="#000000" font-family="sans-serif" font-size="14" lengthAdjust="spacing" textLength="69" x="536" y="720.3496">description</text><text fill="#000000" font-family="sans-serif" font-size="14" lengthAdjust="spacing" textLength="54" x="536" y="738.9707">deadline</text><text fill="#000000" font-family="sans-serif" font-size="14" lengthAdjust="spacing" textLength="38" x="536" y="757.5918">status</text><text fill="#000000" font-family="sans-serif" font-size="14" lengthAdjust="spacing" textLength="43" x="536" y="776.2129">priority</text></g><!--class System_User--><g id="elem_System_User"><rect codeLine="92" fill="#F1F1F1" height="92.4844" id="System_User" rx="2.5" ry="2.5" style="stroke:#181818;stroke-width:0.5;" width="89" x="221" y="501.6211"/><text fill="#000000" font-family="sans-serif" font-size="14" lengthAdjust="spacing" textLength="83" x="224" y="521.7285">System_User</text><line style="stroke:#181818;stroke-width:0.5;" x1="222" x2="309" y1="530.2422" y2="530.2422"/><text fill="#000000" font-family="sans-serif" font-size="14" lengthAdjust="spacing" textLength="63" x="227" y="549.3496">username</text><text fill="#000000" font-family="sans-serif" font-size="14" lengthAdjust="spacing" textLength="60" x="227" y="567.9707">password</text><text fill="#000000" font-family="sans-serif" font-size="14" lengthAdjust="spacing" textLength="33" x="227" y="586.5918">email</text></g><!--class GSU--><g id="elem_GSU"><rect codeLine="98" fill="#F1F1F1" height="36.6211" id="GSU" rx="2.5" ry="2.5" style="stroke:#181818;stroke-width:0.5;" width="35" x="174" y="320.6211"/><text fill="#000000" font-family="sans-serif" font-size="14" lengthAdjust="spacing" textLength="29" x="177" y="340.7285">GSU</text><line style="stroke:#181818;stroke-width:0.5;" x1="175" x2="208" y1="349.2422" y2="349.2422"/></g><!--class Portal--><g id="elem_Portal"><rect codeLine="102" fill="#F1F1F1" height="36.6211" id="Portal" rx="2.5" ry="2.5" style="stroke:#181818;stroke-width:0.5;" width="43" x="7" y="529.1211"/><text fill="#000000" font-family="sans-serif" font-size="14" lengthAdjust="spacing" textLength="37" x="10" y="549.2285">Portal</text><line style="stroke:#181818;stroke-width:0.5;" x1="8" x2="49" y1="557.7422" y2="557.7422"/></g><!--class Comment--><g id="elem_Comment"><rect codeLine="106" fill="#F1F1F1" height="92.4844" id="Comment" rx="2.5" ry="2.5" style="stroke:#181818;stroke-width:0.5;" width="66" x="50.5" y="682.1211"/><text fill="#000000" font-family="sans-serif" font-size="14" lengthAdjust="spacing" textLength="60" x="53.5" y="702.2285">Comment</text><line style="stroke:#181818;stroke-width:0.5;" x1="51.5" x2="115.5" y1="710.7422" y2="710.7422"/><text fill="#000000" font-family="sans-serif" font-size="14" lengthAdjust="spacing" textLength="28" x="56.5" y="729.8496">date</text><text fill="#000000" font-family="sans-serif" font-size="14" lengthAdjust="spacing" textLength="22" x="56.5" y="748.4707">text</text><text fill="#000000" font-family="sans-serif" font-size="14" lengthAdjust="spacing" textLength="41" x="56.5" y="767.0918">author</text></g><!--class Green_Space--><g id="elem_Green_Space"><rect codeLine="112" fill="#F1F1F1" height="92.4844" id="Green_Space" rx="2.5" ry="2.5" style="stroke:#181818;stroke-width:0.5;" width="94" x="32.5" y="293.1211"/><text fill="#000000" font-family="sans-serif" font-size="14" lengthAdjust="spacing" textLength="88" x="35.5" y="313.2285">Green_Space</text><line style="stroke:#181818;stroke-width:0.5;" x1="33.5" x2="125.5" y1="321.7422" y2="321.7422"/><text fill="#000000" font-family="sans-serif" font-size="14" lengthAdjust="spacing" textLength="35" x="38.5" y="340.8496">name</text><text fill="#000000" font-family="sans-serif" font-size="14" lengthAdjust="spacing" textLength="49" x="38.5" y="359.4707">location</text><text fill="#000000" font-family="sans-serif" font-size="14" lengthAdjust="spacing" textLength="69" x="38.5" y="378.0918">description</text></g><!--link Organization to Green_Space--><g id="link_Organization_Green_Space"><path codeLine="118" d="M171.88,176.6411 C150.65,213.7511 124.43,259.5811 105.36,292.9211 " fill="none" id="Organization-Green_Space" style="stroke:#181818;stroke-width:1.0;"/><polygon fill="#000000" points="155.0172,220.6066,162.0596,214.2148,156.9576,211.2961,155.0172,220.6066" style="stroke:#000000;stroke-width:1.0;"/><text fill="#000000" font-family="sans-serif" font-size="13" lengthAdjust="spacing" textLength="53" x="166.5" y="221.6494">manages</text><text fill="#000000" font-family="sans-serif" font-size="13" lengthAdjust="spacing" textLength="7" x="160.7426" y="198.2803">1</text><text fill="#000000" font-family="sans-serif" font-size="13" lengthAdjust="spacing" textLength="20" x="87.6894" y="281.9012">1..*</text></g><!--link Green_Space to Portal--><g id="link_Green_Space_Portal"><path codeLine="119" d="M68.37,385.1811 C57.23,430.2811 40.67,497.3611 32.86,528.9511 " fill="none" id="Green_Space-Portal" style="stroke:#181818;stroke-width:1.0;"/><polygon fill="#000000" points="55.3011,467.1207,60.3231,459.0442,54.6168,457.6348,55.3011,467.1207" style="stroke:#000000;stroke-width:1.0;"/><text fill="#000000" font-family="sans-serif" font-size="13" lengthAdjust="spacing" textLength="21" x="65.5" y="467.6494">has</text><text fill="#000000" font-family="sans-serif" font-size="13" lengthAdjust="spacing" textLength="7" x="59.1298" y="407.5491">1</text><text fill="#000000" font-family="sans-serif" font-size="13" lengthAdjust="spacing" textLength="7" x="26.1234" y="517.7612">1</text></g><!--link GSU to System_User--><g id="link_GSU_System_User"><path codeLine="120" d="M197.81,357.7311 C209.1,389.2311 227.0074,439.2164 243.1774,484.3364 " fill="none" id="GSU-to-System_User" style="stroke:#181818;stroke-width:1.0;"/><polygon fill="none" points="249.25,501.2811,248.8256,482.3122,237.5292,486.3606,249.25,501.2811" style="stroke:#181818;stroke-width:1.0;"/></g><!--link Employee to System_User--><g id="link_Employee_System_User"><path codeLine="121" d="M308.73,422.6211 C299.37,449.4711 295.2579,461.2852 287.2079,484.3652 " fill="none" id="Employee-to-System_User" style="stroke:#181818;stroke-width:1.0;"/><polygon fill="none" points="281.28,501.3611,292.8732,486.3412,281.5426,482.3892,281.28,501.3611" style="stroke:#181818;stroke-width:1.0;"/></g><!--link Organization to Employee--><g id="link_Organization_Employee"><path codeLine="122" d="M245.12,176.6411 C259.12,201.1211 275.3,229.3911 290.16,255.3711 " fill="none" id="Organization-Employee" style="stroke:#181818;stroke-width:1.0;"/><polygon fill="#000000" points="280.9828,220.6066,279.0423,211.2961,273.9404,214.2148,280.9828,220.6066" style="stroke:#000000;stroke-width:1.0;"/><text fill="#000000" font-family="sans-serif" font-size="13" lengthAdjust="spacing" textLength="21" x="287.5" y="221.6494">has</text><text fill="#000000" font-family="sans-serif" font-size="13" lengthAdjust="spacing" textLength="7" x="241.5355" y="198.2803">1</text><text fill="#000000" font-family="sans-serif" font-size="13" lengthAdjust="spacing" textLength="5" x="280.8769" y="244.4855">*</text></g><!--link HRM to Employee--><g id="link_HRM_Employee"><path codeLine="123" d="M656.22,117.1811 C616.07,127.8311 518.36,157.2311 450.5,206.6211 C428.35,222.7411 419.2657,230.2437 401.8057,250.9737 " fill="none" id="HRM-to-Employee" style="stroke:#181818;stroke-width:1.0;"/><polygon fill="none" points="390.21,264.7411,406.3948,254.8389,397.2165,247.1085,390.21,264.7411" style="stroke:#181818;stroke-width:1.0;"/></g><!--reverse link Employee to FM--><g id="link_Employee_FM"><path codeLine="124" d="M347.7117,440.5287 C351.7117,479.8487 354.31,505.4511 356.71,529.0411 " fill="none" id="Employee-backto-FM" style="stroke:#181818;stroke-width:1.0;"/><polygon fill="none" points="345.89,422.6211,341.7425,441.1359,353.6809,439.9214,345.89,422.6211" style="stroke:#181818;stroke-width:1.0;"/></g><!--link HRM to Job--><g id="link_HRM_Job"><path codeLine="125" d="M656.23,122.0011 C607.21,148.6211 476.5,229.7511 476.5,338.1211 C476.5,338.1211 476.5,338.1211 476.5,729.1211 C476.5,835.0311 591.57,917.8411 651.35,953.7211 " fill="none" id="HRM-Job" style="stroke:#181818;stroke-width:1.0;"/><polygon fill="#000000" points="481.4707,552.7665,484.4626,543.7388,478.5849,543.7043,481.4707,552.7665" style="stroke:#000000;stroke-width:1.0;"/><text fill="#000000" font-family="sans-serif" font-size="13" lengthAdjust="spacing" textLength="50" x="490.5" y="553.1494">registers</text><text fill="#000000" font-family="sans-serif" font-size="13" lengthAdjust="spacing" textLength="7" x="641.4744" y="119.8185">1</text><text fill="#000000" font-family="sans-serif" font-size="13" lengthAdjust="spacing" textLength="5" x="638.5847" y="944.7938">*</text></g><!--link HRM to Collaborator--><g id="link_HRM_Collaborator"><path codeLine="126" d="M692.53,130.3011 C709.47,148.0011 734.15,176.8311 747.5,206.6211 C823.7,376.6311 839.42,603.8311 842.66,690.9911 " fill="none" id="HRM-Collaborator" style="stroke:#181818;stroke-width:1.0;"/><polygon fill="#000000" points="825.7932,467.0965,826.2927,457.599,820.6148,459.1193,825.7932,467.0965" style="stroke:#000000;stroke-width:1.0;"/><text fill="#000000" font-family="sans-serif" font-size="13" lengthAdjust="spacing" textLength="50" x="833.5" y="467.6494">registers</text><text fill="#000000" font-family="sans-serif" font-size="13" lengthAdjust="spacing" textLength="7" x="689.4349" y="151.7241">1</text><text fill="#000000" font-family="sans-serif" font-size="13" lengthAdjust="spacing" textLength="5" x="837.0651" y="679.9297">*</text></g><!--link HRM to Skill--><g id="link_HRM_Skill"><path codeLine="127" d="M692.65,118.1511 C752.29,137.5611 938.5,208.5211 938.5,338.1211 C938.5,338.1211 938.5,338.1211 938.5,729.1211 C938.5,803.3811 924.64,889.4211 915.76,936.9111 " fill="none" id="HRM-Skill" style="stroke:#181818;stroke-width:1.0;"/><polygon fill="#000000" points="944.8146,552.5907,945.272,543.0911,939.601,544.6365,944.8146,552.5907" style="stroke:#000000;stroke-width:1.0;"/><text fill="#000000" font-family="sans-serif" font-size="13" lengthAdjust="spacing" textLength="50" x="952.5" y="553.1494">registers</text><text fill="#000000" font-family="sans-serif" font-size="13" lengthAdjust="spacing" textLength="7" x="700.6334" y="114.5765">1</text><text fill="#000000" font-family="sans-serif" font-size="13" lengthAdjust="spacing" textLength="5" x="911.6079" y="925.8354">*</text></g><!--link Collaborator to Skill--><g id="link_Collaborator_Skill"><path codeLine="128" d="M853.09,765.1211 C865.38,811.2611 886.56,890.7711 898.87,936.9711 " fill="none" id="Collaborator-Skill" style="stroke:#181818;stroke-width:1.0;"/><polygon fill="#000000" points="875.7871,828.0981,876.2986,818.6013,870.6188,820.1144,875.7871,828.0981" style="stroke:#000000;stroke-width:1.0;"/><text fill="#000000" font-family="sans-serif" font-size="13" lengthAdjust="spacing" textLength="21" x="883.5" y="828.6494">has</text><text fill="#000000" font-family="sans-serif" font-size="13" lengthAdjust="spacing" textLength="7" x="847.1367" y="787.0065">1</text><text fill="#000000" font-family="sans-serif" font-size="13" lengthAdjust="spacing" textLength="5" x="891.7093" y="925.9061">*</text></g><!--link Collaborator to Job--><g id="link_Collaborator_Job"><path codeLine="129" d="M820.33,765.1211 C788.52,814.5711 732.03,902.3611 703.7,946.3911 " fill="none" id="Collaborator-Job" style="stroke:#181818;stroke-width:1.0;"/><polygon fill="#000000" points="789.7946,827.4714,797.1603,821.455,792.2172,818.2746,789.7946,827.4714" style="stroke:#000000;stroke-width:1.0;"/><text fill="#000000" font-family="sans-serif" font-size="13" lengthAdjust="spacing" textLength="21" x="801.5" y="828.6494">has</text><text fill="#000000" font-family="sans-serif" font-size="13" lengthAdjust="spacing" textLength="7" x="808.7461" y="787.0065">1</text><text fill="#000000" font-family="sans-serif" font-size="13" lengthAdjust="spacing" textLength="5" x="701.9156" y="935.4994">*</text></g><!--link Checkup to Vehicle--><g id="link_Checkup_Vehicle"><path codeLine="130" d="M257.68,765.1211 C264.99,790.9711 275.26,827.3011 285.18,862.3811 " fill="none" id="Checkup-Vehicle" style="stroke:#181818;stroke-width:1.0;"/><polygon fill="#000000" points="282.8604,828.078,283.2275,818.5745,277.5714,820.1737,282.8604,828.078" style="stroke:#000000;stroke-width:1.0;"/><text fill="#000000" font-family="sans-serif" font-size="13" lengthAdjust="spacing" textLength="21" x="290.5" y="828.6494">has</text><text fill="#000000" font-family="sans-serif" font-size="13" lengthAdjust="spacing" textLength="7" x="251.8281" y="787.0065">1</text><text fill="#000000" font-family="sans-serif" font-size="13" lengthAdjust="spacing" textLength="5" x="277.9077" y="851.3462">*</text></g><!--link FM to Vehicle--><g id="link_FM_Vehicle"><path codeLine="131" d="M356.75,566.3211 C351.84,615.9811 337.62,759.7011 327.47,862.2011 " fill="none" id="FM-Vehicle" style="stroke:#181818;stroke-width:1.0;"/><polygon fill="#000000" points="351.0076,733.2423,354.823,724.5306,348.9737,723.9518,351.0076,733.2423" style="stroke:#000000;stroke-width:1.0;"/><text fill="#000000" font-family="sans-serif" font-size="13" lengthAdjust="spacing" textLength="50" x="360.5" y="733.6494">registers</text><text fill="#000000" font-family="sans-serif" font-size="13" lengthAdjust="spacing" textLength="7" x="348.3391" y="587.7494">1</text><text fill="#000000" font-family="sans-serif" font-size="13" lengthAdjust="spacing" textLength="5" x="323.0126" y="851.5297">*</text></g><!--link FM to Checkup--><g id="link_FM_Checkup"><path codeLine="132" d="M349.09,566.4611 C343.68,575.4511 336.23,586.0311 327.5,593.6211 C305,613.1811 285.52,599.8711 267.5,623.6211 C253.01,642.7211 248.11,669.3711 246.78,690.8511 " fill="none" id="FM-Checkup" style="stroke:#181818;stroke-width:1.0;"/><polygon fill="#000000" points="269.3238,637.1282,277.3394,632.0094,272.7998,628.2756,269.3238,637.1282" style="stroke:#000000;stroke-width:1.0;"/><text fill="#000000" font-family="sans-serif" font-size="13" lengthAdjust="spacing" textLength="50" x="281.5" y="638.6494">registers</text><text fill="#000000" font-family="sans-serif" font-size="13" lengthAdjust="spacing" textLength="7" x="338.6204" y="587.9271">1</text><text fill="#000000" font-family="sans-serif" font-size="13" lengthAdjust="spacing" textLength="5" x="241.2064" y="679.7647">*</text></g><!--link HRM to Team_Proposal--><g id="link_HRM_Team_Proposal"><path codeLine="133" d="M674.5,130.3111 C674.5,167.1711 674.5,252.8211 674.5,301.8811 " fill="none" id="HRM-Team_Proposal" style="stroke:#181818;stroke-width:1.0;"/><polygon fill="#000000" points="679.5,221.2666,682.4389,212.2215,676.5611,212.2215,679.5,221.2666" style="stroke:#000000;stroke-width:1.0;"/><text fill="#000000" font-family="sans-serif" font-size="13" lengthAdjust="spacing" textLength="50" x="688.5" y="221.6494">registers</text><text fill="#000000" font-family="sans-serif" font-size="13" lengthAdjust="spacing" textLength="7" x="666.5594" y="151.7367">1</text><text fill="#000000" font-family="sans-serif" font-size="13" lengthAdjust="spacing" textLength="5" x="669.0547" y="290.8001">*</text></g><!--link Task to Agenda--><g id="link_Task_Agenda"><path codeLine="134" d="M611.17,728.1211 C642.05,728.1211 683.69,728.1211 710.81,728.1211 " fill="none" id="Task-Agenda" style="stroke:#181818;stroke-width:1.0;"/><polygon fill="#000000" points="638.5,715.7666,629.4549,712.8277,629.4549,718.7055,638.5,715.7666" style="stroke:#000000;stroke-width:1.0;"/><text fill="#000000" font-family="sans-serif" font-size="13" lengthAdjust="spacing" textLength="50" x="642.5" y="721.1494">is part of</text><text fill="#000000" font-family="sans-serif" font-size="13" lengthAdjust="spacing" textLength="5" x="619.1295" y="723.5993">*</text><text fill="#000000" font-family="sans-serif" font-size="13" lengthAdjust="spacing" textLength="7" x="695.8176" y="723.0571">1</text></g><!--link Team to Task--><g id="link_Team_Task"><path codeLine="135" d="M648.26,593.6611 C634.3,617.6211 617.02,647.2711 602.3,672.5311 " fill="none" id="Team-Task" style="stroke:#181818;stroke-width:1.0;"/><polygon fill="#000000" points="631.9826,637.5866,639.0759,631.2513,633.9974,628.2919,631.9826,637.5866" style="stroke:#000000;stroke-width:1.0;"/><text fill="#000000" font-family="sans-serif" font-size="13" lengthAdjust="spacing" textLength="21" x="643.5" y="638.6494">has</text><text fill="#000000" font-family="sans-serif" font-size="13" lengthAdjust="spacing" textLength="7" x="636.7061" y="616.026">1</text><text fill="#000000" font-family="sans-serif" font-size="13" lengthAdjust="spacing" textLength="5" x="601.0541" y="661.3598">*</text></g><!--link Portal to Comment--><g id="link_Portal_Comment"><path codeLine="136" d="M33.97,566.3911 C42.21,593.1111 58.04,644.4911 69.6,681.9911 " fill="none" id="Portal-Comment" style="stroke:#181818;stroke-width:1.0;"/><polygon fill="#000000" points="62.9727,638.0448,63.1171,628.5353,57.5,630.2666,62.9727,638.0448" style="stroke:#000000;stroke-width:1.0;"/><text fill="#000000" font-family="sans-serif" font-size="13" lengthAdjust="spacing" textLength="21" x="70.5" y="638.6494">has</text><text fill="#000000" font-family="sans-serif" font-size="13" lengthAdjust="spacing" textLength="7" x="27.4994" y="587.8382">1</text><text fill="#000000" font-family="sans-serif" font-size="13" lengthAdjust="spacing" textLength="5" x="62.1913" y="670.9814">*</text></g><!--link GSU to Comment--><g id="link_GSU_Comment"><path codeLine="137" d="M185.16,357.9011 C174.72,387.5011 153.57,448.8411 138.5,501.6211 C120.8,563.6211 103.74,636.2011 93.43,681.9311 " fill="none" id="GSU-Comment" style="stroke:#181818;stroke-width:1.0;"/><polygon fill="#000000" points="142.1381,552.5775,147.4296,544.675,141.774,543.0739,142.1381,552.5775" style="stroke:#000000;stroke-width:1.0;"/><text fill="#000000" font-family="sans-serif" font-size="13" lengthAdjust="spacing" textLength="50" x="152.5" y="553.1494">registers</text><text fill="#000000" font-family="sans-serif" font-size="13" lengthAdjust="spacing" textLength="7" x="175.5155" y="379.3509">1</text><text fill="#000000" font-family="sans-serif" font-size="13" lengthAdjust="spacing" textLength="5" x="89.5213" y="670.9126">*</text></g><!--link Team_Proposal to Team--><g id="link_Team_Proposal_Team"><path codeLine="138" d="M674.5,376.5611 C674.5,411.4111 674.5,464.0611 674.5,501.5411 " fill="none" id="Team_Proposal-Team" style="stroke:#181818;stroke-width:1.0;"/><polygon fill="#000000" points="679.5,467.2666,682.4389,458.2215,676.5611,458.2215,679.5,467.2666" style="stroke:#000000;stroke-width:1.0;"/><text fill="#000000" font-family="sans-serif" font-size="13" lengthAdjust="spacing" textLength="57" x="688.5" y="467.6494">generates</text><text fill="#000000" font-family="sans-serif" font-size="13" lengthAdjust="spacing" textLength="7" x="666.9422" y="397.9452">1</text><text fill="#000000" font-family="sans-serif" font-size="13" lengthAdjust="spacing" textLength="5" x="669.1172" y="490.197">*</text></g><!--link Team to Collaborator--><g id="link_Team_Collaborator"><path codeLine="139" d="M709.86,593.6311 C722.84,609.5011 737.93,627.2111 752.5,642.6211 C761.76,652.4111 783.67,672.7911 803.67,691.0811 " fill="none" id="Team-Collaborator" style="stroke:#181818;stroke-width:1.0;"/><polygon fill="#000000" points="760.9676,636.8688,756.8119,628.3142,752.5773,632.3906,760.9676,636.8688" style="stroke:#000000;stroke-width:1.0;"/><text fill="#000000" font-family="sans-serif" font-size="13" lengthAdjust="spacing" textLength="21" x="766.5" y="638.6494">has</text><text fill="#000000" font-family="sans-serif" font-size="13" lengthAdjust="spacing" textLength="7" x="707.7386" y="615.9915">1</text><text fill="#000000" font-family="sans-serif" font-size="13" lengthAdjust="spacing" textLength="20" x="774.4826" y="679.7524">1..*</text></g><!--SRC=[XLLDJnin4Btlhx1oGQeKHAyz8A5IA9Keg0kzeeazsNNZZyNsDeIq_xtZzMRZtOJ21O_dpVERhurVITE00ysqDPRNpcfamRLO-C7J05z1XMNOA6GEUG1JgHpWQn1sBKt5bg0y5YTxbv86mwP1PbseRN6YS1bOiCp9gWvCo4WdhSd8k0BlBq9mSj46lE7MbF8LsLbHIu6CIyVfxUwiaIY5BueW0ocxj1gaORTMe2gAZeRTkGgCV8Nu1jiMZFuCQEmElo5yR_K2NMUjSU5bI9wcjWOp7nAnAlxkIB_eHjaDufGGX9RUqqkNq1Cj96KzM224G- -xCwKLW8SRixITVICkBN-WGlLM__hmvjSVjzjYRrwDhCzMALXO1y6wf8dAgLHwwPTTx95bl9_85kYvaqtNXW7upIwsk_047Lm_iPRKW-Hk56N7f4ZfEZ3ffBicn5FOvHJ0fKFbBB6iCKv0gaNh79h0Lhep7LRI1tHC38NZpwsaxiGc3fUyHhvg6xPq-DoYuHkAzrbDaZkf78AEvlg0e9_kdMsiXxuu6bxYRPoyL4yCTyio5NKKzvzQTZmOsvZ5N5He1EJDUm2_sXuD5WWYxazI422qgQEDazR9iCdQkg62wQT7Ztt_MpeDeXg2hAqJnsRvkdpCnTpJciOQvBEbDJLdKiU0BwbtqD8EPdDwxH3DKqcV39oKHbaEMMgZFepMTFPnnkPp-dTw-c6M4x9FRAR1qAV8i_DPaNk6c5cVGiJMa73b8_d-dETLAeOTFl0SrK92XeWzCorbYj_vYgjuqJRvLGHbDBHOaM4tv0DF1idN-JriDvC7e173CNIVm5kuNkGErMzQ1kY_0HdewlOD_qZO6BKZVYV7qNuUWEF-TB3vFFsenCYqPX4hFSs_2ymkEp1HZQXZy3w9VdP6lUZ6Vp9Enm5ZMIFHasmYcXGY5HxzWQuq-DCfw9__1m00]--></g></svg>