<?xml version="1.0" encoding="us-ascii" standalone="no"?><svg xmlns="http://www.w3.org/2000/svg" xmlns:xlink="http://www.w3.org/1999/xlink" contentStyleType="text/css" height="575.4px" preserveAspectRatio="none" style="width:610px;height:575px;background:#FFFFFF;" version="1.1" viewBox="0 0 610 575" width="610.2px" zoomAndPan="magnify"><defs/><g><!--class Organization--><g id="elem_Organization"><rect codeLine="12" fill="#F1F1F1" height="77.8359" id="Organization" rx="1.5" ry="1.5" style="stroke:#181818;stroke-width:0.3;" width="60.6" x="91.5" y="4.2"/><text fill="#000000" font-family="sans-serif" font-size="8.4" lengthAdjust="spacing" textLength="48" x="97.8" y="16.2645">Organization</text><line style="stroke:#181818;stroke-width:0.3;" x1="92.1" x2="151.5" y1="21.3727" y2="21.3727"/><text fill="#000000" font-family="sans-serif" font-size="8.4" lengthAdjust="spacing" textLength="21" x="95.1" y="32.8371">name</text><text fill="#000000" font-family="sans-serif" font-size="8.4" lengthAdjust="spacing" textLength="40.8" x="95.1" y="44.0098">vatNumber</text><text fill="#000000" font-family="sans-serif" font-size="8.4" lengthAdjust="spacing" textLength="28.2" x="95.1" y="55.1824">website</text><text fill="#000000" font-family="sans-serif" font-size="8.4" lengthAdjust="spacing" textLength="53.4" x="95.1" y="66.3551">phoneNumber</text><text fill="#000000" font-family="sans-serif" font-size="8.4" lengthAdjust="spacing" textLength="19.8" x="95.1" y="77.5277">email</text></g><!--class Employee--><g id="elem_Employee"><rect codeLine="20" fill="#F1F1F1" height="100.1812" id="Employee" rx="1.5" ry="1.5" style="stroke:#181818;stroke-width:0.3;" width="63" x="153.3" y="129.6"/><text fill="#000000" font-family="sans-serif" font-size="8.4" lengthAdjust="spacing" textLength="37.2" x="166.2" y="141.6645">Employee</text><line style="stroke:#181818;stroke-width:0.3;" x1="153.9" x2="215.7" y1="146.7727" y2="146.7727"/><text fill="#000000" font-family="sans-serif" font-size="8.4" lengthAdjust="spacing" textLength="21" x="156.9" y="158.2371">name</text><text fill="#000000" font-family="sans-serif" font-size="8.4" lengthAdjust="spacing" textLength="55.8" x="156.9" y="169.4098">admissionDate</text><text fill="#000000" font-family="sans-serif" font-size="8.4" lengthAdjust="spacing" textLength="34.8" x="156.9" y="180.5824">birthDate</text><text fill="#000000" font-family="sans-serif" font-size="8.4" lengthAdjust="spacing" textLength="30.6" x="156.9" y="191.7551">address</text><text fill="#000000" font-family="sans-serif" font-size="8.4" lengthAdjust="spacing" textLength="41.4" x="156.9" y="202.9277">contactInfo</text><text fill="#000000" font-family="sans-serif" font-size="8.4" lengthAdjust="spacing" textLength="40.8" x="156.9" y="214.1004">IdDocType</text><text fill="#000000" font-family="sans-serif" font-size="8.4" lengthAdjust="spacing" textLength="36" x="156.9" y="225.273">IdNumber</text></g><!--class HRM--><g id="elem_HRM"><rect codeLine="30" fill="#F1F1F1" height="21.9727" id="HRM" rx="1.5" ry="1.5" style="stroke:#181818;stroke-width:0.3;" width="21.6" x="397.8" y="32.1"/><text fill="#000000" font-family="sans-serif" font-size="8.4" lengthAdjust="spacing" textLength="18" x="399.6" y="44.1645">HRM</text><line style="stroke:#181818;stroke-width:0.3;" x1="398.4" x2="418.8" y1="49.2727" y2="49.2727"/></g><!--class FM--><g id="elem_FM"><rect codeLine="34" fill="#F1F1F1" height="21.9727" id="FM" rx="1.5" ry="1.5" style="stroke:#181818;stroke-width:0.3;" width="15.6" x="211.2" y="293.7"/><text fill="#000000" font-family="sans-serif" font-size="8.4" lengthAdjust="spacing" textLength="12" x="213" y="305.7645">FM</text><line style="stroke:#181818;stroke-width:0.3;" x1="211.8" x2="226.2" y1="310.8727" y2="310.8727"/></g><!--class Collaborator--><g id="elem_Collaborator"><rect codeLine="38" fill="#F1F1F1" height="44.318" id="Collaborator" rx="1.5" ry="1.5" style="stroke:#181818;stroke-width:0.3;" width="50.4" x="484.8" y="390.9"/><text fill="#000000" font-family="sans-serif" font-size="8.4" lengthAdjust="spacing" textLength="46.8" x="486.6" y="402.9645">Collaborator</text><line style="stroke:#181818;stroke-width:0.3;" x1="485.4" x2="534.6" y1="408.0727" y2="408.0727"/><text fill="#000000" font-family="sans-serif" font-size="8.4" lengthAdjust="spacing" textLength="18" x="488.4" y="419.5371">skills</text><text fill="#000000" font-family="sans-serif" font-size="8.4" lengthAdjust="spacing" textLength="11.4" x="488.4" y="430.7098">job</text></g><!--class Skill--><g id="elem_Skill"><rect codeLine="43" fill="#F1F1F1" height="44.318" id="Skill" rx="1.5" ry="1.5" style="stroke:#181818;stroke-width:0.3;" width="48.6" x="519.3" y="510.6"/><text fill="#000000" font-family="sans-serif" font-size="8.4" lengthAdjust="spacing" textLength="15" x="536.1" y="522.6645">Skill</text><line style="stroke:#181818;stroke-width:0.3;" x1="519.9" x2="567.3" y1="527.7727" y2="527.7727"/><text fill="#000000" font-family="sans-serif" font-size="8.4" lengthAdjust="spacing" textLength="21" x="522.9" y="539.2371">name</text><text fill="#000000" font-family="sans-serif" font-size="8.4" lengthAdjust="spacing" textLength="41.4" x="522.9" y="550.4098">description</text></g><!--class Job--><g id="elem_Job"><rect codeLine="48" fill="#F1F1F1" height="33.1453" id="Job" rx="1.5" ry="1.5" style="stroke:#181818;stroke-width:0.3;" width="42" x="326.4" y="516.3"/><text fill="#000000" font-family="sans-serif" font-size="8.4" lengthAdjust="spacing" textLength="13.2" x="340.8" y="528.3645">Job</text><line style="stroke:#181818;stroke-width:0.3;" x1="327" x2="367.8" y1="533.4727" y2="533.4727"/><text fill="#000000" font-family="sans-serif" font-size="8.4" lengthAdjust="spacing" textLength="34.8" x="330" y="544.9371">job name</text></g><!--class Vehicle--><g id="elem_Vehicle"><rect codeLine="52" fill="#F1F1F1" height="77.8359" id="Vehicle" rx="1.5" ry="1.5" style="stroke:#181818;stroke-width:0.3;" width="31.2" x="186" y="493.8"/><text fill="#000000" font-family="sans-serif" font-size="8.4" lengthAdjust="spacing" textLength="27.6" x="187.8" y="505.8645">Vehicle</text><line style="stroke:#181818;stroke-width:0.3;" x1="186.6" x2="216.6" y1="510.9727" y2="510.9727"/><text fill="#000000" font-family="sans-serif" font-size="8.4" lengthAdjust="spacing" textLength="18.6" x="189.6" y="522.4371">plate</text><text fill="#000000" font-family="sans-serif" font-size="8.4" lengthAdjust="spacing" textLength="22.2" x="189.6" y="533.6098">brand</text><text fill="#000000" font-family="sans-serif" font-size="8.4" lengthAdjust="spacing" textLength="22.8" x="189.6" y="544.7824">model</text><text fill="#000000" font-family="sans-serif" font-size="8.4" lengthAdjust="spacing" textLength="16.8" x="189.6" y="555.9551">year</text><text fill="#000000" font-family="sans-serif" font-size="8.4" lengthAdjust="spacing" textLength="18.6" x="189.6" y="567.1277">color</text></g><!--class Checkup--><g id="elem_Checkup"><rect codeLine="60" fill="#F1F1F1" height="44.318" id="Checkup" rx="1.5" ry="1.5" style="stroke:#181818;stroke-width:0.3;" width="48.6" x="128.1" y="390.9"/><text fill="#000000" font-family="sans-serif" font-size="8.4" lengthAdjust="spacing" textLength="33.6" x="135.6" y="402.9645">Checkup</text><line style="stroke:#181818;stroke-width:0.3;" x1="128.7" x2="176.1" y1="408.0727" y2="408.0727"/><text fill="#000000" font-family="sans-serif" font-size="8.4" lengthAdjust="spacing" textLength="16.8" x="131.7" y="419.5371">date</text><text fill="#000000" font-family="sans-serif" font-size="8.4" lengthAdjust="spacing" textLength="41.4" x="131.7" y="430.7098">description</text></g><!--class Team_Proposal--><g id="elem_Team_Proposal"><rect codeLine="65" fill="#F1F1F1" height="44.318" id="Team_Proposal" rx="1.5" ry="1.5" style="stroke:#181818;stroke-width:0.3;" width="63.6" x="376.8" y="157.5"/><text fill="#000000" font-family="sans-serif" font-size="8.4" lengthAdjust="spacing" textLength="60" x="378.6" y="169.5645">Team_Proposal</text><line style="stroke:#181818;stroke-width:0.3;" x1="377.4" x2="439.8" y1="174.6727" y2="174.6727"/><text fill="#000000" font-family="sans-serif" font-size="8.4" lengthAdjust="spacing" textLength="52.2" x="380.4" y="186.1371">maxTeamSize</text><text fill="#000000" font-family="sans-serif" font-size="8.4" lengthAdjust="spacing" textLength="39.6" x="380.4" y="197.3098">setOfSkills</text></g><!--class Team--><g id="elem_Team"><rect codeLine="70" fill="#F1F1F1" height="55.4906" id="Team" rx="1.5" ry="1.5" style="stroke:#181818;stroke-width:0.3;" width="48.6" x="384.3" y="277.2"/><text fill="#000000" font-family="sans-serif" font-size="8.4" lengthAdjust="spacing" textLength="21.6" x="397.8" y="289.2645">Team</text><line style="stroke:#181818;stroke-width:0.3;" x1="384.9" x2="432.3" y1="294.3727" y2="294.3727"/><text fill="#000000" font-family="sans-serif" font-size="8.4" lengthAdjust="spacing" textLength="21" x="387.9" y="305.8371">name</text><text fill="#000000" font-family="sans-serif" font-size="8.4" lengthAdjust="spacing" textLength="41.4" x="387.9" y="317.0098">description</text><text fill="#000000" font-family="sans-serif" font-size="8.4" lengthAdjust="spacing" textLength="34.8" x="387.9" y="328.1824">members</text></g><!--class Agenda--><g id="elem_Agenda"><rect codeLine="76" fill="#F1F1F1" height="21.9727" id="Agenda" rx="1.5" ry="1.5" style="stroke:#181818;stroke-width:0.3;" width="33" x="430.5" y="402"/><text fill="#000000" font-family="sans-serif" font-size="8.4" lengthAdjust="spacing" textLength="29.4" x="432.3" y="414.0645">Agenda</text><line style="stroke:#181818;stroke-width:0.3;" x1="431.1" x2="462.9" y1="419.1727" y2="419.1727"/></g><!--class Task--><g id="elem_Task"><rect codeLine="80" fill="#F1F1F1" height="66.6633" id="Task" rx="1.5" ry="1.5" style="stroke:#181818;stroke-width:0.3;" width="48.6" x="321.9" y="379.8"/><text fill="#000000" font-family="sans-serif" font-size="8.4" lengthAdjust="spacing" textLength="18.6" x="336.9" y="391.8645">Task</text><line style="stroke:#181818;stroke-width:0.3;" x1="322.5" x2="369.9" y1="396.9727" y2="396.9727"/><text fill="#000000" font-family="sans-serif" font-size="8.4" lengthAdjust="spacing" textLength="41.4" x="325.5" y="408.4371">description</text><text fill="#000000" font-family="sans-serif" font-size="8.4" lengthAdjust="spacing" textLength="32.4" x="325.5" y="419.6098">deadline</text><text fill="#000000" font-family="sans-serif" font-size="8.4" lengthAdjust="spacing" textLength="22.8" x="325.5" y="430.7824">status</text><text fill="#000000" font-family="sans-serif" font-size="8.4" lengthAdjust="spacing" textLength="25.8" x="325.5" y="441.9551">priority</text></g><!--class System_User--><g id="elem_System_User"><rect codeLine="87" fill="#F1F1F1" height="55.4906" id="System_User" rx="1.5" ry="1.5" style="stroke:#181818;stroke-width:0.3;" width="53.4" x="136.5" y="277.2"/><text fill="#000000" font-family="sans-serif" font-size="8.4" lengthAdjust="spacing" textLength="49.8" x="138.3" y="289.2645">System_User</text><line style="stroke:#181818;stroke-width:0.3;" x1="137.1" x2="189.3" y1="294.3727" y2="294.3727"/><text fill="#000000" font-family="sans-serif" font-size="8.4" lengthAdjust="spacing" textLength="37.8" x="140.1" y="305.8371">username</text><text fill="#000000" font-family="sans-serif" font-size="8.4" lengthAdjust="spacing" textLength="36" x="140.1" y="317.0098">password</text><text fill="#000000" font-family="sans-serif" font-size="8.4" lengthAdjust="spacing" textLength="19.8" x="140.1" y="328.1824">email</text></g><!--class GSU--><g id="elem_GSU"><rect codeLine="93" fill="#F1F1F1" height="21.9727" id="GSU" rx="1.5" ry="1.5" style="stroke:#181818;stroke-width:0.3;" width="21" x="84.9" y="168.6"/><text fill="#000000" font-family="sans-serif" font-size="8.4" lengthAdjust="spacing" textLength="17.4" x="86.7" y="180.6645">GSU</text><line style="stroke:#181818;stroke-width:0.3;" x1="85.5" x2="105.3" y1="185.7727" y2="185.7727"/></g><!--class Portal--><g id="elem_Portal"><rect codeLine="97" fill="#F1F1F1" height="21.9727" id="Portal" rx="1.5" ry="1.5" style="stroke:#181818;stroke-width:0.3;" width="25.8" x="8.1" y="293.7"/><text fill="#000000" font-family="sans-serif" font-size="8.4" lengthAdjust="spacing" textLength="22.2" x="9.9" y="305.7645">Portal</text><line style="stroke:#181818;stroke-width:0.3;" x1="8.7" x2="33.3" y1="310.8727" y2="310.8727"/></g><!--class Comment--><g id="elem_Comment"><rect codeLine="101" fill="#F1F1F1" height="55.4906" id="Comment" rx="1.5" ry="1.5" style="stroke:#181818;stroke-width:0.3;" width="39.6" x="34.2" y="385.5"/><text fill="#000000" font-family="sans-serif" font-size="8.4" lengthAdjust="spacing" textLength="36" x="36" y="397.5645">Comment</text><line style="stroke:#181818;stroke-width:0.3;" x1="34.8" x2="73.2" y1="402.6727" y2="402.6727"/><text fill="#000000" font-family="sans-serif" font-size="8.4" lengthAdjust="spacing" textLength="16.8" x="37.8" y="414.1371">date</text><text fill="#000000" font-family="sans-serif" font-size="8.4" lengthAdjust="spacing" textLength="13.2" x="37.8" y="425.3098">text</text><text fill="#000000" font-family="sans-serif" font-size="8.4" lengthAdjust="spacing" textLength="24.6" x="37.8" y="436.4824">author</text></g><!--class Green_Space--><g id="elem_Green_Space"><rect codeLine="107" fill="#F1F1F1" height="55.4906" id="Green_Space" rx="1.5" ry="1.5" style="stroke:#181818;stroke-width:0.3;" width="56.4" x="4.2" y="152.1"/><text fill="#000000" font-family="sans-serif" font-size="8.4" lengthAdjust="spacing" textLength="52.8" x="6" y="164.1645">Green_Space</text><line style="stroke:#181818;stroke-width:0.3;" x1="4.8" x2="60" y1="169.2727" y2="169.2727"/><text fill="#000000" font-family="sans-serif" font-size="8.4" lengthAdjust="spacing" textLength="21" x="7.8" y="180.7371">name</text><text fill="#000000" font-family="sans-serif" font-size="8.4" lengthAdjust="spacing" textLength="29.4" x="7.8" y="191.9098">location</text><text fill="#000000" font-family="sans-serif" font-size="8.4" lengthAdjust="spacing" textLength="41.4" x="7.8" y="203.0824">description</text></g><!--link Organization to Green_Space--><g id="link_Organization_Green_Space"><path codeLine="113" d="M96.42,82.212 C81.708,104.478 63.54,131.976 50.316,151.98 " fill="none" id="Organization-Green_Space" style="stroke:#181818;stroke-width:0.6;"/><polygon fill="#000000" points="84.146,108.4902,88.6092,104.9346,85.6669,102.9903,84.146,108.4902" style="stroke:#000000;stroke-width:0.6;"/><text fill="#000000" font-family="sans-serif" font-size="7.8" lengthAdjust="spacing" textLength="31.8" x="91.2" y="109.217">manages</text><text fill="#000000" font-family="sans-serif" font-size="7.8" lengthAdjust="spacing" textLength="4.2" x="89.3861" y="95.1955">1</text><text fill="#000000" font-family="sans-serif" font-size="7.8" lengthAdjust="spacing" textLength="12" x="40.0662" y="145.368">1..*</text></g><!--link Green_Space to Portal--><g id="link_Green_Space_Portal"><path codeLine="114" d="M29.91,207.336 C27.42,234.396 23.718,274.644 21.978,293.598 " fill="none" id="Green_Space-Portal" style="stroke:#181818;stroke-width:0.6;"/><polygon fill="#000000" points="29.1253,256.5747,31.3782,251.3319,27.8663,251.009,29.1253,256.5747" style="stroke:#000000;stroke-width:0.6;"/><text fill="#000000" font-family="sans-serif" font-size="7.8" lengthAdjust="spacing" textLength="12.6" x="34.8" y="256.817">has</text><text fill="#000000" font-family="sans-serif" font-size="7.8" lengthAdjust="spacing" textLength="4.2" x="25.0072" y="220.7568">1</text><text fill="#000000" font-family="sans-serif" font-size="7.8" lengthAdjust="spacing" textLength="4.2" x="17.4344" y="286.8841">1</text></g><!--link GSU to System_User--><g id="link_GSU_System_User"><path codeLine="115" d="M101.178,190.866 C111.522,209.766 133.5,249.924 148.314,276.996 " fill="none" id="GSU-System_User" style="stroke:#181818;stroke-width:0.6;"/><polygon fill="#000000" points="141.8402,256.219,140.7817,250.6117,137.688,252.3048,141.8402,256.219" style="stroke:#000000;stroke-width:0.6;"/><text fill="#000000" font-family="sans-serif" font-size="7.8" lengthAdjust="spacing" textLength="6" x="145.8" y="256.817">is</text></g><!--link Employee to System_User--><g id="link_Employee_System_User"><path codeLine="116" d="M176.172,229.8 C173.364,245.91 170.346,263.196 167.934,277.044 " fill="none" id="Employee-System_User" style="stroke:#181818;stroke-width:0.6;"/><polygon fill="#000000" points="175.2847,256.5427,177.9541,251.4992,174.4798,250.8934,175.2847,256.5427" style="stroke:#000000;stroke-width:0.6;"/><text fill="#000000" font-family="sans-serif" font-size="7.8" lengthAdjust="spacing" textLength="6" x="181.2" y="256.817">is</text></g><!--link Organization to Employee--><g id="link_Organization_Employee"><path codeLine="117" d="M139.686,82.212 C146.526,96.9 154.422,113.862 161.682,129.45 " fill="none" id="Organization-Employee" style="stroke:#181818;stroke-width:0.6;"/><polygon fill="#000000" points="157.8664,108.7069,157.174,103.0427,153.9769,104.5314,157.8664,108.7069" style="stroke:#000000;stroke-width:0.6;"/><text fill="#000000" font-family="sans-serif" font-size="7.8" lengthAdjust="spacing" textLength="12.6" x="162" y="109.217">has</text><text fill="#000000" font-family="sans-serif" font-size="7.8" lengthAdjust="spacing" textLength="4.2" x="137.1139" y="95.1955">1</text><text fill="#000000" font-family="sans-serif" font-size="7.8" lengthAdjust="spacing" textLength="3" x="156.5664" y="122.9187">*</text></g><!--link HRM to Employee--><g id="link_HRM_Employee"><path codeLine="118" d="M397.68,46.122 C371.88,51.984 305.802,69.144 259.2,100.2 C243.456,110.694 228.606,125.106 216.378,138.75 " fill="none" id="HRM-Employee" style="stroke:#181818;stroke-width:0.6;"/><polygon fill="#000000" points="259.5285,107.3522,265.1636,106.4534,263.559,103.3128,259.5285,107.3522" style="stroke:#000000;stroke-width:0.6;"/><text fill="#000000" font-family="sans-serif" font-size="7.8" lengthAdjust="spacing" textLength="6" x="267.6" y="109.217">is</text></g><!--link Employee to FM--><g id="link_Employee_FM"><path codeLine="119" d="M198.462,229.8 C204.978,253.392 212.184,279.498 216.09,293.652 " fill="none" id="Employee-FM" style="stroke:#181818;stroke-width:0.6;"/><polygon fill="#000000" points="208.6016,250.6955,208.3461,256.3961,211.7457,255.4576,208.6016,250.6955" style="stroke:#000000;stroke-width:0.6;"/><text fill="#000000" font-family="sans-serif" font-size="7.8" lengthAdjust="spacing" textLength="6" x="214.8" y="256.817">is</text></g><!--link HRM to Job--><g id="link_HRM_Job"><path codeLine="120" d="M397.638,49.428 C368.226,65.4 289.8,114.078 289.8,179.1 C289.8,179.1 289.8,179.1 289.8,413.7 C289.8,453.732 316.716,494.406 333.75,516.138 " fill="none" id="HRM-Job" style="stroke:#181818;stroke-width:0.6;"/><polygon fill="#000000" points="292.3931,307.8596,294.8762,302.7218,291.3821,302.2435,292.3931,307.8596" style="stroke:#000000;stroke-width:0.6;"/><text fill="#000000" font-family="sans-serif" font-size="7.8" lengthAdjust="spacing" textLength="30" x="298.2" y="308.117">registers</text><text fill="#000000" font-family="sans-serif" font-size="7.8" lengthAdjust="spacing" textLength="4.2" x="388.7847" y="48.1184">1</text><text fill="#000000" font-family="sans-serif" font-size="7.8" lengthAdjust="spacing" textLength="3" x="327.4359" y="509.5978">*</text></g><!--link HRM to Collaborator--><g id="link_HRM_Collaborator"><path codeLine="121" d="M419.418,54.408 C429.582,65.028 444.39,82.326 452.4,100.2 C498.12,202.206 507.552,338.526 509.496,390.822 " fill="none" id="HRM-Collaborator" style="stroke:#181818;stroke-width:0.6;"/><polygon fill="#000000" points="499.3759,256.4852,499.6756,250.7868,496.2689,251.6989,499.3759,256.4852" style="stroke:#000000;stroke-width:0.6;"/><text fill="#000000" font-family="sans-serif" font-size="7.8" lengthAdjust="spacing" textLength="30" x="504" y="256.817">registers</text><text fill="#000000" font-family="sans-serif" font-size="7.8" lengthAdjust="spacing" textLength="4.2" x="417.561" y="67.2618">1</text><text fill="#000000" font-family="sans-serif" font-size="7.8" lengthAdjust="spacing" textLength="3" x="506.139" y="384.1851">*</text></g><!--link HRM to Skill--><g id="link_HRM_Skill"><path codeLine="122" d="M419.49,47.118 C455.274,58.764 567,101.34 567,179.1 C567,179.1 567,179.1 567,413.7 C567,447.984 557.454,486.816 550.56,510.396 " fill="none" id="HRM-Skill" style="stroke:#181818;stroke-width:0.6;"/><polygon fill="#000000" points="570.8167,307.774,571.036,302.0719,567.6425,303.032,570.8167,307.774" style="stroke:#000000;stroke-width:0.6;"/><text fill="#000000" font-family="sans-serif" font-size="7.8" lengthAdjust="spacing" textLength="30" x="575.4" y="308.117">registers</text><text fill="#000000" font-family="sans-serif" font-size="7.8" lengthAdjust="spacing" textLength="4.2" x="424.2801" y="44.9732">1</text><text fill="#000000" font-family="sans-serif" font-size="7.8" lengthAdjust="spacing" textLength="3" x="548.4984" y="503.9078">*</text></g><!--link Collaborator to Skill--><g id="link_Collaborator_Skill"><path codeLine="123" d="M516.162,435.432 C522.204,456.75 531.372,489.066 537.42,510.402 " fill="none" id="Collaborator-Skill" style="stroke:#181818;stroke-width:0.6;"/><polygon fill="#000000" points="530.6184,473.0735,530.8344,467.3713,527.4414,468.3333,530.6184,473.0735" style="stroke:#000000;stroke-width:0.6;"/><text fill="#000000" font-family="sans-serif" font-size="7.8" lengthAdjust="spacing" textLength="12.6" x="535.2" y="473.417">has</text><text fill="#000000" font-family="sans-serif" font-size="7.8" lengthAdjust="spacing" textLength="4.2" x="512.6348" y="448.4137">1</text><text fill="#000000" font-family="sans-serif" font-size="7.8" lengthAdjust="spacing" textLength="12" x="523.3266" y="503.9148">0..*</text></g><!--link Collaborator to Job--><g id="link_Collaborator_Job"><path codeLine="124" d="M487.182,435.306 C482.892,439.11 478.38,442.956 474,446.4 C438.42,474.39 394.074,503.154 368.424,519.246 " fill="none" id="Collaborator-Job" style="stroke:#181818;stroke-width:0.6;"/><polygon fill="#000000" points="447.5502,471.9189,452.9997,470.2264,450.9642,467.3465,447.5502,471.9189" style="stroke:#000000;stroke-width:0.6;"/><text fill="#000000" font-family="sans-serif" font-size="7.8" lengthAdjust="spacing" textLength="12.6" x="455.4" y="473.417">has</text><text fill="#000000" font-family="sans-serif" font-size="7.8" lengthAdjust="spacing" textLength="4.2" x="478.6992" y="448.4383">1</text><text fill="#000000" font-family="sans-serif" font-size="7.8" lengthAdjust="spacing" textLength="3" x="373.0696" y="513.6186">*</text></g><!--link Checkup to Vehicle--><g id="link_Checkup_Vehicle"><path codeLine="125" d="M161.424,435.432 C168.276,451.938 177.87,475.038 185.958,494.532 " fill="none" id="Checkup-Vehicle" style="stroke:#181818;stroke-width:0.6;"/><polygon fill="#000000" points="181.1502,472.958,180.6981,467.2697,177.4409,468.6218,181.1502,472.958" style="stroke:#000000;stroke-width:0.6;"/><text fill="#000000" font-family="sans-serif" font-size="7.8" lengthAdjust="spacing" textLength="12.6" x="185.4" y="473.417">has</text><text fill="#000000" font-family="sans-serif" font-size="7.8" lengthAdjust="spacing" textLength="4.2" x="158.3708" y="448.4137">1</text><text fill="#000000" font-family="sans-serif" font-size="7.8" lengthAdjust="spacing" textLength="3" x="180.6545" y="486.9442">*</text></g><!--link FM to Vehicle--><g id="link_FM_Vehicle"><path codeLine="126" d="M218.184,316.032 C215.784,347.346 208.65,440.322 204.564,493.584 " fill="none" id="FM-Vehicle" style="stroke:#181818;stroke-width:0.6;"/><polygon fill="#000000" points="216.3705,416.1785,218.5438,410.9022,215.0274,410.6325,216.3705,416.1785" style="stroke:#000000;stroke-width:0.6;"/><text fill="#000000" font-family="sans-serif" font-size="7.8" lengthAdjust="spacing" textLength="30" x="222" y="416.417">registers</text><text fill="#000000" font-family="sans-serif" font-size="7.8" lengthAdjust="spacing" textLength="4.2" x="213.2003" y="328.8922">1</text><text fill="#000000" font-family="sans-serif" font-size="7.8" lengthAdjust="spacing" textLength="3" x="201.7241" y="486.9725">*</text></g><!--link FM to Checkup--><g id="link_FM_Checkup"><path codeLine="127" d="M213.354,316.104 C210.108,321.498 205.638,327.846 200.4,332.4 C186.9,344.136 175.212,336.15 164.4,350.4 C155.706,361.86 152.766,377.85 151.968,390.738 " fill="none" id="FM-Checkup" style="stroke:#181818;stroke-width:0.6;"/><polygon fill="#000000" points="165.4943,358.5043,170.3036,355.433,167.5799,353.1927,165.4943,358.5043" style="stroke:#000000;stroke-width:0.6;"/><text fill="#000000" font-family="sans-serif" font-size="7.8" lengthAdjust="spacing" textLength="30" x="172.8" y="359.417">registers</text><text fill="#000000" font-family="sans-serif" font-size="7.8" lengthAdjust="spacing" textLength="4.2" x="207.0723" y="328.9836">1</text><text fill="#000000" font-family="sans-serif" font-size="7.8" lengthAdjust="spacing" textLength="3" x="148.6239" y="384.0862">*</text></g><!--link HRM to Team_Proposal--><g id="link_HRM_Team_Proposal"><path codeLine="128" d="M408.6,54.414 C408.6,76.53 408.6,127.92 408.6,157.356 " fill="none" id="HRM-Team_Proposal" style="stroke:#181818;stroke-width:0.6;"/><polygon fill="#000000" points="411.6,108.9873,413.3634,103.5603,409.8366,103.5603,411.6,108.9873" style="stroke:#000000;stroke-width:0.6;"/><text fill="#000000" font-family="sans-serif" font-size="7.8" lengthAdjust="spacing" textLength="30" x="417" y="109.217">registers</text><text fill="#000000" font-family="sans-serif" font-size="7.8" lengthAdjust="spacing" textLength="4.2" x="403.8356" y="67.2694">1</text><text fill="#000000" font-family="sans-serif" font-size="7.8" lengthAdjust="spacing" textLength="3" x="405.3328" y="150.7074">*</text></g><!--link Task to Agenda--><g id="link_Task_Agenda"><path codeLine="129" d="M370.602,413.1 C389.13,413.1 414.114,413.1 430.386,413.1 " fill="none" id="Task-Agenda" style="stroke:#181818;stroke-width:0.6;"/><polygon fill="#000000" points="387,405.6873,381.5729,403.9239,381.5729,407.4507,387,405.6873" style="stroke:#000000;stroke-width:0.6;"/><text fill="#000000" font-family="sans-serif" font-size="7.8" lengthAdjust="spacing" textLength="30" x="389.4" y="408.917">is part of</text><text fill="#000000" font-family="sans-serif" font-size="7.8" lengthAdjust="spacing" textLength="3" x="375.3777" y="410.3869">*</text><text fill="#000000" font-family="sans-serif" font-size="7.8" lengthAdjust="spacing" textLength="4.2" x="421.3905" y="410.0616">1</text></g><!--link Team to Task--><g id="link_Team_Task"><path codeLine="130" d="M392.856,332.424 C384.48,346.8 374.112,364.59 365.28,379.746 " fill="none" id="Team-Task" style="stroke:#181818;stroke-width:0.6;"/><polygon fill="#000000" points="383.0896,358.7793,387.3455,354.9781,384.2984,353.2025,383.0896,358.7793" style="stroke:#000000;stroke-width:0.6;"/><text fill="#000000" font-family="sans-serif" font-size="7.8" lengthAdjust="spacing" textLength="12.6" x="390" y="359.417">has</text><text fill="#000000" font-family="sans-serif" font-size="7.8" lengthAdjust="spacing" textLength="4.2" x="385.9236" y="345.843">1</text><text fill="#000000" font-family="sans-serif" font-size="7.8" lengthAdjust="spacing" textLength="12" x="354.9559" y="373.0432">0..*</text></g><!--link Portal to Comment--><g id="link_Portal_Comment"><path codeLine="131" d="M24.282,316.062 C29.226,332.094 38.724,362.922 45.66,385.422 " fill="none" id="Portal-Comment" style="stroke:#181818;stroke-width:0.6;"/><polygon fill="#000000" points="41.6836,359.0542,41.7703,353.3485,38.4,354.3873,41.6836,359.0542" style="stroke:#000000;stroke-width:0.6;"/><text fill="#000000" font-family="sans-serif" font-size="7.8" lengthAdjust="spacing" textLength="12.6" x="46.2" y="359.417">has</text><text fill="#000000" font-family="sans-serif" font-size="7.8" lengthAdjust="spacing" textLength="4.2" x="20.3997" y="328.9303">1</text><text fill="#000000" font-family="sans-serif" font-size="7.8" lengthAdjust="spacing" textLength="12" x="31.5538" y="378.8162">0..*</text></g><!--link GSU to Comment--><g id="link_GSU_Comment"><path codeLine="132" d="M93.516,190.878 C87.39,225.216 67.95,334.26 58.818,385.458 " fill="none" id="GSU-Comment" style="stroke:#181818;stroke-width:0.6;"/><polygon fill="#000000" points="80.4733,307.8407,83.162,302.8075,79.6901,302.1884,80.4733,307.8407" style="stroke:#000000;stroke-width:0.6;"/><text fill="#000000" font-family="sans-serif" font-size="7.8" lengthAdjust="spacing" textLength="30" x="86.4" y="308.117">registers</text><text fill="#000000" font-family="sans-serif" font-size="7.8" lengthAdjust="spacing" textLength="4.2" x="88.2453" y="203.7237">1</text><text fill="#000000" font-family="sans-serif" font-size="7.8" lengthAdjust="spacing" textLength="3" x="56.3261" y="378.6525">*</text></g><!--link Team_Proposal to Team--><g id="link_Team_Proposal_Team"><path codeLine="133" d="M408.6,202.164 C408.6,223.074 408.6,254.664 408.6,277.152 " fill="none" id="Team_Proposal-Team" style="stroke:#181818;stroke-width:0.6;"/><polygon fill="#000000" points="411.6,256.5873,413.3634,251.1603,409.8366,251.1603,411.6,256.5873" style="stroke:#000000;stroke-width:0.6;"/><text fill="#000000" font-family="sans-serif" font-size="7.8" lengthAdjust="spacing" textLength="34.2" x="417" y="256.817">generates</text><text fill="#000000" font-family="sans-serif" font-size="7.8" lengthAdjust="spacing" textLength="4.2" x="404.0653" y="214.9945">1</text><text fill="#000000" font-family="sans-serif" font-size="7.8" lengthAdjust="spacing" textLength="3" x="405.3703" y="270.3456">*</text></g><!--link Team to Collaborator--><g id="link_Team_Collaborator"><path codeLine="134" d="M429.816,332.406 C437.604,341.928 446.658,352.554 455.4,361.8 C460.956,367.674 474.102,379.902 486.102,390.876 " fill="none" id="Team-Collaborator" style="stroke:#181818;stroke-width:0.6;"/><polygon fill="#000000" points="460.4806,358.3486,457.9872,353.2158,455.4464,355.6617,460.4806,358.3486" style="stroke:#000000;stroke-width:0.6;"/><text fill="#000000" font-family="sans-serif" font-size="7.8" lengthAdjust="spacing" textLength="12.6" x="463.8" y="359.417">has</text><text fill="#000000" font-family="sans-serif" font-size="7.8" lengthAdjust="spacing" textLength="4.2" x="428.5431" y="345.8222">1</text><text fill="#000000" font-family="sans-serif" font-size="7.8" lengthAdjust="spacing" textLength="12" x="468.5896" y="384.0788">1..*</text></g><!--SRC=[XLN9Rjim4BthAmXV0XHma5nxA10aTUe2Re8gwJKOYME9DHU1f9euHl-zt2nJYjBuObBpvisRJJ8x9ZlG88XGKjMjLWA9rJqMPh1qKE-WmTBkEHADjGNPy1nWMg3gcSc6R84RBCvE9iuasds7H6dRgkACuzOIguXcJMi9PPwEAPcHrHoCkR9MiwgtkAwLBDahaekYPHH9pNJjOeUpG4T9JL6SMMQTj1ibW4coKHHvKGGUSgSRaEmLV11oA8ZxIH0O3d_0_kX5XJhSdh4op4PBrog9cGqTCI_-7ac_YewhFUAK4AXWnhX8Dv28AkRI7cv0gKPZmjdbPQ6sQxbLuRwcDwf-S9LAjnHzYFdjv-PGdAwhqUrQSGwLqc2LZffSFJcFaNwhweGi_VE9R8gcrgmBVHY0trLrEBf7w63wXIrpJOZcZW-vQf0qd4JeW3_j4NHAbwiic-iMwrtVHGfwP9WLye0WdkwrwfI1f5p0Yt_gvo8cY_PkMyQCHtx_IJJmeAznvdFLeAIGL_O1pEumwqmHg9_kgC22xMEvEysKPdQVrNnlB8gdHuEfERqx3Q8w1tbMciuDsctvc8kvTqlaQv0tNWYKTb97Yoys3bplDYGh-wr6b4-bMsYSb8Qh6hBKHdqOxT3YSa6MI_TtVlvfaHEIpsGXGBeNXI5V5aLk6NmMAGMFRI7YoaTloshaZIpOXZrx3p2hpCaQ74zntFvuQsw972l_lEzcBDub8tKRuMqQ6-Qaw3b8leSVOSEylW6D68xeYr3hmI5bD0izwJoYugRbWBI_6MYrUSS-qZP67Oa_I7Eqlc_0Vhq2RBcCNmJl6RSmzS5z52nHsm1sL9EQ1FzJ7ccwnfYq8vEP6tLj08p5ZQHFSl9efnDT-T6yKNUP8e_78ON_1m00]--></g></svg>