<?xml version="1.0" encoding="us-ascii" standalone="no"?><svg xmlns="http://www.w3.org/2000/svg" xmlns:xlink="http://www.w3.org/1999/xlink" contentStyleType="text/css" height="1209px" preserveAspectRatio="none" style="width:1552px;height:1209px;background:#FFFFFF;" version="1.1" viewBox="0 0 1552 1209" width="1552px" zoomAndPan="magnify"><defs/><g><text fill="#000000" font-family="sans-serif" font-size="14" font-weight="bold" lengthAdjust="spacing" textLength="100" x="719" y="25.1074">Domain Model</text><!--class Organization--><g id="elem_Organization"><rect codeLine="12" fill="#F1F1F1" height="129.7266" id="Organization" rx="2.5" ry="2.5" style="stroke:#181818;stroke-width:0.5;" width="101" x="207" y="404.6211"/><text fill="#000000" font-family="sans-serif" font-size="14" lengthAdjust="spacing" textLength="80" x="217.5" y="424.7285">Organization</text><line style="stroke:#181818;stroke-width:0.5;" x1="208" x2="307" y1="433.2422" y2="433.2422"/><text fill="#000000" font-family="sans-serif" font-size="14" lengthAdjust="spacing" textLength="35" x="213" y="452.3496">name</text><text fill="#000000" font-family="sans-serif" font-size="14" lengthAdjust="spacing" textLength="15" x="213" y="470.9707">nif</text><text fill="#000000" font-family="sans-serif" font-size="14" lengthAdjust="spacing" textLength="47" x="213" y="489.5918">website</text><text fill="#000000" font-family="sans-serif" font-size="14" lengthAdjust="spacing" textLength="89" x="213" y="508.2129">phoneNumber</text><text fill="#000000" font-family="sans-serif" font-size="14" lengthAdjust="spacing" textLength="33" x="213" y="526.834">email</text></g><!--class Skill--><g id="elem_Skill"><rect codeLine="20" fill="#F1F1F1" height="55.2422" id="Skill" rx="2.5" ry="2.5" style="stroke:#181818;stroke-width:0.5;" width="47" x="1473" y="700.1211"/><text fill="#000000" font-family="sans-serif" font-size="14" lengthAdjust="spacing" textLength="25" x="1484" y="720.2285">Skill</text><line style="stroke:#181818;stroke-width:0.5;" x1="1474" x2="1519" y1="728.7422" y2="728.7422"/><text fill="#000000" font-family="sans-serif" font-size="14" lengthAdjust="spacing" textLength="35" x="1479" y="747.8496">name</text></g><!--class Collaborator--><g id="elem_Collaborator"><rect codeLine="25" fill="#F1F1F1" height="166.9688" id="Collaborator" rx="2.5" ry="2.5" style="stroke:#181818;stroke-width:0.5;" width="105" x="1229" y="467.1211"/><text fill="#000000" font-family="sans-serif" font-size="14" lengthAdjust="spacing" textLength="78" x="1242.5" y="487.2285">Collaborator</text><line style="stroke:#181818;stroke-width:0.5;" x1="1230" x2="1333" y1="495.7422" y2="495.7422"/><text fill="#000000" font-family="sans-serif" font-size="14" lengthAdjust="spacing" textLength="35" x="1235" y="514.8496">name</text><text fill="#000000" font-family="sans-serif" font-size="14" lengthAdjust="spacing" textLength="93" x="1235" y="533.4707">admissionDate</text><text fill="#000000" font-family="sans-serif" font-size="14" lengthAdjust="spacing" textLength="58" x="1235" y="552.0918">birthDate</text><text fill="#000000" font-family="sans-serif" font-size="14" lengthAdjust="spacing" textLength="89" x="1235" y="570.7129">phoneNumber</text><text fill="#000000" font-family="sans-serif" font-size="14" lengthAdjust="spacing" textLength="33" x="1235" y="589.334">email</text><text fill="#000000" font-family="sans-serif" font-size="14" lengthAdjust="spacing" textLength="68" x="1235" y="607.9551">idDocType</text><text fill="#000000" font-family="sans-serif" font-size="14" lengthAdjust="spacing" textLength="85" x="1235" y="626.5762">idDocNumber</text></g><!--class Job--><g id="elem_Job"><rect codeLine="35" fill="#F1F1F1" height="55.2422" id="Job" rx="2.5" ry="2.5" style="stroke:#181818;stroke-width:0.5;" width="47" x="1473" y="319.1211"/><text fill="#000000" font-family="sans-serif" font-size="14" lengthAdjust="spacing" textLength="22" x="1485.5" y="339.2285">Job</text><line style="stroke:#181818;stroke-width:0.5;" x1="1474" x2="1519" y1="347.7422" y2="347.7422"/><text fill="#000000" font-family="sans-serif" font-size="14" lengthAdjust="spacing" textLength="35" x="1479" y="366.8496">name</text></g><!--class HRM--><g id="elem_HRM"><rect codeLine="39" fill="#F1F1F1" height="36.6211" id="HRM" rx="2.5" ry="2.5" style="stroke:#181818;stroke-width:0.5;" width="36" x="770" y="507.1211"/><text fill="#000000" font-family="sans-serif" font-size="14" lengthAdjust="spacing" textLength="30" x="773" y="527.2285">HRM</text><line style="stroke:#181818;stroke-width:0.5;" x1="771" x2="805" y1="535.7422" y2="535.7422"/></g><!--class FM--><g id="elem_FM"><rect codeLine="43" fill="#F1F1F1" height="36.6211" id="FM" rx="2.5" ry="2.5" style="stroke:#181818;stroke-width:0.5;" width="26" x="7" y="1113.1211"/><text fill="#000000" font-family="sans-serif" font-size="14" lengthAdjust="spacing" textLength="20" x="10" y="1133.2285">FM</text><line style="stroke:#181818;stroke-width:0.5;" x1="8" x2="32" y1="1141.7422" y2="1141.7422"/></g><!--class Team--><g id="elem_Team"><rect codeLine="47" fill="#F1F1F1" height="111.1055" id="Team" rx="2.5" ry="2.5" style="stroke:#181818;stroke-width:0.5;" width="81" x="1016" y="385.1211"/><text fill="#000000" font-family="sans-serif" font-size="14" lengthAdjust="spacing" textLength="36" x="1038.5" y="405.2285">Team</text><line style="stroke:#181818;stroke-width:0.5;" x1="1017" x2="1096" y1="413.7422" y2="413.7422"/><text fill="#000000" font-family="sans-serif" font-size="14" lengthAdjust="spacing" textLength="35" x="1022" y="432.8496">name</text><text fill="#000000" font-family="sans-serif" font-size="14" lengthAdjust="spacing" textLength="69" x="1022" y="451.4707">description</text><text fill="#000000" font-family="sans-serif" font-size="14" lengthAdjust="spacing" textLength="58" x="1022" y="470.0918">members</text><text fill="#000000" font-family="sans-serif" font-size="14" lengthAdjust="spacing" textLength="38" x="1022" y="488.7129">status</text></g><!--class Vehicle--><g id="elem_Vehicle"><rect codeLine="54" fill="#F1F1F1" height="222.832" id="Vehicle" rx="2.5" ry="2.5" style="stroke:#181818;stroke-width:0.5;" width="160" x="436" y="931.1211"/><text fill="#000000" font-family="sans-serif" font-size="14" lengthAdjust="spacing" textLength="46" x="493" y="951.2285">Vehicle</text><line style="stroke:#181818;stroke-width:0.5;" x1="437" x2="595" y1="959.7422" y2="959.7422"/><text fill="#000000" font-family="sans-serif" font-size="14" lengthAdjust="spacing" textLength="42" x="442" y="978.8496">plateId</text><text fill="#000000" font-family="sans-serif" font-size="14" lengthAdjust="spacing" textLength="37" x="442" y="997.4707">brand</text><text fill="#000000" font-family="sans-serif" font-size="14" lengthAdjust="spacing" textLength="38" x="442" y="1016.0918">model</text><text fill="#000000" font-family="sans-serif" font-size="14" lengthAdjust="spacing" textLength="27" x="442" y="1034.7129">type</text><text fill="#000000" font-family="sans-serif" font-size="14" lengthAdjust="spacing" textLength="25" x="442" y="1053.334">tare</text><text fill="#000000" font-family="sans-serif" font-size="14" lengthAdjust="spacing" textLength="79" x="442" y="1071.9551">grossWeight</text><text fill="#000000" font-family="sans-serif" font-size="14" lengthAdjust="spacing" textLength="65" x="442" y="1090.5762">currentKm</text><text fill="#000000" font-family="sans-serif" font-size="14" lengthAdjust="spacing" textLength="78" x="442" y="1109.1973">registerDate</text><text fill="#000000" font-family="sans-serif" font-size="14" lengthAdjust="spacing" textLength="97" x="442" y="1127.8184">acquisitionDate</text><text fill="#000000" font-family="sans-serif" font-size="14" lengthAdjust="spacing" textLength="148" x="442" y="1146.4395">checkupFrequencyKms</text></g><!--class Checkup--><g id="elem_Checkup"><rect codeLine="67" fill="#F1F1F1" height="73.8633" id="Checkup" rx="2.5" ry="2.5" style="stroke:#181818;stroke-width:0.5;" width="92" x="742" y="1128.6211"/><text fill="#000000" font-family="sans-serif" font-size="14" lengthAdjust="spacing" textLength="56" x="760" y="1148.7285">Checkup</text><line style="stroke:#181818;stroke-width:0.5;" x1="743" x2="833" y1="1157.2422" y2="1157.2422"/><text fill="#000000" font-family="sans-serif" font-size="14" lengthAdjust="spacing" textLength="28" x="748" y="1176.3496">date</text><text fill="#000000" font-family="sans-serif" font-size="14" lengthAdjust="spacing" textLength="80" x="748" y="1194.9707">checkupKms</text></g><!--class CheckupList--><g id="elem_CheckupList"><rect codeLine="71" fill="#F1F1F1" height="36.6211" id="CheckupList" rx="2.5" ry="2.5" style="stroke:#181818;stroke-width:0.5;" width="84" x="215.5" y="1113.1211"/><text fill="#000000" font-family="sans-serif" font-size="14" lengthAdjust="spacing" textLength="78" x="218.5" y="1133.2285">CheckupList</text><line style="stroke:#181818;stroke-width:0.5;" x1="216.5" x2="298.5" y1="1141.7422" y2="1141.7422"/></g><!--class GreenSpace--><g id="elem_GreenSpace"><rect codeLine="75" fill="#F1F1F1" height="92.4844" id="GreenSpace" rx="2.5" ry="2.5" style="stroke:#181818;stroke-width:0.5;" width="86" x="626" y="46.6211"/><text fill="#000000" font-family="sans-serif" font-size="14" lengthAdjust="spacing" textLength="80" x="629" y="66.7285">GreenSpace</text><line style="stroke:#181818;stroke-width:0.5;" x1="627" x2="711" y1="75.2422" y2="75.2422"/><text fill="#000000" font-family="sans-serif" font-size="14" lengthAdjust="spacing" textLength="35" x="632" y="94.3496">name</text><text fill="#000000" font-family="sans-serif" font-size="14" lengthAdjust="spacing" textLength="27" x="632" y="112.9707">type</text><text fill="#000000" font-family="sans-serif" font-size="14" lengthAdjust="spacing" textLength="69" x="632" y="131.5918">description</text></g><!--class Address--><g id="elem_Address"><rect codeLine="82" fill="#F1F1F1" height="129.7266" id="Address" rx="2.5" ry="2.5" style="stroke:#181818;stroke-width:0.5;" width="97" x="1448" y="110.6211"/><text fill="#000000" font-family="sans-serif" font-size="14" lengthAdjust="spacing" textLength="52" x="1470.5" y="130.7285">Address</text><line style="stroke:#181818;stroke-width:0.5;" x1="1449" x2="1544" y1="139.2422" y2="139.2422"/><text fill="#000000" font-family="sans-serif" font-size="14" lengthAdjust="spacing" textLength="36" x="1454" y="158.3496">street</text><text fill="#000000" font-family="sans-serif" font-size="14" lengthAdjust="spacing" textLength="85" x="1454" y="176.9707">streetNumber</text><text fill="#000000" font-family="sans-serif" font-size="14" lengthAdjust="spacing" textLength="72" x="1454" y="195.5918">postalCode</text><text fill="#000000" font-family="sans-serif" font-size="14" lengthAdjust="spacing" textLength="21" x="1454" y="214.2129">city</text><text fill="#000000" font-family="sans-serif" font-size="14" lengthAdjust="spacing" textLength="41" x="1454" y="232.834">district</text></g><!--class Task--><g id="elem_Task"><rect codeLine="90" fill="#F1F1F1" height="111.1055" id="Task" rx="2.5" ry="2.5" style="stroke:#181818;stroke-width:0.5;" width="64" x="756" y="325.1211"/><text fill="#000000" font-family="sans-serif" font-size="14" lengthAdjust="spacing" textLength="31" x="772.5" y="345.2285">Task</text><line style="stroke:#181818;stroke-width:0.5;" x1="757" x2="819" y1="353.7422" y2="353.7422"/><text fill="#000000" font-family="sans-serif" font-size="14" lengthAdjust="spacing" textLength="22" x="762" y="372.8496">title</text><text fill="#000000" font-family="sans-serif" font-size="14" lengthAdjust="spacing" textLength="52" x="762" y="391.4707">duration</text><text fill="#000000" font-family="sans-serif" font-size="14" lengthAdjust="spacing" textLength="38" x="762" y="410.0918">status</text><text fill="#000000" font-family="sans-serif" font-size="14" lengthAdjust="spacing" textLength="43" x="762" y="428.7129">priority</text></g><!--class UserPortal--><g id="elem_UserPortal"><rect codeLine="97" fill="#F1F1F1" height="73.8633" id="UserPortal" rx="2.5" ry="2.5" style="stroke:#181818;stroke-width:0.5;" width="72" x="480" y="555.6211"/><text fill="#000000" font-family="sans-serif" font-size="14" lengthAdjust="spacing" textLength="66" x="483" y="575.7285">UserPortal</text><line style="stroke:#181818;stroke-width:0.5;" x1="481" x2="551" y1="584.2422" y2="584.2422"/><text fill="#000000" font-family="sans-serif" font-size="14" lengthAdjust="spacing" textLength="35" x="486" y="603.3496">name</text><text fill="#000000" font-family="sans-serif" font-size="14" lengthAdjust="spacing" textLength="16" x="486" y="621.9707">url</text></g><!--class Comment--><g id="elem_Comment"><rect codeLine="102" fill="#F1F1F1" height="92.4844" id="Comment" rx="2.5" ry="2.5" style="stroke:#181818;stroke-width:0.5;" width="66" x="755" y="579.6211"/><text fill="#000000" font-family="sans-serif" font-size="14" lengthAdjust="spacing" textLength="60" x="758" y="599.7285">Comment</text><line style="stroke:#181818;stroke-width:0.5;" x1="756" x2="820" y1="608.2422" y2="608.2422"/><text fill="#000000" font-family="sans-serif" font-size="14" lengthAdjust="spacing" textLength="22" x="761" y="627.3496">text</text><text fill="#000000" font-family="sans-serif" font-size="14" lengthAdjust="spacing" textLength="28" x="761" y="645.9707">date</text><text fill="#000000" font-family="sans-serif" font-size="14" lengthAdjust="spacing" textLength="41" x="761" y="664.5918">author</text></g><!--class Agenda--><g id="elem_Agenda"><rect fill="#F1F1F1" height="36.6211" id="Agenda" rx="2.5" ry="2.5" style="stroke:#181818;stroke-width:0.5;" width="55" x="488.5" y="451.1211"/><text fill="#000000" font-family="sans-serif" font-size="14" lengthAdjust="spacing" textLength="49" x="491.5" y="471.2285">Agenda</text><line style="stroke:#181818;stroke-width:0.5;" x1="489.5" x2="542.5" y1="479.7422" y2="479.7422"/></g><!--link Organization to Task--><g id="link_Organization_Task"><path codeLine="108" d="M308.12,451.1611 C317.93,447.9711 328.21,444.9411 338,442.6211 C492.48,406.0111 682.34,388.6011 755.87,382.8611 " fill="none" id="Organization-Task" style="stroke:#181818;stroke-width:1.0;"/><polygon fill="#000000" points="503.4428,389.5126,494.058,387.9713,494.9443,393.7819,503.4428,389.5126" style="stroke:#000000;stroke-width:1.0;"/><text fill="#000000" font-family="sans-serif" font-size="13" lengthAdjust="spacing" textLength="30" x="507.5" y="395.6494">owns</text><text fill="#000000" font-family="sans-serif" font-size="13" lengthAdjust="spacing" textLength="7" x="316.0689" y="463.768">1</text><text fill="#000000" font-family="sans-serif" font-size="13" lengthAdjust="spacing" textLength="5" x="742.8618" y="399.3945">*</text></g><!--link Organization to Agenda--><g id="link_Organization_Agenda"><path codeLine="109" d="M308.26,469.6211 C362.02,469.6211 445.67,469.6211 488.21,469.6211 " fill="none" id="Organization-Agenda" style="stroke:#181818;stroke-width:1.0;"/><polygon fill="#000000" points="359.5,460.2666,350.4549,457.3277,350.4549,463.2055,359.5,460.2666" style="stroke:#000000;stroke-width:1.0;"/><text fill="#000000" font-family="sans-serif" font-size="13" lengthAdjust="spacing" textLength="30" x="363.5" y="465.6494">owns</text><text fill="#000000" font-family="sans-serif" font-size="13" lengthAdjust="spacing" textLength="7" x="315.8903" y="484.8844">1</text><text fill="#000000" font-family="sans-serif" font-size="13" lengthAdjust="spacing" textLength="7" x="473.5831" y="485.8029">1</text></g><!--link Organization to Address--><g id="link_Organization_Address"><path codeLine="110" d="M277.49,404.5111 C290.35,368.4111 310.13,324.3511 338,291.6211 C398.98,220.0111 420.94,175.6211 515,175.6211 C515,175.6211 515,175.6211 1282.5,175.6211 C1339.26,175.6211 1404.53,175.6211 1447.7,175.6211 " fill="none" id="Organization-Address" style="stroke:#181818;stroke-width:1.0;"/><polygon fill="#000000" points="900.907,165.3068,891.466,164.1588,892.5943,169.9274,900.907,165.3068" style="stroke:#000000;stroke-width:1.0;"/><text fill="#000000" font-family="sans-serif" font-size="13" lengthAdjust="spacing" textLength="39" x="905" y="171.6494">has an</text><text fill="#000000" font-family="sans-serif" font-size="13" lengthAdjust="spacing" textLength="7" x="272.2936" y="393.5192">1</text><text fill="#000000" font-family="sans-serif" font-size="13" lengthAdjust="spacing" textLength="7" x="1433.0184" y="190.9393">1</text></g><!--link Organization to UserPortal--><g id="link_Organization_UserPortal"><path codeLine="111" d="M308.26,493.4811 C358.67,517.6511 435.36,554.4311 479.79,575.7411 " fill="none" id="Organization-UserPortal" style="stroke:#181818;stroke-width:1.0;"/><polygon fill="#000000" points="359.0084,502.4287,352.1235,495.8675,349.5818,501.1674,359.0084,502.4287" style="stroke:#000000;stroke-width:1.0;"/><text fill="#000000" font-family="sans-serif" font-size="13" lengthAdjust="spacing" textLength="30" x="363.5" y="505.6494">owns</text><text fill="#000000" font-family="sans-serif" font-size="13" lengthAdjust="spacing" textLength="7" x="315.8903" y="512.0997">1</text><text fill="#000000" font-family="sans-serif" font-size="13" lengthAdjust="spacing" textLength="20" x="452.1365" y="588.4169">1..*</text></g><!--link Organization to GreenSpace--><g id="link_Organization_GreenSpace"><path codeLine="112" d="M266.28,404.3911 C277.57,321.1311 301.27,183.7811 338,149.6211 C417.4,75.7811 556.25,79.2711 625.8,86.6111 " fill="none" id="Organization-GreenSpace" style="stroke:#181818;stroke-width:1.0;"/><polygon fill="#000000" points="346.7463,96.9552,338.0228,100.7435,341.9155,105.1476,346.7463,96.9552" style="stroke:#000000;stroke-width:1.0;"/><text fill="#000000" font-family="sans-serif" font-size="13" lengthAdjust="spacing" textLength="53" x="352" y="105.6494">manages</text><text fill="#000000" font-family="sans-serif" font-size="13" lengthAdjust="spacing" textLength="7" x="259.8575" y="393.3861">1</text><text fill="#000000" font-family="sans-serif" font-size="13" lengthAdjust="spacing" textLength="5" x="612.9453" y="101.0508">*</text></g><!--link Organization to Skill--><g id="link_Organization_Skill"><path codeLine="113" d="M268.72,534.7211 C290.9,649.9111 354.98,877.6211 515,877.6211 C515,877.6211 515,877.6211 1282.5,877.6211 C1366.63,877.6211 1440.95,798.4411 1475.3,755.1311 " fill="none" id="Organization-Skill" style="stroke:#181818;stroke-width:1.0;"/><polygon fill="#000000" points="905.4186,869.1651,897.0489,864.6486,895.9926,870.4308,905.4186,869.1651" style="stroke:#000000;stroke-width:1.0;"/><text fill="#000000" font-family="sans-serif" font-size="13" lengthAdjust="spacing" textLength="30" x="909.5" y="873.6494">owns</text><text fill="#000000" font-family="sans-serif" font-size="13" lengthAdjust="spacing" textLength="7" x="270.238" y="556.3685">1</text><text fill="#000000" font-family="sans-serif" font-size="13" lengthAdjust="spacing" textLength="5" x="1464.8194" y="777.4924">*</text></g><!--link Organization to Job--><g id="link_Organization_Job"><path codeLine="114" d="M296.18,404.5211 C339.7,338.7011 417.93,246.6211 515,246.6211 C515,246.6211 515,246.6211 1282.5,246.6211 C1344.38,246.6211 1363,250.2611 1418,278.6211 C1438.68,289.2811 1458.34,306.6511 1472.69,321.1711 " fill="none" id="Organization-Job" style="stroke:#181818;stroke-width:1.0;"/><polygon fill="#000000" points="905.4875,236.9133,896.2573,234.6209,896.6727,240.484,905.4875,236.9133" style="stroke:#000000;stroke-width:1.0;"/><text fill="#000000" font-family="sans-serif" font-size="13" lengthAdjust="spacing" textLength="30" x="909.5" y="242.6494">owns</text><text fill="#000000" font-family="sans-serif" font-size="13" lengthAdjust="spacing" textLength="7" x="293.0278" y="393.5303">1</text><text fill="#000000" font-family="sans-serif" font-size="13" lengthAdjust="spacing" textLength="5" x="1459.9614" y="330.2275">*</text></g><!--link Organization to Collaborator--><g id="link_Organization_Collaborator"><path codeLine="115" d="M306.98,534.8611 C339.27,573.5911 385.03,620.3111 436,647.6211 C558.24,713.1011 604.72,688.9811 742,708.6211 C943.65,737.4811 1029.24,856.2111 1199,743.6211 C1235.83,719.1911 1256.06,674.4811 1267.15,634.2411 " fill="none" id="Organization-Collaborator" style="stroke:#181818;stroke-width:1.0;"/><polygon fill="#000000" points="779.9734,699.7814,771.279,695.9268,770.6738,701.7735,779.9734,699.7814" style="stroke:#000000;stroke-width:1.0;"/><text fill="#000000" font-family="sans-serif" font-size="13" lengthAdjust="spacing" textLength="21" x="784" y="704.6494">has</text><text fill="#000000" font-family="sans-serif" font-size="13" lengthAdjust="spacing" textLength="7" x="304.7217" y="556.523">1</text><text fill="#000000" font-family="sans-serif" font-size="13" lengthAdjust="spacing" textLength="5" x="1260.702" y="656.1998">*</text></g><!--link Organization to Vehicle--><g id="link_Organization_Vehicle"><path codeLine="116" d="M263.68,534.7511 C273.4,644.2711 297.17,859.5211 338,922.6211 C361.6,959.0911 400.6,987.2911 435.99,1007.1611 " fill="none" id="Organization-Vehicle" style="stroke:#181818;stroke-width:1.0;"/><polygon fill="#000000" points="356.2133,917.9639,355.8749,908.4593,350.3529,910.4735,356.2133,917.9639" style="stroke:#000000;stroke-width:1.0;"/><text fill="#000000" font-family="sans-serif" font-size="13" lengthAdjust="spacing" textLength="30" x="363.5" y="918.6494">owns</text><text fill="#000000" font-family="sans-serif" font-size="13" lengthAdjust="spacing" textLength="7" x="256.9564" y="556.4016">1</text><text fill="#000000" font-family="sans-serif" font-size="13" lengthAdjust="spacing" textLength="5" x="423.1258" y="1018.6417">*</text></g><!--link Collaborator to Skill--><g id="link_Collaborator_Skill"><path codeLine="117" d="M1334.06,593.4711 C1378.38,630.3011 1440.19,681.6611 1472.98,708.9111 " fill="none" id="Collaborator-Skill" style="stroke:#181818;stroke-width:1.0;"/><polygon fill="#000000" points="1381.8455,617.4622,1376.7672,609.421,1373.0106,613.9417,1381.8455,617.4622" style="stroke:#000000;stroke-width:1.0;"/><text fill="#000000" font-family="sans-serif" font-size="13" lengthAdjust="spacing" textLength="21" x="1387" y="619.6494">has</text><text fill="#000000" font-family="sans-serif" font-size="13" lengthAdjust="spacing" textLength="7" x="1341.9434" y="614.7432">1</text><text fill="#000000" font-family="sans-serif" font-size="13" lengthAdjust="spacing" textLength="5" x="1460.0114" y="719.8201">*</text></g><!--link Collaborator to Address--><g id="link_Collaborator_Address"><path codeLine="118" d="M1326.23,466.8711 C1338.27,444.2811 1351.46,419.9211 1364,397.6211 C1393.96,344.3211 1429.36,284.7411 1455.88,240.7411 " fill="none" id="Collaborator-Address" style="stroke:#181818;stroke-width:1.0;"/><polygon fill="#000000" points="1371.487,291.929,1364.4384,298.314,1369.5376,301.2376,1371.487,291.929" style="stroke:#000000;stroke-width:1.0;"/><text fill="#000000" font-family="sans-serif" font-size="13" lengthAdjust="spacing" textLength="39" x="1378" y="301.6494">has an</text><text fill="#000000" font-family="sans-serif" font-size="13" lengthAdjust="spacing" textLength="7" x="1322.7732" y="455.9855">1</text><text fill="#000000" font-family="sans-serif" font-size="13" lengthAdjust="spacing" textLength="7" x="1444.3301" y="262.3906">1</text></g><!--link Collaborator to Job--><g id="link_Collaborator_Job"><path codeLine="119" d="M1334.06,501.2411 C1378.38,458.7911 1440.19,399.5911 1472.98,368.1911 " fill="none" id="Collaborator-Job" style="stroke:#181818;stroke-width:1.0;"/><polygon fill="#000000" points="1381.611,411.8082,1373.0458,415.942,1377.1114,420.187,1381.611,411.8082" style="stroke:#000000;stroke-width:1.0;"/><text fill="#000000" font-family="sans-serif" font-size="13" lengthAdjust="spacing" textLength="21" x="1387" y="420.6494">has</text><text fill="#000000" font-family="sans-serif" font-size="13" lengthAdjust="spacing" textLength="7" x="1341.9434" y="509.5433">1</text><text fill="#000000" font-family="sans-serif" font-size="13" lengthAdjust="spacing" textLength="7" x="1458.0429" y="391.0596">1</text></g><!--link HRM to Skill--><g id="link_HRM_Skill"><path codeLine="120" d="M806.41,536.7111 C815.5,543.1511 826.29,551.9011 834,561.6211 C853.26,585.9211 839.2,606.0011 864,624.6211 C1059.21,771.1911 1384.6,742.0211 1472.84,730.8311 " fill="none" id="HRM-Skill" style="stroke:#181818;stroke-width:1.0;"/><polygon fill="#000000" points="1150.8005,721.6649,1142.9382,716.3137,1141.2944,721.957,1150.8005,721.6649" style="stroke:#000000;stroke-width:1.0;"/><text fill="#000000" font-family="sans-serif" font-size="13" lengthAdjust="spacing" textLength="43" x="1155" y="725.6494">register</text><text fill="#000000" font-family="sans-serif" font-size="13" lengthAdjust="spacing" textLength="7" x="813.9416" y="557.5886">1</text><text fill="#000000" font-family="sans-serif" font-size="13" lengthAdjust="spacing" textLength="5" x="1460.1555" y="748.3064">*</text></g><!--link HRM to Job--><g id="link_HRM_Job"><path codeLine="121" d="M802.62,506.8611 C816.56,488.6011 839.58,460.8511 864,441.6211 C918.68,398.5611 934.88,386.0111 1002,367.6211 C1177.75,319.4811 1401.76,336.7911 1472.82,344.0611 " fill="none" id="HRM-Job" style="stroke:#181818;stroke-width:1.0;"/><polygon fill="#000000" points="1150.8587,328.0864,1141.3755,327.3656,1142.763,333.0773,1150.8587,328.0864" style="stroke:#000000;stroke-width:1.0;"/><text fill="#000000" font-family="sans-serif" font-size="13" lengthAdjust="spacing" textLength="43" x="1155" y="334.6494">register</text><text fill="#000000" font-family="sans-serif" font-size="13" lengthAdjust="spacing" textLength="7" x="798.8865" y="495.9802">1</text><text fill="#000000" font-family="sans-serif" font-size="13" lengthAdjust="spacing" textLength="5" x="1460.1296" y="359.8415">*</text></g><!--link HRM to Collaborator--><g id="link_HRM_Collaborator"><path codeLine="122" d="M806.16,539.8211 C820.73,551.2411 842.64,566.9211 864,576.6211 C965.01,622.4811 1001.76,631.9711 1111,612.6211 C1151.88,605.3811 1195.85,589.0211 1228.76,574.9311 " fill="none" id="HRM-Collaborator" style="stroke:#181818;stroke-width:1.0;"/><polygon fill="#000000" points="1037.4828,603.6806,1028.7121,600.0029,1028.2255,605.8605,1037.4828,603.6806" style="stroke:#000000;stroke-width:1.0;"/><text fill="#000000" font-family="sans-serif" font-size="13" lengthAdjust="spacing" textLength="43" x="1041.5" y="608.6494">register</text><text fill="#000000" font-family="sans-serif" font-size="13" lengthAdjust="spacing" textLength="7" x="813.8764" y="538.9994">1</text><text fill="#000000" font-family="sans-serif" font-size="13" lengthAdjust="spacing" textLength="5" x="1215.9919" y="593.596">*</text></g><!--link HRM to Collaborator--><g id="link_HRM_Collaborator"><path codeLine="123" d="M806.2,526.5011 C873.49,529.9211 1120.42,542.4811 1228.86,547.9911 " fill="none" id="HRM-Collaborator-1" style="stroke:#181818;stroke-width:1.0;"/><polygon fill="#000000" points="1011.9935,527.5205,1003.1094,524.1261,1002.8109,529.9963,1011.9935,527.5205" style="stroke:#000000;stroke-width:1.0;"/><text fill="#000000" font-family="sans-serif" font-size="13" lengthAdjust="spacing" textLength="94" x="1016" y="532.6494">assigns skills to</text><text fill="#000000" font-family="sans-serif" font-size="13" lengthAdjust="spacing" textLength="7" x="813.9306" y="520.9341">1</text><text fill="#000000" font-family="sans-serif" font-size="13" lengthAdjust="spacing" textLength="5" x="1216.1059" y="562.8675">*</text></g><!--link HRM to Team--><g id="link_HRM_Team"><path codeLine="124" d="M806.08,520.1711 C848.01,506.8011 956.91,472.0611 1015.99,453.2211 " fill="none" id="HRM-Team" style="stroke:#181818;stroke-width:1.0;"/><polygon fill="#000000" points="891.7636,457.7473,882.2531,457.6958,884.0392,463.2957,891.7636,457.7473" style="stroke:#000000;stroke-width:1.0;"/><text fill="#000000" font-family="sans-serif" font-size="13" lengthAdjust="spacing" textLength="57" x="896" y="464.6494">generates</text><text fill="#000000" font-family="sans-serif" font-size="13" lengthAdjust="spacing" textLength="7" x="814.0376" y="512.1789">1</text><text fill="#000000" font-family="sans-serif" font-size="13" lengthAdjust="spacing" textLength="5" x="1003.06" y="471.1568">*</text></g><!--link FM to Vehicle--><g id="link_FM_Vehicle"><path codeLine="125" d="M33.11,1121.8411 C41.12,1115.9011 52.12,1108.6911 63,1104.6211 C187.64,1058.0111 343.35,1045.8711 435.67,1043.0411 " fill="none" id="FM-Vehicle" style="stroke:#181818;stroke-width:1.0;"/><polygon fill="#000000" points="234.9069,1041.3061,225.4657,1040.1595,226.5948,1045.9279,234.9069,1041.3061" style="stroke:#000000;stroke-width:1.0;"/><text fill="#000000" font-family="sans-serif" font-size="13" lengthAdjust="spacing" textLength="50" x="239" y="1047.6494">registers</text><text fill="#000000" font-family="sans-serif" font-size="13" lengthAdjust="spacing" textLength="7" x="41.2074" y="1135.4087">1</text><text fill="#000000" font-family="sans-serif" font-size="13" lengthAdjust="spacing" textLength="5" x="423.0341" y="1057.9129">*</text></g><!--link FM to Checkup--><g id="link_FM_Checkup"><path codeLine="126" d="M33.08,1134.7211 C62.55,1142.1011 140.59,1160.6711 207,1167.6211 C405.29,1188.3811 643.81,1175.8311 741.71,1169.0811 " fill="none" id="FM-Checkup" style="stroke:#181818;stroke-width:1.0;"/><polygon fill="#000000" points="349.4941,1167.5088,340.602,1164.1352,340.3173,1170.0062,349.4941,1167.5088" style="stroke:#000000;stroke-width:1.0;"/><text fill="#000000" font-family="sans-serif" font-size="13" lengthAdjust="spacing" textLength="50" x="353.5" y="1172.6494">registers</text><text fill="#000000" font-family="sans-serif" font-size="13" lengthAdjust="spacing" textLength="7" x="41.1627" y="1154.5677">1</text><text fill="#000000" font-family="sans-serif" font-size="13" lengthAdjust="spacing" textLength="5" x="728.9341" y="1185.0496">*</text></g><!--link UserPortal to Comment--><g id="link_UserPortal_Comment"><path codeLine="127" d="M552.02,596.9011 C604.81,603.3511 704.02,615.4811 754.98,621.7111 " fill="none" id="UserPortal-Comment" style="stroke:#181818;stroke-width:1.0;"/><polygon fill="#000000" points="660.9631,597.8733,652.3414,593.8586,651.6282,599.693,660.9631,597.8733" style="stroke:#000000;stroke-width:1.0;"/><text fill="#000000" font-family="sans-serif" font-size="13" lengthAdjust="spacing" textLength="21" x="665" y="602.6494">has</text><text fill="#000000" font-family="sans-serif" font-size="13" lengthAdjust="spacing" textLength="7" x="560.171" y="613.6094">1</text><text fill="#000000" font-family="sans-serif" font-size="13" lengthAdjust="spacing" textLength="5" x="742.21" y="636.7223">*</text></g><!--link Agenda to Task--><g id="link_Agenda_Task"><path codeLine="128" d="M543.66,466.3411 C581.97,461.0311 654.34,448.7311 712,425.6211 C727.08,419.5811 742.66,410.7211 755.68,402.4611 " fill="none" id="Agenda-Task" style="stroke:#181818;stroke-width:1.0;"/><polygon fill="#000000" points="660.7874,414.8242,651.2791,414.6196,652.9747,420.2475,660.7874,414.8242" style="stroke:#000000;stroke-width:1.0;"/><text fill="#000000" font-family="sans-serif" font-size="13" lengthAdjust="spacing" textLength="21" x="665" y="421.6494">has</text><text fill="#000000" font-family="sans-serif" font-size="13" lengthAdjust="spacing" textLength="7" x="551.6447" y="481.7929">1</text><text fill="#000000" font-family="sans-serif" font-size="13" lengthAdjust="spacing" textLength="5" x="743.0631" y="423.1466">*</text></g><!--link Task to Team--><g id="link_Task_Team"><path codeLine="129" d="M820.09,387.6211 C868.7,398.5611 962.63,419.7111 1015.97,431.7211 " fill="none" id="Task-Team" style="stroke:#181818;stroke-width:1.0;"/><polygon fill="#000000" points="873.8779,390.3648,865.6992,385.511,864.4082,391.2453,873.8779,390.3648" style="stroke:#000000;stroke-width:1.0;"/><text fill="#000000" font-family="sans-serif" font-size="13" lengthAdjust="spacing" textLength="93" x="878" y="394.6494">is carried out by</text><text fill="#000000" font-family="sans-serif" font-size="13" lengthAdjust="spacing" textLength="5" x="828.0889" y="405.2552">*</text><text fill="#000000" font-family="sans-serif" font-size="13" lengthAdjust="spacing" textLength="7" x="1001.1272" y="445.6947">1</text></g><!--link GreenSpace to Address--><g id="link_GreenSpace_Address"><path codeLine="130" d="M712.39,91.2411 C761.59,89.7611 845.16,87.6211 917,87.6211 C917,87.6211 917,87.6211 1282.5,87.6211 C1342.92,87.6211 1406.17,118.2411 1447.89,143.3511 " fill="none" id="GreenSpace-Address" style="stroke:#181818;stroke-width:1.0;"/><polygon fill="#000000" points="1039.4875,78.62,1030.6727,75.0491,1030.2573,80.9123,1039.4875,78.62" style="stroke:#000000;stroke-width:1.0;"/><text fill="#000000" font-family="sans-serif" font-size="13" lengthAdjust="spacing" textLength="39" x="1043.5" y="83.6494">has an</text><text fill="#000000" font-family="sans-serif" font-size="13" lengthAdjust="spacing" textLength="7" x="719.8631" y="106.3888">1</text><text fill="#000000" font-family="sans-serif" font-size="13" lengthAdjust="spacing" textLength="7" x="1432.9107" y="153.7828">1</text></g><!--link Team to Collaborator--><g id="link_Team_Collaborator"><path codeLine="131" d="M1097.11,460.1611 C1133.78,478.2511 1188.54,505.2611 1228.67,525.0611 " fill="none" id="Team-Collaborator" style="stroke:#181818;stroke-width:1.0;"/><polygon fill="#000000" points="1161.4841,475.4786,1154.6725,468.8414,1152.0721,474.1127,1161.4841,475.4786" style="stroke:#000000;stroke-width:1.0;"/><text fill="#000000" font-family="sans-serif" font-size="13" lengthAdjust="spacing" textLength="21" x="1166" y="478.6494">has</text><text fill="#000000" font-family="sans-serif" font-size="13" lengthAdjust="spacing" textLength="7" x="1104.9671" y="479.2006">1</text><text fill="#000000" font-family="sans-serif" font-size="13" lengthAdjust="spacing" textLength="5" x="1215.8892" y="536.713">*</text></g><!--link Vehicle to Checkup--><g id="link_Vehicle_Checkup"><path codeLine="132" d="M596.18,1078.6911 C643.64,1100.3111 702.27,1127.0211 741.92,1145.0811 " fill="none" id="Vehicle-Checkup" style="stroke:#181818;stroke-width:1.0;"/><polygon fill="#000000" points="657.0501,1085.3394,650.0372,1078.9152,647.6005,1084.2642,657.0501,1085.3394" style="stroke:#000000;stroke-width:1.0;"/><text fill="#000000" font-family="sans-serif" font-size="13" lengthAdjust="spacing" textLength="28" x="661.5" y="1088.6494">does</text><text fill="#000000" font-family="sans-serif" font-size="13" lengthAdjust="spacing" textLength="7" x="603.8942" y="1096.8494">1</text><text fill="#000000" font-family="sans-serif" font-size="13" lengthAdjust="spacing" textLength="5" x="728.8739" y="1157.1507">*</text></g><!--link CheckupList to Vehicle--><g id="link_CheckupList_Vehicle"><path codeLine="133" d="M299.55,1120.5811 C329.35,1112.2811 370.49,1100.2111 406,1087.6211 C415.74,1084.1711 425.89,1080.3211 435.89,1076.3811 " fill="none" id="CheckupList-Vehicle" style="stroke:#181818;stroke-width:1.0;"/><polygon fill="#000000" points="363.7563,1076.7247,354.2457,1076.7184,356.0584,1082.3097,363.7563,1076.7247" style="stroke:#000000;stroke-width:1.0;"/><text fill="#000000" font-family="sans-serif" font-size="13" lengthAdjust="spacing" textLength="21" x="368" y="1083.6494">has</text><text fill="#000000" font-family="sans-serif" font-size="13" lengthAdjust="spacing" textLength="7" x="307.3789" y="1134.2304">1</text><text fill="#000000" font-family="sans-serif" font-size="13" lengthAdjust="spacing" textLength="20" x="407.8646" y="1094.1936">1..*</text></g><!--link FM to CheckupList--><g id="link_FM_CheckupList"><path codeLine="134" d="M33,1131.6211 C66.18,1131.6211 160.32,1131.6211 215.26,1131.6211 " fill="none" id="FM-CheckupList" style="stroke:#181818;stroke-width:1.0;"/><polygon fill="#000000" points="73,1122.2666,63.9549,1119.3277,63.9549,1125.2055,73,1122.2666" style="stroke:#000000;stroke-width:1.0;"/><text fill="#000000" font-family="sans-serif" font-size="13" lengthAdjust="spacing" textLength="99" x="77" y="1127.6494">requests to show</text><text fill="#000000" font-family="sans-serif" font-size="13" lengthAdjust="spacing" textLength="7" x="41.0438" y="1124.669">1</text><text fill="#000000" font-family="sans-serif" font-size="13" lengthAdjust="spacing" textLength="5" x="202.5703" y="1147.1679">*</text></g><!--SRC=[bLLDRzim3BtxLmYv31ZGORlkCA1eqQthkWrBjvqLYRM5wCEbP6HfiVy-wiEEaZfjbuj5-_6HV2GLlrQsvyWDCyuwqQ4pm08EqFZfIy_5chUm35iD3444RbjT0tp7fTiesx9RhZqqhtQVjB8GjZqmXw5pZORRm89ZgDekCAaYctAsuXAQUtyQ0ghL4E1IEBjKzy3UDfsIm8H2GQ7JsG0nIjyqGGLAxDmPhYoxTX9qqoGQzWrRRjKzZp7OGyFePxc1V52twRc1bLSXl-ixP-7hO5Q0oGQYrCtVaMwvLbfNDBilPqvhldB8WyE3E5mQvJqbSCvBb9KYBIPhFcOyANdkn0s9jxCARehxsQsgSDFhJp-k7whiBlQi6-3c84S9Ng3gKokYRI26yUdi0m-3txd_WavH3p93hwcCIvdBGcxpoQGUn5COimySyw55v_rlYFrFjXWGmOOhaoo4Lla0EAd3nTsWg3-rVg83iHxw2uIx0QpONfaglRFyCQSd3rmoSW_uXUBLwdn40BkaaOS3ZQPIQh78hVYTIedW_KFHZ5X2TQpwspjIL9-HH3ap5RQPbX919KBLAExNcIzDU4ODoASsbTOaLbGE8zNa_TC3VgUju_gWa05rFRZ6aFmb3Fm9-xhnWNOipTlUAYtUBTZ92LkyNgGasNksS1lhsOV5F8uUforOoL-4p4f6QCSzu_Ou-CqRoc1NwBFiXDxrDw8DjtIpFUcGblubpBIBBu7LLyLOunFmicurynx3NAQ5SXPtJE1Zu59LeQIBPJRYkBSpc4Bm1E9GaV-0qWYhbbJnCH4V_raU-yJxBc9f084SSxSlhe-8F0QVGPKRun6g6i2zLDDcLUAL5PXPdW98PdnVj1ypLvu9ZgX0CZS4jjf6S3N8p_KsyJm_WgCAyoLBbvMhxis3HQnKB8op-YNFf25TtpwahldERQB3Fm00]--></g></svg>