<?xml version="1.0" encoding="us-ascii" standalone="no"?><svg xmlns="http://www.w3.org/2000/svg" xmlns:xlink="http://www.w3.org/1999/xlink" contentStyleType="text/css" height="607.5px" preserveAspectRatio="none" style="width:714px;height:607px;background:#FFFFFF;" version="1.1" viewBox="0 0 714 607" width="714.5px" zoomAndPan="magnify"><defs/><g><text fill="#000000" font-family="sans-serif" font-size="7" font-weight="bold" lengthAdjust="spacing" textLength="50" x="328.75" y="12.5537">Domain Model</text><!--class Organization--><g id="elem_Organization"><rect codeLine="12" fill="#F1F1F1" height="64.8633" id="Organization" rx="1.25" ry="1.25" style="stroke:#181818;stroke-width:0.25;" width="50.5" x="3.5" y="284.5605"/><text fill="#000000" font-family="sans-serif" font-size="7" lengthAdjust="spacing" textLength="40" x="8.75" y="294.6143">Organization</text><line style="stroke:#181818;stroke-width:0.25;" x1="4" x2="53.5" y1="298.8711" y2="298.8711"/><text fill="#000000" font-family="sans-serif" font-size="7" lengthAdjust="spacing" textLength="17.5" x="6.5" y="308.4248">name</text><text fill="#000000" font-family="sans-serif" font-size="7" lengthAdjust="spacing" textLength="7.5" x="6.5" y="317.7354">nif</text><text fill="#000000" font-family="sans-serif" font-size="7" lengthAdjust="spacing" textLength="23.5" x="6.5" y="327.0459">website</text><text fill="#000000" font-family="sans-serif" font-size="7" lengthAdjust="spacing" textLength="44.5" x="6.5" y="336.3564">phoneNumber</text><text fill="#000000" font-family="sans-serif" font-size="7" lengthAdjust="spacing" textLength="16.5" x="6.5" y="345.667">email</text></g><!--class Skill--><g id="elem_Skill"><rect codeLine="20" fill="#F1F1F1" height="36.9316" id="Skill" rx="1.25" ry="1.25" style="stroke:#181818;stroke-width:0.25;" width="40.5" x="666.5" y="160.0605"/><text fill="#000000" font-family="sans-serif" font-size="7" lengthAdjust="spacing" textLength="12.5" x="680.5" y="170.1143">Skill</text><line style="stroke:#181818;stroke-width:0.25;" x1="667" x2="706.5" y1="174.3711" y2="174.3711"/><text fill="#000000" font-family="sans-serif" font-size="7" lengthAdjust="spacing" textLength="17.5" x="669.5" y="183.9248">name</text><text fill="#000000" font-family="sans-serif" font-size="7" lengthAdjust="spacing" textLength="34.5" x="669.5" y="193.2354">description</text></g><!--class Collaborator--><g id="elem_Collaborator"><rect codeLine="25" fill="#F1F1F1" height="83.4844" id="Collaborator" rx="1.25" ry="1.25" style="stroke:#181818;stroke-width:0.25;" width="52.5" x="553" y="202.8105"/><text fill="#000000" font-family="sans-serif" font-size="7" lengthAdjust="spacing" textLength="39" x="559.75" y="212.8643">Collaborator</text><line style="stroke:#181818;stroke-width:0.25;" x1="553.5" x2="605" y1="217.1211" y2="217.1211"/><text fill="#000000" font-family="sans-serif" font-size="7" lengthAdjust="spacing" textLength="17.5" x="556" y="226.6748">name</text><text fill="#000000" font-family="sans-serif" font-size="7" lengthAdjust="spacing" textLength="46.5" x="556" y="235.9854">admissionDate</text><text fill="#000000" font-family="sans-serif" font-size="7" lengthAdjust="spacing" textLength="29" x="556" y="245.2959">birthDate</text><text fill="#000000" font-family="sans-serif" font-size="7" lengthAdjust="spacing" textLength="44.5" x="556" y="254.6064">phoneNumber</text><text fill="#000000" font-family="sans-serif" font-size="7" lengthAdjust="spacing" textLength="16.5" x="556" y="263.917">email</text><text fill="#000000" font-family="sans-serif" font-size="7" lengthAdjust="spacing" textLength="34" x="556" y="273.2275">idDocType</text><text fill="#000000" font-family="sans-serif" font-size="7" lengthAdjust="spacing" textLength="42.5" x="556" y="282.5381">idDocNumber</text></g><!--class Job--><g id="elem_Job"><rect codeLine="35" fill="#F1F1F1" height="27.6211" id="Job" rx="1.25" ry="1.25" style="stroke:#181818;stroke-width:0.25;" width="23.5" x="675" y="348.3105"/><text fill="#000000" font-family="sans-serif" font-size="7" lengthAdjust="spacing" textLength="11" x="681.25" y="358.3643">Job</text><line style="stroke:#181818;stroke-width:0.25;" x1="675.5" x2="698" y1="362.6211" y2="362.6211"/><text fill="#000000" font-family="sans-serif" font-size="7" lengthAdjust="spacing" textLength="17.5" x="678" y="372.1748">name</text></g><!--class HRM--><g id="elem_HRM"><rect codeLine="39" fill="#F1F1F1" height="18.3105" id="HRM" rx="1.25" ry="1.25" style="stroke:#181818;stroke-width:0.25;" width="18" x="323.5" y="213.3105"/><text fill="#000000" font-family="sans-serif" font-size="7" lengthAdjust="spacing" textLength="15" x="325" y="223.3643">HRM</text><line style="stroke:#181818;stroke-width:0.25;" x1="324" x2="341" y1="227.6211" y2="227.6211"/></g><!--class FM--><g id="elem_FM"><rect codeLine="43" fill="#F1F1F1" height="18.3105" id="FM" rx="1.25" ry="1.25" style="stroke:#181818;stroke-width:0.25;" width="13" x="22.25" y="544.3105"/><text fill="#000000" font-family="sans-serif" font-size="7" lengthAdjust="spacing" textLength="10" x="23.75" y="554.3643">FM</text><line style="stroke:#181818;stroke-width:0.25;" x1="22.75" x2="34.75" y1="558.6211" y2="558.6211"/></g><!--class Team--><g id="elem_Team"><rect codeLine="47" fill="#F1F1F1" height="55.5527" id="Team" rx="1.25" ry="1.25" style="stroke:#181818;stroke-width:0.25;" width="40.5" x="446.5" y="279.8105"/><text fill="#000000" font-family="sans-serif" font-size="7" lengthAdjust="spacing" textLength="18" x="457.75" y="289.8643">Team</text><line style="stroke:#181818;stroke-width:0.25;" x1="447" x2="486.5" y1="294.1211" y2="294.1211"/><text fill="#000000" font-family="sans-serif" font-size="7" lengthAdjust="spacing" textLength="17.5" x="449.5" y="303.6748">name</text><text fill="#000000" font-family="sans-serif" font-size="7" lengthAdjust="spacing" textLength="34.5" x="449.5" y="312.9854">description</text><text fill="#000000" font-family="sans-serif" font-size="7" lengthAdjust="spacing" textLength="29" x="449.5" y="322.2959">members</text><text fill="#000000" font-family="sans-serif" font-size="7" lengthAdjust="spacing" textLength="19" x="449.5" y="331.6064">status</text></g><!--class Vehicle--><g id="elem_Vehicle"><rect codeLine="54" fill="#F1F1F1" height="111.416" id="Vehicle" rx="1.25" ry="1.25" style="stroke:#181818;stroke-width:0.25;" width="80" x="156.5" y="468.3105"/><text fill="#000000" font-family="sans-serif" font-size="7" lengthAdjust="spacing" textLength="23" x="185" y="478.3643">Vehicle</text><line style="stroke:#181818;stroke-width:0.25;" x1="157" x2="236" y1="482.6211" y2="482.6211"/><text fill="#000000" font-family="sans-serif" font-size="7" lengthAdjust="spacing" textLength="21" x="159.5" y="492.1748">plateId</text><text fill="#000000" font-family="sans-serif" font-size="7" lengthAdjust="spacing" textLength="18.5" x="159.5" y="501.4854">brand</text><text fill="#000000" font-family="sans-serif" font-size="7" lengthAdjust="spacing" textLength="19" x="159.5" y="510.7959">model</text><text fill="#000000" font-family="sans-serif" font-size="7" lengthAdjust="spacing" textLength="13.5" x="159.5" y="520.1064">type</text><text fill="#000000" font-family="sans-serif" font-size="7" lengthAdjust="spacing" textLength="12.5" x="159.5" y="529.417">tare</text><text fill="#000000" font-family="sans-serif" font-size="7" lengthAdjust="spacing" textLength="39.5" x="159.5" y="538.7275">grossWeight</text><text fill="#000000" font-family="sans-serif" font-size="7" lengthAdjust="spacing" textLength="32.5" x="159.5" y="548.0381">currentKm</text><text fill="#000000" font-family="sans-serif" font-size="7" lengthAdjust="spacing" textLength="39" x="159.5" y="557.3486">registerDate</text><text fill="#000000" font-family="sans-serif" font-size="7" lengthAdjust="spacing" textLength="48.5" x="159.5" y="566.6592">acquisitionDate</text><text fill="#000000" font-family="sans-serif" font-size="7" lengthAdjust="spacing" textLength="74" x="159.5" y="575.9697">checkupFrequencyKms</text></g><!--class Checkup--><g id="elem_Checkup"><rect codeLine="67" fill="#F1F1F1" height="36.9316" id="Checkup" rx="1.25" ry="1.25" style="stroke:#181818;stroke-width:0.25;" width="46" x="309.5" y="567.5605"/><text fill="#000000" font-family="sans-serif" font-size="7" lengthAdjust="spacing" textLength="28" x="318.5" y="577.6143">Checkup</text><line style="stroke:#181818;stroke-width:0.25;" x1="310" x2="355" y1="581.8711" y2="581.8711"/><text fill="#000000" font-family="sans-serif" font-size="7" lengthAdjust="spacing" textLength="14" x="312.5" y="591.4248">date</text><text fill="#000000" font-family="sans-serif" font-size="7" lengthAdjust="spacing" textLength="40" x="312.5" y="600.7354">checkupKms</text></g><!--class GreenSpace--><g id="elem_GreenSpace"><rect codeLine="72" fill="#F1F1F1" height="55.5527" id="GreenSpace" rx="1.25" ry="1.25" style="stroke:#181818;stroke-width:0.25;" width="43" x="251.5" y="23.3105"/><text fill="#000000" font-family="sans-serif" font-size="7" lengthAdjust="spacing" textLength="40" x="253" y="33.3643">GreenSpace</text><line style="stroke:#181818;stroke-width:0.25;" x1="252" x2="294" y1="37.6211" y2="37.6211"/><text fill="#000000" font-family="sans-serif" font-size="7" lengthAdjust="spacing" textLength="17.5" x="254.5" y="47.1748">name</text><text fill="#000000" font-family="sans-serif" font-size="7" lengthAdjust="spacing" textLength="25.5" x="254.5" y="56.4854">address</text><text fill="#000000" font-family="sans-serif" font-size="7" lengthAdjust="spacing" textLength="13.5" x="254.5" y="65.7959">type</text><text fill="#000000" font-family="sans-serif" font-size="7" lengthAdjust="spacing" textLength="34.5" x="254.5" y="75.1064">description</text></g><!--class Address--><g id="elem_Address"><rect codeLine="79" fill="#F1F1F1" height="64.8633" id="Address" rx="1.25" ry="1.25" style="stroke:#181818;stroke-width:0.25;" width="48.5" x="662.5" y="60.5605"/><text fill="#000000" font-family="sans-serif" font-size="7" lengthAdjust="spacing" textLength="26" x="673.75" y="70.6143">Address</text><line style="stroke:#181818;stroke-width:0.25;" x1="663" x2="710.5" y1="74.8711" y2="74.8711"/><text fill="#000000" font-family="sans-serif" font-size="7" lengthAdjust="spacing" textLength="18" x="665.5" y="84.4248">street</text><text fill="#000000" font-family="sans-serif" font-size="7" lengthAdjust="spacing" textLength="42.5" x="665.5" y="93.7354">streetNumber</text><text fill="#000000" font-family="sans-serif" font-size="7" lengthAdjust="spacing" textLength="36" x="665.5" y="103.0459">postalCode</text><text fill="#000000" font-family="sans-serif" font-size="7" lengthAdjust="spacing" textLength="10.5" x="665.5" y="112.3564">city</text><text fill="#000000" font-family="sans-serif" font-size="7" lengthAdjust="spacing" textLength="20.5" x="665.5" y="121.667">district</text></g><!--class Task--><g id="elem_Task"><rect codeLine="87" fill="#F1F1F1" height="55.5527" id="Task" rx="1.25" ry="1.25" style="stroke:#181818;stroke-width:0.25;" width="32" x="316.5" y="314.8105"/><text fill="#000000" font-family="sans-serif" font-size="7" lengthAdjust="spacing" textLength="15.5" x="324.75" y="324.8643">Task</text><line style="stroke:#181818;stroke-width:0.25;" x1="317" x2="348" y1="329.1211" y2="329.1211"/><text fill="#000000" font-family="sans-serif" font-size="7" lengthAdjust="spacing" textLength="11" x="319.5" y="338.6748">title</text><text fill="#000000" font-family="sans-serif" font-size="7" lengthAdjust="spacing" textLength="26" x="319.5" y="347.9854">duration</text><text fill="#000000" font-family="sans-serif" font-size="7" lengthAdjust="spacing" textLength="19" x="319.5" y="357.2959">status</text><text fill="#000000" font-family="sans-serif" font-size="7" lengthAdjust="spacing" textLength="21.5" x="319.5" y="366.6064">priority</text></g><!--class UserPortal--><g id="elem_UserPortal"><rect codeLine="94" fill="#F1F1F1" height="36.9316" id="UserPortal" rx="1.25" ry="1.25" style="stroke:#181818;stroke-width:0.25;" width="36" x="178.5" y="253.0605"/><text fill="#000000" font-family="sans-serif" font-size="7" lengthAdjust="spacing" textLength="33" x="180" y="263.1143">UserPortal</text><line style="stroke:#181818;stroke-width:0.25;" x1="179" x2="214" y1="267.3711" y2="267.3711"/><text fill="#000000" font-family="sans-serif" font-size="7" lengthAdjust="spacing" textLength="17.5" x="181.5" y="276.9248">name</text><text fill="#000000" font-family="sans-serif" font-size="7" lengthAdjust="spacing" textLength="8" x="181.5" y="286.2354">url</text></g><!--class Comment--><g id="elem_Comment"><rect codeLine="99" fill="#F1F1F1" height="46.2422" id="Comment" rx="1.25" ry="1.25" style="stroke:#181818;stroke-width:0.25;" width="33" x="316" y="249.5605"/><text fill="#000000" font-family="sans-serif" font-size="7" lengthAdjust="spacing" textLength="30" x="317.5" y="259.6143">Comment</text><line style="stroke:#181818;stroke-width:0.25;" x1="316.5" x2="348.5" y1="263.8711" y2="263.8711"/><text fill="#000000" font-family="sans-serif" font-size="7" lengthAdjust="spacing" textLength="11" x="319" y="273.4248">text</text><text fill="#000000" font-family="sans-serif" font-size="7" lengthAdjust="spacing" textLength="14" x="319" y="282.7354">date</text><text fill="#000000" font-family="sans-serif" font-size="7" lengthAdjust="spacing" textLength="20.5" x="319" y="292.0459">author</text></g><!--class Agenda--><g id="elem_Agenda"><rect fill="#F1F1F1" height="18.3105" id="Agenda" rx="1.25" ry="1.25" style="stroke:#181818;stroke-width:0.25;" width="27.5" x="182.75" y="352.3105"/><text fill="#000000" font-family="sans-serif" font-size="7" lengthAdjust="spacing" textLength="24.5" x="184.25" y="362.3643">Agenda</text><line style="stroke:#181818;stroke-width:0.25;" x1="183.25" x2="209.75" y1="366.6211" y2="366.6211"/></g><!--link UserPortal to Comment--><g id="link_UserPortal_Comment"><path codeLine="105" d="M214.51,271.6905 C240.905,271.8855 290.51,272.2555 315.99,272.4405 " fill="none" id="UserPortal-Comment" style="stroke:#181818;stroke-width:0.5;"/><polygon fill="#000000" points="268.9999,267.4018,264.4884,265.8989,264.4667,268.8378,268.9999,267.4018" style="stroke:#000000;stroke-width:0.5;"/><text fill="#000000" font-family="sans-serif" font-size="6.5" lengthAdjust="spacing" textLength="10.5" x="271" y="270.0747">has</text><text fill="#000000" font-family="sans-serif" font-size="6.5" lengthAdjust="spacing" textLength="3.5" x="218.5855" y="279.6301">1</text><text fill="#000000" font-family="sans-serif" font-size="6.5" lengthAdjust="spacing" textLength="2.5" x="309.605" y="280.3476">*</text></g><!--link Organization to UserPortal--><g id="link_Organization_UserPortal"><path codeLine="106" d="M54.195,308.6255 C59.085,307.0505 64.19,305.4605 69,304.0605 C107.785,292.7705 153.84,281.5105 178.44,275.6705 " fill="none" id="Organization-UserPortal" style="stroke:#181818;stroke-width:0.5;"/><polygon fill="#000000" points="98.9164,279.2424,94.1683,278.9815,94.9218,281.8222,98.9164,279.2424" style="stroke:#000000;stroke-width:0.5;"/><text fill="#000000" font-family="sans-serif" font-size="6.5" lengthAdjust="spacing" textLength="15" x="101" y="282.5747">owns</text><text fill="#000000" font-family="sans-serif" font-size="6.5" lengthAdjust="spacing" textLength="3.5" x="58.0193" y="315.071">1</text><text fill="#000000" font-family="sans-serif" font-size="6.5" lengthAdjust="spacing" textLength="10" x="164.4766" y="284.14">1..*</text></g><!--link Agenda to Task--><g id="link_Agenda_Task"><path codeLine="107" d="M210.44,359.6705 C235.58,356.1305 289.605,348.5255 316.345,344.7655 " fill="none" id="Agenda-Task" style="stroke:#181818;stroke-width:0.5;"/><polygon fill="#000000" points="268.9756,343.0349,264.2924,342.2101,264.702,345.1203,268.9756,343.0349" style="stroke:#000000;stroke-width:0.5;"/><text fill="#000000" font-family="sans-serif" font-size="6.5" lengthAdjust="spacing" textLength="10.5" x="271" y="346.0747">has</text><text fill="#000000" font-family="sans-serif" font-size="6.5" lengthAdjust="spacing" textLength="3.5" x="214.2644" y="367.3008">1</text><text fill="#000000" font-family="sans-serif" font-size="6.5" lengthAdjust="spacing" textLength="2.5" x="310.0377" y="353.2019">*</text></g><!--link Task to Team--><g id="link_Task_Team"><path codeLine="108" d="M348.545,338.4755 C372.85,332.0955 419.815,319.7555 446.485,312.7505 " fill="none" id="Task-Team" style="stroke:#181818;stroke-width:0.5;"/><polygon fill="#000000" points="375.418,313.2482,370.6705,312.9759,371.4171,315.8184,375.418,313.2482" style="stroke:#000000;stroke-width:0.5;"/><text fill="#000000" font-family="sans-serif" font-size="6.5" lengthAdjust="spacing" textLength="46.5" x="377.5" y="316.5747">is carried out by</text><text fill="#000000" font-family="sans-serif" font-size="6.5" lengthAdjust="spacing" textLength="2.5" x="352.5445" y="345.5386">*</text><text fill="#000000" font-family="sans-serif" font-size="6.5" lengthAdjust="spacing" textLength="3.5" x="439.0636" y="321.4545">1</text></g><!--link Organization to Task--><g id="link_Organization_Task"><path codeLine="109" d="M54.055,317.5055 C101.14,318.6105 206.62,322.3505 294.5,334.5605 C301.755,335.5705 309.695,337.1855 316.4,338.7055 " fill="none" id="Organization-Task" style="stroke:#181818;stroke-width:0.5;"/><polygon fill="#000000" points="190.2419,317.0847,185.8524,315.2557,185.6157,318.1851,190.2419,317.0847" style="stroke:#000000;stroke-width:0.5;"/><text fill="#000000" font-family="sans-serif" font-size="6.5" lengthAdjust="spacing" textLength="15" x="192.25" y="319.5747">owns</text><text fill="#000000" font-family="sans-serif" font-size="6.5" lengthAdjust="spacing" textLength="3.5" x="58.0287" y="325.23">1</text><text fill="#000000" font-family="sans-serif" font-size="6.5" lengthAdjust="spacing" textLength="2.5" x="310.1047" y="335.4569">*</text></g><!--link Organization to Agenda--><g id="link_Organization_Agenda"><path codeLine="110" d="M54.075,332.8205 C58.89,335.3805 63.995,337.7705 69,339.5605 C108.825,353.7955 159.07,359.0055 182.64,360.7555 " fill="none" id="Organization-Agenda" style="stroke:#181818;stroke-width:0.5;"/><polygon fill="#000000" points="98.943,335.4141,94.8356,333.0179,94.2116,335.8898,98.943,335.4141" style="stroke:#000000;stroke-width:0.5;"/><text fill="#000000" font-family="sans-serif" font-size="6.5" lengthAdjust="spacing" textLength="15" x="101" y="337.5747">owns</text><text fill="#000000" font-family="sans-serif" font-size="6.5" lengthAdjust="spacing" textLength="3.5" x="58.0516" y="342.7944">1</text><text fill="#000000" font-family="sans-serif" font-size="6.5" lengthAdjust="spacing" textLength="3.5" x="175.3351" y="368.6502">1</text></g><!--link Organization to Address--><g id="link_Organization_Address"><path codeLine="111" d="M31.26,284.4605 C34.69,252.7155 43.96,204.4905 69,171.0605 C108.715,118.0455 129.76,93.0605 196,93.0605 C196,93.0605 196,93.0605 579.75,93.0605 C608.13,93.0605 640.765,93.0605 662.35,93.0605 " fill="none" id="Organization-Address" style="stroke:#181818;stroke-width:0.5;"/><polygon fill="#000000" points="380.8924,87.6577,376.138,87.5641,376.991,90.3765,380.8924,87.6577" style="stroke:#000000;stroke-width:0.5;"/><text fill="#000000" font-family="sans-serif" font-size="6.5" lengthAdjust="spacing" textLength="35.5" x="383" y="91.0747">is located at</text><text fill="#000000" font-family="sans-serif" font-size="6.5" lengthAdjust="spacing" textLength="3.5" x="31.7259" y="278.9597">1</text><text fill="#000000" font-family="sans-serif" font-size="6.5" lengthAdjust="spacing" textLength="2.5" x="655.9223" y="100.7471">*</text></g><!--link Collaborator to Address--><g id="link_Collaborator_Address"><path codeLine="112" d="M605.53,207.8855 C623.17,182.7955 646.34,149.8305 663.335,125.6605 " fill="none" id="Collaborator-Address" style="stroke:#181818;stroke-width:0.5;"/><polygon fill="#000000" points="624.4378,144.3381,620.6347,147.1928,623.0389,148.883,624.4378,144.3381" style="stroke:#000000;stroke-width:0.5;"/><text fill="#000000" font-family="sans-serif" font-size="6.5" lengthAdjust="spacing" textLength="19.5" x="627.5" y="149.0747">lives in</text><text fill="#000000" font-family="sans-serif" font-size="6.5" lengthAdjust="spacing" textLength="3.5" x="609.4717" y="210.3513">1</text><text fill="#000000" font-family="sans-serif" font-size="6.5" lengthAdjust="spacing" textLength="2.5" x="658.2914" y="136.4894">*</text></g><!--link GreenSpace to Address--><g id="link_GreenSpace_Address"><path codeLine="113" d="M294.695,50.5105 C319.295,49.9155 361.08,49.0605 397,49.0605 C397,49.0605 397,49.0605 579.75,49.0605 C609.96,49.0605 641.585,64.3705 662.445,76.9255 " fill="none" id="GreenSpace-Address" style="stroke:#181818;stroke-width:0.5;"/><polygon fill="#000000" points="450.2436,44.5624,445.8379,42.7727,445.6274,45.7041,450.2436,44.5624" style="stroke:#000000;stroke-width:0.5;"/><text fill="#000000" font-family="sans-serif" font-size="6.5" lengthAdjust="spacing" textLength="35.5" x="452.25" y="47.0747">is located at</text><text fill="#000000" font-family="sans-serif" font-size="6.5" lengthAdjust="spacing" textLength="3.5" x="298.4315" y="58.1218">1</text><text fill="#000000" font-family="sans-serif" font-size="6.5" lengthAdjust="spacing" textLength="2.5" x="656.0319" y="82.1414">*</text></g><!--link Organization to GreenSpace--><g id="link_Organization_GreenSpace"><path codeLine="114" d="M30.12,284.3655 C32.39,226.1155 40.48,107.8855 69,80.0605 C118.615,31.6505 210.105,40.0105 251.35,46.8605 " fill="none" id="Organization-GreenSpace" style="stroke:#181818;stroke-width:0.5;"/><polygon fill="#000000" points="92.454,40.054,88.2962,42.3617,90.4467,44.3648,92.454,40.054" style="stroke:#000000;stroke-width:0.5;"/><text fill="#000000" font-family="sans-serif" font-size="6.5" lengthAdjust="spacing" textLength="26.5" x="95.25" y="44.5747">manages</text><text fill="#000000" font-family="sans-serif" font-size="6.5" lengthAdjust="spacing" textLength="3.5" x="26.5784" y="278.8543">1</text><text fill="#000000" font-family="sans-serif" font-size="6.5" lengthAdjust="spacing" textLength="2.5" x="245.0572" y="53.8907">*</text></g><!--link Organization to Skill--><g id="link_Organization_Skill"><path codeLine="115" d="M40.825,284.4405 C62.295,230.4905 113.75,128.5605 196,128.5605 C196,128.5605 196,128.5605 579.75,128.5605 C610.255,128.5605 620.37,125.6155 647.5,139.5605 C656.925,144.4055 665.46,152.3805 672.105,159.8605 " fill="none" id="Organization-Skill" style="stroke:#181818;stroke-width:0.5;"/><polygon fill="#000000" points="391.2027,123.3993,386.4812,122.8332,387.0502,125.7165,391.2027,123.3993" style="stroke:#000000;stroke-width:0.5;"/><text fill="#000000" font-family="sans-serif" font-size="6.5" lengthAdjust="spacing" textLength="15" x="393.25" y="126.5747">owns</text><text fill="#000000" font-family="sans-serif" font-size="6.5" lengthAdjust="spacing" textLength="3.5" x="38.4543" y="278.9375">1</text><text fill="#000000" font-family="sans-serif" font-size="6.5" lengthAdjust="spacing" textLength="2.5" x="666.873" y="154.4486">*</text></g><!--link HRM to Skill--><g id="link_HRM_Skill"><path codeLine="116" d="M341.59,218.6155 C349.065,215.3605 360.275,210.9105 370.5,208.5605 C480.245,183.3255 616.145,179.2655 666.38,178.6505 " fill="none" id="HRM-Skill" style="stroke:#181818;stroke-width:0.5;"/><polygon fill="#000000" points="513.9813,180.078,509.3131,179.1718,509.6721,182.0888,513.9813,180.078" style="stroke:#000000;stroke-width:0.5;"/><text fill="#000000" font-family="sans-serif" font-size="6.5" lengthAdjust="spacing" textLength="21.5" x="516" y="183.0747">register</text><text fill="#000000" font-family="sans-serif" font-size="6.5" lengthAdjust="spacing" textLength="3.5" x="345.4517" y="214.2699">1</text><text fill="#000000" font-family="sans-serif" font-size="6.5" lengthAdjust="spacing" textLength="2.5" x="660.0289" y="186.4568">*</text></g><!--link Organization to Job--><g id="link_Organization_Job"><path codeLine="117" d="M38.865,349.5755 C45.125,365.7805 54.815,384.5355 69,397.0605 C113.835,436.6455 136.19,441.5605 196,441.5605 C196,441.5605 196,441.5605 579.75,441.5605 C623.125,441.5605 660.23,398.6855 676.88,375.9105 " fill="none" id="Organization-Job" style="stroke:#181818;stroke-width:0.5;"/><polygon fill="#000000" points="391.2479,436.9864,386.7898,435.3317,386.6686,438.2681,391.2479,436.9864" style="stroke:#000000;stroke-width:0.5;"/><text fill="#000000" font-family="sans-serif" font-size="6.5" lengthAdjust="spacing" textLength="15" x="393.25" y="439.5747">owns</text><text fill="#000000" font-family="sans-serif" font-size="6.5" lengthAdjust="spacing" textLength="3.5" x="36.2276" y="360.3956">1</text><text fill="#000000" font-family="sans-serif" font-size="6.5" lengthAdjust="spacing" textLength="2.5" x="671.9475" y="386.8868">*</text></g><!--link HRM to Job--><g id="link_HRM_Job"><path codeLine="118" d="M341.65,227.5205 C346.41,230.6755 352.035,235.1755 355.5,240.5605 C370.25,263.5005 354.54,277.9455 370.5,300.0605 C391.78,329.5555 404.98,332.6105 439.5,344.0605 C526.235,372.8255 639.225,366.2105 674.93,363.1555 " fill="none" id="HRM-Job" style="stroke:#181818;stroke-width:0.5;"/><polygon fill="#000000" points="513.8156,355.8257,510.1806,352.7598,509.0727,355.482,513.8156,355.8257" style="stroke:#000000;stroke-width:0.5;"/><text fill="#000000" font-family="sans-serif" font-size="6.5" lengthAdjust="spacing" textLength="21.5" x="516" y="357.5747">register</text><text fill="#000000" font-family="sans-serif" font-size="6.5" lengthAdjust="spacing" textLength="3.5" x="345.5331" y="237.8754">1</text><text fill="#000000" font-family="sans-serif" font-size="6.5" lengthAdjust="spacing" textLength="2.5" x="668.4273" y="371.8104">*</text></g><!--link HRM to Collaborator--><g id="link_HRM_Collaborator"><path codeLine="119" d="M341.68,222.1255 C370.12,220.8805 462.945,218.1855 538,231.5605 C542.9,232.4355 548.025,233.7405 552.92,235.1955 " fill="none" id="HRM-Collaborator" style="stroke:#181818;stroke-width:0.5;"/><polygon fill="#000000" points="457.2452,217.5377,452.8221,215.7917,452.6406,218.7251,457.2452,217.5377" style="stroke:#000000;stroke-width:0.5;"/><text fill="#000000" font-family="sans-serif" font-size="6.5" lengthAdjust="spacing" textLength="21.5" x="459.25" y="220.0747">register</text><text fill="#000000" font-family="sans-serif" font-size="6.5" lengthAdjust="spacing" textLength="3.5" x="345.4372" y="230.5087">1</text><text fill="#000000" font-family="sans-serif" font-size="6.5" lengthAdjust="spacing" textLength="2.5" x="546.5416" y="241.5017">*</text></g><!--link HRM to Collaborator--><g id="link_HRM_Collaborator"><path codeLine="121" d="M341.515,224.2205 C359.52,227.6505 402.815,235.5055 439.5,239.0605 C478.935,242.8805 524.895,244.0655 552.895,244.4205 " fill="none" id="HRM-Collaborator-1" style="stroke:#181818;stroke-width:0.5;"/><polygon fill="#000000" points="444.4887,234.6211,440.1264,232.7281,439.8468,235.6537,444.4887,234.6211" style="stroke:#000000;stroke-width:0.5;"/><text fill="#000000" font-family="sans-serif" font-size="6.5" lengthAdjust="spacing" textLength="47" x="446.5" y="237.0747">assigns skills to</text><text fill="#000000" font-family="sans-serif" font-size="6.5" lengthAdjust="spacing" textLength="3.5" x="345.4846" y="224.75">1</text><text fill="#000000" font-family="sans-serif" font-size="6.5" lengthAdjust="spacing" textLength="2.5" x="546.513" y="252.024">*</text></g><!--link Organization to Collaborator--><g id="link_Organization_Collaborator"><path codeLine="120" d="M54.135,348.2055 C58.72,352.6355 63.73,356.7905 69,360.0605 C118.99,391.1155 137.145,397.5605 196,397.5605 C196,397.5605 196,397.5605 467.25,397.5605 C501.58,397.5605 514.85,391.9105 538,366.5605 C558.14,344.5055 568.36,312.1955 573.525,286.3655 " fill="none" id="Organization-Collaborator" style="stroke:#181818;stroke-width:0.5;"/><polygon fill="#000000" points="328.4825,392.5877,323.8179,391.6633,324.1654,394.5816,328.4825,392.5877" style="stroke:#000000;stroke-width:0.5;"/><text fill="#000000" font-family="sans-serif" font-size="6.5" lengthAdjust="spacing" textLength="10.5" x="330.5" y="395.5747">has</text><text fill="#000000" font-family="sans-serif" font-size="6.5" lengthAdjust="spacing" textLength="3.5" x="57.9509" y="360.217">1</text><text fill="#000000" font-family="sans-serif" font-size="6.5" lengthAdjust="spacing" textLength="2.5" x="570.4256" y="297.3445">*</text></g><!--link Collaborator to Skill--><g id="link_Collaborator_Skill"><path codeLine="122" d="M605.53,228.5855 C624.245,216.9855 649.195,201.5255 666.375,190.8755 " fill="none" id="Collaborator-Skill" style="stroke:#181818;stroke-width:0.5;"/><polygon fill="#000000" points="629.625,198.0663,625.0067,199.1997,626.555,201.6978,629.625,198.0663" style="stroke:#000000;stroke-width:0.5;"/><text fill="#000000" font-family="sans-serif" font-size="6.5" lengthAdjust="spacing" textLength="10.5" x="632" y="202.0747">has</text><text fill="#000000" font-family="sans-serif" font-size="6.5" lengthAdjust="spacing" textLength="3.5" x="609.4717" y="233.9622">1</text><text fill="#000000" font-family="sans-serif" font-size="6.5" lengthAdjust="spacing" textLength="2.5" x="660.023" y="200.8594">*</text></g><!--link Collaborator to Job--><g id="link_Collaborator_Job"><path codeLine="123" d="M605.53,273.0055 C627.69,297.4555 658.595,331.5505 674.99,349.6405 " fill="none" id="Collaborator-Job" style="stroke:#181818;stroke-width:0.5;"/><polygon fill="#000000" points="629.1789,289.7357,627.2305,285.3979,625.0529,287.3716,629.1789,289.7357" style="stroke:#000000;stroke-width:0.5;"/><text fill="#000000" font-family="sans-serif" font-size="6.5" lengthAdjust="spacing" textLength="10.5" x="632" y="290.5747">has</text><text fill="#000000" font-family="sans-serif" font-size="6.5" lengthAdjust="spacing" textLength="3.5" x="609.4717" y="284.6288">1</text><text fill="#000000" font-family="sans-serif" font-size="6.5" lengthAdjust="spacing" textLength="3.5" x="667.5214" y="354.2584">1</text></g><!--link Team to Collaborator--><g id="link_Team_Collaborator"><path codeLine="124" d="M487.055,296.3705 C505.39,286.0105 532.77,270.5405 552.835,259.2005 " fill="none" id="Team-Collaborator" style="stroke:#181818;stroke-width:0.5;"/><polygon fill="#000000" points="519.1765,263.1534,514.5162,264.099,515.962,266.6576,519.1765,263.1534" style="stroke:#000000;stroke-width:0.5;"/><text fill="#000000" font-family="sans-serif" font-size="6.5" lengthAdjust="spacing" textLength="10.5" x="521.5" y="267.0747">has</text><text fill="#000000" font-family="sans-serif" font-size="6.5" lengthAdjust="spacing" textLength="3.5" x="490.9835" y="302.1568">1</text><text fill="#000000" font-family="sans-serif" font-size="6.5" lengthAdjust="spacing" textLength="2.5" x="546.4446" y="268.8824">*</text></g><!--link HRM to Team--><g id="link_HRM_Team"><path codeLine="125" d="M341.57,228.2155 C346.075,231.4655 351.48,235.8405 355.5,240.5605 C364.275,250.8605 360.395,258.0555 370.5,267.0605 C392.53,286.6955 425.475,297.7705 446.41,303.2105 " fill="none" id="HRM-Team" style="stroke:#181818;stroke-width:0.5;"/><polygon fill="#000000" points="384.0333,263.8378,381.2099,260.0114,379.5001,262.4017,384.0333,263.8378" style="stroke:#000000;stroke-width:0.5;"/><text fill="#000000" font-family="sans-serif" font-size="6.5" lengthAdjust="spacing" textLength="28.5" x="386.5" y="265.0747">generates</text><text fill="#000000" font-family="sans-serif" font-size="6.5" lengthAdjust="spacing" textLength="3.5" x="343.4685" y="242.6582">1</text><text fill="#000000" font-family="sans-serif" font-size="6.5" lengthAdjust="spacing" textLength="2.5" x="440.0643" y="310.2152">*</text></g><!--link Organization to Vehicle--><g id="link_Organization_Vehicle"><path codeLine="126" d="M30.35,349.5805 C33.06,382.0005 41.77,431.5205 69,464.0605 C91.3,490.7105 128.125,506.2805 156.395,514.8505 " fill="none" id="Organization-Vehicle" style="stroke:#181818;stroke-width:0.5;"/><polygon fill="#000000" points="98.0161,461.3712,96.4419,456.884,94.1051,458.6662,98.0161,461.3712" style="stroke:#000000;stroke-width:0.5;"/><text fill="#000000" font-family="sans-serif" font-size="6.5" lengthAdjust="spacing" textLength="15" x="101" y="462.0747">owns</text><text fill="#000000" font-family="sans-serif" font-size="6.5" lengthAdjust="spacing" textLength="3.5" x="26.8345" y="360.4012">1</text><text fill="#000000" font-family="sans-serif" font-size="6.5" lengthAdjust="spacing" textLength="2.5" x="149.9534" y="521.4029">*</text></g><!--link FM to Vehicle--><g id="link_FM_Vehicle"><path codeLine="127" d="M35.27,551.8555 C43.02,549.7105 56.935,546.0005 69,543.5605 C98.08,537.6855 131.225,532.6505 156.36,529.1705 " fill="none" id="FM-Vehicle" style="stroke:#181818;stroke-width:0.5;"/><polygon fill="#000000" points="93.9573,525.923,89.2415,525.3114,89.7826,528.2001,93.9573,525.923" style="stroke:#000000;stroke-width:0.5;"/><text fill="#000000" font-family="sans-serif" font-size="6.5" lengthAdjust="spacing" textLength="25" x="96" y="529.0747">registers</text><text fill="#000000" font-family="sans-serif" font-size="6.5" lengthAdjust="spacing" textLength="3.5" x="39.3016" y="547.5483">1</text><text fill="#000000" font-family="sans-serif" font-size="6.5" lengthAdjust="spacing" textLength="2.5" x="150.0444" y="537.0582">*</text></g><!--link FM to Vehicle--><g id="link_FM_Vehicle"><path codeLine="128" d="M35.49,555.0355 C52.75,558.8405 102.44,567.9655 141.5,557.0605 C146.505,555.6605 151.515,553.6655 156.35,551.3355 " fill="none" id="FM-Vehicle-1" style="stroke:#181818;stroke-width:0.5;"/><polygon fill="#000000" points="73.9988,552.3068,69.4334,550.9764,69.5234,553.914,73.9988,552.3068" style="stroke:#000000;stroke-width:0.5;"/><text fill="#000000" font-family="sans-serif" font-size="6.5" lengthAdjust="spacing" textLength="65" x="76" y="555.0747">lists needing check-up</text><text fill="#000000" font-family="sans-serif" font-size="6.5" lengthAdjust="spacing" textLength="3.5" x="39.2044" y="564.6277">1</text><text fill="#000000" font-family="sans-serif" font-size="6.5" lengthAdjust="spacing" textLength="2.5" x="150.0334" y="561.2665">*</text></g><!--link Vehicle to Checkup--><g id="link_Vehicle_Checkup"><path codeLine="129" d="M236.59,542.2455 C260.32,553.1405 289.635,566.6055 309.46,575.7105 " fill="none" id="Vehicle-Checkup" style="stroke:#181818;stroke-width:0.5;"/><polygon fill="#000000" points="267.0219,545.4266,263.5253,542.2038,262.2987,544.8746,267.0219,545.4266" style="stroke:#000000;stroke-width:0.5;"/><text fill="#000000" font-family="sans-serif" font-size="6.5" lengthAdjust="spacing" textLength="14" x="269.25" y="547.0747">does</text><text fill="#000000" font-family="sans-serif" font-size="6.5" lengthAdjust="spacing" textLength="3.5" x="240.4471" y="551.3385">1</text><text fill="#000000" font-family="sans-serif" font-size="6.5" lengthAdjust="spacing" textLength="2.5" x="302.937" y="581.7321">*</text></g><!--link FM to Checkup--><g id="link_FM_Checkup"><path codeLine="130" d="M35.275,556.4955 C53.2,565.0405 107.93,589.8105 156.5,598.0605 C191.555,604.0155 201.015,600.2805 236.5,598.0605 C261.6,596.4905 290.195,592.6205 309.5,589.6955 " fill="none" id="FM-Checkup" style="stroke:#181818;stroke-width:0.5;"/><polygon fill="#000000" points="185.2319,593.6838,180.9187,591.6814,180.5655,594.599,185.2319,593.6838" style="stroke:#000000;stroke-width:0.5;"/><text fill="#000000" font-family="sans-serif" font-size="6.5" lengthAdjust="spacing" textLength="25" x="187.25" y="596.0747">registers</text><text fill="#000000" font-family="sans-serif" font-size="6.5" lengthAdjust="spacing" textLength="3.5" x="39.3091" y="557.6112">1</text><text fill="#000000" font-family="sans-serif" font-size="6.5" lengthAdjust="spacing" textLength="2.5" x="302.9836" y="598.0334">*</text></g><!--SRC=[bLLBRnCn4Bxlhx3sWeHKHAySaAfMXL8L42bmTkpfxYX-RCTUIbhntnbx7t52afPSCcD_yytJis65hfCahR3UUTMIjo0YzL25-QQJQYKRMCIr0K6WedIDAG6XbTe_e6l4dJG1gbURAuCEuhe3uIcslZ9m5qNqWh1fez2OsD2xWaiP6S9PZ8JBFiALycw1Zo3ULYrg40f9iUiiMs167QegOkJ0BhoLwCIDrs2gAjE8BzH8Xuyo-H1FbU2VanO60U_o_mCi0yRXh6kzWy-zNG9b7PZIL7yckiKAZTcXqH0KOPUpc87dtXYvz2IZfnsyr1P3OFI579qkaKipQ_j3I1Bg2wzkkPORRSJDVZ_vPU5kFlxuxUQfsgYNMzejI7iafwHRI6v2baEKiGyRyn_G8hTaOEWCft6bXxH8ka6okIL9YbFqKT8WDEH3-0bf7BAkUY9myTfcZQ31487cwaXrtoEtgwoVQa6j-kwIuBu7fzRNjWZlVBWSmjCx9bl83mJW5Zphy4_7D448smdiRVlPW7mQ2yM4iH2BfdQUosZEkIv3E1ZN0ojdIwXYqHqPLWDVdl81rPESUpFs8xCIUafKi_Nt0FILNvxSdTgUJ3cjrdBDHpVmEsuNI_RyplAGRUX4VLgBanDHlwudS_5ErAqCudrTRJsx2NdwvWs32mh6-mUN3SuQS5gMf2dlWZ6hwJmprNbeqpK6eIGHWXQ-ZsAvFkY-u9oyxW-p5cCqpo6PSMpu68dnYckcXOp9fjm11smC_e8WU6anV3D-BtLmAAY2YSsiTBoxZsQHrrgPBk-BlVVJSpn6nYle2DLuMnBj8BRAzaAVkpRZq3p3pAEF3KSPKdeXVPMET6skmSYz5tSw9pYDRHhJ_mvq6cuUGs3eyUQD-xUi-UND0S1Ko-CemvWW781EN_IyAa_wBfbCe3AZOPCcE-rX3t41s7B_5m00]--></g></svg>